<svg xmlns="http://www.w3.org/2000/svg" style="clip-rule:evenodd;fill-rule:evenodd;stroke-linejoin:round;stroke-miterlimit:2" viewBox="0 0 16 16">
 <defs>
  <style id="current-color-scheme" type="text/css">
   .ColorScheme-Text { color:#dfdfdf; } .ColorScheme-Highlight { color:#4285f4; } .ColorScheme-NeutralText { color:#ff9800; } .ColorScheme-PositiveText { color:#4caf50; } .ColorScheme-NegativeText { color:#f44336; }
  </style>
 </defs>
 <path style="fill:currentColor" class="ColorScheme-Text" fill-opacity=".3" d="m2 1s-2 0-2 2v11s0 2 2 2h11s2 0 2-2v-11c0-2-2-2-2-2h-11zm-0.973 8.088h5.885v5.885h-5.885v-5.885zm7.061 0h5.885v5.885h-5.885v-5.885zm0-7.061h5.885v5.885h-5.885v-5.885zm-7.061 0h5.885v5.885h-5.885v-5.885z"/>
 <path style="fill:currentColor" class="ColorScheme-Text" d="m3.444 10.635v1h-1v1h1v1h1v-1h1v-1h-1v-1h-1z"/>
 <path style="fill:currentColor" class="ColorScheme-Text" d="m9.615 12.615v1h3v-1h-3zm0-2v1h3v-1h-3z"/>
 <path style="fill:currentColor" class="ColorScheme-Text" d="m10.075 3.325c-0.34 0.08-0.54 0.58-0.28 0.84l0.65 0.66-0.65 0.66c-0.26 0.15-0.31 0.56-0.1 0.78 0.22 0.21 0.63 0.16 0.78-0.1l0.66-0.65 0.66 0.65c0.15 0.26 0.56 0.31 0.78 0.1 0.21-0.22 0.16-0.63-0.1-0.78l-0.65-0.66 0.65-0.66c0.26-0.23 0.15-0.73-0.18-0.84h-0.07c-0.16-0.02-0.32 0.04-0.43 0.16l-0.66 0.65-0.66-0.65c-0.06-0.08-0.15-0.13-0.25-0.16-0.05-0.01-0.1-0.01-0.15 0z"/>
 <rect style="fill:currentColor" class="ColorScheme-Text" width="3" height="1" x="2.31" y="4.5"/>
</svg>
