<svg clip-rule="evenodd" fill-rule="evenodd" stroke-linejoin="round" stroke-miterlimit="2" viewBox="0 0 16 16" xmlns="http://www.w3.org/2000/svg">
 <g fill="#dfdfdf">
  <path transform="matrix(.129252 .129252 -.129252 .129252 97.4681 -190.866)" d="m435 1114.17 8.484-8.48c.782-.78 2.043-.79 2.83 0 .781.78.785 2.04-.002 2.83l-8.484 8.48 8.484 8.48c.782.79.788 2.05.002 2.83-.781.79-2.043.79-2.83 0l-8.484-8.48-8.484 8.48c-.782.78-2.043.79-2.83 0-.781-.78-.785-2.04.002-2.83l8.484-8.48-8.484-8.48c-.782-.79-.788-2.05-.002-2.83.781-.79 2.043-.79 2.83 0z"/>
  <path transform="translate(-.21735 .410915)" d="m5.774 1.97c-.387 0-.758.154-1.031.428-.274.273-.427.644-.427 1.031v10.113c0 .806.653 1.459 1.458 1.459h7.321c.806 0 1.459-.653 1.459-1.459 0-2.673 0-8.087 0-8.087l-2.946-3.485zm.009.931c-.296 0-.537.241-.537.537v10.095c0 .297.241.537.537.537h7.303c.297 0 .537-.24.537-.537 0-1.843 0-7.801 0-7.801l-2.403-.024v-2.807zm4.646-1.239h-1.644v-.554h-5.436c-.297 0-.537.24-.537.537v10.095c0 .297.24.537.536.537h.427v.931h-.435c-.806 0-1.459-.653-1.459-1.459 0-2.507 0-7.606 0-10.113 0-.387.154-.758.427-1.031.274-.274.645-.428 1.032-.428h5.834z"/>
 </g>
</svg>
