<svg xmlns="http://www.w3.org/2000/svg" viewBox="0 0 16 16">
 <defs>
  <style id="current-color-scheme" type="text/css">
   .ColorScheme-Text { color:#dfdfdf; } .ColorScheme-Highlight { color:#4285f4; } .ColorScheme-NeutralText { color:#ff9800; } .ColorScheme-PositiveText { color:#4caf50; } .ColorScheme-NegativeText { color:#f44336; }
  </style>
 </defs>
 <path style="fill:currentColor" class="ColorScheme-Text" d="m7.297 1c-.383.002-.697.317-.697.7v4.815l-1.698-1.189c-.118-.083-.258-.127-.402-.127-.384 0-.701.316-.701.701 0 .228.112.443.299.574l2.179 1.526-2.179 1.526c-.187.131-.299.345-.299.574 0 .384.317.701.701.701.144 0 .284-.045.402-.127l1.698-1.189v4.816c0 .384.316.7.7.7.164 0 .323-.058.448-.163l4.2-3.5c.16-.132.253-.33.253-.538 0-.229-.112-.444-.299-.574l-3.18-2.226 3.18-2.226c.187-.131.299-.345.299-.574 0-.208-.093-.406-.253-.539l-4.2-3.5c-.126-.105-.286-.162-.451-.161zm.703 8.206v3.598l2.346-1.955zm0-6.01v3.598l2.346-1.643z"/>
</svg>
