<svg xmlns="http://www.w3.org/2000/svg" style="clip-rule:evenodd;fill-rule:evenodd;stroke-linejoin:round;stroke-miterlimit:2" viewBox="0 0 16 16">
 <defs>
  <style id="current-color-scheme" type="text/css">
   .ColorScheme-Text { color:#dfdfdf; } .ColorScheme-Highlight { color:#4285f4; } .ColorScheme-NeutralText { color:#ff9800; } .ColorScheme-PositiveText { color:#4caf50; } .ColorScheme-NegativeText { color:#f44336; }
  </style>
 </defs>
 <g transform="translate(1.51861 .878412)">
  <path style="fill:currentColor" class="ColorScheme-Text" d="m11.047 11.246v0.893c0 0.174-0.069 0.34-0.192 0.463s-0.289 0.192-0.463 0.192h-0.784c-0.174 0-0.34-0.069-0.463-0.192s-0.192-0.289-0.192-0.463v-0.169h-2.055c-1.775 0-3.216-1.441-3.216-3.216s1.441-3.216 3.216-3.216h2.055v-0.168c0-0.174 0.069-0.341 0.192-0.463 0.123-0.123 0.289-0.192 0.463-0.192h0.784c0.174 0 0.34 0.069 0.463 0.192 0.123 0.122 0.192 0.289 0.192 0.463v0.893h1.936c0.187 0 0.366 0.074 0.498 0.206s0.206 0.311 0.206 0.498v1e-3c0 0.187-0.074 0.366-0.206 0.498s-0.311 0.206-0.498 0.206h-1.936v2.164h1.936c0.187 0 0.366 0.074 0.498 0.206s0.206 0.312 0.206 0.498v2e-3c0 0.186-0.074 0.365-0.206 0.497s-0.311 0.207-0.498 0.207h-1.936z"/>
 </g>
 <g transform="translate(-1.37965 .878412)">
  <path style="fill:currentColor" class="ColorScheme-Text" d="m7.613 8.254h-3.534c-0.571 0-1.405-0.351-1.405-1.405v-3.653c0-0.275 0.077-0.677 0.367-0.952 0.191-0.182 0.477-0.295 0.88-0.295h5.459c0.276 0 0.5-0.224 0.5-0.5s-0.224-0.5-0.5-0.5h-5.459c-0.725 0-1.224 0.243-1.568 0.569-0.514 0.488-0.679 1.191-0.679 1.678v3.653c0 1.804 1.428 2.405 2.405 2.405h3.534v-1z"/>
 </g>
</svg>
