<svg style="clip-rule:evenodd;fill-rule:evenodd;stroke-linejoin:round;stroke-miterlimit:2" viewBox="0 0 16 16" xmlns="http://www.w3.org/2000/svg">
 <path d="m10.639 5c0.863 0.758 1.359 1.852 1.361 3-1e-3 0.702-0.187 1.392-0.539 2h4e-3l-3.463 6c4.388-1e-3 7.998-3.612 7.998-8-2e-3 -1.029-0.202-2.047-0.59-3h-4.771z" fill-opacity=".3" fill="#dfdfdf"/>
 <path d="M1.078,4.01C0.375,5.223 0.004,6.599 0,8C0.007,11.968 2.965,15.362 6.895,15.91L9.279,11.79C8.867,11.929 8.435,12 8,12C6.575,11.998 5.254,11.235 4.541,10L4.535,10L1.078,4.01Z" fill-opacity=".3" fill="#dfdfdf"/>
 <path d="m8 5c-1.646 0-3 1.354-3 3s1.354 3 3 3 3-1.354 3-3-1.354-3-3-3z" fill="#dfdfdf"/>
 <path d="M8,0C10.852,0.003 13.494,1.53 14.92,4L8,4C6.103,4.001 4.455,5.35 4.08,7.21L1.695,3.08C3.209,1.139 5.538,0.001 8,0Z" fill-opacity=".3" fill="#dfdfdf"/>
</svg>
