<svg style="clip-rule:evenodd;fill-rule:evenodd;stroke-linejoin:round;stroke-miterlimit:2" version="1.1" viewBox="0 0 16 16" xmlns="http://www.w3.org/2000/svg">
 <g transform="translate(1 .992556)">
  <path d="m5 8.72v0.95c2.1 1.09 4 0 4 0v-0.95s-2.06 1.05-4 0z" style="fill-rule:nonzero;fill:rgb(223,223,223)"/>
 </g>
 <g transform="translate(1 .992556)">
  <ellipse cx="7" cy="7" rx="2" ry="1" style="fill:rgb(223,223,223)"/>
 </g>
 <g transform="translate(1 .992556)">
  <path d="m5 10.72v0.95c2.1 1.09 4 0 4 0v-0.95s-2.06 1.05-4 0z" style="fill-rule:nonzero;fill:rgb(223,223,223)"/>
 </g>
 <g transform="matrix(.571429 0 0 .571429 -3.90171 -1.11714)">
  <path d="m9.828 1.955v28h22v-19.314l-7.856-8.686h-14.144zm2 2h10.346v8.433l7.654 0.052v15.515h-18v-24zm12.346 1.201 4.452 5.284-4.452-0.052v-5.232z" style="fill-rule:nonzero;fill:rgb(223,223,223)"/>
 </g>
</svg>
