<svg style="clip-rule:evenodd;fill-rule:evenodd;stroke-linejoin:round;stroke-miterlimit:2" viewBox="0 0 16 16" xmlns="http://www.w3.org/2000/svg">
 <path d="m1 1c-0.55 0-1 0.45-1 1v12c0 0.55 0.45 1 1 1h14c0.56 0 1-0.45 1-1v-13h-3.5l1.5 3h-2l-1.5-3h-2l1.5 3h-2l-1.5-3h-2l1.5 3h-2l-1.5-3h-1.5z" style="fill-opacity:.3;fill:rgb(223,223,223)"/>
 <g transform="matrix(1.84986,0,0,1.84986,-6.22077,-8.25237)">
  <path d="m6 8.064c0-0.228 0.118-0.44 0.312-0.56 0.194-0.119 0.436-0.13 0.639-0.028 0.817 0.408 1.997 0.998 2.873 1.436 0.223 0.111 0.364 0.339 0.364 0.588s-0.141 0.477-0.364 0.588c-0.876 0.438-2.056 1.028-2.873 1.436-0.203 0.102-0.445 0.091-0.639-0.028-0.194-0.12-0.312-0.332-0.312-0.56v-2.872z" fill="#dfdfdf"/>
 </g>
 <path d="m2.5 1 1.5 3h2l-1.5-3h-2z" fill="#dfdfdf"/>
 <g transform="translate(4.02978)">
  <path d="m2.5 1 1.5 3h2l-1.5-3h-2z" fill="#dfdfdf"/>
 </g>
 <g transform="translate(7.98015)">
  <path d="m2.5 1 1.5 3h2l-1.5-3h-2z" fill="#dfdfdf"/>
 </g>
</svg>
