<svg style="clip-rule:evenodd;fill-rule:evenodd;stroke-linejoin:round;stroke-miterlimit:2" viewBox="0 0 16 16" xmlns="http://www.w3.org/2000/svg">
 <path d="m9.24 8.13c-0.5 0.9-1.22 1.64-2.09 2.15l1.6 1.59-1.42 1.41 2.12 2.12 1.42-1.42 0.7 0.71 2.13-2.12-4.46-4.44z" fill-opacity=".3" fill="#dfdfdf"/>
 <g transform="translate(0 -3)">
  <path d="m4.5 4c-2.48 0-4.5 2.01-4.5 4.5s2.02 4.5 4.5 4.5c1.91 0 3.6-1.2 4.24-3h3.26v2h3v-2h1v-3h-7.26c-0.64-1.8-2.33-3-4.24-3zm0 1c1.937 0 3.5 1.563 3.5 3.5s-1.563 3.5-3.5 3.5-3.5-1.563-3.5-3.5 1.563-3.5 3.5-3.5z" fill="#dfdfdf"/>
 </g>
</svg>
