<svg xmlns="http://www.w3.org/2000/svg" viewBox="0 0 16 16">
 <defs>
  <style id="current-color-scheme" type="text/css">
   .ColorScheme-Text { color:#dfdfdf; } .ColorScheme-Highlight { color:#4285f4; } .ColorScheme-NeutralText { color:#ff9800; } .ColorScheme-PositiveText { color:#4caf50; } .ColorScheme-NegativeText { color:#f44336; }
  </style>
 </defs>
 <g style="fill:currentColor" class="ColorScheme-Text">
  <path fill-opacity=".5" transform="matrix(1.27125 0 0 1.27125 -2.17519 -2.14577)" d="m3.2 7.015c.021.002.048-.002.08-.01.105-.277.568-.341.375.03-.472.421.558.075.282.5-.166.413.286.38.515.411.074-.008.596-.474.545-.251.181-.06.465.157.663.109.332-.171.395.438.797.419.502-.062.316.653.796.618.295.269.898.131 1.081.575-.054.386-.502.63-.36 1.081.055.531-.877.316-.719.829-.186.235-.244.817-.686.629.244.189.122.475-.219.435.083.177-.08.151-.142.171-.313-.123-.611-.278-.889-.461.061-.271-.096-.511-.07-.78-.015-.288.003-.594-.095-.861-.456-.181-.687-.532-.887-.974-.285-.172-.034-.37-.147-.565.179-.309.532-.649.161-.978-.108.248-.288.077-.469-.032-.088-.323-.439-.343-.673-.524.015-.125.036-.249.061-.371zm7.717-2.951c.428.318.804.705 1.109 1.144-.059-.066-.399-.442-.62-.548-.27.15-.484.062-.669.375-.049.276-.437.26-.507.414.366.113.742-.244 1.161-.133.356-.067.044.291.21.375.274-.105.673.495.774.103.336.664.524 1.413.524 2.206 0 1.322-.524 2.522-1.376 3.404-.037-.225.102-.738-.049-1.067-.124-.376.504-.684.21-1.083-.306-.221-.236-.546-.226-.829-.262.019-.359-.223-.595-.239-.464.101-.985.313-1.362-.063-.07-.242-.444-.394-.413-.653-.043-.22.131-.5.027-.733.122-.458.618-.573.739-1.014.203-.03.429-.438.082-.393-.114-.181-.063-.71.27-.596.364.192.591-.354.151-.392.031-.158.396-.1.56-.278zm-4.298-.766c-.048.218.458-.249.435.09-.047.318.469.414.138.742.155.041.161.102.165.266-.027-.033-.651.002-.375-.193.363-.348-.112-.066-.324-.097-.004.225-.198-.159-.375.085.35-.057-.055.262.187.298.472-.085-.054.145-.286.238.064-.284-.136-.049-.354-.017-.149.241-.48.328-.722.505.026.244-.256.396-.483.506-.444.012.06.751-.362.532-.012-.236-.14-.32-.417-.311-.102.097-.229.067-.328.076.21-.472.492-.906.833-1.286-.098.171-.026.14.07.054.102-.092.23-.247.204-.282-.022-.003-.04-.003-.056 0 .017-.017.034-.034.052-.05h.006c.061.003.134-.029.105-.103.176-.158.364-.303.562-.435.016.029.069.051.171.062-.001-.173.106-.219.222-.263.093-.034.192-.067.248-.159.22-.102.448-.189.684-.258zm5.35 1.956c-.103-.026-.165-.025-.198-.012-.032.013-.036.037-.021.058.029.041.131.066.219-.046zm-.623-.281c-.018.109-.007.161.014.178s.053 0 .077-.031c.047-.06.065-.169-.091-.147zm.06-.157c-.032.046-.039.071-.034.081.005.011.022.008.039-.001.034-.02.066-.065-.005-.08zm-6.531-.343c.138.045.165.078.137.119-.029.04-.113.088-.2.162-.097-.048-.046-.276.063-.281zm5.566-.721c.133.076.262.159.386.247-.203.047-.5.232-.484-.028.133-.088.142-.149.098-.219zm-.285-.092c-.159.03-.219.162-.201.251.017.089.112.136.261-.004.03-.127.202-.255-.06-.247z"/>
  <path d="m8 1c3.84 0 7 3.16 7 7s-3.16 7-7 7-7-3.16-7-7 3.16-7 7-7zm0 .749c-3.429 0-6.251 2.822-6.251 6.251s2.822 6.251 6.251 6.251 6.251-2.822 6.251-6.251-2.822-6.251-6.251-6.251zm.577 5.952c.098.19.101.425-.014.624-.179.311-.577.417-.888.238l-3.634-2.098c-.311-.18-.418-.578-.238-.888.179-.311.577-.418.888-.238l3.331 1.923 2.474-4.285c.096-.167.311-.225.478-.128s.225.311.128.478z"/>
 </g>
</svg>
