<svg style="clip-rule:evenodd;fill-rule:evenodd;stroke-linejoin:round;stroke-miterlimit:2" viewBox="0 0 16 16" xmlns="http://www.w3.org/2000/svg">
 <rect x="3" y="14.543" width="10" height="1.457" fill-opacity=".3" fill="#dfdfdf"/>
 <path d="m14.859 11.831v-9.826h-13.923v9.826h13.923zm-14.859-8.82c0-0.061 0.031-1.999 2-1.999h12c2 0 2 2 2 2v7.988c0 2-2 2-2 2h-12c-2 0-2-2-2-2v-7.988-1e-3z" fill="#dfdfdf"/>
 <g transform="translate(0 -.0841526)">
  <path d="m8.48 3.351c-0.319-0.041-0.641-0.041-0.96 0l-0.093 0.907c-0.273 0.056-0.536 0.152-0.781 0.284l-0.654-0.635c-0.271 0.173-0.518 0.381-0.735 0.617l0.511 0.754c-0.173 0.219-0.313 0.462-0.416 0.721l-0.908-0.066c-0.097 0.306-0.153 0.624-0.167 0.945l0.877 0.249c7e-3 0.278 0.056 0.554 0.144 0.819l-0.739 0.533c0.124 0.297 0.285 0.577 0.48 0.832l0.832-0.373c0.185 0.208 0.399 0.388 0.637 0.535l-0.223 0.883c0.285 0.148 0.588 0.258 0.902 0.328l0.397-0.82c0.276 0.041 0.556 0.041 0.832 0l0.397 0.82c0.314-0.07 0.617-0.18 0.902-0.328l-0.223-0.883c0.238-0.147 0.452-0.327 0.637-0.535l0.832 0.373c0.195-0.255 0.356-0.535 0.48-0.832l-0.739-0.533c0.088-0.265 0.137-0.541 0.144-0.819l0.877-0.249c-0.014-0.321-0.07-0.639-0.167-0.945l-0.908 0.066c-0.103-0.259-0.243-0.502-0.416-0.721l0.511-0.754c-0.217-0.236-0.464-0.444-0.735-0.617l-0.654 0.635c-0.245-0.132-0.508-0.228-0.781-0.284l-0.093-0.907zm-0.48 1.705c1.099 0 1.992 0.892 1.992 1.991s-0.893 1.992-1.992 1.992-1.992-0.893-1.992-1.992 0.893-1.991 1.992-1.991z" style="fill:rgb(235,235,235)"/>
 </g>
</svg>
