<svg xmlns="http://www.w3.org/2000/svg" style="clip-rule:evenodd;fill-rule:evenodd;stroke-linejoin:round;stroke-miterlimit:2" viewBox="0 0 16 16">
 <defs>
  <style id="current-color-scheme" type="text/css">
   .ColorScheme-Text { color:#dfdfdf; } .ColorScheme-Highlight { color:#4285f4; } .ColorScheme-NeutralText { color:#ff9800; } .ColorScheme-PositiveText { color:#4caf50; } .ColorScheme-NegativeText { color:#f44336; }
  </style>
 </defs>
 <g transform="matrix(.727047 0 0 .727047 .734491 3.63275)">
  <path style="fill:currentColor" class="ColorScheme-Text" fill-opacity=".3" d="m8 12c0 2.194-1.806 4-4 4s-4-1.806-4-4 1.806-4 4-4 4 1.806 4 4z"/>
 </g>
 <g transform="matrix(.91067 0 0 .91067 1.42928 1.42928)">
  <path style="fill:currentColor" class="ColorScheme-Text" d="m16 12c0 2.194-1.806 4-4 4s-4-1.806-4-4 1.806-4 4-4 4 1.806 4 4z"/>
 </g>
 <g transform="matrix(.858561 0 0 .858561 .208437 2.05459)">
  <path style="fill:currentColor" class="ColorScheme-Text" fill-opacity=".3" d="m8 12c0 2.194-1.806 4-4 4s-4-1.806-4-4 1.806-4 4-4 4 1.806 4 4z"/>
 </g>
 <g transform="matrix(.91067 0 0 .91067 .71464 .51861)">
  <path style="fill:currentColor" class="ColorScheme-Text" d="m8 1c-2.194 0-4 1.806-4 4s1.806 4 4 4 4-1.806 4-4-1.806-4-4-4zm0 1c1.646 0 3 1.354 3 3s-1.354 3-3 3-3-1.354-3-3 1.354-3 3-3z"/>
 </g>
 <g transform="matrix(.91067 0 0 .91067 0 1.42928)">
  <path style="fill:currentColor" class="ColorScheme-Text" d="m4 8c-2.194 0-4 1.806-4 4s1.806 4 4 4 4-1.806 4-4-1.806-4-4-4zm0 1c1.646 0 3 1.354 3 3s-1.354 3-3 3-3-1.354-3-3 1.354-3 3-3z"/>
 </g>
</svg>
