<svg style="clip-rule:evenodd;fill-rule:evenodd;stroke-linejoin:round;stroke-miterlimit:2" viewBox="0 0 16 16" xmlns="http://www.w3.org/2000/svg">
 <g transform="matrix(2.33333,0,0,2.33333,-10,-12.4285)">
  <path d="m7.5 11c-0.828 0-1.5-0.672-1.5-1.5s0.672-1.5 1.5-1.5 1.5 0.672 1.5 1.5-0.672 1.5-1.5 1.5z" fill-opacity=".3" fill="#dfdfdf"/>
 </g>
 <path d="m3.5 15c-0.831 0-1.5-0.669-1.5-1.5v-11c0-0.831 0.669-1.5 1.5-1.5h8c0.831 0 1.5 0.669 1.5 1.5v11c0 0.831-0.669 1.5-1.5 1.5h-8zm4-0.938c2.388 0 4.324-1.936 4.324-4.324s-1.936-4.324-4.324-4.324-4.324 1.936-4.324 4.324 1.936 4.324 4.324 4.324zm-2.5-10.055c0.552 0 1-0.447 1-1 0-0.552-0.448-1-1-1s-1 0.448-1 1c0 0.553 0.448 1 1 1zm5 0c0.552 0 1-0.447 1-1 0-0.552-0.448-1-1-1s-1 0.448-1 1c0 0.553 0.448 1 1 1z" fill="#dfdfdf"/>
</svg>
