<svg xmlns="http://www.w3.org/2000/svg" style="isolation:isolate" width="16" height="16">
 <defs>
  <style id="current-color-scheme" type="text/css">
   .ColorScheme-Text { color:#dfdfdf; } .ColorScheme-Highlight { color:#4285f4; } .ColorScheme-NeutralText { color:#ff9800; } .ColorScheme-PositiveText { color:#4caf50; } .ColorScheme-NegativeText { color:#f44336; }
  </style>
 </defs>
 <path style="fill:currentColor" class="ColorScheme-Text" fill-rule="evenodd" d="M 5.323 9.143 L 5.323 9.143 L 5.323 9.143 L 5.323 9.143 L 6.195 9.143 L 6.195 9.143 L 7.143 9.143 L 6.491 9.794 C 6.832 10.27 7.387 10.571 8 10.571 C 8.86 10.57 9.606 9.979 9.805 9.143 L 10.679 9.143 C 10.468 10.459 9.333 11.428 8 11.429 C 7.15 11.428 6.38 11.033 5.88 10.406 L 5.143 11.143 L 5.143 9.143 L 5.323 9.143 L 5.323 9.143 L 5.323 9.143 Z M 3.286 13.989 C 1.448 13.843 0 12.304 0 10.429 L 0 10.429 C 0 9.254 0.568 8.212 1.443 7.56 C 1.251 7.176 1.143 6.744 1.143 6.286 C 1.143 4.709 2.423 3.429 4 3.429 C 4.82 3.429 5.56 3.775 6.081 4.33 C 6.713 2.955 8.103 2 9.714 2 C 11.818 2 13.545 3.628 13.703 5.691 C 15.072 6.444 16 7.9 16 9.571 C 16 11.968 14.092 13.922 11.714 13.998 L 11.714 14 L 11.571 14 L 3.571 14 L 3.286 14 L 3.286 13.989 L 3.286 13.989 L 3.286 13.989 Z M 9.509 7.634 C 9.168 7.159 8.613 6.858 8 6.857 C 7.14 6.858 6.394 7.449 6.195 8.286 L 5.321 8.286 C 5.532 6.969 6.667 6.001 8 6 L 8 6 C 8.85 6.001 9.62 6.396 10.12 7.023 L 10.857 6.286 L 10.857 8.286 L 10.677 8.286 L 10.677 8.286 L 9.805 8.286 L 9.805 8.286 L 8.857 8.286 L 9.509 7.634 L 9.509 7.634 Z"/>
</svg>
