<svg xmlns="http://www.w3.org/2000/svg" style="clip-rule:evenodd;fill-rule:evenodd;stroke-linejoin:round;stroke-miterlimit:2" viewBox="0 0 16 16">
 <defs>
  <style id="current-color-scheme" type="text/css">
   .ColorScheme-Text { color:#dfdfdf; } .ColorScheme-Highlight { color:#4285f4; } .ColorScheme-NeutralText { color:#ff9800; } .ColorScheme-PositiveText { color:#4caf50; } .ColorScheme-NegativeText { color:#f44336; }
  </style>
 </defs>
 <path style="fill:currentColor" class="ColorScheme-Text" d="m2 1c-1.108 0-2 0.892-2 2v10c0 1.108 0.892 2 2 2h12c1.108 0 2-0.892 2-2v-10c0-1.108-0.892-2-2-2h-12zm0 0.8h12c0.665 0 1.2 0.535 1.2 1.2v10c0 0.665-0.535 1.2-1.2 1.2h-12c-0.665 0-1.2-0.535-1.2-1.2v-10c0-0.665 0.535-1.2 1.2-1.2z"/>
 <rect style="fill:currentColor" class="ColorScheme-Text" width="4" height="1" x="8" y="9"/>
 <path style="fill:currentColor" class="ColorScheme-Text" d="m4 3h1v1h0.5c0.654 0 1.202 0.418 1.408 1h-1.908v1h0.5c0.831 0 1.5 0.669 1.5 1.5s-0.669 1.5-1.5 1.5h-0.5v1h-1v-1h-0.5c-0.654 0-1.202-0.418-1.408-1h1.908v-1h-0.5c-0.831 0-1.5-0.669-1.5-1.5s0.669-1.5 1.5-1.5h0.5v-1zm1 4v1h0.5c0.277 0.013 0.5-0.223 0.5-0.5s-0.223-0.5-0.5-0.5h-0.5zm-1.5-2c-0.277 0-0.5 0.223-0.5 0.5s0.223 0.5 0.5 0.5h0.5v-1h-0.5z"/>
</svg>
