<svg xmlns="http://www.w3.org/2000/svg" style="clip-rule:evenodd;fill-rule:evenodd;stroke-linejoin:round;stroke-miterlimit:2" viewBox="0 0 16 16">
 <defs>
  <style id="current-color-scheme" type="text/css">
   .ColorScheme-Text { color:#dfdfdf; } .ColorScheme-Highlight { color:#4285f4; } .ColorScheme-NeutralText { color:#ff9800; } .ColorScheme-PositiveText { color:#4caf50; } .ColorScheme-NegativeText { color:#f44336; }
  </style>
 </defs>
 <path style="fill:currentColor" class="ColorScheme-Text" d="m8 10.199c-0.554 0-1 0.358-1 0.801v3.199c0 0.443 0.446 0.801 1 0.801s1-0.358 1-0.801v-3.199c0-0.443-0.446-0.801-1-0.801z"/>
 <path style="fill:currentColor" class="ColorScheme-Text" fill-opacity=".3" d="m7.6 0c-0.887 0-1.6 0.713-1.6 1.6v0.75c-0.692 0.245-1.334 0.616-1.893 1.093l-0.65-0.375c-0.768-0.443-1.742-0.181-2.186 0.586l-0.4 0.692c-0.443 0.767-0.182 1.742 0.586 2.185l0.648 0.375c-0.068 0.361-0.103 0.727-0.105 1.094 2e-3 0.367 0.037 0.733 0.105 1.094l-0.648 0.375c-0.768 0.443-1.029 1.418-0.586 2.185l0.4 0.692c0.444 0.767 1.418 1.029 2.186 0.586l0.647-0.373c0.56 0.476 1.202 0.845 1.896 1.089l0.024-1.164c-1.798-0.492-2.929-2.672-2.929-4.483 2e-3 -1.762 1.349-3.781 2.889-4.352l0.016 3.351 2 1.5 2-1.5 0.036-3.274c1.541 0.592 2.869 2.512 2.869 4.275 0 1.811-0.913 3.832-2.909 4.503l4e-3 1.141c0.692-0.244 1.334-0.613 1.893-1.088l0.65 0.375c0.768 0.443 1.742 0.181 2.186-0.586l0.4-0.692c0.443-0.767 0.182-1.742-0.586-2.185l-0.648-0.375c0.068-0.361 0.103-0.727 0.105-1.094-2e-3 -0.367-0.037-0.733-0.105-1.094l0.648-0.375c0.768-0.443 1.029-1.418 0.586-2.185l-0.4-0.692c-0.444-0.767-1.418-1.029-2.186-0.586l-0.647 0.373c-0.56-0.476-1.202-0.845-1.896-1.089v-0.752c0-0.887-0.713-1.6-1.6-1.6h-0.8z"/>
 <path style="fill:currentColor" class="ColorScheme-Text" d="M6,7L6,1.6C6,0.713 6.713,0 7.6,0L8.4,0C9.287,0 10,0.713 10,1.6L10,7L8,8.5L6,7Z"/>
</svg>
