<svg xmlns="http://www.w3.org/2000/svg" style="clip-rule:evenodd;fill-rule:evenodd;stroke-linejoin:round;stroke-miterlimit:2" viewBox="0 0 16 16">
 <defs>
  <style id="current-color-scheme" type="text/css">
   .ColorScheme-Text { color:#dfdfdf; } .ColorScheme-Highlight { color:#4285f4; } .ColorScheme-NeutralText { color:#ff9800; } .ColorScheme-PositiveText { color:#4caf50; } .ColorScheme-NegativeText { color:#f44336; }
  </style>
 </defs>
 <g transform="translate(.0198511 -.933002)">
  <path style="fill:currentColor" class="ColorScheme-Text" d="m10 8c-1.31 0-2.4 0.86-2.81 2.03-1.23 0.16-2.19 1.2-2.19 2.47 0 1.38 1.12 2.5 2.5 2.5h5c1.38 0 2.5-1.12 2.5-2.5 0-1.27-0.96-2.31-2.19-2.47-0.4-1.17-1.5-2.03-2.81-2.03z"/>
 </g>
 <g transform="matrix(1.28038,0,0,1.28038,-1.25814,-2.2698)">
  <path style="fill:currentColor" class="ColorScheme-Text" fill-opacity=".3" d="m3.856 3.922c0.637-1.053 1.792-1.758 3.112-1.758 1.702 0 3.133 1.174 3.526 2.756 0.18-0.044 0.369-0.066 0.563-0.066 1.337 0 2.422 1.085 2.422 2.421 0 1.235-0.926 2.256-2.121 2.404h-1e-3c-0.098 0.012-0.198 0.018-0.3 0.018s-0.202-6e-3 -0.3-0.018h-6.896c-1.589 0-2.878-1.29-2.878-2.879 0-1.587 1.287-2.875 2.873-2.878z"/>
 </g>
</svg>
