<?xml version="1.0" encoding="UTF-8" standalone="no"?>
<!-- Created with Inkscape (http://www.inkscape.org/) -->

<svg
   xmlns:dc="http://purl.org/dc/elements/1.1/"
   xmlns:cc="http://creativecommons.org/ns#"
   xmlns:rdf="http://www.w3.org/1999/02/22-rdf-syntax-ns#"
   xmlns:svg="http://www.w3.org/2000/svg"
   xmlns="http://www.w3.org/2000/svg"
   xmlns:sodipodi="http://sodipodi.sourceforge.net/DTD/sodipodi-0.dtd"
   xmlns:inkscape="http://www.inkscape.org/namespaces/inkscape"
   id="svg7384"
   sodipodi:docname="computer-symbolic.svg"
   version="1.1"
   inkscape:version="0.91 r13725"
   height="36"
   width="36">
  <metadata
     id="metadata90">
    <rdf:RDF>
      <cc:Work
         rdf:about="">
        <dc:format>image/svg+xml</dc:format>
        <dc:type
           rdf:resource="http://purl.org/dc/dcmitype/StillImage" />
        <dc:title>Gnome Symbolic Icon Theme</dc:title>
      </cc:Work>
    </rdf:RDF>
  </metadata>
  <sodipodi:namedview
     inkscape:cy="23.499806"
     pagecolor="#ffffff"
     borderopacity="1"
     showborder="true"
     inkscape:bbox-paths="false"
     guidetolerance="10"
     inkscape:window-width="1310"
     showguides="true"
     inkscape:object-nodes="true"
     inkscape:snap-bbox="true"
     inkscape:pageshadow="2"
     inkscape:guide-bbox="true"
     inkscape:snap-nodes="true"
     bordercolor="#666666"
     objecttolerance="10"
     id="namedview88"
     showgrid="false"
     inkscape:window-maximized="0"
     inkscape:window-x="67"
     inkscape:snap-global="true"
     inkscape:window-y="34"
     gridtolerance="10"
     inkscape:window-height="690"
     inkscape:snap-to-guides="true"
     inkscape:current-layer="layer13"
     inkscape:zoom="0.99999999"
     inkscape:cx="64.439052"
     inkscape:snap-grids="true"
     inkscape:pageopacity="1">
    <inkscape:grid
       spacingx="1px"
       spacingy="1px"
       id="grid4866"
       empspacing="2"
       enabled="true"
       type="xygrid"
       snapvisiblegridlinesonly="true"
       visible="true" />
  </sodipodi:namedview>
  <title
     id="title9167">Gnome Symbolic Icon Theme</title>
  <defs
     id="defs7386" />
  <g
     inkscape:label="status"
     transform="translate(-442,-156)"
     inkscape:groupmode="layer"
     id="layer9"
     style="display:inline" />
  <g
     inkscape:label="devices"
     transform="translate(-442,-156)"
     inkscape:groupmode="layer"
     id="layer10" />
  <g
     inkscape:label="apps"
     transform="translate(-442,-156)"
     inkscape:groupmode="layer"
     id="layer11" />
  <g
     inkscape:label="actions"
     transform="translate(-442,-156)"
     inkscape:groupmode="layer"
     id="layer12" />
  <g
     inkscape:label="places"
     transform="translate(-442,-156)"
     inkscape:groupmode="layer"
     id="layer13">
    <path
       style="opacity:0.81;fill:#000000;fill-opacity:1"
       d="M 4.1035156 1 C 1.8301356 1 0 2.8301356 0 5.1035156 L 0 24 L 2 24 L 34 24 L 35.933594 24 L 35.933594 25.550781 C 35.96796 25.336239 36 25.121009 36 24.896484 L 36 5.1035156 C 36 2.8301356 34.169864 1 31.896484 1 L 4.1035156 1 z M 3 4 L 33 4 L 33 21 L 3 21 L 3 4 z "
       transform="translate(442,156)"
       id="rect4156" />
    <rect
       style="opacity:0.2;fill:#000000;fill-opacity:1;stroke:none;stroke-width:1.5;stroke-miterlimit:4;stroke-dasharray:none;stroke-opacity:1"
       id="rect4168"
       width="30"
       height="17"
       x="445"
       y="160"
       rx="0"
       ry="0" />
    <path
       style="opacity:0.707;fill:#000000;fill-opacity:1;stroke:none;stroke-width:1.5;stroke-miterlimit:4;stroke-dasharray:none;stroke-opacity:1"
       d="M 0 24 L 0 24.896484 C 0 27.169864 1.8301356 29 4.1035156 29 L 31.896484 29 C 33.94534 29 35.619989 27.50854 35.933594 25.550781 L 35.933594 24 L 34 24 L 34 25.013672 C 34 26.113962 33.113962 27 32.013672 27 L 3.9863281 27 C 2.8860381 27 2 26.113962 2 25.013672 L 2 24 L 0 24 z "
       transform="translate(442,156)"
       id="rect4176" />
    <circle
       style="opacity:0.2;fill:#000000;fill-opacity:1;stroke:none;stroke-width:1.5;stroke-miterlimit:4;stroke-dasharray:none;stroke-opacity:1"
       id="path4184"
       cx="460"
       cy="181.5"
       r="0.75" />
    <rect
       style="opacity:0.844;fill:#000000;fill-opacity:1;stroke:none;stroke-width:1.5;stroke-miterlimit:4;stroke-dasharray:none;stroke-opacity:1"
       id="rect4186"
       width="14"
       height="1.5"
       x="453"
       y="189.5" />
    <path
       style="opacity:0.3;fill:#000000;fill-opacity:1;stroke:none;stroke-width:1.5;stroke-miterlimit:4;stroke-dasharray:none;stroke-opacity:1"
       d="M 14.25 29 L 14.25 30.5 C 14.25028 32.58044 12.04316 33.24844 11 33.5 L 25 33.5 C 23.95684 33.24844 21.74972 32.58044 21.75 30.5 L 21.75 29 L 21.5 29 L 14.5 29 L 14.25 29 z "
       transform="translate(442,156)"
       id="rect4188" />
    <rect
       y="185"
       x="456.25"
       height="1.5"
       width="7.5"
       id="rect4195"
       style="opacity:0.3;fill:#000000;fill-opacity:1;stroke:none;stroke-width:1.5;stroke-miterlimit:4;stroke-dasharray:none;stroke-opacity:1" />
  </g>
  <g
     inkscape:label="mimetypes"
     transform="translate(-442,-156)"
     inkscape:groupmode="layer"
     id="layer14" />
  <g
     inkscape:label="emblems"
     transform="translate(-442,-156)"
     inkscape:groupmode="layer"
     id="layer15"
     style="display:inline" />
</svg>
