<?xml version="1.0" encoding="UTF-8" standalone="no"?>

<svg width="100%" height="100%" viewBox="0 0 16 16" version="1.1" xmlns="http://www.w3.org/2000/svg" xmlns:xlink="http://www.w3.org/1999/xlink" xml:space="preserve" xmlns:serif="http://www.serif.com/" style="fill-rule:evenodd;clip-rule:evenodd;stroke-linejoin:round;stroke-miterlimit:1.41421;">
    <g id="path2" transform="matrix(1.1178,0,0,1.1178,-1.07725,-1.08862)">
        <path d="M4.343,2.434C3.722,2.434 3.126,2.681 2.686,3.12C2.247,3.56 2,4.156 2,4.777C2,6.782 2,9.652 2,11.657C2,12.278 2.247,12.874 2.686,13.314C3.126,13.753 3.722,14 4.343,14C6.514,14 9.727,14 11.898,14C12.519,14 13.115,13.753 13.555,13.314C13.994,12.874 14.241,12.278 14.241,11.657C14.241,9.652 14.241,6.782 14.241,4.777C14.241,4.156 13.994,3.56 13.555,3.12C13.115,2.681 12.519,2.434 11.898,2.434C9.727,2.434 6.514,2.434 4.343,2.434ZM2.708,4.792C2.709,4.349 2.886,3.925 3.2,3.613C3.514,3.3 3.94,3.125 4.382,3.127C6.412,3.133 9.817,3.144 11.842,3.15C12.76,3.153 13.503,3.897 13.506,4.815C13.513,7.547 13.527,12.695 13.527,12.695L2.69,12.743C2.69,12.743 2.702,7.547 2.708,4.792Z" style="fill:rgb(92,97,108);fill-rule:nonzero;"/>
    </g>
    <g id="Layer1" transform="matrix(1.12756,0,0,1.1178,-1.14442,0.360051)">
        <path d="M2.467,11.703L2.467,9.542L5.436,4.453L8.752,10.39L11.308,7.52L13.513,10.429L13.513,11.645L2.467,11.703Z" style="fill:rgb(92,97,108);"/>
    </g>
</svg>
