<?xml version="1.0" encoding="UTF-8" standalone="no"?>
<!-- Created with Inkscape (http://www.inkscape.org/) -->

<svg
   xmlns:dc="http://purl.org/dc/elements/1.1/"
   xmlns:cc="http://creativecommons.org/ns#"
   xmlns:rdf="http://www.w3.org/1999/02/22-rdf-syntax-ns#"
   xmlns:svg="http://www.w3.org/2000/svg"
   xmlns="http://www.w3.org/2000/svg"
   xmlns:sodipodi="http://sodipodi.sourceforge.net/DTD/sodipodi-0.dtd"
   xmlns:inkscape="http://www.inkscape.org/namespaces/inkscape"
   id="svg7384"
   sodipodi:docname="mail-mark-junk.svg"
   version="1.1"
   inkscape:version="0.91 r13725"
   height="36"
   width="36">
  <metadata
     id="metadata90">
    <rdf:RDF>
      <cc:Work
         rdf:about="">
        <dc:format>image/svg+xml</dc:format>
        <dc:type
           rdf:resource="http://purl.org/dc/dcmitype/StillImage" />
        <dc:title>Gnome Symbolic Icon Theme</dc:title>
      </cc:Work>
    </rdf:RDF>
  </metadata>
  <sodipodi:namedview
     inkscape:cy="16.305681"
     pagecolor="#ffffff"
     borderopacity="1"
     showborder="true"
     inkscape:bbox-paths="false"
     guidetolerance="10"
     inkscape:window-width="1033"
     showguides="true"
     inkscape:object-nodes="true"
     inkscape:snap-bbox="true"
     inkscape:pageshadow="2"
     inkscape:guide-bbox="true"
     inkscape:snap-nodes="true"
     bordercolor="#666666"
     objecttolerance="10"
     id="namedview88"
     showgrid="false"
     inkscape:window-maximized="0"
     inkscape:window-x="327"
     inkscape:snap-global="true"
     inkscape:window-y="69"
     gridtolerance="10"
     inkscape:window-height="641"
     inkscape:snap-to-guides="true"
     inkscape:current-layer="layer13"
     inkscape:zoom="5.6568542"
     inkscape:cx="26.165697"
     inkscape:snap-grids="true"
     inkscape:pageopacity="1">
    <inkscape:grid
       spacingx="1px"
       spacingy="1px"
       id="grid4866"
       empspacing="2"
       enabled="true"
       type="xygrid"
       snapvisiblegridlinesonly="true"
       visible="true" />
  </sodipodi:namedview>
  <title
     id="title9167">Gnome Symbolic Icon Theme</title>
  <defs
     id="defs7386" />
  <g
     inkscape:label="status"
     transform="translate(-442,-156)"
     inkscape:groupmode="layer"
     id="layer9"
     style="display:inline" />
  <g
     inkscape:label="devices"
     transform="translate(-442,-156)"
     inkscape:groupmode="layer"
     id="layer10" />
  <g
     inkscape:label="apps"
     transform="translate(-442,-156)"
     inkscape:groupmode="layer"
     id="layer11" />
  <g
     inkscape:label="actions"
     transform="translate(-442,-156)"
     inkscape:groupmode="layer"
     id="layer12" />
  <g
     inkscape:label="places"
     transform="translate(-442,-156)"
     inkscape:groupmode="layer"
     id="layer13">
    <path
       style="opacity:0.75;fill:#000000;fill-opacity:1;stroke:none"
       d="m 442,162 1,7 2.1543,0 2.8457,18 23.99805,0 2.84179,-18 2.16016,0 1,-7 -36,0 z m 2.48437,2 31.125,0 -0.60937,3 -30,0 -0.51563,-3 z m 2.32422,5 26.01172,0 -2.63476,16 -20.4668,0 -2.91016,-16 z"
       id="rect4348"
       inkscape:connector-curvature="0" />
    <path
       style="opacity:0.2;fill:#000000;fill-opacity:1;stroke:none"
       d="m 444.4375,164 0.51562,3 30,0 0.60938,-3 -31.125,0 z"
       id="path4351"
       inkscape:connector-curvature="0" />
    <path
       style="opacity:0.2;fill:#000000;fill-opacity:1;stroke:none"
       d="M 4.8085938 13 L 7.71875 29 L 28.371094 29 L 31.005859 13 L 4.8085938 13 z "
       transform="translate(442,156)"
       id="path4359" />
    <path
       style="opacity:0.7;fill:#000000;fill-opacity:1;stroke:none"
       d="m 456.1709,171.94531 c -0.16945,0 -0.33891,0.0635 -0.46875,0.19336 l -0.12305,0.12305 c -0.25969,0.25969 -0.25969,0.67781 0,0.9375 l 3.35938,3.35937 -3.35938,3.36133 c -0.25969,0.25969 -0.25969,0.67781 0,0.9375 l 0.12305,0.12305 c 0.25969,0.25969 0.67781,0.25969 0.9375,0 l 3.36133,-3.35938 3.35937,3.35938 c 0.25969,0.25969 0.67781,0.25969 0.9375,0 l 0.12305,-0.12305 c 0.25969,-0.25969 0.25969,-0.67781 0,-0.9375 l -3.36133,-3.36133 3.36133,-3.35937 c 0.25969,-0.25969 0.25969,-0.67781 0,-0.9375 l -0.12305,-0.12305 c -0.25969,-0.25969 -0.67781,-0.25969 -0.9375,0 l -3.35937,3.36133 -3.36133,-3.36133 c -0.12985,-0.12984 -0.2993,-0.19336 -0.46875,-0.19336 z"
       id="rect4376"
       inkscape:connector-curvature="0" />
  </g>
  <g
     inkscape:label="mimetypes"
     transform="translate(-442,-156)"
     inkscape:groupmode="layer"
     id="layer14" />
  <g
     inkscape:label="emblems"
     transform="translate(-442,-156)"
     inkscape:groupmode="layer"
     id="layer15"
     style="display:inline" />
</svg>
