<?xml version="1.0" encoding="UTF-8" standalone="no"?><!DOCTYPE svg PUBLIC "-//W3C//DTD SVG 1.1//EN" "http://www.w3.org/Graphics/SVG/1.1/DTD/svg11.dtd"><svg width="100%" height="100%" viewBox="0 0 16 16" version="1.1" xmlns="http://www.w3.org/2000/svg" xmlns:xlink="http://www.w3.org/1999/xlink" xml:space="preserve" xmlns:serif="http://www.serif.com/" style="fill-rule:evenodd;clip-rule:evenodd;stroke-linejoin:round;stroke-miterlimit:1.41421;"><path d="M4.091,1.347c0.626,5.709 3.474,9.452 9.199,10.967l0.166,-0.404c-5.831,-2.011 -6.132,-5.947 -6.804,-9.207l-2.561,-1.356Z" style="fill:#808080;fill-opacity:0.75;fill-rule:nonzero;"/><path d="M12.078,1.347c-0.626,5.709 -3.474,9.452 -9.199,10.967l-0.166,-0.404c5.831,-2.011 6.132,-5.947 6.804,-9.207l2.561,-1.356Z" style="fill:#808080;fill-opacity:0.75;fill-rule:nonzero;"/><path d="M2.99,2.703l-0.277,4.629c1.576,2.58 5.81,5.335 10.164,6.007l0.353,-0.798c-8.637,-2.46 -9.978,-8.712 -10.24,-9.838Z" style="fill:#808080;fill-rule:nonzero;"/><path d="M13.179,2.703l0.277,4.629c-1.577,2.58 -5.81,5.335 -10.164,6.007l-0.353,-0.798c8.637,-2.46 9.978,-8.712 10.24,-9.838Z" style="fill:#808080;fill-rule:nonzero;"/></svg>