<svg style="clip-rule:evenodd;fill-rule:evenodd;stroke-linejoin:round;stroke-miterlimit:2" version="1.1" viewBox="0 0 48 48" xmlns="http://www.w3.org/2000/svg">
 <g transform="scale(.75)">
  <path d="m61.122 15.88c0-2.762-2.239-5-5-5h-48.244c-2.761 0-5 2.238-5 5v32.246c0 2.761 2.239 5 5 5h48.244c2.761 0 5-2.239 5-5v-32.246z" style="fill:rgb(0,131,213)"/>
 </g>
 <g transform="scale(.75)">
  <path d="m61.122 20.652c0-1.326-0.527-2.598-1.465-3.536-0.938-0.937-2.209-1.464-3.535-1.464h-25.58c-1.232 0-2.42-0.455-3.337-1.277-0.768-0.689-1.713-1.535-2.481-2.224-0.917-0.822-2.105-1.277-3.337-1.277h-13.509c-1.326 0-2.597 0.527-3.535 1.465-0.938 0.937-1.465 2.209-1.465 3.535v32.252c0 2.761 2.239 5 5 5h48.244c2.761 0 5-2.239 5-5v-27.474z" style="fill:url(#_Linear1)"/>
 </g>
 <g transform="scale(.75)">
  <path d="m32.273 20.855c-0.249-0.217-0.569-0.337-0.9-0.337h-9.47v25.272h20.194v-15.771c0-0.398-0.172-0.776-0.472-1.036-1.738-1.511-7.762-6.746-9.352-8.128zm-8.801 1.037v22.513h17.218v-13.314c0-0.764-0.619-1.383-1.382-1.383h-7.169v-6.343c0-0.757-0.609-1.373-1.365-1.382-2.441-0.031-7.302-0.091-7.302-0.091z" style="fill:url(#_Linear2)"/>
 </g>
 <defs>
  <linearGradient id="_Linear1" x2="1" gradientTransform="matrix(2.54933e-15,-41.6338,41.6338,2.54933e-15,445.153,52.7218)" gradientUnits="userSpaceOnUse">
   <stop style="stop-color:rgb(16,117,246)" offset="0"/>
   <stop style="stop-color:rgb(18,197,255)" offset="1"/>
  </linearGradient>
  <linearGradient id="_Linear2" x2="1" gradientTransform="matrix(1.54743e-15,25.2714,-25.2714,1.54743e-15,-486.519,20.5182)" gradientUnits="userSpaceOnUse">
   <stop style="stop-color:rgb(19,112,152)" offset="0"/>
   <stop style="stop-color:rgb(16,101,151)" offset=".42"/>
   <stop style="stop-color:rgb(11,78,148)" offset="1"/>
  </linearGradient>
 </defs>
</svg>
