<?xml version="1.0" encoding="UTF-8" standalone="no"?><!DOCTYPE svg PUBLIC "-//W3C//DTD SVG 1.1//EN" "http://www.w3.org/Graphics/SVG/1.1/DTD/svg11.dtd"><svg width="100%" height="100%" viewBox="0 0 1024 1024" version="1.1" xmlns="http://www.w3.org/2000/svg" xmlns:xlink="http://www.w3.org/1999/xlink" xml:space="preserve" xmlns:serif="http://www.serif.com/" style="fill-rule:evenodd;clip-rule:evenodd;stroke-linejoin:round;stroke-miterlimit:1.41421;"><path d="M39.48,402.198c0,0 0,-133.513 0,-209.513c0,-28.371 22.999,-51.37 51.37,-51.37c57.607,0 148.175,0 188.056,0c12.762,0 24.966,5.232 33.766,14.475c9.434,9.911 21.896,23.001 31.331,32.912c8.8,9.243 21.004,14.475 33.766,14.475c86.059,0 426.57,0 557.178,0c28.371,0 51.37,22.999 51.37,51.37c0,58.969 0,147.651 0,147.651l-946.837,0Z" style="fill:url(#_Linear1);"/><path id="Top" d="M66.572,249.571c-14.966,0.01 -27.092,12.144 -27.092,27.11c0,93.893 0,406.773 0,538.167c0,32.53 26.37,58.901 58.9,58.901c170.548,0 663.283,0 831.144,0c15.063,0 29.508,-5.984 40.159,-16.635c10.651,-10.65 16.634,-25.096 16.634,-40.158c0,-130.215 0,-446.344 0,-540.861c0,-7.193 -2.858,-14.091 -7.946,-19.176c-5.088,-5.084 -11.988,-7.938 -19.181,-7.934c-137.395,0.091 -755.307,0.496 -892.618,0.586Z" style="fill:url(#_Linear2);"/><path id="path26" d="M512,353.323c-6.305,0 -12.643,0.519 -18.78,1.138c-12.273,1.239 -23.864,3.292 -35.283,6.829c-57.092,17.683 -102.393,62.984 -120.076,120.076c-3.537,11.419 -5.59,23.01 -6.829,35.283c-0.619,6.137 -1.138,12.474 -1.138,18.78c0,6.305 0.519,12.643 1.138,18.78c1.239,12.273 3.292,23.864 6.829,35.283c17.683,57.092 62.984,102.392 120.076,120.076c11.419,3.536 23.01,5.59 35.283,6.829c6.137,0.619 12.475,1.138 18.78,1.138c6.305,0 12.643,-0.519 18.78,-1.138c12.273,-1.239 23.864,-3.293 35.283,-6.829c11.404,-3.547 22.685,-8.62 33.006,-14.227c41.292,-22.376 72.923,-60.176 87.07,-105.849c3.537,-11.419 5.59,-23.01 6.829,-35.283c0.619,-6.137 1.138,-12.475 1.138,-18.78c0,-6.286 -0.516,-12.658 -1.138,-18.78c-1.239,-12.273 -3.292,-23.864 -6.829,-35.283c-7.073,-22.837 -18.755,-44.056 -33.576,-62.03c-3.711,-4.497 -7.831,-8.4 -11.951,-12.519c-16.457,-16.458 -35.675,-30.076 -57.477,-39.267c-5.447,-2.304 -11.37,-4.486 -17.072,-6.26c-11.419,-3.537 -23.01,-5.59 -35.283,-6.829c-6.137,-0.619 -12.475,-1.138 -18.78,-1.138Zm0,18.21c27.558,0 53.463,6.764 76.257,18.78c0.602,0.318 1.109,0.814 1.707,1.138c0.462,0.611 0.328,1.261 1.138,1.708c0.596,0.331 1.147,0.841 1.708,1.138c0.959,0.53 1.905,1.348 1.707,2.276c-0.264,1.357 -2.488,1.283 -3.415,2.276c0.128,1.92 -0.643,1.555 -1.138,2.846c0.299,0.828 1.007,0.715 1.138,1.707c-0.164,1.06 -1.536,1.184 -1.138,2.276c1.788,1.392 3.433,0.232 5.122,0c3.708,-0.464 6.821,0.08 9.105,-1.707c-0.241,-1.416 1.112,-1.821 1.707,-2.845c1.209,0.847 2.23,1.966 3.415,2.845c-0.696,0.299 -2.216,0.741 -2.845,1.138c-0.927,0.629 -1.216,1.582 -2.277,2.277c-0.761,0.53 -2.62,2.276 -3.414,2.276c-0.96,0 -2.72,-0.8 -3.415,-0.569c-0.994,0.299 -0.583,1.879 -1.707,2.276c-2.185,0.794 -6.068,-2.138 -6.829,1.138c0.927,1.887 4.035,1.251 5.691,2.277c1.027,0.663 2.58,3.996 2.845,5.121c0.264,0.927 0.397,4.129 0,5.122c-1.027,2.648 -3.783,2.343 -6.829,2.276c-0.828,0 -1.514,0.073 -2.276,0c-5.132,-0.331 -10.202,-1.966 -12.52,1.708c0.164,2.813 0.63,4.379 0,6.829c-0.462,1.786 -2.376,2.997 -2.276,4.552c0.036,0.794 1.509,2.322 1.707,3.415c0.128,0.595 -0.266,1.747 0,2.276c0.861,1.623 3.03,-0.264 4.553,0c1.457,0.231 2.845,2.362 2.845,3.984c0,1.158 -0.41,3.427 -1.138,4.552c-1.457,2.185 -4.174,1.654 -6.26,2.846c-1.721,0.992 -2.388,3.4 -3.414,5.122c-1.093,1.853 -2.139,2.473 -1.708,5.121c-1.489,2.946 -3.181,4.837 -6.26,6.26c-0.894,0.397 -2.017,1.112 -2.845,1.707c-0.663,0.463 -1.349,1.216 -2.276,2.277c-1.159,1.291 -2.786,1.852 -3.415,2.845c-0.464,0.761 -0.074,2.389 -0.569,3.415c-0.728,1.391 -1.918,2.593 -2.845,3.983c-0.43,0.663 -1.245,1.414 -1.708,2.276c-1.059,1.92 -2.475,3.434 -2.276,5.122c0.164,1.623 2.177,1.991 2.276,3.415c0.092,0.794 -0.601,1.415 -0.569,2.276c0.037,1.258 0.471,1.852 0.569,2.845c0.232,2.45 -1.244,3.434 -1.707,5.122c-0.231,0.794 0.199,1.648 0,2.276c-0.397,1.226 -2.243,1.959 -2.276,3.415c-0.037,1.027 1.609,1.959 1.707,3.414c0.073,0.993 -0.767,1.919 -0.569,2.846c0.364,1.788 3.731,4.3 5.122,5.691c1.887,1.886 3.725,3.135 4.552,5.121c0.696,1.689 0.987,4.433 2.277,5.691c0.959,0.927 2.758,1.317 3.983,2.277c1.159,0.894 2.759,1.315 3.984,2.276c2.019,1.59 4.755,4.784 7.967,4.553c1.688,-0.128 3.235,-0.809 5.122,-1.139c1.953,-0.331 4.273,-1.336 6.26,-1.138c1.522,0.164 2.963,1.239 4.552,1.138c1.656,-0.091 3.804,-0.88 5.691,-1.707c3.278,-1.424 8.322,-4.109 13.089,-3.414c3.642,0.53 3.711,4.638 6.26,6.26c2.913,0.264 5.08,-0.563 7.398,0c1.755,0.429 3.818,3.731 3.984,5.121c0.163,1.424 -0.94,2.521 -1.139,3.415c-0.462,1.92 -0.808,4.466 -1.138,5.691c-0.264,0.959 -0.602,1.885 -0.569,2.845c0,0.861 1.382,2.858 2.276,3.984c1.093,1.391 2.66,2.461 3.984,3.983c2.417,2.78 3.433,6.569 5.122,10.244c0.429,0.927 -0.397,1.117 0,2.276c-0.729,5.561 -2.618,9.209 -6.26,15.365c-1.721,1.986 -3.448,4.347 -3.415,6.829c-0.127,5.958 3.111,9.037 2.846,14.796c-0.596,7.745 0.028,8.952 -0.569,13.089c2.615,1.324 1.33,5.22 0.569,7.967c-1.126,3.277 -2.217,4.076 -2.846,6.26c1.358,0.587 2.496,0.734 3.984,0.569c-29.819,31.002 -71.957,50.079 -118.369,50.079c-21.725,0 -42.488,-4.274 -61.461,-11.95c-0.063,-0.026 0.064,-0.544 0,-0.569c1.721,-0.729 5.002,1.278 6.26,-1.139c0.63,-1.158 -0.828,-3.394 0,-4.552c0.596,-0.794 4.466,-1.509 5.691,-1.708c1.755,-0.298 3.559,0.061 4.553,-0.569c1.092,-0.695 2.475,-2.5 2.276,-4.552c-0.091,-0.96 -0.948,-1.416 -1.707,-2.277c-0.629,-0.728 -0.14,-1.614 -0.569,-2.276c-0.794,-1.158 -1.946,-1.725 -2.277,-3.414c2.384,-0.463 5.662,2.667 9.106,1.707c1.622,-0.465 4.36,-3.599 5.121,-5.122c0.232,-0.464 -0.264,-2.282 0,-2.845c0.299,-0.629 1.038,-0.809 1.138,-1.138c0.232,-0.895 -0.198,-1.147 0,-1.708c0.596,-1.688 2.422,-2.759 3.415,-3.983c0.761,-0.927 1.58,-1.886 2.276,-2.846c0.794,-1.027 1.179,-1.381 1.708,-2.276c0.497,-3.012 -1.867,-5.319 -1.139,-7.967c0.794,-2.979 5.087,-4.903 7.967,-6.26c0.993,-0.464 2.018,-1.41 2.846,-1.707c1.986,-0.696 4.406,-0.477 6.26,-1.138c3.112,-1.126 4.167,-4.552 5.691,-7.398c0.728,-1.324 1.574,-2.455 1.707,-3.415c0.127,-0.861 -0.164,-1.852 0,-2.845c0.164,-0.993 0.305,-1.754 0.569,-2.846c0.364,-1.424 0.569,-4.102 0.569,-5.691c0,-1.324 -0.536,-1.653 -0.569,-2.845c-0.231,-4.303 1.256,-4.479 2.845,-6.829c0.794,-1.158 1.147,-3.156 1.708,-3.984c2.681,-3.971 7.16,-5.926 6.829,-11.95c-0.128,-1.986 -0.821,-6.2 -2.277,-6.829c-0.828,-0.364 -2.758,-0.107 -3.983,-0.569c-3.907,-1.457 -6.741,-5.929 -10.813,-6.26c-0.861,-0.037 -1.316,0.036 -2.276,0c-1.59,-0.037 -3.334,-1.509 -5.122,-1.707c-1.125,-0.128 -3.321,0.331 -3.984,0c-1.027,-0.498 -0.88,-2.283 -1.707,-2.846c-0.663,-0.464 -1.819,-0.774 -2.845,-1.138c-1.623,-0.628 -2.666,-1.005 -4.553,-1.138c-0.595,-0.037 -2.184,0.091 -2.845,0c-1.027,-0.164 -1.886,-1.112 -2.846,-1.707c-1.191,-0.729 -1.779,-1.25 -2.276,-2.277c1.093,-3.574 -2.686,-4.175 -3.414,-6.26c-0.332,-0.959 0.331,-2.553 0,-3.414c-0.43,-1.226 -1.488,-1.82 -2.846,-2.846c-2.384,-1.853 -4.557,-3.553 -7.967,-3.983c-1.522,-0.164 -3.301,0.127 -5.122,0c-1.92,-0.128 -4.234,-1.191 -5.691,-2.846c-1.391,-1.622 -1.62,-3.222 -2.845,-3.983c-1.158,-0.729 -3.189,-0.948 -3.984,-1.707c-0.364,-0.332 -0.237,-0.948 -0.569,-1.708c-0.595,-1.192 -1.866,-1.389 -1.138,-2.845c-1.324,-0.663 -0.853,0.835 -2.276,0.569c-1.291,-1.821 -2.208,-2.839 -5.122,-2.276c-1.324,0.264 -2.427,2.243 -3.983,2.276c-1.292,0.037 -2.295,-2.045 -3.984,-2.276c-1.291,-0.164 -3.09,1.336 -3.984,1.138c-1.424,-0.264 -1.555,-1.983 -2.845,-2.845c-0.96,-0.631 -2.885,-2.31 -3.414,-2.277c-1.656,0.037 -2.838,3.501 -5.122,2.277c-1.126,-1.425 1.894,-1.523 0.569,-2.846c-0.993,-0.992 -1.481,0.041 -2.276,0.569c-0.927,0.628 -1.82,1.345 -2.846,1.707c-2.284,0.862 -3.903,0.783 -5.691,1.708c-1.655,0.861 -1.885,2.295 -2.845,3.983c-0.761,1.392 -2.256,3.348 -3.415,3.415c-1.391,0.091 -2.725,-1.747 -3.983,-2.277c-3.807,-1.655 -5.96,1.106 -9.105,1.139c-2.914,0.036 -6.962,-4.651 -6.829,-7.398c0.091,-1.689 0.939,-4.175 1.138,-6.26c0.164,-1.656 1.676,-3.03 1.707,-4.553c0.036,-2.019 -3.228,-3.752 -4.553,-3.984c-3.112,-0.562 -7.27,1.392 -10.812,0c-0.663,-1.125 1.31,-1.753 1.707,-2.845c0.231,-0.628 -0.231,-1.012 0,-1.707c0.397,-1.06 1.78,-1.72 2.276,-2.846c0.365,-0.861 0.205,-2.355 0.57,-3.414c0.429,-1.193 1.607,-1.985 1.707,-2.846c0.127,-1.125 -0.815,-2.686 -1.707,-3.414c-2.748,0.164 -4.671,0.417 -6.26,1.138c-3.576,1.623 -2.651,6.273 -6.26,7.398c-1.226,0.397 -3.162,0.907 -4.553,1.138c2.355,-11.914 6.027,-23.31 10.813,-34.145c1.258,0.232 2.322,1.038 3.414,1.139c3.046,0.231 3.175,-2.091 5.691,-3.415c2.582,0.364 3.909,-0.264 6.26,0c1.59,0.164 3.864,2.177 5.122,2.276c1.059,0.037 1.282,-1.303 2.276,-1.138c0.992,0.164 2.68,2.223 2.845,3.415c0.164,1.489 -1,2.897 -0.569,4.552c1.557,1.59 4.611,2.488 6.829,3.415c1.457,-1.193 0.231,-3.97 0,-5.691c-0.036,-0.761 0.091,-1.58 0,-2.276c-0.164,-1.191 -0.569,-2.389 -0.569,-3.415c0,-4.733 3.651,-6.682 6.829,-8.536c1.357,-0.794 2.792,-2.249 3.984,-2.845c1.688,-0.829 2.593,-0.914 3.983,-1.708c2.516,-1.424 4.876,-2.93 6.829,-4.552c0.894,-2.151 -0.091,-4.711 0,-6.829c0.894,-0.563 1.317,0.091 2.276,0c1.523,-0.332 1.985,-2.554 2.846,-3.415c0.497,-0.497 2.249,-0.642 2.845,-1.138c1.523,-1.193 1.521,-2.885 2.846,-3.414c0.464,-0.164 1.547,-0.371 2.276,-0.569c0.994,-0.264 2.395,-1.147 3.984,-1.708c1.027,-0.364 3.586,-0.172 3.983,-0.569c0.497,-0.497 -0.127,-2.653 0,-3.414c0.794,-3.74 6.331,-3.864 9.675,-5.122c2.317,-0.894 4.815,-2.773 7.398,-2.276c-0.498,1.786 -2.707,1.262 -2.277,3.414c0.563,3.012 4.063,-0.708 5.122,-1.138c2.02,-0.861 5.888,-1.316 8.536,-2.276c2.318,-0.827 6.169,-2.441 3.984,-5.122c-1.821,-0.127 -2.395,1.614 -3.984,2.276c-1.092,0.164 -1.35,-0.503 -2.276,-0.569c-0.894,-0.036 -1.382,0.735 -2.276,0.569c-0.895,-0.164 -2.144,-1.786 -2.277,-2.845c-0.364,-2.78 2.858,-3.639 3.984,-5.691c-0.761,-2.516 -4.141,-0.146 -6.26,-1.138c0.231,-1.49 1.091,-3.116 2.845,-3.415c1.424,-0.231 4.83,0.45 5.691,1.139c0.497,0.429 -0.19,1.579 0.569,2.276c0.862,0.761 2.289,0.164 3.415,0c0.397,-1.887 -2.608,-1.052 -2.277,-2.276c2.252,-1.457 6.358,-0.774 9.106,-1.139c1.589,-0.231 3.129,-1.514 4.552,-2.276c1.324,-0.761 2.593,-1.827 3.984,-0.569c0.397,1.357 -0.948,2.15 -1.707,2.845c-2.55,2.251 -4.843,4.784 -6.829,7.399c1.225,1.192 3.069,0.337 5.121,0.569c0.794,0.091 2.018,0.438 2.846,0.569c0.994,0.164 2.051,-0.164 2.845,0c1.392,0.331 1.455,2.276 2.846,2.276c2.251,0 2.43,-1.892 1.138,-3.414c0.397,-1.557 1.133,-2.892 0.569,-3.984c-1.027,-2.052 -4.923,0.338 -5.122,-2.276c-0.127,-1.656 1.68,-2.157 2.277,-3.415c-0.265,-3.177 2.607,-3.38 2.276,-6.26c-0.164,-1.193 -1.448,-1.152 -2.276,-2.276c-0.43,-0.596 -0.643,-1.846 -1.139,-2.276c-1.721,-1.457 -4.923,-1.203 -5.121,-3.984c-0.091,-1.655 0.231,-2.765 0,-4.553c-0.232,-1.688 -1.959,-6.498 -3.415,-6.829c-1.854,-0.397 -2.903,2.958 -5.122,3.984c-1.191,0.563 -3.327,0.802 -4.552,0.569c-0.794,-0.164 -2.177,-0.755 -2.277,-2.276c-0.082,-0.877 0.202,-1.188 0.569,-1.708c0.087,-0.122 -0.088,-0.44 0,-0.569c14.405,-4.139 29.791,-6.26 45.527,-6.26Zm-67.721,14.797c-1.615,5.173 -6.292,8.127 -12.519,7.967c-1.523,1.457 -0.881,4.24 -1.708,6.26c-0.695,1.688 -2.864,2.978 -4.552,2.845c-1.226,-0.091 -3.415,-1.687 -3.415,-2.845c0,-0.95 0.918,-2.022 1.138,-2.846c6.703,-4.333 13.729,-8.047 21.056,-11.381Zm139.425,5.69c-0.61,0.11 -1.17,0.254 -1.707,0.57c-1.258,0.761 -1.316,1.912 -2.276,2.276c-1.357,0.497 -3.216,0.483 -3.415,1.707c-0.164,1.027 1.173,1.35 1.138,2.276c-0.497,1.226 -1.441,1.355 -1.707,2.846c1.688,2.747 5.882,0.028 7.967,-0.569c0.927,-0.264 1.78,0.152 2.277,-0.569c0.562,-0.894 0.139,-2.726 0.569,-3.984c0.464,-1.391 1.873,-1.052 1.707,-2.276c-0.128,-1.226 -2.5,-2.475 -4.553,-2.277Zm-180.399,21.056c1.214,1.466 2.231,3.594 0,4.553c-0.331,0.164 -4.327,0.735 -5.121,0.569c-0.247,-0.035 -0.348,-0.415 -0.569,-0.569c1.74,-1.69 3.877,-2.94 5.69,-4.553Zm4.553,5.691c0.794,0.037 1.349,1.642 2.276,1.707c0.895,0.073 2.315,-0.734 2.846,-0.569c1.391,0.365 1.894,2.958 0.569,3.984c-1.093,0.127 -1.483,-1.304 -2.276,-1.138c-2.252,0.397 -2.865,4.685 -4.553,4.552c-1.59,-0.163 -2.761,-3.394 -1.138,-4.552c0.036,-0.994 -0.637,-1.283 -0.569,-2.277c0.497,-0.628 1.52,-1.805 2.845,-1.707Zm-7.398,1.138c0.464,0 0.403,-0.198 0.569,0c-0.231,1.754 -0.92,2.018 -2.276,2.846c-2.351,1.424 -3.791,3.215 -4.553,6.26c-0.231,0.894 -2.858,3.646 -3.983,3.414c-2.616,-0.563 1.111,-5.498 1.707,-6.26c0.663,-0.828 1.516,-1.348 2.276,-2.276c0.761,-0.927 0.981,-2.885 1.707,-3.415c0.794,-0.562 3.163,-0.636 4.553,-0.569Zm224.218,4.553c2.616,-0.164 3.93,2.964 5.122,4.553c0.992,1.291 4.068,3.09 5.691,3.983c0.927,0.497 1.819,1.245 2.845,1.708c1.076,0.479 2.713,1.109 3.984,2.276c1.27,1.167 2.226,2.924 2.276,3.983c0.036,1.06 -0.735,1.853 -0.569,2.846c1.147,0.186 1.742,-0.981 2.276,-2.277c4.291,6.122 7.946,12.654 11.382,19.349c-0.697,0.432 -0.997,0.854 -1.138,1.708c-0.332,1.853 1.073,4.221 -1.708,4.552c-1.753,0.231 -3.843,-1.747 -6.259,-2.276c-0.993,-0.231 -2.62,0.264 -3.415,0c-1.821,-0.628 -1.289,-2.891 -2.845,-3.984c-0.895,-0.63 -3.129,-1.543 -4.553,-1.707c-0.894,-0.091 -1.35,0.127 -2.276,0c-1.126,-0.127 -3.057,-0.006 -3.984,-0.569c-0.894,-0.563 -3.183,-1.514 -3.414,-2.276c-0.365,-1.226 2.779,-2.958 2.845,-3.984c0.073,-0.794 -0.972,-1.085 -1.138,-2.276c-0.128,-0.729 0.164,-1.813 0,-2.277c-0.231,-0.861 -1.489,-1.674 -2.846,-1.707c-1.192,0 -2.388,0.569 -3.414,0.569c-1.457,0.037 -4.439,-0.735 -6.26,-0.569c-1.093,0.091 -1.819,0.504 -2.845,0.569c-2.881,0.232 -4.578,-0.164 -6.829,0c-1.623,0.091 -4.737,1.014 -6.26,1.707c-0.761,0.365 -1.283,1.212 -2.277,1.708c-0.462,0.231 -1.109,0.305 -1.707,0.569c-0.927,0.43 -2.52,1.476 -3.414,1.707c-1.291,0.331 -2.771,-0.091 -5.122,0c-1.688,0.091 -4.52,-0.258 -4.553,-2.276c-0.036,-3.078 5.623,-1.748 8.537,-2.277c1.092,-0.231 1.52,-1.515 2.845,-2.276c0.63,-0.364 1.112,-0.741 1.707,-1.138c0.993,-0.696 2.68,-2.051 2.846,-2.846c0.127,-0.728 -0.67,-1.747 -0.569,-2.276c0.127,-0.695 1.382,-1.383 2.276,-2.276c1.391,-1.391 2.262,-3.09 3.983,-3.984c1.159,-0.628 3.454,-0.782 3.984,-1.707c0.127,-1.06 -0.036,-1.316 0,-2.276c0.728,-0.663 0.543,-1.007 1.138,-1.138c1.788,-0.397 3.605,0.669 5.691,0.569c0.894,-0.037 1.885,0.064 2.845,-0.569c0.794,-0.53 1.482,-1.311 2.277,-1.708c0.861,-0.464 1.785,-1.641 2.845,-1.707Zm-208.853,1.707c0.438,-0.07 1.177,0.049 1.707,0c0.762,-0.036 1.449,0 2.277,0c0.828,0 1.945,-0.331 2.276,0c-0.53,2.185 -5.676,1.365 -7.398,0.569c0.046,-0.414 0.7,-0.499 1.138,-0.569Zm-6.26,3.984c0.563,0 1.112,-0.231 1.708,0c-1.523,1.291 -3.612,2.018 -6.26,2.845c-1.259,0.397 -3.183,0.821 -3.415,-0.569c-0.266,-1.721 1.15,-1.543 2.277,-1.707c1.456,-0.164 4.002,-0.536 5.69,-0.569Zm215.682,0c-1.092,0.364 -1.622,2.548 0,2.845c0.761,-0.462 0.77,-1.455 0.569,-2.845c-0.43,-0.463 -0.239,-0.128 -0.569,0Zm-0.569,4.553c-0.53,0.163 -1.146,-0.029 -1.707,0.569c0.036,1.853 0.364,2.93 0,4.552c1.06,2.052 3.454,0.821 3.983,-0.569c0.631,-3.442 -0.687,-4.983 -2.276,-4.552Zm14.227,9.105c-1.457,-0.073 -2.554,0.45 -3.414,1.138c1.225,1.986 3.512,2.349 6.26,2.845c0.992,-0.728 0.675,-2.725 1.138,-3.983c-1.193,0 -1.958,0.073 -3.415,0l-0.569,0Zm-289.093,69.997c1.163,1.482 2.42,3.21 3.983,3.983c0.829,0.43 1.786,0.338 2.846,0.569c0.861,0.164 1.449,0.875 2.276,1.139c1.756,0.595 4.301,0.51 5.691,1.138c2.119,0.927 3.301,4.631 5.122,5.691c0.091,1.059 -0.332,2.051 0,2.845c0.861,1.158 2.592,1.516 3.983,2.276c1.688,0.927 2.395,3.256 3.984,3.984c0.563,0.231 1.414,-0.264 2.276,0c2.185,0.663 2.666,3.977 4.553,3.414c1.225,-0.364 1.509,-2.223 1.707,-3.414c0.829,-0.894 1.553,-2.276 2.845,-2.276c2.053,-0.037 2.653,2.533 3.415,4.552c0.43,1.126 1.41,2.223 1.707,3.415c0.497,2.052 0.43,7.88 0,9.105c-0.53,1.522 -2.725,2.329 -3.983,3.984c-0.596,0.794 -1.245,1.747 -1.708,2.276c-0.794,0.992 -1.679,1.383 -2.276,2.276c-0.331,0.497 -0.272,1.582 -0.569,2.277c-0.994,2.118 -2.536,3.711 -1.707,6.259c0.331,1.028 1.707,2.19 1.707,3.415c0,1.457 -3.183,1.826 -3.415,3.414c-0.163,1.159 1.345,3.566 1.708,5.122c0.264,1.158 2.15,2.084 2.845,2.846c1.158,1.291 2.355,2.897 3.415,4.552c2.085,3.211 3.069,7.099 5.121,10.244c1.093,1.622 3.255,2.831 3.984,4.552c0.364,0.862 -0.332,2.621 0,3.415c1.191,2.681 6.993,5.505 9.674,6.829c1.259,0.63 2.256,1.044 3.415,1.707c1.755,0.994 5.366,2.997 6.26,4.553c0.794,1.391 1.31,4.611 1.707,6.829c0.497,2.912 -0.128,5.391 0,8.536c0.091,1.721 0.569,2.831 0.569,4.553c0,0.595 0.036,1.68 0,2.276c-0.036,2.052 0.164,4.175 0,6.26c-0.091,1.125 -0.073,2.454 0,3.414c0.091,1.027 1.073,1.383 1.138,2.277c0.073,0.959 -1.238,2.084 -1.138,2.845c0.231,2.085 2.448,3.771 2.845,5.691c0.332,1.522 0.768,5.008 0.569,6.829c-0.127,0.959 -0.436,2.355 -0.569,3.414c-0.091,0.829 0.128,1.516 0,2.277c-45.375,-29.147 -75.687,-79.782 -75.687,-137.718c0,-7.428 0.75,-14.459 1.707,-21.625Zm62.599,16.503c1.59,-0.728 1.291,2.078 0,2.277c-1.226,0.163 -1.191,-1.713 0,-2.277Z" style="fill:url(#_Linear3);fill-rule:nonzero;"/><defs><linearGradient id="_Linear1" x1="0" y1="0" x2="1" y2="0" gradientUnits="userSpaceOnUse" gradientTransform="matrix(1.97322e-14,322.252,-322.252,1.97322e-14,245.76,141.474)"><stop offset="0" style="stop-color:#00bdff;stop-opacity:1"/><stop offset="1" style="stop-color:#0084ff;stop-opacity:1"/></linearGradient><linearGradient id="_Linear2" x1="0" y1="0" x2="1" y2="0" gradientUnits="userSpaceOnUse" gradientTransform="matrix(3.76966e-14,-615.633,615.633,3.76966e-14,534.968,867.778)"><stop offset="0" style="stop-color:#1075f6;stop-opacity:1"/><stop offset="1" style="stop-color:#12c5ff;stop-opacity:1"/></linearGradient><linearGradient id="_Linear3" x1="0" y1="0" x2="1" y2="0" gradientUnits="userSpaceOnUse" gradientTransform="matrix(1.96669e-14,364.212,-321.185,2.23016e-14,512,353.323)"><stop offset="0" style="stop-color:#126c98;stop-opacity:1"/><stop offset="1" style="stop-color:#0b4f94;stop-opacity:1"/></linearGradient></defs></svg>