<svg style="clip-rule:evenodd;fill-rule:evenodd;stroke-linejoin:round;stroke-miterlimit:2" version="1.1" viewBox="0 0 48 48" xmlns="http://www.w3.org/2000/svg">
 <g transform="scale(.75)">
  <path d="m61.122 15.88c0-2.762-2.239-5-5-5h-48.244c-2.761 0-5 2.238-5 5v32.246c0 2.761 2.239 5 5 5h48.244c2.761 0 5-2.239 5-5v-32.246z" style="fill:rgb(0,131,213)"/>
 </g>
 <g transform="scale(.75)">
  <path d="m61.122 20.652c0-1.326-0.527-2.598-1.465-3.536-0.938-0.937-2.209-1.464-3.535-1.464h-25.58c-1.232 0-2.42-0.455-3.337-1.277-0.768-0.689-1.713-1.535-2.481-2.224-0.917-0.822-2.105-1.277-3.337-1.277h-13.509c-1.326 0-2.597 0.527-3.535 1.465-0.938 0.937-1.465 2.209-1.465 3.535v32.252c0 2.761 2.239 5 5 5h48.244c2.761 0 5-2.239 5-5v-27.474z" style="fill:url(#_Linear1)"/>
 </g>
 <g transform="matrix(1.09887,0,0,1.09887,-2.37283,-6.44037)">
  <path d="m24 21c-4.418 0-8 3.582-8 8s3.582 8 8 8 8-3.582 8-8-3.582-8-8-8zm-0.728 0.849c0.094-0.01 0.213 6e-3 0.31 0 0.011 0.046-0.07 0.207-0.178 0.442-0.689 1.504-0.727 3.266-0.089 4.207 0.117 0.171 0.222 0.333 0.222 0.354s-0.125 0.045-0.265 0.045c-0.331 0-0.645-0.202-1.285-0.709-0.285-0.225-0.654-0.413-0.798-0.442-0.223-0.046-0.284-0.026-0.575 0.264-0.27 0.272-0.353 0.417-0.353 0.665 0 0.94 1.114 1.686 3.187 2.126 2.815 0.596 3.508 1.132 3.586 2.612 0.098 1.856-0.89 3.255-3.054 4.339-0.26 0.129-0.423 0.18-0.532 0.222-0.049-5e-3 -0.085 3e-3 -0.133 0-0.018-0.059-0.045-0.191-0.045-0.444 0-0.986-0.388-2-0.973-2.567-0.157-0.153-0.597-0.475-0.974-0.708-0.377-0.235-0.756-0.505-0.842-0.62-0.14-0.192-0.151-0.31-0.043-0.665 0.196-0.647 0.43-1.008 0.885-1.417 0.238-0.214 0.478-0.394 0.532-0.399 0.052-4e-3 -0.305-0.111-0.842-0.22-0.537-0.111-1.321-0.34-1.727-0.488-0.741-0.267-1.743-0.831-2.125-1.239-0.016-0.018-0.029-0.029-0.044-0.045 0.548-2.178 2.082-3.964 4.118-4.825 0.425-0.181 0.864-0.304 1.328-0.399 0.23-0.047 0.469-0.064 0.707-0.088l2e-3 -1e-3zm6.641 3.321c0.166 0.103 0.794 1.461 0.973 2.125 0.232 0.856 0.216 2.338 0 3.188-0.082 0.324-0.186 0.626-0.221 0.663-0.035 0.039-0.161-0.178-0.31-0.442-0.148-0.263-0.623-0.823-1.019-1.24-1.139-1.202-1.318-1.83-0.84-2.789 0.24-0.484 1.288-1.584 1.417-1.505z" style="fill-rule:nonzero;fill:url(#_Linear2)"/>
 </g>
 <defs>
  <linearGradient id="_Linear1" x2="1" gradientTransform="matrix(2.54933e-15,-41.6338,41.6338,2.54933e-15,445.153,52.7218)" gradientUnits="userSpaceOnUse">
   <stop style="stop-color:rgb(16,117,246)" offset="0"/>
   <stop style="stop-color:rgb(18,197,255)" offset="1"/>
  </linearGradient>
  <linearGradient id="_Linear2" x2="1" gradientTransform="matrix(-2.573e-15,-16,16,-2.573e-15,24,37)" gradientUnits="userSpaceOnUse">
   <stop style="stop-color:rgb(12,81,148)" offset="0"/>
   <stop style="stop-color:rgb(18,108,152)" offset="1"/>
  </linearGradient>
 </defs>
</svg>
