<?xml version="1.0" encoding="UTF-8" standalone="no"?>

<svg width="100%" height="100%" viewBox="0 0 1024 1024" version="1.1" xmlns="http://www.w3.org/2000/svg" xmlns:xlink="http://www.w3.org/1999/xlink" xml:space="preserve" xmlns:serif="http://www.serif.com/" style="fill-rule:evenodd;clip-rule:evenodd;stroke-linejoin:round;stroke-miterlimit:1.41421;">
    <path d="M39.48,402.198C39.48,402.198 39.48,268.685 39.48,192.685C39.48,164.314 62.479,141.315 90.85,141.315C148.457,141.315 239.025,141.315 278.906,141.315C291.668,141.315 303.872,146.547 312.672,155.79C322.106,165.701 334.568,178.791 344.003,188.702C352.803,197.945 365.007,203.177 377.769,203.177C463.828,203.177 804.339,203.177 934.947,203.177C963.318,203.177 986.317,226.176 986.317,254.547C986.317,313.516 986.317,402.198 986.317,402.198L39.48,402.198Z" style="fill:url(#_Linear1);"/>
    <path id="Top" d="M66.572,249.571C51.606,249.581 39.48,261.715 39.48,276.681C39.48,370.574 39.48,683.454 39.48,814.848C39.48,847.378 65.85,873.749 98.38,873.749C268.928,873.749 761.663,873.749 929.524,873.749C944.587,873.749 959.032,867.765 969.683,857.114C980.334,846.464 986.317,832.018 986.317,816.956C986.317,686.741 986.317,370.612 986.317,276.095C986.317,268.902 983.459,262.004 978.371,256.919C973.283,251.835 966.383,248.981 959.19,248.985C821.795,249.076 203.883,249.481 66.572,249.571Z" style="fill:url(#_Linear2);"/>
    <g transform="matrix(19.0862,0,0,19.0862,-98.7588,-195.83)">
        <path d="M26,29L26,33L38,33L38,29L26,29ZM23.43,35C22.715,35 22,35.698 22,36.398L22,41.601C22,42.302 22.715,43 23.43,43L26,43L26,49L38,49L38,43L40.57,43C41.285,43 42,42.302 42,41.602L42,36.399C42,35.698 41.285,35 40.57,35L23.43,35ZM26,39L38,39L38,41L26,41L26,39Z" style="fill:url(#_Linear3);fill-rule:nonzero;"/>
    </g>
    <defs>
        <linearGradient id="_Linear1" x1="0" y1="0" x2="1" y2="0" gradientUnits="userSpaceOnUse" gradientTransform="matrix(1.97322e-14,322.252,-322.252,1.97322e-14,245.76,141.474)"><stop offset="0" style="stop-color:rgb(0,189,255);stop-opacity:1"/><stop offset="1" style="stop-color:rgb(0,132,255);stop-opacity:1"/></linearGradient>
        <linearGradient id="_Linear2" x1="0" y1="0" x2="1" y2="0" gradientUnits="userSpaceOnUse" gradientTransform="matrix(3.76966e-14,-615.633,615.633,3.76966e-14,534.968,867.778)"><stop offset="0" style="stop-color:rgb(16,117,246);stop-opacity:1"/><stop offset="1" style="stop-color:rgb(18,197,255);stop-opacity:1"/></linearGradient>
        <linearGradient id="_Linear3" x1="0" y1="0" x2="1" y2="0" gradientUnits="userSpaceOnUse" gradientTransform="matrix(0.0470759,20,-20,0.0470759,32,29)"><stop offset="0" style="stop-color:rgb(18,108,152);stop-opacity:1"/><stop offset="1" style="stop-color:rgb(11,79,148);stop-opacity:1"/></linearGradient>
    </defs>
</svg>
