<?xml version="1.0" encoding="UTF-8" standalone="no"?><!DOCTYPE svg PUBLIC "-//W3C//DTD SVG 1.1//EN" "http://www.w3.org/Graphics/SVG/1.1/DTD/svg11.dtd"><svg width="100%" height="100%" viewBox="0 0 1024 1024" version="1.1" xmlns="http://www.w3.org/2000/svg" xmlns:xlink="http://www.w3.org/1999/xlink" xml:space="preserve" xmlns:serif="http://www.serif.com/" style="fill-rule:evenodd;clip-rule:evenodd;stroke-linejoin:round;stroke-miterlimit:1.41421;"><path d="M39.48,402.198c0,0 0,-133.513 0,-209.513c0,-28.371 22.999,-51.37 51.37,-51.37c57.607,0 148.175,0 188.056,0c12.762,0 24.966,5.232 33.766,14.475c9.434,9.911 21.896,23.001 31.331,32.912c8.8,9.243 21.004,14.475 33.766,14.475c86.059,0 426.57,0 557.178,0c28.371,0 51.37,22.999 51.37,51.37c0,58.969 0,147.651 0,147.651l-946.837,0Z" style="fill:url(#_Linear1);"/><path id="Top" d="M66.572,249.571c-14.966,0.01 -27.092,12.144 -27.092,27.11c0,93.893 0,406.773 0,538.167c0,32.53 26.37,58.901 58.9,58.901c170.548,0 663.283,0 831.144,0c15.063,0 29.508,-5.984 40.159,-16.635c10.651,-10.65 16.634,-25.096 16.634,-40.158c0,-130.215 0,-446.344 0,-540.861c0,-7.193 -2.858,-14.091 -7.946,-19.176c-5.088,-5.084 -11.988,-7.938 -19.181,-7.934c-137.395,0.091 -755.307,0.496 -892.618,0.586Z" style="fill:url(#_Linear2);"/><defs><linearGradient id="_Linear1" x1="0" y1="0" x2="1" y2="0" gradientUnits="userSpaceOnUse" gradientTransform="matrix(-1.23373,170.503,-170.503,-1.23373,245.76,141.474)"><stop offset="0" style="stop-color:#00dbff;stop-opacity:1"/><stop offset="1" style="stop-color:#00c9dc;stop-opacity:1"/></linearGradient><linearGradient id="_Linear2" x1="0" y1="0" x2="1" y2="0" gradientUnits="userSpaceOnUse" gradientTransform="matrix(3.76966e-14,-615.633,615.633,3.76966e-14,534.968,867.778)"><stop offset="0" style="stop-color:#00a2b6;stop-opacity:1"/><stop offset="1" style="stop-color:#12e0ff;stop-opacity:1"/></linearGradient></defs></svg>