<?xml version="1.0" encoding="UTF-8" standalone="no"?>

<svg width="100%" height="100%" viewBox="0 0 1024 1024" version="1.1" xmlns="http://www.w3.org/2000/svg" xmlns:xlink="http://www.w3.org/1999/xlink" xml:space="preserve" xmlns:serif="http://www.serif.com/" style="fill-rule:evenodd;clip-rule:evenodd;stroke-linejoin:round;stroke-miterlimit:1.41421;">
    <path d="M39.48,402.198C39.48,402.198 39.48,268.685 39.48,192.685C39.48,164.314 62.479,141.315 90.85,141.315C148.457,141.315 239.025,141.315 278.906,141.315C291.668,141.315 303.872,146.547 312.672,155.79C322.106,165.701 334.568,178.791 344.003,188.702C352.803,197.945 365.007,203.177 377.769,203.177C463.828,203.177 804.339,203.177 934.947,203.177C963.318,203.177 986.317,226.176 986.317,254.547C986.317,313.516 986.317,402.198 986.317,402.198L39.48,402.198Z" style="fill:url(#_Linear1);"/>
    <path id="Top" d="M66.572,249.571C51.606,249.581 39.48,261.715 39.48,276.681C39.48,370.574 39.48,683.454 39.48,814.848C39.48,847.378 65.85,873.749 98.38,873.749C268.928,873.749 761.663,873.749 929.524,873.749C944.587,873.749 959.032,867.765 969.683,857.114C980.334,846.464 986.317,832.018 986.317,816.956C986.317,686.741 986.317,370.612 986.317,276.095C986.317,268.902 983.459,262.004 978.371,256.919C973.283,251.835 966.383,248.981 959.19,248.985C821.795,249.076 203.883,249.481 66.572,249.571Z" style="fill:url(#_Linear2);"/>
    <g id="pictures">
        <path d="M426.272,388.394C433.685,378.238 445.502,372.233 458.076,372.233C487.687,372.233 542.813,372.233 571.988,372.233C584.14,372.233 595.612,377.845 603.071,387.438C609.39,395.564 617.177,405.579 623.648,413.9C631.764,424.338 644.263,430.42 657.485,430.365C677.934,430.279 709.242,430.148 732.328,430.052C740.278,430.018 747.914,433.153 753.547,438.763C759.18,444.373 762.347,451.995 762.347,459.945C762.347,519.736 762.347,653.067 762.347,712.755C762.347,720.684 759.197,728.287 753.591,733.894C747.985,739.5 740.381,742.649 732.453,742.649C643.319,742.649 380.06,742.649 290.926,742.649C282.997,742.649 275.394,739.5 269.787,733.894C264.181,728.287 261.032,720.684 261.032,712.755C261.032,653.026 261.032,519.55 261.032,459.82C261.032,451.892 264.181,444.288 269.787,438.682C275.394,433.076 282.997,429.926 290.926,429.926C316.168,429.926 351.712,429.926 374.291,429.926C387.906,429.926 400.703,423.424 408.73,412.427C414.308,404.784 420.809,395.878 426.272,388.394ZM511.689,473.405C570.956,473.405 619.073,521.523 619.073,580.789C619.073,640.056 570.956,688.174 511.689,688.174C452.422,688.174 404.305,640.056 404.305,580.789C404.305,521.523 452.422,473.405 511.689,473.405ZM511.689,494.198C559.481,494.198 598.281,532.998 598.281,580.789C598.281,628.581 559.481,667.381 511.689,667.381C463.898,667.381 425.098,628.581 425.098,580.789C425.098,532.998 463.898,494.198 511.689,494.198ZM639.504,467.089C648.51,467.089 655.822,474.401 655.822,483.407C655.822,492.413 648.51,499.725 639.504,499.725C630.498,499.725 623.186,492.413 623.186,483.407C623.186,474.401 630.498,467.089 639.504,467.089Z" style="fill:url(#_Linear3);"/>
        <g transform="matrix(1,0,0,1,-0.808539,-1.34756)">
            <path d="M367.073,401.965C367.073,398.551 364.302,395.779 360.888,395.779L326.409,395.779C322.996,395.779 320.224,398.551 320.224,401.965L320.224,414.335C320.224,417.748 322.996,420.52 326.409,420.52L360.888,420.52C364.302,420.52 367.073,417.748 367.073,414.335L367.073,401.965Z" style="fill:rgb(18,108,151);"/>
        </g>
    </g>
    <defs>
        <linearGradient id="_Linear1" x1="0" y1="0" x2="1" y2="0" gradientUnits="userSpaceOnUse" gradientTransform="matrix(1.97322e-14,322.252,-322.252,1.97322e-14,245.76,141.474)"><stop offset="0" style="stop-color:rgb(0,189,255);stop-opacity:1"/><stop offset="1" style="stop-color:rgb(0,132,255);stop-opacity:1"/></linearGradient>
        <linearGradient id="_Linear2" x1="0" y1="0" x2="1" y2="0" gradientUnits="userSpaceOnUse" gradientTransform="matrix(3.76966e-14,-615.633,615.633,3.76966e-14,534.968,867.778)"><stop offset="0" style="stop-color:rgb(16,118,246);stop-opacity:1"/><stop offset="1" style="stop-color:rgb(18,197,255);stop-opacity:1"/></linearGradient>
        <linearGradient id="_Linear3" x1="0" y1="0" x2="1" y2="0" gradientUnits="userSpaceOnUse" gradientTransform="matrix(2.26814e-14,370.416,-370.416,2.26814e-14,511.689,372.233)"><stop offset="0" style="stop-color:rgb(19,112,152);stop-opacity:1"/><stop offset="0.42" style="stop-color:rgb(16,101,151);stop-opacity:1"/><stop offset="1" style="stop-color:rgb(11,78,148);stop-opacity:1"/></linearGradient>
    </defs>
</svg>
