<svg style="clip-rule:evenodd;fill-rule:evenodd;stroke-linejoin:round;stroke-miterlimit:1.41421" version="1.1" viewBox="0 0 1024 1024" xmlns="http://www.w3.org/2000/svg">
 <path d="m39.48 402.198v-209.513c0-28.371 22.999-51.37 51.37-51.37h188.056c12.762 0 24.966 5.232 33.766 14.475 9.434 9.911 21.896 23.001 31.331 32.912 8.8 9.243 21.004 14.475 33.766 14.475h557.178c28.371 0 51.37 22.999 51.37 51.37v147.651h-946.837z" style="fill:url(#_Linear1)"/>
 <path d="m66.572 249.571c-14.966 0.01-27.092 12.144-27.092 27.11v538.167c0 32.53 26.37 58.901 58.9 58.901h831.144c15.063 0 29.508-5.984 40.159-16.635 10.651-10.65 16.634-25.096 16.634-40.158v-540.861c0-7.193-2.858-14.091-7.946-19.176-5.088-5.084-11.988-7.938-19.181-7.934-137.395 0.091-755.307 0.496-892.618 0.586z" style="fill:url(#_Linear2)"/>
 <path d="m703.474 641.064v36.32h-139.363v-36.32h139.363zm-296.143-181.605h17.418v-36.323h34.841v36.323h17.422c22.647 0 41.809 15.255 49.125 36.321h-66.547v36.321h17.422c28.918 0 52.261 24.335 52.261 54.481 0 30.147-23.343 54.482-52.261 54.482h-17.422v36.32h-34.841v-36.32h-17.418c-22.646 0-41.809-15.255-49.125-36.321h66.543v-36.321h-17.418c-28.918 0-52.261-24.335-52.261-54.481 0-30.147 23.343-54.482 52.261-54.482zm69.681 108.963h-17.422v36.321h17.422c9.756 0.363 17.42-7.991 17.42-18.16 0-10.17-7.664-18.161-17.42-18.161zm-52.263-36.321v-36.321h-17.418c-9.755 0-17.42 7.991-17.42 18.16 0 10.17 7.665 18.161 17.42 18.161h17.418z" style="fill:url(#_Linear3)"/>
 <defs>
  <linearGradient id="_Linear1" x2="1" gradientTransform="matrix(1.97322e-14,322.252,-322.252,1.97322e-14,245.76,141.474)" gradientUnits="userSpaceOnUse">
   <stop style="stop-color:#00bdff" offset="0"/>
   <stop style="stop-color:#0084ff" offset="1"/>
  </linearGradient>
  <linearGradient id="_Linear2" x2="1" gradientTransform="matrix(3.76966e-14,-615.633,615.633,3.76966e-14,534.968,867.778)" gradientUnits="userSpaceOnUse">
   <stop style="stop-color:#1075f6" offset="0"/>
   <stop style="stop-color:#12c5ff" offset="1"/>
  </linearGradient>
  <linearGradient id="_Linear3" x2="1" gradientTransform="matrix(348.404,0,0,254.247,355.07,550.26)" gradientUnits="userSpaceOnUse">
   <stop style="stop-color:#116797" offset="0"/>
   <stop style="stop-color:#0c5395" offset="1"/>
  </linearGradient>
 </defs>
</svg>
