<svg style="clip-rule:evenodd;fill-rule:evenodd;stroke-linejoin:round;stroke-miterlimit:1.41421" version="1.1" viewBox="0 0 1024 1024" xmlns="http://www.w3.org/2000/svg">
 <path d="m39.48 402.198v-209.513c0-28.371 22.999-51.37 51.37-51.37h188.056c12.762 0 24.966 5.232 33.766 14.475 9.434 9.911 21.896 23.001 31.331 32.912 8.8 9.243 21.004 14.475 33.766 14.475h557.178c28.371 0 51.37 22.999 51.37 51.37v147.651h-946.837z" style="fill:url(#_Linear1)"/>
 <path d="m66.572 249.571c-14.966 0.01-27.092 12.144-27.092 27.11v538.167c0 32.53 26.37 58.901 58.9 58.901h831.144c15.063 0 29.508-5.984 40.159-16.635 10.651-10.65 16.634-25.096 16.634-40.158v-540.861c0-7.193-2.858-14.091-7.946-19.176-5.088-5.084-11.988-7.938-19.181-7.934-137.395 0.091-755.307 0.496-892.618 0.586z" style="fill:url(#_Linear2)"/>
 <path d="m585.982 706.9c0.755 17.138 0.718 34.165-1.62 51.083-1.923 13.456-3.393 26.911-5.09 40.366-0.226 2.262 0 4.297 2.149 5.88 8.37 6.106 14.704 15.151 25.563 17.978 2.488 0.565 4.411 2.714 4.977 5.993-11.198 0-22.17 0.565-32.35-4.636-1.357 5.767-1.809 6.219-7.578 6.219-10.859 0-21.604 0.113-32.35 0.113-1.583 0-3.167 0.113-4.75-0.113-5.429-0.792-7.013-3.731-4.411-8.48 1.244-2.262 2.94-4.184 4.411-6.332 3.054-4.297 4.185-8.933 3.28-14.021-0.679-3.618-2.375-4.975-5.882-4.071-5.316 1.47-10.971 2.714-15.609 5.541-6.786 4.07-12.894 9.611-19.342 14.36-4.072 3.053-8.144 5.992-12.442 8.593-3.167 1.922-6.56 1.583-9.727-0.791-6.674-4.975-10.519-11.76-13.8-18.996 0.227-0.226 0.453-0.452 0.566-0.679 1.018 1.131 1.923 2.149 2.828 3.279 2.036 2.488 3.732 5.089 5.881 7.35 3.846 4.071 7.692 4.297 12.216 1.018 2.715-2.036 5.43-4.184 8.144-6.445 14.818-12.212 30.992-21.936 50.334-25.554 14.931-2.714 24.997-11.533 29.522-26.119 4.637-15.039 9.049-30.077 13.573-45.228 0.424-1.484 0.716-2.968 0.985-4.452l0.32-1.781c0.054-0.297 0.109-0.594 0.165-0.891l0.037 0.816zm-174.113-0.363c-1.018 17.299-1.696 34.26-2.941 51.107-0.905 12.89-2.714 25.667-3.959 38.444-0.565 6.332-4.072 10.629-9.614 13.229-6.447 2.94-13.234 5.428-19.907 8.141-4.412 1.809-8.71 3.732-11.198 8.141-0.453 0.792-0.905 1.809-1.357 2.601 0.339 0.339 0.565 0.565 0.678 0.565 7.579-2.827 15.27-1.583 22.962-1.13 6.56 0.452 13.233 0.226 19.794 0.226 16.514-0.226 32.915-0.566 49.429-0.905 0.678 0 1.357-0.113 2.375-0.113-0.905-5.201-2.714-9.724-6.334-13.455-1.923-2.036-3.959-3.958-5.882-5.993-1.018-1.131-1.923-2.488-2.601-3.844-1.131-2.827-1.471-5.654 0.678-8.255 2.149-2.6 5.09-2.487 8.031-1.922 1.018 0.226 2.036 0.453 3.054 0.792l0.792-0.792c-2.375-4.07-4.751-8.254-7.239-12.211-0.226-0.339-0.905-0.566-1.471-0.679-10.066-1.357-15.609-8.028-19.454-16.621-5.09-11.42-6.787-23.632-7.918-35.843-0.453-4.749-1.357-9.272-4.072-13.342-1.244-2.714-2.375-5.315-3.846-8.141zm194.299-266.54c-5.754-13.642-24.037-50.352-29.132-52.927 1.001 4.437 10.685 46.716 11.53 52.927 3.491 25.659 18.431 89.251 17.602 112.587-0.888 25.005 1.155 46.649-2.464 69.376-3.28 20.692-6.674 41.271-9.954 61.963-0.226 1.356 0 2.826 0 4.635 0.792-0.452 1.244-0.678 1.47-0.904 11.651-16.169 22.849-32.677 31.897-50.542 8.144-16.056 13.544-32.242 15.806-49.994 3.281-24.989 1.852-50.186-5.387-73.705-7.465-24.084-26.508-64.371-31.368-73.416zm-40.922-147.636c-7.917 2.375-15.948 4.297-23.753 7.124-14.365 5.201-25.223 15.038-35.177 26.345-12.668 14.36-23.979 29.511-34.272 45.68-7.013 10.968-17.759 20.648-25.903 30.937-21.943 27.702-47.197 65.027-54.436 99.287-4.185 20.126-11.248 39.745-11.474 60.324-0.226 22.275-0.339 44.663-1.357 66.937-0.792 18.318-3.959 57.101-3.959 59.249 1.81-1.47 34.579-35.165 37.293-55.178 3.168-24.536 6.448-49.072 9.502-73.609 2.714-22.501 8.483-44.323 15.722-65.806 3.28-9.724 6.56-19.562 8.709-29.625 1.923-8.819 1.923-17.978 3.168-27.023 2.036-14.587 19.115-31.911 29.634-42.879 12.669-13.116 24.998-26.684 37.44-40.027 1.018-1.13 2.488-3.166 2.149-3.957-0.566-1.357-2.489-2.827-4.072-2.94-3.167-0.339-6.447 0.113-9.614 0.452-1.697 0.226-3.394 1.018-5.995 1.809 0.452-2.374 0.452-4.07 1.131-5.427 4.977-10.176 11.311-19.335 20.473-26.345 1.018-0.792 2.036-1.357 3.167-1.922 4.75-2.488 8.709-2.262 11.198 0.339 3.393 3.505 4.411 9.724 1.583 13.681-1.809 2.601-4.637 4.41-7.013 6.445-1.131 0.905-2.714 1.583-5.089 2.827 3.167 1.244 5.316 2.488 7.691 3.053 5.655 1.357 11.311 2.94 17.08 3.392 11.763 0.905 19.907 7.35 26.694 16.169 3.054 3.957 5.655 8.254 8.822 13.003 0.905-3.053 1.697-5.766 2.602-8.593 2.601-8.367 5.09-16.622 7.691-24.876 0.453-1.356 1.584-2.826 2.828-3.731 10.293-6.897 20.586-14.473 33.594-15.151 8.143-0.453 16.401 0.226 24.544 0.452v-0.678c-1.018-0.905-2.036-1.697-2.94-2.601-4.751-5.201-10.746-7.35-17.646-7.463-12.442-0.226-24.771-1.243-36.082-7.462-8.822-4.862-17.645-9.611-27.485-12.099-2.036-0.113-4.299-0.113-6.448-0.113z" style="fill:url(#_Linear3)"/>
 <defs>
  <linearGradient id="_Linear1" x2="1" gradientTransform="matrix(1.97322e-14,322.252,-322.252,1.97322e-14,245.76,141.474)" gradientUnits="userSpaceOnUse">
   <stop style="stop-color:#00bdff" offset="0"/>
   <stop style="stop-color:#0084ff" offset="1"/>
  </linearGradient>
  <linearGradient id="_Linear2" x2="1" gradientTransform="matrix(3.76966e-14,-615.633,615.633,3.76966e-14,534.968,867.778)" gradientUnits="userSpaceOnUse">
   <stop style="stop-color:#1075f6" offset="0"/>
   <stop style="stop-color:#12c5ff" offset="1"/>
  </linearGradient>
  <linearGradient id="_Linear3" x2="1" gradientTransform="matrix(-48.2901,522.931,-522.931,-48.2901,560.29,306.993)" gradientUnits="userSpaceOnUse">
   <stop style="stop-color:#126a98" offset="0"/>
   <stop style="stop-color:#0b5094" offset="1"/>
  </linearGradient>
 </defs>
</svg>
