<?xml version="1.0" encoding="UTF-8" standalone="no"?><svg width="100%" height="100%" viewBox="0 0 64 64" version="1.1" xmlns="http://www.w3.org/2000/svg" xmlns:xlink="http://www.w3.org/1999/xlink" xml:space="preserve" xmlns:serif="http://www.serif.com/" style="fill-rule:evenodd;clip-rule:evenodd;stroke-linejoin:round;stroke-miterlimit:2;"><path d="M63.492,18.338c0.094,-1.382 -0.389,-2.741 -1.335,-3.753c-0.945,-1.012 -2.269,-1.587 -3.654,-1.587l-48.22,0c-2.629,0 -4.809,2.037 -4.988,4.66c-0.511,7.502 -1.514,22.214 -2.053,30.128c-0.094,1.382 0.389,2.741 1.335,3.753c0.945,1.012 2.269,1.587 3.654,1.587l48.22,0c2.629,0 4.809,-2.037 4.988,-4.66c0.511,-7.502 1.514,-22.214 2.053,-30.128Z" style="fill:#0083d5;"/><path d="M58.91,20.652c-0.09,-1.326 -0.704,-2.598 -1.706,-3.536c-1.002,-0.937 -2.309,-1.464 -3.635,-1.464l-25.58,0c-1.232,0 -2.451,-0.455 -3.424,-1.277c-0.814,-0.689 -1.817,-1.535 -2.632,-2.224c-0.973,-0.822 -2.192,-1.277 -3.424,-1.277l-13.509,0c-1.326,0 -2.561,0.527 -3.435,1.465c-0.874,0.937 -1.315,2.209 -1.224,3.535l2.196,32.252c0.188,2.761 2.58,5 5.341,5l48.244,0c2.761,0 4.847,-2.239 4.659,-5l-1.871,-27.474Z" style="fill:url(#_Linear1);"/><defs><linearGradient id="_Linear1" x1="0" y1="0" x2="1" y2="0" gradientUnits="userSpaceOnUse" gradientTransform="matrix(2.58719e-15,-42.252,42.252,2.58719e-15,32,53.126)"><stop offset="0" style="stop-color:#1077f6;stop-opacity:1"/><stop offset="1" style="stop-color:#12c2ff;stop-opacity:1"/></linearGradient></defs></svg>
