<?xml version="1.0" encoding="UTF-8" standalone="no"?>

<svg width="100%" height="100%" viewBox="0 0 48 48" version="1.1" xmlns="http://www.w3.org/2000/svg" xmlns:xlink="http://www.w3.org/1999/xlink" xml:space="preserve" xmlns:serif="http://www.serif.com/" style="fill-rule:evenodd;clip-rule:evenodd;stroke-linejoin:round;stroke-miterlimit:1.41421;">
    <path id="path12" d="M17.113,13.208C16.992,13.204 16.846,13.21 16.656,13.21L4.009,13.21C3.559,13.21 1.497,15.57 1.497,16.023L1.497,17.916C1.496,17.935 1.492,17.953 1.492,17.972L1.492,41.178C1.492,42.046 2.191,42.746 3.059,42.746L45.146,42.746C46.014,42.746 46.712,42.046 46.712,41.178L46.712,19.618C46.712,18.75 44.394,16.404 43.526,16.404L20.016,16.404C20.001,16.384 19.991,16.373 19.975,16.352C19.395,15.571 18.519,14.562 17.948,13.8C17.605,13.3 17.477,13.217 17.114,13.208L17.113,13.208Z" style="fill-opacity:0.666667;fill-rule:nonzero;"/>
    <path id="path14" d="M13.127,5.748L4.794,5.748C3.181,5.748 1.497,6.557 1.497,8.488L1.497,11.426C1.496,11.445 1.491,11.463 1.491,11.482L1.491,40.15C1.491,41.018 2.191,41.718 3.059,41.718L45.146,41.718C46.014,41.718 46.712,41.018 46.712,40.15L46.712,13.05C46.712,11.137 45.361,9.914 43.63,9.914C38.593,9.914 25.523,9.863 22.72,9.863C21.392,9.863 20.248,8.265 20.248,8.265C19.177,7.193 18.199,5.722 15.848,5.746C15.275,5.746 13.682,5.748 13.127,5.748L13.127,5.748Z" style="fill:url(#_Linear1);fill-rule:nonzero;"/>
    <circle id="circle11" cx="14" cy="8.497" r="1.781" style="fill:white;fill-opacity:0.301961;"/>
    <circle id="circle13" cx="9.623" cy="8.535" r="1.781" style="fill:white;fill-opacity:0.301961;"/>
    <circle id="circle15" cx="5.322" cy="8.577" r="1.781" style="fill:white;fill-opacity:0.301961;"/>
    <g id="g25" transform="matrix(0.0359483,0,0,0.0359483,40.4176,7.63319)">
        <path id="path17" d="M-456.7,534.134C-506.253,534.134 -553.031,555.986 -585.035,594.082C-594.965,605.893 -593.437,623.516 -581.607,633.445C-576.373,637.841 -570.002,640.002 -563.649,640.002C-555.676,640.002 -547.758,636.612 -542.244,630.036C-520.876,604.607 -489.692,590.02 -456.7,590.02C-423.708,590.02 -392.523,604.607 -371.156,630.036C-365.623,636.631 -357.706,640.002 -349.751,640.002C-343.398,640.002 -337.027,637.86 -331.793,633.445C-319.963,623.515 -318.436,605.892 -328.365,594.082C-360.37,555.986 -407.148,534.134 -456.7,534.134Z" style="fill:white;fill-opacity:0.847059;fill-rule:nonzero;"/>
        <path id="path19" d="M-456.71,411.206C-539.255,411.206 -617.199,447.625 -670.589,511.132C-680.518,522.943 -678.991,540.566 -667.161,550.495C-661.927,554.891 -655.556,557.053 -649.203,557.053C-641.23,557.053 -633.312,553.662 -627.798,547.086C-585.082,496.248 -522.712,467.093 -456.709,467.093C-390.706,467.093 -328.337,496.248 -285.602,547.086C-280.069,553.681 -272.152,557.053 -264.198,557.053C-257.845,557.053 -251.474,554.91 -246.239,550.495C-234.41,540.566 -232.883,522.925 -242.811,511.132C-296.221,447.626 -374.165,411.206 -456.71,411.206Z" style="fill:white;fill-opacity:0.847059;fill-rule:nonzero;"/>
        <path id="path21" d="M-157.259,432.768C-231.998,343.833 -341.146,292.845 -456.701,292.845C-572.256,292.845 -681.386,343.833 -756.144,432.768C-766.074,444.579 -764.546,462.202 -752.716,472.131C-747.482,476.527 -741.129,478.689 -734.777,478.689C-726.804,478.689 -718.886,475.298 -713.354,468.722C-649.27,392.474 -555.715,348.733 -456.702,348.733C-357.689,348.733 -264.134,392.474 -200.051,468.704C-194.518,475.28 -186.601,478.671 -178.627,478.671C-172.274,478.671 -165.903,476.528 -160.669,472.113C-148.858,462.201 -147.329,444.56 -157.259,432.768Z" style="fill:white;fill-opacity:0.847059;fill-rule:nonzero;"/>
        <path id="path23" d="M-502.725,682.975C-502.725,708.381 -482.106,729 -456.701,729C-431.296,729 -410.676,708.381 -410.676,682.975C-418.451,617.649 -501.245,634.309 -502.725,682.975Z" style="fill:white;fill-opacity:0.847059;fill-rule:nonzero;"/>
    </g>
    <defs>
        <linearGradient id="_Linear1" x1="0" y1="0" x2="1" y2="0" gradientUnits="userSpaceOnUse" gradientTransform="matrix(2.07538e-15,-33.8935,33.8935,2.07538e-15,11.2267,38.4659)"><stop offset="0" style="stop-color:rgb(25,124,241);stop-opacity:1"/><stop offset="1" style="stop-color:rgb(32,188,250);stop-opacity:1"/></linearGradient>
    </defs>
</svg>
