<?xml version="1.0" encoding="UTF-8" standalone="no"?><!DOCTYPE svg PUBLIC "-//W3C//DTD SVG 1.1//EN" "http://www.w3.org/Graphics/SVG/1.1/DTD/svg11.dtd"><svg width="100%" height="100%" viewBox="0 0 16 16" version="1.1" xmlns="http://www.w3.org/2000/svg" xmlns:xlink="http://www.w3.org/1999/xlink" xml:space="preserve" xmlns:serif="http://www.serif.com/" style="fill-rule:evenodd;clip-rule:evenodd;stroke-linejoin:round;stroke-miterlimit:1.41421;"><path d="M15.312,5.809c0,7.485 0,9.357 -5.614,9.357c-2.846,0 -4.246,-0.486 -4.938,-1.936c-0.223,0.042 -0.449,0.064 -0.676,0.064c-2.067,0 -3.743,-1.675 -3.743,-3.742c0,-2.068 1.676,-3.743 3.743,-3.743l11.228,0Zm-11.228,1.871l0.007,0c0.011,1.494 0.049,2.75 0.183,3.73c-0.063,0.007 -0.126,0.012 -0.19,0.013c-1.034,0 -1.872,-0.838 -1.872,-1.871c0,-1.008 0.797,-1.83 1.872,-1.872Z" style="fill:#dfdfdf;"/></svg>