<svg xmlns="http://www.w3.org/2000/svg" style="fill-rule:evenodd;clip-rule:evenodd;stroke-linejoin:round;stroke-miterlimit:2" width="100%" height="100%" version="1.1" viewBox="0 0 22 22" xml:space="preserve">
 <defs>
  <style id="current-color-scheme" type="text/css">
   .ColorScheme-Text { color:#dfdfdf; } .ColorScheme-Highlight { color:#4285f4; } .ColorScheme-NeutralText { color:#ff9800; } .ColorScheme-PositiveText { color:#4caf50; } .ColorScheme-NegativeText { color:#f44336; }
  </style>
 </defs>
 <path style="fill:currentColor;fill-opacity:0.3;" class="ColorScheme-Text" d="M11,2.819c-2.886,0.003 -5.566,1.532 -7.035,4.015c-0.016,0.027 -0.031,0.053 -0.046,0.08l2.025,1.169c1.04,-1.806 2.972,-2.924 5.056,-2.927l0,-2.337Zm7.09,4.09l-2.036,1.174c0.514,0.886 0.787,1.892 0.79,2.917c-0.002,1.025 -0.274,2.031 -0.788,2.917l2.025,1.169c0.015,-0.026 0.031,-0.053 0.046,-0.08c1.417,-2.513 1.403,-5.596 -0.037,-8.097Zm-12.144,7.008l-2.027,1.169c0.015,0.027 0.03,0.053 0.046,0.08c1.469,2.483 4.149,4.012 7.035,4.015l0,-2.337c-2.084,-0.004 -4.014,-1.121 -5.054,-2.927Z"/>
 <path style="fill:currentColor;" class="ColorScheme-Text" d="M11,2.819l0,2.337c2.084,0.004 4.014,1.121 5.054,2.927l2.027,-1.169c-0.015,-0.027 -0.03,-0.053 -0.046,-0.08c-1.469,-2.483 -4.149,-4.012 -7.035,-4.015Zm-7.081,4.095c-0.015,0.026 -0.031,0.053 -0.046,0.08c-1.417,2.513 -1.403,5.596 0.037,8.097l2.036,-1.174c-0.514,-0.886 -0.787,-1.892 -0.79,-2.917c0.002,-1.025 0.274,-2.031 0.788,-2.917l-2.025,-1.169Zm4.743,0.635l0,6.902l4.986,-3.451l-4.986,-3.451Zm7.394,6.368c-1.04,1.806 -2.972,2.924 -5.056,2.927l-0,2.337c2.886,-0.003 5.566,-1.532 7.035,-4.015c0.016,-0.027 0.031,-0.053 0.046,-0.08l-2.025,-1.169Z"/>
</svg>
