<svg xmlns="http://www.w3.org/2000/svg" style="fill-rule:evenodd;clip-rule:evenodd;stroke-linejoin:round;stroke-miterlimit:2" width="100%" height="100%" version="1.1" viewBox="0 0 22 22" xml:space="preserve">
 <defs>
  <style id="current-color-scheme" type="text/css">
   .ColorScheme-Text { color:#dfdfdf; } .ColorScheme-Highlight { color:#4285f4; } .ColorScheme-NeutralText { color:#ff9800; } .ColorScheme-PositiveText { color:#4caf50; } .ColorScheme-NegativeText { color:#f44336; }
  </style>
 </defs>
 <path style="fill:currentColor;" class="ColorScheme-Text" d="M8.674,2.819c-0.923,-0 -0.911,0.035 -0.619,1.204l1.893,6.027l-4.468,0.272l-1.426,-2.065c-0.152,-0.208 -0.14,-0.217 -0.397,-0.217l-0.476,-0c-0.503,-0 -0.339,0.433 -0.339,0.433l0.339,2.527l-0.339,2.527c0,-0 -0.152,0.433 0.304,0.433l0.511,0c0.245,0 0.245,-0.009 0.397,-0.217l1.426,-2.065l4.468,0.272l-1.893,5.992c-0.304,1.216 -0.316,1.239 0.619,1.239c0.503,0 0.503,-0.011 0.842,-0.584l4.312,-6.428l4.185,-0c0.667,-0 1.211,-0.526 1.211,-1.169c0,-0.643 -0.544,-1.169 -1.211,-1.169l-4.185,0l-4.312,-6.428c-0.316,-0.537 -0.328,-0.584 -0.772,-0.584l-0.07,-0Z"/>
</svg>
