<svg xmlns="http://www.w3.org/2000/svg" style="fill-rule:evenodd;clip-rule:evenodd;stroke-linejoin:round;stroke-miterlimit:2" width="100%" height="100%" version="1.1" viewBox="0 0 22 22" xml:space="preserve">
 <defs>
  <style id="current-color-scheme" type="text/css">
   .ColorScheme-Text { color:#dfdfdf; } .ColorScheme-Highlight { color:#4285f4; } .ColorScheme-NeutralText { color:#ff9800; } .ColorScheme-PositiveText { color:#4caf50; } .ColorScheme-NegativeText { color:#f44336; }
  </style>
 </defs>
 <path style="fill:currentColor;fill-opacity:0.3;" class="ColorScheme-Text" d="M9.548,19.174c-1.767,-0.188 -3.349,-0.713 -4.259,-1.666c-0.367,-0.385 -0.617,-0.739 -0.825,-1.17c-0.438,-0.911 -0.576,-1.936 -0.361,-2.693c0.214,-0.754 0.7,-1.586 1.384,-2.367c0.38,-0.435 0.923,-0.716 1.1,-1.069c0.416,-0.716 0.156,-1.204 -0.083,-1.6c-0.132,-0.218 -0.272,-0.257 -0.869,-0.228c-0.582,0.029 -0.867,-0.007 -1.145,-0.147c-0.215,-0.108 -0.291,-0.231 -0.224,-0.36c0.346,-0.281 0.467,-0.587 0.848,-0.731c-0.557,-0.492 -1.108,-1.009 -1.127,-1.745c0.039,-0.395 0.391,-0.3 0.391,-0.3c0.553,0.117 1.122,0.232 1.642,0.251c0.15,-0.021 0.306,-0.062 0.349,-0.092c0.044,-0.029 0.162,-0.204 0.262,-0.388c0.392,-0.718 0.807,-1.416 1.271,-1.655c0.535,-0.275 1.684,-0.422 2.403,-0.391c0.863,0.038 1.598,0.348 2.197,0.928c0.412,0.4 0.685,0.499 1.077,0.394c0.276,-0.073 0.283,-0.073 0.283,0.017c0,0.118 -0.091,0.271 -0.23,0.388l-0.129,0.107l0.13,0.08c0.178,0.11 0.157,0.197 -0.056,0.229c-0.175,0.027 -0.308,0.087 -0.308,0.142c-0,0.019 0.025,0.186 0.056,0.372c0.077,0.455 0.049,1.335 -0.054,1.769c-0.16,0.674 -0.402,1.148 -0.817,1.599c-0.321,0.304 -1.623,0.927 -1.709,0.983c0.041,0 0.389,-0.021 0.622,0c0.856,0.079 1.45,0.462 2.308,0.877c0.81,0.391 1.306,0.412 1.755,0.175c0.63,-0.448 1,-1.052 1.511,-1.052c1.126,0 1.114,2.367 1.047,3.449c0.079,2.79 -2.369,5.02 -5.187,5.677c-0.76,0.177 -1.066,0.209 -2.12,0.221c-0.546,0.006 -1.055,0.004 -1.133,-0.004Z"/>
 <path style="fill:currentColor;" class="ColorScheme-Text" d="M9.548,19.174c-1.767,-0.188 -3.349,-0.713 -4.259,-1.666c-0.367,-0.385 -0.617,-0.739 -0.825,-1.17c-0.438,-0.911 -0.576,-1.936 -0.361,-2.693c0.214,-0.754 0.7,-1.586 1.384,-2.367c0.38,-0.435 0.923,-0.716 1.1,-1.069c0.416,-0.716 0.156,-1.204 -0.083,-1.6c-0.132,-0.218 -0.272,-0.257 -0.869,-0.228c-0.582,0.029 -0.867,-0.007 -1.145,-0.147c-0.215,-0.108 -0.291,-0.231 -0.224,-0.36c0.346,-0.281 0.467,-0.587 0.848,-0.731c-0.557,-0.492 -1.108,-1.009 -1.127,-1.745c0.039,-0.395 0.391,-0.3 0.391,-0.3c0.553,0.117 1.122,0.232 1.642,0.251c0.15,-0.021 0.306,-0.062 0.349,-0.092c0.044,-0.029 0.162,-0.204 0.262,-0.388c0.392,-0.718 0.807,-1.416 1.271,-1.655c0.535,-0.275 1.684,-0.422 2.403,-0.391c0.863,0.038 1.598,0.348 2.197,0.928c0.412,0.4 0.685,0.499 1.077,0.394c0.276,-0.073 0.283,-0.073 0.283,0.017c0,0.118 -0.091,0.271 -0.23,0.388l-0.129,0.107l0.13,0.08c0.178,0.11 0.157,0.197 -0.056,0.229c-0.175,0.027 -0.308,0.087 -0.308,0.142c-0,0.019 0.025,0.186 0.056,0.372c0.077,0.455 0.049,1.335 -0.054,1.769c-0.16,0.674 -0.402,1.148 -0.817,1.599c-0.321,0.304 -1.623,0.927 -1.709,0.983c0.041,0 0.389,-0.021 0.622,0c0.856,0.079 1.45,0.462 2.308,0.877c0.81,0.391 1.306,0.412 1.755,0.175c0.63,-0.448 1,-1.052 1.511,-1.052c1.126,0 1.114,2.367 1.047,3.449c0.079,2.79 -2.369,5.02 -5.187,5.677c-0.76,0.177 -1.066,0.209 -2.12,0.221c-0.546,0.006 -1.055,0.004 -1.133,-0.004Zm1.978,-13.941c-0.08,-0.069 -0.16,-0.142 -0.243,-0.223c-0.287,-0.277 -0.642,-0.417 -1.056,-0.436c-0.418,-0.018 -1.076,0.019 -1.439,0.163c-0.088,0.126 -0.435,0.635 -0.618,0.971c-0.275,0.505 -0.693,0.915 -0.809,0.996c-0.052,0.035 -0.152,0.088 -0.282,0.145c0.107,0.05 0.197,0.105 0.278,0.16c0.25,0.17 0.46,0.384 0.646,0.692c0.504,0.832 0.973,1.861 0.117,3.356c-0.134,0.249 -0.325,0.495 -0.57,0.728c-0.209,0.199 -0.514,0.386 -0.743,0.648c-0.494,0.562 -0.864,1.148 -1.017,1.69c-0.117,0.411 0.015,0.959 0.255,1.454c0.127,0.266 0.285,0.483 0.513,0.721c0.661,0.693 1.842,0.986 3.125,1.127c0.111,0.001 0.587,0.004 0.978,-0c0.866,-0.01 1.119,-0.03 1.742,-0.175c2.009,-0.469 3.889,-1.931 3.832,-3.92c-0.001,-0.052 -0,-0.105 0.003,-0.157c0.01,-0.169 0,-0.437 -0.018,-0.725c-0.843,0.437 -1.792,0.572 -3.308,-0.162c-0.642,-0.31 -1.066,-0.65 -1.705,-0.709c-0.173,-0.016 -0.431,0.007 -0.462,0.007c-0.773,0 -1.455,-0.507 -1.678,-1.248c-0.223,-0.741 0.067,-1.54 0.712,-1.967c0.065,-0.043 1.217,-0.673 1.473,-0.813c0.155,-0.2 0.245,-0.422 0.314,-0.713c0.062,-0.263 0.077,-0.797 0.03,-1.072c-0.035,-0.213 -0.058,-0.413 -0.07,-0.538Z"/>
 <circle style="fill:currentColor;" class="ColorScheme-Highlight" cx="17.428" cy="5.741" r="1.753"/>
</svg>
