
<svg xmlns="http://www.w3.org/2000/svg" xmlns:xlink="http://www.w3.org/1999/xlink" width="22px" height="22px" viewBox="0 0 22 22" version="1.1">
<g id="surface1">
<path style=" stroke:none;fill-rule:evenodd;fill:rgb(87.450981%,87.450981%,87.450981%);fill-opacity:1;" d="M 7.148438 18.699219 L 7.148438 20.625 L 9.074219 20.589844 L 9.074219 18.699219 L 10.96875 18.699219 L 11.03125 20.625 L 12.957031 20.625 L 12.894531 18.699219 C 16.566406 18.433594 18.699219 17.996094 18.699219 13.886719 C 18.699219 11 16.773438 10.039062 14.496094 10.039062 C 15.941406 9.925781 16.773438 9.074219 16.773438 6.667969 C 16.773438 5.226562 15.941406 3.300781 14.851562 3.300781 L 12.925781 3.300781 L 12.925781 1.375 L 11 1.375 L 11 3.300781 C 10.425781 3.300781 9.65625 3.28125 9.074219 3.300781 L 9.074219 1.375 L 7.148438 1.375 L 7.148438 3.300781 L 3.300781 3.300781 L 3.300781 5.226562 C 3.300781 5.226562 3.992188 5.195312 3.964844 5.226562 C 4.851562 5.210938 5.132812 5.851562 5.226562 6.28125 L 5.226562 15.8125 C 5.191406 16.082031 5.21875 16.753906 4.601562 16.773438 C 4.628906 16.800781 3.300781 16.773438 3.300781 16.773438 L 3.300781 18.699219 Z M 9.074219 11 L 9.074219 16.773438 C 12.925781 16.773438 14.851562 16.773438 14.851562 13.886719 C 14.851562 11 12.925781 11 9.074219 11 Z M 9.074219 5.226562 L 9.074219 9.074219 C 11.519531 9.074219 12.925781 9.074219 12.925781 7.148438 C 12.925781 5.226562 11.789062 5.226562 9.074219 5.226562 Z M 9.074219 5.226562 "/>
</g>
</svg>
