
<svg xmlns="http://www.w3.org/2000/svg" xmlns:xlink="http://www.w3.org/1999/xlink" width="22px" height="22px" viewBox="0 0 22 22" version="1.1">
<g id="surface1">
<path style=" stroke:none;fill-rule:nonzero;fill:rgb(87.450981%,87.450981%,87.450981%);fill-opacity:1;" d="M 14.628906 19.417969 C 10.554688 21.171875 5.910156 19.746094 3.476562 16.238281 L 1.625 17.039062 L 2.8125 10.535156 L 8.359375 14.136719 L 6.984375 14.726562 C 8.523438 16.382812 10.980469 16.996094 13.175781 16.050781 C 14.378906 15.53125 15.351562 14.601562 15.929688 13.425781 L 19.695312 13.867188 C 18.878906 16.355469 17.035156 18.375 14.628906 19.417969 Z M 19.1875 11.464844 L 13.640625 7.863281 L 15.015625 7.273438 C 13.476562 5.617188 11.019531 5.003906 8.824219 5.949219 C 7.621094 6.46875 6.648438 7.398438 6.070312 8.574219 L 2.304688 8.132812 C 3.121094 5.644531 4.964844 3.625 7.371094 2.582031 C 11.445312 0.828125 16.089844 2.253906 18.523438 5.761719 L 20.375 4.960938 Z M 19.1875 11.464844 "/>
</g>
</svg>
