
<svg xmlns="http://www.w3.org/2000/svg" xmlns:xlink="http://www.w3.org/1999/xlink" width="22px" height="22px" viewBox="0 0 22 22" version="1.1">
<g id="surface1">
<path style=" stroke:none;fill-rule:nonzero;fill:rgb(87.450981%,87.450981%,87.450981%);fill-opacity:1;" d="M 11 1.375 C 7.402344 1.378906 4.109375 3.386719 2.457031 6.582031 C 3.820312 5.875 5.335938 5.503906 6.875 5.5 C 7.457031 5.5 8.035156 5.554688 8.605469 5.660156 C 9.0625 4.035156 9.941406 2.5625 11.148438 1.382812 C 11.097656 1.378906 11.050781 1.378906 11 1.375 Z M 13.023438 1.59375 C 11.53125 2.683594 10.445312 4.238281 9.941406 6.015625 C 12.167969 6.765625 14.042969 8.308594 15.210938 10.34375 C 15.722656 9.941406 16.332031 9.667969 17.003906 9.628906 L 17.011719 9.628906 C 17.125 9.625 17.238281 9.625 17.351562 9.628906 C 18.515625 9.691406 19.539062 10.394531 20.078125 11.40625 L 20.53125 12.265625 C 20.589844 11.847656 20.621094 11.421875 20.625 11 C 20.621094 6.464844 17.457031 2.550781 13.023438 1.59375 Z M 6.875 6.875 C 4.972656 6.878906 3.125 7.539062 1.65625 8.742188 C 1.472656 9.484375 1.378906 10.238281 1.375 11 C 1.375 16.316406 5.683594 20.625 11 20.625 C 11.230469 20.621094 11.460938 20.609375 11.691406 20.585938 C 10.953125 19.535156 10.753906 18.078125 11.417969 16.824219 L 11.957031 15.8125 C 9.625 13.996094 8.257812 11.207031 8.25 8.25 C 8.253906 7.835938 8.285156 7.421875 8.339844 7.011719 C 7.859375 6.921875 7.367188 6.875 6.875 6.875 Z M 9.671875 7.375 C 9.640625 7.664062 9.625 7.957031 9.625 8.25 C 9.628906 10.699219 10.722656 13.019531 12.609375 14.582031 L 12.855469 14.117188 L 14.257812 11.476562 C 13.316406 9.570312 11.671875 8.101562 9.671875 7.375 Z M 17.085938 11.003906 C 16.429688 11.039062 15.839844 11.4375 15.511719 12.054688 L 14.070312 14.757812 L 12.636719 17.46875 C 12.289062 18.121094 12.289062 18.921875 12.636719 19.570312 C 12.980469 20.222656 13.617188 20.625 14.308594 20.625 L 20.0625 20.625 C 20.753906 20.625 21.394531 20.222656 21.738281 19.574219 C 22.085938 18.921875 22.085938 18.121094 21.738281 17.46875 L 20.300781 14.757812 L 18.863281 12.054688 C 18.535156 11.433594 17.9375 11.035156 17.277344 11.003906 C 17.214844 11 17.148438 11 17.085938 11.003906 Z M 16.5 12.375 L 17.875 12.375 L 17.875 16.5 L 16.5 16.5 Z M 16.5 17.875 L 17.875 17.875 L 17.875 19.25 L 16.5 19.25 Z M 16.5 17.875 "/>
</g>
</svg>
