
<svg xmlns="http://www.w3.org/2000/svg" xmlns:xlink="http://www.w3.org/1999/xlink" width="22px" height="22px" viewBox="0 0 22 22" version="1.1">
<defs>
<filter id="alpha" filterUnits="objectBoundingBox" x="0%" y="0%" width="100%" height="100%">
  <feColorMatrix type="matrix" in="SourceGraphic" values="0 0 0 0 1 0 0 0 0 1 0 0 0 0 1 0 0 0 1 0"/>
</filter>
<mask id="mask0">
  <g filter="url(#alpha)">
<rect x="0" y="0" width="22" height="22" style="fill:rgb(0%,0%,0%);fill-opacity:0.3;stroke:none;"/>
  </g>
</mask>
<clipPath id="clip1">
  <rect x="0" y="0" width="22" height="22"/>
</clipPath>
<g id="surface5" clip-path="url(#clip1)">
<path style=" stroke:none;fill-rule:nonzero;fill:rgb(87.450981%,87.450981%,87.450981%);fill-opacity:1;" d="M 7.953125 1.398438 L 7.347656 2.242188 C 6.171875 3.777344 5.5 5.644531 5.5 7.597656 L 5.5 7.601562 C 5.5 12.527344 9.476562 16.5 14.40625 16.5 C 16.355469 16.496094 18.222656 15.832031 19.753906 14.664062 L 20.570312 14.019531 C 20.4375 13.824219 20.28125 13.636719 20.070312 13.460938 C 18.660156 12.289062 16.0625 11.453125 13.339844 8.757812 C 10.472656 5.914062 9.65625 3.222656 8.453125 1.832031 C 8.296875 1.652344 8.128906 1.515625 7.953125 1.398438 Z M 7.953125 1.398438 "/>
</g>
</defs>
<g id="surface1">
<path style=" stroke:none;fill-rule:nonzero;fill:rgb(87.450981%,87.450981%,87.450981%);fill-opacity:1;" d="M 1.550781 6.773438 C 1.40625 7.550781 1.378906 8.171875 1.375 8.871094 C 1.375 8.9375 1.375 9 1.378906 9.0625 C 1.625 15.355469 6.75 20.4375 13.0625 20.617188 C 13.09375 20.621094 13.121094 20.621094 13.15625 20.621094 C 13.570312 20.636719 14.039062 20.601562 14.417969 20.578125 C 18.179688 20.210938 20.894531 17.308594 20.605469 15.234375 C 18.761719 16.878906 16.378906 17.871094 13.894531 17.875 C 8.3125 17.875 4.125 13.695312 4.125 8.113281 C 4.125 5.625 5.121094 3.242188 6.765625 1.398438 C 3.800781 1.597656 1.976562 4.789062 1.550781 6.773438 Z M 1.550781 6.773438 "/>
<use xlink:href="#surface5" mask="url(#mask0)"/>
</g>
</svg>
