<svg xmlns="http://www.w3.org/2000/svg" style="clip-rule:evenodd;fill-rule:evenodd;stroke-linejoin:round;stroke-miterlimit:2" version="1.1" viewBox="-3 -3 22 22">
 <defs>
  <style id="current-color-scheme" type="text/css">
   .ColorScheme-Text { color:#dfdfdf; } .ColorScheme-Highlight { color:#4285f4; } .ColorScheme-NeutralText { color:#ff9800; } .ColorScheme-PositiveText { color:#4caf50; } .ColorScheme-NegativeText { color:#f44336; }
  </style>
 </defs>
 <path style="fill:currentColor;" class="ColorScheme-Text" d="m2 0h12c2 0 2 2 2 2v9c0 2-2 2-2 2h-12c-2 0-2-2-2-2v-9s0-2 2-2zm-1.15 0.797v10.922h14.3v-10.922h-14.3zm4.15 2.203h1v2h-1v-2zm5 0h1v2h-1v-2zm-5 5v1h-1v-1h1zm6 0h1v1h-1v-1zm-6 0v-1h6v1h-6z"/>
 <path style="fill-opacity:.5;fill:currentColor;" class="ColorScheme-Text" d="m3.563 13.769c-0.311 0-0.563 0.252-0.563 0.563v1.105c0 0.311 0.252 0.563 0.563 0.563h8.874c0.311 0 0.563-0.252 0.563-0.563v-1.105c0-0.311-0.252-0.563-0.563-0.563h-8.874z"/>
</svg>
