
<svg xmlns="http://www.w3.org/2000/svg" xmlns:xlink="http://www.w3.org/1999/xlink" width="22px" height="22px" viewBox="0 0 22 22" version="1.1">
<g id="surface1">
<path style=" stroke:none;fill-rule:nonzero;fill:rgb(87.450981%,87.450981%,87.450981%);fill-opacity:1;" d="M 11 1.375 C 5.683594 1.375 1.375 5.683594 1.375 11 C 1.375 16.316406 5.683594 20.625 11 20.625 C 16.316406 20.625 20.625 16.316406 20.625 11 C 20.625 5.683594 16.316406 1.375 11 1.375 Z M 5.328125 9.625 L 16.671875 9.625 C 17.339844 9.625 17.875 10.160156 17.875 10.828125 L 17.875 11.171875 C 17.875 11.839844 17.339844 12.375 16.671875 12.375 L 5.328125 12.375 C 4.660156 12.375 4.125 11.839844 4.125 11.171875 L 4.125 10.828125 C 4.125 10.160156 4.660156 9.625 5.328125 9.625 Z M 5.328125 9.625 "/>
</g>
</svg>
