
<svg xmlns="http://www.w3.org/2000/svg" xmlns:xlink="http://www.w3.org/1999/xlink" width="22px" height="22px" viewBox="0 0 22 22" version="1.1">
<g id="surface1">
<path style=" stroke:none;fill-rule:nonzero;fill:rgb(87.450981%,87.450981%,87.450981%);fill-opacity:1;" d="M 8.769531 2.75 C 8.769531 2.75 6.351562 2.691406 3.785156 4.808594 C 1.222656 6.929688 0 11.316406 0 17.632812 C 0 17.632812 2.941406 20.484375 6.875 20.625 C 6.875 20.625 7.714844 20.003906 8.25 19.25 C 5.988281 18.496094 4.730469 15.996094 4.730469 15.996094 C 6.8125 17.304688 8.839844 17.851562 11 17.875 C 13.160156 17.851562 15.1875 17.304688 17.269531 15.996094 C 17.269531 15.996094 16.011719 18.496094 13.75 19.25 C 14.285156 20.003906 15.125 20.625 15.125 20.625 C 19.058594 20.484375 22 17.632812 22 17.632812 C 22 11.316406 20.777344 6.929688 18.214844 4.808594 C 15.648438 2.691406 13.230469 2.75 13.230469 2.75 L 13.050781 2.984375 C 16.257812 3.996094 17.714844 6.25 17.714844 6.25 C 17.714844 6.25 17.324219 6.011719 16.664062 5.695312 C 14.664062 4.617188 12.832031 4.125 11 4.125 C 9.167969 4.125 7.335938 4.617188 5.335938 5.695312 C 4.675781 6.011719 4.285156 6.25 4.285156 6.25 C 4.285156 6.25 5.742188 3.996094 8.949219 2.984375 Z M 7.5625 11 C 8.714844 11 9.644531 11.917969 9.625 13.0625 C 9.625 14.207031 8.714844 15.125 7.5625 15.125 C 6.429688 15.125 5.5 14.207031 5.5 13.0625 C 5.5 11.917969 6.410156 11 7.5625 11 Z M 14.4375 11 C 15.589844 11 16.5 11.917969 16.5 13.0625 C 16.5 14.207031 15.570312 15.125 14.4375 15.125 C 13.285156 15.125 12.375 14.207031 12.375 13.0625 C 12.355469 11.917969 13.285156 11 14.4375 11 Z M 14.4375 11 "/>
<path style=" stroke:none;fill-rule:nonzero;fill:rgb(25.882354%,52.156866%,95.686275%);fill-opacity:1;" d="M 22 2.0625 C 22 3.203125 21.078125 4.125 19.9375 4.125 C 18.796875 4.125 17.875 3.203125 17.875 2.0625 C 17.875 0.921875 18.796875 0 19.9375 0 C 21.078125 0 22 0.921875 22 2.0625 Z M 22 2.0625 "/>
</g>
</svg>
