
<svg xmlns="http://www.w3.org/2000/svg" xmlns:xlink="http://www.w3.org/1999/xlink" width="22px" height="22px" viewBox="0 0 22 22" version="1.1">
<g id="surface1">
<path style=" stroke:none;fill-rule:nonzero;fill:rgb(87.450981%,87.450981%,87.450981%);fill-opacity:1;" d="M 6.113281 1.375 L 6.117188 1.378906 L 0.0117188 4.824219 L 5.5 8.230469 L 0 12.378906 L 6.117188 15.8125 L 11 12.386719 L 5.5 8.25 L 11 4.824219 L 16.5 8.269531 L 14.113281 10.058594 C 14.875 9.773438 15.683594 9.625 16.5 9.625 C 17.34375 9.628906 18.179688 9.785156 18.964844 10.089844 L 16.5 8.246094 L 21.988281 4.820312 L 15.882812 1.375 L 11 4.800781 Z M 16.5 11 C 13.460938 11 11 13.460938 11 16.5 C 11 19.539062 13.460938 22 16.5 22 C 19.539062 22 22 19.539062 22 16.5 C 22 13.460938 19.539062 11 16.5 11 Z M 21.960938 12.328125 C 21.96875 12.34375 21.976562 12.355469 21.988281 12.371094 L 22 12.363281 Z M 14.242188 13.246094 L 14.234375 13.265625 L 16.5 15.527344 L 18.765625 13.265625 L 19.734375 14.234375 L 17.472656 16.5 L 19.734375 18.765625 L 18.765625 19.734375 L 16.503906 17.453125 L 14.242188 19.71875 L 13.269531 18.746094 L 15.53125 16.480469 L 13.269531 14.21875 Z M 9.917969 14.523438 L 6.117188 17.191406 L 4.894531 16.503906 L 4.894531 17.015625 L 11 20.625 L 11.007812 20.621094 C 10.113281 19.433594 9.628906 17.988281 9.625 16.5 C 9.625 15.832031 9.722656 15.164062 9.917969 14.523438 Z M 9.917969 14.523438 "/>
</g>
</svg>
