
<svg xmlns="http://www.w3.org/2000/svg" xmlns:xlink="http://www.w3.org/1999/xlink" width="22px" height="22px" viewBox="0 0 22 22" version="1.1">
<g id="surface1">
<path style=" stroke:none;fill-rule:nonzero;fill:rgb(87.450981%,87.450981%,87.450981%);fill-opacity:1;" d="M 11 1.375 C 7.203125 1.375 4.125 4.453125 4.125 8.25 L 4.125 9.625 L 3.4375 9.625 C 3.074219 9.625 2.734375 9.726562 2.4375 9.890625 L 8.875 16.324219 C 9.929688 17.378906 10.773438 17.316406 11.511719 17.070312 C 12.25 16.824219 12.765625 16.324219 12.765625 16.324219 L 17.863281 11.226562 L 17.875 11.226562 L 17.875 11.214844 L 19.316406 9.773438 C 19.082031 9.679688 18.828125 9.625 18.5625 9.625 L 17.875 9.625 L 17.875 8.25 C 17.875 4.453125 14.796875 1.375 11 1.375 Z M 11 3.4375 C 13.683594 3.4375 15.8125 5.566406 15.8125 8.25 L 15.8125 9.625 L 6.1875 9.625 L 6.1875 8.25 C 6.1875 5.566406 8.316406 3.4375 11 3.4375 Z M 20.355469 10.679688 L 15.007812 16.027344 L 19.414062 20.4375 C 20.128906 20.113281 20.625 19.398438 20.625 18.5625 L 20.625 11.6875 C 20.625 11.320312 20.523438 10.980469 20.355469 10.679688 Z M 1.523438 10.921875 C 1.429688 11.160156 1.375 11.414062 1.375 11.6875 L 1.375 18.5625 C 1.375 19.363281 1.832031 20.046875 2.496094 20.390625 L 6.742188 16.140625 Z M 14.035156 17 L 13.738281 17.296875 C 13.738281 17.296875 13.035156 18.011719 11.949219 18.375 C 10.863281 18.734375 9.28125 18.675781 7.902344 17.296875 L 7.714844 17.113281 L 4.203125 20.625 L 17.65625 20.625 Z M 14.035156 17 "/>
</g>
</svg>
