
<svg xmlns="http://www.w3.org/2000/svg" xmlns:xlink="http://www.w3.org/1999/xlink" width="22px" height="22px" viewBox="0 0 22 22" version="1.1">
<g id="surface1">
<path style=" stroke:none;fill-rule:nonzero;fill:rgb(87.450981%,87.450981%,87.450981%);fill-opacity:1;" d="M 16.5 8.25 C 17.300781 8.25 18.027344 8.460938 18.535156 8.964844 C 19.039062 9.472656 19.25 10.199219 19.25 11 L 17.875 11 C 17.875 10.425781 17.742188 10.121094 17.558594 9.941406 C 17.378906 9.757812 17.074219 9.625 16.5 9.625 C 15.925781 9.625 15.621094 9.757812 15.441406 9.941406 C 15.257812 10.121094 15.125 10.425781 15.125 11 L 15.125 13.75 C 15.125 14.324219 15.257812 14.628906 15.441406 14.808594 C 15.621094 14.992188 15.925781 15.125 16.5 15.125 C 17.074219 15.125 17.378906 14.992188 17.558594 14.808594 C 17.742188 14.628906 17.875 14.324219 17.875 13.75 L 19.25 13.75 C 19.25 14.550781 19.039062 15.277344 18.535156 15.785156 C 18.027344 16.289062 17.300781 16.5 16.5 16.5 C 15.699219 16.5 14.972656 16.289062 14.464844 15.785156 C 13.960938 15.277344 13.75 14.550781 13.75 13.75 L 13.75 11 C 13.75 10.199219 13.960938 9.472656 14.464844 8.964844 C 14.972656 8.460938 15.699219 8.25 16.5 8.25 Z M 2.75 5.5 L 4.125 5.5 L 4.125 11.402344 L 7.277344 8.25 L 8.25 8.25 L 8.25 5.5 L 9.625 5.5 L 9.625 11.402344 L 12.777344 8.25 L 14.722656 8.25 L 10.597656 12.375 L 14.722656 16.5 L 12.777344 16.5 L 9.625 13.347656 L 9.625 16.5 L 7.277344 16.5 L 4.125 13.347656 L 4.125 16.5 L 2.75 16.5 Z M 8.25 9.222656 L 5.097656 12.375 L 8.25 15.527344 Z M 8.25 9.222656 "/>
</g>
</svg>
