
<svg xmlns="http://www.w3.org/2000/svg" xmlns:xlink="http://www.w3.org/1999/xlink" width="22px" height="22px" viewBox="0 0 22 22" version="1.1">
<g id="surface1">
<path style=" stroke:none;fill-rule:nonzero;fill:rgb(87.450981%,87.450981%,87.450981%);fill-opacity:1;" d="M 9.625 2.75 L 11 2.75 L 11 12.351562 C 13.488281 12.238281 14.742188 11.515625 15.484375 10.296875 C 16.296875 8.972656 16.5 6.847656 16.5 4.125 L 17.875 4.125 C 17.875 6.902344 17.734375 9.246094 16.65625 11.015625 C 15.65625 12.648438 13.820312 13.589844 11 13.722656 L 11 17.875 L 17.875 17.875 L 17.875 19.25 L 2.75 19.25 L 2.75 17.875 L 9.625 17.875 L 9.625 13.722656 C 6.804688 13.589844 4.96875 12.648438 3.96875 11.015625 C 2.890625 9.246094 2.75 6.902344 2.75 4.125 L 4.125 4.125 C 4.125 6.847656 4.328125 8.972656 5.140625 10.296875 C 5.886719 11.515625 7.136719 12.238281 9.625 12.351562 Z M 9.625 2.75 "/>
</g>
</svg>
