
<svg xmlns="http://www.w3.org/2000/svg" xmlns:xlink="http://www.w3.org/1999/xlink" width="22px" height="22px" viewBox="0 0 22 22" version="1.1">
<defs>
<filter id="alpha" filterUnits="objectBoundingBox" x="0%" y="0%" width="100%" height="100%">
  <feColorMatrix type="matrix" in="SourceGraphic" values="0 0 0 0 1 0 0 0 0 1 0 0 0 0 1 0 0 0 1 0"/>
</filter>
<mask id="mask0">
  <g filter="url(#alpha)">
<rect x="0" y="0" width="22" height="22" style="fill:rgb(0%,0%,0%);fill-opacity:0.3;stroke:none;"/>
  </g>
</mask>
<clipPath id="clip1">
  <rect x="0" y="0" width="22" height="22"/>
</clipPath>
<g id="surface5" clip-path="url(#clip1)">
<path style=" stroke:none;fill-rule:nonzero;fill:rgb(87.450981%,87.450981%,87.450981%);fill-opacity:0.5;" d="M 19.429688 6.144531 C 19.429688 3.464844 17.253906 1.292969 14.574219 1.292969 L 4.867188 1.292969 C 2.1875 1.292969 0.0117188 3.464844 0.0117188 6.144531 L 0.0117188 15.855469 C 0.0117188 18.535156 2.1875 20.707031 4.867188 20.707031 L 14.574219 20.707031 C 17.253906 20.707031 19.429688 18.535156 19.429688 15.855469 Z M 18.054688 6.144531 L 18.054688 15.855469 C 18.054688 17.773438 16.496094 19.332031 14.574219 19.332031 L 4.867188 19.332031 C 2.945312 19.332031 1.386719 17.773438 1.386719 15.855469 L 1.386719 6.144531 C 1.386719 4.226562 2.945312 2.667969 4.867188 2.667969 L 14.574219 2.667969 C 16.496094 2.667969 18.054688 4.226562 18.054688 6.144531 Z M 18.054688 6.144531 "/>
</g>
</defs>
<g id="surface1">
<use xlink:href="#surface5" mask="url(#mask0)"/>
<path style=" stroke:none;fill-rule:nonzero;fill:rgb(29.803923%,68.627453%,31.37255%);fill-opacity:1;" d="M 5.917969 9.917969 C 6.789062 10.917969 10.941406 15.726562 10.941406 15.726562 C 10.941406 15.726562 19.226562 6.382812 20.847656 4.484375 C 21.324219 3.921875 20.988281 3.09375 20.113281 3.878906 C 18.585938 5.257812 11 11.933594 11 11.933594 C 11 11.933594 7.773438 9.339844 7.0625 8.769531 C 6.457031 8.289062 5.03125 8.902344 5.917969 9.917969 Z M 5.917969 9.917969 "/>
</g>
</svg>
