
<svg xmlns="http://www.w3.org/2000/svg" xmlns:xlink="http://www.w3.org/1999/xlink" width="22px" height="22px" viewBox="0 0 22 22" version="1.1">
<g id="surface1">
<path style=" stroke:none;fill-rule:nonzero;fill:rgb(87.450981%,87.450981%,87.450981%);fill-opacity:1;" d="M 16.167969 2.75 C 16.113281 2.75 16.058594 2.757812 16.003906 2.769531 L 5.210938 5.007812 C 5.203125 5.007812 5.191406 5.011719 5.183594 5.015625 C 3.679688 5.375 2.617188 6.496094 1.902344 7.78125 C 1.191406 9.066406 0.761719 10.574219 0.476562 12.042969 C 0.328125 12.835938 0.222656 13.605469 0.148438 14.332031 C 0.714844 13.953125 1.382812 13.75 2.0625 13.75 C 2.152344 13.75 2.242188 13.753906 2.332031 13.761719 C 2.644531 11.117188 3.390625 7.902344 5.210938 7.902344 C 8.296875 7.902344 8.382812 17.179688 8.382812 17.179688 L 5.5 17.179688 C 5.5 17.183594 5.5 17.183594 5.5 17.1875 C 5.5 17.90625 5.273438 18.609375 4.851562 19.195312 L 10.558594 19.25 C 10.636719 19.25 10.714844 19.246094 10.789062 19.226562 L 21.152344 17.035156 C 21.617188 16.933594 21.957031 16.539062 21.976562 16.074219 C 21.976562 16.074219 22.132812 13.007812 21.59375 9.84375 C 21.320312 8.261719 20.886719 6.640625 20.089844 5.300781 C 19.292969 3.960938 18 2.851562 16.277344 2.757812 C 16.242188 2.757812 16.207031 2.757812 16.167969 2.757812 Z M 16.222656 4.832031 C 17.105469 4.902344 17.714844 5.378906 18.28125 6.332031 C 18.867188 7.3125 19.28125 8.738281 19.527344 10.179688 C 19.953125 12.675781 19.855469 14.566406 19.839844 15.195312 L 10.765625 17.113281 C 10.757812 14.535156 10.441406 8.332031 7.398438 6.664062 Z M 17.542969 9.625 L 12.464844 10.707031 L 12.375 10.8125 L 12.449219 12.085938 L 12.601562 12.121094 L 16.335938 11.296875 L 16.417969 12.363281 L 16.527344 12.375 L 17.792969 12.011719 L 17.875 11.953125 L 17.644531 9.699219 Z M 5.238281 10.996094 C 4.960938 10.992188 4.695312 11.101562 4.496094 11.296875 C 4.300781 11.488281 4.1875 11.753906 4.1875 12.027344 C 4.191406 12.3125 4.308594 12.582031 4.523438 12.777344 L 3.957031 14.320312 C 4.28125 14.535156 4.566406 14.804688 4.800781 15.113281 L 6.8125 15.101562 L 5.972656 12.761719 C 6.171875 12.566406 6.285156 12.300781 6.285156 12.027344 C 6.285156 11.457031 5.816406 10.996094 5.238281 10.996094 Z M 5.238281 10.996094 "/>
<path style=" stroke:none;fill-rule:nonzero;fill:rgb(25.882354%,52.156866%,95.686275%);fill-opacity:1;" d="M 4.125 17.1875 C 4.125 18.328125 3.203125 19.25 2.0625 19.25 C 0.921875 19.25 0 18.328125 0 17.1875 C 0 16.046875 0.921875 15.125 2.0625 15.125 C 3.203125 15.125 4.125 16.046875 4.125 17.1875 Z M 4.125 17.1875 "/>
</g>
</svg>
