
<svg xmlns="http://www.w3.org/2000/svg" xmlns:xlink="http://www.w3.org/1999/xlink" width="22px" height="22px" viewBox="0 0 22 22" version="1.1">
<g id="surface1">
<path style=" stroke:none;fill-rule:nonzero;fill:rgb(87.450981%,87.450981%,87.450981%);fill-opacity:1;" d="M 7.957031 1.65625 C 3.90625 2.824219 1.050781 5.976562 1.40625 10.355469 C 1.8125 15.410156 9.136719 20.519531 12.003906 20.625 C 13.257812 20.328125 12.53125 16.328125 11.796875 13.308594 C 11.589844 12.492188 11.382812 11.679688 11.144531 10.863281 C 11.070312 10.597656 10.976562 10.269531 10.953125 10.1875 C 10.558594 8.875 10.085938 7.375 9.308594 4.988281 C 9.164062 4.554688 9.472656 4.105469 9.921875 4.089844 C 10.226562 4.078125 10.496094 4.273438 10.585938 4.566406 C 11.933594 8.703125 12.464844 10.519531 13.011719 12.65625 C 15.171875 15.363281 18.3125 19.066406 19.328125 18.835938 C 20.894531 18.480469 21.460938 8.0625 18.605469 4.851562 C 15.75 1.636719 11.972656 0.882812 7.957031 1.65625 Z M 7.957031 1.65625 "/>
</g>
</svg>
