
<svg xmlns="http://www.w3.org/2000/svg" xmlns:xlink="http://www.w3.org/1999/xlink" width="22px" height="22px" viewBox="0 0 22 22" version="1.1">
<defs>
<filter id="alpha" filterUnits="objectBoundingBox" x="0%" y="0%" width="100%" height="100%">
  <feColorMatrix type="matrix" in="SourceGraphic" values="0 0 0 0 1 0 0 0 0 1 0 0 0 0 1 0 0 0 1 0"/>
</filter>
<mask id="mask0">
  <g filter="url(#alpha)">
<rect x="0" y="0" width="22" height="22" style="fill:rgb(0%,0%,0%);fill-opacity:0.3;stroke:none;"/>
  </g>
</mask>
<clipPath id="clip1">
  <rect x="0" y="0" width="22" height="22"/>
</clipPath>
<g id="surface5" clip-path="url(#clip1)">
<path style=" stroke:none;fill-rule:nonzero;fill:rgb(87.450981%,87.450981%,87.450981%);fill-opacity:0.3;" d="M 7.21875 6.875 C 7.027344 6.875 6.875 7.027344 6.875 7.21875 L 6.875 18.90625 C 6.875 19.097656 7.027344 19.25 7.21875 19.25 L 18.90625 19.25 C 19.097656 19.25 19.25 19.097656 19.25 18.90625 L 19.25 7.21875 C 19.25 7.027344 19.097656 6.875 18.90625 6.875 Z M 0.34375 17.875 C 0.152344 17.875 0 18.027344 0 18.21875 L 0 18.90625 C 0 19.097656 0.152344 19.25 0.34375 19.25 L 2.40625 19.25 C 2.597656 19.25 2.75 19.097656 2.75 18.90625 L 2.75 18.21875 C 2.75 18.027344 2.597656 17.875 2.40625 17.875 Z M 0.34375 12.375 C 0.152344 12.375 0 12.527344 0 12.71875 L 0 13.40625 C 0 13.597656 0.152344 13.75 0.34375 13.75 L 2.40625 13.75 C 2.597656 13.75 2.75 13.597656 2.75 13.40625 L 2.75 12.71875 C 2.75 12.527344 2.597656 12.375 2.40625 12.375 Z M 0.34375 6.875 C 0.152344 6.875 0 7.027344 0 7.21875 L 0 7.90625 C 0 8.097656 0.152344 8.25 0.34375 8.25 L 2.40625 8.25 C 2.597656 8.25 2.75 8.097656 2.75 7.90625 L 2.75 7.21875 C 2.75 7.027344 2.597656 6.875 2.40625 6.875 Z M 7.21875 0 C 7.027344 0 6.875 0.152344 6.875 0.34375 L 6.875 2.40625 C 6.875 2.597656 7.027344 2.75 7.21875 2.75 L 7.90625 2.75 C 8.097656 2.75 8.25 2.597656 8.25 2.40625 L 8.25 0.34375 C 8.25 0.152344 8.097656 0 7.90625 0 Z M 12.71875 0 C 12.527344 0 12.375 0.152344 12.375 0.34375 L 12.375 2.40625 C 12.375 2.597656 12.527344 2.75 12.71875 2.75 L 13.40625 2.75 C 13.597656 2.75 13.75 2.597656 13.75 2.40625 L 13.75 0.34375 C 13.75 0.152344 13.597656 0 13.40625 0 Z M 18.21875 0 C 18.027344 0 17.875 0.152344 17.875 0.34375 L 17.875 2.40625 C 17.875 2.597656 18.027344 2.75 18.21875 2.75 L 18.90625 2.75 C 19.097656 2.75 19.25 2.597656 19.25 2.40625 L 19.25 0.34375 C 19.25 0.152344 19.097656 0 18.90625 0 Z M 18.21875 0 "/>
</g>
</defs>
<g id="surface1">
<path style=" stroke:none;fill-rule:nonzero;fill:rgb(87.450981%,87.450981%,87.450981%);fill-opacity:1;" d="M 4.46875 2.75 C 3.515625 2.75 2.75 3.515625 2.75 4.46875 L 2.75 5.535156 C 3.535156 5.695312 4.125 6.382812 4.125 7.21875 L 4.125 7.90625 C 4.125 8.742188 3.535156 9.429688 2.75 9.589844 L 2.75 11.035156 C 3.535156 11.195312 4.125 11.882812 4.125 12.71875 L 4.125 13.40625 C 4.125 14.242188 3.535156 14.929688 2.75 15.089844 L 2.75 16.535156 C 3.535156 16.695312 4.125 17.382812 4.125 18.21875 L 4.125 18.90625 C 4.125 19.730469 3.550781 20.410156 2.78125 20.582031 C 2.921875 21.390625 3.621094 22 4.46875 22 L 20.28125 22 C 21.234375 22 22 21.234375 22 20.28125 L 22 4.46875 C 22 3.632812 21.40625 2.941406 20.617188 2.785156 C 20.597656 3.53125 20 4.125 19.25 4.125 L 17.875 4.125 C 17.113281 4.125 16.5 3.511719 16.5 2.75 L 15.125 2.75 C 15.125 3.511719 14.511719 4.125 13.75 4.125 L 12.375 4.125 C 11.613281 4.125 11 3.511719 11 2.75 L 9.625 2.75 C 9.625 3.511719 9.011719 4.125 8.25 4.125 L 6.875 4.125 C 6.113281 4.125 5.5 3.511719 5.5 2.75 Z M 6.875 5.5 L 19.25 5.5 C 20.011719 5.5 20.625 6.113281 20.625 6.875 L 20.625 19.25 C 20.625 20.011719 20.011719 20.625 19.25 20.625 L 6.875 20.625 C 6.113281 20.625 5.5 20.011719 5.5 19.25 L 5.5 6.875 C 5.5 6.113281 6.113281 5.5 6.875 5.5 Z M 6.875 5.5 "/>
<use xlink:href="#surface5" mask="url(#mask0)"/>
</g>
</svg>
