
<svg xmlns="http://www.w3.org/2000/svg" xmlns:xlink="http://www.w3.org/1999/xlink" width="22px" height="22px" viewBox="0 0 22 22" version="1.1">
<defs>
<filter id="alpha" filterUnits="objectBoundingBox" x="0%" y="0%" width="100%" height="100%">
  <feColorMatrix type="matrix" in="SourceGraphic" values="0 0 0 0 1 0 0 0 0 1 0 0 0 0 1 0 0 0 1 0"/>
</filter>
<mask id="mask0">
  <g filter="url(#alpha)">
<rect x="0" y="0" width="22" height="22" style="fill:rgb(0%,0%,0%);fill-opacity:0.3;stroke:none;"/>
  </g>
</mask>
<clipPath id="clip1">
  <rect x="0" y="0" width="22" height="22"/>
</clipPath>
<g id="surface5" clip-path="url(#clip1)">
<path style=" stroke:none;fill-rule:evenodd;fill:rgb(87.450981%,87.450981%,87.450981%);fill-opacity:1;" d="M 0.75 1.269531 L 0.804688 16.621094 L 21.222656 16.605469 L 21.042969 1.398438 Z M 0.75 1.269531 "/>
</g>
</defs>
<g id="surface1">
<use xlink:href="#surface5" mask="url(#mask0)"/>
<path style=" stroke:none;fill-rule:evenodd;fill:rgb(87.450981%,87.450981%,87.450981%);fill-opacity:1;" d="M 7.128906 18.824219 L 14.871094 18.824219 L 14.871094 22 L 7.128906 22 Z M 2.75 0 C 0 0 0 2.75 0 2.75 L 0 15.125 C 0 15.125 0 17.875 2.75 17.875 L 19.25 17.875 C 19.25 17.875 22 17.875 22 15.125 L 22 2.75 C 22 2.75 22 0 19.25 0 Z M 1.054688 1.480469 L 1.054688 16.394531 L 20.945312 16.394531 L 20.945312 1.480469 Z M 7.398438 11.328125 C 7.398438 10.777344 7.507812 10.285156 7.722656 9.855469 C 7.941406 9.425781 8.261719 9.054688 8.6875 8.742188 C 8.359375 8.4375 8.09375 8.101562 7.898438 7.730469 C 7.695312 7.359375 7.597656 6.921875 7.597656 6.425781 C 7.597656 5.472656 7.921875 4.667969 8.566406 4.007812 C 9.226562 3.339844 10.03125 3.007812 10.980469 3.007812 C 11.9375 3.007812 12.742188 3.339844 13.390625 4.007812 C 14.046875 4.679688 14.375 5.484375 14.375 6.425781 C 14.375 6.671875 14.347656 6.902344 14.292969 7.117188 C 14.238281 7.332031 14.164062 7.535156 14.066406 7.726562 C 13.972656 7.914062 13.855469 8.097656 13.722656 8.265625 C 13.585938 8.433594 13.441406 8.59375 13.285156 8.742188 C 14.144531 9.363281 14.574219 10.222656 14.574219 11.328125 C 14.574219 11.84375 14.484375 12.320312 14.304688 12.746094 C 14.125 13.179688 13.859375 13.558594 13.503906 13.894531 C 13.15625 14.203125 12.769531 14.445312 12.34375 14.613281 C 11.917969 14.78125 11.464844 14.867188 10.980469 14.867188 C 10 14.867188 9.160156 14.542969 8.460938 13.894531 C 7.75 13.226562 7.398438 12.371094 7.398438 11.328125 Z M 9.226562 11.316406 C 9.226562 11.5625 9.273438 11.789062 9.367188 12 C 9.460938 12.207031 9.585938 12.390625 9.75 12.546875 C 10.109375 12.875 10.519531 13.039062 10.980469 13.039062 C 11.445312 13.039062 11.855469 12.875 12.214844 12.546875 C 12.386719 12.386719 12.519531 12.203125 12.609375 11.996094 C 12.699219 11.789062 12.746094 11.5625 12.746094 11.316406 C 12.746094 10.8125 12.570312 10.402344 12.214844 10.082031 C 11.867188 9.75 11.457031 9.582031 10.980469 9.582031 C 10.519531 9.582031 10.109375 9.75 9.75 10.082031 C 9.402344 10.402344 9.226562 10.8125 9.226562 11.316406 Z M 9.433594 6.390625 C 9.433594 6.90625 9.589844 7.292969 9.902344 7.550781 C 10.230469 7.816406 10.589844 7.945312 10.980469 7.945312 C 11.375 7.945312 11.730469 7.816406 12.054688 7.550781 C 12.375 7.289062 12.539062 6.902344 12.539062 6.390625 C 12.539062 5.890625 12.375 5.511719 12.054688 5.246094 C 11.746094 4.980469 11.390625 4.84375 10.980469 4.84375 C 10.585938 4.84375 10.222656 4.980469 9.902344 5.246094 C 9.589844 5.503906 9.433594 5.886719 9.433594 6.390625 Z M 9.433594 6.390625 "/>
</g>
</svg>
