
<svg xmlns="http://www.w3.org/2000/svg" xmlns:xlink="http://www.w3.org/1999/xlink" width="22px" height="22px" viewBox="0 0 22 22" version="1.1">
<defs>
<filter id="alpha" filterUnits="objectBoundingBox" x="0%" y="0%" width="100%" height="100%">
  <feColorMatrix type="matrix" in="SourceGraphic" values="0 0 0 0 1 0 0 0 0 1 0 0 0 0 1 0 0 0 1 0"/>
</filter>
<mask id="mask0">
  <g filter="url(#alpha)">
<rect x="0" y="0" width="22" height="22" style="fill:rgb(0%,0%,0%);fill-opacity:0.3;stroke:none;"/>
  </g>
</mask>
<clipPath id="clip1">
  <rect x="0" y="0" width="22" height="22"/>
</clipPath>
<g id="surface5" clip-path="url(#clip1)">
<path style=" stroke:none;fill-rule:nonzero;fill:rgb(87.450981%,87.450981%,87.450981%);fill-opacity:1;" d="M 16.710938 11 C 16.710938 14.152344 14.152344 16.710938 11 16.710938 C 7.847656 16.710938 5.289062 14.152344 5.289062 11 C 5.289062 7.847656 7.847656 5.289062 11 5.289062 C 14.152344 5.289062 16.710938 7.847656 16.710938 11 Z M 16.710938 11 "/>
</g>
</defs>
<g id="surface1">
<path style=" stroke:none;fill-rule:nonzero;fill:rgb(87.450981%,87.450981%,87.450981%);fill-opacity:1;" d="M 11 1.375 C 5.71875 1.375 1.375 5.71875 1.375 11 C 1.375 16.28125 5.71875 20.625 11 20.625 C 16.28125 20.625 20.625 16.28125 20.625 11 C 20.625 5.71875 16.28125 1.375 11 1.375 Z M 11 3.574219 C 15.074219 3.574219 18.425781 6.925781 18.425781 11 C 18.425781 15.074219 15.074219 18.425781 11 18.425781 C 6.925781 18.425781 3.574219 15.074219 3.574219 11 C 3.574219 6.925781 6.925781 3.574219 11 3.574219 Z M 11 3.574219 "/>
<use xlink:href="#surface5" mask="url(#mask0)"/>
</g>
</svg>
