
<svg xmlns="http://www.w3.org/2000/svg" xmlns:xlink="http://www.w3.org/1999/xlink" width="22px" height="22px" viewBox="0 0 22 22" version="1.1">
<defs>
<filter id="alpha" filterUnits="objectBoundingBox" x="0%" y="0%" width="100%" height="100%">
  <feColorMatrix type="matrix" in="SourceGraphic" values="0 0 0 0 1 0 0 0 0 1 0 0 0 0 1 0 0 0 1 0"/>
</filter>
<mask id="mask0">
  <g filter="url(#alpha)">
<rect x="0" y="0" width="22" height="22" style="fill:rgb(0%,0%,0%);fill-opacity:0.3;stroke:none;"/>
  </g>
</mask>
<clipPath id="clip1">
  <rect x="0" y="0" width="22" height="22"/>
</clipPath>
<g id="surface5" clip-path="url(#clip1)">
<path style=" stroke:none;fill-rule:nonzero;fill:rgb(87.450981%,87.450981%,87.450981%);fill-opacity:0.3;" d="M 6.875 1.375 L 15.125 1.375 C 15.886719 1.375 16.5 1.988281 16.5 2.75 L 16.5 17.875 C 16.5 18.636719 15.886719 19.25 15.125 19.25 L 6.875 19.25 C 6.113281 19.25 5.5 18.636719 5.5 17.875 L 5.5 2.75 C 5.5 1.988281 6.113281 1.375 6.875 1.375 Z M 6.875 1.375 "/>
</g>
</defs>
<g id="surface1">
<use xlink:href="#surface5" mask="url(#mask0)"/>
<path style=" stroke:none;fill-rule:nonzero;fill:rgb(87.450981%,87.450981%,87.450981%);fill-opacity:1;" d="M 6.875 1.375 L 15.125 1.375 C 15.886719 1.375 16.5 1.988281 16.5 2.75 L 16.5 17.875 C 16.5 18.636719 15.886719 19.25 15.125 19.25 L 6.875 19.25 C 6.113281 19.25 5.5 18.636719 5.5 17.875 L 5.5 2.75 C 5.5 1.988281 6.113281 1.375 6.875 1.375 Z M 6.875 2.75 L 6.875 17.875 L 15.125 17.875 L 15.125 2.75 Z M 20.28125 16.5 C 20.472656 16.5 20.625 16.652344 20.625 16.84375 L 20.625 17.53125 C 20.625 17.722656 20.472656 17.875 20.28125 17.875 L 17.875 17.875 L 17.875 16.5 Z M 1.71875 16.5 C 1.527344 16.5 1.375 16.652344 1.375 16.84375 L 1.375 17.53125 C 1.375 17.722656 1.527344 17.875 1.71875 17.875 L 4.125 17.875 L 4.125 16.5 Z M 20.28125 13.75 C 20.472656 13.75 20.625 13.902344 20.625 14.09375 L 20.625 14.78125 C 20.625 14.972656 20.472656 15.125 20.28125 15.125 L 17.875 15.125 L 17.875 13.75 Z M 1.71875 13.75 C 1.527344 13.75 1.375 13.902344 1.375 14.09375 L 1.375 14.78125 C 1.375 14.972656 1.527344 15.125 1.71875 15.125 L 4.125 15.125 L 4.125 13.75 Z M 20.28125 11 C 20.472656 11 20.625 11.152344 20.625 11.34375 L 20.625 12.03125 C 20.625 12.222656 20.472656 12.375 20.28125 12.375 L 17.875 12.375 L 17.875 11 Z M 1.71875 11 C 1.527344 11 1.375 11.152344 1.375 11.34375 L 1.375 12.03125 C 1.375 12.222656 1.527344 12.375 1.71875 12.375 L 4.125 12.375 L 4.125 11 Z M 20.28125 8.25 C 20.472656 8.25 20.625 8.402344 20.625 8.59375 L 20.625 9.28125 C 20.625 9.472656 20.472656 9.625 20.28125 9.625 L 17.875 9.625 L 17.875 8.25 Z M 1.71875 8.25 C 1.527344 8.25 1.375 8.402344 1.375 8.59375 L 1.375 9.28125 C 1.375 9.472656 1.527344 9.625 1.71875 9.625 L 4.125 9.625 L 4.125 8.25 Z M 20.28125 5.5 C 20.472656 5.5 20.625 5.652344 20.625 5.84375 L 20.625 6.53125 C 20.625 6.722656 20.472656 6.875 20.28125 6.875 L 17.875 6.875 L 17.875 5.5 Z M 1.71875 5.5 C 1.527344 5.5 1.375 5.652344 1.375 5.84375 L 1.375 6.53125 C 1.375 6.722656 1.527344 6.875 1.71875 6.875 L 4.125 6.875 L 4.125 5.5 Z M 20.28125 2.75 C 20.472656 2.75 20.625 2.902344 20.625 3.09375 L 20.625 3.78125 C 20.625 3.972656 20.472656 4.125 20.28125 4.125 L 17.875 4.125 L 17.875 2.75 Z M 1.71875 2.75 C 1.527344 2.75 1.375 2.902344 1.375 3.09375 L 1.375 3.78125 C 1.375 3.972656 1.527344 4.125 1.71875 4.125 L 4.125 4.125 L 4.125 2.75 Z M 1.71875 2.75 "/>
</g>
</svg>
