
<svg xmlns="http://www.w3.org/2000/svg" xmlns:xlink="http://www.w3.org/1999/xlink" width="22px" height="22px" viewBox="0 0 22 22" version="1.1">
<defs>
<filter id="alpha" filterUnits="objectBoundingBox" x="0%" y="0%" width="100%" height="100%">
  <feColorMatrix type="matrix" in="SourceGraphic" values="0 0 0 0 1 0 0 0 0 1 0 0 0 0 1 0 0 0 1 0"/>
</filter>
<mask id="mask0">
  <g filter="url(#alpha)">
<rect x="0" y="0" width="22" height="22" style="fill:rgb(0%,0%,0%);fill-opacity:0.3;stroke:none;"/>
  </g>
</mask>
<clipPath id="clip1">
  <rect x="0" y="0" width="22" height="22"/>
</clipPath>
<g id="surface5" clip-path="url(#clip1)">
<path style=" stroke:none;fill-rule:nonzero;fill:rgb(87.450981%,87.450981%,87.450981%);fill-opacity:1;" d="M 12.378906 4.734375 L 5.398438 11.71875 C 6.480469 12.144531 7.496094 12.808594 8.355469 13.671875 C 9.214844 14.535156 9.878906 15.546875 10.304688 16.632812 L 17.285156 9.644531 Z M 12.378906 4.734375 "/>
</g>
</defs>
<g id="surface1">
<use xlink:href="#surface5" mask="url(#mask0)"/>
<path style=" stroke:none;fill-rule:nonzero;fill:rgb(87.450981%,87.450981%,87.450981%);fill-opacity:1;" d="M 2.605469 12.324219 C 2.355469 12.328125 2.109375 12.347656 1.863281 12.390625 C 1.582031 12.433594 1.375 12.675781 1.375 12.960938 C 1.375 13.117188 1.4375 13.261719 1.546875 13.371094 C 3.03125 16.605469 5.386719 18.964844 8.621094 20.453125 C 8.726562 20.5625 8.875 20.625 9.03125 20.625 C 9.3125 20.625 9.558594 20.414062 9.601562 20.136719 C 9.917969 18.171875 9.113281 16.035156 7.539062 14.457031 C 6.160156 13.078125 4.351562 12.285156 2.605469 12.324219 Z M 16.535156 16.9375 L 14.898438 18.574219 L 16.535156 20.210938 L 18.171875 18.574219 Z M 14.082031 14.484375 L 12.445312 16.117188 L 14.082031 17.757812 L 15.71875 16.117188 Z M 18.988281 14.484375 L 17.351562 16.117188 L 18.988281 17.757812 L 20.625 16.117188 Z M 16.535156 12.023438 L 14.898438 13.664062 L 16.535156 15.300781 L 18.171875 13.664062 Z M 5.902344 6.285156 L 4.269531 7.921875 L 5.902344 9.558594 L 7.539062 7.921875 Z M 15.667969 5.117188 L 14.710938 6.074219 L 15.9375 7.300781 L 16.894531 6.34375 C 16.371094 6.070312 15.945312 5.640625 15.667969 5.117188 Z M 8.355469 3.832031 L 6.722656 5.46875 L 8.355469 7.105469 L 9.992188 5.46875 Z M 3.449219 3.832031 L 1.8125 5.46875 L 3.449219 7.105469 L 5.085938 5.46875 Z M 18.550781 1.050781 L 18.546875 1.050781 C 17.226562 1.050781 16.140625 2.140625 16.140625 3.460938 C 16.140625 4.785156 17.226562 5.871094 18.546875 5.871094 L 18.550781 5.871094 C 19.871094 5.871094 20.960938 4.785156 20.960938 3.460938 C 20.960938 2.140625 19.871094 1.050781 18.550781 1.050781 Z M 5.902344 1.375 L 4.269531 3.011719 L 5.902344 4.648438 L 7.539062 3.011719 Z M 5.902344 1.375 "/>
</g>
</svg>
