<svg xmlns="http://www.w3.org/2000/svg" style="clip-rule:evenodd;fill-rule:evenodd;stroke-linejoin:round;stroke-miterlimit:2" version="1.1" viewBox="-3 -3 22 22">
 <defs>
  <style id="current-color-scheme" type="text/css">
   .ColorScheme-Text { color:#dfdfdf; } .ColorScheme-Highlight { color:#4285f4; } .ColorScheme-NeutralText { color:#ff9800; } .ColorScheme-PositiveText { color:#4caf50; } .ColorScheme-NegativeText { color:#f44336; }
  </style>
 </defs>
 <path style="fill-rule:nonzero;fill:currentColor;" class="ColorScheme-Text" d="m8 1c-2.209 0-4 1.791-4 4 1e-3 0.013 1e-3 0.026 2e-3 0.039-1.722 0.247-3 1.721-3.002 3.461 0 1.599 1.484 3.209 3.073 3.44 0.187 0.027 0.969 0.075 0.969 0.075 0.07 0.244 0.198 0.558 0.037 1.2-0.147 0.588-0.526 0.974-0.934 1.328-0.104 0.055-0.181 0.119-0.174 0.142 0.025 0.077 0.983 0.581 1.934 0.151 1.733-0.785 2.095-2.811 2.095-2.811l4-0.025c1.657 0 3-1.343 3-3s-1.343-3-3-3c-0.044 1e-3 -0.089 3e-3 -0.133 6e-3 0.087-0.329 0.132-0.667 0.133-1.006 0-2.209-1.791-4-4-4z"/>
</svg>
