
<svg xmlns="http://www.w3.org/2000/svg" xmlns:xlink="http://www.w3.org/1999/xlink" width="22px" height="22px" viewBox="0 0 22 22" version="1.1">
<g id="surface1">
<path style=" stroke:none;fill-rule:nonzero;fill:rgb(87.450981%,87.450981%,87.450981%);fill-opacity:1;" d="M 20.105469 1.378906 C 19.941406 1.363281 19.691406 1.398438 19.226562 1.519531 C 18.304688 1.753906 18.105469 1.828125 18.117188 2.027344 C 18.121094 2.140625 18.183594 2.242188 18.347656 2.425781 L 17.667969 3.101562 L 17.484375 2.917969 C 17.433594 2.867188 17.367188 2.84375 17.300781 2.84375 C 17.234375 2.84375 17.167969 2.867188 17.117188 2.917969 L 16.851562 3.179688 L 18.839844 5.128906 L 19.085938 4.886719 C 19.1875 4.785156 19.1875 4.621094 19.085938 4.519531 L 18.90625 4.339844 L 19.585938 3.660156 C 19.761719 3.816406 19.859375 3.871094 19.976562 3.886719 C 20.171875 3.910156 20.21875 3.675781 20.464844 2.757812 C 20.710938 1.847656 20.648438 1.78125 20.4375 1.570312 C 20.335938 1.46875 20.265625 1.394531 20.105469 1.378906 Z M 16.421875 3.609375 L 10.765625 9.269531 L 12.730469 11.238281 L 18.410156 5.558594 Z M 9.066406 9.628906 C 8.996094 9.628906 8.929688 9.652344 8.875 9.707031 L 2.824219 15.753906 C 2.71875 15.859375 2.71875 16.027344 2.824219 16.132812 L 5.859375 19.167969 C 5.964844 19.273438 6.136719 19.273438 6.246094 19.167969 L 12.292969 13.121094 C 12.398438 13.015625 12.398438 12.84375 12.292969 12.738281 L 9.257812 9.707031 C 9.203125 9.652344 9.136719 9.628906 9.066406 9.628906 Z M 2.121094 17.371094 L 1.570312 17.921875 C 1.308594 18.183594 1.308594 18.597656 1.570312 18.855469 L 3.144531 20.429688 C 3.402344 20.691406 3.820312 20.691406 4.078125 20.429688 L 4.628906 19.882812 Z M 2.121094 17.371094 "/>
<path style=" stroke:none;fill-rule:nonzero;fill:rgb(87.450981%,87.450981%,87.450981%);fill-opacity:1;" d="M 15.125 13.75 L 20.625 13.75 C 21.382812 13.75 22 14.367188 22 15.125 L 22 20.625 C 22 21.382812 21.382812 22 20.625 22 L 15.125 22 C 14.367188 22 13.75 21.382812 13.75 20.625 L 13.75 15.125 C 13.75 14.367188 14.367188 13.75 15.125 13.75 Z M 15.125 13.75 "/>
</g>
</svg>
