<svg xmlns="http://www.w3.org/2000/svg" style="clip-rule:evenodd;fill-rule:evenodd;stroke-linejoin:round;stroke-miterlimit:2" version="1.1" viewBox="-3 -3 22 22">
 <defs>
  <style id="current-color-scheme" type="text/css">
   .ColorScheme-Text { color:#dfdfdf; } .ColorScheme-Highlight { color:#4285f4; } .ColorScheme-NeutralText { color:#ff9800; } .ColorScheme-PositiveText { color:#4caf50; } .ColorScheme-NegativeText { color:#f44336; }
  </style>
 </defs>
 <path style="fill-opacity:.3;fill:currentColor;" class="ColorScheme-Text" d="m8.225 8.486c-1.662 0-3.014 1.352-3.014 3.014s1.352 3.014 3.014 3.014c1.661-0 3.013-1.352 3.013-3.014s-1.352-3.014-3.013-3.014z"/>
 <path style="fill:currentColor;" class="ColorScheme-Text" d="m7.764 9.179h1v5h-1v-3.5h-1v-0.5c1-0 1-1 1-1zm-2.739 3.739h-1.566c-1.357 0-2.459-1.102-2.459-2.459v-4.918c0-1.357 1.102-2.459 2.459-2.459h1.057v-1.792l4.447 2.323-4.447 2.322v-1.853h-1.057c-0.805 0-1.459 0.654-1.459 1.459v4.918c0 0.805 0.654 1.459 1.459 1.459h1.29c0.042 0.352 0.137 0.688 0.276 1zm6.675-1h0.841c0.805 0 1.459-0.654 1.459-1.459v-4.918c-0-0.805-0.654-1.459-1.459-1.459h-2.541v-1h2.541c1.357 0 2.459 1.102 2.459 2.459v4.918c-0 1.357-1.102 2.459-2.459 2.459h-1.117c0.139-0.312 0.234-0.648 0.276-1z"/>
</svg>
