<svg xmlns="http://www.w3.org/2000/svg" style="fill-rule:evenodd;clip-rule:evenodd;stroke-linejoin:round;stroke-miterlimit:2" width="100%" height="100%" version="1.1" viewBox="0 0 22 22" xml:space="preserve">
 <defs>
  <style id="current-color-scheme" type="text/css">
   .ColorScheme-Text { color:#dfdfdf; } .ColorScheme-Highlight { color:#4285f4; } .ColorScheme-NeutralText { color:#ff9800; } .ColorScheme-PositiveText { color:#4caf50; } .ColorScheme-NegativeText { color:#f44336; }
  </style>
 </defs>
 <path style="fill:currentColor;" class="ColorScheme-Text" d="M16.363,11c-1.295,0 -2.337,1.065 -2.337,2.374l-0,1.132l-0.417,0c-0.415,0 -0.752,0.337 -0.752,0.752l0,3.172c0,0.2 0.08,0.39 0.22,0.532c0.141,0.14 0.332,0.219 0.532,0.219l5.51,0c0.199,0 0.389,-0.079 0.531,-0.219c0.14,-0.142 0.22,-0.332 0.22,-0.532l-0,-3.172c-0,-0.415 -0.337,-0.752 -0.751,-0.752l-0.418,0l-0,-1.132c-0,-1.309 -1.043,-2.374 -2.338,-2.374Zm-11.411,2.558l-0,-0.798c-0,-0.622 0.246,-1.218 0.687,-1.657c0.439,-0.441 1.035,-0.687 1.657,-0.687l3.12,-0l-0,-2.229l-0.782,-0c-0.754,-0 -1.365,-0.611 -1.365,-1.365l-0,-2.733c-0,-0.754 0.611,-1.365 1.365,-1.365l2.732,0c0.754,0 1.365,0.611 1.365,1.365l0,2.733c0,0.754 -0.611,1.365 -1.365,1.365l-0.782,-0l0,2.229l2.106,-0l-0.011,1.168l-6.383,0c-0.312,0 -0.61,0.124 -0.831,0.345c-0.221,0.22 -0.345,0.519 -0.345,0.831l0,0.798l0.782,0c0.754,0 1.365,0.612 1.365,1.365l0,2.733c0,0.754 -0.611,1.365 -1.365,1.365l-2.732,0c-0.754,0 -1.365,-0.611 -1.365,-1.365l-0,-2.733c-0,-0.753 0.611,-1.365 1.365,-1.365l0.782,0Zm11.411,-1.389c0.648,-0 1.169,0.516 1.169,1.169l0,1.168l-2.337,0l-0,-1.168c-0,-0.653 0.521,-1.169 1.168,-1.169Z"/>
</svg>
