<svg xmlns="http://www.w3.org/2000/svg" style="fill-rule:evenodd;clip-rule:evenodd;stroke-linejoin:round;stroke-miterlimit:2" width="100%" height="100%" version="1.1" viewBox="0 0 22 22" xml:space="preserve">
 <defs>
  <style id="current-color-scheme" type="text/css">
   .ColorScheme-Text { color:#dfdfdf; } .ColorScheme-Highlight { color:#4285f4; } .ColorScheme-NeutralText { color:#ff9800; } .ColorScheme-PositiveText { color:#4caf50; } .ColorScheme-NegativeText { color:#f44336; }
  </style>
 </defs>
 <path style="fill:currentColor;" class="ColorScheme-Text" d="M18.179,14.535c-0.001,-0.681 -0.553,-1.234 -1.234,-1.234l-2.473,-0c-0.68,-0 -1.234,0.553 -1.234,1.234l0,2.471c0,0.682 0.554,1.235 1.234,1.235l2.472,-0c0.682,-0 1.234,-0.553 1.234,-1.235l0,-2.471l0.001,0Zm-9.66,0c-0,-0.681 -0.553,-1.234 -1.234,-1.234l-2.472,-0c-0.682,-0 -1.234,0.553 -1.234,1.234l-0,2.471c-0,0.682 0.552,1.235 1.234,1.235l2.472,-0c0.681,-0 1.234,-0.553 1.234,-1.235l-0,-2.471Zm2.223,1.534c0.278,-0 0.519,0.089 0.709,0.279c0.178,0.19 0.279,0.419 0.279,0.71c-0,0.292 -0.101,0.52 -0.279,0.698c-0.19,0.19 -0.431,0.279 -0.709,0.279c-0.267,-0 -0.508,-0.089 -0.699,-0.279c-0.189,-0.178 -0.291,-0.406 -0.291,-0.698c0,-0.291 0.102,-0.52 0.291,-0.71c0.191,-0.19 0.432,-0.279 0.699,-0.279Zm0.126,-6.684c0.329,0 0.634,0.051 0.926,0.152c0.291,0.115 0.545,0.254 0.761,0.444c0.216,0.191 0.38,0.419 0.507,0.686c0.114,0.266 0.177,0.558 0.177,0.874c0,0.216 -0.025,0.406 -0.076,0.572c-0.063,0.177 -0.139,0.341 -0.24,0.494c-0.102,0.165 -0.217,0.317 -0.356,0.456l-1.116,1.053c-0.164,0.178 -0.241,0.368 -0.241,0.584c-0,0.063 -0,0.126 0.013,0.19c0.012,0.05 0.012,0.101 0.026,0.152l-1.142,-0c-0.089,-0.19 -0.127,-0.38 -0.127,-0.584c0,-0.152 0.025,-0.291 0.089,-0.431c0.063,-0.139 0.139,-0.266 0.229,-0.392c0.088,-0.115 0.202,-0.229 0.316,-0.343c0.114,-0.114 0.241,-0.216 0.368,-0.33c0.139,-0.127 0.267,-0.241 0.381,-0.355c0.114,-0.102 0.202,-0.203 0.266,-0.304c0.076,-0.089 0.14,-0.19 0.178,-0.305c0.038,-0.101 0.05,-0.215 0.05,-0.342c0,-0.317 -0.101,-0.571 -0.304,-0.761c-0.203,-0.19 -0.444,-0.279 -0.723,-0.279c-0.57,0 -0.989,0.367 -1.231,1.091l-1.115,-0.482c0.164,-0.609 0.456,-1.066 0.875,-1.37c0.431,-0.318 0.926,-0.47 1.509,-0.47Zm2.592,-4.646c-0,-0.682 -0.554,-1.235 -1.235,-1.235l-2.471,0c-0.682,0 -1.234,0.553 -1.234,1.235l-0,2.471c-0,0.682 0.552,1.234 1.234,1.234l2.471,0c0.681,0 1.235,-0.552 1.235,-1.234l-0,-2.471Z"/>
</svg>
