
<svg xmlns="http://www.w3.org/2000/svg" xmlns:xlink="http://www.w3.org/1999/xlink" width="22px" height="22px" viewBox="0 0 22 22" version="1.1">
<defs>
<filter id="alpha" filterUnits="objectBoundingBox" x="0%" y="0%" width="100%" height="100%">
  <feColorMatrix type="matrix" in="SourceGraphic" values="0 0 0 0 1 0 0 0 0 1 0 0 0 0 1 0 0 0 1 0"/>
</filter>
<mask id="mask0">
  <g filter="url(#alpha)">
<rect x="0" y="0" width="22" height="22" style="fill:rgb(0%,0%,0%);fill-opacity:0.3;stroke:none;"/>
  </g>
</mask>
<clipPath id="clip1">
  <rect x="0" y="0" width="22" height="22"/>
</clipPath>
<g id="surface5" clip-path="url(#clip1)">
<path style=" stroke:none;fill-rule:nonzero;fill:rgb(87.450981%,87.450981%,87.450981%);fill-opacity:1;" d="M 20.625 1.390625 L 1.375 20.640625 L 12.375 20.640625 L 12.375 15.140625 L 13.769531 15.140625 C 13.796875 12.882812 15.613281 11.015625 17.875 11.015625 C 18.9375 11.015625 19.898438 11.441406 20.625 12.113281 Z M 20.625 1.390625 "/>
</g>
</defs>
<g id="surface1">
<use xlink:href="#surface5" mask="url(#mask0)"/>
<path style=" stroke:none;fill-rule:nonzero;fill:rgb(87.450981%,87.450981%,87.450981%);fill-opacity:1;" d="M 12.375 9.640625 L 1.375 20.640625 L 12.375 20.640625 Z M 12.375 9.640625 "/>
<path style=" stroke:none;fill-rule:nonzero;fill:rgb(87.450981%,87.450981%,87.450981%);fill-opacity:1;" d="M 17.875 12.375 C 16.351562 12.375 15.125 13.625 15.125 15.167969 L 15.125 16.5 L 13.75 16.5 L 13.75 22 L 22 22 L 22 16.5 L 20.625 16.5 L 20.625 15.167969 C 20.625 13.625 19.398438 12.375 17.875 12.375 Z M 17.875 13.75 C 18.636719 13.75 19.25 14.355469 19.25 15.125 L 19.25 16.5 L 16.5 16.5 L 16.5 15.125 C 16.5 14.355469 17.113281 13.75 17.875 13.75 Z M 17.875 13.75 "/>
</g>
</svg>
