<svg xmlns="http://www.w3.org/2000/svg" style="clip-rule:evenodd;fill-rule:evenodd;stroke-linejoin:round;stroke-miterlimit:2" version="1.1" viewBox="-3 -3 22 22">
 <defs>
  <style id="current-color-scheme" type="text/css">
   .ColorScheme-Text { color:#dfdfdf; } .ColorScheme-Highlight { color:#4285f4; } .ColorScheme-NeutralText { color:#ff9800; } .ColorScheme-PositiveText { color:#4caf50; } .ColorScheme-NegativeText { color:#f44336; }
  </style>
 </defs>
 <path style="fill:currentColor;" class="ColorScheme-Text" d="m11 11v1c0 0.28 0.1 0.54 0.28 0.72l0.78 0.78-0.78 0.78c-0.18 0.19-0.28 0.45-0.28 0.72v1h1c0.28 0 0.54-0.1 0.72-0.28l0.78-0.78 0.78 0.78c0.18 0.18 0.45 0.28 0.72 0.28h1v-1c0-0.27-0.1-0.53-0.28-0.72l-0.78-0.78 0.78-0.78c0.18-0.18 0.28-0.44 0.28-0.72v-1h-1c-0.27 0-0.54 0.1-0.72 0.28l-0.78 0.79-0.78-0.79c-0.18-0.18-0.44-0.28-0.72-0.28h-1z"/>
 <path style="fill-opacity:.3;fill:currentColor;" class="ColorScheme-Text" d="m4.5 1.836c1.91 0 3.6 1.2 4.24 3h7.26v3h-1v2h-3v-2h-3.26c-0.64 1.8-2.33 3-4.24 3-2.48 0-4.5-2.01-4.5-4.5s2.02-4.5 4.5-4.5zm0 1c-1.937 0-3.5 1.563-3.5 3.5s1.563 3.5 3.5 3.5 3.5-1.563 3.5-3.5-1.563-3.5-3.5-3.5z"/>
</svg>
