
<svg xmlns="http://www.w3.org/2000/svg" xmlns:xlink="http://www.w3.org/1999/xlink" width="22px" height="22px" viewBox="0 0 22 22" version="1.1">
<g id="surface1">
<path style=" stroke:none;fill-rule:nonzero;fill:rgb(87.450981%,87.450981%,87.450981%);fill-opacity:1;" d="M 13.546875 2.621094 C 11.820312 2.269531 9.625 -0.539062 9.625 1.222656 L 9.625 13.753906 C 8.980469 13.488281 8.277344 13.351562 7.5625 13.351562 C 4.90625 13.351562 2.75 15.199219 2.75 17.480469 C 2.75 19.765625 4.90625 21.613281 7.5625 21.613281 C 10.164062 21.609375 12.292969 19.832031 12.367188 17.601562 L 12.375 17.605469 C 12.375 17.566406 12.375 17.523438 12.375 17.480469 C 12.394531 14.675781 12.375 9.402344 12.375 6.121094 C 13.378906 6.515625 14.984375 6.460938 16.589844 8.28125 C 17.714844 9.558594 18.753906 11.734375 19.210938 11 C 19.972656 9.78125 18.894531 3.710938 13.546875 2.621094 Z M 13.546875 2.621094 "/>
</g>
</svg>
