
<svg xmlns="http://www.w3.org/2000/svg" xmlns:xlink="http://www.w3.org/1999/xlink" width="22px" height="22px" viewBox="0 0 22 22" version="1.1">
<defs>
<filter id="alpha" filterUnits="objectBoundingBox" x="0%" y="0%" width="100%" height="100%">
  <feColorMatrix type="matrix" in="SourceGraphic" values="0 0 0 0 1 0 0 0 0 1 0 0 0 0 1 0 0 0 1 0"/>
</filter>
<mask id="mask0">
  <g filter="url(#alpha)">
<rect x="0" y="0" width="22" height="22" style="fill:rgb(0%,0%,0%);fill-opacity:0.3;stroke:none;"/>
  </g>
</mask>
<clipPath id="clip1">
  <rect x="0" y="0" width="22" height="22"/>
</clipPath>
<g id="surface5" clip-path="url(#clip1)">
<path style=" stroke:none;fill-rule:nonzero;fill:rgb(87.450981%,87.450981%,87.450981%);fill-opacity:1;" d="M 2.40625 1.375 C 1.835938 1.375 1.375 1.835938 1.375 2.40625 L 1.375 11 L 20.625 11 L 20.625 2.40625 C 20.625 1.835938 20.164062 1.375 19.59375 1.375 Z M 5.5 4.125 C 6.257812 4.125 6.875 4.742188 6.875 5.5 C 6.875 6.257812 6.257812 6.875 5.5 6.875 C 4.742188 6.875 4.125 6.257812 4.125 5.5 C 4.125 4.742188 4.742188 4.125 5.5 4.125 Z M 16.5 4.125 C 17.257812 4.125 17.875 4.742188 17.875 5.5 C 17.875 6.257812 17.257812 6.875 16.5 6.875 C 15.742188 6.875 15.125 6.257812 15.125 5.5 C 15.125 4.742188 15.742188 4.125 16.5 4.125 Z M 8.25 6.875 C 11.074219 7.3125 13.75 6.875 13.75 6.875 C 13.75 8.394531 12.519531 9.625 11 9.625 C 9.480469 9.625 8.25 8.394531 8.25 6.875 Z M 8.25 6.875 "/>
</g>
</defs>
<g id="surface1">
<use xlink:href="#surface5" mask="url(#mask0)"/>
<path style=" stroke:none;fill-rule:nonzero;fill:rgb(87.450981%,87.450981%,87.450981%);fill-opacity:1;" d="M 1.375 11 L 1.375 19.59375 C 1.375 20.164062 1.835938 20.625 2.40625 20.625 L 19.59375 20.625 C 20.164062 20.625 20.625 20.164062 20.625 19.59375 L 20.625 11 Z M 5.5 12.375 C 6.261719 12.375 6.875 12.988281 6.875 13.75 L 6.875 17.875 C 6.875 18.636719 6.261719 19.25 5.5 19.25 C 4.738281 19.25 4.125 18.636719 4.125 17.875 L 4.125 13.75 C 4.125 12.988281 4.738281 12.375 5.5 12.375 Z M 11 12.375 C 11.761719 12.375 12.375 12.988281 12.375 13.75 L 12.375 17.875 C 12.375 18.636719 11.761719 19.25 11 19.25 C 10.238281 19.25 9.625 18.636719 9.625 17.875 L 9.625 13.75 C 9.625 12.988281 10.238281 12.375 11 12.375 Z M 16.5 12.375 C 17.261719 12.375 17.875 12.988281 17.875 13.75 L 17.875 17.875 C 17.875 18.636719 17.261719 19.25 16.5 19.25 C 15.738281 19.25 15.125 18.636719 15.125 17.875 L 15.125 13.75 C 15.125 12.988281 15.738281 12.375 16.5 12.375 Z M 16.5 12.375 "/>
</g>
</svg>
