
<svg xmlns="http://www.w3.org/2000/svg" xmlns:xlink="http://www.w3.org/1999/xlink" width="22px" height="22px" viewBox="0 0 22 22" version="1.1">
<g id="surface1">
<path style=" stroke:none;fill-rule:nonzero;fill:rgb(87.450981%,87.450981%,87.450981%);fill-opacity:1;" d="M 14.351562 1.375 C 14.25 1.367188 14.089844 1.441406 13.796875 1.578125 C 13.445312 1.738281 12.652344 1.867188 12.027344 1.867188 C 9.824219 1.917969 8.058594 2.71875 6.628906 4.226562 C 4.6875 6.289062 4.078125 8.886719 4.960938 11.296875 C 5.167969 11.851562 5.292969 12.417969 5.238281 12.550781 C 5.1875 12.6875 4.8125 13.0625 4.414062 13.382812 C 3.542969 14.085938 2.9375 15.21875 2.789062 16.4375 C 2.695312 17.167969 2.757812 17.519531 3.140625 18.386719 C 3.96875 20.257812 5.839844 21.058594 7.835938 20.398438 C 8.992188 20.011719 10.148438 18.648438 11.074219 16.582031 C 11.875 14.800781 11.910156 14.757812 12.769531 14.433594 C 14.214844 13.894531 15.125 13.296875 16.03125 12.292969 C 17.640625 10.511719 18.234375 8.210938 17.660156 6.007812 C 17.402344 5.019531 17.183594 4.679688 16.011719 3.417969 C 15.269531 2.621094 14.609375 1.8125 14.546875 1.621094 C 14.492188 1.464844 14.453125 1.382812 14.351562 1.375 Z M 13.988281 3.957031 C 14.269531 3.921875 14.628906 4.175781 15.128906 4.699219 C 17.121094 6.773438 16.917969 9.910156 14.671875 11.714844 C 13.71875 12.480469 13.492188 12.53125 12.828125 12.117188 C 12.445312 11.878906 12.371094 11.660156 12.375 10.78125 C 12.378906 9.441406 12.902344 6.15625 13.308594 4.90625 C 13.503906 4.300781 13.707031 3.988281 13.988281 3.957031 Z M 11.039062 4.125 C 11.710938 4.128906 12.226562 4.332031 12.367188 4.730469 C 12.414062 4.863281 12.21875 5.484375 11.933594 6.109375 C 11.195312 7.71875 10.960938 8.609375 10.515625 11.449219 C 9.960938 14.972656 9.359375 16.492188 8.152344 17.40625 C 7.386719 17.984375 6.449219 18.03125 5.949219 17.523438 C 5.515625 17.082031 5.394531 16.53125 5.59375 15.953125 C 5.753906 15.496094 6.367188 15.421875 7.527344 15.25 C 8.335938 15.132812 8.90625 14.570312 8.90625 13.839844 C 8.90625 13.375 8.71875 13.113281 8.089844 12.449219 C 7.121094 11.421875 6.234375 10.4375 6.230469 9.191406 C 6.222656 7.246094 7.179688 5.589844 8.808594 4.71875 C 9.554688 4.320312 10.371094 4.121094 11.039062 4.125 Z M 11.039062 4.125 "/>
</g>
</svg>
