
<svg xmlns="http://www.w3.org/2000/svg" xmlns:xlink="http://www.w3.org/1999/xlink" width="22px" height="22px" viewBox="0 0 22 22" version="1.1">
<defs>
<filter id="alpha" filterUnits="objectBoundingBox" x="0%" y="0%" width="100%" height="100%">
  <feColorMatrix type="matrix" in="SourceGraphic" values="0 0 0 0 1 0 0 0 0 1 0 0 0 0 1 0 0 0 1 0"/>
</filter>
<mask id="mask0">
  <g filter="url(#alpha)">
<rect x="0" y="0" width="22" height="22" style="fill:rgb(0%,0%,0%);fill-opacity:0.3;stroke:none;"/>
  </g>
</mask>
<clipPath id="clip1">
  <rect x="0" y="0" width="22" height="22"/>
</clipPath>
<g id="surface5" clip-path="url(#clip1)">
<path style=" stroke:none;fill-rule:nonzero;fill:rgb(87.450981%,87.450981%,87.450981%);fill-opacity:1;" d="M 2.445312 1.375 C 1.089844 1.375 0 2.449219 0 3.78125 L 0 18.21875 C 0 19.550781 1.089844 20.625 2.445312 20.625 L 19.554688 20.625 C 20.910156 20.625 22 19.550781 22 18.21875 L 22 3.78125 C 22 2.449219 20.910156 1.375 19.554688 1.375 Z M 2.445312 2.75 L 19.554688 2.75 C 20.140625 2.75 20.625 3.203125 20.625 3.78125 L 20.625 18.21875 C 20.625 18.796875 20.140625 19.25 19.554688 19.25 L 2.445312 19.25 C 1.859375 19.25 1.375 18.796875 1.375 18.21875 L 1.375 3.78125 C 1.375 3.203125 1.859375 2.75 2.445312 2.75 Z M 2.445312 2.75 "/>
</g>
</defs>
<g id="surface1">
<use xlink:href="#surface5" mask="url(#mask0)"/>
<path style=" stroke:none;fill-rule:nonzero;fill:rgb(87.450981%,87.450981%,87.450981%);fill-opacity:1;" d="M 18.839844 8.25 L 20.058594 8.25 L 20.058594 15.125 C 19.007812 15.03125 18.839844 14.660156 18.839844 13.976562 Z M 1.941406 9.625 L 3.160156 9.625 L 3.160156 15.125 C 2.109375 15.035156 1.941406 14.128906 1.941406 13.476562 Z M 10.191406 8.320312 L 11.410156 8.320312 L 11.410156 9.796875 L 12.632812 9.796875 L 12.632812 11 L 11.410156 11 L 11.410156 12.71875 C 11.410156 13.03125 11.476562 13.921875 11.808594 13.921875 L 12.632812 13.921875 L 12.632812 15.125 L 11.410156 15.125 C 10.273438 15.125 10.191406 13.71875 10.191406 12.957031 Z M 4.230469 9.625 L 7.285156 9.625 C 8.503906 9.613281 9.121094 10.578125 9.121094 11.273438 L 9.121094 15.125 L 7.898438 15.125 L 7.898438 11.273438 C 7.898438 10.984375 7.488281 10.726562 7.078125 10.726562 L 5.453125 10.726562 L 5.453125 15.125 L 4.230469 15.125 Z M 15.902344 9.625 C 17.378906 9.625 18.226562 10.785156 18.226562 12.308594 L 18.226562 12.925781 L 14.734375 12.925781 C 14.789062 13.542969 15.214844 13.992188 15.941406 13.992188 C 16.554688 13.992188 16.863281 13.824219 17.214844 13.484375 L 18.066406 14.28125 C 17.519531 14.804688 16.945312 15.121094 15.929688 15.121094 C 14.605469 15.121094 13.339844 14.417969 13.339844 12.367188 C 13.339844 10.613281 14.445312 9.625 15.902344 9.625 Z M 15.78125 10.726562 C 15.109375 10.726562 14.558594 11.222656 14.558594 11.824219 L 17.003906 11.824219 C 17.003906 11.222656 16.453125 10.726562 15.78125 10.726562 Z M 1.941406 7.046875 L 3.160156 7.046875 L 3.160156 8.25 L 1.941406 8.25 Z M 1.941406 7.046875 "/>
</g>
</svg>
