<svg xmlns="http://www.w3.org/2000/svg" viewBox="-3 -3 22 22">
 <defs>
  <style id="current-color-scheme" type="text/css">
   .ColorScheme-Text { color:#dfdfdf; } .ColorScheme-Highlight { color:#4285f4; } .ColorScheme-NeutralText { color:#ff9800; } .ColorScheme-PositiveText { color:#4caf50; } .ColorScheme-NegativeText { color:#f44336; }
  </style>
 </defs>
 <g fill="#dfdfdf">
  <path fill-opacity=".25" d="m1.732 1c-.042-.001-.082.001-.123.002-1.224.052-2.037 1.319-1.369 2.37l.064.064 10.75 1.182c.326.028.567.2.7.431.001.002.002.004.004.006.154.274.153.629-.057.932l-4.273 6.472-.583.809c-.259.311-.778.311-.972-.062l.584.996c.129.186.259.311.388.435.713.56 1.879.498 2.461-.373l6.411-9.396c.362-.507.353-1.109.097-1.596l.002-.002c-.006-.011-.013-.022-.019-.033s-.011-.023-.018-.033c-.005-.009-.012-.017-.017-.026-.259-.424-.712-.744-1.276-.801l-12.627-1.369c-.042-.004-.085-.007-.127-.008zm-.844 3.506 4.661 8.133c.584-.094.693-.245 1.054-.748l4.16-6.299z"/>
  <path d="m9.248 9.206c.302-.285.745-.175 1.046.011.464.287 1.721 1.721 1.721 1.721l1.721-1.721c.291-.291.77-.291 1.061 0s.291.77 0 1.062l-1.721 1.72 1.721 1.721c.291.291.291.77 0 1.061s-.77.291-1.061 0l-1.721-1.72-1.721 1.72c-.291.291-.77.291-1.061 0s-.291-.77 0-1.061l1.721-1.721-1.721-1.72c-.291-.292-.265-.81.015-1.073z"/>
 </g>
</svg>
