
<svg xmlns="http://www.w3.org/2000/svg" xmlns:xlink="http://www.w3.org/1999/xlink" width="22px" height="22px" viewBox="0 0 22 22" version="1.1">
<g id="surface1">
<path style=" stroke:none;fill-rule:nonzero;fill:rgb(87.450981%,87.450981%,87.450981%);fill-opacity:1;" d="M 0 2.75 L 0 19.25 L 2.75 19.25 L 2.75 2.75 Z M 5.5 2.75 L 5.5 19.25 L 11.347656 19.203125 C 15.375 19.160156 15.757812 19.105469 17.460938 18.273438 C 21.175781 16.464844 22.933594 12.082031 21.503906 8.175781 C 20.5625 5.597656 18.414062 3.691406 15.679688 2.996094 C 14.820312 2.777344 14.277344 2.75 10.9375 2.75 Z M 8.25 5.5 L 12.375 5.5 L 12.375 9.625 L 11 9.625 L 11 7.820312 C 10.234375 8.417969 9.625 9.390625 9.625 11 C 9.625 15.125 13.75 15.125 13.75 15.125 L 13.75 16.5 C 13.75 16.5 8.25 16.5 8.25 11 C 8.25 8.960938 9.015625 7.683594 9.96875 6.875 L 8.25 6.875 Z M 13.75 5.5 C 13.75 5.5 19.25 5.5 19.25 11 C 19.25 13.039062 18.484375 14.316406 17.53125 15.125 L 19.25 15.125 L 19.25 16.5 L 15.125 16.5 L 15.125 12.375 L 16.5 12.375 L 16.5 14.179688 C 17.265625 13.582031 17.875 12.609375 17.875 11 C 17.875 6.875 13.75 6.875 13.75 6.875 Z M 13.75 5.5 "/>
</g>
</svg>
