
<svg xmlns="http://www.w3.org/2000/svg" xmlns:xlink="http://www.w3.org/1999/xlink" width="22px" height="22px" viewBox="0 0 22 22" version="1.1">
<g id="surface1">
<path style=" stroke:none;fill-rule:nonzero;fill:rgb(87.450981%,87.450981%,87.450981%);fill-opacity:1;" d="M 10.3125 1.375 C 7.273438 1.375 5.5 3.835938 5.5 6.875 L 5.5 8.25 L 4.125 8.25 C 3.367188 8.25 2.75 8.867188 2.75 9.625 L 2.75 19.25 C 2.75 20.007812 3.367188 20.625 4.125 20.625 L 16.5 20.625 C 17.257812 20.625 17.875 20.007812 17.875 19.25 L 17.875 9.625 C 17.875 8.867188 17.257812 8.25 16.5 8.25 L 15.125 8.25 L 15.125 6.875 C 15.125 3.835938 13.351562 1.375 10.3125 1.375 Z M 10.3125 4.175781 C 11.453125 4.175781 12.375 5.097656 12.375 6.238281 C 12.375 6.726562 12.269531 7.105469 12.128906 7.378906 C 11.992188 7.652344 11.691406 8.019531 11.34375 8.300781 C 11.003906 8.578125 10.3125 8.921875 10.3125 8.921875 C 10.3125 8.921875 10.625 8.542969 10.753906 8.25 C 10.609375 8.28125 10.460938 8.300781 10.3125 8.300781 C 9.171875 8.300781 8.25 7.378906 8.25 6.238281 C 8.25 5.097656 9.171875 4.175781 10.3125 4.175781 Z M 10.3125 9.625 C 12.96875 9.625 15.125 11.78125 15.125 14.4375 C 15.125 17.09375 12.96875 19.25 10.3125 19.25 C 7.65625 19.25 5.5 17.09375 5.5 14.4375 C 5.5 11.78125 7.65625 9.625 10.3125 9.625 Z M 10.3125 11 C 8.414062 11 6.875 12.539062 6.875 14.4375 C 6.875 16.335938 8.414062 17.875 10.3125 17.875 C 12.210938 17.875 13.75 16.335938 13.75 14.4375 C 13.75 12.539062 12.210938 11 10.3125 11 Z M 10.3125 11 "/>
</g>
</svg>
