
<svg xmlns="http://www.w3.org/2000/svg" xmlns:xlink="http://www.w3.org/1999/xlink" width="22px" height="22px" viewBox="0 0 22 22" version="1.1">
<defs>
<filter id="alpha" filterUnits="objectBoundingBox" x="0%" y="0%" width="100%" height="100%">
  <feColorMatrix type="matrix" in="SourceGraphic" values="0 0 0 0 1 0 0 0 0 1 0 0 0 0 1 0 0 0 1 0"/>
</filter>
<mask id="mask0">
  <g filter="url(#alpha)">
<rect x="0" y="0" width="22" height="22" style="fill:rgb(0%,0%,0%);fill-opacity:0.3;stroke:none;"/>
  </g>
</mask>
<clipPath id="clip1">
  <rect x="0" y="0" width="22" height="22"/>
</clipPath>
<g id="surface5" clip-path="url(#clip1)">
<path style=" stroke:none;fill-rule:nonzero;fill:rgb(87.450981%,87.450981%,87.450981%);fill-opacity:1;" d="M 1.398438 2.75 C 0.621094 2.75 0 3.378906 0 4.164062 L 0 17.835938 C 0 18.621094 0.621094 19.25 1.398438 19.25 L 20.601562 19.25 C 21.378906 19.25 22 18.621094 22 17.835938 L 22 4.164062 C 22 3.378906 21.378906 2.75 20.601562 2.75 Z M 6.875 5.5 C 9.914062 5.5 12.375 7.960938 12.375 11 C 12.375 14.039062 9.914062 16.5 6.875 16.5 C 3.835938 16.5 1.375 14.039062 1.375 11 C 1.375 7.960938 3.835938 5.5 6.875 5.5 Z M 6.875 5.5 "/>
</g>
</defs>
<g id="surface1">
<use xlink:href="#surface5" mask="url(#mask0)"/>
<path style=" stroke:none;fill-rule:nonzero;fill:rgb(87.450981%,87.450981%,87.450981%);fill-opacity:1;" d="M 13.75 13.75 L 20.625 13.75 L 20.625 15.125 L 13.75 15.125 Z M 13.75 9.625 L 20.625 9.625 L 20.625 11 L 13.75 11 Z M 13.75 5.5 L 20.625 5.5 L 20.625 6.875 L 13.75 6.875 Z M 13.75 5.5 "/>
<path style=" stroke:none;fill-rule:nonzero;fill:rgb(25.882354%,52.156866%,95.686275%);fill-opacity:1;" d="M 6.875 6.875 C 4.597656 6.875 2.75 8.722656 2.75 11 C 2.75 13.277344 4.597656 15.125 6.875 15.125 C 9.152344 15.125 11 13.277344 11 11 C 11 8.722656 9.152344 6.875 6.875 6.875 Z M 6.875 6.875 "/>
</g>
</svg>
