
<svg xmlns="http://www.w3.org/2000/svg" xmlns:xlink="http://www.w3.org/1999/xlink" width="22px" height="22px" viewBox="0 0 22 22" version="1.1">
<g id="surface1">
<path style=" stroke:none;fill-rule:nonzero;fill:rgb(87.450981%,87.450981%,87.450981%);fill-opacity:1;" d="M 0 17.507812 L 0 18.261719 C 0.00390625 19.925781 1.429688 21.355469 3.09375 21.355469 L 18.90625 21.355469 C 20.574219 21.355469 22 19.925781 22 18.261719 L 22 17.507812 C 21.269531 18.175781 20.316406 18.605469 19.25 18.605469 L 2.75 18.605469 C 1.6875 18.605469 0.730469 18.175781 0 17.507812 Z M 1.375 17.507812 C 0.464844 16.980469 -0.109375 15.949219 0.015625 14.820312 L 1.390625 2.445312 C 1.546875 1.054688 2.722656 0 4.125 0 L 17.875 0 C 19.277344 0 20.453125 1.054688 20.609375 2.445312 L 21.984375 14.820312 C 22.109375 15.949219 21.535156 16.980469 20.625 17.507812 L 20.625 15.125 C 20.625 15.078125 20.621094 15.023438 20.617188 14.972656 L 19.242188 2.597656 C 19.164062 1.902344 18.578125 1.375 17.875 1.375 L 4.125 1.375 C 3.421875 1.375 2.835938 1.902344 2.757812 2.597656 L 1.382812 14.972656 C 1.375 15.023438 1.375 15.074219 1.375 15.125 Z M 9.625 4.125 L 12.375 4.125 L 12.375 8.25 L 15.125 8.25 L 11 13.75 L 6.875 8.25 L 9.625 8.25 Z M 9.625 4.125 "/>
</g>
</svg>
