
<svg xmlns="http://www.w3.org/2000/svg" xmlns:xlink="http://www.w3.org/1999/xlink" width="22px" height="22px" viewBox="0 0 22 22" version="1.1">
<g id="surface1">
<path style=" stroke:none;fill-rule:nonzero;fill:rgb(87.450981%,87.450981%,87.450981%);fill-opacity:1;" d="M 10.3125 1.375 C 7.144531 1.375 4.488281 3.769531 4.160156 6.921875 C 1.777344 7.25 0 9.285156 0 11.6875 C 0 14.117188 1.808594 16.109375 4.152344 16.433594 C 3.96875 17.179688 3.144531 18.574219 2.875 19.226562 C 2.519531 20.078125 3.941406 20.808594 4.851562 20.59375 C 7.082031 20.0625 9.433594 18.042969 11.007812 16.5 L 15.15625 16.5 C 18.195312 16.5 20.65625 14.039062 20.65625 11 C 20.65625 8.355469 18.769531 6.082031 16.167969 5.597656 C 15.324219 3.078125 12.96875 1.378906 10.3125 1.375 Z M 11 11 L 15.125 11 C 15.886719 11 16.5 11.613281 16.5 12.375 C 16.5 13.136719 15.886719 13.75 15.125 13.75 L 11 13.75 C 10.238281 13.75 9.625 13.136719 9.625 12.375 C 9.625 11.613281 10.238281 11 11 11 Z M 11 11 "/>
</g>
</svg>
