
<svg xmlns="http://www.w3.org/2000/svg" xmlns:xlink="http://www.w3.org/1999/xlink" width="22px" height="22px" viewBox="0 0 22 22" version="1.1">
<g id="surface1">
<path style=" stroke:none;fill-rule:nonzero;fill:rgb(87.450981%,87.450981%,87.450981%);fill-opacity:1;" d="M 7.5625 2.75 C 5.664062 2.75 4.125 4.289062 4.125 6.1875 C 4.125 6.472656 4.164062 6.757812 4.234375 7.035156 C 3.988281 6.929688 3.71875 6.875 3.4375 6.875 C 2.539062 6.875 1.785156 7.449219 1.5 8.25 L 0.6875 8.25 C 0.308594 8.25 0 8.558594 0 8.9375 C 0 9.316406 0.308594 9.625 0.6875 9.625 L 4.214844 9.625 C 5.082031 8.777344 6.265625 8.25 7.5625 8.25 C 7.9375 8.25 8.242188 8.511719 8.597656 8.597656 C 8.996094 7.265625 9.808594 6.121094 10.882812 5.316406 C 10.488281 3.804688 9.125 2.75 7.5625 2.75 Z M 14.4375 5.5 C 11.78125 5.5 9.625 7.65625 9.625 10.3125 L 9.625 10.316406 C 9.03125 9.871094 8.308594 9.625 7.5625 9.625 C 5.664062 9.625 4.125 11.164062 4.125 13.0625 C 4.125 13.324219 4.160156 13.585938 4.21875 13.839844 C 3.347656 14.101562 2.75 14.902344 2.75 15.8125 C 2.75 16.953125 3.671875 17.875 4.8125 17.875 L 5.695312 17.875 C 6.472656 17.65625 6.855469 17.179688 7.242188 16.703125 C 9.210938 13.980469 10.902344 11.007812 14.011719 11 C 16.5 11 17.875 12.375 17.875 14.4375 C 17.875 15.578125 16.953125 16.5 15.8125 16.5 C 14.671875 16.5 13.75 15.578125 13.75 14.4375 C 13.75 14.25 13.777344 14.0625 13.828125 13.882812 C 12.957031 14.179688 12.359375 15.007812 12.292969 15.894531 C 12.375 17.976562 14.414062 17.894531 14.414062 17.894531 L 19.25 17.875 C 20.769531 17.875 22 16.644531 22 15.125 C 22 13.605469 20.769531 12.375 19.25 12.375 C 19.085938 12.375 18.921875 12.390625 18.757812 12.421875 C 19.082031 11.765625 19.25 11.042969 19.25 10.3125 C 19.25 7.65625 17.09375 5.5 14.4375 5.5 Z M 14.4375 5.5 "/>
</g>
</svg>
