<svg xmlns="http://www.w3.org/2000/svg" style="clip-rule:evenodd;fill-rule:evenodd;stroke-linejoin:round;stroke-miterlimit:2" version="1.1" viewBox="-3 -3 22 22">
 <defs>
  <style id="current-color-scheme" type="text/css">
   .ColorScheme-Text { color:#dfdfdf; } .ColorScheme-Highlight { color:#4285f4; } .ColorScheme-NeutralText { color:#ff9800; } .ColorScheme-PositiveText { color:#4caf50; } .ColorScheme-NegativeText { color:#f44336; }
  </style>
 </defs>
 <path style="fill:currentColor;" class="ColorScheme-Highlight" d="m8 0c1.885 0.953 3.903 1.576 6 2 0 0-0.11 5.094-0.655 7-0.473 1.652-1.407 3.479-2.618 4.439-1.212 0.95-2.727 1.561-2.727 1.561s-1.515-0.611-2.726-1.561c-1.212-0.95-2.146-2.787-2.619-4.439-0.546-1.906-0.655-7-0.655-7 2.157-0.51 4.161-1.173 6-2zm-0.016 0.773c-1.635 0.712-3.393 1.302-5.269 1.773 0.043 1.352 0.191 4.786 0.613 6.261 0.433 1.514 1.267 3.211 2.378 4.081 0.838 0.657 1.831 1.141 2.294 1.349 0.463-0.208 1.456-0.691 2.292-1.347 1.111-0.88 1.947-2.568 2.38-4.083 0.42-1.468 0.569-4.879 0.612-6.243-1.842-0.408-3.62-0.977-5.3-1.791zm-2.234 2.737 2.25 2.25 2.25-2.25 1.24 1.24-2.25 2.25 2.25 2.25-1.24 1.24-2.25-2.25-2.25 2.25-1.24-1.24 2.25-2.25-2.25-2.25 1.24-1.24z"/>
</svg>
