
<svg xmlns="http://www.w3.org/2000/svg" xmlns:xlink="http://www.w3.org/1999/xlink" width="22px" height="22px" viewBox="0 0 22 22" version="1.1">
<g id="surface1">
<path style=" stroke:none;fill-rule:nonzero;fill:rgb(87.450981%,87.450981%,87.450981%);fill-opacity:1;" d="M 19.335938 6.1875 C 16.675781 1.582031 10.792969 0.0078125 6.1875 2.664062 C 1.582031 5.324219 0.0078125 11.207031 2.664062 15.8125 C 5.324219 20.417969 11.207031 21.992188 15.8125 19.335938 C 20.417969 16.675781 21.992188 10.792969 19.335938 6.1875 Z M 16.953125 7.5625 C 18.601562 10.417969 17.988281 14.039062 15.496094 16.195312 C 15.722656 17.089844 15.328125 18.027344 14.53125 18.488281 C 13.578125 19.035156 12.367188 18.742188 11.769531 17.824219 C 10.046875 18.019531 8.3125 17.554688 6.917969 16.527344 C 5.941406 17.023438 4.746094 16.667969 4.199219 15.71875 C 3.738281 14.921875 3.863281 13.910156 4.507812 13.25 C 3.429688 10.136719 4.710938 6.695312 7.5625 5.046875 C 7.597656 5.027344 7.632812 5.007812 7.667969 4.988281 C 7.503906 4.128906 7.902344 3.261719 8.660156 2.824219 C 9.648438 2.253906 10.910156 2.59375 11.480469 3.578125 C 11.585938 3.761719 11.660156 3.960938 11.707031 4.171875 C 13.898438 4.394531 15.847656 5.65625 16.953125 7.5625 Z M 15.761719 8.25 C 14.875 6.714844 13.300781 5.703125 11.535156 5.53125 C 11.355469 5.894531 11.074219 6.195312 10.722656 6.394531 C 10.699219 6.410156 10.675781 6.421875 10.648438 6.433594 L 11.152344 9.917969 C 11.734375 10.03125 12.238281 10.394531 12.535156 10.90625 C 12.96875 11.664062 12.882812 12.613281 12.316406 13.277344 L 13.121094 14.675781 C 13.683594 14.574219 14.257812 14.707031 14.71875 15.042969 C 16.613281 13.300781 17.046875 10.480469 15.761719 8.25 Z M 9.289062 6.628906 C 8.945312 6.5625 8.625 6.40625 8.359375 6.179688 C 8.324219 6.199219 8.285156 6.21875 8.25 6.238281 C 6.023438 7.523438 4.984375 10.1875 5.753906 12.640625 C 6.320312 12.578125 6.890625 12.753906 7.324219 13.121094 L 8.722656 12.316406 C 8.5625 11.457031 8.960938 10.589844 9.71875 10.152344 C 9.742188 10.140625 9.765625 10.128906 9.792969 10.117188 Z M 11.125 13.964844 C 10.511719 14.078125 9.882812 13.910156 9.410156 13.503906 L 8.011719 14.3125 C 8.085938 14.71875 8.035156 15.136719 7.871094 15.515625 C 8.917969 16.238281 10.179688 16.578125 11.449219 16.472656 C 11.496094 16.0625 11.664062 15.679688 11.933594 15.363281 Z M 11.125 13.964844 "/>
</g>
</svg>
