
<svg xmlns="http://www.w3.org/2000/svg" xmlns:xlink="http://www.w3.org/1999/xlink" width="22px" height="22px" viewBox="0 0 22 22" version="1.1">
<g id="surface1">
<path style=" stroke:none;fill-rule:nonzero;fill:rgb(87.450981%,87.450981%,87.450981%);fill-opacity:1;" d="M 10.964844 1.375 L 10.054688 1.421875 L 9.984375 1.429688 L 9.101562 1.566406 L 9.035156 1.578125 L 8.179688 1.800781 L 8.113281 1.820312 L 7.671875 1.984375 L 8.144531 3.277344 L 8.570312 3.121094 L 9.347656 2.917969 L 10.152344 2.796875 L 11.035156 2.75 L 11.011719 2.273438 L 11.054688 1.378906 L 11.035156 1.375 L 11 2.0625 Z M 12.496094 1.503906 L 12.285156 2.863281 L 12.652344 2.917969 L 13.429688 3.121094 L 14.203125 3.402344 L 14.921875 3.753906 L 15.589844 4.160156 L 15.757812 4.285156 L 16.582031 3.183594 L 16.398438 3.046875 L 16.34375 3.007812 L 15.609375 2.558594 L 15.550781 2.527344 L 14.769531 2.148438 L 14.707031 2.125 L 13.886719 1.820312 L 13.820312 1.800781 L 12.964844 1.578125 L 12.898438 1.566406 Z M 6.300781 2.617188 L 5.65625 3.007812 L 5.601562 3.046875 L 4.910156 3.5625 L 4.863281 3.605469 L 4.226562 4.183594 L 4.179688 4.226562 L 3.605469 4.863281 L 3.5625 4.914062 L 3.085938 5.546875 L 4.1875 6.371094 L 4.644531 5.757812 L 5.175781 5.175781 L 5.757812 4.644531 L 6.410156 4.15625 L 7.015625 3.789062 Z M 17.6875 4.105469 L 16.761719 5.121094 L 16.824219 5.179688 L 17.355469 5.757812 L 17.84375 6.410156 L 18.25 7.078125 L 18.597656 7.796875 L 18.78125 8.292969 L 20.070312 7.820312 L 19.875 7.292969 L 19.851562 7.234375 L 19.472656 6.453125 L 19.441406 6.390625 L 18.992188 5.65625 L 18.953125 5.601562 L 18.4375 4.914062 L 18.394531 4.863281 L 17.820312 4.226562 L 17.773438 4.183594 Z M 11 4.125 C 7.203125 4.125 4.125 7.203125 4.125 11 C 4.128906 12.203125 4.445312 13.386719 5.050781 14.429688 L 4.125 17.878906 L 7.566406 16.953125 C 8.609375 17.558594 9.792969 17.875 11 17.878906 C 14.796875 17.878906 17.875 14.796875 17.875 11 C 17.875 7.203125 14.796875 4.125 11 4.125 Z M 2.332031 6.847656 L 2.148438 7.234375 L 2.125 7.292969 L 1.820312 8.113281 L 1.800781 8.179688 L 1.578125 9.035156 L 1.566406 9.101562 L 1.429688 9.984375 L 1.421875 10.054688 L 1.375 10.964844 L 1.378906 11.0625 L 1.390625 11.199219 L 2.761719 11.078125 L 2.753906 10.992188 L 2.796875 10.152344 L 2.917969 9.347656 L 3.121094 8.570312 L 3.40625 7.796875 L 3.570312 7.449219 Z M 20.460938 9.28125 L 19.101562 9.488281 L 19.203125 10.152344 L 19.246094 11 L 19.203125 11.851562 L 19.082031 12.652344 L 18.917969 13.292969 L 20.246094 13.640625 L 20.421875 12.96875 L 20.433594 12.898438 L 20.570312 12.015625 L 20.578125 11.945312 L 20.625 11.035156 L 20.625 10.964844 L 20.578125 10.054688 L 20.570312 9.984375 Z M 2.964844 12.328125 L 1.628906 12.65625 L 1.675781 12.847656 L 1.699219 12.925781 L 2.230469 14.332031 L 1.714844 16.25 L 3.042969 16.605469 L 3.613281 14.472656 L 3.59375 14.050781 L 3.003906 12.484375 Z M 18.476562 14.449219 L 18.25 14.921875 L 17.84375 15.589844 L 17.355469 16.246094 L 16.824219 16.828125 L 16.242188 17.355469 L 16.160156 17.414062 L 16.984375 18.515625 L 17.089844 18.441406 L 17.136719 18.398438 L 17.773438 17.820312 L 17.820312 17.773438 L 18.394531 17.136719 L 18.4375 17.089844 L 18.953125 16.398438 L 18.992188 16.347656 L 19.441406 15.609375 L 19.472656 15.550781 L 19.714844 15.050781 Z M 1.398438 17.679688 L 1.378906 17.820312 L 1.378906 18.007812 L 1.457031 18.542969 L 1.507812 18.714844 L 1.714844 19.199219 L 1.804688 19.347656 L 2.125 19.761719 L 2.242188 19.878906 L 2.65625 20.199219 L 2.804688 20.285156 L 3.285156 20.496094 L 3.457031 20.542969 L 3.992188 20.621094 L 4.179688 20.625 L 4.746094 20.550781 L 4.835938 20.535156 L 5.066406 20.472656 L 4.710938 19.144531 L 4.53125 19.195312 L 4.09375 19.25 L 3.75 19.199219 L 3.433594 19.058594 L 3.15625 18.847656 L 2.941406 18.570312 L 2.804688 18.25 L 2.753906 17.90625 L 2.761719 17.851562 L 2.746094 17.851562 L 2.738281 17.808594 L 2.589844 17.832031 Z M 15.082031 18.152344 L 14.921875 18.25 L 14.203125 18.601562 L 13.429688 18.882812 L 12.652344 19.082031 L 11.847656 19.207031 L 11.492188 19.226562 L 11.5625 20.601562 L 11.945312 20.578125 L 12.015625 20.574219 L 12.898438 20.4375 L 12.964844 20.421875 L 13.820312 20.199219 L 13.886719 20.183594 L 14.707031 19.878906 L 14.769531 19.855469 L 15.550781 19.476562 L 15.609375 19.441406 L 15.796875 19.328125 Z M 7.527344 18.390625 L 6.039062 18.789062 L 6.398438 20.117188 L 7.667969 19.777344 L 9.074219 20.300781 L 9.152344 20.328125 L 9.980469 20.527344 L 10.082031 20.546875 L 10.09375 20.546875 L 10.164062 19.796875 L 10.308594 19.191406 L 9.515625 19.003906 L 7.945312 18.410156 Z M 7.527344 18.390625 "/>
</g>
</svg>
