
<svg xmlns="http://www.w3.org/2000/svg" xmlns:xlink="http://www.w3.org/1999/xlink" width="22px" height="22px" viewBox="0 0 22 22" version="1.1">
<g id="surface1">
<path style=" stroke:none;fill-rule:nonzero;fill:rgb(87.450981%,87.450981%,87.450981%);fill-opacity:1;" d="M 6.1875 1.375 C 3.53125 1.375 1.375 3.53125 1.375 6.1875 C 1.375 7.503906 1.917969 8.757812 2.867188 9.664062 C 2.792969 10.105469 2.753906 10.550781 2.75 11 C 2.75 15.554688 6.445312 19.25 11 19.25 C 11.445312 19.25 11.894531 19.210938 12.335938 19.136719 C 13.242188 20.085938 14.5 20.625 15.8125 20.625 C 18.46875 20.625 20.625 18.46875 20.625 15.8125 C 20.625 14.496094 20.082031 13.242188 19.132812 12.335938 C 19.207031 11.894531 19.246094 11.449219 19.25 11 C 19.25 6.445312 15.554688 2.75 11 2.75 C 10.554688 2.75 10.105469 2.789062 9.664062 2.863281 C 8.757812 1.914062 7.5 1.375 6.1875 1.375 Z M 11 5.5 C 11.496094 5.492188 11.957031 5.753906 12.207031 6.183594 C 12.457031 6.609375 12.457031 7.140625 12.207031 7.566406 C 11.957031 7.996094 11.496094 8.257812 11 8.25 C 9.394531 8.25 9.023438 8.796875 8.65625 9.652344 C 8.480469 10.058594 8.386719 10.535156 8.328125 11 L 9.625 11 L 6.875 15.125 L 4.125 11 L 5.550781 11 C 5.613281 10.28125 5.757812 9.429688 6.125 8.566406 C 6.789062 7.015625 8.480469 5.5 11 5.5 Z M 15.144531 6.875 L 17.894531 11 L 16.449219 11 C 16.390625 11.722656 16.257812 12.554688 15.886719 13.429688 C 15.226562 14.980469 13.539062 16.5 11.019531 16.5 C 10.523438 16.507812 10.0625 16.246094 9.8125 15.816406 C 9.5625 15.390625 9.5625 14.859375 9.8125 14.433594 C 10.0625 14.003906 10.523438 13.742188 11.019531 13.75 C 12.621094 13.75 12.992188 13.207031 13.351562 12.351562 C 13.523438 11.945312 13.621094 11.46875 13.675781 11 L 12.394531 11 Z M 15.144531 6.875 "/>
</g>
</svg>
