
<svg xmlns="http://www.w3.org/2000/svg" xmlns:xlink="http://www.w3.org/1999/xlink" width="22px" height="22px" viewBox="0 0 22 22" version="1.1">
<defs>
<filter id="alpha" filterUnits="objectBoundingBox" x="0%" y="0%" width="100%" height="100%">
  <feColorMatrix type="matrix" in="SourceGraphic" values="0 0 0 0 1 0 0 0 0 1 0 0 0 0 1 0 0 0 1 0"/>
</filter>
<mask id="mask0">
  <g filter="url(#alpha)">
<rect x="0" y="0" width="22" height="22" style="fill:rgb(0%,0%,0%);fill-opacity:0.3;stroke:none;"/>
  </g>
</mask>
<clipPath id="clip1">
  <rect x="0" y="0" width="22" height="22"/>
</clipPath>
<g id="surface5" clip-path="url(#clip1)">
<path style=" stroke:none;fill-rule:nonzero;fill:rgb(87.450981%,87.450981%,87.450981%);fill-opacity:1;" d="M 11 1.375 C 5.683594 1.375 1.375 5.683594 1.375 11 L 2.75 13.75 L 4.125 11 C 4.125 7.203125 7.203125 4.125 11 4.125 L 8.25 2.75 Z M 11 1.375 "/>
</g>
</defs>
<g id="surface1">
<use xlink:href="#surface5" mask="url(#mask0)"/>
<path style=" stroke:none;fill-rule:nonzero;fill:rgb(87.450981%,87.450981%,87.450981%);fill-opacity:1;" d="M 11 1.375 L 8.25 2.75 L 11 4.125 C 14.796875 4.125 17.875 7.203125 17.875 11 L 19.25 8.25 L 20.625 11 C 20.625 5.683594 16.316406 1.375 11 1.375 Z M 1.375 11 C 1.375 16.316406 5.683594 20.625 11 20.625 L 13.75 19.25 L 11 17.875 C 7.203125 17.875 4.125 14.796875 4.125 11 L 2.75 13.75 Z M 1.375 11 "/>
<path style=" stroke:none;fill-rule:nonzero;fill:rgb(87.450981%,87.450981%,87.450981%);fill-opacity:1;" d="M 17.875 12.375 C 15.597656 12.375 13.75 14.222656 13.75 16.5 C 13.75 18.777344 15.597656 20.625 17.875 20.625 C 20.152344 20.625 22 18.777344 22 16.5 C 22 14.222656 20.152344 12.375 17.875 12.375 Z M 19.90625 13.742188 C 20.152344 13.730469 20.386719 13.847656 20.519531 14.054688 C 20.652344 14.261719 20.664062 14.523438 20.550781 14.742188 L 18.488281 18.867188 C 18.402344 19.042969 18.242188 19.175781 18.050781 19.226562 C 17.859375 19.273438 17.65625 19.242188 17.492188 19.132812 L 15.429688 17.757812 C 15.222656 17.621094 15.101562 17.386719 15.117188 17.136719 C 15.128906 16.890625 15.277344 16.667969 15.5 16.558594 C 15.726562 16.453125 15.988281 16.472656 16.195312 16.613281 L 17.609375 17.558594 L 19.324219 14.132812 C 19.429688 13.90625 19.65625 13.753906 19.90625 13.742188 Z M 19.90625 13.742188 "/>
</g>
</svg>
