<svg xmlns="http://www.w3.org/2000/svg" style="clip-rule:evenodd;fill-rule:evenodd;stroke-linejoin:round;stroke-miterlimit:2" version="1.1" viewBox="-3 -3 22 22">
 <defs>
  <style id="current-color-scheme" type="text/css">
   .ColorScheme-Text { color:#dfdfdf; } .ColorScheme-Highlight { color:#4285f4; } .ColorScheme-NeutralText { color:#ff9800; } .ColorScheme-PositiveText { color:#4caf50; } .ColorScheme-NegativeText { color:#f44336; }
  </style>
 </defs>
 <path style="fill-opacity:.5;fill:currentColor;" class="ColorScheme-Text" d="m1.841 9.54 4.207 0.895-1.301 0.832c0.839 0.836 1.999 1.352 3.28 1.352 2.362 0 4.31-1.757 4.601-4.03-0-0 0.088-0.589 0.758-0.589 0.427-0 0.773 0.345 0.773 0.77-0 0.058-8e-3 0.115-0.02 0.169-0.454 2.956-3.016 5.22-6.112 5.22-1.708 0-3.255-0.69-4.374-1.804l-0.906 1.171-0.906-3.986z"/>
 <path style="fill:currentColor;" class="ColorScheme-Text" d="m14.159 6.46-4.084-0.96 1.178-0.767c-0.839-0.835-1.999-1.352-3.28-1.352-2.362-0-4.31 1.757-4.601 4.03 0 0-0.088 0.589-0.758 0.589-0.427 0-0.773-0.345-0.773-0.77 0-0.058 8e-3 -0.115 0.02-0.169 0.454-2.956 3.016-5.22 6.112-5.22 1.708-0 3.255 0.689 4.374 1.804l0.81-1.175 1.002 3.99z"/>
</svg>
