<svg xmlns="http://www.w3.org/2000/svg" style="clip-rule:evenodd;fill-rule:evenodd;stroke-linejoin:round;stroke-miterlimit:2" viewBox="-3 -3 22 22">
 <defs>
  <style id="current-color-scheme" type="text/css">
   .ColorScheme-Text { color:#dfdfdf; } .ColorScheme-Highlight { color:#4285f4; } .ColorScheme-NeutralText { color:#ff9800; } .ColorScheme-PositiveText { color:#4caf50; } .ColorScheme-NegativeText { color:#f44336; }
  </style>
 </defs>
    <path style="fill:currentColor" class="ColorScheme-Text" fill-opacity=".3" d="M13.473,14.296l-6.177,-6.685l5.504,-0c0.475,-0 0.86,0.386 0.86,0.861l0,5.29c0,0.202 -0.07,0.388 -0.187,0.534Zm-7.655,-6.685l6.478,7.011l-9.096,0c-0.474,0 -0.86,-0.386 -0.86,-0.86l0,-5.29c0,-0.475 0.386,-0.861 0.86,-0.861l2.618,-0Z"/>
    <path style="fill:currentColor" class="ColorScheme-Text" d="M4.092,4.141c0.39,-1.8 1.987,-3.141 3.908,-3.141c2.216,0 4,1.784 4,4l0,2l1,0c0.554,0 1,0.446 1,1l0,6c0,0.238 -0.082,0.456 -0.22,0.627l-0.546,-0.591c0.008,-0.026 0.012,-0.054 0.012,-0.083l0,-5.812c0,-0.168 -0.137,-0.305 -0.305,-0.305l-5.436,-0l-0.772,-0.836l3.267,-0l0,-2c0,-1.108 -0.892,-2 -2,-2c-1.108,-0 -2,0.892 -2,2l0,1.207l-1.908,-2.066Zm8.554,10.859l-9.646,-0c-0.554,-0 -1,-0.446 -1,-1l0,-6c0,-0.554 0.446,-1 1,-1l1,-0l0,-1.357l2.027,2.193l-2.968,-0c-0.168,-0 -0.305,0.137 -0.305,0.305l0,5.812c0,0.168 0.137,0.305 0.305,0.305l8.901,-0l0.686,0.742Zm-3.387,-5.266l1.624,0l-0,0.724l-0.376,0.626l-1.248,-1.35Zm0.665,2.32l-0.708,1.179l1.723,-0l-0,0.776l-2.632,-0l0,-0.723l1.085,-1.807l0.532,0.575Zm-2.517,-2.724l-1.437,2.392l1.723,0l-0,0.777l-2.632,-0l0,-0.724l1.667,-2.775l-1.617,0l0,-0.776l1.274,0l1.022,1.106Z" />
    <path style="fill:currentColor" class="ColorScheme-Text" d="M2.44,1l12.729,13.777l-0.797,0.737l-12.73,-13.777l0.798,-0.737Z"/>
</svg>
