
<svg xmlns="http://www.w3.org/2000/svg" xmlns:xlink="http://www.w3.org/1999/xlink" width="22px" height="22px" viewBox="0 0 22 22" version="1.1">
<g id="surface1">
<path style=" stroke:none;fill-rule:nonzero;fill:rgb(87.450981%,87.450981%,87.450981%);fill-opacity:1;" d="M 2.6875 1.375 C 1.960938 1.375 1.375 1.960938 1.375 2.6875 L 1.375 19.3125 C 1.375 20.039062 1.960938 20.625 2.6875 20.625 L 16.574219 20.625 C 16.527344 20.398438 16.5 20.167969 16.5 19.9375 C 16.5 18.039062 18.039062 16.5 19.9375 16.5 C 20.167969 16.5 20.398438 16.523438 20.625 16.570312 L 20.625 2.6875 C 20.625 1.960938 20.039062 1.375 19.3125 1.375 Z M 5.5 5.5 L 16.5 5.5 L 16.5 8.25 L 12.375 8.25 L 12.375 16.5 L 9.625 16.5 L 9.625 8.25 L 5.5 8.25 Z M 5.5 5.5 "/>
<path style=" stroke:none;fill-rule:nonzero;fill:rgb(25.882354%,52.156866%,95.686275%);fill-opacity:1;" d="M 22 19.9375 C 22 21.078125 21.078125 22 19.9375 22 C 18.796875 22 17.875 21.078125 17.875 19.9375 C 17.875 18.796875 18.796875 17.875 19.9375 17.875 C 21.078125 17.875 22 18.796875 22 19.9375 Z M 22 19.9375 "/>
</g>
</svg>
