
<svg xmlns="http://www.w3.org/2000/svg" xmlns:xlink="http://www.w3.org/1999/xlink" width="22px" height="22px" viewBox="0 0 22 22" version="1.1">
<defs>
<filter id="alpha" filterUnits="objectBoundingBox" x="0%" y="0%" width="100%" height="100%">
  <feColorMatrix type="matrix" in="SourceGraphic" values="0 0 0 0 1 0 0 0 0 1 0 0 0 0 1 0 0 0 1 0"/>
</filter>
<mask id="mask0">
  <g filter="url(#alpha)">
<rect x="0" y="0" width="22" height="22" style="fill:rgb(0%,0%,0%);fill-opacity:0.3;stroke:none;"/>
  </g>
</mask>
<clipPath id="clip1">
  <rect x="0" y="0" width="22" height="22"/>
</clipPath>
<g id="surface5" clip-path="url(#clip1)">
<path style=" stroke:none;fill-rule:nonzero;fill:rgb(87.450981%,87.450981%,87.450981%);fill-opacity:1;" d="M 8.34375 6.875 L 5.308594 15.125 L 7.585938 15.125 L 9.484375 10.175781 L 11.378906 15.125 L 13.65625 15.125 L 15.550781 10.175781 L 17.449219 15.125 L 19.722656 15.125 L 16.6875 6.875 L 14.414062 6.875 L 12.515625 12.03125 L 10.621094 6.875 Z M 8.34375 6.875 "/>
</g>
</defs>
<g id="surface1">
<path style=" stroke:none;fill-rule:nonzero;fill:rgb(87.450981%,87.450981%,87.450981%);fill-opacity:1;" d="M 0 6.875 L 3.035156 15.125 L 5.308594 15.125 L 8.34375 6.875 L 6.070312 6.875 L 4.171875 11.824219 L 2.273438 6.875 Z M 10.621094 6.875 L 12.515625 12.03125 L 13.65625 8.9375 L 12.894531 6.875 Z M 16.6875 6.875 L 19.722656 15.125 L 22 15.125 L 18.964844 6.875 Z M 9.484375 10.175781 L 7.585938 15.125 L 9.859375 15.125 L 10.621094 13.144531 Z M 15.550781 10.175781 L 13.65625 15.125 L 15.933594 15.125 L 16.691406 13.144531 Z M 15.550781 10.175781 "/>
<use xlink:href="#surface5" mask="url(#mask0)"/>
</g>
</svg>
