
<svg xmlns="http://www.w3.org/2000/svg" xmlns:xlink="http://www.w3.org/1999/xlink" width="22px" height="22px" viewBox="0 0 22 22" version="1.1">
<defs>
<filter id="alpha" filterUnits="objectBoundingBox" x="0%" y="0%" width="100%" height="100%">
  <feColorMatrix type="matrix" in="SourceGraphic" values="0 0 0 0 1 0 0 0 0 1 0 0 0 0 1 0 0 0 1 0"/>
</filter>
<mask id="mask0">
  <g filter="url(#alpha)">
<rect x="0" y="0" width="22" height="22" style="fill:rgb(0%,0%,0%);fill-opacity:0.3;stroke:none;"/>
  </g>
</mask>
<clipPath id="clip1">
  <rect x="0" y="0" width="22" height="22"/>
</clipPath>
<g id="surface5" clip-path="url(#clip1)">
<path style=" stroke:none;fill-rule:nonzero;fill:rgb(87.450981%,87.450981%,87.450981%);fill-opacity:1;" d="M 5.058594 3.785156 C 6.179688 1.929688 8.210938 0.6875 10.539062 0.6875 C 13.535156 0.6875 16.054688 2.753906 16.746094 5.542969 C 17.0625 5.460938 17.394531 5.425781 17.734375 5.425781 C 20.089844 5.425781 22 7.335938 22 9.6875 C 22 11.859375 20.371094 13.660156 18.265625 13.917969 C 18.09375 13.941406 17.917969 13.949219 17.734375 13.949219 C 17.554688 13.949219 17.378906 13.941406 17.207031 13.917969 L 5.066406 13.917969 C 2.269531 13.917969 0 11.648438 0 8.851562 C 0 6.058594 2.265625 3.789062 5.058594 3.785156 Z M 5.058594 3.785156 "/>
</g>
</defs>
<g id="surface1">
<path style=" stroke:none;fill-rule:nonzero;fill:rgb(87.450981%,87.450981%,87.450981%);fill-opacity:1;" d="M 2.75 17.824219 C 1.996094 17.824219 1.375 18.445312 1.375 19.199219 C 1.375 19.953125 1.996094 20.574219 2.75 20.574219 C 3.503906 20.574219 4.125 19.953125 4.125 19.199219 C 4.125 18.445312 3.503906 17.824219 2.75 17.824219 Z M 8.25 17.824219 C 7.496094 17.824219 6.875 18.445312 6.875 19.199219 C 6.875 19.953125 7.496094 20.574219 8.25 20.574219 C 9.003906 20.574219 9.625 19.953125 9.625 19.199219 C 9.625 18.445312 9.003906 17.824219 8.25 17.824219 Z M 13.75 17.824219 C 12.996094 17.824219 12.375 18.445312 12.375 19.199219 C 12.375 19.953125 12.996094 20.574219 13.75 20.574219 C 14.503906 20.574219 15.125 19.953125 15.125 19.199219 C 15.125 18.445312 14.503906 17.824219 13.75 17.824219 Z M 19.25 17.824219 C 18.496094 17.824219 17.875 18.445312 17.875 19.199219 C 17.875 19.953125 18.496094 20.574219 19.25 20.574219 C 20.003906 20.574219 20.625 19.953125 20.625 19.199219 C 20.625 18.445312 20.003906 17.824219 19.25 17.824219 Z M 5.5 15.074219 C 4.746094 15.074219 4.125 15.695312 4.125 16.449219 C 4.125 17.203125 4.746094 17.824219 5.5 17.824219 C 6.253906 17.824219 6.875 17.203125 6.875 16.449219 C 6.875 15.695312 6.253906 15.074219 5.5 15.074219 Z M 11 15.074219 C 10.246094 15.074219 9.625 15.695312 9.625 16.449219 C 9.625 17.203125 10.246094 17.824219 11 17.824219 C 11.753906 17.824219 12.375 17.203125 12.375 16.449219 C 12.375 15.695312 11.753906 15.074219 11 15.074219 Z M 16.5 15.074219 C 15.746094 15.074219 15.125 15.695312 15.125 16.449219 C 15.125 17.203125 15.746094 17.824219 16.5 17.824219 C 17.253906 17.824219 17.875 17.203125 17.875 16.449219 C 17.875 15.695312 17.253906 15.074219 16.5 15.074219 Z M 16.5 15.074219 "/>
<use xlink:href="#surface5" mask="url(#mask0)"/>
</g>
</svg>
