
<svg xmlns="http://www.w3.org/2000/svg" xmlns:xlink="http://www.w3.org/1999/xlink" width="22px" height="22px" viewBox="0 0 22 22" version="1.1">
<g id="surface1">
<path style=" stroke:none;fill-rule:nonzero;fill:rgb(87.450981%,87.450981%,87.450981%);fill-opacity:1;" d="M 11 1.375 C 10.769531 1.375 10.539062 1.386719 10.3125 1.402344 C 10.285156 1.402344 10.253906 1.40625 10.226562 1.40625 C 6.789062 1.679688 3.875 3.746094 2.402344 6.671875 C 2.308594 6.859375 2.210938 7.050781 2.128906 7.25 C 1.679688 8.265625 1.433594 9.34375 1.386719 10.472656 C 1.386719 10.511719 1.382812 10.546875 1.382812 10.582031 C 1.378906 10.691406 1.378906 10.800781 1.378906 10.910156 C 1.378906 10.9375 1.375 10.96875 1.375 11 C 1.375 12.117188 1.574219 13.1875 1.921875 14.183594 C 2.0625 14.632812 2.226562 15.085938 2.417969 15.542969 C 2.90625 16.683594 2.964844 16.992188 2.886719 17.941406 C 2.832031 18.605469 2.65625 19.285156 2.429688 19.667969 C 2.226562 20.011719 2.0625 20.371094 2.0625 20.460938 C 2.0625 20.742188 3.683594 20.644531 5.121094 20.277344 C 6.804688 19.84375 6.949219 19.84375 8.332031 20.277344 C 8.960938 20.476562 9.679688 20.582031 10.492188 20.613281 C 10.527344 20.613281 10.5625 20.613281 10.59375 20.613281 C 10.707031 20.617188 10.816406 20.625 10.929688 20.625 L 11 20.625 C 11.269531 20.625 11.535156 20.609375 11.796875 20.589844 C 14.175781 20.421875 16.089844 19.539062 17.808594 17.824219 C 19.226562 16.410156 20.105469 14.664062 20.449219 12.835938 C 20.484375 12.667969 20.507812 12.5 20.53125 12.328125 C 20.546875 12.226562 20.558594 12.121094 20.570312 12.015625 C 20.59375 11.789062 20.605469 11.5625 20.613281 11.332031 C 20.617188 11.273438 20.621094 11.21875 20.621094 11.160156 C 20.621094 11.105469 20.625 11.054688 20.625 11 C 20.625 5.757812 16.472656 1.523438 11.265625 1.382812 C 11.226562 1.382812 11.183594 1.382812 11.140625 1.378906 C 11.09375 1.378906 11.046875 1.375 11 1.375 Z M 7.5625 5.5 C 8.703125 5.5 9.625 6.421875 9.625 7.5625 C 9.625 8.25 9.625 9.625 8.25 9.625 C 8.25 11 11.042969 13.675781 12.375 13.75 C 12.375 12.375 13.75 12.375 14.4375 12.375 C 15.574219 12.375 16.5 13.300781 16.5 14.4375 C 16.5 15.574219 15.574219 16.5 14.4375 16.5 L 13.667969 16.5 C 13.257812 16.492188 12.785156 16.339844 12.117188 16.097656 C 9.886719 15.28125 8.335938 13.976562 6.75 11.570312 C 5.824219 10.167969 5.503906 9.324219 5.5 8.273438 L 5.5 7.5625 C 5.5 6.421875 6.421875 5.5 7.5625 5.5 Z M 7.5625 5.5 "/>
</g>
</svg>
