
<svg xmlns="http://www.w3.org/2000/svg" xmlns:xlink="http://www.w3.org/1999/xlink" width="22px" height="22px" viewBox="0 0 22 22" version="1.1">
<g id="surface1">
<path style=" stroke:none;fill-rule:nonzero;fill:rgb(87.450981%,87.450981%,87.450981%);fill-opacity:1;" d="M 9.625 1.375 C 4.308594 1.375 0 5.683594 0 11 C 0 16.316406 4.308594 20.625 9.625 20.625 C 14.941406 20.625 19.25 16.316406 19.25 11 C 19.25 5.683594 14.941406 1.375 9.625 1.375 Z M 2.75 6.875 L 4.125 6.875 L 4.125 12.941406 C 4.125 12.941406 4.121094 13.433594 4.511719 13.976562 C 4.902344 14.515625 5.660156 15.125 7.5625 15.125 C 7.707031 15.125 7.75 15.074219 7.882812 15.070312 C 7.785156 14.960938 7.597656 14.886719 7.519531 14.777344 C 6.878906 13.882812 6.875 12.941406 6.875 12.941406 L 6.875 8.347656 L 6.878906 8.308594 C 6.878906 8.308594 6.914062 8.109375 6.996094 7.945312 C 7.078125 7.78125 7.21875 7.589844 7.4375 7.421875 C 7.867188 7.085938 8.554688 6.859375 9.636719 6.875 C 10.707031 6.890625 11.375 7.113281 11.804688 7.4375 C 12.015625 7.597656 12.160156 7.78125 12.246094 7.941406 C 12.332031 8.101562 12.371094 8.300781 12.371094 8.300781 L 12.375 8.347656 L 12.375 12.941406 C 12.375 12.941406 12.371094 13.882812 11.730469 14.777344 C 11.652344 14.886719 11.464844 14.960938 11.367188 15.070312 C 11.5 15.074219 11.542969 15.125 11.6875 15.125 C 13.589844 15.125 14.347656 14.515625 14.738281 13.976562 C 15.128906 13.433594 15.125 12.941406 15.125 12.941406 L 15.125 6.875 L 16.5 6.875 L 16.5 12.941406 C 16.5 12.941406 16.496094 13.882812 15.855469 14.777344 C 15.214844 15.671875 13.910156 16.5 11.6875 16.5 C 10.832031 16.5 10.222656 16.296875 9.625 16.09375 C 9.027344 16.296875 8.417969 16.5 7.5625 16.5 C 5.339844 16.5 4.035156 15.671875 3.394531 14.777344 C 2.753906 13.882812 2.75 12.941406 2.75 12.941406 Z M 9.613281 8.25 C 8.734375 8.238281 8.390625 8.421875 8.28125 8.507812 C 8.253906 8.53125 8.257812 8.53125 8.25 8.539062 L 8.25 12.941406 C 8.25 12.941406 8.25 13.433594 8.636719 13.976562 C 8.835938 14.25 9.136719 14.539062 9.625 14.757812 C 10.113281 14.539062 10.414062 14.25 10.613281 13.976562 C 11.003906 13.433594 11 12.941406 11 12.941406 L 11 8.554688 C 10.992188 8.546875 11 8.554688 10.980469 8.535156 C 10.863281 8.449219 10.5 8.261719 9.613281 8.25 Z M 9.613281 8.25 "/>
</g>
</svg>
