
<svg xmlns="http://www.w3.org/2000/svg" xmlns:xlink="http://www.w3.org/1999/xlink" width="22px" height="22px" viewBox="0 0 22 22" version="1.1">
<g id="surface1">
<path style=" stroke:none;fill-rule:evenodd;fill:rgb(87.450981%,87.450981%,87.450981%);fill-opacity:1;" d="M 4.683594 1.359375 C 4.332031 1.359375 3.964844 1.476562 3.695312 1.746094 L 1.761719 3.679688 C 1.222656 4.214844 1.222656 5.117188 1.761719 5.65625 L 2.964844 6.859375 L 10.785156 6.859375 L 5.671875 1.746094 C 5.402344 1.476562 5.035156 1.359375 4.683594 1.359375 Z M 17.316406 1.359375 C 16.957031 1.359375 16.597656 1.476562 16.328125 1.746094 L 11.214844 6.859375 L 19.035156 6.859375 L 20.238281 5.65625 C 20.777344 5.117188 20.777344 4.214844 20.238281 3.679688 L 18.304688 1.746094 C 18.035156 1.476562 17.675781 1.359375 17.316406 1.359375 Z M 6.15625 7.554688 C 5.792969 7.570312 5.503906 7.867188 5.5 8.234375 L 5.5 13.042969 C 5.488281 13.972656 6.886719 13.972656 6.875 13.042969 L 6.875 10.980469 L 8.25 10.980469 L 8.25 13.042969 C 8.238281 13.972656 9.636719 13.972656 9.625 13.042969 L 9.625 10.292969 C 9.625 9.914062 9.316406 9.609375 8.9375 9.609375 L 6.875 9.609375 L 6.875 8.234375 C 6.867188 7.847656 6.542969 7.539062 6.15625 7.554688 Z M 18.53125 7.554688 C 18.167969 7.570312 17.878906 7.867188 17.875 8.234375 L 17.875 9.609375 L 17.1875 9.609375 C 16.300781 9.636719 16.300781 10.953125 17.1875 10.980469 L 17.875 10.980469 L 17.875 13.042969 C 17.875 13.425781 18.183594 13.730469 18.5625 13.730469 L 20.625 13.730469 C 21.554688 13.746094 21.554688 12.34375 20.625 12.355469 L 19.25 12.355469 L 19.25 10.980469 L 20.625 10.980469 C 21.570312 11.011719 21.570312 9.578125 20.625 9.609375 L 19.25 9.609375 L 19.25 8.234375 C 19.246094 7.847656 18.921875 7.539062 18.535156 7.554688 Z M 0.6875 9.609375 C 0.308594 9.609375 0 9.914062 0 10.292969 L 0 13.042969 C 0 13.425781 0.308594 13.730469 0.6875 13.730469 L 3.4375 13.730469 C 4.367188 13.746094 4.367188 12.34375 3.4375 12.355469 L 1.375 12.355469 L 1.375 10.980469 L 3.4375 10.980469 C 4.367188 10.996094 4.367188 9.59375 3.4375 9.605469 L 0.6875 9.605469 Z M 11.6875 9.609375 C 11.308594 9.609375 11 9.914062 11 10.292969 L 11 13.042969 C 11 13.425781 11.308594 13.730469 11.6875 13.730469 L 12.71875 13.730469 C 13.648438 13.746094 13.648438 12.34375 12.71875 12.355469 L 12.375 12.355469 L 12.375 10.980469 L 13.75 10.980469 L 13.75 13.042969 C 13.738281 13.972656 15.140625 13.972656 15.125 13.042969 L 15.125 10.292969 C 15.125 9.914062 14.816406 9.609375 14.4375 9.609375 Z M 2.964844 15.105469 L 1.761719 16.308594 C 1.222656 16.847656 1.222656 17.75 1.761719 18.289062 L 3.695312 20.222656 C 4.234375 20.757812 5.132812 20.757812 5.671875 20.222656 L 10.785156 15.105469 Z M 11.214844 15.105469 L 16.328125 20.222656 C 16.867188 20.757812 17.765625 20.757812 18.304688 20.222656 L 20.238281 18.289062 C 20.777344 17.75 20.777344 16.847656 20.238281 16.308594 L 19.035156 15.105469 Z M 11.214844 15.105469 "/>
</g>
</svg>
