
<svg xmlns="http://www.w3.org/2000/svg" xmlns:xlink="http://www.w3.org/1999/xlink" width="22px" height="22px" viewBox="0 0 22 22" version="1.1">
<defs>
<filter id="alpha" filterUnits="objectBoundingBox" x="0%" y="0%" width="100%" height="100%">
  <feColorMatrix type="matrix" in="SourceGraphic" values="0 0 0 0 1 0 0 0 0 1 0 0 0 0 1 0 0 0 1 0"/>
</filter>
<mask id="mask0">
  <g filter="url(#alpha)">
<rect x="0" y="0" width="22" height="22" style="fill:rgb(0%,0%,0%);fill-opacity:0.3;stroke:none;"/>
  </g>
</mask>
<clipPath id="clip1">
  <rect x="0" y="0" width="22" height="22"/>
</clipPath>
<g id="surface5" clip-path="url(#clip1)">
<path style=" stroke:none;fill-rule:evenodd;fill:rgb(87.450981%,87.450981%,87.450981%);fill-opacity:0.3;" d="M 4.953125 1.375 C 3.578125 1.375 3.578125 2.75 3.578125 2.75 L 3.578125 19.25 C 3.578125 20.625 4.953125 20.625 4.953125 20.625 L 17.046875 20.625 C 18.421875 20.625 18.421875 19.25 18.421875 19.25 L 18.421875 2.75 C 18.421875 1.375 17.046875 1.375 17.046875 1.375 Z M 4.953125 1.375 "/>
</g>
</defs>
<g id="surface1">
<use xlink:href="#surface5" mask="url(#mask0)"/>
<path style=" stroke:none;fill-rule:evenodd;fill:rgb(87.450981%,87.450981%,87.450981%);fill-opacity:1;" d="M 4.953125 1.375 C 3.578125 1.375 3.578125 2.75 3.578125 2.75 L 3.578125 19.25 C 3.578125 20.625 4.953125 20.625 4.953125 20.625 L 17.046875 20.625 C 18.421875 20.625 18.421875 19.25 18.421875 19.25 L 18.421875 2.75 C 18.421875 1.375 17.046875 1.375 17.046875 1.375 Z M 4.964844 2.75 L 4.953125 19.234375 L 17.035156 19.25 L 17.046875 2.765625 Z M 10.539062 13.101562 L 7.808594 18.175781 C 7.539062 18.53125 6.433594 18.148438 5.996094 17.816406 C 5.558594 17.480469 4.910156 16.527344 5.179688 16.171875 L 9.585938 12.375 C 9.945312 12.074219 10.269531 11.878906 10.558594 12.097656 C 10.847656 12.320312 10.722656 12.671875 10.539062 13.101562 Z M 8.019531 12.636719 C 6.96875 11.757812 6.300781 10.433594 6.300781 8.957031 C 6.300781 6.308594 8.449219 4.164062 11.097656 4.164062 C 13.746094 4.164062 15.894531 6.308594 15.894531 8.957031 C 15.894531 11.597656 13.757812 13.742188 11.121094 13.753906 L 11.296875 13.425781 C 11.660156 12.570312 11.632812 11.882812 11.054688 11.441406 C 10.476562 11 9.78125 11.140625 9.058594 11.742188 Z M 11.097656 8.054688 C 10.597656 8.054688 10.195312 8.460938 10.195312 8.957031 C 10.195312 9.457031 10.597656 9.863281 11.097656 9.863281 C 11.597656 9.863281 12.003906 9.457031 12.003906 8.957031 C 12.003906 8.460938 11.597656 8.054688 11.097656 8.054688 Z M 11.097656 8.054688 "/>
<path style=" stroke:none;fill-rule:evenodd;fill:rgb(100%,59.607846%,0%);fill-opacity:1;" d="M 17.136719 12.375 C 16.804688 12.394531 16.507812 12.601562 16.34375 12.917969 L 14.421875 16.640625 L 12.507812 20.359375 C 12.425781 20.519531 12.378906 20.695312 12.375 20.878906 L 12.375 20.90625 C 12.375 21.507812 12.816406 22 13.351562 22 L 21.023438 22 C 21.558594 22 22 21.507812 22 20.90625 C 22 20.714844 21.953125 20.527344 21.867188 20.359375 L 19.953125 16.640625 L 18.03125 12.917969 C 17.867188 12.597656 17.566406 12.394531 17.234375 12.375 C 17.203125 12.375 17.167969 12.375 17.136719 12.375 Z M 16.5 13.75 L 17.875 13.75 L 17.875 17.875 L 16.5 17.875 Z M 16.5 19.25 L 17.875 19.25 L 17.875 20.625 L 16.5 20.625 Z M 16.5 19.25 "/>
</g>
</svg>
