
<svg xmlns="http://www.w3.org/2000/svg" xmlns:xlink="http://www.w3.org/1999/xlink" width="22px" height="22px" viewBox="0 0 22 22" version="1.1">
<g id="surface1">
<path style=" stroke:none;fill-rule:nonzero;fill:rgb(87.450981%,87.450981%,87.450981%);fill-opacity:1;" d="M 10.578125 1.375 C 8.011719 1.417969 5.984375 2.363281 4.101562 4.230469 C 2.070312 6.25 1.339844 8.101562 1.347656 11.203125 C 1.351562 13.226562 1.644531 14.589844 2.304688 15.707031 L 2.65625 16.304688 L 1.375 20.625 L 4.851562 18.933594 L 6.007812 19.472656 C 6.644531 19.769531 7.855469 20.160156 8.699219 20.34375 C 9.839844 20.59375 10.269531 20.660156 11.566406 20.609375 C 14.289062 20.496094 16.132812 19.730469 17.871094 17.996094 C 19.625 16.25 20.5 14.152344 20.671875 11.289062 C 20.972656 6.164062 18.234375 2.554688 13.339844 1.632812 C 12.351562 1.449219 11.433594 1.363281 10.578125 1.375 Z M 8.984375 4.125 C 9.351562 4.125 10.003906 4.902344 10.496094 5.921875 C 11.027344 7.027344 11.023438 7.363281 10.46875 7.726562 C 9.738281 8.207031 9.136719 8.859375 9.136719 9.167969 C 9.136719 9.328125 9.601562 9.941406 10.164062 10.53125 C 11.085938 11.496094 11.238281 11.753906 11.65625 13.089844 C 11.921875 13.921875 12.25 14.648438 12.410156 14.75 C 12.640625 14.894531 12.921875 14.808594 13.761719 14.34375 L 14.101562 14.15625 C 14.769531 13.789062 14.839844 13.65625 15.300781 14.34375 C 15.558594 14.667969 15.964844 15.335938 16.199219 15.832031 C 16.707031 16.902344 16.617188 17.148438 15.582031 17.5625 C 13.269531 18.488281 11.957031 17.496094 9.21875 12.753906 C 6.921875 8.777344 6.480469 7.269531 7.179688 5.847656 C 7.542969 5.105469 8.570312 4.125 8.984375 4.125 Z M 8.984375 4.125 "/>
</g>
</svg>
