
<svg xmlns="http://www.w3.org/2000/svg" xmlns:xlink="http://www.w3.org/1999/xlink" width="22px" height="22px" viewBox="0 0 22 22" version="1.1">
<defs>
<filter id="alpha" filterUnits="objectBoundingBox" x="0%" y="0%" width="100%" height="100%">
  <feColorMatrix type="matrix" in="SourceGraphic" values="0 0 0 0 1 0 0 0 0 1 0 0 0 0 1 0 0 0 1 0"/>
</filter>
<mask id="mask0">
  <g filter="url(#alpha)">
<rect x="0" y="0" width="22" height="22" style="fill:rgb(0%,0%,0%);fill-opacity:0.3;stroke:none;"/>
  </g>
</mask>
<clipPath id="clip1">
  <rect x="0" y="0" width="22" height="22"/>
</clipPath>
<g id="surface5" clip-path="url(#clip1)">
<path style=" stroke:none;fill-rule:nonzero;fill:rgb(87.450981%,87.450981%,87.450981%);fill-opacity:1;" d="M 10.578125 1.378906 C 8.011719 1.421875 5.984375 2.367188 4.101562 4.234375 C 2.070312 6.25 1.339844 8.101562 1.347656 11.203125 C 1.351562 12.441406 1.476562 13.410156 1.710938 14.25 L 2.714844 12.308594 C 3.089844 11.589844 3.820312 11.058594 4.675781 11.007812 C 4.75 11.003906 4.820312 10.996094 4.894531 11 C 4.90625 11 4.917969 11 4.929688 11.003906 C 5.792969 11.046875 6.535156 11.582031 6.910156 12.308594 L 8.808594 15.988281 L 10.710938 19.675781 C 10.863281 19.972656 10.933594 20.285156 10.960938 20.601562 C 11.167969 20.601562 11.304688 20.621094 11.566406 20.609375 C 14.289062 20.496094 16.132812 19.730469 17.871094 18 C 19.625 16.253906 20.5 14.152344 20.671875 11.289062 C 20.976562 6.164062 18.234375 2.558594 13.34375 1.636719 C 12.351562 1.449219 11.433594 1.363281 10.578125 1.378906 Z M 8.984375 4.125 C 9.351562 4.125 10.003906 4.90625 10.496094 5.921875 C 11.027344 7.03125 11.023438 7.367188 10.472656 7.730469 C 9.742188 8.210938 9.140625 8.859375 9.140625 9.167969 C 9.140625 9.328125 9.601562 9.941406 10.164062 10.53125 C 11.085938 11.5 11.238281 11.753906 11.65625 13.089844 C 11.921875 13.921875 12.25 14.652344 12.414062 14.75 C 12.640625 14.894531 12.921875 14.808594 13.761719 14.347656 L 14.101562 14.15625 C 14.769531 13.789062 14.839844 13.65625 15.300781 14.347656 C 15.558594 14.667969 15.964844 15.335938 16.199219 15.832031 C 16.707031 16.902344 16.617188 17.148438 15.582031 17.5625 C 13.269531 18.488281 11.957031 17.496094 9.21875 12.753906 C 6.925781 8.78125 6.480469 7.269531 7.179688 5.847656 C 7.542969 5.105469 8.574219 4.125 8.984375 4.125 Z M 8.984375 4.125 "/>
</g>
</defs>
<g id="surface1">
<use xlink:href="#surface5" mask="url(#mask0)"/>
<path style=" stroke:none;fill-rule:nonzero;fill:rgb(87.450981%,87.450981%,87.450981%);fill-opacity:1;" d="M 4.859375 12.375 C 4.824219 12.375 4.792969 12.375 4.757812 12.378906 C 4.417969 12.398438 4.109375 12.609375 3.9375 12.9375 L 0.132812 20.304688 C -0.046875 20.65625 -0.0429688 21.085938 0.136719 21.433594 C 0.316406 21.785156 0.648438 22 1.011719 22 L 8.617188 22 C 8.976562 22 9.308594 21.785156 9.488281 21.433594 C 9.671875 21.085938 9.671875 20.65625 9.492188 20.304688 L 7.585938 16.621094 L 5.6875 12.9375 C 5.515625 12.605469 5.203125 12.390625 4.859375 12.375 Z M 4.125 13.75 L 5.5 13.75 L 5.5 17.875 L 4.125 17.875 Z M 4.125 19.25 L 5.5 19.25 L 5.5 20.625 L 4.125 20.625 Z M 4.125 19.25 "/>
</g>
</svg>
