<svg style="clip-rule:evenodd;fill-rule:evenodd;stroke-linejoin:round;stroke-miterlimit:2" version="1.1" viewBox="0 0 48 48" xmlns="http://www.w3.org/2000/svg">
 <path d="m44.928 24.216c0 11.476-9.302 20.778-20.778 20.778-11.474 0-20.778-9.302-20.778-20.778 0-11.474 9.304-20.778 20.778-20.778 11.476 0 20.778 9.304 20.778 20.778z" style="fill-rule:nonzero;fill:url(#_Linear1)"/>
 <path d="m6.249 16.196c0.256 0.255 1.534 1.023 1.79 1.789 0.257 0.765 0.769 5.108 2.305 6.386 1.584 1.317 7.557 0.827 8.701 0.257 2.56-1.276 2.874-4.839 3.327-6.643 0.255-1.022 1.79-1.022 1.79-1.022s1.537 0 1.792 1.021c0.453 1.805 0.769 5.368 3.326 6.643 1.146 0.571 7.119 1.061 8.705-0.256 1.533-1.278 2.045-5.621 2.301-6.387 0.255-0.766 1.535-1.533 1.791-1.788 0.258-0.255 0.258-1.277 0-1.533-0.511-0.511-6.55-0.965-13.052-0.255-1.297 0.142-1.79 0.511-4.863 0.511-3.07 0-3.565-0.369-4.861-0.51-6.5-0.711-12.541-0.257-13.052 0.254-0.255 0.256-0.255 1.278 0 1.533z" style="fill:url(#_Linear2)"/>
 <path d="m35.321 26.462c-0.216-0.134-0.5-0.097-0.673 0.089-0.036 0.038-3.575 3.788-8.597 4.689-5.009 0.898-9.646-1.384-9.691-1.407-0.228-0.113-0.506-0.05-0.662 0.15s-0.147 0.486 0.02 0.677c0.176 0.202 4.37 4.904 10.899 3.733 6.529-1.172 8.827-7.039 8.921-7.289 0.09-0.238-1e-3 -0.508-0.217-0.642z" style="fill-rule:nonzero;fill:#664500"/>
 <defs>
  <linearGradient id="_Linear1" x2="1" gradientTransform="matrix(2.54449e-15,-41.5546,41.5546,2.54449e-15,24.315,44.9943)" gradientUnits="userSpaceOnUse">
   <stop style="stop-color:#ffb200" offset="0"/>
   <stop style="stop-color:#ffcc4d" offset="1"/>
  </linearGradient>
  <linearGradient id="_Linear2" x2="1" gradientTransform="matrix(36.2129,0,0,11.1681,6.05729,19.6257)" gradientUnits="userSpaceOnUse">
   <stop style="stop-color:#dc00ff" offset="0"/>
   <stop style="stop-color:#d42a94" offset=".5"/>
   <stop style="stop-color:#0054a9" offset="1"/>
  </linearGradient>
 </defs>
</svg>
