<?xml version="1.0" encoding="UTF-8" standalone="no"?>
<!DOCTYPE svg PUBLIC "-//W3C//DTD SVG 1.1//EN" "http://www.w3.org/Graphics/SVG/1.1/DTD/svg11.dtd">
<svg width="100%" height="100%" viewBox="0 0 32 32" version="1.1" xmlns="http://www.w3.org/2000/svg" xmlns:xlink="http://www.w3.org/1999/xlink" xml:space="preserve" xmlns:serif="http://www.serif.com/" style="fill-rule:evenodd;clip-rule:evenodd;stroke-linejoin:round;stroke-miterlimit:1.41421;">
    <g transform="matrix(1,0,0,1,-384.571,-515.798)">
        <path d="M400.571,531.798Z" style="fill:url(#_Linear1);"/>
        <g transform="matrix(1.11754,0,0,1.11754,-47.0153,-62.4602)">
            <circle cx="400.571" cy="531.798" r="14" style="fill:url(#_Linear2);"/>
            <circle cx="400.571" cy="531.798" r="14" style="fill:none;"/>
            <g transform="matrix(0.0401305,0,0,0.0401305,390.592,522.816)">
                <path d="M241.897,306.471L484.006,189.845L484.006,179.186L241.897,62.561L0,179.083L0,189.946L241.897,306.471Z" style="fill:url(#_Linear3);fill-rule:nonzero;"/>
                <path d="M83.808,251.571L83.808,321.271L229.644,391.521L254.15,391.521L399.585,321.464C399.725,321.157 399.856,320.851 399.987,320.542L399.987,251.57L241.897,327.722L83.808,251.571Z" style="fill:url(#_Linear4);fill-rule:nonzero;"/>
                <path d="M470.981,396.203L458.506,358.195L458.506,222.599L439.359,232.255L439.359,358.195L426.883,396.203L445.742,421.445L452.123,421.445L470.981,396.203Z" style="fill:url(#_Linear5);fill-rule:nonzero;"/>
            </g>
        </g>
    </g>
    <defs>
        <linearGradient id="_Linear1" x1="0" y1="0" x2="1" y2="0" gradientUnits="userSpaceOnUse" gradientTransform="matrix(1.71451e-15,-28,28,1.71451e-15,399.571,545.798)"><stop offset="0" style="stop-color:rgb(56,137,233);stop-opacity:1"/><stop offset="1" style="stop-color:rgb(94,165,251);stop-opacity:1"/></linearGradient>
        <linearGradient id="_Linear2" x1="0" y1="0" x2="1" y2="0" gradientUnits="userSpaceOnUse" gradientTransform="matrix(0.18732,-28.3016,28.3016,0.18732,400.512,546.074)"><stop offset="0" style="stop-color:rgb(0,127,50);stop-opacity:1"/><stop offset="1" style="stop-color:rgb(43,206,89);stop-opacity:1"/></linearGradient>
        <linearGradient id="_Linear3" x1="0" y1="0" x2="1" y2="0" gradientUnits="userSpaceOnUse" gradientTransform="matrix(-32.9461,-364.917,364.917,-32.9461,238.073,372.358)"><stop offset="0" style="stop-color:rgb(232,232,232);stop-opacity:0.921569"/><stop offset="1" style="stop-color:rgb(255,252,255);stop-opacity:1"/></linearGradient>
        <linearGradient id="_Linear4" x1="0" y1="0" x2="1" y2="0" gradientUnits="userSpaceOnUse" gradientTransform="matrix(-32.9461,-364.917,364.917,-32.9461,238.073,372.358)"><stop offset="0" style="stop-color:rgb(232,232,232);stop-opacity:0.921569"/><stop offset="1" style="stop-color:rgb(255,252,255);stop-opacity:1"/></linearGradient>
        <linearGradient id="_Linear5" x1="0" y1="0" x2="1" y2="0" gradientUnits="userSpaceOnUse" gradientTransform="matrix(-32.9461,-364.917,364.917,-32.9461,238.073,372.358)"><stop offset="0" style="stop-color:rgb(232,232,232);stop-opacity:0.921569"/><stop offset="1" style="stop-color:rgb(255,252,255);stop-opacity:1"/></linearGradient>
    </defs>
</svg>
