<?xml version="1.0" encoding="UTF-8" standalone="no"?><!DOCTYPE svg PUBLIC "-//W3C//DTD SVG 1.1//EN" "http://www.w3.org/Graphics/SVG/1.1/DTD/svg11.dtd"><svg width="100%" height="100%" viewBox="0 0 22 22" version="1.1" xmlns="http://www.w3.org/2000/svg" xmlns:xlink="http://www.w3.org/1999/xlink" xml:space="preserve" xmlns:serif="http://www.serif.com/" style="fill-rule:evenodd;clip-rule:evenodd;stroke-linejoin:round;stroke-miterlimit:1.41421;"><path d="M21.054,7.987c0,10.292 0,12.866 -7.719,12.866c-3.914,0 -5.839,-0.668 -6.79,-2.662c-0.307,0.058 -0.617,0.088 -0.93,0.088c-2.842,0 -5.146,-2.303 -5.146,-5.145c0,-2.844 2.304,-5.147 5.146,-5.147l15.439,0Zm-15.439,2.573l0.01,0c0.015,2.054 0.067,3.781 0.252,5.129c-0.087,0.009 -0.174,0.016 -0.262,0.018c-1.421,0 -2.574,-1.153 -2.574,-2.573c0,-1.386 1.096,-2.516 2.574,-2.574Z" style="fill:#dfdfdf;"/></svg>