<?xml version="1.0" encoding="UTF-8" standalone="no"?><!DOCTYPE svg PUBLIC "-//W3C//DTD SVG 1.1//EN" "http://www.w3.org/Graphics/SVG/1.1/DTD/svg11.dtd"><svg width="100%" height="100%" viewBox="0 0 22 22" version="1.1" xmlns="http://www.w3.org/2000/svg" xmlns:xlink="http://www.w3.org/1999/xlink" xml:space="preserve" xmlns:serif="http://www.serif.com/" style="fill-rule:evenodd;clip-rule:evenodd;stroke-linejoin:round;stroke-miterlimit:1.41421;"><path id="path2" d="M5.076,2.066c-0.972,0 -1.907,0.386 -2.597,1.075c-0.688,0.689 -1.076,1.624 -1.076,2.598c0,3.144 0,7.643 0,10.787c0,0.974 0.388,1.908 1.076,2.598c0.69,0.688 1.625,1.076 2.597,1.076c3.405,0 8.443,0 11.846,0c0.974,0 1.909,-0.388 2.598,-1.076c0.689,-0.69 1.075,-1.624 1.075,-2.598c0,-3.144 0,-7.643 0,-10.787c0,-0.974 -0.386,-1.909 -1.075,-2.598c-0.689,-0.689 -1.624,-1.075 -2.598,-1.075c-3.403,0 -8.441,0 -11.846,0Zm-2.562,3.696c0.001,-0.694 0.278,-1.359 0.771,-1.848c0.492,-0.491 1.16,-0.765 1.853,-0.762c3.183,0.01 8.521,0.027 11.697,0.037c1.439,0.003 2.604,1.171 2.609,2.609c0.011,4.284 0.032,12.356 0.032,12.356l-16.99,0.075c0,0 0.018,-8.147 0.028,-12.467Z" style="fill:#dfdfdf;fill-rule:nonzero;"/><path id="Layer1" d="M2.075,18.63l0,-3.387l4.696,-7.98l5.245,9.308l4.041,-4.499l3.488,4.561l0,1.906l-17.47,0.091Z" style="fill:#dfdfdf;"/></svg>