<svg style="clip-rule:evenodd;fill-rule:evenodd;stroke-linejoin:round;stroke-miterlimit:2" version="1.1" viewBox="0 0 16 16" xmlns="http://www.w3.org/2000/svg">
 <path d="m7.411 1-4 4h-1.49c-0.509 0-0.921 0.412-0.921 0.921v4.158c0 0.509 0.412 0.921 0.921 0.921h1.49l4 4v-14z" style="fill:rgb(13,104,195)"/>
 <path d="m8.251 9.107c0.612 0 1.108-0.495 1.108-1.107s-0.496-1.107-1.108-1.107v2.214z" style="fill:rgb(13,104,195)"/>
 <path d="m10.657 14.864c-0.19-0.269-0.059-0.576 0.282-0.771 1.97-1.188 3.436-3.74 3.436-6.074s-1.434-4.861-3.409-6.04c-0.346-0.198-0.532-0.568-0.351-0.846 0.178-0.274 0.621-0.22 0.805-0.116 2.44 1.456 3.963 4.101 3.963 6.983s-1.523 5.527-3.958 6.992c-0.186 0.106-0.567 0.157-0.768-0.128z" style="fill:rgb(13,104,195)"/>
 <path d="m9.335 11.907c-0.244-0.324 0.069-0.678 0.378-0.852 0.934-0.57 1.643-1.931 1.643-3.055s-0.769-2.505-1.714-3.055c-0.319-0.18-0.561-0.535-0.333-0.811 0.274-0.331 0.589-0.238 0.775-0.137 1.397 0.826 2.283 2.339 2.283 4.003s-0.886 3.177-2.273 4.022c-0.191 0.104-0.496 0.234-0.759-0.115z" style="fill:rgb(13,104,195)"/>
</svg>
