<svg style="clip-rule:evenodd;fill-rule:evenodd;stroke-linejoin:round;stroke-miterlimit:2" version="1.1" viewBox="0 0 16 16" xmlns="http://www.w3.org/2000/svg">
 <path d="m7.411 1-4 4h-1.49c-0.509 0-0.921 0.412-0.921 0.921v4.158c0 0.509 0.412 0.921 0.921 0.921h1.49l4 4v-14z" style="fill:rgb(223,223,223)"/>
 <g transform="translate(-2.134 3.11663)">
  <path d="m11.821 2.055c0-0.346-0.28-0.626-0.625-0.626s-0.625 0.28-0.625 0.626v5.935c0 0.345 0.28 0.625 0.625 0.625s0.625-0.28 0.625-0.625v-5.935z" style="fill:rgb(223,223,223)"/>
 </g>
 <g transform="matrix(1 0 0 1.9482 .406948 -1.78453)">
  <path d="m11.821 1.75c0-0.177-0.28-0.321-0.625-0.321s-0.625 0.144-0.625 0.321v6.544c0 0.178 0.28 0.321 0.625 0.321s0.625-0.143 0.625-0.321v-6.544z" style="fill:rgb(223,223,223)"/>
 </g>
 <g transform="matrix(1,0,0,1.40884,3.12655,1.0633)">
  <path d="m11.821 1.873c0-0.245-0.28-0.444-0.625-0.444s-0.625 0.199-0.625 0.444v6.299c0 0.245 0.28 0.443 0.625 0.443s0.625-0.198 0.625-0.443v-6.299z" style="fill:rgb(223,223,223)"/>
 </g>
</svg>
