<svg style="clip-rule:evenodd;fill-rule:evenodd;stroke-linejoin:round;stroke-miterlimit:2" version="1.1" viewBox="0 0 16 16" xmlns="http://www.w3.org/2000/svg">
 <path d="m4.063 4.288c0.334-1.874 1.964-3.288 3.937-3.288 2.216 0 4 1.784 4 4v2h1c0.554 0 1 0.446 1 1v6c0 0.554-0.446 1-1 1h-10c-0.554 0-1-0.446-1-1v-6c0-0.554 0.446-1 1-1h7v-2c0-1.108-0.892-2-2-2-0.857 0-1.585 0.534-1.87 1.288h-2.067zm8.969 4.477c0-0.422-0.343-0.765-0.765-0.765h-8.534c-0.422 0-0.765 0.343-0.765 0.765v4.703c0 0.422 0.343 0.765 0.765 0.765h8.534c0.422 0 0.765-0.343 0.765-0.765v-4.703z" style="fill:rgb(223,223,223)"/>
 <g transform="matrix(1.05187 0 0 1.02614 -.446259 -.20915)">
  <path d="m12.814 8.746c0-0.412-0.326-0.746-0.727-0.746h-8.114c-0.401 0-0.727 0.334-0.727 0.746v4.583c0 0.411 0.326 0.745 0.727 0.745h8.114c0.401 0 0.727-0.334 0.727-0.745v-4.583z" style="fill-opacity:.5;fill:rgb(235,235,235)"/>
 </g>
</svg>
