<svg style="clip-rule:evenodd;fill-rule:evenodd;stroke-linejoin:round;stroke-miterlimit:2" version="1.1" viewBox="0 0 16 16" xmlns="http://www.w3.org/2000/svg">
 <g transform="matrix(.699622 0 0 .626752 7.84439 7.4653)">
  <path d="m11.657 2.206c-0.601-0.967-7.351-1.046-8.268 0v10.057c1.105 1.792 7.211 1.82 8.268 0v-10.057zm-4.134 0.047c1.909 0 3.458 0.325 3.458 0.725 0 0.401-1.549 0.726-3.458 0.726s-3.458-0.325-3.458-0.726c0-0.4 1.549-0.725 3.458-0.725z" style="fill:rgb(199,41,41)"/>
 </g>
 <path d="m4.391 2.089c0.424 0 0.626 0.22 0.942 0.639 0.317 0.418 0.461 0.683 1.041 0.706h8.683c0.523 0 0.943 0.42 0.943 0.942v3.266h-0.889v-2.747c0-0.317-0.255-0.572-0.572-0.572h-8.425c-0.362 0-1.003-0.436-1.232-0.665s-0.416-0.68-1.01-0.68h-2.411c-0.317 0-0.572 0.255-0.572 0.572v9.978c0 0.317 0.255 0.572 0.572 0.572h7.923v0.889h-8.441c-0.523 0-0.943-0.42-0.943-0.942v-11.015c0-0.522 0.42-0.943 0.943-0.943h3.448z" style="fill-rule:nonzero;fill:rgb(223,223,223)"/>
</svg>
