<svg width="100%" height="100%" viewBox="0 0 16 16" version="1.1" xmlns="http://www.w3.org/2000/svg" xmlns:xlink="http://www.w3.org/1999/xlink" xml:space="preserve" xmlns:serif="http://www.serif.com/" style="fill-rule:evenodd;clip-rule:evenodd;stroke-linejoin:round;stroke-miterlimit:1.41421;">
    <g transform="matrix(0.862265,0,0,1.01323,1.03302,-0.107466)">
        <path d="M14.685,0.795L12.067,15.633L2.997,15.633L0.287,0.795L14.685,0.795Z" style="fill:rgb(92,97,108);fill-opacity:0.2;fill-rule:nonzero;"/>
    </g>
    <g transform="matrix(0.862265,0,0,1.01323,1.03302,-0.107466)">
        <path d="M14.685,0.795L12.067,15.633L2.997,15.633L0.287,0.795L14.685,0.795ZM13.236,1.871L1.869,1.871L4.175,14.522L10.988,14.532L13.236,1.871Z" style="fill:rgb(92,97,108);fill-rule:nonzero;"/>
    </g>
    <g transform="matrix(1.08158,0.191509,-0.174352,0.984683,1.66547,0.477248)">
        <rect x="4.911" y="8.202" width="2.589" height="2.878" style="fill:rgb(92,97,108);"/>
    </g>
    <g transform="matrix(0.98717,-0.430024,0.399366,0.916791,-0.791041,1.06163)">
        <rect x="4.911" y="8.202" width="2.589" height="2.878" style="fill:rgb(92,97,108);"/>
    </g>
</svg>
