<svg xmlns="http://www.w3.org/2000/svg" style="clip-rule:evenodd;fill-rule:evenodd;stroke-linejoin:round;stroke-miterlimit:2" version="1.1" viewBox="0 0 16 16">
 <defs>
  <style id="current-color-scheme" type="text/css">
   .ColorScheme-Text { color:#dfdfdf; } .ColorScheme-Highlight { color:#4285f4; } .ColorScheme-NeutralText { color:#ff9800; } .ColorScheme-PositiveText { color:#4caf50; } .ColorScheme-NegativeText { color:#f44336; }
  </style>
 </defs>
  <path style="fill:currentColor;" class="ColorScheme-Text" d="m13.921 11.713v-1.721c.214-.626.33-1.297.33-1.992 0-3.429-2.822-6.251-6.251-6.251s-6.251 2.822-6.251 6.251 2.822 6.251 6.251 6.251c.818 0 1.602-.161 2.321-.452v.801c-.728.259-1.509.4-2.321.4-3.84 0-7-3.16-7-7s3.16-7 7-7 7 3.16 7 7c0 1.36-.396 2.634-1.079 3.713zm-5.963-4.63 2.06-3.887c.121-.227.404-.314.631-.194.228.121.314.404.194.631l-2.094 3.95c.039.095.06.199.06.308 0 .447-.362.809-.809.809-.221 0-.421-.088-.567-.231-.081.008-.166.001-.249-.024l-3.191-.938c-.348-.103-.548-.469-.445-.817.102-.348.468-.547.816-.445l3.224.949c.109-.065.235-.104.37-.111z"/>
  <path style="fill:currentColor;" class="ColorScheme-NeutralText" d="m12.058 13.909c.536 0 .973.436.973.973s-.437.972-.973.972c-.537 0-.973-.435-.973-.972s.436-.973.973-.973zm-1.109-5.32c0-.292.116-.572.323-.779s.488-.324.78-.324h.011c.293 0 .573.117.78.324s.323.487.323.779c0 1.233-.29 2.91-.29 3.819 0 .216-.086.423-.238.576-.153.153-.36.239-.576.239h-.008c-.216 0-.423-.086-.576-.239s-.239-.36-.239-.576c0-.909-.29-2.586-.29-3.819z"/>
</svg>
