<svg xmlns="http://www.w3.org/2000/svg" style="clip-rule:evenodd;fill-rule:evenodd;stroke-linejoin:round;stroke-miterlimit:2" version="1.1" viewBox="0 0 16 16">
 <defs>
  <style id="current-color-scheme" type="text/css">
   .ColorScheme-Text { color:#dfdfdf; } .ColorScheme-Highlight { color:#4285f4; } .ColorScheme-NeutralText { color:#ff9800; } .ColorScheme-PositiveText { color:#4caf50; } .ColorScheme-NegativeText { color:#f44336; }
  </style>
 </defs>
 <path style="fill-rule:nonzero;fill:currentColor;" class="ColorScheme-Text" d="m8.066 4.728c-0.748 0-1.352 0.604-1.352 1.352 0 0.559 0.333 1.037 0.82 1.244l-1.006 3.378c1.135 0.771 2.157 0.748 3.076 0l-1.007-3.378c0.487-0.207 0.82-0.685 0.82-1.244 0-0.748-0.603-1.352-1.351-1.352z"/>
 <path style="fill-opacity:.3;;fill:currentColor;" class="ColorScheme-Text" d="m0.792 7.878 0.33-1.005c0.733 0.258 1.278 0.488 1.623 0.689-0.1-0.847-0.144-1.436-0.144-1.752h1.02c-0.014 0.459-0.072 1.048-0.172 1.738 0.488-0.245 1.034-0.46 1.666-0.675l0.316 1.005c-0.589 0.187-1.178 0.316-1.752 0.388 0.287 0.244 0.689 0.689 1.206 1.321l-0.833 0.603c-0.273-0.373-0.589-0.876-0.962-1.508-0.345 0.661-0.647 1.163-0.919 1.508l-0.819-0.603c0.546-0.661 0.933-1.106 1.163-1.321-0.603-0.115-1.177-0.244-1.723-0.388zm9.909 0 0.33-1.005c0.732 0.258 1.278 0.488 1.623 0.689-0.101-0.847-0.144-1.436-0.144-1.752h1.02c-0.015 0.459-0.072 1.048-0.173 1.738 0.489-0.245 1.034-0.46 1.666-0.675l0.316 1.005c-0.589 0.187-1.177 0.316-1.752 0.388 0.287 0.244 0.69 0.689 1.207 1.321l-0.833 0.603c-0.273-0.373-0.589-0.876-0.963-1.508-0.344 0.661-0.646 1.163-0.919 1.508l-0.818-0.603c0.545-0.661 0.933-1.106 1.163-1.321-0.603-0.115-1.178-0.244-1.723-0.388z"/>
</svg>
