<svg xmlns="http://www.w3.org/2000/svg" style="clip-rule:evenodd;fill-rule:evenodd;stroke-linejoin:round;stroke-miterlimit:2" viewBox="0 0 16 16">
 <defs>
  <style id="current-color-scheme" type="text/css">
   .ColorScheme-Text { color:#dfdfdf; } .ColorScheme-Highlight { color:#4285f4; } .ColorScheme-NeutralText { color:#ff9800; } .ColorScheme-PositiveText { color:#4caf50; } .ColorScheme-NegativeText { color:#f44336; }
  </style>
 </defs>
 <path style="fill:currentColor" class="ColorScheme-Text" fill-opacity=".3" d="m11 6-2 2 2 2h3c0.55 0 1-0.45 1-1v-2c0-0.55-0.45-1-1-1h-3z"/>
 <path style="fill:currentColor" class="ColorScheme-Text" d="m8 9-2 2v3c0 0.55 0.45 1 1 1h2c0.55 0 1-0.45 1-1v-3l-2-2zm-6-3c-0.55 0-1 0.45-1 1v2c0 0.55 0.45 1.01 1 1h3l2-2-2-2h-3zm5-5c-0.55 0-1 0.44-1 1v3l2 2 2-2v-3c0-0.56-0.45-1-1-1h-2z"/>
</svg>
