<svg xmlns="http://www.w3.org/2000/svg" viewBox="0 0 16 16">
 <defs>
  <style id="current-color-scheme" type="text/css">
   .ColorScheme-Text { color:#dfdfdf; } .ColorScheme-Highlight { color:#4285f4; } .ColorScheme-NeutralText { color:#ff9800; } .ColorScheme-PositiveText { color:#4caf50; } .ColorScheme-NegativeText { color:#f44336; }
  </style>
 </defs>
  <path style="fill:currentColor" class="ColorScheme-Text" d="m11.945 3.458h2.203v2.203h-2.203zm-6.707 0h2.204v2.203h-2.204zm3.374 0h2.204v2.203h-2.204zm-6.76 0h2.204v2.203h-2.204zm6.745 3.118h2.203v2.204h-2.203zm3.348 0h2.203v2.204h-2.203zm-6.707 0h2.204v2.204h-2.204zm-3.386 0h2.204v2.204h-2.204zm0 3.891h12.296v2.075h-12.296z"/>
  <path fill="#ff9800" d="m12.776 10.102-.776 2.898 2.898.776c.429-1.6-.521-3.245-2.122-3.674z"/>
  <path fill="#4285f4" d="m12.776 10.102-.776 2.898-2.898-.776c.429-1.601 2.074-2.551 3.674-2.122z"/>
  <path fill="#4caf50" d="m11.224 15.898.776-2.898 2.898.776c-.429 1.601-2.074 2.551-3.674 2.122z"/>
  <path fill="#f44336" d="m11.224 15.898.776-2.898-2.898-.776c-.429 1.6.521 3.245 2.122 3.674z"/>
</svg>
