<svg xmlns="http://www.w3.org/2000/svg" width="100%" height="100%" viewBox="0 0 16 16">
  <defs>
  <style id="current-color-scheme" type="text/css">
  .ColorScheme-Text { color:#dfdfdf; } .ColorScheme-Highlight { color:#4285f4; } .ColorScheme-NeutralText { color:#ff9800; } .ColorScheme-PositiveText { color:#4caf50; } .ColorScheme-NegativeText { color:#f44336; }
  </style>
 </defs>
 <path style="fill:currentColor" class="ColorScheme-Text" d="m12 1.082-10.471 3.201c-.313.081-.529.334-.529.623v4.195c0 .288.216.542.529.623l2.758.81v3.109c0 .548.445.992.993.992h.015c.548 0 .992-.444.992-.992 0-1.06 0-2.59 0-2.59l5.768 1.922c.472.123.945-.189.945-.623v-3.352h1.071c.513 0 .929-.416.929-.929 0-.642 0-1.494 0-2.137 0-.512-.414-.927-.926-.928-.358-.002-.716-.004-1.074-.006v-3.344c0-.459-.478-.714-1-.574z"/>
</svg>
