<svg xmlns="http://www.w3.org/2000/svg" style="clip-rule:evenodd;fill-rule:evenodd;stroke-linejoin:round;stroke-miterlimit:2" viewBox="0 0 16 16">
 <defs>
  <style id="current-color-scheme" type="text/css">
   .ColorScheme-Text { color:#dfdfdf; } .ColorScheme-Highlight { color:#4285f4; } .ColorScheme-NeutralText { color:#ff9800; } .ColorScheme-PositiveText { color:#4caf50; } .ColorScheme-NegativeText { color:#f44336; }
  </style>
 </defs>
 <g transform="matrix(.963702 0 0 .941667 .290381 .785112)">
  <rect style="fill:currentColor" class="ColorScheme-Text" fill-opacity=".3" width="10.938" height="7.146" x="2.53" y="6.31"/>
 </g>
 <path style="fill:currentColor" class="ColorScheme-Text" d="m2 14c0 1 1 1 1 1h2v-1h6v1h2c1 0 1-1 1-1v-12c0-1-1-1-1-1h-7l-4 4v9zm11.27-7.27h-10.54v6.729h10.54v-6.729zm-6.27-3.73h1v3h-1v-3zm-2 1h1v2h-1v-2zm4-1h1v3h-1v-3zm2 0h1v3h-1v-3z"/>
</svg>
