<svg xmlns="http://www.w3.org/2000/svg" style="clip-rule:evenodd;fill-rule:evenodd;stroke-linejoin:round;stroke-miterlimit:2" version="1.1" viewBox="0 0 16 16">
 <defs>
  <style id="current-color-scheme" type="text/css">
   .ColorScheme-Text { color:#dfdfdf; } .ColorScheme-Highlight { color:#4285f4; } .ColorScheme-NeutralText { color:#ff9800; } .ColorScheme-PositiveText { color:#4caf50; } .ColorScheme-NegativeText { color:#f44336; }
  </style>
 </defs>
 <path style="fill:currentColor;" class="ColorScheme-Text" d="m0.695 12v-1h4.305v2h-3.305c-0.554 0-1-0.446-1-1zm5.697 1v-2h8.854v1c0 0.554-0.446 1-1 1h-7.854z"/>
 <path style="fill-opacity:.3;fill:currentColor;" class="ColorScheme-Text" d="m0 11v-3c0.549 0 1-0.451 1-1 0-0.511-0.392-0.943-0.9-0.994-0.033-4e-3 -0.067-6e-3 -0.1-6e-3v-2c0-0.554 0.446-1 1-1h14c0.554 0 1 0.446 1 1v2l-0.07 2e-3c-0.521 0.037-0.93 0.476-0.93 0.998 0 0.549 0.451 1 1 1v3h-16zm3-2h2v-4h-2v4zm8 0h2v-4h-2v4zm-4 0h2v-4h-2v4z"/>
</svg>
