<svg xmlns="http://www.w3.org/2000/svg" style="clip-rule:evenodd;fill-rule:evenodd;stroke-linejoin:round;stroke-miterlimit:2" version="1.1" viewBox="0 0 16 16">
 <defs>
  <style id="current-color-scheme" type="text/css">
   .ColorScheme-Text { color:#dfdfdf; } .ColorScheme-Highlight { color:#4285f4; } .ColorScheme-NeutralText { color:#ff9800; } .ColorScheme-PositiveText { color:#4caf50; } .ColorScheme-NegativeText { color:#f44336; }
  </style>
 </defs>
 <path style="fill:currentColor;" class="ColorScheme-Highlight" d="m15 8c0 3.86-3.13 7-7 7s-7-3.14-7-7c0-3.87 3.13-7 7-7s7 3.13 7 7zm-0.864 0c0-3.393-2.743-6.136-6.136-6.136s-6.136 2.743-6.136 6.136c0 3.384 2.743 6.136 6.136 6.136s6.136-2.752 6.136-6.136zm-3.544-1.397c0.771-0 1.396 0.625 1.396 1.396v2e-3c-0 0.771-0.625 1.396-1.396 1.396h-5.184c-0.771-0-1.396-0.625-1.396-1.396v-2e-3c0-0.771 0.625-1.396 1.396-1.396h5.184z"/>
</svg>
