<svg xmlns="http://www.w3.org/2000/svg" viewBox="0 0 16 16">
 <defs>
  <style id="current-color-scheme" type="text/css">
   .ColorScheme-Text { color:#dfdfdf; } .ColorScheme-Highlight { color:#4285f4; } .ColorScheme-NeutralText { color:#ff9800; } .ColorScheme-PositiveText { color:#4caf50; } .ColorScheme-NegativeText { color:#f44336; }
  </style>
 </defs>
 <path style="fill:currentColor;" class="ColorScheme-Text" d="m2.001 1c-1.335 0-1.335 2.008 0 2.008h.286c.127 0 .221.114.03.227-.63.537-.352 1.783.679 1.769h2.253c.206.009.149.152.084.208-.518.419-.481 1.301.119 1.65.09.047.054.122-.04.122h-.42c-1.391-.051-1.391 2.068 0 2.016h1.293c.108 0 .179.125.036.208-.518.431-.465 1.313.137 1.66.176.102.067.183-.014.247-.595.353-.646 1.238-.109 1.661.124.098.05.186-.046.186h-.292c-1.355 0-1.355 2.038 0 2.038h1.016c1.011.019 1.34-1.201.72-1.767-.128-.156-.031-.234.039-.234h1.236c1.348 0 1.348-2.028 0-2.028h-.288c-.142 0-.153-.105-.076-.173.501-.379.521-1.157.064-1.568-.15-.15-.075-.23.04-.23h.266c1.003.004 1.301-1.192.705-1.748-.113-.113-.088-.248.036-.248h1.25c1.036.015 1.321-1.247.673-1.783-.082-.082-.081-.217.072-.217h1.25c1.333 0 1.333-2.008 0-2.008h-.322c-.118 0-.153-.1-.068-.169.722-.501.462-1.841-.607-1.827z"/>
</svg>
