<svg id="svg2" version="1.1" viewBox="0 0 16 16" xmlns="http://www.w3.org/2000/svg">
 <defs id="defs1">
  <style id="current-color-scheme" type="text/css">.ColorScheme-Text { color:#444444; } .ColorScheme-Highlight { color:#4285f4; } .ColorScheme-NeutralText { color:#ff9800; } .ColorScheme-PositiveText { color:#4caf50; } .ColorScheme-NegativeText { color:#f44336; }</style>
 </defs>
 <path id="path1" class="ColorScheme-Text" d="m15 2.0001736v8.2089844c0 0.9676-0.790665 1.791016-1.777344 1.791016h-6.0058592l-0.8613281 0.832031-0.1835939 0.167969h2.634766c0.297636 0 0.419786-0.0229 0.6152339 0.226562l0.9082033 0.876953 1.951172 1.78711c0.319751 0.309532 0.719084-0.07685 0.71875-0.695313v-1.818359c0-0.388883 0.388672-0.376953 0.388672-0.376953h1.833984c0.430889 0 0.777344-0.360161 0.777344-0.791016v-9.4316406c0-0.4308544-0.346455-0.7773438-0.777344-0.7773438z" style="fill:currentColor;opacity:.35"/>
 <path id="path2" class="ColorScheme-Text" d="M 0.77734375,0 C 0.34645495,0 0,0.34648945 0,0.77734375 V 10.208984 C 0,10.639839 0.34645495,11 0.77734375,11 H 2.6113281 C 2.6113281,11 3,10.98807 3,11.376953 v 1.818359 c -3.344e-4,0.618466 0.3990005,1.004846 0.71875,0.695313 C 4.688569,13.020039 5.6407658,12.131669 6.578125,11.226562 6.7833182,11.045311 6.8957233,11 7.1933594,11 H 13.222656 C 13.653545,11 14,10.639839 14,10.208984 V 0.77734375 C 14,0.34648945 13.653545,0 13.222656,0 Z M 1.1230207,1.1530527 H 12.876979 V 9.8095691 H 7.2272738 c -0.1146303,0 -0.8931215,-0.019289 -1.1694818,0.166363 C 5.6082297,10.277937 5.2139617,10.789496 4.8907678,11.119961 4.6700599,11.340669 4.2323002,11.81909 3.9935007,12.05789 4.0033425,11.204578 3.8812443,10.198251 3.4692829,10.004803 2.8605706,9.7189657 2.3891764,9.8095691 1.8232077,9.8095691 H 1.1230207 Z M 3,3 v 1 h 8 V 3 Z M 3,5 V 6 H 9 V 5 Z M 3,7 V 8 H 7 V 7 Z" style="fill:currentColor"/>
</svg>
