<svg width="36" height="36" xmlns="http://www.w3.org/2000/svg">
 <g transform="translate(-442,-156)">
  <path transform="translate(442,156)" d="m4.1035156 1c-2.27338 0-4.1035156 1.8301356-4.1035156 4.1035156v18.896484h35.933594v1.550781c0.034366-0.214542 0.066406-0.429772 0.066406-0.654297v-19.792968c0-2.27338-1.830136-4.1035156-4.103516-4.1035156h-27.792968zm-1.1035156 3h30v17h-30v-17z" style="fill:#000000;opacity:.81"/>
  <rect x="445" y="160" width="30" height="17" rx="0" ry="0" style="fill:#000000;opacity:.2"/>
  <path transform="translate(442,156)" d="m0 24v0.896484c0 2.27338 1.8301356 4.103516 4.1035156 4.103516h27.792968c2.048856 0 3.723505-1.49146 4.03711-3.449219v-1.550781h-1.933594v1.013672c0 1.10029-0.886038 1.986328-1.986328 1.986328h-28.027344c-1.10029 0-1.9863281-0.886038-1.9863281-1.986328v-1.013672h-2z" style="fill:#000000;opacity:.707"/>
  <circle cx="460" cy="181.5" r=".75" style="fill:#000000;opacity:.2"/>
  <rect x="453" y="189.5" width="14" height="1.5" style="fill:#000000;opacity:.844"/>
  <path transform="translate(442,156)" d="m14.25 29v1.5c2.8e-4 2.08044-2.20684 2.74844-3.25 3h14c-1.04316-0.25156-3.25028-0.91956-3.25-3v-1.5h-7.5z" style="fill:#000000;opacity:.3"/>
  <rect x="456.25" y="185" width="7.5" height="1.5" style="fill:#000000;opacity:.3"/>
 </g>
</svg>
