<svg xmlns="http://www.w3.org/2000/svg" viewBox="0 0 36 36">
 <defs>
  <style id="current-color-scheme" type="text/css">
   .ColorScheme-Text { color:#dfdfdf; } .ColorScheme-Highlight { color:#4285f4; } .ColorScheme-NeutralText { color:#ff9800; } .ColorScheme-PositiveText { color:#4caf50; } .ColorScheme-NegativeText { color:#f44336; }
  </style>
 </defs>
 <path style="fill:currentColor" class="ColorScheme-Text" fill-opacity=".71" transform="translate(-461 -175)" d="m479 175v4.129c1.239 0 2.443.165 3.585.47l1.07-3.98c-1.487-.4-3.042-.619-4.655-.619zm-4.673.619c-1.539.413-2.99 1.022-4.336 1.802l2.064 3.567c1.039-.602 2.155-1.072 3.341-1.389zm13.664 1.802-2.065 3.567c1.054.609 2.036 1.341 2.891 2.196l2.909-2.91c-1.109-1.109-2.369-2.062-3.735-2.853zm-21.717 2.872c-3.251 3.257-5.274 7.741-5.274 12.707 0 9.942 8.059 18 18 18 9.942 0 18-8.058 18-18h-4.129c0 7.661-6.21 13.871-13.871 13.871s-13.87-6.21-13.87-13.871c0-3.83 1.544-7.306 4.054-9.816zm28.305 3.716-3.566 2.065c.601 1.04 1.072 2.154 1.389 3.341l3.979-1.07c-.415-1.533-1.024-2.991-1.802-4.336zm1.802 4.336c.088.328.173.663.244.995-.071-.338-.155-.664-.244-.995zm-24.363-3.941-1.727 1.726 8.127 8.128h10.774v-2.44h-9.76z"/>
</svg>
