<svg width="36" height="36" xmlns="http://www.w3.org/2000/svg">
 <g transform="translate(-442,-156)">
  <path d="m445.98242 183.42187v4.5918c0 1.10029 0.88604 1.98633 1.98633 1.98633h24.02734c1.10029 0 1.98633-0.88604 1.98633-1.98633v-4.57226c-0.6265 0.34634-1.33999 0.55859-2.08594 0.55859h-23.79296c-0.75993 0-1.48656-0.21966-2.1211-0.57813z" style="fill-opacity:.90196078;fill:#000000;opacity:.05"/>
  <path transform="translate(442,156)" d="m7.9863281 2c-1.10029 0-1.8769981 0.8914781-1.9863281 1.9863281l-2 20.027344c-0.10933 1.09485 0.8860381 1.986328 1.9863281 1.986328h24.027344c1.10029 0 2.095658-0.891478 1.986328-1.986328l-2-20.027344c-0.10936-1.09485-0.886028-1.9863281-1.986328-1.9863281h-20.027344z" style="fill:#000000;opacity:.3"/>
  <path d="m450.10352 156c-2.27338 0-3.87497 1.84165-4.10352 4.10352l-2 19.79296c-6e-3 0.0568-3e-3 0.11172-6e-3 0.16797-2e-3 -0.0564-0.0117-0.11098-0.0117-0.16797v8c0 2.27338 1.83014 4.10352 4.10352 4.10352h23.79297c2.27338 0 4.10351-1.83014 4.10351-4.10352v-7.17382c0.0389-0.26683 0.0462-0.54344 0.0176-0.82618l-2-19.79296c-0.22845-2.26187-1.83004-4.10352-4.10342-4.10352h-19.79296zm-0.11719 2h20.02737c1.10029 0 1.877 0.89148 1.98633 1.98633l2 20.02734c0.1093 1.09485-0.88607 1.98633-1.98636 1.98633h-24.02737c-1.10029 0-2.09566-0.89148-1.98633-1.98633l2-20.02734c0.10936-1.09485 0.88607-1.98633 1.98636-1.98633zm-4.00391 25.42187c0.63454 0.35847 1.36117 0.57813 2.1211 0.57813h23.79296c0.74595 0 1.45944-0.21225 2.08594-0.55859v4.57226c0 1.10029-0.88604 1.98633-1.98633 1.98633h-24.02737c-1.10029 0-1.98633-0.88604-1.98633-1.98633v-4.5918z" style="fill:#000000;opacity:.816"/>
  <path transform="translate(442,156)" d="m6.0683594 30.009766c-0.74595 0-1.4594375 0.212253-2.0859375 0.558593v1.445313c0 1.10029 0.8860381 1.986328 1.9863281 1.986328h24.027344c1.10029 0 1.986328-0.886038 1.986328-1.986328v-1.425781c-0.63454-0.35847-1.361164-0.578125-2.121094-0.578125h-23.792969z" style="fill-opacity:.90196078;fill:#000000;opacity:.15"/>
  <rect transform="rotate(90)" x="186" y="-472" width="2" height="2" style="fill:#000000;opacity:.75"/>
  <g style="fill:#000000;opacity:.772;stroke-width:1px">
   <path d="m446.28233 172.01996v-5.52914h1.50053v5.47206q0 1.29666 0.50562 1.94906 0.50561 0.64426 1.51684 0.64426 1.21511 0 1.91645-0.77474 0.70949-0.77473 0.70949-2.11216v-5.17848h1.50054v9.13369h-1.50054v-1.40267q-0.54639 0.83182-1.27219 1.23957-0.71765 0.3996-1.67179 0.3996-1.57394 0-2.38944-0.97861-0.81551-0.97861-0.81551-2.86244zm3.7758-5.74933z" style=""/>
   <path d="m462.86161 166.75994v1.41898q-0.63609-0.3262-1.32112-0.48931-0.68503-0.1631-1.41899-0.1631-1.11724 0-1.67994 0.34252-0.55455 0.34251-0.55455 1.02754 0 0.52192 0.3996 0.82366 0.3996 0.29358 1.60655 0.5627l0.51377 0.11417q1.5984 0.34252 2.26712 0.97046 0.67687 0.61978 0.67687 1.73703 0 1.27219-1.01123 2.01431-1.00308 0.74211-2.76458 0.74211-0.73395 0-1.53315-0.14679-0.79105-0.13864-1.67179-0.42407v-1.54946q0.83181 0.43222 1.63917 0.6524 0.80735 0.21204 1.59839 0.21204 1.06017 0 1.63102-0.35883 0.57086-0.36698 0.57086-1.02754 0-0.61163-0.41591-0.93783-0.40776-0.32621-1.80228-0.62794l-0.52192-0.12233q-1.39452-0.29358-2.01431-0.89706-0.61978-0.61163-0.61978-1.67179 0-1.28851 0.91337-1.98984 0.91337-0.70134 2.59331-0.70134 0.83182 0 1.56578 0.12233 0.73396 0.12232 1.35374 0.36698z" style=""/>
   <path d="m472.3052 171.06582q0-1.65548-0.68503-2.59332-0.67687-0.94599-1.86751-0.94599t-1.87567 0.94599q-0.67687 0.93784-0.67687 2.59332t0.67687 2.60147q0.68503 0.93784 1.87567 0.93784t1.86751-0.93784q0.68503-0.94599 0.68503-2.60147zm-5.10508-3.18864q0.47299-0.81551 1.19064-1.20695 0.7258-0.3996 1.72888-0.3996 1.66364 0 2.69933 1.32112 1.04385 1.32113 1.04385 3.47407t-1.04385 3.47407q-1.03569 1.32112-2.69933 1.32112-1.00308 0-1.72888-0.39144-0.71765-0.3996-1.19064-1.21511v1.37005h-1.50869v-12.68931h1.50869v4.94198z" style=""/>
  </g>
 </g>
</svg>
