<svg style="clip-rule:evenodd;fill-rule:evenodd;stroke-linejoin:round;stroke-miterlimit:1.41421" viewBox="0 0 36 36" xmlns="http://www.w3.org/2000/svg">
 <path d="m30.527 8e-3c0.808 0.136 1.406 0.861 1.406 1.828l-0.07 25.158c-0.266 1.877-1.936 3.658-4.357 4.287-3.036 0.789-6.025-0.526-6.676-2.881-0.651-2.354 1.252-4.904 4.287-5.693 1.682-0.437 3.303-0.169 4.566 0.492v-13.452l-15.74 4.217-0.07 17.528c-0.266 1.878-1.936 3.658-4.358 4.287-3.035 0.789-6.027-0.526-6.677-2.881-0.651-2.354 1.251-4.904 4.287-5.693 1.682-0.437 3.305-0.169 4.568 0.492v-20.451c0-1.29 1.004-2.617 2.25-2.951l16.584-4.287zm-0.749 3.468l-15.94 4.247v4.903l15.885-4.107 0.055-5.043z" style="fill-opacity:.81;fill-rule:nonzero"/>
</svg>
