<svg style="clip-rule:evenodd;fill-rule:evenodd;stroke-linejoin:round;stroke-miterlimit:2" viewBox="0 0 36 36" xmlns="http://www.w3.org/2000/svg">
 <path d="m17.999 25.348 10.514-13.265c1.025-1.289 2.908-1.508 4.198-0.484 1.293 1.025 1.51 2.906 0.486 4.198l-12.841 16.197c-0.591 0.748-1.471 1.135-2.357 1.13-0.886 5e-3 -1.764-0.382-2.356-1.13l-12.84-16.196c-1.024-1.291-0.807-3.174 0.486-4.197 1.29-1.025 3.173-0.806 4.198 0.484l10.512 13.263zm0-14.908 5.329-6.723c0.761-0.96 2.16-1.123 3.121-0.36 0.961 0.761 1.123 2.161 0.361 3.12l-7.057 8.904c-0.44 0.556-1.095 0.843-1.754 0.841-0.659 2e-3 -1.313-0.285-1.752-0.841l-7.058-8.904c-0.763-0.959-0.601-2.359 0.36-3.12 0.961-0.763 2.36-0.6 3.123 0.36l5.327 6.723z" style="fill-opacity:.71"/>
</svg>
