<svg style="clip-rule:evenodd;fill-rule:evenodd;stroke-linejoin:round;stroke-miterlimit:1.41421" viewBox="0 0 36 36" xmlns="http://www.w3.org/2000/svg">
 <path d="m2.121 1.975c-1.175 0-2.121 0.945-2.121 2.121v24.783c0 1.175 0.946 2.121 2.121 2.121h31.758c1.175 0 2.121-0.946 2.121-2.121v-21.758c0-1.175-0.946-2.121-2.121-2.121h-19.537c-1.305-0.051-1.63-0.647-2.342-1.589-0.711-0.942-1.167-1.436-2.121-1.436h-7.758zm1.166 2h5.426c1.335 0 1.757 1.015 2.272 1.529 0.514 0.515 1.958 1.496 2.771 1.496h18.957c0.713 0 1.287 0.574 1.287 1.287v7.779c-0.041-2e-3 -0.08-0.011-0.121-0.011h-31.758c-0.041 0-0.08 9e-3 -0.121 0.011v-10.804c0-0.713 0.574-1.287 1.287-1.287zm0 14.08h29.426c0.713 0 1.287 0.574 1.287 1.287v8.371c0 0.713-0.574 1.287-1.287 1.287h-29.426c-0.713 0-1.287-0.574-1.287-1.287v-8.371c0-0.713 0.574-1.287 1.287-1.287z" style="fill-opacity:.75;fill-rule:nonzero"/>
 <path d="m3.287 18.055h29.426c0.713 0 1.287 0.574 1.287 1.287v8.371c0 0.713-0.574 1.287-1.287 1.287h-29.426c-0.713 0-1.287-0.574-1.287-1.287v-8.371c0-0.713 0.574-1.287 1.287-1.287z" style="fill-opacity:.179608;fill-rule:nonzero"/>
 <path d="m2 27v0.713c0 0.713 0.574 1.287 1.287 1.287h29.426c0.713 0 1.287-0.574 1.287-1.287v-0.713h-32z" style="fill-opacity:.0752941;fill-rule:nonzero"/>
</svg>
