<svg xmlns="http://www.w3.org/2000/svg" width="100%" height="100%" viewBox="0 0 36 36">
 <defs>
  <style id="current-color-scheme" type="text/css">
   .ColorScheme-Text { color:#dfdfdf; } .ColorScheme-Highlight { color:#4285f4; } .ColorScheme-NeutralText { color:#ff9800; } .ColorScheme-PositiveText { color:#4caf50; } .ColorScheme-NegativeText { color:#f44336; }
  </style>
 </defs>
  <path style="fill:currentColor" class="ColorScheme-Text" fill-opacity=".25" d="m3.792 17.634v7.829c0 .886.718 1.603 1.604 1.603h16.56v-8.161c0-.702-.568-1.271-1.27-1.271z"/>
  <path style="fill:currentColor" class="ColorScheme-Text" fill-opacity=".71" d="m35.442 14.852v14.808c0 .218-.116.418-.301.524-.186.104-.413.097-.591-.019-2.007-1.303-6.816-4.426-8.314-5.4-.284-.184-.457-.503-.46-.847-.008-.793-.02-2.249-.027-3.042-.004-.343.163-.665.442-.854 1.493-1.014 6.327-4.294 8.348-5.668.179-.121.408-.131.597-.028.188.105.306.306.306.526zm-14.756.782c1.806 0 3.27 1.465 3.27 3.271v10.161h-18.56c-1.99 0-3.604-1.613-3.604-3.603v-9.829zm-16.894 2v7.829c0 .886.718 1.603 1.604 1.603h16.56v-8.161c0-.702-.568-1.271-1.27-1.271zm9.082-12.975c1.187-1.458 2.996-2.39 5.021-2.39 3.572 0 6.472 2.9 6.472 6.472s-2.9 6.472-6.472 6.472c-2.025 0-3.834-.932-5.021-2.39-1.187 1.458-2.996 2.39-5.021 2.39-3.572 0-6.472-2.9-6.472-6.472s2.9-6.472 6.472-6.472c2.025 0 3.834.932 5.021 2.39z"/>
</svg>
