<svg style="clip-rule:evenodd;fill-rule:evenodd;stroke-linejoin:round;stroke-miterlimit:1.41421" viewBox="0 0 36 36" xmlns="http://www.w3.org/2000/svg">
 <path d="m21.159 25.39c0-0.89-0.723-1.613-1.613-1.613h-3.225c-0.891 0-1.613 0.723-1.613 1.613v3.226c0 0.89 0.722 1.612 1.613 1.612h3.225c0.89 0 1.613-0.722 1.613-1.612v-3.226z" style="fill-opacity:.196078"/>
 <path d="m19.639 21.778l0.092 3e-3 0.091 6e-3 0.091 8e-3 0.091 0.011 0.09 0.012 0.09 0.015 0.088 0.017 0.089 0.02 0.087 0.021 0.086 0.023 0.086 0.026 0.085 0.027 0.084 0.03 0.083 0.031 0.081 0.034 0.081 0.035 0.08 0.037 0.078 0.04 0.078 0.04 0.076 0.043 0.075 0.045 0.074 0.046 0.073 0.047 0.071 0.05 0.07 0.051 0.069 0.053 0.067 0.054 0.066 0.056 0.065 0.057 0.063 0.059 0.062 0.06 0.06 0.062 0.059 0.063 0.057 0.065 0.056 0.066 0.054 0.067 0.053 0.069 0.051 0.07 0.05 0.071 0.047 0.073 0.047 0.074 0.044 0.075 0.043 0.076 0.041 0.078 0.039 0.078 0.037 0.08 0.035 0.081 0.034 0.082 0.031 0.082 0.03 0.084 0.027 0.085 0.026 0.086 0.023 0.086 0.022 0.088 0.019 0.088 0.017 0.088 0.015 0.09 0.012 0.09 0.011 0.091 8e-3 0.091 6e-3 0.092 3e-3 0.092 1e-3 0.079v3.251l-1e-3 0.08-3e-3 0.092-6e-3 0.091-8e-3 0.092-0.011 0.09-0.012 0.09-0.015 0.09-0.017 0.089-0.019 0.088-0.022 0.087-0.023 0.087-0.026 0.085-0.027 0.085-0.03 0.084-0.031 0.083-0.034 0.082-0.035 0.081-0.037 0.079-0.039 0.079-0.041 0.077-0.043 0.076-0.044 0.076-0.047 0.073-0.047 0.073-0.05 0.071-0.051 0.07-0.053 0.069-0.054 0.067-0.056 0.067-0.057 0.064-0.059 0.063-0.06 0.062-0.062 0.06-0.063 0.059-0.065 0.058-0.066 0.055-0.067 0.055-0.069 0.052-0.07 0.052-0.071 0.049-0.073 0.048-0.074 0.046-0.075 0.044-0.076 0.043-0.078 0.041-0.078 0.039-0.08 0.037-0.081 0.036-0.081 0.033-0.083 0.032-0.084 0.029-0.085 0.028-0.086 0.025-0.086 0.024-0.087 0.021-0.089 0.019-0.088 0.017-0.09 0.015-0.09 0.013-0.091 0.01-0.091 8e-3 -0.091 6e-3 -0.092 3e-3 -0.08 1e-3h-3.251l-0.08-1e-3 -0.092-3e-3 -0.091-6e-3 -0.092-8e-3 -0.09-0.01-0.09-0.013-0.09-0.015-0.089-0.017-0.088-0.019-0.087-0.021-0.087-0.024-0.085-0.025-0.085-0.028-0.084-0.029-0.083-0.032-0.082-0.033-0.08-0.036-0.08-0.037-0.079-0.039-0.077-0.041-0.076-0.043-0.075-0.044-0.074-0.046-0.073-0.048-0.071-0.049-0.07-0.052-0.069-0.052-0.067-0.054-0.066-0.056-0.065-0.058-0.063-0.059-0.062-0.06-0.06-0.062-0.059-0.063-0.058-0.064-0.055-0.067-0.055-0.067-0.052-0.069-0.051-0.07-0.05-0.071-0.048-0.073-0.046-0.073-0.044-0.075-0.043-0.077-0.041-0.077-0.039-0.079-0.037-0.08-0.035-0.08-0.034-0.082-0.031-0.083-0.03-0.084-0.028-0.085-0.025-0.085-0.023-0.087-0.022-0.087-0.019-0.088-0.017-0.089-0.015-0.09-0.013-0.09-0.01-0.09-8e-3 -0.091-6e-3 -0.092-3e-3 -0.092-1e-3 -0.08v-3.251l1e-3 -0.079 3e-3 -0.092 6e-3 -0.092 8e-3 -0.091 0.01-0.091 0.013-0.09 0.015-0.09 0.017-0.088 0.019-0.089 0.022-0.087 0.023-0.086 0.025-0.086 0.028-0.085 0.03-0.084 0.031-0.082 0.034-0.082 0.035-0.081 0.037-0.08 0.039-0.078 0.041-0.078 0.043-0.076 0.044-0.075 0.046-0.074 0.048-0.073 0.05-0.071 0.051-0.07 0.052-0.069 0.055-0.067 0.055-0.066 0.058-0.065 0.059-0.063 0.06-0.062 0.062-0.06 0.063-0.059 0.065-0.057 0.066-0.056 0.067-0.054 0.069-0.053 0.07-0.051 0.071-0.05 0.073-0.047 0.073-0.046 0.076-0.045 0.076-0.043 0.077-0.04 0.079-0.04 0.08-0.037 0.08-0.035 0.082-0.034 0.083-0.031 0.084-0.03 0.085-0.027 0.085-0.026 0.087-0.023 0.087-0.021 0.088-0.02 0.089-0.017 0.09-0.015 0.09-0.012 0.09-0.011 0.092-8e-3 0.091-6e-3 0.092-3e-3 0.08-1e-3h3.251l0.08 1e-3zm-3.318 1.999l-0.042 1e-3 -0.041 1e-3 -0.042 3e-3 -0.04 3e-3 -0.041 5e-3 -0.04 6e-3 -0.04 6e-3 -0.039 8e-3 -0.04 8e-3 -0.038 0.01-0.039 0.01-0.038 0.012-0.038 0.012-0.037 0.013-0.037 0.014-0.036 0.015-0.036 0.016-0.035 0.016-0.035 0.018-0.035 0.018-0.034 0.019-0.034 0.02-0.033 0.02-0.032 0.022-0.032 0.022-0.031 0.023-0.031 0.023-0.03 0.024-0.03 0.025-0.029 0.026-0.028 0.027-0.028 0.027-0.027 0.027-0.026 0.029-0.026 0.029-0.025 0.029-0.024 0.03-0.024 0.031-0.023 0.031-0.022 0.032-0.021 0.033-0.021 0.033-0.02 0.033-0.019 0.034-0.018 0.035-0.017 0.035-0.017 0.035-0.016 0.036-0.014 0.037-0.014 0.037-0.014 0.037-0.012 0.037-0.011 0.039-0.011 0.038-9e-3 0.039-9e-3 0.039-7e-3 0.04-7e-3 0.039-5e-3 0.041-5e-3 0.04-4e-3 0.041-2e-3 0.041-2e-3 0.041v3.309l2e-3 0.042 2e-3 0.041 4e-3 0.04 5e-3 0.041 5e-3 0.04 7e-3 0.04 7e-3 0.039 9e-3 0.04 9e-3 0.038 0.011 0.039 0.011 0.038 0.012 0.038 0.014 0.037 0.014 0.037 0.014 0.036 0.016 0.036 0.017 0.036 0.017 0.035 0.018 0.034 0.019 0.034 0.02 0.034 0.021 0.033 0.021 0.032 0.022 0.032 0.023 0.031 0.024 0.031 0.024 0.03 0.025 0.03 0.026 0.029 0.026 0.028 0.027 0.028 0.028 0.027 0.028 0.026 0.029 0.026 0.03 0.025 0.03 0.024 0.031 0.024 0.031 0.023 0.032 0.022 0.032 0.021 0.033 0.021 0.034 0.02 0.034 0.019 0.035 0.018 0.035 0.017 0.035 0.017 0.036 0.016 0.036 0.014 0.037 0.014 0.037 0.014 0.038 0.012 0.038 0.011 0.039 0.011 0.038 9e-3 0.04 9e-3 0.039 7e-3 0.04 7e-3 0.04 5e-3 0.041 5e-3 0.04 4e-3 0.042 2e-3 0.041 2e-3h3.309l0.041-2e-3 0.041-2e-3 0.041-4e-3 0.041-5e-3 0.04-5e-3 0.04-7e-3 0.039-7e-3 0.039-9e-3 0.039-9e-3 0.039-0.011 0.038-0.011 0.037-0.012 0.038-0.014 0.036-0.014 0.037-0.014 0.036-0.016 0.035-0.017 0.035-0.017 0.035-0.018 0.034-0.019 0.033-0.02 0.033-0.021 0.033-0.021 0.032-0.022 0.031-0.023 0.031-0.024 0.03-0.024 0.029-0.025 0.029-0.026 0.029-0.026 0.027-0.027 0.028-0.028 0.026-0.028 0.026-0.029 0.025-0.03 0.024-0.03 0.024-0.031 0.022-0.031 0.022-0.032 0.022-0.032 0.02-0.033 0.02-0.034 0.019-0.034 0.019-0.034 0.017-0.035 0.017-0.036 0.015-0.036 0.015-0.036 0.014-0.037 0.013-0.037 0.013-0.038 0.011-0.038 0.01-0.039 0.01-0.038 8e-3 -0.04 8e-3 -0.039 6e-3 -0.04 6e-3 -0.04 5e-3 -0.041 3e-3 -0.04 3e-3 -0.041 2e-3 -0.042v-3.309l-2e-3 -0.041-3e-3 -0.041-3e-3 -0.041-5e-3 -0.04-6e-3 -0.041-6e-3 -0.039-8e-3 -0.04-8e-3 -0.039-0.01-0.039-0.01-0.038-0.011-0.039-0.013-0.037-0.013-0.037-0.014-0.037-0.015-0.037-0.015-0.036-0.017-0.035-0.017-0.035-0.019-0.035-0.019-0.034-0.02-0.033-0.02-0.033-0.022-0.033-0.022-0.032-0.022-0.031-0.024-0.031-0.024-0.03-0.025-0.029-0.026-0.029-0.026-0.029-0.028-0.027-0.027-0.027-0.029-0.027-0.029-0.026-0.029-0.025-0.03-0.024-0.031-0.023-0.031-0.023-0.032-0.022-0.033-0.022-0.033-0.02-0.033-0.02-0.034-0.019-0.035-0.018-0.035-0.018-0.035-0.016-0.036-0.016-0.037-0.015-0.036-0.014-0.038-0.013-0.037-0.012-0.038-0.012-0.039-0.01-0.039-0.01-0.039-8e-3 -0.039-8e-3 -0.04-6e-3 -0.04-6e-3 -0.041-5e-3 -0.041-3e-3 -0.041-3e-3 -0.041-1e-3 -0.042-1e-3h-3.225z" style="fill-opacity:.737255"/>
 <path d="m32.382 25.39c0-0.89-0.723-1.613-1.613-1.613h-3.226c-0.89 0-1.612 0.723-1.612 1.613v3.226c0 0.89 0.722 1.612 1.612 1.612h3.226c0.89 0 1.613-0.722 1.613-1.612v-3.226z" style="fill-opacity:.196078"/>
 <path d="m30.861 21.778l0.092 3e-3 0.092 6e-3 0.091 8e-3 0.091 0.011 0.09 0.012 0.09 0.015 0.088 0.017 0.088 0.02 0.088 0.021 0.086 0.023 0.086 0.026 0.085 0.027 0.084 0.03 0.082 0.031 0.082 0.034 0.081 0.035 0.08 0.037 0.078 0.04 0.078 0.04 0.076 0.043 0.075 0.044 0.074 0.047 0.073 0.047 0.071 0.05 0.07 0.051 0.069 0.053 0.067 0.054 0.066 0.056 0.065 0.057 0.063 0.059 0.062 0.06 0.06 0.062 0.059 0.063 0.057 0.065 0.056 0.066 0.054 0.067 0.053 0.069 0.051 0.07 0.05 0.071 0.047 0.073 0.046 0.074 0.045 0.075 0.043 0.076 0.04 0.078 0.039 0.078 0.038 0.08 0.035 0.081 0.034 0.082 0.031 0.082 0.03 0.084 0.027 0.085 0.026 0.086 0.023 0.086 0.021 0.087 0.02 0.089 0.017 0.088 0.015 0.09 0.012 0.09 0.011 0.091 8e-3 0.091 5e-3 0.092 4e-3 0.092 1e-3 0.079v3.251l-1e-3 0.08-4e-3 0.092-5e-3 0.092-8e-3 0.091-0.011 0.09-0.012 0.091-0.015 0.089-0.017 0.089-0.02 0.088-0.021 0.087-0.023 0.087-0.026 0.085-0.027 0.085-0.03 0.084-0.031 0.083-0.034 0.082-0.035 0.08-0.038 0.08-0.039 0.079-0.04 0.077-0.043 0.077-0.045 0.075-0.046 0.073-0.047 0.073-0.05 0.071-0.051 0.07-0.053 0.069-0.054 0.067-0.056 0.067-0.057 0.064-0.059 0.063-0.06 0.062-0.062 0.06-0.063 0.059-0.065 0.058-0.066 0.055-0.067 0.055-0.069 0.052-0.07 0.052-0.071 0.049-0.073 0.048-0.074 0.046-0.075 0.044-0.076 0.043-0.078 0.041-0.078 0.039-0.08 0.037-0.081 0.036-0.082 0.033-0.082 0.032-0.084 0.029-0.085 0.028-0.086 0.025-0.086 0.024-0.088 0.021-0.088 0.019-0.088 0.017-0.09 0.015-0.09 0.013-0.091 0.01-0.091 8e-3 -0.092 6e-3 -0.092 3e-3 -0.079 1e-3h-3.251l-0.08-1e-3 -0.092-3e-3 -0.092-6e-3 -0.091-8e-3 -0.09-0.01-0.091-0.013-0.089-0.015-0.089-0.017-0.088-0.019-0.087-0.021-0.087-0.024-0.085-0.025-0.085-0.028-0.084-0.029-0.083-0.032-0.082-0.033-0.081-0.036-0.079-0.037-0.079-0.039-0.077-0.041-0.077-0.043-0.075-0.044-0.073-0.046-0.073-0.048-0.071-0.049-0.07-0.052-0.069-0.052-0.068-0.055-0.066-0.055-0.064-0.058-0.063-0.059-0.062-0.06-0.06-0.062-0.059-0.063-0.058-0.064-0.056-0.067-0.054-0.067-0.053-0.069-0.051-0.07-0.049-0.071-0.048-0.073-0.046-0.073-0.044-0.075-0.043-0.077-0.041-0.077-0.039-0.079-0.037-0.08-0.036-0.08-0.033-0.082-0.032-0.083-0.029-0.084-0.028-0.085-0.025-0.085-0.024-0.087-0.021-0.087-0.019-0.088-0.017-0.089-0.015-0.089-0.013-0.091-0.01-0.09-8e-3 -0.091-6e-3 -0.092-3e-3 -0.092-1e-3 -0.08v-3.251l1e-3 -0.079 3e-3 -0.092 6e-3 -0.092 8e-3 -0.091 0.01-0.091 0.013-0.09 0.015-0.09 0.017-0.088 0.019-0.089 0.021-0.087 0.024-0.086 0.025-0.086 0.028-0.085 0.029-0.084 0.032-0.082 0.033-0.082 0.036-0.081 0.037-0.08 0.039-0.078 0.041-0.078 0.043-0.076 0.044-0.075 0.046-0.074 0.048-0.073 0.049-0.071 0.052-0.07 0.052-0.069 0.054-0.067 0.056-0.066 0.058-0.065 0.059-0.063 0.06-0.062 0.062-0.06 0.063-0.059 0.064-0.057 0.066-0.056 0.068-0.054 0.069-0.053 0.07-0.051 0.071-0.05 0.073-0.047 0.073-0.047 0.076-0.044 0.076-0.043 0.077-0.04 0.079-0.04 0.079-0.037 0.081-0.035 0.082-0.034 0.083-0.031 0.084-0.03 0.085-0.027 0.085-0.026 0.087-0.023 0.087-0.021 0.088-0.02 0.089-0.017 0.089-0.015 0.091-0.012 0.09-0.011 0.091-8e-3 0.092-6e-3 0.092-3e-3 0.08-1e-3h3.251l0.079 1e-3zm-3.318 1.999l-0.041 1e-3 -0.042 1e-3 -0.041 3e-3 -0.04 3e-3 -0.041 5e-3 -0.04 6e-3 -0.04 6e-3 -0.039 8e-3 -0.04 8e-3 -0.038 0.01-0.039 0.01-0.038 0.012-0.038 0.012-0.037 0.013-0.037 0.014-0.036 0.015-0.036 0.016-0.036 0.016-0.035 0.018-0.034 0.018-0.034 0.019-0.034 0.02-0.033 0.02-0.032 0.022-0.032 0.022-0.031 0.023-0.031 0.023-0.03 0.024-0.03 0.025-0.029 0.026-0.028 0.027-0.028 0.027-0.027 0.027-0.026 0.029-0.026 0.029-0.025 0.029-0.024 0.03-0.024 0.031-0.023 0.031-0.022 0.032-0.021 0.033-0.021 0.033-0.02 0.033-0.019 0.034-0.018 0.035-0.017 0.035-0.017 0.035-0.016 0.036-0.015 0.037-0.014 0.037-0.013 0.037-0.012 0.037-0.011 0.039-0.011 0.038-9e-3 0.039-9e-3 0.039-7e-3 0.04-7e-3 0.039-5e-3 0.041-5e-3 0.04-4e-3 0.041-2e-3 0.041-2e-3 0.041v3.309l2e-3 0.042 2e-3 0.041 4e-3 0.04 5e-3 0.041 5e-3 0.04 7e-3 0.04 7e-3 0.039 9e-3 0.04 9e-3 0.038 0.011 0.039 0.011 0.038 0.012 0.038 0.013 0.037 0.014 0.037 0.015 0.036 0.016 0.036 0.017 0.036 0.017 0.035 0.018 0.034 0.019 0.034 0.02 0.034 0.021 0.033 0.021 0.032 0.022 0.032 0.023 0.031 0.024 0.031 0.024 0.03 0.025 0.03 0.026 0.029 0.026 0.028 0.027 0.028 0.028 0.027 0.028 0.026 0.029 0.026 0.03 0.025 0.03 0.024 0.031 0.024 0.031 0.023 0.032 0.022 0.032 0.021 0.033 0.021 0.034 0.02 0.034 0.019 0.034 0.018 0.035 0.017 0.036 0.017 0.036 0.016 0.036 0.014 0.037 0.014 0.037 0.014 0.038 0.012 0.038 0.011 0.039 0.011 0.038 9e-3 0.04 9e-3 0.039 7e-3 0.04 7e-3 0.04 5e-3 0.041 5e-3 0.04 4e-3 0.041 2e-3 0.042 2e-3h3.309l0.041-2e-3 0.041-2e-3 0.041-4e-3 0.04-5e-3 0.041-5e-3 0.039-7e-3 0.04-7e-3 0.039-9e-3 0.039-9e-3 0.038-0.011 0.039-0.011 0.037-0.012 0.037-0.014 0.037-0.014 0.037-0.014 0.036-0.016 0.035-0.017 0.035-0.017 0.035-0.018 0.034-0.019 0.033-0.02 0.033-0.021 0.033-0.021 0.032-0.022 0.031-0.023 0.031-0.024 0.03-0.024 0.029-0.025 0.029-0.026 0.029-0.026 0.027-0.027 0.027-0.028 0.027-0.028 0.025-0.029 0.025-0.03 0.025-0.03 0.023-0.031 0.023-0.031 0.022-0.032 0.022-0.032 0.02-0.033 0.02-0.034 0.019-0.034 0.018-0.034 0.018-0.035 0.016-0.036 0.016-0.036 0.015-0.036 0.014-0.037 0.013-0.037 0.012-0.038 0.012-0.038 0.01-0.039 0.01-0.038 8e-3 -0.04 8e-3 -0.039 6e-3 -0.04 6e-3 -0.04 5e-3 -0.041 3e-3 -0.04 3e-3 -0.041 1e-3 -0.042 1e-3 -0.041v-3.226l-1e-3 -0.042-1e-3 -0.041-3e-3 -0.041-3e-3 -0.041-5e-3 -0.04-6e-3 -0.041-6e-3 -0.039-8e-3 -0.04-8e-3 -0.039-0.01-0.039-0.01-0.038-0.012-0.039-0.012-0.037-0.013-0.037-0.014-0.037-0.015-0.037-0.016-0.036-0.016-0.035-0.018-0.035-0.018-0.035-0.019-0.034-0.02-0.033-0.02-0.033-0.022-0.033-0.022-0.032-0.023-0.031-0.023-0.031-0.025-0.03-0.025-0.029-0.025-0.029-0.027-0.029-0.027-0.027-0.027-0.027-0.029-0.027-0.029-0.026-0.029-0.025-0.03-0.024-0.031-0.023-0.031-0.023-0.032-0.022-0.033-0.022-0.033-0.02-0.033-0.02-0.034-0.019-0.035-0.018-0.035-0.018-0.035-0.016-0.036-0.016-0.037-0.015-0.037-0.014-0.037-0.013-0.037-0.012-0.039-0.012-0.038-0.01-0.039-0.01-0.039-8e-3 -0.04-8e-3 -0.039-6e-3 -0.041-6e-3 -0.04-5e-3 -0.041-3e-3 -0.041-3e-3 -0.041-1e-3 -0.042-1e-3h-3.226z" style="fill-opacity:.701961"/>
 <path d="m9.828 25.39c0-0.89-0.723-1.613-1.613-1.613h-3.226c-0.89 0-1.613 0.723-1.613 1.613v3.226c0 0.89 0.723 1.612 1.613 1.612h3.226c0.89 0 1.613-0.722 1.613-1.612v-3.226z" style="fill-opacity:.196078"/>
 <path d="m8.307 21.778l0.092 3e-3 0.092 6e-3 0.091 8e-3 0.091 0.011 0.09 0.012 0.089 0.015 0.089 0.017 0.088 0.02 0.088 0.021 0.086 0.023 0.086 0.026 0.085 0.027 0.083 0.03 0.083 0.031 0.082 0.034 0.081 0.035 0.08 0.037 0.078 0.04 0.078 0.04 0.076 0.043 0.075 0.045 0.074 0.046 0.072 0.047 0.072 0.05 0.07 0.051 0.068 0.053 0.068 0.054 0.066 0.056 0.064 0.057 0.064 0.059 0.061 0.06 0.061 0.062 0.059 0.063 0.057 0.065 0.056 0.066 0.054 0.067 0.053 0.069 0.051 0.07 0.049 0.071 0.048 0.073 0.046 0.074 0.045 0.075 0.042 0.076 0.041 0.078 0.039 0.078 0.038 0.08 0.035 0.081 0.033 0.082 0.032 0.082 0.029 0.084 0.028 0.085 0.025 0.086 0.024 0.086 0.021 0.088 0.019 0.088 0.017 0.088 0.015 0.09 0.013 0.09 0.01 0.091 8e-3 0.091 6e-3 0.092 4e-3 0.092 1e-3 0.079v3.251l-1e-3 0.08-4e-3 0.092-6e-3 0.092-8e-3 0.091-0.01 0.09-0.013 0.09-0.015 0.09-0.017 0.089-0.019 0.088-0.021 0.087-0.024 0.087-0.025 0.085-0.028 0.085-0.029 0.084-0.032 0.083-0.033 0.082-0.035 0.08-0.038 0.08-0.039 0.079-0.041 0.077-0.042 0.076-0.045 0.076-0.046 0.073-0.048 0.073-0.049 0.071-0.051 0.07-0.053 0.069-0.054 0.067-0.056 0.067-0.057 0.064-0.059 0.063-0.061 0.062-0.061 0.06-0.064 0.059-0.064 0.058-0.066 0.055-0.068 0.055-0.068 0.052-0.07 0.052-0.072 0.049-0.072 0.048-0.074 0.046-0.075 0.044-0.076 0.043-0.078 0.041-0.078 0.039-0.08 0.037-0.081 0.036-0.082 0.033-0.083 0.032-0.083 0.029-0.085 0.028-0.086 0.025-0.086 0.024-0.088 0.021-0.088 0.019-0.089 0.017-0.089 0.015-0.09 0.013-0.091 0.01-0.091 8e-3 -0.092 6e-3 -0.092 3e-3 -0.079 1e-3h-3.251l-0.08-1e-3 -0.092-3e-3 -0.092-6e-3 -0.091-8e-3 -0.091-0.01-0.09-0.013-0.089-0.015-0.089-0.017-0.088-0.019-0.088-0.021-0.086-0.024-0.086-0.025-0.084-0.028-0.084-0.029-0.083-0.032-0.082-0.033-0.081-0.036-0.079-0.037-0.079-0.039-0.077-0.041-0.077-0.043-0.075-0.044-0.074-0.046-0.072-0.048-0.072-0.049-0.07-0.052-0.068-0.052-0.068-0.055-0.066-0.055-0.064-0.058-0.064-0.059-0.061-0.06-0.061-0.062-0.059-0.063-0.057-0.064-0.056-0.067-0.054-0.067-0.053-0.069-0.051-0.07-0.049-0.071-0.048-0.073-0.046-0.073-0.045-0.075-0.042-0.077-0.041-0.077-0.039-0.079-0.037-0.079-0.036-0.081-0.033-0.082-0.032-0.083-0.029-0.084-0.028-0.085-0.025-0.085-0.024-0.087-0.021-0.087-0.019-0.088-0.017-0.089-0.015-0.09-0.013-0.09-0.01-0.09-8e-3 -0.091-6e-3 -0.092-4e-3 -0.092-1e-3 -0.08v-3.251l1e-3 -0.079 4e-3 -0.092 6e-3 -0.092 8e-3 -0.091 0.01-0.091 0.013-0.09 0.015-0.09 0.017-0.088 0.019-0.088 0.021-0.088 0.024-0.086 0.025-0.086 0.028-0.085 0.029-0.084 0.032-0.082 0.033-0.082 0.036-0.081 0.037-0.08 0.039-0.078 0.041-0.078 0.042-0.076 0.045-0.075 0.046-0.074 0.048-0.073 0.049-0.071 0.051-0.07 0.053-0.069 0.054-0.067 0.056-0.066 0.057-0.065 0.059-0.063 0.061-0.062 0.061-0.06 0.064-0.059 0.064-0.057 0.066-0.056 0.068-0.054 0.068-0.053 0.07-0.051 0.072-0.05 0.072-0.047 0.074-0.046 0.075-0.045 0.077-0.043 0.077-0.04 0.079-0.04 0.079-0.037 0.081-0.035 0.082-0.034 0.083-0.031 0.084-0.03 0.084-0.027 0.086-0.026 0.086-0.023 0.088-0.021 0.088-0.02 0.089-0.017 0.089-0.015 0.09-0.012 0.091-0.011 0.091-8e-3 0.092-6e-3 0.092-3e-3 0.079-1e-3h3.252l0.079 1e-3zm-3.318 1.999l-0.041 1e-3 -0.042 1e-3 -0.041 3e-3 -0.041 3e-3 -0.04 5e-3 -0.04 6e-3 -0.04 6e-3 -0.04 8e-3 -0.039 8e-3 -0.039 0.01-0.038 0.01-0.038 0.012-0.038 0.012-0.037 0.013-0.037 0.014-0.036 0.015-0.036 0.016-0.036 0.016-0.035 0.018-0.034 0.018-0.034 0.019-0.034 0.02-0.033 0.02-0.032 0.022-0.032 0.022-0.032 0.023-0.03 0.023-0.03 0.024-0.03 0.025-0.029 0.026-0.028 0.027-0.028 0.027-0.027 0.027-0.026 0.029-0.026 0.029-0.025 0.029-0.024 0.03-0.024 0.031-0.023 0.031-0.022 0.032-0.021 0.033-0.021 0.033-0.02 0.033-0.019 0.034-0.018 0.035-0.018 0.035-0.016 0.035-0.016 0.036-0.015 0.037-0.014 0.037-0.013 0.037-0.012 0.037-0.011 0.039-0.011 0.038-9e-3 0.039-9e-3 0.039-7e-3 0.04-7e-3 0.039-6e-3 0.041-4e-3 0.04-4e-3 0.041-3e-3 0.041-1e-3 0.041-1e-3 0.042v3.226l1e-3 0.041 1e-3 0.042 3e-3 0.041 4e-3 0.04 4e-3 0.041 6e-3 0.04 7e-3 0.04 7e-3 0.039 9e-3 0.04 9e-3 0.038 0.011 0.039 0.011 0.038 0.012 0.038 0.013 0.037 0.014 0.037 0.015 0.036 0.016 0.036 0.016 0.036 0.018 0.035 0.018 0.034 0.019 0.034 0.02 0.034 0.021 0.033 0.021 0.032 0.022 0.032 0.023 0.031 0.024 0.031 0.024 0.03 0.025 0.03 0.026 0.029 0.026 0.028 0.027 0.028 0.028 0.027 0.028 0.026 0.029 0.026 0.03 0.025 0.03 0.024 0.03 0.024 0.032 0.023 0.032 0.022 0.032 0.021 0.033 0.021 0.034 0.02 0.034 0.019 0.034 0.018 0.035 0.017 0.036 0.017 0.036 0.016 0.036 0.014 0.037 0.014 0.037 0.014 0.038 0.012 0.038 0.011 0.038 0.011 0.039 9e-3 0.039 9e-3 0.04 7e-3 0.04 7e-3 0.04 5e-3 0.04 5e-3 0.041 4e-3 0.041 2e-3 0.042 2e-3h3.309l0.041-2e-3 0.041-2e-3 0.041-4e-3 0.04-5e-3 0.04-5e-3 0.04-7e-3 0.04-7e-3 0.039-9e-3 0.039-9e-3 0.038-0.011 0.038-0.011 0.038-0.012 0.037-0.014 0.037-0.014 0.036-0.014 0.036-0.016 0.036-0.017 0.035-0.017 0.034-0.018 0.034-0.019 0.034-0.02 0.033-0.021 0.032-0.021 0.032-0.022 0.032-0.023 0.03-0.024 0.031-0.024 0.029-0.025 0.029-0.026 0.028-0.026 0.028-0.027 0.027-0.028 0.027-0.028 0.025-0.029 0.025-0.03 0.025-0.03 0.023-0.031 0.023-0.031 0.022-0.032 0.022-0.032 0.02-0.033 0.02-0.034 0.019-0.034 0.018-0.034 0.018-0.035 0.016-0.036 0.016-0.036 0.015-0.036 0.014-0.037 0.013-0.037 0.012-0.038 0.012-0.038 0.01-0.039 9e-3 -0.038 9e-3 -0.04 8e-3 -0.039 6e-3 -0.04 6e-3 -0.04 4e-3 -0.041 4e-3 -0.04 3e-3 -0.041 1e-3 -0.042 1e-3 -0.041v-3.226l-1e-3 -0.042-1e-3 -0.041-3e-3 -0.041-4e-3 -0.041-4e-3 -0.04-6e-3 -0.041-6e-3 -0.039-8e-3 -0.04-9e-3 -0.039-9e-3 -0.039-0.01-0.038-0.012-0.039-0.012-0.037-0.013-0.037-0.014-0.037-0.015-0.037-0.016-0.036-0.016-0.035-0.018-0.035-0.018-0.035-0.019-0.034-0.02-0.033-0.02-0.033-0.022-0.033-0.022-0.032-0.023-0.031-0.023-0.031-0.025-0.03-0.025-0.029-0.025-0.029-0.027-0.029-0.027-0.027-0.028-0.027-0.028-0.027-0.029-0.026-0.029-0.025-0.031-0.024-0.03-0.023-0.032-0.023-0.032-0.022-0.032-0.022-0.033-0.02-0.034-0.02-0.034-0.019-0.034-0.018-0.035-0.018-0.036-0.016-0.036-0.016-0.036-0.015-0.037-0.014-0.037-0.013-0.038-0.012-0.038-0.012-0.038-0.01-0.039-0.01-0.039-8e-3 -0.04-8e-3 -0.04-6e-3 -0.04-6e-3 -0.04-5e-3 -0.041-3e-3 -0.041-3e-3 -0.041-1e-3 -0.042-1e-3h-3.226z" style="fill-opacity:.737255"/>
 <path d="m21.159 5.98c0-0.89-0.723-1.613-1.613-1.613h-3.225c-0.891 0-1.613 0.723-1.613 1.613v3.226c0 0.89 0.722 1.613 1.613 1.613h3.225c0.89 0 1.613-0.723 1.613-1.613v-3.226z" style="fill-opacity:.196078"/>
 <path d="m19.639 2.368l0.092 4e-3 0.091 6e-3 0.091 8e-3 0.091 0.01 0.09 0.013 0.09 0.015 0.088 0.017 0.089 0.019 0.087 0.021 0.086 0.024 0.086 0.025 0.085 0.028 0.084 0.029 0.083 0.032 0.081 0.033 0.081 0.036 0.08 0.037 0.078 0.039 0.078 0.041 0.076 0.042 0.075 0.045 0.074 0.046 0.073 0.048 0.071 0.049 0.07 0.051 0.069 0.053 0.067 0.054 0.066 0.056 0.065 0.057 0.063 0.059 0.062 0.061 0.06 0.061 0.059 0.064 0.057 0.064 0.056 0.066 0.054 0.068 0.053 0.068 0.051 0.07 0.05 0.072 0.047 0.072 0.047 0.074 0.044 0.075 0.043 0.077 0.041 0.077 0.039 0.079 0.037 0.079 0.035 0.081 0.034 0.082 0.031 0.083 0.03 0.084 0.027 0.084 0.026 0.086 0.023 0.087 0.022 0.087 0.019 0.088 0.017 0.089 0.015 0.089 0.012 0.09 0.011 0.091 8e-3 0.091 6e-3 0.092 3e-3 0.092 1e-3 0.08v3.251l-1e-3 0.079-3e-3 0.092-6e-3 0.092-8e-3 0.091-0.011 0.091-0.012 0.09-0.015 0.089-0.017 0.089-0.019 0.088-0.022 0.088-0.023 0.086-0.026 0.086-0.027 0.085-0.03 0.083-0.031 0.083-0.034 0.082-0.035 0.081-0.037 0.08-0.039 0.078-0.041 0.078-0.043 0.076-0.044 0.075-0.047 0.074-0.047 0.072-0.05 0.072-0.051 0.07-0.053 0.068-0.054 0.068-0.056 0.066-0.057 0.064-0.059 0.064-0.06 0.061-0.062 0.061-0.063 0.059-0.065 0.057-0.066 0.056-0.067 0.054-0.069 0.053-0.07 0.051-0.071 0.049-0.073 0.048-0.074 0.046-0.075 0.045-0.076 0.042-0.078 0.041-0.078 0.039-0.08 0.038-0.081 0.035-0.081 0.033-0.083 0.032-0.084 0.029-0.085 0.028-0.086 0.025-0.086 0.024-0.087 0.021-0.089 0.019-0.088 0.018-0.09 0.014-0.09 0.013-0.091 0.01-0.091 8e-3 -0.091 6e-3 -0.092 4e-3 -0.08 1e-3h-3.251l-0.08-1e-3 -0.092-4e-3 -0.091-6e-3 -0.092-8e-3 -0.09-0.01-0.09-0.013-0.09-0.014-0.089-0.018-0.088-0.019-0.087-0.021-0.087-0.024-0.085-0.025-0.085-0.028-0.084-0.029-0.083-0.032-0.082-0.033-0.08-0.035-0.08-0.038-0.079-0.039-0.077-0.041-0.076-0.042-0.075-0.045-0.074-0.046-0.073-0.048-0.071-0.049-0.07-0.051-0.069-0.053-0.067-0.054-0.066-0.056-0.065-0.057-0.063-0.059-0.062-0.061-0.06-0.061-0.059-0.064-0.058-0.064-0.055-0.066-0.055-0.068-0.052-0.068-0.051-0.07-0.05-0.072-0.048-0.072-0.046-0.074-0.044-0.075-0.043-0.076-0.041-0.078-0.039-0.078-0.037-0.08-0.035-0.081-0.034-0.082-0.031-0.083-0.03-0.083-0.028-0.085-0.025-0.086-0.023-0.086-0.022-0.088-0.019-0.088-0.017-0.089-0.015-0.089-0.013-0.09-0.01-0.091-8e-3 -0.091-6e-3 -0.092-3e-3 -0.092-1e-3 -0.079v-3.251l1e-3 -0.08 3e-3 -0.092 6e-3 -0.092 8e-3 -0.091 0.01-0.091 0.013-0.09 0.015-0.089 0.017-0.089 0.019-0.088 0.022-0.087 0.023-0.087 0.025-0.086 0.028-0.084 0.03-0.084 0.031-0.083 0.034-0.082 0.035-0.081 0.037-0.079 0.039-0.079 0.041-0.077 0.043-0.077 0.044-0.075 0.046-0.074 0.048-0.072 0.05-0.072 0.051-0.07 0.052-0.068 0.055-0.068 0.055-0.066 0.058-0.064 0.059-0.064 0.06-0.061 0.062-0.061 0.063-0.059 0.065-0.057 0.066-0.056 0.067-0.054 0.069-0.053 0.07-0.051 0.071-0.049 0.073-0.048 0.074-0.046 0.075-0.045 0.076-0.042 0.077-0.041 0.079-0.039 0.08-0.037 0.08-0.036 0.082-0.033 0.083-0.032 0.084-0.029 0.085-0.028 0.085-0.025 0.087-0.024 0.087-0.021 0.088-0.019 0.089-0.017 0.09-0.015 0.09-0.013 0.09-0.01 0.092-8e-3 0.091-6e-3 0.092-4e-3 0.08-1e-3h3.251l0.08 1e-3zm-3.318 1.999l-0.042 1e-3 -0.041 1e-3 -0.042 3e-3 -0.04 4e-3 -0.041 4e-3 -0.04 6e-3 -0.04 7e-3 -0.039 7e-3 -0.04 9e-3 -0.038 9e-3 -0.039 0.011-0.038 0.011-0.038 0.012-0.037 0.013-0.037 0.014-0.036 0.015-0.036 0.016-0.035 0.017-0.035 0.017-0.035 0.018-0.034 0.019-0.034 0.02-0.033 0.021-0.032 0.021-0.032 0.022-0.031 0.023-0.031 0.024-0.03 0.024-0.03 0.025-0.029 0.026-0.028 0.026-0.028 0.027-0.027 0.028-0.026 0.028-0.026 0.029-0.025 0.03-0.024 0.03-0.024 0.03-0.023 0.032-0.022 0.032-0.021 0.032-0.021 0.033-0.02 0.034-0.019 0.034-0.018 0.034-0.017 0.035-0.017 0.036-0.016 0.036-0.014 0.036-0.014 0.037-0.014 0.037-0.012 0.038-0.011 0.038-0.011 0.038-9e-3 0.039-9e-3 0.039-7e-3 0.04-7e-3 0.04-5e-3 0.04-5e-3 0.04-4e-3 0.041-2e-3 0.041-2e-3 0.042v3.309l2e-3 0.041 2e-3 0.041 4e-3 0.041 5e-3 0.04 5e-3 0.04 7e-3 0.04 7e-3 0.04 9e-3 0.039 9e-3 0.039 0.011 0.038 0.011 0.038 0.012 0.038 0.014 0.037 0.014 0.037 0.014 0.036 0.016 0.036 0.017 0.036 0.017 0.035 0.018 0.034 0.019 0.034 0.02 0.034 0.021 0.033 0.021 0.032 0.022 0.032 0.023 0.032 0.024 0.03 0.024 0.031 0.025 0.029 0.026 0.029 0.026 0.028 0.027 0.028 0.028 0.027 0.028 0.027 0.029 0.025 0.03 0.025 0.03 0.025 0.031 0.023 0.031 0.023 0.032 0.022 0.032 0.022 0.033 0.02 0.034 0.02 0.034 0.019 0.035 0.018 0.035 0.018 0.035 0.016 0.036 0.016 0.036 0.015 0.037 0.014 0.037 0.013 0.038 0.012 0.038 0.012 0.039 0.01 0.038 9e-3 0.04 9e-3 0.039 8e-3 0.04 6e-3 0.04 6e-3 0.041 4e-3 0.04 4e-3 0.042 3e-3 0.041 1e-3 0.042 1e-3h3.225l0.042-1e-3 0.041-1e-3 0.041-3e-3 0.041-4e-3 0.041-4e-3 0.04-6e-3 0.04-6e-3 0.039-8e-3 0.039-9e-3 0.039-9e-3 0.039-0.01 0.038-0.012 0.037-0.012 0.038-0.013 0.036-0.014 0.037-0.015 0.036-0.016 0.035-0.016 0.035-0.018 0.035-0.018 0.034-0.019 0.033-0.02 0.033-0.02 0.033-0.022 0.032-0.022 0.031-0.023 0.031-0.023 0.03-0.025 0.029-0.025 0.029-0.025 0.029-0.027 0.027-0.027 0.028-0.028 0.026-0.028 0.026-0.029 0.025-0.029 0.024-0.031 0.024-0.03 0.022-0.032 0.022-0.032 0.022-0.032 0.02-0.033 0.02-0.034 0.019-0.034 0.019-0.034 0.017-0.035 0.017-0.036 0.015-0.036 0.015-0.036 0.014-0.037 0.013-0.037 0.013-0.038 0.011-0.038 0.01-0.038 0.01-0.039 8e-3 -0.039 8e-3 -0.04 6e-3 -0.04 6e-3 -0.04 5e-3 -0.04 3e-3 -0.041 3e-3 -0.041 2e-3 -0.041v-3.309l-2e-3 -0.042-3e-3 -0.041-3e-3 -0.041-5e-3 -0.04-6e-3 -0.04-6e-3 -0.04-8e-3 -0.04-8e-3 -0.039-0.01-0.039-0.01-0.038-0.011-0.038-0.013-0.038-0.013-0.037-0.014-0.037-0.015-0.036-0.015-0.036-0.017-0.036-0.017-0.035-0.019-0.034-0.019-0.034-0.02-0.034-0.02-0.033-0.022-0.032-0.022-0.032-0.022-0.032-0.024-0.03-0.024-0.03-0.025-0.03-0.026-0.029-0.026-0.028-0.028-0.028-0.027-0.027-0.029-0.026-0.029-0.026-0.029-0.025-0.03-0.024-0.031-0.024-0.031-0.023-0.032-0.022-0.033-0.021-0.033-0.021-0.033-0.02-0.034-0.019-0.035-0.018-0.035-0.017-0.035-0.017-0.036-0.016-0.037-0.015-0.036-0.014-0.038-0.013-0.037-0.012-0.038-0.011-0.039-0.011-0.039-9e-3 -0.039-9e-3 -0.039-7e-3 -0.04-7e-3 -0.04-6e-3 -0.041-4e-3 -0.041-4e-3 -0.041-3e-3 -0.041-1e-3 -0.042-1e-3h-3.225z" style="fill-opacity:.737255"/>
 <path d="m18.694 16.381c3.514-0.038 7.026-0.025 10.533 0.158 0.396 0.063 0.669 0.365 0.691 0.765l9e-3 4.482-1.542 3e-3 -7e-3 -3.712h-9.681l7e-3 3.707-1.541 3e-3 -8e-3 -3.71h-9.703l8e-3 3.709-1.542 3e-3 -9e-3 -4.481c0.022-0.435 0.337-0.75 0.771-0.773 3.489 0 6.981-0.084 10.472-0.134l-7e-3 -3.616 1.542-3e-3 7e-3 3.599z" style="fill-opacity:.75;fill-rule:nonzero"/>
</svg>
