<svg xmlns="http://www.w3.org/2000/svg" viewBox="0 0 36 36">
 <defs>
  <style id="current-color-scheme" type="text/css">
   .ColorScheme-Text { color:#dfdfdf; } .ColorScheme-Highlight { color:#4285f4; } .ColorScheme-NeutralText { color:#ff9800; } .ColorScheme-PositiveText { color:#4caf50; } .ColorScheme-NegativeText { color:#f44336; }
  </style>
 </defs>
  <path style="fill:currentColor" class="ColorScheme-Text" fill-opacity=".19" d="m21.159 25.39v3.226c0 .89-.723 1.612-1.613 1.612h-3.225c-.891 0-1.613-.722-1.613-1.612v-3.226c0-.89.722-1.613 1.613-1.613h3.225c.89 0 1.613.723 1.613 1.613zm11.223 0v3.226c0 .89-.723 1.612-1.613 1.612h-3.226c-.89 0-1.612-.722-1.612-1.612v-3.226c0-.89.722-1.613 1.612-1.613h3.226c.89 0 1.613.723 1.613 1.613zm-22.554 0v3.226c0 .89-.723 1.612-1.613 1.612h-3.226c-.89 0-1.613-.722-1.613-1.612v-3.226c0-.89.723-1.613 1.613-1.613h3.226c.89 0 1.613.723 1.613 1.613zm11.331-19.41v3.226c0 .89-.723 1.613-1.613 1.613h-3.225c-.891 0-1.613-.723-1.613-1.613v-3.226c0-.89.722-1.613 1.613-1.613h3.225c.89 0 1.613.723 1.613 1.613z"/>
  <path style="fill:currentColor" class="ColorScheme-Text" fill-opacity=".71" d="m19.639 21.778.092.003.091.006.091.008.091.011.09.012.09.015.088.017.089.02.087.021.086.023.086.026.085.027.084.03.083.031.081.034.081.035.08.037.156.08.076.043.075.045.074.046.073.047.071.05.07.051.069.053.067.054.066.056.065.057.063.059.062.06.06.062.059.063.057.065.056.066.054.067.053.069.051.07.05.071.047.073.047.074.044.075.043.076.041.078.039.078.037.08.035.081.034.082.031.082.03.084.027.085.026.086.023.086.022.088.019.088.017.088.015.09.012.09.011.091.008.091.006.092.003.092.001.079v3.251l-.001.08-.003.092-.006.091-.008.092-.011.09-.012.09-.015.09-.017.089-.019.088-.022.087-.023.087-.026.085-.027.085-.03.084-.031.083-.034.082-.035.081-.037.079-.039.079-.041.077-.043.076-.044.076-.094.146-.05.071-.051.07-.053.069-.054.067-.056.067-.057.064-.059.063-.06.062-.062.06-.063.059-.065.058-.066.055-.067.055-.069.052-.07.052-.071.049-.073.048-.074.046-.075.044-.076.043-.078.041-.078.039-.08.037-.081.036-.081.033-.083.032-.084.029-.085.028-.086.025-.086.024-.087.021-.089.019-.088.017-.09.015-.09.013-.091.01-.091.008-.091.006-.092.003-.08.001h-3.251l-.08-.001-.092-.003-.091-.006-.092-.008-.09-.01-.09-.013-.09-.015-.089-.017-.088-.019-.087-.021-.087-.024-.085-.025-.085-.028-.084-.029-.083-.032-.082-.033-.08-.036-.08-.037-.079-.039-.077-.041-.076-.043-.075-.044-.074-.046-.073-.048-.071-.049-.07-.052-.069-.052-.067-.054-.066-.056-.065-.058-.063-.059-.062-.06-.06-.062-.059-.063-.058-.064-.11-.134-.052-.069-.051-.07-.05-.071-.048-.073-.046-.073-.044-.075-.043-.077-.041-.077-.039-.079-.037-.08-.035-.08-.034-.082-.031-.083-.03-.084-.028-.085-.025-.085-.023-.087-.022-.087-.019-.088-.017-.089-.015-.09-.013-.09-.01-.09-.008-.091-.006-.092-.003-.092-.001-.08v-3.251l.001-.079.003-.092.006-.092.008-.091.01-.091.013-.09.015-.09.017-.088.019-.089.022-.087.023-.086.025-.086.028-.085.03-.084.031-.082.034-.082.035-.081.037-.08.039-.078.041-.078.043-.076.044-.075.046-.074.048-.073.05-.071.051-.07.052-.069.055-.067.055-.066.058-.065.059-.063.06-.062.062-.06.063-.059.065-.057.066-.056.067-.054.069-.053.07-.051.071-.05.073-.047.073-.046.076-.045.076-.043.077-.04.079-.04.08-.037.08-.035.082-.034.083-.031.084-.03.085-.027.085-.026.087-.023.087-.021.088-.02.089-.017.09-.015.09-.012.09-.011.092-.008.091-.006.092-.003.08-.001h3.251zm-3.318 1.999-.083.002-.042.003-.04.003-.041.005-.08.012-.039.008-.04.008-.038.01-.039.01-.076.024-.037.013-.037.014-.036.015-.036.016-.035.016-.07.036-.034.019-.034.02-.033.02-.064.044-.062.046-.03.024-.03.025-.029.026-.056.054-.027.027-.052.058-.025.029-.024.03-.024.031-.023.031-.022.032-.042.066-.02.033-.019.034-.018.035-.034.07-.016.036-.042.111-.012.037-.011.039-.011.038-.018.078-.007.04-.007.039-.005.041-.005.04-.004.041-.004.082v3.309l.004.083.004.04.005.041.005.04.007.04.007.039.009.04.009.038.011.039.011.038.012.038.028.074.014.036.016.036.017.036.017.035.018.034.019.034.02.034.021.033.021.032.022.032.023.031.024.031.024.03.025.03.026.029.026.028.027.028.028.027.028.026.029.026.03.025.03.024.031.024.031.023.032.022.032.021.033.021.034.02.034.019.035.018.07.034.036.016.036.014.074.028.038.012.038.011.039.011.038.009.04.009.039.007.04.007.04.005.041.005.04.004.083.004h3.309l.082-.004.041-.004.041-.005.04-.005.04-.007.039-.007.078-.018.039-.011.038-.011.037-.012.038-.014.036-.014.037-.014.036-.016.07-.034.035-.018.034-.019.033-.02.066-.042.032-.022.031-.023.031-.024.03-.024.029-.025.058-.052.055-.055.026-.028.026-.029.025-.03.024-.03.024-.031.022-.031.044-.064.02-.033.02-.034.038-.068.017-.035.017-.036.03-.072.014-.037.013-.037.013-.038.011-.038.01-.039.01-.038.008-.04.008-.039.012-.08.005-.041.003-.04.003-.041.002-.042v-3.309l-.002-.041-.006-.082-.005-.04-.006-.041-.006-.039-.008-.04-.008-.039-.01-.039-.01-.038-.011-.039-.026-.074-.014-.037-.015-.037-.015-.036-.034-.07-.019-.035-.019-.034-.04-.066-.022-.033-.022-.032-.022-.031-.024-.031-.024-.03-.025-.029-.052-.058-.028-.027-.027-.027-.029-.027-.029-.026-.029-.025-.03-.024-.062-.046-.032-.022-.033-.022-.066-.04-.034-.019-.07-.036-.035-.016-.036-.016-.037-.015-.036-.014-.038-.013-.037-.012-.038-.012-.078-.02-.078-.016-.08-.012-.041-.005-.082-.006-.083-.002zm14.54-1.999.092.003.092.006.091.008.091.011.09.012.09.015.088.017.088.02.088.021.086.023.086.026.085.027.084.03.082.031.082.034.081.035.08.037.156.08.076.043.075.044.074.047.073.047.071.05.07.051.069.053.067.054.066.056.065.057.063.059.062.06.06.062.059.063.057.065.056.066.054.067.053.069.051.07.05.071.047.073.046.074.045.075.043.076.04.078.039.078.038.08.035.081.034.082.031.082.03.084.027.085.026.086.023.086.021.087.02.089.017.088.015.09.012.09.011.091.008.091.005.092.004.092.001.079v3.251l-.001.08-.004.092-.005.092-.008.091-.011.09-.012.091-.015.089-.017.089-.02.088-.021.087-.023.087-.026.085-.027.085-.03.084-.031.083-.034.082-.035.08-.038.08-.039.079-.04.077-.043.077-.045.075-.046.073-.047.073-.05.071-.051.07-.053.069-.054.067-.056.067-.057.064-.059.063-.06.062-.062.06-.063.059-.065.058-.066.055-.067.055-.069.052-.07.052-.071.049-.073.048-.074.046-.075.044-.076.043-.078.041-.078.039-.08.037-.081.036-.082.033-.082.032-.084.029-.085.028-.086.025-.086.024-.088.021-.088.019-.088.017-.09.015-.09.013-.091.01-.091.008-.092.006-.092.003-.079.001h-3.251l-.08-.001-.092-.003-.092-.006-.091-.008-.09-.01-.091-.013-.089-.015-.089-.017-.088-.019-.087-.021-.087-.024-.085-.025-.085-.028-.084-.029-.083-.032-.082-.033-.081-.036-.079-.037-.079-.039-.077-.041-.077-.043-.075-.044-.073-.046-.073-.048-.071-.049-.07-.052-.069-.052-.068-.055-.066-.055-.064-.058-.063-.059-.062-.06-.06-.062-.059-.063-.058-.064-.056-.067-.054-.067-.053-.069-.051-.07-.049-.071-.048-.073-.046-.073-.044-.075-.043-.077-.041-.077-.039-.079-.037-.08-.036-.08-.033-.082-.032-.083-.029-.084-.028-.085-.025-.085-.024-.087-.021-.087-.019-.088-.017-.089-.015-.089-.013-.091-.01-.09-.008-.091-.006-.092-.003-.092-.001-.08v-3.251l.001-.079.003-.092.006-.092.008-.091.01-.091.013-.09.015-.09.017-.088.019-.089.021-.087.024-.086.025-.086.028-.085.029-.084.032-.082.033-.082.036-.081.037-.08.039-.078.041-.078.043-.076.044-.075.046-.074.048-.073.049-.071.052-.07.052-.069.054-.067.056-.066.058-.065.059-.063.06-.062.062-.06.063-.059.064-.057.066-.056.068-.054.069-.053.07-.051.071-.05.146-.094.076-.044.076-.043.077-.04.079-.04.079-.037.081-.035.082-.034.083-.031.084-.03.085-.027.085-.026.087-.023.087-.021.088-.02.089-.017.089-.015.091-.012.09-.011.091-.008.092-.006.092-.003.08-.001h3.251zm-3.318 1.999-.083.002-.041.003-.04.003-.041.005-.08.012-.039.008-.04.008-.038.01-.039.01-.076.024-.037.013-.037.014-.036.015-.072.032-.035.018-.034.018-.034.019-.034.02-.033.02-.064.044-.062.046-.03.024-.03.025-.029.026-.056.054-.027.027-.052.058-.025.029-.024.03-.024.031-.023.031-.022.032-.042.066-.02.033-.019.034-.018.035-.034.07-.016.036-.015.037-.014.037-.013.037-.012.037-.011.039-.011.038-.018.078-.007.04-.007.039-.005.041-.005.04-.004.041-.004.082v3.309l.004.083.004.04.005.041.005.04.007.04.007.039.009.04.009.038.011.039.011.038.012.038.013.037.014.037.015.036.016.036.017.036.017.035.018.034.019.034.02.034.021.033.021.032.022.032.023.031.024.031.024.03.025.03.026.029.026.028.027.028.028.027.028.026.029.026.03.025.03.024.031.024.031.023.032.022.032.021.033.021.034.02.034.019.034.018.035.017.036.017.036.016.036.014.074.028.038.012.038.011.039.011.038.009.04.009.039.007.04.007.04.005.041.005.04.004.083.004h3.309l.082-.004.041-.004.04-.005.041-.005.039-.007.04-.007.078-.018.038-.011.039-.011.037-.012.111-.042.036-.016.07-.034.035-.018.034-.019.033-.02.066-.042.032-.022.031-.023.031-.024.03-.024.029-.025.058-.052.027-.027.054-.056.025-.029.05-.06.046-.062.044-.064.02-.033.02-.034.019-.034.018-.034.018-.035.032-.072.015-.036.014-.037.013-.037.024-.076.01-.039.01-.038.008-.04.008-.039.012-.08.005-.041.003-.04.003-.041.002-.083v-3.226l-.002-.083-.006-.082-.005-.04-.006-.041-.006-.039-.008-.04-.008-.039-.01-.039-.01-.038-.012-.039-.012-.037-.013-.037-.014-.037-.015-.037-.016-.036-.016-.035-.036-.07-.019-.034-.04-.066-.022-.033-.022-.032-.046-.062-.025-.03-.05-.058-.027-.029-.054-.054-.029-.027-.029-.026-.029-.025-.03-.024-.062-.046-.032-.022-.033-.022-.066-.04-.034-.019-.07-.036-.035-.016-.036-.016-.037-.015-.037-.014-.037-.013-.037-.012-.039-.012-.038-.01-.039-.01-.039-.008-.04-.008-.039-.006-.041-.006-.04-.005-.082-.006-.083-.002zm-19.236-1.999.092.003.092.006.091.008.091.011.09.012.089.015.089.017.088.02.088.021.086.023.086.026.085.027.083.03.083.031.082.034.081.035.08.037.156.08.076.043.075.045.074.046.072.047.072.05.07.051.068.053.068.054.066.056.064.057.064.059.061.06.061.062.059.063.057.065.056.066.054.067.053.069.051.07.049.071.048.073.046.074.045.075.042.076.041.078.039.078.038.08.035.081.033.082.032.082.029.084.028.085.025.086.024.086.021.088.019.088.017.088.015.09.013.09.01.091.008.091.006.092.004.092.001.079v3.251l-.001.08-.004.092-.006.092-.008.091-.01.09-.013.09-.015.09-.017.089-.019.088-.021.087-.024.087-.025.085-.028.085-.029.084-.032.083-.033.082-.035.08-.038.08-.039.079-.041.077-.042.076-.045.076-.046.073-.048.073-.049.071-.051.07-.053.069-.054.067-.056.067-.057.064-.059.063-.061.062-.061.06-.064.059-.064.058-.066.055-.068.055-.068.052-.07.052-.072.049-.072.048-.074.046-.075.044-.076.043-.078.041-.078.039-.08.037-.081.036-.082.033-.083.032-.083.029-.085.028-.086.025-.086.024-.088.021-.088.019-.089.017-.089.015-.09.013-.091.01-.091.008-.092.006-.092.003-.079.001h-3.251l-.08-.001-.092-.003-.092-.006-.091-.008-.091-.01-.09-.013-.089-.015-.089-.017-.088-.019-.088-.021-.086-.024-.086-.025-.084-.028-.084-.029-.083-.032-.082-.033-.081-.036-.079-.037-.079-.039-.077-.041-.077-.043-.075-.044-.074-.046-.072-.048-.072-.049-.07-.052-.068-.052-.068-.055-.066-.055-.064-.058-.064-.059-.061-.06-.061-.062-.059-.063-.057-.064-.056-.067-.054-.067-.053-.069-.051-.07-.049-.071-.048-.073-.046-.073-.045-.075-.042-.077-.041-.077-.039-.079-.037-.079-.036-.081-.033-.082-.032-.083-.029-.084-.028-.085-.025-.085-.024-.087-.021-.087-.019-.088-.017-.089-.015-.09-.013-.09-.01-.09-.008-.091-.006-.092-.004-.092-.001-.08v-3.251l.001-.079.004-.092.006-.092.008-.091.01-.091.013-.09.015-.09.017-.088.019-.088.021-.088.024-.086.025-.086.028-.085.029-.084.032-.082.033-.082.036-.081.037-.08.039-.078.041-.078.042-.076.045-.075.046-.074.048-.073.049-.071.051-.07.053-.069.054-.067.056-.066.057-.065.059-.063.061-.062.061-.06.064-.059.064-.057.066-.056.068-.054.068-.053.07-.051.072-.05.072-.047.074-.046.075-.045.077-.043.077-.04.079-.04.079-.037.081-.035.082-.034.083-.031.084-.03.084-.027.086-.026.086-.023.088-.021.088-.02.089-.017.089-.015.09-.012.091-.011.091-.008.092-.006.092-.003.079-.001h3.252zm-3.318 1.999-.083.002-.082.006-.04.005-.08.012-.04.008-.039.008-.039.01-.038.01-.076.024-.037.013-.037.014-.036.015-.072.032-.035.018-.034.018-.034.019-.034.02-.033.02-.064.044-.032.023-.03.023-.03.024-.03.025-.029.026-.056.054-.027.027-.052.058-.025.029-.024.03-.024.031-.023.031-.022.032-.042.066-.02.033-.019.034-.036.07-.016.035-.016.036-.015.037-.014.037-.013.037-.012.037-.011.039-.011.038-.018.078-.007.04-.007.039-.006.041-.004.04-.004.041-.003.041-.002.083v3.226l.002.083.003.041.004.04.004.041.006.04.007.04.007.039.009.04.009.038.011.039.011.038.012.038.013.037.014.037.015.036.032.072.018.035.018.034.019.034.02.034.021.033.021.032.022.032.023.031.024.031.024.03.025.03.026.029.026.028.027.028.028.027.028.026.029.026.03.025.06.048.032.023.032.022.032.021.033.021.034.02.034.019.034.018.035.017.036.017.036.016.036.014.074.028.038.012.076.022.078.018.08.014.08.01.041.004.041.002.042.002h3.309l.082-.004.041-.004.08-.01.08-.014.078-.018.076-.022.038-.012.074-.028.036-.014.036-.016.036-.017.035-.017.034-.018.034-.019.034-.02.033-.021.032-.021.032-.022.032-.023.03-.024.031-.024.029-.025.029-.026.028-.026.028-.027.054-.056.025-.029.05-.06.046-.062.044-.064.02-.033.02-.034.019-.034.018-.034.018-.035.032-.072.015-.036.014-.037.013-.037.024-.076.01-.039.009-.038.009-.04.008-.039.012-.08.004-.041.004-.04.003-.041.002-.083v-3.226l-.002-.083-.003-.041-.004-.041-.004-.04-.006-.041-.006-.039-.008-.04-.018-.078-.01-.038-.012-.039-.012-.037-.013-.037-.014-.037-.015-.037-.016-.036-.016-.035-.036-.07-.019-.034-.04-.066-.022-.033-.022-.032-.046-.062-.025-.03-.05-.058-.027-.029-.027-.027-.056-.054-.029-.026-.029-.025-.031-.024-.03-.023-.032-.023-.064-.044-.033-.02-.034-.02-.034-.019-.034-.018-.035-.018-.072-.032-.036-.015-.037-.014-.037-.013-.076-.024-.038-.01-.039-.01-.039-.008-.04-.008-.08-.012-.04-.005-.082-.006-.083-.002zm14.65-21.409.092.004.091.006.091.008.091.01.09.013.09.015.088.017.089.019.087.021.086.024.086.025.085.028.084.029.083.032.081.033.081.036.08.037.078.039.078.041.076.042.075.045.074.046.073.048.071.049.07.051.069.053.067.054.066.056.065.057.063.059.062.061.06.061.059.064.057.064.056.066.054.068.053.068.051.07.05.072.047.072.047.074.044.075.043.077.041.077.039.079.037.079.035.081.034.082.031.083.03.084.027.084.026.086.023.087.022.087.019.088.017.089.015.089.012.09.011.091.008.091.006.092.003.092.001.08v3.251l-.001.079-.003.092-.006.092-.008.091-.011.091-.012.09-.015.089-.017.089-.019.088-.022.088-.023.086-.026.086-.027.085-.03.083-.031.083-.034.082-.035.081-.037.08-.039.078-.041.078-.043.076-.044.075-.047.074-.047.072-.05.072-.051.07-.053.068-.054.068-.056.066-.057.064-.059.064-.06.061-.062.061-.063.059-.065.057-.066.056-.067.054-.069.053-.07.051-.071.049-.073.048-.074.046-.075.045-.076.042-.078.041-.078.039-.08.038-.081.035-.081.033-.083.032-.084.029-.085.028-.086.025-.086.024-.087.021-.089.019-.088.018-.09.014-.09.013-.091.01-.091.008-.091.006-.092.004-.08.001h-3.251l-.08-.001-.092-.004-.091-.006-.092-.008-.09-.01-.09-.013-.09-.014-.089-.018-.088-.019-.087-.021-.087-.024-.085-.025-.085-.028-.084-.029-.083-.032-.082-.033-.08-.035-.08-.038-.079-.039-.077-.041-.076-.042-.075-.045-.074-.046-.073-.048-.071-.049-.07-.051-.069-.053-.067-.054-.066-.056-.065-.057-.063-.059-.062-.061-.06-.061-.059-.064-.058-.064-.055-.066-.055-.068-.052-.068-.051-.07-.05-.072-.048-.072-.046-.074-.044-.075-.043-.076-.041-.078-.039-.078-.037-.08-.035-.081-.034-.082-.031-.083-.03-.083-.028-.085-.025-.086-.023-.086-.022-.088-.019-.088-.017-.089-.015-.089-.013-.09-.01-.091-.008-.091-.006-.092-.003-.092-.001-.079v-3.251l.001-.08.003-.092.006-.092.008-.091.01-.091.013-.09.015-.089.017-.089.019-.088.022-.087.023-.087.025-.086.028-.084.03-.084.031-.083.034-.082.035-.081.037-.079.039-.079.041-.077.043-.077.044-.075.046-.074.048-.072.05-.072.051-.07.052-.068.055-.068.055-.066.058-.064.059-.064.06-.061.062-.061.063-.059.065-.057.066-.056.067-.054.069-.053.07-.051.071-.049.073-.048.074-.046.075-.045.076-.042.077-.041.079-.039.08-.037.08-.036.082-.033.083-.032.084-.029.085-.028.085-.025.087-.024.087-.021.088-.019.089-.017.09-.015.09-.013.09-.01.092-.008.091-.006.092-.004.08-.001h3.251zm-3.318 1.999-.083.002-.042.003-.04.004-.041.004-.04.006-.04.007-.039.007-.04.009-.038.009-.039.011-.038.011-.038.012-.037.013-.037.014-.036.015-.036.016-.07.034-.035.018-.034.019-.034.02-.033.021-.032.021-.032.022-.031.023-.031.024-.03.024-.03.025-.029.026-.028.026-.028.027-.027.028-.026.028-.026.029-.025.03-.048.06-.023.032-.022.032-.021.032-.021.033-.02.034-.019.034-.018.034-.017.035-.017.036-.016.036-.014.036-.028.074-.012.038-.022.076-.018.078-.014.08-.01.08-.004.041-.002.041-.002.042v3.309l.004.082.004.041.01.08.014.08.018.078.022.076.012.038.028.074.014.036.016.036.017.036.017.035.018.034.019.034.02.034.021.033.021.032.022.032.023.032.024.03.024.031.025.029.026.029.026.028.027.028.056.054.029.025.06.05.062.046.064.044.033.02.034.02.034.019.07.036.035.016.036.016.036.015.037.014.037.013.076.024.039.01.038.009.04.009.039.008.08.012.041.004.04.004.042.003.083.002h3.225l.083-.002.041-.003.082-.008.08-.012.039-.008.078-.018.039-.01.038-.012.037-.012.038-.013.036-.014.037-.015.036-.016.035-.016.07-.036.034-.019.066-.04.033-.022.032-.022.062-.046.03-.025.058-.05.029-.027.055-.055.026-.028.026-.029.025-.029.024-.031.024-.03.066-.096.02-.033.02-.034.038-.068.017-.035.017-.036.03-.072.014-.037.013-.037.013-.038.011-.038.01-.038.01-.039.008-.039.008-.04.012-.08.005-.04.006-.082.002-.041v-3.309l-.002-.042-.006-.082-.005-.04-.012-.08-.008-.04-.008-.039-.01-.039-.01-.038-.011-.038-.013-.038-.013-.037-.014-.037-.03-.072-.017-.036-.017-.035-.038-.068-.02-.034-.02-.033-.066-.096-.048-.06-.025-.03-.026-.029-.026-.028-.055-.055-.058-.052-.029-.025-.03-.024-.031-.024-.031-.023-.032-.022-.066-.042-.033-.02-.034-.019-.035-.018-.07-.034-.036-.016-.037-.015-.036-.014-.038-.013-.037-.012-.038-.011-.039-.011-.078-.018-.039-.007-.04-.007-.04-.006-.082-.008-.041-.003-.083-.002z"/>
  <path style="fill:currentColor" class="ColorScheme-Text" fill-opacity=".71" d="m18.694 16.381c3.514-.038 7.026-.025 10.533.158.396.063.669.365.691.765l.009 4.482-1.542.003-.007-3.712h-9.681l.007 3.707-1.541.003-.008-3.71h-9.703l.008 3.709-1.542.003-.009-4.481c.022-.435.337-.75.771-.773 3.489 0 6.981-.084 10.472-.134l-.007-3.616 1.542-.003z"/>
</svg>
