<svg clip-rule="evenodd" fill-rule="evenodd" stroke-linejoin="round" stroke-miterlimit="2" viewBox="0 0 16 16" xmlns="http://www.w3.org/2000/svg">
 <path d="m8.635 2.038c-.101-.263-.354-.436-.635-.436s-.534.173-.635.436c-.625 1.62-1.485 3.852-1.485 3.852s-2.385.126-4.117.217c-.281.015-.524.201-.611.469-.087.267-.001.561.217.739 1.347 1.095 3.201 2.605 3.201 2.605s-.613 2.309-1.058 3.985c-.072.272.031.561.259.726.227.165.533.173.769.02 1.456-.943 3.46-2.241 3.46-2.241s2.004 1.298 3.46 2.241c.236.153.542.145.769-.02.228-.165.331-.454.259-.726-.445-1.676-1.058-3.985-1.058-3.985s1.854-1.51 3.201-2.605c.218-.178.304-.472.217-.739-.087-.268-.33-.454-.611-.469-1.732-.091-4.117-.217-4.117-.217s-.86-2.232-1.485-3.852z" fill-opacity=".75" fill-rule="nonzero"/>
</svg>
