<svg width="36" height="36" xmlns="http://www.w3.org/2000/svg">
 <path d="m17.992184 1.0000001-17.992183 14.049716 2.3039843 2.947356l1.0708935-0.835409v17.838337h29.24438v-17.877375l1.094344 0.851025 2.286396-2.931742-18.007815-14.041908zm0.007816 4.2180378l12.618174 9.9058501v17.877375h-9.272609v-9.718468h-6.696992v9.718468h-9.2726089v-17.838337l12.624036-9.9448881z" style="fill:#1a1a1a;opacity:.96"/>
 <path d="m26.257409 3.0436307c-0.194824 0-0.351753 0.1567448-0.351753 0.3513404v1.2394512l5.321246 4.1497216v-5.3891728c0-0.1945956-0.156929-0.3513404-0.351753-0.3513404h-4.61774z" style="fill:#1a1a1a;opacity:.908"/>
 <path d="m18 5.21875l-12.623047 9.943359v17.839844h9.2734379v-9.71875h6.695312v9.71875h9.273438v-17.878906l-12.619141-9.904297zm-3.375 6.732422h6.75v6.748047h-6.75v-6.748047z" style="fill:#1a1a1a;opacity:.0995578"/>
 <path d="m14.625 11.951172v6.748047h6.75v-6.748047h-6.75zm1.375 1.375h4v4h-4v-4z" style="fill:#000000;opacity:.55"/>
</svg>
