<svg xmlns="http://www.w3.org/2000/svg" style="fill-rule:evenodd;clip-rule:evenodd;stroke-linejoin:round;stroke-miterlimit:2" width="100%" height="100%" viewBox="0 0 16 16" xml:space="preserve">
 <defs>
  <style id="current-color-scheme" type="text/css">
   .ColorScheme-Text { color:#dfdfdf; } .ColorScheme-Highlight { color:#4285f4; } .ColorScheme-NeutralText { color:#ff9800; } .ColorScheme-PositiveText { color:#4caf50; } .ColorScheme-NegativeText { color:#f44336; }
  </style>
 </defs>
 <path style="fill:currentColor;fill-opacity:0.3" class="ColorScheme-Text" d="M8,1c3.863,0 7,3.137 7,7c0,3.863 -3.137,7 -7,7c-3.863,0 -7,-3.137 -7,-7c0,-3.863 3.137,-7 7,-7Zm0,1c3.311,0 6,2.689 6,6c0,3.311 -2.689,6 -6,6c-3.311,0 -6,-2.689 -6,-6c0,-3.311 2.689,-6 6,-6Z"/>
 <path style="fill:currentColor;" class="ColorScheme-Text" d="M3.2,7.015c0.021,0.002 0.048,-0.002 0.08,-0.01c0.105,-0.277 0.568,-0.341 0.375,0.03c-0.472,0.421 0.558,0.075 0.282,0.5c-0.166,0.413 0.286,0.38 0.515,0.411c0.074,-0.008 0.596,-0.474 0.545,-0.251c0.181,-0.06 0.465,0.157 0.663,0.109c0.332,-0.171 0.395,0.438 0.797,0.419c0.502,-0.062 0.316,0.653 0.796,0.618c0.295,0.269 0.898,0.131 1.081,0.575c-0.054,0.386 -0.502,0.63 -0.36,1.081c0.055,0.531 -0.877,0.316 -0.719,0.829c-0.186,0.235 -0.244,0.817 -0.686,0.629c0.244,0.189 0.122,0.475 -0.219,0.435c0.083,0.177 -0.08,0.151 -0.142,0.171c-0.313,-0.123 -0.611,-0.278 -0.889,-0.461c0.061,-0.271 -0.096,-0.511 -0.07,-0.78c-0.015,-0.288 0.003,-0.594 -0.095,-0.861c-0.456,-0.181 -0.687,-0.532 -0.887,-0.974c-0.285,-0.172 -0.034,-0.37 -0.147,-0.565c0.179,-0.309 0.532,-0.649 0.161,-0.978c-0.108,0.248 -0.288,0.077 -0.469,-0.032c-0.088,-0.323 -0.439,-0.343 -0.673,-0.524c0.015,-0.125 0.036,-0.249 0.061,-0.371Zm7.717,-2.951c0.428,0.318 0.804,0.705 1.109,1.144c-0.059,-0.066 -0.399,-0.442 -0.62,-0.548c-0.27,0.15 -0.484,0.062 -0.669,0.375c-0.049,0.276 -0.437,0.26 -0.507,0.414c0.366,0.113 0.742,-0.244 1.161,-0.133c0.356,-0.067 0.044,0.291 0.21,0.375c0.274,-0.105 0.673,0.495 0.774,0.103c0.336,0.664 0.524,1.413 0.524,2.206c0,1.322 -0.524,2.522 -1.376,3.404c-0.037,-0.225 0.102,-0.738 -0.049,-1.067c-0.124,-0.376 0.504,-0.684 0.21,-1.083c-0.306,-0.221 -0.236,-0.546 -0.226,-0.829c-0.262,0.019 -0.359,-0.223 -0.595,-0.239c-0.464,0.101 -0.985,0.313 -1.362,-0.063c-0.07,-0.242 -0.444,-0.394 -0.413,-0.653c-0.043,-0.22 0.131,-0.5 0.027,-0.733c0.122,-0.458 0.618,-0.573 0.739,-1.014c0.203,-0.03 0.429,-0.438 0.082,-0.393c-0.114,-0.181 -0.063,-0.71 0.27,-0.596c0.364,0.192 0.591,-0.354 0.151,-0.392c0.031,-0.158 0.396,-0.1 0.56,-0.278Zm-4.298,-0.766c-0.048,0.218 0.458,-0.249 0.435,0.09c-0.047,0.318 0.469,0.414 0.138,0.742c0.155,0.041 0.161,0.102 0.165,0.266c-0.027,-0.033 -0.651,0.002 -0.375,-0.193c0.363,-0.348 -0.112,-0.066 -0.324,-0.097c-0.004,0.225 -0.198,-0.159 -0.375,0.085c0.35,-0.057 -0.055,0.262 0.187,0.298c0.472,-0.085 -0.054,0.145 -0.286,0.238c0.064,-0.284 -0.136,-0.049 -0.354,-0.017c-0.149,0.241 -0.48,0.328 -0.722,0.505c0.026,0.244 -0.256,0.396 -0.483,0.506c-0.444,0.012 0.06,0.751 -0.362,0.532c-0.012,-0.236 -0.14,-0.32 -0.417,-0.311c-0.102,0.097 -0.229,0.067 -0.328,0.076c0.21,-0.472 0.492,-0.906 0.833,-1.286c-0.098,0.171 -0.026,0.14 0.07,0.054c0.102,-0.092 0.23,-0.247 0.204,-0.282c-0.022,-0.003 -0.04,-0.003 -0.056,0c0.017,-0.017 0.034,-0.034 0.052,-0.05l0.006,0c0.061,0.003 0.134,-0.029 0.105,-0.103c0.176,-0.158 0.364,-0.303 0.562,-0.435c0.016,0.029 0.069,0.051 0.171,0.062c-0.001,-0.173 0.106,-0.219 0.222,-0.263c0.093,-0.034 0.192,-0.067 0.248,-0.159c0.22,-0.102 0.448,-0.189 0.684,-0.258Zm5.35,1.956c-0.103,-0.026 -0.165,-0.025 -0.198,-0.012c-0.032,0.013 -0.036,0.037 -0.021,0.058c0.029,0.041 0.131,0.066 0.219,-0.046Zm-0.623,-0.281c-0.018,0.109 -0.007,0.161 0.014,0.178c0.021,0.017 0.053,-0 0.077,-0.031c0.047,-0.06 0.065,-0.169 -0.091,-0.147Zm0.06,-0.157c-0.032,0.046 -0.039,0.071 -0.034,0.081c0.005,0.011 0.022,0.008 0.039,-0.001c0.034,-0.02 0.066,-0.065 -0.005,-0.08Zm-6.531,-0.343c0.138,0.045 0.165,0.078 0.137,0.119c-0.029,0.04 -0.113,0.088 -0.2,0.162c-0.097,-0.048 -0.046,-0.276 0.063,-0.281Zm5.566,-0.721c0.133,0.076 0.262,0.159 0.386,0.247c-0.203,0.047 -0.5,0.232 -0.484,-0.028c0.133,-0.088 0.142,-0.149 0.098,-0.219Zm-0.285,-0.092c-0.159,0.03 -0.219,0.162 -0.201,0.251c0.017,0.089 0.112,0.136 0.261,-0.004c0.03,-0.127 0.202,-0.255 -0.06,-0.247Z"/>
</svg>
