<svg xmlns="http://www.w3.org/2000/svg" style="fill-rule:evenodd;clip-rule:evenodd;stroke-linejoin:round;stroke-miterlimit:2" width="100%" height="100%" viewBox="0 0 16 16" xml:space="preserve">
 <defs>
  <style id="current-color-scheme" type="text/css">
   .ColorScheme-Text { color:#dfdfdf; } .ColorScheme-Highlight { color:#4285f4; } .ColorScheme-NeutralText { color:#ff9800; } .ColorScheme-PositiveText { color:#4caf50; } .ColorScheme-NegativeText { color:#f44336; }
  </style>
 </defs>
 <path style="fill:currentColor;fill-opacity:0.3" class="ColorScheme-Text" d="M15,8c0,-0.552 -0.448,-1 -1,-1l-2,0c-0.552,0 -1,0.448 -1,1l0,2c0,0.552 0.448,1 1,1l2,0c0.552,0 1,-0.448 1,-1l0,-2Zm-5,-5c0,-0.552 -0.448,-1 -1,-1l-2,0c-0.552,0 -1,0.448 -1,1l0,2c0,0.552 0.448,1 1,1l2,0c0.552,0 1,-0.448 1,-1l0,-2Z"/>
 <path style="fill:currentColor;" class="ColorScheme-Text" d="M5,12l3,4l3,-4l-6,0Zm5.008,-4c-0,-0.552 -0.448,-1 -1,-1l-7.008,0c-0.552,0 -1,0.448 -1,1l0,2c0,0.552 0.448,1 1,1l7.008,0c0.552,0 1,-0.448 1,-1l-0,-2Zm-5.008,-5c0,-0.552 -0.448,-1 -1,-1l-2,0c-0.552,0 -1,0.448 -1,1l0,2c0,0.552 0.448,1 1,1l2,0c0.552,0 1,-0.448 1,-1l0,-2Zm10,0c0,-0.552 -0.448,-1 -1,-1l-2,0c-0.552,0 -1,0.448 -1,1l0,2c0,0.552 0.448,1 1,1l2,0c0.552,0 1,-0.448 1,-1l0,-2Z"/>
</svg>
