<svg xmlns="http://www.w3.org/2000/svg" style="fill-rule:evenodd;clip-rule:evenodd;stroke-linejoin:round;stroke-miterlimit:2" width="100%" height="100%" viewBox="0 0 16 16" xml:space="preserve">
 <defs>
  <style id="current-color-scheme" type="text/css">
   .ColorScheme-Text { color:#dfdfdf; } .ColorScheme-Highlight { color:#4285f4; } .ColorScheme-NeutralText { color:#ff9800; } .ColorScheme-PositiveText { color:#4caf50; } .ColorScheme-NegativeText { color:#f44336; }
  </style>
 </defs>
 <path style="fill:currentColor;" class="ColorScheme-Text" d="M11.156,1.49c0,-0 -5.976,5.976 -8.973,8.974c-0.924,0.923 -0.924,2.421 -0.001,3.344c0.003,0.003 0.006,0.006 0.009,0.009c0.444,0.444 1.045,0.693 1.673,0.693c0.627,0 1.229,-0.249 1.672,-0.693c2.998,-2.997 8.974,-8.974 8.974,-8.974l-3.354,-3.353Zm-7.895,-0l-0.628,1.144l-1.143,0.627l1.143,0.627l0.628,1.144l0.627,-1.144l1.143,-0.627l-1.143,-0.627l-0.627,-1.144Zm7.895,1.678l1.676,1.675l-3.244,3.247l-1.677,-1.678l3.245,-3.244Z"/>
</svg>
