<svg xmlns="http://www.w3.org/2000/svg" style="fill-rule:evenodd;clip-rule:evenodd;stroke-linejoin:round;stroke-miterlimit:2" width="100%" height="100%" viewBox="0 0 16 16" xml:space="preserve">
 <defs>
  <style id="current-color-scheme" type="text/css">
   .ColorScheme-Text { color:#dfdfdf; } .ColorScheme-Highlight { color:#4285f4; } .ColorScheme-NeutralText { color:#ff9800; } .ColorScheme-PositiveText { color:#4caf50; } .ColorScheme-NegativeText { color:#f44336; }
  </style>
 </defs>
 <path style="fill:currentColor;" class="ColorScheme-Text" d="M3.771,8l-1.932,-4.262c-0.085,-0.185 -0.048,-0.403 0.092,-0.551c0.14,-0.147 0.356,-0.195 0.545,-0.121l11.412,4.468c0.192,0.075 0.318,0.26 0.318,0.466c0,0.206 -0.126,0.391 -0.318,0.466l-11.412,4.468c-0.189,0.074 -0.405,0.026 -0.545,-0.121c-0.14,-0.148 -0.177,-0.366 -0.092,-0.551l1.932,-4.262Zm-0.513,-3.554l1.518,3.347c0.059,0.132 0.059,0.282 -0,0.414l-1.518,3.347l9.077,-3.554l-9.077,-3.554Z"/>
</svg>
