<svg xmlns="http://www.w3.org/2000/svg" style="fill-rule:evenodd;clip-rule:evenodd;stroke-linejoin:round;stroke-miterlimit:2" width="100%" height="100%" viewBox="0 0 16 16" xml:space="preserve">
 <defs>
  <style id="current-color-scheme" type="text/css">
   .ColorScheme-Text { color:#dfdfdf; } .ColorScheme-Highlight { color:#4285f4; } .ColorScheme-NeutralText { color:#ff9800; } .ColorScheme-PositiveText { color:#4caf50; } .ColorScheme-NegativeText { color:#f44336; }
  </style>
 </defs>
 <path style="fill:currentColor;" class="ColorScheme-Text" d="M3.704,0.354c-0.454,-0 -0.889,0.18 -1.21,0.501c-0.321,0.321 -0.502,0.757 -0.502,1.211c0,2.942 0,8.926 0,11.868c0,0.946 0.767,1.712 1.712,1.712c2.285,0 6.307,0 8.592,0c0.945,0 1.712,-0.766 1.712,-1.712c-0,-3.137 -0,-9.491 -0,-9.491l-3.457,-4.089l-6.847,-0Zm-0.619,1.092l-0,13.108l9.83,-0l0,-9.785l-2.82,-0.029l-0,-3.294l-7.01,0Zm5.375,6.725l2.767,0c0.254,0 0.462,0.204 0.461,0.462c0,0.254 -0.204,0.46 -0.462,0.461l-2.766,-0.001l0.001,2.767c-0.002,0.256 -0.206,0.462 -0.461,0.461c-0.257,0.002 -0.462,-0.204 -0.462,-0.461l-0.001,-2.766l-2.766,-0.001c-0.255,-0 -0.462,-0.204 -0.461,-0.462c-0.001,-0.254 0.204,-0.46 0.461,-0.461l2.767,0.001l-0.001,-2.767c0.001,-0.256 0.206,-0.462 0.461,-0.461c0.256,-0.002 0.462,0.204 0.462,0.461l0,2.767Z"/>
</svg>
