<svg xmlns="http://www.w3.org/2000/svg" style="fill-rule:evenodd;clip-rule:evenodd;stroke-linejoin:round;stroke-miterlimit:2" width="100%" height="100%" viewBox="0 0 16 16" xml:space="preserve">
 <defs>
  <style id="current-color-scheme" type="text/css">
   .ColorScheme-Text { color:#dfdfdf; } .ColorScheme-Highlight { color:#4285f4; } .ColorScheme-NeutralText { color:#ff9800; } .ColorScheme-PositiveText { color:#4caf50; } .ColorScheme-NegativeText { color:#f44336; }
  </style>
 </defs>
 <path style="fill:currentColor;fill-opacity:0.3;" class="ColorScheme-Text" d="M8.029,1l-2.187,4.596l-4.842,0.724l3.48,3.594l-0.855,5.059l4.34,-2.377l4.312,2.404l-0.797,-5.062l3.52,-3.575l-4.832,-0.752l-2.139,-4.611Z"/>
 <path style="fill:currentColor;" class="ColorScheme-Text" d="M8.029,1l-2.187,4.596l-4.842,0.724l3.48,3.594l-0.855,5.059l4.34,-2.377l4.312,2.404l-0.797,-5.062l3.52,-3.575l-4.832,-0.752l-2.139,-4.611Zm-0.011,2.351l-1.273,2.674c-0.143,0.301 -0.426,0.51 -0.755,0.56l-2.919,0.436l2.128,2.197c0.221,0.229 0.321,0.549 0.267,0.863l-0.511,3.023l2.529,-1.385c0.302,-0.166 0.667,-0.164 0.968,0.003l2.518,1.404l-0.477,-3.033c-0.05,-0.313 0.052,-0.631 0.275,-0.857l2.151,-2.185l-2.905,-0.452c-0.33,-0.051 -0.613,-0.264 -0.753,-0.567l-1.243,-2.681Z"/>
</svg>
