<svg xmlns="http://www.w3.org/2000/svg" style="fill-rule:evenodd;clip-rule:evenodd;stroke-linejoin:round;stroke-miterlimit:2" width="100%" height="100%" viewBox="0 0 16 16" xml:space="preserve">
 <defs>
  <style id="current-color-scheme" type="text/css">
   .ColorScheme-Text { color:#dfdfdf; } .ColorScheme-Highlight { color:#4285f4; } .ColorScheme-NeutralText { color:#ff9800; } .ColorScheme-PositiveText { color:#4caf50; } .ColorScheme-NegativeText { color:#f44336; }
  </style>
 </defs>
 <path style="fill:currentColor;fill-opacity:0.3" class="ColorScheme-Text" d="M10,2l-4,0l0,2c0,1.105 -0.895,2 -2,2l-2,0l0,4l2,0c1.105,0 2,0.895 2,2l0,2l4,0l0,-2c0,-1.105 0.895,-2 2,-2l2,0l0,-4l-2,0c-1.105,0 -2,-0.895 -2,-2l0,-2Z"/>
 <path style="fill:currentColor;" class="ColorScheme-Text" d="M5,1l0,3c0,0.552 -0.448,1 -1,1l-3,0l0,6l3,0c0.552,0 1,0.448 1,1l0,3l6,0l0,-3c0,-0.552 0.448,-1 1,-1l3,0l0,-6l-3,0c-0.552,0 -1,-0.448 -1,-1l0,-3l-6,0Zm5,1l-4,0l0,2c0,1.105 -0.895,2 -2,2l-2,0l0,4l2,0c1.105,0 2,0.895 2,2l0,2l4,0l0,-2c0,-1.105 0.895,-2 2,-2l2,0l0,-4l-2,0c-1.105,0 -2,-0.895 -2,-2l0,-2Z"/>
</svg>
