<svg xmlns="http://www.w3.org/2000/svg" style="fill-rule:evenodd;clip-rule:evenodd;stroke-linejoin:round;stroke-miterlimit:2" width="100%" height="100%" viewBox="0 0 16 16" xml:space="preserve">
 <defs>
  <style id="current-color-scheme" type="text/css">
   .ColorScheme-Text { color:#dfdfdf; } .ColorScheme-Highlight { color:#4285f4; } .ColorScheme-NeutralText { color:#ff9800; } .ColorScheme-PositiveText { color:#4caf50; } .ColorScheme-NegativeText { color:#f44336; }
  </style>
 </defs>
 <path style="fill:currentColor;fill-opacity:0.3" class="ColorScheme-Text" d="M8.001,2.794c-2.093,0 -3.798,1.774 -3.867,3.993c-0.046,0.012 -0.103,0.035 -0.148,0.069c-0.481,0.263 -0.431,0.913 -0.099,1.668c0.263,0.618 0.556,1.158 0.991,1.146c0.32,2.025 2.201,3.536 3.112,3.536c0.911,-0 2.912,-1.977 3.158,-3.536c0.423,0.012 0.688,-0.542 0.951,-1.16c0.332,-0.755 0.41,-1.391 -0.071,-1.654c-0.045,-0.034 -0.091,-0.057 -0.148,-0.069c-0.057,-2.219 -1.774,-3.993 -3.867,-3.993l-0.012,0Z"/>
 <path style="fill:currentColor;" class="ColorScheme-Text" d="M15.26,3.082c0,-1.293 -1.049,-2.342 -2.342,-2.342l-9.836,0c-1.293,0 -2.342,1.049 -2.342,2.342l0,9.836c0,1.293 1.049,2.342 2.342,2.342l9.836,0c1.293,0 2.342,-1.049 2.342,-2.342l0,-9.836Zm-0.895,0.08c0,-0.843 -0.684,-1.527 -1.527,-1.527l-9.676,0c-0.843,0 -1.527,0.684 -1.527,1.527l0,9.676c0,0.843 0.684,1.527 1.527,1.527l9.676,0c0.843,0 1.527,-0.684 1.527,-1.527l-0,-9.676Z"/>
</svg>
