<svg xmlns="http://www.w3.org/2000/svg" style="fill-rule:evenodd;clip-rule:evenodd;stroke-linejoin:round;stroke-miterlimit:2" width="100%" height="100%" viewBox="0 0 16 16" xml:space="preserve">
 <defs>
  <style id="current-color-scheme" type="text/css">
   .ColorScheme-Text { color:#dfdfdf; } .ColorScheme-Highlight { color:#4285f4; } .ColorScheme-NeutralText { color:#ff9800; } .ColorScheme-PositiveText { color:#4caf50; } .ColorScheme-NegativeText { color:#f44336; }
  </style>
 </defs>
 <circle style="fill:currentColor;fill-opacity:0.3" class="ColorScheme-Text" cx="7.455" cy="8.532" r="4.718"/>
 <path style="fill:currentColor;" class="ColorScheme-Text" d="M15,1c-0.989,0.204 -1.907,0.782 -2.449,1.617c-0.188,-0.084 -0.331,-0.117 -0.551,-0.117c-0.156,0 -0.304,0.03 -0.445,0.074c-0.279,0.104 -0.524,0.217 -0.756,0.332c-0.999,-0.591 -2.138,-0.904 -3.299,-0.906c-3.566,0 -6.5,2.934 -6.5,6.5c0,3.566 2.934,6.5 6.5,6.5c3.566,0 6.5,-2.934 6.5,-6.5c-0.002,-1.083 -0.275,-2.149 -0.793,-3.1c0.088,-0.288 0.164,-0.599 0.219,-0.955c0.044,-0.141 0.074,-0.289 0.074,-0.445c0,-0.336 -0.01,-0.471 -0.195,-0.721c0.401,-0.654 0.937,-1.082 1.695,-1.279l0,-1Zm-7.545,2.814c2.604,0 4.718,2.114 4.718,4.718c-0,2.604 -2.114,4.718 -4.718,4.718c-2.604,0 -4.718,-2.114 -4.718,-4.718c-0,-2.604 2.114,-4.718 4.718,-4.718Z"/>
</svg>
