<svg xmlns="http://www.w3.org/2000/svg" style="fill-rule:evenodd;clip-rule:evenodd;stroke-linejoin:round;stroke-miterlimit:2" width="100%" height="100%" viewBox="0 0 16 16" xml:space="preserve">
 <defs>
  <style id="current-color-scheme" type="text/css">
   .ColorScheme-Text { color:#dfdfdf; } .ColorScheme-Highlight { color:#4285f4; } .ColorScheme-NeutralText { color:#ff9800; } .ColorScheme-PositiveText { color:#4caf50; } .ColorScheme-NegativeText { color:#f44336; }
  </style>
 </defs>
 <path style="fill:currentColor;" class="ColorScheme-Text" d="M5.585,1.959l6.108,0l3.083,3.648l-0,2.705l-0.974,0l-0,-2.415l-2.516,-0.025l-0,-2.939l-6.254,0l-0,11.693l5.056,0l0,0.975l-4.503,0c-0.844,0 -1.528,-0.684 -1.528,-1.527l0,-10.588c0,-0.405 0.161,-0.794 0.448,-1.08c0.286,-0.286 0.675,-0.447 1.08,-0.447Zm6.161,8.483l-0,-0.341c-0,-1.5 1.5,-1.5 1.5,-1.5c-0,0 1.5,0 1.5,1.5l-0,1.5l0.5,0c0.5,0 0.5,0.5 0.5,0.5l-0,3c-0,0 -0,0.5 -0.5,0.5l-4,0c-0.5,0 -0.5,-0.5 -0.5,-0.5l-0,-3c-0,0 -0,-0.5 0.5,-0.5l2.5,0l-0,-1.5c-0,0 -0,-0.5 -0.5,-0.5c-0.5,0 -0.5,0.5 -0.5,0.5l-0,0.341l-1,0Zm-1.127,-8.628l-1.603,0l-0,-0.44l-6.254,0l-0,11.693l1.158,0l-0,0.974l-0.605,0c-0.843,0 -1.527,-0.683 -1.527,-1.527l-0,-10.588c-0,-0.405 0.161,-0.793 0.447,-1.08c0.287,-0.286 0.675,-0.447 1.08,-0.447l6.108,0l1.196,1.415Z"/>
</svg>
