<svg xmlns="http://www.w3.org/2000/svg" style="fill-rule:evenodd;clip-rule:evenodd;stroke-linejoin:round;stroke-miterlimit:2" width="100%" height="100%" viewBox="0 0 16 16" xml:space="preserve">
 <defs>
  <style id="current-color-scheme" type="text/css">
   .ColorScheme-Text { color:#dfdfdf; } .ColorScheme-Highlight { color:#4285f4; } .ColorScheme-NeutralText { color:#ff9800; } .ColorScheme-PositiveText { color:#4caf50; } .ColorScheme-NegativeText { color:#f44336; }
  </style>
 </defs>
 <path style="fill:currentColor;" class="ColorScheme-Text" d="M3,2c-0.265,-0 -0.52,0.105 -0.707,0.293c-0.188,0.187 -0.293,0.442 -0.293,0.707c0,2.26 0,7.74 -0,10c-0,0.265 0.105,0.52 0.293,0.707c0.187,0.188 0.442,0.293 0.707,0.293c2.26,0 7.74,0 10,-0c0.265,0 0.52,-0.105 0.707,-0.293c0.188,-0.187 0.293,-0.442 0.293,-0.707c0,-2.26 0,-7.74 -0,-10c0,-0.265 -0.105,-0.52 -0.293,-0.707c-0.187,-0.188 -0.442,-0.293 -0.707,-0.293l-10,-0Zm0,1l3,0l0,2l1,0l0,-2l2,0l0,2l1,0l0,-2l3,0l0,2l-3,0l0,1l3,0l0,3l-3,0l0,1l3,0l0,3l-3,0l0,-3l-1,0l0,3l-2,0l0,-3l-1,0l0,3l-3,0l0,-3l3,0l0,-1l-3,0l0,-3l3,0l0,-1l-3,0l0,-2Z"/>
 <path style="fill:currentColor;fill-opacity:0.3;" class="ColorScheme-Text" d="M5,4l0,7l6,0l0,-7l-6,0Zm1,1l4,0l0,1l-1,1.5l1,1.5l0,1l-4,0l0,-1l1,-1.5l-1,-1.5l0,-1Z"/>
</svg>
