<svg xmlns="http://www.w3.org/2000/svg" viewBox="0 0 16 16">
 <defs>
  <style id="current-color-scheme" type="text/css">
   .ColorScheme-Text { color:#dfdfdf; } .ColorScheme-Highlight { color:#4285f4; } .ColorScheme-NeutralText { color:#ff9800; } .ColorScheme-PositiveText { color:#4caf50; } .ColorScheme-NegativeText { color:#f44336; }
  </style>
 </defs>
  <path style="fill:currentColor" class="ColorScheme-Text" fill-opacity=".5" d="m11 2 5 6-5 6h-8.548c-1.354 0-2.452-1.098-2.452-2.452v-7.096c0-1.354 1.098-2.452 2.452-2.452z"/>
  <path style="fill:currentColor" class="ColorScheme-Text" d="m9 5h-1c-.28 0-.53.11-.71.29l-1.29 1.3-1.29-1.3c-.18-.18-.43-.29-.71-.29h-1v1c0 .28.11.53.29.71l1.3 1.29-1.3 1.29c-.18.18-.29.43-.29.71v1h1c.28 0 .53-.11.71-.29l1.29-1.3 1.29 1.3c.18.18.43.29.71.29h1v-1c0-.28-.11-.53-.29-.71l-1.3-1.29 1.3-1.29c.18-.18.29-.43.29-.71z"/>
</svg>
