<svg xmlns="http://www.w3.org/2000/svg" style="fill-rule:evenodd;clip-rule:evenodd;stroke-linejoin:round;stroke-miterlimit:2" width="100%" height="100%" viewBox="0 0 16 16" xml:space="preserve">
 <defs>
  <style id="current-color-scheme" type="text/css">
   .ColorScheme-Text { color:#dfdfdf; } .ColorScheme-Highlight { color:#4285f4; } .ColorScheme-NeutralText { color:#ff9800; } .ColorScheme-PositiveText { color:#4caf50; } .ColorScheme-NegativeText { color:#f44336; }
  </style>
 </defs>
 <path style="fill:currentColor;" class="ColorScheme-Text" d="M3,2c-0.265,-0 -0.52,0.105 -0.707,0.293c-0.188,0.187 -0.293,0.442 -0.293,0.707c0,2.26 0,7.74 -0,10c-0,0.265 0.105,0.52 0.293,0.707c0.187,0.188 0.442,0.293 0.707,0.293c1.934,0 6,0 6,0l0,-1l-2,0l0,-3l2,0l0,-1l-2,0l0,-2l2,0l0,-1l-2,0l0,-3l2,0l0,-1l-6,0Zm0,1l3,0l0,3l-3,0l0,-3Zm0,4l3,0l0,2l-3,0l0,-2Zm0,3l3,0l0,3l-3,0l0,-3Zm7,0l0,4l4,-2l-4,-2Z"/>
 <path style="fill:currentColor;" class="ColorScheme-Text" d="M9,2l1,0l0,1.281l1.281,-1.281l1.438,0l-2.719,2.719l-0,2.563l3,-3l-0,-2.281l1,0l-0,7l-1.719,0l0.719,-0.719l-0,-2.563l-3,3l-0,0.281l-1,0l-0,-7Z"/>
</svg>
