<svg xmlns="http://www.w3.org/2000/svg" style="fill-rule:evenodd;clip-rule:evenodd;stroke-linejoin:round;stroke-miterlimit:2" width="100%" height="100%" viewBox="0 0 16 16" xml:space="preserve">
 <defs>
  <style id="current-color-scheme" type="text/css">
   .ColorScheme-Text { color:#dfdfdf; } .ColorScheme-Highlight { color:#4285f4; } .ColorScheme-NeutralText { color:#ff9800; } .ColorScheme-PositiveText { color:#4caf50; } .ColorScheme-NegativeText { color:#f44336; }
  </style>
 </defs>
 <path style="fill:currentColor;" class="ColorScheme-Text" d="M5,3c-5,0 -5,5 -5,5c0,0 0,5 5,5l2,0l-0.133,-1.227l-2.267,0c-3.399,0 -3.399,-3.773 -3.399,-3.773c-0,0 -0,-3.773 3.399,-3.773l2.267,-0l0.133,-1.227l-2,0Zm4,0l0.133,1.227l2.267,-0c3.399,-0 3.399,3.773 3.399,3.773c0,0 0,3.773 -3.399,3.773l-2.267,0l-0.133,1.227l2,0c5,0 5,-5 5,-5c0,0 0,-5 -5,-5l-2,0Zm-3.009,4c-0.263,-0 -0.515,0.104 -0.701,0.29c-0.186,0.186 -0.29,0.438 -0.29,0.701c0,0.006 0,0.012 0,0.018c-0,0.263 0.104,0.515 0.29,0.701c0.186,0.186 0.438,0.29 0.701,0.29c1.112,0 2.906,0 4.018,0c0.263,0 0.515,-0.104 0.701,-0.29c0.186,-0.186 0.29,-0.438 0.29,-0.701c0,-0.006 0,-0.012 0,-0.018c0,-0.263 -0.104,-0.515 -0.29,-0.701c-0.186,-0.186 -0.438,-0.29 -0.701,-0.29c-1.112,-0 -2.906,-0 -4.018,-0Z"/>
</svg>
