<svg xmlns="http://www.w3.org/2000/svg" style="fill-rule:evenodd;clip-rule:evenodd;stroke-linejoin:round;stroke-miterlimit:2" width="100%" height="100%" viewBox="0 0 16 16" xml:space="preserve">
 <defs>
  <style id="current-color-scheme" type="text/css">
   .ColorScheme-Text { color:#dfdfdf; } .ColorScheme-Highlight { color:#4285f4; } .ColorScheme-NeutralText { color:#ff9800; } .ColorScheme-PositiveText { color:#4caf50; } .ColorScheme-NegativeText { color:#f44336; }
  </style>
 </defs>
 <path style="fill:currentColor;" class="ColorScheme-Text" d="M6,10l1,0l2,2.5l0,-2.5l1,0l0,4l-1,0l-2,-2.5l0,2.5l-1,0l0,-4Zm5,-7l1,0l0,4l-1,0l0,-4Zm-8,0l1,0l0,1.5c0,0.694 0.127,1.077 0.266,1.25c0.138,0.173 0.317,0.25 0.734,0.25c0.417,0 0.596,-0.077 0.734,-0.25c0.139,-0.173 0.266,-0.556 0.266,-1.25l0,-1.5l1,0l0,1.5c0,0.806 -0.123,1.423 -0.484,1.875c-0.362,0.452 -0.933,0.625 -1.516,0.625c-0.583,0 -1.154,-0.173 -1.516,-0.625c-0.361,-0.452 -0.484,-1.069 -0.484,-1.875l0,-1.5Z"/>
 <path style="fill:currentColor;fill-opacity:0.3" class="ColorScheme-Text" d="M15.26,3.082c0,-1.293 -1.049,-2.342 -2.342,-2.342l-9.836,0c-1.293,0 -2.342,1.049 -2.342,2.342l0,9.836c0,1.293 1.049,2.342 2.342,2.342l9.836,0c1.293,0 2.342,-1.049 2.342,-2.342l0,-9.836Zm-0.895,0.08c0,-0.843 -0.684,-1.527 -1.527,-1.527l-9.676,0c-0.843,0 -1.527,0.684 -1.527,1.527l0,9.676c0,0.843 0.684,1.527 1.527,1.527l9.676,0c0.843,0 1.527,-0.684 1.527,-1.527l-0,-9.676Z"/>
</svg>
