<svg xmlns="http://www.w3.org/2000/svg" style="fill-rule:evenodd;clip-rule:evenodd;stroke-linejoin:round;stroke-miterlimit:2" width="100%" height="100%" viewBox="0 0 16 16" xml:space="preserve">
 <defs>
  <style id="current-color-scheme" type="text/css">
   .ColorScheme-Text { color:#dfdfdf; } .ColorScheme-Highlight { color:#4285f4; } .ColorScheme-NeutralText { color:#ff9800; } .ColorScheme-PositiveText { color:#4caf50; } .ColorScheme-NegativeText { color:#f44336; }
  </style>
 </defs>
 <path style="fill:currentColor;" class="ColorScheme-Text" d="M6.776,2.045c0.393,-0 0.746,0.064 1.059,0.193c0.314,0.129 0.578,0.304 0.793,0.525c0.214,0.221 0.38,0.476 0.497,0.765c0.117,0.288 0.175,0.592 0.175,0.912c-0,0.663 -0.221,1.262 -0.663,1.796c-0.442,0.534 -0.995,1.047 -1.658,1.538l2.984,3.556c0.307,-0.405 0.608,-0.844 0.903,-1.317c0.295,-0.473 0.608,-0.968 0.94,-1.483l0.773,0.497c-0.356,0.553 -0.697,1.084 -1.022,1.594c-0.326,0.509 -0.654,0.979 -0.986,1.409l1.971,2.358l-1.16,0l-1.4,-1.639c-0.504,0.552 -1.041,0.994 -1.612,1.326c-0.572,0.332 -1.232,0.497 -1.981,0.497c-0.479,0 -0.936,-0.07 -1.372,-0.211c-0.436,-0.142 -0.817,-0.344 -1.143,-0.608c-0.325,-0.264 -0.586,-0.587 -0.783,-0.968c-0.196,-0.38 -0.294,-0.804 -0.294,-1.271c-0,-0.417 0.079,-0.804 0.239,-1.16c0.16,-0.357 0.372,-0.688 0.636,-0.995c0.264,-0.307 0.571,-0.599 0.921,-0.875c0.35,-0.277 0.721,-0.55 1.114,-0.82c-0.417,-0.516 -0.764,-1.017 -1.04,-1.502c-0.277,-0.485 -0.415,-1.01 -0.415,-1.575c-0,-0.344 0.055,-0.669 0.166,-0.976c0.11,-0.307 0.27,-0.578 0.479,-0.811c0.209,-0.233 0.473,-0.418 0.792,-0.553c0.319,-0.135 0.682,-0.202 1.087,-0.202Zm-0.368,11.625c0.601,-0 1.142,-0.145 1.621,-0.433c0.479,-0.289 0.933,-0.685 1.363,-1.189l-3.15,-3.739c-0.369,0.282 -0.703,0.543 -1.004,0.783c-0.301,0.239 -0.559,0.479 -0.774,0.718c-0.215,0.24 -0.381,0.488 -0.498,0.746c-0.116,0.258 -0.175,0.547 -0.175,0.866c0,0.356 0.071,0.673 0.212,0.949c0.142,0.276 0.332,0.51 0.571,0.7c0.24,0.19 0.516,0.338 0.829,0.442c0.314,0.105 0.648,0.157 1.005,0.157Zm-1.216,-9.083c-0,0.479 0.116,0.915 0.35,1.308c0.233,0.393 0.54,0.811 0.921,1.253c0.602,-0.442 1.068,-0.878 1.4,-1.308c0.332,-0.43 0.497,-0.891 0.497,-1.382c0,-0.43 -0.129,-0.792 -0.387,-1.087c-0.257,-0.295 -0.65,-0.442 -1.179,-0.442c-0.552,-0 -0.958,0.16 -1.216,0.479c-0.257,0.319 -0.386,0.712 -0.386,1.179Z"/>
</svg>
