<svg xmlns="http://www.w3.org/2000/svg" viewBox="0 0 16 16">
 <defs>
  <style id="current-color-scheme" type="text/css">
   .ColorScheme-Text { color:#dfdfdf; } .ColorScheme-Highlight { color:#4285f4; } .ColorScheme-NeutralText { color:#ff9800; } .ColorScheme-PositiveText { color:#4caf50; } .ColorScheme-NegativeText { color:#f44336; }
  </style>
 </defs>
 <g fill="#dfdfdf">
  <path fill-opacity=".3" d="m16 3.572c0-.759-.615-1.374-1.374-1.374h-13.252c-.759 0-1.374.615-1.374 1.374v8.858c0 .758.615 1.373 1.374 1.373h13.252c.759 0 1.374-.615 1.374-1.373z"/>
  <path fill-opacity=".5" d="m16 4.883c0-.365-.145-.714-.402-.972-.258-.257-.607-.402-.972-.402h-7.027c-.338 0-.664-.125-.916-.351l-.682-.611c-.235-.21-.535-.333-.849-.349h9.474c.759 0 1.374.615 1.374 1.374z"/>
  <path d="m9.225 5.478v-.759c0-.116.094-.209.209-.209h.916c.116 0 .209.093.209.209v1.812l1.856 1.465-.826.952v2.901c0 .572-.462 1.037-1.034 1.041l-5.139.034c-.278.002-.544-.107-.741-.303-.196-.195-.307-.461-.307-.738v-2.95l-.783-.937 4.405-3.494zm-.384 3.606h-1.726v2.45h1.726z"/>
 </g>
</svg>
