<svg xmlns="http://www.w3.org/2000/svg" style="fill-rule:evenodd;clip-rule:evenodd;stroke-linejoin:round;stroke-miterlimit:2" width="100%" height="100%" viewBox="0 0 16 16" xml:space="preserve">
 <defs>
  <style id="current-color-scheme" type="text/css">
   .ColorScheme-Text { color:#dfdfdf; } .ColorScheme-Highlight { color:#4285f4; } .ColorScheme-NeutralText { color:#ff9800; } .ColorScheme-PositiveText { color:#4caf50; } .ColorScheme-NegativeText { color:#f44336; }
  </style>
 </defs>
 <path style="fill:currentColor;" class="ColorScheme-Text" d="M4.041,0c-0.157,0 -0.318,0.019 -0.488,0.061c-1.056,0.256 -1.922,0.956 -1.926,3.029c-0.002,0.643 1.206,4.427 1.627,4.92c0.089,0.103 0.207,0.189 0.207,0.189l2.652,-0.703c0.145,-0.138 -0.162,-2.293 -0.165,-2.723c-0.017,-1.937 -0.027,-3.554 -0.635,-4.177c-0.387,-0.396 -0.802,-0.592 -1.272,-0.596Zm6.85,4.002c-0.369,0.013 -0.425,0.025 -0.631,0.129c-0.655,0.33 -1.151,1.031 -1.492,2.113c-0.365,1.155 -0.034,5.063 0.113,5.219l2.625,0.726c0,0 0.237,-0.185 0.373,-0.396c0.52,-0.809 1.342,-2.705 1.378,-5.108c0.012,-0.87 -0.902,-2.23 -1.382,-2.482c-0.326,-0.171 -0.542,-0.216 -0.984,-0.201Zm-4.674,4.117l-2.518,0.813c-0.087,0.086 0.107,1.117 0.309,1.638c0.265,0.685 0.744,1.229 1.225,1.389c0.089,0.03 0.267,0.046 0.445,0.041c0.244,-0.007 0.331,-0.028 0.496,-0.111c0.718,-0.364 1.009,-1.352 0.709,-2.415c-0.103,-0.363 -0.419,-1.05 -0.568,-1.234l-0.098,-0.121Zm2.578,4.008c-0.082,0.006 -0.136,0.099 -0.309,0.426c-0.324,0.614 -0.486,1.193 -0.486,1.734c0,0.827 0.416,1.494 1.041,1.668c0.819,0.228 1.626,-0.424 2.022,-1.633c0.143,-0.439 0.296,-1.317 0.244,-1.404l-2.512,-0.791Z"/>
</svg>
