<svg xmlns="http://www.w3.org/2000/svg" style="fill-rule:evenodd;clip-rule:evenodd;stroke-linejoin:round;stroke-miterlimit:2" width="100%" height="100%" viewBox="0 0 16 16" xml:space="preserve">
 <defs>
  <style id="current-color-scheme" type="text/css">
   .ColorScheme-Text { color:#dfdfdf; } .ColorScheme-Highlight { color:#4285f4; } .ColorScheme-NeutralText { color:#ff9800; } .ColorScheme-PositiveText { color:#4caf50; } .ColorScheme-NegativeText { color:#f44336; }
  </style>
 </defs>
 <path style="fill:currentColor;" class="ColorScheme-Text" d="M5.5,2c-1.381,0 -2.5,1.119 -2.5,2.5l0,3c0,1.381 1.119,2.5 2.5,2.5c1.381,0 2.5,-1.119 2.5,-2.5l0,-3c0,-1.381 -1.119,-2.5 -2.5,-2.5Zm0,1c0.828,0 1.5,0.672 1.5,1.5l0,3c0,0.828 -0.672,1.5 -1.5,1.5c-0.828,0 -1.5,-0.672 -1.5,-1.5l0,-3c0,-0.828 0.672,-1.5 1.5,-1.5Zm-3.5,6l0,1l1,0l0,-1l-1,0Z"/>
 <path style="fill:currentColor;" class="ColorScheme-Text" d="M11.5,2c-1.381,0 -2.5,1.119 -2.5,2.5l0,3c0,1.381 1.119,2.5 2.5,2.5c1.381,0 2.5,-1.119 2.5,-2.5l0,-3c0,-1.381 -1.119,-2.5 -2.5,-2.5m0,1c0.828,0 1.5,0.672 1.5,1.5l0,3c0,0.828 -0.672,1.5 -1.5,1.5c-0.828,0 -1.5,-0.672 -1.5,-1.5l0,-3c0,-0.828 0.672,-1.5 1.5,-1.5"/>
 <path style="fill:currentColor;" class="ColorScheme-NegativeText" d="M9.37,10.47l1.414,1.414l-1.414,1.414l0.707,0.707l1.414,-1.414l1.414,1.414l0.707,-0.707l-1.414,-1.414l1.414,-1.414l-0.707,-0.707l-1.414,1.414l-1.414,-1.414l-0.707,0.707Z"/>
</svg>
