<svg xmlns="http://www.w3.org/2000/svg" style="fill-rule:evenodd;clip-rule:evenodd;stroke-linejoin:round;stroke-miterlimit:2" width="100%" height="100%" viewBox="0 0 16 16" xml:space="preserve">
 <defs>
  <style id="current-color-scheme" type="text/css">
   .ColorScheme-Text { color:#dfdfdf; } .ColorScheme-Highlight { color:#4285f4; } .ColorScheme-NeutralText { color:#ff9800; } .ColorScheme-PositiveText { color:#4caf50; } .ColorScheme-NegativeText { color:#f44336; }
  </style>
 </defs>
 <path style="fill:currentColor;" class="ColorScheme-Text" d="M2.5,1.5c-0.552,0 -1,0.448 -1,1l0,11c0,0.552 0.448,1 1,1l11,-0c0.552,-0 1,-0.448 1,-1l0,-11c-0,-0.552 -0.448,-1 -1,-1l-11,-0Zm0,1l2,-0l0,2l-2,-0l0,-2Zm3,-0l2,-0l0,2l-2,-0l0,-2Zm3,-0l2,-0l0,2l-2,-0l0,-2Zm3,-0l2,-0l0,2l-2,-0l0,-2Zm-9,3l2,-0l0,2l-2,-0l0,-2Zm3,-0l2,-0l0,2l-2,-0l0,-2Zm3,-0l2,-0l0,2l-2,-0l0,-2Zm3,-0l2,-0l0,2l-2,-0l0,-2Zm-9,3l2,-0l0,2l-2,-0l0,-2Zm3,-0l2,-0l0,2l-2,-0l0,-2Zm3,-0l2,-0l0,2l-2,-0l0,-2Zm3,-0l2,-0l0,2l-2,-0l0,-2Zm-9,3l2,-0l0,2l-2,-0l0,-2Zm3,-0l2,-0l0,2l-2,-0l0,-2Zm3,-0l2,-0l0,2l-2,-0l0,-2Zm3,-0l2,-0l0,2l-2,-0l0,-2Z"/>
</svg>
