<svg xmlns="http://www.w3.org/2000/svg" style="fill-rule:evenodd;clip-rule:evenodd;stroke-linejoin:round;stroke-miterlimit:2" width="100%" height="100%" viewBox="0 0 16 16" xml:space="preserve">
 <defs>
  <style id="current-color-scheme" type="text/css">
   .ColorScheme-Text { color:#dfdfdf; } .ColorScheme-Highlight { color:#4285f4; } .ColorScheme-NeutralText { color:#ff9800; } .ColorScheme-PositiveText { color:#4caf50; } .ColorScheme-NegativeText { color:#f44336; }
  </style>
 </defs>
 <path style="fill:currentColor;fill-opacity:0.3;" class="ColorScheme-Text" d="M8,1c-1.857,0.008 -4.143,2.041 -4.143,4.561c0,0.439 0.059,0.872 0.167,1.277c-0.522,0.461 -3.224,2.46 -2.303,5.053c-0,0 0.917,0.009 1.602,-0.703c0.195,0.755 0.37,0.896 0.862,1.468c-0.722,0.212 -1.212,0.895 -1.212,1.367c-0,0.689 1.072,0.716 2.358,0.716c0.872,-0 1.603,0.004 2.001,-0.376c0.219,0.029 0.441,0.047 0.668,0.047c0.227,0 0.45,-0.018 0.668,-0.047c0.399,0.38 1.187,0.376 2.059,0.376c1.286,-0 2.302,-0.027 2.302,-0.716c0,-0.472 -0.49,-1.155 -1.213,-1.367c0.493,-0.572 0.603,-0.573 0.797,-1.328c0.854,0.627 1.668,0.563 1.668,0.563c0.921,-2.593 -1.781,-4.592 -2.302,-5.053c0.108,-0.405 0.167,-0.838 0.167,-1.277c0,-2.52 -2.228,-4.569 -4.146,-4.561Z"/>
 <path style="fill:currentColor;" class="ColorScheme-Text" d="M8,1c-1.857,0.008 -4.143,2.041 -4.143,4.561c0,0.439 0.059,0.872 0.167,1.277c-0.522,0.461 -3.224,2.46 -2.303,5.053c-0,0 0.917,0.009 1.602,-0.703c0.195,0.755 0.37,0.896 0.862,1.468c-0.722,0.212 -1.212,0.895 -1.212,1.367c-0,0.689 1.072,0.716 2.358,0.716c0.872,-0 1.603,0.004 2.001,-0.376c0.219,0.029 0.441,0.047 0.668,0.047c0.227,0 0.45,-0.018 0.668,-0.047c0.399,0.38 1.187,0.376 2.059,0.376c1.286,-0 2.302,-0.027 2.302,-0.716c0,-0.472 -0.49,-1.155 -1.213,-1.367c0.493,-0.572 0.603,-0.573 0.797,-1.328c0.854,0.627 1.668,0.563 1.668,0.563c0.921,-2.593 -1.781,-4.592 -2.302,-5.053c0.108,-0.405 0.167,-0.838 0.167,-1.277c0,-2.52 -2.228,-4.569 -4.146,-4.561Zm5.465,9.684c-0.034,-0.584 -0.301,-1.105 -0.61,-1.541c-0.566,-0.798 -1.303,-1.347 -1.539,-1.556c-0.283,-0.251 -0.401,-0.64 -0.304,-1.006c0.087,-0.324 0.134,-0.669 0.134,-1.021c0,-1.191 -0.644,-2.243 -1.476,-2.897c-0.515,-0.405 -1.104,-0.665 -1.666,-0.663c-0.545,0.002 -1.13,0.265 -1.648,0.67c-0.835,0.654 -1.499,1.699 -1.499,2.891c0,0.351 0.047,0.697 0.133,1.021c0.097,0.365 -0.021,0.755 -0.304,1.005c-0.236,0.209 -0.973,0.759 -1.539,1.557c-0.285,0.4 -0.533,0.874 -0.598,1.403c0.018,-0.017 0.036,-0.035 0.054,-0.053c0.252,-0.261 0.625,-0.366 0.975,-0.273c0.351,0.092 0.624,0.367 0.714,0.718c0.142,0.553 0.29,0.645 0.651,1.064c0.222,0.258 0.298,0.61 0.202,0.936c-0.097,0.326 -0.352,0.581 -0.678,0.677c-0.074,0.021 -0.142,0.055 -0.202,0.096c0.316,0.025 0.681,0.027 1.066,0.027c0.32,-0 0.619,0.002 0.886,-0.02c0.173,-0.014 0.33,0.011 0.425,-0.08c0.219,-0.209 0.521,-0.307 0.821,-0.267c0.176,0.023 0.355,0.038 0.537,0.038c0.183,0 0.361,-0.015 0.536,-0.038c0.3,-0.04 0.602,0.058 0.821,0.267c0.066,0.062 0.176,0.047 0.292,0.063c0.318,0.041 0.689,0.037 1.078,0.037c0.307,-0 0.677,-0.025 0.974,-0.05c-0.051,-0.031 -0.107,-0.056 -0.166,-0.073c-0.327,-0.096 -0.582,-0.351 -0.678,-0.677c-0.096,-0.326 -0.02,-0.678 0.202,-0.936c0.348,-0.404 0.448,-0.391 0.585,-0.924c0.083,-0.322 0.32,-0.581 0.633,-0.693c0.312,-0.112 0.66,-0.061 0.928,0.136c0.088,0.065 0.176,0.118 0.26,0.162Zm-5.458,-2.544l-1.279,-1.251l2.558,-0l-1.279,1.251Z"/>
</svg>
