<svg xmlns="http://www.w3.org/2000/svg" style="fill-rule:evenodd;clip-rule:evenodd;stroke-linejoin:round;stroke-miterlimit:2" width="100%" height="100%" viewBox="0 0 16 16" xml:space="preserve">
 <defs>
  <style id="current-color-scheme" type="text/css">
   .ColorScheme-Text { color:#dfdfdf; } .ColorScheme-Highlight { color:#4285f4; } .ColorScheme-NeutralText { color:#ff9800; } .ColorScheme-PositiveText { color:#4caf50; } .ColorScheme-NegativeText { color:#f44336; }
  </style>
 </defs>
 <g>
  <path style="fill:currentColor;fill-opacity:0.3" class="ColorScheme-Text" d="M7.132,0.341l-5.046,4.45l-1.061,0c-0.567,0 -1.025,0.458 -1.025,1.025l-0,4.625c-0,0.566 0.458,1.025 1.025,1.025l1.061,0l5.046,4.449l-0,-15.574Z"/>
  <path style="fill:currentColor;" class="ColorScheme-Text" d="M7.132,0.341l-5.333,4.45l-0.774,0c-0.567,0 -1.025,0.458 -1.025,1.025l-0,4.625c-0,0.566 0.458,1.025 1.025,1.025l0.774,0l5.333,4.449l-0,-15.574Zm-1.113,2.3l-3.529,3.022c-0.197,0.156 -0.441,0.241 -0.691,0.241l-0.687,0l0,4.449l0.687,0c0.25,0 0.494,0.085 0.691,0.24l3.529,3.023l0,-10.975Z"/>
  <path style="fill:currentColor;" class="ColorScheme-Text" d="M10.743,15.764c-0.212,-0.299 -0.066,-0.641 0.313,-0.858c2.192,-1.321 3.823,-4.16 3.823,-6.757c0,-2.596 -1.596,-5.407 -3.793,-6.719c-0.384,-0.22 -0.591,-0.631 -0.39,-0.941c0.198,-0.304 0.691,-0.244 0.895,-0.129c2.715,1.62 4.409,4.562 4.409,7.768c0,3.206 -1.694,6.149 -4.403,7.778c-0.207,0.118 -0.631,0.175 -0.854,-0.142Zm-1.471,-3.289c-0.271,-0.361 0.077,-0.755 0.421,-0.948c1.039,-0.634 1.827,-2.148 1.827,-3.399c0,-1.25 -0.855,-2.786 -1.906,-3.398c-0.355,-0.2 -0.624,-0.595 -0.371,-0.902c0.305,-0.368 0.655,-0.265 0.862,-0.153c1.554,0.919 2.54,2.602 2.54,4.453c0,1.851 -0.986,3.535 -2.529,4.475c-0.212,0.115 -0.551,0.26 -0.844,-0.128Zm-1.206,-3.115c0.681,0 1.233,-0.551 1.233,-1.232c0,-0.68 -0.552,-1.231 -1.233,-1.231l0,2.463Z"/>
 </g>
</svg>
