<svg xmlns="http://www.w3.org/2000/svg" style="fill-rule:evenodd;clip-rule:evenodd;stroke-linejoin:round;stroke-miterlimit:2" width="100%" height="100%" viewBox="0 0 16 16" xml:space="preserve">
 <defs>
  <style id="current-color-scheme" type="text/css">
   .ColorScheme-Text { color:#dfdfdf; } .ColorScheme-Highlight { color:#4285f4; } .ColorScheme-NeutralText { color:#ff9800; } .ColorScheme-PositiveText { color:#4caf50; } .ColorScheme-NegativeText { color:#f44336; }
  </style>
 </defs>
 <path style="fill:currentColor;" class="ColorScheme-Text" d="M1,9.007l0,3.993c0,1 1,1 1,1l4,0l0,-1.178l-3.822,-0l0,-3.815l-1.178,0Zm12.822,0l-0,3.815l-3.822,-0l0,1.178l4,0c0,0 1,0 1,-1l0,-3.993l-1.178,0Zm-11.822,-7.007c-1,0 -1,1 -1,1l0,3.998l1.178,-0l0,-3.82l3.822,0l0,-1.178l-4,0Zm8,0l0,1.178l3.822,0l-0,3.82l1.178,-0l0,-3.998c0,-1 -1,-1 -1,-1l-4,0Z"/>
</svg>
