<svg xmlns="http://www.w3.org/2000/svg" style="fill-rule:evenodd;clip-rule:evenodd;stroke-linejoin:round;stroke-miterlimit:2" width="100%" height="100%" viewBox="0 0 16 16" xml:space="preserve">
 <defs>
  <style id="current-color-scheme" type="text/css">
   .ColorScheme-Text { color:#dfdfdf; } .ColorScheme-Highlight { color:#4285f4; } .ColorScheme-NeutralText { color:#ff9800; } .ColorScheme-PositiveText { color:#4caf50; } .ColorScheme-NegativeText { color:#f44336; }
  </style>
 </defs>
 <path style="fill:currentColor;fill-opacity:0.3" class="ColorScheme-Text" d="M6.815,9.851l0.946,0.96c0.358,0.364 0.847,0.563 1.336,0.563c0.522,0 0.978,-0.199 1.337,-0.563l0.945,-0.96l3.358,3.41l-11.279,0l3.357,-3.41Zm8.15,-3.642l0,6.853l-3.358,-3.443l3.358,-3.41Zm-8.378,3.41l-3.357,3.41l0,-6.82l3.357,3.41Z"/>
 <path style="fill:currentColor;" class="ColorScheme-Text" d="M4.033,5.316c-0.803,0 -1.455,0.662 -1.455,1.478l0,5.65c0,0.817 0.652,1.479 1.455,1.479l10.128,0c0.804,0 1.456,-0.662 1.456,-1.479l0,-5.65c0,-0.816 -0.652,-1.478 -1.456,-1.478l-10.128,0Zm6.173,5.263c-0.294,0.298 -0.685,0.464 -1.109,0.464c-0.423,0 -0.815,-0.166 -1.108,-0.464l-4.531,-4.601l11.246,0l-4.498,4.601Zm-3.619,-0.96l-3.357,3.41l0,-6.82l3.357,3.41Zm0.228,0.232l0.946,0.96c0.358,0.364 0.847,0.563 1.336,0.563c0.522,0 0.978,-0.199 1.337,-0.563l0.945,-0.96l3.358,3.41l-11.279,0l3.357,-3.41Zm4.792,-0.232l3.358,-3.41l0,6.853l-3.358,-3.443Z"/>
 <path style="fill:currentColor;" class="ColorScheme-Text" d="M12.616,8.114l-2.41,2.465c-0.294,0.298 -0.685,0.464 -1.109,0.464c-0.423,0 -0.815,-0.166 -1.108,-0.464l-2.41,-2.447l-0,-4.435l7.037,-0l0,4.417Z"/>
 <path style="fill:currentColor;" class="ColorScheme-Text" d="M4.909,3.697l-0,1.135l-0.892,-0c-1.078,-0 -1.956,0.884 -1.956,1.979l0,5.196c-0.353,-0.27 -0.581,-0.699 -0.581,-1.182l0,-5.65c0,-0.816 0.652,-1.478 1.456,-1.478l1.973,0Zm8.377,0.017c0.597,0.093 1.075,0.554 1.201,1.148c-0.111,-0.019 -0.225,-0.03 -0.342,-0.03l-0.859,0l-0,-1.118Z"/>
 <path style="fill:currentColor;" class="ColorScheme-Text" d="M1.043,10.365c-0.353,-0.27 -0.581,-0.699 -0.581,-1.182l0,-5.65c0,-0.817 0.652,-1.479 1.456,-1.479l10.128,0c0.698,0 1.282,0.5 1.423,1.166c-0.111,-0.02 -0.225,-0.03 -0.342,-0.03l-10.128,0c-1.078,0 -1.956,0.884 -1.956,1.978l0,5.197Z"/>
</svg>
