<svg xmlns="http://www.w3.org/2000/svg" style="fill-rule:evenodd;clip-rule:evenodd;stroke-linejoin:round;stroke-miterlimit:2" width="100%" height="100%" viewBox="0 0 16 16" xml:space="preserve">
 <defs>
  <style id="current-color-scheme" type="text/css">
   .ColorScheme-Text { color:#dfdfdf; } .ColorScheme-Highlight { color:#4285f4; } .ColorScheme-NeutralText { color:#ff9800; } .ColorScheme-PositiveText { color:#4caf50; } .ColorScheme-NegativeText { color:#f44336; }
  </style>
 </defs>
 <rect style="fill:currentColor;fill-opacity:0.3" class="ColorScheme-Text" width="5.035" height="12.73" x="1.64" y="1.64"/>
 <path style="fill:currentColor;" class="ColorScheme-Text" d="M15.26,3.082c0,-1.293 -1.049,-2.342 -2.342,-2.342l-9.836,0c-1.293,0 -2.342,1.049 -2.342,2.342l0,9.836c0,1.293 1.049,2.342 2.342,2.342l9.836,0c1.293,0 2.342,-1.049 2.342,-2.342l0,-9.836Zm-0.895,0.08c0,-0.843 -0.684,-1.527 -1.527,-1.527l-9.676,0c-0.843,0 -1.527,0.684 -1.527,1.527l0,9.676c0,0.843 0.684,1.527 1.527,1.527l9.676,0c0.843,0 1.527,-0.684 1.527,-1.527l-0,-9.676Zm-1.796,-0.399c0.046,-0.01 0.091,-0.015 0.134,-0.015c0.284,-0 0.497,0.213 0.497,0.523l0.001,0.347l-0,7.143c-0,0.839 -0.678,1.518 -1.515,1.518l-0.432,0c-0.6,0 -1.086,-0.487 -1.086,-1.089l-0,-0.101c-0,-0.548 0.436,-1.095 0.969,-1.214l1.233,-0.277c0.231,-0.052 0.421,-0.289 0.421,-0.527l0,-3.987l-4.601,0.973l-0,2.257l-0.008,0l0,3.764c0,0.83 -0.671,1.504 -1.499,1.504l-0.416,-0c-0.598,-0 -1.083,-0.486 -1.083,-1.087l0,-0.096c0,-0.553 0.439,-1.103 0.976,-1.226l1.196,-0.271c0.232,-0.053 0.422,-0.291 0.422,-0.529l0.006,-5.452l0,-0.645c0,-0.241 0.192,-0.481 0.425,-0.534l4.36,-0.979Zm0.259,0.516l-4.633,0.99l-0,0.758l4.633,-0.989l0,-0.759Z"/>
</svg>
