<svg xmlns="http://www.w3.org/2000/svg" style="fill-rule:evenodd;clip-rule:evenodd;stroke-linejoin:round;stroke-miterlimit:2" width="100%" height="100%" viewBox="0 0 16 16" xml:space="preserve">
 <defs>
  <style id="current-color-scheme" type="text/css">
   .ColorScheme-Text { color:#dfdfdf; } .ColorScheme-Highlight { color:#4285f4; } .ColorScheme-NeutralText { color:#ff9800; } .ColorScheme-PositiveText { color:#4caf50; } .ColorScheme-NegativeText { color:#f44336; }
  </style>
 </defs>
 <path style="fill:currentColor;" class="ColorScheme-Text" d="M11.75,12.332c-2.027,-0.203 -3.97,-1.79 -5.076,-3.404c-0.98,-1.429 -1.895,-3.579 -3.594,-3.579l-2.14,0l-0.004,-0.001c-0.617,-0.012 -0.806,-0.211 -0.81,-0.862c-0.005,-0.591 0.193,-0.841 0.81,-0.85l0.004,-0.001l2.14,0c2.069,0 3.211,1.688 4.403,3.427c0.907,1.323 2.628,3.236 4.267,3.534l0,-1.373l4.124,2.251l-4.124,2.251l0,-1.393Zm-5.813,-4.094c0.178,0.289 0.353,0.572 0.53,0.831c0.154,0.223 0.308,0.446 0.466,0.664c-1.016,1.426 -2.102,2.634 -3.853,2.634l-2.14,0l-0.004,-0.001c-0.617,-0.009 -0.764,-0.321 -0.76,-0.912c0.005,-0.651 0.143,-0.788 0.76,-0.8l0.004,-0.001l2.14,0c1.274,0 2.107,-1.208 2.857,-2.415Zm-5.086,-2l0,1l1,0l0,3l1,0l0,-3l1,0l0,-1l-3,0Zm10.899,-2.568l0,-1.395l4.124,2.251l-4.124,2.251l0,-1.371c-1.193,0.217 -2.794,1.289 -3.504,2.366c-0.191,-0.296 -0.375,-0.586 -0.557,-0.852c-0.15,-0.218 -0.299,-0.436 -0.449,-0.65c0.956,-1.304 2.823,-2.431 4.51,-2.6Z"/>
</svg>
