<svg xmlns="http://www.w3.org/2000/svg" style="fill-rule:evenodd;clip-rule:evenodd;stroke-linejoin:round;stroke-miterlimit:2" width="100%" height="100%" viewBox="0 0 16 16" xml:space="preserve">
 <defs>
  <style id="current-color-scheme" type="text/css">
   .ColorScheme-Text { color:#dfdfdf; } .ColorScheme-Highlight { color:#4285f4; } .ColorScheme-NeutralText { color:#ff9800; } .ColorScheme-PositiveText { color:#4caf50; } .ColorScheme-NegativeText { color:#f44336; }
  </style>
 </defs>
 <path style="fill:currentColor;fill-opacity:0.3;" class="ColorScheme-Text" d="M2,2c6.5,-3.5 5.5,3.5 12,0c3.5,6.5 -3.5,5.5 0,12c-6.5,3.5 -5.5,-3.5 -12,0c-3.5,-6.5 3.5,-5.5 0,-12Z"/>
 <path style="fill:currentColor;" class="ColorScheme-Text" d="M3.25,13.563c-0,-0.449 -0.364,-0.813 -0.813,-0.813l-1.625,0c-0.448,0 -0.812,0.364 -0.812,0.813l0,1.625c0,0.448 0.364,0.812 0.812,0.812l1.625,0c0.449,0 0.813,-0.364 0.813,-0.812l-0,-1.625Zm12.75,-0c0,-0.449 -0.364,-0.813 -0.812,-0.813l-1.625,0c-0.449,0 -0.813,0.364 -0.813,0.813l0,1.625c0,0.448 0.364,0.812 0.813,0.812l1.625,0c0.448,0 0.812,-0.364 0.812,-0.812l0,-1.625Zm-13.389,-0l-0,1.625c-0,0.095 -0.078,0.173 -0.174,0.173l-1.625,-0c-0.095,-0 -0.173,-0.078 -0.173,-0.173l0,-1.625c0,-0.096 0.078,-0.174 0.173,-0.174c0,0 1.625,0 1.625,0c0.096,0 0.174,0.078 0.174,0.174Zm12.75,-0l-0,1.625c-0,0.095 -0.078,0.173 -0.173,0.173l-1.625,-0c-0.096,-0 -0.174,-0.078 -0.174,-0.173l0,-1.625c0,-0.096 0.078,-0.174 0.174,-0.174c-0,0 1.625,0 1.625,0c0.095,0 0.173,0.078 0.173,0.174Zm-12.111,-12.751c-0,-0.448 -0.364,-0.812 -0.813,-0.812l-1.625,-0c-0.448,-0 -0.812,0.364 -0.812,0.812l0,1.625c0,0.449 0.364,0.813 0.812,0.813l1.625,-0c0.449,-0 0.813,-0.364 0.813,-0.813l-0,-1.625Zm12.75,0c0,-0.448 -0.364,-0.812 -0.812,-0.812l-1.625,-0c-0.449,-0 -0.813,0.364 -0.813,0.812l0,1.625c0,0.449 0.364,0.813 0.813,0.813l1.625,-0c0.448,-0 0.812,-0.364 0.812,-0.813l0,-1.625Zm-13.389,0l-0,1.625c-0,0.096 -0.078,0.174 -0.174,0.174l-1.625,-0c-0.095,-0 -0.173,-0.078 -0.173,-0.174l0,-1.625c0,-0.095 0.078,-0.173 0.173,-0.173c0,0 1.625,0 1.625,0c0.096,0 0.174,0.078 0.174,0.173Zm12.75,0l-0,1.625c-0,0.096 -0.078,0.174 -0.173,0.174l-1.625,-0c-0.096,-0 -0.174,-0.078 -0.174,-0.174l0,-1.625c0,-0.095 0.078,-0.173 0.174,-0.173c-0,0 1.625,0 1.625,0c0.095,0 0.173,0.078 0.173,0.173Z"/>
</svg>
