<svg xmlns="http://www.w3.org/2000/svg" style="fill-rule:evenodd;clip-rule:evenodd;stroke-linejoin:round;stroke-miterlimit:2" width="100%" height="100%" viewBox="0 0 16 16" xml:space="preserve">
 <defs>
  <style id="current-color-scheme" type="text/css">
   .ColorScheme-Text { color:#dfdfdf; } .ColorScheme-Highlight { color:#4285f4; } .ColorScheme-NeutralText { color:#ff9800; } .ColorScheme-PositiveText { color:#4caf50; } .ColorScheme-NegativeText { color:#f44336; }
  </style>
 </defs>
 <path style="fill:currentColor;" class="ColorScheme-Text" d="M4,13l9,0l0,-5l-4,0l0,5l-1,0l0,-6l-1,0l0,6l-2,0l0,-6l-1,0l0,6Zm0,-11l0,1l1,0l0,3l1,0l0,-4l-2,0Zm4.5,0c-0.831,0 -1.5,0.669 -1.5,1.5l0,1c0,0.831 0.669,1.5 1.5,1.5c0.831,0 1.5,-0.669 1.5,-1.5l0,-1c0,-0.831 -0.669,-1.5 -1.5,-1.5Zm4,0c-0.831,0 -1.5,0.669 -1.5,1.5l0,1c0,0.831 0.669,1.5 1.5,1.5c0.831,0 1.5,-0.669 1.5,-1.5l0,-1c0,-0.831 -0.669,-1.5 -1.5,-1.5Zm-4,1c0.277,0 0.5,0.223 0.5,0.5l0,1c0,0.277 -0.223,0.5 -0.5,0.5c-0.277,0 -0.5,-0.223 -0.5,-0.5l0,-1c0,-0.277 0.223,-0.5 0.5,-0.5Zm4,0c0.277,0 0.5,0.223 0.5,0.5l0,1c0,0.277 -0.223,0.5 -0.5,0.5c-0.277,0 -0.5,-0.223 -0.5,-0.5l0,-1c0,-0.277 0.223,-0.5 0.5,-0.5Zm-2.5,6l2,0l0,4l-2,0l0,-4Z"/>
 <path style="fill:currentColor;fill-opacity:0.3;" class="ColorScheme-Text" d="M2,2l0,12l12,0l0,-1l-11,0l0,-11l-1,0Z"/>
</svg>
