<svg xmlns="http://www.w3.org/2000/svg" style="fill-rule:evenodd;clip-rule:evenodd;stroke-linejoin:round;stroke-miterlimit:2" width="100%" height="100%" viewBox="0 0 16 16" xml:space="preserve">
 <defs>
  <style id="current-color-scheme" type="text/css">
   .ColorScheme-Text { color:#dfdfdf; } .ColorScheme-Highlight { color:#4285f4; } .ColorScheme-NeutralText { color:#ff9800; } .ColorScheme-PositiveText { color:#4caf50; } .ColorScheme-NegativeText { color:#f44336; }
  </style>
 </defs>
 <path style="fill:currentColor;" class="ColorScheme-Text" d="M4.654,1l-3.654,4l2,0l-0.728,3l3.728,-4l-2,0l0.654,-3Zm5.346,3l0,-1l-2,0l0,10l2,0l0,-1l-1,0l0,-8l1,0Z"/>
 <path style="fill:currentColor;" class="ColorScheme-Text" d="M15.015,2.237c0,-0.702 -0.569,-1.272 -1.271,-1.272l-2.543,0c-0.701,0 -1.271,0.57 -1.271,1.272l0,2.542c0,0.702 0.57,1.271 1.271,1.271l2.543,0c0.702,0 1.271,-0.569 1.271,-1.271l0,-2.542Zm-1,-0l0,2.542c0,0.15 -0.121,0.271 -0.271,0.271l-2.543,0c-0.149,0 -0.271,-0.121 -0.271,-0.271l0,-2.542c0,-0.15 0.122,-0.272 0.271,-0.272c0,0 2.543,0 2.543,0c0.15,0 0.271,0.122 0.271,0.272Z"/>
 <path style="fill:currentColor;" class="ColorScheme-Text" d="M15.015,11.221c0,-0.702 -0.569,-1.271 -1.271,-1.271l-2.543,-0c-0.701,-0 -1.271,0.569 -1.271,1.271l0,2.542c0,0.702 0.57,1.272 1.271,1.272l2.543,-0c0.702,-0 1.271,-0.57 1.271,-1.272l0,-2.542Zm-1,-0l0,2.542c0,0.15 -0.121,0.272 -0.271,0.272l-2.543,-0c-0.149,-0 -0.271,-0.122 -0.271,-0.272l0,-2.542c0,-0.15 0.122,-0.271 0.271,-0.271c0,-0 2.543,-0 2.543,-0c0.15,-0 0.271,0.121 0.271,0.271Z"/>
</svg>
