<svg xmlns="http://www.w3.org/2000/svg" style="fill-rule:evenodd;clip-rule:evenodd;stroke-linejoin:round;stroke-miterlimit:2" width="100%" height="100%" viewBox="0 0 16 16" xml:space="preserve">
 <defs>
  <style id="current-color-scheme" type="text/css">
   .ColorScheme-Text { color:#dfdfdf; } .ColorScheme-Highlight { color:#4285f4; } .ColorScheme-NeutralText { color:#ff9800; } .ColorScheme-PositiveText { color:#4caf50; } .ColorScheme-NegativeText { color:#f44336; }
  </style>
 </defs>
 <path style="fill:currentColor;" class="ColorScheme-Text" d="M6.524,3.03c1.339,-0 2.595,1.247 2.419,2.763c-0.176,1.52 -1.08,2.764 -2.419,2.764c-1.338,-0 -2.194,-1.188 -2.418,-2.764c-0.216,-1.51 1.08,-2.763 2.418,-2.763Z"/>
 <path style="fill:currentColor;" class="ColorScheme-Text" d="M10.577,1.825c1.339,0 2.595,1.247 2.419,2.763c-0.176,1.52 -1.08,2.764 -2.419,2.764c-0.532,0 -0.987,-0.187 -1.357,-0.512c0.105,-0.311 0.179,-0.643 0.22,-0.99c0.123,-1.06 -0.338,-2.01 -1.063,-2.619c0.413,-0.835 1.297,-1.406 2.2,-1.406Z"/>
 <path style="fill:currentColor;fill-opacity:0.5" class="ColorScheme-Text" d="M6.496,11.361c-0,-0 0.735,-1.586 0.873,-1.952c1.409,0.074 2.485,0.371 3.271,0.707c0.902,0.386 1.414,2.231 1.663,3.484c0.078,0.272 0.024,0.565 -0.146,0.791c-0.17,0.226 -0.451,0.271 -0.72,0.359c-2.245,0.734 -7.47,0.788 -9.793,0.039c-0.29,-0.094 -0.592,-0.148 -0.768,-0.398c-0.176,-0.25 -0.22,-0.569 -0.117,-0.857c0.359,-1.209 0.96,-2.946 1.789,-3.379c0.73,-0.382 1.718,-0.631 3.001,-0.724l0.947,1.93Z"/>
 <path style="fill:currentColor;" class="ColorScheme-Text" d="M11.57,11.167l-0,-2.053c-0,-0.308 0.25,-0.557 0.558,-0.557c0.307,-0 0.557,0.249 0.557,0.557l-0,2.053l2.053,0c0.308,0 0.557,0.25 0.557,0.558c0,0.308 -0.249,0.557 -0.557,0.557l-2.053,0l-0,2.054c-0,0.307 -0.25,0.557 -0.557,0.557c-0.308,-0 -0.558,-0.25 -0.558,-0.557l-0,-2.054l-2.053,0c-0.308,0 -0.558,-0.249 -0.558,-0.557c0,-0.308 0.25,-0.558 0.558,-0.558l2.053,0Z"/>
</svg>
