<svg xmlns="http://www.w3.org/2000/svg" style="fill-rule:evenodd;clip-rule:evenodd;stroke-linejoin:round;stroke-miterlimit:2" width="100%" height="100%" viewBox="0 0 16 16" xml:space="preserve">
 <defs>
  <style id="current-color-scheme" type="text/css">
   .ColorScheme-Text { color:#dfdfdf; } .ColorScheme-Highlight { color:#4285f4; } .ColorScheme-NeutralText { color:#ff9800; } .ColorScheme-PositiveText { color:#4caf50; } .ColorScheme-NegativeText { color:#f44336; }
  </style>
 </defs>
 <path style="fill:currentColor;" class="ColorScheme-Text" d="M12.051,13.499c-1.134,0.837 -2.535,1.332 -4.051,1.332c-3.77,0 -6.831,-3.061 -6.831,-6.831c0,-3.77 3.061,-6.831 6.831,-6.831c1.516,0 2.917,0.495 4.051,1.332l0,-0.913l2.78,0l0,12.824l-2.78,0l0,-0.913Zm2.099,-6.187c-0.02,-0.174 -0.223,-0.304 -0.399,-0.304c-0.566,0 -1.069,-0.333 -1.279,-0.848c-0.217,-0.527 -0.077,-1.143 0.344,-1.531c0.134,-0.121 0.149,-0.324 0.038,-0.467c-0.29,-0.368 -0.62,-0.701 -0.98,-0.99c-0.141,-0.113 -0.349,-0.097 -0.47,0.039c-0.369,0.408 -1.032,0.56 -1.544,0.346c-0.532,-0.224 -0.869,-0.764 -0.836,-1.344c0.011,-0.181 -0.122,-0.34 -0.304,-0.361c-0.462,-0.054 -0.927,-0.055 -1.392,-0.004c-0.179,0.02 -0.312,0.175 -0.307,0.354c0.021,0.574 -0.32,1.105 -0.847,1.321c-0.505,0.206 -1.164,0.057 -1.532,-0.349c-0.122,-0.133 -0.325,-0.15 -0.468,-0.039c-0.37,0.291 -0.708,0.624 -1.001,0.99c-0.113,0.142 -0.097,0.348 0.037,0.471c0.433,0.39 0.571,1.01 0.347,1.543c-0.214,0.509 -0.742,0.837 -1.346,0.837c-0.197,-0.006 -0.337,0.125 -0.358,0.304c-0.055,0.465 -0.055,0.938 -0.003,1.407c0.02,0.175 0.229,0.305 0.405,0.305c0.539,-0.014 1.057,0.319 1.275,0.848c0.216,0.527 0.077,1.142 -0.346,1.53c-0.133,0.122 -0.15,0.325 -0.038,0.466c0.287,0.368 0.616,0.7 0.979,0.991c0.141,0.115 0.348,0.098 0.471,-0.037c0.37,-0.41 1.033,-0.561 1.543,-0.348c0.533,0.224 0.87,0.764 0.837,1.344c-0.011,0.182 0.122,0.34 0.304,0.362c0.236,0.026 0.474,0.041 0.713,0.041c0.226,0 0.453,-0.013 0.679,-0.038c0.179,-0.02 0.313,-0.175 0.307,-0.355c-0.021,-0.573 0.319,-1.103 0.846,-1.319c0.509,-0.208 1.165,-0.056 1.533,0.349c0.122,0.132 0.324,0.149 0.467,0.039c0.371,-0.291 0.707,-0.624 1.002,-0.99c0.113,-0.142 0.097,-0.349 -0.037,-0.471c-0.431,-0.39 -0.572,-1.01 -0.348,-1.544c0.212,-0.501 0.72,-0.839 1.267,-0.839l0.077,0.002c0.177,0.015 0.34,-0.122 0.361,-0.303c0.055,-0.465 0.055,-0.939 0.003,-1.408Zm-6.141,2.577c-1.035,0 -1.877,-0.842 -1.877,-1.878c0,-1.034 0.842,-1.877 1.877,-1.877c1.035,0 1.877,0.843 1.877,1.877c0,1.036 -0.842,1.878 -1.877,1.878Z"/>
</svg>
