<svg xmlns="http://www.w3.org/2000/svg" style="fill-rule:evenodd;clip-rule:evenodd;stroke-linejoin:round;stroke-miterlimit:2" width="100%" height="100%" viewBox="0 0 16 16" xml:space="preserve">
 <defs>
  <style id="current-color-scheme" type="text/css">
   .ColorScheme-Text { color:#dfdfdf; } .ColorScheme-Highlight { color:#4285f4; } .ColorScheme-NeutralText { color:#ff9800; } .ColorScheme-PositiveText { color:#4caf50; } .ColorScheme-NegativeText { color:#f44336; }
  </style>
 </defs>
 <path style="fill:currentColor;" class="ColorScheme-Text" d="M8.835,3.005l-0.041,0.027l0,0.286c0,0.035 0.015,0.06 0.046,0.081c0.03,0.022 0.061,0.036 0.095,0.036l0.131,0.013c0.339,0.014 0.499,0.102 0.545,0.157c0.081,0.098 0.119,0.206 -0.077,0.627l-1.171,2.303l-1.057,-2.137c-0.348,-0.683 -0.432,-0.896 0.091,-0.936l0.208,-0.027c0.101,-0 0.15,-0.035 0.15,-0.103l0,-0.3l-0.077,-0.027l-2.854,0.004l-0.041,0.027l-0,0.3c-0,0.067 0.071,0.086 0.208,0.103c0.49,0.064 0.478,0.114 0.962,1.062l1.711,3.414l-1.602,3.154l-0.09,-0.022l-3.209,-6.913c-0.074,-0.18 -0.108,-0.312 -0.108,-0.394c-0,-0.177 0.159,-0.27 0.481,-0.283l0.376,-0.018c0.1,0 0.15,-0.038 0.15,-0.116l-0,-0.282l-0.036,-0.032l-3.594,0l-0.032,0.032l-0,0.295c-0,0.054 0.065,0.088 0.204,0.103c0.378,0.02 0.629,0.08 0.749,0.18c0.119,0.1 0.413,0.748 0.413,0.748l3.762,8.154c0.269,0.595 0.605,0.688 1.016,-0.018l1.847,-3.661c0.009,-0.124 0.122,0.041 0.122,0.041l1.688,3.611c0.305,0.621 0.651,0.681 1.003,0.018l3.617,-8.105c0.117,-0.299 0.277,-0.528 0.485,-0.695c0.208,-0.165 0.529,-0.259 0.962,-0.277c0.089,-0 0.132,-0.039 0.132,-0.117l-0,-0.287l-0.032,-0.031l-3.308,-0l-0.041,0.031l-0,0.287c-0,0.034 0.015,0.059 0.046,0.081c0.031,0.022 0.061,0.036 0.095,0.036l0.277,0.013c0.339,0.014 0.431,0.08 0.563,0.193c0.13,0.115 0.147,0.31 0.045,0.587l-2.927,6.859l-0.113,-0.031l-1.861,-3.75l2.001,-3.585c0.159,-0.225 0.248,-0.266 0.681,-0.286c0.088,-0 0.132,-0.038 0.132,-0.117l-0,-0.282l-0.032,-0.031l-2.691,-0Z"/>
</svg>
