<svg xmlns="http://www.w3.org/2000/svg" style="fill-rule:evenodd;clip-rule:evenodd;stroke-linejoin:round;stroke-miterlimit:2" width="100%" height="100%" viewBox="0 0 16 16" xml:space="preserve">
 <defs>
  <style id="current-color-scheme" type="text/css">
   .ColorScheme-Text { color:#dfdfdf; } .ColorScheme-Highlight { color:#4285f4; } .ColorScheme-NeutralText { color:#ff9800; } .ColorScheme-PositiveText { color:#4caf50; } .ColorScheme-NegativeText { color:#f44336; }
  </style>
 </defs>
 <path style="fill:currentColor;" class="ColorScheme-Text" d="M2,2l0,1l12,0l0,-1l-12,0Zm0,2l0,1l7,0l0,-1l-7,0Zm0,3l0,1l6,0l0,-1l-6,0Zm0,2l0,1l4,0l0,-1l-4,0Zm0,3l0,1l8,0l0,-1l-8,0Z"/>
 <path style="fill:currentColor;fill-opacity:0.3;" class="ColorScheme-Text" d="M9,7l0,1l1.5,0c1.385,0 2.5,1.115 2.5,2.5c0,0.819 -0.396,1.545 -1,2l0,-1.5l-1,0l0,3l3,0l0,-1l-1.063,0c0.659,-0.632 1.063,-1.51 1.063,-2.5c0,-1.939 -1.561,-3.5 -3.5,-3.5l-1.5,0Z"/>
</svg>
