<svg xmlns="http://www.w3.org/2000/svg" viewBox="0 0 16 16">
 <defs>
  <style id="current-color-scheme" type="text/css">
   .ColorScheme-Text { color:#dfdfdf; } .ColorScheme-Highlight { color:#4285f4; } .ColorScheme-NeutralText { color:#ff9800; } .ColorScheme-PositiveText { color:#4caf50; } .ColorScheme-NegativeText { color:#f44336; }
  </style>
 </defs>
 <path style="fill:currentColor" class="ColorScheme-Text" d="m15.26 3.082v9.836c0 1.293-1.049 2.342-2.342 2.342h-9.836c-1.293 0-2.342-1.049-2.342-2.342v-9.836c0-1.293 1.049-2.342 2.342-2.342h9.836c1.293 0 2.342 1.049 2.342 2.342zm-.895.08c0-.843-.684-1.527-1.527-1.527h-9.676c-.843 0-1.527.684-1.527 1.527v9.676c0 .843.684 1.527 1.527 1.527h9.676c.843 0 1.527-.684 1.527-1.527zm-11.365.838h3v1h-1v6h1v1h-3v-1h1v-6h-1zm4 7v-2h1v1h3v-1h1v2z"/>
</svg>
