<svg xmlns="http://www.w3.org/2000/svg" style="fill-rule:evenodd;clip-rule:evenodd;stroke-linejoin:round;stroke-miterlimit:2" width="100%" height="100%" viewBox="0 0 16 16" xml:space="preserve">
 <defs>
  <style id="current-color-scheme" type="text/css">
   .ColorScheme-Text { color:#dfdfdf; } .ColorScheme-Highlight { color:#4285f4; } .ColorScheme-NeutralText { color:#ff9800; } .ColorScheme-PositiveText { color:#4caf50; } .ColorScheme-NegativeText { color:#f44336; }
  </style>
 </defs>
 <path style="fill:currentColor;" class="ColorScheme-Text" d="M9.929,13.74c-0.504,0.765 -1.411,1.047 -2.203,0.591c-0.791,-0.457 -1.047,-1.412 -0.59,-2.203l2.793,1.612Z"/>
 <path style="fill:currentColor;fill-opacity:0.3" class="ColorScheme-Text" d="M12.849,13.858c-0.066,-0.101 -0.086,-0.174 -0.179,-0.228c-0.311,-0.428 -0.369,-1.081 -0.34,-1.561c-0.03,-0.7 0.18,-1.386 0.529,-1.991l0.836,-2c1.102,-1.908 0.785,-4.139 -0.896,-5.42l0.295,-0.512c0.162,-0.279 0.083,-0.573 -0.196,-0.734c-0.28,-0.161 -0.573,-0.082 -0.735,0.197l-0.295,0.512c-1.95,-0.815 -4.067,0.072 -5.142,1.934l-1.314,1.723c-0.322,0.559 -0.784,1.037 -1.286,1.368c-0.401,0.265 -0.822,0.456 -1.309,0.547c-0.22,0.059 -0.433,-0.002 -0.626,0.011c-0.167,-0.034 -0.341,0.052 -0.448,0.238c-0.161,0.279 -0.083,0.573 0.197,0.734l10.239,5.912c0.279,0.161 0.573,0.082 0.734,-0.197c0.007,-0.12 0.022,-0.36 -0.064,-0.533Z"/>
 <path style="fill:currentColor;" class="ColorScheme-Text" d="M12.849,13.858c-0.066,-0.101 -0.086,-0.174 -0.179,-0.228c-0.311,-0.428 -0.369,-1.081 -0.34,-1.561c-0.03,-0.7 1.365,-3.991 1.365,-3.991c1.102,-1.908 0.785,-4.139 -0.896,-5.42l0.295,-0.512c0.162,-0.279 0.083,-0.573 -0.196,-0.734c-0.28,-0.161 -0.573,-0.082 -0.735,0.197l-0.295,0.512c-1.95,-0.815 -4.067,0.072 -5.142,1.934c-0,-0 -2.098,2.76 -2.6,3.091c-0.401,0.265 -0.822,0.456 -1.309,0.547c-0.22,0.059 -0.433,-0.002 -0.626,0.011c-0.167,-0.034 -0.341,0.052 -0.448,0.238c-0.161,0.279 -0.083,0.573 0.197,0.734l10.239,5.912c0.279,0.161 0.573,0.082 0.734,-0.197c0.007,-0.12 0.022,-0.36 -0.064,-0.533Zm-0.599,-10.48c-0.126,-0.097 -0.584,-0.361 -0.731,-0.422c-1.526,-0.639 -3.169,0.094 -4.01,1.551c-0.019,0.033 -2.289,3.001 -2.884,3.394c-0.382,0.252 -0.779,0.449 -1.216,0.579l8.107,4.681c-0.083,-0.376 -0.107,-0.763 -0.091,-1.096c-0.027,-0.835 1.467,-4.405 1.487,-4.439c0.862,-1.493 0.654,-3.246 -0.662,-4.248Z"/>
</svg>
