<svg xmlns="http://www.w3.org/2000/svg" viewBox="0 0 16 16">
 <defs>
  <style id="current-color-scheme" type="text/css">
   .ColorScheme-Text { color:#dfdfdf; } .ColorScheme-Highlight { color:#4285f4; } .ColorScheme-NeutralText { color:#ff9800; } .ColorScheme-PositiveText { color:#4caf50; } .ColorScheme-NegativeText { color:#f44336; }
  </style>
 </defs>
 <g fill="#dfdfdf">
  <path fill-opacity=".25" d="m1 8c-.554 0-1 .446-1 1v6c0 .554.446 1 1 1h12c.554 0 1-.446 1-1v-6c0-.554-.446-1-1-1zm1.006 5h7v1h-7zm8 0h2v1h-2zm-4.966-1.493c.011-.018.161-.227.306-.433.076-.108.159-.221.279-.33s.305-.243.572-.232c.22.009.326.101.407.166.08.064.137.127.195.191.115.128.223.263.324.367.084.087.109.141.209.112.094-.083.129-.125.16-.176.087-.11.165-.257.278-.35.129-.077.395-.073.515-.008.121.066.153.121.182.159.056.075.075.115.109.175.068.121.167.298.35.579.151.231.086.542-.147.693-.232.152-.542.086-.693-.147-.056-.085-.064-.105-.107-.175-.043.039-.051.07-.1.109-.262.205-.653.236-.91.135s-.423-.263-.567-.412c-.101-.106-.171-.191-.244-.276-.115.166-.263.735-1.152.846-.89.111-1-.517-1.004-.957.021-.109.032-.243.068-.357.024-.123.034-.278.03-.309-.035-.265-.135-.334-.151-.34-.015-.006-.07-.042-.256.152-.13.136-.249.35-.394.604-.103.254-.277.519-.305.816-.06.27-.394.452-.664.391-.27-.06-.373-.34-.312-.609l.089-.399.022-.049c.081-.176.161-.402.301-.646.134-.234.282-.528.541-.799.275-.288.64-.464.996-.459.119.002.236.024.349.068.453.18.708.632.774 1.139.032.249-.005.456-.037.627-.014.075-.019.081-.032.133.006 0 .018-.001.019.001-.001.001-.001.001-.001.001.001-.001.001-.001.001-.001z"/>
  <path d="m3 0c-.554 0-1 .446-1 1v6h11c1.091 0 2 .909 2 2v6c0 .364-.108.703-.283 1h.283c.554 0 1-.446 1-1v-14c0-.554-.446-1-1-1zm1 4h4v1h-4zm8-2h2v1h-2zm-8 0h7v1h-7z"/>
 </g>
</svg>
