<svg xmlns="http://www.w3.org/2000/svg" style="fill-rule:evenodd;clip-rule:evenodd;stroke-linejoin:round;stroke-miterlimit:2" width="100%" height="100%" viewBox="0 0 16 16" xml:space="preserve">
 <defs>
  <style id="current-color-scheme" type="text/css">
   .ColorScheme-Text { color:#dfdfdf; } .ColorScheme-Highlight { color:#4285f4; } .ColorScheme-NeutralText { color:#ff9800; } .ColorScheme-PositiveText { color:#4caf50; } .ColorScheme-NegativeText { color:#f44336; }
  </style>
 </defs>
 <path style="fill:currentColor;fill-opacity:0.3" class="ColorScheme-Text" d="M7,1l-7,7l2,0l0,5.056c0,0.516 0.205,1.01 0.569,1.375c0.365,0.364 0.859,0.569 1.375,0.569l6.398,-0c-0.224,-0.468 -0.341,-0.981 -0.342,-1.5c0.002,-1.348 0.782,-2.58 2,-3.158l-0,-2.342l2,-0l-7,-7Z"/>
 <path style="fill:currentColor;" class="ColorScheme-Text" d="M8.597,9.516c-0.193,0.453 -0.852,0.799 -1.63,0.799c-0.779,0 -1.431,-0.34 -1.624,-0.792c-1.643,0.166 -1.532,0.638 -1.705,1.171l-0.323,1.223c0,0.133 0.106,0.232 0.232,0.232c2.489,0.402 4.231,0.295 6.719,0.019c0.219,-0.436 0.296,-0.594 0.461,-0.797c-0.099,-0.295 -0.139,-0.388 -0.235,-0.784c-0.147,-0.605 -0.629,-0.95 -1.895,-1.071Zm-1.59,-5.048c-1.088,0 -1.973,0.921 -2.009,2.073c-0.023,0.006 -0.053,0.018 -0.077,0.036c-0.249,0.136 -0.223,0.474 -0.051,0.866c0.137,0.321 0.289,0.601 0.515,0.595c0.166,1.052 1.143,1.836 1.616,1.836c0.473,0 1.512,-1.026 1.639,-1.836c0.22,0.006 0.358,-0.281 0.495,-0.602c0.172,-0.392 0.212,-0.723 -0.037,-0.859c-0.024,-0.018 -0.048,-0.03 -0.077,-0.036c-0.03,-1.152 -0.921,-2.073 -2.008,-2.073l-0.006,0Z"/>
 <path style="fill:currentColor;" class="ColorScheme-Text" d="M13.5,10l0,0.857c-1.381,0 -2.5,1.151 -2.5,2.571c0,1.42 1.119,2.572 2.5,2.572c1.367,0 2.476,-1.129 2.498,-2.529c0.001,-0.014 0.002,-0.029 0.002,-0.043c0,-0.235 -0.188,-0.428 -0.416,-0.428l-0.001,0c-0.229,0 -0.417,0.193 -0.417,0.428c0,0.947 -0.746,1.715 -1.666,1.715c-0.92,0 -1.666,-0.769 -1.666,-1.715c0,-0.947 0.746,-1.713 1.666,-1.713l0,0.857l1.666,-1.287l-1.666,-1.285Z"/>
</svg>
