<svg xmlns="http://www.w3.org/2000/svg" style="fill-rule:evenodd;clip-rule:evenodd;stroke-linejoin:round;stroke-miterlimit:2" width="100%" height="100%" viewBox="0 0 16 16" xml:space="preserve">
 <defs>
  <style id="current-color-scheme" type="text/css">
   .ColorScheme-Text { color:#dfdfdf; } .ColorScheme-Highlight { color:#4285f4; } .ColorScheme-NeutralText { color:#ff9800; } .ColorScheme-PositiveText { color:#4caf50; } .ColorScheme-NegativeText { color:#f44336; }
  </style>
 </defs>
 <path style="fill:currentColor;" class="ColorScheme-Text" d="M4.25,10l1.5,0c0.138,0 0.25,0.112 0.25,0.25l0,1.5c0,0.139 -0.112,0.25 -0.25,0.25l-1.5,0c-0.138,0 -0.25,-0.111 -0.25,-0.25l0,-1.5c0,-0.138 0.112,-0.25 0.25,-0.25Zm3,0l1.5,0c0.139,0 0.25,0.112 0.25,0.25l0,1.5c0,0.139 -0.111,0.25 -0.25,0.25l-1.5,0c-0.138,0 -0.25,-0.111 -0.25,-0.25l0,-1.5c0,-0.138 0.112,-0.25 0.25,-0.25Zm3,0l1.5,0c0.139,0 0.25,0.112 0.25,0.25l0,1.5c0,0.139 -0.111,0.25 -0.25,0.25l-1.5,0c-0.138,0 -0.25,-0.111 -0.25,-0.25l0,-1.5c0,-0.138 0.112,-0.25 0.25,-0.25Zm-6,-3l1.5,0c0.138,0 0.25,0.112 0.25,0.25l0,1.5c0,0.139 -0.112,0.25 -0.25,0.25l-1.5,0c-0.138,0 -0.25,-0.111 -0.25,-0.25l0,-1.5c0,-0.138 0.112,-0.25 0.25,-0.25Zm3,0l1.5,0c0.139,0 0.25,0.112 0.25,0.25l0,1.5c0,0.139 -0.111,0.25 -0.25,0.25l-1.5,0c-0.138,0 -0.25,-0.111 -0.25,-0.25l0,-1.5c0,-0.138 0.112,-0.25 0.25,-0.25Zm3,0l1.5,0c0.139,0 0.25,0.112 0.25,0.25l0,1.5c0,0.139 -0.111,0.25 -0.25,0.25l-1.5,0c-0.138,0 -0.25,-0.111 -0.25,-0.25l0,-1.5c0,-0.138 0.112,-0.25 0.25,-0.25Zm-6,-3l1.5,0c0.138,0 0.25,0.112 0.25,0.25l0,1.5c0,0.138 -0.112,0.25 -0.25,0.25l-1.5,0c-0.138,0 -0.25,-0.112 -0.25,-0.25l0,-1.5c0,-0.138 0.112,-0.25 0.25,-0.25Zm3,0l1.5,0c0.139,0 0.25,0.112 0.25,0.25l0,1.5c0,0.138 -0.111,0.25 -0.25,0.25l-1.5,0c-0.138,0 -0.25,-0.112 -0.25,-0.25l0,-1.5c0,-0.138 0.112,-0.25 0.25,-0.25Zm3,0l1.5,0c0.139,0 0.25,0.112 0.25,0.25l0,1.5c0,0.138 -0.111,0.25 -0.25,0.25l-1.5,0c-0.138,0 -0.25,-0.112 -0.25,-0.25l0,-1.5c0,-0.138 0.112,-0.25 0.25,-0.25Z"/>
</svg>
