<svg xmlns="http://www.w3.org/2000/svg" style="fill-rule:evenodd;clip-rule:evenodd;stroke-linejoin:round;stroke-miterlimit:2" width="100%" height="100%" viewBox="0 0 16 16" xml:space="preserve">
 <defs>
  <style id="current-color-scheme" type="text/css">
   .ColorScheme-Text { color:#dfdfdf; } .ColorScheme-Highlight { color:#4285f4; } .ColorScheme-NeutralText { color:#ff9800; } .ColorScheme-PositiveText { color:#4caf50; } .ColorScheme-NegativeText { color:#f44336; }
  </style>
 </defs>
 <path style="fill:currentColor;" class="ColorScheme-Text" d="M14.435,14.017l-12.87,0l0,-11.262c1.591,-0.141 2.479,-0.772 3.368,-0.772c1,-0 1.5,-0 3,0.8c1.5,-0.8 2,-0.8 3,-0.8c0.913,-0 1.827,0.667 3.502,0.783l-0,11.251Zm-7.002,-10.384l0,8.95c0,-0 -1,-0.6 -2,-0.6c-1,-0 -2,0.6 -3,0.6l0,-8.95c0.5,-0 2,-0.65 3,-0.65c1,-0 2,0.65 2,0.65Zm2.266,-0.549c-0.703,0.183 -1.266,0.549 -1.266,0.549l0,8.95c0,-0 1,-0.6 2,-0.6c1,-0 2,0.6 3,0.6l0,-8.95c-0.25,-0 -0.5,-0.041 -0.75,-0.102l-1.5,-0.447c-0.25,-0.061 -0.5,-0.101 -0.75,-0.101l-0.734,0.101Z"/>
</svg>
