<svg xmlns="http://www.w3.org/2000/svg" viewBox="0 0 16 16">
 <defs>
  <style id="current-color-scheme" type="text/css">
   .ColorScheme-Text { color:#dfdfdf; } .ColorScheme-Highlight { color:#4285f4; } .ColorScheme-NeutralText { color:#ff9800; } .ColorScheme-PositiveText { color:#4caf50; } .ColorScheme-NegativeText { color:#f44336; }
  </style>
 </defs>
 <path fill="#dfdfdf" d="m3 0c-.554 0-1 .446-1 1v6h5c1.091 0 2 .909 2 2v6c0 .364-.108.703-.283 1h6.283c.554 0 1-.446 1-1v-14c0-.554-.446-1-1-1zm1 2h7v1h-7zm8 0h2v1h-2zm-8 2h4v1h-4zm5 2h4v1h-4zm-8 2c-.554 0-1 .446-1 1v6c0 .554.446 1 1 1h6c.554 0 1-.446 1-1v-6c0-.554-.446-1-1-1zm9 0h2v1h-2zm3 0h2v1h-2zm-5.753 1.143.183.115-3.586 5.649-2.759-3.082.192-.241 2.563 1.709zm3.753.857h3v1h-3zm-1 2h1v1h-1zm2 0h3v1h-3zm-2 2h3v1h-3z"/>
</svg>
