<svg xmlns="http://www.w3.org/2000/svg" style="fill-rule:evenodd;clip-rule:evenodd;stroke-linejoin:round;stroke-miterlimit:2" width="100%" height="100%" viewBox="0 0 16 16" xml:space="preserve">
 <defs>
  <style id="current-color-scheme" type="text/css">
   .ColorScheme-Text { color:#dfdfdf; } .ColorScheme-Highlight { color:#4285f4; } .ColorScheme-NeutralText { color:#ff9800; } .ColorScheme-PositiveText { color:#4caf50; } .ColorScheme-NegativeText { color:#f44336; }
  </style>
 </defs>
 <path style="fill:currentColor;" class="ColorScheme-Text" d="M6.078,10.753l-0.173,1.905l1.656,-1.044l2.967,-5.14l-1.483,-0.861l-2.967,5.14Z"/>
 <path style="fill:currentColor;fill-opacity:0.5" class="ColorScheme-Text" d="M11.571,4.676c0.123,-0.213 0.051,-0.484 -0.162,-0.607l-0.72,-0.415c-0.219,-0.122 -0.483,-0.051 -0.606,0.162l-0.616,1.066l1.483,0.861l0.621,-1.067Z"/>
 <path style="fill:currentColor;" class="ColorScheme-Text" d="M2.946,4.129l-0,-1.129c-0,-1.108 0.892,-2 2,-2l7,-0c1.108,-0 2,0.892 2,2l-0,10c-0,1.108 -0.892,2 -2,2l-7,0c-1.108,0 -2,-0.892 -2,-2l-0,-1.129l-0.892,0l0,-0.99l0.892,0l-0,-5.762l-0.892,-0l0,-0.99l0.892,-0Zm2,-2.129l7,0c0.554,0 1,0.446 1,1l-0,10c-0,0.554 -0.446,1 -1,1l-7,0c-0.554,0 -1,-0.446 -1,-1l-0,-10c-0,-0.554 0.446,-1 1,-1Z"/>
</svg>
