<svg xmlns="http://www.w3.org/2000/svg" style="fill-rule:evenodd;clip-rule:evenodd;stroke-linejoin:round;stroke-miterlimit:2" width="100%" height="100%" viewBox="0 0 16 16" xml:space="preserve">
 <defs>
  <style id="current-color-scheme" type="text/css">
   .ColorScheme-Text { color:#dfdfdf; } .ColorScheme-Highlight { color:#4285f4; } .ColorScheme-NeutralText { color:#ff9800; } .ColorScheme-PositiveText { color:#4caf50; } .ColorScheme-NegativeText { color:#f44336; }
  </style>
 </defs>
 <path style="fill:currentColor;" class="ColorScheme-Text" d="M9.351,12c0,0.741 -0.61,1.351 -1.351,1.351c-0.741,0 -1.351,-0.61 -1.351,-1.351c-0,-0.741 0.61,-1.351 1.351,-1.351c0.741,-0 1.351,0.61 1.351,1.351Zm0,-4c0,0.741 -0.61,1.351 -1.351,1.351c-0.741,0 -1.351,-0.61 -1.351,-1.351c-0,-0.741 0.61,-1.351 1.351,-1.351c0.741,-0 1.351,0.61 1.351,1.351Zm0,-4c0,0.741 -0.61,1.351 -1.351,1.351c-0.741,0 -1.351,-0.61 -1.351,-1.351c-0,-0.741 0.61,-1.351 1.351,-1.351c0.741,-0 1.351,0.61 1.351,1.351Z"/>
</svg>
