
<svg xmlns="http://www.w3.org/2000/svg" xmlns:xlink="http://www.w3.org/1999/xlink" width="24px" height="24px" viewBox="0 0 24 24" version="1.1">
<g id="surface1">
<path style=" stroke:none;fill-rule:nonzero;fill:rgb(87.450981%,87.450981%,87.450981%);fill-opacity:1;" d="M 1.890625 12.757812 C 1.816406 12.757812 1.777344 12.722656 1.777344 12.648438 L 1.777344 4.789062 C 1.777344 4.707031 1.816406 4.667969 1.890625 4.667969 L 9.625 4.667969 C 9.703125 4.667969 9.746094 4.707031 9.746094 4.789062 L 9.746094 6.871094 C 9.746094 6.953125 9.703125 6.996094 9.625 6.996094 L 3.96875 6.996094 L 3.96875 9.921875 C 4.628906 9.460938 5.367188 9.230469 6.175781 9.230469 C 6.460938 9.230469 6.734375 9.257812 6.996094 9.316406 C 7.257812 9.375 7.503906 9.457031 7.738281 9.566406 C 7.960938 9.675781 8.171875 9.796875 8.363281 9.929688 C 8.558594 10.058594 8.722656 10.199219 8.859375 10.339844 C 9.054688 10.558594 9.230469 10.789062 9.378906 11.039062 C 9.527344 11.289062 9.652344 11.539062 9.746094 11.800781 C 9.945312 12.328125 10.042969 13.199219 10.042969 14.402344 C 10.042969 14.890625 10.023438 15.320312 9.984375 15.6875 C 9.949219 16.054688 9.890625 16.363281 9.808594 16.617188 L 9.816406 16.605469 C 9.675781 17.074219 9.441406 17.523438 9.113281 17.953125 C 8.792969 18.347656 8.367188 18.710938 7.828125 19.042969 C 7.261719 19.382812 6.609375 19.554688 5.871094 19.554688 C 4.910156 19.554688 3.984375 19.257812 3.09375 18.667969 C 2.183594 18.054688 1.652344 17.058594 1.5 15.679688 C 1.496094 15.644531 1.507812 15.613281 1.53125 15.585938 C 1.558594 15.558594 1.589844 15.542969 1.625 15.542969 L 3.707031 15.542969 C 3.773438 15.542969 3.816406 15.574219 3.828125 15.636719 C 4.066406 16.703125 4.71875 17.238281 5.785156 17.238281 C 6.753906 17.238281 7.308594 16.917969 7.449219 16.28125 C 7.628906 15.570312 7.714844 14.890625 7.714844 14.238281 C 7.714844 13.851562 7.679688 13.492188 7.613281 13.164062 C 7.546875 12.832031 7.449219 12.539062 7.320312 12.277344 C 7.074219 11.796875 6.542969 11.554688 5.726562 11.554688 C 4.976562 11.554688 4.390625 11.933594 3.960938 12.699219 C 3.933594 12.738281 3.898438 12.757812 3.859375 12.757812 Z M 17.183594 13.484375 C 17.101562 13.484375 17.0625 13.441406 17.0625 13.359375 L 17.0625 11.257812 C 17.0625 11.183594 17.101562 11.148438 17.183594 11.148438 L 22.378906 11.148438 C 22.460938 11.148438 22.5 11.183594 22.5 11.257812 L 22.5 14.238281 C 22.5 15.742188 21.984375 17 20.949219 18.011719 C 19.902344 19.039062 18.640625 19.554688 17.164062 19.554688 C 15.988281 19.554688 14.996094 19.273438 14.195312 18.707031 C 13.40625 18.148438 12.835938 17.539062 12.480469 16.871094 L 12.492188 16.871094 C 12.363281 16.640625 12.253906 16.40625 12.164062 16.171875 C 12.078125 15.9375 12.007812 15.691406 11.960938 15.433594 C 11.917969 15.175781 11.886719 14.761719 11.863281 14.191406 C 11.839844 13.625 11.828125 12.894531 11.828125 12.003906 C 11.828125 11.113281 11.839844 10.382812 11.863281 9.820312 C 11.886719 9.257812 11.917969 8.84375 11.960938 8.585938 C 12.007812 8.328125 12.078125 8.078125 12.164062 7.839844 C 12.253906 7.601562 12.363281 7.367188 12.492188 7.136719 L 12.480469 7.136719 C 12.835938 6.476562 13.40625 5.863281 14.195312 5.300781 C 14.992188 4.730469 15.980469 4.441406 17.164062 4.441406 C 18.578125 4.441406 19.75 4.878906 20.675781 5.75 C 21.613281 6.621094 22.195312 7.660156 22.417969 8.871094 C 22.433594 8.914062 22.425781 8.945312 22.398438 8.972656 C 22.371094 9 22.339844 9.015625 22.296875 9.015625 L 19.960938 9.015625 C 19.898438 9.015625 19.863281 8.988281 19.847656 8.933594 C 19.757812 8.660156 19.632812 8.40625 19.46875 8.171875 C 19.304688 7.9375 19.105469 7.71875 18.867188 7.515625 C 18.417969 7.113281 17.851562 6.910156 17.164062 6.910156 C 16.65625 6.910156 16.21875 7.015625 15.859375 7.21875 C 15.496094 7.421875 15.207031 7.65625 14.992188 7.921875 C 14.863281 8.085938 14.75 8.269531 14.652344 8.480469 C 14.558594 8.6875 14.484375 8.898438 14.429688 9.117188 C 14.375 9.347656 14.339844 9.703125 14.316406 10.1875 C 14.296875 10.671875 14.289062 11.277344 14.289062 12.003906 C 14.289062 12.746094 14.296875 13.355469 14.316406 13.835938 C 14.339844 14.316406 14.375 14.671875 14.429688 14.902344 C 14.484375 15.113281 14.558594 15.324219 14.660156 15.53125 C 14.757812 15.738281 14.867188 15.917969 14.992188 16.074219 C 15.207031 16.359375 15.496094 16.601562 15.859375 16.804688 C 16.21875 17.003906 16.65625 17.105469 17.164062 17.105469 C 17.972656 17.105469 18.652344 16.828125 19.203125 16.28125 C 19.761719 15.730469 20.042969 15.007812 20.042969 14.117188 L 20.042969 13.484375 Z M 17.183594 13.484375 "/>
</g>
</svg>
