
<svg xmlns="http://www.w3.org/2000/svg" xmlns:xlink="http://www.w3.org/1999/xlink" width="24px" height="24px" viewBox="0 0 24 24" version="1.1">
<g id="surface1">
<path style=" stroke:none;fill-rule:nonzero;fill:rgb(87.450981%,87.450981%,87.450981%);fill-opacity:0.3;" d="M 16.113281 23.445312 C 15.796875 22.996094 16.015625 22.484375 16.585938 22.160156 C 19.871094 20.179688 22.320312 15.917969 22.320312 12.023438 C 22.320312 8.128906 19.925781 3.914062 16.628906 1.945312 C 16.054688 1.617188 15.742188 1 16.042969 0.535156 C 16.339844 0.078125 17.082031 0.167969 17.386719 0.339844 C 21.460938 2.769531 24 7.183594 24 11.992188 C 24 16.800781 21.460938 21.214844 17.394531 23.660156 C 17.085938 23.835938 16.449219 23.921875 16.113281 23.445312 Z M 10.699219 0.3125 L 3.128906 6.988281 L 1.539062 6.988281 C 0.6875 6.988281 0 7.675781 0 8.523438 L 0 15.460938 C 0 16.3125 0.6875 17 1.539062 17 L 3.128906 17 L 10.699219 23.671875 Z M 13.90625 18.511719 C 13.5 17.972656 14.023438 17.378906 14.539062 17.089844 C 16.097656 16.140625 17.28125 13.867188 17.28125 11.992188 C 17.28125 10.117188 15.996094 7.8125 14.421875 6.894531 C 13.886719 6.59375 13.484375 6.003906 13.863281 5.542969 C 14.320312 4.992188 14.847656 5.144531 15.15625 5.3125 C 17.488281 6.691406 18.96875 9.214844 18.96875 11.992188 C 18.96875 14.769531 17.488281 17.296875 15.175781 18.703125 C 14.855469 18.878906 14.347656 19.09375 13.90625 18.511719 Z M 12.097656 13.839844 C 13.121094 13.839844 13.949219 13.015625 13.949219 11.992188 C 13.949219 10.972656 13.121094 10.144531 12.097656 10.144531 Z M 12.097656 13.839844 "/>
<path style=" stroke:none;fill-rule:nonzero;fill:rgb(87.450981%,87.450981%,87.450981%);fill-opacity:1;" d="M 0.488281 4.140625 C 0.046875 3.738281 0.0117188 3.050781 0.417969 2.609375 C 0.820312 2.167969 1.507812 2.136719 1.949219 2.539062 L 22.460938 21.253906 C 22.90625 21.65625 22.9375 22.34375 22.53125 22.785156 C 22.128906 23.226562 21.441406 23.257812 21 22.855469 L 4.410156 7.71875 L 3.734375 8.296875 C 3.441406 8.527344 3.074219 8.65625 2.699219 8.65625 L 1.667969 8.65625 L 1.667969 15.328125 L 2.699219 15.328125 C 3.074219 15.328125 3.441406 15.457031 3.734375 15.691406 L 9.027344 20.222656 L 9.027344 11.933594 L 10.699219 13.457031 L 10.699219 23.671875 L 2.699219 17 L 1.539062 17 C 0.6875 17 0 16.3125 0 15.460938 L 0 8.523438 C 0 7.675781 0.6875 6.988281 1.539062 6.988281 L 2.699219 6.988281 L 3.175781 6.589844 Z M 10.699219 9.394531 L 9.027344 7.921875 L 9.027344 3.761719 L 6.589844 5.851562 L 5.347656 4.777344 L 10.699219 0.3125 Z M 10.699219 9.394531 "/>
</g>
</svg>
