<svg xmlns="http://www.w3.org/2000/svg" style="clip-rule:evenodd;fill-rule:evenodd;stroke-linejoin:round;stroke-miterlimit:2" version="1.1" viewBox="-4 -4 24 24">
 <defs>
  <style id="current-color-scheme" type="text/css">
   .ColorScheme-Text { color:#dfdfdf; } .ColorScheme-Highlight { color:#4285f4; } .ColorScheme-NeutralText { color:#ff9800; } .ColorScheme-PositiveText { color:#4caf50; } .ColorScheme-NegativeText { color:#f44336; }
  </style>
 </defs>
 <path style="fill-opacity:.3;fill:currentColor;" class="ColorScheme-Highlight" d="m7.132 0.208-4.958 4.45h-1.149c-0.567 0-1.025 0.458-1.025 1.025v4.625c-0 0.566 0.458 1.025 1.025 1.025h1.149l4.958 4.449v-15.574z"/>
 <path style="fill:currentColor;" class="ColorScheme-Highlight" d="m7.132 0.208v15.574l-5.333-4.449h-0.774c-0.567 0-1.025-0.459-1.025-1.025v-4.625c-0-0.567 0.458-1.025 1.025-1.025h0.774l5.333-4.45zm-1.113 2.3-3.529 3.022c-0.197 0.156-0.441 0.241-0.691 0.241h-0.687v4.449h0.687c0.25 0 0.494 0.085 0.691 0.24l3.529 3.023v-10.975zm2.047 6.719v-2.463c0.681 0 1.233 0.551 1.233 1.231 0 0.681-0.552 1.232-1.233 1.232zm2.677 6.404c-0.212-0.299-0.066-0.641 0.313-0.858 2.192-1.321 3.823-4.16 3.823-6.757 0-2.596-1.596-5.407-3.793-6.719-0.384-0.22-0.591-0.631-0.39-0.941 0.198-0.304 0.691-0.244 0.895-0.129 2.715 1.62 4.409 4.562 4.409 7.768s-1.694 6.149-4.403 7.778c-0.207 0.118-0.631 0.175-0.854-0.142zm-1.471-3.289c-0.271-0.361 0.077-0.755 0.421-0.948 1.039-0.634 1.827-2.148 1.827-3.399 0-1.25-0.855-2.786-1.906-3.398-0.355-0.2-0.624-0.595-0.371-0.902 0.305-0.368 0.655-0.265 0.862-0.153 1.554 0.919 2.54 2.602 2.54 4.453s-0.986 3.535-2.529 4.475c-0.212 0.115-0.551 0.26-0.844-0.128z"/>
</svg>
