<svg xmlns="http://www.w3.org/2000/svg" style="fill-rule:evenodd;clip-rule:evenodd;stroke-linejoin:round;stroke-miterlimit:2" width="100%" height="100%" version="1.1" viewBox="0 0 24 24" xml:space="preserve">
 <defs>
  <style id="current-color-scheme" type="text/css">
   .ColorScheme-Text { color:#dfdfdf; } .ColorScheme-Highlight { color:#4285f4; } .ColorScheme-NeutralText { color:#ff9800; } .ColorScheme-PositiveText { color:#4caf50; } .ColorScheme-NegativeText { color:#f44336; }
  </style>
 </defs>
 <path style="fill:currentColor;fill-opacity:0.3;" class="ColorScheme-Text" d="M15.24,21.014c-0.25,-0.353 -0.078,-0.757 0.37,-1.013c2.589,-1.561 4.516,-4.914 4.516,-7.982c-0,-3.067 -1.885,-6.387 -4.481,-7.937c-0.453,-0.26 -0.698,-0.745 -0.46,-1.111c0.234,-0.36 0.816,-0.289 1.057,-0.153c3.207,1.914 5.208,5.389 5.208,9.176c0,3.787 -2.001,7.264 -5.201,9.188c-0.245,0.139 -0.745,0.207 -1.009,-0.168Zm-4.265,-18.218l-5.961,5.256l-1.253,0c-0.67,0 -1.211,0.541 -1.211,1.211l0,5.463c0,0.669 0.541,1.211 1.211,1.211l1.253,0l5.961,5.255l-0,-18.396Zm2.528,14.333c-0.321,-0.426 0.091,-0.892 0.497,-1.12c1.227,-0.749 2.158,-2.537 2.158,-4.015c0,-1.476 -1.01,-3.291 -2.251,-4.014c-0.42,-0.236 -0.738,-0.703 -0.439,-1.065c0.361,-0.435 0.774,-0.313 1.019,-0.181c1.835,1.086 3,3.074 3,5.26c-0,2.187 -1.165,4.176 -2.987,5.286c-0.251,0.136 -0.651,0.307 -0.997,-0.151Zm-1.425,-3.68c0.804,0 1.456,-0.65 1.456,-1.455c0,-0.803 -0.652,-1.454 -1.456,-1.454l-0,2.909Z"/>
 <path style="fill:currentColor;" class="ColorScheme-Text" d="M2.934,5.811c-0.347,-0.317 -0.373,-0.858 -0.054,-1.206c0.317,-0.348 0.857,-0.373 1.206,-0.055l16.153,14.737c0.349,0.317 0.373,0.858 0.056,1.206c-0.318,0.349 -0.859,0.373 -1.206,0.056l-13.067,-11.921l-0.531,0.454c-0.232,0.185 -0.521,0.285 -0.816,0.285l-0.811,-0l-0,5.255l0.811,0c0.295,0 0.584,0.101 0.816,0.284l4.169,3.571l-0,-6.53l1.315,1.2l-0,8.045l-6.3,-5.255l-0.914,0c-0.67,0 -1.211,-0.542 -1.211,-1.211l0,-5.463c0,-0.67 0.541,-1.211 1.211,-1.211l0.914,0l0.375,-0.312l-2.116,-1.929Zm8.041,4.137l-1.315,-1.16l-0,-3.275l-1.922,1.646l-0.977,-0.848l4.214,-3.515l-0,7.152Z"/>
</svg>
