<svg xmlns="http://www.w3.org/2000/svg" viewBox="-4 -4 24 24">
 <defs>
  <style id="current-color-scheme" type="text/css">
   .ColorScheme-Text { color:#dfdfdf; } .ColorScheme-Highlight { color:#4285f4; } .ColorScheme-NeutralText { color:#ff9800; } .ColorScheme-PositiveText { color:#4caf50; } .ColorScheme-NegativeText { color:#f44336; }
  </style>
 </defs>
  <path style="fill:currentColor" class="ColorScheme-Text" d="m5.306 5.537h-2.105c.033-.411.381-.738.799-.738.165 0 .325.05.459.145zm7.037 0h-2.794l1.132-.793-2.681-2.234v3.027h-1.6v-4.737c0-.438.359-.798.797-.8.188-.001.371.064.515.184l4.8 4c.183.152.289.378.289.616 0 .262-.128.506-.342.656zm-5.943 4.931h1.6v3.022l2.681-2.234-1.125-.788h2.794l.109.076c.214.148.342.394.342.656 0 .238-.106.464-.289.615l-4.8 4c-.143.12-.325.186-.512.186-.439 0-.8-.361-.8-.8zm-3.198 0h2.097l-.84.588c-.134.094-.294.145-.459.145-.416 0-.763-.325-.798-.733z"/>
  <path style="fill:currentColor" class="ColorScheme-Text" d="m13.333 6.055c1.074 0 1.945.871 1.945 1.945s-.871 1.945-1.945 1.945c-1.073 0-1.945-.871-1.945-1.945s.872-1.945 1.945-1.945zm-5.333 0c1.074 0 1.945.871 1.945 1.945s-.871 1.945-1.945 1.945-1.945-.871-1.945-1.945.871-1.945 1.945-1.945zm-5.288 0c1.073 0 1.945.871 1.945 1.945s-.872 1.945-1.945 1.945c-1.074 0-1.945-.871-1.945-1.945s.871-1.945 1.945-1.945z"/>
</svg>
