
<svg xmlns="http://www.w3.org/2000/svg" xmlns:xlink="http://www.w3.org/1999/xlink" width="24px" height="24px" viewBox="0 0 24 24" version="1.1">
<g id="surface1">
<path style=" stroke:none;fill-rule:nonzero;fill:rgb(87.450981%,87.450981%,87.450981%);fill-opacity:1;" d="M 22 12 C 22 16.835938 18.5625 20.875 14 21.800781 L 14 24 L 8 20 L 14 16 L 14 17.632812 C 16.324219 16.804688 18 14.609375 18 12 C 17.996094 10.574219 17.488281 9.195312 16.558594 8.109375 L 18.625 4.527344 C 20.765625 6.421875 21.996094 9.140625 22 12 Z M 16 4 L 10 8 L 10 6.367188 C 7.675781 7.195312 6 9.390625 6 12 C 6.003906 13.425781 6.511719 14.804688 7.441406 15.890625 L 5.375 19.472656 C 3.234375 17.578125 2.003906 14.859375 2 12 C 2 7.164062 5.4375 3.125 10 2.199219 L 10 0 Z M 16 4 "/>
</g>
</svg>
