
<svg xmlns="http://www.w3.org/2000/svg" xmlns:xlink="http://www.w3.org/1999/xlink" width="24px" height="24px" viewBox="0 0 24 24" version="1.1">
<g id="surface1">
<path style=" stroke:none;fill-rule:nonzero;fill:rgb(87.450981%,87.450981%,87.450981%);fill-opacity:1;" d="M 21.289062 15.699219 C 19.503906 20.191406 14.820312 22.671875 10.234375 21.847656 L 9.421875 23.890625 L 5.324219 17.953125 L 12.378906 16.457031 L 11.773438 17.972656 C 14.242188 18.066406 16.609375 16.640625 17.574219 14.21875 C 18.101562 12.890625 18.136719 11.421875 17.675781 10.070312 L 20.917969 7.507812 C 22.207031 10.058594 22.34375 13.039062 21.289062 15.699219 Z M 18.675781 6.046875 L 11.621094 7.542969 L 12.226562 6.027344 C 9.757812 5.933594 7.390625 7.359375 6.425781 9.78125 C 5.898438 11.109375 5.863281 12.578125 6.324219 13.929688 L 3.082031 16.492188 C 1.792969 13.941406 1.65625 10.960938 2.710938 8.300781 C 4.496094 3.808594 9.179688 1.328125 13.765625 2.152344 L 14.578125 0.109375 Z M 18.675781 6.046875 "/>
</g>
</svg>
