
<svg xmlns="http://www.w3.org/2000/svg" xmlns:xlink="http://www.w3.org/1999/xlink" width="24px" height="24px" viewBox="0 0 24 24" version="1.1">
<g id="surface1">
<path style=" stroke:none;fill-rule:nonzero;fill:rgb(87.450981%,87.450981%,87.450981%);fill-opacity:1;" d="M 22.96875 8.714844 C 22.96875 19.941406 22.96875 22.75 14.546875 22.75 C 10.277344 22.75 8.179688 22.019531 7.140625 19.84375 C 6.804688 19.90625 6.464844 19.941406 6.125 19.941406 C 3.027344 19.941406 0.511719 17.429688 0.511719 14.328125 C 0.511719 11.226562 3.027344 8.714844 6.125 8.714844 Z M 6.125 11.519531 C 4.511719 11.582031 3.316406 12.816406 3.316406 14.328125 C 3.316406 15.878906 4.574219 17.132812 6.125 17.132812 C 6.222656 17.132812 6.316406 17.125 6.410156 17.113281 C 6.210938 15.644531 6.152344 13.761719 6.136719 11.519531 Z M 10.578125 0.738281 C 10.054688 2.613281 10.527344 3.300781 11.367188 4.414062 C 12.214844 5.53125 11.359375 6.914062 10.28125 8.003906 C 10.9375 5.765625 9.636719 5.273438 9.132812 4.308594 C 8.574219 3.242188 9.039062 2.414062 10.578125 0.738281 Z M 14.789062 0.738281 C 13.246094 2.414062 12.785156 3.242188 13.34375 4.308594 C 13.847656 5.273438 15.148438 5.765625 14.492188 8.003906 C 15.570312 6.914062 16.421875 5.53125 15.578125 4.414062 C 14.734375 3.300781 14.265625 2.613281 14.789062 0.738281 Z M 19 0.738281 C 18.476562 2.613281 18.945312 3.300781 19.789062 4.414062 C 20.632812 5.53125 19.78125 6.914062 18.703125 8.003906 C 19.359375 5.765625 18.054688 5.273438 17.550781 4.308594 C 16.996094 3.242188 17.457031 2.414062 19 0.738281 Z M 19 0.738281 "/>
</g>
</svg>
