
<svg xmlns="http://www.w3.org/2000/svg" xmlns:xlink="http://www.w3.org/1999/xlink" width="24px" height="24px" viewBox="0 0 24 24" version="1.1">
<g id="surface1">
<path style=" stroke:none;fill-rule:nonzero;fill:rgb(87.450981%,87.450981%,87.450981%);fill-opacity:1;" d="M 12 1.5 C 8.074219 1.503906 4.480469 3.695312 2.679688 7.179688 C 4.167969 6.40625 5.824219 6.003906 7.5 6 C 8.132812 6 8.765625 6.058594 9.390625 6.175781 C 9.886719 4.402344 10.84375 2.792969 12.160156 1.507812 C 12.109375 1.503906 12.054688 1.503906 12 1.5 Z M 14.207031 1.738281 C 12.578125 2.925781 11.394531 4.625 10.847656 6.5625 C 13.140625 7.335938 15.097656 8.882812 16.386719 10.933594 C 17.140625 10.648438 17.941406 10.5 18.75 10.5 C 20.078125 10.5 21.375 10.894531 22.480469 11.628906 C 22.3125 6.828125 18.902344 2.753906 14.207031 1.738281 Z M 7.5 7.5 C 5.421875 7.503906 3.410156 8.222656 1.804688 9.539062 C 1.605469 10.34375 1.503906 11.171875 1.5 12 C 1.5 17.800781 6.199219 22.5 12 22.5 C 12.75 22.496094 13.496094 22.410156 14.226562 22.246094 C 12.8125 20.972656 12.003906 19.15625 12 17.25 C 12.003906 16.960938 12.023438 16.671875 12.066406 16.382812 C 10.109375 14.421875 9.007812 11.769531 9 9 C 9.003906 8.546875 9.039062 8.097656 9.097656 7.648438 C 8.570312 7.550781 8.035156 7.503906 7.5 7.5 Z M 10.550781 8.042969 C 10.519531 8.363281 10.5 8.679688 10.5 9 C 10.503906 11.0625 11.21875 13.058594 12.519531 14.65625 C 13.035156 13.414062 13.914062 12.351562 15.042969 11.613281 C 13.972656 9.964844 12.398438 8.714844 10.550781 8.042969 Z M 18.675781 12 C 17.308594 12.019531 16.003906 12.570312 15.039062 13.539062 C 12.988281 15.589844 12.988281 18.910156 15.039062 20.960938 C 17.089844 23.011719 20.410156 23.011719 22.460938 20.960938 C 24.511719 18.910156 24.511719 15.589844 22.460938 13.539062 C 21.457031 12.535156 20.09375 11.980469 18.675781 12 Z M 18.808594 13.5 C 19.785156 13.515625 20.714844 13.910156 21.402344 14.597656 C 22.65625 15.859375 22.855469 17.828125 21.871094 19.3125 L 16.683594 14.121094 C 17.3125 13.703125 18.054688 13.488281 18.808594 13.5 Z M 15.628906 15.1875 L 20.816406 20.378906 C 19.332031 21.363281 17.359375 21.160156 16.097656 19.902344 C 14.84375 18.640625 14.644531 16.671875 15.628906 15.1875 Z M 15.628906 15.1875 "/>
</g>
</svg>
