<svg xmlns="http://www.w3.org/2000/svg" style="clip-rule:evenodd;fill-rule:evenodd;stroke-linejoin:round;stroke-miterlimit:2" version="1.1" viewBox="0 0 17 16">
 <defs>
  <style id="current-color-scheme" type="text/css">
   .ColorScheme-Text { color:#dfdfdf; } .ColorScheme-Highlight { color:#4285f4; } .ColorScheme-NeutralText { color:#ff9800; } .ColorScheme-PositiveText { color:#4caf50; } .ColorScheme-NegativeText { color:#f44336; }
  </style>
 </defs>
 <path style="fill:currentColor;" class="ColorScheme-Text" d="m2.825 10.189v-0.683c0-0.532 0.211-1.042 0.588-1.418 0.376-0.377 0.886-0.588 1.418-0.588h2.669v-1.907h-0.669c-0.645 0-1.168-0.523-1.168-1.168v-2.338c0-0.645 0.523-1.168 1.168-1.168h2.338c0.645-0 1.168 0.523 1.168 1.168v2.338c0 0.645-0.523 1.168-1.168 1.168h-0.669v1.907h2.46c0.532-0 1.043 0.211 1.419 0.588 0.376 0.376 0.588 0.886 0.588 1.418v0.683h0.669c0.645 0 1.168 0.523 1.168 1.168v2.338c0 0.645-0.523 1.168-1.168 1.168h-2.338c-0.645 0-1.168-0.523-1.168-1.168v-2.338c0-0.645 0.523-1.168 1.168-1.168h0.669v-0.683c-0-0.267-0.107-0.523-0.295-0.711-0.189-0.189-0.445-0.295-0.712-0.295h-6.129c-0.267-0-0.522 0.106-0.711 0.295-0.189 0.188-0.295 0.444-0.295 0.711v0.683h0.669c0.645 0 1.168 0.523 1.168 1.168v2.338c-0 0.645-0.523 1.168-1.168 1.168h-2.338c-0.645 0-1.168-0.523-1.168-1.168v-2.338c-0-0.645 0.523-1.168 1.168-1.168h0.669z"/>
</svg>
