<svg xmlns="http://www.w3.org/2000/svg" style="clip-rule:evenodd;fill-rule:evenodd;stroke-linejoin:round;stroke-miterlimit:2" version="1.1" viewBox="-4 -4 24 24">
 <defs>
  <style id="current-color-scheme" type="text/css">
   .ColorScheme-Text { color:#dfdfdf; } .ColorScheme-Highlight { color:#4285f4; } .ColorScheme-NeutralText { color:#ff9800; } .ColorScheme-PositiveText { color:#4caf50; } .ColorScheme-NegativeText { color:#f44336; }
  </style>
 </defs>
 <path style="fill-rule:nonzero;fill:currentColor;" class="ColorScheme-Text" d="m12.367 3.604c0-0.349 0.282-0.631 0.631-0.631h1.176c0.349 0 0.631 0.282 0.631 0.631v1.176c-0 0.349-0.282 0.631-0.631 0.631h-1.176c-0.349-0-0.631-0.282-0.631-0.631v-1.176zm-7.424-0c0-0.168 0.066-0.328 0.185-0.446 0.118-0.119 0.278-0.185 0.446-0.185h1.177c0.168-0 0.328 0.066 0.446 0.185 0.119 0.118 0.185 0.278 0.185 0.446v1.176c-0 0.168-0.066 0.328-0.185 0.446-0.118 0.119-0.278 0.185-0.446 0.185h-1.177c-0.168 0-0.328-0.066-0.446-0.185-0.119-0.118-0.185-0.278-0.185-0.446v-1.176zm3.734-0c0-0.349 0.282-0.631 0.631-0.631h1.178c0.349 0 0.631 0.282 0.631 0.631v1.176c-0 0.349-0.282 0.631-0.631 0.631h-1.178c-0.349-0-0.631-0.282-0.631-0.631v-1.176zm-7.482-0c0-0.349 0.282-0.631 0.631-0.631h1.178c0.349 0 0.631 0.282 0.631 0.631v1.176c-0 0.349-0.282 0.631-0.631 0.631h-1.178c-0.349-0-0.631-0.282-0.631-0.631v-1.176zm7.466 3.451c-0-0.168 0.066-0.328 0.185-0.446 0.118-0.119 0.278-0.185 0.446-0.185h1.176c0.168 0 0.328 0.066 0.446 0.185 0.119 0.118 0.185 0.278 0.185 0.446v1.177c0 0.168-0.066 0.328-0.185 0.446-0.118 0.119-0.278 0.185-0.446 0.185h-1.176c-0.168-0-0.328-0.066-0.446-0.185-0.119-0.118-0.185-0.278-0.185-0.446v-1.177zm3.706-0c-0-0.168 0.066-0.328 0.185-0.446 0.118-0.119 0.278-0.185 0.446-0.185h1.176c0.168 0 0.328 0.066 0.446 0.185 0.119 0.118 0.185 0.278 0.185 0.446v1.177c0 0.168-0.066 0.328-0.185 0.446-0.118 0.119-0.278 0.185-0.446 0.185h-1.176c-0.168-0-0.328-0.066-0.446-0.185-0.119-0.118-0.185-0.278-0.185-0.446v-1.177zm-7.424-0c-0-0.168 0.066-0.328 0.185-0.446 0.118-0.119 0.278-0.185 0.446-0.185h1.177c0.168-0 0.328 0.066 0.446 0.185 0.119 0.118 0.185 0.278 0.185 0.446v1.177c0 0.168-0.066 0.328-0.185 0.446-0.118 0.119-0.278 0.185-0.446 0.185h-1.177c-0.168 0-0.328-0.066-0.446-0.185-0.119-0.118-0.185-0.278-0.185-0.446v-1.177zm-3.748-0c-0-0.168 0.066-0.328 0.185-0.446 0.118-0.119 0.278-0.185 0.446-0.185h1.178c0.168 0 0.328 0.066 0.446 0.185 0.119 0.118 0.185 0.278 0.185 0.446v1.177c0 0.168-0.066 0.328-0.185 0.446-0.118 0.119-0.278 0.185-0.446 0.185h-1.178c-0.168-0-0.328-0.066-0.446-0.185-0.119-0.118-0.185-0.278-0.185-0.446v-1.177zm-0 4.307c0-0.349 0.282-0.631 0.631-0.631h12.348c0.349 0 0.631 0.282 0.631 0.631v1.034c-0 0.349-0.282 0.631-0.631 0.631h-12.348c-0.349-0-0.631-0.282-0.631-0.631v-1.034z"/>
</svg>
