<svg xmlns="http://www.w3.org/2000/svg" style="clip-rule:evenodd;fill-rule:evenodd;stroke-linejoin:round;stroke-miterlimit:2" version="1.1" viewBox="-4 -4 24 24">
 <defs>
  <style id="current-color-scheme" type="text/css">
   .ColorScheme-Text { color:#dfdfdf; } .ColorScheme-Highlight { color:#4285f4; } .ColorScheme-NeutralText { color:#ff9800; } .ColorScheme-PositiveText { color:#4caf50; } .ColorScheme-NegativeText { color:#f44336; }
  </style>
 </defs>
 <path style="fill:currentColor;" class="ColorScheme-Text" d="m10.892 4.778c1.177 0.855 1.942 2.242 1.942 3.806 0 2.596-2.107 4.704-4.703 4.704s-4.704-2.108-4.704-4.704c0-1.555 0.758-2.935 1.924-3.792 0.323-0.238 0.392-0.694 0.155-1.018-0.238-0.323-0.694-0.393-1.018-0.155-1.525 1.122-2.516 2.929-2.516 4.965 0 3.399 2.76 6.159 6.159 6.159s6.159-2.76 6.159-6.159c0-2.048-1.002-3.864-2.542-4.984-0.324-0.236-0.78-0.164-1.016 0.161s-0.164 0.781 0.16 1.017zm-2.761-3.521c-0.735 0-1.327 0.592-1.327 1.327v5c0 0.735 0.592 1.327 1.327 1.327s1.327-0.592 1.327-1.327v-5c0-0.735-0.592-1.327-1.327-1.327z"/>
</svg>
