<svg xmlns="http://www.w3.org/2000/svg" xml:space="preserve" style="fill-rule:evenodd;clip-rule:evenodd;stroke-linejoin:round;stroke-miterlimit:2" width="100%" height="100%" version="1.1" viewBox="-4 -4 24 24">
 <defs>
  <style id="current-color-scheme" type="text/css">
   .ColorScheme-Text { color:#dfdfdf; } .ColorScheme-Highlight { color:#4285f4; } .ColorScheme-NeutralText { color:#ff9800; } .ColorScheme-PositiveText { color:#4caf50; } .ColorScheme-NegativeText { color:#f44336; }
  </style>
 </defs>
 <path style="fill:currentColor;fill-opacity:0.3" class="ColorScheme-Text" d="M16,2.581c0,-1.425 -1.156,-2.581 -2.581,-2.581l-10.838,0c-1.425,0 -2.581,1.156 -2.581,2.581l0,10.838c0,1.425 1.156,2.581 2.581,2.581l10.838,0c1.425,0 2.581,-1.156 2.581,-2.581l0,-10.838Zm-0.986,0.088c0,-0.929 -0.754,-1.683 -1.683,-1.683l-10.662,0c-0.929,0 -1.683,0.754 -1.683,1.683l0,10.662c0,0.929 0.754,1.683 1.683,1.683l10.662,0c0.929,0 1.683,-0.754 1.683,-1.683l0,-10.662Z"/>
 <path style="fill:currentColor;fill-opacity:0.3" class="ColorScheme-Text" d="M9.107,14.329c0.025,0.119 0.142,0.194 0.26,0.169c0.118,-0.025 0.194,-0.141 0.168,-0.259l-0.225,-1.059c-0.025,-0.118 -0.142,-0.194 -0.26,-0.168c-0.118,0.025 -0.193,0.141 -0.168,0.259l0.225,1.058Zm-2.642,-0.09c-0.026,0.118 0.05,0.234 0.168,0.259c0.118,0.025 0.235,-0.05 0.26,-0.169l0.225,-1.058c0.025,-0.118 -0.05,-0.234 -0.168,-0.259c-0.118,-0.026 -0.235,0.05 -0.26,0.168l-0.225,1.059Zm5.093,-0.901c0.071,0.098 0.208,0.12 0.305,0.049c0.098,-0.072 0.12,-0.209 0.049,-0.306l-0.636,-0.875c-0.071,-0.099 -0.208,-0.12 -0.306,-0.05c-0.098,0.072 -0.119,0.209 -0.049,0.307l0.637,0.875Zm-7.47,-0.257c-0.071,0.097 -0.049,0.234 0.049,0.306c0.097,0.071 0.234,0.049 0.305,-0.049l0.637,-0.875c0.07,-0.098 0.049,-0.235 -0.049,-0.307c-0.098,-0.07 -0.235,-0.049 -0.306,0.05l-0.636,0.875Zm9.305,-1.645c0.105,0.06 0.239,0.025 0.299,-0.081c0.06,-0.104 0.025,-0.238 -0.08,-0.299l-0.938,-0.54c-0.104,-0.061 -0.238,-0.025 -0.298,0.08c-0.061,0.104 -0.025,0.239 0.079,0.299l0.938,0.541Zm-11.005,-0.38c-0.105,0.061 -0.14,0.195 -0.08,0.299c0.06,0.106 0.194,0.141 0.299,0.081l0.938,-0.541c0.104,-0.06 0.14,-0.195 0.079,-0.299c-0.06,-0.105 -0.194,-0.141 -0.298,-0.08l-0.938,0.54Zm11.908,-2.105c0.12,0.012 0.228,-0.075 0.241,-0.195c0.012,-0.12 -0.075,-0.228 -0.195,-0.24l-1.076,-0.114c-0.121,-0.012 -0.228,0.075 -0.241,0.195c-0.013,0.121 0.075,0.228 0.194,0.241l1.077,0.113Zm-12.638,-0.435c-0.12,0.012 -0.207,0.12 -0.195,0.24c0.013,0.12 0.121,0.207 0.241,0.195l1.077,-0.113c0.119,-0.013 0.207,-0.12 0.194,-0.241c-0.013,-0.12 -0.12,-0.207 -0.241,-0.195l-1.076,0.114Zm12.452,-2.202c0.116,-0.038 0.179,-0.161 0.141,-0.276c-0.037,-0.115 -0.161,-0.178 -0.276,-0.141l-1.029,0.335c-0.115,0.038 -0.178,0.161 -0.14,0.276c0.037,0.115 0.16,0.178 0.275,0.14l1.029,-0.334Zm-12.085,-0.417c-0.115,-0.037 -0.239,0.026 -0.276,0.141c-0.038,0.115 0.025,0.238 0.141,0.276l1.029,0.334c0.115,0.038 0.238,-0.025 0.275,-0.14c0.038,-0.115 -0.025,-0.238 -0.14,-0.276l-1.029,-0.335Zm10.843,-1.917c0.09,-0.081 0.097,-0.219 0.017,-0.308c-0.081,-0.091 -0.22,-0.098 -0.31,-0.017l-0.804,0.724c-0.09,0.081 -0.097,0.219 -0.016,0.309c0.08,0.09 0.219,0.098 0.309,0.017l0.804,-0.725Zm-9.443,-0.325c-0.09,-0.081 -0.229,-0.074 -0.31,0.017c-0.08,0.089 -0.073,0.227 0.017,0.308l0.804,0.725c0.09,0.081 0.229,0.073 0.309,-0.017c0.081,-0.09 0.074,-0.228 -0.016,-0.309l-0.804,-0.724Zm2.191,-1.48c-0.049,-0.11 -0.179,-0.159 -0.289,-0.11c-0.11,0.049 -0.16,0.179 -0.111,0.289l0.439,0.988c0.05,0.11 0.18,0.16 0.29,0.111c0.111,-0.049 0.16,-0.178 0.111,-0.289l-0.44,-0.989Zm5.168,0.179c0.049,-0.11 -0.001,-0.24 -0.111,-0.289c-0.11,-0.049 -0.24,0 -0.289,0.11l-0.44,0.989c-0.049,0.111 0,0.24 0.111,0.289c0.11,0.049 0.24,-0.001 0.29,-0.111l0.439,-0.988Zm-2.565,-0.638c0,-0.122 -0.098,-0.219 -0.219,-0.219c-0.121,0 -0.219,0.097 -0.219,0.219l0,1.081c0,0.122 0.098,0.219 0.219,0.219c0.121,0 0.219,-0.097 0.219,-0.219l0,-1.081Z"/>
 <path style="fill:currentColor;" class="ColorScheme-Text" d="M8,3.341c2.609,0 4.728,2.119 4.728,4.728c0,2.609 -2.119,4.728 -4.728,4.728c-2.609,0 -4.728,-2.119 -4.728,-4.728c0,-2.609 2.119,-4.728 4.728,-4.728Zm0,0.408c-2.384,0 -4.32,1.936 -4.32,4.32c0,2.384 1.936,4.32 4.32,4.32c2.384,0 4.32,-1.936 4.32,-4.32c0,-2.384 -1.936,-4.32 -4.32,-4.32Zm0,0.664c2.019,0 3.656,1.637 3.656,3.656c0,2.02 -1.637,3.656 -3.656,3.656c-2.019,0 -3.656,-1.636 -3.656,-3.656c0,-2.019 1.637,-3.656 3.656,-3.656Z"/>
</svg>
