<svg xmlns="http://www.w3.org/2000/svg" style="clip-rule:evenodd;fill-rule:evenodd;stroke-linejoin:round;stroke-miterlimit:2" version="1.1" viewBox="-4 -4 24 24">
 <defs>
  <style id="current-color-scheme" type="text/css">
   .ColorScheme-Text { color:#dfdfdf; } .ColorScheme-Highlight { color:#4285f4; } .ColorScheme-NeutralText { color:#ff9800; } .ColorScheme-PositiveText { color:#4caf50; } .ColorScheme-NegativeText { color:#f44336; }
  </style>
 </defs>
 <path style="fill-opacity:.2;fill:currentColor;" class="ColorScheme-Text" d="m16 3.081c0-1.425-1.156-2.581-2.581-2.581h-10.838c-1.425 0-2.581 1.156-2.581 2.581v10.838c0 1.425 1.156 2.581 2.581 2.581h10.838c1.425 0 2.581-1.156 2.581-2.581v-10.838zm-0.986 0.088c0-0.929-0.754-1.683-1.683-1.683h-10.662c-0.929 0-1.683 0.754-1.683 1.683v10.662c0 0.929 0.754 1.683 1.683 1.683h10.662c0.929 0 1.683-0.754 1.683-1.683v-10.662z"/>
 <path style="fill-opacity:.5;fill:currentColor;" class="ColorScheme-Text" d="m9.107 14.829c0.025 0.119 0.142 0.194 0.26 0.169s0.194-0.141 0.168-0.259l-0.225-1.059c-0.025-0.118-0.142-0.194-0.26-0.168-0.118 0.025-0.193 0.141-0.168 0.259l0.225 1.058zm-2.642-0.09c-0.026 0.118 0.05 0.234 0.168 0.259s0.235-0.05 0.26-0.169l0.225-1.058c0.025-0.118-0.05-0.234-0.168-0.259-0.118-0.026-0.235 0.05-0.26 0.168l-0.225 1.059zm5.093-0.901c0.071 0.098 0.208 0.12 0.305 0.049 0.098-0.072 0.12-0.209 0.049-0.306l-0.636-0.875c-0.071-0.099-0.208-0.12-0.306-0.05-0.098 0.072-0.119 0.209-0.049 0.307l0.637 0.875zm-7.47-0.257c-0.071 0.097-0.049 0.234 0.049 0.306 0.097 0.071 0.234 0.049 0.305-0.049l0.637-0.875c0.07-0.098 0.049-0.235-0.049-0.307-0.098-0.07-0.235-0.049-0.306 0.05l-0.636 0.875zm9.305-1.645c0.105 0.06 0.239 0.025 0.299-0.081 0.06-0.104 0.025-0.238-0.08-0.299l-0.938-0.54c-0.104-0.061-0.238-0.025-0.298 0.08-0.061 0.104-0.025 0.239 0.079 0.299l0.938 0.541zm-11.005-0.38c-0.105 0.061-0.14 0.195-0.08 0.299 0.06 0.106 0.194 0.141 0.299 0.081l0.938-0.541c0.104-0.06 0.14-0.195 0.079-0.299-0.06-0.105-0.194-0.141-0.298-0.08l-0.938 0.54zm11.908-2.105c0.12 0.012 0.228-0.075 0.241-0.195 0.012-0.12-0.075-0.228-0.195-0.24l-1.076-0.114c-0.121-0.012-0.228 0.075-0.241 0.195-0.013 0.121 0.075 0.228 0.194 0.241l1.077 0.113zm-12.638-0.435c-0.12 0.012-0.207 0.12-0.195 0.24 0.013 0.12 0.121 0.207 0.241 0.195l1.077-0.113c0.119-0.013 0.207-0.12 0.194-0.241-0.013-0.12-0.12-0.207-0.241-0.195l-1.076 0.114zm12.452-2.202c0.116-0.038 0.179-0.161 0.141-0.276-0.037-0.115-0.161-0.178-0.276-0.141l-1.029 0.335c-0.115 0.038-0.178 0.161-0.14 0.276 0.037 0.115 0.16 0.178 0.275 0.14l1.029-0.334zm-12.085-0.417c-0.115-0.037-0.239 0.026-0.276 0.141-0.038 0.115 0.025 0.238 0.141 0.276l1.029 0.334c0.115 0.038 0.238-0.025 0.275-0.14 0.038-0.115-0.025-0.238-0.14-0.276l-1.029-0.335zm10.843-1.917c0.09-0.081 0.097-0.219 0.017-0.308-0.081-0.091-0.22-0.098-0.31-0.017l-0.804 0.724c-0.09 0.081-0.097 0.219-0.016 0.309 0.08 0.09 0.219 0.098 0.309 0.017l0.804-0.725zm-9.443-0.325c-0.09-0.081-0.229-0.074-0.31 0.017-0.08 0.089-0.073 0.227 0.017 0.308l0.804 0.725c0.09 0.081 0.229 0.073 0.309-0.017 0.081-0.09 0.074-0.228-0.016-0.309l-0.804-0.724zm2.191-1.48c-0.049-0.11-0.179-0.159-0.289-0.11s-0.16 0.179-0.111 0.289l0.439 0.988c0.05 0.11 0.18 0.16 0.29 0.111 0.111-0.049 0.16-0.178 0.111-0.289l-0.44-0.989zm5.168 0.179c0.049-0.11-1e-3 -0.24-0.111-0.289s-0.24-0-0.289 0.11l-0.44 0.989c-0.049 0.111 0 0.24 0.111 0.289 0.11 0.049 0.24-1e-3 0.29-0.111l0.439-0.988zm-2.565-0.638c0-0.122-0.098-0.219-0.219-0.219s-0.219 0.097-0.219 0.219v1.081c0 0.122 0.098 0.219 0.219 0.219s0.219-0.097 0.219-0.219v-1.081z"/>
 <path style="fill:currentColor;" class="ColorScheme-Text" d="m8 3.841c2.609 0 4.728 2.119 4.728 4.728s-2.119 4.728-4.728 4.728-4.728-2.119-4.728-4.728 2.119-4.728 4.728-4.728zm0 0.408c-2.384 0-4.32 1.936-4.32 4.32s1.936 4.32 4.32 4.32 4.32-1.936 4.32-4.32-1.936-4.32-4.32-4.32z"/>
 <path style="fill:currentColor;" class="ColorScheme-Text" d="m8 12.225c-2.019 0-3.656-1.636-3.656-3.656 0-2.019 1.637-3.656 3.656-3.656v7.312z"/>
</svg>
