
<svg xmlns="http://www.w3.org/2000/svg" xmlns:xlink="http://www.w3.org/1999/xlink" width="24px" height="24px" viewBox="0 0 24 24" version="1.1">
<defs>
<filter id="alpha" filterUnits="objectBoundingBox" x="0%" y="0%" width="100%" height="100%">
  <feColorMatrix type="matrix" in="SourceGraphic" values="0 0 0 0 1 0 0 0 0 1 0 0 0 0 1 0 0 0 1 0"/>
</filter>
<mask id="mask0">
  <g filter="url(#alpha)">
<rect x="0" y="0" width="24" height="24" style="fill:rgb(0%,0%,0%);fill-opacity:0.3;stroke:none;"/>
  </g>
</mask>
<clipPath id="clip1">
  <rect x="0" y="0" width="24" height="24"/>
</clipPath>
<g id="surface5" clip-path="url(#clip1)">
<path style=" stroke:none;fill-rule:nonzero;fill:rgb(87.450981%,87.450981%,87.450981%);fill-opacity:1;" d="M 12 1.5 C 6.199219 1.5 1.5 6.199219 1.5 12 C 1.5 17.800781 6.199219 22.5 12 22.5 C 17.800781 22.5 22.5 17.800781 22.5 12 C 22.5 6.199219 17.800781 1.5 12 1.5 Z M 12 4.5 C 16.140625 4.5 19.5 7.859375 19.5 12 C 19.5 16.140625 16.140625 19.5 12 19.5 C 7.859375 19.5 4.5 16.140625 4.5 12 C 4.5 7.859375 7.859375 4.5 12 4.5 Z M 12 4.5 "/>
</g>
</defs>
<g id="surface1">
<use xlink:href="#surface5" mask="url(#mask0)"/>
<path style=" stroke:none;fill-rule:nonzero;fill:rgb(87.450981%,87.450981%,87.450981%);fill-opacity:1;" d="M 15.007812 1.5 C 15.007812 1.5 14.964844 1.71875 14.933594 1.867188 C 14.878906 2.109375 14.777344 2.480469 14.777344 2.480469 C 14.988281 3.648438 14.992188 4.851562 14.875 6.027344 L 14.761719 6.832031 L 15.265625 6.878906 L 15.347656 6.050781 C 15.417969 4.527344 15.410156 2.992188 15.007812 1.5 Z M 14.738281 6.890625 C 14.222656 7.335938 13.703125 7.808594 13.316406 8.34375 C 12.386719 9.636719 11.792969 11.273438 10.589844 12.390625 C 10.101562 12.84375 9.53125 13.238281 8.945312 13.585938 C 9.253906 13.628906 9.597656 13.660156 9.902344 13.597656 C 9.902344 13.597656 8.589844 14.34375 8.082031 14.851562 C 7.832031 15.101562 7.570312 15.355469 7.328125 15.617188 C 7.523438 15.5 7.753906 15.363281 7.992188 15.363281 C 8.386719 15.355469 9.140625 14.933594 9.140625 14.933594 C 9.140625 14.933594 7.71875 15.820312 7.136719 16.371094 C 6.808594 16.6875 6.433594 16.984375 6.148438 17.339844 C 5.894531 17.664062 6.1875 17.65625 6.1875 17.65625 C 6.667969 17.484375 6.851562 17.308594 7.355469 17.203125 C 7.152344 17.273438 6.195312 17.675781 5.816406 17.890625 C 5.132812 18.277344 4.453125 19.277344 3.976562 19.9375 C 3.722656 20.28125 3.304688 20.578125 3.097656 20.933594 C 2.980469 21.140625 2.992188 21.355469 3.019531 21.410156 C 3.226562 21.785156 4.273438 22.101562 4.847656 22.238281 C 5.539062 22.398438 6.265625 22.472656 6.976562 22.5 C 7.398438 22.414062 7.835938 22.246094 8.144531 21.957031 C 8.566406 21.566406 9.175781 21.1875 9.417969 20.679688 C 9.558594 20.394531 9.773438 20.226562 9.78125 20.222656 C 9.460938 20.730469 9.113281 21.226562 8.734375 21.699219 C 8.554688 21.917969 8.304688 22.203125 8.304688 22.203125 C 8.726562 22.054688 9.167969 21.816406 9.582031 21.75 C 9.835938 21.707031 10.121094 21.589844 10.316406 21.414062 C 10.527344 21.226562 10.84375 21.152344 11.027344 20.960938 C 11.542969 20.425781 11.890625 19.605469 12.382812 19.042969 L 12.707031 18.636719 L 12.871094 18.410156 C 12.871094 18.410156 12.347656 19.570312 12.058594 20.128906 L 12.050781 20.144531 C 11.964844 20.296875 11.832031 20.449219 11.699219 20.585938 L 11.644531 20.644531 L 11.671875 20.648438 C 12.199219 20.378906 12.660156 19.96875 13.164062 19.648438 L 13.203125 19.621094 C 13.578125 19.410156 13.910156 19.039062 14.1875 18.738281 C 14.449219 18.457031 14.582031 18.285156 14.652344 17.882812 L 15.058594 15.605469 L 15.097656 15.484375 L 15.097656 15.542969 C 15.078125 16.558594 14.90625 17.652344 15.070312 18.652344 C 15.1875 19.390625 15.253906 19.238281 15.253906 19.238281 C 15.324219 18.367188 15.234375 17.308594 15.527344 16.515625 C 15.726562 15.980469 16.046875 15.398438 16.148438 14.820312 C 16.253906 14.230469 16.253906 13.597656 16.234375 12.992188 C 16.214844 12.207031 16.164062 11.414062 16.050781 10.632812 C 16.15625 11.003906 16.316406 11.394531 16.335938 11.777344 C 16.359375 12.136719 16.378906 12.878906 16.378906 12.878906 C 16.46875 12.425781 16.53125 11.941406 16.480469 11.476562 C 16.433594 11.050781 16.519531 10.617188 16.46875 10.199219 C 16.402344 9.652344 16.386719 9.058594 16.195312 8.539062 C 16.011719 8.027344 15.472656 7.519531 15.332031 7.007812 L 15.25 6.890625 C 15.046875 8.289062 14.554688 9.710938 14.101562 11.015625 C 13.53125 12.664062 12.617188 14.058594 11.757812 15.554688 C 10.96875 16.925781 10.015625 18.085938 8.785156 19.0625 C 7.710938 19.910156 6.523438 20.558594 5.246094 21.027344 C 4.847656 21.171875 4.40625 21.222656 3.984375 21.234375 C 3.675781 21.246094 3.445312 21.226562 3.445312 21.226562 C 4.355469 21.035156 5.28125 20.761719 6.09375 20.296875 C 8.339844 19 10.160156 17.226562 11.476562 14.96875 C 12.316406 13.535156 13.109375 12.125 13.660156 10.550781 C 14.074219 9.367188 14.503906 8.136719 14.738281 6.890625 Z M 14.738281 6.890625 "/>
</g>
</svg>
