
<svg xmlns="http://www.w3.org/2000/svg" xmlns:xlink="http://www.w3.org/1999/xlink" width="24px" height="24px" viewBox="0 0 24 24" version="1.1">
<defs>
<filter id="alpha" filterUnits="objectBoundingBox" x="0%" y="0%" width="100%" height="100%">
  <feColorMatrix type="matrix" in="SourceGraphic" values="0 0 0 0 1 0 0 0 0 1 0 0 0 0 1 0 0 0 1 0"/>
</filter>
<mask id="mask0">
  <g filter="url(#alpha)">
<rect x="0" y="0" width="24" height="24" style="fill:rgb(0%,0%,0%);fill-opacity:0.3;stroke:none;"/>
  </g>
</mask>
<clipPath id="clip1">
  <rect x="0" y="0" width="24" height="24"/>
</clipPath>
<g id="surface5" clip-path="url(#clip1)">
<path style=" stroke:none;fill-rule:nonzero;fill:rgb(29.803923%,68.627453%,31.37255%);fill-opacity:1;" d="M 3 1.5 C 0 1.5 0 4.5 0 4.5 L 0 16.5 C 0 16.5 0 19.5 3 19.5 L 21 19.5 C 21 19.5 24 19.5 24 16.5 L 24 4.5 C 24 4.5 24 1.5 21 1.5 Z M 3 1.5 "/>
</g>
</defs>
<g id="surface1">
<use xlink:href="#surface5" mask="url(#mask0)"/>
<path style=" stroke:none;fill-rule:nonzero;fill:rgb(29.803923%,68.627453%,31.37255%);fill-opacity:1;" d="M 8.507812 20.09375 L 15.492188 20.09375 L 15.492188 22.941406 L 8.507812 22.941406 Z M 3 1.5 C 0 1.5 0 4.5 0 4.5 L 0 16.5 C 0 16.5 0 19.5 3 19.5 L 21 19.5 C 21 19.5 24 19.5 24 16.5 L 24 4.5 C 24 4.5 24 1.5 21 1.5 Z M 3 3 L 21 3 C 22.5 3 22.5 4.5 22.5 4.5 L 22.5 16.5 C 22.5 18 21 18 21 18 L 3 18 C 1.5 18 1.5 16.5 1.5 16.5 L 1.5 4.5 C 1.5 4.5 1.5 3 3 3 Z M 3 3 "/>
</g>
</svg>
