
<svg xmlns="http://www.w3.org/2000/svg" xmlns:xlink="http://www.w3.org/1999/xlink" width="24px" height="24px" viewBox="0 0 24 24" version="1.1">
<g id="surface1">
<path style=" stroke:none;fill-rule:nonzero;fill:rgb(87.450981%,87.450981%,87.450981%);fill-opacity:1;" d="M 4.351562 6.652344 L 1.988281 4.316406 C 1.398438 3.738281 1.394531 2.785156 1.976562 2.195312 C 2.558594 1.605469 3.507812 1.601562 4.097656 2.183594 L 23.09375 20.933594 C 23.683594 21.515625 23.6875 22.46875 23.105469 23.054688 C 22.523438 23.644531 21.574219 23.652344 20.984375 23.070312 L 5.507812 7.792969 L 5.515625 7.800781 C 4.714844 9.042969 4.324219 10.523438 4.324219 12 L 4.363281 12.8125 L 6.144531 13.667969 C 5.703125 16.445312 5.953125 19.222656 6.605469 22.003906 L 4.324219 22.003906 C 0.488281 22.003906 0.488281 18.667969 0.488281 18.667969 C 0.488281 18.667969 0.246094 15.976562 0.488281 14.863281 C 0.644531 14.148438 2.761719 12 2.761719 12 C 2.761719 10.03125 3.371094 8.195312 4.351562 6.652344 Z M 17.78125 19.90625 L 19.894531 21.992188 C 19.753906 22.003906 19.675781 22.003906 19.675781 22.003906 L 17.394531 22.003906 C 17.546875 21.300781 17.679688 20.601562 17.78125 19.90625 Z M 7.046875 3.757812 C 8.558594 2.648438 10.304688 1.996094 12 1.996094 C 16.441406 1.996094 21.238281 6.464844 21.238281 12 C 21.238281 12 23.363281 14.046875 23.511719 14.722656 C 23.753906 15.835938 23.511719 18.667969 23.511719 18.667969 C 23.511719 19.113281 23.445312 19.496094 23.328125 19.828125 L 17.949219 14.523438 C 17.921875 14.25 17.890625 13.972656 17.855469 13.699219 L 19.710938 12.8125 L 19.675781 12 C 19.675781 8.296875 17.230469 4.546875 12 4.570312 C 10.671875 4.574219 9.523438 4.820312 8.546875 5.238281 Z M 7.046875 3.757812 "/>
</g>
</svg>
