
<svg xmlns="http://www.w3.org/2000/svg" xmlns:xlink="http://www.w3.org/1999/xlink" width="24px" height="24px" viewBox="0 0 24 24" version="1.1">
<defs>
<filter id="alpha" filterUnits="objectBoundingBox" x="0%" y="0%" width="100%" height="100%">
  <feColorMatrix type="matrix" in="SourceGraphic" values="0 0 0 0 1 0 0 0 0 1 0 0 0 0 1 0 0 0 1 0"/>
</filter>
<mask id="mask0">
  <g filter="url(#alpha)">
<rect x="0" y="0" width="24" height="24" style="fill:rgb(0%,0%,0%);fill-opacity:0.3;stroke:none;"/>
  </g>
</mask>
<clipPath id="clip1">
  <rect x="0" y="0" width="24" height="24"/>
</clipPath>
<g id="surface5" clip-path="url(#clip1)">
<path style=" stroke:none;fill-rule:evenodd;fill:rgb(87.450981%,87.450981%,87.450981%);fill-opacity:1;" d="M 8.589844 22.296875 C 8.289062 22.722656 7.714844 22.648438 7.4375 22.488281 C 3.785156 20.289062 1.5 16.324219 1.5 12 C 1.5 7.675781 3.785156 3.710938 7.445312 1.527344 C 7.71875 1.371094 8.386719 1.289062 8.652344 1.699219 C 8.921875 2.117188 8.644531 2.671875 8.125 2.96875 C 5.164062 4.738281 3.011719 8.527344 3.011719 12.027344 C 3.011719 15.53125 5.210938 19.359375 8.164062 21.140625 C 8.675781 21.433594 8.875 21.890625 8.589844 22.296875 Z M 13.457031 1.5 L 20.261719 7.5 L 21.691406 7.5 C 22.457031 7.5 23.074219 8.117188 23.074219 8.882812 L 23.074219 15.117188 C 23.074219 15.882812 22.457031 16.5 21.691406 16.5 L 20.261719 16.5 L 13.457031 22.5 Z M 10.570312 17.859375 C 10.9375 17.375 10.46875 16.84375 10.003906 16.582031 C 8.605469 15.726562 7.539062 13.6875 7.539062 12 C 7.539062 10.3125 8.695312 8.242188 10.113281 7.417969 C 10.589844 7.148438 10.953125 6.613281 10.609375 6.199219 C 10.199219 5.703125 9.726562 5.84375 9.449219 5.996094 C 7.351562 7.234375 6.023438 9.503906 6.023438 12 C 6.023438 14.496094 7.351562 16.765625 9.433594 18.03125 C 9.71875 18.1875 10.175781 18.382812 10.570312 17.859375 Z M 12.199219 13.660156 C 11.28125 13.660156 10.535156 12.917969 10.535156 12 C 10.535156 11.082031 11.28125 10.339844 12.199219 10.339844 Z M 12.199219 13.660156 "/>
</g>
</defs>
<g id="surface1">
<use xlink:href="#surface5" mask="url(#mask0)"/>
<path style=" stroke:none;fill-rule:evenodd;fill:rgb(87.450981%,87.450981%,87.450981%);fill-opacity:1;" d="M 13.457031 1.5 L 20.648438 7.5 L 21.691406 7.5 C 22.457031 7.5 23.074219 8.117188 23.074219 8.882812 L 23.074219 15.117188 C 23.074219 15.882812 22.457031 16.5 21.691406 16.5 L 20.648438 16.5 L 13.457031 22.5 Z M 14.957031 4.601562 L 19.71875 8.675781 C 19.984375 8.886719 20.3125 9 20.648438 9 L 21.574219 9 L 21.574219 15 L 20.648438 15 C 20.3125 15 19.984375 15.113281 19.71875 15.324219 L 14.957031 19.398438 Z M 18.265625 10.339844 C 19.183594 10.339844 19.925781 11.082031 19.925781 12 C 19.925781 12.917969 19.183594 13.660156 18.265625 13.660156 C 17.351562 13.660156 16.605469 12.917969 16.605469 12 C 16.605469 11.082031 17.351562 10.339844 18.265625 10.339844 Z M 18.265625 10.339844 "/>
</g>
</svg>
