
<svg xmlns="http://www.w3.org/2000/svg" xmlns:xlink="http://www.w3.org/1999/xlink" width="24px" height="24px" viewBox="0 0 24 24" version="1.1">
<g id="surface1">
<path style=" stroke:none;fill-rule:nonzero;fill:rgb(87.450981%,87.450981%,87.450981%);fill-opacity:1;" d="M 6.671875 1.5 L 6.675781 1.503906 L 0.0117188 5.261719 L 6 8.980469 L 0 13.503906 L 6.675781 17.25 L 12 13.515625 L 6 9 L 12 5.261719 L 18 9.019531 L 15.394531 10.972656 C 16.230469 10.660156 17.109375 10.5 18 10.5 C 18.921875 10.503906 19.832031 10.675781 20.691406 11.007812 L 18 8.996094 L 23.984375 5.257812 L 17.324219 1.5 L 12 5.238281 Z M 18 12 C 14.6875 12 12 14.6875 12 18 C 12 21.3125 14.6875 24 18 24 C 21.3125 24 24 21.3125 24 18 C 24 14.6875 21.3125 12 18 12 Z M 23.957031 13.449219 C 23.964844 13.464844 23.976562 13.480469 23.984375 13.496094 L 24 13.484375 Z M 15.535156 14.449219 L 15.53125 14.46875 L 18 16.941406 L 20.46875 14.46875 L 21.53125 15.53125 L 19.058594 18 L 21.53125 20.46875 L 20.46875 21.53125 L 18.003906 19.039062 L 15.535156 21.511719 L 14.476562 20.449219 L 16.945312 17.980469 L 14.476562 15.511719 Z M 10.820312 15.84375 L 6.675781 18.753906 L 5.339844 18.003906 L 5.339844 18.5625 L 12 22.5 L 12.007812 22.496094 C 11.03125 21.199219 10.503906 19.621094 10.5 18 C 10.5 17.269531 10.609375 16.542969 10.820312 15.84375 Z M 10.820312 15.84375 "/>
</g>
</svg>
