
<svg xmlns="http://www.w3.org/2000/svg" xmlns:xlink="http://www.w3.org/1999/xlink" width="24px" height="24px" viewBox="0 0 24 24" version="1.1">
<g id="surface1">
<path style=" stroke:none;fill-rule:nonzero;fill:rgb(87.450981%,87.450981%,87.450981%);fill-opacity:1;" d="M 10.320312 1.5 C 9.625 1.5 9.0625 2.0625 9.0625 2.757812 C 9.0625 3.457031 9.625 4.019531 10.320312 4.019531 C 13.566406 4.019531 16.199219 6.652344 16.199219 9.898438 C 16.199219 10.59375 16.765625 11.160156 17.460938 11.160156 C 18.15625 11.160156 18.71875 10.59375 18.71875 9.898438 C 18.71875 5.261719 14.960938 1.5 10.320312 1.5 Z M 9.898438 5.28125 C 5.261719 5.28125 1.5 9.039062 1.5 13.679688 C 1.5 14.375 2.0625 14.9375 2.757812 14.9375 C 3.457031 14.9375 4.019531 14.375 4.019531 13.679688 C 4.019531 10.433594 6.652344 7.800781 9.898438 7.800781 C 10.59375 7.800781 11.160156 7.234375 11.160156 6.539062 C 11.160156 5.84375 10.59375 5.28125 9.898438 5.28125 Z M 21.242188 9.058594 C 20.542969 9.058594 19.980469 9.625 19.980469 10.320312 C 19.980469 13.566406 17.347656 16.199219 14.101562 16.199219 C 13.40625 16.199219 12.839844 16.765625 12.839844 17.460938 C 12.839844 18.15625 13.40625 18.71875 14.101562 18.71875 C 18.738281 18.71875 22.5 14.960938 22.5 10.320312 C 22.5 9.625 21.9375 9.058594 21.242188 9.058594 Z M 6.539062 12.839844 C 5.84375 12.839844 5.28125 13.40625 5.28125 14.101562 C 5.28125 18.738281 9.039062 22.5 13.679688 22.5 C 14.375 22.5 14.941406 21.9375 14.941406 21.242188 C 14.941406 20.542969 14.375 19.980469 13.679688 19.980469 C 10.433594 19.980469 7.800781 17.347656 7.800781 14.101562 C 7.800781 13.40625 7.234375 12.839844 6.539062 12.839844 Z M 6.539062 12.839844 "/>
</g>
</svg>
