
<svg xmlns="http://www.w3.org/2000/svg" xmlns:xlink="http://www.w3.org/1999/xlink" width="24px" height="24px" viewBox="0 0 24 24" version="1.1">
<g id="surface1">
<path style=" stroke:none;fill-rule:nonzero;fill:rgb(87.450981%,87.450981%,87.450981%);fill-opacity:1;" d="M 10.542969 1.503906 C 9.839844 1.488281 9.082031 1.554688 8.839844 1.621094 C 8.445312 1.726562 8.003906 1.941406 7.765625 2.277344 C 7.605469 2.507812 7.496094 2.792969 7.496094 3.203125 C 7.496094 3.433594 7.5 3.074219 7.503906 3.550781 C 7.511719 4.027344 7.519531 4.199219 7.519531 4.199219 C 7.519531 4.625 7.164062 4.539062 6.726562 4.539062 L 4.851562 4.539062 C 2.925781 4.539062 2.917969 7.617188 3.046875 9.066406 C 3.117188 9.609375 3.726562 13.417969 4.300781 14.574219 C 4.527344 15.019531 4.675781 15.214844 5.117188 15.410156 C 6.089844 15.816406 8.328125 16.265625 9.375 16.402344 C 10.417969 16.527344 11.078125 16.804688 11.464844 16.007812 C 11.464844 16.007812 11.542969 15.808594 11.652344 15.515625 C 11.988281 14.515625 12.035156 13.632812 12.035156 12.988281 C 12.035156 12.921875 12.136719 12.921875 12.136719 12.988281 C 12.136719 13.441406 12.046875 15.046875 13.296875 15.480469 C 13.785156 15.652344 14.808594 15.796875 15.84375 15.917969 C 16.78125 16.019531 17.457031 16.382812 17.457031 18.726562 C 17.457031 20.152344 17.15625 21 15.542969 21 C 14.246094 21 13.5 21.273438 13.5 20.269531 C 13.5 19.453125 14.277344 19.542969 14.890625 19.542969 C 15.160156 19.542969 14.960938 19.34375 14.960938 18.839844 C 14.960938 18.339844 15.285156 18.054688 14.980469 18.046875 C 12.859375 17.992188 12 18.039062 12 20.625 C 12 22.96875 12.835938 22.5 15.84375 22.5 C 18.203125 22.5 19.035156 22.421875 20.003906 19.480469 C 20.199219 18.902344 20.664062 17.125 20.949219 14.152344 C 21.128906 12.269531 20.78125 6.589844 20.503906 5.152344 C 20.347656 4.320312 19.832031 4.054688 19.375 3.890625 C 17.4375 3.101562 15.757812 3.023438 13.636719 2.964844 C 13.546875 2.378906 13.128906 2.039062 12.660156 1.855469 C 12.039062 1.609375 11.242188 1.515625 10.542969 1.503906 Z M 16.558594 9.003906 C 17.820312 9.0625 18 10.8125 18 12 C 17.464844 11.644531 16.8125 11.433594 16.09375 11.394531 C 15.710938 11.367188 15.347656 11.40625 15 11.480469 C 15.101562 10.351562 15.421875 8.9375 16.558594 9.003906 Z M 16.558594 9.003906 "/>
</g>
</svg>
