
<svg xmlns="http://www.w3.org/2000/svg" xmlns:xlink="http://www.w3.org/1999/xlink" width="24px" height="24px" viewBox="0 0 24 24" version="1.1">
<g id="surface1">
<path style=" stroke:none;fill-rule:nonzero;fill:rgb(87.450981%,87.450981%,87.450981%);fill-opacity:1;" d="M 7.5 18 L 9 18 L 9 19.5 L 19.5 19.5 L 19.5 21 L 7.5 21 Z M 16.5 4.5 L 18 4.5 L 18 9 L 21 9 L 21 10.5 L 18 10.5 L 18 16.5 L 16.5 16.5 Z M 9 9 C 11.394531 9 13.5 10.585938 13.5 12.75 C 13.5 14.914062 11.394531 16.5 9 16.5 C 6.605469 16.5 4.5 14.914062 4.5 12.75 C 4.5 10.585938 6.605469 9 9 9 Z M 9 10.5 C 7.253906 10.5 6 11.597656 6 12.75 C 6 13.902344 7.253906 15 9 15 C 10.746094 15 12 13.902344 12 12.75 C 12 11.597656 10.746094 10.5 9 10.5 Z M 4.5 6 L 13.5 6 L 13.5 7.5 L 4.5 7.5 Z M 7.5 3 L 10.5 3 L 10.5 4.5 L 7.5 4.5 Z M 7.5 3 "/>
</g>
</svg>
