
<svg xmlns="http://www.w3.org/2000/svg" xmlns:xlink="http://www.w3.org/1999/xlink" width="24px" height="24px" viewBox="0 0 24 24" version="1.1">
<g id="surface1">
<path style=" stroke:none;fill-rule:nonzero;fill:rgb(87.450981%,87.450981%,87.450981%);fill-opacity:1;" d="M 10.5 3 L 12 3 L 12 13.472656 C 14.714844 13.351562 16.082031 12.5625 16.894531 11.234375 C 17.777344 9.789062 18 7.46875 18 4.5 L 19.5 4.5 C 19.5 7.53125 19.347656 10.085938 18.167969 12.015625 C 17.082031 13.796875 15.074219 14.824219 12 14.972656 L 12 19.5 L 19.5 19.5 L 19.5 21 L 3 21 L 3 19.5 L 10.5 19.5 L 10.5 14.972656 C 7.425781 14.824219 5.417969 13.796875 4.332031 12.015625 C 3.152344 10.085938 3 7.53125 3 4.5 L 4.5 4.5 C 4.5 7.46875 4.722656 9.789062 5.605469 11.234375 C 6.421875 12.5625 7.785156 13.351562 10.5 13.472656 Z M 10.5 3 "/>
</g>
</svg>
