
<svg xmlns="http://www.w3.org/2000/svg" xmlns:xlink="http://www.w3.org/1999/xlink" width="24px" height="24px" viewBox="0 0 24 24" version="1.1">
<g id="surface1">
<path style=" stroke:none;fill-rule:nonzero;fill:rgb(87.450981%,87.450981%,87.450981%);fill-opacity:1;" d="M 3 3 L 12 3 L 12 4.5 L 9 4.5 L 9 9 L 12 9 L 11.398438 8.546875 C 11.398438 8.546875 13.5 5.625 13.5 3 L 15 3 C 15 4.0625 14.753906 5.082031 14.425781 6 L 16.5 6 L 16.5 3 L 18 3 L 18 6 L 21 6 L 21 7.5 L 18 7.5 L 18 10.5 L 21 10.5 L 21 12 L 13.5 12 L 13.5 10.5 L 16.5 10.5 L 16.5 7.5 L 13.796875 7.5 C 13.199219 8.683594 12.601562 9.453125 12.601562 9.453125 L 12 9 L 12 21 L 3 21 L 3 9 L 4.5 9 L 4.5 4.5 L 3 4.5 Z M 13.5 13.5 L 21 13.5 L 21 21 L 13.5 21 Z M 15 15 L 15 19.5 L 19.5 19.5 L 19.5 15 Z M 6 10.5 L 6 15 L 4.5 15 L 4.5 16.5 L 9 16.5 L 9 18 L 4.5 18 L 4.5 19.5 L 10.5 19.5 L 10.5 10.5 L 9 10.5 L 9 15 L 7.5 15 L 7.5 10.5 Z M 6 4.5 L 6 9 L 7.5 9 L 7.5 4.5 Z M 6 4.5 "/>
</g>
</svg>
