
<svg xmlns="http://www.w3.org/2000/svg" xmlns:xlink="http://www.w3.org/1999/xlink" width="24px" height="24px" viewBox="0 0 24 24" version="1.1">
<defs>
<filter id="alpha" filterUnits="objectBoundingBox" x="0%" y="0%" width="100%" height="100%">
  <feColorMatrix type="matrix" in="SourceGraphic" values="0 0 0 0 1 0 0 0 0 1 0 0 0 0 1 0 0 0 1 0"/>
</filter>
<mask id="mask0">
  <g filter="url(#alpha)">
<rect x="0" y="0" width="24" height="24" style="fill:rgb(0%,0%,0%);fill-opacity:0.3;stroke:none;"/>
  </g>
</mask>
<clipPath id="clip1">
  <rect x="0" y="0" width="24" height="24"/>
</clipPath>
<g id="surface5" clip-path="url(#clip1)">
<path style=" stroke:none;fill-rule:nonzero;fill:rgb(87.450981%,87.450981%,87.450981%);fill-opacity:1;" d="M 12 1.5 C 6.199219 1.5 1.5 6.199219 1.5 12 C 1.5 13.117188 1.683594 14.21875 2.039062 15.28125 C 3.574219 14.085938 4.9375 13.273438 6.210938 12.746094 C 7.457031 12.25 8.613281 12.039062 9.703125 12.066406 C 10.78125 12.089844 11.789062 12.355469 12.734375 12.761719 C 15.386719 13.902344 17.695312 16.070312 20.753906 17.789062 C 21.894531 16.070312 22.5 14.0625 22.5 12 C 22.5 6.199219 17.800781 1.5 12 1.5 Z M 15 4.5 C 16.65625 4.5 18 5.84375 18 7.5 C 18 9.15625 16.65625 10.5 15 10.5 C 13.34375 10.5 12 9.15625 12 7.5 C 12 5.84375 13.34375 4.5 15 4.5 Z M 15 4.5 "/>
</g>
</defs>
<g id="surface1">
<path style=" stroke:none;fill-rule:nonzero;fill:rgb(87.450981%,87.450981%,87.450981%);fill-opacity:1;" d="M 15 6 C 14.171875 6 13.5 6.671875 13.5 7.5 C 13.5 8.328125 14.171875 9 15 9 C 15.828125 9 16.5 8.328125 16.5 7.5 C 16.5 6.671875 15.828125 6 15 6 Z M 9.664062 13.515625 C 8.773438 13.488281 7.8125 13.671875 6.710938 14.117188 C 5.515625 14.605469 4.136719 15.320312 2.550781 16.566406 C 4.308594 20.191406 7.96875 22.5 12 22.5 C 15.058594 22.5 17.957031 21.175781 19.941406 18.863281 C 16.789062 17.09375 14.492188 15.101562 12.222656 14.117188 C 11.382812 13.765625 10.558594 13.527344 9.664062 13.515625 Z M 9.664062 13.515625 "/>
<use xlink:href="#surface5" mask="url(#mask0)"/>
</g>
</svg>
