
<svg xmlns="http://www.w3.org/2000/svg" xmlns:xlink="http://www.w3.org/1999/xlink" width="24px" height="24px" viewBox="0 0 24 24" version="1.1">
<g id="surface1">
<path style=" stroke:none;fill-rule:nonzero;fill:rgb(87.450981%,87.450981%,87.450981%);fill-opacity:1;" d="M 1.675781 0.1875 L 3.042969 0.21875 C 3.042969 0.21875 4.519531 0.21875 4.519531 1.691406 L 4.519531 20.867188 C 4.519531 22.820312 3.148438 22.792969 3.148438 20.839844 L 3.148438 17.886719 L 0.199219 17.886719 L 0.199219 13.460938 L 3.148438 13.460938 L 3.148438 11.988281 L 0.199219 11.988281 L 0.199219 7.5625 L 3.148438 7.5625 L 3.148438 1.648438 L 1.675781 1.648438 C -0.277344 1.648438 -0.277344 0.1875 1.675781 0.1875 Z M 5.820312 4.613281 L 21.453125 4.613281 C 22.75 4.613281 23.800781 5.664062 23.800781 6.960938 L 23.800781 19.964844 C 23.800781 20.585938 23.550781 21.183594 23.113281 21.625 C 22.671875 22.066406 22.074219 22.3125 21.453125 22.3125 L 9.050781 22.3125 L 9.050781 19.363281 L 5.820312 19.363281 L 5.820312 17.933594 L 10.417969 17.933594 L 10.417969 20.882812 L 21.933594 20.882812 L 21.933594 6.273438 L 5.820312 6.273438 Z M 15.71875 19.359375 L 13.113281 19.359375 L 13.113281 11.789062 L 15.71875 11.789062 Z M 1.207031 14.910156 L 2.679688 14.910156 L 2.679688 16.382812 L 1.207031 16.382812 Z M 14.402344 7.566406 C 14.625 7.566406 14.832031 7.609375 15.023438 7.6875 C 15.214844 7.769531 15.382812 7.878906 15.53125 8.011719 C 15.675781 8.148438 15.792969 8.3125 15.878906 8.496094 C 15.964844 8.683594 16.003906 8.890625 16.003906 9.109375 C 16.003906 9.324219 15.964844 9.523438 15.878906 9.710938 C 15.792969 9.894531 15.675781 10.058594 15.53125 10.191406 C 15.382812 10.328125 15.214844 10.4375 15.023438 10.519531 C 14.832031 10.597656 14.625 10.640625 14.402344 10.640625 C 14.179688 10.640625 13.972656 10.597656 13.78125 10.519531 C 13.589844 10.4375 13.421875 10.328125 13.273438 10.191406 C 13.128906 10.058594 13.015625 9.894531 12.933594 9.710938 C 12.851562 9.523438 12.8125 9.324219 12.8125 9.109375 C 12.8125 8.667969 12.964844 8.296875 13.273438 8.003906 C 13.582031 7.714844 13.957031 7.566406 14.402344 7.566406 Z M 1.207031 9.007812 L 2.679688 9.007812 L 2.679688 10.484375 L 1.207031 10.484375 Z M 1.207031 9.007812 "/>
</g>
</svg>
