
<svg xmlns="http://www.w3.org/2000/svg" xmlns:xlink="http://www.w3.org/1999/xlink" width="24px" height="24px" viewBox="0 0 24 24" version="1.1">
<defs>
<filter id="alpha" filterUnits="objectBoundingBox" x="0%" y="0%" width="100%" height="100%">
  <feColorMatrix type="matrix" in="SourceGraphic" values="0 0 0 0 1 0 0 0 0 1 0 0 0 0 1 0 0 0 1 0"/>
</filter>
<mask id="mask0">
  <g filter="url(#alpha)">
<rect x="0" y="0" width="24" height="24" style="fill:rgb(0%,0%,0%);fill-opacity:0.3;stroke:none;"/>
  </g>
</mask>
<clipPath id="clip1">
  <rect x="0" y="0" width="24" height="24"/>
</clipPath>
<g id="surface5" clip-path="url(#clip1)">
<path style=" stroke:none;fill-rule:nonzero;fill:rgb(87.450981%,87.450981%,87.450981%);fill-opacity:1;" d="M 3 1.5 C 1.339844 1.5 0 2.839844 0 4.5 L 0 19.5 C 0 21.160156 1.339844 22.5 3 22.5 L 21 22.5 C 22.660156 22.5 24 21.160156 24 19.5 L 24 4.5 C 24 2.839844 22.660156 1.5 21 1.5 Z M 3 1.5 "/>
</g>
</defs>
<g id="surface1">
<use xlink:href="#surface5" mask="url(#mask0)"/>
<path style=" stroke:none;fill-rule:nonzero;fill:rgb(87.450981%,87.450981%,87.450981%);fill-opacity:1;" d="M 10.585938 12.816406 L 19.253906 4.425781 C 19.578125 4.136719 20.085938 4.394531 19.488281 5.269531 L 12.175781 17.832031 C 12.046875 18.054688 11.773438 18.1875 11.523438 18.160156 C 11.445312 18.148438 11.359375 18.148438 11.289062 18.113281 C 11.28125 18.109375 6.917969 11.746094 6.226562 10.425781 C 6.082031 10.15625 6.277344 9.5625 7.117188 10.191406 Z M 10.585938 12.816406 "/>
</g>
</svg>
