
<svg xmlns="http://www.w3.org/2000/svg" xmlns:xlink="http://www.w3.org/1999/xlink" width="24px" height="24px" viewBox="0 0 24 24" version="1.1">
<defs>
<filter id="alpha" filterUnits="objectBoundingBox" x="0%" y="0%" width="100%" height="100%">
  <feColorMatrix type="matrix" in="SourceGraphic" values="0 0 0 0 1 0 0 0 0 1 0 0 0 0 1 0 0 0 1 0"/>
</filter>
<mask id="mask0">
  <g filter="url(#alpha)">
<rect x="0" y="0" width="24" height="24" style="fill:rgb(0%,0%,0%);fill-opacity:0.3;stroke:none;"/>
  </g>
</mask>
<clipPath id="clip1">
  <rect x="0" y="0" width="24" height="24"/>
</clipPath>
<g id="surface5" clip-path="url(#clip1)">
<path style=" stroke:none;fill-rule:evenodd;fill:rgb(87.450981%,87.450981%,87.450981%);fill-opacity:1;" d="M 0.820312 1.382812 L 0.878906 18.132812 L 23.152344 18.117188 L 22.953125 1.527344 Z M 0.820312 1.382812 "/>
</g>
</defs>
<g id="surface1">
<use xlink:href="#surface5" mask="url(#mask0)"/>
<path style=" stroke:none;fill-rule:evenodd;fill:rgb(87.450981%,87.450981%,87.450981%);fill-opacity:1;" d="M 7.777344 20.535156 L 16.222656 20.535156 L 16.222656 24 L 7.777344 24 Z M 3 0 C 0 0 0 3 0 3 L 0 16.5 C 0 16.5 0 19.5 3 19.5 L 21 19.5 C 21 19.5 24 19.5 24 16.5 L 24 3 C 24 3 24 0 21 0 Z M 1.152344 1.613281 L 1.152344 17.886719 L 22.847656 17.886719 L 22.847656 1.613281 Z M 11.976562 16.132812 C 11.90625 16.132812 11.871094 16.09375 11.871094 16.023438 L 11.871094 5.582031 C 11.601562 5.78125 11.332031 5.984375 11.0625 6.1875 C 10.792969 6.386719 10.523438 6.585938 10.253906 6.777344 C 10.210938 6.808594 10.175781 6.8125 10.140625 6.792969 C 10.105469 6.769531 10.085938 6.738281 10.085938 6.691406 L 10.085938 4.785156 C 10.085938 4.773438 10.089844 4.757812 10.097656 4.738281 C 10.109375 4.722656 10.117188 4.707031 10.132812 4.695312 L 11.941406 3.386719 L 13.777344 3.386719 C 13.847656 3.386719 13.882812 3.421875 13.882812 3.492188 L 13.882812 16.023438 C 13.882812 16.09375 13.847656 16.132812 13.777344 16.132812 Z M 11.976562 16.132812 "/>
</g>
</svg>
