
<svg xmlns="http://www.w3.org/2000/svg" xmlns:xlink="http://www.w3.org/1999/xlink" width="24px" height="24px" viewBox="0 0 24 24" version="1.1">
<defs>
<filter id="alpha" filterUnits="objectBoundingBox" x="0%" y="0%" width="100%" height="100%">
  <feColorMatrix type="matrix" in="SourceGraphic" values="0 0 0 0 1 0 0 0 0 1 0 0 0 0 1 0 0 0 1 0"/>
</filter>
<mask id="mask0">
  <g filter="url(#alpha)">
<rect x="0" y="0" width="24" height="24" style="fill:rgb(0%,0%,0%);fill-opacity:0.3;stroke:none;"/>
  </g>
</mask>
<clipPath id="clip1">
  <rect x="0" y="0" width="24" height="24"/>
</clipPath>
<g id="surface5" clip-path="url(#clip1)">
<path style=" stroke:none;fill-rule:nonzero;fill:rgb(87.450981%,87.450981%,87.450981%);fill-opacity:1;" d="M 13.503906 5.164062 L 5.886719 12.785156 C 7.070312 13.246094 8.179688 13.972656 9.117188 14.914062 C 10.054688 15.855469 10.777344 16.960938 11.242188 18.144531 L 18.855469 10.519531 Z M 13.503906 5.164062 "/>
</g>
</defs>
<g id="surface1">
<use xlink:href="#surface5" mask="url(#mask0)"/>
<path style=" stroke:none;fill-rule:nonzero;fill:rgb(87.450981%,87.450981%,87.450981%);fill-opacity:1;" d="M 2.84375 13.445312 C 2.570312 13.449219 2.300781 13.472656 2.03125 13.515625 C 1.726562 13.566406 1.5 13.828125 1.5 14.140625 C 1.5 14.308594 1.566406 14.46875 1.6875 14.585938 C 3.304688 18.117188 5.878906 20.691406 9.402344 22.3125 C 9.523438 22.433594 9.683594 22.5 9.851562 22.5 C 10.160156 22.5 10.425781 22.273438 10.472656 21.964844 C 10.820312 19.824219 9.941406 17.496094 8.222656 15.773438 C 6.71875 14.269531 4.746094 13.402344 2.84375 13.445312 Z M 18.039062 18.476562 L 16.253906 20.261719 L 18.039062 22.050781 L 19.824219 20.261719 Z M 15.363281 15.800781 L 13.578125 17.585938 L 15.363281 19.371094 L 17.148438 17.585938 Z M 20.714844 15.800781 L 18.929688 17.585938 L 20.714844 19.371094 L 22.5 17.585938 Z M 18.039062 13.117188 L 16.253906 14.90625 L 18.039062 16.691406 L 19.824219 14.90625 Z M 6.441406 6.859375 L 4.65625 8.644531 L 6.441406 10.429688 L 8.222656 8.644531 Z M 17.09375 5.582031 L 16.050781 6.625 L 17.386719 7.964844 L 18.429688 6.921875 C 17.859375 6.621094 17.394531 6.15625 17.09375 5.582031 Z M 9.117188 4.179688 L 7.332031 5.964844 L 9.117188 7.75 L 10.902344 5.964844 Z M 3.761719 4.179688 L 1.976562 5.964844 L 3.761719 7.75 L 5.546875 5.964844 Z M 20.238281 1.144531 L 20.234375 1.144531 C 18.792969 1.144531 17.605469 2.335938 17.605469 3.777344 C 17.605469 5.21875 18.792969 6.40625 20.234375 6.40625 L 20.238281 6.40625 C 21.679688 6.40625 22.863281 5.21875 22.863281 3.777344 C 22.863281 2.335938 21.679688 1.144531 20.238281 1.144531 Z M 6.441406 1.5 L 4.65625 3.285156 L 6.441406 5.070312 L 8.222656 3.285156 Z M 6.441406 1.5 "/>
</g>
</svg>
