
<svg xmlns="http://www.w3.org/2000/svg" xmlns:xlink="http://www.w3.org/1999/xlink" width="24px" height="24px" viewBox="0 0 24 24" version="1.1">
<defs>
<filter id="alpha" filterUnits="objectBoundingBox" x="0%" y="0%" width="100%" height="100%">
  <feColorMatrix type="matrix" in="SourceGraphic" values="0 0 0 0 1 0 0 0 0 1 0 0 0 0 1 0 0 0 1 0"/>
</filter>
<mask id="mask0">
  <g filter="url(#alpha)">
<rect x="0" y="0" width="24" height="24" style="fill:rgb(0%,0%,0%);fill-opacity:0.3;stroke:none;"/>
  </g>
</mask>
<clipPath id="clip1">
  <rect x="0" y="0" width="24" height="24"/>
</clipPath>
<g id="surface5" clip-path="url(#clip1)">
<path style=" stroke:none;fill-rule:nonzero;fill:rgb(87.450981%,87.450981%,87.450981%);fill-opacity:1;" d="M 5.023438 0 L 5.03125 0 C 5.242188 0 5.417969 0.175781 5.417969 0.386719 L 5.417969 2.703125 L 9.289062 2.703125 L 9.289062 0.394531 C 9.285156 0.179688 9.460938 0.00390625 9.671875 0 L 9.675781 0 C 9.886719 0 10.0625 0.175781 10.0625 0.386719 L 10.0625 2.703125 L 13.9375 2.703125 L 13.9375 0.394531 C 13.933594 0.179688 14.105469 0.00390625 14.316406 0 L 14.324219 0 C 14.535156 0 14.710938 0.175781 14.710938 0.386719 L 14.710938 2.703125 L 18.582031 2.703125 L 18.582031 0.394531 C 18.582031 0.179688 18.753906 0.00390625 18.964844 0 L 18.972656 0 C 19.183594 0 19.359375 0.175781 19.359375 0.386719 L 19.359375 2.746094 C 20.335938 2.910156 21.089844 3.667969 21.253906 4.640625 L 23.605469 4.640625 C 23.820312 4.636719 23.996094 4.808594 24 5.023438 L 24 5.03125 C 24 5.242188 23.824219 5.417969 23.613281 5.417969 L 21.296875 5.417969 L 21.296875 9.289062 L 23.605469 9.289062 C 23.820312 9.285156 23.996094 9.460938 24 9.671875 L 24 9.675781 C 24 9.886719 23.824219 10.0625 23.613281 10.0625 L 21.296875 10.0625 L 21.296875 13.9375 L 23.605469 13.9375 C 23.820312 13.933594 23.996094 14.105469 24 14.316406 L 24 14.324219 C 24 14.535156 23.824219 14.710938 23.613281 14.710938 L 21.296875 14.710938 L 21.296875 18.582031 L 23.613281 18.582031 C 23.824219 18.582031 24 18.757812 24 18.96875 L 24 18.972656 C 24 19.183594 23.824219 19.359375 23.613281 19.359375 L 21.253906 19.359375 C 21.089844 20.335938 20.335938 21.089844 19.359375 21.253906 L 19.359375 23.605469 C 19.359375 23.820312 19.183594 23.996094 18.972656 23.996094 C 18.757812 23.996094 18.582031 23.820312 18.582031 23.605469 L 18.582031 21.296875 L 14.710938 21.296875 L 14.710938 23.625 C 14.710938 23.835938 14.535156 24.011719 14.324219 24.011719 C 14.109375 24.011719 13.9375 23.835938 13.9375 23.625 L 13.9375 21.296875 L 10.0625 21.296875 L 10.0625 23.628906 C 10.0625 23.84375 9.890625 24.015625 9.675781 24.015625 C 9.464844 24.015625 9.289062 23.84375 9.289062 23.628906 L 9.289062 21.296875 L 5.417969 21.296875 L 5.417969 23.605469 C 5.417969 23.820312 5.242188 23.996094 5.03125 23.996094 C 4.816406 23.996094 4.640625 23.820312 4.640625 23.605469 L 4.640625 21.253906 C 3.664062 21.089844 2.910156 20.335938 2.746094 19.359375 L 0.394531 19.359375 C 0.179688 19.359375 0.00390625 19.183594 0.00390625 18.972656 C 0.00390625 18.757812 0.179688 18.582031 0.394531 18.582031 L 2.703125 18.582031 L 2.703125 14.710938 L 0.375 14.710938 C 0.164062 14.710938 -0.0117188 14.535156 -0.0117188 14.324219 C -0.0117188 14.109375 0.164062 13.9375 0.375 13.9375 L 2.703125 13.9375 L 2.703125 10.0625 L 0.371094 10.0625 C 0.15625 10.0625 -0.015625 9.890625 -0.015625 9.675781 C -0.015625 9.464844 0.15625 9.289062 0.371094 9.289062 L 2.703125 9.289062 L 2.703125 5.417969 L 0.394531 5.417969 C 0.179688 5.417969 0.00390625 5.242188 0.00390625 5.03125 C 0.00390625 4.816406 0.179688 4.640625 0.394531 4.640625 L 2.746094 4.640625 C 2.910156 3.664062 3.664062 2.910156 4.640625 2.746094 L 4.640625 0.394531 C 4.636719 0.179688 4.808594 0.00390625 5.023438 0 Z M 5.023438 0 "/>
</g>
</defs>
<g id="surface1">
<use xlink:href="#surface5" mask="url(#mask0)"/>
<path style=" stroke:none;fill-rule:nonzero;fill:rgb(87.450981%,87.450981%,87.450981%);fill-opacity:1;" d="M 5.25 18 L 18.75 18 C 19.164062 18 19.5 18.335938 19.5 18.75 C 19.5 19.164062 19.164062 19.5 18.75 19.5 L 5.25 19.5 C 4.835938 19.5 4.5 19.164062 4.5 18.75 C 4.5 18.335938 4.835938 18 5.25 18 Z M 5.25 13.5 L 18.75 13.5 C 19.164062 13.5 19.5 13.835938 19.5 14.25 C 19.5 14.664062 19.164062 15 18.75 15 L 5.25 15 C 4.835938 15 4.5 14.664062 4.5 14.25 C 4.5 13.835938 4.835938 13.5 5.25 13.5 Z M 5.25 13.5 "/>
</g>
</svg>
