
<svg xmlns="http://www.w3.org/2000/svg" xmlns:xlink="http://www.w3.org/1999/xlink" width="24px" height="24px" viewBox="0 0 24 24" version="1.1">
<defs>
<filter id="alpha" filterUnits="objectBoundingBox" x="0%" y="0%" width="100%" height="100%">
  <feColorMatrix type="matrix" in="SourceGraphic" values="0 0 0 0 1 0 0 0 0 1 0 0 0 0 1 0 0 0 1 0"/>
</filter>
<mask id="mask0">
  <g filter="url(#alpha)">
<rect x="0" y="0" width="24" height="24" style="fill:rgb(0%,0%,0%);fill-opacity:0.3;stroke:none;"/>
  </g>
</mask>
<clipPath id="clip1">
  <rect x="0" y="0" width="24" height="24"/>
</clipPath>
<g id="surface5" clip-path="url(#clip1)">
<path style=" stroke:none;fill-rule:evenodd;fill:rgb(87.450981%,87.450981%,87.450981%);fill-opacity:1;" d="M 0.820312 1.382812 L 0.878906 18.132812 L 23.152344 18.117188 L 22.953125 1.527344 Z M 0.820312 1.382812 "/>
</g>
</defs>
<g id="surface1">
<use xlink:href="#surface5" mask="url(#mask0)"/>
<path style=" stroke:none;fill-rule:evenodd;fill:rgb(87.450981%,87.450981%,87.450981%);fill-opacity:1;" d="M 7.777344 20.535156 L 16.222656 20.535156 L 16.222656 24 L 7.777344 24 Z M 3 0 C 0 0 0 3 0 3 L 0 16.5 C 0 16.5 0 19.5 3 19.5 L 21 19.5 C 21 19.5 24 19.5 24 16.5 L 24 3 C 24 3 24 0 21 0 Z M 1.152344 1.613281 L 1.152344 17.886719 L 22.847656 17.886719 L 22.847656 1.613281 Z M 7.882812 14.253906 C 7.808594 14.253906 7.777344 14.21875 7.777344 14.148438 L 7.777344 12.433594 L 11.976562 3.453125 C 11.988281 3.441406 12.003906 3.425781 12.019531 3.414062 C 12.039062 3.398438 12.058594 3.390625 12.074219 3.390625 L 14.078125 3.390625 C 14.113281 3.390625 14.140625 3.40625 14.160156 3.433594 C 14.183594 3.464844 14.183594 3.5 14.164062 3.539062 L 10 12.355469 L 12.996094 12.355469 L 12.996094 8.847656 C 12.996094 8.785156 13.03125 8.753906 13.101562 8.753906 L 14.894531 8.753906 C 14.964844 8.753906 15 8.785156 15 8.847656 L 15 12.355469 L 15.90625 12.355469 C 15.96875 12.355469 16.003906 12.390625 16.003906 12.460938 L 16.003906 14.148438 C 16.003906 14.21875 15.96875 14.253906 15.90625 14.253906 L 15 14.253906 L 15 16.003906 C 15 16.074219 14.964844 16.109375 14.894531 16.109375 L 13.101562 16.109375 C 13.03125 16.109375 12.996094 16.074219 12.996094 16.003906 L 12.996094 14.253906 Z M 7.882812 14.253906 "/>
</g>
</svg>
