
<svg xmlns="http://www.w3.org/2000/svg" xmlns:xlink="http://www.w3.org/1999/xlink" width="24px" height="24px" viewBox="0 0 24 24" version="1.1">
<g id="surface1">
<path style=" stroke:none;fill-rule:nonzero;fill:rgb(87.450981%,87.450981%,87.450981%);fill-opacity:1;" d="M 1.5 1.5 L 1.5 4.5 C 3.25 4.5 8.058594 5.558594 12.082031 8.355469 C 16.105469 11.152344 19.5 15.5 19.5 22.5 L 22.5 22.5 C 22.5 14.5 18.394531 9.097656 13.792969 5.894531 C 9.191406 2.691406 4.25 1.5 1.5 1.5 Z M 1.5 9 L 1.5 12 C 6.75 12 12 15.800781 12 22.5 L 15 22.5 C 15 14.199219 8.25 9 1.5 9 Z M 1.5 9 "/>
<path style=" stroke:none;fill-rule:nonzero;fill:rgb(25.882354%,52.156866%,95.686275%);fill-opacity:1;" d="M 4.5 16.5 C 2.839844 16.5 1.5 17.84375 1.5 19.5 C 1.5 21.15625 2.839844 22.5 4.5 22.5 C 6.15625 22.5 7.5 21.15625 7.5 19.5 C 7.5 17.84375 6.15625 16.5 4.5 16.5 Z M 4.5 16.5 "/>
</g>
</svg>
