
<svg xmlns="http://www.w3.org/2000/svg" xmlns:xlink="http://www.w3.org/1999/xlink" width="24px" height="24px" viewBox="0 0 24 24" version="1.1">
<g id="surface1">
<path style=" stroke:none;fill-rule:evenodd;fill:rgb(87.450981%,87.450981%,87.450981%);fill-opacity:1;" d="M 8.191406 17.695312 L 11.707031 17.695312 L 14.464844 22.300781 L 12.707031 23.351562 L 11 20.503906 C 10.324219 19.449219 9.617188 19.410156 8.882812 20.527344 L 7.191406 23.351562 L 5.4375 22.300781 Z M 12.742188 3.648438 C 13.8125 3.648438 14.835938 4.074219 15.589844 4.828125 C 16.34375 5.582031 16.769531 6.605469 16.769531 7.671875 L 16.769531 17.082031 L 4.429688 17.082031 C 3.363281 17.082031 2.339844 16.65625 1.585938 15.902344 C 0.832031 15.148438 0.40625 14.125 0.40625 13.054688 L 0.40625 3.648438 Z M 23.59375 5.449219 L 23.59375 15.292969 C 23.59375 15.4375 23.515625 15.570312 23.390625 15.640625 C 23.269531 15.710938 23.117188 15.703125 23 15.628906 C 21.664062 14.761719 18.46875 12.6875 17.472656 12.039062 C 17.285156 11.917969 17.171875 11.703125 17.167969 11.476562 C 17.164062 10.949219 17.15625 9.980469 17.152344 9.453125 C 17.148438 9.226562 17.257812 9.011719 17.445312 8.886719 C 18.4375 8.210938 21.648438 6.03125 22.992188 5.121094 C 23.113281 5.039062 23.261719 5.03125 23.390625 5.101562 C 23.515625 5.171875 23.59375 5.304688 23.59375 5.449219 Z M 12.289062 5.96875 L 2.707031 5.96875 L 2.707031 12.503906 C 2.707031 13.824219 3.78125 14.898438 5.101562 14.898438 L 14.464844 14.898438 L 14.464844 8.144531 C 14.464844 6.945312 13.492188 5.96875 12.289062 5.96875 Z M 8.574219 7.738281 C 10.046875 7.738281 11.242188 8.933594 11.242188 10.410156 C 11.242188 11.882812 10.046875 13.078125 8.574219 13.078125 C 7.097656 13.078125 5.902344 11.882812 5.902344 10.410156 C 5.902344 8.933594 7.097656 7.738281 8.574219 7.738281 Z M 8.574219 7.738281 "/>
</g>
</svg>
