
<svg xmlns="http://www.w3.org/2000/svg" xmlns:xlink="http://www.w3.org/1999/xlink" width="24px" height="24px" viewBox="0 0 24 24" version="1.1">
<defs>
<filter id="alpha" filterUnits="objectBoundingBox" x="0%" y="0%" width="100%" height="100%">
  <feColorMatrix type="matrix" in="SourceGraphic" values="0 0 0 0 1 0 0 0 0 1 0 0 0 0 1 0 0 0 1 0"/>
</filter>
<mask id="mask0">
  <g filter="url(#alpha)">
<rect x="0" y="0" width="24" height="24" style="fill:rgb(0%,0%,0%);fill-opacity:0.3;stroke:none;"/>
  </g>
</mask>
<clipPath id="clip1">
  <rect x="0" y="0" width="24" height="24"/>
</clipPath>
<g id="surface5" clip-path="url(#clip1)">
<path style=" stroke:none;fill-rule:nonzero;fill:rgb(87.450981%,87.450981%,87.450981%);fill-opacity:1;" d="M 3 4.648438 C 2.617188 4.648438 2.234375 4.792969 1.941406 5.085938 C 1.351562 5.675781 1.351562 6.621094 1.941406 7.207031 L 8.304688 13.570312 L 10.429688 11.449219 L 4.066406 5.085938 C 3.769531 4.792969 3.382812 4.648438 3 4.648438 Z M 12.546875 13.570312 L 10.5 15.769531 L 16.789062 22.058594 C 17.378906 22.648438 18.324219 22.648438 18.910156 22.058594 C 19.5 21.472656 19.5 20.523438 18.910156 19.933594 Z M 12.546875 13.570312 "/>
</g>
</defs>
<g id="surface1">
<path style=" stroke:none;fill-rule:nonzero;fill:rgb(87.450981%,87.450981%,87.450981%);fill-opacity:1;" d="M 16.5 1.5 C 13.1875 1.5 10.5 4.1875 10.5 7.5 C 10.503906 8.570312 10.789062 9.621094 11.335938 10.542969 L 10.425781 11.449219 L 8.300781 13.570312 L 1.941406 19.9375 C 1.351562 20.523438 1.351562 21.472656 1.941406 22.058594 C 2.527344 22.648438 3.476562 22.648438 4.0625 22.058594 L 5.125 21 L 7.5 21 L 7.5 18.625 L 8.125 18 L 10.5 18 L 10.5 15.769531 L 12.546875 13.570312 L 13.457031 12.660156 C 14.378906 13.207031 15.429688 13.496094 16.5 13.5 C 19.8125 13.5 22.5 10.8125 22.5 7.5 C 22.5 4.1875 19.8125 1.5 16.5 1.5 Z M 18 4.5 C 18.828125 4.5 19.5 5.171875 19.5 6 C 19.5 6.828125 18.828125 7.5 18 7.5 C 17.171875 7.5 16.5 6.828125 16.5 6 C 16.5 5.171875 17.171875 4.5 18 4.5 Z M 18 4.5 "/>
<use xlink:href="#surface5" mask="url(#mask0)"/>
</g>
</svg>
