
<svg xmlns="http://www.w3.org/2000/svg" xmlns:xlink="http://www.w3.org/1999/xlink" width="24px" height="24px" viewBox="0 0 24 24" version="1.1">
<g id="surface1">
<path style=" stroke:none;fill-rule:nonzero;fill:rgb(87.450981%,87.450981%,87.450981%);fill-opacity:1;" d="M 21.929688 1.503906 C 21.757812 1.484375 21.484375 1.527344 20.976562 1.65625 C 19.96875 1.910156 19.75 1.992188 19.761719 2.210938 C 19.769531 2.335938 19.835938 2.445312 20.015625 2.644531 L 19.273438 3.382812 L 19.070312 3.183594 C 19.015625 3.128906 18.945312 3.101562 18.871094 3.101562 C 18.800781 3.101562 18.730469 3.128906 18.671875 3.183594 L 18.382812 3.46875 L 20.550781 5.597656 L 20.820312 5.328125 C 20.933594 5.21875 20.933594 5.042969 20.820312 4.929688 L 20.625 4.734375 L 21.367188 3.992188 C 21.558594 4.164062 21.664062 4.226562 21.792969 4.238281 C 22.003906 4.265625 22.054688 4.011719 22.328125 3.007812 C 22.59375 2.015625 22.527344 1.945312 22.292969 1.710938 C 22.183594 1.601562 22.105469 1.523438 21.929688 1.503906 Z M 17.914062 3.9375 L 11.742188 10.109375 L 13.890625 12.257812 L 20.082031 6.066406 Z M 9.890625 10.503906 C 9.816406 10.503906 9.742188 10.53125 9.683594 10.589844 L 3.082031 17.1875 C 2.964844 17.300781 2.96875 17.484375 3.082031 17.601562 L 6.394531 20.910156 C 6.507812 21.027344 6.695312 21.023438 6.8125 20.910156 L 13.410156 14.316406 C 13.523438 14.199219 13.523438 14.011719 13.410156 13.894531 L 10.097656 10.589844 C 10.039062 10.53125 9.964844 10.503906 9.890625 10.503906 Z M 2.316406 18.953125 L 1.710938 19.550781 C 1.429688 19.835938 1.429688 20.289062 1.710938 20.570312 L 3.429688 22.289062 C 3.714844 22.570312 4.167969 22.570312 4.449219 22.289062 L 5.050781 21.6875 Z M 2.316406 18.953125 "/>
<path style=" stroke:none;fill-rule:nonzero;fill:rgb(87.450981%,87.450981%,87.450981%);fill-opacity:1;" d="M 16.5 15 L 22.5 15 C 23.328125 15 24 15.671875 24 16.5 L 24 22.5 C 24 23.328125 23.328125 24 22.5 24 L 16.5 24 C 15.671875 24 15 23.328125 15 22.5 L 15 16.5 C 15 15.671875 15.671875 15 16.5 15 Z M 16.5 15 "/>
</g>
</svg>
