
<svg xmlns="http://www.w3.org/2000/svg" xmlns:xlink="http://www.w3.org/1999/xlink" width="24px" height="24px" viewBox="0 0 24 24" version="1.1">
<g id="surface1">
<path style=" stroke:none;fill-rule:evenodd;fill:rgb(87.450981%,87.450981%,87.450981%);fill-opacity:1;" d="M 7.777344 20.535156 L 7.777344 24 L 16.222656 24 L 16.222656 20.535156 Z M 3 0 C 0 0 0 3 0 3 L 0 16.5 C 0 16.5 0 19.5 3 19.5 L 21 19.5 C 21 19.5 24 19.5 24 16.5 L 24 3 C 24 3 24 0 21 0 Z M 1.152344 1.613281 L 1.152344 17.886719 L 22.847656 17.886719 L 22.847656 1.613281 Z M 13.5 13.5 C 12.671875 13.5 12 14.171875 12 15 C 12 15.828125 12.671875 16.5 13.5 16.5 C 14.328125 16.5 15 15.828125 15 15 C 15 14.171875 14.328125 13.5 13.5 13.5 Z M 18.699219 12.601562 C 18.304688 12.628906 18 12.957031 18 13.351562 C 18 13.765625 18.335938 14.101562 18.75 14.101562 C 19.164062 14.101562 19.5 13.765625 19.5 13.351562 C 19.5 12.9375 19.164062 12.601562 18.75 12.601562 Z M 5.25 9 C 4.007812 9 3 10.007812 3 11.25 C 3 12.492188 4.007812 13.5 5.25 13.5 C 6.492188 13.5 7.5 12.492188 7.5 11.25 C 7.5 10.007812 6.492188 9 5.25 9 Z M 18 4.5 C 16.34375 4.5 15 5.84375 15 7.5 C 15 9.15625 16.34375 10.5 18 10.5 C 19.65625 10.5 21 9.15625 21 7.5 C 21 5.84375 19.65625 4.5 18 4.5 Z M 10.5 4.5 C 9.671875 4.5 9 5.171875 9 6 C 9 6.828125 9.671875 7.5 10.5 7.5 C 11.328125 7.5 12 6.828125 12 6 C 12 5.171875 11.328125 4.5 10.5 4.5 Z M 10.5 4.5 "/>
</g>
</svg>
