
<svg xmlns="http://www.w3.org/2000/svg" xmlns:xlink="http://www.w3.org/1999/xlink" width="24px" height="24px" viewBox="0 0 24 24" version="1.1">
<g id="surface1">
<path style=" stroke:none;fill-rule:nonzero;fill:rgb(87.450981%,87.450981%,87.450981%);fill-opacity:1;" d="M 22.339844 12.292969 C 22.339844 15.226562 21.277344 17.710938 19.574219 19.828125 C 19.402344 20.046875 19.417969 20.359375 19.625 20.546875 L 20.023438 20.855469 C 20.246094 21.054688 20.597656 21.035156 20.789062 20.804688 C 22.847656 18.289062 24 15.785156 24 12.289062 C 24 8.796875 22.855469 6.316406 20.800781 3.804688 C 20.613281 3.574219 20.261719 3.550781 20.039062 3.75 L 19.648438 4.046875 C 19.441406 4.234375 19.421875 4.546875 19.597656 4.765625 C 21.292969 6.882812 22.339844 9.363281 22.339844 12.292969 Z M 1.660156 12.292969 C 1.660156 15.226562 2.722656 17.710938 4.425781 19.828125 C 4.597656 20.046875 4.582031 20.359375 4.375 20.546875 L 3.976562 20.855469 C 3.753906 21.054688 3.402344 21.035156 3.210938 20.804688 C 1.152344 18.289062 0 15.785156 0 12.289062 C 0 8.796875 1.144531 6.316406 3.199219 3.804688 C 3.386719 3.574219 3.738281 3.550781 3.960938 3.75 L 4.351562 4.046875 C 4.558594 4.234375 4.578125 4.546875 4.402344 4.765625 C 2.707031 6.882812 1.660156 9.363281 1.660156 12.292969 Z M 18.917969 12.292969 C 18.917969 10.15625 18.175781 8.199219 16.941406 6.65625 C 16.8125 6.496094 16.824219 6.269531 16.976562 6.132812 L 17.632812 5.546875 C 17.796875 5.398438 18.050781 5.414062 18.191406 5.585938 C 19.6875 7.417969 20.710938 9.75 20.710938 12.292969 C 20.710938 14.839844 19.679688 17.175781 18.183594 19.011719 C 18.046875 19.179688 17.785156 19.191406 17.625 19.046875 L 16.972656 18.460938 C 16.816406 18.324219 16.804688 18.097656 16.933594 17.9375 C 18.175781 16.390625 18.917969 14.429688 18.917969 12.292969 Z M 5.082031 12.292969 C 5.082031 14.429688 5.824219 16.390625 7.066406 17.9375 C 7.195312 18.097656 7.183594 18.324219 7.027344 18.460938 L 6.375 19.046875 C 6.214844 19.191406 5.953125 19.179688 5.816406 19.011719 C 4.320312 17.175781 3.289062 14.839844 3.289062 12.292969 C 3.289062 9.75 4.3125 7.417969 5.808594 5.585938 C 5.949219 5.414062 6.203125 5.398438 6.367188 5.546875 L 7.023438 6.132812 C 7.175781 6.269531 7.1875 6.496094 7.058594 6.65625 C 5.824219 8.199219 5.082031 10.15625 5.082031 12.292969 Z M 15.390625 12.292969 C 15.390625 11.0625 14.984375 9.929688 14.300781 9.015625 C 14.179688 8.855469 14.191406 8.632812 14.34375 8.496094 L 15.070312 7.84375 C 15.234375 7.695312 15.496094 7.714844 15.628906 7.886719 C 16.574219 9.105469 17.179688 10.632812 17.179688 12.292969 C 17.179688 13.957031 16.574219 15.484375 15.625 16.703125 C 15.492188 16.878906 15.230469 16.894531 15.066406 16.746094 L 14.339844 16.09375 C 14.191406 15.957031 14.175781 15.734375 14.296875 15.574219 C 14.980469 14.660156 15.390625 13.527344 15.390625 12.292969 Z M 8.609375 12.292969 C 8.609375 13.527344 9.019531 14.660156 9.703125 15.574219 C 9.824219 15.734375 9.808594 15.957031 9.660156 16.09375 L 8.933594 16.746094 C 8.769531 16.894531 8.507812 16.878906 8.375 16.703125 C 7.425781 15.484375 6.820312 13.957031 6.820312 12.292969 C 6.820312 10.632812 7.425781 9.105469 8.371094 7.886719 C 8.503906 7.714844 8.765625 7.695312 8.929688 7.84375 L 9.65625 8.496094 C 9.808594 8.632812 9.820312 8.855469 9.699219 9.015625 C 9.015625 9.929688 8.609375 11.0625 8.609375 12.292969 Z M 10.953125 10.253906 C 11.082031 10.058594 12.917969 10.058594 13.046875 10.253906 C 13.433594 10.832031 13.6875 11.523438 13.695312 12.261719 C 13.695312 12.28125 13.695312 12.300781 13.695312 12.320312 C 13.6875 13.0625 13.433594 13.753906 13.046875 14.332031 C 12.914062 14.527344 11.085938 14.527344 10.953125 14.332031 C 10.566406 13.753906 10.3125 13.0625 10.304688 12.320312 C 10.304688 12.300781 10.304688 12.28125 10.304688 12.261719 C 10.3125 11.523438 10.566406 10.832031 10.953125 10.253906 Z M 10.953125 10.253906 "/>
</g>
</svg>
