
<svg xmlns="http://www.w3.org/2000/svg" xmlns:xlink="http://www.w3.org/1999/xlink" width="24px" height="24px" viewBox="0 0 24 24" version="1.1">
<g id="surface1">
<path style=" stroke:none;fill-rule:nonzero;fill:rgb(87.450981%,87.450981%,87.450981%);fill-opacity:1;" d="M 3 4.5 L 9 4.5 C 10.003906 4.515625 10.753906 5.761719 10.320312 6.644531 L 8.25 10.828125 C 8.773438 10.996094 9.375 11.113281 9.703125 11.476562 C 10.199219 12.03125 10.5 12.691406 10.5 13.5 L 10.5 16.5 C 10.5 18.164062 9.136719 19.5 7.5 19.5 L 3 19.5 L 3 16.5 L 7.5 16.5 L 7.5 13.5 L 6 13.5 C 4.996094 13.46875 4.246094 12.238281 4.695312 11.339844 L 6.570312 7.5 L 3 7.5 Z M 18 4.5 C 21 4.5 21 7.5 21 7.5 L 21 9 L 18 9 L 18 7.5 L 15 7.5 L 15 16.5 L 18 16.5 L 18 13.5 L 16.5 13.5 L 16.5 10.546875 L 19.5 10.5 L 21 10.546875 L 21 16.453125 C 21 16.453125 21 19.5 18 19.5 L 15 19.5 C 15 19.5 12 19.5 12 16.5 L 12 7.5 C 12 4.5 15 4.5 15 4.5 Z M 18 4.5 "/>
</g>
</svg>
