
<svg xmlns="http://www.w3.org/2000/svg" xmlns:xlink="http://www.w3.org/1999/xlink" width="24px" height="24px" viewBox="0 0 24 24" version="1.1">
<g id="surface1">
<path style=" stroke:none;fill-rule:nonzero;fill:rgb(87.450981%,87.450981%,87.450981%);fill-opacity:1;" d="M 12 1.5 C 6.199219 1.5 1.5 6.199219 1.5 12 C 1.5 17.800781 6.199219 22.5 12 22.5 C 17.800781 22.5 22.5 17.800781 22.5 12 C 22.5 6.199219 17.800781 1.5 12 1.5 Z M 12 4.125 C 16.023438 4.128906 19.394531 7.164062 19.824219 11.164062 C 19.605469 10.816406 19.351562 10.484375 19.042969 10.179688 C 18.179688 9.328125 17.132812 8.816406 15.890625 8.652344 C 15.703125 8.625 15.546875 8.582031 15.296875 8.675781 C 15.042969 8.765625 14.917969 8.96875 14.84375 9.097656 C 14.738281 9.277344 14.121094 9.90625 13.777344 10.125 C 12.800781 10.75 11.132812 10.75 10.152344 10.125 C 8.996094 9.386719 8.335938 7.941406 8.542969 6.664062 C 8.660156 5.941406 8.96875 5.316406 9.476562 4.777344 C 9.582031 4.667969 9.660156 4.578125 9.726562 4.503906 C 9.742188 4.488281 9.753906 4.46875 9.765625 4.453125 C 10.492188 4.238281 11.242188 4.125 12 4.125 Z M 7.097656 5.835938 C 6.785156 6.519531 6.578125 7.394531 6.578125 8.117188 C 6.582031 8.789062 6.746094 9.585938 7.003906 10.222656 C 7.070312 10.394531 7.152344 10.617188 7.394531 10.769531 C 7.636719 10.921875 7.8125 10.914062 8.058594 10.941406 C 8.269531 10.964844 8.710938 11.0625 8.902344 11.128906 C 10.859375 11.800781 11.777344 14.042969 10.859375 15.917969 C 10.246094 17.175781 8.761719 18.007812 7.460938 17.859375 C 7.289062 17.839844 7.167969 17.832031 7.050781 17.832031 C 6.996094 17.832031 6.953125 17.820312 6.832031 17.859375 C 6.816406 17.863281 6.792969 17.875 6.777344 17.882812 C 5.09375 16.390625 4.128906 14.25 4.125 12 C 4.125 9.601562 5.21875 7.332031 7.097656 5.835938 Z M 7.695312 7.839844 L 7.699219 7.84375 C 7.835938 8.671875 8.167969 9.375 8.726562 10.019531 C 8.535156 9.976562 8.347656 9.914062 8.175781 9.898438 C 7.984375 9.875 7.976562 9.867188 7.992188 9.882812 C 7.984375 9.867188 7.988281 9.875 7.972656 9.835938 C 7.78125 9.355469 7.632812 8.605469 7.632812 8.113281 C 7.632812 8.039062 7.6875 7.925781 7.695312 7.839844 Z M 15.703125 9.671875 C 15.71875 9.675781 15.667969 9.683594 15.746094 9.695312 C 16.175781 9.75 16.433594 10.050781 16.789062 10.195312 C 16.34375 10.128906 15.945312 9.871094 15.492188 9.949219 C 15.402344 9.964844 15.375 10.070312 15.285156 10.089844 C 15.421875 9.941406 15.609375 9.824219 15.703125 9.671875 Z M 16.25 10.941406 C 17.613281 10.972656 18.957031 11.886719 19.449219 13.195312 C 19.488281 13.300781 19.515625 13.378906 19.539062 13.441406 C 19.550781 13.472656 19.566406 13.496094 19.582031 13.527344 C 19.589844 13.546875 19.597656 13.5625 19.609375 13.589844 C 19.617188 13.601562 19.628906 13.613281 19.640625 13.632812 C 19.648438 13.648438 19.667969 13.667969 19.6875 13.6875 C 18.894531 17.300781 15.699219 19.871094 12 19.875 C 10.855469 19.871094 9.726562 19.617188 8.691406 19.132812 C 9.167969 19.132812 9.644531 19.101562 10.035156 18.980469 L 10.078125 18.96875 L 10.105469 18.953125 L 10.113281 18.945312 C 11.175781 18.601562 12.292969 17.820312 12.910156 16.953125 L 13.242188 16.492188 L 12.933594 15.582031 C 12.226562 13.441406 13.472656 11.351562 15.667969 10.984375 C 15.859375 10.949219 16.054688 10.9375 16.25 10.941406 Z M 13.636719 11.210938 C 12.878906 11.828125 12.273438 12.59375 11.964844 13.460938 C 11.671875 12.625 11.121094 11.851562 10.40625 11.234375 C 11.464844 11.632812 12.59375 11.632812 13.636719 11.210938 Z M 11.960938 15.96875 L 12.074219 16.320312 L 12.054688 16.347656 C 11.933594 16.515625 11.605469 16.621094 11.402344 16.804688 C 11.511719 16.640625 11.714844 16.5625 11.804688 16.382812 C 11.871094 16.246094 11.910156 16.105469 11.960938 15.96875 Z M 11.960938 15.96875 "/>
</g>
</svg>
