
<svg xmlns="http://www.w3.org/2000/svg" xmlns:xlink="http://www.w3.org/1999/xlink" width="24px" height="24px" viewBox="0 0 24 24" version="1.1">
<defs>
<filter id="alpha" filterUnits="objectBoundingBox" x="0%" y="0%" width="100%" height="100%">
  <feColorMatrix type="matrix" in="SourceGraphic" values="0 0 0 0 1 0 0 0 0 1 0 0 0 0 1 0 0 0 1 0"/>
</filter>
<mask id="mask0">
  <g filter="url(#alpha)">
<rect x="0" y="0" width="24" height="24" style="fill:rgb(0%,0%,0%);fill-opacity:0.3;stroke:none;"/>
  </g>
</mask>
<clipPath id="clip1">
  <rect x="0" y="0" width="24" height="24"/>
</clipPath>
<g id="surface5" clip-path="url(#clip1)">
<path style=" stroke:none;fill-rule:evenodd;fill:rgb(87.450981%,87.450981%,87.450981%);fill-opacity:1;" d="M 11.367188 15 L 8.828125 20.996094 L 15.167969 20.996094 L 12.636719 15 Z M 11.367188 15 "/>
</g>
</defs>
<g id="surface1">
<path style=" stroke:none;fill-rule:evenodd;fill:rgb(87.450981%,87.450981%,87.450981%);fill-opacity:1;" d="M 12 0 C 11.023438 1.902344 9.800781 3.957031 7.777344 6.285156 C 6.886719 7.308594 6.007812 8.207031 5.152344 9 L 18.796875 9 C 17.988281 8.257812 17.15625 7.414062 16.308594 6.449219 C 14.21875 4.074219 12.941406 1.914062 12 0 Z M 14.328125 1.164062 C 15.132812 2.515625 16.125 3.972656 17.433594 5.457031 C 18.703125 6.90625 19.9375 8.058594 21.085938 9 L 21.757812 9 L 19.59375 2.996094 C 18 3.03125 16.175781 2.300781 14.992188 1.621094 C 14.75 1.476562 14.542969 1.320312 14.328125 1.164062 Z M 9.601562 1.277344 C 8.113281 2.195312 6.0625 3.027344 4.414062 3.003906 C 4.414062 3.003906 3.042969 6.832031 2.261719 9 L 2.878906 9 C 4.070312 8.007812 5.339844 6.800781 6.644531 5.300781 C 7.851562 3.914062 8.808594 2.554688 9.601562 1.277344 Z M 1.957031 10.5 C 1.878906 10.5 1.804688 10.523438 1.738281 10.570312 C 1.722656 10.582031 1.710938 10.589844 1.699219 10.601562 C 1.6875 10.613281 1.675781 10.625 1.664062 10.632812 C 1.59375 10.710938 1.542969 10.8125 1.519531 10.925781 C 1.511719 10.960938 1.503906 10.996094 1.503906 11.035156 L 1.503906 11.039062 C 1.5 11.058594 1.5 11.078125 1.5 11.09375 L 1.5 11.097656 C 1.5 11.136719 1.503906 11.171875 1.511719 11.210938 L 1.515625 11.21875 L 1.78125 12.597656 L 1.867188 13.0625 C 1.878906 13.117188 1.898438 13.167969 1.921875 13.21875 C 1.945312 13.269531 1.976562 13.316406 2.007812 13.355469 C 2.03125 13.378906 2.058594 13.402344 2.082031 13.421875 C 2.09375 13.429688 2.109375 13.441406 2.121094 13.449219 C 2.179688 13.480469 2.246094 13.5 2.3125 13.5 L 2.695312 13.5 L 8.464844 13.484375 C 8.46875 13.484375 8.476562 13.484375 8.484375 13.484375 L 9.171875 13.484375 C 9.1875 13.484375 9.203125 13.484375 9.21875 13.484375 L 14.761719 13.484375 C 14.785156 13.484375 14.804688 13.484375 14.828125 13.484375 L 15.515625 13.484375 C 15.523438 13.484375 15.527344 13.484375 15.535156 13.484375 L 21.304688 13.5 L 21.6875 13.5 C 21.796875 13.5 21.898438 13.453125 21.980469 13.367188 L 21.980469 13.363281 C 22.054688 13.285156 22.109375 13.179688 22.132812 13.058594 L 22.222656 12.597656 L 22.488281 11.21875 C 22.492188 11.199219 22.496094 11.179688 22.496094 11.160156 C 22.5 11.121094 22.503906 11.082031 22.5 11.042969 C 22.496094 10.929688 22.460938 10.816406 22.40625 10.726562 C 22.386719 10.695312 22.367188 10.664062 22.34375 10.640625 C 22.332031 10.628906 22.320312 10.617188 22.308594 10.605469 C 22.296875 10.597656 22.289062 10.589844 22.277344 10.582031 L 22.269531 10.574219 C 22.257812 10.566406 22.242188 10.558594 22.230469 10.550781 L 22.226562 10.550781 C 22.214844 10.542969 22.199219 10.535156 22.1875 10.527344 L 22.183594 10.527344 C 22.171875 10.523438 22.15625 10.519531 22.140625 10.515625 C 22.109375 10.503906 22.082031 10.5 22.050781 10.5 Z M 9.042969 14.976562 L 9.171875 14.980469 L 8.527344 14.980469 C 8.492188 14.984375 8.457031 14.984375 8.421875 14.980469 L 3.277344 14.996094 C 3.636719 17.710938 3.964844 22.496094 5.808594 22.5 L 8.195312 22.5 L 6.019531 18.738281 C 5.984375 18.679688 5.996094 18.597656 6.046875 18.554688 L 9.09375 15.964844 C 9.144531 15.921875 9.703125 15.449219 10.253906 14.980469 L 9.238281 14.980469 L 9.371094 14.976562 C 9.257812 14.984375 9.152344 14.984375 9.042969 14.976562 Z M 14.632812 14.976562 L 14.761719 14.980469 L 13.746094 14.980469 C 14.296875 15.449219 14.855469 15.921875 14.90625 15.964844 L 17.953125 18.554688 C 18.003906 18.597656 18.015625 18.679688 17.980469 18.738281 L 15.804688 22.5 L 18.179688 22.5 C 20.011719 22.5 20.359375 17.714844 20.726562 14.996094 L 15.582031 14.980469 C 15.558594 14.984375 15.539062 14.984375 15.519531 14.980469 L 14.828125 14.980469 L 14.957031 14.976562 C 14.847656 14.984375 14.742188 14.984375 14.628906 14.976562 Z M 14.632812 14.976562 "/>
<use xlink:href="#surface5" mask="url(#mask0)"/>
</g>
</svg>
