
<svg xmlns="http://www.w3.org/2000/svg" xmlns:xlink="http://www.w3.org/1999/xlink" width="24px" height="24px" viewBox="0 0 24 24" version="1.1">
<g id="surface1">
<path style=" stroke:none;fill-rule:nonzero;fill:rgb(87.450981%,87.450981%,87.450981%);fill-opacity:1;" d="M 0 1.5 L 0 22.5 L 3 22.5 L 3 4.539062 C 8.332031 4.539062 7.5 14.625 7.5 22.5 L 10.519531 22.5 C 10.519531 21.007812 10.523438 19.261719 10.527344 18 L 15 18 L 15 22.5 L 18 22.5 L 18 18 L 22.5 18 L 22.5 15 L 18 15 L 18 10.5 L 15 10.5 L 15 15 L 10.507812 15 C 10.46875 10.683594 10.265625 7.40625 9.277344 5.1875 C 8.527344 3.511719 6.902344 2.273438 5.253906 1.863281 C 4.367188 1.644531 3.460938 1.558594 2.5 1.527344 L 2.5 1.5 Z M 0 1.5 "/>
<path style=" stroke:none;fill-rule:nonzero;fill:rgb(25.882354%,52.156866%,95.686275%);fill-opacity:1;" d="M 18 3.75 C 18 4.992188 16.992188 6 15.75 6 C 14.507812 6 13.5 4.992188 13.5 3.75 C 13.5 2.507812 14.507812 1.5 15.75 1.5 C 16.992188 1.5 18 2.507812 18 3.75 Z M 18 3.75 "/>
</g>
</svg>
