
<svg xmlns="http://www.w3.org/2000/svg" xmlns:xlink="http://www.w3.org/1999/xlink" width="24px" height="24px" viewBox="0 0 24 24" version="1.1">
<g id="surface1">
<path style=" stroke:none;fill-rule:nonzero;fill:rgb(87.450981%,87.450981%,87.450981%);fill-opacity:1;" d="M 12 3 C 8.988281 3 6.269531 4.800781 5.09375 7.574219 C 2.167969 8.019531 0.00390625 10.539062 0 13.5 C 0.00390625 16.699219 2.515625 19.332031 5.714844 19.484375 L 5.714844 19.5 L 20.285156 19.5 C 22.335938 19.5 24 17.835938 24 15.785156 C 24 14.496094 23.328125 13.300781 22.234375 12.628906 C 22.40625 12.1875 22.5 11.722656 22.5 11.25 C 22.496094 9.226562 20.890625 7.570312 18.867188 7.503906 C 17.675781 4.773438 14.980469 3.003906 12 3 Z M 9 7.5 L 15 7.5 L 15 12 L 10.5 12 L 10.5 16.5 L 9 16.5 Z M 10.5 9 L 10.5 10.5 L 13.5 10.5 L 13.5 9 Z M 10.5 9 "/>
</g>
</svg>
