
<svg xmlns="http://www.w3.org/2000/svg" xmlns:xlink="http://www.w3.org/1999/xlink" width="24px" height="24px" viewBox="0 0 24 24" version="1.1">
<defs>
<filter id="alpha" filterUnits="objectBoundingBox" x="0%" y="0%" width="100%" height="100%">
  <feColorMatrix type="matrix" in="SourceGraphic" values="0 0 0 0 1 0 0 0 0 1 0 0 0 0 1 0 0 0 1 0"/>
</filter>
<mask id="mask0">
  <g filter="url(#alpha)">
<rect x="0" y="0" width="24" height="24" style="fill:rgb(0%,0%,0%);fill-opacity:0.3;stroke:none;"/>
  </g>
</mask>
<clipPath id="clip1">
  <rect x="0" y="0" width="24" height="24"/>
</clipPath>
<g id="surface5" clip-path="url(#clip1)">
<path style=" stroke:none;fill-rule:nonzero;fill:rgb(87.450981%,87.450981%,87.450981%);fill-opacity:1;" d="M 12 1.5 C 6.238281 1.5 1.5 6.238281 1.5 12 C 1.5 17.761719 6.238281 22.5 12 22.5 C 17.761719 22.5 22.5 17.761719 22.5 12 C 22.5 6.238281 17.761719 1.5 12 1.5 Z M 12 3 C 16.9375 3 21 7.0625 21 12 C 21 16.9375 16.9375 21 12 21 C 7.0625 21 3 16.9375 3 12 C 3 7.0625 7.0625 3 12 3 Z M 12 3 "/>
</g>
</defs>
<g id="surface1">
<use xlink:href="#surface5" mask="url(#mask0)"/>
<path style=" stroke:none;fill-rule:nonzero;fill:rgb(87.450981%,87.450981%,87.450981%);fill-opacity:1;" d="M 8.964844 7.835938 L 16.5 6.285156 L 16.496094 8.503906 L 16.496094 14.050781 L 16.488281 14.050781 C 16.488281 14.695312 15.773438 15.335938 14.777344 15.542969 C 13.6875 15.765625 12.679688 15.378906 12.527344 14.675781 C 12.371094 13.976562 13.128906 13.226562 14.21875 13.003906 C 14.726562 12.898438 15.214844 12.929688 15.609375 13.058594 L 15.609375 8.6875 L 9.84375 9.886719 L 9.84375 15.382812 L 9.835938 15.382812 C 9.835938 16.027344 9.121094 16.667969 8.125 16.871094 C 7.035156 17.09375 6.027344 16.707031 5.875 16.007812 C 5.71875 15.308594 6.476562 14.558594 7.566406 14.335938 C 8.074219 14.230469 8.5625 14.257812 8.953125 14.390625 L 8.953125 7.835938 Z M 8.964844 7.835938 "/>
</g>
</svg>
