
<svg xmlns="http://www.w3.org/2000/svg" xmlns:xlink="http://www.w3.org/1999/xlink" width="24px" height="24px" viewBox="0 0 24 24" version="1.1">
<g id="surface1">
<path style=" stroke:none;fill-rule:nonzero;fill:rgb(87.450981%,87.450981%,87.450981%);fill-opacity:1;" d="M 12 0 C 7.738281 0 4.289062 3.464844 4.289062 7.738281 C 4.289062 10.261719 5.476562 12.480469 7.351562 13.890625 C 8.203125 14.535156 8.925781 15.375 8.925781 16.53125 L 9 18 L 15 18 L 15.089844 16.53125 C 15.148438 15.375 15.796875 14.535156 16.648438 13.890625 C 18.523438 12.480469 19.710938 10.261719 19.710938 7.738281 C 19.710938 3.464844 16.261719 0 12 0 Z M 12 3.089844 C 14.550781 3.089844 16.636719 5.175781 16.636719 7.738281 C 16.636719 9.195312 15.960938 10.546875 14.789062 11.414062 C 13.050781 12.734375 12.390625 14.203125 12.148438 15.433594 L 11.851562 15.433594 C 11.609375 14.203125 10.949219 12.734375 9.210938 11.414062 C 8.039062 10.546875 7.363281 9.195312 7.363281 7.738281 C 7.363281 5.175781 9.449219 3.089844 12 3.089844 Z M 9 19.5 L 9 21 L 15 21 L 15 19.5 Z M 10.5 22.5 L 10.5 24 L 13.5 24 L 13.5 22.5 Z M 10.5 22.5 "/>
</g>
</svg>
