
<svg xmlns="http://www.w3.org/2000/svg" xmlns:xlink="http://www.w3.org/1999/xlink" width="24px" height="24px" viewBox="0 0 24 24" version="1.1">
<defs>
<filter id="alpha" filterUnits="objectBoundingBox" x="0%" y="0%" width="100%" height="100%">
  <feColorMatrix type="matrix" in="SourceGraphic" values="0 0 0 0 1 0 0 0 0 1 0 0 0 0 1 0 0 0 1 0"/>
</filter>
<mask id="mask0">
  <g filter="url(#alpha)">
<rect x="0" y="0" width="24" height="24" style="fill:rgb(0%,0%,0%);fill-opacity:0.3;stroke:none;"/>
  </g>
</mask>
<clipPath id="clip1">
  <rect x="0" y="0" width="24" height="24"/>
</clipPath>
<g id="surface5" clip-path="url(#clip1)">
<path style=" stroke:none;fill-rule:evenodd;fill:rgb(87.450981%,87.450981%,87.450981%);fill-opacity:1;" d="M 7.5 1.5 L 7.5 7.5 L 1.5 7.5 L 1.5 16.5 L 7.5 16.5 L 7.5 22.5 L 16.5 22.5 L 16.5 16.5 L 22.5 16.5 L 22.5 7.5 L 16.5 7.5 L 16.5 1.5 Z M 12 3 C 12.832031 3 13.5 3.667969 13.5 4.5 L 13.5 9.402344 C 13.953125 9.667969 14.332031 10.046875 14.59375 10.5 L 19.5 10.5 C 20.332031 10.5 21 11.167969 21 12 C 21 12.832031 20.332031 13.5 19.5 13.5 L 14.59375 13.5 C 14.058594 14.425781 13.070312 15 12 15 C 10.34375 15 9 13.65625 9 12 C 9 10.929688 9.574219 9.941406 10.5 9.40625 L 10.5 4.5 C 10.5 3.667969 11.167969 3 12 3 Z M 12 3 "/>
</g>
</defs>
<g id="surface1">
<use xlink:href="#surface5" mask="url(#mask0)"/>
</g>
</svg>
