
<svg xmlns="http://www.w3.org/2000/svg" xmlns:xlink="http://www.w3.org/1999/xlink" width="24px" height="24px" viewBox="0 0 24 24" version="1.1">
<defs>
<filter id="alpha" filterUnits="objectBoundingBox" x="0%" y="0%" width="100%" height="100%">
  <feColorMatrix type="matrix" in="SourceGraphic" values="0 0 0 0 1 0 0 0 0 1 0 0 0 0 1 0 0 0 1 0"/>
</filter>
<mask id="mask0">
  <g filter="url(#alpha)">
<rect x="0" y="0" width="24" height="24" style="fill:rgb(0%,0%,0%);fill-opacity:0.3;stroke:none;"/>
  </g>
</mask>
<clipPath id="clip1">
  <rect x="0" y="0" width="24" height="24"/>
</clipPath>
<g id="surface5" clip-path="url(#clip1)">
<path style=" stroke:none;fill-rule:nonzero;fill:rgb(87.450981%,87.450981%,87.450981%);fill-opacity:1;" d="M 6 22.5 C 4.753906 22.5 3.75 21.496094 3.75 20.25 L 3.75 3.75 C 3.75 2.503906 4.753906 1.5 6 1.5 L 18 1.5 C 19.246094 1.5 20.25 2.503906 20.25 3.75 L 20.25 20.25 C 20.25 21.496094 19.246094 22.5 18 22.5 Z M 12 19.5 C 14.898438 19.5 17.25 17.148438 17.25 14.25 C 17.25 11.351562 14.898438 9 12 9 C 9.101562 9 6.75 11.351562 6.75 14.25 C 6.75 17.148438 9.101562 19.5 12 19.5 Z M 8.25 7.5 C 9.078125 7.5 9.75 6.828125 9.75 6 C 9.75 5.171875 9.078125 4.5 8.25 4.5 C 7.421875 4.5 6.75 5.171875 6.75 6 C 6.75 6.828125 7.421875 7.5 8.25 7.5 Z M 15.75 7.5 C 16.578125 7.5 17.25 6.828125 17.25 6 C 17.25 5.171875 16.578125 4.5 15.75 4.5 C 14.921875 4.5 14.25 5.171875 14.25 6 C 14.25 6.828125 14.921875 7.5 15.75 7.5 Z M 15.75 7.5 "/>
</g>
</defs>
<g id="surface1">
<path style=" stroke:none;fill-rule:nonzero;fill:rgb(87.450981%,87.450981%,87.450981%);fill-opacity:1;" d="M 10.519531 10.355469 C 10.023438 10.34375 9.609375 10.828125 9.613281 11.429688 L 9.613281 17.074219 C 9.613281 17.894531 10.351562 18.410156 10.941406 18 L 15.007812 15.179688 C 15.601562 14.765625 15.601562 13.738281 15.007812 13.324219 L 12.976562 11.910156 L 10.941406 10.5 C 10.8125 10.410156 10.667969 10.359375 10.519531 10.355469 Z M 10.519531 10.355469 "/>
<use xlink:href="#surface5" mask="url(#mask0)"/>
</g>
</svg>
