
<svg xmlns="http://www.w3.org/2000/svg" xmlns:xlink="http://www.w3.org/1999/xlink" width="24px" height="24px" viewBox="0 0 24 24" version="1.1">
<g id="surface1">
<path style=" stroke:none;fill-rule:nonzero;fill:rgb(87.450981%,87.450981%,87.450981%);fill-opacity:1;" d="M 1.5 12 C 1.5 17.800781 6.199219 22.5 12 22.5 C 17.800781 22.5 22.5 17.800781 22.5 12 C 22.5 6.199219 17.800781 1.5 12 1.5 C 6.199219 1.5 1.5 6.199219 1.5 12 Z M 4.5 12 C 4.5 8.40625 7.054688 5.316406 10.585938 4.636719 C 10.859375 3.667969 11.742188 3 12.75 3 C 13.945312 3 14.933594 3.9375 14.992188 5.132812 C 16.730469 5.886719 18.113281 7.273438 18.871094 9.007812 C 20.066406 9.070312 21 10.054688 21 11.25 C 21 12.257812 20.328125 13.140625 19.359375 13.414062 C 18.679688 16.945312 15.59375 19.496094 12 19.5 C 11.957031 19.5 11.914062 19.5 11.871094 19.496094 C 11.554688 20.398438 10.703125 21 9.75 21 C 8.507812 21 7.5 19.992188 7.5 18.75 C 7.5 18.519531 7.539062 18.289062 7.609375 18.066406 C 5.660156 16.660156 4.503906 14.402344 4.5 12 Z M 6 12 C 6.003906 13.933594 6.9375 15.746094 8.511719 16.871094 C 8.878906 16.628906 9.308594 16.5 9.75 16.5 C 9.78125 16.5 9.8125 16.503906 9.839844 16.503906 L 11.269531 12.941406 C 10.78125 12.515625 10.5 11.898438 10.5 11.25 C 10.5 10.296875 11.101562 9.449219 12 9.132812 L 12 7.367188 C 11.414062 7.160156 10.941406 6.71875 10.691406 6.152344 C 7.953125 6.761719 6.003906 9.191406 6 12 Z M 11.230469 17.0625 C 11.519531 17.3125 11.738281 17.636719 11.867188 17.992188 C 11.910156 17.996094 11.953125 18 12 18 C 14.808594 17.996094 17.238281 16.050781 17.851562 13.308594 C 17.28125 13.058594 16.839844 12.585938 16.632812 12 L 14.867188 12 C 14.550781 12.898438 13.703125 13.5 12.75 13.5 C 12.71875 13.5 12.6875 13.496094 12.660156 13.492188 Z M 13.5 9.132812 C 14.140625 9.359375 14.640625 9.859375 14.867188 10.5 L 16.632812 10.5 C 16.78125 10.078125 17.058594 9.707031 17.417969 9.441406 C 16.828125 8.1875 15.816406 7.175781 14.5625 6.582031 C 14.292969 6.945312 13.925781 7.21875 13.5 7.367188 Z M 13.5 9.132812 "/>
</g>
</svg>
