
<svg xmlns="http://www.w3.org/2000/svg" xmlns:xlink="http://www.w3.org/1999/xlink" width="24px" height="24px" viewBox="0 0 24 24" version="1.1">
<g id="surface1">
<path style=" stroke:none;fill-rule:nonzero;fill:rgb(87.450981%,87.450981%,87.450981%);fill-opacity:1;" d="M 21.09375 17.25 C 23.992188 12.226562 22.273438 5.804688 17.25 2.90625 C 12.226562 0.0078125 5.804688 1.726562 2.90625 6.75 C 0.0078125 11.773438 1.726562 18.195312 6.75 21.09375 C 11.773438 23.992188 18.195312 22.273438 21.09375 17.25 Z M 18.496094 15.75 C 16.695312 18.863281 12.941406 20.261719 9.542969 19.082031 C 8.824219 19.785156 7.722656 19.921875 6.851562 19.417969 C 5.816406 18.820312 5.429688 17.515625 5.972656 16.449219 C 4.847656 14.929688 4.339844 13.039062 4.550781 11.15625 C 3.550781 10.503906 3.234375 9.183594 3.832031 8.148438 C 4.335938 7.277344 5.359375 6.847656 6.335938 7.09375 C 8.6875 4.378906 12.636719 3.710938 15.75 5.503906 C 15.785156 5.527344 15.824219 5.550781 15.859375 5.570312 C 16.585938 4.949219 17.621094 4.855469 18.449219 5.332031 C 19.523438 5.953125 19.894531 7.328125 19.273438 8.40625 C 19.15625 8.605469 19.007812 8.785156 18.835938 8.941406 C 19.820312 11.132812 19.695312 13.667969 18.496094 15.75 Z M 17.195312 15 C 18.160156 13.324219 18.257812 11.285156 17.457031 9.523438 C 17.019531 9.550781 16.582031 9.449219 16.199219 9.226562 C 16.171875 9.210938 16.148438 9.195312 16.121094 9.175781 L 13.105469 11.550781 C 13.3125 12.164062 13.246094 12.839844 12.925781 13.398438 C 12.445312 14.222656 11.503906 14.65625 10.566406 14.484375 L 9.683594 16.011719 C 10.085938 16.484375 10.277344 17.101562 10.207031 17.71875 C 12.886719 18.558594 15.789062 17.429688 17.195312 15 Z M 15.195312 8 C 15.074219 7.636719 15.046875 7.25 15.113281 6.875 C 15.074219 6.851562 15.039062 6.828125 15 6.804688 C 12.566406 5.402344 9.488281 5.875 7.589844 7.941406 C 7.957031 8.441406 8.101562 9.074219 7.988281 9.683594 L 9.515625 10.566406 C 10.238281 9.945312 11.273438 9.851562 12.101562 10.324219 C 12.125 10.34375 12.152344 10.359375 12.175781 10.375 Z M 9.265625 13.734375 C 8.828125 13.21875 8.644531 12.53125 8.765625 11.863281 L 7.238281 10.984375 C 6.894531 11.273438 6.472656 11.457031 6.027344 11.503906 C 5.914062 12.890625 6.285156 14.269531 7.074219 15.410156 C 7.484375 15.230469 7.941406 15.179688 8.386719 15.261719 Z M 9.265625 13.734375 "/>
</g>
</svg>
