
<svg xmlns="http://www.w3.org/2000/svg" xmlns:xlink="http://www.w3.org/1999/xlink" width="24px" height="24px" viewBox="0 0 24 24" version="1.1">
<g id="surface1">
<path style=" stroke:none;fill-rule:nonzero;fill:rgb(87.450981%,87.450981%,87.450981%);fill-opacity:1;" d="M 6.75 1.5 C 3.851562 1.5 1.5 3.851562 1.5 6.75 C 1.503906 8.183594 2.089844 9.554688 3.128906 10.542969 C 3.046875 11.023438 3.003906 11.511719 3 12 C 3 16.96875 7.03125 21 12 21 C 12.488281 21 12.976562 20.957031 13.457031 20.878906 C 14.445312 21.914062 15.816406 22.5 17.25 22.5 C 20.148438 22.5 22.5 20.148438 22.5 17.25 C 22.496094 15.816406 21.910156 14.445312 20.871094 13.457031 C 20.953125 12.976562 20.996094 12.488281 21 12 C 21 7.03125 16.96875 3 12 3 C 11.511719 3 11.023438 3.042969 10.542969 3.121094 C 9.554688 2.085938 8.183594 1.5 6.75 1.5 Z M 12.191406 6 C 15.152344 6 16.679688 7.5625 16.679688 8.480469 C 16.679688 9.402344 16.234375 9.539062 15.511719 9.539062 C 14.097656 9.539062 14.675781 7.839844 12.03125 7.839844 C 11.15625 7.839844 10.0625 8.238281 10.0625 9.261719 C 10.0625 10.082031 11.03125 10.386719 12.742188 10.808594 C 15.316406 11.496094 17.25 12.1875 17.25 14.550781 C 17.25 16.847656 15.378906 18 12.417969 18 C 9.460938 18 7.566406 16.230469 7.566406 15.308594 C 7.566406 14.390625 7.914062 14.164062 8.644531 14.160156 C 10.058594 14.160156 9.867188 16.097656 12.511719 16.097656 C 13.390625 16.097656 14.6875 15.695312 14.6875 14.667969 C 14.6875 13.851562 14.617188 13.566406 12.742188 13.058594 C 10.738281 12.789062 7.5 12.136719 7.5 9.636719 C 7.5 7.339844 9.234375 6.003906 12.191406 6.003906 Z M 12.191406 6 "/>
</g>
</svg>
