
<svg xmlns="http://www.w3.org/2000/svg" xmlns:xlink="http://www.w3.org/1999/xlink" width="24px" height="24px" viewBox="0 0 24 24" version="1.1">
<g id="surface1">
<path style=" stroke:none;fill-rule:nonzero;fill:rgb(87.450981%,87.450981%,87.450981%);fill-opacity:1;" d="M 12 1.5 C 6.183594 1.5 1.5 6.183594 1.5 12 C 1.5 17.816406 6.183594 22.5 12 22.5 C 17.816406 22.5 22.5 17.816406 22.5 12 C 22.5 6.183594 17.816406 1.5 12 1.5 Z M 12 3 C 13.65625 3 15 4.34375 15 6 C 15 7.65625 13.65625 9 12 9 C 10.34375 9 9 7.65625 9 6 C 9 4.34375 10.34375 3 12 3 Z M 6 9 C 7.65625 9 9 10.34375 9 12 C 9 13.65625 7.65625 15 6 15 C 4.34375 15 3 13.65625 3 12 C 3 10.34375 4.34375 9 6 9 Z M 18 9 C 19.65625 9 21 10.34375 21 12 C 21 13.65625 19.65625 15 18 15 C 16.34375 15 15 13.65625 15 12 C 15 10.34375 16.34375 9 18 9 Z M 11.230469 9.953125 C 11.507812 9.945312 11.761719 10.089844 11.902344 10.328125 C 12.105469 10.683594 11.984375 11.140625 11.628906 11.347656 C 11.457031 11.449219 11.25 11.476562 11.058594 11.425781 C 10.863281 11.375 10.699219 11.25 10.597656 11.078125 C 10.5 10.90625 10.472656 10.699219 10.527344 10.507812 C 10.578125 10.3125 10.703125 10.152344 10.878906 10.050781 C 10.984375 9.988281 11.109375 9.957031 11.230469 9.953125 Z M 13.28125 10.5 C 13.554688 10.492188 13.8125 10.636719 13.949219 10.875 C 14.050781 11.046875 14.078125 11.253906 14.023438 11.445312 C 13.972656 11.636719 13.847656 11.800781 13.671875 11.902344 C 13.3125 12.105469 12.855469 11.984375 12.652344 11.625 C 12.441406 11.265625 12.5625 10.808594 12.921875 10.597656 C 13.03125 10.535156 13.15625 10.503906 13.28125 10.5 Z M 10.683594 12 C 10.957031 11.996094 11.214844 12.136719 11.347656 12.375 C 11.558594 12.734375 11.4375 13.191406 11.082031 13.402344 C 10.90625 13.5 10.703125 13.527344 10.507812 13.476562 C 10.316406 13.425781 10.152344 13.296875 10.050781 13.125 C 9.953125 12.953125 9.925781 12.746094 9.976562 12.554688 C 10.027344 12.363281 10.15625 12.199219 10.328125 12.097656 C 10.4375 12.035156 10.558594 12.003906 10.683594 12 Z M 12.730469 12.546875 C 13.007812 12.542969 13.261719 12.683594 13.402344 12.921875 C 13.5 13.09375 13.527344 13.300781 13.476562 13.492188 C 13.421875 13.683594 13.296875 13.847656 13.125 13.949219 C 12.953125 14.046875 12.746094 14.074219 12.554688 14.023438 C 12.363281 13.972656 12.199219 13.84375 12.097656 13.671875 C 11.894531 13.3125 12.015625 12.855469 12.375 12.652344 C 12.484375 12.585938 12.605469 12.550781 12.730469 12.546875 Z M 12 15 C 13.65625 15 15 16.34375 15 18 C 15 19.65625 13.65625 21 12 21 C 10.34375 21 9 19.65625 9 18 C 9 16.34375 10.34375 15 12 15 Z M 12 15 "/>
</g>
</svg>
