<svg xmlns="http://www.w3.org/2000/svg" style="clip-rule:evenodd;fill-rule:evenodd;stroke-linejoin:round;stroke-miterlimit:2" version="1.1" viewBox="-4 -4 24 24">
 <defs>
  <style id="current-color-scheme" type="text/css">
   .ColorScheme-Text { color:#dfdfdf; } .ColorScheme-Highlight { color:#4285f4; } .ColorScheme-NeutralText { color:#ff9800; } .ColorScheme-PositiveText { color:#4caf50; } .ColorScheme-NegativeText { color:#f44336; }
  </style>
 </defs>
 <path style="fill:currentColor;" class="ColorScheme-Text" d="m8 0c4.415 0 8 3.585 8 8s-3.585 8-8 8-8-3.585-8-8 3.585-8 8-8zm-0 0.818c-3.964-0-7.182 3.218-7.182 7.182s3.218 7.182 7.182 7.182 7.182-3.218 7.182-7.182-3.218-7.182-7.182-7.182zm-0 9.676 3.124-3.942c0.305-0.383 0.864-0.448 1.248-0.144 0.384 0.305 0.449 0.864 0.144 1.247l-3.816 4.814c-0.176 0.222-0.437 0.337-0.7 0.336-0.264 1e-3 -0.524-0.114-0.701-0.336l-3.815-4.813c-0.305-0.384-0.24-0.943 0.144-1.247 0.384-0.305 0.943-0.24 1.248 0.143l3.124 3.942zm-0-4.431 1.583-1.997c0.227-0.286 0.642-0.334 0.928-0.108 0.286 0.227 0.334 0.643 0.107 0.928l-2.097 2.646c-0.131 0.165-0.325 0.25-0.521 0.25s-0.391-0.085-0.521-0.25l-2.097-2.646c-0.227-0.285-0.179-0.701 0.107-0.928 0.285-0.226 0.701-0.178 0.928 0.108l1.583 1.997z"/>
 <path style="fill:currentColor;" class="ColorScheme-Highlight" d="m14.247 13.237c0.656-0 1.189 0.533 1.189 1.189s-0.533 1.188-1.189 1.188-1.189-0.532-1.189-1.188 0.533-1.189 1.189-1.189zm-1.355-6.501c0-0.357 0.142-0.7 0.395-0.953s0.596-0.395 0.953-0.395h0.014c0.357-0 0.7 0.142 0.953 0.395s0.395 0.596 0.395 0.953c0 1.506-0.355 3.556-0.355 4.667 0 0.264-0.105 0.517-0.291 0.704-0.187 0.186-0.44 0.291-0.704 0.291h-0.01c-0.264-0-0.517-0.105-0.704-0.291-0.186-0.187-0.291-0.44-0.291-0.704 0-1.111-0.355-3.161-0.355-4.667z"/>
</svg>
