
<svg xmlns="http://www.w3.org/2000/svg" xmlns:xlink="http://www.w3.org/1999/xlink" width="24px" height="24px" viewBox="0 0 24 24" version="1.1">
<g id="surface1">
<path style=" stroke:none;fill-rule:nonzero;fill:rgb(87.450981%,87.450981%,87.450981%);fill-opacity:1;" d="M 12 0 C 18.621094 0 24 5.378906 24 12 C 24 18.621094 18.621094 24 12 24 C 5.378906 24 0 18.621094 0 12 C 0 5.378906 5.378906 0 12 0 Z M 12 1.226562 C 6.054688 1.226562 1.226562 6.054688 1.226562 12 C 1.226562 17.945312 6.054688 22.773438 12 22.773438 C 17.945312 22.773438 22.773438 17.945312 22.773438 12 C 22.773438 6.054688 17.945312 1.226562 12 1.226562 Z M 12 15.742188 L 16.6875 9.828125 C 17.144531 9.253906 17.980469 9.15625 18.558594 9.613281 C 19.132812 10.070312 19.230469 10.90625 18.773438 11.484375 L 13.050781 18.703125 C 12.785156 19.035156 12.394531 19.210938 12 19.207031 C 11.605469 19.210938 11.214844 19.035156 10.949219 18.703125 L 5.226562 11.484375 C 4.769531 10.90625 4.867188 10.070312 5.441406 9.613281 C 6.019531 9.15625 6.855469 9.253906 7.3125 9.828125 Z M 12 9.09375 L 14.375 6.097656 C 14.714844 5.671875 15.335938 5.597656 15.765625 5.9375 C 16.195312 6.277344 16.265625 6.902344 15.925781 7.328125 L 12.78125 11.296875 C 12.585938 11.546875 12.292969 11.671875 12 11.671875 C 11.707031 11.671875 11.414062 11.546875 11.21875 11.296875 L 8.074219 7.328125 C 7.734375 6.902344 7.804688 6.277344 8.234375 5.9375 C 8.660156 5.597656 9.285156 5.671875 9.625 6.097656 Z M 12 9.09375 "/>
</g>
</svg>
