
<svg xmlns="http://www.w3.org/2000/svg" xmlns:xlink="http://www.w3.org/1999/xlink" width="24px" height="24px" viewBox="0 0 24 24" version="1.1">
<defs>
<filter id="alpha" filterUnits="objectBoundingBox" x="0%" y="0%" width="100%" height="100%">
  <feColorMatrix type="matrix" in="SourceGraphic" values="0 0 0 0 1 0 0 0 0 1 0 0 0 0 1 0 0 0 1 0"/>
</filter>
<mask id="mask0">
  <g filter="url(#alpha)">
<rect x="0" y="0" width="24" height="24" style="fill:rgb(0%,0%,0%);fill-opacity:0.3;stroke:none;"/>
  </g>
</mask>
<clipPath id="clip1">
  <rect x="0" y="0" width="24" height="24"/>
</clipPath>
<g id="surface5" clip-path="url(#clip1)">
<path style=" stroke:none;fill-rule:nonzero;fill:rgb(87.450981%,87.450981%,87.450981%);fill-opacity:1;" d="M 12 1.5 C 6.199219 1.5 1.5 6.199219 1.5 12 L 3 15 L 4.5 12 C 4.5 7.859375 7.859375 4.5 12 4.5 L 9 3 Z M 21 9 L 19.5 12 C 19.5 16.140625 16.140625 19.5 12 19.5 L 15 21 L 12 22.5 C 17.800781 22.5 22.5 17.800781 22.5 12 Z M 21 9 "/>
</g>
</defs>
<g id="surface1">
<use xlink:href="#surface5" mask="url(#mask0)"/>
<path style=" stroke:none;fill-rule:nonzero;fill:rgb(87.450981%,87.450981%,87.450981%);fill-opacity:1;" d="M 12 1.5 L 9 3 L 12 4.5 C 16.140625 4.5 19.5 7.859375 19.5 12 L 21 9 L 22.5 12 C 22.5 6.199219 17.800781 1.5 12 1.5 Z M 1.5 12 C 1.5 17.800781 6.199219 22.5 12 22.5 L 15 21 L 12 19.5 C 7.859375 19.5 4.5 16.140625 4.5 12 L 3 15 Z M 1.5 12 "/>
</g>
</svg>
