
<svg xmlns="http://www.w3.org/2000/svg" xmlns:xlink="http://www.w3.org/1999/xlink" width="24px" height="24px" viewBox="0 0 24 24" version="1.1">
<g id="surface1">
<path style=" stroke:none;fill-rule:nonzero;fill:rgb(87.450981%,87.450981%,87.450981%);fill-opacity:1;" d="M 2.933594 1.5 C 2.140625 1.5 1.5 2.140625 1.5 2.933594 L 1.5 21.066406 C 1.5 21.859375 2.140625 22.5 2.933594 22.5 L 18.082031 22.5 C 18.03125 22.253906 18.003906 22.003906 18 21.75 C 18 19.679688 19.679688 18 21.75 18 C 22 18 22.253906 18.027344 22.5 18.074219 L 22.5 2.933594 C 22.5 2.140625 21.859375 1.5 21.066406 1.5 Z M 6 6 L 18 6 L 18 9 L 13.5 9 L 13.5 18 L 10.5 18 L 10.5 9 L 6 9 Z M 6 6 "/>
<path style=" stroke:none;fill-rule:nonzero;fill:rgb(25.882354%,52.156866%,95.686275%);fill-opacity:1;" d="M 24 21.75 C 24 22.992188 22.992188 24 21.75 24 C 20.507812 24 19.5 22.992188 19.5 21.75 C 19.5 20.507812 20.507812 19.5 21.75 19.5 C 22.992188 19.5 24 20.507812 24 21.75 Z M 24 21.75 "/>
</g>
</svg>
