
<svg xmlns="http://www.w3.org/2000/svg" xmlns:xlink="http://www.w3.org/1999/xlink" width="24px" height="24px" viewBox="0 0 24 24" version="1.1">
<g id="surface1">
<path style=" stroke:none;fill-rule:nonzero;fill:rgb(87.450981%,87.450981%,87.450981%);fill-opacity:1;" d="M 3.035156 0 C 2.183594 0 1.5 0.683594 1.5 1.535156 L 1.5 20.964844 C 1.5 21.816406 2.183594 22.5 3.035156 22.5 L 19.5 22.5 L 19.5 9 L 15 9 L 15 18 L 10.5 18 L 10.5 9 L 6 9 L 6 4.5 L 19.5 4.5 L 19.5 9 L 24 9 L 24 1.535156 C 24 0.683594 23.316406 0 22.464844 0 Z M 3.035156 0 "/>
<path style=" stroke:none;fill-rule:nonzero;fill:rgb(25.882354%,52.156866%,95.686275%);fill-opacity:1;" d="M 21 10.5 L 21 16.5 L 21.375 19.5 L 23.625 19.5 L 24 16.5 L 24 10.5 Z M 21 21 L 21 24 L 24 24 L 24 21 Z M 21 21 "/>
</g>
</svg>
