
<svg xmlns="http://www.w3.org/2000/svg" xmlns:xlink="http://www.w3.org/1999/xlink" width="24px" height="24px" viewBox="0 0 24 24" version="1.1">
<g id="surface1">
<path style=" stroke:none;fill-rule:nonzero;fill:rgb(87.450981%,87.450981%,87.450981%);fill-opacity:1;" d="M 3.035156 0 C 2.183594 0 1.5 0.683594 1.5 1.535156 L 1.5 20.964844 C 1.5 21.816406 2.183594 22.5 3.035156 22.5 L 13.144531 22.5 C 12.398438 21.390625 12 20.085938 12 18.75 C 12 18.5 12.015625 18.25 12.046875 18 L 10.5 18 L 10.5 9 L 6 9 L 6 4.5 L 19.5 4.5 L 19.5 9 L 15 9 L 15 13.144531 C 16.109375 12.398438 17.414062 12 18.75 12 C 20.789062 12 22.71875 12.921875 24 14.511719 L 24 1.535156 C 24 0.683594 23.316406 0 22.464844 0 Z M 18.75 13.5 C 15.851562 13.5 13.5 15.851562 13.5 18.75 C 13.5 21.648438 15.851562 24 18.75 24 C 21.648438 24 24 21.648438 24 18.75 C 24 15.851562 21.648438 13.5 18.75 13.5 Z M 21.441406 16.5 L 22.5 16.5 L 22.5 17.5625 L 18 22.058594 L 15 19.058594 L 15 18 L 16.058594 18 L 18 19.941406 Z M 21.441406 16.5 "/>
</g>
</svg>
