
<svg xmlns="http://www.w3.org/2000/svg" xmlns:xlink="http://www.w3.org/1999/xlink" width="24px" height="24px" viewBox="0 0 24 24" version="1.1">
<defs>
<filter id="alpha" filterUnits="objectBoundingBox" x="0%" y="0%" width="100%" height="100%">
  <feColorMatrix type="matrix" in="SourceGraphic" values="0 0 0 0 1 0 0 0 0 1 0 0 0 0 1 0 0 0 1 0"/>
</filter>
<mask id="mask0">
  <g filter="url(#alpha)">
<rect x="0" y="0" width="24" height="24" style="fill:rgb(0%,0%,0%);fill-opacity:0.3;stroke:none;"/>
  </g>
</mask>
<clipPath id="clip1">
  <rect x="0" y="0" width="24" height="24"/>
</clipPath>
<g id="surface5" clip-path="url(#clip1)">
<path style=" stroke:none;fill-rule:nonzero;fill:rgb(87.450981%,87.450981%,87.450981%);fill-opacity:1;" d="M 14.394531 8.601562 C 13.648438 8.90625 12.949219 9.238281 12 9.238281 C 11.964844 9.238281 11.929688 9.238281 11.898438 9.234375 C 10.199219 9.101562 9.410156 9.207031 8.167969 10.417969 C 8.070312 10.511719 7.957031 10.59375 7.832031 10.65625 C 7.753906 10.691406 7.679688 10.722656 7.601562 10.753906 C 7.515625 10.808594 7.425781 10.851562 7.328125 10.882812 L 9.371094 13.179688 L 15.828125 11.148438 C 15.878906 10.957031 15.929688 10.734375 15.9375 10.753906 C 15.640625 9.542969 15.285156 9.042969 14.394531 8.601562 Z M 6.945312 11.105469 C 6.667969 11.683594 6.023438 11.992188 5.402344 11.8125 C 5.402344 12.15625 5.304688 12.53125 5.390625 12.839844 C 5.523438 13.351562 5.335938 13.894531 4.917969 14.21875 C 5.167969 15.097656 5.492188 15.9375 5.917969 16.742188 L 14.066406 19.242188 C 14.117188 19.179688 14.167969 19.132812 14.21875 19.070312 C 14.730469 18.425781 15.210938 17.667969 15.605469 16.804688 C 15.59375 16.8125 15.570312 16.820312 15.5625 16.828125 C 15.441406 16.882812 15.339844 16.929688 15.265625 16.960938 C 15.226562 16.976562 15.199219 16.992188 15.167969 17.003906 C 15.152344 17.011719 15.140625 17.015625 15.117188 17.027344 C 15.105469 17.03125 15.089844 17.035156 15.058594 17.046875 C 15.039062 17.054688 14.972656 17.074219 14.96875 17.074219 C 14.96875 17.074219 14.851562 17.101562 14.851562 17.101562 C 14.851562 17.101562 14.515625 17.109375 14.472656 17.109375 C 13.457031 16.988281 12.960938 15.800781 13.59375 14.996094 C 13.597656 14.992188 13.605469 14.972656 13.609375 14.96875 C 13.929688 14.558594 14.597656 13.601562 15.132812 12.652344 C 15.28125 12.386719 15.371094 12.160156 15.488281 11.914062 L 9.371094 13.835938 Z M 6.945312 11.105469 "/>
</g>
</defs>
<g id="surface1">
<path style=" stroke:none;fill-rule:nonzero;fill:rgb(87.450981%,87.450981%,87.450981%);fill-opacity:1;" d="M 9.902344 1.359375 C 8.320312 1.398438 7.460938 2.835938 6.792969 4.144531 C 6.550781 4.269531 6.300781 4.375 6.0625 4.511719 C 4.753906 5.386719 3.683594 6.605469 2.855469 7.9375 C 2.128906 9.21875 1.691406 10.644531 1.527344 12.109375 C 1.429688 13.589844 1.597656 15.101562 2.15625 16.492188 C 2.589844 17.710938 3.351562 19.046875 4.328125 19.882812 C 5.621094 20.746094 6.652344 21.375 8.066406 21.3125 C 5.121094 18.960938 3.570312 16.136719 3.082031 12.816406 C 3.066406 12.566406 3.035156 12.296875 3.125 12.363281 C 3.460938 12.898438 3.539062 12.875 4.121094 13.179688 C 3.617188 11.300781 4.289062 9.210938 5.105469 7.6875 C 5.210938 7.570312 5.320312 7.457031 5.429688 7.34375 L 5.480469 7.351562 C 5.5 7.644531 5.535156 7.9375 5.570312 8.222656 C 5.5625 8.359375 5.648438 8.59375 5.675781 8.742188 C 5.65625 8.796875 5.546875 9.113281 5.503906 9.507812 C 5.480469 9.664062 5.476562 9.816406 5.503906 9.96875 C 5.507812 10 5.507812 10.027344 5.515625 10.054688 C 5.527344 10.109375 5.542969 10.164062 5.5625 10.214844 C 5.609375 10.339844 5.671875 10.457031 5.769531 10.550781 C 5.804688 10.386719 5.878906 10.253906 5.980469 10.144531 C 6.007812 10.117188 6.046875 10.097656 6.074219 10.074219 C 6.167969 9.996094 6.261719 9.921875 6.367188 9.863281 C 6.386719 9.851562 6.386719 9.855469 6.40625 9.847656 C 6.664062 9.714844 6.917969 9.632812 6.921875 9.632812 L 6.941406 9.613281 C 7.046875 9.570312 7.15625 9.523438 7.253906 9.472656 C 8.734375 8.03125 10.132812 7.777344 12 7.925781 C 13.027344 7.925781 13.609375 7.65625 14.625 7.203125 C 16.183594 7.851562 16.855469 8.871094 17.253906 10.550781 C 17.40625 11.816406 15.375 14.84375 14.625 15.800781 C 14.625 15.800781 14.621094 15.804688 14.621094 15.804688 C 14.621094 15.804688 14.625 15.804688 14.625 15.804688 C 14.640625 15.808594 16.882812 14.808594 17.777344 13.957031 C 17.140625 18.890625 13.59375 21.945312 12 22.636719 C 13.230469 22.71875 14.914062 21.949219 16.074219 21.242188 C 15.546875 21.808594 14.980469 22.425781 14.625 22.636719 C 16.011719 22.246094 17.324219 22.105469 18.199219 21.46875 C 18.199219 21.46875 18.90625 20.820312 19.648438 19.972656 C 19.746094 19.863281 19.914062 19.707031 20.015625 19.578125 C 20.078125 19.5 20.140625 19.417969 20.199219 19.339844 C 20.210938 19.324219 20.222656 19.3125 20.234375 19.296875 C 21.792969 17.390625 22.554688 15.019531 22.496094 12.867188 C 22.507812 10.261719 21.449219 8 19.671875 6.132812 C 18.386719 4.777344 16.929688 3.949219 15.613281 3.503906 C 14.253906 3.113281 12.65625 2.914062 11.292969 2.988281 C 11.160156 2.992188 10.78125 3 10.265625 3.046875 C 10.207031 2.933594 10.28125 2.511719 10.425781 2.40625 C 10.105469 2.4375 9.808594 2.855469 9.535156 3.144531 C 9.488281 3.15625 9.441406 3.164062 9.398438 3.171875 C 9.644531 2.746094 9.898438 2.265625 10.191406 1.882812 C 9.28125 2.054688 8.882812 2.769531 8.4375 3.429688 C 8.308594 3.472656 8.183594 3.523438 8.058594 3.570312 C 8.386719 2.617188 9.007812 2.09375 9.902344 1.359375 Z M 8.289062 6.273438 C 8.542969 6.269531 8.773438 6.3125 8.777344 6.3125 C 8.78125 6.3125 8.890625 6.757812 8.679688 7.140625 C 8.472656 7.523438 7.980469 7.679688 7.710938 7.535156 C 7.433594 7.390625 7.433594 6.90625 7.648438 6.523438 C 7.753906 6.332031 8.035156 6.277344 8.289062 6.273438 Z M 8.289062 6.273438 "/>
<use xlink:href="#surface5" mask="url(#mask0)"/>
</g>
</svg>
