
<svg xmlns="http://www.w3.org/2000/svg" xmlns:xlink="http://www.w3.org/1999/xlink" width="24px" height="24px" viewBox="0 0 24 24" version="1.1">
<g id="surface1">
<path style=" stroke:none;fill-rule:nonzero;fill:rgb(87.450981%,87.450981%,87.450981%);fill-opacity:1;" d="M 1.5 1.5 C 0 1.5 0 3 0 3 L 0 19.566406 C 0 20.429688 0.820312 21.015625 1.3125 20.953125 C 1.378906 20.953125 22.5 21 22.5 21 C 23.332031 21 24 20.324219 24 19.5 L 24 3 C 24 2.175781 23.332031 1.5 22.5 1.5 Z M 0.871094 2.523438 L 23.128906 2.523438 L 23.128906 18.476562 L 0.871094 18.476562 Z M 15.726562 4.277344 C 14.898438 4.277344 14.226562 4.953125 14.226562 5.777344 C 14.226562 6.601562 14.898438 7.277344 15.726562 7.277344 C 16.554688 7.277344 17.226562 6.601562 17.226562 5.777344 C 17.226562 4.953125 16.554688 4.277344 15.726562 4.277344 Z M 7.5 9 C 4.582031 8.847656 3 16.5 3 16.5 L 21 16.5 C 21 16.5 19.5 10.429688 17.25 10.5 C 16.359375 10.527344 13.960938 13.484375 13.5 13.5 C 13.132812 13.511719 7.996094 9.027344 7.5 9 Z M 7.5 9 "/>
</g>
</svg>
