
<svg xmlns="http://www.w3.org/2000/svg" xmlns:xlink="http://www.w3.org/1999/xlink" width="24px" height="24px" viewBox="0 0 24 24" version="1.1">
<defs>
<filter id="alpha" filterUnits="objectBoundingBox" x="0%" y="0%" width="100%" height="100%">
  <feColorMatrix type="matrix" in="SourceGraphic" values="0 0 0 0 1 0 0 0 0 1 0 0 0 0 1 0 0 0 1 0"/>
</filter>
<mask id="mask0">
  <g filter="url(#alpha)">
<rect x="0" y="0" width="24" height="24" style="fill:rgb(0%,0%,0%);fill-opacity:0.3;stroke:none;"/>
  </g>
</mask>
<clipPath id="clip1">
  <rect x="0" y="0" width="24" height="24"/>
</clipPath>
<g id="surface5" clip-path="url(#clip1)">
<path style=" stroke:none;fill-rule:nonzero;fill:rgb(87.450981%,87.450981%,87.450981%);fill-opacity:1;" d="M 12 3 C 7.035156 3 3 7.019531 3 12 C 3 16.964844 7.035156 21 12 21 C 16.964844 21 21 16.964844 21 12 C 21 7.019531 16.964844 3 12 3 Z M 12 3 "/>
</g>
</defs>
<g id="surface1">
<use xlink:href="#surface5" mask="url(#mask0)"/>
<path style=" stroke:none;fill-rule:nonzero;fill:rgb(87.450981%,87.450981%,87.450981%);fill-opacity:1;" d="M 11.25 22.441406 L 12 24 L 12.75 22.441406 C 12.496094 22.46875 12.253906 22.5 12 22.5 C 11.746094 22.5 11.503906 22.46875 11.25 22.441406 Z M 19.921875 18.839844 C 19.589844 19.214844 19.214844 19.589844 18.839844 19.921875 L 20.488281 20.476562 Z M 4.078125 18.839844 L 3.511719 20.476562 L 5.160156 19.921875 C 4.785156 19.589844 4.410156 19.214844 4.078125 18.839844 Z M 22.453125 11.25 C 22.46875 11.488281 22.5 11.746094 22.5 12 C 22.5 12.238281 22.46875 12.496094 22.453125 12.75 L 24 12 Z M 1.546875 11.25 L 0 12 L 1.546875 12.75 C 1.53125 12.496094 1.5 12.238281 1.5 12 C 1.5 11.746094 1.53125 11.488281 1.546875 11.25 Z M 20.488281 3.511719 L 18.839844 4.066406 C 19.214844 4.394531 19.589844 4.769531 19.921875 5.144531 Z M 3.511719 3.511719 L 4.078125 5.144531 C 4.410156 4.769531 4.785156 4.394531 5.160156 4.066406 Z M 12 0 L 11.25 1.546875 C 11.503906 1.53125 11.746094 1.5 12 1.5 C 12.253906 1.5 12.496094 1.53125 12.75 1.546875 Z M 12 0 "/>
</g>
</svg>
