
<svg xmlns="http://www.w3.org/2000/svg" xmlns:xlink="http://www.w3.org/1999/xlink" width="24px" height="24px" viewBox="0 0 24 24" version="1.1">
<defs>
<filter id="alpha" filterUnits="objectBoundingBox" x="0%" y="0%" width="100%" height="100%">
  <feColorMatrix type="matrix" in="SourceGraphic" values="0 0 0 0 1 0 0 0 0 1 0 0 0 0 1 0 0 0 1 0"/>
</filter>
<mask id="mask0">
  <g filter="url(#alpha)">
<rect x="0" y="0" width="24" height="24" style="fill:rgb(0%,0%,0%);fill-opacity:0.3;stroke:none;"/>
  </g>
</mask>
<clipPath id="clip1">
  <rect x="0" y="0" width="24" height="24"/>
</clipPath>
<g id="surface5" clip-path="url(#clip1)">
<path style=" stroke:none;fill-rule:nonzero;fill:rgb(87.450981%,87.450981%,87.450981%);fill-opacity:1;" d="M 5.519531 4.128906 C 6.742188 2.105469 8.960938 0.75 11.496094 0.75 C 14.765625 0.75 17.511719 3.007812 18.265625 6.046875 C 18.613281 5.960938 18.976562 5.917969 19.347656 5.917969 C 21.917969 5.917969 24 8 24 10.566406 C 24 12.9375 22.222656 14.902344 19.925781 15.183594 C 19.738281 15.207031 19.546875 15.21875 19.347656 15.21875 C 19.152344 15.21875 18.960938 15.207031 18.773438 15.183594 L 5.527344 15.183594 C 2.476562 15.183594 0 12.707031 0 9.65625 C 0 6.609375 2.472656 4.132812 5.519531 4.128906 Z M 5.519531 4.128906 "/>
</g>
</defs>
<g id="surface1">
<path style=" stroke:none;fill-rule:nonzero;fill:rgb(87.450981%,87.450981%,87.450981%);fill-opacity:1;" d="M 13.5 21 C 12.675781 21 12 21.675781 12 22.5 C 12 23.324219 12.675781 24 13.5 24 C 14.324219 24 15 23.324219 15 22.5 C 15 21.675781 14.324219 21 13.5 21 Z M 19.5 21 C 18.675781 21 18 21.675781 18 22.5 C 18 23.324219 18.675781 24 19.5 24 C 20.324219 24 21 23.324219 21 22.5 C 21 21.675781 20.324219 21 19.5 21 Z M 9.71875 17.992188 C 9.445312 18.003906 9.199219 18.167969 9.078125 18.414062 L 7.578125 21.414062 C 7.527344 21.519531 7.5 21.632812 7.5 21.75 C 7.5 22.164062 7.839844 22.5 8.25 22.5 C 8.535156 22.5 8.792969 22.339844 8.921875 22.085938 L 10.421875 19.085938 C 10.476562 18.980469 10.507812 18.859375 10.507812 18.738281 C 10.507812 18.328125 10.167969 17.988281 9.757812 17.988281 C 9.742188 17.988281 9.730469 17.992188 9.71875 17.992188 Z M 5.21875 17.988281 C 4.945312 18 4.699219 18.164062 4.582031 18.414062 L 3.082031 21.414062 C 3.027344 21.515625 3 21.632812 3 21.75 C 3 22.160156 3.339844 22.5 3.75 22.5 C 4.035156 22.5 4.296875 22.339844 4.421875 22.085938 L 5.921875 19.085938 C 5.980469 18.976562 6.007812 18.859375 6.007812 18.738281 C 6.007812 18.324219 5.667969 17.988281 5.257812 17.988281 C 5.246094 17.988281 5.230469 17.988281 5.21875 17.988281 Z M 16.5 18 C 15.679688 18 15 18.675781 15 19.5 C 15 20.324219 15.679688 21 16.5 21 C 17.324219 21 18 20.324219 18 19.5 C 18 18.675781 17.324219 18 16.5 18 Z M 16.5 18 "/>
<use xlink:href="#surface5" mask="url(#mask0)"/>
</g>
</svg>
