
<svg xmlns="http://www.w3.org/2000/svg" xmlns:xlink="http://www.w3.org/1999/xlink" width="24px" height="24px" viewBox="0 0 24 24" version="1.1">
<defs>
<filter id="alpha" filterUnits="objectBoundingBox" x="0%" y="0%" width="100%" height="100%">
  <feColorMatrix type="matrix" in="SourceGraphic" values="0 0 0 0 1 0 0 0 0 1 0 0 0 0 1 0 0 0 1 0"/>
</filter>
<mask id="mask0">
  <g filter="url(#alpha)">
<rect x="0" y="0" width="24" height="24" style="fill:rgb(0%,0%,0%);fill-opacity:0.3;stroke:none;"/>
  </g>
</mask>
<clipPath id="clip1">
  <rect x="0" y="0" width="24" height="24"/>
</clipPath>
<g id="surface5" clip-path="url(#clip1)">
<path style=" stroke:none;fill-rule:nonzero;fill:rgb(87.450981%,87.450981%,87.450981%);fill-opacity:1;" d="M 5.519531 4.128906 C 6.742188 2.105469 8.960938 0.75 11.496094 0.75 C 14.765625 0.75 17.511719 3.007812 18.265625 6.046875 C 18.613281 5.960938 18.976562 5.917969 19.347656 5.917969 C 21.917969 5.917969 24 8 24 10.566406 C 24 12.9375 22.222656 14.902344 19.925781 15.183594 C 19.738281 15.207031 19.546875 15.21875 19.347656 15.21875 C 19.152344 15.21875 18.960938 15.207031 18.773438 15.183594 L 5.527344 15.183594 C 2.476562 15.183594 0 12.707031 0 9.65625 C 0 6.609375 2.472656 4.132812 5.519531 4.128906 Z M 5.519531 4.128906 "/>
</g>
</defs>
<g id="surface1">
<use xlink:href="#surface5" mask="url(#mask0)"/>
<path style=" stroke:none;fill-rule:nonzero;fill:rgb(25.882354%,52.156866%,95.686275%);fill-opacity:1;" d="M 11.101562 16.835938 C 11.035156 16.835938 10.996094 16.804688 10.996094 16.734375 L 10.996094 15.597656 C 10.996094 15.417969 11.003906 15.25 11.015625 15.097656 C 11.027344 14.945312 11.050781 14.800781 11.085938 14.664062 C 11.121094 14.523438 11.167969 14.390625 11.230469 14.253906 C 11.292969 14.121094 11.371094 13.980469 11.472656 13.839844 L 13.039062 11.671875 C 13.320312 11.296875 13.460938 10.925781 13.460938 10.5625 C 13.460938 10.117188 13.304688 9.761719 12.992188 9.5 C 12.683594 9.234375 12.367188 9.101562 12.050781 9.101562 C 11.632812 9.101562 11.273438 9.242188 10.980469 9.515625 C 10.6875 9.769531 10.539062 10.234375 10.539062 10.914062 C 10.539062 10.984375 10.507812 11.019531 10.433594 11.019531 L 8.644531 11.019531 C 8.574219 11.019531 8.539062 10.984375 8.539062 10.914062 L 8.539062 10.5625 C 8.539062 9.589844 8.878906 8.773438 9.554688 8.109375 C 10.234375 7.4375 11.039062 7.097656 11.964844 7.097656 C 12.855469 7.097656 13.660156 7.414062 14.371094 8.050781 C 15.101562 8.671875 15.464844 9.515625 15.464844 10.578125 C 15.464844 11.3125 15.269531 11.949219 14.882812 12.488281 L 13.273438 14.683594 C 13.09375 14.960938 13.003906 15.308594 13.003906 15.730469 L 13.003906 16.734375 C 13.003906 16.804688 12.96875 16.835938 12.898438 16.835938 Z M 11.101562 19.933594 C 11.035156 19.933594 10.996094 19.894531 10.996094 19.828125 L 10.996094 18.042969 C 10.996094 17.972656 11.035156 17.9375 11.101562 17.9375 L 12.898438 17.9375 C 12.96875 17.9375 13.003906 17.972656 13.003906 18.042969 L 13.003906 19.828125 C 13.003906 19.894531 12.96875 19.933594 12.898438 19.933594 Z M 11.101562 19.933594 "/>
</g>
</svg>
