
<svg xmlns="http://www.w3.org/2000/svg" xmlns:xlink="http://www.w3.org/1999/xlink" width="24px" height="24px" viewBox="0 0 24 24" version="1.1">
<g id="surface1">
<path style=" stroke:none;fill-rule:nonzero;fill:rgb(87.450981%,87.450981%,87.450981%);fill-opacity:1;" d="M 12.808594 1.5 C 12.355469 1.488281 11.90625 1.601562 11.515625 1.820312 L 4.234375 5.878906 C 3.472656 6.304688 3 7.09375 3 7.945312 L 3 16.054688 C 3 16.90625 3.472656 17.699219 4.234375 18.125 L 11.515625 22.179688 C 12.277344 22.605469 13.222656 22.605469 13.984375 22.179688 L 21.265625 18.125 C 22.027344 17.699219 22.5 16.90625 22.5 16.054688 L 22.5 7.945312 C 22.5 7.09375 22.027344 6.304688 21.265625 5.878906 L 13.984375 1.820312 C 13.628906 1.621094 13.222656 1.507812 12.808594 1.5 Z M 12.75 2.78125 L 21.046875 7.449219 L 21.046875 16.550781 L 12.75 21.21875 L 4.453125 16.550781 L 4.453125 7.449219 Z M 11.144531 9 C 9.960938 9 9 10.105469 9 11.464844 C 9 13.585938 12.300781 15.25 12.714844 16.5 C 13.128906 15.25 16.429688 13.585938 16.429688 11.464844 C 16.429688 10.105469 15.46875 9 14.285156 9 C 13.664062 9 13.105469 9.382812 12.714844 9.867188 C 12.324219 9.382812 11.765625 9 11.144531 9 Z M 11.144531 9 "/>
</g>
</svg>
