
<svg xmlns="http://www.w3.org/2000/svg" xmlns:xlink="http://www.w3.org/1999/xlink" width="24px" height="24px" viewBox="0 0 24 24" version="1.1">
<g id="surface1">
<path style=" stroke:none;fill-rule:nonzero;fill:rgb(25.882354%,52.156866%,95.686275%);fill-opacity:1;" d="M 12 1.5 C 11.746094 1.5 11.5 1.511719 11.25 1.527344 C 11.21875 1.53125 11.1875 1.53125 11.15625 1.535156 C 7.40625 1.832031 4.226562 4.085938 2.621094 7.277344 C 2.519531 7.484375 2.414062 7.691406 2.324219 7.90625 C 1.832031 9.015625 1.5625 10.191406 1.515625 11.425781 C 1.511719 11.464844 1.511719 11.507812 1.507812 11.546875 C 1.503906 11.664062 1.503906 11.78125 1.503906 11.902344 C 1.503906 11.933594 1.5 11.96875 1.5 12 C 1.5 13.21875 1.71875 14.386719 2.097656 15.472656 C 2.25 15.960938 2.425781 16.457031 2.640625 16.953125 C 3.167969 18.199219 3.234375 18.535156 3.148438 19.574219 C 3.089844 20.296875 2.898438 21.039062 2.652344 21.453125 C 2.429688 21.832031 2.25 22.222656 2.25 22.320312 C 2.25 22.628906 4.019531 22.519531 5.585938 22.121094 C 7.421875 21.648438 7.582031 21.648438 9.089844 22.121094 C 9.777344 22.339844 10.558594 22.453125 11.445312 22.484375 C 11.484375 22.488281 11.519531 22.488281 11.558594 22.488281 C 11.679688 22.492188 11.800781 22.5 11.925781 22.5 L 12 22.5 C 12.292969 22.5 12.582031 22.484375 12.871094 22.460938 C 15.464844 22.277344 17.550781 21.316406 19.425781 19.445312 C 20.972656 17.902344 21.929688 15.996094 22.308594 14 C 22.34375 13.820312 22.371094 13.636719 22.398438 13.449219 C 22.414062 13.335938 22.429688 13.222656 22.441406 13.105469 C 22.464844 12.863281 22.480469 12.613281 22.488281 12.363281 C 22.492188 12.300781 22.496094 12.238281 22.496094 12.175781 C 22.496094 12.117188 22.5 12.058594 22.5 12 C 22.5 6.28125 17.972656 1.660156 12.289062 1.507812 C 12.246094 1.507812 12.199219 1.507812 12.15625 1.503906 C 12.101562 1.503906 12.050781 1.5 12 1.5 Z M 8.25 6 C 9.492188 6 10.5 7.007812 10.5 8.25 C 10.5 9 10.5 10.5 9 10.5 C 9 12 12.046875 14.917969 13.5 15 C 13.5 13.5 15 13.5 15.75 13.5 C 16.992188 13.5 18 14.507812 18 15.75 C 18 16.992188 16.992188 18 15.75 18 L 14.910156 18 C 14.464844 17.988281 13.945312 17.824219 13.21875 17.558594 C 10.785156 16.671875 9.09375 15.246094 7.363281 12.621094 C 6.351562 11.089844 6.003906 10.171875 6 9.027344 L 6 8.25 C 6 7.007812 7.007812 6 8.25 6 Z M 8.25 6 "/>
</g>
</svg>
