
<svg xmlns="http://www.w3.org/2000/svg" xmlns:xlink="http://www.w3.org/1999/xlink" width="24px" height="24px" viewBox="0 0 24 24" version="1.1">
<g id="surface1">
<path style=" stroke:none;fill-rule:nonzero;fill:rgb(87.450981%,87.450981%,87.450981%);fill-opacity:1;" d="M 6.796875 1.5 C 3.851562 1.5 1.5 3.855469 1.5 6.796875 L 1.5 17.203125 C 1.5 20.148438 3.851562 22.5 6.796875 22.5 L 17.203125 22.5 C 20.148438 22.5 22.5 20.148438 22.5 17.203125 L 22.5 6.796875 C 22.5 3.855469 20.148438 1.5 17.203125 1.5 Z M 3.003906 4.5 L 10.5 4.5 L 10.5 5.207031 C 10.304688 5.222656 10.1875 5.207031 9.941406 5.207031 C 9.128906 5.257812 8.53125 5.359375 8.53125 5.8125 C 8.53125 6.214844 8.65625 6.585938 8.953125 6.984375 L 12.703125 12.796875 L 16.6875 6.9375 C 16.953125 6.523438 17.0625 6.144531 17.0625 5.90625 C 17.0625 5.5625 16.78125 5.332031 16.5 5.203125 L 15 5.203125 L 15 4.5 L 21 4.5 L 21 5.203125 C 20.332031 5.257812 19.757812 5.300781 19.265625 5.71875 C 18.789062 6.117188 18.136719 6.914062 17.34375 8.109375 L 13.5 14.203125 L 13.5 19.5 C 13.816406 19.789062 15.320312 20.277344 16.5 20.296875 L 16.5 21 L 7.5 21 L 7.5 20.296875 C 8.699219 20.242188 10.21875 19.789062 10.5 19.5 L 10.5 14.160156 L 7.3125 9.28125 C 5.9375 7.324219 5.035156 6.15625 4.59375 5.71875 C 4.152344 5.285156 3.691406 5.203125 3 5.203125 L 3 4.5 Z M 3.003906 4.5 "/>
</g>
</svg>
