
<svg xmlns="http://www.w3.org/2000/svg" xmlns:xlink="http://www.w3.org/1999/xlink" width="24px" height="24px" viewBox="0 0 24 24" version="1.1">
<g id="surface1">
<path style=" stroke:none;fill-rule:nonzero;fill:rgb(87.450981%,87.450981%,87.450981%);fill-opacity:1;" d="M 11.539062 1.5 C 8.738281 1.546875 6.527344 2.582031 4.476562 4.617188 C 2.257812 6.816406 1.460938 8.835938 1.46875 12.222656 C 1.476562 14.429688 1.792969 15.917969 2.511719 17.132812 L 2.898438 17.789062 L 1.5 22.5 L 5.292969 20.652344 L 6.554688 21.242188 C 7.25 21.566406 8.570312 21.992188 9.492188 22.195312 C 10.730469 22.464844 11.207031 22.539062 12.617188 22.480469 C 15.585938 22.359375 17.597656 21.523438 19.496094 19.632812 C 21.410156 17.730469 22.363281 15.4375 22.550781 12.316406 C 22.882812 6.722656 19.894531 2.789062 14.554688 1.78125 C 13.472656 1.578125 12.472656 1.488281 11.539062 1.5 Z M 9.800781 4.5 C 10.199219 4.5 10.914062 5.351562 11.449219 6.457031 C 12.03125 7.667969 12.023438 8.035156 11.421875 8.429688 C 10.625 8.953125 9.96875 9.664062 9.96875 10 C 9.96875 10.175781 10.472656 10.84375 11.089844 11.488281 C 12.09375 12.542969 12.257812 12.824219 12.71875 14.277344 C 13.003906 15.1875 13.363281 15.980469 13.539062 16.089844 C 13.789062 16.246094 14.097656 16.15625 15.015625 15.648438 L 15.382812 15.445312 C 16.109375 15.042969 16.191406 14.898438 16.691406 15.648438 C 16.972656 16 17.417969 16.730469 17.671875 17.269531 C 18.222656 18.4375 18.128906 18.707031 16.996094 19.160156 C 14.476562 20.167969 13.046875 19.085938 10.058594 13.910156 C 7.554688 9.578125 7.066406 7.929688 7.832031 6.378906 C 8.230469 5.570312 9.351562 4.5 9.800781 4.5 Z M 9.800781 4.5 "/>
</g>
</svg>
