<?xml version="1.0" encoding="UTF-8" standalone="no"?><!DOCTYPE svg PUBLIC "-//W3C//DTD SVG 1.1//EN" "http://www.w3.org/Graphics/SVG/1.1/DTD/svg11.dtd"><svg width="100%" height="100%" viewBox="0 0 96 96" version="1.1" xmlns="http://www.w3.org/2000/svg" xmlns:xlink="http://www.w3.org/1999/xlink" xml:space="preserve" xmlns:serif="http://www.serif.com/" style="fill-rule:evenodd;clip-rule:evenodd;stroke-linejoin:round;stroke-miterlimit:1.41421;"><path id="path3940" d="M30.696,32.183c-0.005,0.162 -0.033,0.314 -0.033,0.476c0.016,0.689 0.071,1.645 0.127,2.536c0.022,-0.01 0.042,-0.023 0.064,-0.032c-0.077,-0.987 -0.128,-2.072 -0.158,-2.98Zm34.61,0c-0.038,0.986 -0.087,2.063 -0.159,3.139c0.02,0.012 0.045,0.018 0.064,0.031c0.053,-0.937 0.099,-1.897 0.127,-2.694c0,-0.162 -0.028,-0.314 -0.032,-0.476Zm-35.751,6.403c-0.108,1.332 0.182,3.021 0.919,4.754c0.553,1.305 1.258,2.31 2.028,3.138c0.187,0.925 0.149,1.352 0.38,2.409c0.644,1.933 3.169,5.714 5.515,8.843c0.107,1.12 0.247,2.264 0.286,3.423c0.01,-1.519 -0.148,-2.996 -0.286,-4.437c-2.346,-3.129 -4.871,-6.91 -5.515,-8.843c-0.231,-1.057 -0.193,-1.484 -0.38,-2.409c-0.77,-0.828 -1.475,-1.833 -2.028,-3.138c-0.561,-1.322 -0.848,-2.604 -0.919,-3.74Zm36.702,0.063c-0.065,1.118 -0.363,2.365 -0.919,3.677c-0.473,1.112 -1.007,2.013 -1.648,2.789c-0.202,0.939 -0.313,1.667 -0.571,2.758c-0.718,2.153 -3.566,6.461 -5.705,9.762c-0.055,0.878 -0.071,1.775 -0.063,2.662c0.01,-0.552 0.028,-1.1 0.063,-1.648c2.139,-3.3 4.987,-7.609 5.705,-9.762c0.258,-1.09 0.369,-1.819 0.571,-2.758c0.641,-0.776 1.175,-1.676 1.648,-2.789c0.734,-1.73 1.037,-3.377 0.919,-4.691Zm-52.202,41.679l-0.233,1.315l68.282,0.075l-0.158,-1.39l-67.891,0Z" style="fill:#fff;fill-opacity:0.933333;fill-rule:nonzero;"/><path id="path3159" d="M48,16c-9.487,0 -17.091,7.145 -17.091,16c0.021,0.943 0.092,2.306 0.182,3.455c-1.622,0.688 -1.741,3.846 -0.364,7.09c0.546,1.287 1.242,2.275 2,3.091c0.185,0.912 0.136,1.322 0.364,2.364c0.635,1.906 3.141,5.643 5.454,8.727c0.227,2.369 0.463,4.76 0,7.455c-6.666,5.531 -23.843,7.91 -23.818,13.636l-0.363,2.182l67.272,0l-0.363,-2.182c-0.028,-4.901 -17.233,-7.91 -23.818,-13.636c-0.267,-2.192 -0.318,-4.387 -0.182,-6.546c2.108,-3.253 4.928,-7.513 5.636,-9.636c0.254,-1.075 0.347,-1.801 0.546,-2.727c0.631,-0.766 1.171,-1.631 1.636,-2.728c1.308,-3.082 1.224,-6.025 -0.182,-6.909c0.083,-1.242 0.145,-2.563 0.182,-3.636c0,-8.855 -7.604,-16 -17.091,-16Z" style="fill:url(#_Linear1);fill-rule:nonzero;"/><path id="path3921" d="M48,16c-9.487,0 -17.094,7.145 -17.094,16c0.022,0.943 0.098,2.32 0.188,3.469c-1.623,0.688 -1.752,3.817 -0.375,7.062c0.546,1.287 1.241,2.278 2,3.094c0.184,0.912 0.147,1.333 0.375,2.375c0.635,1.906 3.124,5.634 5.437,8.719c0.227,2.369 0.462,4.774 0,7.469c-6.667,5.531 -23.838,7.898 -23.812,13.625l-0.344,2.187l67.25,0l-0.344,-2.187c-0.027,-4.901 -17.227,-7.899 -23.812,-13.625c-0.267,-2.192 -0.323,-4.404 -0.188,-6.563c2.109,-3.254 4.917,-7.502 5.625,-9.625c0.255,-1.075 0.364,-1.793 0.563,-2.719c0.632,-0.765 1.159,-1.653 1.625,-2.75c1.308,-3.082 1.218,-6.022 -0.188,-6.906c0.083,-1.242 0.151,-2.552 0.188,-3.625c0,-8.855 -7.607,-16 -17.094,-16Zm0,2.156c8.386,0 14.901,6.185 14.938,13.782c0,0.01 -0.001,0.02 0,0.031c-0.001,0.009 0,0.022 0,0.031c-0.036,1.032 -0.108,2.27 -0.188,3.469c-0.057,0.766 0.301,1.507 0.938,1.937c0.003,0.036 0.169,0.286 0.187,0.907c0.023,0.827 -0.199,2.075 -0.75,3.375c-0.4,0.942 -0.826,1.629 -1.312,2.218c-0.221,0.272 -0.371,0.594 -0.438,0.938c-0.202,0.943 -0.317,1.604 -0.531,2.531c-0.236,0.679 -1.052,2.244 -2.063,3.906c-1.026,1.688 -2.253,3.554 -3.312,5.188c-0.201,0.308 -0.32,0.663 -0.344,1.031c-0.143,2.288 -0.064,4.61 0.219,6.938c0.06,0.531 0.316,1.022 0.719,1.375c3.85,3.348 9.893,5.442 14.968,7.5c2.538,1.028 4.82,2.017 6.313,2.937c0.746,0.46 1.297,0.912 1.562,1.219c0.265,0.306 0.219,0.358 0.219,0.344c0,0.01 0,0.02 0,0.031l-62.25,0c0,-0.011 0,-0.021 0,-0.031c-0.002,-0.359 0.33,-1.024 1.781,-1.969c1.452,-0.945 3.728,-1.922 6.25,-2.906c5.044,-1.969 11.086,-3.846 15,-7.094c0.395,-0.324 0.661,-0.779 0.75,-1.281c0.519,-3.025 0.227,-5.697 0,-8.063c-0.037,-0.384 -0.178,-0.751 -0.406,-1.063c-2.243,-2.989 -4.697,-6.921 -5.094,-8.062c-0.151,-0.76 -0.138,-1.169 -0.343,-2.187c-0.08,-0.386 -0.263,-0.743 -0.532,-1.032c-0.614,-0.661 -1.149,-1.42 -1.593,-2.468c-0.583,-1.372 -0.792,-2.695 -0.75,-3.532c0.031,-0.627 0.169,-0.79 0.125,-0.781c0.761,-0.393 1.218,-1.207 1.156,-2.062c-0.086,-1.089 -0.135,-2.437 -0.156,-3.313c0,-0.021 -0.001,-0.041 0,-0.062c0.036,-7.597 6.551,-13.782 14.937,-13.782Z" style="fill-opacity:0.0980392;fill-rule:nonzero;"/><path id="path3917" d="M48,16c-9.487,0 -17.094,7.145 -17.094,16c0.022,0.943 0.098,2.32 0.188,3.469c-1.623,0.688 -1.752,3.817 -0.375,7.062c0.546,1.287 1.241,2.278 2,3.094c0.184,0.912 0.147,1.333 0.375,2.375c0.635,1.906 3.124,5.634 5.437,8.719c0.227,2.369 0.462,4.774 0,7.469c-6.667,5.531 -23.838,7.898 -23.812,13.625l-0.344,2.187l67.25,0l-0.344,-2.187c-0.027,-4.901 -17.227,-7.899 -23.812,-13.625c-0.267,-2.192 -0.323,-4.404 -0.188,-6.563c2.109,-3.254 4.917,-7.502 5.625,-9.625c0.255,-1.075 0.364,-1.793 0.563,-2.719c0.632,-0.765 1.159,-1.653 1.625,-2.75c1.308,-3.082 1.218,-6.022 -0.188,-6.906c0.083,-1.242 0.151,-2.552 0.188,-3.625c0,-8.855 -7.607,-16 -17.094,-16Zm0,1.031c8.958,0 16.044,6.689 16.063,14.938c0,0.01 0,0.02 0,0.031c-0.037,1.053 -0.107,2.342 -0.188,3.563c-0.026,0.373 0.154,0.733 0.469,0.937c0.274,0.173 0.627,0.744 0.656,1.781c0.029,1.037 -0.239,2.419 -0.844,3.844c-0.434,1.023 -0.907,1.819 -1.468,2.5c-0.107,0.126 -0.182,0.276 -0.219,0.438c-0.2,0.933 -0.298,1.626 -0.531,2.625c-0.006,0.025 -0.026,0.036 -0.032,0.062c-0.302,0.877 -1.131,2.407 -2.156,4.094c-1.041,1.712 -2.287,3.588 -3.344,5.219c-0.094,0.15 -0.148,0.322 -0.156,0.5c-0.139,2.22 -0.087,4.492 0.188,6.75c0.029,0.253 0.151,0.487 0.343,0.656c3.561,3.096 9.554,5.244 14.657,7.312c2.551,1.034 4.889,2.039 6.5,3.032c0.805,0.496 1.432,0.967 1.812,1.406c0.38,0.439 0.498,0.783 0.5,1.094c-0.004,0.052 -0.004,0.104 0,0.156l0.156,1l-64.812,0l0.156,-1c0.004,-0.052 0.004,-0.104 0,-0.156c-0.004,-0.916 0.727,-1.874 2.313,-2.907c1.585,-1.032 3.895,-2.039 6.437,-3.031c5.085,-1.984 11.075,-3.909 14.688,-6.906c0.19,-0.148 0.323,-0.358 0.375,-0.594c0.489,-2.853 0.226,-5.383 0,-7.75c-0.022,-0.194 -0.098,-0.378 -0.219,-0.531c-2.261,-3.014 -4.703,-6.755 -5.25,-8.313c-0.006,-0.024 0.005,-0.038 0,-0.062c-0.003,-0.008 -0.029,-0.024 -0.031,-0.031c-0.184,-0.882 -0.151,-1.324 -0.344,-2.282c-0.041,-0.175 -0.127,-0.337 -0.25,-0.468c-0.689,-0.742 -1.315,-1.641 -1.813,-2.813c-0.637,-1.502 -0.896,-2.968 -0.843,-4.031c0.052,-1.064 0.384,-1.559 0.687,-1.688c0.407,-0.173 0.66,-0.59 0.625,-1.031c-0.088,-1.119 -0.166,-2.465 -0.187,-3.375c-0.001,-0.008 0,-0.023 0,-0.031c0.018,-8.249 7.104,-14.938 16.062,-14.938Z" style="fill-opacity:0.2;fill-rule:nonzero;"/><path id="path3931" d="M48,16c-9.487,0 -17.094,7.145 -17.094,16c0.004,0.144 0.026,0.369 0.032,0.531c0.267,-8.633 7.746,-15.531 17.062,-15.531c9.316,0 16.795,6.898 17.063,15.531c0.006,-0.167 0.025,-0.374 0.031,-0.531c0,-8.855 -7.607,-16 -17.094,-16Zm-16.969,19.5c-0.925,0.442 -1.321,1.711 -1.218,3.344c0.095,-1.179 0.513,-2.049 1.281,-2.375c-0.025,-0.321 -0.041,-0.628 -0.063,-0.969Zm33.938,0.156c-0.019,0.337 -0.041,0.637 -0.063,0.969c0.628,0.395 1,1.236 1.094,2.281c0.086,-1.489 -0.255,-2.717 -1.031,-3.25Zm-7.75,25.25c-0.001,1.419 0.076,2.855 0.25,4.282c6.585,5.726 23.785,8.724 23.812,13.625l0.188,1.187l0.156,0l-0.344,-2.187c-0.027,-4.901 -17.227,-7.899 -23.812,-13.625c-0.133,-1.096 -0.221,-2.189 -0.25,-3.282Zm-18.406,0.188c-0.007,0.999 -0.097,2.015 -0.282,3.094c-6.667,5.531 -23.838,7.898 -23.812,13.625l-0.344,2.187l0.156,0l0.188,-1.187c-0.026,-5.727 17.145,-8.094 23.812,-13.625c0.247,-1.439 0.325,-2.786 0.282,-4.094Z" style="fill-opacity:0.298039;fill-rule:nonzero;"/><defs><linearGradient id="_Linear1" x1="0" y1="0" x2="1" y2="0" gradientUnits="userSpaceOnUse" gradientTransform="matrix(3.91887e-15,64,-64,3.91887e-15,56,16)"><stop offset="0" style="stop-color:#1b1b1b;stop-opacity:1"/><stop offset="1" style="stop-color:#3c3c3c;stop-opacity:1"/></linearGradient></defs></svg>