<?xml version="1.0" encoding="UTF-8" standalone="no"?><!DOCTYPE svg PUBLIC "-//W3C//DTD SVG 1.1//EN" "http://www.w3.org/Graphics/SVG/1.1/DTD/svg11.dtd"><svg width="100%" height="100%" viewBox="0 0 96 96" version="1.1" xmlns="http://www.w3.org/2000/svg" xmlns:xlink="http://www.w3.org/1999/xlink" xml:space="preserve" xmlns:serif="http://www.serif.com/" style="fill-rule:evenodd;clip-rule:evenodd;stroke-linejoin:round;stroke-miterlimit:1.41421;"><path id="rect3267" d="M43.581,16c-1.259,0 -2.279,1.045 -2.279,2.326l0,4.511c-2.251,0.6 -4.403,1.507 -6.372,2.651l-3.209,-3.209c-0.453,-0.453 -0.995,-0.693 -1.581,-0.698c-0.586,-0.005 -1.183,0.206 -1.628,0.652l-6.279,6.279c-0.891,0.89 -0.86,2.303 0.046,3.209l3.209,3.209c-1.145,1.969 -2.051,4.121 -2.651,6.372l-4.511,0c-1.281,0 -2.326,1.02 -2.326,2.279l0,8.838c0,1.259 1.045,2.279 2.326,2.279l4.511,0c0.6,2.252 1.506,4.403 2.651,6.372l-3.209,3.209c-0.906,0.906 -0.937,2.319 -0.046,3.209l6.279,6.279c0.89,0.891 2.303,0.86 3.209,-0.046l3.209,-3.209c1.969,1.145 4.121,2.051 6.372,2.651l0,4.511c0,1.281 1.02,2.326 2.279,2.326l8.838,0c1.259,0 2.279,-1.045 2.279,-2.326l0,-4.511c2.251,-0.6 4.403,-1.506 6.372,-2.651l3.209,3.209c0.906,0.906 2.319,0.937 3.209,0.046l6.279,-6.279c0.891,-0.89 0.86,-2.303 -0.046,-3.209l-3.209,-3.209c1.145,-1.969 2.051,-4.121 2.651,-6.372l4.511,0c1.281,0 2.326,-1.02 2.326,-2.279l0,-8.838c0,-1.259 -1.045,-2.279 -2.326,-2.279l-4.511,0c-0.6,-2.251 -1.506,-4.403 -2.651,-6.372l3.209,-3.209c0.906,-0.906 0.937,-2.319 0.046,-3.209l-6.279,-6.279c-0.89,-0.891 -2.303,-0.86 -3.209,0.046l-3.209,3.209c-1.969,-1.145 -4.121,-2.051 -6.372,-2.651l0,-4.511c0,-1.281 -1.02,-2.326 -2.279,-2.326l-8.838,0Zm4.419,22.326c5.34,0 9.674,4.334 9.674,9.674c0,5.34 -4.334,9.674 -9.674,9.674c-5.34,0 -9.674,-4.334 -9.674,-9.674c0,-5.34 4.334,-9.674 9.674,-9.674Z" style="fill:none;stroke:url(#_Linear1);stroke-width:5px;"/><path id="rect32671" serif:id="rect3267" d="M43.581,16c-1.259,0 -2.279,1.045 -2.279,2.326l0,4.511c-2.251,0.6 -4.403,1.507 -6.372,2.651l-3.209,-3.209c-0.453,-0.453 -0.995,-0.693 -1.581,-0.698c-0.586,-0.005 -1.183,0.206 -1.628,0.652l-6.279,6.279c-0.891,0.89 -0.86,2.303 0.046,3.209l3.209,3.209c-1.145,1.969 -2.051,4.121 -2.651,6.372l-4.511,0c-1.281,0 -2.326,1.02 -2.326,2.279l0,8.838c0,1.259 1.045,2.279 2.326,2.279l4.511,0c0.6,2.252 1.506,4.403 2.651,6.372l-3.209,3.209c-0.906,0.906 -0.937,2.319 -0.046,3.209l6.279,6.279c0.89,0.891 2.303,0.86 3.209,-0.046l3.209,-3.209c1.969,1.145 4.121,2.051 6.372,2.651l0,4.511c0,1.281 1.02,2.326 2.279,2.326l8.838,0c1.259,0 2.279,-1.045 2.279,-2.326l0,-4.511c2.251,-0.6 4.403,-1.506 6.372,-2.651l3.209,3.209c0.906,0.906 2.319,0.937 3.209,0.046l6.279,-6.279c0.891,-0.89 0.86,-2.303 -0.046,-3.209l-3.209,-3.209c1.145,-1.969 2.051,-4.121 2.651,-6.372l4.511,0c1.281,0 2.326,-1.02 2.326,-2.279l0,-8.838c0,-1.259 -1.045,-2.279 -2.326,-2.279l-4.511,0c-0.6,-2.251 -1.506,-4.403 -2.651,-6.372l3.209,-3.209c0.906,-0.906 0.937,-2.319 0.046,-3.209l-6.279,-6.279c-0.89,-0.891 -2.303,-0.86 -3.209,0.046l-3.209,3.209c-1.969,-1.145 -4.121,-2.051 -6.372,-2.651l0,-4.511c0,-1.281 -1.02,-2.326 -2.279,-2.326l-8.838,0Zm4.419,22.326c5.34,0 9.674,4.334 9.674,9.674c0,5.34 -4.334,9.674 -9.674,9.674c-5.34,0 -9.674,-4.334 -9.674,-9.674c0,-5.34 4.334,-9.674 9.674,-9.674Z" style="fill:url(#_Linear2);fill-rule:nonzero;"/><defs><linearGradient id="_Linear1" x1="0" y1="0" x2="1" y2="0" gradientUnits="userSpaceOnUse" gradientTransform="matrix(3.98497e-15,65.0795,-65.0795,3.98497e-15,48,16)"><stop offset="0" style="stop-color:#8a8a8a;stop-opacity:0.231373"/><stop offset="1" style="stop-color:#919191;stop-opacity:1"/></linearGradient><linearGradient id="_Linear2" x1="0" y1="0" x2="1" y2="0" gradientUnits="userSpaceOnUse" gradientTransform="matrix(4.01158e-15,65.5141,-65.5141,4.01158e-15,43.1756,15.2559)"><stop offset="0" style="stop-color:#303030;stop-opacity:1"/><stop offset="1" style="stop-color:#3e3e3e;stop-opacity:1"/></linearGradient></defs></svg>