<?xml version="1.0" encoding="UTF-8" standalone="no"?><!DOCTYPE svg PUBLIC "-//W3C//DTD SVG 1.1//EN" "http://www.w3.org/Graphics/SVG/1.1/DTD/svg11.dtd"><svg width="100%" height="100%" viewBox="0 0 96 96" version="1.1" xmlns="http://www.w3.org/2000/svg" xmlns:xlink="http://www.w3.org/1999/xlink" xml:space="preserve" xmlns:serif="http://www.serif.com/" style="fill-rule:evenodd;clip-rule:evenodd;stroke-linejoin:round;stroke-miterlimit:1.41421;"><path id="path3972" d="M36,22.125l0,1.231l24,0l0,-1.231l-24,0Zm0,14l0,1.231l24,0l0,-1.231l-24,0Zm-14.74,18.875l26.74,26.81l26.648,-26.81l-1.648,0l-25,25l-25,-25l-1.74,0Z" style="fill:#fff;fill-rule:nonzero;"/><path id="Symbol" d="M36,16.125l0,6l24,0l0,-6l-24,0Zm0,10l0,10l24,0l0,-10l-24,0Zm0,14l0,13.875l-14,0l26,26l26,-26l-14,0l0,-13.875l-24,0Z" style="fill:url(#_Linear1);fill-rule:nonzero;"/><path id="path3953" d="M36,16.125l0,6l24,0l0,-6l-24,0Zm1.938,1.938l20.125,0l0,2.125l-20.125,0l0,-2.125Zm-1.938,8.062l0,10l24,0l0,-10l-24,0Zm1.938,1.938l20.125,0l0,6.125l-20.125,0l0,-6.125Zm-1.938,12.062l0,13.875l-14,0l26,26l26,-26l-14,0l0,-13.875l-24,0Zm1.938,1.938l20.125,0l0,11.937c-0.001,0.004 -0.001,0.008 -0.001,0.013c0,1.056 0.869,1.925 1.925,1.925l9.326,0l-21.313,21.312l-21.312,-21.312l9.325,0c1.056,0 1.925,-0.869 1.925,-1.925c0,-0.005 0,-0.009 0,-0.013l0,-11.937Z" style="fill-opacity:0.0980392;fill-rule:nonzero;"/><path id="path3181" d="M36,16.125l0,6l24,0l0,-6l-24,0Zm0.969,0.969l22.062,0l0,4.062l-22.062,0l0,-4.062Zm-0.969,9.031l0,10l24,0l0,-10l-24,0Zm0.969,0.969l22.062,0l0,8.062l-22.062,0l0,-8.062Zm-0.969,13.031l0,13.875l-14,0l26,26l26,-26l-14,0l0,-13.875l-24,0Zm0.969,0.969l22.062,0l0,12.912c0,0.528 0.435,0.963 0.963,0.963l11.662,0l-23.656,23.656l-23.656,-23.656l11.662,0c0.528,0 0.963,-0.435 0.963,-0.963c0,-0.002 0,-0.004 0,-0.006l0,-12.906Z" style="fill-opacity:0.2;fill-rule:nonzero;"/><path id="path3963" d="M36,16.125l0,1l24,0l0,-1l-24,0Zm0,10l0,1l24,0l0,-1l-24,0Zm0,14l0,1l24,0l0,-1l-24,0Zm-14,13.875l1,1l13,0l0,-1l-14,0Zm38,0l0,1l13,0l1,-1l-14,0Z" style="fill-opacity:0.298039;fill-rule:nonzero;"/><defs><linearGradient id="_Linear1" x1="0" y1="0" x2="1" y2="0" gradientUnits="userSpaceOnUse" gradientTransform="matrix(4.30786e-15,63.8752,-70.3526,3.91123e-15,44.2922,16.1253)"><stop offset="0" style="stop-color:#1f1f1f;stop-opacity:1"/><stop offset="1" style="stop-color:#4a4a4a;stop-opacity:1"/></linearGradient></defs></svg>