<?xml version="1.0" encoding="UTF-8" standalone="no"?><!DOCTYPE svg PUBLIC "-//W3C//DTD SVG 1.1//EN" "http://www.w3.org/Graphics/SVG/1.1/DTD/svg11.dtd"><svg width="100%" height="100%" viewBox="0 0 96 96" version="1.1" xmlns="http://www.w3.org/2000/svg" xmlns:xlink="http://www.w3.org/1999/xlink" xml:space="preserve" xmlns:serif="http://www.serif.com/" style="fill-rule:evenodd;clip-rule:evenodd;stroke-linejoin:round;stroke-miterlimit:1.41421;"><path id="path3989" d="M71.281,27.531c-0.135,2.924 -1.434,5.781 -3.875,7.844c-6.626,5.599 -11.753,-0.227 -17.531,4.656c-2.919,2.467 -3.043,5.174 -3.312,7.969c0.016,0.167 0.046,0.333 0.062,0.5c0.247,-2.615 0.508,-5.152 3.25,-7.469c5.778,-4.883 10.905,0.943 17.531,-4.656c2.719,-2.297 4.024,-5.583 3.875,-8.844Zm-47.281,21c-0.003,0.08 0.002,0.17 0,0.25c-0.003,0.157 -0.003,0.282 0,0.438c0,0.02 -0.001,0.042 0,0.062c0.002,0.06 -0.002,0.128 0,0.188c0.005,0.117 0.022,0.258 0.031,0.375c0.012,0.155 0.044,0.282 0.063,0.437c0.002,0.018 -0.002,0.045 0,0.063c0.041,0.333 0.084,0.671 0.156,1c0.004,0.017 0.027,0.045 0.031,0.062c0.035,0.156 0.052,0.315 0.094,0.469c0.094,0.348 0.214,0.662 0.344,1c0.004,0.011 -0.005,0.052 0,0.063c0.642,1.664 1.716,3.193 3.187,4.437c6.626,5.599 11.753,-0.227 17.532,4.656c5.778,4.883 0.623,10.682 7.25,16.282c2.06,1.741 4.601,2.633 7.125,2.687c3.244,0.069 6.465,-1.248 8.75,-3.844c1.956,-2.222 2.844,-4.97 2.718,-7.687c-0.108,2.387 -1.001,4.737 -2.718,6.687c-2.285,2.596 -5.506,3.913 -8.75,3.844c-2.524,-0.054 -5.065,-0.946 -7.125,-2.687c-6.627,-5.6 -1.472,-11.399 -7.25,-16.282c-5.779,-4.883 -10.906,0.943 -17.532,-4.656c-1.471,-1.244 -2.545,-2.773 -3.187,-4.437c-0.005,-0.011 0.004,-0.052 0,-0.063c-0.13,-0.338 -0.25,-0.652 -0.344,-1c-0.042,-0.154 -0.059,-0.313 -0.094,-0.469c-0.004,-0.017 -0.027,-0.045 -0.031,-0.062c-0.072,-0.329 -0.115,-0.667 -0.156,-1c-0.002,-0.018 0.002,-0.045 0,-0.063c-0.019,-0.155 -0.051,-0.282 -0.063,-0.437c-0.007,-0.098 -0.025,-0.215 -0.031,-0.313Z" style="fill:#fff;fill-opacity:0.917647;"/><path id="path3984-0-3-4-7" d="M59.799,79.997c-2.524,-0.053 -5.048,-0.931 -7.109,-2.672c-6.626,-5.599 -1.479,-11.417 -7.257,-16.3c-5.779,-4.883 -10.898,0.954 -17.525,-4.646l0,-0.008c-1.471,-1.244 -2.533,-2.784 -3.175,-4.448c-0.005,-0.011 -0.005,-0.024 -0.009,-0.035c-0.129,-0.338 -0.24,-0.678 -0.334,-1.026c-0.042,-0.154 -0.089,-0.309 -0.124,-0.465c-0.004,-0.017 -0.005,-0.035 -0.008,-0.052c-0.073,-0.328 -0.126,-0.658 -0.168,-0.991c0,-0.003 0.001,-0.006 0,-0.009c-0.002,-0.017 -0.006,-0.034 -0.008,-0.051c-0.019,-0.155 -0.033,-0.31 -0.044,-0.466c-0.009,-0.117 -0.022,-0.236 -0.027,-0.353c-0.002,-0.06 -0.007,-0.122 -0.009,-0.181c0,-0.02 0.001,-0.041 0,-0.061c-0.003,-0.156 -0.003,-0.309 0,-0.465c0.002,-0.08 0.006,-0.162 0.009,-0.241c0.006,-0.118 0.018,-0.237 0.027,-0.354c0.013,-0.173 0.031,-0.344 0.052,-0.517c0.001,-0.003 0,-0.006 0,-0.009c0.042,-0.333 0.095,-0.662 0.168,-0.991c0.003,-0.017 0.005,-0.034 0.008,-0.052c0.036,-0.156 0.081,-0.31 0.124,-0.465c0.094,-0.348 0.205,-0.687 0.334,-1.026c0.004,-0.011 0.004,-0.023 0.009,-0.034c0.642,-1.665 1.704,-3.205 3.175,-4.448l0,-0.009c6.627,-5.599 11.746,0.237 17.525,-4.646c5.778,-4.883 0.631,-10.701 7.257,-16.3c4.71,-3.98 11.818,-3.46 15.88,1.155c4.061,4.614 3.539,11.579 -1.17,15.559c-6.627,5.599 -11.746,-0.246 -17.525,4.637c-2.919,2.467 -3.046,5.178 -3.316,7.974c0.27,2.795 0.397,5.506 3.316,7.973c5.779,4.883 10.898,-0.962 17.525,4.637c4.709,3.98 5.231,10.945 1.17,15.559c-2.285,2.596 -5.527,3.896 -8.771,3.827Z" style="fill:url(#_Linear1);"/><path id="path3969" d="M59.781,16c-2.522,0.052 -5.033,0.946 -7.093,2.688c-6.627,5.599 -1.472,11.398 -7.25,16.281c-5.779,4.883 -10.906,-0.943 -17.532,4.656c-1.471,1.244 -2.545,2.805 -3.187,4.469c-0.004,0.011 0.004,0.02 0,0.031c-0.13,0.338 -0.25,0.652 -0.344,1c-0.043,0.155 -0.058,0.312 -0.094,0.469c-0.004,0.017 -0.027,0.045 -0.031,0.062c-0.072,0.329 -0.115,0.667 -0.156,1c-0.022,0.173 -0.049,0.358 -0.063,0.532c-0.009,0.117 -0.026,0.226 -0.031,0.343c-0.003,0.08 0.002,0.17 0,0.25c-0.003,0.157 -0.003,0.282 0,0.438c0,0.02 -0.001,0.042 0,0.062c0.002,0.06 -0.002,0.128 0,0.188c0.005,0.117 0.022,0.258 0.031,0.375c0.012,0.155 0.044,0.282 0.063,0.437c0.002,0.018 -0.002,0.045 0,0.063c0.041,0.333 0.084,0.671 0.156,1c0.004,0.017 0.027,0.045 0.031,0.062c0.035,0.156 0.052,0.315 0.094,0.469c0.094,0.348 0.214,0.662 0.344,1c0.004,0.011 -0.005,0.052 0,0.063c0.642,1.664 1.716,3.193 3.187,4.437c6.626,5.599 11.753,-0.227 17.532,4.656c5.778,4.883 0.623,10.682 7.25,16.282c2.06,1.741 4.601,2.633 7.125,2.687c3.244,0.069 6.465,-1.248 8.75,-3.844c4.061,-4.614 3.553,-11.551 -1.157,-15.531c-6.626,-5.599 -11.753,0.227 -17.531,-4.656c-2.919,-2.467 -3.043,-5.174 -3.312,-7.969c0.269,-2.795 0.393,-5.502 3.312,-7.969c5.778,-4.883 10.905,0.943 17.531,-4.656c4.71,-3.98 5.218,-10.917 1.157,-15.531c-2.285,-2.596 -5.538,-3.911 -8.782,-3.844Zm0.063,2c0.296,-0.006 0.579,0.01 0.875,0.031c2.367,0.173 4.668,1.253 6.344,3.157c3.345,3.8 2.914,9.374 -0.969,12.656c-2.855,2.412 -4.869,2.269 -7.656,2.125c-2.788,-0.144 -6.461,-0.355 -9.875,2.531c-3.453,2.917 -3.737,6.582 -4,9.313c-0.012,0.124 -0.012,0.25 0,0.375c0.263,2.73 0.547,6.395 4,9.312c3.414,2.886 7.087,2.675 9.875,2.531c2.787,-0.144 4.801,-0.287 7.656,2.125c3.883,3.282 4.314,8.856 0.969,12.657c-1.888,2.144 -4.548,3.244 -7.219,3.187c-2.078,-0.044 -4.148,-0.785 -5.844,-2.219c-2.855,-2.412 -2.992,-4.349 -3.25,-7.062c-0.258,-2.713 -0.585,-6.333 -4,-9.219c-3.415,-2.886 -7.088,-2.675 -9.875,-2.531c-2.787,0.144 -4.802,0.287 -7.656,-2.125c-1.2,-1.014 -2.071,-2.24 -2.594,-3.563c-0.008,-0.025 -0.027,-0.048 -0.031,-0.062c0,-0.011 0,-0.021 0,-0.031c-0.001,-0.004 0,-0.032 0,-0.032c-0.13,-0.338 -0.22,-0.585 -0.281,-0.812c0.014,0.051 0.006,-0.068 -0.063,-0.375c-0.015,-0.066 -0.017,-0.01 -0.031,-0.063c-0.007,-0.03 0.006,-0.003 0,-0.031c-0.044,-0.204 -0.086,-0.462 -0.125,-0.781c-0.003,-0.038 0.006,-0.013 0,-0.063c-0.036,-0.301 -0.066,-0.382 -0.063,-0.343c-0.014,-0.189 -0.031,-0.32 -0.031,-0.313c0.004,0.096 0.005,0.037 0,-0.156c0.003,0.092 0.003,0.091 0,-0.031c-0.003,-0.136 -0.003,-0.243 0,-0.375c0.004,-0.191 0.003,-0.254 0,-0.188c-0.001,0.02 0.015,-0.067 0.031,-0.281c0.006,-0.072 0.037,-0.233 0.063,-0.438c0.039,-0.319 0.081,-0.576 0.125,-0.781c0.001,-0.008 -0.002,-0.023 0,-0.031c0.014,-0.053 0.016,0.004 0.031,-0.063c0.072,-0.315 0.078,-0.432 0.063,-0.375c0.061,-0.227 0.151,-0.474 0.281,-0.812c0.006,-0.016 -0.006,-0.015 0,-0.031c0.523,-1.356 1.419,-2.638 2.625,-3.657c2.854,-2.412 4.869,-2.269 7.656,-2.125c2.787,0.144 6.46,0.355 9.875,-2.531c3.415,-2.886 3.742,-6.506 4,-9.219c0.258,-2.713 0.395,-4.65 3.25,-7.062c1.699,-1.436 3.77,-2.175 5.844,-2.219Z" style="fill-opacity:0.0980392;"/><path id="path3965" d="M59.781,16c-5.663,0.013 -10.914,4.82 -10.985,10.578c-0.089,3.295 -0.974,6.899 -3.898,8.818c-4.335,3.496 -10.269,0.017 -14.869,2.773c-4.868,2.422 -7.382,8.642 -5.31,13.706c1.681,4.683 6.794,7.761 11.738,7.123c3.429,-0.417 7.307,-0.027 9.723,2.726c3.847,3.68 1.335,9.812 4.726,13.745c3.655,5.022 11.523,6.087 16.279,2.012c4.773,-3.617 5.527,-11.25 1.435,-15.663c-2.483,-2.991 -6.497,-4.274 -10.297,-3.79c-3.384,0.446 -7.142,-0.255 -9.417,-2.995c-2.782,-3.307 -2.837,-8.264 -1.291,-12.133c1.684,-3.578 5.8,-5.482 9.65,-4.982c3.732,0.466 7.835,-0.124 10.57,-2.925c4.568,-4.005 4.581,-11.8 0.06,-15.845c-2.146,-2.073 -5.134,-3.22 -8.114,-3.148Zm0.032,1.094c5.851,-0.302 11.19,5.28 10.315,11.139c-0.57,5.318 -5.933,9.46 -11.231,8.668c-3.736,-0.441 -7.945,0.087 -10.568,3.063c-3.304,3.606 -3.502,9.273 -1.681,13.624c1.824,3.981 6.396,6.104 10.655,5.589c3.27,-0.374 6.887,-0.105 9.385,2.292c4.374,3.43 4.675,10.588 0.634,14.395c-3.899,4.215 -11.209,3.94 -14.937,-0.355c-3.878,-3.672 -1.375,-9.805 -4.73,-13.762c-2.423,-3.342 -6.793,-4.393 -10.717,-3.872c-3.992,0.617 -8.184,-1.164 -10.32,-4.629c-2.865,-4.305 -1.492,-10.627 2.852,-13.436c3.258,-2.66 7.561,-1.351 11.356,-1.698c4.733,-0.412 8.627,-4.622 8.853,-9.343c0.188,-3.251 0.664,-6.866 3.448,-8.996c1.815,-1.653 4.228,-2.634 6.686,-2.679Z" style="fill-opacity:0.2;"/><path id="path3980" d="M59.781,16c-2.522,0.052 -5.033,0.946 -7.093,2.688c-6.627,5.599 -1.472,11.398 -7.25,16.281c-5.779,4.883 -10.906,-0.943 -17.532,4.656c-1.471,1.244 -2.545,2.805 -3.187,4.469c-0.004,0.011 0.004,0.02 0,0.031c-0.13,0.338 -0.25,0.652 -0.344,1c-0.043,0.155 -0.058,0.312 -0.094,0.469c-0.004,0.017 -0.027,0.045 -0.031,0.062c-0.072,0.329 -0.115,0.667 -0.156,1c-0.022,0.173 -0.049,0.358 -0.063,0.532c-0.009,0.117 -0.026,0.226 -0.031,0.343c-0.003,0.08 0.002,0.17 0,0.25c-0.003,0.157 -0.003,0.282 0,0.438c0,0.02 -0.001,0.042 0,0.062c0.002,0.06 -0.002,0.128 0,0.188c0.006,-0.097 0.024,-0.186 0.031,-0.281c0.014,-0.174 0.041,-0.359 0.063,-0.532c0.041,-0.333 0.084,-0.671 0.156,-1c0.004,-0.017 0.027,-0.045 0.031,-0.062c0.036,-0.157 0.051,-0.314 0.094,-0.469c0.094,-0.348 0.214,-0.662 0.344,-1c0.004,-0.011 -0.004,-0.02 0,-0.031c0.642,-1.664 1.716,-3.225 3.187,-4.469c6.626,-5.599 11.753,0.227 17.532,-4.656c5.778,-4.883 0.623,-10.682 7.25,-16.281c4.709,-3.98 11.813,-3.459 15.875,1.156c1.717,1.95 2.61,4.3 2.718,6.687c0.126,-2.717 -0.762,-5.465 -2.718,-7.687c-2.285,-2.596 -5.538,-3.911 -8.782,-3.844Zm-13.156,32.5c-0.016,0.169 -0.046,0.33 -0.062,0.5c0.269,2.795 0.393,5.502 3.312,7.969c5.778,4.883 10.905,-0.943 17.531,4.656c2.441,2.063 3.74,4.92 3.875,7.844c0.149,-3.261 -1.156,-6.547 -3.875,-8.844c-6.626,-5.599 -11.753,0.227 -17.531,-4.656c-2.744,-2.319 -3.002,-4.851 -3.25,-7.469Z" style="fill-opacity:0.298039;"/><defs><linearGradient id="_Linear1" x1="0" y1="0" x2="1" y2="0" gradientUnits="userSpaceOnUse" gradientTransform="matrix(3.91887e-15,64,-64,3.91887e-15,44.279,16.0001)"><stop offset="0" style="stop-color:#1f1f1f;stop-opacity:1"/><stop offset="1" style="stop-color:#4a4a4a;stop-opacity:1"/></linearGradient></defs></svg>