<?xml version="1.0" encoding="UTF-8" standalone="no"?><!DOCTYPE svg PUBLIC "-//W3C//DTD SVG 1.1//EN" "http://www.w3.org/Graphics/SVG/1.1/DTD/svg11.dtd"><svg width="100%" height="100%" viewBox="0 0 96 96" version="1.1" xmlns="http://www.w3.org/2000/svg" xmlns:xlink="http://www.w3.org/1999/xlink" xml:space="preserve" xmlns:serif="http://www.serif.com/" style="fill-rule:evenodd;clip-rule:evenodd;stroke-linejoin:round;stroke-miterlimit:1.41421;"><path id="Symbol" d="M48.25,20.375c-14.72,0 -26.731,11.504 -27.625,26l-8.625,0l13.875,20.75l13.875,-20.75l-9.875,0c0.852,-9.405 8.745,-16.75 18.375,-16.75c3.562,0 6.933,1.007 9.75,2.75l4.75,-7.875c-4.217,-2.593 -9.19,-4.125 -14.5,-4.125Zm21.875,8l-13.875,20.75l9.875,0c-0.852,9.405 -8.745,16.75 -18.375,16.75c-3.562,0 -6.933,-1.007 -9.75,-2.75l-4.75,7.875c4.217,2.593 9.19,4.125 14.5,4.125c14.72,0 26.731,-11.504 27.625,-26l8.625,0l-13.875,-20.75Z" style="fill:none;stroke:url(#_Linear1);stroke-width:5px;"/><path id="Symbol1" serif:id="Symbol" d="M48.25,20.375c-14.72,0 -26.731,11.504 -27.625,26l-8.625,0l13.875,20.75l13.875,-20.75l-9.875,0c0.852,-9.405 8.745,-16.75 18.375,-16.75c3.562,0 6.933,1.007 9.75,2.75l4.75,-7.875c-4.217,-2.593 -9.19,-4.125 -14.5,-4.125Zm21.875,8l-13.875,20.75l9.875,0c-0.852,9.405 -8.745,16.75 -18.375,16.75c-3.562,0 -6.933,-1.007 -9.75,-2.75l-4.75,7.875c4.217,2.593 9.19,4.125 14.5,4.125c14.72,0 26.731,-11.504 27.625,-26l8.625,0l-13.875,-20.75Z" style="fill:url(#_Linear2);fill-rule:nonzero;"/><defs><linearGradient id="_Linear1" x1="0" y1="0" x2="1" y2="0" gradientUnits="userSpaceOnUse" gradientTransform="matrix(2.34217,59.7976,-59.7976,2.34217,48,18.0247)"><stop offset="0" style="stop-color:#8f8f8f;stop-opacity:0.223529"/><stop offset="1" style="stop-color:#919191;stop-opacity:1"/></linearGradient><linearGradient id="_Linear2" x1="0" y1="0" x2="1" y2="0" gradientUnits="userSpaceOnUse" gradientTransform="matrix(3.35248e-15,54.7502,-54.7502,3.35248e-15,42.8661,20.3752)"><stop offset="0" style="stop-color:#363636;stop-opacity:1"/><stop offset="1" style="stop-color:#494949;stop-opacity:1"/></linearGradient></defs></svg>