<?xml version="1.0" encoding="UTF-8" standalone="no"?><!DOCTYPE svg PUBLIC "-//W3C//DTD SVG 1.1//EN" "http://www.w3.org/Graphics/SVG/1.1/DTD/svg11.dtd"><svg width="100%" height="100%" viewBox="0 0 96 96" version="1.1" xmlns="http://www.w3.org/2000/svg" xmlns:xlink="http://www.w3.org/1999/xlink" xml:space="preserve" xmlns:serif="http://www.serif.com/" style="fill-rule:evenodd;clip-rule:evenodd;stroke-linejoin:round;stroke-miterlimit:1.41421;"><path id="path2928" d="M50.081,17l0,41.834c-3.322,-1.302 -7.502,-1.423 -11.659,0c-7.495,2.567 -11.917,9.012 -9.797,14.5c2.12,5.489 9.944,7.857 17.439,5.291c6.134,-2.1 10.186,-6.797 10.287,-11.463c0.007,-0.323 0.032,-0.658 0,-0.98l0,-33.702c5.513,3.501 12.655,10.781 12.541,25.277c4.645,-28.612 -9.893,-25.522 -18.811,-40.757Z" style="fill:none;stroke:url(#_Linear1);stroke-width:5px;"/><path id="path29281" serif:id="path2928" d="M50.081,17l0,41.834c-3.322,-1.302 -7.502,-1.423 -11.659,0c-7.495,2.567 -11.917,9.012 -9.797,14.5c2.12,5.489 9.944,7.857 17.439,5.291c6.134,-2.1 10.186,-6.797 10.287,-11.463c0.007,-0.323 0.032,-0.658 0,-0.98l0,-33.702c5.513,3.501 12.655,10.781 12.541,25.277c4.645,-28.612 -9.893,-25.522 -18.811,-40.757Z" style="fill:url(#_Linear2);fill-rule:nonzero;"/><defs><linearGradient id="_Linear1" x1="0" y1="0" x2="1" y2="0" gradientUnits="userSpaceOnUse" gradientTransform="matrix(-1.59266,67.3157,-67.3157,-1.59266,50.5325,15.5976)"><stop offset="0" style="stop-color:#888;stop-opacity:0.215686"/><stop offset="1" style="stop-color:#8d8d8d;stop-opacity:1"/></linearGradient><linearGradient id="_Linear2" x1="0" y1="0" x2="1" y2="0" gradientUnits="userSpaceOnUse" gradientTransform="matrix(3.83685e-15,62.6605,-62.6605,3.83685e-15,45.967,17.0003)"><stop offset="0" style="stop-color:#1f1f1f;stop-opacity:1"/><stop offset="1" style="stop-color:#4a4a4a;stop-opacity:1"/></linearGradient></defs></svg>