<?xml version="1.0" encoding="UTF-8" standalone="no"?><!DOCTYPE svg PUBLIC "-//W3C//DTD SVG 1.1//EN" "http://www.w3.org/Graphics/SVG/1.1/DTD/svg11.dtd"><svg width="100%" height="100%" viewBox="0 0 96 96" version="1.1" xmlns="http://www.w3.org/2000/svg" xmlns:xlink="http://www.w3.org/1999/xlink" xml:space="preserve" xmlns:serif="http://www.serif.com/" style="fill-rule:evenodd;clip-rule:evenodd;stroke-linejoin:round;stroke-miterlimit:1.41421;"><g id="layer1"><path id="path3771" d="M60.875,27.5l-2.875,4.875c-2.817,-1.743 -6.188,-2.75 -9.75,-2.75c-9.63,0 -17.523,7.345 -18.375,16.75l0.875,0c2.412,-7.379 9.306,-12.75 17.5,-12.75c3.562,0 6.933,1.007 9.75,2.75l4.75,-7.875c-0.607,-0.373 -1.238,-0.672 -1.875,-1Zm-2,21.625l-2.625,4l9,0c0.423,-1.294 0.748,-2.597 0.875,-4l-7.25,0Zm16.5,0c-0.894,14.496 -12.905,26 -27.625,26c-4.546,0 -8.836,-1.175 -12.625,-3.125l-1.875,3c4.217,2.593 9.19,4.125 14.5,4.125c14.72,0 26.731,-11.504 27.625,-26l8.625,0l-2.625,-4l-6,0Zm-63.375,1.25l13.875,20.75l13.875,-20.75l-2.625,0l-11.25,16.75l-11.25,-16.75l-2.625,0Z" style="fill:#fff;fill-opacity:0.866667;fill-rule:nonzero;"/><path id="Symbol" d="M48.25,20.375c-14.72,0 -26.731,11.504 -27.625,26l-8.625,0l13.875,20.75l13.875,-20.75l-9.875,0c0.852,-9.405 8.745,-16.75 18.375,-16.75c3.562,0 6.933,1.007 9.75,2.75l4.75,-7.875c-4.217,-2.593 -9.19,-4.125 -14.5,-4.125Zm21.875,8l-13.875,20.75l9.875,0c-0.852,9.405 -8.745,16.75 -18.375,16.75c-3.562,0 -6.933,-1.007 -9.75,-2.75l-4.75,7.875c4.217,2.593 9.19,4.125 14.5,4.125c14.72,0 26.731,-11.504 27.625,-26l8.625,0l-13.875,-20.75Z" style="fill:url(#_Linear1);fill-rule:nonzero;"/><path id="path3762" d="M48.25,20.375c-14.72,0 -26.731,11.504 -27.625,26l-8.625,0l2.625,4l6,0c0.894,-14.496 12.905,-26 27.625,-26c4.546,0 8.836,1.175 12.625,3.125l1.875,-3c-4.217,-2.593 -9.19,-4.125 -14.5,-4.125Zm21.875,8l-13.875,20.75l2.625,0l11.25,-16.75l11.25,16.75l2.625,0l-13.875,-20.75Zm-39.375,18c-0.423,1.294 -0.748,2.597 -0.875,4l7.25,0l2.625,-4l-9,0Zm34.5,6.75c-2.412,7.379 -9.306,12.75 -17.5,12.75c-3.562,0 -6.933,-1.007 -9.75,-2.75l-4.75,7.875c0.607,0.373 1.238,0.672 1.875,1l2.875,-4.875c2.817,1.743 6.188,2.75 9.75,2.75c9.63,0 17.523,-7.345 18.375,-16.75l-0.875,0Z" style="fill-opacity:0.294118;fill-rule:nonzero;"/><path id="path3728" d="M48.25,20.375c-14.72,0 -26.731,11.504 -27.625,26l-8.625,0l13.875,20.75l13.875,-20.75l-9.875,0c0.852,-9.405 8.745,-16.75 18.375,-16.75c3.562,0 6.933,1.007 9.75,2.75l4.75,-7.875c-4.217,-2.593 -9.19,-4.125 -14.5,-4.125Zm0,1.875c4.288,0 8.246,1.234 11.813,3.094l-2.813,4.656c-2.737,-1.353 -5.759,-2.25 -9,-2.25c-10.582,0 -19.312,8.116 -20.25,18.469c-0.004,0.052 -0.007,0.105 -0.007,0.158c0,1.028 0.846,1.873 1.873,1.873l6.384,0l-10.375,15.5l-10.375,-15.5l5.125,0c0.983,0.003 1.811,-0.769 1.875,-1.75c0.835,-13.529 12.005,-24.25 25.75,-24.25Zm21.875,6.125l-13.875,20.75l9.875,0c-0.852,9.405 -8.745,16.75 -18.375,16.75c-3.562,0 -6.933,-1.007 -9.75,-2.75l-4.75,7.875c4.217,2.593 9.19,4.125 14.5,4.125c14.72,0 26.731,-11.504 27.625,-26l8.625,0l-13.875,-20.75Zm0,3.375l10.375,15.5l-5.125,0c-0.983,-0.003 -1.811,0.769 -1.875,1.75c-0.835,13.529 -12.005,24.25 -25.75,24.25c-4.288,0 -8.246,-1.234 -11.813,-3.094l2.813,-4.656c2.737,1.353 5.759,2.25 9,2.25c10.582,0 19.312,-8.116 20.25,-18.469c0.004,-0.052 0.007,-0.105 0.007,-0.158c0,-1.028 -0.846,-1.873 -1.873,-1.873c-0.003,0 -0.006,0 -0.009,0l-6.375,0l10.375,-15.5Z" style="fill-opacity:0.294118;fill-rule:nonzero;"/></g><defs><linearGradient id="_Linear1" x1="0" y1="0" x2="1" y2="0" gradientUnits="userSpaceOnUse" gradientTransform="matrix(3.35248e-15,54.7502,-54.7502,3.35248e-15,42.8661,20.3752)"><stop offset="0" style="stop-color:#1f1f1f;stop-opacity:1"/><stop offset="1" style="stop-color:#4a4a4a;stop-opacity:1"/></linearGradient></defs></svg>