<svg style="clip-rule:evenodd;fill-rule:evenodd;stroke-linejoin:round;stroke-miterlimit:2" version="1.1" viewBox="0 0 48 48" xmlns="http://www.w3.org/2000/svg" xmlns:serif="http://www.serif.com/">
 <g transform="scale(.09375)">
  <circle cx="256" cy="256" r="251.065" style="fill:url(#_Linear1)"/>
 </g>
 <g id="penguin-distributor" transform="scale(.09375)" serif:id="penguin distributor">
  <path d="m272.858 61.413c-20.383 14.445-62.266 46.186-91.819 199.739 0 32.523-3.949 69.165-1.803 105.149 1.26 21.122 5.854 47.667 11.285 57.944 12.325 6.501 26.33 7.825 36.206 16.984 8.294 7.694 12.859 15.059 15.772 13.086 25.464-17.481 51.496-16.507 66.489-34.54 7.556-25.122 8.233-50.038 22.28-74.079 14.15-24.218 23.852-56.824 22.07-93.745-1.262-26.171-3.763-66.852-12.349-84.263-9.172-18.603-20.073-37.523-30.491-53.579-15.392-23.724-29.903-42.236-37.64-52.696z" style="fill:url(#_Linear2)"/>
  <path d="m295.775 51.607c-6.016 1.804-12.118 3.264-18.048 5.412-10.915 3.952-19.165 11.426-26.728 20.017-9.626 10.911-18.22 22.423-26.04 34.708-5.329 8.334-13.493 15.689-19.681 23.507-16.673 21.048-35.861 49.407-41.361 75.438-3.18 15.292-8.546 30.199-8.718 45.835-0.172 16.924-0.258 33.934-1.032 50.859-0.601 13.918-3.008 43.385-3.008 45.017 1.376-1.117 26.274-26.718 28.336-41.924 2.407-18.643 4.899-37.286 7.219-55.928 2.063-17.097 6.446-33.678 11.946-50.001 2.493-7.388 4.985-14.862 6.618-22.508 1.461-6.701 1.461-13.66 2.406-20.533 1.547-11.083 14.524-24.246 22.517-32.579 9.626-9.966 18.993-20.275 28.447-30.413 0.773-0.859 1.89-2.405 1.633-3.007-0.43-1.031-1.891-2.148-3.094-2.233-2.407-0.258-4.899 0.085-7.305 0.343-1.289 0.172-2.579 0.773-4.555 1.375 0.344-1.804 0.344-3.093 0.859-4.124 3.782-7.732 8.594-14.691 15.556-20.017 0.773-0.602 1.547-1.031 2.406-1.461 3.61-1.89 6.618-1.718 8.508 0.258 2.579 2.663 3.352 7.388 1.203 10.395-1.375 1.976-3.523 3.351-5.328 4.897-0.859 0.687-2.063 1.203-3.867 2.148 2.406 0.945 4.039 1.89 5.844 2.32 4.297 1.03 8.594 2.233 12.977 2.577 8.938 0.687 15.126 5.584 20.282 12.285 2.321 3.007 4.297 6.272 6.704 9.88 0.687-2.32 1.289-4.382 1.976-6.529 1.977-6.358 3.868-12.629 5.844-18.901 0.344-1.031 1.204-2.148 2.149-2.835 7.821-5.24 15.641-10.996 25.525-11.512 6.187-0.344 12.461 0.172 18.649 0.344v-0.516c-0.773-0.687-1.547-1.288-2.234-1.976-3.61-3.952-8.165-5.584-13.407-5.67-9.454-0.172-18.822-0.945-27.416-5.67-6.703-3.694-13.407-7.302-20.884-9.192-1.547-0.086-3.265-0.086-4.898-0.086z" style="fill-rule:nonzero"/>
  <path d="m340.781 167.686c-4.372-10.365-18.264-38.257-22.136-40.214 0.761 3.371 8.119 35.495 8.761 40.214 2.652 19.496 14.004 67.814 13.375 85.545-0.675 18.999 0.877 35.444-1.873 52.712-2.492 15.722-5.071 31.358-7.563 47.079-0.172 1.031 0 2.148 0 3.523 0.602-0.344 0.945-0.516 1.117-0.688 8.852-12.285 17.36-24.828 24.236-38.402 6.188-12.199 10.29-24.497 12.009-37.985 2.493-18.987 1.407-38.132-4.093-56.002-5.672-18.299-20.141-48.909-23.833-55.782z" style="fill-rule:nonzero"/>
  <path d="m227.593 441.901c2.492 5.498 5.414 10.653 10.485 14.433 2.406 1.804 4.984 2.062 7.391 0.601 3.265-1.976 6.359-4.209 9.453-6.529 4.899-3.608 10.001-6.599 15.158-9.691 4.558-1.501 7.973-3.235 12.013-4.352 2.664-0.687 3.338-0.734 3.854 2.015 0.688 3.866-0.172 7.389-2.492 10.653-1.117 1.633-2.407 3.093-3.352 4.811-1.977 3.609-0.773 5.842 3.352 6.444 1.203 0.172 2.406 0.086 3.609 0.086 8.165 0 16.329-0.086 24.58-0.086 4.383 0 4.726-0.344 5.758-4.725 7.735 3.952 16.071 3.522 24.579 3.522-0.43-2.491-1.891-4.124-3.781-4.553-8.251-2.148-13.063-9.021-19.423-13.66-1.633-1.203-1.805-2.749-1.633-4.468 1.289-10.223 2.406-20.446 3.867-30.67 1.805-13.058 1.805-26.203 1.204-39.433-0.344 1.804-0.602 3.608-1.118 5.412-3.437 11.513-6.789 22.939-10.313 34.365-3.437 11.082-11.086 17.783-22.431 19.845-14.696 2.749-26.985 10.138-38.244 19.416-2.062 1.718-4.125 3.351-6.187 4.897-3.438 2.492-6.36 2.32-9.282-0.773-1.633-1.718-2.922-3.694-4.469-5.584-0.688-0.859-1.375-1.633-2.149-2.492-0.086 0.172-0.258 0.344-0.429 0.516z" style="fill-rule:nonzero"/>
  <path d="m179.238 366.299c-0.774 13.144-1.29 26.031-2.235 38.832-0.687 9.794-2.063 19.502-3.008 29.21-0.43 4.811-3.094 8.075-7.305 10.051-4.899 2.234-10.055 4.124-15.126 6.186-3.351 1.374-6.617 2.835-8.508 6.185-0.344 0.602-0.687 1.375-1.031 1.976 0.258 0.258 0.429 0.43 0.515 0.43 5.758-2.148 11.603-1.203 17.447-0.859 4.984 0.343 10.055 0.172 15.039 0.172 12.548-0.172 25.009-0.43 37.557-0.688 0.516 0 1.031-0.086 1.805-0.086-0.688-3.951-2.063-7.388-4.813-10.223-1.461-1.546-3.008-3.007-4.469-4.553-0.773-0.859-1.461-1.89-1.977-2.921-0.859-2.148-1.117-4.296 0.516-6.272s3.867-1.89 6.102-1.46c0.773 0.172 1.547 0.343 2.32 0.601 0.172-0.172 0.43-0.429 0.602-0.601-1.805-3.093-3.61-6.272-5.5-9.279-0.172-0.257-0.688-0.429-1.118-0.515-7.648-1.031-11.86-6.1-14.782-12.629-3.867-8.677-5.156-17.955-6.016-27.234-0.343-3.608-1.031-7.045-3.093-10.137-0.946-2.062-1.805-4.038-2.922-6.186z" style="fill-rule:nonzero"/>
 </g>
 <defs>
  <linearGradient id="_Linear1" x2="1" gradientTransform="matrix(-5.64544,502.068,-502.068,-5.64544,-2216.06,-22.863)" gradientUnits="userSpaceOnUse">
   <stop style="stop-color:rgb(183,183,183)" offset="0"/>
   <stop style="stop-color:rgb(111,111,111)" offset="1"/>
  </linearGradient>
  <linearGradient id="_Linear2" x2="1" gradientTransform="matrix(-20.5954,391.094,-391.094,-20.5954,-23755.8,-1202.96)" gradientUnits="userSpaceOnUse">
   <stop style="stop-color:rgb(253,253,253)" offset="0"/>
   <stop style="stop-color:rgb(191,191,191)" offset="1"/>
  </linearGradient>
 </defs>
</svg>
