<svg style="clip-rule:evenodd;fill-rule:evenodd;stroke-linejoin:round;stroke-miterlimit:2" version="1.1" viewBox="0 0 64 64" xmlns="http://www.w3.org/2000/svg">
 <path d="m63.492 18.338c0.094-1.382-0.389-2.741-1.335-3.753-0.945-1.012-2.269-1.587-3.654-1.587h-48.22c-2.629 0-4.809 2.037-4.988 4.66-0.511 7.502-1.514 22.214-2.053 30.128-0.094 1.382 0.389 2.741 1.335 3.753 0.945 1.012 2.269 1.587 3.654 1.587h48.22c2.629 0 4.809-2.037 4.988-4.66 0.511-7.502 1.514-22.214 2.053-30.128z" style="fill:#586973"/>
 <path d="m58.91 20.652c-0.09-1.326-0.704-2.598-1.706-3.536-1.002-0.937-2.309-1.464-3.635-1.464h-25.58c-1.232 0-2.451-0.455-3.424-1.277-0.814-0.689-1.817-1.535-2.632-2.224-0.973-0.822-2.192-1.277-3.424-1.277h-13.509c-1.326 0-2.561 0.527-3.435 1.465-0.874 0.937-1.315 2.209-1.224 3.535l2.196 32.252c0.188 2.761 2.58 5 5.341 5h48.244c2.761 0 4.847-2.239 4.659-5l-1.871-27.474z" style="fill:url(#_Linear1)"/>
 <defs>
  <linearGradient id="_Linear1" x2="1" gradientTransform="matrix(2.64648e-15,-41.6338,43.2203,2.54933e-15,459.458,52.7218)" gradientUnits="userSpaceOnUse">
   <stop style="stop-color:#5e787e" offset="0"/>
   <stop style="stop-color:#a0aeb1" offset="1"/>
  </linearGradient>
 </defs>
</svg>
