<?xml version="1.0" encoding="UTF-8" standalone="no"?>
<!DOCTYPE svg PUBLIC "-//W3C//DTD SVG 1.1//EN" "http://www.w3.org/Graphics/SVG/1.1/DTD/svg11.dtd">
<svg width="100%" height="100%" viewBox="0 0 32 32" version="1.1" xmlns="http://www.w3.org/2000/svg" xmlns:xlink="http://www.w3.org/1999/xlink" xml:space="preserve" xmlns:serif="http://www.serif.com/" style="fill-rule:evenodd;clip-rule:evenodd;stroke-linejoin:round;stroke-miterlimit:1.41421;">
    <g transform="matrix(1.11754,0,0,1.11754,-431.587,-578.258)">
        <circle cx="400.571" cy="531.798" r="14" style="fill:url(#_Linear1);"/>
    </g>
    <g transform="matrix(0.263458,0,0,0.263458,0.623772,-0.209585)">
        <path d="M41.7,96.21L37.5,91.56L33.21,93.91L33.21,74.19C33.479,74.151 33.751,74.151 34.02,74.19C36.36,74.71 38.69,75.19 41.02,75.83C41.409,75.98 41.698,76.314 41.79,76.72C41.84,83 41.79,89.27 41.79,95.54C41.773,95.765 41.743,95.989 41.7,96.21ZM44.66,79.91C44.929,79.931 45.196,79.972 45.46,80.03C50.12,81.64 54.61,80.03 59.12,79.26C70.18,77.26 81.23,75.16 92.28,73.1C93.28,72.91 94.28,72.71 95.34,72.54C95.521,72.492 95.708,72.467 95.896,72.467C96.897,72.467 97.774,73.164 98,74.14C98.03,74.278 98.045,74.419 98.045,74.561C98.045,75.637 97.176,76.53 96.1,76.56L69.66,81.56L51.2,85.05C49.02,85.46 47.06,84.44 45.01,84.05C44.86,84.05 44.68,83.68 44.68,83.48C44.64,82.42 44.66,81.27 44.66,79.91ZM23.65,66.26C23.65,69.1 23.65,71.81 23.65,74.51C23.65,74.78 24.25,75.18 24.65,75.28C26.377,75.727 28.123,76.127 29.89,76.48C30.55,76.61 30.75,76.9 30.73,77.48C30.73,78.54 30.73,79.6 30.73,80.85C27.98,80.23 25.5,79.69 23.03,79.11C19.17,78.21 19.17,78.19 19.17,74.21C19.17,70.877 19.17,67.517 19.17,64.13C19.17,61.98 20.09,61.28 22.17,61.76C30.89,63.7 39.61,65.62 48.32,67.59C50.5,68.09 52.52,67.36 54.57,66.99C68.27,64.52 81.95,61.99 95.64,59.49C95.784,59.455 95.932,59.437 96.081,59.437C96.961,59.437 97.728,60.059 97.91,60.92C97.944,61.068 97.961,61.219 97.961,61.371C97.961,62.337 97.261,63.172 96.31,63.34C94.64,63.71 92.95,64 91.26,64.34C78.17,66.78 65.06,69.16 51.98,71.68C50.17,71.909 48.333,71.749 46.59,71.21C39.3,69.63 32.03,68 24.74,66.39C24.49,66.33 24.14,66.32 23.65,66.26ZM23.64,45.14C23.64,47.99 23.64,50.67 23.64,53.34C23.64,53.62 24.14,54.05 24.47,54.12C32.86,56.12 41.24,58.12 49.67,59.83C51.24,60.16 53.04,59.45 54.72,59.14C68.213,56.6 81.697,54.047 95.17,51.48C95.385,51.412 95.609,51.377 95.834,51.377C96.838,51.377 97.719,52.066 97.96,53.04C98.19,54.3 97.46,55.2 95.96,55.49C80.953,58.35 65.953,61.2 50.96,64.04C50.373,64.16 49.767,64.16 49.18,64.04C39.933,61.94 30.68,59.823 21.42,57.69C19.7,57.29 19.21,56.69 19.21,54.96C19.21,50.96 19.21,46.96 19.21,42.96C19.192,42.844 19.183,42.727 19.183,42.61C19.183,41.38 20.181,40.363 21.41,40.34C36.457,37.48 51.507,34.633 66.56,31.8C67.19,31.717 67.83,31.765 68.44,31.94C77.58,34.013 86.717,36.1 95.85,38.2C96.77,38.41 97.65,38.71 97.96,39.75C98.027,39.949 98.061,40.157 98.061,40.367C98.061,41.371 97.281,42.217 96.28,42.3C92.96,42.99 89.62,43.6 86.28,44.24C74.68,46.447 63.08,48.65 51.48,50.85C50.628,51.02 49.752,51.02 48.9,50.85C40.84,49.04 32.8,47.18 24.75,45.34C24.384,45.252 24.014,45.185 23.64,45.14Z" style="fill:url(#_Linear2);fill-rule:nonzero;"/>
    </g>
    <defs>
        <linearGradient id="_Linear1" x1="0" y1="0" x2="1" y2="0" gradientUnits="userSpaceOnUse" gradientTransform="matrix(0.18732,-28.3016,28.3016,0.18732,400.512,546.074)"><stop offset="0" style="stop-color:rgb(57,125,6);stop-opacity:1"/><stop offset="1" style="stop-color:rgb(146,208,85);stop-opacity:1"/></linearGradient>
        <linearGradient id="_Linear2" x1="0" y1="0" x2="1" y2="0" gradientUnits="userSpaceOnUse" gradientTransform="matrix(0.4621,-64.4495,64.4495,0.4621,53.4682,96.21)"><stop offset="0" style="stop-color:rgb(229,229,229);stop-opacity:1"/><stop offset="1" style="stop-color:white;stop-opacity:1"/></linearGradient>
    </defs>
</svg>
