<svg clip-rule="evenodd" fill-rule="evenodd" stroke-linejoin="round" stroke-miterlimit="2" viewBox="0 0 48 48" xmlns="http://www.w3.org/2000/svg" xmlns:xlink="http://www.w3.org/1999/xlink"><linearGradient id="a" gradientTransform="matrix(0 -31.22535 31.22535 0 333.70625 39.38585)" gradientUnits="userSpaceOnUse" x2="1"><stop offset="0" stop-color="#9b3000"/><stop offset="1" stop-color="#ff8720"/></linearGradient><path d="m45.683 11.7545c0-2.0715-1.67925-3.75-3.75-3.75h-36.183c-2.07075 0-3.75 1.6785-3.75 3.75v24.1845c0 2.07075 1.67925 3.75 3.75 3.75h36.183c2.07075 0 3.75-1.67925 3.75-3.75z" style="clip-rule:evenodd;fill-rule:evenodd;stroke-width:.75;stroke-linejoin:round;stroke-miterlimit:2;fill:#ac3f06"/><path d="m45.683 15.3335c0-.9945-.39525-1.9485-1.09875-2.652-.7035-.70275-1.65675-1.098-2.65125-1.098h-19.185c-.924 0-1.815-.34125-2.50275-.95775-.576-.51675-1.28475-1.15125-1.86075-1.668-.68775-.6165-1.57875-.95775-2.50275-.95775h-10.13175c-.9945 0-1.94775.39525-2.65125 1.09875-.7035.70275-1.09875 1.65675-1.09875 2.65125v24.189c0 2.07075 1.67925 3.75 3.75 3.75h36.183c2.07075 0 3.75-1.67925 3.75-3.75z" style="clip-rule:evenodd;fill-rule:evenodd;stroke-width:.75;stroke-linejoin:round;stroke-miterlimit:2;fill:url(#a)"/><path d="m26.954 21.875 8.198.435-6.374 5.103 2.114 7.821-6.892-4.397-6.892 4.397 2.114-7.821-6.374-5.103 8.198-.435 2.954-7.551zm-2.954-5.139v12.985l5.419 3.458-1.662-6.15 5.013-4.013-6.447-.342-2.323-5.939z" fill="#7d1b00" fill-rule="nonzero"/></svg>