<svg clip-rule="evenodd" fill-rule="evenodd" stroke-linejoin="round" stroke-miterlimit="2" viewBox="0 0 48 48" xmlns="http://www.w3.org/2000/svg" xmlns:xlink="http://www.w3.org/1999/xlink"><linearGradient id="a" gradientTransform="matrix(0 -31.22535 31.22535 0 333.70625 39.38585)" gradientUnits="userSpaceOnUse" x2="1"><stop offset="0" stop-color="#9b3000"/><stop offset="1" stop-color="#ff8720"/></linearGradient><path d="m45.841 11.91c0-2.072-1.679-3.75-3.75-3.75h-36.183c-2.07 0-3.75 1.678-3.75 3.75v24.185c0 2.07 1.68 3.75 3.75 3.75h36.183c2.071 0 3.75-1.68 3.75-3.75z" fill="#ac3f06"/><path d="m45.841 15.489c0-.995-.395-1.948-1.098-2.652-.704-.703-1.657-1.098-2.652-1.098h-19.185c-.924 0-1.815-.341-2.502-.958-.576-.516-1.285-1.151-1.861-1.668-.688-.616-1.579-.957-2.503-.957h-10.131c-.995 0-1.948.395-2.652 1.098-.703.703-1.098 1.657-1.098 2.652v24.189c0 2.07 1.679 3.75 3.75 3.75h36.182c2.071 0 3.75-1.68 3.75-3.75z" fill="url(#a)"/><path d="m28.647 27.939c-1.708.301-3.234.752-4.464 1.013v1.092l7.302-.112.755-1.74s-1.293-.659-3.593-.253zm-9.294 0c1.708.301 3.234.752 4.464 1.013v1.092l-6.934-.112-1.123-1.74s1.293-.659 3.593-.253zm9.434-9.801c-2.162.645-4.604 1.881-4.604 1.881l.036 8.665s2.091-.681 4.4-1.325c2.153-.6 3.621.155 3.621.155v-8.647s-1.247-1.388-3.453-.729zm-9.574 0c2.162.645 4.604 1.881 4.604 1.881l-.036 8.665s-2.091-.681-4.4-1.325c-2.153-.6-3.621.155-3.621.155v-8.647s1.247-1.388 3.453-.729z" fill="#7d1b00" fill-rule="nonzero"/></svg>