<svg
    style="clip-rule:evenodd;fill-rule:evenodd;stroke-linejoin:round;stroke-miterlimit:2"
    viewBox="0 0 48 48"
    xmlns="http://www.w3.org/2000/svg" 
    xmlns:xlink="http://www.w3.org/1999/xlink">
    <linearGradient
        id="a"
        gradientTransform="matrix(0 -31.225 31.225 0 333.71 39.386)" 
        gradientUnits="userSpaceOnUse"
        x2="1">
        <stop offset="0" stop-color="#9b3000"/>
        <stop offset="1" stop-color="#ff8720"/>
    </linearGradient>
<path 
    d="m45.841 11.91c0-2.072-1.679-3.75-3.75-3.75h-36.183c-2.07 0-3.75 1.678-3.75 3.75v24.185c0 2.07 1.68 3.75 3.75 3.75h36.183c2.071 0 3.75-1.68 3.75-3.75z"  
        fill="#ac3f06"
        id="path1"/>
<path 
    d="m45.841 15.489c0-.995-.395-1.948-1.098-2.652-.704-.703-1.657-1.098-2.652-1.098h-19.185c-.924 0-1.815-.341-2.502-.958-.576-.516-1.285-1.151-1.861-1.668-.688-.616-1.579-.957-2.503-.957h-10.131c-.995 0-1.948.395-2.652 1.098-.703.703-1.098 1.657-1.098 2.652v24.189c0 2.07 1.679 3.75 3.75 3.75h36.182c2.071 0 3.75-1.68 3.75-3.75z" 
    fill="url(#a)"
    id="path2"/>
<path 
    d="m22.463 14.585s.954.584.282 2.119c-1.02 2.314.939 2.843.939 2.843s-.622-.543.207-2.452c.917-2.115-1.428-2.51-1.428-2.51zm3.151 2.617s-1.734.77-.617 2.875c.739 1.395-.081 2.086-.081 2.086s2.095-.69 1.085-2.616c-.908-1.74-.387-2.345-.387-2.345zm-4.92.772s-1.242 1.323-.012 2.946c.813 1.081.281 2.016.281 2.016s1.539-1.365.426-2.859c-1.005-1.348-.695-2.103-.695-2.103zm10.01 5.518h-14.176c.001 0 1.525 6.096 2.183 8.731.176.7.804 1.192 1.526 1.192h6.747c.672 0 1.269-.426 1.487-1.061.106-.309.196-.568.196-.568.276.069.56.117.856.117 1.956-.001 3.544-1.258 3.544-3.215 0-1.66-1.147-3.043-2.689-3.427l.326-1.77zm-.609 2.91c.013.002.026.004.039.007.63.17 2.022.996 1.581 2.657-.486 1.833-2.091 1.779-2.716 1.657z" 
    fill="#7d1b00"
    id="path3"/>
</svg>