<svg
    style="clip-rule:evenodd;fill-rule:evenodd;stroke-linejoin:round;stroke-miterlimit:2"
    viewBox="0 0 48 48"
    xmlns="http://www.w3.org/2000/svg" 
    xmlns:xlink="http://www.w3.org/1999/xlink">
    <linearGradient
        id="a"
        gradientTransform="matrix(0 -31.225 31.225 0 333.71 39.386)" 
        gradientUnits="userSpaceOnUse"
        x2="1">
        <stop offset="0" stop-color="#9b3000"/>
        <stop offset="1" stop-color="#ff8720"/>
    </linearGradient>
    <path 
        d="m45.841 11.91c0-2.072-1.679-3.75-3.75-3.75h-36.183c-2.07 0-3.75 1.678-3.75 3.75v24.185c0 2.07 1.68 3.75 3.75 3.75h36.183c2.071 0 3.75-1.68 3.75-3.75z"  
        fill="#ac3f06"
        id="path1"/>
    <path 
        d="m45.841 15.489c0-.995-.395-1.948-1.098-2.652-.704-.703-1.657-1.098-2.652-1.098h-19.185c-.924 0-1.815-.341-2.502-.958-.576-.516-1.285-1.151-1.861-1.668-.688-.616-1.579-.957-2.503-.957h-10.131c-.995 0-1.948.395-2.652 1.098-.703.703-1.098 1.657-1.098 2.652v24.189c0 2.07 1.679 3.75 3.75 3.75h36.182c2.071 0 3.75-1.68 3.75-3.75z" 
        fill="url(#a)"
        id="path2"/>
    <path 
        d="m18.16 20.212c-.722 0-1.44.145-2.11.427-.669.282-1.28.699-1.796 1.225-.515.526-.93 1.155-1.211 1.847s-.425 1.439-.425 2.19.144 1.498.425 2.19.696 1.319 1.211 1.845c.516.525 1.127.942 1.796 1.225.654.276 1.356.418 2.061.424.017.001.032.002.049.002 1.715.082 3.096-.598 4.108-1.587.692-.675 1.236-1.474 1.732-2.287.496.813 1.04 1.612 1.732 2.287 1.011.989 2.392 1.669 4.108 1.587.016 0 .032-.001.049-.002.705-.006 1.406-.148 2.06-.424.669-.283 1.281-.7 1.796-1.225l.005-.007c.514-.525.927-1.148 1.207-1.838.281-.692.425-1.439.425-2.19s-.144-1.498-.425-2.19l-.006-.011c-.282-.687-.692-1.312-1.206-1.836-.515-.526-1.127-.942-1.796-1.225-.668-.282-1.387-.426-2.109-.426-1.807 0-3.234.742-4.288 1.776-.609.597-1.103 1.28-1.552 1.978-.448-.698-.942-1.381-1.551-1.978-1.054-1.034-2.481-1.776-4.289-1.776zm.207 2.277c1.284 0 2.104.433 2.856 1.151.597.57 1.12 1.345 1.639 2.19-.592.987-1.165 1.889-1.808 2.501-.708.674-1.441 1.045-2.641.98h-.046c-.458 0-.92-.091-1.341-.264-.415-.171-.797-.426-1.113-.736l-.014-.011c-.319-.317-.576-.698-.747-1.107-.171-.408-.258-.853-.258-1.294 0-.44.087-.885.258-1.294.17-.408.428-.788.747-1.104l.013-.014c.317-.31.699-.563 1.114-.734.421-.173.883-.264 1.341-.264zm11.266 0c.457 0 .919.091 1.34.264.415.171.797.423 1.114.734l.013.013c.319.317.576.696.747 1.105.171.407.258.852.258 1.293 0 .44-.087.885-.258 1.294-.17.408-.428.79-.746 1.107l-.014.011c-.316.31-.698.565-1.113.736-.421.173-.883.264-1.341.264h-.047c-1.199.065-1.932-.306-2.64-.98-.644-.611-1.216-1.514-1.808-2.501.519-.845 1.042-1.62 1.638-2.189.753-.72 1.573-1.152 2.857-1.152zm-1.081 1.138v1.138h-1.138v2.276h1.138v1.139h2.277v-1.139h1.138v-2.276h-1.138v-1.138zm-12.519 1.138v2.276h4.552v-2.276z" 
        fill="#7d1b00" 
        id="path3"/>
</svg>