<svg
    style="clip-rule:evenodd;fill-rule:evenodd;stroke-linejoin:round;stroke-miterlimit:2"
    viewBox="0 0 48 48"
    xmlns="http://www.w3.org/2000/svg" 
    xmlns:xlink="http://www.w3.org/1999/xlink">
    <linearGradient
        id="a"
        gradientTransform="matrix(0 -31.225 31.225 0 333.71 39.386)" 
        gradientUnits="userSpaceOnUse"
        x2="1">
        <stop offset="0" stop-color="#9b3000"/>
        <stop offset="1" stop-color="#ff8720"/>
    </linearGradient>
<path 
    d="m45.841 11.91c0-2.072-1.679-3.75-3.75-3.75h-36.183c-2.07 0-3.75 1.678-3.75 3.75v24.185c0 2.07 1.68 3.75 3.75 3.75h36.183c2.071 0 3.75-1.68 3.75-3.75z"  
        fill="#ac3f06"
        id="path1"/>
<path 
    d="m45.841 15.489c0-.995-.395-1.948-1.098-2.652-.704-.703-1.657-1.098-2.652-1.098h-19.185c-.924 0-1.815-.341-2.502-.958-.576-.516-1.285-1.151-1.861-1.668-.688-.616-1.579-.957-2.503-.957h-10.131c-.995 0-1.948.395-2.652 1.098-.703.703-1.098 1.657-1.098 2.652v24.189c0 2.07 1.679 3.75 3.75 3.75h36.182c2.071 0 3.75-1.68 3.75-3.75z" 
    fill="url(#a)"
    id="path2"/>
<path 
    d="m25.973 18.304c-1.979 0-3.788 1.113-4.686 2.877-.392-.161-.814-.244-1.237-.245-1.646 0-3.036 1.22-3.256 2.851-1.594.548-2.665 2.046-2.667 3.731 0 2.181 1.769 3.951 3.949 3.951h11.848c2.181 0 3.949-1.77 3.949-3.951-.002-1.676-1.06-3.168-2.642-3.721.005-.076.008-.153.01-.229 0-2.908-2.359-5.264-5.268-5.264z" 
    fill="#7d1b00"
    id="path3"/>
</svg>