<svg clip-rule="evenodd" fill-rule="evenodd" stroke-linejoin="round" stroke-miterlimit="2" viewBox="0 0 128 128" xmlns="http://www.w3.org/2000/svg" xmlns:xlink="http://www.w3.org/1999/xlink"><linearGradient id="a" gradientTransform="matrix(55.3026 106.602 -106.602 55.3026 31.915 12.3374)" gradientUnits="userSpaceOnUse" x2="1"><stop offset="0" stop-color="#00f5ff"/><stop offset="1" stop-color="#ff00e6"/></linearGradient><linearGradient id="b" gradientTransform="matrix(-.000008 -105.667 105.667 -.000008 64 116.833)" gradientUnits="userSpaceOnUse" x2="1"><stop offset="0" stop-color="#0039ab"/><stop offset="1" stop-color="#008eff"/></linearGradient><linearGradient id="c" gradientTransform="matrix(-.197428 -60.0411 60.0411 -.197428 72.556 91.4258)" gradientUnits="userSpaceOnUse" x2="1"><stop offset="0" stop-color="#bcddff"/><stop offset="1" stop-color="#e4f7ff"/></linearGradient><circle cx="64" cy="64" fill="url(#a)" r="59.966"/><circle cx="64" cy="64" fill="url(#b)" r="52.833"/><path d="m52.091 51.569v38.63c.038 1.533-.385 3.054-1.232 4.358-1.105 1.7-2.84 2.892-4.823 3.313-1.539.327-3.16.671-4.699.998-1.984.421-4.054.037-5.754-1.067-1.7-1.105-2.892-2.84-3.313-4.823-.063-.295-.126-.591-.188-.886-.422-1.984-.037-4.053 1.067-5.754 1.105-1.7 2.84-2.892 4.823-3.313 1.539-.327 3.16-.671 4.699-.998.212-.045.424-.081.637-.107v-.028s1.145-.243 2.326-.494c1.491-.317 2.558-1.633 2.558-3.158v-39.287c0-1.534 1.079-2.857 2.582-3.163 6.894-1.407 25.707-5.247 33.185-6.772.767-.157 1.563.039 2.17.533.607.495.96 1.235.962 2.018l.126 51.469c.02 1.503-.403 2.991-1.234 4.269-1.105 1.701-2.839 2.892-4.823 3.314-1.539.326-3.16.671-4.699.997-1.984.422-4.053.038-5.754-1.067-1.7-1.105-2.892-2.839-3.313-4.823-.063-.295-.125-.591-.188-.886-.421-1.983-.037-4.053 1.067-5.753 1.105-1.7 2.84-2.892 4.823-3.314 1.539-.326 3.161-.671 4.7-.997.244-.052.491-.092.737-.12l2.166-.437c1.507-.304 2.59-1.628 2.59-3.164v-25.877l-31.198 6.389zm31.198-9.56v-2.846c0-.658-.295-1.281-.804-1.698s-1.178-.584-1.823-.454c-5.895 1.183-20.116 4.038-25.979 5.215-1.507.303-2.592 1.627-2.592 3.165v3.007z" fill="url(#c)"/></svg>