<svg clip-rule="evenodd" fill-rule="evenodd" stroke-linejoin="round" stroke-miterlimit="1.41421" viewBox="0 0 96 96" xmlns="http://www.w3.org/2000/svg">
 <linearGradient id="a" x2="1" gradientTransform="matrix(.154217 66.2361 -66.2361 .154217 46.8819 16)" gradientUnits="userSpaceOnUse">
  <stop stop-color="#8f8f8f" stop-opacity=".301961" offset="0"/>
  <stop stop-color="#8f8f8f" offset="1"/>
 </linearGradient>
 <linearGradient id="b" x2="1" gradientTransform="matrix(-.621527 61.0699 -61.0699 -.621527 49.0363 19.0041)" gradientUnits="userSpaceOnUse">
  <stop stop-color="#292929" offset="0"/>
  <stop stop-color="#353535" offset="1"/>
 </linearGradient>
 <path d="m48 16c-17.664 0-32 14.336-32 32s14.336 32 32 32 32-14.336 32-32-14.336-32-32-32zm12.125 16.125 7.75 8.375-24 27.25-15.75-15.625 7.75-8.375 8 7.25z" fill="none" stroke="url(#a)" stroke-width="5"/>
 <path d="m48 16c-17.664 0-32 14.336-32 32s14.336 32 32 32 32-14.336 32-32-14.336-32-32-32zm12.125 16.125 7.75 8.375-24 27.25-15.75-15.625 7.75-8.375 8 7.25z" fill="url(#b)" fill-rule="nonzero"/>
</svg>
