
<svg style="clip-rule:evenodd;fill-rule:evenodd;stroke-linejoin:round;stroke-miterlimit:1.41421" viewBox="0 0 96 96" xmlns="http://www.w3.org/2000/svg">
 <path d="m43 18c-1.662 0-3 1.338-3 3v30c0 1.662 1.338 3 3 3h10c1.662 0 3-1.338 3-3v-3-24-3c0-1.662-1.423-2.474-3-3h-3-4-3zm0 44c-1.662 0-3 1.338-3 3v10c0 1.662 1.423 2.474 3 3h10c1.662 0 3-1.338 3-3v-3-4-3c0-1.662-1.338-3-3-3h-3-4-3z" style="fill-rule:nonzero;fill:url(#_Linear1)"/>
 <path d="m43 18c-1.662 0-3 1.338-3 3v30c0 1.662 1.338 3 3 3h10c1.662 0 3-1.338 3-3v-3-24-3c0-1.662-1.423-2.474-3-3h-3-4-3zm0 0.969h9.75c0.697 0.238 1.339 0.516 1.719 0.844 0.394 0.339 0.562 0.634 0.562 1.187v30c0 1.14-0.891 2.031-2.031 2.031h-3-4-3c-1.14 0-2.031-0.891-2.031-2.031v-3-24-3c0-1.14 0.891-2.031 2.031-2.031zm0 43.031c-1.662 0-3 1.338-3 3v10c0 1.662 1.423 2.474 3 3h10c1.662 0 3-1.338 3-3v-3-4-3c0-1.662-1.338-3-3-3h-3-4-3zm0 0.969h10c1.14 0 2.031 0.891 2.031 2.031v10c0 1.14-0.891 2.031-2.031 2.031h-3-4-2.75c-0.697-0.238-1.339-0.516-1.719-0.843-0.394-0.34-0.562-0.635-0.562-1.188v-3-4-3c0-1.14 0.891-2.031 2.031-2.031z" style="fill-opacity:.2;fill-rule:nonzero;fill:#500"/>
 <defs>
  <linearGradient id="_Linear1" x2="1" gradientTransform="matrix(3.91887e-15,64,-64,3.91887e-15,48,16)" gradientUnits="userSpaceOnUse">
   <stop style="stop-color:#ad0707" offset="0"/>
   <stop style="stop-color:#f75535" offset="1"/>
  </linearGradient>
 </defs>
</svg>
