<svg width="100%" height="100%" viewBox="0 0 96 96" xmlns="http://www.w3.org/2000/svg" xmlns:xlink="http://www.w3.org/1999/xlink" xml:space="preserve" xmlns:serif="http://www.serif.com/" style="fill-rule:evenodd;clip-rule:evenodd;stroke-linejoin:round;stroke-miterlimit:1.41421;"><path d="M48,16c-17.664,0 -32,14.336 -32,32c0,17.664 14.336,32 32,32c17.664,0 32,-14.336 32,-32c0,-17.664 -14.336,-32 -32,-32Zm21.586,24.749l0,14.596l-43.07,0.004l-0.008,-14.588l43.078,-0.012Z" style="fill:none;stroke:url(#_Linear1);stroke-width:5px;"/><path id="path2505" d="M48,16c-17.664,0 -32,14.336 -32,32c0,17.664 14.336,32 32,32c17.664,0 32,-14.336 32,-32c0,-17.664 -14.336,-32 -32,-32Zm21.586,24.749l0,14.596l-43.07,0.004l-0.008,-14.588l43.078,-0.012Z" style="fill:url(#_Linear2);fill-rule:nonzero;"/><defs><linearGradient id="_Linear1" x1="0" y1="0" x2="1" y2="0" gradientUnits="userSpaceOnUse" gradientTransform="matrix(-2.31326,-993.541,993.541,-2.31326,-1010.43,1078.25)"><stop offset="0" style="stop-color:#8f8f8f;stop-opacity:0.301961"/><stop offset="1" style="stop-color:#8f8f8f;stop-opacity:1"/></linearGradient><linearGradient id="_Linear2" x1="0" y1="0" x2="1" y2="0" gradientUnits="userSpaceOnUse" gradientTransform="matrix(-0.621527,61.0699,-61.0699,-0.621527,-928.082,9.05967)"><stop offset="0" style="stop-color:#292929;stop-opacity:1"/><stop offset="1" style="stop-color:#353535;stop-opacity:1"/></linearGradient></defs></svg>