<svg width="100%" height="100%" viewBox="0 0 96 96" xmlns="http://www.w3.org/2000/svg" xmlns:xlink="http://www.w3.org/1999/xlink" xml:space="preserve" xmlns:serif="http://www.serif.com/" style="fill-rule:evenodd;clip-rule:evenodd;stroke-linejoin:round;stroke-miterlimit:1.41421;"><path d="M40.105,14.955c-4.374,0 -9.795,4.983 -9.795,9.356l0,15.791c-4.374,0 -5.995,3.521 -5.995,7.895l0,23.685c0,4.374 3.521,7.895 7.895,7.895l31.58,0c4.374,0 7.895,-3.635 7.895,-8.009l0,-23.571c0,-4.374 -1.402,-7.895 -5.776,-7.895l0,-15.791c0,-4.373 -5.64,-9.356 -10.014,-9.356l-15.79,0Zm3.947,9.356l7.896,0c2.187,0 3.947,1.761 3.947,3.948l0,11.843l-15.79,0l0,-11.843c0,-2.187 1.76,-3.948 3.947,-3.948Z" style="fill:none;stroke:url(#_Linear1);stroke-width:3px;"/><path d="M40.105,14.955c-4.374,0 -9.795,4.983 -9.795,9.356l0,15.791c-4.374,0 -5.995,3.521 -5.995,7.895l0,23.685c0,4.374 3.521,7.895 7.895,7.895l31.58,0c4.374,0 7.895,-3.635 7.895,-8.009l0,-23.571c0,-4.374 -1.402,-7.895 -5.776,-7.895l0,-15.791c0,-4.373 -5.64,-9.356 -10.014,-9.356l-15.79,0Zm3.947,9.356l7.896,0c2.187,0 3.947,1.761 3.947,3.948l0,11.843l-15.79,0l0,-11.843c0,-2.187 1.76,-3.948 3.947,-3.948Z" style="fill:url(#_Linear2);"/><defs><linearGradient id="_Linear1" x1="0" y1="0" x2="1" y2="0" gradientUnits="userSpaceOnUse" gradientTransform="matrix(9.95699e-14,-1626.1,1626.1,9.95699e-14,-995.03,1708.18)"><stop offset="0" style="stop-color:#fff;stop-opacity:0.211765"/><stop offset="1" style="stop-color:#b3b3b3;stop-opacity:1"/></linearGradient><linearGradient id="_Linear2" x1="0" y1="0" x2="1" y2="0" gradientUnits="userSpaceOnUse" gradientTransform="matrix(3.90943e-15,63.8458,-63.8458,3.90943e-15,48,15.3431)"><stop offset="0" style="stop-color:#292929;stop-opacity:1"/><stop offset="1" style="stop-color:#353535;stop-opacity:1"/></linearGradient></defs></svg>