<svg width="100%" height="100%" viewBox="0 0 96 96" xmlns="http://www.w3.org/2000/svg" xmlns:xlink="http://www.w3.org/1999/xlink" xml:space="preserve" xmlns:serif="http://www.serif.com/" style="fill-rule:evenodd;clip-rule:evenodd;stroke-linejoin:round;stroke-miterlimit:1.41421;"><path d="M48.25,20.375c-14.72,0 -26.731,11.504 -27.625,26l-8.625,0l13.875,20.75l13.875,-20.75l-9.875,0c0.852,-9.405 8.745,-16.75 18.375,-16.75c3.562,0 6.933,1.007 9.75,2.75l4.75,-7.875c-4.217,-2.593 -9.19,-4.125 -14.5,-4.125Zm21.875,8l-13.875,20.75l9.875,0c-0.852,9.405 -8.745,16.75 -18.375,16.75c-3.562,0 -6.933,-1.007 -9.75,-2.75l-4.75,7.875c4.217,2.593 9.19,4.125 14.5,4.125c14.72,0 26.731,-11.504 27.625,-26l8.625,0l-13.875,-20.75Z" style="fill:none;stroke:url(#_Linear1);stroke-width:5px;"/><path d="M48.25,20.375c-14.72,0 -26.731,11.504 -27.625,26l-8.625,0l13.875,20.75l13.875,-20.75l-9.875,0c0.852,-9.405 8.745,-16.75 18.375,-16.75c3.562,0 6.933,1.007 9.75,2.75l4.75,-7.875c-4.217,-2.593 -9.19,-4.125 -14.5,-4.125Zm21.875,8l-13.875,20.75l9.875,0c-0.852,9.405 -8.745,16.75 -18.375,16.75c-3.562,0 -6.933,-1.007 -9.75,-2.75l-4.75,7.875c4.217,2.593 9.19,4.125 14.5,4.125c14.72,0 26.731,-11.504 27.625,-26l8.625,0l-13.875,-20.75Z" style="fill:url(#_Linear2);"/><defs><linearGradient id="_Linear1" x1="0" y1="0" x2="1" y2="0" gradientUnits="userSpaceOnUse" gradientTransform="matrix(-25.7639,-657.774,657.774,-25.7639,-1142.27,783.318)"><stop offset="0" style="stop-color:#fff;stop-opacity:0.219608"/><stop offset="1" style="stop-color:#b5b5b5;stop-opacity:1"/></linearGradient><linearGradient id="_Linear2" x1="0" y1="0" x2="1" y2="0" gradientUnits="userSpaceOnUse" gradientTransform="matrix(72,0,0,72,12,47.75)"><stop offset="0" style="stop-color:#292929;stop-opacity:1"/><stop offset="1" style="stop-color:#353535;stop-opacity:1"/></linearGradient></defs></svg>