<svg clip-rule="evenodd" fill-rule="evenodd" stroke-linejoin="round" stroke-miterlimit="1.41421" viewBox="0 0 48 48" xmlns="http://www.w3.org/2000/svg">
 <linearGradient id="a" x2="1" gradientTransform="matrix(1.72705 -87.5762 87.5762 1.72705 46.273 81.8263)" gradientUnits="userSpaceOnUse">
  <stop stop-color="#b3b3b3" offset="0"/>
  <stop stop-color="#fff" stop-opacity=".21" offset="1"/>
 </linearGradient>
 <linearGradient id="b" x2="1" gradientTransform="matrix(0 63.2313 -86.2599 0 48 16.3844)" gradientUnits="userSpaceOnUse">
  <stop stop-color="#292929" offset="0"/>
  <stop stop-color="#353535" offset="1"/>
 </linearGradient>
 <path transform="scale(.5)" d="m48 16c-17.673 0-32 14.327-32 32s14.327 32 32 32 32-14.327 32-32-14.327-32-32-32zm0 1.031c17.123 0 30.969 13.846 30.969 30.969s-13.846 30.969-30.969 30.969-30.969-13.846-30.969-30.969 13.846-30.969 30.969-30.969zm0 5.938c-13.805 0-25.031 11.226-25.031 25.031s11.226 25.031 25.031 25.031 25.031-11.226 25.031-25.031-11.226-25.031-25.031-25.031zm0 1.031c13.255 0 24 10.745 24 24s-10.745 24-24 24-24-10.745-24-24 10.745-24 24-24zm-.25 4c-2.064 0-3.75 1.686-3.75 3.75v16.5c0 2.064 1.686 3.75 3.75 3.75.085.005.163 0 .25 0h14c2.216 0 4-1.784 4-4s-1.784-4-4-4h-10v-12.25c0-2.064-1.686-3.75-3.75-3.75zm0 1.031h.5c1.509 0 2.719 1.21 2.719 2.719v12.262c0 .559.46 1.019 1.019 1.019h10.012c1.669 0 2.969 1.3 2.969 2.969s-1.3 2.969-2.969 2.969h-14.187c-.021-.001-.042-.001-.063 0-1.509 0-2.719-1.21-2.719-2.719v-16.5c0-1.509 1.21-2.719 2.719-2.719z" fill="none" stroke="url(#a)" stroke-width="3.47"/>
 <path transform="scale(.5)" d="m48 16c-17.673 0-32 14.327-32 32s14.327 32 32 32 32-14.327 32-32-14.327-32-32-32zm0 8c13.255 0 24 10.745 24 24s-10.745 24-24 24-24-10.745-24-24 10.745-24 24-24zm-.25 4c-2.064 0-3.75 1.686-3.75 3.75v16.5c0 2.064 1.686 3.75 3.75 3.75.085.005.163 0 .25 0h14c2.216 0 4-1.784 4-4s-1.784-4-4-4h-10v-12.25c0-2.064-1.686-3.75-3.75-3.75z" fill="url(#b)" fill-rule="nonzero"/>
</svg>
