<svg style="clip-rule:evenodd;fill-rule:evenodd;stroke-linejoin:round;stroke-miterlimit:2" viewBox="0 0 48 48" xmlns="http://www.w3.org/2000/svg">
 <path d="m4 24c0-8.283 5.057-15.313 12.224-18.325 0.617-0.253 1.319-0.183 1.873 0.188 0.553 0.371 0.886 0.994 0.886 1.661 0.017 0 0.017 0 0.017 1e-3 0 0.805-0.485 1.532-1.228 1.841-5.665 2.419-9.633 8.075-9.633 14.634 0 6.558 3.967 12.214 9.628 14.641 0.741 0.309 1.223 1.033 1.223 1.836h0.01c0 0.672-0.335 1.3-0.894 1.675-0.558 0.374-1.267 0.445-1.889 0.189-7.16-3.028-12.217-10.058-12.217-18.341z" style="fill-rule:nonzero;fill:#ababab"/>
 <path d="m44 24c0-8.279-5.053-15.307-12.215-18.321-0.618-0.255-1.323-0.184-1.878 0.188-0.556 0.372-0.89 0.997-0.89 1.665-0.017 1e-3 -0.017 2e-3 -0.017 3e-3 0 0.8 0.481 1.521 1.22 1.828 5.669 2.416 9.641 8.075 9.641 14.637s-3.972 12.221-9.638 14.646c-0.735 0.305-1.213 1.023-1.213 1.819-0.01 1e-3 -0.01 2e-3 -0.01 3e-3 0 0.674 0.336 1.305 0.897 1.68 0.56 0.376 1.271 0.447 1.895 0.19 7.155-3.031 12.208-10.059 12.208-18.338z" style="fill-rule:nonzero;fill:#ababab"/>
 <circle cx="24" cy="24" r="10" style="fill:#7e7e7e"/>
</svg>
