<svg style="clip-rule:evenodd;fill-rule:evenodd;stroke-linejoin:round;stroke-miterlimit:2" viewBox="0 0 48 48" xmlns="http://www.w3.org/2000/svg">
 <circle cx="24" cy="24" r="22.764" style="fill:url(#_Linear1)"/>
 <g transform="matrix(.75 0 0 .75 -4.26326e-14 0)">
  <path d="m42.711 28.673c0.244 0.244 0.366 0.532 0.366 0.865v2.462c0 2.833-0.946 5.298-2.837 7.394s-4.227 3.298-7.009 3.606v2.538h4.922c0.334 0 0.623 0.122 0.866 0.366 0.243 0.243 0.366 0.532 0.366 0.865s-0.123 0.622-0.366 0.865c-0.243 0.244-0.532 0.366-0.866 0.366h-12.307c-0.333 0-0.622-0.122-0.865-0.366-0.244-0.243-0.366-0.532-0.366-0.865s0.122-0.622 0.366-0.865c0.243-0.244 0.532-0.366 0.865-0.366h4.923v-2.538c-2.782-0.308-5.119-1.51-7.01-3.606s-2.836-4.561-2.836-7.394v-2.462c0-0.333 0.122-0.621 0.365-0.865 0.244-0.244 0.532-0.365 0.866-0.365 0.333 0 0.622 0.121 0.865 0.365 0.244 0.244 0.366 0.532 0.366 0.865v2.462c0 2.372 0.842 4.401 2.528 6.086 1.686 1.686 3.715 2.529 6.087 2.529s4.401-0.843 6.086-2.529c1.686-1.686 2.529-3.714 2.529-6.086v-2.462c0-0.333 0.122-0.621 0.366-0.865 0.243-0.244 0.532-0.365 0.865-0.365s0.622 0.121 0.865 0.365zm-10.711 9.48c1.692 0 3.141-0.602 4.346-1.807s1.807-2.654 1.807-4.346v-9.846c0-1.692-0.602-3.141-1.807-4.346s-2.654-1.808-4.346-1.808c-1.693 0-3.141 0.603-4.346 1.808s-1.808 2.654-1.808 4.346v9.846c0 1.692 0.603 3.141 1.808 4.346s2.653 1.807 4.346 1.807z" style="fill-rule:nonzero;fill:rgb(4,46,57)"/>
 </g>
 <defs>
  <linearGradient id="_Linear1" x2="1" gradientTransform="matrix(2.16708e-15,-35.3911,35.3911,2.16708e-15,968.766,41.2823)" gradientUnits="userSpaceOnUse">
   <stop style="stop-color:rgb(0,103,131)" offset="0"/>
   <stop style="stop-color:rgb(19,190,227)" offset="1"/>
  </linearGradient>
 </defs>
</svg>
