<svg clip-rule="evenodd" fill-rule="evenodd" stroke-linejoin="round" stroke-miterlimit="2" viewBox="0 0 48 48" xmlns="http://www.w3.org/2000/svg">
 <linearGradient id="a" x2="1" gradientTransform="matrix(0 -34.7211 27.3837 0 983.505 40.9551)" gradientUnits="userSpaceOnUse">
  <stop stop-color="#006783" offset="0"/>
  <stop stop-color="#13bee3" offset="1"/>
 </linearGradient>
 <linearGradient id="b" x2="1" gradientTransform="matrix(0 -25.712 25.712 0 24 31.712)" gradientUnits="userSpaceOnUse">
  <stop stop-color="#3a3a3a" offset="0"/>
  <stop stop-color="#020202" offset="1"/>
 </linearGradient>
 <path transform="translate(-.4455)" d="m37.02 1.667c2.783 0 5.039 2.257 5.039 5.04v34.586c0 2.783-2.256 5.04-5.039 5.04h-25.149c-2.783 0-5.039-2.257-5.039-5.04v-34.586c0-2.783 2.256-5.04 5.039-5.04z" fill="url(#a)" fill-rule="nonzero"/>
 <path transform="matrix(1.1136 0 0 1.1136 -2.72645 -2.72645)" d="m36.856 18.856c0-7.095-5.761-12.856-12.856-12.856s-12.856 5.761-12.856 12.856c0 7.096 5.761 12.856 12.856 12.856s12.856-5.76 12.856-12.856z" fill="url(#b)"/>
 <path transform="matrix(1.1136 0 0 1.1136 -2.72645 -2.72645)" d="m29.844 18.856c0-3.225-2.619-5.844-5.844-5.844s-5.844 2.619-5.844 5.844 2.619 5.844 5.844 5.844 5.844-2.619 5.844-5.844z" fill="#00a0ff"/>
 <circle cx="24.0001" cy="38.78881" r="4.7998371" fill="#dedede" stroke-width="1.37768"/>
</svg>
