<svg style="clip-rule:evenodd;fill-rule:evenodd;stroke-linejoin:round;stroke-miterlimit:2" viewBox="0 0 48 48" xmlns="http://www.w3.org/2000/svg">
 <circle cx="24" cy="24" r="22.764" style="fill:url(#_Linear1)"/>
 <g transform="matrix(.75 0 0 .75 -282.429 -368.848)">
  <path d="m420.498 521.55c0.034-0.117 0.035-0.24 0.035-0.368v-1.367c0-3.235-1.221-6.26-3.471-8.515-2.253-2.258-5.265-3.502-8.5-3.502-3.234 0-6.233 1.244-8.486 3.502-2.25 2.255-3.467 5.28-3.467 8.515v1.367c0 0.128 1e-3 0.251 0.035 0.368-2.062 0.163-3.709 2.362-3.709 5.042 0 2.692 1.648 4.899 3.723 5.045 0.555 0.748 1.45 1.202 2.403 1.202 1.656 0 3.002-1.348 3.002-3.006v-6.482c0-1.606-1.232-2.922-2.815-3.002v-0.534c0-5.259 4.075-9.378 9.323-9.378s9.324 4.119 9.324 9.378v0.534c-1.584 0.081-2.815 1.396-2.815 3.002v6.482c0 1.084 0.577 2.036 1.439 2.565-0.983 1.445-2.364 2.589-3.999 3.287-0.447-0.498-1.096-0.813-1.816-0.813h-3.385c-1.347 0-2.442 1.096-2.442 2.442v0.042c0 1.347 1.095 2.442 2.442 2.442h3.385c0.99 0 1.844-0.593 2.227-1.443 1.616-0.588 3.093-1.52 4.336-2.76 0.925-0.923 1.68-1.976 2.249-3.12 0.379-0.204 0.714-0.489 0.973-0.838 2.075-0.146 3.719-2.353 3.719-5.045 0-2.68-1.647-4.879-3.71-5.042z" style="fill-rule:nonzero;fill:rgb(4,46,57)"/>
 </g>
 <defs>
  <linearGradient id="_Linear1" x2="1" gradientTransform="matrix(2.16708e-15,-35.3911,35.3911,2.16708e-15,968.766,41.2823)" gradientUnits="userSpaceOnUse">
   <stop style="stop-color:rgb(0,103,131)" offset="0"/>
   <stop style="stop-color:rgb(19,190,227)" offset="1"/>
  </linearGradient>
 </defs>
</svg>
