<svg style="clip-rule:evenodd;fill-rule:evenodd;stroke-linejoin:round;stroke-miterlimit:2" viewBox="0 0 48 48" xmlns="http://www.w3.org/2000/svg">
 <circle cx="24" cy="24" r="22.764" style="fill:url(#_Linear1)"/>
 <path d="m24 12c-0.295 0-0.551 0.125-0.767 0.375l-5.676 6.572h-4.466c-0.296 0-0.551 0.126-0.767 0.375-0.216 0.25-0.324 0.547-0.324 0.889v7.578c0 0.342 0.108 0.639 0.324 0.888 0.216 0.25 0.472 0.376 0.767 0.376h4.466l5.676 6.572c0.216 0.25 0.471 0.375 0.767 0.375 0.295 0 0.551-0.125 0.767-0.375s0.324-0.546 0.324-0.888v-21.474c0-0.342-0.108-0.638-0.324-0.888s-0.471-0.375-0.767-0.375zm10.551 17.575c-0.966 1.704-2.245 2.944-3.835 3.721-0.148 0.065-0.29 0.099-0.426 0.099-0.307 0-0.568-0.125-0.785-0.376-0.215-0.249-0.323-0.546-0.323-0.888 0-0.513 0.221-0.901 0.665-1.164 0.636-0.382 1.068-0.671 1.295-0.869 0.841-0.71 1.497-1.601 1.969-2.674 0.471-1.072 0.707-2.214 0.707-3.424 0-1.211-0.236-2.352-0.707-3.425-0.472-1.072-1.128-1.963-1.969-2.674-0.227-0.197-0.659-0.487-1.295-0.868-0.444-0.264-0.665-0.652-0.665-1.165 0-0.342 0.108-0.638 0.323-0.888 0.217-0.25 0.472-0.375 0.768-0.375 0.147 0 0.295 0.033 0.443 0.098 1.59 0.777 2.869 2.017 3.835 3.721s1.449 3.563 1.449 5.576-0.483 3.872-1.449 5.575zm-3.639-2.783c-0.483 0.862-1.122 1.477-1.918 1.846-0.113 0.066-0.256 0.099-0.426 0.099-0.295 0-0.551-0.122-0.767-0.366-0.216-0.243-0.324-0.542-0.324-0.898 0-0.276 0.068-0.509 0.205-0.7 0.136-0.191 0.301-0.356 0.494-0.494s0.386-0.289 0.58-0.454c0.193-0.164 0.358-0.398 0.494-0.7 0.136-0.303 0.204-0.678 0.204-1.126 0-0.447-0.068-0.822-0.204-1.125-0.136-0.302-0.301-0.536-0.494-0.7-0.194-0.165-0.387-0.316-0.58-0.454s-0.358-0.303-0.494-0.494c-0.137-0.191-0.205-0.424-0.205-0.701 0-0.355 0.108-0.654 0.324-0.898 0.216-0.243 0.472-0.365 0.767-0.365 0.17 0 0.313 0.033 0.426 0.099 0.796 0.355 1.434 0.967 1.918 1.835 0.483 0.869 0.724 1.804 0.724 2.804s-0.241 1.931-0.724 2.792z" style="fill-rule:nonzero;fill:rgb(4,46,57)"/>
 <defs>
  <linearGradient id="_Linear1" x2="1" gradientTransform="matrix(2.16708e-15,-35.3911,35.3911,2.16708e-15,968.766,41.2823)" gradientUnits="userSpaceOnUse">
   <stop style="stop-color:rgb(0,103,131)" offset="0"/>
   <stop style="stop-color:rgb(19,190,227)" offset="1"/>
  </linearGradient>
 </defs>
</svg>
