<svg style="clip-rule:evenodd;fill-rule:evenodd;stroke-linejoin:round;stroke-miterlimit:2" viewBox="0 0 48 48" xmlns="http://www.w3.org/2000/svg">
 <path d="m42.349 46.686h-36.695c-1.91 0-3.627-1.181-3.745-3.086-0.095-1.546-0.601-6.867-0.602-6.878h45.389c-1e-3 0.011-0.507 5.332-0.602 6.878-0.118 1.905-1.835 3.086-3.745 3.086z" style="fill-rule:nonzero;fill:url(#_Linear1)"/>
 <path d="m42.262 7.533c-0.138-1.832-1.53-3.241-3.203-3.241h-30.115c-1.673 0-3.065 1.409-3.203 3.241-0.535 7.112-3.793 21.083-4.422 28.699-0.081 0.984 0.253 1.957 0.921 2.683 0.669 0.727 1.611 1.14 2.598 1.14h38.327c0.987 0 1.929-0.413 2.598-1.14 0.668-0.726 1.002-1.699 0.921-2.683-0.629-7.616-3.887-21.587-4.422-28.699z" style="fill:url(#_Linear2)"/>
 <path d="m33.494 43.661c0-0.166-0.066-0.326-0.184-0.444-0.118-0.117-0.278-0.184-0.444-0.184h-17.589c-0.167 0-0.327 0.067-0.444 0.184-0.118 0.118-0.184 0.278-0.184 0.444v8e-3c0 0.167 0.066 0.327 0.184 0.444 0.117 0.118 0.277 0.184 0.444 0.184h17.589c0.166 0 0.326-0.066 0.444-0.184 0.118-0.117 0.184-0.277 0.184-0.444v-8e-3z" style="fill:url(#_Linear3)"/>
 <circle cx="37.572" cy="43.448" r="1.745" style="fill:url(#_Linear4)"/>
 <path d="m38.349 43.104c-0.061-0.122-0.147-0.224-0.257-0.306-0.032-0.025-0.068-0.034-0.108-0.029s-0.072 0.024-0.096 0.057c-0.024 0.032-0.033 0.067-0.027 0.107 5e-3 0.04 0.024 0.072 0.056 0.096 0.074 0.056 0.131 0.125 0.172 0.206 0.04 0.081 0.061 0.167 0.061 0.259 0 0.079-0.016 0.154-0.046 0.225-0.031 0.072-0.072 0.134-0.125 0.186-0.052 0.052-0.114 0.094-0.185 0.124-0.072 0.031-0.147 0.046-0.226 0.046s-0.154-0.015-0.225-0.046c-0.072-0.03-0.134-0.072-0.186-0.124s-0.094-0.114-0.124-0.186c-0.031-0.071-0.046-0.146-0.046-0.225 0-0.092 0.02-0.178 0.06-0.259 0.041-0.081 0.098-0.15 0.172-0.206 0.032-0.024 0.051-0.056 0.057-0.096 5e-3 -0.039-4e-3 -0.075-0.028-0.107-0.024-0.033-0.055-0.052-0.095-0.057s-0.076 4e-3 -0.109 0.029c-0.11 0.082-0.196 0.184-0.257 0.306s-0.091 0.252-0.091 0.39c0 0.118 0.023 0.231 0.069 0.338 0.046 0.108 0.108 0.201 0.186 0.279s0.171 0.14 0.279 0.186c0.107 0.046 0.22 0.069 0.338 0.069s0.231-0.023 0.339-0.069c0.107-0.046 0.2-0.108 0.278-0.186s0.14-0.171 0.186-0.279c0.046-0.107 0.069-0.22 0.069-0.338 0-0.138-0.03-0.268-0.091-0.39zm-0.781 0.39c0.039 0 0.074-0.015 0.102-0.043 0.029-0.029 0.044-0.063 0.044-0.103v-0.727c0-0.039-0.015-0.073-0.044-0.102-0.028-0.029-0.063-0.043-0.102-0.043s-0.073 0.014-0.102 0.043-0.043 0.063-0.043 0.102v0.727c0 0.04 0.014 0.074 0.043 0.103 0.029 0.028 0.063 0.043 0.102 0.043z" style="fill-rule:nonzero;fill:#e3e8ea"/>
 <path d="m42.273 38.41-36.696-1e-3c-1.91 0-3.627-1.181-3.745-3.086-0.095-1.546-0.601-6.867-0.602-6.878h45.39c-2e-3 0.011-0.508 5.332-0.602 6.878-0.119 1.905-1.836 3.086-3.745 3.086z" style="fill-rule:nonzero;fill:url(#_Linear5)"/>
 <path d="m42.133 4.569c-0.361-1.801-1.52-3.241-3.181-3.241h-29.899c-1.661 0-2.802 1.443-3.18 3.241-1.498 7.112-3.257 15.845-4.631 23.387-0.081 0.984 0.253 1.957 0.921 2.683 0.669 0.726 1.611 1.14 2.598 1.14h38.327c0.987 0 1.929-0.413 2.598-1.14 0.668-0.726 1.002-1.699 0.921-2.683-1.447-7.616-3.051-16.275-4.474-23.387z" style="fill:url(#_Linear6)"/>
 <path d="m33.418 35.385c0-0.166-0.066-0.326-0.184-0.444-0.118-0.117-0.278-0.184-0.444-0.184h-17.589c-0.167 0-0.327 0.067-0.444 0.184-0.118 0.118-0.184 0.278-0.184 0.444v8e-3c0 0.167 0.066 0.327 0.184 0.444 0.117 0.118 0.277 0.184 0.444 0.184h17.589c0.166 0 0.326-0.066 0.444-0.184 0.118-0.117 0.184-0.277 0.184-0.444v-8e-3z" style="fill:url(#_Linear7)"/>
 <circle cx="37.496" cy="35.172" r="1.745" style="fill:url(#_Linear8)"/>
 <path d="m38.273 34.828c-0.062-0.123-0.148-0.224-0.258-0.306-0.031-0.026-0.067-0.035-0.107-0.03s-0.072 0.024-0.096 0.057c-0.024 0.032-0.033 0.067-0.027 0.107 5e-3 0.04 0.024 0.072 0.056 0.096 0.074 0.056 0.131 0.125 0.172 0.206 0.04 0.081 0.061 0.167 0.061 0.259 0 0.079-0.016 0.154-0.046 0.225-0.031 0.072-0.072 0.134-0.125 0.186-0.052 0.052-0.114 0.094-0.185 0.124-0.072 0.031-0.147 0.046-0.226 0.046s-0.154-0.015-0.225-0.046c-0.072-0.03-0.134-0.072-0.186-0.124s-0.094-0.114-0.124-0.186c-0.031-0.071-0.046-0.146-0.046-0.225 0-0.092 0.02-0.178 0.06-0.259 0.041-0.081 0.098-0.15 0.172-0.206 0.032-0.024 0.051-0.056 0.057-0.096 5e-3 -0.039-4e-3 -0.075-0.028-0.107-0.024-0.033-0.055-0.052-0.095-0.057s-0.076 4e-3 -0.109 0.029c-0.11 0.082-0.196 0.184-0.257 0.306s-0.091 0.252-0.091 0.39c0 0.118 0.023 0.231 0.069 0.338 0.046 0.108 0.108 0.201 0.186 0.279s0.171 0.14 0.279 0.186c0.107 0.046 0.22 0.069 0.338 0.069s0.231-0.023 0.339-0.069c0.107-0.046 0.2-0.108 0.278-0.186s0.14-0.171 0.186-0.279c0.046-0.107 0.069-0.22 0.069-0.338 0-0.138-0.03-0.268-0.091-0.39zm-0.782 0.39c0.04 0 0.075-0.015 0.102-0.043 0.03-0.029 0.044-0.063 0.044-0.103l1e-3 -0.727c0-0.039-0.015-0.073-0.044-0.102-0.028-0.029-0.063-0.043-0.102-0.043s-0.073 0.014-0.102 0.043-0.043 0.063-0.043 0.102v0.727c0 0.04 0.014 0.074 0.043 0.103 0.029 0.028 0.063 0.043 0.102 0.043z" style="fill-rule:nonzero;fill:#e3e8ea"/>
 <path d="m24.001 9.432c-5.972 0-10.878 2.839-10.878 6.292s4.906 6.291 10.878 6.291c5.971 0 10.879-2.838 10.879-6.291s-4.908-6.292-10.879-6.292zm-0.077 4.037c1.708 0 3.109 0.81 3.109 1.798 0 0.987-1.401 1.797-3.109 1.797-1.707 0-3.107-0.81-3.107-1.797 0-0.988 1.4-1.798 3.107-1.798z" style="fill-opacity:.23;fill-rule:nonzero"/>
 <defs>
  <linearGradient id="_Linear1" x2="1" gradientTransform="matrix(44.2944 -.186744 .186744 44.2944 1.86165 42.9324)" gradientUnits="userSpaceOnUse">
   <stop style="stop-color:#1a1a1a" offset="0"/>
   <stop style="stop-color:#2c2c2e" offset=".11"/>
   <stop style="stop-color:#2b2b2d" offset=".29"/>
   <stop style="stop-color:#2a2b2d" offset=".51"/>
   <stop style="stop-color:#2b2b2d" offset=".75"/>
   <stop style="stop-color:#323232" offset=".9"/>
   <stop style="stop-color:#171717" offset="1"/>
  </linearGradient>
  <linearGradient id="_Linear2" x2="1" gradientTransform="matrix(-.00154162 -38.7406 38.7406 -.00154162 24.0015 40.0548)" gradientUnits="userSpaceOnUse">
   <stop style="stop-color:#bbbec4" offset="0"/>
   <stop style="stop-color:#dcdee1" offset="1"/>
  </linearGradient>
  <linearGradient id="_Linear3" x2="1" gradientTransform="matrix(18.8308,0,0,18.8308,14.6558,43.5669)" gradientUnits="userSpaceOnUse">
   <stop style="stop-color:#197cf1" offset="0"/>
   <stop style="stop-color:#20bcfa" offset="1"/>
  </linearGradient>
  <linearGradient id="_Linear4" x2="1" gradientTransform="matrix(2.13662e-16,-3.48937,3.48937,2.13662e-16,37.712,44.9756)" gradientUnits="userSpaceOnUse">
   <stop style="stop-color:#040404;stop-opacity:.45" offset="0"/>
   <stop style="stop-color:#121212;stop-opacity:.41" offset="1"/>
  </linearGradient>
  <linearGradient id="_Linear5" x2="1" gradientTransform="matrix(44.2944 -.186744 .186744 44.2944 1.78515 34.6559)" gradientUnits="userSpaceOnUse">
   <stop style="stop-color:#1a1a1a" offset="0"/>
   <stop style="stop-color:#2c2c2e" offset=".11"/>
   <stop style="stop-color:#2b2b2d" offset=".29"/>
   <stop style="stop-color:#2a2b2d" offset=".51"/>
   <stop style="stop-color:#2b2b2d" offset=".75"/>
   <stop style="stop-color:#323232" offset=".9"/>
   <stop style="stop-color:#171717" offset="1"/>
  </linearGradient>
  <linearGradient id="_Linear6" x2="1" gradientTransform="matrix(-.00154162 -38.7406 38.7406 -.00154162 23.925 31.7783)" gradientUnits="userSpaceOnUse">
   <stop style="stop-color:#bbbec4" offset="0"/>
   <stop style="stop-color:#dcdee1" offset="1"/>
  </linearGradient>
  <linearGradient id="_Linear7" x2="1" gradientTransform="matrix(18.8308,0,0,18.8308,14.5793,35.2904)" gradientUnits="userSpaceOnUse">
   <stop style="stop-color:#197cf1" offset="0"/>
   <stop style="stop-color:#20bcfa" offset="1"/>
  </linearGradient>
  <linearGradient id="_Linear8" x2="1" gradientTransform="matrix(2.13662e-16,-3.48937,3.48937,2.13662e-16,37.6355,36.6991)" gradientUnits="userSpaceOnUse">
   <stop style="stop-color:#040404;stop-opacity:.45" offset="0"/>
   <stop style="stop-color:#121212;stop-opacity:.41" offset="1"/>
  </linearGradient>
 </defs>
</svg>
