<svg style="clip-rule:evenodd;fill-rule:evenodd;stroke-linejoin:round;stroke-miterlimit:2" viewBox="0 0 48 48" xmlns="http://www.w3.org/2000/svg">
 <path d="m39.44 2.332c3.438 0 6.228 2.79 6.228 6.228v30.88c0 3.438-2.79 6.228-6.228 6.228h-30.88c-3.438 0-6.228-2.79-6.228-6.228v-30.88c0-3.438 2.79-6.228 6.228-6.228h30.88z" style="fill:url(#_Linear1)"/>
 <path d="m33.052 28.355v4.534h-18.22v-4.534h18.22zm6.873-0.279v4.813h-4.814v-4.813h4.814zm-26.861 0v4.813h-4.814v-4.813h4.814zm19.988-6.325v4.813h-4.814v-4.813h4.814zm6.873 0v4.813h-4.814v-4.813h4.814zm-13.432 0v4.813h-4.813v-4.813h4.813zm-6.845 0v4.813h-4.816v-4.813h4.816zm-6.584 0v4.813h-4.815v-4.813h4.815zm19.988-6.297v4.814h-4.814v-4.814h4.814zm6.873 0v4.814h-4.814v-4.814h4.814zm-13.399 0v4.814h-4.813v-4.814h4.813zm-6.878 0v4.814h-4.816v-4.814h4.816zm-6.584 0v4.814h-4.815v-4.814h4.815z" style="fill-opacity:.75;fill:#030000"/>
 <path d="m32.925 28.179v4.514l-18.138-1e-3v-4.513h18.138zm6.842-0.278v4.791h-4.791l-1e-3 -4.791h4.792zm-26.74 0v4.791h-4.792v-4.791h4.792zm19.898-6.297v4.792h-4.792v-4.792h4.792zm6.842 0v4.792h-4.792v-4.792h4.792zm-13.371 0v4.792h-4.792v-4.792h4.792zm-6.815 0v4.792h-4.794v-4.792h4.794zm-6.554 0v4.792h-4.794v-4.792h4.794zm19.898-6.268v4.792h-4.792v-4.792h4.792zm6.842 0v4.792h-4.791v-4.792h4.791zm-13.338 0v4.792h-4.792v-4.792h4.792zm-6.848 0v4.792h-4.794v-4.792h4.794zm-6.554 0v4.792h-4.794v-4.792h4.794z" style="fill:url(#_Linear2)"/>
 <path d="m11.738 31.007c8e-3 6e-3 0.019 0.032 0.018 0.069-4e-3 0.066 0.134 0.237 0.185 0.269 0.24 0.148-0.148 0.275-0.216 0.32-0.102 0.068-0.206 0.136-0.295 0.221-0.188 0.179-0.338-0.13-0.496-0.134-0.154-4e-3 -0.292-3e-3 -0.445 5e-3 -0.147 2e-3 -0.291 0.168-0.421 0.156-0.162-0.016-0.309-0.102-0.469-0.136-0.052-0.011-0.295-0.032-0.349-0.113-0.032-0.049 0.044-0.18 0.046-0.222 1e-3 -0.012-0.056-0.234-0.013-0.266 0.059-0.043 0.15-0.012 0.213-0.047 0.053-0.029 0.056-0.073 0.086-0.109 0 0 0.078-0.052 0.094-0.07-0.022-0.02-0.023-0.049-0.024-0.063-9e-3 -0.069-0.024-0.096-4e-3 -0.207 0.034-0.192 0.159-0.462 0.301-0.601 0.078-0.101 0.15-0.26 0.173-0.348 0.013-0.255-0.02-0.624 0.13-0.86 0.176-0.277 0.561-0.297 0.75-0.024 0.156 0.226 0.126 0.537 0.201 0.786 0.116 0.389 0.46 0.617 0.531 1.045 0.03 0.179-9e-3 0.289-0.048 0.295-0.058 8e-3 -0.095 0.193-0.278 0.185-0.111-5e-3 -0.127-0.033-0.169-0.083-0.012-0.014-0.03-0.041-0.041-0.068-0.021 0.035-0.02 0.054-4e-3 0.087 0.024 0.048 0.097 0.16 0.306 0.097 0.084-0.025 0.12-0.061 0.165-0.117 0.045-0.055 0.054-0.082 0.073-0.067zm-1.475-1.671c-6e-3 -0.054-0.018-0.1 0.076-0.103 0.061-2e-3 0.079 0.115 0.064 0.15-0.049 0.115-0.293 0.142-0.084 0.27 0.03 0.018 0.064 0.035 0.099 0.037 0.047 1e-3 0.227-0.03 0.29-0.059 0.045-0.02 0.074-0.052 0.131-0.072 0.019-7e-3 -0.076 0.082-0.137 0.107-0.057 0.023-0.198 0.051-0.252 0.062-0.052 9e-3 -0.124-0.049-0.11 2e-3 0.015 0.051 0.138 0.077 0.154 0.075 0.169-0.01 0.212-0.066 0.3-0.125 0.012-8e-3 0.042 4e-3 0.039 0.019-0.012 0.053-0.065 0.116-0.098 0.132-0.142 0.07-0.234 0.135-0.325 0.088-0.107-0.057-0.044-0.118-0.149-0.175-0.037-0.021-0.024 0.083-0.039 0.123-0.042 0.105-0.138 0.198-0.072 0.321-0.056 0.015-0.183 0.283-0.201 0.423-9e-3 0.077 3e-3 0.156-0.012 0.233-5e-3 0.029-0.067-6e-3 -0.081-0.032-0.038-0.072-0.048-0.156-0.031-0.236 7e-3 -0.034 1e-3 -0.041-8e-3 -0.025-0.051 0.09-0.023 0.215 0.018 0.303 0.083 0.18 0.308 0.252 0.45 0.392 0.046 0.046 0.038 0.131-0.017 0.169-0.132-0.176-0.293-0.336-0.35-0.387-0.024-0.021-0.08-0.078-0.126-0.06 0.043 0.036 0.118 0.111 0.171 0.159 0.166 0.154 0.363 0.37 0.361 0.617 0.068-0.036 0.041-0.116 0.012-0.168-0.087-0.159 0.074-0.026 0.148-9e-3 0.058 0.013 0.118 8e-3 0.176 1e-3 0.063-8e-3 0.127-0.02 0.184-0.048 0.053-0.027 0.092-0.074 0.137-0.111 0.022-0.018 0.039-0.068 0.064-0.055 0.099 0.048-0.123 0.355 8e-3 0.36 0.015-0.102 0.044-0.203 0.051-0.305 9e-3 -0.106-0.119-0.469 0.108-0.473 6e-3 -0.145 0.232-0.134 0.306-0.074 0-0.033-0.071-0.063-0.099-0.077 0.048-0.164 0.026-0.23-7e-3 -0.384-0.025-0.118-0.132-0.277-0.216-0.327 0.156 0.138 0.258 0.462 0.202 0.661-0.019 0.065-0.061 0.073-0.09 0.076-0.13 0.013-0.054-0.153-0.108-0.382-0.06-0.255-0.12-0.274-0.136-0.294-0.074-0.331-0.157-0.298-0.18-0.423-0.021-0.111 0.097-0.202-0.063-0.233-0.052-0.011-0.107-0.026-0.146-0.062-0.05-0.048-0.015-0.185 0.06-0.19 0.101-8e-3 0.134 0.115 0.114 0.163-6e-3 9e-3 -0.019 0.041-0.033 0.061 0.018 7e-3 0.038 0.014 0.071-0.013 0.059-0.048 0.046-0.089 0.033-0.138-0.041-0.144-0.098-0.171-0.164-0.183-0.094-0.018-0.151 0.056-0.167 0.152-7e-3 0.039 2e-3 0.083 0.012 0.117-0.022-2e-3 -0.066-0.012-0.094-0.017-0.019-3e-3 -0.039 4e-3 -0.057 4e-3 3e-3 -0.142-0.045-0.236-0.111-0.238-0.131-3e-3 -0.143 0.272-0.048 0.319 0.011 5e-3 0.037-0.016 0.041-0.028-8e-3 -8e-3 -0.021-0.019-0.038-0.036-0.018-0.016-0.03-0.039-0.031-0.054zm0.481-0.087c-0.049 4e-3 -0.066 0.057-0.068 0.1-1e-3 0.016 7e-3 0.044 0.022 0.053 0.042 0.027 0.079 0.025 0.094 0.015 0.024-0.015 0.03-0.05 0.023-0.091-0.044 4e-3 -0.077-2e-3 -0.076-0.053 0-9e-3 6e-3 -0.024 5e-3 -0.024zm-0.461 0.086c6e-3 0.016 0.015 0.04 0.053 0.055 0.02 8e-3 0.047-0.01 0.048-0.034 2e-3 -0.02-3e-3 -0.029-5e-3 -0.033-0.01 7e-3 -0.021 7e-3 -0.028 9e-3 -0.012 3e-3 -0.021-7e-3 -0.027-0.016-6e-3 -8e-3 -3e-3 -0.019-2e-3 -0.029 2e-3 -9e-3 4e-3 -0.017 0.011-0.032-0.014-9e-3 -0.042 0.015-0.048 0.033-6e-3 0.012-7e-3 0.031-2e-3 0.047z" style="fill-rule:nonzero;fill:#fff"/>
 <defs>
  <linearGradient id="_Linear1" x2="1" gradientTransform="matrix(2.23513e-15,-36.5025,36.5025,2.23513e-15,509.994,42.5695)" gradientUnits="userSpaceOnUse">
   <stop style="stop-color:#97a9b1" offset="0"/>
   <stop style="stop-color:#cfdce1" offset="1"/>
  </linearGradient>
  <linearGradient id="_Linear2" x2="1" gradientTransform="matrix(-2.31325,18.296,-18.296,-2.31325,-631.85,-67.4411)" gradientUnits="userSpaceOnUse">
   <stop style="stop-color:#818181" offset="0"/>
   <stop style="stop-color:#484848" offset="1"/>
  </linearGradient>
 </defs>
</svg>
