<svg clip-rule="evenodd" fill-rule="evenodd" stroke-linejoin="round" stroke-miterlimit="2" viewBox="0 0 48 48" xmlns="http://www.w3.org/2000/svg">
 <linearGradient id="a" x2="1" gradientTransform="matrix(0 -408.737 408.737 0 42139.4 550.412)" gradientUnits="userSpaceOnUse">
  <stop stop-color="#006783" offset="0"/>
  <stop stop-color="#13bee3" offset="1"/>
 </linearGradient>
 <linearGradient id="b" x2="1" gradientTransform="matrix(-.051729 -12.1132 12.1132 -.051729 12573.9 996.808)" gradientUnits="userSpaceOnUse">
  <stop stop-color="#141414" offset="0"/>
  <stop stop-color="#2d2d2f" offset="1"/>
 </linearGradient>
 <path transform="matrix(.0732929 0 0 .0562113 14.2679 4.27923)" d="m-13.563 87.912h292.693v525.809h-292.693z" fill="url(#a)"/>
 <path transform="matrix(3.09316 0 0 3.09316 -.745282 -3206.38)" d="m11.404 1037.36h-6.808c-.31 0-.561.25-.561.56v12.88c0 .31.251.56.561.56h6.808c.31 0 .561-.25.561-.56v-12.88c0-.31-.251-.56-.561-.56zm-.082 11.78h-6.644v-9.55h6.644z" fill="url(#b)" fill-rule="nonzero"/>
 <path transform="matrix(.941397 0 0 .941397 1.40648 1.40555)" d="m21.847 26.861c1.188 0 2.153.962 2.153 2.146 0 1.185-.965 2.146-2.153 2.146s-2.152-.961-2.152-2.146c0-1.184.964-2.146 2.152-2.146zm4.306-10.014-2.041 2.034 3.139 3.129-3.251 3.689 2.153 1.878 5.023-5.723zm-7.535 5.007c.99 0 1.794.801 1.794 1.788s-.804 1.789-1.794 1.789-1.794-.802-1.794-1.789.804-1.788 1.794-1.788zm1.435-5.007c.594 0 1.077.48 1.077 1.073 0 .592-.483 1.073-1.077 1.073s-1.076-.481-1.076-1.073c0-.593.482-1.073 1.076-1.073z" fill="#121212" fill-opacity=".84"/>
 <ellipse transform="matrix(.0905596 0 0 .063563 11.9752 1.95742)" cx="132.784" cy="637.424" rx="20.679" ry="29.856" fill="#088bab"/>
</svg>
