<svg style="clip-rule:evenodd;fill-rule:evenodd;stroke-linejoin:round;stroke-miterlimit:2" viewBox="0 0 48 48" xmlns="http://www.w3.org/2000/svg">
 <path d="m31 44c1.104 0 2-0.896 2-2v-36c0-1.104-0.896-2-2-2h-14c-1.104 0-2 0.896-2 2v36c0 1.104 0.896 2 2 2h14z" style="fill:url(#_Linear1)"/>
 <path d="m29 12c0-0.554-0.446-1-1-1h-2v-2c0-0.554-0.446-1-1-1h-2c-0.554 0-1 0.446-1 1v2h-2c-0.554 0-1 0.446-1 1v2c0 0.554 0.446 1 1 1h2v2c0 0.554 0.446 1 1 1h2c0.554 0 1-0.446 1-1v-2h2c0.554 0 1-0.446 1-1v-2z" style="fill-rule:nonzero;fill:#0d79f2"/>
 <path d="m29 38c0 1.104-0.896 2-2 2s-2-0.896-2-2 0.896-2 2-2 2 0.896 2 2zm-6 0c0 1.104-0.896 2-2 2s-2-0.896-2-2 0.896-2 2-2 2 0.896 2 2zm6-6c0 1.104-0.896 2-2 2s-2-0.896-2-2 0.896-2 2-2 2 0.896 2 2zm-6 0c0 1.104-0.896 2-2 2s-2-0.896-2-2 0.896-2 2-2 2 0.896 2 2z" style="fill:#4f4f4f"/>
 <defs>
  <linearGradient id="_Linear1" x2="1" gradientTransform="matrix(-1.53143e-14,40,-18,-6.89142e-15,24,4)" gradientUnits="userSpaceOnUse">
   <stop style="stop-color:#e4e4e4" offset="0"/>
   <stop style="stop-color:#b8b8b8" offset="1"/>
  </linearGradient>
 </defs>
</svg>
