<?xml version="1.0" encoding="UTF-8" standalone="no"?><!DOCTYPE svg PUBLIC "-//W3C//DTD SVG 1.1//EN" "http://www.w3.org/Graphics/SVG/1.1/DTD/svg11.dtd"><svg width="100%" height="100%" viewBox="0 0 64 64" version="1.1" xmlns="http://www.w3.org/2000/svg" xmlns:xlink="http://www.w3.org/1999/xlink" xml:space="preserve" xmlns:serif="http://www.serif.com/" style="fill-rule:evenodd;clip-rule:evenodd;stroke-linejoin:round;stroke-miterlimit:1.41421;"><path d="M0.309,53.874l63.381,0c0,5.875 0.327,9.08 -4.013,8.943l-55.761,0c-3.848,0 -3.607,-2.894 -3.607,-8.943Z" style="fill:url(#_Linear1);"/><path d="M4.443,56.974c9.993,0 55.322,0 55.322,0c0,0 4.105,0.173 3.919,-3.981l-0.134,-2.787l-2.174,-44.936c0,0 -0.297,-3.633 -3.877,-3.619l-50.909,0.205c-3.791,-0.242 -4.101,3.57 -4.101,3.57l-2.054,45.253l-0.105,2.314c-0.202,4.466 2.237,3.981 4.113,3.981Z" style="fill:url(#_Linear2);"/><path d="M46.362,39.379c0.111,0.092 0.262,0.436 0.241,0.95c-0.039,0.91 1.858,3.282 2.584,3.731c3.312,2.055 -2.058,3.817 -3.001,4.436c-1.422,0.935 -2.857,1.88 -4.091,3.051c-2.596,2.485 -4.691,-1.789 -6.868,-1.843c-2.128,-0.05 -4.055,-0.04 -6.173,0.071c-2.024,0.017 -4.024,2.316 -5.83,2.146c-2.241,-0.212 -4.285,-1.413 -6.489,-1.875c-0.718,-0.149 -4.1,-0.435 -4.832,-1.563c-0.447,-0.687 0.594,-2.503 0.633,-3.068c0.011,-0.17 -0.782,-3.262 -0.191,-3.692c0.816,-0.595 2.076,-0.164 2.957,-0.656c0.733,-0.407 0.777,-1.011 1.194,-1.51c0,0 1.073,-0.725 1.307,-0.977c-0.314,-0.265 -0.322,-0.67 -0.346,-0.863c-0.122,-0.951 -0.333,-1.333 -0.056,-2.878c0.476,-2.649 2.209,-6.388 4.167,-8.322c1.093,-1.397 2.078,-3.604 2.404,-4.817c0.173,-3.531 -0.267,-8.649 1.801,-11.912c2.441,-3.848 7.771,-4.127 10.398,-0.33c2.161,3.124 1.745,7.437 2.773,10.889c1.614,5.386 6.385,8.543 7.367,14.472c0.413,2.475 -0.125,4.005 -0.668,4.083c-0.809,0.119 -1.314,2.688 -3.847,2.569c-1.537,-0.073 -1.758,-0.461 -2.342,-1.157c-0.167,-0.198 -0.409,-0.556 -0.574,-0.935c-0.282,0.483 -0.272,0.739 -0.044,1.197c0.332,0.663 1.336,2.228 4.237,1.357c1.165,-0.349 1.655,-0.86 2.284,-1.622c0.629,-0.761 0.748,-1.15 1.005,-0.932Zm-20.433,-23.147c-0.081,-0.759 -0.249,-1.389 1.052,-1.437c0.847,-0.031 1.093,1.596 0.888,2.082c-0.671,1.587 -4.06,1.958 -1.159,3.738c0.414,0.254 0.881,0.489 1.366,0.51c0.65,0.025 3.137,-0.42 4.014,-0.808c0.632,-0.28 1.03,-0.733 1.814,-1.003c0.265,-0.091 -1.044,1.14 -1.904,1.484c-0.787,0.319 -2.738,0.717 -3.48,0.853c-0.727,0.13 -1.726,-0.67 -1.52,0.039c0.203,0.7 1.905,1.068 2.122,1.039c2.356,-0.148 2.95,-0.921 4.165,-1.74c0.165,-0.111 0.58,0.065 0.537,0.259c-0.164,0.739 -0.907,1.617 -1.347,1.836c-1.977,0.972 -3.246,1.881 -4.511,1.217c-1.483,-0.782 -0.609,-1.63 -2.057,-2.427c-0.523,-0.287 -0.331,1.15 -0.55,1.705c-0.576,1.461 -1.917,2.747 -0.999,4.449c-0.771,0.21 -2.53,3.921 -2.783,5.854c-0.134,1.073 0.038,2.175 -0.157,3.238c-0.072,0.398 -0.94,-0.087 -1.129,-0.445c-0.528,-0.999 -0.659,-2.165 -0.429,-3.271c0.099,-0.468 0.015,-0.567 -0.11,-0.34c-0.703,1.242 -0.316,2.975 0.238,4.191c1.155,2.502 4.278,3.488 6.233,5.429c0.652,0.648 0.534,1.823 -0.228,2.341c-1.826,-2.428 -4.062,-4.654 -4.853,-5.351c-0.331,-0.292 -1.103,-1.081 -1.742,-0.83c0.603,0.482 1.646,1.538 2.368,2.206c2.293,2.121 5.026,5.115 5.01,8.538c0.939,-0.504 0.561,-1.607 0.168,-2.333c-1.212,-2.195 1.021,-0.344 2.05,-0.12c0.793,0.172 1.628,0.117 2.433,0.016c0.873,-0.111 1.765,-0.277 2.553,-0.667c0.729,-0.363 1.271,-1.019 1.898,-1.54c0.299,-0.248 0.53,-0.934 0.88,-0.765c1.375,0.666 -1.704,4.926 0.104,4.996c0.222,-1.421 0.613,-2.818 0.725,-4.231c0.116,-1.469 -1.653,-6.495 1.495,-6.553c0.081,-2.006 3.206,-1.859 4.229,-1.019c0,-0.465 -0.982,-0.882 -1.375,-1.078c0.681,-2.266 0.362,-3.176 -0.09,-5.316c-0.343,-1.633 -1.831,-3.831 -2.996,-4.518c2.164,1.894 3.576,6.4 2.795,9.146c-0.258,0.897 -0.845,1.011 -1.248,1.056c-1.792,0.186 -0.739,-2.117 -1.483,-5.291c-0.828,-3.528 -1.677,-3.792 -1.891,-4.069c-1.027,-4.589 -2.168,-4.132 -2.491,-5.865c-0.29,-1.533 1.336,-2.801 -0.875,-3.23c-0.72,-0.142 -1.492,-0.36 -2.024,-0.865c-0.694,-0.66 -0.216,-2.555 0.83,-2.631c1.398,-0.103 1.862,1.599 1.587,2.261c-0.079,0.132 -0.273,0.569 -0.462,0.845c0.256,0.102 0.52,0.203 0.986,-0.179c0.818,-0.669 0.642,-1.232 0.449,-1.906c-0.571,-1.994 -1.358,-2.37 -2.275,-2.547c-1.296,-0.25 -2.088,0.781 -2.308,2.115c-0.089,0.538 0.022,1.152 0.172,1.615c-0.315,-0.023 -0.912,-0.159 -1.306,-0.232c-0.263,-0.049 -0.543,0.053 -0.785,0.054c0.032,-1.966 -0.638,-3.271 -1.544,-3.295c-1.81,-0.051 -1.974,3.768 -0.66,4.42c0.146,0.072 0.511,-0.232 0.568,-0.383c-0.117,-0.111 -0.291,-0.268 -0.532,-0.495c-0.246,-0.232 -0.406,-0.557 -0.426,-0.752Zm6.669,-1.215c-0.689,0.064 -0.927,0.801 -0.951,1.391c-0.009,0.221 0.103,0.617 0.302,0.74c0.581,0.358 1.098,0.344 1.312,0.205c0.329,-0.213 0.409,-0.692 0.314,-1.267c-0.618,0.062 -1.071,-0.026 -1.052,-0.729c0.003,-0.124 0.09,-0.341 0.075,-0.34Zm-6.389,1.194c0.08,0.228 0.208,0.564 0.722,0.763c0.281,0.108 0.653,-0.143 0.677,-0.474c0.019,-0.271 -0.041,-0.399 -0.07,-0.459c-0.151,0.092 -0.29,0.097 -0.398,0.124c-0.169,0.043 -0.277,-0.087 -0.362,-0.213c-0.082,-0.12 -0.055,-0.27 -0.034,-0.403c0.021,-0.126 0.053,-0.241 0.145,-0.441c-0.186,-0.132 -0.564,0.207 -0.666,0.443c-0.081,0.184 -0.091,0.439 -0.014,0.66Z" style="fill:url(#_Linear3);fill-rule:nonzero;"/><defs><linearGradient id="_Linear1" x1="0" y1="0" x2="1" y2="0" gradientUnits="userSpaceOnUse" gradientTransform="matrix(59.4506,-0.0771084,0.0771084,59.4506,2.62169,59.0651)"><stop offset="0" style="stop-color:#727272;stop-opacity:1"/><stop offset="0.48" style="stop-color:#727272;stop-opacity:1"/><stop offset="1" style="stop-color:#696969;stop-opacity:1"/></linearGradient><linearGradient id="_Linear2" x1="0" y1="0" x2="1" y2="0" gradientUnits="userSpaceOnUse" gradientTransform="matrix(0.528082,-55.2169,55.2169,0.528082,30.6218,56.974)"><stop offset="0" style="stop-color:#353535;stop-opacity:1"/><stop offset="1" style="stop-color:#757575;stop-opacity:1"/></linearGradient><linearGradient id="_Linear3" x1="0" y1="0" x2="1" y2="0" gradientUnits="userSpaceOnUse" gradientTransform="matrix(0.239347,-35.2776,35.2776,0.239347,30.1469,39.7602)"><stop offset="0" style="stop-color:#fff;stop-opacity:1"/><stop offset="1" style="stop-color:#e7e7e7;stop-opacity:1"/></linearGradient></defs></svg>