<svg style="clip-rule:evenodd;fill-rule:evenodd;stroke-linejoin:round;stroke-miterlimit:2" version="1.1" viewBox="0 0 48 48" xmlns="http://www.w3.org/2000/svg">
 <path d="m42 4c1.104 0 2 0.896 2 2v36c0 1.104-0.896 2-2 2h-36c-1.104 0-2-0.896-2-2v-36c0-1.104 0.896-2 2-2h36z" style="fill:url(#_Linear1)"/>
 <path d="m42 21v1h-8.526v-1h8.526zm0-3v1h-8.526v-1h8.526zm0-3v1h-8.526v-1h8.526zm0-3v1h-8.526v-1h8.526zm0-3v1h-8.526v-1h8.526zm0-3v1h-8.526v-1h8.526z" style="fill:#acacac"/>
 <path d="m21.158 32.526c1.046 0 1.895 0.849 1.895 1.895v5.684c0 1.046-0.849 1.895-1.895 1.895h-13.263c-1.046 0-1.895-0.849-1.895-1.895v-5.684c0-1.046 0.849-1.895 1.895-1.895h13.263zm18.947 0c1.046 0 1.895 0.849 1.895 1.895v5.684c0 1.046-0.849 1.895-1.895 1.895h-13.263c-1.046 0-1.895-0.849-1.895-1.895v-5.684c0-1.046 0.849-1.895 1.895-1.895h13.263z" style="fill:#939393"/>
 <defs>
  <linearGradient id="_Linear1" x2="1" gradientTransform="matrix(0,-40,-40,0,24,44)" gradientUnits="userSpaceOnUse">
   <stop style="stop-color:#404040" offset="0"/>
   <stop style="stop-color:#5b5b5b" offset="1"/>
  </linearGradient>
 </defs>
</svg>
