<?xml version="1.0" encoding="UTF-8" standalone="no"?>
<!DOCTYPE svg PUBLIC "-//W3C//DTD SVG 1.1//EN" "http://www.w3.org/Graphics/SVG/1.1/DTD/svg11.dtd">
<svg width="100%" height="100%" viewBox="0 0 128 128" version="1.1" xmlns="http://www.w3.org/2000/svg" xmlns:xlink="http://www.w3.org/1999/xlink" xml:space="preserve" xmlns:serif="http://www.serif.com/" style="fill-rule:evenodd;clip-rule:evenodd;stroke-linejoin:round;stroke-miterlimit:1.41421;">
    <circle cx="64" cy="64" r="55.672" style="fill:url(#_Linear1);"/>
    <g>
        <path id="Forward--small-" serif:id="Forward (small)" d="M52.852,91.199L52.628,90.729L52.628,91.199L37.889,91.199L37.889,98.042L26.099,86.462L37.889,74.882L37.889,81.724L48.51,81.724L59.422,63.749L48.41,45.505L37.889,45.505L37.889,52.347L26.099,40.767L37.889,29.187L37.889,36.03L52.628,36.03L52.628,36.087L64.42,55.514L75.989,36.456L75.989,36.03L90.728,36.03L90.728,29.187L102.518,40.767L90.728,52.347L90.728,45.505L80.431,45.505L69.419,63.749L80.331,81.724L90.728,81.724L90.728,74.882L102.518,86.462L90.728,98.042L90.728,91.199L75.989,91.199L64.42,72.031L52.852,91.199Z" style="fill:url(#_Linear2);fill-rule:nonzero;"/>
    </g>
    <defs>
        <linearGradient id="_Linear1" x1="0" y1="0" x2="1" y2="0" gradientUnits="userSpaceOnUse" gradientTransform="matrix(6.61958e-15,-108.106,108.106,6.61958e-15,64,118.439)"><stop offset="0" style="stop-color:rgb(55,120,237);stop-opacity:1"/><stop offset="1" style="stop-color:rgb(73,174,240);stop-opacity:1"/></linearGradient>
        <linearGradient id="_Linear2" x1="0" y1="0" x2="1" y2="0" gradientUnits="userSpaceOnUse" gradientTransform="matrix(-0.616867,-78.8357,78.8357,-0.616867,67.956,99.6814)"><stop offset="0" style="stop-color:rgb(13,74,109);stop-opacity:1"/><stop offset="1" style="stop-color:rgb(24,110,156);stop-opacity:1"/></linearGradient>
    </defs>
</svg>
