<svg
    style="clip-rule:evenodd;fill-rule:evenodd;stroke-linejoin:round;stroke-miterlimit:2"
    viewBox="0 0 48 48"
    xmlns="http://www.w3.org/2000/svg" 
    xmlns:xlink="http://www.w3.org/1999/xlink">
    <linearGradient 
        id="a" 
        gradientTransform="matrix(0 -41.6338 37.8697 0 33.3576 52.7218)" 
        gradientUnits="userSpaceOnUse" 
        x2="1">
        <stop offset="0" stop-color="#0c0c0c"/>
        <stop offset="1" stop-color="#454545"/>
    </linearGradient>
<path 
    d="m45.841 11.91c0-2.072-1.679-3.75-3.75-3.75h-36.183c-2.07 0-3.75 1.678-3.75 3.75v24.185c0 2.07 1.68 3.75 3.75 3.75h36.183c2.071 0 3.75-1.68 3.75-3.75z"  
        fill="#1b1b1b"
        id="path1"/>
<path 
    d="m45.841 15.489c0-.995-.395-1.948-1.098-2.652-.704-.703-1.657-1.098-2.652-1.098h-19.185c-.924 0-1.815-.341-2.502-.958-.576-.516-1.285-1.151-1.861-1.668-.688-.616-1.579-.957-2.503-.957h-10.131c-.995 0-1.948.395-2.652 1.098-.703.703-1.098 1.657-1.098 2.652v24.189c0 2.07 1.679 3.75 3.75 3.75h36.182c2.071 0 3.75-1.68 3.75-3.75z" 
    fill="url(#a)"
    id="path2"/>
<path 
    d="m19.788 20.475c.027-.002.052.002.077.018l1.67 1.085c.231-.132.397-.247.649-.341v1.798c-.983.621-1.582 1.705-1.583 2.868 0 1.861 1.531 3.393 3.393 3.393 1.326-.001 2.536-.781 3.085-1.988.385.49.94 1.165 1.008 1.268.161.218.364.494.364.494.019.027.053.041.084.031l.214-.066.656 1.071c.03.049.021.112-.019.153l-.961.956c-.042.041-.108.048-.157.016l-1.677-1.092c-.414.255-.863.456-1.345.581l-.464 1.876c-.013.055-.062.093-.119.093h-1.365c-.06 0-.107-.042-.12-.1l-.391-1.862c-.478-.119-.928-.308-1.34-.554l-1.67 1.007c-.049.029-.112.025-.153-.016l-.965-.958c-.042-.042-.048-.108-.015-.157l1.069-1.617c-.26-.438-.455-.919-.57-1.429l-1.836-.442c-.056-.013-.099-.062-.099-.119v-1.354c0-.059.042-.115.099-.126l1.893-.391c.126-.454.313-.881.555-1.273l-1.028-1.683c-.029-.049-.025-.11.016-.15l.965-.959c.021-.021.052-.027.08-.031zm5.33-3.618v4.748l3.173-4.75 2.501 1.131-3.406 4.072 3.381 3.845-2.476 1.131-3.173-4.524v4.071l-2.255.353v-9.628l2.255-.449v-.002h.013z" 
    fill="#525252"
    id="path3"/>
</svg>