
<svg xmlns="http://www.w3.org/2000/svg" xmlns:xlink="http://www.w3.org/1999/xlink" width="22px" height="22px" viewBox="0 0 22 22" version="1.1">
<g id="surface1">
<path style=" stroke:none;fill-rule:nonzero;fill:rgb(26.666668%,26.666668%,26.666668%);fill-opacity:1;" d="M 8.386719 13.238281 C 8.386719 13.238281 15.730469 5.601562 18.015625 3.222656 C 18.390625 2.832031 19.007812 2.796875 19.425781 3.144531 C 19.429688 3.148438 19.429688 3.148438 19.429688 3.148438 C 19.855469 3.503906 19.929688 4.128906 19.59375 4.574219 C 17.226562 7.707031 8.625 19.09375 8.625 19.09375 C 8.625 19.09375 4.320312 14.050781 2.511719 11.929688 C 2.066406 11.410156 2.09375 10.636719 2.574219 10.148438 C 3.046875 9.671875 3.800781 9.625 4.328125 10.039062 C 5.769531 11.175781 8.386719 13.238281 8.386719 13.238281 Z M 8.386719 13.238281 "/>
</g>
</svg>
