
<svg xmlns="http://www.w3.org/2000/svg" xmlns:xlink="http://www.w3.org/1999/xlink" width="22px" height="22px" viewBox="0 0 22 22" version="1.1">
<defs>
<filter id="alpha" filterUnits="objectBoundingBox" x="0%" y="0%" width="100%" height="100%">
  <feColorMatrix type="matrix" in="SourceGraphic" values="0 0 0 0 1 0 0 0 0 1 0 0 0 0 1 0 0 0 1 0"/>
</filter>
<mask id="mask0">
  <g filter="url(#alpha)">
<rect x="0" y="0" width="22" height="22" style="fill:rgb(0%,0%,0%);fill-opacity:0.3;stroke:none;"/>
  </g>
</mask>
<clipPath id="clip1">
  <rect x="0" y="0" width="22" height="22"/>
</clipPath>
<g id="surface5" clip-path="url(#clip1)">
<path style=" stroke:none;fill-rule:nonzero;fill:rgb(26.666668%,26.666668%,26.666668%);fill-opacity:1;" d="M 11.027344 0 C 13.296875 0.015625 15.125 1.851562 15.125 4.125 L 15.125 11 C 15.125 13.273438 13.296875 15.109375 11.027344 15.125 L 11 15.125 C 8.71875 15.125 6.875 13.28125 6.875 11 L 6.875 4.125 C 6.875 1.84375 8.71875 0 11 0 Z M 10.195312 4.734375 L 8.027344 4.734375 L 8.027344 10.390625 L 10.195312 10.390625 Z M 13.972656 4.734375 L 11.804688 4.734375 L 11.804688 10.390625 L 13.972656 10.390625 Z M 13.972656 4.734375 "/>
</g>
</defs>
<g id="surface1">
<path style=" stroke:none;fill-rule:nonzero;fill:rgb(26.666668%,26.666668%,26.666668%);fill-opacity:1;" d="M 11.675781 20.84375 L 14.015625 20.84375 L 14.015625 22 L 7.984375 22 L 7.984375 20.84375 L 10.324219 20.84375 L 10.324219 17.15625 C 7.898438 17.085938 4.851562 15.082031 4.851562 11 L 4.851562 8.640625 L 5.96875 8.640625 L 5.96875 11 C 5.96875 14.066406 7.933594 15.953125 11 15.953125 C 14.066406 15.953125 16.03125 14.066406 16.03125 11 L 16.03125 8.640625 L 17.148438 8.640625 L 17.148438 11 C 17.148438 15.082031 14.050781 17.132812 11.675781 17.15625 Z M 11.675781 20.84375 "/>
<use xlink:href="#surface5" mask="url(#mask0)"/>
</g>
</svg>
