<svg xmlns="http://www.w3.org/2000/svg" style="fill-rule:evenodd;clip-rule:evenodd;stroke-linejoin:round;stroke-miterlimit:2" width="100%" height="100%" version="1.1" viewBox="0 0 22 22" xml:space="preserve">
 <defs>
  <style id="current-color-scheme" type="text/css">
   .ColorScheme-Text { color:#444444; } .ColorScheme-Highlight { color:#4285f4; } .ColorScheme-NeutralText { color:#ff9800; } .ColorScheme-PositiveText { color:#4caf50; } .ColorScheme-NegativeText { color:#f44336; }
  </style>
 </defs>
 <path style="fill:currentColor;" class="ColorScheme-Text" d="M8.652,1.651c-0.296,0.009 -0.577,0.131 -0.788,0.341l-3.495,3.507c-1.145,1.102 0.549,2.8 1.647,1.652l1.509,-1.512c0,-0 0.013,8.575 0.013,8.759c0.263,2.613 2.571,4.783 5.23,4.783c2.826,0 5.244,-2.425 5.244,-5.259c0,-2.834 -2.418,-5.26 -5.244,-5.26c-1.102,0 -2.065,0.477 -2.905,1.107l-0.008,-6.95c-0,-0.659 -0.545,-1.189 -1.203,-1.169l-0,0.001Z"/>
</svg>
