
<svg xmlns="http://www.w3.org/2000/svg" xmlns:xlink="http://www.w3.org/1999/xlink" width="22px" height="22px" viewBox="0 0 22 22" version="1.1">
<defs>
<filter id="alpha" filterUnits="objectBoundingBox" x="0%" y="0%" width="100%" height="100%">
  <feColorMatrix type="matrix" in="SourceGraphic" values="0 0 0 0 1 0 0 0 0 1 0 0 0 0 1 0 0 0 1 0"/>
</filter>
<mask id="mask0">
  <g filter="url(#alpha)">
<rect x="0" y="0" width="22" height="22" style="fill:rgb(0%,0%,0%);fill-opacity:0.3;stroke:none;"/>
  </g>
</mask>
<clipPath id="clip1">
  <rect x="0" y="0" width="22" height="22"/>
</clipPath>
<g id="surface5" clip-path="url(#clip1)">
<path style=" stroke:none;fill-rule:nonzero;fill:rgb(26.666668%,26.666668%,26.666668%);fill-opacity:1;" d="M 4.125 3.472656 L 17.875 3.472656 L 17.875 19.25 C 17.875 20.007812 17.261719 20.625 16.5 20.625 L 5.5 20.625 C 4.738281 20.625 4.125 20.007812 4.125 19.25 Z M 10.769531 9.140625 C 10.757812 9.1875 10.699219 9.457031 10.699219 9.664062 C 10.699219 10.027344 10.554688 10.285156 10.371094 10.46875 C 10.1875 10.652344 9.929688 10.796875 9.566406 10.796875 L 7.921875 10.796875 C 7.554688 10.796875 7.300781 10.652344 7.117188 10.46875 C 6.933594 10.285156 6.789062 10.027344 6.789062 9.664062 L 6.789062 9.339844 C 6.789062 8.15625 7.210938 7.160156 8.03125 6.359375 C 8.859375 5.539062 9.839844 5.132812 10.96875 5.132812 C 12.035156 5.132812 13.003906 5.503906 13.847656 6.25 C 14.742188 7.015625 15.207031 8.046875 15.207031 9.355469 C 15.207031 10.261719 14.960938 11.042969 14.484375 11.710938 L 13.027344 13.699219 C 12.964844 13.800781 12.953125 13.929688 12.953125 14.078125 L 12.953125 17.832031 C 12.953125 18.199219 12.808594 18.453125 12.625 18.636719 C 12.441406 18.820312 12.1875 18.964844 11.820312 18.964844 L 10.179688 18.964844 C 9.8125 18.964844 9.554688 18.820312 9.375 18.636719 C 9.191406 18.453125 9.046875 18.199219 9.046875 17.832031 L 9.046875 13.957031 C 9.046875 13.761719 9.054688 13.582031 9.066406 13.417969 C 9.082031 13.21875 9.113281 13.023438 9.160156 12.84375 C 9.207031 12.660156 9.269531 12.476562 9.351562 12.296875 C 9.433594 12.117188 9.539062 11.933594 9.671875 11.746094 L 11.121094 9.734375 C 11.226562 9.597656 11.300781 9.472656 11.300781 9.339844 C 11.300781 9.265625 11.292969 9.199219 11.242188 9.15625 C 11.171875 9.097656 11.117188 9.039062 11.046875 9.039062 C 10.941406 9.039062 10.847656 9.066406 10.773438 9.136719 Z M 10.769531 9.140625 "/>
</g>
</defs>
<g id="surface1">
<use xlink:href="#surface5" mask="url(#mask0)"/>
<path style=" stroke:none;fill-rule:nonzero;fill:rgb(26.666668%,26.666668%,26.666668%);fill-opacity:1;" d="M 7.472656 2.507812 L 7.472656 1.945312 C 7.472656 1.082031 8.175781 0.382812 9.035156 0.382812 L 12.964844 0.382812 C 13.824219 0.382812 14.527344 1.082031 14.527344 1.945312 L 14.527344 2.507812 L 15.851562 2.507812 C 17.398438 2.507812 18.652344 3.761719 18.652344 5.308594 L 18.652344 18.816406 C 18.652344 20.363281 17.398438 21.617188 15.851562 21.617188 L 6.148438 21.617188 C 4.601562 21.617188 3.347656 20.363281 3.347656 18.816406 L 3.347656 5.308594 C 3.347656 3.761719 4.601562 2.507812 6.148438 2.507812 Z M 6.148438 3.472656 C 5.136719 3.472656 4.3125 4.292969 4.3125 5.308594 L 4.3125 18.816406 C 4.3125 19.832031 5.136719 20.65625 6.148438 20.65625 L 15.851562 20.65625 C 16.863281 20.65625 17.6875 19.832031 17.6875 18.816406 L 17.6875 5.308594 C 17.6875 4.292969 16.863281 3.472656 15.851562 3.472656 Z M 10.179688 17.929688 C 10.113281 17.929688 10.082031 17.898438 10.082031 17.832031 L 10.082031 16.199219 C 10.082031 16.132812 10.113281 16.101562 10.179688 16.101562 L 11.820312 16.101562 C 11.886719 16.101562 11.917969 16.132812 11.917969 16.199219 L 11.917969 17.832031 C 11.917969 17.898438 11.886719 17.929688 11.820312 17.929688 Z M 10.179688 15.09375 C 10.113281 15.09375 10.082031 15.0625 10.082031 14.996094 L 10.082031 13.957031 C 10.082031 13.792969 10.085938 13.636719 10.097656 13.5 C 10.109375 13.359375 10.128906 13.226562 10.164062 13.101562 C 10.195312 12.972656 10.238281 12.847656 10.292969 12.726562 C 10.351562 12.601562 10.425781 12.476562 10.515625 12.347656 L 11.949219 10.355469 C 12.207031 10.011719 12.335938 9.675781 12.335938 9.339844 C 12.335938 8.933594 12.195312 8.609375 11.910156 8.367188 C 11.625 8.125 11.339844 8.003906 11.046875 8.003906 C 10.660156 8.003906 10.335938 8.128906 10.066406 8.382812 C 9.796875 8.613281 9.664062 9.039062 9.664062 9.664062 C 9.664062 9.726562 9.628906 9.757812 9.566406 9.757812 L 7.921875 9.757812 C 7.859375 9.757812 7.824219 9.726562 7.824219 9.664062 L 7.824219 9.339844 C 7.824219 8.449219 8.136719 7.699219 8.761719 7.09375 C 9.382812 6.476562 10.117188 6.167969 10.96875 6.167969 C 11.785156 6.167969 12.519531 6.457031 13.175781 7.039062 C 13.839844 7.605469 14.171875 8.378906 14.171875 9.355469 C 14.171875 10.027344 13.996094 10.613281 13.644531 11.105469 L 12.167969 13.121094 C 12 13.371094 11.917969 13.691406 11.917969 14.078125 L 11.917969 14.996094 C 11.917969 15.0625 11.886719 15.09375 11.820312 15.09375 Z M 10.179688 15.09375 "/>
</g>
</svg>
