<svg xmlns="http://www.w3.org/2000/svg" style="fill-rule:evenodd;clip-rule:evenodd;stroke-linejoin:round;stroke-miterlimit:2" width="100%" height="100%" version="1.1" viewBox="0 0 22 22" xml:space="preserve">
 <defs>
  <style id="current-color-scheme" type="text/css">
   .ColorScheme-Text { color:#444444; } .ColorScheme-Highlight { color:#4285f4; } .ColorScheme-NeutralText { color:#ff9800; } .ColorScheme-PositiveText { color:#4caf50; } .ColorScheme-NegativeText { color:#f44336; }
  </style>
 </defs>
 <path style="fill:currentColor;fill-opacity:0.3" class="ColorScheme-Text" d="M5.156,4.601l11.688,0l-0,13.412c-0,0.642 -0.522,1.168 -1.169,1.168l-9.35,0c-0.647,0 -1.169,-0.526 -1.169,-1.168l0,-13.412Zm5.648,4.819c-0.009,0.038 -0.061,0.27 -0.061,0.444c-0,0.311 -0.123,0.528 -0.278,0.684c-0.156,0.155 -0.373,0.278 -0.684,0.278l-1.397,-0c-0.312,-0 -0.528,-0.123 -0.683,-0.278c-0.157,-0.156 -0.28,-0.373 -0.28,-0.684l0,-0.274c0,-1.008 0.357,-1.854 1.056,-2.536c0.703,-0.697 1.537,-1.042 2.495,-1.042c0.909,-0 1.731,0.315 2.448,0.951c0.761,0.65 1.158,1.525 1.158,2.64c-0,0.769 -0.211,1.434 -0.618,2l-1.237,1.691c-0.053,0.086 -0.062,0.195 -0.062,0.323l-0,3.192c-0,0.311 -0.123,0.527 -0.278,0.683c-0.157,0.156 -0.373,0.279 -0.684,0.279l-1.398,-0c-0.311,-0 -0.528,-0.123 -0.684,-0.279c-0.155,-0.156 -0.278,-0.372 -0.278,-0.683l0,-3.295c0,-0.166 0.006,-0.318 0.017,-0.458c0.012,-0.171 0.039,-0.334 0.079,-0.489c0.04,-0.156 0.095,-0.312 0.165,-0.466c0.07,-0.152 0.159,-0.307 0.271,-0.465l1.233,-1.711c0.088,-0.116 0.153,-0.222 0.153,-0.335c0,-0.064 -0.008,-0.12 -0.052,-0.157c-0.059,-0.051 -0.104,-0.1 -0.164,-0.1c-0.091,0 -0.17,0.024 -0.233,0.083l-0.004,0.004Z"/>
 <path style="fill:currentColor;" class="ColorScheme-Text" d="M8.003,3.783l0,-0.479c0,-0.733 0.595,-1.328 1.328,-1.328l3.338,0c0.733,0 1.328,0.595 1.328,1.328l-0,0.479l1.125,-0c1.315,-0 2.381,1.066 2.381,2.38l-0,11.481c-0,1.315 -1.066,2.381 -2.381,2.381l-8.244,0c-1.315,0 -2.381,-1.066 -2.381,-2.381l0,-11.481c0,-1.314 1.066,-2.38 2.381,-2.38l1.125,-0Zm-1.125,0.818c-0.863,0 -1.563,0.699 -1.563,1.562l0,11.481c0,0.863 0.7,1.563 1.563,1.563l8.244,-0c0.863,-0 1.563,-0.7 1.563,-1.563l-0,-11.481c-0,-0.863 -0.7,-1.562 -1.563,-1.562l-8.244,0Zm3.423,12.29c-0.055,-0 -0.082,-0.029 -0.082,-0.082l0,-1.391c0,-0.055 0.027,-0.082 0.082,-0.082l1.398,0c0.054,0 0.082,0.027 0.082,0.082l-0,1.391c-0,0.053 -0.028,0.082 -0.082,0.082l-1.398,-0Zm0,-2.412c-0.055,0 -0.082,-0.027 -0.082,-0.081l0,-0.884c0,-0.141 0.005,-0.271 0.014,-0.39c0.008,-0.118 0.027,-0.232 0.055,-0.339c0.027,-0.108 0.065,-0.213 0.112,-0.318c0.048,-0.105 0.111,-0.213 0.189,-0.323l1.219,-1.691c0.219,-0.292 0.329,-0.58 0.329,-0.863c0,-0.347 -0.121,-0.622 -0.363,-0.828c-0.242,-0.206 -0.486,-0.309 -0.733,-0.309c-0.329,0 -0.607,0.108 -0.836,0.322c-0.228,0.196 -0.342,0.56 -0.342,1.089c-0,0.055 -0.027,0.082 -0.082,0.082l-1.397,-0c-0.055,-0 -0.083,-0.027 -0.083,-0.082l0,-0.274c0,-0.758 0.266,-1.395 0.795,-1.91c0.53,-0.525 1.155,-0.788 1.876,-0.788c0.694,-0 1.319,0.246 1.877,0.74c0.566,0.484 0.848,1.142 0.848,1.971c0,0.572 -0.149,1.067 -0.451,1.487l-1.253,1.712c-0.142,0.214 -0.212,0.486 -0.212,0.815l-0,0.781c-0,0.054 -0.028,0.081 -0.082,0.081l-1.398,0Z"/>
</svg>
