<svg xmlns="http://www.w3.org/2000/svg" viewBox="-3 -3 22 22">
 <defs>
  <style id="current-color-scheme" type="text/css">
   .ColorScheme-Text { color:#444444; } .ColorScheme-Highlight { color:#4285f4; } .ColorScheme-NeutralText { color:#ff9800; } .ColorScheme-PositiveText { color:#4caf50; } .ColorScheme-NegativeText { color:#f44336; }
  </style>
 </defs>
 <path fill="#444444" d="m9.284 15.26-.261-1.227c-.029-.137.058-.272.195-.301.137-.03.272.058.301.195l.261 1.228c.03.137-.058.272-.195.301s-.272-.059-.301-.196zm-3.064-.105.261-1.228c.029-.137.164-.225.301-.195.137.029.224.164.195.301l-.261 1.227c-.029.137-.164.225-.301.196s-.225-.164-.195-.301zm5.906-1.045-.738-1.015c-.082-.113-.057-.272.056-.355.114-.082.273-.057.355.057l.738 1.015c.082.113.057.272-.057.355-.113.082-.272.057-.354-.057zm-8.663-.298.738-1.015c.082-.114.241-.139.355-.057.113.083.138.242.056.355l-.738 1.015c-.082.114-.241.139-.354.057-.114-.083-.139-.242-.057-.355zm4.537-11.295c3.026 0 5.483 2.457 5.483 5.483s-2.457 5.483-5.483 5.483-5.483-2.457-5.483-5.483 2.457-5.483 5.483-5.483zm0 .473c-2.765 0-5.01 2.245-5.01 5.01s2.245 5.01 5.01 5.01 5.01-2.245 5.01-5.01-2.245-5.01-5.01-5.01zm0 .783c2.333 0 4.227 1.894 4.227 4.227s-1.894 4.227-4.227 4.227-4.227-1.894-4.227-4.227 1.894-4.227 4.227-4.227zm6.254 8.131-1.087-.627c-.121-.07-.163-.226-.092-.347.07-.122.225-.163.346-.093l1.087.627c.122.07.163.226.093.347-.07.122-.225.163-.347.093zm-12.762-.44 1.087-.627c.121-.07.276-.029.346.093.071.121.029.277-.092.347l-1.087.627c-.122.07-.277.029-.347-.093-.07-.121-.029-.277.093-.347zm13.81-2.441-1.249-.131c-.139-.015-.24-.14-.226-.28.015-.139.14-.24.28-.226l1.248.132c.139.014.24.139.226.279-.015.139-.14.24-.279.226zm-14.657-.505 1.248-.132c.14-.014.265.087.28.226.014.14-.087.265-.226.28l-1.249.131c-.139.014-.264-.087-.279-.226-.014-.14.087-.265.226-.279zm14.441-2.553-1.193.387c-.134.044-.277-.029-.32-.163-.044-.133.03-.276.163-.32l1.193-.388c.134-.043.277.03.32.164.044.133-.029.276-.163.32zm-14.015-.484 1.193.388c.133.044.207.187.163.32-.043.134-.186.207-.32.163l-1.193-.387c-.134-.044-.207-.187-.163-.32.043-.134.186-.207.32-.164zm1.623-2.6.933.84c.104.093.112.254.018.358-.093.104-.254.113-.358.019l-.933-.84c-.104-.094-.112-.254-.019-.358.094-.105.255-.113.359-.019zm10.952.377-.933.84c-.104.094-.265.085-.358-.019-.094-.104-.086-.265.018-.358l.933-.84c.104-.094.265-.086.359.019.093.104.085.264-.019.358zm-8.411-2.093.51 1.147c.057.128 0 .278-.128.335s-.279-.001-.336-.129l-.51-1.146c-.057-.128.001-.278.129-.335s.278 0 .335.128zm5.994.207-.51 1.146c-.057.128-.208.186-.336.129s-.185-.207-.128-.335l.51-1.147c.057-.128.207-.185.335-.128s.186.207.129.335zm-2.975-.74v1.254c0 .141-.114.254-.254.254s-.254-.113-.254-.254v-1.254c0-.141.114-.254.254-.254s.254.113.254.254z"/>
</svg>
