
<svg xmlns="http://www.w3.org/2000/svg" xmlns:xlink="http://www.w3.org/1999/xlink" width="22px" height="22px" viewBox="0 0 22 22" version="1.1">
<g id="surface1">
<path style=" stroke:none;fill-rule:nonzero;fill:rgb(26.666668%,26.666668%,26.666668%);fill-opacity:1;" d="M 19.515625 14.390625 C 17.878906 18.511719 13.582031 20.78125 9.382812 20.027344 L 8.636719 21.898438 L 4.882812 16.457031 L 11.347656 15.085938 L 10.792969 16.476562 C 13.054688 16.558594 15.226562 15.253906 16.109375 13.035156 C 16.59375 11.816406 16.625 10.46875 16.203125 9.230469 L 19.175781 6.878906 C 20.355469 9.21875 20.480469 11.953125 19.515625 14.390625 Z M 17.117188 5.542969 L 10.652344 6.914062 L 11.207031 5.523438 C 8.945312 5.441406 6.773438 6.746094 5.890625 8.964844 C 5.40625 10.183594 5.375 11.53125 5.796875 12.769531 L 2.824219 15.121094 C 1.644531 12.78125 1.519531 10.046875 2.484375 7.609375 C 4.121094 3.488281 8.417969 1.21875 12.617188 1.972656 L 13.363281 0.101562 Z M 17.117188 5.542969 "/>
</g>
</svg>
