
<svg xmlns="http://www.w3.org/2000/svg" xmlns:xlink="http://www.w3.org/1999/xlink" width="22px" height="22px" viewBox="0 0 22 22" version="1.1">
<g id="surface1">
<path style=" stroke:none;fill-rule:nonzero;fill:rgb(26.666668%,26.666668%,26.666668%);fill-opacity:1;" d="M 21.054688 7.988281 C 21.054688 18.277344 21.054688 20.851562 13.335938 20.851562 C 9.421875 20.851562 7.496094 20.183594 6.546875 18.191406 C 6.238281 18.25 5.925781 18.277344 5.617188 18.277344 C 2.773438 18.277344 0.46875 15.976562 0.46875 13.132812 C 0.46875 10.289062 2.773438 7.988281 5.617188 7.988281 Z M 5.617188 10.558594 C 4.136719 10.617188 3.042969 11.746094 3.042969 13.132812 C 3.042969 14.554688 4.195312 15.707031 5.617188 15.707031 C 5.703125 15.707031 5.789062 15.699219 5.875 15.6875 C 5.691406 14.339844 5.640625 12.613281 5.625 10.558594 Z M 9.699219 0.675781 C 9.21875 2.398438 9.648438 3.023438 10.421875 4.046875 C 11.195312 5.070312 10.410156 6.335938 9.425781 7.335938 C 10.027344 5.285156 8.832031 4.835938 8.371094 3.949219 C 7.859375 2.972656 8.285156 2.214844 9.699219 0.675781 Z M 13.554688 0.675781 C 12.144531 2.214844 11.71875 2.972656 12.230469 3.949219 C 12.691406 4.835938 13.886719 5.285156 13.285156 7.335938 C 14.269531 6.335938 15.054688 5.070312 14.28125 4.046875 C 13.507812 3.023438 13.078125 2.398438 13.554688 0.675781 Z M 17.417969 0.675781 C 16.9375 2.398438 17.367188 3.023438 18.140625 4.046875 C 18.914062 5.070312 18.132812 6.335938 17.144531 7.335938 C 17.746094 5.285156 16.550781 4.835938 16.089844 3.949219 C 15.582031 2.972656 16.003906 2.214844 17.417969 0.675781 Z M 17.417969 0.675781 "/>
</g>
</svg>
