
<svg xmlns="http://www.w3.org/2000/svg" xmlns:xlink="http://www.w3.org/1999/xlink" width="22px" height="22px" viewBox="0 0 22 22" version="1.1">
<defs>
<filter id="alpha" filterUnits="objectBoundingBox" x="0%" y="0%" width="100%" height="100%">
  <feColorMatrix type="matrix" in="SourceGraphic" values="0 0 0 0 1 0 0 0 0 1 0 0 0 0 1 0 0 0 1 0"/>
</filter>
<mask id="mask0">
  <g filter="url(#alpha)">
<rect x="0" y="0" width="22" height="22" style="fill:rgb(0%,0%,0%);fill-opacity:0.3;stroke:none;"/>
  </g>
</mask>
<clipPath id="clip1">
  <rect x="0" y="0" width="22" height="22"/>
</clipPath>
<g id="surface5" clip-path="url(#clip1)">
<path style=" stroke:none;fill-rule:nonzero;fill:rgb(26.666668%,26.666668%,26.666668%);fill-opacity:1;" d="M 0 17.503906 L 0 18.253906 C 0 19.921875 1.429688 21.347656 3.09375 21.347656 L 18.90625 21.347656 C 20.574219 21.347656 22 19.921875 22 18.253906 L 22 17.503906 C 21.269531 18.167969 20.316406 18.597656 19.25 18.597656 L 2.75 18.597656 C 1.6875 18.597656 0.730469 18.167969 0 17.503906 Z M 1.375 17.503906 C 0.554688 17.023438 0 16.132812 0 15.125 C 0 15.023438 0.00390625 14.921875 0.015625 14.820312 L 1.390625 2.445312 C 1.546875 1.058594 2.730469 0 4.125 0 L 17.875 0 C 19.269531 0 20.453125 1.058594 20.609375 2.445312 L 21.984375 14.820312 C 21.996094 14.921875 22 15.023438 22 15.125 C 22 16.132812 21.445312 17.023438 20.625 17.503906 L 20.625 15.125 C 20.625 15.074219 20.621094 15.023438 20.617188 14.972656 C 20.617188 14.972656 19.242188 2.597656 19.242188 2.597656 C 19.164062 1.90625 18.570312 1.375 17.875 1.375 L 4.125 1.375 C 3.429688 1.375 2.835938 1.90625 2.757812 2.597656 L 1.382812 14.972656 C 1.378906 15.023438 1.375 15.074219 1.375 15.125 Z M 9.820312 4.625 L 12.167969 4.625 L 15.125 12.875 L 13.1875 12.875 L 12.566406 11.5 L 9.441406 11.5 L 8.8125 12.875 L 6.875 12.875 Z M 10.988281 6.464844 L 9.832031 10.125 L 12.167969 10.125 Z M 10.988281 6.464844 "/>
</g>
</defs>
<g id="surface1">
<use xlink:href="#surface5" mask="url(#mask0)"/>
</g>
</svg>
