
<svg xmlns="http://www.w3.org/2000/svg" xmlns:xlink="http://www.w3.org/1999/xlink" width="22px" height="22px" viewBox="0 0 22 22" version="1.1">
<defs>
<filter id="alpha" filterUnits="objectBoundingBox" x="0%" y="0%" width="100%" height="100%">
  <feColorMatrix type="matrix" in="SourceGraphic" values="0 0 0 0 1 0 0 0 0 1 0 0 0 0 1 0 0 0 1 0"/>
</filter>
<mask id="mask0">
  <g filter="url(#alpha)">
<rect x="0" y="0" width="22" height="22" style="fill:rgb(0%,0%,0%);fill-opacity:0.3;stroke:none;"/>
  </g>
</mask>
<clipPath id="clip1">
  <rect x="0" y="0" width="22" height="22"/>
</clipPath>
<g id="surface5" clip-path="url(#clip1)">
<path style=" stroke:none;fill-rule:nonzero;fill:rgb(26.666668%,26.666668%,26.666668%);fill-opacity:1;" d="M 19.25 16.5 L 19.25 19.25 L 20.851562 19.25 C 21.488281 19.25 22 18.734375 22 18.097656 L 22 17.648438 C 22 17.011719 21.484375 16.554688 20.851562 16.5 Z M 19.25 16.5 "/>
</g>
</defs>
<g id="surface1">
<path style=" stroke:none;fill-rule:nonzero;fill:rgb(26.666668%,26.666668%,26.666668%);fill-opacity:1;" d="M 20.96875 0 L 15.074219 6.914062 L 17.367188 8.253906 L 21.390625 0.378906 Z M 4.632812 4.125 L 0 8.253906 L 4.8125 7.5625 L 6.230469 15.125 L 20.347656 15.125 L 18.527344 10.570312 L 16.210938 8.949219 L 10.128906 13.75 L 6.367188 4.78125 Z M 12.738281 6.875 L 8.988281 8.253906 L 10.417969 11.726562 L 15.050781 8.253906 Z M 12.738281 6.875 "/>
<path style=" stroke:none;fill-rule:nonzero;fill:rgb(26.666668%,26.666668%,26.666668%);fill-opacity:1;" d="M 1.148438 16.5 C 0.511719 16.5 0 17.011719 0 17.648438 L 0 18.101562 C 0 18.738281 0.511719 19.25 1.148438 19.25 L 19.25 19.25 L 19.25 16.5 Z M 1.148438 16.5 "/>
<use xlink:href="#surface5" mask="url(#mask0)"/>
</g>
</svg>
