
<svg xmlns="http://www.w3.org/2000/svg" xmlns:xlink="http://www.w3.org/1999/xlink" width="22px" height="22px" viewBox="0 0 22 22" version="1.1">
<defs>
<filter id="alpha" filterUnits="objectBoundingBox" x="0%" y="0%" width="100%" height="100%">
  <feColorMatrix type="matrix" in="SourceGraphic" values="0 0 0 0 1 0 0 0 0 1 0 0 0 0 1 0 0 0 1 0"/>
</filter>
<mask id="mask0">
  <g filter="url(#alpha)">
<rect x="0" y="0" width="22" height="22" style="fill:rgb(0%,0%,0%);fill-opacity:0.3;stroke:none;"/>
  </g>
</mask>
<clipPath id="clip1">
  <rect x="0" y="0" width="22" height="22"/>
</clipPath>
<g id="surface5" clip-path="url(#clip1)">
<path style=" stroke:none;fill-rule:nonzero;fill:rgb(26.666668%,26.666668%,26.666668%);fill-opacity:1;" d="M 14.203125 18.417969 L 7.796875 18.417969 L 7.796875 21.027344 L 14.203125 21.027344 Z M 2.75 1.375 C 0 1.375 0 4.125 0 4.125 L 0 15.125 C 0 15.125 0 17.875 2.75 17.875 L 19.25 17.875 C 19.25 17.875 22 17.875 22 15.125 L 22 4.125 C 22 4.125 22 1.375 19.25 1.375 Z M 2.75 2.75 L 19.25 2.75 C 20.625 2.75 20.625 4.125 20.625 4.125 L 20.625 15.125 C 20.625 16.5 19.25 16.5 19.25 16.5 L 2.75 16.5 C 1.375 16.5 1.375 15.125 1.375 15.125 L 1.375 4.125 C 1.375 4.125 1.375 2.75 2.75 2.75 Z M 2.75 2.75 "/>
</g>
</defs>
<g id="surface1">
<use xlink:href="#surface5" mask="url(#mask0)"/>
<path style=" stroke:none;fill-rule:nonzero;fill:rgb(26.666668%,26.666668%,26.666668%);fill-opacity:1;" d="M 15.621094 14.851562 L 17.511719 12.960938 C 18.046875 12.425781 18.917969 12.425781 19.453125 12.960938 C 19.992188 13.5 19.992188 14.371094 19.453125 14.90625 L 17.566406 16.792969 L 19.453125 18.683594 C 19.992188 19.21875 19.992188 20.089844 19.453125 20.625 C 18.917969 21.164062 18.046875 21.164062 17.511719 20.625 L 15.621094 18.738281 L 13.734375 20.625 C 13.199219 21.164062 12.328125 21.164062 11.789062 20.625 C 11.253906 20.089844 11.253906 19.21875 11.789062 18.683594 L 13.679688 16.792969 L 11.789062 14.90625 C 11.253906 14.371094 11.253906 13.5 11.789062 12.960938 C 12.328125 12.425781 13.199219 12.425781 13.734375 12.960938 Z M 15.621094 14.851562 "/>
</g>
</svg>
