
<svg xmlns="http://www.w3.org/2000/svg" xmlns:xlink="http://www.w3.org/1999/xlink" width="22px" height="22px" viewBox="0 0 22 22" version="1.1">
<g id="surface1">
<path style=" stroke:none;fill-rule:nonzero;fill:rgb(26.666668%,26.666668%,26.666668%);fill-opacity:1;" d="M 11 1.375 C 5.71875 1.375 1.375 5.71875 1.375 11 C 1.375 16.28125 5.71875 20.625 11 20.625 C 16.28125 20.625 20.625 16.28125 20.625 11 C 20.625 5.71875 16.28125 1.375 11 1.375 Z M 8 6.566406 C 9.128906 6.566406 10.0625 7.496094 10.0625 8.628906 C 10.0625 9.761719 9.128906 10.691406 8 10.691406 C 6.867188 10.691406 5.9375 9.761719 5.9375 8.628906 C 5.9375 7.496094 6.867188 6.566406 8 6.566406 Z M 14.117188 6.515625 C 15.25 6.515625 16.179688 7.445312 16.179688 8.578125 C 16.179688 9.707031 15.25 10.640625 14.117188 10.640625 C 12.984375 10.640625 12.054688 9.707031 12.054688 8.578125 C 12.054688 7.445312 12.984375 6.515625 14.117188 6.515625 Z M 11 15.125 C 13.519531 15.125 17.714844 12.398438 17.71875 12.398438 C 18.472656 12.398438 15.519531 17.796875 11 17.875 C 6.234375 17.957031 3.183594 12.394531 3.9375 12.382812 C 3.945312 12.382812 8.480469 15.125 11 15.125 Z M 11 15.125 "/>
</g>
</svg>
