
<svg xmlns="http://www.w3.org/2000/svg" xmlns:xlink="http://www.w3.org/1999/xlink" width="22px" height="22px" viewBox="0 0 22 22" version="1.1">
<defs>
<filter id="alpha" filterUnits="objectBoundingBox" x="0%" y="0%" width="100%" height="100%">
  <feColorMatrix type="matrix" in="SourceGraphic" values="0 0 0 0 1 0 0 0 0 1 0 0 0 0 1 0 0 0 1 0"/>
</filter>
<mask id="mask0">
  <g filter="url(#alpha)">
<rect x="0" y="0" width="22" height="22" style="fill:rgb(0%,0%,0%);fill-opacity:0.3;stroke:none;"/>
  </g>
</mask>
<clipPath id="clip1">
  <rect x="0" y="0" width="22" height="22"/>
</clipPath>
<g id="surface5" clip-path="url(#clip1)">
<path style=" stroke:none;fill-rule:evenodd;fill:rgb(26.666668%,26.666668%,26.666668%);fill-opacity:1;" d="M 7.875 20.4375 C 7.597656 20.828125 7.074219 20.757812 6.816406 20.613281 C 3.46875 18.601562 1.375 14.960938 1.375 11 C 1.375 7.039062 3.46875 3.398438 6.824219 1.398438 C 7.078125 1.253906 7.6875 1.179688 7.929688 1.558594 C 8.179688 1.941406 7.925781 2.449219 7.449219 2.722656 C 4.734375 4.34375 2.761719 7.816406 2.761719 11.027344 C 2.761719 14.234375 4.777344 17.746094 7.484375 19.378906 C 7.953125 19.644531 8.132812 20.066406 7.875 20.4375 Z M 12.335938 1.375 L 18.574219 6.875 L 19.886719 6.875 C 20.585938 6.875 21.152344 7.441406 21.152344 8.140625 L 21.152344 13.859375 C 21.152344 14.558594 20.585938 15.125 19.886719 15.125 L 18.574219 15.125 L 12.335938 20.625 Z M 9.691406 16.371094 C 10.027344 15.925781 9.597656 15.441406 9.171875 15.199219 C 7.886719 14.417969 6.914062 12.546875 6.914062 11 C 6.914062 9.453125 7.96875 7.554688 9.269531 6.800781 C 9.707031 6.550781 10.039062 6.0625 9.726562 5.683594 C 9.351562 5.230469 8.917969 5.355469 8.660156 5.496094 C 6.742188 6.632812 5.523438 8.710938 5.523438 11 C 5.523438 13.289062 6.742188 15.367188 8.648438 16.53125 C 8.910156 16.671875 9.328125 16.851562 9.691406 16.371094 Z M 11.179688 12.523438 C 10.339844 12.523438 9.65625 11.839844 9.65625 11 C 9.65625 10.160156 10.339844 9.476562 11.179688 9.476562 Z M 11.179688 12.523438 "/>
</g>
</defs>
<g id="surface1">
<use xlink:href="#surface5" mask="url(#mask0)"/>
<path style=" stroke:none;fill-rule:evenodd;fill:rgb(26.666668%,26.666668%,26.666668%);fill-opacity:1;" d="M 12.335938 1.375 L 18.929688 6.875 L 19.886719 6.875 C 20.585938 6.875 21.152344 7.441406 21.152344 8.140625 L 21.152344 13.859375 C 21.152344 14.558594 20.585938 15.125 19.886719 15.125 L 18.929688 15.125 L 12.335938 20.625 Z M 13.710938 4.21875 L 18.074219 7.953125 C 18.316406 8.144531 18.617188 8.25 18.929688 8.25 L 19.777344 8.25 L 19.777344 13.75 L 18.929688 13.75 C 18.617188 13.75 18.316406 13.855469 18.074219 14.046875 L 13.710938 17.78125 Z M 16.746094 9.476562 C 17.582031 9.476562 18.265625 10.160156 18.265625 11 C 18.265625 11.839844 17.582031 12.523438 16.746094 12.523438 C 15.90625 12.523438 15.222656 11.839844 15.222656 11 C 15.222656 10.160156 15.90625 9.476562 16.746094 9.476562 Z M 16.746094 9.476562 "/>
</g>
</svg>
