
<svg xmlns="http://www.w3.org/2000/svg" xmlns:xlink="http://www.w3.org/1999/xlink" width="22px" height="22px" viewBox="0 0 22 22" version="1.1">
<g id="surface1">
<path style=" stroke:none;fill-rule:nonzero;fill:rgb(26.666668%,26.666668%,26.666668%);fill-opacity:1;" d="M 3.992188 6.097656 L 1.824219 3.957031 C 1.28125 3.425781 1.277344 2.554688 1.8125 2.011719 C 2.34375 1.472656 3.214844 1.46875 3.753906 2 L 21.167969 19.191406 C 21.707031 19.722656 21.714844 20.597656 21.179688 21.136719 C 20.648438 21.675781 19.777344 21.679688 19.234375 21.148438 L 5.050781 7.144531 L 5.054688 7.148438 C 4.320312 8.289062 3.964844 9.644531 3.964844 11 L 4 11.742188 L 5.632812 12.527344 C 5.230469 15.074219 5.457031 17.621094 6.054688 20.167969 L 3.964844 20.167969 C 0.445312 20.167969 0.445312 17.113281 0.445312 17.113281 C 0.445312 17.113281 0.226562 14.644531 0.445312 13.625 C 0.589844 12.96875 2.53125 11 2.53125 11 C 2.53125 9.195312 3.089844 7.511719 3.992188 6.097656 Z M 16.296875 18.246094 L 18.234375 20.160156 C 18.109375 20.167969 18.035156 20.167969 18.035156 20.167969 L 15.945312 20.167969 C 16.085938 19.527344 16.207031 18.886719 16.296875 18.246094 Z M 6.460938 3.445312 C 7.847656 2.425781 9.445312 1.832031 11 1.832031 C 15.070312 1.832031 19.46875 5.925781 19.46875 11 C 19.46875 11 21.417969 12.875 21.554688 13.496094 C 21.773438 14.515625 21.554688 17.113281 21.554688 17.113281 C 21.554688 17.519531 21.492188 17.871094 21.382812 18.175781 L 16.453125 13.3125 C 16.429688 13.0625 16.402344 12.808594 16.367188 12.558594 L 18.070312 11.742188 L 18.035156 11 C 18.035156 7.605469 15.796875 4.167969 11 4.1875 C 9.78125 4.195312 8.726562 4.417969 7.835938 4.804688 Z M 6.460938 3.445312 "/>
</g>
</svg>
