
<svg xmlns="http://www.w3.org/2000/svg" xmlns:xlink="http://www.w3.org/1999/xlink" width="22px" height="22px" viewBox="0 0 22 22" version="1.1">
<g id="surface1">
<path style=" stroke:none;fill-rule:nonzero;fill:rgb(26.666668%,26.666668%,26.666668%);fill-opacity:1;" d="M 1.535156 0.171875 L 2.789062 0.199219 C 2.789062 0.199219 4.144531 0.199219 4.144531 1.550781 L 4.144531 19.128906 C 4.144531 20.917969 2.886719 20.894531 2.886719 19.101562 L 2.886719 16.398438 L 0.183594 16.398438 L 0.183594 12.339844 L 2.886719 12.339844 L 2.886719 10.988281 L 0.183594 10.988281 L 0.183594 6.933594 L 2.886719 6.933594 L 2.886719 1.511719 L 1.535156 1.511719 C -0.253906 1.511719 -0.253906 0.171875 1.535156 0.171875 Z M 5.332031 4.226562 L 19.664062 4.226562 C 20.851562 4.226562 21.816406 5.191406 21.816406 6.382812 L 21.816406 18.300781 C 21.816406 18.871094 21.589844 19.417969 21.1875 19.824219 C 20.78125 20.226562 20.234375 20.453125 19.664062 20.453125 L 8.296875 20.453125 L 8.296875 17.75 L 5.332031 17.75 L 5.332031 16.441406 L 9.550781 16.441406 L 9.550781 19.144531 L 20.105469 19.144531 L 20.105469 5.75 L 5.332031 5.75 Z M 14.410156 17.746094 L 12.023438 17.746094 L 12.023438 10.808594 L 14.410156 10.808594 Z M 1.105469 13.667969 L 2.457031 13.667969 L 2.457031 15.019531 L 1.105469 15.019531 Z M 13.203125 6.9375 C 13.40625 6.9375 13.59375 6.972656 13.769531 7.046875 C 13.945312 7.121094 14.101562 7.222656 14.234375 7.34375 C 14.367188 7.46875 14.476562 7.617188 14.554688 7.789062 C 14.632812 7.960938 14.671875 8.148438 14.671875 8.351562 C 14.671875 8.546875 14.632812 8.726562 14.554688 8.898438 C 14.476562 9.070312 14.367188 9.21875 14.234375 9.34375 C 14.101562 9.46875 13.945312 9.570312 13.769531 9.640625 C 13.59375 9.714844 13.40625 9.753906 13.203125 9.753906 C 12.996094 9.753906 12.808594 9.714844 12.632812 9.640625 C 12.457031 9.570312 12.300781 9.46875 12.167969 9.34375 C 12.035156 9.21875 11.929688 9.070312 11.855469 8.898438 C 11.78125 8.726562 11.742188 8.546875 11.742188 8.351562 C 11.742188 7.945312 11.886719 7.605469 12.167969 7.339844 C 12.449219 7.070312 12.792969 6.9375 13.203125 6.9375 Z M 1.105469 8.257812 L 2.457031 8.257812 L 2.457031 9.609375 L 1.105469 9.609375 Z M 1.105469 8.257812 "/>
</g>
</svg>
