
<svg xmlns="http://www.w3.org/2000/svg" xmlns:xlink="http://www.w3.org/1999/xlink" width="22px" height="22px" viewBox="0 0 22 22" version="1.1">
<defs>
<filter id="alpha" filterUnits="objectBoundingBox" x="0%" y="0%" width="100%" height="100%">
  <feColorMatrix type="matrix" in="SourceGraphic" values="0 0 0 0 1 0 0 0 0 1 0 0 0 0 1 0 0 0 1 0"/>
</filter>
<mask id="mask0">
  <g filter="url(#alpha)">
<rect x="0" y="0" width="22" height="22" style="fill:rgb(0%,0%,0%);fill-opacity:0.3;stroke:none;"/>
  </g>
</mask>
<clipPath id="clip1">
  <rect x="0" y="0" width="22" height="22"/>
</clipPath>
<g id="surface5" clip-path="url(#clip1)">
<path style=" stroke:none;fill-rule:nonzero;fill:rgb(26.666668%,26.666668%,26.666668%);fill-opacity:1;" d="M 3.78125 1.375 C 2.449219 1.375 1.375 2.449219 1.375 3.78125 L 1.375 18.21875 C 1.375 19.550781 2.449219 20.625 3.78125 20.625 L 18.21875 20.625 C 19.550781 20.625 20.625 19.550781 20.625 18.21875 L 20.625 3.78125 C 20.625 2.449219 19.550781 1.375 18.21875 1.375 Z M 3.78125 1.375 "/>
</g>
</defs>
<g id="surface1">
<use xlink:href="#surface5" mask="url(#mask0)"/>
<path style=" stroke:none;fill-rule:nonzero;fill:rgb(26.666668%,26.666668%,26.666668%);fill-opacity:1;" d="M 12.375 16.5 L 17.875 16.5 L 17.875 17.875 L 12.375 17.875 Z M 8.25 2.75 L 9.625 2.75 L 9.625 4.125 L 13.75 4.125 L 13.75 6.875 L 9.625 6.875 L 9.625 8.25 L 11 8.25 C 12.03125 8.25 12.980469 8.6875 13.574219 9.355469 C 14.171875 10.027344 14.4375 10.867188 14.4375 11.6875 C 14.4375 12.507812 14.171875 13.351562 13.574219 14.019531 C 12.980469 14.691406 12.03125 15.125 11 15.125 L 9.625 15.125 L 9.625 16.5 L 8.25 16.5 L 8.25 15.125 L 4.125 15.125 L 4.125 12.375 L 8.25 12.375 L 8.25 11 L 6.875 11 C 5.84375 11 4.894531 10.566406 4.300781 9.894531 C 3.703125 9.226562 3.4375 8.382812 3.4375 7.5625 C 3.4375 6.742188 3.703125 5.902344 4.300781 5.230469 C 4.894531 4.5625 5.84375 4.125 6.875 4.125 L 8.25 4.125 Z M 9.625 11 L 9.625 12.375 L 11 12.375 C 11.34375 12.375 11.425781 12.296875 11.519531 12.191406 C 11.609375 12.089844 11.6875 11.898438 11.6875 11.6875 C 11.6875 11.476562 11.609375 11.289062 11.519531 11.1875 C 11.425781 11.082031 11.34375 11 11 11 Z M 6.875 6.875 C 6.53125 6.875 6.449219 6.957031 6.355469 7.0625 C 6.265625 7.164062 6.1875 7.351562 6.1875 7.5625 C 6.1875 7.773438 6.265625 7.964844 6.355469 8.066406 C 6.449219 8.171875 6.53125 8.25 6.875 8.25 L 8.25 8.25 L 8.25 6.875 Z M 6.875 6.875 "/>
</g>
</svg>
