
<svg xmlns="http://www.w3.org/2000/svg" xmlns:xlink="http://www.w3.org/1999/xlink" width="22px" height="22px" viewBox="0 0 22 22" version="1.1">
<g id="surface1">
<path style=" stroke:none;fill-rule:nonzero;fill:rgb(26.666668%,26.666668%,26.666668%);fill-opacity:1;" d="M 10.3125 1.375 C 5.375 1.375 1.375 5.375 1.375 10.3125 C 1.378906 15 5.003906 18.886719 9.679688 19.21875 C 9.679688 20.453125 9.625 22 9.625 22 C 15.054688 21.328125 19.25 16.613281 19.25 11 C 19.25 10.875 19.238281 10.765625 19.234375 10.644531 C 19.242188 10.535156 19.246094 10.421875 19.25 10.3125 C 19.25 5.375 15.25 1.375 10.3125 1.375 Z M 4.8125 8.25 C 5.953125 8.25 6.875 9.171875 6.875 10.3125 C 6.875 11.453125 5.953125 12.375 4.8125 12.375 C 3.671875 12.375 2.75 11.453125 2.75 10.3125 C 2.75 9.171875 3.671875 8.25 4.8125 8.25 Z M 10.3125 8.25 C 11.453125 8.25 12.375 9.171875 12.375 10.3125 C 12.375 11.453125 11.453125 12.375 10.3125 12.375 C 9.171875 12.375 8.25 11.453125 8.25 10.3125 C 8.25 9.171875 9.171875 8.25 10.3125 8.25 Z M 15.8125 8.25 C 16.953125 8.25 17.875 9.171875 17.875 10.3125 C 17.875 11.453125 16.953125 12.375 15.8125 12.375 C 14.671875 12.375 13.75 11.453125 13.75 10.3125 C 13.75 9.171875 14.671875 8.25 15.8125 8.25 Z M 15.8125 8.25 "/>
</g>
</svg>
