
<svg xmlns="http://www.w3.org/2000/svg" xmlns:xlink="http://www.w3.org/1999/xlink" width="22px" height="22px" viewBox="0 0 22 22" version="1.1">
<defs>
<filter id="alpha" filterUnits="objectBoundingBox" x="0%" y="0%" width="100%" height="100%">
  <feColorMatrix type="matrix" in="SourceGraphic" values="0 0 0 0 1 0 0 0 0 1 0 0 0 0 1 0 0 0 1 0"/>
</filter>
<mask id="mask0">
  <g filter="url(#alpha)">
<rect x="0" y="0" width="22" height="22" style="fill:rgb(0%,0%,0%);fill-opacity:0.3;stroke:none;"/>
  </g>
</mask>
<clipPath id="clip1">
  <rect x="0" y="0" width="22" height="22"/>
</clipPath>
<g id="surface5" clip-path="url(#clip1)">
<path style=" stroke:none;fill-rule:evenodd;fill:rgb(26.666668%,26.666668%,26.666668%);fill-opacity:1;" d="M 0.75 1.269531 L 0.804688 16.621094 L 21.222656 16.605469 L 21.042969 1.398438 Z M 0.75 1.269531 "/>
</g>
</defs>
<g id="surface1">
<use xlink:href="#surface5" mask="url(#mask0)"/>
<path style=" stroke:none;fill-rule:evenodd;fill:rgb(26.666668%,26.666668%,26.666668%);fill-opacity:1;" d="M 7.128906 18.824219 L 14.871094 18.824219 L 14.871094 22 L 7.128906 22 Z M 2.75 0 C 0 0 0 2.75 0 2.75 L 0 15.125 C 0 15.125 0 17.875 2.75 17.875 L 19.25 17.875 C 19.25 17.875 22 17.875 22 15.125 L 22 2.75 C 22 2.75 22 0 19.25 0 Z M 1.054688 1.480469 L 1.054688 16.394531 L 20.945312 16.394531 L 20.945312 1.480469 Z M 7.730469 14.828125 C 7.664062 14.828125 7.632812 14.792969 7.632812 14.730469 L 7.632812 13.160156 L 12.144531 7.511719 L 12.144531 7.519531 C 12.308594 7.308594 12.417969 7.117188 12.464844 6.941406 C 12.515625 6.769531 12.539062 6.597656 12.539062 6.429688 C 12.539062 6.0625 12.402344 5.710938 12.136719 5.382812 C 11.867188 5.0625 11.503906 4.902344 11.046875 4.902344 C 10.628906 4.902344 10.265625 5.042969 9.960938 5.328125 C 9.8125 5.46875 9.695312 5.632812 9.617188 5.824219 C 9.539062 6.015625 9.492188 6.230469 9.46875 6.472656 C 9.46875 6.5 9.460938 6.519531 9.441406 6.535156 C 9.421875 6.550781 9.398438 6.558594 9.371094 6.558594 L 7.730469 6.558594 C 7.664062 6.558594 7.632812 6.527344 7.632812 6.464844 C 7.644531 5.507812 7.96875 4.707031 8.609375 4.054688 C 9.257812 3.394531 10.03125 3.0625 10.925781 3.0625 C 11.898438 3.0625 12.71875 3.394531 13.382812 4.0625 L 13.378906 4.0625 C 14.039062 4.722656 14.367188 5.519531 14.367188 6.449219 C 14.367188 6.851562 14.308594 7.222656 14.191406 7.566406 C 14.070312 7.910156 13.894531 8.230469 13.660156 8.527344 L 13.660156 8.519531 C 13.351562 8.90625 13.050781 9.285156 12.757812 9.652344 L 10.984375 11.867188 C 10.6875 12.234375 10.386719 12.613281 10.082031 12.996094 L 14.269531 12.996094 C 14.335938 12.996094 14.367188 13.03125 14.367188 13.09375 L 14.367188 14.730469 C 14.367188 14.792969 14.335938 14.828125 14.269531 14.828125 Z M 7.730469 14.828125 "/>
</g>
</svg>
