
<svg xmlns="http://www.w3.org/2000/svg" xmlns:xlink="http://www.w3.org/1999/xlink" width="22px" height="22px" viewBox="0 0 22 22" version="1.1">
<defs>
<filter id="alpha" filterUnits="objectBoundingBox" x="0%" y="0%" width="100%" height="100%">
  <feColorMatrix type="matrix" in="SourceGraphic" values="0 0 0 0 1 0 0 0 0 1 0 0 0 0 1 0 0 0 1 0"/>
</filter>
<mask id="mask0">
  <g filter="url(#alpha)">
<rect x="0" y="0" width="22" height="22" style="fill:rgb(0%,0%,0%);fill-opacity:0.3;stroke:none;"/>
  </g>
</mask>
<clipPath id="clip1">
  <rect x="0" y="0" width="22" height="22"/>
</clipPath>
<g id="surface5" clip-path="url(#clip1)">
<path style=" stroke:none;fill-rule:evenodd;fill:rgb(26.666668%,26.666668%,26.666668%);fill-opacity:0.3;" d="M 4.953125 1.375 C 3.578125 1.375 3.578125 2.75 3.578125 2.75 L 3.578125 19.25 C 3.578125 20.625 4.953125 20.625 4.953125 20.625 L 17.046875 20.625 C 18.421875 20.625 18.421875 19.25 18.421875 19.25 L 18.421875 2.75 C 18.421875 1.375 17.046875 1.375 17.046875 1.375 Z M 4.953125 1.375 "/>
</g>
</defs>
<g id="surface1">
<use xlink:href="#surface5" mask="url(#mask0)"/>
<path style=" stroke:none;fill-rule:evenodd;fill:rgb(26.666668%,26.666668%,26.666668%);fill-opacity:1;" d="M 4.953125 1.375 C 3.578125 1.375 3.578125 2.75 3.578125 2.75 L 3.578125 19.25 C 3.578125 20.625 4.953125 20.625 4.953125 20.625 L 17.046875 20.625 C 18.421875 20.625 18.421875 19.25 18.421875 19.25 L 18.421875 2.75 C 18.421875 1.375 17.046875 1.375 17.046875 1.375 Z M 5.285156 19.292969 C 5.25 19.28125 5.214844 19.273438 5.183594 19.269531 C 5.148438 19.265625 5.113281 19.257812 5.078125 19.257812 Z M 4.964844 2.75 L 4.953125 2.839844 L 4.953125 19.234375 L 5.039062 19.25 L 17.035156 19.25 L 17.046875 19.160156 L 17.046875 2.765625 L 16.960938 2.75 Z M 10.539062 13.101562 L 7.808594 18.175781 C 7.539062 18.53125 6.433594 18.148438 5.996094 17.816406 C 5.558594 17.480469 4.910156 16.527344 5.179688 16.171875 L 9.585938 12.375 C 9.945312 12.074219 10.269531 11.878906 10.558594 12.097656 C 10.847656 12.320312 10.722656 12.671875 10.539062 13.101562 Z M 8.019531 12.636719 C 6.96875 11.757812 6.300781 10.433594 6.300781 8.957031 C 6.300781 6.308594 8.449219 4.164062 11.097656 4.164062 C 13.746094 4.164062 15.894531 6.308594 15.894531 8.957031 C 15.894531 11.597656 13.757812 13.742188 11.121094 13.753906 L 11.296875 13.425781 C 11.660156 12.570312 11.632812 11.882812 11.054688 11.441406 C 10.476562 11 9.78125 11.140625 9.058594 11.742188 Z M 11.097656 8.054688 C 10.597656 8.054688 10.195312 8.460938 10.195312 8.957031 C 10.195312 9.457031 10.597656 9.863281 11.097656 9.863281 C 11.597656 9.863281 12.003906 9.457031 12.003906 8.957031 C 12.003906 8.460938 11.597656 8.054688 11.097656 8.054688 Z M 4.945312 2.875 L 4.910156 3.085938 C 4.929688 3.015625 4.9375 2.945312 4.945312 2.875 Z M 16.726562 2.710938 C 16.792969 2.726562 16.859375 2.738281 16.921875 2.742188 L 16.714844 2.707031 Z M 16.726562 2.710938 "/>
</g>
</svg>
