
<svg xmlns="http://www.w3.org/2000/svg" xmlns:xlink="http://www.w3.org/1999/xlink" width="22px" height="22px" viewBox="0 0 22 22" version="1.1">
<defs>
<filter id="alpha" filterUnits="objectBoundingBox" x="0%" y="0%" width="100%" height="100%">
  <feColorMatrix type="matrix" in="SourceGraphic" values="0 0 0 0 1 0 0 0 0 1 0 0 0 0 1 0 0 0 1 0"/>
</filter>
<mask id="mask0">
  <g filter="url(#alpha)">
<rect x="0" y="0" width="22" height="22" style="fill:rgb(0%,0%,0%);fill-opacity:0.3;stroke:none;"/>
  </g>
</mask>
<clipPath id="clip1">
  <rect x="0" y="0" width="22" height="22"/>
</clipPath>
<g id="surface5" clip-path="url(#clip1)">
<path style=" stroke:none;fill-rule:evenodd;fill:rgb(26.666668%,26.666668%,26.666668%);fill-opacity:1;" d="M 0.75 1.269531 L 0.804688 16.621094 L 21.222656 16.605469 L 21.042969 1.398438 Z M 0.75 1.269531 "/>
</g>
</defs>
<g id="surface1">
<use xlink:href="#surface5" mask="url(#mask0)"/>
<path style=" stroke:none;fill-rule:evenodd;fill:rgb(26.666668%,26.666668%,26.666668%);fill-opacity:1;" d="M 7.128906 18.824219 L 14.871094 18.824219 L 14.871094 22 L 7.128906 22 Z M 2.75 0 C 0 0 0 2.75 0 2.75 L 0 15.125 C 0 15.125 0 17.875 2.75 17.875 L 19.25 17.875 C 19.25 17.875 22 17.875 22 15.125 L 22 2.75 C 22 2.75 22 0 19.25 0 Z M 1.054688 1.480469 L 1.054688 16.394531 L 20.945312 16.394531 L 20.945312 1.480469 Z M 10.261719 9.589844 C 10.195312 9.589844 10.164062 9.558594 10.164062 9.492188 L 10.164062 8.050781 C 10.164062 7.984375 10.195312 7.953125 10.261719 7.953125 L 10.824219 7.953125 C 11.34375 7.953125 11.757812 7.808594 12.054688 7.519531 C 12.351562 7.238281 12.5 6.871094 12.5 6.414062 C 12.5 5.984375 12.347656 5.617188 12.039062 5.3125 C 11.734375 5.003906 11.359375 4.851562 10.921875 4.851562 C 10.597656 4.851562 10.289062 4.960938 9.992188 5.183594 C 9.699219 5.398438 9.511719 5.722656 9.429688 6.15625 C 9.425781 6.179688 9.410156 6.195312 9.394531 6.214844 C 9.375 6.230469 9.355469 6.238281 9.339844 6.238281 L 7.691406 6.238281 C 7.664062 6.238281 7.640625 6.226562 7.621094 6.207031 C 7.601562 6.183594 7.59375 6.160156 7.601562 6.132812 C 7.65625 5.3125 8.003906 4.585938 8.648438 3.949219 C 9.28125 3.328125 10.019531 3.015625 10.855469 3.015625 C 11.375 3.015625 11.847656 3.101562 12.269531 3.28125 C 12.691406 3.457031 13.0625 3.71875 13.386719 4.0625 C 13.691406 4.402344 13.925781 4.765625 14.089844 5.164062 C 14.253906 5.558594 14.335938 5.964844 14.335938 6.382812 C 14.335938 6.839844 14.246094 7.285156 14.070312 7.71875 C 13.984375 7.914062 13.867188 8.097656 13.714844 8.269531 C 13.566406 8.441406 13.386719 8.601562 13.183594 8.75 C 13.613281 9.058594 13.933594 9.425781 14.144531 9.855469 C 14.359375 10.316406 14.464844 10.785156 14.464844 11.265625 C 14.464844 12.355469 14.117188 13.234375 13.425781 13.898438 C 12.742188 14.550781 11.898438 14.875 10.886719 14.875 C 10.484375 14.875 10.105469 14.808594 9.75 14.679688 C 9.390625 14.554688 9.050781 14.359375 8.722656 14.101562 C 8.398438 13.839844 8.140625 13.523438 7.945312 13.152344 C 7.75 12.78125 7.613281 12.34375 7.535156 11.84375 C 7.523438 11.777344 7.558594 11.742188 7.632812 11.742188 L 9.277344 11.742188 C 9.3125 11.742188 9.34375 11.761719 9.363281 11.804688 C 9.433594 11.992188 9.519531 12.160156 9.609375 12.3125 C 9.703125 12.464844 9.816406 12.59375 9.945312 12.703125 C 10.074219 12.8125 10.222656 12.898438 10.390625 12.957031 C 10.5625 13.015625 10.757812 13.046875 10.984375 13.046875 C 11.410156 13.046875 11.789062 12.894531 12.128906 12.585938 C 12.460938 12.292969 12.628906 11.867188 12.628906 11.320312 C 12.628906 10.773438 12.460938 10.351562 12.128906 10.058594 C 11.789062 9.746094 11.398438 9.589844 10.953125 9.589844 Z M 10.261719 9.589844 "/>
</g>
</svg>
