
<svg xmlns="http://www.w3.org/2000/svg" xmlns:xlink="http://www.w3.org/1999/xlink" width="22px" height="22px" viewBox="0 0 22 22" version="1.1">
<defs>
<filter id="alpha" filterUnits="objectBoundingBox" x="0%" y="0%" width="100%" height="100%">
  <feColorMatrix type="matrix" in="SourceGraphic" values="0 0 0 0 1 0 0 0 0 1 0 0 0 0 1 0 0 0 1 0"/>
</filter>
<mask id="mask0">
  <g filter="url(#alpha)">
<rect x="0" y="0" width="22" height="22" style="fill:rgb(0%,0%,0%);fill-opacity:0.3;stroke:none;"/>
  </g>
</mask>
<clipPath id="clip1">
  <rect x="0" y="0" width="22" height="22"/>
</clipPath>
<g id="surface5" clip-path="url(#clip1)">
<path style=" stroke:none;fill-rule:nonzero;fill:rgb(26.666668%,26.666668%,26.666668%);fill-opacity:1;" d="M 11.015625 4.367188 C 4.078125 4.367188 0 10.996094 0 10.996094 C 0 10.996094 4.417969 17.632812 11 17.632812 C 18.089844 17.632812 22 10.996094 22 10.996094 C 22 10.996094 18.066406 4.367188 11.015625 4.367188 Z M 11 6.773438 C 13.148438 6.773438 14.890625 8.519531 14.890625 10.664062 C 14.890625 12.8125 13.148438 14.558594 11 14.558594 C 8.851562 14.558594 7.109375 12.8125 7.109375 10.664062 C 7.109375 8.519531 8.851562 6.773438 11 6.773438 Z M 11 6.773438 "/>
</g>
</defs>
<g id="surface1">
<path style=" stroke:none;fill-rule:nonzero;fill:rgb(26.666668%,26.666668%,26.666668%);fill-opacity:1;" d="M 11 5.875 C 13.609375 5.875 15.730469 7.988281 15.730469 10.601562 C 15.730469 13.214844 13.609375 15.328125 11 15.328125 C 8.390625 15.328125 6.269531 13.214844 6.269531 10.601562 C 6.269531 7.988281 8.390625 5.875 11 5.875 Z M 11 7.449219 C 9.257812 7.449219 7.847656 8.863281 7.847656 10.601562 C 7.847656 12.34375 9.261719 13.753906 11 13.753906 C 12.742188 13.753906 14.152344 12.34375 14.152344 10.601562 C 14.152344 8.859375 12.742188 7.449219 11 7.449219 Z M 11 7.449219 "/>
<use xlink:href="#surface5" mask="url(#mask0)"/>
</g>
</svg>
