
<svg xmlns="http://www.w3.org/2000/svg" xmlns:xlink="http://www.w3.org/1999/xlink" width="22px" height="22px" viewBox="0 0 22 22" version="1.1">
<defs>
<filter id="alpha" filterUnits="objectBoundingBox" x="0%" y="0%" width="100%" height="100%">
  <feColorMatrix type="matrix" in="SourceGraphic" values="0 0 0 0 1 0 0 0 0 1 0 0 0 0 1 0 0 0 1 0"/>
</filter>
<mask id="mask0">
  <g filter="url(#alpha)">
<rect x="0" y="0" width="22" height="22" style="fill:rgb(0%,0%,0%);fill-opacity:0.3;stroke:none;"/>
  </g>
</mask>
<clipPath id="clip1">
  <rect x="0" y="0" width="22" height="22"/>
</clipPath>
<g id="surface5" clip-path="url(#clip1)">
<path style=" stroke:none;fill-rule:nonzero;fill:rgb(26.666668%,26.666668%,26.666668%);fill-opacity:1;" d="M 11 1.375 C 8.25 1.375 4.125 11 4.125 20.625 C 6.875 16.5 11 13.75 12.375 13.75 C 13.75 13.75 15.277344 15.125 18.027344 19.25 C 17.875 11 13.75 1.375 11 1.375 Z M 11 1.375 "/>
</g>
</defs>
<g id="surface1">
<use xlink:href="#surface5" mask="url(#mask0)"/>
<path style=" stroke:none;fill-rule:nonzero;fill:rgb(26.666668%,26.666668%,26.666668%);fill-opacity:1;" d="M 12.40625 15.179688 C 12.285156 15.238281 12.007812 15.347656 11.699219 15.574219 C 11.164062 15.960938 10.476562 16.5625 9.738281 17.300781 C 9.285156 17.753906 8.816406 18.265625 8.339844 18.800781 C 9.195312 19.097656 10.09375 19.246094 11 19.25 C 12.335938 19.25 13.65625 18.921875 14.839844 18.296875 C 14.378906 17.601562 13.949219 16.953125 13.582031 16.464844 C 13.164062 15.90625 12.804688 15.5 12.5625 15.292969 C 12.480469 15.222656 12.449219 15.207031 12.40625 15.179688 Z M 12.375 15.125 C 12.335938 15.125 12.324219 15.128906 12.332031 15.132812 C 12.339844 15.144531 12.367188 15.15625 12.40625 15.179688 C 12.496094 15.140625 12.519531 15.125 12.375 15.125 Z M 6.179688 4.320312 C 4.03125 5.863281 2.753906 8.351562 2.75 11 C 2.753906 12.136719 2.992188 13.257812 3.449219 14.296875 C 3.886719 11.710938 4.507812 9.195312 5.222656 6.972656 C 5.523438 6.023438 5.847656 5.144531 6.179688 4.320312 Z M 15.863281 4.347656 C 16.183594 5.117188 16.496094 5.914062 16.789062 6.78125 C 17.546875 9.015625 18.199219 11.515625 18.667969 14.015625 C 19.050781 13.054688 19.246094 12.03125 19.25 11 C 19.246094 8.371094 17.988281 5.898438 15.863281 4.347656 Z M 15.863281 4.347656 "/>
</g>
</svg>
