
<svg xmlns="http://www.w3.org/2000/svg" xmlns:xlink="http://www.w3.org/1999/xlink" width="22px" height="22px" viewBox="0 0 22 22" version="1.1">
<g id="surface1">
<path style=" stroke:none;fill-rule:nonzero;fill:rgb(26.666668%,26.666668%,26.666668%);fill-opacity:1;" d="M 1.375 1.375 L 1.375 4.125 C 2.980469 4.125 7.386719 5.09375 11.074219 7.660156 C 14.761719 10.222656 17.875 14.207031 17.875 20.625 L 20.625 20.625 C 20.625 13.292969 16.863281 8.339844 12.644531 5.402344 C 8.425781 2.46875 3.894531 1.375 1.375 1.375 Z M 1.375 8.25 L 1.375 11 C 6.1875 11 11 14.484375 11 20.625 L 13.75 20.625 C 13.75 13.015625 7.5625 8.25 1.375 8.25 Z M 1.375 8.25 "/>
<path style=" stroke:none;fill-rule:nonzero;fill:rgb(25.882354%,52.156866%,95.686275%);fill-opacity:1;" d="M 4.125 15.125 C 2.601562 15.125 1.375 16.355469 1.375 17.875 C 1.375 19.394531 2.601562 20.625 4.125 20.625 C 5.644531 20.625 6.875 19.394531 6.875 17.875 C 6.875 16.355469 5.644531 15.125 4.125 15.125 Z M 4.125 15.125 "/>
</g>
</svg>
