
<svg xmlns="http://www.w3.org/2000/svg" xmlns:xlink="http://www.w3.org/1999/xlink" width="22px" height="22px" viewBox="0 0 22 22" version="1.1">
<defs>
<filter id="alpha" filterUnits="objectBoundingBox" x="0%" y="0%" width="100%" height="100%">
  <feColorMatrix type="matrix" in="SourceGraphic" values="0 0 0 0 1 0 0 0 0 1 0 0 0 0 1 0 0 0 1 0"/>
</filter>
<mask id="mask0">
  <g filter="url(#alpha)">
<rect x="0" y="0" width="22" height="22" style="fill:rgb(0%,0%,0%);fill-opacity:0.3;stroke:none;"/>
  </g>
</mask>
<clipPath id="clip1">
  <rect x="0" y="0" width="22" height="22"/>
</clipPath>
<g id="surface5" clip-path="url(#clip1)">
<path style=" stroke:none;fill-rule:nonzero;fill:rgb(26.666668%,26.666668%,26.666668%);fill-opacity:1;" d="M 16.425781 4.753906 L 19.453125 4.753906 L 19.453125 7.785156 L 16.425781 7.785156 Z M 7.203125 4.753906 L 10.234375 4.753906 L 10.234375 7.785156 L 7.203125 7.785156 Z M 11.839844 4.753906 L 14.871094 4.753906 L 14.871094 7.785156 L 11.839844 7.785156 Z M 2.546875 4.753906 L 5.578125 4.753906 L 5.578125 7.785156 L 2.546875 7.785156 Z M 11.820312 9.042969 L 14.851562 9.042969 L 14.851562 12.074219 L 11.820312 12.074219 Z M 16.425781 9.042969 L 19.453125 9.042969 L 19.453125 12.074219 L 16.425781 12.074219 Z M 7.203125 9.042969 L 10.234375 9.042969 L 10.234375 12.074219 L 7.203125 12.074219 Z M 2.546875 9.042969 L 5.578125 9.042969 L 5.578125 12.074219 L 2.546875 12.074219 Z M 2.546875 14.390625 L 19.453125 14.390625 L 19.453125 17.246094 L 2.546875 17.246094 Z M 2.546875 14.390625 "/>
</g>
</defs>
<g id="surface1">
<use xlink:href="#surface5" mask="url(#mask0)"/>
</g>
</svg>
