
<svg xmlns="http://www.w3.org/2000/svg" xmlns:xlink="http://www.w3.org/1999/xlink" width="22px" height="22px" viewBox="0 0 22 22" version="1.1">
<g id="surface1">
<path style=" stroke:none;fill-rule:evenodd;fill:rgb(26.666668%,26.666668%,26.666668%);fill-opacity:1;" d="M 7.511719 16.21875 L 10.730469 16.21875 L 13.257812 20.441406 L 11.648438 21.40625 L 10.085938 18.792969 C 9.460938 17.828125 8.816406 17.792969 8.144531 18.816406 L 6.59375 21.40625 L 4.984375 20.441406 Z M 11.683594 3.34375 C 12.660156 3.34375 13.597656 3.734375 14.289062 4.425781 C 14.984375 5.117188 15.371094 6.054688 15.371094 7.03125 L 15.371094 15.65625 L 4.0625 15.65625 C 3.085938 15.65625 2.144531 15.269531 1.453125 14.578125 C 0.761719 13.882812 0.371094 12.945312 0.371094 11.96875 L 0.371094 3.34375 Z M 21.628906 4.996094 L 21.628906 14.019531 C 21.628906 14.152344 21.554688 14.273438 21.441406 14.335938 C 21.332031 14.402344 21.191406 14.394531 21.082031 14.324219 C 19.859375 13.53125 16.929688 11.628906 16.015625 11.035156 C 15.84375 10.925781 15.738281 10.730469 15.738281 10.519531 C 15.734375 10.039062 15.726562 9.148438 15.722656 8.667969 C 15.71875 8.457031 15.820312 8.261719 15.992188 8.148438 C 16.898438 7.527344 19.84375 5.53125 21.078125 4.691406 C 21.1875 4.617188 21.324219 4.613281 21.441406 4.675781 C 21.554688 4.738281 21.628906 4.863281 21.628906 4.996094 Z M 11.265625 5.472656 L 2.480469 5.472656 L 2.480469 11.460938 C 2.480469 12.671875 3.464844 13.65625 4.679688 13.65625 L 13.257812 13.65625 L 13.257812 7.464844 C 13.257812 6.363281 12.367188 5.472656 11.265625 5.472656 Z M 7.859375 7.09375 C 9.207031 7.09375 10.304688 8.191406 10.304688 9.542969 C 10.304688 10.894531 9.207031 11.988281 7.859375 11.988281 C 6.507812 11.988281 5.410156 10.894531 5.410156 9.542969 C 5.410156 8.191406 6.507812 7.09375 7.859375 7.09375 Z M 7.859375 7.09375 "/>
</g>
</svg>
