
<svg xmlns="http://www.w3.org/2000/svg" xmlns:xlink="http://www.w3.org/1999/xlink" width="22px" height="22px" viewBox="0 0 22 22" version="1.1">
<defs>
<filter id="alpha" filterUnits="objectBoundingBox" x="0%" y="0%" width="100%" height="100%">
  <feColorMatrix type="matrix" in="SourceGraphic" values="0 0 0 0 1 0 0 0 0 1 0 0 0 0 1 0 0 0 1 0"/>
</filter>
<mask id="mask0">
  <g filter="url(#alpha)">
<rect x="0" y="0" width="22" height="22" style="fill:rgb(0%,0%,0%);fill-opacity:0.3;stroke:none;"/>
  </g>
</mask>
<clipPath id="clip1">
  <rect x="0" y="0" width="22" height="22"/>
</clipPath>
<g id="surface5" clip-path="url(#clip1)">
<path style=" stroke:none;fill-rule:nonzero;fill:rgb(26.666668%,26.666668%,26.666668%);fill-opacity:1;" d="M 3.378906 3.324219 C 2.671875 3.324219 2.105469 3.890625 2.105469 4.59375 L 2.105469 16.03125 C 2.105469 16.734375 2.671875 17.300781 3.378906 17.300781 L 2.59375 17.300781 L 0 19.25 L 0 20.625 L 22 20.625 L 22 19.25 L 19.40625 17.300781 L 18.621094 17.300781 C 19.328125 17.300781 19.894531 16.734375 19.894531 16.03125 L 19.894531 4.59375 C 19.894531 3.890625 19.328125 3.324219 18.621094 3.324219 Z M 2.957031 4.023438 L 19.042969 4.023438 L 19.042969 16.441406 L 2.957031 16.441406 Z M 7.867188 18.75 L 14.132812 18.75 L 14.132812 20.125 L 7.867188 20.125 Z M 7.867188 18.75 "/>
</g>
</defs>
<g id="surface1">
<use xlink:href="#surface5" mask="url(#mask0)"/>
<path style=" stroke:none;fill-rule:nonzero;fill:rgb(26.666668%,26.666668%,26.666668%);fill-opacity:1;" d="M 15.125 15.125 L 15.125 16.5 C 15.125 16.886719 15.261719 17.242188 15.511719 17.488281 L 16.582031 18.5625 L 15.511719 19.636719 C 15.261719 19.894531 15.125 20.253906 15.125 20.625 L 15.125 22 L 16.5 22 C 16.886719 22 17.242188 21.863281 17.488281 21.613281 L 18.5625 20.542969 L 19.636719 21.613281 C 19.882812 21.863281 20.253906 22 20.625 22 L 22 22 L 22 20.625 C 22 20.253906 21.863281 19.894531 21.613281 19.636719 L 20.542969 18.5625 L 21.613281 17.488281 C 21.863281 17.242188 22 16.886719 22 16.5 L 22 15.125 L 20.625 15.125 C 20.253906 15.125 19.882812 15.261719 19.636719 15.511719 L 18.5625 16.597656 L 17.488281 15.511719 C 17.242188 15.261719 16.886719 15.125 16.5 15.125 Z M 15.125 15.125 "/>
</g>
</svg>
