
<svg xmlns="http://www.w3.org/2000/svg" xmlns:xlink="http://www.w3.org/1999/xlink" width="22px" height="22px" viewBox="0 0 22 22" version="1.1">
<g id="surface1">
<path style=" stroke:none;fill-rule:nonzero;fill:rgb(26.666668%,26.666668%,26.666668%);fill-opacity:1;" d="M 3.378906 3.324219 C 2.671875 3.324219 2.105469 3.890625 2.105469 4.59375 L 2.105469 16.03125 C 2.105469 16.734375 2.671875 17.300781 3.378906 17.300781 L 2.59375 17.300781 L 0 19.25 L 0 20.625 L 22 20.625 L 22 19.25 L 19.40625 17.300781 L 18.621094 17.300781 C 19.328125 17.300781 19.894531 16.734375 19.894531 16.03125 L 19.894531 4.59375 C 19.894531 3.890625 19.328125 3.324219 18.621094 3.324219 Z M 2.957031 4.023438 L 19.042969 4.023438 L 19.042969 16.441406 L 2.957031 16.441406 Z M 7.867188 18.75 L 14.132812 18.75 L 14.132812 20.125 L 7.867188 20.125 Z M 7.867188 18.75 "/>
</g>
</svg>
