
<svg xmlns="http://www.w3.org/2000/svg" xmlns:xlink="http://www.w3.org/1999/xlink" width="22px" height="22px" viewBox="0 0 22 22" version="1.1">
<g id="surface1">
<path style=" stroke:none;fill-rule:nonzero;fill:rgb(26.666668%,26.666668%,26.666668%);fill-opacity:1;" d="M 10.09375 7.390625 L 12.515625 1.996094 C 12.660156 1.664062 13.039062 1.503906 13.378906 1.628906 L 20.890625 4.390625 C 21.066406 4.457031 21.210938 4.59375 21.285156 4.765625 C 21.359375 4.941406 21.359375 5.136719 21.285156 5.308594 L 18.691406 11.285156 L 18.53125 17.625 C 18.523438 17.90625 18.34375 18.15625 18.082031 18.253906 L 11.238281 20.777344 C 11.042969 20.847656 10.824219 20.828125 10.644531 20.71875 L 3.882812 16.898438 C 3.679688 16.773438 3.554688 16.558594 3.550781 16.320312 C 3.550781 16.320312 3.433594 9.890625 3.433594 9.875 C 3.433594 9.851562 3.429688 9.773438 3.453125 9.675781 L 0.730469 4.136719 C 0.601562 3.875 0.652344 3.558594 0.859375 3.351562 C 1.0625 3.140625 1.375 3.085938 1.640625 3.210938 L 9.003906 6.695312 C 9.160156 6.769531 9.28125 6.894531 9.347656 7.050781 L 9.550781 7.550781 L 9.644531 7.523438 Z M 11.675781 14.042969 L 11.742188 19.125 L 17.167969 17.125 L 17.292969 12.109375 Z M 4.917969 15.914062 L 10.363281 18.945312 L 10.300781 13.988281 L 4.832031 11.148438 Z M 10.082031 8.828125 L 11.605469 12.492188 C 11.621094 12.527344 11.632812 12.566406 11.640625 12.601562 L 16.050781 11.082031 L 10.636719 8.664062 Z M 8.757812 9.214844 C 7.78125 9.503906 6.65625 9.835938 5.777344 10.09375 L 10.039062 12.300781 Z M 11.527344 7.558594 L 17.628906 10.28125 L 19.734375 5.429688 L 13.503906 3.144531 Z M 4.648438 8.992188 C 5.507812 8.738281 6.976562 8.304688 8.226562 7.9375 L 8.175781 7.824219 L 2.832031 5.296875 Z M 4.648438 8.992188 "/>
<path style=" stroke:none;fill-rule:nonzero;fill:rgb(25.882354%,52.156866%,95.686275%);fill-opacity:1;" d="M 20.175781 18.214844 C 20.175781 19.355469 19.253906 20.277344 18.113281 20.277344 C 16.976562 20.277344 16.050781 19.355469 16.050781 18.214844 C 16.050781 17.074219 16.976562 16.152344 18.113281 16.152344 C 19.253906 16.152344 20.175781 17.074219 20.175781 18.214844 Z M 20.175781 18.214844 "/>
</g>
</svg>
