
<svg xmlns="http://www.w3.org/2000/svg" xmlns:xlink="http://www.w3.org/1999/xlink" width="22px" height="22px" viewBox="0 0 22 22" version="1.1">
<defs>
<filter id="alpha" filterUnits="objectBoundingBox" x="0%" y="0%" width="100%" height="100%">
  <feColorMatrix type="matrix" in="SourceGraphic" values="0 0 0 0 1 0 0 0 0 1 0 0 0 0 1 0 0 0 1 0"/>
</filter>
<mask id="mask0">
  <g filter="url(#alpha)">
<rect x="0" y="0" width="22" height="22" style="fill:rgb(0%,0%,0%);fill-opacity:0.3;stroke:none;"/>
  </g>
</mask>
<clipPath id="clip1">
  <rect x="0" y="0" width="22" height="22"/>
</clipPath>
<g id="surface5" clip-path="url(#clip1)">
<path style=" stroke:none;fill-rule:nonzero;fill:rgb(26.666668%,26.666668%,26.666668%);fill-opacity:1;" d="M 13.667969 17.207031 L 11.351562 19.78125 C 11.160156 19.992188 10.828125 19.992188 10.636719 19.78125 L 8.324219 17.207031 C 8.125 16.984375 8.171875 16.632812 8.417969 16.46875 C 9.160156 15.972656 10.042969 15.648438 10.996094 15.648438 C 11.949219 15.648438 12.835938 15.976562 13.578125 16.472656 C 13.824219 16.640625 13.867188 16.988281 13.667969 17.207031 Z M 10.996094 13.507812 C 9.441406 13.507812 8.007812 14.023438 6.851562 14.886719 C 6.644531 15.039062 6.363281 15.019531 6.195312 14.832031 L 5.367188 13.910156 C 5.183594 13.703125 5.203125 13.375 5.421875 13.203125 C 6.964844 12.007812 8.894531 11.246094 10.996094 11.246094 C 13.097656 11.246094 15.03125 12.011719 16.574219 13.210938 C 16.796875 13.378906 16.816406 13.707031 16.628906 13.917969 L 15.800781 14.835938 C 15.632812 15.023438 15.351562 15.042969 15.144531 14.890625 C 13.988281 14.023438 12.554688 13.507812 10.996094 13.507812 Z M 10.996094 9.042969 C 8.292969 9.042969 5.820312 9.984375 3.863281 11.546875 C 3.664062 11.707031 3.378906 11.691406 3.207031 11.5 L 2.460938 10.671875 C 2.277344 10.464844 2.296875 10.140625 2.511719 9.964844 C 4.828125 8.074219 7.777344 6.777344 10.996094 6.777344 C 14.21875 6.777344 17.171875 8.078125 19.492188 9.976562 C 19.707031 10.148438 19.722656 10.476562 19.539062 10.679688 L 18.792969 11.507812 C 18.621094 11.703125 18.335938 11.71875 18.132812 11.554688 C 16.179688 9.988281 13.699219 9.042969 10.996094 9.042969 Z M 10.996094 4.714844 C 7.289062 4.714844 4.152344 6.039062 1.472656 8.183594 C 1.199219 8.40625 0.804688 8.382812 0.566406 8.121094 L 0.191406 7.628906 C -0.0585938 7.34375 -0.0351562 6.902344 0.261719 6.660156 C 3.4375 4.066406 6.574219 2.617188 10.992188 2.617188 C 15.414062 2.617188 18.578125 4.074219 21.761719 6.679688 C 22.054688 6.917969 22.078125 7.363281 21.828125 7.644531 L 21.4375 8.148438 C 21.199219 8.414062 20.804688 8.4375 20.527344 8.214844 C 17.847656 6.0625 14.707031 4.714844 10.996094 4.714844 Z M 10.996094 4.714844 "/>
</g>
</defs>
<g id="surface1">
<use xlink:href="#surface5" mask="url(#mask0)"/>
<path style=" stroke:none;fill-rule:nonzero;fill:rgb(26.666668%,26.666668%,26.666668%);fill-opacity:1;" d="M 11.304688 3.640625 C 11.789062 3.640625 12.242188 3.714844 12.671875 3.863281 C 13.101562 4.03125 13.476562 4.238281 13.792969 4.519531 C 14.113281 4.800781 14.355469 5.136719 14.542969 5.53125 C 14.710938 5.921875 14.804688 6.355469 14.804688 6.820312 C 14.804688 7.140625 14.765625 7.421875 14.691406 7.664062 C 14.597656 7.925781 14.484375 8.171875 14.335938 8.394531 C 14.1875 8.636719 14.019531 8.863281 13.8125 9.066406 C 13.585938 9.273438 13.363281 9.5 13.117188 9.722656 C 12.726562 10.078125 12.40625 10.378906 12.164062 10.621094 C 11.921875 10.882812 11.808594 11.164062 11.808594 11.484375 C 11.808594 11.578125 11.808594 11.671875 11.828125 11.765625 C 11.847656 11.839844 11.847656 11.914062 11.863281 11.988281 L 10.179688 11.988281 C 10.046875 11.707031 9.992188 11.425781 9.992188 11.128906 C 9.992188 10.902344 10.03125 10.699219 10.125 10.492188 C 10.21875 10.285156 10.332031 10.097656 10.460938 9.910156 C 10.589844 9.742188 10.761719 9.574219 10.929688 9.40625 C 11.097656 9.238281 11.285156 9.085938 11.472656 8.917969 C 11.679688 8.730469 11.863281 8.5625 12.035156 8.394531 C 12.203125 8.246094 12.332031 8.09375 12.425781 7.945312 C 12.539062 7.8125 12.632812 7.664062 12.6875 7.496094 C 12.746094 7.347656 12.765625 7.175781 12.765625 6.992188 C 12.765625 6.523438 12.613281 6.148438 12.316406 5.867188 C 12.015625 5.585938 11.660156 5.453125 11.246094 5.453125 C 10.40625 5.453125 9.789062 5.996094 9.429688 7.066406 L 7.785156 6.355469 C 8.027344 5.453125 8.457031 4.78125 9.074219 4.332031 C 9.710938 3.863281 10.441406 3.640625 11.304688 3.640625 Z M 11.117188 13.503906 C 11.527344 13.503906 11.882812 13.636719 12.164062 13.917969 C 12.425781 14.199219 12.578125 14.535156 12.578125 14.964844 C 12.578125 15.394531 12.425781 15.734375 12.164062 15.996094 C 11.882812 16.277344 11.527344 16.40625 11.117188 16.40625 C 10.722656 16.40625 10.367188 16.277344 10.085938 15.996094 C 9.804688 15.734375 9.65625 15.394531 9.65625 14.964844 C 9.65625 14.535156 9.804688 14.199219 10.085938 13.917969 C 10.367188 13.636719 10.722656 13.503906 11.117188 13.503906 Z M 11.117188 13.503906 "/>
</g>
</svg>
