
<svg xmlns="http://www.w3.org/2000/svg" xmlns:xlink="http://www.w3.org/1999/xlink" width="22px" height="22px" viewBox="0 0 22 22" version="1.1">
<defs>
<filter id="alpha" filterUnits="objectBoundingBox" x="0%" y="0%" width="100%" height="100%">
  <feColorMatrix type="matrix" in="SourceGraphic" values="0 0 0 0 1 0 0 0 0 1 0 0 0 0 1 0 0 0 1 0"/>
</filter>
<mask id="mask0">
  <g filter="url(#alpha)">
<rect x="0" y="0" width="22" height="22" style="fill:rgb(0%,0%,0%);fill-opacity:0.3;stroke:none;"/>
  </g>
</mask>
<clipPath id="clip1">
  <rect x="0" y="0" width="22" height="22"/>
</clipPath>
<g id="surface5" clip-path="url(#clip1)">
<path style=" stroke:none;fill-rule:nonzero;fill:rgb(26.666668%,26.666668%,26.666668%);fill-opacity:1;" d="M 13.667969 17.207031 C 13.867188 16.988281 13.824219 16.640625 13.578125 16.472656 C 12.835938 15.976562 11.949219 15.648438 10.996094 15.648438 C 10.042969 15.648438 9.160156 15.972656 8.417969 16.46875 C 8.171875 16.632812 8.125 16.984375 8.324219 17.207031 L 10.636719 19.78125 C 10.828125 19.992188 11.160156 19.992188 11.351562 19.78125 Z M 10.996094 13.507812 C 12.554688 13.507812 13.988281 14.023438 15.144531 14.890625 C 15.351562 15.042969 15.632812 15.023438 15.800781 14.835938 L 16.628906 13.917969 C 16.816406 13.707031 16.796875 13.378906 16.574219 13.210938 C 15.03125 12.011719 13.097656 11.246094 10.996094 11.246094 C 8.894531 11.246094 6.964844 12.007812 5.421875 13.203125 C 5.203125 13.375 5.183594 13.703125 5.367188 13.910156 L 6.195312 14.832031 C 6.363281 15.019531 6.644531 15.039062 6.851562 14.886719 C 8.007812 14.023438 9.441406 13.507812 10.996094 13.507812 Z M 10.996094 9.042969 C 13.699219 9.042969 16.179688 9.988281 18.132812 11.554688 C 18.335938 11.71875 18.621094 11.703125 18.792969 11.507812 L 19.539062 10.679688 C 19.722656 10.476562 19.707031 10.148438 19.492188 9.976562 C 17.171875 8.078125 14.21875 6.777344 10.996094 6.777344 C 7.777344 6.777344 4.828125 8.074219 2.511719 9.964844 C 2.296875 10.140625 2.277344 10.464844 2.460938 10.671875 L 3.207031 11.5 C 3.378906 11.691406 3.664062 11.707031 3.863281 11.546875 C 5.820312 9.984375 8.292969 9.042969 10.996094 9.042969 Z M 10.996094 4.714844 C 14.707031 4.714844 17.847656 6.0625 20.527344 8.214844 C 20.804688 8.4375 21.199219 8.414062 21.4375 8.148438 L 21.828125 7.644531 C 22.078125 7.363281 22.054688 6.917969 21.761719 6.679688 C 18.578125 4.074219 15.414062 2.617188 10.992188 2.617188 C 6.574219 2.617188 3.4375 4.066406 0.261719 6.660156 C -0.0351562 6.902344 -0.0585938 7.34375 0.191406 7.628906 L 0.566406 8.121094 C 0.804688 8.382812 1.199219 8.40625 1.472656 8.183594 C 4.152344 6.039062 7.289062 4.714844 10.996094 4.714844 Z M 10.996094 4.714844 "/>
</g>
</defs>
<g id="surface1">
<use xlink:href="#surface5" mask="url(#mask0)"/>
<path style=" stroke:none;fill-rule:nonzero;fill:rgb(26.666668%,26.666668%,26.666668%);fill-opacity:1;" d="M 13.0625 11 C 13.0625 12.132812 12.132812 13.0625 11 13.0625 C 9.867188 13.0625 8.9375 12.132812 8.9375 11 C 8.9375 9.867188 9.867188 8.9375 11 8.9375 C 12.132812 8.9375 13.0625 9.867188 13.0625 11 Z M 6.816406 11 C 6.816406 12.132812 5.886719 13.0625 4.753906 13.0625 C 3.621094 13.0625 2.691406 12.132812 2.691406 11 C 2.691406 9.867188 3.621094 8.9375 4.753906 8.9375 C 5.886719 8.9375 6.816406 9.867188 6.816406 11 Z M 19.308594 11 C 19.308594 12.132812 18.378906 13.0625 17.246094 13.0625 C 16.113281 13.0625 15.183594 12.132812 15.183594 11 C 15.183594 9.867188 16.113281 8.9375 17.246094 8.9375 C 18.378906 8.9375 19.308594 9.867188 19.308594 11 Z M 19.308594 11 "/>
</g>
</svg>
