<svg xmlns="http://www.w3.org/2000/svg" style="fill-rule:evenodd;clip-rule:evenodd;stroke-linejoin:round;stroke-miterlimit:2" width="100%" height="100%" version="1.1" viewBox="0 0 22 22" xml:space="preserve">
 <defs>
  <style id="current-color-scheme" type="text/css">
   .ColorScheme-Text { color:#444444; } .ColorScheme-Highlight { color:#4285f4; } .ColorScheme-NeutralText { color:#ff9800; } .ColorScheme-PositiveText { color:#4caf50; } .ColorScheme-NegativeText { color:#f44336; }
  </style>
 </defs>
 <path style="fill:currentColor;" class="ColorScheme-Text" d="M15.932,10.996c-1.184,-0 -2.137,0.973 -2.137,2.17l0,1.035l-0.381,-0c-0.379,-0 -0.687,0.308 -0.687,0.687l-0,2.9c-0,0.183 0.073,0.357 0.201,0.486c0.129,0.128 0.303,0.201 0.486,0.201l5.037,-0c0.182,-0 0.356,-0.073 0.485,-0.201c0.128,-0.129 0.201,-0.303 0.201,-0.486l0,-2.9c0,-0.379 -0.308,-0.687 -0.686,-0.687l-0.382,-0l-0,-1.035c-0,-1.197 -0.954,-2.17 -2.137,-2.17Zm-10.432,2.338l0,-0.729c0,-0.569 0.225,-1.114 0.628,-1.515c0.402,-0.403 0.946,-0.628 1.515,-0.628l2.852,0l0,-2.038l-0.715,0c-0.689,0 -1.248,-0.558 -1.248,-1.247l0,-2.499c0,-0.689 0.559,-1.248 1.248,-1.248l2.498,0c0.689,0 1.248,0.559 1.248,1.248l-0,2.499c-0,0.689 -0.559,1.247 -1.248,1.247l-0.715,0l-0,2.038l1.925,0l-0.01,1.068l-5.835,-0c-0.285,-0 -0.558,0.113 -0.76,0.315c-0.202,0.201 -0.315,0.475 -0.315,0.76l-0,0.729l0.715,0c0.689,0 1.248,0.56 1.248,1.248l-0,2.499c-0,0.689 -0.559,1.247 -1.248,1.247l-2.498,0c-0.689,0 -1.248,-0.558 -1.248,-1.247l0,-2.499c0,-0.688 0.559,-1.248 1.248,-1.248l0.715,0Zm10.432,-1.269c0.592,-0 1.068,0.471 1.068,1.068l0,1.068l-2.136,-0l-0,-1.068c-0,-0.597 0.476,-1.068 1.068,-1.068Z"/>
</svg>
