
<svg xmlns="http://www.w3.org/2000/svg" xmlns:xlink="http://www.w3.org/1999/xlink" width="22px" height="22px" viewBox="0 0 22 22" version="1.1">
<defs>
<filter id="alpha" filterUnits="objectBoundingBox" x="0%" y="0%" width="100%" height="100%">
  <feColorMatrix type="matrix" in="SourceGraphic" values="0 0 0 0 1 0 0 0 0 1 0 0 0 0 1 0 0 0 1 0"/>
</filter>
<mask id="mask0">
  <g filter="url(#alpha)">
<rect x="0" y="0" width="22" height="22" style="fill:rgb(0%,0%,0%);fill-opacity:0.3;stroke:none;"/>
  </g>
</mask>
<clipPath id="clip1">
  <rect x="0" y="0" width="22" height="22"/>
</clipPath>
<g id="surface5" clip-path="url(#clip1)">
<path style=" stroke:none;fill-rule:nonzero;fill:rgb(26.666668%,26.666668%,26.666668%);fill-opacity:1;" d="M 11 0 C 8.722656 0 6.875 1.847656 6.875 4.125 L 6.875 6.875 L 5.5 6.875 C 4.738281 6.875 4.125 7.488281 4.125 8.25 L 4.125 11 C 4.125 9.480469 5.355469 8.25 6.875 8.25 C 7.664062 8.25 8.417969 8.589844 8.9375 9.183594 C 9.457031 8.589844 10.210938 8.25 11 8.25 C 11.789062 8.25 12.542969 8.589844 13.0625 9.183594 C 13.582031 8.589844 14.335938 8.25 15.125 8.25 C 16.644531 8.25 17.875 9.480469 17.875 11 L 17.875 8.25 C 17.875 7.488281 17.261719 6.875 16.5 6.875 L 15.125 6.875 L 15.125 4.125 C 15.125 1.847656 13.277344 0 11 0 Z M 17.875 11 C 17.875 12.519531 16.644531 13.75 15.125 13.75 C 14.335938 13.75 13.582031 13.410156 13.0625 12.816406 C 12.542969 13.410156 11.789062 13.75 11 13.75 C 10.210938 13.75 9.457031 13.410156 8.9375 12.816406 C 8.417969 13.410156 7.664062 13.75 6.875 13.75 C 5.355469 13.75 4.125 12.519531 4.125 11 L 4.125 13.75 C 4.125 14.511719 4.738281 15.125 5.5 15.125 L 16.5 15.125 C 17.261719 15.125 17.875 14.511719 17.875 13.75 Z M 11 2.75 C 11.792969 2.75 12.375 3.332031 12.375 4.125 L 12.375 6.875 L 9.625 6.875 L 9.625 4.125 C 9.625 3.332031 10.207031 2.75 11 2.75 Z M 9.625 16.5 L 9.625 17.875 L 6.875 17.875 L 6.875 22 L 15.125 22 L 15.125 17.875 L 12.375 17.875 L 12.375 16.5 Z M 1.375 19.25 C 0.613281 19.25 0 19.863281 0 20.625 C 0 21.386719 0.613281 22 1.375 22 L 5.5 22 L 5.5 19.25 Z M 16.5 19.25 L 16.5 22 L 20.625 22 C 21.386719 22 22 21.386719 22 20.625 C 22 19.863281 21.386719 19.25 20.625 19.25 Z M 16.5 19.25 "/>
</g>
</defs>
<g id="surface1">
<use xlink:href="#surface5" mask="url(#mask0)"/>
<path style=" stroke:none;fill-rule:nonzero;fill:rgb(26.666668%,26.666668%,26.666668%);fill-opacity:1;" d="M 6.875 9.625 C 6.117188 9.625 5.5 10.242188 5.5 11 C 5.5 11.757812 6.117188 12.375 6.875 12.375 C 7.632812 12.375 8.25 11.757812 8.25 11 C 8.25 10.242188 7.632812 9.625 6.875 9.625 Z M 11 9.625 C 10.242188 9.625 9.625 10.242188 9.625 11 C 9.625 11.757812 10.242188 12.375 11 12.375 C 11.757812 12.375 12.375 11.757812 12.375 11 C 12.375 10.242188 11.757812 9.625 11 9.625 Z M 15.125 9.625 C 14.367188 9.625 13.75 10.242188 13.75 11 C 13.75 11.757812 14.367188 12.375 15.125 12.375 C 15.882812 12.375 16.5 11.757812 16.5 11 C 16.5 10.242188 15.882812 9.625 15.125 9.625 Z M 15.125 9.625 "/>
</g>
</svg>
