
<svg xmlns="http://www.w3.org/2000/svg" xmlns:xlink="http://www.w3.org/1999/xlink" width="22px" height="22px" viewBox="0 0 22 22" version="1.1">
<g id="surface1">
<path style=" stroke:none;fill-rule:nonzero;fill:rgb(26.666668%,26.666668%,26.666668%);fill-opacity:1;" d="M 7.335938 1.375 L 13.308594 12.371094 C 14.40625 11.484375 15.777344 11 17.1875 11 C 18.707031 11.003906 20.175781 11.5625 21.308594 12.578125 L 14.664062 1.375 Z M 6.664062 2.679688 L 0 14.609375 L 3.664062 20.625 L 10.292969 9.355469 Z M 17.1875 12.375 C 14.53125 12.375 12.375 14.53125 12.375 17.1875 C 12.375 19.84375 14.53125 22 17.1875 22 C 19.84375 22 22 19.84375 22 17.1875 C 22 14.53125 19.84375 12.375 17.1875 12.375 Z M 17.1875 13.75 C 19.085938 13.75 20.625 15.289062 20.625 17.1875 L 19.476562 17.1875 C 19.476562 15.921875 18.453125 14.898438 17.1875 14.898438 Z M 11.359375 15.132812 L 8.25 15.136719 L 4.886719 20.625 L 12.046875 20.625 C 11.367188 19.609375 11 18.410156 11 17.1875 C 11.003906 16.488281 11.125 15.792969 11.359375 15.132812 Z M 13.75 17.1875 L 14.898438 17.1875 C 14.898438 18.453125 15.921875 19.476562 17.1875 19.476562 L 17.1875 20.625 C 15.289062 20.625 13.75 19.085938 13.75 17.1875 Z M 13.75 17.1875 "/>
</g>
</svg>
