
<svg xmlns="http://www.w3.org/2000/svg" xmlns:xlink="http://www.w3.org/1999/xlink" width="22px" height="22px" viewBox="0 0 22 22" version="1.1">
<defs>
<filter id="alpha" filterUnits="objectBoundingBox" x="0%" y="0%" width="100%" height="100%">
  <feColorMatrix type="matrix" in="SourceGraphic" values="0 0 0 0 1 0 0 0 0 1 0 0 0 0 1 0 0 0 1 0"/>
</filter>
<mask id="mask0">
  <g filter="url(#alpha)">
<rect x="0" y="0" width="22" height="22" style="fill:rgb(0%,0%,0%);fill-opacity:0.3;stroke:none;"/>
  </g>
</mask>
<clipPath id="clip1">
  <rect x="0" y="0" width="22" height="22"/>
</clipPath>
<g id="surface5" clip-path="url(#clip1)">
<path style=" stroke:none;fill-rule:nonzero;fill:rgb(26.666668%,26.666668%,26.666668%);fill-opacity:1;" d="M 11 2.75 C 8.238281 2.75 5.746094 4.402344 4.671875 6.941406 C 1.984375 7.351562 0.00390625 9.660156 0 12.375 C 0.00390625 15.308594 2.308594 17.722656 5.238281 17.863281 L 5.238281 17.875 L 18.59375 17.875 C 20.476562 17.875 22 16.351562 22 14.46875 C 22 13.289062 21.386719 12.195312 20.378906 11.574219 C 20.539062 11.171875 20.625 10.746094 20.625 10.3125 C 20.621094 8.457031 19.148438 6.9375 17.296875 6.878906 C 16.203125 4.375 13.734375 2.753906 11 2.75 Z M 8.25 6.875 L 13.75 6.875 L 13.75 11 L 9.625 11 L 9.625 15.125 L 8.25 15.125 Z M 9.625 8.25 L 9.625 9.625 L 12.375 9.625 L 12.375 8.25 Z M 9.625 8.25 "/>
</g>
</defs>
<g id="surface1">
<use xlink:href="#surface5" mask="url(#mask0)"/>
</g>
</svg>
