
<svg xmlns="http://www.w3.org/2000/svg" xmlns:xlink="http://www.w3.org/1999/xlink" width="22px" height="22px" viewBox="0 0 22 22" version="1.1">
<defs>
<filter id="alpha" filterUnits="objectBoundingBox" x="0%" y="0%" width="100%" height="100%">
  <feColorMatrix type="matrix" in="SourceGraphic" values="0 0 0 0 1 0 0 0 0 1 0 0 0 0 1 0 0 0 1 0"/>
</filter>
<mask id="mask0">
  <g filter="url(#alpha)">
<rect x="0" y="0" width="22" height="22" style="fill:rgb(0%,0%,0%);fill-opacity:0.3;stroke:none;"/>
  </g>
</mask>
<clipPath id="clip1">
  <rect x="0" y="0" width="22" height="22"/>
</clipPath>
<g id="surface5" clip-path="url(#clip1)">
<path style=" stroke:none;fill-rule:nonzero;fill:rgb(26.666668%,26.666668%,26.666668%);fill-opacity:1;" d="M 11.6875 0 C 7.511719 0 4.125 3.199219 4.125 7.148438 C 4.128906 7.332031 4.136719 7.515625 4.15625 7.699219 L 4.125 7.699219 L 4.125 8.25 L 2.523438 8.25 C 1.886719 8.25 1.375 8.726562 1.375 9.320312 L 1.375 16.804688 C 1.375 17.398438 1.886719 17.875 2.523438 17.875 L 4.125 17.875 L 4.125 20.898438 C 4.125 21.507812 4.644531 22 5.289062 22 L 9.363281 22 L 11.105469 19.25 L 12.269531 19.25 L 14.011719 22 L 18.085938 22 C 18.730469 22 19.25 21.507812 19.25 20.898438 L 19.25 17.875 L 20.851562 17.875 C 21.488281 17.875 22 17.398438 22 16.804688 L 22 9.320312 C 22 8.726562 21.488281 8.25 20.851562 8.25 L 19.25 8.25 L 19.25 7.699219 L 19.226562 7.699219 C 19.242188 7.515625 19.25 7.332031 19.25 7.148438 C 19.25 3.199219 15.863281 0 11.6875 0 Z M 11.6875 2.75 C 14.34375 2.75 16.5 4.125 16.5 8.21875 C 16.5 8.238281 16.5 8.261719 16.496094 8.28125 L 6.875 8.28125 C 6.875 8.257812 6.875 8.238281 6.875 8.21875 C 6.875 4.125 9.03125 2.75 11.6875 2.75 Z M 8.25 5.5 L 8.25 6.875 L 9.625 6.875 L 9.625 5.5 Z M 13.75 5.5 L 13.75 6.875 L 15.125 6.875 L 15.125 5.5 Z M 6.1875 11 C 7.328125 11 8.25 11.921875 8.25 13.0625 C 8.25 14.203125 7.328125 15.125 6.1875 15.125 C 5.046875 15.125 4.125 14.203125 4.125 13.0625 C 4.125 11.921875 5.046875 11 6.1875 11 Z M 11.6875 11 C 12.828125 11 13.75 11.921875 13.75 13.0625 C 13.75 14.203125 12.828125 15.125 11.6875 15.125 C 10.546875 15.125 9.625 14.203125 9.625 13.0625 C 9.625 11.921875 10.546875 11 11.6875 11 Z M 17.1875 11 C 18.328125 11 19.25 11.921875 19.25 13.0625 C 19.25 14.203125 18.328125 15.125 17.1875 15.125 C 16.046875 15.125 15.125 14.203125 15.125 13.0625 C 15.125 11.921875 16.046875 11 17.1875 11 Z M 17.1875 11 "/>
</g>
</defs>
<g id="surface1">
<use xlink:href="#surface5" mask="url(#mask0)"/>
<path style=" stroke:none;fill-rule:nonzero;fill:rgb(26.666668%,26.666668%,26.666668%);fill-opacity:1;" d="M 5.5 12.375 L 5.5 13.75 L 6.875 13.75 L 6.875 12.375 Z M 11 12.375 L 11 13.75 L 12.375 13.75 L 12.375 12.375 Z M 16.5 12.375 L 16.5 13.75 L 17.875 13.75 L 17.875 12.375 Z M 16.5 12.375 "/>
</g>
</svg>
