
<svg xmlns="http://www.w3.org/2000/svg" xmlns:xlink="http://www.w3.org/1999/xlink" width="22px" height="22px" viewBox="0 0 22 22" version="1.1">
<g id="surface1">
<path style=" stroke:none;fill-rule:nonzero;fill:rgb(26.666668%,26.666668%,26.666668%);fill-opacity:1;" d="M 11 1.375 C 8.722656 1.375 6.632812 2.121094 4.984375 3.511719 L 3.613281 2.15625 L 2.109375 3.652344 L 3.480469 5.011719 C 2.160156 6.613281 1.375 8.753906 1.375 11 C 1.375 16.347656 5.683594 20.625 11 20.625 C 16.316406 20.625 20.625 16.347656 20.625 11 C 20.625 8.753906 19.839844 6.613281 18.519531 5.011719 L 19.9375 3.609375 L 18.433594 2.113281 L 17.015625 3.511719 C 15.367188 2.121094 13.277344 1.375 11 1.375 Z M 11 2.859375 C 15.496094 2.859375 19.140625 6.464844 19.140625 11 C 19.140625 15.535156 15.496094 19.140625 11 19.140625 C 6.503906 19.140625 2.859375 15.535156 2.859375 11 C 2.859375 6.464844 6.503906 2.859375 11 2.859375 Z M 8.6875 7 L 14.6875 11 L 8.6875 15 Z M 8.6875 7 "/>
</g>
</svg>
