
<svg xmlns="http://www.w3.org/2000/svg" xmlns:xlink="http://www.w3.org/1999/xlink" width="22px" height="22px" viewBox="0 0 22 22" version="1.1">
<g id="surface1">
<path style=" stroke:none;fill-rule:nonzero;fill:rgb(26.666668%,26.666668%,26.666668%);fill-opacity:1;" d="M 11 1.375 C 8.722656 1.375 6.632812 2.121094 4.984375 3.511719 L 3.613281 2.15625 L 2.109375 3.652344 L 3.480469 5.011719 C 2.160156 6.613281 1.375 8.753906 1.375 11 C 1.375 16.347656 5.683594 20.625 11 20.625 C 16.316406 20.625 20.625 16.347656 20.625 11 C 20.625 8.753906 19.839844 6.613281 18.519531 5.011719 L 19.9375 3.609375 L 18.433594 2.113281 L 17.015625 3.511719 C 15.367188 2.121094 13.277344 1.375 11 1.375 Z M 11 2.859375 C 15.496094 2.859375 19.140625 6.464844 19.140625 11 C 19.140625 15.535156 15.496094 19.140625 11 19.140625 C 6.503906 19.140625 2.859375 15.535156 2.859375 11 C 2.859375 6.464844 6.503906 2.859375 11 2.859375 Z M 11 11 L 11 3.828125 C 11.222656 3.828125 11.441406 3.835938 11.65625 3.859375 C 11.882812 3.878906 12.105469 3.910156 12.324219 3.949219 C 12.578125 3.996094 12.828125 4.058594 13.070312 4.132812 C 13.277344 4.195312 13.480469 4.265625 13.675781 4.34375 C 13.945312 4.453125 14.207031 4.574219 14.457031 4.714844 C 14.660156 4.828125 14.859375 4.949219 15.050781 5.082031 C 15.257812 5.222656 15.453125 5.371094 15.640625 5.53125 C 15.832031 5.695312 16.011719 5.863281 16.183594 6.042969 C 16.34375 6.210938 16.496094 6.386719 16.640625 6.566406 C 16.785156 6.75 16.917969 6.941406 17.042969 7.136719 C 17.199219 7.378906 17.339844 7.628906 17.464844 7.886719 C 17.589844 8.152344 17.703125 8.425781 17.796875 8.707031 C 17.863281 8.902344 17.921875 9.101562 17.96875 9.304688 C 18.019531 9.507812 18.085938 9.914062 18.117188 10.121094 C 18.1875 10.488281 18.144531 10.65625 18.171875 11 C 18.144531 11.34375 18.1875 11.511719 18.117188 11.878906 C 18.085938 12.085938 18.019531 12.492188 17.96875 12.695312 C 17.921875 12.898438 17.863281 13.097656 17.796875 13.292969 Z M 11 11 "/>
</g>
</svg>
