
<svg xmlns="http://www.w3.org/2000/svg" xmlns:xlink="http://www.w3.org/1999/xlink" width="22px" height="22px" viewBox="0 0 22 22" version="1.1">
<g id="surface1">
<path style=" stroke:none;fill-rule:nonzero;fill:rgb(26.666668%,26.666668%,26.666668%);fill-opacity:1;" d="M 11 0 C 8.714844 0 6.875 1.839844 6.875 4.125 L 6.875 9.636719 C 5.148438 10.929688 4.128906 12.964844 4.125 15.125 C 4.128906 18.734375 6.921875 21.726562 10.523438 21.976562 C 10.679688 21.992188 10.839844 22 11 22 C 14.796875 22 17.875 18.921875 17.875 15.125 C 17.871094 12.964844 16.851562 10.929688 15.125 9.636719 L 15.125 4.125 C 15.125 1.839844 13.285156 0 11 0 Z M 11 1.625 C 12.234375 1.625 13.101562 2.621094 13.101562 3.613281 L 13.101562 10.148438 C 13.101562 10.148438 15.988281 11.644531 15.988281 15.125 C 15.988281 17.917969 13.792969 20.109375 11.003906 20.109375 C 10.914062 20.109375 10.652344 20.085938 10.652344 20.085938 C 8.011719 19.902344 6.003906 17.769531 6.011719 15.121094 C 6.023438 11.597656 8.898438 10.148438 8.898438 10.148438 L 8.898438 3.613281 C 8.898438 2.621094 9.765625 1.625 11 1.625 Z M 11 1.625 "/>
</g>
</svg>
