
<svg xmlns="http://www.w3.org/2000/svg" xmlns:xlink="http://www.w3.org/1999/xlink" width="22px" height="22px" viewBox="0 0 22 22" version="1.1">
<g id="surface1">
<path style=" stroke:none;fill-rule:nonzero;fill:rgb(26.666668%,26.666668%,26.666668%);fill-opacity:1;" d="M 0 2.75 L 0 19.25 L 2.75 19.25 L 2.75 2.75 Z M 5.5 2.75 L 5.5 19.25 L 11.347656 19.203125 C 15.375 19.160156 15.757812 19.105469 17.460938 18.273438 C 21.175781 16.464844 22.933594 12.082031 21.503906 8.175781 C 20.5625 5.597656 18.414062 3.691406 15.679688 2.996094 C 14.820312 2.777344 14.277344 2.75 10.9375 2.75 Z M 13.75 3.222656 L 16.667969 6.140625 L 15.695312 7.113281 L 13.75 9.054688 L 12.777344 8.082031 L 14.054688 6.808594 C 13.089844 6.691406 11.972656 6.945312 10.832031 8.082031 C 7.917969 11 10.832031 13.917969 10.832031 13.917969 L 9.863281 14.886719 C 9.863281 14.886719 5.972656 11 9.863281 7.113281 C 11.300781 5.671875 12.75 5.308594 13.996094 5.410156 L 12.777344 4.195312 Z M 17.636719 7.109375 C 17.636719 7.109375 21.527344 11 17.636719 14.886719 C 16.195312 16.328125 14.75 16.691406 13.503906 16.589844 L 14.722656 17.804688 L 13.75 18.777344 L 10.832031 15.859375 L 11.804688 14.886719 L 13.75 12.945312 L 14.722656 13.917969 L 13.445312 15.191406 C 14.410156 15.3125 15.527344 15.054688 16.667969 13.917969 C 19.582031 11 16.667969 8.082031 16.667969 8.082031 L 17.636719 7.113281 Z M 17.636719 7.109375 "/>
</g>
</svg>
