
<svg xmlns="http://www.w3.org/2000/svg" xmlns:xlink="http://www.w3.org/1999/xlink" width="22px" height="22px" viewBox="0 0 22 22" version="1.1">
<g id="surface1">
<path style=" stroke:none;fill-rule:nonzero;fill:rgb(26.666668%,26.666668%,26.666668%);fill-opacity:1;" d="M 10.3125 1.375 C 6.136719 1.375 2.75 5.375 2.75 10.3125 C 2.75 15.25 6.136719 19.25 10.3125 19.25 C 11.347656 19.25 12.371094 18.996094 13.320312 18.507812 L 11.546875 16.289062 C 11.144531 16.429688 10.730469 16.5 10.3125 16.5 C 7.65625 16.5 5.5 13.730469 5.5 10.3125 C 5.5 6.894531 7.65625 4.125 10.3125 4.125 C 11.972656 4.125 13.511719 5.226562 14.390625 7.035156 C 14.511719 7.097656 14.621094 7.175781 14.71875 7.273438 L 17.871094 10.398438 C 17.875 10.371094 17.875 10.339844 17.875 10.3125 C 17.875 5.375 14.488281 1.375 10.3125 1.375 Z M 13.75 8.25 L 15.8125 13.0625 L 12.375 15.125 L 17.875 22 L 15.8125 16.5 L 19.25 13.703125 Z M 13.75 8.25 "/>
</g>
</svg>
