
<svg xmlns="http://www.w3.org/2000/svg" xmlns:xlink="http://www.w3.org/1999/xlink" width="22px" height="22px" viewBox="0 0 22 22" version="1.1">
<g id="surface1">
<path style=" stroke:none;fill-rule:nonzero;fill:rgb(26.666668%,26.666668%,26.666668%);fill-opacity:1;" d="M 12.359375 1.378906 C 11.910156 1.40625 11.460938 1.527344 11.03125 1.746094 C 10.894531 1.816406 10.707031 1.921875 10.617188 1.980469 C 9.703125 2.589844 8.917969 3.867188 8.375 5.128906 C 8.238281 5.4375 8.058594 5.925781 8.039062 6.023438 C 8.019531 6.113281 7.980469 6.109375 7.875 6.007812 C 7.457031 5.609375 6.945312 5.398438 6.441406 5.425781 C 5.9375 5.453125 5.503906 5.667969 5.078125 6.097656 C 4.746094 6.433594 4.503906 6.796875 4.296875 7.273438 C 4.027344 7.890625 3.898438 8.445312 3.828125 9.296875 L 3.816406 9.421875 L 3.636719 9.542969 C 2.617188 10.226562 1.824219 11.480469 1.515625 13.183594 C 1.105469 15.46875 1.605469 17.839844 2.78125 19.339844 C 2.917969 19.511719 3.25 19.855469 3.40625 19.976562 C 3.859375 20.339844 4.320312 20.542969 4.859375 20.613281 L 4.863281 20.613281 C 4.894531 20.617188 7.722656 20.621094 11.144531 20.621094 C 17.96875 20.625 17.507812 20.636719 17.871094 20.519531 C 18.511719 20.320312 19.148438 19.777344 19.609375 19.042969 C 20.398438 17.789062 20.753906 16.058594 20.582031 14.328125 C 20.347656 12.015625 19.257812 10.136719 18.386719 9.808594 L 18.238281 9.765625 L 18.230469 9.605469 C 18.195312 8.273438 18.125 7.605469 17.921875 6.683594 C 17.359375 4.164062 15.351562 2.207031 13.707031 1.59375 C 13.261719 1.425781 12.808594 1.355469 12.359375 1.378906 Z M 9.234375 6.878906 C 10.3125 6.863281 11.363281 6.933594 12.207031 7.085938 C 12.800781 7.191406 13.316406 7.332031 13.832031 7.527344 C 15.023438 7.980469 15.988281 8.730469 16.359375 9.710938 C 16.609375 10.367188 16.492188 12.28125 16.289062 13.09375 C 16.117188 13.804688 15.65625 14.65625 15.078125 15.167969 L 17.203125 19.25 L 13.710938 19.25 L 12.507812 16.347656 C 12 16.414062 11.492188 16.464844 10.890625 16.527344 C 10.417969 16.5625 9.507812 16.558594 8.882812 16.519531 C 8.609375 16.5 8.414062 16.480469 8.390625 16.476562 C 8.367188 16.472656 8.335938 16.476562 8.324219 16.492188 C 8.308594 16.507812 8.316406 15.699219 8.3125 16.585938 L 8.308594 19.222656 L 6.457031 19.226562 L 5.5 19.230469 L 5.503906 12.570312 L 5.511719 7.285156 L 5.585938 7.261719 C 5.628906 7.25 5.863281 7.203125 6.109375 7.15625 C 7.054688 6.984375 8.15625 6.890625 9.234375 6.878906 Z M 10.382812 9.625 C 9.769531 9.625 9.050781 9.679688 8.511719 9.773438 C 8.40625 9.792969 8.316406 9.808594 8.308594 9.808594 C 8.304688 9.808594 8.289062 9.820312 8.273438 9.832031 C 8.25 9.851562 8.25 10.042969 8.25 11.71875 C 8.25 12.769531 8.253906 13.597656 8.261719 13.609375 C 8.289062 13.640625 8.742188 13.707031 9.15625 13.738281 C 9.558594 13.765625 10.664062 13.746094 11.054688 13.707031 C 11.613281 13.652344 12.144531 13.527344 12.535156 13.359375 C 13 13.160156 13.332031 12.878906 13.539062 12.507812 C 13.671875 12.261719 13.730469 12.058594 13.746094 11.730469 C 13.777344 11.183594 13.59375 10.726562 13.195312 10.375 C 12.726562 9.957031 12.03125 9.734375 10.953125 9.648438 C 10.78125 9.632812 10.585938 9.625 10.382812 9.625 Z M 10.382812 9.625 "/>
</g>
</svg>
