
<svg xmlns="http://www.w3.org/2000/svg" xmlns:xlink="http://www.w3.org/1999/xlink" width="22px" height="22px" viewBox="0 0 22 22" version="1.1">
<defs>
<filter id="alpha" filterUnits="objectBoundingBox" x="0%" y="0%" width="100%" height="100%">
  <feColorMatrix type="matrix" in="SourceGraphic" values="0 0 0 0 1 0 0 0 0 1 0 0 0 0 1 0 0 0 1 0"/>
</filter>
<mask id="mask0">
  <g filter="url(#alpha)">
<rect x="0" y="0" width="22" height="22" style="fill:rgb(0%,0%,0%);fill-opacity:0.3;stroke:none;"/>
  </g>
</mask>
<clipPath id="clip1">
  <rect x="0" y="0" width="22" height="22"/>
</clipPath>
<g id="surface5" clip-path="url(#clip1)">
<path style=" stroke:none;fill-rule:nonzero;fill:rgb(26.666668%,26.666668%,26.666668%);fill-opacity:1;" d="M 2.003906 4.964844 C 3.375 6.320312 4.871094 7.785156 6.234375 9.097656 C 5.183594 11.125 5.808594 13.507812 7.347656 15.035156 C 9.3125 16.988281 11.539062 17.042969 12.945312 16.109375 C 13.691406 16.832031 15.414062 18.492188 16.96875 20.042969 C 10.835938 24.835938 -2.679688 9.40625 2.003906 4.964844 Z M 13.460938 14.976562 C 13.25 15.226562 13.253906 15.570312 13.480469 15.769531 C 14.75 17.0625 15.871094 18.1875 17.183594 19.472656 C 17.367188 19.683594 17.78125 19.699219 17.980469 19.476562 C 18.542969 18.914062 19.066406 18.386719 19.613281 17.855469 C 19.832031 17.625 19.808594 17.21875 19.625 17.011719 C 18.3125 15.726562 16.824219 14.671875 15.511719 13.386719 C 15.308594 13.183594 14.925781 13.199219 14.726562 13.425781 C 14.167969 13.984375 14.003906 14.445312 13.460938 14.976562 Z M 10.832031 1.367188 C 10.828125 1.367188 10.824219 1.367188 10.824219 1.367188 C 10.445312 1.367188 10.136719 1.675781 10.136719 2.054688 C 10.136719 2.429688 10.445312 2.742188 10.824219 2.742188 L 10.832031 2.742188 C 14.425781 2.742188 16.199219 4.132812 17.207031 5.765625 C 18.21875 7.398438 18.394531 9.347656 18.394531 10.304688 L 18.394531 10.3125 C 18.394531 10.6875 18.707031 11 19.082031 11 C 19.460938 11 19.769531 10.6875 19.769531 10.3125 C 19.769531 10.308594 19.769531 10.304688 19.769531 10.304688 C 19.769531 9.195312 19.601562 7.019531 18.378906 5.042969 C 17.15625 3.066406 14.800781 1.367188 10.832031 1.367188 Z M 12.207031 6.785156 C 12.203125 6.785156 12.199219 6.785156 12.199219 6.785156 C 11.820312 6.785156 11.511719 7.097656 11.511719 7.472656 C 11.511719 7.851562 11.820312 8.160156 12.199219 8.160156 L 12.207031 8.160156 C 12.296875 8.160156 12.484375 8.238281 12.640625 8.40625 C 12.792969 8.574219 12.882812 8.808594 12.882812 8.929688 L 12.882812 8.9375 C 12.882812 9.3125 13.191406 9.625 13.570312 9.625 C 13.945312 9.625 14.257812 9.3125 14.257812 8.9375 C 14.257812 8.933594 14.257812 8.929688 14.257812 8.929688 C 14.257812 8.359375 14.003906 7.863281 13.652344 7.476562 C 13.296875 7.089844 12.804688 6.785156 12.207031 6.785156 Z M 12.207031 4.117188 C 12.203125 4.117188 12.199219 4.117188 12.199219 4.117188 C 11.820312 4.117188 11.511719 4.425781 11.511719 4.804688 C 11.511719 5.179688 11.820312 5.492188 12.199219 5.492188 L 12.207031 5.492188 C 13.007812 5.492188 13.890625 5.914062 14.558594 6.578125 C 15.222656 7.242188 15.644531 8.125 15.644531 8.929688 L 15.644531 8.9375 C 15.644531 9.3125 15.957031 9.625 16.332031 9.625 C 16.710938 9.625 17.019531 9.3125 17.019531 8.9375 C 17.019531 8.933594 17.019531 8.929688 17.019531 8.929688 C 17.019531 7.667969 16.410156 6.488281 15.527344 5.605469 C 14.648438 4.722656 13.46875 4.117188 12.207031 4.117188 Z M 2.601562 4.078125 C 2.386719 4.328125 2.390625 4.671875 2.617188 4.867188 C 3.878906 6.121094 5.023438 7.226562 6.324219 8.472656 C 6.570312 8.664062 6.925781 8.699219 7.121094 8.472656 C 7.683594 7.914062 8.152344 7.761719 8.699219 7.230469 C 8.910156 6.976562 8.894531 6.597656 8.710938 6.386719 C 7.40625 5.140625 6.320312 3.660156 5.015625 2.417969 C 4.8125 2.214844 4.429688 2.230469 4.230469 2.457031 C 3.671875 3.015625 3.144531 3.542969 2.601562 4.078125 Z M 2.601562 4.078125 "/>
</g>
</defs>
<g id="surface1">
<use xlink:href="#surface5" mask="url(#mask0)"/>
</g>
</svg>
