
<svg xmlns="http://www.w3.org/2000/svg" xmlns:xlink="http://www.w3.org/1999/xlink" width="22px" height="22px" viewBox="0 0 22 22" version="1.1">
<g id="surface1">
<path style=" stroke:none;fill-rule:nonzero;fill:rgb(26.666668%,26.666668%,26.666668%);fill-opacity:1;" d="M 11 20.625 C 16.316406 20.625 20.625 16.316406 20.625 11 C 20.625 5.683594 16.316406 1.375 11 1.375 C 5.683594 1.375 1.375 5.683594 1.375 11 C 1.375 16.316406 5.683594 20.625 11 20.625 Z M 11 17.875 C 7.703125 17.875 4.871094 15.535156 4.25 12.296875 C 3.363281 12.046875 2.75 11.234375 2.75 10.3125 C 2.75 9.214844 3.609375 8.3125 4.707031 8.253906 C 5.398438 6.664062 6.664062 5.394531 8.253906 4.699219 C 8.316406 3.605469 9.21875 2.75 10.3125 2.75 C 11.234375 2.75 12.046875 3.363281 12.296875 4.253906 C 15.53125 4.875 17.871094 7.707031 17.875 11 C 17.875 11.039062 17.875 11.078125 17.871094 11.117188 C 18.699219 11.410156 19.25 12.1875 19.25 13.0625 C 19.25 14.203125 18.328125 15.125 17.1875 15.125 C 16.976562 15.125 16.765625 15.089844 16.5625 15.027344 C 15.273438 16.8125 13.203125 17.871094 11 17.875 Z M 11 16.5 C 12.773438 16.496094 14.433594 15.640625 15.464844 14.199219 C 15.242188 13.863281 15.125 13.464844 15.125 13.0625 C 15.125 13.035156 15.128906 13.007812 15.128906 12.980469 L 11.863281 11.671875 C 11.472656 12.117188 10.90625 12.375 10.3125 12.375 C 9.441406 12.375 8.660156 11.824219 8.371094 11 L 6.753906 11 C 6.5625 11.535156 6.160156 11.96875 5.640625 12.199219 C 6.199219 14.710938 8.425781 16.496094 11 16.5 Z M 15.640625 11.703125 C 15.871094 11.441406 16.164062 11.242188 16.496094 11.125 C 16.496094 11.082031 16.5 11.042969 16.5 11 C 16.496094 8.425781 14.710938 6.199219 12.199219 5.636719 C 11.972656 6.160156 11.539062 6.5625 11 6.753906 L 11 8.371094 C 11.824219 8.660156 12.375 9.441406 12.375 10.3125 C 12.375 10.339844 12.371094 10.367188 12.371094 10.394531 Z M 8.371094 9.625 C 8.578125 9.039062 9.039062 8.578125 9.625 8.371094 L 9.625 6.753906 C 9.238281 6.617188 8.898438 6.363281 8.65625 6.03125 C 7.503906 6.574219 6.578125 7.503906 6.035156 8.652344 C 6.367188 8.898438 6.617188 9.234375 6.753906 9.625 Z M 8.371094 9.625 "/>
</g>
</svg>
