
<svg xmlns="http://www.w3.org/2000/svg" xmlns:xlink="http://www.w3.org/1999/xlink" width="22px" height="22px" viewBox="0 0 22 22" version="1.1">
<g id="surface1">
<path style=" stroke:none;fill-rule:nonzero;fill:rgb(26.666668%,26.666668%,26.666668%);fill-opacity:1;" d="M 15.8125 2.664062 C 11.207031 0.0078125 5.324219 1.582031 2.664062 6.1875 C 0.0078125 10.792969 1.582031 16.675781 6.1875 19.335938 C 10.792969 21.992188 16.675781 20.417969 19.335938 15.8125 C 21.992188 11.207031 20.417969 5.324219 15.8125 2.664062 Z M 14.4375 5.046875 C 17.292969 6.695312 18.574219 10.136719 17.492188 13.25 C 18.136719 13.914062 18.261719 14.921875 17.800781 15.71875 C 17.25 16.667969 16.054688 17.023438 15.078125 16.523438 C 13.683594 17.554688 11.949219 18.023438 10.226562 17.828125 C 9.628906 18.746094 8.417969 19.035156 7.46875 18.488281 C 6.671875 18.027344 6.277344 17.089844 6.503906 16.195312 C 4.011719 14.039062 3.402344 10.417969 5.046875 7.5625 C 5.066406 7.527344 5.085938 7.496094 5.109375 7.460938 C 4.539062 6.796875 4.449219 5.847656 4.886719 5.089844 C 5.457031 4.101562 6.71875 3.765625 7.703125 4.332031 C 7.886719 4.441406 8.054688 4.574219 8.195312 4.734375 C 10.207031 3.832031 12.527344 3.949219 14.4375 5.046875 Z M 13.75 6.238281 C 12.214844 5.351562 10.34375 5.261719 8.730469 5.996094 C 8.753906 6.398438 8.660156 6.800781 8.457031 7.152344 C 8.445312 7.175781 8.429688 7.199219 8.414062 7.222656 L 10.589844 9.988281 C 11.152344 9.796875 11.769531 9.855469 12.28125 10.152344 C 13.039062 10.589844 13.4375 11.457031 13.277344 12.316406 L 14.675781 13.121094 C 15.109375 12.753906 15.675781 12.582031 16.242188 12.644531 C 17.011719 10.1875 15.976562 7.527344 13.75 6.238281 Z M 7.332031 8.070312 C 7 8.183594 6.648438 8.207031 6.304688 8.144531 C 6.28125 8.179688 6.257812 8.214844 6.238281 8.25 C 4.953125 10.480469 5.386719 13.300781 7.277344 15.042969 C 7.738281 14.707031 8.316406 14.574219 8.878906 14.675781 L 9.683594 13.277344 C 9.117188 12.613281 9.03125 11.664062 9.464844 10.90625 C 9.480469 10.882812 9.496094 10.859375 9.511719 10.839844 Z M 12.589844 13.503906 C 12.117188 13.910156 11.488281 14.078125 10.875 13.964844 L 10.066406 15.363281 C 10.335938 15.679688 10.5 16.066406 10.546875 16.476562 C 11.816406 16.578125 13.082031 16.238281 14.125 15.515625 C 13.960938 15.136719 13.914062 14.71875 13.988281 14.3125 Z M 12.589844 13.503906 "/>
</g>
</svg>
