
<svg xmlns="http://www.w3.org/2000/svg" xmlns:xlink="http://www.w3.org/1999/xlink" width="22px" height="22px" viewBox="0 0 22 22" version="1.1">
<g id="surface1">
<path style=" stroke:none;fill-rule:nonzero;fill:rgb(26.666668%,26.666668%,26.666668%);fill-opacity:1;" d="M 10.964844 1.375 L 10.054688 1.421875 L 9.984375 1.429688 L 9.101562 1.566406 L 9.035156 1.578125 L 8.179688 1.800781 L 8.113281 1.820312 L 7.671875 1.984375 L 8.144531 3.277344 L 8.570312 3.121094 L 9.347656 2.917969 L 10.152344 2.796875 L 11.035156 2.75 L 11.011719 2.273438 L 11.054688 1.378906 L 11.035156 1.375 L 11 2.0625 Z M 12.496094 1.503906 L 12.285156 2.863281 L 12.652344 2.917969 L 13.429688 3.121094 L 14.203125 3.402344 L 14.921875 3.75 L 15.589844 4.160156 L 15.757812 4.285156 L 16.582031 3.183594 L 16.398438 3.046875 L 16.34375 3.007812 L 15.609375 2.558594 L 15.550781 2.527344 L 14.769531 2.148438 L 14.707031 2.125 L 13.886719 1.820312 L 13.820312 1.800781 L 12.964844 1.578125 L 12.898438 1.566406 Z M 6.300781 2.617188 L 5.65625 3.007812 L 5.601562 3.046875 L 4.910156 3.5625 L 4.863281 3.605469 L 4.226562 4.179688 L 4.179688 4.226562 L 3.605469 4.863281 L 3.5625 4.910156 L 3.085938 5.546875 L 4.1875 6.371094 L 4.644531 5.757812 L 5.175781 5.175781 L 5.757812 4.644531 L 6.410156 4.15625 L 7.015625 3.789062 Z M 17.6875 4.101562 L 16.761719 5.121094 L 16.824219 5.179688 L 17.355469 5.757812 L 17.84375 6.410156 L 18.25 7.078125 L 18.597656 7.796875 L 18.78125 8.292969 L 20.070312 7.820312 L 19.875 7.292969 L 19.851562 7.230469 L 19.472656 6.449219 L 19.441406 6.390625 L 18.992188 5.65625 L 18.953125 5.601562 L 18.4375 4.910156 L 18.394531 4.863281 L 17.820312 4.226562 L 17.773438 4.179688 Z M 11 4.125 C 7.203125 4.125 4.125 7.203125 4.125 11 C 4.128906 12.203125 4.445312 13.386719 5.046875 14.429688 L 4.789062 15.402344 C 5.601562 15.75 6.25 16.398438 6.59375 17.214844 L 7.566406 16.953125 C 8.609375 17.558594 9.792969 17.875 11 17.878906 C 14.796875 17.878906 17.875 14.796875 17.875 11 C 17.875 7.203125 14.796875 4.125 11 4.125 Z M 2.332031 6.847656 L 2.148438 7.230469 L 2.125 7.292969 L 1.820312 8.113281 L 1.800781 8.179688 L 1.578125 9.035156 L 1.566406 9.101562 L 1.429688 9.984375 L 1.421875 10.054688 L 1.375 10.964844 L 1.378906 11.0625 L 1.390625 11.199219 L 2.761719 11.074219 L 2.753906 10.988281 L 2.796875 10.152344 L 2.917969 9.347656 L 3.121094 8.570312 L 3.40625 7.796875 L 3.570312 7.445312 Z M 20.460938 9.277344 L 19.101562 9.484375 L 19.203125 10.152344 L 19.246094 11 L 19.203125 11.851562 L 19.082031 12.65625 L 18.917969 13.292969 L 20.246094 13.640625 L 20.421875 12.96875 L 20.433594 12.902344 L 20.570312 12.019531 L 20.578125 11.949219 L 20.625 11.035156 L 20.625 10.964844 L 20.578125 10.054688 L 20.570312 9.984375 Z M 2.964844 12.328125 L 1.628906 12.65625 L 1.675781 12.851562 L 1.699219 12.929688 L 2.230469 14.332031 L 1.921875 15.480469 C 2.390625 15.246094 2.910156 15.125 3.4375 15.125 L 3.613281 14.472656 L 3.59375 14.054688 L 3.003906 12.484375 Z M 18.476562 14.449219 L 18.25 14.921875 L 17.84375 15.59375 L 17.355469 16.246094 L 16.824219 16.828125 L 16.242188 17.355469 L 16.160156 17.414062 L 16.984375 18.515625 L 17.089844 18.441406 L 17.136719 18.398438 L 17.773438 17.820312 L 17.820312 17.777344 L 18.394531 17.140625 L 18.4375 17.089844 L 18.953125 16.402344 L 18.992188 16.347656 L 19.441406 15.609375 L 19.472656 15.550781 L 19.714844 15.050781 Z M 15.082031 18.15625 L 14.921875 18.25 L 14.203125 18.601562 L 13.429688 18.882812 L 12.652344 19.082031 L 11.847656 19.207031 L 11.492188 19.226562 L 11.5625 20.601562 L 11.945312 20.578125 L 12.015625 20.574219 L 12.898438 20.4375 L 12.964844 20.421875 L 13.820312 20.199219 L 13.886719 20.183594 L 14.707031 19.878906 L 14.769531 19.855469 L 15.550781 19.476562 L 15.609375 19.445312 L 15.796875 19.328125 Z M 7.527344 18.390625 L 6.875 18.566406 C 6.875 19.09375 6.75 19.613281 6.515625 20.085938 L 7.667969 19.777344 L 9.074219 20.304688 L 9.152344 20.328125 L 9.980469 20.527344 L 10.082031 20.546875 L 10.09375 20.546875 L 10.164062 19.796875 L 10.308594 19.195312 L 9.515625 19.003906 L 7.945312 18.410156 Z M 7.527344 18.390625 "/>
<path style=" stroke:none;fill-rule:nonzero;fill:rgb(25.882354%,52.156866%,95.686275%);fill-opacity:1;" d="M 5.5 18.5625 C 5.5 19.703125 4.578125 20.625 3.4375 20.625 C 2.296875 20.625 1.375 19.703125 1.375 18.5625 C 1.375 17.421875 2.296875 16.5 3.4375 16.5 C 4.578125 16.5 5.5 17.421875 5.5 18.5625 Z M 5.5 18.5625 "/>
</g>
</svg>
