
<svg xmlns="http://www.w3.org/2000/svg" xmlns:xlink="http://www.w3.org/1999/xlink" width="22px" height="22px" viewBox="0 0 22 22" version="1.1">
<g id="surface1">
<path style=" stroke:none;fill-rule:nonzero;fill:rgb(26.666668%,26.666668%,26.666668%);fill-opacity:1;" d="M 6.1875 1.375 C 3.53125 1.375 1.375 3.53125 1.375 6.1875 C 1.375 7.503906 1.917969 8.757812 2.867188 9.664062 C 2.792969 10.105469 2.753906 10.550781 2.75 11 C 2.75 15.554688 6.445312 19.25 11 19.25 C 11.445312 19.25 11.894531 19.210938 12.335938 19.136719 C 13.242188 20.085938 14.5 20.625 15.8125 20.625 C 18.46875 20.625 20.625 18.46875 20.625 15.8125 C 20.625 14.496094 20.082031 13.242188 19.132812 12.335938 C 19.207031 11.894531 19.246094 11.449219 19.25 11 C 19.25 6.445312 15.554688 2.75 11 2.75 C 10.554688 2.75 10.105469 2.789062 9.664062 2.863281 C 8.757812 1.914062 7.5 1.375 6.1875 1.375 Z M 11.175781 5.5 C 13.890625 5.5 15.289062 6.933594 15.289062 7.773438 C 15.289062 8.617188 14.882812 8.742188 14.21875 8.742188 C 12.921875 8.742188 13.453125 7.1875 11.03125 7.1875 C 10.226562 7.1875 9.226562 7.550781 9.226562 8.488281 C 9.226562 9.242188 10.113281 9.519531 11.679688 9.90625 C 14.042969 10.539062 15.8125 11.171875 15.8125 13.339844 C 15.8125 15.445312 14.097656 16.5 11.382812 16.5 C 8.671875 16.5 6.9375 14.875 6.9375 14.035156 C 6.9375 13.191406 7.257812 12.980469 7.921875 12.980469 C 9.21875 12.980469 9.046875 14.753906 11.46875 14.753906 C 12.273438 14.753906 13.460938 14.386719 13.460938 13.445312 C 13.460938 12.695312 13.398438 12.433594 11.679688 11.972656 C 9.84375 11.722656 6.875 11.125 6.875 8.832031 C 6.875 6.726562 8.464844 5.503906 11.175781 5.503906 Z M 11.175781 5.5 "/>
</g>
</svg>
