
<svg xmlns="http://www.w3.org/2000/svg" xmlns:xlink="http://www.w3.org/1999/xlink" width="22px" height="22px" viewBox="0 0 22 22" version="1.1">
<g id="surface1">
<path style=" stroke:none;fill-rule:nonzero;fill:rgb(26.666668%,26.666668%,26.666668%);fill-opacity:1;" d="M 4.125 1.375 C 1.375 1.375 1.375 4.125 1.375 4.125 L 1.375 17.875 C 1.375 20.625 4.125 20.625 4.125 20.625 L 17.875 20.625 C 17.875 20.625 20.625 20.625 20.625 17.875 L 20.625 4.125 C 20.625 1.375 17.875 1.375 17.875 1.375 Z M 2.660156 3.742188 C 2.660156 3.457031 2.773438 3.183594 2.976562 2.976562 C 3.183594 2.773438 3.457031 2.660156 3.742188 2.660156 L 18.257812 2.660156 C 18.542969 2.660156 18.816406 2.773438 19.023438 2.976562 C 19.226562 3.183594 19.339844 3.457031 19.339844 3.742188 L 19.339844 18.257812 C 19.339844 18.542969 19.226562 18.816406 19.023438 19.023438 C 18.816406 19.226562 18.542969 19.339844 18.257812 19.339844 L 3.742188 19.339844 C 3.457031 19.339844 3.183594 19.226562 2.976562 19.023438 C 2.773438 18.816406 2.660156 18.542969 2.660156 18.257812 Z M 4.328125 5.164062 L 4.328125 17.671875 L 17.671875 17.671875 L 17.671875 5.164062 Z M 4.328125 5.164062 "/>
</g>
</svg>
