
<svg xmlns="http://www.w3.org/2000/svg" xmlns:xlink="http://www.w3.org/1999/xlink" width="22px" height="22px" viewBox="0 0 22 22" version="1.1">
<g id="surface1">
<path style=" stroke:none;fill-rule:nonzero;fill:rgb(26.666668%,26.666668%,26.666668%);fill-opacity:1;" d="M 22 8.25 L 13.714844 8.25 L 16.8125 5.164062 C 15.3125 3.675781 13.238281 2.75 10.953125 2.75 C 6.734375 2.75 3.253906 5.890625 2.734375 9.949219 C 2.734375 9.949219 2.578125 11 1.378906 11 C 0.617188 11 0 10.382812 0 9.625 C 0 9.519531 0.015625 9.421875 0.0351562 9.324219 C 0.847656 4.042969 5.421875 0 10.953125 0 C 14.003906 0 16.765625 1.230469 18.765625 3.222656 L 22 0 Z M 0 13.75 L 8.285156 13.75 L 5.1875 16.835938 C 6.6875 18.328125 8.761719 19.25 11.046875 19.25 C 15.265625 19.25 18.746094 16.109375 19.265625 12.050781 C 19.265625 12.050781 19.421875 11 20.621094 11 C 21.382812 11 22 11.617188 22 12.375 C 22 12.480469 21.984375 12.578125 21.964844 12.675781 C 21.152344 17.957031 16.578125 22 11.046875 22 C 7.996094 22 5.234375 20.769531 3.234375 18.777344 L 0 22 Z M 0 13.75 "/>
</g>
</svg>
