
<svg xmlns="http://www.w3.org/2000/svg" xmlns:xlink="http://www.w3.org/1999/xlink" width="22px" height="22px" viewBox="0 0 22 22" version="1.1">
<g id="surface1">
<path style=" stroke:none;fill-rule:nonzero;fill:rgb(26.666668%,26.666668%,26.666668%);fill-opacity:1;" d="M 4.453125 1.375 C 4.003906 1.363281 3.570312 1.542969 3.25 1.867188 C 2.929688 2.191406 2.75 2.636719 2.75 3.101562 L 2.75 18.898438 C 2.75 19.515625 3.066406 20.085938 3.582031 20.394531 C 4.097656 20.703125 4.730469 20.703125 5.246094 20.394531 L 18.417969 12.496094 C 18.933594 12.1875 19.25 11.617188 19.25 11 C 19.25 10.382812 18.933594 9.8125 18.417969 9.503906 L 5.246094 1.609375 C 5.003906 1.464844 4.730469 1.382812 4.453125 1.375 Z M 6.875 7.394531 L 12.890625 11 L 6.875 14.605469 Z M 6.875 7.394531 "/>
</g>
</svg>
