
<svg xmlns="http://www.w3.org/2000/svg" xmlns:xlink="http://www.w3.org/1999/xlink" width="22px" height="22px" viewBox="0 0 22 22" version="1.1">
<g id="surface1">
<path style=" stroke:none;fill-rule:nonzero;fill:rgb(26.666668%,26.666668%,26.666668%);fill-opacity:1;" d="M 11 1.375 C 5.683594 1.375 1.375 5.683594 1.375 11 C 1.375 16.316406 5.683594 20.625 11 20.625 C 12.496094 20.621094 13.96875 20.269531 15.304688 19.597656 L 14.371094 18.664062 C 13.953125 18.261719 13.699219 17.644531 13.730469 17.082031 C 13.757812 16.523438 14.003906 16.058594 14.34375 15.71875 C 14.683594 15.378906 15.148438 15.132812 15.707031 15.101562 C 16.269531 15.074219 16.886719 15.328125 17.289062 15.746094 L 18 16.457031 L 19.457031 13.539062 C 19.671875 13.085938 20.050781 12.75 20.496094 12.554688 C 20.582031 12.039062 20.625 11.519531 20.625 11 C 20.625 5.683594 16.316406 1.375 11 1.375 Z M 8.25 6.875 L 8.25 9.625 L 13.75 9.625 L 13.75 6.875 L 17.875 11 L 13.75 15.125 L 13.75 12.375 L 8.25 12.375 L 8.25 15.125 L 4.125 11 Z M 21.28125 13.742188 C 21.03125 13.753906 20.804688 13.90625 20.699219 14.132812 L 18.375 18.777344 L 16.300781 16.699219 C 16.03125 16.433594 15.59375 16.433594 15.324219 16.699219 C 15.058594 16.96875 15.058594 17.40625 15.324219 17.675781 L 18.074219 20.425781 C 18.230469 20.582031 18.453125 20.652344 18.671875 20.617188 C 18.890625 20.582031 19.078125 20.441406 19.175781 20.242188 L 21.925781 14.742188 C 22.039062 14.523438 22.027344 14.261719 21.894531 14.054688 C 21.761719 13.847656 21.527344 13.730469 21.28125 13.742188 Z M 21.28125 13.742188 "/>
</g>
</svg>
