<svg xmlns="http://www.w3.org/2000/svg" viewBox="-3 -3 22 22">
 <defs>
  <style id="current-color-scheme" type="text/css">
   .ColorScheme-Text { color:#444444; } .ColorScheme-Highlight { color:#4285f4; } .ColorScheme-NeutralText { color:#ff9800; } .ColorScheme-PositiveText { color:#4caf50; } .ColorScheme-NegativeText { color:#f44336; }
  </style>
 </defs>
 <path fill="#444444" d="m8.545.001c-.349-.009-.694.077-.996.245l-5.598 3.104c-.166.092-.313.207-.439.339l6.988 3.777 6.99-3.777c-.127-.132-.274-.247-.441-.339l-5.598-3.106c-.276-.153-.588-.236-.906-.243zm-7.504 4.577c-.024.115-.041.232-.041.353v6.209c0 .111.015.221.035.328.006.032.012.063.02.094.025.104.06.205.103.302.009.019.018.037.028.055.045.094.098.182.16.267.009.014.018.028.027.041.067.088.145.168.229.244.021.018.043.037.066.054.088.073.181.142.283.199l5.598 3.103c.089.05.182.091.277.126.029.009.057.018.086.025.029.01.059.014.088.022v-7.663zm14.91.004-6.951 3.755v7.659c.157-.037.309-.094.451-.169l5.598-3.103c.588-.327.951-.931.951-1.584v-6.207c-.004-.118-.021-.236-.049-.351zm-2.951 7.373v.79l-3 1.666v-.75z"/>
</svg>
