
<svg xmlns="http://www.w3.org/2000/svg" xmlns:xlink="http://www.w3.org/1999/xlink" width="22px" height="22px" viewBox="0 0 22 22" version="1.1">
<g id="surface1">
<path style=" stroke:none;fill-rule:nonzero;fill:rgb(26.666668%,26.666668%,26.666668%);fill-opacity:1;" d="M 16.449219 6.875 C 16.808594 6.859375 17.152344 7.011719 17.332031 7.269531 L 18.226562 8.546875 L 19.121094 9.816406 C 19.207031 9.9375 19.25 10.070312 19.25 10.210938 C 19.25 10.644531 18.816406 11 18.289062 11 L 17.871094 11 C 17.871094 12.757812 17.203125 14.519531 15.859375 15.859375 C 14.519531 17.203125 12.761719 17.875 11 17.875 C 9.425781 17.875 7.855469 17.335938 6.578125 16.261719 C 6.910156 16.105469 7.214844 15.867188 7.457031 15.523438 L 7.457031 15.519531 L 8.398438 14.175781 C 10.019531 15.5 12.402344 15.429688 13.917969 13.917969 C 14.722656 13.109375 15.121094 12.054688 15.121094 11 L 14.710938 11 C 14.183594 11 13.75 10.644531 13.75 10.210938 C 13.75 10.070312 13.792969 9.9375 13.878906 9.816406 L 14.773438 8.546875 L 15.667969 7.269531 C 15.828125 7.039062 16.125 6.890625 16.449219 6.875 Z M 11 4.125 C 12.574219 4.125 14.148438 4.667969 15.421875 5.742188 C 15.085938 5.902344 14.78125 6.140625 14.542969 6.480469 L 13.601562 7.824219 C 11.980469 6.5 9.597656 6.570312 8.082031 8.082031 C 7.277344 8.890625 6.878906 9.945312 6.878906 11 L 7.289062 11 C 7.816406 11 8.25 11.355469 8.25 11.789062 C 8.25 11.929688 8.207031 12.0625 8.121094 12.183594 L 7.226562 13.453125 L 6.332031 14.730469 C 6.160156 14.972656 5.84375 15.125 5.5 15.125 C 5.15625 15.125 4.839844 14.972656 4.667969 14.730469 L 3.773438 13.453125 L 2.878906 12.183594 C 2.792969 12.0625 2.75 11.929688 2.75 11.789062 C 2.75 11.355469 3.183594 11 3.710938 11 L 4.128906 11 C 4.128906 9.242188 4.796875 7.480469 6.140625 6.140625 C 7.480469 4.796875 9.238281 4.125 11 4.125 Z M 11 4.125 "/>
<path style=" stroke:none;fill-rule:nonzero;fill:rgb(29.803923%,68.627453%,31.37255%);fill-opacity:1;" d="M 22 19.9375 C 22 21.078125 21.078125 22 19.9375 22 C 18.796875 22 17.875 21.078125 17.875 19.9375 C 17.875 18.796875 18.796875 17.875 19.9375 17.875 C 21.078125 17.875 22 18.796875 22 19.9375 Z M 22 19.9375 "/>
</g>
</svg>
