
<svg xmlns="http://www.w3.org/2000/svg" xmlns:xlink="http://www.w3.org/1999/xlink" width="22px" height="22px" viewBox="0 0 22 22" version="1.1">
<defs>
<filter id="alpha" filterUnits="objectBoundingBox" x="0%" y="0%" width="100%" height="100%">
  <feColorMatrix type="matrix" in="SourceGraphic" values="0 0 0 0 1 0 0 0 0 1 0 0 0 0 1 0 0 0 1 0"/>
</filter>
<mask id="mask0">
  <g filter="url(#alpha)">
<rect x="0" y="0" width="22" height="22" style="fill:rgb(0%,0%,0%);fill-opacity:0.3;stroke:none;"/>
  </g>
</mask>
<clipPath id="clip1">
  <rect x="0" y="0" width="22" height="22"/>
</clipPath>
<g id="surface5" clip-path="url(#clip1)">
<path style=" stroke:none;fill-rule:nonzero;fill:rgb(26.666668%,26.666668%,26.666668%);fill-opacity:1;" d="M 4.125 2.75 C 4.125 2.75 1.375 2.75 1.375 5.5 L 1.375 13.75 C 1.375 16.5 4.125 16.5 4.125 16.5 L 11 16.5 L 13.75 20.625 L 16.5 16.5 L 17.875 16.5 C 19.402344 16.5 20.625 15.277344 20.625 13.75 L 20.625 5.5 C 20.625 2.75 17.917969 2.75 17.917969 2.75 Z M 9.625 4.125 L 12.375 4.125 L 12.375 11 L 5.5 11 L 5.5 8.25 L 9.625 8.25 Z M 9.625 4.125 "/>
</g>
</defs>
<g id="surface1">
<use xlink:href="#surface5" mask="url(#mask0)"/>
</g>
</svg>
