
<svg xmlns="http://www.w3.org/2000/svg" xmlns:xlink="http://www.w3.org/1999/xlink" width="22px" height="22px" viewBox="0 0 22 22" version="1.1">
<defs>
<filter id="alpha" filterUnits="objectBoundingBox" x="0%" y="0%" width="100%" height="100%">
  <feColorMatrix type="matrix" in="SourceGraphic" values="0 0 0 0 1 0 0 0 0 1 0 0 0 0 1 0 0 0 1 0"/>
</filter>
<mask id="mask0">
  <g filter="url(#alpha)">
<rect x="0" y="0" width="22" height="22" style="fill:rgb(0%,0%,0%);fill-opacity:0.3;stroke:none;"/>
  </g>
</mask>
<clipPath id="clip1">
  <rect x="0" y="0" width="22" height="22"/>
</clipPath>
<g id="surface5" clip-path="url(#clip1)">
<path style=" stroke:none;fill-rule:nonzero;fill:rgb(26.666668%,26.666668%,26.666668%);fill-opacity:1;" d="M 5.058594 3.785156 C 6.179688 1.929688 8.210938 0.6875 10.539062 0.6875 C 13.535156 0.6875 16.054688 2.753906 16.746094 5.542969 C 17.0625 5.460938 17.394531 5.425781 17.734375 5.425781 C 20.089844 5.425781 22 7.335938 22 9.6875 C 22 11.859375 20.371094 13.660156 18.265625 13.917969 C 18.09375 13.941406 17.917969 13.949219 17.734375 13.949219 C 17.554688 13.949219 17.378906 13.941406 17.207031 13.917969 L 5.066406 13.917969 C 2.269531 13.917969 0 11.648438 0 8.851562 C 0 6.058594 2.265625 3.789062 5.058594 3.785156 Z M 5.058594 3.785156 "/>
</g>
</defs>
<g id="surface1">
<use xlink:href="#surface5" mask="url(#mask0)"/>
<path style=" stroke:none;fill-rule:nonzero;fill:rgb(25.882354%,52.156866%,95.686275%);fill-opacity:1;" d="M 11 17.722656 C 11.871094 17.722656 12.574219 18.429688 12.574219 19.296875 C 12.574219 20.167969 11.871094 20.875 11 20.875 C 10.128906 20.875 9.425781 20.167969 9.425781 19.296875 C 9.425781 18.429688 10.128906 17.722656 11 17.722656 Z M 9.625 8.25 L 9.625 13.75 L 9.96875 16.5 L 12.03125 16.5 L 12.375 13.75 L 12.375 8.25 Z M 9.625 8.25 "/>
</g>
</svg>
