
<svg xmlns="http://www.w3.org/2000/svg" xmlns:xlink="http://www.w3.org/1999/xlink" width="22px" height="22px" viewBox="0 0 22 22" version="1.1">
<defs>
<filter id="alpha" filterUnits="objectBoundingBox" x="0%" y="0%" width="100%" height="100%">
  <feColorMatrix type="matrix" in="SourceGraphic" values="0 0 0 0 1 0 0 0 0 1 0 0 0 0 1 0 0 0 1 0"/>
</filter>
<mask id="mask0">
  <g filter="url(#alpha)">
<rect x="0" y="0" width="22" height="22" style="fill:rgb(0%,0%,0%);fill-opacity:0.3;stroke:none;"/>
  </g>
</mask>
<clipPath id="clip1">
  <rect x="0" y="0" width="22" height="22"/>
</clipPath>
<g id="surface5" clip-path="url(#clip1)">
<path style=" stroke:none;fill-rule:nonzero;fill:rgb(26.666668%,26.666668%,26.666668%);fill-opacity:1;" d="M 9.625 1.375 C 13.042969 1.378906 16.125 3.332031 17.332031 6.261719 C 16.238281 5.777344 15.023438 5.5 13.75 5.5 C 13.710938 5.5 13.667969 5.5 13.628906 5.503906 C 9.214844 5.566406 5.5 8.859375 5.5 13.0625 C 5.5 14.011719 5.699219 14.910156 6.042969 15.742188 C 5.996094 15.722656 5.949219 15.707031 5.90625 15.6875 L 4.125 19.25 L 4.125 14.5625 C 2.378906 13.128906 1.378906 11.082031 1.375 8.9375 C 1.375 4.789062 5.097656 1.375 9.625 1.375 Z M 5.5 5.5 C 6.253906 5.5 6.875 6.121094 6.875 6.875 C 6.875 7.628906 6.253906 8.25 5.5 8.25 C 4.746094 8.25 4.125 7.628906 4.125 6.875 C 4.125 6.121094 4.746094 5.5 5.5 5.5 Z M 5.5 5.5 "/>
</g>
</defs>
<g id="surface1">
<path style=" stroke:none;fill-rule:nonzero;fill:rgb(26.666668%,26.666668%,26.666668%);fill-opacity:1;" d="M 13.75 6.875 C 9.976562 6.875 6.875 9.667969 6.875 13.0625 C 6.875 16.457031 9.976562 19.25 13.75 19.25 C 15.128906 19.25 16.476562 18.875 17.613281 18.171875 L 19.25 20.625 L 19.25 16.761719 C 20.140625 15.695312 20.621094 14.398438 20.625 13.0625 C 20.625 9.667969 17.523438 6.875 13.75 6.875 Z M 11 9.625 C 11.753906 9.625 12.375 10.246094 12.375 11 C 12.375 11.753906 11.753906 12.375 11 12.375 C 10.246094 12.375 9.625 11.753906 9.625 11 C 9.625 10.246094 10.246094 9.625 11 9.625 Z M 16.5 9.625 C 17.253906 9.625 17.875 10.246094 17.875 11 C 17.875 11.753906 17.253906 12.375 16.5 12.375 C 15.746094 12.375 15.125 11.753906 15.125 11 C 15.125 10.246094 15.746094 9.625 16.5 9.625 Z M 16.5 9.625 "/>
<use xlink:href="#surface5" mask="url(#mask0)"/>
</g>
</svg>
