
<svg xmlns="http://www.w3.org/2000/svg" xmlns:xlink="http://www.w3.org/1999/xlink" width="22px" height="22px" viewBox="0 0 22 22" version="1.1">
<g id="surface1">
<path style=" stroke:none;fill-rule:nonzero;fill:rgb(26.666668%,26.666668%,26.666668%);fill-opacity:1;" d="M 8.667969 1.375 C 8.351562 1.382812 8.101562 1.476562 8.011719 1.476562 C 5.980469 1.757812 7.277344 3.890625 8.140625 6.527344 C 8.210938 7.203125 6.128906 6.921875 5.664062 6.214844 C 4.105469 2.4375 3.6875 2.859375 3.253906 2.75 C 2.835938 2.664062 1.390625 3.394531 1.421875 4.921875 C 1.429688 5.359375 1.707031 7.839844 1.710938 8.480469 C -0.121094 11.589844 -0.863281 13.289062 1.429688 16.46875 C 3.070312 18.621094 7.019531 19.292969 9.609375 19.246094 C 15.125 19.25 16.429688 16.253906 19.589844 13.808594 C 22 11.835938 19.527344 10.726562 18.945312 10.378906 C 13.945312 7.148438 11.117188 7.820312 11.050781 7.308594 C 11.015625 6.714844 11.035156 5.066406 10.949219 4.484375 C 10.613281 1.757812 9.367188 1.359375 8.667969 1.375 Z M 17.738281 1.375 C 16.714844 1.535156 16.210938 7.332031 16.667969 8.210938 C 18.238281 7.222656 17.9375 2.84375 17.738281 1.375 Z M 21.777344 2.722656 C 18.535156 6.984375 19.304688 6.1875 18.492188 9.605469 C 18.800781 10.03125 22.996094 3.226562 21.777344 2.722656 Z M 11 9.625 C 11.757812 9.625 12.375 10.242188 12.375 11 C 12.375 11.761719 11.757812 12.375 11 12.375 C 10.238281 12.375 9.625 11.761719 9.625 11 C 9.625 10.242188 10.238281 9.625 11 9.625 Z M 11 9.625 "/>
</g>
</svg>
