
<svg xmlns="http://www.w3.org/2000/svg" xmlns:xlink="http://www.w3.org/1999/xlink" width="22px" height="22px" viewBox="0 0 22 22" version="1.1">
<g id="surface1">
<path style=" stroke:none;fill-rule:nonzero;fill:rgb(26.666668%,26.666668%,26.666668%);fill-opacity:1;" d="M 11 1.375 C 5.683594 1.375 1.375 5.683594 1.375 11 C 1.375 16.316406 5.683594 20.625 11 20.625 C 12.429688 20.621094 13.835938 20.296875 15.125 19.683594 L 15.125 15.191406 C 15.125 14.804688 15.269531 14.433594 15.519531 14.160156 C 15.773438 13.890625 16.117188 13.742188 16.46875 13.75 C 16.691406 13.757812 16.90625 13.824219 17.097656 13.945312 L 19.21875 15.285156 L 19.515625 15.472656 C 20.242188 14.09375 20.625 12.558594 20.625 11 C 20.625 5.683594 16.316406 1.375 11 1.375 Z M 8.25 6.875 L 15.125 11 L 8.25 15.125 Z M 16.5 15.125 L 16.5 20.625 L 20.625 17.875 Z M 16.5 15.125 "/>
</g>
</svg>
