<svg clip-rule="evenodd" fill-rule="evenodd" stroke-linejoin="round" stroke-miterlimit="2" viewBox="0 0 16 16" xmlns="http://www.w3.org/2000/svg">
 <g fill="#444444">
  <path transform="matrix(.866339 -.779598 .779598 .866339 -6.06822 7.75326)" d="m9.921 1.315c-.056-.334-.345-.579-.683-.579-.361-.002-.825-.002-1.186-.002-.339 0-.629.245-.685.579-.111.623-.264 1.603-.24 2.202.05 1.218.787 3.294.84 4.525.024.565-.049 1.464-.113 2.103-.017.194.049.386.18.529.131.144.317.225.511.225.067.001.134.001.2.001.195 0 .38-.082.512-.225.131-.144.197-.336.18-.53-.065-.639-.137-1.538-.113-2.103.053-1.228.789-3.29.838-4.507.025-.604-.129-1.592-.241-2.218z"/>
  <path transform="matrix(.635045 -.977259 .977259 .635045 -4.90771 11.8283)" d="m8.907 11.057c-.261-.795-1.535-.96-2.197-.333-.677.641-.431 1.626-.272 2.215.199.738 1.592 2.545 1.592 2.545s-.448-1.563.226-2.366c.584-.697.855-1.441.651-2.061z"/>
 </g>
</svg>
