<svg style="clip-rule:evenodd;fill-rule:evenodd;stroke-linejoin:round;stroke-miterlimit:2" viewBox="0 0 16 16" xmlns="http://www.w3.org/2000/svg">
 <g transform="matrix(.0398137 7.36018e-10 -7.36018e-10 .0398137 -5.13836 -1.35644)">
  <path d="m289.66 59.226c-15.2 0.56-32.249 5.653-41.344 16.562-13.229 28.188 18.908 15.173 22.688 34.688s-18.906 20.594-18.906 20.594h-97.75l0.125 96.938s1.079 22.686 20.594 18.906c15.856-3.071 10.233-24.878 22.688-25.844 2.874-0.223 6.715 0.676 12 3.156 10.909 9.095 16.003 26.144 16.562 41.344 0.207 5.611-0.283 10.888-1.25 15.5-0.025 0.205-0.067 0.42-0.094 0.625-1.694 13.114-6.762 26.418-15.969 34.094-28.188 13.229-15.173-18.908-34.688-22.688-14.218-2.754-18.61 8.479-19.969 14.812v102.91l98.094-0.781s22.686-1.079 18.906-20.594-35.886-6.5-22.656-34.688c9.095-10.909 26.113-16.003 41.312-16.562 5.611-0.207 10.888 0.283 15.5 1.25 0.205 0.025 0.42 0.067 0.625 0.094 13.114 1.694 26.449 6.762 34.125 15.969 13.229 28.188-18.908 15.173-22.688 34.688s18.906 20.594 18.906 20.594l97.188 0.031v-102.09c1.387-6.352 5.803-17.456 19.938-14.719 19.515 3.78 6.5 35.917 34.688 22.688 9.207-7.676 14.275-21.011 15.969-34.125 0.027-0.205 0.069-0.389 0.094-0.594 0.967-4.612 1.457-9.889 1.25-15.5-0.56-15.199-5.653-32.249-16.562-41.344-28.188-13.229-15.173 18.908-34.688 22.688s-20.594-18.906-20.594-18.906l-0.094-97.844h-102.16c-6.405-1.482-16.964-5.992-14.281-19.844 3.78-19.515 35.886-6.5 22.656-34.688-7.676-9.207-20.979-14.275-34.094-15.969-0.205-0.026-0.42-0.069-0.625-0.094-4.612-0.966-9.889-1.456-15.5-1.25l4e-3 -7e-3z" fill="#dfdfdf"/>
 </g>
</svg>
