<svg style="clip-rule:evenodd;fill-rule:evenodd;stroke-linejoin:round;stroke-miterlimit:2" viewBox="0 0 16 16" xmlns="http://www.w3.org/2000/svg">
 <path d="M6.308,14L2.843,14C1.826,14 1,13.174 1,12.157L1,3.843C1,2.826 1.826,2 2.843,2L14.157,2C15.174,2 16,2.826 16,3.843L16,12.157C16,13.174 15.174,14 14.157,14L11.643,14L11.643,13L14.157,13C14.622,13 15,12.622 15,12.157L15,3.843C15,3.378 14.622,3 14.157,3L2.843,3C2.378,3 2,3.378 2,3.843L2,12.157C2,12.622 2.378,13 2.843,13L6.308,13L6.308,14Z" fill="#dfdfdf"/>
 <path d="m7 11v5l2-2 2 2v-5" fill="#dfdfdf"/>
 <path d="m9 6c-1.646 0-3 1.354-3 3s1.354 3 3 3 3-1.354 3-3-1.354-3-3-3zm0 1c1.097 0 2 0.903 2 2s-0.903 2-2 2-2-0.903-2-2 0.903-2 2-2z" fill="#dfdfdf"/>
</svg>
