<svg clip-rule="evenodd" fill-rule="evenodd" stroke-linejoin="round" stroke-miterlimit="2" viewBox="0 0 16 16" xmlns="http://www.w3.org/2000/svg">
 <path d="m2 0c-1.097 0-2 .903-2 2 0 .714.382 1.376 1 1.732v8.536c-.618.356-1 1.018-1 1.732 0 1.097.903 2 2 2 .714 0 1.376-.382 1.732-1h8.536c.356.618 1.018 1 1.732 1 1.097 0 2-.903 2-2-.001-.712-.383-1.372-1-1.729v-8.539c.618-.356 1-1.018 1-1.732 0-1.097-.903-2-2-2-.714 0-1.376.382-1.732 1h-8.539c-.357-.617-1.017-.999-1.729-1zm.935 2.066h10.13c.014.018.027.036.042.053l-1.931 2.043c-.21-.106-.441-.162-.676-.162-.631.004-1.194.406-1.404 1h-2.186c-.214-.599-.78-1-1.41-1-.223 0-.443.051-.645.148l-1.934-2.066c.005-.005.014-.016.014-.016zm-.853.855 2.066 1.934v.002c-.097.206-.148.431-.148.659.005.636.406 1.205 1 1.418v2.162c-.594.21-.996.774-1 1.404 0 .224.05.445.146.647l-2.064 1.932c-.005-.003-.011-.006-.016-.009v-10.135c.005-.004.016-.014.016-.014zm11.852.049v10.095c-.005.004-.011.009-.016.014l-2.064-1.933c.096-.201.146-.422.146-.646-.001-.633-.403-1.201-1-1.412v-2.184c.594-.21.996-.773 1-1.404 0-.212-.046-.422-.133-.615zm-7.022 3.03h2.184c.151.421.483.753.904.904v2.192c-.421.151-.753.483-.904.904h-2.184c-.151-.426-.486-.761-.912-.912v-2.154c.428-.156.764-.499.912-.934zm-.008 5h2.192c.21.594.773.996 1.404 1 .224 0 .445-.05.646-.146l1.933 2.064c-.005.005-.01.011-.014.016h-10.135c-.003-.005-.006-.011-.009-.016l1.933-2.064c.201.096.422.146.646.146.631-.004 1.194-.406 1.404-1z" fill="#dfdfdf" fill-rule="nonzero"/>
</svg>
