<svg style="clip-rule:evenodd;fill-rule:evenodd;stroke-linejoin:round;stroke-miterlimit:2" version="1.1" viewBox="0 0 16 16" xmlns="http://www.w3.org/2000/svg">
 <g transform="matrix(.443109 0 0 .443109 .0240437 .292693)">
  <path d="m19.12 4.829c1.606 0 3.146 0.637 4.281 1.773 1.136 1.135 1.774 2.676 1.774 4.281v14.155h-18.562c-1.606 0-3.146-0.638-4.282-1.773-1.135-1.136-1.773-2.676-1.773-4.282v-14.154h18.562zm16.322 2.711c0-0.22-0.118-0.421-0.306-0.526-0.189-0.103-0.418-0.093-0.597 0.028-2.021 1.374-6.855 4.654-8.348 5.668-0.279 0.189-0.446 0.511-0.442 0.854 7e-3 0.793 0.019 2.249 0.027 3.042 3e-3 0.344 0.176 0.663 0.46 0.847 1.498 0.974 6.307 4.097 8.314 5.4 0.178 0.116 0.405 0.123 0.591 0.019 0.185-0.106 0.301-0.306 0.301-0.524v-14.808zm-17.004 0.782h-14.419v9.829c0 1.99 1.614 3.603 3.604 3.603h14.085v-10.161c0-1.806-1.464-3.271-3.27-3.271z" style="fill:rgb(68,68,68)"/>
 </g>
 <g transform="matrix(.443109 0 0 .443109 .0240437 .292693)">
  <path d="m18.438 8.322h-14.419v9.829c0 1.99 1.614 3.603 3.604 3.603h14.085v-10.161c0-1.806-1.464-3.271-3.27-3.271z" style="fill-opacity:.3;fill:rgb(68,68,68)"/>
 </g>
 <g transform="matrix(.443109 0 0 .443109 .0240437 .292693)">
  <path d="m12.273 25.96h5.287l4.148 6.929-2.643 1.583-2.567-4.286c-1.022-1.587-2.083-1.646-3.185 0.035l-2.545 4.251-2.643-1.583 4.148-6.929z" style="fill:rgb(68,68,68)"/>
 </g>
</svg>
