<svg style="clip-rule:evenodd;fill-rule:evenodd;stroke-linejoin:round;stroke-miterlimit:2" viewBox="0 0 16 16" xmlns="http://www.w3.org/2000/svg">
 <g transform="translate(.0104069 -.002)">
  <path d="m2 6.769v-3.298c0-1.365 1.108-2.473 2.473-2.473h7.044c1.365 0 2.473 1.108 2.473 2.473v9.058c0 1.365-1.108 2.473-2.473 2.473h-7.044c-1.365 0-2.473-1.108-2.473-2.473v-2.3h1v2.3c0 0.813 0.66 1.473 1.473 1.473h7.044c0.813 0 1.473-0.66 1.473-1.473v-9.058c0-0.813-0.66-1.473-1.473-1.473h-7.044c-0.813 0-1.473 0.66-1.473 1.473v3.298h-1z" fill="#444444"/>
 </g>
 <g transform="matrix(-1,0,0,1,16.0102,0)">
  <path d="m14 10.362h-1v-0.33c0-0.402-0.16-0.788-0.444-1.072-0.285-0.285-0.67-0.445-1.073-0.444h-3.856l2.892 2.972-1.005 0.399-3.775-3.89 3.775-3.888 1.005 0.399-2.892 2.973h3.744c1.452 0 2.629 1.177 2.629 2.629v0.252z" fill="#444444"/>
 </g>
</svg>
