<svg style="clip-rule:evenodd;fill-rule:evenodd;stroke-linejoin:round;stroke-miterlimit:2" viewBox="0 0 16 16" xmlns="http://www.w3.org/2000/svg">
 <path d="m2.476 2c-0.263 0-0.476 0.213-0.476 0.476v11.048c0 0.263 0.213 0.476 0.476 0.476h3.048c0.263 0 0.476-0.213 0.476-0.476v-11.048c0-0.263-0.213-0.476-0.476-0.476h-3.048z" fill="#444444"/>
 <path d="m10.476 2c-0.263 0-0.476 0.213-0.476 0.476v11.048c0 0.263 0.213 0.476 0.476 0.476h3.048c0.263 0 0.476-0.213 0.476-0.476v-11.048c0-0.263-0.213-0.476-0.476-0.476h-3.048z" fill="#444444"/>
</svg>
