<svg xmlns="http://www.w3.org/2000/svg" style="fill-rule:evenodd;clip-rule:evenodd;stroke-linejoin:round;stroke-miterlimit:2" width="100%" height="100%" viewBox="0 0 16 16" xml:space="preserve">
 <defs>
  <style id="current-color-scheme" type="text/css">
   .ColorScheme-Text { color:#444444; } .ColorScheme-Highlight { color:#4285f4; } .ColorScheme-NeutralText { color:#ff9800; } .ColorScheme-PositiveText { color:#4caf50; } .ColorScheme-NegativeText { color:#f44336; }
  </style>
 </defs>
 <path style="fill:currentColor;fill-opacity:0.3;" class="ColorScheme-Text" d="M8,1c-3.314,0 -6,2.686 -6,6c0,2.087 1.071,3.925 2.688,5l-0.688,0c-2,0 -2,2 -2,2l-0,1l12,0l0,-1c0,0 0,-2 -2,-2l-0.688,0c1.617,-1.075 2.688,-2.913 2.688,-5c0,-3.314 -2.686,-6 -6,-6Zm0,1.001c2.744,0 5.002,2.259 5.002,5.003c0,2.744 -2.258,5.002 -5.002,5.002c-2.744,0 -5.002,-2.258 -5.002,-5.002c-0,-2.744 2.258,-5.003 5.002,-5.003Zm0,2.871c1.228,0 2.226,0.997 2.226,2.226c-0,1.228 -0.998,2.225 -2.226,2.225c-1.228,0 -2.226,-0.997 -2.226,-2.225c0,-1.229 0.998,-2.226 2.226,-2.226Z"/>
</svg>
