<svg xmlns="http://www.w3.org/2000/svg" style="fill-rule:evenodd;clip-rule:evenodd;stroke-linejoin:round;stroke-miterlimit:2" width="100%" height="100%" viewBox="0 0 16 16" xml:space="preserve">
 <defs>
  <style id="current-color-scheme" type="text/css">
   .ColorScheme-Text { color:#444444; } .ColorScheme-Highlight { color:#4285f4; } .ColorScheme-NeutralText { color:#ff9800; } .ColorScheme-PositiveText { color:#4caf50; } .ColorScheme-NegativeText { color:#f44336; }
  </style>
 </defs>
 <path style="fill:currentColor;fill-opacity:0.3" class="ColorScheme-Text" d="M6,1l0,14l4,0l0,-14l-4,0Zm-5,0l0,4l4,0l0,-4l-4,0Z"/>
 <path style="fill:currentColor;" class="ColorScheme-Text" d="M14.818,1.032l-3.636,0l0,13.968l3.636,0l-0,-13.968Zm-1,1l-1.636,0l0,11.968l1.636,0l-0,-11.968Z"/>
 <path style="fill:currentColor;" class="ColorScheme-Text" d="M4.818,6l-3.636,0l0,9l3.636,0l-0,-9Zm-1,1l-1.636,0l0,7l1.636,0l-0,-7Z"/>
</svg>
