<svg xmlns="http://www.w3.org/2000/svg" viewBox="0 0 16 16">
 <defs>
  <style id="current-color-scheme" type="text/css">
   .ColorScheme-Text { color:#444444; } .ColorScheme-Highlight { color:#4285f4; } .ColorScheme-NeutralText { color:#ff9800; } .ColorScheme-PositiveText { color:#4caf50; } .ColorScheme-NegativeText { color:#f44336; }
  </style>
 </defs>
 <path fill="#444444" d="m5.557 2.381c-.387 0-.758.154-1.032.428-.273.273-.427.644-.427 1.031v10.113c0 .806.653 1.459 1.459 1.459h7.321c.805 0 1.458-.653 1.458-1.459 0-2.674 0-8.087 0-8.087l-2.945-3.485zm-.528.931v11.169h8.377v-8.338l-2.404-.024v-2.807zm5.183-1.239h-1.644v-.554h-5.974v11.169h.964v.931h-.436c-.805 0-1.458-.653-1.458-1.459 0-2.507 0-7.606 0-10.113 0-.387.153-.758.427-1.032.273-.273.644-.427 1.031-.427h5.834zm-2.95 5.193v.666c0 .187.073.355.193.475l.867.859-.867.859c-.12.12-.193.288-.193.475v.666h.666c.186 0 .354-.073.474-.193l.86-.868.859.868c.12.12.288.193.475.193h.666v-.666c0-.187-.074-.355-.194-.475l-.867-.859.867-.859c.12-.12.194-.288.194-.475v-.666h-.666c-.187 0-.355.073-.475.193l-.859.867-.86-.867c-.12-.12-.288-.193-.474-.193z"/>
</svg>
