<svg xmlns="http://www.w3.org/2000/svg" style="fill-rule:evenodd;clip-rule:evenodd;stroke-linejoin:round;stroke-miterlimit:2" width="100%" height="100%" version="1.1" viewBox="0 0 16 16" xml:space="preserve">
 <defs>
  <style id="current-color-scheme" type="text/css">
   .ColorScheme-Text { color:#dfdfdf; } .ColorScheme-Highlight { color:#4285f4; } .ColorScheme-NeutralText { color:#ff9800; } .ColorScheme-PositiveText { color:#4caf50; } .ColorScheme-NegativeText { color:#f44336; }
  </style>
 </defs>
 <path style="fill:currentColor;fill-opacity:0.3" class="ColorScheme-NegativeText" d="M1.576,8.602l-0,3.441c-0,0.389 0.315,0.704 0.704,0.704l7.278,0l-0,-3.586c-0,-0.309 -0.25,-0.559 -0.558,-0.559l-7.424,0Z"/>
 <path style="fill:currentColor;" class="ColorScheme-NegativeText" d="M15.484,7.38l-0,6.507c-0,0.096 -0.051,0.184 -0.132,0.231c-0.082,0.045 -0.182,0.042 -0.26,-0.009c-0.882,-0.572 -2.995,-1.945 -3.654,-2.373c-0.124,-0.081 -0.2,-0.221 -0.202,-0.372c-0.003,-0.349 -0.008,-0.988 -0.012,-1.337c-0.001,-0.151 0.072,-0.292 0.194,-0.375c0.657,-0.446 2.781,-1.887 3.669,-2.491c0.079,-0.053 0.179,-0.058 0.262,-0.012c0.083,0.046 0.135,0.134 0.135,0.231Zm-6.484,0.343l-8.303,0l-0,4.32c-0,0.874 0.709,1.583 1.583,1.583l8.157,0l-0,-4.465c-0,-0.794 -0.644,-1.438 -1.437,-1.438Zm-7.424,0.879l-0,3.441c-0,0.389 0.315,0.704 0.704,0.704l7.278,0l-0,-3.586c-0,-0.309 -0.25,-0.559 -0.558,-0.559l-7.424,0Zm3.991,-5.701c0.521,-0.641 1.316,-1.051 2.206,-1.051c1.57,0 2.844,1.275 2.844,2.844c0,1.57 -1.274,2.844 -2.844,2.844c-0.89,0 -1.685,-0.409 -2.206,-1.05c-0.522,0.641 -1.317,1.05 -2.207,1.05c-1.569,0 -2.844,-1.274 -2.844,-2.844c0,-1.569 1.275,-2.844 2.844,-2.844c0.89,0 1.685,0.41 2.207,1.051Z"/>
</svg>
