<svg xmlns="http://www.w3.org/2000/svg" style="fill-rule:evenodd;clip-rule:evenodd;stroke-linejoin:round;stroke-miterlimit:2" width="100%" height="100%" viewBox="0 0 16 16" xml:space="preserve">
 <defs>
  <style id="current-color-scheme" type="text/css">
   .ColorScheme-Text { color:#444444; } .ColorScheme-Highlight { color:#4285f4; } .ColorScheme-NeutralText { color:#ff9800; } .ColorScheme-PositiveText { color:#4caf50; } .ColorScheme-NegativeText { color:#f44336; }
  </style>
 </defs>
 <path style="fill:currentColor;fill-opacity:0.3;" class="ColorScheme-Text" d="M9.002,3.442l-5.077,5.082c0.788,0.308 1.527,0.792 2.153,1.419c0.624,0.627 1.108,1.364 1.416,2.153l5.077,-5.083l-3.569,-3.571Z"/>
 <path style="fill:currentColor;" class="ColorScheme-Text" d="M1.895,8.963c-0.181,0.004 -0.362,0.018 -0.541,0.048c-0.203,0.032 -0.354,0.209 -0.354,0.415c0,0.113 0.045,0.22 0.125,0.299c1.079,2.353 2.794,4.068 5.144,5.15c0.079,0.08 0.186,0.125 0.299,0.125c0.206,-0 0.383,-0.152 0.415,-0.356c0.231,-1.428 -0.356,-2.981 -1.5,-4.129c-1.003,-1.003 -2.318,-1.579 -3.588,-1.552Zm10.131,3.356l-1.19,1.19l1.19,1.191l1.19,-1.191l-1.19,-1.19Zm-1.785,-1.786l-1.189,1.19l1.189,1.191l1.19,-1.191l-1.19,-1.19Zm3.57,-0l-1.191,1.19l1.191,1.191l1.189,-1.191l-1.189,-1.19Zm-1.786,-1.788l-1.19,1.193l1.19,1.19l1.19,-1.19l-1.19,-1.193Zm-7.732,-4.173l-1.189,1.19l1.189,1.191l1.19,-1.191l-1.19,-1.19Zm7.102,-0.851l-0.695,0.696l0.892,0.893l0.695,-0.696c-0.381,-0.2 -0.691,-0.511 -0.892,-0.893Zm-5.317,-0.935l-1.19,1.191l1.19,1.19l1.189,-1.19l-1.189,-1.191Zm-3.569,-0l-1.191,1.191l1.191,1.19l1.19,-1.19l-1.19,-1.191Zm10.982,-2.022l-0.001,-0c-0.961,-0 -1.752,0.792 -1.752,1.753c-0,0.962 0.791,1.754 1.752,1.754l0.001,-0c0.961,-0 1.752,-0.792 1.752,-1.754c-0,-0.961 -0.791,-1.753 -1.752,-1.753Zm-9.198,0.236l-1.189,1.191l1.189,1.19l1.19,-1.19l-1.19,-1.191Z"/>
</svg>
