<svg xmlns="http://www.w3.org/2000/svg" style="fill-rule:evenodd;clip-rule:evenodd;stroke-linejoin:round;stroke-miterlimit:2" width="100%" height="100%" viewBox="0 0 16 16" xml:space="preserve">
 <defs>
  <style id="current-color-scheme" type="text/css">
   .ColorScheme-Text { color:#444444; } .ColorScheme-Highlight { color:#4285f4; } .ColorScheme-NeutralText { color:#ff9800; } .ColorScheme-PositiveText { color:#4caf50; } .ColorScheme-NegativeText { color:#f44336; }
  </style>
 </defs>
 <path style="fill:currentColor;" class="ColorScheme-Text" d="M3,8.993l0,-1.993c0,-5 5,-5 5,-5c0,0 5,0 5,5l0,1.993l-2,0l0,-1.993c0,-3 -3,-3 -3,-3c0,0 -3,0 -3,3l0,1.993l-2,0Z"/>
 <path style="fill:currentColor;fill-opacity:0.3" class="ColorScheme-Text" d="M5,8.993l0,5.007l-2,0l0,-5.007l2,0Zm8,0l0,5.007l-2,0l0,-5.007l2,0Z"/>
</svg>
