<svg xmlns="http://www.w3.org/2000/svg" style="fill-rule:evenodd;clip-rule:evenodd;stroke-linejoin:round;stroke-miterlimit:2" width="100%" height="100%" viewBox="0 0 16 16" xml:space="preserve">
 <defs>
  <style id="current-color-scheme" type="text/css">
   .ColorScheme-Text { color:#444444; } .ColorScheme-Highlight { color:#4285f4; } .ColorScheme-NeutralText { color:#ff9800; } .ColorScheme-PositiveText { color:#4caf50; } .ColorScheme-NegativeText { color:#f44336; }
  </style>
 </defs>
 <path style="fill:currentColor;" class="ColorScheme-Text" d="M6,9.5l4,-0l0,1l-4,-0l0,-1Zm0,-2l4,-0l0,1l-4,-0l0,-1Zm0,-2l4,-0l0,1l-4,-0l0,-1Z"/>
 <path style="fill:currentColor;fill-opacity:0.3" class="ColorScheme-Text" d="M8.98,0.545c-0.65,-0.085 -1.31,-0.085 -1.96,-0l-0.299,1.822c-0.494,0.111 -0.972,0.284 -1.42,0.516l-1.401,-1.203c-0.552,0.354 -1.058,0.777 -1.502,1.26l0.942,1.589c-0.307,0.401 -0.561,0.842 -0.755,1.308l-1.847,-0.021c-0.196,0.626 -0.311,1.275 -0.34,1.93l1.742,0.611c0.024,0.506 0.112,1.006 0.262,1.488l-1.428,1.171c0.252,0.606 0.582,1.177 0.98,1.697l1.728,-0.651c0.343,0.373 0.731,0.699 1.158,0.972l-0.342,1.814c0.583,0.302 1.201,0.528 1.842,0.671l0.905,-1.611c0.501,0.065 1.009,0.065 1.51,0l0.905,1.611c0.641,-0.143 1.259,-0.369 1.842,-0.671l-0.342,-1.814c0.427,-0.273 0.815,-0.599 1.158,-0.972l1.728,0.651c0.398,-0.52 0.728,-1.091 0.98,-1.697l-1.428,-1.171c0.15,-0.482 0.238,-0.982 0.262,-1.488l1.742,-0.611c-0.029,-0.655 -0.144,-1.304 -0.34,-1.93l-1.847,0.021c-0.194,-0.466 -0.448,-0.907 -0.755,-1.308l0.942,-1.589c-0.444,-0.483 -0.95,-0.906 -1.502,-1.26l-1.401,1.203c-0.448,-0.232 -0.926,-0.405 -1.42,-0.516l-0.299,-1.822Zm-0.98,2.586c2.737,0 4.96,2.223 4.96,4.96c0,2.738 -2.223,4.961 -4.96,4.961c-2.737,-0 -4.96,-2.223 -4.96,-4.961c-0,-2.737 2.223,-4.96 4.96,-4.96Z"/>
</svg>
