<svg xmlns="http://www.w3.org/2000/svg" style="fill-rule:evenodd;clip-rule:evenodd;stroke-linejoin:round;stroke-miterlimit:2" width="100%" height="100%" viewBox="0 0 16 16" xml:space="preserve">
 <defs>
  <style id="current-color-scheme" type="text/css">
   .ColorScheme-Text { color:#444444; } .ColorScheme-Highlight { color:#4285f4; } .ColorScheme-NeutralText { color:#ff9800; } .ColorScheme-PositiveText { color:#4caf50; } .ColorScheme-NegativeText { color:#f44336; }
  </style>
 </defs>
 <path style="fill:currentColor;" class="ColorScheme-Text" d="M4,1c0,0 -2,0 -2,2l0,5l7,7l7,-7l-7,-7l-5,0Zm4,2c-2.194,0 -4,1.806 -4,4c0,2.194 1.806,4 4,4c2.194,0 4,-1.806 4,-4c0,-2.194 -1.806,-4 -4,-4Z"/>
 <path style="fill:currentColor;fill-opacity:0.3" class="ColorScheme-Text" d="M8,3.364c-1.995,-0 -3.636,1.641 -3.636,3.636c-0,1.995 1.641,3.636 3.636,3.636c1.995,0 3.636,-1.641 3.636,-3.636c0,-1.995 -1.641,-3.636 -3.636,-3.636Zm-0.839,0.659l0.465,0l0.374,2.977l1.702,0.328l-0,0.556l-2.914,0.328l0.373,-4.189Z"/>
</svg>
