<svg xmlns="http://www.w3.org/2000/svg" style="fill-rule:evenodd;clip-rule:evenodd;stroke-linejoin:round;stroke-miterlimit:2" width="100%" height="100%" viewBox="0 0 16 16" xml:space="preserve">
 <defs>
  <style id="current-color-scheme" type="text/css">
   .ColorScheme-Text { color:#444444; } .ColorScheme-Highlight { color:#4285f4; } .ColorScheme-NeutralText { color:#ff9800; } .ColorScheme-PositiveText { color:#4caf50; } .ColorScheme-NegativeText { color:#f44336; }
  </style>
 </defs>
 <path style="fill:currentColor;" class="ColorScheme-Text" d="M2.946,4.129l-0,-1.129c-0,-1.108 0.892,-2 2,-2l7,-0c1.108,-0 2,0.892 2,2l-0,10c-0,1.108 -0.892,2 -2,2l-7,0c-1.108,0 -2,-0.892 -2,-2l-0,-1.129l-0.892,0l0,-0.99l0.892,0l-0,-5.762l-0.892,-0l0,-0.99l0.892,-0Zm2,-2.129l7,0c0.554,0 1,0.446 1,1l-0,10c-0,0.554 -0.446,1 -1,1l-7,0c-0.554,0 -1,-0.446 -1,-1l-0,-10c-0,-0.554 0.446,-1 1,-1Z"/>
 <path style="fill:currentColor;fill-opacity:0.3" class="ColorScheme-Text" d="M8.446,5.963c0.39,-0.262 0.859,-0.414 1.363,-0.414c1.353,-0 2.452,1.098 2.452,2.451c-0,1.353 -1.099,2.451 -2.452,2.451c-0.504,0 -0.973,-0.152 -1.363,-0.414c-0.39,0.262 -0.859,0.414 -1.364,0.414c-1.353,0 -2.451,-1.098 -2.451,-2.451c-0,-1.353 1.098,-2.451 2.451,-2.451c0.505,-0 0.974,0.152 1.364,0.414Zm-0.594,0.562c-0.23,-0.121 -0.492,-0.189 -0.77,-0.189c-0.918,-0 -1.664,0.746 -1.664,1.664c-0,0.918 0.746,1.664 1.664,1.664c0.278,0 0.54,-0.068 0.77,-0.189c-0.31,-0.41 -0.494,-0.921 -0.494,-1.475c-0,-0.554 0.184,-1.065 0.494,-1.475Zm1.187,2.95c0.231,0.121 0.493,0.189 0.77,0.189c0.919,0 1.664,-0.746 1.664,-1.664c0,-0.918 -0.745,-1.664 -1.664,-1.664c-0.277,-0 -0.539,0.068 -0.77,0.189c0.311,0.41 0.495,0.921 0.495,1.475c-0,0.554 -0.184,1.065 -0.495,1.475Zm-0.593,-2.429c-0.19,0.271 -0.301,0.599 -0.301,0.954c0,0.355 0.111,0.683 0.301,0.954c0.189,-0.271 0.3,-0.599 0.3,-0.954c0,-0.355 -0.111,-0.683 -0.3,-0.954Z"/>
</svg>
