<svg xmlns="http://www.w3.org/2000/svg" style="fill-rule:evenodd;clip-rule:evenodd;stroke-linejoin:round;stroke-miterlimit:2" width="100%" height="100%" viewBox="0 0 16 16" xml:space="preserve">
 <defs>
  <style id="current-color-scheme" type="text/css">
   .ColorScheme-Text { color:#444444; } .ColorScheme-Highlight { color:#4285f4; } .ColorScheme-NeutralText { color:#ff9800; } .ColorScheme-PositiveText { color:#4caf50; } .ColorScheme-NegativeText { color:#f44336; }
  </style>
 </defs>
 <rect style="fill:currentColor;fill-opacity:0.3" class="ColorScheme-Text" width="6" height="6" x="2" y="8"/>
 <path style="fill:currentColor;" class="ColorScheme-Text" d="M11,2l-3,3l2,0l0,3l2,0l0,-3l2,0l-3,-3Z"/>
 <path style="fill:currentColor;" class="ColorScheme-Text" d="M14.983,3.39c0,-1.31 -1.063,-2.373 -2.373,-2.373l-9.22,0c-1.31,0 -2.373,1.063 -2.373,2.373l0,9.22c0,1.31 1.063,2.373 2.373,2.373l9.22,0c1.31,0 2.373,-1.063 2.373,-2.373l0,-9.22Zm-1,0l0,9.22c0,0.758 -0.615,1.373 -1.373,1.373l-9.22,0c-0.758,0 -1.373,-0.615 -1.373,-1.373l0,-9.22c0,-0.758 0.615,-1.373 1.373,-1.373l9.22,0c0.758,0 1.373,0.615 1.373,1.373Z"/>
</svg>
