<svg version="1.0" viewBox="0 0 256 256" xmlns="http://www.w3.org/2000/svg"><g transform="translate(-464 -28)"><path d="M592 35c-22.712 0-43.92 6.2-62.041 17H504.5c-9.141 0-16.5 7.359-16.5 16.5v25.459c-10.799 18.121-17 39.329-17 62.041v4c0 22.712 6.2 43.92 17 62.041V247.5c0 9.141 7.359 16.5 16.5 16.5h25.459c18.121 10.799 39.329 17 62.041 17s43.92-6.2 62.041-17H679.5c9.141 0 16.5-7.359 16.5-16.5v-25.459c10.799-18.121 17-39.329 17-62.041v-4c0-22.712-6.2-43.92-17-62.041V68.5c0-9.141-7.359-16.5-16.5-16.5h-25.459C635.92 41.201 614.712 35 592 35z" fill="#565656"/><path d="M592 36c-22.623 0-43.742 6.203-61.766 17H505c-8.864 0-16 7.136-16 16v25.234c-10.797 18.023-17 39.142-17 61.766s6.203 43.742 17 61.766V243c0 8.864 7.136 16 16 16h25.234c18.023 10.797 39.142 17 61.766 17s43.742-6.203 61.766-17H679c8.864 0 16-7.136 16-16v-25.234c10.797-18.023 17-39.142 17-61.766s-6.203-43.742-17-61.766V69c0-8.864-7.136-16-16-16h-25.234C635.743 42.203 614.624 36 592 36z" fill="#acacac"/><rect x="489" y="53" width="206" height="206" ry="103" fill="#333"/><circle cx="592" cy="156" r="84" fill="#faa41a"/><rect x="559" y="119" width="66" height="70" ry="33" fill="#845914"/><circle cx="592" cy="156" r="32" fill="#333"/><g transform="matrix(2 0 0 2 -112 -244)" fill="#565656"><circle cx="394" cy="158" r="2"/><circle cx="310" cy="158" r="2"/><circle cx="310" cy="242" r="2"/><circle cx="394" cy="242" r="2"/></g></g></svg>