<svg xmlns="http://www.w3.org/2000/svg" style="clip-rule:evenodd;fill-rule:evenodd;stroke-linejoin:round;stroke-miterlimit:2" viewBox="0 0 16 16">
 <defs>
  <style id="current-color-scheme" type="text/css">
   .ColorScheme-Text { color:#dfdfdf; } .ColorScheme-Highlight { color:#4285f4; } .ColorScheme-NeutralText { color:#ff9800; } .ColorScheme-PositiveText { color:#4caf50; } .ColorScheme-NegativeText { color:#f44336; }
  </style>
 </defs>
 <path style="fill:currentColor" class="ColorScheme-Text" d="m8.492 15.159h1.702v0.841h-4.388v-0.841h1.702v-2.683c-1.765-0.049-3.979-1.506-3.979-4.476v-1.715h0.812v1.715c0 2.23 1.429 3.603 3.659 3.603s3.659-1.373 3.659-3.603v-1.715h0.812v1.715c0 2.97-2.252 4.459-3.979 4.476v2.683z"/>
 <path style="fill:currentColor" class="ColorScheme-Text" fill-opacity=".3" d="m8 0c-1.66 0-3 1.34-3 3v5c0 1.66 1.34 3 3 3s3-1.34 3-3v-5c0-1.66-1.34-3-3-3z"/>
 <path style="fill:currentColor" class="ColorScheme-Text" d="m8 0c-1.66 0-3 1.34-3 3v5c0 1.66 1.34 3 3 3s3-1.34 3-3v-5c0-1.66-1.34-3-3-3zm0 1.02c1.096 0 1.98 0.884 1.98 1.98v5c0 1.096-0.884 1.98-1.98 1.98s-1.98-0.884-1.98-1.98v-5c0-1.096 0.884-1.98 1.98-1.98z"/>
</svg>
