<svg xmlns="http://www.w3.org/2000/svg" style="clip-rule:evenodd;fill-rule:evenodd;stroke-linejoin:round;stroke-miterlimit:2" viewBox="0 0 16 16">
 <defs>
  <style id="current-color-scheme" type="text/css">
   .ColorScheme-Text { color:#dfdfdf; } .ColorScheme-Highlight { color:#4285f4; } .ColorScheme-NeutralText { color:#ff9800; } .ColorScheme-PositiveText { color:#4caf50; } .ColorScheme-NegativeText { color:#f44336; }
  </style>
 </defs>
 <g transform="translate(0 -.337469)">
  <rect style="fill:currentColor" class="ColorScheme-Text" fill-opacity=".3" width="8" height="5" x="4" y="9"/>
 </g>
 <g transform="translate(0 .416873)">
  <rect style="fill:currentColor" class="ColorScheme-Text" fill-opacity=".3" width="8" height="2" x="4" y="1"/>
 </g>
 <path style="fill:currentColor" class="ColorScheme-Text" d="m2 4c-0.5 0-1 0.5-1 1v4c0 0.5 0.5 1 1 1h1v-2h10v2h1c0.5 0 1-0.5 1-1v-4c0-0.5-0.5-1-1-1h-12zm10 0.457c0.531 0 0.963 0.431 0.963 0.962 0 0.532-0.432 0.963-0.963 0.963s-0.963-0.431-0.963-0.963c0-0.531 0.432-0.962 0.963-0.962z"/>
</svg>
