<svg style="clip-rule:evenodd;fill-rule:evenodd;stroke-linejoin:round;stroke-miterlimit:1.41421" viewBox="0 0 48 48" xmlns="http://www.w3.org/2000/svg">
 <path d="m24 4c-11.08 0-20 8.92-20 20s8.92 20 20 20 20-8.92 20-20-8.92-20-20-20z" style="fill-rule:nonzero;fill:#fa0"/>
 <path d="m22.954 16.321c-0.232-1.297-1.976-2.24-2.982-2.522-3.671-1.031-8.528-0.977-12.515 0.261-1.852 0.575-2.563 2.346-2.768 3.391-0.369 1.884-0.288 5.389 1.066 8.043 0.022 0.043 0.043 0.087 0.07 0.127 1.159 1.745 2.813 2.58 5.121 2.504 2.832-0.092 5.391-0.366 7.941-2.296 3.64-2.754 4.482-7.191 4.067-9.508zm2.592 0c0.232-1.297 1.976-2.24 2.982-2.522 3.671-1.031 8.528-0.977 12.515 0.261 1.852 0.575 2.563 2.346 2.768 3.391 0.369 1.884 0.288 5.389-1.066 8.043-0.022 0.043-0.043 0.087-0.07 0.127-1.159 1.745-2.813 2.58-5.121 2.504-2.832-0.092-5.391-0.366-7.941-2.296-3.64-2.754-4.482-7.191-4.067-9.508z" style="fill:url(#_Linear1)"/>
 <path d="m5 18.602h-1c-0.552 0-1-0.448-1-1v-2c0-0.551 0.448-1 1-1h1c0.552 0 1 0.449 1 1v2c0 0.552-0.448 1-1 1zm39 0h-1c-0.552 0-1-0.448-1-1v-2c0-0.551 0.448-1 1-1h1c0.552 0 1 0.449 1 1v2c0 0.552-0.448 1-1 1zm-24-2.5s2-1 4-1 4 1 4 1v2s-2-1-4-1-4 1-4 1v-2z" style="fill:#212121"/>
 <path d="m32.25 30.629c0-0.552-0.448-1-1-1h-14c-0.552 0-1 0.448-1 1s0.448 1 1 1h14c0.552 0 1-0.448 1-1z" style="fill:#3f3f3f"/>
 <defs>
  <linearGradient id="_Linear1" x2="1" gradientTransform="matrix(-4.93193e-15,12.8819,-12.8819,-4.93193e-15,24.25,13.7205)" gradientUnits="userSpaceOnUse">
   <stop style="stop-color:#ff00dc" offset="0"/>
   <stop style="stop-color:#7512c5" offset=".5"/>
   <stop style="stop-color:#0039db" offset="1"/>
  </linearGradient>
 </defs>
</svg>
