<svg style="clip-rule:evenodd;fill-rule:evenodd;stroke-linejoin:round;stroke-miterlimit:2" viewBox="0 0 48 48" xmlns="http://www.w3.org/2000/svg">
 <path d="m44.928 24.216c0 11.476-9.302 20.778-20.778 20.778-11.474 0-20.778-9.302-20.778-20.778 0-11.474 9.304-20.778 20.778-20.778 11.476 0 20.778 9.304 20.778 20.778z" style="fill-rule:nonzero;fill:url(#_Linear1)"/>
 <path d="m35.838 21.461c-0.108-0.132-2.657-3.228-5.955-2.344-3.297 0.883-3.958 4.839-3.984 5.007-0.041 0.258 0.099 0.512 0.337 0.616 0.239 0.105 0.521 0.036 0.685-0.167 0.011-0.013 1.138-1.382 3.858-2.111 2.705-0.725 4.36-0.116 4.397-0.102 0.118 0.048 0.246 0.053 0.362 0.022 0.306-0.083 0.49-0.402 0.408-0.708l-0.108-0.213z" style="fill:#664500"/>
 <path d="m22.402 24.124c-0.027-0.168-0.687-4.124-3.985-5.007-3.297-0.884-5.847 2.212-5.955 2.344-0.163 0.203-0.17 0.492-0.015 0.702 0.154 0.21 0.432 0.292 0.676 0.198 0.017-6e-3 1.676-0.629 4.398 0.101 2.705 0.724 3.833 2.08 3.858 2.11 0.079 0.1 0.187 0.169 0.303 0.2 0.306 0.081 0.625-0.103 0.707-0.409l0.013-0.239z" style="fill:#664500"/>
 <path d="m24.15 28.834c-4.182 0-11.662-0.607-15.094-1.274-0.783-0.151 2.878 12.697 15.094 12.817 11.145 0.109 16.056-13.207 15.272-13.055-3.411 0.663-10.999 1.502-15.272 1.512z" style="fill:#664500"/>
 <path d="m15.206 29.35c3.739 1.107 11.991 0.802 17.888 0-0.022 2.752-2.403 4.462-9.073 4.498-7.285 0.04-8.095-1.315-8.815-4.498z" style="fill-rule:nonzero;fill:#fff"/>
 <path d="m44.341 14.674c0.825 3.08-1.002 6.244-4.081 7.069-3.08 0.825-7.102-2.369-5.844-6.413 2.036-6.549 0.248-10.013 1.362-10.312 1.115-0.299 7.738 6.576 8.563 9.656z" style="fill-rule:nonzero;fill:#5dadec"/>
 <defs>
  <linearGradient id="_Linear1" x2="1" gradientTransform="matrix(2.54449e-15,-41.5546,41.5546,2.54449e-15,24.315,44.9943)" gradientUnits="userSpaceOnUse">
   <stop style="stop-color:#ffb200" offset="0"/>
   <stop style="stop-color:#ffcc4d" offset="1"/>
  </linearGradient>
 </defs>
</svg>
