<svg style="clip-rule:evenodd;fill-rule:evenodd;stroke-linejoin:round;stroke-miterlimit:2" viewBox="0 0 48 48" xmlns="http://www.w3.org/2000/svg">
 <path d="m6.094 26.663c-1.581-2.619-1.399-5.63 0.406-6.72s4.554 0.151 6.136 2.77c1.581 2.618 1.399 5.629-0.407 6.719-1.805 1.09-4.554-0.151-6.135-2.769zm29.923 2.878c-1.847-1.019-2.147-4.02-0.67-6.699 1.478-2.678 4.176-4.026 6.023-3.008 1.846 1.019 2.146 4.021 0.669 6.699-1.477 2.679-4.176 4.026-6.022 3.008z" style="fill-rule:nonzero;fill:#d79e84"/>
 <path d="m23.741 41.978c-6.479 0.105-15.332-3.211-15.438-8.757-0.079-4.139 2.77-5.332 2.77-5.332s-2.813-1.463-2.229-8.947c0.483-6.191 8.352-11.333 15.105-11.333s14.353 4.524 14.734 11.546c0.27 4.994-0.596 5.215-1.919 7.394 2.34 2.392 3.127 4.672 2.74 7.06-0.93 5.737-9.979 8.276-15.763 8.369z" style="fill-rule:nonzero;fill:#b1563e"/>
 <path d="m37.821 20.852c0.143-4.595-3.154-7.905-8.224-7.534-1.92 0.141-4.361 1.667-5.648 2.903-1.287-1.237-3.778-2.591-5.702-2.69-6.184-0.319-8.205 3.742-8.011 7.692 0.159 3.248 2.777 4.676 4.586 5.976-0.524 1.303-0.792 2.695-0.79 4.099 0 5.782 4.44 9.366 9.916 9.366s9.916-3.584 9.916-9.366c2e-3 -1.404-0.267-2.796-0.791-4.099 1.812-1.3 4.637-2.783 4.748-6.347z" style="fill-rule:nonzero;fill:#d79e84"/>
 <path d="m19.603 18.909c1.382-0.37 2.955 1.012 3.511 3.085 0.555 2.073-0.116 4.057-1.498 4.427-1.382 0.371-2.955-1.012-3.51-3.085-0.556-2.073 0.115-4.056 1.497-4.427z" style="fill:#292f33"/>
 <path d="m28.397 18.909c1.382 0.371 2.053 2.354 1.497 4.427-0.555 2.073-2.128 3.456-3.51 3.085-1.382-0.37-2.053-2.354-1.498-4.427 0.556-2.073 2.129-3.455 3.511-3.085z" style="fill:#292f33"/>
 <path d="m23.949 38.13c2.82 0 5.222-1.434 6.124-3.438 0.373-0.829-0.26-1.757-1.202-1.757h-9.844c-0.943 0-1.575 0.928-1.202 1.757 0.902 2.004 3.303 3.438 6.124 3.438z" style="fill-rule:nonzero;fill:#642116"/>
 <ellipse cx="22.702" cy="28.079" rx="1.039" ry="1.102" style="fill:#642116"/>
 <circle cx="25.063" cy="28.142" r="1.039" style="fill:#642116"/>
 <path d="m22.108 8.337l-1.638-0.307c2.203-3.305 7.886-2.447 7.886-2.447-0.998 0-1.77 0.677-2.316 1.419 2.179-0.032 4.142 0.7 4.142 0.7-2.157-0.453-3.916 2.555-3.916 2.555l-4.305-1.782c0.048-0.047 0.097-0.093 0.147-0.138z" style="fill-rule:nonzero;fill:#b1563e"/>
</svg>
