<svg style="clip-rule:evenodd;fill-rule:evenodd;stroke-linejoin:round;stroke-miterlimit:2" viewBox="0 0 48 48" xmlns="http://www.w3.org/2000/svg">
 <path d="m44.928 24.216c0 11.476-9.302 20.778-20.778 20.778-11.474 0-20.778-9.302-20.778-20.778 0-11.474 9.304-20.778 20.778-20.778 11.476 0 20.778 9.304 20.778 20.778z" style="fill-rule:nonzero;fill:url(#_Linear1)"/>
 <path d="m28.767 34.605c0 3.19-2.067 3.463-4.617 3.463-2.551 0-4.617-0.273-4.617-3.463 0-3.187 2.066-6.926 4.617-6.926 2.55 0 4.617 3.739 4.617 6.926zm6.079-17.616c-0.147 0-0.292-0.028-0.428-0.083-6.036-2.414-8.51-6.049-8.613-6.204-0.126-0.189-0.194-0.412-0.194-0.641 0-0.385 0.193-0.746 0.514-0.96 0.526-0.35 1.246-0.208 1.599 0.317 0.022 0.032 7.593 7.571 7.122 7.571zm-21.265 3e-3c-0.472 0 7.1-7.539 7.122-7.571 0.214-0.32 0.574-0.512 0.959-0.512 0.634 0 1.155 0.521 1.155 1.154 0 0.229-0.068 0.453-0.196 0.643-0.102 0.154-2.577 3.789-8.612 6.203-0.136 0.055-0.282 0.083-0.428 0.083z" style="fill-rule:nonzero;fill:#664500"/>
 <path d="m12.607 43.84l4.617-0.053v-21.878l-4.617 1.522v20.409zm18.469-21.932l4.617 1.232v20.7l-4.617-0.053v-21.879z" style="fill-rule:nonzero;fill:#5dadec"/>
 <path d="m20.686 24.216c-0.179 0-0.355-0.041-0.515-0.121-4.054-2.028-8.162-0.022-8.203 0-0.16 0.08-0.337 0.122-0.516 0.122-0.437 0 4.753-5.485 9.827-2.95 0.567 0.283 0.724 1.744 0.441 2.311-0.196 0.391-0.597 0.639-1.034 0.638zm16.161 0c-0.179 0-0.355-0.041-0.515-0.121-4.055-2.027-8.163-0.022-8.203 0-0.16 0.08-0.337 0.122-0.516 0.122-0.634 0-1.155-0.521-1.155-1.155 0-0.437-0.076-1.264 0.753-1.681 5.374-2.7 10.073 2.836 9.636 2.835z" style="fill-rule:nonzero;fill:#664500"/>
 <path d="m44.928 42.686c0 1.274-9.303 2.308-20.778 2.308s-20.778-1.034-20.778-2.308c0-1.275 9.303-2.309 20.778-2.309s20.778 1.034 20.778 2.309z" style="fill-rule:nonzero;fill:#5dadec"/>
 <path d="m27.613 34.605c0 1.913-1.55 2.309-3.463 2.309s-3.463-0.396-3.463-2.309c0-1.912 1.55-2.308 3.463-2.308s3.463 0.396 3.463 2.308z" style="fill-rule:nonzero;fill:#e75a70"/>
 <defs>
  <linearGradient id="_Linear1" x2="1" gradientTransform="matrix(2.54449e-15,-41.5546,41.5546,2.54449e-15,24.315,44.9943)" gradientUnits="userSpaceOnUse">
   <stop style="stop-color:#ffb200" offset="0"/>
   <stop style="stop-color:#ffcc4d" offset="1"/>
  </linearGradient>
 </defs>
</svg>
