<svg style="clip-rule:evenodd;fill-rule:evenodd;stroke-linejoin:round;stroke-miterlimit:2" viewBox="0 0 48 48" xmlns="http://www.w3.org/2000/svg">
 <path d="m46.162 3.684c0-0.987-0.597-1.882-1.509-2.26-0.912-0.379-1.968-0.169-2.666 0.531-1.083 1.083-4.888 4.175-8.054 4.175h-5e-3c-3.008-1.609-6.367-2.449-9.778-2.446-3.411-3e-3 -6.77 0.837-9.778 2.446h-5e-3c-3.155 0-6.886-3.016-8.054-4.175-0.459-0.459-1.081-0.717-1.729-0.717-1.342 0-2.446 1.104-2.446 2.446 0 2.915 0.972 7.617 4.108 10.261-1.821 3.09-2.885 6.681-2.885 10.528 0 11.482 9.309 20.789 20.789 20.789 11.482 0 20.789-9.307 20.789-20.789 0-3.847-1.064-7.438-2.885-10.528 3.136-2.644 4.108-7.346 4.108-10.261z" style="fill-rule:nonzero;fill:url(#_Linear1)"/>
 <path d="m35.869 29.716c-0.24-0.165-0.566-0.137-0.775 0.066-0.043 0.042-4.293 4.141-10.087 4.902-5.778 0.759-10.959-2.102-11.01-2.131-0.254-0.141-0.576-0.084-0.765 0.136-0.189 0.222-0.195 0.549-0.014 0.777 0.19 0.24 4.735 5.845 12.267 4.855 7.532-0.989 10.477-7.577 10.598-7.858 0.116-0.267 0.026-0.582-0.214-0.747zm-14.523-6.108c-3.981-3.98-10.377-6.409-10.648-6.409-0.67 0 2.353 4.855 4.87 5.73-0.725 0.782-1.201 1.998-1.201 3.378 0 2.365 1.368 4.28 3.057 4.28s3.057-1.915 3.057-4.28c0-0.212-0.023-0.415-0.045-0.62 0.016 0 0.031 9e-3 0.045 9e-3 0.324 0 0.636-0.129 0.865-0.359 0.229-0.229 0.359-0.54 0.359-0.864s-0.13-0.636-0.359-0.865zm16.256-6.409c-0.271 0-6.666 2.429-10.648 6.409-0.229 0.229-0.359 0.541-0.359 0.865s0.13 0.635 0.359 0.864c0.229 0.23 0.541 0.359 0.865 0.359 0.015 0 0.029-9e-3 0.044-9e-3 -0.02 0.205-0.044 0.408-0.044 0.62 0 2.365 1.368 4.28 3.057 4.28s3.057-1.915 3.057-4.28c0-1.38-0.476-2.596-1.201-3.378 2.517-0.875 5.54-5.73 4.87-5.73z" style="fill-rule:nonzero;fill:#5a1824"/>
 <defs>
  <linearGradient id="_Linear1" x2="1" gradientTransform="matrix(2.54592e-15,-41.578,41.578,2.54592e-15,24.1502,45.262)" gradientUnits="userSpaceOnUse">
   <stop style="stop-color:#ff6000" offset="0"/>
   <stop style="stop-color:#f76363" offset="1"/>
  </linearGradient>
 </defs>
</svg>
