<?xml version="1.0" encoding="UTF-8" standalone="no"?><!DOCTYPE svg PUBLIC "-//W3C//DTD SVG 1.1//EN" "http://www.w3.org/Graphics/SVG/1.1/DTD/svg11.dtd"><svg width="100%" height="100%" viewBox="0 0 64 64" version="1.1" xmlns="http://www.w3.org/2000/svg" xmlns:xlink="http://www.w3.org/1999/xlink" xml:space="preserve" xmlns:serif="http://www.serif.com/" style="fill-rule:evenodd;clip-rule:evenodd;stroke-linejoin:round;stroke-miterlimit:1.41421;"><path d="M55.8,4.001c2.318,0 4.2,1.882 4.2,4.2l0,47.599c0,2.318 -1.882,4.2 -4.2,4.2l-47.599,0c-2.318,0 -4.2,-1.882 -4.2,-4.2l0,-47.599c0,-2.318 1.882,-4.2 4.2,-4.2l47.599,0Z" style="fill:url(#_Linear1);"/><path d="M42.958,40.522l-2.435,0l0,-7.305l-7.305,0l0,-9.739l2.435,0l0,7.305l4.87,0l0,-7.305l2.435,0l0,17.044Zm-17.045,-17.044m0,0c-2.677,0 -4.87,2.193 -4.87,4.87l0,7.304c0,2.677 2.193,4.87 4.87,4.87c2.677,0 4.87,-2.193 4.87,-4.87l0,-7.304c0,-2.677 -2.193,-4.87 -4.87,-4.87Zm24.348,0c-2.677,0 -4.87,2.193 -4.87,4.87c0,1.458 0.665,2.757 1.691,3.652c-1.026,0.895 -1.691,2.194 -1.691,3.652c0,2.677 2.193,4.87 4.87,4.87c2.677,0 4.87,-2.193 4.87,-4.87c0,-1.458 -0.665,-2.757 -1.691,-3.652c1.026,-0.895 1.691,-2.194 1.691,-3.652c0,-2.677 -2.193,-4.87 -4.87,-4.87Zm-36.522,0c0,0 -1.167,-0.024 -2.371,0.585c-1.203,0.602 -2.499,2.053 -2.499,4.285l2.435,0c0,-2.435 2.435,-2.435 2.435,-2.435c0,0 2.435,0 2.435,2.435c0,0.913 -0.311,1.6 -0.883,2.331c-0.572,0.731 -1.418,1.451 -2.331,2.212c-0.913,0.761 -1.893,1.563 -2.691,2.582c-0.797,1.019 -1.4,2.31 -1.4,3.831l0,1.218l9.74,0l0,-2.435l-7.083,0c0.149,-0.383 0.371,-0.743 0.661,-1.114c0.572,-0.731 1.418,-1.451 2.331,-2.211c0.913,-0.761 1.893,-1.564 2.691,-2.582c0.797,-1.019 1.4,-2.31 1.4,-3.832c0,-2.232 -1.296,-3.683 -2.499,-4.285c-1.204,-0.602 -2.371,-0.585 -2.371,-0.585Zm12.174,2.435c1.37,0 2.435,1.065 2.435,2.435l0,7.304c0,1.37 -1.065,2.435 -2.435,2.435c-1.37,0 -2.435,-1.065 -2.435,-2.435l0,-7.304c0,-1.37 1.065,-2.435 2.435,-2.435Zm24.348,7.304c1.37,0 2.435,1.065 2.435,2.435c0,1.37 -1.065,2.435 -2.435,2.435c-1.37,0 -2.435,-1.065 -2.435,-2.435c0,-1.37 1.065,-2.435 2.435,-2.435Zm0,-7.304c1.37,0 2.435,1.065 2.435,2.435c0,1.37 -1.065,2.435 -2.435,2.435c-1.37,0 -2.435,-1.065 -2.435,-2.435c0,-1.37 1.065,-2.435 2.435,-2.435Z" style="fill:#fff;"/><defs><linearGradient id="_Linear1" x1="0" y1="0" x2="1" y2="0" gradientUnits="userSpaceOnUse" gradientTransform="matrix(0,-55.999,-55.999,0,32.0005,60)"><stop offset="0" style="stop-color:#217200;stop-opacity:1"/><stop offset="1" style="stop-color:#70c74d;stop-opacity:1"/></linearGradient></defs></svg>