<svg clip-rule="evenodd" fill-rule="evenodd" stroke-linejoin="round" stroke-miterlimit="1.41421" viewBox="0 0 64 64" xmlns="http://www.w3.org/2000/svg">
 <linearGradient id="a" x2="1" gradientTransform="matrix(56 0 0 46 4 32)" gradientUnits="userSpaceOnUse">
  <stop stop-color="#730006" offset="0"/>
  <stop stop-color="#a1252b" offset="1"/>
 </linearGradient>
 <g fill-rule="nonzero">
  <path d="m22.006 9c-7.61 0-13.994 6.385-13.994 13.996 0 2.999 1.016 5.788 2.683 8.09l-5.254 8.746c-3.998 6.661.795 15.138 8.563 15.145l35.983.023c7.43.003 12.267-7.816 8.947-14.465l-7.996-16.008c-2.837-5.663-10.158-7.294-15.13-3.37-.934-6.765-6.82-12.157-13.802-12.157z" fill="url(#a)"/>
  <path d="m22 19c-2.194 0-4 1.806-4 4s1.806 4 4 4 4-1.806 4-4-1.806-4-4-4zm20 10-6 9-6-5-6 8-4-6-6 9.988 36 .024z" fill="#fff"/>
 </g>
</svg>
