<svg style="clip-rule:evenodd;fill-rule:evenodd;stroke-linejoin:round;stroke-miterlimit:2" version="1.1" viewBox="0 0 48 48" xmlns="http://www.w3.org/2000/svg">
 <path d="m24.001 5c-11.551 0-21 9.45-21 21.001-5e-3 1.7 0 3 0.108 4.902 0.304 4.796 3.241 8.216 5.884 9.874 2.702 1.694 5.357 2.146 5.369 2.148 3.07 0.558 5.641-2.099 5.639-4.805v-15.237c0-1.747-1.052-3.443-2.656-4.295 1.774-1.598 4.092-2.579 6.654-2.584 2.564 0 4.885 0.983 6.662 2.582-1.607 0.852-2.661 2.549-2.66 4.297v15.241c-2e-3 2.706 2.568 5.363 5.638 4.805h4e-3c0.018 0 2.666-0.456 5.365-2.148 2.647-1.66 5.589-5.086 5.887-9.891 0.105-1.889 0.105-3.241 0.105-4.889 0-11.551-9.449-21.001-20.999-21.001z" style="fill-rule:nonzero;fill:url(#_Linear1)"/>
 <path d="m24 9c-9.326 0-17 7.674-17 17v4h6e-3c-1e-3 0.062-6e-3 0.122-6e-3 0.186 0.014 3.659 2.127 5.952 4.117 7.201 1.99 1.248 3.959 1.601 3.959 1.601 0.043 8e-3 0.086 0.012 0.13 0.012 0.435 0 0.794-0.396 0.794-0.878v-1e-3 -15.242-1e-3c0-0.482-0.359-0.878-0.794-0.878h-0.022-0.045s-1.985 0.18-3.996 1.266c-0.322 0.173-0.646 0.386-0.965 0.617 1.04-6.799 6.944-11.875 13.822-11.883 6.883 5e-3 12.793 5.086 13.83 11.891-0.322-0.234-0.648-0.448-0.973-0.623-2.011-1.085-3.996-1.266-3.996-1.266-0.015-1e-3 -0.03-1e-3 -0.045 0h-0.022c-0.435 0-0.794 0.395-0.794 0.877v15.242 1e-3c0 0.482 0.359 0.878 0.794 0.878 0.044 0 0.087-4e-3 0.13-0.012 0 0 1.969-0.353 3.959-1.601 1.99-1.249 4.103-3.542 4.117-7.201 0-0.063-5e-3 -0.123-6e-3 -0.186h6e-3v-4c0-9.326-7.674-17-17-17z" style="fill-rule:nonzero;fill:#fff"/>
 <circle cx="35.5" cy="34.5" r="10.5" style="fill:#ddd"/>
 <path d="m35.5 37c1.38 0 2.5 1.12 2.5 2.5s-1.12 2.5-2.5 2.5-2.5-1.12-2.5-2.5 1.12-2.5 2.5-2.5zm7.5-2.5c0 1.38-1.12 2.5-2.5 2.5s-2.5-1.12-2.5-2.5 1.12-2.5 2.5-2.5 2.5 1.12 2.5 2.5zm-10 0c0 1.38-1.12 2.5-2.5 2.5s-2.5-1.12-2.5-2.5 1.12-2.5 2.5-2.5 2.5 1.12 2.5 2.5zm2.5-7.5c1.38 0 2.5 1.12 2.5 2.5s-1.12 2.5-2.5 2.5-2.5-1.12-2.5-2.5 1.12-2.5 2.5-2.5z" style="fill:#000831"/>
 <defs>
  <linearGradient id="_Linear1" x2="1" gradientTransform="matrix(-.238213 -40.4963 40.4963 -.238213 22.9578 44.1886)" gradientUnits="userSpaceOnUse">
   <stop style="stop-color:#6e0994" offset="0"/>
   <stop style="stop-color:#9071d6" offset="1"/>
  </linearGradient>
 </defs>
</svg>
