<svg style="clip-rule:evenodd;fill-rule:evenodd;stroke-linejoin:round;stroke-miterlimit:2" version="1.1" viewBox="0 0 48 48" xmlns="http://www.w3.org/2000/svg">
 <path d="m11.454 16.37c2.504-4.331 7.185-7.248 12.543-7.248 5.369 0 10.059 2.929 12.557 7.274 0.611 1.293 1.365 4.645 1.517 5.634 0.093-2.649-0.64-5.21-0.805-5.67 3.773 0 6.836 3.063 6.836 6.836 0 0.771-0.128 1.513-0.364 2.206 2.139 1.263 3.587 3.595 3.587 6.238 0 3.97-3.267 7.238-7.238 7.238h-28.395v-3e-3c-6.102-0.128-11.017-5.123-11.017-11.256 0-5.812 4.413-10.601 10.069-11.197-0.587 1.132-0.935 3.171-1.002 4.286 0.242-0.89 0.602-2.216 1.712-4.338z" style="fill-rule:nonzero;fill:url(#_Linear1)"/>
 <path d="m20.081 21.582v11.1c0.011 0.44-0.111 0.877-0.354 1.252-0.318 0.489-0.816 0.831-1.386 0.952-0.442 0.094-0.908 0.193-1.35 0.287-0.57 0.121-1.165 0.011-1.654-0.307-0.488-0.317-0.831-0.816-0.951-1.386-0.019-0.084-0.037-0.169-0.055-0.254-0.121-0.57-0.01-1.165 0.307-1.654 0.318-0.488 0.816-0.831 1.386-0.952 0.442-0.093 0.908-0.192 1.35-0.286 0.061-0.013 0.122-0.024 0.183-0.031v-8e-3s0.329-0.07 0.669-0.142c0.428-0.091 0.735-0.469 0.735-0.907v-11.289c0-0.441 0.31-0.821 0.742-0.909 1.98-0.405 7.386-1.508 9.535-1.946 0.22-0.045 0.449 0.011 0.624 0.153 0.174 0.142 0.275 0.355 0.276 0.58l0.036 14.789c6e-3 0.432-0.116 0.86-0.354 1.227-0.318 0.489-0.816 0.831-1.386 0.952-0.442 0.094-0.908 0.193-1.35 0.287-0.571 0.121-1.165 0.011-1.654-0.307-0.488-0.317-0.831-0.816-0.952-1.386-0.018-0.085-0.036-0.17-0.054-0.254-0.121-0.57-0.01-1.165 0.307-1.654 0.317-0.488 0.816-0.831 1.386-0.952 0.442-0.093 0.908-0.193 1.35-0.286 0.07-0.015 0.141-0.027 0.212-0.035l0.622-0.125c0.433-0.088 0.745-0.468 0.745-0.909v-7.436l-8.965 1.836zm8.965-2.747v-0.818c0-0.189-0.085-0.368-0.231-0.488-0.147-0.12-0.339-0.168-0.524-0.13-1.694 0.34-5.781 1.16-7.465 1.498-0.433 0.087-0.745 0.468-0.745 0.91v0.864l8.965-1.836z" style="fill:url(#_Linear2)"/>
 <defs>
  <linearGradient id="_Linear1" x2="1" gradientTransform="matrix(1.80852e-15,-29.5354,29.5354,1.80852e-15,445.618,38.7676)" gradientUnits="userSpaceOnUse">
   <stop style="stop-color:#138985" offset="0"/>
   <stop style="stop-color:#00c6bf" offset="1"/>
  </linearGradient>
  <linearGradient id="_Linear2" x2="1" gradientTransform="matrix(-.0567298 -17.2525 17.2525 -.0567298 525.68 31.3912)" gradientUnits="userSpaceOnUse">
   <stop style="stop-color:#bcddff" offset="0"/>
   <stop style="stop-color:#e4f7ff" offset="1"/>
  </linearGradient>
 </defs>
</svg>
