<svg style="clip-rule:evenodd;fill-rule:evenodd;stroke-linejoin:round;stroke-miterlimit:2" version="1.1" viewBox="0 0 48 48" xmlns="http://www.w3.org/2000/svg">
 <path d="m46.518 9.466c0-4.407-3.577-7.984-7.984-7.984h-29.068c-4.407 0-7.984 3.577-7.984 7.984v29.068c0 4.407 3.577 7.984 7.984 7.984h29.068c4.407 0 7.984-3.577 7.984-7.984v-29.068z" style="fill:url(#_Linear1)"/>
 <path d="m20.835 1.5v15.716h-0.017v5.146c-0.337 3.314 6.257 3.314 5.907 0v-2.546h2e-3v-18.316h-5.892z" style="fill-opacity:.67"/>
 <path d="m26.066 18.809v2.198h-4.395v-2.198h4.395zm0-3.287v2.198h-4.395v-2.198h4.395zm0-3.211v2.197h-4.395v-2.197h4.395zm-0.048-3.269v2.197h-4.395v-2.197h4.395zm0.027-3.14v2.197h-4.395v-2.197h4.395zm0.01-3.179v2.198h-4.396v-2.198h4.396z" style="fill-opacity:.93;fill:#fff"/>
 <path d="m25.477 24.689v-1.386c0-0.387-0.312-0.7-0.697-0.7h-1.937c-0.385 0-0.697 0.313-0.697 0.7v1.386l-1.078 3.177c-0.301 0.885-0.157 1.869 0.387 2.631 0.543 0.761 1.424 1.216 2.357 1.216s1.813-0.455 2.357-1.216c0.543-0.762 0.687-1.746 0.386-2.631l-1.078-3.177zm-0.45 4.989c-0.559 0.785-1.872 0.785-2.431 0-0.281-0.394-0.355-0.901-0.2-1.358l0.361-1.065h2.109l0.361 1.066c0.155 0.456 0.081 0.963-0.2 1.357z" style="fill-opacity:.67;fill-rule:nonzero"/>
 <path d="m25.477 24.219v-1.387c0-0.386-0.312-0.7-0.697-0.7h-1.937c-0.385 0-0.697 0.314-0.697 0.7v1.386l-1.078 3.177c-0.301 0.885-0.157 1.869 0.387 2.631 0.543 0.761 1.424 1.216 2.357 1.216s1.813-0.455 2.357-1.216c0.543-0.762 0.687-1.746 0.386-2.63l-1.078-3.177zm-0.45 4.988c-0.559 0.785-1.872 0.785-2.431 0-0.281-0.393-0.355-0.901-0.2-1.358l0.361-1.065h2.109l0.361 1.066c0.155 0.456 0.081 0.964-0.2 1.357z" style="fill-rule:nonzero;fill:#f0f5f1"/>
 <defs>
  <linearGradient id="_Linear1" x2="1" gradientTransform="matrix(2.75763e-15,-45.0354,45.0354,2.75763e-15,24,46.5177)" gradientUnits="userSpaceOnUse">
   <stop style="stop-color:#4d6d00" offset="0"/>
   <stop style="stop-color:#4da400" offset="1"/>
  </linearGradient>
 </defs>
</svg>
