<!DOCTYPE svg  PUBLIC '-//W3C//DTD SVG 1.1//EN'  'http://www.w3.org/Graphics/SVG/1.1/DTD/svg11.dtd'>
<svg style="clip-rule:evenodd;fill-rule:evenodd;stroke-linejoin:round;stroke-miterlimit:1.41421" version="1.1" viewBox="0 0 48 48" xmlns="http://www.w3.org/2000/svg">
 <path d="m46 7.619c0-3.103-2.516-5.619-5.619-5.619h-32.762c-3.103 0-5.619 2.516-5.619 5.619v32.762c0 3.103 2.516 5.619 5.619 5.619h32.762c3.103 0 5.619-2.516 5.619-5.619v-32.762z" style="fill:url(#_Linear1)"/>
 <path d="m24.031 8.696c3.22 8e-3 6.485 1.011 9.036 2.998 1.793 2.066-1.623 4.278-3.162 2.264-4.633-2.803-11.166-1.817-14.651 2.374-1.855 2.08-2.899 4.855-2.887 7.641h3.061l-4.898 7.347-4.898-7.347h3.061c-0.098-6.652 4.686-12.979 11.109-14.702 1.378-0.378 2.798-0.59 4.229-0.575zm13.439 7.96l4.898 7.347h-3.061c0.087 6.732-4.819 13.13-11.355 14.762-4.409 1.232-9.396 0.333-13.02-2.484-1.849-2.101 1.615-4.292 3.168-2.259 4.489 2.723 10.774 1.86 14.317-2.03 2.051-2.113 3.231-5.043 3.216-7.989h-3.062l4.898-7.347h1e-3z" style="fill-opacity:.858824;fill-rule:nonzero;fill:#283751"/>
 <defs>
  <linearGradient id="_Linear1" x2="1" gradientTransform="matrix(2.69423e-15,-44,44,2.69423e-15,23.9999,46.0001)" gradientUnits="userSpaceOnUse">
   <stop style="stop-color:#a2a2a2" offset="0"/>
   <stop style="stop-color:#eee" offset="1"/>
  </linearGradient>
 </defs>
</svg>
