<?xml version="1.0" encoding="UTF-8" standalone="no"?><!DOCTYPE svg PUBLIC "-//W3C//DTD SVG 1.1//EN" "http://www.w3.org/Graphics/SVG/1.1/DTD/svg11.dtd"><svg width="100%" height="100%" viewBox="0 0 64 64" version="1.1" xmlns="http://www.w3.org/2000/svg" xmlns:xlink="http://www.w3.org/1999/xlink" xml:space="preserve" xmlns:serif="http://www.serif.com/" style="fill-rule:evenodd;clip-rule:evenodd;stroke-linejoin:round;stroke-miterlimit:1.41421;"><path d="M62,30c0,-2.208 -1.792,-4 -4,-4l-52,0c-2.208,0 -4,1.792 -4,4l0,4c0,2.208 1.792,4 4,4l52,0c2.208,0 4,-1.792 4,-4l0,-4Z" style="fill:#003ea6;"/><path d="M18,60l-2,0c-3.311,0 -6,-2.689 -6,-6l0,-44c0,-3.311 2.689,-6 6,-6l2,0c3.311,0 6,2.689 6,6l0,44c0,3.311 -2.688,6 -6,6Zm30,0l-2,0c-3.311,0 -6,-2.689 -6,-6l0,-44c0,-3.311 2.689,-6 6,-6l2,0c3.311,0 6,2.689 6,6l0,44c0,3.311 -2.688,6 -6,6Z" style="fill:url(#_Linear1);"/><path d="M7,12c1.656,0 3,1.344 3,3l0,34c0,1.656 -1.344,3 -3,3c-1.656,0 -3,-1.344 -3,-3l0,-34c0,-1.656 1.344,-3 3,-3Zm50,0c1.656,0 3,1.344 3,3l0,34c0,1.656 -1.344,3 -3,3c-1.656,0 -3,-1.344 -3,-3l0,-34c0,-1.656 1.344,-3 3,-3Z" style="fill:#e73e17;"/><defs><linearGradient id="_Linear1" x1="0" y1="0" x2="1" y2="0" gradientUnits="userSpaceOnUse" gradientTransform="matrix(-0.530111,-25.3494,25.3494,-0.530111,32.747,58.6988)"><stop offset="0" style="stop-color:#880a00;stop-opacity:1"/><stop offset="1" style="stop-color:#b30d00;stop-opacity:1"/></linearGradient></defs></svg>