<svg style="clip-rule:evenodd;fill-rule:evenodd;stroke-linejoin:round;stroke-miterlimit:2" version="1.1" viewBox="0 0 48 48" xmlns="http://www.w3.org/2000/svg">
 <path d="m39.473 5.827c0-2.783-2.256-5.04-5.039-5.04h-25.84c-2.783 0-5.039 2.257-5.039 5.04v33.035c0 2.783 2.256 5.04 5.039 5.04h25.84c2.783 0 5.039-2.257 5.039-5.04v-33.035z" style="fill:url(#_Linear1)"/>
 <path d="m44.367 8.923c0-2.783-2.256-5.04-5.039-5.04h-25.841c-2.783 0-5.039 2.257-5.039 5.04v33.036c0 2.783 2.256 5.04 5.039 5.04h25.841c2.783 0 5.039-2.257 5.039-5.04v-33.036z" style="fill:url(#_Linear2)"/>
 <path d="m40.518 42.227h-28.429v-0.796h28.429v0.796zm0-2.268h-28.429v-0.824h28.429v0.824zm0-2.412h-28.429v-0.796h28.429v0.796zm0-2.461h-28.429v-0.796h28.429v0.796zm-16.058-3.861h-12.217v-0.796h12.217v0.796zm6.169-2.461h-18.386v-0.796h18.386v0.796zm-6.221-1.834h-12.072v-0.796h12.072v0.796zm6.176-1.785h-18.441v-0.824h18.441v0.824zm7.383-2.413h-25.824v-0.796h25.824v0.796zm2.605-2.46h-28.429v-0.796h28.429v0.796zm0.1-3.758h-28.429v-0.796h28.429v0.796zm0-2.268h-28.429v-0.825h28.429v0.825zm0-2.413h-28.429v-0.796h28.429v0.796zm0-2.46h-28.429v-0.797h28.429v0.797z" style="fill:#b0b0b0"/>
 <defs>
  <linearGradient id="_Linear1" x2="1" gradientTransform="matrix(-.476427 -44.666 44.666 -.476427 129.053 44.2903)" gradientUnits="userSpaceOnUse">
   <stop style="stop-color:#286cd8" offset="0"/>
   <stop style="stop-color:#40a9fe" offset="1"/>
  </linearGradient>
  <linearGradient id="_Linear2" x2="1" gradientTransform="matrix(-.476427 -44.666 44.666 -.476427 272.902 45.9047)" gradientUnits="userSpaceOnUse">
   <stop style="stop-color:#cfdaf0" offset="0"/>
   <stop style="stop-color:#fdfdfe" offset="1"/>
  </linearGradient>
 </defs>
</svg>
