<svg style="clip-rule:evenodd;fill-rule:evenodd;stroke-linejoin:round;stroke-miterlimit:2" version="1.1" viewBox="0 0 48 48" xmlns="http://www.w3.org/2000/svg">
 <circle cx="24" cy="24" r="22.764" style="fill:url(#_Linear1)"/>
 <path d="m34.079 31.071c0.193 0.186 0.361 0.395 0.506 0.622 0.33 0.521 0.524 1.136 0.524 1.798 0 0.699-0.215 1.349-0.58 1.889-0.196 0.289-0.439 0.545-0.713 0.761-0.292 0.23-0.622 0.412-0.98 0.537-0.346 0.12-0.717 0.189-1.104 0.189s-0.758-0.069-1.105-0.189c-0.34-0.119-0.656-0.29-0.938-0.505-0.809-0.617-1.333-1.589-1.333-2.681 0-1.862 1.514-3.376 3.376-3.376 0.679 0 1.311 0.203 1.842 0.551 0.182 0.118 0.35 0.253 0.505 0.404zm-19.98 3.083l1.099-2.419-0.032-0.017c-0.5-0.247-0.703-0.853-0.456-1.353 0.244-0.49 0.832-0.693 1.325-0.465l4.891-10.744c0.021-0.053 0.077-0.191 0.169-0.395-0.335-0.291-0.453-0.778-0.251-1.197 0.211-0.439 0.696-0.654 1.149-0.544 1.006-1.729 2.71-4.03 5.073-5.075 2.555-1.128 5.445-1.077 7.541 0.133 1.663 0.959 2.698 2.591 2.916 4.594 0.35 3.233-0.046 5.437-1.213 6.737-0.506 0.564-1.104 0.908-1.726 1.118v-2.261c0.078-0.062 0.154-0.129 0.223-0.206 0.751-0.837 0.99-2.576 0.708-5.17-0.151-1.386-0.795-2.416-1.917-3.064-1.526-0.88-3.769-0.893-5.714-0.034-1.81 0.8-3.193 2.636-4.056 4.092 0.457 0.26 0.644 0.83 0.413 1.311-0.174 0.362-0.534 0.573-0.91 0.573-0.143 0-0.285-0.032-0.422-0.094l-5.068 11.132c0.426 0.275 0.592 0.829 0.36 1.294-0.177 0.355-0.534 0.56-0.905 0.56-0.094 0-0.187-0.018-0.279-0.044l-0.7 1.538h0.095c0.557 0 1.009 0.452 1.009 1.009s-0.452 1.01-1.009 1.01h-5.048c-0.557 0-1.01-0.453-1.01-1.01s0.453-1.009 1.01-1.009h2.735zm18.97-13.124c0.558 0 0.505-0.054 0.505 0.505v7.982c-0.56-0.261-1.184-0.411-1.842-0.411-2.418 0-4.386 1.967-4.386 4.386 0 1.009 0.347 1.938 0.924 2.681h-4.792c-0.557 0-1.009-0.705-1.009-1.262l0.954-6.073c1.486-7.346 7.111-7.808 7.669-7.808h1.977z" style="fill-opacity:.85;fill-rule:nonzero;fill:#fff"/>
 <defs>
  <linearGradient id="_Linear1" x2="1" gradientTransform="matrix(2.68823e-15,-43.9021,43.9021,2.68823e-15,66.9631,45.6922)" gradientUnits="userSpaceOnUse">
   <stop style="stop-color:#003778" offset="0"/>
   <stop style="stop-color:#5ea5fb" offset="1"/>
  </linearGradient>
 </defs>
</svg>
