<svg clip-rule="evenodd" fill-rule="evenodd" stroke-linejoin="round" stroke-miterlimit="2" viewBox="0 0 48 48" xmlns="http://www.w3.org/2000/svg">
 <linearGradient id="a" x2="1" gradientTransform="matrix(0 -43.3368 43.3368 0 52.7328 45.6684)" gradientUnits="userSpaceOnUse">
  <stop stop-color="#c7c7c7" offset="0"/>
  <stop stop-color="#f3f3f3" offset="1"/>
 </linearGradient>
 <path d="m45.668 8.56c0-3.438-2.79-6.228-6.228-6.228h-30.88c-3.438 0-6.228 2.79-6.228 6.228v30.88c0 3.438 2.79 6.228 6.228 6.228h30.88c3.438 0 6.228-2.79 6.228-6.228z" fill="url(#a)"/>
 <g fill-rule="nonzero">
  <path d="m37.251 25.538c.034 1.063.138 2.066.095 3.068-.13 3-1.366 5.524-3.423 7.668-2.239 2.325-5.014 3.725-8.065 4.633-.821.242-1.668.432-2.533.553.268-.147.545-.294.813-.45 2.844-1.599 5.229-3.665 6.794-6.578 1.081-2.005 1.565-4.157 1.547-6.431 0-.268-.034-.536-.052-.864-1.365.458-2.696.899-4.019 1.34-.026-.026-.043-.052-.069-.087 1.521-2.878 3.034-5.757 4.573-8.67 2.8 1.496 5.558 2.965 8.384 4.469-1.426.484-2.766.925-4.045 1.349z" fill="#488b9f"/>
  <path d="m23.161 38.512c-.778-.83-1.513-1.616-2.273-2.42-.147.095-.294.19-.432.285-1.911 1.314-3.942 2.36-6.233 2.853-3.812.812-7.01-.666-8.782-4.08-.043-.087-.086-.173-.138-.268.57.328 1.089.683 1.659.942 1.66.761 3.389.813 5.152.458 2.291-.467 4.313-1.53 6.302-2.826-.692-.735-1.349-1.444-2.075-2.213 3.432-.752 6.777-1.496 10.2-2.248-1.132 3.19-2.248 6.328-3.38 9.517z" fill="#27a75b"/>
  <path d="m33.344 17.775c-1.66-1.53-3.276-3.025-4.953-4.572 2.947-1.34 5.843-2.654 8.842-4.02-.388.865-.734 1.634-1.071 2.395.959.164 1.884.294 2.792.501 1.115.251 2.161.7 3.068 1.418 1.703 1.348 2.265 3.163 2.118 5.247-.13 1.806-.726 3.483-1.461 5.108-.017.035-.052.061-.026.035-.043-.899-.017-1.867-.147-2.801-.38-2.654-1.901-4.469-4.365-5.437-.994-.389-2.066-.57-3.103-.856-.251-.069-.363.035-.45.251-.406.89-.812 1.772-1.244 2.731z" fill="#9d54d3"/>
  <path d="m10.861 24.016c1.089 1.954 2.161 3.864 3.259 5.818-2.836 1.253-5.628 2.481-8.428 3.717-.026-.018-.052-.035-.069-.061.527-.959 1.045-1.919 1.59-2.904-.095-.052-.173-.104-.259-.139-2.559-1.045-3.518-2.835-2.965-5.566.311-1.547 1.547-4.158 2.593-5.316-.052.147-.104.294-.156.432-.44 1.262-.752 2.55-.458 3.89.363 1.651 1.539 2.532 3.017 3.094.078.026.277-.112.337-.216.45-.769.873-1.556 1.305-2.334.061-.129.13-.25.234-.415z" fill="#fcc624"/>
  <path d="m37.45 8.181c-4.893-1.064-9.094.406-13.07 3.172.657.424 1.271.813 1.953 1.245-2.783.873-5.48 1.72-8.28 2.602.968-2.058 1.893-4.02 2.843-6.043.389.242.77.441 1.107.701.302.233.518.207.821-.018 1.928-1.391 4.011-2.481 6.353-3.008 2.818-.631 5.489-.233 8.022 1.133.052.025.104.051.147.086.009.017.026.043.104.13z" fill="#ff5c46"/>
  <path d="m19.375 8.95c-2.559 1.426-4.685 3.198-5.506 6.267.804-.251 1.521-.484 2.368-.744-1.383 1.764-2.688 3.441-4.045 5.178-.951-.985-1.876-1.945-2.844-2.956.614-.199 1.167-.363 1.712-.571.147-.051.319-.207.363-.345.622-2.17 1.988-3.769 3.838-4.979 1.227-.804 2.558-1.366 3.941-1.824.061-.026.121-.017.173-.026z" fill="#ff8100"/>
 </g>
</svg>
