<?xml version="1.0" encoding="UTF-8" standalone="no"?><!DOCTYPE svg PUBLIC "-//W3C//DTD SVG 1.1//EN" "http://www.w3.org/Graphics/SVG/1.1/DTD/svg11.dtd"><svg width="100%" height="100%" viewBox="0 0 48 48" version="1.1" xmlns="http://www.w3.org/2000/svg" xmlns:xlink="http://www.w3.org/1999/xlink" xml:space="preserve" xmlns:serif="http://www.serif.com/" style="fill-rule:evenodd;clip-rule:evenodd;stroke-linejoin:round;stroke-miterlimit:2;"><path d="M45.668,8.56c0,-3.438 -2.79,-6.228 -6.228,-6.228l-30.88,0c-3.438,0 -6.228,2.79 -6.228,6.228l0,30.88c0,3.438 2.79,6.228 6.228,6.228l30.88,0c3.438,0 6.228,-2.79 6.228,-6.228l0,-30.88Z" style="fill:url(#_Linear1);"/><g><path d="M37.251,25.538c0.034,1.063 0.138,2.066 0.095,3.068c-0.13,3 -1.366,5.524 -3.423,7.668c-2.239,2.325 -5.014,3.725 -8.065,4.633c-0.821,0.242 -1.668,0.432 -2.533,0.553c0.268,-0.147 0.545,-0.294 0.813,-0.45c2.844,-1.599 5.229,-3.665 6.794,-6.578c1.081,-2.005 1.565,-4.157 1.547,-6.431c0,-0.268 -0.034,-0.536 -0.052,-0.864c-1.365,0.458 -2.696,0.899 -4.019,1.34c-0.026,-0.026 -0.043,-0.052 -0.069,-0.087c1.521,-2.878 3.034,-5.757 4.573,-8.67c2.8,1.496 5.558,2.965 8.384,4.469c-1.426,0.484 -2.766,0.925 -4.045,1.349Z" style="fill:#488b9f;fill-rule:nonzero;"/><path d="M23.161,38.512c-0.778,-0.83 -1.513,-1.616 -2.273,-2.42c-0.147,0.095 -0.294,0.19 -0.432,0.285c-1.911,1.314 -3.942,2.36 -6.233,2.853c-3.812,0.812 -7.01,-0.666 -8.782,-4.08c-0.043,-0.087 -0.086,-0.173 -0.138,-0.268c0.57,0.328 1.089,0.683 1.659,0.942c1.66,0.761 3.389,0.813 5.152,0.458c2.291,-0.467 4.313,-1.53 6.302,-2.826c-0.692,-0.735 -1.349,-1.444 -2.075,-2.213c3.432,-0.752 6.777,-1.496 10.2,-2.248c-1.132,3.19 -2.248,6.328 -3.38,9.517Z" style="fill:#27a75b;fill-rule:nonzero;"/><path d="M33.344,17.775c-1.66,-1.53 -3.276,-3.025 -4.953,-4.572c2.947,-1.34 5.843,-2.654 8.842,-4.02c-0.388,0.865 -0.734,1.634 -1.071,2.395c0.959,0.164 1.884,0.294 2.792,0.501c1.115,0.251 2.161,0.7 3.068,1.418c1.703,1.348 2.265,3.163 2.118,5.247c-0.13,1.806 -0.726,3.483 -1.461,5.108c-0.017,0.035 -0.052,0.061 -0.026,0.035c-0.043,-0.899 -0.017,-1.867 -0.147,-2.801c-0.38,-2.654 -1.901,-4.469 -4.365,-5.437c-0.994,-0.389 -2.066,-0.57 -3.103,-0.856c-0.251,-0.069 -0.363,0.035 -0.45,0.251c-0.406,0.89 -0.812,1.772 -1.244,2.731Z" style="fill:#9d54d3;fill-rule:nonzero;"/><path d="M10.861,24.016c1.089,1.954 2.161,3.864 3.259,5.818c-2.836,1.253 -5.628,2.481 -8.428,3.717c-0.026,-0.018 -0.052,-0.035 -0.069,-0.061c0.527,-0.959 1.045,-1.919 1.59,-2.904c-0.095,-0.052 -0.173,-0.104 -0.259,-0.139c-2.559,-1.045 -3.518,-2.835 -2.965,-5.566c0.311,-1.547 1.547,-4.158 2.593,-5.316c-0.052,0.147 -0.104,0.294 -0.156,0.432c-0.44,1.262 -0.752,2.55 -0.458,3.89c0.363,1.651 1.539,2.532 3.017,3.094c0.078,0.026 0.277,-0.112 0.337,-0.216c0.45,-0.769 0.873,-1.556 1.305,-2.334c0.061,-0.129 0.13,-0.25 0.234,-0.415Z" style="fill:#fcc624;fill-rule:nonzero;"/><path d="M37.45,8.181c-4.893,-1.064 -9.094,0.406 -13.07,3.172c0.657,0.424 1.271,0.813 1.953,1.245c-2.783,0.873 -5.48,1.72 -8.28,2.602c0.968,-2.058 1.893,-4.02 2.843,-6.043c0.389,0.242 0.77,0.441 1.107,0.701c0.302,0.233 0.518,0.207 0.821,-0.018c1.928,-1.391 4.011,-2.481 6.353,-3.008c2.818,-0.631 5.489,-0.233 8.022,1.133c0.052,0.025 0.104,0.051 0.147,0.086c0.009,0.017 0.026,0.043 0.104,0.13Z" style="fill:#ff5c46;fill-rule:nonzero;"/><path d="M19.375,8.95c-2.559,1.426 -4.685,3.198 -5.506,6.267c0.804,-0.251 1.521,-0.484 2.368,-0.744c-1.383,1.764 -2.688,3.441 -4.045,5.178c-0.951,-0.985 -1.876,-1.945 -2.844,-2.956c0.614,-0.199 1.167,-0.363 1.712,-0.571c0.147,-0.051 0.319,-0.207 0.363,-0.345c0.622,-2.17 1.988,-3.769 3.838,-4.979c1.227,-0.804 2.558,-1.366 3.941,-1.824c0.061,-0.026 0.121,-0.017 0.173,-0.026Z" style="fill:#ff8100;fill-rule:nonzero;"/></g><defs><linearGradient id="_Linear1" x1="0" y1="0" x2="1" y2="0" gradientUnits="userSpaceOnUse" gradientTransform="matrix(2.65361e-15,-43.3368,43.3368,2.65361e-15,52.7328,45.6684)"><stop offset="0" style="stop-color:#c7c7c7;stop-opacity:1"/><stop offset="1" style="stop-color:#f3f3f3;stop-opacity:1"/></linearGradient></defs></svg>