
<svg style="clip-rule:evenodd;fill-rule:evenodd;stroke-linejoin:round;stroke-miterlimit:1.41421" version="1.1" viewBox="0 0 48 48" xmlns="http://www.w3.org/2000/svg">
 <path d="m32.868 4.398c-0.074-0.412-0.309-0.778-0.654-1.015-0.344-0.238-0.769-0.328-1.181-0.251-5.01 0.939-20.69 3.88-25.664 4.813-0.848 0.159-1.408 0.971-1.256 1.82 1.06 5.917 4.879 27.234 5.947 33.194 0.074 0.412 0.309 0.778 0.654 1.015 0.344 0.238 0.769 0.328 1.181 0.251 5.01-0.939 20.69-3.88 25.664-4.813 0.848-0.159 1.408-0.971 1.256-1.82-1.06-5.917-4.879-27.234-5.947-33.194z" style="fill:#7f8691"/>
 <path d="m41.672 6.983c-3e-3 -1.016-0.822-1.84-1.838-1.849-5.702-0.053-23.1-0.214-28.866-0.268-0.496-4e-3 -0.973 0.19-1.325 0.54-0.351 0.349-0.548 0.825-0.547 1.321 0.022 6.683 0.095 29.256 0.117 35.864 3e-3 1.016 0.822 1.84 1.838 1.849 5.702 0.053 23.101 0.213 28.866 0.267 0.496 4e-3 0.973-0.19 1.325-0.54 0.351-0.349 0.548-0.825 0.547-1.321-0.022-6.682-0.095-29.255-0.117-35.863z" style="fill:url(#_Linear1)"/>
 <path d="m25.721 18.027c-4.554-0.05-8.509 2.593-10.353 6.448-0.057 0.117-0.058 0.254-5e-3 0.374 1.761 3.894 5.658 6.621 10.211 6.67 4.555 0.05 8.509-2.592 10.354-6.446 0.057-0.118 0.058-0.255 4e-3 -0.376-1.76-3.893-5.657-6.62-10.211-6.67zm-0.124 11.401c-2.571-0.028-4.631-2.135-4.603-4.704 0.028-2.572 2.135-4.631 4.704-4.603 2.572 0.027 4.632 2.134 4.604 4.704-0.028 2.569-2.135 4.631-4.705 4.603zm0.083-7.635c1.644 0.017 2.965 1.368 2.947 3.012-0.018 1.643-1.367 2.964-3.011 2.946-1.645-0.017-2.966-1.367-2.948-3.011 0.018-1.645 1.368-2.965 3.012-2.947z" style="fill-opacity:.839216;fill-rule:nonzero;fill:#fff"/>
 <defs>
  <linearGradient id="_Linear1" x2="1" gradientTransform="matrix(.809639 -37.2434 37.2434 .809639 24.9542 43.547)" gradientUnits="userSpaceOnUse">
   <stop style="stop-color:#1586da" offset="0"/>
   <stop style="stop-color:#1cb2ff" offset="1"/>
  </linearGradient>
 </defs>
</svg>
