<svg style="clip-rule:evenodd;fill-rule:evenodd;stroke-linejoin:round;stroke-miterlimit:2" version="1.1" viewBox="0 0 48 48" xmlns="http://www.w3.org/2000/svg">
 <circle cx="24" cy="24" r="22.764" style="fill:url(#_Linear1)"/>
 <path d="m25.918 10.147c-2.221 0.169-3.827 1.593-4.741 4.266-1.328 3.855-3.57 6.149-7.501 7.646-2.326 0.881-3.143 1.473-3.867 2.865-0.583 1.119-0.705 2.761-0.326 4.131 0.254 0.914 1.569 2.423 2.599 2.958 0.97 0.511 2.797 0.576 5.489 0.164 1.578-0.241 1.96-0.253 3.413 0.032 2.04 0.403 3.969 1.377 5.618 2.801 1.525 1.32 2.133 1.634 3.312 1.824 1.143 0.177 2.024 0.065 3.183-0.422 1.031-0.435 2.169-1.598 2.633-2.673 0.173-0.394 0.322-1.271 0.325-1.984 4e-3 -1.537-0.467-2.588-1.69-4.004-1.195-1.381-2.044-2.757-2.536-4.101-0.58-1.593-0.704-4.796-0.257-6.801 0.498-2.246 0.08-3.802-1.396-5.202-1.043-0.986-1.883-1.385-3.284-1.497-0.343-0.028-0.657-0.024-0.974 0m-2.145 10.152c1.138-0.027 2.318 0.399 3.251 1.3 2.31 2.242 1.763 5.848-1.106 7.292-0.906 0.455-2.383 0.555-3.409 0.226-0.969-0.31-2.132-1.288-2.664-2.278-0.23-0.418-0.323-1.102-0.326-2.02-4e-3 -1.151 0.085-1.482 0.552-2.278 0.837-1.429 2.237-2.21 3.702-2.242" style="fill-opacity:.84;fill-rule:nonzero;fill:#fff"/>
 <defs>
  <linearGradient id="_Linear1" x2="1" gradientTransform="matrix(2.78782e-15,-45.5286,45.5286,2.78782e-15,210.895,46.7643)" gradientUnits="userSpaceOnUse">
   <stop style="stop-color:#e12e2e" offset="0"/>
   <stop style="stop-color:#f64f4f" offset="1"/>
  </linearGradient>
 </defs>
</svg>
