<svg clip-rule="evenodd" fill-rule="evenodd" stroke-linejoin="round" stroke-miterlimit="2" viewBox="0 0 48 48" xmlns="http://www.w3.org/2000/svg">
 <linearGradient id="a" x2="1" gradientTransform="matrix(0 -45.5294 45.5294 0 210.898 46.7647)" gradientUnits="userSpaceOnUse">
  <stop stop-color="#1940ae" offset="0"/>
  <stop stop-color="#3077b6" offset="1"/>
 </linearGradient>
 <circle cx="24" cy="24" r="22.764" fill="url(#a)"/>
 <path transform="matrix(1.2354 0 0 1.2354 -5.64952 -5.64952)" d="m23.056 37.114c-1.111-2.018-1.155-3.138-.185-4.735l.551-.906-1.197-.952c-1.839-1.463-2.45-2.403-2.45-3.774 0-1.127.646-2.576 1.148-2.576.121 0 .219-.129.219-.285 0-.157-.589-.389-1.31-.516-1.65-.291-2.544-.932-2.559-1.833-.009-.602.894-1.302 2.661-2.064 1.363-.588 1.86-.93 1.639-1.127-.174-.156-.65-.197-1.057-.092-.426.111-.741.057-.741-.126 0-.174-.486-.322-1.082-.327-2.013-.02-2.362-.057-2.614-.277-.138-.121-.552-.253-.921-.294-.368-.041-.822-.289-1.007-.551-.298-.422-.209-.504.764-.706 1.487-.308 2.919-1.236 3.96-2.566 1.856-2.37 2.426-2.533 2.883-.821.223.834 1.146 1.752 1.414 1.405.051-.067-.095-.616-.325-1.22-.396-1.039-.398-1.144-.032-1.934.466-1.004 1.486-1.127 2.05-.247.481.753.48 1.615-.005 2.372-.585.914-.057 1.495.712.783.319-.296.581-.68.581-.853s.207-.607.461-.966c.553-.782.933-.571 2.5 1.39 1.211 1.516 2.431 2.327 3.959 2.633.999.2 1.077.274.764.716-.192.271-.641.526-.998.566-.358.041-.83.185-1.049.321-.22.136-.649.159-.954.051-.306-.109-.623-.042-.706.149-.093.21-.49.265-1.016.139-.536-.128-.923-.072-1.019.148-.093.213-.456.275-.909.155-.432-.115-.815-.057-.899.135-.088.201.514.609 1.511 1.023 1.994.828 2.683 1.404 2.683 2.242 0 .876-.813 1.533-2.221 1.794-.658.122-1.196.292-1.196.379s.308.653.683 1.258c.745 1.198.822 1.716.42 2.79-.306.815-.744 1.296-2.413 2.654l-1.211.984.469.766c.259.421.527 1.137.597 1.591.069.455.167 1.011.216 1.236.121.554-1.453 2.976-1.919 2.954-.205-.01-.587-.408-.85-.886zm2.414-2.292c0-.718-.856-2.601-1.182-2.601-.102 0-.185 1.237-.185 2.749v2.748l.683-1.1c.376-.605.684-1.413.684-1.796zm-1.611.359c-.009-1.008-.096-2.123-.195-2.477-.163-.589-.221-.547-.672.483-.525 1.2-.495 2.147.111 3.472.504 1.1.774.572.756-1.478zm-.212-7.629c0-3.042-.003-3.059-.564-3.059-1.002 0-2.39.977-2.533 1.784-.232 1.306.128 2.035 1.574 3.194.775.622 1.435 1.132 1.467 1.135.031.003.057-1.372.057-3.054zm2.187 1.901c1.509-1.13 1.686-1.37 1.686-2.284 0-1.265-.402-1.981-1.313-2.338-1.853-.728-1.876-.697-1.876 2.56 0 1.594.087 2.898.194 2.898.106 0 .696-.376 1.309-.836zm-2.272-7.255c-.078-.553-.142-1.713-.142-2.576s-.102-1.57-.225-1.57c-.124 0-.201.313-.171.695.048.623-.181.781-2.224 1.535-3.054 1.128-3.054 1.615 0 2.325 3.134.729 2.927.76 2.762-.409zm4.394.254c.804-.206 1.503-.547 1.552-.757.089-.378-2.065-1.429-3.868-1.887-.891-.227-1.109-.671-.493-1.006.291-.157.302-.249.057-.468-.577-.517-.645-.272-.645 2.314v2.596l.968-.208c.532-.115 1.625-.377 2.429-.584z" fill="#fff" fill-rule="nonzero"/>
</svg>
