<svg style="clip-rule:evenodd;fill-rule:evenodd;stroke-linejoin:round;stroke-miterlimit:1.41421" version="1.1" viewBox="0 0 48 48" xmlns="http://www.w3.org/2000/svg">
 <circle cx="24" cy="24" r="22" style="fill:url(#_Linear1)"/>
 <path d="m11.114 30.937c0.335-0.171 0.871-0.58 1.19-0.91 0.319-0.329 0.655-0.598 0.746-0.598 0.092 0 0.305 0.271 0.474 0.603 0.499 0.979 1.172 1.261 2.375 0.995 0.443-0.098 1.404-0.976 1.404-1.282 0-0.069-0.265-0.169-0.59-0.221-0.402-0.064-0.716-0.243-0.983-0.559-0.515-0.612-0.518-1.554-0.013-3.439 0.207-0.775 0.377-1.566 0.377-1.759 0-0.432-0.593-0.844-1.365-0.948-0.665-0.089-0.585-0.253-1.122 2.302-0.428 2.037-0.792 2.711-1.876 3.473-0.549 0.386-0.793 0.457-1.555 0.457-0.866 0-0.93-0.027-1.489-0.625-0.337-0.362-0.658-0.904-0.761-1.285-0.246-0.908-0.111-2.621 0.273-3.488 0.469-1.057 1.542-2.123 2.645-2.625 0.842-0.384 1.104-0.429 2.454-0.421 1.697 0.01 2.528 0.245 3.43 0.968 0.307 0.246 0.591 0.393 0.633 0.326 0.123-0.199-0.204-1.422-0.515-1.926-0.654-1.058-2.752-1.68-4.799-1.423-3.886 0.488-6.386 3.504-6.38 7.697 3e-3 2.625 0.911 4.331 2.643 4.972 0.631 0.233 2.077 0.087 2.804-0.284zm10.714 0.158c0.618-0.177 1.37-0.859 1.37-1.241 0-0.203-0.116-0.274-0.451-0.274-0.283 0-0.632-0.161-0.936-0.433-0.432-0.386-0.492-0.539-0.544-1.398-0.049-0.798 0.077-1.489 0.729-3.988 1.085-4.165 1.057-3.855 0.35-3.851-0.777 5e-3 -1.736 0.236-1.868 0.45-0.145 0.234-1.187 5.561-1.345 6.877-0.242 2.003 0.162 3.38 1.111 3.793 0.56 0.244 0.908 0.259 1.584 0.065zm19.514-0.192c0.636-0.321 1.124-0.933 0.959-1.201-0.042-0.067-0.313-0.122-0.603-0.122-0.363 0-0.646-0.119-0.914-0.387-0.361-0.361-0.382-0.46-0.312-1.473 0.042-0.598 0.225-1.767 0.409-2.599 0.388-1.761 0.347-2.905-0.141-3.913-0.773-1.596-2.871-1.529-4.683 0.149-0.481 0.445-0.922 0.763-0.979 0.705-0.058-0.057-0.233-0.394-0.389-0.748-0.738-1.668-3.026-1.678-4.745-0.021-0.742 0.715-1.153 0.84-1.153 0.349 0-0.441-0.455-1.124-0.902-1.355-1.148-0.594-3.028 0.025-3.203 1.055-0.044 0.258 0.054 0.314 0.685 0.387 1.448 0.167 1.508 0.65 0.655 5.301-0.372 2.026-0.626 3.738-0.565 3.805s0.546 0.101 1.078 0.076l0.967-0.046 0.172-0.756c0.095-0.415 0.318-1.528 0.497-2.473 0.742-3.941 2.216-6.073 3.662-5.299 0.418 0.224 0.733 1.044 0.732 1.91 0 0.398-0.238 1.982-0.528 3.519-0.291 1.538-0.529 2.885-0.529 2.992 0 0.146 0.276 0.185 1.092 0.151l1.093-0.044 0.41-2.245c0.478-2.611 0.982-4.216 1.652-5.261 1.071-1.668 2.682-1.559 3.018 0.205 0.127 0.663 0.023 1.616-0.384 3.522-0.398 1.866-0.242 3.108 0.466 3.726 0.586 0.51 1.579 0.547 2.483 0.091zm-17.95-13.318c1.108-0.469 1.441-1.635 0.66-2.308-0.725-0.624-2.396-0.393-2.814 0.389-0.274 0.511-0.185 1.289 0.184 1.626 0.592 0.538 1.182 0.626 1.97 0.293z" style="fill-rule:nonzero;fill:#f3f3f3"/>
 <defs>
  <linearGradient id="_Linear1" x2="1" gradientTransform="matrix(1.73745,-54.0925,54.0925,1.73745,23.184,47.4217)" gradientUnits="userSpaceOnUse">
   <stop style="stop-color:#00aad4" offset="0"/>
   <stop style="stop-color:#0cf" offset="1"/>
  </linearGradient>
 </defs>
</svg>
