
<svg style="clip-rule:evenodd;fill-rule:evenodd;stroke-linejoin:round;stroke-miterlimit:1.41421" version="1.1" viewBox="0 0 64 64" xmlns="http://www.w3.org/2000/svg">
 <path d="m28.699 12c-7.491-8e-3 -12.16 4.875-14.332 9.402-5.998 2.274-10.367 8.02-10.367 14.739 0 8.638 7.147 15.859 15.813 15.859h24.374c8.666 0 15.813-7.22 15.813-15.859 0-8.64-7.147-15.864-15.813-15.864-0.082 0-0.164 2e-3 -0.246 4e-3 -0.069 3e-3 -0.129 0.04-0.199 0.043-0.506-0.278-1.037-0.417-1.578-0.633-3.941-4.801-5.974-7.683-13.465-7.691z" style="fill-rule:nonzero;fill:url(#_Linear1)"/>
 <path d="m28.7 20c-4.315 0-7.813 3.52-7.813 7.861 6e-3 0.198 0.021 0.394 0.042 0.586-0.355-0.072-0.727-0.129-1.116-0.169-4.315 0-7.813 3.519-7.813 7.861 0 4.341 3.498 7.861 7.813 7.861h24.374c4.314 0 7.813-3.52 7.813-7.861 0-4.342-3.499-7.861-7.813-7.861-0.861 0.026-1.663 0.207-2.398 0.51-1.093-1.394-2.788-2.289-4.69-2.289-0.242 0.014-0.474 0.022-0.698 0.042-0.624-3.713-3.835-6.54-7.702-6.54l1e-3 -1e-3z" style="fill-rule:nonzero;fill:#33b3bc"/>
 <defs>
  <linearGradient id="_Linear1" x2="1" gradientTransform="matrix(-5.2241,-38.7855,38.7855,-5.2241,33.9181,51.894)" gradientUnits="userSpaceOnUse">
   <stop style="stop-color:#004c84" offset="0"/>
   <stop style="stop-color:#006680" offset="1"/>
  </linearGradient>
 </defs>
</svg>
