<svg clip-rule="evenodd" fill-rule="evenodd" stroke-linejoin="round" stroke-miterlimit="1.41421" viewBox="0 0 64 64" xmlns="http://www.w3.org/2000/svg">
 <linearGradient id="a" x2="1" gradientTransform="matrix(-5.2241 -38.7855 38.7855 -5.2241 33.9181 51.894)" gradientUnits="userSpaceOnUse">
  <stop stop-color="#004c84" offset="0"/>
  <stop stop-color="#006680" offset="1"/>
 </linearGradient>
 <g fill-rule="nonzero">
  <path d="m28.699 12c-7.491-.008-12.16 4.875-14.332 9.402-5.998 2.274-10.367 8.02-10.367 14.739 0 8.638 7.147 15.859 15.813 15.859h24.374c8.666 0 15.813-7.22 15.813-15.859 0-8.64-7.147-15.864-15.813-15.864-.082 0-.164.002-.246.004-.069.003-.129.04-.199.043-.506-.278-1.037-.417-1.578-.633-3.941-4.801-5.974-7.683-13.465-7.691z" fill="url(#a)"/>
  <path d="m28.7 20c-4.315 0-7.813 3.52-7.813 7.861.006.198.021.394.042.586-.355-.072-.727-.129-1.116-.169-4.315 0-7.813 3.519-7.813 7.861 0 4.341 3.498 7.861 7.813 7.861h24.374c4.314 0 7.813-3.52 7.813-7.861 0-4.342-3.499-7.861-7.813-7.861-.861.026-1.663.207-2.398.51-1.093-1.394-2.788-2.289-4.69-2.289-.242.014-.474.022-.698.042-.624-3.713-3.835-6.54-7.702-6.54z" fill="#33b3bc"/>
 </g>
</svg>
