<svg style="clip-rule:evenodd;fill-rule:evenodd;stroke-linejoin:round;stroke-miterlimit:2" version="1.1" viewBox="0 0 48 48" xmlns="http://www.w3.org/2000/svg">
 <path d="m45.668 8.56c0-3.438-2.79-6.228-6.228-6.228h-30.88c-3.438 0-6.228 2.79-6.228 6.228v30.88c0 3.438 2.79 6.228 6.228 6.228h30.88c3.438 0 6.228-2.79 6.228-6.228v-30.88z" style="fill:url(#_Linear1)"/>
 <path d="m39.44 2.332c3.413 0 6.188 2.75 6.228 6.154h-43.336c0.04-3.404 2.815-6.154 6.228-6.154h30.88z" style="fill:#ec4b02"/>
 <rect x="6.508" y="10.881" width="34.985" height="28.425" style="fill:#14232b"/>
 <path d="m22.012 27.471-0.623 1.511c1.676 5.16 1.676 5.16 2.611 9.661 0.935-4.501 0.935-4.501 2.611-9.661l-0.623-1.511-1.988-4.815-1.988 4.815z" style="fill-rule:nonzero;fill:#3c98fe"/>
 <path d="m21.785 11.974h4.43l9.811 24.052h-4.114l-7.912-18.37-7.912 18.37h-4.114l9.811-24.052z" style="fill-rule:nonzero;fill:#ec7a02"/>
 <defs>
  <linearGradient id="_Linear1" x2="1" gradientTransform="matrix(.23263 -37.2208 37.2208 .23263 24.4601 45.6583)" gradientUnits="userSpaceOnUse">
   <stop style="stop-color:#848484" offset="0"/>
   <stop style="stop-color:#959595" offset="1"/>
  </linearGradient>
 </defs>
</svg>
