<svg style="clip-rule:evenodd;fill-rule:evenodd;stroke-linejoin:round;stroke-miterlimit:2" version="1.1" viewBox="0 0 48 48" xmlns="http://www.w3.org/2000/svg">
 <path d="m43.679 5.602c0-0.707-0.574-1.281-1.281-1.281h-36.796c-0.707 0-1.281 0.574-1.281 1.281v1.811c0 0.707 0.574 1.281 1.281 1.281h36.796c0.707 0 1.281-0.574 1.281-1.281v-1.811z" style="fill:#ec4b02"/>
 <path d="m45.866 8.637c0-1.175-0.954-2.129-2.129-2.129h-39.474c-1.175 0-2.129 0.954-2.129 2.129v32.913c0 1.175 0.954 2.129 2.129 2.129h39.474c1.175 0 2.129-0.954 2.129-2.129v-32.913z" style="fill:#959595"/>
 <rect x="6.508" y="10.881" width="34.985" height="28.425" style="fill:#14232b"/>
 <path d="m22.012 27.471l-0.623 1.511c1.676 5.16 1.676 5.16 2.611 9.661 0.935-4.501 0.935-4.501 2.611-9.661l-0.623-1.511-1.988-4.815-1.988 4.815z" style="fill-rule:nonzero;fill:#3c98fe"/>
 <path d="m21.785 11.974h4.43l9.811 24.052h-4.114l-7.912-18.37-7.912 18.37h-4.114l9.811-24.052z" style="fill-rule:nonzero;fill:#ec7a02"/>
</svg>
