<svg style="clip-rule:evenodd;fill-rule:evenodd;stroke-linejoin:round;stroke-miterlimit:2" version="1.1" viewBox="0 0 48 48" xmlns="http://www.w3.org/2000/svg">
 <path d="m45.668 8.56c0-3.438-2.79-6.228-6.228-6.228h-30.88c-3.438 0-6.228 2.79-6.228 6.228v30.88c0 3.438 2.79 6.228 6.228 6.228h30.88c3.438 0 6.228-2.79 6.228-6.228v-30.88z" style="fill:url(#_Linear1)"/>
 <path d="m41.017 25.853c-4.553 5.703-0.143 0.249-4.494 5.733-1.515 0.906-4.292 1.591-5.548 1.33-1.76-0.265-3.689-2.237-5.103-4.189-1.79-2.471-3.101-5.922-4.915-8.043-1.683-1.967-4.075-3.177-6.349-1.58-1.123 0.791-2.22 2.213-3.071 3.735-1.358 2.429-0.573 5.587 2.985 6.276 2.8 0.241 4.217-0.135 7.931-1.791 4.787-2.243 8.199-5.177 17.314-12.097-5.092 5.288-0.266 0.136-5.258 5.392-2.536 2.669-7.612 5.721-12.938 8.826-2.524 1.447-4.742 2.369-7.986 3.159-1.942 0.474-4.801 0.913-5.427-1.148-0.652-2.147 0.904-5.459 1.229-6.176 2.447-5.412 6.102-11.032 12.492-10.197 6.094 0.796 6.381 10.304 10.93 12.802 2.24 1.231 3.911 0.216 8.208-2.032z" style="fill-rule:nonzero;fill:#00dada"/>
 <defs>
  <linearGradient id="_Linear1" x2="1" gradientTransform="matrix(2.65364e-15,-43.3373,43.3373,2.65364e-15,201.9,45.6687)" gradientUnits="userSpaceOnUse">
   <stop style="stop-color:#535353" offset="0"/>
   <stop style="stop-color:#7a7a7a" offset="1"/>
  </linearGradient>
 </defs>
</svg>
