<svg style="clip-rule:evenodd;fill-rule:evenodd;stroke-linejoin:round;stroke-miterlimit:2" version="1.1" viewBox="0 0 48 48" xmlns="http://www.w3.org/2000/svg">
 <path d="m39.386 2.835c0-1.145-0.93-2.075-2.075-2.075h-31.669c-1.145 0-2.075 0.93-2.075 2.075v39.038c0 1.145 0.93 2.075 2.075 2.075h31.669c1.145 0 2.075-0.93 2.075-2.075v-39.038z" style="fill:url(#_Linear1)"/>
 <path d="m44.367 6.031c0-1.145-0.93-2.075-2.075-2.075h-31.669c-1.145 0-2.075 0.93-2.075 2.075v39.038c0 1.145 0.93 2.075 2.075 2.075h31.669c1.145 0 2.075-0.93 2.075-2.075v-39.038z" style="fill:url(#_Linear2)"/>
 <path d="m33.523 22.886l-0.017-2.888c-0.025-3.918-3.233-7.087-7.151-7.063-3.919 0.025-7.088 3.233-7.063 7.151l0.017 2.888c-0.559 0.12-0.978 0.621-0.974 1.216l0.067 10.82c4e-3 0.681 0.562 1.232 1.244 1.228l13.705-0.085c0.682-4e-3 1.233-0.562 1.229-1.244l-0.067-10.82c-4e-3 -0.594-0.429-1.089-0.99-1.203zm-5.389 9.257c0.026 0.134-0.064 0.243-0.2 0.244l-2.885 0.018c-0.136 1e-3 -0.227-0.108-0.203-0.242l0.444-2.437c-0.349-0.315-0.57-0.771-0.574-1.278-6e-3 -0.958 0.766-1.739 1.724-1.745s1.739 0.766 1.745 1.723c3e-3 0.494-0.201 0.941-0.531 1.259l0.48 2.458zm2.917-9.268l-9.269 0.057-0.018-2.861c-0.016-2.555 2.05-4.647 4.606-4.663 2.555-0.016 4.647 2.05 4.663 4.606l0.018 2.861z" style="fill-opacity:.68;fill-rule:nonzero"/>
 <defs>
  <linearGradient id="_Linear1" x2="1" gradientTransform="matrix(-.116223 -43.188 43.188 -.116223 16.3002 43.948)" gradientUnits="userSpaceOnUse">
   <stop style="stop-color:#b74014" offset="0"/>
   <stop style="stop-color:#ff7d7d" offset="1"/>
  </linearGradient>
  <linearGradient id="_Linear2" x2="1" gradientTransform="matrix(-.116223 -43.188 43.188 -.116223 21.2812 47.1441)" gradientUnits="userSpaceOnUse">
   <stop style="stop-color:#d88c0b" offset="0"/>
   <stop style="stop-color:#e7c44d" offset="1"/>
  </linearGradient>
 </defs>
</svg>
