<svg style="clip-rule:evenodd;fill-rule:evenodd;stroke-linejoin:round;stroke-miterlimit:2" version="1.1" viewBox="0 0 48 48" xmlns="http://www.w3.org/2000/svg">
 <path d="m45.668 8.56c0-3.438-2.79-6.228-6.228-6.228h-30.88c-3.438 0-6.228 2.79-6.228 6.228v30.88c0 3.438 2.79 6.228 6.228 6.228h30.88c3.438 0 6.228-2.79 6.228-6.228v-30.88z" style="fill:url(#_Linear1)"/>
 <path d="m38.873 7.236c0.029 0 0.057 0.017 0.085 0.051l6.67 8.04 9e-3 24.733c-0.3 3.035-2.782 5.432-5.854 5.599l-27.097 9e-3s-4.033-5.244-4.033-5.244c-0.179-0.214-0.311-1.079-0.311-2.12l-7e-3 -23.64 1.324 1.597-1e-3 -1.562c-0.122-0.236-0.185-0.429-0.114-0.485l1.169-0.929-2.379-2.868-1e-3 -0.998c0-1.202 0.175-2.17 0.395-2.172h0.53c0.029 0 0.059 0.018 0.087 0.052l8.863 10.685-4e-3 -8.569c0-1.202 0.177-2.171 0.397-2.172h0.528c0.029 0 0.059 0.018 0.087 0.052l8.863 10.685-4e-3 -8.567c0-1.203 0.177-2.174 0.397-2.174l0.53 1e-3c0.029-1e-3 0.057 0.017 0.085 0.051l8.863 10.685 1e-3 -0.09 1.322 1.594-1e-3 -1.546 0.076 0.092c-0.381-0.482-0.591-0.946-0.47-1.042l1.083-0.861-2.01-2.423-3e-3 -4.291c0-1.203 0.175-2.172 0.395-2.172l0.53-1e-3z" style="fill-opacity:.18;fill-rule:nonzero"/>
 <path d="m9.258 7.247c0.219 0 0.397 0.969 0.397 2.172l1e-3 1.006c0.918 0.292 1.545 1.15 1.547 2.114 0 0.963-0.627 1.822-1.545 2.115l6e-3 23.65c1e-3 1.203-0.175 2.171-0.394 2.172h-0.53c-0.22 0-0.397-0.968-0.398-2.172l-7e-3 -23.639c-0.932-0.285-1.573-1.15-1.574-2.124 1e-3 -0.974 0.642-1.839 1.573-2.123l-1e-3 -0.999c0-1.203 0.175-2.171 0.395-2.172h0.53zm9.871-4e-3h-0.528c-0.22 0-0.397 0.969-0.397 2.172l9e-3 26.82c-0.932 0.283-1.575 1.148-1.576 2.123-1e-3 1.141 0.878 2.106 2.015 2.212 0.068 6e-3 0.137 9e-3 0.206 9e-3 1.141 1e-3 2.106-0.879 2.212-2.015 7e-3 -0.069 0.01-0.139 0.01-0.208-1e-3 -0.962-0.627-1.82-1.543-2.113l-0.011-26.828c0-1.203-0.178-2.171-0.397-2.171v-1e-3zm9.873-3e-3h-0.53c-0.22-1e-3 -0.397 0.97-0.397 2.173l7e-3 18.852c-0.929 0.286-1.567 1.15-1.567 2.121 1e-3 0.973 0.64 1.837 1.569 2.122l2e-3 5.789c1e-3 1.203 0.178 2.173 0.398 2.173l0.528-2e-3c0.219 0 0.397-0.969 0.396-2.172l-1e-3 -5.796c0.92-0.292 1.55-1.151 1.551-2.116-1e-3 -0.965-0.632-1.825-1.553-2.116l-7e-3 -18.857c-1e-3 -1.203-0.177-2.171-0.396-2.171zm9.871-4e-3c0.219 0 0.397 0.97 0.397 2.173l1e-3 4.243c0.962 0.263 1.635 1.142 1.637 2.14 0 0.998-0.673 1.879-1.636 2.142l7e-3 20.36c1e-3 1.204-0.175 2.173-0.394 2.172h-0.53c-0.22 0-0.397-0.968-0.398-2.171l-6e-3 -20.409c-0.886-0.312-1.483-1.153-1.484-2.092 0-0.94 0.597-1.782 1.483-2.094l-2e-3 -4.29c0-1.204 0.175-2.173 0.395-2.172l0.53-2e-3z" style="fill-rule:nonzero;fill:#2aefff"/>
 <defs>
  <linearGradient id="_Linear1" x2="1" gradientTransform="matrix(.233606 -42.2713 42.2713 .233606 281.516 46.5677)" gradientUnits="userSpaceOnUse">
   <stop style="stop-color:#626262" offset="0"/>
   <stop style="stop-color:#9f9f9f" offset="1"/>
  </linearGradient>
 </defs>
</svg>
