
<svg style="clip-rule:evenodd;fill-rule:evenodd;stroke-linejoin:round;stroke-miterlimit:1.41421" version="1.1" viewBox="0 0 64 64" xmlns="http://www.w3.org/2000/svg">
 <path d="m38.875 10.863c-5.888-0.061-11.602 0.501-17.515 3.315-10.522 5.008-16.428 14.43-17.241 24.656 0.103 1.157 0.271 2.309 0.514 3.449 0.081 0.382 0.277 0.723 0.564 0.985 9.653 8.807 24.988 10.479 37.828 3 10.07-5.866 16.043-15.876 16.856-26.102-0.103-1.157-0.271-2.309-0.514-3.449-0.081-0.382-0.202-0.846-0.564-0.985-7.839-2.996-12.357-4.789-19.928-4.869z" style="fill-rule:nonzero;fill:#e4e4e4"/>
 <path d="m24.888 19.899c8.126-4.691 18.531-1.903 23.223 6.223 4.691 8.125 1.903 18.531-6.223 23.222-8.125 4.691-18.531 1.903-23.222-6.222-4.692-8.126-1.903-18.531 6.222-23.223z" style="fill:url(#_Linear1)"/>
 <path d="m29.388 27.694c3.824-2.208 8.721-0.896 10.928 2.928 2.208 3.824 0.896 8.72-2.928 10.928s-8.72 0.896-10.928-2.928-0.896-8.721 2.928-10.928z" style="fill-opacity:.957;fill:#1b1b1b"/>
 <path d="m59.557 17.695c2.221 12.563-4.003 26.275-16.531 33.572-12.841 7.479-28.176 5.809-37.828-2.999-0.287-0.261-0.483-0.604-0.564-0.985-0.641-3.007-0.789-6.093-0.475-9.15 0.03-0.296 0.072-0.582 0.124-0.859-0.068 0.519-0.122 1.039-0.164 1.56 0.103 1.157 0.271 2.309 0.514 3.449 0.081 0.382 0.277 0.723 0.564 0.985 9.653 8.807 24.988 10.479 37.828 3 10.07-5.866 16.043-15.876 16.856-26.102-0.074-0.827-0.181-1.652-0.324-2.471z" style="fill-rule:nonzero;fill:#9a0000"/>
 <defs>
  <linearGradient id="_Linear1" x2="1" gradientTransform="matrix(29.4449,-17,17,29.4449,18.6658,43.1218)" gradientUnits="userSpaceOnUse">
   <stop style="stop-color:#0038bd" offset="0"/>
   <stop style="stop-color:#1c93e1" offset="1"/>
  </linearGradient>
 </defs>
</svg>
