<svg clip-rule="evenodd" fill-rule="evenodd" stroke-linejoin="round" stroke-miterlimit="2" viewBox="0 0 64 64" xmlns="http://www.w3.org/2000/svg">
 <linearGradient id="a" x2="1" gradientTransform="matrix(29.4449 -17 17 29.4449 272.275 482.17)" gradientUnits="userSpaceOnUse">
  <stop stop-color="#7ba300" offset="0"/>
  <stop stop-color="#97c800" offset="1"/>
 </linearGradient>
 <path d="m42.718 49.339c-13.456 6.306-26.403 4.036-37.52-1.071-.973-2.951 2.121-26.624 15.702-32.692 14.152-6.322 21.467-5.804 37.902.156.366.133 2.218 25.03-16.084 33.607z" fill="#4b4e30" fill-rule="nonzero"/>
 <path d="m10.254 28.967c2.504-5.44 6.113-10.496 11.206-12.771 9.278-4.145 15.144-5.216 22.868-4.045 1.422 1.332 2.674 2.892 3.698 4.666 5.6 9.7 2.272 22.121-7.429 27.722-9.699 5.6-22.121 2.272-27.721-7.428-1.491-2.582-2.349-5.357-2.622-8.144z" fill="url(#a)"/>
 <path d="m25.675 18.693c4.565-2.636 10.411-1.069 13.046 3.496s1.069 10.41-3.496 13.045c-4.565 2.636-10.409 1.07-13.045-3.495s-1.07-10.41 3.495-13.046z" fill="#262626" fill-opacity=".96"/>
</svg>
