<svg style="clip-rule:evenodd;fill-rule:evenodd;stroke-linejoin:round;stroke-miterlimit:2" version="1.1" viewBox="0 0 48 48" xmlns="http://www.w3.org/2000/svg">
 <path d="m45.668 8.56c0-3.438-2.79-6.228-6.228-6.228h-30.88c-3.438 0-6.228 2.79-6.228 6.228v30.88c0 3.438 2.79 6.228 6.228 6.228h30.88c3.438 0 6.228-2.79 6.228-6.228v-30.88z" style="fill:url(#_Linear1)"/>
 <path d="m20.437 10.772-1.17 0.676 1.619 2.804c-2.959 1.43-2.971 4.765-2.971 4.765h12.17s-0.014-3.335-2.971-4.765l1.619-2.804-1.17-0.676-1.751 3.031c-0.537-0.12-1.129-0.195-1.809-0.195-0.682 0-1.277 0.075-1.815 0.195l-1.751-3.031zm0.861 5.54c0.375 0 0.674 0.302 0.674 0.674s-0.303 0.679-0.674 0.679c-0.374 0-0.679-0.303-0.679-0.679 0-0.372 0.305-0.674 0.679-0.674zm5.409 0c0.375 0 0.674 0.302 0.674 0.674s-0.303 0.679-0.674 0.679c-0.374 0-0.679-0.303-0.679-0.679 0-0.372 0.305-0.674 0.679-0.674zm5.466 3.379c-0.778 0-1.412 0.717-1.412 1.6v6.261c0 0.883 0.634 1.604 1.412 1.604 0.777 0 1.293-0.721 1.293-1.604v-6.261c0-0.885-0.514-1.601-1.293-1.601m-14.258 1e-3v11.494c-1e-3 0.319 0.357 0.676 0.676 0.676h2.028v2.536c0 0.841 0.536 1.521 1.353 1.521 0.811 0 1.379-0.681 1.352-1.521v-2.535h1.352v2.535c0 0.841 0.536 1.521 1.352 1.521 0.812 0 1.353-0.692 1.353-1.521v-2.535h2.028c0.319 0 0.676-0.357 0.676-0.677v-11.493l-12.17-1e-3zm-1.969 0c-0.778 0-1.412 0.717-1.412 1.6v6.261c0 0.883 0.634 1.604 1.412 1.604s1.293-0.721 1.293-1.604v-6.261c0-0.885-0.514-1.601-1.293-1.601" style="fill-rule:nonzero;fill:url(#_Linear2)"/>
 <defs>
  <linearGradient id="_Linear1" x2="1" gradientTransform="matrix(2.65364e-15,-43.3373,43.3373,2.65364e-15,201.9,45.6687)" gradientUnits="userSpaceOnUse">
   <stop style="stop-color:#087e14" offset="0"/>
   <stop style="stop-color:#29bd5c" offset="1"/>
  </linearGradient>
  <linearGradient id="_Linear2" x2="1" gradientTransform="matrix(1.53978e-15,-25.1465,25.1465,1.53978e-15,294.878,35.9182)" gradientUnits="userSpaceOnUse">
   <stop style="stop-color:#b6b6b6" offset="0"/>
   <stop style="stop-color:#fff" offset="1"/>
  </linearGradient>
 </defs>
</svg>
