<svg style="clip-rule:evenodd;fill-rule:evenodd;stroke-linejoin:round;stroke-miterlimit:2" version="1.1" viewBox="0 0 48 48" xmlns="http://www.w3.org/2000/svg">
 <path d="m39.411 5.813c0-2.783-2.256-5.04-5.039-5.04h-25.84c-2.783 0-5.039 2.257-5.039 5.04v33.035c0 2.783 2.256 5.04 5.039 5.04h25.84c2.783 0 5.039-2.257 5.039-5.04v-33.035z" style="fill:url(#_Linear1)"/>
 <path d="m44 8.924c0-2.783-2.256-5.04-5.039-5.04h-25.841c-2.783 0-5.039 2.257-5.039 5.04v33.036c0 2.783 2.256 5.04 5.039 5.04h25.841c2.783 0 5.039-2.257 5.039-5.04v-33.036z" style="fill:url(#_Linear2)"/>
 <path d="m35.448 24.667c1e-3 -0.275-0.207-0.446-0.623-0.514l-5.594-0.827-2.496-5.078c-0.14-0.305-0.322-0.458-0.545-0.459-0.223 0-0.405 0.152-0.547 0.456l-2.521 5.066-5.597 0.8c-0.417 0.066-0.625 0.236-0.626 0.511 0 0.157 0.092 0.335 0.278 0.536l4.048 3.956-0.973 5.572c-0.015 0.104-0.022 0.178-0.022 0.223-1e-3 0.156 0.038 0.287 0.116 0.396 0.077 0.108 0.194 0.162 0.35 0.162 0.134 0 0.283-0.044 0.447-0.133l5.011-2.618 4.999 2.643c0.156 0.089 0.305 0.134 0.446 0.134 0.149 1e-3 0.262-0.053 0.34-0.16 0.078-0.108 0.117-0.24 0.118-0.396 0-0.096-3e-3 -0.171-0.011-0.223l-0.945-5.576 4.056-3.936c0.194-0.193 0.291-0.371 0.291-0.535z" style="fill-rule:nonzero;fill:#4d4d4d"/>
 <rect x="12.289" y="9.831" width="27.47" height="1.157" style="fill:#737373"/>
 <rect x="12.289" y="12.087" width="22.786" height="1.157" style="fill:#737373"/>
 <defs>
  <linearGradient id="_Linear1" x2="1" gradientTransform="matrix(-.476427 -44.666 44.666 -.476427 128.991 44.2761)" gradientUnits="userSpaceOnUse">
   <stop style="stop-color:#1e35b9" offset="0"/>
   <stop style="stop-color:#b302fc" offset="1"/>
  </linearGradient>
  <linearGradient id="_Linear2" x2="1" gradientTransform="matrix(-.476427 -44.666 44.666 -.476427 272.535 45.9057)" gradientUnits="userSpaceOnUse">
   <stop style="stop-color:#d0dbf1" offset="0"/>
   <stop style="stop-color:#fdfdfe" offset="1"/>
  </linearGradient>
 </defs>
</svg>
