<svg style="clip-rule:evenodd;fill-rule:evenodd;stroke-linejoin:round;stroke-miterlimit:2" version="1.1" viewBox="0 0 48 48" xmlns="http://www.w3.org/2000/svg">
 <path d="m45.668 8.56c0-3.438-2.79-6.228-6.228-6.228h-30.88c-3.438 0-6.228 2.79-6.228 6.228v30.88c0 3.438 2.79 6.228 6.228 6.228h30.88c3.438 0 6.228-2.79 6.228-6.228v-30.88z" style="fill:url(#_Linear1)"/>
 <path d="m12.894 8c-0.019 2.593 0.38 5.313 1.782 7.548 0.534 0.674 1.555 2.098 2.455 2.173 0.53-0.589 1.541-1.733 1.354-2.373-2.239-0.435-4.129-2.86-4.851-4.841-0.306-0.817-0.513-1.666-0.74-2.507zm22.212 0c0.019 2.593-0.38 5.313-1.782 7.548-0.534 0.674-1.555 2.098-2.455 2.173-0.53-0.589-1.541-1.733-1.354-2.373 2.239-0.435 4.129-2.86 4.851-4.841 0.306-0.817 0.513-1.666 0.74-2.507z" style="fill-rule:nonzero;fill:#342522"/>
 <path d="m21.33 27.303c-1.556 0.482-3.287 1.063-4.233 2.474-0.563 1.377 0.507 2.693 1.537 3.499 1.248 0.994 2.618 1.862 4.08 2.504-1.268-1.767-2.479-3.86-2.102-6.122 0.08-0.83 0.428-1.586 0.718-2.355zm5.34 0c1.556 0.482 3.287 1.063 4.233 2.474 0.563 1.377-0.507 2.693-1.537 3.499-1.248 0.994-2.618 1.862-4.08 2.504 1.268-1.767 2.479-3.86 2.102-6.122-0.08-0.83-0.428-1.586-0.718-2.355z" style="fill-rule:nonzero;fill:#342522"/>
 <path d="m11 31.178c0.017 0.722 0.951 1.945 1.345 2.858 0.993 1.983 1.965 3.977 2.95 5.964-0.505-2.3-1.271-4.56-1.648-6.891 0.921-0.589 1.954-0.979 2.937-1.454-1.861-0.159-3.723-0.318-5.584-0.477zm26 0c-0.017 0.722-0.951 1.945-1.345 2.858-0.993 1.983-1.965 3.977-2.95 5.964 0.505-2.3 1.271-4.56 1.648-6.891-0.921-0.589-1.954-0.979-2.937-1.454 1.861-0.159 3.723-0.318 5.584-0.477z" style="fill-rule:nonzero;fill:#403431"/>
 <path d="m23.049 9.758c-3.364 6.191-6.731 12.382-10.027 18.608-0.162 0.616 1.054-0.654 1.414-0.776 1.776-1.236 3.531-2.501 5.29-3.762 0.497-1.236 0.655-2.616 1.016-3.909 0.764-3.336 1.611-6.663 2.307-10.008v-0.153zm-0.212 0.15c-3.206 3.235-6.567 6.548-8.291 10.847-1.096 2.416-1.845 4.979-2.318 7.584 0.555-0.472 1.191-2.052 1.765-2.926 1.989-3.497 3.848-7.068 5.88-10.541 0.987-1.655 1.975-3.31 2.964-4.964z" style="fill-rule:nonzero;fill:#403431"/>
 <path d="m24.951 9.758c3.364 6.191 6.731 12.383 10.027 18.608 0.162 0.616-1.054-0.654-1.414-0.776-1.776-1.236-3.531-2.501-5.29-3.762-0.497-1.236-0.655-2.616-1.016-3.909-0.764-3.336-1.611-6.663-2.307-10.008v-0.153zm0.212 0.15c3.206 3.235 6.567 6.548 8.291 10.847 1.096 2.416 1.845 4.979 2.318 7.584-0.555-0.472-1.191-2.052-1.765-2.926-1.989-3.497-3.848-7.068-5.88-10.541-0.987-1.655-1.975-3.31-2.964-4.964z" style="fill-rule:nonzero;fill:#403431"/>
 <defs>
  <linearGradient id="_Linear1" x2="1" gradientTransform="matrix(2.65364e-15,-43.3373,43.3373,2.65364e-15,201.9,45.6687)" gradientUnits="userSpaceOnUse">
   <stop style="stop-color:#676767" offset="0"/>
   <stop style="stop-color:#919191" offset="1"/>
  </linearGradient>
 </defs>
</svg>
