<?xml version="1.0" encoding="UTF-8" standalone="no"?><!DOCTYPE svg PUBLIC "-//W3C//DTD SVG 1.1//EN" "http://www.w3.org/Graphics/SVG/1.1/DTD/svg11.dtd"><svg width="100%" height="100%" viewBox="0 0 64 64" version="1.1" xmlns="http://www.w3.org/2000/svg" xmlns:xlink="http://www.w3.org/1999/xlink" xml:space="preserve" xmlns:serif="http://www.serif.com/" style="fill-rule:evenodd;clip-rule:evenodd;stroke-linejoin:round;stroke-miterlimit:1.41421;"><path d="M31.653,4.002c-1.186,-0.028 -2.358,0.265 -3.387,0.849l-19.032,10.817c-2.001,1.137 -3.234,3.239 -3.234,5.514l0,21.634c0,2.275 1.233,4.377 3.234,5.514l19.572,5.909c2.001,1.137 4.467,1.137 6.468,0l12.445,-7.296c2.001,-1.137 3.234,-3.239 3.234,-5.514l6.047,-20.247c0,-2.275 -1.233,-4.378 -3.234,-5.515l-19.032,-10.816c-0.939,-0.533 -1.998,-0.825 -3.081,-0.85l0,0.001Z" style="fill:url(#_Linear1);fill-rule:nonzero;"/><path d="M56.447,18.615l-49.133,28.033c0.52,0.681 1.173,1.253 1.921,1.682l19.03,10.817c1.999,1.136 4.471,1.136 6.47,0l19.03,-10.817c1.999,-1.136 3.234,-3.241 3.235,-5.513l0,-21.634c-0.001,-0.885 -0.19,-1.759 -0.553,-2.568Z" style="fill:url(#_Linear2);fill-rule:nonzero;"/><defs><linearGradient id="_Linear1" x1="0" y1="0" x2="1" y2="0" gradientUnits="userSpaceOnUse" gradientTransform="matrix(0.262651,-55.7494,55.7494,0.262651,31.7542,60.1579)"><stop offset="0" style="stop-color:#0087bd;stop-opacity:1"/><stop offset="1" style="stop-color:#17c7e1;stop-opacity:1"/></linearGradient><linearGradient id="_Linear2" x1="0" y1="0" x2="1" y2="0" gradientUnits="userSpaceOnUse" gradientTransform="matrix(0.462651,-41.4072,41.4072,0.462651,30.7277,56.4434)"><stop offset="0" style="stop-color:#0926b8;stop-opacity:1"/><stop offset="1" style="stop-color:#546bdc;stop-opacity:1"/></linearGradient></defs></svg>