<svg clip-rule="evenodd" fill-rule="evenodd" stroke-linecap="round" stroke-linejoin="round" viewBox="0 0 48 48" xmlns="http://www.w3.org/2000/svg">
 <linearGradient id="a" x2="1" gradientTransform="matrix(0 -43.3373 43.3373 0 201.9 45.6687)" gradientUnits="userSpaceOnUse">
  <stop stop-color="#3c1d8d" offset="0"/>
  <stop stop-color="#6c4ac4" offset="1"/>
 </linearGradient>
 <path d="m45.668 8.56c0-3.438-2.79-6.228-6.228-6.228h-30.88c-3.438 0-6.228 2.79-6.228 6.228v30.88c0 3.438 2.79 6.228 6.228 6.228h30.88c3.438 0 6.228-2.79 6.228-6.228z" fill="url(#a)"/>
 <path d="m10 10-2 26s0 2 2 2h28c2 0 2-2 2-2l-2-26z" fill="#e4e4e4" fill-rule="nonzero"/>
 <circle cx="17" cy="17" r="3" fill="#ccc"/>
 <circle cx="31" cy="17" r="3" fill="#ccc"/>
 <path d="m17 17s-.794 9.237 7 9.275c7.641.037 7-9.275 7-9.275" fill="none" stroke="#6c4ac4" stroke-width="2"/>
</svg>
