<!DOCTYPE svg  PUBLIC '-//W3C//DTD SVG 1.1//EN'  'http://www.w3.org/Graphics/SVG/1.1/DTD/svg11.dtd'>
<svg style="clip-rule:evenodd;fill-rule:evenodd;stroke-linejoin:round;stroke-miterlimit:1.41421" version="1.1" viewBox="0 0 48 48" xmlns="http://www.w3.org/2000/svg">
 <path d="m44.597 11.628c0.059-0.381-0.036-0.77-0.264-1.081-0.227-0.311-0.569-0.518-0.95-0.577-5.571-0.863-25.729-3.986-31.301-4.849-0.792-0.122-1.535 0.421-1.657 1.213-0.699 4.507-2.841 18.338-3.54 22.844-0.059 0.381 0.036 0.77 0.264 1.081 0.227 0.311 0.569 0.518 0.95 0.577 5.571 0.864 25.729 3.986 31.3 4.85 0.381 0.059 0.77-0.036 1.081-0.264 0.311-0.227 0.518-0.569 0.577-0.95 0.699-4.506 2.841-18.338 3.54-22.844z" style="fill:#1ecf9d"/>
 <path d="m38.14 14.021c3e-3 -0.936-0.754-1.697-1.69-1.7-5.874-0.02-25.315-0.082-31.189-0.102-0.936-3e-3 -1.697 0.754-1.701 1.69-0.015 4.711-0.058 17.92-0.073 22.631-2e-3 0.449 0.175 0.881 0.492 1.2s0.748 0.499 1.198 0.5c5.874 0.02 25.315 0.082 31.189 0.102 0.449 1e-3 0.881-0.176 1.2-0.493s0.499-0.748 0.5-1.197c0.016-4.711 0.058-17.92 0.074-22.631z" style="fill:url(#_Linear1)"/>
 <path d="m36.17 28.759c3.704 0.048 6.673 3.093 6.625 6.797-0.047 3.704-3.092 6.672-6.796 6.625-3.704-0.048-6.672-3.092-6.625-6.797 0.048-3.703 3.092-6.672 6.796-6.625z" style="fill:url(#_Linear2)"/>
 <path d="m34.057 38.255l0.034-5.643 4.87 2.85-4.904 2.793z" style="fill-rule:nonzero;fill:url(#_Linear3)"/>
 <path d="m14.511 31.019c0.064-0.078 0.098-0.349 0.081-0.641l-0.031-0.505-3.449-0.012c-2.467-9e-3 -3.486 0.017-3.579 0.095-0.16 0.134-0.169 0.952-0.011 1.108 0.084 0.084 0.991 0.111 3.495 0.102 2.806-0.01 3.401-0.035 3.494-0.147zm6.093-6.228c0.584-0.207 1.418-0.778 1.577-1.079 0.088-0.166 0.033-0.26-0.404-0.701-0.278-0.279-0.55-0.508-0.604-0.507-0.054-1e-3 -0.302 0.146-0.551 0.326-1.076 0.768-2.41 0.649-3.189-0.286-0.317-0.381-0.579-1.099-0.582-1.59-1e-3 -0.564 0.28-1.285 0.67-1.71 0.806-0.88 2.062-0.943 3.14-0.155 0.218 0.159 0.435 0.251 0.501 0.212 0.239-0.141 0.993-1.115 0.967-1.249-0.043-0.219-0.775-0.727-1.363-0.945-0.705-0.261-1.769-0.341-2.522-0.19-2.6 0.52-4.025 3.369-2.899 5.791 0.521 1.12 1.655 2.018 2.865 2.27 0.594 0.124 1.78 0.031 2.394-0.187zm-11.633 0.049c0.063-0.041 0.244-0.389 0.401-0.774 0.157-0.384 0.333-0.756 0.39-0.826 0.08-0.097 0.454-0.128 1.539-0.131 0.79-2e-3 1.487 0.029 1.551 0.069 0.063 0.04 0.246 0.387 0.406 0.77 0.16 0.384 0.338 0.755 0.396 0.824 0.148 0.177 1.68 0.175 1.748-3e-3 0.026-0.068-0.69-1.837-1.591-3.931l-1.637-3.808-0.856 0.03-0.855 0.03-1.592 3.784c-0.877 2.081-1.57 3.843-1.542 3.916 0.037 0.097 0.244 0.131 0.789 0.128 0.406-2e-3 0.789-0.037 0.853-0.078zm1.564-3.393c-0.062-0.161 0.651-1.989 0.777-1.989 0.043 0 0.268 0.442 0.497 0.982 0.335 0.785 0.393 0.998 0.291 1.063-0.07 0.046-0.439 0.084-0.818 0.086-0.535 3e-3 -0.703-0.029-0.747-0.142z" style="fill-rule:nonzero;fill:#fff"/>
 <defs>
  <linearGradient id="_Linear1" x2="1" gradientTransform="matrix(7.1127,-30.9031,30.9031,7.1127,19.8673,41.3088)" gradientUnits="userSpaceOnUse">
   <stop style="stop-color:#247ce6" offset="0"/>
   <stop style="stop-color:#02d6f0" offset="1"/>
  </linearGradient>
  <linearGradient id="_Linear2" x2="1" gradientTransform="matrix(-.50974 -13.0769 13.0769 -.50974 36.2619 41.8888)" gradientUnits="userSpaceOnUse">
   <stop style="stop-color:#cdd0d1" offset="0"/>
   <stop style="stop-color:#f6f6f7" offset="1"/>
  </linearGradient>
  <linearGradient id="_Linear3" x2="1" gradientTransform="matrix(5.1035,-5.50045,5.50045,5.1035,33.9335,38.251)" gradientUnits="userSpaceOnUse">
   <stop style="stop-color:#16a085" offset="0"/>
   <stop style="stop-color:#2dcb72" offset="1"/>
  </linearGradient>
 </defs>
</svg>
