<svg style="clip-rule:evenodd;fill-rule:evenodd;stroke-linejoin:round;stroke-miterlimit:2" version="1.1" viewBox="0 0 48 48" xmlns="http://www.w3.org/2000/svg">
 <circle cx="24" cy="24" r="22.764" style="fill:url(#_Linear1)"/>
 <path d="m24 5.916c-9.921 0-18.084 8.163-18.084 18.084s8.163 18.084 18.084 18.084 18.084-8.163 18.084-18.084-8.163-18.084-18.084-18.084zm0 2.26c8.681 0 15.824 7.143 15.824 15.824s-7.143 15.824-15.824 15.824-15.824-7.143-15.824-15.824 7.143-15.824 15.824-15.824z" style="fill-rule:nonzero;fill:#fff"/>
 <path d="m24 8.176l-14.128 23.736 12.36-6.973 1.768-0.996v-15.767zl14.128 23.736-12.36-6.973-1.768-0.996v-15.767z" style="fill-rule:nonzero;fill:#fff"/>
 <defs>
  <linearGradient id="_Linear1" x2="1" gradientTransform="matrix(2.78787e-15,-45.5294,45.5294,2.78787e-15,210.898,46.7647)" gradientUnits="userSpaceOnUse">
   <stop style="stop-color:#1c4a5a" offset="0"/>
   <stop style="stop-color:#1b627c" offset="1"/>
  </linearGradient>
 </defs>
</svg>
