<svg style="clip-rule:evenodd;fill-rule:evenodd;stroke-linejoin:round;stroke-miterlimit:2" version="1.1" viewBox="0 0 48 48" xmlns="http://www.w3.org/2000/svg">
 <path d="m45.668 6.789c0-2.46-1.997-4.457-4.457-4.457h-34.422c-2.46 0-4.457 1.997-4.457 4.457v34.422c0 2.46 1.997 4.457 4.457 4.457h34.422c2.46 0 4.457-1.997 4.457-4.457v-34.422z" style="fill:url(#_Linear1)"/>
 <path d="m45.668 7.265c0-3.164-1.769-4.933-4.933-4.933h-11.742c-2.725 0-4.933 2.208-4.933 4.933v15.227c0 0.8 0.648 1.448 1.448 1.448h15.227c2.725 0 4.933-2.208 4.933-4.933v-11.742z" style="fill:url(#_Linear2)"/>
 <path d="m23.94 25.448c0-0.8-0.648-1.448-1.448-1.448h-15.227c-2.725 0-4.933 2.209-4.933 4.933v12.059c0 2.725 1.794 4.617 4.518 4.617h12.157c2.725 0 4.933-2.209 4.933-4.934v-15.227z" style="fill:url(#_Linear3)"/>
 <defs>
  <linearGradient id="_Linear1" x2="1" gradientTransform="matrix(1.80588,43.3291,-43.3291,1.80588,23.9266,2.33162)" gradientUnits="userSpaceOnUse">
   <stop style="stop-color:#818181" offset="0"/>
   <stop style="stop-color:#1f1f1f" offset="1"/>
  </linearGradient>
  <linearGradient id="_Linear2" x2="1" gradientTransform="matrix(2.64624e-15,43.2163,-43.2163,2.64624e-15,34.864,2.33162)" gradientUnits="userSpaceOnUse">
   <stop style="stop-color:#7cb3ff" offset="0"/>
   <stop style="stop-color:#003ccd" offset="1"/>
  </linearGradient>
  <linearGradient id="_Linear3" x2="1" gradientTransform="matrix(-1.03287,43.2163,-43.2163,-1.03287,25.917,2.39996)" gradientUnits="userSpaceOnUse">
   <stop style="stop-color:#5d9ffb" offset="0"/>
   <stop style="stop-color:#003ccd" offset="1"/>
  </linearGradient>
 </defs>
</svg>
