
<svg style="clip-rule:evenodd;fill-rule:evenodd;stroke-linejoin:round" version="1.1" viewBox="0 0 48 48" xmlns="http://www.w3.org/2000/svg">
 <circle cx="24.367" cy="23.095" r="20.91" style="fill:url(#_Linear1)"/>
 <circle cx="24.292" cy="23.17" r="20.722" style="fill:none"/>
 <circle cx="24.367" cy="23.095" r="20.91" style="fill:none;stroke-width:1.39px;stroke:url(#_Linear2)"/>
 <circle cx="24.292" cy="23.17" r="20.722" style="fill:none;stroke-width:1.92px;stroke:url(#_Linear3)"/>
 <path d="m3.319 21.727c0.874-10.31 9.546-15.814 10.711-16.203 0.602-0.426 0.97-0.216 0.463 0.492-3.109 2.961 1.175 5.771 3.44 1.408 0.676-1.303 2.786-0.78 2.494 1.455-0.564 2.84-1.714 8.574 0.89 7.789 0.604-0.058 0.298 0.502 0.298 0.502-1.099 4.157-0.559 8.648-0.326 13.397-0.034 0.181-1.805 0.184-3.974-2.696-2.956-3.924-5.413-7.086-6.639 0.492-1.381 3.754-4.225-1.256-4.178-4.363 0.06-4-1.758-4.491-1.917-2.495-0.081 1.026-1.301 0.87-1.262 0.222z" style="fill:url(#_Linear4)"/>
 <path d="m24.417 13.511c0.734-1.47 1.397-11.028 6.3-9.183-3.9-2.428-7.957-2.665-12.828 0 5.707-1.545 5.593 7.704 6.528 9.183z" style="fill:#494949"/>
 <path d="m45.463 21.727c-0.874-10.31-9.546-15.814-10.711-16.203-0.602-0.426-1.339 8e-3 -0.738 0.472 2.533 1.956-0.505 5.784-3.165 1.428-0.765-1.253-2.786-0.78-2.494 1.455 0.563 2.838 1.712 8.567-0.885 7.79-0.566-0.027-0.319 0.439-0.319 0.439 1.121 4.174 0.576 8.686 0.342 13.459 0.034 0.181 2.159-0.251 3.811-3.455 1.613-3.128 6.502-7.81 6.802 1.251 1.381 3.754 3.614-1.053 3.835-4.363 0.268-3.991 1.69-4.405 2.028-2.82 0.281 1.313 1.533 1.195 1.494 0.547z" style="fill:url(#_Linear5)"/>
 <path d="m12.772 16.479c-5.072 5.064 6.005 8.18 8.011 2.864 0 0 0.141-0.728-0.588-0.974l-6.42-2.17c-0.542-0.211-1.003 0.28-1.003 0.28z" style="fill:url(#_Linear6)"/>
 <path d="m14.071 17.714c-3.174 3.298 4 5.304 5.355 1.862 0.239-0.69-0.372-0.681-0.372-0.681l-4.197-1.419c-0.453-0.258-0.786 0.238-0.786 0.238z" style="fill-opacity:.937255;fill:#fffdfd"/>
 <path d="m35.848 16.462c5.097 5.039-5.964 8.21-7.996 2.904 0 0-0.145-0.727 0.583-0.977l6.409-2.202c0.541-0.214 1.004 0.275 1.004 0.275z" style="fill:url(#_Linear7)"/>
 <path d="m34.556 17.703c3.19 3.282-3.974 5.324-5.346 1.889-0.243-0.689 0.368-0.683 0.368-0.683l4.191-1.439c0.451-0.261 0.787 0.233 0.787 0.233z" style="fill-opacity:.937255;fill:#fffdfd"/>
 <path d="m18.252 35.085s-0.705-2.696 1.576-2.097c0 0 4.049 2.18 9.115-0.027 2.278-0.612 1.588 2.087 1.588 2.087-1.291 4.004-6.129 3.693-6.129 3.693s-4.836 0.34-6.15-3.656z" style="fill-opacity:.992157;fill:#3b3b3b"/>
 <path d="m20.283 34.706c1.177-0.863 2.352 0.875 3.993 0.93 1.641 0.054 2.625-0.657 3.555-0.766 0.93-0.11 1.822 1.114-0.092 3.931s-2.26 8.873-3.627 8.812c-1.382-0.062-1.734-5.359-3.082-8.507-0.765-1.786-1.825-3.61-0.747-4.4z" style="fill:url(#_Linear8)"/>
 <defs>
  <linearGradient id="_Linear1" x2="1" gradientTransform="matrix(2.4693e-15,-40.3267,40.3267,2.4693e-15,23.506,43.0202)" gradientUnits="userSpaceOnUse">
   <stop style="stop-color:#dbdada" offset="0"/>
   <stop style="stop-color:#f8f5f5" offset="1"/>
  </linearGradient>
  <linearGradient id="_Linear2" x2="1" gradientTransform="matrix(.109189 -41.4583 41.4583 .109189 24.693 43.5708)" gradientUnits="userSpaceOnUse">
   <stop style="stop-color:#333" offset="0"/>
   <stop style="stop-color:#4a4a4a" offset="1"/>
  </linearGradient>
  <linearGradient id="_Linear3" x2="1" gradientTransform="matrix(.43378 -20.9819 20.9819 .43378 24.3674 23.0948)" gradientUnits="userSpaceOnUse">
   <stop style="stop-color:#333" offset="0"/>
   <stop style="stop-color:#4a4a4a" offset="1"/>
  </linearGradient>
  <linearGradient id="_Linear4" x2="1" gradientTransform="matrix(9.48856,-21.6177,21.6177,9.48856,8.85792,28.4597)" gradientUnits="userSpaceOnUse">
   <stop style="stop-color:#333" offset="0"/>
   <stop style="stop-color:#4a4a4a" offset="1"/>
  </linearGradient>
  <linearGradient id="_Linear5" x2="1" gradientTransform="matrix(-12.2937,-20.4176,20.4176,-12.2937,42.1622,27.2592)" gradientUnits="userSpaceOnUse">
   <stop style="stop-color:#333" offset="0"/>
   <stop style="stop-color:#4a4a4a" offset="1"/>
  </linearGradient>
  <linearGradient id="_Linear6" x2="1" gradientTransform="matrix(1.65203,-3.07375,3.07375,1.65203,12.8424,20.33)" gradientUnits="userSpaceOnUse">
   <stop style="stop-color:#413f43" offset="0"/>
   <stop style="stop-color:#292427" offset="1"/>
  </linearGradient>
  <linearGradient id="_Linear7" x2="1" gradientTransform="matrix(-1.66739,-3.06545,3.06545,-1.66739,35.7969,20.3133)" gradientUnits="userSpaceOnUse">
   <stop style="stop-color:#413f43" offset="0"/>
   <stop style="stop-color:#292427" offset="1"/>
  </linearGradient>
  <linearGradient id="_Linear8" x2="1" gradientTransform="matrix(-.28388 10.9765 -10.9765 -.28388 24.331 35.1609)" gradientUnits="userSpaceOnUse">
   <stop style="stop-color:#b80000" offset="0"/>
   <stop style="stop-color:#fb1515" offset="1"/>
  </linearGradient>
 </defs>
</svg>
