<svg style="clip-rule:evenodd;fill-rule:evenodd;stroke-linejoin:round;stroke-miterlimit:2" version="1.1" viewBox="0 0 48 48" xmlns="http://www.w3.org/2000/svg">
 <circle cx="24" cy="24" r="22.764" style="fill:url(#_Linear1)"/>
 <path d="m36.093 31.672c-0.418 0.728-1.177 1.13-1.959 1.13-0.383 0-0.771-0.097-1.127-0.303l-6.758-3.903v7.806c0 1.248-1.012 2.26-2.26 2.26-1.247 0-2.259-1.012-2.259-2.26v-7.807l-6.762 3.904c-0.355 0.206-0.744 0.303-1.127 0.303-0.781 0-1.541-0.402-1.959-1.13-0.624-1.081-0.254-2.463 0.827-3.084l6.759-3.904-6.761-3.905c-1.081-0.624-1.451-2.004-0.827-3.085 0.623-1.081 2.006-1.452 3.086-0.827l6.76 3.903v-7.807c0-1.248 1.013-2.26 2.26-2.26s2.259 1.012 2.259 2.26v7.806l6.758-3.903c1.08-0.625 2.467-0.254 3.087 0.827 0.623 1.081 0.254 2.463-0.827 3.085l-6.757 3.905 6.758 3.903c1.081 0.623 1.453 2.005 0.829 3.086z" style="fill-rule:nonzero;fill:url(#_Linear2)"/>
 <defs>
  <linearGradient id="_Linear1" x2="1" gradientTransform="matrix(-1.54731,-43.325,43.325,-1.54731,28.659,45.4617)" gradientUnits="userSpaceOnUse">
   <stop style="stop-color:#d3d3d3" offset="0"/>
   <stop style="stop-color:#fcf9f9" offset="1"/>
  </linearGradient>
  <linearGradient id="_Linear2" x2="1" gradientTransform="matrix(-1.14638,-27.9213,27.9213,-1.14638,24.2559,37.8338)" gradientUnits="userSpaceOnUse">
   <stop style="stop-color:#00cafe" offset="0"/>
   <stop style="stop-color:#1460f3" offset="1"/>
  </linearGradient>
 </defs>
</svg>
