<svg width="16" height="16" version="1.1" xmlns="http://www.w3.org/2000/svg">
 <path d="m6.25 1-0.16 1.84a5.5 5.5 0 0 0 -1.6 0.93l-1.68-0.79-1.75 3.03 1.52 1.06a5.5 5.5 0 0 0 -0.08 0.93 5.5 5.5 0 0 0 0.08 0.93l-1.52 1.05 1.75 3.03 1.67-0.79a5.5 5.5 0 0 0 1.61 0.93l0.16 1.85h3.5l0.15-1.85a5.5 5.5 0 0 0 1.61 -0.93l1.68 0.79 1.75-3.03-1.53-1.06a5.5 5.5 0 0 0 0.09 -0.92 5.5 5.5 0 0 0 -0.08 -0.94l1.52-1.05-1.75-3.03-1.68 0.79a5.5 5.5 0 0 0 -1.61 -0.93l-0.15-1.84zm1.75 5a2 2 0 0 1 2 2 2 2 0 0 1 -2 2 2 2 0 0 1 -2 -2 2 2 0 0 1 2 -2z" style="fill:#444444"/>
</svg>
