<svg clip-rule="evenodd" fill-rule="evenodd" stroke-linejoin="round" stroke-miterlimit="2" viewBox="0 0 48 48" xmlns="http://www.w3.org/2000/svg">
 <linearGradient id="a" x2="1" gradientTransform="matrix(0 -45.528 45.528 0 23.4368 46.5733)" gradientUnits="userSpaceOnUse">
  <stop stop-color="#f7a744" offset="0"/>
  <stop stop-color="#ffe66f" offset="1"/>
 </linearGradient>
 <circle cx="24" cy="24" r="22.764" fill="url(#a)"/>
 <g fill="#ffffd9" fill-rule="nonzero">
  <path d="m42.013 24.386c0-1.712-3.993-2.771-4.494-4.315-.52-1.601 2.069-4.802 1.099-6.135-.979-1.346-4.83.133-6.176-.846-1.332-.97-1.11-5.094-2.711-5.614-1.544-.501-3.782 2.95-5.494 2.95s-3.949-3.451-5.494-2.95c-1.601.52-1.378 4.644-2.711 5.614-1.346.979-5.197-.5-6.176.846-.97 1.333 1.62 4.534 1.1 6.135-.502 1.544-4.495 2.603-4.495 4.315s3.993 2.771 4.495 4.316c.52 1.601-2.07 4.802-1.1 6.134.979 1.346 4.83-.133 6.176.846 1.333.97 1.11 5.094 2.711 5.614 1.545.502 3.782-2.949 5.494-2.949s3.949 3.451 5.494 2.949c1.601-.52 1.379-4.644 2.711-5.614 1.346-.979 5.197.5 6.176-.846.97-1.332-1.62-4.533-1.1-6.134.502-1.545 4.495-2.604 4.495-4.316zm-17.776 11.773c-6.491 0-11.772-5.281-11.772-11.773 0-6.491 5.281-11.772 11.772-11.772 6.492 0 11.773 5.281 11.773 11.772 0 6.492-5.281 11.773-11.773 11.773z"/>
  <path d="m24.237 14.522c-5.439 0-9.864 4.425-9.864 9.864 0 5.44 4.425 9.865 9.864 9.865 5.44 0 9.865-4.425 9.865-9.865 0-5.439-4.425-9.864-9.865-9.864zm3.021 5.95c.526 0 .953.427.953.954s-.427.953-.953.953c-.527 0-.954-.426-.954-.953s.427-.954.954-.954zm-5.962 0c.527 0 .954.427.954.954s-.427.953-.954.953-.954-.426-.954-.953.427-.954.954-.954zm8.497 6.028c-.736 2.114-2.646 3.648-4.866 3.907-.226.027-.452.04-.677.04-2.009 0-3.921-1.038-5.001-2.763-.233-.372-.424-.77-.568-1.184-.173-.497.089-1.041.587-1.214.498-.174 1.041.089 1.214.587.098.279.227.547.384.798.812 1.297 2.319 2.018 3.839 1.842 1.499-.176 2.789-1.212 3.287-2.64.173-.498.716-.761 1.214-.587.498.173.76.717.587 1.214z"/>
 </g>
</svg>
