
<svg style="clip-rule:evenodd;fill-rule:evenodd;stroke-linejoin:round;stroke-miterlimit:1.41421" version="1.1" viewBox="0 0 48 48" xmlns="http://www.w3.org/2000/svg">
 <g transform="matrix(.104977 0 0 .104977 57.8136 -23.1366)">
  <circle cx="-322.323" cy="449.237" r="209.757" style="fill:url(#_Linear1)"/>
  <g transform="matrix(9.96133,0,0,9.96133,-566.068,216.605)">
   <path d="m18.317 14.439l0.429-0.647-0.643-0.484 0.214 1.131m-3.784-5.658l-0.358 0.889h0.715l0.357-0.808c0.308-0.218 0.615-0.437 0.928-0.647l0.715 0.243c0.475 0.323 0.951 0.646 1.427 0.969l0.715-0.646-0.786-0.323-0.357-0.728-1.357-0.162-0.071-0.404-0.643 0.162-0.286 0.566-0.357-0.728-0.142 0.324 0.071 0.808-0.571 0.485m3.427 18.994l-0.571-1.132-1.071-0.242-0.572-1.535-1.428 0.161-1.213-0.888-1.286 1.131v0.178c-0.389-0.112-0.867-0.127-1.214-0.34l-0.286-0.808v-0.889l-0.856 0.08c0.071-0.566 0.142-1.131 0.214-1.697h-0.5l-0.5 0.647-0.5 0.241-0.714-0.402-0.072-0.89 0.143-0.97 1.072-0.808h0.856l0.143-0.485 1.071 0.242 0.786 0.971 0.143-1.618 1.357-1.131 0.499-1.212 1-0.404 0.571-0.808 1.285-0.244 0.644-0.969h-1.929l1.214-0.566h0.857l1.214-0.405 0.143-0.483-0.429-0.405-0.5-0.162 0.143-0.485-0.357-0.727-0.857 0.323 0.143-0.646-1-0.566-0.785 1.373 0.071 0.485-0.785 0.324-0.5 1.051-0.214-0.97-1.357-0.566-0.215-0.727 1.786-1.052 0.785-0.727 0.072-0.889-0.428-0.242-0.572-0.081-0.356 0.889s-0.598 0.117-0.751 0.155c-1.961 1.807-5.923 5.708-6.844 13.071 0.037 0.171 0.667 1.161 0.667 1.161l1.5 0.889 1.499 0.404 0.644 0.809 0.999 0.727 0.571-0.08 0.429 0.193v0.13l-0.571 1.535-0.429 0.647 0.143 0.324-0.357 1.211 1.285 2.345 1.285 1.132 0.572 0.807-0.072 1.698 0.429 0.969-0.429 1.86s-0.033-0.012 0.021 0.174c0.056 0.186 2.288 1.426 2.43 1.32 0.142-0.107 0.263-0.201 0.263-0.201l-0.143-0.403 0.571-0.566 0.215-0.566 0.928-0.325 0.714-1.778-0.214-0.484 0.499-0.727 1.072-0.243 0.571-1.294-0.143-1.615 0.857-1.213 0.143-1.212c-1.172-0.582-2.335-1.18-3.499-1.779m8.355-21.984l-1.857-0.728-2.141 0.242-2.643 0.728-0.5 0.485 1.643 1.131v0.647l-0.643 0.646 0.857 1.699 0.57-0.324 0.716-1.132c1.103-0.341 2.092-0.727 3.141-1.212l0.857-2.182m-0.785 3.313l-0.072 0.485 0.501 0.323 0.855-0.565-0.427-0.485-0.572 0.324-0.285-0.081m17.683 11.275l-0.535 0.607c-0.328-0.386-0.696-0.711-1.07-1.051l-0.822 0.121-0.75-0.848v1.049l0.643 0.486 0.428 0.484 0.571-0.646c0.144 0.269 0.286 0.539 0.429 0.808v0.808l-0.643 0.727-1.179 0.809-0.892 0.89-0.571-0.648 0.285-0.727-0.57-0.646-0.965-2.061-0.821-0.929-0.215 0.241 0.323 1.173 0.606 0.687c0.346 0.999 0.689 1.956 1.144 2.91 0.705 0 1.369-0.075 2.07-0.163v0.566l-0.857 2.102-0.786 0.888-0.642 1.377v2.262l0.215 0.889-0.357 0.403-0.787 0.486-0.821 0.686 0.679 0.768-0.929 0.81 0.179 0.524-1.393 1.578h-0.928l-0.786 0.485h-0.5v-0.647l-0.213-1.295c-0.277-0.811-0.564-1.617-0.857-2.423 0-0.595 0.035-1.184 0.071-1.779l0.358-0.807-0.501-0.971 0.036-1.334-0.679-0.767 0.34-1.111-0.553-0.627h-0.965l-0.321-0.364-0.964 0.607-0.393-0.446-0.893 0.768c-0.606-0.687-1.213-1.374-1.821-2.061l-0.713-1.698 0.642-0.969-0.357-0.404 0.785-1.86c0.645-0.802 1.318-1.571 2-2.343l1.214-0.324 1.357-0.161 0.928 0.242 1.321 1.333 0.465-0.525 0.641-0.081 1.215 0.404h0.928l0.643-0.565 0.286-0.404-0.644-0.404-1.071-0.08c-0.298-0.413-0.574-0.847-0.927-1.213l-0.358 0.161-0.143 1.052-0.643-0.728-0.141-0.809-0.714-0.564h-0.287l0.715 0.807-0.286 0.728-0.571 0.161 0.357-0.727-0.644-0.323-0.57-0.646-1.072 0.241-0.142 0.323-0.643 0.405-0.357 0.889-0.892 0.444-0.394-0.444h-0.427v-1.455l0.928-0.486h0.714l-0.144-0.565-0.57-0.566 0.963-0.202 0.536-0.606 0.428-0.728h0.786l-0.215-0.565 0.501-0.323v0.646l1.071 0.242 1.07-0.888 0.072-0.405 0.928-0.646c-0.336 0.042-0.672 0.072-1 0.162v-0.729l0.357-0.808h-0.357l-0.784 0.727-0.215 0.405 0.215 0.566-0.358 0.969-0.571-0.323-0.499-0.565-0.786 0.565-0.286-1.293 1.356-0.889v-0.485l0.858-0.566 1.356-0.324 0.929 0.324 1.713 0.323-0.427 0.485h-0.929l0.929 0.97 0.713-0.808 0.217-0.356s2.738 2.455 4.303 5.139c1.565 2.685 2.299 5.85 2.299 6.493v-1e-3zm-26.11-13.62l0.357-0.322 0.715-0.162c0.489-0.238 0.98-0.398 1.499-0.566l-0.285-0.485-0.922 0.132-0.435 0.434-0.719 0.105-0.638 0.299-0.31 0.151-0.19 0.253 0.928 0.161m-0.714 2.668l0.714 0.485h0.572v-0.566l-0.714-0.323-0.572 0.404m12.14 2.991l-0.143 0.97 0.785-0.162 0.571-0.565-0.5-0.485c-0.167-0.447-0.36-0.865-0.57-1.293h-0.428v0.484l0.285 0.323v0.728m-0.285 0.163l-0.286-0.729-0.501 0.163 0.144 0.888 0.643-0.322" style="fill-rule:nonzero;fill:url(#_Linear2)"/>
  </g>
  <g transform="matrix(9.5259,0,0,9.5259,-550.726,220.397)">
   <path d="m35.875 3.603c1.257-0.57 2.781-0.975 4.218-0.962 1.634 0.049 3.286 0.696 4.104 2.131 2.052 3.602-0.525 7.784-2.314 10.837-6.234 10.641-15.911 19.608-26.674 24.945-4.168 2.067-9.788 4.06-12.006 0.169-1.198-2.103-0.818-4.403 0.061-6.561l1.916 2.786c-9e-3 0.047-0.051 0.414-0.124 1-0.406 3.27 6.643 2.058 12.285-1.386 10.769-6.575 21.379-15.685 24.753-27.459 0.819-2.857-0.606-4.023-2.28-4.004-0.428 0.014-0.852 0.049-1.275 0.105l-2.664-1.601z" style="fill-rule:nonzero;fill:white"/>
  </g>
 </g>
 <defs>
  <linearGradient id="_Linear1" x2="1" gradientTransform="matrix(-3.95015,-413.58,413.58,-3.95015,-321.182,656.028)" gradientUnits="userSpaceOnUse">
   <stop style="stop-color:rgb(25,125,236)" offset="0"/>
   <stop style="stop-color:rgb(63,207,251)" offset="1"/>
  </linearGradient>
  <linearGradient id="_Linear2" x2="1" gradientTransform="matrix(-.156992 37.896 -37.896 -.156992 22.9287 4.33259)" gradientUnits="userSpaceOnUse">
   <stop style="stop-color:rgb(190,225,255)" offset="0"/>
   <stop style="stop-color:rgb(119,187,255)" offset="1"/>
  </linearGradient>
 </defs>
</svg>
