<svg style="clip-rule:evenodd;fill-rule:evenodd;stroke-linejoin:round;stroke-miterlimit:2" version="1.1" viewBox="0 0 48 48" xmlns="http://www.w3.org/2000/svg">
 <path d="m47.312 10.595c0-0.976-0.388-1.911-1.077-2.601-0.69-0.691-1.627-1.079-2.603-1.079h-39.264c-0.976 0-1.913 0.388-2.603 1.079-0.689 0.69-1.077 1.625-1.077 2.601v27.823c0 0.976 0.388 1.911 1.077 2.602 0.69 0.69 1.627 1.078 2.603 1.078h39.264c0.976 0 1.913-0.388 2.603-1.078 0.689-0.691 1.077-1.626 1.077-2.602v-27.823z" style="fill-opacity:.67"/>
 <path d="m47.312 9.381c0-1.921-1.557-3.479-3.479-3.479h-39.666c-1.922 0-3.479 1.558-3.479 3.479v28.225c0 1.921 1.557 3.479 3.479 3.479h39.666c1.922 0 3.479-1.558 3.479-3.479v-28.225z" style="fill:url(#_Linear1)"/>
 <path d="m33.655 21.817c-0.068-0.089-0.157-0.142-0.267-0.159l-2.325-0.356c-0.127-0.406-0.3-0.821-0.521-1.245 0.153-0.211 0.381-0.51 0.686-0.895 0.305-0.386 0.521-0.667 0.648-0.845 0.068-0.093 0.102-0.191 0.102-0.292 0-0.119-0.03-0.212-0.089-0.28-0.305-0.432-1.004-1.151-2.096-2.159-0.102-0.085-0.208-0.127-0.318-0.127-0.127 0-0.229 0.038-0.305 0.114l-1.804 1.359c-0.347-0.178-0.728-0.334-1.143-0.47l-0.356-2.337c-9e-3 -0.111-0.057-0.201-0.146-0.273s-0.192-0.109-0.311-0.109h-2.82c-0.246 0-0.398 0.119-0.457 0.356-0.111 0.423-0.233 1.211-0.369 2.363-0.398 0.127-0.783 0.288-1.156 0.483l-1.753-1.36c-0.11-0.084-0.22-0.127-0.33-0.127-0.187 0-0.587 0.303-1.201 0.909-0.614 0.605-1.031 1.061-1.251 1.365-0.076 0.111-0.114 0.208-0.114 0.293 0 0.101 0.042 0.203 0.127 0.304 0.567 0.686 1.02 1.271 1.359 1.754-0.212 0.389-0.377 0.779-0.495 1.168l-2.363 0.356c-0.093 0.017-0.174 0.072-0.242 0.165-0.067 0.094-0.101 0.191-0.101 0.292v2.82c0 0.111 0.034 0.21 0.101 0.299 0.068 0.089 0.157 0.142 0.267 0.159l2.325 0.343c0.119 0.415 0.292 0.834 0.521 1.257-0.153 0.212-0.381 0.51-0.686 0.896-0.305 0.385-0.521 0.667-0.648 0.845-0.068 0.093-0.102 0.19-0.102 0.292 0 0.11 0.03 0.207 0.089 0.292 0.33 0.458 1.029 1.169 2.096 2.134 0.094 0.094 0.199 0.14 0.318 0.14 0.127 0 0.233-0.039 0.318-0.114l1.791-1.36c0.347 0.178 0.728 0.335 1.143 0.471l0.356 2.337c9e-3 0.11 0.057 0.201 0.146 0.273s0.193 0.108 0.311 0.108h2.82c0.246 0 0.399-0.118 0.458-0.355 0.11-0.424 0.233-1.211 0.368-2.363 0.398-0.127 0.784-0.288 1.156-0.483l1.753 1.372c0.119 0.076 0.229 0.114 0.331 0.114 0.186 0 0.584-0.3 1.194-0.902 0.61-0.601 1.029-1.058 1.257-1.372 0.076-0.084 0.115-0.182 0.115-0.292s-0.043-0.216-0.127-0.317c-0.61-0.746-1.063-1.33-1.36-1.754 0.169-0.313 0.335-0.698 0.496-1.156l2.35-0.355c0.101-0.017 0.186-0.072 0.254-0.165 0.068-0.094 0.101-0.191 0.101-0.293v-2.82c0-0.11-0.033-0.209-0.101-0.298zm-7.355 3.982c-0.635 0.636-1.402 0.953-2.3 0.953s-1.664-0.317-2.299-0.953c-0.635-0.635-0.953-1.401-0.953-2.299s0.318-1.664 0.953-2.299 1.402-0.953 2.299-0.953c0.898 0 1.665 0.318 2.3 0.953s0.952 1.401 0.952 2.299-0.317 1.664-0.952 2.299z" style="fill-rule:nonzero;fill:url(#_Linear2)"/>
 <defs>
  <linearGradient id="_Linear1" x2="1" gradientTransform="matrix(2.21762e-15,-36.2165,36.2165,2.21762e-15,275.714,42.119)" gradientUnits="userSpaceOnUse">
   <stop style="stop-color:#46aa03" offset="0"/>
   <stop style="stop-color:#74d706" offset="1"/>
  </linearGradient>
  <linearGradient id="_Linear2" x2="1" gradientTransform="matrix(.3671 -32.5001 32.5001 .3671 22.0079 39.75)" gradientUnits="userSpaceOnUse">
   <stop style="stop-color:#d3d3d3" offset="0"/>
   <stop style="stop-color:#fcf9f9" offset="1"/>
  </linearGradient>
 </defs>
</svg>
