
<svg style="clip-rule:evenodd;fill-rule:evenodd;stroke-linejoin:round;stroke-miterlimit:1.41421" version="1.1" viewBox="0 0 48 48" xmlns="http://www.w3.org/2000/svg">
 <path d="m41.47 8.757c-3e-3 -0.815-0.666-1.474-1.481-1.471-5.663 0.02-25.964 0.089-31.627 0.108-0.392 2e-3 -0.766 0.159-1.042 0.437-0.277 0.277-0.431 0.653-0.43 1.044 0.017 4.577 0.064 18.495 0.081 23.071 1e-3 0.391 0.157 0.767 0.435 1.042 0.278 0.276 0.654 0.43 1.046 0.429 5.662-0.019 25.964-0.089 31.626-0.109 0.815-3e-3 1.475-0.666 1.472-1.481-0.016-4.576-0.064-18.494-0.08-23.07z" style="fill:#3a04d7"/>
 <path d="m38.149 13.503c-2e-3 -0.816-0.664-1.475-1.48-1.473-5.662 0.013-25.964 0.058-31.627 0.071-0.392 1e-3 -0.767 0.157-1.043 0.435-0.276 0.277-0.431 0.653-0.43 1.044 0.01 4.577 0.042 18.494 0.053 23.071 1e-3 0.815 0.664 1.474 1.479 1.472 5.663-0.013 25.965-0.059 31.628-0.072 0.391-1e-3 0.766-0.157 1.042-0.434 0.277-0.278 0.431-0.654 0.43-1.045-0.01-4.576-0.042-18.493-0.052-23.069z" style="fill:url(#_Linear1)"/>
 <path d="m35.946 28.632c3.703-0.051 6.752 2.914 6.803 6.618s-2.914 6.753-6.618 6.804-6.753-2.914-6.804-6.618 2.914-6.753 6.619-6.804z" style="fill:url(#_Linear2)"/>
 <path d="m34.086 38.18l-0.116-5.641 4.944 2.72-4.828 2.921z" style="fill-rule:nonzero;fill:url(#_Linear3)"/>
 <path d="m26.377 22.151h3.357c0.985 8e-3 1.699 0.292 2.141 0.852 0.443 0.559 0.589 1.323 0.439 2.292-0.059 0.442-0.188 0.876-0.388 1.302-0.193 0.426-0.46 0.81-0.802 1.152-0.418 0.435-0.864 0.71-1.34 0.827s-0.969 0.175-1.478 0.175h-1.503l-0.476 2.38h-1.741l1.791-8.98zm1.466 1.428l-0.752 3.757c0.05 8e-3 0.1 0.013 0.15 0.013h0.176c0.801 8e-3 1.469-0.071 2.004-0.238 0.534-0.176 0.893-0.785 1.077-1.829 0.15-0.877 0-1.382-0.451-1.515-0.443-0.134-0.998-0.197-1.666-0.188-0.1 8e-3 -0.196 0.012-0.288 0.012h-0.263l0.013-0.012m-8.394-3.82h1.728l-0.488 2.392h1.553c0.851 0.017 1.486 0.192 1.903 0.526 0.426 0.334 0.551 0.969 0.376 1.904l-0.839 4.17h-1.753l0.801-3.982c0.084-0.418 0.058-0.714-0.075-0.89-0.134-0.175-0.422-0.263-0.864-0.263l-1.391-0.012-1.027 5.147h-1.728l1.804-8.992m-7.92 2.392h3.356c0.986 8e-3 1.699 0.292 2.142 0.852 0.443 0.559 0.589 1.323 0.438 2.292-0.058 0.442-0.187 0.876-0.388 1.302-0.192 0.426-0.459 0.81-0.801 1.152-0.418 0.435-0.865 0.71-1.341 0.827-0.475 0.117-0.968 0.175-1.477 0.175h-1.503l-0.476 2.38h-1.741l1.791-8.98m1.465 1.428l-0.751 3.757c0.05 8e-3 0.1 0.013 0.15 0.013h0.175c0.802 8e-3 1.47-0.071 2.004-0.238 0.535-0.176 0.894-0.785 1.077-1.829 0.151-0.877 0-1.382-0.45-1.515-0.443-0.134-0.998-0.197-1.666-0.188-0.1 8e-3 -0.196 0.012-0.288 0.012h-0.263l0.012-0.012" style="fill-rule:nonzero;fill:#fff"/>
 <defs>
  <linearGradient id="_Linear1" x2="1" gradientTransform="matrix(18.6448,-30.9996,30.9996,18.6448,380.977,263.011)" gradientUnits="userSpaceOnUse">
   <stop style="stop-color:#8080ff" offset="0"/>
   <stop style="stop-color:#8080ff" offset="1"/>
  </linearGradient>
  <linearGradient id="_Linear2" x2="1" gradientTransform="matrix(-.856893 -13.0587 13.0587 -.856893 410.274 17.2206)" gradientUnits="userSpaceOnUse">
   <stop style="stop-color:#cdd0d1" offset="0"/>
   <stop style="stop-color:#f6f6f7" offset="1"/>
  </linearGradient>
  <linearGradient id="_Linear3" x2="1" gradientTransform="matrix(4.9556,-5.63406,5.63406,4.9556,217.288,199.43)" gradientUnits="userSpaceOnUse">
   <stop style="stop-color:#16a085" offset="0"/>
   <stop style="stop-color:#2dcb72" offset="1"/>
  </linearGradient>
 </defs>
</svg>
