<svg style="clip-rule:evenodd;fill-rule:evenodd" version="1.1" viewBox="0 0 48 48" xmlns="http://www.w3.org/2000/svg">
 <circle cx="24" cy="24" r="22.764" style="fill:url(#_Linear1)"/>
 <circle cx="24" cy="24" r="21.848" style="fill:none;stroke-opacity:.45;stroke-width:2.03px;stroke:#fff"/>
 <path d="m19.2 18.456v15.05c0.015 0.596-0.15 1.19-0.479 1.697-0.431 0.663-1.107 1.127-1.879 1.29-0.6 0.128-1.232 0.262-1.831 0.39-0.773 0.163-1.58 0.014-2.242-0.417-0.662-0.43-1.126-1.105-1.29-1.878-0.025-0.115-0.049-0.23-0.074-0.345-0.164-0.774-0.015-1.579 0.415-2.242 0.432-0.662 1.107-1.127 1.879-1.291 0.6-0.127 1.232-0.261 1.831-0.388 0.082-0.018 0.166-0.032 0.249-0.042v-0.011s0.446-0.095 0.906-0.193c0.581-0.123 0.997-0.636 0.997-1.23v-15.306c0-0.597 0.419-1.113 1.006-1.232 2.685-0.548 10.014-2.044 12.927-2.638 0.3-0.061 0.609 0.015 0.846 0.208 0.236 0.192 0.374 0.48 0.374 0.786l0.05 20.051c8e-3 0.587-0.157 1.165-0.481 1.663-0.43 0.663-1.106 1.128-1.879 1.292-0.599 0.127-1.231 0.261-1.831 0.389-0.772 0.164-1.578 0.014-2.241-0.416-0.662-0.431-1.127-1.107-1.291-1.88-0.024-0.114-0.049-0.23-0.073-0.345-0.164-0.772-0.014-1.579 0.416-2.241 0.43-0.663 1.107-1.127 1.879-1.291 0.599-0.127 1.231-0.261 1.831-0.389 0.094-0.02 0.191-0.035 0.287-0.046l0.843-0.17c0.588-0.119 1.01-0.635 1.01-1.233v-10.081l-12.155 2.489zm12.155-3.725v-1.109c0-0.256-0.115-0.498-0.313-0.662-0.199-0.162-0.46-0.227-0.711-0.176-2.297 0.461-7.837 1.573-10.121 2.031-0.587 0.119-1.01 0.634-1.01 1.234v1.171l12.155-2.489z" style="fill:#fff"/>
 <defs>
  <linearGradient id="_Linear1" x2="1" gradientTransform="matrix(.192784 -44.2422 44.2422 .192784 116.682 47.1622)" gradientUnits="userSpaceOnUse">
   <stop style="stop-color:#8d3aff" offset="0"/>
   <stop style="stop-color:#ff3680" offset="1"/>
  </linearGradient>
 </defs>
</svg>
