<svg style="clip-rule:evenodd;fill-rule:evenodd;stroke-linejoin:round;stroke-miterlimit:2" version="1.1" viewBox="0 0 48 48" xmlns="http://www.w3.org/2000/svg">
 <path d="m39.44 2.332c3.438 0 6.228 2.79 6.228 6.228v30.88c0 3.438-2.79 6.228-6.228 6.228h-30.88c-3.438 0-6.228-2.79-6.228-6.228v-30.88c0-3.438 2.79-6.228 6.228-6.228h30.88z" style="fill:url(#_Linear1)"/>
 <path d="m2.332 10.72v-2.16c0-3.438 2.79-6.228 6.228-6.228h30.88c3.438 0 6.228 2.79 6.228 6.228v2.16h-43.336z" style="fill-opacity:.5;fill:rgb(235,235,235)"/>
 <g transform="matrix(.781106 0 0 .781106 5.25346 8.29079)">
  <path d="m31.416 34.066c-2.076 1.532-4.641 2.438-7.416 2.438-6.901 0-12.504-5.603-12.504-12.504s5.603-12.504 12.504-12.504c2.775 0 5.34 0.906 7.416 2.438v-1.671h5.088v23.474h-5.088v-1.671zm2.82-11.211c-0.033-0.289-0.371-0.506-0.664-0.506-0.942 0-1.779-0.554-2.13-1.412-0.361-0.877-0.128-1.902 0.574-2.547 0.222-0.201 0.248-0.54 0.063-0.777-0.483-0.613-1.033-1.167-1.632-1.648-0.234-0.188-0.58-0.161-0.781 0.064-0.615 0.679-1.718 0.933-2.57 0.576-0.886-0.372-1.446-1.271-1.391-2.236 0.018-0.302-0.204-0.566-0.507-0.601-0.769-0.09-1.543-0.091-2.316-6e-3 -0.299 0.033-0.52 0.291-0.511 0.588 0.034 0.956-0.533 1.84-1.41 2.199-0.841 0.343-1.938 0.094-2.549-0.581-0.203-0.221-0.541-0.249-0.779-0.065-0.616 0.484-1.179 1.039-1.666 1.648-0.189 0.236-0.162 0.579 0.061 0.783 0.72 0.649 0.951 1.682 0.577 2.569-0.355 0.847-1.235 1.392-2.24 1.392-0.328-9e-3 -0.56 0.209-0.595 0.506-0.092 0.775-0.092 1.562-6e-3 2.342 0.033 0.291 0.382 0.508 0.675 0.508 0.897-0.024 1.759 0.531 2.121 1.411 0.36 0.878 0.129 1.901-0.576 2.546-0.221 0.203-0.249 0.542-0.063 0.777 0.478 0.611 1.026 1.164 1.63 1.648 0.235 0.192 0.579 0.163 0.784-0.061 0.615-0.682 1.719-0.934 2.567-0.579 0.888 0.372 1.448 1.271 1.393 2.237-0.018 0.303 0.204 0.565 0.507 0.602 0.393 0.044 0.789 0.069 1.187 0.069 0.376 0 0.753-0.022 1.129-0.064 0.299-0.033 0.521-0.291 0.511-0.59-0.034-0.955 0.531-1.837 1.409-2.196 0.847-0.346 1.939-0.093 2.551 0.581 0.202 0.22 0.539 0.248 0.777 0.065 0.617-0.485 1.176-1.038 1.667-1.648 0.189-0.236 0.162-0.58-0.061-0.783-0.717-0.649-0.952-1.682-0.579-2.57 0.352-0.835 1.198-1.397 2.108-1.397l0.128 4e-3c0.295 0.025 0.566-0.204 0.601-0.504 0.092-0.775 0.092-1.563 6e-3 -2.344zm-10.22 4.602c-1.894 0-3.435-1.541-3.435-3.436 0-1.894 1.541-3.436 3.435-3.436 1.895 0 3.436 1.542 3.436 3.436 0 1.895-1.541 3.436-3.436 3.436z" style="fill:rgb(238,236,236)"/>
 </g>
 <path d="m34.894 5.684c0.246-0.309 0.721-0.296 0.952-0.071 0.232 0.226 0.221 0.664-0.029 1.096-0.175 0.324-0.612 0.642-0.973 0.851-0.35-0.229-0.769-0.569-0.927-0.902-0.225-0.445-0.213-0.884 0.03-1.096 0.244-0.213 0.719-0.2 0.947 0.122zm0.406 0.22c0.115 0.019 0.207 0.096 0.204 0.21-3e-3 0.111-0.099 0.196-0.215 0.197-0.135 1e-3 -0.208-0.097-0.205-0.209 3e-3 -0.113 0.078-0.221 0.216-0.198zm-0.828-0.021c0.133-0.019 0.208 0.097 0.205 0.21-3e-3 0.112-0.05 0.193-0.215 0.198-0.116 3e-3 -0.208-0.097-0.205-0.209 3e-3 -0.113 0.1-0.182 0.215-0.199z" style="fill:white"/>
 <path d="m41.289 5.705 0.354 0.375 0.56-0.531 0.447 0.472-0.56 0.531 0.355 0.374c0.121 0.127 0.12 0.325-2e-3 0.44s-0.319 0.106-0.439-0.021l-0.355-0.375-0.562 0.532-0.448-0.472 0.563-0.504-0.355-0.403c-0.121-0.127-0.119-0.324 2e-3 -0.439 0.122-0.116 0.319-0.106 0.44 0.021z" style="fill:white"/>
 <path d="m38.233 5.621 4e-3 -0.144 0.514 0.014-5e-3 0.143 0.278 8e-3c0.266 8e-3 0.477 0.23 0.47 0.496l-0.026 0.966c-7e-3 0.267-0.23 0.477-0.496 0.47l-1.068-0.029c-0.267-7e-3 -0.477-0.229-0.47-0.496l0.026-0.966c7e-3 -0.267 0.23-0.477 0.496-0.47l0.277 8e-3zm-0.154 0.42c0.138 3e-3 0.248 0.119 0.244 0.257-3e-3 0.139-0.119 0.248-0.258 0.244-0.138-3e-3 -0.247-0.119-0.243-0.257 3e-3 -0.138 0.119-0.248 0.257-0.244zm0.856 0.023c0.138 4e-3 0.247 0.119 0.244 0.257-4e-3 0.139-0.119 0.248-0.258 0.245-0.139-4e-3 -0.248-0.119-0.244-0.258 4e-3 -0.138 0.119-0.248 0.258-0.244z" style="fill:white"/>
 <defs>
  <linearGradient id="_Linear1" x2="1" gradientTransform="matrix(2.21762e-15,-36.2165,36.2165,2.21762e-15,573.921,42.119)" gradientUnits="userSpaceOnUse">
   <stop style="stop-color:rgb(70,170,3)" offset="0"/>
   <stop style="stop-color:rgb(116,215,6)" offset="1"/>
  </linearGradient>
 </defs>
</svg>
