<svg style="clip-rule:evenodd;fill-rule:evenodd;stroke-linejoin:round;stroke-miterlimit:2" version="1.1" viewBox="0 0 48 48" xmlns="http://www.w3.org/2000/svg">
 <path d="m39.44 2.332c3.438 0 6.228 2.79 6.228 6.228v30.88c0 3.438-2.79 6.228-6.228 6.228h-30.88c-3.438 0-6.228-2.79-6.228-6.228v-30.88c0-3.438 2.79-6.228 6.228-6.228h30.88z" style="fill:url(#_Linear1)"/>
 <path d="m2.332 10.72v-2.16c0-3.438 2.79-6.228 6.228-6.228h30.88c3.438 0 6.228 2.79 6.228 6.228v2.16h-43.336z" style="fill-opacity:.5;fill:#ebebeb"/>
 <path d="m33.655 25.231c-0.068-0.089-0.157-0.142-0.267-0.159l-2.325-0.356c-0.127-0.406-0.3-0.821-0.521-1.245 0.153-0.211 0.381-0.51 0.686-0.895 0.305-0.386 0.521-0.667 0.648-0.845 0.068-0.093 0.102-0.191 0.102-0.292 0-0.119-0.03-0.212-0.089-0.28-0.305-0.432-1.004-1.151-2.096-2.159-0.102-0.085-0.208-0.127-0.318-0.127-0.127 0-0.229 0.038-0.305 0.114l-1.804 1.359c-0.347-0.178-0.728-0.334-1.143-0.47l-0.356-2.337c-9e-3 -0.111-0.057-0.201-0.146-0.273s-0.192-0.109-0.311-0.109h-2.82c-0.246 0-0.398 0.119-0.457 0.356-0.111 0.423-0.233 1.211-0.369 2.363-0.398 0.127-0.783 0.288-1.156 0.483l-1.753-1.36c-0.11-0.084-0.22-0.127-0.33-0.127-0.187 0-0.587 0.303-1.201 0.909-0.614 0.605-1.031 1.061-1.251 1.365-0.076 0.111-0.114 0.208-0.114 0.293 0 0.101 0.042 0.203 0.127 0.304 0.567 0.686 1.02 1.271 1.359 1.754-0.212 0.389-0.377 0.779-0.495 1.168l-2.363 0.356c-0.093 0.017-0.174 0.072-0.242 0.165-0.067 0.094-0.101 0.191-0.101 0.292v2.82c0 0.111 0.034 0.21 0.101 0.299 0.068 0.089 0.157 0.142 0.267 0.159l2.325 0.343c0.119 0.415 0.292 0.834 0.521 1.257-0.153 0.212-0.381 0.51-0.686 0.896-0.305 0.385-0.521 0.667-0.648 0.845-0.068 0.093-0.102 0.19-0.102 0.292 0 0.11 0.03 0.207 0.089 0.292 0.33 0.458 1.029 1.169 2.096 2.134 0.094 0.094 0.199 0.14 0.318 0.14 0.127 0 0.233-0.039 0.318-0.114l1.791-1.36c0.347 0.178 0.728 0.335 1.143 0.471l0.356 2.337c9e-3 0.11 0.057 0.201 0.146 0.273s0.193 0.108 0.311 0.108h2.82c0.246 0 0.399-0.118 0.458-0.355 0.11-0.424 0.233-1.211 0.368-2.363 0.398-0.127 0.784-0.288 1.156-0.483l1.753 1.372c0.119 0.076 0.229 0.114 0.331 0.114 0.186 0 0.584-0.3 1.194-0.902 0.61-0.601 1.029-1.058 1.257-1.372 0.076-0.084 0.115-0.182 0.115-0.292s-0.043-0.216-0.127-0.317c-0.61-0.746-1.063-1.33-1.36-1.754 0.169-0.313 0.335-0.698 0.496-1.156l2.35-0.355c0.101-0.017 0.186-0.072 0.254-0.165 0.068-0.094 0.101-0.191 0.101-0.293v-2.82c0-0.11-0.033-0.209-0.101-0.298zm-7.355 3.982c-0.635 0.636-1.402 0.953-2.3 0.953s-1.664-0.317-2.299-0.953c-0.635-0.635-0.953-1.401-0.953-2.299s0.318-1.664 0.953-2.299 1.402-0.953 2.299-0.953c0.898 0 1.665 0.318 2.3 0.953s0.952 1.401 0.952 2.299-0.317 1.664-0.952 2.299z" style="fill-rule:nonzero;fill:url(#_Linear2)"/>
 <path d="m34.894 5.684c0.246-0.309 0.721-0.296 0.952-0.071 0.232 0.226 0.221 0.664-0.029 1.096-0.175 0.324-0.612 0.642-0.973 0.851-0.35-0.229-0.769-0.569-0.927-0.902-0.225-0.445-0.213-0.884 0.03-1.096 0.244-0.213 0.719-0.2 0.947 0.122zm0.406 0.22c0.115 0.019 0.207 0.096 0.204 0.21-3e-3 0.111-0.099 0.196-0.215 0.197-0.135 1e-3 -0.208-0.097-0.205-0.209 3e-3 -0.113 0.078-0.221 0.216-0.198zm-0.828-0.021c0.133-0.019 0.208 0.097 0.205 0.21-3e-3 0.112-0.05 0.193-0.215 0.198-0.116 3e-3 -0.208-0.097-0.205-0.209 3e-3 -0.113 0.1-0.182 0.215-0.199z" style="fill:#fff"/>
 <path d="m41.289 5.705 0.354 0.375 0.56-0.531 0.447 0.472-0.56 0.531 0.355 0.374c0.121 0.127 0.12 0.325-2e-3 0.44s-0.319 0.106-0.439-0.021l-0.355-0.375-0.562 0.532-0.448-0.472 0.563-0.504-0.355-0.403c-0.121-0.127-0.119-0.324 2e-3 -0.439 0.122-0.116 0.319-0.106 0.44 0.021z" style="fill:#fff"/>
 <path d="m38.233 5.621 4e-3 -0.144 0.514 0.014-5e-3 0.143 0.278 8e-3c0.266 8e-3 0.477 0.23 0.47 0.496l-0.026 0.966c-7e-3 0.267-0.23 0.477-0.496 0.47l-1.068-0.029c-0.267-7e-3 -0.477-0.229-0.47-0.496l0.026-0.966c7e-3 -0.267 0.23-0.477 0.496-0.47l0.277 8e-3zm-0.154 0.42c0.138 3e-3 0.248 0.119 0.244 0.257-3e-3 0.139-0.119 0.248-0.258 0.244-0.138-3e-3 -0.247-0.119-0.243-0.257 3e-3 -0.138 0.119-0.248 0.257-0.244zm0.856 0.023c0.138 4e-3 0.247 0.119 0.244 0.257-4e-3 0.139-0.119 0.248-0.258 0.245-0.139-4e-3 -0.248-0.119-0.244-0.258 4e-3 -0.138 0.119-0.248 0.258-0.244z" style="fill:#fff"/>
 <defs>
  <linearGradient id="_Linear1" x2="1" gradientTransform="matrix(2.21762e-15,-36.2165,36.2165,2.21762e-15,489.464,42.119)" gradientUnits="userSpaceOnUse">
   <stop style="stop-color:#46aa03" offset="0"/>
   <stop style="stop-color:#74d706" offset="1"/>
  </linearGradient>
  <linearGradient id="_Linear2" x2="1" gradientTransform="matrix(.3671 -32.5001 32.5001 .3671 468.657 48.2089)" gradientUnits="userSpaceOnUse">
   <stop style="stop-color:#d3d3d3" offset="0"/>
   <stop style="stop-color:#fcf9f9" offset="1"/>
  </linearGradient>
 </defs>
</svg>
