<svg style="clip-rule:evenodd;fill-rule:evenodd;stroke-linecap:round;stroke-linejoin:round;stroke-miterlimit:1.5" version="1.1" viewBox="0 0 48 48" xmlns="http://www.w3.org/2000/svg">
 <circle cx="24" cy="24" r="22.764" style="fill:url(#_Linear1)"/>
 <path d="m27.766 36.829c-0.194 0.221-0.444 0.426-0.68 0.617-1.52-1.573-3.307-3.316-5.007-3.316-1.052 0-1.81 0.802-2.696 1.368-1.226 0.784-2.911 1.226-4.355 0.65-0.775-0.295-1.528-0.729-2.091-1.435 1.137 0.785 2.838 0.889 4.121 0.357 1.417-0.588 2.859-1.369 4.476-1.369 2.38 0 4.644 1.61 6.232 3.128zm-17.6-4.947c1.575 1.795 4.148 1.218 6.252 1.666 0.294 0.062 0.569 0.16 0.883 0.111-0.25-0.159-0.582-0.177-0.872-0.286-1.632-0.615-1.887-2.363-2.78-3.565 1.141 0.759 2.086 1.797 3.154 2.774 0.742 0.679 1.668 0.97 2.628 1.165-0.23 0.085-0.532 0.066-0.78 0.127-1.724 0.428-3.636 1.103-5.471 0.497-1.184-0.391-2.416-1.316-3.014-2.489zm-2.528-4.154c0.984 2.227 3.454 2.402 5.097 3.767 0.313 0.26 0.623 0.499 0.965 0.659l0.019-0.017c-0.38-0.344-0.79-0.753-1.084-1.179-0.939-1.365-0.626-3.23-1.351-4.677 0.658 0.789 1.275 1.6 1.655 2.502 0.608 1.45 0.816 3.106 2.182 4.209-1.479-0.489-3.186-0.391-4.517-1.264-1.402-0.917-2.7-2.365-2.966-4zm-1.053-4.505c0.142 1.963 2.23 3.01 3.226 4.623 0.213 0.344 0.432 0.7 0.74 0.977-0.048-0.208-0.22-0.392-0.314-0.598-0.319-0.692-0.464-1.492-0.384-2.316 0.097-1.001 0.515-1.932 0.355-2.986 0.858 1.853 0.58 4.169 1.076 6.173 0.111 0.443 0.38 0.83 0.546 1.251-0.842-0.642-1.948-1.212-2.874-1.941-0.894-0.706-1.671-1.534-2.076-2.609-0.291-0.776-0.367-1.701-0.295-2.574zm0.058-3.614c0.1-0.437 0.177-0.891 0.368-1.292-0.361 1.85 0.87 3.188 1.291 4.788 0.158 0.604 0.212 1.244 0.457 1.807 0.023 0.012 0.042-0.011 0.056-0.029-0.606-1.704 0.283-3.279 1.151-4.622 0.227-0.353 0.338-0.764 0.444-1.179 0.093 0.771-0.071 1.663-0.214 2.459-0.183 1.026-0.534 1.986-0.812 2.974-0.183 0.618-0.135 1.315-0.041 1.961l-0.088-0.069c-0.646-1.192-1.919-2.123-2.305-3.426-0.307-1.038-0.52-2.24-0.307-3.372zm0.681-1.991c0-1.4 0.545-2.542 1.363-3.585 0.024-0.012 0.041-0.035 0.072-0.031-0.901 1.371-0.082 3.1-0.197 4.654l-0.119 1.593c0.017 0.012 0.017 0.06 0.059 0.042 0.054-0.179 0.07-0.367 0.101-0.551 0.217-1.285 1.346-2.18 2.303-3.088 0.226-0.214 0.392-0.468 0.499-0.741-0.08 0.641-0.259 1.297-0.545 1.879-0.738 1.491-2.161 2.696-2.417 4.391-0.124-1.625-1.119-2.833-1.119-4.563zm2.373-4.723c0.454-0.502 0.96-0.893 1.564-1.047-1.173 0.806-1.109 2.248-1.468 3.452-0.131 0.441-0.324 0.854-0.426 1.31l0.029 0.023c0.195-0.513 0.529-1.01 0.966-1.421 0.825-0.779 2.066-1.249 2.474-2.388-0.018 1.582-1.367 2.785-2.599 3.716-0.553 0.418-1.023 0.978-1.308 1.564 0.046-0.436 0.068-0.8 0.03-1.226-0.126-1.383-0.209-2.932 0.738-3.983zm4.762-2.661c-0.871 0.764-1.452 1.747-2.121 2.632-0.556 0.735-1.318 1.19-1.976 1.807 0.355-0.735 0.42-1.577 0.87-2.289 0.77-1.216 2.041-1.687 3.227-2.15z" style="fill-rule:nonzero;fill:#fff"/>
 <path d="m18.769 36.829c0.194 0.221 0.444 0.426 0.678 0.617 1.522-1.573 3.309-3.316 5.008-3.316 1.052 0 1.81 0.802 2.695 1.368 1.228 0.784 2.913 1.226 4.357 0.65 0.775-0.295 1.527-0.729 2.089-1.435-1.135 0.785-2.836 0.889-4.119 0.357-1.417-0.588-2.861-1.369-4.476-1.369-2.38 0-4.644 1.61-6.232 3.128zm17.6-4.947c-1.577 1.795-4.148 1.218-6.252 1.666-0.294 0.062-0.569 0.16-0.883 0.111 0.25-0.159 0.582-0.177 0.871-0.286 1.633-0.615 1.887-2.363 2.781-3.565-1.141 0.759-2.087 1.797-3.155 2.774-0.742 0.679-1.669 0.97-2.627 1.165 0.229 0.085 0.532 0.066 0.779 0.127 1.725 0.428 3.637 1.103 5.471 0.497 1.185-0.391 2.417-1.316 3.015-2.489zm2.528-4.154c-0.984 2.227-3.455 2.402-5.097 3.767-0.313 0.26-0.623 0.499-0.966 0.659l-0.018-0.017c0.38-0.344 0.79-0.753 1.084-1.179 0.939-1.365 0.626-3.23 1.35-4.677-0.657 0.789-1.274 1.6-1.654 2.502-0.61 1.45-0.816 3.106-2.183 4.209 1.48-0.489 3.185-0.391 4.518-1.264 1.401-0.917 2.699-2.365 2.966-4zm1.053-4.505c-0.143 1.963-2.23 3.01-3.227 4.623-0.213 0.344-0.431 0.7-0.739 0.977 0.048-0.208 0.219-0.392 0.314-0.598 0.319-0.692 0.464-1.492 0.384-2.316-0.097-1.001-0.515-1.932-0.355-2.986-0.858 1.853-0.581 4.169-1.077 6.173-0.11 0.443-0.379 0.83-0.545 1.251 0.842-0.642 1.948-1.212 2.873-1.941 0.895-0.706 1.672-1.534 2.077-2.609 0.291-0.776 0.366-1.701 0.295-2.574zm-0.058-3.614c-0.101-0.437-0.178-0.891-0.368-1.292 0.361 1.85-0.872 3.188-1.291 4.788-0.158 0.604-0.212 1.244-0.457 1.807-0.023 0.012-0.042-0.011-0.056-0.029 0.606-1.704-0.284-3.279-1.151-4.622-0.227-0.353-0.338-0.764-0.444-1.179-0.093 0.771 0.07 1.663 0.214 2.459 0.183 1.026 0.532 1.986 0.812 2.974 0.183 0.618 0.135 1.315 0.04 1.961l0.089-0.069c0.646-1.192 1.919-2.123 2.305-3.426 0.307-1.038 0.519-2.24 0.307-3.372zm-0.681-1.991c0-1.4-0.546-2.542-1.363-3.585-0.024-0.012-0.041-0.035-0.072-0.031 0.901 1.371 0.08 3.1 0.197 4.654l0.119 1.593c-0.019 0.012-0.019 0.06-0.06 0.042-0.053-0.179-0.069-0.367-0.1-0.551-0.217-1.285-1.346-2.18-2.303-3.088-0.226-0.214-0.392-0.468-0.499-0.741 0.08 0.641 0.259 1.297 0.545 1.879 0.738 1.491 2.161 2.696 2.417 4.391 0.124-1.625 1.119-2.833 1.119-4.563zm-2.373-4.723c-0.454-0.502-0.961-0.893-1.566-1.047 1.174 0.806 1.11 2.248 1.47 3.452 0.131 0.441 0.324 0.854 0.426 1.31l-0.029 0.023c-0.195-0.513-0.531-1.01-0.966-1.421-0.825-0.779-2.066-1.249-2.475-2.388 0.019 1.582 1.368 2.785 2.6 3.716 0.553 0.418 1.021 0.978 1.308 1.564-0.048-0.436-0.068-0.8-0.031-1.226 0.127-1.383 0.21-2.932-0.737-3.983zm-4.763-2.661c0.872 0.764 1.453 1.747 2.12 2.632 0.558 0.735 1.32 1.19 1.976 1.807-0.353-0.735-0.419-1.577-0.868-2.289-0.77-1.216-2.042-1.687-3.228-2.15z" style="fill-rule:nonzero;fill:#fff"/>
 <path d="m23.43 16.875c0.18-0.242 0.884-0.315 1.386-0.057 0.793 0.409 2.05-0.186 3.565 0.147 1.515 0.332 1.515 1.256 1.212 1.692-0.302 0.437 0.469 1.633 0.022 1.854-0.448 0.222-0.883 0.278-1.369 1.015-0.486 0.738 0.246 1.57-0.227 1.914-0.031 0.023-0.066 0.039-0.105 0.052 0.285-0.027 0.549-0.093 0.749-0.228 0.579-0.387 0.181 2.66 0.214 3.212 0.035 0.555-1.29 1.682-2.143 1.661-0.854-0.021-1.64-1.992-1.945-2.308-0.306-0.316-1.419 0.051-1.844-0.191-1.28-0.729 0.061-1.968 0.992-2.396 0.932-0.428 1.803 0.169 2.423 0.198 0.338 0.016 0.815 0.077 1.275 0.067-0.636-0.072-1.681-0.704-2.235-0.776-0.691-0.089-1.636 0.31-1.918 0.108-0.282-0.204 1.149-0.869 1.286-1.317 0.136-0.448-0.154-0.051-0.506-0.253-0.351-0.204 0.994-0.371 0.876-1.065-0.16-0.934-0.266-2.149-1.343-2.762-0.051-0.029-0.098-0.058-0.138-0.086-0.229 0.168-0.665 0.335-0.949 0.502-0.576 0.339-0.57 1.952-1.24 2.865-0.671 0.915-1.343-0.433-1.967-0.863-0.624-0.429-0.263-1.14-0.464-1.519-0.201-0.376-0.536 1.042-0.931 0.935-0.265-0.073-0.345 0.09-0.207-0.329 0.137-0.419 0.841-1.336 1.246-1.838 0.404-0.503 1.11-0.293 1.682 0.132 0.573 0.425 1.348-0.737 2.499-0.398 0.037 0.01 0.072 0.022 0.104 0.032zm-8.134 5.011c0.62 0.043 0.713-0.923 0.905-1.343 0.192-0.419 0.623-0.557 1.083-0.248 0.458 0.309 0.986 0.919 1.009 1.546 0.022 0.628 0.515 1.852 0.943 2.339 0.427 0.488-0.189 1.888-1.136 1.39-0.949-0.496-1.528-0.848-2.494-1.254-0.968-0.406-0.53-1.158-1.302-1.124-0.773 0.034-1.642-1.203-0.902-1.277 0.739-0.074 1.274-0.074 1.894-0.029z" style="fill:#fff"/>
 <path d="m18.104 38.028c0.028 0 0.054 9e-3 0.076 0.026 0.02 0.018 0.033 0.039 0.035 0.066l0.086 0.569c0.101 0.032 0.193 0.069 0.278 0.113l0.438-0.33c0.018-0.019 0.043-0.028 0.074-0.028 0.027 0 0.052 0.01 0.077 0.031 0.266 0.246 0.436 0.42 0.509 0.525 0.015 0.016 0.022 0.039 0.022 0.068 0 0.025-7e-3 0.048-0.025 0.07-0.03 0.044-0.083 0.112-0.157 0.205-0.074 0.095-0.129 0.168-0.166 0.219 0.053 0.103 0.095 0.203 0.127 0.302l0.564 0.086c0.026 4e-3 0.048 0.018 0.064 0.039 0.018 0.022 0.025 0.045 0.025 0.073v0.685c0 0.024-7e-3 0.048-0.025 0.07-0.016 0.024-0.036 0.037-0.061 0.041l-0.572 0.086c-0.037 0.112-0.078 0.205-0.119 0.281 0.071 0.103 0.182 0.246 0.33 0.426 0.021 0.025 0.031 0.051 0.031 0.077 0 0.028-9e-3 0.051-0.028 0.071-0.055 0.076-0.157 0.188-0.305 0.334-0.149 0.145-0.245 0.219-0.291 0.219-0.024 0-0.051-0.01-0.08-0.027l-0.425-0.335c-0.092 0.048-0.185 0.087-0.281 0.118-0.033 0.279-0.064 0.471-0.09 0.575-0.015 0.056-0.051 0.085-0.111 0.085h-0.685c-0.029 0-0.054-8e-3 -0.076-0.026-0.022-0.017-0.033-0.039-0.036-0.067l-0.086-0.567c-0.1-0.034-0.194-0.071-0.278-0.114l-0.435 0.331c-0.02 0.017-0.047 0.027-0.077 0.027-0.029 0-0.055-0.011-0.077-0.035-0.259-0.234-0.429-0.407-0.509-0.518-0.015-0.02-0.022-0.043-0.022-0.071 0-0.025 8e-3 -0.048 0.024-0.071 0.031-0.042 0.083-0.111 0.158-0.205 0.074-0.093 0.129-0.166 0.167-0.217-0.055-0.103-0.098-0.205-0.127-0.306l-0.564-0.084c-0.028-3e-3 -0.05-0.016-0.066-0.038s-0.024-0.046-0.024-0.073v-0.685c0-0.025 8e-3 -0.048 0.024-0.071 0.016-0.022 0.037-0.035 0.059-0.04l0.574-0.087c0.029-0.094 0.069-0.189 0.121-0.284-0.083-0.116-0.194-0.259-0.33-0.426-0.022-0.023-0.032-0.048-0.032-0.073 0-0.021 0.01-0.045 0.027-0.071 0.054-0.074 0.156-0.185 0.304-0.332 0.15-0.147 0.248-0.221 0.293-0.221 0.026 0 0.054 0.01 0.08 0.031l0.426 0.33c0.09-0.047 0.184-0.086 0.281-0.116 0.032-0.281 0.063-0.472 0.089-0.575 0.014-0.057 0.052-0.086 0.112-0.086h0.685zm11.211 0c0.028 0 0.054 9e-3 0.076 0.026 0.02 0.018 0.033 0.039 0.035 0.066l0.086 0.569c0.102 0.032 0.193 0.069 0.278 0.113l0.438-0.33c0.018-0.019 0.043-0.028 0.074-0.028 0.027 0 0.052 0.01 0.077 0.031 0.266 0.246 0.436 0.42 0.509 0.525 0.015 0.016 0.022 0.039 0.022 0.068 0 0.025-7e-3 0.048-0.025 0.07-0.03 0.044-0.083 0.112-0.157 0.205-0.074 0.095-0.129 0.168-0.166 0.219 0.053 0.103 0.095 0.203 0.127 0.302l0.564 0.086c0.027 4e-3 0.048 0.018 0.064 0.039 0.018 0.022 0.025 0.045 0.025 0.073v0.685c0 0.024-7e-3 0.048-0.025 0.07-0.016 0.024-0.036 0.037-0.061 0.041l-0.572 0.086c-0.037 0.112-0.078 0.205-0.119 0.281 0.071 0.103 0.182 0.246 0.33 0.426 0.021 0.025 0.031 0.051 0.031 0.077 0 0.028-9e-3 0.051-0.028 0.071-0.055 0.076-0.157 0.188-0.305 0.334-0.149 0.145-0.245 0.219-0.291 0.219-0.024 0-0.051-0.01-0.08-0.027l-0.425-0.335c-0.092 0.048-0.185 0.087-0.281 0.118-0.033 0.279-0.064 0.471-0.09 0.575-0.015 0.056-0.051 0.085-0.111 0.085h-0.685c-0.029 0-0.054-8e-3 -0.076-0.026-0.022-0.017-0.033-0.039-0.036-0.067l-0.086-0.567c-0.1-0.034-0.193-0.071-0.278-0.114l-0.435 0.331c-0.02 0.017-0.046 0.027-0.077 0.027-0.029 0-0.055-0.011-0.077-0.035-0.259-0.234-0.429-0.407-0.509-0.518-0.015-0.02-0.022-0.043-0.022-0.071 0-0.025 8e-3 -0.048 0.024-0.071 0.031-0.042 0.083-0.111 0.158-0.205 0.074-0.093 0.129-0.166 0.167-0.217-0.055-0.103-0.098-0.205-0.127-0.306l-0.564-0.084c-0.028-3e-3 -0.05-0.016-0.066-0.038s-0.024-0.046-0.024-0.073v-0.685c0-0.025 8e-3 -0.048 0.024-0.071 0.016-0.022 0.037-0.035 0.059-0.04l0.574-0.087c0.029-0.094 0.069-0.189 0.121-0.284-0.083-0.116-0.193-0.259-0.33-0.426-0.022-0.023-0.032-0.048-0.032-0.073 0-0.021 0.01-0.045 0.027-0.071 0.054-0.074 0.156-0.185 0.304-0.332 0.15-0.147 0.248-0.221 0.293-0.221 0.026 0 0.054 0.01 0.08 0.031l0.426 0.33c0.091-0.047 0.184-0.086 0.281-0.116 0.032-0.281 0.063-0.472 0.089-0.575 0.014-0.057 0.052-0.086 0.112-0.086h0.685zm-5.543-1.956c0.034 0 0.065 0.012 0.091 0.032 0.026 0.022 0.041 0.048 0.044 0.082l0.105 0.693c0.123 0.039 0.235 0.085 0.339 0.138l0.534-0.402c0.023-0.023 0.052-0.035 0.09-0.035 0.033 0 0.064 0.013 0.094 0.038 0.323 0.298 0.532 0.512 0.622 0.64 0.017 0.021 0.026 0.048 0.026 0.083 0 0.029-0.01 0.058-0.031 0.086-0.037 0.052-0.101 0.137-0.192 0.25-0.09 0.115-0.157 0.203-0.202 0.265 0.064 0.127 0.116 0.249 0.154 0.37l0.689 0.104c0.032 6e-3 0.058 0.021 0.078 0.048s0.031 0.056 0.031 0.088v0.835c0 0.031-0.011 0.06-0.031 0.087-0.02 0.028-0.045 0.044-0.076 0.048l-0.695 0.107c-0.048 0.135-0.096 0.248-0.147 0.341 0.089 0.126 0.223 0.299 0.403 0.52 0.025 0.03 0.038 0.061 0.038 0.094 0 0.032-0.012 0.062-0.035 0.086-0.067 0.093-0.191 0.229-0.373 0.406-0.18 0.179-0.298 0.268-0.353 0.268-0.029 0-0.063-0.012-0.098-0.033l-0.519-0.408c-0.109 0.058-0.224 0.106-0.342 0.144-0.041 0.341-0.077 0.573-0.109 0.7-0.018 0.07-0.063 0.105-0.135 0.105h-0.836c-0.035 0-0.065-0.01-0.091-0.032-0.028-0.022-0.041-0.048-0.044-0.082l-0.106-0.691c-0.122-0.041-0.236-0.087-0.338-0.14l-0.531 0.404c-0.025 0.021-0.057 0.033-0.094 0.033-0.035 0-0.066-0.015-0.094-0.042-0.315-0.285-0.523-0.496-0.621-0.632-0.017-0.024-0.026-0.054-0.026-0.086 0-0.03 0.01-0.059 0.031-0.087 0.037-0.052 0.101-0.135 0.192-0.25 0.09-0.114 0.157-0.202 0.202-0.265-0.067-0.125-0.119-0.25-0.154-0.372l-0.689-0.102c-0.032-5e-3 -0.059-0.021-0.078-0.047-0.021-0.026-0.031-0.057-0.031-0.089v-0.835c0-0.03 0.01-0.059 0.031-0.087 0.019-0.026 0.043-0.044 0.071-0.048l0.7-0.106c0.035-0.115 0.084-0.23 0.147-0.345-0.1-0.144-0.236-0.317-0.403-0.52-0.025-0.03-0.038-0.061-0.038-0.09 0-0.026 0.012-0.054 0.034-0.087 0.065-0.09 0.189-0.226 0.371-0.405 0.181-0.179 0.299-0.269 0.355-0.269 0.033 0 0.065 0.013 0.099 0.038l0.518 0.403c0.11-0.058 0.225-0.106 0.343-0.142 0.039-0.342 0.076-0.575 0.109-0.7 0.018-0.072 0.063-0.107 0.135-0.107h0.836zm-5.452 4.885c-0.155 0.154-0.341 0.231-0.559 0.231s-0.405-0.077-0.559-0.231-0.231-0.341-0.231-0.559 0.077-0.404 0.231-0.559c0.154-0.154 0.341-0.231 0.559-0.231s0.404 0.077 0.559 0.231c0.154 0.155 0.231 0.341 0.231 0.559s-0.077 0.405-0.231 0.559zm11.211 0c-0.155 0.154-0.341 0.231-0.559 0.231s-0.405-0.077-0.559-0.231-0.231-0.341-0.231-0.559 0.077-0.404 0.231-0.559c0.154-0.154 0.341-0.231 0.559-0.231s0.404 0.077 0.559 0.231c0.154 0.155 0.231 0.341 0.231 0.559s-0.077 0.405-0.231 0.559zm-5.496-1.314c-0.188 0.188-0.415 0.282-0.681 0.282s-0.493-0.094-0.681-0.282-0.282-0.415-0.282-0.681 0.094-0.493 0.282-0.681 0.415-0.282 0.681-0.282 0.493 0.094 0.681 0.282 0.282 0.415 0.282 0.681-0.094 0.493-0.282 0.681z" style="fill-opacity:.9;fill-rule:nonzero;fill:#fff"/>
 <ellipse cx="23.034" cy="21.835" rx="11.212" ry="11.157" style="fill:none;stroke-width:.44px;stroke:#fff"/>
 <ellipse cx="23.034" cy="21.835" rx="9.042" ry="8.998" style="fill:none;stroke-width:.44px;stroke:#fff"/>
 <ellipse cx="23.034" cy="21.835" rx="6.392" ry="6.361" style="fill:none;stroke-width:.44px;stroke:#fff"/>
 <ellipse cx="23.034" cy="21.835" rx="2.347" ry="2.335" style="fill:none;stroke-width:.44px;stroke:#fff"/>
 <path d="m23.034 10.676v8.767" style="fill:none;stroke-width:.44px;stroke:#fff"/>
 <path d="m30.923 13.944l-6.198 6.2" style="fill:none;stroke-width:.44px;stroke:#fff"/>
 <path d="m34.191 21.835h-8.767" style="fill:none;stroke-width:.44px;stroke:#fff"/>
 <path d="m30.923 29.724l-6.198-6.2" style="fill:none;stroke-width:.44px;stroke:#fff"/>
 <path d="m23.034 24.517v8.475" style="fill:none;stroke-width:.44px;stroke:#fff"/>
 <path d="m21.136 23.731l-5.991 5.993" style="fill:none;stroke-width:.44px;stroke:#fff"/>
 <path d="m20.352 21.835h-8.475" style="fill:none;stroke-width:.44px;stroke:#fff"/>
 <path d="m21.136 19.938l-5.991-5.994" style="fill:none;stroke-width:.44px;stroke:#fff"/>
 <defs>
  <linearGradient id="_Linear1" x2="1" gradientTransform="matrix(.304592 -46.0198 46.0198 .304592 23.904 47.2151)" gradientUnits="userSpaceOnUse">
   <stop style="stop-color:#4c93dd" offset="0"/>
   <stop style="stop-color:#56c5fd" offset="1"/>
  </linearGradient>
 </defs>
</svg>
