<?xml version="1.0" encoding="UTF-8" standalone="no"?><!DOCTYPE svg PUBLIC "-//W3C//DTD SVG 1.1//EN" "http://www.w3.org/Graphics/SVG/1.1/DTD/svg11.dtd"><svg width="100%" height="100%" viewBox="0 0 64 64" version="1.1" xmlns="http://www.w3.org/2000/svg" xmlns:xlink="http://www.w3.org/1999/xlink" xml:space="preserve" xmlns:serif="http://www.serif.com/" style="fill-rule:evenodd;clip-rule:evenodd;stroke-linejoin:round;stroke-miterlimit:1.41421;"><path d="M43.2,4.001c9.272,0 16.8,7.528 16.8,16.8l0,22.399c0,9.272 -7.528,16.8 -16.8,16.8l-22.399,0c-9.272,0 -16.8,-7.528 -16.8,-16.8l0,-22.399c0,-9.272 7.528,-16.8 16.8,-16.8l22.399,0Z" style="fill:url(#_Linear1);"/><path d="M29.77,12.001c-0.982,0 -1.77,1.095 -1.77,2.457l0,2.062c-1.445,0.376 -2.829,0.952 -4.114,1.711l-1.464,-1.465c-0.962,-0.962 -2.294,-1.178 -2.989,-0.484l-3.152,3.152c-0.693,0.695 -0.478,2.027 0.484,2.989l1.465,1.464c-0.755,1.285 -1.327,2.67 -1.699,4.113l-2.074,0c-1.361,0 -2.457,0.788 -2.457,1.77l0,4.46c0,0.982 1.096,1.77 2.457,1.77l2.062,0c0.376,1.445 0.952,2.83 1.711,4.114l-1.465,1.464c-0.962,0.962 -1.177,2.294 -0.484,2.988l3.152,3.152c0.695,0.694 2.027,0.478 2.989,-0.484l1.464,-1.464c1.285,0.755 2.67,1.327 4.114,1.698l0,2.074c0,1.362 0.788,2.458 1.77,2.458l4.46,0c0.982,0 1.77,-1.096 1.77,-2.458l0,-2.062c1.444,-0.375 2.829,-0.951 4.113,-1.71l1.464,1.464c0.962,0.962 2.294,1.178 2.988,0.484l3.152,-3.152c0.694,-0.694 0.478,-2.026 -0.484,-2.988l-1.464,-1.464c0.755,-1.285 1.327,-2.67 1.698,-4.114l2.074,0c1.362,0 2.458,-0.788 2.458,-1.77l0,-4.46c0,-0.982 -1.096,-1.77 -2.458,-1.77l-2.062,0c-0.375,-1.444 -0.951,-2.829 -1.71,-4.113l1.464,-1.464c0.962,-0.962 1.178,-2.294 0.484,-2.989l-3.152,-3.152c-0.694,-0.694 -2.026,-0.478 -2.988,0.484l-1.464,1.465c-1.285,-0.755 -2.67,-1.327 -4.113,-1.699l0,-2.074c0,-1.362 -0.788,-2.457 -1.77,-2.457l-4.46,0Zm2.23,12c4.388,0 7.999,3.611 7.999,7.999c0,4.389 -3.611,8 -7.999,8c-4.389,0 -8,-3.611 -8,-8c0,-4.388 3.611,-7.999 8,-7.999c0,0 0,0 0,0Z" style="fill:#ffb56b;fill-rule:nonzero;"/><defs><linearGradient id="_Linear1" x1="0" y1="0" x2="1" y2="0" gradientUnits="userSpaceOnUse" gradientTransform="matrix(0,-55.999,-55.999,0,32.0005,60)"><stop offset="0" style="stop-color:#9a0000;stop-opacity:1"/><stop offset="1" style="stop-color:#d6503d;stop-opacity:1"/></linearGradient></defs></svg>