<svg style="clip-rule:evenodd;fill-rule:evenodd;stroke-linejoin:round;stroke-miterlimit:2" version="1.1" viewBox="0 0 256 256" xmlns="http://www.w3.org/2000/svg">
 <path d="m242.422 46.653c0-18.255-14.82-33.075-33.075-33.075h-162.694c-18.255 0-33.075 14.82-33.075 33.075v162.694c0 18.255 14.82 33.075 33.075 33.075h162.694c18.255 0 33.075-14.82 33.075-33.075v-162.694z" style="fill:url(#_Linear1)"/>
 <path d="m128.001 57.791l-78.955 136.752h1.366c2.702-0.06 3.775-4.485 5.176-4.485 0.924 0 2.264 0.695 3.189 0.695 1.754 0 2.264-9.281 3.744-9.251 1.477 0.032 1.199 7.93 3.983 8.029 2.884 0.102 0.985-18.204 3.807-18.204 2.457 0 1.225 15.619 4.581 15.722 3.254 0.102 0.735-27.054 3.984-27.315 3.784-0.309 1.387 25.273 5.301 25.273 3.416 0 1.159-35.919 4.183-35.919 3.02 0 2.107 34.704 5.186 34.41 2.967 0 0.103-41.857 3.525-41.857 4.379 0 2.139 41.547 5.14 41.535 3.379-0.011 0.622-45.613 4.561-45.613 4.082 0 1.297 46.057 4.703 45.935 3.584-0.128-0.179-43.15 3.772-43.15 3.804 0 1.217 43.754 4.536 43.754 3.511 0-0.25-43.191 4.342-42.889 4.447 0.292 1.533 44.147 4.712 44.147 3.031 0 1.221-38.314 4.84-38.108 4.239 0.242 1.768 39.291 4.694 39.291 2.717 0 1.483-31.171 5.08-31.171 3.797 0 0.939 32.351 4.435 32.202 3.493-0.144 1.933-24.668 5.332-24.668 3.255 0 0.561 26.747 4.239 26.747 3.824 0 1.891-18.726 5.261-18.726 3.477 0 1.287 20.46 3.95 20.46 2.588 0 1.83-12.889 4.385-12.889 2.556 0 1.357 13.638 3.509 13.638 2.228 0 1.316-7.873 3.674-7.873 2.363 0 1.52 8.502 3.331 8.602 1.605 0.088 1.401-5.361 2.881-5.361 1.51 0 0.874 6.059 2.95 6.052 2.001-2e-3 1.386-3.351 2.813-3.351 1.4 0 1.443 3.935 3.097 3.935 1.178-0.023 2.429-1.799 3.927-1.799 1.973 0 2.576 2.201 7.624 2.201h2.095l-78.953-136.751z" style="fill-rule:nonzero;fill:#c2213f"/>
 <defs>
  <linearGradient id="_Linear1" x2="1" gradientTransform="matrix(1.40126e-14,-228.844,228.844,1.40126e-14,128,242.422)" gradientUnits="userSpaceOnUse">
   <stop style="stop-color:#c4c4c4" offset="0"/>
   <stop style="stop-color:#ebebeb" offset="1"/>
  </linearGradient>
 </defs>
</svg>
