<svg style="clip-rule:evenodd;fill-rule:evenodd;stroke-linejoin:round;stroke-miterlimit:2" version="1.1" viewBox="0 0 48 48" xmlns="http://www.w3.org/2000/svg">
 <circle cx="24" cy="24" r="22.764" style="fill:url(#_Linear1)"/>
 <path d="m15.788 16.817c-2.043 0-4.028 0.774-5.49 2.144-1.462 1.375-2.298 3.279-2.298 5.24 0 1.962 0.842 3.861 2.298 5.231 1.442 1.356 3.399 2.126 5.418 2.139v5e-3h0.072c2.409 0.101 4.356-0.784 5.779-2.063 0.981-0.889 1.73-1.932 2.433-3 0.702 1.067 1.452 2.111 2.433 3 1.423 1.279 3.365 2.164 5.779 2.063h0.067v-5e-3c2.02-0.019 3.981-0.784 5.423-2.139 1.462-1.375 2.298-3.269 2.298-5.231 0-1.961-0.842-3.87-2.298-5.24-1.462-1.37-3.447-2.144-5.49-2.144-2.543 0-4.548 0.966-6.034 2.307-0.855 0.78-1.548 1.668-2.178 2.583-0.635-0.914-1.322-1.803-2.182-2.583-1.481-1.341-3.491-2.307-6.028-2.307m0 2.605c1.894 0 3.105 0.611 4.221 1.611 0.875 0.794 1.639 1.899 2.404 3.072-0.87 1.37-1.707 2.64-2.649 3.491-1.048 0.943-2.129 1.466-3.904 1.375l-0.038-5e-3h-0.033c-1.337 0-2.693-0.53-3.62-1.4l-0.025-0.014c-0.932-0.876-1.48-2.14-1.48-3.357 0-1.221 0.548-2.486 1.48-3.36 0.943-0.875 2.303-1.413 3.645-1.413m16.433 0c1.337 0 2.697 0.539 3.639 1.413 0.933 0.88 1.486 2.144 1.486 3.36 0 1.221-0.553 2.486-1.486 3.357l-0.024 0.014c-0.933 0.866-2.283 1.4-3.616 1.4h-0.038l-0.034 5e-3c-1.769 0.091-2.86-0.434-3.909-1.375-0.937-0.851-1.778-2.121-2.643-3.491 0.764-1.173 1.523-2.283 2.403-3.072 1.111-1.004 2.323-1.611 4.222-1.611" style="fill-opacity:.85;fill-rule:nonzero;fill:#fff"/>
 <path d="m30.827 21.284v2.098h-2.095v2.095h2.095v2.098h2.098v-2.098h2.095v-2.095h-2.095v-2.098" style="fill-opacity:.85;fill-rule:nonzero;fill:#fff"/>
 <path d="m13.456 23.296v2.095h5.247v-2.095" style="fill-opacity:.85;fill-rule:nonzero;fill:#fff"/>
 <defs>
  <linearGradient id="_Linear1" x2="1" gradientTransform="matrix(-5.96893e-7 -45.528 45.528 -5.96893e-7 24 46.764)" gradientUnits="userSpaceOnUse">
   <stop style="stop-color:#0c8c52" offset="0"/>
   <stop style="stop-color:#0bae84" offset="1"/>
  </linearGradient>
 </defs>
</svg>
