<svg style="clip-rule:evenodd;fill-rule:evenodd;stroke-linejoin:round;stroke-miterlimit:2" version="1.1" viewBox="0 0 48 48" xmlns="http://www.w3.org/2000/svg">
 <path d="m6.399 45.363h19.042l-1e-3 -43.099-18.857-0.059c-3.166 0.058-4.486 1.251-4.569 4.417v34.223c0.012 2.752 2.216 4.518 4.385 4.518z" style="fill:url(#_Linear1)"/>
 <path d="m42.397 45.363l-12.085-0.014v-43.099l12.431-0.045c2.16 0.026 3.24 1.708 3.24 3.729v35.526c0.094 2.219-1.372 3.855-3.586 3.903z" style="fill:url(#_Linear2)"/>
 <path d="m42.838 43.097c-0.04 2.642-1.222 4.026-3.552 4.123l-16.083-1.878v-43.078l16.584-1.555c2.209-0.223 3.174 0.962 3.191 3.337l-0.14 39.051z" style="fill:url(#_Linear3)"/>
 <path d="m36.308 19.318v-7.698c0-0.709-0.575-1.283-1.284-1.283h-7.697c-0.709 0-1.283 0.575-1.283 1.283v3.207c-6.267 0-11.533 4.308-13.03 10.113l-1.334-0.234c-0.24-0.042-0.482 0.054-0.627 0.249-0.144 0.196-0.167 0.456-0.057 0.673l1.39 2.744c-2.436 0.397-4.303 2.511-4.303 5.058 0 2.83 2.302 5.132 5.132 5.132 2.612 0 4.769-1.964 5.087-4.491h4.535v1.283c0 0.243 0.137 0.465 0.354 0.574 0.218 0.108 0.478 0.086 0.673-0.061l2.242-1.683c0.367 2.472 2.497 4.377 5.069 4.377 2.83 1e-3 5.133-2.301 5.133-5.131 0-2.612-1.964-4.77-4.492-5.087v-4.535h1.284c0.242 0 0.465-0.138 0.573-0.354 0.109-0.217 0.087-0.478-0.06-0.672l-1.636-2.181h3.045c0.711-1e-3 1.286-0.575 1.286-1.283zm-7.63 4.135c0.109 0.217 0.331 0.354 0.573 0.354h1.284v4.535c-2.279 0.287-4.092 2.07-4.428 4.333l-2.244-1.684c-0.194-0.145-0.454-0.168-0.671-0.06-0.217 0.11-0.355 0.331-0.355 0.574v1.283h-4.534c-0.291-2.32-2.134-4.16-4.455-4.447 2e-3 -0.015 9e-3 -0.027 9e-3 -0.043v-7e-3l1.941-1.817c0.177-0.166 0.245-0.418 0.177-0.651-0.07-0.234-0.264-0.408-0.504-0.45l-1.191-0.21c1.389-5.203 6.129-9.053 11.765-9.053v3.207c0 0.709 0.574 1.283 1.283 1.283h3.046l-1.636 2.181c-0.146 0.195-0.169 0.455-0.06 0.672z" style="fill-rule:nonzero;fill:url(#_Linear4)"/>
 <defs>
  <linearGradient id="_Linear1" x2="1" gradientTransform="matrix(2.58539e-15,-42.2226,42.2226,2.58539e-15,14.5579,44.3392)" gradientUnits="userSpaceOnUse">
   <stop style="stop-color:#759cd7" offset="0"/>
   <stop style="stop-color:#96beff" offset="1"/>
  </linearGradient>
  <linearGradient id="_Linear2" x2="1" gradientTransform="matrix(.79491 41.4949 -41.4949 .79491 44.2716 4.33297)" gradientUnits="userSpaceOnUse">
   <stop style="stop-color:#f6fbff" offset="0"/>
   <stop style="stop-color:#eaeff2" offset="1"/>
  </linearGradient>
  <linearGradient id="_Linear3" x2="1" gradientTransform="matrix(2.80083e-15,-45.7411,45.7411,2.80083e-15,33.5338,46.0985)" gradientUnits="userSpaceOnUse">
   <stop style="stop-color:#739bd7" offset="0"/>
   <stop style="stop-color:#82a5dc" offset="1"/>
  </linearGradient>
  <linearGradient id="_Linear4" x2="1" gradientTransform="matrix(.603979 -36.0342 36.0342 .603979 23.2028 45.3416)" gradientUnits="userSpaceOnUse">
   <stop style="stop-color:#e5e5e6" offset="0"/>
   <stop style="stop-color:#f6f6f7" offset="1"/>
  </linearGradient>
 </defs>
</svg>
