<svg clip-rule="evenodd" fill-rule="evenodd" stroke-linejoin="round" stroke-miterlimit="2" viewBox="0 0 48 48" xmlns="http://www.w3.org/2000/svg">
 <linearGradient id="a" x2="1" gradientTransform="matrix(0 -45.2241 45.2241 0 108.124 46.4597)" gradientUnits="userSpaceOnUse">
  <stop stop-color="#2e3e46" offset="0"/>
  <stop stop-color="#435a64" offset="1"/>
 </linearGradient>
 <circle cx="23.917" cy="23.848" r="22.612" fill="url(#a)"/>
 <g fill-rule="nonzero">
  <path d="m23.999 9.672c-7.852 0-14.215 6.365-14.215 14.216 0 7.852 6.366 14.215 14.215 14.215 7.853 0 14.216-6.365 14.216-14.215s-6.365-14.216-14.216-14.216m-.082 7.575c3.646 0 6.605 2.954 6.605 6.604 0 3.645-2.955 6.604-6.605 6.604-3.646 0-6.605-2.959-6.605-6.604 0-3.646 2.959-6.604 6.605-6.604" fill="#b9d543" fill-opacity=".38"/>
  <path d="m23.97 8.83c-8.323 0-15.07 6.745-15.07 15.067 0 8.32 6.747 15.066 15.07 15.066 8.32 0 15.065-6.746 15.065-15.066 0-8.322-6.745-15.067-15.065-15.067zm.026.842c7.852 0 14.216 6.365 14.216 14.216 0 7.852-6.365 14.216-14.216 14.216-7.852 0-14.216-6.366-14.216-14.216s6.366-14.216 14.216-14.216zm.004 4.577c-5.301 0-9.603 4.296-9.603 9.599 0 5.301 4.301 9.598 9.603 9.598 5.301 0 9.595-4.296 9.595-9.598s-4.293-9.599-9.595-9.599zm0 1.051c4.741 0 8.585 3.847 8.585 8.592 0 4.74-3.844 8.585-8.585 8.585s-8.591-3.845-8.591-8.585c0-4.741 3.846-8.592 8.591-8.592z" fill="#ffce02" fill-opacity=".84"/>
 </g>
</svg>
