<svg style="clip-rule:evenodd;fill-rule:evenodd;stroke-linejoin:round;stroke-miterlimit:2" version="1.1" viewBox="0 0 48 48" xmlns="http://www.w3.org/2000/svg">
 <circle cx="24" cy="24" r="22.764" style="fill:url(#_Linear1)"/>
 <path d="m30.074 22.343l-5.492 3.675-1e-3 5.575c-1e-3 3.067 0.013 5.576 0.031 5.576s2.497-1.648 5.509-3.663l5.477-3.662v-5.592c0-3.076-7e-3 -5.59-0.016-5.588-9e-3 0-2.488 1.658-5.508 3.679z" style="fill-opacity:.83;fill-rule:nonzero;fill:#fff"/>
 <path d="m12.371 24.1v5.674l5.499 3.653c3.025 2.009 5.514 3.653 5.532 3.653s0.033-2.551 0.033-5.668v-5.668l-5.495-3.659c-3.022-2.013-5.512-3.66-5.532-3.66s-0.037 2.554-0.037 5.675z" style="fill-opacity:.83;fill-rule:nonzero;fill:#fff"/>
 <path d="m18.593 13.842c-2.946 1.97-5.383 3.607-5.414 3.637-0.064 0.062 10.785 7.381 10.95 7.388 0.121 0 10.787-7.133 10.766-7.204-0.01-0.033-9.99-6.785-10.907-7.379-0.02-0.015-2.448 1.588-5.395 3.558z" style="fill-opacity:.83;fill-rule:nonzero;fill:#fff"/>
 <path d="m22.88 38.477l-11.78-7.839v-13.214c1.646-1.077 0.318-0.207 1.075-0.717l10.526-7.032c1.283-0.854 0.011 0 1.299-0.851 11.5 7.631 8.677 5.753 12.004 7.973 0.906 0.662 0.168 0.136 0.896 0.672v0.493 0.044 10.885 1.747c-3.331 2.216-0.487 0.324-0.806 0.537l-10.974 7.301-0.582 0.358c-0.406 0.261 1.753-1.133-0.538 0.342-1.063-0.675-9e-3 0-1.12-0.7v1e-3zm0.403-1.479v-11.108l-0.089-0.135-0.314-0.179-10.347-6.898v11.154l10.75 7.166zm1.434 0l10.75-7.166v-10.93l-10.75 7.167v10.929zm-0.538-12.318l10.482-6.987-10.661-7.122-10.526 6.988 10.212 6.808 0.493 0.313z" style="fill-rule:nonzero;fill:url(#_Linear2)"/>
 <defs>
  <linearGradient id="_Linear1" x2="1" gradientTransform="matrix(-.652063 -42.6054 42.6054 -.652063 24.0202 44.5892)" gradientUnits="userSpaceOnUse">
   <stop style="stop-color:#c52828" offset="0"/>
   <stop style="stop-color:#ff5454" offset="1"/>
  </linearGradient>
  <linearGradient id="_Linear2" x2="1" gradientTransform="matrix(.466639 -36.2174 -36.2174 -.466639 24 39.176)" gradientUnits="userSpaceOnUse">
   <stop style="stop-color:#c52828;stop-opacity:.99" offset="0"/>
   <stop style="stop-color:#ff5454;stop-opacity:.99" offset="1"/>
  </linearGradient>
 </defs>
</svg>
