<svg style="clip-rule:evenodd;fill-rule:evenodd;stroke-linejoin:round;stroke-miterlimit:1.41421" version="1.1" viewBox="0 0 48 48" xmlns="http://www.w3.org/2000/svg">
 <path d="m17.113 13.208c-0.121-4e-3 -0.267 2e-3 -0.457 2e-3h-12.647c-0.45 0-2.512 2.36-2.512 2.813v1.893c-1e-3 0.019-5e-3 0.037-5e-3 0.056v23.206c0 0.868 0.699 1.568 1.567 1.568h42.087c0.868 0 1.566-0.7 1.566-1.568v-21.56c0-0.868-2.318-3.214-3.186-3.214h-23.51c-0.015-0.02-0.025-0.031-0.041-0.052-0.58-0.781-1.456-1.79-2.027-2.552-0.343-0.5-0.471-0.583-0.834-0.592h-1e-3z" style="fill-opacity:.666667;fill-rule:nonzero"/>
 <path d="m13.127 5.748h-8.333c-1.613 0-3.297 0.809-3.297 2.74v2.938c-1e-3 0.019-6e-3 0.037-6e-3 0.056v28.668c0 0.868 0.7 1.568 1.568 1.568h42.087c0.868 0 1.566-0.7 1.566-1.568v-27.1c0-1.913-1.351-3.136-3.082-3.136-5.037 0-18.107-0.051-20.91-0.051-1.328 0-2.472-1.598-2.472-1.598-1.071-1.072-2.049-2.543-4.4-2.519-0.573 0-2.166 2e-3 -2.721 2e-3z" style="fill-rule:nonzero;fill:url(#_Linear1)"/>
 <path d="m13.127 5.748h-8.333c-1.613 0-3.297 0.809-3.297 2.74v2.938c-1e-3 0.019-6e-3 0.037-6e-3 0.056v28.668c0 0.868 0.7 1.568 1.568 1.568h42.087c0.868 0 1.566-0.7 1.566-1.568v-27.1c0-1.913-1.351-3.136-3.082-3.136-5.037 0-18.107-0.051-20.91-0.051-1.328 0-2.472-1.598-2.472-1.598-1.071-1.072-2.049-2.543-4.4-2.519-0.573 0-2.166 2e-3 -2.721 2e-3z" style="fill:url(#_Linear1)"/>
 <path d="m26.336 9.871c-0.636 0.014-1.692 3.477-1.894 3.99-0.297 0.757-0.908 1.715-1.046 2.07-0.136 0.783 0.389 1.329 0.706 2.112 0.052 0.128 3e-3 0.322 0.052 0.463-0.285 0.561-0.8 1.631-1.11 2.187-0.841 1.507-1.697 2.211-2.579 3.684-0.286 0.479 0.259 0.928 0.447 1.2 0.182 0.263 1.36 0.532 1.895 0.749 0.159 0.738-0.37 1.722-1.109 2.383 0.064 0.616 0.384 1.381 0.946 1.565-0.278 0.129-0.881 0.366-0.806 1.401 0.38 0.468 1.231 0.575 1.357 0.894 0.081 0.207 0.172 0.768 0.101 0.953-0.266 0.69-0.43 1.985-0.178 2.404 0.255 0.424 0.895 0.912 1.451 0.807 0.822-0.156 2.021 0.132 3.6-0.163 1.178-0.22 1.831 0.099 2.151 0.168 1.337 2.772 2.809 4.98 2.809 4.98h12.06c0.844 0 1.523-0.681 1.523-1.526v-28.563c0-0.844-0.642-1.821-1.856-1.821 0 0-17.823 0.047-18.52 0.063z" style="fill:url(#_Linear3)"/>
 <defs>
  <linearGradient id="_Linear1" x2="1" gradientTransform="matrix(2.07538e-15,-33.8935,33.8935,2.07538e-15,400.711,38.4659)" gradientUnits="userSpaceOnUse">
   <stop style="stop-color:#197cf1" offset="0"/>
   <stop style="stop-color:#20bcfa" offset="1"/>
  </linearGradient>
  <linearGradient id="_Linear3" x2="1" gradientTransform="matrix(.191864 -32.57 32.57 .191864 643.615 46.0108)" gradientUnits="userSpaceOnUse">
   <stop style="stop-color:#4e96e8" offset="0"/>
   <stop style="stop-color:#7ee6ff" offset="1"/>
  </linearGradient>
 </defs>
</svg>
