<svg style="clip-rule:evenodd;fill-rule:evenodd;stroke-linejoin:round;stroke-miterlimit:2" version="1.1" viewBox="0 0 48 48" xmlns="http://www.w3.org/2000/svg">
 <circle cx="24" cy="24" r="22.764" style="fill:url(#_Linear1)"/>
 <path d="m26.086 23.863c0 1.087-0.882 1.969-1.97 1.969-1.087 0-1.968-0.882-1.968-1.969s0.881-1.975 1.968-1.975c1.088 0 1.97 0.888 1.97 1.975" style="fill-rule:nonzero;fill:url(#_Linear2)"/>
 <path d="m29.304 39.878c-1.295-0.213-2.785-1.061-4.332-2.427-1.549-1.366-3.159-3.249-4.695-5.53-1.287-1.913-2.605-4.277-3.596-6.587-1.253-2.586-2.213-5.575-2.636-8.054-0.213-1.417-0.23-1.473-0.264-2.801 0.026-1.757 0.015-1.705 0.238-2.8 0.414-1.472 1.164-2.354 2.359-2.764 0.487-0.164 1.466-0.138 2.133 0.061 0.678 0.2 1.507 0.611 2.247 1.109 0.882 0.589 1.144 0.836 1.179 1.122 0.082 0.657-0.59 1.011-1.144 0.595-1.733-1.287-2.97-1.785-3.965-1.574-0.724 0.154-1.272 0.892-1.549 2.082-0.113 0.472-0.129 0.698-0.129 1.872 0.227 5.306 2.931 11.01 4.783 14.33 0.883 1.582 2.022 3.203 3.082 4.737 1.059 1.534 2.216 2.909 3.491 3.855 1.277 0.944 2.316 1.637 3.849 1.452 0.433-0.213 1.119-0.773 1.35-1.331 0.232-0.558 0.365-1.293 0.4-2.212 0.112-3.083-0.996-7.344-3.062-11.749-0.215-0.456-0.344-0.805-0.344-0.933 0-0.37 0.307-0.662 0.686-0.657 0.34 0 0.488 0.134 0.749 0.683 1.677 3.507 2.795 7.03 3.215 10.103 0.138 1.03 0.138 3.139 0 3.892-0.225 1.205-0.626 2.072-1.231 2.688-0.743 0.743-1.703 1.026-2.841 0.842" style="fill-rule:nonzero;fill:url(#_Linear3)"/>
 <path d="m30.863 8.394c-0.458-0.011-0.953 0.056-1.49 0.198-1.219 0.497-2.316 1.114-3.472 1.893-0.287 0.207-0.577 0.417-0.875 0.655-1.558 1.252-3.61 3.376-5.026 5.191l-0.137 0.164-1.134 1.468c0 0.026-0.234 0.389-0.526 0.82-0.293 0.425-0.709 1.049-0.924 1.404v2e-3c-0.21 0.344-0.416 0.656-0.457 0.701l-0.924 1.693-0.447 0.861c-1.783 3.446-2.927 6.96-3.065 9.53-0.113 1.979 0.245 3.394 1.117 4.271 0.17 0.17 0.357 0.307 0.551 0.43 0.194 0.128 0.399 0.243 0.628 0.328 1.159 0.43 2.595 0.171 4.351-0.752 2.281-1.19 5.005-3.687 7.403-6.739l0.599-0.762 1.157-1.541c0.025-0.056 0.225-0.375 0.451-0.708 0.234-0.343 0.63-0.979 0.895-1.422 0.271-0.445 0.506-0.809 0.53-0.82l0.865-1.639 0.092-0.192c1.066-2.041 2.148-4.788 2.641-6.725 0.094-0.369 0.167-0.718 0.235-1.065 0.298-1.226 0.472-2.686 0.284-3.947-0.224-1.325-0.764-2.254-1.608-2.77-0.484-0.333-1.056-0.513-1.714-0.527zm-0.097 1.45c0.251 0 0.402 3e-3 0.526 0.019 0.029 8e-3 0.056 0.011 0.084 0.02 0.061 0.012 0.118 0.034 0.173 0.056 0.059 0.025 0.119 0.05 0.173 0.077 0.036 0.021 0.072 0.044 0.109 0.069 0.029 0.018 0.056 0.036 0.082 0.054 0.047 0.037 0.092 0.081 0.138 0.123 0.047 0.043 0.094 0.089 0.134 0.144 0.018 0.02 0.029 0.042 0.046 0.062 0.067 0.107 0.135 0.242 0.24 0.472 0.238 0.524 0.266 0.634 0.318 1.22 0.18 1.828-0.294 4.23-1.389 7.084-0.211 0.551-0.559 1.375-0.779 1.846l-0.382 0.868-0.811 1.573-0.315 0.572c-0.863 1.478-1.785 2.911-2.771 4.308l-1.173 1.471c-0.056 0.138-1.23 1.5-1.952 2.263-1.036 1.094-2.078 2.022-3.138 2.809-1.163 0.93-2.465 1.55-3.775 1.789-0.465 0.08-0.868 0.052-1.21-0.079-0.019-7e-3 -0.035-0.017-0.053-0.025-0.082-0.035-0.16-0.076-0.235-0.123-0.068-0.045-0.131-0.095-0.193-0.15-0.022-0.019-0.046-0.036-0.067-0.056-0.259-0.258-0.448-0.612-0.568-1.066-0.285-1.605-0.249-2.743 0.064-4.176 0.278-1.292 0.691-2.624 1.258-4.018 0.395-0.975 1.15-2.607 1.251-2.715l0.852-1.677c0.863-1.475 1.787-2.909 2.775-4.307l0.391-0.523 1.094-1.389 0.63-0.708c0.338-0.395 0.945-1.052 1.359-1.472 2.144-2.179 4.133-3.606 5.872-4.202 0.553-0.194 0.666-0.213 1.242-0.213z" style="fill-rule:nonzero;fill:url(#_Linear4)"/>
 <path d="m23.102 16.323s-1.168 0-3.175 0.088c-0.702 0.041-1.845 0.154-3.173 0.314-0.966 0.152-0.968 0.171-2.302 0.445-2.759 0.63-4.775 1.568-5.985 2.79-0.545 0.543-0.846 1.021-1.022 1.621-0.017 0.056-0.025 0.134-0.036 0.202-0.108 0.431-0.151 1.051-0.078 1.408 0.121 0.613 0.38 1.114 0.875 1.703 1.099 1.322 3.023 2.433 5.717 3.301 1.305 0.389 1.306 0.409 2.256 0.646 1.309 0.273 2.438 0.486 3.134 0.588 1.991 0.264 3.155 0.364 3.155 0.364 5.69 0.362 10.781-0.222 14.319-1.571 5e-3 2e-3 8e-3 5e-3 0.013 6e-3 1.657-0.387 4.187-2.006 4.618-3.673 0.073-0.316 0.067-0.841 0.014-1.219-3e-3 -0.044 5e-3 -0.107 0-0.145-0.968-2.28-2.449-3.26-4.222-4.064-3.405-1.648-8.418-2.667-14.108-2.804zm-1.631 1.375h1.024c6.232 0 12.402 1.41 15.674 3.57 0.667 0.441 1.472 1.247 1.713 1.719 0.086 0.163 0.133 0.266 0.159 0.382 8e-3 0.107 6e-3 0.224-0.012 0.418-0.038 0.435-0.062 0.521-0.264 0.832-0.281 0.449-1.153 1.183-1.856 1.564-3.448 1.865-9.716 2.732-15.925 2.189l-1.023-0.09-1.824-0.231c-1.104-0.152-1.098-0.144-2.653-0.523-0.981-0.303-2.133-0.656-2.446-0.755-0.742-0.252-1.383-0.522-1.975-0.804-1.396-0.777-3.542-2.308-3.29-3.871 0.284-0.867 0.521-1.701 2.649-2.614 1.868-0.788 2.145-0.718 3.018-0.887 0.321-0.071 1.501-0.323 2.505-0.539 1.582-0.242 1.572-0.235 2.686-0.289l1.84-0.071z" style="fill-rule:nonzero;fill:url(#_Linear5)"/>
 <defs>
  <linearGradient id="_Linear1" x2="1" gradientTransform="matrix(-.729096 -44.2129 44.2129 -.729096 74.0047 44.6357)" gradientUnits="userSpaceOnUse">
   <stop style="stop-color:#222" offset="0"/>
   <stop style="stop-color:#3b3b3b" offset="1"/>
  </linearGradient>
  <linearGradient id="_Linear2" x2="1" gradientTransform="matrix(-.405111 -31.3952 31.3952 -.405111 710.875 30.5197)" gradientUnits="userSpaceOnUse">
   <stop style="stop-color:#d4ff2a" offset="0"/>
   <stop style="stop-color:#ff0" offset="1"/>
  </linearGradient>
  <linearGradient id="_Linear3" x2="1" gradientTransform="matrix(-.405111 -31.3952 31.3952 -.405111 298.327 35.8431)" gradientUnits="userSpaceOnUse">
   <stop style="stop-color:#d4ff2a" offset="0"/>
   <stop style="stop-color:#ff0" offset="1"/>
  </linearGradient>
  <linearGradient id="_Linear4" x2="1" gradientTransform="matrix(-.405111 -31.3952 31.3952 -.405111 668.051 533.515)" gradientUnits="userSpaceOnUse">
   <stop style="stop-color:#d4ff2a" offset="0"/>
   <stop style="stop-color:#ff0" offset="1"/>
  </linearGradient>
  <linearGradient id="_Linear5" x2="1" gradientTransform="matrix(-.405111 -31.3952 31.3952 -.405111 918.182 530.288)" gradientUnits="userSpaceOnUse">
   <stop style="stop-color:#d4ff2a" offset="0"/>
   <stop style="stop-color:#ff0" offset="1"/>
  </linearGradient>
 </defs>
</svg>
