<svg clip-rule="evenodd" fill-rule="evenodd" stroke-linecap="round" viewBox="0 0 48 48" xmlns="http://www.w3.org/2000/svg">
 <linearGradient id="a" x2="1" gradientTransform="matrix(0 45.528 -45.528 0 -53.6708 1.23602)" gradientUnits="userSpaceOnUse">
  <stop stop-color="#fcfcfc" offset="0"/>
  <stop stop-color="#cbcbcb" offset="1"/>
 </linearGradient>
 <linearGradient id="b" x2="1" gradientTransform="matrix(0 41.2173 -41.2173 0 -133.326 3.39137)" gradientUnits="userSpaceOnUse">
  <stop stop-color="#b0e098" offset="0"/>
  <stop stop-color="#0aa372" offset="1"/>
 </linearGradient>
 <circle cx="24" cy="24" r="22.764" fill="url(#a)"/>
 <circle cx="24" cy="24" r="20.608" fill="url(#b)"/>
 <g fill="none" stroke="#fff" stroke-width="1.22">
  <path d="m32.311 17.005c.461-2.415.203-4.247-.889-4.975-.363-.243-.799-.349-1.29-.33-2.65.103-6.926 3.853-10.42 9.381-4.14 6.551-5.611 13.117-3.284 14.67 1.104.737 2.866.214 4.855-1.242"/>
  <path d="m34.433 27.718c1.966-.784 3.174-1.857 3.237-3.088.145-2.848-5.886-5.484-13.478-5.893-.712-.038-1.412-.059-2.096-.056-6.618.023-11.784 1.888-11.915 4.469-.064 1.229 1.026 2.42 2.894 3.41"/>
  <path d="m22.048 12.76c-1.345-1.147-2.606-1.762-3.619-1.684-.271.021-.52.089-.752.211-2.473 1.294-1.682 7.989 1.769 14.95 3.451 6.96 8.254 11.552 10.727 10.257 2.379-1.245 1.736-7.485-1.386-14.151"/>
 </g>
 <path d="m25.653 24.09c-.001.924-.74 1.684-1.639 1.684-.898 0-1.639-.76-1.639-1.684s.74-1.684 1.639-1.684 1.639.76 1.639 1.684z" fill="#fff" fill-rule="nonzero"/>
 <path d="m45.688 39.829c-1.289 1.126-2.832 1.689-4.63 1.689h-.134c-2.547 3.911-5.164 5.866-7.851 5.866h-.539c-1.308 0-2.242-.773-2.802-2.319-.119-.317-.179-.747-.179-1.289 0-1.69.774-3.66 2.322-5.913 1.947-3.091 4.19-6.874 6.726-11.348 1.379-2.211 2.612-3.316 3.701-3.316h.464c.609 0 1.129.163 1.558.491v.061c-.399.174-1.053.927-1.962 2.258-1.419 2.262-2.907 4.847-4.465 7.754.749-.532 1.463-.798 2.143-.798h.524c1.188 0 1.968.696 2.337 2.088l.045.676c0 1.249-.534 2.938-1.603 5.067v.062c1.528 0 2.936-.594 4.225-1.781l.224.184zm-8.75-1.413c0 1.014.555 1.684 1.663 2.012 1.119-2.068 1.678-3.511 1.678-4.33v-.507c-.14-.727-.439-1.09-.899-1.09-.878 0-1.673 1.054-2.382 3.163zm-4.883 6.772c0 .686.299 1.029.898 1.029 1.239 0 2.967-1.689 5.184-5.067-1.598-.481-2.397-1.597-2.397-3.348v-.061l.06-.43c-2.497 3.398-3.745 6.024-3.745 7.877z" fill="#9e0052" fill-rule="nonzero"/>
</svg>
