<?xml version="1.0" encoding="UTF-8" standalone="no"?><!DOCTYPE svg PUBLIC "-//W3C//DTD SVG 1.1//EN" "http://www.w3.org/Graphics/SVG/1.1/DTD/svg11.dtd"><svg width="100%" height="100%" viewBox="0 0 615 600" version="1.1" xmlns="http://www.w3.org/2000/svg" xmlns:xlink="http://www.w3.org/1999/xlink" xml:space="preserve" xmlns:serif="http://www.serif.com/" style="fill-rule:evenodd;clip-rule:evenodd;stroke-linecap:round;"><circle cx="307.766" cy="299.864" r="282.331" style="fill:url(#_Linear1);"/><circle cx="307.766" cy="299.864" r="258.168" style="fill:url(#_Linear2);"/><path d="M411.776,214.358c5.792,-29.553 2.553,-51.982 -11.138,-60.895c-4.564,-2.971 -10.036,-4.271 -16.194,-4.036c-33.253,1.265 -86.908,47.162 -130.745,114.831c-51.956,80.2 -70.42,160.576 -41.212,179.59c13.865,9.026 35.958,2.628 60.918,-15.202" style="fill:none;stroke:#fff;stroke-width:15px;"/><path d="M438.422,345.507c24.66,-9.589 39.823,-22.715 40.612,-37.79c1.822,-34.864 -73.866,-67.141 -169.13,-72.145c-8.931,-0.469 -17.713,-0.716 -26.304,-0.687c-83.039,0.28 -147.857,23.115 -149.509,54.71c-0.786,15.045 12.887,29.634 36.328,41.741" style="fill:none;stroke:#fff;stroke-width:15px;"/><path d="M283.001,162.396c-16.873,-14.033 -32.697,-21.569 -45.41,-20.613c-3.385,0.254 -6.516,1.09 -9.425,2.576c-31.031,15.85 -21.117,97.822 22.191,183.026c43.309,85.205 103.57,141.417 134.601,125.568c29.842,-15.243 21.788,-91.626 -17.392,-173.235" style="fill:none;stroke:#fff;stroke-width:15px;"/><path d="M328.239,301.104c-0.005,11.305 -9.286,20.604 -20.563,20.604c-11.277,0 -20.558,-9.299 -20.563,-20.604l0,-0.009c0,-11.308 9.283,-20.613 20.563,-20.613c11.281,0 20.563,9.305 20.563,20.613l0,0.009Z" style="fill:#fff;fill-rule:nonzero;"/><path d="M564.59,498.076c-16.507,14.076 -36.278,21.114 -59.312,21.114l-1.727,0c-32.632,48.883 -66.159,73.325 -100.582,73.325l-6.91,0c-16.763,0 -28.728,-9.662 -35.894,-28.985c-1.536,-3.967 -2.304,-9.341 -2.304,-16.123c0,-21.115 9.918,-45.748 29.752,-73.901c24.954,-38.646 53.682,-85.929 86.185,-141.85c17.66,-27.641 33.464,-41.461 47.412,-41.461l5.95,0c7.806,0 14.46,2.047 19.963,6.142l0,0.768c-5.119,2.175 -13.5,11.581 -25.145,28.217c-18.172,28.28 -37.238,60.591 -57.201,96.934c9.597,-6.654 18.747,-9.982 27.449,-9.982l6.718,0c15.228,0 25.209,8.702 29.944,26.106l0.576,8.445c0,15.612 -6.847,36.727 -20.539,63.343l0,0.768c19.579,0 37.622,-7.422 54.13,-22.266l2.879,2.304l-1.344,7.102Zm-112.098,-17.66c0,12.669 7.102,21.051 21.306,25.146c14.333,-25.849 21.499,-43.893 21.499,-54.13l0,-6.334c-1.792,-9.086 -5.631,-13.629 -11.517,-13.629c-11.261,0 -21.435,13.181 -30.52,39.542l-0.768,9.405Zm-62.575,84.65c0,8.574 3.839,12.86 11.517,12.86c15.867,0 38.006,-21.114 66.414,-63.343c-20.475,-6.014 -30.712,-19.962 -30.712,-41.845l0,-0.767l0.768,-5.375c-31.992,42.485 -47.987,75.308 -47.987,98.47Z" style="fill:#9e0052;fill-rule:nonzero;"/><defs><linearGradient id="_Linear1" x1="0" y1="0" x2="1" y2="0" gradientUnits="userSpaceOnUse" gradientTransform="matrix(-5.39563,547.948,-547.948,-5.39563,-9292.6,-68.5879)"><stop offset="0" style="stop-color:#fdfdfd;stop-opacity:1"/><stop offset="1" style="stop-color:#cbcbcb;stop-opacity:1"/></linearGradient><linearGradient id="_Linear2" x1="0" y1="0" x2="1" y2="0" gradientUnits="userSpaceOnUse" gradientTransform="matrix(2.94247,508.178,-508.178,2.94247,-20879.7,173.589)"><stop offset="0" style="stop-color:#b0e098;stop-opacity:1"/><stop offset="0.5" style="stop-color:#70c485;stop-opacity:1"/><stop offset="1" style="stop-color:#04a171;stop-opacity:1"/></linearGradient></defs></svg>