<!DOCTYPE svg  PUBLIC '-//W3C//DTD SVG 1.1//EN'  'http://www.w3.org/Graphics/SVG/1.1/DTD/svg11.dtd'>
<svg style="clip-rule:evenodd;fill-rule:evenodd;stroke-linejoin:round;stroke-miterlimit:1.41421" version="1.1" viewBox="0 0 48 48" xmlns="http://www.w3.org/2000/svg">
 <path d="m32.567 4.743c-0.093-0.51-0.385-0.962-0.813-1.255-0.428-0.294-0.955-0.404-1.464-0.307-5.241 0.998-19.71 3.752-24.914 4.743-1.049 0.2-1.741 1.208-1.55 2.259 1.138 6.25 4.758 26.144 5.904 32.44 0.093 0.51 0.386 0.962 0.813 1.255 0.428 0.294 0.955 0.404 1.464 0.307 5.241-0.998 19.71-3.752 24.914-4.743 1.05-0.2 1.742-1.208 1.55-2.259-1.137-6.25-4.758-26.145-5.904-32.44z" style="fill:url(#_Linear1)"/>
 <path d="m41.311 7.021c-7e-3 -1.065-0.868-1.927-1.933-1.934-5.762-0.037-22.86-0.148-28.685-0.186-0.52-4e-3 -1.02 0.201-1.388 0.569s-0.573 0.868-0.57 1.388c0.041 6.764 0.174 28.994 0.214 35.683 7e-3 1.065 0.868 1.927 1.933 1.933 5.762 0.038 22.86 0.149 28.685 0.186 0.52 4e-3 1.02-0.201 1.388-0.569s0.573-0.868 0.57-1.388c-0.041-6.763-0.174-28.993-0.214-35.682z" style="fill:url(#_Linear2)"/>
 <path d="m12.883 9.035l1.254-0.01 6e-3 0.695-1.254 0.01-6e-3 -0.695z" style="fill-opacity:.8;fill:#fff"/>
 <path d="m12.905 11.816l1.254-9e-3 5e-3 0.695-1.254 0.01-5e-3 -0.696z" style="fill-opacity:.8;fill:#fff"/>
 <path d="m12.894 10.426l1.254-0.01 6e-3 0.695-1.254 0.01-6e-3 -0.695z" style="fill-opacity:.8;fill:#fff"/>
 <path d="m12.916 13.207l1.254-0.01 5e-3 0.695-1.254 0.01-5e-3 -0.695z" style="fill-opacity:.8;fill:#fff"/>
 <path d="m12.938 15.988l1.254-9e-3 5e-3 0.695-1.254 0.01-5e-3 -0.696z" style="fill-opacity:.8;fill:#fff"/>
 <path d="m12.927 14.598l1.254-0.01 5e-3 0.695-1.254 0.01-5e-3 -0.695z" style="fill-opacity:.8;fill:#fff"/>
 <path d="m12.948 17.379l1.254-0.01 6e-3 0.696-1.254 9e-3 -6e-3 -0.695z" style="fill-opacity:.8;fill:#fff"/>
 <path d="m12.97 20.161l1.254-0.01 6e-3 0.695-1.254 0.01-6e-3 -0.695z" style="fill-opacity:.8;fill:#fff"/>
 <path d="m12.959 18.77l1.254-0.01 6e-3 0.695-1.254 0.01-6e-3 -0.695z" style="fill-opacity:.8;fill:#fff"/>
 <path d="m14.764 9.02l5.643-0.044 6e-3 0.695-5.643 0.044-6e-3 -0.695z" style="fill-opacity:.8;fill:#f92672"/>
 <path d="m21.034 8.971l3.762-0.029 5e-3 0.695-3.761 0.03-6e-3 -0.696z" style="fill-opacity:.8;fill:#fff"/>
 <path d="m25.423 8.937l2.508-0.019 5e-3 0.695-2.508 0.019-5e-3 -0.695z" style="fill-opacity:.8;fill:#fff"/>
 <path d="m14.775 10.411l3.135-0.025 5e-3 0.696-3.134 0.024-6e-3 -0.695z" style="fill-opacity:.8;fill:#fd971f"/>
 <path d="m18.537 10.381l1.254-9e-3 5e-3 0.695-1.254 0.01-5e-3 -0.696z" style="fill-opacity:.8;fill:#fff"/>
 <path d="m20.418 10.367l5.643-0.044 5e-3 0.695-5.643 0.044-5e-3 -0.695z" style="fill-opacity:.8;fill:#a6e22e"/>
 <path d="m14.786 11.802l4.389-0.035 5e-3 0.696-4.389 0.034-5e-3 -0.695z" style="fill-opacity:.8;fill:#f92672"/>
 <path d="m19.802 11.763l3.135-0.025 5e-3 0.695-3.135 0.025-5e-3 -0.695z" style="fill-opacity:.8;fill:#fd971f"/>
 <path d="m23.564 11.733l1.254-0.01 5e-3 0.696-1.254 9e-3 -5e-3 -0.695z" style="fill-opacity:.8;fill:#fff"/>
 <path d="m16.051 13.182l2.508-0.019 5e-3 0.695-2.508 0.02-5e-3 -0.696z" style="fill-opacity:.8;fill:#f92672"/>
 <path d="m19.186 13.158l6.27-0.049 5e-3 0.695-6.27 0.049-5e-3 -0.695z" style="fill-opacity:.8;fill:#a6e22e"/>
 <path d="m26.083 13.104l2.508-0.019 5e-3 0.695-2.508 0.02-5e-3 -0.696z" style="fill-opacity:.8;fill:#fff"/>
 <path d="m16.062 14.573l3.762-0.029 5e-3 0.695-3.762 0.029-5e-3 -0.695z" style="fill-opacity:.8;fill:#f92672"/>
 <path d="m20.451 14.539l3.761-0.029 6e-3 0.695-3.762 0.029-5e-3 -0.695z" style="fill-opacity:.8;fill:#66d9ef"/>
 <path d="m24.839 14.505l2.508-0.02 6e-3 0.696-2.508 0.019-6e-3 -0.695z" style="fill-opacity:.8;fill:#a6e22e"/>
 <path d="m16.072 15.964l1.254-0.01 6e-3 0.695-1.254 0.01-6e-3 -0.695z" style="fill-opacity:.8;fill:#f92672"/>
 <path d="m17.953 15.949l8.151-0.063 6e-3 0.695-8.151 0.064-6e-3 -0.696z" style="fill-opacity:.8;fill:#66d9ef"/>
 <path d="m26.731 15.881l3.449-0.027 5e-3 0.695-3.448 0.027-6e-3 -0.695z" style="fill-opacity:.8;fill:#fff"/>
 <path d="m16.083 17.355l1.881-0.015 6e-3 0.695-1.881 0.015-6e-3 -0.695z" style="fill-opacity:.8;fill:#f92672"/>
 <path d="m18.591 17.335l6.897-0.054 6e-3 0.696-6.897 0.053-6e-3 -0.695z" style="fill-opacity:.8;fill:#66d9ef"/>
 <path d="m26.115 17.276l2.508-0.019 6e-3 0.695-2.508 0.02-6e-3 -0.696z" style="fill-opacity:.8;fill:#fff"/>
 <path d="m16.094 18.745l-1.254 0.01 6e-3 0.695 1.254-9e-3 -6e-3 -0.696z" style="fill-opacity:.8;fill:#fff"/>
 <path d="m16.721 18.741l5.016-0.04 6e-3 0.696-5.016 0.039-6e-3 -0.695z" style="fill-opacity:.8;fill:#66d9ef"/>
 <path d="m22.364 18.697l1.881-0.015 5e-3 0.695-1.88 0.015-6e-3 -0.695z" style="fill-opacity:.8;fill:#fd971f"/>
 <path d="m14.851 20.146l2.508-0.02 5e-3 0.695-2.507 0.02-6e-3 -0.695z" style="fill-opacity:.8;fill:#f92672"/>
 <path d="m17.986 20.121l6.897-0.053 5e-3 0.695-6.897 0.054-5e-3 -0.696z" style="fill-opacity:.8;fill:#a6e22e"/>
 <path d="m25.51 20.063l1.567-0.012 6e-3 0.695-1.568 0.012-5e-3 -0.695z" style="fill-opacity:.8;fill:#fff"/>
 <path d="m14.797 13.192l0.627-5e-3 0.038 4.868-0.627 5e-3 -0.038-4.868z" style="fill-opacity:.678431;fill:#faffeb"/>
 <path d="m12.964 21.563l1.254-0.01 6e-3 0.696-1.254 9e-3 -6e-3 -0.695z" style="fill-opacity:.8;fill:#fff"/>
 <path d="m12.975 22.954l1.254-0.01 6e-3 0.695-1.254 0.01-6e-3 -0.695z" style="fill-opacity:.8;fill:#fff"/>
 <path d="m12.997 25.735l1.254-0.01 5e-3 0.696-1.254 9e-3 -5e-3 -0.695z" style="fill-opacity:.8;fill:#fff"/>
 <path d="m12.986 24.345l1.254-0.01 5e-3 0.695-1.254 0.01-5e-3 -0.695z" style="fill-opacity:.8;fill:#fff"/>
 <path d="m16.099 21.538l1.254-9e-3 6e-3 0.695-1.254 0.01-6e-3 -0.696z" style="fill-opacity:.8;fill:#f92672"/>
 <path d="m17.98 21.524l8.151-0.064 6e-3 0.696-8.151 0.063-6e-3 -0.695z" style="fill-opacity:.8;fill:#66d9ef"/>
 <path d="m26.758 21.456l3.449-0.027 5e-3 0.695-3.448 0.027-6e-3 -0.695z" style="fill-opacity:.8;fill:#fff"/>
 <path d="m16.11 22.929l1.881-0.014 6e-3 0.695-1.881 0.014-6e-3 -0.695z" style="fill-opacity:.8;fill:#f92672"/>
 <path d="m18.618 22.91l6.897-0.054 5e-3 0.695-6.896 0.054-6e-3 -0.695z" style="fill-opacity:.8;fill:#66d9ef"/>
 <path d="m26.142 22.851l2.508-0.019 5e-3 0.695-2.508 0.019-5e-3 -0.695z" style="fill-opacity:.8;fill:#fff"/>
 <path d="m16.121 24.32l-1.254 0.01 5e-3 0.695 1.254-0.01-5e-3 -0.695z" style="fill-opacity:.8;fill:#fff"/>
 <path d="m16.748 24.315l5.016-0.039 5e-3 0.695-5.016 0.039-5e-3 -0.695z" style="fill-opacity:.8;fill:#66d9ef"/>
 <path d="m22.391 24.271l1.881-0.015 5e-3 0.696-1.881 0.014-5e-3 -0.695z" style="fill-opacity:.8;fill:#fd971f"/>
 <path d="m14.878 25.72l2.508-0.019 5e-3 0.695-2.508 0.02-5e-3 -0.696z" style="fill-opacity:.8;fill:#f92672"/>
 <path d="m18.013 25.696l6.897-0.054 5e-3 0.696-6.897 0.053-5e-3 -0.695z" style="fill-opacity:.8;fill:#a6e22e"/>
 <path d="m25.537 25.637l1.567-0.012 6e-3 0.695-1.568 0.013-5e-3 -0.696z" style="fill-opacity:.8;fill:#fff"/>
 <path d="m35.719 29.7c-0.617-0.092-1.436 0.163-2.392 0.741-0.667 0.404-1.569 1.119-2.21 1.748l-0.029 0.027h-2e-3c-0.274-0.021-0.722-0.036-1.244-0.042-0.227 6e-3 -0.349 0.012-0.499 0.023-0.018-0.366-0.022-0.731 0.01-1.088 0.061-0.454 0.078-0.541 0.146-0.717 0.168-0.445 0.419-0.703 0.706-0.724 0.395-0.03 0.848 0.224 1.452 0.811 0.192 0.189 0.471 0.087 0.472-0.171 2e-3 -0.113-0.087-0.222-0.398-0.495-0.26-0.23-0.559-0.431-0.81-0.544-0.248-0.11-0.626-0.172-0.823-0.133-0.482 0.097-0.817 0.4-1.053 0.948-0.143 0.411-0.136 0.392-0.236 1.07-0.054 0.514-0.052 0.538-0.042 1.096-1.014 0.112-1.791 0.36-2.294 0.748-0.238 0.182-0.379 0.351-0.478 0.574-0.069 0.154-0.111 0.472-0.084 0.637 0.072 0.455 0.387 0.914 0.921 1.354 0.371 0.304 0.489 0.348 0.637 0.235 0.069-0.054 0.087-0.082 0.097-0.155 0.019-0.143-0.018-0.206-0.194-0.341-1.103-0.83-1.223-1.532-0.347-2.025 0.436-0.245 1.021-0.406 1.784-0.493 0.052 0.562 0.152 1.162 0.296 1.76l-0.111 0.159c-0.867 1.241-1.489 2.54-1.675 3.526-0.146 0.759-0.08 1.325 0.212 1.709 0.32 0.418 0.829 0.565 1.526 0.44 0.262-0.048 0.796-0.234 1.112-0.394 0.229-0.113 0.281-0.148 0.319-0.219 0.038-0.07 0.041-0.093 0.023-0.174-0.026-0.121-0.105-0.196-0.224-0.212-0.077-0.01-0.133 8e-3 -0.349 0.116-0.492 0.246-0.939 0.38-1.298 0.393-0.497 0.019-0.78-0.237-0.855-0.764-0.032-0.229 0.067-0.933 0.182-1.289 0.181-0.567 0.44-1.146 0.783-1.746 0.17-0.299 0.427-0.704 0.542-0.866 0.028 0.091 0.051 0.185 0.08 0.274 0.264 0.944 0.652 1.926 1.051 2.731 0.477 0.961 1.001 1.771 1.53 2.379 0.528 0.607 1.061 1.011 1.55 1.16l-0.011-1e-3c0.431 0.129 0.816 0.07 1.142-0.179 0.266-0.207 0.465-0.52 0.614-0.975 0.092-0.284 0.201-1.099 0.2-1.505-5e-3 -1.209-0.256-2.628-0.724-4.07-0.071-0.226-0.122-0.285-0.253-0.303-0.147-0.019-0.28 0.077-0.299 0.219-7e-3 0.051 0.025 0.191 0.085 0.378 0.572 1.81 0.781 3.513 0.579 4.699-0.06 0.353-0.15 0.631-0.268 0.835s-0.413 0.384-0.591 0.444c-0.603-6e-3 -0.968-0.328-1.412-0.759-0.444-0.43-0.822-1.021-1.152-1.669-0.33-0.647-0.688-1.333-0.947-1.99-0.242-0.61-0.52-1.415-0.743-2.296l0.066-0.096c0.409-0.526 0.84-1.033 1.293-1.522l0.179-0.182 0.035-0.035 0.32 0.031 0.396 0.052c2.409 0.321 4.721 1.183 5.874 2.186 0.236 0.205 0.505 0.558 0.574 0.752 0.05 0.136 0.053 0.171 0.03 0.339-0.021 0.165-0.034 0.204-0.103 0.297-0.194 0.277-0.642 0.531-1.197 0.682-0.258 0.071-0.332 0.13-0.351 0.27-0.015 0.119 0.049 0.229 0.161 0.28 0.072 0.032 0.099 0.032 0.241-4e-3 0.893-0.222 1.543-0.666 1.732-1.178 0.053-0.138 0.086-0.407 0.071-0.549-0.027-0.281-0.207-0.659-0.435-0.928-1.02-1.193-3.387-2.189-6.291-2.646 0 0-0.374-0.038-0.533-0.057l0.25-0.214c0.151-0.136 0.419-0.358 0.601-0.499 0.941-0.733 1.783-1.182 2.485-1.322 0.224-0.047 0.27-0.049 0.492-0.02 0.206 0.027 0.254 0.043 0.338 0.098 0.113 0.073 0.23 0.232 0.282 0.374 0.101 0.29 0.084 0.772-0.049 1.271-0.045 0.171-0.09 0.371-0.099 0.441-0.016 0.117-0.015 0.135 0.046 0.201 0.047 0.059 0.083 0.079 0.155 0.089 0.115 0.015 0.231-0.034 0.274-0.112 0.127-0.233 0.292-1.096 0.279-1.471-0.02-0.577-0.21-0.989-0.572-1.224-0.158-0.106-0.342-0.172-0.548-0.201v2e-3zm-5.126 3.004l-0.05 0.05c-1e-3 0.01-0.111 0.138-0.246 0.29-0.135 0.15-0.328 0.37-0.43 0.496-0.098 0.122-0.194 0.232-0.212 0.248l-0.09 0.121c-0.078-0.385-0.145-0.777-0.186-1.172 0.175-0.013 0.28-0.023 0.469-0.038 0.413-8e-3 0.573-4e-3 0.745 5e-3zm1.83 1.845c-0.421-0.056-0.807 0.241-0.863 0.662-0.056 0.42 0.24 0.806 0.66 0.862s0.807-0.24 0.863-0.66c0.055-0.42-0.24-0.809-0.66-0.864z" style="fill-rule:nonzero;fill:url(#_Linear3)"/>
 <defs>
  <linearGradient id="_Linear1" x2="1" gradientTransform="matrix(35.336,0,0,41.738,3.481,23.683)" gradientUnits="userSpaceOnUse">
   <stop style="stop-color:#0ee892" offset="0"/>
   <stop style="stop-color:#36c972" offset="1"/>
  </linearGradient>
  <linearGradient id="_Linear2" x2="1" gradientTransform="matrix(-.0341928 38.9205 -38.9205 -.0341928 25.8411 5.34917)" gradientUnits="userSpaceOnUse">
   <stop style="stop-color:#484b4d" offset="0"/>
   <stop style="stop-color:#2b2b28" offset="1"/>
  </linearGradient>
  <linearGradient id="_Linear3" x2="1" gradientTransform="matrix(13.1899,1.7545,-1.7545,13.1899,25.49,34.22)" gradientUnits="userSpaceOnUse">
   <stop style="stop-color:#37c871" offset="0"/>
   <stop style="stop-color:#03f19b" offset="1"/>
  </linearGradient>
 </defs>
</svg>
