<svg clip-rule="evenodd" fill-rule="evenodd" stroke-linejoin="round" stroke-miterlimit="2" viewBox="0 0 48 48" xmlns="http://www.w3.org/2000/svg">
 <linearGradient id="a" x2="1" gradientTransform="matrix(0 -33.6872 33.6872 0 923.28 40.4502)" gradientUnits="userSpaceOnUse">
  <stop stop-color="#6999d1" offset="0"/>
  <stop stop-color="#98c0f0" offset="1"/>
 </linearGradient>
 <path d="m39.44 45.668h-30.88c-3.438 0-6.228-2.79-6.228-6.228v-30.88c0-3.438 2.79-6.228 6.228-6.228h30.88c3.438 0 6.228 2.79 6.228 6.228v30.88c0 3.438-2.79 6.228-6.228 6.228z" fill="url(#a)"/>
 <g transform="matrix(.147041 0 0 .147041 5.53279 38.6037)" fill-rule="nonzero">
  <path d="m51.475-125.334 44.712 13.917-33.049 28.574z" fill="#006fef"/>
  <path d="m96.187-111.417 35.382 24.121-25.177 4.665z" fill="#005bc3"/>
  <path d="m131.569-87.296 25.468 15.957-28.092 13.704z" fill="#005bc3"/>
  <path d="m157.037-71.339 33.924 6.919-36.548 28.865z" fill="#0050ac"/>
  <path d="m190.961-64.42 29.842 4.877-22.844 30.032z" fill="#006fef"/>
  <path d="m163.16-111.788 18.179 27.911-24.302 12.538z" fill="#006fef"/>
  <path d="m146.249-115.5 49.377-16.115-32.466 19.827z" fill="#003776"/>
  <path d="m81.317-149.826 29.842 10.709-14.972 27.7z" fill="#006fef"/>
  <path d="m111.451-169.07 27.509 22.372-27.801 7.581z" fill="#006fef"/>
  <path d="m138.96-146.698 33.924-5.91-26.635 37.108z" fill="#0050ac"/>
  <path d="m63.138-82.843 30.425 36.367-44.42-18.369z" fill="#003d82"/>
  <path d="m93.563-46.476 33.633 20.623-45.296 7.58z" fill="#003776"/>
  <path d="m49.143-64.845 32.757 46.572-40.338-8.164z" fill="#006fef"/>
  <path d="m39.711-145.665 11.764 20.331-21.094 28.283z" fill="#00234b"/>
  <path d="m47.976-166.658 33.341 16.832-29.842 24.492z" fill="#006fef"/>
  <path d="m82.483-185.902 28.968 16.832-30.134 19.244z" fill="#006fef"/>
  <path d="m102.995-186.485 53.751 36.659-45.295-19.244z" fill="#153153"/>
  <path d="m190.67-174.53-33.924 24.704 16.138-2.782z" fill="#00234b"/>
  <path d="m154.413-35.555-27.217 9.702 33.34 13.703z" fill="#003d82"/>
  <path d="m154.413-35.555 43.546 6.044-37.423 17.361z" fill="#003776"/>
  <path d="m128.945-57.635 25.468 22.08-27.217 9.702z" fill="#006fef"/>
  <path d="m106.392-82.631 22.553 24.996-35.382 11.159z" fill="#0050ac"/>
  <path d="m96.187-111.417 10.205 28.786-43.254-.212z" fill="#0050ac"/>
  <path d="m81.317-149.826 14.87 38.409-44.712-13.917z" fill="#258bff"/>
  <path d="m51.475-125.334 11.663 42.491-32.757-14.208z" fill="#003d82"/>
  <path d="m49.143-64.845 44.42 18.369-31.109.583z" fill="#003776"/>
  <path d="m111.159-139.117 27.801-7.581-11.283 28.574z" fill="#258bff"/>
  <path d="m127.677-118.124 18.572 2.624-14.68 28.204z" fill="#003776"/>
  <path d="m96.187-111.417 31.49-6.707 3.892 30.828z" fill="#258bff"/>
  <path d="m131.569-87.296 31.591-24.492-6.123 40.449z" fill="#0050ac"/>
  <path d="m163.16-111.788 32.466-19.827 7.581 29.369z" fill="#006fef"/>
  <path d="m172.884-152.608 29.449 12.325-6.707 8.668z" fill="#00234b"/>
  <path d="m82.483-185.902-1.166 36.076-20.22-34.618z" fill="#003d82"/>
  <path d="m181.339-83.877 21.868-18.369 8.747 9.835z" fill="#153153"/>
  <g fill="#003776">
   <path d="m190.961-64.42 16.911-22.372 12.931 27.249z"/>
   <path d="m157.037-71.339 24.302-12.538 9.622 19.457z"/>
   <path d="m172.884-152.608 17.786-21.922 11.663 34.247z"/>
  </g>
  <path d="m195.626-131.615 6.707-8.668 9.621 47.872z" fill="#153153"/>
  <path d="m195.626-131.615 7.581 29.369 8.747 9.835z" fill="#00234b"/>
  <path d="m181.339-83.877 30.615-8.534-20.993 27.991z" fill="#003d82"/>
  <path d="m154.413-35.555 36.548-28.865 6.998 34.909z" fill="#005bc3"/>
  <path d="m62.454-45.893 31.109-.583-11.663 28.203z" fill="#003d82"/>
  <path d="m30.381-97.051 32.757 14.208-13.995 17.998z" fill="#003776"/>
  <path d="m63.138-82.843 43.254.212-12.829 36.155z" fill="#005bc3"/>
  <path d="m106.392-82.631 25.177-4.665-2.624 29.661z" fill="#0050ac"/>
  <path d="m146.249-115.5 16.911 3.712-31.591 24.492z" fill="#003d82"/>
  <path d="m138.96-146.698 7.289 31.198-18.572-2.624z" fill="#003d82"/>
  <path d="m157.621-162.443 33.049-12.087-33.924 24.704z" fill="#153153"/>
  <path d="m138.567-161.276 19.054-1.167-.875 12.617z" fill="#00234b"/>
  <path d="m111.451-169.07 45.295 19.244-17.786 3.128z" fill="#003776"/>
  <path d="m81.317-149.826 30.134-19.244-.292 29.953z" fill="#258bff"/>
  <path d="m96.187-111.417 14.972-27.7 16.518 20.993z" fill="#006fef"/>
  <path d="m47.976-166.658 13.121-17.786 20.22 34.618z" fill="#003776"/>
  <path d="m39.711-145.665 8.265-20.993 3.499 41.324z" fill="#153153"/>
  <path d="m82.483-185.902 20.512-.583 8.456 17.415z" fill="#00234b"/>
  <path d="m146.249-115.5 26.635-37.108 22.742 20.993z" fill="#005bc3"/>
  <g fill="#258bff">
   <path d="m181.339-83.877-18.179-27.911 40.047 9.542z"/>
   <path d="m154.413-35.555-25.468-22.08 28.092-13.704z"/>
   <path d="m127.196-25.853-33.633-20.623 35.382-11.159z"/>
  </g>
 </g>
</svg>
