<svg style="clip-rule:evenodd;fill-rule:evenodd;stroke-linejoin:round;stroke-miterlimit:2" version="1.1" viewBox="0 0 48 48" xmlns="http://www.w3.org/2000/svg">
 <ellipse cx="24" cy="24" rx="23" ry="22.998" style="fill:url(#_Linear1)"/>
 <path d="m23.998 1c-12.691 0-22.998 10.309-22.998 23s10.307 23 22.998 23c12.692 0 23.002-10.309 23.002-23s-10.31-23-23.002-23zm0 1.916c11.656 0 21.085 9.429 21.085 21.084s-9.429 21.081-21.085 21.081c-11.655 0-21.081-9.426-21.081-21.081s9.426-21.084 21.081-21.084z" style="fill-rule:nonzero;fill:url(#_Linear2)"/>
 <path d="m19.449 18.468v14.354c0.014 0.57-0.143 1.135-0.458 1.619-0.411 0.632-1.056 1.075-1.792 1.231-0.572 0.122-1.175 0.25-1.746 0.371-0.738 0.157-1.507 0.014-2.139-0.396-0.631-0.411-1.074-1.055-1.231-1.792-0.023-0.11-0.046-0.22-0.07-0.33-0.156-0.737-0.013-1.506 0.397-2.138 0.411-0.631 1.055-1.074 1.792-1.231 0.572-0.121 1.174-0.249 1.746-0.371 0.079-0.016 0.158-0.03 0.237-0.039v-0.011s0.425-0.09 0.864-0.183c0.554-0.118 0.951-0.607 0.951-1.174v-14.598c0-0.57 0.401-1.062 0.959-1.176 2.562-0.523 9.553-1.949 12.331-2.516 0.285-0.058 0.581 0.014 0.807 0.198 0.225 0.184 0.356 0.459 0.357 0.75l0.047 19.125c7e-3 0.559-0.15 1.111-0.459 1.586-0.41 0.632-1.054 1.075-1.792 1.232-0.572 0.121-1.174 0.249-1.746 0.37-0.737 0.157-1.506 0.014-2.138-0.396-0.632-0.411-1.075-1.055-1.231-1.792-0.023-0.11-0.046-0.22-0.07-0.33-0.156-0.736-0.014-1.506 0.397-2.137 0.41-0.632 1.055-1.075 1.792-1.232 0.572-0.121 1.174-0.249 1.746-0.37 0.091-0.02 0.183-0.034 0.274-0.045l0.805-0.162c0.56-0.113 0.962-0.605 0.962-1.176v-9.616l-11.592 2.375zm11.592-3.553v-1.057c0-0.245-0.109-0.476-0.298-0.631s-0.438-0.217-0.678-0.169c-2.19 0.44-7.475 1.5-9.653 1.938-0.56 0.112-0.963 0.604-0.963 1.176v1.117l11.592-2.374z" style="fill:url(#_Linear3)"/>
 <defs>
  <linearGradient id="_Linear1" x2="1" gradientTransform="matrix(2.8167e-15,-45.9971,46.0001,2.81651e-15,23.7125,46.7054)" gradientUnits="userSpaceOnUse">
   <stop style="stop-color:#333" offset="0"/>
   <stop style="stop-color:#4d4d4d" offset="1"/>
  </linearGradient>
  <linearGradient id="_Linear2" x2="1" gradientTransform="matrix(2.79582e-15,-45.6561,45.6592,2.79563e-15,30.5222,46.8276)" gradientUnits="userSpaceOnUse">
   <stop style="stop-color:#00a4e7" offset="0"/>
   <stop style="stop-color:#00ffa7" offset="1"/>
  </linearGradient>
  <linearGradient id="_Linear3" x2="1" gradientTransform="matrix(-.073362 -22.3106 22.3106 -.073362 673.279 31.1529)" gradientUnits="userSpaceOnUse">
   <stop style="stop-color:#b3b3b3" offset="0"/>
   <stop style="stop-color:#e4f7ff" offset="1"/>
  </linearGradient>
 </defs>
</svg>
