<?xml version="1.0" encoding="UTF-8" standalone="no"?>
<!DOCTYPE svg PUBLIC "-//W3C//DTD SVG 1.1//EN" "http://www.w3.org/Graphics/SVG/1.1/DTD/svg11.dtd">
<svg width="100%" height="100%" viewBox="0 0 128 128" version="1.1" xmlns="http://www.w3.org/2000/svg" xmlns:xlink="http://www.w3.org/1999/xlink" xml:space="preserve" xmlns:serif="http://www.serif.com/" style="fill-rule:evenodd;clip-rule:evenodd;stroke-linejoin:round;stroke-miterlimit:1.41421;">
    <path d="M128,64C128,28.677 99.323,0 64,0C28.677,0 0,28.677 0,64C0,99.323 28.677,128 64,128C99.323,128 128,99.323 128,64Z" style="fill:url(#_Linear1);"/>
    <g transform="matrix(0.842032,0,0,0.842032,10.1105,8.36517)">
        <g id="g3586" transform="matrix(1,0,0,1,0,0.271869)">
            <path id="path3178" d="M61.07,66.963C59.084,80.262 56.528,74.66 53.859,63.728C51.241,74.099 49.185,87.515 44.717,69.324C42.515,77.917 41.634,88.515 39.095,71.656C33.198,91.415 31.462,87.797 27,81C27.402,88.381 26.199,96.452 27.594,103.406C32.986,87.843 31.462,88.243 39.095,103.406C41.23,96.626 43.699,89.732 48.918,106C54.507,84.44 62.234,101.497 64.493,110.235C70.594,88.132 72.463,100.444 76.464,107.598C80.366,95.878 85.017,98.278 87.234,106C90.447,95.729 93.264,90.333 101,96C100.638,87.959 101.719,79.344 100.469,71.656C96.734,85.036 96.425,82.365 93.74,74.674C90.043,83.344 89.669,80.593 87.234,76.866C79.679,83.791 80.999,72.643 79.35,66.963C78.089,76.624 73.529,82.47 70.822,54.865C69.369,66.935 63.479,78.963 61.07,66.963Z" style="fill:rgb(243,229,23);"/>
            <g id="g3305">
                <g id="g3122">
                    <clipPath id="_clip2">
                        <path d="M30,94L31.877,94L34,98.598L36,94L37,102.955L39,90L41,91L42.89,109L46,92L49,98.598L52,86L56.148,112L59,96L61,90L63.999,137.884L69,90L71,100L72.48,89L76.507,113.864L80.123,94L85,89L87.89,112L91,90L94,100L95,91L98,97L98.987,85L95,86L94,69L92,82L90,78L87.89,68L85,83L82,87L80.123,78L77.617,85L75,83L71,17.353L67,79L65,85L61,73.675L58,90L53.604,49L49,84L47,80L45,56L42.89,89L41,87L39,63L37,87L34.987,78L34,91L30,85L30,94Z"/>
                    </clipPath>
                    <g clip-path="url(#_clip2)">
                        <path id="path3120" d="M26.987,141.807L29,17.353L101,17.353L98.987,141.807L26.987,141.807Z" style="fill:rgb(255,81,0);"/>
                        <path id="path3118" d="M29,80L37,90L40,76L45,82L51,72L53,84L55,76L58,82L59,76C59,76 62,84 62,83C62,82 66,68 66,68L70,81L76,69L79,82L84,73L88.493,85L92,77L98,83L98,91L92,90L88.493,98L85.11,88L83,100L80.63,94L77,99L71,90L69,99L65,93L60,106L59,88L51,94L47,88L45,98L41.123,90L37,98L35.247,91L29,96L29,80Z" style="fill:rgb(205,15,0);"/>
                    </g>
                </g>
            </g>
        </g>
        <g id="path2127" transform="matrix(1,0,0,1,0,0.271869)">
            <path d="M64,-0.341C50.737,-0.341 38.641,3.799 29.719,10.752C20.796,17.705 15,34.87 15,45.938L15,49.938C6.141,54.426 0,57.54 0,80C0,106.182 7.957,111.106 18.835,111.874C19.901,111.962 20.955,111.601 21.742,110.876C22.529,110.152 22.977,109.131 22.977,108.062C23,93.836 23,45.938 23,45.938C23,37.649 27.29,22.805 34.656,17.065C42.023,11.324 52.425,7.659 64,7.659C75.575,7.659 85.977,11.324 93.344,17.065C100.71,22.805 105,37.649 105,45.938C105,45.938 105,95.726 105,108.857C105,109.704 105.344,110.515 105.953,111.104C106.562,111.693 107.384,112.009 108.231,111.98C119.631,111.699 128.293,108.868 128,80C127.761,56.427 121.859,54.426 113,49.938L113,45.938C113,34.87 107.204,17.705 98.281,10.752C89.359,3.799 77.263,-0.341 64,-0.341ZM24.643,51L24.643,110.235C24.643,113.59 31,113.286 31,110.235L31,51C31,48.666 24.643,48.736 24.643,51ZM103.283,52.895C103.283,50.534 97,50.474 97,52.895L97,110.545C97,113.151 103.283,113.172 103.283,110.545L103.283,52.895Z" style="fill:url(#_Linear3);fill-rule:nonzero;"/>
        </g>
    </g>
    <defs>
        <linearGradient id="_Linear1" x1="0" y1="0" x2="1" y2="0" gradientUnits="userSpaceOnUse" gradientTransform="matrix(35.952,128,-128,35.952,50.3614,0)"><stop offset="0" style="stop-color:rgb(145,145,145);stop-opacity:1"/><stop offset="1" style="stop-color:rgb(105,105,105);stop-opacity:1"/></linearGradient>
        <linearGradient id="_Linear3" x1="0" y1="0" x2="1" y2="0" gradientUnits="userSpaceOnUse" gradientTransform="matrix(20.3566,108.125,-108.125,20.3566,56.2892,6.875)"><stop offset="0" style="stop-color:rgb(0,92,204);stop-opacity:1"/><stop offset="1" style="stop-color:rgb(0,2,100);stop-opacity:1"/></linearGradient>
    </defs>
</svg>
