<svg style="clip-rule:evenodd;fill-rule:evenodd;stroke-linecap:round;stroke-linejoin:round;stroke-miterlimit:1.5" version="1.1" viewBox="0 0 128 128" xmlns="http://www.w3.org/2000/svg">
 <path d="m128 64c0-35.323-28.677-64-64-64s-64 28.677-64 64 28.677 64 64 64 64-28.677 64-64z" style="fill:url(#_Linear1)"/>
 <path d="m64.001 8.307c-11.168 0-21.354 3.486-28.866 9.341-7.514 5.854-12.394 20.308-12.394 29.627v3.368c-7.46 3.78-12.631 6.402-12.631 25.314 0 22.046 6.701 26.192 15.86 26.839 0.898 0.074 1.785-0.23 2.448-0.841 0.663-0.609 1.04-1.469 1.04-2.369 0.019-11.979 0.019-52.311 0.019-52.311 0-6.979 3.613-19.478 9.815-24.312 6.203-4.834 14.962-7.92 24.709-7.92 9.746 0 18.505 3.086 24.708 7.92s9.815 17.333 9.815 24.312v52.98c0 0.713 0.29 1.396 0.802 1.892 0.513 0.496 1.205 0.762 1.918 0.738 9.6-0.237 16.893-2.621 16.647-26.928-0.202-19.85-5.171-21.534-12.631-25.314v-3.368c0-9.319-4.88-23.773-12.394-29.627-7.512-5.855-17.698-9.341-28.865-9.341zm-33.14 43.231v49.877c0 2.826 5.352 2.57 5.352 0v-49.877c0-1.966-5.352-1.907-5.352 0zm66.217 1.595c0-1.988-5.29-2.038-5.29 0v48.544c0 2.194 5.29 2.212 5.29 0v-48.544z" style="fill-rule:nonzero;fill:url(#_Linear2)"/>
 <path d="m40.417 79.223l6.301-15.699 4.15 23.503 8.452-37.637 4.691 53.496 8.373-39.362 6.454 22.55 5.226-15.722 3.996 7.147" style="fill:none;stroke-width:6.56px;stroke:#ff5200"/>
 <defs>
  <linearGradient id="_Linear1" x2="1" gradientTransform="matrix(35.952,128,-128,35.952,50.3614,0)" gradientUnits="userSpaceOnUse">
   <stop style="stop-color:#ddd" offset="0"/>
   <stop style="stop-color:#b0b0b0" offset="1"/>
  </linearGradient>
  <linearGradient id="_Linear2" x2="1" gradientTransform="matrix(17.1409,91.0447,-91.0447,17.1409,-667.754,150.927)" gradientUnits="userSpaceOnUse">
   <stop style="stop-color:#005ccc" offset="0"/>
   <stop style="stop-color:#000264" offset="1"/>
  </linearGradient>
 </defs>
</svg>
