<svg style="clip-rule:evenodd;fill-rule:evenodd;stroke-linejoin:round;stroke-miterlimit:2" version="1.1" viewBox="0 0 48 48" xmlns="http://www.w3.org/2000/svg">
 <path d="m46.764 24c0-12.564-10.2-22.764-22.764-22.764s-22.764 10.2-22.764 22.764 10.2 22.764 22.764 22.764 22.764-10.2 22.764-22.764z" style="fill:url(#_Linear1)"/>
 <path d="m24 4.191c-3.972 0-7.595 1.24-10.267 3.322-2.673 2.082-4.408 7.223-4.408 10.538v1.198c-2.654 1.345-4.493 2.277-4.493 9.004 0 7.841 2.383 9.316 5.641 9.546 0.32 0.027 0.635-0.082 0.871-0.299 0.236-0.216 0.37-0.522 0.37-0.843 7e-3 -4.26 7e-3 -18.606 7e-3 -18.606 0-2.482 1.285-6.928 3.491-8.647 2.206-1.72 5.321-2.817 8.788-2.817s6.582 1.097 8.789 2.817c2.206 1.719 3.491 6.165 3.491 8.647v18.844c0 0.254 0.103 0.497 0.285 0.673 0.182 0.177 0.429 0.271 0.682 0.263 3.415-0.084 6.009-0.932 5.921-9.578-0.071-7.06-1.839-7.659-4.492-9.004v-1.198c0-3.315-1.736-8.456-4.409-10.538-2.672-2.082-6.295-3.322-10.267-3.322zm-11.787 15.376v17.741c0 1.005 1.904 0.914 1.904 0v-17.741c0-0.699-1.904-0.678-1.904 0zm23.552 0.568c0-0.707-1.881-0.725-1.881 0v17.266c0 0.781 1.881 0.787 1.881 0v-17.266z" style="fill-rule:nonzero;fill:url(#_Linear2)"/>
 <g transform="matrix(1.11246 0 0 1 -2.79354 .0595533)">
  <path d="m19.324 28.511 2.02-9.983c0.12-0.537 0.571-0.899 1.066-0.858 0.496 0.04 0.893 0.472 0.942 1.023 0 0 0.499 4.747 0.918 9.505 0.086 0.973 0.168 1.947 0.244 2.879l1.732-7.44c0.078-0.368 0.367-0.633 0.707-0.647s0.647 0.225 0.75 0.586l1.661 6.397 1.4-3.867c0.053-0.159 0.182-0.27 0.333-0.287s0.298 0.063 0.378 0.206l1.35 2.591c0.092 0.164 0.047 0.38-0.101 0.482-0.147 0.103-0.342 0.052-0.433-0.112l-1.036-1.732-1.46 4.81c-0.082 0.245-0.294 0.406-0.53 0.4-0.235-6e-3 -0.441-0.177-0.512-0.427l-1.597-5.096-2.152 11.153c-0.116 0.544-0.568 0.915-1.069 0.878-0.502-0.038-0.905-0.474-0.954-1.03 0 0-0.496-4.748-0.912-9.506-0.095-1.08-0.185-2.161-0.267-3.187l-1.764 7.138c-0.083 0.37-0.385 0.626-0.728 0.616-0.342-0.01-0.632-0.283-0.698-0.656l-0.996-6.706-1.716 3.917c-0.071 0.176-0.258 0.256-0.416 0.177-0.159-0.079-0.23-0.286-0.16-0.463l2.073-5.668c0.089-0.221 0.296-0.353 0.512-0.325 0.217 0.027 0.392 0.207 0.434 0.445l0.981 4.787z" style="fill:rgb(255,82,0)"/>
 </g>
 <defs>
  <linearGradient id="_Linear1" x2="1" gradientTransform="matrix(12.7877,45.528,-45.528,12.7877,-37.1237,17.0416)" gradientUnits="userSpaceOnUse">
   <stop style="stop-color:rgb(221,221,221)" offset="0"/>
   <stop style="stop-color:rgb(176,176,176)" offset="1"/>
  </linearGradient>
  <linearGradient id="_Linear2" x2="1" gradientTransform="matrix(6.0968,32.3835,-32.3835,6.0968,-641.004,131.117)" gradientUnits="userSpaceOnUse">
   <stop style="stop-color:rgb(0,92,204)" offset="0"/>
   <stop style="stop-color:rgb(0,2,100)" offset="1"/>
  </linearGradient>
 </defs>
</svg>
