<svg clip-rule="evenodd" fill-rule="evenodd" stroke-linejoin="round" stroke-miterlimit="2" viewBox="0 0 48 48" xmlns="http://www.w3.org/2000/svg">
 <linearGradient id="a" x2="1" gradientTransform="matrix(0 -44.5723 44.5723 0 68.3858 46.0021)" gradientUnits="userSpaceOnUse">
  <stop stop-color="#333" offset="0"/>
  <stop stop-color="#4d4d4d" offset="1"/>
 </linearGradient>
 <linearGradient id="b" x2="1" gradientTransform="matrix(0 -45.1876 45.1876 0 75.646 46.5934)" gradientUnits="userSpaceOnUse">
  <stop stop-color="#00a4e7" offset="0"/>
  <stop stop-color="#00ffa7" offset="1"/>
 </linearGradient>
 <linearGradient id="c" x2="1" gradientTransform="matrix(-.0726092 -22.0817 22.0817 -.0726092 888.944 30.3484)" gradientUnits="userSpaceOnUse">
  <stop stop-color="#b3b3b3" offset="0"/>
  <stop stop-color="#e4f7ff" offset="1"/>
 </linearGradient>
 <ellipse cx="24" cy="24" rx="22.288" ry="22.286" fill="url(#a)"/>
 <path d="m23.998 1.236c-12.561 0-22.762 10.203-22.762 22.764s10.201 22.764 22.762 22.764c12.562 0 22.766-10.203 22.766-22.764s-10.204-22.764-22.766-22.764zm0 1.896c11.536 0 20.869 9.333 20.869 20.868s-9.333 20.865-20.869 20.865c-11.535 0-20.865-9.33-20.865-20.865s9.33-20.868 20.865-20.868z" fill="url(#b)" fill-rule="nonzero"/>
 <path d="m19.496 18.525v14.206c.014.565-.142 1.124-.454 1.603-.406.625-1.045 1.064-1.773 1.218-.566.121-1.163.248-1.728.367-.731.156-1.492.014-2.117-.392s-1.063-1.044-1.219-1.773c-.022-.109-.045-.218-.069-.327-.154-.729-.013-1.49.393-2.116.407-.624 1.044-1.063 1.774-1.218.566-.12 1.161-.247 1.728-.367.078-.016.156-.03.234-.039v-.011s.421-.089.855-.181c.549-.117.942-.601.942-1.162v-14.448c0-.564.396-1.051.949-1.164 2.535-.518 9.455-1.929 12.204-2.49.282-.058.575.014.799.196.223.182.352.454.353.742l.047 18.929c.007.553-.149 1.099-.455 1.57-.405.625-1.043 1.063-1.773 1.219-.566.12-1.162.246-1.728.366-.73.155-1.491.014-2.116-.392-.626-.407-1.064-1.044-1.219-1.773-.022-.109-.045-.218-.069-.327-.154-.729-.014-1.491.393-2.115.406-.626 1.044-1.064 1.774-1.22.566-.119 1.162-.246 1.728-.366.09-.02.181-.033.271-.044l.797-.161c.554-.111.952-.598.952-1.164v-9.517l-11.473 2.351zm11.473-3.517v-1.046c0-.242-.108-.471-.295-.624-.187-.154-.434-.215-.671-.168-2.168.436-7.399 1.485-9.554 1.918-.554.111-.953.598-.953 1.164v1.106z" fill="url(#c)"/>
</svg>
