<!DOCTYPE svg  PUBLIC '-//W3C//DTD SVG 1.1//EN'  'http://www.w3.org/Graphics/SVG/1.1/DTD/svg11.dtd'>
<svg style="clip-rule:evenodd;fill-rule:evenodd;stroke-linejoin:round;stroke-miterlimit:1.41421" version="1.1" viewBox="0 0 64 64" xmlns="http://www.w3.org/2000/svg">
 <path d="m60.024 13.124c0-2.58-1.025-5.054-2.849-6.878s-4.298-2.849-6.878-2.849h-36.671c-2.58 0-5.054 1.025-6.878 2.849s-2.849 4.298-2.849 6.878v37.211c0 2.58 1.025 5.054 2.849 6.879 1.824 1.824 4.298 2.849 6.878 2.849h36.671c2.58 0 5.054-1.025 6.878-2.849 1.824-1.825 2.849-4.299 2.849-6.879v-37.211z" style="fill:url(#_Linear1)"/>
 <path d="m11.263 23.909v19.466h0.056c-0.035 0.185-0.054 0.37-0.056 0.556 0 3.379 5.502 6.118 12.288 6.118 6.787 0 12.289-2.739 12.289-6.118-3e-3 -0.186-0.024-0.371-0.061-0.556h0.061l0.04-15.961-11.819 0.211-2.928-3.716h-9.87z" style="fill-rule:nonzero;fill:url(#_Linear2)"/>
 <path d="m20.656 17.963c-0.017 0.849 0.055 1.403 0.055 1.917 0 3.815 4.006 7.506 7.822 7.506h4.713c-1.509 1.54-4.542 2.694-9.695 2.694-6.782 0-12.288-2.753-12.288-6.144 0-2.893 4.006-5.321 9.393-5.973z" style="fill:#a7c236"/>
 <path d="m30.712 12.647c1.216-1.982 3.403-3.305 5.896-3.305 3.815 0 6.913 3.098 6.913 6.913 0 0.259-0.015 0.516-0.043 0.768h0.043c2.543 0 4.608 2.065 4.608 4.608s-2.065 4.608-4.608 4.608v1e-3h-14.593v-1e-3c-3.815 0-6.913-3.097-6.913-6.912s3.098-6.913 6.913-6.913c0.617 0 1.215 0.081 1.784 0.233z" style="fill:#5cc9ed"/>
 <path d="m38.698 34.59l-0.2 2.393c-0.759 0.282-1.465 0.691-2.086 1.209l-2.178-1.025-2.273 3.935 1.976 1.374c-0.071 0.398-0.107 0.801-0.109 1.205 0 0.405 0.035 0.81 0.104 1.21l-1.971 1.367 2.273 3.937 2.171-1.023c0.624 0.516 1.332 0.922 2.093 1.201l0.202 2.399h4.545l0.2-2.395c0.759-0.281 1.464-0.689 2.086-1.207l2.178 1.025 2.273-3.937-1.976-1.372c0.07-0.398 0.107-0.801 0.109-1.205 0-0.405-0.035-0.81-0.104-1.21l1.971-1.367-2.273-3.937-2.171 1.023c-0.624-0.516-1.332-0.922-2.093-1.201l-0.2-2.399h-4.545-2e-3zm2.354 5.682c1.871 0 3.41 1.539 3.41 3.409s-1.539 3.409-3.41 3.409c-1.87 0-3.409-1.539-3.409-3.409s1.539-3.409 3.409-3.409z" style="fill-rule:nonzero;fill:#00256c"/>
 <defs>
  <linearGradient id="_Linear1" x2="1" gradientTransform="matrix(3.46978e-15,56.6659,-56.6659,3.46978e-15,33.2456,3.39686)" gradientUnits="userSpaceOnUse">
   <stop style="stop-color:#fff" offset="0"/>
   <stop style="stop-color:#c8c8c8" offset="1"/>
  </linearGradient>
  <linearGradient id="_Linear2" x2="1" gradientTransform="matrix(24.617,0,0,26.1401,11.2628,36.979)" gradientUnits="userSpaceOnUse">
   <stop style="stop-color:#003b69" offset="0"/>
   <stop style="stop-color:#1672b9" offset="1"/>
  </linearGradient>
 </defs>
</svg>
