<svg style="clip-rule:evenodd;fill-rule:evenodd;stroke-linejoin:round;stroke-miterlimit:2" version="1.1" viewBox="0 0 48 48" xmlns="http://www.w3.org/2000/svg">
 <g transform="matrix(2.16265 0 0 2.16269 .276227 -.563754)">
  <path d="m4.404 19c0.858 1.198 1.803 2 2.596 2 2 0 2.626-1 4-1s2 1 4 1c0.792 0 1.731-0.802 2.582-2h-13.178z" style="fill-rule:nonzero;fill:rgb(0,218,140)"/>
 </g>
 <g transform="matrix(2.16265 0 0 2.16269 .276227 -.563754)">
  <path d="m2.832 16c0.426 1.119 0.969 2.158 1.572 3h13.178c0.6-0.844 1.156-1.88 1.582-3h-16.332z" style="fill-rule:nonzero;fill:rgb(1,154,186)"/>
 </g>
 <g transform="matrix(2.16265 0 0 2.16269 .204426 -.563754)">
  <path d="m2.064 13c0.113 1.002 0.397 2.024 0.768 3h16.332c0.011-0.028 0.023-0.054 0.033-0.082-1.493-0.307-2.685-1.442-3.066-2.918h-14.067z" style="fill-rule:nonzero;fill:rgb(204,7,127)"/>
 </g>
 <g transform="matrix(2.16265 0 0 2.16269 .276227 -.563754)">
  <path d="m2.197 10c-0.128 0.6-0.197 1.265-0.197 2 0 0.327 0.026 0.662 0.064 1h14.067c-0.086-0.326-0.13-0.662-0.131-1 2e-3 -0.703 0.189-1.393 0.543-2h-14.346z" style="fill-rule:nonzero;fill:rgb(244,30,179)"/>
 </g>
 <g transform="matrix(2.16265 0 0 2.16269 .246659 -.563754)">
  <path d="m3.002 8c-0.363 0.553-0.637 1.218-0.805 2h14.346c0.536-0.926 1.422-1.599 2.457-1.867v-0.113c-4e-3 -7e-3 -9e-3 -0.013-0.014-0.02h-15.984z" style="fill-rule:nonzero;fill:rgb(255,120,0)"/>
 </g>
 <g transform="matrix(2.16265 0 0 2.16269 .276227 -.563754)">
  <path d="m15 1s-3 0-4 2-1 3-1 3 3 0 4-2 1-3 1-3zm-8 5c-1.73 0-3.125 0.669-3.998 2h15.984c-0.873-1.326-2.259-2-3.986-2-2 0-2 1-4 1s-2-1-4-1z" style="fill-rule:nonzero;fill:rgb(176,186,69)"/>
 </g>
</svg>
