<svg style="clip-rule:evenodd;fill-rule:evenodd;stroke-linejoin:round;stroke-miterlimit:2" version="1.1" viewBox="0 0 48 48" xmlns="http://www.w3.org/2000/svg">
 <path d="m45.668 8.56c0-3.438-2.79-6.228-6.228-6.228h-30.88c-3.438 0-6.228 2.79-6.228 6.228v30.88c0 3.438 2.79 6.228 6.228 6.228h30.88c3.438 0 6.228-2.79 6.228-6.228v-30.88z" style="fill:url(#_Linear1)"/>
 <path d="m16 13c-5 0-6 3.152-6 6v10h7v6h14v-6h7v-10c0-2.848-1-6-6-6h-16zm1.5 5c2.469 0 4.5 2.031 4.5 4.5s-2.031 4.5-4.5 4.5-4.5-2.031-4.5-4.5 2.031-4.5 4.5-4.5zm13 0c2.469 0 4.5 2.031 4.5 4.5s-2.031 4.5-4.5 4.5-4.5-2.031-4.5-4.5 2.031-4.5 4.5-4.5z" style="fill-rule:nonzero;fill:#efe3b7"/>
 <defs>
  <linearGradient id="_Linear1" x2="1" gradientTransform="matrix(2.65364e-15,-43.3373,43.3373,2.65364e-15,201.9,45.6687)" gradientUnits="userSpaceOnUse">
   <stop style="stop-color:#371169" offset="0"/>
   <stop style="stop-color:#5c29a1" offset="1"/>
  </linearGradient>
 </defs>
</svg>
