<?xml version="1.0" encoding="UTF-8" standalone="no"?><!DOCTYPE svg PUBLIC "-//W3C//DTD SVG 1.1//EN" "http://www.w3.org/Graphics/SVG/1.1/DTD/svg11.dtd"><svg width="100%" height="100%" viewBox="0 0 64 64" version="1.1" xmlns="http://www.w3.org/2000/svg" xmlns:xlink="http://www.w3.org/1999/xlink" xml:space="preserve" xmlns:serif="http://www.serif.com/" style="fill-rule:evenodd;clip-rule:evenodd;stroke-linejoin:round;stroke-miterlimit:1.41421;"><path d="M60,32c0,-15.512 -12.488,-28 -28,-28c-2.776,0 -4.107,3.22 -6.635,3.965c-9.467,2.792 -18.164,7.613 -20.545,17.253c-0.536,2.17 -0.82,4.442 -0.82,6.782c0,15.512 12.488,28 28,28c1.425,0 3.07,-2.557 4.436,-2.761c10.285,-1.531 18.463,-6.162 21.899,-15.671c1.078,-2.983 1.665,-6.204 1.665,-9.568Z" style="fill:url(#_Linear1);fill-rule:nonzero;"/><circle cx="32" cy="32" r="16" style="fill:url(#_Linear2);"/><circle cx="32" cy="32" r="6" style="fill:#fff;"/><path d="M58.312,35.999c0.926,0.001 1.688,0.762 1.688,1.688l0,14.625c0,0.917 -0.747,1.675 -1.663,1.688c-0.456,0.006 -0.895,-0.172 -1.218,-0.495l-3.595,-3.595c-5.136,6.166 -12.872,10.09 -21.524,10.09l0,-12c5.341,0 10.07,-2.617 12.976,-6.638l-2.482,-2.482c-0.316,-0.316 -0.494,-0.746 -0.494,-1.193c0,-0.925 0.761,-1.687 1.687,-1.688l14.625,0Z" style="fill:#486afb;fill-rule:nonzero;"/><path d="M10.477,14.09c5.136,-6.166 12.871,-10.09 21.523,-10.09l0,12c-5.34,0 -10.07,2.616 -12.976,6.637l2.482,2.482c0.316,0.317 0.494,0.746 0.494,1.193c0,0.926 -0.761,1.688 -1.687,1.688l-14.625,0c-0.926,0 -1.688,-0.762 -1.688,-1.688l0,-14.625c0,-0.917 0.747,-1.674 1.663,-1.687c0.456,-0.007 0.895,0.172 1.218,0.494l3.596,3.596Z" style="fill:#ec2424;fill-rule:nonzero;"/><defs><linearGradient id="_Linear1" x1="0" y1="0" x2="1" y2="0" gradientUnits="userSpaceOnUse" gradientTransform="matrix(56,0,0,56,4,32)"><stop offset="0" style="stop-color:#5d5d5d;stop-opacity:1"/><stop offset="1" style="stop-color:#303030;stop-opacity:1"/></linearGradient><linearGradient id="_Linear2" x1="0" y1="0" x2="1" y2="0" gradientUnits="userSpaceOnUse" gradientTransform="matrix(32,0,0,32,16,32)"><stop offset="0" style="stop-color:#b2b2b2;stop-opacity:1"/><stop offset="1" style="stop-color:#707070;stop-opacity:1"/></linearGradient></defs></svg>