<svg clip-rule="evenodd" fill-rule="evenodd" stroke-linejoin="round" stroke-miterlimit="2" viewBox="0 0 48 48" xmlns="http://www.w3.org/2000/svg">
 <linearGradient id="a" x2="1" gradientTransform="matrix(0 -49.462 49.462 0 23.9993 48.7263)" gradientUnits="userSpaceOnUse">
  <stop stop-color="#768593" offset="0"/>
  <stop stop-color="#aeb6be" offset="1"/>
 </linearGradient>
 <circle cx="24.024" cy="24.153" r="22.74" fill="url(#a)"/>
 <path d="m22.19 37.5c-2.69 0-4.949-.776-6.776-2.328-1.793-1.551-2.69-3.603-2.69-6.155 0-2.758 1.069-4.914 3.207-6.465 2.138-1.586 4.776-2.38 7.914-2.38 2.793 0 5.086.518 6.879 1.552v-.724c0-1.862-.638-3.345-1.914-4.448-1.276-1.138-2.844-1.707-4.707-1.707-1.379 0-2.637.327-3.775.983-1.104.655-1.862 1.551-2.276 2.689l-4.345-1.862c.586-1.517 1.741-2.914 3.465-4.189 1.725-1.311 4-1.966 6.828-1.966 3.241 0 5.931.948 8.069 2.845 2.138 1.896 3.207 4.569 3.207 8.017v15.31h-4.552v-3.517h-.207c-1.896 2.897-4.672 4.345-8.327 4.345zm.776-4.345c1.965 0 3.741-.724 5.327-2.172 1.621-1.483 2.431-3.224 2.431-5.224-1.345-1.104-3.362-1.656-6.052-1.656-2.31 0-4.051.5-5.224 1.5-1.172 1-1.758 2.173-1.758 3.518 0 1.241.534 2.224 1.603 2.948s2.293 1.086 3.673 1.086z" fill="#fff" fill-opacity=".85" fill-rule="nonzero"/>
</svg>
