<svg style="clip-rule:evenodd;fill-rule:evenodd;stroke-linejoin:round;stroke-miterlimit:1.41421" version="1.1" viewBox="0 0 48 48" xmlns="http://www.w3.org/2000/svg">
 <path d="m46.312 29.564c-3.073 12.321-15.554 19.82-27.878 16.747-12.319-3.072-19.819-15.552-16.745-27.872 3.071-12.323 15.552-19.823 27.872-16.751 12.324 3.072 19.823 15.554 16.751 27.876z" style="fill-rule:nonzero;fill:url(#_Linear1)"/>
 <path d="m33.112 18.141c-0.302-3.08-2.963-4.107-6.321-4.395l-8e-3 -4.272-2.601 5e-3 8e-3 4.16c-0.684 2e-3 -1.383 0.017-2.077 0.032l-8e-3 -4.188-2.599 5e-3 7e-3 4.272c-0.563 0.012-1.116 0.024-1.656 0.025v-0.013l-3.587 6e-3 6e-3 2.778s1.921-0.041 1.889-5e-3c1.053-2e-3 1.397 0.609 1.498 1.136l0.01 4.868c0.073 1e-3 0.167 3e-3 0.275 0.018-0.087 0-0.18-1e-3 -0.275 0l0.012 6.819c-0.045 0.332-0.239 0.861-0.975 0.864 0.033 0.029-1.891 3e-3 -1.891 3e-3l-0.511 3.107 3.385-7e-3c0.63-1e-3 1.25 9e-3 1.858 0.012l9e-3 4.321 2.599-5e-3 -9e-3 -4.275c0.714 0.013 1.404 0.017 2.078 0.015l7e-3 4.256 2.601-5e-3 -7e-3 -4.314c4.372-0.259 7.43-1.367 7.803-5.474 0.3-3.306-1.258-4.778-3.741-5.37 1.506-0.77 2.446-2.125 2.221-4.379zm-3.621 9.247c8e-3 3.229-5.523 2.873-7.286 2.878l-0.01-5.725c1.763-3e-3 7.29-0.521 7.296 2.847zm-1.225-8.075c5e-3 2.938-4.608 2.604-6.076 2.607l-0.01-5.193c1.468-3e-3 6.08-0.479 6.086 2.586z" style="fill-rule:nonzero;fill:#fff"/>
 <defs>
  <linearGradient id="_Linear1" x2="1" gradientTransform="matrix(.53032 -45.0781 45.0781 .53032 23.5113 46.4091)" gradientUnits="userSpaceOnUse">
   <stop style="stop-color:#bc6700" offset="0"/>
   <stop style="stop-color:#ffb300" offset="1"/>
  </linearGradient>
 </defs>
</svg>
