
<svg style="clip-rule:evenodd;fill-rule:evenodd;stroke-linejoin:round;stroke-miterlimit:1.41421" version="1.1" viewBox="0 0 64 64" xmlns="http://www.w3.org/2000/svg">
 <g transform="matrix(0,-1,-1,0,0,0)">
  <path d="m-4.002-32.001c0-15.453-12.546-27.999-27.999-27.999s-27.999 12.546-27.999 27.999 12.546 27.999 27.999 27.999 27.999-12.546 27.999-27.999z" style="fill:url(#_Linear1)"/>
 </g>
 <path d="M32,4.002C16.488,4.002 4,16.488 4,32C4,32.113 4.011,32.224 4.018,32.336C4.369,17.135 16.711,5 32,5C47.289,5 59.631,17.135 59.982,32.336C59.989,32.224 60,32.113 60,32C60,16.488 47.512,4.002 32,4.002Z" style="fill-opacity:.1;fill-rule:nonzero;fill:white"/>
 <g transform="matrix(1.99994,0,0,1.99994,56.9986,-3.99865)">
  <g opacity=".2">
   <circle cx="-18.5" cy="14.5" r="1.5"/>
   <circle cx="-14.5" cy="14.5" r="1.5"/>
   <circle cx="-10.5" cy="14.5" r="1.5"/>
   <circle cx="-6.5" cy="14.5" r="1.5"/>
   <circle cx="-22.5" cy="18.5" r="1.5"/>
   <circle cx="-18.5" cy="18.5" r="1.5"/>
   <circle cx="-14.5" cy="18.5" r="1.5"/>
   <circle cx="-10.5" cy="18.5" r="1.5"/>
   <circle cx="-6.5" cy="18.5" r="1.5"/>
   <circle cx="-2.5" cy="18.5" r="1.5"/>
   <circle cx="-22.5" cy="22.5" r="1.5"/>
   <circle cx="-18.5" cy="22.5" r="1.5"/>
   <circle cx="-6.5" cy="22.5" r="1.5"/>
   <circle cx="-2.5" cy="22.5" r="1.5"/>
  </g>
 </g>
 <path d="m20.001 21.002c-1.646 0-3 1.354-3 3 1e-3 1.645 1.355 2.998 3 2.998s2.999-1.353 3-2.998c0-1.646-1.354-3-3-3zm8 0c-1.646 0-3 1.354-3 3 1e-3 1.645 1.355 2.998 3 2.998s2.999-1.353 3-2.998c0-1.646-1.354-3-3-3zm8 0c-1.646 0-3 1.354-3 3 1e-3 1.645 1.355 2.998 3 2.998s2.999-1.353 3-2.998c0-1.646-1.354-3-3-3zm7.998 0c-1.646 0-3 1.354-3 3 1e-3 1.645 1.355 2.998 3 2.998s2.999-1.353 3-2.998c0-1.646-1.354-3-3-3zm-31.998 7.998c-1.646 0-3 1.354-3 3s1.354 3 3 3 3-1.354 3-3-1.354-3-3-3zm8 0c-1.646 0-3 1.354-3 3s1.354 3 3 3 3-1.354 3-3-1.354-3-3-3zm8 0c-1.646 0-3 1.354-3 3s1.354 3 3 3 3-1.354 3-3-1.354-3-3-3zm8 0c-1.646 0-3 1.354-3 3s1.354 3 3 3 3-1.354 3-3-1.354-3-3-3zm7.998 0c-1.646 0-3 1.354-3 3s1.354 3 3 3 3-1.354 3-3-1.354-3-3-3zm8 0c-1.646 0-3 1.354-3 3s1.354 3 3 3 3-1.354 3-3-1.354-3-3-3zm-39.998 8c-1.646 0-3 1.354-3 3s1.354 3 3 3 3-1.354 3-3-1.354-3-3-3zm8 0c-1.646 0-3 1.354-3 3s1.354 3 3 3 3-1.354 3-3-1.354-3-3-3zm23.998 0c-1.646 0-3 1.354-3 3s1.354 3 3 3 3-1.354 3-3-1.354-3-3-3zm8 0c-1.646 0-3 1.354-3 3s1.354 3 3 3 3-1.354 3-3-1.354-3-3-3z" style="fill-rule:nonzero;fill:white"/>
 <defs>
  <linearGradient id="_Linear1" x2="1" gradientTransform="matrix(-56.9831,-12.4145,-12.4145,56.9831,-5.70602,-26.6024)" gradientUnits="userSpaceOnUse">
   <stop style="stop-color:rgb(224,32,54)" offset="0"/>
   <stop style="stop-color:rgb(139,17,32)" offset="1"/>
  </linearGradient>
 </defs>
</svg>
