<svg style="clip-rule:evenodd;fill-rule:evenodd;stroke-linejoin:round;stroke-miterlimit:2" version="1.1" viewBox="0 0 48 48" xmlns="http://www.w3.org/2000/svg">
 <path d="m25.181 2.878c1.252 0.031 2.51 0.415 3.461 1.178 6.803 5.021 14.547 9.503 17.448 15.629 4.054 8.559-1.75 20.115-12.07 22.298-7.903 1.672-16.813-2.275-20.066-9.832l-3.6 2.924c-0.566 0.447-0.655 0.482-0.981 0.667-3.559 2.014-9.277 0.072-8.919-4.975 0.137-1.928 1.226-3.745 2.767-4.843l7.035-5.401c-0.441-0.095 0.214 0.179-0.917-0.289-2.641-1.09-3.9-4.645-2.348-7.202 2.187-3.605 7.83-2.968 12.958-2.973-0.245-0.452-0.219-0.47-0.286-0.669-1.03-3.068 1.69-6.542 5.518-6.512z" style="fill:url(#_Linear1)"/>
 <path d="m24.864 24.683c0.076-1.353 0.739-2.545 1.737-3.39 0.981-0.829 2.3-1.337 3.74-1.337 1.437 0 2.756 0.508 3.737 1.337 0.999 0.845 1.661 2.037 1.738 3.389 0.076 1.39-0.483 2.681-1.463 3.638-0.999 0.974-2.42 1.585-4.012 1.585s-3.017-0.611-4.016-1.585c-0.981-0.957-1.537-2.248-1.461-3.637z" style="fill:url(#_Linear2)"/>
 <path d="m16.143 27.416c9e-3 0.53 0.178 1.559 0.431 2.362 0.532 1.701 1.435 3.274 2.691 4.66 1.29 1.425 2.878 2.57 4.711 3.383 1.927 0.853 4.016 1.288 6.185 1.285 2.166-3e-3 4.254-0.446 6.181-1.306 1.834-0.821 3.42-1.97 4.707-3.396 1.256-1.393 2.157-2.969 2.691-4.669 0.268-0.86 0.437-1.732 0.505-2.606 0.067-0.863 0.039-1.726-0.084-2.589-0.238-1.681-0.82-3.258-1.716-4.697-0.819-1.321-1.875-2.478-3.13-3.452l2e-3 -2e-3 -12.67-9.729c-0.012-8e-3 -0.021-0.018-0.033-0.025-0.832-0.639-2.229-0.637-3.144 3e-3 -0.924 0.647-1.03 1.716-0.207 2.391l-4e-3 3e-3 5.285 4.298-16.107 0.017h-0.022c-1.331 2e-3 -2.611 0.875-2.864 1.979-0.26 1.125 0.644 2.058 2.028 2.063l-2e-3 5e-3 8.164-0.016-14.569 11.183c-0.019 0.014-0.039 0.027-0.056 0.041-1.374 1.052-1.818 2.803-0.953 3.909 0.879 1.127 2.747 1.129 4.135 8e-3l7.952-6.508s-0.116 0.878-0.107 1.405zm20.431 2.943c-1.638 1.668-3.931 2.615-6.413 2.62-2.485 4e-3 -4.779-0.934-6.417-2.599-0.801-0.813-1.389-1.747-1.751-2.742-0.356-0.978-0.494-2.016-0.403-3.063 0.086-1.024 0.392-2.001 0.878-2.885 0.478-0.868 1.136-1.653 1.949-2.316 1.592-1.298 3.62-2.001 5.74-2.004 2.123-3e-3 4.149 0.693 5.743 1.987 0.812 0.66 1.469 1.443 1.947 2.31 0.488 0.883 0.791 1.856 0.881 2.883 0.09 1.045-0.048 2.082-0.403 3.061-0.364 0.997-0.95 1.932-1.751 2.748z" style="fill:url(#_Linear3)"/>
 <defs>
  <linearGradient id="_Linear1" x2="1" gradientTransform="matrix(-.108885 -38.4782 38.4782 -.108885 28.3672 42.257)" gradientUnits="userSpaceOnUse">
   <stop style="stop-color:#e2e2e2" offset="0"/>
   <stop style="stop-color:#fafafa" offset="1"/>
  </linearGradient>
  <linearGradient id="_Linear2" x2="1" gradientTransform="matrix(.00106098 -9.94866 9.94866 .00106098 428.684 29.9475)" gradientUnits="userSpaceOnUse">
   <stop style="stop-color:#197ff1" offset="0"/>
   <stop style="stop-color:#20c4fa" offset="1"/>
  </linearGradient>
  <linearGradient id="_Linear3" x2="1" gradientTransform="matrix(-.0542937 -32.9489 32.9489 -.0542937 461.008 38.3947)" gradientUnits="userSpaceOnUse">
   <stop style="stop-color:#f16219" offset="0"/>
   <stop style="stop-color:#fab020" offset="1"/>
  </linearGradient>
 </defs>
</svg>
