<!DOCTYPE svg  PUBLIC '-//W3C//DTD SVG 1.1//EN'  'http://www.w3.org/Graphics/SVG/1.1/DTD/svg11.dtd'>
<svg style="clip-rule:evenodd;fill-rule:evenodd;stroke-linejoin:round;stroke-miterlimit:1.41421" version="1.1" viewBox="0 0 48 48" xmlns="http://www.w3.org/2000/svg">
 <circle cx="24" cy="24" r="23.104" style="fill:url(#_Linear1)"/>
 <path d="m25.035 24.585c0.073-1.288 0.704-2.423 1.655-3.228 0.934-0.79 2.19-1.273 3.561-1.273 1.369 0 2.625 0.483 3.559 1.273 0.951 0.805 1.582 1.94 1.655 3.227 0.072 1.324-0.46 2.553-1.393 3.465-0.952 0.927-2.305 1.509-3.821 1.509s-2.873-0.582-3.824-1.509c-0.934-0.912-1.464-2.141-1.392-3.464z" style="fill:url(#_Linear2)"/>
 <path d="m16.731 27.188c8e-3 0.504 0.169 1.484 0.41 2.249 0.507 1.62 1.367 3.118 2.563 4.438 1.228 1.357 2.74 2.447 4.486 3.221 1.835 0.813 3.824 1.227 5.89 1.224 2.062-3e-3 4.051-0.425 5.886-1.244 1.746-0.782 3.257-1.876 4.482-3.234 1.196-1.326 2.054-2.827 2.563-4.446 0.255-0.819 0.416-1.649 0.481-2.482 0.064-0.821 0.037-1.643-0.08-2.465-0.227-1.601-0.781-3.103-1.634-4.473-0.78-1.258-1.786-2.36-2.981-3.287l2e-3 -2e-3 -12.066-9.265c-0.011-8e-3 -0.02-0.017-0.031-0.024-0.792-0.608-2.123-0.606-2.994 3e-3 -0.88 0.616-0.981 1.634-0.197 2.277l-4e-3 3e-3 5.033 4.093-15.339 0.016h-0.021c-1.267 2e-3 -2.486 0.833-2.727 1.885-0.248 1.071 0.613 1.959 1.931 1.964l-2e-3 5e-3 7.775-0.015-13.874 10.649c-0.018 0.013-0.037 0.026-0.053 0.039-1.309 1.002-1.732 2.669-0.908 3.723 0.837 1.073 2.616 1.075 3.938 7e-3l7.572-6.197s-0.11 0.836-0.101 1.338zm19.456 2.802c-1.56 1.589-3.744 2.491-6.107 2.495-2.367 4e-3 -4.551-0.889-6.111-2.475-0.763-0.774-1.323-1.663-1.668-2.611-0.339-0.931-0.47-1.92-0.383-2.917 0.082-0.975 0.373-1.905 0.836-2.747 0.455-0.827 1.082-1.574 1.856-2.206 1.516-1.236 3.447-1.905 5.466-1.908 2.022-3e-3 3.951 0.66 5.469 1.892 0.773 0.629 1.399 1.374 1.854 2.2 0.465 0.841 0.753 1.767 0.839 2.745 0.086 0.996-0.046 1.983-0.384 2.915-0.346 0.95-0.904 1.84-1.667 2.617z" style="fill:url(#_Linear3)"/>
 <defs>
  <linearGradient id="_Linear1" x2="1" gradientTransform="matrix(1.42204,-45.9883,45.9883,1.42204,21.1447,46.9286)" gradientUnits="userSpaceOnUse">
   <stop style="stop-color:#d6d6d6" offset="0"/>
   <stop style="stop-color:#fff" offset="1"/>
  </linearGradient>
  <linearGradient id="_Linear2" x2="1" gradientTransform="matrix(.00101036 -9.474 9.474 .00101036 30.25 29.558)" gradientUnits="userSpaceOnUse">
   <stop style="stop-color:#20c4fa" offset="0"/>
   <stop style="stop-color:#197ff1" offset="1"/>
  </linearGradient>
  <linearGradient id="_Linear3" x2="1" gradientTransform="matrix(-.0517033 -31.3769 31.3769 -.0517033 29.3338 38.32)" gradientUnits="userSpaceOnUse">
   <stop style="stop-color:#f16219" offset="0"/>
   <stop style="stop-color:#fab020" offset="1"/>
  </linearGradient>
 </defs>
</svg>
