<!DOCTYPE svg  PUBLIC '-//W3C//DTD SVG 1.1//EN'  'http://www.w3.org/Graphics/SVG/1.1/DTD/svg11.dtd'>
<svg style="clip-rule:evenodd;fill-rule:evenodd;stroke-linejoin:round;stroke-miterlimit:2" version="1.1" viewBox="0 0 48 48" xmlns="http://www.w3.org/2000/svg">
 <circle cx="24" cy="24" r="22.764" style="fill:url(#_Linear1)"/>
 <path d="m37.535 13c-0.333 3e-3 -20.401 1.431-20.604 1.46-0.232 0.033-0.367 0.366-0.435 0.744-0.03 0.168-1.534 6.873-1.564 7.042-0.052 0.287 0.293 0.616 0.734 0.672 0.637 0.08 18.159 2.376 18.684 2.445 1.198 0.159 1.229 0.16 1.299 0.049 0.055-0.086 2.264-11.978 2.299-12.156 0.033-0.173-0.213-0.258-0.413-0.256zm-22.619 10.673c-0.362-0.078-1.09-0.132-1.383-0.087-0.214 0.033-1.888 0.27-3.719 0.526s-3.406 0.493-3.499 0.527c-0.393 0.141-0.426 0.631-0.054 0.815 0.08 0.04 20.034 5.703 20.174 5.685 0.069-9e-3 1.927-0.913 4.128-2.01 4.326-2.157 4.176-2.071 4.176-2.38 0-0.211 0.172-0.17-2.005-0.484-0.579-0.084-17.593-2.542-17.818-2.592zm-3.179 4.181c-0.07 0.015-1.445 3.047-1.495 3.172-0.119 0.302 0.274 0.49 0.613 0.385 0.082-0.025 3.561-1.1 3.665-1.162 0.209-0.122 0.432-0.525 0.67-1.209 0.069-0.198-0.068-0.312-0.215-0.349-0.308-0.076-3.207-0.844-3.238-0.837zm18.29 2.51c0-0.082-0.097-0.163-0.259-0.07-0.071 0.04-2.389 1.348-2.506 1.42-0.576 0.354-0.791 0.387-1.06 0.332-0.343-0.07-1.077-0.287-1.126-0.146-0.037 0.103-1.292 3.659-1.318 3.741-0.128 0.396 0.453 0.452 0.808 0.291 0.365-0.166 4.296-2.266 4.568-2.402 0.19-0.095 0.272-0.332 0.352-0.69 0.044-0.195 0.541-2.424 0.541-2.476z" style="fill-rule:nonzero;fill:#fff"/>
 <defs>
  <linearGradient id="_Linear1" x2="1" gradientTransform="matrix(2.78787e-15,-45.5294,45.5294,2.78787e-15,210.898,46.7647)" gradientUnits="userSpaceOnUse">
   <stop style="stop-color:#0a80fd" offset="0"/>
   <stop style="stop-color:#56c5fa" offset="1"/>
  </linearGradient>
 </defs>
</svg>
