<svg clip-rule="evenodd" fill-rule="evenodd" stroke-linejoin="round" stroke-miterlimit="2" viewBox="0 0 48 48" xmlns="http://www.w3.org/2000/svg">
 <linearGradient id="a" x2="1" gradientTransform="matrix(-.716771 -45.9835 45.9835 -.716771 24 47)" gradientUnits="userSpaceOnUse">
  <stop stop-color="#026e8b" offset="0"/>
  <stop stop-color="#1dc2f3" offset="1"/>
 </linearGradient>
 <ellipse cx="24" cy="25.062" rx="11.625" ry="17.188" fill="#fff"/>
 <path d="m24 1c-8.469 0-15.333 6.865-15.333 15.333v15.334c0 8.468 6.864 15.333 15.333 15.333s15.333-6.865 15.333-15.333v-15.334c0-8.468-6.864-15.333-15.333-15.333zm8.864 28.639c.345.277.546.696.546 1.139s-.201.862-.546 1.139l-9.156 7.339c-.264.212-.587.321-.913.321-.215 0-.431-.047-.632-.144-.506-.243-.828-.754-.828-1.316v-10.481l-4.368 3.531c-.27.219-.594.325-.917.325-.425 0-.847-.185-1.136-.542-.507-.627-.409-1.547.218-2.053l6.055-4.895-6.055-4.895c-.627-.507-.725-1.426-.218-2.053s1.426-.724 2.053-.217l4.368 3.53v-10.484c0-.561.322-1.073.828-1.316s1.107-.174 1.545.177l9.156 7.34c.345.277.546.696.546 1.139s-.201.862-.546 1.139l-7.034 5.638zm-3.248 1.139-5.361-4.299v8.597zm0-13.555-5.361-4.299v8.597z" fill="url(#a)" fill-rule="nonzero"/>
</svg>
