<svg style="clip-rule:evenodd;fill-rule:evenodd;stroke-linejoin:round;stroke-miterlimit:2" version="1.1" viewBox="0 0 64 64" xmlns="http://www.w3.org/2000/svg">
 <path d="m60 32c0-15.454-12.546-28-28-28s-28 12.546-28 28 12.546 28 28 28 28-12.546 28-28z" style="fill:url(#_Linear1)"/>
 <path d="m48.705 5.022c2.354-0.138 4.348 0.371 5.881 1.499 2.591 1.921 3.756 5.545 3.327 10.355-0.054-3.558-1.144-6.241-3.158-7.778-6.293-4.756-20.083 2.719-30.549 16.559l-3e-3 3e-3c-0.331 0.439-0.655 0.878-0.972 1.319-0.102 0.337-0.198 0.678-0.293 1.021h18.125c-1.359-4.94-4.988-8.369-9.063-8.375-0.048 0-0.096 3e-3 -0.145 4e-3 2.932-3.027 5.984-5.749 9.399-7.567 7.739 3.587 12.738 11.351 12.746 19.938-3e-3 0.459-0.019 1.542-0.051 2h-31.5c0.544 6.257 4.654 9.992 9.551 10 3.5-6e-3 6.689-2.094 8.379-6h12.75c-2.676 9.435-11.28 15.992-21.129 16-7.07-4e-3 -13.582-3.39-17.665-8.901-1.665 6.568-1.041 11.967 2.26 14.463 1e-3 1e-3 2e-3 1e-3 3e-3 2e-3 0.971 0.723 2.141 1.174 3.481 1.343-2.681 0.312-4.943-0.165-6.645-1.4-6.788-4.994-3.086-21.061 8.201-35.595 0.24-0.309 0.482-0.616 0.726-0.919-4.239 3.549-8.92 8.004-11.943 13.241-0.276-1.394-0.415-2.812-0.418-4.234 0-12.15 9.85-22 22-22 1.25 7e-3 2.495 0.119 3.724 0.337 4.625-3.175 9.158-5.09 12.981-5.315z" style="fill-rule:nonzero;fill:url(#_Linear2)"/>
 <defs>
  <linearGradient id="_Linear1" x2="1" gradientTransform="matrix(3.43969e-15,-56.1743,56.1743,3.43969e-15,32,59.9709)" gradientUnits="userSpaceOnUse">
   <stop style="stop-color:#d3d3d3" offset="0"/>
   <stop style="stop-color:#eee" offset="1"/>
  </linearGradient>
  <linearGradient id="_Linear2" x2="1" gradientTransform="matrix(.387409 -57.724 57.724 .387409 32.891 61.5206)" gradientUnits="userSpaceOnUse">
   <stop style="stop-color:#448a03" offset="0"/>
   <stop style="stop-color:#50c000" offset="1"/>
  </linearGradient>
 </defs>
</svg>
