<svg style="clip-rule:evenodd;fill-rule:evenodd;stroke-linejoin:round;stroke-miterlimit:2" version="1.1" viewBox="0 0 48 48" xmlns="http://www.w3.org/2000/svg">
 <path d="m45.668 8.56c0-3.438-2.79-6.228-6.228-6.228h-30.88c-3.438 0-6.228 2.79-6.228 6.228v30.88c0 3.438 2.79 6.228 6.228 6.228h30.88c3.438 0 6.228-2.79 6.228-6.228v-30.88z" style="fill:url(#_Linear1)"/>
 <path d="m31.71 15.707l-1.55-1.471c0.064-0.262 0.098-0.536 0.098-0.818 0-1.908-1.549-3.457-3.457-3.457s-3.457 1.549-3.457 3.457c0 0.275 0.032 0.543 0.093 0.799l-4.292 2.7c-0.436-0.106-0.884-0.159-1.332-0.159-3.105 0-5.625 2.52-5.625 5.625 0 2.09 1.142 3.915 2.835 4.885v4.701h5.555v-4.688c1.707-0.966 2.86-2.799 2.86-4.898 0-0.703-0.13-1.375-0.365-1.996l2.574-3.71c0.37 0.132 0.761 0.198 1.154 0.198 0.328 0 0.646-0.046 0.947-0.132l1.454 1.345-0.593 0.563c-0.15 0.143-0.272 0.426-0.272 0.633v3.24c0 0.621 0.504 1.125 1.125 1.125h3.772c0.25 0 0.488-0.099 0.664-0.275 0.175-0.176 0.273-0.414 0.274-0.662 0-0.25-0.1-0.488-0.274-0.664-0.176-0.176-0.415-0.274-0.664-0.274h-2.647c-0.206 0-0.375-0.169-0.375-0.375v-1.308c0-0.207 0.122-0.491 0.272-0.634l2.595-2.464c0.15-0.143 0.44-0.259 0.647-0.259h1.524c0.206 0 0.375 0.17 0.375 0.375v2.134c0 0.248 0.099 0.486 0.274 0.662 0.176 0.176 0.414 0.276 0.663 0.276 0.25 0 0.488-0.1 0.664-0.276 0.175-0.176 0.273-0.414 0.274-0.662v-3.259c0-0.62-0.504-1.125-1.125-1.125h-3.398c-0.207 0-0.496 0.116-0.646 0.259l-0.621 0.589zm-19.522 16.451h11.812c0.621 0 1.125 0.504 1.125 1.125v3.687h-14.062v-3.687c0-0.621 0.504-1.125 1.125-1.125zm3.75-9.775c0-1.035 0.84-1.875 1.875-1.875 1.034 0 1.875 0.84 1.875 1.875s-0.841 1.875-1.875 1.875c-1.035 0-1.875-0.84-1.875-1.875zm9.023-8.964v-1e-3c0-1.009 0.83-1.839 1.839-1.839h2e-3c1.009 0 1.839 0.83 1.839 1.839 0 0.488-0.194 0.957-0.539 1.301-0.345 0.345-0.813 0.539-1.301 0.539-1.016 0-1.84-0.823-1.84-1.839zm-10.898 8.965c0-0.996 0.395-1.95 1.098-2.653s1.658-1.097 2.652-1.097c0.993 0 1.948 0.394 2.651 1.097s1.099 1.657 1.099 2.653c-1e-3 2.071-1.68 3.749-3.75 3.75-2.071-1e-3 -3.75-1.679-3.75-3.75z" style="fill:#303446"/>
 <defs>
  <linearGradient id="_Linear1" x2="1" gradientTransform="matrix(2.65361e-15,-43.3368,43.3368,2.65361e-15,492.947,45.6684)" gradientUnits="userSpaceOnUse">
   <stop style="stop-color:#ff8900" offset="0"/>
   <stop style="stop-color:#e1be99" offset="1"/>
  </linearGradient>
 </defs>
</svg>
