<!DOCTYPE svg  PUBLIC '-//W3C//DTD SVG 1.1//EN'  'http://www.w3.org/Graphics/SVG/1.1/DTD/svg11.dtd'>
<svg style="clip-rule:evenodd;fill-rule:evenodd;stroke-linejoin:round;stroke-miterlimit:1.41421" version="1.1" viewBox="0 0 48 48" xmlns="http://www.w3.org/2000/svg">
 <path d="m44.646 13.107c0.064-0.391-0.03-0.791-0.261-1.112s-0.58-0.538-0.971-0.602c-5.603-0.916-25.565-4.178-31.168-5.094-0.391-0.064-0.791 0.03-1.112 0.261s-0.538 0.58-0.602 0.971c-0.739 4.526-2.975 18.2-3.714 22.725-0.133 0.814 0.418 1.581 1.231 1.714 5.604 0.916 25.565 4.179 31.169 5.095 0.391 0.064 0.791-0.03 1.112-0.261s0.538-0.58 0.602-0.971c0.739-4.526 2.975-18.2 3.714-22.726z" style="fill:url(#_Linear1)"/>
 <path d="m38.176 15.21c3e-3 -0.396-0.151-0.776-0.429-1.059-0.277-0.282-0.655-0.442-1.051-0.445-5.678-0.047-25.903-0.212-31.581-0.259-0.824-7e-3 -1.497 0.656-1.504 1.48-0.038 4.586-0.151 18.441-0.189 23.027-3e-3 0.396 0.151 0.776 0.429 1.059 0.277 0.282 0.655 0.442 1.051 0.445 5.678 0.047 25.903 0.212 31.581 0.259 0.824 7e-3 1.497-0.656 1.504-1.48 0.038-4.586 0.151-18.441 0.189-23.027z" style="fill:url(#_Linear2)"/>
 <path d="m36.04 30.134c3.704 0.015 6.697 3.033 6.683 6.735-0.015 3.703-3.033 6.697-6.735 6.683-3.703-0.016-6.697-3.033-6.683-6.735 0.016-3.704 3.033-6.697 6.735-6.683z" style="fill:url(#_Linear3)"/>
 <path d="m34.012 39.644l-0.015-5.641 4.893 2.807-4.878 2.834z" style="fill-rule:nonzero;fill:url(#_Linear4)"/>
 <path d="m18.228 20.589c-0.691 7e-3 -1.267 0.616-1.277 1.351l-0.035 2.678c-0.01 0.734-0.586 1.344-1.277 1.35l-0.629 6e-3 -0.018 1.339 0.63-6e-3c0.073 0 0.145 6e-3 0.217 0.018 0.598 0.107 1.033 0.662 1.025 1.31l-0.036 2.678c-9e-3 0.734 0.551 1.333 1.242 1.327l1.259-0.012 0.018-1.339-1.259 0.012 0.043-3.347c0.01-0.735-0.55-1.334-1.241-1.328 0.609-5e-3 1.141-0.48 1.255-1.119 0.013-0.076 0.02-0.154 0.021-0.231l0.044-3.348 1.259-0.011 0.018-1.339m3.777-0.035c0.691-6e-3 1.251 0.593 1.242 1.327l-0.035 2.678c-9e-3 0.648 0.426 1.203 1.024 1.31 0.072 0.012 0.144 0.018 0.217 0.018l0.63-6e-3 -0.018 1.339-0.629 6e-3c-0.691 6e-3 -1.267 0.616-1.277 1.35l-0.035 2.678c-0.01 0.735-0.586 1.344-1.277 1.351l-1.259 0.011 0.018-1.339 1.259-0.011 0.044-3.348c9e-3 -0.734 0.586-1.344 1.276-1.35-0.69 6e-3 -1.251-0.593-1.241-1.328l0.044-3.347-1.259 0.012 0.017-1.339 1.259-0.012z" style="fill-rule:nonzero;fill:#f9f9f9"/>
 <defs>
  <linearGradient id="_Linear1" x2="1" gradientTransform="matrix(3.71398,-25.0804,25.0804,3.71398,23.7565,33.9487)" gradientUnits="userSpaceOnUse">
   <stop style="stop-color:#55618b" offset="0"/>
   <stop style="stop-color:#90b0e0" offset="1"/>
  </linearGradient>
  <linearGradient id="_Linear2" x2="1" gradientTransform="matrix(-.173664 -25.3533 25.3533 -.173664 20.7268 39.0069)" gradientUnits="userSpaceOnUse">
   <stop style="stop-color:#6a82d4" offset="0"/>
   <stop style="stop-color:#90b0e0" offset="1"/>
  </linearGradient>
  <linearGradient id="_Linear3" x2="1" gradientTransform="matrix(-.623995 -13.0669 13.0669 -.623995 36.2474 43.2573)" gradientUnits="userSpaceOnUse">
   <stop style="stop-color:#cdd0d1" offset="0"/>
   <stop style="stop-color:#f6f6f7" offset="1"/>
  </linearGradient>
  <linearGradient id="_Linear4" x2="1" gradientTransform="matrix(5.05321,-5.54281,5.54281,5.05321,33.8882,39.6414)" gradientUnits="userSpaceOnUse">
   <stop style="stop-color:#16a085" offset="0"/>
   <stop style="stop-color:#2dcb72" offset="1"/>
  </linearGradient>
 </defs>
</svg>
