<svg style="clip-rule:evenodd;fill-rule:evenodd;stroke-linejoin:round;stroke-miterlimit:2" version="1.1" viewBox="0 0 64 64" xmlns="http://www.w3.org/2000/svg">
 <circle cx="32.5" cy="31.5" r="29.197" style="fill:url(#_Linear1)"/>
 <path d="m26.9 17c2.56 0 4.511 1.34 5.6 3.006 1.089-1.666 3.04-3.006 5.6-3.006h11.4c0.823 0 1.5 0.677 1.5 1.5v4.574c0.408 0.122 0.901 0.444 0.901 1.285l-1e-3 19.504c0 1.181-0.956 2.138-2.137 2.138h-11.325c-3.914 0.128-3.263 2.944-5.488 2.849-2.225 0.095-1.574-2.721-5.488-2.849h-12.325c-1.18 0-2.137-0.957-2.137-2.138v-19.504c0-0.911 0.577-1.213 1-1.312v-4.547c0-0.823 0.677-1.5 1.5-1.5h11.4zm7.1 8.477v12.023 0.021c0 0.15-0.022 0.294-0.064 0.431l-0.015 0.048-0.013 0.035c-0.114 0.309-0.328 0.572-0.602 0.749l-0.026 0.016-5e-3 3e-3 -4e-3 2e-3 -0.027 0.016-0.028 0.017c-0.161 0.087-0.338 0.147-0.526 0.171l-0.038 5e-3c-0.037 3e-3 -0.075 6e-3 -0.114 7e-3h-0.038c-0.051 0-0.102-2e-3 -0.152-7e-3l-0.038-5e-3c-0.107-0.014-0.21-0.039-0.309-0.074-0.051-0.018-0.101-0.039-0.149-0.063l-0.033-0.016-0.011-6e-3c-0.093-0.049-0.18-0.107-0.26-0.173-0.037-0.031-0.073-0.063-0.107-0.097l-0.025-0.026c-8e-3 -9e-3 -0.016-0.017-0.024-0.026l-0.024-0.027c-0.016-0.018-0.032-0.037-0.046-0.056l-0.022-0.029c-0.017-0.022-0.033-0.045-0.049-0.068l-0.013-0.021-3e-3 -4e-3c-0.072-0.112-0.129-0.233-0.169-0.363l-9e-3 -0.03-7e-3 -0.026c-0.023-0.085-0.038-0.174-0.045-0.265-2e-3 -0.013-2e-3 -0.027-3e-3 -0.041l-2e-3 -0.038v-0.039-0.021-12.023c0-1.193-0.311-2.709-0.969-3.764s-1.476-1.713-3.131-1.713h-9.9v5.23 0.022 0.011 16.732h10.893c2.243 0.013 3.569 1.73 5.057 2.81 1.488-1.08 2.814-2.797 5.057-2.81h9.993v-16.732-0.011-0.022-5.23h-9.9c-1.655 0-2.473 0.658-3.131 1.713-0.658 1.054-0.969 2.571-0.969 3.764z" style="fill-rule:nonzero;fill:url(#_Linear2)"/>
 <defs>
  <linearGradient id="_Linear1" x2="1" gradientTransform="matrix(-.658596 -58.2663 58.2663 -.658596 32.6586 60.6683)" gradientUnits="userSpaceOnUse">
   <stop style="stop-color:#002668" offset="0"/>
   <stop style="stop-color:#395a95" offset="1"/>
  </linearGradient>
  <linearGradient id="_Linear2" x2="1" gradientTransform="matrix(-1.12349,-31.7676,31.7676,-1.12349,33.1235,48.891)" gradientUnits="userSpaceOnUse">
   <stop style="stop-color:#cfe9f4" offset="0"/>
   <stop style="stop-color:#fff" offset="1"/>
  </linearGradient>
 </defs>
</svg>
