<svg style="clip-rule:evenodd;fill-rule:evenodd;stroke-linejoin:round;stroke-miterlimit:2" version="1.1" viewBox="0 0 48 48" xmlns="http://www.w3.org/2000/svg">
 <path d="m6.605 35.273v-21.593c0-6.071 4.929-11 11-11h4.155c6.071 0 11 4.929 11 11v6.438c6.024 0.054 10.898 4.962 10.898 10.999v4.156c0 6.071-4.929 11-11 11h-15.053c-6.071 0-11-4.929-11-11z" style="fill:url(#_Linear1)"/>
 <path d="m19.682 26.656c-1.793 0-3.269 1.476-3.269 3.269 1e-3 0.929 0.398 1.814 1.09 2.433v3.016c0 1.196 0.984 2.18 2.179 2.18 1.196 0 2.18-0.984 2.18-2.18v-3.018c0.692-0.618 1.088-1.503 1.09-2.431 0-1.793-1.476-3.269-3.27-3.269zm8.719-10.906c0 4.811-3.903 4.356-8.719 4.356-4.815 0-8.718 0.455-8.718-4.356s3.903-8.71 8.718-8.71c4.816 0 8.719 3.899 8.719 8.71z" style="fill-opacity:.86;fill-rule:nonzero;fill:white"/>
 <defs>
  <linearGradient id="_Linear1" x2="1" gradientTransform="matrix(2.64743e-15,-43.2357,43.2357,2.64743e-15,24,46.2134)" gradientUnits="userSpaceOnUse">
   <stop style="stop-color:rgb(56,158,146)" offset="0"/>
   <stop style="stop-color:rgb(76,214,198)" offset="1"/>
  </linearGradient>
 </defs>
</svg>
