
<svg style="clip-rule:evenodd;fill-rule:evenodd;stroke-linejoin:round;stroke-miterlimit:1.41421" version="1.1" viewBox="0 0 48 48" xmlns="http://www.w3.org/2000/svg">
 <g transform="matrix(.939162 0 0 .939162 -377.762 -455.002)">
  <g transform="matrix(1.10062,0,0,1.10381,-22.0722,-69.4714)">
   <rect x="385.65" y="507.78" width="46.303" height="34.939" style="fill:url(#_Linear1)"/>
  </g>
  <g transform="matrix(.114886 0 0 .109312 407.659 498.264)">
   <path d="m133.523 78.097c-0.488-0.489-1.113-0.733-1.873-0.733h-78.215c-0.76 0-1.385 0.244-1.874 0.733-0.488 0.489-0.732 1.113-0.732 1.874v5.215c0 0.76 0.244 1.385 0.732 1.873 0.489 0.488 1.114 0.733 1.874 0.733h78.215c0.76 0 1.385-0.245 1.873-0.733s0.732-1.113 0.732-1.873v-5.215c1e-3 -0.761-0.243-1.385-0.732-1.874z" style="fill-rule:nonzero;fill:rgb(118,224,73)"/>
   <path d="m8.38 1.022c-0.543-0.543-1.168-0.815-1.874-0.815s-1.33 0.272-1.873 0.815l-4.074 4.074c-0.543 0.543-0.814 1.167-0.814 1.874s0.271 1.331 0.814 1.874l32.02 32.019-32.02 32.02c-0.543 0.543-0.814 1.168-0.814 1.873 0 0.707 0.271 1.331 0.814 1.874l4.074 4.073c0.543 0.544 1.167 0.814 1.873 0.814s1.331-0.271 1.874-0.814l37.967-37.966c0.543-0.543 0.814-1.169 0.814-1.875s-0.271-1.331-0.814-1.874l-37.967-37.966z" style="fill-rule:nonzero;fill:rgb(118,224,73)"/>
  </g>
 </g>
 <defs>
  <linearGradient id="_Linear1" x2="1" gradientTransform="matrix(2.20231e-15,-35.9664,35.9664,2.20231e-15,409.854,543.747)" gradientUnits="userSpaceOnUse">
   <stop style="stop-color:rgb(46,52,54)" offset="0"/>
   <stop style="stop-color:rgb(85,87,83)" offset="1"/>
  </linearGradient>
 </defs>
</svg>
