<?xml version="1.0" encoding="UTF-8" standalone="no"?><!DOCTYPE svg PUBLIC "-//W3C//DTD SVG 1.1//EN" "http://www.w3.org/Graphics/SVG/1.1/DTD/svg11.dtd"><svg width="100%" height="100%" viewBox="0 0 48 48" version="1.1" xmlns="http://www.w3.org/2000/svg" xmlns:xlink="http://www.w3.org/1999/xlink" xml:space="preserve" xmlns:serif="http://www.serif.com/" style="fill-rule:evenodd;clip-rule:evenodd;stroke-linejoin:round;stroke-miterlimit:2;"><path d="M47.312,10.595c0,-0.976 -0.388,-1.911 -1.077,-2.601c-0.69,-0.691 -1.627,-1.079 -2.603,-1.079l-39.264,0c-0.976,0 -1.913,0.388 -2.603,1.079c-0.689,0.69 -1.077,1.625 -1.077,2.601l0,27.823c0,0.976 0.388,1.911 1.077,2.602c0.69,0.69 1.627,1.078 2.603,1.078l39.264,0c0.976,0 1.913,-0.388 2.603,-1.078c0.689,-0.691 1.077,-1.626 1.077,-2.602l0,-27.823Z" style="fill-opacity:0.82;"/><path d="M47.312,9.381c0,-1.921 -1.557,-3.479 -3.479,-3.479l-39.666,0c-1.922,0 -3.479,1.558 -3.479,3.479l0,28.225c0,1.921 1.557,3.479 3.479,3.479l39.666,0c1.922,0 3.479,-1.558 3.479,-3.479l0,-28.225Z" style="fill:url(#_Linear1);"/><path d="M19.598,18.628c0.082,0 0.15,0.025 0.202,0.075c0.053,0.05 0.079,0.114 0.079,0.193l0,0.535c0,0.078 -0.026,0.142 -0.079,0.192c-0.052,0.05 -0.12,0.075 -0.202,0.075l-8.439,0c-0.082,0 -0.149,-0.025 -0.202,-0.075c-0.053,-0.05 -0.079,-0.114 -0.079,-0.192l0,-0.535c0,-0.079 0.026,-0.143 0.079,-0.193c0.053,-0.05 0.12,-0.075 0.202,-0.075l8.439,0Zm-13.3,-7.837l4.096,3.897c0.059,0.056 0.088,0.12 0.088,0.193c0,0.072 -0.029,0.136 -0.088,0.192l-4.096,3.898c-0.059,0.055 -0.126,0.083 -0.202,0.083c-0.077,0 -0.144,-0.027 -0.203,-0.083l-0.439,-0.418c-0.059,-0.056 -0.088,-0.12 -0.088,-0.193c0,-0.072 0.029,-0.136 0.088,-0.192l3.455,-3.287l-3.455,-3.287c-0.059,-0.056 -0.088,-0.12 -0.088,-0.193c0,-0.072 0.029,-0.137 0.088,-0.192l0.439,-0.418c0.059,-0.056 0.126,-0.084 0.203,-0.084c0.076,0 0.143,0.028 0.202,0.084Z" style="fill:#76e049;fill-rule:nonzero;"/><defs><linearGradient id="_Linear1" x1="0" y1="0" x2="1" y2="0" gradientUnits="userSpaceOnUse" gradientTransform="matrix(2.21762e-15,-36.2165,36.2165,2.21762e-15,275.714,42.119)"><stop offset="0" style="stop-color:#313738;stop-opacity:1"/><stop offset="1" style="stop-color:#535552;stop-opacity:1"/></linearGradient></defs></svg>