<svg style="clip-rule:evenodd;fill-rule:evenodd;stroke-linejoin:round;stroke-miterlimit:2" version="1.1" viewBox="0 0 64 64" xmlns="http://www.w3.org/2000/svg">
 <path d="m57.2 4c1.545 0 2.8 1.255 2.8 2.8v50.4c0 1.545-1.255 2.8-2.8 2.8h-50.4c-1.545 0-2.8-1.255-2.8-2.8v-50.4c0-1.545 1.255-2.8 2.8-2.8h50.4z" style="fill:url(#_Linear1)"/>
 <path d="m32.001 14c-2.011 0.034-4.21 0.51-5.004 1.387-0.848 0.935-1.03 2.248-0.793 3.703 0.451 2.773 3.364 6.175 5.605 9.234-0.016 0.019-0.031 0.042-0.047 0.062-1.129 1.423-2.996 3.06-4.096 4.164 0.177-0.808 0.307-1.686 0.336-2.246 0.025-0.48 0.01-0.853-0.137-1.156-0.073-0.152-0.205-0.301-0.386-0.359-0.181-0.059-0.37-0.019-0.532 0.058-0.324 0.154-0.632 0.462-1.023 0.957-0.392 0.495-0.85 1.324-1.391 2.234s-0.924 1.639-1.172 2.219c-0.127 0.299-0.222 0.558-0.281 0.785-0.056 0.214-0.084 0.404-0.074 0.578 0.309 0.422 0.812 0.361 1.219 0.387 0.176-2e-3 0.359-0.031 0.562-0.156 0.478-0.293 1.062-0.756 1.688-1.297-0.446 1.494-0.341 1.937-1.053 3.609-9e-3 0.023-0.025 0.047-0.035 0.07-3.753-0.517-7.671-0.188-10.32 0.735-1.39 0.484-2.458 1.562-2.876 2.754-0.417 1.191-0.161 3.305 0.887 5.183 1.049 1.878 2.202 2.74 3.434 3.008 1.232 0.267 2.462-0.083 3.602-1.016 2.172-1.778 4.136-6.502 5.66-9.976 0.025 4e-3 0.049 4e-3 0.074 8e-3 1.795 0.268 3.519 1.762 5.024 2.164-0.788 0.25-1.489 0.507-1.989 0.761-0.427 0.219-0.74 0.42-0.929 0.7-0.095 0.139-0.157 0.325-0.118 0.511 0.04 0.187 0.166 0.328 0.313 0.43 0.295 0.204 0.716 0.322 1.34 0.414s1.446 0.146 2.504 0.16h0.015c1.058-0.014 1.881-0.068 2.504-0.16 0.624-0.092 1.046-0.21 1.34-0.414 0.148-0.102 0.273-0.243 0.313-0.43 0.04-0.186-0.023-0.372-0.117-0.511-0.189-0.28-0.502-0.481-0.93-0.7-0.499-0.254-1.2-0.511-1.988-0.761 1.505-0.402 3.228-1.896 5.023-2.164 0.025-4e-3 0.049-4e-3 0.074-8e-3 1.525 3.474 3.488 8.198 5.661 9.976 1.139 0.933 2.369 1.283 3.602 1.016 1.232-0.268 2.385-1.13 3.433-3.008 1.049-1.878 1.304-3.992 0.887-5.183-0.417-1.192-1.485-2.27-2.875-2.754-2.65-0.923-6.568-1.252-10.321-0.735-0.01-0.023-0.025-0.047-0.035-0.07-0.711-1.672-0.608-2.115-1.054-3.609 0.626 0.541 1.21 1.004 1.688 1.297 0.203 0.125 0.386 0.154 0.562 0.156 0.407-0.026 0.91 0.035 1.219-0.387 0.01-0.174-0.018-0.364-0.074-0.578-0.059-0.227-0.154-0.486-0.281-0.785-0.248-0.58-0.631-1.309-1.172-2.219s-0.999-1.739-1.391-2.234c-0.391-0.495-0.699-0.803-1.023-0.957-0.162-0.077-0.351-0.117-0.532-0.058-0.181 0.058-0.313 0.207-0.386 0.359-0.147 0.303-0.162 0.676-0.137 1.156 0.029 0.56 0.159 1.438 0.336 2.246-1.1-1.104-2.966-2.741-4.095-4.164-0.016-0.02-0.031-0.043-0.047-0.062 2.242-3.059 5.154-6.461 5.606-9.234 0.237-1.455 0.054-2.768-0.793-3.703-0.795-0.877-2.993-1.353-5.004-1.387z" style="fill-rule:nonzero;fill:url(#_Linear2)"/>
 <defs>
  <linearGradient id="_Linear1" x2="1" gradientTransform="matrix(3.42901e-15,-56,56,3.42901e-15,-192,60)" gradientUnits="userSpaceOnUse">
   <stop style="stop-color:#501212" offset="0"/>
   <stop style="stop-color:#940032" offset="1"/>
  </linearGradient>
  <linearGradient id="_Linear2" x2="1" gradientTransform="matrix(.983108 35.6241 -35.6241 .983108 -467.305 27.7972)" gradientUnits="userSpaceOnUse">
   <stop style="stop-color:#7ed794" offset="0"/>
   <stop style="stop-color:#61e0d1" offset="1"/>
  </linearGradient>
 </defs>
</svg>
