<svg style="clip-rule:evenodd;fill-rule:evenodd;stroke-linejoin:round;stroke-miterlimit:2" version="1.1" viewBox="0 0 48 48" xmlns="http://www.w3.org/2000/svg">
 <path d="m45.668 8.56c0-3.438-2.79-6.228-6.228-6.228h-30.88c-3.438 0-6.228 2.79-6.228 6.228v30.88c0 3.438 2.79 6.228 6.228 6.228h30.88c3.438 0 6.228-2.79 6.228-6.228v-30.88z" style="fill:url(#_Linear1)"/>
 <path d="m24.001 10.5c-1.509 0.026-3.158 0.383-3.753 1.04-0.636 0.701-0.773 1.686-0.595 2.778 0.338 2.079 2.523 4.631 4.204 6.925-0.012 0.014-0.024 0.032-0.036 0.047-0.846 1.067-2.247 2.294-3.072 3.122 0.133-0.605 0.231-1.264 0.252-1.684 0.019-0.36 8e-3 -0.64-0.102-0.867-0.055-0.114-0.154-0.226-0.29-0.269-0.136-0.044-0.277-0.014-0.399 0.043-0.243 0.116-0.474 0.347-0.767 0.718-0.294 0.371-0.638 0.993-1.043 1.676-0.406 0.682-0.693 1.229-0.879 1.664-0.096 0.224-0.167 0.418-0.211 0.589-0.042 0.16-0.063 0.303-0.056 0.433 0.232 0.317 0.61 0.271 0.915 0.29 0.132-1e-3 0.269-0.023 0.421-0.117 0.359-0.219 0.797-0.567 1.266-0.972-0.334 1.12-0.256 1.452-0.79 2.706-6e-3 0.018-0.018 0.036-0.026 0.053-2.815-0.388-5.753-0.141-7.74 0.551-1.042 0.363-1.843 1.172-2.157 2.066-0.313 0.893-0.121 2.478 0.665 3.887 0.787 1.408 1.652 2.055 2.576 2.256 0.924 0.2 1.846-0.062 2.701-0.762 1.629-1.334 3.102-4.877 4.245-7.482 0.019 3e-3 0.037 3e-3 0.056 6e-3 1.346 0.201 2.639 1.321 3.768 1.623-0.591 0.187-1.117 0.38-1.492 0.571-0.32 0.164-0.555 0.315-0.697 0.525-0.071 0.104-0.117 0.243-0.088 0.383 0.03 0.14 0.124 0.246 0.235 0.322 0.221 0.153 0.537 0.242 1.005 0.311s1.084 0.109 1.878 0.12h0.011c0.793-0.011 1.411-0.051 1.878-0.12 0.468-0.069 0.784-0.158 1.005-0.311 0.111-0.076 0.205-0.182 0.235-0.322s-0.017-0.279-0.088-0.383c-0.142-0.21-0.376-0.361-0.697-0.525-0.375-0.191-0.9-0.384-1.491-0.571 1.128-0.302 2.421-1.422 3.767-1.623 0.019-3e-3 0.037-3e-3 0.055-6e-3 1.144 2.605 2.616 6.148 4.246 7.482 0.854 0.7 1.777 0.962 2.701 0.762 0.924-0.201 1.789-0.848 2.575-2.256 0.787-1.409 0.978-2.994 0.665-3.887-0.312-0.894-1.113-1.703-2.156-2.066-1.987-0.692-4.926-0.939-7.741-0.551-7e-3 -0.017-0.018-0.035-0.026-0.053-0.533-1.254-0.456-1.586-0.79-2.706 0.469 0.405 0.907 0.753 1.266 0.972 0.152 0.094 0.289 0.116 0.421 0.117 0.305-0.019 0.683 0.027 0.914-0.29 8e-3 -0.13-0.013-0.273-0.055-0.433-0.044-0.171-0.116-0.365-0.211-0.589-0.186-0.435-0.473-0.982-0.879-1.665-0.405-0.682-0.749-1.304-1.043-1.675-0.293-0.371-0.524-0.602-0.767-0.718-0.122-0.058-0.264-0.088-0.399-0.043-0.136 0.043-0.235 0.155-0.29 0.269-0.11 0.227-0.121 0.507-0.103 0.867 0.022 0.42 0.12 1.078 0.252 1.684-0.825-0.827-2.224-2.055-3.071-3.122-0.012-0.015-0.023-0.033-0.035-0.047 1.681-2.294 3.866-4.846 4.205-6.925 0.177-1.092 0.04-2.076-0.595-2.778-0.596-0.657-2.245-1.014-3.753-1.04z" style="fill-rule:nonzero;fill:url(#_Linear2)"/>
 <defs>
  <linearGradient id="_Linear1" x2="1" gradientTransform="matrix(2.65361e-15,-43.3368,43.3368,2.65361e-15,24,45.6684)" gradientUnits="userSpaceOnUse">
   <stop style="stop-color:#501212" offset="0"/>
   <stop style="stop-color:#940032" offset="1"/>
  </linearGradient>
  <linearGradient id="_Linear2" x2="1" gradientTransform="matrix(.737331 26.7181 -26.7181 .737331 -724.532 31.1705)" gradientUnits="userSpaceOnUse">
   <stop style="stop-color:#7ed794" offset="0"/>
   <stop style="stop-color:#61e0d1" offset="1"/>
  </linearGradient>
 </defs>
</svg>
