<svg version="1.1" viewBox="0 0 48 48" xmlns="http://www.w3.org/2000/svg">
 <linearGradient id="b" x1="23.999927" x2="23.999927" y1="47.000108" y2="1.0000616" gradientUnits="userSpaceOnUse">
  <stop stop-color="#2a2c2f" offset="0"/>
  <stop stop-color="#424649" offset="1"/>
 </linearGradient>
 <linearGradient id="c" x1="290.41052" x2="290.05167" y1="648.83472" y2="625.01868" gradientTransform="matrix(0 -1 1 0 -2e-6 47.999998)" gradientUnits="userSpaceOnUse">
  <stop stop-color="#e4e4e4" offset="0"/>
  <stop stop-color="#eee" offset="1"/>
 </linearGradient>
 <rect x=".999998" y="1.000005" width="46" height="46" ry="23" fill="url(#b)"/>
 <g transform="matrix(1.9172392 0 0 1.9172392 -532.98985 -1196.9326)" fill="url(#c)">
  <path d="m295.6934 638.27302h-1.33334v-2h1.33334zm0-3.33333-1.34769 0.0133-0.015-1.29177-9.33052 5e-3v6.66666c0 1.47276 1.19391 2.66667 2.66667 2.66667h4c1.47274 0 2.66666-1.19391 2.66666-2.66667l0.0265-0.72698h1.33334c0.73637 0 1.33333-0.59696 1.33333-1.33333v-2c0-0.74-0.6-1.33333-1.33333-1.33333z"/>
  <path d="m286.60282 630.482s-.1458.10908-.2912.27273c-.14524.16348-.31893.38933-.32139.69986-.002.30445.15695.51985.26266.6772.1057.15735.16404.25422.15944.38182-.009.24106-.36504.47832-.36504.47832l.26769.49007s.63208-.30182.65539-.94825c.0114-.31566-.1435-.54965-.25343-.71329s-.16942-.26-.16867-.36168c.00033-.0661.0767-.21546.18126-.33314.10456-.11769.20811-.19637.20811-.19637z"/>
  <path d="m288.60282 630.482s-.1458.10908-.2912.27273c-.14524.16348-.31893.38933-.32139.69986-.002.30445.15695.51985.26266.6772.1057.15735.16404.25422.15944.38182-.009.24106-.36504.47832-.36504.47832l.26769.49007s.63208-.30182.65539-.94825c.0114-.31566-.1435-.54965-.25343-.71329s-.16942-.26-.16867-.36168c.00033-.0661.0767-.21546.18126-.33314.10456-.11769.20811-.19637.20811-.19637z"/>
  <path d="m290.60282 630.482s-.1458.10908-.2912.27273c-.14524.16348-.31893.38933-.32139.69986-.002.30445.15695.51985.26266.6772.1057.15735.16404.25422.15944.38182-.009.24106-.36504.47832-.36504.47832l.26769.49007s.63208-.30182.65539-.94825c.0114-.31566-.1435-.54965-.25343-.71329s-.16942-.26-.16867-.36168c.00033-.0661.0767-.21546.18126-.33314.10456-.11769.20811-.19637.20811-.19637z"/>
  <path d="m292.60282 630.482s-.1458.10908-.2912.27273c-.14524.16348-.31893.38933-.32139.69986-.002.30445.15695.51985.26266.6772.1057.15735.16404.25422.15944.38182-.009.24106-.36504.47832-.36504.47832l.26769.49007s.63208-.30182.65539-.94825c.0114-.31566-.1435-.54965-.25343-.71329s-.16942-.26-.16867-.36168c.00033-.0661.0767-.21546.18126-.33314.10456-.11769.20811-.19637.20811-.19637z"/>
 </g>
</svg>
