<svg style="clip-rule:evenodd;fill-rule:evenodd;stroke-linejoin:round;stroke-miterlimit:2" version="1.1" viewBox="0 0 48 48" xmlns="http://www.w3.org/2000/svg">
 <path d="m39.44 45.668h-30.88c-3.438 0-6.228-2.79-6.228-6.228v-30.88c0-3.438 2.79-6.228 6.228-6.228h30.88c3.438 0 6.228 2.79 6.228 6.228v30.88c0 3.438-2.79 6.228-6.228 6.228z" style="fill:url(#_Linear1)"/>
 <path d="m45.668 19.65v19.79c0 3.438-2.79 6.228-6.228 6.228h-29.14c1.561-2.741 8.486-4.836 12.381-8.262 0.688-0.605-3.756-7.314-3.27-7.778 1.138-1.085 3.162-3.878 4.589-4.451 2.674-1.074 6.396-0.291 8.828-1.177 7.285-2.654 12.84-4.35 12.84-4.35zm-26.002-17.318s-8.668 2.165-8.668 8.659c0 5.349-6.407 7.761-8.666 8.445v-10.876c0-3.438 2.79-6.228 6.228-6.228h11.106zm19.774 0c3.438 0 6.228 2.79 6.228 6.228v6.02c-1.015 0.485-4.291 0.738-5.416 0.74-4.16 0-7.584-3.42-7.584-7.576 1e-3 -0.028 3e-3 -0.057 4e-3 -0.085-2.009-1.161-3.469-3.082-4.05-5.327h10.818z" style="fill-rule:nonzero;fill:url(#_Linear2)"/>
 <g transform="translate(-2.69954e-5)">
  <path d="m8.243 45.66c0.034-5.507 4.171-9.967 9.263-9.967 2.529 0 4.822 1.1 6.494 2.882l0.024-0.026c0.843-0.886 1.832-1.601 2.917-2.09 0.867-0.391 1.788-0.636 2.723-0.726 1.014-0.098 2.043-0.016 3.032 0.246 0.861 0.228 1.69 0.591 2.455 1.075 1.756 1.109 3.151 2.844 3.921 4.882 0.355 0.942 0.576 1.942 0.653 2.956 0.015 0.192 0.024 0.384 0.029 0.577 1e-3 0.063 3e-3 0.127 3e-3 0.191-0.105 5e-3 -0.211 8e-3 -0.317 8e-3h-5.222c-1e-3 -0.015-1e-3 -0.03-1e-3 -0.044-3e-3 -0.103-9e-3 -0.206-0.018-0.309-0.039-0.414-0.138-0.821-0.292-1.202-0.282-0.699-0.749-1.304-1.332-1.73-0.363-0.266-0.77-0.462-1.196-0.575-0.367-0.097-0.747-0.133-1.124-0.107-0.371 0.026-0.737 0.111-1.084 0.254-0.9 0.371-1.646 1.124-2.054 2.068-0.162 0.376-0.269 0.779-0.318 1.191-0.018 0.151-0.026 0.302-0.029 0.454h-5.54c-0.029-2.199-1.687-3.975-3.724-3.975s-3.695 1.776-3.724 3.975h-5.222c-0.106 0-0.212-3e-3 -0.317-8e-3z" style="fill:rgb(188,38,38)"/>
 </g>
 <g transform="matrix(1.59337,0,0,1.19816,-12.9219,-6.00242)">
  <ellipse cx="18.306" cy="21.41" rx="5.694" ry="8.884" style="fill:white"/>
 </g>
 <g transform="matrix(1.59337,0,0,1.19816,2.58684,-6.00242)">
  <ellipse cx="18.306" cy="21.41" rx="5.694" ry="8.884" style="fill:white"/>
 </g>
 <g transform="matrix(2.41762 0 0 2.4151 -3.13359 .474753)">
  <circle cx="12.5" cy="8.5" r="1.5" style="fill:rgb(49,49,49)"/>
 </g>
 <g transform="matrix(1.58075,0,0,1.5791,1.86955,7.58077)">
  <circle cx="12.5" cy="8.5" r="1.5" style="fill:rgb(49,49,49)"/>
 </g>
 <defs>
  <linearGradient id="_Linear1" x2="1" gradientTransform="matrix(2.06275e-15,-33.6872,33.6872,2.06275e-15,1001.84,40.4502)" gradientUnits="userSpaceOnUse">
   <stop style="stop-color:rgb(191,191,191)" offset="0"/>
   <stop style="stop-color:white" offset="1"/>
  </linearGradient>
  <linearGradient id="_Linear2" x2="1" gradientTransform="matrix(-4.27495e-7 -43.336 43.336 -4.27495e-7 125.06 45.668)" gradientUnits="userSpaceOnUse">
   <stop style="stop-color:rgb(32,32,32)" offset="0"/>
   <stop style="stop-color:rgb(79,79,79)" offset="1"/>
  </linearGradient>
 </defs>
</svg>
