<svg style="clip-rule:evenodd;fill-rule:evenodd;stroke-linejoin:round;stroke-miterlimit:2" version="1.1" viewBox="0 0 48 48" xmlns="http://www.w3.org/2000/svg">
 <path d="m6.399 45.363h19.042l-1e-3 -43.099-18.857-0.059c-3.166 0.058-4.486 1.251-4.569 4.417v34.223c0.012 2.752 2.216 4.518 4.385 4.518z" style="fill:url(#_Linear1)"/>
 <path d="m42.397 45.363l-12.085-0.014v-43.099l12.431-0.045c2.16 0.026 3.24 1.708 3.24 3.729v35.526c0.094 2.219-1.372 3.855-3.586 3.903z" style="fill:url(#_Linear2)"/>
 <path d="m42.838 43.097c-0.04 2.642-1.222 4.026-3.552 4.123l-16.083-1.878v-43.078l16.584-1.555c2.209-0.223 3.174 0.962 3.191 3.337l-0.14 39.051z" style="fill:url(#_Linear3)"/>
 <path d="m36.231 19.486v-7.698c0-0.709-0.575-1.283-1.284-1.283h-7.697c-0.709 0-1.283 0.575-1.283 1.283v3.207c-6.267 0-11.533 4.308-13.03 10.114l-1.334-0.235c-0.24-0.041-0.482 0.055-0.627 0.25-0.144 0.195-0.167 0.456-0.057 0.672l1.39 2.744c-2.436 0.397-4.303 2.511-4.303 5.059 0 2.829 2.302 5.131 5.132 5.131 2.612 0 4.769-1.964 5.087-4.49h4.535v1.283c0 0.243 0.137 0.464 0.354 0.574 0.218 0.108 0.478 0.085 0.673-0.062l2.242-1.682c0.367 2.472 2.497 4.376 5.069 4.376 2.83 1e-3 5.133-2.301 5.133-5.13 0-2.613-1.964-4.77-4.492-5.088v-4.535h1.284c0.242 0 0.465-0.137 0.573-0.354 0.109-0.217 0.087-0.477-0.06-0.672l-1.636-2.181h3.045c0.711 0 1.286-0.575 1.286-1.283zm-7.63 4.135c0.109 0.218 0.331 0.355 0.573 0.355h1.284v4.534c-2.279 0.287-4.092 2.07-4.428 4.333l-2.244-1.683c-0.194-0.146-0.454-0.168-0.671-0.061-0.217 0.11-0.355 0.331-0.355 0.574v1.283h-4.534c-0.291-2.319-2.134-4.16-4.455-4.447 2e-3 -0.014 9e-3 -0.027 9e-3 -0.043v-6e-3l1.941-1.818c0.177-0.166 0.245-0.418 0.177-0.651-0.07-0.234-0.264-0.407-0.504-0.449l-1.191-0.21c1.389-5.204 6.129-9.054 11.765-9.054v3.208c0 0.708 0.574 1.282 1.283 1.282h3.046l-1.636 2.181c-0.146 0.195-0.169 0.455-0.06 0.672z" style="fill-rule:nonzero;fill:url(#_Linear4)"/>
 <defs>
  <linearGradient id="_Linear1" x2="1" gradientTransform="matrix(2.58389e-15,-42.2364,42.1981,2.58624e-15,14.5646,44.3387)" gradientUnits="userSpaceOnUse">
   <stop style="stop-color:#ba354a" offset="0"/>
   <stop style="stop-color:#ff698e" offset="1"/>
  </linearGradient>
  <linearGradient id="_Linear2" x2="1" gradientTransform="matrix(.79491 41.4949 -41.4949 .79491 44.2716 4.33297)" gradientUnits="userSpaceOnUse">
   <stop style="stop-color:#f6fbff" offset="0"/>
   <stop style="stop-color:#eaeff2" offset="1"/>
  </linearGradient>
  <linearGradient id="_Linear3" x2="1" gradientTransform="matrix(2.80034e-15,-45.4796,45.733,2.78482e-15,33.5323,45.9233)" gradientUnits="userSpaceOnUse">
   <stop style="stop-color:#c4253e" offset="0"/>
   <stop style="stop-color:#ff4967" offset="1"/>
  </linearGradient>
  <linearGradient id="_Linear4" x2="1" gradientTransform="matrix(.603979 -36.0342 36.0342 .603979 23.1258 45.51)" gradientUnits="userSpaceOnUse">
   <stop style="stop-color:#e5e5e6" offset="0"/>
   <stop style="stop-color:#f6f6f7" offset="1"/>
  </linearGradient>
 </defs>
</svg>
