<svg style="clip-rule:evenodd;fill-rule:evenodd;stroke-linejoin:round;stroke-miterlimit:2" version="1.1" viewBox="0 0 48 48" xmlns="http://www.w3.org/2000/svg">
 <circle cx="24" cy="24" r="22.764" style="fill:url(#_Linear1)"/>
 <path d="m27.409 29.631l-3.731-2.188c-0.204 0.025-0.407 0.065-0.61 0.123-0.974 0.28-2.383 1.081-3.564 3.314-0.938 1.773-0.592 3.29-0.286 4.629 0.291 1.28 0.522 2.291-0.335 3.303-0.085 0.099-0.108 0.236-0.06 0.358 0.029 0.076 0.084 0.139 0.152 0.178 0.041 0.024 0.086 0.039 0.134 0.046 2.168 0.272 5.414-1.007 7.415-4.458 0.909-1.568 1.3-3.075 1.13-4.359-0.045-0.335-0.128-0.651-0.245-0.946z" style="fill-opacity:.85;fill-rule:nonzero;fill:#fff"/>
 <path d="m36.139 10.218c-0.748-0.434-1.705-0.215-2.191 0.501-0.305 0.45-7.485 11.04-8.409 12.634-0.463 0.797-0.984 2.091-1.417 3.274l3.731 2.188c0.813-0.964 1.681-2.064 2.15-2.872 0.935-1.613 6.551-13.087 6.79-13.575 0.38-0.777 0.095-1.716-0.654-2.15z" style="fill-opacity:.85;fill-rule:nonzero;fill:#fff"/>
 <path d="m18.219 33.647c-0.319-0.106-0.631-0.169-0.946-0.188-0.053-4e-3 -0.11-5e-3 -0.17-5e-3 -0.475 0-1.072 0.104-1.649 0.204-0.515 0.09-1.001 0.175-1.34 0.175-0.238 0-0.321-0.044-0.347-0.067-0.288-0.361 0.128-1.343 0.306-1.764 0.046-0.108 0.082-0.192 0.103-0.253 0.289-0.851 0.501-1.757 0.101-2.616-0.333-0.715-1.111-1.284-1.976-1.448-0.252-0.06-0.541-0.088-0.91-0.088-0.304 0-0.629 0.02-0.943 0.038-0.323 0.02-0.656 0.039-0.975 0.039-1.099 0-1.731-0.25-2.113-0.835-0.71-1.127 0.143-3.145 1.018-3.985 0.054-0.052 0.058-0.137 0.01-0.194s-0.131-0.068-0.192-0.024c-1.121 0.812-1.863 2.287-1.804 3.587 0.031 0.694 0.298 1.657 1.393 2.309 0.589 0.35 1.542 0.424 2.464 0.496 0.906 0.07 1.844 0.143 2.133 0.495 0.075 0.093 0.104 0.204 0.087 0.345-0.063 0.645-0.376 1.28-0.678 1.894-0.572 1.159-1.162 2.358-0.141 3.688 0.897 1.168 2.088 1.168 3.311 1.16 0.1-1e-3 0.2-1e-3 0.301-1e-3 0.533 0 1.15 0.016 1.709 0.211 0.398 0.154 0.598 0.473 0.691 1.105 0.072 0.388 0.244 0.694 0.473 0.924 0.033-0.179 0.112-0.349 0.234-0.492 0.6-0.71 0.483-1.372 0.183-2.686-0.14-0.61-0.294-1.286-0.333-2.024z" style="fill-opacity:.85;fill-rule:nonzero;fill:#fff"/>
 <defs>
  <linearGradient id="_Linear1" x2="1" gradientTransform="matrix(2.78782e-15,-45.5286,45.5286,2.78782e-15,210.895,46.7643)" gradientUnits="userSpaceOnUse">
   <stop style="stop-color:#873dfb" offset="0"/>
   <stop style="stop-color:#e35bda" offset="1"/>
  </linearGradient>
 </defs>
</svg>
