<svg style="clip-rule:evenodd;fill-rule:evenodd;stroke-linejoin:round;stroke-miterlimit:2" version="1.1" viewBox="0 0 64 64" xmlns="http://www.w3.org/2000/svg">
 <path d="m57.2 4c1.545 0 2.8 1.255 2.8 2.8v50.4c0 1.545-1.255 2.8-2.8 2.8h-50.4c-1.545 0-2.8-1.255-2.8-2.8v-50.4c0-1.545 1.255-2.8 2.8-2.8h50.4z" style="fill:#62602d"/>
 <rect x="38" y="7" width="16" height="22" style="fill-opacity:.2"/>
 <path d="m60 57.2v-25.2h-56v25.2c0 1.551 1.249 2.8 2.8 2.8h50.4c1.551 0 2.8-1.249 2.8-2.8z" style="fill-opacity:.2;fill-rule:nonzero"/>
 <circle cx="18" cy="18" r="8" style="fill:#bbb"/>
 <path d="m50 13v4h-12v-4h12zm-4-6v4h-8v-4h8z" style="fill:#f2af0d"/>
 <path d="m52 25v4h-14v-4h14zm-8-6v4h-6v-4h6z" style="fill:#c333cc"/>
 <rect x="4" y="32" width="56" height="1" style="fill-opacity:.2"/>
 <rect x="38" y="35" width="16" height="22" style="fill-opacity:.2"/>
 <circle cx="18" cy="46" r="8" style="fill:#bbb"/>
 <path d="m50 41v4h-12v-4h12zm-4-6v4h-8v-4h8z" style="fill:#f2af0d"/>
 <path d="m52 53v4h-14v-4h14zm-8-6v4h-6v-4h6z" style="fill:#c333cc"/>
</svg>
