<svg clip-rule="evenodd" fill-rule="evenodd" stroke-linejoin="round" stroke-miterlimit="2" viewBox="0 0 48 48" xmlns="http://www.w3.org/2000/svg">
 <linearGradient id="a" x2="1" gradientTransform="matrix(0 -39.9987 39.9987 0 23 43.9983)" gradientUnits="userSpaceOnUse">
  <stop stop-color="#d3d3d3" offset="0"/>
  <stop stop-color="#f5f5f5" offset="1"/>
 </linearGradient>
 <g fill-rule="nonzero">
  <path transform="matrix(1.12106 0 0 1.12106 -2.96661 -2.90528)" d="m17.033 4.004c-1.415.033-2.582.226-3.703.609-.7.24-1.456.591-1.791.834-.246.179-.449.586-.449.901 0 .165.078.438.168.586.037.06.259.325.494.586.235.26.514.573.619.695 1.947 2.248 2.524 4.366 2.629 6.988-.134 1.357-.665 2.704-1.738 3.957-2.254 2.919-2.997 4.13-3.705 6.033-.28.752-.433 1.39-.524 2.166-.044.379-.043 1.687.002 2.319.141 1.97.517 3.759 1.17 5.554.073.2.18.498.238.661.593 1.651 1.922 3.9 3.243 5.49.317.382 1.213 1.3 1.677 1.719.557.502 1.147.82 1.641.88v-.002c.111.014 2.9.022 6.195.018l5.99-.006.223-.066c.482-.146 1.105-.535 1.598-.998.127-.119.436-.445.687-.723 1.634-1.806 3.899-4.463 4.782-6.672.824-2.062 1.207-3.466 1.421-5.217.253-2.061.139-3.451-.4-4.837-.419-.969-1.51-1.994-1.529-3.114 0-.441.011-.599.058-.773.126-.465.552-.89.879-1.283.08-.096.467-.501.86-.901.934-.951 1.234-1.34 1.595-2.064.291-.584.503-1.277.602-1.973.062-.437.062-1.268-.002-1.713-.366-2.546-2.217-4.834-4.654-5.451-.688-.174-1.297-.183-3.399-.209-2.892-.038-6.139-.382-8.885-2.129-1.735-.925-2.338-1.205-3.162-1.473-.996-.323-1.684-.419-2.83-.392zm15.246 7.996c.735.001 1.09.012 1.256.039.871.144 1.607.624 2.055 1.342.409.656.516 1.426.301 2.148-.174.58-.364.838-1.225 1.651-.88.831-1.189 1.174-1.498 1.66-.056.088-.118.16-.139.16-.02 0-.094-.072-.164-.16l-.279-.354c-.739-.935-1.294-1.785-1.469-2.25-.07-.187-.085-.29-.105-.654-.052-.953.093-3.317.217-3.535.025-.045.105-.048 1.05-.047z" fill="url(#a)"/>
  <path d="m22.214 28.474c.691-2.988 1.566-6.356 2.226-7.5 1.278-2.214 4.318-2.852 5.321-2.273 1.002.578 1.97 3.53.692 5.744-.661 1.144-3.14 3.585-5.383 5.678 2.988.691 6.357 1.565 7.5 2.226 2.214 1.278 2.852 4.318 2.273 5.32-.578 1.002-3.53 1.971-5.744.692-1.144-.66-3.585-3.14-5.678-5.382-.691 2.988-1.565 6.356-2.226 7.5-1.278 2.214-4.318 2.852-5.32 2.273s-1.97-3.53-.692-5.744c.66-1.144 3.14-3.586 5.382-5.678-2.988-.691-6.356-1.565-7.5-2.226-2.214-1.278-2.851-4.318-2.273-5.321.579-1.002 3.531-1.97 5.744-.692 1.144.661 3.586 3.141 5.678 5.383z" fill="#4670c8"/>
  <path d="m20.798 29.56c-1.624-2.601-3.388-5.601-3.729-6.877-.662-2.469 1.037-5.07 2.155-5.369 1.117-.3 3.889 1.103 4.551 3.572.342 1.276.315 4.756.209 7.821 2.601-1.625 5.601-3.388 6.877-3.73 2.469-.661 5.07 1.038 5.369 2.155.3 1.118-1.103 3.89-3.572 4.552-1.276.342-4.756.314-7.821.208 1.625 2.602 3.388 5.602 3.73 6.878.661 2.469-1.038 5.07-2.155 5.369-1.118.3-3.89-1.103-4.552-3.572-.341-1.276-.314-4.756-.208-7.821-2.602 1.624-5.602 3.388-6.878 3.73-2.469.661-5.07-1.038-5.369-2.156-.3-1.117 1.103-3.889 3.572-4.551 1.276-.342 4.756-.315 7.821-.209z" fill="#4ab6e7"/>
 </g>
 <circle transform="matrix(.970863 .560528 -.560528 .970863 -2.96661 -2.90528)" cx="34.919" cy="14.481" r="4" fill="#ffb22e"/>
</svg>
