<svg style="clip-rule:evenodd;fill-rule:evenodd;stroke-linejoin:round;stroke-miterlimit:2" version="1.1" viewBox="0 0 48 48" xmlns="http://www.w3.org/2000/svg">
 <path d="m45.668 8.56c0-3.438-2.79-6.228-6.228-6.228h-30.88c-3.438 0-6.228 2.79-6.228 6.228v30.88c0 3.438 2.79 6.228 6.228 6.228h30.88c3.438 0 6.228-2.79 6.228-6.228v-30.88z" style="fill:url(#_Linear1)"/>
 <path d="m23.972 9.697l-6.412 12.678 0.027 7.113c1e-3 0.296-0.206 0.535-0.462 0.536l-0.922 3e-3c-0.256 1e-3 -0.462-0.236-0.463-0.532l-0.013-3.497-3.666 7.248 7.196-0.028 0.011 3.032c1e-3 0.222 0.24 0.4 0.536 0.398l3.207-0.012c0.296-1e-3 0.533-0.18 0.532-0.402l-0.011-3.032 1.326-2e-3 0.011 3.031c1e-3 0.222 0.24 0.4 0.536 0.399l3.205-0.012c0.296-1e-3 0.571-0.184 0.532-0.403l-0.011-3.031 6.93-0.028-3.719-7.217 0.013 3.493c1e-3 0.296-0.203 0.535-0.459 0.536l-0.924 4e-3c-0.256 1e-3 -0.462-0.237-0.463-0.533l-0.027-7.109-6.51-12.633zm6.51 12.633l1.86 3.609-0.031-8.205c-1e-3 -0.296-0.207-0.534-0.463-0.533l-0.924 4e-3c-0.256 1e-3 -0.461 0.24-0.459 0.536 5e-3 1.548 0.011 3.041 0.017 4.589zm-14.755 3.668l1.833-3.623-0.017-4.641c-1e-3 -0.296-0.21-0.534-0.466-0.533l-0.922 4e-3c-0.256 1e-3 -0.46 0.24-0.459 0.536l0.031 8.257zm8.281-6.686c1.534-6e-3 2.773 1.049 2.778 2.36l0.023 5.943c5e-3 1.311-1.226 2.375-2.76 2.381-1.534 5e-3 -2.773-1.05-2.778-2.36l-0.023-5.943c-5e-3 -1.311 1.226-2.375 2.76-2.381zm4e-3 1.071c-1.022 4e-3 -1.841 0.851-1.837 1.899l0.018 4.762c4e-3 1.048 0.83 1.889 1.852 1.885h2e-3c1.022-4e-3 1.841-0.851 1.837-1.899l-0.018-4.762c-4e-3 -1.048-0.83-1.889-1.852-1.885h-2e-3z" style="fill-rule:nonzero;fill:url(#_Linear2)"/>
 <defs>
  <linearGradient id="_Linear1" x2="1" gradientTransform="matrix(2.65365e-15,-43.3373,43.3373,2.65365e-15,201.9,45.6687)" gradientUnits="userSpaceOnUse">
   <stop style="stop-color:#5d2ea4" offset="0"/>
   <stop style="stop-color:#9653fb" offset="1"/>
  </linearGradient>
  <linearGradient id="_Linear2" x2="1" gradientTransform="matrix(-.0233383 -26.6324 26.6324 -.0233383 24.2406 36.4039)" gradientUnits="userSpaceOnUse">
   <stop style="stop-color:#aaa" offset="0"/>
   <stop style="stop-color:#c8c8c8" offset="1"/>
  </linearGradient>
 </defs>
</svg>
