<svg style="clip-rule:evenodd;fill-rule:evenodd;stroke-linejoin:round;stroke-miterlimit:2" version="1.1" viewBox="0 0 48 48" xmlns="http://www.w3.org/2000/svg">
 <path d="m45.668 8.56c0-3.438-2.79-6.228-6.228-6.228h-30.88c-3.438 0-6.228 2.79-6.228 6.228v30.88c0 3.438 2.79 6.228 6.228 6.228h30.88c3.438 0 6.228-2.79 6.228-6.228v-30.88z" style="fill:url(#_Linear1)"/>
 <ellipse cx="15.918" cy="15.751" rx="3.116" ry="3.116" style="fill:url(#_Linear2)"/>
 <ellipse cx="24.27" cy="15.751" rx="3.116" ry="3.116" style="fill:url(#_Linear2)"/>
 <ellipse cx="32.372" cy="15.751" rx="3.116" ry="3.116" style="fill:url(#_Linear2)"/>
 <ellipse cx="15.918" cy="24.351" rx="3.116" ry="3.116" style="fill:url(#_Linear2)"/>
 <ellipse cx="15.918" cy="32.578" rx="3.116" ry="3.116" style="fill:url(#_Linear2)"/>
 <ellipse cx="32.372" cy="24.102" rx="3.116" ry="3.116" style="fill:url(#_Linear2)"/>
 <ellipse cx="32.372" cy="32.329" rx="3.116" ry="3.116" style="fill:url(#_Linear2)"/>
 <ellipse cx="24.27" cy="32.578" rx="3.116" ry="3.116" style="fill:url(#_Linear2)"/>
 <ellipse cx="24.27" cy="24.227" rx="3.116" ry="3.116" style="fill:url(#_Linear2)"/>
 <defs>
  <linearGradient id="_Linear1" x2="1" gradientTransform="matrix(2.65365e-15,-43.3373,43.3373,2.65365e-15,201.9,45.6687)" gradientUnits="userSpaceOnUse">
   <stop style="stop-color:#d2d2d2" offset="0"/>
   <stop style="stop-color:#ececec" offset="1"/>
  </linearGradient>
  <linearGradient id="_Linear2" x2="1" gradientTransform="matrix(-.689822 -43.3884 43.3884 -.689822 24.6136 45.1333)" gradientUnits="userSpaceOnUse">
   <stop style="stop-color:#3889e9" offset="0"/>
   <stop style="stop-color:#5ea5fb" offset="1"/>
  </linearGradient>
 </defs>
</svg>
