<svg width="48" height="48" xmlns="http://www.w3.org/2000/svg">
 <path d="m6 45c-1.108 0-2-.892-2-2v-1c0 1.108.892 2 2 2h36c1.108 0 2-.892 2-2v1c0 1.108-.892 2-2 2z" opacity=".2"/>
 <rect x="4" y="4" width="40" height="40" rx="2" fill="#c2352a"/>
 <path d="m6 4c-1.108 0-2 .892-2 2v1c0-1.108.892-2 2-2h36c1.108 0 2 .892 2 2v-1c0-1.108-.892-2-2-2z" fill="#fff" opacity=".1"/>
 <path d="m24.175 16.001c-3.0379 0-7.5204.18399-8.8639.22699-1.4605.12899-1.9993.20299-2.796.87495-1.2266 1.0659-1.5155 3.1598-1.5155 6.3666v3.0508c0 3.6558.49183 5.5157 1.3125 6.1946.93767.79295 1.5585.85495 2.1792.94894.24192.035 1.9603.33598 9.5706.33598 4.7443 0 8.8209-.22299 9.2428-.27298.67976-.08599 1.6444-.20699 2.3902-1.0119 1.0896-1.2189 1.3045-3.2418 1.3045-6.1756v-3.5508c0-1.8979-.10496-4.5777-1.3045-5.7027-.90968-.75796-1.2416-.96894-3.1199-1.0629-.53081-.023-5.1622-.22299-8.3991-.22299m-3.1764 4.9997 6.9999 3.9998-6.9999 4.0005" opacity=".2"/>
 <path d="m24.175 15.001c-3.0379 0-7.5204.18399-8.8639.22699-1.4605.12899-1.9993.20299-2.796.87495-1.2266 1.0659-1.5155 3.1598-1.5155 6.3666v3.0508c0 3.6558.49183 5.5157 1.3125 6.1946.93767.79295 1.5585.85495 2.1792.94894.24192.035 1.9603.33598 9.5706.33598 4.7443 0 8.8209-.22299 9.2428-.27298.67976-.08599 1.6444-.20699 2.3902-1.0119 1.0896-1.2189 1.3045-3.2418 1.3045-6.1756v-3.5508c0-1.8979-.10496-4.5777-1.3045-5.7027-.90968-.75795-1.2416-.96894-3.1199-1.0629-.53081-.023-5.1622-.22299-8.3991-.22299m-3.1764 4.9997 6.9999 3.9998-6.9999 4.0005" fill="#f9f9f9"/>
 <circle cx="36" cy="37" r="11" opacity=".2"/>
 <circle cx="36" cy="36" r="11" fill="#03a9f4"/>
 <path d="m38 30 5 5h-2l-3 3c2 2 0 3 0 3l-2.5-2.5-3.5 3.5h-1v-1l3.5-3.5-2.5-2.5s1-2 3 0l3-3z" fill="#fff"/>
</svg>
