<svg style="clip-rule:evenodd;fill-rule:evenodd;stroke-linejoin:round;stroke-miterlimit:2" version="1.1" viewBox="0 0 48 48" xmlns="http://www.w3.org/2000/svg">
 <path d="m47.312 10.595c0-0.976-0.388-1.911-1.077-2.601-0.69-0.691-1.627-1.079-2.603-1.079h-39.264c-0.976 0-1.913 0.388-2.603 1.079-0.689 0.69-1.077 1.625-1.077 2.601v27.823c0 0.976 0.388 1.911 1.077 2.602 0.69 0.69 1.627 1.078 2.603 1.078h39.264c0.976 0 1.913-0.388 2.603-1.078 0.689-0.691 1.077-1.626 1.077-2.602v-27.823z" style="fill-opacity:.7"/>
 <path d="m47.312 9.381c0-1.921-1.557-3.479-3.479-3.479h-39.666c-1.922 0-3.479 1.558-3.479 3.479v28.225c0 1.921 1.557 3.479 3.479 3.479h39.666c1.922 0 3.479-1.558 3.479-3.479v-28.225z" style="fill:url(#_Linear1)"/>
 <path d="m19.503 20.965c-0.053-0.05-0.121-0.075-0.203-0.075h-8.439c-0.082 0-0.149 0.025-0.202 0.075-0.053 0.051-0.079 0.115-0.079 0.193v0.535c0 0.078 0.026 0.142 0.079 0.193 0.053 0.05 0.12 0.075 0.202 0.075h8.439c0.082 0 0.15-0.025 0.203-0.075 0.052-0.051 0.079-0.115 0.079-0.193v-0.535c0-0.078-0.027-0.142-0.079-0.193z" style="fill-rule:nonzero;fill:#fff"/>
 <path d="m6 13.053c-0.059-0.056-0.126-0.084-0.202-0.084s-0.144 0.028-0.202 0.084l-0.44 0.418c-0.058 0.056-0.088 0.12-0.088 0.192 0 0.073 0.03 0.137 0.088 0.193l3.455 3.287-3.455 3.287c-0.058 0.056-0.088 0.12-0.088 0.192 0 0.073 0.03 0.137 0.088 0.193l0.44 0.418c0.058 0.056 0.126 0.084 0.202 0.084s0.143-0.028 0.202-0.084l4.097-3.898c0.058-0.055 0.087-0.12 0.087-0.192 0-0.073-0.029-0.137-0.087-0.193l-4.097-3.897z" style="fill-rule:nonzero;fill:#fff"/>
 <path d="m32.147 32.4c-1.002 1.336-1.602 3.019-1.602 4.825 0 4.432 3.568 7.975 8 7.975l2.8-5.735-5.2-1.065-3.998-6z" style="fill:url(#_Linear2)"/>
 <path d="m38.945 33.6l2.4 5.84-2.8 5.76c4.432 0 8-3.568 8-8 0-1.298-0.312-2.518-0.857-3.6h-6.743z" style="fill:url(#_Linear3)"/>
 <path d="m38.544 29.2c-2.626 0-4.942 1.259-6.399 3.202l3.999 5.998 5.2 1.04-2.4-5.84h6.743c-1.314-2.612-4.009-4.4-7.143-4.4z" style="fill:url(#_Linear4)"/>
 <path d="m38.561 33.579c2.053 0 3.705 1.652 3.705 3.704 0 2.053-1.652 3.705-3.705 3.705-2.052 0-3.705-1.652-3.705-3.705 0-2.052 1.653-3.704 3.705-3.704z" style="fill-rule:nonzero;fill:url(#_Linear5)"/>
 <path d="m38.561 34.421c1.586 0 2.863 1.276 2.863 2.862s-1.277 2.863-2.863 2.863-2.863-1.277-2.863-2.863 1.277-2.862 2.863-2.862z" style="fill-rule:nonzero;fill:url(#_Linear6)"/>
 <defs>
  <linearGradient id="_Linear1" x2="1" gradientTransform="matrix(2.21762e-15,-36.2165,36.2165,2.21762e-15,275.714,42.119)" gradientUnits="userSpaceOnUse">
   <stop style="stop-color:#313738" offset="0"/>
   <stop style="stop-color:#535552" offset="1"/>
  </linearGradient>
  <linearGradient id="_Linear2" x2="1" gradientTransform="matrix(-.03334 -10.7989 10.7989 -.03334 33.7787 43.999)" gradientUnits="userSpaceOnUse">
   <stop style="stop-color:#0f9d58" offset="0"/>
   <stop style="stop-color:#00d455" offset="1"/>
  </linearGradient>
  <linearGradient id="_Linear3" x2="1" gradientTransform="matrix(7.10296e-16,-11.6,11.6,7.10296e-16,43.3454,45.2001)" gradientUnits="userSpaceOnUse">
   <stop style="stop-color:#ffcd40" offset="0"/>
   <stop style="stop-color:#fee145" offset="1"/>
  </linearGradient>
  <linearGradient id="_Linear4" x2="1" gradientTransform="matrix(3.91887e-16,-6.4,6.4,3.91887e-16,38.1454,35.6001)" gradientUnits="userSpaceOnUse">
   <stop style="stop-color:#db4437" offset="0"/>
   <stop style="stop-color:#fd5757" offset="1"/>
  </linearGradient>
  <linearGradient id="_Linear5" x2="1" gradientTransform="matrix(4.28508e-16,-6.99807,6.99807,4.28508e-16,38.5613,40.5766)" gradientUnits="userSpaceOnUse">
   <stop style="stop-color:#f2f6f7" offset="0"/>
   <stop style="stop-color:#ecf0f1" offset="1"/>
  </linearGradient>
  <linearGradient id="_Linear6" x2="1" gradientTransform="matrix(3.50598e-16,-5.7257,5.7257,3.50598e-16,38.5614,40.1463)" gradientUnits="userSpaceOnUse">
   <stop style="stop-color:#2566d3" offset="0"/>
   <stop style="stop-color:#429aff" offset="1"/>
  </linearGradient>
 </defs>
</svg>
