<svg width="48" height="48" xmlns="http://www.w3.org/2000/svg">
 <rect x="4" y="5" width="40" height="40" rx="20" opacity=".2"/>
 <rect x="4" y="4" width="40" height="40" rx="20" fill="#2071c5"/>
 <path d="m23.5 10a1.5 1.5 0 0 0 -.306641.0332c-7.907673.420745-14.193359 6.95425-14.193359 14.9668 0 8.284271 6.715729 15 15 15 8.009812 0 14.542017-6.281684 14.966797-14.185547a1.5 1.5 0 0 0 .033203-.314453 1.5 1.5 0 0 0 -1.5-1.5 1.5 1.5 0 0 0 -1.498047 1.46875c-.0012.0044-.01153.005-.01172.0098-.250802 6.405918-5.522814 11.52145-11.990233 11.52145-6.627417 0-12-5.372583-12-12 0-6.463024 5.10992-11.732783 11.509766-11.990234.0037-.000147.0062-.0089.0098-.0098a1.5 1.5 0 0 0 1.480434-1.499966 1.5 1.5 0 0 0 -1.5-1.5zm0 6a1.5 1.5 0 0 0 -.400391.05469c-.000645.000064-.0013-.000065-.002 0-4.545198.454202-8.097609 4.280456-8.097609 8.94531 0 4.970563 4.029437 9 9 9 4.667117 0 8.494171-3.5551 8.945312-8.103516a1.5 1.5 0 0 0 .054688-.396484 1.5 1.5 0 0 0 -1.5-1.5 1.5 1.5 0 0 0 -1.496094 1.425781c-.0056.0115-.02051.02029-.02148.0332-.234431 3.099285-2.823133 5.541019-5.982426 5.541019-3.313708 0-6-2.686292-6-6 0-3.179334 2.472344-5.780548 5.599609-5.986328.0096-.00063.01506-.01503.02344-.01953a1.5 1.5 0 0 0 1.376951-1.494142 1.5 1.5 0 0 0 -1.5-1.5zm.5 6a3 3 0 0 0 -3 3 3 3 0 0 0 3 3 3 3 0 0 0 3-3 3 3 0 0 0 -3-3z" opacity=".2"/>
 <g fill="#fff">
  <path d="m23.5 9a1.5 1.5 0 0 0 -.306641.0332031c-7.907673.4207421-14.193359 6.9542469-14.193359 14.9667969 0 8.284271 6.715729 15 15 15 8.009812 0 14.542017-6.281684 14.966797-14.185547a1.5 1.5 0 0 0 .033203-.314453 1.5 1.5 0 0 0 -1.5-1.5 1.5 1.5 0 0 0 -1.498047 1.46875c-.001177.004371-.011533.005019-.011719.009766-.250803 6.405952-5.522815 11.521484-11.990234 11.521484-6.627417 0-12-5.372583-12-12 0-6.463024 5.10992-11.732783 11.509766-11.990234.00368-.000147.006226-.008912.009765-.009766a1.5 1.5 0 0 0 1.480469-1.5 1.5 1.5 0 0 0 -1.5-1.5zm0 6a1.5 1.5 0 0 0 -.400391.054688c-.000645.000064-.001307-.000065-.001953 0-4.545245.454204-8.097656 4.280458-8.097656 8.945312 0 4.970563 4.029437 9 9 9 4.667117 0 8.494171-3.5551 8.945312-8.103516a1.5 1.5 0 0 0 .054688-.396484 1.5 1.5 0 0 0 -1.5-1.5 1.5 1.5 0 0 0 -1.496094 1.425781c-.005633.011498-.020507.020286-.021484.033203-.234427 3.099282-2.823129 5.541016-5.982422 5.541016-3.313708 0-6-2.686292-6-6 0-3.179334 2.472344-5.780548 5.599609-5.986328.009575-.00063.015057-.015027.023438-.019531a1.5 1.5 0 0 0 1.376953-1.494141 1.5 1.5 0 0 0 -1.5-1.5zm.5 6a3 3 0 0 0 -3 3 3 3 0 0 0 3 3 3 3 0 0 0 3-3 3 3 0 0 0 -3-3z"/>
  <path d="m24 4c-11.08 0-20 8.92-20 20 0 .167874.007647.333141.0117188.5.2646716-10.846137 9.0761552-19.5 19.9882812-19.5s19.72361 8.653863 19.988281 19.5c.004072-.166859.011719-.332126.011719-.5 0-11.08-8.92-20-20-20z" opacity=".1"/>
 </g>
</svg>
