<svg style="clip-rule:evenodd;fill-rule:evenodd;stroke-linejoin:round;stroke-miterlimit:2" version="1.1" viewBox="0 0 48 48" xmlns="http://www.w3.org/2000/svg">
 <rect x="4.8" y="5.871" width="38.4" height="36.261" style="fill:url(#_Linear1)"/>
 <path d="m11.683 36.207c0.979-1.328 1.28-1.798 1.713-2.672 0.914-1.845 1.221-3.17 1.222-5.273 1e-3 -1.703-0.129-2.53-0.615-3.92-0.152-0.437-0.302-0.867-0.332-0.957-0.033-0.098-8e-3 -0.163 0.062-0.163 0.147 0 4.704 2.386 4.976 2.606 0.184 0.149 0.204 0.273 0.245 1.554 0.039 1.231-0.042 2.544-0.228 3.708-0.108 0.672 0.136 0.296 0.431-0.663 0.533-1.734 0.614-2.321 0.61-4.405-5e-3 -2.159-0.14-3.014-0.75-4.761-0.183-0.525-0.31-0.977-0.281-1.005 0.028-0.028 1.289 0.771 2.802 1.776l2.751 1.828 0.064 0.427c0.113 0.752 0.062 3.607-0.08 4.535-0.076 0.487-0.163 1.075-0.194 1.306l-0.056 0.42 0.226-0.42c0.306-0.567 0.694-1.717 0.91-2.694 0.692-3.142 0.325-6.409-1.055-9.368-0.21-0.451-0.36-0.842-0.334-0.868 0.111-0.111 4.082 2.879 6.769 5.096 1.869 1.542 4.542 4.193 5.131 5.09 0.696 1.058 0.863 2.018 0.581 3.344-0.15 0.705-0.725 2.014-0.99 2.253-0.155 0.141-0.176 0.132-0.309-0.124-0.639-1.232-2.971-1.873-5.864-1.613-4.051 0.366-8.967 1.764-15.623 4.444-0.947 0.382-1.764 0.694-1.816 0.694s-0.037-0.079 0.034-0.175zm5.653-12.369c-0.618-0.159-1.176-0.324-1.24-0.365-0.067-0.043-0.117-0.267-0.117-0.52 0-0.633-0.227-1.328-0.762-2.332-0.256-0.481-0.446-0.893-0.423-0.916s0.705 0.328 1.516 0.781l1.475 0.822 0.209 0.585c0.395 1.103 0.645 2.075 0.554 2.156-0.049 0.044-0.585-0.049-1.212-0.211zm14.795-1.886c-0.594-1.21-2.363-2.514-4.682-3.45l-0.749-0.302-0.059-0.686c-0.091-1.047-0.48-2.372-1.161-3.953-0.188-0.435-0.326-0.836-0.308-0.89 0.092-0.276 3.459 2.247 4.857 3.64 1.861 1.855 2.707 3.393 2.71 4.93 1e-3 0.504-0.183 1.234-0.311 1.234-0.022 0-0.156-0.235-0.297-0.523zm-9.691-0.637l-1.263-0.491-0.113-0.79c-0.126-0.877-0.45-1.852-0.935-2.817-0.177-0.351-0.309-0.676-0.293-0.723 0.016-0.048 0.749 0.393 1.629 0.978l1.601 1.065 0.201 0.546c0.274 0.74 0.759 2.62 0.693 2.685-0.09 0.09-0.215 0.053-1.52-0.453z" style="fill-rule:nonzero;fill:#fff"/>
 <path d="m16.777 7.147h-14.284c0.641-2.758 3.115-4.815 6.067-4.815h8.217v4.815z" style="fill-rule:nonzero;fill:#bc271c"/>
 <rect x="16.777" y="2.332" width="14.445" height="4.815" style="fill:#9c27b0"/>
 <path d="m39.44 2.332c2.952 0 5.426 2.057 6.067 4.815h-14.284v-4.815h8.217z" style="fill-rule:nonzero;fill:#3f51b5"/>
 <path d="m16.777 45.668h-8.217c-2.952 0-5.426-2.057-6.067-4.815h14.284v4.815z" style="fill-rule:nonzero;fill:#ffeb3b"/>
 <rect x="16.777" y="40.853" width="14.445" height="4.815" style="fill:#8bc34a"/>
 <path d="m45.507 40.853c-0.641 2.758-3.115 4.815-6.067 4.815h-8.217v-4.815h14.284z" style="fill-rule:nonzero;fill:#009688"/>
 <path d="m45.507 40.853v-16.853h-4.783v16.853h4.783z" style="fill:#00bcd4"/>
 <path d="m45.507 24.002v-16.853h-4.783v16.853h4.783z" style="fill:#2196f3"/>
 <path d="m7.573 40.853v-16.853h-5.08v16.853h5.08z" style="fill:#ffc107"/>
 <path d="m7.573 24v-16.853h-5.08v16.853h5.08z" style="fill:#ff5722"/>
 <defs>
  <linearGradient id="_Linear1" x2="1" gradientTransform="matrix(-.186104 -34.9833 34.9833 -.186104 23.0936 42.132)" gradientUnits="userSpaceOnUse">
   <stop style="stop-color:#2f2f2f" offset="0"/>
   <stop style="stop-color:#3f3f3f" offset="1"/>
  </linearGradient>
 </defs>
</svg>
