<!DOCTYPE svg  PUBLIC '-//W3C//DTD SVG 1.1//EN'  'http://www.w3.org/Graphics/SVG/1.1/DTD/svg11.dtd'>
<svg style="clip-rule:evenodd;fill-rule:evenodd;stroke-linejoin:round;stroke-miterlimit:1.41421" version="1.1" viewBox="0 0 64 64" xmlns="http://www.w3.org/2000/svg">
 <path d="m5.274 22.655c-0.057 0.037-0.109 0.081-0.164 0.123l-0.033 0.024v4e-3c-0.651 0.512-1.077 1.299-1.077 2.196v24.397c0 4 3.154 4 4 4h47.998s4 0 4-4v-24.397c0-0.917-0.444-1.721-1.121-2.231l0.012-0.016-26.889-19.752s-26.889 19.777-26.725 19.654l-1e-3 -2e-3z" style="fill-rule:nonzero;fill:#fe9700"/>
 <path d="m13 9c-1.662 0-3 1.338-3 3v46h44v-46c0-1.662-1.338-3-3-3h-38z" style="fill-rule:nonzero;fill:url(#_Linear1)"/>
 <path d="m14.75 15c-0.411 0-0.75 0.301-0.75 0.666v6.668c0 0.365 0.339 0.666 0.75 0.666h4.5c0.411 0 0.75-0.301 0.75-0.666v-6.668c0-0.365-0.339-0.666-0.75-0.666h-4.5zm9.742 0c-0.271 6e-3 -0.492 0.304-0.492 0.665v6.661c0 0.365 0.226 0.665 0.5 0.665s0.5-0.3 0.5-0.665v-6.661c0-0.365-0.226-0.665-0.5-0.665h-8e-3zm6 0c-0.271 6e-3 -0.492 0.304-0.492 0.665v6.661c0 0.365 0.226 0.665 0.5 0.665s0.5-0.3 0.5-0.665v-6.661c0-0.365-0.226-0.665-0.5-0.665h-8e-3zm4.258 0c-0.411 0-0.75 0.301-0.75 0.666v6.668c0 0.365 0.339 0.666 0.75 0.666h4.5c0.411 0 0.75-0.301 0.75-0.666v-6.668c0-0.365-0.339-0.666-0.75-0.666h-4.5zm10 0c-0.411 0-0.75 0.301-0.75 0.666v6.668c0 0.365 0.339 0.666 0.75 0.666h4.5c0.411 0 0.75-0.301 0.75-0.666v-6.668c0-0.365-0.339-0.666-0.75-0.666h-4.5zm-29.75 1h4v6h-4v-6zm20 0h4v6h-4v-6zm10 0h4v6h-4v-6zm-28.492 11h-8e-3c-0.274 0-0.5 0.3-0.5 0.665v6.661c0 0.365 0.226 0.665 0.5 0.665s0.5-0.3 0.5-0.665v-6.661c0-0.361-0.221-0.659-0.492-0.665zm6.242 0c-0.411 0-0.75 0.301-0.75 0.666v6.668c0 0.365 0.339 0.666 0.75 0.666h4.5c0.411 0 0.75-0.301 0.75-0.666v-6.668c0-0.365-0.339-0.666-0.75-0.666h-4.5zm11.742 0c-0.271 6e-3 -0.492 0.304-0.492 0.665v6.661c0 0.365 0.226 0.665 0.5 0.665s0.5-0.3 0.5-0.665v-6.661c0-0.365-0.226-0.665-0.5-0.665h-8e-3zm4 0c-0.271 6e-3 -0.492 0.304-0.492 0.665v6.661c0 0.365 0.226 0.665 0.5 0.665s0.5-0.3 0.5-0.665v-6.661c0-0.365-0.226-0.665-0.5-0.665h-8e-3zm6.258 0c-0.411 0-0.75 0.301-0.75 0.666v6.668c0 0.365 0.339 0.666 0.75 0.666h4.5c0.411 0 0.75-0.301 0.75-0.666v-6.668c0-0.365-0.339-0.666-0.75-0.666h-4.5zm-21.75 1h4v6h-4v-6zm22 0h4v6h-4v-6zm-30.25 11c-0.411 0-0.75 0.301-0.75 0.666v6.668c0 0.365 0.339 0.666 0.75 0.666h4.5c0.411 0 0.75-0.301 0.75-0.666v-6.668c0-0.365-0.339-0.666-0.75-0.666h-4.5zm10 0c-0.411 0-0.75 0.301-0.75 0.666v6.668c0 0.365 0.339 0.666 0.75 0.666h4.5c0.411 0 0.75-0.301 0.75-0.666v-6.668c0-0.365-0.339-0.666-0.75-0.666h-4.5zm8.758 0h-8e-3c-0.274 0-0.5 0.3-0.5 0.665v6.661c0 0.365 0.226 0.665 0.5 0.665s0.5-0.3 0.5-0.665v-6.661c0-0.361-0.221-0.659-0.492-0.665zm6 0h-8e-3c-0.274 0-0.5 0.3-0.5 0.665v6.661c0 0.365 0.226 0.665 0.5 0.665s0.5-0.3 0.5-0.665v-6.661c0-0.361-0.221-0.659-0.492-0.665zm5.242 0c-0.411 0-0.75 0.301-0.75 0.666v6.668c0 0.365 0.339 0.666 0.75 0.666h4.5c0.411 0 0.75-0.301 0.75-0.666v-6.668c0-0.365-0.339-0.666-0.75-0.666h-4.5zm-29.75 1h4v6h-4v-6zm10 0h4v6h-4v-6zm20 0h4v6h-4v-6zm-30.25 11c-0.411 0-0.75 0.301-0.75 0.666v6.668c0 0.365 0.339 0.666 0.75 0.666h4.5c0.411 0 0.75-0.301 0.75-0.666v-6.668c0-0.365-0.339-0.666-0.75-0.666h-4.5zm10.758 0h-8e-3c-0.274 0-0.5 0.3-0.5 0.665v6.661c0 0.365 0.226 0.665 0.5 0.665s0.5-0.3 0.5-0.665v-6.661c0-0.361-0.221-0.659-0.492-0.665zm4 0h-8e-3c-0.274 0-0.5 0.3-0.5 0.665v6.661c0 0.365 0.226 0.665 0.5 0.665s0.5-0.3 0.5-0.665v-6.661c0-0.361-0.221-0.659-0.492-0.665zm7.242 0c-0.411 0-0.75 0.301-0.75 0.666v6.668c0 0.365 0.339 0.666 0.75 0.666h4.5c0.411 0 0.75-0.301 0.75-0.666v-6.668c0-0.365-0.339-0.666-0.75-0.666h-4.5zm10.742 0c-0.271 6e-3 -0.492 0.304-0.492 0.665v6.661c0 0.365 0.226 0.665 0.5 0.665s0.5-0.3 0.5-0.665v-6.661c0-0.365-0.226-0.665-0.5-0.665h-8e-3zm-32.492 1h4v6h-4v-6zm22 0h4v6h-4v-6z" style="fill-opacity:.5;fill-rule:nonzero;fill:#fff"/>
 <path d="m4 25.001l49.277 34.115-0.285 0.974-0.549 0.91h-44.443c-2 0-4-0.989-4-3.956v-32.043z" style="fill-rule:nonzero;fill:url(#_Linear2)"/>
 <path d="m53.162 60.272c3.875-0.994 3.838-4.272 3.838-4.272l2.998-2.4v-28.6l-51.998 35.999h42.327l2.835-0.727z" style="fill-rule:nonzero;fill:#fecd38"/>
 <circle cx="46.999" cy="47.81" r="15" style="fill:#3c7b00"/>
 <path d="m37.95 53.368v4.466h4.465l11.279-11.278-4.466-4.466-11.278 11.278zm19.694-10.748c0.472-0.473 0.472-1.217 0-1.689l-2.791-2.791c-0.473-0.473-1.217-0.473-1.689 0l-2.333 2.348 4.466 4.466 2.347-2.334z" style="fill-rule:nonzero;fill:#fff"/>
 <defs>
  <linearGradient id="_Linear1" x2="1" gradientTransform="matrix(7.95181,-39.0024,39.0024,7.95181,30.0482,48.0024)" gradientUnits="userSpaceOnUse">
   <stop style="stop-color:#222" offset="0"/>
   <stop style="stop-color:#4f4f4f" offset="1"/>
  </linearGradient>
  <linearGradient id="_Linear2" x2="1" gradientTransform="matrix(3.22721,-28.9993,28.9993,3.22721,11.6147,60.9993)" gradientUnits="userSpaceOnUse">
   <stop style="stop-color:#ffa300" offset="0"/>
   <stop style="stop-color:#fec006" offset="1"/>
  </linearGradient>
 </defs>
</svg>
