<svg clip-rule="evenodd" fill-rule="evenodd" stroke-linejoin="round" stroke-miterlimit="2" viewBox="0 0 48 48" xmlns="http://www.w3.org/2000/svg">
 <linearGradient id="a" x2="1" gradientTransform="matrix(-45.136 .647316 -.647316 -45.136 38.2068 -559.316)" gradientUnits="userSpaceOnUse">
  <stop stop-color="#0089c9" offset="0"/>
  <stop stop-color="#2dcb72" offset="1"/>
 </linearGradient>
 <linearGradient id="b" x2="1" gradientTransform="matrix(-.238213 -43.336 43.336 -.238213 18.402 45.668)" gradientUnits="userSpaceOnUse">
  <stop stop-color="#687914" offset="0"/>
  <stop stop-color="#cbba2d" offset="1"/>
 </linearGradient>
 <path d="m39.44 2.332c3.438 0 6.228 2.79 6.228 6.228v30.88c0 3.438-2.79 6.228-6.228 6.228h-30.88c-3.438 0-6.228-2.79-6.228-6.228v-30.88c0-3.438 2.79-6.228 6.228-6.228z" fill="url(#a)"/>
 <path d="m8.56 2.332h15.44v43.336h-15.44c-3.438 0-6.228-2.79-6.228-6.228v-30.88c0-3.438 2.79-6.228 6.228-6.228z" fill="url(#b)"/>
 <path d="m24.918 34.129-.013-.955-5.966.077-5.967.078-.039.777c-.021.426 0 .874.048.996.074.183 1.076.199 6.02.1l5.929-.118zm-2.524-9.643c1.133-.544 2.3-1.494 2.295-1.868-.002-.149-.401-.655-.887-1.122l-.882-.847-.707.52c-1.009.747-1.691 1.002-2.702 1.015-2.053.027-3.522-1.337-3.745-3.476-.371-3.568 3.01-5.669 5.976-3.714.387.255.819.463.958.463s.62-.444 1.066-.987c.957-1.162.93-1.283-.488-2.131-1.94-1.162-4.887-1.306-6.895-.336-1.145.554-2.312 1.571-2.896 2.521-1.659 2.701-1.223 6.506.994 8.664 1.48 1.445 2.799 1.902 5.225 1.813 1.523-.057 1.873-.125 2.688-.515zm12.974-.111c.089-.17.157-.641.15-1.046-.018-1.371.026-1.352-3.046-1.313l-2.699.035-.066-5.061c-.05-3.837-.115-5.127-.271-5.335-.173-.23-.422-.262-1.554-.208l-1.349.063.042 6.445c.024 3.544.078 6.534.122 6.641.061.152 1.066.186 4.294.144 4.005-.053 4.225-.071 4.377-.365z" fill="#fff" fill-rule="nonzero"/>
</svg>
