<!DOCTYPE svg  PUBLIC '-//W3C//DTD SVG 1.1//EN'  'http://www.w3.org/Graphics/SVG/1.1/DTD/svg11.dtd'>
<svg style="clip-rule:evenodd;fill-rule:evenodd;stroke-linejoin:round;stroke-miterlimit:1.41421" version="1.1" viewBox="0 0 64 64" xmlns="http://www.w3.org/2000/svg">
 <path d="m31.5 4.5c-3.593 0-8.876 0.938-13.749 3.207-0.296 0.137-0.596 0.263-0.888 0.41-1.241 0.627-2.443 1.345-3.575 2.162-0.032 0.024-0.064 0.049-0.096 0.073-0.174 0.127-0.346 0.255-0.516 0.387-0.095 0.073-0.185 0.153-0.279 0.228-0.194 0.155-0.384 0.314-0.572 0.475-0.083 0.071-0.17 0.135-0.252 0.207-0.025 0.023-0.052 0.044-0.077 0.067-0.099 0.088-0.19 0.184-0.287 0.274-0.178 0.165-0.352 0.334-0.524 0.505-0.184 0.183-0.364 0.369-0.54 0.558-0.18 0.194-0.356 0.39-0.527 0.591-0.081 0.094-0.168 0.181-0.247 0.277-0.071 0.087-0.139 0.178-0.208 0.266-0.033 0.041-0.061 0.087-0.094 0.129-0.127 0.163-0.25 0.331-0.372 0.499-0.082 0.114-0.172 0.222-0.251 0.339-0.146 0.212-0.286 0.427-0.423 0.647v2e-3h-3e-3c-0.273 0.441-0.528 0.897-0.762 1.367-0.201 0.403-0.381 0.818-0.551 1.244-0.029 0.072-0.061 0.142-0.089 0.215-0.096 0.25-0.188 0.506-0.272 0.765-0.06 0.182-0.112 0.368-0.166 0.553-0.023 0.079-0.051 0.157-0.073 0.237-0.352 1.285-0.571 2.661-0.623 4.138-0.054 1.528 0.09 3.113 0.393 4.724 1.533 8.157 7.228 17.014 12.984 22.934 2.333 2.4 6.519 6.177 10.581 7.23 0.427 0.111 0.85 0.197 1.271 0.242 0.264 0.028 0.527 0.048 0.787 0.048 4.637 0 9.911-4.711 12.641-7.52 5.539-5.697 11.02-14.114 12.791-22.01 0.205-0.912 0.361-1.82 0.461-2.713 0.11-0.995 0.157-1.976 0.123-2.935-0.527-14.976-17.755-19.822-26.016-19.822zm-2.015 9.378c0.802-0.014 1.583 0.013 2.355 0.059-0.772-0.046-1.553-0.072-2.355-0.059zc-0.754 0.013-1.525 0.058-2.309 0.123 0.783-0.065 1.556-0.11 2.309-0.123zm2.989 0.107c0.589 0.049 1.171 0.118 1.744 0.202-0.574-0.084-1.154-0.153-1.744-0.202zm-5.908 0.081c-0.584 0.059-1.177 0.13-1.779 0.217 0.603-0.087 1.194-0.158 1.779-0.217zm8.259 0.209c0.715 0.122 1.422 0.266 2.114 0.444-0.693-0.178-1.398-0.322-2.114-0.444zm-10.816 0.129c-0.604 0.099-1.217 0.214-1.838 0.341 0.621-0.127 1.235-0.242 1.838-0.341zm13.409 0.451c0.55 0.153 1.094 0.323 1.632 0.511-0.537-0.188-1.082-0.358-1.632-0.511zm-15.916 0.025c-0.783 0.172-1.582 0.366-2.395 0.582 0.814-0.216 1.611-0.41 2.395-0.582zm18.227 0.735c0.558 0.214 1.111 0.446 1.656 0.699-0.546-0.253-1.097-0.485-1.656-0.699zm1.999 0.849c0.661 0.317 1.313 0.667 1.958 1.042-0.646-0.375-1.297-0.725-1.958-1.042zm2.493 1.37c0.481 0.292 0.958 0.601 1.432 0.926-0.474-0.325-0.951-0.634-1.432-0.926zm2.036 1.345c0.624 0.449 1.245 0.915 1.86 1.421-0.615-0.506-1.236-0.972-1.86-1.421zm-20.105 6.932c0.701 0.774 1.395 1.542 2.046 2.323-0.652-0.783-1.343-1.547-2.046-2.323zm2.405 2.758c0.227 0.281 0.445 0.57 0.661 0.859-0.217-0.289-0.434-0.578-0.661-0.859zm1.067 1.412c0.212 0.3 0.411 0.613 0.608 0.927-0.198-0.314-0.396-0.626-0.608-0.927zm0.961 1.488c0.297 0.511 0.578 1.039 0.829 1.598-0.251-0.559-0.532-1.087-0.829-1.598zm0.867 1.7c0.234 0.53 0.447 1.084 0.634 1.668-0.187-0.583-0.4-1.139-0.634-1.668zm0.802 2.304c0.12 0.429 0.235 0.863 0.327 1.324-0.092-0.462-0.207-0.896-0.327-1.324zm0.584 2.944c9e-3 0.084 0.018 0.172 0.026 0.257-8e-3 -0.085-0.017-0.173-0.026-0.257zm0.101 4.176c-0.028 0.6-0.082 1.236-0.147 1.885 0.065-0.65 0.119-1.284 0.147-1.885zm-0.254 2.932c-0.093 0.733-0.226 1.514-0.366 2.31 0.14-0.795 0.273-1.578 0.366-2.31zm-0.54 3.333c-0.229 1.163-0.5 2.381-0.832 3.685 0.333-1.304 0.603-2.521 0.832-3.685z" style="fill-rule:nonzero;fill:#465051"/>
 <path d="m33.843 15.9c-1.592-0.018-3.191 0.121-4.816 0.418-1e-3 1e-3 -2e-3 0-3e-3 0-2.708 0.496-5.486 1.43-8.399 2.803 0.399 0.656 0.812 1.275 1.234 1.865 0.423 0.59 0.857 1.148 1.294 1.687 3.061 3.774 6.357 6.486 8.26 10.719 0 1e-3 -1e-3 2e-3 0 3e-3 0.951 2.115 1.553 4.61 1.604 7.806v3e-3c0.051 3.197-0.45 7.094-1.708 12.018-0.507 1.988-1.136 4.14-1.904 6.483 0.435 0.113 0.865 0.2 1.294 0.246 0.268 0.028 0.537 0.049 0.801 0.049 4.722 0 10.091-4.796 12.871-7.656 5.64-5.801 11.221-14.372 13.024-22.411-2.989-3.859-5.338-6.874-8.976-9.54-4.797-3.517-9.767-4.437-14.576-4.493z" style="fill-rule:nonzero;fill:#da3021"/>
 <path d="m5.647 19.968c-0.359 1.308-0.582 2.709-0.635 4.213-0.055 1.556 0.09 3.17 0.399 4.81 4.342-3.41 8.311-6.151 12.032-8.229-0.819-1.282-1.608-2.751-2.347-4.477 0 0-7.882-1.714-9.449 3.683z" style="fill-rule:nonzero;fill:#519c26"/>
 <path d="m57.989 24.182c-0.537-15.248-18.078-20.182-26.489-20.182-3.88 0-9.703 1.054-14.903 3.683-1.263 0.638-2.487 1.37-3.639 2.202-3.375 2.436-6.118 5.733-7.311 10.083 3.359-1.483 6.502-2.715 9.449-3.683 1.218-0.401 2.403-0.754 3.559-1.067 12.532-3.388 21.508-1.618 29.764 5.174 3.041 2.502 5.987 5.681 8.976 9.54 0.208-0.929 0.366-1.85 0.467-2.76 0.113-1.013 0.161-2.013 0.127-2.99z" style="fill-rule:nonzero;fill:#0063c7"/>
 <path d="m17.443 20.762c-3.721 2.078-7.69 4.819-12.032 8.229 1.561 8.306 7.359 17.324 13.219 23.352 2.375 2.442 6.639 6.289 10.775 7.361 0.767-2.342 1.397-4.494 1.905-6.482v-1e-3 -1e-3c0.046-0.749 0.083-1.473 0.11-2.173v-1e-3c0.027-0.7 0.045-1.376 0.053-2.029v-1e-3c8e-3 -0.653 7e-3 -1.282-2e-3 -1.89v-1e-3c-0.019-1.216-0.074-2.344-0.16-3.394v-1e-3c-0.043-0.525-0.095-1.03-0.154-1.517v-1e-3c-0.118-0.974-0.267-1.875-0.444-2.712-0.794-3.766-2.153-6.236-3.805-8.267v-1e-3c-0.183-0.226-0.371-0.446-0.561-0.662-0.381-0.432-0.774-0.846-1.178-1.253-0.808-0.815-1.657-1.601-2.522-2.431-0.433-0.415-0.87-0.841-1.308-1.289-0.219-0.223-0.438-0.451-0.657-0.686l-1e-3 -1e-3c-0.658-0.705-1.315-1.467-1.962-2.318-0.431-0.568-0.857-1.174-1.276-1.83z" style="fill-rule:nonzero;fill:#65c32f"/>
 <path d="m12.958 9.886c-0.211 0.152-0.419 0.307-0.625 0.466-0.383 0.296-0.757 0.606-1.121 0.926-0.026 0.024-0.053 0.046-0.079 0.069l-1e-3 1e-3c-0.776 0.691-1.502 1.438-2.164 2.244 0 0 1e-3 1e-3 0 1e-3 -0.072 0.088-0.141 0.179-0.212 0.269-0.253 0.32-0.498 0.646-0.73 0.985-0.148 0.216-0.292 0.436-0.431 0.66v1e-3c-0.278 0.448-0.538 0.913-0.777 1.392-0.204 0.41-0.389 0.834-0.562 1.267-0.03 0.073-0.062 0.144-0.091 0.218v1e-3c-0.098 0.256-0.189 0.515-0.276 0.778-0.061 0.185-0.115 0.375-0.17 0.564-0.024 0.08-0.05 0.158-0.072 0.24v1e-3c3.359-1.484 6.502-2.716 9.449-3.684-0.778-1.819-1.499-3.926-2.138-6.399z" style="fill-rule:nonzero;fill:#465051"/>
 <path d="m29.449 13.548c-3.309 0.056-6.879 0.612-10.796 1.671-1.155 0.312-2.339 0.666-3.557 1.067 0.738 1.726 1.529 3.194 2.348 4.476 0.419 0.656 0.843 1.262 1.275 1.829 0.647 0.851 1.303 1.614 1.961 2.319h3e-3c0.219 0.234 0.438 0.463 0.656 0.686 0.439 0.447 0.875 0.876 1.308 1.291 0.865 0.83 1.714 1.613 2.522 2.428 0.404 0.407 0.796 0.823 1.177 1.255 0.191 0.216 0.378 0.436 0.561 0.662 1.652 2.031 3.011 4.502 3.806 8.268 0.176 0.837 0.326 1.739 0.444 2.713 0.059 0.487 0.112 0.993 0.155 1.517 0.087 1.051 0.139 2.178 0.158 3.394v3e-3c0.01 0.607 0.011 1.236 3e-3 1.889s-0.028 1.329-0.055 2.029v3e-3c-0.027 0.7-0.062 1.424-0.109 2.174 0.34-1.33 0.614-2.571 0.848-3.757 0.071-0.362 0.115-0.688 0.177-1.037 0.143-0.811 0.278-1.61 0.373-2.357 0.046-0.366 0.074-0.709 0.109-1.061 0.066-0.661 0.121-1.307 0.15-1.919 0.03-0.645 0.061-1.29 0.051-1.884v-3e-3 -3e-3c-0.011-0.737-0.06-1.428-0.128-2.094-9e-3 -0.089-0.017-0.181-0.027-0.268-0.065-0.575-0.157-1.117-0.261-1.644-0.097-0.489-0.216-0.95-0.344-1.402-0.054-0.194-0.098-0.401-0.158-0.588-0.19-0.598-0.408-1.167-0.648-1.709-0.014-0.033-0.024-0.069-0.038-0.101v-3e-3c-0.256-0.57-0.542-1.107-0.844-1.627-0.114-0.196-0.24-0.381-0.36-0.572-0.201-0.319-0.403-0.637-0.618-0.943-0.135-0.191-0.275-0.377-0.414-0.563-0.23-0.307-0.459-0.613-0.701-0.911-0.108-0.133-0.219-0.264-0.329-0.396-0.667-0.8-1.373-1.583-2.092-2.377-0.233-0.256-0.454-0.515-0.689-0.776-0.737-0.816-1.481-1.649-2.212-2.551-1e-3 -1e-3 0-2e-3 0-3e-3 -0.438-0.539-0.872-1.097-1.294-1.687-0.423-0.59-0.835-1.209-1.234-1.865 0.674-0.318 1.339-0.604 1.999-0.875 0.172-0.07 0.341-0.135 0.512-0.202 0.488-0.192 0.974-0.373 1.455-0.539 0.208-0.072 0.416-0.141 0.624-0.208 0.45-0.145 0.898-0.276 1.343-0.399 0.201-0.056 0.404-0.116 0.604-0.167 0.599-0.151 1.194-0.286 1.785-0.396 0.025-5e-3 0.051-0.012 0.076-0.017h3e-3c0.712-0.13 1.415-0.217 2.119-0.287 0.2-0.02 0.4-0.037 0.599-0.052 0.701-0.052 1.402-0.087 2.098-0.079 4.809 0.055 9.779 0.976 14.576 4.492-5.676-4.669-11.692-6.966-18.97-6.844z" style="fill-rule:nonzero;fill:#fff"/>
</svg>
