<svg style="clip-rule:evenodd;fill-rule:evenodd;stroke-linejoin:round;stroke-miterlimit:2" version="1.1" viewBox="0 0 49 48" xmlns="http://www.w3.org/2000/svg">
 <path d="m24.959 45.64c-0.038-0.039 0-4.713 0-10.365v-10.333l10.299 0.082 10.374 0.027 0.027 7.822c0.029 8.643 0.032 8.595-0.621 9.877-0.425 0.832-1.402 1.84-2.209 2.277-1.236 0.67-1.149 0.637-9.882 0.639-4.358 1e-3 -7.95 0.013-7.988-0.026z" style="fill-rule:nonzero;fill:url(#_Linear1)"/>
 <path d="m2.332 14.851c1e-3 -6.744 0.027-8.32 0.147-8.714 0.535-1.765 1.959-3.148 3.767-3.658 0.429-0.121 1.977-0.147 8.667-0.147h8.145v20.726h-10.364-10.362v-8.207z" style="fill-rule:nonzero;fill:url(#_Linear2)"/>
 <path d="m24.968 12.715l0.027-10.35 7.713-0.028c5.01-0.018 7.968 0.01 8.442 0.081 2.212 0.333 4.058 2.146 4.422 4.343 0.082 0.499 0.109 3.054 0.089 8.482l7e-3 7.815-10.381-0.02-10.345 0.02 0.026-10.343z" style="fill-rule:nonzero;fill:url(#_Linear3)"/>
 <path d="m23.041 45.65c0.038-0.039 0-5.598 0-10.401v-10.307l-10.318 0.045-10.355 0.027-0.027 7.82c-0.029 8.642-0.032 8.593 0.62 9.875 0.424 0.833 1.4 1.84 2.205 2.278 1.234 0.669 1.147 0.663 9.864 0.665 4.351 1e-3 7.973 0.037 8.011-2e-3z" style="fill-rule:nonzero;fill:url(#_Linear4)"/>
 <defs>
  <linearGradient id="_Linear1" x2="1" gradientTransform="matrix(.235526 -20.3337 20.3337 .235526 34.6772 45.4328)" gradientUnits="userSpaceOnUse">
   <stop style="stop-color:#3889e9" offset="0"/>
   <stop style="stop-color:#5ea5fb" offset="1"/>
  </linearGradient>
  <linearGradient id="_Linear2" x2="1" gradientTransform="matrix(-.392542 -20.4907 20.4907 -.392542 13.0088 23.2934)" gradientUnits="userSpaceOnUse">
   <stop style="stop-color:#d41a1a" offset="0"/>
   <stop style="stop-color:#f55" offset="1"/>
  </linearGradient>
  <linearGradient id="_Linear3" x2="1" gradientTransform="matrix(-4.24005,-174.613,174.613,-4.24005,-263.568,-847.411)" gradientUnits="userSpaceOnUse">
   <stop style="stop-color:#32a071" offset="0"/>
   <stop style="stop-color:#00f076" offset="1"/>
  </linearGradient>
  <linearGradient id="_Linear4" x2="1" gradientTransform="matrix(1.99878,347.692,-347.692,1.99878,-457.642,-745.711)" gradientUnits="userSpaceOnUse">
   <stop style="stop-color:#ffe000" offset="0"/>
   <stop style="stop-color:#ff9c00" offset="1"/>
  </linearGradient>
 </defs>
</svg>
