<?xml version="1.0" encoding="UTF-8" standalone="no"?><!DOCTYPE svg PUBLIC "-//W3C//DTD SVG 1.1//EN" "http://www.w3.org/Graphics/SVG/1.1/DTD/svg11.dtd"><svg width="100%" height="100%" viewBox="0 0 64 64" version="1.1" xmlns="http://www.w3.org/2000/svg" xmlns:xlink="http://www.w3.org/1999/xlink" xml:space="preserve" xmlns:serif="http://www.serif.com/" style="fill-rule:evenodd;clip-rule:evenodd;stroke-linejoin:round;stroke-miterlimit:1.41421;"><path d="M39.954,19.94c-2.19,-2.19 -5.539,-2.366 -7.51,-0.395l-16.006,16.006c-1.319,1.319 -2.343,2.358 -1.779,4.15l-5.928,5.929c-1.971,1.97 -1.004,6.11 1.186,8.299c2.189,2.19 6.329,3.157 8.299,1.186l5.929,-5.928c1.792,0.564 2.831,-0.46 4.15,-1.779l16.006,-16.007c1.971,-1.97 1.795,-5.319 -0.395,-7.509l-3.952,-3.952Z" style="fill:none;stroke:#0745c2;stroke-width:7.5px;"/><path d="M39.954,19.94c-2.19,-2.19 -5.539,-2.366 -7.51,-0.395l-16.006,16.006c-1.319,1.319 -2.343,2.358 -1.779,4.15l-5.928,5.929c-1.971,1.97 -1.004,6.11 1.186,8.299c2.189,2.19 6.329,3.157 8.299,1.186l5.929,-5.928c1.792,0.564 2.831,-0.46 4.15,-1.779l16.006,-16.007c1.971,-1.97 1.795,-5.319 -0.395,-7.509l-3.952,-3.952Z" style="fill:#e4e4e4;fill-rule:nonzero;"/><path d="M30.745,16.25c0.146,-0.166 0.299,-0.328 0.457,-0.486l10.372,-10.372c4.162,-4.162 10.921,-4.162 15.084,0l1.886,1.887c4.163,4.163 4.163,10.921 0,15.084l-10.372,10.372c-0.158,0.158 -0.32,0.31 -0.485,0.456l3.196,3.197c0.586,0.585 0.586,1.536 0,2.121l-4.949,4.95c-0.586,0.585 -1.536,0.585 -2.122,0l-23.334,-23.335c-0.586,-0.585 -0.586,-1.536 0,-2.121l4.95,-4.95c0.585,-0.585 1.535,-0.585 2.121,0l3.196,3.197Z" style="fill:url(#_Linear1);"/><path d="M30.898,39.233l-6.502,-6.503l-13.005,13.005c-1.795,1.794 -1.795,4.708 0,6.502c1.794,1.795 4.708,1.795 6.502,0l13.005,-13.004Z" style="fill:#ef008c;"/><defs><linearGradient id="_Linear1" x1="0" y1="0" x2="1" y2="0" gradientUnits="userSpaceOnUse" gradientTransform="matrix(41.6273,0,0,41.6273,20.0388,23.0842)"><stop offset="0" style="stop-color:#083ab5;stop-opacity:1"/><stop offset="1" style="stop-color:#0079fc;stop-opacity:1"/></linearGradient></defs></svg>