<svg style="clip-rule:evenodd;fill-rule:evenodd;stroke-linejoin:round;stroke-miterlimit:2" version="1.1" viewBox="0 0 48 48" xmlns="http://www.w3.org/2000/svg">
 <path d="m45.668 8.56c0-3.438-2.79-6.228-6.228-6.228h-30.88c-3.438 0-6.228 2.79-6.228 6.228v30.88c0 3.438 2.79 6.228 6.228 6.228h30.88c3.438 0 6.228-2.79 6.228-6.228v-30.88z" style="fill:url(#_Linear1)"/>
 <path d="m2.332 25.125v-21.71c0-0.598 0.485-1.083 1.083-1.083h4.346c0.598 0 1.084 0.485 1.084 1.083v21.71h11.905v-21.71c0-0.598 0.485-1.083 1.083-1.083h4.334c0.598 0 1.083 0.485 1.083 1.083v21.71h12.051v-21.71c0-0.598 0.485-1.083 1.083-1.083h4.201c0.598 0 1.083 0.485 1.083 1.083v28.211h-18.418v8.567c0 0.598-0.485 1.084-1.083 1.084h-4.334c-0.598 0-1.083-0.486-1.083-1.084v-8.567h-18.418v-6.501z" style="fill:#ffa402"/>
 <path d="m33.751 20.625c0-1.104-0.897-2-2-2h-15.502c-1.103 0-2 0.896-2 2v15.501c0 1.104 0.897 2 2 2h15.502c1.103 0 2-0.896 2-2v-15.501z" style="fill:#ffdc2f"/>
 <path d="m19.666 21.875h8.668v6.5h-2.167v6.501h-4.334v-6.501h-2.167v-6.5z" style="fill:#3f3f3f"/>
 <defs>
  <linearGradient id="_Linear1" x2="1" gradientTransform="matrix(2.65364e-15,-43.3373,43.3373,2.65364e-15,201.9,45.6687)" gradientUnits="userSpaceOnUse">
   <stop style="stop-color:#256325" offset="0"/>
   <stop style="stop-color:#309b30" offset="1"/>
  </linearGradient>
 </defs>
</svg>
