<svg style="clip-rule:evenodd;fill-rule:evenodd;stroke-linejoin:round;stroke-miterlimit:2" version="1.1" viewBox="0 0 48 48" xmlns="http://www.w3.org/2000/svg">
 <path d="m45.668 8.56c0-3.438-2.79-6.228-6.228-6.228h-30.88c-3.438 0-6.228 2.79-6.228 6.228v30.88c0 3.438 2.79 6.228 6.228 6.228h30.88c3.438 0 6.228-2.79 6.228-6.228v-30.88z" style="fill:url(#_Linear1)"/>
 <path d="m24.996 9.404c-1.147 1e-3 -1.911 0.082-2.624 0.188-6.834 1.013-12.873 5.22-10.955 14.008 2.728 12.496 23.043 5.127 23.334 3.675 0.116-0.583 0.263-1.825 0.211-2.006-0.444 0.541-2.199 1.09-2.792 1.28-0.483 0.153-14.895 5.121-17.367-3.549-0.944-3.308-0.25-7.867 5.14-10.588l0.723-0.335 0.026 0.769c0.029 0.842 0.626 26.02 0.626 26.38v0.223l2.932-0.027 2.931-0.026 5.541-14.846c3.047-8.165 5.541-14.881 5.544-14.924s-0.633-0.066-1.412-0.051l-1.417 0.029-4.175 12.153c-2.297 6.685-4.183 12.147-4.192 12.138-9e-3 -8e-3 -0.094-5.501-0.189-12.204s-0.193-12.211-0.218-12.238c-0.025-0.028-0.775-0.049-1.667-0.049z" style="fill-rule:nonzero;fill:url(#_Linear2)"/>
 <path d="m22.372 9.592c-6.834 1.013-12.872 5.22-10.955 14.008 2.728 12.496 23.043 5.127 23.334 3.675 0.116-0.583 0.263-1.825 0.211-2.006-0.444 0.541-2.199 1.09-2.791 1.28-0.483 0.153-14.896 5.121-17.368-3.549-0.944-3.308-0.25-7.867 5.14-10.588 0 0 3.142-2.926 2.429-2.82z" style="fill-rule:nonzero;fill:url(#_Linear3)"/>
 <defs>
  <linearGradient id="_Linear1" x2="1" gradientTransform="matrix(2.70843e-15,-44.7352,44.232,2.73924e-15,243.135,46.1346)" gradientUnits="userSpaceOnUse">
   <stop style="stop-color:#d4d4d4" offset="0"/>
   <stop style="stop-color:#fafafa" offset="1"/>
  </linearGradient>
  <linearGradient id="_Linear2" x2="1" gradientTransform="matrix(1.80564e-15,-29.4883,29.4883,1.80564e-15,394.028,39.2254)" gradientUnits="userSpaceOnUse">
   <stop style="stop-color:#7239b3" offset="0"/>
   <stop style="stop-color:#a56de2" offset="1"/>
  </linearGradient>
  <linearGradient id="_Linear3" x2="1" gradientTransform="matrix(7.90017e-16,-12.9019,12.9019,7.90017e-16,183.438,26.0881)" gradientUnits="userSpaceOnUse">
   <stop style="stop-color:#3689e6" offset="0"/>
   <stop style="stop-color:#3689e6;stop-opacity:0" offset="1"/>
  </linearGradient>
 </defs>
</svg>
