<svg clip-rule="evenodd" fill-rule="evenodd" stroke-linejoin="round" stroke-miterlimit="2" viewBox="0 0 48 48" xmlns="http://www.w3.org/2000/svg" xmlns:xlink="http://www.w3.org/1999/xlink">
 <linearGradient id="a" x2="1" gradientTransform="matrix(0 43.3366 -43.3366 0 -370.594 2.33168)" gradientUnits="userSpaceOnUse">
  <stop stop-color="#4c5561" offset="0"/>
  <stop stop-color="#161f28" offset="1"/>
 </linearGradient>
 <linearGradient id="b" x2="1" gradientTransform="matrix(0 11.0758 -11.0758 0 -733.678 12.801)" gradientUnits="userSpaceOnUse">
  <stop stop-color="#52665f" offset="0"/>
  <stop stop-color="#364e46" offset="1"/>
 </linearGradient>
 <linearGradient id="c" x2="1" gradientTransform="matrix(0 9.09713 -9.09713 0 -789.411 16.5416)" gradientUnits="userSpaceOnUse">
  <stop stop-color="#bdc3c7" offset="0"/>
  <stop stop-color="#aeafb3" offset="1"/>
 </linearGradient>
 <linearGradient id="d">
  <stop stop-color="#00f260" offset="0"/>
  <stop stop-color="#0575e6" offset="1"/>
 </linearGradient>
 <linearGradient id="e" x2="1" gradientTransform="matrix(0 7.04813 -7.04813 0 -328.252 9.27713)" gradientUnits="userSpaceOnUse" xlink:href="#d"/>
 <linearGradient id="f" x2="1" gradientTransform="matrix(0 7.04813 -7.04813 0 -1123.08 30.4217)" gradientUnits="userSpaceOnUse" xlink:href="#d"/>
 <linearGradient id="g" x2="1" gradientTransform="matrix(-6.10388 3.52406 -3.52406 -6.10388 -233.627 -452.877)" gradientUnits="userSpaceOnUse" xlink:href="#d"/>
 <linearGradient id="h" x2="1" gradientTransform="matrix(-6.10388 3.52406 -3.52406 -6.10388 -461.928 -802.352)" gradientUnits="userSpaceOnUse" xlink:href="#d"/>
 <linearGradient id="i" x2="1" gradientTransform="matrix(-6.10388 -3.52406 3.52406 -6.10388 516.039 -798.84)" gradientUnits="userSpaceOnUse" xlink:href="#d"/>
 <linearGradient id="j" x2="1" gradientTransform="matrix(-6.10388 -3.52406 3.52406 -6.10388 287.73 -449.351)" gradientUnits="userSpaceOnUse" xlink:href="#d"/>
 <linearGradient id="k" x2="1" gradientTransform="matrix(0 7.04813 -7.04813 0 -744.584 20.3528)" gradientUnits="userSpaceOnUse" xlink:href="#d"/>
 <path d="m45.668 8.56c0-3.438-2.79-6.228-6.228-6.228h-30.88c-3.438 0-6.228 2.79-6.228 6.228v30.88c0 3.438 2.79 6.228 6.228 6.228h30.88c3.438 0 6.228-2.79 6.228-6.228z" fill="url(#a)"/>
 <path d="m25.51 22.946 9.233 4.616-1.349 2.698-9.394-4.697-9.394 4.697-1.349-2.698 9.233-4.617v-10.144h3.02z" fill="url(#b)" fill-rule="nonzero"/>
 <path d="m22.49 24.732-9.334-5.603 1.55-2.587 9.294 5.573 9.294-5.573 1.55 2.587-9.334 5.603v10.22h-3.02z" fill="url(#c)" fill-rule="nonzero"/>
 <path d="m12.421 16.904 11.579-5.79 11.579 5.79v12.939l-11.579 5.789-11.579-5.789zm3.021 1.863 8.558-4.279 8.558 4.279v9.213l-8.558 4.279-8.558-4.279z" fill="#53626c"/>
 <circle cx="24" cy="12.801" r="3.524" fill="url(#e)"/>
 <circle cx="24" cy="33.946" r="3.524" fill="url(#f)"/>
 <g fill-rule="nonzero">
  <path d="m32.307 14.784c1.684-.973 3.841-.395 4.814 1.29.973 1.684.395 3.841-1.29 4.814-1.684.972-3.841.394-4.814-1.29-.972-1.685-.394-3.842 1.29-4.814z" fill="url(#g)"/>
  <path d="m12.169 25.859c1.685-.972 3.842-.394 4.814 1.29.973 1.685.395 3.842-1.29 4.814-1.684.973-3.841.395-4.814-1.29-.972-1.684-.394-3.841 1.29-4.814z" fill="url(#h)"/>
  <path d="m35.831 25.86c1.684.972 2.262 3.129 1.29 4.814-.973 1.684-3.13 2.262-4.814 1.29-1.685-.973-2.263-3.13-1.29-4.814.972-1.685 3.13-2.263 4.814-1.29z" fill="url(#i)"/>
  <path d="m15.693 14.784c1.685.972 2.263 3.129 1.29 4.814-.972 1.684-3.129 2.262-4.814 1.29-1.684-.973-2.262-3.13-1.29-4.814.973-1.685 3.13-2.263 4.814-1.29z" fill="url(#j)"/>
 </g>
 <circle cx="24" cy="23.877" r="3.524" fill="url(#k)"/>
</svg>
