<svg style="clip-rule:evenodd;fill-rule:evenodd;stroke-linejoin:round;stroke-miterlimit:2" version="1.1" viewBox="0 0 48 48" xmlns="http://www.w3.org/2000/svg">
 <path d="m45.668 8.56c0-3.438-2.79-6.228-6.228-6.228h-30.88c-3.438 0-6.228 2.79-6.228 6.228v30.88c0 3.438 2.79 6.228 6.228 6.228h30.88c3.438 0 6.228-2.79 6.228-6.228v-30.88z" style="fill:url(#_Linear1)"/>
 <path d="m39.44 2.332c3.438 0 6.228 2.79 6.228 6.228v3.684h-43.336v-3.684c0-3.438 2.79-6.228 6.228-6.228h30.88z" style="fill:#a4a4a4"/>
 <path id="g4808" d="m25.224 26.963c0 5.852-4.521 10.606-10.092 10.606-5.57 0-10.092-4.754-10.092-10.606 0-5.853 4.522-10.607 10.092-10.607 5.571 0 10.092 4.754 10.092 10.607z" style="fill-rule:nonzero;fill:url(#_Linear2)"/>
 <path id="g4812" d="m24.215 26.963c0 5.244-4.071 9.503-9.083 9.503-5.011 0-9.082-4.259-9.082-9.503s4.071-9.503 9.082-9.503c5.012 0 9.083 4.259 9.083 9.503z" style="fill-rule:nonzero;fill:url(#_Linear3)"/>
 <path id="g4828" d="m14.949 20.532c0.307 0 0.549 0.252 0.549 0.554-5e-3 1.182-0.014 4.165-0.024 5.343 0 6e-3 0 0.013-1e-3 0.02 0.078 0.057 0.147 0.125 0.205 0.202h4.169c0.292 0 0.529 0.238 0.529 0.529v0.045c0 0.292-0.237 0.529-0.529 0.529h-4.134c-0.171 0.262-0.467 0.436-0.803 0.436-0.535 0-0.965-0.431-0.965-0.96 0-0.334 0.169-0.628 0.426-0.801-1e-3 -2e-3 -1e-3 -4e-3 -1e-3 -5e-3 5e-3 -1.178 0.015-4.161 0.025-5.343 0-0.301 0.246-0.547 0.551-0.549h3e-3z" style="fill-rule:nonzero;fill:#c6262e"/>
 <rect id="g4816" x="28.257" y="20.963" width="10.5" height="3" style="fill-rule:nonzero;fill:#a4a4a4"/>
 <rect id="g4820" x="28.257" y="25.463" width="15" height="3" style="fill-rule:nonzero;fill:#a4a4a4"/>
 <rect id="g4824" x="28.257" y="29.963" width="15" height="3" style="fill-rule:nonzero;fill:#a4a4a4"/>
 <rect id="g4840" x="9.128" y="7.962" width="29.744" height="2.702" style="fill-rule:nonzero;fill:#ddd"/>
 <defs>
  <linearGradient id="_Linear1" x2="1" gradientTransform="matrix(2.65364e-15,-43.3373,43.3373,2.65364e-15,201.9,45.6687)" gradientUnits="userSpaceOnUse">
   <stop style="stop-color:#c7c7c7" offset="0"/>
   <stop style="stop-color:#f8f8f8" offset="1"/>
  </linearGradient>
  <linearGradient id="_Linear2" x2="1" gradientTransform="matrix(1.32291e-15,-21.6048,21.6048,1.32291e-15,15.1323,37.9027)" gradientUnits="userSpaceOnUse">
   <stop style="stop-color:#ac0009" offset="0"/>
   <stop style="stop-color:#c00" offset="1"/>
  </linearGradient>
  <linearGradient id="_Linear3" x2="1" gradientTransform="matrix(-2.37899e-7 -19.0064 19.0064 -2.37899e-7 15.1323 36.466)" gradientUnits="userSpaceOnUse">
   <stop style="stop-color:#aeaeae" offset="0"/>
   <stop style="stop-color:#d3d3d3" offset="1"/>
  </linearGradient>
 </defs>
</svg>
