<svg style="clip-rule:evenodd;fill-rule:evenodd;stroke-linejoin:round;stroke-miterlimit:2" version="1.1" viewBox="0 0 48 48" xmlns="http://www.w3.org/2000/svg">
 <path d="m16.758 30.406l-0.836-0.279-6.344 11.534 0.44 0.974c0.566 0.381 1.23 0.584 1.909 0.584h24.146c1.154 0 2.231-0.584 2.871-1.556l6.899-10.483c0.157-0.241 0.284-0.501 0.378-0.774l-0.058-0.809h-13.779l-0.475 0.809h-15.151zm-14.716 0.576c0.025 0.046 0.052 0.092 0.079 0.138-0.027-0.046-0.054-0.092-0.079-0.138z" style="fill-rule:nonzero;fill:#abacae"/>
 <path d="m17.101 4.781c-1.227 0-2.362 0.66-2.98 1.733l-12.073 20.967c-0.664 1.153-0.622 2.588 0.109 3.699l6.9 10.483c0.253 0.386 0.58 0.716 0.961 0.972l21.167-37.854h-14.084z" style="fill-rule:nonzero;fill:url(#_Linear1)"/>
 <path d="m17.101 4.781c-0.063 1e-3 -0.126 4e-3 -0.189 8e-3l14.117 25.617h15.192c0.34-0.968 0.241-2.038-0.268-2.925l-12.073-20.967c-0.619-1.073-1.754-1.733-2.98-1.733h-13.799zm29.114 25.64c-0.042 0.12-0.091 0.236-0.145 0.35 0.055-0.114 0.103-0.231 0.145-0.35zm-0.167 0.396c-0.061 0.125-0.129 0.247-0.205 0.363 0.076-0.117 0.144-0.238 0.205-0.363zm-44.006 0.165c0.025 0.046 0.052 0.092 0.079 0.138-0.027-0.046-0.054-0.092-0.079-0.138z" style="fill-rule:nonzero;fill:#555761"/>
 <path d="m24.082 15.46c-0.703-0.03-1.368 0.327-1.722 0.925l-3.322 5.606-3.321 5.605c-0.17 0.286-0.259 0.611-0.259 0.942 0 1.025 0.857 1.868 1.898 1.868h13.288c1.041 0 1.898-0.843 1.898-1.868 0-0.331-0.089-0.656-0.259-0.942l-3.321-5.605-3.322-5.606c-0.325-0.549-0.913-0.898-1.558-0.925z" style="fill-rule:nonzero;fill:#fff"/>
 <defs>
  <linearGradient id="_Linear1" x2="1" gradientTransform="matrix(29.6077,0,0,37.8543,1.57776,23.708)" gradientUnits="userSpaceOnUse">
   <stop style="stop-color:#7e8087" offset="0"/>
   <stop style="stop-color:#7e8087" offset="1"/>
  </linearGradient>
 </defs>
</svg>
