<svg style="clip-rule:evenodd;fill-rule:evenodd;stroke-linejoin:round;stroke-miterlimit:2" version="1.1" viewBox="0 0 48 48" xmlns="http://www.w3.org/2000/svg" xmlns:serif="http://www.serif.com/">
 <path d="m45.668 8.56c0-3.438-2.79-6.228-6.228-6.228h-30.88c-3.438 0-6.228 2.79-6.228 6.228v30.88c0 3.438 2.79 6.228 6.228 6.228h30.88c3.438 0 6.228-2.79 6.228-6.228v-30.88z" style="fill:url(#_Linear1)"/>
 <path d="m40.132 22.885l-5.692 8.25-10.858 3.602-10.384-7.156-5.817 0.667-5.05-3.206 1e-3 14.398c0 3.927 3.317 6.228 6.228 6.228h30.492c4.244 0 6.616-3.215 6.616-6.228v-13.684l-5.536-2.871z" style="fill:url(#_Linear2)"/>
 <path d="m34.989 10.605c1.984-0.243 3.793 1.168 4.036 3.152 0.245 1.984-1.169 3.794-3.153 4.037-1.984 0.245-3.792-1.168-4.036-3.152-0.243-1.984 1.17-3.792 3.153-4.037z" style="fill:url(#_Linear3)"/>
 <path id="Arrow-Right-Icon" d="m28.374 30.425l8.866 8.814-8.874 0.023c-0.822 3e-3 -1.485 0.671-1.482 1.49 3e-3 0.822 0.671 1.486 1.492 1.484l12.394-0.033c0.421-1e-3 0.799-0.179 1.068-0.462 1e-3 0 1e-3 0 2e-3 -1e-3 0 0 0-1e-3 1e-3 -1e-3 0.28-0.271 0.456-0.649 0.455-1.071l-0.043-12.394c-2e-3 -0.821-0.67-1.485-1.491-1.483-0.822 3e-3 -1.485 0.67-1.482 1.491l0.031 8.875-8.867-8.814c-0.576-0.572-1.505-0.569-2.077 5e-3 -0.572 0.576-0.569 1.505 7e-3 2.077z" style="fill:#fff" serif:id="Arrow Right Icon"/>
 <path id="Arrow-Right-Icon1" d="m19.071 17.365l-8.991-8.918 8.875-0.022c0.821-3e-3 1.484-0.67 1.481-1.491-2e-3 -0.821-0.67-1.485-1.491-1.483l-12.394 0.033c-0.422 1e-3 -0.8 0.179-1.069 0.461l-1e-3 1e-3 -1e-3 1e-3c-0.28 0.272-0.456 0.651-0.454 1.072l0.042 12.394c3e-3 0.821 0.671 1.485 1.491 1.483 0.821-2e-3 1.484-0.67 1.481-1.491l-0.029-8.875 8.99 8.918c0.576 0.572 1.505 0.569 2.076-6e-3 0.572-0.575 0.569-1.504-6e-3 -2.077z" style="fill:#fff" serif:id="Arrow Right Icon"/>
 <defs>
  <linearGradient id="_Linear1" x2="1" gradientTransform="matrix(-.274112 -42.7073 42.7073 -.274112 102.181 44.525)" gradientUnits="userSpaceOnUse">
   <stop style="stop-color:#ec87fb" offset="0"/>
   <stop style="stop-color:#4392f6" offset="1"/>
  </linearGradient>
  <linearGradient id="_Linear2" x2="1" gradientTransform="matrix(.141358 -19.4064 19.4064 .141358 466.445 48.9003)" gradientUnits="userSpaceOnUse">
   <stop style="stop-color:#132e51" offset="0"/>
   <stop style="stop-color:#2767b9" offset="1"/>
  </linearGradient>
  <linearGradient id="_Linear3" x2="1" gradientTransform="matrix(-.0753142 -7.76114 7.76114 -.0753142 410.723 14.0558)" gradientUnits="userSpaceOnUse">
   <stop style="stop-color:#eefefe;stop-opacity:.8" offset="0"/>
   <stop style="stop-color:#d6fefe;stop-opacity:.8" offset="1"/>
  </linearGradient>
 </defs>
</svg>
