<svg clip-rule="evenodd" fill-rule="evenodd" stroke-linejoin="round" stroke-miterlimit="2" viewBox="0 0 48 48" xmlns="http://www.w3.org/2000/svg">
 <linearGradient id="a" x2="1" gradientTransform="matrix(0 -43.3373 43.3373 0 201.9 45.6687)" gradientUnits="userSpaceOnUse">
  <stop stop-color="#70af00" offset="0"/>
  <stop stop-color="#a0d344" offset="1"/>
 </linearGradient>
 <path d="m45.668 8.56c0-3.438-2.79-6.228-6.228-6.228h-30.88c-3.438 0-6.228 2.79-6.228 6.228v30.88c0 3.438 2.79 6.228 6.228 6.228h30.88c3.438 0 6.228-2.79 6.228-6.228z" fill="url(#a)"/>
 <path d="m45.668 10.775c-.001-.004-6.108.617-8.555 1.219-12.794 3.129-18.962 10.561-18.962 10.561s3.891 9.489 11.107 14.973c1.787 1.354 3.636 2.621 5.538 3.806h-7.266c-.02-.013-.042-.026-.062-.04-4.602-3.218-9.803-9.249-9.803-9.249-1.565 1.173-3.384 1.15-4.924 1.862-1.541.713-2.556 1.247-2.556 1.247s1.404 1.909 7.257 6.18h-14.816c.583 1.841 2.537 4.334 5.688 4.334h31.126c3.424.012 5.524-2.704 5.934-4.334h-4.281c-2.205-1.325-6.039-3.954-9.384-8.199-4.91-6.23-4.91-8.377-4.91-8.377s5.094-5.124 10.278-7.241c2.804-1.145 6.264-2.015 8.591-2.577 0-.066.001-3.802 0-4.165zm0 7.359c-.264.089-.588.178-.798.273-7.763 3.527-10.952 8.682-10.952 8.682s1.519 4.896 6.811 10.225c0 0-1.313-6.537-1.451-9.044 1.694-2.206 3.994-4.065 6.39-5.497z" fill="#3f3f3f" fill-rule="nonzero"/>
</svg>
