<svg clip-rule="evenodd" fill-rule="evenodd" stroke-linecap="round" stroke-linejoin="round" viewBox="0 0 48 48" xmlns="http://www.w3.org/2000/svg">
 <linearGradient id="a" x2="1" gradientTransform="matrix(0 -39.9877 39.9877 0 24.5 43.9939)" gradientUnits="userSpaceOnUse">
  <stop stop-color="#631eb5" offset="0"/>
  <stop stop-color="#6d37ae" offset="1"/>
 </linearGradient>
 <circle transform="matrix(1.1382 0 0 1.1382 -3.3168 -3.3168)" cx="24" cy="24" r="20" fill="url(#a)"/>
 <g fill="none">
  <circle transform="matrix(1.02503 -.494794 .494794 1.02503 -3.3168 -3.3168)" cx="11.18" cy="32.047" r="12.322" stroke="#07e6d2" stroke-dasharray="10.84 5.42" stroke-dashoffset="40" stroke-width="1.35"/>
  <circle transform="matrix(.405908 1.06336 -1.06336 .405908 -3.3168 -3.3168)" cx="30.981" cy="-13.863" r="16.301" stroke="#07a8e6" stroke-dasharray="11.18 5.59" stroke-dashoffset="40" stroke-width="1.4"/>
  <circle transform="matrix(1.13678 -.056807 .056807 1.13678 -3.3168 -3.3168)" cx="22.772" cy="25.168" r="8.32" stroke="#07e690" stroke-dasharray="10.87 5.44" stroke-dashoffset="13.45" stroke-width="1.36"/>
 </g>
 <path transform="matrix(.320445 0 0 .320445 4.2066 3.4915)" d="m50.173 46.241c-.02 0-.04-.001-.059-.001-1.37 0-2.497 1.108-2.498 2.455l-.028 15.299-.027 15.305v.004c0 1.348 1.127 2.457 2.497 2.457.437 0 .866-.113 1.245-.327l13.484-7.629 13.484-7.629c.777-.437 1.257-1.252 1.257-2.132 0-.877-.477-1.69-1.25-2.129l-13.456-7.669-13.457-7.677c-.363-.205-.773-.318-1.192-.327z" fill="#9bdb4d" fill-rule="nonzero"/>
</svg>
