<svg style="clip-rule:evenodd;fill-rule:evenodd;stroke-linejoin:round;stroke-miterlimit:2" version="1.1" viewBox="0 0 64 64" xmlns="http://www.w3.org/2000/svg">
 <circle cx="32.219" cy="32.007" r="30.102" style="fill:url(#_Linear1)"/>
 <path d="m52.865 20.759c-8e-3 -1.016-0.418-1.988-1.143-2.701-0.724-0.714-1.701-1.11-2.717-1.103-7.972 0.06-26.26 0.196-34.232 0.255-1.016 8e-3 -1.988 0.419-2.701 1.143s-1.11 1.702-1.103 2.718c0.043 5.727 0.124 16.457 0.166 22.184 8e-3 1.017 0.418 1.988 1.143 2.701 0.724 0.714 1.701 1.11 2.717 1.103 7.972-0.059 26.26-0.196 34.232-0.255 1.016-8e-3 1.988-0.419 2.701-1.143 0.714-0.723 1.11-1.701 1.103-2.718-0.043-5.727-0.124-16.457-0.166-22.184zm-38.805 21.421l4.29-0.053c0.291-3e-3 0.529 0.231 0.534 0.522l0.031 2.593c3e-3 0.291-0.231 0.53-0.522 0.533l-4.289 0.052c-0.291 4e-3 -0.53-0.23-0.534-0.521l-0.031-2.593c-4e-3 -0.291 0.23-0.53 0.521-0.533zm6.362-0.078l4.289-0.051c0.291-5e-3 0.531 0.229 0.534 0.521l0.031 2.592c5e-3 0.292-0.229 0.531-0.52 0.534l-4.29 0.051c-0.291 5e-3 -0.53-0.229-0.534-0.52l-0.032-2.593c-3e-3 -0.291 0.23-0.529 0.522-0.534zm6.362-0.077l4.29-0.052c0.291-3e-3 0.53 0.23 0.533 0.521l0.032 2.593c3e-3 0.291-0.23 0.531-0.521 0.534l-4.29 0.052c-0.291 3e-3 -0.53-0.23-0.534-0.52l-0.031-2.594c-3e-3 -0.26 0.182-0.479 0.521-0.534zm6.361-0.076l4.29-0.053c0.291-3e-3 0.531 0.23 0.534 0.521l0.031 2.594c4e-3 0.291-0.23 0.53-0.52 0.534l-4.291 0.051c-0.291 4e-3 -0.529-0.229-0.533-0.521l-0.032-2.592c-2e-3 -0.262 0.184-0.48 0.521-0.534zm6.363-0.077l4.289-0.052c0.292-4e-3 0.53 0.23 0.534 0.521l0.032 2.593c2e-3 0.291-0.231 0.53-0.521 0.534l-4.29 0.051c-0.291 4e-3 -0.531-0.23-0.534-0.521l-0.031-2.593c-4e-3 -0.291 0.229-0.53 0.521-0.533zm6.361-0.077l4.29-0.052c0.291-4e-3 0.53 0.23 0.534 0.52l0.031 2.594c4e-3 0.29-0.229 0.53-0.521 0.533l-4.29 0.053c-0.291 3e-3 -0.53-0.23-0.533-0.522l-0.032-2.593c-3e-3 -0.26 0.184-0.479 0.521-0.533zm-14.723-2.32c-0.327 0.21-0.742 0.225-1.083 0.039s-0.554-0.543-0.555-0.931c-9e-3 -3.053-0.026-8.954-0.035-12.115 0-0.403 0.225-0.771 0.585-0.952 0.359-0.183 0.79-0.145 1.113 0.095 2.386 1.769 6.667 4.945 8.772 6.506 0.281 0.208 0.442 0.542 0.43 0.891s-0.194 0.671-0.489 0.859l-8.738 5.608zm-17.329-20.684l4.29-0.018c0.291 0 0.528 0.235 0.529 0.526l0.011 2.593c2e-3 0.291-0.235 0.529-0.525 0.53l-4.291 0.018c-0.291 0-0.527-0.234-0.529-0.526l-0.011-2.593c-1e-3 -0.292 0.235-0.528 0.526-0.53zm6.362-0.026l4.29-0.018c0.291-1e-3 0.528 0.235 0.53 0.526l0.01 2.593c2e-3 0.291-0.234 0.528-0.525 0.53l-4.29 0.017c-0.291 1e-3 -0.528-0.233-0.53-0.525l-0.011-2.593c0-0.292 0.235-0.528 0.526-0.53zm6.362-0.026l4.29-0.018c0.291-1e-3 0.529 0.234 0.529 0.525l0.012 2.594c1e-3 0.29-0.235 0.528-0.526 0.529l-4.29 0.018c-0.291 1e-3 -0.528-0.234-0.53-0.525l-0.01-2.594c-1e-3 -0.26 0.186-0.478 0.525-0.529zm6.362-0.027l4.29-0.017c0.291-2e-3 0.529 0.234 0.53 0.525l0.01 2.593c2e-3 0.291-0.233 0.529-0.524 0.53l-4.29 0.018c-0.292 1e-3 -0.529-0.234-0.53-0.525l-0.011-2.594c0-0.26 0.187-0.478 0.525-0.53zm6.363-0.026l4.29-0.018c0.291-1e-3 0.528 0.235 0.529 0.526l0.011 2.593c1e-3 0.291-0.234 0.529-0.525 0.53l-4.29 0.017c-0.291 2e-3 -0.529-0.234-0.53-0.524l-0.01-2.595c-1e-3 -0.259 0.187-0.477 0.525-0.529zm6.362-0.026l4.29-0.018c0.291-1e-3 0.528 0.235 0.53 0.525l0.01 2.594c2e-3 0.291-0.233 0.528-0.525 0.529l-4.29 0.018c-0.291 1e-3 -0.529-0.234-0.529-0.525l-0.011-2.594c-1e-3 -0.26 0.187-0.477 0.525-0.529z" style="fill:url(#_Linear2)"/>
 <defs>
  <linearGradient id="_Linear1" x2="1" gradientTransform="matrix(1.41632,-58.8936,58.8936,1.41632,144.411,64.8075)" gradientUnits="userSpaceOnUse">
   <stop style="stop-color:#2f2f2f" offset="0"/>
   <stop style="stop-color:#424242" offset="1"/>
  </linearGradient>
  <linearGradient id="_Linear2" x2="1" gradientTransform="matrix(45.791,0,0,45.791,9.10454,476.391)" gradientUnits="userSpaceOnUse">
   <stop style="stop-color:#ff4700" offset="0"/>
   <stop style="stop-color:#ad0000" offset="1"/>
  </linearGradient>
 </defs>
</svg>
