<svg style="clip-rule:evenodd;fill-rule:evenodd;stroke-linejoin:round;stroke-miterlimit:2" version="1.1" viewBox="0 0 48 48" xmlns="http://www.w3.org/2000/svg">
 <path d="m39.44 45.668h-30.88c-3.438 0-6.228-2.79-6.228-6.228v-30.88c0-3.438 2.79-6.228 6.228-6.228h30.88c3.438 0 6.228 2.79 6.228 6.228v30.88c0 3.438-2.79 6.228-6.228 6.228z" style="fill:url(#_Linear1)"/>
 <g transform="translate(-.0291329 -.148883)">
  <path d="m42.342 7.926c0-0.602-0.239-1.18-0.665-1.606s-1.004-0.665-1.606-0.665h-32.084c-0.602 0-1.18 0.239-1.606 0.665-0.425 0.426-0.665 1.004-0.665 1.606v10.235h36.626v-10.235z" style="fill:rgb(154,186,172)"/>
 </g>
 <g transform="matrix(1,0,0,1.06178,0,-2.54295)">
  <path d="m22.987 23.482c0-0.883-0.76-1.598-1.698-1.598h-13.904c-0.938 0-1.698 0.715-1.698 1.598v5.289c0 0.883 0.76 1.599 1.698 1.599h13.904c0.938 0 1.698-0.716 1.698-1.599v-5.289z" style="fill:rgb(99,131,134)"/>
 </g>
 <g transform="matrix(1,0,0,1.06178,20.219,-2.54295)">
  <path d="m22.094 23.482c0-0.883-0.76-1.598-1.698-1.598h-13.904c-0.938 0-1.698 0.715-1.698 1.598v5.289c0 0.883 0.76 1.599 1.698 1.599h13.904c0.938 0 1.698-0.716 1.698-1.599v-5.289z" style="fill:rgb(112,112,112)"/>
 </g>
 <g transform="matrix(1,0,0,1.06178,0,8.91791)">
  <path d="m22.987 23.482c0-0.883-0.76-1.598-1.698-1.598h-13.904c-0.938 0-1.698 0.715-1.698 1.598v5.289c0 0.883 0.76 1.599 1.698 1.599h13.904c0.938 0 1.698-0.716 1.698-1.599v-5.289z" style="fill:rgb(112,112,112)"/>
 </g>
 <g transform="matrix(1,0,0,1.06178,20.219,8.91791)">
  <path d="m22.094 23.482c0-0.883-0.76-1.598-1.698-1.598h-13.904c-0.938 0-1.698 0.715-1.698 1.598v5.289c0 0.883 0.76 1.599 1.698 1.599h13.904c0.938 0 1.698-0.716 1.698-1.599v-5.289z" style="fill:rgb(5,124,154)"/>
 </g>
 <g transform="translate(18.4833 -11.8048)">
  <rect x="11.463" y="36.659" width="7.432" height=".688" style="fill-opacity:.75;fill:white"/>
 </g>
 <path d="m37.379 37.448h-7.432v0.687h7.432v-0.687zm0-2.266h-7.432v0.688h7.432v-0.688z" style="fill-opacity:.75;fill:white"/>
 <path d="m14.681 36.315h3.372v0.688h-3.372v3.372h-0.688v-3.372h-3.372v-0.688h3.372v-3.372h0.688v3.372z" style="fill-opacity:.75;fill:white"/>
 <g transform="matrix(1.07087 0 0 1.16442 .688467 -3.82798)">
  <path d="m12.838 27.085 2.594-5.867 0.678 0.253-2.906 6.575c-0.055 0.124-0.184 0.206-0.329 0.21s-0.279-0.071-0.341-0.192l-1.425-2.751h-1.389v-0.674h1.62c0.141 0 0.27 0.075 0.331 0.192l1.167 2.254z" style="fill-opacity:.75;fill:white"/>
 </g>
 <path d="m11.472 15.506c6e-3 -0.597 0.058-6.565 1e-3 -7.241-0.041-0.497 0.097-0.896 0.395-1.167 0.275-0.249 0.71-0.402 1.344-0.359l-0.053 0.783c-0.355-0.024-0.61 0.017-0.764 0.157-0.13 0.119-0.158 0.303-0.14 0.521 0.06 0.718 1e-3 7.361 1e-3 7.361 0 0.027-3e-3 0.053-8e-3 0.079 0 0-1e-3 5e-3 -4e-3 0.014-0.017 0.076-0.118 0.47-0.487 0.775-0.254 0.21-0.64 0.388-1.231 0.354l0.045-0.783c0.327 0.019 0.546-0.06 0.687-0.176 0.138-0.114 0.195-0.255 0.214-0.318zm22.09-1.155c0 0.024-5e-3 0.045-0.016 0.063-0.01 0.018-0.028 0.032-0.054 0.043-0.025 0.01-0.059 0.018-0.101 0.024-0.041 6e-3 -0.092 9e-3 -0.152 9e-3 -0.063 0-0.115-3e-3 -0.157-9e-3s-0.077-0.014-0.104-0.024c-0.027-0.011-0.046-0.025-0.058-0.043s-0.018-0.039-0.018-0.063v-0.534c-0.213 0.23-0.433 0.41-0.662 0.539-0.229 0.128-0.48 0.193-0.752 0.193-0.297 0-0.55-0.058-0.759-0.173-0.21-0.115-0.38-0.271-0.51-0.467s-0.225-0.427-0.285-0.692c-0.06-0.264-0.09-0.544-0.09-0.837 0-0.347 0.038-0.661 0.113-0.941 0.074-0.279 0.185-0.518 0.332-0.716 0.146-0.197 0.328-0.349 0.545-0.455 0.217-0.107 0.468-0.16 0.752-0.16 0.237 0 0.453 0.052 0.649 0.155s0.39 0.255 0.582 0.456v-2.348c0-0.021 5e-3 -0.042 0.015-0.061 0.011-0.02 0.031-0.035 0.061-0.045s0.068-0.019 0.115-0.027c0.046-7e-3 0.105-0.011 0.177-0.011 0.075 0 0.136 4e-3 0.184 0.011 0.048 8e-3 0.085 0.017 0.112 0.027s0.047 0.025 0.061 0.045c0.013 0.019 0.02 0.04 0.02 0.061v5.98zm-10.421-0.274c0 0.09-6e-3 0.159-0.018 0.207s-0.028 0.081-0.047 0.101c-0.02 0.019-0.049 0.037-0.088 0.054-0.039 0.016-0.085 0.03-0.139 0.042s-0.112 0.023-0.175 0.032-0.129 0.013-0.198 0.013c-0.14 0-0.271-0.014-0.393-0.042-0.121-0.029-0.228-0.088-0.321-0.178-0.093-0.089-0.17-0.217-0.233-0.384-0.063-0.166-0.11-0.386-0.142-0.66-0.031-0.274-0.045-0.61-0.04-1.008 4e-3 -0.398 0.029-0.875 0.074-1.432h-1.437c9e-3 0.485-1e-3 0.918-0.031 1.298s-0.068 0.712-0.115 0.996c-0.046 0.285-0.099 0.524-0.159 0.717s-0.103 0.319-0.128 0.379-0.046 0.104-0.063 0.132c-0.016 0.029-0.031 0.051-0.045 0.068-0.013 0.016-0.03 0.03-0.051 0.04-0.021 0.011-0.045 0.018-0.072 0.023l-0.243 0.015c-0.084 0-0.15-2e-3 -0.2-6e-3 -0.049-5e-3 -0.086-0.012-0.112-0.023-0.025-0.01-0.042-0.023-0.051-0.038s-0.014-0.03-0.014-0.045c0-0.027 0.011-0.07 0.034-0.13 0.022-0.06 0.051-0.131 0.087-0.213 0.036-0.083 0.084-0.22 0.144-0.411 0.06-0.192 0.113-0.418 0.159-0.678 0.047-0.261 0.083-0.564 0.108-0.909 0.026-0.346 0.038-0.751 0.038-1.215h-0.669c-0.048 0-0.085-0.026-0.112-0.079-0.027-0.052-0.04-0.13-0.04-0.235 0-0.054 3e-3 -0.101 9e-3 -0.142 6e-3 -0.04 0.015-0.073 0.027-0.098 0.012-0.026 0.027-0.045 0.047-0.057 0.019-0.012 0.042-0.018 0.069-0.018h4.198c0.027 0 0.051 6e-3 0.07 0.018 0.02 0.012 0.036 0.031 0.049 0.057 0.014 0.025 0.024 0.058 0.03 0.098 6e-3 0.041 9e-3 0.088 9e-3 0.142 0 0.105-0.015 0.183-0.043 0.235-0.028 0.053-0.067 0.079-0.115 0.079h-0.678c-0.023 0.482-0.035 0.892-0.035 1.23 0 0.339 9e-3 0.621 0.026 0.849 0.018 0.227 0.044 0.407 0.077 0.539 0.033 0.131 0.071 0.231 0.114 0.298 0.044 0.068 0.09 0.11 0.14 0.128 0.049 0.018 0.099 0.027 0.15 0.027 0.084 0 0.176-0.012 0.276-0.038 0.1-0.025 0.159-0.038 0.177-0.038s0.033 4e-3 0.043 0.011c0.011 8e-3 0.02 0.021 0.027 0.041 8e-3 0.019 0.013 0.045 0.018 0.078 4e-3 0.033 7e-3 0.076 7e-3 0.13zm3.96 0.189c0.024 0.042 0.036 0.077 0.036 0.105 0 0.029-0.014 0.052-0.043 0.07-0.028 0.018-0.072 0.031-0.13 0.038-0.058 8e-3 -0.134 0.011-0.227 0.011-0.09 0-0.161-2e-3 -0.213-6e-3 -0.052-5e-3 -0.094-0.012-0.126-0.023-0.031-0.01-0.055-0.024-0.072-0.04-0.016-0.017-0.03-0.035-0.042-0.056l-0.97-1.603-0.965 1.603c-0.012 0.021-0.027 0.039-0.043 0.056-0.017 0.016-0.041 0.03-0.072 0.04-0.031 0.011-0.073 0.018-0.123 0.023-0.051 4e-3 -0.119 6e-3 -0.202 6e-3 -0.087 0-0.158-3e-3 -0.214-0.011-0.055-7e-3 -0.096-0.02-0.121-0.038s-0.037-0.041-0.036-0.07c2e-3 -0.028 0.016-0.063 0.043-0.105l1.257-1.971-1.19-1.899c-0.024-0.042-0.037-0.078-0.038-0.106-2e-3 -0.028 0.012-0.052 0.04-0.072 0.029-0.019 0.072-0.032 0.131-0.038 0.058-6e-3 0.135-9e-3 0.231-9e-3 0.087 0 0.156 2e-3 0.209 7e-3 0.052 4e-3 0.093 0.011 0.123 0.02s0.052 0.021 0.067 0.036 0.029 0.033 0.041 0.054l0.92 1.504 0.934-1.504c0.012-0.018 0.026-0.035 0.041-0.05s0.035-0.027 0.06-0.038c0.026-0.01 0.062-0.018 0.108-0.022 0.046-5e-3 0.11-7e-3 0.191-7e-3 0.087 0 0.158 3e-3 0.213 9e-3s0.097 0.017 0.124 0.034c0.026 0.016 0.038 0.039 0.035 0.069s-0.018 0.068-0.044 0.113l-1.181 1.876 1.248 1.994zm10.893 0c0.024 0.042 0.036 0.077 0.036 0.105 0 0.029-0.015 0.052-0.043 0.07s-0.072 0.031-0.13 0.038c-0.059 8e-3 -0.134 0.011-0.227 0.011-0.09 0-0.161-2e-3 -0.213-6e-3 -0.053-5e-3 -0.095-0.012-0.126-0.023-0.031-0.01-0.055-0.024-0.072-0.04-0.016-0.017-0.031-0.035-0.043-0.056l-0.969-1.603-0.966 1.603c-0.012 0.021-0.026 0.039-0.042 0.056-0.017 0.016-0.041 0.03-0.072 0.04-0.032 0.011-0.073 0.018-0.124 0.023-0.051 4e-3 -0.118 6e-3 -0.202 6e-3 -0.087 0-0.158-3e-3 -0.213-0.011-0.055-7e-3 -0.096-0.02-0.121-0.038-0.026-0.018-0.038-0.041-0.036-0.07 1e-3 -0.028 0.016-0.063 0.043-0.105l1.257-1.971-1.19-1.899c-0.024-0.042-0.037-0.078-0.038-0.106-2e-3 -0.028 0.012-0.052 0.04-0.072 0.029-0.019 0.072-0.032 0.13-0.038 0.059-6e-3 0.136-9e-3 0.232-9e-3 0.086 0 0.156 2e-3 0.208 7e-3 0.053 4e-3 0.094 0.011 0.124 0.02s0.052 0.021 0.067 0.036 0.029 0.033 0.041 0.054l0.92 1.504 0.934-1.504c0.012-0.018 0.025-0.035 0.04-0.05s0.036-0.027 0.061-0.038c0.025-0.01 0.061-0.018 0.108-0.022 0.046-5e-3 0.11-7e-3 0.191-7e-3 0.086 0 0.157 3e-3 0.213 9e-3 0.055 6e-3 0.096 0.017 0.123 0.034 0.027 0.016 0.039 0.039 0.036 0.069s-0.018 0.068-0.045 0.113l-1.181 1.876 1.249 1.994zm-20.074-0.442v0.639h-3.582c-5e-3 -0.16 0.021-0.314 0.077-0.462 0.092-0.244 0.238-0.484 0.439-0.721 0.2-0.236 0.491-0.51 0.87-0.821 0.589-0.483 0.987-0.865 1.195-1.148 0.207-0.282 0.31-0.549 0.31-0.8 0-0.264-0.094-0.486-0.283-0.667-0.188-0.182-0.434-0.272-0.737-0.272-0.321 0-0.577 0.096-0.769 0.288-0.193 0.193-0.29 0.459-0.293 0.799l-0.684-0.07c0.047-0.511 0.224-0.899 0.529-1.167 0.306-0.267 0.716-0.401 1.231-0.401 0.52 0 0.932 0.144 1.235 0.433 0.304 0.288 0.455 0.645 0.455 1.072 0 0.217-0.044 0.43-0.133 0.639-0.089 0.21-0.236 0.431-0.442 0.662-0.206 0.232-0.548 0.55-1.026 0.954-0.399 0.335-0.656 0.563-0.769 0.682-0.113 0.12-0.207 0.24-0.281 0.361h2.658zm14.897-2.315c-0.201-0.248-0.395-0.438-0.582-0.568s-0.382-0.195-0.586-0.195c-0.188 0-0.348 0.045-0.48 0.134-0.132 0.09-0.239 0.208-0.321 0.355s-0.142 0.313-0.18 0.499c-0.037 0.185-0.056 0.374-0.056 0.565 0 0.204 0.016 0.403 0.047 0.597 0.032 0.195 0.086 0.368 0.164 0.519s0.181 0.272 0.31 0.364c0.129 0.091 0.29 0.137 0.485 0.137 0.099 0 0.194-0.014 0.285-0.041s0.185-0.072 0.281-0.134c0.095-0.063 0.196-0.145 0.3-0.245 0.105-0.1 0.216-0.224 0.333-0.371v-1.616z" style="fill-opacity:.75;fill:white"/>
 <defs>
  <linearGradient id="_Linear1" x2="1" gradientTransform="matrix(2.06275e-15,-33.6872,33.6872,2.06275e-15,923.28,40.4502)" gradientUnits="userSpaceOnUse">
   <stop style="stop-color:rgb(47,47,47)" offset="0"/>
   <stop style="stop-color:rgb(68,68,68)" offset="1"/>
  </linearGradient>
 </defs>
</svg>
