<svg style="clip-rule:evenodd;fill-rule:evenodd;stroke-linejoin:round;stroke-miterlimit:1.41421" version="1.1" viewBox="0 0 64 64" xmlns="http://www.w3.org/2000/svg">
 <path d="m57.75 9.493c0-1.671-1.356-3.027-3.028-3.027h-45.445c-1.671 0-3.027 1.356-3.027 3.027v45.445c0 1.671 1.356 3.028 3.027 3.028h45.445c1.671 0 3.028-1.357 3.028-3.028v-45.445z" style="fill:url(#_Linear1)"/>
 <path d="m19.351 24.03l-1.07 0.047c-0.659 0.03-1.321 0.114-1.727 0.221-1.958 0.514-3.876 1.802-4.789 3.213-0.487 0.756-0.65 1.279-0.645 2.089 5e-3 0.756 0.189 1.238 0.597 1.558 0.264 0.208 0.964 0.431 1.351 0.431h0.271l-0.113-0.317c-0.155-0.431-0.149-1.881 9e-3 -2.553 0.192-0.791 0.601-1.512 1.181-2.083 0.486-0.483 1.218-0.977 1.631-1.099 0.181-0.053 0.191-0.033 0.191 0.395-3e-3 0.942 0.257 11.929 0.306 12.917l0.05 1.038h1.507c1.355 0 1.512-0.015 1.564-0.149 0.218-0.551 5.802-15.531 5.802-15.564 0-0.023-0.33-0.031-0.733-0.018l-0.733 0.025-2.209 6.418-2.209 6.418-0.063-3.497c-0.034-1.923-0.085-4.846-0.116-6.494l-0.053-2.996zm31.97 14.668s0.258-1.769 0.037-1.417c-0.324 0.515-0.693 0.743-1.203 0.743-0.556 0-0.812-0.26-0.812-0.826 0-0.316 0.899-4.797 1.521-7.579l0.071-0.319-1.537 0.022-1.536 0.024-0.077 0.447-0.076 0.447-0.153-0.345c-0.242-0.539-0.696-0.703-1.844-0.663-0.823 0.029-0.953 0.057-1.536 0.334-1.938 0.923-3.362 3.414-3.641 6.369-0.083 0.883-0.104 0.957-0.38 1.293-0.318 0.388-0.89 0.711-1.256 0.711-0.126 0-0.36-0.054-0.518-0.12-0.229-0.096-0.301-0.184-0.345-0.422-0.074-0.389-0.07-0.406 1.306-6.824 0.644-3.004 1.163-5.471 1.154-5.483-0.036-0.05-3.034 0.398-3.09 0.461-0.033 0.038-0.526 2.259-1.095 4.937s-1.108 5.147-1.199 5.488c-0.322 1.212-0.861 1.936-1.502 2.022-0.725 0.098-1.05-0.177-1.044-0.882 2e-3 -0.223 0.349-2.028 0.77-4.013 0.422-1.984 0.767-3.652 0.767-3.704 0-0.068-0.444-0.096-1.515-0.096h-1.514l-0.058 0.381c-0.066 0.444-0.132 0.476-0.284 0.132-0.18-0.408-0.69-0.598-1.602-0.598-1.361 0-2.203 0.387-3.219 1.48-1.207 1.299-1.922 2.994-2.155 5.108-0.329 2.98 1.289 4.735 3.683 3.995 0.641-0.198 1.409-0.732 1.88-1.306l0.325-0.397 0.139 0.45c0.192 0.617 0.384 0.884 0.825 1.142 0.752 0.442 2.087 0.331 3.06-0.251 0.25-0.15 0.652-0.489 0.893-0.754l0.437-0.481 0.149 0.419c0.386 1.088 1.502 1.553 2.951 1.23 0.801-0.18 1.423-0.54 2.077-1.205l0.526-0.535 0.16 0.362c0.238 0.524 0.642 0.954 1.151 1.224 0.377 0.196 0.532 0.225 1.236 0.227 0.736 3e-3 0.854-0.021 1.389-0.275 0.426-0.201 0.755-0.448 1.206-0.907 0.611-0.622 0.62-0.627 0.669-0.4 0.287 1.335 1.404 1.901 2.956 1.498 0.743-0.194 1.274-0.522 1.853-1.144zm-21.49-8.21c0.393 0 0.8 0.379 0.8 0.745 0 0.46-1.021 5.05-1.219 5.478-0.236 0.512-0.57 0.861-1.024 1.069-0.408 0.187-0.684 0.194-0.994 0.026-0.526-0.285-0.673-1.143-0.453-2.642 0.253-1.72 0.816-3.112 1.613-3.984 0.463-0.506 0.806-0.692 1.277-0.692zm16.706 0c0.386 0 0.666 0.161 0.809 0.463 0.122 0.256 0.101 0.404-0.42 2.846-0.355 1.669-0.625 2.732-0.764 3.019-0.424 0.87-1.359 1.341-1.988 0.999-0.444-0.242-0.606-0.958-0.493-2.176 0.252-2.712 1.604-5.151 2.856-5.151z" style="fill-opacity:.9;fill-rule:nonzero;fill:#fff"/>
 <defs>
  <linearGradient id="_Linear1" x2="1" gradientTransform="matrix(3.15347e-15,-51.5,51.5,3.15347e-15,32,57.966)" gradientUnits="userSpaceOnUse">
   <stop style="stop-color:#18044a" offset="0"/>
   <stop style="stop-color:#695c89" offset="1"/>
  </linearGradient>
 </defs>
</svg>
