<svg style="clip-rule:evenodd;fill-rule:evenodd;stroke-linejoin:round;stroke-miterlimit:2" version="1.1" viewBox="0 0 48 48" xmlns="http://www.w3.org/2000/svg">
 <path d="m45.668 8.56c0-3.438-2.79-6.228-6.228-6.228h-30.88c-3.438 0-6.228 2.79-6.228 6.228v30.88c0 3.438 2.79 6.228 6.228 6.228h30.88c3.438 0 6.228-2.79 6.228-6.228v-30.88z" style="fill:url(#_Linear1)"/>
 <path d="m14.513 18.023l-0.802 0.035c-0.495 0.022-0.991 0.085-1.296 0.166-1.468 0.385-2.907 1.351-3.591 2.409-0.366 0.567-0.488 0.96-0.484 1.567 4e-3 0.567 0.142 0.929 0.448 1.169 0.198 0.155 0.723 0.323 1.013 0.323h0.203l-0.085-0.238c-0.116-0.323-0.111-1.411 7e-3 -1.915 0.144-0.593 0.451-1.134 0.886-1.562 0.365-0.362 0.914-0.733 1.223-0.824 0.136-0.04 0.143-0.025 0.143 0.296-2e-3 0.707 0.193 8.947 0.23 9.688l0.037 0.778h1.131c1.016 0 1.134-0.011 1.173-0.111 0.163-0.414 4.351-11.649 4.351-11.674 0-0.017-0.247-0.023-0.55-0.013l-0.549 0.019-1.657 4.813-1.657 4.814-0.047-2.623c-0.025-1.442-0.064-3.634-0.087-4.87l-0.04-2.247zm23.978 11.001s0.193-1.327 0.027-1.063c-0.242 0.386-0.519 0.557-0.902 0.557-0.417 0-0.609-0.195-0.609-0.619 0-0.237 0.675-3.598 1.141-5.685l0.053-0.239-1.152 0.017-1.152 0.018-0.058 0.335-0.057 0.335-0.115-0.259c-0.181-0.404-0.522-0.527-1.383-0.497-0.617 0.022-0.715 0.043-1.152 0.251-1.453 0.692-2.521 2.56-2.731 4.776-0.062 0.663-0.078 0.718-0.285 0.97-0.238 0.291-0.667 0.533-0.942 0.533-0.094 0-0.27-0.04-0.388-0.09-0.172-0.072-0.226-0.138-0.259-0.316-0.055-0.292-0.052-0.305 0.98-5.118 0.483-2.253 0.872-4.103 0.865-4.112-0.027-0.038-2.275 0.298-2.317 0.345-0.025 0.029-0.395 1.695-0.822 3.703-0.426 2.009-0.831 3.86-0.899 4.116-0.241 0.909-0.646 1.452-1.126 1.517-0.544 0.073-0.788-0.133-0.783-0.662 1e-3 -0.167 0.261-1.521 0.577-3.01 0.317-1.488 0.575-2.739 0.575-2.778 0-0.051-0.333-0.072-1.136-0.072h-1.135l-0.044 0.286c-0.049 0.333-0.099 0.357-0.213 0.099-0.135-0.306-0.517-0.448-1.201-0.448-1.021 0-1.653 0.29-2.415 1.11-0.905 0.974-1.441 2.245-1.616 3.831-0.247 2.235 0.967 3.551 2.762 2.996 0.481-0.149 1.057-0.549 1.41-0.98l0.244-0.297 0.104 0.337c0.144 0.463 0.288 0.663 0.619 0.857 0.564 0.331 1.565 0.248 2.295-0.189 0.188-0.112 0.489-0.366 0.67-0.565l0.328-0.361 0.111 0.314c0.29 0.816 1.127 1.165 2.214 0.923 0.6-0.135 1.067-0.405 1.557-0.904l0.395-0.401 0.12 0.271c0.178 0.393 0.481 0.716 0.863 0.918 0.283 0.147 0.399 0.169 0.927 0.171 0.552 2e-3 0.641-0.016 1.042-0.207 0.319-0.15 0.566-0.336 0.904-0.68 0.459-0.466 0.465-0.47 0.502-0.3 0.215 1.001 1.053 1.426 2.217 1.124 0.557-0.146 0.956-0.392 1.39-0.858zm-16.118-6.158c0.295 0 0.6 0.284 0.6 0.559 0 0.345-0.765 3.787-0.914 4.108-0.177 0.384-0.427 0.646-0.768 0.802-0.306 0.14-0.513 0.146-0.745 0.02-0.395-0.214-0.505-0.858-0.34-1.982 0.19-1.29 0.612-2.334 1.21-2.988 0.347-0.379 0.604-0.519 0.957-0.519zm12.53 0c0.289 0 0.499 0.121 0.607 0.347 0.091 0.192 0.075 0.303-0.315 2.135-0.267 1.252-0.469 2.049-0.573 2.264-0.318 0.653-1.02 1.006-1.491 0.749-0.333-0.181-0.455-0.718-0.37-1.632 0.189-2.034 1.203-3.863 2.142-3.863z" style="fill-opacity:.9;fill-rule:nonzero;fill:#fff"/>
 <defs>
  <linearGradient id="_Linear1" x2="1" gradientTransform="matrix(2.65361e-15,-43.3368,43.3368,2.65361e-15,304.215,45.6684)" gradientUnits="userSpaceOnUse">
   <stop style="stop-color:#18044a" offset="0"/>
   <stop style="stop-color:#695c89" offset="1"/>
  </linearGradient>
 </defs>
</svg>
