<svg clip-rule="evenodd" fill-rule="evenodd" stroke-linejoin="round" stroke-miterlimit="2" viewBox="0 0 48 48" xmlns="http://www.w3.org/2000/svg">
 <linearGradient id="a" x2="1" gradientTransform="matrix(.341331 -26.9057 26.9057 .341331 25.4591 33.871)" gradientUnits="userSpaceOnUse">
  <stop stop-color="#197ff1" offset="0"/>
  <stop stop-color="#1fb5f9" offset="1"/>
 </linearGradient>
 <path d="m35.319 33.211h-17.675v6.395c0 .811.322 1.589.896 2.162.573.574 1.351.896 2.162.896h11.559c.811 0 1.589-.322 2.162-.896.574-.573.896-1.351.896-2.162z" fill="#106ede"/>
 <path d="m16.949 13.446c-.942-.739-2.125-1.179-3.409-1.179-3.024 0-5.485 2.439-5.562 5.478-3.121 1.184-5.343 4.229-5.343 7.799 0 4.217 3.1 7.702 7.122 8.251v.076h28.486v-.014c3.972-.233 7.122-3.564 7.122-7.638 0-3.93-2.929-7.167-6.701-7.602.016-.239.025-.481.025-.725 0-6.09-5.082-11.027-11.351-11.027-4.64 0-8.629 2.705-10.389 6.581z" fill="url(#a)"/>
 <path d="m32.47 41.985h-11.739c-1.243 0-2.252-1.008-2.252-2.251v-21.473c0-1.243 1.009-2.251 2.252-2.251h11.739c1.243 0 2.252 1.008 2.252 2.251v21.473c0 1.243-1.009 2.251-2.252 2.251zm0-3.994h-11.739v1.743h11.739zm0-4.12h-11.739v1.743h11.739zm0-3.333h-11.739v1.743h11.739zm0-3.952h-11.739v1.743h11.739zm-.363-8.484h-3.371v3.138h3.371z" fill="#ebebeb"/>
</svg>
