<svg width="48" height="48" xmlns="http://www.w3.org/2000/svg">
 <g transform="matrix(2 0 0 2 2 2)">
  <circle cx="11" cy="11.5" r="10" opacity=".2"/>
  <circle cx="11" cy="11" r="10" fill="#2e1118"/>
  <path d="m4.1641995 8.4067796 1.779661-2.3305085 3.1355933-1.6101695 2.5159522-.1493956 3.670364 1.3183346 2.337046 2.6666315.841044 3.1983279-1.25 3.75-.849454-.386616.509356.614224-.41947 1.288372-3.625419 2.23402-1.123582-.181613-.329583-.83894v.689129l-4.9137926-.918576-2.0524074-2.5.3043525-.761144-.6938605-.488856.6938605-3.75 1.25-.240485-1.25-.4644135 2.5-2.1872371 2.5-.389508.3884565.7816436v-.9614165l.861544-.014981 3.22829 1.9475399 1.243429 3.4905906-2.816442 3.505572-2.7265562.01498-1.9025967-2.411953 1.1235807-2.052408 1.8502952-.823959.786374.539319-.02996.749054-.756413.28464.741431.149811.08989.764035-2.0813225.434452-.7501055-1.063657.1048675.704111 1.3033535 1.378259 2.801461-1.633989-.239697-1.871583-2.187236-1.4681452-3.5326435 2.3520292.3416734 3.056139 1.5130886 1.483126 2.3520295.599244 2.876365-1.183505 1.666844-2.696594-.528281-4.020711-2.786481-2.5-4.1852385-.385565z" opacity=".2"/>
  <path d="m4.1641995 7.9067796 1.779661-2.3305085 3.1355933-1.6101695 2.5159522-.1493956 3.670364 1.3183346 2.337046 2.6666315.841044 3.1983279-1.25 3.75-.849454-.386616.509356.614224-.41947 1.288372-3.625419 2.23402-1.123582-.181613-.329583-.83894v.689129l-4.9137926-.918576-2.0524074-2.5.3043525-.761144-.6938605-.488856.6938605-3.75 1.25-.2404852-1.25-.4644133 2.5-2.1872371 2.5-.389508.3884565.7816436v-.9614165l.861544-.014981 3.22829 1.9475399 1.243429 3.4905906-2.816442 3.505572-2.7265562.01498-1.9025967-2.411953 1.1235807-2.052408 1.8502952-.8239589.786374.5393189-.02996.749054-.756413.28464.741431.149811.08989.764035-2.0813225.434452-.7501055-1.063657.1048675.704111 1.3033535 1.378259 2.801461-1.633989-.239697-1.871583-2.187236-1.4681452-3.5326435 2.3520292.3416734 3.056139 1.5130886 1.483126 2.3520295.599244 2.876365-1.183505 1.666844-2.696594-.528281-4.020711-2.786481-2.5-4.1852385-.385565z" fill="#ae32b0"/>
  <g fill="#fff">
   <path d="m11 1a10 10 0 0 0 -10 10 10 10 0 0 0 .0098.293 10 10 0 0 1 9.9902-9.793 10 10 0 0 1 9.99 9.707 10 10 0 0 0 .01-.207 10 10 0 0 0 -10-10z" opacity=".1"/>
   <path d="m11.595703 3.8164062-2.5156249.1503907-3.1367187 1.609375-1.7792969 2.3300781.6464844-.3457031 1.1328125-1.484375 3.1367187-1.609375 2.5156249-.1503907 3.669922 1.3183594 2.337891 2.6660156.765625 2.9199218.074218-.220703-.839843-3.1992188-2.337891-2.6660156zm-1.302734 2.46875-.210938.00391v.5l.861328-.015625 3.228516 1.9472656 1.121094 3.1445312.123047-.154296-1.244141-3.4902389-3.087891-1.8632812zm-.5996096.1835938-2.5.3886719-2.5 2.1875.4003906.1484375 2.0996094-1.8359375 2.5-.3886719.3886716.78125v-.5zm-4.6367188 3.2109375-.3632812.0703125-.6933594 3.75.0820312.056641.6113282-3.306641 1.25-.240234zm5.8867184.2636719-1.849609.8242186-1.1230469 2.052734.1621094.205079.9609375-1.757813 1.849609-.824219.767579.525391.01953-.486328zm-3.6972652 1.7832026-.052734.03516.3417968 3.05664 1.5136719 1.482422 2.3515625.59961 2.876953-1.183594 1.666015-2.695313-.05469-.412109-1.611328 2.607422-2.876953 1.183594-2.3515625-.59961-1.5136719-1.482422zm4.4472652.0078-.75.283203.742188.148438.0332.277343.05664-.01172zm1.400391.550781-2.742188 1.59961-.5175776-.548828-.140625.0293-.4902344-.697265-.1542969-.16211-.00977-.07031-.095703-.134766.1054687.705078 1.3027342 1.378907 2.802739-1.634759zm-8.5566406 2.093763-.1484375.371094.1347656.164062.1699219-.425781zm11.806641.484375.392578.47461.08398-.257813z" opacity=".2"/>
  </g>
 </g>
</svg>
