<svg style="clip-rule:evenodd;fill-rule:evenodd;stroke-linejoin:round;stroke-miterlimit:2" version="1.1" viewBox="0 0 48 48" xmlns="http://www.w3.org/2000/svg">
 <circle cx="24.174" cy="23.921" r="22.59" style="fill:url(#_Linear1)"/>
 <circle cx="24.174" cy="23.921" r="20.956" style="fill:url(#_Linear2)"/>
 <path d="m35.848 16.545c-0.475 0.18-0.945 0.374-1.424 0.545-0.1 0.037-0.262 0.041-0.339-0.015-0.159-0.121-0.279-0.291-0.415-0.441-0.07-0.079-0.124-0.185-0.212-0.236-0.207-0.118-0.159-0.284-0.108-0.45 0.025-0.076 0.085-0.143 0.134-0.208 0.291-0.398 0.587-0.791 0.876-1.19 0.159-0.222 0.14-0.369-0.052-0.559-0.064-0.064-0.126-0.13-0.194-0.191-0.185-0.17-0.298-0.203-0.474-0.101-0.034 0.019-0.072 0.042-0.112 0.074-0.37 0.277-0.739 0.556-1.108 0.835-0.053 0.042-0.101 0.077-0.145 0.102-0.186 0.107-0.308 0.075-0.544-0.095-0.231-0.166-0.464-0.33-0.691-0.502-0.037-0.026-0.074-0.084-0.071-0.123 0.014-0.127 0.027-0.258 0.071-0.376 0.178-0.468 0.368-0.932 0.552-1.399 0.074-0.191 0.094-0.362-0.154-0.453-0.112-0.041-0.212-0.118-0.318-0.176-0.168-0.091-0.257-0.119-0.35-0.065-0.051 0.029-0.103 0.083-0.169 0.166-0.316 0.389-0.629 0.781-0.939 1.173-0.053 0.068-0.111 0.121-0.174 0.157-0.098 0.058-0.212 0.069-0.344 0.019-0.227-0.088-0.458-0.169-0.674-0.28-0.383-0.197-0.383-0.213-0.333-0.65 0.063-0.567 0.128-1.134 0.196-1.728-0.215-0.051-0.423-0.097-0.629-0.149-0.175-0.044-0.268-0.06-0.338-0.019-0.061 0.035-0.105 0.115-0.168 0.258-0.203 0.46-0.401 0.92-0.604 1.379-0.047 0.106-0.112 0.181-0.193 0.228-0.084 0.048-0.185 0.066-0.303 0.05-0.226-0.028-0.457-0.043-0.678-0.094-0.182-0.042-0.402-0.117-0.441-0.319-0.119-0.621-0.204-1.247-0.306-1.906-0.194-4e-3 -0.427-0.017-0.661-0.013-0.132 1e-3 -0.217 0.01-0.275 0.043-0.076 0.045-0.106 0.132-0.13 0.297-0.069 0.436-0.126 0.874-0.198 1.309-0.027 0.154-0.057 0.323-0.141 0.45-0.016 0.023-0.042 0.046-0.078 0.066-0.273 0.157-1.056 0.201-1.237 0.062-6e-3 -7e-3 -0.01-0.013-0.018-0.016-0.221-0.13-0.29-0.36-0.379-0.577-0.163-0.389-0.327-0.778-0.524-1.252-0.158 0.029-0.385 0.06-0.606 0.115-0.118 0.029-0.201 0.055-0.261 0.089-0.132 0.076-0.138 0.188-0.109 0.45 0.054 0.477 0.106 0.954 0.161 1.43 0.022 0.187-0.022 0.353-0.182 0.444-0.011 7e-3 -0.022 0.013-0.033 0.018-0.247 0.116-0.505 0.209-0.76 0.307-0.171 0.066-0.314 9e-3 -0.426-0.127-0.248-0.305-0.502-0.607-0.738-0.92-0.421-0.558-0.403-0.639-0.952-0.325-0.054 0.032-0.115 0.068-0.18 0.106-0.231 0.134-0.28 0.258-0.184 0.513 0.174 0.462 0.356 0.921 0.538 1.38 0.123 0.311 0.083 0.448-0.189 0.641-0.137 0.096-0.271 0.195-0.404 0.295-0.057 0.043-0.106 0.077-0.151 0.104-0.177 0.101-0.289 0.071-0.517-0.096-0.372-0.274-0.738-0.558-1.107-0.835-0.201-0.151-0.308-0.191-0.442-0.113-0.053 0.031-0.112 0.081-0.183 0.149-0.074 0.074-0.149 0.15-0.223 0.225-0.255 0.263-0.254 0.385-0.037 0.663 0.295 0.376 0.576 0.76 0.861 1.142 0.14 0.188 0.143 0.378-9e-3 0.565-0.091 0.111-0.179 0.225-0.266 0.339-0.126 0.168-0.214 0.272-0.307 0.324-0.138 0.08-0.283 0.04-0.572-0.077-0.416-0.169-0.834-0.333-1.25-0.502-0.119-0.047-0.219-0.052-0.303-4e-3 -0.052 0.03-0.097 0.08-0.137 0.154-0.089 0.166-0.198 0.323-0.276 0.495-0.061 0.132-0.148 0.301 0.126 0.32 0.044 4e-3 0.088 0.057 0.129 0.089 0.322 0.256 0.642 0.513 0.965 0.769 0.284 0.227 0.355 0.507 0.211 0.849-0.05 0.119-0.101 0.238-0.149 0.357-0.085 0.207-0.153 0.325-0.255 0.383-0.102 0.059-0.238 0.06-0.459 0.033-0.46-0.055-0.92-0.116-1.382-0.157-0.08-8e-3 -0.204 0.013-0.27 0.05-0.021 0.012-0.036 0.026-0.041 0.042-0.117 0.296-0.19 0.609-0.274 0.895 0.142 0.042 0.221 0.057 0.294 0.089 0.433 0.187 0.864 0.378 1.296 0.568 0.29 0.128 0.417 0.348 0.378 0.666-0.022 0.181-0.046 0.362-0.071 0.542-0.031 0.218-0.075 0.334-0.195 0.401-0.065 0.038-0.154 0.062-0.273 0.082-0.503 0.08-1.007 0.153-1.511 0.224-0.061 9e-3 -0.12 0.024-0.166 0.05-0.06 0.036-0.1 0.089-0.105 0.176-0.014 0.283-0.01 0.569-0.013 0.845 0.675 0.105 1.311 0.201 1.945 0.305 0.112 0.018 0.198 0.064 0.216 0.213 0.032 0.269 0.112 0.531 0.151 0.8 0.045 0.318 0 0.456-0.204 0.574-0.057 0.032-0.125 0.063-0.208 0.096-0.43 0.17-0.852 0.362-1.278 0.54-0.025 0.011-0.047 0.021-0.068 0.033-0.16 0.092-0.203 0.234-0.147 0.426 0.033 0.116 0.059 0.234 0.09 0.351 0.075 0.289 0.101 0.312 0.407 0.284 0.309-0.028 0.615-0.069 0.924-0.103 0.233-0.026 0.467-0.068 0.701-0.069 0.118 0 0.303 0.038 0.342 0.117 0.144 0.294 0.238 0.615 0.355 0.922 0.072 0.192 0.018 0.343-0.135 0.465-0.332 0.265-0.671 0.519-0.998 0.791-0.437 0.364-0.571 0.348-0.194 0.93 9e-3 0.013 0.015 0.026 0.023 0.039 0.132 0.23 0.276 0.286 0.519 0.191 0.326-0.127 0.647-0.262 0.973-0.39 0.176-0.069 0.351-0.164 0.534-0.191 0.142-0.02 0.34-1e-3 0.435 0.087 0.147 0.131 0.226 0.337 0.334 0.51 0.308 0.489 0.338 0.474 7e-3 0.916-0.219 0.291-0.431 0.587-0.654 0.877-0.427 0.552-0.273 0.511 0.063 0.845 0.254 0.255 0.395 0.268 0.564 0.171 0.058-0.035 0.12-0.08 0.19-0.134 0.368-0.28 0.737-0.56 1.114-0.828 0.025-0.016 0.048-0.031 0.071-0.046 0.196-0.112 0.362-0.088 0.558 0.056 0.159 0.116 0.316 0.235 0.47 0.359 0.309 0.25 0.371 0.445 0.251 0.731-0.196 0.474-0.389 0.949-0.58 1.426-0.058 0.143-0.045 0.262 0.115 0.341 0.143 0.07 0.277 0.154 0.416 0.236 0.103 0.063 0.191 0.076 0.274 0.029 0.037-0.022 0.075-0.057 0.111-0.106 0.309-0.404 0.628-0.8 0.949-1.192 0.071-0.086 0.137-0.149 0.207-0.188 0.139-0.08 0.288-0.07 0.496 0.015 0.182 0.075 0.366 0.151 0.545 0.233 0.281 0.127 0.397 0.329 0.362 0.629-0.041 0.371-0.086 0.743-0.127 1.115-0.078 0.701-0.185 0.605 0.543 0.812 0.119 0.034 0.208 0.033 0.278-8e-3 0.065-0.037 0.114-0.107 0.156-0.211 0.178-0.444 0.374-0.881 0.569-1.319 0.071-0.159 0.145-0.261 0.245-0.317 0.101-0.059 0.227-0.071 0.402-0.051 0.182 0.021 0.362 0.045 0.542 0.069 0.305 0.039 0.517 0.245 0.565 0.558 0.073 0.494 0.145 0.987 0.207 1.482 0.02 0.149 0.091 0.221 0.231 0.227 0.166 5e-3 0.333 7e-3 0.5 2e-3 0.082 0 0.151-0.017 0.204-0.047 0.094-0.054 0.142-0.153 0.152-0.299 5e-3 -0.079 0.014-0.158 0.026-0.236 0.064-0.392 0.148-0.783 0.188-1.178 0.02-0.204 0.072-0.344 0.206-0.421 0.043-0.026 0.097-0.045 0.161-0.055 0.261-0.049 0.525-0.083 0.789-0.107 0.228-0.02 0.456 0.156 0.533 0.351 0.171 0.438 0.343 0.876 0.543 1.3 0.164 0.348 0.188 0.343 0.561 0.243 0.099-0.026 0.214-0.029 0.297-0.076 8e-3 -6e-3 0.017-0.011 0.025-0.016 0.095-0.073 0.217-0.205 0.211-0.304-0.032-0.494-0.098-0.987-0.157-1.479-0.042-0.335-0.014-0.47 0.195-0.59 0.049-0.029 0.109-0.057 0.182-0.085 0.112-0.046 0.222-0.101 0.338-0.135 0.172-0.049 0.356-0.137 0.519-0.11 0.136 0.022 0.267 0.17 0.371 0.29 0.262 0.304 0.515 0.617 0.761 0.936 0.289 0.377 0.317 0.396 0.706 0.172l0.034-0.019c0.046-0.026 0.09-0.058 0.135-0.086 0.26-0.164 0.261-0.213 0.14-0.507-0.183-0.446-0.357-0.898-0.516-1.352-0.109-0.313-0.04-0.491 0.219-0.683 0.128-0.094 0.258-0.186 0.386-0.282 0.063-0.047 0.12-0.085 0.172-0.116 0.23-0.132 0.375-0.093 0.658 0.115 0.385 0.284 0.771 0.569 1.156 0.853 0.088 0.066 0.181 0.132 0.28 0.075 0.015-9e-3 0.03-0.019 0.045-0.034 0.158-0.152 0.315-0.305 0.454-0.472 0.041-0.049 0.052-0.172 0.021-0.219-0.334-0.49-0.683-0.97-1.023-1.456-0.124-0.181-0.071-0.361 0.042-0.522 0.117-0.169 0.248-0.327 0.373-0.488 0.082-0.107 0.158-0.181 0.234-0.226 0.134-0.076 0.279-0.066 0.499 0.016 0.341 0.13 0.678 0.272 1.019 0.4 0.38 0.143 0.508 0.236 0.614 0.175 0.086-0.05 0.159-0.203 0.342-0.515 0.109-0.185 0.089-0.293-0.093-0.427-0.41-0.307-0.802-0.641-1.197-0.97-0.101-0.083-0.311-0.252-0.23-0.444 8e-3 -0.022 0.09-0.175 0.113-0.248 0.042-0.137 0.111-0.266 0.164-0.401 0.088-0.222 0.165-0.352 0.281-0.419 0.114-0.065 0.265-0.069 0.503-0.042 0.461 0.055 0.922 0.104 1.382 0.166 0.088 0.012 0.16 5e-3 0.214-0.026 0.056-0.033 0.095-0.094 0.115-0.19 0.03-0.141 0.055-0.288 0.116-0.417 0.099-0.203 0.021-0.287-0.161-0.364-0.463-0.192-0.919-0.398-1.377-0.601-0.308-0.138-0.385-0.278-0.341-0.604 0.026-0.195 0.06-0.39 0.073-0.587 0.018-0.256 0.057-0.386 0.192-0.462 0.073-0.042 0.176-0.069 0.32-0.092 0.495-0.077 0.988-0.156 1.486-0.221 0.053-6e-3 0.097-0.021 0.133-0.041 0.092-0.053 0.131-0.146 0.151-0.258 0.017-0.109-2e-3 -0.224-3e-3 -0.336 0-0.264-0.076-0.352-0.348-0.395-0.461-0.072-0.921-0.138-1.381-0.212-0.238-0.038-0.472-0.11-0.533-0.38-0.051-0.234-0.071-0.476-0.088-0.718-0.01-0.134-0.033-0.305 0.034-0.4 0.069-0.093 0.171-0.171 0.28-0.234 0.042-0.025 0.086-0.048 0.131-0.067 0.419-0.195 0.851-0.366 1.275-0.551 0.03-0.011 0.057-0.027 0.08-0.04 0.122-0.07 0.186-0.167 0.102-0.35-0.066-0.145-0.111-0.314-0.113-0.472-3e-3 -0.3-0.191-0.26-0.379-0.239-0.483 0.054-0.966 0.114-1.449 0.162-0.306 0.031-0.555-0.126-0.677-0.408-0.063-0.146-0.121-0.294-0.183-0.442-0.114-0.271-0.08-0.45 0.151-0.64 0.381-0.313 0.763-0.627 1.159-0.922 0.171-0.127 0.247-0.26 0.161-0.46-0.071-0.167-0.148-0.332-0.238-0.489-0.033-0.058-0.108-0.122-0.167-0.125-0.095-8e-3 -0.196 0.022-0.286 0.056l1e-3 -3e-3zm-18.298 0.145c0.275-0.302 0.605-0.56 0.937-0.802 0.258-0.188 0.527-0.366 0.805-0.525 0.09-0.051 0.181-0.102 0.276-0.15 1.802-0.938 3.714-1.313 5.741-1.08 1.4 0.16 2.707 0.595 3.91 1.321 0.421 0.253 0.845 0.527 1.192 0.87 0.295 0.289 0.539 0.665 0.696 1.046 0.14 0.341-1e-3 0.718-0.266 0.993-0.196 0.201-0.415 0.391-0.655 0.535-0.324 0.195-0.651 0.386-0.98 0.575-0.417 0.239-0.835 0.478-1.252 0.718-0.45 0.258-0.895 0.524-1.345 0.782-0.329 0.19-0.659 0.375-0.995 0.552-0.35 0.181-0.748 0.304-1.138 0.372-0.65 0.111-1.243-0.118-1.8-0.436-1.12-0.639-2.245-1.27-3.355-1.925-0.564-0.333-1.121-0.681-1.642-1.074-0.65-0.489-0.627-1.218-0.127-1.769l-2e-3 -3e-3zm5.273 11.718c5e-3 0.305-0.025 0.609-0.02 0.912 9e-3 0.63 0.042 1.258 0.045 1.888 1e-3 0.517 0.017 1.043-0.239 1.515-0.103 0.191-0.265 0.349-0.399 0.521-0.463 0.194-0.907 0.159-1.334 0.025-0.724-0.228-1.432-0.529-2.025-0.997-0.706-0.556-1.372-1.171-1.999-1.817-0.621-0.639-1.109-1.391-1.529-2.178-0.486-0.911-0.762-1.891-0.921-2.905-0.042-0.26-0.085-0.522-0.084-0.784 4e-3 -0.598 4e-3 -1.201 0.061-1.798 0.038-0.374 0.132-0.757 0.281-1.103 0.133-0.311 0.319-0.525 0.539-0.653 0.347-0.199 0.779-0.179 1.218 0.027 0.617 0.289 1.206 0.641 1.798 0.979 0.957 0.546 1.907 1.103 2.857 1.661 0.226 0.132 0.464 0.259 0.654 0.434 0.207 0.187 0.371 0.421 0.543 0.644 0.408 0.532 0.532 1.143 0.518 1.806-0.012 0.607 0.028 1.216 0.036 1.823zm10.9-6.59c0.011 0.101 0.06 0.198 0.094 0.296 0.373 1.053 0.31 2.133 0.157 3.209-0.067 0.477-0.187 0.952-0.313 1.419-0.327 1.224-0.912 2.319-1.692 3.312-0.473 0.603-0.996 1.164-1.623 1.615-0.411 0.296-0.809 0.623-1.245 0.873-0.046 0.027-0.093 0.053-0.14 0.078-0.619 0.324-1.242 0.669-1.969 0.73-0.404 0.033-0.775-0.026-1.051-0.339-0.302-0.341-0.48-0.735-0.385-1.21 4e-3 -0.021 3e-3 -0.045-1e-3 -0.066-0.082-0.329 0.018-0.657 0.014-0.987-0.016-1.216 2e-3 -2.434 4e-3 -3.651 0-0.36-0.036-0.723-5e-3 -1.081 0.071-0.881 0.496-1.564 1.259-2.015 0.323-0.19 0.649-0.38 0.975-0.567 0.512-0.294 1.023-0.586 1.534-0.879 0.484-0.277 0.963-0.563 1.445-0.84 0.335-0.193 0.672-0.384 1.012-0.566 0.462-0.247 0.979-0.378 1.447-0.019 0.217 0.167 0.446 0.369 0.483 0.688z" style="fill-rule:nonzero;fill:url(#_Linear3)"/>
 <defs>
  <linearGradient id="_Linear1" x2="1" gradientTransform="matrix(3.20995e-15,-52.4225,52.4225,3.20995e-15,29.9461,51.6916)" gradientUnits="userSpaceOnUse">
   <stop style="stop-color:#97a9b1" offset="0"/>
   <stop style="stop-color:#cfdce1" offset="1"/>
  </linearGradient>
  <linearGradient id="_Linear2" x2="1" gradientTransform="matrix(2.91533e-15,-47.6109,47.6109,2.91533e-15,113.351,46.5819)" gradientUnits="userSpaceOnUse">
   <stop style="stop-color:#002032" offset="0"/>
   <stop style="stop-color:#0054b8" offset="1"/>
  </linearGradient>
  <linearGradient id="_Linear3" x2="1" gradientTransform="matrix(2.00769e-15,-32.788,32.788,2.00769e-15,251.509,41.2904)" gradientUnits="userSpaceOnUse">
   <stop style="stop-color:#97a9b1" offset="0"/>
   <stop style="stop-color:#cfdce1" offset="1"/>
  </linearGradient>
 </defs>
</svg>
