<svg style="clip-rule:evenodd;fill-rule:evenodd;stroke-linejoin:round;stroke-miterlimit:2" version="1.1" viewBox="0 0 48 48" xmlns="http://www.w3.org/2000/svg">
 <circle cx="23.98" cy="24.009" r="22.784" style="fill:url(#_Linear1)"/>
 <path d="m39.209 12.134c0.437 0 0.791 0.354 0.791 0.791v22.151c0 0.437-0.355 0.791-0.791 0.791h-3.165c-0.437 0-0.791-0.354-0.791-0.791v-22.151c0-0.437 0.354-0.791 0.791-0.791h3.165zm-13.053 0c0.437 0 0.791 0.354 0.791 0.791v22.151c0 0.437-0.354 0.791-0.791 0.791h-3.165c-0.437 0-0.791-0.354-0.791-0.791v-22.151c0-0.437 0.354-0.791 0.791-0.791h3.165zm-14.24 0c0.437 0 0.791 0.354 0.791 0.791v22.151c0 0.437-0.354 0.791-0.791 0.791h-3.165c-0.437 0-0.791-0.354-0.791-0.791v-22.151c0-0.437 0.354-0.791 0.791-0.791h3.165z" style="fill:#c8c8c8"/>
 <path d="m19.036 31.12c0.437 0 0.791 0.355 0.791 0.791v3.165c0 0.437-0.354 0.791-0.791 0.791h-10.285c-0.437 0-0.791-0.354-0.791-0.791v-3.165c0-0.436 0.354-0.791 0.791-0.791h10.285zm12.065-18.986h7.74c0.636 0 1.159 0.435 1.159 0.961 0 0.169-0.054 0.336-0.156 0.482l-3.869 5.564-3.871 5.564c-0.216 0.311-0.625 0.497-1.058 0.481-0.394-0.016-0.752-0.197-0.948-0.481l-3.871-5.564-3.872-5.564c-0.102-0.146-0.155-0.313-0.155-0.482 0-0.526 0.523-0.961 1.158-0.961h7.743zm-12.065 0c0.437 0 0.791 0.354 0.791 0.791v3.165c0 0.436-0.354 0.79-0.791 0.79h-10.285c-0.437 0-0.791-0.354-0.791-0.79v-3.165c0-0.437 0.354-0.791 0.791-0.791h10.285z" style="fill:#fff"/>
 <defs>
  <linearGradient id="_Linear1" x2="1" gradientTransform="matrix(2.69059e-15,-43.9407,43.9407,2.69059e-15,23.4356,45.7203)" gradientUnits="userSpaceOnUse">
   <stop style="stop-color:#ec3944" offset="0"/>
   <stop style="stop-color:#ff709a" offset="1"/>
  </linearGradient>
 </defs>
</svg>
