<svg clip-rule="evenodd" fill-rule="evenodd" stroke-linejoin="round" stroke-miterlimit="2" viewBox="0 0 48 48" xmlns="http://www.w3.org/2000/svg" xmlns:xlink="http://www.w3.org/1999/xlink">
 <linearGradient id="a" x2="1" gradientTransform="matrix(0 -43.3373 43.3373 0 404.026 45.6687)" gradientUnits="userSpaceOnUse">
  <stop stop-color="#565656" offset="0"/>
  <stop stop-color="#bbb" offset="1"/>
 </linearGradient>
 <linearGradient id="b">
  <stop stop-color="#dadada" offset="0"/>
  <stop stop-color="#fff" offset="1"/>
 </linearGradient>
 <linearGradient id="c" x2="1" gradientTransform="matrix(0 -36 36 0 456 42)" gradientUnits="userSpaceOnUse" xlink:href="#b"/>
 <linearGradient id="d" x2="1" gradientTransform="matrix(0 -40 40 0 344 44)" gradientUnits="userSpaceOnUse" xlink:href="#b"/>
 <linearGradient id="e" x2="1" gradientTransform="matrix(0 -21.7658 21.7658 0 605.037 34.6287)" gradientUnits="userSpaceOnUse">
  <stop stop-color="#006783" offset="0"/>
  <stop stop-color="#1bb1de" offset="1"/>
 </linearGradient>
 <path d="m45.668 8.56c0-3.438-2.79-6.228-6.228-6.228h-30.88c-3.438 0-6.228 2.79-6.228 6.228v30.88c0 3.438 2.79 6.228 6.228 6.228h30.88c3.438 0 6.228-2.79 6.228-6.228z" fill="url(#a)"/>
 <path d="m40.2 6c.993 0 1.8.807 1.8 1.8v32.4c0 .993-.807 1.8-1.8 1.8h-32.4c-.993 0-1.8-.807-1.8-1.8v-32.4c0-.993.807-1.8 1.8-1.8z" fill="url(#c)"/>
 <path d="m4 37 .051-1.987 1.949-.013v-2h-2v-2h2v-2h-2v-2h2v-2h-2v-2h2v-2h-2v-2h2v-2h-2l.011-1.962 1.989-.038v-2h-2l.003-1.938 1.997-.062v-2h-2v-2h2.187c.175-.351.462-.638.813-.812v-2.188h2v2h2v-2h2v2h2v-2h2v2h2v-2h2v2h2v-2h2v2h2v-2h2v2h2v-2h2v2h2v-2h2v2h2v-2h2v2.188c.351.174.638.461.813.812h2.187v2h-2v2h2v2h-2v2h2v2h-2v2h2v2h-2v2h2v2h-2v2h2v2h-2v2h2v2h-2v2h2v2h-2v2h2v2h-2.187c-.175.351-.462.638-.813.812v2.188h-2v-2h-2v2h-2v-2h-2v2h-2v-2h-2v2h-2v-2h-2v2h-2v-2h-2v2h-2v-2h-2v2h-2v-2h-2v2h-2v-2h-2v2h-2v-2.188c-.351-.174-.638-.461-.813-.812h-2.187l.022-1.989 1.978-.011v-2z" fill="url(#d)"/>
 <path d="m38 12c0-1.104-.896-2-2-2h-24c-1.104 0-2 .896-2 2v24c0 1.104.896 2 2 2h24c1.104 0 2-.896 2-2z" fill="url(#e)"/>
 <path d="m25.787 28.393c-1.601.744-3.089.736-4.089.664-1.192-.086-2.152-.412-2.573-.698-.26-.176-.613-.108-.789.152s-.108.613.152.789c.678.459 1.876.8 3.128.89.212.016.445.025.696.025 1.09 0 2.474-.104 3.954-.792.284-.133.408-.47.275-.755-.132-.284-.47-.408-.754-.275zm6.314-.842c.054-4.936.562-14.262-8.886-13.508-9.328.751-6.855 10.605-6.994 13.905-.123 1.746-.702 3.88-1.521 6.052h2.521c.26-.92.45-1.831.532-2.698.152.106.315.208.489.306.282.167.525.388.782.622.6.547 1.281 1.168 2.611 1.245.089.005.179.008.267.008 1.346 0 2.266-.589 3.006-1.062.354-.227.66-.423.948-.517.819-.256 1.534-.67 2.068-1.196.084-.082.161-.167.234-.253.298 1.091.706 2.32 1.158 3.545h5.384c-1.294-1.996-2.627-3.953-2.599-6.449zm-14.977-2.685v-.001c-.093-1.611.678-2.965 1.721-3.026s1.964 1.196 2.057 2.806v.001c.005.087.007.173.007.258-.33.083-.629.204-.896.345l-.003-.036v-.001c-.089-.914-.577-1.604-1.091-1.542-.513.063-.857.855-.767 1.769.039.399.153.755.313 1.025-.04.031-.152.113-.281.208-.097.071-.216.157-.358.262-.388-.51-.654-1.242-.702-2.068zm10.569 3.981c-.037.851-1.151 1.652-2.179 1.973l-.006.002c-.428.139-.809.383-1.213.641-.678.434-1.38.883-2.393.883-.067 0-.135-.002-.202-.006-.928-.054-1.362-.449-1.911-.95-.29-.264-.59-.538-.976-.764l-.009-.005c-.834-.471-1.352-1.056-1.385-1.567-.016-.253.097-.473.336-.652.52-.39.869-.645 1.099-.814.256-.187.334-.243.391-.298.041-.038.085-.081.133-.128.477-.464 1.276-1.241 2.503-1.241.75 0 1.58.289 2.464.857.416.271.779.396 1.238.555.315.109.673.232 1.152.437l.008.004c.446.183.974.518.95 1.072zm-.246-2c-.086-.043-.176-.084-.269-.123-.432-.184-.778-.31-1.065-.41.159-.31.257-.697.266-1.118.022-1.023-.494-1.854-1.152-1.855-.659-.002-1.21.826-1.232 1.849-.001.034-.001.067 0 .1-.406-.186-.805-.322-1.195-.405-.002-.039-.004-.077-.005-.116v-.001c-.038-1.863 1.106-3.406 2.554-3.445s2.653 1.439 2.691 3.303v.001c.017.843-.208 1.618-.593 2.22z" fill="#eee" fill-rule="nonzero"/>
</svg>
