<?xml version="1.0" encoding="UTF-8" standalone="no"?><!DOCTYPE svg PUBLIC "-//W3C//DTD SVG 1.1//EN" "http://www.w3.org/Graphics/SVG/1.1/DTD/svg11.dtd"><svg width="100%" height="100%" viewBox="0 0 64 64" version="1.1" xmlns="http://www.w3.org/2000/svg" xmlns:xlink="http://www.w3.org/1999/xlink" xml:space="preserve" xmlns:serif="http://www.serif.com/" style="fill-rule:evenodd;clip-rule:evenodd;stroke-linejoin:round;stroke-miterlimit:1.41421;"><path d="M60.012,60.012c0,0 -9.802,-28.006 -28.006,-28.006l0,8.402c9.802,9.802 11.202,19.604 18.204,19.604l9.802,0Z" style="fill:url(#_Linear1);fill-rule:nonzero;"/><path d="M4.001,60.012c0,0 9.802,-28.006 28.005,-28.006c3.266,-0.23 7.79,1.505 9.864,2.887c-5.124,-0.54 -9.864,5.515 -9.864,5.515c-9.802,9.802 -11.202,19.604 -18.203,19.604l-9.802,0Z" style="fill:#2e2e2e;fill-rule:nonzero;"/><path d="M4.001,4.001c0,0 9.802,28.005 28.005,28.005l0,-8.401c-9.802,-9.802 -11.202,-19.604 -18.203,-19.604l-9.802,0Z" style="fill:url(#_Linear2);fill-rule:nonzero;"/><path d="M60.012,4.001c0,0 -9.802,28.005 -28.006,28.005c-3.266,0.231 -7.789,-1.504 -9.863,-2.887c5.123,0.54 9.863,-5.514 9.863,-5.514c9.802,-9.802 11.202,-19.604 18.204,-19.604l9.802,0Z" style="fill:#2e2e2e;fill-rule:nonzero;"/><defs><linearGradient id="_Linear1" x1="0" y1="0" x2="1" y2="0" gradientUnits="userSpaceOnUse" gradientTransform="matrix(28.0055,0,0,28.0055,32.0063,46.0091)"><stop offset="0" style="stop-color:#ce5900;stop-opacity:1"/><stop offset="1" style="stop-color:#eba43c;stop-opacity:1"/></linearGradient><linearGradient id="_Linear2" x1="0" y1="0" x2="1" y2="0" gradientUnits="userSpaceOnUse" gradientTransform="matrix(28.0055,0,0,28.0055,4.0008,18.0036)"><stop offset="0" style="stop-color:#0057ff;stop-opacity:1"/><stop offset="1" style="stop-color:#568cbf;stop-opacity:1"/></linearGradient></defs></svg>