<svg clip-rule="evenodd" fill-rule="evenodd" stroke-linejoin="round" stroke-miterlimit="2" viewBox="0 0 48 48" xmlns="http://www.w3.org/2000/svg">
 <linearGradient id="a" x2="1" gradientTransform="matrix(0 -45.5281 45.5281 0 136.545 46.764)" gradientUnits="userSpaceOnUse">
  <stop stop-color="#006783" offset="0"/>
  <stop stop-color="#20ccff" offset="1"/>
 </linearGradient>
 <circle cx="24" cy="24" r="22.764" fill="url(#a)"/>
 <g fill="#fff" fill-opacity=".84">
  <path d="m38.598 22.369c-.047-.413-.528-.723-.945-.723-1.346 0-2.541-.791-3.042-2.013-.511-1.252-.181-2.713.822-3.633.316-.289.354-.772.089-1.108-.689-.875-1.472-1.665-2.327-2.35-.335-.269-.826-.231-1.116.09-.876.97-2.449 1.33-3.664.823-1.265-.532-2.062-1.813-1.984-3.189.025-.432-.291-.808-.721-.858-1.098-.127-2.205-.131-3.305-.009-.426.047-.742.414-.727.841.047 1.362-.76 2.621-2.012 3.134-1.201.49-2.763.133-3.636-.828-.289-.317-.772-.355-1.109-.093-.88.691-1.681 1.482-2.376 2.349-.272.338-.232.827.087 1.117 1.023.926 1.353 2.399.822 3.665-.507 1.208-1.761 1.986-3.197 1.986-.465-.015-.797.297-.848.721-.129 1.104-.131 2.228-.006 3.341.046.414.542.722.963.722 1.279-.033 2.507.759 3.022 2.013.514 1.252.184 2.711-.821 3.632-.314.289-.354.772-.089 1.107.682.87 1.465 1.661 2.324 2.352.336.271.826.232 1.118-.089.878-.972 2.451-1.332 3.662-.824 1.268.531 2.065 1.812 1.987 3.189-.025.432.292.808.721.858.561.065 1.126.098 1.692.098.538 0 1.075-.03 1.613-.09.426-.047.741-.413.727-.841-.049-1.361.759-2.62 2.01-3.132 1.209-.494 2.764-.133 3.638.827.291.316.77.354 1.109.093.878-.689 1.678-1.479 2.376-2.35.271-.336.233-.826-.088-1.116-1.022-.926-1.354-2.399-.823-3.665.5-1.191 1.707-1.991 3.006-1.991l.181.005c.421.034.809-.29.86-.72.129-1.105.131-2.229.007-3.341zm-14.575 6.562c-2.702 0-4.9-2.198-4.9-4.9s2.198-4.9 4.9-4.9 4.9 2.198 4.9 4.9-2.198 4.9-4.9 4.9z"/>
  <path d="m23.38 21.789v-.36h1.287v.36h.695c.668 0 1.211.543 1.211 1.211v2.422c0 .668-.543 1.211-1.211 1.211h-2.677c-.669 0-1.211-.543-1.211-1.211v-2.422c0-.668.542-1.211 1.211-1.211zm-.358 1.063c.347 0 .628.282.628.629s-.281.629-.628.629c-.348 0-.629-.282-.629-.629s.281-.629.629-.629zm2.145 0c.347 0 .628.282.628.629s-.281.629-.628.629c-.348 0-.629-.282-.629-.629s.281-.629.629-.629z"/>
 </g>
</svg>
