<?xml version="1.0" encoding="UTF-8" standalone="no"?><!DOCTYPE svg PUBLIC "-//W3C//DTD SVG 1.1//EN" "http://www.w3.org/Graphics/SVG/1.1/DTD/svg11.dtd"><svg width="100%" height="100%" viewBox="0 0 64 64" version="1.1" xmlns="http://www.w3.org/2000/svg" xmlns:xlink="http://www.w3.org/1999/xlink" xml:space="preserve" xmlns:serif="http://www.serif.com/" style="fill-rule:evenodd;clip-rule:evenodd;stroke-linejoin:round;stroke-miterlimit:1.41421;"><path d="M23.091,4l-19.091,19.089l0,34.111c0,1.551 1.249,2.8 2.8,2.8l34.109,0l19.091,-19.089l0,-34.111c0,-1.551 -1.249,-2.8 -2.8,-2.8l-25.2,0l-8.909,0Z" style="fill:url(#_Linear1);fill-rule:nonzero;"/><path d="M29.636,16c-7.554,0 -13.636,6.082 -13.636,13.636l0,2.728c0,7.554 6.082,13.636 13.636,13.636l14.364,0l0,-8l-14.364,0c-3.163,0 -5.636,-2.473 -5.636,-5.636l0,-2.728c0,-3.163 2.473,-5.636 5.636,-5.636l14.364,0l0,-8l-14.364,0Z" style="fill:#fff;fill-rule:nonzero;"/><defs><linearGradient id="_Linear1" x1="0" y1="0" x2="1" y2="0" gradientUnits="userSpaceOnUse" gradientTransform="matrix(56,0,0,56,4,32)"><stop offset="0" style="stop-color:#007dab;stop-opacity:1"/><stop offset="1" style="stop-color:#0ca9e3;stop-opacity:1"/></linearGradient></defs></svg>