<!DOCTYPE svg  PUBLIC '-//W3C//DTD SVG 1.1//EN'  'http://www.w3.org/Graphics/SVG/1.1/DTD/svg11.dtd'>
<svg style="clip-rule:evenodd;fill-rule:evenodd;stroke-linejoin:round;stroke-miterlimit:2" version="1.1" viewBox="0 0 48 48" xmlns="http://www.w3.org/2000/svg">
 <circle cx="24" cy="24" r="23" style="fill:#ff0068"/>
 <path d="m24 1c-12.691 0-23 10.309-23 23s10.309 23 23 23 23-10.309 23-23-10.309-23-23-23zm0 1.917c11.656 0 21.083 9.427 21.083 21.083s-9.427 21.083-21.083 21.083-21.083-9.427-21.083-21.083 9.427-21.083 21.083-21.083z" style="fill-rule:nonzero;fill:url(#_Linear1)"/>
 <path d="m19.041 34.938c-0.821 0-0.682-0.31-0.965-1.092l-2.416-7.952 18.598-11.033" style="fill-rule:nonzero;fill:#eac8db"/>
 <path d="m19.041 34.938c0.634 0 0.915-0.29 1.268-0.634l3.382-3.288-4.218-2.543" style="fill-rule:nonzero;fill:#dda9d4"/>
 <path d="m19.473 28.473l10.22 7.552c1.166 0.643 2.007 0.31 2.298-1.084l4.16-19.603c0.426-1.708-0.651-2.483-1.767-1.976l-24.428 9.419c-1.667 0.669-1.657 1.6-0.304 2.014l6.269 1.957 14.513-9.156c0.685-0.416 1.314-0.193 0.798 0.266" style="fill-rule:nonzero;fill:url(#_Linear2)"/>
 <defs>
  <linearGradient id="_Linear1" x2="1" gradientTransform="matrix(.237015 -45.6245 45.6245 .237015 23.2579 46.546)" gradientUnits="userSpaceOnUse">
   <stop style="stop-color:#ececec;stop-opacity:.56" offset="0"/>
   <stop style="stop-color:#fff;stop-opacity:.56" offset="1"/>
  </linearGradient>
  <linearGradient id="_Linear2" x2="1" gradientTransform="matrix(5.28112,8.45408,-8.45408,5.28112,-284.508,217.822)" gradientUnits="userSpaceOnUse">
   <stop style="stop-color:#eff7fc" offset="0"/>
   <stop style="stop-color:#fff" offset="1"/>
  </linearGradient>
 </defs>
</svg>
