<svg style="clip-rule:evenodd;fill-rule:evenodd;stroke-linejoin:round;stroke-miterlimit:2" version="1.1" viewBox="0 0 48 48" xmlns="http://www.w3.org/2000/svg">
 <circle cx="24" cy="24" r="22.764" style="fill:url(#_Linear1)"/>
 <path d="m25.38 8.228c1.066 2.003 1.92 3.886 2.566 5.647-1.331-0.08-2.61-0.128-3.77-0.11l9e-3 -0.02c-12.78 0.213-15.09 6.456-6.999 18.712 0.763-0.136 1.491-0.276 2.174-0.448-2.421-8.517 0.687-13.852 9.278-16.011 3.089 10.861-2.777 16.557-17.616 17.076 2.611 0.434 5.007 0.742 7.201 0.936 1.264 1.801 2.715 3.725 4.394 5.767-1.058-1.991-1.924-3.864-2.569-5.619-0.455-0.026-0.93-0.072-1.406-0.116 17.208 1.411 21.286-4.753 12.208-18.509 1.843-0.318 3.868-0.53 6.128-0.607-2.604-0.432-4.991-0.738-7.181-0.931-1.266-1.804-2.733-3.726-4.417-5.772v5e-3z" style="fill-opacity:.86;fill-rule:nonzero;fill:#fff"/>
 <defs>
  <linearGradient id="_Linear1" x2="1" gradientTransform="matrix(2.78782e-15,-45.5286,45.5286,2.78782e-15,210.895,46.7643)" gradientUnits="userSpaceOnUse">
   <stop style="stop-color:#0a80fd" offset="0"/>
   <stop style="stop-color:#56c5fa" offset="1"/>
  </linearGradient>
 </defs>
</svg>
