
<svg style="clip-rule:evenodd;fill-rule:evenodd;stroke-linejoin:round;stroke-miterlimit:1.41421" version="1.1" viewBox="0 0 48 48" xmlns="http://www.w3.org/2000/svg">
 <path d="m45.046 6.926c1e-3 -0.93-0.752-1.684-1.683-1.685-6.359-2e-3 -28.876-0.011-35.236-0.013-0.93 0-1.684 0.753-1.685 1.683-1e-3 5.135-8e-3 20.549-9e-3 25.683-1e-3 0.446 0.176 0.875 0.492 1.191 0.315 0.316 0.744 0.493 1.191 0.494 6.359 2e-3 28.877 0.011 35.237 0.013 0.446 1e-3 0.874-0.177 1.191-0.493 0.315-0.315 0.493-0.744 0.494-1.19 1e-3 -5.135 7e-3 -20.549 8e-3 -25.683z" style="fill:url(#_Linear1)"/>
 <path d="m40.641 12.613c0-0.446-0.177-0.875-0.493-1.191-0.316-0.315-0.744-0.493-1.191-0.493-6.36 1e-3 -28.877 3e-3 -35.237 4e-3 -0.93 0-1.684 0.754-1.684 1.684 1e-3 5.134 2e-3 20.549 3e-3 25.683 0 0.446 0.177 0.875 0.493 1.191 0.316 0.315 0.744 0.493 1.191 0.493 6.36-1e-3 28.877-3e-3 35.237-4e-3 0.93 0 1.684-0.754 1.684-1.684-1e-3 -5.134-2e-3 -20.549-3e-3 -25.683z" style="fill:url(#_Linear2)"/>
 <path d="m28.943 21.279l-1.258-0.924c-0.156-0.116-0.525 0.105-0.931 0.516l-0.539-0.396c0.272-0.51 0.372-0.928 0.215-1.043l-3.081-2.263c-1.701-0.461-3.487-0.516-5.213-0.161l-0.871 0.179c-0.145 0.03-0.259 0.143-0.291 0.287-0.032 0.145 0.025 0.295 0.144 0.383 0.049 0.036 0.106 0.059 0.165 0.068l1.045 0.161c1.185 0.183 2.235 0.864 2.882 1.873l0.042 0.065 0.75 0.551-3.811 5.188c-0.175-0.095-0.407-0.051-0.557 0.123l-5.18 5.417c-0.449 0.52-0.687 1.187-0.657 1.839s0.326 1.228 0.816 1.587c0.49 0.36 1.128 0.471 1.759 0.305s1.197-0.593 1.559-1.177l3.621-6.562c0.121-0.195 0.094-0.429-0.05-0.568l3.812-5.188 1.019 0.748c0.156 0.115 0.525-0.105 0.931-0.516l0.539 0.396c-0.272 0.51-0.372 0.927-0.215 1.042l1.258 0.925c0.223 0.163 0.873-0.343 1.452-1.131 0.58-0.789 0.868-1.561 0.645-1.724z" style="fill-rule:nonzero;fill:#ddf2e9"/>
 <path d="m38.044 29.099c4.135-0.057 7.538 3.254 7.595 7.389s-3.253 7.538-7.388 7.595-7.538-3.254-7.595-7.389c-0.057-4.134 3.253-7.538 7.388-7.595z" style="fill:url(#_Linear3)"/>
 <path d="m35.968 39.758l-0.13-6.298 5.519 3.037-5.389 3.261z" style="fill-rule:nonzero;fill:url(#_Linear4)"/>
 <defs>
  <linearGradient id="_Linear1" x2="1" gradientTransform="matrix(-.414497 -28.3128 28.3128 -.414497 95.178 32.6206)" gradientUnits="userSpaceOnUse">
   <stop style="stop-color:#6a82d4" offset="0"/>
   <stop style="stop-color:#90b0e0" offset="1"/>
  </linearGradient>
  <linearGradient id="_Linear2" x2="1" gradientTransform="matrix(-.42822 -28.3126 28.3126 -.42822 330.803 34.653)" gradientUnits="userSpaceOnUse">
   <stop style="stop-color:#16a085" offset="0"/>
   <stop style="stop-color:#2ecc71" offset="1"/>
  </linearGradient>
  <linearGradient id="_Linear3" x2="1" gradientTransform="matrix(-.956196 -14.5787 14.5787 -.956196 462.75 15.9253)" gradientUnits="userSpaceOnUse">
   <stop style="stop-color:#cdd0d1" offset="0"/>
   <stop style="stop-color:#f6f6f7" offset="1"/>
  </linearGradient>
  <linearGradient id="_Linear4" x2="1" gradientTransform="matrix(5.5326,-6.28968,6.28968,5.5326,246.282,224.879)" gradientUnits="userSpaceOnUse">
   <stop style="stop-color:#16a085" offset="0"/>
   <stop style="stop-color:#2dcb72" offset="1"/>
  </linearGradient>
 </defs>
</svg>
