<!DOCTYPE svg  PUBLIC '-//W3C//DTD SVG 1.1//EN'  'http://www.w3.org/Graphics/SVG/1.1/DTD/svg11.dtd'>
<svg style="clip-rule:evenodd;fill-rule:evenodd;stroke-linejoin:round;stroke-miterlimit:1.41421" version="1.1" viewBox="0 0 48 48" xmlns="http://www.w3.org/2000/svg">
 <path d="m42.35 8.744c-1e-3 -0.469-0.188-0.919-0.52-1.25s-0.782-0.516-1.251-0.515c-5.936 0.011-25.108 0.045-31.043 0.056-0.469 1e-3 -0.919 0.188-1.25 0.52-0.331 0.333-0.516 0.783-0.515 1.252 8e-3 4.748 0.032 17.737 0.041 22.485 1e-3 0.469 0.188 0.919 0.52 1.25s0.782 0.516 1.251 0.515c5.936-0.01 25.108-0.045 31.043-0.056 0.469-1e-3 0.919-0.188 1.25-0.52 0.331-0.333 0.516-0.783 0.515-1.252-8e-3 -4.748-0.032-17.737-0.041-22.485z" style="fill:#1dd591"/>
 <path d="m39.128 12.994c3e-3 -1.08-0.87-1.958-1.95-1.961-6.077-0.017-24.592-0.07-30.669-0.088-1.08-3e-3 -1.958 0.87-1.961 1.95-0.014 4.829-0.049 17.282-0.063 22.111-3e-3 1.08 0.869 1.958 1.949 1.961 6.077 0.017 24.593 0.07 30.67 0.088 1.079 3e-3 1.957-0.87 1.96-1.95 0.014-4.829 0.05-17.282 0.064-22.111z" style="fill:url(#_Linear1)"/>
 <path d="m37.744 26.396c3.703-0.051 6.752 2.914 6.803 6.618s-2.915 6.752-6.618 6.803c-3.704 0.051-6.752-2.914-6.803-6.618s2.914-6.752 6.618-6.803z" style="fill:url(#_Linear2)"/>
 <path d="m35.884 35.944l-0.116-5.642 4.943 2.721-4.827 2.921z" style="fill-rule:nonzero;fill:url(#_Linear3)"/>
 <path d="m15.86 31.817l-0.12-0.596-3.506 0.703-3.506 0.703 0.047 0.451c0.089 0.874-0.078 0.871 3.735 0.066l3.469-0.732-0.119-0.595zm-4.963-12.831c-0.458-0.064-1.169 0.023-2.722 0.334l-2.102 0.422 1.674 7.99 2.182-0.446c1.931-0.394 2.246-0.491 2.743-0.849 1.099-0.792 1.829-1.889 1.29-4.215-0.54-2.326-1.647-3.035-3.065-3.235v-1e-3zm7.268 6.616c0.801 0.117 2.156-0.163 3.022-0.626 0.252-0.134 0.706-0.493 1.01-0.798l0.553-0.554-0.358-1.786-0.358-1.786-1.72 0.345-1.72 0.344 0.318 1.588 0.807-0.093 0.807-0.093 0.093 0.461c0.076 0.38 0.03 0.508-0.259 0.725-0.472 0.355-1.592 0.564-2.155 0.403-1.72-0.494-2.27-3.015-0.921-4.213 0.662-0.589 1.693-0.678 2.847-0.247 0.325 0.122 0.365 0.091 0.745-0.571 0.526-0.917 0.432-1.154-0.575-1.46-0.667-0.202-1.003-0.215-1.942-0.073-1.33 0.201-1.954 0.481-2.678 1.201-0.705 0.701-1.442 1.412-0.941 3.864 0.501 2.453 1.856 3.14 3.425 3.369zm-8.795-0.074c-0.061-0.096-0.285-1.128-0.498-2.293l-0.386-2.119 0.937-0.18c1.044-0.201 1.665-0.071 2.273 0.475 0.284 0.256 0.391 0.509 0.548 1.291 0.217 1.084 0.09 1.562-0.572 2.152-0.486 0.432-2.147 0.919-2.302 0.674z" style="fill-rule:nonzero;fill:#fff"/>
 <defs>
  <linearGradient id="_Linear1" x2="1" gradientTransform="matrix(16.8163,-40.1711,40.1711,16.8163,20.8663,40.0287)" gradientUnits="userSpaceOnUse">
   <stop style="stop-color:#9d77f8" offset="0"/>
   <stop style="stop-color:#ff58e7" offset="1"/>
  </linearGradient>
  <linearGradient id="_Linear2" x2="1" gradientTransform="matrix(-.856503 -13.0587 13.0587 -.856503 38.1837 39.518)" gradientUnits="userSpaceOnUse">
   <stop style="stop-color:#cdd0d1" offset="0"/>
   <stop style="stop-color:#f6f6f7" offset="1"/>
  </linearGradient>
  <linearGradient id="_Linear3" x2="1" gradientTransform="matrix(4.95577,-5.63392,5.63392,4.95577,35.7596,35.9433)" gradientUnits="userSpaceOnUse">
   <stop style="stop-color:#16a085" offset="0"/>
   <stop style="stop-color:#2dcb72" offset="1"/>
  </linearGradient>
 </defs>
</svg>
