<svg clip-rule="evenodd" fill-rule="evenodd" stroke-linejoin="round" stroke-miterlimit="2" viewBox="0 0 48 48" xmlns="http://www.w3.org/2000/svg">
 <linearGradient id="a" x2="1" gradientTransform="matrix(-1.39022 -45.4872 45.4872 -1.39022 118.295 43.8833)" gradientUnits="userSpaceOnUse">
  <stop stop-color="#818181" offset="0"/>
  <stop stop-color="#e4e4e4" offset="1"/>
 </linearGradient>
 <circle cx="24" cy="24.001" r="22.765" fill="url(#a)"/>
 <path d="m18.291 12.922c1.017-1.072 3.127-.196 4.398 1.075s2.297.83 2.981.977c.685.147-1.466 1.467-2.981 2.737-1.515 1.271-4.643 2.639-4.936 1.906-.294-.733 1.173-1.711.586-3.274-.586-1.564-.977-2.444-.048-3.421z" fill="#372823"/>
 <path d="m9.869 29.476c.562 3.221 2.216 4.244 4.965 5.388 2.75 1.146 5.793 2.362 8.508 3.26 2.716.898 14.109-4.233 14.827-7.814.719-3.583 2.094-8.088.49-11.449-1.604-3.36-6.487-5.156-10.612-4.774-4.123.382-8.705 2.219-11.458 5.08-2.74 2.847-7.328 6.823-6.72 10.309z" fill="#fff"/>
 <g fill="#372823">
  <path d="m27.381 16.392c.066 1.284 4.594 4.496 6.305 4.398 1.71-.097 4.936-5.522 4.007-7.184-.928-1.662-10.459-.098-10.312 2.786z"/>
  <path d="m10.281 32.978c-5.694-2.144-4.46-7.855-4.46-7.855s-1.374-2.52-1.527-4.353c-.153-1.832.385-4.481.385-4.481l4.808.129s3.851-4.938 6.949-6.949c3.633-2.359 9.393-4.964 14.51-.841-3.517-1.406-8.812-1.371-13.593 1.833-3.544 2.375-9.174 9.851-10.08 14.586-.481 2.509-1.164 5.203 3.008 7.931z"/>
  <path d="m18.192 26.04c1.223.916 8.05 6.301 11.474 5.78 2.56-.39 5.712-2.564 5.557-8.453.495 2.293.61 4.658.229 5.651-.382.993 3.228-1.699 3.951-6.188.543 2.566-.897 8.326-2.348 10.923-1.451 2.596-2.596 2.978-2.138 4.276.459 1.299.611 1.833 1.375 3.513-2.071-.519-3.171-.147-6.415-1.069-6.69-1.903-10.768-3.971-11.15-4.047 2.096-3.028.896-7.324-.535-10.386z"/>
 </g>
 <path d="m28.739 33.204c.125 1.47.106 5.012 1.846 4.786 2.097-.274 1.981-1.832 2.576-4.261.153-.024.458-.087.458-.087s-.629 3.195-.941 3.633c.686-.113 1.185-.875 1.967-2.283.781-1.407 1.445-4.134 1.57-4.948-1.627 1.94-4.661 3.16-7.476 3.16z" fill="#fff"/>
</svg>
