<svg style="clip-rule:evenodd;fill-rule:evenodd;stroke-linejoin:round;stroke-miterlimit:2" version="1.1" viewBox="0 0 48 48" xmlns="http://www.w3.org/2000/svg">
 <circle cx="24" cy="24" r="22.764" style="fill:url(#_Linear1)"/>
 <path d="m18.631 17.142v15.619c0.015 0.62-0.155 1.234-0.498 1.762-0.447 0.687-1.149 1.168-1.95 1.339-0.622 0.132-1.278 0.272-1.9 0.404-0.802 0.17-1.639 0.014-2.326-0.432s-1.17-1.149-1.339-1.95c-0.026-0.119-0.052-0.239-0.077-0.358-0.17-0.802-0.015-1.639 0.432-2.327 0.446-0.687 1.148-1.169 1.949-1.339 0.623-0.132 1.278-0.272 1.901-0.404 0.085-0.018 0.17-0.032 0.257-0.043v-0.011s0.463-0.098 0.941-0.2c0.602-0.128 1.034-0.661 1.034-1.276v-15.885c0-0.621 0.436-1.156 1.044-1.279 2.787-0.57 10.393-2.122 13.417-2.738 0.31-0.064 0.632 0.015 0.878 0.215 0.245 0.2 0.388 0.499 0.389 0.816l0.051 20.81c8e-3 0.608-0.163 1.21-0.499 1.726-0.447 0.688-1.148 1.17-1.95 1.34-0.623 0.132-1.278 0.271-1.901 0.403-0.801 0.171-1.638 0.016-2.326-0.431s-1.169-1.148-1.34-1.951c-0.025-0.119-0.05-0.238-0.076-0.358-0.169-0.801-0.015-1.638 0.432-2.325s1.148-1.17 1.95-1.34c0.622-0.132 1.278-0.272 1.901-0.404 0.098-0.021 0.198-0.037 0.298-0.048l0.875-0.177c0.609-0.123 1.047-0.658 1.047-1.279v-10.463l-12.614 2.584zm12.614-3.866v-1.151c0-0.266-0.119-0.517-0.325-0.686-0.205-0.168-0.476-0.237-0.737-0.184-2.383 0.479-8.133 1.633-10.504 2.109-0.61 0.122-1.048 0.658-1.048 1.279v1.216l12.614-2.583z" style="fill:url(#_Linear2)"/>
 <defs>
  <linearGradient id="_Linear1" x2="1" gradientTransform="matrix(2.71812e-15,-44.3903,44.3903,2.71812e-15,81.8405,45.6261)" gradientUnits="userSpaceOnUse">
   <stop style="stop-color:#a52735" offset="0"/>
   <stop style="stop-color:#fd6820" offset="1"/>
  </linearGradient>
  <linearGradient id="_Linear2" x2="1" gradientTransform="matrix(-.0798249 -24.2761 24.2761 -.0798249 925.467 30.3019)" gradientUnits="userSpaceOnUse">
   <stop style="stop-color:#bcddff;stop-opacity:.65" offset="0"/>
   <stop style="stop-color:#e4f7ff;stop-opacity:.65" offset="1"/>
  </linearGradient>
 </defs>
</svg>
