<svg clip-rule="evenodd" fill-rule="evenodd" stroke-linejoin="round" stroke-miterlimit="1.41421" viewBox="0 0 64 64" xmlns="http://www.w3.org/2000/svg">
 <linearGradient id="a" x2="1" gradientTransform="matrix(24.0005 0 0 24.0005 8 32)" gradientUnits="userSpaceOnUse">
  <stop stop-color="#cacaca" offset="0"/>
  <stop stop-color="#fff" offset="1"/>
 </linearGradient>
 <linearGradient id="b" x2="1" gradientTransform="matrix(-24 .361446 -.361446 -24 56 25.6112)" gradientUnits="userSpaceOnUse">
  <stop stop-color="#6b6b6b" offset="0"/>
  <stop stop-color="#9c9c9c" offset="1"/>
 </linearGradient>
 <path d="m31.206 4.002c-3.589.075-7.194.649-10.329 1.663-3.208 1.038-6.157 2.534-8.972 4.554-1.152.826-2.04 1.809-2.485 2.751-.394.836-.977 4.465-1.23 7.642-.79 9.938.916 20.045 4.448 26.342.44.784 2.153 3.485 2.81 4.43 2.567 3.694 6.008 6.292 10.042 7.582 1.654.529 3.207.821 5.446 1.026.181.016.645.004 1.064-.003v-55.984c-.264 0-.528-.009-.794-.003zm.794.003c.93-.001 1.858.022 2.772.09-.914-.068-1.842-.091-2.772-.09zm0 55.984c.777-.014 1.662-.048 2.154-.107-.492.059-1.377.093-2.154.107zm22.437-47.287c.337.602.481 1.265.778 3.042-.297-1.777-.441-2.44-.778-3.042zm1.26 6.655c.246 2.433.34 4.903.29 7.346.05-2.443-.044-4.913-.29-7.346zm-10.009 35.331c-.716.68-1.457 1.316-2.25 1.863.794-.548 1.534-1.182 2.25-1.863z" fill="url(#a)" fill-rule="nonzero"/>
 <path d="m32 4.005v55.984c.777-.014 1.662-.048 2.154-.107 5.757-.685 10.141-3.07 13.558-7.376.628-.792 1.021-1.365 2.212-3.219 1.566-2.442 2.22-3.686 3.052-5.81 2.968-7.573 3.827-18.217 2.239-27.733-.395-2.37-.521-2.758-1.191-3.663-.674-.908-1.331-1.473-3.025-2.603-4.732-3.158-10.056-4.924-16.227-5.383-.914-.068-1.842-.091-2.772-.09z" fill="url(#b)" fill-rule="nonzero"/>
 <path d="m31.356 52.927c-.873-.119-1.902-.507-2.814-1.061-.498-.303-1.431-1.042-1.343-1.322.05-.16 5.876 1.636 12.259-2.071.224-.13-2.703 2.692-3.688 3.293-1.021.624-2.826 1.378-4.414 1.161z" fill="#3f3f3f" fill-rule="nonzero"/>
 <path d="m30.836 40.008c-.055-.022-1.712 2.405-1.811 3.028-.105.664.13 1.499.548 1.931.204.211 2.252 1.657 2.427 1.66.175-.003 2.223-1.449 2.427-1.66.418-.432.653-1.267.548-1.931-.099-.623-1.756-3.051-1.811-3.028-.056.023-.502.589-1.164.601-.642.011-1.108-.578-1.164-.601z" fill="#3f3f3f" fill-rule="nonzero"/>
 <path d="m21.638 28.292c-1.256-.445-5.847-1.19-6.494 1.649-.204.894-.181 1.543.265 2.437.683 1.37 2.225 2.129 4.063 2.364.052.007 8.184.258 8.184.258.19-.053.272-.135.322-.284.084-.252-1.762-4.8-6.34-6.424z" fill="#3f3f3f" fill-rule="nonzero"/>
 <path d="m37.6 27v9h1.412v-9zm2.824 0v9h1.411v-9zm2.823 0v9h1.412v-9zm2.824 0v9h1.411v-9z" fill-opacity=".3" fill-rule="nonzero"/>
 <path d="m49 30.167c0-1.196-.971-2.167-2.167-2.167h-8.666c-1.196 0-2.167.971-2.167 2.167v2.666c0 1.196.971 2.167 2.167 2.167h8.666c1.196 0 2.167-.971 2.167-2.167z" fill="#3f3f3f"/>
 <g fill="#fff">
  <path d="m40.333 29.4v4.2h4.334v-4.2zm.723.7h2.888v2.8h-2.888z" fill-rule="nonzero"/>
  <path d="m37.88 29.68h1.444v.7h-1.444z"/>
  <path d="m38.89 30.38h1.011v.7h-1.011z"/>
  <path d="m37.88 32.48h1.444v.7h-1.444z"/>
  <path d="m38.89 31.78h1.011v.7h-1.011z"/>
  <path d="m45.676 29.68h1.444v.7h-1.444z"/>
  <path d="m45.099 30.38h1.011v.7h-1.011z"/>
  <path d="m45.676 32.48h1.444v.7h-1.444z"/>
  <path d="m45.099 31.78h1.011v.7h-1.011z"/>
  <path d="m41.49 30.45h2.022v.7h-2.022z"/>
  <path d="m41.49 31.85h2.022v.7h-2.022z"/>
  <path d="m42.86 32.13v-1.4h-.722v1.4z"/>
 </g>
</svg>
