<?xml version="1.0" encoding="UTF-8" standalone="no"?><!DOCTYPE svg PUBLIC "-//W3C//DTD SVG 1.1//EN" "http://www.w3.org/Graphics/SVG/1.1/DTD/svg11.dtd"><svg width="100%" height="100%" viewBox="0 0 64 64" version="1.1" xmlns="http://www.w3.org/2000/svg" xmlns:xlink="http://www.w3.org/1999/xlink" xml:space="preserve" xmlns:serif="http://www.serif.com/" style="fill-rule:evenodd;clip-rule:evenodd;stroke-linejoin:round;stroke-miterlimit:1.41421;"><path d="M31.206,4.002c-3.589,0.075 -7.194,0.649 -10.329,1.663c-3.208,1.038 -6.157,2.534 -8.972,4.554c-1.152,0.826 -2.04,1.809 -2.485,2.751c-0.394,0.836 -0.977,4.465 -1.23,7.642c-0.79,9.938 0.916,20.045 4.448,26.342c0.44,0.784 2.153,3.485 2.81,4.43c2.567,3.694 6.008,6.292 10.042,7.582c1.654,0.529 3.207,0.821 5.446,1.026c0.181,0.016 0.645,0.004 1.064,-0.003l0,-55.984c-0.264,0 -0.528,-0.009 -0.794,-0.003l0,0Zm0.794,0.003c0.93,-0.001 1.858,0.022 2.772,0.09c-0.914,-0.068 -1.842,-0.091 -2.772,-0.09Zm0,55.984c0.777,-0.014 1.662,-0.048 2.154,-0.107c-0.492,0.059 -1.377,0.093 -2.154,0.107Zm22.437,-47.287c0.337,0.602 0.481,1.265 0.778,3.042c-0.297,-1.777 -0.441,-2.44 -0.778,-3.042Zm1.26,6.655c0.246,2.433 0.34,4.903 0.29,7.346c0.05,-2.443 -0.044,-4.913 -0.29,-7.346Zm-10.009,35.331c-0.716,0.68 -1.457,1.316 -2.25,1.863c0.794,-0.548 1.534,-1.182 2.25,-1.863Z" style="fill:url(#_Linear1);fill-rule:nonzero;"/><path d="M32,4.005l0,55.984c0.777,-0.014 1.662,-0.048 2.154,-0.107c5.757,-0.685 10.141,-3.07 13.558,-7.376c0.628,-0.792 1.021,-1.365 2.212,-3.219c1.566,-2.442 2.22,-3.686 3.052,-5.81c2.968,-7.573 3.827,-18.217 2.239,-27.733c-0.395,-2.37 -0.521,-2.758 -1.191,-3.663c-0.674,-0.908 -1.331,-1.473 -3.025,-2.603c-4.732,-3.158 -10.056,-4.924 -16.227,-5.383c-0.914,-0.068 -1.842,-0.091 -2.772,-0.09Z" style="fill:url(#_Linear2);fill-rule:nonzero;"/><path d="M31.356,52.927c-0.873,-0.119 -1.902,-0.507 -2.814,-1.061c-0.498,-0.303 -1.431,-1.042 -1.343,-1.322c0.05,-0.16 5.876,1.636 12.259,-2.071c0.224,-0.13 -2.703,2.692 -3.688,3.293c-1.021,0.624 -2.826,1.378 -4.414,1.161l0,0Z" style="fill:#3f3f3f;fill-rule:nonzero;"/><path d="M30.836,40.008c-0.055,-0.022 -1.712,2.405 -1.811,3.028c-0.105,0.664 0.13,1.499 0.548,1.931c0.204,0.211 2.252,1.657 2.427,1.66c0.175,-0.003 2.223,-1.449 2.427,-1.66c0.418,-0.432 0.653,-1.267 0.548,-1.931c-0.099,-0.623 -1.756,-3.051 -1.811,-3.028c-0.056,0.023 -0.502,0.589 -1.164,0.601c-0.642,0.011 -1.108,-0.578 -1.164,-0.601Z" style="fill:#3f3f3f;fill-rule:nonzero;"/><path d="M21.638,28.292c-1.256,-0.445 -5.847,-1.19 -6.494,1.649c-0.204,0.894 -0.181,1.543 0.265,2.437c0.683,1.37 2.225,2.129 4.063,2.364c0.052,0.007 8.184,0.258 8.184,0.258c0.19,-0.053 0.272,-0.135 0.322,-0.284c0.084,-0.252 -1.762,-4.8 -6.34,-6.424Z" style="fill:#3f3f3f;fill-rule:nonzero;"/><path d="M37.6,27l0,9l1.412,0l0,-9l-1.412,0Zm2.824,0l0,9l1.411,0l0,-9l-1.411,0Zm2.823,0l0,9l1.412,0l0,-9l-1.412,0Zm2.824,0l0,9l1.411,0l0,-9l-1.411,0Z" style="fill-opacity:0.3;fill-rule:nonzero;"/><path d="M49,30.167c0,-1.196 -0.971,-2.167 -2.167,-2.167l-8.666,0c-1.196,0 -2.167,0.971 -2.167,2.167l0,2.666c0,1.196 0.971,2.167 2.167,2.167l8.666,0c1.196,0 2.167,-0.971 2.167,-2.167l0,-2.666Z" style="fill:#3f3f3f;"/><g><path d="M40.333,29.4l0,4.2l4.334,0l0,-4.2l-4.334,0Zm0.723,0.7l2.888,0l0,2.8l-2.888,0l0,-2.8Z" style="fill:#fff;fill-rule:nonzero;"/><rect x="37.88" y="29.68" width="1.444" height="0.7" style="fill:#fff;"/><rect x="38.89" y="30.38" width="1.011" height="0.7" style="fill:#fff;"/><rect x="37.88" y="32.48" width="1.444" height="0.7" style="fill:#fff;"/><rect x="38.89" y="31.78" width="1.011" height="0.7" style="fill:#fff;"/><rect x="45.676" y="29.68" width="1.444" height="0.7" style="fill:#fff;"/><rect x="45.099" y="30.38" width="1.011" height="0.7" style="fill:#fff;"/><rect x="45.676" y="32.48" width="1.444" height="0.7" style="fill:#fff;"/><rect x="45.099" y="31.78" width="1.011" height="0.7" style="fill:#fff;"/><rect x="41.49" y="30.45" width="2.022" height="0.7" style="fill:#fff;"/><rect x="41.49" y="31.85" width="2.022" height="0.7" style="fill:#fff;"/><path d="M42.86,32.13l0,-1.4l-0.722,0l0,1.4l0.722,0Z" style="fill:#fff;"/></g><defs><linearGradient id="_Linear1" x1="0" y1="0" x2="1" y2="0" gradientUnits="userSpaceOnUse" gradientTransform="matrix(24.0005,0,0,24.0005,8,32)"><stop offset="0" style="stop-color:#cacaca;stop-opacity:1"/><stop offset="1" style="stop-color:#fff;stop-opacity:1"/></linearGradient><linearGradient id="_Linear2" x1="0" y1="0" x2="1" y2="0" gradientUnits="userSpaceOnUse" gradientTransform="matrix(-24,0.361446,-0.361446,-24,56,25.6112)"><stop offset="0" style="stop-color:#6b6b6b;stop-opacity:1"/><stop offset="1" style="stop-color:#9c9c9c;stop-opacity:1"/></linearGradient></defs></svg>