
<svg style="clip-rule:evenodd;fill-rule:evenodd;stroke-linejoin:round;stroke-miterlimit:1.41421" version="1.1" viewBox="0 0 64 64" xmlns="http://www.w3.org/2000/svg">
 <path d="m31.206 4.002c-3.589 0.075-7.194 0.649-10.329 1.663-3.208 1.038-6.157 2.534-8.972 4.554-1.152 0.826-2.04 1.809-2.485 2.751-0.394 0.836-0.977 4.465-1.23 7.642-0.79 9.938 0.916 20.045 4.448 26.342 0.44 0.784 2.153 3.485 2.81 4.43 2.567 3.694 6.008 6.292 10.042 7.582 1.654 0.529 3.207 0.821 5.446 1.026 0.181 0.016 0.645 4e-3 1.064-3e-3v-55.984c-0.264 0-0.528-9e-3 -0.794-3e-3zm0.794 3e-3c0.93-1e-3 1.858 0.022 2.772 0.09-0.914-0.068-1.842-0.091-2.772-0.09zm0 55.984c0.777-0.014 1.662-0.048 2.154-0.107-0.492 0.059-1.377 0.093-2.154 0.107zm22.437-47.287c0.337 0.602 0.481 1.265 0.778 3.042-0.297-1.777-0.441-2.44-0.778-3.042zm1.26 6.655c0.246 2.433 0.34 4.903 0.29 7.346 0.05-2.443-0.044-4.913-0.29-7.346zm-10.009 35.331c-0.716 0.68-1.457 1.316-2.25 1.863 0.794-0.548 1.534-1.182 2.25-1.863z" style="fill-rule:nonzero;fill:url(#_Linear1)"/>
 <path d="m32 4.005v55.984c0.777-0.014 1.662-0.048 2.154-0.107 5.757-0.685 10.141-3.07 13.558-7.376 0.628-0.792 1.021-1.365 2.212-3.219 1.566-2.442 2.22-3.686 3.052-5.81 2.968-7.573 3.827-18.217 2.239-27.733-0.395-2.37-0.521-2.758-1.191-3.663-0.674-0.908-1.331-1.473-3.025-2.603-4.732-3.158-10.056-4.924-16.227-5.383-0.914-0.068-1.842-0.091-2.772-0.09z" style="fill-rule:nonzero;fill:url(#_Linear2)"/>
 <path d="m31.356 52.927c-0.873-0.119-1.902-0.507-2.814-1.061-0.498-0.303-1.431-1.042-1.343-1.322 0.05-0.16 5.876 1.636 12.259-2.071 0.224-0.13-2.703 2.692-3.688 3.293-1.021 0.624-2.826 1.378-4.414 1.161z" style="fill-rule:nonzero;fill:#3f3f3f"/>
 <path d="m30.836 40.008c-0.055-0.022-1.712 2.405-1.811 3.028-0.105 0.664 0.13 1.499 0.548 1.931 0.204 0.211 2.252 1.657 2.427 1.66 0.175-3e-3 2.223-1.449 2.427-1.66 0.418-0.432 0.653-1.267 0.548-1.931-0.099-0.623-1.756-3.051-1.811-3.028-0.056 0.023-0.502 0.589-1.164 0.601-0.642 0.011-1.108-0.578-1.164-0.601z" style="fill-rule:nonzero;fill:#3f3f3f"/>
 <path d="m21.638 28.292c-1.256-0.445-5.847-1.19-6.494 1.649-0.204 0.894-0.181 1.543 0.265 2.437 0.683 1.37 2.225 2.129 4.063 2.364 0.052 7e-3 8.184 0.258 8.184 0.258 0.19-0.053 0.272-0.135 0.322-0.284 0.084-0.252-1.762-4.8-6.34-6.424z" style="fill-rule:nonzero;fill:#3f3f3f"/>
 <path d="m37.6 27v9h1.412v-9h-1.412zm2.824 0v9h1.411v-9h-1.411zm2.823 0v9h1.412v-9h-1.412zm2.824 0v9h1.411v-9h-1.411z" style="fill-opacity:.3;fill-rule:nonzero"/>
 <path d="m49 30.167c0-1.196-0.971-2.167-2.167-2.167h-8.666c-1.196 0-2.167 0.971-2.167 2.167v2.666c0 1.196 0.971 2.167 2.167 2.167h8.666c1.196 0 2.167-0.971 2.167-2.167v-2.666z" style="fill:#3f3f3f"/>
 <path d="m40.333 29.4v4.2h4.334v-4.2h-4.334zm0.723 0.7h2.888v2.8h-2.888v-2.8z" style="fill-rule:nonzero;fill:#fff"/>
 <rect x="37.88" y="29.68" width="1.444" height=".7" style="fill:#fff"/>
 <rect x="38.89" y="30.38" width="1.011" height=".7" style="fill:#fff"/>
 <rect x="37.88" y="32.48" width="1.444" height=".7" style="fill:#fff"/>
 <rect x="38.89" y="31.78" width="1.011" height=".7" style="fill:#fff"/>
 <rect x="45.676" y="29.68" width="1.444" height=".7" style="fill:#fff"/>
 <rect x="45.099" y="30.38" width="1.011" height=".7" style="fill:#fff"/>
 <rect x="45.676" y="32.48" width="1.444" height=".7" style="fill:#fff"/>
 <rect x="45.099" y="31.78" width="1.011" height=".7" style="fill:#fff"/>
 <rect x="41.49" y="30.45" width="2.022" height=".7" style="fill:#fff"/>
 <rect x="41.49" y="31.85" width="2.022" height=".7" style="fill:#fff"/>
 <path d="m42.86 32.13v-1.4h-0.722v1.4h0.722z" style="fill:#fff"/>
 <defs>
  <linearGradient id="_Linear1" x2="1" gradientTransform="matrix(24.0005,0,0,24.0005,8,32)" gradientUnits="userSpaceOnUse">
   <stop style="stop-color:#cacaca" offset="0"/>
   <stop style="stop-color:#fff" offset="1"/>
  </linearGradient>
  <linearGradient id="_Linear2" x2="1" gradientTransform="matrix(-24 .361446 -.361446 -24 56 25.6112)" gradientUnits="userSpaceOnUse">
   <stop style="stop-color:#6b6b6b" offset="0"/>
   <stop style="stop-color:#9c9c9c" offset="1"/>
  </linearGradient>
 </defs>
</svg>
