<svg style="clip-rule:evenodd;fill-rule:evenodd;stroke-linejoin:round;stroke-miterlimit:2" version="1.1" viewBox="0 0 48 48" xmlns="http://www.w3.org/2000/svg">
 <path d="m23.931 1.236c6.52 0 12.383 2.714 16.525 7.078 3.87 4.077 2.769 8.623 2.769 14.714 0 12.612-7.099 20.821-19.711 20.821-6.128 0-11.26 0.517-15.344-3.395-4.321-4.139-7.003-9.971-7.003-16.454 0-12.611 10.153-22.764 22.764-22.764z" style="fill-rule:nonzero;fill:url(#_Linear1)"/>
 <path d="m40.057 39.935l-0.149 0.147c-1.697 1.672-3.602 3.042-5.647 4.099-2.879 1.511-6.528 2.368-10.33 2.583-6.373 0-12.111-2.599-16.235-6.791l14.85-14.85 0.82-14.239 1.277 0.951 0.837-2.498-1.809-5.438 10.232 9.866 6-6c4.193 4.124 6.792 9.862 6.792 16.235 0 2.81-0.516 5.49-1.445 7.967h2.583l-1.138 2.277h-2.497l-0.091 0.091c-0.527 1.013-1.195 2.117-1.838 3.001-0.089 0.122-0.164 0.232-0.22 0.322h5.784l-1.138 2.277h-6.638z" style="fill-rule:nonzero;fill:url(#_Linear2)"/>
 <path d="m29.867 44.148c-1.085-1.863-2.26-3.675-3.295-5.565 2.242-1.842 4.614-3.522 6.847-5.374-3.221-9.779-6.47-19.549-9.749-29.309-0.037 1.242 0.231 2.872 0.325 4.268 0.715 7.69 1.42 15.38 2.128 23.07-0.638 1.133-1.219 2.302-1.927 3.393-0.779-1.055-1.393-2.226-2.088-3.339 0.422-6.802 0.88-13.602 1.258-20.407-0.493 0.607-1.092 2.642-1.624 3.816-2.451 6.209-4.953 12.402-7.367 18.622 2.446 1.848 5.041 3.55 7.522 5.373-0.45 1.395-1.414 2.664-2.056 4.008-0.401 0.703-1.299 2.185-1e-3 0.973 1.471-1.105 2.916-2.244 4.397-3.336 1.906 1.297 3.764 2.662 5.671 3.957l-0.041-0.15z" style="fill-rule:nonzero;fill:#fff"/>
 <defs>
  <linearGradient id="_Linear1" x2="1" gradientTransform="matrix(7.62283,-35.0915,35.0915,7.62283,7.20596,36.3275)" gradientUnits="userSpaceOnUse">
   <stop style="stop-color:#b94bee" offset="0"/>
   <stop style="stop-color:#c16cea" offset="1"/>
  </linearGradient>
  <linearGradient id="_Linear2" x2="1" gradientTransform="matrix(-.679545 -38.022 38.022 -.679545 29.7416 45.883)" gradientUnits="userSpaceOnUse">
   <stop style="stop-color:#693f86" offset="0"/>
   <stop style="stop-color:#76528f" offset="1"/>
  </linearGradient>
 </defs>
</svg>
