<svg style="clip-rule:evenodd;fill-rule:evenodd;stroke-linejoin:round;stroke-miterlimit:2" version="1.1" viewBox="0 0 48 48" xmlns="http://www.w3.org/2000/svg">
 <circle cx="24" cy="24" r="22.764" style="fill:url(#_Linear1)"/>
 <path d="m17.745 20.085c0.029 0.032 0.091 0.036 0.126 0.057-0.025-0.019 0.083 0.047 0.165 0.067 0.122 0.03 0.214 0.073 0.331 0.066 0.06 0 0.118-0.03 0.166-0.066 0.021 0-0.022-0.055 0-0.067 0.038-0.046 0.066-0.041 0.066-0.099v-0.132c-0.05-0.175-0.154-0.432-0.298-0.96-0.168-0.609-0.322-1.409-0.43-2.183-0.108-0.776-0.162-1.535 0-2.217 0.159-0.666 0.526-1.236 1.191-1.489 0.188-0.073 0.451-0.231 0.629-0.264s0.363-0.019 0.529 0c0.55 0.038 1.003 0.285 1.323 0.662 0.539 0.632 0.794 1.568 0.96 2.547 0.163 0.975 0.21 2.02 0.231 2.812v0.96 0.066c0 0.044-0.021 0.094 0 0.132 0.023 0.041 0.094 0.043 0.133 0.066 0.03 0.019 0.033 0.029 0.066 0.033 0.06 0.02 0.12 0.047 0.231 0.066 0.378 0.07 0.979 0.099 1.621 0.199 1.285 0.2 2.967 0.57 4.698 1.026 1.733 0.455 3.47 1.08 4.864 1.985 1.388 0.901 2.431 2.068 2.646 3.639 0.137 0.974-0.605 1.952-1.621 2.845-1.014 0.891-2.341 1.729-3.771 2.514-1.43 0.786-2.918 1.497-4.103 2.052-0.592 0.277-1.119 0.469-1.522 0.661-2.046 0.826-4.349 1.562-6.782 2.052-0.096 0-0.328 0.058-0.43 0.066-12.39 1.073-6.617-14.259-6.617-14.259 1e-3 0 0.305-0.725 0.43-1.158 0.025-0.099 0.067-0.363 0.067-0.464-0.018-0.102-0.081-0.292-0.133-0.496-0.121-0.483-0.309-1.072-0.43-1.786-0.119-0.716-0.196-1.537-0.033-2.25 0.163-0.702 0.582-1.376 1.324-1.787 0.286-0.143 0.615-0.201 0.893-0.132 0.287 0.071 0.585 0.284 0.827 0.496 0.483 0.425 0.92 1.042 1.29 1.721 0.369 0.676 0.701 1.397 0.96 1.985 0.129 0.295 0.203 0.527 0.297 0.728 0.043 0.088 0.073 0.214 0.1 0.264 0.013 0.029 0.011 0.041 6e-3 0.042zm19.083-8.083c-0.017 2e-3 -0.035 3e-3 -0.053 4e-3 -1.103 0.537-1.671 1.834-2.434 2.876-0.011 0.052-0.03 0.101-0.056 0.147-0.961 1.703-2.185 3.392-2.314 5.362 7e-3 0.311 0.184 0.489 0.368 0.529 0.174 0.036 0.492-0.076 0.623-0.271 0.011-0.028 2e-3 -0.056 0.018-0.081 4e-3 -6e-3 8e-3 -0.012 0.013-0.018 1.742-2.395 3.059-5.235 4.141-7.994l3e-3 -9e-3c0.074-0.181 0.079-0.252 0.012-0.388-0.02-0.041-0.215-0.171-0.321-0.158v1e-3zm-19.083 8.083l-6e-3 -9e-3c0 6e-3 3e-3 0.01 6e-3 9e-3zm13.193-9.319c0.02 2e-3 0.04 2e-3 0.06 2e-3 0.074-5e-3 0.056-2e-3 0.077 0.012 0.02 0.014 0.069 0.065 0.149 0.161 0.115 0.14 0.153 0.212 0.175 0.333v0.027c0.171 2.616-0.287 5.288-0.928 7.833-0.047 0.065-0.078 0.141-0.091 0.221-0.047 0.294-0.15 0.498-0.31 0.61-0.148 0.103-0.212 0.122-0.254 0.114-0.057-0.012-0.154-0.102-0.23-0.201-0.011-0.033-0.024-0.065-0.041-0.095-0.411-1.502 0.101-3.094 0.26-4.659 2e-3 -0.025 2e-3 -0.049 0-0.074 0.322-1.416 0.331-2.992 1.031-4.203l0.016-0.029c-7e-3 0.014 0.02-0.017 0.078-0.053l8e-3 1e-3z" style="fill-rule:nonzero;fill:#eaeff9"/>
 <defs>
  <linearGradient id="_Linear1" x2="1" gradientTransform="matrix(2.68823e-15,-43.9021,43.9021,2.68823e-15,23.061,45.6922)" gradientUnits="userSpaceOnUse">
   <stop style="stop-color:#244896" offset="0"/>
   <stop style="stop-color:#5d91ff" offset="1"/>
  </linearGradient>
 </defs>
</svg>
