<svg style="clip-rule:evenodd;fill-rule:evenodd;stroke-linejoin:round;stroke-miterlimit:2" version="1.1" viewBox="0 0 48 48" xmlns="http://www.w3.org/2000/svg">
 <circle cx="24.031" cy="24.114" r="22.878" style="fill:url(#_Linear1)"/>
 <path d="m35.897 33.084l-8.664-8.664c-0.081-0.082-0.168-0.154-0.257-0.221l1.534-1.616c0.079-0.079 0.153-0.162 0.221-0.248 2.037 0.769 4.428 0.337 6.065-1.3 1.194-1.195 1.797-2.847 1.651-4.533-0.016-0.191-0.142-0.356-0.322-0.421-0.18-0.066-0.382-0.021-0.517 0.114l-2.777 2.777-2.811-0.709-0.797-2.9 2.775-2.776c0.137-0.136 0.181-0.338 0.116-0.518-0.066-0.18-0.231-0.305-0.422-0.322-1.686-0.146-3.338 0.456-4.533 1.651-1.636 1.636-2.069 4.025-1.301 6.061-0.084 0.071-0.167 0.146-0.248 0.226l-2.259 2.169-4.147-4.147c-0.052-0.052-0.107-0.097-0.164-0.14 0.049-0.086 0.096-0.173 0.14-0.265 0.876 0.169 2.478-1.537 3.837-2.896l-3.961-3.962c-1.772 1.772-3.066 2.961-2.898 3.837-0.405 0.197-0.766 0.439-1.022 0.696l-0.558 0.558c-0.363 0.363-0.581 0.814-0.659 1.284-0.054 0.062-0.109 0.127-0.164 0.197l-0.208 0.261c-6e-3 7e-3 -0.024 0.033-0.029 0.039l-0.188 0.264c-0.118 0.157-0.221 0.328-0.321 0.493-0.037 0.061-0.074 0.123-0.112 0.184-6e-3 0.01-0.012 0.021-0.018 0.031l-0.084 0.158c-0.101 0.19-0.206 0.386-0.296 0.603l-0.014 0.034c-0.106 0.252-0.216 0.513-0.293 0.789l-0.037 0.12c-0.03 0.098-0.061 0.196-0.09 0.313l-0.077 0.382c-0.057 0.238-0.076 0.473-0.093 0.682l-0.011 0.136c-0.029 0.216-0.02 0.42-0.013 0.6 3e-3 0.06 5e-3 0.119 7e-3 0.199 2e-3 0.033 2e-3 0.065 3e-3 0.097 2e-3 0.08 5e-3 0.172 0.02 0.268l0.048 0.309c0.011 0.06 0.02 0.118 0.028 0.174 0.018 0.125 0.037 0.255 0.075 0.379l0.202 0.703c0.063 0.214 0.266 0.355 0.488 0.34 0.118-9e-3 0.223-0.06 0.302-0.138 0.07-0.071 0.119-0.163 0.134-0.267l0.105-0.715c8e-3 -0.057 0.032-0.14 0.057-0.228 0.018-0.061 0.036-0.123 0.049-0.176l0.075-0.267c9e-3 -0.036 0.027-0.071 0.042-0.107 0.015-0.034 0.03-0.068 0.043-0.102 0.025-0.057 0.049-0.114 0.072-0.172 0.046-0.114 0.089-0.221 0.156-0.327 0.029-0.049 0.056-0.097 0.083-0.146 0.069-0.124 0.135-0.241 0.213-0.338 5e-3 -6e-3 0.01-0.012 0.015-0.019l0.176-0.243c0.036-0.046 0.077-0.089 0.116-0.133 0.028-0.03 0.056-0.061 0.092-0.102 0.104-0.125 0.226-0.234 0.344-0.342l0.063-0.056c0.087-0.082 0.189-0.158 0.295-0.239 0.043-0.032 0.086-0.064 0.128-0.096 0.054-0.035 0.106-0.07 0.157-0.104 0.096-0.065 0.179-0.121 0.275-0.171l0.209-0.119 0.211-0.104c0.074-0.038 0.147-0.067 0.214-0.094 0.039-0.017 0.079-0.033 0.115-0.049 0.037-0.012 0.073-0.026 0.107-0.039 0.045-0.016 0.084-0.032 0.137-0.046l0.057-0.013c0.062 0.101 0.135 0.196 0.223 0.284l4.102 4.102-8.757 8.412c-4e-3 3e-3 -7e-3 7e-3 -0.01 0.01-1.09 1.09-1.268 2.686-0.178 3.776s2.585 0.81 3.674-0.279l0.014-0.014 7.725-8.135c0.046 0.053 0.09 0.107 0.141 0.158l8.663 8.663c0.97 0.971 2.545 0.971 3.516 0 0.97-0.97 0.97-2.545 0-3.515zm-21.189 1.944c-0.402 0.402-1.052 0.402-1.454 0-0.401-0.401-0.401-1.052 0-1.453s1.052-0.401 1.454 0c0.401 0.402 0.401 1.052 0 1.453z" style="fill-rule:nonzero;fill:url(#_Linear2)"/>
 <defs>
  <linearGradient id="_Linear1" x2="1" gradientTransform="matrix(2.80175e-15,-45.7561,45.7561,2.80175e-15,23.4655,46.8004)" gradientUnits="userSpaceOnUse">
   <stop style="stop-color:#6c6d6e" offset="0"/>
   <stop style="stop-color:#9b9c9e" offset="1"/>
  </linearGradient>
  <linearGradient id="_Linear2" x2="1" gradientTransform="matrix(1.7521e-15,-28.6139,28.6139,1.7521e-15,24.0274,34.2235)" gradientUnits="userSpaceOnUse">
   <stop style="stop-color:#d3d3d3;stop-opacity:.9" offset="0"/>
   <stop style="stop-color:#fcf9f9;stop-opacity:.9" offset="1"/>
  </linearGradient>
 </defs>
</svg>
