<svg style="clip-rule:evenodd;fill-rule:evenodd;stroke-linejoin:round;stroke-miterlimit:2" version="1.1" viewBox="0 0 48 48" xmlns="http://www.w3.org/2000/svg">
 <path d="m25.016 43.907l4.096-5.745h10.379s5.205 0.086 5.205-7.339v-23.352c-0.328-5.081-4.938-5.471-4.938-5.471h-30.691s-5.681 0.333-5.763 5.872v22.951c0.01 7.23 5.763 7.339 5.763 7.339h10.603l3.691 5.722c0.803 0.937 0.815 0.814 1.655 0.023z" style="fill:url(#_Linear1)"/>
 <path d="m20.387 13.196c-1.307 0-4.551 1.387-5.059 2.162-0.526 0.802-1.484 3.325-1.951 5.143-0.582 2.265-0.97 5.578-0.711 6.062 0.491 0.917 2.544 2.277 3.932 2.604 1.283 0.302 1.791 0.225 2.398-0.364 0.312-0.302 0.566-0.648 0.566-0.769 0-0.122-0.368-0.409-0.818-0.637-0.914-0.463-1.719-1.066-1.588-1.189 0.048-0.045 0.628 0.139 1.289 0.408 3.632 1.478 7.54 1.478 11.172 0 0.662-0.269 1.242-0.453 1.289-0.408 0.147 0.138-0.73 0.769-1.676 1.207-0.496 0.229-0.902 0.486-0.902 0.57s0.24 0.426 0.533 0.76c0.402 0.457 0.668 0.606 1.075 0.603 1.598-0.012 3.556-0.89 4.691-2.103l0.789-0.844-0.119-1.402c-0.345-4.049-1.969-9.216-3.166-10.069-1.483-1.055-4.592-2.044-5.035-1.601-0.145 0.145-0.067 0.248 0.304 0.402 1.612 0.67 2.345 1.029 2.266 1.108-0.049 0.049-0.698-0.089-1.443-0.305-1.184-0.343-1.737-0.391-4.364-0.389-2.606 2e-3 -3.191 0.054-4.382 0.393-0.757 0.215-1.53 0.432-1.719 0.482-0.692 0.182 0.832-0.685 1.857-1.056 1.097-0.398 1.47-0.768 0.772-0.768zm7.091 7.307c0.129 0 0.262 0.012 0.399 0.039 0.248 0.047 0.683 0.35 0.967 0.673 0.871 0.992 0.608 2.659-0.51 3.237-0.679 0.351-1.183 0.327-1.863-0.088-1.798-1.096-0.917-3.865 1.007-3.861zm-7.335 0.033c1.165-0.124 2.261 0.948 2.117 2.263-0.142 1.296-1.53 2.231-2.612 1.758-1.644-0.718-1.648-3.206-5e-3 -3.892 0.166-0.07 0.333-0.111 0.5-0.129z" style="fill-rule:nonzero;fill:url(#_Linear2)"/>
 <defs>
  <linearGradient id="_Linear1" x2="1" gradientTransform="matrix(-.994934 -47.6268 47.6268 -.994934 24.1647 49.8643)" gradientUnits="userSpaceOnUse">
   <stop style="stop-color:#153f96" offset="0"/>
   <stop style="stop-color:#6b92ec" offset="1"/>
  </linearGradient>
  <linearGradient id="_Linear2" x2="1" gradientTransform="matrix(.193693 -25.8723 25.8723 .193693 23.6478 34.8892)" gradientUnits="userSpaceOnUse">
   <stop style="stop-color:#dcdfe0" offset="0"/>
   <stop style="stop-color:#fefeff" offset="1"/>
  </linearGradient>
 </defs>
</svg>
