<svg style="clip-rule:evenodd;fill-rule:evenodd;stroke-linejoin:round;stroke-miterlimit:2" version="1.1" viewBox="0 0 48 48" xmlns="http://www.w3.org/2000/svg">
 <path d="m39.44 45.668h-30.88c-3.438 0-6.228-2.79-6.228-6.228v-30.88c0-3.438 2.79-6.228 6.228-6.228h30.88c3.438 0 6.228 2.79 6.228 6.228v30.88c0 3.438-2.789 6.227-6.228 6.228z" style="fill:url(#_Linear1)"/>
 <path d="m2.332 9.588v-1.028c0-3.438 2.79-6.228 6.228-6.228h30.88c3.438 0 6.228 2.79 6.228 6.228v1.028h-43.336z" style="fill-opacity:.1;fill:#ebebeb"/>
 <path d="m33.317 7.335h-0.105c-0.099 0-0.178-0.081-0.178-0.18v-0.302c-0.426-0.107-0.548-0.36-0.548-0.879 0-0.766 0.622-1.389 1.388-1.389s1.388 0.623 1.388 1.389c0 0.511-0.129 0.763-0.546 0.874v0.306c0 0.1-0.081 0.18-0.18 0.18h-0.104c-0.099 0-0.18-0.08-0.18-0.18v-0.24c-0.047 3e-3 -0.095 5e-3 -0.146 6e-3v0.235c0 0.099-0.08 0.179-0.179 0.179h-0.104c-0.1 0-0.18-0.08-0.18-0.179v-0.234c-0.051-1e-3 -0.1-3e-3 -0.147-6e-3v0.24c0 0.099-0.08 0.18-0.179 0.18zm-0.018-1.926c0.235 0.092 0.426 0.185 0.426 0.414 0 0.227-0.154 0.271-0.426 0.412-0.209 0.109-0.427-0.185-0.427-0.412 0-0.229 0.207-0.499 0.427-0.414zm1.145 0c0.227-0.064 0.426 0.185 0.426 0.414 0 0.227-0.224 0.533-0.426 0.412-0.248-0.147-0.426-0.185-0.426-0.412 0-0.229 0.166-0.34 0.426-0.414z" style="fill-opacity:.5;fill:#ededed"/>
 <path d="m40.535 5.039 0.418 0.442 0.661-0.626 0.528 0.557-0.66 0.626 0.418 0.442c0.143 0.15 0.141 0.383-3e-3 0.518-0.144 0.137-0.376 0.126-0.517-0.024l-0.42-0.442-0.662 0.628-0.529-0.557 0.664-0.596-0.419-0.475c-0.143-0.15-0.14-0.382 3e-3 -0.518 0.144-0.136 0.376-0.125 0.518 0.025z" style="fill-opacity:.5;fill:#fff"/>
 <path d="m37.201 4.892 4e-3 -0.169 0.607 0.016-6e-3 0.169 0.328 9e-3c0.314 9e-3 0.563 0.272 0.554 0.586l-0.031 1.139c-8e-3 0.315-0.27 0.564-0.585 0.555l-1.26-0.034c-0.315-8e-3 -0.563-0.271-0.554-0.585l0.03-1.14c8e-3 -0.315 0.271-0.563 0.586-0.555l0.327 9e-3zm-0.182 0.496c0.163 4e-3 0.292 0.141 0.287 0.304-3e-3 0.163-0.14 0.292-0.303 0.288s-0.293-0.141-0.288-0.304c4e-3 -0.163 0.141-0.292 0.304-0.288zm1.009 0.027c0.163 5e-3 0.293 0.14 0.288 0.304-4e-3 0.164-0.14 0.293-0.304 0.288-0.163-4e-3 -0.292-0.14-0.288-0.304 5e-3 -0.163 0.141-0.292 0.304-0.288z" style="fill-opacity:.5;fill:#fff"/>
 <path d="m34.366 21.924c-0.071-0.093-0.163-0.148-0.279-0.166l-2.43-0.372c-0.133-0.425-0.314-0.859-0.544-1.301 0.159-0.222 0.398-0.534 0.716-0.937 0.319-0.403 0.545-0.697 0.678-0.883 0.071-0.097 0.106-0.199 0.106-0.305 0-0.124-0.031-0.222-0.093-0.292-0.319-0.452-1.049-1.205-2.191-2.258-0.106-0.089-0.217-0.133-0.332-0.133-0.133 0-0.239 0.04-0.319 0.119l-1.886 1.421c-0.363-0.186-0.761-0.349-1.195-0.491l-0.372-2.444c-9e-3 -0.115-0.06-0.21-0.153-0.285-0.093-0.076-0.201-0.113-0.325-0.113h-2.948c-0.257 0-0.417 0.124-0.479 0.372-0.115 0.442-0.243 1.266-0.385 2.47-0.416 0.133-0.819 0.301-1.208 0.505l-1.833-1.421c-0.115-0.089-0.23-0.133-0.345-0.133-0.195 0-0.613 0.316-1.255 0.949-0.642 0.634-1.078 1.109-1.309 1.428-0.079 0.115-0.119 0.217-0.119 0.306 0 0.106 0.044 0.212 0.133 0.318 0.593 0.718 1.067 1.328 1.421 1.833-0.222 0.407-0.394 0.815-0.518 1.222l-2.47 0.372c-0.098 0.018-0.182 0.075-0.253 0.173-0.071 0.097-0.106 0.199-0.106 0.305v2.948c0 0.116 0.035 0.219 0.106 0.312s0.164 0.149 0.279 0.167l2.431 0.358c0.124 0.434 0.305 0.872 0.544 1.315-0.159 0.221-0.398 0.533-0.717 0.936s-0.545 0.697-0.677 0.883c-0.071 0.098-0.107 0.2-0.107 0.306 0 0.115 0.031 0.217 0.093 0.305 0.346 0.478 1.076 1.222 2.192 2.231 0.097 0.098 0.208 0.147 0.332 0.147 0.133 0 0.243-0.04 0.332-0.12l1.873-1.421c0.363 0.186 0.761 0.35 1.195 0.492l0.372 2.443c9e-3 0.115 0.06 0.21 0.153 0.286 0.092 0.075 0.201 0.112 0.325 0.112h2.948c0.257 0 0.417-0.123 0.479-0.371 0.115-0.443 0.243-1.266 0.385-2.47 0.416-0.133 0.819-0.302 1.208-0.505l1.833 1.434c0.124 0.08 0.239 0.12 0.345 0.12 0.195 0 0.611-0.315 1.249-0.943 0.637-0.629 1.075-1.107 1.314-1.435 0.08-0.088 0.12-0.19 0.12-0.305s-0.044-0.226-0.133-0.332c-0.637-0.779-1.111-1.39-1.421-1.833 0.177-0.328 0.35-0.73 0.518-1.209l2.457-0.371c0.106-0.018 0.195-0.076 0.266-0.173 0.07-0.098 0.106-0.2 0.106-0.306v-2.948c0-0.115-0.036-0.219-0.107-0.312zm-7.689 4.164c-0.664 0.664-1.465 0.996-2.404 0.996s-1.74-0.332-2.404-0.996-0.996-1.466-0.996-2.404c0-0.939 0.332-1.74 0.996-2.404s1.466-0.996 2.404-0.996c0.939 0 1.74 0.332 2.404 0.996s0.996 1.465 0.996 2.404c0 0.938-0.332 1.74-0.996 2.404z" style="fill-rule:nonzero;fill:url(#_Linear2)"/>
 <defs>
  <linearGradient id="_Linear1" x2="1" gradientTransform="matrix(2.21762e-15,-36.2165,36.2165,2.21762e-15,489.464,42.119)" gradientUnits="userSpaceOnUse">
   <stop style="stop-color:#00ab99" offset="0"/>
   <stop style="stop-color:#01e29a" offset="1"/>
  </linearGradient>
  <linearGradient id="_Linear2" x2="1" gradientTransform="matrix(2.54707,0,0,2.54707,14.5162,251.88)" gradientUnits="userSpaceOnUse">
   <stop style="stop-color:#e6f3ff" offset="0"/>
   <stop style="stop-color:#dcffe7" offset="1"/>
  </linearGradient>
 </defs>
</svg>
