<svg style="clip-rule:evenodd;fill-rule:evenodd;stroke-linejoin:round;stroke-miterlimit:2" version="1.1" viewBox="0 0 48 48" xmlns="http://www.w3.org/2000/svg">
 <circle cx="24" cy="24" r="22.764" style="fill:url(#_Linear1)"/>
 <path d="m33.756 35.382c0.898 0 1.626 0.728 1.626 1.626s-0.728 1.626-1.626 1.626h-19.512c-0.898 0-1.626-0.728-1.626-1.626s0.728-1.626 1.626-1.626h19.512zm-6.991-17.518c-1.148 2.486-3.063 4.485-5.742 5.46l2.297 6.092c0.43 1.121 0.813 2.291 0.478 3.364-0.335 1.072-1.866 1.413-2.966 0.243-2.106-2.291-9.189-16.719-9.715-17.791-0.527-1.073-1.101-1.95-1.101-3.022 0.048-1.608 2.489-3.266 3.685-4.094 1.197-0.829 3.541-1.95 5.599-1.999s2.92 0.439 4.115 1.219c1.819 1.219 3.111 3.119 3.59 5.313 0.478 2.193 0.335 3.899-0.24 5.118v0.097zm5.294 14.777c-0.099 0.395-0.347 0.748-0.743 0.967-0.396 0.22-1.336 0.22-1.88-0.176-0.545-0.396-0.644-1.056-0.495-1.583 0.148-0.529 0.643-1.1 1.336-1.277 1.435-0.396 2.079 1.012 1.782 2.069zm-1.457-4.643c-0.83-0.336-0.553-4.953 0.23-10.58 0.23-1.539 0.599-2.308 1.013-2.694 0.414-0.384 1.658-0.577 2.395-0.432 0.848 0.132 1.636 0.535 2.257 1.154 0.552 0.529 0.598 1.106 0.413 1.827-0.183 0.722-0.828 2.261-1.335 3.367l-1.289 2.549c-2.487 4.617-2.993 5.098-3.684 4.809zm-9.244-12.864c-0.431-1.51-1.34-2.973-2.537-3.948-0.239-0.195-0.526-0.438-0.861-0.535-2.201-0.732-1.244 3.021-0.909 3.996s1.244 3.022 2.249 4.046c0.239 0.244 0.479 0.439 0.766 0.488 0.287 0.048 0.861-0.244 1.101-0.635 0.239-0.389 0.287-0.682 0.287-1.072 0.113-0.779 0.08-1.572-0.096-2.34z" style="fill:#fff"/>
 <defs>
  <linearGradient id="_Linear1" x2="1" gradientTransform="matrix(.598431 -44.5359 44.5359 .598431 201.545 48.9451)" gradientUnits="userSpaceOnUse">
   <stop style="stop-color:#008597" offset="0"/>
   <stop style="stop-color:#48b9c7" offset="1"/>
  </linearGradient>
 </defs>
</svg>
