<svg style="clip-rule:evenodd;fill-rule:evenodd;stroke-linejoin:round;stroke-miterlimit:2" version="1.1" viewBox="0 0 48 48" xmlns="http://www.w3.org/2000/svg">
 <circle cx="24" cy="24" r="22.764" style="fill:url(#_Linear1)"/>
 <g transform="matrix(.429125 0 0 .429125 -3.46402 -400.128)">
  <path d="m64 940.36c-26.51 0-48 21.49-48 48s21.49 48 48 48 48-21.49 48-48-21.49-48-48-48zm0 4c20.155 0 37.145 13.552 42.355 32.04-4.488 9.256-10.873 17.59-18.65 24.33-3.736 3.23-7.815 6.11-12.32 8.15-4.506 2.03-9.461 3.18-14.395 2.89-3.707-0.21-7.369-1.24-10.615-3.04 8.603-4.66 16.366-10.877 22.72-18.32 4.171-4.885 7.82-10.437 9.225-16.705 0.703-3.134 0.822-6.416 0.165-9.56s-2.11-6.14-4.31-8.48c-2.149-2.286-4.97-3.905-7.995-4.74-3.025-0.834-6.243-0.899-9.33-0.335-6.173 1.128-11.685 4.716-16.105 9.17-7.792 7.851-12.609 18.929-11.725 29.955 0.442 5.513 2.289 10.925 5.455 15.465 0.707 1.01 1.483 1.98 2.315 2.89-4.612 1.61-9.387 2.76-14.23 3.41-4.158-6.72-6.56-14.638-6.56-23.12 0-24.301 19.699-44 44-44zm0.28 8.89c3.093 4e-3 6.207 0.941 8.675 2.805 2.224 1.68 3.871 4.069 4.805 6.695s1.174 5.477 0.855 8.245c-0.637 5.537-3.43 10.614-6.805 15.05-5.975 7.854-13.917 14.145-22.75 18.545-0.904 0.44-1.823 0.87-2.745 1.29-1.922-1.69-3.569-3.68-4.825-5.905-2.624-4.646-3.489-10.164-2.98-15.475s2.332-10.43 4.78-15.17c2.839-5.496 6.708-10.702 12.125-13.69 2.708-1.494 5.772-2.394 8.865-2.39zm43.325 29.22c0.258 1.927 0.395 3.893 0.395 5.89 0 24.3-19.699 44-44 44-13.647 0-25.844-6.21-33.915-15.97 4.981-1.13 9.85-2.75 14.52-4.82 2.042 1.56 4.298 2.83 6.695 3.75 6.904 2.65 14.743 2.26 21.73-0.15 6.987-2.42 13.183-6.77 18.585-11.81 6.435-6.02 11.86-13.11 15.99-20.89z" style="fill-opacity:.87;fill-rule:nonzero;fill:white"/>
 </g>
 <defs>
  <linearGradient id="_Linear1" x2="1" gradientTransform="matrix(2.78779e-15,-45.5281,45.5281,2.78779e-15,136.545,46.764)" gradientUnits="userSpaceOnUse">
   <stop style="stop-color:rgb(0,103,131)" offset="0"/>
   <stop style="stop-color:rgb(32,204,255)" offset="1"/>
  </linearGradient>
 </defs>
</svg>
