<svg style="clip-rule:evenodd;fill-rule:evenodd;stroke-linejoin:round;stroke-miterlimit:2" version="1.1" viewBox="0 0 48 48" xmlns="http://www.w3.org/2000/svg">
 <circle cx="23.995" cy="24" r="22.195" style="fill:#2d4a5e"/>
 <path d="m29.326 21.632c0 12.572 5.725 2.661-6.848 2.661-12.572 0-19.736 11.902-19.736-0.671 0-0.804-1.469-1.221-1.388-2.004 1.024-9.85 8.33-17.834 17.842-19.875 1.547-0.332 3.153 0.701 4.799 0.701 12.572 0 5.331 6.616 5.331 19.188z" style="fill-rule:nonzero;fill:#bcdced"/>
 <path d="m23.995 1.236c-1.371 0.01-2.739 0.144-4.086 0.4l6.611 11.473 11.024-7.34c-3.913-2.926-8.663-4.515-13.549-4.533z" style="fill-rule:nonzero;fill:#65a3cf"/>
 <path d="m28.392 34.337l-4.564 12.418-0.135-7e-3v3e-3c0.1 5e-3 0.201 9e-3 0.302 0.013 6.201-0.01 12.135-2.553 16.419-7.036l-12.022-5.391z" style="fill-rule:nonzero;fill:#6d8da4"/>
 <path d="m20.274 39.355l-4.822 5.726c2.253 0.913 4.639 1.458 7.065 1.616v-6e-3l-0.176-9e-3 -2.067-7.327z" style="fill-rule:nonzero;fill:#426f8e"/>
 <path d="m37.562 5.755l-35.635 23.736c0.115 0.46 0.245 0.917 0.389 1.369l42.789 1.616c1.087-2.694 1.649-5.571 1.654-8.476-0.011-7.187-3.425-13.961-9.197-18.245z" style="fill-opacity:.7;fill-rule:nonzero;fill:#1b5e99"/>
 <path d="m12.017 4.659c-0.419 0.266-0.829 0.544-1.229 0.836l5.42 19.323 1.64-15.49-5.831-4.669z" style="fill-rule:nonzero;fill:#81bde3"/>
 <path d="m19.898 1.618c-0.424 0.083-0.846 0.178-1.265 0.285l-0.785 7.425 6.56 5.255 2.128-1.447-6.638-11.518z" style="fill-rule:nonzero;fill:#4f96cb"/>
 <path d="m32.427 23.358l-4.035 10.979 12.025 5.391c0.306-0.311 0.603-0.63 0.891-0.958l-8.881-15.412z" style="fill-rule:nonzero;fill:#5687a5"/>
 <path d="m16.208 24.818l-2.081 19.665c0.434 0.214 0.875 0.414 1.323 0.6l4.833-5.74-4.075-14.525z" style="fill-opacity:.7;fill-rule:nonzero;fill:#3885c0"/>
 <path d="m43.338 12.024l-7.325 1.572v2e-3l-5.382 14.646 13.409-14.992c-0.221-0.417-0.455-0.826-0.702-1.227v-1e-3z" style="fill-rule:nonzero;fill:#224c6d"/>
 <path d="m15.739 28.597l-1.797 15.795c0.523 0.262 1.055 0.504 1.597 0.725l4.835-5.407-2.926-10.372-1.709-0.741z" style="fill-rule:nonzero;fill:#29628f"/>
 <path d="m17.848 9.328l-0.884 8.359 3.963-0.852 3.437-2.287-6.516-5.22z" style="fill-rule:nonzero;fill:#438ec5"/>
 <path d="m26.536 13.136l-2.128 1.447-0.044-0.035-3.437 2.287 6.889-1.478-1.28-2.221z" style="fill-rule:nonzero;fill:#2f6c9f"/>
 <path d="m27.816 15.357l8.308-1.783 2.552-6.947c-0.368-0.298-0.746-0.584-1.132-0.858l-10.955 7.458 1.227 2.13z" style="fill-rule:nonzero;fill:#316e9e"/>
 <path d="m38.576 6.582l-2.579 7.019 7.307-1.57c-1.276-2.056-2.872-3.895-4.728-5.449z" style="fill-rule:nonzero;fill:#4c7da1"/>
 <path d="m44.02 13.225s0.016 0.031 0 0z" style="fill-opacity:.7;fill-rule:nonzero;fill:#f0f"/>
 <path d="m1.398 22.382c-0.048 0.55-0.075 1.103-0.083 1.656 0.011 1.823 0.24 3.638 0.683 5.406l6.187-4.121-6.487-2.812-0.3-0.129z" style="fill-rule:nonzero;fill:#4c7798"/>
 <path d="m37.516 32.19l3.792 6.58c1.598-1.878 2.881-4.004 3.797-6.294l-7.589-0.286z" style="fill-rule:nonzero;fill:#71848e"/>
 <path d="m44.034 13.254l-13.425 15.008-1.33 3.616 15.826 0.598c1.087-2.694 1.649-5.571 1.654-8.476-9e-3 -3.752-0.945-7.443-2.725-10.746z" style="fill-rule:nonzero;fill:#35576f"/>
 <path d="m8.207 25.307l-6.28 4.184c0.115 0.46 0.245 0.917 0.389 1.369l13.105 0.496 0.32-2.81-7.534-3.239z" style="fill-rule:nonzero;fill:#285477"/>
 <path d="m33.434 25.105l-2.799 3.125-1.34 3.648 8.221 0.312-4.082-7.085z" style="fill-rule:nonzero;fill:#265679"/>
 <path d="m2.069 29.993c-0.01 7e-3 -0.017 0.013-0.027 0.02 1.73 6.276 6.065 11.502 11.9 14.372l1.488-13.065h-5e-3l-4e-3 0.036-13.105-0.496c-0.091-0.286-0.167-0.577-0.247-0.867zm11.973 14.443c0.029 0.014 0.056 0.031 0.085 0.045v-5e-3c-0.028-0.013-0.057-0.026-0.085-0.04z" style="fill-rule:nonzero;fill:#4f82a6"/>
 <path d="m15.739 28.597l-0.309 2.71 2.601 0.098-0.583-2.067-1.709-0.741z" style="fill-rule:nonzero;fill:#20476a"/>
 <path d="m32.427 23.358l-1.796 4.886 2.803-3.135-1.007-1.751z" style="fill-rule:nonzero;fill:#1d4568"/>
 <path d="m33.087 21.561l-2.456 6.683 4.506-5.038-2.05-1.645z" style="fill-rule:nonzero;fill:#204a6c"/>
 <path d="m35.132 23.204l-1.698 1.901 4.082 7.085 1.965 0.073 5.586 0.211c0.074-0.168 0.146-0.337 0.216-0.507 0.06-0.161 0.112-0.324 0.169-0.486l-10.32-8.277z" style="fill-rule:nonzero;fill:#2c5774"/>
 <path d="m24.353 14.554l-3.426 2.281 4.944-1.06-1.518-1.221z" style="fill-rule:nonzero;fill:#2e639c"/>
 <path d="m32.427 23.358l-1.796 4.884 2.805-3.135-1.009-1.749z" style="fill-rule:nonzero;fill:#1d4568"/>
 <path d="m36.013 13.596l-34.4 7.387-0.162 0.036c-0.059 0.44-0.105 0.882-0.138 1.325l16.135 6.994 4.893 17.344 1.487 0.073 12.185-33.159z" style="fill-rule:nonzero;fill:#343f4b"/>
 <path d="m20.092 27.072l-10.622-5.106 22.011-4.518-8.007 21.228-3.382-11.604z" style="fill-rule:nonzero;fill:#fff"/>
</svg>
