<svg clip-rule="evenodd" fill-rule="evenodd" stroke-linejoin="round" stroke-miterlimit="2" viewBox="0 0 48 48" xmlns="http://www.w3.org/2000/svg">
 <linearGradient id="a" x2="1" gradientTransform="matrix(.0653223 -45.5217 45.5217 .0653223 24.4764 46.764)" gradientUnits="userSpaceOnUse">
  <stop stop-color="#33363e" offset="0"/>
  <stop stop-color="#404552" offset="1"/>
 </linearGradient>
 <circle cx="24" cy="24" r="22.764" fill="url(#a)"/>
 <g fill="#fff" fill-rule="nonzero">
  <path d="m28.748 5.789c-.429.006-.875.047-1.407.152-.967.192-1.976.777-2.828 1.371-2.894 2.015-3.659 5.954-1.714 8.8 1.627 2.38 4.669 3.213 7.322 2.302.56-.192.784-.212 1.218-.248.56-.047 1.462.022 2.269.42.657.324 1.219.607 1.584 1.36.095.196.262.544.298.984.057.701-.083 1.042-.547 1.932.738-.595 1.091-.693 2.186-2.025 2.18-2.651 2.294-7.079-.081-10.553-1.76-2.574-4.454-4.219-6.994-4.431-.465-.039-.877-.069-1.306-.064z"/>
  <path d="m13.379 13.758c-2.993.066-6.117 2.067-7.672 5.346-1.318 2.778-1.382 5.903-.303 8.19.395.837.716 1.477 1.423 2.288.644.738 1.642 1.317 2.57 1.758 3.151 1.498 6.883.219 8.339-2.85v-.002c1.217-2.568.42-5.593-1.671-7.425-.442-.387-.57-.57-.816-.925-.318-.458-.708-1.267-.77-2.156-.05-.725-.09-1.347.37-2.03.119-.178.335-.491.691-.738.568-.394.927-.442 1.914-.481-.872-.341-1.129-.597-2.806-.884-.417-.072-.841-.101-1.269-.091z"/>
  <path d="m31.684 27.416c-.205-.005-.412.003-.621.02v-.003c-2.796.224-4.985 2.375-5.519 5.037-.113.562-.206.76-.389 1.141-.235.492-.735 1.217-1.465 1.703-.594.396-1.107.732-1.917.677-.211-.015-.585-.043-.972-.224-.617-.288-.834-.566-1.354-1.381.139.903.046 1.243.628 2.8 1.158 3.099 4.822 5.32 8.902 4.993 3.024-.241 5.727-1.711 7.149-3.739.521-.742.909-1.326 1.253-2.319.313-.904.316-2.031.235-3.03-.259-3.182-2.853-5.605-5.93-5.675z"/>
 </g>
</svg>
