<svg style="clip-rule:evenodd;fill-rule:evenodd;stroke-linejoin:round;stroke-miterlimit:2" version="1.1" viewBox="0 0 48 48" xmlns="http://www.w3.org/2000/svg">
 <path d="m23.564 5.466l-14.872 35.347c4.184 3.819 9.643 5.941 15.308 5.951 5.374-9e-3 10.571-1.918 14.672-5.391l-15.108-35.907z" style="fill-rule:nonzero;fill:url(#_Linear1)"/>
 <path d="m22.846 1.278c-12.032 0.611-21.603 10.674-21.61 22.722 2e-3 5.957 2.342 11.682 6.514 15.935h0.315l14.781-38.657z" style="fill-rule:nonzero;fill:url(#_Linear2)"/>
 <path d="m25.16 1.294l14.775 38.641h0.293c4.18-4.249 6.528-9.975 6.536-15.935-0.015-12.04-9.579-22.092-21.604-22.706z" style="fill-rule:nonzero;fill:url(#_Linear3)"/>
 <path d="m24 1.236c-0.777 8e-3 -1.553 0.057-2.325 0.144-0.124 0.371-7.448 22.275-14.517 37.897 0.889 0.978 1.861 1.878 2.906 2.687l3.692-8.858h20.488l3.697 8.874c1.044-0.815 2.014-1.719 2.901-2.703-7.079-15.644-14.42-37.611-14.523-37.921-0.771-0.079-1.545-0.119-2.319-0.12zm0 7.967l7.967 19.35h-15.934l7.967-19.35z" style="fill-rule:nonzero;fill:#fff"/>
 <defs>
  <linearGradient id="_Linear1" x2="1" gradientTransform="matrix(-.317896 -38.4493 38.4493 -.317896 24 46.764)" gradientUnits="userSpaceOnUse">
   <stop style="stop-color:#d8993e" offset="0"/>
   <stop style="stop-color:#ffab32" offset="1"/>
  </linearGradient>
  <linearGradient id="_Linear2" x2="1" gradientTransform="matrix(2.44316e-15,-39.8998,39.8998,2.44316e-15,7.1582,41.98)" gradientUnits="userSpaceOnUse">
   <stop style="stop-color:#1f577f" offset="0"/>
   <stop style="stop-color:#255f8a" offset="1"/>
  </linearGradient>
  <linearGradient id="_Linear3" x2="1" gradientTransform="matrix(-.852924 -45.528 45.528 -.852924 32.8203 46.764)" gradientUnits="userSpaceOnUse">
   <stop style="stop-color:#b32d18" offset="0"/>
   <stop style="stop-color:#df391e" offset="1"/>
  </linearGradient>
 </defs>
</svg>
