<svg clip-rule="evenodd" fill-rule="evenodd" stroke-linejoin="round" stroke-miterlimit="2" viewBox="0 0 48 48" xmlns="http://www.w3.org/2000/svg">
 <linearGradient id="a" x2="1" gradientTransform="matrix(.598431 -44.5359 44.5359 .598431 201.545 48.9451)" gradientUnits="userSpaceOnUse">
  <stop stop-color="#008597" offset="0"/>
  <stop stop-color="#48b9c7" offset="1"/>
 </linearGradient>
 <circle cx="24" cy="24" r="22.764" fill="url(#a)"/>
 <path d="m33.756 35.382c.898 0 1.626.728 1.626 1.626s-.728 1.626-1.626 1.626h-19.512c-.898 0-1.626-.728-1.626-1.626s.728-1.626 1.626-1.626zm-6.991-17.518c-1.148 2.486-3.063 4.485-5.742 5.46l2.297 6.092c.43 1.121.813 2.291.478 3.364-.335 1.072-1.866 1.413-2.966.243-2.106-2.291-9.189-16.719-9.715-17.791-.527-1.073-1.101-1.95-1.101-3.022.048-1.608 2.489-3.266 3.685-4.094 1.197-.829 3.541-1.95 5.599-1.999s2.92.439 4.115 1.219c1.819 1.219 3.111 3.119 3.59 5.313.478 2.193.335 3.899-.24 5.118zm5.294 14.777c-.099.395-.347.748-.743.967-.396.22-1.336.22-1.88-.176-.545-.396-.644-1.056-.495-1.583.148-.529.643-1.1 1.336-1.277 1.435-.396 2.079 1.012 1.782 2.069zm-1.457-4.643c-.83-.336-.553-4.953.23-10.58.23-1.539.599-2.308 1.013-2.694.414-.384 1.658-.577 2.395-.432.848.132 1.636.535 2.257 1.154.552.529.598 1.106.413 1.827-.183.722-.828 2.261-1.335 3.367l-1.289 2.549c-2.487 4.617-2.993 5.098-3.684 4.809zm-9.244-12.864c-.431-1.51-1.34-2.973-2.537-3.948-.239-.195-.526-.438-.861-.535-2.201-.732-1.244 3.021-.909 3.996s1.244 3.022 2.249 4.046c.239.244.479.439.766.488.287.048.861-.244 1.101-.635.239-.389.287-.682.287-1.072.113-.779.08-1.572-.096-2.34z" fill="#fff"/>
</svg>
