<?xml version="1.0" encoding="UTF-8" standalone="no"?><!DOCTYPE svg PUBLIC "-//W3C//DTD SVG 1.1//EN" "http://www.w3.org/Graphics/SVG/1.1/DTD/svg11.dtd"><svg width="100%" height="100%" viewBox="0 0 64 64" version="1.1" xmlns="http://www.w3.org/2000/svg" xmlns:xlink="http://www.w3.org/1999/xlink" xml:space="preserve" xmlns:serif="http://www.serif.com/" style="fill-rule:evenodd;clip-rule:evenodd;stroke-linejoin:round;stroke-miterlimit:1.41421;"><path d="M60,17.394c0,-7.393 -6.001,-13.394 -13.394,-13.394l-29.212,0c-7.393,0 -13.394,6.001 -13.394,13.394l0,29.212c0,7.393 6.001,13.394 13.394,13.394l29.212,0c7.393,0 13.394,-6.001 13.394,-13.394l0,-29.212Z" style="fill:url(#_Linear1);"/><path d="M22,19l0,20c0,4 3,6 6,6l14,0c3.324,0 5,-1.676 5,-5l0,-13c0,-2.499 -2.568,-4 -5,-4c-1.473,0 -2.577,0.657 -3.531,1.635c-0.953,-0.978 -1.996,-1.635 -3.469,-1.635c-2.636,0 -5,1.537 -5,4l0,10l3,0l0,-9c0,-1.243 0.757,-2 2,-2c1.243,0 2,0.757 2,2l0,9l3,0l0,-9c0,-1.243 0.757,-2 2,-2c1.243,0 2,0.757 2,2l0,12c0,1.662 -0.338,2 -2,2l-14,0c-2,0 -3,-2 -3,-4l0,-19l-3,0Z" style="fill:#fff;fill-rule:nonzero;"/><path d="M9,13l0,12l6,0l0,12c0,8 5,15 13,15l26,0l0,-25c0,-8.226 -6.774,-13.96 -15,-14l-30,0Zm3,3l27,0c6.615,0 12,4.385 12,11l0,22l-23,0c-6,0 -10,-6 -10,-12l0,-11c0,-2.965 -1.152,-4 -4,-4l-2,0l0,-6Z" style="fill:#fff;fill-rule:nonzero;"/><defs><linearGradient id="_Linear1" x1="0" y1="0" x2="1" y2="0" gradientUnits="userSpaceOnUse" gradientTransform="matrix(-0.992771,-56,56,-0.992771,32.9928,60)"><stop offset="0" style="stop-color:#2c9e00;stop-opacity:1"/><stop offset="1" style="stop-color:#7ec242;stop-opacity:1"/></linearGradient></defs></svg>