<svg style="clip-rule:evenodd;fill-rule:evenodd;stroke-linejoin:round;stroke-miterlimit:2" version="1.1" viewBox="0 0 48 48" xmlns="http://www.w3.org/2000/svg">
 <circle cx="23.98" cy="24.009" r="22.784" style="fill:url(#_Linear1)"/>
 <path d="m22.01 8.726l-2.677 0.717 2.283 5.843 0.824 0.477c4.106-0.867 8.607 1.62 9.975 5.612 0.021 0.058 0.035 0.119 0.056 0.178l1.025 0.592 6.202-0.944-0.718-2.677-5.222-0.753-2.055-2.318 1.599-4.733-2.545-1.47-3.297 3.752-3.035-0.619-2.415-3.657zm-8.359 3.915l-1.959 1.96 1.959 4.899-0.979 2.939-4.9 0.98v2.94l4.9 0.979 0.979 2.939-1.959 3.919 1.959 1.961 3.92-4.9v-1.014c-1.129-1.248-1.911-2.803-2.134-4.501-0.458-2.583 0.435-5.237 2.134-7.174v-1.028l-3.92-4.899zm19.942 14.016l-1.136 0.657c-1.15 3.186-4.188 5.68-7.638 5.865-0.782 0.079-1.561 0.03-2.319-0.117l-0.787 0.454-2.283 5.842 2.678 0.718 3.263-4.147 3.034-0.62 3.3 3.753 2.545-1.47-1.603-4.732 2.059-2.32 4.372-0.263 0.717-2.677-6.202-0.943z" style="fill-opacity:.64;fill-rule:nonzero;fill:#fff"/>
 <defs>
  <linearGradient id="_Linear1" x2="1" gradientTransform="matrix(2.69059e-15,-43.9407,43.9407,2.69059e-15,23.4356,45.7203)" gradientUnits="userSpaceOnUse">
   <stop style="stop-color:#004294" offset="0"/>
   <stop style="stop-color:#209bd7" offset="1"/>
  </linearGradient>
 </defs>
</svg>
