<svg style="clip-rule:evenodd;fill-rule:evenodd;stroke-linejoin:round;stroke-miterlimit:2" version="1.1" viewBox="0 0 48 48" xmlns="http://www.w3.org/2000/svg">
 <circle cx="24" cy="24" r="22.174" style="fill:url(#_Linear1)"/>
 <path d="m35.315 2.935c-0.152 0-0.302 1e-3 -0.452 2e-3 -1.113 7e-3 -2.152 0.053-3.024 0.127l-8e-3 2e-3c-0.13 0.017-0.268 0.04-0.402 0.058 1.117 0.633 2.591 1.523 4.106 2.728 1.717 1.364 3 3.503 4.068 5.233 1.121 1.818 1.154 3.129 2.544 2.914 0.63-0.098 1.148-0.405 1.56-0.852 0.607-0.656 0.997-1.612 1.198-2.656 0.206-1.073 0.208-2.229 0.035-3.26-0.19-1.128-0.58-2.084-1.131-2.567-1.043-0.706-2.649-1.431-5.23-1.613-1.086-0.076-2.202-0.113-3.264-0.116z" style="fill:#eee"/>
 <path id="path2488_4" d="m11.745 4.044c-1.31-6e-3 -2.509 0.196-3.541 0.488-2.049 0.58-3.387 1.464-3.618 1.763-0.034 0.044-0.076 0.083-0.125 0.115-0.699 0.472-1.062 2.014-1.227 3.866-0.2 2.243-0.409 4.445-0.233 6.322 1e-3 6e-3 2e-3 0.013 2e-3 0.019 6e-3 0.086 0.017 0.196 0.023 0.287 0.923-1.024 2.064-1.563 2.99-2.3 3.086-2.456 6.092-1.897 8.603-1.106 1.611 0.507 3.018 0.951 4.021 0.231 0.572-0.412 0.856-1.024 0.914-1.742 0.054-0.685-0.087-1.466-0.378-2.266-0.299-0.822-0.756-1.663-1.321-2.453-1.367-1.913-3.337-3.038-5.185-3.186-0.314-0.026-0.622-0.037-0.925-0.038z" style="fill:#eee"/>
 <path d="m33.622 15.693c-2.143 0-3.881 1.738-3.881 3.88 0 2.143 1.738 3.881 3.881 3.881s3.88-1.738 3.88-3.881c0-2.142-1.737-3.88-3.88-3.88z" style="fill:#3f3f3f"/>
 <path d="m18.249 15.138c-4.285 0-7.761 3.476-7.761 7.761 0 4.286 3.476 7.761 7.761 7.761s7.761-3.475 7.761-7.761c0-4.285-3.476-7.761-7.761-7.761zm2.218 4.435c1.836 0 3.326 1.49 3.326 3.326s-1.49 3.326-3.326 3.326c-1.837 0-3.327-1.49-3.327-3.326s1.49-3.326 3.327-3.326z" style="fill:#3f3f3f"/>
 <path id="path2488_5" d="m34.715 26.512c-0.027-2.185-10.893 0.555-10.865 2.717 4e-3 0.285 0.175 0.529 0.426 0.634 2e-3 0 4e-3 0 5e-3 1e-3l5.787 3.211v0.025c0 0.987-0.446 1.885-1.168 2.536-0.735 0.664-1.756 1.075-2.888 1.075-0.713 0-1.397-0.164-1.993-0.464-0.582-0.292-1.085-0.716-1.451-1.241-5e-3 -8e-3 -0.011-0.016-0.016-0.024-0.114-0.165-0.307-0.275-0.525-0.275-0.35 0-0.633 0.279-0.633 0.623 0 0.138 0.046 0.265 0.124 0.369 0.485 0.699 1.152 1.263 1.927 1.653 0.777 0.39 1.658 0.606 2.567 0.606 1.458 0 2.783-0.538 3.744-1.407 0.699-0.631 1.206-1.435 1.438-2.338 0.944 0.769 2.189 1.234 3.544 1.234 1.457 0 2.782-0.537 3.744-1.405 0.975-0.881 1.578-2.101 1.578-3.452 0-0.057-2e-3 -0.126-6e-3 -0.202v-0.012c0-0.343-0.283-0.622-0.633-0.622s-0.633 0.279-0.633 0.622v0.017c0 0.01 2e-3 0.019 2e-3 0.029 2e-3 0.045 3e-3 0.1 3e-3 0.168 0 0.988-0.446 1.885-1.168 2.537-0.735 0.664-1.756 1.074-2.887 1.074-1.086 0-2.074-0.379-2.804-1-0.15-0.128-0.29-0.266-0.417-0.414l3.103-5.929c0.06-0.102 0.097-0.22 0.095-0.346z" style="fill:#3f3f3f"/>
 <defs>
  <linearGradient id="_Linear1" x2="1" gradientTransform="matrix(.187192 44.27 -44.27 .187192 25.2225 1.8595)" gradientUnits="userSpaceOnUse">
   <stop style="stop-color:#ccc" offset="0"/>
   <stop style="stop-color:#a4a4a4" offset="1"/>
  </linearGradient>
 </defs>
</svg>
