<svg style="clip-rule:evenodd;fill-rule:evenodd;stroke-linejoin:round;stroke-miterlimit:2" version="1.1" viewBox="0 0 48 48" xmlns="http://www.w3.org/2000/svg">
 <circle cx="24" cy="24" r="22.764" style="fill:url(#_Linear1)"/>
 <circle cx="24" cy="24" r="18.211" style="fill-opacity:.89;fill:#fff"/>
 <path d="m42.371 43.663c-4.534-3.877-6.232-6.203-11.032-9.758-0.84-0.348-0.989 0.114-1.998 0.701-3.892 2.261-4.625 2.676-6.542 2.676-1.631 0-2.097-0.123-3.723-0.98-1.021-0.539-2.033-1.231-2.246-1.538-1.291-1.852-1.761-2.627-2.637-4.352-0.537-1.057-1.042-2.441-1.123-3.076s-0.359-1.579-0.618-2.097-0.79-2.203-1.181-3.745c-0.56-2.208-0.675-3.588-0.543-4.86 0.212-2.041-0.417-2.822-2.003-4.405-1.483-1.48-5.831-7.201-6.573-8.853-0.637-1.417-0.265-2.151 0.474-0.936 2.302 3.783 6.183 8.31 8.079 9.426 1.119 0.658 1.217 0.448 2.988 0.13 3.129-0.561 8.415 0.063 10.066 1.189 0.56 0.383 1.174 0.695 1.363 0.695 0.19 0 1.027 0.241 1.861 0.535 0.834 0.295 1.802 0.535 2.151 0.535 0.948 0 2.716 0.717 3.177 1.48 0.224 0.371 0.994 1.062 1.712 1.536 1.056 0.698 1.495 1.245 2.303 2.869 1.132 2.274 1.198 3.025 0.604 5.036-0.32 1.08-0.777 1.784-1.853 2.856-1.868 1.861-2.541 2.854-1.462 4.42 1.258 1.826 4.013 4.379 8.261 8.152 2.195 1.95 4.06 3.725 4.144 3.945 0.635 1.661-0.723 1.073-3.649-1.581z" style="fill-rule:nonzero;fill:#5a860b"/>
 <defs>
  <linearGradient id="_Linear1" x2="1" gradientTransform="matrix(-8.44135e-7 -45.528 45.528 -8.44135e-7 24 46.764)" gradientUnits="userSpaceOnUse">
   <stop style="stop-color:#d94700" offset="0"/>
   <stop style="stop-color:#f60" offset="1"/>
  </linearGradient>
 </defs>
</svg>
