<svg style="clip-rule:evenodd;fill-rule:evenodd;stroke-linejoin:round;stroke-miterlimit:2" version="1.1" viewBox="0 0 48 48" xmlns="http://www.w3.org/2000/svg">
 <circle cx="23.98" cy="24.009" r="22.773" style="fill:url(#_Linear1)"/>
 <path d="m32.01 9.989c3.328 1.562 4.834 5.301 3.364 8.375-1.068 2.235-3.066 3.278-5.017 3.116-2.103-0.174-3.565-1.731-3.876-3.154-0.496-2.272 1.842-4.655 3.662-3.334 0.3 0.218 0.884 0.929 0.359 1.583-0.417 0.519-0.93-0.239-1.372 0.307-0.415 0.512-0.099 1.232 0.316 1.556 0.853 0.668 1.754 0.416 2.326 0.086 1.872-1.082 1.655-3.606 0.582-4.942-2.166-2.696-6.383-1.809-7.992 1.336-1.213 2.371-0.676 4.739 0.757 6.575 0.801 1.025 1.97 1.893 3.299 2.332 1.221 0.404 2.495 0.551 3.7 1.266 2.3 1.365 3.311 3.066 3.825 4.728 0.619 2.002 0.633 4.522-1.08 6.961-1.587 2.26-4.294 3.188-6.661 2.786-4.018-0.682-6.217-4.82-4.326-8.06 1.364-2.336 4.622-3.155 6.409-0.975 0.577 0.703 0.773 1.758 0.518 2.509-0.577 1.699-2.306 1.585-2.623 0.807-0.263-0.647 0.609-0.672 0.489-1.312-0.191-1.019-1.78-0.779-2.387 0.115-0.771 1.135-0.248 2.46 0.203 3.034 0.92 1.172 2.386 1.338 3.315 1.213 1.03-0.138 2.176-0.75 2.876-1.724 1.083-1.508 1.094-3.203 0.705-4.452-0.423-1.36-1.273-2.59-3.028-3.478-2.589-1.309-5.405-0.529-7.188 0.985-1.182 1.004-1.88 1.944-3.058 2.625-2.931 1.696-7.785 2.009-10.758-1.985-1.32-1.775-2.107-4.579-0.801-7.197 1.328-2.661 3.839-3.808 6.014-3.589 2.94 0.295 4.644 2.712 4.647 4.745 2e-3 1.544-1.233 3.436-2.804 3.788-1.188 0.266-2.418-0.304-2.931-1.161-0.584-0.976 0.103-2.531 0.996-2.257 0.703 0.216 0.198 0.76 0.814 1.023 1.028 0.439 1.638-1.426 0.96-2.397-1.232-1.763-3.731-1.108-4.748 0.187-1.112 1.416-0.982 2.971-0.583 4.049 0.33 0.895 0.986 1.918 2.135 2.587 2.758 1.605 6.468 0.588 8.201-2.874 1.045-2.09 0.604-3.813 0.083-5.894-0.449-1.79-0.564-3.866 0.476-5.956 1.173-2.355 2.864-3.567 4.527-4.183 1.621-0.6 3.722-0.667 5.675 0.25z" style="fill-opacity:.85;fill-rule:nonzero;fill:#fff"/>
 <defs>
  <linearGradient id="_Linear1" x2="1" gradientTransform="matrix(-.788646 -42.2824 42.2824 -.788646 16.7438 44.2812)" gradientUnits="userSpaceOnUse">
   <stop style="stop-color:#007aac" offset="0"/>
   <stop style="stop-color:#35cc95" offset="1"/>
  </linearGradient>
 </defs>
</svg>
