<svg style="clip-rule:evenodd;fill-rule:evenodd;stroke-linejoin:round;stroke-miterlimit:2" version="1.1" viewBox="0 0 48 48" xmlns="http://www.w3.org/2000/svg">
 <circle cx="24" cy="24" r="22.764" style="fill:url(#_Linear1)"/>
 <path d="m24 3.72c-10.932 0-19.819 8.658-20.239 19.488 6.723-4.744 18.157-12.528 20.993-12.734 0.941-1.192 4.175-2.155 4.76-2.135l-1.697 2.135s-0.029 2.154-0.656 2.572c5.857 3.914 8.655 17.963 9.85 26.491l-0.504 0.404c4.725-3.713 7.773-9.466 7.773-15.941 0-11.2-9.08-20.28-20.28-20.28zm-0.288 16.661c-1.575 0.047-4.777 4.755-8.428 9.797-1.755 2.422-4.029 5.738-5.7 8.035l-1.203-1.315c3.435-5.625 7.711-12.488 7.505-12.741-0.045-0.021-0.102-0.063-0.165-0.054-1.164 0.176-5.835 5.998-9.177 10.182 3.529 5.974 10.015 9.995 17.456 9.995 4.517 0 8.674-1.495 12.044-3.992-2.496-7.628-7.317-19.824-12.167-19.853-0.048-9e-3 -0.114-0.054-0.165-0.054zm-11.767 1.97c-1.441-0.01-5.124 1.293-8.184 2.472 0.122 3.024 0.897 5.874 2.202 8.415 0.615-0.929 1.679-2.455 2.315-3.389 2.431-3.573 4.822-6.735 4.269-7.387-0.099-0.109-0.318-0.109-0.602-0.111zm-8.207 1.281c-3e-3 0.124-0.018 0.244-0.018 0.368 0 0.17 0.022 0.335 0.026 0.504l-8e-3 -0.872zm2.264 9.689c0.126 0.244 0.259 0.484 0.396 0.722l-0.396-0.722z" style="fill:#e1f2fe"/>
 <defs>
  <linearGradient id="_Linear1" x2="1" gradientTransform="matrix(2.78782e-15,-45.5286,45.5286,2.78782e-15,210.895,46.7643)" gradientUnits="userSpaceOnUse">
   <stop style="stop-color:#0a80fd" offset="0"/>
   <stop style="stop-color:#56c5fa" offset="1"/>
  </linearGradient>
 </defs>
</svg>
