<svg style="clip-rule:evenodd;fill-rule:evenodd;stroke-linejoin:round;stroke-miterlimit:2" version="1.1" viewBox="0 0 48 48" xmlns="http://www.w3.org/2000/svg">
 <circle cx="24" cy="24" r="22.764" style="fill:url(#_Linear1)"/>
 <path d="m17.975 20.237c0.028 0.032 0.09 0.036 0.125 0.058-0.025-0.02 0.082 0.047 0.165 0.065 0.122 0.032 0.214 0.074 0.331 0.067 0.06 0 0.118-0.029 0.166-0.067 0.02 0-0.022-0.054 0-0.065 0.038-0.047 0.065-0.042 0.065-0.1v-0.132c-0.05-0.175-0.152-0.432-0.297-0.96-0.169-0.609-0.322-1.408-0.43-2.183-0.108-0.776-0.162-1.536 0-2.217 0.159-0.666 0.526-1.236 1.19-1.489 0.189-0.072 0.453-0.231 0.63-0.264 0.178-0.032 0.363-0.02 0.528 0 0.551 0.038 1.004 0.286 1.324 0.662 0.538 0.632 0.794 1.568 0.959 2.547 0.165 0.975 0.211 2.02 0.232 2.812v1.026c0 0.044-0.021 0.093 0 0.132 0.023 0.04 0.094 0.043 0.132 0.066 0.031 0.019 0.034 0.029 0.067 0.033 0.06 0.02 0.119 0.047 0.231 0.067 0.378 0.069 0.979 0.098 1.621 0.197 1.285 0.201 2.966 0.571 4.698 1.026 1.733 0.457 3.47 1.081 4.863 1.986 1.388 0.901 2.432 2.068 2.647 3.638 0.136 0.975-0.605 1.953-1.621 2.846-1.014 0.891-2.341 1.729-3.772 2.514-1.429 0.785-2.918 1.497-4.102 2.052-0.592 0.277-1.119 0.469-1.521 0.662-2.047 0.825-4.35 1.561-6.782 2.05-0.097 0-0.328 0.059-0.431 0.067-12.39 1.073-6.617-14.259-6.617-14.259 1e-3 0 0.306-0.725 0.43-1.158 0.025-0.099 0.067-0.362 0.067-0.463-0.018-0.103-0.081-0.293-0.133-0.496-0.121-0.484-0.309-1.073-0.429-1.787-0.12-0.716-0.197-1.537-0.034-2.25 0.163-0.702 0.583-1.375 1.324-1.786 0.287-0.143 0.616-0.202 0.893-0.133 0.287 0.071 0.585 0.284 0.827 0.496 0.483 0.425 0.92 1.042 1.29 1.721 0.369 0.676 0.701 1.398 0.959 1.984 0.13 0.296 0.204 0.528 0.298 0.729 0.043 0.088 0.072 0.214 0.1 0.264 0.014 0.029 0.011 0.041 7e-3 0.042zm19.082-8.083c-0.018 2e-3 -0.035 4e-3 -0.054 4e-3 -1.103 0.536-1.67 1.833-2.434 2.876-0.01 0.052-0.029 0.102-0.055 0.147-0.962 1.703-2.185 3.392-2.314 5.361 6e-3 0.312 0.184 0.49 0.369 0.53 0.173 0.036 0.491-0.076 0.621-0.271 0.012-0.029 2e-3 -0.057 0.019-0.08 4e-3 -7e-3 9e-3 -0.013 0.013-0.019 1.742-2.394 3.059-5.234 4.141-7.994 1e-3 -3e-3 1e-3 -6e-3 2e-3 -9e-3 0.075-0.181 0.08-0.252 0.013-0.388-0.02-0.041-0.214-0.171-0.321-0.157zm-19.082 8.083c-3e-3 -3e-3 -5e-3 -6e-3 -7e-3 -9e-3 0 6e-3 4e-3 0.01 7e-3 9e-3zm13.193-9.318c0.019 1e-3 0.039 2e-3 0.059 1e-3 0.074-4e-3 0.056-2e-3 0.077 0.012 0.02 0.014 0.068 0.065 0.149 0.161 0.115 0.14 0.153 0.212 0.175 0.334v0.026c0.17 2.616-0.287 5.288-0.928 7.832-0.047 0.066-0.079 0.142-0.091 0.222-0.047 0.293-0.15 0.498-0.311 0.61-0.147 0.102-0.211 0.122-0.254 0.113-0.057-0.012-0.153-0.102-0.229-0.2-0.011-0.033-0.025-0.065-0.041-0.095-0.411-1.502 0.101-3.094 0.26-4.659 2e-3 -0.025 2e-3 -0.049 0-0.075 0.322-1.415 0.331-2.99 1.031-4.202l0.017-0.029c-8e-3 0.014 0.018-0.017 0.077-0.052l9e-3 1e-3z" style="fill-rule:nonzero;fill:#eaeff9"/>
 <defs>
  <linearGradient id="_Linear1" x2="1" gradientTransform="matrix(2.6882e-15,-43.9017,43.9017,2.6882e-15,62.6163,45.6923)" gradientUnits="userSpaceOnUse">
   <stop style="stop-color:#002980" offset="0"/>
   <stop style="stop-color:#5d91ff" offset="1"/>
  </linearGradient>
 </defs>
</svg>
