<svg style="clip-rule:evenodd;fill-rule:evenodd;stroke-linejoin:round;stroke-miterlimit:2" version="1.1" viewBox="0 0 48 48" xmlns="http://www.w3.org/2000/svg">
 <circle cx="24" cy="24" r="22.764" style="fill:url(#_Linear1)"/>
 <path d="m36.631 23.118c3.873 0.872 6.167 2.886 5.672 5.61-1.09 5.995-10.904 8.011-20.445 5.124-9.094-2.752-17.078-8.235-16.155-11.446 0.539-1.871 3.505-2.668 7.459-2.242-0.601 1.221-0.557 2.66 2.059 4.259 3.2 1.817 7.988 3.189 10.071 3.214 3.322 0.039 6.68-0.304 9.371-2.064 1.339-0.878 1.744-1.699 1.968-2.455zm-1.343-1.577c-2.832 1.602-5.622 2.776-14.412 1.14-7.381-1.374-7.089-3.489-6.872-4.689 0 0 0.654-2.942 0.93-3.978 0.27-1.035 1.779-4.429 5.723-2.343 2.467 1.308 4.051-0.048 4.461-0.93 0.598-1.283 4.844 0.423 6.098 1.712 1.124 1.158 3.137 6.236 4.072 9.088z" style="fill-rule:nonzero;fill:url(#_Linear2)"/>
 <defs>
  <linearGradient id="_Linear1" x2="1" gradientTransform="matrix(2.78681e-15,-45.5121,45.5121,2.78681e-15,99.4281,46.7561)" gradientUnits="userSpaceOnUse">
   <stop style="stop-color:#320404" offset="0"/>
   <stop style="stop-color:#4d2326" offset="1"/>
  </linearGradient>
  <linearGradient id="_Linear2" x2="1" gradientTransform="matrix(2.73109e-15,-44.602,44.602,2.73109e-15,494.357,45.8459)" gradientUnits="userSpaceOnUse">
   <stop style="stop-color:#b52727" offset="0"/>
   <stop style="stop-color:#ff3021" offset="1"/>
  </linearGradient>
 </defs>
</svg>
