<svg style="clip-rule:evenodd;fill-rule:evenodd;stroke-linejoin:round;stroke-miterlimit:2" version="1.1" viewBox="0 0 48 48" xmlns="http://www.w3.org/2000/svg">
 <circle cx="23.98" cy="24.009" r="22.784" style="fill:url(#_Linear1)"/>
 <path d="m35.096 20.369c0.211-0.341 0.443-0.739 0.681-1.174 1.102 1.954 1.733 4.207 1.733 6.61 0 7.441-6.033 13.473-13.474 13.473s-13.473-6.032-13.473-13.473 6.032-13.473 13.473-13.473c2.244 0 4.358 0.548 6.219 1.519-0.458 0.254-0.875 0.504-1.228 0.727-0.542-0.098-0.986-0.022-1.264 0.255-0.509 0.51-0.341 1.578 0.333 2.787 0.347 0.683 0.888 1.424 1.584 2.12 0.131 0.131 0.264 0.256 0.399 0.377 1.924 1.832 4.059 2.673 4.85 1.882 0.338-0.337 0.376-0.922 0.167-1.63zm2.264-8.189c1.484 1.484-2.631 8.005-3.326 8.701-0.696 0.694-2.463 0.056-3.947-1.428s-2.123-3.251-1.428-3.947c0.696-0.696 7.217-4.81 8.701-3.326zm-20.814 1.57c-2.266-1.285-5.49-2.716-6.516-1.69-1.039 1.039 0.443 4.336 1.742 6.606 1.156-2.01 2.802-3.702 4.774-4.916z" style="fill-opacity:.85;fill-rule:nonzero;fill:#fff"/>
 <defs>
  <linearGradient id="_Linear1" x2="1" gradientTransform="matrix(2.69059e-15,-43.9407,43.9407,2.69059e-15,23.0402,45.7203)" gradientUnits="userSpaceOnUse">
   <stop style="stop-color:#ff5a4e" offset="0"/>
   <stop style="stop-color:#ff8077" offset="1"/>
  </linearGradient>
 </defs>
</svg>
