<svg style="clip-rule:evenodd;fill-rule:evenodd;stroke-linejoin:round;stroke-miterlimit:2" version="1.1" viewBox="0 0 48 48" xmlns="http://www.w3.org/2000/svg">
 <path d="m39.386 2.835c0-1.145-0.93-2.075-2.075-2.075h-31.669c-1.145 0-2.075 0.93-2.075 2.075v39.038c0 1.145 0.93 2.075 2.075 2.075h31.669c1.145 0 2.075-0.93 2.075-2.075v-39.038z" style="fill:url(#_Linear1)"/>
 <path d="m44.367 6.031c0-1.145-0.93-2.075-2.075-2.075h-31.669c-1.145 0-2.075 0.93-2.075 2.075v39.038c0 1.145 0.93 2.075 2.075 2.075h31.669c1.145 0 2.075-0.93 2.075-2.075v-39.038z" style="fill:url(#_Linear2)"/>
 <path d="m40.518 42.227h-28.429v-0.796h28.429v0.796zm0-2.268h-28.429v-0.824h28.429v0.824zm0-2.412h-28.429v-0.796h28.429v0.796zm0-2.461h-28.429v-0.796h28.429v0.796zm-16.058-3.861h-12.217v-0.796h12.217v0.796zm6.169-2.461h-18.386v-0.796h18.386v0.796zm-6.221-1.834h-12.072v-0.796h12.072v0.796zm6.176-1.785h-18.441v-0.824h18.441v0.824zm7.383-2.413h-25.824v-0.796h25.824v0.796zm2.605-2.46h-28.429v-0.796h28.429v0.796zm0.1-3.758h-28.429v-0.796h28.429v0.796zm0-2.268h-28.429v-0.825h28.429v0.825zm0-2.413h-28.429v-0.796h28.429v0.796zm0-2.46h-28.429v-0.797h28.429v0.797z" style="fill:#b0b0b0"/>
 <circle cx="36" cy="36" r="11" style="fill:#045af2"/>
 <path d="m36 31c-1.551 0.015-3.112 0.369-4.463 1.135-0.538 0.351-1.185 0.804-1.672 1.26-0.766 0.751-1.422 1.626-1.865 2.606 1.215 2.68 3.886 4.645 6.824 4.935 1.928 0.218 3.945-0.115 5.639-1.069 0.538-0.351 1.185-0.804 1.672-1.26 0.766-0.751 1.422-1.626 1.865-2.606-1.215-2.68-3.886-4.645-6.824-4.935-0.39-0.045-0.783-0.066-1.176-0.066zm0 2c1.607-0.035 3.03 1.402 3 3.001 0.051 1.767-1.709 3.292-3.449 2.962-1.758-0.207-2.992-2.178-2.414-3.849 0.369-1.229 1.576-2.129 2.863-2.114zm0 2.001c-0.549 0-1 0.451-1 1s0.451 1 1 1 1-0.451 1-1c-1e-3 -0.548-0.452-0.999-1-0.999v-1e-3z" style="fill:#fff"/>
 <defs>
  <linearGradient id="_Linear1" x2="1" gradientTransform="matrix(-.116223 -43.188 43.188 -.116223 49.1231 43.8597)" gradientUnits="userSpaceOnUse">
   <stop style="stop-color:#0055f2" offset="0"/>
   <stop style="stop-color:#42a5f9" offset="1"/>
  </linearGradient>
  <linearGradient id="_Linear2" x2="1" gradientTransform="matrix(-.116223 -43.188 43.188 -.116223 192.133 46.6843)" gradientUnits="userSpaceOnUse">
   <stop style="stop-color:#cdd9f0" offset="0"/>
   <stop style="stop-color:#fff" offset="1"/>
  </linearGradient>
 </defs>
</svg>
