<svg clip-rule="evenodd" fill-rule="evenodd" stroke-linejoin="round" stroke-miterlimit="2" viewBox="0 0 48 48" xmlns="http://www.w3.org/2000/svg">
 <linearGradient id="a" x2="1" gradientTransform="matrix(-.54184 -42.5491 42.5491 -.54184 24.5417 44.9407)" gradientUnits="userSpaceOnUse">
  <stop stop-color="#a61919" offset="0"/>
  <stop stop-color="#c2352a" offset="1"/>
 </linearGradient>
 <linearGradient id="b" x2="1" gradientTransform="matrix(.232446 -30.5869 30.5869 .232446 26.092 38.0833)" gradientUnits="userSpaceOnUse">
  <stop stop-color="#d4bebe" offset="0"/>
  <stop stop-color="#fff" offset="1"/>
 </linearGradient>
 <g fill-rule="nonzero">
  <path d="m27.415 2.333-7.437.127-1.511 1.136.125.127-4.915.127.378-.505-11.218-.254-.125.759-.127 1.137.758 1.392-.379 2.905-.631 2.528.379 2.402.125 1.896.757 2.528-.251 1.264.124 1.389.883 1.012.252 1.644-1.638.63.252 5.057 1.009.758-.631 4.424-.505.254-.377 8.468.444-.059 1.071.22s1.294.448 1.562.537c.267.09.664-.402.664-.402h1.071l.89-.178.493.225.445-.047 1.115-.087.531-.226.224.537.178-.133.493-.226 1.024-.087.22.313s1.247.133 1.693.133c.445 0 .359-.359.359-.359s.131-.042.354.182c.223.223.537-.091.537-.091l.445-.225.315.316.311.222.846-.178h1.38l.315-.091 1.29 1.834.087-.935h2.095c.178 0 .091.624.091.624l1.379-.446.713.713 1.473-.94.8-.133 1.559-.087h2.228l2.541.178.671-.269.487-.446 1.339.757.978-.402s1.07.406 1.248.451 1.828-.182 1.828-.182l1.024-.269-.666-.491.444-.177 1.873.086 2.492.629-.042-16.312v-1.028l-.624.091-.802.135v-.495l.444-.402.358-.533.087-1.924-.134-1.385-.579-1.7-.532-.715-.091-.668.136-.445.042-.135.58-.224.091-.227-.447-.757.402-.229.631-.381.252-2.274.127-1.517v-5.309l-.378-1.517.251-1.644.127-.633-1.134-.506-4.287-.757-.631.884-.251-1.011-8.193-.127-.252 1.392-2.016.252-.252-.885-1.765-.254.631-.757v.001z" fill="url(#a)"/>
  <path d="m12.083 9.917-4.333 1.083 26 27.083h5.417l2.166-8.666zm21.667 0-6.5 2.166 8.667 6.5 1.083-6.5zm-23.833 17.333-2.167 7.583 3.25 3.25h2.708l4.875-2.166z" fill="url(#b)"/>
 </g>
</svg>
