<svg style="clip-rule:evenodd;fill-rule:evenodd;stroke-linejoin:round;stroke-miterlimit:2" version="1.1" viewBox="0 0 48 48" xmlns="http://www.w3.org/2000/svg">
 <path d="m27.415 2.333l-7.437 0.127-1.511 1.136 0.125 0.127-4.915 0.127 0.378-0.505-11.218-0.254-0.125 0.759-0.127 1.137 0.758 1.392-0.379 2.905-0.631 2.528 0.379 2.402 0.125 1.896 0.757 2.528-0.251 1.264 0.124 1.389 0.883 1.012 0.252 1.644-1.638 0.63 0.252 5.057 1.009 0.758-0.631 4.424-0.505 0.254-0.377 8.468 0.444-0.059 1.071 0.22s1.294 0.448 1.562 0.537c0.267 0.09 0.664-0.402 0.664-0.402h1.071l0.89-0.178 0.493 0.225 0.445-0.047 1.115-0.087 0.531-0.226 0.224 0.537 0.178-0.133 0.493-0.226 1.024-0.087 0.22 0.313s1.247 0.133 1.693 0.133c0.445 0 0.359-0.359 0.359-0.359s0.131-0.042 0.354 0.182c0.223 0.223 0.537-0.091 0.537-0.091l0.445-0.225 0.315 0.316 0.311 0.222 0.846-0.178h1.38l0.315-0.091 1.29 1.834 0.087-0.935h2.095c0.178 0 0.091 0.624 0.091 0.624l1.379-0.446 0.713 0.713 1.473-0.94 0.8-0.133 1.559-0.087h2.228l2.541 0.178 0.671-0.269 0.487-0.446 1.339 0.757 0.978-0.402s1.07 0.406 1.248 0.451 1.828-0.182 1.828-0.182l1.024-0.269-0.666-0.491 0.444-0.177 1.873 0.086 2.492 0.629-0.042-16.312v-1.028l-0.624 0.091-0.802 0.135v-0.495l0.444-0.402 0.358-0.533 0.087-1.924-0.134-1.385-0.579-1.7-0.532-0.715-0.091-0.668 0.136-0.445 0.042-0.135 0.58-0.224 0.091-0.227-0.447-0.757 0.402-0.229 0.631-0.381 0.252-2.274 0.127-1.517v-5.309l-0.378-1.517 0.251-1.644 0.127-0.633-1.134-0.506-4.287-0.757-0.631 0.884-0.251-1.011-8.193-0.127-0.252 1.392-2.016 0.252-0.252-0.885-1.765-0.254 0.631-0.757v1e-3z" style="fill-rule:nonzero;fill:url(#_Linear1)"/>
 <path d="m12.083 9.917l-4.333 1.083 26 27.083h5.417l2.166-8.666-29.25-19.5zm21.667 0l-6.5 2.166 8.667 6.5 1.083-6.5-3.25-2.166zm-23.833 17.333l-2.167 7.583 3.25 3.25h2.708l4.875-2.166-8.666-8.667z" style="fill-rule:nonzero;fill:url(#_Linear2)"/>
 <defs>
  <linearGradient id="_Linear1" x2="1" gradientTransform="matrix(-.54184 -42.5491 42.5491 -.54184 24.5417 44.9407)" gradientUnits="userSpaceOnUse">
   <stop style="stop-color:#a61919" offset="0"/>
   <stop style="stop-color:#c2352a" offset="1"/>
  </linearGradient>
  <linearGradient id="_Linear2" x2="1" gradientTransform="matrix(.232446 -30.5869 30.5869 .232446 26.092 38.0833)" gradientUnits="userSpaceOnUse">
   <stop style="stop-color:#d4bebe" offset="0"/>
   <stop style="stop-color:#fff" offset="1"/>
  </linearGradient>
 </defs>
</svg>
