<svg style="clip-rule:evenodd;fill-rule:evenodd;stroke-linejoin:round;stroke-miterlimit:2" version="1.1" viewBox="0 0 48 48" xmlns="http://www.w3.org/2000/svg">
 <path d="m24.135 2.332 16.735 1.471c1.101 0.121 0.865 0.528 1.078 1.615l3.72 16.141v4.842l-2.446 14.697c-0.089 1.105-0.126 2.845-1.232 2.923l-17.855 1.647h-15.575c-3.438 0-6.228-2.79-6.228-6.228v-30.88c0-3.438 2.79-6.228 6.228-6.228h15.575z" style="fill-rule:nonzero;fill:url(#_Linear1)"/>
 <g transform="matrix(2,0,0,2,2,2)">
  <path d="m2 2v8h3v-5h2v5h3v-6c0-2-2-2-2-2h-6zm0 10v8h6s2 0 2-2v-6h-3v5h-2v-5h-3z" style="fill-rule:nonzero;fill:rgb(237,210,12)"/>
 </g>
 <path d="m39.44 45.668h-15.44v-19.668h3.777l-1.777 16h6l0.43-6h3.14l0.43 6h6l-1.777-16h5.445v13.44c0 3.438-2.79 6.228-6.228 6.228zm-6.299-19.668-0.286 4h2.29l-0.286-4h-1.718zm6.299-23.668c3.438 0 6.228 2.79 6.228 6.228v13.44h-5.891l-1.777-16h-8l-1.777 16h-4.223v-19.668h15.44zm-5.44 11.668-0.57 8h1.14l-0.57-8z" style="fill-rule:nonzero;fill:url(#_Linear2)"/>
 <defs>
  <linearGradient id="_Linear1" x2="1" gradientTransform="matrix(.238213 -43.336 43.336 .238213 16.1985 45.668)" gradientUnits="userSpaceOnUse">
   <stop style="stop-color:rgb(56,56,56)" offset="0"/>
   <stop style="stop-color:rgb(79,79,79)" offset="1"/>
  </linearGradient>
  <linearGradient id="_Linear2" x2="1" gradientTransform="matrix(2.65356e-15,-43.336,43.336,2.65356e-15,33.4297,45.668)" gradientUnits="userSpaceOnUse">
   <stop style="stop-color:rgb(223,223,223)" offset="0"/>
   <stop style="stop-color:rgb(254,251,251)" offset="1"/>
  </linearGradient>
 </defs>
</svg>
