<svg clip-rule="evenodd" fill-rule="evenodd" stroke-linejoin="round" stroke-miterlimit="2" viewBox="0 0 48 48" xmlns="http://www.w3.org/2000/svg">
 <g fill-rule="nonzero">
  <path transform="matrix(1.10517 0 0 1.10517 -2.57664 -2.50485)" d="m26 33.614-2 1.154v2.251l2 1.157 2 1.154 2-1.154v-2.252l-2-1.156z" fill="#ba2c00"/>
  <path transform="matrix(1.10517 0 0 1.10517 -2.57664 -2.50485)" d="m26 33.613-2 1.155 2 1.156 2 1.154 2-1.154-2-1.156z" fill="#ff7900"/>
  <path transform="matrix(1.10517 0 0 1.10517 -2.57664 -2.50485)" d="m26 27.104 2 1.154v6.51l-2 1.155-2-1.155v-6.51z" fill="#ff4200"/>
  <path transform="matrix(1.10517 0 0 1.10517 -2.57664 -2.50485)" d="m28 39.33 2-1.154v-2.252l-2 1.154z" fill="#ff4200"/>
  <path transform="matrix(1.10517 0 0 1.10517 -2.57664 -2.50485)" d="m26 27.104v8.819l-2-1.155v-6.51z" fill="#ba2c00"/>
  <path transform="matrix(1.10517 0 0 1.10517 -2.57664 -2.50485)" d="m19 38.411-2 1.154v2.251l2 1.157 2 1.154 2-1.154v-2.252l-2-1.156z" fill="#ba2c00"/>
  <path transform="matrix(1.10517 0 0 1.10517 -2.57664 -2.50485)" d="m21 44.127 2-1.154v-2.252l-2 1.154z" fill="#ff4200"/>
  <path transform="matrix(1.10517 0 0 1.10517 -2.57664 -2.50485)" d="m19 38.41-2 1.154 2 1.157 2 1.154 2-1.154-2-1.157z" fill="#ff7900"/>
  <path transform="matrix(1.10517 0 0 1.10517 -2.57664 -2.50485)" d="m19 31.901 2 1.154v6.51l-2 1.155-2-1.155v-6.51z" fill="#ff4200"/>
  <path transform="matrix(1.10517 0 0 1.10517 -2.57664 -2.50485)" d="m19 31.901v8.819l-2-1.155v-6.51z" fill="#ba2c00"/>
  <path transform="matrix(1.10517 0 0 1.10517 -2.57664 -2.50485)" d="m20 8.642 12 6.928v13.857l-12 6.928-12-6.928v-13.857z" fill="#ffce00"/>
  <path transform="matrix(1.10517 0 0 1.10517 -2.57664 -2.50485)" d="m8 15.57v13.857l12 6.928v-13.856z" fill="#ff6700"/>
  <path transform="matrix(1.10517 0 0 1.10517 -2.57664 -2.50485)" d="m20 8.642-12 6.928 12 6.929 12-6.929z" fill="#ffc200"/>
  <path transform="matrix(1.10517 0 0 1.10517 -2.57664 -2.50485)" d="m12 4.04 4 2.31v4.619l-4 2.309-4-2.309v-4.619z" fill="#ff9e02"/>
  <path transform="matrix(1.10517 0 0 1.10517 -2.57664 -2.50485)" d="m27 3.509 10 5.773v11.547l-10 5.774-10-5.774v-11.547z" fill="#ff9e02"/>
  <path transform="matrix(.988493 .494247 -.988493 .494247 -2.57664 -2.50485)" d="m43.044 3.913 6.709 6.708h-6.709l-2.236-2.236z" fill="#ba2c00"/>
  <path transform="matrix(1.10517 0 0 1.10517 -2.57664 -2.50485)" d="m35 21v6l6-3v-2z" fill="#ff7900"/>
 </g>
 <path transform="matrix(.988493 .494247 -.988493 .494247 -2.57664 -2.50485)" d="m40.81 1.68h6.708v6.708h-6.708z" fill="#ff4200"/>
 <path transform="matrix(1.10517 0 0 1.10517 -2.57664 -2.50485)" d="m29 17.8 2-1.2v2.7l-2 1.2z" fill="#3f3f3f" fill-rule="nonzero"/>
 <path transform="matrix(1.10517 0 0 1.10517 -2.57664 -2.50485)" d="m17 9.281v11.547l10 5.776v-11.549z" fill="#ff6700" fill-rule="nonzero"/>
 <path transform="matrix(1.10517 0 0 1.10517 -2.57664 -2.50485)" d="m27 3.508-10 5.773 10 5.774 10-5.774z" fill="#ffc200" fill-rule="nonzero"/>
 <path transform="matrix(1.10517 0 0 1.10517 -2.57664 -2.50485)" d="m33 15.553 2-1.2v2.7l-2 1.2z" fill="#3f3f3f" fill-rule="nonzero"/>
 <path transform="matrix(1.10517 0 0 1.10517 -2.57664 -2.50485)" d="m8 6.35v4.619l4 2.308v-4.617z" fill="#ff6700" fill-rule="nonzero"/>
 <path transform="matrix(1.10517 0 0 1.10517 -2.57664 -2.50485)" d="m12 4.041-4 2.309 4 2.31 4-2.31z" fill="#ffc200" fill-rule="nonzero"/>
</svg>
