<?xml version="1.0" encoding="UTF-8" standalone="no"?><!DOCTYPE svg PUBLIC "-//W3C//DTD SVG 1.1//EN" "http://www.w3.org/Graphics/SVG/1.1/DTD/svg11.dtd"><svg width="100%" height="100%" viewBox="0 0 64 64" version="1.1" xmlns="http://www.w3.org/2000/svg" xmlns:xlink="http://www.w3.org/1999/xlink" xml:space="preserve" xmlns:serif="http://www.serif.com/" style="fill-rule:evenodd;clip-rule:evenodd;stroke-linejoin:round;stroke-miterlimit:1.41421;"><path d="M50,56l0,-21.682c0,0 7.988,-1.563 8,-4.318c0.022,-5.224 0,-21.4 0,-21.4c0,0 -2.416,-3.141 -27.245,-2.959c-22.345,0.163 -24.755,2.959 -24.755,2.959c0,0 -0.022,17.101 0,21.4c0.014,2.755 8,4.318 8,4.318l0,21.682c0,0 2.05,4.174 17.39,4.08c16.227,-0.1 18.61,-4.08 18.61,-4.08Z" style="fill:url(#_Linear1);fill-rule:nonzero;"/><path d="M31.735,36.246c14.067,0.066 26.253,-3.491 26.265,-6.246c0.022,-5.224 0,-21.4 0,-21.4c0,0 -1.719,3.823 -26.243,3.749c-24.116,-0.073 -25.757,-3.749 -25.757,-3.749c0,0 -0.022,17.101 0,21.4c0.014,2.755 12.4,6.183 25.735,6.246Z" style="fill:url(#_Linear2);fill-rule:nonzero;"/><defs><linearGradient id="_Linear1" x1="0" y1="0" x2="1" y2="0" gradientUnits="userSpaceOnUse" gradientTransform="matrix(-0.626497,54.3997,-54.3997,-0.626497,30.451,5.6429)"><stop offset="0" style="stop-color:#78ae50;stop-opacity:1"/><stop offset="1" style="stop-color:#82c04b;stop-opacity:1"/></linearGradient><linearGradient id="_Linear2" x1="0" y1="0" x2="1" y2="0" gradientUnits="userSpaceOnUse" gradientTransform="matrix(52.02,0,0,27.6467,5.99,22.4233)"><stop offset="0" style="stop-color:#87cf82;stop-opacity:1"/><stop offset="1" style="stop-color:#7ec242;stop-opacity:1"/></linearGradient></defs></svg>