<svg style="clip-rule:evenodd;fill-rule:evenodd" version="1.1" viewBox="0 0 48 48" xmlns="http://www.w3.org/2000/svg">
 <circle cx="24" cy="24" r="22.764" style="fill:url(#_Linear1)"/>
 <g transform="matrix(1.12907,0,0,1.12907,-2.85416,-2.84469)">
  <path d="m16.658 21.569c4.798-2.307 8.815-1.803 12.688-0.467 5.191 1.79 8.542 7.311 7.406 9.62-1.443 2.936-7.495 4.131-12.75 0.893-3.187-1.964-7.049-7.092-7.288-11.544-0.237-4.435 3.558-10.07 6.457-10.077 3.077-7e-3 5.423 4.074 5.988 6.757 1.069 5.079-1.545 11.756-5.895 14.362-4.776 2.863-10.729 3.03-12.236 0.765-1.708-2.567 1.941-8.535 5.63-10.309z" style="fill:none;stroke-width:2px;stroke:url(#_Linear2)"/>
 </g>
 <defs>
  <linearGradient id="_Linear1" x2="1" gradientTransform="matrix(2.78787e-15,-45.5294,45.5294,2.78787e-15,210.898,46.7647)" gradientUnits="userSpaceOnUse">
   <stop style="stop-color:rgb(0,49,101)" offset="0"/>
   <stop style="stop-color:rgb(86,197,250)" offset="1"/>
  </linearGradient>
  <linearGradient id="_Linear2" x2="1" gradientTransform="matrix(.0527453 -26.9001 26.9001 .0527453 23.2106 35.8545)" gradientUnits="userSpaceOnUse">
   <stop style="stop-color:rgb(26,173,255)" offset="0"/>
   <stop style="stop-color:rgb(0,255,149)" offset="1"/>
  </linearGradient>
 </defs>
</svg>
