<?xml version="1.0" encoding="UTF-8" standalone="no"?><!DOCTYPE svg PUBLIC "-//W3C//DTD SVG 1.1//EN" "http://www.w3.org/Graphics/SVG/1.1/DTD/svg11.dtd"><svg width="100%" height="100%" viewBox="0 0 64 64" version="1.1" xmlns="http://www.w3.org/2000/svg" xmlns:xlink="http://www.w3.org/1999/xlink" xml:space="preserve" xmlns:serif="http://www.serif.com/" style="fill-rule:evenodd;clip-rule:evenodd;stroke-linejoin:round;stroke-miterlimit:1.41421;"><path d="M19.544,56.526c2.452,1.448 8.966,2.474 7.953,2.474c-15.233,0 -27.497,-12.265 -27.497,-27.5c0,-15.235 13.621,-27.685 25.955,-27.5c-2.873,0.987 -3.676,1.08 -6.855,3.097c-6.818,4.326 -14.3,11.147 -14.18,24.403c0.13,14.219 8.16,21.208 14.624,25.026Z" style="fill:#f7941e;fill-rule:nonzero;"/><path d="M33.497,4c-15.233,0 -27.497,12.265 -27.497,27.5c0,15.235 12.264,27.5 27.497,27.5c7.616,0 14.49,-3.068 19.46,-8.038l-19.462,-19.462l19.462,-19.462c-4.97,-4.97 -11.844,-8.038 -19.46,-8.038Z" style="fill:#110051;fill-rule:nonzero;"/><path d="M33.5,12c-7.457,0.006 -15.665,4.339 -18.372,13.073l-8.357,-0.09c-0.229,0.848 -0.361,1.576 -0.423,2.142l8.173,0c-0.223,0.946 -0.376,1.907 -0.457,2.875l-8.023,0c-0.044,1.001 -0.046,1.986 -0.041,2.471l8.033,0c0.129,0.972 0.18,1.959 0.454,2.9l-8.207,0c0.194,1.465 0.177,1.706 0.459,2.472l8.387,0.074c2.321,8.065 11.37,13.077 18.374,13.083c5.167,-0.004 10.125,-2.062 13.777,-5.717l-3.533,-3.533c-2.715,2.717 -6.402,4.247 -10.244,4.25c-7.954,0 -14.5,-6.546 -14.5,-14.5c0,-7.954 6.546,-14.5 14.5,-14.5c3.842,0.003 7.529,1.533 10.244,4.25l3.533,-3.533c-3.652,-3.655 -8.61,-5.713 -13.777,-5.717Zm0,13c-3.566,0 -6.5,2.934 -6.5,6.5c0,3.566 2.934,6.5 6.5,6.5c3.566,0 6.5,-2.934 6.5,-6.5c0,-3.566 -2.934,-6.5 -6.5,-6.5Z" style="fill:#fff;fill-rule:nonzero;"/><rect x="15.143" y="25.007" width="18.358" height="2.073" style="fill:#fff;"/><rect x="14.206" y="29.991" width="17.371" height="2.467" style="fill:#fff;"/><rect x="15.143" y="35.222" width="18.358" height="2.714" style="fill:#fff;"/><path d="M48,26.75c0,-0.414 -0.336,-0.75 -0.75,-0.75l-1.5,0c-0.414,0 -0.75,0.336 -0.75,0.75l0,9.5c0,0.414 0.336,0.75 0.75,0.75l1.5,0c0.414,0 0.75,-0.336 0.75,-0.75l0,-9.5Z" style="fill:#110051;"/><path d="M60,26.75c0,-0.414 -0.336,-0.75 -0.75,-0.75l-1.5,0c-0.414,0 -0.75,0.336 -0.75,0.75l0,9.5c0,0.414 0.336,0.75 0.75,0.75l1.5,0c0.414,0 0.75,-0.336 0.75,-0.75l0,-9.5Z" style="fill:#110051;"/><path d="M51.25,33c0.414,0 0.75,-0.336 0.75,-0.75l0,-1.5c0,-0.414 -0.336,-0.75 -0.75,-0.75l-9.5,0c-0.414,0 -0.75,0.336 -0.75,0.75l0,1.5c0,0.414 0.336,0.75 0.75,0.75l9.5,0Z" style="fill:#110051;"/><path d="M63.25,33c0.414,0 0.75,-0.336 0.75,-0.75l0,-1.5c0,-0.414 -0.336,-0.75 -0.75,-0.75l-9.5,0c-0.414,0 -0.75,0.336 -0.75,0.75l0,1.5c0,0.414 0.336,0.75 0.75,0.75l9.5,0Z" style="fill:#110051;"/></svg>