<svg style="clip-rule:evenodd;fill-rule:evenodd;stroke-linejoin:round;stroke-miterlimit:2" version="1.1" viewBox="0 0 48 48" xmlns="http://www.w3.org/2000/svg">
 <path d="m45.668 8.56c0-3.438-2.79-6.228-6.228-6.228h-30.88c-3.438 0-6.228 2.79-6.228 6.228v30.88c0 3.438 2.79 6.228 6.228 6.228h30.88c3.438 0 6.228-2.79 6.228-6.228v-30.88z" style="fill:url(#_Linear1)"/>
 <path d="m27.909 30.261l-0.384 0.384s-0.905 0.922-2.303 1.388c-1.399 0.466-3.439 0.387-5.214-1.388l-0.24-0.239-4.527 5.865h17.34l-4.672-6.01zm8.145-8.145l-6.892 6.892 5.682 7.02c0.919-0.417 1.559-1.336 1.559-2.415v-10.197c0-0.475-0.133-0.915-0.349-1.3zm-24.265 0.312c-0.122 0.305-0.192 0.637-0.192 0.988v10.197c0 1.031 0.588 1.912 1.443 2.353l5.475-6.812-6.726-6.726zm3.352-1.67v-2.658c0-4.893 3.966-8.859 8.859-8.859s8.859 3.966 8.859 8.859v2.658h0.886c0.345 0 0.671 0.07 0.973 0.188l-8.446 8.445s-0.661 0.645-1.611 0.962c-0.95 0.316-2.043 0.395-3.4-0.962l-8.292-8.291c0.382-0.211 0.816-0.342 1.286-0.342h0.886zm15.061 0v-2.658c0-3.456-2.745-6.202-6.202-6.202s-6.202 2.746-6.202 6.202v2.658h12.404z" style="fill-rule:nonzero;fill:#00b38f"/>
 <defs>
  <linearGradient id="_Linear1" x2="1" gradientTransform="matrix(2.65364e-15,-43.3373,43.3373,2.65364e-15,201.9,45.6687)" gradientUnits="userSpaceOnUse">
   <stop style="stop-color:#2e2e2e" offset="0"/>
   <stop style="stop-color:#5d5d5d" offset="1"/>
  </linearGradient>
 </defs>
</svg>
