<svg style="clip-rule:evenodd;fill-rule:evenodd;stroke-linecap:round" version="1.1" viewBox="0 0 48 48" xmlns="http://www.w3.org/2000/svg">
 <path d="m46.764 24c0 12.488-10.276 22.764-22.764 22.764s-22.764-10.276-22.764-22.764 10.276-22.764 22.764-22.764 22.764 10.276 22.764 22.764z" style="fill-rule:nonzero;fill:url(#_Linear1)"/>
 <path d="m21.955 13.756c-0.381 3e-3 -0.795 0.218-1.318 0.638l-1.336 1.217 4.106 4.127 1.128-1.029c1.17-1.158 0.981-1.726 0.315-2.538l-1.776-1.784c-0.39-0.425-0.738-0.634-1.119-0.631zm-3.707 2.816l-4.354 3.972c-2.24 1.73-3.952 4.221-4.53 6.8-0.501 2.507 0.069 6.242 3.17 8.939 3.016 2.622 6.543 2.882 8.869 2.178s3.8-2.19 3.8-2.19c0.029-0.028 0.057-0.057 0.084-0.086l6.033-6.476-4.101-4.122-5.433 5.986c-2.325 2.562-4.344 1.249-5.458 0.303-1.282-1.301-2.139-3.728-0.533-5.194l6.559-5.984-4.106-4.126zm12.463 5.954c-0.533-0.032-0.995 0.397-1.57 0.999l-0.951 1.02 4.102 4.122 1.08-1.159c1.3-1.278 0.935-1.737 0.265-2.506l-1.848-1.857c-0.413-0.415-0.758-0.6-1.078-0.619z" style="fill-rule:nonzero;fill:#1e5914"/>
 <path d="m33.83 21.147c-1.285-3.172-3.083-6.019-6.977-7.33" style="fill:none;stroke-width:1.14px;stroke:#1e5914"/>
 <path d="m36.649 20.513c-0.736-3.643-4.363-8.714-9.016-9.374" style="fill:none;stroke-width:1.14px;stroke:#1e5914"/>
 <path d="m39.4 19.065c-0.543-3.836-6.087-10.377-10.924-10.854" style="fill:none;stroke-width:1.14px;stroke:#1e5914"/>
 <defs>
  <linearGradient id="_Linear1" x2="1" gradientTransform="matrix(-.481679 -45.5229 45.5229 -.481679 24 46.764)" gradientUnits="userSpaceOnUse">
   <stop style="stop-color:#73cd4d" offset="0"/>
   <stop style="stop-color:#94e05e" offset="1"/>
  </linearGradient>
 </defs>
</svg>
