<svg style="clip-rule:evenodd;fill-rule:evenodd;stroke-linejoin:round;stroke-miterlimit:1.41421" version="1.1" viewBox="0 0 48 48" xmlns="http://www.w3.org/2000/svg">
 <circle cx="24" cy="24" r="22.918" style="fill:url(#_Linear1)"/>
 <path d="m32.583 5.908c-1.903-0.015-4.277 1.074-6.935 3.205-1.305 1.048-2.892 2.614-4.31 4.2-0.58 0.016-1.137 0.029-1.991 0.067-0.835 0.048-2.195 0.182-3.775 0.37-0.71 0.113-1.088 0.188-1.567 0.288-0.045-0.438-0.081-0.873-0.099-1.308 0-1.397 0.019-1.667 0.153-2.227 0.329-1.415 0.981-2.294 1.841-2.476 1.184-0.25 2.656 0.343 4.717 1.873 0.658 0.494 1.458 0.072 1.359-0.709-0.042-0.34-0.353-0.633-1.402-1.334-0.879-0.592-1.866-1.08-2.672-1.318-0.396-0.118-0.886-0.186-1.349-0.199-0.462-0.013-0.898 0.028-1.188 0.126-1.421 0.487-2.311 1.536-2.805 3.286-0.264 1.302-0.252 1.241-0.282 3.331 0.017 0.643 0.036 0.97 0.063 1.323-3.024 0.746-5.258 1.817-6.623 3.194-0.646 0.646-1.006 1.212-1.214 1.926-0.146 0.495-0.146 1.475 0 1.963 0.403 1.343 1.539 2.604 3.331 3.72 1.244 0.768 1.616 0.855 2.019 0.452 0.189-0.189 0.23-0.279 0.23-0.505 0-0.439-0.134-0.617-0.719-0.953-3.671-2.067-4.317-4.139-1.866-5.982 1.191-0.893 2.85-1.602 5.043-2.164 0.022 0.144 0.023 0.179 0.05 0.354 0.357 2.093 1.046 4.492 1.943 6.809l-0.27 0.522c-2.121 4.098-3.484 8.276-3.648 11.331-0.134 2.355 0.294 4.037 1.331 5.08 1.133 1.135 2.732 1.379 4.786 0.72 0.775-0.25 2.313-1.03 3.209-1.64 0.646-0.433 0.787-0.562 0.873-0.788 0.086-0.227 0.086-0.3 0-0.537-0.128-0.355-0.397-0.55-0.762-0.55-0.238 0-0.401 0.074-1.011 0.489-1.385 0.94-2.684 1.526-3.763 1.708-1.494 0.257-2.452-0.403-2.891-1.965-0.189-0.677-0.176-2.846 0.031-3.969 0.317-1.786 0.871-3.641 1.665-5.592 0.394-0.973 1.007-2.294 1.291-2.833 0.119 0.263 0.225 0.537 0.349 0.794 1.179 2.747 2.747 5.558 4.277 7.832 1.827 2.712 3.74 4.951 5.582 6.575 1.841 1.624 3.611 2.633 5.152 2.886l-0.032 5e-3c1.354 0.219 2.495-0.116 3.379-1 0.719-0.732 1.608-1.75 1.876-3.183 0.164-0.896 0.707-7.602-0.404-6.875-0.562 0.448-0.445 1.218-0.664 4.104-0.084 1.108-0.339 2.502-0.618 3.275-0.377 1.044-1.773 1.849-2.288 2.102-1.823 0.22-3.058-0.604-4.574-1.727-1.517-1.124-2.895-2.758-4.154-4.582s-2.615-3.753-3.665-5.633c-0.975-1.75-2.144-4.063-3.171-6.638l0.164-0.323c1.027-1.754 2.124-3.461 3.299-5.122l0.463-0.622 1.303-1.653 0.446-0.502h0.305c7.411 0 14.746 1.676 18.636 4.244 0.793 0.525 1.75 1.484 2.037 2.045 0.208 0.39 0.227 0.492 0.227 1.011 0 0.507-0.018 0.628-0.188 0.939-0.476 0.915-1.733 1.867-3.349 2.545-0.749 0.316-0.952 0.523-0.952 0.955 0 0.366 0.239 0.672 0.598 0.781 0.232 0.067 0.312 0.055 0.727-0.109 2.61-1.032 4.397-2.635 4.762-4.257 0.102-0.439 0.096-1.264-7e-3 -1.69-0.195-0.837-0.889-1.908-1.688-2.628-3.5-3.141-10.868-5.176-19.63-5.448 0.158-0.167 0.307-0.342 0.441-0.478 2.55-2.592 4.916-4.286 6.983-4.993 0.658-0.232 0.792-0.257 1.476-0.257 0.635 0 0.786 0.018 1.061 0.159 0.373 0.176 0.793 0.609 1.007 1.018 0.42 0.835 0.56 2.299 0.358 3.86-0.067 0.537-0.122 1.159-0.122 1.373 0 0.361 0.014 0.416 0.222 0.593 0.17 0.159 0.285 0.201 0.505 0.201 0.355 0 0.683-0.189 0.781-0.445 0.292-0.756 0.445-3.433 0.256-4.561-0.293-1.733-1.038-2.904-2.221-3.471-0.523-0.253-1.104-0.382-1.738-0.388zm-12.638 9.047c-0.086 0.108-0.189 0.223-0.271 0.329l-0.165 0.195-1.347 1.744c0 0.031-0.279 0.464-0.627 0.976-0.348 0.506-0.842 1.25-1.098 1.672-0.25 0.409-0.494 0.781-0.542 0.836l-0.222 0.406c-0.608-1.759-1.125-3.595-1.439-5.44 0.564-0.121 0.938-0.2 1.565-0.336 1.882-0.287 1.871-0.279 3.196-0.345l0.95-0.037z" style="fill-rule:nonzero;fill:url(#_Linear2)"/>
 <path d="m28.369 18.447c-1.299 0.048-2.579 0.459-3.658 1.229-0.939 0.67-1.905 1.889-2.332 2.939-0.653 1.607-0.67 3.539-0.043 5.102 0.838 2.091 2.699 3.655 4.908 4.129 0.664 0.142 2.125 0.149 2.777 0.011 0.682-0.143 1.482-0.46 2.118-0.837 1.071-0.637 2.229-1.977 2.736-3.168 0.903-2.122 0.656-4.568-0.656-6.512-0.386-0.572-1.436-1.549-2.08-1.934-1.153-0.689-2.471-1.006-3.77-0.959zm0.291 1.848c0.691 3e-3 1.373 0.041 1.434 0.113 0.07 0.085 8e-3 0.421-0.317 1.692-0.222 0.872-0.406 1.603-0.406 1.625 0 0.021 0.234-0.051 0.52-0.162 0.541-0.211 0.713-0.212 0.713-8e-3 0 0.247-0.277 1.103-0.401 1.24-0.071 0.078-0.371 0.232-0.668 0.342-0.296 0.11-0.565 0.249-0.596 0.308-0.084 0.167-0.532 2.031-0.496 2.067 0.018 0.017 0.959 0.051 2.092 0.074s2.138 0.059 2.233 0.078c0.159 0.033 0.168 0.06 0.127 0.361-0.055 0.397-0.33 1.334-0.428 1.459-0.056 0.071-0.923 0.09-3.901 0.09h-3.83v-0.189c0-0.105 0.135-0.709 0.301-1.342s0.283-1.166 0.262-1.188c-0.021-0.021-0.196 0.023-0.391 0.098-0.411 0.16-0.535 0.138-0.535-0.094s0.284-1.143 0.387-1.24c0.046-0.044 0.27-0.152 0.498-0.242 0.227-0.09 0.445-0.201 0.484-0.248s0.348-1.111 0.686-2.363c0.423-1.569 0.654-2.305 0.742-2.37 0.098-0.071 0.799-0.104 1.49-0.101z" style="fill-rule:nonzero;fill:url(#_Linear3)"/>
 <defs>
  <linearGradient id="_Linear1" x2="1" gradientTransform="matrix(.368157 -44.2426 44.2426 .368157 20.2264 45.5019)" gradientUnits="userSpaceOnUse">
   <stop style="stop-color:#126af4" offset="0"/>
   <stop style="stop-color:#01c6fe" offset="1"/>
  </linearGradient>
  <linearGradient id="_Linear2" x2="1" gradientTransform="matrix(22.3638,-36.4579,36.4579,22.3638,11.7931,41.3843)" gradientUnits="userSpaceOnUse">
   <stop style="stop-color:#e3e3e3" offset="0"/>
   <stop style="stop-color:#fcf9f9" offset="1"/>
  </linearGradient>
  <linearGradient id="_Linear3" x2="1" gradientTransform="matrix(21.5008,-36.3501,36.3501,21.5008,14.3459,42.7506)" gradientUnits="userSpaceOnUse">
   <stop style="stop-color:#ccc" offset="0"/>
   <stop style="stop-color:#fff" offset="1"/>
  </linearGradient>
 </defs>
</svg>
