<svg clip-rule="evenodd" fill-rule="evenodd" stroke-linejoin="round" stroke-miterlimit="2" viewBox="0 0 48 48" xmlns="http://www.w3.org/2000/svg">
 <linearGradient id="a" x2="1" gradientTransform="matrix(0 -45.5294 45.5294 0 210.898 46.7647)" gradientUnits="userSpaceOnUse">
  <stop stop-color="#262626" offset="0"/>
  <stop stop-color="#555" offset="1"/>
 </linearGradient>
 <circle cx="24" cy="24" r="22.764" fill="url(#a)"/>
 <path transform="matrix(.804671 0 0 .804671 4.31189 4.29165)" d="m34 14v5c0 2.77-2.23 5-5 5h-10s-5 0-5 5v8.75c0 3.462 3.902 6.25 8.75 6.25h2.5c4.848 0 8.75-2.788 8.75-6.25v-1.75h-10v-2h13.75c3.462 0 6.25-3.902 6.25-8.75v-2.5c0-4.848-2.788-8.75-6.25-8.75zm-5 26c.549 0 1 .451 1 1s-.451 1-1 1-1-.451-1-1 .451-1 1-1z" fill="#ffc121" fill-rule="nonzero"/>
 <path transform="matrix(.804671 0 0 .804671 4.31189 4.29165)" d="m22.75 4c-4.848 0-8.75 2.787-8.75 6.25v1.75h10v2h-13.75c-3.463 0-6.25 3.902-6.25 8.75v2.5c0 4.848 2.787 8.75 6.25 8.75h3.75v-5c0-2.77 2.23-5 5-5h10s5 0 5-5v-8.75c0-3.463-3.902-6.25-8.75-6.25zm-3.75 2c.549 0 1 .451 1 1s-.451 1-1 1-1-.451-1-1 .451-1 1-1z" fill="#449cff" fill-rule="nonzero"/>
 <circle cx="37.744258" cy="37.744258" r="9.720898" fill="#a8b5bb" stroke-width=".883718"/>
 <path transform="matrix(1.13958 0 0 1.13958 -3.28012 -3.27996)" d="m34.488 29.999-.133 1.58c-.506.186-.976.455-1.391.797l-1.449-.676-1.513 2.598 1.315.906c-.046.262-.071.528-.072.795 0 .268.023.535.069.799l-1.314.903 1.514 2.598 1.445-.675c.416.34.887.608 1.393.792l.133 1.584h3.027l.134-1.58c.505-.186.976-.455 1.39-.797l1.449.676 1.514-2.598-1.316-.906c.047-.262.071-.528.073-.795-.001-.268-.024-.535-.07-.798l1.313-.901-1.513-2.599-1.446.675c-.416-.34-.887-.608-1.393-.792l-.134-1.584h-3.027zm1.514 4.286c.948 0 1.729.774 1.729 1.714s-.781 1.714-1.729 1.714c-.949 0-1.73-.774-1.73-1.714s.781-1.714 1.73-1.714z" fill="#fff" fill-rule="nonzero"/>
</svg>
