<svg style="clip-rule:evenodd;fill-rule:evenodd;stroke-linejoin:round;stroke-miterlimit:2" version="1.1" viewBox="0 0 48 48" xmlns="http://www.w3.org/2000/svg">
 <circle cx="23.98" cy="24.009" r="22.784" style="fill:url(#_Linear1)"/>
 <path d="m30.081 9.721c-4.624 0-8.371 3.748-8.371 8.371v4.44h-4.419c-4.623 0-8.371 3.73-8.371 8.353 0 4.624 3.748 8.372 8.371 8.372s8.371-3.748 8.371-8.372v-4.458h4.419c4.624 0 8.372-3.712 8.372-8.335s-3.748-8.371-8.372-8.371zm-8.371 21.17c-4e-3 2.436-1.981 4.41-4.419 4.41-2.44 0-4.436-1.978-4.436-4.418 0-2.441 1.996-4.456 4.436-4.456h3.795c0.345 0 0.624 0.279 0.624 0.624v3.84zm8.371-8.362h-3.795c-0.345 0-0.624-0.279-0.624-0.624v-3.82c5e-3 -2.438 1.981-4.411 4.419-4.411 2.44 0 4.437 1.978 4.437 4.419 0 2.44-1.997 4.436-4.437 4.436z" style="fill-opacity:.2;fill-rule:nonzero;fill:#fff"/>
 <path d="m21.71 22.553v-4.44c0-4.624 3.748-8.372 8.371-8.372 0.702 0 1.2 0.079 1.85 0.249 0.946 0.248 1.72 1.024 1.72 1.927 1e-3 1.091-0.792 1.885-1.976 1.885-0.565 0-0.768-0.108-1.594-0.108-2.438 0-4.414 1.974-4.419 4.412v3.82c0 0.345 0.279 0.624 0.624 0.624h2.904c1.081 0 1.954 0.866 1.955 1.95 0 1.084-0.875 1.948-1.955 1.948h-3.528v4.458c0 4.623-3.748 8.371-8.371 8.371-0.702 0-1.2-0.08-1.849-0.25-0.947-0.247-1.72-1.023-1.72-1.926 0-1.091 0.791-1.885 1.976-1.885 0.563 0 0.768 0.108 1.593 0.108 2.438 0 4.415-1.975 4.419-4.411v-3.84c0-0.344-0.28-0.623-0.625-0.623h-2.903c-1.081 0-1.954-0.863-1.954-1.948-1e-3 -1.091 0.883-1.95 1.975-1.95h3.506l1e-3 1e-3z" style="fill-opacity:.85;fill-rule:nonzero;fill:#fff"/>
 <defs>
  <linearGradient id="_Linear1" x2="1" gradientTransform="matrix(2.69059e-15,-43.9407,43.9407,2.69059e-15,23.4356,45.7203)" gradientUnits="userSpaceOnUse">
   <stop style="stop-color:#010b6a" offset="0"/>
   <stop style="stop-color:#5d91ff" offset="1"/>
  </linearGradient>
 </defs>
</svg>
