<svg clip-rule="evenodd" fill-rule="evenodd" stroke-linejoin="round" stroke-miterlimit="2" viewBox="0 0 48 48" xmlns="http://www.w3.org/2000/svg">
 <linearGradient id="a" x2="1" gradientTransform="matrix(0 -43.3373 43.3373 0 201.9 45.6687)" gradientUnits="userSpaceOnUse">
  <stop stop-color="#6f2bfd" offset="0"/>
  <stop stop-color="#9e75f4" offset="1"/>
 </linearGradient>
 <path d="m45.668 8.56c0-3.438-2.79-6.228-6.228-6.228h-30.88c-3.438 0-6.228 2.79-6.228 6.228v30.88c0 3.438 2.79 6.228 6.228 6.228h30.88c3.438 0 6.228-2.79 6.228-6.228z" fill="url(#a)"/>
 <path d="m28.363 17.074c-.542-.02-1.161.196-2.117.555-1.014.381-2.056.691-2.316.691-.262 0-1.063-.248-1.785-.554-1.797-.765-2.516-.867-3.25-.461-.326.18-1.534 1.311-2.688 2.511-1.754 1.824-2.27 2.248-3.137 2.594-1.364.546-2.513.678-3.457.395-1.281-.384-1.973.336-1.422 1.476.526 1.088 2.624 2.074 5.407 2.539 3.863.647 6.421.046 9.136-2.14.521-.419 1.1-.762 1.286-.762.185 0 .816.388 1.402.859 1.391 1.12 2.069 1.476 3.719 1.961 1.173.346 1.626.385 3.277.282 3.47-.218 5.793-.95 7.016-2.215.412-.426.566-.754.566-1.196 0-.888-.479-1.11-1.703-.796-.742.192-1.154.195-1.902.027-1.83-.41-2.658-.976-4.79-3.266-1.658-1.778-2.342-2.467-3.242-2.5zm-5.363 10.926c-.548 0-1 .452-1 1 0 .066.007.131.02.195l1 5c.093.466.505.803.98.803s.887-.337.98-.803l1-5c.013-.064.02-.129.02-.195 0-.548-.452-1-1-1z" fill="#fff" fill-opacity=".89" fill-rule="nonzero"/>
</svg>
