<svg style="clip-rule:evenodd;fill-rule:evenodd;stroke-linejoin:round;stroke-miterlimit:2" version="1.1" viewBox="0 0 48 48" xmlns="http://www.w3.org/2000/svg">
 <path d="m45.668 8.56c0-3.438-2.79-6.228-6.228-6.228h-30.88c-3.438 0-6.228 2.79-6.228 6.228v30.88c0 3.438 2.79 6.228 6.228 6.228h30.88c3.438 0 6.228-2.79 6.228-6.228v-30.88z" style="fill:url(#_Linear1)"/>
 <path d="m36.789 45.668h-28.229c-3.438 0-6.228-2.79-6.228-6.228v-28.21c0.395-0.934 0.983-1.782 1.783-2.578 1.223-1.218 2.591-1.921 4.344-2.231 0.266-0.048 10.179-0.061 10.179-0.061 1.98 2e-3 -1.276 1.3-2.282 1.991-1.191 0.759-1.727 1.413-2.859 2.028l-0.422 0.228s-3.054 0.022-3.284 0.05c-1.817 0.221-3.389 1.645-3.784 3.427-0.085 0.386-0.087 0.702-0.088 12.56-1e-3 8.307 0.014 11.725 0.046 11.908 0.106 0.597 0.386 1.258 0.746 1.764 0.224 0.313 0.857 0.939 1.155 1.14 0.498 0.338 1.166 0.605 1.729 0.693 0.244 0.037 2.955 0.048 11.933 0.037 4.076 0 7.283-0.109 11.255-0.134 2.101 0.205 4.036-1.449 4.554-3.144 0.101-0.354 0.102-0.193 0.128-3.658 0.025-3.432 0.027-2.989 0.118-3.143 0.11-0.188 0.407-0.45 0.808-0.825 1.253-1.173 3.278-3.362 3.286-2.366 1e-3 0.153-0.021 2.394-9e-3 5.613 0.019 4.692-0.023 5.124-0.424 6.328-0.574 1.722-1.854 3.299-3.508 4.321-0.302 0.187-0.618 0.35-0.947 0.49zm-21.834-7.444c-0.264-0.115-0.679-0.693-1.409-1.962-1.238-2.154-1.907-3.572-2.424-5.143-0.448-1.36-0.72-2.538-0.839-3.629-0.061-0.564-0.033-2.9 0.044-3.6 0.352-3.199 1.193-5.228 2.841-7.208 1.663-1.999 4.41-3.565 7.705-4.391 1.511-0.379 3.038-0.639 5.395-0.843 0.298-0.026 1.664-0.055 3.56-0.066 3.093-0.019 3.427-0.027 3.476-0.091 0.041-0.054 0.053-0.971 0.053-3.049 0-2.639 1e-3 -2.683 0.093-2.927 0.238-0.635 1.03-1.102 1.739-1.026 0.155 0.016 0.383 0.082 0.542 0.157 0.253 0.118 1.077 0.831 5.955 5.708 5.065 5.064 5.287 5.292 5.422 5.581 0.128 0.271 0.142 0.34 0.142 0.688 0 0.349-0.014 0.418-0.142 0.689-0.135 0.289-0.356 0.516-5.444 5.599-4.135 4.132-5.747 5.319-5.903 5.392-0.11 0.052-0.318 0.116-0.462 0.142-0.693 0.129-1.509-0.283-1.808-0.913l-0.112-0.236-0.021-2.763c-0.016-2.048-0.035-2.976-0.073-3.014-0.063-0.063-5.206-0.026-6.113 0.044-2.7 0.206-4.438 0.616-6.095 1.33-3.418 1.473-4.987 4.243-5.241 9.136-0.069 1.331-7e-3 2.759 0.202 4.681 0.094 0.863 0.105 1.073 0.063 1.213-0.059 0.196-0.265 0.419-0.465 0.503-0.176 0.073-0.512 0.072-0.681-1e-3v-1e-3z" style="fill-rule:nonzero;fill:url(#_Linear2)"/>
 <defs>
  <linearGradient id="_Linear1" x2="1" gradientTransform="matrix(2.65364e-15,-43.3373,43.3373,2.65364e-15,201.9,45.6687)" gradientUnits="userSpaceOnUse">
   <stop style="stop-color:#353535" offset="0"/>
   <stop style="stop-color:#484848" offset="1"/>
  </linearGradient>
  <linearGradient id="_Linear2" x2="1" gradientTransform="matrix(-.279156 -39.0991 39.0991 -.279156 22.5566 45.668)" gradientUnits="userSpaceOnUse">
   <stop style="stop-color:#da084f" offset="0"/>
   <stop style="stop-color:#ef3e51" offset="1"/>
  </linearGradient>
 </defs>
</svg>
