<svg clip-rule="evenodd" fill-rule="evenodd" stroke-linejoin="round" stroke-miterlimit="2" viewBox="0 0 48 48" xmlns="http://www.w3.org/2000/svg">
 <linearGradient id="a" x2="1" gradientTransform="matrix(0 -32.5937 32.5937 0 246.258 40.2224)" gradientUnits="userSpaceOnUse">
  <stop stop-color="#1075f6" offset="0"/>
  <stop stop-color="#12c5ff" offset="1"/>
 </linearGradient>
 <linearGradient id="b" x2="1" gradientTransform="matrix(0 -22.6303 22.6303 0 24 36.3871)" gradientUnits="userSpaceOnUse">
  <stop stop-color="#cecece" offset="0"/>
  <stop stop-color="#ebebeb" offset="1"/>
 </linearGradient>
 <path d="m46.798 12.466c0-1.327-.526-2.598-1.464-3.536s-2.21-1.464-3.536-1.464h-35.596c-1.326 0-2.598.526-3.536 1.464s-1.464 2.209-1.464 3.536v23.073c0 1.326.526 2.597 1.464 3.535s2.21 1.465 3.536 1.465h35.596c1.326 0 2.598-.527 3.536-1.465s1.464-2.209 1.464-3.535z" fill="#0083d5"/>
 <path d="m46.798 16.201c0-2.761-2.238-5-5-5h-18.524c-1.232 0-2.42-.454-3.337-1.276-.428-.383-.896-.804-1.324-1.187-.917-.822-2.105-1.277-3.337-1.277h-9.074c-1.326 0-2.598.527-3.536 1.465s-1.464 2.209-1.464 3.535v23.078c0 1.326.526 2.597 1.464 3.535s2.21 1.465 3.536 1.465h35.596c2.762 0 5-2.239 5-5z" fill="url(#a)"/>
 <path d="m26.66 25.445c-.03-.266-.341-.467-.611-.467-.869 0-1.64-.51-1.965-1.3-.33-.809-.117-1.752.531-2.347.205-.186.229-.498.058-.715-.445-.565-.951-1.076-1.504-1.519-.216-.173-.534-.149-.721.058-.565.627-1.582.86-2.366.533-.817-.344-1.333-1.173-1.282-2.061.016-.28-.188-.522-.466-.554-.709-.082-1.424-.085-2.135-.006-.275.031-.479.268-.47.543.031.88-.491 1.693-1.299 2.025-.776.317-1.785.086-2.35-.535-.186-.204-.498-.23-.716-.06-.569.446-1.086.957-1.535 1.518-.175.217-.149.534.056.721.661.598.875 1.55.531 2.367-.327.781-1.137 1.283-2.064 1.283-.302-.009-.516.193-.549.466-.083.714-.084 1.439-.004 2.159.03.267.35.466.622.466.827-.021 1.62.491 1.953 1.301.332.808.119 1.752-.531 2.347-.203.185-.228.498-.057.715.44.562.946 1.072 1.501 1.518.218.176.534.15.722-.057.568-.628 1.584-.86 2.366-.532.819.342 1.334 1.17 1.284 2.06-.016.279.189.522.466.554.363.042.728.064 1.093.064.347 0 .695-.02 1.042-.058.275-.031.479-.268.469-.544-.031-.879.491-1.692 1.299-2.024.781-.318 1.786-.085 2.35.535.188.204.498.229.717.06.568-.445 1.084-.956 1.535-1.518.175-.217.15-.534-.057-.721-.66-.598-.875-1.55-.532-2.367.323-.77 1.103-1.287 1.942-1.287l.117.003c.273.022.522-.188.555-.465.084-.714.085-1.44.005-2.159zm-9.416 4.24c-1.745 0-3.165-1.42-3.165-3.165 0-1.746 1.42-3.166 3.165-3.166 1.746 0 3.166 1.42 3.166 3.166 0 1.745-1.42 3.165-3.166 3.165zm22.795-10.378c-.048-.185-.289-.295-.479-.267-.614.09-1.211-.19-1.522-.715-.317-.537-.264-1.225.132-1.712.125-.152.109-.375-.034-.511-.373-.353-.783-.661-1.219-.916-.17-.1-.392-.051-.503.115-.334.501-1.028.771-1.616.621-.612-.158-1.062-.69-1.119-1.322-.017-.199-.186-.349-.386-.343-.509.015-1.014.088-1.508.217-.191.05-.31.239-.276.432.114.618-.171 1.247-.707 1.564-.515.304-1.252.246-1.715-.134-.153-.125-.375-.111-.512.032-.355.373-.667.788-.926 1.23-.101.172-.05.393.114.504.529.354.778 1.004.62 1.617-.15.584-.67 1.023-1.325 1.119-.213.025-.344.19-.339.386.016.513.09 1.025.221 1.525.049.186.296.293.488.265.581-.101 1.194.178 1.513.716.318.536.266 1.224-.131 1.712-.125.152-.111.375.033.511.369.351.779.659 1.217.916.172.102.393.051.504-.115.336-.502 1.03-.771 1.616-.62.614.156 1.063.688 1.119 1.321.018.199.188.349.387.343.26-.008.52-.03.779-.068.245-.036.488-.086.729-.149.191-.05.311-.238.275-.432-.113-.618.172-1.246.708-1.564.518-.306 1.252-.245 1.715.134.153.125.375.111.512-.031.355-.374.666-.788.927-1.231.101-.172.05-.393-.115-.503-.529-.355-.779-1.005-.621-1.617.149-.577.646-1.023 1.238-1.11l.083-.01c.195-.012.349-.186.344-.386-.015-.512-.09-1.025-.221-1.524zm-6.209 3.969c-1.232.18-2.382-.676-2.563-1.908s.675-2.382 1.907-2.563c1.233-.181 2.383.675 2.563 1.908.181 1.232-.674 2.382-1.907 2.563z" fill="url(#b)"/>
</svg>
