<!DOCTYPE svg  PUBLIC '-//W3C//DTD SVG 1.1//EN'  'http://www.w3.org/Graphics/SVG/1.1/DTD/svg11.dtd'>
<svg style="clip-rule:evenodd;fill-rule:evenodd;stroke-linejoin:round;stroke-miterlimit:1.41421" version="1.1" viewBox="0 0 48 48" xmlns="http://www.w3.org/2000/svg">
 <g transform="translate(-.101695 .0591388)">
  <path d="m17.113 13.208c-0.121-4e-3 -0.267 2e-3 -0.457 2e-3h-12.647c-0.45 0-2.512 2.36-2.512 2.813v1.893c-1e-3 0.019-5e-3 0.037-5e-3 0.056v23.206c0 0.868 0.699 1.568 1.567 1.568h42.087c0.868 0 1.566-0.7 1.566-1.568v-21.56c0-0.868-2.318-3.214-3.186-3.214h-23.51c-0.015-0.02-0.025-0.031-0.041-0.052-0.58-0.781-1.456-1.79-2.027-2.552-0.343-0.5-0.471-0.583-0.834-0.592h-1e-3z" style="fill-rule:nonzero;fill:rgb(40,50,42)"/>
  <path d="m15.848 5.746c-0.573 0-11.054 2e-3 -11.054 2e-3 -2.689 0-3.297 0.809-3.297 2.74l-6e-3 31.662c0 0.868 0.7 1.568 1.568 1.568h42.087c0.868 0 1.566-0.7 1.566-1.568v-27.1c0-1.913-0.782-3.136-3.082-3.136-5.037 0-18.107-0.051-20.91-0.051-1.328 0-1.465-0.467-2.472-1.598-1.636-1.838-2.049-2.543-4.4-2.519z" style="fill-rule:nonzero;fill:url(#_Linear1)"/>
 </g>
 <defs>
  <linearGradient id="_Linear1" x2="1" gradientTransform="matrix(-.082035 -38.5433 38.5433 -.082035 22.2012 42.7985)" gradientUnits="userSpaceOnUse">
   <stop style="stop-color:rgb(62,77,6)" offset="0"/>
   <stop style="stop-color:rgb(118,225,44)" offset="1"/>
  </linearGradient>
 </defs>
</svg>
