<svg clip-rule="evenodd" fill-rule="evenodd" stroke-linecap="round" stroke-linejoin="round" viewBox="0 0 48 48" xmlns="http://www.w3.org/2000/svg">
 <linearGradient id="a" x2="1" gradientTransform="matrix(-.0993789 -52 52 -.0993789 340.075 57.9037)" gradientUnits="userSpaceOnUse">
  <stop stop-color="#af025b" offset="0"/>
  <stop stop-color="#c64835" offset="1"/>
 </linearGradient>
 <path d="m39.44 45.668h-30.88c-3.438 0-6.228-2.79-6.228-6.228v-30.88c0-3.438 2.79-6.228 6.228-6.228h30.88c3.438 0 6.228 2.79 6.228 6.228v30.88c0 3.438-2.79 6.228-6.228 6.228z" fill="url(#a)"/>
 <path transform="matrix(1.05572 0 0 1.05572 -.941442 -1.73323)" d="m32.25 12v-7.125c0-1.035.84-1.875 1.875-1.875s1.875.84 1.875 1.875v7.125h7.125c1.035 0 1.875.84 1.875 1.875s-.84 1.875-1.875 1.875h-7.125v6.75h7.125c1.035 0 1.875.84 1.875 1.875s-.84 1.875-1.875 1.875h-7.125v6.75h7.125c1.035 0 1.875.84 1.875 1.875s-.84 1.875-1.875 1.875h-7.125v7.125c0 1.035-.84 1.875-1.875 1.875s-1.875-.84-1.875-1.875v-7.125h-6.75v7.125c0 1.035-.84 1.875-1.875 1.875s-1.875-.84-1.875-1.875v-7.125h-6.75v7.125c0 1.035-.84 1.875-1.875 1.875s-1.875-.84-1.875-1.875v-7.125h-7.125c-1.035 0-1.875-.84-1.875-1.875s.84-1.875 1.875-1.875h7.125v-6.75h-7.125c-1.035 0-1.875-.84-1.875-1.875s.84-1.875 1.875-1.875h7.125v-6.75h-7.125c-1.035 0-1.875-.84-1.875-1.875s.84-1.875 1.875-1.875h7.125v-7.125c0-1.035.84-1.875 1.875-1.875s1.875.84 1.875 1.875v7.125h6.75v-7.125c0-1.035.84-1.875 1.875-1.875s1.875.84 1.875 1.875v7.125zm-17.25 14.25v6.75h6.75v-6.75zm10.5 0v6.75h6.75v-6.75zm-10.5-10.5v6.75h6.75v-6.75zm10.5 0v6.75h6.75v-6.75z" fill="#3b3b3b"/>
 <path transform="scale(.75)" d="m40.5 44v-7.5c0-2.387 1.971-4 5.167-4 3.055 0 4.833 1.73 4.833 4v7.5" fill="none" stroke="#ffa02e" stroke-width="5"/>
 <circle cx="34.125" cy="36.375" r="7.875" fill="#ffce23" stroke-width=".75"/>
 <g fill="#7f4a04">
  <circle cx="34.125" cy="35.625" r="1.875" stroke-width=".75"/>
  <path transform="scale(.75)" d="m44 46v4.5c0 .823.677 1.5 1.5 1.5s1.5-.677 1.5-1.5v-4.5z" fill-rule="nonzero"/>
 </g>
</svg>
