<svg style="clip-rule:evenodd;fill-rule:evenodd;stroke-linejoin:round;stroke-miterlimit:2" version="1.1" viewBox="0 0 48 48" xmlns="http://www.w3.org/2000/svg">
 <path d="m30.115 2.519c1.393 3.559 3.813 5.31 7.788 10.502 3.225 4.212 3.371 9.235 4.631 13.613l-8.737 7.998-10.239-10.981c-0.048-7.3-2.433-15.022 6.556-21.132z" style="fill-rule:nonzero;fill:url(#_Linear1)"/>
 <path d="m30.115 2.519c-3.198 5.288-2.295 10.154 2.097 15.346 3.426 4.05-8.654 5.786-8.654 5.786-0.048-7.3-2.433-15.022 6.556-21.132z" style="fill-rule:nonzero;fill:url(#_Linear2)"/>
 <path d="m11.081 15.902c1.39-1.379 3.658-4.589 6.365-5.479-0.727 3.877 0.216 5.109 0.685 7.09l-4.351-1.128-2.699-0.483z" style="fill-rule:nonzero;fill:url(#_Linear3)"/>
 <circle cx="23.958" cy="23.509" r="10" style="fill:url(#_Radial4)"/>
 <path d="m28.099 17.204c-0.142 1e-3 -0.285 6e-3 -0.427 0.015 2.897 1.359 4.388 4.3 4.392 7.499-2e-3 4.396-3.602 7.887-9.282 8.074 1.098 0.519 3.742 0.964 4.957 0.967 4.563 0 8.028-3.906 8.028-8.469s-3.105-8.086-7.668-8.086z" style="fill-rule:nonzero;fill:url(#_Linear5)"/>
 <path id="ellipse841" d="m11.384 16.907c-4.679 3.618-6.871 0.98-6.799 7.306 0.114 10.152 8.386 19.071 19.432 19.071s19.487-8.368 19.487-19.284c0-5.083-1.144-9.07-4.829-12.457 0.071-3e-3 -0.298-0.287-0.489-0.216 1.333 2.21 1.925 4.311 1.925 7.08 0 8.103-4.136 16.092-12.24 16.092-5.205 0.253-12.138-3.074-13.205-6.188-0.689-2.009-0.515-4.265 1.358-5.514 1.018-0.646 2.501-1.284 4.848-1.359 2.144-1.41 1.101-1.249 0.998-1.676-0.666-0.182-1.849-0.434-3.481-1.718-1.445-1.138-2.117-1.57-6.33-1.609-0.796-1.533-0.597 2.292-0.675 0.472z" style="fill-rule:nonzero;fill:url(#_Linear6)"/>
 <path d="m12.061 9.048c-4.918 3.366-7.256 7.993-7.476 14.624 1.096 9.113 8.541 16.099 18.873 16.099 10.493 0 17.785-7.113 17.785-16.502 0-2.53-0.207-5.159-1.315-7.317 0.134 0.799 0.183 1.7 0.183 2.537 0 8.104-7.031 13.942-15.085 14.04-5.229 0.064-8.338-2.111-9.405-5.224-0.688-2.009-0.526-3.104 1.347-4.353 1.018-0.646 2.464-1.079 4.811-1.154 2.144-1.41 2.216-1.74 2.254-2.136-0.666-0.338-2.426-0.982-4.072-2.25-1.742-1.341-2.394-3.279-7.154-3.412-0.796-1.533-0.668-3.132-0.746-4.952z" style="fill-rule:nonzero;fill:url(#_Linear7)"/>
 <path d="m13.376 18.688c-1.361-0.03-2.793 0.437-3.703 1.058-0.163 0.163 1.377 2.863 4.419 2.895-0.089 1.553 0.545 4.039 1.514 5.434 2.289 3.294 4.96 3.817 4.96 3.817-1e-3 0-3.101-1.622-4.71-4.587-1.118-2.062-0.604-3.198 1.112-4.353 1.001-0.673 2.464-1.079 4.811-1.154 1.994-1.473 2.324-1.718 2.221-2.145-3.396 1.352-6.521 0.113-9.701-0.861-0.299-0.064-0.609-0.097-0.923-0.104z" style="fill-rule:nonzero;fill:#ffba36"/>
 <defs>
  <linearGradient id="_Linear1" x2="1" gradientTransform="matrix(-3.9176,-18.074,18.074,-3.9176,36.8031,27.9222)" gradientUnits="userSpaceOnUse">
   <stop style="stop-color:#fe7f55" offset="0"/>
   <stop style="stop-color:#fff245" offset="1"/>
  </linearGradient>
  <linearGradient id="_Linear2" x2="1" gradientTransform="matrix(1.3005,-15.3661,15.3661,1.3005,28.814,17.8851)" gradientUnits="userSpaceOnUse">
   <stop style="stop-color:#ffd029" offset="0"/>
   <stop style="stop-color:#fff245" offset="1"/>
  </linearGradient>
  <linearGradient id="_Linear3" x2="1" gradientTransform="matrix(-3.22273,5.16304,-5.19234,-3.24102,17.446,10.4226)" gradientUnits="userSpaceOnUse">
   <stop style="stop-color:#f6bf21" offset="0"/>
   <stop style="stop-color:#ff750e" offset="1"/>
  </linearGradient>
  <radialGradient id="_Radial4" cx="0" cy="0" r="1" gradientTransform="matrix(6.78412,-4.52605,4.52605,6.78412,21.7544,28.035)" gradientUnits="userSpaceOnUse">
   <stop style="stop-color:#765fed" offset="0"/>
   <stop style="stop-color:#b739e3" offset="1"/>
  </radialGradient>
  <linearGradient id="_Linear5" x2="1" gradientTransform="matrix(4.54277,-10.8229,13.7994,5.79208,29.1539,32.0529)" gradientUnits="userSpaceOnUse">
   <stop style="stop-color:#ff6236" offset="0"/>
   <stop style="stop-color:#fee457" offset="1"/>
  </linearGradient>
  <linearGradient id="_Linear6" x2="1" gradientTransform="matrix(28.815,-26.5708,26.5708,28.815,298.571,350.845)" gradientUnits="userSpaceOnUse">
   <stop style="stop-color:#e10f68" offset="0"/>
   <stop style="stop-color:#fee34a" offset="1"/>
  </linearGradient>
  <linearGradient id="_Linear7" x2="1" gradientTransform="matrix(17.2533,-22.5937,22.5937,17.2533,18.1784,39.12)" gradientUnits="userSpaceOnUse">
   <stop style="stop-color:#fe324b" offset="0"/>
   <stop style="stop-color:#ff7423" offset=".35"/>
   <stop style="stop-color:#fff41f" offset="1"/>
  </linearGradient>
 </defs>
</svg>
