<svg clip-rule="evenodd" fill-rule="evenodd" stroke-linejoin="round" stroke-miterlimit="2" viewBox="0 0 48 48" xmlns="http://www.w3.org/2000/svg">
 <linearGradient id="a" x2="1" gradientTransform="matrix(0 -49.5142 49.4819 0 23.9753 48.5993)" gradientUnits="userSpaceOnUse">
  <stop stop-color="#993502" offset="0"/>
  <stop stop-color="#ffad00" offset="1"/>
 </linearGradient>
 <ellipse cx="24" cy="24" rx="22.749" ry="22.764" fill="url(#a)"/>
 <path d="m18.719 18.816c-.705-.553-1.59-.883-2.552-.883-2.265 0-4.108 1.827-4.166 4.103-2.337.887-4.001 3.167-4.001 5.84 0 3.158 2.322 5.768 5.333 6.179v.057h21.334v-.01c2.974-.175 5.333-2.669 5.333-5.72 0-2.943-2.194-5.368-5.018-5.693.012-.18.018-.361.018-.543 0-4.561-3.806-8.258-8.5-8.258-3.475 0-6.463 2.026-7.781 4.928z" fill="#fff" fill-opacity=".86" fill-rule="nonzero"/>
</svg>
