<svg style="clip-rule:evenodd;fill-rule:evenodd;stroke-linejoin:round;stroke-miterlimit:2" version="1.1" viewBox="0 0 48 48" xmlns="http://www.w3.org/2000/svg">
 <path d="m24 1.815c-0.674 0.012-1.335 0.184-1.929 0.503l-15.216 8.618c-1.026 0.548-2.055 1.508-2.5 2.565-0.487 1.158-0.464 2.062-0.38 2.746l0.087 16.876c0.03 1.252 0.618 2.425 1.603 3.201 1.972 1.554 16.024 9.318 16.024 9.318 0.703 0.395 1.505 0.582 2.311 0.537 0.806 0.045 1.608-0.142 2.311-0.537 0 0 14.052-7.764 16.024-9.318 0.985-0.776 1.572-1.949 1.603-3.201l0.087-16.876c0.084-0.684 0.107-1.588-0.38-2.746-0.445-1.057-1.474-2.017-2.5-2.565l-15.216-8.618c-0.594-0.319-1.255-0.491-1.929-0.503z" style="fill-rule:nonzero;fill:url(#_Linear1)"/>
 <path d="m21.592 25.25l0.053-2.478-2.044-1.34 9.093-5.233 4.54 2.621-6.943 4.012 0.051 13.043 2.282-1.146v-5.252l6.955-4.016 0.042-8.018-11.621-6.602-2.168 1.264 4.336 2.662-9.13 5.278-4.578-2.537-0.081 13.247 2.236 1.237 0.139-5.113 4.489 2.413 0.091-2.526-4.546-2.688-0.03-2.524 6.834 3.696zm11.652-3.819l0.021 2.595-4.641 2.68-0.011-2.601 4.631-2.674zm-9.188-15.518l-15.903 9.181 0.085 17.921 15.866 8.991 15.743-8.879v-18.232l-15.791-8.982zm-0.077 2.657l13.614 7.732-1e-3 15.276-13.488 7.922-13.569-7.67-0.139-15.468 13.583-7.792z" style="fill-rule:nonzero;fill:url(#_Linear2)"/>
 <defs>
  <linearGradient id="_Linear1" x2="1" gradientTransform="matrix(.0052845 -44.0695 44.0695 .0052845 23.9947 45.9752)" gradientUnits="userSpaceOnUse">
   <stop style="stop-color:#3b3b3b" offset="0"/>
   <stop style="stop-color:#3f3f3f" offset="1"/>
  </linearGradient>
  <linearGradient id="_Linear2" x2="1" gradientTransform="matrix(2.2079e-15,-36.0577,36.0577,2.2079e-15,23.9947,42.0059)" gradientUnits="userSpaceOnUse">
   <stop style="stop-color:#dfdfdf" offset="0"/>
   <stop style="stop-color:#fff" offset="1"/>
  </linearGradient>
 </defs>
</svg>
