<?xml version="1.0" encoding="UTF-8" standalone="no"?><!DOCTYPE svg PUBLIC "-//W3C//DTD SVG 1.1//EN" "http://www.w3.org/Graphics/SVG/1.1/DTD/svg11.dtd"><svg width="100%" height="100%" viewBox="0 0 64 64" version="1.1" xmlns="http://www.w3.org/2000/svg" xmlns:xlink="http://www.w3.org/1999/xlink" xml:space="preserve" xmlns:serif="http://www.serif.com/" style="fill-rule:evenodd;clip-rule:evenodd;stroke-linejoin:round;stroke-miterlimit:1.41421;"><path d="M58.371,18.776c0,-7.277 -5.908,-13.186 -13.185,-13.186l-26.372,0c-7.277,0 -13.185,5.909 -13.185,13.186l0,26.448c0,7.277 5.908,13.186 13.185,13.186l26.372,0c7.277,0 13.185,-5.909 13.185,-13.186l0,-26.448Z" style="fill:url(#_Linear1);"/><path d="M55.374,53.59c-2.419,2.942 -6.086,4.82 -10.188,4.82l-26.372,0c-4.102,0 -7.769,-1.878 -10.188,-4.82l46.748,0Z" style="fill:#600a00;"/><circle cx="32" cy="41.793" r="2.352" style="fill:#600a00;"/><path d="M38.837,14.012c-0.852,-0.032 -2.004,-0.011 -3.199,0.197c-1.196,0.209 -2.501,0.595 -3.644,1.514c-1.144,0.919 -1.993,2.5 -1.993,4.286l0,5.998l-5.98,0c-0.009,0 -0.018,0 -0.028,0c-1.093,0 -1.993,0.902 -1.993,1.999c0,1.097 0.9,2 1.993,2c0.01,0 0.019,0 0.028,0l5.98,0l0,4.26c-3.449,0.889 -6.001,4.011 -6.001,7.736c0,4.417 3.581,7.998 7.999,7.998c4.418,0 8,-3.581 8,-7.998c0,-3.729 -2.558,-6.852 -6.011,-7.738l0,-4.258l5.978,0c0.009,0 0.018,0 0.028,0c1.093,0 1.993,-0.903 1.993,-2c0,-1.097 -0.9,-1.999 -1.993,-1.999c-0.01,0 -0.019,0 -0.028,0l-5.978,0l0,-5.998c0,-0.723 0.146,-0.882 0.498,-1.164c0.351,-0.282 1.038,-0.558 1.835,-0.697c1.595,-0.279 3.369,-0.059 3.369,-0.059c0.105,0.017 0.211,0.026 0.317,0.026c1.093,0 1.993,-0.903 1.993,-2c0,-1.008 -0.76,-1.866 -1.757,-1.986c0,0 -0.554,-0.084 -1.406,-0.117Zm-6.838,25.991c1.105,0 2,0.895 2,1.999c0,1.105 -0.895,2 -2,2c-1.104,0 -2,-0.895 -2,-2c0,-1.104 0.896,-1.999 2,-1.999Z" style="fill:#fff;fill-rule:nonzero;"/><defs><linearGradient id="_Linear1" x1="0" y1="0" x2="1" y2="0" gradientUnits="userSpaceOnUse" gradientTransform="matrix(3.23425e-15,52.8193,-52.8193,3.23425e-15,32,5.59036)"><stop offset="0" style="stop-color:#d45c4e;stop-opacity:1"/><stop offset="1" style="stop-color:#b80000;stop-opacity:1"/></linearGradient></defs></svg>