<svg style="clip-rule:evenodd;fill-rule:evenodd;stroke-linejoin:round;stroke-miterlimit:2" version="1.1" viewBox="0 0 48 48" xmlns="http://www.w3.org/2000/svg">
 <path d="m45.668 8.56c0-3.438-2.79-6.228-6.228-6.228h-30.88c-3.438 0-6.228 2.79-6.228 6.228v30.88c0 3.438 2.79 6.228 6.228 6.228h30.88c3.438 0 6.228-2.79 6.228-6.228v-30.88z" style="fill:url(#_Linear1)"/>
 <path d="m45.622 40.199c-0.375 3.08-3.001 5.469-6.182 5.469h-30.88c-3.181 0-5.807-2.389-6.182-5.469h43.244z" style="fill:#600a00"/>
 <circle cx="23.464" cy="29.558" r="1.764" style="fill:#600a00"/>
 <path d="m28.592 8.722c-0.639-0.024-1.503-8e-3 -2.399 0.148-0.897 0.157-1.876 0.446-2.733 1.136-0.858 0.689-1.495 1.875-1.495 3.214v4.499h-4.506c-0.82 0-1.495 0.676-1.495 1.499s0.675 1.5 1.495 1.5h4.506v3.195c-2.587 0.667-4.501 3.008-4.501 5.802 0 3.313 2.686 5.998 5.999 5.998 3.314 0 6-2.685 6-5.998 0-2.797-1.918-5.139-4.508-5.804v-3.193h4.505c0.819 0 1.494-0.677 1.494-1.5s-0.675-1.499-1.494-1.499h-4.505v-4.499c0-0.542 0.11-0.661 0.374-0.873 0.263-0.211 0.778-0.418 1.376-0.523 1.196-0.209 2.527-0.044 2.527-0.044 0.078 0.013 0.158 0.02 0.237 0.02 0.82 0 1.495-0.678 1.495-1.5 0-0.756-0.57-1.4-1.318-1.49 0 0-0.415-0.063-1.054-0.088zm-5.129 19.494c0.829 0 1.5 0.671 1.5 1.499 0 0.829-0.671 1.5-1.5 1.5-0.828 0-1.5-0.671-1.5-1.5 0-0.828 0.672-1.499 1.5-1.499z" style="fill-rule:nonzero;fill:#fff"/>
 <defs>
  <linearGradient id="_Linear1" x2="1" gradientTransform="matrix(2.65745e-15,43.3354,-43.3995,2.65353e-15,-218.603,2.3323)" gradientUnits="userSpaceOnUse">
   <stop style="stop-color:#d45c4e" offset="0"/>
   <stop style="stop-color:#b80000" offset="1"/>
  </linearGradient>
 </defs>
</svg>
