<svg clip-rule="evenodd" fill-rule="evenodd" stroke-linejoin="round" stroke-miterlimit="2" viewBox="0 0 48 48" xmlns="http://www.w3.org/2000/svg">
 <linearGradient id="a" x2="1" gradientTransform="matrix(0 -45.5286 45.5286 0 210.895 46.7643)" gradientUnits="userSpaceOnUse">
  <stop stop-color="#0a80fd" offset="0"/>
  <stop stop-color="#56c5fa" offset="1"/>
 </linearGradient>
 <circle cx="24" cy="24" r="22.764" fill="url(#a)"/>
 <g fill="#fff" fill-opacity=".85" fill-rule="nonzero">
  <path d="m11.72 15.724c-3.892 3.903-6.031 9.108-6.02 14.666.016 11.594 8.699 16.876 19.36 16.336l.128-.115c-9.444 0-15.867-6.749-15.884-16.231-.005-4.592 1.754-8.891 4.967-12.11 3.229-3.235 7.561-5.021 12.196-5.021v-3.604c-5.601 0-10.834 2.16-14.747 6.079"/>
  <path d="m22.486 15.072c-4.147 1.119-7.567 3.719-9.629 7.323-4.332 7.572-2.03 16.815 5.471 21.977 5.766 5.064 15.71.724 17.979-1.157-.19.049-6.141 4.913-15.933-1.812-5.922-4.071-7.767-11.311-4.385-17.217 1.584-2.763 4.222-4.766 7.436-5.629 3.295-.89 6.703-.456 9.602 1.216l1.802-3.126c-3.735-2.155-8.12-2.714-12.343-1.574"/>
  <path d="m21.534 21.068c-3.598 2.079-5.612 5.862-5.612 9.749 0 1.802.45 3.62 1.357 5.303l-.011.011c0 .005.033.059.043.081h-.005s.022.033.038.06c.022.043.076.141.082.146.564.972 2.741 4.245 7.512 5.982 5.783 2.111 7.729 1.952 10.43 1.469 2.939-1.68 4.514-3.176 4.514-3.176-3.093.334-7.477.593-13.712-1.68-3.756-1.368-5.325-3.865-5.613-4.38-.287-.516-.01-.017-.01-.022-.69-1.2-1.021-2.508-1.021-3.8 0-2.638 1.368-5.205 3.81-6.622 1.765-1.015 3.822-1.286 5.792-.76 1.965.527 3.61 1.792 4.63 3.556l3.181-1.694-.06-.108c-1.498-2.6-3.919-4.457-6.817-5.238-2.899-.777-5.928-.375-8.528 1.123"/>
 </g>
</svg>
