<svg style="clip-rule:evenodd;fill-rule:evenodd;stroke-linejoin:round;stroke-miterlimit:2" version="1.1" viewBox="0 0 48 48" xmlns="http://www.w3.org/2000/svg">
 <path d="m45.668 8.56c0-3.438-2.79-6.228-6.228-6.228h-30.88c-3.438 0-6.228 2.79-6.228 6.228v30.88c0 3.438 2.79 6.228 6.228 6.228h30.88c3.438 0 6.228-2.79 6.228-6.228v-30.88z" style="fill:url(#_Linear1)"/>
 <path d="m10.668 45.668h7l28-28v-7l-35 35z" style="fill-rule:nonzero;fill:#f24c3d"/>
 <path d="m17.668 45.668h7l21-21v-7l-28 28z" style="fill-rule:nonzero;fill:#e6df15"/>
 <path d="m24.668 45.668h7l14-14v-7l-21 21z" style="fill-rule:nonzero;fill:#66dd23"/>
 <path d="m31.668 45.668h7l7-7v-7l-14 14z" style="fill-rule:nonzero;fill:#24f0ff"/>
 <path d="m19 8 3.571 6-3.571 6h2.857l2.143-3.601 2.143 3.601h2.857l-3.571-6 3.571-6h-2.857l-2.143 3.601-2.143-3.601h-2.857zm-11 0h10v1.5l-6.429 8.25h6.429v2.25h-10v-1.5l6.429-8.25h-6.429v-2.25z" style="fill-rule:nonzero;fill:#fff"/>
 <defs>
  <linearGradient id="_Linear1" x2="1" gradientTransform="matrix(2.65364e-15,-43.3373,43.3373,2.65364e-15,201.9,45.6687)" gradientUnits="userSpaceOnUse">
   <stop style="stop-color:#2a2a2a" offset="0"/>
   <stop style="stop-color:#6b6b6b" offset="1"/>
  </linearGradient>
 </defs>
</svg>
