<svg clip-rule="evenodd" fill-rule="evenodd" stroke-linejoin="round" stroke-miterlimit="2" viewBox="0 0 48 48" xmlns="http://www.w3.org/2000/svg">
 <linearGradient id="a" x2="1" gradientTransform="matrix(.0267315 -40 40 .0267315 23.9733 44)" gradientUnits="userSpaceOnUse">
  <stop stop-color="#dadada" offset="0"/>
  <stop stop-color="#eee" offset="1"/>
 </linearGradient>
 <circle transform="matrix(1.13995 0 0 1.13995 -3.35881 -3.35881)" cx="24" cy="24" r="20" fill="url(#a)"/>
 <g fill-rule="nonzero">
  <path transform="matrix(1.13995 0 0 1.13995 -3.35881 -3.35881)" d="m29.237 11.707s-.964 2.189-1.431 3.231c-.501.977-1.043 2.144-1.513 3.136-.488 1.029-.964 2.065-1.435 3.103-.815 1.794-1.618 3.593-2.453 5.377-1.152 2.678-2.667 5.245-3.315 8.11-.293 1.237-.118 2.986 1.398 3.275.801.175 1.705-.027 2.322-.577 1.028-1.182 1.082-2.866 1.198-4.355-.003-.469-.017-1.098-.035-1.756-.043-1.619-.112-3.41-.112-3.41l-1.097 2.231c-.114.795-.134 1.615-.217 2.424-.023.222-.051.445-.086.665-.126.827-.725 3.551-1.609 2.344-.807-1.102.363-2.627.817-3.84 1.675-3.772 3.714-7.367 5.906-10.862.741-1.182 1.259-1.961 2.028-3.123.474-.83 1.87-2.893 1.87-2.893zm-11.828 3.38c-.566-.004-1.135.093-1.654.28-1.895.725-2.735 2.736-2.755 4.772-.004.487.038.977.125 1.45l.123.706.809-1.154c.042-1.43.452-2.839 1.823-3.359 1.344-.67 2.961.093 3.65 1.343 1.304 2.331 1.853 4.921 2.432 7.486.391-.808 1.13-2.315 1.13-2.315-.444-2.599-1.091-5.321-2.515-7.606-.687-1.095-1.922-1.593-3.168-1.603z" fill="#356899"/>
  <path transform="matrix(1.13995 0 0 1.13995 -3.35881 -3.35881)" d="m34.443 10-5.206 1.707 2.236 3.08z" fill="#75b4f4"/>
  <path transform="matrix(1.13995 0 0 1.13995 -3.35881 -3.35881)" d="m29.959 10.384 2.227.361-2.949.962z" fill="#7fb9f5"/>
  <path transform="matrix(1.13995 0 0 1.13995 -3.35881 -3.35881)" d="m29.237 11.707 2.236 3.08-3.667.151z" fill="#5fa4e9"/>
  <path transform="matrix(1.13995 0 0 1.13995 -3.35881 -3.35881)" d="m27.806 14.938 3.667-.151-1.87 2.893z" fill="#4993dd"/>
  <path transform="matrix(1.13995 0 0 1.13995 -3.35881 -3.35881)" d="m27.806 14.938 1.797 2.742-3.31.394z" fill="#3c8ce0"/>
  <path transform="matrix(1.13995 0 0 1.13995 -3.35881 -3.35881)" d="m26.293 18.074 3.31-.394-2.028 3.123z" fill="#3d81c3"/>
  <path transform="matrix(1.13995 0 0 1.13995 -3.35881 -3.35881)" d="m26.293 18.074 1.282 2.729-2.717.374z" fill="#3b73ac"/>
  <path transform="matrix(1.13995 0 0 1.13995 -3.35881 -3.35881)" d="m23.861 27.841.112 3.41-1.209-1.179z" fill="#407ebc"/>
  <path transform="matrix(1.13995 0 0 1.13995 -3.35881 -3.35881)" d="m23.973 31.251-1.209-1.179-.217 2.424z" fill="#3871ab"/>
  <path d="m13.125 21.589.932-.448-.809 1.153z" fill="#547fa9"/>
  <path d="m13 20.139c-.004.487.038.977.125 1.45l.932-.448z" fill="#3771aa"/>
 </g>
</svg>
