<svg style="clip-rule:evenodd;fill-rule:evenodd;stroke-linejoin:round;stroke-miterlimit:2" version="1.1" viewBox="0 0 48 48" xmlns="http://www.w3.org/2000/svg">
 <path d="m45.668 8.56c0-3.438-2.79-6.228-6.228-6.228h-30.88c-3.438 0-6.228 2.79-6.228 6.228v30.88c0 3.438 2.79 6.228 6.228 6.228h30.88c3.438 0 6.228-2.79 6.228-6.228v-30.88z" style="fill:url(#_Linear1)"/>
 <path d="m24.512 11.585c-14.319 0-14.169 1.023-14.169 11.25 0 6.005 0.306 8.75 1.833 9.909 1.628 1.236 3.386 1.109 3.386 1.109l-6.243 8.481 15.193-8.249c14.318 0 14.168-1.022 14.168-11.25 0-10.227 0.15-11.25-14.168-11.25z" style="fill:#fff"/>
 <path d="m17.509 20.308c1.347 0 2.441 1.094 2.441 2.441 0 1.348-1.094 2.442-2.441 2.442-1.348 0-2.442-1.094-2.442-2.442 0-1.347 1.094-2.441 2.442-2.441zm6.967 0c1.348 0 2.442 1.094 2.442 2.441 0 1.348-1.094 2.442-2.442 2.442-1.347 0-2.441-1.094-2.441-2.442 0-1.347 1.094-2.441 2.441-2.441zm6.968 0c1.348 0 2.442 1.094 2.442 2.441 0 1.348-1.094 2.442-2.442 2.442-1.347 0-2.442-1.094-2.442-2.442 0-1.347 1.095-2.441 2.442-2.441z" style="fill:#404040"/>
 <defs>
  <linearGradient id="_Linear1" x2="1" gradientTransform="matrix(2.65364e-15,-43.3373,43.3373,2.65364e-15,302.963,45.6687)" gradientUnits="userSpaceOnUse">
   <stop style="stop-color:#2e2e2e" offset="0"/>
   <stop style="stop-color:#4d4d4d" offset="1"/>
  </linearGradient>
 </defs>
</svg>
