<svg clip-rule="evenodd" fill-rule="evenodd" stroke-linejoin="round" stroke-miterlimit="2" viewBox="0 0 48 48" xmlns="http://www.w3.org/2000/svg">
 <linearGradient id="a" x2="1" gradientTransform="matrix(0 -40 40 0 24 44)" gradientUnits="userSpaceOnUse">
  <stop stop-color="#1d539f" offset="0"/>
  <stop stop-color="#1d81e8" offset="1"/>
 </linearGradient>
 <linearGradient id="b" x2="1" gradientTransform="matrix(0 -30 30 0 24 39)" gradientUnits="userSpaceOnUse">
  <stop stop-color="#ff9b00" offset="0"/>
  <stop stop-color="#ffc05b" offset="1"/>
 </linearGradient>
 <path transform="matrix(1.1382 0 0 1.1382 -3.3168 -3.3168)" d="m44 24c0-11.038-8.962-20-20-20s-20 8.962-20 20 8.962 20 20 20 20-8.962 20-20z" fill="url(#a)"/>
 <path transform="matrix(1.1382 0 0 1.1382 -3.3168 -3.3168)" d="m24 9c-8.229 0-15 6.771-15 15s6.771 15 15 15 15-6.771 15-15-6.771-15-15-15zm-6.443 10c1.884-.047 3.672 1.597 4.252 3.91.671 2.677-.495 5.371-2.584 5.969-.087.025-.174.046-.261.063-2.031.396-4.132-1.3-4.773-3.852-.671-2.677.495-5.371 2.584-5.969.254-.073.516-.114.781-.121zm12.887 0c.265.007.527.048.781.121 2.089.598 3.255 3.292 2.584 5.969-.641 2.552-2.742 4.248-4.772 3.852-.088-.017-.175-.038-.261-.063-2.089-.598-3.256-3.292-2.584-5.969.58-2.312 2.367-3.956 4.251-3.91z" fill="url(#b)" fill-rule="nonzero"/>
</svg>
