<svg style="clip-rule:evenodd;fill-rule:evenodd;stroke-linejoin:round;stroke-miterlimit:2" version="1.1" viewBox="0 0 48 48" xmlns="http://www.w3.org/2000/svg">
 <path d="m39.44 2.332c3.438 0 6.228 2.79 6.228 6.228v30.88c0 3.438-2.79 6.228-6.228 6.228h-30.88c-3.438 0-6.228-2.79-6.228-6.228v-30.88c0-3.438 2.79-6.228 6.228-6.228h30.88z" style="fill:url(#_Linear1)"/>
 <path d="m2.332 9.588v-1.028c0-3.438 2.79-6.228 6.228-6.228h30.88c3.438 0 6.228 2.79 6.228 6.228v1.028h-43.336z" style="fill-opacity:.1;fill:#ebebeb"/>
 <path d="m45.668 38.412v1.028c0 3.438-2.79 6.228-6.228 6.228h-30.88c-3.438 0-6.228-2.79-6.228-6.228v-1.028h43.336z" style="fill-opacity:.2"/>
 <path d="m33.317 7.335h-0.105c-0.099 0-0.178-0.081-0.178-0.18v-0.302c-0.426-0.107-0.548-0.36-0.548-0.879 0-0.766 0.622-1.389 1.388-1.389s1.388 0.623 1.388 1.389c0 0.511-0.129 0.763-0.546 0.874v0.306c0 0.1-0.081 0.18-0.18 0.18h-0.104c-0.099 0-0.18-0.08-0.18-0.18v-0.24c-0.047 3e-3 -0.095 5e-3 -0.146 6e-3v0.235c0 0.099-0.08 0.179-0.179 0.179h-0.104c-0.1 0-0.18-0.08-0.18-0.179v-0.234c-0.051-1e-3 -0.1-3e-3 -0.147-6e-3v0.24c0 0.099-0.08 0.18-0.179 0.18zm-0.018-1.926c0.235 0.092 0.426 0.185 0.426 0.414 0 0.227-0.154 0.271-0.426 0.412-0.209 0.109-0.427-0.185-0.427-0.412 0-0.229 0.207-0.499 0.427-0.414zm1.145 0c0.227-0.064 0.426 0.185 0.426 0.414 0 0.227-0.224 0.533-0.426 0.412-0.248-0.147-0.426-0.185-0.426-0.412 0-0.229 0.166-0.34 0.426-0.414z" style="fill-opacity:.5;fill:#ededed"/>
 <path d="m40.535 5.039 0.418 0.442 0.661-0.626 0.528 0.557-0.66 0.626 0.418 0.442c0.143 0.15 0.141 0.383-3e-3 0.518-0.144 0.137-0.376 0.126-0.517-0.024l-0.42-0.442-0.662 0.628-0.529-0.557 0.664-0.596-0.419-0.475c-0.143-0.15-0.14-0.382 3e-3 -0.518 0.144-0.136 0.376-0.125 0.518 0.025z" style="fill-opacity:.5;fill:#fff"/>
 <path d="m37.201 4.892 4e-3 -0.169 0.607 0.016-6e-3 0.169 0.328 9e-3c0.314 9e-3 0.563 0.272 0.554 0.586l-0.031 1.139c-8e-3 0.315-0.27 0.564-0.585 0.555l-1.26-0.034c-0.315-8e-3 -0.563-0.271-0.554-0.585l0.03-1.14c8e-3 -0.315 0.271-0.563 0.586-0.555l0.327 9e-3zm-0.182 0.496c0.163 4e-3 0.292 0.141 0.287 0.304-3e-3 0.163-0.14 0.292-0.303 0.288s-0.293-0.141-0.288-0.304c4e-3 -0.163 0.141-0.292 0.304-0.288zm1.009 0.027c0.163 5e-3 0.293 0.14 0.288 0.304-4e-3 0.164-0.14 0.293-0.304 0.288-0.163-4e-3 -0.292-0.14-0.288-0.304 5e-3 -0.163 0.141-0.292 0.304-0.288z" style="fill-opacity:.5;fill:#fff"/>
 <path d="m6.42 17.266h-1.672v-0.836h1.672v0.836zm3.346 0h-2.509v-0.836h2.509v0.836z" style="fill-rule:nonzero;fill:#da4453"/>
 <path d="m21.476 33.994h-1.673v-0.836h1.673v0.836zm-10.874 0h-5.854v-0.836h5.854v0.836zm8.364 0h-6.691v-0.836h6.691v0.836zm6.692-1.673h-1.673v-0.836h1.673v0.836zm-2.51 0h-2.509v-0.836h2.509v0.836zm-3.345 0h-7.528v-0.836h7.528v0.836zm-3.346-5.854h-0.836v-0.837h0.836v0.837zm-9.2 0h-2.509v-0.837h2.509v0.837zm7.527 0h-2.509v-0.837h2.509v0.837zm6.692 0h-4.182v-0.837h4.182v0.837zm-5.855-1.673h-3.346v-0.837h3.346v0.837zm5.018 0h-3.345v-0.837h3.345v0.837zm5.019 0h-4.182v-0.837h4.182v0.837zm-15.056-5.855h-1.672v-0.836h1.672v0.836zm-2.509 0h-3.345v-0.836h3.345v0.836zm10.873 0h-6.691v-0.836h6.691v0.836zm-4.182-1.673h-2.509v-0.836h2.509v0.836zm10.874 0h-3.346v-0.836h3.346v0.836zm-4.182 0h-5.019v-0.836h5.019v0.836z" style="fill-rule:nonzero;fill:#e5fdff"/>
 <path d="m8.93 31.485v0.836h-4.182v-0.836h4.182zm-2.51-6.691h-1.672v-0.837h1.672v0.837zm3.346 0h-2.509v-0.837h2.509v0.837z" style="fill-rule:nonzero;fill:#3daefd"/>
 <path d="m30.542 23.1-4e-3 -3.901 4.374-0.652v4.553h-4.37zm5.1-4.669 5.831-0.931v5.6h-5.831v-4.669zm5.833 5.469-2e-3 5.6-5.831-0.9v-4.7h5.833zm-6.563 4.598-4.371-0.658v-3.94h4.371v4.598z" style="fill-rule:nonzero;fill:#eff9fe"/>
 <defs>
  <linearGradient id="_Linear1" x2="1" gradientTransform="matrix(2.21762e-15,-36.2165,36.2165,2.21762e-15,275.714,42.119)" gradientUnits="userSpaceOnUse">
   <stop style="stop-color:#313738" offset="0"/>
   <stop style="stop-color:#535552" offset="1"/>
  </linearGradient>
 </defs>
</svg>
