<svg clip-rule="evenodd" fill-rule="evenodd" stroke-linecap="round" stroke-linejoin="round" viewBox="0 0 48 48" xmlns="http://www.w3.org/2000/svg">
 <linearGradient id="a" x2="1" gradientTransform="matrix(0 -43.3373 43.3373 0 201.9 45.6687)" gradientUnits="userSpaceOnUse">
  <stop stop-color="#272727" offset="0"/>
  <stop stop-color="#545454" offset="1"/>
 </linearGradient>
 <path d="m45.668 8.56c0-3.438-2.79-6.228-6.228-6.228h-30.88c-3.438 0-6.228 2.79-6.228 6.228v30.88c0 3.438 2.79 6.228 6.228 6.228h30.88c3.438 0 6.228-2.79 6.228-6.228z" fill="url(#a)"/>
 <path d="m8.252 23.3c-.17.229-.227.517-.261.894l1.047 4.77c.074 1.475.598 2.267 1.406 2.804s1.637 1.386 2.868 2.047c2.571 1.381 5.093 2.516 5.093 2.516l6.239.021c.778-.117 1.545-.737 2.197-1.163.604-.441 1.061-1.03 1.132-1.749l.417-3.607c-.004-.241-.083-.444-.224-.583-.14-.139-.323-.215-.51-.248-.655-.02-1.31-.048-1.965-.075-.772-.001-.677.471-1.181.993-.48.495-1.04.929-2.251 1.191-.949.013-1.756-.094-2.428-.555-.672-.46-1.22-1.275-2.161-1.455-1.542-.035-3.184-.225-4.729-.233l-2.316-5.004c-.75-.278-.813-.599-1.565-.874-.352-.078-.627.092-.808.31zm6.768-12.205c-2.473.605-5.87.811-7.177 4.222-.147.382-.571 2.376-.567 2.706s.124.666.397.869l4.515 2.063 2.222 3.654c.043.145.184.255.335.261l2.994.149c.101.003.203-.039.273-.112 0 0 .535-.534 1.13-1.091.745-.453 1.392-.969 2.112-.882.294.173.647.832 1.13.809.459-.021.773-.293.944-.484.279-.368.484-.241.857-.049.256.157.533.392.795.633.524.481.957.88.957.88.059.069.145.114.236.124l2.31.199c.695-.003.894-.176 1.031-.683.155-.359.175-.774.211-1.303l.273-4.876c.046-2.48-.83-5.272-1.944-6.254-1.301-1.146-2.938-1.796-4.318-1.906-2.969-.237-6.169.448-8.716 1.071z" fill="#f7f7f6" fill-rule="nonzero"/>
 <path d="m15.002 17.083c.043 1.065.931 1.917 1.998 1.917 1.097 0 2-.901 2-1.997 0-.029-.001-.057-.002-.086-.043-1.065-.931-1.917-1.998-1.917-1.097 0-2 .901-2 1.997 0 .029.001.057.002.086zm8 0c.042 1.064.931 1.917 1.998 1.917 1.097 0 2-.901 2-1.997 0-.029-.001-.057-.002-.086-.042-1.065-.931-1.917-1.998-1.917-1.097 0-2 .901-2 1.997 0 .028.001.057.002.086z" fill="#3f3f3f" fill-rule="nonzero"/>
 <g fill="none" stroke="#39b1ff" stroke-width="2">
  <path d="m35.145 18c7.178 3.655 7.909 13.61 0 18"/>
  <path d="m33 23c3.741 1.961 2.936 6.532 0 8"/>
 </g>
</svg>
