<?xml version="1.0" encoding="UTF-8" standalone="no"?><!DOCTYPE svg PUBLIC "-//W3C//DTD SVG 1.1//EN" "http://www.w3.org/Graphics/SVG/1.1/DTD/svg11.dtd"><svg width="100%" height="100%" viewBox="0 0 48 48" version="1.1" xmlns="http://www.w3.org/2000/svg" xmlns:xlink="http://www.w3.org/1999/xlink" xml:space="preserve" xmlns:serif="http://www.serif.com/" style="fill-rule:evenodd;clip-rule:evenodd;stroke-miterlimit:10;"><path d="M47.48,6.304c0,-3.13 -2.538,-5.668 -5.668,-5.668c-8.987,0 -26.406,0 -35.393,0c-3.13,0 -5.667,2.538 -5.667,5.668c0,8.964 0,26.313 0,35.277c0,3.13 2.537,5.667 5.667,5.667c8.987,0 26.406,0 35.393,0c3.13,0 5.668,-2.537 5.668,-5.667c0,-8.964 0,-26.313 0,-35.277Z" style="fill:url(#_Linear1);"/><g><path d="M13.402,12.281c0,0 2.971,5.96 9.866,5.79c14.447,-0.358 16.951,-7.752 17.31,-8.818c0.358,-1.067 0.913,-0.905 1.045,0.081c4.877,41.951 -32.609,23.959 -33.966,16.813c7.422,-2.134 5.595,-6.223 5.595,-6.223l0.15,-7.643Z" style="fill:#6f2619;"/><path d="M20.959,21.256l0,0.002c0.009,2.242 -1.865,4.089 -4.152,4.089c-2.287,0.001 -4.176,-1.845 -4.185,-4.088l0,-0.002c-0.009,-2.242 1.867,-4.089 4.153,-4.09c2.287,0 4.176,1.846 4.184,4.088l0,0.001Z" style="fill:#6f2519;stroke:#ff7836;stroke-width:1.01px;"/><path d="M12.661,22.799c2.018,2.727 2.057,6.123 0.087,7.522c-1.97,1.398 -5.252,0.303 -7.269,-2.425c-2.018,-2.728 -2.057,-6.123 -0.087,-7.522c1.97,-1.398 5.252,-0.304 7.269,2.425Z" style="fill:#6f2619;"/><path d="M7.493,19.254l0.067,0.001l0.066,0.003l0.067,0.003l0.066,0.004l0.068,0.006l0.133,0.012l0.068,0.008l0.067,0.008l0.066,0.01l0.135,0.022l0.067,0.012l0.068,0.013l0.069,0.014l0.133,0.03l0.134,0.033l0.135,0.037l0.135,0.04l0.134,0.043l0.134,0.046l0.134,0.049l0.134,0.053l0.133,0.056l0.133,0.059l0.133,0.062l0.131,0.065l0.132,0.068l0.13,0.071l0.13,0.074l0.129,0.078l0.128,0.079l0.129,0.083l0.126,0.085l0.126,0.089l0.125,0.091l0.124,0.094l0.122,0.097l0.122,0.1l0.12,0.103l0.12,0.105l0.117,0.109l0.116,0.11l0.115,0.113l0.113,0.116l0.112,0.119l0.11,0.122l0.108,0.123l0.108,0.127l0.104,0.129l0.103,0.131l0.101,0.135l0.099,0.135l0.095,0.138l0.094,0.137l0.089,0.14l0.086,0.139l0.084,0.14l0.08,0.141l0.077,0.142l0.075,0.142l0.071,0.144l0.068,0.143l0.065,0.144l0.062,0.143l0.059,0.145l0.056,0.146l0.053,0.143l0.05,0.146l0.047,0.145l0.043,0.145l0.041,0.145l0.037,0.145l0.035,0.144l0.031,0.145l0.028,0.144l0.026,0.144l0.022,0.143l0.019,0.143l0.016,0.143l0.012,0.142l0.01,0.141l0.007,0.141l0.003,0.141l0,0.139l-0.004,0.138l-0.006,0.136l-0.005,0.07l-0.005,0.068l-0.006,0.067l-0.006,0.068l-0.008,0.068l-0.008,0.067l-0.01,0.066l-0.01,0.067l-0.011,0.066l-0.012,0.066l-0.013,0.065l-0.013,0.065l-0.014,0.065l-0.015,0.065l-0.016,0.064l-0.016,0.064l-0.018,0.063l-0.019,0.063l-0.02,0.063l-0.019,0.062l-0.021,0.062l-0.022,0.061l-0.023,0.062l-0.024,0.06l-0.025,0.06l-0.024,0.06l-0.027,0.059l-0.027,0.059l-0.028,0.058l-0.028,0.058l-0.03,0.057l-0.031,0.057l-0.031,0.055l-0.033,0.056l-0.033,0.056l-0.034,0.054l-0.035,0.053l-0.035,0.054l-0.038,0.052l-0.038,0.053l-0.038,0.051l-0.04,0.051l-0.04,0.049l-0.041,0.051l-0.042,0.048l-0.043,0.048l-0.044,0.048l-0.045,0.046l-0.045,0.046l-0.046,0.044l-0.048,0.045l-0.048,0.043l-0.049,0.043l-0.05,0.042l-0.051,0.041l-0.052,0.041l-0.052,0.039l-0.054,0.038l-0.053,0.039l-0.055,0.036l-0.055,0.035l-0.056,0.035l-0.056,0.033l-0.056,0.032l-0.058,0.032l-0.057,0.029l-0.058,0.03l-0.059,0.028l-0.059,0.027l-0.059,0.026l-0.06,0.025l-0.06,0.024l-0.06,0.023l-0.062,0.021l-0.06,0.021l-0.062,0.02l-0.062,0.019l-0.062,0.018l-0.063,0.017l-0.062,0.015l-0.064,0.015l-0.063,0.014l-0.064,0.013l-0.063,0.011l-0.064,0.011l-0.065,0.01l-0.065,0.008l-0.065,0.008l-0.064,0.007l-0.066,0.006l-0.065,0.005l-0.065,0.004l-0.066,0.003l-0.066,0.002l-0.066,0.001l-0.067,0.001l-0.066,-0.001l-0.066,-0.002l-0.067,-0.002l-0.066,-0.003l-0.067,-0.004l-0.066,-0.006l-0.068,-0.005l-0.067,-0.007l-0.066,-0.008l-0.068,-0.009l-0.067,-0.009l-0.067,-0.01l-0.067,-0.012l-0.068,-0.012l-0.067,-0.013l-0.068,-0.014l-0.134,-0.03l-0.134,-0.033l-0.135,-0.037l-0.134,-0.04l-0.135,-0.043l-0.134,-0.047l-0.134,-0.049l-0.133,-0.052l-0.134,-0.056l-0.134,-0.059l-0.131,-0.062l-0.132,-0.066l-0.131,-0.067l-0.131,-0.071l-0.131,-0.074l-0.128,-0.077l-0.129,-0.08l-0.127,-0.083l-0.127,-0.086l-0.126,-0.088l-0.124,-0.091l-0.125,-0.095l-0.123,-0.096l-0.121,-0.101l-0.12,-0.103l-0.119,-0.104l-0.118,-0.108l-0.116,-0.111l-0.115,-0.113l-0.113,-0.116l-0.112,-0.12l-0.11,-0.121l-0.109,-0.123l-0.106,-0.127l-0.106,-0.129l-0.103,-0.132l-0.101,-0.133l-0.098,-0.137l-0.096,-0.137l-0.092,-0.137l-0.09,-0.139l-0.086,-0.14l-0.083,-0.14l-0.081,-0.142l-0.077,-0.142l-0.075,-0.142l-0.071,-0.142l-0.069,-0.144l-0.064,-0.144l-0.063,-0.144l-0.058,-0.145l-0.057,-0.144l-0.053,-0.145l-0.05,-0.145l-0.046,-0.145l-0.044,-0.145l-0.041,-0.145l-0.037,-0.144l-0.034,-0.146l-0.032,-0.144l-0.028,-0.144l-0.025,-0.145l-0.022,-0.143l-0.019,-0.143l-0.015,-0.142l-0.013,-0.143l-0.01,-0.141l-0.007,-0.141l-0.003,-0.139l0,-0.14l0.003,-0.138l0.007,-0.136l0.004,-0.07l0.005,-0.068l0.007,-0.068l0.007,-0.067l0.007,-0.068l0.009,-0.067l0.008,-0.067l0.011,-0.066l0.011,-0.066l0.012,-0.065l0.012,-0.067l0.013,-0.065l0.015,-0.065l0.015,-0.064l0.015,-0.064l0.018,-0.064l0.017,-0.063l0.019,-0.063l0.019,-0.063l0.021,-0.062l0.021,-0.062l0.021,-0.062l0.023,-0.061l0.024,-0.06l0.024,-0.061l0.025,-0.059l0.026,-0.059l0.027,-0.059l0.029,-0.058l0.029,-0.058l0.03,-0.057l0.029,-0.057l0.032,-0.056l0.033,-0.055l0.033,-0.056l0.033,-0.054l0.036,-0.054l0.036,-0.053l0.036,-0.053l0.038,-0.052l0.039,-0.051l0.039,-0.051l0.041,-0.05l0.041,-0.049l0.042,-0.049l0.043,-0.048l0.044,-0.047l0.045,-0.047l0.045,-0.046l0.046,-0.045l0.048,-0.044l0.048,-0.044l0.049,-0.042l0.051,-0.042l0.05,-0.041l0.051,-0.04l0.053,-0.04l0.053,-0.039l0.054,-0.037l0.055,-0.037l0.055,-0.035l0.056,-0.034l0.056,-0.034l0.056,-0.033l0.057,-0.03l0.058,-0.031l0.059,-0.029l0.058,-0.028l0.059,-0.027l0.059,-0.026l0.06,-0.025l0.06,-0.024l0.061,-0.023l0.06,-0.021l0.061,-0.022l0.061,-0.02l0.125,-0.036l0.063,-0.017l0.062,-0.016l0.064,-0.014l0.063,-0.014l0.063,-0.012l0.065,-0.012l0.064,-0.011l0.064,-0.009l0.065,-0.01l0.065,-0.008l0.13,-0.012l0.065,-0.006l0.132,-0.006l0.131,-0.004l0.132,0.001Zm-0.12,1.025l-0.052,0.001l-0.051,0.001l-0.051,0.003l-0.051,0.002l-0.05,0.005l-0.05,0.005l-0.05,0.005l-0.05,0.006l-0.049,0.006l-0.048,0.008l-0.049,0.007l-0.048,0.01l-0.048,0.009l-0.047,0.011l-0.047,0.011l-0.047,0.011l-0.046,0.013l-0.046,0.012l-0.047,0.015l-0.045,0.014l-0.044,0.015l-0.045,0.016l-0.045,0.017l-0.044,0.018l-0.043,0.018l-0.043,0.019l-0.043,0.019l-0.042,0.02l-0.042,0.022l-0.041,0.021l-0.041,0.023l-0.041,0.023l-0.041,0.024l-0.04,0.025l-0.039,0.025l-0.04,0.027l-0.038,0.027l-0.039,0.028l-0.037,0.027l-0.037,0.029l-0.037,0.03l-0.035,0.03l-0.036,0.031l-0.034,0.031l-0.034,0.032l-0.033,0.032l-0.033,0.033l-0.032,0.033l-0.032,0.035l-0.031,0.034l-0.031,0.036l-0.029,0.035l-0.03,0.037l-0.029,0.036l-0.028,0.037l-0.027,0.038l-0.027,0.039l-0.026,0.039l-0.026,0.04l-0.025,0.04l-0.024,0.04l-0.024,0.042l-0.023,0.042l-0.023,0.042l-0.023,0.042l-0.021,0.044l-0.022,0.044l-0.02,0.044l-0.02,0.045l-0.019,0.045l-0.019,0.047l-0.017,0.046l-0.019,0.046l-0.016,0.048l-0.017,0.048l-0.015,0.048l-0.015,0.049l-0.015,0.049l-0.014,0.05l-0.012,0.05l-0.013,0.05l-0.012,0.052l-0.011,0.05l-0.011,0.053l-0.011,0.052l-0.009,0.052l-0.009,0.054l-0.008,0.054l-0.007,0.054l-0.007,0.053l-0.006,0.055l-0.006,0.056l-0.004,0.055l-0.005,0.055l-0.003,0.055l-0.006,0.115l-0.002,0.114l0,0.116l0.002,0.117l0.005,0.118l0.009,0.118l0.01,0.121l0.014,0.121l0.016,0.121l0.019,0.123l0.021,0.122l0.025,0.125l0.026,0.124l0.031,0.125l0.032,0.125l0.035,0.125l0.038,0.127l0.04,0.126l0.044,0.126l0.046,0.128l0.049,0.125l0.052,0.127l0.055,0.127l0.057,0.126l0.06,0.127l0.063,0.125l0.065,0.126l0.068,0.125l0.071,0.125l0.074,0.124l0.077,0.124l0.079,0.123l0.082,0.122l0.085,0.122l0.088,0.121l0.089,0.119l0.092,0.117l0.094,0.115l0.094,0.112l0.096,0.109l0.097,0.108l0.099,0.105l0.101,0.103l0.102,0.1l0.102,0.098l0.104,0.095l0.105,0.093l0.106,0.09l0.106,0.088l0.109,0.085l0.108,0.083l0.11,0.08l0.11,0.077l0.11,0.075l0.112,0.073l0.111,0.069l0.113,0.066l0.112,0.065l0.114,0.061l0.112,0.058l0.114,0.056l0.114,0.054l0.113,0.05l0.113,0.047l0.114,0.046l0.113,0.041l0.113,0.039l0.113,0.037l0.113,0.033l0.111,0.03l0.112,0.028l0.113,0.025l0.054,0.011l0.054,0.011l0.056,0.01l0.109,0.017l0.055,0.008l0.108,0.013l0.054,0.006l0.054,0.005l0.052,0.004l0.054,0.004l0.053,0.002l0.052,0.002l0.053,0.001l0.104,0l0.051,0l0.052,-0.002l0.051,-0.003l0.101,-0.007l0.05,-0.004l0.05,-0.006l0.049,-0.006l0.049,-0.006l0.049,-0.008l0.049,-0.008l0.047,-0.009l0.049,-0.009l0.047,-0.01l0.047,-0.011l0.094,-0.025l0.136,-0.041l0.091,-0.031l0.043,-0.017l0.044,-0.018l0.086,-0.036l0.043,-0.02l0.043,-0.021l0.041,-0.021l0.042,-0.021l0.042,-0.023l0.039,-0.023l0.041,-0.024l0.041,-0.025l0.039,-0.026l0.078,-0.053l0.038,-0.028l0.038,-0.028l0.037,-0.029l0.037,-0.029l0.035,-0.031l0.035,-0.029l0.035,-0.032l0.033,-0.032l0.034,-0.033l0.033,-0.032l0.032,-0.034l0.032,-0.033l0.031,-0.035l0.03,-0.035l0.03,-0.036l0.029,-0.037l0.029,-0.036l0.028,-0.037l0.027,-0.039l0.028,-0.038l0.026,-0.039l0.025,-0.04l0.026,-0.04l0.024,-0.041l0.024,-0.041l0.024,-0.041l0.023,-0.043l0.021,-0.043l0.022,-0.044l0.021,-0.043l0.02,-0.044l0.021,-0.045l0.019,-0.046l0.019,-0.045l0.018,-0.047l0.017,-0.047l0.017,-0.047l0.016,-0.048l0.017,-0.048l0.014,-0.049l0.014,-0.049l0.014,-0.05l0.014,-0.05l0.012,-0.051l0.012,-0.051l0.011,-0.051l0.011,-0.052l0.01,-0.052l0.01,-0.053l0.008,-0.054l0.008,-0.052l0.008,-0.054l0.007,-0.055l0.006,-0.054l0.005,-0.055l0.006,-0.056l0.004,-0.055l0.003,-0.055l0.006,-0.115l0.002,-0.114l0,-0.116l-0.002,-0.117l-0.006,-0.118l-0.008,-0.119l-0.011,-0.119l-0.013,-0.121l-0.016,-0.122l-0.018,-0.122l-0.022,-0.124l-0.024,-0.124l-0.028,-0.124l-0.029,-0.125l-0.033,-0.125l-0.035,-0.126l-0.038,-0.126l-0.041,-0.126l-0.043,-0.127l-0.047,-0.126l-0.048,-0.127l-0.052,-0.126l-0.054,-0.127l-0.058,-0.126l-0.06,-0.127l-0.062,-0.125l-0.067,-0.126l-0.068,-0.125l-0.071,-0.125l-0.073,-0.124l-0.078,-0.124l-0.078,-0.123l-0.083,-0.122l-0.084,-0.122l-0.087,-0.121l-0.091,-0.119l-0.092,-0.117l-0.092,-0.114l-0.095,-0.112l-0.096,-0.111l-0.098,-0.107l-0.099,-0.105l-0.101,-0.103l-0.1,-0.1l-0.103,-0.098l-0.104,-0.095l-0.106,-0.093l-0.105,-0.09l-0.107,-0.088l-0.108,-0.085l-0.109,-0.082l-0.108,-0.081l-0.111,-0.077l-0.111,-0.075l-0.111,-0.072l-0.111,-0.07l-0.113,-0.067l-0.112,-0.063l-0.113,-0.062l-0.113,-0.059l-0.114,-0.056l-0.113,-0.053l-0.113,-0.05l-0.115,-0.048l-0.113,-0.044l-0.114,-0.043l-0.112,-0.039l-0.113,-0.036l-0.113,-0.033l-0.112,-0.031l-0.112,-0.027l-0.112,-0.025l-0.054,-0.012l-0.055,-0.01l-0.054,-0.01l-0.056,-0.009l-0.055,-0.008l-0.054,-0.008l-0.054,-0.007l-0.054,-0.007l-0.054,-0.005l-0.053,-0.005l-0.054,-0.004l-0.053,-0.003l-0.053,-0.003l-0.053,-0.002l-0.052,-0.001l-0.052,-0.001l-0.052,0.001Z" style="fill:#ff7c36;"/><path d="M19.775,21.862l0,0.001c0.005,1.079 -0.899,1.969 -1.999,1.969c-1.101,0 -2.011,-0.889 -2.016,-1.968l0,-0.002c-0.004,-1.079 0.899,-1.968 2.001,-1.969c1.1,0 2.01,0.889 2.014,1.968l0,0.001Z" style="fill:#ff7c36;stroke:#ff7b36;stroke-width:1.01px;"/><path d="M30.295,21.699l0,0.001c0.01,2.632 -2.19,4.8 -4.875,4.801c-2.684,0.001 -4.902,-2.167 -4.912,-4.799l0,-0.003c-0.011,-2.632 2.191,-4.8 4.875,-4.8c2.685,-0.001 4.902,2.166 4.912,4.798l0,0.002Z" style="fill:#6f2719;stroke:#ff7e36;stroke-width:1.02px;"/><path d="M28.905,22.41l0,0.001c0.005,1.267 -1.055,2.311 -2.347,2.311c-1.293,0.001 -2.361,-1.043 -2.366,-2.31l0,-0.002c-0.005,-1.267 1.055,-2.311 2.348,-2.311c1.292,-0.001 2.36,1.043 2.365,2.31l0,0.001Z" style="fill:#ff7c36;stroke:#ff7c36;stroke-width:1.02px;"/></g><defs><linearGradient id="_Linear1" x1="0" y1="0" x2="1" y2="0" gradientUnits="userSpaceOnUse" gradientTransform="matrix(1.0988,-46.612,46.612,1.0988,23.5373,47.2482)"><stop offset="0" style="stop-color:#ea7123;stop-opacity:1"/><stop offset="1" style="stop-color:#ff8d50;stop-opacity:1"/></linearGradient></defs></svg>