<svg style="clip-rule:evenodd;fill-rule:evenodd;stroke-linejoin:round;stroke-miterlimit:2" version="1.1" viewBox="0 0 48 48" xmlns="http://www.w3.org/2000/svg">
 <circle cx="24" cy="24" r="22.764" style="fill:url(#_Linear1)"/>
 <path d="m24.639 12.371c2.241 0 4.237 0.462 5.99 1.388s3.215 2.252 4.383 3.982l-4.383 3.725c-0.754-1.047-1.613-1.863-2.575-2.447-0.961-0.585-2.136-0.877-3.525-0.877-1.022 0-1.941 0.165-2.757 0.493-0.816 0.329-1.504 0.785-2.064 1.37-0.56 0.584-0.992 1.29-1.297 2.119-0.304 0.827-0.456 1.74-0.456 2.739 0 1.022 0.158 1.96 0.475 2.812 0.316 0.853 0.773 1.577 1.37 2.173 0.596 0.597 1.327 1.066 2.191 1.406 0.864 0.341 1.833 0.512 2.904 0.512 1.168 0 2.198-0.189 3.086-0.566 0.889-0.378 1.625-0.907 2.21-1.589v-1.132h-5.625v-5.406h11.907v7.597c-0.536 0.949-1.205 1.832-2.009 2.648-0.803 0.816-1.704 1.522-2.702 2.118-0.999 0.597-2.1 1.066-3.306 1.407s-2.478 0.511-3.817 0.511c-1.85 0-3.573-0.317-5.168-0.949-1.595-0.634-2.983-1.51-4.164-2.63-1.181-1.121-2.106-2.442-2.776-3.963-0.669-1.522-1.004-3.172-1.004-4.949 0-1.778 0.335-3.427 1.004-4.949 0.67-1.522 1.595-2.843 2.776-3.964 1.181-1.12 2.569-1.996 4.164-2.63 1.595-0.632 3.318-0.949 5.168-0.949zm-13.112 3.499v0.788h-0.52c-0.508 0-0.874 0.164-1.094 0.493-0.219 0.318-0.328 0.795-0.328 1.43v3.131c0 0.598-0.164 1.098-0.487 1.5-0.325 0.391-0.803 0.642-1.439 0.751v0.02c0.659 0.122 1.144 0.383 1.456 0.785 0.312 0.391 0.47 0.887 0.47 1.485v3.166c0 0.623 0.109 1.1 0.328 1.43 0.22 0.329 0.586 0.493 1.094 0.493h0.52v0.788h-0.918c-0.81 0-1.428-0.238-1.856-0.715-0.428-0.475-0.641-1.115-0.641-1.921v-3.187c0-0.501-0.094-0.884-0.279-1.153-0.185-0.28-0.662-0.478-0.974-0.587-0.301-0.11-0.642-0.178-1.023-0.202v-0.768c0.381-0.012 0.722-0.073 1.023-0.183 0.312-0.122 0.789-0.319 0.974-0.587 0.185-0.269 0.279-0.651 0.279-1.151v-3.187c0-0.83 0.213-1.47 0.641-1.922 0.428-0.464 1.046-0.697 1.856-0.697h0.918zm26.582 0c0.81 0 1.428 0.233 1.856 0.697 0.428 0.452 0.643 1.092 0.643 1.922v3.187c0 0.5 0.093 0.882 0.278 1.151 0.185 0.268 0.661 0.465 0.973 0.587 0.301 0.11 0.641 0.171 1.023 0.183v0.768c-0.382 0.024-0.722 0.092-1.023 0.202-0.312 0.109-0.788 0.307-0.973 0.587-0.185 0.269-0.278 0.652-0.278 1.153v3.187c0 0.806-0.215 1.446-0.643 1.921-0.428 0.477-1.046 0.715-1.856 0.715h-0.918v-0.788h0.519c0.509 0 0.874-0.164 1.094-0.493 0.22-0.33 0.329-0.807 0.329-1.43v-3.166c0-0.598 0.157-1.094 0.47-1.485 0.312-0.402 0.797-0.663 1.456-0.785v-0.02c-0.636-0.109-1.114-0.36-1.439-0.751-0.323-0.402-0.487-0.902-0.487-1.5v-3.131c0-0.635-0.109-1.112-0.329-1.43-0.22-0.329-0.585-0.493-1.094-0.493h-0.519v-0.788h0.918z" style="fill:url(#_Linear2)"/>
 <defs>
  <linearGradient id="_Linear1" x2="1" gradientTransform="matrix(4.41491,45.5011,-45.5011,4.41491,-159.12,18.9225)" gradientUnits="userSpaceOnUse">
   <stop style="stop-color:#d4d4d4" offset="0"/>
   <stop style="stop-color:#c3c3c3" offset="1"/>
  </linearGradient>
  <linearGradient id="_Linear2" x2="1" gradientTransform="matrix(-22.2056,-29.7956,29.7956,-22.2056,563.735,-354.839)" gradientUnits="userSpaceOnUse">
   <stop style="stop-color:#0074d5" offset="0"/>
   <stop style="stop-color:#b30086" offset="1"/>
  </linearGradient>
 </defs>
</svg>
