<!DOCTYPE svg  PUBLIC '-//W3C//DTD SVG 1.1//EN'  'http://www.w3.org/Graphics/SVG/1.1/DTD/svg11.dtd'>
<svg style="clip-rule:evenodd;fill-rule:evenodd;stroke-linejoin:round;stroke-miterlimit:1.41421" version="1.1" viewBox="0 0 48 48" xmlns="http://www.w3.org/2000/svg">
 <circle cx="24" cy="24" r="22" style="fill:url(#_Linear1)"/>
 <path d="m25.947 45.346c0.805-0.073 1.628-0.083 2.405-0.241 1.404-0.286 2.759-0.708 4.048-1.251 1.29-0.544 2.515-1.208 3.661-1.981 1.145-0.773 2.212-1.653 3.185-2.627 0.974-0.973 1.854-2.04 2.627-3.185 0.773-1.146 1.437-2.371 1.981-3.661 0.543-1.289 0.965-2.644 1.251-4.048 0.276-1.355 0.41-2.76 0.42-4.196l-7.56-7.56-2e-3 -2e-3c-0.053-0.053-0.115-0.091-0.182-0.121-0.014-7e-3 -0.028-0.011-0.043-0.016-0.053-0.02-0.106-0.032-0.162-0.037-0.021-2e-3 -0.041-4e-3 -0.062-4e-3 -0.071 1e-3 -0.142 0.011-0.209 0.039-0.224 0.099-0.371 0.324-0.371 0.547v0.014l-3.928-3.928c-0.028-0.028-0.059-0.054-0.088-0.082-0.121-0.118-0.246-0.23-0.371-0.344-0.083-0.075-0.163-0.154-0.248-0.226-0.149-0.128-0.303-0.249-0.457-0.37-0.076-0.058-0.148-0.12-0.225-0.177-0.153-0.114-0.311-0.221-0.469-0.328-0.083-0.057-0.163-0.118-0.248-0.172-0.242-0.156-0.49-0.304-0.744-0.444-0.074-0.043-0.153-0.068-0.232-0.076-0.238-0.023-0.474 0.108-0.586 0.35-0.05 0.074-0.051 0.172-0.051 0.271 0 0.101 0.032 0.194 0.076 0.278 0.014 0.025 0.029 0.045 0.045 0.068 0.02 0.028 0.033 0.06 0.057 0.084l4.654 4.654c0.024 0.044 0.049 0.087 0.072 0.131 0.153 0.287 0.298 0.58 0.426 0.881 0.02 0.046 0.038 0.094 0.057 0.141 0.111 0.271 0.211 0.547 0.303 0.828 0.025 0.078 0.05 0.155 0.074 0.234 0.096 0.318 0.181 0.642 0.25 0.971 0.01 0.049 0.016 0.099 0.025 0.148 0.057 0.294 0.103 0.591 0.137 0.893 9e-3 0.083 0.018 0.166 0.025 0.25 0.011 0.112 0.011 0.228 0.018 0.342l-8.899-8.899c-0.11-0.111-0.218-0.203-0.328-0.305-0.09-0.083-0.179-0.171-0.267-0.248-0.061-0.052-0.12-0.099-0.18-0.148-0.141-0.115-0.279-0.219-0.414-0.314-0.07-0.05-0.139-0.098-0.207-0.141-0.13-0.082-0.255-0.148-0.377-0.207-0.056-0.027-0.114-0.06-0.168-0.082-0.174-0.07-0.34-0.119-0.492-0.129h-0.397c-0.811 0.056-1.966 1.005-3.091 2.273l-2.163-2.162c-0.01-0.01-0.025-0.014-0.037-0.023-0.028-0.024-0.057-0.039-0.09-0.057-0.086-0.047-0.179-0.08-0.279-0.08-0.099 0-0.199 0.025-0.299 0.074-2.451 1.35-4.408 3.494-5.531 6.082-0.092 0.214-0.175 0.433-0.256 0.653l-1.119-1.118-2e-3 -3e-3c-0.053-0.054-0.118-0.097-0.191-0.127-0.075-0.025-0.148-0.051-0.223-0.051-0.248 0-0.471 0.15-0.57 0.398-0.646 1.663-0.994 3.449-0.994 5.311 0 0.515 0.027 1.024 0.078 1.525 0.013 0.13 0.04 0.256 0.056 0.385 0.047 0.37 0.095 0.74 0.168 1.102 0.036 0.175 0.088 0.344 0.129 0.517 0.072 0.298 0.14 0.598 0.229 0.889 0.072 0.237 0.164 0.465 0.248 0.697 0.081 0.226 0.154 0.455 0.246 0.676 0.082 0.196 0.18 0.383 0.269 0.574 0.118 0.251 0.23 0.503 0.36 0.746 0.099 0.184 0.212 0.358 0.318 0.537 0.134 0.227 0.263 0.456 0.408 0.674 0.126 0.189 0.265 0.368 0.399 0.551 0.151 0.206 0.298 0.415 0.459 0.613 0.135 0.167 0.282 0.322 0.424 0.483 0.171 0.193 0.34 0.389 0.521 0.574 0.033 0.033 0.061 0.07 0.094 0.103l12.609 12.61z" style="fill-rule:nonzero;fill:url(#_Linear2)"/>
 <path d="m38.1 16.803c-0.124-0.322-0.497-0.471-0.795-0.347-0.223 0.099-0.372 0.322-0.372 0.546 0 0.074 0 0.149 0.05 0.198 0.571 1.515 0.893 3.153 0.893 4.891 0 7.025-5.237 12.858-12.039 13.727v-6.479c0.422-0.074 0.819-0.198 1.216-0.323v5.437c5.536-1.341 9.682-6.355 9.682-12.362 0-4.791-2.657-8.986-6.579-11.146-0.298-0.174-0.67-0.05-0.819 0.273-0.05 0.074-0.05 0.174-0.05 0.273 0 0.223 0.125 0.422 0.298 0.521 3.55 1.961 5.958 5.759 5.958 10.104 0 4.89-3.029 9.06-7.323 10.748v-4.816c0.745-0.223 1.291-0.918 1.291-1.762 0-0.695-0.348-1.266-0.919-1.589 0.422-4.17 2.334-3.053 2.334-4.394v-0.769c0-1.986-4.593-8.465-6.752-8.614h-0.397c-2.16 0.149-6.752 6.628-6.752 8.614v0.769c0 1.316 1.886 0.224 2.333 4.394-0.546 0.323-0.894 0.919-0.894 1.589 0 0.819 0.546 1.514 1.291 1.762v4.816c-4.269-1.688-7.323-5.858-7.323-10.748 0-4.345 2.408-8.143 5.958-10.104 0.273-0.149 0.397-0.496 0.248-0.794-0.074-0.223-0.298-0.348-0.521-0.348-0.099 0-0.199 0.025-0.298 0.075-3.922 2.16-6.578 6.355-6.578 11.146 0 6.007 4.145 11.021 9.731 12.387v-5.437c0.397 0.124 0.794 0.249 1.216 0.323v6.479c-6.802-0.894-12.04-6.702-12.04-13.752 0-1.713 0.323-3.351 0.894-4.89 0.124-0.298-0.025-0.646-0.323-0.77-0.074-0.025-0.149-0.05-0.223-0.05-0.248 0-0.472 0.149-0.571 0.397-0.645 1.664-0.993 3.451-0.993 5.313 0 8.117 6.405 14.72 14.447 15.043v-7.621c0.224 0.025 0.621 0.025 0.621 0.025s0.397 0 0.621-0.025v7.621c8.042-0.323 14.447-6.926 14.447-15.043-0.025-1.862-0.348-3.649-0.968-5.288zm-11.32 8.589c0.224-0.223 0.522-0.372 0.869-0.372 0.348 0 0.645 0.149 0.869 0.372 0.223 0.224 0.372 0.522 0.372 0.869 0 0.348-0.149 0.645-0.372 0.869-0.224 0.223-0.521 0.372-0.869 0.372-0.347 0-0.645-0.149-0.869-0.372-0.223-0.224-0.372-0.521-0.372-0.869 0-0.347 0.149-0.645 0.372-0.869zm-5.56 1.738c-0.224 0.223-0.522 0.372-0.869 0.372-0.348 0-0.645-0.149-0.869-0.372-0.248-0.224-0.372-0.521-0.372-0.869 0-0.347 0.149-0.645 0.372-0.869 0.224-0.223 0.521-0.372 0.869-0.372 0.347 0 0.645 0.149 0.869 0.372 0.223 0.224 0.372 0.522 0.372 0.869-0.025 0.348-0.149 0.645-0.372 0.869z" style="fill-rule:nonzero;fill:url(#_Linear3)"/>
 <defs>
  <linearGradient id="_Linear1" x2="1" gradientTransform="matrix(14.1858,40.7136,-40.7136,14.1858,15.2859,4.63209)" gradientUnits="userSpaceOnUse">
   <stop style="stop-color:rgb(64,198,170)" offset="0"/>
   <stop style="stop-color:rgb(18,88,64)" offset="1"/>
  </linearGradient>
  <linearGradient id="_Linear2" x2="1" gradientTransform="matrix(29.2438,25.5194,-25.5194,29.2438,9.28519,11.2239)" gradientUnits="userSpaceOnUse">
   <stop style="stop-color:black;stop-opacity:.156863" offset="0"/>
   <stop style="stop-color:black;stop-opacity:0" offset="1"/>
  </linearGradient>
  <linearGradient id="_Linear3" x2="1" gradientTransform="matrix(-.133167 -26.3903 26.3903 -.133167 23.9098 37.3105)" gradientUnits="userSpaceOnUse">
   <stop style="stop-color:rgb(236,236,236)" offset="0"/>
   <stop style="stop-color:white" offset="1"/>
  </linearGradient>
 </defs>
</svg>
