<svg clip-rule="evenodd" fill-rule="evenodd" viewBox="0 0 48 48" xmlns="http://www.w3.org/2000/svg">
 <linearGradient id="a" x2="1" gradientTransform="matrix(0 -43.3373 43.3373 0 201.9 45.6687)" gradientUnits="userSpaceOnUse">
  <stop stop-color="#006c90" offset="0"/>
  <stop stop-color="#00aae1" offset="1"/>
 </linearGradient>
 <path d="m45.668 8.56c0-3.438-2.79-6.228-6.228-6.228h-30.88c-3.438 0-6.228 2.79-6.228 6.228v30.88c0 3.438 2.79 6.228 6.228 6.228h30.88c3.438 0 6.228-2.79 6.228-6.228z" fill="url(#a)"/>
 <g fill="none" stroke="#cff0f5" stroke-width="4">
  <path d="m24 27c-6.668 0-9.739-2.731-10-7s4.773-9 10-9 10.261 4.731 10 9-3.332 7-10 7z"/>
  <path d="m19 32h-5s.145 6 10 6 10-6 10-6v-12"/>
 </g>
</svg>
