<svg style="clip-rule:evenodd;fill-rule:evenodd;stroke-linejoin:round;stroke-miterlimit:2" version="1.1" viewBox="0 0 48 48" xmlns="http://www.w3.org/2000/svg">
 <path d="m24 1.5c12.427 0 22.5 10.073 22.5 22.5s-10.073 22.5-22.5 22.5-22.5-10.073-22.5-22.5 10.073-22.5 22.5-22.5z" style="fill-rule:nonzero;fill:url(#_Linear1)"/>
 <path d="m24 8.898c-2.78 0-5.033 2.254-5.033 5.034 0 1.497 0.663 2.825 1.697 3.746h-0.02l3.356 3.356 3.356-3.356h-0.023c1.036-0.922 1.701-2.25 1.701-3.746 0-2.785-2.254-5.034-5.034-5.034zm-10.067 10.068c-2.149-0.033-4.201 1.474-4.808 3.536-0.642 1.98 0.106 4.31 1.796 5.532 1.658 1.282 4.13 1.335 5.837 0.118 0.345-0.22 0.689-0.579 0.944-0.819 1.111-1.111 2.221-2.222 3.332-3.333-1.118-1.119-2.237-2.237-3.355-3.356-0.228-0.204-0.555-0.554-0.869-0.757-0.833-0.596-1.852-0.924-2.877-0.921zm20.135 0c-1.497 0-2.825 0.664-3.746 1.698v-0.02l-3.356 3.356 3.356 3.356v-0.023c0.922 1.036 2.251 1.701 3.746 1.701 2.785 0 5.034-2.254 5.034-5.034s-2.254-5.034-5.034-5.034zm-10.068 8l-3.356 3.356h0.023c-1.035 0.922-1.7 2.25-1.7 3.746 0 2.785 2.253 5.034 5.033 5.034s5.034-2.254 5.034-5.034c0-1.497-0.664-2.825-1.697-3.746h0.019l-3.356-3.356z" style="fill-rule:nonzero;fill:#de4000"/>
 <defs>
  <linearGradient id="_Linear1" x2="1" gradientTransform="matrix(-.17469 -44.2838 44.2838 -.17469 23.3187 46.168)" gradientUnits="userSpaceOnUse">
   <stop style="stop-color:#ccc" offset="0"/>
   <stop style="stop-color:#f9f9f9" offset="1"/>
  </linearGradient>
 </defs>
</svg>
