<svg clip-rule="evenodd" fill-rule="evenodd" stroke-linejoin="round" stroke-miterlimit="2" viewBox="0 0 48 48" xmlns="http://www.w3.org/2000/svg">
 <linearGradient id="a" x2="1" gradientTransform="matrix(.715061 49.5008 -49.5008 .715061 -53.7372 .642361)" gradientUnits="userSpaceOnUse">
  <stop stop-color="#8d3aff" offset="0"/>
  <stop stop-color="#ff3680" offset="1"/>
 </linearGradient>
 <circle cx="24" cy="24" r="22.764" fill="url(#a)"/>
 <path d="m19.701 19.399v14.296c.014.568-.142 1.13-.456 1.613-.408.629-1.05 1.069-1.785 1.226-.569.121-1.169.248-1.739.369-.733.156-1.5.014-2.129-.394-.629-.41-1.069-1.052-1.226-1.785-.023-.11-.047-.22-.069-.328-.156-.735-.014-1.501.394-2.129.41-.63 1.051-1.071 1.785-1.227.57-.12 1.17-.248 1.739-.369.079-.017.157-.03.236-.04v-.01s.423-.089.861-.183c.552-.117.947-.604.947-1.168v-14.539c0-.567.399-1.057.955-1.17 2.551-.52 9.513-1.942 12.28-2.506.284-.058.579.014.803.197.225.184.356.457.356.746l.046 19.048c.008.555-.148 1.106-.456 1.579-.409.629-1.05 1.07-1.785 1.226-.569.121-1.169.248-1.739.369-.734.156-1.5.014-2.129-.394-.63-.41-1.07-1.052-1.226-1.785-.023-.11-.047-.219-.07-.328-.155-.734-.013-1.5.395-2.129.41-.629 1.052-1.071 1.785-1.226.57-.121 1.17-.249 1.739-.37.09-.018.182-.034.273-.044l.802-.161c.557-.113.958-.604.958-1.171v-9.576zm11.545-3.537v-1.053c0-.244-.109-.474-.298-.629-.188-.154-.436-.215-.674-.167-2.181.437-7.444 1.494-9.614 1.93-.558.111-.959.602-.959 1.171v1.112z" fill="#fff" fill-opacity=".77"/>
</svg>
