<svg style="clip-rule:evenodd;fill-rule:evenodd;stroke-linejoin:round;stroke-miterlimit:2" version="1.1" viewBox="0 0 48 48" xmlns="http://www.w3.org/2000/svg">
 <path d="m28.646 18.236v-3.484c0-0.643 0.518-1.161 1.161-1.161 0.644 0 1.162 0.518 1.162 1.161v3.484h2.323c0 9.292 6.968 11.615 6.968 13.938v4.646s0 4.646-4.645 4.646h-23.23c-4.645 0-4.645-4.646-4.645-4.646v-4.646c0-2.323 6.968-4.646 6.968-13.938h2.323v-3.484c0-0.643 0.518-1.161 1.162-1.161 0.643 0 1.161 0.518 1.161 1.161v3.484h9.292zm-4.646-12.244c-13.232 0-18.904 3.78-18.904 7.561s1.891 5.671 1.891 5.671l7.561-3.781 1.891-3.78s1.89-1.891 7.561-1.891 7.561 1.891 7.561 1.891l1.891 3.78 7.561 3.781s1.891-1.89 1.891-5.671-5.672-7.561-18.904-7.561z" style="fill:url(#_Linear1)"/>
 <path d="m24 22.882c-3.823 0-6.969 3.146-6.969 6.969s3.146 6.969 6.969 6.969c0.748-2e-3 1.491-0.125 2.2-0.363l-0.735-2.205c-0.472 0.16-0.967 0.242-1.465 0.245-2.549 0-4.646-2.097-4.646-4.646s2.097-4.646 4.646-4.646 4.646 2.097 4.646 4.646c-2e-3 0.918-0.275 1.815-0.785 2.577l1.933 1.284c0.764-1.143 1.172-2.486 1.175-3.861 0-3.823-3.146-6.969-6.969-6.969z" style="fill-rule:nonzero;fill:#fff"/>
 <defs>
  <linearGradient id="_Linear1" x2="1" gradientTransform="matrix(-.355505 -35.4725 35.4725 -.355505 24.8337 41.4658)" gradientUnits="userSpaceOnUse">
   <stop style="stop-color:#a20000" offset="0"/>
   <stop style="stop-color:#c2352a" offset="1"/>
  </linearGradient>
 </defs>
</svg>
