
<svg style="clip-rule:evenodd;fill-rule:evenodd;stroke-linecap:round" version="1.1" viewBox="0 0 48 48" xmlns="http://www.w3.org/2000/svg">
 <rect x="4" y="3" width="40" height="10" style="fill:url(#_Linear1)"/>
 <path d="M4,3L4,30L7.5,5.5L4,3Z" style="fill-rule:nonzero;fill:url(#_Linear2)"/>
 <path d="m44 3v5l-3.5-2.5 3.5-2.5z" style="fill-rule:nonzero;fill:url(#_Linear3)"/>
 <path d="M7.5,5.5L15.2,11L4,11L7.5,5.5Z" style="fill-opacity:.08;fill-rule:nonzero"/>
 <path d="m46 9h-44v34c0 1.656 1.344 3 3 3h38c1.656 0 3-1.344 3-3v-34z" style="fill:url(#_Linear4)"/>
 <path d="m46 9h-5.5v-3.5l5.5 3.5z" style="fill-rule:nonzero;fill:url(#_Linear5)"/>
 <path d="m7.5 5.5l-5.5 3.5h5.5v-3.5z" style="fill-rule:nonzero;fill:url(#_Linear6)"/>
 <circle cx="14" cy="14" r="2" style="fill-opacity:.3"/>
 <circle cx="34" cy="14" r="2" style="fill-opacity:.3"/>
 <path d="m34 13c0-5.486-4.514-10-10-10s-10 4.514-10 10" style="fill:none;stroke-width:2.4px;stroke:url(#_Linear7)"/>
 <g transform="matrix(1.46989,0,0,1.46989,-11.2771,-10.7075)">
  <path d="m29.803 18.873c-3.761 0-4.466 5.356-2.35 5.356s6.111-5.356 2.35-5.356zm-5.998 0.668c-2.117 0.275-1.373 3.955-0.246 4.023 1.126 0.069 2.363-4.298 0.246-4.023zm-3.547 1.449c-0.093 0.01-0.193 0.034-0.299 0.078-1.701 0.702-0.26 3.601 0.693 3.407 0.894-0.183 0.998-3.633-0.394-3.485zm-2.643 2.266c-0.148-5e-3 -0.308 0.044-0.478 0.162-1.362 0.941 0.458 3.214 1.259 2.861 0.702-0.308 0.255-2.988-0.781-3.023zm7.776 1.74c-2.92-0.049-6.769 1.414-7.426 4.356-0.711 3.182 2.927 7.599 6.724 7.599 1.869 0 4.023-1.687 4.426-3.824 0.308-1.629-3.623-0.977-3.482 0.102 0.169 1.292-0.947 1.93-2.041 1.097-3.484-2.652 5.768-3.974 5.158-7.597-0.19-1.128-1.608-1.703-3.359-1.733z" style="fill-opacity:.8;fill-rule:nonzero;fill:white"/>
 </g>
 <defs>
  <linearGradient id="_Linear1" x2="1" gradientTransform="matrix(-.160535 -10 10 -.160535 34.9866 13)" gradientUnits="userSpaceOnUse">
   <stop style="stop-color:rgb(0,80,181)" offset="0"/>
   <stop style="stop-color:rgb(19,121,197)" offset="1"/>
  </linearGradient>
  <linearGradient id="_Linear2" x2="1" gradientTransform="matrix(3.5,0,0,3.5,4,5.5)" gradientUnits="userSpaceOnUse">
   <stop style="stop-color:rgb(0,80,181)" offset="0"/>
   <stop style="stop-color:rgb(19,121,197)" offset="1"/>
  </linearGradient>
  <linearGradient id="_Linear3" x2="1" gradientTransform="matrix(3.5,0,0,3.5,40.5,5.5)" gradientUnits="userSpaceOnUse">
   <stop style="stop-color:rgb(0,80,181)" offset="0"/>
   <stop style="stop-color:rgb(19,121,197)" offset="1"/>
  </linearGradient>
  <linearGradient id="_Linear4" x2="1" gradientTransform="matrix(.0802676 -37 37 .0802676 38.9197 46)" gradientUnits="userSpaceOnUse">
   <stop style="stop-color:rgb(0,80,181)" offset="0"/>
   <stop style="stop-color:rgb(56,154,229)" offset="1"/>
  </linearGradient>
  <linearGradient id="_Linear5" x2="1" gradientTransform="matrix(5.5,1,-1,5.5,40.5,8)" gradientUnits="userSpaceOnUse">
   <stop style="stop-color:rgb(2,138,242)" offset="0"/>
   <stop style="stop-color:rgb(0,80,181)" offset="1"/>
  </linearGradient>
  <linearGradient id="_Linear6" x2="1" gradientTransform="matrix(-5.5,1,-1,-5.5,7.5,8)" gradientUnits="userSpaceOnUse">
   <stop style="stop-color:rgb(5,137,236)" offset="0"/>
   <stop style="stop-color:rgb(0,80,181)" offset="1"/>
  </linearGradient>
  <linearGradient id="_Linear7" x2="1" gradientTransform="matrix(8.28377e-16,13.5284,-13.5284,8.28377e-16,24,1.88294)" gradientUnits="userSpaceOnUse">
   <stop style="stop-color:rgb(105,192,248)" offset="0"/>
   <stop style="stop-color:rgb(0,114,209)" offset="1"/>
  </linearGradient>
 </defs>
</svg>
