<svg style="clip-rule:evenodd;fill-rule:evenodd;stroke-linejoin:round;stroke-miterlimit:2" version="1.1" viewBox="0 0 48 48" xmlns="http://www.w3.org/2000/svg">
 <circle cx="24" cy="24" r="22.764" style="fill:url(#_Linear1)"/>
 <path d="m24 14.679c0 1.715-1.392 3.107-3.107 3.107s-3.107-1.392-3.107-3.107 1.392-3.107 3.107-3.107 3.107 1.392 3.107 3.107m-6.214 0c0 1.715-1.392 3.107-3.107 3.107s-3.107-1.392-3.107-3.107 1.392-3.107 3.107-3.107 3.107 1.392 3.107 3.107m6.214 6.214c0 1.715-1.392 3.107-3.107 3.107s-3.107-1.392-3.107-3.107 1.392-3.107 3.107-3.107 3.107 1.392 3.107 3.107m12.428 6.214c0 1.715-1.392 3.107-3.107 3.107s-3.107-1.392-3.107-3.107 1.392-3.107 3.107-3.107 3.107 1.392 3.107 3.107m0 6.214c0 1.715-1.392 3.107-3.107 3.107s-3.107-1.392-3.107-3.107 1.392-3.107 3.107-3.107 3.107 1.392 3.107 3.107m-6.214 0c0 1.715-1.392 3.107-3.107 3.107s-3.107-1.392-3.107-3.107 1.392-3.107 3.107-3.107 3.107 1.392 3.107 3.107" style="fill-opacity:.81;fill-rule:nonzero"/>
 <path d="m36.428 14.679c0 1.715-1.392 3.107-3.107 3.107s-3.107-1.392-3.107-3.107 1.392-3.107 3.107-3.107 3.107 1.392 3.107 3.107m-6.214 6.214c0 1.715-1.392 3.107-3.107 3.107s-3.107-1.392-3.107-3.107 1.392-3.107 3.107-3.107 3.107 1.392 3.107 3.107m-6.214 6.214c0 1.715-1.392 3.107-3.107 3.107s-3.107-1.392-3.107-3.107 1.392-3.107 3.107-3.107 3.107 1.392 3.107 3.107m-6.214 6.214c0 1.715-1.392 3.107-3.107 3.107s-3.107-1.392-3.107-3.107 1.392-3.107 3.107-3.107 3.107 1.392 3.107 3.107" style="fill-opacity:.85;fill-rule:nonzero;fill:white"/>
 <defs>
  <linearGradient id="_Linear1" x2="1" gradientTransform="matrix(2.78779e-15,-45.5281,45.5281,2.78779e-15,192.818,46.764)" gradientUnits="userSpaceOnUse">
   <stop style="stop-color:rgb(0,103,131)" offset="0"/>
   <stop style="stop-color:rgb(32,204,255)" offset="1"/>
  </linearGradient>
 </defs>
</svg>
