<svg clip-rule="evenodd" fill-rule="evenodd" viewBox="0 0 48 48" xmlns="http://www.w3.org/2000/svg">
 <path d="m32.385 45.89h-23.833c-1.722 0-3.108-1.502-3.108-3.368v-33.676c0-1.866 1.386-3.368 3.108-3.368h34.195c1.722 0 3.108 1.502 3.108 3.368v23.573z" fill="#e4e4e4" fill-rule="nonzero"/>
 <path d="m8.811 7.723c-.62 0-1.122.503-1.122 1.123s.502 1.122 1.122 1.122 1.123-.502 1.123-1.122-.503-1.123-1.123-1.123zm3.368 0v2.245h26.941v-2.245zm30.309 0c-.62 0-1.123.503-1.123 1.123s.503 1.122 1.123 1.122 1.122-.502 1.122-1.122-.502-1.123-1.122-1.123zm-33.677 6.735c-.62 0-1.122.503-1.122 1.123s.502 1.122 1.122 1.122 1.123-.502 1.123-1.122-.503-1.123-1.123-1.123zm3.368 0v2.245h26.941v-2.245zm30.309 0c-.62 0-1.123.503-1.123 1.123s.503 1.122 1.123 1.122 1.122-.502 1.122-1.122-.502-1.123-1.122-1.123zm-33.677 6.736c-.62 0-1.122.502-1.122 1.122s.502 1.123 1.122 1.123 1.123-.503 1.123-1.123-.503-1.122-1.123-1.122zm3.368 0v2.245h26.941v-2.245zm30.309 0c-.62 0-1.123.502-1.123 1.122s.503 1.123 1.123 1.123 1.122-.503 1.122-1.123-.502-1.122-1.122-1.122zm-33.677 6.735c-.62 0-1.122.502-1.122 1.122s.502 1.123 1.122 1.123 1.123-.503 1.123-1.123-.503-1.122-1.123-1.122zm3.368 0v2.245h26.941v-2.245zm30.309 0c-.62 0-1.123.502-1.123 1.122s.503 1.123 1.123 1.123 1.122-.503 1.122-1.123-.502-1.122-1.122-1.122zm-33.677 6.735c-.62 0-1.122.503-1.122 1.123s.502 1.122 1.122 1.122 1.123-.502 1.123-1.122-.503-1.123-1.123-1.123zm3.368 0v2.245h22.451v-2.245zm-3.368 6.735c-.62 0-1.122.503-1.122 1.123s.502 1.122 1.122 1.122 1.123-.502 1.123-1.122-.503-1.123-1.123-1.123zm3.368 0v2.245h21.328v-2.245z" fill="#b0b0b0" fill-rule="nonzero"/>
 <circle cx="24.527" cy="16.703" r="13.47" fill="#328fff" fill-opacity=".3"/>
 <path d="m35.494 32.419c-1.722 0-3.109 1.502-3.109 3.368v10.103l13.47-13.471z" fill="#fafafa" fill-rule="nonzero"/>
 <path d="m9.934 31.297 5.613-5.613" fill="none" stroke="#6e6e6e" stroke-width="2.25"/>
 <g fill-rule="nonzero">
  <path d="m9.528 29.053c-.668.02-1.303.3-1.768.779l-6.009 6.007c-.509.486-.797 1.159-.797 1.863 0 1.412 1.162 2.575 2.575 2.575.703 0 1.377-.288 1.862-.796l6.009-6.009c.498-.485.779-1.151.779-1.846 0-1.412-1.163-2.575-2.576-2.575-.025 0-.05.001-.075.002z" fill="#4f4f4f"/>
  <path d="m24.529 2.11c-8.049 0-14.595 6.546-14.595 14.596 0 8.049 6.546 14.591 14.595 14.591 8.05 0 14.591-6.542 14.591-14.591 0-8.05-6.541-14.596-14.591-14.596zm-2e-3 3.368c6.209 0 11.225 5.017 11.225 11.225 0 6.209-5.016 11.226-11.225 11.226s-11.225-5.017-11.225-11.226c0-6.208 5.016-11.225 11.225-11.225z" fill="#328fff"/>
 </g>
</svg>
