<svg clip-rule="evenodd" fill-rule="evenodd" stroke-linejoin="round" stroke-miterlimit="2" viewBox="0 0 48 48" xmlns="http://www.w3.org/2000/svg">
 <linearGradient id="a" x2="1" gradientTransform="matrix(-.2764 -45.528 45.528 -.2764 24.1382 46.764)" gradientUnits="userSpaceOnUse">
  <stop stop-color="#2a2d45" offset="0"/>
  <stop stop-color="#484b61" offset="1"/>
 </linearGradient>
 <linearGradient id="b" x2="1" gradientTransform="matrix(0 -26.9777 26.9777 0 23.8618 37.5782)" gradientUnits="userSpaceOnUse">
  <stop stop-color="#8790bb" offset="0"/>
  <stop stop-color="#9499b2" offset="1"/>
 </linearGradient>
 <path d="m24 1.236c-12.488 0-22.764 10.276-22.764 22.764s10.276 22.764 22.764 22.764 22.764-10.276 22.764-22.764-10.276-22.764-22.764-22.764z" fill="url(#a)" fill-rule="nonzero"/>
 <circle cx="24" cy="24" r="13.658" fill="url(#b)"/>
 <path d="m34.085 11.097c.552-.956.224-2.18-.732-2.732l-.479-.276c-.956-.552-2.18-.224-2.732.732l-8.244 14.279c-.552.956-.224 2.18.732 2.732l.479.276c.956.552 2.18.224 2.732-.732z" fill="#fff"/>
 <g fill="#9499b2">
  <path d="m25.138 3.374c0-.552-.448-1-1-1h-.276c-.552 0-1 .448-1 1v2.553c0 .552.448 1 1 1h.276c.552 0 1-.448 1-1z"/>
  <path d="m25.138 42.073c0-.552-.448-1-1-1h-.276c-.552 0-1 .448-1 1v2.553c0 .552.448 1 1 1h.276c.552 0 1-.448 1-1z"/>
  <path d="m44.626 25.138c.552 0 1-.448 1-1v-.276c0-.552-.448-1-1-1h-2.553c-.552 0-1 .448-1 1v.276c0 .552.448 1 1 1z"/>
  <path d="m5.927 25.138c.552 0 1-.448 1-1v-.276c0-.552-.448-1-1-1h-2.553c-.552 0-1 .448-1 1v.276c0 .552.448 1 1 1z"/>
 </g>
</svg>
