<svg style="clip-rule:evenodd;fill-rule:evenodd;stroke-linejoin:round;stroke-miterlimit:2" version="1.1" viewBox="0 0 48 48" xmlns="http://www.w3.org/2000/svg">
 <path d="m26.366 24.021c-0.061-0.505-0.253-0.965-0.547-1.349l2.024-12.563c0.075-0.468-0.225-0.914-0.686-1.02l-0.023-5e-3c-0.461-0.107-0.926 0.163-1.063 0.616l-3.688 12.179c-0.909 0.457-1.539 1.388-1.539 2.473 0 1.532 1.245 2.778 2.777 2.778 0.285 0 0.555-0.055 0.815-0.136l7.704 4.004c0.424 0.22 0.945 0.083 1.206-0.318l0.011-0.018c0.26-0.4 0.173-0.933-0.201-1.23l-6.79-5.411zm-4.117 0.331c0-0.757 0.616-1.372 1.372-1.372 0.757 0 1.373 0.615 1.373 1.372s-0.616 1.372-1.373 1.372c-0.756 0-1.372-0.615-1.372-1.372z" style="fill-rule:nonzero;fill:url(#_Linear1)"/>
 <circle cx="24" cy="24" r="22.764" style="fill:url(#_Linear2)"/>
 <path d="m26.366 24.021c-0.061-0.505-0.253-0.965-0.547-1.349l2.024-12.563c0.075-0.468-0.225-0.914-0.686-1.02l-0.023-5e-3c-0.461-0.107-0.926 0.163-1.063 0.616l-3.688 12.179c-0.909 0.457-1.539 1.388-1.539 2.473 0 1.532 1.245 2.778 2.777 2.778 0.285 0 0.555-0.055 0.815-0.136l7.704 4.004c0.424 0.22 0.945 0.083 1.206-0.318l0.011-0.018c0.26-0.4 0.173-0.933-0.201-1.23l-6.79-5.411zm-4.117 0.331c0-0.757 0.616-1.372 1.372-1.372 0.757 0 1.373 0.615 1.373 1.372s-0.616 1.372-1.373 1.372c-0.756 0-1.372-0.615-1.372-1.372z" style="fill-rule:nonzero;fill:url(#_Linear1)"/>
 <path d="m23.873 41.111v5.753h0.2v-5.753h-0.2zm17.942-16.985h5.753v-0.2h-5.753v0.2zm-34.926-0.226h-5.753v0.2h5.753v-0.2zm17.211-17.011v-5.753h-0.2v5.753h0.2z" style="fill:white"/>
 <path d="m26.434 46.684-0.224-2.135-0.099 0.01 0.224 2.135 0.099-0.01zm-4.769 0.01 0.224-2.135-0.099-0.01-0.224 2.135 0.099 0.01zm7.127-0.389-0.446-2.1-0.098 0.021 0.446 2.1 0.098-0.021zm-9.486 0.021 0.446-2.1-0.098-0.021-0.446 2.1 0.098 0.021zm-2.308-0.613 0.663-2.042-0.095-0.031-0.663 2.042 0.095 0.031zm14.099-0.031-0.663-2.042-0.095 0.031 0.663 2.042 0.095-0.031zm-16.331-0.82 0.874-1.961-0.092-0.041-0.873 1.961 0.091 0.041zm18.559-0.041-0.873-1.961-0.092 0.041 0.874 1.961 0.091-0.041zm4.125-2.393-1.262-1.737-0.081 0.058 1.262 1.737 0.081-0.058zm-26.819 0.058 1.262-1.737-0.081-0.058-1.262 1.737 0.081 0.058zm28.672-1.565-1.437-1.596-0.074 0.067 1.436 1.596 0.075-0.067zm-30.531 0.067 1.436-1.596-0.074-0.067-1.437 1.596 0.075 0.067zm-1.693-1.685 1.596-1.437-0.067-0.074-1.596 1.436 0.067 0.075zm33.909-0.075-1.596-1.436-0.067 0.074 1.596 1.437 0.067-0.075zm1.498-1.859-1.737-1.262-0.058 0.081 1.737 1.262 0.058-0.081zm-36.914 0.081 1.737-1.262-0.058-0.081-1.737 1.262 0.058 0.081zm39.29-4.216-1.961-0.874-0.041 0.092 1.961 0.873 0.041-0.091zm-41.683 0.091 1.961-0.873-0.041-0.092-1.961 0.874 0.041 0.091zm42.534-2.323-2.042-0.663-0.031 0.095 2.042 0.663 0.031-0.095zm-43.395 0.095 2.042-0.663-0.031-0.095-2.042 0.663 0.031 0.095zm44.008-2.403-2.1-0.446-0.021 0.098 2.1 0.446 0.021-0.098zm-44.631 0.098 2.1-0.446-0.021-0.098-2.1 0.446 0.021 0.098zm44.999-2.457-2.135-0.224-0.01 0.099 2.135 0.224 0.01-0.099zm-45.378 0.099 2.135-0.224-0.01-0.099-2.135 0.224 0.01 0.099zm45.368-4.868-2.135 0.224 0.01 0.099 2.135-0.224-0.01-0.099zm-45.378 0.099 2.135 0.224 0.01-0.099-2.135-0.224-0.01 0.099zm44.999-2.457-2.1 0.446 0.021 0.098 2.1-0.446-0.021-0.098zm-44.631 0.098 2.1 0.446 0.021-0.098-2.1-0.446-0.021 0.098zm44.008-2.403-2.042 0.663 0.031 0.095 2.042-0.663-0.031-0.095zm-43.395 0.095 2.042 0.663 0.031-0.095-2.042-0.663-0.031 0.095zm42.534-2.323-1.961 0.873 0.041 0.092 1.961-0.874-0.041-0.091zm-41.683 0.091 1.961 0.874 0.041-0.092-1.961-0.873-0.041 0.091zm39.29-4.216-1.737 1.262 0.058 0.081 1.737-1.262-0.058-0.081zm-36.914 0.081 1.737 1.262 0.058-0.081-1.737-1.262-0.058 0.081zm1.498-1.859 1.596 1.436 0.067-0.074-1.596-1.437-0.067 0.075zm33.909-0.075-1.596 1.437 0.067 0.074 1.596-1.436-0.067-0.075zm-32.224-1.618 1.437 1.596 0.074-0.067-1.436-1.596-0.075 0.067zm30.531-0.067-1.436 1.596 0.074 0.067 1.437-1.596-0.075-0.067zm-1.859-1.498-1.262 1.737 0.081 0.058 1.262-1.737-0.081-0.058zm-26.819 0.058 1.262 1.737 0.081-0.058-1.262-1.737-0.081 0.058zm4.125-2.393 0.873 1.961 0.092-0.041-0.874-1.961-0.091 0.041zm18.559-0.041-0.874 1.961 0.092 0.041 0.873-1.961-0.091-0.041zm-2.232-0.851-0.663 2.042 0.095 0.031 0.663-2.042-0.095-0.031zm-14.099 0.031 0.663 2.042 0.095-0.031-0.663-2.042-0.095 0.031zm11.791-0.644-0.446 2.1 0.098 0.021 0.446-2.1-0.098-0.021zm-9.486 0.021 0.446 2.1 0.098-0.021-0.446-2.1-0.098 0.021zm7.127-0.389-0.224 2.135 0.099 0.01 0.224-2.135-0.099-0.01zm-4.769 0.01 0.224 2.135 0.099-0.01-0.224-2.135-0.099 0.01z" style="fill:white"/>
 <path d="m24.774 46.731-0.037-1.172-0.1 3e-3 0.037 1.172 0.1-3e-3zm-1.563 0 0.043-1.172-0.099-4e-3 -0.044 1.172 0.1 4e-3zm2.356-0.041-0.078-1.17-0.1 7e-3 0.078 1.17 0.1-7e-3zm-3.149-1e-3 0.085-1.17-0.1-7e-3 -0.084 1.17 0.099 7e-3zm4.704-0.16-0.159-1.162-0.099 0.013 0.159 1.163 0.099-0.014zm-6.258-2e-3 0.164-1.161-0.099-0.014-0.164 1.161 0.099 0.014zm7.042-0.121-0.199-1.155-0.098 0.017 0.199 1.155 0.098-0.017zm-7.826-2e-3 0.204-1.155-0.098-0.017-0.205 1.154 0.099 0.018zm9.356-0.319-0.278-1.139-0.097 0.023 0.278 1.14 0.097-0.024zm-10.886-3e-3 0.284-1.138-0.097-0.024-0.284 1.138 0.097 0.024zm11.653-0.2-0.317-1.129-0.096 0.027 0.317 1.129 0.096-0.027zm-12.42-4e-3 0.323-1.127-0.096-0.028-0.323 1.128 0.096 0.027zm-1.531-0.494 0.402-1.102-0.094-0.034-0.402 1.101 0.094 0.035zm15.61-0.042-0.403-1.101-0.094 0.034 0.403 1.102 0.094-0.035zm-16.352-0.242 0.44-1.087-0.092-0.037-0.441 1.087 0.093 0.037zm17.092-0.045-0.442-1.087-0.092 0.038 0.441 1.087 0.093-0.038zm-18.519-0.587 0.513-1.054-0.09-0.044-0.513 1.054 0.09 0.044zm19.965-0.064-0.516-1.053-0.089 0.044 0.515 1.053 0.09-0.044zm-20.674-0.294 0.551-1.036-0.089-0.047-0.55 1.036 0.088 0.047zm21.38-0.069-0.552-1.034-0.088 0.047 0.552 1.034 0.088-0.047zm1.338-0.777-0.621-0.995-0.085 0.053 0.621 0.995 0.085-0.053zm-24.209-0.016 0.627-0.991-0.085-0.054-0.627 0.991 0.085 0.054zm24.874-0.418-0.656-0.973-0.083 0.056 0.656 0.973 0.083-0.056zm-25.539-0.017 0.662-0.969-0.083-0.056-0.661 0.969 0.082 0.056zm26.823-0.92-0.722-0.924-0.079 0.061 0.722 0.925 0.079-0.062zm-28.053 0.023 0.725-0.922-0.079-0.062-0.724 0.922 0.078 0.062zm28.669-0.524-0.754-0.898-0.077 0.064 0.754 0.898 0.077-0.064zm-29.285 0.024 0.756-0.896-0.076-0.065-0.757 0.896 0.077 0.065zm-1.133-1.018 0.815-0.844-0.072-0.069-0.815 0.844 0.072 0.069zm31.62-0.094-0.816-0.843-0.072 0.07 0.816 0.842 0.072-0.069zm-32.182-0.466 0.843-0.815-0.069-0.072-0.844 0.815 0.07 0.072zm32.741-0.098-0.845-0.813-0.069 0.072 0.845 0.813 0.069-0.072zm-33.765-1.029 0.897-0.757-0.065-0.076-0.896 0.756 0.064 0.077zm34.792-0.117-0.898-0.754-0.065 0.076 0.898 0.755 0.065-0.077zm-35.294-0.498 0.922-0.725-0.062-0.078-0.922 0.725 0.062 0.078zm35.792-0.119-0.923-0.723-0.062 0.079 0.924 0.722 0.061-0.078zm0.904-1.245-0.97-0.659-0.056 0.083 0.97 0.658 0.056-0.082zm-37.638 0.082 0.97-0.659-0.056-0.082-0.97 0.658 0.056 0.083zm38.071-0.748-0.993-0.624-0.053 0.084 0.993 0.625 0.053-0.085zm-38.507 0.084 0.993-0.624-0.053-0.085-0.993 0.625 0.053 0.084zm39.279-1.415-1.033-0.556-0.048 0.088 1.033 0.556 0.048-0.088zm-40.081 0.042 1.034-0.554-0.047-0.088-1.034 0.554 0.047 0.088zm40.443-0.748-1.052-0.52-0.044 0.09 1.052 0.519 0.044-0.089zm-40.807 0.042 1.053-0.517-0.044-0.09-1.053 0.517 0.044 0.09zm41.438-1.445-1.084-0.448-0.038 0.093 1.084 0.447 0.038-0.092zm-42.092-5e-3 1.086-0.442-0.038-0.093-1.086 0.443 0.038 0.092zm42.38-0.735-1.099-0.409-0.035 0.094 1.1 0.409 0.034-0.094zm-42.668-5e-3 1.101-0.404-0.035-0.094-1.101 0.404 0.035 0.094zm43.153-1.455-1.125-0.334-0.028 0.096 1.124 0.333 0.029-0.095zm-43.652-0.055 1.127-0.326-0.028-0.096-1.127 0.326 0.028 0.096zm43.863-0.711-1.136-0.294-0.025 0.097 1.136 0.294 0.025-0.097zm-44.072-0.055 1.137-0.287-0.024-0.097-1.137 0.287 0.024 0.097zm44.44-1.646-1.154-0.207-0.018 0.098 1.155 0.207 0.017-0.098zm-44.778 0.091 1.155-0.206-0.018-0.098-1.154 0.206 0.017 0.098zm44.903-0.875-1.161-0.167-0.014 0.099 1.16 0.167 0.015-0.099zm-45.03 0.092 1.161-0.166-0.015-0.099-1.161 0.166 0.015 0.099zm45.194-1.643-1.169-0.086-8e-3 0.1 1.17 0.086 7e-3 -0.1zm-45.368 0.061 1.17-0.084-7e-3 -0.1-1.17 0.085 7e-3 0.099zm45.411-0.854-1.172-0.045-4e-3 0.1 1.172 0.045 4e-3 -0.1zm-45.456 0.062 1.172-0.044-3e-3 -0.1-1.172 0.044 3e-3 0.1zm-7e-3 -1.591 1.173 0.039 3e-3 -0.1-1.172-0.039-4e-3 0.1zm45.463-0.126-1.172 0.04 4e-3 0.1 1.172-0.04-4e-3 -0.1zm-45.424-0.667 1.17 0.08 7e-3 -0.1-1.171-0.08-6e-3 0.1zm45.382-0.126-1.17 0.081 7e-3 0.1 1.17-0.081-7e-3 -0.1zm-0.159-1.513-1.162 0.158 0.013 0.1 1.162-0.159-0.013-0.099zm-45.064 0.056 1.162 0.161 0.014-0.099-1.162-0.161-0.014 0.099zm44.941-0.841-1.156 0.2 0.017 0.098 1.156-0.199-0.017-0.099zm-44.82 0.057 1.156 0.201 0.017-0.098-1.155-0.202-0.018 0.099zm0.325-1.558 1.138 0.282 0.024-0.097-1.138-0.282-0.024 0.097zm44.151-0.119-1.139 0.283 0.025 0.097 1.138-0.283-0.024-0.097zm-43.949-0.648 1.128 0.321 0.028-0.096-1.128-0.321-0.028 0.096zm43.742-0.118-1.128 0.322 0.028 0.096 1.128-0.322-0.028-0.096zm-0.483-1.483-1.103 0.399 0.034 0.094 1.103-0.399-0.034-0.094zm-42.773 0.086 1.103 0.399 0.034-0.094-1.103-0.399-0.034 0.094zm42.488-0.827-1.088 0.437 0.037 0.093 1.089-0.437-0.038-0.093zm-42.206 0.085 1.088 0.437 0.037-0.092-1.088-0.438-0.037 0.093zm41.573-1.51-1.056 0.511 0.043 0.09 1.056-0.511-0.043-0.09zm-40.932 0.054 1.055 0.513 0.044-0.09-1.055-0.513-0.044 0.09zm40.572-0.761-1.037 0.547 0.046 0.088 1.038-0.547-0.047-0.088zm-40.214 0.052 1.037 0.549 0.046-0.088-1.036-0.549-0.047 0.088zm39.436-1.404-0.997 0.617 0.053 0.085 0.997-0.617-0.053-0.085zm-38.645 0.024 0.995 0.62 0.053-0.085-0.995-0.62-0.053 0.085zm38.215-0.691-0.976 0.652 0.056 0.083 0.975-0.652-0.055-0.083zm-37.785 0.024 0.973 0.654 0.056-0.083-0.973-0.654-0.056 0.083zm36.872-1.288-0.929 0.717 0.062 0.079 0.928-0.717-0.061-0.079zm-35.942-3e-3 0.925 0.721 0.062-0.079-0.925-0.721-0.062 0.079zm35.444-0.616-0.902 0.749 0.063 0.077 0.903-0.749-0.064-0.077zm-34.946-2e-3 0.899 0.753 0.064-0.077-0.899-0.753-0.064 0.077zm33.908-1.161-0.85 0.809 0.069 0.073 0.85-0.809-0.069-0.073zm-32.847-0.025 0.844 0.814 0.069-0.072-0.844-0.814-0.069 0.072zm32.288-0.539-0.821 0.838 0.072 0.07 0.82-0.838-0.071-0.07zm-31.729-0.024 0.816 0.843 0.072-0.07-0.816-0.843-0.072 0.07zm30.576-1.025-0.761 0.892 0.076 0.065 0.761-0.892-0.076-0.065zm-29.397-0.043 0.755 0.897 0.076-0.064-0.755-0.898-0.076 0.065zm28.783-0.461-0.73 0.919 0.079 0.062 0.729-0.918-0.078-0.063zm-28.168-0.041 0.723 0.924 0.079-0.062-0.723-0.923-0.079 0.061zm26.813-0.951-0.66 0.969 0.083 0.056 0.659-0.969-0.082-0.056zm-25.528 0.012 0.656 0.972 0.083-0.056-0.657-0.972-0.082 0.056zm24.863-0.446-0.626 0.992 0.085 0.053 0.625-0.992-0.084-0.053zm-24.199 0.012 0.622 0.994 0.085-0.053-0.622-0.994-0.085 0.053zm1.376-0.799 0.551 1.035 0.088-0.047-0.551-1.035-0.088 0.047zm21.368-0.053-0.551 1.036 0.088 0.047 0.551-1.036-0.088-0.047zm-20.662-0.31 0.515 1.054 0.089-0.044-0.514-1.054-0.09 0.044zm19.954-0.049-0.514 1.054 0.089 0.044 0.515-1.054-0.09-0.044zm-1.4-0.621-0.442 1.086 0.093 0.038 0.442-1.087-0.093-0.037zm-17.103 0.019 0.44 1.088 0.093-0.038-0.44-1.087-0.093 0.037zm16.362-0.304-0.404 1.101 0.094 0.034 0.404-1.101-0.094-0.034zm-15.621 0.018 0.401 1.102 0.094-0.034-0.401-1.102-0.094 0.034zm14.166-0.493-0.329 1.125 0.096 0.028 0.329-1.125-0.096-0.028zm-12.655-3e-3 0.324 1.128 0.096-0.028-0.323-1.127-0.097 0.027zm11.888-0.205-0.289 1.136 0.097 0.025 0.289-1.136-0.097-0.025zm-11.121-2e-3 0.284 1.138 0.097-0.024-0.284-1.138-0.097 0.024zm9.625-0.323-0.212 1.154 0.098 0.018 0.212-1.153-0.098-0.019zm-8.07-0.011 0.204 1.155 0.098-0.018-0.203-1.155-0.099 0.018zm7.287-0.117-0.172 1.16 0.099 0.015 0.171-1.16-0.098-0.015zm-6.503-9e-3 0.163 1.161 0.099-0.014-0.163-1.161-0.099 0.014zm4.981-0.161-0.094 1.169 0.1 8e-3 0.093-1.169-0.099-8e-3zm-3.399-9e-3 0.081 1.17 0.1-7e-3 -0.082-1.17-0.099 7e-3zm2.606-0.039-0.052 1.172 0.1 5e-3 0.052-1.172-0.1-5e-3zm-1.814-5e-3 0.041 1.172 0.1-3e-3 -0.041-1.172-0.1 3e-3z" style="fill:white"/>
 <path d="m14.607 40.171-2.032 3.519 0.087 0.05 2.032-3.519-0.087-0.05zm18.74 0.094 1.996 3.457 0.087-0.05-1.996-3.457-0.087 0.05zm-25.584-6.931-3.457 1.996 0.05 0.086 3.457-1.996-0.05-0.086zm32.43 0.086 3.458 1.996 0.05-0.086-3.458-1.996-0.05 0.086zm-32.402-18.829-3.457-1.996-0.05 0.086 3.457 1.996 0.05-0.086zm32.503 0.047 3.457-1.996-0.05-0.086-3.457 1.996 0.05 0.086zm-25.602-6.874-1.996-3.457-0.087 0.05 1.996 3.457 0.087-0.05zm18.717 0.05 1.996-3.457-0.087-0.05-1.996 3.457 0.087 0.05z" style="fill:white"/>
 <path d="m17.06 37.479c-0.108 0-0.174-0.053-0.2-0.157-0.049-0.186-0.102-0.53-0.161-1.036-0.175-0.056-0.345-0.126-0.509-0.212l-0.769 0.597c-0.048 0.037-0.097 0.055-0.145 0.055-0.082 0-0.257-0.133-0.526-0.399-0.27-0.266-0.453-0.464-0.55-0.598-0.033-0.049-0.051-0.093-0.051-0.13 0-0.044 0.02-0.089 0.057-0.133 0.249-0.301 0.448-0.558 0.597-0.77-0.093-0.171-0.166-0.343-0.218-0.514l-1.038-0.155c-0.041-7e-3 -0.077-0.032-0.106-0.072-0.03-0.041-0.043-0.083-0.043-0.128v-0.995h-1.545c-0.151 0-0.242-0.073-0.279-0.218-0.067-0.259-0.142-0.742-0.225-1.448-0.244-0.078-0.481-0.177-0.709-0.297l-1.075 0.834c-0.068 0.052-0.135 0.077-0.202 0.077-0.115 0-0.36-0.184-0.736-0.555-0.377-0.371-0.631-0.652-0.766-0.838-0.047-0.068-0.071-0.127-0.071-0.179 0-0.062 0.027-0.124 0.079-0.186 0.348-0.421 0.624-0.778 0.832-1.074-0.13-0.239-0.231-0.478-0.304-0.716l-1.446-0.218c-0.058-0.011-0.108-0.045-0.15-0.102-0.041-0.057-0.062-0.117-0.062-0.179v-1.729c0-0.067 0.021-0.128 0.062-0.182 0.042-0.055 0.098-0.088 0.165-0.098l1.423-0.21c0.073-0.255 0.18-0.51 0.32-0.77-0.093-0.129-0.233-0.313-0.42-0.549s-0.319-0.409-0.396-0.518c-0.042-0.058-0.063-0.117-0.063-0.179 0-0.068 0.018-0.127 0.055-0.179 0.202-0.28 0.629-0.717 1.283-1.309 0.058-0.057 0.122-0.084 0.195-0.084 0.077 0 0.142 0.022 0.194 0.069l1.099 0.834c0.213-0.109 0.446-0.205 0.701-0.289l0.217-1.432c5e-3 -0.068 0.034-0.123 0.089-0.167 0.054-0.044 0.119-0.067 0.192-0.067h1.727c0.151 0 0.244 0.073 0.281 0.218 0.067 0.26 0.142 0.743 0.225 1.448 0.244 0.078 0.481 0.177 0.709 0.297l1.073-0.842c0.073-0.047 0.14-0.069 0.203-0.069 0.114 0 0.358 0.183 0.732 0.552 0.373 0.368 0.631 0.649 0.771 0.842 0.047 0.051 0.071 0.111 0.071 0.178 0 0.068-0.027 0.132-0.079 0.194-0.373 0.457-0.652 0.816-0.834 1.076 0.104 0.192 0.206 0.428 0.304 0.708l1.441 0.218c0.062 0.011 0.113 0.043 0.155 0.1 0.041 0.057 0.063 0.117 0.063 0.179v1.729c0 0.067-0.021 0.128-0.063 0.182-0.042 0.055-0.096 0.088-0.163 0.099l-1.425 0.217c-0.078 0.25-0.185 0.502-0.32 0.762 0.028 0.039 0.09 0.116 0.126 0.165l8e-3 -0.047c4e-3 -0.049 0.026-0.088 0.065-0.12s0.084-0.047 0.136-0.047h1.238c0.108 0 0.176 0.053 0.202 0.157 0.049 0.186 0.102 0.53 0.161 1.036 0.175 0.056 0.345 0.126 0.509 0.212l0.769-0.603c0.052-0.033 0.101-0.049 0.145-0.049 0.082 0 0.256 0.133 0.524 0.397s0.451 0.463 0.552 0.6c0.033 0.038 0.049 0.082 0.049 0.13s-0.018 0.095-0.055 0.139c-0.268 0.327-0.467 0.584-0.597 0.77 0.074 0.137 0.147 0.307 0.218 0.508l1.03 0.155c0.045 8e-3 0.082 0.032 0.112 0.073s0.045 0.083 0.045 0.127v1.239c0 0.048-0.015 0.092-0.045 0.131s-0.068 0.063-0.116 0.071l-1.02 0.155c-0.056 0.178-0.133 0.361-0.23 0.547 0.067 0.093 0.169 0.224 0.302 0.393 0.134 0.169 0.227 0.293 0.283 0.371 0.03 0.041 0.045 0.083 0.045 0.127 0 0.052-0.013 0.094-0.039 0.124-0.134 0.19-0.441 0.505-0.921 0.948-0.044 0.037-0.091 0.055-0.139 0.055-0.056 0-0.1-0.016-0.133-0.049l-0.791-0.597c-0.153 0.078-0.321 0.147-0.503 0.206l-0.157 1.027c-4e-3 0.048-0.024 0.088-0.063 0.119-0.039 0.032-0.085 0.048-0.137 0.048h-1.238l-1e-3 -1e-3zm0.62-2.855c0.394 0 0.73-0.139 1.009-0.418 0.278-0.279 0.418-0.615 0.418-1.009s-0.14-0.732-0.418-1.011c-0.279-0.279-0.615-0.418-1.009-0.418s-0.732 0.139-1.011 0.418-0.418 0.617-0.418 1.011 0.139 0.73 0.418 1.009 0.617 0.418 1.011 0.418zm-3.778-2.289 0.677-0.098c0.052-0.182 0.127-0.367 0.228-0.553-0.067-0.093-0.167-0.224-0.301-0.393-0.082-0.104-0.121-0.16-0.174-0.229-0.086 0.033-0.16 0.074-0.251 0.104l-0.179 1.169zm-1.183-3.489c0.55 0 1.02-0.194 1.409-0.583s0.583-0.859 0.583-1.409-0.194-1.02-0.583-1.409-0.859-0.585-1.409-0.585c-0.551 0-1.02 0.196-1.41 0.585-0.389 0.389-0.584 0.859-0.584 1.409s0.195 1.02 0.584 1.409c0.39 0.389 0.86 0.583 1.41 0.583z" style="fill-rule:nonzero;fill:url(#_Linear4)"/>
 <defs>
  <linearGradient id="_Linear1" x2="1" gradientTransform="matrix(-.781909 -20.7189 20.7189 -.781909 215.183 22.5848)" gradientUnits="userSpaceOnUse">
   <stop style="stop-color:rgb(179,179,179)" offset="0"/>
   <stop style="stop-color:white" offset="1"/>
  </linearGradient>
  <linearGradient id="_Linear2" x2="1" gradientTransform="matrix(-.226965 -44.9046 44.9046 -.226965 24.227 46.527)" gradientUnits="userSpaceOnUse">
   <stop style="stop-color:rgb(30,32,35)" offset="0"/>
   <stop style="stop-color:rgb(64,68,71)" offset="1"/>
  </linearGradient>
  <linearGradient id="_Linear4" x2="1" gradientTransform="matrix(1.5257e-15,-24.9166,24.9166,1.5257e-15,535.484,35.5)" gradientUnits="userSpaceOnUse">
   <stop style="stop-color:rgb(179,179,179)" offset="0"/>
   <stop style="stop-color:white" offset="1"/>
  </linearGradient>
 </defs>
</svg>
