<svg style="clip-rule:evenodd;fill-rule:evenodd;stroke-linejoin:round;stroke-miterlimit:2" version="1.1" viewBox="0 0 48 48" xmlns="http://www.w3.org/2000/svg">
 <path d="m46 9.479c0-0.419-0.166-0.821-0.463-1.117-0.296-0.296-0.697-0.463-1.116-0.463h-40.842c-0.419 0-0.82 0.167-1.116 0.463-0.297 0.296-0.463 0.698-0.463 1.117v30.042c0 0.419 0.166 0.821 0.463 1.117 0.296 0.296 0.697 0.463 1.116 0.463h40.842c0.419 0 0.82-0.167 1.116-0.463 0.297-0.296 0.463-0.698 0.463-1.117v-30.042z" style="fill-opacity:.67"/>
 <path d="m46 9.086c0-0.58-0.23-1.136-0.64-1.546s-0.967-0.641-1.547-0.641h-39.626c-0.58 0-1.137 0.231-1.547 0.641s-0.64 0.966-0.64 1.546v28.828c0 0.58 0.23 1.136 0.64 1.546s0.967 0.641 1.547 0.641h39.626c0.58 0 1.137-0.231 1.547-0.641s0.64-0.966 0.64-1.546v-28.828z" style="fill:url(#_Linear1)"/>
 <path d="m33.655 22.317c-0.068-0.09-0.157-0.142-0.267-0.159l-2.325-0.356c-0.127-0.406-0.3-0.821-0.52-1.245 0.152-0.211 0.38-0.51 0.685-0.895 0.305-0.386 0.521-0.667 0.648-0.845 0.068-0.092 0.102-0.191 0.102-0.292 0-0.119-0.03-0.212-0.089-0.28-0.305-0.432-1.004-1.151-2.096-2.159-0.102-0.086-0.208-0.127-0.318-0.127-0.127 0-0.228 0.038-0.305 0.114l-1.803 1.359c-0.348-0.178-0.729-0.335-1.144-0.47l-0.355-2.337c-9e-3 -0.111-0.058-0.202-0.146-0.274-0.09-0.072-0.193-0.108-0.312-0.108h-2.82c-0.245 0-0.398 0.119-0.457 0.356-0.11 0.423-0.233 1.211-0.369 2.363-0.398 0.127-0.783 0.288-1.156 0.483l-1.753-1.36c-0.11-0.085-0.22-0.127-0.33-0.127-0.186 0-0.586 0.303-1.2 0.909-0.615 0.605-1.031 1.06-1.252 1.365-0.076 0.111-0.114 0.208-0.114 0.292 0 0.102 0.042 0.204 0.127 0.305 0.567 0.686 1.02 1.271 1.359 1.753-0.212 0.39-0.377 0.78-0.495 1.169l-2.363 0.356c-0.093 0.017-0.174 0.072-0.241 0.165-0.068 0.092-0.102 0.191-0.102 0.292v2.82c0 0.111 0.034 0.21 0.102 0.299 0.067 0.09 0.156 0.142 0.266 0.159l2.325 0.343c0.119 0.415 0.292 0.834 0.521 1.257-0.152 0.212-0.381 0.51-0.686 0.896-0.305 0.385-0.521 0.667-0.648 0.845-0.068 0.092-0.101 0.19-0.101 0.292 0 0.11 0.029 0.207 0.088 0.292 0.331 0.457 1.029 1.169 2.097 2.134 0.093 0.093 0.199 0.14 0.317 0.14 0.127 0 0.233-0.039 0.318-0.114l1.791-1.36c0.347 0.178 0.728 0.335 1.143 0.471l0.356 2.337c9e-3 0.11 0.057 0.201 0.146 0.273s0.193 0.108 0.311 0.108h2.821c0.245 0 0.398-0.119 0.457-0.356 0.11-0.423 0.233-1.21 0.368-2.362 0.398-0.127 0.784-0.288 1.156-0.483l1.754 1.372c0.118 0.076 0.228 0.114 0.33 0.114 0.186 0 0.584-0.3 1.194-0.902 0.61-0.601 1.029-1.059 1.257-1.372 0.077-0.085 0.115-0.182 0.115-0.292s-0.042-0.216-0.127-0.318c-0.61-0.745-1.063-1.329-1.36-1.753 0.17-0.313 0.335-0.698 0.496-1.156l2.35-0.355c0.101-0.017 0.186-0.072 0.254-0.166 0.068-0.093 0.101-0.19 0.101-0.292v-2.82c1e-3 -0.11-0.033-0.209-0.101-0.298zm-7.355 3.982c-0.635 0.635-1.402 0.953-2.3 0.953-0.897 0-1.664-0.318-2.299-0.953s-0.953-1.401-0.953-2.299 0.318-1.664 0.953-2.299 1.402-0.953 2.299-0.953c0.898 0 1.665 0.318 2.3 0.953s0.953 1.401 0.953 2.299-0.318 1.664-0.953 2.299z" style="fill-opacity:.85;fill-rule:nonzero;fill:#fff"/>
 <defs>
  <linearGradient id="_Linear1" x2="1" gradientTransform="matrix(2.09279e-15,-34.1778,34.1778,2.09279e-15,260.793,41.077)" gradientUnits="userSpaceOnUse">
   <stop style="stop-color:#566069" offset="0"/>
   <stop style="stop-color:#6c7884" offset="1"/>
  </linearGradient>
 </defs>
</svg>
