<svg style="clip-rule:evenodd;fill-rule:evenodd;stroke-linejoin:round;stroke-miterlimit:2" version="1.1" viewBox="0 0 48 48" xmlns="http://www.w3.org/2000/svg">
 <circle cx="24" cy="24" r="22.715" style="fill:url(#_Linear1)"/>
 <path d="m24 1.236c-12.488 0-22.764 10.276-22.764 22.764s10.276 22.764 22.764 22.764 22.764-10.276 22.764-22.764-10.276-22.764-22.764-22.764zm0 2.069c11.353 0 20.695 9.342 20.695 20.695s-9.342 20.695-20.695 20.695-20.695-9.342-20.695-20.695 9.342-20.695 20.695-20.695z" style="fill-rule:nonzero;fill:url(#_Linear2)"/>
 <path d="m31.62 21.634c-0.173-0.174-0.379-0.26-0.616-0.26s-0.442 0.086-0.616 0.26c-0.172 0.172-0.259 0.378-0.259 0.615v1.751c0 1.688-0.6 3.13-1.8 4.329-1.198 1.201-2.641 1.8-4.329 1.8s-3.13-0.599-4.33-1.8c-1.2-1.198-1.799-2.641-1.799-4.329v-1.751c0-0.237-0.087-0.443-0.259-0.615-0.174-0.174-0.379-0.26-0.616-0.26s-0.443 0.086-0.616 0.26c-0.174 0.172-0.259 0.378-0.259 0.615v1.751c0 2.016 0.672 3.768 2.017 5.26s3.007 2.346 4.987 2.565v1.806h-3.503c-0.237 0-0.442 0.086-0.616 0.26-0.172 0.173-0.259 0.379-0.259 0.616s0.087 0.441 0.259 0.615c0.174 0.173 0.379 0.26 0.616 0.26h8.756c0.237 0 0.442-0.087 0.615-0.26 0.173-0.174 0.26-0.378 0.26-0.615s-0.087-0.443-0.26-0.616c-0.173-0.174-0.378-0.26-0.615-0.26h-3.503v-1.806c1.98-0.219 3.642-1.073 4.987-2.565s2.018-3.244 2.018-5.26v-1.751c0-0.237-0.086-0.443-0.26-0.615zm-7.62 6.744c1.203 0 2.234-0.429 3.092-1.286 0.857-0.857 1.286-1.888 1.286-3.092v-7.004c0-1.204-0.428-2.235-1.286-3.092-0.858-0.858-1.889-1.286-3.092-1.286-1.204 0-2.234 0.428-3.092 1.286-0.858 0.857-1.286 1.888-1.286 3.092v7.004c0 1.204 0.429 2.235 1.286 3.092s1.888 1.286 3.092 1.286z" style="fill-opacity:.85;fill-rule:nonzero;fill:#fff"/>
 <defs>
  <linearGradient id="_Linear1" x2="1" gradientTransform="matrix(8.19705,-43.2792,43.2792,8.19705,111.656,62.4251)" gradientUnits="userSpaceOnUse">
   <stop style="stop-color:#9d0404" offset="0"/>
   <stop style="stop-color:#ff8080" offset="1"/>
  </linearGradient>
  <linearGradient id="_Linear2" x2="1" gradientTransform="matrix(13.4515,-41.1304,41.1304,13.4515,96.5602,70.5627)" gradientUnits="userSpaceOnUse">
   <stop style="stop-color:#ececec;stop-opacity:.58" offset="0"/>
   <stop style="stop-color:#f2f2f2;stop-opacity:.58" offset="1"/>
  </linearGradient>
 </defs>
</svg>
