<svg style="clip-rule:evenodd;fill-rule:evenodd;stroke-linejoin:round;stroke-miterlimit:2" version="1.1" viewBox="0 0 48 48" xmlns="http://www.w3.org/2000/svg">
 <circle cx="24" cy="24" r="21.953" style="fill:url(#_Linear1)"/>
 <path d="m24 2c-12.069 0-22 9.931-22 22s9.931 22 22 22 22-9.931 22-22-9.931-22-22-22zm0 2c10.972 0 20 9.028 20 20s-9.028 20-20 20-20-9.028-20-20 9.028-20 20-20z" style="fill-rule:nonzero;fill:url(#_Linear2)"/>
 <path d="m31.364 21.713c-0.167-0.168-0.366-0.251-0.595-0.251s-0.427 0.083-0.595 0.251c-0.167 0.167-0.251 0.366-0.251 0.595v1.692c0 1.631-0.58 3.025-1.739 4.184-1.158 1.16-2.553 1.739-4.184 1.739s-3.025-0.579-4.185-1.739c-1.159-1.158-1.738-2.553-1.738-4.184v-1.692c0-0.229-0.084-0.428-0.251-0.595-0.168-0.168-0.366-0.251-0.595-0.251s-0.428 0.083-0.595 0.251c-0.168 0.167-0.251 0.366-0.251 0.595v1.692c0 1.948 0.65 3.642 1.95 5.083 1.3 1.442 2.906 2.268 4.819 2.479v1.746h-3.385c-0.229 0-0.427 0.083-0.595 0.251-0.167 0.167-0.251 0.366-0.251 0.595s0.084 0.427 0.251 0.595c0.168 0.167 0.366 0.251 0.595 0.251h8.462c0.229 0 0.427-0.084 0.594-0.251 0.168-0.168 0.252-0.366 0.252-0.595s-0.084-0.428-0.252-0.595c-0.167-0.168-0.365-0.251-0.594-0.251h-3.385v-1.746c1.913-0.211 3.519-1.037 4.819-2.479 1.3-1.441 1.951-3.135 1.951-5.083v-1.692c0-0.229-0.084-0.428-0.252-0.595zm-7.364 6.518c1.163 0 2.159-0.415 2.988-1.243 0.828-0.828 1.243-1.824 1.243-2.988v-6.769c0-1.164-0.414-2.16-1.243-2.988-0.829-0.829-1.825-1.243-2.988-1.243-1.164 0-2.159 0.414-2.988 1.243-0.829 0.828-1.243 1.824-1.243 2.988v6.769c0 1.164 0.415 2.16 1.243 2.988s1.824 1.243 2.988 1.243z" style="fill-opacity:.85;fill-rule:nonzero;fill:#fff"/>
 <defs>
  <linearGradient id="_Linear1" x2="1" gradientTransform="matrix(7.92194,-41.8267,41.8267,7.92194,23.0945,44.9193)" gradientUnits="userSpaceOnUse">
   <stop style="stop-color:#9d0404" offset="0"/>
   <stop style="stop-color:#ff8080" offset="1"/>
  </linearGradient>
  <linearGradient id="_Linear2" x2="1" gradientTransform="matrix(13,-39.75,39.75,13,14.625,43)" gradientUnits="userSpaceOnUse">
   <stop style="stop-color:#ececec;stop-opacity:.58" offset="0"/>
   <stop style="stop-color:#f2f2f2;stop-opacity:.58" offset="1"/>
  </linearGradient>
 </defs>
</svg>
