<svg style="clip-rule:evenodd;fill-rule:evenodd;stroke-linejoin:round;stroke-miterlimit:2" version="1.1" viewBox="0 0 48 48" xmlns="http://www.w3.org/2000/svg">
 <circle cx="24.174" cy="23.921" r="22.685" style="fill:url(#_Linear1)"/>
 <circle cx="24.174" cy="23.921" r="21.045" style="fill:url(#_Linear2)"/>
 <path d="m24.063 10.667c-0.501-1e-3 -1.004 0.024-1.503 0.08-0.386 0.042-0.672 0.375-0.659 0.762 0.044 1.236-0.689 2.38-1.826 2.845-1.089 0.446-2.506 0.119-3.299-0.753-0.262-0.287-0.701-0.322-1.005-0.084-0.799 0.627-1.527 1.346-2.158 2.133-0.245 0.307-0.209 0.748 0.08 1.012 0.928 0.84 1.227 2.178 0.746 3.327-0.46 1.096-1.599 1.802-2.901 1.802-0.423-0.014-0.724 0.27-0.77 0.654-0.117 1.002-0.118 2.022-5e-3 3.032 0.041 0.376 0.492 0.656 0.874 0.656 1.16-0.03 2.273 0.688 2.741 1.826 0.465 1.136 0.165 2.459-0.747 3.295-0.284 0.262-0.318 0.7-0.078 1.005 0.62 0.788 1.33 1.506 2.109 2.132 0.306 0.246 0.749 0.214 1.014-0.078 0.797-0.882 2.224-1.208 3.323-0.747 1.15 0.481 1.875 1.644 1.803 2.893-0.023 0.393 0.266 0.733 0.655 0.777 0.51 0.06 1.021 0.09 1.534 0.09 0.489 0 0.978-0.028 1.465-0.082 0.387-0.043 0.672-0.374 0.659-0.763-0.044-1.235 0.69-2.378 1.825-2.843 1.096-0.448 2.507-0.118 3.301 0.753 0.262 0.287 0.698 0.319 1.005 0.082 0.798-0.625 1.523-1.341 2.157-2.131 0.246-0.305 0.211-0.75-0.079-1.014-0.929-0.839-1.231-2.176-0.748-3.324 0.453-1.082 1.549-1.807 2.728-1.807l0.166 5e-3c0.381 0.031 0.732-0.264 0.778-0.655 0.117-1.002 0.119-2.021 6e-3 -3.031h2e-3c-0.042-0.374-0.479-0.654-0.857-0.654-1.221 0-2.307-0.719-2.762-1.828-0.464-1.136-0.165-2.461 0.746-3.296 0.287-0.262 0.322-0.701 0.081-1.006-0.624-0.793-1.335-1.511-2.111-2.133-0.304-0.244-0.751-0.207-1.014 0.084-0.794 0.88-2.223 1.206-3.325 0.745-1.147-0.482-1.871-1.645-1.801-2.893 0.024-0.392-0.262-0.733-0.654-0.779-0.498-0.058-0.997-0.087-1.496-0.089zm4.62 6.126c2.922 0-0.183 4.159-1.826 4.159s-1.095-4.159 1.826-4.159zm-4.659 0.518c1.644-0.214 0.683 3.18-0.193 3.126-0.875-0.053-1.452-2.912 0.193-3.126zm-2.757 1.125c1.082-0.114 1.004 2.564 0.309 2.706-0.74 0.151-1.863-2.1-0.541-2.644 0.083-0.035 0.16-0.054 0.232-0.062zm-2.053 1.761c0.805 0.027 1.153 2.109 0.609 2.349-0.623 0.273-2.037-1.494-0.979-2.224 0.132-0.091 0.255-0.129 0.37-0.125zm6.043 1.35c1.36 0.023 2.459 0.471 2.606 1.347 0.474 2.814-6.711 3.841-4.005 5.902 0.85 0.647 1.718 0.152 1.586-0.852v-2e-3c-0.109-0.837 2.943-1.344 2.704-0.078-0.313 1.66-1.986 2.97-3.437 2.97-2.95 0-5.777-3.43-5.225-5.903 0.51-2.284 3.503-3.423 5.771-3.384z" style="fill:url(#_Linear3)"/>
 <defs>
  <linearGradient id="_Linear1" x2="1" gradientTransform="matrix(3.22345e-15,-52.643,52.643,3.22345e-15,34.9715,51.8084)" gradientUnits="userSpaceOnUse">
   <stop style="stop-color:#97a9b1" offset="0"/>
   <stop style="stop-color:#cfdce1" offset="1"/>
  </linearGradient>
  <linearGradient id="_Linear2" x2="1" gradientTransform="matrix(2.92759e-15,-47.8111,47.8111,2.92759e-15,200.646,46.6772)" gradientUnits="userSpaceOnUse">
   <stop style="stop-color:#002032" offset="0"/>
   <stop style="stop-color:#0054b8" offset="1"/>
  </linearGradient>
  <linearGradient id="_Linear3" x2="1" gradientTransform="matrix(1.89407e-15,-30.9326,30.9326,1.89407e-15,546.97,40.3826)" gradientUnits="userSpaceOnUse">
   <stop style="stop-color:#97a9b1" offset="0"/>
   <stop style="stop-color:#cfdce1" offset="1"/>
  </linearGradient>
 </defs>
</svg>
