<svg style="clip-rule:evenodd;fill-rule:evenodd;stroke-linejoin:round;stroke-miterlimit:2" version="1.1" viewBox="0 0 48 48" xmlns="http://www.w3.org/2000/svg">
 <circle cx="24" cy="24" r="22.764" style="fill:url(#_Linear1)"/>
 <circle cx="24" cy="24" r="20.65" style="fill:url(#_Linear2)"/>
 <path d="m26.366 24.021c-0.061-0.505-0.253-0.965-0.547-1.349l2.024-12.563c0.075-0.468-0.225-0.914-0.686-1.02l-0.023-5e-3c-0.461-0.107-0.926 0.163-1.063 0.616l-3.688 12.179c-0.909 0.457-1.539 1.388-1.539 2.473 0 1.532 1.245 2.778 2.777 2.778 0.285 0 0.555-0.055 0.815-0.136l7.704 4.004c0.424 0.22 0.945 0.083 1.206-0.318l0.011-0.018c0.26-0.4 0.173-0.933-0.201-1.23l-6.79-5.411zm-4.117 0.331c0-0.757 0.616-1.372 1.372-1.372 0.757 0 1.373 0.615 1.373 1.372s-0.616 1.372-1.373 1.372c-0.756 0-1.372-0.615-1.372-1.372z" style="fill-rule:nonzero;fill:url(#_Linear3)"/>
 <defs>
  <linearGradient id="_Linear1" x2="1" gradientTransform="matrix(2.78782e-15,-45.5286,45.5286,2.78782e-15,210.895,46.7643)" gradientUnits="userSpaceOnUse">
   <stop style="stop-color:#b3b3b3" offset="0"/>
   <stop style="stop-color:#fefefe" offset="1"/>
  </linearGradient>
  <linearGradient id="_Linear2" x2="1" gradientTransform="matrix(2.52891e-15,-41.3003,41.3003,2.52891e-15,193.538,44.6501)" gradientUnits="userSpaceOnUse">
   <stop style="stop-color:#2c2e31" offset="0"/>
   <stop style="stop-color:#404447" offset="1"/>
  </linearGradient>
  <linearGradient id="_Linear3" x2="1" gradientTransform="matrix(-.781909 -20.7189 20.7189 -.781909 27.4561 29.6694)" gradientUnits="userSpaceOnUse">
   <stop style="stop-color:#b3b3b3" offset="0"/>
   <stop style="stop-color:#fff" offset="1"/>
  </linearGradient>
 </defs>
</svg>
