<svg style="clip-rule:evenodd;fill-rule:evenodd;stroke-linejoin:round;stroke-miterlimit:2" version="1.1" viewBox="0 0 48 48" xmlns="http://www.w3.org/2000/svg">
 <ellipse cx="23.984" cy="24" rx="22.749" ry="22.764" style="fill:url(#_Linear1)"/>
 <path d="m34.865 18.048c-1.134-1.044-2.449-1.86-3.86-2.453-0.184 0.278-0.393 0.539-0.632 0.777-0.316 0.316-0.67 0.587-1.057 0.803 0.409 0.135 0.802 0.29 1.179 0.467 0.384 0.18 0.532 0.651 0.32 1.018-0.187 0.326-0.597 0.455-0.935 0.293-2.572-1.214-5.443-0.986-6.703-0.796-0.371 0.055-0.725-0.18-0.812-0.544v-3e-3c-0.1-0.413 0.177-0.822 0.596-0.887 0.229-0.035 0.506-0.07 0.815-0.099-0.093-0.081-0.183-0.165-0.27-0.252-0.445-0.445-0.796-0.963-1.041-1.543-0.026-0.062-0.052-0.126-0.074-0.187-0.384 0.064-0.764 0.145-1.135 0.238-2.159-1.257-4.75-1.26-6.29-1.108-0.67 0.064-1.067 0.779-0.774 1.385l1.306 2.675c-1.451 1.263-2.546 2.81-3.162 4.534l-1.592-6e-3c-0.535-4e-3 -0.97 0.432-0.97 0.966v3.571c0 0.361 0.2 0.69 0.519 0.857l2.066 1.077c0.863 2.381 2.652 4.424 5.011 5.833v3.161c0 0.622 0.506 1.128 1.128 1.128h2.894c0.448 0 0.854-0.268 1.034-0.677l0.725-1.666c0.625 0.077 1.26 0.116 1.911 0.116 1.025 0 2.021-0.097 2.978-0.28v1.379c0 0.622 0.506 1.128 1.128 1.128h2.881c0.415 0 0.799-0.229 0.996-0.596 1.534-2.881 3.2-5.772 4.431-8.788 0.622-1.528 0.847-3.149 0.712-4.731-0.219-2.552-1.379-5.005-3.323-6.79zm-17.311 5.997c-0.803 0-1.451-0.648-1.451-1.45s0.648-1.45 1.451-1.45c0.802 0 1.45 0.648 1.45 1.45s-0.648 1.45-1.45 1.45z" style="fill-opacity:.8;fill-rule:nonzero"/>
 <path d="m25.51 16.556c0.442 0.174 0.925 0.271 1.431 0.271 0.248 0 0.49-0.023 0.722-0.068 0.986-0.184 1.84-0.741 2.41-1.518 0.474-0.645 0.754-1.44 0.754-2.304 4e-3 -2.15-1.74-3.89-3.886-3.89-2.15 0-3.89 1.74-3.89 3.89 0 0.557 0.116 1.086 0.329 1.566 0.409 0.935 1.179 1.676 2.13 2.053z" style="fill-opacity:.8;fill-rule:nonzero"/>
 <defs>
  <linearGradient id="_Linear1" x2="1" gradientTransform="matrix(3.0299e-15,-49.5142,49.482,3.03187e-15,23.9597,48.5993)" gradientUnits="userSpaceOnUse">
   <stop style="stop-color:#ff9300" offset="0"/>
   <stop style="stop-color:#ffd702" offset="1"/>
  </linearGradient>
 </defs>
</svg>
