<svg style="clip-rule:evenodd;fill-rule:evenodd;stroke-linejoin:round;stroke-miterlimit:2" version="1.1" viewBox="0 0 48 48" xmlns="http://www.w3.org/2000/svg">
 <path d="m45.668 8.56c0-3.438-2.79-6.228-6.228-6.228h-30.88c-3.438 0-6.228 2.79-6.228 6.228v30.88c0 3.438 2.79 6.228 6.228 6.228h30.88c3.438 0 6.228-2.79 6.228-6.228v-30.88z" style="fill:url(#_Linear1)"/>
 <path d="m22.113 23.943c0 4.45-3.607 8.057-8.056 8.057-4.45 0-8.057-3.607-8.057-8.057 0-4.449 3.607-8.056 8.057-8.056 4.449 0 8.056 3.607 8.056 8.056z" style="fill-rule:nonzero;fill:#0059d4"/>
 <path d="m42 23.943c0 4.45-3.607 8.057-8.057 8.057-4.449 0-8.056-3.607-8.056-8.057 0-4.449 3.607-8.056 8.056-8.056 4.45 0 8.057 3.607 8.057 8.056z" style="fill-rule:nonzero;fill:#da1593"/>
 <defs>
  <linearGradient id="_Linear1" x2="1" gradientTransform="matrix(2.65365e-15,-43.3373,43.3373,2.65365e-15,201.9,45.6687)" gradientUnits="userSpaceOnUse">
   <stop style="stop-color:#d4d4d4" offset="0"/>
   <stop style="stop-color:#ddf4ff" offset="1"/>
  </linearGradient>
 </defs>
</svg>
