<svg style="clip-rule:evenodd;fill-rule:evenodd" version="1.1" viewBox="0 0 48 48" xmlns="http://www.w3.org/2000/svg">
 <circle cx="24" cy="24" r="22.764" style="fill:url(#_Linear1)"/>
 <path d="m36.557 25.006c0 3.469-1.029 6.232-3.087 8.29-2.336 2.452-5.377 3.677-9.123 3.677-3.585 0-6.637-1.237-9.158-3.711-2.497-2.498-3.746-5.585-3.746-9.262s1.249-6.753 3.746-9.227c2.521-2.498 5.573-3.746 9.158-3.746 1.78 0 3.48 0.347 5.099 1.04 1.619 0.694 2.914 1.619 3.885 2.775l-2.185 2.186c-1.642-1.966-3.908-2.949-6.799-2.949-2.613 0-4.88 0.925-6.799 2.775-1.896 1.827-2.844 4.209-2.844 7.146s0.948 5.33 2.844 7.18c1.919 1.827 4.186 2.741 6.799 2.741 2.775 0 5.087-0.925 6.937-2.775 1.203-1.203 1.897-2.879 2.082-5.03h-9.019v-2.983h12.037c0.115 0.647 0.173 1.272 0.173 1.873z" style="fill-rule:nonzero;fill:#fee1de;stroke-width:1.77px;stroke:#fee0de"/>
 <defs>
  <linearGradient id="_Linear1" x2="1" gradientTransform="matrix(2.68822e-15,-43.902,43.902,2.68822e-15,23.061,45.6921)" gradientUnits="userSpaceOnUse">
   <stop style="stop-color:#781311" offset="0"/>
   <stop style="stop-color:#ff3a2f" offset="1"/>
  </linearGradient>
 </defs>
</svg>
