<svg style="clip-rule:evenodd;fill-rule:evenodd;stroke-linejoin:round;stroke-miterlimit:2" version="1.1" viewBox="0 0 48 48" xmlns="http://www.w3.org/2000/svg">
 <path d="m46.551 38.679l-14.54 5.014-6.739-9.084 14.54-5.014 6.739 9.084z" style="fill-rule:nonzero;fill:#1a1a1a"/>
 <path d="m46.764 24c0 12.624-10.14 22.764-22.764 22.764s-22.764-10.14-22.764-22.764 10.14-22.764 22.764-22.764 22.764 10.14 22.764 22.764z" style="fill-rule:nonzero;fill:url(#_Linear1)"/>
 <path d="m1.244 23.888c0.702-9.457 12.037-15.759 22.756 0.526 9.309 14.275 20.894 10.349 22.556 2.697-1.506 11.138-10.988 19.653-22.556 19.653-12.624 0-22.764-10.14-22.764-22.764l8e-3 -0.112z" style="fill:url(#_Linear2)"/>
 <path d="m24 1.236c12.284 0 22.218 9.603 22.742 21.752-3.111 3.295-9.305 4.506-15.706-5.61-7.864-13.245-16.349-15.107-24.626-7.864v-5e-3c4.166-5.06 10.485-8.273 17.59-8.273z" style="fill:url(#_Linear3)"/>
 <path d="m16.824 2.396c2.24-0.756 4.659-1.16 7.176-1.16 10.403 0 19.12 6.886 21.845 16.366-2.643 0.805-4.704 0.549-7.98-4.57-4.78-7.369-11.669-13.014-21.041-10.636z" style="fill:url(#_Linear4)"/>
 <path d="m3.298 33.467c-1.378-6.613 5.63-11.49 13.459-1.189 9.312 12.21 20.901 10.761 26.282 4.139v0.087c-4.051 6.197-11.048 10.26-19.039 10.26-9.226 0-17.125-5.416-20.702-13.297z" style="fill:url(#_Linear5)"/>
 <rect x="23.997" y="28.49" width="22.56" height="10.18" style="fill:#333"/>
 <path d="m23.996 28.491l10.18 10.179h-10.18l7.005 7.004c7.783-2.491 13.708-9.037 15.322-17.183h-22.327z" style="fill-opacity:.07;fill-rule:nonzero;fill:#333"/>
 <path d="m41.723 33.745c0 0.501-0.084 0.939-0.253 1.313-0.168 0.373-0.407 0.657-0.716 0.854-0.309 0.196-0.669 0.295-1.082 0.295-0.403 0-0.76-0.099-1.07-0.295-0.311-0.2-0.554-0.481-0.727-0.847-0.171-0.367-0.259-0.792-0.263-1.274v-0.369c0-0.491 0.085-0.926 0.255-1.302 0.172-0.377 0.413-0.665 0.724-0.864 0.314-0.201 0.672-0.302 1.075-0.302 0.41 0 0.77 0.1 1.081 0.298 0.314 0.197 0.555 0.484 0.723 0.86 0.169 0.375 0.253 0.811 0.253 1.31v0.323zm-12.218 2.391h-0.674v-5.112h1.885c0.559 0 0.997 0.143 1.313 0.428 0.318 0.286 0.477 0.664 0.477 1.134 0 0.497-0.155 0.88-0.466 1.149-0.31 0.267-0.752 0.4-1.331 0.4h-1.204v2.001zm4.536 0h-0.678v-5.112h1.693c0.575 0 1.018 0.131 1.327 0.393 0.311 0.263 0.466 0.644 0.466 1.145 0 0.318-0.086 0.595-0.259 0.832-0.171 0.236-0.41 0.413-0.717 0.53l1.202 2.17v0.042h-0.723l-1.111-2.068h-1.2v2.068zm7.011-2.721c0-0.606-0.122-1.071-0.365-1.394-0.243-0.325-0.584-0.488-1.021-0.488-0.427 0-0.763 0.163-1.008 0.488-0.243 0.323-0.368 0.773-0.376 1.348v0.376c0 0.588 0.123 1.05 0.369 1.387 0.248 0.335 0.588 0.501 1.021 0.501 0.436 0 0.773-0.157 1.012-0.473 0.238-0.318 0.361-0.773 0.368-1.365v-0.38zm-10.297-1.836h-1.25v2.005h1.211c0.36 0 0.637-0.084 0.829-0.253 0.192-0.171 0.288-0.417 0.288-0.738 0-0.304-0.096-0.547-0.288-0.73-0.192-0.182-0.455-0.277-0.79-0.284zm4.319 0h-1.033v1.937h1.036c0.334 0 0.6-0.085 0.796-0.259 0.199-0.173 0.3-0.405 0.3-0.695 0-0.316-0.096-0.558-0.285-0.727-0.187-0.169-0.459-0.254-0.814-0.256z" style="fill-rule:nonzero;fill:#fff"/>
 <defs>
  <linearGradient id="_Linear1" x2="1" gradientTransform="matrix(-2.6101,-31.0415,31.0415,-2.6101,97.6335,27.5509)" gradientUnits="userSpaceOnUse">
   <stop style="stop-color:#80b3ff" offset="0"/>
   <stop style="stop-color:#80b3ff" offset="1"/>
  </linearGradient>
  <linearGradient id="_Linear2" x2="1" gradientTransform="matrix(-1.13994,26.7771,-26.7771,-1.13994,-374.357,1.93486)" gradientUnits="userSpaceOnUse">
   <stop style="stop-color:#61a0ff" offset="0"/>
   <stop style="stop-color:#2a7fff" offset="1"/>
  </linearGradient>
  <linearGradient id="_Linear3" x2="1" gradientTransform="matrix(.321659 -22.1094 22.1094 .321659 73.3676 24.6433)" gradientUnits="userSpaceOnUse">
   <stop style="stop-color:#afc6e9" offset="0"/>
   <stop style="stop-color:#abcbfb" offset="1"/>
  </linearGradient>
  <linearGradient id="_Linear4" x2="1" gradientTransform="matrix(-1.39827,-15.6606,15.6606,-1.39827,73.6765,14.5004)" gradientUnits="userSpaceOnUse">
   <stop style="stop-color:#d5e5ff" offset="0"/>
   <stop style="stop-color:#ebebeb" offset="1"/>
  </linearGradient>
  <linearGradient id="_Linear5" x2="1" gradientTransform="matrix(-.922855 -49.8004 49.8004 -.922855 452.815 -1114.52)" gradientUnits="userSpaceOnUse">
   <stop style="stop-color:#0d5ec2" offset="0"/>
   <stop style="stop-color:#38b2fa" offset="1"/>
  </linearGradient>
 </defs>
</svg>
