<svg style="clip-rule:evenodd;fill-rule:evenodd;stroke-linejoin:round;stroke-miterlimit:2" version="1.1" viewBox="0 0 48 48" xmlns="http://www.w3.org/2000/svg">
 <ellipse cx="21.904" cy="42" rx="17.096" ry="2" style="fill:url(#_Linear1)"/>
 <path d="m41.127 3.681c-1.254-0.874-3.293 0.254-3.884 0.705l-0.011 7e-3 -0.013 9e-3s-8.639 6.043-12.417 11.958l9.778 6.808c4.5-6.382 6.677-13.014 7.731-16.268 0.364-1.124-0.127-2.482-1.184-3.219z" style="fill-rule:nonzero;fill:url(#_Linear2)"/>
 <path d="m25.581 15.731c-0.278-4e-3 -0.557 0.017-0.839 0.064l-1.135 0.192 0.339 2.573-0.803 0.679-5.579 12.18 0.751 0.572 4.91 3.739 9.47-9.976 0.266-1.005 2.452-0.456-0.418-1.291c-0.587-1.808-2.063-3.754-3.866-5.35-1.578-1.397-3.605-1.899-5.548-1.921z" style="fill-rule:nonzero;fill:url(#_Linear3)"/>
 <path d="m4.809 42c6.306-0.281 11.38 0.279 14.528-0.797 1.69-0.577 4.303-1.628 4.618-4.731 0.508-5.014-3.907-6.85-7.459-5.156-1.519 0.725-3.658 3.18-4.782 5.222-1.88 3.416-6.905 5.462-6.905 5.462z" style="fill-rule:nonzero;fill:#272727"/>
 <ellipse cx="39.5" cy="39" rx="3.5" ry="1" style="fill:#55bedb"/>
 <defs>
  <linearGradient id="_Linear1" x2="1" gradientTransform="matrix(34.1911,0,0,4,4.80893,42)" gradientUnits="userSpaceOnUse">
   <stop style="stop-color:#ff00b0" offset="0"/>
   <stop style="stop-color:#6155db" offset="1"/>
  </linearGradient>
  <linearGradient id="_Linear2" x2="1" gradientTransform="matrix(10.2643,-14.6929,14.6929,10.2643,30.8859,18.3904)" gradientUnits="userSpaceOnUse">
   <stop style="stop-color:#8d4e0a" offset="0"/>
   <stop style="stop-color:#9b6f3f" offset="1"/>
  </linearGradient>
  <linearGradient id="_Linear3" x2="1" gradientTransform="matrix(5.76535,-17.3845,17.3845,5.76535,24.8022,34.5889)" gradientUnits="userSpaceOnUse">
   <stop style="stop-color:#cecece" offset="0"/>
   <stop style="stop-color:#a9a9a9" offset="1"/>
  </linearGradient>
 </defs>
</svg>
