<svg style="clip-rule:evenodd;fill-rule:evenodd;stroke-linejoin:round;stroke-miterlimit:2" version="1.1" viewBox="0 0 64 64" xmlns="http://www.w3.org/2000/svg">
 <path d="m61.717 12.856c0-5.835-4.738-10.573-10.573-10.573h-38.288c-5.835 0-10.573 4.738-10.573 10.573v38.288c0 5.835 4.738 10.573 10.573 10.573h38.288c5.835 0 10.573-4.738 10.573-10.573v-38.288z" style="fill:url(#_Linear1)"/>
 <path d="m40.889 22.837l-7.485 9.995-6.174 9.598-2.112-3.821-3.822-2.113 9.598-6.173 9.995-7.486z" style="fill-rule:nonzero;fill:#fff"/>
 <path d="m49.221 46.936c-11.078 6.86-29.299 3.179-32.479 0-3.179-3.179-6.611-22.642 0-32.479l32.479 32.479z" style="fill-rule:nonzero;fill:#e4e4e4"/>
 <path d="m37.766 21.22c1.158-1.158 3.038-1.158 4.196 0s1.158 3.038 0 4.196-3.038 1.158-4.196 0-1.158-3.038 0-4.196z" style="fill:#ff6e00"/>
 <path d="m39.104 19.639s-0.41-1.785-0.522-2.433c2.264-1.16 5.113-0.735 6.932 1.217 1.84 1.975 2.046 4.891 0.678 7.076-0.56-0.136-2.344-0.768-2.344-0.768 1.192-1.331 1.193-3.378-0.048-4.711-1.242-1.332-3.284-1.476-4.696-0.381z" style="fill:#ff6e00"/>
 <path d="m38.249 15.934s-0.809-3.526-1.031-4.804c4.47-2.29 10.094-1.451 13.685 2.403 3.633 3.9 4.04 9.656 1.338 13.969-1.103-0.268-4.627-1.516-4.627-1.516 2.355-2.627 2.357-6.669-0.094-9.3s-6.484-2.915-9.271-0.752z" style="fill:#ff6e00"/>
 <defs>
  <linearGradient id="_Linear1" x2="1" gradientTransform="matrix(.476427 -59.4342 59.4342 .476427 30.6898 61.7171)" gradientUnits="userSpaceOnUse">
   <stop style="stop-color:#585858" offset="0"/>
   <stop style="stop-color:#828282" offset="1"/>
  </linearGradient>
 </defs>
</svg>
