<svg style="clip-rule:evenodd;fill-rule:evenodd;stroke-linejoin:round;stroke-miterlimit:2" version="1.1" viewBox="0 0 48 48" xmlns="http://www.w3.org/2000/svg">
 <path d="m45.668 8.56c0-3.438-2.79-6.228-6.228-6.228h-30.88c-3.438 0-6.228 2.79-6.228 6.228v30.88c0 3.438 2.79 6.228 6.228 6.228h30.88c3.438 0 6.228-2.79 6.228-6.228v-30.88z" style="fill:url(#_Linear1)"/>
 <path d="m8.534 14.64h21.289c1.637 0 1.637 1.338 1.637 1.338v16.044c0 1.338-1.637 1.338-1.637 1.338h-21.284s-1.638 0-1.638-1.338v-16.044s0-1.338 1.638-1.338h-5e-3z" style="fill:#fff"/>
 <path d="m40.278 16.143c0.328-0.273 0.785-0.332 1.172-0.151 0.386 0.182 0.633 0.57 0.633 0.997v14.022c0 0.427-0.247 0.815-0.633 0.997-0.387 0.181-0.844 0.122-1.172-0.151-2.388-1.988-6.517-5.426-8.421-7.011-0.252-0.209-0.397-0.519-0.397-0.846s0.145-0.637 0.397-0.846c1.904-1.585 6.033-5.023 8.421-7.011z" style="fill:#fff"/>
 <defs>
  <linearGradient id="_Linear1" x2="1" gradientTransform="matrix(2.65356e-15,-43.336,43.336,2.65356e-15,24,45.668)" gradientUnits="userSpaceOnUse">
   <stop style="stop-color:#007e2d" offset="0"/>
   <stop style="stop-color:#37b368" offset="1"/>
  </linearGradient>
 </defs>
</svg>
