<svg style="clip-rule:evenodd;fill-rule:evenodd;stroke-linejoin:round;stroke-miterlimit:2" version="1.1" viewBox="0 0 48 48" xmlns="http://www.w3.org/2000/svg">
 <path d="m24 1.236c12.564 0 22.764 10.2 22.764 22.764s-10.2 22.764-22.764 22.764-22.764-10.2-22.764-22.764 10.2-22.764 22.764-22.764z" style="fill:url(#_Linear1)"/>
 <path d="m12.344 12.344c4.495-4.483 11.197-5.987 17.176-3.855l-3.865 3.866c-3.661-0.524-7.362 0.708-9.981 3.319-4.567 4.568-4.567 12.084 0 16.652 4.568 4.567 12.084 4.567 16.652 0 3.998-3.998 4.496-10.255 1.495-14.817l-3.161 3.16-3.329-3.329 3.152-3.153 3.374-3.374 0.134-0.134 0.104 0.313c0.548 0.417 1.07 0.869 1.561 1.352 6.394 6.394 6.394 16.918 0 23.312s-16.918 6.394-23.312 0-6.394-16.918 0-23.312z" style="fill-rule:nonzero;fill:#71c1ff"/>
 <path d="m24.129 18.508c-2.006-0.048-3.884 1.007-4.888 2.745-1.507 2.61-0.599 5.998 2.012 7.505v1e-3c2.61 1.507 5.998 0.599 7.505-2.011l1e-3 -1e-3c1.507-2.61 0.599-5.998-2.012-7.505-0.797-0.46-1.698-0.712-2.618-0.734zm-0.24 3.14c0.451-0.021 0.898 0.087 1.288 0.313 1.119 0.646 1.508 2.098 0.862 3.216-0.646 1.119-2.098 1.508-3.216 0.862-1.119-0.646-1.508-2.098-0.862-3.216 0.401-0.694 1.128-1.137 1.928-1.175z" style="fill-rule:nonzero;fill:#cae8ff"/>
 <defs>
  <linearGradient id="_Linear1" x2="1" gradientTransform="matrix(2.78779e-15,-45.528,45.528,2.78779e-15,-112.584,46.764)" gradientUnits="userSpaceOnUse">
   <stop style="stop-color:#002fa4" offset="0"/>
   <stop style="stop-color:#0078d7" offset="1"/>
  </linearGradient>
 </defs>
</svg>
