<svg style="clip-rule:evenodd;fill-rule:evenodd;stroke-linecap:round;stroke-linejoin:round;stroke-miterlimit:1.5" version="1.1" viewBox="0 0 48 48" xmlns="http://www.w3.org/2000/svg">
 <path d="m45.668 8.56c0-3.438-2.79-6.228-6.228-6.228h-30.88c-3.438 0-6.228 2.79-6.228 6.228v30.88c0 3.438 2.79 6.228 6.228 6.228h30.88c3.438 0 6.228-2.79 6.228-6.228v-30.88z" style="fill:url(#_Linear1)"/>
 <path d="m14.946 11.266v3.78h-3.78v-3.78h3.78zm7.561 0v3.78h-3.781v-3.78h3.781zm7.56 0v3.78h-3.78v-3.78h3.78z" style="fill:url(#_Linear2)"/>
 <rect x="8.569" y="8.569" width="30.862" height="30.862" style="fill:none;stroke-width:1px;stroke:#e9e9e9"/>
 <path d="m11.326 19.759l0.493 0.073c0.021 0.152 0.078 0.263 0.172 0.333 0.126 0.093 0.298 0.14 0.516 0.14 0.234 0 0.416-0.047 0.543-0.14 0.128-0.094 0.214-0.226 0.259-0.395 0.027-0.103 0.039-0.32 0.037-0.651-0.222 0.261-0.498 0.392-0.828 0.392-0.411 0-0.73-0.148-0.955-0.445s-0.338-0.653-0.338-1.068c0-0.285 0.052-0.548 0.155-0.79 0.103-0.241 0.253-0.428 0.449-0.559s0.427-0.197 0.692-0.197c0.353 0 0.644 0.143 0.873 0.428v-0.361h0.468v2.586c0 0.466-0.048 0.796-0.143 0.991-0.095 0.194-0.245 0.347-0.45 0.46-0.206 0.113-0.459 0.169-0.76 0.169-0.356 0-0.645-0.08-0.864-0.241-0.22-0.16-0.326-0.402-0.319-0.725zm7.637-0.248h-0.454v-0.439c-0.232 0.338-0.549 0.507-0.949 0.507-0.176 0-0.341-0.034-0.494-0.102-0.153-0.067-0.267-0.152-0.341-0.255-0.074-0.102-0.126-0.227-0.156-0.376-0.021-0.099-0.031-0.257-0.031-0.473v-1.854h0.507v1.66c0 0.264 0.01 0.443 0.031 0.535 0.032 0.133 0.099 0.238 0.202 0.314 0.104 0.076 0.231 0.114 0.384 0.114 0.152 0 0.294-0.039 0.428-0.117 0.133-0.078 0.227-0.184 0.283-0.318 0.055-0.134 0.083-0.329 0.083-0.585v-1.603h0.507v2.992zm1.262 0h-0.471v-4.13h0.508v1.474c0.214-0.269 0.487-0.403 0.819-0.403 0.184 0 0.358 0.037 0.523 0.111 0.164 0.074 0.299 0.179 0.405 0.313s0.19 0.296 0.25 0.486c0.06 0.189 0.09 0.392 0.09 0.608 0 0.513-0.127 0.909-0.38 1.189-0.254 0.28-0.558 0.42-0.913 0.42-0.353 0-0.63-0.148-0.831-0.443v0.375zm-5.096 0h-0.507v-2.992h0.456v0.454c0.117-0.212 0.224-0.352 0.323-0.42 0.099-0.067 0.207-0.101 0.325-0.101 0.171 0 0.345 0.054 0.521 0.163l-0.174 0.471c-0.124-0.074-0.248-0.11-0.372-0.11-0.111 0-0.21 0.033-0.299 0.1-0.088 0.066-0.151 0.159-0.188 0.277-0.057 0.181-0.085 0.378-0.085 0.592v1.566zm5.09-1.518c0 0.358 0.049 0.618 0.147 0.777 0.159 0.261 0.375 0.392 0.648 0.392 0.221 0 0.413-0.097 0.574-0.289 0.162-0.193 0.243-0.479 0.243-0.861 0-0.39-0.078-0.678-0.233-0.864s-0.342-0.279-0.562-0.279c-0.221 0-0.413 0.096-0.574 0.288-0.162 0.193-0.243 0.471-0.243 0.836zm-8.473-0.031c0 0.392 0.078 0.679 0.234 0.859s0.351 0.27 0.586 0.27c0.233 0 0.428-0.089 0.586-0.269 0.157-0.179 0.236-0.46 0.236-0.843 0-0.367-0.081-0.643-0.243-0.829-0.163-0.185-0.359-0.278-0.588-0.278-0.225 0-0.417 0.091-0.574 0.274-0.158 0.183-0.237 0.455-0.237 0.816z" style="fill-rule:nonzero;fill:#fff"/>
 <defs>
  <linearGradient id="_Linear1" x2="1" gradientTransform="matrix(2.65364e-15,-43.3373,43.3373,2.65364e-15,129.44,45.6686)" gradientUnits="userSpaceOnUse">
   <stop style="stop-color:#2a2c2f" offset="0"/>
   <stop style="stop-color:#5a5f63" offset="1"/>
  </linearGradient>
  <linearGradient id="_Linear2" x2="1" gradientTransform="matrix(7.40709e-15,-120.967,120.967,7.40709e-15,7089.86,33.9475)" gradientUnits="userSpaceOnUse">
   <stop style="stop-color:#d5d5d6" offset="0"/>
   <stop style="stop-color:#f4f5f5" offset="1"/>
  </linearGradient>
 </defs>
</svg>
