<svg style="clip-rule:evenodd;fill-rule:evenodd;stroke-linejoin:round;stroke-miterlimit:2" version="1.1" viewBox="0 0 48 48" xmlns="http://www.w3.org/2000/svg">
 <g transform="scale(.75)">
  <path d="M61,31C61,47.017 48.016,60 32,60C15.983,60 3,47.016 3,31C3,14.983 15.984,2 32,2C48.017,2 61,14.984 61,31" style="fill:url(#_Linear1)"/>
 </g>
 <g transform="scale(.75)">
  <circle cx="32" cy="25" r="17" style="fill:white"/>
 </g>
 <g transform="scale(.75)">
  <path d="m47 42.292c-0.143 0.073-0.288 0.134-0.431 0.206-2.702 2.507-7.464 5.602-14.569 5.602-7.321 0-12.265-3.258-15-5.777v13.877c0 3.213 2.676 5.8 6 5.8h18c3.324 0 6-2.587 6-5.8v-13.908z" style="fill-rule:nonzero;fill:rgb(255,183,51)"/>
 </g>
 <g transform="scale(.75)">
  <path d="m35 55v3h-14v-3h14zm6-5v3h-20v-3h20z" style="fill:rgb(106,64,0)"/>
 </g>
 <g transform="scale(.75)">
  <path d="m31.864 8.703 1.769 17.353h-3.537l1.768-17.353z" style="fill:rgb(6,130,161)"/>
 </g>
 <g transform="scale(.75)">
  <path d="m42.965 20.192-10.406 7.707-3.256-0.91 1.184-3.337 12.478-3.46z" style="fill:rgb(6,130,161)"/>
 </g>
 <defs>
  <linearGradient id="_Linear1" x2="1" gradientTransform="matrix(2.76074e-15,-45.0862,45.0862,2.76074e-15,1235.58,53.0166)" gradientUnits="userSpaceOnUse">
   <stop style="stop-color:rgb(0,103,131)" offset="0"/>
   <stop style="stop-color:rgb(19,190,227)" offset="1"/>
  </linearGradient>
 </defs>
</svg>
