<svg style="clip-rule:evenodd;fill-rule:evenodd;stroke-linejoin:round;stroke-miterlimit:2" version="1.1" viewBox="0 0 48 48" xmlns="http://www.w3.org/2000/svg">
 <path d="m8.775 2.25c-1.201 0-2.175 0.974-2.175 2.175v39.15c0 1.201 0.974 2.175 2.175 2.175h6.525c1.201 0 2.175-0.974 2.175-2.175v-15.225h13.05v15.225c0 1.201 0.974 2.175 2.175 2.175h6.525c1.201 0 2.175-0.974 2.175-2.175v-39.15c0-1.201-0.974-2.175-2.175-2.175h-6.525c-1.201 0-2.175 0.974-2.175 2.175v15.225h-13.05v-15.225c0-1.201-0.974-2.175-2.175-2.175h-6.525z" style="fill-rule:nonzero;fill:url(#_Linear1)"/>
 <defs>
  <linearGradient id="_Linear1" x2="1" gradientTransform="matrix(-.17866 -43.3548 43.3548 -.17866 35.196 45.6179)" gradientUnits="userSpaceOnUse">
   <stop style="stop-color:#004e11" offset="0"/>
   <stop style="stop-color:#1a861c" offset="1"/>
  </linearGradient>
 </defs>
</svg>
