<svg style="clip-rule:evenodd;fill-rule:evenodd;stroke-linejoin:round;stroke-miterlimit:2" version="1.1" viewBox="0 0 48 48" xmlns="http://www.w3.org/2000/svg">
 <path d="m45.668 8.56c0-3.438-2.79-6.228-6.228-6.228h-30.88c-3.438 0-6.228 2.79-6.228 6.228v30.88c0 3.438 2.79 6.228 6.228 6.228h30.88c3.438 0 6.228-2.79 6.228-6.228v-30.88z" style="fill:url(#_Linear1)"/>
 <rect x="27.25" y="2.332" width="2.167" height="43.336" style="fill:#fff"/>
 <path d="m15.169 19.422s0.598 1.921 1.642 3.058c3.247 3.536 7.482 3.211 9.356 6.873v16.182s-0.553-2.254-1.023-3.712c-1.424-4.411-11.171-11.54-10.992-19.349 0.038-1.653 1.017-3.052 1.017-3.052z" style="fill-rule:nonzero;fill:#ecba9e"/>
 <path d="m20.353 8.715s0.399 3.908 1.454 5.474c1.004 1.493 4.36 3.246 4.36 3.246v8.963c-2.925-2.671-9.076-6.908-5.814-17.683z" style="fill-rule:nonzero;fill:#ecba9e"/>
 <path d="m24.255 10.41s1.679 3.669 1.815 4.772c0.149 1.21 0.097 2.253 0.097 2.253s-2.189-0.986-2.605-1.998c-0.643-1.564 0.693-5.027 0.693-5.027z" style="fill-rule:nonzero;fill:#ecba9e"/>
 <path d="m15.605 14.868l1.018-1.696-0.582 5.814c-0.932-1.673-1.354-2.587-0.436-4.118z" style="fill-rule:nonzero;fill:#ecba9e"/>
 <path d="m21.818 5.884l-0.428-0.886c-0.108 1.569-1.185 2.848-0.262 3.959 1.307-0.898 1.338-1.73 0.69-3.073z" style="fill-rule:nonzero;fill:#ecba9e"/>
 <defs>
  <linearGradient id="_Linear1" x2="1" gradientTransform="matrix(2.65364e-15,-43.3373,43.3373,2.65364e-15,201.9,45.6687)" gradientUnits="userSpaceOnUse">
   <stop style="stop-color:#b14c00" offset="0"/>
   <stop style="stop-color:#d86b18" offset="1"/>
  </linearGradient>
 </defs>
</svg>
