<svg style="clip-rule:evenodd;fill-rule:evenodd;stroke-linejoin:round;stroke-miterlimit:2" version="1.1" viewBox="0 0 48 48" xmlns="http://www.w3.org/2000/svg">
 <path d="m24.143 1.888c-2.871-0.015-5.796 0.534-8.622 1.708-11.304 4.698-16.622 17.579-11.925 28.883 4.698 11.304 17.579 16.622 28.883 11.925s16.622-17.579 11.925-28.883c-3.523-8.478-11.649-13.59-20.261-13.633zm-0.143 11.991c5.552 0 10.121 4.569 10.121 10.121s-4.569 10.121-10.121 10.121-10.121-4.569-10.121-10.121 4.569-10.121 10.121-10.121z" style="fill:url(#_Radial1)"/>
 <path d="m24.131 1.236c-2.527-0.013-5.092 0.446-7.577 1.404-0.975 0.375-1.472 1.494-1.101 2.479l3.381 8.963c0.28 0.743 0.99 1.239 1.78 1.239 0.231 0 0.46-0.044 0.676-0.126 0.864-0.333 1.783-0.505 2.708-0.506 0.924 3e-3 1.838 0.177 2.701 0.512 0.218 0.085 0.449 0.127 0.682 0.127 0.788 0 1.498-0.493 1.779-1.237l3.387-8.974c0.083-0.219 0.125-0.451 0.125-0.684 0-0.797-0.49-1.514-1.228-1.797-2.308-0.888-4.778-1.387-7.313-1.4zm-19.707 14.092c-0.791 4e-3 -1.502 0.493-1.784 1.226-0.958 2.485-1.417 5.05-1.404 7.577 0.013 2.535 0.512 5.005 1.4 7.313 0.283 0.738 1 1.228 1.797 1.228 0.233 0 0.465-0.042 0.684-0.125l8.974-3.385c0.744-0.281 1.238-0.991 1.238-1.779 0-0.234-0.043-0.466-0.128-0.684-0.335-0.863-0.509-1.777-0.512-2.701 1e-3 -0.925 0.173-1.844 0.506-2.708 0.082-0.216 0.126-0.445 0.126-0.676 0-0.79-0.496-1.5-1.239-1.78l-8.963-3.381c-0.221-0.084-0.457-0.126-0.695-0.125zm39.152 0c-0.238-1e-3 -0.474 0.041-0.695 0.125l-8.963 3.381c-0.743 0.28-1.239 0.99-1.239 1.78 0 0.231 0.044 0.46 0.126 0.676 0.333 0.864 0.505 1.783 0.506 2.708-3e-3 0.924-0.177 1.838-0.512 2.701-0.085 0.218-0.128 0.45-0.128 0.684 0 0.788 0.494 1.498 1.238 1.779l8.974 3.385c0.219 0.083 0.451 0.125 0.684 0.125 0.797 0 1.514-0.49 1.797-1.228 0.888-2.308 1.387-4.778 1.4-7.313 0.013-2.527-0.446-5.092-1.404-7.577-0.282-0.733-0.993-1.222-1.784-1.226zm-16.131 17.346c-0.255-9e-3 -0.508 0.034-0.746 0.125-0.863 0.335-1.777 0.509-2.701 0.512-0.925-1e-3 -1.844-0.173-2.708-0.506-0.216-0.082-0.445-0.126-0.676-0.126-0.79 0-1.5 0.496-1.78 1.239l-3.381 8.963c-0.371 0.985 0.126 2.104 1.101 2.479 2.485 0.958 5.05 1.417 7.577 1.404 2.535-0.013 5.005-0.512 7.313-1.4 0.738-0.283 1.228-1 1.228-1.797 0-0.233-0.042-0.465-0.125-0.684l-3.387-8.974c-0.273-0.721-0.951-1.209-1.715-1.235z" style="fill-rule:nonzero;fill:url(#_Radial2)"/>
 <path d="m23.132 10.113h-0.164c-0.155 0-0.28-0.126-0.28-0.281v-0.47c-0.663-0.168-0.854-0.562-0.854-1.372 0-1.195 0.97-2.166 2.166-2.166s2.166 0.971 2.166 2.166c0 0.798-0.203 1.191-0.853 1.364v0.477c0 0.155-0.126 0.281-0.281 0.281h-0.162c-0.155 0-0.28-0.126-0.28-0.281v-0.375c-0.073 6e-3 -0.149 8e-3 -0.228 0.011v0.365c0 0.154-0.125 0.28-0.28 0.28h-0.162c-0.155 0-0.281-0.126-0.281-0.28v-0.364c-0.079-3e-3 -0.156-5e-3 -0.229-9e-3v0.373c0 0.155-0.125 0.281-0.278 0.281zm-0.03-3.004c0.368 0.143 0.666 0.289 0.666 0.646 0 0.355-0.241 0.423-0.666 0.643-0.326 0.169-0.665-0.288-0.665-0.643 0-0.357 0.323-0.779 0.665-0.646zm1.787 0c0.353-0.1 0.664 0.289 0.664 0.646 0 0.355-0.349 0.831-0.664 0.643-0.387-0.23-0.666-0.288-0.666-0.643 0-0.357 0.26-0.531 0.666-0.646z" style="fill:#e2f3fe"/>
 <defs>
  <radialGradient id="_Radial1" cx="0" cy="0" r="1" gradientTransform="matrix(22.112,0,0,22.1126,24,23.9995)" gradientUnits="userSpaceOnUse">
   <stop style="stop-color:#a9d4eb" offset="0"/>
   <stop style="stop-color:#e4e4e4" offset="1"/>
  </radialGradient>
  <radialGradient id="_Radial2" cx="0" cy="0" r="1" gradientTransform="matrix(22.7639,0,0,22.7639,24,24)" gradientUnits="userSpaceOnUse">
   <stop style="stop-color:#0121b1" offset="0"/>
   <stop style="stop-color:#367ede" offset="1"/>
  </radialGradient>
 </defs>
</svg>
