<svg style="clip-rule:evenodd;fill-rule:evenodd;stroke-linejoin:round;stroke-miterlimit:2" version="1.1" viewBox="0 0 48 48" xmlns="http://www.w3.org/2000/svg">
 <circle cx="24" cy="24" r="22.764" style="fill:url(#_Linear1)"/>
 <path d="m24.033 6.659c-0.656-4e-3 -1.322 0.121-1.966 0.389-2.578 1.072-3.791 4.009-2.721 6.587 1.072 2.578 4.01 3.791 6.587 2.719 2.578-1.071 3.791-4.009 2.721-6.587-0.804-1.933-2.657-3.098-4.621-3.108zm-0.033 2.734c1.266 0 2.308 1.042 2.308 2.309 0 1.266-1.042 2.307-2.308 2.307s-2.308-1.041-2.308-2.307c0-1.267 1.042-2.309 2.308-2.309z" style="fill:url(#_Radial2)"/>
 <path d="m24.03 6.51c-0.576-3e-3 -1.162 0.102-1.728 0.32-0.222 0.086-0.336 0.341-0.251 0.566l0.771 2.044c0.063 0.169 0.226 0.281 0.406 0.281 0.053 0 0.105-0.01 0.154-0.027 0.197-0.077 0.407-0.116 0.618-0.116 0.21 0 0.418 0.04 0.616 0.117 0.049 0.018 0.102 0.028 0.155 0.028 0.18 0 0.342-0.112 0.405-0.281l0.773-2.047c0.019-0.05 0.028-0.103 0.028-0.156 0-0.182-0.111-0.345-0.28-0.41-0.526-0.202-1.089-0.316-1.667-0.319zm-4.494 3.213c-0.181 1e-3 -0.343 0.113-0.407 0.28-0.219 0.567-0.323 1.152-0.32 1.729s0.116 1.14 0.319 1.667c0.064 0.168 0.228 0.28 0.41 0.28 0.052 0 0.105-0.01 0.156-0.029l2.046-0.772c0.17-0.064 0.283-0.225 0.283-0.405 0-0.053-0.01-0.107-0.03-0.156-0.076-0.197-0.116-0.405-0.117-0.616 0-0.212 0.04-0.421 0.116-0.618 0.019-0.049 0.029-0.102 0.029-0.154 0-0.18-0.114-0.342-0.283-0.406l-2.044-0.771c-0.051-0.02-0.105-0.029-0.158-0.029zm8.928 0c-0.053 0-0.107 9e-3 -0.158 0.029l-2.044 0.771c-0.169 0.064-0.283 0.226-0.283 0.406 0 0.052 0.01 0.105 0.029 0.154 0.076 0.197 0.116 0.406 0.116 0.618-1e-3 0.211-0.041 0.419-0.117 0.616-0.02 0.049-0.03 0.103-0.03 0.156 0 0.18 0.113 0.341 0.283 0.405l2.046 0.772c0.051 0.019 0.104 0.029 0.156 0.029 0.182 0 0.346-0.112 0.41-0.28 0.203-0.527 0.316-1.09 0.319-1.667s-0.101-1.162-0.32-1.729c-0.064-0.167-0.226-0.279-0.407-0.28zm-3.678 3.957c-0.059-2e-3 -0.117 7e-3 -0.17 0.028-0.198 0.076-0.406 0.116-0.616 0.116-0.211 0-0.421-0.039-0.618-0.114-0.049-0.019-0.101-0.029-0.154-0.029-0.18 0-0.343 0.112-0.406 0.282l-0.771 2.044c-0.085 0.225 0.029 0.48 0.251 0.565 0.566 0.219 1.152 0.323 1.728 0.32 0.578-3e-3 1.141-0.116 1.667-0.319 0.169-0.064 0.28-0.228 0.28-0.409 0-0.054-9e-3 -0.107-0.028-0.156l-0.773-2.047c-0.061-0.165-0.216-0.276-0.39-0.281z" style="fill-rule:nonzero;fill:url(#_Radial3)"/>
 <path d="m28.273 21.019c0-1.253-1.017-2.27-2.269-2.27h-4.539c-1.253 0-2.269 1.017-2.269 2.27v17.826c0 1.252 1.016 2.269 2.269 2.269h4.539c1.252 0 2.269-1.017 2.269-2.269v-17.826z" style="fill:#05f"/>
 <path d="m23.336 13.341h-0.126c-0.118 0-0.213-0.096-0.213-0.214v-0.361c-0.507-0.128-0.653-0.429-0.653-1.048 0-0.915 0.742-1.657 1.656-1.657s1.656 0.742 1.656 1.657c0 0.61-0.155 0.91-0.652 1.042v0.365c0 0.12-0.096 0.215-0.214 0.215h-0.125c-0.117 0-0.214-0.095-0.214-0.215v-0.287c-0.056 5e-3 -0.113 6e-3 -0.174 9e-3v0.28c0 0.118-0.096 0.213-0.214 0.213h-0.125c-0.118 0-0.214-0.095-0.214-0.213v-0.28c-0.061-1e-3 -0.119-3e-3 -0.175-6e-3v0.286c0 0.118-0.096 0.214-0.213 0.214zm-0.022-2.297c0.281 0.11 0.509 0.22 0.509 0.493 0 0.272-0.185 0.324-0.509 0.492-0.249 0.13-0.509-0.22-0.509-0.492 0-0.273 0.247-0.595 0.509-0.493zm1.366 0c0.27-0.076 0.508 0.22 0.508 0.493 0 0.272-0.267 0.637-0.508 0.492-0.297-0.175-0.509-0.22-0.509-0.492 0-0.273 0.199-0.405 0.509-0.493z" style="fill:#05f"/>
 <defs>
  <linearGradient id="_Linear1" x2="1" gradientTransform="matrix(2.78714e-15,-45.5174,45.5174,2.78714e-15,76.8425,46.7535)" gradientUnits="userSpaceOnUse">
   <stop style="stop-color:#c2c2c2" offset="0"/>
   <stop style="stop-color:#fff" offset="1"/>
  </linearGradient>
  <radialGradient id="_Radial2" cx="0" cy="0" r="1" gradientTransform="matrix(5.04274,0,0,5.04287,24,11.701)" gradientUnits="userSpaceOnUse">
   <stop style="stop-color:#dbdbdb" offset="0"/>
   <stop style="stop-color:#b7b7b7" offset="1"/>
  </radialGradient>
  <radialGradient id="_Radial3" cx="0" cy="0" r="1" gradientTransform="matrix(5.19142,0,0,5.19142,24,11.7011)" gradientUnits="userSpaceOnUse">
   <stop style="stop-color:#0121b1" offset="0"/>
   <stop style="stop-color:#05f" offset="1"/>
  </radialGradient>
 </defs>
</svg>
