<svg clip-rule="evenodd" fill-rule="evenodd" stroke-linejoin="round" stroke-miterlimit="2" viewBox="0 0 48 48" xmlns="http://www.w3.org/2000/svg">
 <linearGradient id="a" x2="1" gradientTransform="matrix(0 -36.2165 36.2165 0 275.714 42.119)" gradientUnits="userSpaceOnUse">
  <stop stop-color="#313738" offset="0"/>
  <stop stop-color="#535552" offset="1"/>
 </linearGradient>
 <path d="m39.44 2.332c3.438 0 6.228 2.79 6.228 6.228v30.88c0 3.438-2.79 6.228-6.228 6.228h-30.88c-3.438 0-6.228-2.79-6.228-6.228v-30.88c0-3.438 2.79-6.228 6.228-6.228z" fill="url(#a)"/>
 <path d="m2.332 9.588v-1.028c0-3.438 2.79-6.228 6.228-6.228h30.88c3.438 0 6.228 2.79 6.228 6.228v1.028z" fill="#ebebeb" fill-opacity=".1"/>
 <path d="m45.668 38.412v1.028c0 3.438-2.79 6.228-6.228 6.228h-30.88c-3.438 0-6.228-2.79-6.228-6.228v-1.028z" fill-opacity=".2"/>
 <g fill="#0f0">
  <path d="m9.011 28.08c.342 0 .599.107.77.32.171.214.256.514.256.899 0 .446-.056.8-.169 1.063-.113.26-.287.465-.523.614-.234.15-.564.284-.985.404l-.087-.289c.449-.122.788-.287 1.017-.495s.346-.495.349-.862c-.077.113-.18.206-.312.28-.131.073-.281.11-.449.11-.171 0-.324-.04-.459-.119-.133-.083-.239-.2-.316-.353-.073-.153-.11-.33-.11-.532 0-.22.045-.408.133-.564.092-.156.215-.273.367-.353.153-.082.325-.123.518-.123zm24.784-.005c.337 0 .592.14.766.422.177.277.266.68.266 1.205 0 .529-.089.933-.266 1.215-.174.277-.429.417-.766.417-.336 0-.593-.14-.77-.417-.174-.282-.261-.686-.261-1.215 0-.525.087-.928.261-1.205.177-.282.434-.422.77-.422zm-27.349 1.155c.168 0 .32.037.454.11s.242.185.32.335c.08.146.12.328.12.545 0 .226-.044.424-.133.596-.086.168-.205.296-.358.385-.149.089-.316.133-.499.133-.367 0-.633-.133-.798-.399s-.247-.646-.247-1.141c0-.349.045-.651.137-.908.095-.259.229-.46.403-.6.175-.14.384-.211.628-.211.229 0 .438.062.624.188l-.147.257c-.149-.089-.31-.133-.481-.133-.241 0-.431.114-.569.343-.137.227-.209.535-.215.926.098-.149.21-.258.335-.325s.267-.101.426-.101zm16.49 0c.167 0 .319.037.453.11s.242.185.321.335c.079.146.119.328.119.545 0 .226-.044.424-.132.596-.087.168-.206.296-.358.385-.15.089-.316.133-.5.133-.366 0-.632-.133-.797-.399s-.248-.646-.248-1.141c0-.349.046-.651.138-.908.094-.259.229-.46.403-.6s.383-.211.628-.211c.229 0 .437.062.624.188l-.147.257c-.15-.089-.311-.133-.481-.133-.242 0-.431.114-.569.343-.137.227-.21.535-.215.926.097-.149.209-.258.334-.325s.267-.101.427-.101zm-8.245 0c.168 0 .319.037.454.11.134.073.241.185.321.335.079.146.119.328.119.545 0 .226-.045.424-.133.596-.086.168-.205.296-.357.385-.151.089-.317.133-.5.133-.367 0-.633-.133-.798-.399s-.247-.646-.247-1.141c0-.349.046-.651.137-.908.095-.259.23-.46.404-.6s.383-.211.628-.211c.229 0 .436.062.623.188l-.147.257c-.15-.089-.31-.133-.481-.133-.242 0-.431.114-.568.343-.138.227-.21.535-.216.926.098-.149.209-.258.335-.325.125-.067.267-.101.426-.101zm11.657-.797h-1.246v.999c.091-.053.179-.087.266-.106.088-.021.181-.032.279-.032.262 0 .472.087.628.261.156.175.234.418.234.729 0 .208-.045.392-.133.55-.086.159-.21.283-.371.371-.16.086-.346.129-.559.129-.352 0-.656-.126-.913-.376l.234-.229c.097.101.202.176.312.224.11.046.234.069.371.069.211 0 .372-.062.486-.188.115-.128.174-.314.174-.559 0-.241-.052-.414-.156-.518-.101-.107-.238-.16-.412-.16-.089 0-.169.009-.239.027-.07.016-.155.041-.256.078h-.307v-1.572h1.668zm-8.097.018h-1.348v1.068h1.169v.325h-1.169v1.123h1.435v.316h-1.829v-3.153h1.787zm12.654-.376c.195 0 .363.039.504.115.143.076.253.181.33.316.076.135.115.286.115.454 0 .192-.046.38-.138.563-.088.184-.232.387-.43.61-.199.22-.481.495-.844.825h1.485l-.046.325h-1.874v-.311c.415-.397.722-.706.921-.926.198-.223.336-.414.413-.573.076-.159.114-.327.114-.504s-.05-.316-.151-.417c-.098-.104-.236-.156-.413-.156-.15 0-.275.026-.375.078-.101.048-.204.135-.307.256l-.266-.201c.128-.156.268-.271.421-.344s.333-.11.541-.11zm-8.066 2.952c.196 0 .344-.069.445-.207.104-.14.156-.336.156-.586 0-.248-.05-.425-.147-.532-.095-.107-.233-.16-.412-.16-.147 0-.28.039-.399.119-.116.08-.217.19-.303.33.006.36.061.623.165.788s.269.248.495.248zm-16.489 0c.196 0 .343-.069.444-.207.105-.14.156-.336.156-.586 0-.248-.049-.425-.147-.532-.094-.107-.232-.16-.412-.16-.147 0-.28.039-.399.119-.115.08-.216.19-.302.33.006.36.061.623.165.788s.269.248.495.248zm27.445-2.64c-.421 0-.632.438-.632 1.315 0 .883.211 1.325.632 1.325.422 0 .633-.442.633-1.325 0-.877-.211-1.315-.633-1.315zm-19.2 2.64c.195 0 .344-.069.445-.207.103-.14.155-.336.155-.586 0-.248-.049-.425-.146-.532-.096-.107-.233-.16-.413-.16-.146 0-.279.039-.399.119-.116.08-.217.19-.302.33.005.36.06.623.165.788.104.165.269.248.495.248zm-5.644-1.206c.147 0 .275-.036.385-.11.114-.076.217-.185.312-.325.003-.364-.046-.621-.147-.77-.101-.15-.264-.225-.49-.225-.205 0-.361.063-.468.188-.103.126-.156.31-.156.555 0 .232.05.405.147.518.098.112.237.169.417.169zm16.55-7.471c.341 0 .598.108.77.321.17.214.256.514.256.899 0 .446-.057.8-.169 1.063-.114.259-.288.465-.523.614-.235.15-.564.284-.985.403l-.087-.288c.449-.122.788-.287 1.017-.495s.345-.495.348-.862c-.077.113-.18.206-.311.28-.132.073-.282.11-.449.11-.172 0-.325-.04-.459-.12-.134-.082-.24-.199-.316-.352-.073-.154-.11-.33-.11-.532 0-.22.044-.408.133-.564.092-.156.214-.273.367-.353.152-.082.325-.124.518-.124zm-8.195-.004c.336 0 .592.14.766.422.177.277.266.68.266 1.205 0 .529-.089.933-.266 1.215-.174.277-.43.417-.766.417s-.593-.14-.77-.417c-.174-.282-.261-.686-.261-1.215 0-.525.087-.928.261-1.205.177-.282.434-.422.77-.422zm-10.86 1.155c.168 0 .32.037.454.11s.242.185.32.334c.08.147.12.329.12.546 0 .226-.044.424-.133.596-.086.167-.205.296-.358.385-.149.089-.316.133-.499.133-.367 0-.633-.133-.798-.399s-.247-.646-.247-1.141c0-.349.045-.651.137-.908.095-.259.229-.46.403-.6.175-.141.384-.211.628-.211.229 0 .438.062.624.188l-.147.256c-.149-.088-.31-.132-.481-.132-.241 0-.431.114-.569.343-.137.227-.209.535-.215.926.098-.149.21-.258.335-.325s.267-.101.426-.101zm16.49 0c.167 0 .319.037.453.11s.242.185.321.334c.079.147.119.329.119.546 0 .226-.044.424-.132.596-.087.167-.206.296-.358.385-.15.089-.316.133-.5.133-.366 0-.632-.133-.797-.399s-.248-.646-.248-1.141c0-.349.046-.651.138-.908.094-.259.229-.46.403-.6.174-.141.383-.211.628-.211.229 0 .437.062.624.188l-.147.256c-.15-.088-.311-.132-.481-.132-.242 0-.431.114-.569.343-.137.227-.21.535-.215.926.097-.149.209-.258.334-.325s.267-.101.427-.101zm16.489 0c.167 0 .319.037.453.11.135.073.242.185.321.334.08.147.119.329.119.546 0 .226-.044.424-.132.596-.086.167-.205.296-.358.385-.149.089-.316.133-.5.133-.366 0-.632-.133-.797-.399s-.248-.646-.248-1.141c0-.349.046-.651.138-.908.094-.259.229-.46.403-.6.174-.141.383-.211.628-.211.229 0 .437.062.624.188l-.147.256c-.15-.088-.31-.132-.481-.132-.241 0-.431.114-.569.343-.137.227-.209.535-.215.926.098-.149.209-.258.334-.325.126-.067.268-.101.427-.101zm-24.312-.784h-1.481v-.316h1.866v.289l-1.261 2.905-.352-.105zm16.489 0h-1.481v-.316h1.866v.289l-1.261 2.905-.352-.105zm2.831 2.837h-.372v-.77h-1.311v-.275l.931-2.163.316.137-.843 1.999h.912l.032-.899h.335v.899h.407v.302h-.407zm-25.037-.311h.66v.311h-1.82v-.311h.779v-2.43l-.724.436-.165-.271.935-.577h.335zm32.979 0h.66v.311h-1.82v-.311h.779v-2.43l-.724.436-.165-.271.935-.577h.335zm-25.069-2.585c-.421 0-.632.438-.632 1.315 0 .883.211 1.325.632 1.325.422 0 .633-.442.633-1.325 0-.877-.211-1.315-.633-1.315zm-10.956 2.64c.196 0 .343-.069.444-.207.105-.14.156-.336.156-.586 0-.248-.049-.425-.147-.532-.094-.107-.232-.16-.412-.16-.147 0-.28.039-.399.119-.115.079-.216.189-.302.33.006.36.061.623.165.788s.269.248.495.248zm32.978 0c.196 0 .344-.069.445-.207.104-.14.156-.336.156-.586 0-.248-.049-.425-.147-.532-.094-.107-.232-.16-.412-.16-.147 0-.28.039-.399.119-.116.079-.217.189-.303.33.007.36.062.623.165.788.104.165.269.248.495.248zm-16.489 0c.196 0 .344-.069.445-.207.104-.14.156-.336.156-.586 0-.248-.05-.425-.147-.532-.095-.107-.233-.16-.412-.16-.147 0-.28.039-.399.119-.116.079-.217.189-.303.33.006.36.061.623.165.788s.269.248.495.248zm2.602-1.206c.147 0 .275-.037.385-.11.113-.076.216-.185.312-.325.002-.364-.046-.621-.147-.77-.101-.15-.265-.225-.49-.225-.206 0-.362.062-.468.188-.104.126-.156.31-.156.555 0 .232.049.405.147.518.097.112.236.169.417.169zm-19.128-7.475c.336 0 .591.14.765.421.178.278.266.681.266 1.206 0 .529-.088.933-.266 1.214-.174.278-.429.417-.765.417s-.592-.139-.77-.417c-.174-.281-.261-.685-.261-1.214 0-.525.087-.928.261-1.206.178-.281.434-.421.77-.421zm27.482 0c.337 0 .592.14.766.421.177.278.266.681.266 1.206 0 .529-.089.933-.266 1.214-.174.278-.429.417-.766.417-.336 0-.593-.139-.77-.417-.174-.281-.261-.685-.261-1.214 0-.525.087-.928.261-1.206.177-.281.434-.421.77-.421zm-16.223 0c.198 0 .367.025.504.078.141.048.276.125.408.229l-.22.256c-.189-.155-.411-.233-.664-.233-.288 0-.522.103-.701.311-.178.205-.266.534-.266.986 0 .446.087.774.261.985.177.208.411.312.701.312.159 0 .294-.023.408-.069.116-.048.225-.114.326-.197l.201.261c-.104.101-.234.184-.389.248-.156.061-.34.091-.55.091-.261 0-.494-.062-.702-.187-.205-.129-.366-.315-.485-.56-.12-.244-.179-.539-.179-.884 0-.342.059-.635.179-.88.121-.248.285-.434.49-.559.204-.126.431-.188.678-.188zm5.364 1.155c.167 0 .319.036.453.11.134.073.242.185.321.334.079.147.119.328.119.546 0 .226-.044.424-.132.596-.087.167-.206.296-.358.385-.15.088-.316.132-.5.132-.366 0-.632-.132-.797-.398s-.248-.647-.248-1.142c0-.348.046-.65.138-.907.094-.259.229-.46.403-.6.174-.141.383-.211.628-.211.229 0 .437.062.624.188l-.147.256c-.15-.089-.311-.133-.481-.133-.242 0-.431.115-.569.344-.137.227-.21.535-.215.926.097-.149.209-.259.334-.325.125-.067.267-.101.427-.101zm18.962-1.155c.192 0 .362.036.509.11.146.07.259.167.339.288.08.12.119.251.119.395 0 .183-.06.343-.179.481-.119.135-.266.218-.44.252.202.016.371.09.509.225.14.134.211.318.211.55 0 .18-.046.343-.138.49-.091.144-.222.258-.389.344-.165.082-.355.123-.569.123-.186 0-.366-.033-.54-.1-.172-.071-.314-.176-.427-.317l.257-.21c.085.103.191.183.316.238.126.052.254.078.385.078.22 0 .393-.058.518-.174.126-.117.188-.274.188-.472 0-.401-.218-.601-.655-.601h-.266l.046-.302h.188c.165 0 .305-.048.421-.142.119-.095.179-.232.179-.413 0-.168-.057-.3-.17-.394-.112-.095-.256-.142-.43-.142-.132 0-.25.025-.353.073-.101.046-.207.119-.317.22l-.206-.234c.254-.244.552-.366.894-.366zm-16.012 2.896h.66v.312h-1.82v-.312h.779v-2.429l-.724.436-.165-.271.935-.577h.335zm5.019-2.896c.195 0 .363.038.504.114.143.076.253.182.33.317.076.134.115.286.115.453 0 .193-.046.381-.138.564-.088.183-.232.387-.43.61-.199.22-.481.495-.844.825h1.485l-.046.325h-1.874v-.312c.415-.397.722-.705.921-.925.198-.223.336-.415.413-.573.076-.159.114-.328.114-.505 0-.176-.05-.316-.151-.417-.098-.103-.236-.155-.413-.155-.15 0-.275.025-.375.077-.101.049-.204.135-.307.257l-.266-.202c.128-.155.268-.27.421-.343.153-.074.333-.11.541-.11zm9.024 3.208h-.371v-.77h-1.311v-.275l.93-2.163.316.137-.843 1.999h.912l.032-.899h.335v.899h.408v.302h-.408zm-24.734 0h-.371v-.77h-1.311v-.275l.931-2.163.316.137-.843 1.999h.912l.032-.899h.334v.899h.408v.302h-.408zm-6.817 0h-.435l.893-1.274-.783-1.137h.449l.564.899.568-.899h.435l-.779 1.119.889 1.292h-.467l-.665-1.036zm14.461-.257c.196 0 .344-.068.445-.206.104-.14.156-.336.156-.587 0-.247-.05-.424-.147-.531-.095-.107-.233-.161-.412-.161-.147 0-.28.04-.399.12-.116.079-.217.189-.303.33.006.36.061.623.165.788s.269.247.495.247zm10.956-2.64c-.421 0-.632.439-.632 1.316 0 .883.211 1.324.632 1.324.422 0 .633-.441.633-1.324 0-.877-.211-1.316-.633-1.316zm-27.482 0c-.422 0-.633.439-.633 1.316 0 .883.211 1.324.633 1.324s.632-.441.632-1.324c0-.877-.21-1.316-.632-1.316z" fill-rule="nonzero"/>
  <path d="m9.036 11.852c.21-.264.616-.253.814-.061.198.193.188.568-.025.937-.15.278-.523.549-.832.728-.299-.195-.657-.486-.792-.771-.193-.381-.183-.756.025-.937.208-.183.615-.171.81.104zm.347.188c.098.017.177.083.175.179-.003.096-.085.169-.185.169-.115.001-.177-.083-.174-.178.002-.097.066-.19.184-.17zm-.708-.018c.114-.016.178.084.176.18-.003.096-.043.165-.185.169-.099.002-.177-.083-.175-.179.003-.096.086-.156.184-.17z"/>
  <path d="m6.077 13.537h-.076c-.072 0-.129-.059-.129-.13v-.219c-.309-.078-.397-.261-.397-.637 0-.555.45-1.006 1.006-1.006.555 0 1.005.451 1.005 1.006 0 .37-.094.553-.396.633v.222c0 .072-.058.13-.13.13h-.075c-.072 0-.131-.058-.131-.13v-.174c-.034.002-.068.003-.105.005v.17c0 .071-.058.129-.13.129h-.076c-.072 0-.13-.058-.13-.129v-.17c-.037-.001-.072-.002-.106-.004v.174c0 .071-.059.13-.13.13zm-.013-1.395c.171.066.309.134.309.3 0 .164-.112.196-.309.298-.152.079-.309-.134-.309-.298 0-.166.15-.362.309-.3zm.83 0c.164-.047.308.134.308.3 0 .164-.162.386-.308.298-.18-.106-.309-.134-.309-.298 0-.166.12-.247.309-.3z"/>
  <path d="m11.049 11.92.303.32.478-.453.383.403-.479.454.304.32c.103.109.102.278-.002.376-.105.098-.273.09-.376-.018l-.303-.32-.48.454-.383-.403.48-.431-.303-.345c-.103-.108-.102-.277.002-.375.105-.099.273-.091.376.018z"/>
  <path d="m13.813 11.848.004-.123.439.012-.004.122.237.007c.228.006.408.196.402.424l-.022.826c-.006.228-.196.408-.424.402l-.913-.025c-.228-.006-.408-.196-.402-.424l.022-.826c.006-.228.197-.408.425-.402zm-.132.359c.119.003.212.102.209.22s-.102.212-.22.209-.212-.102-.208-.22c.002-.119.101-.212.219-.209zm.732.019c.118.004.212.102.209.221-.003.118-.102.212-.221.209-.118-.003-.212-.102-.208-.221.003-.118.101-.212.22-.209z"/>
 </g>
</svg>
