<svg clip-rule="evenodd" fill-rule="evenodd" stroke-linejoin="round" stroke-miterlimit="2" viewBox="0 0 48 48" xmlns="http://www.w3.org/2000/svg">
 <linearGradient id="a" x2="1" gradientTransform="matrix(0 -40.3176 40.3176 0 24 44.3077)" gradientUnits="userSpaceOnUse">
  <stop stop-color="#2a2a2a" offset="0"/>
  <stop stop-color="#3f3f3f" offset="1"/>
 </linearGradient>
 <path d="m20.094 4c-.613 0-9.701 5.099-10.033 5.623-.142.224-.167 1.06-.055 1.857.463 3.298-.939 5.526-4.135 6.905l-1.871.806v5.647c0 3.106.12 5.767.266 5.914.855.86 7.152-.657 9.705-2.338l1.183-.781-.123-2.623c-.099-2.111.027-2.95.639-4.303 1.021-2.256 2.914-4.075 5.17-4.969 1.601-.634 1.891-.894 2.078-1.867.416-2.163-.815-7.916-2.02-9.439-.187-.238-.549-.432-.804-.432zm7.812 0c-.255 0-.617.194-.804.432-1.205 1.523-2.436 7.276-2.02 9.439.187.973.477 1.233 2.078 1.867 2.256.894 4.149 2.713 5.17 4.969.612 1.353.738 2.192.639 4.303l-.123 2.623 1.183.781c2.553 1.681 8.85 3.198 9.705 2.338.146-.147.266-2.808.266-5.914v-5.647l-1.871-.806c-3.196-1.379-4.497-3.607-4.033-6.905.112-.797.087-1.633-.055-1.857-.332-.524-9.522-5.623-10.135-5.623zm-11.47 26-1.647.871c-2.111 1.118-6.423 5.182-6.709 6.324-.288 1.153-.066 1.339 5.209 4.362 1.523.872 2.979 1.646 3.94 2.105.754.327 1.088.671 1.64-.291.772-.894 2.412-2.291 5.131-2.291 2.494 0 4.157 1.176 5.057 2.061.611.71.74 1.184 1.816.509.975-.496 2.539-1.354 4.223-2.324 6.049-3.485 6.057-3.508 2.439-7.039-1.441-1.406-3.362-2.946-4.269-3.422l-1.651-.863-1.742 1.266c-2.172 1.577-3.662 2.092-5.992 2.072-2.321-.02-4.057-.648-5.945-2.149z" fill="url(#a)" fill-rule="nonzero"/>
 <circle cx="24" cy="24" r="10" fill="#fff"/>
</svg>
