<svg clip-rule="evenodd" fill-rule="evenodd" stroke-linejoin="round" stroke-miterlimit="2" viewBox="0 0 48 48" xmlns="http://www.w3.org/2000/svg">
 <g fill-rule="nonzero">
  <path d="m13.29 41.557c-5.275-3.023-5.498-3.209-5.209-4.362.285-1.142 4.597-5.206 6.708-6.324l1.647-.871 1.499 1.192c1.889 1.5 3.625 2.127 5.946 2.147 2.33.02 3.82-.495 5.992-2.072l1.742-1.265 1.65.864c.908.476 2.829 2.015 4.27 3.421 3.619 3.531 3.611 3.554-2.439 7.039-1.684.97-3.248 1.828-4.223 2.325-1.076.675-1.205.199-1.816-.511-.899-.884-2.563-2.059-5.057-2.059-2.719 0-4.359 1.396-5.131 2.29-.552.962-.886.618-1.64.291-.961-.459-2.416-1.233-3.939-2.105z" fill="#163abd"/>
  <path d="m4.266 30.752c-.146-.147-.266-2.808-.266-5.914v-5.647l1.871-.807c3.196-1.379 4.598-3.606 4.135-6.904-.112-.798-.088-1.633.054-1.857.332-.524 9.421-5.623 10.034-5.623.255 0 .617.194.804.432 1.205 1.523 2.435 7.275 2.019 9.438-.187.974-.477 1.234-2.078 1.868-2.256.894-4.149 2.713-5.17 4.97-.612 1.352-.736 2.192-.637 4.303l.123 2.623-1.184.779c-2.552 1.681-8.85 3.198-9.705 2.339z" fill="#0873ff"/>
  <path d="m43.734 30.752c.146-.147.266-2.808.266-5.914v-5.647l-1.871-.807c-3.196-1.379-4.497-3.606-4.034-6.904.112-.798.088-1.633-.054-1.857-.332-.524-9.522-5.623-10.135-5.623-.255 0-.617.194-.804.432-1.205 1.523-2.435 7.275-2.019 9.438.187.974.477 1.234 2.078 1.868 2.256.894 4.149 2.713 5.17 4.97.612 1.352.736 2.192.637 4.303l-.123 2.623 1.184.779c2.552 1.681 8.85 3.198 9.705 2.339z" fill="#2db3f6"/>
 </g>
 <circle cx="24" cy="24" r="10" fill="#fff"/>
</svg>
