<svg clip-rule="evenodd" fill-rule="evenodd" stroke-linejoin="round" stroke-miterlimit="1.41421" viewBox="0 0 48 48" xmlns="http://www.w3.org/2000/svg">
 <linearGradient id="a" x2="1" gradientTransform="matrix(14.0537 -31.643 31.643 14.0537 19.8874 40.487)" gradientUnits="userSpaceOnUse">
  <stop stop-color="#079c07" offset="0"/>
  <stop stop-color="#afa" offset="1"/>
 </linearGradient>
 <linearGradient id="b" x2="1" gradientTransform="matrix(14.0537 -31.643 31.643 14.0537 19.8874 40.487)" gradientUnits="userSpaceOnUse">
  <stop stop-color="#005200" offset="0"/>
  <stop stop-color="#afa" offset="1"/>
 </linearGradient>
 <linearGradient id="c" x2="1" gradientTransform="matrix(-.85867 -48.3309 48.3309 -.85867 22.9092 46.7468)" gradientUnits="userSpaceOnUse">
  <stop stop-color="#e9e9e9" offset="0"/>
  <stop stop-color="#f9f9f9" offset="1"/>
 </linearGradient>
 <linearGradient id="d" x2="1" gradientTransform="matrix(-.85867 -48.3309 48.3309 -.85867 22.9092 46.7468)" gradientUnits="userSpaceOnUse">
  <stop stop-color="#fdfeff" offset="0"/>
  <stop stop-color="#b9b9b9" offset="1"/>
 </linearGradient>
 <linearGradient id="e" x2="1" gradientTransform="matrix(-.85867 -48.3309 48.3309 -.85867 22.9092 46.7468)" gradientUnits="userSpaceOnUse">
  <stop stop-color="#d0d0d0" offset="0"/>
  <stop stop-color="#fff" offset="1"/>
 </linearGradient>
 <path d="m46.5 21.915-37.105-12.183-8.524 25.963 37.105 12.182z" fill="#fff"/>
 <path d="m2.572 34.038 7.445-22.045 13.918 15.387 20.003-4.25s-7.048 21.454-7.362 22.298c-.132.357-.701.546-1.06.42l-15.984-5.609-16.364-5.271c-.35-.113-.714-.581-.596-.93z" fill="url(#a)"/>
 <path d="m10.373 10.848 13.956 15.029 19.816-3.941z" fill="url(#b)"/>
 <g fill-rule="nonzero">
  <path d="m3.356 33.467c-3.012-3.748-2.36-6.001-1.938-11.019.579-6.877 4.06-12.656 10.664-16.485" fill="url(#c)"/>
  <path d="m6.863 22.413c12.891 11.639.541 8.54 10.219 17.943-.645-.013-4.996-1.215-8.681-3.658.111.19.233.383.368.576 1.013 1.463 1.019 1.291-.267.859-2.227-.749-5.213-2.338-5.767-5.491-2.294-3.279-1.707-5.555-1.317-10.194.579-6.877 4.06-12.656 10.664-16.485z" fill="url(#d)"/>
  <path d="m18.559 1.668c-1.006.079-2.599.927-6.28 3.736-1.759 2.681-3.052 5.362-3.343 8.043.216 0 .511.859.753 2.194.183 1.006.16 1.296-.183 2.341-.375 1.142-.379 1.233-.078 2.139.346 1.044.799 1.38 1.117.828.556-.963 1.434-1.556 4.906-3.318 4.399-2.232 4.45-2.242 8.041-1.342 1.24.311 3.152.739 4.248.951 1.097.213 2.378.501 2.848.639.85.25.858.259 1.42 1.85.529 1.496.565 1.777.57 4.445-2.316 10.784 1.889 6.229-.92 14.117-1.711 2.704-2.6 3.793-3.607 4.418-2.499 2.021-.19.141-3.215 2.652-.305.352-.632.777-.322.752.965-.01 3.603-.457 4.543-.769 1.604-.534 1.853-.393.66.373-.538.345-.979.712-.979.814 0 .439 3.663-.571 6.055-1.67 6.331-2.908 11.188-9.125 12.471-15.965.401-2.136.367-5.658-.051-8.164.07-.088.148-.171.217-.261-1.855-6.858-6.649-12.669-12.795-15.508-2.76-1.275-8.797-2.456-11.908-2.33-2.551.101-2.875-1.067-4.168-.965z" fill="url(#e)"/>
  <path d="m13.058 15.409c-.07-.07-.282-.537-.282-.714.018-.633.237-1.061.999-1.355.917-.278 2.207.801.913 1.818-.465.367-1.374.506-1.63.251z" fill="#2e2118"/>
 </g>
 <ellipse cx="13.546" cy="14.241" rx=".42" ry=".403" fill="#fff"/>
</svg>
