
<svg style="clip-rule:evenodd;fill-rule:evenodd;stroke-linecap:square;stroke-linejoin:round;stroke-miterlimit:1.5" version="1.1" viewBox="0 0 64 64" xmlns="http://www.w3.org/2000/svg">
 <g transform="matrix(1.11828,0,0,1.11828,-425.053,-554.032)">
  <g transform="matrix(1.1489,0,0,1,-60.8367,0)">
   <path d="m408.571 501.3c-0.372-1e-3 -11.753 8.023-11.674 12.25 0.166 8.882-1.268 17.212 0.48 25.679 0.513 2.483 2.613 7.777 11.194 8.069 8.551-0.092 10.682-5.586 11.195-8.069 1.748-8.467 0.316-16.88 0.48-25.679 0.079-4.227-11.302-12.251-11.675-12.25z" style="fill-opacity:.666667;fill-rule:nonzero"/>
  </g>
  <g transform="matrix(1.1489,0,0,1,-60.8367,0)">
   <path d="m408.577 500.461c-7.817-0.01-11.848 8.078-11.767 12.337 0.267 14.117-1.271 17.362 0.49 25.891 0.517 2.501 2.864 7.823 11.277 8.109 8.028 0.273 10.76-5.608 11.276-8.109 1.762-8.529 0.324-17.097 0.491-25.891 0.081-4.259-3.951-12.347-11.767-12.337z" style="fill-rule:nonzero;fill:url(#_Linear1)"/>
  </g>
  <g transform="matrix(1.49646,0,0,1.23641,-202.839,-120.639)">
   <path d="m408.571 506.798c0.554 0 1 0.55 1 1.232v3.536c0 0.682-0.446 1.232-1 1.232s-1-0.55-1-1.232v-3.536c0-0.682 0.446-1.232 1-1.232z" style="fill-opacity:.784314;fill-rule:nonzero;fill:rgb(69,69,69)"/>
  </g>
  <g transform="matrix(1.49646,0,0,1.23641,-202.839,-120.639)">
   <path d="m408.571 507.798c0.554 0 1 0.55 1 1.232v3.536c0 0.682-0.446 1.232-1 1.232s-1-0.55-1-1.232v-3.536c0-0.682 0.446-1.232 1-1.232z" style="fill-opacity:.784314;fill-rule:nonzero;fill:rgb(15,15,15)"/>
  </g>
  <g transform="matrix(.894231 0 0 .894231 380.096 495.433)">
   <path d="m31.843 11.667l1e-3 -5.911" style="fill:none;stroke-width:.25px;stroke:rgb(86,86,86)"/>
  </g>
 </g>
 <defs>
  <linearGradient id="_Linear1" x2="1" gradientTransform="matrix(2.90804e-15,47.4919,-47.4919,2.90804e-15,422.115,499.896)" gradientUnits="userSpaceOnUse">
   <stop style="stop-color:rgb(200,200,200)" offset="0"/>
   <stop style="stop-color:rgb(140,140,140)" offset=".24"/>
   <stop style="stop-color:rgb(122,122,122)" offset=".5"/>
   <stop style="stop-color:rgb(132,132,132)" offset=".78"/>
   <stop style="stop-color:rgb(167,167,167)" offset="1"/>
  </linearGradient>
 </defs>
</svg>
