<?xml version="1.0" encoding="UTF-8" standalone="no"?><!DOCTYPE svg PUBLIC "-//W3C//DTD SVG 1.1//EN" "http://www.w3.org/Graphics/SVG/1.1/DTD/svg11.dtd"><svg width="100%" height="100%" viewBox="0 0 64 64" version="1.1" xmlns="http://www.w3.org/2000/svg" xmlns:xlink="http://www.w3.org/1999/xlink" xml:space="preserve" xmlns:serif="http://www.serif.com/" style="fill-rule:evenodd;clip-rule:evenodd;stroke-linejoin:round;stroke-miterlimit:1.41421;"><g><path d="M43.097,3.799l-22.919,0c-9.314,0 -16.892,7.578 -16.892,16.892l0,22.919c0,9.314 7.578,16.892 16.892,16.892l22.919,0c9.314,0 16.892,-7.578 16.892,-16.892l0,-22.919c0,-9.314 -7.578,-16.892 -16.892,-16.892Zm11.188,39.811c0,6.179 -5.009,11.188 -11.188,11.188l-22.919,0c-6.178,0 -11.187,-5.009 -11.187,-11.188l0,-22.919c0,-6.179 5.009,-11.187 11.187,-11.187l22.919,0c6.179,0 11.188,5.008 11.188,11.187l0,22.919Z" style="fill:url(#_Linear1);fill-rule:nonzero;"/><path d="M31.638,17.485c-8.087,0 -14.666,6.579 -14.666,14.666c0,8.086 6.579,14.665 14.666,14.665c8.086,0 14.665,-6.579 14.665,-14.665c0,-8.087 -6.579,-14.666 -14.665,-14.666Zm0,23.627c-4.949,0 -8.961,-4.012 -8.961,-8.961c0,-4.949 4.012,-8.961 8.961,-8.961c4.949,0 8.961,4.012 8.961,8.961c0,4.949 -4.012,8.961 -8.961,8.961Z" style="fill:url(#_Linear2);fill-rule:nonzero;"/><circle cx="46.331" cy="17.595" r="3.514" style="fill:url(#_Linear3);"/></g><defs><linearGradient id="_Linear1" x1="0" y1="0" x2="1" y2="0" gradientUnits="userSpaceOnUse" gradientTransform="matrix(3.43497e-15,-56.0973,56.0973,3.43497e-15,31.6377,60.337)"><stop offset="0" style="stop-color:#e09b3d;stop-opacity:1"/><stop offset="0.3" style="stop-color:#c74c4d;stop-opacity:1"/><stop offset="0.6" style="stop-color:#c21975;stop-opacity:1"/><stop offset="1" style="stop-color:#7024c4;stop-opacity:1"/></linearGradient><linearGradient id="_Linear2" x1="0" y1="0" x2="1" y2="0" gradientUnits="userSpaceOnUse" gradientTransform="matrix(3.43497e-15,-56.0973,56.0973,3.43497e-15,31.6377,60.337)"><stop offset="0" style="stop-color:#e09b3d;stop-opacity:1"/><stop offset="0.3" style="stop-color:#c74c4d;stop-opacity:1"/><stop offset="0.6" style="stop-color:#c21975;stop-opacity:1"/><stop offset="1" style="stop-color:#7024c4;stop-opacity:1"/></linearGradient><linearGradient id="_Linear3" x1="0" y1="0" x2="1" y2="0" gradientUnits="userSpaceOnUse" gradientTransform="matrix(3.43497e-15,-56.0973,56.0973,3.43497e-15,46.3314,60.337)"><stop offset="0" style="stop-color:#e09b3d;stop-opacity:1"/><stop offset="0.3" style="stop-color:#c74c4d;stop-opacity:1"/><stop offset="0.6" style="stop-color:#c21975;stop-opacity:1"/><stop offset="1" style="stop-color:#7024c4;stop-opacity:1"/></linearGradient></defs></svg>