<svg style="clip-rule:evenodd;fill-rule:evenodd;stroke-linejoin:round;stroke-miterlimit:2" version="1.1" viewBox="0 0 48 48" xmlns="http://www.w3.org/2000/svg">
 <circle cx="24" cy="24" r="22.764" style="fill:url(#_Linear1)"/>
 <path d="m29.447 32.282c-0.544 0-1.088-0.234-1.483-0.693-1.014-1.182-2.457-1.857-3.962-1.857-1.53 0-2.936 0.655-3.959 1.847-0.743 0.867-2.008 0.933-2.83 0.146-0.819-0.785-0.882-2.122-0.138-2.986 1.765-2.058 4.29-3.238 6.927-3.238 2.633 0 5.158 1.183 6.929 3.245 0.744 0.866 0.681 2.202-0.139 2.988-0.382 0.368-0.864 0.548-1.345 0.548zm4.444-5.292c-0.511 0-1.023-0.206-1.413-0.616-2.267-2.382-5.277-3.693-8.476-3.693-3.206 0-6.217 1.308-8.48 3.685-0.784 0.823-2.053 0.819-2.833-9e-3 -0.779-0.828-0.777-2.167 9e-3 -2.991 3.018-3.17 7.033-4.915 11.304-4.915 4.265 0 8.279 1.748 11.302 4.924 0.786 0.823 0.788 2.163 9e-3 2.992-0.391 0.413-0.907 0.623-1.421 0.623h-1e-3zm4.435-5.283c-0.498 0-0.998-0.197-1.386-0.588-3.497-3.54-8.091-5.489-12.938-5.489-4.856 0-9.452 1.946-12.94 5.483-0.797 0.808-2.066 0.781-2.832-0.062-0.767-0.843-0.74-2.183 0.057-2.991 4.238-4.295 9.818-6.66 15.715-6.66 5.885 0 11.463 2.368 15.71 6.664 0.798 0.808 0.825 2.148 0.06 2.991-0.394 0.433-0.92 0.652-1.446 0.652zm-14.575 15.693c1.336 0 2.42-1.085 2.42-2.424s-1.084-2.424-2.42-2.424-2.42 1.085-2.42 2.424 1.084 2.424 2.42 2.424z" style="fill-opacity:.85;fill-rule:nonzero;fill:#fff"/>
 <defs>
  <linearGradient id="_Linear1" x2="1" gradientTransform="matrix(2.78782e-15,-45.5286,45.5286,2.78782e-15,210.895,46.7643)" gradientUnits="userSpaceOnUse">
   <stop style="stop-color:#0a80fd" offset="0"/>
   <stop style="stop-color:#56c5fa" offset="1"/>
  </linearGradient>
 </defs>
</svg>
