<svg clip-rule="evenodd" fill-rule="evenodd" stroke-linejoin="round" stroke-miterlimit="2" viewBox="0 0 48 48" xmlns="http://www.w3.org/2000/svg">
 <linearGradient id="a" x2="1" gradientTransform="matrix(0 -45.5294 45.5294 0 210.898 46.7647)" gradientUnits="userSpaceOnUse">
  <stop stop-color="#c43929" offset="0"/>
  <stop stop-color="#d56150" offset="1"/>
 </linearGradient>
 <circle cx="24" cy="24" r="22.764" fill="url(#a)"/>
 <g fill-rule="nonzero">
  <path d="m15.026 17.016c.272 0 .503.071.691.212.189.13.283.292.283.487 0 .347-.105.629-.314.846-.21.206-.508.309-.895.309-.608 0-1.068.005-1.383.016-.021.13-.115.716-.282 1.756-.189 1.16-.304 1.87-.346 2.13l-.33 2.13c-.23 1.594-.413 2.927-.549 4 .219-.01.518-.016.895-.016.555 0 .932.076 1.131.228s.298.379.298.683c0 .282-.11.52-.33.715-.209.195-.508.293-.895.293-.262 0-.675-.011-1.241-.033-.523-.021-.869-.032-1.036-.032-.66 0-1.383.059-2.168.179-.346.054-.592.081-.738.081-.231 0-.424-.065-.581-.195s-.236-.32-.236-.569c0-.39.168-.694.503-.911s.806-.33 1.413-.341l.738-.017.048-.357c.251-1.735.434-2.96.549-3.675l.346-2.13c.209-1.258.398-2.553.565-3.886l-1.319.016c-.377 0-.639-.06-.785-.179-.137-.13-.205-.309-.205-.536 0-.738.513-1.133 1.54-1.187.481-.022 1.068-.033 1.759-.033z" fill="#fff"/>
  <path d="m40.051 27.931c.167-.066.305-.099.416-.099.178 0 .311.066.4.197.089.132.133.301.133.509 0 .328-.083.607-.25.837-.155.23-.427.438-.815.624-.655.306-1.504.552-2.547.738-1.043.175-2.07.263-3.079.263-1.399 0-2.569-.153-3.513-.46-.943-.317-1.647-.749-2.114-1.296-.455-.547-.682-1.165-.682-1.855 0-.941.305-1.74.915-2.396.622-.667 1.532-1.149 2.73-1.444-.654-.186-1.159-.515-1.514-.985-.344-.471-.516-.996-.516-1.576 0-.788.249-1.482.749-2.084.51-.613 1.193-1.083 2.047-1.412.854-.328 1.792-.492 2.813-.492 1.376 0 2.008.295 2.696.886.688.58 1.032 1.335 1.032 2.265 0 .646-.122 1.171-.367 1.576-.233.394-.571.591-1.015.591-.311 0-.555-.066-.732-.197-.178-.142-.267-.35-.267-.624 0-.186.028-.388.084-.607.055-.361.083-.607.083-.739 0-.394-.15-.711-.45-.952-.299-.251-.398-.377-1.097-.377-.943 0-1.698.197-2.264.591s-.849.924-.849 1.592c0 .514.211.941.633 1.28.432.328.731.509 1.697.541.244.011.416.066.516.165.099.098.149.262.149.492 0 .722-.333 1.089-.998 1.1-.921.022-1.287.147-1.897.377-.599.23-1.038.525-1.315.886-.266.351-.399.728-.399 1.133 0 .678.321 1.193.965 1.543.644.339 1.664.508 3.063.508.921 0 1.892-.103 2.913-.311 1.032-.219 1.914-.482 2.646-.788z" fill="#2f2f2f"/>
  <path d="m17.174 31c-.431 0-.737-.226-.919-.679-.17-.453-.255-1.178-.255-2.175 0-1.472.21-2.87.629-4.195.102-.328.267-.566.494-.713.238-.159.567-.238.986-.238.227 0 .386.028.477.085.09.057.136.164.136.323 0 .181-.085.588-.255 1.223-.114.452-.205.849-.273 1.189-.068.328-.124.741-.17 1.239.306-.883.669-1.63 1.089-2.242.431-.611.868-1.064 1.31-1.358.453-.306.879-.459 1.276-.459s.674.091.833.272c.17.181.255.458.255.832 0 .362-.107 1.019-.323 1.97-.091.408-.153.714-.187.917.567-1.392 1.196-2.406 1.888-3.04s1.338-.951 1.939-.951c.738 0 1.106.368 1.106 1.104 0 .442-.125 1.24-.374 2.395-.216.985-.323 1.636-.323 1.953 0 .453.164.68.493.68.227 0 .493-.136.8-.408.317-.283.737-.736 1.258-1.359.136-.158.29-.238.46-.238.147 0 .261.068.34.204.091.136.136.323.136.561 0 .453-.108.804-.323 1.053-.488.6-1.015 1.092-1.582 1.477-.556.385-1.191.578-1.905.578-.579 0-1.015-.164-1.31-.493-.295-.339-.443-.826-.443-1.46 0-.317.08-.884.239-1.699.147-.713.221-1.206.221-1.478 0-.181-.063-.271-.187-.271-.148 0-.358.192-.63.577-.272.374-.544.872-.816 1.495-.273.623-.494 1.279-.664 1.97-.125.544-.272.906-.442 1.087-.159.181-.42.272-.783.272-.374 0-.657-.176-.85-.527-.182-.362-.272-.798-.272-1.307 0-.431.056-1.053.17-1.869.091-.724.136-1.2.136-1.427 0-.181-.062-.271-.187-.271-.17 0-.386.204-.647.611-.26.408-.516.929-.765 1.563-.238.634-.431 1.257-.578 1.868-.125.532-.273.895-.443 1.087-.159.181-.414.272-.765.272z" fill="#fff"/>
 </g>
</svg>
