<svg style="clip-rule:evenodd;fill-rule:evenodd;stroke-linejoin:round;stroke-miterlimit:2" version="1.1" viewBox="0 0 48 48" xmlns="http://www.w3.org/2000/svg">
 <circle cx="24" cy="24" r="22.764" style="fill:url(#_Linear1)"/>
 <path d="m15.026 17.016c0.272 0 0.503 0.071 0.691 0.212 0.189 0.13 0.283 0.292 0.283 0.487 0 0.347-0.105 0.629-0.314 0.846-0.21 0.206-0.508 0.309-0.895 0.309-0.608 0-1.068 5e-3 -1.383 0.016-0.021 0.13-0.115 0.716-0.282 1.756-0.189 1.16-0.304 1.87-0.346 2.13l-0.33 2.13c-0.23 1.594-0.413 2.927-0.549 4 0.219-0.01 0.518-0.016 0.895-0.016 0.555 0 0.932 0.076 1.131 0.228s0.298 0.379 0.298 0.683c0 0.282-0.11 0.52-0.33 0.715-0.209 0.195-0.508 0.293-0.895 0.293-0.262 0-0.675-0.011-1.241-0.033-0.523-0.021-0.869-0.032-1.036-0.032-0.66 0-1.383 0.059-2.168 0.179-0.346 0.054-0.592 0.081-0.738 0.081-0.231 0-0.424-0.065-0.581-0.195s-0.236-0.32-0.236-0.569c0-0.39 0.168-0.694 0.503-0.911s0.806-0.33 1.413-0.341l0.738-0.017 0.048-0.357c0.251-1.735 0.434-2.96 0.549-3.675l0.346-2.13c0.209-1.258 0.398-2.553 0.565-3.886l-1.319 0.016c-0.377 0-0.639-0.06-0.785-0.179-0.137-0.13-0.205-0.309-0.205-0.536 0-0.738 0.513-1.133 1.54-1.187 0.481-0.022 1.068-0.033 1.759-0.033l2.874 0.016z" style="fill-rule:nonzero;fill:#fff"/>
 <path d="m40.051 27.931c0.167-0.066 0.305-0.099 0.416-0.099 0.178 0 0.311 0.066 0.4 0.197 0.089 0.132 0.133 0.301 0.133 0.509 0 0.328-0.083 0.607-0.25 0.837-0.155 0.23-0.427 0.438-0.815 0.624-0.655 0.306-1.504 0.552-2.547 0.738-1.043 0.175-2.07 0.263-3.079 0.263-1.399 0-2.569-0.153-3.513-0.46-0.943-0.317-1.647-0.749-2.114-1.296-0.455-0.547-0.682-1.165-0.682-1.855 0-0.941 0.305-1.74 0.915-2.396 0.622-0.667 1.532-1.149 2.73-1.444-0.654-0.186-1.159-0.515-1.514-0.985-0.344-0.471-0.516-0.996-0.516-1.576 0-0.788 0.249-1.482 0.749-2.084 0.51-0.613 1.193-1.083 2.047-1.412 0.854-0.328 1.792-0.492 2.813-0.492 1.376 0 2.008 0.295 2.696 0.886 0.688 0.58 1.032 1.335 1.032 2.265 0 0.646-0.122 1.171-0.367 1.576-0.233 0.394-0.571 0.591-1.015 0.591-0.311 0-0.555-0.066-0.732-0.197-0.178-0.142-0.267-0.35-0.267-0.624 0-0.186 0.028-0.388 0.084-0.607 0.055-0.361 0.083-0.607 0.083-0.739 0-0.394-0.15-0.711-0.45-0.952-0.299-0.251-0.398-0.377-1.097-0.377-0.943 0-1.698 0.197-2.264 0.591s-0.849 0.924-0.849 1.592c0 0.514 0.211 0.941 0.633 1.28 0.432 0.328 0.731 0.509 1.697 0.541 0.244 0.011 0.416 0.066 0.516 0.165 0.099 0.098 0.149 0.262 0.149 0.492 0 0.722-0.333 1.089-0.998 1.1-0.921 0.022-1.287 0.147-1.897 0.377-0.599 0.23-1.038 0.525-1.315 0.886-0.266 0.351-0.399 0.728-0.399 1.133 0 0.678 0.321 1.193 0.965 1.543 0.644 0.339 1.664 0.508 3.063 0.508 0.921 0 1.892-0.103 2.913-0.311 1.032-0.219 1.914-0.482 2.646-0.788z" style="fill-rule:nonzero;fill:#2f2f2f"/>
 <path d="m17.174 31c-0.431 0-0.737-0.226-0.919-0.679-0.17-0.453-0.255-1.178-0.255-2.175 0-1.472 0.21-2.87 0.629-4.195 0.102-0.328 0.267-0.566 0.494-0.713 0.238-0.159 0.567-0.238 0.986-0.238 0.227 0 0.386 0.028 0.477 0.085 0.09 0.057 0.136 0.164 0.136 0.323 0 0.181-0.085 0.588-0.255 1.223-0.114 0.452-0.205 0.849-0.273 1.189-0.068 0.328-0.124 0.741-0.17 1.239 0.306-0.883 0.669-1.63 1.089-2.242 0.431-0.611 0.868-1.064 1.31-1.358 0.453-0.306 0.879-0.459 1.276-0.459s0.674 0.091 0.833 0.272c0.17 0.181 0.255 0.458 0.255 0.832 0 0.362-0.107 1.019-0.323 1.97-0.091 0.408-0.153 0.714-0.187 0.917 0.567-1.392 1.196-2.406 1.888-3.04s1.338-0.951 1.939-0.951c0.738 0 1.106 0.368 1.106 1.104 0 0.442-0.125 1.24-0.374 2.395-0.216 0.985-0.323 1.636-0.323 1.953 0 0.453 0.164 0.68 0.493 0.68 0.227 0 0.493-0.136 0.8-0.408 0.317-0.283 0.737-0.736 1.258-1.359 0.136-0.158 0.29-0.238 0.46-0.238 0.147 0 0.261 0.068 0.34 0.204 0.091 0.136 0.136 0.323 0.136 0.561 0 0.453-0.108 0.804-0.323 1.053-0.488 0.6-1.015 1.092-1.582 1.477-0.556 0.385-1.191 0.578-1.905 0.578-0.579 0-1.015-0.164-1.31-0.493-0.295-0.339-0.443-0.826-0.443-1.46 0-0.317 0.08-0.884 0.239-1.699 0.147-0.713 0.221-1.206 0.221-1.478 0-0.181-0.063-0.271-0.187-0.271-0.148 0-0.358 0.192-0.63 0.577-0.272 0.374-0.544 0.872-0.816 1.495-0.273 0.623-0.494 1.279-0.664 1.97-0.125 0.544-0.272 0.906-0.442 1.087-0.159 0.181-0.42 0.272-0.783 0.272-0.374 0-0.657-0.176-0.85-0.527-0.182-0.362-0.272-0.798-0.272-1.307 0-0.431 0.056-1.053 0.17-1.869 0.091-0.724 0.136-1.2 0.136-1.427 0-0.181-0.062-0.271-0.187-0.271-0.17 0-0.386 0.204-0.647 0.611-0.26 0.408-0.516 0.929-0.765 1.563-0.238 0.634-0.431 1.257-0.578 1.868-0.125 0.532-0.273 0.895-0.443 1.087-0.159 0.181-0.414 0.272-0.765 0.272z" style="fill-rule:nonzero;fill:#fff"/>
 <defs>
  <linearGradient id="_Linear1" x2="1" gradientTransform="matrix(2.78787e-15,-45.5294,45.5294,2.78787e-15,210.898,46.7647)" gradientUnits="userSpaceOnUse">
   <stop style="stop-color:#c43929" offset="0"/>
   <stop style="stop-color:#d56150" offset="1"/>
  </linearGradient>
 </defs>
</svg>
