<svg style="clip-rule:evenodd;fill-rule:evenodd;stroke-linejoin:round;stroke-miterlimit:2" version="1.1" viewBox="0 0 48 48" xmlns="http://www.w3.org/2000/svg">
 <path d="m45.668 8.56c0-3.438-2.79-6.228-6.228-6.228h-30.88c-3.438 0-6.228 2.79-6.228 6.228v30.88c0 3.438 2.79 6.228 6.228 6.228h30.88c3.438 0 6.228-2.79 6.228-6.228v-30.88z" style="fill:url(#_Linear1)"/>
 <path d="m20.976 16.218c0.553 2e-3 1.105 0.019 1.657 0.052 1.276 0.076 2.546 0.235 3.801 0.477 8e-3 0.041 0.016 0.087 0.028 0.13 8e-3 0.047 0.017 0.09 0.025 0.137 0.02 0.102 0.037 0.21 0.06 0.318 0.133 0.769 0.229 1.543 0.289 2.321 7e-3 0.112 0.018 0.231 0.023 0.345l1e-3 -1e-3c0.047 0.711 0.059 1.423 0.034 2.134 0 0.12-5e-3 0.235-8e-3 0.355-0.036 0.797-0.114 1.625-0.247 2.487-0.016 0.115-0.033 0.228-0.053 0.345-0.01 0.045-0.018 0.097-0.027 0.146-0.152 0.884-0.356 1.757-0.611 2.617l1e-3 3e-3c-9e-3 0.019-0.014 0.038-0.018 0.058-0.034 0.107-0.068 0.21-0.1 0.311-0.31 0.987-0.687 1.95-1.129 2.885-0.637 1.349-1.403 2.634-2.288 3.837-0.1 0.135-0.203 0.267-0.3 0.397-0.017 0.02-0.033 0.04-0.049 0.061l-0.032 0.041c-0.016 0.02-0.032 0.041-0.049 0.061-0.054 0.071-0.111 0.139-0.166 0.21-0.663 0.821-1.382 1.595-2.152 2.317-0.042 0.041-0.089 0.084-0.131 0.125-0.018 0.018-0.039 0.034-0.058 0.052-3.367-1.479-6.315-3.771-8.579-6.67-0.263-0.336-0.517-0.68-0.76-1.031-0.714-1.022-1.34-2.103-1.872-3.231l-7e-3 -9e-3c-0.418-0.884-0.78-1.793-1.083-2.722-0.489-1.503-0.827-3.051-1.009-4.621 1.114-0.64 2.268-1.208 3.455-1.7 0.66-0.269 1.32-0.516 2.001-0.741 0.115-0.038 0.235-0.076 0.354-0.111 0.208-0.07 0.415-0.131 0.624-0.19 0.969-0.287 1.952-0.521 2.946-0.703 0.055-0.014 0.112-0.021 0.169-0.033 0.151-0.026 0.305-0.054 0.455-0.075 1.445-0.237 2.894-0.363 4.341-0.381 0.132-2e-3 0.265-3e-3 0.398-3e-3h0.066zm13.876 2.435c-1.731 0.881-4.339 2.049-6.508 2.686 0.033 0.625 0.055 1.265 0.029 1.956-1e-3 0.116-4e-3 0.233-8e-3 0.35v0.02c-9e-3 0.201-0.029 0.409-0.044 0.613 2.854-0.629 6.166-1.738 8.261-2.52-0.993-0.788-1.586-1.915-1.73-3.105zm6.376 1.426c-0.75 1.121-2.131 1.574-3.355 1.188-0.267-0.081-0.521-0.202-0.752-0.359-0.948-0.626-1.453-1.741-1.299-2.867 0.058-0.444 0.217-0.868 0.465-1.241 0.905-1.361 2.747-1.734 4.11-0.829 1.361 0.904 1.733 2.743 0.831 4.108z" style="fill-rule:nonzero;fill:#0059da"/>
 <path d="m41.816 21.794c7e-3 0.414 0.027 0.848 0.012 1.261-0.037 0.438-0.043 0.84-0.104 1.265-0.057 0.415-0.112 0.857-0.206 1.259l-0.13 0.616-0.174 0.613c-0.063 0.205-0.118 0.411-0.182 0.611l-0.22 0.599c-0.141 0.38-0.313 0.813-0.503 1.177-0.183 0.375-0.364 0.753-0.593 1.123-0.108 0.185-0.211 0.373-0.324 0.555l-0.359 0.533c-0.225 0.359-0.509 0.685-0.764 1.024-0.066 0.082-0.137 0.169-0.203 0.252l-0.115 0.127-0.107 0.122-0.435 0.46c-0.274 0.315-0.599 0.601-0.923 0.891-0.309 0.305-0.656 0.562-1.001 0.824-0.331 0.278-0.695 0.51-1.059 0.741-0.184 0.113-0.36 0.243-0.546 0.347l-0.576 0.307c-0.194 0.103-0.379 0.206-0.573 0.304l-0.596 0.26-0.599 0.264-0.614 0.211-0.616 0.208c-0.21 0.067-0.425 0.111-0.633 0.165l-0.634 0.156-0.159 0.038c-0.091 0.022-0.114 0.019-0.177 0.032l-0.315 0.043-1.268 0.186-1.325 0.057c-0.44 0.039-0.87-0.014-1.307-0.034-0.441-0.028-0.875-0.041-1.3-0.133-0.409-0.07-0.825-0.125-1.232-0.214 0.335-0.366 0.673-0.746 1.012-1.164l0.012-0.014 9e-3 -0.015 0.124-0.159c4e-3 -6e-3 1e-3 -3e-3 6e-3 -9e-3l0.043-0.058c0.034-0.042 0.086-0.104 0.084-0.101l0.029-0.034 0.029-0.038c0.081-0.11 0.184-0.241 0.298-0.394l6e-3 -6e-3c0.47-0.638 0.925-1.341 1.366-2.086 4.137 0.122 8.543-0.484 11.064-3.521 0.686-0.823 2.558-3.406 2.39-4.476-4.281 3.601-8.911 3.745-11.435 3.648 0.084-0.239 0.174-0.472 0.252-0.72 0.196-0.723 0.42-1.277 0.509-2.054 2.312-0.52 4.824-1.109 6.707-1.901 0.238-0.094 0.49-0.183 0.721-0.29l0.709-0.327 2.847-1.316 1.42-0.657c0.231-0.103 0.455-0.22 0.683-0.341 0.233-0.127 0.468-0.251 0.703-0.374l0.272-0.141v0.298zm-4.901-8.49l0.732 1.368c-0.075 0.052-0.152 0.102-0.231 0.154-0.225 0.143-0.45 0.301-0.683 0.445-0.236 0.141-0.476 0.289-0.718 0.437-0.16 0.095-0.319 0.192-0.486 0.287-0.338 0.193-0.685 0.384-1.039 0.584-0.264 0.146-0.534 0.271-0.807 0.42-0.274 0.129-0.55 0.286-0.833 0.414-1.125 0.547-2.324 1.044-3.568 1.507-0.352 0.127-0.713 0.241-1.073 0.359-0.062-0.552-0.121-1.716-0.203-2.199l-3e-3 -0.029-5e-3 -0.031c-0.012-0.052-0.028-0.144-0.05-0.258-0.014-0.084-0.022-0.125-0.023-0.136l-0.014-0.072-0.014-0.045c-3e-3 -0.013-9e-3 -0.04-0.018-0.083l-0.015-0.069c0.255-0.049 0.512-0.095 0.764-0.15 1.219-0.285 2.41-0.603 3.55-0.978 0.287-0.089 0.566-0.197 0.845-0.287 0.274-0.102 0.555-0.194 0.825-0.301 0.201-0.084 0.407-0.165 0.605-0.243 0.324-0.125 0.646-0.258 0.963-0.399 0.252-0.113 0.498-0.223 0.747-0.33 0.242-0.115 0.475-0.231 0.717-0.347l0.035-0.018zm-21.611-3c-0.327-3e-3 -0.655 0.022-0.978 0.075-3.046 0.496-5.198 3.351-5.477 6.8 0.069-0.03 0.136-0.064 0.205-0.093h9e-3c0.649-0.265 1.306-0.509 1.971-0.732 0.458-2.063 1.798-3.665 3.622-3.964 0.451-0.074 0.903-0.06 1.337 0.023 0.175 0.033 0.344 0.078 0.512 0.134 0.717 0.235 1.385 0.661 1.962 1.246 0.109 0.11 0.212 0.222 0.309 0.345 0.172 0.201 0.328 0.427 0.472 0.662 0.416-0.022 0.832-0.058 1.247-0.063 0.344-5e-3 0.693 0.018 1.039 0.026-0.255-0.554-0.54-1.084-0.892-1.548-0.109-0.146-0.223-0.289-0.341-0.428-0.503-0.583-1.075-1.082-1.693-1.47-0.165-0.107-0.335-0.207-0.509-0.298-0.871-0.452-1.822-0.707-2.795-0.715zm12.593 6.205c4e-3 0.015 2e-3 7e-3 -7e-3 -0.025l7e-3 0.025zm-2.64-7.692c-0.903 0.025-1.819 0.125-2.734 0.307-0.906 0.179-1.794 0.436-2.656 0.766 0.802 0.528 1.545 1.619 2.196 2.37 0.319-0.087 0.641-0.162 0.966-0.223 3.671-0.729 7.084-0.325 9.974 1.569l2.743-1.224 0.075-0.035c-2.994-2.386-6.736-3.637-10.564-3.53z" style="fill-rule:nonzero;fill:#3f3f3f"/>
 <path d="m17.277 22.144c-1.227 0-2.222 0.995-2.222 2.222 1e-3 0.946 0.6 1.787 1.493 2.098v2.337l-0.011 0.018 2.962-9e-3 -0.766-2.769c0.486-0.421 0.765-1.032 0.766-1.675 0-1.227-0.994-2.222-2.222-2.222z" style="fill-rule:nonzero;fill:#fff"/>
 <defs>
  <linearGradient id="_Linear1" x2="1" gradientTransform="matrix(.828279 -43.2333 43.2333 .828279 523.044 55.1133)" gradientUnits="userSpaceOnUse">
   <stop style="stop-color:#bababa" offset="0"/>
   <stop style="stop-color:#ebebeb" offset="1"/>
  </linearGradient>
 </defs>
</svg>
