<svg style="clip-rule:evenodd;fill-rule:evenodd;stroke-linejoin:round;stroke-miterlimit:2" version="1.1" viewBox="0 0 48 48" xmlns="http://www.w3.org/2000/svg">
 <path d="m40.02 2.87c0-1.145-0.93-2.075-2.075-2.075h-31.669c-1.145 0-2.075 0.93-2.075 2.075v39.038c0 1.145 0.93 2.075 2.075 2.075h31.669c1.145 0 2.075-0.93 2.075-2.075v-39.038z" style="fill:url(#_Linear1)"/>
 <path d="m44.367 6.031c0-1.145-0.93-2.075-2.075-2.075h-31.669c-1.145 0-2.075 0.93-2.075 2.075v39.038c0 1.145 0.93 2.075 2.075 2.075h31.669c1.145 0 2.075-0.93 2.075-2.075v-39.038z" style="fill:url(#_Linear2)"/>
 <path d="m18.035 30.895l0.303 3.887 3.888-0.303 9.051-10.585-4.191-3.583-9.051 10.584zm16.413-10.697c0.379-0.443 0.328-1.091-0.115-1.47l-2.619-2.239c-0.443-0.38-1.092-0.329-1.47 0.115l-1.872 2.201 4.192 3.584 1.884-2.191z" style="fill-opacity:.84;fill-rule:nonzero;fill:#fff"/>
 <defs>
  <linearGradient id="_Linear1" x2="1" gradientTransform="matrix(-.116223 -43.188 43.188 -.116223 16.9338 43.983)" gradientUnits="userSpaceOnUse">
   <stop style="stop-color:#cdd9f0" offset="0"/>
   <stop style="stop-color:#fff" offset="1"/>
  </linearGradient>
  <linearGradient id="_Linear2" x2="1" gradientTransform="matrix(-.116223 -43.188 43.188 -.116223 21.2812 47.1441)" gradientUnits="userSpaceOnUse">
   <stop style="stop-color:#0055f2" offset="0"/>
   <stop style="stop-color:#42a5f9" offset="1"/>
  </linearGradient>
 </defs>
</svg>
