<svg style="clip-rule:evenodd;fill-rule:evenodd;stroke-linejoin:round;stroke-miterlimit:2" version="1.1" viewBox="0 0 48 48" xmlns="http://www.w3.org/2000/svg">
 <path d="m40.189 5.887c0-2.783-2.256-5.04-5.039-5.04h-25.841c-2.783 0-5.039 2.257-5.039 5.04v33.036c0 2.783 2.256 5.04 5.039 5.04h25.841c2.783 0 5.039-2.257 5.039-5.04v-33.036z" style="fill:url(#_Linear1)"/>
 <path d="m44.367 8.924c0-2.783-2.256-5.04-5.039-5.04h-25.84c-2.783 0-5.039 2.257-5.039 5.04v33.035c0 2.783 2.256 5.04 5.039 5.04h25.84c2.783 0 5.039-2.257 5.039-5.04v-33.035z" style="fill:url(#_Linear2)"/>
 <path d="m18.035 30.895 0.303 3.887 3.888-0.303 9.051-10.585-4.191-3.583-9.051 10.584zm16.413-10.697c0.379-0.443 0.328-1.091-0.115-1.47l-2.619-2.239c-0.443-0.38-1.092-0.329-1.47 0.115l-1.872 2.201 4.192 3.584 1.884-2.191z" style="fill-opacity:.84;fill-rule:nonzero;fill:#fff"/>
 <defs>
  <linearGradient id="_Linear1" x2="1" gradientTransform="matrix(-.476427 -44.666 44.666 -.476427 442.207 41.0181)" gradientUnits="userSpaceOnUse">
   <stop style="stop-color:#cfdbf1" offset="0"/>
   <stop style="stop-color:#fcfdfe" offset="1"/>
  </linearGradient>
  <linearGradient id="_Linear2" x2="1" gradientTransform="matrix(-.476427 -44.666 44.666 -.476427 168.474 47.0188)" gradientUnits="userSpaceOnUse">
   <stop style="stop-color:#0258f2" offset="0"/>
   <stop style="stop-color:#3fa2f9" offset="1"/>
  </linearGradient>
 </defs>
</svg>
