<svg clip-rule="evenodd" fill-rule="evenodd" stroke-linejoin="round" stroke-miterlimit="2" viewBox="0 0 48 48" xmlns="http://www.w3.org/2000/svg">
 <linearGradient id="a" x2="1" gradientTransform="matrix(-.476427 -44.666 44.666 -.476427 442.207 41.0181)" gradientUnits="userSpaceOnUse">
  <stop stop-color="#cfdbf1" offset="0"/>
  <stop stop-color="#fcfdfe" offset="1"/>
 </linearGradient>
 <linearGradient id="b" x2="1" gradientTransform="matrix(-.476427 -44.666 44.666 -.476427 168.474 47.0188)" gradientUnits="userSpaceOnUse">
  <stop stop-color="#0258f2" offset="0"/>
  <stop stop-color="#3fa2f9" offset="1"/>
 </linearGradient>
 <path d="m40.189 5.887c0-2.783-2.256-5.04-5.039-5.04h-25.841c-2.783 0-5.039 2.257-5.039 5.04v33.036c0 2.783 2.256 5.04 5.039 5.04h25.841c2.783 0 5.039-2.257 5.039-5.04z" fill="url(#a)"/>
 <path d="m44.367 8.924c0-2.783-2.256-5.04-5.039-5.04h-25.84c-2.783 0-5.039 2.257-5.039 5.04v33.035c0 2.783 2.256 5.04 5.039 5.04h25.84c2.783 0 5.039-2.257 5.039-5.04z" fill="url(#b)"/>
 <path d="m18.035 30.895.303 3.887 3.888-.303 9.051-10.585-4.191-3.583zm16.413-10.697c.379-.443.328-1.091-.115-1.47l-2.619-2.239c-.443-.38-1.092-.329-1.47.115l-1.872 2.201 4.192 3.584z" fill="#fff" fill-opacity=".84" fill-rule="nonzero"/>
</svg>
