<?xml version="1.0" encoding="UTF-8" standalone="no"?><svg width="100%" height="100%" viewBox="0 0 16 16" version="1.1" xmlns="http://www.w3.org/2000/svg" xmlns:xlink="http://www.w3.org/1999/xlink" xml:space="preserve" xmlns:serif="http://www.serif.com/" style="fill-rule:evenodd;clip-rule:evenodd;stroke-linejoin:round;stroke-miterlimit:1.41421;"><path d="M8,0c4.415,0 8,3.585 8,8c0,4.415 -3.585,8 -8,8c-4.415,0 -8,-3.585 -8,-8c0,-4.415 3.585,-8 8,-8Z" style="fill:url(#_Linear1);"/><path d="M6.976,13.963c1.953,0.138 4.953,-0.077 5.024,-1.1c0,0 -0.136,0.388 -1.614,0.695c-1.667,0.348 -3.724,0.307 -4.943,0.085c0,0 0.249,0.228 1.533,0.32l0,0Zm4.337,-1.711c1.122,0.561 -2.44,1.687 -6.769,0.91c-1.588,-0.285 0.764,-1.278 1.194,-0.943c0,0 -0.136,-0.011 -0.374,0.046c-0.228,0.055 -0.954,0.313 -0.567,0.5c1.077,0.518 4.953,0.394 6.178,-0.017c0.635,-0.213 0.347,-0.487 0.338,-0.496l0,0l0,0l0,0Zm-4.736,-0.972c0,0 -0.415,0.267 0.295,0.357c0.859,0.109 1.299,0.093 2.246,-0.105c0,0 0.249,0.173 0.597,0.322c-2.124,1.007 -4.806,-0.058 -3.138,-0.574l0,0Zm-0.26,-1.313c0,0 -0.465,0.38 0.245,0.462c0.919,0.104 1.643,0.113 2.899,-0.154c0,0 0.173,0.194 0.446,0.301c-2.568,0.83 -5.427,0.065 -3.59,-0.609l0,0Zm3.995,0.825c2.036,-1.17 1.095,-2.294 0.438,-2.142c-0.161,0.037 -0.233,0.069 -0.233,0.069c0,0 0.06,-0.104 0.174,-0.149c1.299,-0.505 2.298,1.491 -0.419,2.281c0,0 0.031,-0.031 0.04,-0.059l0,0Zm-3.536,-2.187c0,0 -1.971,0.518 -0.698,0.707c0.538,0.079 1.609,0.061 2.608,-0.032c0.816,-0.075 1.635,-0.237 1.635,-0.237c0,0 -0.288,0.136 -0.496,0.293c-2.002,0.583 -5.869,0.311 -4.756,-0.284c0.941,-0.504 1.707,-0.447 1.707,-0.447l0,0Zm1.728,-0.867c0.524,0.666 -0.137,1.266 -0.137,1.266c0,0 1.329,-0.759 0.719,-1.709c-0.57,-0.886 -1.007,-1.326 1.358,-2.844c0,0 -3.713,1.026 -1.94,3.287l0,0Zm0.582,-5.738l0,0l0,0c0.006,0.007 1.12,1.253 -1.069,3.165c-1.761,1.539 -0.402,2.416 -0.001,3.419c-1.028,-1.027 -1.782,-1.93 -1.276,-2.77c0.742,-1.234 2.8,-1.833 2.346,-3.814Z" style="fill:#fff;"/><defs><linearGradient id="_Linear1" x1="0" y1="0" x2="1" y2="0" gradientUnits="userSpaceOnUse" gradientTransform="matrix(0,-16,-16,0,8,16)"><stop offset="0" style="stop-color:#910000;stop-opacity:1"/><stop offset="1" style="stop-color:#e74c3c;stop-opacity:1"/></linearGradient></defs></svg>