<!DOCTYPE svg  PUBLIC '-//W3C//DTD SVG 1.1//EN'  'http://www.w3.org/Graphics/SVG/1.1/DTD/svg11.dtd'>
<svg style="clip-rule:evenodd;fill-rule:evenodd;stroke-linejoin:round;stroke-miterlimit:1.41421" version="1.1" viewBox="0 0 64 64" xmlns="http://www.w3.org/2000/svg">
 <path d="m54.512 32.229c0 15.464-5.066 26.551-20.53 26.551-9.734 0-19.982-5.78-25.307-11.285-1.698-2.551-2.989-5.396-3.779-8.443-0.585-2.253 0.104-4.616 0.104-7.052 0-15.464 11.993-24.189 27.457-24.189s22.055 8.954 22.055 24.418z" style="fill-rule:nonzero;fill:url(#_Linear1)"/>
 <path d="m31.1 19.1c-12.758 0-23.1 10.341-23.1 23.099 8e-3 1.74 0.225 3.472 0.621 5.164 1e-3 8e-3 5e-3 0.02 6e-3 0.028 3.342 5.06 8.238 8.9 13.949 10.939 0.355 5e-3 0.723 0.043 1.127 0.166 2.261-0.04 4.553-0.191 6.697-0.195-1.114-3.436-5.497-9.429-5.599-15.401 1.624-10.077 6.912-18.681 16.019-21.627-3.043-1.422-6.361-2.164-9.72-2.173z" style="fill-rule:nonzero;fill:#6298df"/>
 <path d="m33.935 27.658c-5.417 3.946-9.425 10.24-9.435 16.942 7e-3 5.436-1.5 13.4 7.249 14.535 0.403 0.052 1.958-0.407 2.251-0.135 5.018-0.196 8.297-0.747 12.29-3.23-9.028-0.328-16.18-7.736-16.19-16.77 8e-3 -4.202 0.99-8.249 3.835-11.342z" style="fill-rule:nonzero;fill:#999"/>
 <path d="m36.1 21c-12.758 0-23.1 10.342-23.1 23.1 9e-3 3.678 0.9 7.291 2.582 10.546 4.359 3.156 9.537 4.988 14.91 5.278-0.227-0.63-0.545-1.334-0.918-2.1-2.949-3.702-4.56-8.29-4.574-13.023 0.01-5.95 4.208-12.968 8.635-16.944 4.796-4.438 10.754-5.293 10.754-5.293-2.644-1.025-5.454-1.556-8.289-1.564z" style="fill-rule:nonzero;fill:url(#_Linear2)"/>
 <path d="m32 4c-15.36 0-28 12.64-28 28 2e-3 2.587 0.363 5.162 1.072 7.65-0.045-0.549-0.07-1.099-0.072-1.65 0-11.52 9.48-21 21-21s21 9.48 21 21-9.48 21-21 21c-0.539-7e-3 -1.077-0.034-1.613-0.082 2.476 0.709 5.038 1.073 7.613 1.082 15.36 0 28-12.64 28-28s-12.64-28-28-28z" style="fill-rule:nonzero;fill:url(#_Linear3)"/>
 <defs>
  <linearGradient id="_Linear1" x2="1" gradientTransform="matrix(-31.3887,28.9928,-28.9928,-31.3887,44.3887,23.6572)" gradientUnits="userSpaceOnUse">
   <stop style="stop-color:#fff" offset="0"/>
   <stop style="stop-color:#c3c3c3" offset="1"/>
  </linearGradient>
  <linearGradient id="_Linear2" x2="1" gradientTransform="matrix(-11.9776,32.4321,-32.4321,-11.9776,32,24.8089)" gradientUnits="userSpaceOnUse">
   <stop style="stop-color:#001eb2" offset="0"/>
   <stop style="stop-color:#3a62bf" offset="1"/>
  </linearGradient>
  <linearGradient id="_Linear3" x2="1" gradientTransform="matrix(56,0,0,56,4,32)" gradientUnits="userSpaceOnUse">
   <stop style="stop-color:#ad0000" offset="0"/>
   <stop style="stop-color:#e63b40" offset="1"/>
  </linearGradient>
 </defs>
</svg>
