<svg style="clip-rule:evenodd;fill-rule:evenodd;stroke-linecap:round;stroke-linejoin:round" version="1.1" viewBox="0 0 64 64" xmlns="http://www.w3.org/2000/svg">
 <path d="m60 32c0-15.454-12.546-28-28-28s-28 12.546-28 28 12.546 28 28 28 28-12.546 28-28z" style="fill:url(#_Linear1)"/>
 <path d="m41.506 15.536c9.086 5.246 12.204 16.883 6.958 25.97-5.246 9.086-16.883 12.204-25.969 6.958-9.087-5.246-12.205-16.883-6.959-25.969 5.246-9.087 16.883-12.205 25.97-6.959z" style="fill:none;stroke-opacity:.47;stroke-width:6px;stroke:#000"/>
 <path d="m43.2 13.001c-10.276-5.933-22.983-3.09-29.815 7.2l-1.971 3.763c5.116-6.922 20.386-10.815 28.786-5.764l3-5.199z" style="fill-rule:nonzero;fill:#9ccefd"/>
 <path d="m40.4 18l-4.705 33.239-8.114-2.174 12.819-31.065z" style="fill-rule:nonzero;fill:#fff"/>
 <circle cx="32" cy="48" r="8" style="fill:#fff"/>
 <circle cx="32" cy="48" r="4" style="fill:#f20d5e"/>
 <defs>
  <linearGradient id="_Linear1" x2="1" gradientTransform="matrix(1.04594,-56.2518,56.2518,1.04594,32.0001,60.2034)" gradientUnits="userSpaceOnUse">
   <stop style="stop-color:#004cff" offset="0"/>
   <stop style="stop-color:#188dfb" offset="1"/>
  </linearGradient>
 </defs>
</svg>
