<svg style="clip-rule:evenodd;fill-rule:evenodd;stroke-linejoin:round;stroke-miterlimit:2" version="1.1" viewBox="0 0 48 48" xmlns="http://www.w3.org/2000/svg">
 <path d="m45.668 8.56c0-3.438-2.79-6.228-6.228-6.228h-30.88c-3.438 0-6.228 2.79-6.228 6.228v30.88c0 3.438 2.79 6.228 6.228 6.228h30.88c3.438 0 6.228-2.79 6.228-6.228v-30.88z" style="fill:url(#_Linear1)"/>
 <path d="m33.401 9.75c-0.604 0-1.363 0.098-1.686 0.218-1.38 0.515-2.451 2.112-3.064 4.569-0.986 3.953-2.68 5.715-5.493 5.715-0.86 0-0.868 0.171-0.046 0.94 1.597 1.492 2.567 3.727 2.831 6.518 0.103 1.098 0.257 1.582 0.644 2.037 0.28 0.327 0.625 0.594 0.769 0.594s0.426-0.486 0.626-1.081c0.268-0.799 0.405-2.208 0.527-5.405 0.142-3.706 0.232-4.494 0.626-5.511 1.007-2.601 3.259-3.99 5.553-2.963 1.101 0.494 2.052 1.927 3.448 4.37 1.035 1.812 2.199 3.178 2.707 3.178 0.256 0 0.263-0.352 9e-3 -0.507-0.516-0.314-0.902-2.311-0.967-5.017-0.066-2.707-0.09-2.852-0.757-4.142-1.125-2.174-3.309-3.513-5.727-3.513zm-14.899 10.108c-0.199 1e-3 -0.428 0.018-0.711 0.045-1.341 0.123-2.009 0.3-2.009 0.53 0 0.076 0.832 0.968 1.846 1.985 2.016 2.022 2.981 3.632 3.421 5.708 0.152 0.522 0.213 1.442 0.257 2.187-1.542 0.635-2.555 2.145-2.556 3.812 0 2.263 1.862 4.125 4.125 4.125s4.125-1.862 4.125-4.125c-1e-3 -1.491-0.811-2.87-2.112-3.598-0.089-0.733-0.128-1.638-0.128-2.027 0-3.45-1.803-6.628-4.617-8.139-0.713-0.383-1.042-0.509-1.641-0.503zm-4.416 1.375l-1.138 0.77c-1.671 1.135-3.299 2.979-4.175 4.728-0.694 1.384-0.78 1.74-0.861 3.552-0.057 1.26-0.216 2.255-0.421 2.654-0.446 0.867-0.224 1.681 0.507 1.861 0.308 0.077 1.034 0.618 1.614 1.2 1.942 1.951 5.638 2.751 8.937 1.935 0.855-0.21 0.959-0.396 0.454-0.81-0.181-0.148-0.567-0.732-0.86-1.302-1-1.947-0.628-4.368 0.916-5.931 0.7-0.709 0.741-0.823 0.619-1.698-0.071-0.516-0.367-1.404-0.66-1.974-0.597-1.163-3.113-3.879-4.213-4.55l-0.719-0.435zm-2.086 8.767c0.829 0 1.5 0.671 1.5 1.5s-0.671 1.5-1.5 1.5c-0.828 0-1.5-0.671-1.5-1.5s0.672-1.5 1.5-1.5zm10.875 2.25c1.036 0 1.875 0.839 1.875 1.875s-0.839 1.875-1.875 1.875-1.875-0.839-1.875-1.875 0.839-1.875 1.875-1.875z" style="fill-rule:nonzero;fill:#fff"/>
 <defs>
  <linearGradient id="_Linear1" x2="1" gradientTransform="matrix(2.65364e-15,-43.3373,43.3373,2.65364e-15,201.9,45.6687)" gradientUnits="userSpaceOnUse">
   <stop style="stop-color:#600324" offset="0"/>
   <stop style="stop-color:#8c4b62" offset="1"/>
  </linearGradient>
 </defs>
</svg>
