<!DOCTYPE svg  PUBLIC '-//W3C//DTD SVG 1.1//EN'  'http://www.w3.org/Graphics/SVG/1.1/DTD/svg11.dtd'>
<svg style="clip-rule:evenodd;fill-rule:evenodd;stroke-linejoin:round;stroke-miterlimit:1.41421" version="1.1" viewBox="0 0 64 64" xmlns="http://www.w3.org/2000/svg">
 <path d="m43.2 4c9.272 0 16.8 7.528 16.8 16.8v22.4c0 9.272-7.528 16.8-16.8 16.8h-22.4c-9.272 0-16.8-7.528-16.8-16.8v-22.4c0-9.272 7.528-16.8 16.8-16.8h22.4z" style="fill:url(#_Linear1)"/>
 <path d="m44.535 13c-0.805 0-1.817 0.13-2.248 0.291-1.84 0.686-3.268 2.816-4.086 6.092-1.315 5.27-3.573 7.619-7.324 7.619-1.146 0-1.157 0.229-0.061 1.254 2.129 1.989 3.423 4.97 3.774 8.691 0.138 1.463 0.343 2.109 0.859 2.715 0.373 0.437 0.833 0.793 1.026 0.793 0.192 0 0.568-0.649 0.834-1.441 0.357-1.066 0.54-2.945 0.703-7.207 0.189-4.942 0.309-5.993 0.834-7.348 1.343-3.468 4.346-5.321 7.404-3.951 1.469 0.658 2.736 2.569 4.598 5.826 1.38 2.416 2.932 4.238 3.609 4.238 0.342 0 0.351-0.469 0.012-0.676-0.688-0.419-1.202-3.082-1.289-6.689-0.088-3.61-0.12-3.803-1.01-5.523-1.499-2.899-4.411-4.684-7.635-4.684zm-19.865 13.477c-0.266 2e-3 -0.571 0.025-0.949 0.06-1.788 0.165-2.678 0.4-2.678 0.707 0 0.101 1.109 1.291 2.461 2.647 2.688 2.696 3.975 4.843 4.561 7.611 0.203 0.695 0.284 1.922 0.343 2.916-2.056 0.846-3.406 2.859-3.408 5.082 0 3.017 2.483 5.5 5.5 5.5s5.5-2.483 5.5-5.5c-1e-3 -1.988-1.081-3.827-2.816-4.797-0.118-0.978-0.17-2.184-0.17-2.703 0-4.6-2.404-8.837-6.157-10.852-0.95-0.51-1.389-0.679-2.187-0.671zm-5.889 1.834l-1.517 1.027c-2.228 1.513-4.399 3.972-5.567 6.303-0.925 1.846-1.039 2.321-1.148 4.736-0.076 1.68-0.287 3.007-0.561 3.539-0.594 1.156-0.299 2.241 0.676 2.482 0.411 0.102 1.379 0.823 2.152 1.6 2.59 2.601 7.517 3.667 11.916 2.58 1.14-0.281 1.279-0.529 0.606-1.08-0.242-0.198-0.757-0.977-1.147-1.736-1.333-2.596-0.837-5.825 1.221-7.908 0.934-0.946 0.988-1.098 0.826-2.264-0.095-0.688-0.49-1.872-0.881-2.633-0.796-1.55-4.15-5.172-5.617-6.066l-0.959-0.58zm-2.781 11.689c1.105 0 2 0.895 2 2s-0.895 2-2 2c-1.104 0-2-0.895-2-2s0.896-2 2-2zm14.5 3c1.381 0 2.5 1.119 2.5 2.5s-1.119 2.5-2.5 2.5-2.5-1.119-2.5-2.5 1.119-2.5 2.5-2.5z" style="fill-rule:nonzero;fill:#fff"/>
 <defs>
  <linearGradient id="_Linear1" x2="1" gradientTransform="matrix(0,-56,-56,0,32,60)" gradientUnits="userSpaceOnUse">
   <stop style="stop-color:#5e0021" offset="0"/>
   <stop style="stop-color:#8f5066" offset="1"/>
  </linearGradient>
 </defs>
</svg>
