<svg style="clip-rule:evenodd;fill-rule:evenodd;stroke-linejoin:round;stroke-miterlimit:2" version="1.1" viewBox="0 0 48 48" xmlns="http://www.w3.org/2000/svg">
 <circle cx="24" cy="24" r="22.764" style="fill:url(#_Linear1)"/>
 <path d="m20.159 26.276c0.867 0 1.565 0.676 1.565 1.517v0.053c0.61-0.215 1.412-0.431 2.276-0.431s1.666 0.216 2.276 0.431v-0.053c0-0.841 0.698-1.517 1.565-1.517h9.391c0.731 0 1.338 0.484 1.511 1.139h0.432c0.42 0 0.76 0.38 0.76 0.853v1.708c0 0.472-0.34 0.853-0.76 0.853h-0.378v3.037c0 0.84-0.698 1.516-1.565 1.516h-9.391c-0.867 0-1.565-0.676-1.565-1.516v-4.175c-0.61-0.215-1.412-0.431-2.276-0.431s-1.666 0.216-2.276 0.431v4.175c0 0.84-0.698 1.516-1.565 1.516h-9.391c-0.867 0-1.565-0.676-1.565-1.516v-3.037h-0.378c-0.42 0-0.76-0.381-0.76-0.853v-1.708c0-0.473 0.34-0.853 0.76-0.853h0.432c0.173-0.655 0.78-1.139 1.511-1.139h9.391zm23.25-7.001v2.277h-38.699v-2.277h38.699zm-6.889-1.204h-25.04l2.276-9.106 5.691 4.553 14.797-4.553 2.276 9.106z" style="fill-rule:nonzero;fill:#ddd"/>
 <defs>
  <linearGradient id="_Linear1" x2="1" gradientTransform="matrix(5.96893e-7 -45.528 45.528 5.96893e-7 24 46.764)" gradientUnits="userSpaceOnUse">
   <stop style="stop-color:#313131" offset="0"/>
   <stop style="stop-color:#4f4f4f" offset="1"/>
  </linearGradient>
 </defs>
</svg>
