<svg style="clip-rule:evenodd;fill-rule:evenodd;stroke-linejoin:round;stroke-miterlimit:2" version="1.1" viewBox="0 0 48 48" xmlns="http://www.w3.org/2000/svg">
 <circle cx="24" cy="24" r="22.764" style="fill:url(#_Linear1)"/>
 <g transform="matrix(1.29352,0,0,1.29352,-7.04455,-7.04455)">
  <path d="m19.616 17.79c-1.064-3.533-7.078-2.675-8.083-2.752 1.128-0.56 2.141-0.353 4.467-2.038 4.481-3.246 7.624-3.289 10-2-6.495 0.247-3.651 3.867-2.694 5.732-1.217 0.353-3.137 0.887-3.69 1.058z" style="fill-rule:nonzero;fill:white"/>
 </g>
 <g transform="matrix(1.29352,0,0,1.29352,-7.04455,-7.04455)">
  <path d="m35.647 12.929c-2.339 3.089-6.227 7.263-10.483 7.812-4.255 0.55-8.712-0.059-9.652 3.11-0.865 2.919 2.579 5.644 5.736 4.987 3.372-0.701 2.644-4.524 0.799-7.127 1.401-0.08 0.577 0.409 2.953 0.289l1.543 4.812c0.886 2.224 3.047 7.272 3.457 11.188-1.973-2.834-2.987-3.876-6.044-5.921-3.916-2.619-7.487-2.708-9.323-6.567-1.831-3.851 0.993-6.625 5.331-7.826 6.2-1.716 11.541-3.344 15.683-4.757z" style="fill-rule:nonzero;fill:rgb(212,228,235)"/>
 </g>
 <g transform="matrix(1.29352,0,0,1.29352,-7.04455,-7.04455)">
  <path d="m22.047 21.711c1.401-0.08 1.141-0.06 3.517-0.179 3.542 3.019 4.716 4.063 10.903 8.468-6.219-0.445-10.925-2.463-14.42-8.289z" style="fill-rule:nonzero;fill:white"/>
 </g>
 <g transform="matrix(1.29352,0,0,1.29352,-7.04455,-7.04455)">
  <path d="m11.533 15.038c1.128-0.56 2.147-1.022 4.473-2.707 4.481-3.246 9.225-2.538 11.601-1.249-6.495 0.247-5.658 1.541-5.682 2.556-4.315-0.91-5.575 0.328-10.392 1.4z" style="fill-rule:nonzero;fill:white"/>
 </g>
 <g transform="matrix(1.29352,0,0,1.29352,-7.04455,-7.04455)">
  <path d="m27.607 11.082c-6.495 0.247-5.258 3.785-4.301 5.65-0.758 0.22-1.08 0.471-2.093 0.739-4.088-7.284 3.057-8.232 6.394-6.389z" style="fill-rule:nonzero;fill:rgb(212,228,235)"/>
 </g>
 <g transform="matrix(1.29352,0,0,1.29352,-7.04455,-7.04455)">
  <path d="m15.803 27.327c-3.178-4.093-2.192-7.843 4.032-9.792 6.141-1.923 11.67-3.193 15.812-4.606-11.177 4.258-25.573 7.104-19.844 14.398z" style="fill-rule:nonzero;fill:white"/>
 </g>
 <defs>
  <linearGradient id="_Linear1" x2="1" gradientTransform="matrix(2.78787e-15,-45.5294,45.5294,2.78787e-15,210.898,46.7647)" gradientUnits="userSpaceOnUse">
   <stop style="stop-color:rgb(33,109,189)" offset="0"/>
   <stop style="stop-color:rgb(86,197,250)" offset="1"/>
  </linearGradient>
 </defs>
</svg>
