<svg width="48" height="48" xmlns="http://www.w3.org/2000/svg">
 <rect x="24" y="25" width="20" height="20" rx="3.292" ry="3.704" opacity=".2"/>
 <rect x="4" y="25" width="20" height="20" rx="3.292" ry="3.704" opacity=".2"/>
 <rect x="4" y="24" width="20" height="20" rx="3.292" ry="3.704" fill="#ff7826"/>
 <rect x="24" y="24" width="20" height="20" rx="3.292" ry="3.704" fill="#1f9b28"/>
 <path d="m7.2929688 24c-1.8238665 0-3.2929688 1.651275-3.2929688 3.703125v1c0-2.05185 1.4691022-3.703125 3.2929688-3.703125h10c-0.870616 0-1.654637-0.383382-2.242188-1zm25.65625 0c-0.587551 0.616618-1.371572 1-2.242188 1h10c1.823867 0 3.292969 1.651275 3.292969 3.703125v-1c0-2.05185-1.469102-3.703125-3.292969-3.703125z" fill="#fff" opacity=".2"/>
 <rect x="14" y="5" width="20" height="20" rx="3.292" ry="3.704" opacity=".2"/>
 <rect x="14" y="4" width="20" height="20" rx="3.292" ry="3.704" fill="#00a9ff"/>
 <path d="m17.292969 4c-1.823867 0-3.292969 1.6512753-3.292969 3.703125v1c0-2.0518497 1.469102-3.703125 3.292969-3.703125h13.414062c1.823867 0 3.292969 1.6512753 3.292969 3.703125v-1c0-2.0518497-1.469102-3.703125-3.292969-3.703125z" fill="#fff" opacity=".2"/>
</svg>
