<svg style="clip-rule:evenodd;fill-rule:evenodd;stroke-linejoin:round;stroke-miterlimit:2" version="1.1" viewBox="0 0 48 48" xmlns="http://www.w3.org/2000/svg">
 <path d="m45.668 8.56c0-3.438-2.79-6.228-6.228-6.228h-30.88c-3.438 0-6.228 2.79-6.228 6.228v30.88c0 3.438 2.79 6.228 6.228 6.228h30.88c3.438 0 6.228-2.79 6.228-6.228v-30.88z" style="fill:url(#_Linear1)"/>
 <path d="m39.44 2.332c3.438 0 6.228 2.79 6.228 6.228v30.88c0 3.438-2.79 6.228-6.228 6.228h-30.88c-3.438 0-6.228-2.79-6.228-6.228v-30.88c0-3.438 2.79-6.228 6.228-6.228h30.88zm-33.954 41.453l2.711-0.013c0.467-2e-3 0.84-0.405 0.838-0.898l-0.013-2.793c-2e-3 -0.49-0.379-0.889-0.845-0.887l-2.71 0.013c-0.466 2e-3 -0.84 0.405-0.838 0.896l0.012 2.793c2e-3 0.491 0.379 0.891 0.845 0.889zm6.896-0.033l2.71-0.013c0.465-2e-3 0.843-0.406 0.84-0.897l-0.011-2.794c-2e-3 -0.49-0.383-0.889-0.848-0.887l-2.711 0.014c-0.466 2e-3 -0.841 0.404-0.839 0.894l0.013 2.793c2e-3 0.493 0.38 0.892 0.846 0.89zm6.9-0.033l2.712-0.013c0.462-2e-3 0.839-0.406 0.837-0.897l-0.012-2.793c-2e-3 -0.491-0.384-0.889-0.845-0.887l-2.711 0.012c-0.465 3e-3 -0.842 0.405-0.84 0.895l0.011 2.793c3e-3 0.493 0.383 0.893 0.848 0.89zm6.896-0.033l2.711-0.013c0.465-2e-3 0.84-0.405 0.838-0.898l-0.012-2.793c-2e-3 -0.49-0.38-0.889-0.845-0.886l-2.711 0.012c-0.467 2e-3 -0.843 0.405-0.841 0.895l0.012 2.794c2e-3 0.491 0.382 0.892 0.848 0.889zm6.895-0.033l2.714-0.013c0.463-2e-3 0.838-0.405 0.836-0.898l-0.012-2.793c-2e-3 -0.49-0.381-0.889-0.844-0.887l-2.713 0.013c-0.466 2e-3 -0.84 0.405-0.838 0.896l0.012 2.793c2e-3 0.491 0.38 0.891 0.845 0.889zm6.896-0.033l2.715-0.013c0.461-2e-3 0.84-0.406 0.836-0.897l-0.011-2.793c-2e-3 -0.491-0.384-0.89-0.844-0.888l-2.715 0.014c-0.463 2e-3 -0.841 0.404-0.838 0.894l0.012 2.793c2e-3 0.493 0.382 0.892 0.845 0.89zm-34.629-34.307l2.71-0.013c0.466-2e-3 0.841-0.408 0.839-0.897l-0.013-2.792c-2e-3 -0.494-0.379-0.891-0.845-0.889l-2.71 0.014c-0.466 2e-3 -0.84 0.402-0.838 0.896l0.012 2.791c2e-3 0.49 0.379 0.892 0.845 0.89zm6.896-0.032l2.71-0.014c0.465-2e-3 0.842-0.408 0.84-0.897l-0.011-2.792c-2e-3 -0.494-0.383-0.89-0.848-0.888l-2.711 0.013c-0.466 2e-3 -0.841 0.403-0.839 0.895l0.012 2.792c2e-3 0.49 0.381 0.893 0.847 0.891zm6.9-0.034l2.712-0.012c0.461-2e-3 0.839-0.409 0.837-0.899l-0.013-2.792c-2e-3 -0.492-0.383-0.889-0.844-0.887l-2.711 0.012c-0.465 3e-3 -0.842 0.404-0.84 0.897l0.011 2.792c2e-3 0.489 0.383 0.892 0.848 0.889zm6.896-0.033l2.711-0.012c0.465-3e-3 0.84-0.409 0.838-0.898l-0.012-2.793c-2e-3 -0.492-0.38-0.89-0.845-0.888l-2.712 0.014c-0.466 2e-3 -0.843 0.402-0.84 0.896l0.012 2.792c2e-3 0.489 0.382 0.891 0.848 0.889zm6.895-0.032l2.714-0.014c0.463-2e-3 0.838-0.408 0.836-0.897l-0.012-2.792c-3e-3 -0.494-0.381-0.89-0.844-0.888l-2.713 0.013c-0.467 2e-3 -0.84 0.403-0.838 0.895l0.012 2.792c2e-3 0.49 0.379 0.893 0.845 0.891zm6.896-0.033l2.715-0.013c0.461-3e-3 0.838-0.409 0.836-0.898l-0.011-2.792c-2e-3 -0.494-0.384-0.89-0.844-0.888l-2.716 0.013c-0.463 2e-3 -0.84 0.403-0.838 0.895l0.013 2.793c2e-3 0.489 0.382 0.892 0.845 0.89z" style="fill:url(#_Linear2)"/>
 <rect x="2.332" y="12.089" width="43.336" height="24.715" style="fill:url(#_Linear3)"/>
 <path d="m12.943 29.061l0.12 1.313-0.878-0.984-1.313 0.121 0.984-0.878-0.121-1.312 0.879 0.983 1.313-0.12-0.984 0.877zm4.39-6.688l1.782 1.507 2.252-0.613-0.883 2.16 1.279 1.952-2.328-0.173-1.462 1.819-0.555-2.266-2.182-0.827 1.984-1.228 0.113-2.331zm-4.978 2.899l0.385-0.829-0.906 0.123-0.831-0.386 0.123 0.907-0.385 0.83 0.907-0.123 0.83 0.385-0.123-0.907zm-4.113-5.008l0.086-1.778 1.359 1.15 1.718-0.468-0.674 1.647 0.975 1.489-1.775-0.132-1.114 1.388-0.424-1.728-1.664-0.632 1.513-0.936zm6.795-0.041l-1.318 0.042 1.085 0.749 0.043 1.318 0.749-1.085 1.318-0.042-1.085-0.749-0.043-1.318-0.749 1.085zm1.531-4.099l-0.024-1.184 1.011 0.619 1.184-0.024-0.619 1.009 0.024 1.184-1.01-0.618-1.184 0.024 0.618-1.01z" style="fill-rule:nonzero;fill:#fff"/>
 <path d="m39.426 33.675c0.124 0.144 0.344 0.16 0.487 0.036l0.445-0.385c0.144-0.124 0.16-0.343 0.036-0.487l-5.835-6.749c-0.124-0.143-0.344-0.159-0.487-0.035l-0.445 0.384c-0.144 0.124-0.16 0.343-0.036 0.487l5.835 6.749zm-9.728-5.114c-0.032 0.188-0.21 0.314-0.398 0.282-0.188-0.033-0.315-0.211-0.282-0.399l0.131-0.765c0.032-0.188 0.211-0.315 0.399-0.282 0.188 0.032 0.314 0.21 0.282 0.398l-0.132 0.766zm-1.477-9.115l2.57 1.085c0.219 0.092 0.562 0.063 0.762-0.065l2.35-1.501c0.2-0.127 0.348-0.039 0.327 0.198l-0.238 2.778c-0.02 0.237 0.113 0.553 0.297 0.704l2.154 1.771c0.184 0.151 0.144 0.318-0.087 0.372l-2.717 0.632c-0.231 0.054-0.491 0.279-0.578 0.5l-1.019 2.595c-0.087 0.221-0.258 0.236-0.381 0.032l-1.441-2.387c-0.122-0.203-0.417-0.381-0.654-0.395l-2.784-0.167c-0.237-0.015-0.304-0.173-0.148-0.352l1.826-2.108c0.155-0.179 0.234-0.514 0.174-0.744l-0.702-2.699c-0.059-0.229 0.071-0.342 0.289-0.249zm-3.08 4.506c-0.19 0.013-0.355-0.13-0.368-0.32-0.014-0.19 0.13-0.355 0.32-0.369l0.775-0.054c0.191-0.013 0.356 0.131 0.369 0.321s-0.13 0.355-0.321 0.368l-0.775 0.054zm11.534-1.419c0.191-4e-3 0.342-0.163 0.337-0.353-4e-3 -0.191-0.163-0.342-0.353-0.337l-0.777 0.019c-0.191 5e-3 -0.342 0.163-0.337 0.353 5e-3 0.191 0.163 0.342 0.354 0.337l0.776-0.019zm-9.627-4.738l0.509 0.588c0.124 0.144 0.108 0.362-0.036 0.486-0.144 0.125-0.362 0.109-0.487-0.035l-0.508-0.588c-0.125-0.144-0.109-0.362 0.035-0.487 0.145-0.124 0.363-0.108 0.487 0.036zm5.726-0.437l-0.166 0.759c-0.04 0.186-0.225 0.304-0.411 0.263-0.186-0.04-0.304-0.224-0.264-0.41l0.166-0.759c0.041-0.187 0.225-0.305 0.411-0.264 0.187 0.041 0.305 0.225 0.264 0.411z" style="fill-rule:nonzero;fill:#fff"/>
 <defs>
  <linearGradient id="_Linear1" x2="1" gradientTransform="matrix(43.336,0,0,43.336,2.332,24)" gradientUnits="userSpaceOnUse">
   <stop style="stop-color:#067fad" offset="0"/>
   <stop style="stop-color:#36c53d" offset="1"/>
  </linearGradient>
  <linearGradient id="_Linear2" x2="1" gradientTransform="matrix(43.1611,0,0,43.1611,2.332,111.404)" gradientUnits="userSpaceOnUse">
   <stop style="stop-color:#161719" offset="0"/>
   <stop style="stop-color:#4c535b" offset="1"/>
  </linearGradient>
  <linearGradient id="_Linear3" x2="1" gradientTransform="matrix(43.336,0,0,24.7146,2.332,24.4467)" gradientUnits="userSpaceOnUse">
   <stop style="stop-color:#067fad" offset="0"/>
   <stop style="stop-color:#36c53d" offset="1"/>
  </linearGradient>
 </defs>
</svg>
