<svg style="clip-rule:evenodd;fill-rule:evenodd;stroke-linejoin:round;stroke-miterlimit:2" version="1.1" viewBox="0 0 48 48" xmlns="http://www.w3.org/2000/svg">
 <path d="m39.44 2.332c3.438 0 6.228 2.79 6.228 6.228v30.88c0 3.438-2.79 6.228-6.228 6.228h-30.88c-3.438 0-6.228-2.79-6.228-6.228v-30.88c0-3.438 2.79-6.228 6.228-6.228h30.88z" style="fill:url(#_Linear1)"/>
 <path d="m8.56 2.332h15.44v43.336h-15.44c-3.438 0-6.228-2.79-6.228-6.228v-30.88c0-3.438 2.79-6.228 6.228-6.228z" style="fill:url(#_Linear2)"/>
 <path d="m17.767 9.638-3.151 0.298-0.018 12.98 3.117-0.467 8e-3 -5.534 4.186 6.146 3.286-1.039-4.286-5.91 4.336-5.561-3.352-0.773-4.168 5.562 0.042-5.702zm-7.147 3.154c-0.036 3e-3 -0.074 0.013-0.101 0.04l-1.24 1.237c-0.053 0.053-0.059 0.132-0.021 0.195l1.444 2.392c-0.258 0.432-0.467 0.895-0.615 1.386l-2.66 0.549c-0.074 0.015-0.128 0.085-0.128 0.16l-2e-3 1.751c0 0.075 0.056 0.137 0.128 0.155l2.578 0.63c0.136 0.568 0.349 1.114 0.63 1.609l-1.498 2.274c-0.041 0.064-0.034 0.149 0.02 0.202l1.236 1.241c0.053 0.052 0.133 0.058 0.196 0.02l2.344-1.417c0.46 0.266 0.957 0.479 1.481 0.621l0.542 2.626c0.015 0.074 0.078 0.128 0.154 0.128l1.75 2e-3c0.074 2e-3 0.138-0.048 0.156-0.12l0.65-2.638c0.54-0.145 1.05-0.361 1.522-0.638l2.306 1.518c0.064 0.042 0.149 0.035 0.203-0.019l1.234-1.237c0.052-0.052 0.065-0.133 0.026-0.195l-0.839-1.388-0.277 0.087c-0.039 0.012-0.083-6e-3 -0.106-0.041 0 0-0.531-0.782-1.223-1.799-0.832 1.622-2.526 2.73-4.474 2.726-2.77-3e-3 -5.012-2.252-5.008-5.021 2e-3 -2.037 1.223-3.785 2.968-4.567l2e-3 -1.292c-0.317 0.11-0.625 0.243-0.917 0.402 0 0 1e-3 -7e-3 0-7e-3l-2.36-1.552c-0.032-0.021-0.065-0.023-0.101-0.02z" style="fill-rule:nonzero;fill:url(#_Linear3)"/>
 <path d="m32.838 19.083-1.119-0.825c-0.14-0.103-0.468 0.094-0.831 0.459l-0.479-0.353c0.243-0.454 0.332-0.827 0.193-0.929l-2.742-2.021c-1.515-0.412-3.106-0.464-4.645-0.15l-0.776 0.159c-0.129 0.026-0.232 0.126-0.26 0.255s0.022 0.262 0.129 0.34c0.043 0.032 0.093 0.053 0.146 0.062l0.931 0.144c1.055 0.165 1.989 0.774 2.565 1.674l0.037 0.057 0.668 0.492-3.403 4.618c-0.156-0.086-0.362-0.046-0.496 0.108l-4.623 4.819c-0.4 0.464-0.614 1.057-0.587 1.638 0.026 0.58 0.288 1.094 0.725 1.415 0.436 0.322 1.004 0.421 1.567 0.275 0.562-0.148 1.066-0.527 1.39-1.047l3.235-5.842c0.108-0.174 0.084-0.382-0.044-0.506l3.404-4.617 0.906 0.668c0.139 0.103 0.469-0.093 0.83-0.459l0.48 0.354c-0.242 0.453-0.332 0.826-0.193 0.928l1.12 0.825c0.198 0.147 0.778-0.304 1.296-1.006 0.517-0.701 0.774-1.389 0.576-1.535z" style="fill-rule:nonzero;fill:#ddf2e9"/>
 <path d="m35.781 28.608c4.135-0.057 7.538 3.253 7.595 7.388s-3.253 7.538-7.388 7.595-7.538-3.254-7.595-7.388c-0.057-4.135 3.253-7.538 7.388-7.595z" style="fill:url(#_Linear4)"/>
 <path d="m33.705 39.267-0.13-6.298 5.519 3.037-5.389 3.261z" style="fill-rule:nonzero;fill:url(#_Linear5)"/>
 <defs>
  <linearGradient id="_Linear1" x2="1" gradientTransform="matrix(-45.136 .647316 -.647316 -45.136 38.2068 -559.316)" gradientUnits="userSpaceOnUse">
   <stop style="stop-color:#0089c9" offset="0"/>
   <stop style="stop-color:#2dcb72" offset="1"/>
  </linearGradient>
  <linearGradient id="_Linear2" x2="1" gradientTransform="matrix(-.363346 -25.361 25.361 -.363346 1129.58 21.4678)" gradientUnits="userSpaceOnUse">
   <stop style="stop-color:#147966" offset="0"/>
   <stop style="stop-color:#2dcbc6" offset="1"/>
  </linearGradient>
  <linearGradient id="_Linear3" x2="1" gradientTransform="matrix(.460847 .000647907 -.000647907 .460847 6.35144 97.7592)" gradientUnits="userSpaceOnUse">
   <stop style="stop-color:#989a9b;stop-opacity:.87" offset="0"/>
   <stop style="stop-color:#f6f6f7;stop-opacity:.87" offset="1"/>
  </linearGradient>
  <linearGradient id="_Linear4" x2="1" gradientTransform="matrix(-.956196 -14.5787 14.5787 -.956196 1645.49 -62.2882)" gradientUnits="userSpaceOnUse">
   <stop style="stop-color:#cdd0d1" offset="0"/>
   <stop style="stop-color:#f6f6f7" offset="1"/>
  </linearGradient>
  <linearGradient id="_Linear5" x2="1" gradientTransform="matrix(5.5326,-6.28968,6.28968,5.5326,837.562,746.488)" gradientUnits="userSpaceOnUse">
   <stop style="stop-color:#16a085" offset="0"/>
   <stop style="stop-color:#2dcb72" offset="1"/>
  </linearGradient>
 </defs>
</svg>
