<svg style="clip-rule:evenodd;fill-rule:evenodd;stroke-linejoin:round;stroke-miterlimit:2" version="1.1" viewBox="0 0 48 48" xmlns="http://www.w3.org/2000/svg">
 <circle cx="24" cy="24" r="22.764" style="fill:url(#_Linear1)"/>
 <path d="m35.692 33.606l-5.153-5.153c1.242-1.793 1.863-3.791 1.863-5.995 0-1.432-0.278-2.802-0.834-4.109s-1.307-2.434-2.253-3.38c-0.947-0.947-2.073-1.698-3.381-2.254-1.307-0.556-2.677-0.834-4.109-0.834s-2.802 0.278-4.109 0.834-2.434 1.307-3.381 2.254c-0.946 0.946-1.697 2.073-2.253 3.38-0.556 1.308-0.834 2.677-0.834 4.109 0 1.433 0.278 2.802 0.834 4.109 0.556 1.308 1.307 2.434 2.253 3.381 0.947 0.946 2.074 1.697 3.381 2.253s2.677 0.834 4.109 0.834c2.204 0 4.202-0.621 5.995-1.863l5.153 5.138c0.36 0.381 0.811 0.571 1.352 0.571 0.521 0 0.972-0.19 1.352-0.571 0.381-0.38 0.571-0.831 0.571-1.352 0-0.53-0.185-0.981-0.556-1.352zm-9.112-6.393c-1.317 1.317-2.902 1.976-4.755 1.976s-3.438-0.659-4.755-1.976-1.976-2.902-1.976-4.755 0.659-3.438 1.976-4.755 2.902-1.976 4.755-1.976 3.438 0.659 4.755 1.976 1.976 2.902 1.976 4.755-0.659 3.438-1.976 4.755z" style="fill-opacity:.85;fill-rule:nonzero;fill:#fff"/>
 <defs>
  <linearGradient id="_Linear1" x2="1" gradientTransform="matrix(2.78782e-15,-45.5286,45.5286,2.78782e-15,210.895,46.7643)" gradientUnits="userSpaceOnUse">
   <stop style="stop-color:#0a80fd" offset="0"/>
   <stop style="stop-color:#56c5fa" offset="1"/>
  </linearGradient>
 </defs>
</svg>
