<svg clip-rule="evenodd" fill-rule="evenodd" stroke-linejoin="round" stroke-miterlimit="2" viewBox="0 0 48 48" xmlns="http://www.w3.org/2000/svg">
 <linearGradient id="a" x2="1" gradientTransform="matrix(0 -32.5937 32.5937 0 489.44 40.2224)" gradientUnits="userSpaceOnUse">
  <stop stop-color="#1075f6" offset="0"/>
  <stop stop-color="#12c5ff" offset="1"/>
 </linearGradient>
 <linearGradient id="b" x2="1" gradientTransform="matrix(0 -17.8231 17.8231 0 512.323 39.432)" gradientUnits="userSpaceOnUse">
  <stop stop-color="#13bee3" offset="0"/>
  <stop stop-color="#7ee3ff" offset="1"/>
 </linearGradient>
 <path d="m46.798 12.466c0-1.327-.526-2.598-1.464-3.536s-2.21-1.464-3.536-1.464h-35.596c-1.326 0-2.598.526-3.536 1.464s-1.464 2.209-1.464 3.536v23.073c0 1.326.526 2.597 1.464 3.535s2.21 1.465 3.536 1.465h35.596c1.326 0 2.598-.527 3.536-1.465s1.464-2.209 1.464-3.535z" fill="#0083d5"/>
 <path d="m46.798 16.201c0-2.761-2.238-5-5-5h-18.524c-1.232 0-2.42-.454-3.337-1.276-.428-.383-.896-.804-1.324-1.187-.917-.822-2.105-1.277-3.337-1.277h-9.074c-1.326 0-2.598.527-3.536 1.465s-1.464 2.209-1.464 3.535v23.078c0 1.326.526 2.597 1.464 3.535s2.21 1.465 3.536 1.465h35.596c2.762 0 5-2.239 5-5z" fill="url(#a)"/>
 <circle transform="translate(-1.202 4.73794)" cx="36.536" cy="30.729" r="11.464" fill="url(#b)"/>
 <path transform="matrix(1.2263 0 0 1.2263 -8.81292 -8.68038)" d="m36 28 4 3-.343.257c1.421 1.101 2.343 2.823 2.343 4.743 0 3.292-2.708 6-6 6v2l-4-3 .343-.257c-1.421-1.101-2.343-2.823-2.343-4.743 0-3.292 2.708-6 6-6zm0 4c-2.194 0-4 1.806-4 4 0 1.481.822 2.785 2.032 3.476l1.968-1.476v2c2.194 0 4-1.806 4-4 0-1.481-.822-2.785-2.032-3.476l-1.968 1.476z" fill="#fff" fill-rule="nonzero"/>
</svg>
