<svg style="clip-rule:evenodd;fill-rule:evenodd;stroke-linejoin:round;stroke-miterlimit:2" version="1.1" viewBox="0 0 48 48" xmlns="http://www.w3.org/2000/svg">
 <path d="M47,11.226C47,5.582 42.418,1 36.774,1L11.226,1C5.582,1 1,5.582 1,11.226L1,36.774C1,42.418 5.582,47 11.226,47L36.774,47C42.418,47 47,42.418 47,36.774L47,11.226Z" style="fill:url(#_Linear1)"/>
 <g transform="matrix(1.27795,0,0,1.27795,-8.0336,-10.8039)">
  <path d="m19.985 13.421c-0.918 0.259-1.658 1.292-1.658 2.295v15.906c-0.931-0.514-2.126-0.722-3.366-0.382-2.236 0.613-3.638 2.596-3.159 4.427 0.48 1.831 2.683 2.854 4.92 2.241 1.785-0.489 3.015-1.874 3.211-3.334l0.052-15.032 11.6-3.279v11.861c-0.931-0.515-2.127-0.723-3.366-0.383-2.237 0.614-3.639 2.596-3.159 4.428 0.479 1.831 2.683 2.854 4.919 2.241 1.785-0.49 3.015-1.874 3.211-3.334l0.052-19.568c0-0.753-0.441-1.316-1.036-1.422l-12.221 3.335z" style="fill-rule:nonzero;fill:rgb(181,34,143)"/>
 </g>
 <g transform="matrix(.849037 0 0 .849037 7.42025 8.79361)">
  <path d="m46.081 20.436c-2.5-4.33-12.659-3.038-14.892-1.794l-18.187 10.5c-0.96 0.554-1.286 1.772-0.732 2.732l7 12.124c0.554 0.959 1.772 1.286 2.732 0.732l18.187-10.5c1.414-0.847 8.392-9.464 5.892-13.794zm-3.464 2c0.548 0.95 0.218 2.183-0.732 2.732-0.304 0.176-0.649 0.268-1 0.268-0.714 0-1.375-0.382-1.732-1-0.176-0.304-0.268-0.649-0.268-1 0-0.714 0.382-1.375 1-1.732 0.304-0.176 0.649-0.268 1-0.268 0.713 0 1.375 0.382 1.732 1z" style="fill-rule:nonzero;fill:white"/>
 </g>
 <g transform="matrix(.849037 0 0 .849037 7.42025 8.79361)">
  <path d="m42.616 22.436c-0.357-0.618-1.018-1-1.732-1-0.351 0-0.696 0.092-1 0.268-0.618 0.357-1 1.018-1 1.732 0 0.351 0.092 0.696 0.268 1 0.357 0.618 1.018 1 1.732 1 0.351 0 0.696-0.092 1-0.268 0.95-0.548 1.281-1.782 0.732-2.732zm-0.866 0.5c0.282 0.489 0.123 1.084-0.366 1.366s-1.084 0.123-1.366-0.366-0.123-1.084 0.366-1.366 1.084-0.123 1.366 0.366z" style="fill-rule:nonzero;fill:white"/>
 </g>
 <g transform="matrix(.849037 0 0 .849037 7.42025 8.79361)">
  <path d="m15.002 32.606 1 1.732 1.732-1 4 6.928 1.732-1-4-6.928 1.732-1-1-1.732-5.196 3zm6.928-4 5 8.66 1.732-1-2-3.464 1.732-1 2 3.464 1.733-1-5-8.66-3.465 2-1.732 1zm6.928-4 5 8.66 1.732-1 3.465-2-1.5-2.598 0.866-0.5-1-1.732-3.465 2 1 1.732 0.866-0.5 0.5 0.866-1.732 1-3-5.196 3.464-2-1-1.732-5.196 3zm-4.196 4.732 1.732-1 1 1.732-1.732 1-1-1.732z" style="fill-rule:nonzero"/>
 </g>
 <defs>
  <linearGradient id="_Linear1" x2="1" gradientTransform="matrix(-1.76923,-42.4615,42.4615,-1.76923,68.2307,43.4616)" gradientUnits="userSpaceOnUse">
   <stop style="stop-color:rgb(168,198,226)" offset="0"/>
   <stop style="stop-color:rgb(238,250,255)" offset="1"/>
  </linearGradient>
 </defs>
</svg>
