<svg style="clip-rule:evenodd;fill-rule:evenodd;stroke-linejoin:round;stroke-miterlimit:2" version="1.1" viewBox="0 0 48 48" xmlns="http://www.w3.org/2000/svg">
 <path d="m45.668 8.56c0-3.438-2.79-6.228-6.228-6.228h-30.88c-3.438 0-6.228 2.79-6.228 6.228v30.88c0 3.438 2.79 6.228 6.228 6.228h30.88c3.438 0 6.228-2.79 6.228-6.228v-30.88z" style="fill:url(#_Linear1)"/>
 <path d="m39.811 11.509c0.822 2.108-0.22 4.485-2.329 5.308-0.191-0.489-0.281-0.993-0.281-1.488 0-1.64 0.99-3.188 2.61-3.82zm-4.856 1.812c-1.712 1.479-4.3 1.292-5.781-0.42 0.775-0.67 1.729-0.998 2.679-0.998 1.149 0 2.292 0.481 3.102 1.418zm-2.497-8.824c1.71 1.484 1.893 4.073 0.408 5.782-0.933-0.811-1.411-1.951-1.411-3.097 0-0.953 0.33-1.909 1.003-2.685z" style="fill-rule:nonzero;fill:#9ad14b"/>
 <path d="m38.672 25.181c-0.011 0-0.022-1e-3 -0.033-1e-3 -0.276-0.019-0.485-0.257-0.467-0.533 0.466-7.074-3.589-13.722-10.091-16.542-0.254-0.11-0.371-0.405-0.261-0.659s0.406-0.37 0.659-0.26c6.89 2.988 11.187 10.031 10.693 17.527-0.018 0.264-0.238 0.468-0.5 0.468z" style="fill-rule:nonzero;fill:#b27214"/>
 <path d="m39.298 20.144c-0.034 0.014-0.068 0.028-0.101 0.043-1.928 0.838-3.072 2.854-2.795 4.947 0.477 3.589-0.853 6.954-3.242 9.247-1.95 1.871-4.607 3.029-7.561 3.01-0.294-1e-3 -0.583 0.057-0.848 0.172-0.167 0.073-0.324 0.168-0.468 0.285-2.06 1.677-2.841 3.756-3.127 4.873-0.126 0.491-0.587 0.816-1.092 0.779-3.522-0.257-5.275-2.364-6.053-3.745-0.322-0.571-0.048-1.294 0.572-1.504 2.779-0.941 4.822-3.101 5.496-3.886 0.045-0.053 0.086-0.1 0.118-0.14 0.047-0.056 0.08-0.099 0.101-0.123 0.014-0.019 0.022-0.029 0.022-0.029-0.371-0.049-0.732-0.105-1.082-0.17-0.648-0.117-1.259-0.259-1.837-0.425-0.798-0.226-1.531-0.496-2.202-0.8-0.528-0.239-1.018-0.5-1.473-0.778-0.897-0.548-1.658-1.165-2.303-1.826-0.378-0.387-0.716-0.789-1.02-1.199-0.483-0.657-0.876-1.338-1.194-2.021v-1e-3c-0.197-0.422-0.364-0.843-0.508-1.261-0.032-0.095-0.064-0.19-0.094-0.285-0.25-0.787-0.416-1.556-0.523-2.271-0.073-0.486-0.119-0.947-0.145-1.373-0.1-1.603 0.07-2.698 0.07-2.698 1.728 1.08 3.56 1.45 5.358 1.475 3.312 0.046 6.503-1.073 8.686-1.06 3.368 0.021 6.554 2.835 6.554 2.835 3e-3 -7e-3 6e-3 -0.013 9e-3 -0.02 1.404-3.013 2.981-3.966 4.283-4.11 0.371-0.042 0.721-0.017 1.038 0.045h1e-3c1.003 0.195 1.672 0.759 1.672 0.759 1.673 1.694 3.688 1.255 3.688 1.255z" style="fill-rule:nonzero;fill:#2ba5f7"/>
 <path d="m21.538 34.143c4.774-0.808 8.641-2.315 7.367-5.122-2.781-6.126-18.721-3.946-20.298-3.714 1.171 3.677 4.19 7.774 11.713 8.766 0 0-8e-3 0.01-0.022 0.029-0.021 0.025-0.054 0.067-0.101 0.123-0.519 0.626-2.65 3.025-5.621 4.029-0.618 0.208-0.886 0.933-0.565 1.501 0.778 1.381 2.531 3.487 6.053 3.745 0.504 0.037 0.967-0.288 1.092-0.778 0.285-1.119 1.066-3.197 3.127-4.874 0.37-0.301 0.837-0.46 1.315-0.457 2.955 0.019 5.611-1.139 7.561-3.01-5.371 1.99-10.852 0.054-11.621-0.238zm12.399-16.013c-0.067 0.016-3.502 0.912-3.123 5.905l-2.198-1.84c1.404-3.014 2.981-3.966 4.283-4.111 0.371-0.041 0.721-0.016 1.038 0.046z" style="fill-rule:nonzero;fill:#0f8dd3"/>
 <path d="m20.4 33.106c-0.247 0.244-0.696 0.532-1.162 0.797-0.647-0.117-1.259-0.259-1.836-0.425 0.753-0.366 1.825-0.937 2.137-1.245 0.241-0.238 0.629-0.235 0.867 6e-3s0.236 0.629-6e-3 0.867zm-3.448-1.316c-0.319 0.239-0.767 0.471-1.249 0.68-0.166 0.073-0.335 0.142-0.504 0.208-0.528-0.239-1.018-0.5-1.473-0.778 0.887-0.293 1.979-0.708 2.49-1.091 0.271-0.203 0.655-0.148 0.859 0.123 0.203 0.271 0.148 0.655-0.123 0.858zm-2.533-2.365c-0.072 0.038-0.148 0.074-0.226 0.108-0.799 0.347-1.861 0.489-2.77 0.541-0.378-0.387-0.716-0.789-1.02-1.2 0.986 3e-3 2.421-0.083 3.291-0.462 0.055-0.023 0.107-0.048 0.157-0.074 0.302-0.158 0.671-0.041 0.828 0.26 0.157 0.3 0.041 0.67-0.26 0.827zm-0.73-3.628c0.099 0.304-0.051 0.629-0.338 0.753-0.017 8e-3 -0.036 0.015-0.055 0.021-1.071 0.349-2.756 0.353-4.087 0.283v-1e-3c-0.197-0.422-0.364-0.843-0.508-1.262 1.375 0.099 3.221 0.138 4.214-0.186 0.323-0.106 0.669 0.07 0.774 0.392zm-0.321-2.506c-2e-3 0.25-0.153 0.465-0.369 0.559-0.077 0.033-0.16 0.05-0.248 0.051-1.891-0.012-3.562-0.468-4.667-0.866-0.073-0.485-0.119-0.947-0.144-1.372 0.258 0.106 0.585 0.229 0.965 0.354 0.993 0.323 2.358 0.648 3.854 0.657 0.338 1e-3 0.611 0.278 0.609 0.617z" style="fill-rule:nonzero;fill:#0569a0"/>
 <circle cx="33.773" cy="20.762" r=".613" style="fill:#4d4d4d"/>
 <defs>
  <linearGradient id="_Linear1" x2="1" gradientTransform="matrix(2.65364e-15,-43.3373,43.3373,2.65364e-15,201.9,45.6687)" gradientUnits="userSpaceOnUse">
   <stop style="stop-color:#cecece" offset="0"/>
   <stop style="stop-color:#fff" offset="1"/>
  </linearGradient>
 </defs>
</svg>
