<svg style="clip-rule:evenodd;fill-rule:evenodd;stroke-linejoin:round;stroke-miterlimit:1.41421" version="1.1" viewBox="0 0 64 64" xmlns="http://www.w3.org/2000/svg">
 <path d="m61.52 9.732c0-1.563-1.267-2.83-2.83-2.83h-53.38c-1.563 0-2.83 1.267-2.83 2.83v45.878c0 1.563 1.267 2.83 2.83 2.83h53.38c1.563 0 2.83-1.267 2.83-2.83v-45.878z" style="fill-opacity:.67"/>
 <path d="m61.52 9.115c0-1.963-1.592-3.555-3.556-3.555h-51.928c-1.964 0-3.556 1.592-3.556 3.555v44.427c0 1.964 1.592 3.556 3.556 3.556h51.928c1.964 0 3.556-1.592 3.556-3.556v-44.427z" style="fill:url(#_Linear1)"/>
 <path d="m43.9 37.572v6.018h-24.184v-6.018h24.184zm9.123-0.371v6.389h-6.389v-6.389h6.389zm-35.654 0v6.389h-6.389v-6.389h6.389zm26.531-8.396v6.39h-6.389v-6.39h6.389zm9.123 0v6.39h-6.389v-6.39h6.389zm-17.828 0v6.39h-6.39v-6.39h6.39zm-9.087 0v6.39h-6.392v-6.39h6.392zm-8.739 0v6.39h-6.392v-6.39h6.392zm26.531-8.357v6.39h-6.389v-6.39h6.389zm9.123 0v6.39h-6.389v-6.39h6.389zm-17.785 0v6.39h-6.389v-6.39h6.389zm-9.13 0v6.39h-6.392v-6.39h6.392zm-8.739 0v6.39h-6.392v-6.39h6.392z" style="fill:url(#_Linear2)"/>
 <path d="m15.651 41.343c0.01 8e-3 0.025 0.042 0.023 0.091-4e-3 0.088 0.179 0.316 0.248 0.359 0.319 0.198-0.198 0.367-0.288 0.427-0.137 0.09-0.275 0.181-0.394 0.294-0.25 0.239-0.451-0.173-0.661-0.178-0.205-5e-3 -0.39-4e-3 -0.594 7e-3 -0.195 2e-3 -0.387 0.223-0.561 0.207-0.216-0.021-0.412-0.136-0.625-0.181-0.069-0.014-0.394-0.042-0.465-0.15-0.043-0.066 0.058-0.241 0.061-0.296 1e-3 -0.016-0.075-0.313-0.018-0.355 0.079-0.057 0.2-0.016 0.285-0.063 0.07-0.039 0.074-0.097 0.114-0.145 0 0 0.104-0.07 0.126-0.094-0.03-0.026-0.031-0.065-0.033-0.083-0.012-0.092-0.032-0.129-5e-3 -0.277 0.045-0.255 0.212-0.615 0.401-0.801 0.105-0.135 0.2-0.347 0.231-0.464 0.017-0.34-0.026-0.832 0.173-1.146 0.235-0.37 0.748-0.397 1.001-0.032 0.208 0.301 0.168 0.716 0.267 1.048 0.155 0.518 0.614 0.822 0.709 1.393 0.039 0.238-0.012 0.385-0.065 0.393-0.077 0.011-0.126 0.258-0.37 0.247-0.148-7e-3 -0.169-0.044-0.225-0.111-0.016-0.019-0.04-0.054-0.055-0.09-0.028 0.046-0.027 0.071-5e-3 0.115 0.032 0.064 0.129 0.214 0.408 0.13 0.112-0.033 0.159-0.082 0.22-0.156 0.06-0.073 0.072-0.11 0.097-0.089zm-1.967-2.228c-8e-3 -0.073-0.024-0.134 0.102-0.138 0.081-3e-3 0.105 0.153 0.085 0.2-0.065 0.153-0.391 0.189-0.112 0.36 0.04 0.024 0.085 0.047 0.132 0.049 0.062 2e-3 0.302-0.04 0.386-0.078 0.061-0.027 0.099-0.07 0.175-0.096 0.025-9e-3 -0.101 0.109-0.183 0.142-0.076 0.031-0.264 0.069-0.335 0.083-0.07 0.012-0.166-0.065-0.147 3e-3 0.02 0.068 0.184 0.103 0.205 0.1 0.226-0.014 0.283-0.088 0.4-0.167 0.016-0.011 0.056 6e-3 0.052 0.025-0.016 0.071-0.087 0.155-0.13 0.176-0.19 0.094-0.312 0.181-0.434 0.118-0.142-0.076-0.058-0.157-0.198-0.234-0.05-0.028-0.032 0.111-0.053 0.164-0.055 0.141-0.184 0.264-0.096 0.428-0.074 0.02-0.243 0.378-0.268 0.564-0.012 0.103 4e-3 0.209-0.015 0.311-7e-3 0.039-0.09-8e-3 -0.108-0.043-0.051-0.096-0.064-0.208-0.042-0.314 0.01-0.045 2e-3 -0.055-0.01-0.033-0.068 0.119-0.031 0.286 0.023 0.403 0.111 0.241 0.411 0.336 0.6 0.523 0.062 0.062 0.051 0.175-0.022 0.225-0.176-0.234-0.391-0.448-0.467-0.515-0.032-0.028-0.107-0.104-0.168-0.08 0.058 0.047 0.158 0.148 0.228 0.212 0.221 0.205 0.484 0.493 0.482 0.822 0.09-0.048 0.054-0.155 0.016-0.224-0.116-0.212 0.098-0.034 0.197-0.012 0.077 0.017 0.157 0.011 0.235 2e-3 0.084-0.011 0.169-0.027 0.245-0.065 0.07-0.035 0.123-0.098 0.183-0.148 0.029-0.024 0.051-0.09 0.085-0.073 0.132 0.064-0.164 0.474 0.01 0.48 0.021-0.136 0.059-0.271 0.069-0.407 0.012-0.141-0.159-0.625 0.144-0.63 8e-3 -0.194 0.309-0.179 0.407-0.099 0-0.044-0.094-0.084-0.132-0.103 0.065-0.218 0.035-0.306-9e-3 -0.512-0.033-0.157-0.176-0.369-0.288-0.435 0.208 0.183 0.344 0.616 0.269 0.881-0.025 0.086-0.081 0.097-0.12 0.101-0.173 0.018-0.071-0.204-0.143-0.509-0.08-0.34-0.161-0.365-0.182-0.392-0.099-0.441-0.209-0.397-0.24-0.564-0.028-0.148 0.129-0.27-0.084-0.311-0.069-0.014-0.143-0.035-0.195-0.083-0.066-0.064-0.02-0.246 0.08-0.253 0.135-0.01 0.179 0.154 0.153 0.217-8e-3 0.013-0.026 0.055-0.044 0.082 0.024 9e-3 0.05 0.019 0.094-0.018 0.079-0.064 0.062-0.118 0.044-0.183-0.055-0.192-0.131-0.228-0.219-0.245-0.125-0.024-0.201 0.075-0.222 0.203-9e-3 0.052 2e-3 0.111 0.016 0.156-0.03-2e-3 -0.088-0.016-0.126-0.023-0.025-4e-3 -0.052 6e-3 -0.075 6e-3 3e-3 -0.19-0.061-0.315-0.149-0.317-0.174-5e-3 -0.19 0.362-0.063 0.425 0.014 7e-3 0.049-0.022 0.054-0.037-0.011-0.011-0.028-0.026-0.051-0.048s-0.039-0.053-0.041-0.072zm0.642-0.117c-0.066 6e-3 -0.089 0.077-0.091 0.134-1e-3 0.021 9e-3 0.059 0.029 0.071 0.056 0.035 0.105 0.033 0.126 0.02 0.032-0.021 0.039-0.067 0.03-0.122-0.059 6e-3 -0.103-2e-3 -0.101-0.07 0-0.012 8e-3 -0.033 7e-3 -0.033zm-0.615 0.115c8e-3 0.022 0.02 0.054 0.07 0.073 0.027 0.011 0.063-0.013 0.065-0.045 2e-3 -0.026-4e-3 -0.039-7e-3 -0.044-0.014 9e-3 -0.028 9e-3 -0.038 0.012-0.016 4e-3 -0.027-9e-3 -0.035-0.021-8e-3 -0.011-5e-3 -0.026-3e-3 -0.039 2e-3 -0.012 5e-3 -0.023 0.014-0.042-0.018-0.013-0.055 0.02-0.064 0.043-8e-3 0.017-9e-3 0.042-2e-3 0.063z" style="fill-rule:nonzero;fill:#fff"/>
 <path d="m22.381 1.034h18.667c1.478 0 2.668 1.241 2.668 2.783v19.478c0 4.174-9.334 6.958-12 9.74-2.666-2.782-12-5.566-12-9.74v-19.477c0-1.542 1.19-2.783 2.666-2.783l-1e-3 -1e-3z" style="fill-rule:nonzero;fill:#009f38"/>
 <path d="m34.811 23.034l-3.943-6.799-2.151 1.733v5.066h-3.001v-16h3v6.845l5.923-6.845h3.962l-5.389 6.6 5.621 9.4h-4.023 1e-3z" style="fill-rule:nonzero;fill:#fff"/>
 <defs>
  <linearGradient id="_Linear1" x2="1" gradientTransform="matrix(3.2742e-15,-53.4717,53.4717,3.2742e-15,331.817,59.273)" gradientUnits="userSpaceOnUse">
   <stop style="stop-color:#97a9b1" offset="0"/>
   <stop style="stop-color:#cfdce1" offset="1"/>
  </linearGradient>
  <linearGradient id="_Linear2" x2="1" gradientTransform="matrix(-3.08434,24.3946,-24.3946,-3.08434,-468.351,-42.6201)" gradientUnits="userSpaceOnUse">
   <stop style="stop-color:#818181" offset="0"/>
   <stop style="stop-color:#484848" offset="1"/>
  </linearGradient>
 </defs>
</svg>
