<svg style="clip-rule:evenodd;fill-rule:evenodd;stroke-linejoin:round;stroke-miterlimit:2" version="1.1" viewBox="0 0 48 48" xmlns="http://www.w3.org/2000/svg">
 <path d="m47.312 10.595c0-0.976-0.388-1.911-1.077-2.601-0.69-0.691-1.627-1.079-2.603-1.079h-39.264c-0.976 0-1.913 0.388-2.603 1.079-0.689 0.69-1.077 1.625-1.077 2.601v27.823c0 0.976 0.388 1.911 1.077 2.602 0.69 0.69 1.627 1.078 2.603 1.078h39.264c0.976 0 1.913-0.388 2.603-1.078 0.689-0.691 1.077-1.626 1.077-2.602v-27.823z" style="fill-opacity:.67"/>
 <path d="m47.312 9.381c0-1.921-1.557-3.479-3.479-3.479h-39.666c-1.922 0-3.479 1.558-3.479 3.479v28.225c0 1.921 1.557 3.479 3.479 3.479h39.666c1.922 0 3.479-1.558 3.479-3.479v-28.225z" style="fill:url(#_Linear1)"/>
 <path d="m3.128 7.732v5.007h1.001v-4.006h4.006v-1.001h-5.007z" style="fill-opacity:.75;fill-rule:nonzero;fill:#fff"/>
 <path d="m3.128 40.081h5.007v-1.002h-4.006v-4.006h-1.001v5.008z" style="fill-opacity:.75;fill-rule:nonzero;fill:#fff"/>
 <path d="m44.491 39.58v-1.002-4.006h-1.002v4.006h-4.006v1.002h5.008z" style="fill-opacity:.75;fill-rule:nonzero;fill:#fff"/>
 <path d="m44.591 8.032h-1.002-4.006v1.001h4.006v4.006h1.002v-5.007z" style="fill-opacity:.75;fill-rule:nonzero;fill:#fff"/>
 <path d="m33.831 31.9l-4.128-4.129c0.995-1.436 1.492-3.037 1.492-4.803 0-1.147-0.222-2.245-0.668-3.292-0.445-1.047-1.047-1.95-1.805-2.709-0.759-0.758-1.661-1.36-2.709-1.805-1.047-0.446-2.145-0.668-3.292-0.668-1.148 0-2.245 0.222-3.292 0.668-1.048 0.445-1.951 1.047-2.709 1.805-0.758 0.759-1.36 1.662-1.806 2.709-0.445 1.047-0.668 2.145-0.668 3.292 0 1.148 0.223 2.245 0.668 3.292 0.446 1.048 1.048 1.95 1.806 2.709 0.758 0.758 1.661 1.36 2.709 1.805 1.047 0.446 2.144 0.668 3.292 0.668 1.766 0 3.367-0.497 4.803-1.492l4.129 4.116c0.289 0.305 0.649 0.458 1.083 0.458 0.417 0 0.779-0.153 1.083-0.458 0.305-0.305 0.458-0.666 0.458-1.083 0-0.425-0.149-0.786-0.446-1.083zm-7.3-5.122c-1.056 1.055-2.325 1.583-3.81 1.583s-2.755-0.528-3.81-1.583c-1.055-1.056-1.583-2.325-1.583-3.81s0.528-2.755 1.583-3.81 2.325-1.583 3.81-1.583c1.484 0 2.754 0.528 3.81 1.583 1.055 1.055 1.583 2.325 1.583 3.81s-0.528 2.754-1.583 3.81z" style="fill-opacity:.72;fill-rule:nonzero;fill:#fff"/>
 <defs>
  <linearGradient id="_Linear1" x2="1" gradientTransform="matrix(2.21762e-15,-36.2165,36.2165,2.21762e-15,275.714,42.119)" gradientUnits="userSpaceOnUse">
   <stop style="stop-color:#00a199" offset="0"/>
   <stop style="stop-color:#03ec99" offset="1"/>
  </linearGradient>
 </defs>
</svg>
