<svg style="clip-rule:evenodd;fill-rule:evenodd;stroke-linejoin:round;stroke-miterlimit:2" version="1.1" viewBox="0 0 48 48" xmlns="http://www.w3.org/2000/svg">
 <path d="m5.019 12.264l34.798-5.272 4.683 31.146s-23.563 6.343-30.96 8.334c-0.564 0.152-1.167 0.061-1.661-0.252s-0.835-0.818-0.939-1.393c-1.398-7.687-5.921-32.563-5.921-32.563z" style="fill-rule:nonzero;fill:#7d7d7d"/>
 <path d="m3.965 11.21l36.907-3.164 3.628 30.092s-27.06 4.935-35.128 6.406c-0.577 0.106-1.171-0.036-1.638-0.39s-0.764-0.888-0.819-1.471c-0.71-7.571-2.95-31.473-2.95-31.473z" style="fill-rule:nonzero;fill:#a8a8a8"/>
 <path d="m45.668 8.56c0-3.438-2.79-6.228-6.228-6.228h-30.88c-3.438 0-6.228 2.79-6.228 6.228v26.376c0 3.438 2.79 6.228 6.228 6.228h30.88c3.438 0 6.228-2.79 6.228-6.228v-26.376z" style="fill:url(#_Linear1)"/>
 <circle cx="36.127" cy="34.936" r="9.541" style="fill:#fff"/>
 <circle cx="36.127" cy="34.936" r="7.296" style="fill:#b35342"/>
 <defs>
  <linearGradient id="_Linear1" x2="1" gradientTransform="matrix(2.65364e-15,-43.3373,43.3373,2.65364e-15,201.9,45.6687)" gradientUnits="userSpaceOnUse">
   <stop style="stop-color:#b62680" offset="0"/>
   <stop style="stop-color:#d680b6" offset="1"/>
  </linearGradient>
 </defs>
</svg>
