<svg style="clip-rule:evenodd;fill-rule:evenodd;stroke-linejoin:round;stroke-miterlimit:2" version="1.1" viewBox="0 0 48 48" xmlns="http://www.w3.org/2000/svg">
 <g transform="matrix(1.10446,0,0,1.10446,-2.50716,-2.50721)">
  <path d="m24.045 4.001c-0.352-8e-3 -0.7 0.079-1.005 0.252l-16.08 9.062c-0.593 0.334-0.96 0.954-0.96 1.623v18.126c0 0.669 0.367 1.289 0.96 1.623l16.081 9.063c0.593 0.334 1.326 0.334 1.919 0l16.079-9.065c0.593-0.334 0.96-0.953 0.961-1.621v-18.127c0-0.669-0.367-1.289-0.961-1.623l-16.079-9.062c-0.279-0.157-0.593-0.244-0.915-0.252v1e-3z" style="fill-rule:nonzero;fill:url(#_Linear1)"/>
 </g>
 <g transform="matrix(1.10446,0,0,1.10446,-2.50716,-2.50721)">
  <path d="m17.837 35.891c-0.06-0.06-0.109-0.28-0.109-0.49 0-0.467-0.255-0.495-0.491-0.054-0.28 0.522-0.509 0.378-0.457-0.286 0.037-0.478-6e-3 -0.599-0.198-0.549-1.094 0.281-1.1 0.272-0.368-0.525 0.782-0.851 0.925-1.364 0.327-1.176-0.202 0.064-0.791 0.155-1.308 0.202-1.593 0.146-3.233-0.887-3.233-2.037 0-0.485 0.847-1.164 2.065-1.656 0.619-0.251 1.145-0.559 1.168-0.685s-0.219-0.397-0.537-0.601c-0.731-0.47-1.14-1.129-1.571-2.53-0.498-1.615-0.388-4.406 0.246-6.243 2.198-6.372 8.585-9.014 14.613-6.046 3.858 1.9 6.645 4.909 7.253 7.829 0.164 0.79 0.148 0.96-0.145 1.534-0.387 0.756-1.25 1.664-1.582 1.664-0.127 0-0.433-0.239-0.68-0.531-0.645-0.764-3.555-3.64-4.768-4.712l-1.035-0.914 0.115-0.918c0.11-0.878 0.097-0.926-0.309-1.11-0.617-0.281-1.478-6e-3 -1.55 0.495-0.041 0.284 0.171 0.611 0.813 1.261l0.868 0.876-0.977 3e-3c-1.772 4e-3 -2.115 0.284-1.242 1.016 0.646 0.543 0.871 1.02 0.814 1.728l-0.048 0.601 0.773-0.039c0.594-0.031 0.773 0.017 0.773 0.204 0 0.134-0.074 0.244-0.164 0.244-0.272 0-0.183 0.461 0.123 0.642 0.222 0.13 0.239 0.199 0.076 0.307-0.115 0.076-0.163 0.261-0.105 0.411 0.158 0.412-0.167 0.338-1.434-0.327-1.046-0.548-1.178-0.676-1.545-1.505-0.651-1.468-1.206-1.86-1.206-0.851 0 0.249-0.155 1.035-0.345 1.746-0.604 2.262-0.675 2.026 0.612 2.027 1.289 1e-3 2.221 0.218 2.529 0.588 0.226 0.271 0.253 1.015 0.072 1.976-0.105 0.557-0.093 0.575 0.308 0.475 0.391-0.098 0.411-0.074 0.318 0.387-0.095 0.475-0.078 0.493 0.495 0.493 0.326 0 0.593 0.073 0.593 0.163s-0.059 0.163-0.132 0.163-0.275 0.104-0.448 0.23c-0.31 0.226-0.31 0.237-6e-3 0.572 0.354 0.39 0.312 0.405-0.969 0.346-0.967-0.044-1.17-0.179-1.315-0.873-0.168-0.809-0.543-1.315-0.809-1.094-0.506 0.419 0.473 2.146 1.691 2.982 1.721 1.181 3.684 1.458 5.49 0.774 1.229-0.465 3.012-2.191 3.996-3.868 1.096-1.868 1.336-1.836 0.937 0.128-0.663 3.266-2.912 5.722-6.213 6.785-1.059 0.341-1.647 0.426-2.958 0.428-2.733 5e-3 -4.297-0.762-6.827-3.347-1.593-1.626-2.067-1.751-1.253-0.33l0.522 0.91-0.528 1.608c-0.29 0.884-0.548 1.608-0.572 1.608s-0.093-0.049-0.153-0.109zm0.726-8.809c-1.419-2.833-1.735-3.974-1.735-6.27 0-1.723 0.037-1.947 0.439-2.709 1.219-2.305 3.825-3.652 7.076-3.658 1.525-3e-3 3.251 0.266 3.941 0.613 0.851 0.427 2.064 1.538 3.303 3.024 1.451 1.739 1.569 2.07 0.506 1.424-0.294-0.179-0.695-0.326-0.89-0.327-0.629-1e-3 -0.862-0.183-0.97-0.758-0.078-0.414-0.305-0.716-0.854-1.134-1.239-0.944-1.711-0.519-0.855 0.77 0.722 1.088 4.701 4.911 5.044 4.847 0.5-0.093 0.882-1.093 0.801-2.094-0.137-1.696-1.334-3.458-3.205-4.721-1.707-1.152-4.944-2.624-6.403-2.911-4.648-0.914-9.184 1.977-9.852 6.278-0.399 2.576 1.028 5.981 3.701 8.829 0.443 0.473 0.833 0.832 0.866 0.799 0.034-0.033-0.377-0.935-0.912-2.003l-1e-3 1e-3z" style="fill-rule:nonzero;fill:white"/>
 </g>
 <defs>
  <linearGradient id="_Linear1" x2="1" gradientTransform="matrix(2.4493e-15,-40.0001,40.0001,2.4493e-15,23.9999,44.0005)" gradientUnits="userSpaceOnUse">
   <stop style="stop-color:rgb(214,125,11)" offset="0"/>
   <stop style="stop-color:rgb(249,168,37)" offset="1"/>
  </linearGradient>
 </defs>
</svg>
