<svg clip-rule="evenodd" fill-rule="evenodd" stroke-linejoin="round" stroke-miterlimit="2" viewBox="0 0 48 48" xmlns="http://www.w3.org/2000/svg">
 <linearGradient id="a" x2="1" gradientTransform="matrix(0 -40.0001 40.0001 0 23.9999 44.0005)" gradientUnits="userSpaceOnUse">
  <stop stop-color="#d67d0b" offset="0"/>
  <stop stop-color="#f9a825" offset="1"/>
 </linearGradient>
 <g transform="matrix(1.10446 0 0 1.10446 -2.50716 -2.50721)" fill-rule="nonzero">
  <path d="m24.045 4.001c-.352-.008-.7.079-1.005.252l-16.08 9.062c-.593.334-.96.954-.96 1.623v18.126c0 .669.367 1.289.96 1.623l16.081 9.063c.593.334 1.326.334 1.919 0l16.079-9.065c.593-.334.96-.953.961-1.621v-18.127c0-.669-.367-1.289-.961-1.623l-16.079-9.062c-.279-.157-.593-.244-.915-.252z" fill="url(#a)"/>
  <path d="m17.837 35.891c-.06-.06-.109-.28-.109-.49 0-.467-.255-.495-.491-.054-.28.522-.509.378-.457-.286.037-.478-.006-.599-.198-.549-1.094.281-1.1.272-.368-.525.782-.851.925-1.364.327-1.176-.202.064-.791.155-1.308.202-1.593.146-3.233-.887-3.233-2.037 0-.485.847-1.164 2.065-1.656.619-.251 1.145-.559 1.168-.685s-.219-.397-.537-.601c-.731-.47-1.14-1.129-1.571-2.53-.498-1.615-.388-4.406.246-6.243 2.198-6.372 8.585-9.014 14.613-6.046 3.858 1.9 6.645 4.909 7.253 7.829.164.79.148.96-.145 1.534-.387.756-1.25 1.664-1.582 1.664-.127 0-.433-.239-.68-.531-.645-.764-3.555-3.64-4.768-4.712l-1.035-.914.115-.918c.11-.878.097-.926-.309-1.11-.617-.281-1.478-.006-1.55.495-.041.284.171.611.813 1.261l.868.876-.977.003c-1.772.004-2.115.284-1.242 1.016.646.543.871 1.02.814 1.728l-.048.601.773-.039c.594-.031.773.017.773.204 0 .134-.074.244-.164.244-.272 0-.183.461.123.642.222.13.239.199.076.307-.115.076-.163.261-.105.411.158.412-.167.338-1.434-.327-1.046-.548-1.178-.676-1.545-1.505-.651-1.468-1.206-1.86-1.206-.851 0 .249-.155 1.035-.345 1.746-.604 2.262-.675 2.026.612 2.027 1.289.001 2.221.218 2.529.588.226.271.253 1.015.072 1.976-.105.557-.093.575.308.475.391-.098.411-.074.318.387-.095.475-.078.493.495.493.326 0 .593.073.593.163s-.059.163-.132.163-.275.104-.448.23c-.31.226-.31.237-.006.572.354.39.312.405-.969.346-.967-.044-1.17-.179-1.315-.873-.168-.809-.543-1.315-.809-1.094-.506.419.473 2.146 1.691 2.982 1.721 1.181 3.684 1.458 5.49.774 1.229-.465 3.012-2.191 3.996-3.868 1.096-1.868 1.336-1.836.937.128-.663 3.266-2.912 5.722-6.213 6.785-1.059.341-1.647.426-2.958.428-2.733.005-4.297-.762-6.827-3.347-1.593-1.626-2.067-1.751-1.253-.33l.522.91-.528 1.608c-.29.884-.548 1.608-.572 1.608s-.093-.049-.153-.109zm.726-8.809c-1.419-2.833-1.735-3.974-1.735-6.27 0-1.723.037-1.947.439-2.709 1.219-2.305 3.825-3.652 7.076-3.658 1.525-.003 3.251.266 3.941.613.851.427 2.064 1.538 3.303 3.024 1.451 1.739 1.569 2.07.506 1.424-.294-.179-.695-.326-.89-.327-.629-.001-.862-.183-.97-.758-.078-.414-.305-.716-.854-1.134-1.239-.944-1.711-.519-.855.77.722 1.088 4.701 4.911 5.044 4.847.5-.093.882-1.093.801-2.094-.137-1.696-1.334-3.458-3.205-4.721-1.707-1.152-4.944-2.624-6.403-2.911-4.648-.914-9.184 1.977-9.852 6.278-.399 2.576 1.028 5.981 3.701 8.829.443.473.833.832.866.799.034-.033-.377-.935-.912-2.003z" fill="#fff"/>
 </g>
</svg>
