<svg style="clip-rule:evenodd;fill-rule:evenodd;stroke-linejoin:round;stroke-miterlimit:2" version="1.1" viewBox="0 0 48 48" xmlns="http://www.w3.org/2000/svg">
 <path d="m37.02 1.667c2.783 0 5.039 2.257 5.039 5.04v34.586c0 2.783-2.256 5.04-5.039 5.04h-25.149c-2.783 0-5.039-2.257-5.039-5.04v-34.586c0-2.783 2.256-5.04 5.039-5.04h25.149z" style="fill-rule:nonzero;fill:url(#_Linear1)"/>
 <path d="m37.02 1.667c2.783 0 5.039 2.257 5.039 5.04v17.293h-35.227v-17.293c0-2.783 2.256-5.04 5.039-5.04h25.149z" style="fill-rule:nonzero;fill:url(#_Linear2)"/>
 <path d="m13.237 28.804h22.417v1.601h-22.417v-1.601zm0 4.803h22.417v1.602h-22.417v-1.602zm0 4.804h22.417v1.601h-22.417v-1.601z" style="fill-rule:nonzero;fill:#4c4c4c"/>
 <path d="m13.237 7.988h22.417v1.601h-22.417v-1.601zm0 4.803h22.417v1.602h-22.417v-1.602zm0 4.804h22.417v1.601h-22.417v-1.601z" style="fill-rule:nonzero;fill:#fff"/>
 <defs>
  <linearGradient id="_Linear1" x2="1" gradientTransform="matrix(-44,5.38845e-15,-5.38845e-15,-44,54,-192)" gradientUnits="userSpaceOnUse">
   <stop style="stop-color:#c8c8c8" offset="0"/>
   <stop style="stop-color:#f3f3f3" offset="1"/>
  </linearGradient>
  <linearGradient id="_Linear2" x2="1" gradientTransform="matrix(-44,5.38845e-15,-5.38845e-15,-44,54,-94)" gradientUnits="userSpaceOnUse">
   <stop style="stop-color:#07f" offset="0"/>
   <stop style="stop-color:#32d3e0" offset="1"/>
  </linearGradient>
 </defs>
</svg>
