<svg style="clip-rule:evenodd;fill-rule:evenodd;stroke-linejoin:round;stroke-miterlimit:2" version="1.1" viewBox="0 0 48 48" xmlns="http://www.w3.org/2000/svg">
 <path d="m45.668 8.56c0-3.438-2.79-6.228-6.228-6.228h-30.88c-3.438 0-6.228 2.79-6.228 6.228v30.88c0 3.438 2.79 6.228 6.228 6.228h30.88c3.438 0 6.228-2.79 6.228-6.228v-30.88z" style="fill:url(#_Linear1)"/>
 <path d="m2.309 24l43.285 6e-3s0.773 11.073 1.002 14.534c0.204 3.087-1.679 5.365-4.773 5.373l-35.616 0.105c-3.413 0.062-5.008-1.891-4.8-5.275s0.902-14.743 0.902-14.743z" style="fill:#484f5c"/>
 <path d="m2.368 23.633l43.285 6e-3s0.772 11.073 1.001 14.534c0.205 3.088-1.678 5.366-4.772 5.374l-35.616 0.105c-3.413 0.062-5.008-1.892-4.8-5.276s0.902-14.743 0.902-14.743z" style="fill:url(#_Linear2)"/>
 <path d="m18.308 32.164l-2.481 0.011-0.067-15.371-3.58 1.579-0.953-2.099 5.41-2.559 1.591-6e-3 0.08 18.445z" style="fill-rule:nonzero;fill:url(#_Linear3)"/>
 <path d="m34.552 29.748c-1.358 1.857-3.143 2.791-5.354 2.8-2.211 0.01-4.004-0.908-5.379-2.754-1.374-1.846-2.067-4.135-2.079-6.868-0.012-2.75 0.661-5.046 2.02-6.885 1.358-1.858 3.143-2.792 5.354-2.801 2.212-0.01 4.004 0.908 5.379 2.754 1.374 1.828 2.067 4.117 2.079 6.868 0.012 2.733-0.661 5.028-2.02 6.886zm-5.364 0.427c1.474-6e-3 2.648-0.703 3.523-2.092 0.893-1.388 1.335-3.125 1.326-5.21-9e-3 -2.104-0.466-3.836-1.371-5.199-0.887-1.38-2.067-2.067-3.542-2.061-1.492 6e-3 -2.675 0.704-3.55 2.092-0.875 1.37-1.308 3.107-1.299 5.21 9e-3 2.086 0.457 3.819 1.344 5.199 0.887 1.381 2.076 2.068 3.569 2.061z" style="fill-rule:nonzero;fill:url(#_Linear3)"/>
 <path d="m20.222 37.939h-0.353l-0.814-2.991h0.389l0.599 2.442h0.017l0.674-2.442h0.377l0.673 2.442h0.017l0.599-2.442h0.39l-0.815 2.991h-0.352l-0.69-2.373h-0.021l-0.69 2.373z" style="fill-rule:nonzero;fill:#fff"/>
 <path d="m23.865 37.96c-0.157 0-0.3-0.027-0.427-0.081-0.125-0.054-0.233-0.13-0.323-0.228-0.09-0.099-0.159-0.219-0.207-0.358-0.049-0.141-0.073-0.298-0.073-0.471 0-0.174 0.024-0.331 0.073-0.47 0.048-0.141 0.117-0.261 0.207-0.359 0.09-0.099 0.198-0.175 0.323-0.228 0.127-0.054 0.27-0.081 0.427-0.081 0.158 0 0.299 0.027 0.425 0.081 0.127 0.053 0.236 0.129 0.326 0.228 0.089 0.098 0.158 0.218 0.207 0.359 0.048 0.139 0.072 0.296 0.072 0.47 0 0.173-0.024 0.33-0.072 0.471-0.049 0.139-0.118 0.259-0.207 0.358-0.09 0.098-0.199 0.174-0.326 0.228-0.126 0.054-0.267 0.081-0.425 0.081zm0-0.321c0.104 0 0.196-0.019 0.278-0.056 0.083-0.038 0.153-0.091 0.209-0.16 0.058-0.07 0.102-0.156 0.131-0.257 0.03-0.101 0.045-0.215 0.045-0.344 0-0.128-0.015-0.243-0.045-0.344-0.029-0.101-0.073-0.186-0.131-0.257-0.056-0.07-0.126-0.124-0.209-0.16-0.082-0.037-0.174-0.056-0.278-0.056-0.103 0-0.197 0.019-0.28 0.056-0.081 0.038-0.151 0.092-0.209 0.162-0.057 0.069-0.1 0.154-0.13 0.255-0.029 0.101-0.044 0.216-0.044 0.344 0 0.129 0.015 0.243 0.046 0.344 0.03 0.101 0.074 0.187 0.13 0.257 0.057 0.069 0.126 0.122 0.207 0.16 0.083 0.037 0.177 0.056 0.28 0.056z" style="fill-rule:nonzero;fill:#fff"/>
 <path d="m25.275 35.705h0.339v0.363h9e-3c0.016-0.058 0.041-0.111 0.074-0.158 0.035-0.048 0.076-0.089 0.123-0.122s0.099-0.059 0.157-0.077c0.06-0.018 0.122-0.027 0.187-0.027 0.022 0 0.047 2e-3 0.074 4e-3 0.028 3e-3 0.049 7e-3 0.065 0.011v0.356c-0.016-7e-3 -0.043-0.012-0.081-0.016-0.039-6e-3 -0.074-9e-3 -0.106-9e-3 -0.073 0-0.14 0.013-0.199 0.04-0.058 0.025-0.108 0.06-0.151 0.105-0.042 0.046-0.074 0.101-0.098 0.166-0.022 0.065-0.033 0.137-0.033 0.216v1.382h-0.36v-2.234z" style="fill-rule:nonzero;fill:#fff"/>
 <path d="m28 35.705h0.439l-0.976 0.966 1.005 1.268h-0.418l-0.84-1.046-0.211 0.199v0.847h-0.361v-3.121h0.361v1.886l1.001-0.999z" style="fill-rule:nonzero;fill:#fff"/>
 <defs>
  <linearGradient id="_Linear1" x2="1" gradientTransform="matrix(-.35732 -43.3357 43.3357 -.35732 23.4045 45.668)" gradientUnits="userSpaceOnUse">
   <stop style="stop-color:#939aa6" offset="0"/>
   <stop style="stop-color:#757f8f" offset="1"/>
  </linearGradient>
  <linearGradient id="_Linear2" x2="1" gradientTransform="matrix(1.22243e-15,-19.9637,19.9637,1.22243e-15,24,43.5997)" gradientUnits="userSpaceOnUse">
   <stop style="stop-color:#6f7785" offset="0"/>
   <stop style="stop-color:#93a0b2" offset="1"/>
  </linearGradient>
  <linearGradient id="_Linear3" x2="1" gradientTransform="matrix(-7.27617e-6 -19.3629 19.3629 -7.27617e-6 24.5177 32.5653)" gradientUnits="userSpaceOnUse">
   <stop style="stop-color:#fefffe" offset="0"/>
   <stop style="stop-color:#f1f1f0" offset="1"/>
  </linearGradient>
 </defs>
</svg>
