<svg style="clip-rule:evenodd;fill-rule:evenodd;stroke-linejoin:round;stroke-miterlimit:2" version="1.1" viewBox="0 0 48 48" xmlns="http://www.w3.org/2000/svg">
 <path d="m47.312 10.595c0-0.976-0.388-1.911-1.077-2.601-0.69-0.691-1.627-1.079-2.603-1.079h-39.264c-0.976 0-1.913 0.388-2.603 1.079-0.689 0.69-1.077 1.625-1.077 2.601v27.823c0 0.976 0.388 1.911 1.077 2.602 0.69 0.69 1.627 1.078 2.603 1.078h39.264c0.976 0 1.913-0.388 2.603-1.078 0.689-0.691 1.077-1.626 1.077-2.602v-27.823z" style="fill-opacity:.67"/>
 <path d="m43.833 5.902c1.922 0 3.479 1.558 3.479 3.479v28.225c0 1.921-1.557 3.479-3.479 3.479h-39.666c-1.922 0-3.479-1.558-3.479-3.479v-28.225c0-1.921 1.557-3.479 3.479-3.479h39.666z" style="fill:url(#_Linear1)"/>
 <path d="m4.167 5.902h19.833v35.183h-19.833c-1.922 0-3.479-1.558-3.479-3.479v-28.225c0-1.921 1.557-3.479 3.479-3.479z" style="fill:url(#_Linear2)"/>
 <circle cx="24.061" cy="38.646" r="7.146" style="fill:#005dff"/>
 <path d="m25.945 42.307c-0.188 0-0.376-0.081-0.513-0.24-0.351-0.409-0.851-0.643-1.371-0.643-0.53 0-1.017 0.227-1.371 0.639-0.257 0.301-0.695 0.324-0.979 0.051-0.284-0.272-0.306-0.734-0.048-1.034 0.611-0.712 1.485-1.12 2.398-1.12 0.911 0 1.785 0.409 2.398 1.123 0.257 0.3 0.236 0.762-0.048 1.034-0.132 0.128-0.299 0.19-0.465 0.19h-1e-3zm1.539-1.832c-0.177 0-0.354-0.071-0.489-0.213-0.785-0.825-1.827-1.279-2.934-1.279-1.11 0-2.152 0.453-2.936 1.276-0.271 0.285-0.71 0.284-0.98-3e-3s-0.269-0.75 3e-3 -1.035c1.044-1.098 2.434-1.702 3.913-1.702 1.476 0 2.865 0.605 3.912 1.705 0.272 0.285 0.273 0.748 3e-3 1.035-0.136 0.143-0.314 0.216-0.492 0.216zm1.535-1.829c-0.173 0-0.346-0.068-0.48-0.203-1.211-1.226-2.801-1.9-4.478-1.9-1.681 0-3.272 0.673-4.48 1.898-0.276 0.279-0.715 0.27-0.98-0.022s-0.256-0.755 0.02-1.035c1.467-1.487 3.398-2.305 5.44-2.305 2.037 0 3.968 0.819 5.438 2.306 0.276 0.28 0.285 0.744 0.02 1.036-0.136 0.15-0.318 0.225-0.5 0.225zm-5.045 5.433c0.462 0 0.837-0.376 0.837-0.84 0-0.463-0.375-0.839-0.837-0.839-0.463 0-0.838 0.376-0.838 0.839 0 0.464 0.375 0.84 0.838 0.84z" style="fill-opacity:.87;fill-rule:nonzero;fill:#fff"/>
 <defs>
  <linearGradient id="_Linear1" x2="1" gradientTransform="matrix(-.47414 -33.0943 33.0943 -.47414 1043.56 25.6133)" gradientUnits="userSpaceOnUse">
   <stop style="stop-color:#f5dc1f" offset="0"/>
   <stop style="stop-color:#ff9f2d" offset="1"/>
  </linearGradient>
  <linearGradient id="_Linear2" x2="1" gradientTransform="matrix(-.363346 -25.361 25.361 -.363346 802.192 26.1583)" gradientUnits="userSpaceOnUse">
   <stop style="stop-color:#147966;stop-opacity:.33" offset="0"/>
   <stop style="stop-color:#2dcbc6;stop-opacity:.33" offset="1"/>
  </linearGradient>
 </defs>
</svg>
