<svg style="clip-rule:evenodd;fill-rule:evenodd;stroke-linejoin:round;stroke-miterlimit:2" version="1.1" viewBox="0 0 48 48" xmlns="http://www.w3.org/2000/svg">
 <circle cx="24" cy="24" r="22.764" style="fill:url(#_Linear1)"/>
 <path d="m30.015 27.654c-1.389 0-2.613 0.662-3.413 1.675l-7.42-3.798c0.097-0.363 0.167-0.737 0.167-1.132 0-0.429-0.083-0.833-0.199-1.226l7.388-3.781c0.795 1.06 2.051 1.752 3.478 1.752 2.416 0 4.371-1.956 4.371-4.372 0-2.415-1.955-4.372-4.371-4.372-2.411 0-4.368 1.957-4.368 4.372 0 0.395 0.07 0.771 0.168 1.135l-7.417 3.798c-0.801-1.015-2.028-1.679-3.418-1.679-2.415 0-4.368 1.958-4.368 4.373 0 2.416 1.953 4.373 4.368 4.373 1.428 0 2.683-0.695 3.482-1.755l7.384 3.78c-0.116 0.392-0.2 0.8-0.2 1.23 0 2.415 1.957 4.373 4.368 4.373 2.416 0 4.37-1.958 4.37-4.373 0-2.417-1.954-4.373-4.37-4.373z" style="fill-opacity:.82;fill-rule:nonzero;fill:#001534"/>
 <defs>
  <linearGradient id="_Linear1" x2="1" gradientTransform="matrix(2.78782e-15,-45.5286,45.5286,2.78782e-15,210.895,46.7643)" gradientUnits="userSpaceOnUse">
   <stop style="stop-color:#0a80fd" offset="0"/>
   <stop style="stop-color:#56c5fa" offset="1"/>
  </linearGradient>
 </defs>
</svg>
