<svg style="clip-rule:evenodd;fill-rule:evenodd;stroke-linejoin:round;stroke-miterlimit:2" version="1.1" viewBox="0 0 48 48" xmlns="http://www.w3.org/2000/svg">
 <circle cx="24" cy="24" r="22.764" style="fill:url(#_Linear1)"/>
 <g transform="translate(2.3263 .856071)">
  <path d="m31.799 30.575c-8.301 11.374-24.356 7.003-29.799-4.997 0.885 5.971 8.146 14.419 14.583 15.428 5.637 0.883 15.44-0.353 18.781-6.27l-3.565-4.161z" style="fill-rule:nonzero;fill:url(#_Linear2)"/>
 </g>
 <g transform="translate(2.3263 .856071)">
  <path d="m27.811 27.062c-3.027 2.788-9.801-2.584-12.259-5.361-2.528-2.857-11.969-12.491-12.659-13.116s-1.24-1.396-0.629-2.164c0.635-0.748 1.513-0.376 2.275 0.161 0.762 0.538 12.261 7.667 15.615 9.519 3.261 1.801 9.797 7.463 7.657 10.961z" style="fill-rule:nonzero;fill:rgb(47,47,47)"/>
 </g>
 <g transform="translate(2.3263 .856071)">
  <path d="m31.755 28.175c0.312 0.797-1.116 2.528-1.973 2.392-0.591-0.093-5.062-2.871-5.062-2.871-0.26-0.612-0.274-1.64 0.593-2.703 0.878-1.077 1.836-1.333 2.499-1.21 0 0 3.729 3.843 3.943 4.392z" style="fill-rule:nonzero;fill:rgb(236,236,236)"/>
 </g>
 <g transform="translate(2.3263 .856071)">
  <path d="m30.33 39.1c5.297-2.311 6.486-6.62 5.053-9.186-1.113-1.993-2.942-2.37-4.205-1.406-1.253 0.956-1.363 2.096-0.99 3.227 0.763 2.309 2.623 4.985 0.142 7.365z" style="fill-rule:nonzero;fill:rgb(0,7,37)"/>
 </g>
 <defs>
  <linearGradient id="_Linear1" x2="1" gradientTransform="matrix(-.147804 45.5275 -45.5275 -.147804 24.1478 1.23647)" gradientUnits="userSpaceOnUse">
   <stop style="stop-color:rgb(233,0,221)" offset="0"/>
   <stop style="stop-color:rgb(167,168,228)" offset=".5"/>
   <stop style="stop-color:rgb(0,175,237)" offset="1"/>
  </linearGradient>
  <linearGradient id="_Linear2" x2="1" gradientTransform="matrix(26.621,0,0,26.621,8.74268,32.8826)" gradientUnits="userSpaceOnUse">
   <stop style="stop-color:rgb(144,168,227);stop-opacity:0" offset="0"/>
   <stop style="stop-color:rgb(0,62,184)" offset="1"/>
  </linearGradient>
 </defs>
</svg>
