<svg style="clip-rule:evenodd;fill-rule:evenodd;stroke-linejoin:round;stroke-miterlimit:2" version="1.1" viewBox="0 0 48 48" xmlns="http://www.w3.org/2000/svg">
 <path d="m4.875 7.376l1.638-1.638 3.276 3.276-1.638 1.638-3.276-3.276z" style="fill-rule:nonzero;fill:#31363b"/>
 <path d="m7.332 3.281l-4.914 4.914 1.638 1.638 4.914-4.914-1.638-1.638z" style="fill:url(#_Linear1)"/>
 <path d="m40.911 5.738l1.638 1.638-3.276 3.276-1.638-1.638 3.276-3.276z" style="fill-rule:nonzero;fill:#31363b"/>
 <path d="m45.007 8.195l-4.915-4.914-1.638 1.638 4.914 4.914 1.639-1.638z" style="fill:url(#_Linear2)"/>
 <circle cx="24" cy="24" r="22.764" style="fill:url(#_Linear3)"/>
 <circle cx="24" cy="24" r="20.382" style="fill:url(#_Linear4)"/>
 <path d="m23.712 6.043c-0.588 0-1.165 0.045-1.737 0.104v3.493c0.571-0.07 1.147-0.122 1.737-0.122 0.589 0 1.167 0.041 1.738 0.106v-3.495c-0.573-0.052-1.151-0.086-1.738-0.086zm3.093 0.276l-0.905 3.373c1.17 0.17 2.296 0.467 3.361 0.887l0.903-3.366c-1.076-0.398-2.198-0.7-3.359-0.894zm4.626 1.412l-1.742 3.016c1.076 0.463 2.077 1.059 3.004 1.748l1.749-3.031c-0.942-0.669-1.949-1.247-3.011-1.733zm-10.205 0.842c-1.149 0.177-2.276 0.479-3.362 0.898l0.299 1.11c1.083-0.425 2.212-0.723 3.364-0.889l-0.301-1.119zm-4.065 1.183c-1.061 0.471-2.068 1.055-3.004 1.742l0.581 1.006c0.933-0.692 1.942-1.274 3.009-1.735l-0.586-1.013zm18.38 0.534l-2.479 2.479c0.912 0.722 1.735 1.545 2.457 2.457l2.479-2.48c-0.74-0.894-1.563-1.716-2.457-2.456zm-21.991 1.667c-0.906 0.726-1.732 1.547-2.463 2.45l0.832 0.832c0.718-0.914 1.538-1.742 2.446-2.468l-0.815-0.814zm25.274 1.889l-3.032 1.748c0.69 0.927 1.286 1.927 1.749 3.002l3.016-1.739c-0.486-1.063-1.064-2.069-1.733-3.011zm-28.19 1.174c-0.684 0.938-1.266 1.946-1.735 3.009l0.996 0.576c0.465-1.065 1.051-2.073 1.748-3.004l-1.009-0.581zm30.441 3.104l-3.366 0.902c0.42 1.065 0.717 2.192 0.886 3.362l3.373-0.905c-0.194-1.161-0.495-2.283-0.893-3.359zm-32.486 0.601c-0.415 1.085-0.714 2.211-0.889 3.36l1.134 0.303c0.167-1.151 0.467-2.278 0.893-3.359l-1.138-0.304zm9.911 1.217c-0.321 0-0.579 0.259-0.579 0.58 0 0.32 0.258 0.579 0.579 0.579h1.158c0.321 0 0.579-0.259 0.579-0.579 0-0.321-0.258-0.58-0.579-0.58h-1.158zm9.266 0c-0.321 0-0.579 0.259-0.579 0.58 0 0.32 0.258 0.579 0.579 0.579h1.158c0.321 0 0.58-0.259 0.58-0.579 0-0.321-0.259-0.58-0.58-0.58h-1.158zm5.791 0c-0.32 0-0.579 0.259-0.579 0.58 0 0.32 0.259 0.579 0.579 0.579h1.159c0.32 0 0.579-0.259 0.579-0.579 0-0.321-0.259-0.58-0.579-0.58h-1.159zm-18.532 1.159c-0.32 0-0.579 0.258-0.579 0.579v1.158c0 0.321 0.259 0.579 0.579 0.579 0.321 0 0.579-0.258 0.579-0.579v-1.158c0-0.321-0.258-0.579-0.579-0.579zm5.792 0c-0.321 0-0.58 0.258-0.58 0.579v1.158c0 0.321 0.259 0.579 0.58 0.579 0.32 0 0.579-0.258 0.579-0.579v-1.158c0-0.321-0.259-0.579-0.579-0.579zm2.895 0c-0.635 0-1.158 0.523-1.158 1.158s0.523 1.158 1.158 1.158c0.636 0 1.159-0.523 1.159-1.158s-0.523-1.158-1.159-1.158zm6.371 0c-0.321 0-0.579 0.258-0.579 0.579v1.158c0 0.321 0.258 0.579 0.579 0.579 0.32 0 0.579-0.258 0.579-0.579v-1.158c0-0.321-0.259-0.579-0.579-0.579zm5.791 0c-0.321 0-0.579 0.258-0.579 0.579v1.158c0 0.321 0.258 0.579 0.579 0.579s0.579-0.258 0.579-0.579v-1.158c0-0.321-0.258-0.579-0.579-0.579zm-28.264 1.737c-0.069 0.577-0.107 1.157-0.113 1.737 2e-3 0.581 0.035 1.161 0.099 1.738h1.179c-0.074-0.576-0.114-1.157-0.12-1.738 3e-3 -0.58 0.04-1.16 0.111-1.737h-1.156zm31.053 0c0.065 0.571 0.107 1.148 0.107 1.737s-0.042 1.167-0.107 1.738h3.495c0.053-0.573 0.086-1.151 0.086-1.738 0-0.586-0.033-1.165-0.086-1.737h-3.495zm-20.163 0.579c-0.321 0-0.579 0.259-0.579 0.579 0 0.321 0.258 0.579 0.579 0.579h1.158c0.321 0 0.579-0.258 0.579-0.579 0-0.32-0.258-0.579-0.579-0.579h-1.158zm9.266 0c-0.321 0-0.579 0.259-0.579 0.579 0 0.321 0.258 0.579 0.579 0.579h1.158c0.321 0 0.58-0.258 0.58-0.579 0-0.32-0.259-0.579-0.58-0.579h-1.158zm-12.741 1.158c-0.32 0-0.579 0.259-0.579 0.58v1.158c0 0.321 0.259 0.579 0.579 0.579 0.321 0 0.579-0.258 0.579-0.579v-1.158c0-0.321-0.258-0.58-0.579-0.58zm5.792 0c-0.321 0-0.58 0.259-0.58 0.58v1.158c0 0.321 0.259 0.579 0.58 0.579 0.32 0 0.579-0.258 0.579-0.579v-1.158c0-0.321-0.259-0.58-0.579-0.58zm2.895 0c-0.635 0-1.158 0.523-1.158 1.159 0 0.635 0.523 1.158 1.158 1.158 0.636 0 1.159-0.523 1.159-1.158 0-0.636-0.523-1.159-1.159-1.159zm6.371 0c-0.321 0-0.579 0.259-0.579 0.58v1.158c0 0.321 0.258 0.579 0.579 0.579 0.32 0 0.579-0.258 0.579-0.579v-1.158c0-0.321-0.259-0.58-0.579-0.58zm5.791 0c-0.321 0-0.579 0.259-0.579 0.58v1.158c0 0.321 0.258 0.579 0.579 0.579s0.579-0.258 0.579-0.579v-1.158c0-0.321-0.258-0.58-0.579-0.58zm-27.045 2.188l-1.12 0.301c0.178 1.149 0.48 2.275 0.898 3.359l1.111-0.298c-0.425-1.083-0.723-2.211-0.889-3.362zm29.766 0c-0.169 1.17-0.466 2.296-0.886 3.362l3.366 0.902c0.398-1.076 0.699-2.198 0.893-3.359l-3.373-0.905zm-20.095 0.129c-0.321 0-0.579 0.258-0.579 0.579s0.258 0.579 0.579 0.579h1.158c0.321 0 0.579-0.258 0.579-0.579s-0.258-0.579-0.579-0.579h-1.158zm9.266 0c-0.321 0-0.579 0.258-0.579 0.579s0.258 0.579 0.579 0.579h1.158c0.321 0 0.58-0.258 0.58-0.579s-0.259-0.579-0.58-0.579h-1.158zm-17.86 3.649l-1.014 0.586c0.472 1.061 1.056 2.068 1.742 3.004l1.007-0.581c-0.692-0.933-1.275-1.943-1.735-3.009zm27.635 0.011c-0.463 1.076-1.059 2.077-1.749 3.004l3.032 1.749c0.669-0.942 1.247-1.948 1.733-3.011l-3.016-1.742zm-25.633 3.371l-0.814 0.814c0.726 0.907 1.547 1.733 2.45 2.464l0.832-0.833c-0.914-0.717-1.742-1.537-2.468-2.445zm23.611 2e-3c-0.722 0.912-1.545 1.735-2.457 2.457l2.479 2.479c0.894-0.74 1.717-1.562 2.457-2.456l-2.479-2.48zm-20.785 2.729l-1.747 3.022c0.942 0.669 1.941 1.264 3.002 1.751l1.751-3.032c-1.074-0.464-2.08-1.052-3.006-1.741zm17.959 2e-3c-0.927 0.689-1.926 1.285-3.002 1.749l1.74 3.015c1.062-0.485 2.069-1.064 3.011-1.733l-1.749-3.031zm-14.528 1.909l-0.907 3.38c1.075 0.399 2.197 0.705 3.357 0.9l0.907-3.382c-1.17-0.17-2.292-0.476-3.357-0.898zm11.096 7e-3c-1.065 0.421-2.193 0.717-3.363 0.887l0.904 3.373c1.163-0.194 2.285-0.495 3.362-0.894l-0.903-3.366zm-7.286 0.95v3.5c0.572 0.053 1.151 0.086 1.737 0.086 0.587 0 1.165-0.034 1.738-0.086v-3.496c-0.571 0.066-1.149 0.107-1.738 0.107s-1.166-0.046-1.737-0.111z" style="fill-rule:nonzero;fill:url(#_Linear5)"/>
 <defs>
  <linearGradient id="_Linear1" x2="1" gradientTransform="matrix(3.61634,-6.89237,6.89237,3.61634,4.87505,10.6523)" gradientUnits="userSpaceOnUse">
   <stop style="stop-color:#c6cdd1" offset="0"/>
   <stop style="stop-color:#eef3f6" offset="1"/>
  </linearGradient>
  <linearGradient id="_Linear2" x2="1" gradientTransform="matrix(-4.91406,-4.91406,4.91406,-4.91406,43.3685,9.83329)" gradientUnits="userSpaceOnUse">
   <stop style="stop-color:#c6cdd1" offset="0"/>
   <stop style="stop-color:#eef3f6" offset="1"/>
  </linearGradient>
  <linearGradient id="_Linear3" x2="1" gradientTransform="matrix(2.78782e-15,-45.5286,45.5286,2.78782e-15,210.895,46.7643)" gradientUnits="userSpaceOnUse">
   <stop style="stop-color:#c7ced2" offset="0"/>
   <stop style="stop-color:#ecf1f4" offset="1"/>
  </linearGradient>
  <linearGradient id="_Linear4" x2="1" gradientTransform="matrix(2.49609e-15,-40.7643,40.7643,2.49609e-15,191.337,44.3821)" gradientUnits="userSpaceOnUse">
   <stop style="stop-color:#104137" offset="0"/>
   <stop style="stop-color:#25967f" offset="1"/>
  </linearGradient>
  <linearGradient id="_Linear5" x2="1" gradientTransform="matrix(30.5765,30.5765,-30.5765,30.5765,6.64855,11.1626)" gradientUnits="userSpaceOnUse">
   <stop style="stop-color:#3daefd" offset="0"/>
   <stop style="stop-color:#24a058" offset="1"/>
  </linearGradient>
 </defs>
</svg>
