<?xml version="1.0" encoding="UTF-8" standalone="no"?>
<!DOCTYPE svg PUBLIC "-//W3C//DTD SVG 1.1//EN" "http://www.w3.org/Graphics/SVG/1.1/DTD/svg11.dtd">
<svg width="100%" height="100%" viewBox="0 0 48 48" version="1.1" xmlns="http://www.w3.org/2000/svg" xmlns:xlink="http://www.w3.org/1999/xlink" xml:space="preserve" xmlns:serif="http://www.serif.com/" style="fill-rule:evenodd;clip-rule:evenodd;stroke-linejoin:round;stroke-miterlimit:1.41421;">
    <g id="path12-5" transform="matrix(1,0,0,1,-0.101694,0.249893)">
        <path d="M17.113,13.208C16.992,13.204 16.846,13.21 16.656,13.21L4.009,13.21C3.559,13.21 1.497,15.57 1.497,16.023L1.497,17.916C1.496,17.935 1.492,17.953 1.492,17.972L1.492,41.178C1.492,42.046 2.191,42.746 3.059,42.746L45.146,42.746C46.014,42.746 46.712,42.046 46.712,41.178L46.712,19.618C46.712,18.75 44.394,16.404 43.526,16.404L20.016,16.404C20.001,16.384 19.991,16.373 19.975,16.352C19.395,15.571 18.519,14.562 17.948,13.8C17.605,13.3 17.477,13.217 17.114,13.208L17.113,13.208Z" style="fill-opacity:0.666667;fill-rule:nonzero;"/>
    </g>
    <g id="path14-3" transform="matrix(1,0,0,1,-0.101694,0.771003)">
        <path d="M13.127,5.748L4.794,5.748C3.181,5.748 1.497,6.557 1.497,8.488L1.497,11.426C1.496,11.445 1.491,11.463 1.491,11.482L1.491,40.15C1.491,41.018 2.191,41.718 3.059,41.718L45.146,41.718C46.014,41.718 46.712,41.018 46.712,40.15L46.712,13.05C46.712,11.137 45.361,9.914 43.63,9.914C38.593,9.914 25.523,9.863 22.72,9.863C21.392,9.863 20.248,8.265 20.248,8.265C19.177,7.193 18.199,5.722 15.848,5.746C15.275,5.746 13.682,5.748 13.127,5.748Z" style="fill:url(#_Linear1);fill-rule:nonzero;"/>
    </g>
    <g transform="matrix(1.03666,0,0,1.03666,-399.709,-518.693)">
        <g opacity="0.642857">
            <g transform="matrix(0.83375,0,0,0.83375,88.9413,78.4929)">
                <path d="M376.041,529.656C376.041,528.36 377.095,527.309 378.394,527.309C379.692,527.309 380.746,528.36 380.746,529.656C380.746,530.953 379.692,532.004 378.394,532.004C377.095,532.004 376.041,530.953 376.041,529.656Z" style="fill:white;"/>
            </g>
            <g transform="matrix(0.83375,0,0,0.83375,88.9413,78.4929)">
                <path d="M386.708,529.656C386.708,528.36 387.763,527.309 389.062,527.309C390.36,527.309 391.414,528.36 391.414,529.656C391.414,530.953 390.361,532.004 389.062,532.004C387.764,532.004 386.708,530.953 386.708,529.656Z" style="fill:white;"/>
            </g>
            <g transform="matrix(0.83375,0,0,0.83375,88.9413,78.4929)">
                <path d="M392.271,539.271C390.813,542.635 387.376,544.072 383.55,544.072C379.642,544.072 376.229,542.624 374.822,539.243C374.58,538.664 374.855,537.999 375.436,537.758C375.579,537.7 375.727,537.672 375.872,537.672C376.319,537.672 376.742,537.935 376.924,538.372C377.977,540.903 380.565,541.801 383.55,541.801C386.467,541.801 389.083,540.902 390.181,538.369C390.431,537.793 391.101,537.528 391.677,537.778C392.255,538.027 392.52,538.695 392.271,539.271L392.271,539.271Z" style="fill:white;"/>
            </g>
        </g>
    </g>
    <defs>
        <linearGradient id="_Linear1" x1="0" y1="0" x2="1" y2="0" gradientUnits="userSpaceOnUse" gradientTransform="matrix(2.20263e-15,-35.9716,35.9716,2.20263e-15,16.1403,41.7176)"><stop offset="0" style="stop-color:rgb(129,3,30);stop-opacity:1"/><stop offset="1" style="stop-color:rgb(196,52,13);stop-opacity:1"/></linearGradient>
    </defs>
</svg>
