<svg style="clip-rule:evenodd;fill-rule:evenodd;stroke-linejoin:round;stroke-miterlimit:2" version="1.1" viewBox="0 0 48 48" xmlns="http://www.w3.org/2000/svg">
 <path d="m46.798 12.466c0-1.327-0.526-2.598-1.464-3.536s-2.21-1.464-3.536-1.464h-35.596c-1.326 0-2.598 0.526-3.536 1.464s-1.464 2.209-1.464 3.536v23.073c0 1.326 0.526 2.597 1.464 3.535s2.21 1.465 3.536 1.465h35.596c1.326 0 2.598-0.527 3.536-1.465s1.464-2.209 1.464-3.535v-23.073z" style="fill:#0083d5"/>
 <path d="m46.798 16.201c0-2.761-2.238-5-5-5h-18.524c-1.232 0-2.42-0.454-3.337-1.276-0.428-0.383-0.896-0.804-1.324-1.187-0.917-0.822-2.105-1.277-3.337-1.277h-9.074c-1.326 0-2.598 0.527-3.536 1.465s-1.464 2.209-1.464 3.535v23.078c0 1.326 0.526 2.597 1.464 3.535s2.21 1.465 3.536 1.465h35.596c2.762 0 5-2.239 5-5v-19.338z" style="fill:url(#_Linear1)"/>
 <path d="m18.089 21.702c0-1.12 0.911-2.029 2.033-2.029 1.123 0 2.033 0.909 2.033 2.029 0 1.121-0.91 2.03-2.033 2.03-1.122 0-2.033-0.909-2.033-2.03zm7.948 0c0-1.12 0.911-2.029 2.034-2.029 1.122 0 2.033 0.909 2.033 2.029 0 1.121-0.911 2.03-2.033 2.03-1.123 0-2.034-0.909-2.034-2.03zm5.482 6.274c-1.261 2.908-4.212 4.787-7.519 4.787-3.378 0-6.346-1.888-7.563-4.811-0.208-0.501 0.029-1.075 0.531-1.283 0.124-0.051 0.252-0.075 0.377-0.075 0.386 0 0.752 0.227 0.909 0.605 0.911 2.188 3.166 3.601 5.746 3.601 2.522 0 4.764-1.414 5.712-3.603 0.216-0.498 0.795-0.727 1.293-0.511 0.5 0.215 0.729 0.792 0.514 1.29z" style="fill-opacity:.73;fill-rule:nonzero;fill:#fff"/>
 <defs>
  <linearGradient id="_Linear1" x2="1" gradientTransform="matrix(1.99579e-15,-32.5937,32.5937,1.99579e-15,246.258,40.2224)" gradientUnits="userSpaceOnUse">
   <stop style="stop-color:#1075f6" offset="0"/>
   <stop style="stop-color:#12c5ff" offset="1"/>
  </linearGradient>
 </defs>
</svg>
