<svg style="clip-rule:evenodd;fill-rule:evenodd;stroke-linejoin:round;stroke-miterlimit:2" version="1.1" viewBox="0 0 48 48" xmlns="http://www.w3.org/2000/svg">
 <path d="m1.236 24c0-12.564 10.2-22.764 22.764-22.764s22.764 10.2 22.764 22.764-10.2 22.764-22.764 22.764-22.764-10.2-22.764-22.764z" style="fill:url(#_Linear1)"/>
 <path d="m11.628 14.103c0 7.116 2.356 13.337 5.879 16.825h-10.827c0 1.64 7.754 2.969 17.32 2.969s17.32-1.329 17.32-2.969h-10.825c0.846-0.838 1.629-1.82 2.324-2.95 0.201 0.117 0.411 0.217 0.628 0.298h1e-3c2.551 0.929 5.567-0.826 6.682-3.887v-1e-3c1.114-3.061-0.068-6.344-2.619-7.273-1e-3 0-2e-3 0-3e-3 -1e-3 -0.264-0.095-0.539-0.164-0.819-0.205-0.15-0.02-0.301-0.033-0.453-0.038 0.08-0.907 0.136-1.826 0.136-2.768h-24.744zm12.372 2.271c3.529 0 6.433 2.904 6.433 6.433s-2.904 6.434-6.433 6.434-6.433-2.905-6.433-6.434 2.904-6.433 6.433-6.433zm12.035 2.246c0.098 4e-3 0.195 0.012 0.29 0.025 0.197 0.029 0.389 0.078 0.574 0.145 1.785 0.651 2.612 2.948 1.833 5.09-0.78 2.143-2.89 3.371-4.676 2.722-0.132-0.05-0.259-0.109-0.383-0.178 1.123-2.253 1.939-4.905 2.362-7.804z" style="fill-opacity:.78;fill-rule:nonzero;fill:#fff"/>
 <path d="m23.258 17.611v5.938h4.454v-1.485h-2.969v-4.453h-1.485z" style="fill-opacity:.78;fill-rule:nonzero;fill:#fff"/>
 <defs>
  <linearGradient id="_Linear1" x2="1" gradientTransform="matrix(-1.74307e-14,-45.5279,45.5279,-1.74307e-14,24,46.7639)" gradientUnits="userSpaceOnUse">
   <stop style="stop-color:#fc7816" offset="0"/>
   <stop style="stop-color:#ffac01" offset="1"/>
  </linearGradient>
 </defs>
</svg>
