<svg style="clip-rule:evenodd;fill-rule:evenodd;stroke-linejoin:round;stroke-miterlimit:2" version="1.1" viewBox="0 0 48 48" xmlns="http://www.w3.org/2000/svg">
 <path d="m45.668 8.56c0-3.438-2.79-6.228-6.228-6.228h-30.88c-3.438 0-6.228 2.79-6.228 6.228v30.88c0 3.438 2.79 6.228 6.228 6.228h30.88c3.438 0 6.228-2.79 6.228-6.228v-30.88z" style="fill:url(#_Linear1)"/>
 <path d="m8.56 2.332c-3.21 0-6.226 2.67-6.226 6.062l-2e-3 31.107c0 3.245 2.749 6.167 6.228 6.167h13.837c15.218-1.1 23.192-9.312 23.271-24.279 7e-3 -0.153-0.011-13.21-0.011-13.21 0-2.208-2.184-5.833-5.794-5.833l-31.303-0.014z" style="fill:url(#_Linear2)"/>
 <path d="m22.397 45.668c7.082-1.764 10.262-5.85 13.017-11.249 7.314-2.123 9.187-7.652 10.256-13.683 0.157 15.401-7.831 23.816-23.273 24.932z" style="fill:url(#_Linear3)"/>
 <path d="m8.56 2.332c-3.447 0-6.167 2.974-6.212 5.662l43.317-0.01c-2e-3 0.011-4e-3 0.021-5e-3 0.032-0.013-2.883-3.158-5.729-5.797-5.67l-31.303-0.014z" style="fill-opacity:.07;fill-rule:nonzero"/>
 <path d="m35.829 17.191l-0.991-1.211c-0.408-0.498-1.148-0.572-1.651-0.164l-12.692 10.394-5.443-6.649c-0.408-0.498-1.148-0.572-1.651-0.164l-1.21 0.991c-0.499 0.408-0.572 1.148-0.165 1.651l7.174 8.762c0.206 0.251 0.489 0.397 0.787 0.427 0.299 0.03 0.609-0.057 0.856-0.263l14.81-12.124c0.511-0.415 0.585-1.152 0.176-1.65z" style="fill-opacity:.89;fill-rule:nonzero;fill:#fff"/>
 <defs>
  <linearGradient id="_Linear1" x2="1" gradientTransform="matrix(7.87904,7.25596,-7.25596,7.87904,19.2972,55.689)" gradientUnits="userSpaceOnUse">
   <stop style="stop-color:#945500" offset="0"/>
   <stop style="stop-color:#ffd42a" offset="1"/>
  </linearGradient>
  <linearGradient id="_Linear2" x2="1" gradientTransform="matrix(.655087 -43.1166 43.1166 .655087 22.7792 46.2134)" gradientUnits="userSpaceOnUse">
   <stop style="stop-color:#2aa254" offset="0"/>
   <stop style="stop-color:#46e07d" offset="1"/>
  </linearGradient>
  <linearGradient id="_Linear3" x2="1" gradientTransform="matrix(23.2753,0,0,23.2753,22.397,33.202)" gradientUnits="userSpaceOnUse">
   <stop style="stop-color:#d2ac3a" offset="0"/>
   <stop style="stop-color:#d8a21b" offset="1"/>
  </linearGradient>
 </defs>
</svg>
