
<svg style="clip-rule:evenodd;fill-rule:evenodd" version="1.1" viewBox="0 0 64 64" xmlns="http://www.w3.org/2000/svg">
 <path d="m31.5 3c-15.635 0-28.5 12.865-28.5 28.5s12.865 28.5 28.5 28.5 28.5-12.865 28.5-28.5-12.865-28.5-28.5-28.5z" style="fill-rule:nonzero;fill:url(#_Linear1)"/>
 <circle cx="32" cy="31" r="2.834" style="fill:#8cdef4;stroke-width:2.33px;stroke:#8cdef4"/>
 <path d="m24.5 44.5s1.33 6.744 7.785 7 9.081-11.262 8.154-22.005c-0.515-5.971-3.203-11.096-6.453-14.248" style="fill:none;stroke-linecap:round;stroke-width:3px;stroke:#8cdef4"/>
 <path d="m30.812 9.005c0.766-0.036 1.525 0.148 2.188 0.531 1.9 1.097 2.561 3.564 1.464 5.464s-3.564 2.561-5.464 1.464-2.561-3.564-1.464-5.464c0.681-1.179 1.917-1.932 3.276-1.995zm0.188 1.995c-1.097 0-2 0.903-2 2s0.903 2 2 2 2-0.903 2-2-0.903-2-2-2z" style="fill-rule:nonzero;fill:#8cdef4"/>
 <path d="m45.53 31.879s5.176-4.523 2.17-10.242c-3.006-5.718-14.294-2.233-23.134 3.941-4.961 3.465-8.068 8.416-9.144 12.84" style="fill:none;stroke-linecap:round;stroke-width:3px;stroke:#8cdef4"/>
 <path d="m11.634 44.16c-0.414-0.645-0.634-1.395-0.634-2.16 0-2.195 1.806-4 4-4 2.195 0 4 1.806 4 4s-1.806 4-4 4c-1.361 0-2.631-0.695-3.366-1.84zm1.634-1.16c0.549 0.95 1.782 1.28 2.732 0.732 0.95-0.549 1.281-1.782 0.732-2.732-0.548-0.95-1.782-1.281-2.732-0.732-0.95 0.548-1.28 1.782-0.732 2.732z" style="fill-rule:nonzero;fill:#8cdef4"/>
 <path d="m25.914 18.621s-6.505-2.221-9.954 3.242c-3.45 5.462 5.212 13.495 14.979 18.064 5.356 2.505 11.057 2.768 15.391 1.584" style="fill:none;stroke-linecap:round;stroke-width:3px;stroke:#8cdef4"/>
 <path d="m53.498 41.835c0.624-1.209 0.59-2.656-0.09-3.835-1.097-1.9-3.563-2.561-5.464-1.464-1.9 1.097-2.561 3.563-1.465 5.464 1.098 1.9 3.564 2.561 5.465 1.464 0.663-0.383 1.202-0.948 1.554-1.629zm-1.822-0.835c0.548-0.95 0.218-2.183-0.732-2.732s-2.184-0.218-2.732 0.732c-0.549 0.95-0.218 2.183 0.732 2.732s2.183 0.218 2.732-0.732z" style="fill:#8cdef4"/>
 <defs>
  <linearGradient id="_Linear1" x2="1" gradientTransform="matrix(3.40328e-15,-55.5798,55.5798,3.40328e-15,30.7588,59.6292)" gradientUnits="userSpaceOnUse">
   <stop style="stop-color:#2e2e2e" offset="0"/>
   <stop style="stop-color:#4f4f4f" offset="1"/>
  </linearGradient>
 </defs>
</svg>
