
<svg style="clip-rule:evenodd;fill-rule:evenodd;stroke-linejoin:round;stroke-miterlimit:1.41421" version="1.1" viewBox="0 0 48 48" xmlns="http://www.w3.org/2000/svg">
 <path d="m38.3 0.693c-0.173 0-0.369 0-0.591 0.025l-14.364 1.652h-14.82c-1.831-0.166-2.574 0.042-2.574 2.078v39.16c-0.115 2.235 0.644 2.188 2.425 2.188h15.119l14.335 2.055c1.39 0 1.671-0.652 1.669-2.07h1.223c1.191 0 1.401 0.048 1.324-2.187v-39.16c0-2.037-0.099-2.245-1.324-2.078h-1.154c-0.048-1.165-0.271-1.638-1.268-1.664v1e-3z" style="fill-opacity:.666667"/>
 <path d="m40.722 45.241h-11.541v-43.425h11.541c1.225-0.167 1.323 0.041 1.323 2.078v39.159c0.077 2.235-0.132 2.188-1.323 2.188z" style="fill:#fff"/>
 <path d="m38.3 0.152c-0.173 0-0.369 0-0.591 0.024l-14.364 1.653h-14.82c-1.831-0.166-2.574 0.04-2.574 2.078v39.159c-0.115 2.235 0.645 2.188 2.425 2.188h15.12l14.334 2.055c1.727 0 1.742-1.004 1.631-3.239l0.121-41.424c0-1.782-0.074-2.464-1.282-2.495v1e-3z" style="fill:url(#_Linear1)"/>
 <path d="m25.207 36h-16.608c-0.328 0-0.592-0.101-0.592-0.228v-1.172c0-0.125 0.264-0.228 0.592-0.228h16.608c0.328 0 0.592 0.101 0.592 0.228v1.172c0 0.125-0.264 0.228-0.592 0.228zm0-3.407h-16.608c-0.328 0-0.592-0.101-0.592-0.228v-1.172c0-0.125 0.264-0.228 0.592-0.228h16.608c0.328 0 0.592 0.101 0.592 0.228v1.172c0 0.125-0.264 0.228-0.592 0.228zm-16.269-5.258h26.131c0.516 0 0.931 0.101 0.931 0.228v1.172c0 0.126-0.415 0.228-0.931 0.228h-26.131c-0.516 0-0.931-0.101-0.931-0.228v-1.172c0-0.125 0.415-0.228 0.931-0.228zm0-3.175h26.131c0.516 0 0.931 0.1 0.931 0.227v1.172c0 0.126-0.415 0.228-0.931 0.228h-26.131c-0.516 0-0.931-0.101-0.931-0.228v-1.172c0-0.125 0.415-0.227 0.931-0.227zm12.383-1.929h-12.928c-0.198 0-0.357-0.1-0.357-0.227v-1.172c0-0.126 0.159-0.228 0.357-0.228h12.928c0.197 0 0.357 0.101 0.357 0.228v1.172c0 0.125-0.16 0.227-0.357 0.227zm13.148-1.881h-7.986c-0.554 0-0.999-0.449-0.999-0.998v-4.991c0-0.554 0.445-0.999 0.999-0.999h7.986c0.547 0 0.998 0.451 0.998 0.999v4.991c0 0.548-0.451 0.998-0.998 0.998zm-7.487-1.497h6.988l-2.246-2.995-1.747 2.246-1.248-1.497-1.747 2.246zm-5.683-0.048h-12.927c-0.198 0-0.357-0.101-0.357-0.228v-1.172c0-0.125 0.159-0.228 0.357-0.228h12.927c0.198 0 0.358 0.101 0.358 0.228v1.172c0 0.125-0.16 0.228-0.358 0.228zm-0.014-3.607h-12.928c-0.198 0-0.357-0.101-0.357-0.228v-1.172c0-0.125 0.159-0.228 0.357-0.228h12.928c0.198 0 0.357 0.101 0.357 0.228v1.172c0 0.126-0.159 0.228-0.357 0.228z" style="fill-rule:nonzero;fill:#f3f3f3"/>
 <path d="m37.83 47.309l-14.485-2.076v-43.404l14.364-1.653c1.777-0.167 1.872 0.433 1.872 2.47l-0.12 41.424c0.111 2.235 0.096 3.239-1.631 3.239z" style="fill-opacity:.156863"/>
 <defs>
  <linearGradient id="_Linear1" x2="1" gradientTransform="matrix(2.60497e-15,-42.5424,42.5424,2.60497e-15,16.2486,44.2236)" gradientUnits="userSpaceOnUse">
   <stop style="stop-color:#0055a7" offset="0"/>
   <stop style="stop-color:#6473ff" offset="1"/>
  </linearGradient>
 </defs>
</svg>
