<?xml version="1.0" encoding="UTF-8" standalone="no"?><!DOCTYPE svg PUBLIC "-//W3C//DTD SVG 1.1//EN" "http://www.w3.org/Graphics/SVG/1.1/DTD/svg11.dtd"><svg width="100%" height="100%" viewBox="0 0 48 48" version="1.1" xmlns="http://www.w3.org/2000/svg" xmlns:xlink="http://www.w3.org/1999/xlink" xml:space="preserve" xmlns:serif="http://www.serif.com/" style="fill-rule:evenodd;clip-rule:evenodd;stroke-linejoin:round;stroke-miterlimit:1.41421;"><g><path d="M38.299,0.639c-0.172,0 -0.368,0 -0.59,0.025l-14.365,1.657l0,0.001l-14.821,0c-1.832,-0.167 -2.575,0.039 -2.575,2.082l0,39.252c-0.115,2.24 0.645,2.192 2.426,2.192l15.118,0l14.338,2.06c1.389,0 1.67,-0.652 1.669,-2.074l1.26,0c1.158,0 1.362,0.048 1.287,-2.193l0,-39.251c0,-2.042 -0.096,-2.249 -1.287,-2.083l-1.193,0c-0.049,-1.162 -0.271,-1.643 -1.267,-1.668Z" style="fill-opacity:0.666667;"/><path d="M40.673,45.289l-11.966,0l0,-43.528l11.966,0c1.27,-0.167 1.372,0.041 1.372,2.083l0,39.252c0.08,2.241 -0.137,2.193 -1.372,2.193Z" style="fill:#fff;"/><path d="M38.3,0.092c-0.173,0 -0.369,0 -0.591,0.027l-14.366,1.658l-14.821,0c-1.832,-0.167 -2.574,0.042 -2.574,2.083l0,39.251c-0.115,2.24 0.644,2.194 2.425,2.194l15.131,0l14.325,2.06c1.728,0 1.743,-1.008 1.631,-3.248l0.121,-41.521c0,-1.786 -0.072,-2.471 -1.281,-2.502l0,-0.002Z" style="fill:url(#_Linear1);"/><path d="M37.83,47.363l-14.486,-2.081l0,-43.507l14.365,-1.657c1.777,-0.167 1.872,0.435 1.872,2.476l-0.121,41.522c0.112,2.241 0.097,3.247 -1.63,3.247Z" style="fill:#a44900;fill-opacity:0.286275;"/></g><g><path d="M25.281,12.973c-0.884,0 -1.623,0.739 -1.623,1.623l0,4.672l1.812,3.163l0,-7.646l10.415,0l0,8.898l-9.698,0l1.039,1.812l8.846,0c0.884,0 1.625,-0.741 1.625,-1.625l0,-9.274c0,-0.884 -0.741,-1.623 -1.625,-1.623l-10.791,0Z" style="fill:#e5eaee;fill-rule:nonzero;"/><path d="M14.961,14.954c-3.945,0 -7.161,3.218 -7.161,7.162c0,3.945 3.216,7.162 7.161,7.162l0.055,0l1.132,-1.945c-0.382,0.086 -0.778,0.135 -1.187,0.135c-2.965,0 -5.349,-2.383 -5.349,-5.348c0,-2.966 2.384,-5.351 5.349,-5.351c2.424,0 4.46,1.594 5.122,3.796c0.343,-0.675 0.789,-1.306 1.175,-1.853c-1.215,-2.234 -3.584,-3.755 -6.297,-3.755l0,-0.003Z" style="fill:#e5eaee;fill-rule:nonzero;"/><path d="M21.84,20.262c-0.095,0.072 -0.176,0.163 -0.236,0.266l-7.08,12.173c-0.08,0.138 -0.123,0.296 -0.123,0.456c0,0.496 0.408,0.905 0.905,0.906l14.081,0.044c0.001,0 0.002,0 0.003,0c0.497,0 0.906,-0.409 0.906,-0.906c0,-0.159 -0.041,-0.314 -0.12,-0.452l-7.002,-12.216c-0.161,-0.282 -0.462,-0.456 -0.786,-0.456c-0.198,0 -0.39,0.065 -0.548,0.185Zm0.543,2.534l5.441,9.494l-10.944,-0.033l5.503,-9.46l0,-0.001Z" style="fill:#e5eaee;fill-rule:nonzero;"/></g><defs><linearGradient id="_Linear1" x1="0" y1="0" x2="1" y2="0" gradientUnits="userSpaceOnUse" gradientTransform="matrix(2.61115e-15,-42.6433,42.6433,2.61115e-15,16.2462,44.2694)"><stop offset="0" style="stop-color:#c26d00;stop-opacity:1"/><stop offset="1" style="stop-color:#f0a853;stop-opacity:1"/></linearGradient></defs></svg>