<svg style="clip-rule:evenodd;fill-rule:evenodd;stroke-linejoin:round;stroke-miterlimit:2" version="1.1" viewBox="0 0 48 48" xmlns="http://www.w3.org/2000/svg">
 <path d="m42.397 45.363-12.085-0.014v-43.099l12.431-0.045c2.16 0.026 3.24 1.708 3.24 3.729v35.526c0.094 2.219-1.372 3.855-3.586 3.903z" style="fill:url(#_Linear1)"/>
 <path d="m23.275 2.257 16.512-1.548c2.209-0.223 3.174 0.962 3.191 3.337l-0.14 39.051c-0.04 2.642-1.222 4.026-3.552 4.123l-15.903-1.857h-16.984c-2.169 0-4.373-1.766-4.385-4.518v-34.223c0.083-3.166 1.403-4.359 4.569-4.417l16.692 0.052z" style="fill:url(#_Linear2)"/>
 <path d="m42.838 43.097c-0.04 2.642-1.222 4.026-3.552 4.123l-16.083-1.878v-43.078l16.584-1.555c2.209-0.223 3.174 0.962 3.191 3.337l-0.14 39.051z" style="fill-opacity:.15"/>
 <path d="m25.281 12.973c-0.884 0-1.623 0.739-1.623 1.623v4.672l1.812 3.163v-7.646h10.415v8.898h-9.698l1.039 1.812h8.846c0.884 0 1.625-0.741 1.625-1.625v-9.274c0-0.884-0.741-1.623-1.625-1.623h-10.791z" style="fill-rule:nonzero;fill:#e5eaee"/>
 <path d="m14.961 14.954c-3.945 0-7.161 3.218-7.161 7.162 0 3.945 3.216 7.162 7.161 7.162h0.055l1.132-1.945c-0.382 0.086-0.778 0.135-1.187 0.135-2.965 0-5.349-2.383-5.349-5.348 0-2.966 2.384-5.351 5.349-5.351 2.424 0 4.46 1.594 5.122 3.796 0.343-0.675 0.789-1.306 1.175-1.853-1.215-2.234-3.584-3.755-6.297-3.755v-3e-3z" style="fill-rule:nonzero;fill:#e5eaee"/>
 <path d="m21.84 20.262c-0.095 0.072-0.176 0.163-0.236 0.266l-7.08 12.173c-0.08 0.138-0.123 0.296-0.123 0.456 0 0.496 0.408 0.905 0.905 0.906l14.081 0.044h3e-3c0.497 0 0.906-0.409 0.906-0.906 0-0.159-0.041-0.314-0.12-0.452l-7.002-12.216c-0.161-0.282-0.462-0.456-0.786-0.456-0.198 0-0.39 0.065-0.548 0.185zm0.543 2.534 5.441 9.494-10.944-0.033 5.503-9.46v-1e-3z" style="fill-rule:nonzero;fill:#e5eaee"/>
 <defs>
  <linearGradient id="_Linear1" x2="1" gradientTransform="matrix(-.00109739 -43.1476 43.1476 -.00109739 39.8673 45.363)" gradientUnits="userSpaceOnUse">
   <stop style="stop-color:#b7b4b4" offset="0"/>
   <stop style="stop-color:#f1f1f1" offset="1"/>
  </linearGradient>
  <linearGradient id="_Linear2" x2="1" gradientTransform="matrix(2.58539e-15,-42.2226,42.2226,2.58539e-15,107.659,44.3392)" gradientUnits="userSpaceOnUse">
   <stop style="stop-color:#c26d00" offset="0"/>
   <stop style="stop-color:#eea54f" offset="1"/>
  </linearGradient>
 </defs>
</svg>
