
<svg style="clip-rule:evenodd;fill-rule:evenodd;stroke-linejoin:round;stroke-miterlimit:1.41421" version="1.1" viewBox="0 0 48 48" xmlns="http://www.w3.org/2000/svg">
 <path d="m38.299 0.638c-0.172 0-0.368 0-0.59 0.024l-14.364 1.657h-14.82c-1.832-0.167-2.575 0.041-2.575 2.083v39.253c-0.115 2.241 0.645 2.194 2.426 2.194h15.119l14.335 2.059c1.389 0 1.67-0.653 1.669-2.074h1.222c1.192 0 1.401 0.048 1.324-2.193v-39.254c0-2.041-0.098-2.249-1.324-2.082h-1.153c-0.048-1.169-0.271-1.643-1.269-1.669v2e-3z" style="fill-opacity:.666667"/>
 <path d="m40.832 45.291h-10.586v-43.53h10.586c1.124-0.167 1.215 0.041 1.215 2.083v39.254c0.07 2.24-0.122 2.193-1.215 2.193z" style="fill:#fff"/>
 <path d="m38.3 0.094c-0.173-5e-3 -0.37 2e-3 -0.592 0.023l-14.364 1.658h-14.819c-1.832-0.167-2.574 0.041-2.574 2.082v39.254c-0.115 2.241 0.644 2.193 2.426 2.193h15.116l14.338 2.061c1.727 0 1.742-1.007 1.63-3.247l0.121-41.524c0-1.786-0.073-2.469-1.282-2.5z" style="fill:url(#_Linear1)"/>
 <path d="m37.83 47.365l-14.485-2.082v-43.508l14.364-1.657c1.777-0.167 1.873 0.435 1.873 2.476l-0.121 41.524c0.111 2.24 0.097 3.247-1.631 3.247z" style="fill-opacity:.203922"/>
 <path d="m9.525 13.035h24.95c0.845 0 1.525 0.682 1.525 1.528v15.662c0 0.845-0.68 1.525-1.525 1.525h-10.588v2.188h2.855v2.062h-9.656v-2.062h2.766v-2.188h-10.327c-0.845 0-1.525-0.68-1.525-1.525v-15.662c0-0.846 0.68-1.528 1.525-1.528zm24.346 17.627c0.515 0 0.928-0.413 0.928-0.928v-14.65c0-0.514-0.413-0.93-0.928-0.93h-23.984c-0.515 0-0.928 0.416-0.928 0.93v14.65c0 0.515 0.413 0.928 0.928 0.928h23.984zm-17.043-5.995c0.083-0.051 0.287 0.055 0.287 0.055 0.543 0.335 2.238 1.395 2.782 1.73 0 0 0.197 0.124 0.194 0.222-4e-3 0.08-0.173 0.17-0.173 0.17-0.544 0.335-2.311 1.437-2.855 1.771 0 0-0.165 0.107-0.235 0.068-0.071-0.041-0.062-0.237-0.062-0.237v-3.563s-2e-3 -0.177 0.062-0.216zm-5.678-0.017h4.01v3.932h-4.01v-3.932zm17.168-4.916v3.435h3.435c0 1.9-1.537 3.436-3.435 3.436s-3.434-1.536-3.434-3.436c0-1.898 1.537-3.435 3.434-3.435zm-17.26 1.611h9.348v1.116h-9.348v-1.116zm18.226-2.545c1.897 0 3.435 1.536 3.435 3.433h-3.435v-3.433zm-18.24 0.747h9.348v1.116h-9.348v-1.116zm-0.01-1.937h9.348v1.116h-9.348v-1.116z" style="fill:#fff"/>
 <defs>
  <linearGradient id="_Linear1" x2="1" gradientTransform="matrix(2.61125e-15,-42.6449,42.6449,2.61125e-15,16.2482,44.271)" gradientUnits="userSpaceOnUse">
   <stop style="stop-color:#a93413" offset="0"/>
   <stop style="stop-color:#ff6a44" offset="1"/>
  </linearGradient>
 </defs>
</svg>
