<svg style="clip-rule:evenodd;fill-rule:evenodd;stroke-linejoin:round;stroke-miterlimit:2" version="1.1" viewBox="0 0 48 48" xmlns="http://www.w3.org/2000/svg">
 <path d="m42.397 45.363-12.085-0.014v-43.099l12.431-0.045c2.16 0.026 3.24 1.708 3.24 3.729v35.526c0.094 2.219-1.372 3.855-3.586 3.903z" style="fill:url(#_Linear1)"/>
 <path d="m23.275 2.257 16.512-1.548c2.209-0.223 3.174 0.962 3.191 3.337l-0.14 39.051c-0.04 2.642-1.222 4.026-3.552 4.123l-15.903-1.857h-16.984c-2.169 0-4.373-1.766-4.385-4.518v-34.223c0.083-3.166 1.403-4.359 4.569-4.417l16.692 0.052z" style="fill:url(#_Linear2)"/>
 <path d="m42.838 43.097c-0.04 2.642-1.222 4.026-3.552 4.123l-16.083-1.878v-43.078l16.584-1.555c2.209-0.223 3.174 0.962 3.191 3.337l-0.14 39.051z" style="fill-opacity:.15"/>
 <path d="m28.472 33.553h7.325c0.113 0 0.203 0.153 0.203 0.342v1.763c0 0.189-0.09 0.342-0.203 0.342h-7.325c-0.112 0-0.202-0.153-0.202-0.342v-1.763c0-0.189 0.09-0.342 0.202-0.342zm-1.656 2.447h-7.324c-0.113 0-0.203-0.153-0.203-0.342v-1.763c0-0.189 0.09-0.342 0.203-0.342h7.324c0.113 0 0.203 0.153 0.203 0.342v1.763c0 0.189-0.09 0.342-0.203 0.342zm-8.98 0h-7.326c-0.112 0-0.202-0.153-0.202-0.342v-1.763c0-0.189 0.09-0.342 0.202-0.342h7.326c0.111 0 0.201 0.153 0.201 0.342v1.763c0 0.189-0.09 0.342-0.201 0.342zm10.636-7.83h7.325c0.113 0 0.203 0.152 0.203 0.342v1.762c0 0.19-0.09 0.343-0.203 0.343h-7.325c-0.112 0-0.202-0.153-0.202-0.343v-1.762c0-0.19 0.09-0.342 0.202-0.342zm-1.656 2.447h-7.324c-0.113 0-0.203-0.153-0.203-0.343v-1.762c0-0.19 0.09-0.342 0.203-0.342h7.324c0.113 0 0.203 0.152 0.203 0.342v1.762c0 0.19-0.09 0.343-0.203 0.343zm-8.98 0h-7.326c-0.112 0-0.202-0.153-0.202-0.343v-1.762c0-0.19 0.09-0.342 0.202-0.342h7.326c0.111 0 0.201 0.152 0.201 0.342v1.762c0 0.19-0.09 0.343-0.201 0.343zm10.636-7.831h7.325c0.113 0 0.203 0.153 0.203 0.343v1.762c0 0.19-0.09 0.342-0.203 0.342h-7.325c-0.112 0-0.202-0.152-0.202-0.342v-1.762c0-0.19 0.09-0.343 0.202-0.343zm-1.656 2.447h-7.324c-0.113 0-0.203-0.152-0.203-0.342v-1.762c0-0.19 0.09-0.343 0.203-0.343h7.324c0.113 0 0.203 0.153 0.203 0.343v1.762c0 0.19-0.09 0.342-0.203 0.342zm-8.98 0h-7.326c-0.112 0-0.202-0.152-0.202-0.342v-1.762c0-0.19 0.09-0.343 0.202-0.343h7.326c0.111 0 0.201 0.153 0.201 0.343v1.762c0 0.19-0.09 0.342-0.201 0.342zm3.902-13.805c0.209 0 0.378 0.149 0.378 0.336v7.809c0 0.186-0.169 0.336-0.378 0.336h-11.013c-0.209 0-0.377-0.15-0.377-0.336v-7.809c0-0.187 0.168-0.336 0.377-0.336h11.013zm5.078 8.422h-2.385c-0.112 0-0.203-0.153-0.203-0.342v-1.763c0-0.189 0.091-0.342 0.203-0.342h2.385c0.113 0 0.203 0.153 0.203 0.342v1.763c0 0.189-0.09 0.342-0.203 0.342zm1.656-2.447h7.325c0.113 0 0.203 0.153 0.203 0.342v1.763c0 0.189-0.09 0.342-0.203 0.342h-7.325c-0.112 0-0.202-0.153-0.202-0.342v-1.763c0-0.189 0.09-0.342 0.202-0.342zm-12.769-5.005c-0.162 0-0.294 0.118-0.294 0.261l-6e-3 6.097c-1e-3 0.146 0.13 0.262 0.294 0.262h1.197c0.163 0 0.294-0.118 0.295-0.261l6e-3 -6.097c0-0.144-0.131-0.262-0.294-0.262h-1.198zm2.698 3.436c-0.163 0-0.294 0.118-0.294 0.262l-5e-3 2.659c-1e-3 0.144 0.13 0.261 0.292 0.262h1.199c0.162 0 0.293-0.117 0.294-0.262l6e-3 -2.659c0-0.144-0.131-0.262-0.294-0.262h-1.198zm-5.348-1.731h1.198c0.163 0 0.294 0.116 0.294 0.262l-6e-3 4.378c0 0.144-0.132 0.262-0.294 0.262l-1.198-1e-3c-0.163 0-0.294-0.116-0.294-0.262l6e-3 -4.378c0-0.145 0.132-0.261 0.294-0.261zm13.763-0.126h-2.385c-0.112 0-0.203-0.152-0.203-0.342v-1.762c0-0.19 0.091-0.343 0.203-0.343h2.385c0.113 0 0.203 0.153 0.203 0.343v1.762c0 0.19-0.09 0.342-0.203 0.342zm1.656-2.447h7.325c0.113 0 0.203 0.153 0.203 0.343v1.762c0 0.19-0.09 0.342-0.203 0.342h-7.325c-0.112 0-0.202-0.152-0.202-0.342v-1.762c0-0.19 0.09-0.343 0.202-0.343z" style="fill-rule:nonzero;fill:#f3f3f3"/>
 <defs>
  <linearGradient id="_Linear1" x2="1" gradientTransform="matrix(-.00109739 -43.1476 43.1476 -.00109739 39.8673 45.363)" gradientUnits="userSpaceOnUse">
   <stop style="stop-color:#b7b4b4" offset="0"/>
   <stop style="stop-color:#f1f1f1" offset="1"/>
  </linearGradient>
  <linearGradient id="_Linear2" x2="1" gradientTransform="matrix(2.58539e-15,-42.2226,42.2226,2.58539e-15,107.659,44.3392)" gradientUnits="userSpaceOnUse">
   <stop style="stop-color:#16b72d" offset="0"/>
   <stop style="stop-color:#51ee84" offset="1"/>
  </linearGradient>
 </defs>
</svg>
