<svg clip-rule="evenodd" fill-rule="evenodd" stroke-linejoin="round" stroke-miterlimit="2" viewBox="0 0 48 48" xmlns="http://www.w3.org/2000/svg">
 <linearGradient id="a" x2="1" gradientTransform="matrix(-.00109739 -43.1476 43.1476 -.00109739 39.8673 45.363)" gradientUnits="userSpaceOnUse">
  <stop stop-color="#b7b4b4" offset="0"/>
  <stop stop-color="#f1f1f1" offset="1"/>
 </linearGradient>
 <linearGradient id="b" x2="1" gradientTransform="matrix(0 -42.2226 42.2226 0 107.659 44.3392)" gradientUnits="userSpaceOnUse">
  <stop stop-color="#a93413" offset="0"/>
  <stop stop-color="#fb6842" offset="1"/>
 </linearGradient>
 <path d="m42.397 45.363-12.085-.014v-43.099l12.431-.045c2.16.026 3.24 1.708 3.24 3.729v35.526c.094 2.219-1.372 3.855-3.586 3.903z" fill="url(#a)"/>
 <path d="m23.275 2.257 16.512-1.548c2.209-.223 3.174.962 3.191 3.337l-.14 39.051c-.04 2.642-1.222 4.026-3.552 4.123l-15.903-1.857h-16.984c-2.169 0-4.373-1.766-4.385-4.518v-34.223c.083-3.166 1.403-4.359 4.569-4.417z" fill="url(#b)"/>
 <path d="m42.838 43.097c-.04 2.642-1.222 4.026-3.552 4.123l-16.083-1.878v-43.078l16.584-1.555c2.209-.223 3.174.962 3.191 3.337z" fill-opacity=".15"/>
 <path d="m9.525 13.035h24.95c.845 0 1.525.682 1.525 1.528v15.662c0 .845-.68 1.525-1.525 1.525h-10.588v2.188h2.855v2.062h-9.656v-2.062h2.766v-2.188h-10.327c-.845 0-1.525-.68-1.525-1.525v-15.662c0-.846.68-1.528 1.525-1.528zm24.346 17.627c.515 0 .928-.413.928-.928v-14.65c0-.514-.413-.93-.928-.93h-23.984c-.515 0-.928.416-.928.93v14.65c0 .515.413.928.928.928zm-17.043-5.995c.083-.051.287.055.287.055.543.335 2.238 1.395 2.782 1.73 0 0 .197.124.194.222-.004.08-.173.17-.173.17-.544.335-2.311 1.437-2.855 1.771 0 0-.165.107-.235.068-.071-.041-.062-.237-.062-.237v-3.563s-.002-.177.062-.216zm-5.678-.017h4.01v3.932h-4.01zm17.168-4.916v3.435h3.435c0 1.9-1.537 3.436-3.435 3.436s-3.434-1.536-3.434-3.436c0-1.898 1.537-3.435 3.434-3.435zm-17.26 1.611h9.348v1.116h-9.348zm18.226-2.545c1.897 0 3.435 1.536 3.435 3.433h-3.435zm-18.24.747h9.348v1.116h-9.348zm-.01-1.937h9.348v1.116h-9.348z" fill="#fff"/>
</svg>
