<svg style="clip-rule:evenodd;fill-rule:evenodd;stroke-linejoin:round;stroke-miterlimit:2" version="1.1" viewBox="0 0 48 48" xmlns="http://www.w3.org/2000/svg">
 <g transform="matrix(1.1382,0,0,1.1382,-3.3168,-3.3168)">
  <circle cx="24" cy="24" r="20" style="fill:url(#_Linear1)"/>
 </g>
 <g transform="matrix(1.1382,0,0,1.1382,-3.3168,-3.3168)">
  <circle cx="24" cy="24" r="14" style="fill:white"/>
 </g>
 <g transform="translate(2.764 7.10543e-15)">
  <path d="m4.1 22c-0.067 0.665-0.1 1.332-0.1 2 7e-3 0.668 0.047 1.336 0.121 2h39.779c0.067-0.665 0.1-1.332 0.1-2-7e-3 -0.668-0.047-1.336-0.121-2h-39.779z" style="fill-rule:nonzero;fill:rgb(53,53,53)"/>
 </g>
 <g transform="translate(-.764)">
  <path d="m14 20c0-1.104-0.896-2-2-2h-8c-1.104 0-2 0.896-2 2v8c0 1.104 0.896 2 2 2h8c1.104 0 2-0.896 2-2v-8z" style="fill:rgb(53,53,53)"/>
 </g>
 <defs>
  <linearGradient id="_Linear1" x2="1" gradientTransform="matrix(.267697 -39.9607 39.9607 .267697 24.75 43.9862)" gradientUnits="userSpaceOnUse">
   <stop style="stop-color:rgb(98,150,38)" offset="0"/>
   <stop style="stop-color:rgb(139,195,74)" offset="1"/>
  </linearGradient>
 </defs>
</svg>
