<?xml version="1.0" encoding="UTF-8" standalone="no"?><!DOCTYPE svg PUBLIC "-//W3C//DTD SVG 1.1//EN" "http://www.w3.org/Graphics/SVG/1.1/DTD/svg11.dtd"><svg width="100%" height="100%" viewBox="0 0 48 48" version="1.1" xmlns="http://www.w3.org/2000/svg" xmlns:xlink="http://www.w3.org/1999/xlink" xml:space="preserve" xmlns:serif="http://www.serif.com/" style="fill-rule:evenodd;clip-rule:evenodd;stroke-linejoin:round;stroke-miterlimit:1.41421;"><path d="M38.3,0.693c-0.173,0 -0.369,0 -0.591,0.025l-14.364,1.652l-14.82,0c-1.831,-0.166 -2.574,0.042 -2.574,2.078l0,39.16c-0.115,2.235 0.644,2.188 2.425,2.188l15.119,0l14.335,2.055c1.39,0 1.671,-0.652 1.669,-2.07l1.223,0c1.191,0 1.401,0.048 1.324,-2.187l0,-39.16c0,-2.037 -0.099,-2.245 -1.324,-2.078l-1.154,0c-0.048,-1.165 -0.271,-1.638 -1.268,-1.664l0,0.001Z" style="fill-opacity:0.666667;"/><path d="M40.722,45.241l-11.541,0l0,-43.425l11.541,0c1.225,-0.167 1.323,0.041 1.323,2.078l0,39.159c0.077,2.235 -0.132,2.188 -1.323,2.188Z" style="fill:#fff;"/><path d="M38.3,0.152c-0.173,0 -0.369,0 -0.591,0.024l-14.364,1.653l-14.82,0c-1.831,-0.166 -2.574,0.04 -2.574,2.078l0,39.159c-0.115,2.235 0.645,2.188 2.425,2.188l15.12,0l14.334,2.055c1.727,0 1.742,-1.004 1.631,-3.239l0.121,-41.424c0,-1.782 -0.074,-2.464 -1.282,-2.495l0,0.001Z" style="fill:url(#_Linear1);"/><path d="M25.207,36l-16.608,0c-0.328,0 -0.592,-0.101 -0.592,-0.228l0,-1.172c0,-0.125 0.264,-0.228 0.592,-0.228l16.608,0c0.328,0 0.592,0.101 0.592,0.228l0,1.172c0,0.125 -0.264,0.228 -0.592,0.228Zm0,-3.407l-16.608,0c-0.328,0 -0.592,-0.101 -0.592,-0.228l0,-1.172c0,-0.125 0.264,-0.228 0.592,-0.228l16.608,0c0.328,0 0.592,0.101 0.592,0.228l0,1.172c0,0.125 -0.264,0.228 -0.592,0.228Zm-16.269,-5.258l26.131,0c0.516,0 0.931,0.101 0.931,0.228l0,1.172c0,0.126 -0.415,0.228 -0.931,0.228l-26.131,0c-0.516,0 -0.931,-0.101 -0.931,-0.228l0,-1.172c0,-0.125 0.415,-0.228 0.931,-0.228Zm0,-3.175l26.131,0c0.516,0 0.931,0.1 0.931,0.227l0,1.172c0,0.126 -0.415,0.228 -0.931,0.228l-26.131,0c-0.516,0 -0.931,-0.101 -0.931,-0.228l0,-1.172c0,-0.125 0.415,-0.227 0.931,-0.227Zm12.383,-1.929l-12.928,0c-0.198,0 -0.357,-0.1 -0.357,-0.227l0,-1.172c0,-0.126 0.159,-0.228 0.357,-0.228l12.928,0c0.197,0 0.357,0.101 0.357,0.228l0,1.172c0,0.125 -0.16,0.227 -0.357,0.227Zm13.148,-1.881l-7.986,0c-0.554,0 -0.999,-0.449 -0.999,-0.998l0,-4.991c0,-0.554 0.445,-0.999 0.999,-0.999l7.986,0c0.547,0 0.998,0.451 0.998,0.999l0,4.991c0,0.548 -0.451,0.998 -0.998,0.998Zm-7.487,-1.497l6.988,0l-2.246,-2.995l-1.747,2.246l-1.248,-1.497l-1.747,2.246Zm-5.683,-0.048l-12.927,0c-0.198,0 -0.357,-0.101 -0.357,-0.228l0,-1.172c0,-0.125 0.159,-0.228 0.357,-0.228l12.927,0c0.198,0 0.358,0.101 0.358,0.228l0,1.172c0,0.125 -0.16,0.228 -0.358,0.228Zm-0.014,-3.607l-12.928,0c-0.198,0 -0.357,-0.101 -0.357,-0.228l0,-1.172c0,-0.125 0.159,-0.228 0.357,-0.228l12.928,0c0.198,0 0.357,0.101 0.357,0.228l0,1.172c0,0.126 -0.159,0.228 -0.357,0.228Z" style="fill:#f3f3f3;fill-rule:nonzero;"/><path d="M37.83,47.309l-14.485,-2.076l0,-43.404l14.364,-1.653c1.777,-0.167 1.872,0.433 1.872,2.47l-0.12,41.424c0.111,2.235 0.096,3.239 -1.631,3.239Z" style="fill-opacity:0.156863;"/><defs><linearGradient id="_Linear1" x1="0" y1="0" x2="1" y2="0" gradientUnits="userSpaceOnUse" gradientTransform="matrix(2.60497e-15,-42.5424,42.5424,2.60497e-15,16.2486,44.2236)"><stop offset="0" style="stop-color:#0055a7;stop-opacity:1"/><stop offset="1" style="stop-color:#6473ff;stop-opacity:1"/></linearGradient></defs></svg>