<?xml version="1.0" encoding="UTF-8" standalone="no"?><!DOCTYPE svg PUBLIC "-//W3C//DTD SVG 1.1//EN" "http://www.w3.org/Graphics/SVG/1.1/DTD/svg11.dtd"><svg width="100%" height="100%" viewBox="0 0 48 48" version="1.1" xmlns="http://www.w3.org/2000/svg" xmlns:xlink="http://www.w3.org/1999/xlink" xml:space="preserve" xmlns:serif="http://www.serif.com/" style="fill-rule:evenodd;clip-rule:evenodd;stroke-linejoin:round;stroke-miterlimit:1.41421;"><path d="M38.299,0.638c-0.172,0 -0.368,0 -0.59,0.024l-14.364,1.657l-14.82,0c-1.832,-0.167 -2.575,0.041 -2.575,2.083l0,39.253c-0.115,2.241 0.645,2.194 2.426,2.194l15.119,0l14.335,2.059c1.389,0 1.67,-0.653 1.669,-2.074l1.222,0c1.192,0 1.401,0.048 1.324,-2.193l0,-39.254c0,-2.041 -0.098,-2.249 -1.324,-2.082l-1.153,0c-0.048,-1.169 -0.271,-1.643 -1.269,-1.669l0,0.002Z" style="fill-opacity:0.666667;"/><path d="M40.832,45.291l-10.586,0l0,-43.53l10.586,0c1.124,-0.167 1.215,0.041 1.215,2.083l0,39.254c0.07,2.24 -0.122,2.193 -1.215,2.193Z" style="fill:#fff;"/><path d="M38.3,0.094c-0.173,-0.005 -0.37,0.002 -0.592,0.023l-14.364,1.658l-14.819,0c-1.832,-0.167 -2.574,0.041 -2.574,2.082l0,39.254c-0.115,2.241 0.644,2.193 2.426,2.193l15.116,0l14.338,2.061c1.727,0 1.742,-1.007 1.63,-3.247l0.121,-41.524c0,-1.786 -0.073,-2.469 -1.282,-2.5Z" style="fill:url(#_Linear1);"/><path d="M37.83,47.365l-14.485,-2.082l0,-43.508l14.364,-1.657c1.777,-0.167 1.873,0.435 1.873,2.476l-0.121,41.524c0.111,2.24 0.097,3.247 -1.631,3.247Z" style="fill-opacity:0.203922;"/><path d="M9.525,13.035l24.95,0c0.845,0 1.525,0.682 1.525,1.528l0,15.662c0,0.845 -0.68,1.525 -1.525,1.525l-10.588,0l0,2.188l2.855,0l0,2.062l-9.656,0l0,-2.062l2.766,0l0,-2.188l-10.327,0c-0.845,0 -1.525,-0.68 -1.525,-1.525l0,-15.662c0,-0.846 0.68,-1.528 1.525,-1.528Zm24.346,17.627c0.515,0 0.928,-0.413 0.928,-0.928l0,-14.65c0,-0.514 -0.413,-0.93 -0.928,-0.93l-23.984,0c-0.515,0 -0.928,0.416 -0.928,0.93l0,14.65c0,0.515 0.413,0.928 0.928,0.928l23.984,0Zm-17.043,-5.995c0.083,-0.051 0.287,0.055 0.287,0.055c0.543,0.335 2.238,1.395 2.782,1.73c0,0 0.197,0.124 0.194,0.222c-0.004,0.08 -0.173,0.17 -0.173,0.17c-0.544,0.335 -2.311,1.437 -2.855,1.771c0,0 -0.165,0.107 -0.235,0.068c-0.071,-0.041 -0.062,-0.237 -0.062,-0.237l0,-3.563c0,0 -0.002,-0.177 0.062,-0.216Zm-5.678,-0.017l4.01,0l0,3.932l-4.01,0l0,-3.932Zm17.168,-4.916l0,3.435l3.435,0c0,1.9 -1.537,3.436 -3.435,3.436c-1.898,0 -3.434,-1.536 -3.434,-3.436c0,-1.898 1.537,-3.435 3.434,-3.435Zm-17.26,1.611l9.348,0l0,1.116l-9.348,0l0,-1.116Zm18.226,-2.545c1.897,0 3.435,1.536 3.435,3.433l-3.435,0l0,-3.433Zm-18.24,0.747l9.348,0l0,1.116l-9.348,0l0,-1.116Zm-0.01,-1.937l9.348,0l0,1.116l-9.348,0l0,-1.116Z" style="fill:#fff;"/><defs><linearGradient id="_Linear1" x1="0" y1="0" x2="1" y2="0" gradientUnits="userSpaceOnUse" gradientTransform="matrix(2.61125e-15,-42.6449,42.6449,2.61125e-15,16.2482,44.271)"><stop offset="0" style="stop-color:#a93413;stop-opacity:1"/><stop offset="1" style="stop-color:#ff6a44;stop-opacity:1"/></linearGradient></defs></svg>