<svg style="clip-rule:evenodd;fill-rule:evenodd;stroke-linejoin:round;stroke-miterlimit:2" version="1.1" viewBox="0 0 48 48" xmlns="http://www.w3.org/2000/svg">
 <path d="m38.31 0.638c-0.172 0-0.368 0-0.591 0.024l-14.375 1.657h-14.831c-1.833-0.167-2.577 0.041-2.577 2.083v39.253c-0.115 2.241 0.645 2.194 2.427 2.194h15.131l14.346 2.059c1.391 0 1.672-0.653 1.671-2.074h1.224c1.192 0 1.401 0.048 1.324-2.193v-39.254c0-2.041-0.098-2.249-1.324-2.082h-1.155c-0.048-1.168-0.271-1.643-1.27-1.669v2e-3z" style="fill-opacity:.67"/>
 <path d="m40.796 45.291h-11.019v-43.53h11.019c1.17-0.167 1.264 0.041 1.264 2.083v39.254c0.073 2.24-0.127 2.193-1.264 2.193z" style="fill:#fff"/>
 <path d="m38.31 0.093c-0.173-4e-3 -0.369 3e-3 -0.591 0.024l-14.376 1.657v2e-3h-14.831c-1.833-0.167-2.576 0.039-2.576 2.081v39.254c-0.115 2.241 0.644 2.194 2.427 2.194h15.131l14.347 2.059c1.729 0 1.744-1.006 1.632-3.247l0.12-41.522c0-1.787-0.074-2.47-1.283-2.502z" style="fill:url(#_Linear1)"/>
 <path d="m37.84 47.365l-14.496-2.082v-43.508l14.375-1.657c1.778-0.167 1.874 0.435 1.874 2.476l-0.121 41.524c0.112 2.24 0.097 3.247-1.632 3.247z" style="fill-opacity:.29"/>
 <path d="m17 20v14h-6v-14h6zm20 4v10h-6v-10h6zm-10-10v20h-6v-20h6z" style="fill:#fff"/>
 <defs>
  <linearGradient id="_Linear1" x2="1" gradientTransform="matrix(2.61125e-15,-42.645,42.645,2.61125e-15,20.1617,44.2707)" gradientUnits="userSpaceOnUse">
   <stop style="stop-color:#a49200" offset="0"/>
   <stop style="stop-color:#f9e496" offset="1"/>
  </linearGradient>
 </defs>
</svg>
