<!DOCTYPE svg  PUBLIC '-//W3C//DTD SVG 1.1//EN'  'http://www.w3.org/Graphics/SVG/1.1/DTD/svg11.dtd'>
<svg style="clip-rule:evenodd;fill-rule:evenodd;stroke-linejoin:round;stroke-miterlimit:1.41421" version="1.1" viewBox="0 0 48 48" xmlns="http://www.w3.org/2000/svg">
 <path d="m5.746 1.547c-0.395 2e-3 -0.712 0.327-0.71 0.729l0.142 29.624 23.456-0.025-2.464-19.098c-0.051-0.399 7.01 11.903 0.365 0.144l-4.051-7.168c-0.727 0.069-0.821-0.029-1.183-0.516-0.514-0.691-1.293-2.558-1.798-3.232-0.406-0.591-0.471-0.522-1.139-0.519l-12.618 0.061z" style="fill-rule:nonzero;fill:#46494b"/>
 <path d="m38.277 7.567c-7e-3 -1.43-1.172-2.584-2.602-2.577-6.2 0.03-21.84 0.105-28.04 0.135-1.43 6e-3 -2.584 1.171-2.577 2.602 0.033 6.936 0.124 25.875 0.157 32.811 7e-3 1.43 1.172 2.584 2.602 2.578 6.2-0.03 21.84-0.105 28.04-0.135 1.431-7e-3 2.584-1.172 2.578-2.602-0.034-6.936-0.125-25.876-0.158-32.812z" style="fill:url(#_Linear1)"/>
 <path d="m10.419 10.086l-1.94 9e-3 5e-3 1.076 1.94-9e-3 -5e-3 -1.076z" style="fill-opacity:.8;fill:#fff"/>
 <path d="m10.44 14.389l-1.94 0.01 5e-3 1.075 1.94-9e-3 -5e-3 -1.076z" style="fill-opacity:.8;fill:#fff"/>
 <path d="m10.429 12.238l-1.94 9e-3 5e-3 1.076 1.941-0.01-6e-3 -1.075z" style="fill-opacity:.8;fill:#fff"/>
 <path d="m10.45 16.541l-1.94 0.01 5e-3 1.075 1.94-9e-3 -5e-3 -1.076z" style="fill-opacity:.8;fill:#fff"/>
 <path d="m10.471 20.845l-1.94 9e-3 5e-3 1.076 1.94-9e-3 -5e-3 -1.076z" style="fill-opacity:.8;fill:#fff"/>
 <path d="m10.46 18.693l-1.94 9e-3 5e-3 1.076 1.941-9e-3 -6e-3 -1.076z" style="fill-opacity:.8;fill:#fff"/>
 <path d="m10.481 22.997l-1.94 9e-3 5e-3 1.076 1.94-0.01-5e-3 -1.075z" style="fill-opacity:.8;fill:#fff"/>
 <path d="m10.502 27.3l-1.941 0.01 6e-3 1.075 1.94-9e-3 -5e-3 -1.076z" style="fill-opacity:.8;fill:#fff"/>
 <path d="m10.491 25.148l-1.94 0.01 5e-3 1.076 1.941-0.01-6e-3 -1.076z" style="fill-opacity:.8;fill:#fff"/>
 <path d="m20.12 10.039l-8.731 0.042 5e-3 1.076 8.732-0.042-6e-3 -1.076z" style="fill-opacity:.8;fill:#f92672"/>
 <path d="m26.911 10.007l-5.82 0.028 5e-3 1.075 5.82-0.027-5e-3 -1.076z" style="fill-opacity:.8;fill:#fff"/>
 <path d="m31.762 9.983l-3.881 0.019 6e-3 1.076 3.88-0.019-5e-3 -1.076z" style="fill-opacity:.8;fill:#fff"/>
 <path d="m16.25 12.21l-4.85 0.023 5e-3 1.076 4.85-0.024-5e-3 -1.075z" style="fill-opacity:.8;fill:#fd971f"/>
 <path d="m19.161 12.196l-1.941 9e-3 6e-3 1.076 1.94-9e-3 -5e-3 -1.076z" style="fill-opacity:.8;fill:#fff"/>
 <path d="m28.862 12.149l-8.731 0.042 5e-3 1.076 8.731-0.042-5e-3 -1.076z" style="fill-opacity:.8;fill:#a6e22e"/>
 <path d="m18.201 14.352l-6.791 0.033 5e-3 1.075 6.791-0.032-5e-3 -1.076z" style="fill-opacity:.8;fill:#f92672"/>
 <path d="m24.022 14.324l-4.851 0.024 5e-3 1.075 4.851-0.023-5e-3 -1.076z" style="fill-opacity:.8;fill:#fd971f"/>
 <path d="m26.932 14.31l-1.94 0.01 5e-3 1.075 1.94-9e-3 -5e-3 -1.076z" style="fill-opacity:.8;fill:#fff"/>
 <path d="m17.241 16.509l-3.88 0.018 5e-3 1.076 3.88-0.019-5e-3 -1.075z" style="fill-opacity:.8;fill:#f92672"/>
 <path d="m27.912 16.458l-9.701 0.046 5e-3 1.076 9.702-0.047-6e-3 -1.075z" style="fill-opacity:.8;fill:#a6e22e"/>
 <path d="m32.763 16.434l-3.881 0.019 6e-3 1.076 3.88-0.019-5e-3 -1.076z" style="fill-opacity:.8;fill:#fff"/>
 <path d="m19.192 18.651l-5.821 0.028 5e-3 1.076 5.821-0.028-5e-3 -1.076z" style="fill-opacity:.8;fill:#f92672"/>
 <path d="m25.982 18.619l-5.82 0.028 5e-3 1.075 5.821-0.028-6e-3 -1.075z" style="fill-opacity:.8;fill:#66d9ef"/>
 <path d="m30.833 18.595l-3.88 0.019 5e-3 1.076 3.88-0.019-5e-3 -1.076z" style="fill-opacity:.8;fill:#a6e22e"/>
 <path d="m15.321 20.821l-1.94 0.01 5e-3 1.076 1.941-0.01-6e-3 -1.076z" style="fill-opacity:.8;fill:#f92672"/>
 <path d="m28.903 20.757l-12.611 0.06 5e-3 1.076 12.611-0.061-5e-3 -1.075z" style="fill-opacity:.8;fill:#66d9ef"/>
 <path d="m35.209 20.726l-5.336 0.026 5e-3 1.076 5.336-0.026-5e-3 -1.076z" style="fill-opacity:.8;fill:#fff"/>
 <path d="m16.302 22.969l-2.911 0.014 6e-3 1.075 2.91-0.014-5e-3 -1.075z" style="fill-opacity:.8;fill:#f92672"/>
 <path d="m27.943 22.913l-10.671 0.051 5e-3 1.076 10.671-0.051-5e-3 -1.076z" style="fill-opacity:.8;fill:#66d9ef"/>
 <path d="m32.794 22.89l-3.881 0.018 6e-3 1.076 3.88-0.019-5e-3 -1.075z" style="fill-opacity:.8;fill:#fff"/>
 <path d="m13.402 25.134l-1.94 0.01 5e-3 1.076 1.94-0.01-5e-3 -1.076z" style="fill-opacity:.8;fill:#fff"/>
 <path d="m22.133 25.093l-7.761 0.037 5e-3 1.076 7.761-0.038-5e-3 -1.075z" style="fill-opacity:.8;fill:#66d9ef"/>
 <path d="m26.013 25.074l-2.91 0.014 5e-3 1.076 2.911-0.014-6e-3 -1.076z" style="fill-opacity:.8;fill:#fd971f"/>
 <path d="m15.352 27.277l-3.88 0.019 5e-3 1.075 3.881-0.018-6e-3 -1.076z" style="fill-opacity:.8;fill:#f92672"/>
 <path d="m26.994 27.221l-10.672 0.051 6e-3 1.076 10.671-0.051-5e-3 -1.076z" style="fill-opacity:.8;fill:#a6e22e"/>
 <path d="m30.389 27.205l-2.425 0.012 5e-3 1.075 2.425-0.011-5e-3 -1.076z" style="fill-opacity:.8;fill:#fff"/>
 <path d="m12.39 16.532l-0.97 4e-3 0.036 7.532 0.971-5e-3 -0.037-7.531z" style="fill-opacity:.678899;fill:#faffeb"/>
 <path d="m10.486 29.47l-1.94 0.01 5e-3 1.075 1.94-9e-3 -5e-3 -1.076z" style="fill-opacity:.8;fill:#fff"/>
 <path d="m10.497 31.622l-1.941 9e-3 6e-3 1.076 1.94-9e-3 -5e-3 -1.076z" style="fill-opacity:.8;fill:#fff"/>
 <path d="m10.517 35.926l-1.94 9e-3 5e-3 1.076 1.94-0.01-5e-3 -1.075z" style="fill-opacity:.8;fill:#fff"/>
 <path d="m10.507 33.774l-1.94 9e-3 5e-3 1.076 1.94-9e-3 -5e-3 -1.076z" style="fill-opacity:.8;fill:#fff"/>
 <path d="m15.337 29.447l-1.94 9e-3 5e-3 1.076 1.94-9e-3 -5e-3 -1.076z" style="fill-opacity:.8;fill:#f92672"/>
 <path d="m28.919 29.382l-12.612 0.06 5e-3 1.076 12.612-0.06-5e-3 -1.076z" style="fill-opacity:.8;fill:#66d9ef"/>
 <path d="m35.224 29.352l-5.335 0.025 5e-3 1.076 5.336-0.026-6e-3 -1.075z" style="fill-opacity:.8;fill:#fff"/>
 <path d="m16.317 31.594l-2.91 0.014 5e-3 1.076 2.911-0.014-6e-3 -1.076z" style="fill-opacity:.8;fill:#f92672"/>
 <path d="m27.959 31.538l-10.672 0.052 6e-3 1.075 10.671-0.051-5e-3 -1.076z" style="fill-opacity:.8;fill:#66d9ef"/>
 <path d="m32.809 31.515l-3.88 0.019 5e-3 1.076 3.881-0.019-6e-3 -1.076z" style="fill-opacity:.8;fill:#fff"/>
 <path d="m13.417 33.76l-1.94 9e-3 5e-3 1.076 1.94-9e-3 -5e-3 -1.076z" style="fill-opacity:.8;fill:#fff"/>
 <path d="m22.148 33.718l-7.761 0.037 6e-3 1.076 7.761-0.037-6e-3 -1.076z" style="fill-opacity:.8;fill:#66d9ef"/>
 <path d="m26.029 33.7l-2.91 0.014 5e-3 1.075 2.91-0.014-5e-3 -1.075z" style="fill-opacity:.8;fill:#fd971f"/>
 <path d="m15.368 35.902l-3.881 0.019 6e-3 1.076 3.88-0.019-5e-3 -1.076z" style="fill-opacity:.8;fill:#f92672"/>
 <path d="m27.009 35.847l-10.671 0.051 5e-3 1.076 10.672-0.052-6e-3 -1.075z" style="fill-opacity:.8;fill:#a6e22e"/>
 <path d="m30.405 35.83l-2.426 0.012 6e-3 1.076 2.425-0.012-5e-3 -1.076z" style="fill-opacity:.8;fill:#fff"/>
 <circle cx="36.854" cy="35.551" r="10.379" style="fill:url(#_Linear2)"/>
 <clipPath id="_clip3">
  <path d="m47 24c0 12.708-10.304 23-23 23s-23-10.292-23-23 10.304-23 23-23 23 10.292 23 23z"/>
 </clipPath>
 <g clip-path="url(#_clip3)">
  <path d="m31.424 30.779c0-1.266 0.968-1.302 0.968 0l-2e-3 9.198c0 0.295 0.108 0.478 0.482 0.478h3.88c1.308 0 1.25 0.968 0 0.968h-4.848c-0.323 0-0.484-0.233-0.484-0.484" style="fill-rule:nonzero;fill:#f9f9f9"/>
  <path d="m42.069 40.465c0 1.268-0.968 1.3-0.968 0l2e-3 -9.198c0-0.301-0.11-0.484-0.484-0.484h-3.88c-1.308 0-1.248-0.968 0-0.968h4.848c0.323 0 0.484 0.238 0.484 0.484" style="fill-rule:nonzero;fill:#f9f9f9"/>
 </g>
 <defs>
  <linearGradient id="_Linear1" x2="1" gradientTransform="matrix(-.187615 -39.1084 40.9203 -.196307 22.5975 44.162)" gradientUnits="userSpaceOnUse">
   <stop style="stop-color:#292926" offset="0"/>
   <stop style="stop-color:#484b4d" offset="1"/>
  </linearGradient>
  <linearGradient id="_Linear2" x2="1" gradientTransform="matrix(-.0997286 -19.7252 19.7252 -.0997286 36.4996 45.5756)" gradientUnits="userSpaceOnUse">
   <stop style="stop-color:#00859f" offset="0"/>
   <stop style="stop-color:#00caf6" offset="1"/>
  </linearGradient>
 </defs>
</svg>
