<svg clip-rule="evenodd" fill-rule="evenodd" stroke-linejoin="round" stroke-miterlimit="2" viewBox="0 0 48 48" xmlns="http://www.w3.org/2000/svg">
 <linearGradient id="a" x2="1" gradientTransform="matrix(0 -43.2859 43.2859 0 24 45.6179)" gradientUnits="userSpaceOnUse">
  <stop stop-color="#2a2e40" offset="0"/>
  <stop stop-color="#3b3f4d" offset="1"/>
 </linearGradient>
 <path d="m39.44 2.332c3.438 0 6.228 2.79 6.228 6.228v30.88c0 3.438-2.79 6.228-6.228 6.228h-30.88c-3.438 0-6.228-2.79-6.228-6.228v-30.88c0-3.438 2.79-6.228 6.228-6.228z" fill="url(#a)"/>
 <g transform="matrix(1.0834 0 0 1.0834 -2.0016 -2.0016)" fill-rule="nonzero">
  <path d="m14.5 14c-.277 0-.5.223-.5.5v12c0 .277.223.5.5.5h2c.277 0 .5-.223.5-.5v-9.5h4.5c.277 0 .5-.223.5-.5v-2c0-.277-.223-.5-.5-.5z" fill="#fff"/>
  <path d="m33.5 34c.277 0 .5-.223.5-.5v-12c0-.277-.223-.5-.5-.5h-2c-.277 0-.5.223-.5.5v9.5h-4.5c-.277 0-.5.223-.5.5v2c0 .277.223.5.5.5z" fill="#ec1a55"/>
 </g>
</svg>
