<svg style="clip-rule:evenodd;fill-rule:evenodd;stroke-linejoin:round;stroke-miterlimit:2" version="1.1" viewBox="0 0 64 64" xmlns="http://www.w3.org/2000/svg">
 <circle cx="32.5" cy="31.5" r="29.85" style="fill:url(#_Linear1)"/>
 <path d="m58 25.833c0-1.564-1.269-2.833-2.833-2.833h-45.334c-1.564 0-2.833 1.269-2.833 2.833v11.334c0 1.564 1.269 2.833 2.833 2.833h45.334c1.564 0 2.833-1.269 2.833-2.833v-11.334z" style="fill:#00544d"/>
 <path d="m27.13 28.191v-0.816c0-0.759 0.616-1.375 1.375-1.375s1.375 0.616 1.375 1.375v0.798l0.564-0.564c0.537-0.537 1.408-0.537 1.945 0s0.537 1.408 0 1.945l-0.576 0.576h0.812c0.759 0 1.375 0.616 1.375 1.375s-0.616 1.375-1.375 1.375h-0.806l0.57 0.57c0.537 0.536 0.537 1.408 0 1.944-0.537 0.537-1.408 0.537-1.945 0l-0.564-0.564v0.795c0 0.759-0.616 1.375-1.375 1.375s-1.375-0.616-1.375-1.375v-0.812l-0.575 0.574c-0.536 0.537-1.408 0.537-1.944 0-0.537-0.536-0.537-1.408 0-1.944l0.562-0.563h-0.798c-0.759 0-1.375-0.616-1.375-1.375s0.616-1.375 1.375-1.375h0.805l-0.569-0.569c-0.537-0.537-0.537-1.408 0-1.945 0.536-0.537 1.408-0.537 1.944 0l0.575 0.575z" style="fill:#fff"/>
 <path d="m12.184 30.13l-0.577-0.576c-0.536-0.537-0.536-1.408 0-1.945 0.537-0.537 1.408-0.537 1.945 0l0.578 0.578v-0.812c0-0.759 0.616-1.375 1.375-1.375s1.375 0.616 1.375 1.375v0.802l0.568-0.568c0.536-0.537 1.408-0.537 1.944 0 0.537 0.537 0.537 1.408 0 1.945l-0.576 0.576h0.809c0.759 0 1.375 0.616 1.375 1.375s-0.616 1.375-1.375 1.375h-0.802l0.562 0.563c0.537 0.536 0.537 1.408 0 1.944-0.536 0.537-1.408 0.537-1.944 0l-0.561-0.561v0.799c0 0.759-0.616 1.375-1.375 1.375s-1.375-0.616-1.375-1.375v-0.809l-0.571 0.571c-0.537 0.537-1.408 0.537-1.945 0-0.536-0.536-0.536-1.408 0-1.944l0.563-0.563h-0.802c-0.759 0-1.375-0.616-1.375-1.375s0.616-1.375 1.375-1.375h0.809z" style="fill:#fff"/>
 <path d="m40.13 28.18v-0.805c0-0.759 0.616-1.375 1.375-1.375s1.375 0.616 1.375 1.375v0.795l0.561-0.561c0.537-0.537 1.408-0.537 1.945 0 0.536 0.537 0.536 1.408 0 1.945l-0.577 0.576h0.816c0.759 0 1.375 0.616 1.375 1.375s-0.616 1.375-1.375 1.375h-0.795l0.563 0.563c0.536 0.536 0.536 1.408 0 1.944-0.537 0.537-1.408 0.537-1.945 0l-0.568-0.568v0.806c0 0.759-0.616 1.375-1.375 1.375s-1.375-0.616-1.375-1.375v-0.816l-0.578 0.578c-0.537 0.537-1.408 0.537-1.945 0-0.536-0.536-0.536-1.408 0-1.944l0.563-0.563h-0.795c-0.759 0-1.375-0.616-1.375-1.375s0.616-1.375 1.375-1.375h0.816l-0.576-0.576c-0.537-0.537-0.537-1.408 0-1.945 0.536-0.537 1.407-0.537 1.944 0l0.571 0.571z" style="fill:#fff"/>
 <defs>
  <linearGradient id="_Linear1" x2="1" gradientTransform="matrix(3.65505e-15,-59.6915,59.6915,3.65505e-15,32,61.3458)" gradientUnits="userSpaceOnUse">
   <stop style="stop-color:#018dde" offset="0"/>
   <stop style="stop-color:#50b590" offset="1"/>
  </linearGradient>
 </defs>
</svg>
