<svg style="clip-rule:evenodd;fill-rule:evenodd;stroke-linejoin:round;stroke-miterlimit:2" version="1.1" viewBox="0 0 48 48" xmlns="http://www.w3.org/2000/svg">
 <path d="m24 1c-12.702 0-23 10.298-23 23s10.298 23 23 23 23-10.298 23-23-10.298-23-23-23" style="fill-rule:nonzero;fill:url(#_Linear1)"/>
 <path d="m13.452 17.921c2.301-5.266 8.666-3.991 10.572-0.378 1.746-3.588 8.508-5.446 10.573 0.372 2.5 7.728-5.906 11.956-10.586 17.085-4.581-4.937-13.06-9.223-10.559-17.079z" style="fill-rule:nonzero;fill:url(#_Linear2)"/>
 <path d="m24 1c-12.691 0-23 10.309-23 23s10.309 23 23 23 23-10.309 23-23-10.309-23-23-23zm0 1.917c11.655 0 21.083 9.428 21.083 21.083s-9.428 21.083-21.083 21.083-21.083-9.428-21.083-21.083 9.428-21.083 21.083-21.083z" style="fill-rule:nonzero;fill:url(#_Linear3)"/>
 <defs>
  <linearGradient id="_Linear1" x2="1" gradientTransform="matrix(1.07143,-45.1786,45.1786,1.07143,24.6675,46.2626)" gradientUnits="userSpaceOnUse">
   <stop style="stop-color:#31a5c2" offset="0"/>
   <stop style="stop-color:#9ae6f8" offset="1"/>
  </linearGradient>
  <linearGradient id="_Linear2" x2="1" gradientTransform="matrix(-.0344501 -18.7572 18.7572 -.0344501 24.1412 33.1656)" gradientUnits="userSpaceOnUse">
   <stop style="stop-color:#b30040" offset="0"/>
   <stop style="stop-color:#ff40a3" offset="1"/>
  </linearGradient>
  <linearGradient id="_Linear3" x2="1" gradientTransform="matrix(1.02679,-43.2961,43.2961,1.02679,24.6396,45.3352)" gradientUnits="userSpaceOnUse">
   <stop style="stop-color:#c7c4ff" offset="0"/>
   <stop style="stop-color:#ffc2d0" offset="1"/>
  </linearGradient>
 </defs>
</svg>
