<svg style="clip-rule:evenodd;fill-rule:evenodd;stroke-linejoin:round;stroke-miterlimit:2" version="1.1" viewBox="0 0 48 48" xmlns="http://www.w3.org/2000/svg">
 <circle cx="23.998" cy="24.16" r="22.6" style="fill:url(#_Linear1)"/>
 <path d="m21.302 9.172c-0.924 1.922-1.819 3.894-2.69 5.922-0.844 2.002-1.723 4.116-2.62 6.358-0.198 0.51-0.395 1.064-0.596 1.59h5.87c0.063-0.175 0.136-0.37 0.198-0.542 0.423-1.094 0.796-2.09 1.139-2.997 0.343-0.908 0.639-1.71 0.903-2.403 0.264-0.694 0.464-1.244 0.596-1.645 0.159 0.401 0.369 0.951 0.633 1.645 0.264 0.693 0.578 1.495 0.921 2.403 0.37 0.907 0.74 1.903 1.136 2.997 0.063 0.172 0.136 0.367 0.199 0.542h6.087c-0.206-0.526-0.41-1.08-0.615-1.59-0.872-2.242-1.749-4.356-2.619-6.358-0.871-2.028-1.76-4-2.656-5.922h-5.886zm-8.036 15.026c-1.601 0-2.891 1.288-2.891 2.889s1.29 2.891 2.891 2.891h21.962c1.601 0 2.888-1.29 2.888-2.891s-1.287-2.889-2.888-2.889h-21.962zm-0.038 1.238h13.869c0.961 0 1.735 0.772 1.735 1.732 0 0.961-0.774 1.735-1.735 1.735h-13.869c-0.961 0-1.735-0.774-1.735-1.735 0-0.96 0.774-1.732 1.735-1.732zm22.813 5.603c-2.157 0.203-4.325 0.051-6.487 0.095 0.631 1.909 1.329 3.793 1.936 5.709 2.205 0.156 4.416 0.03 6.624 0.071-0.684-1.961-1.346-3.93-2.073-5.875zm-23.606 2e-3c-0.697 1.953-1.386 3.909-2.06 5.87h6.412c0.576-1.951 1.29-3.857 1.951-5.779-2.1-0.047-4.207 0.104-6.303-0.091z" style="fill-rule:nonzero;fill:#e3f3fe"/>
 <defs>
  <linearGradient id="_Linear1" x2="1" gradientTransform="matrix(2.81376e-15,-45.9521,45.9521,2.81376e-15,24.9503,46.9902)" gradientUnits="userSpaceOnUse">
   <stop style="stop-color:#0a80fd" offset="0"/>
   <stop style="stop-color:#56c5fa" offset="1"/>
  </linearGradient>
 </defs>
</svg>
