<svg style="clip-rule:evenodd;fill-rule:evenodd;stroke-linejoin:round;stroke-miterlimit:2" version="1.1" viewBox="0 0 48 48" xmlns="http://www.w3.org/2000/svg">
 <circle cx="24" cy="24" r="22.764" style="fill:url(#_Linear1)"/>
 <path d="m35.286 11.67h-1.22c-0.29 0-0.525 0.234-0.525 0.524v0.653c0 0.29-0.235 0.525-0.524 0.525h-1.138c-0.29 0-0.525-0.235-0.525-0.525v-0.653c0-0.29-0.235-0.524-0.525-0.524h-13.699c-0.29 0-0.525 0.234-0.525 0.524v0.653c0 0.29-0.235 0.525-0.525 0.525h-1.138c-0.289 0-0.524-0.235-0.524-0.525v-0.653c0-0.29-0.235-0.524-0.525-0.524h-1.179c-0.29 0-0.525 0.234-0.525 0.524v23.612c0 0.29 0.235 0.525 0.525 0.525h1.179c0.29 0 0.525-0.235 0.525-0.525v-0.48c0-0.29 0.235-0.525 0.524-0.525h1.138c0.29 0 0.525 0.235 0.525 0.525v0.48c0 0.29 0.235 0.525 0.525 0.525h13.699c0.29 0 0.525-0.235 0.525-0.525v-0.48c0-0.29 0.235-0.525 0.525-0.525h1.138c0.289 0 0.524 0.235 0.524 0.525v0.48c0 0.29 0.235 0.525 0.525 0.525h1.22c0.29 0 0.525-0.235 0.525-0.525v-23.612c0-0.29-0.235-0.524-0.525-0.524zm-18.681 20.079c0 0.29-0.235 0.525-0.525 0.525h-1.138c-0.289 0-0.524-0.235-0.524-0.525v-1.138c0-0.29 0.235-0.524 0.524-0.524h1.138c0.29 0 0.525 0.234 0.525 0.524v1.138zm0-4.715c0 0.29-0.235 0.525-0.525 0.525h-1.138c-0.289 0-0.524-0.235-0.524-0.525v-1.138c0-0.289 0.235-0.524 0.524-0.524h1.138c0.29 0 0.525 0.235 0.525 0.524v1.138zm0-4.715c0 0.29-0.235 0.525-0.525 0.525h-1.138c-0.289 0-0.524-0.235-0.524-0.525v-1.138c0-0.289 0.235-0.524 0.524-0.524h1.138c0.29 0 0.525 0.235 0.525 0.524v1.138zm0-4.715c0 0.29-0.235 0.525-0.525 0.525h-1.138c-0.289 0-0.524-0.235-0.524-0.525v-1.137c0-0.29 0.235-0.525 0.524-0.525h1.138c0.29 0 0.525 0.235 0.525 0.525v1.137zm12.48 15.953c0 0.289-0.235 0.524-0.524 0.524h-9.122c-0.289 0-0.524-0.235-0.524-0.524v-4.217c0-0.29 0.235-0.525 0.524-0.525h9.122c0.289 0 0.524 0.235 0.524 0.525v4.217zm0-7.449c0 0.29-0.235 0.525-0.524 0.525h-9.122c-0.289 0-0.524-0.235-0.524-0.525v-4.216c0-0.29 0.235-0.525 0.524-0.525h9.122c0.289 0 0.524 0.235 0.524 0.525v4.216zm0-7.448c0 0.29-0.235 0.525-0.524 0.525h-9.122c-0.289 0-0.524-0.235-0.524-0.525v-4.217c0-0.289 0.235-0.524 0.524-0.524h9.122c0.289 0 0.524 0.235 0.524 0.524v4.217zm4.456 13.089c0 0.29-0.235 0.525-0.524 0.525h-1.138c-0.29 0-0.525-0.235-0.525-0.525v-1.138c0-0.29 0.235-0.524 0.525-0.524h1.138c0.289 0 0.524 0.234 0.524 0.524v1.138zm0-4.715c0 0.29-0.235 0.525-0.524 0.525h-1.138c-0.29 0-0.525-0.235-0.525-0.525v-1.138c0-0.289 0.235-0.524 0.525-0.524h1.138c0.289 0 0.524 0.235 0.524 0.524v1.138zm0-4.715c0 0.29-0.235 0.525-0.524 0.525h-1.138c-0.29 0-0.525-0.235-0.525-0.525v-1.138c0-0.289 0.235-0.524 0.525-0.524h1.138c0.289 0 0.524 0.235 0.524 0.524v1.138zm0-4.715c0 0.29-0.235 0.525-0.524 0.525h-1.138c-0.29 0-0.525-0.235-0.525-0.525v-1.137c0-0.29 0.235-0.525 0.525-0.525h1.138c0.289 0 0.524 0.235 0.524 0.525v1.137z" style="fill-rule:nonzero;fill:#002c06"/>
 <defs>
  <linearGradient id="_Linear1" x2="1" gradientTransform="matrix(2.71809e-15,-44.3898,44.3898,2.71809e-15,24,45.6258)" gradientUnits="userSpaceOnUse">
   <stop style="stop-color:#019211" offset="0"/>
   <stop style="stop-color:#47f383" offset="1"/>
  </linearGradient>
 </defs>
</svg>
