<svg style="clip-rule:evenodd;fill-rule:evenodd;stroke-linejoin:round;stroke-miterlimit:2" version="1.1" viewBox="0 0 48 48" xmlns="http://www.w3.org/2000/svg">
 <path d="m39.44 2.332c3.438 0 6.228 2.79 6.228 6.228v30.88c0 3.438-2.79 6.228-6.228 6.228h-30.88c-3.438 0-6.228-2.79-6.228-6.228v-30.88c0-3.438 2.79-6.228 6.228-6.228h30.88z" style="fill:url(#_Linear1)"/>
 <path d="m45.668 38.226v1.214c0 3.438-2.79 6.228-6.228 6.228h-30.88c-3.438 0-6.228-2.79-6.228-6.228v-1.214h43.336z" style="fill-rule:nonzero;fill:url(#_Linear2)"/>
 <path d="m24.031 13.634c-2.854 0-5.387 1.353-7.023 3.443l1.122 0.714c1.399-1.718 3.536-2.813 5.918-2.813 4.213 0 7.632 3.428 7.632 7.652 0 4.222-3.419 7.65-7.632 7.65-2.374 0-4.504-1.089-5.904-2.799l-1.121 0.714c1.642 2.085 4.166 3.428 7.022 3.428 4.945 0 8.955-4.028 8.955-8.993 0-4.961-4.013-8.99-8.955-8.99m-9.045 3.742v10.491l9.099-5.298m-0.068-5.427c-1.61 0-3.056 0.7-4.06 1.809l1.162 0.726c0.747-0.74 1.771-1.195 2.901-1.195 2.287 0 4.142 1.874 4.142 4.181 0 2.309-1.853 4.183-4.142 4.183-1.15 0-2.19-0.472-2.939-1.235l-1.121 0.714c1.004 1.109 2.447 1.809 4.06 1.809 3.028 0 5.483-2.465 5.483-5.498 0-3.035-2.456-5.497-5.483-5.497" style="fill-opacity:.85;fill:#fff"/>
 <defs>
  <linearGradient id="_Linear1" x2="1" gradientTransform="matrix(2.21762e-15,-36.2165,36.2165,2.21762e-15,489.464,42.119)" gradientUnits="userSpaceOnUse">
   <stop style="stop-color:#566069" offset="0"/>
   <stop style="stop-color:#6c7884" offset="1"/>
  </linearGradient>
  <linearGradient id="_Linear2" x2="1" gradientTransform="matrix(-.30178 -32.3809 32.3809 -.30178 3511.7 7.5665)" gradientUnits="userSpaceOnUse">
   <stop style="stop-color:#ccc" offset="0"/>
   <stop style="stop-color:#f5f2f5" offset="1"/>
  </linearGradient>
 </defs>
</svg>
