<svg style="clip-rule:evenodd;fill-rule:evenodd;stroke-linejoin:round;stroke-miterlimit:1.41421" version="1.1" viewBox="0 0 48 48" xmlns="http://www.w3.org/2000/svg">
 <circle cx="24.098" cy="24.06" r="24" style="fill:url(#_Linear1)"/>
 <path d="m22.312 0.284c-3.006 0.235-5.821 1.032-8.386 2.245-0.178 0.192-0.418 0.347-0.617 0.346-0.027 0-0.055-0.016-0.084-0.024-1.26 0.647-2.444 1.412-3.557 2.261 0.172 0.236 0.239 0.507-0.065 0.666-0.051 0.027-0.708 0.145-0.94 0.157-3.144 2.683-5.563 6.15-6.974 10.086 0.027-5e-3 0.049-0.02 0.077-0.025 0.259-0.023 0.639 0.022 0.892 0.055 0.234 0.029 0.431 0.169 0.631 0.168 0.568-1e-3 0.67-0.451 1.111-0.733 0.481 0.03 0.785-0.142 1.219-0.128 0.296 9e-3 0.532 0.306 0.761 0.306 0.194 4e-3 0.347-0.208 0.535-0.194 0.183 0.013 0.525 0.383 0.572 0.601 0.059 0.272-0.161 0.538-0.059 0.833 0.311 0.271 0.838 0.289 1.262 0.426 0.251-0.242-0.014-0.633-0.074-0.949-0.014-0.141-1e-3 -0.268-0.031-0.396-0.042-0.218-0.152-0.412-0.169-0.6-0.071-0.869 0.602-1.331 1.158-1.72 0.241-0.17 0.419-0.447 0.63-0.574 0.297-0.179 0.524-0.233 0.769-0.397 0.443-0.296 0.823-0.536 1.162-0.859 0.136-0.407-0.056-0.924-0.072-1.315 0.159-0.115 0.314 0.02 0.491-8e-3 0.274-0.08 0.267-0.476 0.413-0.645 0.085-0.098 0.332-0.182 0.439-0.281 0.261-0.24 0.326-0.577 0.562-0.69 0.084-0.042 0.286-0.048 0.421-0.096 0.177-0.062 0.417-0.296 0.704-0.42 0.187-0.082 0.626-0.13 0.693-0.209 0.083-0.099-0.029-0.35-8e-3 -0.491 0.094-0.701 1.122-0.929 1.718-1.209 0.417-0.197 0.835-0.53 1.316-0.475-0.067 0.335-0.517 0.253-0.411 0.646 0.146 0.544 0.83-0.225 1.019-0.321 0.36-0.187 0.992-0.333 1.467-0.548 0.417-0.191 1.167-0.49 0.724-0.949-0.338 7e-3 -0.469 0.435-0.753 0.583-0.2 0.049-0.177-0.157-0.352-0.159-0.166-7e-3 -0.244 0.172-0.416 0.156-0.17-0.014-0.427-0.26-0.468-0.455-0.107-0.504 0.374-0.754 0.556-1.151-0.176-0.45-0.785-0.033-1.185-0.183 0.015-0.278 0.285-0.489 0.602-0.567 0.259-0.065 0.851-0.088 1.019 0.04 0.096 0.07 0.026 0.269 0.184 0.386 0.167 0.128 0.357 0.099 0.557 0.05 0.046-0.354-0.473-0.226-0.434-0.46 0.391-0.303 1.08-0.133 1.58-0.248 0.287-0.066 0.576-0.295 0.823-0.46 0.234-0.159 0.533-0.426 0.811-0.218 0.09 0.244-0.2 0.35-0.329 0.485-0.435 0.452-0.879 0.966-1.205 1.477 0.24 0.2 0.637 0.06 1.017 0.075 0.149 8e-3 0.338 0.038 0.496 0.053 0.185 0.018 0.378-6e-3 0.524 0.02 0.261 0.043 0.351 0.312 0.605 0.292 0.418-0.034 0.388-0.486 0.129-0.75 0.052-0.294 0.158-0.453 0.041-0.647-0.218-0.362-0.881 0.049-0.953-0.417-0.046-0.303 0.232-0.311 0.325-0.548-0.096-0.584 0.433-0.669 0.335-1.192-0.042-0.218-0.228-0.207-0.399-0.402-0.085-0.095-0.141-0.287-0.237-0.367-0.718-8e-3 -1.442 0.01-2.172 0.067zm-11.919 5.769h2e-3c0.144 9e-3 0.328 0.148 0.501 0.148 0.163-9e-3 0.29-0.113 0.393-0.094 0.261 0.047 0.399 0.425 0.174 0.633-0.198 0.04-0.285-0.065-0.433-0.027-0.41 0.102-0.505 0.928-0.818 0.925-0.294-2e-3 -0.508-0.702-0.227-0.937 5e-3 -0.187-0.152-0.205-0.157-0.388 0.079-0.12 0.32-0.261 0.565-0.26zm-1.368 0.203c0.085-4e-3 0.151 0.012 0.186 0.046-0.015 0.329-0.271 0.328-0.511 0.499-0.414 0.296-0.634 0.715-0.728 1.286-0.027 0.167-0.422 0.632-0.632 0.605-0.492-0.065 0.056-1.006 0.156-1.15 0.111-0.16 0.264-0.305 0.395-0.49 0.126-0.179 0.2-0.414 0.327-0.517 0.14-0.114 0.551-0.269 0.807-0.279zm3.702 0.815c0.155-9e-3 0.297 5e-3 0.365 0.063-0.068 0.411-0.945 0.373-1.275 0.252 9e-3 -0.154 0.244-0.214 0.442-0.25 0.14-0.014 0.313-0.057 0.468-0.065zm-1.92 0.9c0.103-0.011 0.21 3e-3 0.321 0.024-0.263 0.257-0.557 0.414-1.028 0.605-0.226 0.091-0.62 0.213-0.68-0.043-0.072-0.314 0.321-0.271 0.531-0.316 0.264-0.058 0.544-0.236 0.856-0.27zm30.484-0.564c-0.029 0.089-0.049 0.177-0.038 0.26 0.031 0.146 0.203 0.275 0.255 0.472 0.028 0.104-0.024 0.338 0.034 0.431 0.169 0.273 0.538 0.038 0.815 0.032-0.347-0.407-0.693-0.814-1.066-1.195zm1.726 1.979c-0.027 0.214-0.149 0.499-0.251 0.684-0.234 0.426-0.594 0.473-0.959 0.719-0.305 0.206-0.418 0.518-0.58 0.846-0.176 0.355-0.285 0.57-0.164 1.055-0.23 0.563-0.618 0.927-1.163 1.229-0.161 0.088-0.388 0.134-0.532 0.257-0.116 0.097-0.167 0.339-0.325 0.547-0.196 0.255-0.412 0.374-0.511 0.565-0.076 0.147-0.085 0.43-0.166 0.626-0.11 0.267-0.378 0.414-0.529 0.688-0.069 0.126-0.102 0.373-0.176 0.538-0.166 0.367-0.477 0.646-0.417 0.952 0.059 0.297 0.402 0.322 0.446 0.581 0.015 0.147-0.079 0.245-0.06 0.405 0.022 0.234 0.194 0.386 0.227 0.565 0.081 0.45-0.105 0.647-0.166 0.964-0.029 0.151 2e-3 0.316-0.029 0.435-0.057 0.233-0.358 0.463-0.343 0.732 0.013 0.191 0.223 0.329 0.26 0.595 0.018 0.184-0.061 0.389-0.015 0.556 0.091 0.328 0.714 0.668 0.993 0.906 0.373 0.318 0.846 0.55 1.023 0.903 0.15 0.299 0.18 0.702 0.44 0.916 0.191 0.158 0.496 0.242 0.738 0.403 0.226 0.151 0.469 0.277 0.711 0.436 0.395 0.262 1.002 0.798 1.591 0.707 0.308-0.047 0.605-0.324 0.951-0.414 0.356-0.093 0.822-0.163 1.189-0.154 0.281 6e-3 0.581 0.151 0.87 0.115 0.305-0.044 0.638-0.298 0.974-0.477 0.271-0.143 0.604-0.305 0.973-0.434 0.082-1.176 0.081-2.374-0.014-3.586-0.381-4.878-2.194-9.286-4.986-12.86zm-38.781 11.09c-0.506 0.068-0.836 0.117-1.115 0.27-0.637 0.352-0.439 1.236-1.083 1.499-0.223 0.091-0.536 0.119-0.784 0.185-0.214 0.057-0.469 0.196-0.693 0.209-0.063 4e-3 -0.154-0.036-0.234-0.054-0.026 0.423-0.041 0.85-0.045 1.279 0.638 0.071 1.027 0.879 1.604 1.111 0.158 0.063 0.357 0.052 0.557 0.08 0.16 0.023 0.286 0.081 0.442 0.12 0.332 0.085 0.726 0.04 0.994 0.135 0.403 0.143 0.746 0.852 1.096 1.022 0.035 0.196-2e-3 0.465 0.078 0.607 0.175 0.202 0.394 0.138 0.666 0.257 0.325 0.144 0.454 0.571 0.76 0.68 0.106 0.038 0.361 0.012 0.526 0.048 0.415 0.091 0.584 0.549 0.923 0.42 0.222-0.085 0.186-0.318 0.206-0.539 0.137-0.174 0.281-0.445 0.515-0.468 0.378-0.05 0.444 0.36 0.611 0.717 0.095 0.203 0.313 0.368 0.383 0.584 0.125 0.372 0.166 1.512 0.104 1.745-0.074 0.286-0.442 0.434-0.65 0.76-0.098 0.154-0.134 0.37-0.208 0.478-0.136 0.194-0.354 0.259-0.453 0.436-0.056 0.099-0.101 0.307-0.153 0.44-0.153 0.403-0.377 0.698-0.186 1.152 0.08 0.187 0.39 0.293 0.408 0.519 0.022 0.266-0.526 0.548-0.547 0.843-0.016 0.22 0.222 0.591 0.313 0.868 0.067 0.209 0.481 0.311 0.618 0.443 0.233 0.224 0.431 0.552 0.651 0.839 0.434 0.564 0.794 1.266 1.216 1.812 0.223 0.287 0.524 0.536 0.682 0.839 0.08 0.153 0.085 0.342 0.159 0.479 0.257 0.476 1.261 0.915 1.778 1.121 0.242 0.095 0.503 0.115 0.726 0.217 0.338 0.155 1.017 0.59 1.203 0.861 0.166 0.244 0.305 0.858 0.407 1.258 0.137 0.529 0.076 0.948 0.15 1.526 0.044 0.313 0.17 0.621 0.198 0.935 9e-3 0.11-0.043 0.197-0.039 0.31 1e-3 0.019 8e-3 0.039 9e-3 0.058 3.107 1.123 6.493 1.636 10.012 1.361 0.636-0.05 1.261-0.132 1.881-0.229 0.023-0.049 0.044-0.1 0.075-0.147 0.128-0.199 0.243-0.374 0.324-0.547 0.047-0.565-0.296-0.93-0.203-1.429 0.103-0.56 0.835-0.954 1.348-1.243 0.176-0.099 0.352-0.252 0.497-0.315 0.358-0.157 0.822-0.124 1.149-0.273 0.556-0.254 0.568-0.872 0.809-1.416 0.114-0.257 0.271-0.518 0.283-0.696 0.01-0.16-0.082-0.303-0.071-0.491 0.013-0.187 0.166-0.359 0.201-0.566 0.047-0.27 0.045-0.66 0.022-0.955-0.019-0.242-0.149-0.445-0.176-0.662-0.102-0.79 0.217-0.904 0.477-1.358 0.13-0.226 0.166-0.474 0.256-0.636 0.435-0.773 1.261-1.194 1.113-2.299-0.049-0.366-0.345-1.178-0.624-1.274-0.16-0.055-0.51 0.036-0.74-0.034-0.743-0.213-1.237-1.074-1.99-1.073-0.161-7e-3 -0.301 0.089-0.481 0.101-0.298 3e-3 -0.759-0.15-1.09-0.161-0.21-6e-3 -0.482 0.1-0.612 0.048-0.198-0.078-0.245-0.428-0.408-0.52-0.13-0.076-0.372-0.086-0.564-0.144-0.31-0.092-0.559-0.208-0.908-0.205-0.107 5e-3 -0.236 0.07-0.363 0.061-0.194-0.017-0.364-0.233-0.55-0.327-0.232-0.117-0.442-0.167-0.549-0.352 0.149-0.674-0.42-0.814-0.585-1.184-0.078-0.173-0.065-0.389-0.133-0.544-0.098-0.221-0.333-0.335-0.595-0.506-0.469-0.306-0.886-0.594-1.524-0.623-0.28-0.013-0.546 0.127-0.883 0.132-0.358 6e-3 -0.829-0.27-1.118-0.554-0.282-0.276-0.429-0.533-0.665-0.657-0.224-0.12-0.507-0.094-0.664-0.222-0.069-0.055-0.066-0.16-0.147-0.297-0.125-0.214-0.315-0.324-0.202-0.6-0.253-0.106-0.232 0.252-0.502 0.226-0.263-0.318-0.476-0.462-1.008-0.321-0.243 0.065-0.357 0.387-0.644 0.418-0.234 0.038-0.442-0.23-0.757-0.25-0.238-0.014-0.498 0.103-0.667 0.085-0.265-0.032-0.363-0.243-0.613-0.381-0.184-0.101-0.538-0.27-0.636-0.259-0.306 0.044-0.475 0.694-0.916 0.503-0.226-0.245 0.304-0.425 0.04-0.65-0.199-0.17-0.334 0.111-0.474 0.225-0.16 0.13-0.31 0.259-0.492 0.343-0.408 0.19-0.677 0.128-0.991 0.323-0.292 0.181-0.284 0.445-0.432 0.771-0.12 0.267-0.411 0.665-0.622 0.697-0.254 0.04-0.528-0.319-0.768-0.401-0.724-0.248-1.018 0.351-1.598 0.404-0.538 0.062-1.378-0.768-1.39-1.277-0.021-0.31 0.117-0.793 0.123-1.178 9e-3 -0.307 0.203-0.507 0.185-0.785-0.026-0.371-0.544-0.618-0.788-0.643-0.579-0.06-1.346 0.336-2.02 0.125-0.141-0.197 0.119-0.361 0.173-0.568 0.031-0.118-4e-3 -0.269 0.027-0.398 0.058-0.2 0.25-0.367 0.325-0.58 0.056-0.163 0.055-0.391 0.108-0.591 0.062-0.229 0.199-0.384 0.204-0.541 6e-3 -0.207-0.09-0.439-0.262-0.562zm8.673 5.827c0.209 4e-3 0.268 0.429 0.059 0.48-0.226 0.054-0.373-0.331-0.16-0.451 0.036-0.022 0.072-0.026 0.101-0.026v-3e-3z" style="fill-rule:nonzero;fill:url(#_Linear2)"/>
 <path d="m28.794 16.184c1.763 0 6 0.965 6 5v11h-6v-10h-10v10h-6v-16h16zm-3 9v5h-4v-5h4z" style="fill-rule:nonzero;fill:#fff"/>
 <defs>
  <linearGradient id="_Linear1" x2="1" gradientTransform="matrix(-.451969 -47.3211 47.3211 -.451969 24.2286 47.7206)" gradientUnits="userSpaceOnUse">
   <stop style="stop-color:#197dec" offset="0"/>
   <stop style="stop-color:#3fcffb" offset="1"/>
  </linearGradient>
  <linearGradient id="_Linear2" x2="1" gradientTransform="matrix(-3.91568,-50.043,50.043,-3.91568,26.088,49.127)" gradientUnits="userSpaceOnUse">
   <stop style="stop-color:#0164c2" offset="0"/>
   <stop style="stop-color:#00a9f3" offset="1"/>
  </linearGradient>
 </defs>
</svg>
