<svg clip-rule="evenodd" fill-rule="evenodd" stroke-linejoin="round" stroke-miterlimit="2" viewBox="0 0 48 48" xmlns="http://www.w3.org/2000/svg">
 <linearGradient id="a" x2="1" gradientTransform="matrix(0 -43.3373 43.3373 0 201.9 45.6687)" gradientUnits="userSpaceOnUse">
  <stop stop-color="#87000b" offset="0"/>
  <stop stop-color="#be212e" offset="1"/>
 </linearGradient>
 <path d="m45.668 8.56c0-3.438-2.79-6.228-6.228-6.228h-30.88c-3.438 0-6.228 2.79-6.228 6.228v30.88c0 3.438 2.79 6.228 6.228 6.228h30.88c3.438 0 6.228-2.79 6.228-6.228z" fill="url(#a)"/>
 <path transform="scale(.75)" d="m20.697 18.005c-1.742.055-3.424.859-4.712 2.078-1.309 1.238-2.247 2.94-2.438 4.77-.095.914-.002 1.85.29 2.717.292.868.785 1.668 1.441 2.286.773.728 1.741 1.188 2.629 1.758.444.284.87.602 1.238.988.368.384.675.842.844 1.356.15.456.184.948.118 1.424-.068.478-.238.94-.485 1.348-.496.816-1.295 1.41-2.172 1.728-1.017.368-2.137.386-3.117.85-.776.368-1.429 1.008-1.836 1.786s-.568 1.894-.469 2.774c.116 1.034.595 2.016 1.309 2.746.713.73 1.658 1.206 2.648 1.364 1.452.23 3.504-.252 4.558-1.314.528-.53.928-1.194 1.154-1.922.224-.726.27-1.712.124-2.46-.112-.572-.328-1.114-.53-1.658-.204-.542-.398-1.098-.446-1.678-.086-1.026-.21-2.068.446-2.84.654-.772 1.572-1.78 2.538-2.004.624-.146 1.271-.18 1.901-.066.63.112 1.24.37 1.75.768.51.4.918 1.442 1.144 2.064.228.62.268 1.32.086 1.956-.184.652-1.08 1.214-1.484 1.75-.402.536-.826 1.074-1.066 1.708-.264.698-.29 1.484-.11 2.21.182.726.562 1.39 1.064 1.93.554.598 1.756 1.044 2.518 1.288.764.246 1.542.29 2.34.29s1.632-.044 2.396-.29c.762-.244 1.964-.69 2.518-1.288.502-.54.882-1.204 1.064-1.93.18-.726.154-1.512-.11-2.21-.24-.634-.664-1.172-1.066-1.708-.404-.536-1.3-1.098-1.484-1.75-.182-.636-.142-1.336.086-1.956.226-.622.634-1.664 1.144-2.064.51-.398 1.12-.656 1.75-.768.63-.114 1.278-.08 1.902.066.966.224 1.884 1.232 2.538 2.004.656.772.532 1.814.446 2.84-.048.58-.242 1.136-.446 1.678-.202.544-.418 1.086-.53 1.658-.146.748-.1 1.734.124 2.46.226.728.626 1.392 1.154 1.922 1.054 1.062 3.106 1.544 4.558 1.314.99-.158 1.934-.634 2.648-1.364s1.192-1.712 1.308-2.746c.1-.88-.062-1.996-.468-2.774-.408-.778-1.06-1.418-1.836-1.786-.98-.464-2.1-.482-3.118-.85-.876-.318-1.676-.912-2.172-1.728-.246-.408-.416-.87-.484-1.348-.066-.476-.032-.968.118-1.424.168-.514.476-.972.844-1.356.368-.386.794-.704 1.238-.988.888-.57 1.856-1.03 2.628-1.758.656-.618 1.15-1.418 1.442-2.286.292-.867.384-1.803.29-2.717-.19-1.83-1.13-3.532-2.438-4.77-1.288-1.219-2.97-2.023-4.712-2.078-.87-.028-1.744.128-2.546.48s-1.532.9-2.086 1.598c-.636.8-1.036 1.77-1.402 2.734-.366.966-.712 1.954-1.266 2.816-.914 1.424-2.358 2.367-4.004 2.367s-3.09-.943-4.004-2.367c-.554-.862-.9-1.85-1.266-2.816-.366-.964-.766-1.934-1.402-2.734-.553-.698-1.283-1.246-2.085-1.598s-1.676-.508-2.546-.48zm11.303 11.995c1.105 0 2 .896 2 2 0 1.105-.895 2-2 2-1.104 0-2-.895-2-2 0-1.104.896-2 2-2z" fill="#fff" fill-rule="nonzero"/>
</svg>
