<svg clip-rule="evenodd" fill-rule="evenodd" stroke-linejoin="round" stroke-miterlimit="2" viewBox="0 0 48 48" xmlns="http://www.w3.org/2000/svg">
 <linearGradient id="a" x2="1" gradientTransform="matrix(0 -33.6872 33.6872 0 923.28 40.4502)" gradientUnits="userSpaceOnUse">
  <stop stop-color="#d0d0d0" offset="0"/>
  <stop stop-color="#f6f6f6" offset="1"/>
 </linearGradient>
 <path d="m39.44 45.668h-30.88c-3.438 0-6.228-2.79-6.228-6.228v-30.88c0-3.438 2.79-6.228 6.228-6.228h30.88c3.438 0 6.228 2.79 6.228 6.228v30.88c0 3.438-2.79 6.228-6.228 6.228z" fill="url(#a)"/>
 <path d="m10.426 19.402s5.345-5.402 13.574-5.402 13.574 5.402 13.574 5.402c.774.787 2.041.798 2.828.024s.798-2.042.024-2.829c0 0-6.456-6.597-16.426-6.597s-16.426 6.597-16.426 6.597c-.774.787-.763 2.055.024 2.829s2.054.763 2.828-.024z" fill="#3d7dff"/>
 <path d="m7.574 31.402s6.456 6.598 16.426 6.598 16.426-6.598 16.426-6.598c.774-.787.763-2.054-.024-2.828s-2.054-.763-2.828.024c0 0-5.345 5.402-13.574 5.402s-13.574-5.402-13.574-5.402c-.774-.787-2.041-.798-2.828-.024s-.798 2.041-.024 2.828zm16.426-15.402c4.415 0 8 3.585 8 8s-3.585 8-8 8-8-3.585-8-8 3.585-8 8-8z" fill="#6c6c6c"/>
 <path d="m25.803 18h-.031c-.972 0-1.772.788-1.772 1.746 0 .46.185.902.514 1.229l2.426 2.479c.335.348.801.546 1.288.546.972 0 1.772-.788 1.772-1.746 0-.458-.183-.898-.509-1.224l-2.426-2.479c-.328-.344-.783-.543-1.262-.551z" fill="#fff" fill-rule="nonzero"/>
</svg>
