<svg style="clip-rule:evenodd;fill-rule:evenodd;stroke-linejoin:round;stroke-miterlimit:2" version="1.1" viewBox="0 0 48 48" xmlns="http://www.w3.org/2000/svg">
 <path d="m39.44 45.668h-30.88c-3.438 0-6.228-2.79-6.228-6.228v-30.88c0-3.438 2.79-6.228 6.228-6.228h30.88c3.438 0 6.228 2.79 6.228 6.228v30.88c0 3.438-2.79 6.228-6.228 6.228z" style="fill:url(#_Linear1)"/>
 <g transform="matrix(.956824 0 0 .956824 1.03623 1.03623)">
  <path d="m24 33.199 12.765-17.552c1.019-1.401 2.824-1.987 4.472-1.451s2.763 2.071 2.763 3.804v22c0 2.208-1.792 4-4 4s-4-1.792-4-4v-9.699l-8.765 12.052c-0.753 1.035-1.955 1.647-3.235 1.647s-2.482-0.612-3.235-1.647l-8.765-12.052v9.699c0 2.208-1.792 4-4 4s-4-1.792-4-4v-22c0-1.733 1.115-3.268 2.763-3.804s3.453 0.05 4.472 1.451l12.765 17.552z" style="fill:url(#_Linear2)"/>
 </g>
 <g transform="matrix(.956824 0 0 .956824 1.03623 1.03623)">
  <path d="m8 12h32c2.208 0 4-1.792 4-4s-1.792-4-4-4h-32c-2.208 0-4 1.792-4 4s1.792 4 4 4z" style="fill:rgb(41,100,219)"/>
 </g>
 <defs>
  <linearGradient id="_Linear1" x2="1" gradientTransform="matrix(2.06275e-15,-33.6872,33.6872,2.06275e-15,923.28,40.4502)" gradientUnits="userSpaceOnUse">
   <stop style="stop-color:rgb(208,208,208)" offset="0"/>
   <stop style="stop-color:rgb(246,246,246)" offset="1"/>
  </linearGradient>
  <linearGradient id="_Linear2" x2="1" gradientTransform="matrix(1.88164e-15,-30.7295,30.7295,1.88164e-15,24,44.0695)" gradientUnits="userSpaceOnUse">
   <stop style="stop-color:rgb(49,49,49)" offset="0"/>
   <stop style="stop-color:rgb(79,79,79)" offset="1"/>
  </linearGradient>
 </defs>
</svg>
