<!DOCTYPE svg  PUBLIC '-//W3C//DTD SVG 1.1//EN'  'http://www.w3.org/Graphics/SVG/1.1/DTD/svg11.dtd'>
<svg style="clip-rule:evenodd;fill-rule:evenodd;stroke-linejoin:round;stroke-miterlimit:1.41421" version="1.1" viewBox="0 0 24 24" xmlns="http://www.w3.org/2000/svg">
 <g transform="matrix(1.17425,0,0,1.17425,-2.09097,-2.09097)">
  <path d="m12 2c-5.486 0-10 4.514-10 10s4.514 10 10 10 10-4.514 10-10-4.514-10-10-10z" style="fill-rule:nonzero;fill:rgb(255,124,64)"/>
 </g>
 <g transform="matrix(1.17425,0,0,1.17425,-2.09097,-2.09097)">
  <path d="m12 2c-5.486 0-10 4.514-10 10 3e-3 0.07 6e-3 0.139 0.011 0.209 0.156-5.371 4.615-9.705 9.989-9.709 5.404 4e-3 9.876 4.388 9.989 9.791 5e-3 -0.097 9e-3 -0.194 0.011-0.291 0-5.486-4.514-10-10-10z" style="fill-opacity:.2;fill-rule:nonzero;fill:white"/>
 </g>
 <path d="m14.525 6.502c-2.468 0-4.5 0.677-4.5 1.5s2.032 1.5 4.5 1.5c2.469 0 4.5-0.677 4.5-1.5s-2.031-1.5-4.5-1.5zm4.237 3c-0.633 0.597-2.336 0.999-4.237 1-1.899-1e-3 -3.601-0.402-4.236-0.998-0.172 0.16-0.261 0.328-0.264 0.498v1e-3c0 0.822 2.032 1.499 4.5 1.499 2.469 0 4.5-0.677 4.5-1.499v-1e-3c-2e-3 -0.17-0.091-0.34-0.263-0.5zm0 2c-0.633 0.597-2.336 0.999-4.237 1-0.275 0-0.551-9e-3 -0.822-0.025 0.183 0.163 0.297 0.338 0.297 0.523v0.49c0.174 8e-3 0.35 0.011 0.525 0.012 2.469 0 4.5-0.677 4.5-1.499v-1e-3c-2e-3 -0.17-0.091-0.34-0.263-0.5zm-8.473 2e-3c-7e-3 8e-3 -0.014 0.016-0.021 0.023 0.016 1e-3 0.033-1e-3 0.048 0-9e-3 -7e-3 -0.018-0.015-0.027-0.023zm8.473 1.996c-0.633 0.597-2.336 0.999-4.237 1-0.175 0-0.351-4e-3 -0.525-0.012v1c0.174 8e-3 0.35 0.012 0.525 0.012 2.469 0 4.5-0.677 4.5-1.499v-1e-3c-2e-3 -0.17-0.091-0.34-0.263-0.5zm0 2c-0.633 0.597-2.336 0.999-4.237 1-0.175 0-0.351-4e-3 -0.525-0.012v0.512c0 0.168-0.101 0.328-0.254 0.479 0.257 0.014 0.518 0.021 0.779 0.021 2.469 0 4.5-0.677 4.5-1.499v-1e-3c-2e-3 -0.17-0.091-0.34-0.263-0.5z" style="fill-opacity:.2;fill-rule:nonzero"/>
 <path d="m14.525 6.002c-2.468 0-4.5 0.677-4.5 1.5s2.032 1.5 4.5 1.5c2.469 0 4.5-0.677 4.5-1.5s-2.031-1.5-4.5-1.5zm4.237 3c-0.633 0.597-2.336 0.999-4.237 1-1.899-1e-3 -3.601-0.402-4.236-0.998-0.172 0.16-0.261 0.328-0.264 0.498v1e-3c0 0.822 2.032 1.499 4.5 1.499 2.469 0 4.5-0.677 4.5-1.499v-1e-3c-2e-3 -0.17-0.091-0.34-0.263-0.5zm0 2c-0.633 0.597-2.336 0.999-4.237 1-0.275 0-0.551-9e-3 -0.822-0.025 0.183 0.163 0.297 0.338 0.297 0.523v0.49c0.174 8e-3 0.35 0.011 0.525 0.012 2.469 0 4.5-0.677 4.5-1.499v-1e-3c-2e-3 -0.17-0.091-0.34-0.263-0.5zm-8.473 2e-3c-7e-3 8e-3 -0.014 0.016-0.021 0.023 0.016 1e-3 0.033-1e-3 0.048 0-9e-3 -7e-3 -0.018-0.015-0.027-0.023zm8.473 1.996c-0.633 0.597-2.336 0.999-4.237 1-0.175 0-0.351-4e-3 -0.525-0.012v1c0.174 8e-3 0.35 0.012 0.525 0.012 2.469 0 4.5-0.677 4.5-1.499v-1e-3c-2e-3 -0.17-0.091-0.34-0.263-0.5zm0 2c-0.633 0.597-2.336 0.999-4.237 1-0.175 0-0.351-4e-3 -0.525-0.012v0.512c0 0.168-0.101 0.328-0.254 0.479 0.257 0.014 0.518 0.021 0.779 0.021 2.469 0 4.5-0.677 4.5-1.499v-1e-3c-2e-3 -0.17-0.091-0.34-0.263-0.5z" style="fill-rule:nonzero;fill:rgb(255,216,198)"/>
 <path d="m9.5 11.5c-2.469 0-4.5 0.677-4.5 1.5s2.031 1.5 4.5 1.5 4.5-0.677 4.5-1.5-2.031-1.5-4.5-1.5zm4.238 3c-0.633 0.597-2.337 0.999-4.238 1-1.899-1e-3 -3.601-0.402-4.236-0.998-0.172 0.16-0.261 0.328-0.264 0.498v1e-3c0 0.822 2.031 1.499 4.5 1.499s4.5-0.677 4.5-1.499v-1e-3c-1e-3 -0.17-0.09-0.34-0.262-0.5zm0 2c-0.633 0.597-2.337 0.999-4.238 1-1.899-1e-3 -3.601-0.402-4.236-0.998-0.172 0.16-0.261 0.328-0.264 0.498v1e-3c0 0.822 2.031 1.499 4.5 1.499s4.5-0.677 4.5-1.499v-1e-3c-1e-3 -0.17-0.09-0.34-0.262-0.5z" style="fill-opacity:.2;fill-rule:nonzero"/>
 <path d="m9.5 11c-2.469 0-4.5 0.677-4.5 1.5s2.031 1.5 4.5 1.5 4.5-0.677 4.5-1.5-2.031-1.5-4.5-1.5zm4.238 3c-0.633 0.597-2.337 0.999-4.238 1-1.899-1e-3 -3.601-0.402-4.236-0.998-0.172 0.16-0.261 0.328-0.264 0.498v1e-3c0 0.822 2.031 1.499 4.5 1.499s4.5-0.677 4.5-1.499v-1e-3c-1e-3 -0.17-0.09-0.34-0.262-0.5zm0 2c-0.633 0.597-2.337 0.999-4.238 1-1.899-1e-3 -3.601-0.402-4.236-0.998-0.172 0.16-0.261 0.328-0.264 0.498v1e-3c0 0.822 2.031 1.499 4.5 1.499s4.5-0.677 4.5-1.499v-1e-3c-1e-3 -0.17-0.09-0.34-0.262-0.5z" style="fill-rule:nonzero;fill:white"/>
</svg>
