<svg style="clip-rule:evenodd;fill-rule:evenodd;stroke-linejoin:round;stroke-miterlimit:2" version="1.1" viewBox="0 0 48 48" xmlns="http://www.w3.org/2000/svg">
 <path d="m25.53 34.538c-0.155-0.354-2.289-0.913-2.547 0.06-0.093 0.413-0.534 4.762 0.177 5.638 0.279 0.54 0.371 1.139 0.433 1.732 0.127 0.693 0.16 1.4 0.214 2.099 0.045 0.35-0.139 0.793 0.17 1.056 0.353 0.117 0.705 0.243 1.051 0.377-0.045-0.675-0.113-1.35-0.094-2.028-0.028-0.64 0.078-1.275 0.127-1.913 0.033-0.309 0.033-0.623 0.157-0.915 0.094-0.275 0.285-0.51 0.419-0.769 0.576-0.778 0.07-5.171-0.107-5.337z" style="fill-rule:nonzero;fill:#454545"/>
 <path d="m24 2.961v32.249c0.103 1.449 0.32 3.012 1.13 4.267 0.723 0.933 1.559-0.616 2.216-0.996 3.082-2.737 5.202-6.41 6.124-10.345 0.93-3.943 0.624-8.152-0.827-11.946-1.335-3.948-3.748-7.511-6.845-10.378-0.823-0.804-1.251-1.873-1.798-2.851z" style="fill-rule:nonzero;fill:url(#_Linear1)"/>
 <path d="m24 2.596c-0.121 1.51-1.763 2.377-2.686 3.451-1.513 1.515-3.01 3.106-3.957 5.021-0.663 1.112-1.262 2.251-1.646 3.485-1.209 2.85-1.686 5.967-1.711 9.037 0.03 6.27 3.51 12.166 8.461 16.076 0.76 1.12 0.874 0.028 1.055-0.65 0.25-1.101 0.374-2.221 0.484-3.342v-33.078z" style="fill-rule:nonzero;fill:url(#_Linear2)"/>
 <defs>
  <linearGradient id="_Linear1" x2="1" gradientTransform="matrix(-1.04791,-36.3844,36.3844,-1.04791,25.0479,39.345)" gradientUnits="userSpaceOnUse">
   <stop style="stop-color:#007843" offset="0"/>
   <stop style="stop-color:#12935a" offset="1"/>
  </linearGradient>
  <linearGradient id="_Linear2" x2="1" gradientTransform="matrix(.251257 -35.1208 35.1208 .251257 22.5355 39.7716)" gradientUnits="userSpaceOnUse">
   <stop style="stop-color:#00913c" offset="0"/>
   <stop style="stop-color:#10aa50" offset="1"/>
  </linearGradient>
 </defs>
</svg>
