<svg clip-rule="evenodd" fill-rule="evenodd" stroke-linejoin="round" stroke-miterlimit="2" viewBox="0 0 48 48" xmlns="http://www.w3.org/2000/svg">
 <linearGradient id="a" x2="1" gradientTransform="matrix(0 -34.8771 34.8771 0 26.1246 41.7102)" gradientUnits="userSpaceOnUse">
  <stop stop-color="#273563" offset="0"/>
  <stop stop-color="#4a5579" offset="1"/>
 </linearGradient>
 <linearGradient id="b" x2="1" gradientTransform="matrix(0 -24 24 0 30.22 36)" gradientUnits="userSpaceOnUse">
  <stop stop-color="#4696e2" offset="0"/>
  <stop stop-color="#00beff" offset="1"/>
 </linearGradient>
 <g transform="matrix(1.09623 0 0 1.09623 -2.30949 -2.30949)" fill-rule="nonzero">
  <path d="m36.344 8.003c-1.81.179-3.429 1.111-5.155 1.832-1.264.53-1.959 1.814-2.189 3.165-.696-.767-1.652-1.617-2.461-2.194-2.727-1.945-5.949-2.998-9.26-2.777-7.465.005-13.161 8.828-13.279 14.696.051 6.9 2.324 11.23 3.842 14.829.861 2.04 3.216 2.993 5.254 2.125l3.378-1.44c1.534-.654 2.6-2.573 2.526-4.239.566.662.956 1.755 1.642 2.339 2.503 2.132 5.821 3.66 9.579 3.66 3.466 0 6.677-1.549 9.271-4.06s4.539-6.223 4.508-10.568c-.053-7.074-2.307-11.809-4.074-15.211-.694-1.335-2.078-2.169-3.582-2.157z" fill="url(#a)"/>
  <path d="m17.542 12.019c-4.328.287-9.589 4.253-9.542 10.676.045 6.097 1.908 9.465 3.527 13.305l3.38-1.44c-1.93-2.905-4.805-8.792-4.639-12.68.11-2.561 1.014-4.356 2.583-5.802 3.783-3.485 8.998-2.666 12.062 1.051 1.74 2.191 2.039 5.41.443 7.76-2.708 3.989-8.857 2.049-9.28-2.571-.201-2.195 1.933-3.885 3.893-3.904-2.011-1.153-5.121.974-4.952 3.582.496 7.687 8.963 7.837 11.574 3.454 4.661-7.825-3.253-13.818-9.045-13.432z" fill="#f9f9f9"/>
  <path d="m36.378 12-3.646 1.526c2.196 4.22 4.745 7.455 4.749 12.666.002 1.914-.765 4.082-2.582 5.695-1.652 1.464-3.806 2.33-6.374 1.973-2.686-.373-4.533-1.603-5.686-3.004-1.811-2.388-2.111-5.438-.649-7.672.834-1.273 2.687-2.355 4.522-2.197 3.236.278 5.048 2.071 5.02 4.782-.028 2.759-1.984 3.818-4.178 3.629 2.053.906 5.153-.279 5.141-3.318-.016-4.096-2.778-6.068-5.759-6.084-3.079-.018-4.782 1.128-5.769 2.681-.988 1.553-1.254 3.601-1.144 5.274.113 1.699 1.345 3.754 3.211 5.342 1.863 1.588 4.366 2.707 6.986 2.707 4.22 0 9.825-4.292 9.78-10.6-.047-6.309-1.886-10.054-3.623-13.397z" fill="url(#b)"/>
  <path d="m26.125 19.481c.217.746.309 1.525.265 2.295l1.474.435c.182-.968.175-1.892.015-2.759z" fill="#f9f9f9"/>
 </g>
</svg>
