
<svg style="clip-rule:evenodd;fill-rule:evenodd;stroke-linejoin:round;stroke-miterlimit:1.41421" version="1.1" viewBox="0 0 48 48" xmlns="http://www.w3.org/2000/svg">
 <path d="m33.555 4.97c-0.236-1.236-1.43-2.039-2.663-1.792l-24.216 4.834c-1.234 0.246-2.043 1.449-1.807 2.685l6.066 31.729c0.237 1.236 1.43 2.039 2.664 1.793l24.215-4.834c1.234-0.247 2.044-1.45 1.808-2.685l-6.067-31.73z" style="fill:url(#_Linear1)"/>
 <path d="m42.269 7.576c-0.022-1.457-1.222-2.637-2.679-2.633l-27.297 0.065c-1.457 4e-3 -2.622 1.19-2.601 2.647l0.512 34.289c0.021 1.457 1.222 2.637 2.679 2.634l27.297-0.066c1.457-3e-3 2.622-1.189 2.601-2.646l-0.512-34.29z" style="fill:url(#_Linear2)"/>
 <path d="m27.491 32.984c-0.319 0.326-0.722 0.488-1.209 0.488s-0.898-0.162-1.234-0.488c-0.319-0.325-0.479-0.715-0.479-1.17 0-0.456 0.16-0.846 0.479-1.171 0.336-0.325 0.747-0.488 1.234-0.488s0.89 0.163 1.209 0.488c0.336 0.325 0.504 0.715 0.504 1.171 0 0.455-0.168 0.845-0.504 1.17zm-0.025-5.073h-2.368v-1.146c0-0.732 0.16-1.358 0.479-1.878 0.319-0.537 0.882-1.163 1.688-1.878 0.453-0.407 0.772-0.707 0.957-0.903 0.201-0.211 0.395-0.496 0.579-0.853 0.202-0.374 0.303-0.756 0.303-1.147 0-0.748-0.252-1.349-0.756-1.804-0.487-0.456-1.167-0.683-2.04-0.683-1.445 0-2.435 0.78-2.973 2.341l-2.166-0.878c0.353-0.927 0.957-1.756 1.814-2.488 0.873-0.748 1.981-1.122 3.325-1.122 1.528 0 2.77 0.439 3.728 1.317 0.957 0.862 1.435 1.968 1.435 3.317 0 0.586-0.159 1.179-0.478 1.781-0.319 0.601-0.605 1.032-0.857 1.293-0.235 0.243-0.571 0.561-1.007 0.951-0.051 0.048-0.092 0.089-0.126 0.122-1.024 0.894-1.537 1.788-1.537 2.683v0.975z" style="fill-rule:nonzero;fill:#0c8af7"/>
 <defs>
  <linearGradient id="_Linear1" x2="1" gradientTransform="matrix(-25.5614,34.4096,-34.4096,-25.5614,-72.743,-74.3678)" gradientUnits="userSpaceOnUse">
   <stop style="stop-color:#04b5fc" offset="0"/>
   <stop style="stop-color:#1460f3" offset="1"/>
  </linearGradient>
  <linearGradient id="_Linear2" x2="1" gradientTransform="matrix(-.751807 37.4747 -37.4747 -.751807 -157.102 2.24046)" gradientUnits="userSpaceOnUse">
   <stop style="stop-color:#f3f9fe" offset="0"/>
   <stop style="stop-color:#e8f1f5" offset="1"/>
  </linearGradient>
 </defs>
</svg>
