<svg style="clip-rule:evenodd;fill-rule:evenodd;stroke-linejoin:round;stroke-miterlimit:2" version="1.1" viewBox="0 0 48 48" xmlns="http://www.w3.org/2000/svg">
 <g transform="matrix(1.03473 0 0 1.03473 -.833455 -.850818)">
  <circle cx="36.5" cy="32.5" r="9.5" style="fill:url(#_Linear1)"/>
 </g>
 <g transform="matrix(1.03473 0 0 1.03473 -.833455 -.850818)">
  <path d="M40,22.362C40,12.228 31.772,4 21.638,4L20.362,4C10.228,4 2,12.228 2,22.362L2,23.638C2,33.772 10.228,42 20.362,42L21.638,42C31.772,42 40,33.772 40,23.638L40,22.362Z" style="fill:url(#_Linear2)"/>
 </g>
 <path d="m16.849 12.6c0.063-1.719 0.145-3.197 0.214-4.269l4.13 0.263c-0.063 0.987-0.139 2.331-0.198 3.893 3.951-0.195 7.889-0.628 11.71-1.236l0.65 4.088c-4.063 0.646-8.254 1.101-12.457 1.295-6e-3 0.859-3e-3 1.74 0.012 2.631 1.895-0.385 4.015-0.609 6-0.444 0.829-1.261 1.311-2.096 1.311-2.096l3.582 2.074s-0.25 0.428-0.701 1.139c1.034 0.526 1.939 1.244 2.658 2.178 0.957 1.243 1.609 2.886 1.724 5.061 0.166 3.168-2.042 5.576-5.027 7.125-3.633 1.885-8.263 2.514-8.263 2.514l-0.55-4.102s3.872-0.511 6.906-2.086c1.465-0.759 2.882-1.68 2.8-3.234-0.061-1.174-0.353-2.082-0.869-2.753-0.448-0.581-1.045-0.971-1.726-1.233-1.717 2.378-4.01 5.226-6.486 7.39 0.151 0.45 0.32 0.863 0.507 1.233l-3.694 1.867c-0.105-0.207-0.205-0.425-0.302-0.653-2.615 1.354-5.267 1.616-7.644 0.275-1.508-0.851-2.253-1.962-2.533-3.117-0.375-1.549 0.148-3.372 1.491-5.079 1.537-1.954 4.161-3.822 6.704-4.865-0.035-1.258-0.045-2.511-0.038-3.72-2.117 7e-3 -4.226-0.057-6.314-0.202l0.288-4.129c2.022 0.141 4.066 0.202 6.115 0.192zm0.199 12.312c-1.449 0.783-2.82 1.851-3.701 2.971-0.432 0.55-0.842 1.046-0.721 1.545 0.051 0.21 0.27 0.333 0.544 0.488 0.918 0.518 1.915 0.409 2.921 0.018 0.511-0.198 1.021-0.466 1.529-0.786-0.25-1.318-0.439-2.75-0.572-4.236zm4.264 1.087c0.933-0.971 1.815-2.009 2.617-3.026-0.985 0.095-1.954 0.27-2.845 0.481 0.06 0.868 0.134 1.722 0.228 2.545z" style="fill:rgb(228,228,228)"/>
 <g transform="matrix(1.03473 0 0 1.03473 -.833455 -.850818)">
  <circle cx="33" cy="40" r="5" style="fill:rgb(228,228,228)"/>
 </g>
 <defs>
  <linearGradient id="_Linear1" x2="1" gradientTransform="matrix(-5.28419e-7 -18.9757 18.9757 -5.28419e-7 36.5 42)" gradientUnits="userSpaceOnUse">
   <stop style="stop-color:rgb(252,189,30)" offset="0"/>
   <stop style="stop-color:rgb(255,205,80)" offset="1"/>
  </linearGradient>
  <linearGradient id="_Linear2" x2="1" gradientTransform="matrix(2.32683e-15,-38,38,2.32683e-15,21,42)" gradientUnits="userSpaceOnUse">
   <stop style="stop-color:rgb(223,75,0)" offset="0"/>
   <stop style="stop-color:rgb(255,112,0)" offset="1"/>
  </linearGradient>
 </defs>
</svg>
