<svg style="clip-rule:evenodd;fill-rule:evenodd;stroke-linejoin:round;stroke-miterlimit:2" version="1.1" viewBox="0 0 48 48" xmlns="http://www.w3.org/2000/svg">
 <path d="m26 4c-10.96 0.032-19.968 9.04-20 20l25.339 5.339-5.339-25.339z" style="fill-rule:nonzero;fill:#ed6c47"/>
 <path d="m26 4c10.96 0.032 19.968 9.04 20 20l-10 6.797-10-6.797v-20z" style="fill-rule:nonzero;fill:#ff8f6b"/>
 <path d="m26 44c10.96-0.032 19.968-9.04 20-20h-40c0.032 10.96 9.04 19.968 20 20z" style="fill-rule:nonzero;fill:#d35230"/>
 <path d="m3.833 13h18.334c1.005 0 1.833 0.828 1.833 1.833v18.334c0 1.005-0.828 1.833-1.833 1.833h-18.334c-1.005 0-1.833-0.828-1.833-1.833v-18.334c0-1.005 0.828-1.833 1.833-1.833z" style="fill-rule:nonzero;fill:#af3213"/>
 <path d="m8 17.014v13.986h3v-5h2.02c0.903 0.021 1.797-0.109 2.617-0.52 0.717-0.36 1.322-0.937 1.742-1.66 0.413-0.653 0.627-1.629 0.613-2.42 0.074-1.234-0.383-2.438-1.238-3.261-1.029-0.82-2.296-1.218-3.572-1.125h-5.182zm3 2.986h1.9c1.4 0 2.1 0.53 2.1 1.592 0.038 0.392-0.173 0.771-0.547 0.984-0.463 0.312-1.04 0.464-1.621 0.426h-1.832v-3.002z" style="fill-rule:nonzero;fill:#f9f7f7"/>
</svg>
