<svg style="clip-rule:evenodd;fill-rule:evenodd;stroke-linejoin:round;stroke-miterlimit:2" version="1.1" viewBox="0 0 48 48" xmlns="http://www.w3.org/2000/svg">
 <path d="m14 4c-1.108 0-2 0.892-2 2v8l17 6 17-6v-8c0-1.108-0.892-2-2-2h-30z" style="fill-rule:nonzero;fill:#41a5ee"/>
 <path d="m12 14h34v10l-17 4-17-4v-10z" style="fill-rule:nonzero;fill:#2b7cd3"/>
 <path d="m12 24h34v10l-17 4-17-4v-10z" style="fill-rule:nonzero;fill:#1650a7"/>
 <path d="m12 34v8c0 1.108 0.892 2 2 2h30c1.108 0 2-0.892 2-2v-8h-34z" style="fill-rule:nonzero;fill:#103f91"/>
 <path d="m12 24h34v1h-34v-1zm0 10h34v1h-34v-1zm0-20h34v1h-34v-1z" style="fill-opacity:.1;fill-rule:nonzero"/>
 <path d="m24 15c0-1.104-0.896-2-2-2h-18c-1.104 0-2 0.896-2 2v18c0 1.104 0.896 2 2 2h18c1.104 0 2-0.896 2-2v-18z" style="fill:#185abd"/>
 <path d="m18.53 31h-2.52l-2.94-9.66-3.08 9.66h-2.52l-2.8-14h2.52l1.96 9.8 2.94-9.8h2.1l2.8 9.8 1.96-9.8h2.38l-2.8 14z" style="fill-rule:nonzero;fill:#fff"/>
</svg>
