<svg width="48" height="48" xmlns="http://www.w3.org/2000/svg">
 <rect x="4" y="4" width="40" height="40" rx="2" fill="#c2352a"/>
 <path d="m6 4c-1.108 0-2 .892-2 2v1c0-1.108.892-2 2-2h36c1.108 0 2 .892 2 2v-1c0-1.108-.892-2-2-2z" fill="#fff" opacity=".2"/>
 <path d="m6 44c-1.108 0-2-.892-2-2v-1c0 1.108.892 2 2 2h36c1.108 0 2-.892 2-2v1c0 1.108-.892 2-2 2z" opacity=".2"/>
 <path d="m11 10c-1.108 0-2 .892-2 2v26c0 1.108.892 2 2 2h26c1.108 0 2-.892 2-2v-26c0-1.108-.892-2-2-2zm1 4h7l5 11 5-11h7v22h-5v-16l-5 12h-4l-5-12v16h-5z" opacity=".2"/>
 <path d="m11 9c-1.108 0-2 .892-2 2v26c0 1.108.892 2 2 2h26c1.108 0 2-.892 2-2v-26c0-1.108-.892-2-2-2zm1 4h7l5 11 5-11h7v22h-5v-16l-5 12h-4l-5-12v16h-5z" fill="#fff"/>
 <circle cx="36" cy="37" r="11" opacity=".2"/>
 <circle cx="36" cy="36" r="11" fill="#ffa822"/>
 <path d="m27 32v2h3v6h2v-6h3v-2zm9 0 2.8008 8h2.3984l2.801-8h-2l-2 6-2-6h-2z" fill="#fff"/>
</svg>
