<svg style="clip-rule:evenodd;fill-rule:evenodd;stroke-linejoin:round;stroke-miterlimit:2" version="1.1" viewBox="0 0 48 48" xmlns="http://www.w3.org/2000/svg">
 <circle cx="23.998" cy="24.16" r="22.571" style="fill:url(#_Linear1)"/>
 <path d="m13.937 28.41l-1.755 5.001h5.463l1.662-4.924-5.37-0.077zm20.112-2e-3l-5.526 0.081 1.65 4.924h5.644l-1.768-5.005zm-19.403-5.829c-1.364 0-2.463 1.097-2.463 2.461 0 1.365 1.099 2.463 2.463 2.463h18.711c1.364 0 2.461-1.098 2.461-2.463 0-1.364-1.097-2.461-2.461-2.461h-18.711zm-0.032 1.054h11.815c0.819 0 1.479 0.658 1.479 1.477 0 0.817-0.66 1.477-1.479 1.477h-11.815c-0.819 0-1.479-0.66-1.479-1.477 0-0.819 0.66-1.477 1.479-1.477zm6.878-13.857l-5.032 11.817h5.001l2.418-6.464 2.461 6.464h5.185l-5.018-11.817h-5.015z" style="fill-opacity:.85;fill-rule:nonzero;fill:#fff"/>
 <defs>
  <linearGradient id="_Linear1" x2="1" gradientTransform="matrix(2.81005e-15,-45.8916,45.8916,2.81005e-15,24.9491,46.9602)" gradientUnits="userSpaceOnUse">
   <stop style="stop-color:#004c9d" offset="0"/>
   <stop style="stop-color:#56c5fa" offset="1"/>
  </linearGradient>
 </defs>
</svg>
