<svg width="48" height="48" xmlns="http://www.w3.org/2000/svg">
 <rect x="4" y="4" width="40" height="40" rx="20" fill="#0277bd"/>
 <path d="m24 4c-11.079 0-19.998 8.92-19.998 20 0 .16772-.004.33329 0 .5.2642-10.846 9.087-19.5 19.998-19.5s19.734 8.6536 19.998 19.5c.004-.16671 0-.33228 0-.5 0-11.08-8.919-20-19.998-20z" fill="#fff" opacity=".2"/>
 <path d="m4.0117 24.5c-.0041.167-.0117.332-.0117.5 0 11.08 8.92 20 20 20s20-8.92 20-20c0-.168-.008-.333-.012-.5-.264 10.846-9.076 19.5-19.988 19.5s-19.724-8.654-19.988-19.5z" opacity=".2"/>
 <g transform="translate(-144 -237)" enable-background="new" opacity=".2">
  <path d="m160 250h4v24h-4z"/>
  <path d="m172 250h4v18h-4z"/>
  <path d="m160 258v2c0 4.3974 3.6026 8 8 8s8-3.6026 8-8v-2h-4v2c0 2.2506-1.7494 4-4 4s-4-1.7494-4-4v-2z"/>
 </g>
 <g transform="translate(-144 -238)" enable-background="new" fill="#fff">
  <path d="m160 250h4v24h-4z"/>
  <path d="m172 250h4v18h-4z"/>
  <path d="m160 258v2c0 4.3974 3.6026 8 8 8s8-3.6026 8-8v-2h-4v2c0 2.2506-1.7494 4-4 4s-4-1.7494-4-4v-2z"/>
 </g>
</svg>
