<svg clip-rule="evenodd" fill-rule="evenodd" stroke-linejoin="round" stroke-miterlimit="2" viewBox="0 0 48 48" xmlns="http://www.w3.org/2000/svg">
 <linearGradient id="a" x2="1" gradientTransform="matrix(0 -43.3373 43.3373 0 302.963 45.6687)" gradientUnits="userSpaceOnUse">
  <stop stop-color="#3b3b3b" offset="0"/>
  <stop stop-color="#4f4f4f" offset="1"/>
 </linearGradient>
 <path d="m45.668 8.56c0-3.438-2.79-6.228-6.228-6.228h-30.88c-3.438 0-6.228 2.79-6.228 6.228v30.88c0 3.438 2.79 6.228 6.228 6.228h30.88c3.438 0 6.228-2.79 6.228-6.228z" fill="url(#a)"/>
 <g fill-rule="nonzero">
  <path d="m21.319 22.88-2.083 2.364-1.607 1.556-1.789 1.194-2.151 1.127-2.492.92-1.561.363-.067.202.09.541.362.902.769 1.486.748 1.102 1.449 1.511.657.652.588.205 2.67-.025-1.583 1.081-.023.272.951.742 1.29.743c1.668.925 3.171-.903 3.171-.903s-.809 1.386-.759 1.874h1.585l.838-.135.951-.474-.318.495 1.723.022c1.819-.043 3.021-1.088 4.097-2.207l1.131-1.329.884-1.328.656-1.217 1.043-2.41.792-1.96.385-1.037h-.376l-2.862-.33c-2.299-.647-3.538-2.336-5.668-3.627l-1.766-1.082-1.403-.832-.203-.294-.041-.114z" fill="#e4e4e4"/>
  <path d="m34.172 8.09-1.665 3.122-1.439 3.185-1.762 3.474-1.217 2.857-1.353-.565-1.948-.836h-.476l-.407.113-.655.857-1.902 2.499.089.248.203.294 1.404.833 1.766 1.081c2.131 1.291 3.369 2.979 5.668 3.626l2.862.332h.481l.032-.126.416-2.549.341-2.061.034-.44-.249-.462-1.677-.766-.973-.416-.595-.381-.068-.029.08-.127.994-2.453.896-2.167 1.12-2.93.866-2.072.736-1.847.604-1.789c.362-1.337-1.228-2.06-2.206-.505z" fill="#2a8ec2"/>
 </g>
</svg>
