<svg style="clip-rule:evenodd;fill-rule:evenodd;stroke-linejoin:round;stroke-miterlimit:2" version="1.1" viewBox="0 0 48 48" xmlns="http://www.w3.org/2000/svg">
 <path d="m45.668 8.56c0-3.438-2.79-6.228-6.228-6.228h-30.88c-3.438 0-6.228 2.79-6.228 6.228v30.88c0 3.438 2.79 6.228 6.228 6.228h30.88c3.438 0 6.228-2.79 6.228-6.228v-30.88z" style="fill:url(#_Linear1)"/>
 <path d="m39.44 2.332c1.755 0 3.341 0.727 4.473 1.896l-39.685 39.685c-1.169-1.132-1.896-2.718-1.896-4.473v-30.88c0-3.438 2.79-6.228 6.228-6.228h30.88z" style="fill:url(#_Linear2)"/>
 <path d="m14.791 13.527s7.584-6.861 16.251-6.861c9.751 0 9.751 11.917 5.417 19.501l5.417 2.167-13.001 5.417-3.25-11.918 5.417 1.806c2.167-5.056 3.25-9.39 0-12.64-7.584-2.167-16.251 2.528-16.251 2.528z" style="fill-rule:nonzero;fill:#fff"/>
 <path d="m6.666 35.917c-0.601 0-1.084 0.484-1.084 1.084v4.333c0 0.601 0.483 1.084 1.084 1.084h4.333c0.6 0 1.084-0.483 1.084-1.084v-4.333c0-0.6-0.484-1.084-1.084-1.084h-4.333zm7.583 0c-0.6 0-1.083 0.484-1.083 1.084v4.333c0 0.601 0.483 1.084 1.083 1.084h4.334c0.6 0 1.083-0.483 1.083-1.084v-4.333c0-0.6-0.483-1.084-1.083-1.084h-4.334zm7.584 0c-0.6 0-1.083 0.484-1.083 1.084v4.333c0 0.601 0.483 1.084 1.083 1.084h4.334c0.6 0 1.083-0.483 1.083-1.084v-4.333c0-0.6-0.483-1.084-1.083-1.084h-4.334zm7.584 0c-0.6 0-1.083 0.484-1.083 1.084v4.333c0 0.601 0.483 1.084 1.083 1.084h4.334c0.6 0 1.083-0.483 1.083-1.084v-4.333c0-0.6-0.483-1.084-1.083-1.084h-4.334zm7.584 0c-0.6 0-1.084 0.484-1.084 1.084v4.333c0 0.601 0.484 1.084 1.084 1.084h4.333c0.601 0 1.084-0.483 1.084-1.084v-4.333c0-0.6-0.483-1.084-1.084-1.084h-4.333z" style="fill-rule:nonzero;fill:#fff"/>
 <path d="m6.666 5.582c-0.601 0-1.084 0.483-1.084 1.084v4.333c0 0.6 0.483 1.084 1.084 1.084h4.333c0.6 0 1.084-0.484 1.084-1.084v-4.333c0-0.601-0.484-1.084-1.084-1.084h-4.333zm0 7.584c-0.601 0-1.084 0.483-1.084 1.083v4.334c0 0.6 0.483 1.083 1.084 1.083h4.333c0.6 0 1.084-0.483 1.084-1.083v-4.334c0-0.6-0.484-1.083-1.084-1.083h-4.333zm0 7.584c-0.601 0-1.084 0.483-1.084 1.083v4.334c0 0.6 0.483 1.083 1.084 1.083h4.333c0.6 0 1.084-0.483 1.084-1.083v-4.334c0-0.6-0.484-1.083-1.084-1.083h-4.333zm0 7.584c-0.601 0-1.084 0.483-1.084 1.083v4.334c0 0.6 0.483 1.083 1.084 1.083h4.333c0.6 0 1.084-0.483 1.084-1.083v-4.334c0-0.6-0.484-1.083-1.084-1.083h-4.333zm0 7.583c-0.601 0-1.084 0.484-1.084 1.084v4.333c0 0.301 0.122 0.571 0.318 0.766l5.865-5.865c-0.196-0.196-0.466-0.318-0.766-0.318h-4.333z" style="fill-rule:nonzero;fill:#4f4f4f"/>
 <defs>
  <linearGradient id="_Linear1" x2="1" gradientTransform="matrix(2.65364e-15,-43.3373,43.3373,2.65364e-15,201.9,45.6687)" gradientUnits="userSpaceOnUse">
   <stop style="stop-color:#034284" offset="0"/>
   <stop style="stop-color:#13709d" offset="1"/>
  </linearGradient>
  <linearGradient id="_Linear2" x2="1" gradientTransform="matrix(2.65364e-15,-43.3373,43.3373,2.65364e-15,201.9,45.6687)" gradientUnits="userSpaceOnUse">
   <stop style="stop-color:#0a80fd" offset="0"/>
   <stop style="stop-color:#56c5fa" offset="1"/>
  </linearGradient>
 </defs>
</svg>
