<svg style="clip-rule:evenodd;fill-rule:evenodd;stroke-linejoin:round;stroke-miterlimit:2" version="1.1" viewBox="0 0 48 48" xmlns="http://www.w3.org/2000/svg">
 <path d="m39.44 2.332c3.438 0 6.228 2.79 6.228 6.228v30.88c0 3.438-2.79 6.228-6.228 6.228h-30.88c-3.438 0-6.228-2.79-6.228-6.228v-30.88c0-3.438 2.79-6.228 6.228-6.228h30.88z" style="fill:url(#_Linear1)"/>
 <g transform="matrix(1.0834,0,0,1.0834,-2.0016,-2.0016)">
  <path d="m24 42h-3v-5h3v-5h-3v-5h-2v2h-13v-2h10v-3h5v-2h-2v-3h-3v-2h-5v-3h5v3h3v2h2v3h2v-5h-2v-8h2v-5h3v5h-3v5h3v2h5v-2h3v-5h2v7h3v3h-3v-3h-5v3h-5v3h-3v5h3v17h-2.634l0.634-2zm-11-10h3v5h-3v-5zm26-3h-10v-2h10v2h2v5h-2v-5z" style="fill-rule:nonzero;fill:rgb(177,119,47)"/>
 </g>
 <g transform="matrix(1.0834,0,0,1.0834,-2.0016,-2.0016)">
  <path d="m21 42h3v2h-2.942l-0.058-2zm5 2v-17h-3v-5h-2v2h-2v-2h-3v-3h-3v-3h3v3h3v3h2v-3h2v3h3v-3h5v-3h-5v-2h-3v-5h3v5h5v2h5v6h-2v-3h-3v3h-2v2h-3v3h3v2h2v5h-2v10h-3zm-5-10h3v3h-2.942c-0.058 0-0.058-3-0.058-3zm-10-5h8v-2h2v2h-2v3h-8v-3zm23 0h5v3h-5v-3zm-3-5h3v3h-3v-3zm5-12h3v2h-3v-2z" style="fill-rule:nonzero;fill:url(#_Linear2)"/>
 </g>
 <defs>
  <linearGradient id="_Linear1" x2="1" gradientTransform="matrix(2.65356e-15,-43.336,43.336,2.65356e-15,24.5417,45.668)" gradientUnits="userSpaceOnUse">
   <stop style="stop-color:rgb(42,97,48)" offset="0"/>
   <stop style="stop-color:rgb(22,141,92)" offset="1"/>
  </linearGradient>
  <linearGradient id="_Linear2" x2="1" gradientTransform="matrix(2.14313e-15,-35,35,2.14313e-15,26.6385,44)" gradientUnits="userSpaceOnUse">
   <stop style="stop-color:rgb(89,53,13)" offset="0"/>
   <stop style="stop-color:rgb(107,63,13)" offset="1"/>
  </linearGradient>
 </defs>
</svg>
