<svg style="clip-rule:evenodd;fill-rule:evenodd;stroke-linejoin:round;stroke-miterlimit:2" version="1.1" viewBox="0 0 48 48" xmlns="http://www.w3.org/2000/svg">
 <path d="m39.44 2.332c3.438 0 6.228 2.79 6.228 6.228v30.88c0 3.438-2.79 6.228-6.228 6.228h-30.88c-3.438 0-6.228-2.79-6.228-6.228v-30.88c0-3.438 2.79-6.228 6.228-6.228h30.88z" style="fill:#e4e4e4"/>
 <path d="m28.053 42.893c-1.38-0.179-3.054-0.549-3.634-0.804-0.364-0.16-0.892-0.538-1.172-0.841-0.47-0.507-1.478-2.028-1.691-2.549-0.049-0.122-0.46-1.015-0.911-1.984-0.907-1.946-0.909-2.077-0.033-2.893 0.514-0.478 0.487-0.615-0.08-0.405-0.256 0.094-0.801 0.555-1.211 1.024l-0.744 0.851h-1.804l0.905-0.925c0.761-0.779 0.989-1.143 1.428-2.282l0.521-1.356-1.272-1.244-0.677 0.396c-0.655 0.383-0.682 0.426-0.777 1.264-0.144 1.27-0.568 1.631-2.095 1.781-0.639 0.063-1.18 0.097-1.203 0.075-0.023-0.021 0.285-0.288 0.684-0.591 0.696-0.53 1.075-1.17 1.447-2.449 0.059-0.203 0.382-0.613 0.718-0.911 0.335-0.298 0.576-0.569 0.535-0.602s-0.367-0.286-0.725-0.561l-0.651-0.501-0.979 0.509c-0.965 0.503-0.982 0.522-1.245 1.426-0.169 0.58-0.362 0.946-0.524 0.996-0.463 0.143-2.333 0.511-2.376 0.468-0.024-0.023 0.31-0.343 0.741-0.71 0.558-0.476 0.927-0.966 1.283-1.702 0.497-1.026 0.508-1.036 1.412-1.327 0.861-0.278 0.908-0.318 0.868-0.727-0.086-0.873-0.037-0.854-1.929-0.747-1.725 0.097-1.746 0.103-2.172 0.577-1.342 1.492-2.356 2.455-2.67 2.534-0.436 0.109-1.229-0.149-1.34-0.437-0.063-0.164 0.067-0.212 0.573-0.212 0.57 0 0.695-0.061 0.982-0.481 0.182-0.265 0.87-1.031 1.53-1.703l1.2-1.222h2.009c1.106 0 2.227 0.062 2.492 0.137 0.472 0.135 0.481 0.128 0.476-0.333-3e-3 -0.259-0.128-1.412-0.279-2.562-0.242-1.85-0.335-2.201-0.802-3.037-0.29-0.52-1.206-2.778-2.033-5.018l-1.506-4.074 0.174-1.777c0.155-1.58 0.217-1.823 0.558-2.185 0.3-0.318 0.52-0.407 1.002-0.407 0.514 0 0.826 0.146 1.866 0.877 0.686 0.482 1.492 1.119 1.791 1.416 0.505 0.504 0.549 0.62 0.647 1.724 0.058 0.651 0.081 1.207 0.052 1.236-0.029 0.028-0.456-0.132-0.949-0.355-0.855-0.388-0.917-0.453-1.379-1.454-0.528-1.141-0.795-1.45-1.14-1.318-0.177 0.068-0.225 0.366-0.225 1.414v1.328l2.398 5.31 2.032 1.125c1.777 0.984 2.208 1.303 3.44 2.539 0.774 0.778 1.447 1.414 1.495 1.414 0.155 0 0.587-1.564 0.587-2.123v-0.543h1.104c0.974 0 1.116-0.035 1.199-0.296 0.104-0.327 0.195-0.356 0.506-0.16 0.165 0.105 0.18 0.27 0.07 0.776l-0.139 0.643-0.701-0.036-0.702-0.036v1.842c0 1.013 0.061 1.879 0.136 1.925s0.251-0.2 0.392-0.547c0.142-0.35 0.572-0.914 0.966-1.269l0.709-0.639 0.621 0.316c0.342 0.174 0.715 0.28 0.83 0.236 0.264-0.101 0.261-0.062-0.042 0.573-0.221 0.461-0.316 0.523-0.806 0.523-0.306 0-0.658 0.101-0.781 0.224-0.308 0.307-0.469 1.488-0.264 1.936 0.218 0.476 0.392 0.452 0.616-0.086 0.131-0.315 0.463-0.591 1.146-0.953l0.961-0.509 0.625 0.575c0.61 0.56 0.641 0.57 1.254 0.415 0.346-0.088 0.674-0.115 0.728-0.061 0.054 0.055-0.219 0.413-0.607 0.797l-0.706 0.699-1.118-1.298-0.546 0.353c-0.402 0.26-0.546 0.456-0.547 0.747-2e-3 0.451 0.182 0.556 0.815 0.464 0.245-0.035 0.738 0.04 1.096 0.168 0.357 0.128 1.089 0.232 1.625 0.232h0.976l-0.472 0.348-0.473 0.347 0.365 0.166c0.299 0.136 0.542 0.1 1.338-0.199 0.536-0.201 1.25-0.365 1.588-0.365 0.583 0 0.7 0.083 2.239 1.601l1.624 1.601 0.511 2.731c0.288 1.537 0.485 3.007 0.45 3.36-0.076 0.778-0.591 1.476-1.438 1.949l-0.637 0.356 0.113-0.356c0.062-0.195 0.146-0.792 0.187-1.324 0.159-2.096-1.076-3.105-1.392-1.137-0.115 0.719-0.242 0.581-0.63-0.685-0.299-0.976-0.295-1.581 0.012-1.972 0.186-0.237-0.292-2.952-0.641-3.642l-0.281-0.553-1.009 1.072c-2.463 2.617-2.427 2.571-2.171 2.783 0.358 0.296 0.808 1.263 0.804 1.727l-4e-3 0.413-0.405-0.466c-0.622-0.718-1-0.86-1.441-0.54-0.201 0.146-0.367 0.339-0.37 0.429-8e-3 0.306 0.674 1.167 0.966 1.22 0.618 0.111 0.561 0.32-0.087 0.317-0.741-4e-3 -1.711-0.394-2.119-0.851l-0.27-0.302-1.735 0.453c-1.251 0.327-1.926 0.59-2.418 0.944-0.496 0.357-0.911 0.518-1.518 0.589l-0.834 0.098 0.955 1.734 0.806 2e-3c0.6 2e-3 1.618 0.272 3.978 1.056 1.745 0.58 3.321 1.176 3.502 1.326 0.323 0.266 0.301 0.27-1.156 0.192-0.817-0.044-1.753-0.021-2.08 0.05-0.503 0.11-0.601 0.194-0.642 0.548-0.107 0.92 1.329 1.761 3.51 2.057 1.261 0.171 1.276 0.177 0.623 0.277-0.698 0.107-3.612 0.122-4.382 0.023z" style="fill-rule:nonzero;fill:url(#_Linear1)"/>
 <defs>
  <linearGradient id="_Linear1" x2="1" gradientTransform="matrix(-.955974 -33.2756 33.2756 -.955974 24.4193 42.0895)" gradientUnits="userSpaceOnUse">
   <stop style="stop-color:#2a2a2a" offset="0"/>
   <stop style="stop-color:#3f3f3f" offset="1"/>
  </linearGradient>
 </defs>
</svg>
