
<svg style="clip-rule:evenodd;fill-rule:evenodd;stroke-linecap:round" version="1.1" viewBox="0 0 64 64" xmlns="http://www.w3.org/2000/svg">
 <path d="m60 32c0 15.36-12.64 28-28 28s-28-12.64-28-28 12.64-28 28-28 28 12.64 28 28z" style="fill-rule:nonzero;fill:url(#_Linear1)"/>
 <path d="m55 32c0 12.703-10.297 23-23 23-9.852 0-18.257-6.194-21.533-14.9-0.948-2.519 1.988-5.583 1.988-8.434 0-12.703 5.728-15.868 18.431-15.868 5.903 0 12.401-4.574 16.474-0.918 4.69 4.211 7.64 10.321 7.64 17.12z" style="fill-rule:nonzero;fill:url(#_Linear2)"/>
 <path d="m18.368 13.508c-5.876 4.324-9.358 11.196-9.368 18.492 4e-3 0.14 9e-3 0.28 0.015 0.42l22.985-0.42-13.632-18.492z" style="fill-rule:nonzero;fill:#f8e45c"/>
 <path d="m9.197 29.157c-0.124 0.943-0.19 1.892-0.197 2.843 5e-3 2.953 0.578 5.878 1.689 8.614l21.311-8.614-22.803-2.843z" style="fill-rule:nonzero;fill:#3787e4"/>
 <path d="m32 9c-5.675 0.01-11.149 2.12-15.363 5.921l15.363 17.079 15.566-16.893c-4.237-3.915-9.797-6.096-15.566-6.107z" style="fill-rule:nonzero;fill:url(#_Linear3)"/>
 <path d="m32 32l-7.667-8.519" style="fill:none;stroke-width:2.71px;stroke:#807f7c"/>
 <path d="m32 32l11.074-11.926" style="fill:none;stroke-width:1.35px;stroke:#fff"/>
 <path d="m32 32l-5.963 15.333" style="fill:none;stroke-width:1.35px;stroke:#f14b53"/>
 <circle cx="32.012" cy="32" r=".853" style="fill:#131c1a"/>
 <path d="m30.778 29.26c1.512-0.674 3.287 6e-3 3.962 1.518 0.674 1.512-6e-3 3.287-1.518 3.962-1.512 0.674-3.287-6e-3 -3.962-1.518-0.674-1.512 6e-3 -3.287 1.518-3.962z" style="fill:#d5d3cf"/>
 <circle cx="32" cy="32" r="2" style="fill:#373737"/>
 <defs>
  <linearGradient id="_Linear1" x2="1" gradientTransform="matrix(24.4627,50.6602,-50.6602,24.4627,19.4217,6.63133)" gradientUnits="userSpaceOnUse">
   <stop style="stop-color:#fff" offset="0"/>
   <stop style="stop-color:#a7a7a7" offset="1"/>
  </linearGradient>
  <linearGradient id="_Linear2" x2="1" gradientTransform="matrix(18.0422,20.9735,-20.9735,18.0422,29.5554,27.6774)" gradientUnits="userSpaceOnUse">
   <stop style="stop-color:#7863a0" offset="0"/>
   <stop style="stop-color:#443e4f" offset="1"/>
  </linearGradient>
  <linearGradient id="_Linear3" x2="1" gradientTransform="matrix(-20.0391,-16.2807,16.2807,-20.0391,40.6945,25.2807)" gradientUnits="userSpaceOnUse">
   <stop style="stop-color:#00ab3e" offset="0"/>
   <stop style="stop-color:#2cc162" offset="1"/>
  </linearGradient>
 </defs>
</svg>
