<svg style="clip-rule:evenodd;fill-rule:evenodd;stroke-linejoin:round;stroke-miterlimit:2" version="1.1" viewBox="0 0 48 48" xmlns="http://www.w3.org/2000/svg">
 <path d="m46.273 12.908c0-6.122-4.97-11.092-11.092-11.092h-22.362c-6.122 0-11.092 4.97-11.092 11.092v22.184c0 6.122 4.97 11.092 11.092 11.092h22.362c6.122 0 11.092-4.97 11.092-11.092v-22.184z" style="fill:url(#_Linear1)"/>
 <path d="m20.353 38.453l-10.559-9.979 0.305-1.767 1.892-11.015 0.101-0.588c1.854-0.805 0.358-0.154 1.213-0.539l11.873-5.285c1.447-0.642 0.012 2e-3 1.463-0.635 10.309 9.72 7.78 7.328 10.759 10.153 0.802 0.828 0.148 0.166 0.792 0.836l-2.291 13.324c-3.755 1.666-0.549 0.244-0.909 0.405l-12.373 5.48-0.652 0.261c-0.456 0.194 1.971-0.841-0.603 0.253-0.957-0.868-9e-3 -2e-3 -1.011-0.904zm0.665-1.425l1.93-11.241-0.067-0.15-0.286-0.238-9.271-8.777-1.939 11.286 9.633 9.12zm1.451 0.25l12.122-5.383 1.901-11.059-12.124 5.382-1.899 11.06zm1.596-12.559l11.821-5.247-9.55-9.06-11.866 5.241 9.152 8.664 0.443 0.402z" style="fill-rule:nonzero;fill:url(#_Linear2)"/>
 <defs>
  <linearGradient id="_Linear1" x2="1" gradientTransform="matrix(2.71671e-15,-44.3672,44.3672,2.71671e-15,24,46.1836)" gradientUnits="userSpaceOnUse">
   <stop style="stop-color:#0051b2" offset="0"/>
   <stop style="stop-color:#00ffac" offset="1"/>
  </linearGradient>
  <linearGradient id="_Linear2" x2="1" gradientTransform="matrix(6.76817,-36.5663,36.5663,6.76817,1227.1,262.53)" gradientUnits="userSpaceOnUse">
   <stop style="stop-color:#cdd0d1;stop-opacity:.98" offset="0"/>
   <stop style="stop-color:#f6f6f7;stop-opacity:.98" offset="1"/>
  </linearGradient>
 </defs>
</svg>
