<svg style="clip-rule:evenodd;fill-rule:evenodd;stroke-linejoin:round;stroke-miterlimit:2" version="1.1" viewBox="0 0 48 48" xmlns="http://www.w3.org/2000/svg">
 <path d="m45.668 8.56c0-3.438-2.79-6.228-6.228-6.228h-30.88c-3.438 0-6.228 2.79-6.228 6.228v30.88c0 3.438 2.79 6.228 6.228 6.228h30.88c3.438 0 6.228-2.79 6.228-6.228v-30.88z" style="fill:url(#_Linear1)"/>
 <path d="m20.353 38.453-10.559-9.979 0.305-1.767 1.892-11.015 0.101-0.588c1.854-0.805 0.358-0.154 1.213-0.539l11.873-5.285c1.447-0.642 0.012 2e-3 1.463-0.635 10.309 9.72 7.78 7.328 10.759 10.153 0.802 0.828 0.148 0.166 0.792 0.836l-2.291 13.324c-3.755 1.666-0.549 0.244-0.909 0.405l-12.373 5.48-0.652 0.261c-0.456 0.194 1.971-0.841-0.603 0.253-0.957-0.868-9e-3 -2e-3 -1.011-0.904zm0.665-1.425 1.93-11.241-0.067-0.15-0.286-0.238-9.271-8.777-1.939 11.286 9.633 9.12zm1.451 0.25 12.122-5.383 1.901-11.059-12.124 5.382-1.899 11.06zm1.596-12.559 11.821-5.247-9.55-9.06-11.866 5.241 9.152 8.664 0.443 0.402z" style="fill-rule:nonzero;fill:url(#_Linear2)"/>
 <defs>
  <linearGradient id="_Linear1" x2="1" gradientTransform="matrix(2.65364e-15,-43.3373,43.3373,2.65364e-15,201.9,45.6687)" gradientUnits="userSpaceOnUse">
   <stop style="stop-color:rgb(0,86,178)" offset="0"/>
   <stop style="stop-color:rgb(0,248,172)" offset="1"/>
  </linearGradient>
  <linearGradient id="_Linear2" x2="1" gradientTransform="matrix(6.76817,-36.5663,36.5663,6.76817,1543.22,321.041)" gradientUnits="userSpaceOnUse">
   <stop style="stop-color:rgb(205,208,209);stop-opacity:.98" offset="0"/>
   <stop style="stop-color:rgb(246,246,247);stop-opacity:.98" offset="1"/>
  </linearGradient>
 </defs>
</svg>
