<svg style="clip-rule:evenodd;fill-rule:evenodd;stroke-linejoin:round;stroke-miterlimit:2" version="1.1" viewBox="0 0 48 48" xmlns="http://www.w3.org/2000/svg">
 <circle cx="24" cy="24" r="22.764" style="fill:url(#_Linear1)"/>
 <path d="m23.958 1.238c-0.62 1e-3 -1.23 0.036-1.835 0.087-0.403 0.038-0.805 0.088-1.205 0.147-0.326 0.045-0.655 0.079-0.976 0.138-0.397 0.078-0.792 0.166-1.184 0.265-0.316 0.075-0.637 0.136-0.948 0.224-0.666 0.188-1.323 0.407-1.969 0.655-0.182 0.164-0.414 0.29-0.6 0.275-7e-3 -1e-3 -0.013-6e-3 -0.02-8e-3 -1.254 0.519-2.459 1.149-3.601 1.883 0.135 0.23 0.169 0.48-0.122 0.604-0.046 0.019-0.568 0.069-0.828 0.075-3.21 2.322-5.76 5.441-7.395 9.05 3e-3 0 5e-3 -2e-3 8e-3 -2e-3 0.249-5e-3 0.604 0.068 0.843 0.119 0.22 0.045 0.398 0.192 0.588 0.206 0.541 0.042 0.671-0.379 1.112-0.614 0.455 0.064 0.758-0.076 1.17-0.03 0.28 0.031 0.482 0.328 0.701 0.345 0.184 0.018 0.346-0.17 0.523-0.143 0.173 0.027 0.471 0.401 0.5 0.612 0.036 0.262-0.193 0.5-0.118 0.788 0.276 0.28 0.777 0.336 1.171 0.497 0.256-0.21 0.034-0.602 0-0.907-5e-3 -0.135 0.017-0.254 0-0.378-0.023-0.21-0.114-0.402-0.116-0.582-4e-3 -0.831 0.671-1.22 1.229-1.548 0.242-0.143 0.433-0.393 0.643-0.497 0.296-0.148 0.516-0.184 0.762-0.322 0.443-0.248 0.821-0.446 1.168-0.727 0.16-0.377 0.016-0.883 0.03-1.255 0.16-0.098 0.299 0.043 0.469 0.03 0.267-0.055 0.289-0.434 0.44-0.584 0.088-0.086 0.33-0.146 0.439-0.232 0.266-0.209 0.353-0.525 0.586-0.615 0.084-0.034 0.277-0.022 0.408-0.058 0.173-0.046 0.42-0.249 0.702-0.346 0.183-0.063 0.604-0.078 0.675-0.147 0.086-0.088-3e-3 -0.335 0.028-0.467 0.142-0.659 1.138-0.799 1.726-1.021 0.412-0.155 0.834-0.441 1.287-0.353-0.089 0.313-0.512 0.201-0.44 0.582 0.098 0.527 0.807-0.15 0.994-0.229 0.357-0.15 0.969-0.241 1.437-0.41 0.363-0.15 1.1-0.378 0.713-0.847-0.323-0.018-0.478 0.377-0.76 0.497-0.194 0.032-0.157-0.162-0.323-0.178-0.157-0.018-0.246 0.146-0.408 0.118-0.161-0.027-0.387-0.279-0.413-0.467-0.063-0.487 0.415-0.69 0.617-1.053-0.134-0.441-0.747-0.088-1.116-0.261 0.037-0.262 0.309-0.443 0.617-0.493 0.251-0.042 0.816-0.021 0.966 0.111 0.087 0.075 7e-3 0.258 0.147 0.38 0.149 0.135 0.332 0.12 0.526 0.089 0.068-0.332-0.435-0.249-0.38-0.469 0.395-0.258 1.038-0.046 1.521-0.117 0.279-0.041 0.572-0.237 0.819-0.376 0.235-0.133 0.539-0.364 0.788-0.145 0.066 0.238-0.217 0.316-0.35 0.434-0.447 0.397-0.909 0.852-1.257 1.314 0.214 0.208 0.601 0.104 0.962 0.147 0.142 0.018 0.32 0.06 0.469 0.087 0.175 0.032 0.361 0.023 0.497 0.059 0.246 0.059 0.311 0.321 0.554 0.321 0.4-1e-3 0.405-0.431 0.178-0.701 0.072-0.276 0.185-0.419 0.089-0.612-0.18-0.36-0.843-0.018-0.877-0.467-0.021-0.291 0.244-0.278 0.349-0.495-0.048-0.563 0.463-0.604 0.409-1.108-0.023-0.211-0.202-0.215-0.35-0.412-0.075-0.096-0.111-0.28-0.196-0.364-0.223-0.015-0.447-0.026-0.671-0.034-0.465-0.03-0.929-0.065-1.402-0.065zm-11.775 4.592h0.049c0.136 0.018 0.302 0.165 0.467 0.177 0.155 5e-3 0.284-0.087 0.38-0.06 0.244 0.064 0.348 0.434 0.117 0.614-0.191 0.023-0.266-0.084-0.41-0.058-0.444 0.066-0.597 0.844-0.894 0.818-0.279-0.022-0.43-0.705-0.145-0.907 0.018-0.177-0.131-0.205-0.121-0.38 0.084-0.108 0.325-0.223 0.557-0.204zm-1.317 0.091h0.046c0.082 3e-3 0.143 0.02 0.174 0.056-0.039 0.311-0.283 0.292-0.523 0.437-0.416 0.25-0.656 0.631-0.788 1.166-0.086 0.155-0.496 0.569-0.694 0.527-0.463-0.097 0.13-0.951 0.235-1.081 0.117-0.144 0.274-0.269 0.412-0.434 0.134-0.161 0.221-0.378 0.35-0.467 0.141-0.098 0.544-0.214 0.788-0.204zm3.508 1.048c0.149 4e-3 0.283 0.027 0.344 0.087-0.096 0.386-0.929 0.285-1.233 0.146 0.018-0.145 0.249-0.187 0.441-0.206 0.135-5e-3 0.3-0.032 0.448-0.027zm-1.94 0.712c0.099-3e-3 0.199 0.018 0.303 0.046-0.269 0.225-0.56 0.351-1.022 0.497-0.223 0.07-0.605 0.157-0.643-0.09-0.046-0.304 0.325-0.234 0.527-0.261 0.256-0.036 0.536-0.183 0.835-0.192zm29.039 1.762c-0.028 0.072-0.05 0.143-0.046 0.212 0.018 0.141 0.171 0.277 0.206 0.467 0.018 0.101-0.048 0.318 0 0.41 0.137 0.267 0.492 0.091 0.754 0.095-0.106-0.151-0.213-0.301-0.322-0.45-0.115-0.156-0.232-0.309-0.351-0.461-0.08-0.092-0.16-0.183-0.241-0.273zm1.496 1.997c-0.047 0.198-0.174 0.448-0.281 0.61-0.255 0.387-0.603 0.404-0.968 0.61-0.305 0.173-0.436 0.46-0.615 0.76-0.193 0.324-0.314 0.521-0.234 0.991-0.261 0.517-0.657 0.833-1.199 1.079-0.159 0.072-0.378 0.098-0.525 0.204-0.117 0.084-0.183 0.311-0.35 0.497-0.205 0.228-0.419 0.323-0.527 0.497-0.084 0.135-0.113 0.402-0.206 0.582-0.126 0.245-0.39 0.366-0.554 0.615-0.075 0.114-0.124 0.346-0.206 0.497-0.185 0.336-0.503 0.579-0.469 0.875 0.034 0.285 0.358 0.335 0.38 0.584 5e-3 0.141-0.093 0.226-0.087 0.38 5e-3 0.224 0.156 0.381 0.174 0.554 0.044 0.433-0.146 0.607-0.228 0.903-0.04 0.141-0.023 0.3-0.061 0.41-0.073 0.217-0.374 0.413-0.38 0.669-3e-3 0.182 0.187 0.33 0.202 0.586 5e-3 0.177-0.087 0.363-0.055 0.526 0.062 0.317 0.63 0.687 0.878 0.933 0.33 0.331 0.764 0.586 0.907 0.934 0.12 0.295 0.118 0.681 0.35 0.903 0.17 0.165 0.454 0.266 0.673 0.437 0.203 0.159 0.424 0.297 0.642 0.467 0.356 0.278 0.894 0.833 1.461 0.79 0.297-0.02 0.6-0.264 0.936-0.323 0.346-0.062 0.795-0.093 1.144-0.057 0.267 0.026 0.541 0.187 0.818 0.174 0.294-0.018 0.629-0.235 0.962-0.38 0.259-0.112 0.579-0.236 0.926-0.33 0.044-0.262 0.084-0.526 0.119-0.79 0.022-0.19 0.048-0.38 0.065-0.572 0.065-0.683 0.1-1.369 0.103-2.055 0-0.557-0.023-1.107-0.063-1.653-0.052-0.706-0.137-1.41-0.254-2.108-0.018-0.109-0.043-0.216-0.063-0.325-0.11-0.606-0.245-1.208-0.404-1.803-0.029-0.109-0.056-0.218-0.087-0.325-0.391-1.377-0.91-2.714-1.552-3.994-0.047-0.093-0.096-0.184-0.144-0.277-0.301-0.581-0.627-1.15-0.978-1.703-0.032-0.051-0.062-0.103-0.095-0.154-0.051-0.073-0.103-0.146-0.155-0.218zm-37.715 7.625l-4e-3 2e-3c-0.486 0.027-0.803 0.049-1.08 0.174-0.632 0.287-0.511 1.14-1.143 1.342-0.219 0.069-0.518 0.073-0.758 0.117-0.208 0.038-0.461 0.152-0.675 0.147-0.029 0-0.069-0.021-0.105-0.034-0.062 0.402-0.114 0.806-0.154 1.211 0.536 0.178 0.843 0.891 1.344 1.139 0.146 0.073 0.336 0.079 0.523 0.12 0.151 0.034 0.267 0.096 0.413 0.145 0.309 0.105 0.688 0.092 0.935 0.202 0.373 0.165 0.648 0.866 0.968 1.053 0.018 0.189-0.038 0.442 0.029 0.582 0.151 0.205 0.365 0.159 0.614 0.293 0.299 0.161 0.39 0.577 0.673 0.703 0.098 0.044 0.343 0.038 0.497 0.085 0.388 0.117 0.515 0.565 0.847 0.467 0.218-0.063 0.201-0.289 0.236-0.497 0.144-0.155 0.301-0.402 0.526-0.406 0.363-0.018 0.395 0.375 0.527 0.727 0.075 0.199 0.271 0.372 0.322 0.582 0.09 0.363 0.045 1.449-0.033 1.666-0.091 0.266-0.452 0.378-0.675 0.673-0.104 0.138-0.155 0.341-0.234 0.438-0.143 0.174-0.356 0.22-0.463 0.38-0.06 0.091-0.119 0.284-0.178 0.406-0.175 0.372-0.41 0.636-0.262 1.082 0.061 0.183 0.348 0.305 0.349 0.521 1e-3 0.254-0.542 0.483-0.584 0.762-0.032 0.207 0.168 0.577 0.235 0.847 0.048 0.203 0.433 0.331 0.553 0.466 0.206 0.23 0.371 0.556 0.558 0.845 0.371 0.568 0.662 1.26 1.023 1.811 0.19 0.288 0.459 0.547 0.586 0.847 0.064 0.15 0.055 0.331 0.115 0.467 0.209 0.47 1.13 0.962 1.607 1.196 0.223 0.108 0.47 0.147 0.675 0.261 0.31 0.172 0.924 0.636 1.081 0.907 0.139 0.244 0.225 0.837 0.293 1.225 0.091 0.512 1e-3 0.904 0.03 1.459 0.018 0.3 0.113 0.602 0.117 0.903 2e-3 0.105-0.054 0.184-0.058 0.291 2.272 1.05 4.702 1.718 7.192 1.977 0.012 1e-3 0.023 3e-3 0.035 4e-3 0.74 0.073 1.483 0.109 2.227 0.109 0.6-1e-3 1.194-0.031 1.782-0.077 0.027-0.045 0.052-0.091 0.085-0.133 0.138-0.18 0.259-0.337 0.35-0.495 0.086-0.533-0.215-0.906-0.089-1.373 0.14-0.524 0.867-0.844 1.376-1.081 0.175-0.081 0.353-0.211 0.495-0.26 0.352-0.123 0.792-0.056 1.114-0.174 0.548-0.2 0.607-0.787 0.877-1.286 0.128-0.235 0.294-0.472 0.319-0.64 0.022-0.151-0.054-0.293-0.03-0.471 0.026-0.176 0.183-0.33 0.232-0.524 0.064-0.252 0.093-0.621 0.093-0.903 0-0.231-0.108-0.434-0.117-0.643-0.038-0.757 0.273-0.843 0.554-1.255 0.141-0.204 0.195-0.437 0.293-0.584 0.471-0.701 1.288-1.039 1.229-2.099-0.018-0.351-0.241-1.145-0.5-1.257-0.148-0.064-0.487-5e-3 -0.701-0.087-0.691-0.258-1.096-1.114-1.813-1.168-0.152-0.018-0.292 0.063-0.465 0.06-0.283-0.018-0.712-0.199-1.026-0.234-0.2-0.021-0.464 0.059-0.584 0-0.183-0.089-0.201-0.424-0.35-0.524-0.117-0.081-0.349-0.108-0.527-0.178-0.288-0.109-0.517-0.239-0.849-0.262-0.102-5e-3 -0.23 0.049-0.35 0.032-0.184-0.032-0.327-0.249-0.497-0.352-0.212-0.129-0.409-0.191-0.497-0.375 0.192-0.629-0.34-0.803-0.469-1.167-0.061-0.17-0.033-0.375-0.087-0.527-0.077-0.218-0.291-0.344-0.527-0.525-0.423-0.326-0.8-0.629-1.405-0.704-0.266-0.034-0.529 0.079-0.851 0.059-0.34-0.02-0.768-0.318-1.022-0.608-0.248-0.284-0.367-0.54-0.582-0.675-0.205-0.132-0.477-0.127-0.617-0.259-0.062-0.058-0.05-0.158-0.117-0.295-0.102-0.212-0.276-0.33-0.147-0.584-0.233-0.12-0.239 0.222-0.494 0.178-0.227-0.322-0.419-0.475-0.935-0.38-0.237 0.043-0.37 0.342-0.645 0.349-0.226 0.018-0.403-0.252-0.701-0.295-0.225-0.032-0.481 0.062-0.641 0.033-0.249-0.05-0.328-0.257-0.556-0.407-0.167-0.109-0.492-0.298-0.586-0.295-0.294 0.018-0.502 0.625-0.907 0.411-0.197-0.25 0.32-0.382 0.087-0.615-0.177-0.177-0.327 0.081-0.469 0.178-0.162 0.111-0.314 0.223-0.493 0.289-0.402 0.15-0.654 0.073-0.968 0.234-0.291 0.15-0.302 0.401-0.467 0.7-0.135 0.244-0.442 0.601-0.645 0.616-0.245 0.018-0.479-0.343-0.701-0.438-0.67-0.29-0.994 0.257-1.55 0.264-0.516 0.018-1.253-0.831-1.227-1.315 5e-3 -0.296 0.17-0.744 0.204-1.11 0.032-0.291 0.231-0.466 0.235-0.731 4e-3 -0.355-0.473-0.627-0.704-0.669-0.546-0.1-1.303 0.219-1.93-0.033-0.119-0.197 0.14-0.333 0.207-0.525 0.038-0.109 0.016-0.256 0.056-0.376 0.069-0.186 0.265-0.331 0.352-0.528 0.064-0.149 0.083-0.367 0.147-0.553 0.078-0.213 0.216-0.349 0.233-0.497 0.02-0.197-0.052-0.425-0.206-0.554zm7.817 6.182c0.195 0.022 0.22 0.426 0.018 0.459-0.219 0.034-0.33-0.343-0.117-0.441 0.036-0.018 0.071-0.017 0.099-0.016v-2e-3z" style="fill-rule:nonzero;fill:url(#_Linear2)"/>
 <path d="m31.141 28.401c-1.436 0-2.703 0.685-3.531 1.734l-7.677-3.93c0.1-0.375 0.172-0.763 0.172-1.171 0-0.444-0.085-0.862-0.205-1.269l7.644-3.912c0.823 1.096 2.123 1.813 3.598 1.813 2.501 0 4.523-2.024 4.523-4.525 0-2.498-2.022-4.523-4.523-4.523-2.494 0-4.519 2.025-4.519 4.523 0 0.41 0.073 0.798 0.174 1.175l-7.675 3.93c-0.829-1.05-2.098-1.737-3.537-1.737-2.498 0-4.519 2.026-4.519 4.525s2.021 4.525 4.519 4.525c1.478 0 2.777-0.719 3.603-1.817l7.641 3.912c-0.12 0.406-0.207 0.828-0.207 1.273 0 2.499 2.025 4.524 4.519 4.524 2.5 0 4.523-2.025 4.523-4.524 0-2.501-2.023-4.526-4.523-4.526z" style="fill-opacity:.85;fill-rule:nonzero;fill:#fff"/>
 <defs>
  <linearGradient id="_Linear1" x2="1" gradientTransform="matrix(6.33588e-17 1.03473 -1.03473 6.33588e-17 -.833455 .201273)" gradientUnits="userSpaceOnUse">
   <stop style="stop-color:#187ced" offset="0"/>
   <stop style="stop-color:#42d6fc" offset="1"/>
  </linearGradient>
  <linearGradient id="_Linear2" x2="1" gradientTransform="matrix(6.34825e-17 1.03675 -1.03675 6.34825e-17 -.833455 .201273)" gradientUnits="userSpaceOnUse">
   <stop style="stop-color:#0164c2" offset="0"/>
   <stop style="stop-color:#00a9f3" offset="1"/>
  </linearGradient>
 </defs>
</svg>
