<?xml version="1.0" encoding="UTF-8" standalone="no"?><!DOCTYPE svg PUBLIC "-//W3C//DTD SVG 1.1//EN" "http://www.w3.org/Graphics/SVG/1.1/DTD/svg11.dtd"><svg width="100%" height="100%" viewBox="0 0 64 64" version="1.1" xmlns="http://www.w3.org/2000/svg" xmlns:xlink="http://www.w3.org/1999/xlink" xml:space="preserve" xmlns:serif="http://www.serif.com/" style="fill-rule:evenodd;clip-rule:evenodd;stroke-linejoin:round;stroke-miterlimit:1.41421;"><path d="M49.897,4c5.576,0 10.103,4.527 10.103,10.103l0,35.794c0,5.576 -4.527,10.103 -10.103,10.103l-35.794,0c-5.576,0 -10.103,-4.527 -10.103,-10.103l0,-35.794c0,-5.576 4.527,-10.103 10.103,-10.103l35.794,0Z" style="fill:url(#_Linear1);"/><path d="M14.857,16c-1.583,0 -2.857,1.297 -2.857,2.909l0,26.182c0,1.612 1.274,2.909 2.857,2.909l3.144,0l0,-11.819c0,-1.205 0.959,-2.182 2.142,-2.182l23.714,0c1.183,0 2.142,0.977 2.142,2.182l0,11.819l3.144,0c1.583,0 2.857,-1.297 2.857,-2.909l0,-23.182c0,-1.612 -1.278,-3.015 -2.857,-2.91l-15,0l-5.714,-2.999l-13.572,0Zm7.143,22l0,10l20,0l0,-10l-20,0Z" style="fill:#fff;fill-rule:nonzero;"/><defs><linearGradient id="_Linear1" x1="0" y1="0" x2="1" y2="0" gradientUnits="userSpaceOnUse" gradientTransform="matrix(0,-56,-56,0,32,60)"><stop offset="0" style="stop-color:#005d2e;stop-opacity:1"/><stop offset="1" style="stop-color:#00a356;stop-opacity:1"/></linearGradient></defs></svg>