
<svg style="clip-rule:evenodd;fill-rule:evenodd;stroke-linejoin:round;stroke-miterlimit:1.41421" version="1.1" viewBox="0 0 48 48" xmlns="http://www.w3.org/2000/svg">
 <path d="m43.647 6.554c2e-3 -0.942-0.761-1.707-1.702-1.709l-35.818-0.067c-0.942-1e-3 -1.707 0.761-1.709 1.703l-0.067 35.818c-2e-3 0.941 0.761 1.707 1.703 1.709l35.818 0.067c0.941 1e-3 1.707-0.762 1.709-1.703l0.066-35.818z" style="fill-opacity:.34902"/>
 <path d="m43.649 5.701c2e-3 -0.941-0.761-1.707-1.703-1.709l-35.818-0.067c-0.941-1e-3 -1.707 0.762-1.709 1.703l-0.066 35.818c-2e-3 0.942 0.761 1.707 1.702 1.709l35.818 0.067c0.942 1e-3 1.707-0.761 1.709-1.703l0.067-35.818z" style="fill:url(#_Linear1)"/>
 <path d="m23.974 16.485c-3.234 0-5.974 2.195-6.819 5.168-0.735-1.578-2.328-2.688-4.171-2.688-2.531 0-4.612 2.081-4.612 4.611 0 2.531 2.081 4.614 4.612 4.614 1.843 0 3.436-1.111 4.171-2.69 0.845 2.973 3.585 5.168 6.819 5.168 3.213 0 5.939-2.166 6.803-5.109 0.748 1.546 2.32 2.631 4.14 2.631 2.531 0 4.612-2.083 4.612-4.614 0-2.53-2.081-4.611-4.612-4.611-1.82 0-3.392 1.084-4.14 2.629-0.864-2.943-3.59-5.109-6.803-5.109zm0 2.707c2.438 0 4.387 1.947 4.387 4.384 0 2.438-1.949 4.387-4.387 4.387s-4.385-1.949-4.385-4.387c0-2.437 1.947-4.384 4.385-4.384zm-10.99 2.48c1.068 0 1.904 0.836 1.904 1.904 0 1.069-0.836 1.907-1.904 1.907s-1.905-0.838-1.905-1.906c0-1.069 0.837-1.905 1.905-1.905zm21.933 0c1.068 0 1.904 0.836 1.904 1.904 0 1.069-0.836 1.907-1.904 1.907s-1.906-0.838-1.906-1.907c0-1.068 0.838-1.904 1.906-1.904z" style="fill-rule:nonzero;fill:url(#_Linear2)"/>
 <defs>
  <linearGradient id="_Linear1" x2="1" gradientTransform="matrix(4.70599,-40.5898,40.5898,4.70599,20.3331,42.8371)" gradientUnits="userSpaceOnUse">
   <stop style="stop-color:#0082c9" offset="0"/>
   <stop style="stop-color:#0cf" offset="1"/>
  </linearGradient>
  <linearGradient id="_Linear2" x2="1" gradientTransform="matrix(.017784 -33.4769 33.4769 .017784 23.2646 45.9765)" gradientUnits="userSpaceOnUse">
   <stop style="stop-color:#f6fbff" offset="0"/>
   <stop style="stop-color:#eaeff2" offset="1"/>
  </linearGradient>
 </defs>
</svg>
