<svg style="clip-rule:evenodd;fill-rule:evenodd;stroke-linejoin:round;stroke-miterlimit:1.41421" version="1.1" viewBox="0 0 64 64" xmlns="http://www.w3.org/2000/svg">
 <path d="m8.501 4.7c-0.268 0-0.53 0.024-0.78 0.071-0.25 0.048-0.492 0.119-0.719 0.208-0.226 0.089-0.447 0.203-0.65 0.331-1.011 0.637-1.652 1.688-1.652 2.89v37.568l6.861 9.143 2.939 3.921 2.939-3.921 6.861-9.143v-5.844c0-0.384 0.316-0.7 0.7-0.7 0.211 0 0.411 0.096 0.544 0.26l14.676 18.071c0.014 0.018 0.028 0.036 0.041 0.055 0.659 1.001 1.844 1.69 3.24 1.69h11.998c2.143 0 3.801-1.576 3.801-3.5v-47.6c0-1.924-1.658-3.5-3.801-3.5h-2.499-7-2.499c-2.143 0-3.801 1.576-3.801 3.5v15.78c0 0.384-0.316 0.7-0.7 0.7-0.211 0-0.411-0.096-0.544-0.26l-14.689-18.213c-0.118-0.147-0.261-0.256-0.451-0.364-0.047-0.026-0.09-0.057-0.129-0.093-0.192-0.179-0.365-0.328-0.533-0.435-2e-3 -2e-3 -4e-3 -3e-3 -6e-3 -5e-3h-2e-3c-0.405-0.255-0.867-0.444-1.365-0.539h-5e-3c-0.25-0.047-0.509-0.071-0.777-0.071h-2.499-7-2.499z" style="fill-rule:nonzero;fill:#fabe5c"/>
 <path d="m19.341 5.292c-0.289 0.133-1.314-0.768-1.57-0.561l-1.944 1.569 41.529 51.496 1.211-0.345 0.199-1.708 0.534-5.498-0.63-1.973-34.099-42.281c-0.663-0.822-1.701-0.88-2.573-1.232l-2.657 0.533z" style="fill-rule:nonzero;fill:#c98330"/>
 <path d="m10.117 10.47l-1.944 1.566c-1.941 1.565-2.034 4.649-0.208 6.913l32.006 39.41 2.59 0.467 7.5 1.174-39.944-49.53z" style="fill-rule:nonzero;fill:#ffcd6e"/>
 <path d="m15.566 6.075l-5.449 4.395 39.944 49.53 7.034-2.429-0.868-1.076-40.661-50.42z" style="fill-rule:nonzero;fill:#ffaf1a"/>
 <path d="m53 4v56h2.499c2.493 0 4.501-1.873 4.501-4.2v-47.6c0-2.327-2.008-4.2-4.501-4.2h-2.499z" style="fill-rule:nonzero;fill:#c98330"/>
 <path d="m11 4v51.332l3.5 4.668 3.5-4.668v-51.332h-7z" style="fill-rule:nonzero;fill:#ffaf1a"/>
 <path d="m18 4v51.332l7-9.332v-37.8c0-1.453-0.784-2.73-1.98-3.484 0 0-2e-3 1e-3 -2e-3 0-0.479-0.3-1.022-0.52-1.608-0.631h-3e-3c-0.293-0.056-0.596-0.085-0.908-0.085h-2.499z" style="fill-rule:nonzero;fill:#c98330"/>
 <path d="m8.501 4c-0.312 0-0.617 0.029-0.911 0.085-0.292 0.056-0.576 0.137-0.845 0.243s-0.526 0.238-0.765 0.388c-1.196 0.754-1.98 2.031-1.98 3.484v37.8l7 9.332v-51.332h-2.499z" style="fill-rule:nonzero;fill:#ffcd6e"/>
 <path d="m43.501 4c-2.493 0-4.501 1.873-4.501 4.2v47.6c0 2.327 2.008 4.2 4.501 4.2h2.499v-56h-2.499z" style="fill-rule:nonzero;fill:#ffcd6e"/>
 <rect x="46" y="4" width="7" height="56" style="fill:#ffaf1a"/>
 <rect x="39" y="15" width="21" height="6" style="fill:#4e4e4e"/>
 <path d="m43.501 4c-2.493 0-4.501 1.873-4.501 4.2v6.8h21v-6.8c0-2.327-2.008-4.2-4.501-4.2h-11.998z" style="fill-rule:nonzero;fill:#f20d5e"/>
 <path d="m4 46l5.942 8h9.116l5.942-8h-21z" style="fill-rule:nonzero;fill:#fcd7ac"/>
 <path d="m9.942 54l4.558 6 4.558-6h-9.116z" style="fill-rule:nonzero;fill:#0d28f2"/>
</svg>
