<svg style="clip-rule:evenodd;fill-rule:evenodd;stroke-linejoin:round;stroke-miterlimit:2" version="1.1" viewBox="0 0 256 256" xmlns="http://www.w3.org/2000/svg">
 <path d="m246.868 68.566c0-32.803-26.631-59.434-59.434-59.434h-118.868c-32.803 0-59.434 26.631-59.434 59.434v118.868c0 32.803 26.631 59.434 59.434 59.434h118.868c32.803 0 59.434-26.631 59.434-59.434v-118.868z" style="fill:url(#_Linear1)"/>
 <path d="m87.032 150.464h16.387l8.193 8.156v16.309l-6.144 6.117v6.115l-12.29 12.233v8.156l-26.629 24.465 0.039 7.592c-0.441-0.024-1.033-0.01-1.468-0.035-0.56-0.033-1.031-0.095-1.581-0.131l-3.134-3.35v-26.502l6.144-6.117 0.055-18.279-16.443-14.34v-20.389l8.195-8.154h20.483l8.193 8.154zm94.225-36.696h24.581v8.155l20.483 20.387h8.194l-20.484 20.387 0.277 23.418-25.688 25.567-15.556-16.365v-24.465l-4.097-4.077v-6.116l-6.145-6.116h-14.339l-10.241-10.194v-20.388l14.338-14.271h24.58l4.097 4.078zm47.113 77.472h-8.194v-12.784l8.194-7.604v20.388zm-208.578-156.628l9.886 9.838h10.242v-12.232h20.485l12.29 12.232v8.157h-10.243l-12.291 12.232v8.154l8.195 8.155h8.193v-16.309h18.436l12.29 12.233-12.29 14.269 6.144 6.117h-12.29l-12.29 12.233h-8.193l-12.29 12.232v24.465l-20.485-20.389h-12.29l-4.159-4.14v-53.293c0-12.62 3.941-24.327 10.66-33.954zm217.549 1.684c6.027 9.296 9.527 20.377 9.527 32.27v49.279h-8.257l8.193 8.154-8.193 8.157-4.097 4.076h-4.095l-24.581-24.465h8.193l-0.112-6.227-6.034-6.006 6.146-6.115h6.144l-6.144-6.115h-6.146l-6.144 6.115 6.144 6.115h-10.242l-8.192-8.154h-8.193l8.193 8.154v4.079h-4.098l-8.192-8.155v-4.078h-8.193l-8.195 8.154h-12.29v-12.23l6.146-6.117v-8.155h8.193l6.146-5.841 16.385-0.276 4.098-4.076v-8.156h-8.193v6.117h-12.29v-10.193l12.29-12.233h24.58l8.193 8.155 12.29-12.233h11.02zm-166.695 93.782h-12.291l6.146-6.117h6.145v6.117zm32.773-40.774h-2.048l-2.049-2.039h-6.144l6.144-6.117 6.146 6.117-2.049 2.039zm59.403-18.35h-6.145v-6.116l6.145-6.116v12.232zm-24.58-8.155h-12.291v-6.116h6.146l6.145 6.116zm-22.532-2.038h-8.193l-14.339-15.76v-12.783l-12.29-12.232 7.125-8.104c0.775-2e-3 1.334-0.051 2.123-0.051h46.057v12.233l-8.193 8.154v8.156l-12.29 12.233v8.154zm-49.161-36.697h-20.483l-7.082-7.049c1.015-0.584 2.05-1.139 3.102-1.664 1.088-0.257 2.209-0.497 3.374-0.715 2.865-0.536 5.927-0.98 9.199-1.344 3.272-0.363 6.756-0.646 10.461-0.863 0.424-0.025 1-0.01 1.429-0.033v11.668z" style="fill-rule:nonzero;fill:#ececec"/>
 <path d="m143.164 246.813l-17.848 0.055-0.258-8.299c-0.448-10.088 0.023-42.429 0.732-50.237 1.285-14.148 3.44-23.312 7.313-31.086 7.396-14.848 20.832-21.186 49.599-23.396 3.463-0.266 19.316-0.628 35.231-0.804l28.935-0.32-7e-3 24.171c-0.01 32.191 7e-3 19.873 7e-3 32.516 0 32.821-29.992 57.413-57.178 57.413-14.176 0-1.411 0.338-46.525-0.013h-1e-3z" style="fill-rule:nonzero;fill:url(#_Linear2)"/>
 <path d="m197.676 182.849v42h-21v-42h21zm0-28v21h-21v-21h21z" style="fill:#fff"/>
 <defs>
  <linearGradient id="_Linear1" x2="1" gradientTransform="matrix(1.35867e-14,237.737,-221.888,1.45572e-14,9.13151,9.13151)" gradientUnits="userSpaceOnUse">
   <stop style="stop-color:#2eae05" offset="0"/>
   <stop style="stop-color:#005e34" offset="1"/>
  </linearGradient>
  <linearGradient id="_Linear2" x2="1" gradientTransform="matrix(2.25576,-119.849,119.849,2.25576,187.434,246.868)" gradientUnits="userSpaceOnUse">
   <stop style="stop-color:#065dfe" offset="0"/>
   <stop style="stop-color:#00b9ff" offset="1"/>
  </linearGradient>
 </defs>
</svg>
