<svg style="clip-rule:evenodd;fill-rule:evenodd;stroke-linejoin:round;stroke-miterlimit:2" version="1.1" viewBox="0 0 48 48" xmlns="http://www.w3.org/2000/svg">
 <path d="m45.668 8.56c0-3.438-2.79-6.228-6.228-6.228h-30.88c-3.438 0-6.228 2.79-6.228 6.228v30.88c0 3.438 2.79 6.228 6.228 6.228h30.88c3.438 0 6.228-2.79 6.228-6.228v-30.88z" style="fill:url(#_Linear1)"/>
 <path d="m16.319 28.212h3.072l1.536 1.529v3.058l-1.152 1.147v1.147l-2.304 2.293v1.53l-4.993 4.587 7e-3 1.423c-0.082-4e-3 -0.193-2e-3 -0.275-6e-3 -0.105-6e-3 -0.193-0.018-0.296-0.025l-0.588-0.628v-4.969l1.152-1.147 0.01-3.427-3.083-2.689v-3.823l1.537-1.529h3.84l1.537 1.529zm17.667-6.881h4.609v1.53l3.84 3.822h1.537l-3.841 3.823 0.052 4.391-4.817 4.793-2.917-3.068v-4.587l-0.768-0.765v-1.146l-1.152-1.147h-2.688l-1.921-1.912v-3.822l2.689-2.676h4.608l0.769 0.764zm8.833 14.526h-1.536v-2.397l1.536-1.425v3.822zm-39.108-29.367l1.854 1.844h1.92v-2.293h3.841l2.304 2.293v1.53h-1.92l-2.305 2.293v1.529l1.537 1.529h1.536v-3.058h3.457l2.304 2.294-2.304 2.675 1.152 1.147h-2.305l-2.304 2.294h-1.536l-2.305 2.294v4.587l-3.841-3.823h-2.304l-0.16-0.16v-14.279c0.337-0.966 0.803-1.872 1.379-2.696zm40.79 0.315c0.479 0.739 0.873 1.537 1.167 2.381v12.91h-0.928l0.928 0.924v1.21l-0.928 0.924-0.769 0.764h-0.767l-4.609-4.587h1.536l-0.021-1.167-1.132-1.126 1.153-1.147h1.152l-1.152-1.147h-1.153l-1.152 1.147 1.152 1.147h-1.92l-1.536-1.529h-1.536l1.536 1.529v0.764h-0.768l-1.536-1.529v-0.764h-1.536l-1.537 1.529h-2.304v-2.294l1.152-1.146v-1.53h1.536l1.153-1.095 3.072-0.051 0.768-0.765v-1.529h-1.536v1.147h-2.304v-1.911l2.304-2.294h4.609l1.536 1.529 2.304-2.294h2.066zm-31.255 17.585h-2.304l1.152-1.147h1.152v1.147zm6.145-7.646h-0.384l-0.384-0.382h-1.152l1.152-1.147 1.152 1.147-0.384 0.382zm11.138-3.44h-1.152v-1.147l1.152-1.147v2.294zm-4.609-1.529h-2.304v-1.147h1.152l1.152 1.147zm-0.384-9.443v2.18l-1.536 1.529v1.529l-2.304 2.294v1.529h-1.537l-2.688-2.955v-2.397l-2.304-2.294 1.244-1.415h9.125zm-13.345 0h0.287v2.18h-3.841l-1.327-1.322c0.19-0.109 0.384-0.213 0.581-0.312 0.204-0.048 0.414-0.093 0.633-0.134 0.537-0.1 1.111-0.184 1.725-0.252 0.607-0.067 1.254-0.12 1.942-0.16z" style="fill-rule:nonzero;fill:#ececec"/>
 <path d="m45.668 25.932v13.508c0 1.386-0.453 2.666-1.219 3.701-0.288 0.351-0.596 0.683-0.92 0.996-1.094 0.954-2.525 1.531-4.089 1.531h-15.411c-0.077-1.992-0.019-7.877-0.029-9.323-0.045-6.544 3.006-10.427 10.946-10.427 0.651 0 10.722 0.014 10.722 0.014z" style="fill-rule:nonzero;fill:url(#_Linear2)"/>
 <path d="m37.064 34.284v7.875h-3.937v-7.875h3.937zm0-5.25v3.938h-3.937v-3.938h3.937z" style="fill:#fff"/>
 <defs>
  <linearGradient id="_Linear1" x2="1" gradientTransform="matrix(2.65362e-15,43.3369,-43.3369,2.65362e-15,-367.038,2.33153)" gradientUnits="userSpaceOnUse">
   <stop style="stop-color:#2eae05" offset="0"/>
   <stop style="stop-color:#005e34" offset="1"/>
  </linearGradient>
  <linearGradient id="_Linear2" x2="1" gradientTransform="matrix(2.25576,-119.849,119.849,2.25576,16094.5,546.266)" gradientUnits="userSpaceOnUse">
   <stop style="stop-color:#065dfe" offset="0"/>
   <stop style="stop-color:#00b9ff" offset="1"/>
  </linearGradient>
 </defs>
</svg>
