<svg clip-rule="evenodd" fill-rule="evenodd" stroke-linejoin="round" stroke-miterlimit="2" viewBox="0 0 48 48" xmlns="http://www.w3.org/2000/svg">
 <g transform="matrix(1.08486 0 0 1.07891 -2.03672 -308.627)">
  <path d="m43 290.436c0-.627-.506-1.136-1.13-1.136h-35.74c-.624 0-1.13.509-1.13 1.136v35.728c0 .627.506 1.136 1.13 1.136h35.74c.624 0 1.13-.509 1.13-1.136z" fill="#3f3f3f"/>
  <g fill-rule="nonzero">
   <path d="m5 288.3c-.554 0-1 .446-1 1v10c0 .554.446 1 1 1h10c.554 0 1-.446 1-1v-10c0-.554-.446-1-1-1z" fill="#b7e267"/>
   <path d="m19 288.3c-.554 0-1 .446-1 1v10c0 .554.446 1 1 1h10c.554 0 1-.446 1-1v-10c0-.554-.446-1-1-1z" fill="#3bd3e0"/>
   <path d="m33 288.3c-.554 0-1 .446-1 1v10c0 .554.446 1 1 1h10c.554 0 1-.446 1-1v-10c0-.554-.446-1-1-1z" fill="#3bd3e0"/>
   <path d="m5 302.3c-.554 0-1 .446-1 1v10c0 .554.446 1 1 1h10c.554 0 1-.446 1-1v-10c0-.554-.446-1-1-1z" fill="#b7e267"/>
   <path d="m19 302.3c-.554 0-1 .446-1 1v10c0 .554.446 1 1 1h10c.554 0 1-.446 1-1v-10c0-.554-.446-1-1-1z" fill="#509b1e"/>
   <path d="m33 302.3c-.554 0-1 .446-1 1v10c0 .554.446 1 1 1h10c.554 0 1-.446 1-1v-10c0-.554-.446-1-1-1z" fill="#3bd3e0"/>
   <path d="m5 316.3c-.554 0-1 .446-1 1v10c0 .554.446 1 1 1h10c.554 0 1-.446 1-1v-10c0-.554-.446-1-1-1z" fill="#509b1e"/>
   <g fill="#007aa0">
    <path d="m19 316.3c-.554 0-1 .446-1 1v10c0 .554.446 1 1 1h10c.554 0 1-.446 1-1v-10c0-.554-.446-1-1-1z"/>
    <path d="m33 316.3c-.554 0-1 .446-1 1v10c0 .554.446 1 1 1h10c.554 0 1-.446 1-1v-10c0-.554-.446-1-1-1z"/>
   </g>
  </g>
 </g>
</svg>
