<?xml version="1.0" encoding="UTF-8" standalone="no"?><!DOCTYPE svg PUBLIC "-//W3C//DTD SVG 1.1//EN" "http://www.w3.org/Graphics/SVG/1.1/DTD/svg11.dtd"><svg width="100%" height="100%" viewBox="0 0 48 48" version="1.1" xmlns="http://www.w3.org/2000/svg" xmlns:xlink="http://www.w3.org/1999/xlink" xml:space="preserve" xmlns:serif="http://www.serif.com/" style="fill-rule:evenodd;clip-rule:evenodd;stroke-linejoin:round;stroke-miterlimit:1.41421;"><rect x="-8.843" y="-7.677" width="77.306" height="69.023" style="fill:#414141;"/><path d="M45.571,11.131c0,-4.793 -3.891,-8.684 -8.684,-8.684l-25.485,0c-4.793,0 -8.684,3.891 -8.684,8.684l0,25.485c0,4.793 3.891,8.684 8.684,8.684l25.485,0c4.793,0 8.684,-3.891 8.684,-8.684l0,-25.485Z" style="fill:url(#_Linear1);"/><path d="M45.014,11.463c0,-4.669 -3.79,-8.459 -8.459,-8.459l-24.821,0c-4.668,0 -8.458,3.79 -8.458,8.459l0,24.821c0,4.668 3.79,8.458 8.458,8.458l24.821,0c4.669,0 8.459,-3.79 8.459,-8.458l0,-24.821Z" style="fill:url(#_Linear2);"/><path d="M44.867,11.55c0,-4.635 -3.764,-8.399 -8.399,-8.399l-24.646,0c-4.636,0 -8.399,3.764 -8.399,8.399l0,24.646c0,4.636 3.763,8.399 8.399,8.399l24.646,0c4.635,0 8.399,-3.763 8.399,-8.399l0,-24.646Z" style="fill:url(#_Linear3);"/><g><path d="M12.246,28.554c-0.611,-2.279 3.693,-3.387 4.342,-5.978c0.722,-2.654 2.652,-4.584 5.306,-5.066c2.653,-0.482 5.012,0.643 6.459,2.816c0.965,1.688 6.402,2.093 6.643,4.022c0.317,1.48 1.418,4.819 0.412,6.58c-1.293,2.259 -4.881,2.95 -5.559,4.712c-0.379,0.986 -0.925,1.867 -1.442,2.375c-1.447,1.93 -3.145,2.432 -5.307,1.448c-3.079,-1.404 -4.493,-2.513 -5.383,-4.637c-0.143,-0.335 -2.734,0.871 -3.662,0.186c-1.556,-1.147 -1.652,-5.867 -1.809,-6.458Zm1.881,-5.558c-0.379,0.095 -2.272,-6.768 -2.557,-9.514c-0.284,-2.745 2.841,-3.409 6.912,-5.633c4.071,-2.226 7.319,-3.147 8.805,-1.09c0.941,1.304 3.077,7.91 3.077,7.91c0,0 -0.377,0.597 -0.613,0.552c-0.236,-0.048 -3.127,-6.284 -4.073,-7.136c-0.947,-0.852 -4.085,0.828 -6.826,2.131c-2.721,1.294 -4.63,2.367 -5.34,4.07c-0.711,1.704 1.845,8.238 1.845,8.238c0,0 -0.852,0.377 -1.23,0.472Z" style="fill:url(#_Linear4);fill-rule:nonzero;"/><path d="M24.547,4.967c2.593,-0.811 3.618,1.688 4.1,2.653c1.208,2.653 1.931,5.306 2.655,8.201c0.724,2.655 1.93,5.308 3.859,7.479c1.448,1.688 2.413,3.859 1.931,6.272c-0.483,2.171 -1.69,3.618 -3.618,4.583c-1.206,0.483 -1.931,1.206 -2.414,2.171c-0.482,0.966 -0.963,1.931 -1.447,2.896c-0.966,1.929 -3.376,3.616 -6.272,2.17c-1.447,-0.724 -2.654,-1.688 -3.86,-2.895c-0.964,-0.964 -1.929,-1.688 -3.377,-1.93c-1.205,0 -2.412,-0.241 -3.618,-0.723c-0.483,-0.242 -0.965,-0.724 -1.206,-0.966c-1.447,-3.618 -0.724,-6.995 1.689,-10.13c0.482,-0.724 0.723,-1.448 0.482,-2.172c-0.724,-2.413 -1.448,-4.825 -2.171,-7.236c-0.482,-2.172 0,-3.861 1.929,-5.308c3.62,-2.412 7.478,-3.859 11.338,-5.065Zm-6.621,28.366c0.883,1.541 2.472,5.004 5.174,6.13c1.878,0.835 3.394,0.586 4.707,-0.745c1.396,-1.687 1.868,-2.844 2.278,-4.098c0.925,-2.833 1.136,-5.876 0.493,-8.667c-0.481,-1.929 -1.205,-3.859 -2.171,-5.548c-1.447,-2.171 -3.618,-3.377 -6.271,-2.895c-2.655,0.724 -4.584,2.412 -5.307,5.066c-0.894,2.683 -0.385,6.501 0.041,8.242c0.228,0.934 0.603,1.723 1.056,2.515Zm-0.257,-2.864c0.337,-0.724 1.08,-1.823 2.296,-1.62c1.687,0.241 3.376,-0.242 4.824,-0.966c1.206,-0.482 2.412,-0.964 3.618,-1.206c1.69,-0.242 1.929,0.315 1.929,2.243c0,1.207 -0.097,2.438 -0.339,3.402c-0.163,0.815 -1.652,5.591 -2.523,6.01c-0.386,0.187 -0.669,0.279 -0.996,0.407c-3.054,1.2 -4.343,0.483 -6.273,-2.413c-0.627,-1.044 -1.611,-2.174 -2.076,-3.12c-0.381,-0.779 -0.798,-2.012 -0.46,-2.737Zm-1.947,3.974c-0.586,-2.123 -0.955,-3.908 -1.324,-5.935c-0.113,-0.626 -0.215,-2.012 -0.329,-2.639c-0.553,0.592 -1.502,1.77 -1.476,2.683c0.046,1.681 0.44,3.87 1.253,5.149c0.401,0.631 1.403,0.596 1.876,0.742Zm16.88,-2.193c1.688,-0.965 2.077,-1.93 2.077,-6.297c0,-0.965 -0.848,-2.194 -2.053,-2.678c0.412,2.895 -0.024,5.838 -0.024,8.975Zm-18.369,-9.633l0.183,-0.523l-1.447,-5.789c-0.483,-2.654 -0.242,-3.619 2.171,-4.825c2.412,-1.207 4.583,-2.413 7.236,-3.377c3.347,-1.339 4.145,-1.036 7.447,6.63c0.083,-0.124 0.142,-0.256 0.146,-0.453c-0.482,-0.966 -2.878,-8.45 -4.717,-8.023c-4.39,1.017 -8.662,2.733 -12.274,5.393c-1.104,0.811 -1.146,2.318 -0.986,3.063c0.522,2.411 1.402,5.271 2.241,7.904Zm7.216,-12.976c-2.103,0.934 -4.198,1.876 -6.068,3.045c-0.482,0.24 -0.965,1.206 -1.207,1.931c-0.241,0.965 0,2.17 0.242,3.375c0.241,1.206 0.724,1.448 2.172,0.725c-0.724,-0.483 -1.207,-0.965 -1.931,-1.689c0.965,0.241 1.931,0.241 2.653,0.482l0,-0.482c-0.722,-0.965 -2.17,-1.446 -2.17,-2.894c1.448,0.724 2.654,1.448 4.1,2.412c-0.241,-1.688 -0.723,-2.896 -0.965,-4.101c0.317,0.422 0.587,0.798 0.853,1.168l0.225,0.317c0.265,0.371 0.536,0.746 0.852,1.168c0.241,0.242 0.965,0.484 1.447,0.484c0.242,0 0.724,-0.724 0.724,-1.207c0.724,-1.93 0.242,-3.378 -0.724,-4.825l-0.203,0.091Zm3.85,-0.88c-0.088,0.001 -0.178,0.021 -0.268,0.065c-0.966,0.241 -1.931,0.483 -2.655,0.724c0.724,1.689 1.207,3.136 1.689,4.584c0.242,0.483 0.966,0.964 1.447,1.448c0.113,-0.227 0.28,-0.453 0.449,-0.68l0.067,-0.09c0.17,-0.226 0.336,-0.453 0.45,-0.678c0.241,-0.242 0.241,-0.483 0.482,-0.966c0.482,1.69 -0.965,3.619 1.687,4.584c0.242,-0.724 0.966,-1.689 0.726,-2.17c-0.966,-2.172 -1.931,-4.343 -3.136,-6.273c-0.196,-0.195 -0.549,-0.547 -0.932,-0.548l-0.006,0Z" style="fill:url(#_Linear5);fill-rule:nonzero;"/><path d="M35.095,29.338c0.199,0 0.361,0.158 0.361,0.351c0,0.193 -0.162,0.35 -0.362,0.35c-0.2,0 -0.361,-0.157 -0.361,-0.35c0,-0.193 0.161,-0.351 0.361,-0.351l0.001,0Zm0.087,-0.879c0.199,0 0.362,0.157 0.362,0.349c0,0.193 -0.163,0.35 -0.362,0.35c-0.201,0 -0.363,-0.157 -0.363,-0.35c0,-0.192 0.162,-0.349 0.363,-0.349Zm0.062,-0.907c0.199,0 0.362,0.157 0.362,0.35c0,0.193 -0.163,0.349 -0.362,0.349c-0.201,0 -0.362,-0.156 -0.362,-0.349c0,-0.193 0.161,-0.35 0.362,-0.35Zm0.024,-0.868c0.2,0 0.363,0.156 0.363,0.35c0,0.193 -0.163,0.349 -0.363,0.349c-0.199,0 -0.361,-0.156 -0.361,-0.349c0,-0.194 0.162,-0.35 0.361,-0.35Zm-0.011,-1.018c0.199,0 0.361,0.179 0.361,0.399c0,0.221 -0.162,0.401 -0.361,0.401c-0.201,0 -0.364,-0.18 -0.364,-0.401c0,-0.22 0.163,-0.399 0.364,-0.399Z" style="fill:#f2a700;fill-opacity:0.992157;"/><path d="M11.905,29.826c-0.193,0.052 -0.39,-0.059 -0.44,-0.246c-0.051,-0.187 0.067,-0.379 0.26,-0.431c0.192,-0.052 0.39,0.059 0.439,0.244c0.049,0.188 -0.065,0.381 -0.259,0.433Zm0.142,0.873c-0.192,0.052 -0.39,-0.057 -0.44,-0.244c-0.049,-0.187 0.068,-0.38 0.26,-0.431c0.194,-0.053 0.39,0.058 0.441,0.244c0.049,0.187 -0.067,0.379 -0.261,0.431Zm0.174,0.892c-0.192,0.051 -0.39,-0.058 -0.439,-0.244c-0.051,-0.188 0.066,-0.381 0.259,-0.433c0.193,-0.052 0.39,0.058 0.441,0.245c0.049,0.188 -0.067,0.381 -0.261,0.432Zm0.2,0.845c-0.193,0.052 -0.39,-0.058 -0.44,-0.244c-0.049,-0.187 0.066,-0.38 0.26,-0.432c0.193,-0.051 0.39,0.058 0.439,0.245c0.05,0.187 -0.066,0.38 -0.259,0.431Zm0.273,0.981c-0.192,0.051 -0.394,-0.08 -0.452,-0.293c-0.057,-0.213 0.055,-0.427 0.247,-0.48c0.194,-0.051 0.396,0.08 0.453,0.293c0.058,0.213 -0.054,0.429 -0.248,0.48Z" style="fill:#f2a700;fill-opacity:0.992157;"/><path d="M29.613,30.536c-0.275,0.047 -0.389,0.05 -0.487,-0.135c-0.135,-0.255 -0.214,-0.342 -0.243,-0.674c-0.932,-0.652 -2.686,0.092 -3.852,0.327c-1.674,0.337 -3.094,1.059 -4.585,1.689c-0.718,0.303 -0.252,1.876 -0.766,2.432c-1.206,-0.723 -1.646,-1.949 -1.405,-3.155c0.242,-1.206 1.114,-1.278 2.109,-1.281c1.837,-0.007 2.896,-0.272 4.467,-1.02c0.959,-0.458 1.986,-0.953 2.709,-1.194c0.723,-0.242 1.446,-0.174 1.924,0.285c0.738,0.708 0.352,1.737 0.129,2.726Z" style="fill:#fff;fill-rule:nonzero;"/><path d="M28.165,22.817c-0.128,0.515 -1.197,1.037 -1.363,1.561c-0.052,0.165 0.912,-0.066 1.342,0.46c-0.633,0.116 -1.663,-0.033 -1.733,0.492c0.083,0.201 1.317,0.387 1.514,0.623c-3.618,0.242 -6.755,0.482 -9.65,2.654c0,-0.241 0.698,-1.021 1.197,-1.352c0.161,-0.107 -1.504,0.252 -1.432,0.075c0.089,-0.226 1.528,-0.772 2.099,-0.933c-1.182,-0.418 -2.004,-0.249 -2.728,-0.249c-0.125,-0.21 -0.342,-0.195 -0.342,-0.436c0.725,0 1.206,-0.241 1.93,-0.241c0.724,0 1.238,0.435 1.961,0.475c1.642,0.085 2.863,-0.475 4.071,-1.44c0.964,-1.206 1.929,-1.93 3.134,-1.689Z" style="fill:#393939;fill-rule:nonzero;"/></g><defs><linearGradient id="_Linear1" x1="0" y1="0" x2="1" y2="0" gradientUnits="userSpaceOnUse" gradientTransform="matrix(-42.8533,0.537797,-0.537797,-42.8533,45.5715,22.1542)"><stop offset="0" style="stop-color:#fff;stop-opacity:1"/><stop offset="1" style="stop-color:#7e7e7e;stop-opacity:1"/></linearGradient><linearGradient id="_Linear2" x1="0" y1="0" x2="1" y2="0" gradientUnits="userSpaceOnUse" gradientTransform="matrix(41.7511,9.18754,-9.18754,41.7511,3.00008,20.5264)"><stop offset="0" style="stop-color:#fff;stop-opacity:1"/><stop offset="1" style="stop-color:#989898;stop-opacity:1"/></linearGradient><linearGradient id="_Linear3" x1="0" y1="0" x2="1" y2="0" gradientUnits="userSpaceOnUse" gradientTransform="matrix(34.0936,-38.381,38.381,34.0936,7.12397,42.9009)"><stop offset="0" style="stop-color:#fff;stop-opacity:1"/><stop offset="1" style="stop-color:#888;stop-opacity:1"/></linearGradient><linearGradient id="_Linear4" x1="0" y1="0" x2="1" y2="0" gradientUnits="userSpaceOnUse" gradientTransform="matrix(-3.32465,-33.4451,33.4451,-3.32465,222.617,20.9419)"><stop offset="0" style="stop-color:#ff9a2c;stop-opacity:1"/><stop offset="1" style="stop-color:#f2a700;stop-opacity:0.992157"/></linearGradient><linearGradient id="_Linear5" x1="0" y1="0" x2="1" y2="0" gradientUnits="userSpaceOnUse" gradientTransform="matrix(0.827048,-36.621,36.621,0.827048,208.835,45.7579)"><stop offset="0" style="stop-color:#161616;stop-opacity:1"/><stop offset="1" style="stop-color:#353535;stop-opacity:1"/></linearGradient></defs></svg>