<?xml version="1.0" encoding="UTF-8" standalone="no"?><!DOCTYPE svg PUBLIC "-//W3C//DTD SVG 1.1//EN" "http://www.w3.org/Graphics/SVG/1.1/DTD/svg11.dtd"><svg width="100%" height="100%" viewBox="0 0 48 48" version="1.1" xmlns="http://www.w3.org/2000/svg" xmlns:xlink="http://www.w3.org/1999/xlink" xml:space="preserve" xmlns:serif="http://www.serif.com/" style="fill-rule:evenodd;clip-rule:evenodd;stroke-linejoin:round;stroke-miterlimit:1.41421;"><path d="M45.347,29.237c3.002,-3.002 3.002,-7.869 0,-10.872c-4.555,-4.554 -11.024,-11.023 -15.579,-15.578c-3.002,-3.002 -7.869,-3.002 -10.871,0c-4.735,4.735 -11.566,11.566 -16.301,16.301c-3.002,3.002 -3.002,7.87 0,10.872c4.554,4.554 11.023,11.024 15.578,15.578c3.002,3.002 7.869,3.002 10.871,0c4.736,-4.735 11.566,-11.566 16.302,-16.301Z" style="fill:url(#_Linear1);"/><g><path d="M12.575,29.821c-0.637,-2.376 3.852,-3.532 4.528,-6.235c0.754,-2.767 2.767,-4.78 5.535,-5.283c2.767,-0.503 5.227,0.671 6.736,2.937c1.007,1.76 6.678,2.183 6.929,4.195c0.331,1.543 1.479,5.025 0.429,6.862c-1.348,2.357 -5.09,3.077 -5.797,4.915c-0.396,1.029 -0.965,1.948 -1.504,2.477c-1.509,2.013 -3.281,2.537 -5.535,1.51c-3.212,-1.463 -4.687,-2.621 -5.615,-4.836c-0.148,-0.35 -2.851,0.908 -3.819,0.194c-1.623,-1.196 -1.723,-6.119 -1.887,-6.736Zm1.962,-5.796c-0.396,0.098 -2.37,-7.06 -2.667,-9.924c-0.296,-2.863 2.963,-3.555 7.209,-5.875c4.246,-2.321 7.634,-3.282 9.183,-1.136c0.982,1.36 3.21,8.249 3.21,8.249c0,0 -0.393,0.624 -0.64,0.576c-0.246,-0.05 -3.261,-6.554 -4.248,-7.443c-0.988,-0.888 -4.26,0.864 -7.119,2.223c-2.838,1.35 -4.829,2.469 -5.57,4.245c-0.741,1.778 1.925,8.592 1.925,8.592c0,0 -0.888,0.394 -1.283,0.493Z" style="fill:url(#_Linear2);fill-rule:nonzero;"/><path d="M25.405,5.22c2.704,-0.845 3.774,1.761 4.277,2.767c1.259,2.768 2.013,5.535 2.768,8.554c0.755,2.769 2.013,5.536 4.026,7.8c1.51,1.762 2.516,4.026 2.013,6.542c-0.503,2.265 -1.762,3.774 -3.774,4.781c-1.258,0.503 -2.013,1.257 -2.517,2.264c-0.503,1.007 -1.005,2.013 -1.509,3.02c-1.007,2.012 -3.522,3.772 -6.542,2.264c-1.509,-0.756 -2.768,-1.762 -4.025,-3.02c-1.007,-1.006 -2.013,-1.761 -3.523,-2.013c-1.257,0 -2.516,-0.251 -3.773,-0.754c-0.504,-0.252 -1.007,-0.755 -1.259,-1.007c-1.509,-3.774 -0.755,-7.296 1.762,-10.566c0.503,-0.756 0.754,-1.511 0.503,-2.266c-0.755,-2.516 -1.51,-5.032 -2.265,-7.547c-0.503,-2.265 0,-4.026 2.013,-5.536c3.775,-2.516 7.799,-4.025 11.825,-5.283Zm-6.906,29.586c0.921,1.607 2.579,5.219 5.397,6.393c1.958,0.871 3.54,0.612 4.909,-0.776c1.456,-1.76 1.948,-2.966 2.376,-4.275c0.965,-2.954 1.185,-6.128 0.514,-9.039c-0.502,-2.013 -1.257,-4.025 -2.264,-5.787c-1.509,-2.264 -3.774,-3.522 -6.541,-3.019c-2.768,0.755 -4.781,2.516 -5.535,5.283c-0.933,2.799 -0.401,6.781 0.043,8.597c0.237,0.974 0.628,1.797 1.101,2.623Zm-0.268,-2.987c0.352,-0.755 1.127,-1.902 2.395,-1.69c1.76,0.251 3.521,-0.252 5.031,-1.007c1.258,-0.503 2.516,-1.006 3.774,-1.258c1.762,-0.252 2.012,0.328 2.012,2.34c0,1.258 -0.101,2.542 -0.353,3.548c-0.171,0.85 -1.724,5.831 -2.632,6.268c-0.402,0.195 -0.698,0.29 -1.04,0.424c-3.184,1.252 -4.529,0.504 -6.541,-2.516c-0.654,-1.089 -1.681,-2.268 -2.166,-3.255c-0.397,-0.812 -0.832,-2.098 -0.48,-2.854Zm-2.03,4.145c-0.612,-2.215 -0.997,-4.076 -1.381,-6.19c-0.119,-0.653 -0.225,-2.099 -0.344,-2.753c-0.576,0.617 -1.566,1.846 -1.539,2.799c0.048,1.752 0.459,4.036 1.306,5.37c0.419,0.658 1.464,0.621 1.958,0.774Zm17.605,-2.288c1.761,-1.006 2.166,-2.012 2.166,-6.567c0,-1.006 -0.884,-2.289 -2.141,-2.793c0.43,3.019 -0.025,6.089 -0.025,9.36Zm-19.158,-10.047l0.19,-0.545l-1.509,-6.039c-0.503,-2.767 -0.252,-3.774 2.264,-5.031c2.516,-1.259 4.781,-2.517 7.548,-3.523c3.491,-1.397 4.323,-1.08 7.767,6.915c0.086,-0.129 0.147,-0.267 0.152,-0.473c-0.503,-1.007 -3.002,-8.813 -4.92,-8.367c-4.579,1.061 -9.034,2.85 -12.802,5.625c-1.151,0.846 -1.195,2.417 -1.027,3.194c0.544,2.516 1.461,5.498 2.337,8.244Zm7.526,-13.534c-2.194,0.975 -4.379,1.957 -6.329,3.176c-0.503,0.251 -1.007,1.258 -1.259,2.014c-0.251,1.006 0,2.264 0.252,3.521c0.252,1.258 0.755,1.51 2.265,0.756c-0.755,-0.504 -1.258,-1.007 -2.013,-1.762c1.006,0.252 2.013,0.252 2.767,0.503c0,-0.251 0,-0.251 0,-0.503c-0.754,-1.007 -2.264,-1.509 -2.264,-3.019c1.51,0.755 2.768,1.51 4.277,2.516c-0.251,-1.761 -0.755,-3.02 -1.007,-4.277c0.331,0.44 0.613,0.832 0.889,1.218l0.236,0.331c0.276,0.386 0.558,0.778 0.889,1.218c0.251,0.252 1.006,0.504 1.509,0.504c0.252,0 0.755,-0.755 0.755,-1.258c0.755,-2.013 0.252,-3.523 -0.755,-5.032l-0.212,0.094Zm4.016,-0.918c-0.093,0.001 -0.187,0.022 -0.281,0.069c-1.007,0.251 -2.013,0.503 -2.768,0.755c0.755,1.761 1.258,3.27 1.761,4.78c0.252,0.504 1.007,1.006 1.509,1.51c0.118,-0.236 0.292,-0.472 0.469,-0.708l0.07,-0.094c0.177,-0.236 0.35,-0.473 0.468,-0.708c0.252,-0.252 0.252,-0.503 0.504,-1.007c0.503,1.762 -1.007,3.775 1.76,4.781c0.252,-0.755 1.007,-1.762 0.756,-2.264c-1.007,-2.265 -2.013,-4.529 -3.271,-6.542c-0.204,-0.203 -0.572,-0.571 -0.971,-0.572l-0.006,0Z" style="fill:url(#_Linear3);fill-rule:nonzero;"/><path d="M36.406,30.64c0.208,0 0.377,0.164 0.377,0.365c0,0.202 -0.169,0.365 -0.378,0.365c-0.208,0 -0.377,-0.163 -0.377,-0.365c0,-0.201 0.169,-0.365 0.377,-0.365l0.001,0Zm0.091,-0.918c0.208,0 0.378,0.164 0.378,0.364c0,0.202 -0.17,0.366 -0.378,0.366c-0.209,0 -0.378,-0.164 -0.378,-0.366c0,-0.2 0.169,-0.364 0.378,-0.364Zm0.065,-0.946c0.207,0 0.377,0.164 0.377,0.366c0,0.201 -0.17,0.364 -0.377,0.364c-0.209,0 -0.378,-0.163 -0.378,-0.364c0,-0.202 0.169,-0.366 0.378,-0.366Zm0.025,-0.905c0.209,0 0.378,0.163 0.378,0.365c0,0.201 -0.169,0.365 -0.378,0.365c-0.208,0 -0.377,-0.164 -0.377,-0.365c0,-0.202 0.169,-0.365 0.377,-0.365Zm-0.012,-1.062c0.208,0 0.377,0.187 0.377,0.417c0,0.23 -0.169,0.417 -0.377,0.417c-0.209,0 -0.379,-0.187 -0.379,-0.417c0,-0.23 0.17,-0.417 0.379,-0.417Z" style="fill:#f2a700;fill-opacity:0.992157;"/><path d="M12.219,31.148c-0.201,0.054 -0.407,-0.061 -0.459,-0.256c-0.052,-0.195 0.07,-0.396 0.271,-0.45c0.201,-0.054 0.407,0.061 0.459,0.255c0.051,0.196 -0.069,0.397 -0.271,0.451Zm0.149,0.911c-0.201,0.054 -0.407,-0.06 -0.459,-0.255c-0.052,-0.195 0.07,-0.396 0.271,-0.45c0.202,-0.054 0.407,0.061 0.459,0.255c0.052,0.195 -0.069,0.396 -0.271,0.45Zm0.181,0.93c-0.201,0.054 -0.407,-0.061 -0.458,-0.255c-0.053,-0.195 0.069,-0.397 0.27,-0.451c0.202,-0.054 0.407,0.061 0.46,0.256c0.051,0.195 -0.07,0.396 -0.272,0.45Zm0.208,0.882c-0.2,0.054 -0.406,-0.061 -0.459,-0.255c-0.051,-0.195 0.07,-0.397 0.272,-0.45c0.201,-0.054 0.407,0.06 0.458,0.255c0.052,0.195 -0.069,0.396 -0.271,0.45Zm0.286,1.023c-0.201,0.053 -0.412,-0.084 -0.472,-0.306c-0.059,-0.223 0.057,-0.446 0.257,-0.5c0.203,-0.054 0.413,0.083 0.473,0.305c0.06,0.222 -0.056,0.447 -0.258,0.501Z" style="fill:#f2a700;fill-opacity:0.992157;"/><path d="M30.689,31.889c-0.287,0.049 -0.406,0.052 -0.508,-0.141c-0.141,-0.266 -0.223,-0.357 -0.254,-0.703c-0.972,-0.68 -2.801,0.096 -4.018,0.341c-1.745,0.351 -3.226,1.105 -4.781,1.762c-0.749,0.316 -0.263,1.957 -0.8,2.537c-1.257,-0.755 -1.716,-2.034 -1.465,-3.292c0.252,-1.258 1.162,-1.332 2.2,-1.336c1.916,-0.007 3.021,-0.283 4.659,-1.063c1,-0.478 2.072,-0.994 2.826,-1.246c0.754,-0.252 1.508,-0.181 2.006,0.297c0.77,0.739 0.368,1.812 0.135,2.844Z" style="fill:#fff;fill-rule:nonzero;"/><path d="M29.179,23.838c-0.134,0.537 -1.249,1.082 -1.422,1.628c-0.055,0.172 0.951,-0.069 1.399,0.479c-0.66,0.122 -1.734,-0.034 -1.807,0.514c0.087,0.21 1.374,0.404 1.579,0.65c-3.774,0.252 -7.045,0.503 -10.065,2.768c0,-0.252 0.728,-1.065 1.249,-1.41c0.168,-0.112 -1.569,0.263 -1.494,0.078c0.093,-0.236 1.594,-0.806 2.189,-0.974c-1.232,-0.436 -2.09,-0.259 -2.845,-0.259c-0.13,-0.219 -0.357,-0.203 -0.357,-0.454c0.756,0 1.258,-0.252 2.013,-0.252c0.756,0 1.292,0.454 2.046,0.495c1.712,0.089 2.986,-0.495 4.245,-1.501c1.006,-1.259 2.013,-2.014 3.27,-1.762Z" style="fill:#393939;fill-rule:nonzero;"/></g><defs><linearGradient id="_Linear1" x1="0" y1="0" x2="1" y2="0" gradientUnits="userSpaceOnUse" gradientTransform="matrix(-11.9538,-45.4779,45.4779,-11.9538,24.7522,49.1607)"><stop offset="0" style="stop-color:#a2a2a2;stop-opacity:1"/><stop offset="1" style="stop-color:#ebebeb;stop-opacity:1"/></linearGradient><linearGradient id="_Linear2" x1="0" y1="0" x2="1" y2="0" gradientUnits="userSpaceOnUse" gradientTransform="matrix(-3.46759,-34.8829,34.8829,-3.46759,26.4173,42.3175)"><stop offset="0" style="stop-color:#ff9a2c;stop-opacity:1"/><stop offset="1" style="stop-color:#f2a700;stop-opacity:0.992157"/></linearGradient><linearGradient id="_Linear3" x1="0" y1="0" x2="1" y2="0" gradientUnits="userSpaceOnUse" gradientTransform="matrix(0.862604,-38.1954,38.1954,0.862604,24.5755,43.4054)"><stop offset="0" style="stop-color:#2e2e2e;stop-opacity:1"/><stop offset="1" style="stop-color:#484848;stop-opacity:1"/></linearGradient></defs></svg>