<svg style="clip-rule:evenodd;fill-rule:evenodd;stroke-linejoin:round;stroke-miterlimit:2" version="1.1" viewBox="0 0 48 48" xmlns="http://www.w3.org/2000/svg">
 <path d="m29.449 5.668c0-1.796-1.458-3.254-3.253-3.254h-16.064c-1.796 0-3.254 1.458-3.254 3.254v36.578c0 1.795 1.458 3.253 3.254 3.253h16.064c1.795 0 3.253-1.458 3.253-3.253v-36.578z" style="fill:url(#_Linear1)"/>
 <path d="m42.194 4.349c0-0.954-0.775-1.729-1.729-1.729h-10.657c-0.954 0-1.729 0.775-1.729 1.729v39.838c0 0.954 0.775 1.729 1.729 1.729h10.657c0.954 0 1.729-0.775 1.729-1.729v-39.838z" style="fill:#ebebeb"/>
 <path d="m37.669 47.571l-14.396-2.061v-43.099l14.276-1.619c1.766-0.165 1.861 0.43 1.861 2.452l-0.12 41.112c0.111 2.218 0.096 3.215-1.621 3.215z" style="fill:url(#_Linear2)"/>
 <path d="m34.967 26.753c-0.484-0.476-1.557-0.729-3.19-0.75-1.106-0.018-2.436 0.084-3.835 0.281-0.627-0.362-1.273-0.755-1.78-1.229-1.363-1.273-2.501-3.041-3.211-4.985 0.046-0.181 0.086-0.341 0.122-0.503 0 0 0.769-4.363 0.565-5.838-0.028-0.203-0.045-0.262-0.099-0.419l-0.067-0.17c-0.209-0.482-0.619-0.993-1.261-0.965l-0.377-0.018h-0.01c-0.716 0-1.3 0.366-1.453 0.914-0.466 1.717 0.015 4.286 0.886 7.613l-0.223 0.542c-0.624 1.52-1.405 3.051-2.095 4.402l-0.089 0.176c-0.726 1.419-1.384 2.624-1.981 3.645l-0.616 0.326c-0.045 0.023-1.1 0.582-1.348 0.732-2.101 1.254-3.493 2.678-3.724 3.808-0.073 0.361-0.019 0.822 0.355 1.036l0.596 0.3c0.258 0.13 0.531 0.195 0.81 0.195 1.497 0 3.234-1.864 5.627-6.04 2.762-0.9 5.908-1.648 8.665-2.06 2.101 1.183 4.685 2.005 6.316 2.005 0.289 0 0.539-0.029 0.742-0.081 0.313-0.083 0.576-0.262 0.737-0.503 0.316-0.477 0.381-1.133 0.295-1.804-0.026-0.199-0.185-0.446-0.357-0.614v4e-3zm-22.349 7.962c0.273-0.746 1.353-2.221 2.95-3.53 0.1-0.081 0.347-0.313 0.574-0.528-1.67 2.664-2.788 3.725-3.524 4.058zm9.459-21.781c0.481 0 0.754 1.212 0.777 2.349 0.023 1.136-0.243 1.934-0.573 2.524-0.273-0.874-0.405-2.251-0.405-3.152 0 0-0.02-1.721 0.201-1.721zm-2.822 15.521c0.335-0.599 0.684-1.232 1.04-1.903 0.868-1.642 1.417-2.926 1.825-3.983 0.812 1.478 1.824 2.735 3.013 3.741 0.148 0.125 0.306 0.252 0.471 0.378-2.419 0.478-4.509 1.06-6.349 1.767zm15.247-0.135c-0.147 0.091-0.569 0.146-0.841 0.146-0.875 0-1.959-0.4-3.478-1.052 0.583-0.044 1.119-0.065 1.599-0.065 0.878 0 1.138 0 1.997 0.215 0.859 0.22 0.87 0.665 0.723 0.757v-1e-3z" style="fill-rule:nonzero;fill:url(#_Linear3)"/>
 <defs>
  <linearGradient id="_Linear1" x2="1" gradientTransform="matrix(.496278 -43.0843 43.0843 .496278 16.2518 45.4988)" gradientUnits="userSpaceOnUse">
   <stop style="stop-color:#d92f2f" offset="0"/>
   <stop style="stop-color:#ff6c6c" offset="1"/>
  </linearGradient>
  <linearGradient id="_Linear2" x2="1" gradientTransform="matrix(2.82314e-15,-46.1054,46.1054,2.82314e-15,33.6203,45.6668)" gradientUnits="userSpaceOnUse">
   <stop style="stop-color:#ab0101" offset="0"/>
   <stop style="stop-color:#f75151" offset="1"/>
  </linearGradient>
  <linearGradient id="_Linear3" x2="1" gradientTransform="matrix(24.2053,0,0,24.2053,11.153,24.0013)" gradientUnits="userSpaceOnUse">
   <stop style="stop-color:#f6fbff" offset="0"/>
   <stop style="stop-color:#eaeff2" offset="1"/>
  </linearGradient>
 </defs>
</svg>
