<svg style="clip-rule:evenodd;fill-rule:evenodd;stroke-linejoin:round;stroke-miterlimit:1.41421" version="1.1" viewBox="0 0 64 64" xmlns="http://www.w3.org/2000/svg">
 <circle cx="32" cy="32" r="28" style="fill:url(#_Linear1)"/>
 <path d="m12.92 26.08l6e-3 -0.018 5e-3 7e-3 4.069-4.069 10 10h-5c0 5.486 4.514 10 10 10 2.613 0 5.124-1.024 6.992-2.852l5.68 5.68 1.379 1.379c-3.738 3.703-8.79 5.786-14.051 5.793-10.972 0-20-9.028-20-20h-5l5.92-5.92zm29.08 5.92c0-5.486-4.514-10-10-10-2.514 4e-3 -4.937 0.955-6.781 2.664l-5.492-5.492-1.575-1.574c3.719-3.583 8.684-5.59 13.848-5.598 10.972 0 20 9.028 20 20h5l-10 10-10-10h5z" style="fill-rule:nonzero;fill:#e7e7e7"/>
 <defs>
  <linearGradient id="_Linear1" x2="1" gradientTransform="matrix(3.28252,-55.8648,55.8648,3.28252,31.4234,59.9942)" gradientUnits="userSpaceOnUse">
   <stop style="stop-color:#430043" offset="0"/>
   <stop style="stop-color:#821a82" offset="1"/>
  </linearGradient>
 </defs>
</svg>
