<svg clip-rule="evenodd" fill-rule="evenodd" stroke-linejoin="round" stroke-miterlimit="2" viewBox="0 0 48 48" xmlns="http://www.w3.org/2000/svg">
 <linearGradient id="a" x2="1" gradientTransform="matrix(-.00109739 -43.1476 43.1476 -.00109739 39.8673 45.363)" gradientUnits="userSpaceOnUse">
  <stop stop-color="#b7b4b4" offset="0"/>
  <stop stop-color="#f1f1f1" offset="1"/>
 </linearGradient>
 <linearGradient id="b" x2="1" gradientTransform="matrix(0 -42.2226 42.2226 0 107.659 44.3392)" gradientUnits="userSpaceOnUse">
  <stop stop-color="#8e44ad" offset="0"/>
  <stop stop-color="#c16ee3" offset="1"/>
 </linearGradient>
 <linearGradient id="c" x2="1" gradientTransform="matrix(18.6327 -22.6254 22.6254 18.6327 321.064 292.85)" gradientUnits="userSpaceOnUse">
  <stop stop-color="#f6fbff" offset="0"/>
  <stop stop-color="#eaeff2" offset="1"/>
 </linearGradient>
 <path d="m42.397 45.363-12.085-.014v-43.099l12.431-.045c2.16.026 3.24 1.708 3.24 3.729v35.526c.094 2.219-1.372 3.855-3.586 3.903z" fill="url(#a)"/>
 <path d="m23.275 2.257 16.512-1.548c2.209-.223 3.174.962 3.191 3.337l-.14 39.051c-.04 2.642-1.222 4.026-3.552 4.123l-15.903-1.857h-16.984c-2.169 0-4.373-1.766-4.385-4.518v-34.223c.083-3.166 1.403-4.359 4.569-4.417z" fill="url(#b)"/>
 <path d="m42.838 43.097c-.04 2.642-1.222 4.026-3.552 4.123l-16.083-1.878v-43.078l16.584-1.555c2.209-.223 3.174.962 3.191 3.337z" fill-opacity=".15"/>
 <path d="m31.522 17.45c.058-.16.099-.323.099-.496 0-2.121-4.583-3.265-8.897-3.265-4.309 0-8.891 1.144-8.891 3.265 0 .174.04.337.098.497l-.023.043c-.197.357-.294.718-.294 1.073v2.625c0 .404.127.792.352 1.159l-.029.051c-.215.373-.323.75-.323 1.123v2.624c0 .391.12.767.333 1.124l-.011.023c-.215.372-.323.75-.323 1.122v2.625c0 2.332 4.002 4.159 9.111 4.159 5.114 0 9.115-1.827 9.115-4.159v-2.625c0-.373-.108-.752-.325-1.123l-.009-.023c.211-.357.334-.733.334-1.125v-2.624c0-.373-.108-.752-.325-1.124l-.029-.05c.226-.367.354-.754.354-1.16v-2.624c0-.355-.099-.717-.294-1.075l-.024-.042zm-.659 13.583c0 1.507-3.34 3.184-8.139 3.184-4.794 0-8.135-1.677-8.135-3.184v-2.468c1.496 1.371 4.574 2.245 8.135 2.245 3.566 0 6.644-.875 8.139-2.246zm0-4.886c0 1.506-3.34 3.183-8.139 3.183-4.794 0-8.135-1.677-8.135-3.183v-2.469c1.496 1.37 4.574 2.245 8.135 2.245 3.566 0 6.644-.875 8.139-2.246zm0-4.957c0 1.505-3.34 3.183-8.139 3.183-4.794 0-8.135-1.677-8.135-3.183v-2.184c1.462 1.239 4.852 1.882 8.135 1.882 3.287 0 6.676-.643 8.139-1.882z" fill="url(#c)" fill-rule="nonzero"/>
</svg>
