<svg style="clip-rule:evenodd;fill-rule:evenodd;stroke-linejoin:round;stroke-miterlimit:2" version="1.1" viewBox="0 0 48 48" xmlns="http://www.w3.org/2000/svg">
 <circle cx="24" cy="24" r="22.764" style="fill:url(#_Linear1)"/>
 <path d="m13.214 3.903c-2.076 1.117-3.967 2.549-5.605 4.245l31.674 19.218-33.948-16.483c-1.38 1.958-2.444 4.122-3.152 6.411l38.125 12.591-38.84-9.349c-0.186 1.145-0.285 2.303-0.295 3.464 2e-3 1.262 0.109 2.521 0.319 3.765l35.744 3.545-34.868-0.112c0.705 2.117 1.716 4.118 3.001 5.941l32.534-2.942-30.519 5.433c1.66 1.77 3.592 3.265 5.723 4.427l31.245-9.771c0.698-1.381 1.254-2.829 1.659-4.323l-32.797-26.06z" style="fill-rule:nonzero;fill:url(#_Linear2)"/>
 <defs>
  <linearGradient id="_Linear1" x2="1" gradientTransform="matrix(.414718 -45.4577 45.4577 .414718 25.0499 46.7402)" gradientUnits="userSpaceOnUse">
   <stop style="stop-color:#00145d" offset="0"/>
   <stop style="stop-color:#2a4986" offset="1"/>
  </linearGradient>
  <linearGradient id="_Linear2" x2="1" gradientTransform="matrix(.621194 -42.8109 42.8109 .621194 25.2254 44.0569)" gradientUnits="userSpaceOnUse">
   <stop style="stop-color:#def5fb" offset="0"/>
   <stop style="stop-color:#fff" offset="1"/>
  </linearGradient>
 </defs>
</svg>
