<svg style="clip-rule:evenodd;fill-rule:evenodd;stroke-linejoin:round;stroke-miterlimit:2" version="1.1" viewBox="0 0 64 64" xmlns="http://www.w3.org/2000/svg">
 <path d="m60 13.048c0-4.994-4.054-9.048-9.048-9.048h-37.904c-4.994 0-9.048 4.054-9.048 9.048v37.904c0 4.994 4.054 9.048 9.048 9.048h37.904c4.994 0 9.048-4.054 9.048-9.048v-37.904z" style="fill:url(#_Linear1)"/>
 <path d="m24.389 20.723c4.944-2.329 10.935-2.191 15.839 0.185 3.393 1.612 6.245 4.303 8.068 7.587-1.135 0.573-2.275 1.133-3.411 1.697-1.81-3.266-4.714-5.899-8.152-7.36-4.53-1.979-9.938-1.921-14.363 0.324-2.474 1.192-4.527 3.086-6.223 5.224 1.894-3.306 4.772-6.058 8.242-7.657z" style="fill-rule:nonzero;fill:#fda83c"/>
 <path d="m32.025 25.021c-4.429-0.044-8.582 2.489-11.004 6.127l0.036 0.018c2.327-2.329 5.5-3.928 8.845-3.793 3.893 0.031 7.559 2.246 9.645 5.494 1.133-0.566 2.266-1.131 3.398-1.697-2.325-3.696-6.513-6.2-10.92-6.149z" style="fill-rule:nonzero;fill:#ed4b2a"/>
 <path d="m11 29.537c6.996 3.509 13.998 7.004 21 10.503 6.999-3.498 14.001-6.994 21-10.498-5e-3 0.986-6e-3 1.972-3e-3 2.957-7.002 3.497-14.002 6.997-21 10.501-6.997-3.503-13.995-7.003-20.994-10.501 0-0.988 0-1.975-3e-3 -2.962z" style="fill-rule:nonzero;fill:#96cc1c"/>
 <path d="m26.017 33.51c1.289-1.781 3.165-3.321 5.447-3.458 2.667-0.277 5.171 1.358 6.529 3.572-1.126 0.57-2.261 1.127-3.387 1.694-1.052-1.596-2.722-2.897-4.686-3.011-1.415-0.163-2.743 0.462-3.903 1.203z" style="fill-rule:nonzero;fill:#c42198"/>
 <defs>
  <linearGradient id="_Linear1" x2="1" gradientTransform="matrix(-.833747 -55.1067 55.1067 -.833747 32.8337 59.4739)" gradientUnits="userSpaceOnUse">
   <stop style="stop-color:#2a2a2a" offset="0"/>
   <stop style="stop-color:#3f3f3f" offset="1"/>
  </linearGradient>
 </defs>
</svg>
