<svg clip-rule="evenodd" fill-rule="evenodd" stroke-linejoin="round" stroke-miterlimit="2" viewBox="0 0 48 48" xmlns="http://www.w3.org/2000/svg">
 <linearGradient id="a" x2="1" gradientTransform="matrix(-39.6865 -39.6865 39.6865 -39.6865 43.8433 43.8432)" gradientUnits="userSpaceOnUse">
  <stop stop-color="#2f63b3" offset="0"/>
  <stop stop-color="#357ab4" offset="1"/>
 </linearGradient>
 <linearGradient id="b" x2="1" gradientTransform="matrix(0 -34.4282 34.4282 0 24.1935 45.975)" gradientUnits="userSpaceOnUse">
  <stop stop-color="#a82b2b" offset="0"/>
  <stop stop-color="#ee5050" offset="1"/>
 </linearGradient>
 <path transform="matrix(.553812 .553812 -.553812 .553812 24 -2.58298)" d="m39.44 45.668h-30.88c-3.438 0-6.228-2.79-6.228-6.228v-30.88c0-3.438 2.79-6.228 6.228-6.228h30.88c3.438 0 6.228 2.79 6.228 6.228v30.88c0 3.438-2.79 6.228-6.228 6.228z" fill="url(#a)"/>
 <g fill-rule="nonzero">
  <path d="m14.052 38.052 4.715-14.052v-7.326l.106-1.047c.498-2.436 2.641-4.186 5.127-4.186 2.485.002 4.626 1.751 5.123 4.186l.11 1.047v7.326l5.102 13.665-6.886 6.886c-1.904 1.904-4.994 1.904-6.898 0z" fill="url(#b)"/>
  <path d="m19.195 43.195 2.712-19.195v-8.373s0-4.186 2.093-4.186 2.093 4.186 2.093 4.186v8.373l2.712 19.195-1.356 1.356c-1.904 1.904-4.994 1.904-6.898 0z" fill="#ffce35"/>
  <g transform="matrix(1.04661 0 0 1.04661 -1.1187 -1.1187)">
   <path d="m24 20c-2 0-2 2-2 2v4h4v-4s0-2-2-2zm7-2c0-.552-.448-1-1-1h-12c-.552 0-1 .448-1 1s.448 1 1 1h12c.552 0 1-.448 1-1zm-8-15v9.101h2v-9.101z" fill="#3f3f3f"/>
   <path d="m32 6.5-7 3.5v-7z" fill="#ffce35"/>
  </g>
 </g>
</svg>
