<svg style="clip-rule:evenodd;fill-rule:evenodd;stroke-linecap:round;stroke-linejoin:round" version="1.1" viewBox="0 0 48 48" xmlns="http://www.w3.org/2000/svg">
 <path d="m45.668 8.56c0-3.438-2.79-6.228-6.228-6.228h-30.88c-3.438 0-6.228 2.79-6.228 6.228v30.88c0 3.438 2.79 6.228 6.228 6.228h30.88c3.438 0 6.228-2.79 6.228-6.228v-30.88z" style="fill:url(#_Linear1)"/>
 <path d="m4.745 2.332h38.51c1.387 0 2.413 1.113 2.413 2.497v7.874h-43.336v-7.874c0-1.384 1.026-2.497 2.413-2.497z" style="fill:url(#_Linear2);stroke-width:.04px;stroke:url(#_Linear3)"/>
 <path d="m26.759 12.504h6.866l5.367-4.747-5.367-5.251h-6.866l4.865 5.251-4.865 4.747zm-17.291 0h6.866l5.367-4.747-5.367-5.251h-6.866l4.865 5.251-4.865 4.747z" style="fill-opacity:.95;fill:white"/>
 <g transform="matrix(1.17286,0,0,1.17286,-4.14863,-8.37919)">
  <path d="m19.507 21.414c-0.651 1.143-1.022 2.508-0.371 3.651l4.021 5.654-2.319 4.033c-0.502-0.471-1.168-0.764-1.908-0.764-1.56 0-2.816 1.275-2.816 2.858s1.256 2.858 2.816 2.858c1.561 0 2.817-1.275 2.817-2.858 0-0.191-0.02-0.378-0.055-0.558l1.309-2.302c0.879-0.012 0.99-0.886 1.503-0.898l1.806 3.18c-0.037 0.186-0.057 0.38-0.057 0.578 0 1.583 1.256 2.858 2.817 2.858 1.56 0 2.816-1.275 2.816-2.858s-1.256-2.858-2.816-2.858c-0.736 0-1.398 0.291-1.899 0.757l-2.315-4.026 3.989-5.557c0.651-1.143 0.312-2.605-0.339-3.748l-4.499 7.827-4.5-7.827zm4.493 9.145c0.312 0 0.563 0.255 0.563 0.571 0 0.317-0.251 0.572-0.563 0.572s-0.563-0.255-0.563-0.572c0-0.316 0.251-0.571 0.563-0.571zm-5.07 4.572c0.936 0 1.69 0.765 1.69 1.715s-0.754 1.714-1.69 1.714-1.69-0.764-1.69-1.714 0.754-1.715 1.69-1.715zm10.14 0c0.936 0 1.69 0.765 1.69 1.715s-0.754 1.714-1.69 1.714-1.69-0.764-1.69-1.714 0.754-1.715 1.69-1.715z" style="fill-rule:nonzero;fill:white"/>
 </g>
 <defs>
  <linearGradient id="_Linear1" x2="1" gradientTransform="matrix(2.06275e-15,-33.6872,33.6872,2.06275e-15,923.28,40.4502)" gradientUnits="userSpaceOnUse">
   <stop style="stop-color:rgb(0,103,131)" offset="0"/>
   <stop style="stop-color:rgb(19,190,227)" offset="1"/>
  </linearGradient>
  <linearGradient id="_Linear2" x2="1" gradientTransform="matrix(-.203571 -10.2354 10.2354 -.203571 48.1406 12.2617)" gradientUnits="userSpaceOnUse">
   <stop style="stop-color:rgb(46,52,54)" offset="0"/>
   <stop style="stop-color:rgb(85,87,83)" offset="1"/>
  </linearGradient>
  <linearGradient id="_Linear3" x2="1" gradientTransform="matrix(.271157 13.6336 -13.6336 .271157 47.6658 -11.6073)" gradientUnits="userSpaceOnUse">
   <stop style="stop-color:rgb(46,52,54)" offset="0"/>
   <stop style="stop-color:rgb(85,87,83)" offset="1"/>
  </linearGradient>
 </defs>
</svg>
