<svg style="clip-rule:evenodd;fill-rule:evenodd;stroke-linejoin:round;stroke-miterlimit:2" version="1.1" viewBox="0 0 48 48" xmlns="http://www.w3.org/2000/svg">
 <path d="m45.668 8.56c0-3.438-2.79-6.228-6.228-6.228h-30.88c-3.438 0-6.228 2.79-6.228 6.228v30.88c0 3.438 2.79 6.228 6.228 6.228h30.88c3.438 0 6.228-2.79 6.228-6.228v-30.88z" style="fill:url(#_Linear1)"/>
 <path d="m36.503 6.837c-2.743 0-5 2.257-5 5 1e-3 0.852 0.219 1.69 0.635 2.433l-1.637 1.567h-13.236l-4.821 4.963c-0.853-0.624-1.884-0.961-2.941-0.963-2.743 0-5 2.257-5 5s2.257 5 5 5 5-2.257 5-5c-2e-3 -0.9-0.247-1.783-0.709-2.555l4.316-4.445h13.194l2.14-2.049c0.875 0.679 1.952 1.048 3.059 1.049 2.743 0 5-2.257 5-5s-2.257-5-5-5zm-25 2c-1.097 0-2 0.903-2 2s0.903 2 2 2 2-0.903 2-2-0.903-2-2-2zm8 0c-1.097 0-2 0.903-2 2s0.903 2 2 2 2-0.903 2-2-0.903-2-2-2zm7 0c-1.097 0-2 0.903-2 2s0.903 2 2 2 2-0.903 2-2-0.903-2-2-2zm10 0c1.646 0 3 1.354 3 3s-1.354 3-3 3-3-1.354-3-3 1.354-3 3-3zm0 12c-2.367 0-4.425 1.681-4.899 4h-11.943l-8.807 8.322c-0.419-0.212-0.882-0.322-1.351-0.322-1.646 0-3 1.354-3 3s1.354 3 3 3 3-1.354 3-3c-1e-3 -0.425-0.092-0.844-0.268-1.231l8.221-7.769h11.152c0.473 2.317 2.53 3.998 4.895 4 2.743 0 5-2.257 5-5s-2.257-5-5-5zm-12.5 9c-1.92 0-3.5 1.58-3.5 3.5s1.58 3.5 3.5 3.5c0.61-1e-3 1.209-0.161 1.738-0.465l2.479 2.465h15.277v-2h-14.453l-1.922-1.912c0.25-0.492 0.381-1.036 0.381-1.588 0-1.92-1.58-3.5-3.5-3.5zm0 2c0.823 0 1.5 0.677 1.5 1.5s-0.677 1.5-1.5 1.5-1.5-0.677-1.5-1.5 0.677-1.5 1.5-1.5zm-14.5 3c0.549 0 1 0.451 1 1 0 0.548-0.451 1-1 1s-1-0.452-1-1c0-0.549 0.451-1 1-1z" style="fill-opacity:.8;fill-rule:nonzero;fill:#fff"/>
 <defs>
  <linearGradient id="_Linear1" x2="1" gradientTransform="matrix(2.65364e-15,-43.3373,43.3373,2.65364e-15,201.9,45.6687)" gradientUnits="userSpaceOnUse">
   <stop style="stop-color:#21225b" offset="0"/>
   <stop style="stop-color:#474894" offset="1"/>
  </linearGradient>
 </defs>
</svg>
