<svg style="clip-rule:evenodd;fill-rule:evenodd;stroke-linejoin:round;stroke-miterlimit:2" version="1.1" viewBox="0 0 48 48" xmlns="http://www.w3.org/2000/svg">
 <path d="m9.159 7.167 0.72 5.786c0.15 1.315 0.409 2.625 0.386 3.948-0.012 0.661-0.12 1.335-0.437 1.916-0.159 0.289-0.37 0.553-0.63 0.756-0.261 0.203-0.571 0.344-0.898 0.386-0.531 0.069-1.058-0.122-1.546-0.341-0.487-0.22-0.971-0.476-1.499-0.55-0.517-0.075-1.053 0.033-1.515 0.275-0.462 0.244-0.85 0.618-1.132 1.058-0.566 0.88-0.696 2.485-0.556 3.523 0.106 0.786 0.371 1.57 0.887 2.172 0.257 0.3 0.576 0.552 0.937 0.712 0.361 0.162 0.766 0.233 1.159 0.184 0.543-0.068 1.032-0.354 1.526-0.593 0.249-0.119 0.502-0.228 0.768-0.293 0.266-0.066 0.548-0.085 0.815-0.024 0.29 0.065 0.553 0.223 0.764 0.432 0.212 0.207 0.371 0.465 0.486 0.738 0.225 0.55 0.269 1.154 0.296 1.748 0.168 3.557-0.099 7.32-0.794 10.812 2.401 0.852 4.766 1.507 7.272 1.958 0.831 0.152 1.692 0.277 2.51 0.07 0.41-0.104 0.802-0.293 1.113-0.579 0.312-0.284 0.539-0.669 0.604-1.088 0.047-0.312 4e-3 -0.434-0.088-0.735-0.093-0.302-0.236-0.587-0.389-0.864-0.306-0.552-0.666-1.192-0.786-1.813-0.106-0.552-8e-3 -1.136 0.239-1.641 0.248-0.505 0.641-0.931 1.101-1.252 0.923-0.639 2.083-0.844 3.204-0.854 1.027-8e-3 2.089 0.147 2.962 0.692 0.436 0.273 0.816 0.641 1.073 1.087 0.258 0.446 0.387 0.972 0.336 1.484-0.041 0.394-0.185 0.772-0.361 1.126-0.177 0.355-0.386 0.693-0.568 1.044-0.181 0.353-0.335 0.725-0.392 1.117-0.055 0.393-7e-3 0.61 0.196 0.95 0.145 0.243 0.36 0.436 0.599 0.584 0.238 0.15 0.5 0.256 0.765 0.352 1.717 0.614 3.662 0.677 5.46 0.372 1.796-0.309 3.484-1.077 4.899-2.229l-0.913-6.86c-0.16-1.207-0.402-2.413-0.369-3.629 0.015-0.609 0.12-1.226 0.402-1.764 0.139-0.272 0.328-0.515 0.557-0.716 0.229-0.202 0.503-0.345 0.799-0.417 0.282-0.065 0.578-0.059 0.862-7e-3 0.285 0.051 0.561 0.145 0.83 0.25 0.539 0.212 1.067 0.475 1.641 0.552 0.529 0.072 1.078-0.022 1.562-0.247 0.486-0.227 0.906-0.584 1.225-1.014 0.638-0.863 0.853-2.293 0.722-3.357-0.107-0.867-0.444-1.722-1.042-2.357-0.299-0.317-0.662-0.578-1.065-0.743-0.402-0.168-0.845-0.243-1.278-0.2-0.578 0.056-1.113 0.31-1.655 0.518-0.27 0.105-0.547 0.198-0.831 0.25-0.286 0.053-0.582 0.062-0.865-1e-3 -0.429-0.096-0.811-0.357-1.088-0.699s-0.454-0.758-0.546-1.19c-0.185-0.86-0.044-1.754 0.081-2.626 0.42-2.923 0.655-5.57 0.706-8.523-2.563-0.826-5.199-1.403-7.872-1.724-0.822-0.099-1.677-0.17-2.46 0.097-0.393 0.134-0.76 0.354-1.036 0.664-0.275 0.308-0.455 0.712-0.463 1.128-7e-3 0.291 0.07 0.582 0.192 0.848 0.122 0.265 0.287 0.51 0.463 0.742 0.353 0.467 0.558 0.607 0.779 1.149 0.243 0.594 0.239 1.278 0.029 1.885-0.209 0.606-0.616 1.135-1.121 1.53-0.506 0.394-1.107 0.656-1.731 0.801-0.623 0.145-1.268 0.177-1.908 0.14-1.03-0.061-2.081-0.316-2.905-0.94-0.413-0.311-0.762-0.714-0.985-1.18s-0.32-0.999-0.244-1.511c0.105-0.696 0.707-1.003 1.047-1.619 0.169-0.308 0.326-0.627 0.423-0.964 0.098-0.338 0.134-0.7 0.059-1.043-0.077-0.36-0.273-0.688-0.534-0.947-0.26-0.257-0.583-0.446-0.928-0.572-0.688-0.252-1.439-0.251-2.17-0.208-2.73 0.161-5.401 0.868-7.856 2.078z" style="fill-rule:nonzero;fill:url(#_Linear1)"/>
 <defs>
  <linearGradient id="_Linear1" x2="1" gradientTransform="matrix(2.29735e-15,-37.5186,37.5186,2.29735e-15,24,42.402)" gradientUnits="userSpaceOnUse">
   <stop style="stop-color:rgb(0,130,16)" offset="0"/>
   <stop style="stop-color:rgb(51,209,122)" offset="1"/>
  </linearGradient>
 </defs>
</svg>
