<svg clip-rule="evenodd" fill-rule="evenodd" stroke-linejoin="round" stroke-miterlimit="2" viewBox="0 0 48 48" xmlns="http://www.w3.org/2000/svg">
 <linearGradient id="a" x2="1" gradientTransform="matrix(0 -37.5186 37.5186 0 24 42.402)" gradientUnits="userSpaceOnUse">
  <stop stop-color="#008210" offset="0"/>
  <stop stop-color="#33d17a" offset="1"/>
 </linearGradient>
 <path d="m9.159 7.167.72 5.786c.15 1.315.409 2.625.386 3.948-.012.661-.12 1.335-.437 1.916-.159.289-.37.553-.63.756-.261.203-.571.344-.898.386-.531.069-1.058-.122-1.546-.341-.487-.22-.971-.476-1.499-.55-.517-.075-1.053.033-1.515.275-.462.244-.85.618-1.132 1.058-.566.88-.696 2.485-.556 3.523.106.786.371 1.57.887 2.172.257.3.576.552.937.712.361.162.766.233 1.159.184.543-.068 1.032-.354 1.526-.593.249-.119.502-.228.768-.293.266-.066.548-.085.815-.024.29.065.553.223.764.432.212.207.371.465.486.738.225.55.269 1.154.296 1.748.168 3.557-.099 7.32-.794 10.812 2.401.852 4.766 1.507 7.272 1.958.831.152 1.692.277 2.51.07.41-.104.802-.293 1.113-.579.312-.284.539-.669.604-1.088.047-.312.004-.434-.088-.735-.093-.302-.236-.587-.389-.864-.306-.552-.666-1.192-.786-1.813-.106-.552-.008-1.136.239-1.641.248-.505.641-.931 1.101-1.252.923-.639 2.083-.844 3.204-.854 1.027-.008 2.089.147 2.962.692.436.273.816.641 1.073 1.087.258.446.387.972.336 1.484-.041.394-.185.772-.361 1.126-.177.355-.386.693-.568 1.044-.181.353-.335.725-.392 1.117-.055.393-.007.61.196.95.145.243.36.436.599.584.238.15.5.256.765.352 1.717.614 3.662.677 5.46.372 1.796-.309 3.484-1.077 4.899-2.229l-.913-6.86c-.16-1.207-.402-2.413-.369-3.629.015-.609.12-1.226.402-1.764.139-.272.328-.515.557-.716.229-.202.503-.345.799-.417.282-.065.578-.059.862-.007.285.051.561.145.83.25.539.212 1.067.475 1.641.552.529.072 1.078-.022 1.562-.247.486-.227.906-.584 1.225-1.014.638-.863.853-2.293.722-3.357-.107-.867-.444-1.722-1.042-2.357-.299-.317-.662-.578-1.065-.743-.402-.168-.845-.243-1.278-.2-.578.056-1.113.31-1.655.518-.27.105-.547.198-.831.25-.286.053-.582.062-.865-.001-.429-.096-.811-.357-1.088-.699s-.454-.758-.546-1.19c-.185-.86-.044-1.754.081-2.626.42-2.923.655-5.57.706-8.523-2.563-.826-5.199-1.403-7.872-1.724-.822-.099-1.677-.17-2.46.097-.393.134-.76.354-1.036.664-.275.308-.455.712-.463 1.128-.007.291.07.582.192.848.122.265.287.51.463.742.353.467.558.607.779 1.149.243.594.239 1.278.029 1.885-.209.606-.616 1.135-1.121 1.53-.506.394-1.107.656-1.731.801-.623.145-1.268.177-1.908.14-1.03-.061-2.081-.316-2.905-.94-.413-.311-.762-.714-.985-1.18s-.32-.999-.244-1.511c.105-.696.707-1.003 1.047-1.619.169-.308.326-.627.423-.964.098-.338.134-.7.059-1.043-.077-.36-.273-.688-.534-.947-.26-.257-.583-.446-.928-.572-.688-.252-1.439-.251-2.17-.208-2.73.161-5.401.868-7.856 2.078z" fill="url(#a)" fill-rule="nonzero"/>
</svg>
