<svg style="clip-rule:evenodd;fill-rule:evenodd;stroke-linejoin:round;stroke-miterlimit:2" version="1.1" viewBox="0 0 48 48" xmlns="http://www.w3.org/2000/svg">
 <path d="m24 1.236c-12.572 0-22.764 10.192-22.764 22.764s10.192 22.764 22.764 22.764 22.764-10.192 22.764-22.764-10.192-22.764-22.764-22.764z" style="fill-rule:nonzero;fill:url(#_Linear1)"/>
 <path d="m24 6.192c-9.77 0-17.808 8.038-17.808 17.808s8.038 17.808 17.808 17.808 17.808-8.038 17.808-17.808-8.038-17.808-17.808-17.808zm-5.343 12.371c0-0.698 0.38-1.342 0.991-1.681 0.611-0.338 1.357-0.319 1.95 0.052 2.561 1.6 6.241 3.9 8.699 5.436 0.562 0.352 0.903 0.967 0.903 1.63s-0.341 1.278-0.903 1.63c-2.458 1.536-6.138 3.836-8.699 5.436-0.593 0.371-1.339 0.39-1.95 0.052-0.611-0.339-0.991-0.983-0.991-1.681v-10.874z" style="fill-rule:nonzero;fill:url(#_Linear2)"/>
 <defs>
  <linearGradient id="_Linear1" x2="1" gradientTransform="matrix(2.59755e-15,-42.4213,42.4213,2.59755e-15,702.74,46.651)" gradientUnits="userSpaceOnUse">
   <stop style="stop-color:#c7c7c7" offset="0"/>
   <stop style="stop-color:#fff" offset="1"/>
  </linearGradient>
  <linearGradient id="_Linear2" x2="1" gradientTransform="matrix(2.16656e-15,-35.3827,35.3827,2.16656e-15,590.123,41.7406)" gradientUnits="userSpaceOnUse">
   <stop style="stop-color:#252525" offset="0"/>
   <stop style="stop-color:#4f4f4f" offset="1"/>
  </linearGradient>
 </defs>
</svg>
