<svg style="clip-rule:evenodd;fill-rule:evenodd;stroke-linejoin:round;stroke-miterlimit:2" version="1.1" viewBox="0 0 48 48" xmlns="http://www.w3.org/2000/svg">
 <path d="m8 12c-2.215 0-4 1.785-4 4v24c0 2.219 1.785 4 4 4h15.998v-32h-15.998z" style="fill-rule:nonzero;fill:url(#_Linear1)"/>
 <path d="m23.998 12v32h16.002c2.215 0 4-1.781 4-4v-24c0-2.215-1.785-4-4-4h-16.002z" style="fill-rule:nonzero;fill:url(#_Linear2)"/>
 <path d="m24 16c-4.418 0-8 3.582-8 8s3.582 8 8 8c4.422 0 8-3.582 8-8s-3.578-8-8-8z" style="fill-rule:nonzero;fill:rgb(55,55,55)"/>
 <circle cx="24" cy="24" r="6" style="fill:rgb(155,173,255)"/>
 <path d="m40 4c-2.218 0-3.999 1.785-3.999 4v32c0-2.215 1.781-4 3.999-4 2.215 0 4 1.785 4 4v-32c0-2.215-1.785-4-4-4z" style="fill-rule:nonzero;fill:url(#_Linear3)"/>
 <path d="m8 4c-2.215 0-4 1.785-4 4v32c0-2.215 1.785-4 4-4s4 1.785 4 4v-32c0-2.215-1.785-4-4-4z" style="fill-rule:nonzero;fill:url(#_Linear4)"/>
 <defs>
  <linearGradient id="_Linear1" x2="1" gradientTransform="matrix(.119107 -32 32 .119107 15.7816 44)" gradientUnits="userSpaceOnUse">
   <stop style="stop-color:rgb(186,15,43)" offset="0"/>
   <stop style="stop-color:rgb(230,62,96)" offset="1"/>
  </linearGradient>
  <linearGradient id="_Linear2" x2="1" gradientTransform="matrix(-.17866 -31.8313 31.8313 -.17866 32.7543 43.8313)" gradientUnits="userSpaceOnUse">
   <stop style="stop-color:rgb(16,96,211)" offset="0"/>
   <stop style="stop-color:rgb(23,123,199)" offset="1"/>
  </linearGradient>
  <linearGradient id="_Linear3" x2="1" gradientTransform="matrix(2.17276e-15,-35.4839,35.4839,2.17276e-15,40.139,39.4839)" gradientUnits="userSpaceOnUse">
   <stop style="stop-color:rgb(61,174,233)" offset="0"/>
   <stop style="stop-color:rgb(0,203,255)" offset="1"/>
  </linearGradient>
  <linearGradient id="_Linear4" x2="1" gradientTransform="matrix(2.20436e-15,-36,36,2.20436e-15,8,40)" gradientUnits="userSpaceOnUse">
   <stop style="stop-color:rgb(237,94,83)" offset="0"/>
   <stop style="stop-color:rgb(255,108,127)" offset="1"/>
  </linearGradient>
 </defs>
</svg>
