<svg style="clip-rule:evenodd;fill-rule:evenodd;stroke-linejoin:round;stroke-miterlimit:2" version="1.1" viewBox="0 0 64 64" xmlns="http://www.w3.org/2000/svg">
 <circle cx="32" cy="32" r="30.706" style="fill:url(#_Linear1)"/>
 <path d="m35.66 20.138c-0.797 0.044-1.511 0.509-1.873 1.22l-5.857 12.727-6.883 7.868-8.918-1.071c-2.969-0.329-3.463 4.124-0.494 4.454l10.079 1.2c0.729 0.081 1.451-0.2 1.934-0.753l7.839-8.959c0.122-0.14 0.227-0.294 0.311-0.459l4.21-8.827 2.553 5.619c0.648 1.423 2.517 1.761 3.622 0.656l6.72-6.719c2.199-2.111-1.056-5.366-3.168-3.168l-4.433 4.434-3.479-6.912c-0.382-0.841-1.241-1.361-2.163-1.31z" style="fill-rule:nonzero;fill:#5026d9"/>
 <circle cx="39.652" cy="13.993" r="4.402" style="fill:#0d79f2"/>
 <path d="m31.033 18.471c-0.193-2e-3 -0.387 0.02-0.575 0.068l-8.72 2.24c-0.997 0.249-1.696 1.144-1.697 2.172v10.079c-0.043 3.029 4.047 3.029 4.004 0v-8.25l4.873-1.161s-0.935 5.943-1.338 7.564c-1.22 4.255 0.119 6.815 2.703 7.448 0.1 0.107 0.211 0.205 0.331 0.291l6.426 4.613 4.233 9.523c1.213 2.73 5.308 0.91 4.094-1.819l-4.479-10.08c-0.162-0.364-0.418-0.678-0.742-0.91l-5.123-3.677c1.061-1.807 1.497-4.406 2.115-6.579 0.48-1.687 0.963-3.375 1.446-5.062 0.438-1.386 0.317-2.534 6e-3 -3.321-0.694-1.653-1.65-1.819-3.218-2.183l-3.722-0.864c0 2e-3 -1e-3 4e-3 -2e-3 6e-3 -0.199-0.061-0.406-0.094-0.614-0.098h-1e-3z" style="fill-rule:nonzero;fill:#0d79f2"/>
 <defs>
  <linearGradient id="_Linear1" x2="1" gradientTransform="matrix(-2.35123e-14,-61.4128,61.4128,-2.35123e-14,32,62.7064)" gradientUnits="userSpaceOnUse">
   <stop style="stop-color:#c7c7c7" offset="0"/>
   <stop style="stop-color:#fff" offset="1"/>
  </linearGradient>
 </defs>
</svg>
