<svg clip-rule="evenodd" fill-rule="evenodd" stroke-linejoin="round" stroke-miterlimit="2" viewBox="0 0 48 48" xmlns="http://www.w3.org/2000/svg">
 <linearGradient id="a" x2="1" gradientTransform="matrix(0 -33.6872 33.6872 0 923.28 40.4502)" gradientUnits="userSpaceOnUse">
  <stop stop-color="#c7d5d8" offset="0"/>
  <stop stop-color="#ffffff" offset="1"/>
 </linearGradient>
 <path d="m39.44 45.668h-30.88c-3.438 0-6.228-2.79-6.228-6.228v-30.88c0-3.438 2.79-6.228 6.228-6.228h30.88c3.438 0 6.228 2.79 6.228 6.228v30.88c0 3.438-2.79 6.228-6.228 6.228z" fill="url(#a)"/>
 <path transform="translate(-2.02261 -2.1573)" d="m25.17 34.647v4.592h-16.133v-3.638l8.029-9.334h-7.778v-4.592h15.481v3.638l-8.029 9.334zm2.45-9.558c.661-1.132 1.61-2.022 2.848-2.671 1.238-.648 2.588-.973 4.05-.973 1.227 0 2.359.23 3.396.69 1.038.46 1.934 1.091 2.689 1.893.754.802 1.344 1.745 1.769 2.83.424 1.085.636 2.252.636 3.502s-.212 2.411-.636 3.484c-.425 1.073-1.02 2.011-1.787 2.812-.766.802-1.668 1.433-2.706 1.893s-2.158.69-3.361.69c-1.485 0-2.859-.33-4.121-.991-1.261-.66-2.211-1.592-2.847-2.794v3.431h-1.698v-30.282h1.768zm6.722-1.981c-.849 0-1.675.142-2.477.425-.801.283-1.515.713-2.14 1.291-.625.577-1.132 1.326-1.521 2.246s-.584 2.016-.584 3.29c0 1.273.195 2.364.584 3.272s.902 1.651 1.539 2.229c.637.577 1.356 1.008 2.158 1.291s1.615.424 2.441.424c.99 0 1.904-.183 2.741-.548.837-.366 1.557-.879 2.158-1.539s1.073-1.427 1.415-2.299c.342-.873.513-1.828.513-2.866 0-1.014-.171-1.963-.513-2.847-.342-.885-.814-1.651-1.415-2.3-.601-.648-1.321-1.155-2.158-1.521-.837-.365-1.751-.548-2.741-.548zm-9.759-5.31c-.179.06-.359.1-.518.1-.539 0-.539-.36-.539-1.158v-5.307c0-2.411-2.012-2.83-3.868-2.83-2.315 0-4.267.897-4.367 3.448h1.693c.08-1.515 1.138-1.954 2.574-1.954 1.058 0 2.295.219 2.295 1.715 0 1.297-1.616 1.138-3.472 1.517-1.756.319-3.489.838-3.489 3.172 0 2.074 1.534 2.89 3.409 2.89 1.437 0 2.694-.478 3.632-1.593 0 1.115.557 1.593 1.434 1.593.498 0 .917-.1 1.216-.279zm-2.75-2.235c0 .958-.918 2.335-3.153 2.335-1.037 0-1.995-.4-1.995-1.517 0-2.534 3.831-1.576 5.148-2.554z" fill="#333333" fill-rule="nonzero"/>
</svg>
