<svg style="clip-rule:evenodd;fill-rule:evenodd;stroke-linejoin:round;stroke-miterlimit:2" version="1.1" viewBox="0 0 48 48" xmlns="http://www.w3.org/2000/svg">
 <path d="m45.668 8.56c0-3.438-2.79-6.228-6.228-6.228h-30.88c-3.438 0-6.228 2.79-6.228 6.228v30.88c0 3.438 2.79 6.228 6.228 6.228h30.88c3.438 0 6.228-2.79 6.228-6.228v-30.88z" style="fill:url(#_Linear1)"/>
 <path d="m32.25 34.341l-4.885-5.564 0.02 0.458c0.732 1.043 1.94 2.218 2.405 3.37 0.467 1.15 0.448 2.474 0.474 3.784-1.501-1.596-3.139-3.032-3.849-5.123-0.147-0.435 0.014-1.071 0.24-1.51 0.364-0.704 0.39-1.237-0.228-1.792-0.927-0.836-1.991-1.81-2.898-2.668 0 0 0.032 0.562 0.211 1.439 1.121 0.405 1.715 2 1.299 2.632-0.193 0.24-0.486 0.378-0.794 0.372-0.667-0.11-1.379-1.337-1.407-2.06-0.027-0.672 0.559-0.868 0.616-0.99-0.05-0.714-0.081-1.01-0.255-1.631-0.268-0.269-2.492-2.107-3.263-2.717-0.079-0.061-0.177-0.097-0.406-0.223 0.636 1.492 1.238 2.861 1.806 4.246 0.406 0.99 1.147 2.287 1.188 3.317 0.109 2.753-0.033 5.965-0.033 5.965-0.39-0.278-0.879-0.5-1.087-0.832-1.158-1.84-1.855-3.933-2.033-6.1-0.057-0.437-0.011-0.883 0.136-1.299 0.954-2.207-0.28-4.129-0.999-5.979-0.418-1.079-3.07-2.791-4.067-3.647 0 0 1.297 2.487 1.881 3.3 1.354 0.535 1.854 1.169 2.403 2.657 0.145 0.395 0.08 1.198-0.204 1.442-0.35 0.295-1.094 0.38-1.568 0.232-1.887-0.588-2.505-2.585-1.363-4.195-1.13-2.318-2.198-4.632-4.089-6.495-1.167-1.149-2.033-2.605-3.005-3.949-0.23-0.375-0.412-0.777-0.544-1.195-0.227-0.597-0.383-1.304 0.29-1.613 0.39-0.179 0.983 0.087 1.818 0.203-1.497 1.401-1.031 2.599-0.191 3.571 1.671 1.942 3.475 3.774 5.26 5.617 0.153 0.158 0.594 0.14 0.862 0.065 1.389-0.391 3.522-0.951 4.919-1.311 0.793-0.203 0.897-0.606 1.604-0.793 3.04-0.805 5.177-0.269 7.821 1.09 0.338 0.173 0.875 1.211 0.875 1.211s-1.641 0.137-3.673-0.394c-0.294-0.078 0.013 0.912 0.013 0.912-2.679-0.16-3.885-1.2-7.876-0.448-0.205 0.039-0.402 0.105-0.596 0.177 4.024 1.347 8.134 1.816 11.491 4.377-0.689 0.309-3.624 0.177-4.501 0.045-1.546-0.234-3.006-0.875-4.139-1.91-0.588-0.53-1.272-0.943-2.013-1.22-1.157-0.427-4.092-1.061-4.092-1.061l5.276 3.807s2.873 1.118 3.969 1.425c0.388-0.135 0.218-0.205 0.65-0.289 1.221-0.315 3.382 0.553 3.974 1.682 0.484 0.922-0.045 1.83-1.086 1.842-1.265 0.026-2.395-0.86-3.123-1.798-0.21-0.271-0.514-0.665-0.575-1.15-1.076-0.491-2.446-0.955-3.54-1.398 0.46 0.433 4.12 3.819 5.575 5.046 0.334 0.281 0.762 0.426 1.197 0.406 3.571-0.481 9.448 0.792 12.334 2.815-2.644 0.435-5.074 1.555-7.48-0.503-1.706-1.458-2.58-1.608-5.167-1.714 1.607 1.765 2.882 3.449 4.366 5.081 0.317-0.026 0.886 0.109 1.203 0.072 0.686-0.541 0.956-0.612 1.736-0.541 1.041 0.096 3.879 2.192 4.585 3.284-1.557 0.887-5.751-0.573-6.329-2.428-0.387-0.123-0.792-0.125-1.065-0.142-0.066-4e-3 1.135 1.311 1.673 2.005 0.288 8e-3 1.451 0.083 2.075 0.66 1.453 1.345 2.9 3.376 2.9 3.376s-2.768-0.593-4.01-1.158c-0.869-0.395-1.045-1.79-1.118-2.643-0.618-0.591-0.95-0.976-1.358-1.364-0.136 0.055-0.087 0.45-0.087 0.45 1.765 1.226 1.009 2.906 0.151 4.805-1.151-1.687-1.522-4.409-0.37-4.866 0.038-0.258-9e-3 -0.356 0.07-0.525z" style="fill:#fff"/>
 <defs>
  <linearGradient id="_Linear1" x2="1" gradientTransform="matrix(2.64378e-15,-43.1762,43.1762,2.64378e-15,24,45.2605)" gradientUnits="userSpaceOnUse">
   <stop style="stop-color:#0f5600" offset="0"/>
   <stop style="stop-color:#469b5d" offset="1"/>
  </linearGradient>
 </defs>
</svg>
