<svg style="clip-rule:evenodd;fill-rule:evenodd;stroke-linejoin:round;stroke-miterlimit:2" version="1.1" viewBox="0 0 48 48" xmlns="http://www.w3.org/2000/svg">
 <path d="m46 13l-2.919 13.775 2.919 15.225h-24.081s-2.919 0-2.919-2.9v-23.2l2.919-2.9h24.081zm-32.947 29h-11.053l2.947-15.225-2.947-13.775h11.789l2.211 26.1c0 2.895-2.936 2.9-2.947 2.9z" style="fill:url(#_Linear1)"/>
 <path d="m10.908 5c-1.612 0-2.908 1.314-2.908 2.947v25.053h6v-2l2-1h3l2 1v2h19v-4-21.053c0-1.633-1.296-2.947-2.908-2.947h-26.184z" style="fill-rule:nonzero;fill:url(#_Linear2)"/>
 <path d="m26.445 16.348c-0.461 0.349-1.889-1.172-2.459-1.174-0.569-3e-3 -2.011 1.505-2.469 1.152-0.46-0.351 0.48-2.243 0.307-2.809-0.174-0.568-1.989-1.537-1.812-2.103 0.178-0.565 2.188-0.215 2.65-0.562 0.461-0.348 0.782-2.455 1.351-2.452 0.568 1e-3 0.87 2.111 1.33 2.462 0.458 0.352 2.47 0.019 2.645 0.587 0.174 0.567-1.649 1.52-1.828 2.085-0.177 0.565 0.747 2.465 0.285 2.814z" style="fill-rule:nonzero;fill:#fff"/>
 <path d="m20.946 25.448c-0.462 0.348-1.891-1.172-2.46-1.175-0.57-3e-3 -2.011 1.505-2.47 1.154-0.458-0.352 0.482-2.245 0.307-2.811-0.174-0.567-1.988-1.535-1.811-2.102 0.178-0.565 2.188-0.215 2.649-0.562 0.463-0.349 0.782-2.455 1.351-2.452s0.872 2.111 1.33 2.462c0.46 0.353 2.473 0.02 2.646 0.587 0.174 0.566-1.649 1.519-1.827 2.084-0.177 0.567 0.747 2.467 0.285 2.815z" style="fill-rule:nonzero;fill:#fff"/>
 <path d="m31.946 25.448c-0.461 0.348-1.891-1.172-2.459-1.175-0.569-3e-3 -2.012 1.505-2.471 1.154-0.458-0.352 0.482-2.245 0.308-2.811-0.174-0.567-1.989-1.535-1.812-2.102 0.178-0.565 2.188-0.215 2.651-0.562 0.46-0.349 0.78-2.455 1.349-2.452s0.872 2.111 1.331 2.462c0.459 0.353 2.472 0.02 2.645 0.587 0.175 0.566-1.649 1.519-1.827 2.084-0.178 0.567 0.747 2.467 0.285 2.815z" style="fill-rule:nonzero;fill:#fff"/>
 <path d="m37.1 30c1.626 0 2.9 1.308 2.9 2.933 0 2.934-2.9 3.1-2.9 3.1h-15.3c-1.62 0-2.8 1.314-2.8 2.934v-8.967h18.1zm-21.1 0v8.967c0-1.496-1.167-2.934-3-2.934h-2.1c-1.62 0-2.9-1.48-2.9-3.1s1.28-2.933 2.9-2.933h5.1z" style="fill:#be9999"/>
 <defs>
  <linearGradient id="_Linear1" x2="1" gradientTransform="matrix(.595533 -29.062 29.062 .595533 28.2878 42.1042)" gradientUnits="userSpaceOnUse">
   <stop style="stop-color:#690000" offset="0"/>
   <stop style="stop-color:#a51822" offset="1"/>
  </linearGradient>
  <linearGradient id="_Linear2" x2="1" gradientTransform="matrix(1.51713e-15,-24.7767,24.7767,1.51713e-15,24,29.7767)" gradientUnits="userSpaceOnUse">
   <stop style="stop-color:#c91b22" offset="0"/>
   <stop style="stop-color:#d74840" offset="1"/>
  </linearGradient>
 </defs>
</svg>
