<svg clip-rule="evenodd" fill-rule="evenodd" stroke-linejoin="round" stroke-miterlimit="2" viewBox="0 0 48 48" xmlns="http://www.w3.org/2000/svg">
 <linearGradient id="a" x2="1" gradientTransform="matrix(0 -56.0969 56.0969 0 443.416 59.816)" gradientUnits="userSpaceOnUse">
  <stop stop-color="#006ba6" offset="0"/>
  <stop stop-color="#3584e4" offset="1"/>
 </linearGradient>
 <g fill-rule="nonzero">
  <path d="m37.02 1.667c2.783 0 5.039 2.257 5.039 5.04v34.586c0 2.783-2.256 5.04-5.039 5.04h-25.149c-2.783 0-5.039-2.257-5.039-5.04v-34.586c0-2.783 2.256-5.04 5.039-5.04z" fill="url(#a)"/>
  <g transform="matrix(1.10084 0 0 1.10084 -1.97475 -2.42025)">
   <path d="m12.757 6c-.408.001-.744.312-.744.69 0 .185.081.363.224.493l1.962 1.811-1.962 1.812c-.151.13-.237.313-.237.504 0 .379.337.69.747.69.207 0 .404-.079.546-.219l2.489-2.299c.289-.268.289-.707 0-.975l-2.489-2.299c-.141-.133-.334-.208-.536-.208z" fill="#f6f5f4"/>
   <path d="m10 14v26.26c0 .974.737 1.74 1.673 1.74h24.654c.936 0 1.673-.766 1.673-1.74v-26.26z" fill="#241f31"/>
   <path d="m12 27v2h11.119v-2zm0 3v2h23v-2zm0 3v2h18v-2zm0 3v2h21v-2z" fill="#fff" fill-opacity=".3"/>
  </g>
  <path d="m9.03365 12.99151h30.82352v12.10924h-30.82352z" fill="#fff" fill-opacity=".15" stroke-width="1.10084"/>
 </g>
</svg>
