<svg clip-rule="evenodd" fill-rule="evenodd" stroke-linejoin="round" stroke-miterlimit="2" viewBox="0 0 48 48" xmlns="http://www.w3.org/2000/svg">
 <circle cx="13" cy="13" r="9" fill="#acb8cb"/>
 <circle cx="35" cy="35" r="9" fill="#acb8cb"/>
 <path transform="matrix(.8726 -.146376 .145974 .875 -.261837 3.4364)" d="m13.006 5.106 1.705 2.75 2.997-1.223-.237 3.228 3.143.772-2.088 2.473 2.088 2.472-3.143.772.237 3.228-2.997-1.223-1.705 2.751-1.706-2.751-2.997 1.223.237-3.228-3.143-.772 2.089-2.472-2.089-2.473 3.143-.772-.237-3.228 2.997 1.223z" fill="#ffca3c" fill-rule="nonzero"/>
 <circle cx="35" cy="13" r="9" fill="#465c76"/>
 <circle cx="13" cy="35" r="9" fill="#465c76"/>
 <path transform="matrix(.890889 -.121777 .125199 .866539 2.64178 5.37796)" d="m37.506 7.143-.511 4.877 3.967 2.884-4.797 1.022-1.517 4.663-2.454-4.246-4.904-.002 3.28-3.646-1.514-4.664 4.481 1.992z" fill="#ffeb3b" fill-rule="nonzero"/>
 <circle cx="13" cy="13" r="4" fill="#fff" fill-opacity=".3"/>
 <path transform="matrix(.890889 -.121777 .125199 .866539 -19.3582 27.378)" d="m37.506 7.143-.511 4.877 3.967 2.884-4.797 1.022-1.517 4.663-2.454-4.246-4.904-.002 3.28-3.646-1.514-4.664 4.481 1.992z" fill="#ffeb3b" fill-rule="nonzero"/>
 <path transform="matrix(.8726 -.146376 .145974 .875 21.7382 25.4364)" d="m13.006 5.106 1.705 2.75 2.997-1.223-.237 3.228 3.143.772-2.088 2.473 2.088 2.472-3.143.772.237 3.228-2.997-1.223-1.705 2.751-1.706-2.751-2.997 1.223.237-3.228-3.143-.772 2.089-2.472-2.089-2.473 3.143-.772-.237-3.228 2.997 1.223z" fill="#ffca3c" fill-rule="nonzero"/>
 <circle cx="35" cy="35" r="4" fill="#fff" fill-opacity=".3"/>
</svg>
