<!DOCTYPE svg  PUBLIC '-//W3C//DTD SVG 1.1//EN'  'http://www.w3.org/Graphics/SVG/1.1/DTD/svg11.dtd'>
<svg style="clip-rule:evenodd;fill-rule:evenodd;stroke-linejoin:round;stroke-miterlimit:1.41421" version="1.1" viewBox="0 0 48 48" xmlns="http://www.w3.org/2000/svg">
 <path d="m47.48 6.304c0-3.13-2.538-5.668-5.668-5.668h-35.393c-3.13 0-5.667 2.538-5.667 5.668v35.277c0 3.13 2.537 5.667 5.667 5.667h35.393c3.13 0 5.668-2.537 5.668-5.667v-35.277z" style="fill:url(#_Linear1)"/>
 <path d="m33.867 36.431l-5.856-6.669 0.024 0.549c0.877 1.25 2.325 2.659 2.883 4.039 0.559 1.379 0.537 2.966 0.568 4.536-1.799-1.913-3.763-3.634-4.614-6.14-0.176-0.522 0.017-1.285 0.287-1.811 0.437-0.844 0.468-1.483-0.273-2.148-1.111-1.002-2.387-2.169-3.474-3.198 0 0 0.039 0.673 0.253 1.725 1.344 0.485 2.056 2.397 1.557 3.155-0.231 0.288-0.582 0.453-0.951 0.446-0.8-0.132-1.653-1.603-1.687-2.469-0.032-0.806 0.67-1.041 0.738-1.187-0.059-0.856-0.097-1.211-0.305-1.956-0.322-0.322-2.988-2.525-3.912-3.256-0.095-0.073-0.212-0.117-0.487-0.268 0.763 1.789 1.484 3.43 2.165 5.09 0.487 1.187 1.375 2.742 1.424 3.976 0.131 3.301-0.039 7.151-0.039 7.151-0.467-0.333-1.054-0.599-1.303-0.997-1.388-2.206-2.224-4.715-2.437-7.313-0.069-0.524-0.013-1.058 0.163-1.557 1.143-2.645-0.336-4.949-1.197-7.167-0.502-1.294-3.681-3.346-4.876-4.372 0 0 1.555 2.981 2.255 3.956 1.623 0.641 2.223 1.401 2.88 3.185 0.174 0.473 0.097 1.436-0.244 1.729-0.419 0.353-1.312 0.455-1.88 0.278-2.262-0.705-3.003-3.099-1.633-5.029-1.355-2.779-2.635-5.553-4.902-7.786-1.399-1.377-2.437-3.123-3.603-4.734-0.275-0.449-0.493-0.931-0.651-1.433-0.273-0.715-0.46-1.563 0.347-1.933 0.468-0.215 1.179 0.104 2.179 0.243-1.794 1.68-1.236 3.116-0.229 4.281 2.003 2.328 4.166 4.524 6.306 6.733 0.183 0.19 0.712 0.168 1.033 0.078 1.665-0.468 4.222-1.14 5.897-1.571 0.95-0.244 1.075-0.727 1.923-0.951 3.644-0.965 6.206-0.322 9.375 1.307 0.405 0.207 1.049 1.451 1.049 1.451s-1.967 0.165-4.403-0.472c-0.353-0.093 0.015 1.094 0.015 1.094-3.211-0.192-4.657-1.439-9.441-0.537-0.245 0.046-0.482 0.125-0.714 0.212 4.824 1.614 9.75 2.177 13.775 5.246-0.826 0.371-4.345 0.213-5.396 0.055-1.853-0.281-3.604-1.049-4.962-2.29-0.705-0.635-1.524-1.131-2.413-1.463-1.387-0.512-4.905-1.271-4.905-1.271l6.324 4.563s3.444 1.34 4.758 1.708c0.466-0.162 0.262-0.245 0.78-0.346 1.463-0.378 4.054 0.663 4.763 2.016 0.58 1.106-0.053 2.194-1.301 2.208-1.517 0.032-2.871-1.031-3.744-2.155-0.252-0.325-0.616-0.797-0.689-1.379-1.29-0.588-2.933-1.145-4.244-1.675 0.552 0.518 4.939 4.577 6.683 6.048 0.4 0.337 0.913 0.511 1.435 0.487 4.281-0.577 11.326 0.949 14.785 3.374-3.169 0.522-6.082 1.865-8.966-0.602-2.045-1.748-3.093-1.928-6.194-2.055 1.926 2.116 3.455 4.134 5.234 6.091 0.379-0.031 1.062 0.131 1.442 0.086 0.822-0.649 1.146-0.733 2.081-0.648 1.248 0.115 4.65 2.627 5.496 3.936-1.867 1.063-6.894-0.687-7.587-2.91-0.464-0.148-0.95-0.15-1.277-0.171-0.079-4e-3 1.361 1.572 2.006 2.404 0.345 0.01 1.739 0.1 2.487 0.791 1.742 1.612 3.476 4.047 3.476 4.047s-3.317-0.711-4.807-1.388c-1.041-0.473-1.252-2.146-1.34-3.168-0.74-0.709-1.138-1.17-1.627-1.635-0.164 0.065-0.105 0.539-0.105 0.539 2.116 1.47 1.21 3.484 0.181 5.76-1.38-2.022-1.824-5.285-0.443-5.833 0.045-0.309-0.011-0.427 0.084-0.63z" style="fill:#fff"/>
 <defs>
  <linearGradient id="_Linear1" x2="1" gradientTransform="matrix(1.0988,-46.612,46.612,1.0988,23.5373,47.2482)" gradientUnits="userSpaceOnUse">
   <stop style="stop-color:#0f5600" offset="0"/>
   <stop style="stop-color:#5fbb89" offset="1"/>
  </linearGradient>
 </defs>
</svg>
