<svg style="clip-rule:evenodd;fill-rule:evenodd;stroke-linejoin:round;stroke-miterlimit:2" version="1.1" viewBox="0 0 48 48" xmlns="http://www.w3.org/2000/svg">
 <circle cx="24" cy="24" r="22.764" style="fill:url(#_Linear1)"/>
 <path d="m36.52 14.894v11.382h2.277v-11.382h-2.277zm-25.04 4.553c-1.261 0-2.277 1.015-2.277 2.277v6.829c0 1.261 1.016 2.276 2.277 2.276h2.276c1.261 0 2.277-1.015 2.277-2.276v-6.829c0-1.262-1.016-2.277-2.277-2.277h-2.276zm9.105 0s-2.276 0-2.276 2.277v2.276s0 2.276 2.276 2.276h2.277v2.277h-4.553s0 2.276 2.276 2.276h2.277s2.276 0 2.276-2.276v-2.277s0-2.276-2.276-2.276h-2.277v-2.276h4.553s0-2.277-2.276-2.277h-2.277zm6.83 0v9.106c0 2.276 2.276 2.276 2.276 2.276h2.276c2.277 0 2.277-2.276 2.277-2.276v-9.106h-2.277v9.106h-2.276v-9.106h-2.276zm-14.797 2.277c0.631 0 1.138 1.015 1.138 2.276v2.276c0 1.262-0.507 2.277-1.138 2.277s-1.138-1.015-1.138-2.277v-2.276c0-1.261 0.507-2.276 1.138-2.276zm23.902 6.829v2.276h2.277v-2.276h-2.277z" style="fill-rule:nonzero;fill:#fff"/>
 <defs>
  <linearGradient id="_Linear1" x2="1" gradientTransform="matrix(2.78779e-15,-45.528,45.528,2.78779e-15,24,46.764)" gradientUnits="userSpaceOnUse">
   <stop style="stop-color:#f9647c" offset="0"/>
   <stop style="stop-color:#f964a6" offset="1"/>
  </linearGradient>
 </defs>
</svg>
