
<svg style="clip-rule:evenodd;fill-rule:evenodd;stroke-linejoin:round;stroke-miterlimit:1.41421" version="1.1" viewBox="0 0 48 48" xmlns="http://www.w3.org/2000/svg">
 <path d="m43.566 6.617c-3e-3 -1.027-0.839-1.858-1.866-1.855l-35.508 0.1c-1.027 2e-3 -1.858 0.838-1.855 1.865l0.099 35.508c3e-3 1.027 0.839 1.859 1.866 1.856l35.508-0.1c1.027-3e-3 1.859-0.839 1.856-1.866l-0.1-35.508z" style="fill-opacity:.34902"/>
 <path d="m43.564 5.765c-3e-3 -1.027-0.839-1.859-1.866-1.856l-35.508 0.1c-1.027 3e-3 -1.859 0.839-1.856 1.866l0.1 35.508c3e-3 1.027 0.839 1.858 1.866 1.855l35.508-0.1c1.027-2e-3 1.858-0.838 1.855-1.865l-0.099-35.508z" style="fill:#1d2d44"/>
 <path d="m22.88 14.332c-1.726 8e-3 -3.304 0.997-4.064 2.547-0.439-0.35-0.985-0.54-1.547-0.539-1.361 4e-3 -2.478 1.128-2.475 2.489 3e-3 0.514 0.165 1.016 0.464 1.434-0.985 0.619-1.719 1.567-2.071 2.675-0.15-0.015-0.301-0.023-0.452-0.022-2.494 7e-3 -4.539 2.066-4.532 4.56s2.064 4.54 4.558 4.534c1.005-3e-3 1.98-0.339 2.774-0.956 0.493 0.634 1.254 1.004 2.056 1.002 1.128-4e-3 2.131-0.741 2.471-1.817 1.131 1.092 2.67 1.765 4.367 1.76 1.665-5e-3 3.173-0.662 4.292-1.724 0.936 1.143 2.338 1.806 3.815 1.803 1.278-4e-3 2.506-0.506 3.421-1.399 0.489 0.673 1.273 1.071 2.105 1.07 1.426-4e-3 2.596-1.181 2.592-2.607v-1e-3c-4e-3 -1.427-1.181-2.597-2.607-2.594-0.217 2e-3 -0.433 0.03-0.643 0.085-0.269-2.486-2.395-4.391-4.896-4.386-0.025 1e-3 -0.051 2e-3 -0.076 3e-3 -0.082-2.439-2.114-4.4-4.555-4.394-0.184 3e-3 -0.367 0.016-0.549 0.041-0.461-2.077-2.32-3.567-4.448-3.563v-1e-3z" style="fill-opacity:.34902;fill-rule:nonzero"/>
 <path d="m23.023 13.336c-2.454-0.034-4.463 1.922-4.496 4.375-0.014 1.011 0.31 1.946 0.868 2.699 1.251-1.409 3.081-2.289 5.111-2.262 0.993 0.014 1.932 0.246 2.776 0.647 0.073-0.31 0.113-0.632 0.117-0.964 0.033-2.453-1.922-4.462-4.376-4.495zm-5.821 1.973c-1.278-0.017-2.319 1.005-2.337 2.283-5e-3 0.413 0.096 0.805 0.281 1.142 0.777-0.424 1.672-0.664 2.619-0.651 0.091 0 0.179 2e-3 0.269 4e-3 -8e-3 -0.129-0.014-0.262-0.012-0.392 0.01-0.711 0.174-1.386 0.454-1.994-0.363-0.252-0.799-0.394-1.274-0.4v8e-3zm10.921 1.741c-0.094-1e-3 -0.185-3e-3 -0.279 0.026 0.037 0.253 0.063 0.51 0.059 0.775-5e-3 0.412-0.064 0.809-0.164 1.19 1.111 0.634 2.028 1.573 2.626 2.706 0.64-0.323 1.351-0.523 2.104-0.563-0.163-2.276-2.022-4.09-4.346-4.121v-0.013zm-3.624 1.603c-3.433-0.047-6.248 2.692-6.294 6.125-0.047 3.433 2.692 6.248 6.126 6.294 3.434 0.047 6.248-2.692 6.295-6.125 0.046-3.433-2.693-6.248-6.127-6.294zm-6.741-0.06c-2.664-0.037-4.848 2.089-4.885 4.752-0.021 1.568 0.707 2.966 1.853 3.861 0.501-0.934 1.49-1.563 2.623-1.547 0.137 2e-3 0.267 0.035 0.399 0.041-0.037-0.302-0.052-0.61-0.048-0.923 0.02-1.494 0.525-2.869 1.367-3.974-0.486-0.626-0.83-1.375-0.97-2.188-0.112 0-0.225-0.034-0.339-0.036v0.014zm15.061 3.075c-0.809-0.011-1.569 0.184-2.243 0.525 0.368 0.847 0.567 1.783 0.554 2.766-0.025 1.839-0.787 3.499-2.004 4.696 0.868 0.99 2.139 1.62 3.562 1.64 2.664 0.036 4.848-2.09 4.884-4.753 0.037-2.663-2.09-4.838-4.753-4.874zm-20.398 0.358c-2.453-0.035-4.471 1.911-4.504 4.365-0.033 2.453 1.931 4.471 4.385 4.504 0.934 0.013 1.803-0.265 2.524-0.748-0.289-0.463-0.456-1.014-0.448-1.598 4e-3 -0.304 0.053-0.594 0.142-0.868-1.325-0.985-2.175-2.57-2.151-4.344 7e-3 -0.45 0.072-0.885 0.183-1.302-0.043-3e-3 -0.086-2e-3 -0.13-1e-3l-1e-3 -8e-3zm26.035 4.163c-0.13-2e-3 -0.258 0.027-0.383 0.029 5e-3 0.112 6e-3 0.217 5e-3 0.331-0.02 1.414-0.595 2.691-1.511 3.632 0.437 0.523 1.085 0.859 1.824 0.869 1.345 0.018 2.45-1.048 2.468-2.393s-1.057-2.45-2.402-2.469l-1e-3 1e-3zm-21.114-0.026c-1.345-0.018-2.442 1.049-2.46 2.393-0.018 1.345 1.049 2.45 2.394 2.469 1.031 0.014 1.915-0.618 2.282-1.517-0.855-0.895-1.463-2.031-1.721-3.285-0.161-0.036-0.324-0.059-0.495-0.061v1e-3z" style="fill-rule:nonzero;fill:url(#_Linear1)"/>
 <defs>
  <linearGradient id="_Linear1" x2="1" gradientTransform="matrix(32.4091,-3.35018,3.35018,32.4091,7.69753,24.5643)" gradientUnits="userSpaceOnUse">
   <stop style="stop-color:#d3d3d3" offset="0"/>
   <stop style="stop-color:#fcf9f9" offset="1"/>
  </linearGradient>
 </defs>
</svg>
