<svg style="clip-rule:evenodd;fill-rule:evenodd;stroke-linejoin:round;stroke-miterlimit:2" version="1.1" viewBox="0 0 48 48" xmlns="http://www.w3.org/2000/svg">
 <circle cx="24" cy="24" r="22.763" style="fill:url(#_Linear1)"/>
 <path d="m18.161 2.207c-0.35 4e-3 -0.709 0.047-1.071 0.103-1.477 0.47-2.885 1.088-4.214 1.835 0.117 0.09 0.296 0.154 0.541 0.178-1.722 0.098-2.45 1.888-4.131 2.32-0.459 0.39-0.905 0.793-1.332 1.217-0.652 1.507-0.387 3.338-1.519 4.837-0.092 1.585-1.989 1.743-2.606 0.765-0.417 0.796-0.788 1.62-1.109 2.468 0.326-0.249 2.045 2.165 1.434 3.036 1.83-2.585 1.824 1.972 0.474 2.367 1.787 1.765 3.867 3.353 4.927 5.721 0.242 2.362 4.777 0.204 3.375-0.361-1.175 0.648-1.259 0.287-0.553-0.576-1.522 0.413-1.447 0.43-1.158-0.718-0.892-1.228-0.922-2.32-0.846-3.608 1.537 0.25 2.165-3.111 3.533-0.876 1.083-1.247 2.792-0.808 2.774-2.691 0.549 0.277 3.755 1.092 2.679-1.172 0.134-1.213 1.451 2.121 2.051-0.241 1.682-1.311 1.715-4.332-0.918-3.164-3.071-0.507-0.731-2.96-0.01-4.452 1.722-0.276 1.613-1.681 0.065-1.575-1.101-1.176-0.597-3.201 0.641-3.816-0.743-1.245-1.83-1.608-3.029-1.596l2e-3 -1e-3zm13.5 0.353c-2.07 0.669-5.782-0.422-5.143 3.298-0.309 2.436-1.202 0.662-2.065-0.033-0.964-0.777-2.337-1.342-3.232 0.439 0.495 0.615 1.769-0.909 2.19 0.916 1.803-0.336 0.899 2.421 3.109 1.661 0.649 2.097 0.782 4.538 0.497 6.127-2.329-1.829-1 3.344-3.687 3.046-1.62-0.294-4.418 0.697-2.355 2.278-0.914 1.057 1.222 1.534 0.199 2.366 1.303 0.96-1.107 1.383-1.745 0.862-1.661 0.864 0.06 4.323-1.98 1.807 0.063 1.601 3.047 3.332 3.712 4.1 0.984-1.135 3.302 0.219 3.239-2.305 0.99-3.628 4.077 1.369 5.159-2.211 0.428-3.424-4.919 0.318-4.968-3.565 0.863-2.026 3.007-2.851 4.476-1.531 0.904-1.893 2.021 1.941 2.618-0.144-1.999-1.301 2.761-0.415 0.955-2.472-0.627-1.207 2.603-1.669 0.236-2.177 1.833-1.23 0.88-1.292-0.221-2.211 1.042-0.362 5.19-1.476 2.853 0.076-1.527 3.286 3.127 8.798 5.405 7.737 3.378-1.237 0.896 3.57 3.344 3.535 1.018-0.484 1.645 1 2.486 0.669 0.01-0.276 0.021-0.551 0.021-0.829 0-0.186-9e-3 -0.37-0.014-0.555-1.12-0.845-1.377-4.009-1.179-5.778 5e-3 -0.238 0.061-0.402 0.142-0.522-1-3.168-2.671-6.036-4.85-8.437-0.192-0.01-0.413-0.072-0.691-0.237-0.458-0.455-0.742-0.931-0.965-1.408-2.179-1.956-4.736-3.497-7.549-4.502h3e-3zm-8.286 7.386c-1.24-6e-3 -2.495 0.441-1.013 1.023 0.721-0.03 1.25 1.487 1.931 0.663 1.545-1.223 0.322-1.681-0.918-1.686zm-20.707 6.115c-0.823 2.212-1.311 4.587-1.405 7.063-4e-3 0.487-4e-3 0.974-8e-3 1.462 0.178 7.05 3.56 13.3 8.747 17.354 0.375-0.849 1.173-1.417 1.681-0.624-0.1-1.308 0.046-2.068 1.512-0.957 1.009 0.117 3.693 1.078 2.567 1.768-0.955-1.549-2.52-0.532-0.839 0.637-0.222 0.478-0.767 0.999-1.143 1.573 1.851 0.933 3.845 1.619 5.939 2.018 0.199-0.76 2.721-0.601 0.685-1.387-2.449-0.275-3.952-3.012-1.411-4.139-1.598-2.266 2.346-4.806 1.799-1.073-0.213 2.613 3.104 3.934 4.998 5.135 1.166-0.053 2.287-2.111 2.969-0.654 1.99 0.039-0.744-1.928 1.501-1.952 2.204-0.468 0.563-3.556-0.843-3.44-1.239-1.924 0.989-6.62-2.625-4.881-0.555-1.443-0.464-2.492-2.258-2.604-1.079-1.028-3.742-3.36-2.502-0.18 0.487 1.69 3.773 3.959 1.938 5.184-1.013-1.723-3.739-2.474-4.67-3.444-0.288 2.157-1.694-1.46 0.103-1.278 0.3-1.813-1.709-3.054-2.124-1.007-0.868-0.123-4.276-1.198-1.753 0.431 2.305 1.882-4.594-0.023-1.49-0.765 0.875-2.341-5.259-1.999-3.835 0.944-0.417 1.339-2.413-1.677-3.809-0.99 0.179-1.338 1.329-3.535 0.3-4.156-1.603-0.341 1.797-1.139-0.302-1.312-0.507-2.128-2.579-2.536-3.988-1.294-1.825-1.411 0.872-4.646 0.402-6.759-0.112-0.331-0.15-0.543-0.142-0.673h6e-3zm13.379 17.874c0.387 9e-3 0.711 0.439 0.758 1.581 0.042 0.509 0.086 1.999-0.779 1.748-2.589-0.177-1.049-3.356 0.021-3.328v-1e-3zm3.172 8.097c-0.055 0.013 0.066 0.229 0.472 0.899-2.02 2.033 4.842 1.304 2.32 3.568-0.023 0.05-0.034 0.114-0.053 0.17 0.426 0.038 0.854 0.063 1.286 0.077-0.086-0.464 0.309-1.262 1.014-1.689-0.914-1.046-2.411-2.459-3.553-2.596-0.634 0.265-1.381-0.453-1.486-0.43v1e-3zm5.843 4.442c-0.174 0.127-0.307 0.19-0.454 0.276 0.2-5e-3 0.401-5e-3 0.598-0.016-0.051-0.089-0.071-0.155-0.144-0.261v1e-3z" style="fill-rule:nonzero;fill:url(#_Linear2)"/>
 <defs>
  <linearGradient id="_Linear1" x2="1" gradientTransform="matrix(-1.33046,-45.4706,45.4706,-1.33046,24.8218,46.5788)" gradientUnits="userSpaceOnUse">
   <stop style="stop-color:#3f60a3;stop-opacity:.99" offset="0"/>
   <stop style="stop-color:#92a2c2;stop-opacity:.99" offset="1"/>
  </linearGradient>
  <linearGradient id="_Linear2" x2="1" gradientTransform="matrix(4.03,-45.3923,45.3923,4.03,22.9336,46.7834)" gradientUnits="userSpaceOnUse">
   <stop style="stop-color:#e6e6e6;stop-opacity:.36" offset="0"/>
   <stop style="stop-color:#f2f2f2;stop-opacity:.36" offset="1"/>
  </linearGradient>
 </defs>
</svg>
