<svg clip-rule="evenodd" fill-rule="evenodd" stroke-linejoin="round" stroke-miterlimit="2" viewBox="0 0 48 48" xmlns="http://www.w3.org/2000/svg">
 <linearGradient id="a" x2="1" gradientTransform="matrix(-1.33046 -45.4706 45.4706 -1.33046 24.8218 46.5788)" gradientUnits="userSpaceOnUse">
  <stop stop-color="#3f60a3" stop-opacity=".99" offset="0"/>
  <stop stop-color="#92a2c2" stop-opacity=".99" offset="1"/>
 </linearGradient>
 <linearGradient id="b" x2="1" gradientTransform="matrix(4.03 -45.3923 45.3923 4.03 22.9336 46.7834)" gradientUnits="userSpaceOnUse">
  <stop stop-color="#e6e6e6" stop-opacity=".36" offset="0"/>
  <stop stop-color="#f2f2f2" stop-opacity=".36" offset="1"/>
 </linearGradient>
 <circle cx="24" cy="24" r="22.763" fill="url(#a)"/>
 <path d="m18.161 2.207c-.35.004-.709.047-1.071.103-1.477.47-2.885 1.088-4.214 1.835.117.09.296.154.541.178-1.722.098-2.45 1.888-4.131 2.32-.459.39-.905.793-1.332 1.217-.652 1.507-.387 3.338-1.519 4.837-.092 1.585-1.989 1.743-2.606.765-.417.796-.788 1.62-1.109 2.468.326-.249 2.045 2.165 1.434 3.036 1.83-2.585 1.824 1.972.474 2.367 1.787 1.765 3.867 3.353 4.927 5.721.242 2.362 4.777.204 3.375-.361-1.175.648-1.259.287-.553-.576-1.522.413-1.447.43-1.158-.718-.892-1.228-.922-2.32-.846-3.608 1.537.25 2.165-3.111 3.533-.876 1.083-1.247 2.792-.808 2.774-2.691.549.277 3.755 1.092 2.679-1.172.134-1.213 1.451 2.121 2.051-.241 1.682-1.311 1.715-4.332-.918-3.164-3.071-.507-.731-2.96-.01-4.452 1.722-.276 1.613-1.681.065-1.575-1.101-1.176-.597-3.201.641-3.816-.743-1.245-1.83-1.608-3.029-1.596zm13.5.353c-2.07.669-5.782-.422-5.143 3.298-.309 2.436-1.202.662-2.065-.033-.964-.777-2.337-1.342-3.232.439.495.615 1.769-.909 2.19.916 1.803-.336.899 2.421 3.109 1.661.649 2.097.782 4.538.497 6.127-2.329-1.829-1 3.344-3.687 3.046-1.62-.294-4.418.697-2.355 2.278-.914 1.057 1.222 1.534.199 2.366 1.303.96-1.107 1.383-1.745.862-1.661.864.06 4.323-1.98 1.807.063 1.601 3.047 3.332 3.712 4.1.984-1.135 3.302.219 3.239-2.305.99-3.628 4.077 1.369 5.159-2.211.428-3.424-4.919.318-4.968-3.565.863-2.026 3.007-2.851 4.476-1.531.904-1.893 2.021 1.941 2.618-.144-1.999-1.301 2.761-.415.955-2.472-.627-1.207 2.603-1.669.236-2.177 1.833-1.23.88-1.292-.221-2.211 1.042-.362 5.19-1.476 2.853.076-1.527 3.286 3.127 8.798 5.405 7.737 3.378-1.237.896 3.57 3.344 3.535 1.018-.484 1.645 1 2.486.669.01-.276.021-.551.021-.829 0-.186-.009-.37-.014-.555-1.12-.845-1.377-4.009-1.179-5.778.005-.238.061-.402.142-.522-1-3.168-2.671-6.036-4.85-8.437-.192-.01-.413-.072-.691-.237-.458-.455-.742-.931-.965-1.408-2.179-1.956-4.736-3.497-7.549-4.502zm-8.286 7.386c-1.24-.006-2.495.441-1.013 1.023.721-.03 1.25 1.487 1.931.663 1.545-1.223.322-1.681-.918-1.686zm-20.707 6.115c-.823 2.212-1.311 4.587-1.405 7.063-.004.487-.004.974-.008 1.462.178 7.05 3.56 13.3 8.747 17.354.375-.849 1.173-1.417 1.681-.624-.1-1.308.046-2.068 1.512-.957 1.009.117 3.693 1.078 2.567 1.768-.955-1.549-2.52-.532-.839.637-.222.478-.767.999-1.143 1.573 1.851.933 3.845 1.619 5.939 2.018.199-.76 2.721-.601.685-1.387-2.449-.275-3.952-3.012-1.411-4.139-1.598-2.266 2.346-4.806 1.799-1.073-.213 2.613 3.104 3.934 4.998 5.135 1.166-.053 2.287-2.111 2.969-.654 1.99.039-.744-1.928 1.501-1.952 2.204-.468.563-3.556-.843-3.44-1.239-1.924.989-6.62-2.625-4.881-.555-1.443-.464-2.492-2.258-2.604-1.079-1.028-3.742-3.36-2.502-.18.487 1.69 3.773 3.959 1.938 5.184-1.013-1.723-3.739-2.474-4.67-3.444-.288 2.157-1.694-1.46.103-1.278.3-1.813-1.709-3.054-2.124-1.007-.868-.123-4.276-1.198-1.753.431 2.305 1.882-4.594-.023-1.49-.765.875-2.341-5.259-1.999-3.835.944-.417 1.339-2.413-1.677-3.809-.99.179-1.338 1.329-3.535.3-4.156-1.603-.341 1.797-1.139-.302-1.312-.507-2.128-2.579-2.536-3.988-1.294-1.825-1.411.872-4.646.402-6.759-.112-.331-.15-.543-.142-.673h.006zm13.379 17.874c.387.009.711.439.758 1.581.042.509.086 1.999-.779 1.748-2.589-.177-1.049-3.356.021-3.328zm3.172 8.097c-.055.013.066.229.472.899-2.02 2.033 4.842 1.304 2.32 3.568-.023.05-.034.114-.053.17.426.038.854.063 1.286.077-.086-.464.309-1.262 1.014-1.689-.914-1.046-2.411-2.459-3.553-2.596-.634.265-1.381-.453-1.486-.43zm5.843 4.442c-.174.127-.307.19-.454.276.2-.005.401-.005.598-.016-.051-.089-.071-.155-.144-.261z" fill="url(#b)" fill-rule="nonzero"/>
</svg>
