<svg style="clip-rule:evenodd;fill-rule:evenodd;stroke-linejoin:round;stroke-miterlimit:2" version="1.1" viewBox="0 0 48 48" xmlns="http://www.w3.org/2000/svg">
 <path d="m47.312 10.595c0-0.976-0.388-1.911-1.077-2.601-0.69-0.691-1.627-1.079-2.603-1.079h-39.264c-0.976 0-1.913 0.388-2.603 1.079-0.689 0.69-1.077 1.625-1.077 2.601v27.823c0 0.976 0.388 1.911 1.077 2.602 0.69 0.69 1.627 1.078 2.603 1.078h39.264c0.976 0 1.913-0.388 2.603-1.078 0.689-0.691 1.077-1.626 1.077-2.602v-27.823z" style="fill-opacity:.67"/>
 <path d="m47.312 9.381c0-1.921-1.557-3.479-3.479-3.479h-39.666c-1.922 0-3.479 1.558-3.479 3.479v28.225c0 1.921 1.557 3.479 3.479 3.479h39.666c1.922 0 3.479-1.558 3.479-3.479v-28.225z" style="fill:url(#_Linear1)"/>
 <path d="m47.312 35.784v1.822c0 1.921-1.557 3.479-3.479 3.479h-39.666c-1.922 0-3.479-1.558-3.479-3.479v-1.822h46.624z" style="fill-rule:nonzero;fill:url(#_Linear2)"/>
 <path d="m8.833 8.443c0.269-0.339 0.79-0.325 1.043-0.078 0.254 0.247 0.241 0.728-0.032 1.2-0.192 0.356-0.67 0.703-1.066 0.933-0.383-0.251-0.842-0.624-1.015-0.989-0.246-0.487-0.234-0.967 0.033-1.2s0.787-0.219 1.037 0.134zm0.445 0.241c0.125 0.021 0.227 0.105 0.224 0.229-4e-3 0.123-0.109 0.216-0.237 0.216-0.147 1e-3 -0.227-0.106-0.224-0.228 3e-3 -0.124 0.086-0.243 0.237-0.217zm-0.907-0.023c0.145-0.021 0.228 0.106 0.225 0.23-4e-3 0.122-0.055 0.211-0.237 0.216-0.126 4e-3 -0.227-0.106-0.224-0.229s0.11-0.199 0.236-0.217z" style="fill:#cdcdcd"/>
 <path d="m5.043 10.601h-0.098c-0.092 0-0.165-0.075-0.165-0.167v-0.28c-0.396-0.1-0.509-0.334-0.509-0.816 0-0.711 0.577-1.289 1.289-1.289 0.711 0 1.288 0.578 1.288 1.289 0 0.475-0.12 0.708-0.507 0.811v0.284c0 0.092-0.075 0.167-0.167 0.167h-0.097c-0.092 0-0.167-0.075-0.167-0.167v-0.223c-0.043 3e-3 -0.088 5e-3 -0.135 6e-3v0.218c0 0.091-0.074 0.166-0.167 0.166h-0.096c-0.092 0-0.167-0.075-0.167-0.166v-0.217c-0.047-1e-3 -0.093-3e-3 -0.136-5e-3v0.222c0 0.092-0.075 0.167-0.166 0.167zm-0.017-1.787c0.218 0.085 0.395 0.171 0.395 0.384 0 0.211-0.143 0.252-0.395 0.383-0.194 0.1-0.396-0.172-0.396-0.383 0-0.213 0.192-0.463 0.396-0.384zm1.063 0c0.21-0.06 0.395 0.171 0.395 0.384 0 0.211-0.208 0.494-0.395 0.383-0.231-0.137-0.396-0.172-0.396-0.383 0-0.213 0.154-0.316 0.396-0.384z" style="fill:#cdcdcd"/>
 <path d="m11.412 8.53l0.388 0.41 0.613-0.581 0.49 0.517-0.613 0.581 0.388 0.41c0.133 0.139 0.131 0.356-2e-3 0.481-0.134 0.127-0.35 0.117-0.481-0.022l-0.389-0.41-0.615 0.582-0.49-0.517 0.615-0.553-0.388-0.44c-0.133-0.14-0.131-0.355 3e-3 -0.481 0.133-0.127 0.349-0.117 0.481 0.023z" style="fill:#cdcdcd"/>
 <path d="m14.953 8.437l4e-3 -0.157 0.563 0.015-5e-3 0.157 0.304 8e-3c0.292 9e-3 0.523 0.252 0.514 0.544l-0.028 1.058c-8e-3 0.292-0.251 0.522-0.543 0.515l-1.17-0.032c-0.292-8e-3 -0.522-0.251-0.514-0.544l0.028-1.057c8e-3 -0.293 0.252-0.523 0.544-0.515l0.303 8e-3zm-0.169 0.461c0.152 3e-3 0.271 0.13 0.267 0.282-3e-3 0.151-0.13 0.271-0.282 0.266-0.151-3e-3 -0.271-0.13-0.267-0.281 4e-3 -0.152 0.131-0.272 0.282-0.267zm0.937 0.024c0.152 5e-3 0.272 0.131 0.268 0.283s-0.131 0.271-0.283 0.267-0.271-0.13-0.267-0.282 0.13-0.272 0.282-0.268z" style="fill:#cdcdcd"/>
 <defs>
  <linearGradient id="_Linear1" x2="1" gradientTransform="matrix(2.21762e-15,-36.2165,36.2165,2.21762e-15,275.714,42.119)" gradientUnits="userSpaceOnUse">
   <stop style="stop-color:#566069" offset="0"/>
   <stop style="stop-color:#6c7884" offset="1"/>
  </linearGradient>
  <linearGradient id="_Linear2" x2="1" gradientTransform="matrix(-.30178 -32.3809 32.3809 -.30178 2352.98 18.3654)" gradientUnits="userSpaceOnUse">
   <stop style="stop-color:#ccc" offset="0"/>
   <stop style="stop-color:#f5f2f5" offset="1"/>
  </linearGradient>
 </defs>
</svg>
