<svg style="clip-rule:evenodd;fill-rule:evenodd;stroke-linejoin:round;stroke-miterlimit:2" version="1.1" viewBox="0 0 48 48" xmlns="http://www.w3.org/2000/svg">
 <g transform="matrix(1.04057 0 0 1.04057 -.973795 -.973795)">
  <path d="m10.543 10c-0.7-1e-3 -1.318 0.525-1.502 1.277l-5.986 24.536c-0.037 0.148-0.055 0.301-0.055 0.455 0 0.95 0.702 1.732 1.555 1.732h6.904c0.7 0 1.317-0.527 1.5-1.279l5.987-24.536c0.036-0.147 0.054-0.3 0.054-0.453 0-0.95-0.702-1.732-1.555-1.732h-6.902z" style="fill-rule:nonzero;fill:url(#_Linear1)"/>
 </g>
 <g transform="matrix(1.04057 0 0 1.04057 -.973795 -.973795)">
  <path d="m36.543 10c-0.7-1e-3 -1.318 0.525-1.502 1.277l-5.986 24.536c-0.037 0.148-0.055 0.301-0.055 0.455 0 0.95 0.702 1.732 1.555 1.732h6.904c0.7 0 1.317-0.527 1.5-1.279l5.987-24.536c0.036-0.147 0.054-0.3 0.054-0.453 0-0.95-0.702-1.732-1.555-1.732h-6.902z" style="fill-rule:nonzero;fill:url(#_Linear2)"/>
 </g>
 <g transform="matrix(1.04057 0 0 1.04057 -.973795 -.973795)">
  <path d="m23.543 10c-0.7-1e-3 -1.318 0.525-1.502 1.277l-5.986 24.536c-0.037 0.148-0.055 0.301-0.055 0.455 0 0.95 0.702 1.732 1.555 1.732h6.904c0.7 0 1.317-0.527 1.5-1.279l5.987-24.536c0.036-0.147 0.054-0.3 0.054-0.453 0-0.95-0.702-1.732-1.555-1.732h-6.902z" style="fill-rule:nonzero;fill:url(#_Linear3)"/>
 </g>
 <defs>
  <linearGradient id="_Linear1" x2="1" gradientTransform="matrix(1.50811,-28,28,1.50811,9.49189,38)" gradientUnits="userSpaceOnUse">
   <stop style="stop-color:rgb(154,18,25)" offset="0"/>
   <stop style="stop-color:rgb(221,47,56)" offset="1"/>
  </linearGradient>
  <linearGradient id="_Linear2" x2="1" gradientTransform="matrix(1.46885,-28,28,1.46885,35.0742,38)" gradientUnits="userSpaceOnUse">
   <stop style="stop-color:rgb(7,94,181)" offset="0"/>
   <stop style="stop-color:rgb(7,124,181)" offset="1"/>
  </linearGradient>
  <linearGradient id="_Linear3" x2="1" gradientTransform="matrix(1.80278,-28,28,1.80278,22.1972,38)" gradientUnits="userSpaceOnUse">
   <stop style="stop-color:rgb(28,122,57)" offset="0"/>
   <stop style="stop-color:rgb(39,167,78)" offset="1"/>
  </linearGradient>
 </defs>
</svg>
