<svg style="clip-rule:evenodd;fill-rule:evenodd;stroke-linejoin:round;stroke-miterlimit:2" version="1.1" viewBox="0 0 48 48" xmlns="http://www.w3.org/2000/svg">
 <path d="m34.907 5.642c0.96-0.257 1.948 0.313 2.205 1.273l6.522 24.341c0.257 0.96-0.313 1.948-1.273 2.205l-31.296 8.385c-0.959 0.257-1.947-0.313-2.204-1.272l-6.522-24.342c-0.257-0.959 0.313-1.947 1.272-2.204l31.296-8.386z" style="fill:#00548e"/>
 <path d="m38.978 9.508c0.956-0.139 1.845 0.525 1.984 1.48l3.522 24.246c0.139 0.956-0.524 1.844-1.48 1.983l-32.163 4.673c-0.955 0.139-1.844-0.525-1.983-1.481l-3.522-24.245c-0.139-0.956 0.524-1.845 1.48-1.983l32.162-4.673z" style="fill:#fff"/>
 <path d="m43.045 14.005c0.966 0 1.75 0.784 1.75 1.75v24.5c0 0.966-0.784 1.75-1.75 1.75h-32.5c-0.966 0-1.75-0.784-1.75-1.75v-24.5c0-0.966 0.784-1.75 1.75-1.75h32.5z" style="fill:url(#_Linear1)"/>
 <path d="m15.441 14.005c0.097 0.257-0.051 0.665 0.639 0.361 0.338 0.681 0.404-0.099 0.473-0.361h-1.112zm1.991 0c0.183 0.397 0.155 1.046 0.92 0.588 0.83 0.536 0.899 2.533 1.017 3.277 0.646 0.087-0.475 2.774 0.932 3.11 0.261-1.379 1.278-2.47 2.295-3.325-0.471 0.2-1.071-0.272-0.422-0.853 0.848 0.887 0.34-0.083-0.02-0.664 0.352-0.417 0.891-0.658 0.672-1.463-0.48-0.353-0.376-0.552-0.041-0.67h-5.353zm14.875 0c-0.711 0.72-1.624 1.689-1.315 2.887 0.29 0.204 0.126-2.079 1.127-2.237 0.14-0.346 0.354-0.537 0.609-0.65h-0.421zm3.847 0c0.088 0.089 0.125 0.237 0.053 0.504-0.296 0.094-1.744-0.507-1.744 0.887-0.998 0.179 0.317 2.059-0.393 2.146 0.243-0.774-1.02-2.172-0.656-0.723-0.023 0.737 1.14 3.121 0.113 1.993 0.199-1.575-0.348 0.821-0.922-0.204 1.19 0.045 0.326-4.001-0.035-1.595 0.224 1.065 0.153 1.044-0.701 0.607-0.741 0.829-1.371 0.507-1.933 1.334-0.377 0.718-1.146 1.145-1.198-0.308 1.401 0.752 0.623-1.097-0.32-0.973 0.098-0.697-0.522-0.289-0.928-0.047-0.558 1.114-1.844 2.386-1.543 3.76 0.419-0.341 0.624-0.279 0.68 0.57 0.653 0.287 0.229-2.011 0.822-2.519 1.056-1.309-0.307 1.164 0.385 1.388 1.302-0.241-0.011 0.275-0.039 0.992-0.251 1.041-1.778 0.305-2.307 1.625-1.082 0.25 0.289 1.779-1.045 1.522-0.607 0.904 0.785 1.96 1.002 0.338 0.221-1.468 1.712 0.426 1.539 0.025-0.958-1.084 0.077-1.029 0.405-0.14 0.525 1.84 0.935-1.998 1.617-0.639 0.042-1.177 0.8 0.257 0.75 0.769-0.674-0.397-2.364 0.73-0.817 0.838 0.895 0.349-0.478 1.74-1.203 0.889-0.643 1.19-1.207-0.879-1.859-0.744-1.46-0.034-2.188 1.758-2.274 3.189-0.125 0.821 0.476 1.698 1.163 1.84 1.407-0.634 1.813 0.308 1.996 1.615 0.092 1.509 0.265 2.951 0.812 4.438 1.732 0.196 1.206-2.321 2.197-3.109-0.449-1.503 0.561-2.552 1.114-3.844-1.286 0.251-1.646-1.717-1.895-2.797 0.803 0.017 0.759 3.548 2.104 1.848 1.047-0.603 0.519-1.33-0.299-1.276-0.752-1.284 0.382-0.728 0.773-0.303 1.577-0.116 1.88 1.25 2.323 2.639-0.018-0.866 1.394-3.124 1.804-1.359 0.618-0.033 0.335 1.957 0.735 0.58 0.378 0.912 1.153 0.302 0.589-0.42-0.466-1.251 1.618-0.595 1.51-2.014-0.476-0.547 0.478-1.766-0.236-1.463-0.145-1.054 0.705-0.811 0.912 0.026 0.041-0.901 1.192-1.595 1.338-2.739 0.499-1.199-0.779-0.554-0.357-1.443 0.213-1.558 1.698-0.373 2.021-1.328 1.301-1.008-0.018 0.958 0.018 1.932 0.573 1.168 0.366-1.948 1.111-1.852 0.804 0.157 1.04-1.057 1.459-1.359v-1.09c-0.193-0.107-0.537-0.554-0.977-0.75-0.097 0.899-0.549-0.066-1.039 0.285-0.154-0.729-1.007-0.456-1.394-1.063-0.527-1.053-1.03 0.437-1.596 0.051-0.466 1.119-0.249-0.784-0.832-0.767-0.652 0.603-1.529-0.967-1.912 0.244-0.938-0.147 0.735-1.085 0.504-2.006h-1.395zm-24.017 0.182l-0.141 0.058c-0.972 0.963 0.347 0.539 0.141-0.058zm28.174 0.06c-0.522 1.023 1.016 0.594 0 0zm-25.813 0.111c0.172 0.672 0.704 0.068 0 0zm26.332 0c-0.161 0.456 0.266 0.312 0 0zm0.395 0.297c-0.146 0.274 0.631 0.272 0 0zm-28.122 0.037l-0.017 0.235-0.047 0.301c-0.803 0.959 1.048 0.015 0.064-0.536zm-0.662 0.038c-0.49 1.159 0.957 0.685 0 0zm1.305 0.048c0.012 0.346 0.133 0.398 0.359 0.58 0.446-0.206-0.019-0.557-0.359-0.58zm1.342 0.088c-0.319 0.564 0.286 0.911 0.683 0.84 1.237-0.416-0.136-0.582-0.683-0.84zm-0.447 0.407c-0.243 0.468 0.418 0.213 0 0zm0.287 0.765l-0.094 0.024c-0.636 1.162 0.676 0.414 0.094-0.024zm-3.043 0.053c-0.07-6e-3 -0.151-4e-3 -0.248 0.01-0.131-0.039-0.155 0.174-0.151 0.261-0.473 1.885 1.443-0.179 0.399-0.271zm3.883 0.047c-1.568 1.484 1.209 1.437 1.216 2.457-0.424 0.782 0.899 2.314 0.612 1.672 0.992 0.271-0.51-1.01 0.189-1.254 0.507 1.326 0.854-0.746-0.23-0.424 0.464-0.932-0.669-1.589-1.215-1.477-0.331 0.955-0.142-1.473-0.41-0.406-0.201 1.412-0.399-0.411-0.162-0.568zm-1.645 0.037c-0.083 0.27 0.249 0.502-0.203 0.484 0.369 1.274 0.807-0.591 0.203-0.484zm2.361 0.06c-0.555 0.504 0.845 0.502 0 0zm-3.953 0.286c-0.753 0.748-7e-3 1.074 0.393 1.248-1.694 0.516 1.855 1.03 0.752-0.272-0.149-1.562-1.038 0.03-1.145-0.976zm2.199 0.839c-0.432 0.592 0.73 0.885 0.09 1.68-0.095-0.563-0.966-0.049-1.42-0.566-0.011 1.177-0.155 0.454-0.82 0.416-0.036-0.614-0.865-0.549-1.434-0.905-0.69 0.461-2.024 0.586-2.351 1.534v0.838c0.468 1.023 0.679 2.799 0 3.316v0.018c0.478 0.035 0.58-1.668 1.402-1.84 0.562 0.034 0.979 1.576 1.403 2.338 0.031 1.455 0.328 2.703 1.226 3.871 0.54 0.981-0.079-0.296 0.43 0.166 0.564 1.318 1.505 1.753 2.637 2.203 0.757 1.528 0.629-0.652-0.165-0.42 0.142-0.987-0.027-0.599-0.662-0.291-1.468-0.975 0.602-2.888 1.338-1.649-0.09-0.455 0.55-1.231 0.518-1.806-9e-3 -0.445 1.525-2.03 1.228-1.315 1.063-0.281-1.085-0.831-0.097-1.222 1.603-0.138 0.793-1.119 0.256-2.067-0.422 0.282-0.814-0.722-1.541-0.994 0.05 0.503-0.048 1.005-0.051 2.192-0.077 1.684-0.673-0.582-1.319-0.631-1.034-0.411-0.41-1.953-0.023-2.284-1.021-0.686 1.561-0.462 0.572-1.816-0.149 1.303-0.871 0.42-1.217-0.766zm-0.322 0.754c-0.399 0.326 0.644 0.344 0 0zm1.002 0.11c-0.129 0.278 0.106 0.318 0 0zm-5.777 0.285c-0.263 0.237 0.24 0.138 0 0zm13.845 0.629l-0.125 0.037-0.269 0.111c-0.904 0.93 0.995 0.559 0.394-0.148zm-7.673 0.408c-0.359 1.415 0.718 0.572 0 0zm1.037 0.037c-0.444 0.432 0.261 0.197 0 0zm-7.854 1.705c-0.108 0.598 0.313 0.232 0 0zm15.76 0.235c-0.277 0.588 0.373 0.945 0.121 1.57 0.664 0.717 0.096-0.992-0.121-1.57zm1.432 0.334c-0.196 0.776 0.398 0.313 0 0zm-1.717 0.591c-0.755 0.618 0.253 1.018 0 0zm16.367 0.014c-0.177 0.365 0.247 0.199 0 0zm-31.232 0.111c-0.129 0.294 0.109 0.301 0 0zm31.339 0.53c-0.348 0.382 0.277 0.257 0 0zm-21.949 0.705c-0.553 0.723 1.119 0.416 0 0zm11.842 0.197l0.197 0.062 0.067 0.139c-0.732 0.375 0.743 1.968-0.299 1.963-0.253-0.479-1.006-2.062 0.035-2.164zm10.018 0.396c-0.637 0.552 0.647 0.274 0 0zm-0.178 0.729c-0.04 0.312-0.101 0.701-0.359 0.877-1.358 0.887 0.878 0.254 0.359-0.877zm-12.899 0.814c-0.295 0.244 0.244 0.156 0 0zm-14.632 2.631c0.188 0.468 0.401 0.288 0 0zm25.455 0.643c-0.188 0.46 0.11 0.399 0 0zm-21.055 0.137c-0.251 0.233 0.224 0.151 0 0zm21.197 0.517c-0.074 0.269 0.069 0.343 0 0zm0.27 0.668c-0.164 0.452 0.255 0.3 0 0zm-21.449 0.049c-0.289 0.133-0.72 0.421-0.481 0.838-0.902 1.485 0.134 2.826 0.873 3.951-0.201 1.951-0.607 3.965-0.338 5.92 0.564 0.138 0.746-1.786 0.774-2.424 0.694-0.188 0.686-1.425 1.164-1.459 0.413-1.13 1.507-1.8 1.676-3.058 0.655-0.91 0.492-1.644-0.59-1.754-1.143 0.106-0.371-1.12-1.563-1.348-0.306-1.115-1.52 0.066-1.515-0.666zm18.89 0.246c-0.01 0.872 0.491 0.84 0 0zm1.737 0.088c-0.258 0.208-0.414 0.564-0.717 0.703-0.084 1.292 1.188 0.259 0.717-0.703zm-2.344 0.197c0.269 0.246 0.442 0.563 0.584 0.914 0.916 1.561 0.129-0.718-0.584-0.914zm2.719 0.865c-0.432 0.913 0.487 0.262 0 0zm1.359 0.038c-0.136 0.326 0.455 0.28 0 0zm0.572 0.148c-0.253 0.2 0.145 0.645 0.258 0.809 0.982 0.388 0.591-0.664-0.258-0.809zm1.11 0.937c-0.085 0.187 0.372 0.219 0 0zm-1.61 0.581c-0.374 0.544-0.806 0.423-1.154 0.964-1.159 0.142-0.995 2.448-0.35 2.618 1.098-0.781 2.032-0.473 2.553 0.65 1.76-0.439 0.785-3.051-0.047-4.121-0.022 1.026-0.712 0.387-1.002-0.111zm-9.178 0.384c-0.14 0.226-0.58 0.347-0.5 0.69-0.228 1.725 0.664 0.196 0.5-0.69zm13.559 3.643c-0.472 0.619 0.46 0.435 0 0zm-0.25 0.629l-0.078 0.103-0.135 0.256c-0.608 1.095 0.292 0.316 0.213-0.359zm-2.719 0.199c-0.241 0.622 0.587-0.028 0 0zm-23.308 2.951c-0.186 0.401 0.456 0.405 0 0zm-7.66 0.494c0.054 5e-3 0.106 0.016 0.162 0.016h32.398c0.055 0 0.108-0.011 0.162-0.016h-32.722z" style="fill:#66b4f0"/>
 <path d="m29.108 22.501c-0.117 0.024-0.217 0.101-0.271 0.207-3e-3 5e-3 3e-3 -3e-3 -5e-3 6e-3 -0.041 0.05-0.069 0.11-0.081 0.175-0.352 1.817-1.106 4.047-2.265 6.674-0.634 1.441-1.215 2.573-1.732 3.387-0.515 0.81-0.978 1.292-1.289 1.459-0.223 0.091-0.425 0.16-0.598 0.202-8e-3 2e-3 -0.015 4e-3 -0.023 6e-3 -0.145 0.045-0.261 0.053-0.361 0.039 0-1e-3 -1e-3 -1e-3 -2e-3 -2e-3 -0.355-0.052-0.624-0.155-0.828-0.299-0.012-8e-3 -0.024-0.016-0.036-0.023-0.161-0.089-0.252-0.196-0.546-0.14-0.097 0.019-0.234 0.075-0.321 0.203-0.086 0.128-0.089 0.276-0.071 0.372 0.042 0.218 0.163 0.334 0.291 0.444 0.284 0.249 0.654 0.392 1.045 0.501 0.05 0.042 0.11 0.07 0.175 0.083l2e-3 1e-3c0.01 2e-3 0.021 4e-3 0.032 5e-3 0.049 7e-3 0.099 4e-3 0.147-7e-3 0.186 9e-3 0.374 0.012 0.576-0.026 0.269-0.052 0.524-0.125 0.763-0.221 0.251-0.099 0.481-0.227 0.686-0.383 1.425-0.998 2.641-2.992 3.761-5.972v-2e-3c0.676-1.782 1.215-3.613 1.617-5.49 1e-3 -1e-3 -1e-3 -2e-3 0-3e-3 0.073-0.254 0.011-0.426-0.064-0.656 0-1e-3 -1e-3 -1e-3 -2e-3 -2e-3 -0.035-0.108-0.066-0.194-0.115-0.281-0.024-0.043-0.05-0.089-0.111-0.146-5e-3 -5e-3 -0.026-4e-3 -0.033-9e-3 -0.01-0.011-0.024-0.027-0.024-0.027s-0.197-0.08-0.198-0.08c0-1e-3 -0.068-2e-3 -0.068-2e-3s-0.037 4e-3 -0.051 7e-3zm-4.856-2.538c-0.925-0.015-1.831 0.062-2.72 0.231-0.957 0.182-1.643 0.476-2.069 0.836-0.425 0.359-0.616 0.766-0.622 1.323 4e-3 0.206 0.023 0.403 0.058 0.589 0.213 1.118 0.644 1.935 1.283 2.506 3e-3 3e-3 7e-3 6e-3 0.01 9e-3 0.103 0.098 0.204 0.165 0.248 0.394 0.021 0.111-7e-3 0.226-0.077 0.315-0.021 0.027-0.032 0.041-0.032 0.041-0.058 0.075-0.142 0.126-0.235 0.144-0.226 0.043-0.395-0.074-0.521-0.185-0.49-0.271-0.91-0.713-1.272-1.333-1e-3 0-1e-3 0-2e-3 -1e-3 -0.316-0.547-0.534-1.135-0.652-1.756-0.042-0.219-0.059-0.429-0.053-0.633-0.015-0.778 0.422-1.498 1.184-2.115l1e-3 -1e-3c0.873-0.7 1.962-1.132 3.237-1.303l5e-3 -1e-3c1.061-0.154 2.122-0.203 3.183-0.145h5e-3c1.071 0.044 2.158 0.185 3.261 0.421h7e-3c0.841 0.192 1.644 0.429 2.41 0.707 0.762 0.267 1.501 0.59 2.218 0.97 1.924 0.957 3.105 2.192 3.392 3.705 0.132 0.69 0.031 1.36-0.304 1.944-0.333 0.582-0.884 1.076-1.617 1.497h-2e-3c-0.997 0.591-1.135 0.811-2.592 1.088-0.302 0.058-0.596 0.102-0.879 0.132-0.279 0.029-0.528 0.047-0.752 0.053-7e-3 0-0.013 0-0.02-1e-3 -0.229-6e-3 -0.426-0.025-0.602-0.065-0.097-0.022-0.189-0.052-0.286-0.116-0.098-0.063-0.209-0.186-0.239-0.342-0.045-0.237 0.071-0.389 0.163-0.495 0.069-0.08 0.161-0.149 0.254-0.22 0.079-0.1 0.202-0.155 0.329-0.148 0.011 0 0.021 1e-3 0.031 2e-3 3e-3 1e-3 6e-3 1e-3 9e-3 2e-3 0.01 1e-3 0.02 3e-3 0.03 5e-3 3e-3 0 5e-3 1e-3 8e-3 2e-3 0.023 5e-3 0.045 0.013 0.066 0.023 0.074 0.032 0.136 0.087 0.178 0.155 8e-3 4e-3 0.04 0.016 0.139 0.023 0.021 1e-3 0.043 4e-3 0.063 8e-3 0.357 0.082 0.893 0.074 1.586-0.057 0.667-0.299 1.321-0.628 1.954-0.993l5e-3 -4e-3c0.829-0.573 1.096-1.192 0.928-2.077-0.211-1.107-0.998-2.069-2.48-2.903l-2e-3 -1e-3c-0.82-0.443-1.667-0.824-2.54-1.144-1e-3 0-3e-3 -1e-3 -4e-3 -1e-3 -0.873-0.329-1.778-0.586-2.714-0.769-1.032-0.199-2.017-0.304-2.955-0.316h-2e-3zm6.022 8.234c-4e-3 -2e-3 -2e-3 -1e-3 2e-3 3e-3l-2e-3 -3e-3z" style="fill-rule:nonzero;fill:#fff"/>
 <defs>
  <linearGradient id="_Linear1" x2="1" gradientTransform="matrix(0,-28,-36,0,26.7949,42.005)" gradientUnits="userSpaceOnUse">
   <stop style="stop-color:#007cff" offset="0"/>
   <stop style="stop-color:#3eb0f2" offset="1"/>
  </linearGradient>
 </defs>
</svg>
