<svg width="48" height="48" xmlns="http://www.w3.org/2000/svg">
 <path d="m24 41.00003s0-19 0-24 4-8 8-8 8 3 8 8-4 8-8 8-24 0-24 0" style="fill:none;opacity:.2;stroke-linecap:round;stroke-linejoin:round;stroke-width:8;stroke:#141414"/>
 <path d="m32 4a12 12 0 0 0 -10.267578 5.8125c-.050319.0817949-.096109.1667643-.144531.25a12 12 0 0 0 -.378907.708984c-.09913.201188-.187395.408736-.27539.617188a12 12 0 0 0 -.167969.416016c-.095037.252049-.179657.509806-.257813.771484a12 12 0 0 0 -.111328.398437c-.063967.245798-.121427.494501-.169922.748047a12 12 0 0 0 -.089843.550782c-.029261.204884-.0573.409687-.076172.61914a12 12 0 0 0 -.060547 1.107422v4h4v-4a8 8 0 0 1 8-8 8 8 0 0 1 8 8 8 8 0 0 1 -8 8h-6-2-4-1-15.0546875a4.0004 4.0004 0 0 0 4.0546875 4h12v12a4.0004 4.0004 0 0 0 4 4.054688v-16.054688h4 4a12 12 0 0 0 12-12 12 12 0 0 0 -12-12z" fill="#58a90a"/>
 <path d="m32 8c-4.418278 0-8 3.581722-8 8v4h-16c-2.2303733-0.03027-4.0546699 1.769421-4.0546875 4h28.054688c4.418278 0 8-3.581722 8-8s-3.581722-8-8-8zm0 4c2 0 4 1.133333 4 4s-2 4-4 4h-4v-4c0-2.866667 2-4 4-4zm-8 16v16.054688c2.230579-1.8e-5 4.03027-1.824315 4-4.054688v-12zm-0.01758 16.054688c0.01758-0.05469 0 0 0 0z" fill="#e4e4e4"/>
 <path d="m20 28h8v1h-8z" opacity=".2"/>
 <g fill="#fff">
  <path d="m32 4c-6 0-12 4.8666667-12 12v1c0-7.1333333 6-12 12-12 5.85694 0 11.698642 4.6437041 11.974609 11.5.006741-.16747.025391-.329918.025391-.5 0-7.1333333-6-12-12-12zm3.955078 12.5c-.228246 2.484442-2.080809 3.5-3.955078 3.5h-4v1h4c2 0 4-1.133333 4-4 0-.180214-.029611-.333337-.044922-.5zm-27.955078 3.5a4.0004 4.0004 0 0 0 -4.0214844 4.511719 4.0004 4.0004 0 0 1 4.0214844-3.511719h12v-1z" opacity=".2"/>
  <path d="m20 20h8v1h-8z" opacity=".2"/>
 </g>
</svg>
