<svg clip-rule="evenodd" fill-rule="evenodd" stroke-linejoin="round" stroke-miterlimit="1.41421" viewBox="0 0 64 64" xmlns="http://www.w3.org/2000/svg">
 <linearGradient id="a" x2="1" gradientTransform="matrix(0 -36.7264 36.7264 0 32 51.138)" gradientUnits="userSpaceOnUse">
  <stop stop-color="#138985" offset="0"/>
  <stop stop-color="#00c6bf" offset="1"/>
 </linearGradient>
 <g fill-rule="nonzero">
  <path d="m16.4 23.287c3.113-5.385 8.934-9.012 15.596-9.012 6.676 0 12.508 3.642 15.615 9.045.759 1.607 1.697 5.775 1.886 7.005.116-3.293-.796-6.478-1.001-7.05 4.691 0 8.5 3.809 8.5 8.5 0 .959-.159 1.882-.453 2.743 2.66 1.571 4.461 4.47 4.461 7.757 0 4.937-4.063 9-9 9h-35.308v-.003c-7.588-.16-13.7-6.371-13.7-13.997 0-7.227 5.488-13.182 12.52-13.923-.729 1.408-1.162 3.943-1.246 5.329.301-1.106.749-2.755 2.13-5.394z" fill="url(#a)"/>
  <g fill="#fff">
   <path d="m32 18c-7.68 0-14 6.32-14 14s6.32 14 14 14 14-6.32 14-14-6.32-14-14-14zm0 3c6.034 0 11 4.966 11 11s-4.966 11-11 11-11-4.966-11-11 4.966-11 11-11z"/>
   <path d="m28.1 25c-1.164 0-2.1.912-2.1 2.045v10.908c0 1.133.936 2.047 2.1 2.047 1.163 0 1.845-.915 1.9-2.047v-1.846h4.4c3.093 0 5.6-2.44 5.6-5.453 0-3.012-2.507-5.654-5.6-5.654zm1.9 4.047h4.551c.851 0 1.449.78 1.449 1.601 0 .822-.598 1.418-1.449 1.399h-4.551z"/>
  </g>
 </g>
</svg>
