<?xml version="1.0" encoding="UTF-8" standalone="no"?><!DOCTYPE svg PUBLIC "-//W3C//DTD SVG 1.1//EN" "http://www.w3.org/Graphics/SVG/1.1/DTD/svg11.dtd"><svg width="100%" height="100%" viewBox="0 0 64 64" version="1.1" xmlns="http://www.w3.org/2000/svg" xmlns:xlink="http://www.w3.org/1999/xlink" xml:space="preserve" xmlns:serif="http://www.serif.com/" style="fill-rule:evenodd;clip-rule:evenodd;stroke-linejoin:round;stroke-miterlimit:1.41421;"><path d="M29.065,3.883c3.153,-0.039 5.745,2.49 5.783,5.644l0.347,28.57c0.038,3.153 -2.491,5.744 -5.645,5.783l-19.593,0.237c-3.153,0.039 -5.744,-2.49 -5.782,-5.644l-0.347,-28.57c-0.039,-3.153 2.491,-5.744 5.644,-5.783l19.593,-0.237Z" style="fill:#c60201;"/><path d="M33.44,10.035c3.137,0.326 5.419,3.137 5.093,6.274l-2.952,28.419c-0.326,3.137 -3.137,5.419 -6.274,5.093l-19.49,-2.025c-3.136,-0.326 -5.418,-3.137 -5.093,-6.274l2.953,-28.419c0.326,-3.137 3.137,-5.419 6.274,-5.093l19.489,2.025Z" style="fill:#b053b9;"/><path d="M39.825,17.206c3.019,0.91 4.732,4.101 3.821,7.12l-8.246,27.356c-0.911,3.02 -4.101,4.732 -7.12,3.822l-18.761,-5.656c-3.019,-0.91 -4.732,-4.1 -3.821,-7.12l8.246,-27.356c0.91,-3.019 4.101,-4.732 7.12,-3.821l18.761,5.655Z" style="fill:#ff9249;"/><path d="M44.132,24.498c2.839,1.374 4.028,4.794 2.654,7.633l-12.45,25.717c-1.374,2.838 -4.794,4.027 -7.632,2.653l-17.637,-8.537c-2.838,-1.374 -4.027,-4.795 -2.653,-7.633l12.449,-25.717c1.374,-2.839 4.794,-4.028 7.633,-2.654l17.636,8.538Z" style="fill:#389c0a;"/><path d="M38.178,12.409c2.918,-1.195 6.258,0.204 7.453,3.122l12.29,30.008c1.195,2.918 -0.204,6.258 -3.122,7.453l-20.9,8.559c-2.918,1.196 -6.258,-0.203 -7.453,-3.122l-12.289,-30.007c-1.196,-2.919 0.203,-6.258 3.122,-7.454l20.899,-8.559Z" style="fill:#006ae8;"/><g><path d="M11.803,50.85l-0.013,-15.684l5.888,-0.005c0.836,0 1.637,0.083 2.401,0.252c0.764,0.168 1.432,0.457 2.003,0.867c0.572,0.409 1.027,0.948 1.365,1.615c0.338,0.668 0.508,1.492 0.509,2.473c0,0.965 -0.172,1.794 -0.517,2.486c-0.345,0.692 -0.807,1.259 -1.386,1.702c-0.579,0.443 -1.246,0.773 -2.002,0.991c-0.756,0.218 -1.544,0.327 -2.365,0.328l-1.737,0.001l0.004,4.971l-4.15,0.003Zm4.143,-8.256l1.545,-0.001c0.82,0 1.427,-0.194 1.821,-0.58c0.394,-0.387 0.59,-0.934 0.59,-1.642c-0.001,-0.707 -0.21,-1.206 -0.629,-1.495c-0.418,-0.289 -1.013,-0.434 -1.786,-0.433l-1.544,0.001l0.003,4.15Z" style="fill:#fff;fill-rule:nonzero;"/><path d="M26.281,50.838l-0.013,-15.684l4.512,-0.003c1.126,-0.001 2.156,0.143 3.089,0.431c0.933,0.289 1.738,0.747 2.414,1.374c0.676,0.627 1.204,1.431 1.582,2.412c0.379,0.981 0.569,2.163 0.57,3.546c0.001,1.384 -0.183,2.574 -0.552,3.572c-0.369,0.997 -0.887,1.818 -1.554,2.462c-0.667,0.644 -1.451,1.119 -2.352,1.426c-0.9,0.306 -1.881,0.46 -2.943,0.461l-4.753,0.003Zm4.147,-3.333l0.145,0c0.499,0 0.969,-0.069 1.411,-0.206c0.443,-0.137 0.824,-0.375 1.146,-0.713c0.321,-0.338 0.578,-0.805 0.771,-1.4c0.192,-0.595 0.288,-1.351 0.288,-2.268c-0.001,-0.917 -0.098,-1.665 -0.292,-2.244c-0.193,-0.579 -0.451,-1.029 -0.773,-1.351c-0.322,-0.321 -0.704,-0.542 -1.147,-0.662c-0.442,-0.121 -0.913,-0.181 -1.411,-0.18l-0.145,0l0.007,9.024Z" style="fill:#fff;fill-rule:nonzero;"/><path d="M41.482,50.826l-0.013,-15.684l10.738,-0.009l0.003,3.475l-6.588,0.005l0.003,2.992l5.646,-0.004l0.003,3.474l-5.646,0.005l0.004,5.743l-4.15,0.003Z" style="fill:#fff;fill-rule:nonzero;"/></g></svg>