<svg clip-rule="evenodd" fill-rule="evenodd" viewBox="0 0 48 48" xmlns="http://www.w3.org/2000/svg">
 <linearGradient id="a" x2="1" gradientTransform="matrix(-.476427 -44.666 44.666 -.476427 272.902 45.9047)" gradientUnits="userSpaceOnUse">
  <stop stop-color="#c02922" offset="0"/>
  <stop stop-color="#d53c3c" offset="1"/>
 </linearGradient>
 <path d="m39.473 5.827c0-2.783-2.256-5.04-5.039-5.04h-25.84c-2.783 0-5.039 2.257-5.039 5.04v33.035c0 2.783 2.256 5.04 5.039 5.04h25.84c2.783 0 5.039-2.257 5.039-5.04z" fill="#8f1a15"/>
 <path d="m44.367 8.923c0-2.783-2.256-5.04-5.039-5.04h-25.841c-2.783 0-5.039 2.257-5.039 5.04v33.036c0 2.783 2.256 5.04 5.039 5.04h25.841c2.783 0 5.039-2.257 5.039-5.04z" fill="url(#a)"/>
 <path d="m22.903 12.336c-.416 0-.804.174-.897.51-.349 1.285.041 3.273.692 5.751l-.197.48c-.498 1.215-1.121 2.425-1.669 3.499-2.261 4.427-4.021 6.815-5.195 6.981l-.004-.049c-.026-.552.994-1.975 2.374-3.107.144-.117.759-.711.759-.711s-.83.438-1.016.551c-1.73 1.032-2.591 2.067-2.732 2.754-.041.204-.015.456.166.559l.442.222c1.205.603 2.685-.982 4.654-4.433 2.004-.658 4.504-1.277 6.78-1.612 2.037 1.164 4.374 1.718 5.272 1.479.171-.045.351-.179.442-.303.072-.113.173-.568.173-.568s-.169.23-.308.297c-.568.269-2.362-.179-4.204-1.08 1.592-.169 2.919-.176 3.627.051.9.287.901.582.889.642.012-.05.053-.247.047-.331-.02-.216-.087-.409-.249-.569-.334-.328-1.157-.493-2.277-.508-.846-.009-1.859.064-2.959.222-.504-.29-1.036-.608-1.457-1.001-1.069-.999-1.965-2.385-2.521-3.939.038-.149.074-.294.107-.441.155-.696.255-3.071.255-3.071s-.43 1.803-.499 2.064c-.044.165-.099.341-.163.525-.337-1.186-.509-2.335-.509-3.208 0-.246.022-.726.092-1.104.034-.271.132-.411.233-.479.201.049.427.357.662.873.201.446.188.963.188 1.283 0 0 .217-.792.167-1.26-.031-.281-.298-.978-.866-.969h-.279zm.193 7.152c.588 1.183 1.399 2.306 2.463 3.207.237.201.49.391.749.57-1.932.36-3.961.865-5.847 1.656.341-.606.71-1.266 1.088-1.978.731-1.383 1.174-2.45 1.547-3.455z" fill="#fff" fill-rule="nonzero" stroke="#fff" stroke-width=".75"/>
 <circle cx="38.46" cy="37.999" r="9" fill="#30a7c0"/>
 <path d="m33.532 40.731v2.196h2.195l5.545-5.545-2.195-2.195zm9.682-5.284c.232-.232.232-.597 0-.83l-1.372-1.372c-.232-.232-.598-.232-.83 0l-1.147 1.155 2.195 2.195z" fill="#fff" fill-rule="nonzero"/>
</svg>
