<svg style="clip-rule:evenodd;fill-rule:evenodd;stroke-linecap:round" version="1.1" viewBox="0 0 48 48" xmlns="http://www.w3.org/2000/svg">
 <path d="m45.668 8.56c0-3.438-2.79-6.228-6.228-6.228h-30.88c-3.438 0-6.228 2.79-6.228 6.228v30.88c0 3.438 2.79 6.228 6.228 6.228h30.88c3.438 0 6.228-2.79 6.228-6.228v-30.88z" style="fill:url(#_Linear1)"/>
 <path d="m41 16.814c0-0.481-0.191-0.943-0.531-1.283s-0.802-0.531-1.283-0.531h-30.372c-0.481 0-0.943 0.191-1.283 0.531s-0.531 0.802-0.531 1.283v22.372c0 0.481 0.191 0.943 0.531 1.283s0.802 0.531 1.283 0.531h30.372c0.481 0 0.943-0.191 1.283-0.531s0.531-0.802 0.531-1.283v-22.372z" style="fill:#ff8e20"/>
 <circle cx="38" cy="10" r="2" style="fill:#ed333b"/>
 <path d="m12 31v5h5" style="fill:none;stroke-width:2px;stroke:#fff"/>
 <path d="m36 31v5h-5" style="fill:none;stroke-width:2px;stroke:#fff"/>
 <path d="m36 25v-5h-5" style="fill:none;stroke-width:2px;stroke:#fff"/>
 <path d="m12 25v-5h5" style="fill:none;stroke-width:2px;stroke:#fff"/>
 <path d="m30 10c0-0.552-0.448-1-1-1h-10c-0.552 0-1 0.448-1 1s0.448 1 1 1h10c0.552 0 1-0.448 1-1z" style="fill:#e4e4e4"/>
 <defs>
  <linearGradient id="_Linear1" x2="1" gradientTransform="matrix(2.65364e-15,-43.3373,43.3373,2.65364e-15,201.9,45.6687)" gradientUnits="userSpaceOnUse">
   <stop style="stop-color:#323232" offset="0"/>
   <stop style="stop-color:#565656" offset="1"/>
  </linearGradient>
 </defs>
</svg>
