<svg style="clip-rule:evenodd;fill-rule:evenodd;stroke-linejoin:round;stroke-miterlimit:1.41421" version="1.1" viewBox="0 0 64 64" xmlns="http://www.w3.org/2000/svg">
 <path d="m60 15.541c0-6.37-5.171-11.541-11.541-11.541h-32.918c-6.37 0-11.541 5.171-11.541 11.541v32.918c0 6.37 5.171 11.541 11.541 11.541h32.918c6.37 0 11.541-5.171 11.541-11.541v-32.918z" style="fill:url(#_Linear1)"/>
 <path d="m22.036 20.001c-2.471-0.028-5.413 2.554-5.946 9.89-0.568 7.826 1.657 8.598 4.07 8.598 2.01 0 3.624-1.006 5.394-3.074 0.268-0.312 0.568-0.476 0.684-0.36 0.118 0.118 0.206 0.208 0.196 0.2s-0.14 0.3-0.266 0.696c-0.348 1.086-0.878 3.198-0.344 4.682 0.14 0.39 0.432 0.334 0.552-0.062 0.282-0.944 0.828-2.568 1.42-3.386 0.242-0.334 0.522-0.144 0.508 0.27-0.076 2.518 0.736 7.106 4.442 10.022 3.876 3.052 9.524 2.972 12.586 1.668 0.374-0.16 0.96-0.15 1.36-0.078 0.246 0.046 0.558 0.072 0.948 0.052 1.134-0.066-0.76-1.028-0.886-1.544s0.886-0.616 1.09-2.258c0.206-1.644-1.086-0.062-1.086-0.062s-0.95 1.114-4.734 0.87c-3.488-0.22-7.644-2.018-7.504-8.338 0.01-0.416 0.138-0.786 0.262-0.836 0.122-0.05 0.466 0.136 0.678 0.488 0.528 0.868 0.998 2.278 1.254 3.132 0.12 0.396 0.41 0.454 0.552 0.066 0.464-1.29 0.124-3.058-0.204-4.21-0.11-0.398 8e-3 -0.9 0.27-1.148 0.262-0.25 0.664-0.208 0.93 0.104 1.78 2.088 3.402 3.11 5.422 3.11 2.412 0 4.638-0.772 4.07-8.598s-3.884-10.242-6.438-9.854c-1.646 0.248-2.786 1.096-3.386 1.67-0.298 0.284-0.5 0.574-0.5 0.606s-0.236-0.178-0.552-0.44c-1.376-1.15-3.104-1.836-4.984-1.836-1.854 0-3.564 0.668-4.934 1.788-0.316 0.26-0.548 0.48-0.55 0.464 0-0.016-0.204-0.294-0.5-0.578-0.602-0.572-1.74-1.426-3.386-1.674-0.16-0.026-0.324-0.038-0.488-0.04zm6.964 6c0.552 0 1 0.448 1 1s-0.448 1-1 1-1-0.448-1-1 0.448-1 1-1zm6 0c0.552 0 1 0.448 1 1s-0.448 1-1 1-1-0.448-1-1 0.448-1 1-1z" style="fill-rule:nonzero;fill:#fff"/>
 <defs>
  <linearGradient id="_Linear1" x2="1" gradientTransform="matrix(.0774818 -55.7385 55.7385 .0774818 30.3341 59.7385)" gradientUnits="userSpaceOnUse">
   <stop style="stop-color:#0062ff" offset="0"/>
   <stop style="stop-color:#0a7cb4" offset="1"/>
  </linearGradient>
 </defs>
</svg>
