<svg style="clip-rule:evenodd;fill-rule:evenodd;stroke-linejoin:round;stroke-miterlimit:2" version="1.1" viewBox="0 0 48 48" xmlns="http://www.w3.org/2000/svg">
 <circle cx="23.998" cy="24.16" r="22.924" style="fill:url(#_Linear1)"/>
 <path d="m24 14.456c-6.448 0-12.006 3.801-14.559 9.286-0.078 0.166-0.078 0.361 0 0.53 2.553 5.486 8.111 9.287 14.559 9.287s12.006-3.801 14.559-9.287c0.078-0.166 0.078-0.36 0-0.53-2.553-5.485-8.111-9.286-14.559-9.286zm0 16.142c-3.641 0-6.59-2.951-6.59-6.589 0-3.642 2.952-6.59 6.59-6.59 3.641 0 6.589 2.952 6.589 6.59s-2.951 6.589-6.589 6.589z" style="fill-opacity:.85;fill-rule:nonzero;fill:#fff"/>
 <circle cx="24" cy="24.006" r="4.218" style="fill-opacity:.85;fill:#fff"/>
 <defs>
  <linearGradient id="_Linear1" x2="1" gradientTransform="matrix(2.85403e-15,-46.6099,46.6099,2.85403e-15,24.964,47.317)" gradientUnits="userSpaceOnUse">
   <stop style="stop-color:#00a661" offset="0"/>
   <stop style="stop-color:#37ce97" offset="1"/>
  </linearGradient>
 </defs>
</svg>
