<svg style="clip-rule:evenodd;fill-rule:evenodd;stroke-linejoin:round;stroke-miterlimit:2" version="1.1" viewBox="0 0 48 48" xmlns="http://www.w3.org/2000/svg">
 <path d="m47.312 10.595c0-0.976-0.388-1.911-1.077-2.601-0.69-0.691-1.627-1.079-2.603-1.079h-39.264c-0.976 0-1.913 0.388-2.603 1.079-0.689 0.69-1.077 1.625-1.077 2.601v27.823c0 0.976 0.388 1.911 1.077 2.602 0.69 0.69 1.627 1.078 2.603 1.078h39.264c0.976 0 1.913-0.388 2.603-1.078 0.689-0.691 1.077-1.626 1.077-2.602v-27.823z" style="fill-opacity:.67"/>
 <path d="m43.833 5.902c1.922 0 3.479 1.558 3.479 3.479v28.225c0 1.921-1.557 3.479-3.479 3.479h-39.666c-1.922 0-3.479-1.558-3.479-3.479v-28.225c0-1.921 1.557-3.479 3.479-3.479h39.666z" style="fill:url(#_Linear1)"/>
 <path d="m4.167 5.902h19.833v35.183h-19.833c-1.922 0-3.479-1.558-3.479-3.479v-28.225c0-1.921 1.557-3.479 3.479-3.479z" style="fill:url(#_Linear2)"/>
 <path d="m14.292 30.447l-4e-3 -0.611-3.483 0.024-3.483 0.024-0.065 1.287 3.52-0.056 3.519-0.057-4e-3 -0.611zm5.828-5.444c0.911-0.484 1.397-1.287 1.39-2.294-0.01-1.398-0.739-2.073-2.868-2.657-1.277-0.35-1.676-0.584-1.679-0.985-5e-3 -0.75 1.179-0.904 2.442-0.317l0.796 0.37 0.396-0.471c0.542-0.643 0.62-1.004 0.278-1.277-0.96-0.767-3.47-1.036-4.489-0.482-1.526 0.831-1.979 2.756-0.911 3.865 0.47 0.488 1.038 0.754 2.403 1.122 1.632 0.44 2.074 0.929 1.359 1.499-0.571 0.456-1.963 0.265-2.967-0.406-0.232-0.156-0.49-0.244-0.571-0.196-0.292 0.171-1.012 1.144-0.955 1.289 0.094 0.241 1.119 0.825 1.87 1.067 0.969 0.312 2.808 0.245 3.506-0.127zm-11.001 0.011c0.034-0.152 0.072-0.716 0.085-1.254l0.024-0.977 1.344-0.083c0.739-0.045 1.508-0.15 1.709-0.233 1.235-0.506 1.885-1.463 1.876-2.765-7e-3 -0.968-0.26-1.534-0.968-2.165-0.773-0.688-1.147-0.762-3.758-0.744l-2.322 0.016-3e-3 4.093c-3e-3 2.251 0.023 4.162 0.056 4.247 0.041 0.104 0.353 0.151 0.978 0.146 0.852-5e-3 0.922-0.026 0.979-0.281zm0.092-4.154c-0.038-0.096-0.056-0.638-0.04-1.204l0.029-1.028 0.733-0.043c0.993-0.059 1.5 0.049 1.849 0.394 0.422 0.416 0.401 1.038-0.054 1.554-0.339 0.386-0.396 0.404-1.401 0.452-0.827 0.04-1.062 0.013-1.116-0.125z" style="fill-rule:nonzero;fill:#fff"/>
 <defs>
  <linearGradient id="_Linear1" x2="1" gradientTransform="matrix(45.125,0,0,45.125,1.43749,579.307)" gradientUnits="userSpaceOnUse">
   <stop style="stop-color:#9400ff" offset="0"/>
   <stop style="stop-color:#d9317b" offset="1"/>
  </linearGradient>
  <linearGradient id="_Linear2" x2="1" gradientTransform="matrix(-.363346 -25.361 25.361 -.363346 979.897 23.6123)" gradientUnits="userSpaceOnUse">
   <stop style="stop-color:#147966;stop-opacity:.22" offset="0"/>
   <stop style="stop-color:#2dcbc6;stop-opacity:.22" offset="1"/>
  </linearGradient>
 </defs>
</svg>
