<svg clip-rule="evenodd" fill-rule="evenodd" stroke-linejoin="round" stroke-miterlimit="2" viewBox="0 0 48 48" xmlns="http://www.w3.org/2000/svg">
 <linearGradient id="a" x2="1" gradientTransform="matrix(45.125 0 0 45.125 1.43749 845.635)" gradientUnits="userSpaceOnUse">
  <stop stop-color="#9400ff" offset="0"/>
  <stop stop-color="#d9317b" offset="1"/>
 </linearGradient>
 <linearGradient id="b" x2="1" gradientTransform="matrix(-.363346 -25.361 25.361 -.363346 1129.58 21.4678)" gradientUnits="userSpaceOnUse">
  <stop stop-color="#147966" stop-opacity=".22" offset="0"/>
  <stop stop-color="#2dcbc6" stop-opacity=".22" offset="1"/>
 </linearGradient>
 <path d="m39.44 2.332c3.438 0 6.228 2.79 6.228 6.228v30.88c0 3.438-2.79 6.228-6.228 6.228h-30.88c-3.438 0-6.228-2.79-6.228-6.228v-30.88c0-3.438 2.79-6.228 6.228-6.228z" fill="url(#a)"/>
 <path d="m8.56 2.332h15.44v43.336h-15.44c-3.438 0-6.228-2.79-6.228-6.228v-30.88c0-3.438 2.79-6.228 6.228-6.228z" fill="url(#b)"/>
 <path d="m14.292 30.447-.004-.611-6.966.048-.065 1.287 3.52-.056 3.519-.057zm5.828-5.444c.911-.484 1.397-1.287 1.39-2.294-.01-1.398-.739-2.073-2.868-2.657-1.277-.35-1.676-.584-1.679-.985-.005-.75 1.179-.904 2.442-.317l.796.37.396-.471c.542-.643.62-1.004.278-1.277-.96-.767-3.47-1.036-4.489-.482-1.526.831-1.979 2.756-.911 3.865.47.488 1.038.754 2.403 1.122 1.632.44 2.074.929 1.359 1.499-.571.456-1.963.265-2.967-.406-.232-.156-.49-.244-.571-.196-.292.171-1.012 1.144-.955 1.289.094.241 1.119.825 1.87 1.067.969.312 2.808.245 3.506-.127zm-11.001.011c.034-.152.072-.716.085-1.254l.024-.977 1.344-.083c.739-.045 1.508-.15 1.709-.233 1.235-.506 1.885-1.463 1.876-2.765-.007-.968-.26-1.534-.968-2.165-.773-.688-1.147-.762-3.758-.744l-2.322.016-.003 4.093c-.003 2.251.023 4.162.056 4.247.041.104.353.151.978.146.852-.005.922-.026.979-.281zm.092-4.154c-.038-.096-.056-.638-.04-1.204l.029-1.028.733-.043c.993-.059 1.5.049 1.849.394.422.416.401 1.038-.054 1.554-.339.386-.396.404-1.401.452-.827.04-1.062.013-1.116-.125z" fill="#fff" fill-rule="nonzero"/>
</svg>
