<svg clip-rule="evenodd" fill-rule="evenodd" stroke-linejoin="round" stroke-miterlimit="2" viewBox="0 0 48 48" xmlns="http://www.w3.org/2000/svg">
 <linearGradient id="a" x2="1" gradientTransform="matrix(0 -43.8496 43.8496 0 24 45.9248)" gradientUnits="userSpaceOnUse">
  <stop stop-color="#08830c" offset="0"/>
  <stop stop-color="#50b24e" offset="1"/>
 </linearGradient>
 <path d="m13.038 19.423c0-1.104-.897-2-2-2h-4.77c-1.104 0-2 .896-2 2v15.732c0 1.104.896 2 2 2h4.77c1.103 0 2-.896 2-2zm30.694 0c0-1.104-.896-2-2-2h-4.77c-1.103 0-2 .896-2 2v15.732c0 1.104.897 2 2 2h4.77c1.104 0 2-.896 2-2z" fill="#256c24"/>
 <path d="m9.791 17.423c-.028-.362-.042-.728-.042-1.097 0-7.865 6.386-14.251 14.251-14.251s14.251 6.386 14.251 14.251c0 .369-.014.735-.042 1.097h.042v26.309c0 1.215-.978 2.193-2.192 2.193h-7.674l-3.289-4.385h-2.192l-3.289 4.385h-7.674c-1.214 0-2.192-.978-2.192-2.193v-26.309z" fill="url(#a)" fill-rule="nonzero"/>
 <path transform="matrix(1.09624 0 0 1.09624 -2.30975 -2.30975)" d="m24 9c-4.389 0-8 3.611-8 8 .003.335.027.669.072 1h15.858c.044-.332.067-.666.07-1 0-4.389-3.611-8-8-8z" fill="#fff" fill-rule="nonzero"/>
 <path d="m20.711 10.845c1.21 0 2.193.983 2.193 2.193s-.983 2.192-2.193 2.192-2.192-.982-2.192-2.192.982-2.193 2.192-2.193zm6.578 0c1.21 0 2.192.983 2.192 2.193s-.982 2.192-2.192 2.192-2.193-.982-2.193-2.192.983-2.193 2.193-2.193z" fill="#3f3f3f"/>
 <path transform="matrix(.913533 0 0 1.09624 2.07521 -2.30975)" d="m24 21.348c-2.216 0-4 1.474-4 3.715v1.937h-1c-.554 0-1 .446-1 1v6c0 .554.446 1 1 1h10c.554 0 1-.446 1-1v-6c0-.554-.446-1-1-1h-1v-1.937c0-2.24-1.784-3.715-4-3.715zm0 1.652c1.108 0 2 .892 2 2v2h-4v-2c0-1.108.892-2 2-2z" fill="#fff" fill-rule="nonzero"/>
</svg>
