<svg style="clip-rule:evenodd;fill-rule:evenodd" version="1.1" viewBox="0 0 48 48" xmlns="http://www.w3.org/2000/svg">
 <circle cx="24" cy="24" r="22.526" style="fill:url(#_Linear1)"/>
 <circle cx="24" cy="24" r="21.708" style="fill:none;stroke-width:2.01px;stroke:url(#_Linear2)"/>
 <path d="m19.543 18.539v14.203c0.014 0.563-0.142 1.122-0.454 1.601-0.406 0.625-1.044 1.064-1.773 1.218-0.565 0.121-1.161 0.247-1.727 0.367-0.729 0.155-1.49 0.014-2.115-0.391-0.626-0.407-1.063-1.045-1.219-1.774-0.023-0.109-0.046-0.218-0.069-0.325-0.154-0.73-0.013-1.491 0.393-2.116s1.044-1.063 1.773-1.219c0.565-0.119 1.162-0.246 1.727-0.367 0.079-0.016 0.157-0.029 0.234-0.039v-9e-3s0.421-0.09 0.856-0.182c0.548-0.117 0.94-0.601 0.94-1.162v-14.443c0-0.564 0.397-1.051 0.949-1.163 2.535-0.517 9.452-1.929 12.201-2.489 0.282-0.058 0.574 0.014 0.798 0.195 0.223 0.183 0.353 0.454 0.354 0.742l0.045 18.922c7e-3 0.553-0.148 1.1-0.453 1.57-0.406 0.625-1.044 1.064-1.773 1.218-0.566 0.12-1.162 0.247-1.728 0.367-0.729 0.155-1.49 0.014-2.115-0.393-0.625-0.406-1.064-1.043-1.218-1.773l-0.069-0.326c-0.156-0.729-0.014-1.489 0.392-2.115 0.406-0.625 1.044-1.062 1.773-1.218 0.566-0.12 1.162-0.246 1.728-0.366 0.089-0.019 0.18-0.034 0.271-0.045l0.796-0.16c0.554-0.112 0.953-0.599 0.953-1.163v-9.513l-11.47 2.348zm11.47-3.515v-1.046c0-0.242-0.109-0.471-0.296-0.624-0.187-0.154-0.433-0.215-0.671-0.167-2.166 0.435-7.395 1.484-9.551 1.917-0.553 0.111-0.952 0.598-0.952 1.163v1.106l11.47-2.349z" style="fill:#f3f3f3"/>
 <defs>
  <linearGradient id="_Linear1" x2="1" gradientTransform="matrix(7.52425,-653.442,653.442,7.52425,-1482.94,243.078)" gradientUnits="userSpaceOnUse">
   <stop style="stop-color:#4965b6" offset="0"/>
   <stop style="stop-color:#8d9dcc" offset="1"/>
  </linearGradient>
  <linearGradient id="_Linear2" x2="1" gradientTransform="matrix(2.71159e-15,44.2836,-44.2836,2.71159e-15,111.427,-42.2679)" gradientUnits="userSpaceOnUse">
   <stop style="stop-color:#efc390" offset="0"/>
   <stop style="stop-color:#cd80e3" offset="1"/>
  </linearGradient>
 </defs>
</svg>
