<svg style="clip-rule:evenodd;fill-rule:evenodd;stroke-linejoin:round;stroke-miterlimit:2" version="1.1" viewBox="0 0 48 48" xmlns="http://www.w3.org/2000/svg">
 <g transform="matrix(2.1727 0 0 2.1727 .100248 .100248)">
  <rect x="1" y="9" width="4" height="4" style="fill:rgb(0,255,0)"/>
 </g>
 <g transform="matrix(2.1727 0 0 2.1727 .100248 .100248)">
  <rect x="9" y="17" width="4" height="4" style="fill:rgb(40,172,254)"/>
 </g>
 <g transform="matrix(2.1727 0 0 2.1727 .100248 .100248)">
  <rect x="1" y="9" width="4" height="4" style="fill:rgb(254,210,38)"/>
 </g>
 <g transform="matrix(2.1727 0 0 2.1727 .100248 .100248)">
  <rect x="13" y="13" width="4" height="4" style="fill:rgb(158,79,225)"/>
 </g>
 <g transform="matrix(-2.1727 0 0 2.1727 .100248 .100248)">
  <rect x="-21" y="9" width="4" height="4" style="fill:rgb(255,55,127)"/>
 </g>
 <g transform="matrix(2.1727 0 0 2.1727 .100248 .100248)">
  <rect x="5" y="13" width="4" height="4" style="fill:rgb(123,195,17)"/>
 </g>
 <g transform="matrix(2.1727 0 0 2.1727 .100248 .100248)">
  <rect x="5" y="5" width="4" height="4" style="fill:rgb(254,142,0)"/>
 </g>
 <g transform="matrix(2.1727 0 0 2.1727 .100248 .100248)">
  <rect x="13" y="5" width="4" height="4" style="fill:rgb(254,203,169)"/>
 </g>
 <g transform="matrix(2.1727 0 0 2.1727 .100248 .100248)">
  <rect x="9" y="1" width="4" height="4" style="fill:rgb(196,0,23)"/>
 </g>
 <g transform="matrix(2.1727 0 0 2.1727 .100248 .100248)">
  <path d="m9 5v4h-4v4h4v4h4v-4h4v-4h-4v-4h-4z" style="fill-rule:nonzero;fill:rgb(253,240,232)"/>
 </g>
</svg>
