<svg clip-rule="evenodd" fill-rule="evenodd" stroke-linejoin="round" stroke-miterlimit="2" viewBox="0 0 48 48" xmlns="http://www.w3.org/2000/svg">
 <path transform="matrix(2.12208 0 0 2.12208 .657072 .657072)" d="m6 1v1h-2v1h-2v3h-1v10h1v3h2v1h2v1h10v-1h2v-1h2v-3h1v-10h-1v-3h-2v-1h-2v-1z" fill="#3f3f3f" fill-rule="nonzero"/>
 <path transform="matrix(2.12208 0 0 2.12208 .657072 .657072)" d="m6 2v1h-2v1h-1v2h-1v10h1v2h1v1h2v1h10v-1h2v-1h1v-2h1v-10h-1v-2h-1v-1h-2v-1z" fill="#e4e4e4" fill-rule="nonzero"/>
 <path d="m17.633712 7.023312h12.73248v33.95328h-12.73248z" fill="#73d216" stroke-width="2.12208"/>
 <g transform="matrix(2.12208 0 0 2.12208 .657072 .657072)" fill-rule="nonzero">
  <path d="m8 19v-16h-2v1h-2v2h-1v10h1v2h2v1z" fill="#2a6fc8"/>
  <path d="m14 19v-16h2v1h2v2h1v10h-1v2h-2v1z" fill="#e02e2e"/>
  <path d="m5 7v-2h2v-1h8v1h2v2h1v8h-1v2h-2v1h-8v-1h-2v-2h-1v-8z" fill="#3f3f3f"/>
  <path d="m8 7v1h-1v3h1v1h3v-1h1v-3h-1v-1zm5 7v2h2v-2z" fill="#fff"/>
 </g>
</svg>
