<svg style="clip-rule:evenodd;fill-rule:evenodd;stroke-linejoin:round;stroke-miterlimit:2" version="1.1" viewBox="0 0 48 48" xmlns="http://www.w3.org/2000/svg">
 <circle cx="24" cy="24" r="22.764" style="fill:url(#_Linear1)"/>
 <path d="m30.803 42.115c-0.124-0.05-0.223-0.393-0.223-0.773v-0.684l-1.022-0.119c-0.563-0.065-1.457-0.241-1.987-0.39-0.691-0.194-1.596-0.255-3.201-0.217-3.754 0.091-3.873 0.075-4.203-0.563-0.272-0.525-0.267-0.571 0.102-0.963 0.213-0.227 0.797-0.589 1.297-0.804l0.911-0.392-0.461-0.378c-0.638-0.525-0.862-1.026-0.862-1.935 0-1.274 0.449-2.471 1.196-3.19 1.035-0.996 2.285-2.149 2.792-2.576 0.413-0.349 0.459-0.511 0.459-1.645 0-0.721-0.076-1.259-0.178-1.259-0.098 0-0.178 0.232-0.178 0.515 0 0.29-0.115 0.558-0.264 0.615-0.145 0.056-0.226 0.205-0.18 0.331 0.108 0.293-0.079 0.568-0.558 0.82-0.228 0.12-0.426 0.449-0.497 0.827-0.065 0.345-0.222 0.627-0.349 0.627s-0.376 0.16-0.553 0.356c-0.344 0.379-0.886 0.47-1.067 0.177-0.19-0.307-0.434-0.194-0.546 0.254-0.167 0.664-0.673 1.024-1.349 0.959l-0.595-0.057 0.534-0.321c0.485-0.293 0.493-0.312 0.089-0.211-0.245 0.061-0.787 0.156-1.205 0.212-0.418 0.055-0.803 0.17-0.855 0.255-0.152 0.245-0.722 0.179-0.963-0.112-0.272-0.328-0.066-0.674 1.287-2.16l0.949-1.042-0.363-0.373c-0.35-0.361-1.207-0.585-2.66-0.695-0.429-0.033-0.806-0.187-0.979-0.4-0.154-0.191-0.42-0.397-0.591-0.457-0.372-0.13-0.406-0.531-0.069-0.811 0.133-0.111 0.713-0.288 1.289-0.394 1.21-0.223 1.589-0.451 1.309-0.788-0.13-0.157-0.504-0.197-1.224-0.132-0.895 0.081-1.09 0.042-1.416-0.284-0.208-0.208-0.541-0.378-0.74-0.378-0.198 0-0.404-0.141-0.457-0.312s-0.171-0.45-0.261-0.62c-0.254-0.475-0.196-1.311 0.108-1.563 0.242-0.201 0.232-0.269-0.089-0.611-0.199-0.212-0.365-0.46-0.369-0.552-4e-3 -0.091-0.259-0.326-0.568-0.522-0.309-0.195-0.766-0.685-1.016-1.088s-0.669-1.043-0.931-1.423c-0.49-0.708-1.033-2.796-0.791-3.039 0.19-0.19 2.741 0.735 4.63 1.678 1.428 0.713 1.625 0.768 2.015 0.56 0.373-0.2 0.422-0.331 0.355-0.95-0.042-0.394-0.266-1.141-0.497-1.658-0.329-0.736-0.378-1.01-0.224-1.257 0.134-0.214 0.14-0.417 0.021-0.631-0.213-0.38-0.233-1.415-0.034-1.737 0.079-0.127 0.122-0.476 0.096-0.775-0.031-0.366 0.073-0.651 0.32-0.875 0.521-0.472 1.106-0.159 1.707 0.915 0.264 0.47 0.805 1.335 1.204 1.922 0.399 0.586 1.16 1.707 1.691 2.489 0.531 0.783 1.055 1.423 1.164 1.423 0.11 0 0.342-0.303 0.517-0.674 0.174-0.371 0.455-0.723 0.623-0.782 0.169-0.059 0.521-0.305 0.782-0.546 0.261-0.242 0.702-0.457 0.978-0.479 0.277-0.022 0.645-0.103 0.819-0.179s0.79-0.104 1.368-0.062c0.963 0.069 1.128 0.146 1.944 0.91 0.591 0.553 1.048 0.834 1.356 0.834 0.384 0 0.445 0.062 0.351 0.357-0.075 0.236-0.02 0.392 0.166 0.463 0.153 0.059 0.279 0.294 0.279 0.522 0 0.229 0.08 0.465 0.178 0.525 0.352 0.218 0.165 0.565-0.513 0.945-0.726 0.408-1.294 1.482-1.544 2.919-0.152 0.873 0.626 2.562 1.866 4.052 0.825 0.992 0.902 1.161 0.902 1.993 0 0.775 0.124 1.108 0.832 2.245 0.458 0.734 1.467 2.132 2.243 3.105 2.099 2.635 2.17 2.782 1.928 3.987-0.307 1.526-0.25 2.038 0.329 2.95 0.374 0.591 0.455 0.835 0.277 0.835-0.139 0-0.302-0.08-0.362-0.178-0.214-0.344-0.445-0.172-0.445 0.332 0 1.162-1.182 1.802-3.329 1.802-1.205 0-1.829 0.338-1.829 0.989 0 0.417-0.191 0.508-0.666 0.316zm2.999-8.572c-0.674-0.747-1.406-1.518-1.626-1.714-0.221-0.195-0.787-0.815-1.257-1.378l-0.856-1.022-0.357 0.808c-0.197 0.444-0.509 1.024-0.693 1.289-0.185 0.265-0.386 0.74-0.446 1.056-0.131 0.681-0.1 0.703 2.14 1.493 0.859 0.303 2.08 0.812 2.712 1.13l1.149 0.579 0.229-0.442c0.217-0.417 0.162-0.517-0.995-1.799zm-12.576-4.299c0.919-0.66 1.789-1.81 2.156-2.853 0.286-0.808 0.359-3.106 0.104-3.264-0.156-0.096-2.657 3.303-3.879 5.271-0.765 1.232-0.703 1.658 0.217 1.509 0.34-0.055 0.971-0.354 1.402-0.663zm-1.824-2.944c0.743-0.38 1.453-1.182 2.071-2.341 0.314-0.59 0.571-1.155 0.571-1.256 0-0.102-1.101 0.477-2.446 1.285-2.064 1.241-2.454 1.544-2.501 1.945-0.097 0.814 1.067 0.999 2.305 0.367zm0.799-4.124c0.447-0.168 0.809-0.386 0.805-0.484-9e-3 -0.23-2.522-0.766-3.675-0.784-1.085-0.017-2.155 0.26-2.282 0.593-0.174 0.452 0.347 0.878 1.237 1.011 1.195 0.18 2.944 0.029 3.915-0.336zm5.765-2.628c0.733-0.756 0.6-0.934-0.855-1.14-0.591-0.083-1.235-0.238-1.432-0.343-0.322-0.172-0.3-0.047 0.226 1.273 0.321 0.806 0.643 1.625 0.716 1.821 0.117 0.313 0.17 0.275 0.442-0.321 0.17-0.372 0.576-0.953 0.903-1.29zm-6.279 0.527c0.318-0.064 0.578-0.178 0.578-0.252 0-0.181-4.262-2.703-5.599-3.312-0.586-0.267-1.386-0.491-1.779-0.498-0.682-0.011-0.716 0.014-0.771 0.583-0.129 1.347 1.818 3.062 4.148 3.653 0.414 0.105 2.583-5e-3 3.423-0.174zm2.789-0.917c-0.552-2.506-1.427-4.312-2.847-5.881-1.672-1.849-2.507-1.758-2.693 0.294-0.126 1.393 5e-3 1.849 0.779 2.706 1.191 1.317 4.009 3.362 4.643 3.368 0.154 1e-3 0.192-0.153 0.118-0.487z" style="fill-rule:nonzero;fill:#fff"/>
 <defs>
  <linearGradient id="_Linear1" x2="1" gradientTransform="matrix(.532648 -45.5219 45.5219 .532648 23.4674 46.7579)" gradientUnits="userSpaceOnUse">
   <stop style="stop-color:#800000" offset="0"/>
   <stop style="stop-color:#bf3737" offset="1"/>
  </linearGradient>
 </defs>
</svg>
