<svg clip-rule="evenodd" fill-rule="evenodd" stroke-linejoin="round" stroke-miterlimit="2" viewBox="0 0 48 48" xmlns="http://www.w3.org/2000/svg">
 <linearGradient id="a" x2="1" gradientTransform="matrix(.532648 -45.5219 45.5219 .532648 23.4674 46.7579)" gradientUnits="userSpaceOnUse">
  <stop stop-color="#800000" offset="0"/>
  <stop stop-color="#bf3737" offset="1"/>
 </linearGradient>
 <circle cx="24" cy="24" r="22.764" fill="url(#a)"/>
 <path d="m30.803 42.115c-.124-.05-.223-.393-.223-.773v-.684l-1.022-.119c-.563-.065-1.457-.241-1.987-.39-.691-.194-1.596-.255-3.201-.217-3.754.091-3.873.075-4.203-.563-.272-.525-.267-.571.102-.963.213-.227.797-.589 1.297-.804l.911-.392-.461-.378c-.638-.525-.862-1.026-.862-1.935 0-1.274.449-2.471 1.196-3.19 1.035-.996 2.285-2.149 2.792-2.576.413-.349.459-.511.459-1.645 0-.721-.076-1.259-.178-1.259-.098 0-.178.232-.178.515 0 .29-.115.558-.264.615-.145.056-.226.205-.18.331.108.293-.079.568-.558.82-.228.12-.426.449-.497.827-.065.345-.222.627-.349.627s-.376.16-.553.356c-.344.379-.886.47-1.067.177-.19-.307-.434-.194-.546.254-.167.664-.673 1.024-1.349.959l-.595-.057.534-.321c.485-.293.493-.312.089-.211-.245.061-.787.156-1.205.212-.418.055-.803.17-.855.255-.152.245-.722.179-.963-.112-.272-.328-.066-.674 1.287-2.16l.949-1.042-.363-.373c-.35-.361-1.207-.585-2.66-.695-.429-.033-.806-.187-.979-.4-.154-.191-.42-.397-.591-.457-.372-.13-.406-.531-.069-.811.133-.111.713-.288 1.289-.394 1.21-.223 1.589-.451 1.309-.788-.13-.157-.504-.197-1.224-.132-.895.081-1.09.042-1.416-.284-.208-.208-.541-.378-.74-.378-.198 0-.404-.141-.457-.312s-.171-.45-.261-.62c-.254-.475-.196-1.311.108-1.563.242-.201.232-.269-.089-.611-.199-.212-.365-.46-.369-.552-.004-.091-.259-.326-.568-.522-.309-.195-.766-.685-1.016-1.088s-.669-1.043-.931-1.423c-.49-.708-1.033-2.796-.791-3.039.19-.19 2.741.735 4.63 1.678 1.428.713 1.625.768 2.015.56.373-.2.422-.331.355-.95-.042-.394-.266-1.141-.497-1.658-.329-.736-.378-1.01-.224-1.257.134-.214.14-.417.021-.631-.213-.38-.233-1.415-.034-1.737.079-.127.122-.476.096-.775-.031-.366.073-.651.32-.875.521-.472 1.106-.159 1.707.915.264.47.805 1.335 1.204 1.922.399.586 1.16 1.707 1.691 2.489.531.783 1.055 1.423 1.164 1.423.11 0 .342-.303.517-.674.174-.371.455-.723.623-.782.169-.059.521-.305.782-.546.261-.242.702-.457.978-.479.277-.022.645-.103.819-.179s.79-.104 1.368-.062c.963.069 1.128.146 1.944.91.591.553 1.048.834 1.356.834.384 0 .445.062.351.357-.075.236-.02.392.166.463.153.059.279.294.279.522 0 .229.08.465.178.525.352.218.165.565-.513.945-.726.408-1.294 1.482-1.544 2.919-.152.873.626 2.562 1.866 4.052.825.992.902 1.161.902 1.993 0 .775.124 1.108.832 2.245.458.734 1.467 2.132 2.243 3.105 2.099 2.635 2.17 2.782 1.928 3.987-.307 1.526-.25 2.038.329 2.95.374.591.455.835.277.835-.139 0-.302-.08-.362-.178-.214-.344-.445-.172-.445.332 0 1.162-1.182 1.802-3.329 1.802-1.205 0-1.829.338-1.829.989 0 .417-.191.508-.666.316zm2.999-8.572c-.674-.747-1.406-1.518-1.626-1.714-.221-.195-.787-.815-1.257-1.378l-.856-1.022-.357.808c-.197.444-.509 1.024-.693 1.289-.185.265-.386.74-.446 1.056-.131.681-.1.703 2.14 1.493.859.303 2.08.812 2.712 1.13l1.149.579.229-.442c.217-.417.162-.517-.995-1.799zm-12.576-4.299c.919-.66 1.789-1.81 2.156-2.853.286-.808.359-3.106.104-3.264-.156-.096-2.657 3.303-3.879 5.271-.765 1.232-.703 1.658.217 1.509.34-.055.971-.354 1.402-.663zm-1.824-2.944c.743-.38 1.453-1.182 2.071-2.341.314-.59.571-1.155.571-1.256 0-.102-1.101.477-2.446 1.285-2.064 1.241-2.454 1.544-2.501 1.945-.097.814 1.067.999 2.305.367zm.799-4.124c.447-.168.809-.386.805-.484-.009-.23-2.522-.766-3.675-.784-1.085-.017-2.155.26-2.282.593-.174.452.347.878 1.237 1.011 1.195.18 2.944.029 3.915-.336zm5.765-2.628c.733-.756.6-.934-.855-1.14-.591-.083-1.235-.238-1.432-.343-.322-.172-.3-.047.226 1.273.321.806.643 1.625.716 1.821.117.313.17.275.442-.321.17-.372.576-.953.903-1.29zm-6.279.527c.318-.064.578-.178.578-.252 0-.181-4.262-2.703-5.599-3.312-.586-.267-1.386-.491-1.779-.498-.682-.011-.716.014-.771.583-.129 1.347 1.818 3.062 4.148 3.653.414.105 2.583-.005 3.423-.174zm2.789-.917c-.552-2.506-1.427-4.312-2.847-5.881-1.672-1.849-2.507-1.758-2.693.294-.126 1.393.005 1.849.779 2.706 1.191 1.317 4.009 3.362 4.643 3.368.154.001.192-.153.118-.487z" fill="#fff" fill-rule="nonzero"/>
</svg>
