<svg style="clip-rule:evenodd;fill-rule:evenodd;stroke-linejoin:round;stroke-miterlimit:1.41421" version="1.1" viewBox="0 0 48 48" xmlns="http://www.w3.org/2000/svg">
 <path d="m46.274 5.585c0-2.104-1.708-3.811-3.812-3.811h-36.991c-2.104 0-3.811 1.707-3.811 3.811v36.939c0 2.103 1.707 3.811 3.811 3.811h36.991c2.104 0 3.812-1.708 3.812-3.811v-36.939z" style="fill:url(#_Linear1)"/>
 <path d="m1.989 23.976h44.343l1.213 17.104s0.542 2.795-2.649 2.804l-41.302 0.116c-3.52 0.062-2.985-2.941-2.985-2.941l1.38-17.083z" style="fill:#075fad"/>
 <path d="m1.689 23.636h44.643l1.213 17.105s0.542 2.794-2.649 2.803l-41.302 0.116c-3.52 0.062-2.985-2.94-2.985-2.94l1.08-17.084z" style="fill:url(#_Linear2)"/>
 <path d="m30.815 32.859c-1.24 5e-3 -2.446-0.376-3.618-1.144s-1.986-1.915-2.442-3.442l2.261-0.953c0.292 1.005 0.772 1.785 1.439 2.34 0.668 0.554 1.451 0.829 2.35 0.826 1.007-5e-3 1.868-0.323 2.585-0.956 0.734-0.632 1.099-1.416 1.095-2.351-4e-3 -0.916-0.385-1.688-1.142-2.314-0.74-0.626-1.632-0.937-2.674-0.932l-1.591 7e-3 -0.01-2.319 1.402-6e-3c0.971-5e-3 1.77-0.278 2.396-0.82 0.645-0.542 0.966-1.263 0.962-2.161-4e-3 -0.845-0.321-1.509-0.953-1.992-0.613-0.483-1.378-0.722-2.295-0.718-1.582 7e-3 -2.648 0.811-3.199 2.414l-2.296-0.961c0.355-0.99 0.99-1.874 1.903-2.651 0.914-0.777 2.107-1.169 3.582-1.175 1.654-7e-3 3.031 0.472 4.132 1.438 1.101 0.948 1.654 2.159 1.661 3.634 8e-3 1.779-0.814 3.104-2.464 3.975v0.107c0.901 0.374 1.641 0.946 2.219 1.717 0.597 0.77 0.898 1.686 0.902 2.746 7e-3 1.637-0.589 2.996-1.789 4.08-1.2 1.066-2.672 1.603-4.416 1.611zm-8.187-0.396l-11.758 0.051-0.011-2.481c3.509-3.557 5.755-5.877 6.739-6.96 0.877-0.993 1.467-1.742 1.77-2.246 0.304-0.523 0.454-1.162 0.45-1.917-3e-3 -0.773-0.312-1.455-0.925-2.045-0.614-0.591-1.433-0.884-2.458-0.88-0.935 4e-3 -1.689 0.286-2.262 0.846-0.573 0.542-0.939 1.128-1.098 1.758l-2.269-0.907c0.301-0.972 0.936-1.892 1.903-2.759s2.223-1.304 3.769-1.311c1.708-7e-3 3.113 0.508 4.214 1.546s1.655 2.285 1.661 3.741c8e-3 1.798-0.963 3.726-2.914 5.784l-5.37 5.444 8.549-0.037 0.01 2.373z" style="fill-rule:nonzero;fill:url(#_Linear3)"/>
 <path d="m30.095 38.75c-0.024 0-0.05-2e-3 -0.081-5e-3 -0.029-2e-3 -0.054-6e-3 -0.077-0.01v-0.305c0.021 5e-3 0.045 7e-3 0.071 9e-3 0.028 2e-3 0.053 4e-3 0.077 4e-3 0.051 0 0.096-7e-3 0.136-0.021 0.042-0.012 0.079-0.033 0.112-0.062s0.062-0.067 0.087-0.114c0.027-0.047 0.051-0.104 0.075-0.172l0.043-0.133-0.826-2.236h0.383l0.626 1.867h8e-3l0.626-1.867h0.379l-0.874 2.371c-0.049 0.13-0.097 0.238-0.145 0.323-0.049 0.087-0.103 0.156-0.162 0.208-0.058 0.052-0.124 0.089-0.199 0.109-0.073 0.023-0.16 0.034-0.259 0.034zm-8.589-0.79c-0.157 0-0.3-0.027-0.427-0.081-0.125-0.054-0.233-0.13-0.323-0.228-0.09-0.099-0.159-0.219-0.207-0.358-0.049-0.141-0.073-0.298-0.073-0.471 0-0.174 0.024-0.331 0.073-0.47 0.048-0.141 0.117-0.261 0.207-0.359 0.09-0.099 0.198-0.175 0.323-0.228 0.127-0.054 0.27-0.081 0.427-0.081 0.158 0 0.299 0.027 0.425 0.081 0.127 0.053 0.236 0.129 0.325 0.228 0.09 0.098 0.159 0.218 0.208 0.359 0.048 0.139 0.072 0.296 0.072 0.47 0 0.173-0.024 0.33-0.072 0.471-0.049 0.139-0.118 0.259-0.208 0.358-0.089 0.098-0.198 0.174-0.325 0.228-0.126 0.054-0.267 0.081-0.425 0.081zm4.612 0c-0.141 0-0.27-0.027-0.388-0.081-0.116-0.055-0.217-0.133-0.302-0.232-0.085-0.1-0.15-0.219-0.197-0.359-0.047-0.141-0.071-0.296-0.071-0.466s0.024-0.325 0.071-0.464c0.047-0.141 0.112-0.261 0.194-0.361 0.085-0.099 0.185-0.176 0.301-0.23 0.116-0.055 0.244-0.083 0.383-0.083 0.161 0 0.302 0.033 0.425 0.1 0.123 0.066 0.219 0.161 0.288 0.284h9e-3v-1.25h0.36v3.121h-0.344v-0.377h-6e-3c-0.073 0.13-0.171 0.229-0.294 0.296-0.123 0.068-0.266 0.102-0.429 0.102zm2.234 0c-0.113 0-0.216-0.015-0.309-0.046-0.092-0.031-0.172-0.076-0.238-0.132-0.067-0.058-0.118-0.127-0.154-0.208s-0.054-0.172-0.054-0.271c0-0.194 0.072-0.345 0.214-0.454s0.35-0.172 0.624-0.189l0.626-0.037v-0.186c0-0.14-0.044-0.246-0.133-0.32-0.087-0.074-0.213-0.112-0.379-0.112-0.065 0-0.125 9e-3 -0.181 0.025-0.055 0.016-0.105 0.038-0.149 0.069-0.043 0.029-0.078 0.065-0.108 0.108-0.027 0.042-0.046 0.09-0.058 0.143h-0.346c3e-3 -0.094 0.027-0.182 0.071-0.264 0.044-0.081 0.104-0.152 0.18-0.211 0.076-0.06 0.165-0.106 0.265-0.139 0.103-0.034 0.213-0.052 0.33-0.052 0.133 0 0.252 0.018 0.359 0.052 0.106 0.033 0.197 0.082 0.273 0.145 0.076 0.062 0.134 0.138 0.174 0.228 0.042 0.089 0.062 0.187 0.062 0.296v1.534h-0.342v-0.387h-8e-3c-0.032 0.062-0.072 0.118-0.122 0.17-0.05 0.049-0.106 0.092-0.168 0.128-0.062 0.035-0.13 0.062-0.203 0.081-0.072 0.019-0.147 0.029-0.226 0.029zm-8.305-0.021h-0.348v-2.305h-0.015l-0.953 2.284h-0.315l-0.953-2.284h-0.015v2.305h-0.348v-2.991h0.433l1.032 2.496h0.017l1.032-2.496h0.433v2.991zm2.869-2.234h0.339v0.363h9e-3c0.142-0.256 0.385-0.384 0.729-0.384 0.123 0 0.234 0.02 0.332 0.058s0.182 0.092 0.251 0.164c0.069 0.07 0.121 0.157 0.157 0.259 0.037 0.101 0.056 0.215 0.056 0.342v1.432h-0.36v-1.37c0-0.184-0.047-0.323-0.139-0.418-0.093-0.097-0.228-0.146-0.404-0.146-0.092 0-0.175 0.016-0.251 0.046-0.075 0.03-0.139 0.073-0.193 0.129-0.053 0.055-0.093 0.122-0.122 0.201-0.029 0.078-0.044 0.165-0.044 0.261v1.297h-0.36v-2.234zm5.513 1.942c0.091 0 0.175-0.014 0.252-0.041 0.078-0.028 0.144-0.067 0.199-0.117 0.057-0.049 0.101-0.108 0.133-0.176 0.032-0.069 0.048-0.143 0.048-0.224v-0.18l-0.585 0.037c-0.168 0.011-0.295 0.047-0.381 0.108-0.086 0.06-0.129 0.143-0.129 0.251 0 0.052 0.011 0.099 0.031 0.141 0.023 0.041 0.054 0.077 0.094 0.108 0.041 0.03 0.09 0.054 0.147 0.07 0.057 0.015 0.12 0.023 0.191 0.023zm-6.923-8e-3c0.104 0 0.196-0.019 0.278-0.056 0.083-0.038 0.153-0.091 0.209-0.16 0.058-0.07 0.102-0.156 0.131-0.257 0.03-0.101 0.045-0.215 0.045-0.344 0-0.128-0.015-0.243-0.045-0.344-0.029-0.101-0.073-0.187-0.131-0.257-0.056-0.07-0.126-0.124-0.209-0.16-0.082-0.037-0.174-0.056-0.278-0.056-0.103 0-0.197 0.019-0.28 0.056-0.081 0.038-0.151 0.092-0.209 0.162-0.057 0.069-0.1 0.154-0.131 0.255-0.029 0.101-0.043 0.216-0.043 0.344 0 0.129 0.015 0.243 0.046 0.344 0.03 0.101 0.073 0.187 0.13 0.257 0.057 0.069 0.126 0.122 0.207 0.16 0.083 0.037 0.177 0.056 0.28 0.056zm4.676-1.634c-0.098 0-0.187 0.02-0.267 0.059-0.081 0.038-0.15 0.093-0.208 0.165-0.056 0.071-0.101 0.156-0.132 0.257s-0.046 0.213-0.046 0.336c0 0.124 0.015 0.237 0.046 0.338 0.031 0.099 0.076 0.185 0.132 0.257 0.058 0.07 0.127 0.125 0.208 0.164 0.08 0.038 0.169 0.058 0.267 0.058 0.097 0 0.185-0.02 0.265-0.058 0.08-0.04 0.149-0.096 0.205-0.168 0.057-0.072 0.101-0.158 0.133-0.257 0.032-0.101 0.048-0.212 0.048-0.334s-0.016-0.232-0.048-0.332-0.076-0.187-0.133-0.259c-0.056-0.071-0.125-0.127-0.205-0.165-0.08-0.04-0.168-0.061-0.265-0.061z" style="fill-rule:nonzero;fill:#fff"/>
 <defs>
  <linearGradient id="_Linear1" x2="1" gradientTransform="matrix(.15675 -46.625 46.625 .15675 23.8099 48.3986)" gradientUnits="userSpaceOnUse">
   <stop style="stop-color:#0c8cdb" offset="0"/>
   <stop style="stop-color:#0977da" offset="1"/>
  </linearGradient>
  <linearGradient id="_Linear2" x2="1" gradientTransform="matrix(-3.21516e-6 -20.0247 20.0247 -3.21516e-6 24.08 43.6611)" gradientUnits="userSpaceOnUse">
   <stop style="stop-color:#097ada" offset="0"/>
   <stop style="stop-color:#0a99f7" offset="1"/>
  </linearGradient>
  <linearGradient id="_Linear3" x2="1" gradientTransform="matrix(.3468 -79.9106 79.9106 .3468 469.047 76.8726)" gradientUnits="userSpaceOnUse">
   <stop style="stop-color:#fefffe" offset="0"/>
   <stop style="stop-color:#f1f1f0" offset="1"/>
  </linearGradient>
 </defs>
</svg>
