<svg clip-rule="evenodd" fill-rule="evenodd" stroke-linejoin="round" stroke-miterlimit="2" viewBox="0 0 48 48" xmlns="http://www.w3.org/2000/svg">
 <linearGradient id="a" x2="1" gradientTransform="matrix(-3.32057 -126.034 126.034 -3.32057 468.86 130.347)" gradientUnits="userSpaceOnUse">
  <stop stop-color="#949ba7" offset="0"/>
  <stop stop-color="#757f8f" offset="1"/>
 </linearGradient>
 <linearGradient id="b" x2="1" gradientTransform="matrix(-7.28e-6 -19.3629 19.3629 -7.28e-6 24.5177 32.5653)" gradientUnits="userSpaceOnUse">
  <stop stop-color="#fefffe" offset="0"/>
  <stop stop-color="#f1f1f0" offset="1"/>
 </linearGradient>
 <path d="m39.44 2.332c3.438 0 6.228 2.79 6.228 6.228v30.88c0 3.438-2.79 6.228-6.228 6.228h-30.88c-3.438 0-6.228-2.79-6.228-6.228v-30.88c0-3.438 2.79-6.228 6.228-6.228z" fill="url(#a)"/>
 <path d="m45.668 25 1.191 11.807c0 3.438-2.943 6.228-6.57 6.228h-32.578c-3.627 0-6.57-2.79-6.57-6.228l1.191-11.807z" fill="#5f6164"/>
 <path d="m45.668 24 1.191 11.807c0 3.438-2.943 6.228-6.57 6.228h-32.578c-3.627 0-6.57-2.79-6.57-6.228l1.191-11.807z" fill="#868e9c"/>
 <g fill-rule="nonzero">
  <path d="m18.308 32.164-2.481.011-.067-15.371-3.58 1.579-.953-2.099 5.41-2.559 1.591-.006z" fill="url(#b)"/>
  <path d="m34.552 29.748c-1.358 1.857-3.143 2.791-5.354 2.8-2.211.01-4.004-.908-5.379-2.754-1.374-1.846-2.067-4.135-2.079-6.868-.012-2.75.661-5.046 2.02-6.885 1.358-1.858 3.143-2.792 5.354-2.801 2.212-.01 4.004.908 5.379 2.754 1.374 1.828 2.067 4.117 2.079 6.868.012 2.733-.661 5.028-2.02 6.886zm-5.364.427c1.474-.006 2.648-.703 3.523-2.092.893-1.388 1.335-3.125 1.326-5.21-.009-2.104-.466-3.836-1.371-5.199-.887-1.38-2.067-2.067-3.542-2.061-1.492.006-2.675.704-3.55 2.092-.875 1.37-1.308 3.107-1.299 5.21.009 2.086.457 3.819 1.344 5.199.887 1.381 2.076 2.068 3.569 2.061z" fill="url(#b)"/>
  <path d="m20.222 37.939h-.353l-.814-2.991h.389l.599 2.442h.017l.674-2.442h.377l.673 2.442h.017l.599-2.442h.39l-.815 2.991h-.352l-.69-2.373h-.021z" fill="#fff"/>
  <path d="m23.865 37.96c-.157 0-.3-.027-.427-.081-.125-.054-.233-.13-.323-.228-.09-.099-.159-.219-.207-.358-.049-.141-.073-.298-.073-.471 0-.174.024-.331.073-.47.048-.141.117-.261.207-.359.09-.099.198-.175.323-.228.127-.054.27-.081.427-.081.158 0 .299.027.425.081.127.053.236.129.326.228.089.098.158.218.207.359.048.139.072.296.072.47 0 .173-.024.33-.072.471-.049.139-.118.259-.207.358-.09.098-.199.174-.326.228-.126.054-.267.081-.425.081zm0-.321c.104 0 .196-.019.278-.056.083-.038.153-.091.209-.16.058-.07.102-.156.131-.257.03-.101.045-.215.045-.344 0-.128-.015-.243-.045-.344-.029-.101-.073-.186-.131-.257-.056-.07-.126-.124-.209-.16-.082-.037-.174-.056-.278-.056-.103 0-.197.019-.28.056-.081.038-.151.092-.209.162-.057.069-.1.154-.13.255-.029.101-.044.216-.044.344 0 .129.015.243.046.344.03.101.074.187.13.257.057.069.126.122.207.16.083.037.177.056.28.056z" fill="#fff"/>
  <path d="m25.275 35.705h.339v.363h.009c.016-.058.041-.111.074-.158.035-.048.076-.089.123-.122s.099-.059.157-.077c.06-.018.122-.027.187-.027.022 0 .047.002.074.004.028.003.049.007.065.011v.356c-.016-.007-.043-.012-.081-.016-.039-.006-.074-.009-.106-.009-.073 0-.14.013-.199.04-.058.025-.108.06-.151.105-.042.046-.074.101-.098.166-.022.065-.033.137-.033.216v1.382h-.36z" fill="#fff"/>
  <path d="m28 35.705h.439l-.976.966 1.005 1.268h-.418l-.84-1.046-.211.199v.847h-.361v-3.121h.361v1.886z" fill="#fff"/>
 </g>
</svg>
