<svg style="clip-rule:evenodd;fill-rule:evenodd;stroke-linejoin:round;stroke-miterlimit:2" version="1.1" viewBox="0 0 48 48" xmlns="http://www.w3.org/2000/svg">
 <circle cx="24" cy="24" r="22.764" style="fill:url(#_Linear1)"/>
 <path d="m37.436 26.105l-3.814-3.816c-0.084-0.083-0.198-0.131-0.315-0.131-0.12 0-0.233 0.047-0.316 0.131l-3.815 3.815c-0.388 0.389-0.504 0.983-0.294 1.492 0.21 0.507 0.704 0.849 1.255 0.849h0.649c-0.595 1.916-2.005 3.541-3.836 4.382l-0.935-16.365c1.063-0.67 1.771-1.857 1.771-3.208 0-2.091-1.695-3.787-3.786-3.787-2.09 0-3.786 1.694-3.786 3.785 0 1.35 0.708 2.533 1.771 3.203l-0.935 16.372c-1.831-0.841-3.242-2.466-3.837-4.383h0.65c0.549 0 1.046-0.342 1.256-0.849 0.21-0.508 0.093-1.098-0.294-1.487l-3.815-3.815c-0.084-0.084-0.199-0.133-0.316-0.133-0.12 0-0.232 0.046-0.316 0.13l-3.816 3.815c-0.388 0.388-0.504 0.983-0.294 1.491 0.211 0.507 0.705 0.849 1.255 0.849h0.514c0.986 5.683 5.966 10.088 11.963 10.088s10.978-4.405 11.964-10.088h0.513c0.549 0 1.045-0.342 1.255-0.849 0.21-0.508 0.094-1.103-0.296-1.491z" style="fill-opacity:.87;fill-rule:nonzero;fill:#fff"/>
 <defs>
  <linearGradient id="_Linear1" x2="1" gradientTransform="matrix(2.78782e-15,-45.5286,45.5286,2.78782e-15,210.895,46.7643)" gradientUnits="userSpaceOnUse">
   <stop style="stop-color:#0a80fd" offset="0"/>
   <stop style="stop-color:#56c5fa" offset="1"/>
  </linearGradient>
 </defs>
</svg>
