<svg style="clip-rule:evenodd;fill-rule:evenodd;stroke-linejoin:round;stroke-miterlimit:2" version="1.1" viewBox="0 0 48 48" xmlns="http://www.w3.org/2000/svg">
 <circle cx="24" cy="24" r="22.764" style="fill:url(#_Linear1)"/>
 <path d="m24.001 23.999-8.172 3.813s-5.141 3-0.668 5.582c1.383 0.797 2.402 0.813 3.148 0.457 0.066 0.828 0.586 1.699 1.969 2.5 4.477 2.582 4.504-3.371 4.504-3.371l-0.781-8.977v-4e-3zm4e-3 0 8.977-0.785s5.953 0.027 3.371 4.504c-0.801 1.383-1.672 1.903-2.5 1.969 0.356 0.75 0.34 1.765-0.457 3.148-2.582 4.477-5.582-0.668-5.582-0.668l-3.813-8.168h4e-3zm-9e-3 0-8.98 0.781s-5.953-0.027-3.367-4.504c0.801-1.383 1.672-1.903 2.496-1.969-0.356-0.746-0.34-1.765 0.457-3.148 2.586-4.473 5.586 0.668 5.586 0.668l3.813 8.172h-5e-3zm3.724-12.348c-4.477-2.586-4.504 3.367-4.504 3.367l0.785 8.98 8.168-3.813s5.145-3 0.668-5.586c-1.383-0.797-2.398-0.816-3.148-0.457-0.066-0.824-0.586-1.695-1.969-2.496v5e-3z" style="fill-rule:nonzero;fill:rgb(31,81,111)"/>
 <defs>
  <linearGradient id="_Linear1" x2="1" gradientTransform="matrix(2.78779e-15,-45.5281,45.5281,2.78779e-15,192.818,46.764)" gradientUnits="userSpaceOnUse">
   <stop style="stop-color:rgb(0,103,131)" offset="0"/>
   <stop style="stop-color:rgb(32,204,255)" offset="1"/>
  </linearGradient>
 </defs>
</svg>
