<?xml version="1.0" encoding="UTF-8" standalone="no"?><!DOCTYPE svg PUBLIC "-//W3C//DTD SVG 1.1//EN" "http://www.w3.org/Graphics/SVG/1.1/DTD/svg11.dtd"><svg width="100%" height="100%" viewBox="0 0 64 64" version="1.1" xmlns="http://www.w3.org/2000/svg" xmlns:xlink="http://www.w3.org/1999/xlink" xml:space="preserve" xmlns:serif="http://www.serif.com/" style="fill-rule:evenodd;clip-rule:evenodd;stroke-linejoin:round;stroke-miterlimit:1.41421;"><circle cx="32" cy="32" r="28" style="fill:url(#_Linear1);"/><path d="M34.943,17c-0.812,0.001 -1.683,0.012 -2.619,0.035c-7.1,0.175 -10.118,1.08 -13.787,3.649c-2.624,1.836 -4.339,4.419 -3.156,5.172c1.002,0.638 3.882,-0.787 4.748,-2.348c1.092,-1.967 2.342,-2.52 4.682,-2.52c1.404,0 1.545,0.376 1.195,3.166c-0.762,6.066 -2.484,12.957 -4.682,18.395c-0.635,1.571 -1.154,3.157 -1.154,3.521c-0.001,1.107 0.976,1.229 2.752,0.346c1.831,-0.91 2.578,-1.936 4.033,-5.547c0.725,-1.799 1.316,-3.37 1.316,-3.49c0,-0.571 1.073,-1.008 3.167,-1.289c7.197,-0.967 13.388,-4.696 15.666,-9.438c1.572,-3.274 1.07,-5.913 -1.456,-7.621c-2.172,-1.468 -5.015,-2.035 -10.705,-2.031Zm-1.13,4.006c0.232,0.009 0.489,0.03 0.773,0.06c3.324,0.36 5.839,1.383 6.875,2.797c0.701,0.957 0.722,3.246 0.045,4.631c-1.306,2.669 -3.467,3.636 -9.891,4.426c-1.151,0.142 -1.492,0.101 -1.601,-0.188c-0.077,-0.201 0.2,-2.093 0.617,-4.207c0.416,-2.113 0.836,-4.516 0.931,-5.337c0.176,-1.502 0.51,-2.082 1.625,-2.174c0.186,-0.016 0.393,-0.017 0.625,-0.008l0,0Z" style="fill:#fff;fill-rule:nonzero;"/><defs><linearGradient id="_Linear1" x1="0" y1="0" x2="1" y2="0" gradientUnits="userSpaceOnUse" gradientTransform="matrix(-21.8795,-39.2482,39.2482,-21.8795,45.947,52.8964)"><stop offset="0" style="stop-color:#1d1d1d;stop-opacity:1"/><stop offset="1" style="stop-color:#3f3f3f;stop-opacity:1"/></linearGradient></defs></svg>