<svg style="clip-rule:evenodd;fill-rule:evenodd;stroke-linejoin:round;stroke-miterlimit:2" version="1.1" viewBox="0 0 48 48" xmlns="http://www.w3.org/2000/svg">
 <circle cx="24" cy="24" r="22.764" style="fill:url(#_Linear1)"/>
 <path d="m26.469 24.022c-0.064-0.527-0.264-1.007-0.571-1.408l2.112-13.109c0.079-0.488-0.234-0.953-0.716-1.064l-0.023-5e-3c-0.482-0.111-0.967 0.17-1.11 0.643l-3.848 12.708c-0.948 0.477-1.607 1.449-1.607 2.581 0 1.598 1.3 2.899 2.899 2.899 0.297 0 0.579-0.058 0.85-0.142l8.039 4.178c0.442 0.229 0.986 0.086 1.258-0.332l0.011-0.019c0.272-0.417 0.182-0.973-0.208-1.284l-7.086-5.646zm-4.296 0.345c0-0.789 0.643-1.432 1.432-1.432 0.79 0 1.432 0.643 1.432 1.432 0 0.79-0.642 1.432-1.432 1.432-0.789 0-1.432-0.642-1.432-1.432z" style="fill-rule:nonzero;fill:url(#_Linear2)"/>
 <defs>
  <linearGradient id="_Linear1" x2="1" gradientTransform="matrix(2.78782e-15,-45.5286,45.5286,2.78782e-15,210.895,46.7643)" gradientUnits="userSpaceOnUse">
   <stop style="stop-color:#bdbdbd" offset="0"/>
   <stop style="stop-color:#fcfcfc" offset="1"/>
  </linearGradient>
  <linearGradient id="_Linear2" x2="1" gradientTransform="matrix(-.815905 -21.6197 21.6197 -.815905 27.6064 29.9159)" gradientUnits="userSpaceOnUse">
   <stop style="stop-color:#2e3e46" offset="0"/>
   <stop style="stop-color:#47606a" offset="1"/>
  </linearGradient>
 </defs>
</svg>
