<svg style="clip-rule:evenodd;fill-rule:evenodd;stroke-linecap:round" version="1.1" viewBox="0 0 48 48" xmlns="http://www.w3.org/2000/svg">
 <rect x="4" y="3" width="40" height="10" style="fill:url(#_Linear1)"/>
 <path d="m4 3v27l3.5-24.5-3.5-2.5z" style="fill-rule:nonzero;fill:url(#_Linear2)"/>
 <path d="m44 3v5l-3.5-2.5 3.5-2.5z" style="fill-rule:nonzero;fill:url(#_Linear3)"/>
 <path d="m7.5 5.5l7.7 5.5h-11.2l3.5-5.5z" style="fill-opacity:.08;fill-rule:nonzero"/>
 <path d="m46 9h-44v34c0 1.656 1.344 3 3 3h38c1.656 0 3-1.344 3-3v-34z" style="fill:url(#_Linear4)"/>
 <path d="m46 9h-5.5v-3.5l5.5 3.5z" style="fill-rule:nonzero;fill:url(#_Linear5)"/>
 <path d="m7.5 5.5l-5.5 3.5h5.5v-3.5z" style="fill-rule:nonzero;fill:url(#_Linear6)"/>
 <path d="m14 12c1.104 0 2 0.896 2 2s-0.896 2-2 2-2-0.896-2-2 0.896-2 2-2zm20 0c1.104 0 2 0.896 2 2s-0.896 2-2 2-2-0.896-2-2 0.896-2 2-2z" style="fill:url(#_Linear7)"/>
 <path d="m34 13c0-5.486-4.514-10-10-10s-10 4.514-10 10" style="fill:none;stroke-width:2.4px;stroke:url(#_Linear8)"/>
 <path d="m20.091 32.352c-0.096-0.648-0.151-1.312-0.151-1.983 0-5.79 4.06-17.369 4.06-17.369s4.06 11.579 4.06 17.369c0 0.671-0.055 1.336-0.15 1.985 9e-3 6e-3 0.019 0.014 0.027 0.023 2.993 2.822 3.035 6.55 2.78 12.596-0.216 0.029-0.323-0.013-0.637 0-0.391-3.058-0.702-6.703-3.379-8.381-0.652 1.576-1.407 2.883-1.952 3.737h-1.497c-0.545-0.855-1.301-2.161-1.953-3.738-2.679 1.676-2.991 5.323-3.381 8.382-0.315-0.013-0.421 0.029-0.637 0-0.255-6.046-0.213-9.774 2.779-12.596 0.01-0.01 0.02-0.018 0.031-0.025zm3.909-8.699c0.831 0 1.507 0.674 1.507 1.505 0 0.832-0.676 1.506-1.507 1.506s-1.506-0.674-1.506-1.506c0-0.831 0.675-1.505 1.506-1.505z" style="fill:url(#_Linear9)"/>
 <defs>
  <linearGradient id="_Linear1" x2="1" gradientTransform="matrix(.131484 -10 10 .131484 111.887 14.1835)" gradientUnits="userSpaceOnUse">
   <stop style="stop-color:#bba091" offset="0"/>
   <stop style="stop-color:#dcd2cc" offset="1"/>
  </linearGradient>
  <linearGradient id="_Linear2" x2="1" gradientTransform="translate(0 9)" gradientUnits="userSpaceOnUse">
   <stop style="stop-color:#d9d9d9" offset="0"/>
   <stop style="stop-color:#eee" offset="1"/>
  </linearGradient>
  <linearGradient id="_Linear3" x2="1" gradientTransform="matrix(-1,1.22465e-16,-1.22465e-16,-1,1,-9)" gradientUnits="userSpaceOnUse">
   <stop style="stop-color:#ccb4a3" offset="0"/>
   <stop style="stop-color:#eee" offset="1"/>
  </linearGradient>
  <linearGradient id="_Linear4" x2="1" gradientTransform="matrix(2.2656e-15,-37,37,2.2656e-15,1023,46)" gradientUnits="userSpaceOnUse">
   <stop style="stop-color:#d9d2c5" offset="0"/>
   <stop style="stop-color:#fff" offset="1"/>
  </linearGradient>
  <linearGradient id="_Linear5" x2="1" gradientTransform="matrix(-1,1.22465e-16,-1.22465e-16,-1,1,-16.5)" gradientUnits="userSpaceOnUse">
   <stop style="stop-color:#ececec" offset="0"/>
   <stop style="stop-color:#fff" offset="1"/>
  </linearGradient>
  <linearGradient id="_Linear6" x2="1" gradientTransform="matrix(2.75,-4.90194,4.90194,2.75,31.7107,25.5269)" gradientUnits="userSpaceOnUse">
   <stop style="stop-color:#d5bfad" offset="0"/>
   <stop style="stop-color:#fff" offset="1"/>
  </linearGradient>
  <linearGradient id="_Linear7" x2="1" gradientTransform="matrix(-.217917 -8.3535 8.3535 -.217917 135.41 16.61)" gradientUnits="userSpaceOnUse">
   <stop style="stop-color:#775f46" offset="0"/>
   <stop style="stop-color:#523618" offset="1"/>
  </linearGradient>
  <linearGradient id="_Linear8" x2="1" gradientTransform="matrix(9.25159e-15,151.09,-151.09,9.25159e-15,57.6073,-149.395)" gradientUnits="userSpaceOnUse">
   <stop style="stop-color:#5b9fa7" offset="0"/>
   <stop style="stop-color:#00a0c7" offset="1"/>
  </linearGradient>
  <linearGradient id="_Linear9" x2="1" gradientTransform="matrix(1.95843e-15,-31.9836,31.9836,1.95843e-15,523.456,44.9838)" gradientUnits="userSpaceOnUse">
   <stop style="stop-color:#91440e" offset="0"/>
   <stop style="stop-color:#9a6f51" offset="1"/>
  </linearGradient>
 </defs>
</svg>
