<svg style="clip-rule:evenodd;fill-rule:evenodd;stroke-linejoin:round;stroke-miterlimit:2" version="1.1" viewBox="0 0 48 48" xmlns="http://www.w3.org/2000/svg">
 <circle cx="24" cy="24" r="22.764" style="fill:url(#_Linear1)"/>
 <path d="m22.47 1.292c-0.127 0.011-0.255 0.024-0.382 0.037 0.129-0.011 0.254-0.028 0.382-0.037zm-1.861 0.217c-0.311 0.047-0.621 0.101-0.931 0.161 0.309-0.061 0.62-0.112 0.931-0.161zm-1.791 0.352c-1.164 0.269-2.305 0.63-3.412 1.078 0.096-0.039 0.187-0.089 0.284-0.127l9.935 9.937c-0.538-0.083-1.081-0.126-1.625-0.131h-19.69c-0.429 0.736-0.817 1.496-1.162 2.276h14.041c-0.436 0.325-0.847 0.68-1.232 1.064l-4e-3 -5e-3 -13.928 13.925c-0.063-0.238-0.113-0.482-0.169-0.723 0.297 1.284 0.706 2.539 1.22 3.753-0.085-0.201-0.182-0.394-0.262-0.598l9.935-9.935c-0.083 0.538-0.127 1.081-0.131 1.625v19.69c0.736 0.429 1.496 0.817 2.276 1.162v-14.041c0.325 0.435 0.68 0.847 1.063 1.231l-4e-3 5e-3 13.927 13.928c-0.23 0.06-0.466 0.109-0.698 0.164 1.164-0.269 2.305-0.63 3.412-1.078-0.096 0.039-0.188 0.089-0.284 0.127l-9.936-9.937c0.538 0.083 1.082 0.126 1.626 0.131h19.689c0.43-0.736 0.818-1.496 1.162-2.276h-14.04c0.435-0.325 0.847-0.68 1.231-1.064l5e-3 5e-3 13.928-13.925c0.062 0.238 0.113 0.482 0.168 0.723-0.297-1.284-0.705-2.539-1.22-3.753 0.086 0.201 0.182 0.394 0.262 0.598l-9.934 9.935c0.082-0.538 0.126-1.081 0.131-1.625v-19.69c-0.737-0.429-1.497-0.818-2.277-1.162v14.041c-0.324-0.436-0.679-0.847-1.063-1.232l5e-3 -4e-3 -13.927-13.929c0.23-0.06 0.465-0.109 0.698-0.164v1e-3zm-5.006 1.789c-0.22 0.116-0.439 0.235-0.656 0.358 0.219-0.118 0.433-0.246 0.656-0.358zm-1.854 1.045c-0.234 0.149-0.465 0.303-0.693 0.46 0.229-0.155 0.457-0.313 0.693-0.46zm24.476 0.26c0.162 0.107 0.333 0.203 0.493 0.314-0.163-0.107-0.328-0.211-0.493-0.314zm-26.244 0.969c-0.216 0.166-0.429 0.335-0.639 0.507 0.209-0.173 0.423-0.341 0.639-0.507zm28.389 0.598c0.169 0.141 0.325 0.297 0.489 0.443-0.161-0.15-0.324-0.297-0.489-0.443zm-30.045 0.803c-0.189 0.172-0.376 0.347-0.56 0.525 0.181-0.181 0.372-0.351 0.56-0.525zm31.603 0.636c0.189 0.191 0.369 0.391 0.551 0.589-0.18-0.2-0.363-0.396-0.551-0.589zm-33.235 1.035c-0.125 0.136-0.248 0.273-0.369 0.412 0.118-0.142 0.248-0.273 0.369-0.412zm34.66 0.548c0.18 0.218 0.356 0.44 0.527 0.667-0.171-0.226-0.347-0.448-0.527-0.667zm-36.293 1.53c-0.107 0.162-0.211 0.327-0.314 0.492 0.107-0.162 0.203-0.333 0.314-0.492zm37.544 0.15c0.171 0.251 0.344 0.502 0.506 0.76-0.164-0.257-0.332-0.51-0.506-0.76zm1.129 1.849c0.139 0.254 0.287 0.502 0.417 0.761-0.134-0.256-0.273-0.51-0.417-0.761zm-41.679 4.171c-8e-3 0.027-0.016 0.055-0.025 0.083 9e-3 -0.028 0.016-0.056 0.025-0.083zm-0.565 2.196c-7e-3 0.039-0.013 0.078-0.02 0.116 8e-3 -0.038 0.012-0.077 0.02-0.116zm44.632 0.234c0.064 0.322 0.115 0.65 0.165 0.976-0.048-0.326-0.103-0.652-0.165-0.976zm-44.974 2.007c-5e-3 0.056-0.01 0.111-0.014 0.167 5e-3 -0.055 8e-3 -0.112 0.014-0.167zm45.297 0.278c0.064 0.673 0.107 1.351 0.107 2.041 0 0.031-2e-3 0.06-2e-3 0.091 2e-3 -0.03 3e-3 -0.061 5e-3 -0.091-6e-3 -0.682-0.043-1.363-0.11-2.041zm-45.414 1.95c-1e-3 0.03-3e-3 0.061-4e-3 0.091 6e-3 0.682 0.042 1.362 0.109 2.041-0.063-0.673-0.107-1.351-0.107-2.041 0-0.031 2e-3 -0.06 2e-3 -0.091zm45.417 2.243c-5e-3 0.055-8e-3 0.112-0.013 0.167 5e-3 -0.056 9e-3 -0.111 0.013-0.167zm-45.152 1.198c0.047 0.326 0.102 0.652 0.164 0.976-0.063-0.322-0.114-0.65-0.164-0.976zm44.816 1.094c-7e-3 0.038-0.011 0.077-0.019 0.116 6e-3 -0.039 0.013-0.078 0.019-0.116zm-0.56 2.229c-8e-3 0.028-0.016 0.056-0.024 0.083 8e-3 -0.027 0.016-0.055 0.024-0.083zm-42.12 3.493c0.134 0.256 0.272 0.51 0.416 0.761-0.139-0.254-0.287-0.502-0.416-0.761zm1.04 1.85c0.163 0.257 0.332 0.51 0.505 0.76-0.171-0.251-0.344-0.502-0.505-0.76zm38.363 0.418c-0.106 0.162-0.202 0.333-0.313 0.492 0.107-0.162 0.211-0.327 0.313-0.492zm-37.134 1.355c0.172 0.226 0.348 0.448 0.527 0.667-0.18-0.218-0.355-0.44-0.527-0.667zm35.557 0.803c-0.119 0.142-0.249 0.273-0.37 0.412 0.125-0.136 0.248-0.273 0.37-0.412zm-34.155 0.858c0.18 0.2 0.364 0.396 0.551 0.589-0.19-0.191-0.369-0.391-0.551-0.589zm32.714 0.7c-0.181 0.181-0.373 0.35-0.56 0.525 0.189-0.172 0.376-0.347 0.56-0.525zm-31.094 0.885c0.161 0.15 0.324 0.297 0.489 0.442-0.169-0.14-0.325-0.296-0.489-0.442zm29.517 0.534c-0.209 0.172-0.423 0.342-0.639 0.507 0.216-0.165 0.429-0.334 0.639-0.507zm-27.376 1.162c0.163 0.107 0.328 0.211 0.493 0.313-0.163-0.106-0.333-0.202-0.493-0.313zm25.678 0.103c-0.241 0.164-0.483 0.328-0.731 0.482 0.247-0.156 0.491-0.317 0.731-0.482zm-1.868 1.133c-0.232 0.127-0.46 0.263-0.697 0.383 0.234-0.124 0.467-0.251 0.697-0.383zm-6.559 2.363c-0.32 0.063-0.643 0.115-0.968 0.165 0.324-0.048 0.647-0.103 0.968-0.165zm-2.377 0.336c-0.14 0.013-0.277 0.032-0.417 0.042 0.139-0.013 0.278-0.027 0.417-0.042z" style="fill-rule:nonzero;fill:#fff"/>
 <circle cx="35.764" cy="35.666" r="11" style="fill:#d8496c"/>
 <path d="m35.764 27.838s-1.11-0.022-2.266 0.557c-1.156 0.578-2.431 2.052-2.431 4.14h3.131c0-1.566 1.566-1.566 1.566-1.566s1.566 0 1.566 1.566c0 0.826-0.219 1.288-0.636 1.81-0.418 0.522-1.086 1.046-1.869 1.633s-1.68 1.237-2.437 2.183-1.321 2.245-1.321 3.767v1.566h9.394v-3.131h-5.712c0.049-0.069 0.029-0.174 0.085-0.245 0.418-0.522 1.086-1.046 1.869-1.633s1.68-1.237 2.437-2.183 1.321-2.245 1.321-3.767c0-2.088-1.275-3.562-2.431-4.14s-2.266-0.557-2.266-0.557z" style="fill:#fff"/>
 <defs>
  <linearGradient id="_Linear1" x2="1" gradientTransform="matrix(-.000398369 -45.2545 45.2545 -.000398369 24.0001 46.7639)" gradientUnits="userSpaceOnUse">
   <stop style="stop-color:#237aa5" offset="0"/>
   <stop style="stop-color:#56aad4" offset="1"/>
  </linearGradient>
 </defs>
</svg>
