<svg style="clip-rule:evenodd;fill-rule:evenodd;stroke-linejoin:round;stroke-miterlimit:2" version="1.1" viewBox="0 0 48 48" xmlns="http://www.w3.org/2000/svg">
 <path d="m45.668 8.56c0-3.438-2.79-6.228-6.228-6.228h-30.88c-3.438 0-6.228 2.79-6.228 6.228v30.88c0 3.438 2.79 6.228 6.228 6.228h30.88c3.438 0 6.228-2.79 6.228-6.228v-30.88z" style="fill:url(#_Linear1)"/>
 <path d="m18.793 22.477c4.329-3.326 9.032-6.742 11.118-4.315l-9.467 6.414-1.651-2.099z" style="fill-rule:nonzero;fill:url(#_Linear2)"/>
 <path d="m22.044 26.991l7.987-5.926c0.823-0.612-0.708 2.524-2.655 3.933l-4.552 3.297m-4.352-1.2l3.06 0.019 1.101 1.401c-2.602 1.954-5.498 3.03-8.485 4.237l-0.257 2.74-2.468-3.228m17.803-14.837c-0.093-1.691 0.069-2.523 1.111-3.332 1.964-1.526 3.642-0.518 4.687 0.528l-3.085 2.492 1.645 2.497c-0.779 0.392-1.48 0.987-2.186 0.211l-2.172-2.396z" style="fill-rule:nonzero;fill:url(#_Linear3)"/>
 <path d="m19.043 26.332l1.333-0.91 1.06 1.39s-1.598 0.04-2.198 7e-3c-0.601-0.035-0.364-0.333-0.195-0.487zm1.685-1.2l8.761-6.278c0.67-0.48 3.082 0.495 0.018 2.518l-7.851 5.19-0.928-1.43zm11.348-8.265l3.076-1.745c0.231 0.547 0.561 1.276 0.401 2.409l-1.02 0.264c0.113-0.508 0.273-1.422 0.252-1.216l-0.167 1.643c-0.022 0.223-0.143-0.012-0.078-0.434l0.989-0.265c-0.149 0.721-1.442 1.806-2.184 2.362l-1.269-3.018z" style="fill-rule:nonzero;fill:url(#_Linear4)"/>
 <path d="m33.324 12.571c-2.079-0.391-4.113 0.841-4.733 2.864-0.084 0.281-0.138 0.564-0.163 0.847-1.758-0.092-4.223 1.205-10.106 5.225-0.092 0.064-0.175 0.139-0.243 0.225-0.096 0.041-0.185 0.095-0.266 0.161l-2.253 1.822c-0.397 0.321-0.574 0.851-0.449 1.348 0.125 0.496 0.531 0.88 1.033 0.973 0.081 0.016 0.199 0.024 0.281 0.022l1.508-0.039c-0.052 0.113-0.088 0.233-0.108 0.355-3e-3 3e-3 -9e-3 8e-3 -0.014 0.01l-6.781 5.02c-0.064 0.048-0.12 0.099-0.171 0.157-0.125 0.032-0.246 0.085-0.358 0.162l-2.103 1.429c-0.439 0.3-0.654 0.832-0.545 1.352 0.108 0.521 0.517 0.922 1.04 1.02l3.707 0.683c0.248 0.045 0.498 9e-3 0.715-0.097 0.028 8e-3 0.058 0.014 0.086 0.019 0.396 0.075 0.799-0.035 1.104-0.299 0.304-0.263 0.467-0.645 0.45-1.047l-0.062-1.406c2.607-0.889 4.811-2.187 6.613-3.247 0.483-0.284 0.944-0.556 1.376-0.798 0.122-0.068 0.231-0.158 0.319-0.263 0.047-0.017 0.09-0.041 0.134-0.064 5.367-2.996 7.09-5.911 7.345-6.387 0.066-0.108 0.673-1.131 0.849-1.519 1.009 0.011 1.224-0.202 1.914-0.401 0.728-0.1 0.951-0.449 1.424-0.714 0.216-0.13 0.4-0.264 0.57-0.414l0.124-0.114c5e-3 -5e-3 0.043-0.042 0.048-0.046l0.088-0.091 0.057-0.063 0.071-0.08 0.078-0.096c3e-3 -4e-3 0.036-0.048 0.04-0.051 0.047-0.062 0.086-0.116 0.124-0.173 0.055-0.083 0.084-0.128 0.109-0.172 5e-3 -8e-3 0.028-0.047 0.032-0.054l0.071-0.128c3e-3 -7e-3 0.031-0.059 0.035-0.068l0.058-0.124c2e-3 -4e-3 0.024-0.053 0.026-0.058l0.059-0.145c3e-3 -5e-3 0.021-0.05 0.022-0.055 0.024-0.066 0.047-0.133 0.068-0.201 0.02-0.065 0.038-0.132 0.056-0.2 0.023-0.097 0.034-0.156 0.046-0.212 0.05-1.309-0.225-2.614-0.975-3.528-0.506-0.579-1.164-1.004-1.904-1.23-0.148-0.045-0.297-0.082-0.446-0.11m-22.173 20.11l1.659 2.388-3.702-0.682h-1e-3c-0.135-0.025-0.17-0.202-0.057-0.278l2.101-1.428m10.496-5.34l0.669 0.982c-0.44 0.245-0.905 0.52-1.397 0.809-1.915 1.128-4.3 2.531-7.096 3.373-0.073 0.022-0.123 0.093-0.12 0.169l0.095 2.16c5e-3 0.108-0.093 0.175-0.183 0.158-0.037-7e-3 -0.07-0.028-0.097-0.065l-1.799-2.592 6.781-5.019 3.147 0.025m-1.262-1.851l0.866 1.269-2.121-0.022c-0.01 0-0.02 0-0.03-2e-3 -0.137-0.026-0.183-0.21-0.064-0.293l1.349-0.952m-1.845-2.697l1.379 2.016-3.525 0.092c-0.013 0-0.025 0-0.037-2e-3 -0.128-0.024-0.18-0.195-0.069-0.284l2.252-1.822m11.495-1.439c-0.185 0.411-0.362 0.692-0.362 0.692s-1.409 2.883-6.903 5.947c-1e-3 -4e-3 -2e-3 -9e-3 -6e-3 -0.013l-0.64-0.927s7.554-5.305 7.911-5.699m-2e-3 -2.587c0.532 0.778 0.21 1.768-1.229 2.752l-7.087 4.921-0.889-1.289 9.205-6.384zm-1.397-1.299c0.418 0.078 0.735 0.304 0.983 0.667 5e-3 4e-3 7e-3 6e-3 0.01 0.01l-9.23 6.366-1.424-2.049c5.461-3.731 8.191-5.271 9.661-4.994m5.706 0.618c0.076 0.014 0.156 0 0.21-0.044 0.686-0.542 0.419-1.424 0.408-1.461-0.024-0.077-0.103-0.136-0.194-0.152-0.03-6e-3 -0.06-7e-3 -0.092-4e-3 -0.126 0.015-0.204 0.109-0.173 0.209 3e-3 8e-3 0.217 0.728-0.301 1.137-0.086 0.069-0.078 0.185 0.02 0.26 0.035 0.027 0.079 0.047 0.122 0.055m0.746-2.815c0.395 0.57 0.545 1.271 0.424 1.947l-3e-3 0.011c-7e-3 0.04-0.016 0.082-0.026 0.122-1e-3 8e-3 -2e-3 0.016-5e-3 0.022-0.011 0.048-0.023 0.092-0.038 0.14-0.014 0.047-0.029 0.092-0.047 0.138-5e-3 0.013-0.01 0.028-0.015 0.041-0.013 0.032-0.027 0.063-0.039 0.094-6e-3 0.015-0.013 0.03-0.02 0.044-0.014 0.031-0.028 0.06-0.043 0.089-5e-3 0.014-0.015 0.029-0.022 0.044-0.014 0.029-0.031 0.056-0.047 0.086-8e-3 0.013-0.016 0.027-0.024 0.039-0.017 0.031-0.037 0.061-0.057 0.092-6e-3 9e-3 -0.013 0.019-0.019 0.029-0.025 0.038-0.053 0.076-0.081 0.112-0.01 0.015-0.022 0.029-0.032 0.041-0.017 0.024-0.036 0.044-0.054 0.068-0.015 0.018-0.031 0.035-0.048 0.054-0.013 0.015-0.027 0.03-0.041 0.044-0.02 0.02-0.038 0.041-0.059 0.061-0.01 0.01-0.022 0.022-0.033 0.032-0.023 0.023-0.044 0.044-0.068 0.065l-0.018 0.015c-0.118 0.104-0.246 0.197-0.38 0.277-6e-3 4e-3 -0.011 7e-3 -0.016 0.01-0.03 0.018-0.064 0.037-0.096 0.053-6e-3 4e-3 -0.012 7e-3 -0.016 0.01-0.101 0.052-0.202 0.098-0.307 0.136-0.01 4e-3 -0.02 8e-3 -0.029 0.012-8e-3 3e-3 -0.017 5e-3 -0.025 8e-3l-1.438-2.234 2.721-1.702m-1.977-1.563c0.107 0.021 0.214 0.048 0.321 0.081 0.54 0.164 1.011 0.471 1.373 0.885l-3.248 2.03c-0.039 0.023-0.065 0.063-0.075 0.106-0.011 0.044-2e-3 0.09 0.022 0.128l1.691 2.629c-0.382 0.085-0.786 0.094-1.188 0.019-0.107-0.021-0.215-0.047-0.322-0.079-1.575-0.482-2.466-2.157-1.984-3.732 0.448-1.47 1.935-2.345 3.41-2.067" style="fill:#fff"/>
 <defs>
  <linearGradient id="_Linear1" x2="1" gradientTransform="matrix(43.3356,0,0,56.8516,2.33225,811.294)" gradientUnits="userSpaceOnUse">
   <stop style="stop-color:#cd6f4d" offset="0"/>
   <stop style="stop-color:#ed5b28" offset="1"/>
  </linearGradient>
  <linearGradient id="_Linear2" x2="1" gradientTransform="matrix(-6.57163,-11.3925,11.3925,-6.57163,426.848,-203.797)" gradientUnits="userSpaceOnUse">
   <stop style="stop-color:#ec7b00" offset="0"/>
   <stop style="stop-color:#b99f83" offset="1"/>
  </linearGradient>
  <linearGradient id="_Linear3" x2="1" gradientTransform="matrix(-10.2943,-28.7041,28.7041,-10.2943,818.669,-244.3)" gradientUnits="userSpaceOnUse">
   <stop style="stop-color:#848381" offset="0"/>
   <stop style="stop-color:#c2c2c2" offset="1"/>
  </linearGradient>
  <linearGradient id="_Linear4" x2="1" gradientTransform="matrix(-6.12411,-18.366,18.366,-6.12411,598.203,-158.595)" gradientUnits="userSpaceOnUse">
   <stop style="stop-color:#5a5a5a" offset="0"/>
   <stop style="stop-color:#818181" offset="1"/>
  </linearGradient>
 </defs>
</svg>
