<svg style="clip-rule:evenodd;fill-rule:evenodd;stroke-linejoin:round;stroke-miterlimit:2" version="1.1" viewBox="0 0 48 48" xmlns="http://www.w3.org/2000/svg">
 <path id="ellipse8" d="m43.617 13.018c2.814 4.724 0.702 11.02-4.712 14.051-5.414 3.03-12.093 1.655-14.906-3.069s-0.702-11.02 4.712-14.05c5.414-3.031 12.093-1.656 14.906 3.068z" style="fill:#34e0c4"/>
 <path id="ellipse980" d="m35.141 8.345c-2.212-0.06-4.453 0.499-6.43 1.606-5.38 3.012-7.507 9.353-4.712 14.048 2.557 4.294 15.427 3.057 18.524-9e-3 2.647-3.336 3.076-7.632 1.094-10.971-1.681-2.823-4.857-4.574-8.476-4.674z" style="fill-rule:nonzero;fill:url(#_Linear1)"/>
 <path d="m32.464 19.327c-3.622 0.099-6.794 1.848-8.477 4.673-1.645 3.765 0.303 8.936 2.026 10.981 1.016 1.206 3.788 4.119 7.232 4.566 4.316 0.561 8.363-1.222 10.36-4.566 2.816-4.727 0.706-11.018-4.712-14.05-1.977-1.106-4.217-1.665-6.429-1.604z" style="fill-rule:nonzero;fill:url(#_Linear2)"/>
 <ellipse id="ellipse10" cx="23.999" cy="34.981" rx="10.194" ry="10.981" style="fill:url(#_Linear3)"/>
 <path id="ellipse14" d="m24 24c2.813 4.724 0.701 11.02-4.713 14.05-5.414 3.031-12.093 1.656-14.906-3.068s-0.702-11.02 4.712-14.051c5.414-3.03 12.093-1.655 14.907 3.069z" style="fill:url(#_Linear4)"/>
 <path id="ellipse18" d="m4.381 13.019c-2.813 4.724-0.702 11.02 4.712 14.05 5.414 3.031 12.093 1.656 14.907-3.068-2.734-3.416-1.832-7.744 0.014-9.311-1.011-1.884-2.618-3.559-4.727-4.739-5.414-3.031-12.093-1.656-14.906 3.068z" style="fill:url(#_Linear5)"/>
 <path d="m23.999 2.037c-5.592 0-10.194 4.958-10.194 10.982s4.602 10.981 10.194 10.981c-0.185-0.311-0.351-0.632-0.496-0.963-2.032-4.623 0.228-10.3 5.208-13.087 1.41-0.785 2.961-1.296 4.546-1.497-1.654-3.897-5.281-6.41-9.258-6.416z" style="fill-rule:nonzero;fill:url(#_Linear6)"/>
 <defs>
  <linearGradient id="_Linear1" x2="1" gradientTransform="matrix(19.2285,-11.5566,11.5566,19.2285,24,23.9787)" gradientUnits="userSpaceOnUse">
   <stop style="stop-color:#03b1f4" offset="0"/>
   <stop style="stop-color:#00c3d2" offset="1"/>
  </linearGradient>
  <linearGradient id="_Linear2" x2="1" gradientTransform="matrix(19.0821,11.7862,-11.7862,19.0821,24.0138,23.9557)" gradientUnits="userSpaceOnUse">
   <stop style="stop-color:#009a6e" offset="0"/>
   <stop style="stop-color:#009f91" offset="1"/>
  </linearGradient>
  <linearGradient id="_Linear3" x2="1" gradientTransform="matrix(-.185669 21.4977 -21.4977 -.185669 24.1995 24.2972)" gradientUnits="userSpaceOnUse">
   <stop style="stop-color:#eeb921" offset="0"/>
   <stop style="stop-color:#ffc900" offset="1"/>
  </linearGradient>
  <linearGradient id="_Linear4" x2="1" gradientTransform="matrix(19.5059,-11.2328,11.2328,19.5059,4.50791,35.1885)" gradientUnits="userSpaceOnUse">
   <stop style="stop-color:#fbaf00" offset="0"/>
   <stop style="stop-color:#fb8900" offset="1"/>
  </linearGradient>
  <linearGradient id="_Linear5" x2="1" gradientTransform="matrix(18.7223,10.9926,-10.9926,18.7223,4.80858,13.0187)" gradientUnits="userSpaceOnUse">
   <stop style="stop-color:#de434e" offset="0"/>
   <stop style="stop-color:#e82a1b" offset="1"/>
  </linearGradient>
  <linearGradient id="_Linear6" x2="1" gradientTransform="matrix(1.34339e-15,21.9393,-21.9393,1.34339e-15,23.5309,2.0491)" gradientUnits="userSpaceOnUse">
   <stop style="stop-color:#a45df5" offset="0"/>
   <stop style="stop-color:#8740d9" offset="1"/>
  </linearGradient>
 </defs>
</svg>
