<svg clip-rule="evenodd" fill-rule="evenodd" stroke-linejoin="round" stroke-miterlimit="2" viewBox="0 0 48 48" xmlns="http://www.w3.org/2000/svg">
 <linearGradient id="a" x2="1" gradientTransform="matrix(0 -36.2165 36.2165 0 489.464 42.119)" gradientUnits="userSpaceOnUse">
  <stop stop-color="#566069" offset="0"/>
  <stop stop-color="#6c7884" offset="1"/>
 </linearGradient>
 <linearGradient id="b" x2="1" gradientTransform="matrix(29.28 0 0 29.28 9.36001 2879.81)" gradientUnits="userSpaceOnUse">
  <stop stop-color="#1d1d1d" offset="0"/>
  <stop stop-color="#2c2c2c" offset="1"/>
 </linearGradient>
 <linearGradient id="c" x2="1" gradientTransform="matrix(0 -12.5866 12.5866 0 571.957 24.1564)" gradientUnits="userSpaceOnUse">
  <stop stop-color="#c7c7c7" offset="0"/>
  <stop stop-color="#f5f5f5" offset="1"/>
 </linearGradient>
 <path d="m39.44 2.332c3.438 0 6.228 2.79 6.228 6.228v30.88c0 3.438-2.79 6.228-6.228 6.228h-30.88c-3.438 0-6.228-2.79-6.228-6.228v-30.88c0-3.438 2.79-6.228 6.228-6.228z" fill="url(#a)"/>
 <path d="m38.64 28.308c0-.558-.655-1.01-1.462-1.01h-26.356c-.807 0-1.462.452-1.462 1.01v4.216c0 .557.655 1.009 1.462 1.009h26.356c.807 0 1.462-.452 1.462-1.009z" fill="url(#b)"/>
 <g fill="#0061ff" fill-rule="nonzero">
  <path d="m11.064 30.327.225-.694c.518.183.895.341 1.129.474-.062-.589-.094-.995-.098-1.216h.709c-.01.322-.047.726-.113 1.212.336-.17.721-.326 1.154-.47l.225.694c-.414.137-.82.228-1.217.274.199.173.479.481.84.924l-.586.415c-.189-.257-.412-.607-.67-1.05-.241.459-.453.809-.635 1.05l-.577-.415c.378-.466.649-.774.812-.924-.421-.081-.82-.173-1.198-.274z"/>
  <path d="m15.385 30.327.225-.694c.518.183.894.341 1.129.474-.062-.589-.095-.995-.098-1.216h.709c-.01.322-.048.726-.113 1.212.336-.17.72-.326 1.154-.47l.224.694c-.413.137-.819.228-1.216.274.198.173.478.481.84.924l-.586.415c-.189-.257-.412-.607-.67-1.05-.241.459-.453.809-.635 1.05l-.577-.415c.378-.466.649-.774.811-.924-.42-.081-.819-.173-1.197-.274z"/>
  <path d="m19.706 30.327.225-.694c.517.183.894.341 1.128.474-.062-.589-.094-.995-.097-1.216h.708c-.01.322-.047.726-.112 1.212.335-.17.72-.326 1.153-.47l.225.694c-.414.137-.819.228-1.217.274.199.173.479.481.841.924l-.587.415c-.189-.257-.412-.607-.669-1.05-.241.459-.453.809-.636 1.05l-.576-.415c.378-.466.648-.774.811-.924-.42-.081-.819-.173-1.197-.274z"/>
 </g>
 <path d="m25.807 18.62c-1.504.685-1.857.624-3.613-.086-3.442-1.394-5.194 4.335-5.194 4.335 4.553 1.723 9.218 1.751 14 .028 0 0-1.564-5.929-5.193-4.277zm-1.75-7.125c1.896 0 3.437 1.541 3.437 3.438 0 1.898-1.541 3.438-3.437 3.438-1.898 0-3.438-1.54-3.438-3.438 0-1.897 1.54-3.438 3.438-3.438z" fill="url(#c)"/>
</svg>
