<?xml version="1.0" encoding="UTF-8" standalone="no"?><!DOCTYPE svg PUBLIC "-//W3C//DTD SVG 1.1//EN" "http://www.w3.org/Graphics/SVG/1.1/DTD/svg11.dtd"><svg width="100%" height="100%" viewBox="0 0 48 48" version="1.1" xmlns="http://www.w3.org/2000/svg" xmlns:xlink="http://www.w3.org/1999/xlink" xml:space="preserve" xmlns:serif="http://www.serif.com/" style="fill-rule:evenodd;clip-rule:evenodd;"><g><circle cx="23.985" cy="24" r="21.884" style="fill:url(#_Linear1);stroke:url(#_Linear2);stroke-width:2.23px;"/><path d="M24.012,1.07c-2.901,0 -5.663,0.552 -8.215,1.521c-0.185,0.17 -0.426,0.3 -0.617,0.284c-0.027,-0.003 -0.052,-0.018 -0.08,-0.029c-1.258,0.524 -2.451,1.167 -3.583,1.896c0.147,0.238 0.191,0.503 -0.111,0.632c-0.051,0.02 -0.691,0.086 -0.915,0.081c-3.217,2.331 -5.798,5.465 -7.448,9.124c0.026,-0.004 0.049,-0.015 0.077,-0.017c0.251,-0.004 0.611,0.067 0.852,0.119c0.221,0.045 0.4,0.193 0.593,0.208c0.545,0.041 0.676,-0.381 1.12,-0.618c0.46,0.064 0.765,-0.078 1.18,-0.032c0.283,0.032 0.487,0.332 0.707,0.349c0.186,0.018 0.349,-0.173 0.528,-0.146c0.175,0.028 0.475,0.406 0.504,0.618c0.036,0.265 -0.196,0.503 -0.119,0.793c0.278,0.282 0.782,0.339 1.179,0.502c0.259,-0.213 0.035,-0.607 0,-0.914c-0.005,-0.136 0.018,-0.256 0,-0.381c-0.023,-0.211 -0.114,-0.405 -0.116,-0.586c-0.004,-0.837 0.677,-1.228 1.24,-1.559c0.244,-0.143 0.436,-0.396 0.647,-0.501c0.299,-0.149 0.521,-0.184 0.768,-0.323c0.447,-0.25 0.83,-0.45 1.18,-0.734c0.161,-0.379 0.015,-0.888 0.03,-1.263c0.161,-0.098 0.3,0.043 0.471,0.029c0.27,-0.055 0.292,-0.435 0.445,-0.586c0.089,-0.087 0.332,-0.149 0.443,-0.235c0.268,-0.21 0.356,-0.528 0.591,-0.618c0.084,-0.035 0.278,-0.023 0.411,-0.06c0.174,-0.046 0.423,-0.252 0.707,-0.349c0.186,-0.064 0.61,-0.078 0.681,-0.148c0.087,-0.088 -0.001,-0.337 0.03,-0.47c0.143,-0.663 1.146,-0.804 1.738,-1.028c0.416,-0.156 0.842,-0.444 1.299,-0.356c-0.09,0.316 -0.515,0.204 -0.443,0.587c0.1,0.532 0.814,-0.152 1.002,-0.231c0.36,-0.15 0.977,-0.243 1.449,-0.414c0.414,-0.151 1.156,-0.381 0.766,-0.853c-0.325,-0.018 -0.482,0.381 -0.766,0.502c-0.196,0.032 -0.158,-0.164 -0.326,-0.179c-0.158,-0.019 -0.248,0.146 -0.411,0.117c-0.162,-0.026 -0.39,-0.281 -0.415,-0.47c-0.065,-0.491 0.416,-0.693 0.62,-1.059c-0.136,-0.444 -0.751,-0.09 -1.124,-0.264c0.037,-0.264 0.311,-0.447 0.62,-0.497c0.254,-0.043 0.824,-0.021 0.975,0.113c0.088,0.075 0.007,0.26 0.148,0.383c0.151,0.136 0.336,0.121 0.531,0.09c0.069,-0.335 -0.437,-0.251 -0.382,-0.473c0.398,-0.259 1.046,-0.046 1.534,-0.118c0.281,-0.041 0.575,-0.239 0.824,-0.378c0.237,-0.135 0.544,-0.368 0.795,-0.148c0.067,0.24 -0.218,0.32 -0.352,0.439c-0.451,0.4 -0.916,0.858 -1.267,1.323c0.215,0.209 0.606,0.104 0.97,0.148c0.143,0.018 0.321,0.06 0.472,0.088c0.176,0.032 0.363,0.021 0.501,0.058c0.248,0.06 0.314,0.324 0.559,0.324c0.404,0 0.409,-0.435 0.18,-0.707c0.072,-0.278 0.185,-0.422 0.088,-0.616c-0.182,-0.362 -0.848,-0.018 -0.883,-0.47c-0.021,-0.293 0.246,-0.28 0.353,-0.499c-0.049,-0.567 0.466,-0.608 0.411,-1.115c-0.023,-0.213 -0.203,-0.216 -0.353,-0.415c-0.076,-0.097 -0.113,-0.285 -0.2,-0.369c-0.688,-0.06 -1.384,-0.098 -2.089,-0.098l-0.004,-0.002Zm-11.869,4.626l0.003,0c0.137,0.018 0.303,0.167 0.469,0.179c0.157,0.005 0.287,-0.086 0.384,-0.06c0.247,0.065 0.351,0.437 0.118,0.618c-0.193,0.024 -0.268,-0.084 -0.413,-0.058c-0.401,0.067 -0.554,0.85 -0.854,0.824c-0.282,-0.023 -0.435,-0.709 -0.148,-0.913c0.019,-0.179 -0.131,-0.207 -0.121,-0.383c0.086,-0.108 0.327,-0.225 0.562,-0.206l0,-0.001Zm-1.328,0.092c0.082,0.003 0.144,0.022 0.175,0.058c-0.039,0.313 -0.285,0.293 -0.528,0.439c-0.419,0.252 -0.661,0.637 -0.795,1.175c-0.039,0.156 -0.452,0.573 -0.651,0.531c-0.468,-0.098 0.13,-0.958 0.236,-1.088c0.118,-0.145 0.276,-0.272 0.415,-0.439c0.135,-0.162 0.223,-0.38 0.353,-0.47c0.142,-0.098 0.549,-0.216 0.795,-0.206l0,0Zm3.491,1.057c0.149,0.003 0.284,0.027 0.346,0.088c-0.096,0.388 -0.936,0.286 -1.242,0.145c0.018,-0.146 0.249,-0.187 0.442,-0.206c0.136,-0.005 0.304,-0.032 0.454,-0.027l0,0Zm-1.909,0.717c0.099,-0.004 0.2,0.018 0.305,0.046c-0.271,0.227 -0.565,0.355 -1.031,0.502c-0.224,0.07 -0.611,0.157 -0.649,-0.092c-0.047,-0.306 0.327,-0.235 0.532,-0.262c0.258,-0.036 0.541,-0.185 0.843,-0.195l0,0.001Zm29.291,1.741c-0.035,0.085 -0.06,0.166 -0.056,0.247c0.018,0.142 0.174,0.278 0.209,0.47c0.018,0.102 -0.048,0.321 0,0.414c0.142,0.275 0.514,0.078 0.78,0.092c-0.302,-0.414 -0.604,-0.83 -0.933,-1.222l0,-0.001Zm1.508,2.022c-0.043,0.203 -0.181,0.467 -0.292,0.636c-0.258,0.39 -0.607,0.408 -0.975,0.616c-0.308,0.174 -0.44,0.464 -0.62,0.766c-0.196,0.326 -0.317,0.523 -0.236,0.996c-0.264,0.521 -0.663,0.84 -1.209,1.088c-0.161,0.073 -0.382,0.1 -0.53,0.206c-0.117,0.085 -0.185,0.312 -0.352,0.499c-0.207,0.23 -0.424,0.327 -0.533,0.502c-0.084,0.136 -0.113,0.405 -0.206,0.587c-0.127,0.247 -0.394,0.367 -0.56,0.618c-0.075,0.115 -0.126,0.35 -0.209,0.501c-0.187,0.339 -0.506,0.582 -0.471,0.88c0.034,0.288 0.361,0.338 0.384,0.589c0.004,0.142 -0.094,0.228 -0.089,0.383c0.005,0.225 0.158,0.384 0.176,0.557c0.044,0.437 -0.149,0.611 -0.232,0.909c-0.039,0.143 -0.022,0.303 -0.06,0.415c-0.073,0.218 -0.378,0.415 -0.384,0.674c-0.003,0.183 0.189,0.331 0.205,0.589c0.004,0.177 -0.088,0.367 -0.056,0.53c0.062,0.32 0.636,0.692 0.885,0.941c0.334,0.332 0.77,0.589 0.914,0.94c0.121,0.298 0.12,0.685 0.353,0.909c0.172,0.166 0.458,0.269 0.678,0.441c0.206,0.161 0.43,0.3 0.65,0.47c0.358,0.28 0.901,0.838 1.473,0.795c0.299,-0.02 0.605,-0.265 0.944,-0.325c0.348,-0.061 0.8,-0.094 1.152,-0.057c0.269,0.026 0.547,0.187 0.827,0.174c0.295,-0.018 0.634,-0.236 0.97,-0.383c0.27,-0.117 0.602,-0.247 0.966,-0.342c0.167,-1.119 0.256,-2.264 0.256,-3.43c0,-4.695 -1.408,-9.047 -3.819,-12.673l0,-0.001Zm-38.044,7.705c-0.49,0.027 -0.811,0.049 -1.089,0.174c-0.638,0.29 -0.515,1.149 -1.153,1.353c-0.22,0.07 -0.523,0.073 -0.766,0.118c-0.209,0.038 -0.464,0.152 -0.68,0.147c-0.06,-0.001 -0.145,-0.046 -0.22,-0.068c-0.057,0.403 -0.104,0.81 -0.14,1.22c0.606,0.115 0.919,0.917 1.456,1.182c0.146,0.073 0.338,0.077 0.527,0.119c0.152,0.034 0.269,0.098 0.416,0.147c0.312,0.106 0.694,0.093 0.943,0.204c0.376,0.167 0.652,0.871 0.975,1.059c0.018,0.19 -0.037,0.445 0.03,0.587c0.153,0.207 0.369,0.161 0.62,0.295c0.301,0.162 0.393,0.58 0.679,0.708c0.098,0.044 0.345,0.038 0.501,0.086c0.39,0.117 0.518,0.568 0.853,0.47c0.22,-0.064 0.203,-0.29 0.238,-0.499c0.145,-0.157 0.304,-0.406 0.53,-0.41c0.367,-0.018 0.399,0.377 0.533,0.732c0.075,0.201 0.272,0.375 0.323,0.587c0.092,0.365 0.046,1.458 -0.032,1.677c-0.092,0.268 -0.456,0.381 -0.681,0.678c-0.105,0.14 -0.155,0.343 -0.235,0.441c-0.145,0.176 -0.36,0.221 -0.468,0.383c-0.06,0.091 -0.12,0.287 -0.18,0.41c-0.177,0.374 -0.414,0.639 -0.265,1.088c0.062,0.185 0.352,0.309 0.353,0.526c0.001,0.256 -0.546,0.485 -0.588,0.766c-0.033,0.209 0.169,0.581 0.235,0.853c0.049,0.205 0.438,0.334 0.56,0.47c0.207,0.232 0.372,0.56 0.561,0.851c0.374,0.572 0.667,1.27 1.031,1.825c0.193,0.29 0.463,0.551 0.591,0.853c0.065,0.152 0.056,0.333 0.116,0.47c0.211,0.474 1.142,0.969 1.622,1.205c0.225,0.108 0.474,0.147 0.681,0.262c0.312,0.173 0.931,0.64 1.089,0.913c0.141,0.246 0.228,0.844 0.297,1.234c0.091,0.516 0.001,0.912 0.03,1.471c0.018,0.302 0.115,0.606 0.118,0.909c0.002,0.106 -0.056,0.185 -0.06,0.293c0,0.017 0.006,0.038 0.006,0.056c2.897,1.307 6.107,2.051 9.505,2.051c0.613,0 1.22,-0.033 1.821,-0.08c0.027,-0.045 0.051,-0.092 0.084,-0.134c0.139,-0.181 0.262,-0.34 0.353,-0.499c0.087,-0.537 -0.215,-0.912 -0.088,-1.382c0.141,-0.528 0.873,-0.85 1.386,-1.088c0.176,-0.082 0.357,-0.214 0.501,-0.264c0.355,-0.124 0.798,-0.056 1.123,-0.175c0.552,-0.201 0.61,-0.792 0.883,-1.294c0.129,-0.238 0.298,-0.476 0.323,-0.645c0.022,-0.152 -0.056,-0.295 -0.032,-0.475c0.027,-0.177 0.187,-0.331 0.236,-0.526c0.064,-0.254 0.092,-0.627 0.092,-0.911c0,-0.233 -0.109,-0.437 -0.117,-0.647c-0.039,-0.763 0.276,-0.848 0.559,-1.263c0.142,-0.206 0.195,-0.441 0.294,-0.589c0.475,-0.706 1.3,-1.048 1.24,-2.116c-0.018,-0.353 -0.242,-1.152 -0.503,-1.265c-0.149,-0.064 -0.492,-0.004 -0.708,-0.088c-0.697,-0.259 -1.106,-1.12 -1.828,-1.175c-0.154,-0.018 -0.296,0.063 -0.469,0.06c-0.286,-0.018 -0.717,-0.2 -1.034,-0.235c-0.201,-0.021 -0.47,0.059 -0.591,0c-0.184,-0.09 -0.202,-0.428 -0.352,-0.529c-0.118,-0.082 -0.35,-0.109 -0.53,-0.179c-0.291,-0.11 -0.521,-0.241 -0.856,-0.264c-0.103,-0.005 -0.232,0.049 -0.353,0.032c-0.185,-0.032 -0.332,-0.25 -0.503,-0.354c-0.214,-0.13 -0.412,-0.193 -0.501,-0.378c0.194,-0.633 -0.342,-0.81 -0.472,-1.176c-0.062,-0.171 -0.034,-0.377 -0.088,-0.53c-0.078,-0.219 -0.294,-0.346 -0.532,-0.529c-0.427,-0.327 -0.806,-0.634 -1.415,-0.709c-0.269,-0.035 -0.535,0.08 -0.859,0.059c-0.343,-0.02 -0.774,-0.321 -1.031,-0.613c-0.249,-0.286 -0.371,-0.542 -0.588,-0.678c-0.206,-0.133 -0.48,-0.129 -0.62,-0.262c-0.063,-0.059 -0.051,-0.158 -0.119,-0.296c-0.103,-0.214 -0.278,-0.333 -0.148,-0.589c-0.235,-0.12 -0.241,0.224 -0.499,0.179c-0.229,-0.324 -0.423,-0.478 -0.943,-0.383c-0.238,0.044 -0.372,0.344 -0.649,0.352c-0.228,0.018 -0.407,-0.253 -0.708,-0.296c-0.227,-0.032 -0.485,0.061 -0.647,0.032c-0.252,-0.05 -0.329,-0.259 -0.559,-0.41c-0.169,-0.11 -0.496,-0.299 -0.591,-0.296c-0.296,0.019 -0.508,0.628 -0.916,0.412c-0.199,-0.251 0.323,-0.383 0.088,-0.618c-0.179,-0.178 -0.329,0.082 -0.472,0.18c-0.164,0.112 -0.318,0.224 -0.499,0.291c-0.405,0.15 -0.658,0.072 -0.975,0.235c-0.293,0.151 -0.305,0.404 -0.471,0.705c-0.136,0.246 -0.445,0.605 -0.649,0.62c-0.248,0.018 -0.484,-0.344 -0.708,-0.441c-0.675,-0.291 -1.003,0.259 -1.563,0.267c-0.521,0.018 -1.264,-0.838 -1.238,-1.326c0.005,-0.297 0.172,-0.749 0.206,-1.117c0.033,-0.293 0.233,-0.469 0.236,-0.737c0.005,-0.357 -0.475,-0.631 -0.707,-0.674c-0.551,-0.101 -1.316,0.221 -1.948,-0.032c-0.12,-0.199 0.142,-0.337 0.209,-0.531c0.039,-0.109 0.016,-0.257 0.056,-0.378c0.07,-0.187 0.267,-0.332 0.355,-0.531c0.065,-0.151 0.082,-0.369 0.148,-0.557c0.078,-0.214 0.219,-0.352 0.236,-0.502c0.02,-0.198 -0.053,-0.427 -0.209,-0.557l-0.003,0.003Zm7.885,6.222c0.2,0.018 0.225,0.431 0.02,0.464c-0.221,0.034 -0.333,-0.345 -0.118,-0.444c0.036,-0.018 0.07,-0.018 0.098,-0.017l0,-0.003l0,0Z" style="fill:url(#_Linear3);fill-rule:nonzero;"/></g><path id="rect4333" d="M11.694,11.542l0,8.79l8.79,0l0,-8.79l-8.79,0Zm12.306,0l0,1.758l1.758,0l0,-1.758l-1.758,0Zm3.516,0l0,8.79l8.79,0l0,-8.79l-8.79,0Zm-14.064,1.758l5.274,0l0,5.274l-5.274,0l0,-5.274Zm15.822,0l5.274,0l0,5.274l-5.274,0l0,-5.274Zm-14.064,1.758l0,1.758l1.758,0l0,-1.758l-1.758,0Zm7.032,0l0,3.516l1.758,0l0,-1.758l1.758,0l0,-1.758l-1.758,0l-1.758,0Zm1.758,3.516l0,1.758l-1.758,0l0,1.758l-1.758,0l0,1.758l1.758,0l0,1.758l3.516,0l0,-1.758l-1.758,0l0,-1.758l1.758,0l0,-1.758l0,-1.758l-1.758,0Zm1.758,3.516l0,1.758l1.758,0l0,1.758l1.758,0l0,-1.758l1.758,0l0,-1.758l-1.758,0l-1.758,0l-1.758,0Zm5.274,-7.032l0,1.758l1.758,0l0,-1.758l-1.758,0Zm-17.58,7.032l0,1.758l1.758,0l0,-1.758l-1.758,0Zm1.758,1.758l0,1.758l3.516,0l0,-1.758l0,-1.758l-1.758,0l0,1.758l-1.758,0Zm-1.758,0l-1.758,0l0,1.758l1.758,0l0,-1.758Zm19.338,-1.758l0,1.758l1.758,0l0,-1.758l-1.758,0Zm0,3.516l0,1.758l1.758,0l0,-1.758l-1.758,0Zm1.758,1.758l0,1.758l1.758,0l0,-1.758l-1.758,0Zm-22.854,0l0,8.79l8.79,0l0,-8.79l-8.79,0Zm14.064,0l0,1.758l1.758,0l0,-1.758l-1.758,0Zm0,1.758l-1.758,0l0,1.758l-1.758,0l0,1.758l1.758,0l0,1.758l1.758,0l0,-1.758l0,-1.758l0,-1.758Zm3.516,-1.758l0,1.758l1.758,0l0,-1.758l-1.758,0Zm1.758,1.758l0,1.758l1.758,0l0,-1.758l-1.758,0Zm1.758,1.758l0,1.758l1.758,0l0,-1.758l-1.758,0Zm0,1.758l-1.758,0l0,3.516l1.758,0l0,-1.758l0,-1.758Zm-1.758,0l0,-1.758l-1.758,0l-1.758,0l0,3.516l1.758,0l0,-1.758l1.758,0Zm-17.58,-3.516l5.274,0l0,5.274l-5.274,0l0,-5.274Zm1.758,1.758l0,1.758l1.758,0l0,-1.758l-1.758,0Zm19.338,3.516l0,1.758l1.758,0l0,-1.758l-1.758,0Z" style="fill:#fff;fill-opacity:0.85;fill-rule:nonzero;"/><defs><linearGradient id="_Linear1" x1="0" y1="0" x2="1" y2="0" gradientUnits="userSpaceOnUse" gradientTransform="matrix(2.91471e-15,-47.6009,47.6009,2.91471e-15,23.9612,47.6487)"><stop offset="0" style="stop-color:#187ced;stop-opacity:1"/><stop offset="1" style="stop-color:#42d6fc;stop-opacity:1"/></linearGradient><linearGradient id="_Linear2" x1="0" y1="0" x2="1" y2="0" gradientUnits="userSpaceOnUse" gradientTransform="matrix(2.91471e-15,-47.6009,47.6009,2.91471e-15,23.9612,47.6487)"><stop offset="0" style="stop-color:#187ced;stop-opacity:1"/><stop offset="1" style="stop-color:#42d6fc;stop-opacity:1"/></linearGradient><linearGradient id="_Linear3" x1="0" y1="0" x2="1" y2="0" gradientUnits="userSpaceOnUse" gradientTransform="matrix(2.86283e-15,-46.7536,46.7536,2.86283e-15,24.0343,47.2158)"><stop offset="0" style="stop-color:#0164c2;stop-opacity:1"/><stop offset="1" style="stop-color:#00a9f3;stop-opacity:1"/></linearGradient></defs></svg>