<svg style="clip-rule:evenodd;fill-rule:evenodd;stroke-linejoin:round;stroke-miterlimit:2" version="1.1" viewBox="0 0 48 48" xmlns="http://www.w3.org/2000/svg">
 <circle cx="24" cy="24" r="22.764" style="fill:url(#_Linear1)"/>
 <g transform="matrix(1.28355,0,0,1.28355,-6.80462,-7.12815)">
  <path d="m36.325 34.488h-6.962l-0.653-1.497-9.46 0.091-0.613 1.406h-6.963s7.485-16.887 10.789-24.342c0.27-0.608 0.872-1 1.537-1s1.267 0.392 1.537 1c3.304 7.455 10.788 24.342 10.788 24.342zm-5.685-10.302c-0.021-0.188-0.24-0.329-0.43-0.329-0.612 0-1.155-0.359-1.383-0.916-0.233-0.569-0.083-1.234 0.373-1.652 0.144-0.131 0.161-0.351 0.041-0.504-0.314-0.398-0.67-0.758-1.059-1.069-0.152-0.122-0.376-0.105-0.507 0.041-0.399 0.441-1.114 0.605-1.667 0.374-0.575-0.242-0.938-0.825-0.903-1.451 0.012-0.196-0.132-0.367-0.328-0.39-0.499-0.058-1.002-0.059-1.503-4e-3 -0.194 0.022-0.337 0.189-0.331 0.382 0.022 0.62-0.346 1.193-0.915 1.426-0.546 0.223-1.257 0.061-1.654-0.377-0.132-0.143-0.351-0.161-0.505-0.042-0.4 0.314-0.765 0.674-1.081 1.069-0.123 0.153-0.105 0.376 0.04 0.508 0.466 0.421 0.616 1.091 0.374 1.667-0.23 0.549-0.801 0.903-1.454 0.903-0.212-6e-3 -0.363 0.136-0.386 0.328-0.059 0.503-0.059 1.014-3e-3 1.52 0.021 0.189 0.247 0.329 0.438 0.329 0.582-0.015 1.141 0.345 1.375 0.916 0.234 0.569 0.084 1.233-0.373 1.652-0.143 0.131-0.162 0.351-0.041 0.504 0.31 0.396 0.666 0.755 1.057 1.069 0.153 0.124 0.376 0.106 0.509-0.04 0.399-0.442 1.115-0.606 1.666-0.375 0.576 0.241 0.939 0.824 0.904 1.451-0.012 0.196 0.132 0.367 0.328 0.39 0.255 0.029 0.512 0.045 0.77 0.045 0.244 0 0.489-0.014 0.733-0.041 0.194-0.021 0.338-0.189 0.331-0.383-0.022-0.619 0.345-1.192 0.914-1.425 0.55-0.224 1.258-0.06 1.655 0.377 0.132 0.143 0.35 0.161 0.504 0.042 0.401-0.314 0.764-0.673 1.082-1.069 0.123-0.153 0.105-0.376-0.04-0.508-0.465-0.421-0.617-1.091-0.375-1.667 0.228-0.542 0.777-0.906 1.367-0.906l0.083 2e-3c0.192 0.016 0.368-0.132 0.391-0.327 0.059-0.503 0.059-1.014 3e-3 -1.52zm-6.63 2.985c-1.229 0-2.229-1-2.229-2.229s1-2.229 2.229-2.229 2.229 1 2.229 2.229-1 2.229-2.229 2.229z" style="fill-opacity:.8;fill:rgb(53,73,86)"/>
 </g>
 <defs>
  <linearGradient id="_Linear1" x2="1" gradientTransform="matrix(2.78779e-15,-45.5281,45.5281,2.78779e-15,249.091,46.764)" gradientUnits="userSpaceOnUse">
   <stop style="stop-color:rgb(137,179,191)" offset="0"/>
   <stop style="stop-color:rgb(241,241,241)" offset="1"/>
  </linearGradient>
 </defs>
</svg>
