<svg style="clip-rule:evenodd;fill-rule:evenodd;stroke-linejoin:round;stroke-miterlimit:2" version="1.1" viewBox="0 0 48 48" xmlns="http://www.w3.org/2000/svg">
 <path d="m39.44 2.332c3.438 0 6.228 2.79 6.228 6.228v30.88c0 3.438-2.79 6.228-6.228 6.228h-30.88c-3.438 0-6.228-2.79-6.228-6.228v-30.88c0-3.438 2.79-6.228 6.228-6.228h30.88z" style="fill:url(#_Linear1)"/>
 <path d="m2.332 9.588v-1.028c0-3.438 2.79-6.228 6.228-6.228h30.88c3.438 0 6.228 2.79 6.228 6.228v1.028h-43.336z" style="fill-opacity:.1;fill:#ebebeb"/>
 <path d="m33.317 7.335h-0.105c-0.099 0-0.178-0.081-0.178-0.18v-0.302c-0.426-0.107-0.548-0.36-0.548-0.879 0-0.766 0.622-1.389 1.388-1.389s1.388 0.623 1.388 1.389c0 0.511-0.129 0.763-0.546 0.874v0.306c0 0.1-0.081 0.18-0.18 0.18h-0.104c-0.099 0-0.18-0.08-0.18-0.18v-0.24c-0.047 3e-3 -0.095 5e-3 -0.146 6e-3v0.235c0 0.099-0.08 0.179-0.179 0.179h-0.104c-0.1 0-0.18-0.08-0.18-0.179v-0.234c-0.051-1e-3 -0.1-3e-3 -0.147-6e-3v0.24c0 0.099-0.08 0.18-0.179 0.18zm-0.018-1.926c0.235 0.092 0.426 0.185 0.426 0.414 0 0.227-0.154 0.271-0.426 0.412-0.209 0.109-0.427-0.185-0.427-0.412 0-0.229 0.207-0.499 0.427-0.414zm1.145 0c0.227-0.064 0.426 0.185 0.426 0.414 0 0.227-0.224 0.533-0.426 0.412-0.248-0.147-0.426-0.185-0.426-0.412 0-0.229 0.166-0.34 0.426-0.414z" style="fill-opacity:.5;fill:#ededed"/>
 <path d="m40.535 5.039 0.418 0.442 0.661-0.626 0.528 0.557-0.66 0.626 0.418 0.442c0.143 0.15 0.141 0.383-3e-3 0.518-0.144 0.137-0.376 0.126-0.517-0.024l-0.42-0.442-0.662 0.628-0.529-0.557 0.664-0.596-0.419-0.475c-0.143-0.15-0.14-0.382 3e-3 -0.518 0.144-0.136 0.376-0.125 0.518 0.025z" style="fill-opacity:.5;fill:#fff"/>
 <path d="m37.201 4.892 4e-3 -0.169 0.607 0.016-6e-3 0.169 0.328 9e-3c0.314 9e-3 0.563 0.272 0.554 0.586l-0.031 1.139c-8e-3 0.315-0.27 0.564-0.585 0.555l-1.26-0.034c-0.315-8e-3 -0.563-0.271-0.554-0.585l0.03-1.14c8e-3 -0.315 0.271-0.563 0.586-0.555l0.327 9e-3zm-0.182 0.496c0.163 4e-3 0.292 0.141 0.287 0.304-3e-3 0.163-0.14 0.292-0.303 0.288s-0.293-0.141-0.288-0.304c4e-3 -0.163 0.141-0.292 0.304-0.288zm1.009 0.027c0.163 5e-3 0.293 0.14 0.288 0.304-4e-3 0.164-0.14 0.293-0.304 0.288-0.163-4e-3 -0.292-0.14-0.288-0.304 5e-3 -0.163 0.141-0.292 0.304-0.288z" style="fill-opacity:.5;fill:#fff"/>
 <path d="m24.426 33.619c0.47 0 0.871 0.167 1.204 0.5 0.333 0.332 0.499 0.733 0.499 1.204 0 0.47-0.166 0.871-0.499 1.204-0.333 0.332-0.734 0.499-1.204 0.499s-0.872-0.167-1.204-0.499c-0.333-0.333-0.499-0.734-0.499-1.204 0-0.471 0.166-0.872 0.499-1.204 0.332-0.333 0.734-0.5 1.204-0.5zm-5.96-2.767c-0.533 0-0.985 0.186-1.358 0.559-0.372 0.373-0.558 0.825-0.558 1.357 0 0.533 0.186 0.985 0.558 1.358 0.373 0.372 0.825 0.558 1.358 0.558 0.523 0 0.973-0.186 1.35-0.558 0.377-0.373 0.565-0.825 0.565-1.358 0-0.532-0.188-0.984-0.565-1.357-0.377-0.372-0.827-0.559-1.35-0.559zm11.92 0.426c-0.408 0-0.758 0.146-1.051 0.439s-0.439 0.643-0.439 1.051 0.146 0.759 0.439 1.051c0.293 0.293 0.643 0.439 1.051 0.439s0.759-0.146 1.051-0.439c0.293-0.292 0.439-0.643 0.439-1.051s-0.146-0.758-0.439-1.051c-0.292-0.293-0.643-0.439-1.051-0.439zm-12.346-4.47c0-0.586-0.209-1.087-0.625-1.504-0.417-0.417-0.919-0.625-1.504-0.625s-1.087 0.208-1.503 0.625c-0.417 0.417-0.626 0.918-0.626 1.504 0 0.585 0.209 1.086 0.626 1.503 0.416 0.417 0.918 0.625 1.503 0.625s1.087-0.208 1.504-0.625c0.416-0.417 0.625-0.918 0.625-1.503zm15.805-0.905c-0.248-0.249-0.549-0.373-0.904-0.373s-0.657 0.124-0.905 0.373c-0.248 0.248-0.372 0.55-0.372 0.905s0.124 0.656 0.372 0.904c0.248 0.249 0.55 0.373 0.905 0.373s0.656-0.124 0.904-0.373c0.249-0.248 0.373-0.549 0.373-0.904s-0.124-0.657-0.373-0.905zm-15.379-7.397c-0.648 0-1.2 0.228-1.657 0.685s-0.685 1.009-0.685 1.656c0 0.648 0.228 1.2 0.685 1.657s1.009 0.685 1.657 0.685c0.647 0 1.199-0.228 1.656-0.685s0.685-1.009 0.685-1.657c0-0.647-0.228-1.199-0.685-1.656s-1.009-0.685-1.656-0.685zm11.92 3.406c0.293 0 0.544-0.104 0.752-0.313 0.208-0.208 0.313-0.459 0.313-0.752 0-0.292-0.105-0.543-0.313-0.751-0.208-0.209-0.459-0.313-0.752-0.313s-0.543 0.104-0.752 0.313c-0.208 0.208-0.312 0.459-0.312 0.751 0 0.293 0.104 0.544 0.312 0.752 0.209 0.209 0.459 0.313 0.752 0.313zm-5.96-6.174c-0.71 0-1.313 0.249-1.81 0.745-0.496 0.497-0.745 1.1-0.745 1.81 0 0.709 0.248 1.312 0.745 1.809s1.1 0.745 1.81 0.745 1.313-0.248 1.809-0.745c0.497-0.496 0.745-1.1 0.745-1.809 0-0.71-0.248-1.313-0.745-1.81-0.496-0.496-1.099-0.745-1.809-0.745z" style="fill-rule:nonzero;fill:#e9ebed"/>
 <defs>
  <linearGradient id="_Linear1" x2="1" gradientTransform="matrix(2.21762e-15,-36.2165,36.2165,2.21762e-15,489.464,42.119)" gradientUnits="userSpaceOnUse">
   <stop style="stop-color:#566069" offset="0"/>
   <stop style="stop-color:#6c7884" offset="1"/>
  </linearGradient>
 </defs>
</svg>
