<svg clip-rule="evenodd" fill-rule="evenodd" stroke-linejoin="round" stroke-miterlimit="2" viewBox="0 0 48 48" xmlns="http://www.w3.org/2000/svg">
 <linearGradient id="a" x2="1" gradientTransform="matrix(0 -36.2165 36.2165 0 489.464 42.119)" gradientUnits="userSpaceOnUse">
  <stop stop-color="#566069" offset="0"/>
  <stop stop-color="#6c7884" offset="1"/>
 </linearGradient>
 <path d="m39.44 2.332c3.438 0 6.228 2.79 6.228 6.228v30.88c0 3.438-2.79 6.228-6.228 6.228h-30.88c-3.438 0-6.228-2.79-6.228-6.228v-30.88c0-3.438 2.79-6.228 6.228-6.228z" fill="url(#a)"/>
 <path d="m2.332 9.588v-1.028c0-3.438 2.79-6.228 6.228-6.228h30.88c3.438 0 6.228 2.79 6.228 6.228v1.028z" fill="#ebebeb" fill-opacity=".1"/>
 <g fill-opacity=".5">
  <path d="m33.317 7.335h-.105c-.099 0-.178-.081-.178-.18v-.302c-.426-.107-.548-.36-.548-.879 0-.766.622-1.389 1.388-1.389s1.388.623 1.388 1.389c0 .511-.129.763-.546.874v.306c0 .1-.081.18-.18.18h-.104c-.099 0-.18-.08-.18-.18v-.24c-.047.003-.095.005-.146.006v.235c0 .099-.08.179-.179.179h-.104c-.1 0-.18-.08-.18-.179v-.234c-.051-.001-.1-.003-.147-.006v.24c0 .099-.08.18-.179.18zm-.018-1.926c.235.092.426.185.426.414 0 .227-.154.271-.426.412-.209.109-.427-.185-.427-.412 0-.229.207-.499.427-.414zm1.145 0c.227-.064.426.185.426.414 0 .227-.224.533-.426.412-.248-.147-.426-.185-.426-.412 0-.229.166-.34.426-.414z" fill="#ededed"/>
  <path d="m40.535 5.039.418.442.661-.626.528.557-.66.626.418.442c.143.15.141.383-.003.518-.144.137-.376.126-.517-.024l-.42-.442-.662.628-.529-.557.664-.596-.419-.475c-.143-.15-.14-.382.003-.518.144-.136.376-.125.518.025z" fill="#fff"/>
  <path d="m37.201 4.892.004-.169.607.016-.006.169.328.009c.314.009.563.272.554.586l-.031 1.139c-.008.315-.27.564-.585.555l-1.26-.034c-.315-.008-.563-.271-.554-.585l.03-1.14c.008-.315.271-.563.586-.555zm-.182.496c.163.004.292.141.287.304-.003.163-.14.292-.303.288s-.293-.141-.288-.304c.004-.163.141-.292.304-.288zm1.009.027c.163.005.293.14.288.304-.004.164-.14.293-.304.288-.163-.004-.292-.14-.288-.304.005-.163.141-.292.304-.288z" fill="#fff"/>
 </g>
 <path d="m35.017 12.032c-.179.035-.331.154-.407.319l-1.699 3.399c-.035.075-.054.157-.054.24 0 .244.158.462.39.538l1.416.478c.056.021.116.033.177.036h.566c.06-.003.12-.015.177-.036l1.415-.478c.232-.076.39-.294.39-.538 0-.083-.018-.165-.054-.24l-1.698-3.399c-.103-.214-.33-.342-.566-.319zm-3.663 5.381c-.056.01-.109.028-.159.053l-3.398 1.7c-.199.093-.326.293-.326.513s.127.42.326.513l3.398 1.7c.075.035.157.053.24.053.244 0 .462-.158.538-.39l.478-1.416c.021-.057.033-.116.035-.177v-.566c-.002-.061-.014-.12-.035-.177l-.478-1.416c-.083-.263-.347-.428-.619-.39zm7.378 0c-.215.031-.394.183-.46.39l-.477 1.416c-.022.057-.034.116-.036.177v.566c.002.061.014.121.036.177l.477 1.416c.076.232.294.39.538.39.083 0 .166-.018.241-.053l3.397-1.7c.199-.093.327-.293.327-.513s-.128-.42-.327-.513l-3.397-1.7c-.099-.048-.21-.066-.319-.053zm-3.627.266c-1.088 0-1.982.894-1.982 1.982 0 1.089.894 1.983 1.982 1.983s1.982-.894 1.982-1.983c0-1.088-.894-1.982-1.982-1.982zm-.318 4.637c-.043.007-.085.019-.124.036l-1.416.478c-.232.076-.39.294-.39.538 0 .083.019.165.054.241l1.699 3.398c.092.199.293.327.513.327.219 0 .42-.128.513-.327l1.698-3.398c.036-.076.054-.158.054-.241 0-.244-.158-.462-.39-.538l-1.415-.478c-.057-.021-.117-.033-.177-.036h-.566z" fill="#fff" fill-rule="nonzero"/>
 <path d="m35.123 12.599-1.699 3.398 1.416.478h.566l1.415-.478zm-3.681 5.381-3.397 1.699 3.397 1.699.478-1.416v-.566zm7.361 0-.478 1.416v.566l.478 1.416 3.397-1.699zm-3.963 4.903-1.416.478 1.699 3.398 1.698-3.398-1.415-.478z" fill="#1a1a1a" fill-rule="nonzero"/>
 <circle cx="35.105" cy="19.654" r="1.416" fill="#f67400"/>
 <path d="m5.225 23.147v17.774c0 .866.696 1.562 1.562 1.562h24.769v-17.774c0-.866-.699-1.562-1.564-1.562z" fill="#fff" fill-opacity=".85" fill-rule="nonzero"/>
 <path d="m5.225 23.148v3.691h26.33v-2.131c0-.107-.011-.213-.031-.314v-.002c-.042-.203-.123-.391-.235-.557 0 0 .001-.001 0-.002-.112-.166-.255-.308-.421-.42-.147-.099-.314-.168-.491-.213-.023-.006-.044-.016-.068-.021h-.002c-.102-.021-.206-.031-.314-.031z" fill="#0b0b0b" fill-opacity=".85" fill-rule="nonzero"/>
</svg>
