<!DOCTYPE svg  PUBLIC '-//W3C//DTD SVG 1.1//EN'  'http://www.w3.org/Graphics/SVG/1.1/DTD/svg11.dtd'>
<svg style="clip-rule:evenodd;fill-rule:evenodd;stroke-linejoin:round;stroke-miterlimit:1.41421" version="1.1" viewBox="0 0 48 48" xmlns="http://www.w3.org/2000/svg">
 <path d="m46 8.4h-44v31.791c0 0.779 0.631 1.41 1.41 1.41h41.18c0.779 0 1.41-0.631 1.41-1.41v-31.791z" style="fill-opacity:.666667"/>
 <path d="m3.562 7.399h40.876c0.865 0 1.562 0.697 1.562 1.563v29.976c0 0.865-0.697 1.562-1.562 1.562h-40.876c-0.865 0-1.562-0.697-1.562-1.562v-29.976c0-0.866 0.697-1.563 1.562-1.563z" style="fill-rule:nonzero;fill:url(#_Linear1)"/>
 <path d="m40.378 22.125l-5.779 6.69-11.023 2.921-10.542-5.803-5.907 0.541-5.127-2.6v15.164c0 0.866 0.697 1.562 1.562 1.562h40.875c0.866 0 1.562-0.696 1.562-1.562v-14.585l-5.621-2.328z" style="fill:url(#_Linear2)"/>
 <path d="m33.655 22.316c-0.068-0.089-0.157-0.142-0.267-0.159l-2.325-0.355c-0.127-0.407-0.3-0.822-0.521-1.245 0.153-0.212 0.381-0.51 0.686-0.896 0.305-0.385 0.521-0.667 0.648-0.845 0.068-0.093 0.102-0.19 0.102-0.292 0-0.118-0.03-0.211-0.089-0.279-0.305-0.432-1.004-1.152-2.096-2.16-0.102-0.085-0.208-0.127-0.318-0.127-0.127 0-0.229 0.038-0.305 0.114l-1.804 1.36c-0.347-0.178-0.728-0.335-1.143-0.47l-0.356-2.338c-9e-3 -0.11-0.057-0.201-0.146-0.273s-0.192-0.108-0.311-0.108h-2.82c-0.246 0-0.398 0.119-0.457 0.356-0.111 0.423-0.233 1.211-0.369 2.363-0.398 0.127-0.783 0.288-1.156 0.483l-1.753-1.36c-0.11-0.085-0.22-0.127-0.33-0.127-0.187 0-0.587 0.303-1.201 0.908-0.614 0.606-1.031 1.061-1.251 1.366-0.076 0.11-0.114 0.208-0.114 0.292 0 0.102 0.042 0.204 0.127 0.305 0.567 0.686 1.02 1.27 1.359 1.753-0.212 0.39-0.377 0.779-0.495 1.169l-2.363 0.356c-0.093 0.017-0.174 0.072-0.242 0.165-0.067 0.093-0.101 0.19-0.101 0.292v2.82c0 0.11 0.034 0.21 0.101 0.299 0.068 0.089 0.157 0.142 0.267 0.159l2.325 0.343c0.119 0.415 0.292 0.834 0.521 1.257-0.153 0.212-0.381 0.51-0.686 0.896-0.305 0.385-0.521 0.667-0.648 0.845-0.068 0.093-0.102 0.19-0.102 0.292 0 0.11 0.03 0.207 0.089 0.292 0.331 0.457 1.029 1.169 2.096 2.134 0.094 0.093 0.199 0.14 0.318 0.14 0.127 0 0.233-0.038 0.318-0.114l1.791-1.36c0.347 0.178 0.728 0.335 1.143 0.47l0.356 2.338c9e-3 0.11 0.057 0.201 0.146 0.273s0.193 0.108 0.311 0.108h2.82c0.246 0 0.399-0.119 0.458-0.356 0.11-0.423 0.233-1.211 0.368-2.363 0.398-0.127 0.784-0.288 1.156-0.483l1.753 1.373c0.119 0.076 0.229 0.114 0.331 0.114 0.186 0 0.584-0.301 1.194-0.902s1.029-1.059 1.257-1.372c0.076-0.085 0.115-0.182 0.115-0.292s-0.043-0.217-0.127-0.318c-0.61-0.745-1.063-1.329-1.36-1.753 0.17-0.313 0.335-0.699 0.496-1.156l2.35-0.355c0.101-0.017 0.186-0.073 0.254-0.166s0.101-0.191 0.101-0.292v-2.82c0-0.11-0.033-0.21-0.101-0.299zm-7.355 3.983c-0.635 0.635-1.402 0.953-2.3 0.953s-1.664-0.318-2.299-0.953-0.953-1.402-0.953-2.299c0-0.898 0.318-1.665 0.953-2.3s1.402-0.953 2.299-0.953c0.898 0 1.665 0.318 2.3 0.953s0.952 1.402 0.952 2.3c0 0.897-0.317 1.664-0.952 2.299z" style="fill-rule:nonzero;fill:url(#_Linear3)"/>
 <defs>
  <linearGradient id="_Linear1" x2="1" gradientTransform="matrix(.36743 -37.7 37.7 .36743 25 41.5772)" gradientUnits="userSpaceOnUse">
   <stop style="stop-color:#f786fb" offset="0"/>
   <stop style="stop-color:#2794f5" offset="1"/>
  </linearGradient>
  <linearGradient id="_Linear2" x2="1" gradientTransform="matrix(-.302077 -11.2342 11.2342 -.302077 26.243 35.0053)" gradientUnits="userSpaceOnUse">
   <stop style="stop-color:#132e51" offset="0"/>
   <stop style="stop-color:#2767b9" offset="1"/>
  </linearGradient>
  <linearGradient id="_Linear3" x2="1" gradientTransform="matrix(.0578313 19.4892 -19.4892 .0578313 23.653 14.3422)" gradientUnits="userSpaceOnUse">
   <stop style="stop-color:#d9d2ed" offset="0"/>
   <stop style="stop-color:#c9e1ff" offset="1"/>
  </linearGradient>
 </defs>
</svg>
