<svg style="clip-rule:evenodd;fill-rule:evenodd;stroke-linejoin:round;stroke-miterlimit:2" version="1.1" viewBox="0 0 48 48" xmlns="http://www.w3.org/2000/svg">
 <circle cx="24" cy="24" r="22.881" style="fill:url(#_Linear1)"/>
 <circle cx="24" cy="24" r="21.08" style="fill:url(#_Linear2)"/>
 <path d="m21.406 23.963c0.061-0.505 0.252-0.965 0.547-1.35l-2.861-15.445c-0.075-0.467 0.225-0.913 0.686-1.02l0.023-4e-3c0.461-0.107 0.926 0.162 1.063 0.615l4.524 15.062c0.909 0.457 1.54 1.388 1.54 2.473 0 1.532-1.246 2.778-2.777 2.778-0.286 0-0.556-0.056-0.815-0.136l-7.704 4.004c-0.424 0.22-0.946 0.083-1.206-0.318l-0.011-0.018c-0.26-0.4-0.174-0.933 0.2-1.23l6.791-5.411zm4.116 0.331c0-0.757-0.615-1.372-1.371-1.372-0.758 0-1.373 0.615-1.373 1.372s0.615 1.372 1.373 1.372c0.756 0 1.371-0.615 1.371-1.372z" style="fill-rule:nonzero;fill:url(#_Linear3)"/>
 <defs>
  <linearGradient id="_Linear1" x2="1" gradientTransform="matrix(-.378475 -45.7596 45.7596 -.378475 24 46.8814)" gradientUnits="userSpaceOnUse">
   <stop style="stop-color:#b3b3b3" offset="0"/>
   <stop style="stop-color:#fefefe" offset="1"/>
  </linearGradient>
  <linearGradient id="_Linear2" x2="1" gradientTransform="matrix(-.348677 -42.157 42.157 -.348677 24 45.0799)" gradientUnits="userSpaceOnUse">
   <stop style="stop-color:#2a2a2a" offset="0"/>
   <stop style="stop-color:#404447" offset="1"/>
  </linearGradient>
  <linearGradient id="_Linear3" x2="1" gradientTransform="matrix(.781909 -20.7189 -20.7189 -.781909 20.3156 29.6113)" gradientUnits="userSpaceOnUse">
   <stop style="stop-color:#b3b3b3" offset="0"/>
   <stop style="stop-color:#fff" offset="1"/>
  </linearGradient>
 </defs>
</svg>
