<svg style="clip-rule:evenodd;fill-rule:evenodd;stroke-linejoin:round;stroke-miterlimit:2" version="1.1" viewBox="0 0 48 48" xmlns="http://www.w3.org/2000/svg">
 <path d="m39.44 45.668h-30.88c-3.438 0-6.228-2.79-6.228-6.228v-30.88c0-3.438 2.79-6.228 6.228-6.228h30.88c3.438 0 6.228 2.79 6.228 6.228v30.88c0 3.438-2.789 6.227-6.228 6.228z" style="fill:url(#_Linear1)"/>
 <path d="m30.161 2.332h9.279c3.438 0 6.228 2.79 6.228 6.228v30.88c0 3.438-2.79 6.228-6.228 6.228h-9.279v-43.336z" style="fill-rule:nonzero;fill:url(#_Linear2)"/>
 <path d="m17.837 2.332v43.336h-9.277c-3.438 0-6.228-2.79-6.228-6.228v-30.88c0-3.438 2.79-6.228 6.228-6.228h9.277z" style="fill-rule:nonzero;fill:url(#_Linear3)"/>
 <path d="m20.621 29.587v-2.281c-1.949-0.566-4.259 0.913-6.395 3.006 0 0 0.503-3.929 3.815-4.879 1.005-0.272 0.81-2.169 1.053-3.097l1.527-6.434h3.176c-0.353-1.058-0.678-1.9-0.95-2.47-0.461-0.951-0.95-0.326-2.009 0.597-0.76 0.625-2.688 2.009-5.593 2.769-2.905 0.788-5.24 0.571-6.218 0.408-1.384-0.245-2.118-0.543-2.036 0.516 0.054 0.923 0.271 2.362 0.787 4.29 1.086 4.126 6.23 11.684 11.54 10.235 1.792-0.488 1.623-0.883 2.492-2.105l-1.189-0.555zm-10.463-5.998 5.199-3.192s0.506 2.81-1.313 3.299c-1.819 0.462-3.886-0.107-3.886-0.107z" style="fill-rule:nonzero;fill:url(#_Linear4)"/>
 <path d="m39.002 16.093c-1.303 0.217-4.398 0.515-8.227-0.516-3.828-1.032-6.38-2.824-7.385-3.666-1.439-1.194-2.063-2.009-2.661-0.76-0.543 1.113-1.249 2.905-1.927 5.43-1.466 5.458-1.129 17.43 6.489 19.386 6.919 1.776 13.874-8.091 15.34-13.548 0.679-2.525 0.978-4.426 1.059-5.648 0.109-1.412-0.842-1.004-2.688-0.678zm-17.916 2.874s1.398-1.147 3.607 0.112c2.213 1.261 2.215 5.027 2.215 5.027l-5.822-5.139zm4.723 13.245c-4.263-1.249-6.437-9.09-6.437-9.09 2.859 3.714 10.219 7.635 17.232 4.491-1.897 1.507-6.587 5.821-10.795 4.599zm3.54-7.468s2.892-3.357 5.227-2.678c2.335 0.706 2.693 1.844 2.693 1.844l-7.92 0.834z" style="fill-rule:nonzero;fill:url(#_Linear5)"/>
 <defs>
  <linearGradient id="_Linear1" x2="1" gradientTransform="matrix(.0595533 -35.1749 35.1749 .0595533 453.007 41.7885)" gradientUnits="userSpaceOnUse">
   <stop style="stop-color:#6aaa0e" offset="0"/>
   <stop style="stop-color:#1ab4fd" offset="1"/>
  </linearGradient>
  <linearGradient id="_Linear2" x2="1" gradientTransform="matrix(2.15384e-15,-35.1749,35.1749,2.15384e-15,455.222,41.0847)" gradientUnits="userSpaceOnUse">
   <stop style="stop-color:#006299" offset="0"/>
   <stop style="stop-color:#00a3ff" offset="1"/>
  </linearGradient>
  <linearGradient id="_Linear3" x2="1" gradientTransform="matrix(.238213 -35.1749 35.1749 .238213 427.529 43.9003)" gradientUnits="userSpaceOnUse">
   <stop style="stop-color:#282828" offset="0"/>
   <stop style="stop-color:#707070" offset="1"/>
  </linearGradient>
  <linearGradient id="_Linear4" x2="1" gradientTransform="matrix(16.3963,-5.18168,5.18168,16.3963,275.927,874.431)" gradientUnits="userSpaceOnUse">
   <stop style="stop-color:#fafafa" offset="0"/>
   <stop style="stop-color:#aaa" offset="1"/>
  </linearGradient>
  <linearGradient id="_Linear5" x2="1" gradientTransform="matrix(23.5839,0,0,23.5839,18.1145,1016.31)" gradientUnits="userSpaceOnUse">
   <stop style="stop-color:#f0f0f0" offset="0"/>
   <stop style="stop-color:#b7f1ff" offset="1"/>
  </linearGradient>
 </defs>
</svg>
