<!DOCTYPE svg  PUBLIC '-//W3C//DTD SVG 1.1//EN'  'http://www.w3.org/Graphics/SVG/1.1/DTD/svg11.dtd'>
<svg style="clip-rule:evenodd;fill-rule:evenodd;stroke-linejoin:round;stroke-miterlimit:1.41421" version="1.1" viewBox="0 0 48 48" xmlns="http://www.w3.org/2000/svg">
 <path d="m25.278 45.391l3.91-5.484h9.562s4.968 0.082 4.968-7.006v-22.292c-0.313-4.851-4.714-5.223-4.714-5.223h-29.298s-5.424 0.318-5.502 5.605v21.91c9e-3 6.902 5.502 7.006 5.502 7.006h10.469l3.523 5.463c0.767 0.894 0.778 0.777 1.58 0.021z" style="fill-opacity:.666667"/>
 <path d="m25.278 44.002l3.91-5.484h9.562s4.968 0.081 4.968-7.006v-22.293c-0.313-4.851-4.714-5.223-4.714-5.223h-29.298s-5.424 0.318-5.502 5.606v21.91c9e-3 6.902 5.502 7.006 5.502 7.006h10.469l3.523 5.462c0.767 0.895 0.778 0.778 1.58 0.022z" style="fill:url(#_Linear1)"/>
 <circle cx="35.36" cy="7.265" r="5.728" style="fill:url(#_Linear2)"/>
 <defs>
  <linearGradient id="_Linear1" x2="1" gradientTransform="matrix(.799284 -39.6049 39.6049 .799284 181.612 47.174)" gradientUnits="userSpaceOnUse">
   <stop style="stop-color:#b1b1b1" offset="0"/>
   <stop style="stop-color:#fefeff" offset="1"/>
  </linearGradient>
  <linearGradient id="_Linear2" x2="1" gradientTransform="matrix(7.01453e-16,-11.4556,11.4556,7.01453e-16,54.8757,12.9931)" gradientUnits="userSpaceOnUse">
   <stop style="stop-color:#dc402b" offset="0"/>
   <stop style="stop-color:#ff6100" offset="1"/>
  </linearGradient>
 </defs>
</svg>
