<svg style="clip-rule:evenodd;fill-rule:evenodd;stroke-linejoin:round;stroke-miterlimit:2" version="1.1" viewBox="0 0 48 48" xmlns="http://www.w3.org/2000/svg">
 <path d="m47.312 10.595c0-0.976-0.388-1.911-1.077-2.601-0.69-0.691-1.627-1.079-2.603-1.079h-39.264c-0.976 0-1.913 0.388-2.603 1.079-0.689 0.69-1.077 1.625-1.077 2.601v27.823c0 0.976 0.388 1.911 1.077 2.602 0.69 0.69 1.627 1.078 2.603 1.078h39.264c0.976 0 1.913-0.388 2.603-1.078 0.689-0.691 1.077-1.626 1.077-2.602v-27.823z" style="fill-opacity:.67"/>
 <path d="m47.312 9.381c0-1.921-1.557-3.479-3.479-3.479h-39.666c-1.922 0-3.479 1.558-3.479 3.479v19.054c0 1.921 1.557 3.479 3.479 3.479h39.666c1.922 0 3.479-1.558 3.479-3.479v-19.054z" style="fill:url(#_Linear1)"/>
 <path d="m41.356 21.603l5.956 2.466v13.537c0 1.921-1.557 3.479-3.479 3.479h-39.666c-1.922 0-3.479-1.558-3.479-3.479v-14.15l5.432 2.755 6.259-0.573 11.171 6.149 11.682-3.095 6.124-7.089z" style="fill:url(#_Linear2)"/>
 <path d="m25.744 11.236c0.148 0 0.275 0.044 0.385 0.133s0.17 0.202 0.181 0.338l0.44 2.892c0.513 0.167 0.985 0.362 1.414 0.582l2.232-1.683c0.094-0.094 0.22-0.141 0.377-0.141 0.136 0 0.267 0.052 0.394 0.157 1.35 1.247 2.215 2.138 2.593 2.673 0.073 0.084 0.11 0.199 0.11 0.345 0 0.126-0.042 0.246-0.127 0.361-0.157 0.22-0.424 0.569-0.801 1.045-0.378 0.478-0.66 0.847-0.849 1.109 0.274 0.523 0.488 1.036 0.645 1.54l2.876 0.439c0.136 0.021 0.246 0.087 0.33 0.197l0.125 0.37v3.488c0 0.125-0.041 0.247-0.125 0.362s-0.189 0.184-0.314 0.205l-2.907 0.439c-0.199 0.566-0.403 1.043-0.614 1.43 0.368 0.525 0.928 1.247 1.683 2.169 0.104 0.125 0.157 0.257 0.157 0.393s-0.048 0.256-0.142 0.362c-0.283 0.387-0.801 0.953-1.556 1.697-0.754 0.743-1.247 1.116-1.477 1.116-0.126 0-0.262-0.047-0.409-0.141l-2.169-1.699c-0.46 0.241-0.937 0.441-1.43 0.598-0.167 1.425-0.319 2.4-0.455 2.923-0.073 0.293-0.262 0.44-0.567 0.44h-3.488c-0.146 0-0.275-0.044-0.385-0.133s-0.17-0.202-0.181-0.338l-0.44-2.892c-0.513-0.167-0.985-0.362-1.414-0.582l-2.216 1.683c-0.105 0.094-0.236 0.141-0.393 0.141-0.147 0-0.277-0.058-0.394-0.173-1.32-1.194-2.183-2.075-2.593-2.64-0.073-0.106-0.11-0.226-0.11-0.362 0-0.126 0.042-0.246 0.127-0.361 0.157-0.22 0.424-0.569 0.801-1.045 0.378-0.478 0.66-0.846 0.849-1.109-0.283-0.523-0.497-1.041-0.645-1.555l-2.876-0.424c-0.136-0.021-0.246-0.087-0.33-0.197-0.083-0.11-0.125-0.234-0.125-0.37v-3.488c0-0.127 0.042-0.247 0.125-0.362 0.084-0.115 0.184-0.183 0.299-0.204l2.923-0.44c0.146-0.483 0.351-0.964 0.613-1.446-0.42-0.598-0.98-1.32-1.681-2.169-0.106-0.125-0.158-0.251-0.158-0.377 0-0.104 0.047-0.225 0.141-0.361 0.273-0.378 0.788-0.941 1.548-1.69s1.255-1.124 1.486-1.124c0.136 0 0.272 0.052 0.408 0.157l2.169 1.683c0.461-0.241 0.937-0.44 1.43-0.598 0.168-1.425 0.319-2.4 0.456-2.923 0.073-0.293 0.261-0.44 0.566-0.44h3.488zm1.951 15.764c-1.02 1.021-2.252 1.531-3.695 1.531s-2.674-0.51-3.694-1.531c-1.021-1.02-1.531-2.252-1.531-3.694 0-1.443 0.51-2.675 1.531-3.695 1.02-1.021 2.252-1.531 3.694-1.531 1.443 0 2.675 0.51 3.695 1.531 1.021 1.02 1.53 2.252 1.53 3.695 0 1.442-0.509 2.674-1.53 3.694z" style="fill:url(#_Linear3)"/>
 <defs>
  <linearGradient id="_Linear1" x2="1" gradientTransform="matrix(-.0595533 -35.183 35.183 -.0595533 232.752 40.7335)" gradientUnits="userSpaceOnUse">
   <stop style="stop-color:#f086fb" offset="0"/>
   <stop style="stop-color:#4392f6" offset="1"/>
  </linearGradient>
  <linearGradient id="_Linear2" x2="1" gradientTransform="matrix(5.35965e-15,-18.9202,18.9202,5.35965e-15,24,41.085)" gradientUnits="userSpaceOnUse">
   <stop style="stop-color:#132e51" offset="0"/>
   <stop style="stop-color:#2767b9" offset="1"/>
  </linearGradient>
  <linearGradient id="_Linear3" x2="1" gradientTransform="matrix(.0715435 24.1102 -24.1102 .0715435 -1403.44 15.593)" gradientUnits="userSpaceOnUse">
   <stop style="stop-color:#f8f8f8" offset="0"/>
   <stop style="stop-color:#c9e1ff" offset="1"/>
  </linearGradient>
 </defs>
</svg>
