<svg width="48" height="48" xmlns="http://www.w3.org/2000/svg">
 <path d="m25.747647 5.0005266c-.3455-.002-.48017.27174-1.18109 2.405l-.696345 2.11951-1.064512.0962c-.585471.0529-1.260479.13684-1.500039.18662-.316711.0658-.464457.0665-.541477.002-.05824-.0484-.551446-.84785-1.096079-1.7766-1.088427-1.85607-1.311635-2.15299-1.617706-2.15299-.321655 0-2.476043.85836-2.633 1.04904-.07702.0936-.138975.28314-.137676.42143.000999.13829.194697 1.1526.429742 2.25388.235056 1.1012904.41342 2.0383904.396308 2.0824404-.01708.044-.273515.23092-.569767.41533s-.832543.57187-1.19172.86101c-.359166.28914-.687204.52577-.729001.52577-.04176 0-.882052-.45538-1.867266-1.01197-2.0257619-1.14443-2.1228109-1.188-2.4085934-1.07923-.3087587.11751-1.8230525 2.04075-1.8230525 2.31536 0 .29762.072425.39201 1.6173965 2.11107.7386612.82186 1.3429924 1.5524 1.3429924 1.62346 0 .071-.156627.4439-.348018.82847-.1913908.38457-.4454963.95783-.5647621 1.27399-.1192659.31615-.261378.61194-.3158213.65717-.060837.0506-.9522789.0913-2.313582.10591-2.7311473.0293-2.4910173-.10371-2.7484793 1.52193-.099696.62967-.1833592 1.24001-.1858066 1.35627-.00899.43313.1751877.53007 2.3978143 1.26195l2.1160475.69675.093802 1.03965c.051646.57178.1326919 1.25003.1801825 1.50723.04755.25721.066631.49966.042556.53876-.024175.0391-.8427029.54435-1.8191366 1.12287-.9764437.57853-1.8563978 1.13911-1.9554148 1.24568-.098997.10658-.1800226.28887-.1800226.40516 0 .34021.8725518 2.48853 1.0657607 2.62401.2525971.1771.4711696.15115 2.6539377-.31506 1.0996955-.23488 2.0358116-.4116 2.0802746-.39265.04445.019.231729.27584.416307.57083.184568.29498.575091.8349.867767 1.19968.364161.45389.516043.70529.480999.79671-.02817.0735-.481129.89753-1.006542 1.83121-1.076899 1.91372-1.138046 2.04689-1.067789 2.32709.07183.28656 2.053213 1.87057 2.338896 1.86985.294653-.00074.434767-.10814 2.086049-1.60125.803853-.72685 1.522215-1.33204 1.596298-1.34485.07412-.0128.457494.1365.852143.33195s.996633.45399 1.337678.57442c.341045.12042.627167.22324.635858.22855.009.005.03566 1.04501.06004 2.31035.05434 2.82575-.07612 2.57947 1.502386 2.83504 1.186155.19204 1.654448.19255 1.84477.002.06633-.0664.43235-1.06944.813233-2.22886l.69243-2.10793.796041-.0613c.437864-.0337 1.120234-.11458 1.516292-.17974.716954-.11796.72075-.11766.869175.0613.08202.0989.593882.93663 1.137646 1.86171s1.065781 1.74504 1.159993 1.82213c.257971.21109.442739.17847 1.688662-.29738 1.188214-.45382 1.425666-.61927 1.424867-.99304-.00024-.11626-.194917-1.13012-.432709-2.2531-.237793-1.12298-.415158-2.06979-.39412-2.10387.02108-.0341.296731-.23661.612742-.45021.316001-.2136.844641-.60958 1.174677-.87978.330047-.2702.633201-.4913.673689-.49135.04046-.00006.904599.46305 1.920242 1.02917 2.076338 1.15733 2.064571 1.15199 2.339215 1.08298.292236-.0734 1.867736-2.05607 1.867736-2.3504 0-.27535-.06663-.36124-1.637865-2.11247-.705426-.78624-1.293674-1.49463-1.3072-1.57434-.01359-.0797.121793-.43636.300667-.79249.178864-.35613.435707-.92709.570696-1.26883.13498-.34174.280468-.65739.323324-.70144.04635-.0476.983486-.0963 2.312333-.12014 2.131901-.0382 2.242016-.0477 2.401401-.20743.130823-.1311.209032-.42634.360824-1.3616.106599-.6568.194388-1.27142.195027-1.36565.003-.38072-.225545-.49672-2.399063-1.21893l-2.120273-.70442-.09021-1.03511c-.04965-.56928-.130235-1.24649-.179084-1.50489-.04885-.2584-.06883-.5021-.04435-.54173.02448-.0396.843183-.5443 1.819297-1.12146s1.855778-1.13732 1.954785-1.24474c.099-.10742.180023-.28526.180023-.39531 0-.31559-.859126-2.45753-1.048569-2.6143-.240689-.19917-.406387-.1831-2.319835.2251-2.246672.4793-2.367826.50119-2.45016.44412-.03856-.0267-.242658-.31072-.453648-.63121s-.596189-.8431-.856049-1.16136c-.25986-.31825-.472508-.61128-.472568-.65107-.00005-.0398.464067-.9048 1.031546-1.92225.56747-1.01744 1.054443-1.92625 1.082164-2.01955.0959-.32274-.10599-.57356-1.112322-1.3816104-1.072454-.86115-1.260798-.93861-1.643809-.67579-.108807.0747-.869905.74144-1.69131 1.4817304-.821415.74029-1.551196 1.3461-1.621782 1.3461-.07063 0-.442649-.15747-.82682-.34994-.38417-.19246-.932559-.43184-1.218601-.53187-.838018-.29306-.800087-.17012-.800417-2.5911504-.00027-1.92457-.01279-2.11392-.15423-2.34618-.0927-.1522-.243686-.27177-.379744-.30067-.34575-.0734-2.288748-.36603-2.437184-.36699z" opacity=".2"/>
 <path d="m25.747647 4.0005334c-.3455-.002-.48017.27174-1.18109 2.405l-.696345 2.11951-1.064512.0962c-.585471.0529-1.260479.13684-1.500039.18662-.316711.0658-.464457.0665-.541477.002-.05824-.0484-.551446-.84785-1.096079-1.7766-1.088427-1.85607-1.311635-2.15299-1.617706-2.15299-.321655 0-2.476043.85836-2.633 1.04904-.07702.0936-.138975.28314-.137676.42143.000999.13829.194697 1.1526.429742 2.25388.235056 1.10129.41342 2.0383906.396308 2.0824406-.01708.044-.273515.23092-.569767.41533s-.832543.57187-1.19172.86101c-.359166.28914-.687204.52577-.729001.52577-.04176 0-.882052-.45538-1.867266-1.01197-2.0257619-1.14443-2.1228109-1.188-2.4085934-1.07923-.3087587.11751-1.8230525 2.04075-1.8230525 2.31536 0 .29762.072425.39201 1.6173965 2.11107.7386612.82186 1.3429924 1.5524 1.3429924 1.62346 0 .071-.156627.4439-.348018.82847-.1913908.38457-.4454963.95783-.5647621 1.27399-.1192659.31615-.261378.61194-.3158213.65717-.060837.0506-.9522789.0913-2.313582.10591-2.7311473.0293-2.4910173-.10371-2.7484793 1.52193-.099696.62967-.1833592 1.24001-.1858066 1.35627-.00899.43313.1751877.53007 2.3978143 1.26195l2.1160475.69675.093802 1.03965c.051646.57178.1326919 1.25003.1801825 1.50723.04755.25721.066631.49966.042556.53876-.024175.0391-.8427029.54435-1.8191366 1.12287-.9764437.57853-1.8563978 1.13911-1.9554148 1.24568-.098997.10658-.1800226.28887-.1800226.40516 0 .34021.8725518 2.48853 1.0657607 2.62401.2525971.1771.4711696.15115 2.6539377-.31506 1.0996955-.23488 2.0358116-.4116 2.0802746-.39265.04445.019.231729.27584.416307.57083.184568.29498.575091.8349.867767 1.19968.364161.45389.516043.70529.480999.79671-.02817.0735-.481129.89753-1.006542 1.83121-1.076899 1.91372-1.138046 2.04689-1.067789 2.32709.07183.28656 2.053213 1.87057 2.338896 1.86985.294653-.00074.434767-.10814 2.086049-1.60125.803853-.72685 1.522215-1.33204 1.596298-1.34485.07412-.0128.457494.1365.852143.33195s.996633.45399 1.337678.57442c.341045.12042.627167.22324.635858.22855.009.005.03566 1.04501.06004 2.31035.05434 2.82575-.07612 2.57947 1.502386 2.83504 1.186155.19204 1.654448.19255 1.84477.002.06633-.0664.43235-1.06944.813233-2.22886l.69243-2.10793.796041-.0613c.437864-.0337 1.120234-.11458 1.516292-.17974.716954-.11796.72075-.11766.869175.0613.08202.0989.593882.93663 1.137646 1.86171s1.065781 1.74504 1.159993 1.82213c.257971.21109.442739.17847 1.688662-.29738 1.188214-.45382 1.425666-.61927 1.424867-.99304-.00024-.11626-.194917-1.13012-.432709-2.2531-.237793-1.12298-.415158-2.06979-.39412-2.10387.02108-.0341.296731-.23661.612742-.45021.316001-.2136.844641-.60958 1.174677-.87978.330047-.2702.633201-.4913.673689-.49135.04046-.00006.904599.46305 1.920242 1.02917 2.076338 1.15733 2.064571 1.15199 2.339215 1.08298.292236-.0734 1.867736-2.05607 1.867736-2.3504 0-.27535-.06663-.36124-1.637865-2.11247-.705426-.78624-1.293674-1.49463-1.3072-1.57434-.01359-.0797.121793-.43636.300667-.79249.178864-.35613.435707-.92709.570696-1.26883.13498-.34174.280468-.65739.323324-.70144.04635-.0476.983486-.0963 2.312333-.12014 2.131901-.0382 2.242016-.0477 2.401401-.20743.130823-.1311.209032-.42634.360824-1.3616.106599-.6568.194388-1.27142.195027-1.36565.003-.38072-.225545-.49672-2.399063-1.21893l-2.120273-.70442-.09021-1.03511c-.04965-.56928-.130235-1.24649-.179084-1.50489-.04885-.2584-.06883-.5021-.04435-.54173.02448-.0396.843183-.5443 1.819297-1.12146s1.855778-1.13732 1.954785-1.24474c.099-.10742.180023-.28526.180023-.39531 0-.31559-.859126-2.45753-1.048569-2.6143-.240689-.19917-.406387-.1831-2.319835.2251-2.246672.4793-2.367826.50119-2.45016.44412-.03856-.0267-.242658-.31072-.453648-.63121s-.596189-.8431-.856049-1.16136c-.25986-.31825-.472508-.61128-.472568-.65107-.00005-.0398.464067-.9048 1.031546-1.92225.56747-1.01744 1.054443-1.9262506 1.082164-2.0195506.0959-.32274-.10599-.57356-1.112322-1.38161-1.072454-.86115-1.260798-.93861-1.643809-.67579-.108807.0747-.869905.74144-1.69131 1.48173-.821415.74029-1.551196 1.3461006-1.621782 1.3461006-.07063 0-.442649-.15747-.82682-.34994-.38417-.1924606-.932559-.4318406-1.218601-.5318706-.838018-.29306-.800087-.17012-.800417-2.59115-.00027-1.92457-.01279-2.11392-.15423-2.34618-.0927-.1522-.243686-.27177-.379744-.30067-.34575-.0734-2.288748-.36603-2.437184-.36699z" fill="#9d60ff"/>
 <path d="m25.748047 4c-.3455-.002-.480721.27299-1.181641 2.40625l-.695312 2.1191406-1.064453.0957032c-.585471.0528999-1.262394.1377199-1.501953.1875-.316712.0657999-.463996.0664531-.541016.0019531-.05824-.0484-.55107-.8485938-1.095703-1.7773438-1.088427-1.85607-1.311117-2.1523437-1.617188-2.1523437-.321655 0-2.475855.8581481-2.632812 1.0488281-.07702.0936-.139971.283585-.138672.421875.000274.0379783.090981.4653661.117187.6191406.007799-.0119584.013287-.0310533.021485-.0410156.156957-.19068 2.311157-1.0488281 2.632812-1.0488281.306071 0 .528761.2962737 1.617188 2.1523437.544633.92875 1.037463 1.7289438 1.095703 1.7773438.07702.0645.224304.0638468.541016-.0019531.239559-.04978.916482-.1346001 1.501953-.1875l1.064453-.0957032.695312-2.1191406c.70092-2.13326.836141-2.40825 1.181641-2.40625.148436.00096 2.09175.2937875 2.4375.3671875.136058.0289.286206.1485813.378906.3007813.14144.2322599.154027.4211331.154297 2.3457031.00033 2.4210301-.037237 2.2987371.800781 2.5917971.286042.10003.83458.33879 1.21875.53125.384171.19247.755542.349609.826172.349609.070586 0 .801632-.605413 1.623047-1.345703.821405-.7402904 1.580646-1.4077219 1.689453-1.4824219.383011-.26282.572077-.1853687 1.644531.6757813.449156.3606566.718881.6003371.892578.7949216.040679-.080936.215047-.393072.220704-.4121091.0959-.32274-.10695-.5747625-1.113282-1.3828125-1.072454-.86115-1.26152-.9386013-1.644531-.6757813-.108807.0747-.868048.7421319-1.689453 1.4824219-.821415.74029-1.552461 1.345703-1.623047 1.345703-.07063 0-.442001-.157139-.826172-.349609-.38417-.1924609-.932708-.4312202-1.21875-.5312502-.838018-.2930601-.800451-.1707669-.800781-2.5917969-.00027-1.92457-.012857-2.1134431-.154297-2.3457031-.0927-.1522-.242848-.2718813-.378906-.3007813-.34575-.0734-2.289064-.3662275-2.4375-.3671875zm-16.1972658 6.359375c-.080939-.006671-.1394918.01187-.2109374.039063-.3087588.117509-1.8242188 2.039843-1.8242188 2.314453 0 .150081.0258157.255994.2421875.537109.4406465-.662394 1.3505919-1.763479 1.5820313-1.851562.2857824-.108771.3824412-.066305 2.4082032 1.078124.985214.556591 1.825427 1.011719 1.867187 1.011719.041797 0 .36935-.23625.728516-.52539.359177-.28914.895154-.676919 1.191406-.861329.296252-.184409.553233-.370062.570313-.414062.007224-.018598-.115952-.596794-.167969-.878906-.099223.081514-.193133.162739-.402344.292968-.296252.18441-.832229.572189-1.191406.861329-.359166.28914-.686719.52539-.728516.52539-.04176 0-.881973-.455128-1.867187-1.011719-1.519322-.858322-1.9544486-1.097175-2.1972658-1.117187zm26.2773438 3.724609c-.073223.141259-.308609.562329-.308594.574219.00006.03979.212796.332141.472657.650391.259859.31826.646431.841619.857421 1.162109s.414565.604159.453125.630859c.082334.05707.202547.035941 2.449219-.443359 1.913448-.4082 2.079624-.425732 2.320313-.226562.136745.113161.617333 1.251656.876953 2 .095377-.108117.171875-.277656.171875-.384766 0-.31559-.859385-2.458464-1.048828-2.615234-.240689-.19917-.406865-.181638-2.320313.226562-2.246672.4793-2.366885.50043-2.449219.443359-.03856-.0267-.242135-.310369-.453125-.630859s-.597562-.843849-.857421-1.162109c-.0899-.1101-.092312-.129988-.164063-.22461zm-25.621094 3.003907c-.038319.082423-.03484.100525-.078125.1875-.1913906.38457-.4451871.95923-.5644529 1.27539-.1192659.31615-.2619629.61102-.3164062.65625-.060837.0506-.9511969.090859-2.3125.105469-2.7311473.0293-2.492538-.102203-2.75 1.523438-.099696.62967-.1830995 1.239208-.1855469 1.355468-.0025998.125255.0194146.221942.09375.314453.0335716-.244449.0425226-.35871.0917969-.669921.257462-1.625641.0188527-1.494138 2.75-1.523438 1.3613031-.01461 2.251663-.054869 2.3125-.105469.0544433-.04523.1971403-.3401.3164062-.65625.1192658-.31616.3730623-.89082.5644529-1.27539.191391-.38457.347656-.757125.347656-.828125 0-.024177-.148128-.204894-.269531-.359375zm29.052735 4.664062c-.005338.004418-.092496.054612-.09375.056641-.02448.03963-.003929.282615.044922.541015.048849.2584.130037.93658.179687 1.50586l.089844 1.035156 2.121093.703125c1.569879.521635 2.108742.728011 2.294922.945312.039305-.272215.103176-.676488.103516-.726562.003-.38072-.22492-.49654-2.398438-1.21875l-2.121093-.703125-.089844-1.035156c-.036381-.417141-.085916-.777711-.130859-1.103516zm-30.5195316 5.539063c-.0958559.079893-.8001344.518309-1.7285156 1.068359-.9764437.57853-1.8560612 1.139524-1.9550782 1.246094-.098997.10658-.1796875.288007-.1796875.404297 0 .092837.0695554.328806.1679688.613281.0046803-.005472.0069479-.014395.0117187-.019531.099017-.10657.9786345-.665611 1.9550782-1.244141.9764336-.57852 1.7941843-1.083947 1.8183593-1.123047.024075-.0391.0065344-.281852-.0410156-.539062-.012795-.069296-.0323929-.286146-.0488281-.40625zm29.0429686 4.666015c-.147147.310391-.260019.603614-.248047.673828.013526.07971.603168.787979 1.308594 1.574219.775425.864255 1.175267 1.311898 1.390625 1.587891.149661-.225127.246094-.401767.246094-.47461 0-.27535-.065484-.362051-1.636719-2.113281-.484399-.539892-.834798-.959921-1.060547-1.248047zm-25.611328 3.029297c-.168944.314878-.352102.655105-.736328 1.337891-1.076899 1.91372-1.138616 2.047925-1.068359 2.328125.010736.042833.128864.154908.21289.246094.155201-.31646.378038-.725793.855469-1.574219.525413-.93368.977689-1.756578 1.005859-1.830078.025542-.066631-.086666-.254761-.269531-.507813zm19.884766 3.269531c-.038153.030345-.158409.111947-.164063.121094-.021038.03408.156738.980536.394531 2.103516.166705.787266.230548 1.171739.302735 1.580078.081623-.097889.129176-.199876.128906-.326172-.00024-.11626-.193849-1.130926-.431641-2.253906-.138452-.653844-.16022-.835593-.230468-1.22461z" fill="#fff" opacity=".1"/>
 <path d="m29.681283 16.00094c.300582.0051.600008.02908.887965.05741 1.366994.08525.515943 1.103723-.318233 1.306846-1.366293.389765-1.358647 1.941227-.546962 2.915161.742782 1.261249 1.858766.06298 2.725242-.349616 1.291773-.214141.0441 1.580664-.36647 2.020602-.615366.951536-1.662696 1.407933-2.739648 1.243784-1.352034-.193545-2.302892.958432-3.195342 1.826838-2.514148 2.343712-5.073382 4.908193-7.602556 7.479475-.37181.318261-.777839.681204-1.064082 1.088407-1.389444 1.305141-3.461423-.776134-1.909317-2.443402 3.214653-2.96043 6.517965-6.368988 9.488287-9.266302.486143-.476125.94007-.97957 1.250408-1.599396.524672-1.086712-.03483-2.53849.937783-3.408543.639567-.729264 1.551176-.88618 2.452925-.871264z" opacity=".2"/>
 <path d="m29.681283 15.000941c.300582.0051.600008.02908.887965.05741 1.366994.08525.515943 1.103723-.318233 1.306846-1.366293.389765-1.358647 1.941227-.546962 2.915161.742782 1.261249 1.858766.06298 2.725242-.349616 1.291773-.214141.0441 1.580664-.36647 2.020602-.615366.951536-1.662696 1.407933-2.739648 1.243784-1.352034-.193545-2.302892.958432-3.195342 1.826838-2.514148 2.343712-5.073382 4.908193-7.602556 7.479475-.37181.318261-.777839.681204-1.064082 1.088407-1.389444 1.305141-3.461423-.776134-1.909317-2.443402 3.214653-2.96043 6.517965-6.368988 9.488287-9.266302.486143-.476125.94007-.97957 1.250408-1.599396.524672-1.086712-.03483-2.53849.937783-3.408543.639567-.729264 1.551176-.88618 2.452925-.871264z" fill="#f1f1f1"/>
 <path d="m21.683862 16.026205c.949538-.125972 1.964318.205704 2.65449.92-.1834.386239-1.305679.194507-1.710349.733077-.602642.519102-1.639079 1.656909-.867232 2.44242 3.001306 2.934133 6.625175 6.535247 9.607344 9.49336.543923.686866 1.487092 1.142858 1.631885 2.09831-.177842.952028-1.009955 1.632779-1.670776 2.205948-.295228.158835-.698638.07392-.930657-.173853-3.954957-4.227042-6.755527-7.777866-10.37411-11.833642-.443369-.38231-1.203702-.343128-1.191403.457875.500349.870383-.765933 1.381286-1.166923 2.021174-.460526.341408-.778336-.323266-1.116452-.566286-.497698-.660704-1.526423-1.073459-1.549679-2.009302.570094-.569146 1.042702-1.965379 1.905101-1.604515.855966-.394979.498239-1.837101 1.408438-2.330289.718324-.594094 1.650794-.730582 2.308916-1.491692.328225-.193938.689848-.31329 1.061407-.362585z" opacity=".2"/>
 <path d="m21.683862 15.026206c.949538-.125972 1.964318.205704 2.65449.92-.1834.386239-1.305679.194507-1.710349.733077-.602642.519102-1.639079 1.656909-.867232 2.44242 3.001306 2.934133 6.625175 6.535247 9.607344 9.49336.543923.686866 1.487092 1.142858 1.631885 2.09831-.177842.952028-1.009955 1.632779-1.670776 2.205948-.295228.158835-.698638.07392-.930657-.173853-3.954957-4.227042-6.755527-7.777866-10.37411-11.833642-.443369-.38231-1.203702-.343128-1.191403.457875.500349.870383-.765933 1.381286-1.166923 2.021174-.460526.341408-.778336-.323266-1.116452-.566286-.497698-.660704-1.526423-1.073459-1.549679-2.009302.570094-.569146 1.042702-1.965379 1.905101-1.604515.855966-.394979.498239-1.837101 1.408438-2.330289.718324-.594094 1.650794-.730582 2.308916-1.491692.328225-.193938.689848-.31329 1.061407-.362585z" fill="#fff"/>
</svg>
