<svg style="clip-rule:evenodd;fill-rule:evenodd;stroke-linejoin:round;stroke-miterlimit:2" version="1.1" viewBox="0 0 48 48" xmlns="http://www.w3.org/2000/svg">
 <circle cx="24.174" cy="23.921" r="23.826" style="fill:url(#_Linear1)"/>
 <circle cx="24.174" cy="23.921" r="22.103" style="fill:url(#_Linear2)"/>
 <path d="m36.435 16.174c-0.499 0.189-0.992 0.393-1.495 0.572-0.106 0.039-0.276 0.044-0.356-0.015-0.167-0.127-0.294-0.306-0.436-0.464-0.074-0.083-0.131-0.194-0.223-0.247-0.217-0.124-0.167-0.299-0.113-0.473 0.026-0.08 0.089-0.15 0.14-0.219 0.306-0.417 0.617-0.83 0.92-1.249 0.167-0.233 0.147-0.388-0.054-0.587-0.068-0.068-0.133-0.137-0.204-0.201-0.194-0.179-0.313-0.213-0.498-0.106-0.036 0.02-0.075 0.044-0.117 0.078-0.389 0.291-0.777 0.584-1.164 0.877-0.056 0.044-0.106 0.08-0.153 0.107-0.195 0.112-0.323 0.079-0.571-0.1-0.243-0.174-0.487-0.347-0.726-0.527-0.038-0.028-0.077-0.089-0.074-0.13 0.014-0.133 0.028-0.27 0.074-0.394 0.187-0.492 0.387-0.979 0.58-1.47 0.078-0.2 0.099-0.38-0.162-0.476-0.117-0.043-0.222-0.123-0.334-0.184-0.176-0.096-0.27-0.125-0.367-0.069-0.054 0.031-0.108 0.088-0.178 0.175-0.332 0.408-0.66 0.82-0.986 1.232-0.056 0.071-0.117 0.127-0.183 0.165-0.103 0.06-0.222 0.072-0.361 0.019-0.238-0.092-0.481-0.177-0.708-0.294-0.402-0.207-0.402-0.223-0.35-0.682 0.067-0.596 0.135-1.191 0.206-1.815-0.226-0.054-0.444-0.102-0.66-0.157-0.184-0.046-0.282-0.063-0.355-0.02-0.065 0.037-0.111 0.121-0.177 0.271-0.213 0.483-0.421 0.967-0.634 1.449-0.05 0.111-0.118 0.19-0.203 0.239-0.088 0.051-0.194 0.069-0.318 0.053-0.238-0.03-0.48-0.045-0.712-0.099-0.192-0.044-0.423-0.123-0.464-0.335-0.125-0.652-0.214-1.31-0.321-2.002-0.204-4e-3 -0.448-0.018-0.694-0.014-0.139 1e-3 -0.228 0.011-0.289 0.046-0.08 0.047-0.111 0.138-0.137 0.312-0.072 0.457-0.132 0.917-0.208 1.374-0.028 0.162-0.059 0.34-0.148 0.473-0.016 0.024-0.044 0.048-0.081 0.069-0.287 0.165-1.11 0.211-1.3 0.065-6e-3 -7e-3 -0.01-0.013-0.019-0.016-0.232-0.137-0.304-0.379-0.398-0.606-0.171-0.409-0.343-0.818-0.55-1.315-0.166 0.03-0.404 0.063-0.636 0.12-0.124 0.031-0.212 0.058-0.275 0.094-0.138 0.08-0.145 0.197-0.114 0.473 0.057 0.501 0.111 1.001 0.169 1.501 0.023 0.197-0.023 0.371-0.191 0.467-0.012 7e-3 -0.023 0.013-0.035 0.019-0.259 0.121-0.53 0.219-0.798 0.322-0.18 0.069-0.33 0.01-0.448-0.133-0.26-0.321-0.527-0.638-0.775-0.967-0.442-0.586-0.423-0.671-0.999-0.341-0.057 0.034-0.121 0.071-0.19 0.111-0.242 0.141-0.294 0.271-0.193 0.539 0.183 0.485 0.374 0.968 0.565 1.45 0.129 0.326 0.087 0.47-0.198 0.673-0.144 0.101-0.285 0.205-0.425 0.31-0.059 0.045-0.111 0.081-0.158 0.109-0.186 0.106-0.304 0.075-0.543-0.101-0.391-0.288-0.775-0.586-1.163-0.877-0.211-0.158-0.323-0.2-0.464-0.119-0.056 0.033-0.118 0.085-0.192 0.157-0.078 0.078-0.157 0.157-0.234 0.236-0.268 0.276-0.267 0.405-0.039 0.697 0.309 0.395 0.605 0.798 0.904 1.199 0.147 0.198 0.15 0.397-9e-3 0.593-0.096 0.117-0.188 0.237-0.28 0.357-0.132 0.176-0.225 0.285-0.322 0.34-0.145 0.084-0.298 0.042-0.601-0.081-0.437-0.178-0.876-0.35-1.313-0.527-0.125-0.05-0.23-0.055-0.318-4e-3 -0.055 0.031-0.102 0.084-0.144 0.161-0.094 0.175-0.208 0.34-0.29 0.52-0.064 0.139-0.155 0.316 0.132 0.336 0.047 4e-3 0.093 0.06 0.136 0.094 0.338 0.269 0.674 0.538 1.013 0.807 0.299 0.239 0.373 0.533 0.222 0.892-0.052 0.125-0.106 0.25-0.157 0.375-0.089 0.217-0.16 0.341-0.267 0.402-0.107 0.062-0.25 0.063-0.482 0.035-0.484-0.058-0.967-0.122-1.452-0.165-0.084-8e-3 -0.214 0.014-0.283 0.053-0.023 0.012-0.038 0.027-0.044 0.044-0.122 0.311-0.199 0.639-0.287 0.94 0.149 0.044 0.232 0.06 0.308 0.093 0.455 0.197 0.908 0.397 1.362 0.597 0.304 0.134 0.438 0.365 0.397 0.699-0.023 0.19-0.049 0.38-0.075 0.57-0.032 0.229-0.079 0.35-0.205 0.421-0.068 0.04-0.161 0.065-0.287 0.086-0.528 0.084-1.057 0.16-1.587 0.235-0.064 0.01-0.126 0.025-0.174 0.053-0.063 0.037-0.105 0.093-0.11 0.184-0.015 0.298-0.011 0.598-0.014 0.888 0.709 0.11 1.377 0.211 2.043 0.32 0.118 0.019 0.208 0.067 0.227 0.224 0.034 0.283 0.118 0.558 0.159 0.84 0.047 0.334 0 0.479-0.215 0.603-0.06 0.034-0.131 0.066-0.218 0.101-0.452 0.179-0.895 0.38-1.343 0.567-0.026 0.012-0.049 0.022-0.071 0.035-0.168 0.096-0.213 0.245-0.154 0.447 0.034 0.122 0.062 0.246 0.094 0.369 0.079 0.303 0.106 0.328 0.428 0.298 0.324-0.029 0.646-0.072 0.97-0.108 0.245-0.027 0.491-0.071 0.736-0.073 0.124 0 0.319 0.04 0.36 0.123 0.151 0.309 0.25 0.646 0.372 0.969 0.076 0.201 0.019 0.36-0.141 0.488-0.349 0.278-0.705 0.545-1.048 0.831-0.459 0.382-0.6 0.365-0.204 0.977 9e-3 0.013 0.016 0.027 0.024 0.041 0.139 0.241 0.29 0.3 0.545 0.2 0.342-0.133 0.68-0.275 1.022-0.409 0.185-0.073 0.369-0.173 0.561-0.201 0.149-0.021 0.357-1e-3 0.457 0.091 0.154 0.138 0.237 0.354 0.351 0.536 0.323 0.514 0.355 0.498 7e-3 0.962-0.23 0.306-0.453 0.617-0.687 0.921-0.449 0.58-0.287 0.537 0.066 0.888 0.267 0.268 0.415 0.281 0.593 0.179 0.06-0.036 0.125-0.084 0.199-0.14 0.387-0.295 0.774-0.589 1.17-0.87 0.026-0.017 0.05-0.033 0.075-0.048 0.205-0.118 0.38-0.093 0.586 0.058 0.167 0.122 0.332 0.247 0.493 0.377 0.325 0.263 0.39 0.468 0.264 0.768-0.206 0.498-0.409 0.997-0.609 1.498-0.061 0.15-0.047 0.275 0.121 0.358 0.15 0.074 0.291 0.162 0.436 0.248 0.109 0.066 0.201 0.08 0.288 0.031 0.039-0.024 0.079-0.06 0.117-0.112 0.324-0.424 0.659-0.84 0.997-1.252 0.074-0.09 0.144-0.156 0.217-0.197 0.146-0.084 0.303-0.074 0.521 0.016 0.191 0.078 0.384 0.158 0.572 0.244 0.295 0.134 0.417 0.346 0.381 0.661-0.043 0.39-0.091 0.78-0.134 1.171-0.082 0.736-0.194 0.635 0.57 0.853 0.125 0.036 0.219 0.034 0.293-9e-3 0.068-0.039 0.119-0.112 0.163-0.221 0.187-0.467 0.393-0.926 0.598-1.386 0.075-0.167 0.152-0.274 0.257-0.333 0.106-0.062 0.239-0.074 0.423-0.053 0.191 0.022 0.38 0.047 0.569 0.072 0.32 0.041 0.543 0.258 0.593 0.586 0.077 0.519 0.153 1.037 0.218 1.557 0.021 0.157 0.095 0.232 0.242 0.238 0.175 6e-3 0.35 8e-3 0.525 3e-3 0.087-1e-3 0.159-0.018 0.215-0.05 0.098-0.057 0.149-0.161 0.159-0.314 6e-3 -0.083 0.015-0.166 0.028-0.248 0.067-0.412 0.155-0.822 0.197-1.237 0.021-0.214 0.076-0.361 0.216-0.442 0.046-0.027 0.102-0.047 0.17-0.058 0.274-0.051 0.551-0.087 0.828-0.112 0.24-0.021 0.479 0.164 0.56 0.368 0.18 0.46 0.36 0.92 0.57 1.366 0.173 0.365 0.198 0.36 0.589 0.255 0.104-0.027 0.225-0.031 0.312-0.08 9e-3 -6e-3 0.018-0.011 0.027-0.017 0.1-0.076 0.228-0.215 0.221-0.319-0.033-0.519-0.103-1.037-0.165-1.553-0.044-0.352-0.014-0.494 0.205-0.62 0.052-0.03 0.115-0.06 0.191-0.089 0.118-0.049 0.234-0.106 0.355-0.142 0.181-0.052 0.374-0.144 0.545-0.116 0.143 0.023 0.281 0.179 0.39 0.305 0.275 0.319 0.541 0.648 0.799 0.983 0.304 0.396 0.333 0.416 0.742 0.181l0.036-0.02c0.048-0.028 0.094-0.061 0.141-0.091 0.273-0.172 0.275-0.223 0.147-0.532-0.192-0.469-0.374-0.943-0.541-1.42-0.115-0.329-0.042-0.516 0.23-0.717 0.134-0.099 0.271-0.196 0.405-0.297 0.066-0.049 0.126-0.089 0.181-0.122 0.241-0.138 0.393-0.097 0.691 0.121 0.404 0.299 0.809 0.598 1.214 0.896 0.092 0.069 0.19 0.139 0.294 0.079 0.016-9e-3 0.031-0.02 0.047-0.036 0.166-0.159 0.331-0.32 0.477-0.496 0.043-0.051 0.055-0.18 0.022-0.23-0.351-0.514-0.717-1.018-1.074-1.529-0.131-0.19-0.075-0.379 0.044-0.548 0.123-0.177 0.26-0.343 0.392-0.513 0.086-0.112 0.165-0.19 0.245-0.237 0.141-0.08 0.293-0.069 0.524 0.017 0.358 0.136 0.712 0.286 1.071 0.42 0.399 0.15 0.533 0.248 0.644 0.184 0.091-0.053 0.167-0.213 0.36-0.541 0.114-0.194 0.093-0.308-0.098-0.449-0.431-0.322-0.842-0.673-1.257-1.018-0.106-0.088-0.327-0.265-0.242-0.467 9e-3 -0.023 0.095-0.183 0.119-0.26 0.044-0.144 0.116-0.28 0.172-0.421 0.093-0.234 0.174-0.37 0.295-0.44 0.12-0.069 0.279-0.073 0.529-0.044 0.484 0.057 0.968 0.109 1.451 0.174 0.093 0.012 0.168 5e-3 0.225-0.027 0.059-0.035 0.1-0.099 0.121-0.2 0.031-0.148 0.057-0.303 0.122-0.438 0.103-0.213 0.022-0.301-0.17-0.382-0.486-0.202-0.965-0.418-1.446-0.632-0.323-0.144-0.404-0.291-0.358-0.634 0.027-0.205 0.063-0.41 0.077-0.616 0.019-0.269 0.06-0.406 0.201-0.486 0.077-0.044 0.185-0.072 0.336-0.096 0.52-0.081 1.038-0.164 1.561-0.232 0.056-7e-3 0.102-0.022 0.14-0.043 0.096-0.056 0.137-0.154 0.158-0.271 0.018-0.115-2e-3 -0.236-3e-3 -0.353 0-0.278-0.079-0.37-0.365-0.415-0.484-0.076-0.968-0.145-1.451-0.223-0.25-0.04-0.495-0.115-0.559-0.399-0.054-0.246-0.075-0.5-0.093-0.754-0.01-0.141-0.035-0.32 0.036-0.42 0.072-0.098 0.179-0.18 0.294-0.246 0.044-0.026 0.09-0.05 0.137-0.07 0.441-0.205 0.894-0.385 1.34-0.579 0.031-0.012 0.059-0.028 0.084-0.042 0.128-0.074 0.195-0.175 0.107-0.368-0.07-0.152-0.117-0.329-0.119-0.495-3e-3 -0.316-0.2-0.274-0.398-0.251-0.507 0.056-1.015 0.119-1.522 0.17-0.321 0.032-0.583-0.133-0.711-0.429-0.066-0.153-0.127-0.309-0.192-0.464-0.12-0.285-0.084-0.473 0.159-0.672 0.4-0.329 0.801-0.659 1.217-0.969 0.179-0.133 0.259-0.273 0.169-0.483-0.075-0.175-0.156-0.348-0.25-0.513-0.035-0.061-0.113-0.128-0.176-0.132-0.099-8e-3 -0.205 0.023-0.3 0.059l1e-3 -3e-3zm-19.218 0.152c0.289-0.317 0.635-0.588 0.984-0.842 0.271-0.198 0.553-0.384 0.845-0.551 0.095-0.054 0.191-0.108 0.29-0.158 1.893-0.985 3.901-1.379 6.03-1.134 1.47 0.168 2.843 0.625 4.107 1.387 0.442 0.266 0.887 0.554 1.252 0.914 0.31 0.303 0.566 0.698 0.731 1.099 0.147 0.358-1e-3 0.754-0.28 1.042-0.205 0.212-0.436 0.411-0.688 0.562-0.34 0.205-0.683 0.406-1.029 0.604-0.438 0.251-0.877 0.502-1.315 0.754-0.473 0.271-0.94 0.551-1.413 0.822-0.345 0.199-0.692 0.394-1.045 0.579-0.367 0.191-0.785 0.32-1.195 0.391-0.682 0.117-1.305-0.124-1.89-0.458-1.177-0.671-2.358-1.334-3.524-2.022-0.592-0.349-1.178-0.715-1.725-1.128-0.682-0.513-0.658-1.279-0.133-1.858l-2e-3 -3e-3zm5.538 12.308c5e-3 0.32-0.026 0.639-0.021 0.958 0.01 0.661 0.044 1.321 0.047 1.982 1e-3 0.543 0.018 1.096-0.251 1.592-0.108 0.2-0.278 0.366-0.419 0.547-0.486 0.204-0.952 0.167-1.401 0.026-0.76-0.239-1.504-0.555-2.127-1.047-0.741-0.584-1.441-1.23-2.099-1.908-0.652-0.671-1.165-1.461-1.606-2.288-0.511-0.957-0.801-1.986-0.968-3.051-0.044-0.273-0.089-0.548-0.088-0.823 4e-3 -0.629 4e-3 -1.262 0.064-1.889 0.04-0.393 0.139-0.795 0.295-1.158 0.14-0.327 0.336-0.552 0.567-0.686 0.364-0.209 0.818-0.188 1.279 0.028 0.648 0.304 1.266 0.673 1.888 1.028 1.005 0.574 2.003 1.159 3.001 1.745 0.237 0.139 0.487 0.272 0.687 0.456 0.217 0.196 0.39 0.442 0.57 0.676 0.429 0.559 0.559 1.201 0.544 1.897-0.012 0.637 0.03 1.277 0.038 1.915zm11.448-6.922c0.012 0.106 0.063 0.208 0.099 0.311 0.392 1.106 0.326 2.24 0.165 3.37-0.07 0.502-0.197 1-0.329 1.491-0.343 1.285-0.958 2.436-1.777 3.478-0.497 0.634-1.046 1.223-1.705 1.697-0.431 0.311-0.849 0.654-1.307 0.917-0.049 0.028-0.098 0.055-0.147 0.082-0.65 0.34-1.305 0.702-2.068 0.766-0.425 0.035-0.814-0.027-1.104-0.356-0.317-0.358-0.504-0.772-0.404-1.271 4e-3 -0.022 3e-3 -0.047-2e-3 -0.069-0.086-0.346 0.019-0.69 0.015-1.037-0.017-1.277 2e-3 -2.556 4e-3 -3.834 0-0.378-0.037-0.76-5e-3 -1.136 0.075-0.925 0.521-1.642 1.322-2.116 0.34-0.2 0.682-0.399 1.025-0.595 0.537-0.309 1.074-0.616 1.611-0.924 0.508-0.291 1.011-0.591 1.517-0.882 0.352-0.203 0.706-0.403 1.063-0.594 0.485-0.26 1.028-0.397 1.52-0.02 0.228 0.175 0.468 0.387 0.507 0.722z" style="fill-rule:nonzero;fill:url(#_Linear3)"/>
 <defs>
  <linearGradient id="_Linear1" x2="1" gradientTransform="matrix(2.56657e-15,-55.2908,41.9153,3.38559e-15,26.28,53.2111)" gradientUnits="userSpaceOnUse">
   <stop style="stop-color:#97a9b1" offset="0"/>
   <stop style="stop-color:#cfdce1" offset="1"/>
  </linearGradient>
  <linearGradient id="_Linear2" x2="1" gradientTransform="matrix(3.07484e-15,-50.2159,50.2159,3.07484e-15,26.9377,47.8218)" gradientUnits="userSpaceOnUse">
   <stop style="stop-color:#002032" offset="0"/>
   <stop style="stop-color:#0054b8" offset="1"/>
  </linearGradient>
  <linearGradient id="_Linear3" x2="1" gradientTransform="matrix(1.60109e-15,-34.4372,26.1478,2.10867e-15,25.4878,42.164)" gradientUnits="userSpaceOnUse">
   <stop style="stop-color:#97a9b1" offset="0"/>
   <stop style="stop-color:#cfdce1" offset="1"/>
  </linearGradient>
 </defs>
</svg>
