<svg style="clip-rule:evenodd;fill-rule:evenodd;stroke-linejoin:round;stroke-miterlimit:2" version="1.1" viewBox="0 0 48 48" xmlns="http://www.w3.org/2000/svg">
 <path d="m47.312 10.595c0-0.976-0.388-1.911-1.077-2.601-0.69-0.691-1.627-1.079-2.603-1.079h-39.264c-0.976 0-1.913 0.388-2.603 1.079-0.689 0.69-1.077 1.625-1.077 2.601v27.823c0 0.976 0.388 1.911 1.077 2.602 0.69 0.69 1.627 1.078 2.603 1.078h39.264c0.976 0 1.913-0.388 2.603-1.078 0.689-0.691 1.077-1.626 1.077-2.602v-27.823z" style="fill-opacity:.67"/>
 <path d="m47.312 9.381c0-1.921-1.557-3.479-3.479-3.479h-39.666c-1.922 0-3.479 1.558-3.479 3.479v28.225c0 1.921 1.557 3.479 3.479 3.479h39.666c1.922 0 3.479-1.558 3.479-3.479v-28.225z" style="fill:url(#_Linear1)"/>
 <path d="m41.25 15.895c0-1.587-1.288-2.875-2.875-2.875h-28.75c-1.587 0-2.875 1.288-2.875 2.875v4.724c0 1.586 1.288 2.875 2.875 2.875h28.75c1.587 0 2.875-1.289 2.875-2.875v-4.724z" style="fill:#0bf"/>
 <path d="m41.25 27.917c0-1.586-1.288-2.875-2.875-2.875h-28.75c-1.587 0-2.875 1.289-2.875 2.875v4.724c0 1.587 1.288 2.875 2.875 2.875h28.75c1.587 0 2.875-1.288 2.875-2.875v-4.724z" style="fill:#b3b3b3"/>
 <defs>
  <linearGradient id="_Linear1" x2="1" gradientTransform="matrix(2.21762e-15,-36.2165,36.2165,2.21762e-15,489.464,42.119)" gradientUnits="userSpaceOnUse">
   <stop style="stop-color:#566069" offset="0"/>
   <stop style="stop-color:#6c7884" offset="1"/>
  </linearGradient>
 </defs>
</svg>
