<svg style="clip-rule:evenodd;fill-rule:evenodd;stroke-linejoin:round;stroke-miterlimit:2" version="1.1" viewBox="0 0 48 48" xmlns="http://www.w3.org/2000/svg">
 <path d="m39.44 45.668h-30.88c-3.438 0-6.228-2.79-6.228-6.228v-30.88c0-3.438 2.79-6.228 6.228-6.228h30.88c3.438 0 6.228 2.79 6.228 6.228v30.88c0 3.438-2.79 6.228-6.228 6.228z" style="fill:url(#_Linear1)"/>
 <path d="m2.332 34.303c6.273 0 11.365 5.092 11.365 11.365h-5.137c-3.438 0-6.228-2.79-6.228-6.228v-5.137zm37.108 11.365h-5.137c0-6.273 5.092-11.365 11.365-11.365v5.137c0 3.438-2.79 6.228-6.228 6.228zm-25.743-43.336c0 6.273-5.092 11.365-11.365 11.365v-5.137c0-3.438 2.79-6.228 6.228-6.228h5.137zm31.971 11.365c-6.273 0-11.365-5.092-11.365-11.365h5.137c3.438 0 6.228 2.79 6.228 6.228v5.137z" style="fill:rgb(235,235,235)"/>
 <defs>
  <linearGradient id="_Linear1" x2="1" gradientTransform="matrix(2.06275e-15,-33.6872,33.6872,2.06275e-15,766.162,40.4502)" gradientUnits="userSpaceOnUse">
   <stop style="stop-color:rgb(0,103,131)" offset="0"/>
   <stop style="stop-color:rgb(32,204,255)" offset="1"/>
  </linearGradient>
 </defs>
</svg>
