<svg clip-rule="evenodd" fill-rule="evenodd" stroke-linejoin="round" stroke-miterlimit="2" viewBox="0 0 48 48" xmlns="http://www.w3.org/2000/svg">
 <linearGradient id="a" x2="1" gradientTransform="matrix(-.47414 -33.0943 33.0943 -.47414 1238.88 22.8149)" gradientUnits="userSpaceOnUse">
  <stop stop-color="#b6a20f" offset="0"/>
  <stop stop-color="#ff9f2d" offset="1"/>
 </linearGradient>
 <path d="m39.44 2.332c3.438 0 6.228 2.79 6.228 6.228v30.88c0 3.438-2.79 6.228-6.228 6.228h-30.88c-3.438 0-6.228-2.79-6.228-6.228v-30.88c0-3.438 2.79-6.228 6.228-6.228z" fill="url(#a)"/>
 <path d="m2.332 10.72v-2.16c0-3.438 2.79-6.228 6.228-6.228h30.88c3.438 0 6.228 2.79 6.228 6.228v2.16z" fill="#ebebeb" fill-opacity=".5"/>
 <path d="m24 28.21c.94 0 1.714-.768 1.714-1.716s-.772-1.704-1.714-1.704c-.94 0-1.714.768-1.714 1.704 0 .948.774 1.716 1.714 1.716m5.142-7.716c.941 0 1.715.78 1.715 1.716v8.58c0 .936-.774 1.704-1.715 1.704h-10.285c-.941 0-1.715-.768-1.715-1.704v-8.58c0-.948.772-1.716 1.715-1.716h.857v-1.704c0-2.352 1.934-4.296 4.286-4.296 2.351 0 4.286 1.944 4.286 4.296v1.704zm-5.142-4.284c-1.411 0-2.571 1.164-2.571 2.58v1.704h5.142v-1.704c0-1.416-1.161-2.58-2.571-2.58z" fill="#fff" fill-opacity=".85" fill-rule="nonzero"/>
</svg>
