<svg style="clip-rule:evenodd;fill-rule:evenodd;stroke-linejoin:round;stroke-miterlimit:2" version="1.1" viewBox="0 0 48 48" xmlns="http://www.w3.org/2000/svg">
 <circle cx="24" cy="24" r="22.764" style="fill:url(#_Linear1)"/>
 <path d="m29.796 28.108c-1.387 0-2.61 0.661-3.41 1.674l-7.415-3.795c0.097-0.363 0.167-0.737 0.167-1.131 0-0.429-0.083-0.833-0.198-1.226l7.382-3.778c0.795 1.059 2.05 1.751 3.476 1.751 2.414 0 4.367-1.955 4.367-4.37 0-2.412-1.953-4.368-4.367-4.368-2.409 0-4.365 1.956-4.365 4.368 0 0.396 0.07 0.771 0.168 1.135l-7.413 3.795c-0.8-1.014-2.026-1.678-3.415-1.678-2.413 0-4.365 1.957-4.365 4.371s1.952 4.37 4.365 4.37c1.427 0 2.681-0.695 3.48-1.755l7.379 3.779c-0.116 0.391-0.2 0.799-0.2 1.229 0 2.413 1.955 4.369 4.365 4.369 2.414 0 4.367-1.956 4.367-4.369 0-2.416-1.953-4.371-4.367-4.371h-1e-3z" style="fill-rule:nonzero;fill:#35383b"/>
 <defs>
  <linearGradient id="_Linear1" x2="1" gradientTransform="matrix(-1.54731,-43.325,43.325,-1.54731,28.6591,45.4616)" gradientUnits="userSpaceOnUse">
   <stop style="stop-color:#d3d3d3" offset="0"/>
   <stop style="stop-color:#fcf9f9" offset="1"/>
  </linearGradient>
 </defs>
</svg>
