<svg style="clip-rule:evenodd;fill-rule:evenodd;stroke-linejoin:round;stroke-miterlimit:2" version="1.1" viewBox="0 0 48 48" xmlns="http://www.w3.org/2000/svg">
 <path d="m39.44 45.668h-30.88c-3.438 0-6.228-2.79-6.228-6.228v-30.88c0-3.438 2.79-6.228 6.228-6.228h30.88c3.438 0 6.228 2.79 6.228 6.228v30.88c0 3.438-2.79 6.228-6.228 6.228z" style="fill:url(#_Linear1)"/>
 <path d="m35.414 19.222c-3.519 1.295-6.199 2.217-8.558 5.134-2.101 2.599-5.136 3.501-8.558 1.787v9.338h-1.712v-23.106c0-0.474 0.383-0.856 0.856-0.856s0.856 0.382 0.856 0.856c1.9 2.762 5.203 3.375 8.558 3.423 5.134 0.075 8.558 3.424 8.558 3.424z" style="fill-opacity:.84;fill-rule:nonzero;fill:#fff"/>
 <defs>
  <linearGradient id="_Linear1" x2="1" gradientTransform="matrix(2.06275e-15,-33.6872,33.6872,2.06275e-15,687.603,40.4502)" gradientUnits="userSpaceOnUse">
   <stop style="stop-color:#197cf1" offset="0"/>
   <stop style="stop-color:#20bcfa" offset="1"/>
  </linearGradient>
 </defs>
</svg>
