<svg style="clip-rule:evenodd;fill-rule:evenodd;stroke-linejoin:round;stroke-miterlimit:2" version="1.1" viewBox="0 0 48 48" xmlns="http://www.w3.org/2000/svg">
 <g transform="translate(-384.571 -499.798)">
  <path d="m424.082 509.612c-4.148-3.376-9.657-5.236-15.51-5.236-5.854 0-11.363 1.86-15.511 5.236-4.185 3.406-6.49 7.944-6.49 12.78 0 4.616 2.101 8.96 5.931 12.307-0.069 0.156-0.124 0.319-0.159 0.491l-1.258 6.189c-0.15 0.736 0.051 1.175 0.246 1.413 0.225 0.276 0.559 0.428 0.94 0.428 0.288 0 0.597-0.085 0.919-0.253l7.319-3.802c2.534 0.816 5.258 1.243 8.062 1.243 5.854 0 11.363-1.859 15.511-5.235 4.185-3.406 6.489-7.945 6.489-12.781s-2.304-9.374-6.489-12.78z" style="fill-rule:nonzero;fill:url(#_Linear1)"/>
 </g>
 <g transform="matrix(.145231 0 0 .145231 -4.29324 -12.1058)">
  <path d="m256.103 180.097c-0.516-1.66-2.049-2.791-3.787-2.791h-22.026c-1.743 0-3.281 1.139-3.791 2.805l-26.318 86.05c-0.369 1.202-0.145 2.508 0.604 3.521 0.748 1.009 1.93 1.604 3.188 1.604h13.664c1.779 0 3.342-1.188 3.819-2.901l5.9-21.229h26.923l6.389 21.307c0.502 1.678 2.047 2.825 3.797 2.825h14.523c1.262 0 2.444-0.599 3.19-1.61 0.748-1.015 0.969-2.323 0.594-3.526l-26.669-86.055zm-25.697 51.186 9.917-38.067h0.27l10.604 38.067h-20.791z" style="fill-opacity:.85;fill-rule:nonzero;fill:white"/>
 </g>
 <g transform="matrix(25.2743,0,0,25.2743,10.9578,31.8908)">
  <path d="m0.05 0c-0.022 0-0.039-0.017-0.039-0.039v-0.091l0.376-0.465h-0.302c-0.018 0-0.032-0.014-0.032-0.032v-0.057c0-0.018 0.014-0.032 0.032-0.032h0.453c0.011 0 0.021 4e-3 0.028 0.012 7e-3 7e-3 0.011 0.017 0.011 0.027v0.073l-0.392 0.483h0.375c9e-3 0 0.017 4e-3 0.023 0.01s9e-3 0.014 9e-3 0.022v0.057c0 9e-3 -3e-3 0.017-9e-3 0.023s-0.014 9e-3 -0.023 9e-3h-0.51zm0.082-0.904h0.111l0.053 0.073 0.057-0.073h0.11l-0.101 0.144h-0.127l-0.103-0.144z" style="fill-rule:nonzero;fill:rgb(221,242,254)"/>
 </g>
 <defs>
  <linearGradient id="_Linear1" x2="1" gradientTransform="matrix(-.0392603 -37.228 37.228 -.0392603 19185.8 521.966)" gradientUnits="userSpaceOnUse">
   <stop style="stop-color:rgb(1,107,136)" offset="0"/>
   <stop style="stop-color:rgb(28,193,241)" offset="1"/>
  </linearGradient>
 </defs>
</svg>
