<svg style="clip-rule:evenodd;fill-rule:evenodd;stroke-linejoin:round;stroke-miterlimit:2" version="1.1" viewBox="0 0 48 48" xmlns="http://www.w3.org/2000/svg">
 <path d="m47.312 10.595c0-0.976-0.388-1.911-1.077-2.601-0.69-0.691-1.627-1.079-2.603-1.079h-39.264c-0.976 0-1.913 0.388-2.603 1.079-0.689 0.69-1.077 1.625-1.077 2.601v27.823c0 0.976 0.388 1.911 1.077 2.602 0.69 0.69 1.627 1.078 2.603 1.078h39.264c0.976 0 1.913-0.388 2.603-1.078 0.689-0.691 1.077-1.626 1.077-2.602v-27.823z" style="fill-opacity:.67"/>
 <path d="m47.312 9.381c0-1.921-1.557-3.479-3.479-3.479h-39.666c-1.922 0-3.479 1.558-3.479 3.479v28.225c0 1.921 1.557 3.479 3.479 3.479h39.666c1.922 0 3.479-1.558 3.479-3.479v-28.225z" style="fill:url(#_Linear1)"/>
 <path d="m35.017 9.65c-0.179 0.035-0.331 0.154-0.407 0.319l-1.699 3.399c-0.035 0.075-0.054 0.157-0.054 0.24 0 0.244 0.158 0.462 0.39 0.538l1.416 0.478c0.056 0.021 0.116 0.033 0.177 0.036h0.566c0.06-3e-3 0.12-0.015 0.177-0.036l1.415-0.478c0.232-0.076 0.39-0.294 0.39-0.538 0-0.083-0.018-0.165-0.054-0.24l-1.698-3.399c-0.103-0.214-0.33-0.342-0.566-0.319h-0.053zm-3.663 5.381c-0.056 0.01-0.109 0.028-0.159 0.053l-3.398 1.7c-0.199 0.093-0.326 0.293-0.326 0.513s0.127 0.42 0.326 0.513l3.398 1.7c0.075 0.035 0.157 0.053 0.24 0.053 0.244 0 0.462-0.158 0.538-0.39l0.478-1.416c0.021-0.057 0.033-0.116 0.035-0.177v-0.566c-2e-3 -0.061-0.014-0.12-0.035-0.177l-0.478-1.416c-0.083-0.263-0.347-0.428-0.619-0.39zm7.378 0c-0.215 0.031-0.394 0.183-0.46 0.39l-0.477 1.416c-0.022 0.057-0.034 0.116-0.036 0.177v0.566c2e-3 0.061 0.014 0.121 0.036 0.177l0.477 1.416c0.076 0.232 0.294 0.39 0.538 0.39 0.083 0 0.166-0.018 0.241-0.053l3.397-1.7c0.199-0.093 0.327-0.293 0.327-0.513s-0.128-0.42-0.327-0.513l-3.397-1.7c-0.099-0.048-0.21-0.066-0.319-0.053zm-3.627 0.266c-1.088 0-1.982 0.894-1.982 1.982 0 1.089 0.894 1.983 1.982 1.983s1.982-0.894 1.982-1.983c0-1.088-0.894-1.982-1.982-1.982zm-0.318 4.637c-0.043 7e-3 -0.085 0.019-0.124 0.036l-1.416 0.478c-0.232 0.076-0.39 0.294-0.39 0.538 0 0.083 0.019 0.165 0.054 0.241l1.699 3.398c0.092 0.199 0.293 0.327 0.513 0.327 0.219 0 0.42-0.128 0.513-0.327l1.698-3.398c0.036-0.076 0.054-0.158 0.054-0.241 0-0.244-0.158-0.462-0.39-0.538l-1.415-0.478c-0.057-0.021-0.117-0.033-0.177-0.036h-0.566-0.053z" style="fill-rule:nonzero;fill:#fff"/>
 <path d="m35.123 10.217l-1.699 3.398 1.416 0.478h0.566l1.415-0.478-1.698-3.398zm-3.681 5.381l-3.397 1.699 3.397 1.699 0.478-1.416v-0.566l-0.478-1.416zm7.361 0l-0.478 1.416v0.566l0.478 1.416 3.397-1.699-3.397-1.699zm-3.963 4.903l-1.416 0.478 1.699 3.398 1.698-3.398-1.415-0.478h-0.566z" style="fill-rule:nonzero;fill:#1a1a1a"/>
 <circle cx="35.105" cy="17.272" r="1.416" style="fill:#f67400"/>
 <path d="m5.225 20.765v17.774c0 0.866 0.696 1.562 1.562 1.562h24.769v-17.774c0-0.866-0.699-1.562-1.564-1.562h-24.767z" style="fill-opacity:.85;fill-rule:nonzero;fill:#fff"/>
 <path d="m5.225 20.766v3.691h26.33v-2.131c0-0.107-0.011-0.213-0.031-0.314v-2e-3c-0.042-0.203-0.123-0.391-0.235-0.557 0 0 1e-3 -1e-3 0-2e-3 -0.112-0.166-0.255-0.308-0.421-0.42-0.147-0.099-0.314-0.168-0.491-0.213-0.023-6e-3 -0.044-0.016-0.068-0.021h-2e-3c-0.102-0.021-0.206-0.031-0.314-0.031h-24.768z" style="fill-opacity:.85;fill-rule:nonzero;fill:#0b0b0b"/>
 <defs>
  <linearGradient id="_Linear1" x2="1" gradientTransform="matrix(2.21762e-15,-36.2165,36.2165,2.21762e-15,275.714,42.119)" gradientUnits="userSpaceOnUse">
   <stop style="stop-color:#566069" offset="0"/>
   <stop style="stop-color:#6c7884" offset="1"/>
  </linearGradient>
 </defs>
</svg>
