<svg style="clip-rule:evenodd;fill-rule:evenodd;stroke-linejoin:round;stroke-miterlimit:2" version="1.1" viewBox="0 0 48 48" xmlns="http://www.w3.org/2000/svg">
 <circle cx="24" cy="24" r="22.764" style="fill:url(#_Linear1)"/>
 <path d="m13.476 19.798c0.589 0 1.14 0.108 1.654 0.328 0.514 0.218 0.963 0.516 1.352 0.893 0.388 0.376 0.693 0.818 0.915 1.325 0.226 0.509 0.337 1.059 0.337 1.648s-0.111 1.14-0.337 1.654c-0.222 0.514-0.527 0.959-0.915 1.335-0.389 0.379-0.843 0.675-1.361 0.895-0.519 0.218-1.073 0.326-1.662 0.326-0.592 0-1.143-0.108-1.657-0.326-0.511-0.22-0.963-0.516-1.351-0.895-0.386-0.376-0.69-0.821-0.91-1.335-0.218-0.514-0.326-1.065-0.326-1.654s0.108-1.139 0.326-1.648c0.22-0.507 0.524-0.949 0.91-1.325 0.388-0.377 0.842-0.675 1.36-0.893 0.519-0.22 1.072-0.328 1.665-0.328zm-1e-3 2.71c0.823 0 1.492 0.668 1.492 1.492s-0.669 1.492-1.492 1.492c-0.824 0-1.493-0.668-1.493-1.492s0.669-1.492 1.493-1.492z" style="fill:#36393c"/>
 <path d="m23.952 21.757l1.536-1.535c0.566-0.566 1.485-0.566 2.051 0s0.566 1.486 0 2.052l-1.535 1.535 1.535 1.536c0.566 0.566 0.566 1.485 0 2.051s-1.485 0.566-2.051 0l-1.536-1.535-1.535 1.535c-0.566 0.566-1.486 0.566-2.052 0s-0.566-1.485 0-2.051l1.535-1.536-1.535-1.535c-0.566-0.566-0.566-1.486 0-2.052s1.485-0.566 2.052 0l1.535 1.535z" style="fill:#36393c"/>
 <path d="m32.633 27.649h-0.294c-0.277 0-0.5-0.226-0.5-0.502v-0.843c-1.187-0.301-1.528-1.006-1.528-2.456 0-2.141 1.737-3.878 3.877-3.878 2.139 0 3.876 1.737 3.876 3.878 0 1.429-0.361 2.132-1.526 2.442v0.855c0 0.276-0.225 0.501-0.502 0.501h-0.291c-0.277 0-0.502-0.225-0.502-0.501v-0.673c-0.13 0.01-0.265 0.015-0.407 0.019v0.656c0 0.274-0.225 0.499-0.501 0.499h-0.292c-0.277 0-0.502-0.225-0.502-0.499v-0.654c-0.142-4e-3 -0.279-9e-3 -0.409-0.016v0.67c0 0.276-0.225 0.502-0.499 0.502zm-0.052-5.378c0.632 0.209 1.189 0.516 1.189 1.154s-0.505 0.802-1.189 1.154c-0.586 0.3-1.191-0.516-1.191-1.154s0.565-1.36 1.191-1.154zm3.197 0c0.624-0.209 1.191 0.516 1.191 1.154s-0.593 1.429-1.191 1.154c-0.736-0.339-1.19-0.516-1.19-1.154s0.493-0.919 1.19-1.154z" style="fill:#36393c"/>
 <defs>
  <linearGradient id="_Linear1" x2="1" gradientTransform="matrix(-1.54728,-43.3241,43.3241,-1.54728,216.598,38.749)" gradientUnits="userSpaceOnUse">
   <stop style="stop-color:#aeaeae" offset="0"/>
   <stop style="stop-color:#fcf9f9" offset="1"/>
  </linearGradient>
 </defs>
</svg>
