<svg style="clip-rule:evenodd;fill-rule:evenodd;stroke-linejoin:round;stroke-miterlimit:2" version="1.1" viewBox="0 0 64 64" xmlns="http://www.w3.org/2000/svg">
 <path d="m61.393 28.715c-0.093-0.831-1.063-1.455-1.901-1.455-2.71 0-5.115-1.592-6.125-4.055-1.031-2.521-0.366-5.461 1.655-7.313 0.636-0.582 0.712-1.555 0.179-2.231-1.388-1.762-2.965-3.354-4.686-4.733-0.675-0.54-1.664-0.466-2.248 0.181-1.764 1.954-4.931 2.679-7.376 1.658-2.548-1.072-4.154-3.653-3.997-6.422 0.051-0.871-0.585-1.627-1.452-1.727-2.209-0.257-4.438-0.264-6.653-0.018-0.858 0.094-1.494 0.834-1.466 1.691 0.098 2.744-1.529 5.28-4.049 6.312-2.418 0.989-5.562 0.268-7.322-1.668-0.583-0.636-1.555-0.715-2.234-0.186-1.773 1.39-3.385 2.983-4.784 4.73-0.545 0.679-0.466 1.664 0.176 2.248 2.059 1.866 2.725 4.831 1.654 7.38-1.02 2.431-3.546 3.999-6.435 3.999-0.939-0.029-1.607 0.599-1.71 1.451-0.259 2.224-0.263 4.487-0.011 6.728 0.092 0.835 1.09 1.455 1.939 1.455 2.575-0.067 5.049 1.529 6.086 4.054 1.033 2.52 0.37 5.459-1.655 7.313-0.632 0.581-0.713 1.553-0.179 2.23 1.374 1.751 2.951 3.342 4.679 4.733 0.679 0.547 1.664 0.469 2.252-0.178 1.769-1.958 4.936-2.682 7.374-1.658 2.553 1.066 4.158 3.647 4.001 6.418-0.05 0.871 0.588 1.629 1.453 1.729 1.129 0.131 2.266 0.198 3.407 0.198 1.082 0 2.165-0.059 3.246-0.18 0.858-0.094 1.494-0.833 1.465-1.695-0.098-2.74 1.528-5.276 4.046-6.308 2.435-0.992 5.567-0.266 7.327 1.668 0.584 0.636 1.551 0.714 2.231 0.187 1.771-1.389 3.38-2.979 4.786-4.731 0.546-0.679 0.468-1.664-0.177-2.248-2.058-1.865-2.727-4.831-1.657-7.38 1.006-2.398 3.437-4.01 6.051-4.01l0.366 9e-3c0.849 0.071 1.629-0.584 1.731-1.449 0.257-2.193 0.264-4.423 0.013-6.727z" style="fill:url(#_Linear1)"/>
 <path d="m18.394 53.165v-22.075c0-7.514 6.092-13.606 13.606-13.606s13.606 6.092 13.606 13.606-6.092 13.606-13.606 13.606c-2.482 0-4.8-0.677-6.803-1.838v11.781c-0.588-0.59-1.294-1.072-2.093-1.405-1.461-0.614-3.183-0.6-4.71-0.069zm13.606-15.272c3.732 0 6.803-3.071 6.803-6.803s-3.071-6.803-6.803-6.803-6.803 3.071-6.803 6.803 3.071 6.803 6.803 6.803z" style="fill-rule:nonzero;fill:#fff"/>
 <defs>
  <linearGradient id="_Linear1" x2="1" gradientTransform="matrix(.0349561 -59.1584 59.1584 .0349561 31.965 61.5788)" gradientUnits="userSpaceOnUse">
   <stop style="stop-color:#18a7d9" offset="0"/>
   <stop style="stop-color:#00d3df" offset="1"/>
  </linearGradient>
 </defs>
</svg>
