<svg clip-rule="evenodd" fill-rule="evenodd" stroke-linejoin="round" stroke-miterlimit="2" viewBox="0 0 48 48" xmlns="http://www.w3.org/2000/svg">
 <linearGradient id="a" x2="1" gradientTransform="matrix(0 -40 40 0 24.0003 44)" gradientUnits="userSpaceOnUse">
  <stop stop-color="#3a3795" offset="0"/>
  <stop stop-color="#7774d7" offset="1"/>
 </linearGradient>
 <path transform="matrix(1.1382 0 0 1.1382 -3.3168 -3.3168)" d="m44 24c0 10.972-9.028 20-20 20s-20-9.028-20-20 9.028-20 20-20 20 9.028 20 20z" fill="url(#a)" fill-rule="nonzero"/>
 <path transform="matrix(1.1382 0 0 1.1382 -3.3168 -3.3168)" d="m24 12c-.564 0-1.13.026-1.49.078-4.34.631-6.904 2.766-7.418 6.176-.057.377-.073 1.045-.082 3.607l-.01 3.045.125.201c.311.502.742.855 2.785 2.286 3.416 2.391 4.819 3.263 5.684 3.529.136.042.324.077.418.078.574.008 2.252-.942 4.793-2.713 3.168-2.209 3.756-2.667 4.064-3.168l.131-.213v-2.512c0-3.274-.022-3.854-.174-4.556-.27-1.252-.763-2.241-1.548-3.102-1.261-1.382-3.232-2.286-5.789-2.658-.36-.052-.924-.078-1.489-.078zm0 4c2.269 0 4.241 1.65 4.885 3.672.113.356.115.37.115 1.818 0 .803-.013 1.474-.029 1.49-.016.017-2.243.024-4.971.018-2.727.006-4.954-.001-4.97-.018-.017-.016-.03-.687-.03-1.49 0-1.448.002-1.462.115-1.818.645-2.022 2.617-3.672 4.885-3.672zm-8.998 11s-.007.88.004 4.162l.016 4.031.135.254c.103.194.188.282.357.381l.221.131 3.586.021c1.972.012 5.664.021 8.205.02l4.619-.002.222-.096c.287-.123.371-.197.504-.447l.108-.203.006-3.676.015-4.576h-.058l-.073.119c-.308.501-.896.959-4.064 3.168-2.541 1.771-4.219 2.721-4.793 2.713-.094-.001-.282-.036-.418-.078-.865-.266-2.267-1.138-5.684-3.529-2.043-1.431-2.474-1.784-2.785-2.286l-.066-.107z" fill="#ffffff" fill-rule="nonzero"/>
 <circle cx="35.00004" cy="35.00004" r="11.000002" fill="#4f4f4f" stroke-width=".0632184"/>
 <path d="m38.252 39h2.748l-4 4-4-4h2.748v-7h2.504zm-6.496-9h-2.756l4-4 4 4h-2.756v7h-2.488z" fill="#ffffff"/>
</svg>
