<svg style="clip-rule:evenodd;fill-rule:evenodd;stroke-linejoin:round;stroke-miterlimit:2" version="1.1" viewBox="0 0 48 48" xmlns="http://www.w3.org/2000/svg">
 <circle cx="24" cy="24" r="22.289" style="fill:url(#_Linear1)"/>
 <circle cx="24" cy="24" r="22.764" style="fill:url(#_Linear2)"/>
 <g transform="matrix(1.04526 0 0 1.04526 -1.19578 -.969277)">
  <path d="m20.174 40.778 0.452-0.136c0.189-0.057 0.09-0.936-0.222-1.97l-6.943-23.052c0.728-0.482 1.058-1.391 0.807-2.229-0.287-0.961-1.259-1.564-2.249-1.393-0.08 0.015-0.158 0.033-0.235 0.056-0.96 0.289-1.56 1.261-1.39 2.25 0.014 0.078 0.032 0.157 0.055 0.235 0.25 0.827 1.008 1.404 1.872 1.42l6.946 23.056c0.313 1.034 0.717 1.82 0.907 1.763zm8.531-2.482 0.456-0.137c0.19-0.058 0.088-0.937-0.224-1.975l-0.257-0.859c0.729-0.487 1.057-1.4 0.804-2.239s-1.031-1.42-1.907-1.423l-6.137-20.375c-0.312-1.036-0.716-1.826-0.906-1.769l-0.456 0.138c-0.19 0.058-0.088 0.938 0.224 1.975l6.138 20.383c-0.715 0.49-1.034 1.393-0.785 2.224 0.252 0.829 1.016 1.407 1.883 1.42l0.263 0.869c0.312 1.038 0.715 1.825 0.904 1.768zm8.587-2.52 0.456-0.136c0.189-0.056 0.091-0.939-0.221-1.976l-4.894-16.249c0.726-0.487 1.052-1.398 0.799-2.236-0.253-0.837-1.027-1.416-1.903-1.421l-1.502-4.988c-0.312-1.037-0.718-1.829-0.906-1.772l-0.454 0.141c-0.19 0.057-0.091 0.939 0.22 1.975l1.506 4.995c-0.72 0.489-1.038 1.394-0.79 2.226 0.253 0.833 1.018 1.41 1.887 1.421l4.897 16.253c0.312 1.037 0.715 1.824 0.905 1.767z" style="fill-rule:nonzero;fill:url(#_Linear3)"/>
 </g>
 <defs>
  <linearGradient id="_Linear1" x2="1" gradientTransform="matrix(-.0743104 -41.714 41.714 -.0743104 299.909 44.3656)" gradientUnits="userSpaceOnUse">
   <stop style="stop-color:rgb(1,113,205)" offset="0"/>
   <stop style="stop-color:rgb(1,229,247)" offset="1"/>
  </linearGradient>
  <linearGradient id="_Linear2" x2="1" gradientTransform="matrix(2.16708e-15,-35.3911,35.3911,2.16708e-15,968.766,41.2823)" gradientUnits="userSpaceOnUse">
   <stop style="stop-color:rgb(0,103,131)" offset="0"/>
   <stop style="stop-color:rgb(19,190,227)" offset="1"/>
  </linearGradient>
  <linearGradient id="_Linear3" x2="1" gradientTransform="matrix(5.1702,31.2647,-31.2647,5.1702,-705.656,128.678)" gradientUnits="userSpaceOnUse">
   <stop style="stop-color:rgb(244,244,244)" offset="0"/>
   <stop style="stop-color:white" offset="1"/>
  </linearGradient>
 </defs>
</svg>
