<svg style="clip-rule:evenodd;fill-rule:evenodd" version="1.1" viewBox="0 0 48 48" xmlns="http://www.w3.org/2000/svg">
 <rect x="26" y="4" width="4" height="38" style="fill:rgb(83,231,242)"/>
 <rect x="22" y="4" width="4" height="38" style="fill:rgb(231,255,127)"/>
 <rect x="34" y="4" width="4" height="38" style="fill:rgb(227,51,160)"/>
 <rect x="30" y="4" width="4" height="38" style="fill:rgb(162,130,241)"/>
 <rect x="10" y="4" width="4" height="38" style="fill:rgb(139,90,58)"/>
 <rect x="6" y="4" width="4" height="38" style="fill:rgb(79,79,79)"/>
 <rect x="18" y="4" width="4" height="38" style="fill:rgb(255,194,153)"/>
 <rect x="14" y="4" width="4" height="38" style="fill:rgb(255,87,54)"/>
 <rect x="38" y="4" width="4" height="38" style="fill:rgb(51,51,87)"/>
 <path d="m46 31c0-1.656-1.344-3-3-3h-38c-1.656 0-3 1.344-3 3v10c0 1.656 1.344 3 3 3h38c1.656 0 3-1.344 3-3v-10z" style="fill:rgb(158,156,137)"/>
 <path d="m9 41h4v-10h12v10h5v-10h5v10h4" style="fill:none;stroke-width:2px;stroke:rgb(214,213,205)"/>
</svg>
