<svg style="clip-rule:evenodd;fill-rule:evenodd;stroke-linejoin:round;stroke-miterlimit:2" version="1.1" viewBox="0 0 48 48" xmlns="http://www.w3.org/2000/svg">
 <path d="m39.44 2.332c3.438 0 6.228 2.79 6.228 6.228v30.88c0 3.438-2.79 6.228-6.228 6.228h-30.88c-3.438 0-6.228-2.79-6.228-6.228v-30.88c0-3.438 2.79-6.228 6.228-6.228h30.88z" style="fill:url(#_Linear1)"/>
 <path d="m13 12v10h2v-3s0-1 1-1h5c1.2 0 2-1 2-2v-2c0-1-0.8-2-2-2h-8zm11 0v8c0 1.2 1 2 2 2h6c1 0 2-0.8 2-2v-8h-2v7c0 1-1 1-1 1h-4s-1 0-1-1v-7h-2zm-8 2h4s1 0 1 1-1 1-1 1h-4s-1 0-1-1 1-1 1-1zm-8 12v10h2v-8h5c1 0 1 1 1 1v7h2v-8c0-1-0.8-2-2-2h-8zm11 0v8c0 1 0.8 2 2 2h8v-2h-7s-1 0-1-1 1-1 1-1h7v-2h-7s-1 0-1-1 1-1 1-1h7v-2h-10zm13 0c-1.2 0-2 1-2 2v2c0 1 0.8 2 2 2h5s1 0 1 1-1 1-1 1h-7v2h8c1.2 0 2-1 2-2v-2c0-1-0.8-2-2-2h-5s-1 0-1-1 1-1 1-1h7v-2h-8z" style="fill-rule:nonzero;fill:rgb(0,127,14)"/>
 <defs>
  <linearGradient id="_Linear1" x2="1" gradientTransform="matrix(2.64685e-15,-43.2263,43.2263,2.64685e-15,24,45.5583)" gradientUnits="userSpaceOnUse">
   <stop style="stop-color:rgb(191,191,191)" offset="0"/>
   <stop style="stop-color:rgb(228,228,228)" offset="1"/>
  </linearGradient>
 </defs>
</svg>
