<svg style="clip-rule:evenodd;fill-rule:evenodd;stroke-linejoin:round;stroke-miterlimit:2" version="1.1" viewBox="0 0 48 48" xmlns="http://www.w3.org/2000/svg">
 <path d="m46.573 9.09c0-0.544-0.216-1.066-0.601-1.451-0.385-0.386-0.907-0.603-1.451-0.603-7.519-5e-3 -33.5-0.024-41.019-0.029-0.544 0-1.066 0.216-1.451 0.601-0.386 0.384-0.603 0.906-0.603 1.452-4e-3 6.055-0.017 23.794-0.021 29.85 0 0.544 0.216 1.066 0.601 1.451 0.385 0.386 0.907 0.603 1.451 0.603 7.519 5e-3 33.5 0.024 41.019 0.029 0.544 0 1.066-0.216 1.451-0.601 0.386-0.384 0.603-0.906 0.603-1.452 4e-3 -6.055 0.017-23.794 0.021-29.85z" style="fill:url(#_Linear1)"/>
 <path d="m24 7.022v33.956l-20.521-0.014c-0.544 0-1.066-0.217-1.451-0.603-0.385-0.385-0.601-0.907-0.601-1.451 4e-3 -6.056 0.017-23.795 0.021-29.85 0-0.546 0.217-1.068 0.603-1.452 0.385-0.385 0.907-0.601 1.451-0.601l20.498 0.015z" style="fill:url(#_Linear2)"/>
 <path d="m12.942 31.071c0.158-0.121 0.198-0.294 0.161-0.7l-0.049-0.54-4.479 0.086-4.478 0.087-0.027 0.594c-0.017 0.394 0.028 0.628 0.135 0.692 0.088 0.054 2.043 0.062 4.343 0.019 3.222-0.06 4.233-0.116 4.394-0.238zm6.817-8.319c0.748-0.306 1.721-1.008 1.909-1.377 0.107-0.21 0.048-0.327-0.395-0.79-0.788-0.823-0.863-0.839-1.569-0.333-0.334 0.239-0.807 0.494-1.05 0.568-1.944 0.58-3.666-0.735-3.707-2.832-0.049-2.589 2.555-3.966 4.627-2.447 0.22 0.161 0.481 0.291 0.579 0.289 0.201-4e-3 1.381-1.339 1.379-1.56-3e-3 -0.389-1.498-1.229-2.544-1.43-3.876-0.745-7.048 2.216-6.435 6.008 0.33 2.044 1.844 3.665 3.881 4.156 0.865 0.208 2.505 0.083 3.325-0.252zm-13.762 0.344c0.161-0.126 0.199-0.411 0.206-1.487l7e-3 -1.333 1.331-0.093c1.607-0.112 2.389-0.371 3.108-1.029 0.794-0.727 1.077-1.431 1.056-2.617-0.024-1.184-0.334-1.877-1.153-2.571-0.88-0.745-1.372-0.853-3.96-0.871-1.246-9e-3 -2.404 0.021-2.572 0.067l-0.307 0.082 0.095 4.952c0.075 3.847 0.13 4.963 0.249 5.008 0.32 0.123 1.746 0.043 1.94-0.108zm0.161-5.097c-0.035-0.088-0.06-0.727-0.054-1.423l0.01-1.263 1.028-0.052c1.553-0.08 2.181 0.32 2.205 1.404 0.013 0.57-0.438 1.147-1.04 1.326-0.658 0.197-2.071 0.202-2.149 8e-3z" style="fill-rule:nonzero;fill:#fff"/>
 <defs>
  <linearGradient id="_Linear1" x2="1" gradientTransform="matrix(-.47414 -33.0943 33.0943 -.47414 811.671 28.9356)" gradientUnits="userSpaceOnUse">
   <stop style="stop-color:#f5dc1f" offset="0"/>
   <stop style="stop-color:#ff9f2d" offset="1"/>
  </linearGradient>
  <linearGradient id="_Linear2" x2="1" gradientTransform="matrix(-.363346 -25.361 25.361 -.363346 624.487 28.7043)" gradientUnits="userSpaceOnUse">
   <stop style="stop-color:#147966;stop-opacity:.33" offset="0"/>
   <stop style="stop-color:#2dcbc6;stop-opacity:.33" offset="1"/>
  </linearGradient>
 </defs>
</svg>
