
<svg style="clip-rule:evenodd;fill-rule:evenodd;stroke-linecap:round" version="1.1" viewBox="0 0 64 64" xmlns="http://www.w3.org/2000/svg">
 <path d="m42.4 6c8.61 0 15.6 6.99 15.6 15.6v20.8c0 8.61-6.99 15.6-15.6 15.6h-20.8c-8.61 0-15.6-6.99-15.6-15.6v-20.8c0-8.61 6.99-15.6 15.6-15.6h20.8z" style="fill:url(#_Linear1)"/>
 <circle cx="15.7" cy="48.3" r="6.3" style="fill:#d3b735"/>
 <circle cx="44" cy="28" r="6" style="fill:#ceb12c"/>
 <path d="m20.267 44.872l7.322-5.412" style="fill:none;stroke-width:4.2px;stroke:#7c7c7c"/>
 <path d="m35.395 33.869l6.088-4.059" style="fill:none;stroke-width:4.2px;stroke:#7c7c7c"/>
 <circle cx="32" cy="36" r="8" style="fill:#b3e5fc"/>
 <path d="m23 15l5.414 13.536" style="fill:none;stroke-width:4.2px;stroke:#7c7c7c"/>
 <path d="m20.801 4c-9.307 0-16.801 7.494-16.801 16.801v22.398c0 9.307 7.494 16.801 16.801 16.801h22.398c9.307 0 16.801-7.494 16.801-16.801v-22.398c0-9.307-7.494-16.801-16.801-16.801h-22.398zm0 8h22.398c5.013 0 8.801 3.788 8.801 8.801v22.398c0 5.013-3.788 8.801-8.801 8.801h-22.398c-5.013 0-8.801-3.788-8.801-8.801v-22.398c0-5.013 3.788-8.801 8.801-8.801z" style="fill-rule:nonzero;fill:url(#_Linear2)"/>
 <circle cx="23" cy="15" r="7" style="fill:#ffc500"/>
 <circle cx="47.001" cy="49" r="7" style="fill:#ffd517"/>
 <path d="m37.053 40.861l4.917 4.023" style="fill:none;stroke-width:4.2px;stroke:#7c7c7c"/>
 <defs>
  <linearGradient id="_Linear1" x2="1" gradientTransform="matrix(0,-52,-52,0,32,58)" gradientUnits="userSpaceOnUse">
   <stop style="stop-color:#161616" offset="0"/>
   <stop style="stop-color:#3f3f3f" offset="1"/>
  </linearGradient>
  <linearGradient id="_Linear2" x2="1" gradientTransform="matrix(3.42901e-15,-56,56,3.42901e-15,32,60)" gradientUnits="userSpaceOnUse">
   <stop style="stop-color:#07345d" offset="0"/>
   <stop style="stop-color:#4c6378" offset="1"/>
  </linearGradient>
 </defs>
</svg>
