
<svg style="clip-rule:evenodd;fill-rule:evenodd" version="1.1" viewBox="0 0 512 512" xmlns="http://www.w3.org/2000/svg">
 <circle cx="256" cy="256" r="240.887" style="fill:url(#_Linear1)"/>
 <path d="m115.189 402.913c-4.303 18.823 55.573 41.232 78.878 51.988 18.823 6.274 57.365 17.03 72.603 10.756 22.409-15.238-16.134-28.683-31.372-38.542-20.616-9.86-21.512-31.372-16.134-53.781 6.275-22.408 16.134-45.713 28.683-53.78 7.171-4.482 17.927-11.653 17.927-11.653l-66.329-28.682c-8.964-3.586 5.378 20.615 8.067 26.89 1.792 7.17 1.792 8.067 1.792 12.548 2.689 5.379 2.689 11.653 2.689 17.927-21.512 111.146-77.085 38.543-96.804 66.329z" style="fill-rule:nonzero;stroke-width:1.29px;stroke:#000"/>
 <path d="m213.786 142.975l-11.652 47.506-5.378 23.305-2.689 15.238 1.792 31.371 5.378 21.513 12.549 23.304 25.098 6.275 25.097-6.275 29.579-26.89 22.409-40.335 25.994-68.122 2.689-14.341-18.823-6.275-24.202 8.964-28.683 10.756-25.097-2.689-14.341-12.549-19.72-10.756z" style="fill-rule:nonzero;fill:#80c342;stroke-width:1.29px;stroke:#000"/>
 <path d="m344.652 159.109s-8.067-7.171-13.445-8.963c-3.586-0.897-6.275-0.897-9.86 0-7.171 1.792-14.342 6.274-21.512 8.963-8.067 3.585-15.238 8.067-23.305 9.86-7.171 1.792-14.342 1.792-21.512 0-5.378-0.897-10.756-3.586-15.238-6.275-9.86-6.274-26.89-24.201-26.89-24.201" style="fill:none;stroke-linejoin:round;stroke-width:12.91px;stroke:#000"/>
 <path d="m229.024 80.769c-10.756 46.968-30.476 103.438-34.957 147.358 0 18.823 0 52.884 15.237 67.226 51.092 45.713 94.116-29.58 112.939-77.086 11.653-34.06 22.409-65.432 33.165-96.804 1.792-6.275 5.378-10.577 5.378-17.031-13.445-30.117-75.293-45.623-102.183-44.279-23.305 1.255-21.512 1.255-29.579 20.616z" style="fill:none;stroke-linecap:round;stroke-linejoin:round;stroke-width:11.62px;stroke:#000"/>
 <path d="m229.11 270.866c-0.769-1.538-1.538-3.845-2.307-4.614 0-1.538-1.538-2.307-3.076-3.076-7.153-1.538-13.613-10.767-16.381-22.995-2-8.537-1.923-34.3 0.076-41.914 3.154-11.689 9.075-19.226 17.074-21.556 4.614-1.5 7.69-1.408 3.845 0.107-7.691 2.53-12.767 9.529-15.997 20.68-1.615 5.537-1.768 7.614-1.692 22.303 0.077 13.92 0.308 16.919 1.692 21.995 3.154 11.382 7.537 18.304 15.228 21.38 3.845 1.538 4.614 2.307 5.383 5.383 1.538 6.153 6.153 10.767 10.767 13.074-6.921 0.769-13.843-6.921-14.612-10.767zm10.767-19.995c3.845-4.307 5.383-12.843 5.383-31.224 0-17.611-1.538-27.609-6.152-30.685-1.538-1.077-1.538-1.077 0.769-1.077 7.69 0 10.767 10.844 9.998 37.299 0 14.689-1.539 20.457-3.846 24.918-1.538 1.538-4.614 3.076-6.921 3.076-1.538 0-1.538 0 0.769-2.307z" style="fill-rule:nonzero;fill:#016123"/>
 <path d="m254.489 281.633c1.538 0 1.538 0 1.538-4.614s0-5.383-1.538-5.383c-2.307 0-4.614-1.539-6.153-4.615-0.769-1.538-1.538-3.076-0.769-3.076 0 0 1.538-1.538 3.846-2.307 9.997-6.153 13.843-18.611 13.843-41.453 0-27.455-6.922-40.529-23.072-43.844-5.383-1.046-10.767-0.484-15.381 1.508-6.999 2.961-12.228 10.959-14.766 22.341-1.846 8.075-1.769 30.301 0.077 38.837 2.691 12.613 9.305 21.842 16.996 24.149 2.307 1.538 3.076 1.538 3.845 5.383 2.307 6.153 3.846 9.229 6.153 10.767 5.383 3.076 9.997 2.307 15.381 2.307zm-17.688-28.455c-2.308-1.538-4.615-5.46-6.153-9.075-3.076-11.997-2.307-41.606 0.769-50.066 1.538-3.845 5.384-6.921 7.691-6.921 3.845 0 7.69 3.845 9.228 8.46 2.308 7.998 3.077 34.992 0.769 46.374-1.538 8.921-6.921 13.535-12.304 11.228z" style="fill-rule:nonzero;fill:#fff"/>
 <path d="m267.065 215.041v10.325h21.942v10.326l-1.291 1.291-1.291 1.291h16.78l-2.582-3.872v-9.036h6.454v-14.198c-2.581 2.582-5.163 3.873-6.454 3.873v-33.559h-11.616v33.559h-7.744c3.872-5.163 6.453-12.908 6.453-18.071 0-5.162 0-9.035-3.872-12.907h-1.291c-1.29 18.07-2.581 19.361-15.488 30.978z" style="fill-rule:nonzero;fill:#016123"/>
 <path d="m269.216 215.041v10.325h21.942v10.326l-1.291 1.291-1.29 1.291h16.779l-2.581-3.872v-9.036h6.453v-14.198c-2.581 2.582-5.163 3.873-6.453 3.873v-33.559h-11.617v33.559h-7.744c3.872-5.163 6.453-12.908 6.453-18.071 0-5.162 0-9.035-3.872-12.907h-1.291c-1.29 18.07-2.581 19.361-15.488 30.978z" style="fill-rule:nonzero;fill:#fff"/>
 <defs>
  <linearGradient id="_Linear1" x2="1" gradientTransform="matrix(-88.106,-451.73,451.73,-88.106,238.005,496.887)" gradientUnits="userSpaceOnUse">
   <stop style="stop-color:#bebebe" offset="0"/>
   <stop style="stop-color:#fff" offset="1"/>
  </linearGradient>
 </defs>
</svg>
