<svg style="clip-rule:evenodd;fill-rule:evenodd;stroke-linejoin:round;stroke-miterlimit:2" version="1.1" viewBox="0 0 48 48" xmlns="http://www.w3.org/2000/svg">
 <path d="m45.668 8.56c0-3.438-2.79-6.228-6.228-6.228h-30.88c-3.438 0-6.228 2.79-6.228 6.228v30.88c0 3.438 2.79 6.228 6.228 6.228h30.88c3.438 0 6.228-2.79 6.228-6.228v-30.88z" style="fill:url(#_Linear1)"/>
 <path d="m15.75 19.125v16.875c0 1.246-1.004 2.25-2.25 2.25s-2.25-1.004-2.25-2.25v-16.875h4.5zm10.5 9v7.875c0 1.246-1.004 2.25-2.25 2.25s-2.25-1.004-2.25-2.25v-7.875h4.5zm10.5-9v16.875c0 1.246-1.004 2.25-2.25 2.25s-2.25-1.004-2.25-2.25v-16.875h4.5z" style="fill-rule:nonzero;fill:#484848"/>
 <path d="m27.15 26.25c1.159 0 2.1 0.941 2.1 2.1v1.8c0 1.159-0.941 2.1-2.1 2.1h-6.3c-1.159 0-2.1-0.941-2.1-2.1v-1.8c0-1.159 0.941-2.1 2.1-2.1h6.3zm-10.5-9c1.159 0 2.1 0.941 2.1 2.1v1.8c0 1.159-0.941 2.1-2.1 2.1h-6.3c-1.159 0-2.1-0.941-2.1-2.1v-1.8c0-1.159 0.941-2.1 2.1-2.1h6.3zm21 0c1.159 0 2.1 0.941 2.1 2.1v1.8c0 1.159-0.941 2.1-2.1 2.1h-6.3c-1.159 0-2.1-0.941-2.1-2.1v-1.8c0-1.159 0.941-2.1 2.1-2.1h6.3z" style="fill:#00b5bf"/>
 <defs>
  <linearGradient id="_Linear1" x2="1" gradientTransform="matrix(2.65361e-15,-43.3368,43.3368,2.65361e-15,154.01,45.6684)" gradientUnits="userSpaceOnUse">
   <stop style="stop-color:#c4c4c4" offset="0"/>
   <stop style="stop-color:#e4e4e4" offset="1"/>
  </linearGradient>
 </defs>
</svg>
