<svg style="clip-rule:evenodd;fill-rule:evenodd;stroke-linejoin:round;stroke-miterlimit:1.41421" version="1.1" viewBox="0 0 64 64" xmlns="http://www.w3.org/2000/svg">
 <path d="m61 9.754c0-3.728-3.026-6.754-6.754-6.754h-44.492c-3.728 0-6.754 3.026-6.754 6.754v44.492c0 3.728 3.026 6.754 6.754 6.754h44.492c3.728 0 6.754-3.026 6.754-6.754v-44.492z" style="fill:url(#_Linear1)"/>
 <path d="m21 25.5v22.5c0 1.662-1.338 3-3 3s-3-1.338-3-3v-22.5h6zm14 12v10.5c0 1.662-1.338 3-3 3s-3-1.338-3-3v-10.5h6zm14-12v22.5c0 1.662-1.338 3-3 3s-3-1.338-3-3v-22.5h6z" style="fill-rule:nonzero;fill:#484848"/>
 <path d="m36.2 35c1.545 0 2.8 1.255 2.8 2.8v2.4c0 1.545-1.255 2.8-2.8 2.8h-8.4c-1.545 0-2.8-1.255-2.8-2.8v-2.4c0-1.545 1.255-2.8 2.8-2.8h8.4zm-14-12c1.545 0 2.8 1.255 2.8 2.8v2.4c0 1.545-1.255 2.8-2.8 2.8h-8.4c-1.545 0-2.8-1.255-2.8-2.8v-2.4c0-1.545 1.255-2.8 2.8-2.8h8.4zm28 0c1.545 0 2.8 1.255 2.8 2.8v2.4c0 1.545-1.255 2.8-2.8 2.8h-8.4c-1.545 0-2.8-1.255-2.8-2.8v-2.4c0-1.545 1.255-2.8 2.8-2.8h8.4z" style="fill:#008b97"/>
 <defs>
  <linearGradient id="_Linear1" x2="1" gradientTransform="matrix(3.55148e-15,-58,58,3.55148e-15,32,61)" gradientUnits="userSpaceOnUse">
   <stop style="stop-color:#a4a4a4" offset="0"/>
   <stop style="stop-color:#e4e4e4" offset="1"/>
  </linearGradient>
 </defs>
</svg>
