<svg clip-rule="evenodd" fill-rule="evenodd" stroke-linejoin="round" stroke-miterlimit="2" viewBox="0 0 48 48" xmlns="http://www.w3.org/2000/svg">
 <linearGradient id="a" x2="1" gradientTransform="matrix(0 -40 40 0 24 44)" gradientUnits="userSpaceOnUse">
  <stop stop-color="#336f33" offset="0"/>
  <stop stop-color="#569b69" offset="1"/>
 </linearGradient>
 <linearGradient id="b" x2="1" gradientTransform="matrix(0 -40 40 0 24 44)" gradientUnits="userSpaceOnUse">
  <stop stop-color="#ffbf23" offset="0"/>
  <stop stop-color="#ffd800" offset="1"/>
 </linearGradient>
 <g fill-rule="nonzero">
  <path transform="matrix(1.1382 0 0 1.1382 -3.3168 -3.3168)" d="m41.412 24.1c0 5.114.668 9.68-2.49 13.217-3.662 4.101-8.991 6.683-14.922 6.683-11.046 0-20-8.954-20-20s8.954-20 20-20c.364 0 1.189.209 1.548.228 5 .267 7.921 4.195 11.283 7.473 3.727 3.633 4.581 6.783 4.581 12.399z" fill="url(#a)"/>
  <path transform="matrix(1.1382 0 0 1.1382 -3.3168 -3.3168)" d="m24 4c-.411.002-.821.017-1.23.045-1.633.462-4.149-.052-4.772 1.918 1.341.119 3.005-.831 4.537-.707 2.012-.427 3.479.802 5.07 1.629 2.311.123 3.829 2.175 4.442 4.222-.379-.031-2.061-.743-2.125.707.635 1.094.366 3.315 1.848 3.553 2.131.378.515-1.423-.092-2.154 1.594-.726 3.282 2.977 1.054 2.791.484 1.377-1.333 3.098-.277 4.283 1.043.467-.864 1.323-.816 2.053.27 2.523 3.346.636 2.404-1.27-.48-1.979 4.247-.622 1.664-2.158.77-.642 3.14 1.686 2.318-.726.737 1.096 1.898-.796 2.368.457.175 1.421-1.357 3.028-2.307 3.779-1.725-.908-3.178.005-4.371 1.344-1.161 1.541-1.588 3.514-2.102 5.343-.546 1.876.065 4.45 2.221 4.905 1.939.414 3.045-1.792 4.826-1.961 1.106.372.873 1.948 1.27 2.906.118.766-.58 1.42-.852 2.16 3.168-3.635 4.917-8.297 4.922-13.119 0-10.972-9.028-20-20-20zm-7.992 2.92c-1.132.081-2.387.721-2.067 1.918-1.127 1.762-2.663 3.241-4.111 4.742-2.104 1.531-3.235 4.103-3.303 6.668-.049 2.026-.536 4.225.34 6.131 1.099 1.561 1.921 3.289 2.916 4.912l.238.229c.217-1.196-.824-2.887-.714-4.309-2.484.167-2.177-4.556.386-3.65 1.35-.166 1.383 2.165 2.051 1.835 1.548-1.505 3.112-3.154 5.248-3.759 1.783.635.152-1.803 1.738-1.692 2.44-.206.677-2.837-.179-3.818-.991-2.309-2.383 3.606-3.049.953-1.281-1.355.708-4.454 1.926-2.551.348-.189 1.553-2.343-.18-2.353-1.341-1.266-.592-3.468.297-4.801-.224-.352-.858-.504-1.537-.455zm1.76 2.848c-.317-.077-.939.861-.924 1.49.396.752 1.141-.076 1.078-.633.071-.579-.01-.823-.154-.857zm4.388.314c-.744-.055-1.965.968-.586.91.75 1.554.356 3.636.717 5.406.959 1.685 2.059-2.034 3.029-2.416.628-1.723-.539-4.51-2.687-3.406-.029-.338-.225-.476-.473-.494zm-2.213 1.092c-.08-.025-.176.015-.271.187.6.552.512-.112.271-.187zm6.782 3.869c-.167.004-.325.103-.397.371l.235.143c1.26.317.662-.526.162-.514zm11.291.174c.492-.05.969.323.537 1.168-.214.987-.794 1.179-1.17.193-.367-.841.14-1.312.633-1.361zm-7.287 2.08c-.308-.03-.395.208.248.918.2.213.428.583.771.545.618-.617-.507-1.413-1.019-1.463zm-.625.9c-.07.034-.122.175-.108.5.696.261.317-.601.108-.5zm-10.475 2.112c-.165.033-.219.289.09.961 1.182-.033.273-1.036-.09-.961zm-7.887 7.681c-.066-.021-.058.064.113.358.947.734.086-.294-.113-.358zm1.719 1.582c-.132-.005-.266.085-.352.352 1.109.531.746-.336.352-.352zm-1.277 2.477c-.705.017-1.221.444-1.176 1.637-1.268 1.877-.04 3.766 1.39 5.078.964.664 1.407 1.748 1.934 2.738 1.759.972 3.654 1.673 5.621 2.08.326-.09.643-.201.943-.352 1.949-.42 4.421-2.115 4.118-4.185-1.458-1.382-3.958-.579-5.34-2.068-.813-1.953-2.893-2.781-4.635-3.711-.733-.581-1.95-1.239-2.855-1.217z" fill="url(#b)"/>
 </g>
</svg>
