<svg clip-rule="evenodd" fill-rule="evenodd" stroke-linejoin="round" stroke-miterlimit="2" viewBox="0 0 48 48" xmlns="http://www.w3.org/2000/svg">
 <linearGradient id="a" x2="1" gradientTransform="matrix(0 -43.3373 43.3373 0 201.9 45.6687)" gradientUnits="userSpaceOnUse">
  <stop stop-color="#6c85d5" offset="0"/>
  <stop stop-color="#8eaedf" offset="1"/>
 </linearGradient>
 <path d="m45.668 8.56c0-3.438-2.79-6.228-6.228-6.228h-30.88c-3.438 0-6.228 2.79-6.228 6.228v30.88c0 3.438 2.79 6.228 6.228 6.228h30.88c3.438 0 6.228-2.79 6.228-6.228z" fill="url(#a)"/>
 <path d="m19.088 11.311c-1.866 0-3.414 1.376-3.668 3.172h-.033-.727-4.56-1.057v8.46h-2.115v1.057h5.287v-1.057h-2.115v-7.402h5.32c.254 1.796 1.802 3.172 3.668 3.172 1.867 0 3.414-1.376 3.668-3.172h4.263v2.114h9.517v-2.114h2.115v16.918h-3.206c-.254-1.796-1.801-3.172-3.668-3.172-1.866 0-3.414 1.376-3.668 3.172h-3.304c-.216-.62-.794-1.057-1.487-1.057-.876 0-1.586.71-1.586 1.586s.71 1.586 1.586 1.586c.693 0 1.271-.437 1.487-1.057h3.304c.254 1.796 1.802 3.172 3.668 3.172 1.867 0 3.414-1.376 3.668-3.172h4.263v-19.034h-3.172v-2.115h-9.517v2.115h-3.899-.331-.033c-.254-1.796-1.801-3.172-3.668-3.172zm0 1.057c.532 0 1.039.159 1.454.43l-1.454 1.454-1.454-1.454c.415-.271.922-.43 1.454-.43zm-2.214 1.19 1.454 1.454-1.454 1.454c-.27-.415-.429-.922-.429-1.454s.159-1.039.429-1.454zm4.428 0c.271.415.43.922.43 1.454s-.159 1.039-.43 1.454l-1.454-1.454zm-2.214 2.214 1.454 1.454c-.415.27-.922.429-1.454.429s-1.039-.159-1.454-.429zm-11.103 9.285v1.058h1.058v7.402h4.329c.215.62.793 1.057 1.487 1.057.876 0 1.586-.71 1.586-1.586 0-.109-.012-.227-.033-.33l5.617-3.239-.528-.925-5.651 3.272c-.273-.222-.613-.364-.991-.364-.694 0-1.272.437-1.487 1.057h-3.272v-6.344h1.058v-1.058zm23.792 5.288c1.46 0 2.644 1.183 2.644 2.643s-1.184 2.644-2.644 2.644-2.643-1.184-2.643-2.644 1.183-2.643 2.643-2.643zm-16.918 2.114c.292 0 .528.237.528.529s-.236.529-.528.529-.529-.237-.529-.529.237-.529.529-.529zm8.459 0c.292 0 .529.237.529.529s-.237.529-.529.529-.529-.237-.529-.529.237-.529.529-.529z" fill="#fff" fill-opacity=".85"/>
</svg>
