<svg style="clip-rule:evenodd;fill-rule:evenodd;stroke-linejoin:round;stroke-miterlimit:1.41421" version="1.1" viewBox="0 0 64 64" xmlns="http://www.w3.org/2000/svg">
 <path d="m44.889 56.859c-3.859 2.007-8.242 3.141-12.889 3.141-15.454 0-28-12.546-28-28s12.546-28 28-28 28 12.546 28 28c0 5.03-1.329 9.751-3.655 13.833l4.505 11.288c0.099 0.248 0.15 0.512 0.15 0.779 0 1.152-0.948 2.1-2.099 2.1h-11.315c-0.851 0-1.622-0.517-1.944-1.304l-0.753-1.837z" style="fill:url(#_Linear1)"/>
 <path d="m23.848 8.051c-0.029 1.101-1.948 0.147-2.032 1.406-2.128-0.948 0.163 1.442-0.05 1.664h-0.012l-0.16-0.016c-0.103-0.036-0.252-0.098-0.473-0.234-0.449 0.358-0.766 0.831-1.031 1.356-1.775 2.76-2.639 5.064-3.223 7.972-0.745 3.714-0.926 8.053-0.851 11.715 0.08 1.032 0.338 2.008 1.183 2.66 2.382 1.957 4.363 4.43 6.363 6.785 3.938 5.339 7.388 9.893 9.637 14.68-0.247-1.609-0.569-4.167-0.722-6.144-1.366-6.969-4.157-10.654-4.477-18.438-0.075-1.926 2.001-5.817 4.324-7.859 3.506-3.082 6.039-2.306 10.512-1.645 0.024 4e-3 0.058 0.012 0.082 0.016 0.148 0.025 0.31 0.053 0.457 0.082 1.195 0.106 3.596 0.571 4.027-0.254-1.649-1.404-4.02-1.585-6.027-2.137-0.318-0.058-0.715-0.124-1.105-0.16l-1.965-0.437-0.492-0.129-1e-3 0.015-7.035-1.371c-0.112-0.102-0.235-0.204-0.347-0.281l6.863 0.851v-0.035c0.242 0.054 0.484 0.101 0.727 0.129v0.016l4.851 0.894c0.837 0.313 1.729 0.55 2.566 0.602 1.383 0.201 3.137 2.264 3.59 2.363-0.222-2.17-2.388-3.144-4.187-3.781-2.102-1.022-5.246-0.986-5.578-3.813-0.089-0.196-0.174-0.393-0.282-0.582l-0.82-1.086 0.031-0.015c-1.117-1.319-2.688-2.282-4.359-2.649-1.659-0.572-3.523-1.139-5.277-1.367-0.596 1.753-1.26-1.389-2.692-0.457-1.255 0.149-1.081 0.479-2.015-0.316zm8.67 3.951c0.443-0.015 0.95 0.086 1.459 0.305 1.356 0.584 2.238 1.816 1.978 2.756-0.26 0.939-1.575 1.216-2.932 0.632-1.356-0.584-2.238-1.799-1.978-2.738 0.163-0.587 0.734-0.931 1.473-0.955z" style="fill-rule:nonzero;fill:#ff7111"/>
 <defs>
  <linearGradient id="_Linear1" x2="1" gradientTransform="matrix(-.0726092 -55.9665 55.9665 -.0726092 31.0608 59.9845)" gradientUnits="userSpaceOnUse">
   <stop style="stop-color:#2f2f2f" offset="0"/>
   <stop style="stop-color:#4f4f4f" offset="1"/>
  </linearGradient>
 </defs>
</svg>
