<svg style="clip-rule:evenodd;fill-rule:evenodd;stroke-linejoin:round;stroke-miterlimit:2" version="1.1" viewBox="0 0 48 48" xmlns="http://www.w3.org/2000/svg">
 <path d="m39.44 2.332c3.438 0 6.228 2.79 6.228 6.228v30.88c0 3.438-2.79 6.228-6.228 6.228h-30.88c-3.438 0-6.228-2.79-6.228-6.228v-30.88c0-3.438 2.79-6.228 6.228-6.228h30.88z" style="fill:url(#_Linear1)"/>
 <g transform="matrix(1.0834,0,0,1.0834,-2.0016,-2.0016)">
  <path d="m22 15c0 3.84-3.16 7-7 7s-7-3.16-7-7 3.16-7 7-7 7 3.16 7 7z" style="fill-rule:nonzero;fill:white"/>
 </g>
 <g transform="matrix(1.0834,0,0,1.0834,-2.0016,-2.0016)">
  <path d="m22 34c0 3.84-3.16 7-7 7s-7-3.16-7-7 3.16-7 7-7 7 3.16 7 7z" style="fill-rule:nonzero;fill:rgb(52,51,51)"/>
 </g>
 <g transform="matrix(1.0834,0,0,1.0834,-2.0016,-2.0016)">
  <path d="m40 34c0-3.84-3.16-7-7-7s-7 3.16-7 7 3.16 7 7 7 7-3.16 7-7z" style="fill-rule:nonzero;fill:white"/>
 </g>
 <g transform="matrix(1.0834,0,0,1.0834,-2.0016,-2.0016)">
  <path d="m40 15c0-3.84-3.16-7-7-7s-7 3.16-7 7 3.16 7 7 7 7-3.16 7-7z" style="fill-rule:nonzero;fill:rgb(52,51,51)"/>
 </g>
 <defs>
  <linearGradient id="_Linear1" x2="1" gradientTransform="matrix(2.6432e-15,-43.1668,43.1668,2.6432e-15,24.6551,45.4988)" gradientUnits="userSpaceOnUse">
   <stop style="stop-color:rgb(70,148,215)" offset="0"/>
   <stop style="stop-color:rgb(127,199,227)" offset="1"/>
  </linearGradient>
 </defs>
</svg>
