<svg style="clip-rule:evenodd;fill-rule:evenodd;stroke-linejoin:round;stroke-miterlimit:2" version="1.1" viewBox="0 0 48 48" xmlns="http://www.w3.org/2000/svg">
 <circle cx="24" cy="24" r="22.764" style="fill:url(#_Linear1)"/>
 <path d="m12.482 30.825c0.908-0.465 2.038-1.042 3.389-2.103 0.264-0.207 0.583-0.292 0.895-0.274-0.121-0.479-0.057-0.991 0.185-1.432-0.046-0.145-0.082-0.289-0.099-0.433-0.062-0.56 0.112-1.107 0.468-1.461l6.776-6.777c0.124-0.125 0.795-0.742 1.834-0.742 0.353 0 0.828 0.08 1.342 0.367l1.179-1.175c0.376-0.377 1.031-0.377 1.401 0 0.191 0.186 0.291 0.437 0.291 0.701 0 0.263-0.1 0.509-0.291 0.7l-1.173 1.174c0.446 0.794 0.395 1.514 0.299 1.93-0.161 0.694-0.558 1.133-0.675 1.25l-6.777 6.777c-0.145 0.144-0.553 0.479-1.233 0.479-0.22 0-0.442-0.038-0.665-0.109-0.295 0.162-0.619 0.251-0.947 0.251-0.231 0-0.46-0.045-0.68-0.126-0.017 0.371-0.184 0.732-0.498 0.979-1.552 1.218-2.861 1.887-3.818 2.377-0.422 0.216-0.937 0.479-1.118 0.636 7e-3 0.175 0.042 0.251 0.059 0.265h21.754c0.73 0 1.322 0.592 1.322 1.322s-0.592 1.322-1.322 1.322h-21.814c-1.063 0-2.644-0.792-2.644-2.975 0-1.614 1.302-2.28 2.56-2.923zm21.23-16.897c0 0.264-0.106 0.515-0.29 0.7l-1.785 1.785-0.357 0.356c-0.185 0.186-0.436 0.291-0.701 0.291-0.264 0-0.515-0.105-0.7-0.291-0.185-0.184-0.291-0.436-0.291-0.7s0.106-0.515 0.291-0.7l0.357-0.357 1.784-1.785c0.37-0.371 1.025-0.371 1.402 0 0.184 0.184 0.29 0.436 0.29 0.701zm1.135-0.725c-0.193 0.194-0.447 0.29-0.701 0.29-0.253 0-0.507-0.097-0.701-0.29-0.387-0.387-0.387-1.016 0-1.403l0.234-0.233c0.387-0.387 1.015-0.387 1.402 0 0.387 0.388 0.387 1.016 0 1.403l-0.234 0.233z" style="fill-opacity:.89;fill-rule:nonzero;fill:#fff"/>
 <defs>
  <linearGradient id="_Linear1" x2="1" gradientTransform="matrix(2.68822e-15,-43.902,43.902,2.68822e-15,23.061,45.6921)" gradientUnits="userSpaceOnUse">
   <stop style="stop-color:#820202" offset="0"/>
   <stop style="stop-color:#ff5454" offset="1"/>
  </linearGradient>
 </defs>
</svg>
