<svg style="clip-rule:evenodd;fill-rule:evenodd;stroke-linejoin:round;stroke-miterlimit:2" version="1.1" viewBox="0 0 48 48" xmlns="http://www.w3.org/2000/svg">
 <path d="m45.668 8.56c0-3.438-2.79-6.228-6.228-6.228h-30.88c-3.438 0-6.228 2.79-6.228 6.228v30.88c0 3.438 2.79 6.228 6.228 6.228h30.88c3.438 0 6.228-2.79 6.228-6.228v-30.88z" style="fill:url(#_Linear1)"/>
 <path d="m24 27.287c-0.043 8.046-6.872 11.053-10.564 9.022-0.651-2.458-3.302-4.251-1.116-9.097-6.484-7.188-9.368-14.375-6.657-16.026 3.962 3.714 7.943 0.909 18.337 9.552l0.273-0.227c9.915-8.2 13.03-6.04 17.86-9.434 3.051 1.417 0.186 8.776-6.453 16.135 1.985 4.401-0.367 5.654-0.536 8.715-3.509 2.737-11.144-0.168-11.144-8.715v0.075z" style="fill:url(#_Linear2)"/>
 <path d="m30.066 11.372c0.066 0.06 0.108 0.146 0.122 0.24 3e-3 8e-3 3e-3 0.013 3e-3 0.021l2e-3 0.02v0.021c0 0.086-0.026 0.172-0.075 0.239-0.049 0.068-0.115 0.117-0.193 0.138-0.236 0.07-0.471 0.156-0.699 0.26-0.56 0.239-1.095 0.541-1.602 0.902-0.309 0.222-0.605 0.469-0.882 0.742-0.298 0.288-0.567 0.608-0.807 0.957-0.253 0.366-0.466 0.767-0.633 1.191-0.183 0.463-0.307 0.951-0.371 1.453-0.016 0.138-0.101 0.255-0.216 0.307-0.014 5e-3 -0.028 0.011-0.044 0.013l-0.042 0.011c-0.017 2e-3 -0.031 5e-3 -0.045 5e-3 -0.08 0-0.157-0.031-0.218-0.083-0.085-0.076-0.134-0.188-0.134-0.307v-0.019l3e-3 -0.02v-0.016c0.072-0.569 0.213-1.123 0.417-1.651 0.19-0.479 0.43-0.934 0.716-1.35 0.267-0.387 0.567-0.746 0.898-1.069 0.305-0.299 0.629-0.572 0.971-0.814 0.547-0.392 1.129-0.72 1.739-0.98 0.253-0.114 0.513-0.211 0.776-0.286 7e-3 -3e-3 0.014-5e-3 0.021-5e-3l0.293-0.057v0.137z" style="fill-rule:nonzero;fill:#3b3b3b"/>
 <path d="m17.927 11.38l2e-3 -0.088 0.242-8e-3 0.047 5e-3c9e-3 0 0.021 3e-3 0.03 8e-3 0.265 0.075 0.523 0.172 0.777 0.286 0.609 0.26 1.191 0.588 1.738 0.98 0.342 0.242 0.666 0.515 0.971 0.814 0.331 0.323 0.631 0.682 0.898 1.069 0.287 0.416 0.526 0.871 0.713 1.35 0.205 0.528 0.345 1.082 0.418 1.651v5e-3l5e-3 0.029c0 0.01 2e-3 0.021 2e-3 0.031 0 0.117-0.047 0.226-0.127 0.299-0.063 0.06-0.143 0.091-0.225 0.091-0.049 0-0.096-0.01-0.14-0.031-0.118-0.057-0.2-0.182-0.209-0.325-0.066-0.497-0.19-0.983-0.369-1.443-0.168-0.424-0.38-0.825-0.635-1.191-0.24-0.349-0.509-0.669-0.807-0.957-0.277-0.273-0.573-0.52-0.885-0.741-0.504-0.362-1.041-0.663-1.602-0.903-0.227-0.104-0.462-0.19-0.699-0.26-0.075-0.021-0.143-0.07-0.19-0.138-0.049-0.07-0.075-0.153-0.075-0.239v-0.013-0.013c3e-3 -5e-3 3e-3 -8e-3 3e-3 -0.013 6e-3 -0.099 0.049-0.187 0.117-0.255 0.058-0.057 0.136-0.091 0.216-0.096" style="fill-rule:nonzero;fill:#3b3b3b"/>
 <path d="m24.584 19.443c1.168 3.237 0.28 14.17-0.584 14.243s-1.752-11.006-0.584-14.243c-1.752-1.295-1.752-2.59 0.584-2.59s2.336 1.295 0.584 2.59z" style="fill:url(#_Linear3)"/>
 <defs>
  <linearGradient id="_Linear1" x2="1" gradientTransform="matrix(2.6536e-15,-43.3366,43.3366,2.6536e-15,426.898,45.6684)" gradientUnits="userSpaceOnUse">
   <stop style="stop-color:#006357" offset="0"/>
   <stop style="stop-color:#00ac98" offset="1"/>
  </linearGradient>
  <linearGradient id="_Linear2" x2="1" gradientTransform="matrix(1.59756e-15,26.0901,-26.0901,1.59756e-15,-1366.38,10.8332)" gradientUnits="userSpaceOnUse">
   <stop style="stop-color:#f40" offset="0"/>
   <stop style="stop-color:#f55454" offset="1"/>
  </linearGradient>
  <linearGradient id="_Linear3" x2="1" gradientTransform="matrix(1.03074e-15,16.8332,-16.8332,1.03074e-15,-1342.67,16.8529)" gradientUnits="userSpaceOnUse">
   <stop style="stop-color:#674f00" offset="0"/>
   <stop style="stop-color:#532a00" offset="1"/>
  </linearGradient>
 </defs>
</svg>
