<svg style="clip-rule:evenodd;fill-rule:evenodd;stroke-linejoin:round;stroke-miterlimit:2" version="1.1" viewBox="0 0 256 256" xmlns="http://www.w3.org/2000/svg">
 <path d="m245.793 56.889c0-25.9-21.028-46.928-46.928-46.928h-142.222c-25.9 0-46.928 21.028-46.928 46.928v142.222c0 25.9 21.028 46.928 46.928 46.928h142.222c25.9 0 46.928-21.028 46.928-46.928v-142.222z" style="fill:url(#_Linear1)"/>
 <path d="m127.999 145.532c-0.227 42.909-36.648 58.948-56.341 48.115-3.472-13.107-17.611-22.672-5.953-48.519-34.578-38.331-49.963-76.662-35.503-85.47 21.129 19.81 42.362 4.851 97.798 50.942l1.454-1.206c52.88-43.736 69.496-32.216 95.255-50.317 16.274 7.556 0.991 46.803-34.414 86.051 10.587 23.473-1.961 30.157-2.858 46.483-18.719 14.598-59.437-0.896-59.437-46.483l-1e-3 0.404z" style="fill:url(#_Linear2)"/>
 <path d="m160.353 60.653c0.35 0.319 0.576 0.777 0.651 1.276 0.012 0.042 0.012 0.069 0.012 0.111l0.013 0.111v0.111c0 0.458-0.138 0.915-0.401 1.276-0.262 0.361-0.613 0.624-1.026 0.735-1.263 0.374-2.514 0.832-3.728 1.387-2.99 1.276-5.842 2.885-8.545 4.812-1.651 1.179-3.228 2.497-4.704 3.953-1.589 1.54-3.027 3.245-4.304 5.104-1.351 1.955-2.489 4.091-3.377 6.352-0.976 2.469-1.639 5.076-1.977 7.753-0.088 0.735-0.538 1.359-1.151 1.636-0.075 0.028-0.15 0.056-0.238 0.07l-0.225 0.055c-0.088 0.014-0.163 0.028-0.238 0.028-0.425 0-0.838-0.167-1.163-0.444-0.451-0.402-0.713-0.999-0.713-1.637v-0.097l0.012-0.111v-0.083c0.388-3.037 1.139-5.991 2.227-8.807 1.013-2.552 2.29-4.979 3.816-7.198 1.426-2.066 3.027-3.98 4.791-5.7 1.627-1.595 3.353-3.051 5.18-4.341 2.915-2.094 6.018-3.842 9.271-5.228 1.351-0.611 2.739-1.124 4.141-1.526 0.037-0.014 0.075-0.028 0.112-0.028l1.564-0.305v0.735z" style="fill-rule:nonzero;fill:#3b3b3b"/>
 <path d="m95.609 60.695l0.013-0.472 1.288-0.041 0.251 0.027c0.05 0 0.112 0.014 0.162 0.042 1.414 0.402 2.79 0.915 4.141 1.526 3.253 1.386 6.356 3.134 9.271 5.228 1.827 1.29 3.553 2.746 5.179 4.341 1.765 1.72 3.366 3.634 4.792 5.7 1.526 2.219 2.803 4.646 3.803 7.198 1.089 2.816 1.84 5.77 2.227 8.807v0.028l0.025 0.153c0 0.055 0.013 0.11 0.013 0.166 0 0.624-0.25 1.207-0.676 1.595-0.337 0.319-0.763 0.485-1.201 0.485-0.262 0-0.513-0.055-0.75-0.166-0.626-0.305-1.064-0.971-1.114-1.734-0.35-2.649-1.013-5.242-1.964-7.697-0.901-2.261-2.027-4.397-3.39-6.352-1.277-1.859-2.715-3.564-4.304-5.104-1.476-1.456-3.053-2.774-4.717-3.953-2.69-1.927-5.555-3.536-8.545-4.812-1.213-0.555-2.464-1.013-3.728-1.387-0.4-0.111-0.763-0.374-1.013-0.735-0.263-0.375-0.401-0.818-0.401-1.276v-0.069-0.07c0.013-0.027 0.013-0.041 0.013-0.069 0.037-0.527 0.263-0.999 0.625-1.359 0.313-0.305 0.726-0.486 1.151-0.513" style="fill-rule:nonzero;fill:#3b3b3b"/>
 <path d="m131.115 103.694c6.229 17.264 1.491 75.573-3.115 75.964-4.607 0.392-9.344-58.7-3.115-75.964-9.345-6.906-9.345-13.812 3.115-13.812s12.46 6.906 3.115 13.812z" style="fill:url(#_Linear3)"/>
 <defs>
  <linearGradient id="_Linear1" x2="1" gradientTransform="matrix(1.34919e-14,-236.077,220.339,1.44556e-14,127.754,246.039)" gradientUnits="userSpaceOnUse">
   <stop style="stop-color:#006357" offset="0"/>
   <stop style="stop-color:#00ac98" offset="1"/>
  </linearGradient>
  <linearGradient id="_Linear2" x2="1" gradientTransform="matrix(7.6859e-15,139.147,-125.52,8.52027e-15,128,57.7768)" gradientUnits="userSpaceOnUse">
   <stop style="stop-color:#f40" offset="0"/>
   <stop style="stop-color:#f55454" offset="1"/>
  </linearGradient>
  <linearGradient id="_Linear3" x2="1" gradientTransform="matrix(4.95892e-15,89.777,-80.9854,5.49725e-15,118.224,89.8821)" gradientUnits="userSpaceOnUse">
   <stop style="stop-color:#674f00" offset="0"/>
   <stop style="stop-color:#532a00" offset="1"/>
  </linearGradient>
 </defs>
</svg>
