<svg clip-rule="evenodd" fill-rule="evenodd" stroke-linejoin="round" stroke-miterlimit="2" viewBox="0 0 48 48" xmlns="http://www.w3.org/2000/svg">
 <linearGradient id="a" x2="1" gradientTransform="matrix(-.476427 -19.8908 19.8908 -.476427 19.3251 44.9032)" gradientUnits="userSpaceOnUse">
  <stop stop-color="#24316a" offset="0"/>
  <stop stop-color="#405097" offset="1"/>
 </linearGradient>
 <linearGradient id="b" x2="1" gradientTransform="matrix(0 -43.3373 43.3373 0 201.9 45.6687)" gradientUnits="userSpaceOnUse">
  <stop stop-color="#202d64" offset="0"/>
  <stop stop-color="#44559e" offset="1"/>
 </linearGradient>
 <path d="m45.668 8.56c0-3.438-2.79-6.228-6.228-6.228h-30.88c-3.438 0-6.228 2.79-6.228 6.228v30.88c0 3.438 2.79 6.228 6.228 6.228h30.88c3.438 0 6.228-2.79 6.228-6.228z" fill="url(#a)"/>
 <path d="m39.44 2.332c3.438 0 6.228 2.79 6.228 6.228v30.88c0 3.438-2.79 6.228-6.228 6.228h-21.631l-15.477-15.477v-21.631c0-3.438 2.79-6.228 6.228-6.228z" fill="url(#b)"/>
 <g fill-rule="nonzero">
  <path d="m2.702 30.668h12.75c1.242 0 2.25 1.008 2.25 2.25v12.75z" fill="#44559e"/>
  <path d="m24 11.25c-.219.001-.438.012-.656.032-.049.005-.098.011-.147.018-3.788.407-6.694 3.64-6.697 7.45.001.019.002.037.003.056-2.572.369-4.502 2.596-4.503 5.194 0 .043.001.086.003.129l-.003.12v.001c0 2.743 2.257 5 5 5h.25 12.75c3.292 0 6-2.708 6-6-.007-2.767-1.927-5.188-4.62-5.825-.576-3.186-3.153-5.656-6.361-6.096l-.096-.015c-.152-.018-.305-.032-.457-.041-.155-.013-.311-.02-.466-.023zm-.015 2.251c.098.003.196.007.293.015.019.001.037.002.056.003.103.006.205.015.307.027.005.001.009.002.012.002.005.001.009.002.014.003.015.003.031.005.046.007 2.261.311 4.047 2.022 4.452 4.268.159.879.828 1.584 1.698 1.789 1.699.402 2.881 1.892 2.887 3.638-.001 2.096-1.653 3.747-3.75 3.747h-12.75-.249c-1.545 0-2.749-1.204-2.751-2.748v-.003c0-.013.001-.026.002-.038.001-.054.001-.108 0-.162-.001-.015-.002-.031-.002-.048v-.003c.002-1.506 1.082-2.751 2.574-2.966 1.121-.163 1.953-1.148 1.926-2.281v-.003c.004-2.697 2.005-4.923 4.688-5.211.017-.002.034-.004.051-.006.027-.004.054-.008.082-.011.137-.012.276-.017.414-.019z" fill="#5d8cb9"/>
 </g>
</svg>
