<svg style="clip-rule:evenodd;fill-rule:evenodd;stroke-linejoin:round;stroke-miterlimit:2" version="1.1" viewBox="0 0 48 48" xmlns="http://www.w3.org/2000/svg">
 <path d="m45.668 8.56c0-3.438-2.79-6.228-6.228-6.228h-30.88c-3.438 0-6.228 2.79-6.228 6.228v30.88c0 3.438 2.79 6.228 6.228 6.228h30.88c3.438 0 6.228-2.79 6.228-6.228v-30.88z" style="fill:url(#_Linear1)"/>
 <path d="m18.186 10.976c-2.622 0.013-4.576 1.017-5.854 3.009-1.277 1.981-1.904 4.838-1.886 8.575 0.019 3.815 0.673 6.722 1.97 8.713 0.907 1.393 2.115 2.293 3.624 2.704 0 0 0.306-0.017 0.333 0.309 0.539 4.214 3.174 4.21 6.178 4.195 0 0 0.388-2e-3 0.386-0.389l-0.012-2.326c-2e-3 -0.388-0.39-0.386-0.39-0.386-1.5 7e-3 -1.889 0.108-2.298-1.394 0.508-0.129 0.979-0.302 1.416-0.528 0.987-0.521 1.799-1.275 2.438-2.266 0.639-1.001 1.11-2.229 1.413-3.689 0.315-1.461 0.47-3.133 0.461-5.018-0.019-3.782-0.686-6.647-2.006-8.593-1.321-1.957-3.246-2.928-5.773-2.916zm10.949 18.944c-9e-3 -1.939-0.032-8.103-0.032-8.103l-1.583 8e-3 -0.021-2.753c2.328-0.011 1.552 0.057 2.694-4.601l3.003-0.014 0.022 4.587 3.204-0.015 0.021 2.752-3.204 0.016 0.026 6.939c4e-3 0.722 0.156 1.266 0.458 1.631s0.697 0.546 1.186 0.544c0.623 0.057 1.57-0.252 1.57-0.252l0.013 2.714c-0.078 0.056-3.818 1.215-5.82 0.028-1.945-1.153-1.537-3.481-1.537-3.481zm-10.964-17.054c0.549-2e-3 0.971 0.189 1.324 0.588 0.208 0.226 0.392 0.525 0.562 0.881 0.097 0.263 0.193 0.542 0.271 0.859 0.21 0.856 0.362 1.893 0.452 3.124 0.089 1.228 0.134 2.628 0.141 4.191 8e-3 1.574-0.023 2.989-0.101 4.241-0.077 1.242-0.219 2.297-0.421 3.176-0.075 0.327-0.165 0.624-0.262 0.898-0.016 0.035-0.032 0.075-0.048 0.109-0.153 0.318-0.32 0.586-0.505 0.802-0.35 0.424-0.772 0.622-1.319 0.625-0.547 2e-3 -0.97-0.191-1.324-0.612-0.347-0.427-0.633-1.052-0.846-1.886-0.214-0.848-0.361-1.885-0.452-3.111-0.091-1.24-0.146-2.648-0.153-4.216-8e-3 -1.556 0.034-2.938 0.113-4.156 0.079-1.215 0.216-2.24 0.421-3.067 0.205-0.825 0.488-1.439 0.828-1.846 0.349-0.401 0.769-0.597 1.319-0.6z" style="fill-opacity:.85;fill-rule:nonzero;fill:#fff"/>
 <defs>
  <linearGradient id="_Linear1" x2="1" gradientTransform="matrix(1.72705,-42.6903,42.6903,1.72705,22.8387,45.0223)" gradientUnits="userSpaceOnUse">
   <stop style="stop-color:#397f09" offset="0"/>
   <stop style="stop-color:#86d651" offset="1"/>
  </linearGradient>
 </defs>
</svg>
