<svg clip-rule="evenodd" fill-rule="evenodd" stroke-linejoin="round" stroke-miterlimit="2" viewBox="0 0 48 48" xmlns="http://www.w3.org/2000/svg">
 <linearGradient id="a" x2="1" gradientTransform="matrix(0 -43.336 43.336 0 24 45.668)" gradientUnits="userSpaceOnUse">
  <stop stop-color="#c2352a" offset="0"/>
  <stop stop-color="#f97d47" offset="1"/>
 </linearGradient>
 <path d="m45.668 8.56c0-3.438-2.79-6.228-6.228-6.228h-30.88c-3.438 0-6.228 2.79-6.228 6.228v30.88c0 3.438 2.79 6.228 6.228 6.228h30.88c3.438 0 6.228-2.79 6.228-6.228z" fill="url(#a)"/>
 <path d="m40 8v12h-12v-12zm-16 0v2h-2v-2zm0 2h2v4h-2v2h-2v-4h2zm0 6h2v4h-2zm0 4v2h-2v-2zm-2 2v4h-4v-2h2v-2zm-4 2h-4v-2h4zm-4 0v2h-6v-4h4v2zm8 2h4v4h-2v-2h-2zm4 4h2v2h-2zm0 2v4h-2v-2h-2v-2zm-2 4v4h-2v-4zm2 0h4v4h-4zm4 0v-2h2v2zm2 0h2v4h-2zm0-2v-2h4v2zm4 0h2v2h2v2h-2v2h-2zm-6 0h-2v-2h2zm-2-4v-2h2v2zm2-2v-2h4v4h-2v-2zm0-2h-4v-2h2v-2h2zm-4-2h-2v-2h2zm-6-16v12h-12v-12zm18 2h-8v8h8zm-20 0h-8v8h8zm18 2v4h-4v-4zm-20 0v4h-4v-4zm22 10v2h2v2h-4v-2h-4v-2zm2 6v4h-2v-2h-2v-2zm-20 0v12h-12v-12zm-2 2h-8v8h8zm-2 2v4h-4v-4z" fill-opacity=".5" fill-rule="nonzero"/>
</svg>
