<svg style="clip-rule:evenodd;fill-rule:evenodd;stroke-linejoin:round;stroke-miterlimit:2" version="1.1" viewBox="0 0 48 48" xmlns="http://www.w3.org/2000/svg">
 <circle cx="24.08" cy="24.109" r="22.873" style="fill:url(#_Linear1)"/>
 <path d="m15.41 12.68c1.903 0 3.736 0.246 5.498 0.739 1.762 0.492 3.411 1.189 4.947 2.091s2.935 1.983 4.196 3.244c1.26 1.261 2.342 2.659 3.243 4.196 0.902 1.536 1.599 3.185 2.092 4.947 0.493 1.761 0.739 3.594 0.739 5.498 0 0.601-0.213 1.114-0.639 1.54s-0.939 0.639-1.54 0.639-1.115-0.213-1.541-0.639-0.638-0.939-0.638-1.54c0-1.503-0.197-2.952-0.589-4.346-0.393-1.394-0.944-2.697-1.653-3.908-0.71-1.21-1.562-2.313-2.555-3.306-0.994-0.994-2.096-1.845-3.307-2.555-1.21-0.71-2.513-1.261-3.907-1.653-1.395-0.393-2.843-0.589-4.346-0.589-0.601 0-1.115-0.213-1.541-0.639-0.425-0.425-0.638-0.939-0.638-1.54s0.213-1.115 0.638-1.541c0.426-0.425 0.94-0.638 1.541-0.638zm0 8.241c1.72 0 3.335 0.329 4.847 0.989 1.511 0.66 2.83 1.553 3.957 2.68s2.021 2.447 2.68 3.958c0.66 1.511 0.99 3.127 0.99 4.847 0 0.601-0.213 1.114-0.639 1.54s-0.939 0.639-1.54 0.639c-0.602 0-1.115-0.213-1.541-0.639s-0.639-0.939-0.639-1.54c0-1.119-0.212-2.171-0.638-3.156-0.426-0.986-1.006-1.846-1.741-2.58-0.735-0.735-1.595-1.315-2.58-1.741s-2.037-0.639-3.156-0.639c-0.601 0-1.115-0.213-1.541-0.639-0.426-0.425-0.638-0.939-0.638-1.54s0.212-1.115 0.638-1.541c0.426-0.425 0.94-0.638 1.541-0.638zm4.008 11.447c0 0.434-0.08 0.835-0.238 1.202-0.159 0.368-0.376 0.689-0.652 0.964-0.275 0.276-0.601 0.493-0.977 0.652-0.375 0.158-0.772 0.238-1.189 0.238-0.435 0-0.835-0.08-1.203-0.238-0.367-0.159-0.689-0.376-0.964-0.652-0.276-0.275-0.493-0.597-0.651-0.964-0.159-0.367-0.238-0.768-0.238-1.202 0-0.418 0.079-0.814 0.238-1.19 0.158-0.376 0.375-0.701 0.651-0.977 0.275-0.275 0.597-0.492 0.964-0.651 0.368-0.159 0.768-0.238 1.203-0.238 0.417 0 0.814 0.079 1.189 0.238 0.376 0.159 0.702 0.376 0.977 0.651 0.276 0.276 0.493 0.601 0.652 0.977 0.158 0.376 0.238 0.772 0.238 1.19z" style="fill-opacity:.64;fill-rule:nonzero"/>
 <defs>
  <linearGradient id="_Linear1" x2="1" gradientTransform="matrix(2.7011e-15,-44.1122,44.1122,2.7011e-15,23.1365,45.905)" gradientUnits="userSpaceOnUse">
   <stop style="stop-color:#009e5d" offset="0"/>
   <stop style="stop-color:#37ce97" offset="1"/>
  </linearGradient>
 </defs>
</svg>
