<svg style="clip-rule:evenodd;fill-rule:evenodd;stroke-linejoin:round;stroke-miterlimit:2" version="1.1" viewBox="0 0 48 48" xmlns="http://www.w3.org/2000/svg">
 <path d="m46.764 24c0-12.564-10.2-22.764-22.764-22.764s-22.764 10.2-22.764 22.764 10.2 22.764 22.764 22.764 22.764-10.2 22.764-22.764z" style="fill:url(#_Linear1)"/>
 <path d="m26.44 7.74c-0.901 0-1.626 0.725-1.626 1.626v11.684l-1.728 1.727c-0.601-3.952-4.031-6.903-8.029-6.907-4.46 0-8.13 3.67-8.13 8.13s3.67 8.13 8.13 8.13c1.76-3e-3 3.472-0.579 4.878-1.639v8.143c0 0.901 0.725 1.626 1.626 1.626s1.626-0.725 1.626-1.626v-11.359l1.772-1.773c0.719 3.826 4.091 6.625 7.984 6.628 4.459 0 8.13-3.67 8.13-8.13s-3.671-8.13-8.13-8.13c-1.761 4e-3 -3.473 0.579-4.878 1.639v-8.143c0-0.901-0.725-1.626-1.626-1.626h1e-3zm-11.382 11.382c2.676 0 4.878 2.202 4.878 4.878s-2.202 4.878-4.878 4.878c-2.677 0-4.878-2.202-4.878-4.878s2.201-4.878 4.878-4.878zm17.886 0c2.676 0 4.878 2.202 4.878 4.878s-2.202 4.878-4.878 4.878c-2.677 0-4.878-2.202-4.878-4.878s2.201-4.878 4.878-4.878z" style="fill-rule:nonzero;fill:#036"/>
 <defs>
  <linearGradient id="_Linear1" x2="1" gradientTransform="matrix(.0001626 -45.3827 45.3827 .0001626 205.531 46.7889)" gradientUnits="userSpaceOnUse">
   <stop style="stop-color:#0276f3" offset="0"/>
   <stop style="stop-color:#00b3ff" offset="1"/>
  </linearGradient>
 </defs>
</svg>
