<svg style="clip-rule:evenodd;fill-rule:evenodd" version="1.1" viewBox="0 0 48 48" xmlns="http://www.w3.org/2000/svg">
 <circle cx="24" cy="24" r="22.764" style="fill:url(#_Linear1)"/>
 <path d="m38.199 18.482c-0.161-1.944-1.307-4.397-3.664-4.485-6.581-0.448-14.376-0.57-21.076 0-2.078 0.235-3.503 2.797-3.658 4.741-0.329 4.086-0.329 6.411 0 10.497 0.157 1.945 1.545 4.521 3.663 4.791 6.778 0.448 14.536 0.512 21.075 0 2.051-0.36 3.504-2.846 3.661-4.791 0.328-4.087 0.328-6.667-2e-3 -10.753h1e-3z" style="fill-rule:nonzero;fill:#fff"/>
 <path d="m30.078 22.942c-0.043-0.056-0.098-0.086-0.168-0.1l-1.463-0.225c-0.08-0.259-0.19-0.523-0.328-0.792 0.096-0.14 0.24-0.323 0.432-0.568 0.191-0.245 0.327-0.423 0.407-0.535 0.042-0.057 0.064-0.128 0.064-0.185 0-0.086-0.018-0.142-0.056-0.179-0.192-0.274-0.631-0.732-1.319-1.371-0.064-0.057-0.131-0.085-0.2-0.085-0.08 0-0.144 0.028-0.192 0.07l-1.136 0.863c-0.219-0.114-0.458-0.212-0.72-0.299l-0.223-1.485c-5e-3 -0.07-0.037-0.127-0.093-0.172-0.055-0.043-0.121-0.071-0.196-0.071h-1.775c-0.155 0-0.251 0.085-0.288 0.227-0.07 0.269-0.146 0.768-0.232 1.501-0.251 0.085-0.493 0.183-0.727 0.307l-1.104-0.863c-0.07-0.056-0.139-0.085-0.208-0.085-0.117 0-0.37 0.192-0.756 0.577-0.387 0.385-0.649 0.674-0.788 0.868-0.047 0.071-0.071 0.127-0.071 0.186 0 0.07 0.026 0.127 0.079 0.194 0.358 0.435 0.643 0.806 0.856 1.112-0.133 0.247-0.237 0.496-0.312 0.743l-1.487 0.226c-0.059 9e-3 -0.11 0.042-0.152 0.099-0.042 0.056-0.064 0.128-0.064 0.185v1.792c0 0.07 0.022 0.128 0.064 0.19 0.041 0.056 0.098 0.084 0.168 0.098l1.463 0.218c0.074 0.264 0.184 0.53 0.328 0.799-0.096 0.142-0.24 0.324-0.432 0.57-0.192 0.245-0.328 0.424-0.407 0.537-0.042 0.056-0.064 0.127-0.064 0.184 0 0.072 0.017 0.128 0.055 0.186 0.208 0.291 0.648 0.742 1.32 1.356 0.058 0.057 0.125 0.085 0.2 0.085 0.08 0 0.146-0.028 0.2-0.071l1.128-0.864c0.219 0.114 0.458 0.213 0.72 0.299l0.223 1.485c5e-3 0.07 0.037 0.127 0.093 0.172 0.055 0.043 0.121 0.071 0.195 0.071h1.776c0.155 0 0.251-0.085 0.288-0.227 0.07-0.27 0.146-0.768 0.232-1.501 0.251-0.085 0.493-0.183 0.727-0.307l1.104 0.872c0.075 0.042 0.144 0.07 0.208 0.07 0.117 0 0.369-0.191 0.752-0.572 0.384-0.384 0.648-0.672 0.792-0.872 0.047-0.056 0.071-0.112 0.071-0.185 0-0.071-0.026-0.141-0.079-0.201-0.384-0.473-0.67-0.845-0.856-1.113 0.106-0.199 0.211-0.443 0.312-0.734l1.48-0.226c0.064-9e-3 0.117-0.043 0.159-0.099s0.064-0.127 0.064-0.185v-1.792c0-0.071-0.021-0.127-0.064-0.191v0.013zm-4.63 2.53c-0.4 0.404-0.882 0.606-1.448 0.606-0.565 0-1.047-0.202-1.447-0.606s-0.601-0.891-0.601-1.461c0-0.569 0.201-1.057 0.601-1.46 0.4-0.405 0.882-0.606 1.447-0.606 0.566 0 1.048 0.202 1.448 0.606 0.399 0.404 0.6 0.89 0.6 1.46s-0.201 1.057-0.6 1.461z" style="fill-rule:nonzero;fill:url(#_Linear2)"/>
 <circle cx="24" cy="24" r="21.731" style="fill:none;stroke-opacity:.44;stroke-width:2.07px;stroke:#fff"/>
 <defs>
  <linearGradient id="_Linear1" x2="1" gradientTransform="matrix(30.6602,30.6602,-30.6602,30.6602,-83.3106,100.65)" gradientUnits="userSpaceOnUse">
   <stop style="stop-color:#009cf0" offset="0"/>
   <stop style="stop-color:#7b00fe" offset="1"/>
  </linearGradient>
  <linearGradient id="_Linear2" x2="1" gradientTransform="matrix(30.6602,30.6602,-30.6602,30.6602,-552.043,569.383)" gradientUnits="userSpaceOnUse">
   <stop style="stop-color:#009cf0" offset="0"/>
   <stop style="stop-color:#7b00fe" offset="1"/>
  </linearGradient>
 </defs>
</svg>
