<svg style="clip-rule:evenodd;fill-rule:evenodd;stroke-linejoin:round;stroke-miterlimit:2" version="1.1" viewBox="0 0 64 64" xmlns="http://www.w3.org/2000/svg">
 <path d="m60.522 17.739c0-7.871-6.39-14.261-14.261-14.261h-28.522c-7.871 0-14.261 6.39-14.261 14.261v28.522c0 7.871 6.39 14.261 14.261 14.261h28.522c7.871 0 14.261-6.39 14.261-14.261v-28.522z" style="fill:url(#_Linear1)"/>
 <path d="m29.472 14.524c-2.959 1.551-4.65 5.357-5.988 8-0.85-1.152-0.668-3.568-0.998-5-2.614 3.449-3.765 9.379-4.818 12.828-1.49 4.902-3.39 7.911-6.1 9.663-1.611 1.041-3.054 1.577-6.175 2.285-0.715 0.212-1.502 0.386-1.915 0.48-6e-3 1.304 0.012 2.177 0 3.481-0.061 6.72 5.186 14.282 14.261 14.261 0.537-2e-3 12.783 0.029 13.313 0 1.288-2.52 1.452-6.101 0.952-8.234-0.334-1.314-1.196-3.674-1.14-3.766 0.057-0.092 1.464 0.051 2.658 0.051 1.412 0 2.446 0.05 3.193-0.176 0.632-0.192 1.387-0.503 1.836-0.481 1.994 0.101 4.518-0.808 5.184-2.586 0.207-0.552 1.077-1.265 1.306-1.582 0.375-0.518 0.573-0.946 0.332-1.761-0.34-1.152-1.729-1.83-3.2-3.174-1.113-1.02-1.67-1.126-1.726-2.216-0.041-0.802 0.172-1.36-0.261-1.77-0.492-0.464-1.736-0.166-1.817-0.175-0.516-0.602-1.008-1.229-0.058-2.098 0.718-0.658 1.137-0.952 1.137-1.672 0-0.707-0.417-0.914-1.04-1.461-0.412-0.361-0.852-0.656-0.983-0.656s-0.794-0.527-1.469-1.172c-1.31-1.25-2.232-1.072-3.251-1.072-0.825 0-1.24-0.804-1.24-2 1.098-3.981 4.341-7.08 5.988-7.999-4.172-0.592-7.211 1.482-9.979 4-0.13-1.463 1.84-5.055 1.995-6l3e-3 2e-3z" style="fill-rule:nonzero;fill:url(#_Linear2)"/>
 <defs>
  <linearGradient id="_Linear1" x2="1" gradientTransform="matrix(28.0646,-55.9702,55.9702,28.0646,15.3043,58.5938)" gradientUnits="userSpaceOnUse">
   <stop style="stop-color:#0f192f" offset="0"/>
   <stop style="stop-color:#00a7bb" offset="1"/>
  </linearGradient>
  <linearGradient id="_Linear2" x2="1" gradientTransform="matrix(8.98017,-44.1097,44.1097,8.98017,23.0198,60.5217)" gradientUnits="userSpaceOnUse">
   <stop style="stop-color:#cae2f6" offset="0"/>
   <stop style="stop-color:#fff" offset="1"/>
  </linearGradient>
 </defs>
</svg>
