<svg style="clip-rule:evenodd;fill-rule:evenodd;stroke-linejoin:round;stroke-miterlimit:2" version="1.1" viewBox="0 0 48 48" xmlns="http://www.w3.org/2000/svg">
 <path d="m23.989 1.236c-5.811 4e-3 -11.635 2.232-16.088 6.685l8.045 8.047c2.13-2.138 5.025-3.344 8.043-3.35v-11.382z" style="fill-rule:nonzero;fill:#be0bda"/>
 <path d="m23.989 1.236v11.382h0.011c3.016 3e-3 5.911 1.205 8.043 3.339l8.036-8.036c-4.453-4.453-10.279-6.681-16.09-6.685z" style="fill-rule:nonzero;fill:#df0d0d"/>
 <path d="m7.921 7.918c-4.453 4.454-6.681 10.278-6.685 16.089h11.382v-7e-3c3e-3 -3.018 1.206-5.913 3.341-8.045l-8.038-8.037z" style="fill-rule:nonzero;fill:#1e5eff"/>
 <path d="m1.236 24.009c4e-3 5.811 2.232 11.635 6.685 16.088l8.045-8.045c-2.138-2.13-3.343-5.025-3.348-8.043h-11.382z" style="fill-rule:nonzero;fill:#40adf1"/>
 <path d="m40.079 7.918-8.038 8.037c2.135 2.132 3.338 5.027 3.341 8.045v7e-3h11.382c-4e-3 -5.812-2.232-11.636-6.685-16.089z" style="fill-rule:nonzero;fill:#fe6812"/>
 <path d="m35.382 24.009c-5e-3 3.018-1.21 5.913-3.348 8.043l8.045 8.045c4.453-4.453 6.681-10.277 6.685-16.088h-11.382z" style="fill-rule:nonzero;fill:#ffac29"/>
 <path d="m15.946 32.053-8.045 8.045c4.453 4.453 10.277 6.681 16.088 6.685v-11.382c-3.018-5e-3 -5.913-1.21-8.043-3.348z" style="fill-rule:nonzero;fill:#14e9bd"/>
 <path d="m32.043 32.043c-2.132 2.134-5.027 3.336-8.043 3.339h-0.011v11.382c5.811-3e-3 11.637-2.232 16.09-6.685l-8.036-8.036z" style="fill-rule:nonzero;fill:#5cf229"/>
</svg>
