<svg clip-rule="evenodd" fill-rule="evenodd" stroke-linejoin="round" stroke-miterlimit="2" viewBox="0 0 48 48" xmlns="http://www.w3.org/2000/svg">
 <linearGradient id="a" x2="1" gradientTransform="matrix(0 -33.6872 33.6872 0 923.28 40.4502)" gradientUnits="userSpaceOnUse">
  <stop stop-color="#252525" offset="0"/>
  <stop stop-color="#4d4d4d" offset="1"/>
 </linearGradient>
 <path d="m39.44 45.668h-30.88c-3.438 0-6.228-2.79-6.228-6.228v-30.88c0-3.438 2.79-6.228 6.228-6.228h30.88c3.438 0 6.228 2.79 6.228 6.228v30.88c0 3.438-2.79 6.228-6.228 6.228z" fill="url(#a)"/>
 <path d="m38.535 9c-.055 0-.165.004-.281.01-.156.01-.293.017-.305.017s-.069.068-.127.151c-.058.082-.118.157-.134.165-.016.009-.116.048-.222.087-.179.067-.199.071-.262.055-.086-.022-.212-.015-1.304.071l-.506.04-.252.238c-.138.131-.259.248-.27.26-.01.013-.088.046-.173.073-.305.1-.558.247-.737.427-.125.127-.167.195-.269.437-.042.101-.08.187-.084.191s-.067-.032-.14-.079c-.396-.256-.781-.375-1.215-.375-.61 0-1.155.164-1.567.472-.398.299-.725.671-.911 1.039-.07.14-.144.429-.179.704-.037.286-.026.76.023.984.083.381.399 1.081.753 1.667.42.694.763 1.132 1.593 2.034.321.349.391.421 1.06 1.108.522.535.692.735.911 1.068.474.723.722 1.414.649 1.812-.038.207-.177.417-.37.561-.13.098-.423.245-.594.298-.145.045-.324.081-.338.067-.005-.005.017-.114.049-.242.105-.418.144-.791.121-1.152-.039-.623-.287-1.247-.651-1.642-.287-.31-.805-.656-1.185-.791-.221-.078-.342-.095-.595-.086-.274.01-.422.044-.62.141-.252.124-.376.295-.374.52 0 .101.007.132.047.206.059.109.164.215.252.253.038.017.14.038.226.047.218.022.385.068.571.157.183.087.309.178.474.34.2.197.311.394.372.664.035.154.035.489 0 .631s-.116.347-.157.4l-.033.042-.306-.298c-.403-.394-.956-.912-1.112-1.042-.557-.466-1.128-.794-1.585-.912-.074-.019-.143-.043-.153-.052s-.026-.074-.037-.144c-.088-.579-.344-1.246-.66-1.715-.186-.277-.346-.465-.668-.786-.473-.471-.919-.802-1.386-1.03l-.24-.117-.045-.162c-.137-.49-.398-1.017-.707-1.427-.146-.194-.454-.512-.638-.657-.488-.388-1.023-.613-1.693-.715-.277-.042-.84-.057-1.118-.03-.561.055-1.036.22-1.384.481-.701.525-1.333 1.424-1.617 2.297-.226.698-1.002 3.84-1.4 5.677-.051.235-.1.342-.255.558-.151.209-.283.347-.404.42-.08.048-.101.054-.203.053-.137-.001-.27-.055-.324-.13-.096-.134-.138-.382-.124-.73.009-.24.029-.371.131-.895.11-.565.011-.978-.317-1.318-.161-.166-.412-.313-.647-.377-.149-.041-.444-.037-.608.007-.448.12-.807.39-1.046.786-.042.07-.093.166-.113.214-.06.146-.062.146-.167-.011-.051-.077-.143-.19-.205-.251-.112-.11-.112-.11-.327-.18-.118-.038-.269-.096-.335-.129-.163-.081-.294-.122-.458-.142-.076-.01-.306-.045-.512-.079-.358-.059-.383-.065-.545-.14-.187-.087-.169-.069-.361-.369-.122-.189-.211-.268-.339-.299-.242-.058-.54.169-.564.429-.008.086-.014.099-.055.12-.082.042-.176.139-.214.22-.103.219.001.519.211.611.053.024.468.093.556.093.011 0 .091.052.177.116.153.113.159.12.291.336.074.121.172.264.217.317.046.054.098.126.115.161.056.109.22.312.312.388.049.04.12.114.158.165.191.258.417.369.851.417l.181.02.129.092c.18.129.417.243.607.292.214.055.448.048.68-.022.086-.025.159-.042.162-.036.004.006.014.095.024.198.063.678.344 1.23.846 1.665.44.382.78.538 1.374.632.212.034.627.038.812.008.339-.055.755-.243 1.089-.494.394-.295.768-.806 1.162-1.588.413-.82.632-1.479.922-2.778.147-.655.288-1.389.374-1.942.031-.197.078-.447.105-.555.141-.569.391-1.087.738-1.53.13-.165.394-.416.496-.47.231-.125.558-.12.847.011.11.051.655.452.65.479-.002.011-.093.056-.203.1-.471.188-.863.439-1.167.749-.343.348-.612.778-.756 1.207-.08.241-.099.374-.099.698 0 .386.048.674.159.962.156.4.489.732.866.863.224.077.382.053.518-.079.12-.118.177-.27.155-.419-.006-.039-.046-.13-.092-.21-.155-.267-.234-.51-.248-.76-.013-.244.058-.603.162-.82.065-.134.225-.313.388-.436.205-.153.517-.286.73-.311l.089-.01-.011.148c-.011.152-.019.201-.142.885-.04.222-.084.486-.097.586-.103.802-.055 1.591.128 2.065.005.011-.038.052-.1.096-.582.408-1.104 1.018-1.421 1.661-.366.743-.589 1.609-.589 2.288v.2l-.123.101c-.173.141-.419.391-.568.575-.586.725-.877 1.556-.847 2.422.014.394.064.657.207 1.076.261.768.652 1.357 1.148 1.73.148.111.632.347.897.437.557.19 1.132.277 1.691.257.26-.01.293-.015 2.147-.367 1.036-.196 2.353-.446 2.926-.555.573-.108 1.113-.212 1.201-.231.395-.085.845.011 1.101.233.129.112.201.294.173.44-.022.117-.227.291-.477.406-.229.104-.446.166-.893.253-.343.066-.404.085-.58.176-.349.181-.631.507-.718.831-.044.162-.05.503-.011.647.119.437.44.796.888.991.245.108.59.17.814.149.06-.006.11-.004.115.004.005.009-.026.073-.069.144s-.101.184-.13.251c-.061.144-.063.173-.034.661.019.336.046.492.114.667.017.044.04.144.049.221.031.244.058.376.099.477l.04.098-.019.251-.019.251-.129.204c-.141.222-.179.308-.179.406 0 .115.033.189.127.282.148.148.33.212.492.174.074-.018.085-.017.138.015.031.02.087.045.123.056.122.038.23.029.353-.03.137-.066.223-.147.275-.26.057-.124.045-.255-.044-.486l-.068-.174.045-.293c.045-.288.046-.294.103-.356.086-.095.123-.154.173-.274.025-.06.092-.17.149-.244.119-.155.236-.377.283-.54.019-.062.073-.215.122-.34l.088-.228-.008-.153c-.007-.119-.022-.192-.069-.332l-.06-.18.027-.223c.031-.257.033-.376.01-.564-.036-.284-.125-.499-.293-.704-.057-.07-.103-.137-.103-.151-.001-.013.061-.057.143-.102.29-.161.612-.435.82-.699.315-.401.525-1.164.47-1.712-.047-.471-.188-.896-.405-1.225-.238-.362-.614-.684-1.053-.902-.353-.175-.702-.261-1.353-.332-.255-.027-1.247-.027-1.535 0-.884.086-1.988.305-3.158.629-.201.055-.464.122-.583.149-.241.053-1.571.226-1.728.224-.108-.001-.447-.052-.6-.09-.322-.08-.592-.204-.71-.325-.086-.088-.207-.316-.243-.458-.013-.049-.028-.143-.034-.21-.011-.114-.006-.143.081-.493.052-.205.1-.372.108-.372.007 0 .075.058.151.129.616.569 1.394.823 2.036.878.865.026 1.981-.365 2.349-1.04.233-.449.237-.9.008-1.113-.09-.084-.196-.12-.35-.12-.184 0-.315.07-.409.219-.108.173-.141.215-.241.314-.178.175-.464.327-.758.401-.187.048-.459.052-.612.009-.144-.041-.382-.154-.5-.237-.164-.117-.423-.416-.429-.497-.002-.028.441-.166 1.03-.32.599-.157.991-.298 1.429-.516.42-.208.68-.386.953-.65.093-.09.176-.163.185-.163.01 0 .063.02.119.045.274.122.747.262 1.079.317.444.075.796.08 1.226.017.792-.115 1.456-.328 2.009-.647.077-.044.15-.08.162-.08s.128.035.257.077c.421.14.779.203 1.222.218.635.021 1.21-.098 1.739-.359.385-.191.625-.365.922-.67.534-.549.918-1.179 1.071-1.757.071-.27.086-.438.064-.724-.07-.933-.412-1.816-1.007-2.599-.508-.666-1.68-2.016-3.083-3.546-.505-.551-.492-.537-.683-.768-.245-.297-.339-.514-.384-.884-.036-.295.061-.51.265-.589.235-.092.72.198 1.144.683.331.379.482.509.732.631.439.215.867.204 1.292-.033.187-.105.393-.315.479-.489.099-.201.147-.405.157-.673.014-.385-.063-.684-.268-1.039-.029-.05-.049-.094-.044-.099s.151-.016.326-.026c.305-.016.32-.019.412-.065.053-.027.135-.076.183-.109.048-.034.156-.107.239-.163.169-.113.309-.244.458-.425.075-.091.125-.135.198-.174.127-.067.232-.172.291-.289l.047-.095.167-.058c.159-.056.178-.059.376-.06.318-.001.457-.039.572-.154.1-.099.126-.168.126-.337 0-.172-.027-.246-.133-.367-.051-.057-.063-.084-.072-.163-.019-.164-.129-.342-.225-.366-.005-.001-.017-.002-.035-.002zm-13.326 8.281c.014-.003.039.013.094.055.277.213.56.501.782.797.459.612.698 1.311.668 1.956-.015.323-.096.555-.256.737-.133.151-.288.202-.484.158-.371-.084-.642-.37-.773-.818-.126-.435-.161-1.335-.082-2.118.013-.135.025-.356.025-.491s.007-.256.015-.268c.002-.005.006-.008.011-.008zm2.88 4.345c.214.003.449.062.697.18.251.12.843.53 1.313.912.402.325.748.622.743.637-.012.036-.386.131-.699.177-.157.024-.787.043-.927.029-.183-.019-.509-.078-.657-.119-.414-.116-.887-.411-1.094-.681-.13-.172-.23-.42-.23-.572 0-.076.066-.2.153-.287.186-.186.426-.278.701-.276zm-2.906.746c.02 0 .039.001.059.003.229.018.411.083.5.177.087.093.118.33.068.521-.16.619-.943 1.207-2.29 1.72-.233.088-.612.202-.675.202-.015 0-.018-.016-.01-.058.042-.223.184-.597.345-.906.386-.744.93-1.296 1.527-1.546.183-.077.335-.113.476-.113z" fill="#3ffe3f" fill-rule="nonzero"/>
</svg>
