<?xml version="1.0" encoding="UTF-8" standalone="no"?><!DOCTYPE svg PUBLIC "-//W3C//DTD SVG 1.1//EN" "http://www.w3.org/Graphics/SVG/1.1/DTD/svg11.dtd"><svg width="100%" height="100%" viewBox="0 0 64 64" version="1.1" xmlns="http://www.w3.org/2000/svg" xmlns:xlink="http://www.w3.org/1999/xlink" xml:space="preserve" xmlns:serif="http://www.serif.com/" style="fill-rule:evenodd;clip-rule:evenodd;stroke-linejoin:round;stroke-miterlimit:1.41421;"><circle cx="32" cy="32" r="29.977" style="fill:url(#_Linear1);"/><circle cx="32" cy="32" r="28" style="fill:url(#_Linear2);"/><g><path d="M43.046,23.788l0,17.658l-22.092,0l0,-17.658l22.092,0Zm-5.301,13.879l0,-7.981l-1.232,0l0,7.981l1.232,0Zm-10.721,-0.192l0,-7.982l-1.231,0l0,7.982l1.231,0Zm5.505,0l0,-7.982l-1.231,0l0,7.982l1.231,0Z" style="fill:#ebebeb;"/><rect x="20.954" y="42.446" width="22.092" height="4.395" style="fill:#ebebeb;"/><circle cx="19.971" cy="23.749" r="6.94" style="fill:#ebebeb;"/><circle cx="44.029" cy="23.827" r="6.94" style="fill:#ebebeb;"/><path d="M32.617,14.998c4.83,0 8.752,3.921 8.752,8.751c0,4.831 -4.5,4.8 -9.33,4.8c-4.831,0 -8.174,0.031 -8.174,-4.8c0,-4.83 3.922,-8.751 8.752,-8.751Z" style="fill:#ebebeb;"/></g><defs><linearGradient id="_Linear1" x1="0" y1="0" x2="1" y2="0" gradientUnits="userSpaceOnUse" gradientTransform="matrix(-24.4466,-54.569,54.569,-24.4466,42.1841,60.2003)"><stop offset="0" style="stop-color:#caa17d;stop-opacity:1"/><stop offset="1" style="stop-color:#eaeaea;stop-opacity:1"/></linearGradient><linearGradient id="_Linear2" x1="0" y1="0" x2="1" y2="0" gradientUnits="userSpaceOnUse" gradientTransform="matrix(-22.8341,-50.9695,50.9695,-22.8341,41.5124,58.3401)"><stop offset="0" style="stop-color:#b17d2d;stop-opacity:1"/><stop offset="1" style="stop-color:#caa17d;stop-opacity:1"/></linearGradient></defs></svg>