<svg style="clip-rule:evenodd;fill-rule:evenodd;stroke-linejoin:round;stroke-miterlimit:2" version="1.1" viewBox="0 0 48 48" xmlns="http://www.w3.org/2000/svg">
 <circle cx="24" cy="24" r="22.764" style="fill:url(#_Linear1)"/>
 <circle cx="24" cy="24" r="21.263" style="fill:url(#_Linear2)"/>
 <path d="m32.388 17.764v13.409h-16.776v-13.409h16.776zm-4.025 10.539v-6.06h-0.936v6.06h0.936zm-8.142-0.145v-6.062h-0.934v6.062h0.934zm4.181 0v-6.062h-0.935v6.062h0.935z" style="fill:#ebebeb"/>
 <rect x="15.612" y="31.933" width="16.776" height="3.337" style="fill:#ebebeb"/>
 <circle cx="14.865" cy="17.734" r="5.27" style="fill:#ebebeb"/>
 <circle cx="33.135" cy="17.794" r="5.27" style="fill:#ebebeb"/>
 <path d="m24.469 11.089c3.667 0 6.646 2.978 6.646 6.645 0 3.669-3.418 3.645-7.085 3.645-3.669 0-6.208 0.024-6.208-3.645 0-3.667 2.979-6.645 6.647-6.645z" style="fill:#ebebeb"/>
 <defs>
  <linearGradient id="_Linear1" x2="1" gradientTransform="matrix(-18.5643,-41.4387,41.4387,-18.5643,115.564,7.8592)" gradientUnits="userSpaceOnUse">
   <stop style="stop-color:#be8f67" offset="0"/>
   <stop style="stop-color:#f3d8bf" offset="1"/>
  </linearGradient>
  <linearGradient id="_Linear2" x2="1" gradientTransform="matrix(-17.3398,-38.7053,38.7053,-17.3398,186.045,-25.357)" gradientUnits="userSpaceOnUse">
   <stop style="stop-color:#b17d2d" offset="0"/>
   <stop style="stop-color:#caa17d" offset="1"/>
  </linearGradient>
 </defs>
</svg>
