<svg style="clip-rule:evenodd;fill-rule:evenodd;stroke-linejoin:round;stroke-miterlimit:2" version="1.1" viewBox="0 0 48 48" xmlns="http://www.w3.org/2000/svg">
 <path d="m40 42v-36c0-1.108-0.892-2-2-2h-28c-1.108 0-2 0.892-2 2v36c0 1.108 0.892 2 2 2h28c1.108 0 2-0.892 2-2z" style="fill-rule:nonzero;fill:#afb225"/>
 <path d="m11.5 9c-0.274 0-0.5 0.226-0.5 0.5v5c0 0.274 0.226 0.5 0.5 0.5h3c0.274 0 0.5-0.226 0.5-0.5v-5c0-0.274-0.226-0.5-0.5-0.5h-3zm0.5 1h2v4h-2v-4z" style="fill-opacity:.5;fill-rule:nonzero;fill:#fff"/>
 <path d="m18.492 9c-0.271 4e-3 -0.492 0.228-0.492 0.499v8e-3 4.987 7e-3c0 0.274 0.225 0.499 0.5 0.499 0.274 0 0.5-0.225 0.5-0.499v-7e-3 -4.987-8e-3c0-0.274-0.226-0.499-0.5-0.499h-8e-3z" style="fill-opacity:.5;fill:#fff"/>
 <path d="m22.492 9c-0.271 4e-3 -0.492 0.228-0.492 0.499v8e-3 4.987 7e-3c0 0.274 0.225 0.499 0.5 0.499 0.274 0 0.5-0.225 0.5-0.499v-7e-3 -4.987-8e-3c0-0.274-0.226-0.499-0.5-0.499h-8e-3z" style="fill-opacity:.5;fill:#fff"/>
 <path d="m26.5 9c-0.274 0-0.5 0.226-0.5 0.5v5c0 0.274 0.226 0.5 0.5 0.5h3c0.274 0 0.5-0.226 0.5-0.5v-5c0-0.274-0.226-0.5-0.5-0.5h-3zm0.5 1h2v4h-2v-4z" style="fill-opacity:.5;fill-rule:nonzero;fill:#fff"/>
 <path d="m33.5 9c-0.274 0-0.5 0.226-0.5 0.5v5c0 0.274 0.226 0.5 0.5 0.5h3c0.274 0 0.5-0.226 0.5-0.5v-5c0-0.274-0.226-0.5-0.5-0.5h-3zm0.5 1h2v4h-2v-4z" style="fill-opacity:.5;fill-rule:nonzero;fill:#fff"/>
 <path d="m36.5 18c0.274 0 0.5 0.226 0.5 0.5v5c0 0.274-0.226 0.5-0.5 0.5h-3c-0.274 0-0.5-0.226-0.5-0.5v-5c0-0.274 0.226-0.5 0.5-0.5h3zm-0.5 1h-2v4h2v-4z" style="fill-opacity:.5;fill-rule:nonzero;fill:#fff"/>
 <path d="m29.508 18c0.271 4e-3 0.492 0.228 0.492 0.499v7e-3 4.988 7e-3c0 0.274-0.225 0.499-0.5 0.499-0.274 0-0.5-0.225-0.5-0.499v-7e-3 -4.988-7e-3c0-0.273 0.226-0.499 0.5-0.499h8e-3z" style="fill-opacity:.5;fill:#fff"/>
 <path d="m25.508 18c0.271 4e-3 0.492 0.228 0.492 0.499v7e-3 4.988 7e-3c0 0.274-0.225 0.499-0.5 0.499-0.274 0-0.5-0.225-0.5-0.499v-7e-3 -4.988-7e-3c0-0.273 0.226-0.499 0.5-0.499h8e-3z" style="fill-opacity:.5;fill:#fff"/>
 <path d="m21.5 18c0.274 0 0.5 0.226 0.5 0.5v5c0 0.274-0.226 0.5-0.5 0.5h-3c-0.274 0-0.5-0.226-0.5-0.5v-5c0-0.274 0.226-0.5 0.5-0.5h3zm-0.5 1h-2v4h2v-4z" style="fill-opacity:.5;fill-rule:nonzero;fill:#fff"/>
 <path d="m13.508 18c0.271 4e-3 0.492 0.228 0.492 0.499v7e-3 4.988 7e-3c0 0.274-0.225 0.499-0.5 0.499-0.274 0-0.5-0.225-0.5-0.499v-7e-3 -4.988-7e-3c0-0.273 0.226-0.499 0.5-0.499h8e-3z" style="fill-opacity:.5;fill:#fff"/>
 <path d="m36.5 26c0.274 0 0.5 0.226 0.5 0.5v5c0 0.274-0.226 0.5-0.5 0.5h-3c-0.274 0-0.5-0.226-0.5-0.5v-5c0-0.274 0.226-0.5 0.5-0.5h3zm-0.5 1h-2v4h2v-4z" style="fill-opacity:.5;fill-rule:nonzero;fill:#fff"/>
 <path d="m29.508 26c0.271 4e-3 0.492 0.228 0.492 0.499v7e-3 4.988 7e-3c0 0.274-0.225 0.499-0.5 0.499-0.274 0-0.5-0.225-0.5-0.499v-7e-3 -4.988-7e-3c0-0.274 0.226-0.499 0.5-0.499h8e-3z" style="fill-opacity:.5;fill:#fff"/>
 <path d="m25.508 26c0.271 4e-3 0.492 0.228 0.492 0.499v7e-3 4.988 7e-3c0 0.274-0.225 0.499-0.5 0.499-0.274 0-0.5-0.225-0.5-0.499v-7e-3 -4.988-7e-3c0-0.274 0.226-0.499 0.5-0.499h8e-3z" style="fill-opacity:.5;fill:#fff"/>
 <path d="m21.5 26c0.274 0 0.5 0.226 0.5 0.5v5c0 0.274-0.226 0.5-0.5 0.5h-3c-0.274 0-0.5-0.226-0.5-0.5v-5c0-0.274 0.226-0.5 0.5-0.5h3zm-0.5 1h-2v4h2v-4z" style="fill-opacity:.5;fill-rule:nonzero;fill:#fff"/>
 <path d="m14.5 26c0.274 0 0.5 0.226 0.5 0.5v5c0 0.274-0.226 0.5-0.5 0.5h-3c-0.274 0-0.5-0.226-0.5-0.5v-5c0-0.274 0.226-0.5 0.5-0.5h3zm-0.5 1h-2v4h2v-4z" style="fill-opacity:.5;fill-rule:nonzero;fill:#fff"/>
 <path d="m11.5 35c-0.274 0-0.5 0.226-0.5 0.5v5c0 0.274 0.226 0.5 0.5 0.5h3c0.274 0 0.5-0.226 0.5-0.5v-5c0-0.274-0.226-0.5-0.5-0.5h-3zm0.5 1h2v4h-2v-4z" style="fill-opacity:.5;fill-rule:nonzero;fill:#fff"/>
 <path d="m18.492 35c-0.271 4e-3 -0.492 0.228-0.492 0.499v7e-3 4.988 7e-3c0 0.274 0.225 0.499 0.5 0.499 0.274 0 0.5-0.225 0.5-0.499v-7e-3 -4.988-7e-3c0-0.273-0.226-0.499-0.5-0.499h-8e-3z" style="fill-opacity:.5;fill:#fff"/>
 <path d="m22.492 35c-0.271 4e-3 -0.492 0.228-0.492 0.499v7e-3 4.988 7e-3c0 0.274 0.225 0.499 0.5 0.499 0.274 0 0.5-0.225 0.5-0.499v-7e-3 -4.988-7e-3c0-0.273-0.226-0.499-0.5-0.499h-8e-3z" style="fill-opacity:.5;fill:#fff"/>
 <path d="m26.5 35c-0.274 0-0.5 0.226-0.5 0.5v5c0 0.274 0.226 0.5 0.5 0.5h3c0.274 0 0.5-0.226 0.5-0.5v-5c0-0.274-0.226-0.5-0.5-0.5h-3zm0.5 1h2v4h-2v-4z" style="fill-opacity:.5;fill-rule:nonzero;fill:#fff"/>
 <path d="m34.492 35c-0.271 4e-3 -0.492 0.228-0.492 0.499v7e-3 4.988 7e-3c0 0.274 0.225 0.499 0.5 0.499 0.274 0 0.5-0.225 0.5-0.499v-7e-3 -4.988-7e-3c0-0.273-0.226-0.499-0.5-0.499h-8e-3z" style="fill-opacity:.5;fill:#fff"/>
 <circle cx="36" cy="36" r="11" style="fill:#d2d638"/>
 <path d="m34 30c-1.108 0-2 0.892-2 2v8c0 1.108 0.892 2 2 2h4c1.108 0 2-0.892 2-2v-2h-2v1c0 0.554-0.446 1-1 1h-2c-0.554 0-1-0.446-1-1v-6c0-0.554 0.446-1 1-1h2c0.554 0 1 0.446 1 1v1h2v-2c0-1.108-0.892-2-2-2h-4z" style="fill-rule:nonzero;fill:#fff"/>
</svg>
