<svg style="clip-rule:evenodd;fill-rule:evenodd;stroke-linejoin:round;stroke-miterlimit:1.41421" version="1.1" viewBox="0 0 48 48" xmlns="http://www.w3.org/2000/svg">
 <path d="m33.087 2.734c-0.199-1.044-1.207-1.723-2.248-1.516l-27.523 5.475c-1.042 0.207-1.727 1.223-1.528 2.266l6.805 35.723c0.199 1.043 1.206 1.722 2.248 1.515l27.522-5.475c1.042-0.207 1.727-1.223 1.528-2.266l-6.804-35.722z" style="fill:url(#_Linear1)"/>
 <path d="m42.683 5.212c-0.015-1.08-0.905-1.956-1.985-1.954l-31.625 0.055c-1.08 1e-3 -1.944 0.88-1.929 1.96l0.559 39.254c0.015 1.08 0.905 1.955 1.985 1.953l31.624-0.054c1.08-2e-3 1.945-0.88 1.929-1.96l-0.558-39.254z" style="fill:url(#_Linear2)"/>
 <path d="m39.33 42.227h-28.429v-0.796h28.429v0.796zm0-2.268h-28.429v-0.824h28.429v0.824zm0-2.412h-28.429v-0.796h28.429v0.796zm0-2.461h-28.429v-0.796h28.429v0.796zm-16.058-3.861h-12.217v-0.796h12.217v0.796zm6.169-2.461h-18.386v-0.796h18.386v0.796zm-6.221-1.834h-12.072v-0.796h12.072v0.796zm6.176-1.785h-18.441v-0.824h18.441v0.824zm7.383-2.413h-25.824v-0.796h25.824v0.796zm2.605-2.46h-28.429v-0.796h28.429v0.796zm0.1-3.758h-28.429v-0.796h28.429v0.796zm0-2.268h-28.429v-0.825h28.429v0.825zm0-2.413h-28.429v-0.796h28.429v0.796zm0-2.46h-28.429v-0.797h28.429v0.797z" style="fill:#b0b0b0"/>
 <defs>
  <linearGradient id="_Linear1" x2="1" gradientTransform="matrix(5.9019,41.0024,-41.0024,5.9019,-34.6931,11.1298)" gradientUnits="userSpaceOnUse">
   <stop style="stop-color:#f64358" offset="0"/>
   <stop style="stop-color:#c61423" offset="1"/>
  </linearGradient>
  <linearGradient id="_Linear2" x2="1" gradientTransform="matrix(.346988 42.2747 -42.2747 .346988 -112.487 4.88953)" gradientUnits="userSpaceOnUse">
   <stop style="stop-color:#f4faff" offset="0"/>
   <stop style="stop-color:#cad4d8" offset="1"/>
  </linearGradient>
 </defs>
</svg>
