<svg style="clip-rule:evenodd;fill-rule:evenodd;stroke-linejoin:round;stroke-miterlimit:2" version="1.1" viewBox="0 0 48 48" xmlns="http://www.w3.org/2000/svg">
 <circle cx="23.999" cy="23.999" r="22.999" style="fill:url(#_Linear1)"/>
 <path d="m24 1c-12.691 0-23 10.309-23 23s10.309 23 23 23 23-10.309 23-23-10.309-23-23-23zm0 1.917c11.655 0 21.083 9.428 21.083 21.083s-9.428 21.083-21.083 21.083-21.083-9.428-21.083-21.083 9.428-21.083 21.083-21.083z" style="fill-rule:nonzero;fill:url(#_Linear2)"/>
 <path d="m27.054 33.583v0.958c0 0.526-0.433 0.958-0.958 0.958h-3.834c-0.525 0-0.958-0.432-0.958-0.958v-0.958h5.75zm-2.875-17.25c-3.68 0-6.708 3.028-6.708 6.708 0 2.281 1.14 4.284 2.875 5.501v2.166c0 0.525 0.432 0.958 0.958 0.958h5.75c0.526 0 0.958-0.433 0.958-0.958v-2.166c1.735-1.217 2.875-3.22 2.875-5.501 0-3.68-3.028-6.708-6.708-6.708zm11.855 9.332l-2.251-0.731c-0.535-0.173-1.108 0.119-1.282 0.653s0.119 1.108 0.653 1.282l2.252 0.731c0.104 0.034 0.209 0.05 0.314 0.05 0.429 0 0.827-0.273 0.968-0.703 0.173-0.535-0.12-1.108-0.654-1.282zm-21.817-0.731l-2.253 0.73c-0.534 0.173-0.827 0.747-0.653 1.282 0.139 0.43 0.538 0.703 0.967 0.703 0.104 0 0.21-0.016 0.315-0.05l2.252-0.73c0.534-0.174 0.827-0.747 0.653-1.282-0.172-0.534-0.742-0.826-1.281-0.653zm19.252-4.168c0.104 0 0.209-0.017 0.314-0.051l2.251-0.731c0.534-0.174 0.827-0.748 0.654-1.282-0.175-0.534-0.751-0.826-1.282-0.653l-2.252 0.731c-0.534 0.174-0.827 0.748-0.653 1.282 0.14 0.43 0.539 0.704 0.968 0.704zm-18.623-1.986l-2.252-0.732c-0.539-0.174-1.108 0.118-1.282 0.653-0.174 0.534 0.118 1.108 0.652 1.282l2.252 0.732c0.105 0.034 0.21 0.05 0.315 0.05 0.429 0 0.827-0.273 0.967-0.703 0.174-0.534-0.118-1.108-0.652-1.282zm2.477-3.413c0.2 0.275 0.51 0.42 0.825 0.42 0.207 0 0.416-0.063 0.597-0.194 0.454-0.33 0.555-0.966 0.226-1.421l-1.391-1.915c-0.331-0.454-0.966-0.557-1.422-0.226-0.454 0.33-0.555 0.966-0.225 1.421l1.39 1.915zm13.097-3.11c0.331-0.455 0.964-0.558 1.421-0.226 0.454 0.33 0.556 0.966 0.226 1.421l-1.391 1.915c-0.2 0.275-0.51 0.42-0.825 0.42-0.206 0-0.416-0.063-0.597-0.194-0.454-0.33-0.555-0.966-0.225-1.421l1.391-1.915zm-6.421 1.628c0.563 0 1.018-0.456 1.018-1.017v-2.367c0-0.562-0.455-1.018-1.018-1.018-0.562 0-1.017 0.456-1.017 1.018v2.367c0 0.561 0.455 1.017 1.017 1.017z" style="fill-rule:nonzero;fill:url(#_Linear3)"/>
 <defs>
  <linearGradient id="_Linear1" x2="1" gradientTransform="matrix(2.716e-15,-44.3556,44.3556,2.716e-15,23.0505,45.9154)" gradientUnits="userSpaceOnUse">
   <stop style="stop-color:#c61423" offset="0"/>
   <stop style="stop-color:#ff4c63" offset="1"/>
  </linearGradient>
  <linearGradient id="_Linear2" x2="1" gradientTransform="matrix(2.93405e-15,-47.9166,47.9166,2.93405e-15,24.9575,46.9992)" gradientUnits="userSpaceOnUse">
   <stop style="stop-color:#e6e6e6;stop-opacity:.3" offset="0"/>
   <stop style="stop-color:#fff;stop-opacity:.3" offset="1"/>
  </linearGradient>
  <linearGradient id="_Linear3" x2="1" gradientTransform="matrix(-.13602 -46.0086 46.0086 -.13602 408.571 546.798)" gradientUnits="userSpaceOnUse">
   <stop style="stop-color:#e6e6e6" offset="0"/>
   <stop style="stop-color:#fff" offset="1"/>
  </linearGradient>
 </defs>
</svg>
