<svg style="clip-rule:evenodd;fill-rule:evenodd;stroke-linejoin:round;stroke-miterlimit:2" version="1.1" viewBox="0 0 48 48" xmlns="http://www.w3.org/2000/svg">
 <circle cx="24" cy="24" r="22.764" style="fill:url(#_Linear1)"/>
 <path d="m34.064 20.254-7.355-5.495-8.808 0.281-5.798 6.574 0.212 6.982 6.568 5.231 4.555-5e-3 3.752-1.661 2.418-4.83-1.379-5.426-3.894-2.495-3.645 0.295-2.938 2.976-0.352 3.603 3.776 2.912 2.738-0.721-0.159-1.57-1.915-0.299-2.028-1.827 1.093-2.631 3.067-0.273 2.9 2.207 0.079 3.721-1.63 2.97-5.649 1.051-5.116-4.19 0.092-6.533 5.086-4.282 6.899 0.349 5.466 4.743 0.384 8.117-4.794 5.939-7.289 1.691-8.845-3.895-3.49-6.498 1.376-8.981 8.456-7.21 9.149-0.732 6.972 2.87 4.263 5.358 1.654 7.762-4.472 1.123-1.399-7.201z" style="fill-rule:nonzero;fill:#0b2496"/>
 <defs>
  <linearGradient id="_Linear1" x2="1" gradientTransform="matrix(2.78787e-15,-45.5294,45.5294,2.78787e-15,210.898,46.7647)" gradientUnits="userSpaceOnUse">
   <stop style="stop-color:#c0c0c0" offset="0"/>
   <stop style="stop-color:#f6f6f6" offset="1"/>
  </linearGradient>
 </defs>
</svg>
