<svg style="clip-rule:evenodd;fill-rule:evenodd;stroke-linejoin:round;stroke-miterlimit:2" version="1.1" viewBox="0 0 48 48" xmlns="http://www.w3.org/2000/svg">
 <g transform="matrix(1.09677,0,0,1.09677,-2.32258,-2.32258)">
  <path d="m20.434 4.004c-0.26-0.01-0.518-2e-3 -0.775 0.02-0.693 0.057-1.38 0.237-2.047 0.556-2.429 1.161-3.201 2.354-3.958 4.542-0.251-0.034-0.485-0.124-0.74-0.148-0.407-0.038-0.816-0.057-1.227-0.053-1.423 0.016-2.845 0.282-4.192 1.031-1.346 0.749-2.597 2.125-3.086 3.797-0.569 1.948-0.509 2.201-0.039 3.994 0.62 2.366 2.722 4.378 5.057 4.952 0.78 0.192 1.274 0.222 1.779 0.246-0.106 0.477-0.223 0.964-0.303 1.347-0.171 0.813-0.532 2.413-0.771 3.418-0.767 3.219-1.006 4.742-0.997 6.51 0.01 2.174 1.002 4.877 2.471 6.324 0.592 0.583 1.606 1.299 2.375 1.676 1.147 0.562 2.427 0.951 3.855 1.212 1.647 0.299 3.633 0.444 5.577 0.509 1.943 0.065 3.375 0.171 5.206-0.227 1.026-0.222 2.035-0.551 2.941-0.997 2.328-1.144 4.335-3.434 5.06-5.922 0.409-1.404 0.534-2.141 0.407-3.736-0.013-0.168-0.058-0.736-0.097-1.241-0.049-0.628-0.179-2.013-0.306-3.282-0.189-1.89-0.235-3.184-0.331-4.584 0.993 0.062 2.013 0.012 3.086-0.271 1.385-0.366 3.065-1.141 4.034-2.976 0.97-1.834 0.587-3.948-0.066-5.29-1.184-2.433-3.764-3.828-6.182-4.257-0.418-0.075-0.785-0.043-1.172-0.065-0.021-0.524 0.021-1.042-0.125-1.572-1.308-3.39-4.502-5.339-7.021-5.245-0.377 0.017-0.853 0.052-1.546 0.355-0.692 0.302-1.72 1.066-2.192 2.281-0.295 0.759-0.196 0.764-0.179 0.936-0.341-1.383-1.176-2.609-2.084-3.133-0.836-0.484-1.632-0.677-2.412-0.707z" style="fill-rule:nonzero;fill:url(#_Linear1)"/>
 </g>
 <g transform="matrix(1.09677,0,0,1.09677,-2.32258,-2.32258)">
  <path d="m19.889 8.006c-0.219 0.018-0.446 0.076-0.662 0.18-0.741 0.353-1.667 1.458-1.969 2.349-0.317 0.936-0.343 2.05-0.072 3.092 0.129 0.497 0.422 1.217 0.496 1.217 0.02 0 0.177-0.107 0.349-0.237 0.347-0.261 0.886-0.538 1.395-0.72 0.486-0.175 0.494-0.184 0.42-0.543-0.036-0.172-0.066-0.608-0.067-0.971-2e-3 -0.823 0.184-1.42 0.707-2.258 0.509-0.815 0.645-1.101 0.645-1.357 0-0.505-0.585-0.807-1.242-0.752zm9.07 0.258c-0.11 5e-3 -0.186 0.035-0.209 0.093-0.022 0.058 0.042 0.532 0.143 1.053 0.369 1.915 0.142 3.147-0.854 4.61-0.204 0.3-0.289 0.478-0.246 0.521 0.107 0.106 2.029 1.077 2.148 1.086 0.06 4e-3 0.212-0.104 0.336-0.24 0.535-0.584 1.128-1.525 1.42-2.256 0.763-1.906 0.338-3.447-1.199-4.35-0.554-0.325-1.208-0.533-1.539-0.517zm-17.355 4.658c-1.838 0.02-3.149 0.736-3.506 1.957-0.126 0.43-0.13 1.391-8e-3 1.857 0.28 1.068 1.052 1.817 2.156 2.088 0.527 0.129 1.811 0.131 2.531 4e-3 0.81-0.143 2.092-0.581 2.883-0.98 0.365-0.184 0.701-0.359 0.748-0.393 0.075-0.053 0.482-1.051 0.483-1.184 0-0.026-0.148 0.026-0.328 0.118-0.413 0.21-2.237 0.746-3.043 0.892-0.852 0.155-1.928 0.153-2.332-4e-3 -0.411-0.159-0.599-0.425-0.598-0.843 1e-3 -0.463 0.182-0.852 0.556-1.194 0.486-0.443 0.786-0.532 1.965-0.566 1.065-0.031 1.836 0.054 2.977 0.326 0.664 0.158 1.012 0.355 1.07 0.605l0.039 0.166 0.108-0.154c0.1-0.146 0.097-0.182-0.059-0.574-0.091-0.23-0.231-0.491-0.308-0.576-0.173-0.189-1.455-0.828-2.053-1.024-0.701-0.229-1.599-0.406-2.463-0.486-0.283-0.026-0.556-0.038-0.818-0.035zm23.066 2.088c-0.643 0.025-1.299 0.102-1.828 0.226-0.842 0.198-1.648 0.488-2.035 0.733l-0.229 0.144 0.363 0.336c0.2 0.185 0.413 0.353 0.475 0.375 0.063 0.023 0.364-0.082 0.684-0.24 0.881-0.435 1.695-0.628 2.857-0.672 0.87-0.033 1.032-0.021 1.447 0.109 0.713 0.224 1.095 0.713 0.992 1.276-0.102 0.562-0.517 0.896-1.265 1.016-0.453 0.072-1.727-0.034-2.889-0.243-0.294-0.052-0.557-0.082-0.586-0.064-0.028 0.018 0.018 0.159 0.102 0.312 0.699 1.287 3.505 2.048 5.56 1.506 1.566-0.412 2.051-1.327 1.405-2.652-0.533-1.093-1.625-1.779-3.303-2.076-0.478-0.085-1.107-0.112-1.75-0.086zm-21.824 0.543c-1.311 0.037-1.774 0.214-1.571 0.599 0.236 0.446 1.232 0.49 3.014 0.131 1.101-0.222 1.383-0.311 1.289-0.406-0.035-0.035-0.438-0.128-0.896-0.207-0.674-0.116-1.025-0.14-1.836-0.117zm22.324 1.246c-0.985-0.032-2.172 0.14-2.024 0.293 0.018 0.018 0.362 0.08 0.766 0.138 0.404 0.059 0.81 0.118 0.902 0.133s0.539 0.032 0.993 0.037c0.741 9e-3 0.822-4e-3 0.802-0.109-0.012-0.064-0.172-0.194-0.355-0.291-0.286-0.152-0.436-0.18-1.084-0.201zm-3.236 0.945c-0.126 0-0.174 0.043-0.204 0.182-0.098 0.456-0.268 0.793-0.523 1.039-0.63 0.608-1.584 0.571-2.91-0.115l-0.647-0.334-0.429 0.459c-0.905 0.969-2.142 1.295-3.092 0.814-0.32-0.162-0.574-0.564-0.668-1.055-0.037-0.192-0.066-0.359-0.066-0.373 0-0.083-0.192 6e-3 -0.364 0.17-0.572 0.547-1.575 0.95-2.361 0.949-0.774 0-1.164-0.248-1.44-0.914-0.067-0.162-0.144-0.294-0.169-0.295-0.026 0-0.183 0.092-0.35 0.204-0.823 0.551-1.956 0.614-2.387 0.134-0.253-0.281-0.373-0.152-0.375 0.409-2e-3 0.57-0.116 1.192-0.529 2.878-0.218 0.889-0.546 2.341-0.732 3.229-0.187 0.888-0.546 2.476-0.797 3.527-0.756 3.168-0.898 4.058-0.891 5.569 8e-3 1.75 0.292 2.524 1.281 3.496 0.499 0.49 0.674 0.612 1.338 0.937 0.867 0.424 1.578 0.645 2.824 0.871 2.52 0.458 7.762 0.632 9.256 0.309 0.826-0.179 1.405-0.371 2.033-0.68 1.623-0.795 2.526-1.838 2.998-3.457 0.176-0.601 0.305-1.743 0.26-2.301-0.014-0.181-0.058-0.744-0.097-1.251-0.04-0.508-0.174-1.945-0.299-3.196-0.355-3.546-0.504-5.619-0.629-8.734-0.032-0.798-0.077-1.564-0.102-1.703-0.036-0.202-0.016-0.291 0.096-0.442 0.184-0.246 0.176-0.326-0.025-0.326zm-5.614 3.66c0.717-4e-3 1.241 0.392 1.561 1.176 0.108 0.264 0.14 0.49 0.142 1.031 3e-3 0.654-0.01 0.719-0.216 1.133-0.253 0.507-0.739 0.978-1.252 1.215-0.376 0.173-0.641 0.19-0.938 0.062-0.296-0.127-0.612-0.516-0.74-0.912-0.17-0.524-0.203-1.642-0.063-2.164 0.063-0.233 0.145-0.542 0.18-0.687 0.127-0.523 0.636-0.85 1.326-0.854zm-4.703 0.151c0.371 0.068 1.026 0.742 1.221 1.256 0.327 0.859 0.072 1.919-0.643 2.675-0.473 0.502-0.848 0.626-1.257 0.416-0.331-0.169-0.545-0.413-0.741-0.841-0.291-0.639-0.261-1.525 0.088-2.637 0.196-0.624 0.739-0.979 1.332-0.869zm4.41 0.675c-0.165-8e-3 -0.314 0.017-0.402 0.081-0.224 0.161-0.406 1.374-0.244 1.627 0.053 0.082 0.092 0.07 0.25-0.075 0.269-0.247 0.464-0.331 0.779-0.336 0.366-5e-3 0.657 0.151 0.813 0.436 0.134 0.246 0.234 0.256 0.234 0.025 0-0.566-0.478-1.4-0.934-1.629-0.151-0.076-0.331-0.12-0.496-0.129zm-4.996 0.151c-0.224 0-0.314 0.217-0.373 0.9-0.057 0.671-0.034 0.703 0.354 0.51 0.174-0.087 0.41-0.158 0.525-0.158s0.326 0.059 0.469 0.131 0.273 0.119 0.289 0.103c0.072-0.071-0.074-0.505-0.268-0.793-0.238-0.355-0.724-0.693-0.996-0.693zm-1.81 10.404c0.073-0.012 0.129 3e-3 0.217 0.039 0.106 0.044 0.264 0.189 0.353 0.321 0.352 0.524 0.25 1.295-0.242 1.808-0.254 0.265-0.296 0.283-0.658 0.309-0.382 0.027-0.39 0.024-0.639-0.221-0.237-0.234-0.253-0.27-0.252-0.613 0-0.257 0.046-0.462 0.156-0.696 0.223-0.472 0.37-0.63 0.752-0.82 0.152-0.075 0.24-0.115 0.313-0.127zm6.049 0.215 0.486 0.029c1.046 0.063 1.446 0.584 1.129 1.471-0.303 0.845-1.235 1.59-1.867 1.492-0.432-0.067-0.722-0.791-0.627-1.566 0.058-0.477 0.145-0.647 0.556-1.084l0.323-0.342zm-6.403 0.551c-0.044 0.014-0.135 0.125-0.203 0.248-0.104 0.188-0.111 0.248-0.047 0.387 0.042 0.09 0.169 0.203 0.281 0.252 0.255 0.109 0.317 0.111 0.413 0.017 0.155-0.153 0.09-0.483-0.143-0.713-0.121-0.119-0.257-0.205-0.301-0.191zm6.231 0.416-0.024 0.248c-0.013 0.135 0.012 0.366 0.057 0.514 0.135 0.443 0.52 0.47 0.949 0.066 0.438-0.412 0.147-0.824-0.584-0.826l-0.398-2e-3z" style="fill-rule:nonzero;fill:white"/>
 </g>
 <defs>
  <linearGradient id="_Linear1" x2="1" gradientTransform="matrix(1.07075,-38.6606,38.6606,1.07075,24,43.9819)" gradientUnits="userSpaceOnUse">
   <stop style="stop-color:rgb(51,51,51)" offset="0"/>
   <stop style="stop-color:rgb(79,79,79)" offset="1"/>
  </linearGradient>
 </defs>
</svg>
