<svg style="clip-rule:evenodd;fill-rule:evenodd;stroke-linejoin:round;stroke-miterlimit:2" version="1.1" viewBox="0 0 64 64" xmlns="http://www.w3.org/2000/svg">
 <circle cx="32" cy="32" r="26.1" style="fill:url(#_Linear1)"/>
 <path d="m36.4 26.202l-17.398-11.604v7.036l6.844 4.568-6.844 4.56v7.036l17.398-11.596z" style="fill-rule:nonzero;fill:#009258"/>
 <path d="m45.002 26.199l-17.398 11.604 17.398 11.595v-7.035l-6.845-4.56 6.845-4.568v-7.036z" style="fill-rule:nonzero;fill:#1d61d2"/>
 <path d="m57.372 18.001l-4.877 3.246c1.758 3.313 2.686 7.003 2.705 10.753 0 12.727-10.473 23.2-23.2 23.2-6.906-0.015-13.457-3.113-17.85-8.442l-4.86 3.234c5.316 6.698 13.514 11.008 22.71 11.008 15.99 0 29-13.009 29-29 0-5.077-1.325-9.844-3.628-13.999z" style="fill-rule:nonzero;fill:#009258"/>
 <path d="m32 3c-15.991 0-29 13.009-29 29 0 4.719 1.137 9.176 3.146 13.118l4.9-3.26c-1.464-3.081-2.231-6.447-2.246-9.858 0-12.727 10.473-23.2 23.2-23.2 6.554 0.015 12.805 2.806 17.19 7.678l4.889-3.252c-5.323-6.251-13.245-10.226-22.079-10.226z" style="fill-rule:nonzero;fill:#1d61d2"/>
 <defs>
  <linearGradient id="_Linear1" x2="1" gradientTransform="matrix(-.674938 -50.8983 50.8983 -.674938 32 58.2829)" gradientUnits="userSpaceOnUse">
   <stop style="stop-color:#c7c7c7" offset="0"/>
   <stop style="stop-color:#fff" offset="1"/>
  </linearGradient>
 </defs>
</svg>
