<svg style="clip-rule:evenodd;fill-rule:evenodd;stroke-linejoin:round;stroke-miterlimit:2" version="1.1" viewBox="0 0 48 48" xmlns="http://www.w3.org/2000/svg">
 <path d="m39.44 2.332c3.438 0 6.228 2.79 6.228 6.228v30.88c0 3.438-2.79 6.228-6.228 6.228h-30.88c-3.438 0-6.228-2.79-6.228-6.228v-30.88c0-3.438 2.79-6.228 6.228-6.228h30.88z" style="fill:url(#_Linear1)"/>
 <path d="m2.332 10.72v-2.16c0-3.438 2.79-6.228 6.228-6.228h30.88c3.438 0 6.228 2.79 6.228 6.228v2.16h-43.336z" style="fill-opacity:.5;fill:#ebebeb"/>
 <path d="m34.894 5.684c0.246-0.309 0.721-0.296 0.952-0.071 0.232 0.226 0.221 0.664-0.029 1.096-0.175 0.324-0.612 0.642-0.973 0.851-0.35-0.229-0.769-0.569-0.927-0.902-0.225-0.445-0.213-0.884 0.03-1.096 0.244-0.213 0.719-0.2 0.947 0.122zm0.406 0.22c0.115 0.019 0.207 0.096 0.204 0.21-3e-3 0.111-0.099 0.196-0.215 0.197-0.135 1e-3 -0.208-0.097-0.205-0.209 3e-3 -0.113 0.078-0.221 0.216-0.198zm-0.828-0.021c0.133-0.019 0.208 0.097 0.205 0.21-3e-3 0.112-0.05 0.193-0.215 0.198-0.116 3e-3 -0.208-0.097-0.205-0.209 3e-3 -0.113 0.1-0.182 0.215-0.199z" style="fill:#fff"/>
 <path d="m41.289 5.705 0.354 0.375 0.56-0.531 0.447 0.472-0.56 0.531 0.355 0.374c0.121 0.127 0.12 0.325-2e-3 0.44s-0.319 0.106-0.439-0.021l-0.355-0.375-0.562 0.532-0.448-0.472 0.563-0.504-0.355-0.403c-0.121-0.127-0.119-0.324 2e-3 -0.439 0.122-0.116 0.319-0.106 0.44 0.021z" style="fill:#fff"/>
 <path d="m38.233 5.621 4e-3 -0.144 0.514 0.014-5e-3 0.143 0.278 8e-3c0.266 8e-3 0.477 0.23 0.47 0.496l-0.026 0.966c-7e-3 0.267-0.23 0.477-0.496 0.47l-1.068-0.029c-0.267-7e-3 -0.477-0.229-0.47-0.496l0.026-0.966c7e-3 -0.267 0.23-0.477 0.496-0.47l0.277 8e-3zm-0.154 0.42c0.138 3e-3 0.248 0.119 0.244 0.257-3e-3 0.139-0.119 0.248-0.258 0.244-0.138-3e-3 -0.247-0.119-0.243-0.257 3e-3 -0.138 0.119-0.248 0.257-0.244zm0.856 0.023c0.138 4e-3 0.247 0.119 0.244 0.257-4e-3 0.139-0.119 0.248-0.258 0.245-0.139-4e-3 -0.248-0.119-0.244-0.258 4e-3 -0.138 0.119-0.248 0.258-0.244z" style="fill:#fff"/>
 <path d="m24.722 26.176c4.673 0.397 8.143 4.521 7.744 9.201-0.399 4.682-4.515 8.159-9.188 7.761s-8.142-4.521-7.744-9.202 4.516-8.159 9.188-7.76z" style="fill:#003ba1"/>
 <path d="m26.083 38.487c-0.202 0-0.403-0.087-0.55-0.257-0.376-0.438-0.911-0.689-1.469-0.689-0.566 0-1.088 0.243-1.467 0.686-0.275 0.321-0.744 0.345-1.048 0.054s-0.328-0.787-0.053-1.107c0.656-0.762 1.592-1.2 2.568-1.2 0.977 0 1.913 0.439 2.569 1.202 0.275 0.321 0.253 0.817-0.051 1.108-0.142 0.136-0.321 0.203-0.499 0.203zm1.648-1.961c-0.19 0-0.379-0.077-0.524-0.229-0.841-0.882-1.956-1.369-3.143-1.369s-2.304 0.486-3.143 1.366c-0.29 0.305-0.76 0.304-1.049-3e-3s-0.288-0.804 3e-3 -1.109c1.118-1.174 2.607-1.822 4.19-1.822 1.581 0 3.068 0.649 4.189 1.825 0.291 0.306 0.293 0.803 3e-3 1.11-0.145 0.153-0.336 0.23-0.526 0.23v1e-3zm1.643-1.958c-0.185 0-0.37-0.073-0.514-0.219-1.296-1.312-2.999-2.034-4.796-2.034-1.8 0-3.503 0.721-4.796 2.032-0.295 0.3-0.766 0.289-1.049-0.022-0.285-0.313-0.274-0.81 0.021-1.11 1.571-1.591 3.639-2.468 5.824-2.468 2.181 0 4.25 0.877 5.823 2.47 0.297 0.299 0.306 0.796 0.023 1.109-0.146 0.16-0.341 0.242-0.536 0.242z" style="fill-opacity:.87;fill-rule:nonzero;fill:#fff"/>
 <path d="m23.524 41.153h-0.102c-0.096 0-0.173-0.079-0.173-0.174v-0.293c-0.413-0.104-0.531-0.349-0.531-0.853 0-0.743 0.603-1.346 1.346-1.346s1.346 0.603 1.346 1.346c0 0.496-0.126 0.741-0.53 0.848v0.296c0 0.097-0.078 0.175-0.174 0.175h-0.101c-0.096 0-0.174-0.078-0.174-0.175v-0.233c-0.046 4e-3 -0.093 5e-3 -0.142 7e-3v0.228c0 0.095-0.078 0.173-0.174 0.173h-0.101c-0.096 0-0.174-0.078-0.174-0.173v-0.227c-0.049-2e-3 -0.097-3e-3 -0.143-6e-3v0.233c0 0.095-0.078 0.174-0.173 0.174zm-0.018-1.867c0.229 0.089 0.414 0.179 0.414 0.401 0 0.221-0.15 0.263-0.414 0.4-0.202 0.105-0.413-0.179-0.413-0.4 0-0.222 0.2-0.484 0.413-0.401zm1.111 0c0.219-0.063 0.413 0.179 0.413 0.401 0 0.221-0.217 0.517-0.413 0.4-0.241-0.143-0.414-0.179-0.414-0.4 0-0.222 0.161-0.33 0.414-0.401z" style="fill:#dfecfe"/>
 <defs>
  <linearGradient id="_Linear1" x2="1" gradientTransform="matrix(41.0323,-30.4913,30.4913,41.0323,254.847,376.629)" gradientUnits="userSpaceOnUse">
   <stop style="stop-color:#2c7eb6" offset="0"/>
   <stop style="stop-color:#81427a" offset="1"/>
  </linearGradient>
 </defs>
</svg>
