<svg style="clip-rule:evenodd;fill-rule:evenodd" version="1.1" viewBox="0 0 48 48" xmlns="http://www.w3.org/2000/svg">
 <path d="m37.02 1.667c2.783 0 5.039 2.257 5.039 5.04v10.556c0.794 2.101 1.229 4.372 1.229 6.737s-0.435 4.636-1.229 6.737v10.556c0 2.783-2.256 5.04-5.039 5.04h-0.702-24.636c-0.498 0-0.974-0.092-1.412-0.26-1.998-0.669-3.438-2.557-3.438-4.78v-8.551c-1.354-2.63-2.12-5.604-2.12-8.742s0.766-6.112 2.12-8.742v-8.551c0-2.223 1.439-4.11 3.436-4.78 0.438-0.168 0.915-0.26 1.414-0.26h25.338z" style="fill:url(#_Linear1)"/>
 <circle cx="24" cy="24" r="16.254" style="fill:url(#_Linear2);stroke-width:2px;stroke:#4d4d4d"/>
 <circle cx="24" cy="24" r="10.152" style="fill:#a01e10"/>
 <path d="m28.554 19.097c1.661 0.174 2.698-1.293 2.623-1.444-0.07-0.142-1.604 0.158-3.704-0.921-0.865-0.444-2.34 0.204-2.441 0.69l-1.453 10.351c-0.559-0.421-1.814-0.487-2.651-0.38-1.512 0.195-2.446 1.198-2.302 2.435 0.145 1.234 1.252 1.743 2.763 1.548 1.207-0.156 2.818-0.733 3.082-2.361l1.347-9.073s0.58-1.071 2.736-0.845z" style="fill-rule:nonzero;fill:url(#_Linear3)"/>
 <path d="m38.523 39.832c0-0.603-0.49-1.094-1.093-1.094h-2.186c-0.603 0-1.092 0.491-1.092 1.094v3.772c0 0.604 0.489 1.093 1.092 1.093h2.186c0.603 0 1.093-0.489 1.093-1.093v-3.772z" style="fill:#5fb7ce"/>
 <defs>
  <linearGradient id="_Linear1" x2="1" gradientTransform="matrix(-.476427 -44.666 44.666 -.476427 97.8031 45.5388)" gradientUnits="userSpaceOnUse">
   <stop style="stop-color:#bcbcbc" offset="0"/>
   <stop style="stop-color:#e2e2e2" offset="1"/>
  </linearGradient>
  <linearGradient id="_Linear2" x2="1" gradientTransform="matrix(.0845073 -32.6197 32.6197 .0845073 254.054 40.6971)" gradientUnits="userSpaceOnUse">
   <stop style="stop-color:#d15a24" offset="0"/>
   <stop style="stop-color:#ffd42a" offset="1"/>
  </linearGradient>
  <linearGradient id="_Linear3" x2="1" gradientTransform="matrix(2.60044,-18.5124,18.5124,2.60044,521.076,102.359)" gradientUnits="userSpaceOnUse">
   <stop style="stop-color:#d5d5d5" offset="0"/>
   <stop style="stop-color:#fcf9f9" offset="1"/>
  </linearGradient>
 </defs>
</svg>
