<svg style="clip-rule:evenodd;fill-rule:evenodd;stroke-linejoin:round;stroke-miterlimit:2" version="1.1" viewBox="0 0 48 48" xmlns="http://www.w3.org/2000/svg">
 <path d="m47.312 10.595c0-0.976-0.388-1.911-1.077-2.601-0.69-0.691-1.627-1.079-2.603-1.079h-39.264c-0.976 0-1.913 0.388-2.603 1.079-0.689 0.69-1.077 1.625-1.077 2.601v27.823c0 0.976 0.388 1.911 1.077 2.602 0.69 0.69 1.627 1.078 2.603 1.078h39.264c0.976 0 1.913-0.388 2.603-1.078 0.689-0.691 1.077-1.626 1.077-2.602v-27.823z" style="fill-opacity:.67"/>
 <path d="m43.833 5.902c1.922 0 3.479 1.558 3.479 3.479v28.225c0 1.921-1.557 3.479-3.479 3.479h-39.666c-1.922 0-3.479-1.558-3.479-3.479v-28.225c0-1.921 1.557-3.479 3.479-3.479h39.666z" style="fill:url(#_Linear1)"/>
 <path d="m4.167 5.902h19.833v35.183h-19.833c-1.922 0-3.479-1.558-3.479-3.479v-28.225c0-1.921 1.557-3.479 3.479-3.479z" style="fill:url(#_Linear2)"/>
 <path d="m18.979 14.935c-0.617-0.107-1.557-0.148-3.154-0.149l-2.881-3e-3 0.044 5.49 0.048 5.489 3-8e-3c2.652-0.01 3.09-0.057 3.843-0.395 1.658-0.753 2.911-2.006 2.815-5.214-0.094-3.209-1.369-4.436-3.182-5.076-0.171-0.057-0.346-0.101-0.524-0.131l-9e-3 -3e-3zm-0.978 2.384c0.849 0.14 1.414 0.496 1.908 1.155 0.303 0.412 0.379 0.774 0.376 1.847-1e-3 1.485-0.295 2.082-1.324 2.685-0.755 0.441-3.074 0.642-3.214 0.278-0.055-0.142-0.076-1.563-0.049-3.156l0.053-2.896 1.284 5e-3c0.355 1e-3 0.671 0.025 0.954 0.071l0.012 0.011zm-12.634 1.28l0.018-1.341 1.458-0.023c1.277-0.022 1.509 0.01 1.829 0.241 0.467 0.336 0.65 0.966 0.463 1.567-0.216 0.69-0.641 0.849-2.337 0.875l-1.45 0.022 0.019-1.341zm-0.078 7.078c0.102-0.107 0.147-0.666 0.13-1.646l-0.026-1.479 0.884 0.026 0.883 0.027 1.039 1.484c0.571 0.816 1.126 1.532 1.233 1.59 0.28 0.147 2.722 0.019 2.776-0.148 0.024-0.076-0.502-0.923-1.168-1.88l-1.214-1.743 0.296-0.193c0.632-0.415 1.465-1.421 1.612-1.947 0.198-0.691 0.176-2.027-0.039-2.718-0.106-0.336-0.416-0.779-0.836-1.188-1.042-1.009-1.477-1.093-5.128-0.994l-3.004 0.082 0.048 5.3c0.029 2.916 0.081 5.376 0.114 5.463 0.088 0.221 2.186 0.193 2.403-0.031l-3e-3 -5e-3zm7.585 7.718c0.014-0.451-0.038-0.84-0.131-0.947-0.129-0.148-0.954-0.161-4.777-0.102-2.542 0.039-4.713 0.109-4.826 0.155-0.155 0.063-0.201 0.276-0.191 0.897 6e-3 0.449 0.051 0.854 0.102 0.904 0.051 0.046 2.274 0.036 4.941-0.024l4.852-0.109 0.03-0.774z" style="fill-rule:nonzero;fill:#fff"/>
 <defs>
  <linearGradient id="_Linear1" x2="1" gradientTransform="matrix(45.125,0,0,45.125,1.43749,579.307)" gradientUnits="userSpaceOnUse">
   <stop style="stop-color:#9400ff" offset="0"/>
   <stop style="stop-color:#d9317b" offset="1"/>
  </linearGradient>
  <linearGradient id="_Linear2" x2="1" gradientTransform="matrix(-.363346 -25.361 25.361 -.363346 979.897 23.6123)" gradientUnits="userSpaceOnUse">
   <stop style="stop-color:#147966;stop-opacity:.22" offset="0"/>
   <stop style="stop-color:#2dcbc6;stop-opacity:.22" offset="1"/>
  </linearGradient>
 </defs>
</svg>
