<svg style="clip-rule:evenodd;fill-rule:evenodd;stroke-linejoin:round;stroke-miterlimit:2" version="1.1" viewBox="0 0 48 48" xmlns="http://www.w3.org/2000/svg">
 <path d="m6.399 45.363h19.042l-1e-3 -43.099-18.857-0.059c-3.166 0.058-4.486 1.251-4.569 4.417v34.223c0.012 2.752 2.216 4.518 4.385 4.518z" style="fill:url(#_Linear1)"/>
 <path d="m42.397 45.363l-12.085-0.014v-43.099l12.431-0.045c2.16 0.026 3.24 1.708 3.24 3.729v35.526c0.094 2.219-1.372 3.855-3.586 3.903z" style="fill:url(#_Linear2)"/>
 <path d="m42.838 43.097c-0.04 2.642-1.222 4.026-3.552 4.123l-16.083-1.878v-43.078l16.584-1.555c2.209-0.223 3.174 0.962 3.191 3.337l-0.14 39.051z" style="fill:url(#_Linear3)"/>
 <path d="m31.522 17.45c0.058-0.16 0.099-0.323 0.099-0.496 0-2.121-4.583-3.265-8.897-3.265-4.309 0-8.891 1.144-8.891 3.265 0 0.174 0.04 0.337 0.098 0.497l-0.023 0.043c-0.197 0.357-0.294 0.718-0.294 1.073v2.625c0 0.404 0.127 0.792 0.352 1.159l-0.029 0.051c-0.215 0.373-0.323 0.75-0.323 1.123v2.624c0 0.391 0.12 0.767 0.333 1.124l-0.011 0.023c-0.215 0.372-0.323 0.75-0.323 1.122v2.625c0 2.332 4.002 4.159 9.111 4.159 5.114 0 9.115-1.827 9.115-4.159v-2.625c0-0.373-0.108-0.752-0.325-1.123l-9e-3 -0.023c0.211-0.357 0.334-0.733 0.334-1.125v-2.624c0-0.373-0.108-0.752-0.325-1.124l-0.029-0.05c0.226-0.367 0.354-0.754 0.354-1.16v-2.624c0-0.355-0.099-0.717-0.294-1.075l-0.024-0.042 1e-3 2e-3zm-0.659 13.583c0 1.507-3.34 3.184-8.139 3.184-4.794 0-8.135-1.677-8.135-3.184v-2.468c1.496 1.371 4.574 2.245 8.135 2.245 3.566 0 6.644-0.875 8.139-2.246v2.469zm0-4.886c0 1.506-3.34 3.183-8.139 3.183-4.794 0-8.135-1.677-8.135-3.183v-2.469c1.496 1.37 4.574 2.245 8.135 2.245 3.566 0 6.644-0.875 8.139-2.246v2.47zm0-4.957c0 1.505-3.34 3.183-8.139 3.183-4.794 0-8.135-1.677-8.135-3.183v-2.184c1.462 1.239 4.852 1.882 8.135 1.882 3.287 0 6.676-0.643 8.139-1.882v2.184z" style="fill-rule:nonzero;fill:url(#_Linear4)"/>
 <defs>
  <linearGradient id="_Linear1" x2="1" gradientTransform="matrix(2.58389e-15,-42.2364,42.1981,2.58624e-15,14.5646,44.3387)" gradientUnits="userSpaceOnUse">
   <stop style="stop-color:#8e44ad" offset="0"/>
   <stop style="stop-color:#c370e5" offset="1"/>
  </linearGradient>
  <linearGradient id="_Linear2" x2="1" gradientTransform="matrix(.79491 41.4949 -41.4949 .79491 44.2716 4.33297)" gradientUnits="userSpaceOnUse">
   <stop style="stop-color:#f6fbff" offset="0"/>
   <stop style="stop-color:#eaeff2" offset="1"/>
  </linearGradient>
  <linearGradient id="_Linear3" x2="1" gradientTransform="matrix(2.80035e-15,-45.4796,45.7331,2.78482e-15,33.5323,45.9233)" gradientUnits="userSpaceOnUse">
   <stop style="stop-color:#84499f" offset="0"/>
   <stop style="stop-color:#a85ccb" offset="1"/>
  </linearGradient>
  <linearGradient id="_Linear4" x2="1" gradientTransform="matrix(18.6327,-22.6254,22.6254,18.6327,11.3446,37.7869)" gradientUnits="userSpaceOnUse">
   <stop style="stop-color:#f6fbff" offset="0"/>
   <stop style="stop-color:#eaeff2" offset="1"/>
  </linearGradient>
 </defs>
</svg>
