<svg style="clip-rule:evenodd;fill-rule:evenodd;stroke-linejoin:round;stroke-miterlimit:2" version="1.1" viewBox="0 0 48 48" xmlns="http://www.w3.org/2000/svg">
 <path d="m19.205 3.963-0.044-0.289c-0.192-1.267 0.418-2.403 1.369-2.547 0.95-0.144 1.87 0.76 2.062 2.027l0.044 0.291c0.451-0.03 0.906-0.045 1.364-0.045 1.235 0 2.444 0.109 3.621 0.318l0.076-0.283c0.33-1.238 1.343-2.035 2.272-1.787s1.409 1.446 1.079 2.684l-0.075 0.281c1.337 0.481 2.611 1.097 3.803 1.831l0.176-0.239c0.76-1.032 1.994-1.403 2.768-0.833s0.786 1.859 0.025 2.891l-0.177 0.242c1.253 1.098 2.372 2.346 3.329 3.716l0.258-0.149c1.109-0.642 2.39-0.489 2.872 0.343 0.481 0.832-0.025 2.019-1.135 2.661l-0.254 0.147c0.597 1.262 1.068 2.595 1.399 3.982l0.289-0.044c1.267-0.192 2.403 0.418 2.547 1.369 0.144 0.95-0.76 1.87-2.027 2.062l-0.291 0.044c0.03 0.451 0.045 0.906 0.045 1.364 0 1.235-0.109 2.444-0.318 3.621l0.283 0.076c1.238 0.33 2.035 1.343 1.787 2.272s-1.446 1.409-2.684 1.079l-0.281-0.075c-0.481 1.337-1.097 2.611-1.831 3.803l0.239 0.176c1.032 0.76 1.403 1.994 0.833 2.768s-1.859 0.786-2.891 0.025l-0.242-0.177c-1.098 1.253-2.346 2.372-3.716 3.329l0.149 0.258c0.642 1.109 0.489 2.39-0.343 2.872-0.832 0.481-2.019-0.025-2.661-1.135l-0.147-0.254c-1.262 0.597-2.595 1.068-3.982 1.399l0.044 0.289c0.192 1.267-0.418 2.403-1.369 2.547-0.95 0.144-1.87-0.76-2.062-2.027l-0.044-0.291c-0.451 0.03-0.906 0.045-1.364 0.045-1.235 0-2.444-0.109-3.621-0.318l-0.076 0.283c-0.33 1.238-1.343 2.035-2.272 1.787s-1.409-1.446-1.079-2.684l0.075-0.281c-1.337-0.481-2.611-1.097-3.803-1.831l-0.176 0.239c-0.76 1.032-1.994 1.403-2.768 0.833s-0.786-1.859-0.025-2.891l0.177-0.242c-1.253-1.098-2.372-2.346-3.329-3.716l-0.258 0.149c-1.109 0.642-2.39 0.489-2.872-0.343-0.481-0.832 0.025-2.019 1.135-2.661l0.254-0.147c-0.597-1.262-1.068-2.595-1.399-3.982l-0.289 0.044c-1.267 0.192-2.403-0.418-2.547-1.369-0.144-0.95 0.76-1.87 2.027-2.062l0.291-0.044c-0.03-0.451-0.045-0.906-0.045-1.364 0-1.235 0.109-2.444 0.318-3.621l-0.283-0.076c-1.238-0.33-2.035-1.343-1.787-2.272s1.446-1.409 2.684-1.079l0.281 0.075c0.481-1.337 1.097-2.611 1.831-3.803l-0.239-0.176c-1.032-0.76-1.403-1.994-0.833-2.768s1.859-0.786 2.891-0.025l0.242 0.177c1.098-1.253 2.346-2.372 3.716-3.329l-0.149-0.258c-0.642-1.109-0.489-2.39 0.343-2.872 0.832-0.481 2.019 0.025 2.661 1.135l0.147 0.254c1.262-0.597 2.595-1.068 3.982-1.399z" style="fill-rule:nonzero;fill:url(#_Linear1)"/>
 <g transform="matrix(1.14442,0,0,1.14442,-3.46601,-3.466)">
  <circle cx="24" cy="24" r="12" style="fill-opacity:.71"/>
 </g>
 <g transform="matrix(1.14442,0,0,1.14442,-3.46601,-3.466)">
  <circle cx="24" cy="24" r="9" style="fill:rgb(121,121,121)"/>
 </g>
 <g transform="matrix(1.14442,0,0,1.14442,-3.46601,-3.466)">
  <path d="m26 10-1.207 11h7.207l-10 17 1.484-12h-7.484l10-16z" style="fill-rule:nonzero;fill:url(#_Linear2)"/>
 </g>
 <defs>
  <linearGradient id="_Linear1" x2="1" gradientTransform="matrix(.71464 -44.2481 44.2481 .71464 23.2854 46.273)" gradientUnits="userSpaceOnUse">
   <stop style="stop-color:rgb(79,79,79)" offset="0"/>
   <stop style="stop-color:rgb(115,115,115)" offset="1"/>
  </linearGradient>
  <linearGradient id="_Linear2" x2="1" gradientTransform="matrix(1.28703,-26,26,1.28703,22.713,38)" gradientUnits="userSpaceOnUse">
   <stop style="stop-color:rgb(255,134,2)" offset="0"/>
   <stop style="stop-color:rgb(255,159,0)" offset="1"/>
  </linearGradient>
 </defs>
</svg>
