<svg style="clip-rule:evenodd;fill-rule:evenodd;stroke-linejoin:round;stroke-miterlimit:2" version="1.1" viewBox="0 0 48 48" xmlns="http://www.w3.org/2000/svg">
 <circle cx="24" cy="24" r="22.764" style="fill:url(#_Linear1)"/>
 <path d="m25.721 15.934c-0.21-0.21-0.547-0.219-0.768-0.021-1.136 1.022-7.112 6.209-13.148 8.042l-0.066 0.02c-0.157 0.048-0.285 0.162-0.35 0.312-0.065 0.151-0.061 0.322 0.011 0.469l0.03 0.061c1e-3 1e-3 1e-3 2e-3 1e-3 2e-3 0.021 0.044 0.892 1.861 1.005 4.421 0.07 1.592-0.161 3.123-0.684 4.552-0.187 0.014-0.37 0.093-0.513 0.236-0.319 0.318-0.318 0.835 0 1.153 0.319 0.319 0.835 0.319 1.154 0 0.184-0.184 0.261-0.434 0.232-0.674l5.849-5.849c0.146-0.146 0.2-0.361 0.14-0.558-0.207-0.68-0.023-1.415 0.481-1.919 0.364-0.364 0.847-0.564 1.362-0.564s0.999 0.2 1.362 0.564c0.364 0.364 0.564 0.847 0.564 1.362 0 0.514-0.2 0.998-0.564 1.362-0.363 0.363-0.847 0.563-1.361 0.564-0.191 0-0.379-0.028-0.559-0.083-0.197-0.06-0.411-6e-3 -0.557 0.14l-5.848 5.849c-0.241-0.029-0.491 0.048-0.675 0.232-0.319 0.319-0.319 0.835 0 1.154 0.318 0.319 0.835 0.319 1.154 0 0.142-0.143 0.221-0.326 0.235-0.513 1.261-0.461 2.601-0.696 3.988-0.696 0.174 0 0.352 4e-3 0.53 0.011 2.568 0.106 4.442 0.999 4.459 1.008l0.059 0.029c0.078 0.038 0.162 0.057 0.247 0.057 0.075 0 0.151-0.015 0.222-0.046 0.15-0.065 0.265-0.193 0.312-0.35l0.02-0.065c1.834-6.037 7.02-12.013 8.042-13.149 0.198-0.221 0.189-0.558-0.021-0.768l-6.345-6.345z" style="fill-opacity:.85;fill-rule:nonzero;fill:#fff"/>
 <path d="m36.836 17.651l-6.487-6.487c-0.105-0.105-0.247-0.164-0.395-0.164s-0.291 0.059-0.395 0.163l-2.776 2.776c-0.218 0.218-0.218 0.572 0 0.79l6.488 6.487c0.105 0.105 0.247 0.164 0.395 0.164s0.29-0.059 0.395-0.164l2.775-2.775c0.218-0.218 0.218-0.572 0-0.79z" style="fill-opacity:.85;fill-rule:nonzero;fill:#fff"/>
 <defs>
  <linearGradient id="_Linear1" x2="1" gradientTransform="matrix(2.78787e-15,-45.5294,45.5294,2.78787e-15,210.898,46.7647)" gradientUnits="userSpaceOnUse">
   <stop style="stop-color:#183b6a" offset="0"/>
   <stop style="stop-color:#23589e" offset="1"/>
  </linearGradient>
 </defs>
</svg>
