<svg style="clip-rule:evenodd;fill-rule:evenodd;stroke-linejoin:round;stroke-miterlimit:2" version="1.1" viewBox="0 0 48 48" xmlns="http://www.w3.org/2000/svg">
 <path d="m9.75 3c-1.246 0-2.25 1.003-2.25 2.25v37.5c0 1.246 1.004 2.25 2.25 2.25h28.5c1.246 0 2.25-1.004 2.25-2.25v-37.5c0-1.247-1.004-2.25-2.25-2.25h-28.5z" style="fill-rule:nonzero;fill:url(#_Linear1)"/>
 <path d="m9.75 3c-1.246 0-2.25 1.003-2.25 2.25v37.5c0 1.246 1.004 2.25 2.25 2.25h3.75v-42h-3.75z" style="fill-opacity:.2;fill-rule:nonzero"/>
 <path d="m28.5 3v16.155l3-3 3 3v-16.155h-6z" style="fill-rule:nonzero;fill:#ac301d"/>
 <path d="m27.81 28.708c-0.28 0.14-0.417 0.466-0.324 0.764l0.549 1.749-1.565-0.95c-0.189-0.113-0.423-0.122-0.62-0.022-0.314 0.159-0.441 0.549-0.282 0.862 0.022 0.042 0.047 0.083 0.078 0.119l1.184 1.422-1.828-0.28c-0.133-0.019-0.267 3e-3 -0.386 0.062-0.313 0.159-0.441 0.548-0.281 0.862 0.059 0.119 0.155 0.216 0.274 0.278l1.623 0.849-1.779 0.435c-0.048 0.011-0.094 0.029-0.138 0.05-0.313 0.16-0.44 0.549-0.281 0.863 0.099 0.197 0.295 0.329 0.515 0.349l1.842 0.166-1.491 1.096c-0.253 0.183-0.336 0.528-0.194 0.807 0.141 0.281 0.468 0.417 0.767 0.322l1.748-0.549-0.948 1.564c-0.115 0.189-0.124 0.425-0.024 0.623 0.159 0.313 0.549 0.44 0.862 0.281 0.043-0.022 0.083-0.047 0.119-0.077l1.42-1.186-0.278 1.828c-0.02 0.133 2e-3 0.27 0.062 0.389 0.159 0.314 0.548 0.442 0.862 0.282 0.12-0.06 0.217-0.157 0.278-0.276l0.848-1.624 0.436 1.778c0.011 0.049 0.029 0.096 0.052 0.14 0.159 0.314 0.547 0.441 0.862 0.282 0.197-0.1 0.329-0.296 0.348-0.516l0.165-1.844 1.097 1.492c0.186 0.252 0.528 0.333 0.807 0.192 0.278-0.141 0.415-0.466 0.321-0.764l-0.548-1.749 1.563 0.949c0.19 0.113 0.424 0.121 0.62 0.022 0.313-0.159 0.441-0.548 0.281-0.862-0.02-0.041-0.046-0.081-0.076-0.117l-1.184-1.422 1.828 0.28c0.134 0.02 0.269-2e-3 0.388-0.062 0.314-0.159 0.442-0.548 0.282-0.862-0.06-0.12-0.158-0.218-0.277-0.28l-1.623-0.847 1.779-0.435c0.05-0.011 0.097-0.029 0.142-0.052 0.313-0.159 0.44-0.548 0.281-0.862-0.1-0.198-0.297-0.331-0.519-0.349l-1.842-0.166 1.49-1.096c0.254-0.185 0.336-0.529 0.195-0.809-0.142-0.279-0.469-0.416-0.767-0.32l-1.747 0.549 0.946-1.565c0.113-0.189 0.122-0.423 0.022-0.618-0.159-0.314-0.548-0.442-0.862-0.283-0.041 0.022-0.081 0.047-0.116 0.077l-1.42 1.185 0.277-1.83c0.02-0.132-2e-3 -0.266-0.062-0.386-0.159-0.313-0.548-0.44-0.862-0.281-0.119 0.06-0.216 0.156-0.277 0.274l-0.848 1.623-0.437-1.778c-0.011-0.048-0.029-0.095-0.051-0.138-0.159-0.314-0.547-0.441-0.862-0.282-0.196 0.1-0.329 0.295-0.348 0.515l-0.166 1.842-1.096-1.49c-0.185-0.251-0.526-0.333-0.804-0.193zm0.449 3.49l0.772 1.521c-0.224 0.345-0.354 0.742-0.377 1.153l-1.517 0.77c-0.21-1.262 0.209-2.549 1.122-3.444zm2.099-1.059c1.262-0.21 2.549 0.209 3.444 1.122l-1.521 0.772c-0.346-0.225-0.742-0.354-1.154-0.378l-0.769-1.516zm-0.068 2.463c0.767-0.389 1.718-0.078 2.107 0.69 0.389 0.767 0.078 1.718-0.689 2.107-0.246 0.124-0.519 0.183-0.794 0.168-0.559-0.031-1.06-0.358-1.314-0.857-0.124-0.246-0.182-0.519-0.167-0.794 0.031-0.559 0.357-1.06 0.857-1.314zm-2.094 4.139l1.521-0.772c0.345 0.224 0.742 0.354 1.153 0.377l0.77 1.517c-1.262 0.21-2.549-0.209-3.444-1.122zm5.148-2.611l1.517-0.77c0.21 1.262-0.209 2.549-1.123 3.444l-0.771-1.521c0.224-0.345 0.354-0.742 0.377-1.153z" style="fill-rule:nonzero;fill:#d3d3d3"/>
 <path d="m14.467 19.144c-0.35 0.199-0.505 0.628-0.363 1.005l0.825 2.205-2.075-1.109c-0.25-0.132-0.552-0.127-0.797 0.015-0.392 0.226-0.528 0.734-0.302 1.126 0.031 0.053 0.067 0.102 0.109 0.147l1.619 1.742-2.367-0.23c-0.171-0.017-0.342 0.021-0.491 0.106-0.391 0.226-0.527 0.735-0.301 1.126 0.085 0.149 0.215 0.267 0.371 0.338l2.143 0.976-2.253 0.683c-0.061 0.018-0.118 0.044-0.173 0.075-0.392 0.226-0.528 0.734-0.302 1.126 0.142 0.246 0.402 0.402 0.685 0.412l2.377 0.085-1.837 1.511c-0.313 0.254-0.395 0.702-0.194 1.051 0.202 0.349 0.631 0.502 1.008 0.358l2.205-0.825-1.107 2.073c-0.134 0.251-0.129 0.555 0.013 0.801 0.226 0.392 0.734 0.528 1.126 0.302 0.053-0.031 0.103-0.067 0.148-0.109l1.74-1.621-0.23 2.367c-0.017 0.172 0.02 0.345 0.107 0.495 0.226 0.392 0.734 0.528 1.126 0.302 0.149-0.086 0.268-0.217 0.339-0.374l0.973-2.145 0.685 2.253c0.018 0.062 0.044 0.121 0.076 0.177 0.226 0.391 0.734 0.528 1.126 0.302 0.247-0.143 0.403-0.403 0.412-0.688l0.084-2.378 1.511 1.839c0.255 0.31 0.701 0.39 1.049 0.19 0.347-0.201 0.5-0.627 0.359-1.003l-0.826-2.207 2.075 1.109c0.25 0.132 0.551 0.126 0.796-0.015 0.391-0.226 0.528-0.735 0.301-1.126-0.03-0.052-0.065-0.101-0.106-0.145l-1.619-1.743 2.367 0.231c0.172 0.017 0.345-0.02 0.494-0.106 0.392-0.226 0.528-0.734 0.302-1.126-0.087-0.15-0.218-0.269-0.376-0.34l-2.142-0.974 2.253-0.683c0.062-0.019 0.122-0.044 0.178-0.077 0.392-0.226 0.528-0.734 0.302-1.126-0.143-0.248-0.405-0.404-0.691-0.412l-2.377-0.085 1.837-1.51c0.313-0.255 0.395-0.703 0.194-1.052-0.202-0.349-0.631-0.502-1.008-0.358l-2.204 0.827 1.106-2.075c0.132-0.25 0.126-0.551-0.016-0.796-0.226-0.392-0.734-0.528-1.126-0.302-0.051 0.03-0.1 0.066-0.144 0.106l-1.74 1.62 0.229-2.368c0.016-0.171-0.021-0.342-0.107-0.49-0.226-0.392-0.735-0.528-1.126-0.302-0.148 0.086-0.267 0.215-0.338 0.371l-0.974 2.143-0.685-2.253c-0.018-0.061-0.044-0.119-0.075-0.174-0.226-0.391-0.735-0.527-1.126-0.301-0.246 0.142-0.402 0.401-0.412 0.685l-0.085 2.377-1.51-1.837c-0.254-0.309-0.698-0.391-1.045-0.192zm0.819 4.45l1.096 1.899c-0.264 0.458-0.403 0.977-0.403 1.506l-1.894 1.093c-0.358-1.604 0.091-3.285 1.201-4.498zm2.621-1.507c1.604-0.357 3.286 0.092 4.499 1.201l-1.9 1.097c-0.458-0.264-0.977-0.403-1.505-0.404l-1.094-1.894zm0.084 3.168c0.957-0.552 2.2-0.219 2.753 0.738 0.553 0.958 0.22 2.201-0.738 2.754-0.306 0.177-0.654 0.27-1.008 0.27-0.719 0-1.386-0.385-1.745-1.008-0.177-0.306-0.27-0.654-0.27-1.008 0-0.719 0.385-1.386 1.008-1.746zm-2.4 5.459l1.899-1.097c0.458 0.264 0.978 0.403 1.506 0.404l1.094 1.894c-1.604 0.357-3.286-0.092-4.499-1.201zm6.427-3.711l1.894-1.093c0.358 1.604-0.091 3.286-1.201 4.498l-1.096-1.899c0.264-0.458 0.403-0.977 0.403-1.506z" style="fill-rule:nonzero;fill:#d3d3d3"/>
 <defs>
  <linearGradient id="_Linear1" x2="1" gradientTransform="matrix(-.506203 -42 42 -.506203 318 41.4566)" gradientUnits="userSpaceOnUse">
   <stop style="stop-color:#0082af" offset="0"/>
   <stop style="stop-color:#0baad9" offset="1"/>
  </linearGradient>
 </defs>
</svg>
