<svg style="clip-rule:evenodd;fill-rule:evenodd;stroke-linejoin:round;stroke-miterlimit:2" version="1.1" viewBox="0 0 48 48" xmlns="http://www.w3.org/2000/svg">
 <path d="m45.668 8.56c0-3.438-2.79-6.228-6.228-6.228h-30.88c-3.438 0-6.228 2.79-6.228 6.228v30.88c0 3.438 2.79 6.228 6.228 6.228h30.88c3.438 0 6.228-2.79 6.228-6.228v-30.88z" style="fill:url(#_Linear1)"/>
 <path d="m9.673 39.685c-0.023-0.036 0.421-0.577 0.985-1.201 3.843-4.261 4.399-4.978 4.836-6.235 0.138-0.397 0.286-0.734 0.33-0.748 0.042-0.014 0.284 0.248 0.536 0.583 0.253 0.336 0.9 1.137 1.439 1.781 0.545 0.651 0.95 1.2 0.912 1.237-0.039 0.036-0.337 0.155-0.664 0.264s-0.922 0.385-1.321 0.613c-0.803 0.458-1.89 1.396-1.795 1.55 0.045 0.072 1.956 0.094 8.187 0.094 7.229 0 8.148-0.014 8.304-0.123 0.096-0.067 0.175-0.183 0.175-0.257 0-0.075-0.278-0.525-0.617-1-0.34-0.475-1.764-2.477-3.165-4.448-2.733-3.843-9.936-13.934-11.03-15.449-0.365-0.506-1.655-2.31-2.868-4.008-1.909-2.672-2.277-3.144-2.737-3.513-0.292-0.234-0.531-0.46-0.531-0.501 0-0.043 0.333-0.076 0.773-0.076 0.703 0 0.789 0.017 0.934 0.178 0.087 0.097 4.423 6.184 9.635 13.525 5.211 7.342 10.16 14.313 10.997 15.491s1.522 2.179 1.522 2.225c0 0.1-24.775 0.118-24.837 0.018zm25.228-0.585c-2.944-4.057-21.94-30.748-21.915-30.792 0.019-0.033 5.401-0.06 11.961-0.06 10.255 0 11.926 0.016 11.926 0.112 0 0.062-0.558 0.636-1.24 1.277-3.172 2.977-4.545 4.519-5.221 5.863-0.172 0.343-0.357 0.622-0.411 0.621-0.146-5e-3 -2.457-3.143-2.374-3.223 0.04-0.037 0.319-0.201 0.623-0.364 0.791-0.425 1.691-1.069 2.072-1.483 0.36-0.391 0.393-0.478 0.205-0.55-0.069-0.026-2.845-0.047-6.17-0.047-5.867 0-6.049 4e-3 -6.182 0.151-0.076 0.084-0.126 0.2-0.111 0.26 0.015 0.059 0.612 0.947 1.326 1.974 1.385 1.989 1.512 2.17 2.914 4.156 0.498 0.706 1.069 1.516 1.268 1.801 0.198 0.284 0.709 1.013 1.134 1.62 0.836 1.192 1.463 2.106 2.843 4.146 0.488 0.721 1.06 1.554 1.272 1.851 0.436 0.611 3.448 5 5.608 8.172 0.795 1.166 1.682 2.467 1.972 2.892 0.59 0.864 0.957 1.285 1.559 1.787 0.225 0.189 0.39 0.375 0.366 0.414-0.025 0.039-0.699 0.071-1.499 0.071h-1.454l-0.472-0.649z" style="fill-rule:nonzero;fill:#fff"/>
 <defs>
  <linearGradient id="_Linear1" x2="1" gradientTransform="matrix(2.65364e-15,-43.3373,43.3373,2.65364e-15,201.9,45.6687)" gradientUnits="userSpaceOnUse">
   <stop style="stop-color:#55448e" offset="0"/>
   <stop style="stop-color:#6f68b8" offset="1"/>
  </linearGradient>
 </defs>
</svg>
