<svg clip-rule="evenodd" fill-rule="evenodd" stroke-linejoin="round" stroke-miterlimit="2" viewBox="0 0 48 48" xmlns="http://www.w3.org/2000/svg">
 <linearGradient id="a" x2="1" gradientTransform="matrix(0 -39.9995 39.9995 0 13.2626 43.9995)" gradientUnits="userSpaceOnUse">
  <stop stop-color="#3e50b4" offset="0"/>
  <stop stop-color="#0056ff" offset="1"/>
 </linearGradient>
 <g transform="matrix(1.05658 0 0 1.05658 -1.35783 -1.35781)" fill-rule="nonzero">
  <path d="m7.643 4.001c-.035-.001-.07-.001-.105-.001-1.941 0-3.538 1.417-3.538 3.138v33.722.001c0 1.722 1.597 3.139 3.538 3.139.622 0 1.232-.146 1.77-.421l16.46-8.431 16.462-8.429c1.094-.56 1.77-1.599 1.77-2.719s-.676-2.159-1.77-2.718l-16.462-8.429-16.46-8.433c-.507-.259-1.079-.403-1.665-.418z" fill="url(#a)"/>
  <path d="m23.361 15.001c.016 0 .031-.001.047-.001.873 0 1.592.637 1.592 1.412v15.175c0 .775-.719 1.413-1.592 1.413-.28 0-.555-.066-.797-.19l-7.407-3.794-7.407-3.793c-.493-.252-.797-.719-.797-1.223s.304-.971.797-1.223l7.408-3.793 7.407-3.795c.228-.117.485-.181.749-.188z" fill="#fff"/>
 </g>
</svg>
