<svg style="clip-rule:evenodd;fill-rule:evenodd;stroke-linejoin:round;stroke-miterlimit:2" version="1.1" viewBox="0 0 48 48" xmlns="http://www.w3.org/2000/svg">
 <circle cx="24" cy="24" r="22.764" style="fill:url(#_Linear1)"/>
 <path d="m23.517 16.432c0.067 0.232 0.075 1.351 0.064 9.184-7e-3 4.906-0.019 8.868-0.026 8.804-0.022-0.203-0.253-0.599-0.451-0.773-0.269-0.235-0.837-0.489-1.31-0.584-0.96-0.194-4.017-0.037-9.432 0.484-1.681 0.161-1.815 0.156-2.039-0.082l-0.123-0.132-0.013-8.497c-0.012-8.013-8e-3 -8.507 0.076-8.673 0.188-0.372 0.184-0.371 3.393-0.662 4.555-0.412 6.978-0.539 7.854-0.411 1.101 0.161 1.799 0.628 2.007 1.342zm1.082 17.591c0.22-0.429 0.856-0.809 1.607-0.96 0.997-0.201 4.338-0.022 9.962 0.534 1.114 0.111 1.296 0.095 1.509-0.132l0.123-0.132 0.013-8.497c0.012-8.013 8e-3 -8.507-0.076-8.673-0.12-0.238-0.327-0.346-0.779-0.408-0.521-0.071-4.539-0.432-6.299-0.567-1.92-0.146-4.085-0.161-4.591-0.031-0.735 0.189-1.25 0.549-1.493 1.044l-0.143 0.29-8e-3 9.023c-4e-3 4.962 9e-3 8.953 0.03 8.87 0.021-0.084 0.086-0.247 0.145-0.361z" style="fill-opacity:.85;fill-rule:nonzero;fill:#fff"/>
 <defs>
  <linearGradient id="_Linear1" x2="1" gradientTransform="matrix(2.78782e-15,-45.5286,45.5286,2.78782e-15,210.895,46.7643)" gradientUnits="userSpaceOnUse">
   <stop style="stop-color:#0a80fd" offset="0"/>
   <stop style="stop-color:#56c5fa" offset="1"/>
  </linearGradient>
 </defs>
</svg>
