<!DOCTYPE svg  PUBLIC '-//W3C//DTD SVG 1.1//EN'  'http://www.w3.org/Graphics/SVG/1.1/DTD/svg11.dtd'>
<svg style="clip-rule:evenodd;fill-rule:evenodd" version="1.1" viewBox="0 0 64 64" xmlns="http://www.w3.org/2000/svg">
 <g transform="matrix(0,-1,-1,0,0,0)">
  <path d="m-4-55.8c0-2.318-1.882-4.2-4.2-4.2h-47.6c-2.318 0-4.2 1.882-4.2 4.2v47.6c0 2.318 1.882 4.2 4.2 4.2h47.6c2.318 0 4.2-1.882 4.2-4.2v-47.6z" style="fill-opacity:.2"/>
 </g>
 <g transform="matrix(.961262 -.275637 .275637 .961262 0 0)">
  <rect x="7.26" y="23.08" width="30.182" height="30.182" style="fill:rgb(244,241,239);stroke-width:2.8px;stroke:rgb(244,241,239)"/>
 </g>
 <path d="m5.698 19.8c-0.579-1e-3 -1.139 0.028-1.698 0.036v35.978c0 0.311 0.038 0.611 0.101 0.902 6.201-0.553 12.255-1.912 17.552-7.434l-8.32-29.014c-2.709-0.306-5.254-0.464-7.635-0.468z" style="fill-rule:nonzero;fill:rgb(72,195,158)"/>
 <path d="m50.668 40.8l-29.014 8.321c-0.924 3.78-0.948 7.333-0.35 10.732h34.496c0.846 0 1.628-0.255 2.286-0.681-0.222-6.687-0.821-13.279-7.419-18.372h1e-3z" style="fill-rule:nonzero;fill:rgb(216,23,104)"/>
 <path d="m58.316 4.8c-6.537 0.626-12.588 1.945-15.969 7.079l8.321 29.014c3.315 0.685 6.402 0.745 9.332 0.37v-33.116c0-1.377-0.666-2.582-1.684-3.347z" style="fill-rule:nonzero;fill:rgb(236,181,36)"/>
 <path d="m8.2 4c-0.84 0-1.617 0.252-2.272 0.673 1.378 5.381 3.924 10.561 7.404 15.58l29.014-8.32c1.169-2.948 1.502-5.545 1.326-7.933h-35.473 1e-3z" style="fill-rule:nonzero;fill:rgb(129,210,224)"/>
 <path d="m21.654 49.2l-17.653 5.061v1.471c0 2.327 1.873 4.2 4.2 4.2h16.532l-3.079-10.732z" style="fill-rule:nonzero;fill:rgb(57,15,57)"/>
 <path d="M8.2,4C5.873,4 4,5.873 4,8.2L4,22.93L13.332,20.253L8.673,4L8.2,4L8.2,4Z" style="fill-rule:nonzero;fill:rgb(32,164,142)"/>
 <path d="m40.072 4l2.275 7.933 17.44-4.999c-0.538-1.7-2.105-2.934-3.987-2.934h-15.728z" style="fill-rule:nonzero;fill:rgb(119,151,31)"/>
 <path d="m60 38.2l-9.333 2.677 5.453 19.02c2.173-0.166 3.88-1.95 3.88-4.167v-17.53z" style="fill-rule:nonzero;fill:rgb(213,16,13)"/>
 <path d="m7 4c-1.662 0-3 1.338-3 3v1c0-1.662 1.338-3 3-3h50c1.662 0 3 1.338 3 3v-1c0-1.662-1.338-3-3-3h-50z" style="fill-opacity:.1;fill-rule:nonzero;fill:white"/>
 <path d="m38.966 36c0 1.923-0.634 3.398-1.9 4.424-1.258 1.027-3.116 1.54-5.576 1.54-1.701 0-3.181-0.282-4.438-0.846-1.248-0.564-2.265-1.475-3.051-2.732l3.009-2.386c1.294 1.448 2.881 1.963 4.563 2.096 1.064 0 1.891-0.18 2.483-0.541 0.601-0.369 0.944-0.529 0.944-1.278 0-0.425-0.149-0.781-0.362-1.068-0.203-0.286-0.513-0.531-0.929-0.735-0.416-0.212-1.137-0.453-2.163-0.721-0.999-0.268-2.342-0.536-3.23-0.804-0.878-0.278-1.641-0.634-2.288-1.068-0.638-0.435-1.142-0.98-1.512-1.637-0.37-0.656-0.555-1.484-0.555-2.482 0-1.822 0.615-3.241 1.845-4.258 1.229-1.027 3.391-1.54 5.684-1.54 3.32 0 5.668 1.138 7.046 3.412l-2.982 1.93c-0.527-0.813-1.119-1.396-1.775-1.747-0.657-0.352-1.438-0.527-2.344-0.527-1.961 0.024-3.115 0.509-3.466 2.338 0 0.62 0.296 1.196 0.888 1.529 0.592 0.323 2.023 0.652 3.493 0.985 0.814 0.212 1.618 0.443 2.413 0.693 0.796 0.24 1.503 0.578 2.122 1.013 0.629 0.434 1.133 1.003 1.512 1.705 0.379 0.703 0.569 1.605 0.569 2.705" style="fill-rule:nonzero;fill:rgb(90,56,86)"/>
</svg>
