<svg clip-rule="evenodd" fill-rule="evenodd" stroke-linejoin="round" stroke-miterlimit="2" viewBox="0 0 48 48" xmlns="http://www.w3.org/2000/svg">
 <linearGradient id="a" x2="1" gradientTransform="matrix(23.9188 23.9188 -23.9188 23.9188 -45.5847 -19.3498)" gradientUnits="userSpaceOnUse">
  <stop stop-color="#297b26" offset="0"/>
  <stop stop-color="#33b67a" offset="1"/>
 </linearGradient>
 <circle transform="matrix(-.707107 -.707107 .707107 -.707107 0 0)" cx="-33.941" cy="-7.071" r="17" fill="url(#a)"/>
 <path d="m8.179 42.092c1.658 1.375 3.563 2.424 5.612 3.088.132-.253.42-.399.833-.37.279.02.604-.059.722-.177.36-.36.588-1.24.408-1.58-.239-.453.246-.706.895-.465.3.112.824.093 1.165-.041.342-.134.729-.216.861-.182.131.033.385-.084.564-.263.249-.249.256-.484.031-1.008-.161-.376-.403-.775-.54-.888-.783-.648-.416-1.115 1.025-1.304.765-.101 1.034-.05 1.206.232.16.261.335.317.64.204.323-.121.564-.03 1.04.385.469.407.754.514 1.158.438.295-.054.61-.023.702.069s.426.191.742.22c.643.06.809.168.742.481-.09.416.389.639 1.412.661.905.02 1.079-.042 1.393-.496.56-.807.795-1.785.584-2.419-.185-.554-.172-.581.288-.594.266-.008.633.067.816.165.531.283.457-.101-.177-.919-.648-.838-.61-1.338.104-1.358.399-.011.427-.061.311-.566-.226-.988-.942-1.238-.772-.269.11.623-.251.471-.602-.252-.28-.577-.373-.654-.846-.687-.97-.07-.869-1.3.109-1.327.622-.019.917-.496.578-.941-.149-.197-.348-.717-.441-1.158-.093-.44-.242-.873-.33-.961-.087-.088-.159-.511-.159-.942-.001-.872-.188-1.169-.618-.985-.517.221-.648.471-.684 1.304-.029.663-.434 2.098-.654 2.318-.136.136-.544-.503-.637-.996-.058-.309-.193-.768-.3-1.021-.113-.269-.068-.71.107-1.067.275-.558.256-.65-.244-1.15l-.544-.544.895-1.059c1.076-1.273 1.22-1.606.913-2.106-.225-.368-.082-1.145.277-1.504.096-.096.544-.117.995-.046.56.087.9.026 1.075-.193.218-.273.313-.255.635.119.207.241.675.552 1.039.689.429.162.793.441 1.04.796.284.408.425.501.561.366.099-.1.407-.165.684-.145.682.048.699-.27.036-.731-.411-.286-.519-.449-.429-.66.191-.447.973-.579 1.199-.203.143.239.3.265.584.099.101-.059.207-.089.309-.102-.378-.857-.826-1.681-1.34-2.464-.055.175-.091.348-.071.461.091.529-.685.89-1.213.566-.539-.33-.753.021-.335.547.368.461.389 1.321.036 1.397-.237.051-.612-.366-1.223-1.357-.277-.447-.696-.523-2.451-.444-1.017.046-1.611-.106-2.02-.515-.157-.156-.857-.57-1.558-.92-1.324-.659-1.7-1.059-1.301-1.384.83-.678.319-1.138-1.261-1.139-.658 0-1.197-.063-1.199-.14-.006-.295.971-.729 1.574-.697.764.04 1.012-.168.839-.703-.094-.294.025-.577.447-1.06l.577-.659-.503-.503c-.176-.176-.298-.346-.37-.509-5.598-1.396-11.538.15-15.745 4.097-.209.577-.46.801-.898.898-.214.237-.42.479-.62.728.104.115.211.231.345.354.631.581.911 1.338.607 1.642-.064.065-.114.545-.111 1.067.005.591-.102 1.003-.281 1.094-.163.081-.273.367-.252.656.02.282-.067.616-.193.742-.202.202-.099.355.85 1.259l1.08 1.028 1.021-1.057c1.789-1.851 1.99-2.595.849-3.126-.523-.243-1.358-1.289-1.413-1.769-.02-.174.119-.593.31-.931.189-.338.371-1.071.402-1.628.064-1.129.255-1.403 1.26-1.797.877-.345 1.093.013.374.618l-.535.451.535.367c.297.202.793.33 1.116.288.458-.059.589-.004.62.264.022.187-.068.447-.198.577s-.145.403-.037.606c.11.205.088.656-.049 1.003-.218.556-.341.67-1.007.944-.676.277-.756.354-.749.714.007.329.089.422.443.51.355.089.451.204.538.646.058.295.268.701.467.9.406.406.332.726-.321 1.379-.603.602-.462 1.181.472 1.958.649.539.741.709.851 1.557.068.524-.012 1.54-.179 2.26s-.333 1.481-.369 1.691c-.052.302-.253.441-.98.679l-.916.299.741.564c1.318 1.004 1.703 1.089 1.472.322-.091-.299-.046-.361.278-.385.212-.014.438-.147.502-.296.063-.149.367-.345.674-.436.308-.09.678-.279.826-.419.459-.437 1.582-.026 2.389.876 1.224 1.366 1.349 1.451 2.236 1.484 1.108.041 1.43-.133 1.658-.896.222-.74-.047-1.392-.884-2.149-.748-.678-.765-.821-.131-1.13.539-.261 1.158.05 1.224.616.049.436 1.036 1.124 1.575 1.098.225-.01.695-.161 1.042-.333.599-.298.67-.282 1.408.326.738.607.781.693.819 1.622.043 1.035-.246 1.507-1.159 1.901-.406.174-.538.136-.79-.228-.498-.72-.95-.749-1.601-.098-.315.315-.549.672-.519.791.031.119-.075.348-.236.508-.16.161-.29.444-.288.628.005.269-.086.32-.458.256-.254-.044-.57-.218-.702-.386s-.611-.517-1.064-.777c-.654-.376-.911-.422-1.251-.221-.647.382-1.383.472-1.653.202-.428-.427-1.442.569-2.488 2.446-.154.277-.123.583.102.955.181.301.279.729.217.95-.063.22-.034.48.064.578s.172.407.164.686c-.007.281.158.679.373.893.508.508.166.866-.522.547-.727-.337-1.299-1.421-1.079-2.041.3-.842-.24-.905-1.198-.14-1.186.946-1.86.885-3.019-.274l-.834-.834v.73c0 .228-.045.462-.116.664zm-3.943-4.7c.044.002.084.008.131.007.563-.006.735.085 1.1.581.638.868.844.468.377-.731-.252-.648-.317-1.163-.187-1.49.626-1.576.892-2.495.788-2.719-.21-.454-.653-.407-1.352.145-.803.633-1.198.543-1.242-.286-.017-.322-.129-.684-.249-.803-.373-.373-.499-.799-.297-1.001.107-.107.237-.49.291-.853.078-.533-.003-.761-.429-1.187-.522-.522-.744-.94-1.037-1.955-.005-.016-.013-.028-.018-.044-.406 3.583.338 7.204 2.124 10.336zm26.731 3.678c.018-.016.036-.033.054-.049.772-.78 1.467-1.631 2.074-2.544-.258-.613-.448-.663-.899-.303-.233.186-.58.314-.774.285-.298-.045-.332.051-.22.643.072.384.025.881-.105 1.103-.126.215-.161.553-.13.865zm.19-7.757c.101.124.296.199.591.205.622.014 1.185-.646 1.066-1.247-.135-.69-.375-.769-.938-.311-.695.566-.94 1.081-.719 1.353zm-.223-3.858c.127.119.35.166.671.116.339-.052.631-.266.961-.705.404-.54.535-.612.908-.491.481.155 1.032-.26 1.02-.769-.01-.506-.322-.688-.75-.438-.609.357-1.373-.294-1.422-1.211-.021-.391-.096-.653-.167-.582s-.114.543-.095 1.048c.028.774-.056 1.007-.535 1.486-.677.677-.869 1.284-.591 1.546zm4.902 1.799c.029-.21.053-.419.073-.63-.045.209-.073.424-.073.63zm-2.205-5.897c.081.04.184-.01.318-.144.135-.136.364-.192.509-.125.192.089.387-.041.722-.484.063-.083.118-.145.175-.209-.075-.254-.156-.506-.243-.757-.2.217-.482.424-.898.621-.705.336-.842.46-.783.702.055.226.117.356.2.396z" fill-opacity=".2" fill-rule="nonzero"/>
 <path d="m41.438 2.025c-.255-.006-.517 0-.79.018-4.908.326-11.98 4.486-17.892 10.393.371.083.743.166 1.109.275 3.017-2.548 6.427-4.466 9.233-5.686 1.174-.51 3.585-1.447 5.357-1.557 2.265-.14 3.759.799 3.229 2.778-.68 2.46-2.847 6.332-6.362 10.225s-8.304 8.003-11.875 9.892l2.127 3.876c4.178-2.652 8.772-6.719 12.717-11.089 7.641-8.462 9.959-16.856 5.178-18.748-.587-.232-1.269-.358-2.031-.377z" fill="#a91f1f" fill-rule="nonzero"/>
 <circle cx="25" cy="30" r="9" fill="#e13c3c"/>
 <circle cx="25" cy="30" r="6" fill="#ffa833"/>
 <circle cx="25" cy="30" r="3" fill="#fff"/>
</svg>
