<svg style="clip-rule:evenodd;fill-rule:evenodd;stroke-linejoin:round;stroke-miterlimit:2" version="1.1" viewBox="0 0 48 48" xmlns="http://www.w3.org/2000/svg">
 <path d="m45.846 42.569v-2.184h-43.692v2.184h43.692zm0-4.369v-2.185h-43.692v2.185h43.692zm0-4.369v-2.185h-43.692v2.185h43.692zm0-4.369v-2.185h-43.692v2.185h43.692zm0-4.37v-2.184h-43.692v2.184h43.692zm0-4.369v-2.185h-43.692v2.185h43.692zm0-4.369v-2.185h-43.692v2.185h43.692zm0-4.369v-2.185h-43.692v2.185h43.692zm0-4.37v-2.184h-43.692v2.184h43.692z" style="fill:#585858"/>
 <path d="m25.092 2.154v43.692h-2.184v-43.692h2.184zm-4.369 0v43.692h-2.185v-43.692h2.185zm-4.369 0v43.692h-2.185v-43.692h2.185zm-4.369 0v43.692h-2.185v-43.692h2.185zm17.477 0v43.692h-2.185v-43.692h2.185zm4.369 0v43.692h-2.185v-43.692h2.185zm4.369 0v43.692h-2.185v-43.692h2.185zm-30.585 0v43.692h-2.184v-43.692h2.184zm34.954 0v43.692h-2.184v-43.692h2.184z" style="fill:#585858"/>
 <path d="m41.662 4.338c1.103 0 2 0.897 2 2v35.324c0 1.103-0.897 2-2 2h-35.324c-1.103 0-2-0.897-2-2v-35.324c0-1.103 0.897-2 2-2h35.324z" style="fill:url(#_Linear1)"/>
 <path d="m33.94 16.9h-5.68s0-1.42-1.42-1.42h-5.68c-1.42 0-1.42 1.42-1.42 1.42v2.84s0 1.42 1.42 1.42h8.52c4.26 0 4.26 4.26 4.26 4.26v8.52s0 4.26-4.26 4.26h-11.36c-4.26 0-4.26-4.26-4.26-4.26v-2.84h5.68s0 1.42 1.42 1.42h5.68c1.42 0 1.42-1.42 1.42-1.42v-2.84s0-1.42-1.42-1.42h-8.52c-4.26 0-4.26-4.26-4.26-4.26v-8.52s0-4.26 4.26-4.26h11.36c4.26 0 4.26 4.26 4.26 4.26v2.84z" style="fill-rule:nonzero;fill:#006769"/>
 <defs>
  <linearGradient id="_Linear1" x2="1" gradientTransform="matrix(2.40784e-15,-39.3231,39.3231,2.40784e-15,24,43.6615)" gradientUnits="userSpaceOnUse">
   <stop style="stop-color:#b5b5b5" offset="0"/>
   <stop style="stop-color:#ddd" offset="1"/>
  </linearGradient>
 </defs>
</svg>
