<svg style="clip-rule:evenodd;fill-rule:evenodd;stroke-linejoin:round;stroke-miterlimit:2" version="1.1" viewBox="0 0 48 48" xmlns="http://www.w3.org/2000/svg">
 <circle cx="24" cy="24" r="22.764" style="fill:url(#_Linear1)"/>
 <path d="m36.906 16.881c-0.729-0.71-1.608-1.065-2.639-1.065h-3.267l-0.743-1.933c-0.185-0.464-0.523-0.864-1.014-1.201-0.491-0.336-0.994-0.504-1.509-0.504h-7.467c-0.516 0-1.019 0.168-1.51 0.504-0.491 0.337-0.829 0.737-1.013 1.201l-0.744 1.933h-3.267c-1.03 0-1.91 0.355-2.639 1.065-0.729 0.711-1.094 1.568-1.094 2.572v12.732c0 1.004 0.365 1.861 1.094 2.571 0.729 0.711 1.609 1.066 2.639 1.066h20.534c1.03 0 1.91-0.355 2.639-1.066 0.729-0.71 1.094-1.567 1.094-2.571v-12.732c0-1.004-0.364-1.861-1.094-2.572zm-8.29 13.435c-1.279 1.246-2.817 1.869-4.616 1.869s-3.337-0.623-4.616-1.869c-1.278-1.245-1.917-2.745-1.917-4.497 0-1.753 0.639-3.251 1.917-4.497 1.279-1.246 2.817-1.869 4.616-1.869s3.337 0.623 4.616 1.869c1.278 1.245 1.917 2.744 1.917 4.497 0 1.752-0.639 3.251-1.917 4.497zm-4.616-8.589c-1.157 0-2.146 0.4-2.968 1.2-0.821 0.801-1.232 1.765-1.232 2.892s0.411 2.091 1.232 2.892c0.822 0.8 1.811 1.2 2.968 1.2s2.146-0.4 2.968-1.2c0.821-0.801 1.232-1.765 1.232-2.892s-0.411-2.091-1.232-2.892c-0.822-0.8-1.811-1.2-2.968-1.2z" style="fill-opacity:.72;fill-rule:nonzero"/>
 <defs>
  <linearGradient id="_Linear1" x2="1" gradientTransform="matrix(2.78782e-15,-45.5286,45.5286,2.78782e-15,210.895,46.7643)" gradientUnits="userSpaceOnUse">
   <stop style="stop-color:#9aacb4" offset="0"/>
   <stop style="stop-color:#ccd9de" offset="1"/>
  </linearGradient>
 </defs>
</svg>
