<svg style="clip-rule:evenodd;fill-rule:evenodd;stroke-linecap:round" version="1.1" viewBox="0 0 48 48" xmlns="http://www.w3.org/2000/svg">
 <g id="back" transform="matrix(.984909 0 0 .984909 .362182 .212203)">
  <rect x="4" y="3" width="40" height="10" style="fill:url(#_Linear1)"/>
 </g>
 <g id="leftbackfold" transform="matrix(.984909 0 0 .984909 .362182 .212203)">
  <path d="M4,3L4,30L7.5,5.5L4,3Z" style="fill-rule:nonzero;fill:url(#_Linear2)"/>
 </g>
 <g id="rightbackfold" transform="matrix(.984909 0 0 .984909 .362182 .212203)">
  <path d="m44 3v5l-3.5-2.5 3.5-2.5z" style="fill-rule:nonzero;fill:url(#_Linear3)"/>
 </g>
 <g id="shadow" transform="matrix(.984909 0 0 .984909 .362182 .212203)">
  <path d="M7.5,5.5L15.2,11L4,11L7.5,5.5Z" style="fill-opacity:.08;fill-rule:nonzero"/>
 </g>
 <g id="rightfrontfold" transform="matrix(.984909 0 0 .984909 .362182 .212203)">
  <path d="m46 9h-5.5v-3.5l5.5 3.5z" style="fill-rule:nonzero;fill:url(#_Linear4)"/>
 </g>
 <g id="leftfrontfold" transform="matrix(.984909 0 0 .984909 .362182 .212203)">
  <path d="m7.5 5.5-5.5 3.5h5.5v-3.5z" style="fill-rule:nonzero;fill:url(#_Linear5)"/>
 </g>
 <path id="frontnew" d="m2.332 39.44v-30.207l4e-3 -0.159h43.328v7e-3l4e-3 0.152v30.207c0 2.966-2.077 5.45-4.855 6.076h-33.626c-2.778-0.626-4.855-3.11-4.855-6.076z" style="fill:url(#_Linear6)"/>
 <g transform="matrix(.984909 0 0 .984909 .362182 .368513)">
  <circle cx="14" cy="14" r="2" style="fill-opacity:.3"/>
 </g>
 <g transform="matrix(.984909 0 0 .984909 .362182 .368513)">
  <circle cx="34" cy="14" r="2" style="fill-opacity:.3"/>
 </g>
 <g id="handle" transform="matrix(.984909 0 0 .984909 .362182 .368513)">
  <path d="m34 13c0-5.486-4.514-10-10-10s-10 4.514-10 10" style="fill:none;stroke-width:2.4px;stroke:url(#_Linear7)"/>
 </g>
 <g id="symbol" transform="matrix(1.27354,0,0,1.27354,-6.11819,-7.70696)">
  <path d="m28.274 18.982c-0.082-6e-3 -0.164-4e-3 -0.243 1e-3 -0.533 0.038-1.027 0.333-1.314 0.831-0.458 0.795-0.184 1.805 0.613 2.265 0.795 0.458 1.807 0.192 2.265-0.606 0.46-0.793 0.197-1.822-0.598-2.281-0.224-0.129-0.476-0.195-0.723-0.21zm-4.364 1.763c-1.15 0-2.225 0.271-3.189 0.75l1.155 2.085c0.622-0.29 1.304-0.461 2.034-0.461 2.541 0 4.638 1.944 4.856 4.43l2.359-0.03c-0.118-1.832-0.919-3.48-2.15-4.69-0.633 0.238-1.353 0.202-1.984-0.165-0.631-0.365-1.03-0.975-1.14-1.645-0.615-0.169-1.273-0.274-1.941-0.274zm-4.004 1.219c-1.457 0.972-2.529 2.464-2.98 4.207 0.527 0.428 0.845 1.069 0.845 1.803 0 0.729-0.317 1.394-0.845 1.825 0.451 1.741 1.523 3.227 2.98 4.2l1.218-2.05c-1.25-0.878-2.063-2.331-2.063-3.975 0-1.646 0.813-3.097 2.063-3.976l-1.218-2.034zm-4.467 4.351c-0.92 0-1.659 0.739-1.659 1.659 0 0.917 0.739 1.659 1.659 1.659 0.921 0 1.668-0.742 1.668-1.659 0-0.92-0.747-1.659-1.668-1.659zm13.327 2.1c-0.218 2.482-2.315 4.43-4.856 4.43-0.731 0-1.412-0.164-2.034-0.455l-1.155 2.071c0.964 0.48 2.039 0.742 3.189 0.742 0.668 0 1.326-0.089 1.941-0.259 0.11-0.67 0.508-1.278 1.14-1.644 0.633-0.365 1.351-0.401 1.984-0.16 1.231-1.212 2.032-2.856 2.15-4.69l-2.359-0.035zm-0.728 5.245c-0.241 0.02-0.484 0.1-0.708 0.23-0.797 0.457-1.071 1.465-0.613 2.258 0.46 0.798 1.484 1.065 2.28 0.607s1.058-1.471 0.598-2.266c-0.287-0.498-0.787-0.792-1.32-0.829-0.08-7e-3 -0.157-7e-3 -0.237 0z" style="fill-opacity:.8;fill-rule:nonzero;fill:white"/>
 </g>
 <defs>
  <linearGradient id="_Linear1" x2="1" gradientTransform="matrix(3.67394e-16,-6,6,3.67394e-16,24,9)" gradientUnits="userSpaceOnUse">
   <stop style="stop-color:rgb(217,51,0)" offset="0"/>
   <stop style="stop-color:rgb(255,95,7)" offset="1"/>
  </linearGradient>
  <linearGradient id="_Linear2" x2="1" gradientUnits="userSpaceOnUse">
   <stop style="stop-color:rgb(217,51,0)" offset="0"/>
   <stop style="stop-color:rgb(255,95,7)" offset="1"/>
  </linearGradient>
  <linearGradient id="_Linear3" x2="1" gradientTransform="matrix(-1,1.22465e-16,-1.22465e-16,-1,1,0)" gradientUnits="userSpaceOnUse">
   <stop style="stop-color:rgb(217,51,0)" offset="0"/>
   <stop style="stop-color:rgb(255,95,7)" offset="1"/>
  </linearGradient>
  <linearGradient id="_Linear4" x2="1" gradientTransform="matrix(-1,1.22465e-16,-1.22465e-16,-1,1,0)" gradientUnits="userSpaceOnUse">
   <stop style="stop-color:rgb(255,66,36)" offset="0"/>
   <stop style="stop-color:rgb(255,161,64)" offset="1"/>
  </linearGradient>
  <linearGradient id="_Linear5" x2="1" gradientUnits="userSpaceOnUse">
   <stop style="stop-color:rgb(255,66,36)" offset="0"/>
   <stop style="stop-color:rgb(255,161,64)" offset="1"/>
  </linearGradient>
  <linearGradient id="_Linear6" x2="1" gradientTransform="matrix(2.22047e-15,-36.263,36.263,2.22047e-15,24,45.4957)" gradientUnits="userSpaceOnUse">
   <stop style="stop-color:rgb(255,66,36)" offset="0"/>
   <stop style="stop-color:rgb(255,161,64)" offset="1"/>
  </linearGradient>
  <linearGradient id="_Linear7" x2="1" gradientTransform="matrix(6.12323e-17,-1,1,6.12323e-17,0,1)" gradientUnits="userSpaceOnUse">
   <stop style="stop-color:rgb(230,230,230)" offset="0"/>
   <stop style="stop-color:white" offset="1"/>
  </linearGradient>
 </defs>
</svg>
