<svg style="clip-rule:evenodd;fill-rule:evenodd;stroke-linecap:round" version="1.1" viewBox="0 0 48 48" xmlns="http://www.w3.org/2000/svg">
 <g transform="matrix(.984909 0 0 .984909 .362182 .369727)">
  <rect x="4" y="3" width="40" height="10" style="fill:url(#_Linear1)"/>
 </g>
 <g transform="matrix(.984909 0 0 .984909 .362182 .369727)">
  <path d="M4,3L4,30L7.5,5.5L4,3Z" style="fill-rule:nonzero;fill:url(#_Linear2)"/>
 </g>
 <g transform="matrix(.984909 0 0 .984909 .362182 .369727)">
  <path d="m44 3v5l-3.5-2.5 3.5-2.5z" style="fill-rule:nonzero;fill:url(#_Linear3)"/>
 </g>
 <g transform="matrix(.984909 0 0 .984909 .362182 .369727)">
  <path d="M7.5,5.5L15.2,11L4,11L7.5,5.5Z" style="fill-opacity:.08;fill-rule:nonzero"/>
 </g>
 <path d="m45.668 9.234v30.206c0 3.438-2.79 6.228-6.228 6.228h-30.88c-3.438 0-6.228-2.79-6.228-6.228v-30.206h43.336z" style="fill:url(#_Linear4)"/>
 <g transform="matrix(.984909 0 0 .984909 .362182 .369727)">
  <path d="m46 9h-5.5v-3.5l5.5 3.5z" style="fill-rule:nonzero;fill:url(#_Linear5)"/>
 </g>
 <g transform="matrix(.984909 0 0 .984909 .362182 .369727)">
  <path d="m7.5 5.5-5.5 3.5h5.5v-3.5z" style="fill-rule:nonzero;fill:url(#_Linear6)"/>
 </g>
 <g transform="matrix(.984909 0 0 .984909 .362182 .369727)">
  <circle cx="14" cy="14" r="2" style="fill-opacity:.3"/>
 </g>
 <g transform="matrix(.984909 0 0 .984909 .362182 .369727)">
  <circle cx="34" cy="14" r="2" style="fill-opacity:.3"/>
 </g>
 <g transform="matrix(.984909 0 0 .984909 .362182 .369727)">
  <path d="m34 13c0-5.486-4.514-10-10-10s-10 4.514-10 10" style="fill:none;stroke-width:2.4px;stroke:url(#_Linear7)"/>
 </g>
 <g transform="matrix(.787675 0 0 .787675 5.09579 10.6755)">
  <path d="m31.416 34.066c-2.076 1.532-4.641 2.438-7.416 2.438-6.901 0-12.504-5.603-12.504-12.504s5.603-12.504 12.504-12.504c2.775 0 5.34 0.906 7.416 2.438v-1.671h5.088v23.474h-5.088v-1.671zm2.82-11.211c-0.033-0.289-0.371-0.506-0.664-0.506-0.942 0-1.779-0.554-2.13-1.412-0.361-0.877-0.128-1.902 0.574-2.547 0.222-0.201 0.248-0.54 0.063-0.777-0.483-0.613-1.033-1.167-1.632-1.648-0.234-0.188-0.58-0.161-0.781 0.064-0.615 0.679-1.718 0.933-2.57 0.576-0.886-0.372-1.446-1.271-1.391-2.236 0.018-0.302-0.204-0.566-0.507-0.601-0.769-0.09-1.543-0.091-2.316-6e-3 -0.299 0.033-0.52 0.291-0.511 0.588 0.034 0.956-0.533 1.84-1.41 2.199-0.841 0.343-1.938 0.094-2.549-0.581-0.203-0.221-0.541-0.249-0.779-0.065-0.616 0.484-1.179 1.039-1.666 1.648-0.189 0.236-0.162 0.579 0.061 0.783 0.72 0.649 0.951 1.682 0.577 2.569-0.355 0.847-1.235 1.392-2.24 1.392-0.328-9e-3 -0.56 0.209-0.595 0.506-0.092 0.775-0.092 1.562-6e-3 2.342 0.033 0.291 0.382 0.508 0.675 0.508 0.897-0.024 1.759 0.531 2.121 1.411 0.36 0.878 0.129 1.901-0.576 2.546-0.221 0.203-0.249 0.542-0.063 0.777 0.478 0.611 1.026 1.164 1.63 1.648 0.235 0.192 0.579 0.163 0.784-0.061 0.615-0.682 1.719-0.934 2.567-0.579 0.888 0.372 1.448 1.271 1.393 2.237-0.018 0.303 0.204 0.565 0.507 0.602 0.393 0.044 0.789 0.069 1.187 0.069 0.376 0 0.753-0.022 1.129-0.064 0.299-0.033 0.521-0.291 0.511-0.59-0.034-0.955 0.531-1.837 1.409-2.196 0.847-0.346 1.939-0.093 2.551 0.581 0.202 0.22 0.539 0.248 0.777 0.065 0.617-0.485 1.176-1.038 1.667-1.648 0.189-0.236 0.162-0.58-0.061-0.783-0.717-0.649-0.952-1.682-0.579-2.57 0.352-0.835 1.198-1.397 2.108-1.397l0.128 4e-3c0.295 0.025 0.566-0.204 0.601-0.504 0.092-0.775 0.092-1.563 6e-3 -2.344zm-10.22 4.602c-1.894 0-3.435-1.541-3.435-3.436 0-1.894 1.541-3.436 3.435-3.436 1.895 0 3.436 1.542 3.436 3.436 0 1.895-1.541 3.436-3.436 3.436z" style="fill:url(#_Linear8)"/>
 </g>
 <defs>
  <linearGradient id="_Linear1" x2="1" gradientTransform="matrix(.131484 -10 10 .131484 141.887 14.578)" gradientUnits="userSpaceOnUse">
   <stop style="stop-color:rgb(114,114,114)" offset="0"/>
   <stop style="stop-color:rgb(238,238,238)" offset="1"/>
  </linearGradient>
  <linearGradient id="_Linear2" x2="1" gradientTransform="matrix(3.5,0,0,3.5,4,5.5)" gradientUnits="userSpaceOnUse">
   <stop style="stop-color:rgb(217,217,217)" offset="0"/>
   <stop style="stop-color:rgb(238,238,238)" offset="1"/>
  </linearGradient>
  <linearGradient id="_Linear3" x2="1" gradientTransform="matrix(-3.48396,4.26662e-16,-4.26662e-16,-3.48396,43.984,5.5)" gradientUnits="userSpaceOnUse">
   <stop style="stop-color:rgb(217,217,217)" offset="0"/>
   <stop style="stop-color:rgb(238,238,238)" offset="1"/>
  </linearGradient>
  <linearGradient id="_Linear4" x2="1" gradientTransform="matrix(2.2656e-15,-37,37,2.2656e-15,1356,46)" gradientUnits="userSpaceOnUse">
   <stop style="stop-color:rgb(214,214,214)" offset="0"/>
   <stop style="stop-color:white" offset="1"/>
  </linearGradient>
  <linearGradient id="_Linear5" x2="1" gradientTransform="matrix(5.5,0,0,5.5,40.5,8.25)" gradientUnits="userSpaceOnUse">
   <stop style="stop-color:rgb(236,236,236)" offset="0"/>
   <stop style="stop-color:white" offset="1"/>
  </linearGradient>
  <linearGradient id="_Linear6" x2="1" gradientTransform="matrix(5.5,0,0,5.5,2,9)" gradientUnits="userSpaceOnUse">
   <stop style="stop-color:rgb(236,236,236)" offset="0"/>
   <stop style="stop-color:white" offset="1"/>
  </linearGradient>
  <linearGradient id="_Linear7" x2="1" gradientTransform="matrix(1.13992e-10,-402405,402405,1.13992e-10,-86202.5,402407)" gradientUnits="userSpaceOnUse">
   <stop style="stop-color:rgb(205,205,205)" offset="0"/>
   <stop style="stop-color:white" offset="1"/>
  </linearGradient>
  <linearGradient id="_Linear8" x2="1" gradientTransform="matrix(1.5313e-15,-25.008,25.008,1.5313e-15,311.492,36.504)" gradientUnits="userSpaceOnUse">
   <stop style="stop-color:rgb(64,64,64)" offset="0"/>
   <stop style="stop-color:rgb(96,96,96)" offset="1"/>
  </linearGradient>
 </defs>
</svg>
