<?xml version="1.0" encoding="UTF-8" standalone="no"?><!DOCTYPE svg PUBLIC "-//W3C//DTD SVG 1.1//EN" "http://www.w3.org/Graphics/SVG/1.1/DTD/svg11.dtd"><svg width="100%" height="100%" viewBox="0 0 64 64" version="1.1" xmlns="http://www.w3.org/2000/svg" xmlns:xlink="http://www.w3.org/1999/xlink" xml:space="preserve" xmlns:serif="http://www.serif.com/" style="fill-rule:evenodd;clip-rule:evenodd;stroke-linecap:round;stroke-linejoin:round;"><path d="M48.887,4c6.134,0 11.113,4.979 11.113,11.113l0,33.774c0,6.134 -4.979,11.113 -11.113,11.113l-33.774,0c-6.134,0 -11.113,-4.979 -11.113,-11.113l0,-33.774c0,-6.134 4.979,-11.113 11.113,-11.113l33.774,0Z" style="fill:url(#_Linear1);"/><path d="M15.571,4c-9.648,0 -11.475,6.743 -11.571,13.306l0,14.694l56,0l0,-14.694c0,-4.346 -0.767,-13.306 -12.535,-13.306l-31.894,0Z" style="fill:url(#_Linear2);fill-rule:nonzero;"/><path d="M9.542,32l5.676,0l3.628,-12l2.367,22l6.026,-30l4.09,39l5.595,-36l4.305,30l4.196,-24l2.875,11l5.772,0" style="fill:none;stroke:#292929;stroke-width:4px;"/><defs><linearGradient id="_Linear1" x1="0" y1="0" x2="1" y2="0" gradientUnits="userSpaceOnUse" gradientTransform="matrix(1.71451e-15,-28,28,1.71451e-15,32,60)"><stop offset="0" style="stop-color:#c34800;stop-opacity:1"/><stop offset="1" style="stop-color:#eb6416;stop-opacity:1"/></linearGradient><linearGradient id="_Linear2" x1="0" y1="0" x2="1" y2="0" gradientUnits="userSpaceOnUse" gradientTransform="matrix(1.71451e-15,-28,28,1.71451e-15,32,32)"><stop offset="0" style="stop-color:#fff;stop-opacity:0.3"/><stop offset="1" style="stop-color:#fff;stop-opacity:0.18"/></linearGradient></defs></svg>