
<svg style="clip-rule:evenodd;fill-rule:evenodd;stroke-linejoin:round;stroke-miterlimit:1.41421" version="1.1" viewBox="0 0 64 64" xmlns="http://www.w3.org/2000/svg">
 <path d="m12.933 3c-1.625 0-2.933 1.293-2.933 2.9v44.1h44v-44.1c0-1.607-1.308-2.9-2.933-2.9h-38.134z" style="fill-rule:nonzero;fill:url(#_Linear1)"/>
 <path d="m10 50v8.1c0 1.607 1.308 2.9 2.933 2.9h38.134c1.625 0 2.933-1.293 2.933-2.9v-8.1h-44z" style="fill-rule:nonzero;fill:url(#_Linear2)"/>
 <path d="m14 14v4h4v-4h-4zm4 4v4h4v-4h-4zm4 4v4h-4v4h-4v6h36v-6h-4v-4h-4v-4h-20zm20 0h4v-4h-4v4zm4-4h4v-4h-4v4zm-32 22v10h36v-10h-36z" style="fill-rule:nonzero;fill:#73ac05"/>
 <rect x="22" y="30" width="4" height="4" style="fill:#fff"/>
 <rect x="38" y="30" width="4" height="4" style="fill:#fff"/>
 <rect x="10" y="50" width="44" height="1" style="fill-opacity:.2"/>
 <defs>
  <linearGradient id="_Linear1" x2="1" gradientTransform="matrix(44,0,0,47,10,26.5)" gradientUnits="userSpaceOnUse">
   <stop style="stop-color:#cacaca" offset="0"/>
   <stop style="stop-color:#e4e4e4" offset="1"/>
  </linearGradient>
  <linearGradient id="_Linear2" x2="1" gradientTransform="matrix(44,0,0,11,10,55.5)" gradientUnits="userSpaceOnUse">
   <stop style="stop-color:#242424" offset="0"/>
   <stop style="stop-color:#4f4f4f" offset="1"/>
  </linearGradient>
 </defs>
</svg>
