<svg style="clip-rule:evenodd;fill-rule:evenodd;stroke-linejoin:round;stroke-miterlimit:2" version="1.1" viewBox="0 0 48 48" xmlns="http://www.w3.org/2000/svg">
 <circle cx="24" cy="24" r="22.764" style="fill:url(#_Linear1)"/>
 <path d="m33.534 33.142c-0.371 0.607-1.167 0.801-1.775 0.427-4.859-2.967-10.975-3.64-18.179-1.994-0.694 0.159-1.386-0.277-1.544-0.971-0.159-0.695 0.275-1.387 0.97-1.545 7.884-1.801 14.646-1.026 20.1 2.308 0.608 0.374 0.8 1.166 0.428 1.775zm2.533-5.635c-0.468 0.759-1.461 0.999-2.22 0.532-5.562-3.419-14.042-4.409-20.622-2.412-0.852 0.257-1.753-0.224-2.012-1.075-0.258-0.854 0.223-1.753 1.075-2.013 7.516-2.281 16.859-1.175 23.247 2.75 0.759 0.467 0.999 1.46 0.532 2.218zm0.217-5.867c-6.67-3.962-17.674-4.326-24.042-2.394-1.023 0.31-2.104-0.266-2.414-1.29-0.31-1.022 0.267-2.103 1.291-2.414 7.309-2.219 19.462-1.79 27.141 2.768 0.922 0.546 1.223 1.734 0.676 2.652-0.543 0.92-1.734 1.223-2.651 0.678h-1e-3z" style="fill-opacity:.75;fill-rule:nonzero;fill:#fff"/>
 <defs>
  <linearGradient id="_Linear1" x2="1" gradientTransform="matrix(-11.8753,-41.8312,41.8312,-11.8753,110.067,21.5989)" gradientUnits="userSpaceOnUse">
   <stop style="stop-color:#207900" offset="0"/>
   <stop style="stop-color:#88b13a" offset="1"/>
  </linearGradient>
 </defs>
</svg>
