<svg clip-rule="evenodd" fill-rule="evenodd" stroke-linejoin="round" stroke-miterlimit="2" viewBox="0 0 48 48" xmlns="http://www.w3.org/2000/svg">
 <linearGradient id="a" x2="1" gradientTransform="matrix(.597509 -36.2232 36.2232 .597509 23.4025 40.2232)" gradientUnits="userSpaceOnUse">
  <stop stop-color="#005913" offset="0"/>
  <stop stop-color="#297b3b" offset="1"/>
 </linearGradient>
 <g transform="matrix(1.11017 0 0 1.11017 -2.64417 -2.64417)" fill-rule="nonzero">
  <path d="m36.744 14.653 2.344-3.14c.148-.168.119-.428-.061-.56l-2.166-2.187c-.148-.15-.38-.176-.556-.062l-3.09 2.439-1.113-.729 1.029-3.79c.052-.201-.053-.41-.244-.488l-2.867-1.222c-.206-.071-.434.004-.557.185l-1.82 3.42c-.419-.112-.845-.195-1.275-.246l-.484-3.925c-.031-.204-.208-.353-.412-.348h-3.084c-.2.028-.365.171-.424.365l-.484 3.924c-.428.062-.852.185-1.275.247l-1.887-3.415c-.123-.18-.351-.256-.556-.185l-2.895 1.2c-.192.078-.296.287-.245.488l1.03 3.79-1.114.729-3.067-2.377c-.167-.146-.422-.121-.557.056l-2.171 2.204c-.145.15-.17.381-.061.56l2.427 3.112-.729 1.121-3.758-1.071c-.198-.049-.403.053-.484.242l-1.213 2.932c-.071.207.004.437.183.561l3.396 1.956c-.112.422-.193.851-.245 1.284l-3.897.488c-.213.024-.372.21-.362.426v3.112c.035.199.173.364.362.432l3.897.488c.061.426.184.852.245 1.278l-3.373 1.946c-.18.124-.255.353-.184.56l1.213 2.933c.081.189.286.291.485.241l3.735-1.032.729 1.122-2.366 3.078c-.144.169-.116.426.062.56l1.62 1.665.882.417c.172.142.326.256.549.27l7.008-.277c1.615.543 3.308.812 5.01.796 8.749.003 15.843-7.139 15.843-15.951.081-3.449-.964-6.829-2.973-9.622z" fill="url(#a)"/>
  <path d="m39.171 11.082c-.673 1.281-1.532 2.455-2.549 3.481-1.941 2.02-4.343 3.529-6.998 4.396-3.846 1.301-7.825.981-11.159 2.383-5.996 2.63-6.541 9.896-4.12 13.457l1.275-.241c3.077-.538 6.514-1.288 9.49-2.243 5.071-1.935 10.666-6.639 12.547-12.055-.974 5.68-5.567 11.175-10.671 13.804-2.606 1.335-8.322 3.902-16.561 4.956 3.655 3.399 8.658 5.014 13.633 4.98 16.976.107 26.19-19.96 15.113-32.918z" fill="#77bd43"/>
 </g>
</svg>
