
<svg style="clip-rule:evenodd;fill-rule:evenodd;stroke-linejoin:round;stroke-miterlimit:1.41421" version="1.1" viewBox="0 0 64 64" xmlns="http://www.w3.org/2000/svg">
 <path d="m32 3c16.006 0 29 12.994 29 29s-12.994 29-29 29-29-12.994-29-29 12.994-29 29-29z" style="fill:url(#_Linear1)"/>
 <path d="m36.83 33.294c-0.714 2.665-3.458 4.249-6.124 3.535-2.665-0.714-4.25-3.458-3.535-6.123 0.714-2.666 3.458-4.25 6.123-3.536 2.666 0.714 4.25 3.458 3.536 6.124z" style="fill:url(#_Linear2)"/>
 <rect x="25.06" y="31.353" width="13.88" height="1.294" style="fill:url(#_Linear2)"/>
 <rect x="31.353" y="25.06" width="1.294" height="13.88" style="fill:url(#_Linear2)"/>
 <path d="m5.861 32c0-14.427 11.712-26.14 26.139-26.14s26.14 11.713 26.14 26.14c0 6.192-2.157 11.884-5.761 16.364l-5.972-4.795c2.548-3.168 4.073-7.192 4.073-11.569 0-10.199-8.28-18.48-18.48-18.48-10.199 0-18.48 8.28-18.48 18.48h-7.659z" style="fill:url(#_Linear5)"/>
 <path d="m11.476 48.181c-3.516-4.452-5.615-10.073-5.615-16.181 0-14.427 11.712-26.14 26.139-26.14 4.452 0 8.644 1.115 12.315 3.081-1.109 1.991-2.387 4.318-3.692 6.713-2.575-1.362-5.509-2.134-8.623-2.134-10.199 0-18.48 8.281-18.48 18.48 0 4.337 1.497 8.327 4.003 11.481-2.072 1.613-4.144 3.223-6.047 4.7z" style="fill:url(#_Linear6)"/>
 <defs>
  <linearGradient id="_Linear1" x2="1" gradientTransform="matrix(57.8095,-4.64336,4.64336,57.8095,3.13097,34.7715)" gradientUnits="userSpaceOnUse">
   <stop style="stop-color:#283c91" offset="0"/>
   <stop style="stop-color:#007e97" offset="1"/>
  </linearGradient>
  <linearGradient id="_Linear2" x2="1" gradientTransform="matrix(13.88,0,0,13.88,25.06,32)" gradientUnits="userSpaceOnUse">
   <stop style="stop-color:#00f9af" offset="0"/>
   <stop style="stop-color:#81ceac" offset="1"/>
  </linearGradient>
  <linearGradient id="_Linear5" x2="1" gradientTransform="matrix(46.8076,45.3641,-45.3641,46.8076,5.57135,3)" gradientUnits="userSpaceOnUse">
   <stop style="stop-color:#373737" offset="0"/>
   <stop style="stop-color:#1f1f1f" offset="1"/>
  </linearGradient>
  <linearGradient id="_Linear6" x2="1" gradientTransform="matrix(38.4542,0,0,38.4542,5.86051,27.0205)" gradientUnits="userSpaceOnUse">
   <stop style="stop-color:#00f9af" offset="0"/>
   <stop style="stop-color:#81ceac" offset="1"/>
  </linearGradient>
 </defs>
</svg>
