<svg style="clip-rule:evenodd;fill-rule:evenodd;stroke-linejoin:round;stroke-miterlimit:2" version="1.1" viewBox="0 0 48 48" xmlns="http://www.w3.org/2000/svg">
 <path d="m39.44 45.668h-30.88c-3.438 0-6.228-2.79-6.228-6.228v-30.88c0-3.438 2.79-6.228 6.228-6.228h30.88c3.438 0 6.228 2.79 6.228 6.228v30.88c0 3.438-2.79 6.228-6.228 6.228z" style="fill:url(#_Linear1)"/>
 <g transform="matrix(1.2,0,0,1.2,-4.8,-4.8)">
  <path d="m24 10c-7.68 0-14 6.32-14 14s6.32 14 14 14 14-6.32 14-14-6.32-14-14-14zm-0.029 7c2.991 0 5.981 0.034 6.381 0.105 0.949 0.17 1.233 0.522 1.988 2.459 0.767 1.969 1.415 4.68 1.613 6.737 0.115 1.191 0.019 2.009-0.326 2.797-0.52 1.185-1.963 2.077-3.029 1.873-0.549-0.106-0.888-0.523-1.787-2.194-0.459-0.851-0.931-1.634-1.069-1.777h-7.537l-0.029 0.033c-0.133 0.152-0.558 0.872-0.946 1.6-0.387 0.728-0.803 1.477-0.923 1.664-0.397 0.618-1.239 0.865-2.002 0.586-0.947-0.346-1.723-1.088-2.057-1.965-0.652-1.713 0.023-5.97 1.557-9.801 0.597-1.492 0.923-1.861 1.773-2.01 0.407-0.071 3.401-0.107 6.393-0.107zm-4.471 2c-1.371 0-2.5 1.129-2.5 2.5s1.129 2.5 2.5 2.5 2.5-1.129 2.5-2.5-1.129-2.5-2.5-2.5zm9 0c-1.371 0-2.5 1.129-2.5 2.5s1.129 2.5 2.5 2.5 2.5-1.129 2.5-2.5-1.129-2.5-2.5-2.5z" style="fill-rule:nonzero;fill:white"/>
 </g>
 <defs>
  <linearGradient id="_Linear1" x2="1" gradientTransform="matrix(2.64743e-15,-43.2357,43.2357,2.64743e-15,23.9997,45.6179)" gradientUnits="userSpaceOnUse">
   <stop style="stop-color:rgb(6,49,91)" offset="0"/>
   <stop style="stop-color:rgb(32,78,123)" offset="1"/>
  </linearGradient>
 </defs>
</svg>
