
<svg style="clip-rule:evenodd;fill-rule:evenodd;stroke-linejoin:round;stroke-miterlimit:1.41421" version="1.1" viewBox="0 0 256 256" xmlns="http://www.w3.org/2000/svg">
 <path d="m165.685 11.947c74.055 0 84.639 10.557 84.639 84.544v59.251c0 73.986-10.584 84.543-84.639 84.543h-75.37c-74.055 0-84.639-10.557-84.639-84.543v-59.251c0-73.987 10.584-84.544 84.639-84.544h75.37z" style="fill-rule:nonzero;fill:url(#_Linear1)"/>
 <path d="m88.705 239.618c0.59 2e-3 1.011 0.039 1.609 0.039h75.372c9.257 0 17.521-0.164 24.898-0.597 3.688-0.217 7.155-0.5 10.412-0.864 3.068-0.334 6.122-0.782 9.156-1.343 2.852-0.537 5.507-1.168 7.979-1.903s4.761-1.575 6.879-2.535c2.04-0.915 3.999-2.002 5.855-3.248 1.762-1.186 3.406-2.538 4.91-4.037 1.501-1.502 2.855-3.144 4.043-4.904 1.248-1.854 2.336-3.81 3.252-5.848 0.961-2.116 1.803-4.402 2.539-6.871 0.737-2.469 1.367-5.122 1.905-7.971 0.537-2.848 0.981-5.893 1.345-9.146 0.38-3.459 0.669-6.927 0.866-10.401 0.434-7.369 0.599-15.626 0.599-24.875v-73.109c-85.462 2.699-166.79 55.232-192.223 114.495-4.905 11.349 31.816 30.814 30.604 43.118z" style="fill-rule:nonzero;fill:url(#_Linear2)"/>
 <path d="m186.095 30.343c-23.472 0-42.499 19.027-42.499 42.5 0 23.471 19.028 42.499 42.499 42.499 23.472 0 42.5-19.028 42.5-42.499 0-23.473-19.028-42.5-42.5-42.5z" style="fill-rule:nonzero;fill:#220868"/>
 <path d="m214.984 41.683c4.163 6.71 6.364 14.452 6.354 22.349 0 23.471-19.026 42.498-42.498 42.498-11.16 0-21.31-4.308-28.893-11.343 7.491 12.095 20.874 20.156 36.147 20.156 23.471 0 42.501-19.03 42.501-42.502 0-12.314-5.243-23.396-13.611-31.158z" style="fill-rule:nonzero;fill:#e1e1e1"/>
 <path d="m84.995 223.336s140.783-4.711 140.98-8.185c0.197-3.352 22.272-18.384 23.33-29.302 0.815-8.411 0.418-16.185 0.418-16.185-67.614 2.682-140.499 28.866-164.728 53.672z" style="fill-rule:nonzero;fill:#7e578e"/>
 <path d="m5.676 136.676c0.042 7.688 0.227 36.995 0.599 43.313 0.197 3.474 0.486 6.942 0.866 10.401 0.364 3.253 0.808 6.298 1.345 9.146 0.538 2.849 1.168 5.502 1.905 7.971 0.736 2.469 1.578 4.755 2.539 6.871 0.916 2.038 2.004 3.994 3.252 5.848 1.188 1.76 2.542 3.402 4.043 4.904 1.504 1.499 3.148 2.851 4.91 4.037 1.856 1.246 3.815 2.333 5.855 3.248 2.118 0.96 4.407 1.8 6.879 2.535s5.127 1.366 7.979 1.903c2.851 0.536 5.899 0.98 9.156 1.343 3.257 0.364 6.724 0.647 10.412 0.864 7.377 0.433 15.641 0.597 24.898 0.597h75.372c9.257 0 17.521-0.164 24.898-0.597 3.688-0.217 7.155-0.5 10.412-0.864 3.068-0.334 6.122-0.782 9.156-1.343 2.852-0.537 5.507-1.168 7.979-1.903s4.761-1.575 6.879-2.535c2.04-0.915 3.999-2.002 5.855-3.248 1.762-1.186 3.406-2.538 4.91-4.037 1.501-1.502 2.855-3.144 4.043-4.904 1.248-1.854 2.336-3.81 3.252-5.848 0.961-2.116 1.803-4.402 2.539-6.871 0.737-2.469 1.367-5.122 1.905-7.971 0.537-2.848 0.981-5.893 1.345-9.146 0.364-3.246 0.647-6.701 0.864-10.375-2.853-2.337-6.473-6.303-6.473-6.303l-4.675 3.751-4.607-9.881-3.64 13.146-6.224-7.016-3.447 5.44-3.864-2.218-5.631 9.104s-19.086 12.21-50.625 11.901c-17.297-0.169-46.154-11.901-46.154-11.901l-12.482-7.412-7.409-0.02-6.408-8.652-8.578 3.758-5.387-9.731-4.728 3.601h-7.738l-5.938-10.531-3.625 5.985-2.818-1.895-0.875-6.457-2.289-4.682-3.667 4.505-3.737 1.34-1.721-16.521-2.177 1.847-2.576-9.274-5.524 12.673-4.629-18.804-3.402 6.485-5.425-11.154s-4.36 9.325-7.574 15.577z" style="fill-rule:nonzero;fill:#313131"/>
 <path d="m70.014 107.997c1.671 0 3.028 1.357 3.028 3.028s-1.357 3.028-3.028 3.028-3.028-1.357-3.028-3.028 1.357-3.028 3.028-3.028zm12.955-21.59c2.692 0 4.878 2.186 4.878 4.878s-2.186 4.878-4.878 4.878-4.878-2.186-4.878-4.878 2.186-4.878 4.878-4.878zm-33.774-7.094c2.607 0 4.724 2.117 4.724 4.724s-2.117 4.724-4.724 4.724-4.724-2.117-4.724-4.724 2.117-4.724 4.724-4.724zm10.795-8.944c1.075 0 1.948 0.873 1.948 1.948s-0.873 1.948-1.948 1.948-1.948-0.873-1.948-1.948 0.873-1.948 1.948-1.948zm-22.572-20.917c4.139 0 7.5 3.361 7.5 7.5s-3.361 7.5-7.5 7.5-7.5-3.361-7.5-7.5 3.361-7.5 7.5-7.5zm39.48-8.945c2.607 0 4.724 2.117 4.724 4.724s-2.117 4.724-4.724 4.724-4.724-2.117-4.724-4.724 2.117-4.724 4.724-4.724zm-23.287-4.935c1.671 0 3.028 1.357 3.028 3.028s-1.357 3.028-3.028 3.028-3.028-1.357-3.028-3.028 1.357-3.028 3.028-3.028z" style="fill:#e1e1e1"/>
 <defs>
  <linearGradient id="_Linear1" x2="1" gradientTransform="matrix(-40.0709,-140.321,140.321,-40.0709,137.845,152.268)" gradientUnits="userSpaceOnUse">
   <stop style="stop-color:#8d4fe5" offset="0"/>
   <stop style="stop-color:#150059" offset="1"/>
  </linearGradient>
  <linearGradient id="_Linear2" x2="1" gradientTransform="matrix(-16.0733,-42.6241,42.6241,-16.0733,170.06,192.007)" gradientUnits="userSpaceOnUse">
   <stop style="stop-color:#ffb6a8" offset="0"/>
   <stop style="stop-color:#f17a70;stop-opacity:.901961" offset=".23"/>
   <stop style="stop-color:#ec635b;stop-opacity:.862745" offset=".43"/>
   <stop style="stop-color:#d35c72;stop-opacity:.682353" offset=".75"/>
   <stop style="stop-color:#753fc8;stop-opacity:0" offset="1"/>
  </linearGradient>
 </defs>
</svg>
