<svg style="clip-rule:evenodd;fill-rule:evenodd;stroke-linejoin:round;stroke-miterlimit:2" version="1.1" viewBox="0 0 48 48" xmlns="http://www.w3.org/2000/svg">
 <path d="m39.44 45.668h-30.88c-3.438 0-6.228-2.79-6.228-6.228v-30.88c0-3.438 2.79-6.228 6.228-6.228h30.88c3.438 0 6.228 2.79 6.228 6.228v30.88c0 3.438-2.79 6.228-6.228 6.228z" style="fill:url(#_Linear1)"/>
 <g transform="matrix(1,0,0,1.30202,0,-7.24849)">
  <rect x="6" y="10" width="36" height="28" style="fill-rule:nonzero;fill:url(#_Linear2)"/>
 </g>
 <g transform="translate(0 2.85856)">
  <path d="m33.652 23-3.652 0.307 0.096 13.57h2.502v-0.725c0.364 0.205 0.758 0.399 1.189 0.573 0.432 0.183 0.882 0.275 1.371 0.275 0.633 0 1.247-0.113 1.832-0.348s1.093-0.57 1.543-1.009c0.441-0.44 0.796-0.991 1.065-1.645 0.268-0.643 0.402-1.389 0.402-2.236 0-0.633-0.106-0.956-0.326-1.559-0.221-0.602-0.517-1.143-0.91-1.623s-0.844-0.858-1.371-1.154c-0.528-0.296-1.114-0.44-1.747-0.44-0.488 0-0.88 0.073-1.187 0.205-0.307 0.133-0.623 0.297-0.949 0.491l0.142-4.682zm-19.949 0.012c-0.72 0.03-1.392 0.159-2.025 0.388-0.634 0.23-1.192 0.55-1.662 0.969-0.48 0.429-0.855 0.938-1.123 1.537-0.279 0.599-0.402 1.278-0.383 2.047 9e-3 0.449 0.094 0.848 0.258 1.197 0.163 0.35 0.375 0.649 0.625 0.909 0.24 0.269 0.518 0.49 0.816 0.679 0.298 0.19 0.605 0.349 0.902 0.479 0.298 0.13 0.567 0.24 0.826 0.31 0.26 0.08 0.46 0.14 0.624 0.18 0.24 0.1 0.452 0.199 0.634 0.299 0.173 0.1 0.258 0.24 0.268 0.43 9e-3 0.289-0.114 0.489-0.383 0.609s-0.596 0.189-0.99 0.209c-0.269 0.01-0.538-0.01-0.807-0.08-0.278-0.07-0.537-0.141-0.797-0.231-0.259-0.089-0.488-0.179-0.709-0.289s-0.413-0.19-0.576-0.25l-1.201 3.526c0.317 0.149 0.662 0.3 1.018 0.429 0.355 0.14 0.729 0.26 1.113 0.36 0.374 0.1 0.759 0.169 1.152 0.219 0.394 0.049 0.768 0.07 1.133 0.06 0.807-0.03 1.557-0.161 2.258-0.391 0.701-0.229 1.295-0.547 1.795-0.957 0.499-0.409 0.883-0.908 1.162-1.507 0.278-0.599 0.394-1.288 0.365-2.067-0.019-0.549-0.126-1.028-0.308-1.428-0.183-0.399-0.411-0.739-0.69-1.029-0.278-0.289-0.596-0.529-0.941-0.728-0.346-0.2-0.682-0.38-1.008-0.53-0.279-0.119-0.558-0.209-0.856-0.279l-0.259-0.07c-0.173-0.04-0.412-0.089-0.719-0.158-0.077-0.01-0.174-0.032-0.289-0.041-0.115-0.01-0.231-0.041-0.336-0.071-0.115-0.03-0.212-0.069-0.289-0.119s-0.115-0.109-0.115-0.199c9e-3 -0.19 0.086-0.349 0.25-0.459 0.163-0.11 0.345-0.19 0.566-0.24 0.211-0.05 0.433-0.071 0.654-0.071 0.231 0 0.413 0.012 0.557 0.032 0.461 0.069 0.863 0.159 1.219 0.289 0.345 0.129 0.729 0.279 1.152 0.468l0.941-3.802c-0.566-0.25-1.181-0.42-1.834-0.53-0.662-0.099-1.325-0.129-1.988-0.099zm9.399 3.988-4.102 0.297v6.861c0 0.921 0.297 1.624 0.879 2.11 0.582 0.485 1.336 0.732 2.283 0.732 0.719 0 1.346-0.129 1.883-0.377 0.536-0.247 0.925-0.673 1.176-1.277h0.035v1.506l3.459-0.129 0.285-9.723-4.027 0.297 0.115 6.062c0.011 0.267-0.068 0.445-0.217 0.554-0.16 0.109-0.665 0.168-0.916 0.168-0.308 0-0.625-0.059-0.773-0.178-0.149-0.108-0.207-0.297-0.196-0.554l0.116-6.349zm12.484 3.002c0.223 0.019 0.436 0.077 0.621 0.164s0.35 0.204 0.477 0.35c0.126 0.145 0.213 0.32 0.261 0.504 0.059 0.193 0.069 0.386 0.039 0.58-0.029 0.193-0.108 0.378-0.214 0.543-0.117 0.164-0.261 0.319-0.446 0.455-0.184 0.135-0.4 0.24-0.662 0.308-0.252 0.078-0.495 0.108-0.728 0.088-0.243-0.01-0.456-0.067-0.641-0.154s-0.341-0.195-0.467-0.34-0.223-0.31-0.271-0.504c-0.059-0.194-0.069-0.386-0.039-0.58 0.029-0.184 0.108-0.369 0.224-0.543 0.107-0.165 0.261-0.32 0.446-0.465 0.184-0.135 0.409-0.241 0.662-0.308 0.262-0.078 0.505-0.108 0.738-0.098z" style="fill-rule:nonzero;fill:rgb(255,145,33)"/>
 </g>
 <defs>
  <linearGradient id="_Linear1" x2="1" gradientTransform="matrix(2.06275e-15,-33.6872,33.6872,2.06275e-15,923.28,40.4502)" gradientUnits="userSpaceOnUse">
   <stop style="stop-color:rgb(79,79,79)" offset="0"/>
   <stop style="stop-color:rgb(108,108,108)" offset="1"/>
  </linearGradient>
  <linearGradient id="_Linear2" x2="1" gradientTransform="matrix(2.23232e-15,-28,36.4566,1.71451e-15,24,38)" gradientUnits="userSpaceOnUse">
   <stop style="stop-color:rgb(59,59,59)" offset="0"/>
   <stop style="stop-color:rgb(81,81,81)" offset="1"/>
  </linearGradient>
 </defs>
</svg>
