<svg style="clip-rule:evenodd;fill-rule:evenodd;stroke-linejoin:round;stroke-miterlimit:2" version="1.1" viewBox="0 0 48 48" xmlns="http://www.w3.org/2000/svg">
 <path d="m45.668 8.56c0-3.438-2.79-6.228-6.228-6.228h-30.88c-3.438 0-6.228 2.79-6.228 6.228v30.88c0 3.438 2.79 6.228 6.228 6.228h30.88c3.438 0 6.228-2.79 6.228-6.228v-30.88z" style="fill:url(#_Linear1)"/>
 <path d="m32.567 4.2h10.415c0.401 0 0.724 0.323 0.724 0.724v10.415c0 0.402-0.323 0.725-0.724 0.725h-10.415c-0.401 0-0.724-0.323-0.724-0.725v-10.415c0-0.401 0.323-0.724 0.724-0.724z" style="fill-rule:nonzero;fill:#ccc"/>
 <path d="m4.885 18.041h10.415c0.402 0 0.725 0.323 0.725 0.724v10.415c0 0.402-0.323 0.725-0.725 0.725h-10.415c-0.401 0-0.724-0.323-0.724-0.725v-10.415c0-0.401 0.323-0.724 0.724-0.724z" style="fill-rule:nonzero;fill:#ccc"/>
 <path d="m4.885 31.882h10.415c0.402 0 0.725 0.323 0.725 0.724v10.415c0 0.401-0.323 0.724-0.725 0.724h-10.415c-0.401 0-0.724-0.323-0.724-0.724v-10.415c0-0.401 0.323-0.724 0.724-0.724z" style="fill-rule:nonzero;fill:#ccc"/>
 <path d="m18.726 31.882h10.415c0.402 0 0.725 0.323 0.725 0.724v10.415c0 0.401-0.323 0.724-0.725 0.724h-10.415c-0.401 0-0.724-0.323-0.724-0.724v-10.415c0-0.401 0.323-0.724 0.724-0.724z" style="fill-rule:nonzero;fill:#ccc"/>
 <path d="m32.567 18.041h10.415c0.401 0 0.724 0.323 0.724 0.724v10.415c0 0.402-0.323 0.725-0.724 0.725h-10.415c-0.401 0-0.724-0.323-0.724-0.725v-10.415c0-0.401 0.323-0.724 0.724-0.724z" style="fill-rule:nonzero;fill:#ccc"/>
 <path d="m4.885 4.2h10.415c0.402 0 0.725 0.323 0.725 0.724v10.415c0 0.402-0.323 0.725-0.725 0.725h-10.415c-0.401 0-0.724-0.323-0.724-0.725v-10.415c0-0.401 0.323-0.724 0.724-0.724z" style="fill-rule:nonzero;fill:url(#_Linear2)"/>
 <path d="m18.726 4.2h10.415c0.402 0 0.725 0.323 0.725 0.724v10.415c0 0.402-0.323 0.725-0.725 0.725h-10.415c-0.401 0-0.724-0.323-0.724-0.725v-10.415c0-0.401 0.323-0.724 0.724-0.724z" style="fill-rule:nonzero;fill:url(#_Linear2)"/>
 <path d="m32.567 31.882h10.415c0.401 0 0.724 0.323 0.724 0.724v10.415c0 0.401-0.323 0.724-0.724 0.724h-10.415c-0.401 0-0.724-0.323-0.724-0.724v-10.415c0-0.401 0.323-0.724 0.724-0.724z" style="fill-rule:nonzero;fill:url(#_Linear2)"/>
 <path d="m18.726 18.041h10.415c0.402 0 0.725 0.323 0.725 0.724v10.415c0 0.402-0.323 0.725-0.725 0.725h-10.415c-0.401 0-0.724-0.323-0.724-0.725v-10.415c0-0.401 0.323-0.724 0.724-0.724z" style="fill-rule:nonzero;fill:url(#_Linear2)"/>
 <path d="m12.125 7.201h-3.363l-0.149 2.512h0.022c0.418-0.248 0.89-0.373 1.415-0.373 0.759 0 1.348 0.206 1.767 0.618 0.418 0.411 0.628 0.993 0.628 1.745 0 0.866-0.245 1.525-0.735 1.979-0.482 0.455-1.192 0.682-2.128 0.682-0.681 0-1.313-0.135-1.895-0.405v-0.809c0.646 0.334 1.278 0.501 1.895 0.501 1.341 0 2.011-0.65 2.011-1.948 0-0.546-0.145-0.961-0.436-1.245-0.291-0.291-0.71-0.437-1.256-0.437-0.56 0-1.025 0.164-1.394 0.49h-0.745l0.234-4.023h4.129v0.713z" style="fill-rule:nonzero;fill:#1a1a1a"/>
 <path d="m23.894 6.478c0.76 0 1.35 0.195 1.769 0.586 0.419 0.384 0.629 0.923 0.629 1.62 0 0.696-0.252 1.403-0.757 2.12-0.504 0.711-1.449 1.652-2.834 2.824v0.022h3.623v0.714h-4.796v-0.714c1.514-1.251 2.54-2.224 3.08-2.92 0.54-0.704 0.81-1.364 0.81-1.982 0-0.498-0.139-0.878-0.416-1.141-0.277-0.27-0.682-0.405-1.214-0.405-0.675 0-1.375 0.207-2.1 0.619v-0.832c0.682-0.341 1.418-0.511 2.206-0.511z" style="fill-rule:nonzero;fill:#1a1a1a"/>
 <path d="m21.528 20.466h4.581v0.701l-2.5 2.457v0.021h0.314c0.739 0 1.304 0.178 1.694 0.534 0.397 0.355 0.596 0.871 0.596 1.547 0 0.795-0.233 1.408-0.7 1.841-0.468 0.425-1.14 0.638-2.019 0.638-0.711 0-1.342-0.133-1.892-0.398v-0.805c0.585 0.335 1.216 0.502 1.892 0.502 0.614 0 1.081-0.15 1.402-0.45 0.32-0.3 0.481-0.742 0.481-1.328 0-0.495-0.168-0.861-0.502-1.098-0.328-0.244-0.854-0.366-1.579-0.366h-0.764v-0.648l2.5-2.426v-0.021h-3.504v-0.701z" style="fill-rule:nonzero;fill:#1a1a1a"/>
 <path d="m35.523 41.062c0.523 0.189 1.07 0.283 1.642 0.283 0.676 0 1.213-0.237 1.61-0.711 0.398-0.481 0.603-1.192 0.617-2.133l-0.02-0.011c-0.419 0.607-1.091 0.91-2.019 0.91-0.76 0-1.363-0.234-1.809-0.701s-0.669-1.105-0.669-1.913c0-0.795 0.248-1.423 0.742-1.883 0.495-0.467 1.144-0.7 1.945-0.7 1.813 0 2.719 1.115 2.719 3.346 0 1.555-0.265 2.694-0.794 3.419-0.53 0.718-1.304 1.077-2.322 1.077-0.558 0-1.105-0.08-1.642-0.24v-0.742-1e-3zm2.039-6.159c-0.564 0-1.014 0.168-1.348 0.502-0.335 0.328-0.502 0.788-0.502 1.381 0 0.606 0.163 1.087 0.491 1.443 0.335 0.348 0.777 0.523 1.328 0.523 0.558 0 1.007-0.175 1.349-0.523 0.349-0.349 0.523-0.809 0.523-1.381 0-0.209-0.035-0.418-0.105-0.627-0.062-0.216-0.164-0.425-0.303-0.627-0.132-0.203-0.324-0.366-0.575-0.492-0.244-0.132-0.53-0.199-0.858-0.199z" style="fill-rule:nonzero;fill:#1a1a1a"/>
 <path d="m43.128 17.548c0.347-0.27 0.41-0.77 0.14-1.118l-2.785-3.59c-0.129-0.167-0.32-0.276-0.53-0.302-0.209-0.027-0.42 0.031-0.587 0.161-6.313 4.9-12.627 9.8-18.94 14.699-0.097 0.076-0.176 0.173-0.23 0.283l-2.213 4.595c-0.131 0.273-0.097 0.595 0.088 0.834 0.132 0.17 0.324 0.276 0.53 0.302 0.084 0.011 0.17 9e-3 0.256-9e-3l5-1.005c0.121-0.024 0.235-0.076 0.332-0.151 6.313-4.9 12.625-9.8 18.939-14.699z" style="fill-rule:nonzero;fill:url(#_Linear6)"/>
 <path d="m20.196 27.681l-2.213 4.595c-0.131 0.273-0.097 0.595 0.088 0.834 0.132 0.17 0.324 0.276 0.53 0.302 0.084 0.011 0.17 9e-3 0.256-9e-3l5-1.005c-1.128-5.785-0.961-1.485-3.661-4.717z" style="fill-rule:nonzero;fill:url(#_Linear7)"/>
 <path d="m43.268 16.43l-2.785-3.59c-0.129-0.167-0.32-0.276-0.53-0.302-0.209-0.027-0.42 0.031-0.587 0.161l-2.003 1.554 3.763 4.848 2.002-1.553c0.347-0.27 0.41-0.77 0.14-1.118z" style="fill-rule:nonzero;fill:url(#_Linear8)"/>
 <path d="m18.601 30.933l-0.669 1.39c-0.13 0.272-0.097 0.595 0.089 0.834 0.131 0.169 0.323 0.276 0.529 0.302 0.084 0.01 0.171 8e-3 0.257-9e-3l1.366-0.272c-0.078-1.892 1.468-0.404-1.572-2.245z" style="fill-rule:nonzero;fill:#4d4d4d"/>
 <path d="m36.435 14.972c-0.236 0.183-0.472 0.367-0.708 0.55l3.763 4.847c0.235-0.183 0.471-0.366 0.707-0.549l-3.762-4.848zm0.958-0.742c-0.236 0.184-0.472 0.367-0.709 0.551l3.764 4.846c0.235-0.183 0.471-0.365 0.706-0.548l-3.761-4.849z" style="fill-rule:nonzero;fill:url(#_Linear9)"/>
 <path d="m22.864 29.145l3.86-3.065 12.598-9.334 1.823 2.338-16.95 13.15c-0.095 0.099-0.208 0.148-0.334 0.164l-0.348-1.673c-0.133-0.574-0.278-1.165-0.649-1.58z" style="fill-opacity:.04;fill-rule:nonzero"/>
 <defs>
  <linearGradient id="_Linear1" x2="1" gradientTransform="matrix(2.65364e-15,-43.3373,43.3373,2.65364e-15,201.9,45.6687)" gradientUnits="userSpaceOnUse">
   <stop style="stop-color:#fff" offset="0"/>
   <stop style="stop-color:#e4e4e4" offset="1"/>
  </linearGradient>
  <linearGradient id="_Linear2" x2="1" gradientTransform="matrix(.61168 -39.0606 39.0606 .61168 33.4786 43.4633)" gradientUnits="userSpaceOnUse">
   <stop style="stop-color:#808080" offset="0"/>
   <stop style="stop-color:#808080" offset="1"/>
  </linearGradient>
  <linearGradient id="_Linear6" x2="1" gradientTransform="matrix(-3.80119,-4.76239,4.76239,-3.80119,33.695,24.9117)" gradientUnits="userSpaceOnUse">
   <stop style="stop-color:#ffd42a" offset="0"/>
   <stop style="stop-color:#fd5" offset="1"/>
  </linearGradient>
  <linearGradient id="_Linear7" x2="1" gradientTransform="matrix(-2.31567,-2.35936,2.35936,-2.31567,21.4176,32.6452)" gradientUnits="userSpaceOnUse">
   <stop style="stop-color:#d38d5f" offset="0"/>
   <stop style="stop-color:#deaa87" offset="1"/>
  </linearGradient>
  <linearGradient id="_Linear8" x2="1" gradientTransform="matrix(-2.44673,-5.67993,5.67993,-2.44673,42.346,18.2705)" gradientUnits="userSpaceOnUse">
   <stop style="stop-color:#d35f5f" offset="0"/>
   <stop style="stop-color:#de8787" offset="1"/>
  </linearGradient>
  <linearGradient id="_Linear9" x2="1" gradientTransform="matrix(-3.76917,-4.81962,4.81962,-3.76917,39.6328,19.9865)" gradientUnits="userSpaceOnUse">
   <stop style="stop-color:#999" offset="0"/>
   <stop style="stop-color:#ccc" offset="1"/>
  </linearGradient>
 </defs>
</svg>
