<svg clip-rule="evenodd" fill-rule="evenodd" stroke-linejoin="round" stroke-miterlimit="2" viewBox="0 0 48 48" xmlns="http://www.w3.org/2000/svg">
 <linearGradient id="a" x2="1" gradientTransform="matrix(0 -35.3911 35.3911 0 968.766 41.2823)" gradientUnits="userSpaceOnUse">
  <stop stop-color="#006783" offset="0"/>
  <stop stop-color="#13bee3" offset="1"/>
 </linearGradient>
 <circle cx="24" cy="24" r="22.764" fill="url(#a)"/>
 <path d="m21.856 27.72c-1.219-.349-2.285-1.264-2.604-2.236-.395-1.205-.182-3.575.435-4.836.284-.58.417-1.085.417-1.122s-.535-.299-1.188-.581c-2.178-.943-4.65-4.204-4.893-6.749-.147-1.543.384-2.019 2.4-2.148 2.055-.131 4.909.33 7.742 1.766 1.26.638 2.349 1.102 2.42 1.03.058-.519.183-1.717.55-1.844.614-.213 1.016.975 1.559 1.317.074 0 .793-.989 1.599-2.198 1.549-2.324 3.814-4.785 5.17-5.617 1.677-1.028 3.242-.439 3.772 1.42.666 2.339.103 5.681-1.415 8.09l-.702 1.114 1.277.95c1.939 1.441 2.605 2.446 2.605 3.926 0 .949-.161 1.488-.714 2.388-2.046 3.33-5.257 3.472-8.247.364-.514-.533-1.279-1.322-1.39-1.322-.166 1.141.49 2.413.351 3.568-.869-.798-.989-2.244-1.611-3.317-.102.026-.642 1.16-.951 2.147-1.076 3.432-3.35 4.814-6.582 3.89z" fill="#fff" fill-rule="nonzero"/>
</svg>
