<?xml version="1.0" encoding="UTF-8" standalone="no"?><!DOCTYPE svg PUBLIC "-//W3C//DTD SVG 1.1//EN" "http://www.w3.org/Graphics/SVG/1.1/DTD/svg11.dtd"><svg width="100%" height="100%" viewBox="0 0 64 64" version="1.1" xmlns="http://www.w3.org/2000/svg" xmlns:xlink="http://www.w3.org/1999/xlink" xml:space="preserve" xmlns:serif="http://www.serif.com/" style="fill-rule:evenodd;clip-rule:evenodd;stroke-linejoin:round;stroke-miterlimit:1.41421;"><path d="M32.156,3.002c-1.21,-0.028 -2.405,0.277 -3.453,0.883l-19.406,11.202c-2.038,1.177 -3.297,3.358 -3.297,5.711l0,22.406c0.002,1.545 0.547,3.042 1.539,4.226l24.461,-13.803l24.457,13.803c0.994,-1.184 1.54,-2.681 1.543,-4.226l0,-22.406c0.002,-2.354 -1.258,-4.537 -3.297,-5.715l-19.406,-11.198c-0.956,-0.553 -2.037,-0.857 -3.141,-0.883Zm-24.617,44.428c0.14,0.169 0.289,0.331 0.445,0.485c-0.156,-0.154 -0.305,-0.316 -0.445,-0.485Zm0.445,0.485c0.127,0.122 0.259,0.239 0.395,0.351c-0.136,-0.112 -0.268,-0.229 -0.395,-0.351Zm48.465,-0.473c-0.349,0.419 -0.75,0.793 -1.191,1.113c0.441,-0.32 0.842,-0.694 1.191,-1.113Zm-25.262,13.507c0.437,0.055 0.878,0.065 1.317,0.032c-0.439,0.033 -0.88,0.023 -1.317,-0.032Z" style="fill:url(#_Linear1);fill-rule:nonzero;"/><path d="M31.979,61l0.019,0l-0.019,0c-0.045,-0.001 -0.089,-0.001 -0.134,-0.002l0.082,0.001l0.052,0.001Zm-23.927,-13.021c0.106,0.099 0.215,0.195 0.327,0.287c-0.112,-0.092 -0.221,-0.188 -0.327,-0.287l-0.02,-0.019l-0.048,-0.045l0.048,0.045l0.02,0.019Zm-0.331,-0.339c0.048,0.053 0.097,0.106 0.148,0.158l0.057,0.058c-0.07,-0.07 -0.138,-0.142 -0.205,-0.216c-0.025,-0.028 -0.05,-0.056 -0.075,-0.085l0.054,0.062l0.021,0.023Zm24.042,13.355c-0.11,-0.004 -0.22,-0.01 -0.329,-0.02l0.082,0.007c0.055,0.004 0.109,0.007 0.164,0.01l0.083,0.003Zm-0.576,-0.046c0.001,0 0.001,0 0,0Zm-23.648,-13.519c-0.992,-1.184 -1.537,-2.681 -1.539,-4.226l0,-22.406c0,-2.353 1.259,-4.534 3.297,-5.711l19.406,-11.202c1.002,-0.579 2.139,-0.884 3.295,-0.885l0,30.628l-24.459,13.802l0.053,0.063l-0.053,-0.063Z" style="fill:url(#_Linear2);fill-rule:nonzero;"/><path d="M32,33.627l-24.462,13.805c0.495,0.593 1.091,1.094 1.76,1.481l19.404,11.203c2.039,1.177 4.558,1.177 6.596,0l19.405,-11.203c0.667,-0.388 1.261,-0.89 1.755,-1.484l-24.458,-13.802Z" style="fill:url(#_Linear3);fill-rule:nonzero;"/><path d="M16.4,41.403l16.579,9.278l-0.979,0.552l-15.6,-8.803l0,-1.027Zm19.549,7.602l-1.229,0.694l-18.32,-10.252l0,-1.381l19.549,10.939Zm3.052,-1.722l-1.312,0.74l-21.289,-11.913l0,-1.474l22.601,12.647Zm3.134,-1.769l-1.394,0.787l-24.341,-13.621l0,-1.567l25.735,14.401Zm3.052,-1.722l-1.312,0.74l-27.475,-15.375l0,-1.474l28.787,16.109Zm-28.114,-19.348l30.527,17.083l0,0.903l-0.673,0.38l-30.527,-17.083l0,-0.904l0.673,-0.379Zm30.527,13.652l0,1.475l-28.787,-16.109l1.312,-0.74l27.475,15.374Zm0,-3.522l0,1.566l-25.735,-14.4l1.394,-0.787l24.341,13.621Zm0,-3.43l0,1.474l-22.601,-12.647l1.312,-0.74l21.289,11.913Zm0,-3.338l0,1.382l-19.549,-10.939l1.229,-0.694l18.32,10.251Zm-16.579,-11.233l0.979,-0.553l15.6,8.803l0,1.027l-16.579,-9.277Z" style="fill:url(#_Linear4);fill-rule:nonzero;"/><defs><linearGradient id="_Linear1" x1="0" y1="0" x2="1" y2="0" gradientUnits="userSpaceOnUse" gradientTransform="matrix(52,0,0,57.9997,6,31.9999)"><stop offset="0" style="stop-color:#073d6c;stop-opacity:1"/><stop offset="1" style="stop-color:#0073d6;stop-opacity:1"/></linearGradient><linearGradient id="_Linear2" x1="0" y1="0" x2="1" y2="0" gradientUnits="userSpaceOnUse" gradientTransform="matrix(25.9976,0,0,57.9994,6,31.9999)"><stop offset="0" style="stop-color:#0073d6;stop-opacity:1"/><stop offset="1" style="stop-color:#104574;stop-opacity:1"/></linearGradient><linearGradient id="_Linear3" x1="0" y1="0" x2="1" y2="0" gradientUnits="userSpaceOnUse" gradientTransform="matrix(0.0023891,26.3726,-26.3726,0.0023891,31.9976,34.6261)"><stop offset="0" style="stop-color:#ff4e00;stop-opacity:1"/><stop offset="1" style="stop-color:#ffbd7e;stop-opacity:1"/></linearGradient><linearGradient id="_Linear4" x1="0" y1="0" x2="1" y2="0" gradientUnits="userSpaceOnUse" gradientTransform="matrix(31.2,0,0,35.2132,16.4,33.6268)"><stop offset="0" style="stop-color:#fff;stop-opacity:1"/><stop offset="1" style="stop-color:#fff;stop-opacity:1"/></linearGradient></defs></svg>