
<svg style="clip-rule:evenodd;fill-rule:evenodd;stroke-linejoin:round;stroke-miterlimit:1.41421" version="1.1" viewBox="0 0 64 64" xmlns="http://www.w3.org/2000/svg">
 <path d="m32.156 3.002c-1.21-0.028-2.405 0.277-3.453 0.883l-19.406 11.202c-2.038 1.177-3.297 3.358-3.297 5.711v22.406c2e-3 1.545 0.547 3.042 1.539 4.226l24.461-13.803 24.457 13.803c0.994-1.184 1.54-2.681 1.543-4.226v-22.406c2e-3 -2.354-1.258-4.537-3.297-5.715l-19.406-11.198c-0.956-0.553-2.037-0.857-3.141-0.883zm-24.617 44.428c0.14 0.169 0.289 0.331 0.445 0.485-0.156-0.154-0.305-0.316-0.445-0.485zm0.445 0.485c0.127 0.122 0.259 0.239 0.395 0.351-0.136-0.112-0.268-0.229-0.395-0.351zm48.465-0.473c-0.349 0.419-0.75 0.793-1.191 1.113 0.441-0.32 0.842-0.694 1.191-1.113zm-25.262 13.507c0.437 0.055 0.878 0.065 1.317 0.032-0.439 0.033-0.88 0.023-1.317-0.032z" style="fill-rule:nonzero;fill:url(#_Linear1)"/>
 <path d="m31.979 61h0.019-0.019c-0.045-1e-3 -0.089-1e-3 -0.134-2e-3l0.082 1e-3 0.052 1e-3zm-23.927-13.021c0.106 0.099 0.215 0.195 0.327 0.287-0.112-0.092-0.221-0.188-0.327-0.287l-0.02-0.019-0.048-0.045 0.048 0.045 0.02 0.019zm-0.331-0.339c0.048 0.053 0.097 0.106 0.148 0.158l0.057 0.058c-0.07-0.07-0.138-0.142-0.205-0.216-0.025-0.028-0.05-0.056-0.075-0.085l0.054 0.062 0.021 0.023zm24.042 13.355c-0.11-4e-3 -0.22-0.01-0.329-0.02l0.082 7e-3c0.055 4e-3 0.109 7e-3 0.164 0.01l0.083 3e-3zm-0.576-0.046c1e-3 0 1e-3 0 0 0zm-23.648-13.519c-0.992-1.184-1.537-2.681-1.539-4.226v-22.406c0-2.353 1.259-4.534 3.297-5.711l19.406-11.202c1.002-0.579 2.139-0.884 3.295-0.885v30.628l-24.459 13.802 0.053 0.063-0.053-0.063z" style="fill-rule:nonzero;fill:url(#_Linear2)"/>
 <path d="m32 33.627l-24.462 13.805c0.495 0.593 1.091 1.094 1.76 1.481l19.404 11.203c2.039 1.177 4.558 1.177 6.596 0l19.405-11.203c0.667-0.388 1.261-0.89 1.755-1.484l-24.458-13.802z" style="fill-rule:nonzero;fill:url(#_Linear3)"/>
 <path d="m16.4 41.403l16.579 9.278-0.979 0.552-15.6-8.803v-1.027zm19.549 7.602l-1.229 0.694-18.32-10.252v-1.381l19.549 10.939zm3.052-1.722l-1.312 0.74-21.289-11.913v-1.474l22.601 12.647zm3.134-1.769l-1.394 0.787-24.341-13.621v-1.567l25.735 14.401zm3.052-1.722l-1.312 0.74-27.475-15.375v-1.474l28.787 16.109zm-28.114-19.348l30.527 17.083v0.903l-0.673 0.38-30.527-17.083v-0.904l0.673-0.379zm30.527 13.652v1.475l-28.787-16.109 1.312-0.74 27.475 15.374zm0-3.522v1.566l-25.735-14.4 1.394-0.787 24.341 13.621zm0-3.43v1.474l-22.601-12.647 1.312-0.74 21.289 11.913zm0-3.338v1.382l-19.549-10.939 1.229-0.694 18.32 10.251zm-16.579-11.233l0.979-0.553 15.6 8.803v1.027l-16.579-9.277z" style="fill-rule:nonzero;fill:url(#_Linear4)"/>
 <defs>
  <linearGradient id="_Linear1" x2="1" gradientTransform="matrix(52,0,0,57.9997,6,31.9999)" gradientUnits="userSpaceOnUse">
   <stop style="stop-color:#073d6c" offset="0"/>
   <stop style="stop-color:#0073d6" offset="1"/>
  </linearGradient>
  <linearGradient id="_Linear2" x2="1" gradientTransform="matrix(25.9976,0,0,57.9994,6,31.9999)" gradientUnits="userSpaceOnUse">
   <stop style="stop-color:#0073d6" offset="0"/>
   <stop style="stop-color:#104574" offset="1"/>
  </linearGradient>
  <linearGradient id="_Linear3" x2="1" gradientTransform="matrix(.0023891 26.3726 -26.3726 .0023891 31.9976 34.6261)" gradientUnits="userSpaceOnUse">
   <stop style="stop-color:#ff4e00" offset="0"/>
   <stop style="stop-color:#ffbd7e" offset="1"/>
  </linearGradient>
  <linearGradient id="_Linear4" x2="1" gradientTransform="matrix(31.2,0,0,35.2132,16.4,33.6268)" gradientUnits="userSpaceOnUse">
   <stop style="stop-color:#fff" offset="0"/>
   <stop style="stop-color:#fff" offset="1"/>
  </linearGradient>
 </defs>
</svg>
