<svg style="clip-rule:evenodd;fill-rule:evenodd;stroke-linejoin:round;stroke-miterlimit:1.41421" version="1.1" viewBox="0 0 64 64" xmlns="http://www.w3.org/2000/svg">
 <path d="m52.539 4.694c0.167-0.039 0.336-0.071 0.508-0.096 2.503-0.368 4.732-0.605 5.912-0.599 0.372 1e-3 0.64 0.026 0.779 0.079 0.287 0.11 0.317 0.416 0.192 1.936-0.76 9.18-4.302 16.295-10.11 20.3-1.703 1.164-4.095 2.649-5.924 3.717l-0.019 0.049c-2.772-4.812-7.973-8.08-13.877-8.08-8.777 0-16 7.223-16 16s7.223 16 16 16c5.694 0 10.733-3.039 13.572-7.571 1.755 0.182 4.199-0.343 5.842-1.004 2.627-1.096 5.507-2.952 6.983-4.614 0.693-0.78 1.132-0.936 1.526-0.544 1.106 1.104-0.619 6.049-3.38 9.691-3.771 4.975-9.753 8.306-17.148 9.551-2.057 0.346-8.301 0.599-10.872 0.44-0.787-0.048-1.581-0.113-2.371-0.193-0.233-0.023-0.447-0.053-0.645-0.09-3.862-0.422-7.595-1.17-10.175-2.09-1.073-0.383-2.051-0.807-2.935-1.276-0.17-0.09-0.323-0.181-0.461-0.273-2.916-1.661-4.762-3.842-5.619-6.66-0.299-0.984-0.378-2.545-0.272-4.356 4e-3 -0.067 0.012-0.135 0.023-0.204 0.179-2.782 0.779-6.107 1.693-8.857 3.448-10.378 12.144-18.988 24.694-24.805 0.321-0.152 0.649-0.302 0.984-0.451 2.334-1.037 4.795-1.979 7.377-2.82 1.046-0.355 2.131-0.691 3.258-1.009 0.679-0.192 1.366-0.378 2.061-0.556 2.343-0.602 5.503-1.182 8.404-1.615zm-22.539 20.306c7.132 0 13 5.868 13 13s-5.868 13-13 13-13-5.868-13-13 5.868-13 13-13zm-4.719 4.999c-0.01-1e-3 -0.02-1e-3 -0.03-1e-3 -0.685 0-1.25 0.572-1.251 1.267v13.465c0 0.696 0.565 1.268 1.251 1.268 0.22 0 0.436-0.058 0.626-0.17l5.749-3.366 5.749-3.366c0.386-0.227 0.625-0.646 0.625-1.098 0-0.453-0.239-0.872-0.625-1.099l-11.498-6.732c-0.182-0.106-0.387-0.164-0.596-0.168zm19.955 3.142l2e-3 1e-3c0.727-0.394 1.468-0.835 2.212-1.296l-6e-3 0.013c3.519-2.181 7.395-5.198 10.134-8.239 0.661-0.754 0.87-0.967 1.08-0.88 0.07 0.029 0.141 0.091 0.227 0.178 0.298 0.298 0.363 0.758 0.334 2.387-0.066 3.648-1.643 8.271-3.897 11.421-1.947 2.723-5.746 5.915-9.013 6.219-0.389 0.036-0.766 0.065-1.13 0.087 0.532-1.585 0.821-3.277 0.821-5.032 0-1.691-0.268-3.324-0.764-4.859z" style="fill-rule:nonzero;fill:url(#_Radial1)"/>
 <defs>
  <radialGradient id="_Radial1" cx="0" cy="0" r="1" gradientTransform="matrix(37.1147,18.1564,-18.1564,37.1147,13.2129,34.9278)" gradientUnits="userSpaceOnUse">
   <stop style="stop-color:#ffbf00" offset="0"/>
   <stop style="stop-color:#d81b60" offset="1"/>
  </radialGradient>
 </defs>
</svg>
