<svg style="clip-rule:evenodd;fill-rule:evenodd;stroke-linejoin:round;stroke-miterlimit:2" version="1.1" viewBox="0 0 48 48" xmlns="http://www.w3.org/2000/svg">
 <circle cx="24" cy="24" r="22.764" style="fill:url(#_Linear1)"/>
 <path d="m24 7.74c-8.98 0-16.26 7.28-16.26 16.26s7.28 16.26 16.26 16.26 16.26-7.28 16.26-16.26c-7e-3 -1.894-0.346-3.773-1.001-5.55l0.034-0.026-0.084-0.121c-2.374-6.346-8.434-10.555-15.209-10.563zm0 1.626c5.466 2e-3 10.475 3.051 12.988 7.905l-10.146 7.249-17.31 1.573c-0.106-0.693-0.161-1.392-0.166-2.093 0-8.082 6.552-14.634 14.634-14.634zm13.884 10.064c0.491 1.474 0.744 3.016 0.75 4.57-4e-3 3.854-1.528 7.55-4.24 10.286l-5.583-8.374 9.073-6.482zm-11.204 7.389l5.973 8.96c-2.507 1.849-5.538 2.848-8.653 2.855-6.406-7e-3 -12.063-4.18-13.961-10.299l16.641-1.516z" style="fill-rule:nonzero;fill:#fff"/>
 <circle cx="9.366" cy="27.252" r="3.252" style="fill:#fff"/>
 <circle cx="33.756" cy="35.382" r="3.252" style="fill:#fff"/>
 <circle cx="38.634" cy="17.496" r="3.252" style="fill:#fff"/>
 <circle cx="27.252" cy="25.626" r="3.252" style="fill:#fff"/>
 <defs>
  <linearGradient id="_Linear1" x2="1" gradientTransform="matrix(2.77443e-15,-45.3099,45.3099,2.77443e-15,205.239,46.7842)" gradientUnits="userSpaceOnUse">
   <stop style="stop-color:#0071a6" offset="0"/>
   <stop style="stop-color:#04afda" offset="1"/>
  </linearGradient>
 </defs>
</svg>
