<svg style="clip-rule:evenodd;fill-rule:evenodd;stroke-linejoin:round;stroke-miterlimit:2" version="1.1" viewBox="0 0 48 48" xmlns="http://www.w3.org/2000/svg">
 <circle cx="24" cy="24" r="21.96" style="fill:url(#_Linear1)"/>
 <path d="m14.68 25.047c0.662-0.668 1.739-0.67 2.405-5e-3l6.727 7.403 6.696-7.432c0.663-0.667 1.739-0.669 2.405-5e-3 0.665 0.665 0.668 1.743 5e-3 2.41l-7.79 8.646c-0.358 0.36-0.836 0.52-1.307 0.491-0.47 0.031-0.95-0.127-1.31-0.486l-7.826-8.612c-0.665-0.664-0.667-1.743-5e-3 -2.41zm9.111-7.197c-1.547 3e-3 -2.804-1.25-2.807-2.799s1.248-2.807 2.795-2.81 2.804 1.25 2.807 2.799c4e-3 1.549-1.248 2.807-2.795 2.81zm0.017 8.013c-1.547 4e-3 -2.804-1.249-2.807-2.798s1.248-2.808 2.795-2.811 2.804 1.25 2.807 2.799c4e-3 1.549-1.248 2.807-2.795 2.81z" style="fill-opacity:.85;fill-rule:nonzero;fill:#fff"/>
 <defs>
  <linearGradient id="_Linear1" x2="1" gradientTransform="matrix(2.68936e-15,-43.9206,43.9206,2.68936e-15,25.098,45.9603)" gradientUnits="userSpaceOnUse">
   <stop style="stop-color:#0a80fd" offset="0"/>
   <stop style="stop-color:#56c5fa" offset="1"/>
  </linearGradient>
 </defs>
</svg>
