<svg style="clip-rule:evenodd;fill-rule:evenodd;stroke-linejoin:round;stroke-miterlimit:2" version="1.1" viewBox="0 0 48 48" xmlns="http://www.w3.org/2000/svg">
 <path d="m46.744 24c0 12.488-10.276 22.764-22.764 22.764s-22.764-10.276-22.764-22.764 10.276-22.764 22.764-22.764 22.764 10.276 22.764 22.764zm-10.449-4.997c-0.961-1.923-2.313-3.535-4.057-4.836-0.501-0.383-1.068-0.532-1.701-0.448-0.633 0.083-1.135 0.382-1.505 0.895-0.382 0.502-0.528 1.066-0.439 1.693s0.385 1.131 0.887 1.513c1.17 0.884 2.075 1.965 2.713 3.243 0.639 1.277 0.958 2.639 0.958 4.083 0 1.242-0.241 2.427-0.725 3.556-0.484 1.128-1.137 2.105-1.961 2.929-0.824 0.823-1.8 1.477-2.929 1.961-1.128 0.484-2.314 0.726-3.555 0.726-1.242 0-2.427-0.242-3.556-0.726-1.128-0.484-2.105-1.138-2.929-1.961-0.823-0.824-1.477-1.801-1.961-2.929s-0.725-2.314-0.725-3.556c0-1.444 0.319-2.806 0.958-4.083 0.639-1.278 1.543-2.359 2.714-3.243 0.501-0.382 0.797-0.886 0.886-1.513 0.09-0.627-0.056-1.191-0.439-1.693-0.37-0.513-0.868-0.812-1.495-0.895-0.627-0.084-1.198 0.065-1.711 0.448-1.744 1.301-3.096 2.913-4.057 4.836-0.961 1.922-1.442 3.97-1.442 6.143 0 1.863 0.364 3.642 1.093 5.338 0.728 1.696 1.707 3.159 2.937 4.389 1.23 1.229 2.693 2.209 4.389 2.937s3.475 1.093 5.338 1.093c1.862 0 3.642-0.365 5.337-1.093 1.696-0.728 3.159-1.708 4.389-2.937 1.23-1.23 2.209-2.693 2.937-4.389 0.729-1.696 1.093-3.475 1.093-5.338 0-2.173-0.48-4.221-1.442-6.143zm-12.315 6.144c0.621 0 1.159-0.227 1.612-0.681 0.454-0.454 0.681-0.991 0.681-1.612v-11.464c0-0.621-0.227-1.158-0.681-1.612-0.453-0.454-0.991-0.681-1.612-0.681s-1.158 0.227-1.612 0.681-0.681 0.991-0.681 1.612v11.464c0 0.621 0.227 1.158 0.681 1.612s0.991 0.681 1.612 0.681z" style="fill:url(#_Linear1)"/>
 <defs>
  <linearGradient id="_Linear1" x2="1" gradientTransform="matrix(.797685 -42.8718 42.8718 .797685 33.2323 46.6422)" gradientUnits="userSpaceOnUse">
   <stop style="stop-color:#566069" offset="0"/>
   <stop style="stop-color:#6c7884" offset="1"/>
  </linearGradient>
 </defs>
</svg>
