<svg style="clip-rule:evenodd;fill-rule:evenodd;stroke-linejoin:round;stroke-miterlimit:2" version="1.1" viewBox="0 0 48 48" xmlns="http://www.w3.org/2000/svg">
 <path d="m23.33 35.868c0.88 0 1.643-0.321 2.286-0.965 0.644-0.643 0.966-1.406 0.966-2.286v-16.259c0-0.881-0.322-1.643-0.966-2.286-0.643-0.644-1.405-0.966-2.286-0.966s-1.643 0.322-2.287 0.966c-0.643 0.643-0.965 1.405-0.965 2.286v16.259c0 0.88 0.322 1.643 0.965 2.286 0.644 0.644 1.406 0.965 2.287 0.965zm23.414-11.868c0 12.572-10.191 22.764-22.764 22.764-12.572 0-22.764-10.192-22.764-22.764s10.192-22.764 22.764-22.764c12.573 0 22.764 10.192 22.764 22.764z" style="fill-rule:nonzero;fill:url(#_Linear1)"/>
 <defs>
  <linearGradient id="_Linear1" x2="1" gradientTransform="matrix(-1.2766,-47.3801,47.3801,-1.2766,24.6187,47.4023)" gradientUnits="userSpaceOnUse">
   <stop style="stop-color:#566069" offset="0"/>
   <stop style="stop-color:#6c7884" offset="1"/>
  </linearGradient>
 </defs>
</svg>
