<svg clip-rule="evenodd" fill-rule="evenodd" stroke-linejoin="round" stroke-miterlimit="2" viewBox="0 0 48 48" xmlns="http://www.w3.org/2000/svg">
 <linearGradient id="a" x2="1" gradientTransform="matrix(0 -48.7801 48.7801 0 82.6662 50.0161)" gradientUnits="userSpaceOnUse">
  <stop stop-color="#566069" offset="0"/>
  <stop stop-color="#6c7884" offset="1"/>
 </linearGradient>
 <circle cx="24" cy="24.00035" r="18.994" fill="#1d1d1d"/>
 <path d="m31.428 21.891h-12.789v-3.185c0-2.845 2.314-5.159 5.159-5.159 2.323 0 4.371 1.563 4.98 3.801.199.733.955 1.166 1.689.967.733-.2 1.166-.956.967-1.689-.934-3.434-4.074-5.832-7.636-5.832-4.362 0-7.912 3.549-7.912 7.912v3.215c-.623.131-1.093.685-1.093 1.347v12.045c0 .759.617 1.377 1.376 1.377h15.259c.758 0 1.376-.618 1.376-1.377v-12.045c0-.759-.618-1.377-1.376-1.377zm-5.781 10.298c.028.149-.073.271-.224.271h-3.212c-.152 0-.253-.122-.225-.271l.512-2.71c-.387-.353-.63-.862-.63-1.427 0-1.066.864-1.931 1.93-1.931 1.067 0 1.931.865 1.931 1.931 0 .55-.23 1.046-.599 1.397zm21.117-8.189c0 12.488-10.276 22.764-22.764 22.764s-22.764-10.276-22.764-22.764 10.276-22.764 22.764-22.764 22.764 10.276 22.764 22.764z" fill="url(#a)" fill-rule="nonzero"/>
</svg>
