<svg width="48" height="48" xmlns="http://www.w3.org/2000/svg">
 <linearGradient x2="47" y1="23.5" y2="23.5" gradientUnits="userSpaceOnUse">
  <stop stop-color="#a9a3d4" offset="0"/>
  <stop stop-color="#87baff" offset=".47001833"/>
  <stop stop-color="#89ec85" offset="1"/>
 </linearGradient>
 <linearGradient id="a" x1="400.57144" x2="400.57144" y1="545.79797" y2="517.79797" gradientUnits="userSpaceOnUse">
  <stop stop-color="#1365f4" offset="0"/>
  <stop stop-color="#05b2fc" offset="1"/>
 </linearGradient>
 <g transform="translate(-486.76034 -502.72583)" stroke-width="1.317422">
  <rect transform="matrix(1.6347353 0 0 1.6347353 -144.06794 -342.6231)" x="386.57144" y="517.79797" width="28.000011" height="28.000027" ry="14.000006" fill="url(#a)"/>
  <path transform="matrix(1.6958847 0 0 1.6906576 -176.89465 -382.32001)" d="m409.03112 539.84875c-.81855 0-1.54059.39154-2.01228.99113l-4.37528-2.24653c.0573-.2145.0985-.43612.0985-.66937 0-.25391-.0489-.49298-.11711-.72557l4.35596-2.23618c.46913.62672 1.20981 1.03635 2.05088 1.03635 1.42476 0 2.57731-1.15718 2.57731-2.58638 0-1.42789-1.15255-2.58572-2.57731-2.58572-1.42152 0-2.57534 1.15783-2.57534 2.58572 0 .2339.0412.45616.0991.67131l-4.37399 2.24652c-.47234-.60022-1.19566-.99306-2.01549-.99306-1.42346 0-2.57536 1.15847-2.57536 2.58701 0 1.42855 1.1519 2.58638 2.57536 2.58638.84236 0 1.58241-.41093 2.05346-1.03829l4.35405 2.23618c-.0682.23195-.11777.47295-.11777.72751 0 1.42855 1.15383 2.58638 2.57536 2.58638 1.42475 0 2.57729-1.15783 2.57729-2.58638 0-1.42983-1.15254-2.58701-2.57729-2.58701z" fill="#001534" fill-opacity=".816514"/>
 </g>
</svg>
