<svg style="clip-rule:evenodd;fill-rule:evenodd;stroke-linejoin:round;stroke-miterlimit:1.41421" version="1.1" viewBox="0 0 64 64" xmlns="http://www.w3.org/2000/svg">
 <path d="m60 11.705c0-4.253-3.452-7.705-7.705-7.705h-40.59c-4.253 0-7.705 3.452-7.705 7.705v40.59c0 4.253 3.452 7.705 7.705 7.705h40.59c4.253 0 7.705-3.452 7.705-7.705v-40.59z" style="fill:url(#_Linear1)"/>
 <path d="m12 24v8h8v-8h-8zm8 8v8h8v-8h-8zm8 0h8v-8h-8v8zm8 0v8h8v-8h-8zm8 0h8v-8h-8v8z" style="fill-rule:nonzero;fill:#865831"/>
 <defs>
  <linearGradient id="_Linear1" x2="1" gradientTransform="matrix(3.39402e-15,-55.4286,55.4286,3.39402e-15,32,59.4286)" gradientUnits="userSpaceOnUse">
   <stop style="stop-color:#ff9a00" offset="0"/>
   <stop style="stop-color:#fecd38" offset="1"/>
  </linearGradient>
 </defs>
</svg>
