<svg style="clip-rule:evenodd;fill-rule:evenodd;stroke-linejoin:round;stroke-miterlimit:2" version="1.1" viewBox="0 0 48 48" xmlns="http://www.w3.org/2000/svg">
 <path d="m46 9.479c0-0.419-0.166-0.821-0.463-1.117-0.296-0.296-0.697-0.463-1.116-0.463h-40.842c-0.419 0-0.82 0.167-1.116 0.463-0.297 0.296-0.463 0.698-0.463 1.117v30.042c0 0.419 0.166 0.821 0.463 1.117 0.296 0.296 0.697 0.463 1.116 0.463h40.842c0.419 0 0.82-0.167 1.116-0.463 0.297-0.296 0.463-0.698 0.463-1.117v-30.042z" style="fill-opacity:.92"/>
 <path d="m46 9.086c0-0.58-0.23-1.136-0.64-1.546s-0.967-0.641-1.547-0.641h-39.626c-0.58 0-1.137 0.231-1.547 0.641s-0.64 0.966-0.64 1.546v28.828c0 0.58 0.23 1.136 0.64 1.546s0.967 0.641 1.547 0.641h39.626c0.58 0 1.137-0.231 1.547-0.641s0.64-0.966 0.64-1.546v-28.828z" style="fill:url(#_Linear1)"/>
 <path d="m15.861 16.944c0.071 0 0.128 0.021 0.172 0.064 0.045 0.041 0.068 0.096 0.067 0.161v0.451c0 0.066-0.022 0.12-0.067 0.161-0.045 0.043-0.101 0.064-0.172 0.064h-7.178c-0.069 0-0.127-0.021-0.172-0.064-0.045-0.041-0.067-0.095-0.067-0.161v-0.451c0-0.065 0.022-0.12 0.067-0.161 0.045-0.043 0.103-0.064 0.172-0.064h7.178zm21.533 0c0.07 0 0.127 0.021 0.172 0.064 0.045 0.041 0.067 0.096 0.067 0.161v0.451c0 0.066-0.022 0.12-0.067 0.161-0.045 0.043-0.102 0.064-0.172 0.064h-7.177c-0.071 0-0.127-0.021-0.173-0.064-0.045-0.041-0.066-0.095-0.066-0.161v-0.451c0-0.065 0.021-0.12 0.066-0.161 0.046-0.043 0.102-0.064 0.173-0.064h7.177zm-11.313-6.598l3.484 3.281c0.051 0.048 0.075 0.101 0.075 0.162s-0.024 0.115-0.075 0.163l-3.484 3.281c-0.05 0.046-0.106 0.069-0.172 0.069-0.065 0-0.121-0.023-0.171-0.069l-0.374-0.352c-0.05-0.048-0.075-0.102-0.075-0.162 0-0.061 0.025-0.116 0.075-0.163l2.938-2.767-2.938-2.767c-0.05-0.046-0.075-0.101-0.075-0.162s0.025-0.114 0.075-0.162l0.374-0.352c0.05-0.047 0.106-0.07 0.171-0.07 0.066 0 0.122 0.024 0.172 0.07zm-21.532 0l3.484 3.281c0.05 0.048 0.075 0.101 0.075 0.162s-0.025 0.115-0.075 0.163l-3.484 3.281c-0.05 0.046-0.107 0.069-0.172 0.069s-0.123-0.023-0.172-0.069l-0.374-0.352c-0.05-0.048-0.074-0.102-0.074-0.162 0-0.061 0.024-0.116 0.074-0.163l2.939-2.767-2.939-2.767c-0.05-0.046-0.074-0.101-0.074-0.162s0.024-0.114 0.074-0.162l0.374-0.352c0.049-0.047 0.107-0.07 0.172-0.07s0.122 0.024 0.172 0.07z" style="fill-rule:nonzero;fill:#bababa"/>
 <defs>
  <linearGradient id="_Linear1" x2="1" gradientTransform="matrix(2.09279e-15,-34.1778,34.1778,2.09279e-15,260.793,41.077)" gradientUnits="userSpaceOnUse">
   <stop style="stop-color:#2c2e31" offset="0"/>
   <stop style="stop-color:#414548" offset="1"/>
  </linearGradient>
 </defs>
</svg>
