<svg style="clip-rule:evenodd;fill-rule:evenodd;stroke-linejoin:round;stroke-miterlimit:2" version="1.1" viewBox="0 0 48 48" xmlns="http://www.w3.org/2000/svg">
 <circle cx="24" cy="24" r="22.764" style="fill:url(#_Linear1)"/>
 <path d="m24 6.963c-6.984 0-11.155 3.561-12.989 6.95-1.835 3.388-1.801 6.709-1.801 6.709l1.132 9.105s0.375 4.549 2.276 6.83c1.901 2.28 5.236 4.48 11.382 4.48s9.481-2.2 11.382-4.48c1.901-2.281 2.276-6.83 2.276-6.83l1.132-9.105s0.034-3.321-1.801-6.709c-1.834-3.389-6.005-6.95-12.989-6.95z" style="fill-rule:nonzero;fill:#e6e9dc"/>
 <path d="m9.493 22.898 1.871 6.829s2.106 4.553 12.636 4.553 12.636-4.553 12.636-4.553l1.871-6.829s0-4.553-2.418-4.553c-7.253 0-7.253 1.264-12.089 1.264s-4.836-1.264-12.089-1.264c-2.418 0-2.418 4.553-2.418 4.553z" style="fill-rule:nonzero;fill:#363636"/>
 <path d="m33.106 18.443c-2.159 0.205-3.334 0.395-4.531 0.654l-0.022 14.872c1.84-0.249 3.337-0.887 4.528-1.33l0.025-14.196z" style="fill-opacity:.2;fill-rule:nonzero;fill:#fff"/>
 <defs>
  <linearGradient id="_Linear1" x2="1" gradientTransform="matrix(2.78787e-15,-45.5294,45.5294,2.78787e-15,210.898,46.7647)" gradientUnits="userSpaceOnUse">
   <stop style="stop-color:#322464" offset="0"/>
   <stop style="stop-color:#55458f" offset="1"/>
  </linearGradient>
 </defs>
</svg>
