<svg style="clip-rule:evenodd;fill-rule:evenodd;stroke-linejoin:round;stroke-miterlimit:2" version="1.1" viewBox="0 0 48 48" xmlns="http://www.w3.org/2000/svg">
 <path d="m47.312 10.595c0-0.976-0.388-1.911-1.077-2.601-0.69-0.691-1.627-1.079-2.603-1.079h-39.264c-0.976 0-1.913 0.388-2.603 1.079-0.689 0.69-1.077 1.625-1.077 2.601v27.823c0 0.976 0.388 1.911 1.077 2.602 0.69 0.69 1.627 1.078 2.603 1.078h39.264c0.976 0 1.913-0.388 2.603-1.078 0.689-0.691 1.077-1.626 1.077-2.602v-27.823z" style="fill-opacity:.88"/>
 <path d="m47.312 9.381c0-1.921-1.557-3.479-3.479-3.479h-39.666c-1.922 0-3.479 1.558-3.479 3.479v28.225c0 1.921 1.557 3.479 3.479 3.479h39.666c1.922 0 3.479-1.558 3.479-3.479v-28.225z" style="fill:url(#_Linear1)"/>
 <path d="m44.048 5.909c1.821 0.111 3.264 1.623 3.264 3.472v28.225c0 1.921-1.558 3.479-3.479 3.479h-39.666c-1.892 0-3.43-1.51-3.478-3.389 0-6.713 0-21.618-1e-3 -28.359 0.023-1.829 1.457-3.318 3.264-3.428h40.096z" style="fill:url(#_Linear2)"/>
 <path d="m44.065 5.91c1.798 0.118 3.223 1.602 3.247 3.425v28.317c-0.025 1.9-1.573 3.433-3.479 3.433h-13.672v-35.175h13.904z" style="fill-rule:nonzero;fill:url(#_Linear3)"/>
 <path d="m17.837 41.085h-13.67c-1.922 0-3.479-1.558-3.479-3.479v-28.225c0-1.843 1.434-3.352 3.247-3.471h13.902v35.175z" style="fill-rule:nonzero;fill:url(#_Linear4)"/>
 <g opacity=".5">
  <path d="m31.904 21.588c0.261-0.307 0.744-0.278 0.972-0.041 0.229 0.238 0.202 0.684-0.066 1.115-0.19 0.325-0.644 0.634-1.019 0.835-0.349-0.245-0.764-0.606-0.914-0.95-0.214-0.461-0.188-0.907 0.067-1.115 0.255-0.209 0.738-0.18 0.96 0.156zm0.406 0.237c0.116 0.024 0.208 0.105 0.201 0.221-7e-3 0.113-0.107 0.197-0.226 0.193-0.137-3e-3 -0.208-0.105-0.201-0.219 7e-3 -0.115 0.086-0.223 0.226-0.195zm-0.842-0.048c0.136-0.015 0.209 0.106 0.202 0.22s-0.058 0.195-0.226 0.194c-0.118 0-0.209-0.105-0.202-0.22 7e-3 -0.114 0.108-0.182 0.226-0.194z" style="fill:#fff"/>
  <path d="m31.472 20.271l-0.091-1e-3c-0.086 0-0.154-0.07-0.153-0.156v-0.26c-0.367-0.094-0.471-0.313-0.47-0.761 3e-3 -0.661 0.542-1.197 1.203-1.194 0.661 2e-3 1.196 0.541 1.194 1.203-2e-3 0.441-0.114 0.658-0.475 0.753l-1e-3 0.264c0 0.086-0.069 0.155-0.155 0.155l-0.09-1e-3c-0.085 0-0.155-0.07-0.155-0.156l1e-3 -0.207c-0.04 3e-3 -0.082 4e-3 -0.126 5e-3v0.203c-1e-3 0.085-0.07 0.154-0.156 0.154l-0.09-1e-3c-0.086 0-0.155-0.07-0.155-0.155l1e-3 -0.201c-0.044-2e-3 -0.086-3e-3 -0.127-6e-3v0.207c-1e-3 0.085-0.07 0.155-0.155 0.155zm-0.01-1.663c0.203 0.08 0.367 0.161 0.367 0.359-1e-3 0.196-0.134 0.233-0.37 0.354-0.181 0.093-0.368-0.161-0.367-0.357 1e-3 -0.198 0.18-0.43 0.37-0.356zm0.988 4e-3c0.196-0.055 0.367 0.16 0.367 0.358-1e-3 0.197-0.195 0.46-0.369 0.355-0.214-0.128-0.368-0.161-0.367-0.357 1e-3 -0.198 0.144-0.293 0.369-0.356z" style="fill:#ededed"/>
  <path d="m32.696 24.529l-0.381 0.361 0.54 0.57-0.48 0.456-0.541-0.57-0.382 0.361c-0.129 0.123-0.33 0.122-0.447-2e-3 -0.118-0.125-0.108-0.325 0.021-0.447l0.382-0.362-0.542-0.572 0.481-0.456 0.514 0.572 0.41-0.361c0.129-0.123 0.33-0.121 0.447 3e-3 0.118 0.124 0.108 0.324-0.022 0.447z" style="fill:#fff"/>
  <path d="m32.051 29.043v0.146l-0.524-1e-3 1e-3 -0.146h-0.282c-0.272-1e-3 -0.492-0.222-0.492-0.494l2e-3 -0.984c0-0.272 0.221-0.492 0.493-0.492l1.088 2e-3c0.272 1e-3 0.492 0.222 0.492 0.494l-2e-3 0.984c0 0.272-0.222 0.492-0.494 0.491h-0.282zm0.147-0.432c-0.141 0-0.256-0.115-0.255-0.256-1e-3 -0.141 0.115-0.255 0.256-0.255 0.14 0 0.255 0.115 0.254 0.256 1e-3 0.141-0.115 0.255-0.255 0.255zm-0.872-1e-3c-0.141-1e-3 -0.256-0.115-0.256-0.256 0-0.142 0.115-0.256 0.257-0.256 0.141 0 0.255 0.115 0.255 0.257-1e-3 0.14-0.115 0.255-0.256 0.255z" style="fill:#fff"/>
 </g>
 <defs>
  <linearGradient id="_Linear1" x2="1" gradientTransform="matrix(2.21762e-15,-36.2165,36.2165,2.21762e-15,275.714,42.119)" gradientUnits="userSpaceOnUse">
   <stop style="stop-color:#313738" offset="0"/>
   <stop style="stop-color:#535552" offset="1"/>
  </linearGradient>
  <linearGradient id="_Linear2" x2="1" gradientTransform="matrix(.0595533 -35.1749 35.1749 .0595533 37.3102 41.0847)" gradientUnits="userSpaceOnUse">
   <stop style="stop-color:#6aaa0e" offset="0"/>
   <stop style="stop-color:#1ab4fd" offset="1"/>
  </linearGradient>
  <linearGradient id="_Linear3" x2="1" gradientTransform="matrix(2.15384e-15,-35.1749,35.1749,2.15384e-15,39.4541,41.0847)" gradientUnits="userSpaceOnUse">
   <stop style="stop-color:#006299" offset="0"/>
   <stop style="stop-color:#00a3ff" offset="1"/>
  </linearGradient>
  <linearGradient id="_Linear4" x2="1" gradientTransform="matrix(.238213 -35.1749 35.1749 .238213 11.7618 41.0847)" gradientUnits="userSpaceOnUse">
   <stop style="stop-color:#282828" offset="0"/>
   <stop style="stop-color:#707070" offset="1"/>
  </linearGradient>
 </defs>
</svg>
