
<svg style="clip-rule:evenodd;fill-rule:evenodd;stroke-linejoin:round;stroke-miterlimit:1.41421" version="1.1" viewBox="0 0 64 64" xmlns="http://www.w3.org/2000/svg">
 <path d="m57.2 4c1.545 0 2.8 1.255 2.8 2.8v50.4c0 1.545-1.255 2.8-2.8 2.8h-50.4c-1.545 0-2.8-1.255-2.8-2.8v-50.4c0-1.545 1.255-2.8 2.8-2.8h50.4z" style="fill:url(#_Linear1)"/>
 <path d="m21.883 4l8.588 22.933c-0.926 0.347-1.784 0.854-2.534 1.499l-23.538-23.057c-0.248 0.419-0.399 0.901-0.399 1.425v8.597l21.883 15.679c-0.577 1.157-0.879 2.431-0.883 3.724 4e-3 0.335 0.027 0.669 0.071 1.001l-21.071 4.197v9.778l22.23-10.612c0.339 0.558 0.742 1.075 1.201 1.54l-20.106 19.296h13.491l9.787-17.289c0.898 0.32 1.844 0.486 2.797 0.489 0.182 0 0.365-7e-3 0.547-0.019l1.826 16.819h9.308l-7.839-17.732c0.524-0.27 1.018-0.595 1.474-0.968l17.089 18.7h1.395c1.551 0 2.8-1.249 2.8-2.8v-8.791l-18.862-10.344c0.355-0.847 0.568-1.747 0.632-2.663l18.23-1.493v-9.579l-18.793 7.377c-0.32-0.805-0.763-1.556-1.313-2.225l20.106-21.353v-1.329c0-1.551-1.249-2.8-2.8-2.8h-13.27l-7.867 22.84c-0.339-0.115-0.685-0.208-1.036-0.279l2.521-22.561h-15.665z" style="fill-rule:nonzero;fill:url(#_Linear2)"/>
 <path d="m35.489 4l-0.022 0.561c-0.022 0.634-0.493 12.093-0.869 21.155-0.138 3.311-0.236 6.034-0.219 6.052 0.017 0.017 0.042 0.02 0.055 8e-3 0.014-0.013 1.564-4.485 3.448-9.94 4.894-14.175 5.928-17.166 6.062-17.522l0.12-0.314h-8.575zm-9.226 11.687s-5.977 4.986-6.026 5.116c-0.02 0.052 0.976 1.074 2.92 2.994 1.623 1.604 4.442 4.39 6.264 6.191 1.823 1.8 3.335 3.273 3.358 3.273 0.024 0 0.044-0.022 0.044-0.047h-3e-3c0-0.025-1.228-3.347-2.731-7.383s-2.963-7.963-3.246-8.728c-0.283-0.764-0.58-1.416-0.58-1.416zm23.18 3.672c-0.065-0.021-13.518 14.252-13.544 14.369-0.014 0.063 0.016 0.066 0.14 0.022 0.085-0.03 4.047-1.577 8.804-3.437 4.758-1.86 8.664-3.407 8.674-3.437 0.022-0.07-4-7.492-4.074-7.517zm-27.106 9.212c-0.059-0.022-0.094 7e-3 -0.115 0.096-0.046 0.199-0.963 7.512-0.963 7.678 0 0.11 0.03 0.148 0.11 0.148 0.059 0 2.136-0.419 4.615-0.933 2.48-0.513 4.53-0.958 4.559-0.987 0.028-0.029 0.04-0.06 0.027-0.071-0.146-0.126-8.17-5.907-8.233-5.931zm28.53 6.059c-0.057-0.052-13.586 1.166-13.644 1.228-0.024 0.026-0.02 0.058 0.013 0.071 0.03 0.013 2.754 1.512 6.054 3.331 3.3 1.818 6.05 3.302 6.109 3.297 0.098-8e-3 0.166-0.338 0.812-3.948h-3e-3c0.388-2.166 0.684-3.956 0.659-3.979zm-19.261 1.966c-0.07 0.027-4.478 2.127-9.797 4.665-5.319 2.539-10.788 5.145-12.152 5.794-1.363 0.65-2.48 1.214-2.48 1.253 0 0.038 0.965 1.458 2.144 3.155 2.792 4.017 2.735 3.935 2.784 3.935 0.022 0 4.439-4.215 9.816-9.368v-3e-3c5.377-5.152 9.784-9.394 9.795-9.425 0.014-0.037-0.026-0.038-0.11-6e-3zm3.675 1.001c-0.026-0.01-0.049 6e-3 -0.049 0.036 0 0.029 0.516 1.222 1.146 2.649 0.629 1.428 2.815 6.38 4.856 11.006s3.717 8.484 3.754 8.562l0.071 0.15h0.112c0.068-0.038 0.194-0.105 0.197-0.109 0.016-0.021 1.491-0.957 3.276-2.081 1.786-1.125 3.246-2.062 3.246-2.084 0-0.049-16.541-18.104-16.609-18.129zm-1.949 0.386c-0.018-0.018-0.038-0.01-0.061 0.016-0.11 0.125-6.587 11.7-6.587 11.772 0 0.059 0.185 0.101 0.755 0.175 0.414 0.054 2.194 0.288 3.957 0.519s3.239 0.407 3.278 0.394c0.049-0.017 0.061-0.09 0.038-0.249-0.028-0.208-0.991-9.396-1.214-11.583-0.072-0.711-0.112-0.992-0.166-1.044z" style="fill-rule:nonzero;fill:url(#_Linear3)"/>
 <defs>
  <linearGradient id="_Linear1" x2="1" gradientTransform="matrix(0,-56,-56,0,32,60)" gradientUnits="userSpaceOnUse">
   <stop style="stop-color:#001621" offset="0"/>
   <stop style="stop-color:#0a384e" offset="1"/>
  </linearGradient>
  <linearGradient id="_Linear2" x2="1" gradientTransform="matrix(.790361 33.012 -33.012 .790361 32.8386 4)" gradientUnits="userSpaceOnUse">
   <stop style="stop-color:#126086" offset="0"/>
   <stop style="stop-color:#004465" offset="1"/>
  </linearGradient>
  <linearGradient id="_Linear3" x2="1" gradientTransform="matrix(46.3396,0,0,56,7.17734,32)" gradientUnits="userSpaceOnUse">
   <stop style="stop-color:#00a6c3" offset="0"/>
   <stop style="stop-color:#6ac5ff" offset="1"/>
  </linearGradient>
 </defs>
</svg>
