<svg clip-rule="evenodd" fill-rule="evenodd" stroke-linejoin="round" stroke-miterlimit="2" viewBox="0 0 247 243" xmlns="http://www.w3.org/2000/svg">
 <linearGradient id="a" x2="1" gradientTransform="matrix(-159.854 -159.854 159.854 -159.854 199.533 201.907)" gradientUnits="userSpaceOnUse">
  <stop stop-color="#130036" offset="0"/>
  <stop stop-color="#18023b" offset=".23"/>
  <stop stop-color="#26094a" offset=".51"/>
  <stop stop-color="#3d1563" offset=".82"/>
  <stop stop-color="#4e1d75" offset="1"/>
 </linearGradient>
 <linearGradient id="b" x2="1" gradientTransform="matrix(47.4611 0 0 47.4611 10.2428 95.3113)" gradientUnits="userSpaceOnUse">
  <stop stop-color="#3156a8" offset="0"/>
  <stop stop-color="#3351a4" offset=".25"/>
  <stop stop-color="#3b4397" offset=".54"/>
  <stop stop-color="#472c82" offset=".85"/>
  <stop stop-color="#4e1d75" offset="1"/>
 </linearGradient>
 <radialGradient id="c" cx="0" cy="0" r="1" gradientTransform="matrix(85.2466 0 0 123.608 59.0732 113.923)" gradientUnits="userSpaceOnUse">
  <stop stop-color="#14cdda" offset="0"/>
  <stop stop-color="#14cdda" offset=".17"/>
  <stop stop-color="#2061bd" offset=".55"/>
  <stop stop-color="#2658ac" offset=".65"/>
  <stop stop-color="#373f81" offset=".86"/>
  <stop stop-color="#432d62" offset="1"/>
 </radialGradient>
 <linearGradient id="d" x2="1" gradientTransform="matrix(146.976 0 0 146.976 44.5387 57.8975)" gradientUnits="userSpaceOnUse">
  <stop stop-color="#2061bd" offset="0"/>
  <stop stop-color="#2b51ac" offset=".18"/>
  <stop stop-color="#442c84" offset=".68"/>
  <stop stop-color="#4e1d75" offset=".94"/>
  <stop stop-color="#4e1d75" offset="1"/>
 </linearGradient>
 <linearGradient id="e" x2="1" gradientTransform="matrix(101.091 87.8767 -87.8767 101.091 66.1736 23.2056)" gradientUnits="userSpaceOnUse">
  <stop stop-color="#48a8e0" offset="0"/>
  <stop stop-color="#48a8e0" offset=".02"/>
  <stop stop-color="#2061bd" offset=".39"/>
  <stop stop-color="#2b51ac" offset=".5"/>
  <stop stop-color="#442c84" offset=".79"/>
  <stop stop-color="#4e1d75" offset=".94"/>
  <stop stop-color="#4e1d75" offset="1"/>
 </linearGradient>
 <linearGradient id="f" x2="1" gradientTransform="matrix(198.159 -293.783 293.783 198.159 19.6762 337.414)" gradientUnits="userSpaceOnUse">
  <stop stop-color="#3156a8" offset="0"/>
  <stop stop-color="#3156a8" offset=".38"/>
  <stop stop-color="#4e1d75" offset="1"/>
 </linearGradient>
 <linearGradient id="g" x2="1" gradientTransform="matrix(109.572 -246.103 246.103 109.572 96.7452 278.646)" gradientUnits="userSpaceOnUse">
  <stop stop-color="#29abe2" offset="0"/>
  <stop stop-color="#385aa6" offset=".77"/>
  <stop stop-color="#414293" offset=".86"/>
  <stop stop-color="#4e1d75" offset="1"/>
 </linearGradient>
 <linearGradient id="h" x2="1" gradientTransform="matrix(5.9728 3.4346 -3.4346 5.9728 48.2686 92.0337)" gradientUnits="userSpaceOnUse">
  <stop stop-color="#b0dcd6" offset="0"/>
  <stop stop-color="#53ace0" offset="1"/>
 </linearGradient>
 <linearGradient id="i" x2="1" gradientTransform="matrix(-11.9736 -2.5297 2.5297 -11.9736 176.214 23.0851)" gradientUnits="userSpaceOnUse">
  <stop stop-color="#3092b9" stop-opacity=".12" offset="0"/>
  <stop stop-color="#258db6" stop-opacity=".12" offset=".22"/>
  <stop stop-color="#1685b1" stop-opacity=".12" offset=".66"/>
  <stop stop-color="#1082af" stop-opacity=".12" offset="1"/>
 </linearGradient>
 <linearGradient id="j" x2="1" gradientTransform="matrix(9.8532 39.5191 -39.5191 9.8532 80.7838 38.0252)" gradientUnits="userSpaceOnUse">
  <stop stop-color="#1398d1" stop-opacity="0" offset="0"/>
  <stop stop-color="#1398d1" stop-opacity="0" offset=".01"/>
  <stop stop-color="#1187c2" stop-opacity=".62" offset=".25"/>
  <stop stop-color="#3f6499" stop-opacity=".71" offset=".64"/>
  <stop stop-color="#2f4282" stop-opacity=".5" offset="1"/>
 </linearGradient>
 <linearGradient id="k" x2="1" gradientTransform="matrix(-5.42852 -3.26177 3.26177 -5.42852 72.798 73.1855)" gradientUnits="userSpaceOnUse">
  <stop stop-color="#f9c21b" offset="0"/>
  <stop stop-color="#f3ba1b" offset=".15"/>
  <stop stop-color="#e3a41b" offset=".38"/>
  <stop stop-color="#c9801c" offset=".66"/>
  <stop stop-color="#a44e1c" offset=".99"/>
  <stop stop-color="#a34c1c" offset="1"/>
 </linearGradient>
 <linearGradient id="l" x2="1" gradientTransform="matrix(-36.7815 -82.6127 82.6127 -36.7815 206.211 130.139)" gradientUnits="userSpaceOnUse">
  <stop stop-color="#409ec3" offset="0"/>
  <stop stop-color="#2061bd" offset=".62"/>
  <stop stop-color="#2061bd" offset="1"/>
 </linearGradient>
 <linearGradient id="m" x2="1" gradientTransform="matrix(-26.3534 -81.1074 81.1074 -26.3534 176.76 103.061)" gradientUnits="userSpaceOnUse">
  <stop stop-color="#14b2da" offset="0"/>
  <stop stop-color="#297ccc" offset=".4"/>
  <stop stop-color="#256fc5" offset=".51"/>
  <stop stop-color="#2164bf" offset=".65"/>
  <stop stop-color="#2061bd" offset=".82"/>
  <stop stop-color="#2061bd" offset=".98"/>
  <stop stop-color="#2061bd" offset="1"/>
 </linearGradient>
 <g fill-rule="nonzero">
  <path d="m188.887 35.492c-14.501-9.472-33.046-12.538-43.281-13.609-10.954-1.145-20.468-.943-28.836.285-.709-.009-1.414-.037-2.127-.037-.544 0-1.08.023-1.627.029.225-.275.381-.445.381-.445s-.44.069-1.304.46c-2.717.044-5.421.138-8.085.32 3.711-4.068 6.751-6.2 6.751-6.2s-3.608.528-10.192 6.496c-3.132.288-6.221.67-9.258 1.145 6.918-9.362 14.155-13.304 14.155-13.304s-8.772-1.786-22.507 12.016c-1.149 1.155-2.215 2.356-3.246 3.572-40.031 9.687-68.681 35.538-68.681 65.919 0 5.958-1.829 12.511.143 19.054-.788 10.453.89 38.975.89 38.975s10.837 58.649 52.51 68.846c.662.158-8.707-14.62-12.851-32.442 8.069 8.208 17.685 14.699 28.478 15.824 1.325.137-6.165-8.64-12.725-19.234l94.698 31.906c49.529-21.274 43.763-19.357 54.397-30.875 23.428-25.36 26.708-39.75 20.806-82.235-3.993-28.679-25.16-57.083-48.489-66.466z" fill="url(#a)"/>
  <path d="m22.687 62.276-14.141 80.404 7.841 24.294 156.524 52.041 29.028-123.424-179.252-33.315z" fill="#fbfbfb"/>
  <path d="m23.128 65.01c.785 1.689.554 2.089.065 2.089-.22 0-.492-.081-.747-.161-.255-.081-.494-.161-.648-.161-.433 0-.189.639 2.263 3.72 3.468 4.406 54.399 81.293 57.182 81.293.015 0 .028-.002.04-.006 23.71-8.448 124.543-43.058 124.543-43.058l-10.316-15.029z" fill="#999"/>
  <path d="m24.607 63.121s.76 3.932 4.281 8.284c3.5 4.392 50.51 75.571 52.869 74.944 30.795-8.176 142.525-51.674 142.525-51.674z" fill="#f8f8f8"/>
  <path d="m167.321 217.161-148.753-49.458.526 3.475 149.882 49.834z" fill="#999"/>
  <path d="m57.704 59.795s-54.122 15.85-29.288 71.033c0 0-11.387-10.426-18.167-23.757-.305-.597 11.301-41.829 11.301-41.829z" fill="url(#b)"/>
  <path d="m28.416 130.828c-4.707-.081-12.269-3.964-14.722-8.665-3.066 51.098 17.782 80.939 50.88 96.853-10.815-1.24-64.574-29.609-64.574-97.876 0-58.047 46.06-109.932 118.142-112.309.442 3.254-35.736 11.414-36.893 15.251-1.796 5.972-5.924 12.473-9.406 17.684-4.718 7.061 6.557 13.099-1.729 15.001-12.468 2.861-29.098 1.277-41.361 17.219-18.434 23.965-6.133 51.379-.337 56.842z" fill="url(#c)"/>
  <path d="m137.048 10.699c-46.682-3.582-70.707 15.097-86.13 36.817-5.617 7.906-5.002 15.166-3.068 23.937.831 3.744 1.671 5.538.659 9.355-.558 2.106-.465 4.072-1.158 5.314-.959 1.717-2.18 3.594-2.589 6.677-1.022 7.699 1.703 10.151 3.406 12.741 2.426-2.409 7.165-8.079 15.71-11.466s14.167-8.477 24.876-13.941c14.632-7.463 31.782 3.859 64.3-6.796 10.006-3.279 33.002-37.344 38.461-38.652-15.203-16.812-41.067-22.959-54.467-23.986z" fill="url(#d)"/>
  <path d="m106.207.032s-8.335 4.026-11.965 11.301c8.381-4.225 13.246-6.533 15.546-6.808 0 0-2.203 1.067-4.935 6.87 4.83-1.547 6.493-2.522 7.819-2.537 0 0-.385.61-.737 6.402-7.417-2.404-21.693.397-29.287 5.153-2.576-13.735 23.559-20.381 23.559-20.381z" fill="#3f6499"/>
  <path d="m139.379 8.63c-14.309-1.854-26.27-1.489-36.439.47 3.198-3.065 6.898-4.575 6.898-4.575-4.795.424-10.781 3.554-15.917 6.868-2.588.826-5.054 1.758-7.39 2.799 1.43-1.885 3.094-3.899 4.72-5.445 6.039-5.743 15.006-8.715 15.006-8.715-7.654-.562-33.268 5.995-48.681 37.213-2.526 3.077-4.883 6.235-7.129 9.398-5.798 8.164-5.162 15.658-3.162 24.715.852 3.867 1.009 10.04.168 14.029-.168.799-2.363 2.863-2.926 8.428-.602 5.905 1.505 8.804 3.582 11.203 7.38-10.792 14.661-12.931 14.661-12.931 10.33-4.232 14.63-8.752 25.688-14.393 15.108-7.709 67.939 17.45 101.512 6.448 10.332-3.384-3.977-47.359 1.663-48.709-15.699-17.36-38.494-25.02-52.254-26.803z" fill="url(#e)"/>
  <path d="m244.176 103.288c-8.276-43.237-48.096-82.572-80.117-84.752-14.211-.968-9.847 6.319-18.739 9.094-38.32 11.959-38.906 18.941-38.906 18.941 81.252 3.819 82.484 84.064 60.724 104.366 6.123-1.428 12.762-8.914 18.859-20.666-.732 4.931-1.36 10.98-2.274 17.729-2.788 20.595.823 63.614-58.356 92.405 0 0 32.372-2.646 48.425-20.717-6.528 15.012-24.441 23.121-24.441 23.121 13.182-1.928 47.81-12.146 69.868-39.732 24.966-31.225 32.474-60.519 24.957-99.789z" fill="url(#f)"/>
  <path d="m164.993 182.221s26.396-7.38 34.903-21.633c-1.032 16.619-16.107 33.662-16.107 33.662s22.038-4.46 31.436-19.968c-1.224 13.994-18.191 32.907-18.191 32.907 17.346-3.113 60.93-30.645 47.143-103.901-8.142-43.262-48.096-82.572-80.117-84.752-14.211-.968-9.847 6.319-18.739 9.094-38.32 11.959-38.906 18.941-38.906 18.941 81.252 3.819 102.844 46.344 60.724 103.231 6.123-1.429 8.578-4.794 13.178-10.301-.002 0 2.084 21.78-15.324 42.72z" fill="url(#g)"/>
  <path d="m60.609 85.567s-4.719 3.301-8.136 2.46c-4.045-.993-4.73-4.913-4.73-4.913-.089.803-.192 1.578-.341 2.273-.168.799-2.363 2.863-2.926 8.428-.602 5.905 1.615 9.325 3.692 11.724 7.381-10.792 14.552-13.452 14.552-13.452-2.809-.982-2.111-6.52-2.111-6.52z" fill="url(#h)"/>
  <path d="m163.513 18.434c1.106-.287 5.621.204 8.584 1.533 2.964 1.329 8.073 3.679 3.986 4.701-4.088 1.022-6.438-.613-8.482-2.351s-6.847-3.168-4.088-3.883z" fill="url(#i)"/>
  <path d="m61.051 84.921s25.888-42.662 49.292-54.175c2.173-1.093-32.405 9.191-46.32 24.55-8.271 9.129-3.891 27.002-2.972 29.625z" fill="url(#j)"/>
  <path d="m61.051 84.921c.024-.015.05-.03.075-.045 6.694-4.136 18.166-6.518 21.864-14.015 14.237-28.869 27.354-40.115 27.354-40.115-23.405 11.513-49.293 54.175-49.293 54.175z" fill="#f2f2f2" fill-opacity=".1"/>
  <path d="m63.512 77.118s-4.666-7.159 2.053-13.687c3.546-3.44 8.919-1.529 9.54-.91 2.644 2.622.982 8.156-1.398 11.288-1.345 1.764-5.259 4.51-10.195 3.309z" fill="#2f4282"/>
  <path d="m66.187 76.674s-3.224-4.949 1.422-9.459c2.446-2.376 6.161-1.056 6.592-.63 1.826 1.812.676 5.637-.968 7.8-.929 1.223-3.635 3.119-7.046 2.289z" fill="url(#k)"/>
  <path d="m72.623 71.393c-.072 1.978-1.746 3.522-3.738 3.454-1.996-.069-3.558-1.726-3.487-3.704.071-1.977 1.744-3.521 3.741-3.453 1.992.069 3.553 1.727 3.484 3.703z" fill="#2a2a2a"/>
 </g>
 <circle cx="66.725" cy="70.287" r="1.136" fill="#fff"/>
 <path d="m228.505 65.01c-17.721-26.976-31.761-33.831-31.761-33.831s.645 19.65 10.484 29.128c1.124 1.083-11.774-8.432-11.774-8.432s-2.758 9.076 3.562 19.51c-1.836-2.439-3.051-3.363-3.051-3.363s-11.908 5.491-15.423 13.109c-1.815-3.426-3.176-5.444-3.176-5.444s-8.236 16.437-7.201 35.495c1.684 30.988-5.803 42.404-5.803 42.404s20.057-7.695 29.676-32.468c3.974 10.533-.121 21.619-.121 21.619s16.206-12.109 19.691-34.18c3.863 6.23 2.727 18.664 2.727 18.664s10.344-14.402 10.596-30.086c4.794 3.343 5.235 16.399 5.235 16.399s15.336-19.606-3.661-48.524z" fill="url(#l)" fill-rule="nonzero"/>
 <path d="m211.282 46.158c-4.631-8.63-12.803-14.13-19.986-18.582-17.909-11.105-29.427-12.665-29.427-12.665s-16.528 3.074-13.689 7.672c.146.236.487.535.968.877-14.498-6.678-22.722 8.677-22.722 8.677-8.284-.503-18.371 3.575-21.312 14.499-.305 1.134 3.711.496 5.777.945 12.079 2.626 23.45 8.32 28.675 11.134 12.154 6.548 19.365 17.451 23.528 25.629 5.037 9.894 7.094 27.304 7.094 27.304s13.253-18.205 10.086-27.552c5.249 3.26 6.285 14.891 6.285 14.891s8.835-13.838 6.223-25.891c6.815 4.153 7.042 12.601 7.042 12.601s6.939-9.631 3.803-25.427c6.858 5.453 8.293 12.517 8.293 12.517s5.606-14.993-.638-26.629z" fill="url(#m)" fill-rule="nonzero"/>
</svg>
