<svg style="clip-rule:evenodd;fill-rule:evenodd;stroke-linejoin:round;stroke-miterlimit:2" version="1.1" viewBox="0 0 48 48" xmlns="http://www.w3.org/2000/svg">
 <circle cx="24" cy="24" r="20" style="fill:url(#_Linear1)"/>
 <path d="m19.463 1.001c-0.137 6e-3 -0.276 0.03-0.413 0.074-0.734 0.236-1.142 0.949-0.914 1.599l0.573 1.632c-8.302 0.8-12.709 9.56-12.709 9.56s2.778 0.522 9.479-3.179c1.862-1.028 2.935-2.134 3.548-3.134-0.127 1.032-0.108 2.355 0.187 4.041 0.743 4.237 3.844 7.405 3.844 7.405s3.753-6.233-0.272-12.343c5.936 4.033 15.214 2.281 15.214 2.281s-4.156-3.943-8.568-4.926c-3.293-0.733-6.324-0.254-7.9 0.118-1e-3 -0.12-0.021-0.242-0.063-0.362l-0.682-1.943c-0.186-0.529-0.732-0.848-1.324-0.823z" style="fill:#5ba600"/>
 <defs>
  <linearGradient id="_Linear1" x2="1" gradientTransform="matrix(2.42434e-15,-39.5925,39.5925,2.42434e-15,24,43.8559)" gradientUnits="userSpaceOnUse">
   <stop style="stop-color:#b01100" offset="0"/>
   <stop style="stop-color:#df3e37" offset="1"/>
  </linearGradient>
 </defs>
</svg>
