<svg style="clip-rule:evenodd;fill-rule:evenodd;stroke-linejoin:round;stroke-miterlimit:2" version="1.1" viewBox="0 0 64 64" xmlns="http://www.w3.org/2000/svg">
 <path d="m8 32v25.214c0 1.544 1.259 2.786 2.824 2.786h42.352c1.565 0 2.824-1.242 2.824-2.786v-25.214h-48z" style="fill-rule:nonzero;fill:#725d32"/>
 <path d="m10.824 21c-1.565 0-2.824 1.242-2.824 2.786v8.214h48v-8.214c0-1.544-1.259-2.786-2.824-2.786h-42.352z" style="fill-rule:nonzero;fill:#e1323a"/>
 <circle cx="32" cy="46" r="14" style="fill-opacity:.2"/>
 <circle cx="32" cy="46" r="10" style="fill-opacity:.1"/>
 <path d="m12 12v9c5.324 0 32.987 0.096 40 0v-9h-40z" style="fill-rule:nonzero;fill:#ffa11a"/>
 <path d="m14.857 4c-1.583 0-2.857 1.264-2.857 2.833v5.167h40v-5.167c0-1.569-1.274-2.833-2.857-2.833h-34.286z" style="fill-rule:nonzero;fill:#e1323a"/>
 <path d="m37.5 14c1.38 0 2.5 1.12 2.5 2.5s-1.12 2.5-2.5 2.5-2.5-1.12-2.5-2.5 1.12-2.5 2.5-2.5zm8 0c1.38 0 2.5 1.12 2.5 2.5s-1.12 2.5-2.5 2.5-2.5-1.12-2.5-2.5 1.12-2.5 2.5-2.5zm-16 0c1.38 0 2.5 1.12 2.5 2.5s-1.12 2.5-2.5 2.5-2.5-1.12-2.5-2.5 1.12-2.5 2.5-2.5z" style="fill:#fff"/>
 <rect x="15" y="14" width="4" height="5" style="fill:#4f4f4f"/>
 <path d="m36 22.699c-0.437 0.248-0.8 0.334-1.383 0.334l-1.394-8e-3c-1.124 0-1.778 0.15-2.35 0.522-0.582 0.391-0.937 1.06-0.937 1.756 0 0.229 0.032 0.393 0.136 0.736l0.871-0.363c-0.166-0.448-0.207-0.657-0.207-0.944 0-0.858 0.613-1.392 1.58-1.392 0.125 0 0.303 8e-3 0.5 0.027l-0.664 2.449-0.375 0.442h0.26l-0.281 1.019c-0.416 1.526-0.666 1.793-1.654 1.793-0.136 0-0.313-8e-3 -0.698-0.017l-0.404 0.619c0.218 0.019 0.405 0.027 0.52 0.027 0.624 0 1.071-0.182 1.757-0.697 0.76-0.563 1.03-0.971 1.28-1.877l0.25-0.916c0.593-0.029 1.082-0.057 1.113-0.066 0.291-0.039 0.373-0.088 0.633-0.327h-1.643l0.668-2.449 1.662 0.039c0.135-0.105 0.438-0.313 0.656-0.437 0.052-0.115 0.062-0.136 0.104-0.27zm-8.943 0.301c-1.053 0-2.009 0.436-2.782 1.268-0.782 0.841-1.275 2.031-1.275 3.046 0 0.939 0.513 1.52 1.344 1.52 0.599 0 1.111-0.157 1.97-0.592-0.144 0.581-0.319 1.209-0.406 1.422-0.193 0.522-0.474 0.736-0.986 0.736-0.28 0-0.751-0.039-1.041-0.088l-0.406 0.639c0.347 0.039 0.502 0.049 0.695 0.049 0.773 0 1.429-0.349 2.066-1.094 0.416-0.474 0.591-0.88 0.871-2.002l0.377-1.508h0.202l0.445-0.271c-0.387-0.029-1.277-0.049-2.176-0.049l-0.588 0.299v0.078c0.483-0.029 0.958-0.047 1.412-0.057l-0.349 1.393c-0.406 0.387-0.986 0.648-1.43 0.648-0.715 0-1.158-0.563-1.158-1.443 0-1.886 1.274-3.644 2.627-3.644 0.396 0 0.732 0.163 0.916 0.453 0.125 0.193 0.174 0.359 0.232 0.765l0.717-0.804c-0.184-0.552-0.543-0.764-1.277-0.764zm13.83 0c-0.433 0-0.745 0.202-1.207 0.809l-1.016 1.275-0.363-1.842c-0.03-0.152-0.089-0.213-0.199-0.213-0.151 0-0.617 0.112-1.563 0.375l-0.23 0.293c0.11-0.02 0.212-0.038 0.242-0.049 0.392-0.081 0.412-0.084 0.533-0.084 0.292 0 0.442 0.145 0.543 0.479 0.171 0.607 0.311 1.193 0.422 1.811-0.785 1.021-1.338 1.709-1.539 1.912-0.272 0.273-0.521 0.363-1.004 0.363-0.091 0-0.154 1e-3 -0.315-0.02l-0.492 0.758c0.232 0.031 0.345 0.041 0.455 0.041 0.292 0 0.611-0.059 0.823-0.16 0.311-0.152 0.584-0.427 1.158-1.176l0.603-0.779 0.422-0.535 0.422 2.086c0.101 0.536 0.161 0.656 0.322 0.656 0.081 0 0.201-0.022 0.342-0.063 0.071-0.01 0.273-0.049 0.574-0.099 0.101-0.02 0.37-0.072 0.803-0.152l0.174-0.231c-0.111 0.01-0.214 0.018-0.244 0.018-0.181 0.02-0.341 0.031-0.442 0.031-0.382 0-0.623-0.142-0.754-0.436-0.161-0.384-0.273-0.817-0.544-2.132l-0.09-0.457 0.785-0.954c0.442-0.546 0.723-0.746 1.045-0.746 0.141 0 0.262 0.041 0.443 0.153l0.453-0.719c-0.201-0.162-0.341-0.213-0.562-0.213z" style="fill-rule:nonzero;fill:#fff"/>
</svg>
