<svg clip-rule="evenodd" fill-rule="evenodd" stroke-linejoin="round" stroke-miterlimit="2" viewBox="0 0 48 48" xmlns="http://www.w3.org/2000/svg">
 <linearGradient id="a" x2="1" gradientTransform="matrix(.655087 -25.398 25.398 .655087 22.6749 43.995)" gradientUnits="userSpaceOnUse">
  <stop stop-color="#d5d5d5" offset="0"/>
  <stop stop-color="#fff" offset="1"/>
 </linearGradient>
 <path d="m24 4c-7.732 0-14 6.268-14 14v14l5.387-1.665v-12.058c0-4.756 3.856-8.612 8.613-8.612s8.613 3.856 8.613 8.612v12.058l5.387 1.665v-14c0-7.732-6.268-14-14-14z" fill="#b3b3b3" fill-rule="nonzero"/>
 <path d="m40 44h-31-.054c-4.578-.029-8.286-3.755-8.286-8.34 0-3.876 2.65-7.138 6.235-8.072 1.547-5.511 6.613-9.557 12.616-9.557 4.629 0 8.701 2.406 11.032 6.034.312-.043.632-.065.957-.065 3.863 0 7 3.137 7 7 0 .415-.036.822-.106 1.218.512-.142 1.05-.218 1.606-.218 3.311 0 6 2.689 6 6s-2.689 6-6 6z" fill="url(#a)"/>
 <g fill="#54ae1d" fill-rule="nonzero">
  <path d="m25.028 24.762c-.239-.08-11.981 5.814-11.406 17.238h-1.896c0-12.226 11.652-16.981 13.302-17.238z"/>
  <path d="m30.728 28.062s-10.27 3.159-11.56 13.938h-1.896c1.22-8.783 11.591-14.255 13.456-13.938z"/>
  <path d="m34.134 32.762s-8.729 1.331-9.389 9.238h-1.896c1.841-7.891 9-9.021 11.285-9.238z"/>
 </g>
</svg>
