<svg clip-rule="evenodd" fill-rule="evenodd" stroke-linejoin="round" stroke-miterlimit="2" viewBox="0 0 48 48" xmlns="http://www.w3.org/2000/svg">
 <linearGradient id="a" x2="1" gradientTransform="matrix(0 -45.528 45.528 0 24 46.764)" gradientUnits="userSpaceOnUse">
  <stop stop-color="#c7c7c7" offset="0"/>
  <stop stop-color="#e4e4e4" offset="1"/>
 </linearGradient>
 <circle cx="24" cy="24" r="22.764" fill="url(#a)"/>
 <g fill-rule="nonzero">
  <path d="m19.447 12.618c-3.746 0-6.829 3.083-6.829 6.829-.001 2.003.879 3.909 2.405 5.207-.081.537-.124 1.079-.129 1.622 0 6.244 5.138 11.382 11.382 11.382s11.382-5.138 11.382-11.382-5.138-11.382-11.382-11.382c-.547.004-1.094.047-1.636.129-1.294-1.522-3.194-2.402-5.193-2.405zm-11.382 6.829c-1.249 0-2.276 1.028-2.276 2.277 0 1.248 1.027 2.276 2.276 2.276s2.277-1.028 2.277-2.276c0-1.249-1.028-2.277-2.277-2.277z" fill="#d52a2b"/>
  <path d="m24 5.789c-2.498 0-4.553 2.055-4.553 4.553.001 1.623.871 3.127 2.277 3.939v23.377h.115c-.076.375-.115.756-.115 1.139 0 3.143 2.548 5.691 5.691 5.691s5.691-2.548 5.691-5.691c-.004-2.201-1.277-4.203-3.268-5.14.64-.804.989-1.8.991-2.828 0-2.514-2.038-4.553-4.553-4.553-.8.003-1.585.216-2.276.618v-12c2.498 0 4.553-2.055 4.553-4.552 0-2.498-2.055-4.553-4.553-4.553zm-11.382 2.276c-1.257 0-2.276 1.019-2.276 2.277 0 1.257 1.019 2.276 2.276 2.276s2.276-1.019 2.276-2.276c0-1.258-1.019-2.277-2.276-2.277zm22.764 0c-1.257 0-2.276 1.019-2.276 2.277 0 1.257 1.019 2.276 2.276 2.276s2.276-1.019 2.276-2.276c0-1.258-1.019-2.277-2.276-2.277z" fill="#363636"/>
 </g>
</svg>
