<svg clip-rule="evenodd" fill-rule="evenodd" stroke-linejoin="round" stroke-miterlimit="2" viewBox="0 0 48 48" xmlns="http://www.w3.org/2000/svg">
 <linearGradient id="a" x2="1" gradientTransform="matrix(0 -39.0004 39.0004 0 24 43)" gradientUnits="userSpaceOnUse">
  <stop stop-color="#2d5a37" offset="0"/>
  <stop stop-color="#487f6d" offset="1"/>
 </linearGradient>
 <linearGradient id="b" x2="1" gradientTransform="matrix(30 0 0 26 -42 -24)" gradientUnits="userSpaceOnUse">
  <stop stop-color="#6d7481" offset="0"/>
  <stop stop-color="#8f9cb4" offset="1"/>
 </linearGradient>
 <path transform="matrix(1.14301 0 0 1.14301 -3.43235 -3.36081)" d="m24 4c-2.77 0-5 2.676-5 6v7.459l-3.309-3.309c-.767-.767-1.77-1.15-2.771-1.15s-2.002.383-2.77 1.15c-1.534 1.534-1.534 4.007 0 5.541l8.309 8.309-8.309 8.308c-1.534 1.535-1.534 4.007 0 5.541 1.535 1.535 4.007 1.535 5.541 0l6.334-6.334c.606.311 1.273.485 1.975.485s1.369-.174 1.975-.485l6.334 6.334c1.534 1.535 4.006 1.535 5.541 0 1.534-1.534 1.534-4.006 0-5.541l-8.309-8.308 8.309-8.309c1.534-1.534 1.534-4.007 0-5.541-1.535-1.534-4.007-1.534-5.541 0l-3.309 3.309v-7.459c0-3.324-2.23-6-5-6z" fill="url(#a)" fill-rule="nonzero"/>
 <path transform="matrix(0 -1.14301 -1.14301 0 -3.43235 -3.36081)" d="m-12-25.627c0-6.277-5.096-11.373-11.373-11.373h-7.254c-6.277 0-11.373 5.096-11.373 11.373v3.254c0 6.277 5.096 11.373 11.373 11.373h7.254c6.277 0 11.373-5.096 11.373-11.373z" fill="url(#b)"/>
 <path transform="matrix(1.14301 0 0 1.14301 -3.43235 -3.36081)" d="m15.496 18.95c-.827.013-1.488.694-1.476 1.522v5.754c-.027.161-.027.325 0 .486v5.76c-.029 2.028 3.029 2.028 3 0v-4.5h3v4.5c-.029 2.028 3.029 2.028 3 0v-5.754c.026-.161.026-.325 0-.486v-5.76c.029-2.029-3.029-2.029-3 0v4.5h-3v-4.5c.012-.846-.678-1.535-1.524-1.522zm14.002 3.044c-2.485 0-4.5 2.015-4.5 4.5s2.015 4.5 4.5 4.5c.445-.001.888-.067 1.313-.197-.071.469-.165.917-.328 1.314-.105.233-.255.373-.637.537-.386.166-.959.282-1.545.36-2.056.205-1.644 3.31.395 2.972.676-.089 1.496-.217 2.334-.576.837-.359 1.737-1.027 2.205-2.084.004-.01.008-.019.011-.029.895-2.14.699-4.26.75-5.973.001-.014.002-.029.002-.043v-.279c.001-.065-.003-.129-.011-.194.007-.102.011-.205.011-.308 0-2.485-2.014-4.5-4.5-4.5zm0 3c.829 0 1.5.671 1.5 1.5 0 .828-.671 1.5-1.5 1.5-.828 0-1.5-.672-1.5-1.5 0-.829.672-1.5 1.5-1.5z" fill="#c4c4c4" fill-rule="nonzero"/>
</svg>
