<svg style="clip-rule:evenodd;fill-rule:evenodd;stroke-linejoin:round;stroke-miterlimit:2" version="1.1" viewBox="0 0 48 48" xmlns="http://www.w3.org/2000/svg">
 <circle cx="24" cy="24" r="22.764" style="fill:url(#_Linear1)"/>
 <path d="m28.286 28.092l-3.412-5e-3v-4.133c0-1.02-0.692-1.851-1.612-1.851-0.921 0-1.613 0.831-1.613 1.851v6.258c-0.387-0.44-0.799-0.702-1.317-0.702-0.286 0-0.573 0.083-0.825 0.24-0.794 0.498-1.081 1.588-0.649 2.488 0.708 1.407 3.028 6.028 3.186 6.264 0.524 0.794 1.319 1.258 2.183 1.258h4.558c1.747 0 2.667-0.918 2.667-2.488v-5.756c0-0.029 0.04-0.058 0.038-0.087 2e-3 -0.045-2e-3 -0.091-2e-3 -0.139 0-1.763-1.439-3.198-3.202-3.198z" style="fill-opacity:.84;fill-rule:nonzero"/>
 <path d="m26.293 26.732h2.043c0.308 0 0.609 0.02 0.9 0.078 0.663-1.074 1.046-2.343 1.046-3.695 0-3.883-3.159-7.045-7.042-7.045s-7.042 3.158-7.042 7.041c0 2.197 1.001 4.162 2.584 5.455 0.447-0.274 0.933-0.425 1.449-0.438v-2.612c-0.516-0.659-0.84-1.496-0.84-2.407 0-2.116 1.727-3.838 3.843-3.838 2.117 0 3.809 1.722 3.809 3.838 0 0.833-0.234 1.605-0.75 2.234v1.389z" style="fill-opacity:.84;fill-rule:nonzero"/>
 <path d="m36.335 23.109c0-7.233-5.873-13.118-13.106-13.118s-13.112 5.885-13.112 13.118c0 5.705 3.664 10.57 8.759 12.372l-1.271-2.652c-0.275-0.573-0.372-1.195-0.314-1.794-2.406-1.811-3.965-4.69-3.965-7.926 0-5.466 4.448-9.914 9.914-9.914s9.914 4.448 9.914 9.914c0 1.869-0.52 3.618-1.422 5.111 0.735 0.813 1.184 1.89 1.184 3.07 0 0.044-0.023 0.087-0.024 0.13 1e-3 0.028-0.021 0.061-0.021 0.096v0.441c2.193-2.335 3.464-5.442 3.464-8.848z" style="fill-opacity:.84;fill-rule:nonzero"/>
 <defs>
  <linearGradient id="_Linear1" x2="1" gradientTransform="matrix(2.71809e-15,-44.3898,44.3898,2.71809e-15,24,45.6258)" gradientUnits="userSpaceOnUse">
   <stop style="stop-color:#ff9300" offset="0"/>
   <stop style="stop-color:#ffd702" offset="1"/>
  </linearGradient>
 </defs>
</svg>
