<?xml version="1.0" encoding="UTF-8" standalone="no"?><!DOCTYPE svg PUBLIC "-//W3C//DTD SVG 1.1//EN" "http://www.w3.org/Graphics/SVG/1.1/DTD/svg11.dtd"><svg width="100%" height="100%" viewBox="0 0 64 64" version="1.1" xmlns="http://www.w3.org/2000/svg" xmlns:xlink="http://www.w3.org/1999/xlink" xml:space="preserve" xmlns:serif="http://www.serif.com/" style="fill-rule:evenodd;clip-rule:evenodd;stroke-linejoin:round;stroke-miterlimit:1.41421;"><path d="M47.659,4c6.811,0 12.341,5.53 12.341,12.341l0,31.318c0,6.811 -5.53,12.341 -12.341,12.341l-31.318,0c-6.811,0 -12.341,-5.53 -12.341,-12.341l0,-31.318c0,-6.811 5.53,-12.341 12.341,-12.341l31.318,0Z" style="fill:url(#_Linear1);"/><path d="M41.348,11.003c-0.88,0.041 -1.68,0.529 -2.12,1.292c-0.228,0.394 -0.348,0.841 -0.348,1.296c0,0.923 0.495,1.78 1.295,2.241c0.393,0.228 0.84,0.348 1.295,0.348c0.924,0 1.78,-0.495 2.242,-1.295c0.228,-0.393 0.348,-0.84 0.348,-1.295c0,-0.924 -0.495,-1.78 -1.295,-2.242c-0.43,-0.249 -0.922,-0.368 -1.417,-0.345Zm-16.661,4.047c0,0 0,0 -0.001,0c-0.896,0 -1.633,0.738 -1.633,1.634c0,0 0,0 0,0.001c0.001,0.895 0.739,1.631 1.634,1.631c0.895,-0.001 1.63,-0.737 1.631,-1.631c0.001,-0.896 -0.735,-1.633 -1.631,-1.635Zm4.112,0.416c0,0 -0.001,0 -0.001,0c-0.782,0 -1.426,0.643 -1.426,1.426c0,0 0,0 0,0c0.002,0.782 0.645,1.424 1.427,1.424c0.78,-0.001 1.422,-0.643 1.423,-1.424c0.001,-0.781 -0.642,-1.425 -1.423,-1.426Zm-8.889,0.165c0,0 -0.001,0 -0.001,0c-1.055,0 -1.924,0.868 -1.924,1.924l0,0.001c0,1.055 0.869,1.924 1.924,1.924l0.001,0c1.056,0 1.924,-0.869 1.924,-1.924l0,-0.001c0,-1.056 -0.868,-1.924 -1.924,-1.924c0,0 0,0 0,0Zm12.273,0.999c-0.679,-0.001 -1.239,0.557 -1.24,1.237c0,0 0,0.001 0,0.001c0,0.68 0.56,1.239 1.239,1.239c0.001,0 0.001,0 0.001,0c0.68,-0.001 1.238,-0.561 1.238,-1.24c-0.001,-0.679 -0.559,-1.236 -1.238,-1.237Zm9.879,1.344c-0.753,0.035 -1.437,0.453 -1.814,1.105c-0.606,1.053 -0.24,2.418 0.812,3.025c1.052,0.606 2.417,0.241 3.025,-0.81c0.195,-0.337 0.297,-0.72 0.297,-1.109c0,-0.79 -0.423,-1.523 -1.107,-1.918c-0.368,-0.212 -0.789,-0.314 -1.213,-0.293Zm-7.303,0.232c-0.001,0 -0.002,0 -0.003,0c-0.588,0 -1.072,0.484 -1.073,1.072c0,0.001 0,0.002 0,0.003c0,0.588 0.485,1.072 1.073,1.072c0.001,0 0.002,0 0.003,0c0.588,0 1.072,-0.484 1.072,-1.072c0,-0.001 0,-0.002 0,-0.003c0,-0.588 -0.484,-1.072 -1.072,-1.072Zm12.933,0.562c-0.752,0.036 -1.435,0.454 -1.811,1.106c-0.607,1.051 -0.242,2.416 0.809,3.024c0.337,0.195 0.72,0.298 1.11,0.298c0.79,0 1.522,-0.423 1.918,-1.108c0.606,-1.052 0.239,-2.417 -0.813,-3.024c-0.367,-0.213 -0.789,-0.316 -1.213,-0.296Zm-22.259,1.017c-0.896,0.001 -1.632,0.739 -1.632,1.634c0.002,0.895 0.737,1.63 1.632,1.632c0.895,0 1.633,-0.736 1.634,-1.632c0,0 0,0 0,0c0,-0.897 -0.737,-1.634 -1.634,-1.634c0,0 0,0 0,0Zm11.235,0.29c0,0 -0.001,0 -0.001,0c-0.497,0 -0.906,0.41 -0.906,0.907l0,0.001c0,0.498 0.409,0.907 0.906,0.907l0.001,0c0.498,0 0.907,-0.409 0.907,-0.907l0,-0.001c0,-0.497 -0.409,-0.907 -0.907,-0.907c0,0 0,0 0,0Zm-7.124,0.126c-0.781,0.001 -1.424,0.645 -1.423,1.426c0.001,0.781 0.643,1.422 1.423,1.424c0.782,0 1.426,-0.642 1.427,-1.424c0,0 0,0 0,-0.001c0,-0.782 -0.644,-1.425 -1.426,-1.425c0,0 -0.001,0 -0.001,0Zm-8.886,0.165c0,0 0,0 0,0c-1.056,0 -1.924,0.868 -1.924,1.924l0,0c0,1.056 0.868,1.924 1.924,1.924l0,0c1.056,0 1.925,-0.868 1.925,-1.924l0,0c0,-1.056 -0.869,-1.924 -1.925,-1.924c0,0 0,0 0,0Zm12.271,0.998c-0.679,0.001 -1.236,0.559 -1.237,1.238c-0.001,0.679 0.557,1.239 1.237,1.24c0,0 0.001,0 0.001,0c0.68,0 1.239,-0.559 1.239,-1.239c0,-0.001 0,-0.001 0,-0.001c-0.001,-0.68 -0.561,-1.238 -1.24,-1.238Zm-17.504,0.914c-1.215,0 -2.214,1 -2.214,2.214c0,1.215 0.999,2.215 2.214,2.215c1.215,0 2.215,-1 2.215,-2.215c0,-1.214 -1,-2.214 -2.215,-2.214Zm20.079,0.663c-0.588,0 -1.072,0.484 -1.072,1.072c0,0.588 0.484,1.072 1.072,1.072c0.588,0 1.072,-0.484 1.072,-1.072c0,-0.588 -0.484,-1.072 -1.072,-1.072Zm5.862,0.956c-0.654,0.03 -1.249,0.392 -1.576,0.959c-0.169,0.293 -0.258,0.625 -0.258,0.963c0,0.687 0.368,1.324 0.963,1.667c0.915,0.527 2.1,0.208 2.627,-0.706c0.528,-0.913 0.211,-2.098 -0.702,-2.627c-0.32,-0.184 -0.685,-0.274 -1.054,-0.256Zm5.63,0.794c-0.653,0.031 -1.246,0.393 -1.573,0.959c-0.17,0.293 -0.259,0.626 -0.259,0.964c0,0.687 0.367,1.323 0.961,1.666c0.293,0.169 0.625,0.258 0.963,0.258c0.687,0 1.324,-0.368 1.667,-0.963c0.527,-0.915 0.208,-2.1 -0.705,-2.627c-0.32,-0.185 -0.686,-0.274 -1.054,-0.257Zm-19.434,0.37c-0.896,-0.001 -1.633,0.735 -1.635,1.631c0,0 0,0 0,0.001c0,0.896 0.738,1.633 1.634,1.633l0.002,0c0.896,0 1.633,-0.737 1.633,-1.633c0,-0.001 0,-0.001 0,-0.001c-0.001,-0.896 -0.739,-1.632 -1.634,-1.631Zm4.111,0.412c0,0 0,0 0,0c-0.783,0 -1.426,0.644 -1.426,1.426l0,0.001c0,0.782 0.643,1.426 1.426,1.426c0,0 0,0 0,0c0.782,-0.001 1.424,-0.645 1.424,-1.426c0,-0.782 -0.642,-1.426 -1.424,-1.427Zm-8.889,0.168c0,0 0,0 0,0c-1.056,0 -1.924,0.869 -1.924,1.924l0,0.001c0,1.055 0.868,1.924 1.924,1.924l0.001,0c1.055,0 1.924,-0.869 1.924,-1.924l0,-0.001c0,-1.055 -0.869,-1.924 -1.924,-1.924c-0.001,0 -0.001,0 -0.001,0Zm28.687,0.77c-0.654,0.03 -1.249,0.392 -1.576,0.959c-0.169,0.293 -0.258,0.625 -0.258,0.963c0,0.687 0.368,1.324 0.963,1.667c0.915,0.527 2.1,0.208 2.627,-0.706c0.528,-0.913 0.211,-2.098 -0.702,-2.627c-0.32,-0.184 -0.685,-0.274 -1.054,-0.256Zm-16.413,0.226c0,0 -0.001,0 -0.001,0c-0.68,0 -1.239,0.559 -1.239,1.239c0,0 0,0.001 0,0.001c0.001,0.68 0.56,1.238 1.24,1.237c0.678,-0.001 1.236,-0.559 1.237,-1.237c0.001,-0.679 -0.558,-1.239 -1.237,-1.24Zm-17.507,0.913c-1.214,0 -2.214,1 -2.214,2.215c0,1.215 1,2.214 2.214,2.215c1.215,-0.001 2.215,-1 2.215,-2.215c0,-1.215 -1,-2.215 -2.215,-2.215Zm22.196,1.21c-0.555,0.026 -1.06,0.334 -1.338,0.815c-0.447,0.776 -0.177,1.783 0.599,2.23c0.776,0.447 1.782,0.177 2.23,-0.598c0.447,-0.775 0.178,-1.781 -0.596,-2.23c-0.271,-0.157 -0.582,-0.232 -0.895,-0.217Zm5.63,0.794c-0.554,0.027 -1.058,0.335 -1.335,0.816c-0.448,0.775 -0.179,1.781 0.596,2.23c0.248,0.143 0.53,0.219 0.817,0.219c0.584,0 1.124,-0.313 1.416,-0.818c0.447,-0.776 0.176,-1.782 -0.599,-2.23c-0.272,-0.157 -0.582,-0.232 -0.895,-0.217Zm-17.608,1.295c-0.208,0.006 -0.412,0.063 -0.592,0.168c-0.588,0.341 -0.792,1.104 -0.452,1.693c0.34,0.588 1.104,0.792 1.692,0.452c0.588,-0.341 0.792,-1.104 0.452,-1.693c-0.225,-0.391 -0.648,-0.629 -1.1,-0.62Zm-15.582,0.229c-1.419,0.001 -2.587,1.169 -2.587,2.589c0,0 0,0.001 0,0.002c0.001,1.419 1.168,2.587 2.587,2.587c0.001,0 0.002,0 0.002,0c1.42,0 2.588,-1.168 2.589,-2.587c0,-0.001 0,-0.002 0,-0.002c0,-1.42 -1.169,-2.589 -2.589,-2.589c0,0 -0.001,0 -0.002,0Zm37.665,0.196c-0.555,0.026 -1.06,0.334 -1.338,0.816c-0.447,0.775 -0.177,1.782 0.599,2.229c0.776,0.447 1.782,0.177 2.23,-0.598c0.447,-0.775 0.178,-1.781 -0.596,-2.23c-0.271,-0.157 -0.582,-0.232 -0.895,-0.217Zm-12.332,1.148c-0.484,0.024 -0.925,0.292 -1.167,0.712c-0.125,0.217 -0.191,0.463 -0.191,0.714c0,0.509 0.272,0.981 0.714,1.235c0.216,0.126 0.463,0.192 0.713,0.192c0.509,0 0.981,-0.273 1.235,-0.714c0.126,-0.217 0.192,-0.463 0.192,-0.714c0,-0.509 -0.273,-0.981 -0.714,-1.235c-0.237,-0.137 -0.509,-0.203 -0.782,-0.19Zm-13.315,0.138c-0.181,0.004 -0.357,0.053 -0.514,0.143c-0.331,0.192 -0.535,0.547 -0.535,0.929c0,0.189 0.05,0.374 0.144,0.538c0.192,0.331 0.546,0.535 0.929,0.535c0.189,0 0.374,-0.05 0.538,-0.144c0.507,-0.295 0.684,-0.955 0.391,-1.463c-0.196,-0.34 -0.562,-0.547 -0.953,-0.538l0,0Zm18.948,0.66c-0.484,0.022 -0.924,0.29 -1.167,0.708c-0.126,0.218 -0.192,0.464 -0.192,0.715c0,0.509 0.272,0.98 0.711,1.234c0.217,0.126 0.463,0.192 0.714,0.192c0.509,0 0.981,-0.273 1.235,-0.714c0.39,-0.677 0.154,-1.555 -0.522,-1.946c-0.236,-0.136 -0.507,-0.202 -0.779,-0.189Zm-22.153,0.015c-0.151,0.004 -0.299,0.046 -0.431,0.122c-0.43,0.248 -0.58,0.807 -0.332,1.237c0.161,0.281 0.461,0.455 0.786,0.455c0.159,0 0.316,-0.042 0.454,-0.122c0.279,-0.162 0.452,-0.461 0.452,-0.785c0,-0.159 -0.042,-0.317 -0.122,-0.455c-0.166,-0.286 -0.476,-0.46 -0.807,-0.452l0,0Zm7.613,0.849c-0.24,0.005 -0.474,0.07 -0.682,0.19c-0.441,0.254 -0.713,0.726 -0.713,1.235c0,0.25 0.066,0.497 0.191,0.713c0.255,0.44 0.726,0.712 1.234,0.712c0.251,0 0.498,-0.066 0.715,-0.192c0.676,-0.391 0.912,-1.269 0.522,-1.946c-0.26,-0.451 -0.747,-0.724 -1.267,-0.712Zm19.012,0.855c-0.484,0.023 -0.924,0.29 -1.167,0.709c-0.125,0.217 -0.191,0.463 -0.191,0.714c0,0.509 0.272,0.981 0.714,1.235c0.216,0.125 0.463,0.192 0.713,0.192c0.509,0 0.981,-0.273 1.235,-0.714c0.39,-0.677 0.155,-1.555 -0.522,-1.946c-0.237,-0.137 -0.509,-0.203 -0.782,-0.19Zm-12.634,0.113c-0.421,0.021 -0.804,0.255 -1.014,0.621c-0.109,0.188 -0.166,0.401 -0.166,0.618c0,0.443 0.237,0.853 0.621,1.074c0.188,0.108 0.401,0.165 0.618,0.165c0.443,0 0.853,-0.237 1.074,-0.62c0.109,-0.188 0.166,-0.402 0.166,-0.619c0,-0.443 -0.238,-0.853 -0.621,-1.074c-0.206,-0.118 -0.441,-0.176 -0.678,-0.165Zm-10.725,0.278c-0.209,0.005 -0.412,0.062 -0.593,0.165c-0.588,0.341 -0.792,1.105 -0.452,1.693c0.34,0.588 1.104,0.792 1.692,0.452c0.588,-0.34 0.792,-1.104 0.452,-1.692c-0.226,-0.391 -0.648,-0.628 -1.099,-0.618Zm-3.788,0.245c-0.18,0.004 -0.355,0.054 -0.51,0.143c-0.333,0.192 -0.538,0.547 -0.538,0.93c0,0.189 0.049,0.374 0.144,0.537c0.191,0.331 0.546,0.535 0.928,0.535c0.189,0 0.375,-0.05 0.538,-0.144c0.331,-0.192 0.535,-0.546 0.535,-0.929c0,-0.189 -0.049,-0.374 -0.144,-0.538c-0.196,-0.338 -0.562,-0.543 -0.953,-0.534l0,0Zm20.146,0.272c-0.422,0.02 -0.804,0.254 -1.015,0.62c-0.34,0.588 -0.136,1.352 0.453,1.692c0.188,0.109 0.401,0.166 0.618,0.166c0.443,0 0.853,-0.237 1.074,-0.621c0.34,-0.588 0.136,-1.352 -0.452,-1.692c-0.206,-0.119 -0.441,-0.176 -0.678,-0.165Zm-10.142,1.692c-0.274,0.007 -0.542,0.082 -0.779,0.22c-0.774,0.449 -1.043,1.455 -0.596,2.23c0.448,0.775 1.454,1.046 2.23,0.599c0.506,-0.292 0.818,-0.832 0.818,-1.416c0,-0.287 -0.075,-0.569 -0.219,-0.817c-0.299,-0.517 -0.857,-0.831 -1.454,-0.816Zm7.64,0c-0.365,0.017 -0.697,0.218 -0.88,0.535c-0.094,0.163 -0.144,0.348 -0.144,0.536c0,0.383 0.206,0.739 0.538,0.93c0.51,0.292 1.17,0.115 1.463,-0.394c0.095,-0.164 0.145,-0.349 0.145,-0.538c0,-0.382 -0.205,-0.737 -0.536,-0.928c-0.178,-0.102 -0.381,-0.151 -0.586,-0.141l0,0Zm6.977,0.028c-0.422,0.019 -0.807,0.253 -1.017,0.62c-0.109,0.188 -0.166,0.401 -0.166,0.618c0,0.443 0.237,0.853 0.621,1.074c0.188,0.108 0.401,0.165 0.618,0.165c0.443,0 0.853,-0.237 1.074,-0.62c0.108,-0.188 0.166,-0.402 0.166,-0.619c0,-0.442 -0.238,-0.853 -0.621,-1.074c-0.205,-0.118 -0.439,-0.175 -0.675,-0.164Zm-24.56,0.778c-0.207,0.005 -0.41,0.062 -0.59,0.165c-0.383,0.221 -0.62,0.631 -0.62,1.074c0,0.217 0.057,0.431 0.165,0.619c0.34,0.588 1.104,0.792 1.693,0.452c0.383,-0.221 0.62,-0.631 0.62,-1.074c0,-0.217 -0.057,-0.43 -0.165,-0.618c-0.227,-0.392 -0.651,-0.629 -1.103,-0.618Zm4.567,0.217c-0.239,0.006 -0.472,0.071 -0.678,0.19c-0.442,0.254 -0.714,0.726 -0.714,1.235c0,0.251 0.066,0.497 0.191,0.714c0.254,0.441 0.726,0.713 1.235,0.713c0.251,0 0.497,-0.066 0.714,-0.191c0.441,-0.254 0.714,-0.726 0.714,-1.235c0,-0.251 -0.066,-0.497 -0.192,-0.714c-0.26,-0.451 -0.749,-0.725 -1.27,-0.712Zm17.488,0.697c-0.364,0.017 -0.695,0.219 -0.877,0.534c-0.094,0.164 -0.144,0.349 -0.144,0.538c0,0.383 0.204,0.737 0.535,0.929c0.163,0.094 0.348,0.143 0.537,0.143c0.383,0 0.738,-0.205 0.929,-0.537c0.095,-0.164 0.145,-0.349 0.145,-0.538c0,-0.383 -0.204,-0.737 -0.536,-0.929c-0.178,-0.102 -0.383,-0.151 -0.589,-0.14l0,0Zm-2.422,0.968c-0.308,0.015 -0.589,0.185 -0.743,0.452c-0.247,0.431 -0.097,0.989 0.333,1.237c0.139,0.081 0.296,0.123 0.456,0.123c0.323,0 0.623,-0.173 0.784,-0.452c0.08,-0.138 0.122,-0.295 0.122,-0.455c0,-0.324 -0.173,-0.624 -0.455,-0.786c-0.151,-0.086 -0.323,-0.128 -0.497,-0.119l0,0Zm-6.553,0.721c-0.322,0.008 -0.637,0.098 -0.916,0.26c-0.914,0.527 -1.233,1.713 -0.706,2.627c0.343,0.595 0.98,0.964 1.667,0.964c0.338,0 0.671,-0.089 0.963,-0.259c0.595,-0.343 0.962,-0.979 0.962,-1.666c0,-0.338 -0.09,-0.671 -0.259,-0.964c-0.351,-0.608 -1.009,-0.978 -1.711,-0.962Zm-12.237,0.629c-0.239,0.005 -0.474,0.07 -0.681,0.19c-0.441,0.254 -0.714,0.726 -0.714,1.235c0,0.251 0.066,0.497 0.191,0.714c0.255,0.441 0.727,0.713 1.236,0.713c0.25,0 0.496,-0.066 0.713,-0.191c0.441,-0.254 0.714,-0.726 0.714,-1.235c0,-0.251 -0.066,-0.497 -0.191,-0.714c-0.261,-0.45 -0.748,-0.724 -1.268,-0.712Zm5.596,0.443c-0.273,0.006 -0.541,0.081 -0.779,0.217c-0.504,0.292 -0.816,0.832 -0.816,1.414c0,0.288 0.076,0.57 0.221,0.819c0.448,0.775 1.454,1.043 2.23,0.596c0.775,-0.448 1.045,-1.454 0.598,-2.23c-0.298,-0.517 -0.857,-0.83 -1.454,-0.816Zm11.156,2.068c-0.37,0.009 -0.733,0.111 -1.054,0.297c-0.685,0.394 -1.109,1.128 -1.109,1.919c0,0.389 0.102,0.771 0.297,1.108c0.395,0.684 1.127,1.107 1.918,1.107c0.389,0 0.772,-0.103 1.109,-0.298c1.051,-0.608 1.416,-1.972 0.809,-3.024c-0.404,-0.701 -1.161,-1.127 -1.97,-1.109Zm-14.882,0.944c-0.274,0.007 -0.542,0.083 -0.779,0.22c-0.775,0.449 -1.044,1.455 -0.596,2.23c0.448,0.776 1.454,1.046 2.23,0.599c0.775,-0.448 1.046,-1.454 0.599,-2.23c-0.298,-0.518 -0.857,-0.833 -1.454,-0.819Zm6.863,0.397c-0.322,0.008 -0.637,0.096 -0.916,0.257c-0.914,0.527 -1.232,1.713 -0.706,2.627c0.343,0.596 0.98,0.964 1.668,0.964c0.338,0 0.67,-0.089 0.962,-0.258c0.595,-0.344 0.962,-0.98 0.962,-1.666c0,-0.339 -0.089,-0.672 -0.259,-0.964c-0.352,-0.608 -1.009,-0.976 -1.711,-0.96Zm14.07,0.981c-0.433,0.011 -0.856,0.131 -1.231,0.348c-1.228,0.71 -1.656,2.305 -0.947,3.534c0.711,1.229 2.305,1.656 3.535,0.947c1.228,-0.71 1.656,-2.305 0.947,-3.534c-0.473,-0.819 -1.358,-1.317 -2.304,-1.295Zm-17.796,2.034c-0.322,0.008 -0.638,0.096 -0.917,0.257c-0.914,0.527 -1.232,1.713 -0.705,2.627c0.343,0.596 0.98,0.964 1.667,0.964c0.338,0 0.67,-0.089 0.963,-0.258c0.594,-0.344 0.961,-0.98 0.961,-1.666c0,-0.339 -0.089,-0.672 -0.259,-0.964c-0.351,-0.608 -1.009,-0.976 -1.71,-0.96Zm8.241,0.126c-0.37,0.009 -0.733,0.111 -1.054,0.296c-1.052,0.607 -1.418,1.972 -0.812,3.024c0.395,0.686 1.128,1.11 1.919,1.11c0.389,0 0.771,-0.103 1.108,-0.297c0.684,-0.396 1.107,-1.128 1.107,-1.918c0,-0.39 -0.102,-0.772 -0.297,-1.11c-0.405,-0.7 -1.162,-1.125 -1.971,-1.105Z" style="fill:#fff;fill-rule:nonzero;"/><defs><linearGradient id="_Linear1" x1="0" y1="0" x2="1" y2="0" gradientUnits="userSpaceOnUse" gradientTransform="matrix(0,-56,-56,0,32,60)"><stop offset="0" style="stop-color:#181818;stop-opacity:1"/><stop offset="1" style="stop-color:#4f4f4f;stop-opacity:1"/></linearGradient></defs></svg>