<svg style="clip-rule:evenodd;fill-rule:evenodd;stroke-linejoin:round;stroke-miterlimit:2" version="1.1" viewBox="0 0 48 48" xmlns="http://www.w3.org/2000/svg">
 <path d="m45.668 8.56c0-3.438-2.79-6.228-6.228-6.228h-30.88c-3.438 0-6.228 2.79-6.228 6.228v30.88c0 3.438 2.79 6.228 6.228 6.228h30.88c3.438 0 6.228-2.79 6.228-6.228v-30.88z" style="fill:url(#_Linear1)"/>
 <path d="m24.001 7.557c-4.483 0-8.604 0.966-11.612 2.923-3.008 1.958-4.898 4.924-4.895 8.866 0.02 4.455 2.907 10.204 6.39 14.901 1.742 2.349 3.633 4.435 5.404 5.954 1.771 1.521 3.409 2.486 4.701 2.568h0.022c1.292-0.082 2.93-1.047 4.701-2.568 1.771-1.519 3.662-3.605 5.404-5.954 3.483-4.697 6.368-10.446 6.39-14.901 1e-3 -3.942-1.887-6.908-4.895-8.866-3.008-1.957-7.129-2.923-11.612-2.923h2e-3z" style="fill-opacity:.84;fill:#fff"/>
 <path d="m30.034 17.331c-1.106-1.641-1.753-2.258-4.556-2.496h-5e-3c-0.207-0.024-0.405-0.036-0.59-0.036-1.412 0-1.914 0.708-1.914 1.313v10.54c-0.556-0.167-1.151-0.215-1.741-0.142-1.025 0.129-1.944 0.612-2.587 1.357-0.642 0.745-0.933 1.664-0.816 2.588 0.216 1.716 1.823 3.01 3.736 3.01 0.179 0 0.361-0.016 0.541-0.034 1.983-0.251 3.422-1.823 3.422-3.74v-10.342c0.15-0.016 0.297-0.016 0.444-0.016 1.018 0 2.02 0.397 3.313 1.781 0.532 0.571 0.907 1.137 1.126 1.514 0.054 0.092 0.16 0.141 0.264 0.123 0.106-0.019 0.189-0.101 0.207-0.207 0.213-1.164 0.386-3.39-0.844-5.213z" style="fill-rule:nonzero;fill:#ff4d00"/>
 <defs>
  <linearGradient id="_Linear1" x2="1" gradientTransform="matrix(2.55875e-15,-41.7875,41.7875,2.55875e-15,87.1665,44.6473)" gradientUnits="userSpaceOnUse">
   <stop style="stop-color:#004392" offset="0"/>
   <stop style="stop-color:#5ea5fb" offset="1"/>
  </linearGradient>
 </defs>
</svg>
