<svg style="clip-rule:evenodd;fill-rule:evenodd;stroke-linejoin:round;stroke-miterlimit:2" version="1.1" viewBox="0 0 256 256" xmlns="http://www.w3.org/2000/svg">
 <path d="m244.472 40.844c0-16.18-13.136-29.316-29.316-29.316h-174.312c-16.18 0-29.316 13.136-29.316 29.316v174.312c0 16.18 13.136 29.316 29.316 29.316h174.312c16.18 0 29.316-13.136 29.316-29.316v-174.312z" style="fill:url(#_Linear1)"/>
 <path d="m144.414 67.398v108.601c0 2.909 0.277 5.223 0.832 6.942s1.336 3.042 2.343 3.967c1.006 0.927 2.168 1.538 3.487 1.835 1.318 0.297 2.74 0.446 4.267 0.446h8.951v10.811h-73.588v-10.811h8.951c1.597 0 3.054-0.149 4.371-0.446 1.319-0.297 2.464-0.908 3.435-1.835 0.972-0.925 1.736-2.248 2.291-3.967s0.832-4.033 0.832-6.942v-108.601h-17.07c-3.192 0-5.863 0.331-8.014 0.992-2.152 0.661-3.904 1.603-5.257 2.826s-2.36 2.728-3.019 4.513-1.128 3.801-1.405 6.049l-1.456 12.596h-14.365l1.145-39.374h132.814l1.041 39.374h-14.26l-1.561-12.596c-0.277-2.248-0.746-4.264-1.405-6.049s-1.666-3.29-3.019-4.513-3.105-2.165-5.257-2.826c-2.151-0.661-4.822-0.992-8.014-0.992h-17.07z" style="fill-rule:nonzero;fill:url(#_Linear2)"/>
 <defs>
  <linearGradient id="_Linear1" x2="1" gradientTransform="matrix(4.45217,-232.388,232.388,4.45217,131.498,243.916)" gradientUnits="userSpaceOnUse">
   <stop style="stop-color:#bababa" offset="0"/>
   <stop style="stop-color:#ebebeb" offset="1"/>
  </linearGradient>
  <linearGradient id="_Linear2" x2="1" gradientTransform="matrix(-.5 -145.213 145.213 -.5 128 200.213)" gradientUnits="userSpaceOnUse">
   <stop style="stop-color:#252525" offset="0"/>
   <stop style="stop-color:#333" offset="1"/>
  </linearGradient>
 </defs>
</svg>
