<svg clip-rule="evenodd" fill-rule="evenodd" stroke-linejoin="round" stroke-miterlimit="2" viewBox="0 0 48 48" xmlns="http://www.w3.org/2000/svg">
 <linearGradient id="a" x2="1" gradientTransform="matrix(-45.1355 0 0 -45.1355 46.5625 -292.264)" gradientUnits="userSpaceOnUse">
  <stop stop-color="#e76d00" offset="0"/>
  <stop stop-color="#ffab66" offset="1"/>
 </linearGradient>
 <path d="m39.44 2.332c3.438 0 6.228 2.79 6.228 6.228v30.88c0 3.438-2.79 6.228-6.228 6.228h-30.88c-3.438 0-6.228-2.79-6.228-6.228v-30.88c0-3.438 2.79-6.228 6.228-6.228z" fill="url(#a)"/>
 <path d="m8.56 2.332h15.44v43.336h-15.44c-3.438 0-6.228-2.79-6.228-6.228v-30.88c0-3.438 2.79-6.228 6.228-6.228z" fill="#686868" fill-opacity=".19"/>
 <path d="m32.278 12.408c-.111-.026-.221-.043-.332-.054-.735-.072-1.477.218-1.983.83-.808.978-.666 2.42.314 3.231.98.808 2.422.678 3.231-.304.809-.976.688-2.441-.293-3.249-.274-.229-.604-.376-.937-.454zm-6.359 1.399c-1.569-.264-3.098-.142-4.523.289l1.095 3.112c.915-.254 1.886-.33 2.882-.162 3.465.585 5.878 3.72 5.605 7.162l3.223.504c.261-2.527-.452-4.96-1.851-6.895-.92.18-1.892-.036-2.669-.681-.778-.643-1.181-1.568-1.176-2.507-.802-.373-1.674-.668-2.586-.822zm-5.742.741c-2.212.992-4.019 2.78-5.036 5.052.622.706.906 1.655.736 2.655-.167.994-.751 1.829-1.571 2.295.212 2.48 1.333 4.754 3.098 6.417l2.133-2.515c-1.502-1.487-2.277-3.657-1.899-5.9.38-2.246 1.824-4.036 3.731-4.947zm-7.098 4.907c-1.254-.213-2.434.626-2.645 1.881-.211 1.25.626 2.433 1.881 2.646 1.256.213 2.446-.629 2.658-1.879.212-1.255-.636-2.437-1.894-2.648zm17.698 5.935c-.87 3.336-4.18 5.511-7.646 4.926-.997-.169-1.888-.55-2.67-1.091l-2.054 2.559c1.206.878 2.613 1.484 4.181 1.748.911.155 1.829.184 2.709.092.302-.888.986-1.625 1.932-1.979.948-.351 1.936-.236 2.745.24 1.957-1.37 3.43-3.429 4.013-5.904zm-2.203 6.987c-.333-.027-.682.027-1.018.152-1.191.438-1.799 1.751-1.355 2.939.442 1.194 1.777 1.795 2.968 1.354 1.193-.442 1.784-1.763 1.339-2.955-.277-.744-.89-1.261-1.61-1.435-.107-.027-.212-.045-.324-.055z" fill="#f9f9f9" fill-rule="nonzero"/>
</svg>
