<svg clip-rule="evenodd" fill-rule="evenodd" stroke-linejoin="round" stroke-miterlimit="2" viewBox="0 0 48 48" xmlns="http://www.w3.org/2000/svg">
 <linearGradient id="a" x2="1" gradientTransform="matrix(0 -43.3373 43.3373 0 201.9 45.6687)" gradientUnits="userSpaceOnUse">
  <stop stop-color="#a5143d" offset="0"/>
  <stop stop-color="#eb6a8f" offset="1"/>
 </linearGradient>
 <linearGradient id="b" x2="1" gradientTransform="matrix(.470372 -27.2793 27.2793 .470372 282.739 41.2475)" gradientUnits="userSpaceOnUse">
  <stop stop-color="#97a9b1" offset="0"/>
  <stop stop-color="#cfdce1" offset="1"/>
 </linearGradient>
 <path d="m45.668 8.56c0-3.438-2.79-6.228-6.228-6.228h-30.88c-3.438 0-6.228 2.79-6.228 6.228v30.88c0 3.438 2.79 6.228 6.228 6.228h30.88c3.438 0 6.228-2.79 6.228-6.228z" fill="url(#a)"/>
 <path d="m24.056 9.5c-.525-.001-1.053.026-1.578.084-.406.045-.705.394-.691.801.046 1.298-.725 2.499-1.918 2.988-1.145.468-2.632.125-3.465-.791-.275-.302-.736-.338-1.057-.088-.839.658-1.602 1.413-2.265 2.24-.259.322-.22.786.084 1.063.974.882 1.289 2.287.783 3.494-.483 1.151-1.679 1.893-3.047 1.893-.444-.015-.76.283-.808.687-.124 1.052-.124 2.123-.006 3.184.044.395.517.689.918.689 1.219-.031 2.388.723 2.879 1.918.489 1.193.174 2.583-.783 3.461-.3.275-.335.735-.082 1.055.65.828 1.397 1.582 2.215 2.24.32.258.786.224 1.064-.082.838-.927 2.337-1.269 3.49-.785 1.209.505 1.969 1.727 1.895 3.039-.024.412.278.769.687.816.535.063 1.072.094 1.612.094.512 0 1.026-.029 1.539-.086.406-.045.705-.393.691-.801-.047-1.297.724-2.498 1.916-2.986 1.152-.471 2.634-.124 3.467.791.277.301.734.335 1.057.086.837-.657 1.599-1.409 2.265-2.238.259-.321.222-.788-.084-1.065-.974-.882-1.291-2.286-.785-3.492.476-1.136 1.628-1.899 2.865-1.899l.174.006c.402.033.77-.278.819-.688.123-1.052.124-2.123.005-3.183h.002c-.044-.394-.503-.688-.9-.688-1.283 0-2.423-.755-2.901-1.92-.487-1.193-.173-2.583.784-3.46.301-.276.338-.737.086-1.057-.657-.834-1.404-1.588-2.219-2.24-.319-.256-.788-.219-1.065.088-.834.924-2.334 1.266-3.492.783-1.205-.507-1.965-1.728-1.89-3.039.024-.412-.277-.771-.688-.819-.523-.06-1.047-.092-1.572-.093zm3.051 7.775c.171.011.345.058.5.147.55.317.732 1.03.414 1.578-.317.552-1.018.735-1.568.418-.551-.318-.741-1.016-.424-1.566.199-.345.54-.549.908-.575.056-.004.113-.006.17-.002zm-3.019 1.221c.462 0 .918.073 1.343.19.076.463.351.884.788 1.136.436.254.934.28 1.373.116.851.837 1.407 1.976 1.488 3.244l-1.633.021c-.151-1.72-1.602-3.066-3.359-3.066-.505 0-.978.119-1.408.32l-.799-1.443c.667-.331 1.411-.518 2.207-.518zm-2.77.842.842 1.408c-.865.608-1.428 1.611-1.428 2.75 0 1.138.563 2.142 1.428 2.75l-.842 1.418c-1.007-.673-1.751-1.699-2.062-2.904.365-.298.584-.76.584-1.264 0-.508-.219-.949-.584-1.246.311-1.205 1.055-2.239 2.062-2.912zm-3.092 3.012c.638 0 1.155.51 1.155 1.146 0 .634-.517 1.149-1.155 1.149-.636 0-1.146-.515-1.146-1.149 0-.636.51-1.146 1.146-1.146zm9.221 1.451 1.633.025c-.082 1.269-.637 2.406-1.488 3.244-.439-.166-.936-.141-1.373.112-.438.253-.712.673-.788 1.136-.425.118-.881.18-1.343.18-.796 0-1.54-.182-2.207-.514l.799-1.431c.43.201.902.314 1.408.314 1.758 0 3.208-1.349 3.359-3.066zm-.504 3.629c.056-.006.109-.006.164 0 .369.026.716.23.914.574.318.55.137 1.251-.414 1.568-.55.317-1.26.132-1.578-.42-.317-.549-.127-1.246.424-1.562.155-.09.324-.146.49-.16z" fill="url(#b)"/>
</svg>
