<svg style="clip-rule:evenodd;fill-rule:evenodd;stroke-linejoin:round;stroke-miterlimit:1.41421" version="1.1" viewBox="0 0 48 48" xmlns="http://www.w3.org/2000/svg">
 <path d="m46 10.549c0-2.899-2.354-5.254-5.254-5.254h-33.492c-2.9 0-5.254 2.355-5.254 5.254v27.902c0 2.9 2.354 5.254 5.254 5.254h33.492c2.9 0 5.254-2.354 5.254-5.254v-27.902z" style="fill-opacity:.67"/>
 <path d="m46 9.273c0-2.748-2.23-4.978-4.978-4.978h-34.045c-2.747 0-4.977 2.23-4.977 4.978v28.454c0 2.747 2.23 4.978 4.977 4.978h34.045c2.748 0 4.978-2.231 4.978-4.978v-28.454z" style="fill:url(#_Linear1)"/>
 <path d="m24.056 9.5c-0.525-1e-3 -1.053 0.026-1.578 0.084-0.406 0.045-0.705 0.394-0.691 0.801 0.046 1.298-0.725 2.499-1.918 2.988-1.095 0.447-2.502 0.151-3.352-0.678l-0.113-0.113-0.025-0.025c-0.278-0.278-0.72-0.305-1.031-0.063-0.84 0.658-1.603 1.413-2.266 2.24-0.251 0.312-0.222 0.758 0.057 1.037l0.027 0.026 0.137 0.137 0.011 0.013c0.854 0.886 1.114 2.202 0.635 3.344-0.483 1.151-1.679 1.893-3.047 1.893-0.444-0.015-0.76 0.283-0.808 0.687-0.124 1.052-0.124 2.123-6e-3 3.184 0.016 0.146 0.092 0.279 0.201 0.388l3.789 3.789c-0.094 0.71-0.425 1.386-0.976 1.891-0.3 0.275-0.335 0.735-0.082 1.055 0.341 0.434 0.707 0.848 1.097 1.238l9.289 9.289h19.938c1.472 0 2.656-1.184 2.656-2.656v-14.35l-12.113-12.113c-0.357-0.357-0.732-0.693-1.123-1.006-0.319-0.256-0.788-0.218-1.065 0.088-0.458 0.507-1.118 0.831-1.81 0.947l-3.799-3.799c-0.12-0.12-0.28-0.201-0.461-0.222-0.523-0.061-1.047-0.093-1.572-0.094h-1e-3z" style="fill-opacity:.07"/>
 <path d="m24.056 9.5c-0.525-1e-3 -1.053 0.026-1.578 0.084-0.406 0.045-0.705 0.394-0.691 0.801 0.046 1.298-0.725 2.499-1.918 2.988-1.145 0.468-2.632 0.125-3.465-0.791-0.275-0.302-0.736-0.338-1.057-0.088-0.839 0.658-1.602 1.413-2.265 2.24-0.259 0.322-0.22 0.786 0.084 1.063 0.974 0.882 1.289 2.287 0.783 3.494-0.483 1.151-1.679 1.893-3.047 1.893-0.444-0.015-0.76 0.283-0.808 0.687-0.124 1.052-0.124 2.123-6e-3 3.184 0.044 0.395 0.517 0.689 0.918 0.689 1.219-0.031 2.388 0.723 2.879 1.918 0.489 1.193 0.174 2.583-0.783 3.461-0.3 0.275-0.335 0.735-0.082 1.055 0.65 0.828 1.397 1.582 2.215 2.24 0.32 0.258 0.786 0.224 1.064-0.082 0.838-0.927 2.337-1.269 3.49-0.785 1.209 0.505 1.969 1.727 1.895 3.039-0.024 0.412 0.278 0.769 0.687 0.816 0.535 0.063 1.072 0.094 1.612 0.094 0.512 0 1.026-0.029 1.539-0.086 0.406-0.045 0.705-0.393 0.691-0.801-0.047-1.297 0.724-2.498 1.916-2.986 1.152-0.471 2.634-0.124 3.467 0.791 0.277 0.301 0.734 0.335 1.057 0.086 0.837-0.657 1.599-1.409 2.265-2.238 0.259-0.321 0.222-0.788-0.084-1.065-0.974-0.882-1.291-2.286-0.785-3.492 0.476-1.136 1.628-1.899 2.865-1.899l0.174 6e-3c0.402 0.033 0.77-0.278 0.819-0.688 0.123-1.052 0.124-2.123 5e-3 -3.183h2e-3c-0.044-0.394-0.503-0.688-0.9-0.688-1.283 0-2.423-0.755-2.901-1.92-0.487-1.193-0.173-2.583 0.784-3.46 0.301-0.276 0.338-0.737 0.086-1.057-0.657-0.834-1.404-1.588-2.219-2.24-0.319-0.256-0.788-0.219-1.065 0.088-0.834 0.924-2.334 1.266-3.492 0.783-1.205-0.507-1.965-1.728-1.89-3.039 0.024-0.412-0.277-0.771-0.688-0.819-0.523-0.06-1.047-0.092-1.572-0.093h-1e-3zm3.051 7.775c0.171 0.011 0.345 0.058 0.5 0.147 0.55 0.317 0.732 1.03 0.414 1.578-0.317 0.552-1.018 0.735-1.568 0.418-0.551-0.318-0.741-1.016-0.424-1.566 0.199-0.345 0.54-0.549 0.908-0.575 0.056-4e-3 0.113-6e-3 0.17-2e-3zm-3.019 1.221c0.462 0 0.918 0.073 1.343 0.19 0.076 0.463 0.351 0.884 0.788 1.136 0.436 0.254 0.934 0.28 1.373 0.116 0.851 0.837 1.407 1.976 1.488 3.244l-1.633 0.021c-0.151-1.72-1.602-3.066-3.359-3.066-0.505 0-0.978 0.119-1.408 0.32l-0.799-1.443c0.667-0.331 1.411-0.518 2.207-0.518zm-2.77 0.842l0.842 1.408c-0.865 0.608-1.428 1.611-1.428 2.75 0 1.138 0.563 2.142 1.428 2.75l-0.842 1.418c-1.007-0.673-1.751-1.699-2.062-2.904 0.365-0.298 0.584-0.76 0.584-1.264 0-0.508-0.219-0.949-0.584-1.246 0.311-1.205 1.055-2.239 2.062-2.912zm-3.092 3.012c0.638 0 1.155 0.51 1.155 1.146 0 0.634-0.517 1.149-1.155 1.149-0.636 0-1.146-0.515-1.146-1.149 0-0.636 0.51-1.146 1.146-1.146zm9.221 1.451l1.633 0.025c-0.082 1.269-0.637 2.406-1.488 3.244-0.439-0.166-0.936-0.141-1.373 0.112-0.438 0.253-0.712 0.673-0.788 1.136-0.425 0.118-0.881 0.18-1.343 0.18-0.796 0-1.54-0.182-2.207-0.514l0.799-1.431c0.43 0.201 0.902 0.314 1.408 0.314 1.758 0 3.208-1.349 3.359-3.066zm-0.504 3.629c0.056-6e-3 0.109-6e-3 0.164 0 0.369 0.026 0.716 0.23 0.914 0.574 0.318 0.55 0.137 1.251-0.414 1.568-0.55 0.317-1.26 0.132-1.578-0.42-0.317-0.549-0.127-1.246 0.424-1.562 0.155-0.09 0.324-0.146 0.49-0.16z" style="fill:url(#_Linear2)"/>
 <defs>
  <linearGradient id="_Linear1" x2="1" gradientTransform="matrix(2.44014e-15,-39.8505,39.8505,2.44014e-15,25.8739,44.3257)" gradientUnits="userSpaceOnUse">
   <stop style="stop-color:#d71e53" offset="0"/>
   <stop style="stop-color:#ff7099" offset="1"/>
  </linearGradient>
  <linearGradient id="_Linear2" x2="1" gradientTransform="matrix(.470372 -27.2793 27.2793 .470372 23.586 36.779)" gradientUnits="userSpaceOnUse">
   <stop style="stop-color:#97a9b1" offset="0"/>
   <stop style="stop-color:#cfdce1" offset="1"/>
  </linearGradient>
 </defs>
</svg>
