<svg style="clip-rule:evenodd;fill-rule:evenodd;stroke-linejoin:round;stroke-miterlimit:2" version="1.1" viewBox="0 0 48 48" xmlns="http://www.w3.org/2000/svg">
 <circle cx="24" cy="24" r="22.764" style="fill:url(#_Linear1)"/>
 <path d="m35.147 27.932h-22.294c-0.459 0-0.884-0.244-1.114-0.643-0.23-0.398-0.23-0.889 0-1.287l11.147-13.358c0.229-0.399 0.654-0.644 1.114-0.644 0.459 0 0.885 0.245 1.114 0.644l11.148 13.358c0.114 0.199 0.172 0.421 0.172 0.644 0 0.222-0.058 0.444-0.172 0.644-0.231 0.398-0.656 0.642-1.115 0.642zm1.274 7.553v-4.247c0-0.284-0.231-0.515-0.516-0.515h-23.811c-0.284 0-0.515 0.231-0.515 0.515v4.247c0 0.285 0.231 0.515 0.515 0.515h23.811c0.285 0 0.516-0.23 0.516-0.515z" style="fill-opacity:.85;fill-rule:nonzero;fill:#fff"/>
 <defs>
  <linearGradient id="_Linear1" x2="1" gradientTransform="matrix(2.78782e-15,-45.5286,45.5286,2.78782e-15,210.895,46.7643)" gradientUnits="userSpaceOnUse">
   <stop style="stop-color:#0a80fd" offset="0"/>
   <stop style="stop-color:#56c5fa" offset="1"/>
  </linearGradient>
 </defs>
</svg>
