<svg style="clip-rule:evenodd;fill-rule:evenodd;stroke-linejoin:round;stroke-miterlimit:2" version="1.1" viewBox="0 0 48 48" xmlns="http://www.w3.org/2000/svg">
 <path d="m39.44 2.332c3.438 0 6.228 2.79 6.228 6.228v30.88c0 3.438-2.79 6.228-6.228 6.228h-30.88c-3.438 0-6.228-2.79-6.228-6.228v-30.88c0-3.438 2.79-6.228 6.228-6.228h30.88z" style="fill:url(#_Linear1)"/>
 <path d="m2.332 9.588v-1.028c0-3.438 2.79-6.228 6.228-6.228h30.88c3.438 0 6.228 2.79 6.228 6.228v1.028h-43.336z" style="fill-opacity:.1;fill:#ebebeb"/>
 <path d="m33.214 7.159h-0.069c-0.066 0-0.118-0.054-0.118-0.119v-0.2c-0.283-0.071-0.363-0.239-0.363-0.583 0-0.507 0.412-0.92 0.919-0.92s0.919 0.413 0.919 0.92c0 0.339-0.085 0.506-0.361 0.579v0.203c0 0.066-0.054 0.119-0.119 0.119h-0.069c-0.066 0-0.12-0.053-0.12-0.119v-0.159c-0.031 2e-3 -0.062 3e-3 -0.096 4e-3v0.156c0 0.065-0.053 0.118-0.119 0.118h-0.069c-0.066 0-0.119-0.053-0.119-0.118v-0.155c-0.034-1e-3 -0.066-2e-3 -0.097-4e-3v0.159c0 0.065-0.053 0.119-0.119 0.119zm-0.012-1.276c0.156 0.061 0.282 0.123 0.282 0.274s-0.102 0.18-0.282 0.273c-0.138 0.073-0.283-0.122-0.283-0.273s0.137-0.33 0.283-0.274zm0.759 0c0.15-0.042 0.282 0.123 0.282 0.274s-0.149 0.354-0.282 0.273c-0.165-0.097-0.283-0.122-0.283-0.273s0.11-0.225 0.283-0.274z" style="fill-opacity:.5;fill:#ededed"/>
 <path d="m41.249 5.55 0.33 0.349 0.523-0.495 0.417 0.441-0.521 0.494 0.33 0.35c0.113 0.118 0.111 0.302-2e-3 0.409-0.114 0.108-0.298 0.1-0.409-0.019l-0.332-0.349-0.523 0.496-0.418-0.44 0.524-0.471-0.331-0.376c-0.113-0.118-0.11-0.302 3e-3 -0.409 0.113-0.108 0.297-0.099 0.409 0.02z" style="fill-opacity:.5;fill:#fff"/>
 <path d="m37.356 5.471 3e-3 -0.134 0.48 0.013-5e-3 0.134 0.26 7e-3c0.248 7e-3 0.445 0.215 0.437 0.463l-0.024 0.9c-6e-3 0.249-0.213 0.446-0.462 0.439l-0.996-0.027c-0.249-6e-3 -0.445-0.214-0.438-0.462l0.023-0.901c7e-3 -0.249 0.215-0.445 0.464-0.439l0.258 7e-3zm-0.144 0.392c0.129 3e-3 0.231 0.111 0.227 0.24-2e-3 0.129-0.111 0.231-0.239 0.228-0.129-3e-3 -0.232-0.112-0.228-0.24 3e-3 -0.129 0.111-0.231 0.24-0.228zm0.798 0.021c0.129 4e-3 0.231 0.111 0.227 0.241-3e-3 0.129-0.11 0.231-0.24 0.227-0.129-3e-3 -0.231-0.11-0.228-0.24 4e-3 -0.129 0.112-0.231 0.241-0.228z" style="fill-opacity:.5;fill:#fff"/>
 <path id="path16" d="m14.928 19.362 2.77-7e-3 2.984 5.794 3.682 0.058 4.475 5.88 1.502 1e-3 2.944-2.503 2.458 0.08 2.521 7.616 1.304 0.041 2.109-1.413 1.693-0.15 1.101-0.894 1.197-0.012v5.587c0 3.438-2.79 6.228-6.228 6.228h-30.88c-3.438 0-6.228-2.79-6.228-6.228v-8.707l0.614-0.018 2.461-2.91 2.263-0.067 3.037-5.484 2.383-0.152 1.838-2.74z" style="fill:url(#_Linear2)"/>
 <defs>
  <linearGradient id="_Linear1" x2="1" gradientTransform="matrix(2.21762e-15,-36.2165,36.2165,2.21762e-15,275.714,42.119)" gradientUnits="userSpaceOnUse">
   <stop style="stop-color:#313738" offset="0"/>
   <stop style="stop-color:#535552" offset="1"/>
  </linearGradient>
  <linearGradient id="_Linear2" x2="1" gradientTransform="matrix(-.115663 -17.2337 17.2337 -.115663 821.277 37.3519)" gradientUnits="userSpaceOnUse">
   <stop style="stop-color:#00bf7e;stop-opacity:.99" offset="0"/>
   <stop style="stop-color:#00ffa9;stop-opacity:.99" offset="1"/>
  </linearGradient>
 </defs>
</svg>
