<!DOCTYPE svg  PUBLIC '-//W3C//DTD SVG 1.1//EN'  'http://www.w3.org/Graphics/SVG/1.1/DTD/svg11.dtd'>
<svg style="clip-rule:evenodd;fill-rule:evenodd;stroke-linejoin:round;stroke-miterlimit:1.41421" version="1.1" viewBox="0 0 48 48" xmlns="http://www.w3.org/2000/svg">
 <g transform="translate(-333.186 -506.308)">
  <path d="m379.186 516.365c0-1.191-0.966-2.157-2.158-2.157h-39.684c-1.192 0-2.158 0.966-2.158 2.157v28.886c0 1.192 0.966 2.158 2.158 2.158h39.684c1.192 0 2.158-0.966 2.158-2.158v-28.886z" style="fill-opacity:.666667"/>
  <path d="m379.186 516.195c0-1.65-1.338-2.988-2.988-2.988h-38.024c-1.65 0-2.988 1.338-2.988 2.988v27.226c0 1.65 1.338 2.988 2.988 2.988h38.024c1.65 0 2.988-1.338 2.988-2.988v-27.226z" style="fill:url(#_Linear1)"/>
 </g>
 <g transform="matrix(.8364 0 0 .8364 -317.311 -414.991)">
  <circle cx="395.071" cy="533.298" r="3.5" style="fill:rgb(239,240,241)"/>
  <circle cx="395.071" cy="533.298" r="2.5" style="fill:rgb(61,174,253)"/>
  <circle cx="395.071" cy="524.298" r="3.5" style="fill:rgb(239,240,241)"/>
  <circle cx="395.071" cy="524.298" r="2.5" style="fill:rgb(61,174,253)"/>
  <rect x="399.571" y="513.798" width="2" height="1" style="fill-rule:nonzero;fill:rgb(218,68,83)"/>
  <rect x="402.571" y="513.798" width="3" height="1" style="fill-rule:nonzero;fill:rgb(218,68,83)"/>
  <rect x="408.571" y="513.798" width="3" height="1" style="fill-rule:nonzero;fill:rgb(229,253,255)"/>
  <rect x="413.571" y="513.798" width="6" height="1" style="fill-rule:nonzero;fill:rgb(229,253,255)"/>
  <rect x="420.571" y="513.798" width="4" height="1" style="fill-rule:nonzero;fill:rgb(229,253,255)"/>
  <rect x="399.571" y="515.798" width="4" height="1" style="fill-rule:nonzero;fill:rgb(189,195,199)"/>
  <rect x="404.571" y="515.798" width="2" height="1" style="fill-rule:nonzero;fill:rgb(189,195,199)"/>
  <rect x="408.571" y="515.798" width="8" height="1" style="fill-rule:nonzero;fill:rgb(229,253,255)"/>
  <rect x="399.571" y="522.798" width="2" height="1" style="fill-rule:nonzero;fill:rgb(61,174,253)"/>
  <rect x="402.571" y="522.798" width="3" height="1" style="fill-rule:nonzero;fill:rgb(61,174,253)"/>
  <rect x="408.571" y="522.798" width="4" height="1" style="fill-rule:nonzero;fill:rgb(229,253,255)"/>
  <rect x="414.571" y="522.798" width="4" height="1" style="fill-rule:nonzero;fill:rgb(229,253,255)"/>
  <rect x="419.571" y="522.798" width="5" height="1" style="fill-rule:nonzero;fill:rgb(229,253,255)"/>
  <rect x="399.571" y="524.798" width="3" height="1" style="fill-rule:nonzero;fill:rgb(189,195,199)"/>
  <rect x="408.571" y="524.798" width="3" height="1" style="fill-rule:nonzero;fill:rgb(229,253,255)"/>
  <rect x="412.571" y="524.798" width="1" height="1" style="fill-rule:nonzero;fill:rgb(229,253,255)"/>
  <rect x="414.571" y="524.798" width="5" height="1" style="fill-rule:nonzero;fill:rgb(229,253,255)"/>
  <g transform="scale(-1 1)">
   <rect x="-419.571" y="533.798" width="2" height="1" style="fill-rule:nonzero;fill:rgb(229,253,255)"/>
   <rect x="-416.571" y="533.798" width="8" height="1" style="fill-rule:nonzero;fill:rgb(229,253,255)"/>
   <rect x="-406.571" y="533.798" width="7" height="1" style="fill-rule:nonzero;fill:rgb(189,195,199)"/>
   <rect x="-424.571" y="531.798" width="2" height="1" style="fill-rule:nonzero;fill:rgb(229,253,255)"/>
   <rect x="-421.571" y="531.798" width="3" height="1" style="fill-rule:nonzero;fill:rgb(229,253,255)"/>
   <rect x="-417.571" y="531.798" width="9" height="1" style="fill-rule:nonzero;fill:rgb(229,253,255)"/>
   <rect x="-404.571" y="531.798" width="5" height="1" style="fill-rule:nonzero;fill:rgb(61,174,253)"/>
  </g>
  <path d="m395.072 511.721l-3.501 1.467s0.417 1.902 0.867 3.003c0.226 0.551 0.501 1.122 0.889 1.618 0.389 0.495 0.965 0.99 1.745 0.99s1.354-0.495 1.743-0.99c0.389-0.496 0.664-1.067 0.889-1.618 0.451-1.101 0.869-3.003 0.869-3.003l-3.501-1.467z" style="fill:rgb(239,240,241)"/>
  <path d="m392.571 513.798l2.5-1 2.5 1s-0.927 4-2.5 4c-1.572 0-2.5-4-2.5-4z" style="fill:rgb(218,68,83)"/>
 </g>
 <defs>
  <linearGradient id="_Linear1" x2="1" gradientTransform="matrix(2.09279e-15,-34.1778,34.1778,2.09279e-15,358.186,547.385)" gradientUnits="userSpaceOnUse">
   <stop style="stop-color:rgb(46,52,54)" offset="0"/>
   <stop style="stop-color:rgb(85,87,83)" offset="1"/>
  </linearGradient>
 </defs>
</svg>
