<svg style="clip-rule:evenodd;fill-rule:evenodd;stroke-linejoin:round;stroke-miterlimit:2" version="1.1" viewBox="0 0 48 48" xmlns="http://www.w3.org/2000/svg">
 <g transform="scale(.75)">
  <rect x="23.766" y="43.974" width="16.469" height="14.116" style="fill:url(#_Linear1)"/>
 </g>
 <g transform="scale(.75)">
  <rect x="18.345" y="58.063" width="27.31" height="1.72" style="fill:rgb(97,94,94)"/>
 </g>
 <g transform="scale(.75)">
  <rect x="18.345" y="59.783" width="27.31" height="1.384" style="fill:rgb(94,111,145)"/>
 </g>
 <g transform="scale(.75)">
  <rect x="1.414" y="6.002" width="61.171" height="41.333" style="fill:url(#_Linear2)"/>
 </g>
 <path d="m45.897 5.38v24.332c-0.539 0.332-43.255 0.332-43.794 0v-24.332h43.794z" style="fill:url(#_Linear3)"/>
 <g transform="translate(7.20596 4.4665)">
  <circle cx="9.756" cy="10.719" r="4.207" style="fill:rgb(205,227,254)"/>
 </g>
 <path d="m45.897 20.337v14.113h-43.794v-11.887l3.828 1.921 6.325-0.573 2.192 1.194 1.104-0.329 2.707 2.405 5.286 2.879 3.623-0.986 1.806-1.674 3.553 0.945 2.178-1.322 2.561-3.143 0.785 0.676 5.25-7.351 2.596 3.132z" style="fill:url(#_Linear4)"/>
 <defs>
  <linearGradient id="_Linear1" x2="1" gradientTransform="matrix(6.25629e-16,-10.2173,10.2173,6.25629e-16,1379.89,56.3225)" gradientUnits="userSpaceOnUse">
   <stop style="stop-color:rgb(42,42,42)" offset="0"/>
   <stop style="stop-color:rgb(91,91,91)" offset="1"/>
  </linearGradient>
  <linearGradient id="_Linear2" x2="1" gradientTransform="matrix(.0887097 -41.2337 41.2337 .0887097 774.615 49.0873)" gradientUnits="userSpaceOnUse">
   <stop style="stop-color:rgb(45,45,47)" offset="0"/>
   <stop style="stop-color:rgb(103,103,103)" offset="1"/>
  </linearGradient>
  <linearGradient id="_Linear3" x2="1" gradientTransform="matrix(-.0595533 -35.183 35.183 -.0595533 522.449 40.2431)" gradientUnits="userSpaceOnUse">
   <stop style="stop-color:rgb(240,134,251)" offset="0"/>
   <stop style="stop-color:rgb(67,146,246)" offset="1"/>
  </linearGradient>
  <linearGradient id="_Linear4" x2="1" gradientTransform="matrix(9.35832e-16,-15.2833,15.2833,9.35832e-16,603.614,40.5455)" gradientUnits="userSpaceOnUse">
   <stop style="stop-color:rgb(19,46,81)" offset="0"/>
   <stop style="stop-color:rgb(39,103,185)" offset="1"/>
  </linearGradient>
 </defs>
</svg>
