
<svg style="clip-rule:evenodd;fill-rule:evenodd;stroke-linejoin:round;stroke-miterlimit:1.41421" version="1.1" viewBox="0 0 64 64" xmlns="http://www.w3.org/2000/svg">
 <g transform="matrix(0,-1.05232,-1.05232,0,-1.67435,-1.67435)">
  <path d="m-4-47.397c0-6.956-5.647-12.603-12.603-12.603h-30.794c-6.956 0-12.603 5.647-12.603 12.603v30.794c0 6.956 5.647 12.603 12.603 12.603h30.794c6.956 0 12.603-5.647 12.603-12.603v-30.794z" style="fill:url(#_Linear1)"/>
 </g>
 <path d="m10 14h10l10.538 36.67 0.712 3.33h-9.25l-12-40z" style="fill-rule:nonzero;fill:rgb(0,165,227)"/>
 <path d="m34.688 35.01l-8.238-0.01-4.45 19h9c4.114-17.837 3.689-18.989 3.689-18.989l-1e-3 -1e-3z" style="fill-rule:nonzero;fill:rgb(77,186,194)"/>
 <path d="m32.474 14l-6 21 4.776 19h20.75l-4-10h-9l-3-9 3-11h9l4-10h-19.526z" style="fill-rule:nonzero;fill:url(#_Linear2)"/>
 <defs>
  <linearGradient id="_Linear1" x2="1" gradientTransform="matrix(56,0,0,56,-60,-32)" gradientUnits="userSpaceOnUse">
   <stop style="stop-color:rgb(38,38,38)" offset="0"/>
   <stop style="stop-color:rgb(81,81,81)" offset="1"/>
  </linearGradient>
  <linearGradient id="_Linear2" x2="1" gradientTransform="matrix(.772898 -40 40 .772898 39.2369 54)" gradientUnits="userSpaceOnUse">
   <stop style="stop-color:rgb(0,159,108)" offset="0"/>
   <stop style="stop-color:rgb(0,216,146)" offset="1"/>
  </linearGradient>
 </defs>
</svg>
