<?xml version="1.0" encoding="UTF-8" standalone="no"?><!DOCTYPE svg PUBLIC "-//W3C//DTD SVG 1.1//EN" "http://www.w3.org/Graphics/SVG/1.1/DTD/svg11.dtd"><svg width="100%" height="100%" viewBox="0 0 64 64" version="1.1" xmlns="http://www.w3.org/2000/svg" xmlns:xlink="http://www.w3.org/1999/xlink" xml:space="preserve" xmlns:serif="http://www.serif.com/" style="fill-rule:evenodd;clip-rule:evenodd;stroke-linejoin:round;stroke-miterlimit:1.41421;"><path d="M47.008,4c7.17,0 12.992,5.822 12.992,12.992l0,30.016c0,7.17 -5.822,12.992 -12.992,12.992l-30.016,0c-7.17,0 -12.992,-5.822 -12.992,-12.992l0,-30.016c0,-7.17 5.822,-12.992 12.992,-12.992l30.016,0Z" style="fill:url(#_Linear1);"/><path d="M10.259,22l2.833,12.107l1.841,7.893l4.11,0l1.841,-7.893l0.166,-0.709l2.667,-11.398l-4.109,0l-0.008,0l-2.612,11.195l-2.612,-11.195l-0.008,0l-4.109,0Z" style="fill:#ff513a;fill-rule:nonzero;"/><path d="M24.925,22l-3.922,19.607l-0.078,0.393l4.078,0l2.112,-10.552l2.461,10.552l4.11,0l2.461,-10.552l2.112,10.552l4.078,0l-0.078,-0.393l-3.922,-19.607l-4.094,0l-2.612,11.195l-2.612,-11.195l-4.094,0Z" style="fill:#00af3a;fill-rule:nonzero;"/><path d="M42.925,22l0,20l2,0c0,0 2.416,0.028 4.893,-1.211c2.478,-1.238 5.107,-4.122 5.107,-8.789c0,-4.667 -2.629,-7.551 -5.107,-8.789c-2.477,-1.239 -4.893,-1.211 -4.893,-1.211l-2,0Zm4,4.508c0.484,0.117 0.564,0.01 1.107,0.281c1.523,0.762 2.893,1.878 2.893,5.211c0,3.333 -1.37,4.449 -2.893,5.211c-0.543,0.271 -0.623,0.164 -1.107,0.281l0,-10.984Z" style="fill:#0092eb;fill-rule:nonzero;"/><defs><linearGradient id="_Linear1" x1="0" y1="0" x2="1" y2="0" gradientUnits="userSpaceOnUse" gradientTransform="matrix(0,-56,-56,0,32,60)"><stop offset="0" style="stop-color:#292929;stop-opacity:1"/><stop offset="1" style="stop-color:#5b5b5b;stop-opacity:1"/></linearGradient></defs></svg>