<svg style="clip-rule:evenodd;fill-rule:evenodd;stroke-linejoin:round;stroke-miterlimit:2" version="1.1" viewBox="0 0 48 48" xmlns="http://www.w3.org/2000/svg">
 <path d="m45.668 8.56c0-3.438-2.79-6.228-6.228-6.228h-30.88c-3.438 0-6.228 2.79-6.228 6.228v30.88c0 3.438 2.79 6.228 6.228 6.228h30.88c3.438 0 6.228-2.79 6.228-6.228v-30.88z" style="fill-rule:nonzero;fill:url(#_Linear1)"/>
 <g transform="matrix(.832164 0 0 .982634 4.44414 .253016)">
  <path d="m16 9.638c0-0.169-0.079-0.332-0.221-0.451-0.141-0.12-0.332-0.187-0.532-0.187h-3.494c-0.2 0-0.391 0.067-0.532 0.187-0.142 0.119-0.221 0.282-0.221 0.451v28.724c0 0.169 0.079 0.332 0.221 0.451 0.141 0.12 0.332 0.187 0.532 0.187h3.494c0.2 0 0.391-0.067 0.532-0.187 0.142-0.119 0.221-0.282 0.221-0.451v-28.724zm10 0c0-0.169-0.079-0.332-0.221-0.451-0.141-0.12-0.332-0.187-0.532-0.187h-3.494c-0.2 0-0.391 0.067-0.532 0.187-0.142 0.119-0.221 0.282-0.221 0.451v28.724c0 0.169 0.079 0.332 0.221 0.451 0.141 0.12 0.332 0.187 0.532 0.187h3.494c0.2 0 0.391-0.067 0.532-0.187 0.142-0.119 0.221-0.282 0.221-0.451v-28.724zm10 0c0-0.169-0.079-0.332-0.221-0.451-0.141-0.12-0.332-0.187-0.532-0.187h-3.494c-0.2 0-0.391 0.067-0.532 0.187-0.142 0.119-0.221 0.282-0.221 0.451v28.724c0 0.169 0.079 0.332 0.221 0.451 0.141 0.12 0.332 0.187 0.532 0.187h3.494c0.2 0 0.391-0.067 0.532-0.187 0.142-0.119 0.221-0.282 0.221-0.451v-28.724z" style="fill:rgb(240,240,240)"/>
 </g>
 <g transform="matrix(.832164 0 0 .982634 4.44414 .253016)">
  <path d="m11 9.693c0-0.184-0.086-0.36-0.24-0.49-0.153-0.13-0.361-0.203-0.578-0.203h-3.364c-0.217 0-0.425 0.073-0.578 0.203-0.154 0.13-0.24 0.306-0.24 0.49v28.614c0 0.184 0.086 0.36 0.24 0.49 0.153 0.13 0.361 0.203 0.578 0.203h3.364c0.217 0 0.425-0.073 0.578-0.203 0.154-0.13 0.24-0.306 0.24-0.49v-28.614zm10 0c0-0.184-0.086-0.36-0.24-0.49-0.153-0.13-0.361-0.203-0.578-0.203h-3.364c-0.217 0-0.425 0.073-0.578 0.203-0.154 0.13-0.24 0.306-0.24 0.49v28.614c0 0.184 0.086 0.36 0.24 0.49 0.153 0.13 0.361 0.203 0.578 0.203h3.364c0.217 0 0.425-0.073 0.578-0.203 0.154-0.13 0.24-0.306 0.24-0.49v-28.614zm10 0c0-0.184-0.086-0.36-0.24-0.49-0.153-0.13-0.361-0.203-0.578-0.203h-3.364c-0.217 0-0.425 0.073-0.578 0.203-0.154 0.13-0.24 0.306-0.24 0.49v28.614c0 0.184 0.086 0.36 0.24 0.49 0.153 0.13 0.361 0.203 0.578 0.203h3.364c0.217 0 0.425-0.073 0.578-0.203 0.154-0.13 0.24-0.306 0.24-0.49v-28.614zm10 0c0-0.184-0.086-0.36-0.24-0.49-0.153-0.13-0.361-0.203-0.578-0.203h-3.364c-0.217 0-0.425 0.073-0.578 0.203-0.154 0.13-0.24 0.306-0.24 0.49v28.614c0 0.184 0.086 0.36 0.24 0.49 0.153 0.13 0.361 0.203 0.578 0.203h3.364c0.217 0 0.425-0.073 0.578-0.203 0.154-0.13 0.24-0.306 0.24-0.49v-28.614z" style="fill:rgb(216,216,216)"/>
 </g>
 <g transform="matrix(.832164 0 0 .982634 4.44414 .253016)">
  <path d="m9.99 8c-0.548 0-0.99 0.442-0.99 0.99v16.02c0 0.548 0.442 0.99 0.99 0.99h2.02c0.548 0 0.99-0.442 0.99-0.99v-16.02c0-0.548-0.442-0.99-0.99-0.99h-2.02zm5 0c-0.548 0-0.99 0.442-0.99 0.99v16.02c0 0.548 0.442 0.99 0.99 0.99h2.02c0.548 0 0.99-0.442 0.99-0.99v-16.02c0-0.548-0.442-0.99-0.99-0.99h-2.02zm10 0c-0.548 0-0.99 0.442-0.99 0.99v16.02c0 0.548 0.442 0.99 0.99 0.99h2.02c0.548 0 0.99-0.442 0.99-0.99v-16.02c0-0.548-0.442-0.99-0.99-0.99h-2.02zm5 0c-0.548 0-0.99 0.442-0.99 0.99v16.02c0 0.548 0.442 0.99 0.99 0.99h2.02c0.548 0 0.99-0.442 0.99-0.99v-16.02c0-0.548-0.442-0.99-0.99-0.99h-2.02zm5 0c-0.548 0-0.99 0.442-0.99 0.99v16.02c0 0.548 0.442 0.99 0.99 0.99h2.02c0.548 0 0.99-0.442 0.99-0.99v-16.02c0-0.548-0.442-0.99-0.99-0.99h-2.02z" style="fill-rule:nonzero;fill:rgb(51,51,51)"/>
 </g>
 <defs>
  <linearGradient id="_Linear1" x2="1" gradientTransform="matrix(-.416082 -43.336 43.336 -.416082 24.4161 45.668)" gradientUnits="userSpaceOnUse">
   <stop style="stop-color:rgb(66,66,66)" offset="0"/>
   <stop style="stop-color:rgb(79,79,79)" offset="1"/>
  </linearGradient>
 </defs>
</svg>
