<svg clip-rule="evenodd" fill-rule="evenodd" stroke-linejoin="round" stroke-miterlimit="2" viewBox="0 0 48 48" xmlns="http://www.w3.org/2000/svg">
 <linearGradient id="a" x2="1" gradientTransform="matrix(0 -40 40 0 24 44)" gradientUnits="userSpaceOnUse">
  <stop stop-color="#20763e" offset="0"/>
  <stop stop-color="#489f38" offset="1"/>
 </linearGradient>
 <circle transform="matrix(1.1382 0 0 1.1382 -3.3168 -3.3168)" cx="24" cy="24" r="20" fill="url(#a)"/>
 <path d="m23 32h-9c-1.108 0-2-.892-2-2v-15c0-1.108.892-2 2-2h20c1.108 0 2 .892 2 2v15c0 1.108-.892 2-2 2h-9v3h4c.552 0 1 .448 1 1s-.448 1-1 1h-10c-.552 0-1-.448-1-1s.448-1 1-1h4zm-9-17h20v15h-20zm12 10h-4v3h4zm-6 0h-4v3h4zm12 0h-4v3h4zm-3-4h-4v3h4zm-6 0h-4v3h4zm3-4h-4v3h4z" fill="#fff"/>
</svg>
