<!DOCTYPE svg  PUBLIC '-//W3C//DTD SVG 1.1//EN'  'http://www.w3.org/Graphics/SVG/1.1/DTD/svg11.dtd'>
<svg style="clip-rule:evenodd;fill-rule:evenodd;stroke-linejoin:round;stroke-miterlimit:1.41421" version="1.1" viewBox="0 0 64 64" xmlns="http://www.w3.org/2000/svg">
 <path d="m48.186 4c6.52 0 11.814 5.294 11.814 11.814v32.372c0 6.52-5.294 11.814-11.814 11.814h-32.372c-6.52 0-11.814-5.294-11.814-11.814v-32.372c0-6.52 5.294-11.814 11.814-11.814h32.372z" style="fill:url(#_Linear1)"/>
 <path d="m11.27 16l9.008 29.879c9e-3 0.018 0.018 0.022 0.027 0.039 0.319 1.196 1.403 2.082 2.699 2.082 1.23 0 2.261-0.796 2.637-1.898 8e-3 -0.017 0.028-0.039 0.035-0.055l9.059-30.047h-3.022l-8.709 29.115-8.709-29.115h-3.025zm32.73 0c-3.866 0-7 3.134-7 7v7h3v-3-2-2c0-2.245 1.756-4 4-4 2.245 0 4 1.755 4 4v7h3v-7c0-3.866-3.134-7-7-7zm0 18c-3.866 0-7 3.134-7 7s3.134 7 7 7h7v-3h-3-2-2c-2.244 0-4-1.755-4-4s1.756-4 4-4h7v-3h-7z" style="fill-rule:nonzero;fill:#fff"/>
 <defs>
  <linearGradient id="_Linear1" x2="1" gradientTransform="matrix(0,-56,-56,0,32,60)" gradientUnits="userSpaceOnUse">
   <stop style="stop-color:#014081" offset="0"/>
   <stop style="stop-color:#288cf4" offset="1"/>
  </linearGradient>
 </defs>
</svg>
