<svg style="clip-rule:evenodd;fill-rule:evenodd;stroke-linejoin:round;stroke-miterlimit:2" version="1.1" viewBox="0 0 48 48" xmlns="http://www.w3.org/2000/svg">
 <path d="m46.573 9.09c0-0.544-0.216-1.066-0.601-1.451-0.385-0.386-0.907-0.603-1.451-0.603-7.519-5e-3 -33.5-0.024-41.019-0.029-0.544 0-1.066 0.216-1.451 0.601-0.386 0.384-0.603 0.906-0.603 1.452-4e-3 6.055-0.017 23.794-0.021 29.85 0 0.544 0.216 1.066 0.601 1.451 0.385 0.386 0.907 0.603 1.451 0.603 7.519 5e-3 33.5 0.024 41.019 0.029 0.544 0 1.066-0.216 1.451-0.601 0.386-0.384 0.603-0.906 0.603-1.452 4e-3 -6.055 0.017-23.794 0.021-29.85z" style="fill:url(#_Linear1)"/>
 <path d="m24 7.022v33.956l-20.521-0.014c-0.544 0-1.066-0.217-1.451-0.603-0.385-0.385-0.601-0.907-0.601-1.451 4e-3 -6.056 0.017-23.795 0.021-29.85 0-0.546 0.217-1.068 0.603-1.452 0.385-0.385 0.907-0.601 1.451-0.601l20.498 0.015z" style="fill:url(#_Linear2)"/>
 <path d="m30.022 33.057c1.38-0.567 2.537-1.066 2.574-1.107 0.049-0.055 0.079-1.064 0.112-3.809 0.141-11.938 0.147-12.884 0.09-12.964-0.072-0.099-4.935-2.24-5.104-2.247-0.091-2e-3 -1.125 0.969-4.363 4.103-2.335 2.258-4.286 4.134-4.335 4.169-0.102 0.072 0.148 0.251-2.428-1.738-2.492-1.925-2.684-2.07-2.774-2.084-0.047-8e-3 -0.551 0.133-1.118 0.315-0.706 0.225-1.036 0.356-1.044 0.413-7e-3 0.046 0.073 0.17 0.176 0.276 0.103 0.107 1.251 1.265 2.551 2.576s2.36 2.406 2.354 2.435c-5e-3 0.027-0.469 0.495-1.035 1.04-3.63 3.498-4.194 4.06-4.137 4.136 0.053 0.071 1.765 0.69 2.034 0.736 0.099 0.017 0.677-0.384 2.715-1.875l2.589-1.897 0.123 0.114c0.068 0.063 0.787 0.786 1.597 1.608 5.447 5.517 6.726 6.795 6.816 6.812 0.056 0.01 1.229-0.445 2.607-1.012zm-2.878-5.424c-0.075-0.065-1.288-1.005-2.696-2.088s-2.593-2.003-2.634-2.045c-0.064-0.065 0.304-0.352 2.788-2.175 1.572-1.155 2.872-2.079 2.889-2.053 0.015 0.025 0.017 0.978 2e-3 2.116-0.014 1.136-0.036 3.018-0.048 4.181-0.012 1.162-0.023 2.134-0.029 2.159-0.011 0.073-0.122 0.035-0.272-0.095z" style="fill-rule:nonzero;fill:url(#_Linear3)"/>
 <defs>
  <linearGradient id="_Linear1" x2="1" gradientTransform="matrix(-.47414 -33.0943 33.0943 -.47414 811.671 28.9356)" gradientUnits="userSpaceOnUse">
   <stop style="stop-color:#0089c9" offset="0"/>
   <stop style="stop-color:#2dcb72" offset="1"/>
  </linearGradient>
  <linearGradient id="_Linear2" x2="1" gradientTransform="matrix(-.363346 -25.361 25.361 -.363346 624.487 28.7043)" gradientUnits="userSpaceOnUse">
   <stop style="stop-color:#147966" offset="0"/>
   <stop style="stop-color:#2dcbc6" offset="1"/>
  </linearGradient>
  <linearGradient id="_Linear3" x2="1" gradientTransform="matrix(6.12255,-29.7409,29.7409,6.12255,1000.78,241.07)" gradientUnits="userSpaceOnUse">
   <stop style="stop-color:#cdd0d1" offset="0"/>
   <stop style="stop-color:#f6f6f7" offset="1"/>
  </linearGradient>
 </defs>
</svg>
