<!DOCTYPE svg  PUBLIC '-//W3C//DTD SVG 1.1//EN'  'http://www.w3.org/Graphics/SVG/1.1/DTD/svg11.dtd'>
<svg style="clip-rule:evenodd;fill-rule:evenodd;stroke-linecap:round;stroke-linejoin:round" version="1.1" viewBox="0 0 48 48" xmlns="http://www.w3.org/2000/svg">
 <path d="m7.029 20.001l8 18" style="fill:none;stroke-width:10px;stroke:#0090d5"/>
 <path d="m33.029 38.001l8-18" style="fill:none;stroke-width:10px;stroke:#4a3ee2"/>
 <path d="m23.591 18.504c7.162 6.926 0.77-0.981 2.119-0.524 3.27 1.081 0.305-1.258 1.782 0.411 2.017 2.638 3.594 5.931 5.023 8.478l-0.016 0.026 3.707 6.589c1.336 1.426 2.831 0.97 4.249 0.145l-2.846 6.402c-1.672 3.756-6.909 4.002-8.926 0.42l-8.93-15.875-0.164-0.256c-1.785-2.853 3.209-0.617 0.811-2.787-0.268-0.238 0.562-0.529 0.728-0.936 0.672-1.647 0.578 0.83 1.994 0.533 0.295-0.04-0.323 6e-3 0 0l0.469-2.626z" style="fill-rule:nonzero;fill:#00aeda"/>
 <path d="m30.734 13.063c-0.97-0.016-2.083 0.145-3.431 0.601-3.271 1.082-5.278 3.058-6.754 4.727-2.018 2.638-3.595 5.931-5.024 8.478l0.016 0.026-3.707 6.589c-1.336 1.426-2.83 0.97-4.248 0.145l2.846 6.402c1.671 3.756 6.909 4.002 8.925 0.42l8.93-15.875 0.164-0.256c1.785-2.853 3.827-5.683 6.225-7.853 0.268-0.237 0.47-0.623 0.304-1.029-0.672-1.648-1.903-2.009-3.32-2.305-0.295-0.04-0.602-0.065-0.926-0.07zm-15.505-0.062c-0.14-4e-3 -0.281 7e-3 -0.421 0.036-1.11 0.23-1.979 1.973-1.779 3.568 0.123 0.99 0.967 2.504 1.687 3.029 0.313 0.228 0.719 0.391 0.903 0.363 0.289-0.045 0.352-0.23 0.453-1.337 0.065-0.707 0.306-1.767 0.534-2.357 0.499-1.287 0.516-1.705 0.096-2.453-0.286-0.508-0.865-0.83-1.473-0.849zm9.605-7.001c0.846-1e-3 1.625 0.305 2.264 0.913 1.234 1.172 1.201 2.605-0.095 4.061-0.687 0.772-0.948 0.934-3.809 2.357-1.071 0.533-1.661 0.959-2.342 1.691-0.501 0.538-1.008 0.978-1.128 0.978-0.119 0-0.311-0.207-0.426-0.46s-0.243-1.125-0.284-1.937c-0.164-3.215 1.132-5.64 3.76-7.041 0.704-0.375 1.402-0.561 2.06-0.562zm8.166-1c1.104 0 2 0.896 2 2s-0.896 2-2 2-2-0.896-2-2 0.896-2 2-2z" style="fill-rule:nonzero;fill:#00edff"/>
</svg>
