<svg style="clip-rule:evenodd;fill-rule:evenodd;stroke-linejoin:round;stroke-miterlimit:2" version="1.1" viewBox="0 0 48 48" xmlns="http://www.w3.org/2000/svg">
 <path d="m2.46 22.032 8 18c1.121 2.521 4.078 3.659 6.6 2.538 2.521-1.121 3.659-4.078 2.538-6.6l-8-18c-1.121-2.521-4.078-3.659-6.6-2.538-2.521 1.121-3.659 4.078-2.538 6.6z" style="fill:url(#_Linear1)"/>
 <path d="m37.598 40.032 8-18c1.121-2.522-0.017-5.479-2.538-6.6-2.522-1.121-5.479 0.017-6.6 2.538l-8 18c-1.121 2.522 0.017 5.479 2.538 6.6 2.522 1.121 5.479-0.017 6.6-2.538z" style="fill:url(#_Linear2)"/>
 <path d="m19.753 24.576s6.262-7.854 7.739-6.185c2.017 2.638 3.594 5.931 5.023 8.478l-0.016 0.026 3.707 6.589c1.336 1.426 2.831 0.97 4.249 0.145l-2.846 6.402c-1.672 3.756-6.909 4.002-8.926 0.42l-8.93-15.875z" style="fill-rule:nonzero;fill:url(#_Linear3)"/>
 <path d="m19.753 24.576s2.698-2.666 4.175-0.997c2.017 2.638 3.594 5.931 5.023 8.478l-0.016 0.026s3.043 6.044 5.198 6.171c3.017 0.179 4.785-2.488 6.322-4.625l-2.846 6.402c-1.672 3.756-6.909 4.002-8.926 0.42l-8.93-15.875z" style="fill-rule:nonzero;fill:url(#_Linear4)"/>
 <path d="m30.734 13.063c-0.97-0.016-2.083 0.145-3.431 0.601-3.271 1.082-5.278 3.058-6.754 4.727-2.018 2.638-3.595 5.931-5.024 8.478l0.016 0.026-3.707 6.589c-1.336 1.426-2.83 0.97-4.248 0.145l2.846 6.402c1.671 3.756 6.909 4.002 8.925 0.42l8.93-15.875 0.164-0.256c1.785-2.853 3.827-5.683 6.225-7.853 0.268-0.237 0.47-0.623 0.304-1.029-0.672-1.648-1.903-2.009-3.32-2.305-0.295-0.04-0.602-0.065-0.926-0.07zm-15.505-0.062c-0.14-4e-3 -0.281 7e-3 -0.421 0.036-1.11 0.23-1.979 1.973-1.779 3.568 0.123 0.99 0.967 2.504 1.687 3.029 0.313 0.228 0.719 0.391 0.903 0.363 0.289-0.045 0.352-0.23 0.453-1.337 0.065-0.707 0.306-1.767 0.534-2.357 0.499-1.287 0.516-1.705 0.096-2.453-0.286-0.508-0.865-0.83-1.473-0.849zm9.605-7.001c0.846-1e-3 1.625 0.305 2.264 0.913 1.234 1.172 1.201 2.605-0.095 4.061-0.687 0.772-0.948 0.934-3.809 2.357-1.071 0.533-1.661 0.959-2.342 1.691-0.501 0.538-1.008 0.978-1.128 0.978-0.119 0-0.311-0.207-0.426-0.46s-0.243-1.125-0.284-1.937c-0.164-3.215 1.132-5.64 3.76-7.041 0.704-0.375 1.402-0.561 2.06-0.562zm8.166-1c1.104 0 2 0.896 2 2s-0.896 2-2 2-2-0.896-2-2 0.896-2 2-2z" style="fill-rule:nonzero;fill:rgb(0,237,255)"/>
 <path d="m22.984 16.018c1.146-0.919 2.477-1.798 4.249-2.384 1.348-0.456 2.541-0.658 3.511-0.642 0.324 5e-3 0.631 0.03 0.926 0.07 1.417 0.296 2.698 0.668 3.37 2.316 0.166 0.406-0.016 0.885-0.284 1.122-0.852 0.771-1.739 1.592-2.505 2.501-1.948 1.18-2.894 1.822-4.223 1.822-1.328 0-1.312-1.32-1.312-1.32s-1.328 1.874-3.827 1.604c-1.523-0.165-1.46-2.544 0.095-5.089z" style="fill-rule:nonzero;fill:rgb(225,252,254)"/>
 <path d="m34.98 15.438c-1.473-0.999-3.35 0.13-4.876 1.062-2.94 1.796-4.997 5.02-6.176 7.079-1.598 2.79-3.499 6.35-4.928 8.897 0 0-2.624 5.383-6 5.432-2.939 0.043-4.034-2.5-5.414-4.279l2.846 6.402c1.671 3.756 6.909 4.002 8.925 0.42l8.93-15.875 0.164-0.256c1.785-2.853 3.827-5.683 6.225-7.853 0.268-0.237 0.667-0.783 0.304-1.029z" style="fill-rule:nonzero;fill:url(#_Linear5)"/>
 <defs>
  <linearGradient id="_Linear1" x2="1" gradientTransform="matrix(-7.58356,-19.6722,19.6722,-7.58356,11.9851,35.4186)" gradientUnits="userSpaceOnUse">
   <stop style="stop-color:rgb(0,115,213)" offset="0"/>
   <stop style="stop-color:rgb(0,237,255)" offset="1"/>
  </linearGradient>
  <linearGradient id="_Linear2" x2="1" gradientTransform="matrix(7.93624,-20.0391,20.0391,7.93624,35.0012,35.4186)" gradientUnits="userSpaceOnUse">
   <stop style="stop-color:rgb(64,21,174)" offset="0"/>
   <stop style="stop-color:rgb(143,136,231)" offset="1"/>
  </linearGradient>
  <linearGradient id="_Linear3" x2="1" gradientTransform="matrix(-10.316,-12.6439,12.6439,-10.316,37.029,37.4489)" gradientUnits="userSpaceOnUse">
   <stop style="stop-color:rgb(0,237,255)" offset="0"/>
   <stop style="stop-color:rgb(0,129,205)" offset="1"/>
  </linearGradient>
  <linearGradient id="_Linear4" x2="1" gradientTransform="matrix(-8.88762,-14.6304,14.6304,-8.88762,37.5981,40.0317)" gradientUnits="userSpaceOnUse">
   <stop style="stop-color:rgb(0,225,250)" offset="0"/>
   <stop style="stop-color:rgb(0,130,206)" offset="1"/>
  </linearGradient>
  <linearGradient id="_Linear5" x2="1" gradientTransform="matrix(-6.46889,-3.22062,3.22062,-6.46889,24.7752,36.9188)" gradientUnits="userSpaceOnUse">
   <stop style="stop-color:white;stop-opacity:0" offset="0"/>
   <stop style="stop-color:rgb(0,114,181);stop-opacity:.25" offset="1"/>
  </linearGradient>
 </defs>
</svg>
