<svg style="clip-rule:evenodd;fill-rule:evenodd;stroke-linejoin:round;stroke-miterlimit:2" version="1.1" viewBox="0 0 48 48" xmlns="http://www.w3.org/2000/svg">
 <g transform="matrix(1.1382,0,0,1.1382,-3.3168,-3.3168)">
  <circle cx="24" cy="24" r="20" style="fill:url(#_Linear1)"/>
 </g>
 <g transform="matrix(1.1382,0,0,1.1382,-3.3168,-3.3168)">
  <path d="m19.231 32.155c2.591-2.601 4.739-4.728 4.772-4.728 0.034 0 2.163 2.11 4.731 4.69 2.569 2.579 4.704 4.708 4.745 4.731 0.184 0.103 2.164-1.746 3.009-2.811 1.454-1.831 2.505-3.976 3.056-6.24 0.545-2.241 0.604-4.696 0.164-6.908-0.663-3.336-2.345-6.358-4.829-8.675-0.417-0.389-1.225-1.06-1.325-1.101-0.067-0.027-6.52 6.433-6.52 6.527 0 0.068 3.231 3.331 3.298 3.331 0.023 0 0.327-0.288 0.676-0.64s1.054-1.048 1.565-1.546l0.931-0.905 0.169 0.26c0.416 0.642 0.95 1.867 1.203 2.756 0.31 1.095 0.412 1.868 0.412 3.138 0 1.082-0.033 1.444-0.21 2.295-0.191 0.92-0.466 1.746-0.856 2.567-0.277 0.587-0.662 1.244-0.727 1.244-0.027 0-2.174-2.132-4.771-4.739l-4.721-4.738-4.721 4.738c-2.597 2.607-4.744 4.739-4.771 4.739-0.065 0-0.449-0.657-0.727-1.244-0.499-1.051-0.839-2.211-1.011-3.443-0.073-0.521-0.073-2.317 0-2.837 0.122-0.875 0.332-1.727 0.629-2.548 0.192-0.531 0.678-1.536 0.931-1.928l0.169-0.26 0.89 0.864c0.489 0.475 1.193 1.171 1.565 1.546 0.371 0.374 0.694 0.681 0.717 0.681 0.067 0 3.298-3.263 3.298-3.331 0-0.034-1.456-1.523-3.236-3.31-3.129-3.14-3.239-3.246-3.328-3.19-0.182 0.113-0.883 0.7-1.3 1.088-3.767 3.502-5.642 8.71-4.976 13.824 0.34 2.609 1.315 5.101 2.839 7.255 0.542 0.767 0.946 1.238 1.743 2.036 0.702 0.703 1.658 1.538 1.765 1.54 0.022 1e-3 2.16-2.127 4.752-4.728z" style="fill-rule:nonzero;fill:rgb(228,229,240)"/>
 </g>
 <path d="m24.913 42.173c1.008-0.055 1.715-0.143 2.681-0.332 0.713-0.14 1.88-0.457 2.397-0.652l0.266-0.1-3.092-3.119c-1.7-1.716-3.123-3.12-3.161-3.12-0.039 0-1.462 1.404-3.162 3.12l-3.092 3.119 0.271 0.103c1.277 0.482 3.349 0.891 4.963 0.979l1.929 2e-3zm2.308-32.082c2.496-2.506 3.132-3.17 3.077-3.205-0.219-0.14-1.804-0.592-2.784-0.792-1.184-0.243-1.904-0.305-3.51-0.305-1.607 0-2.327 0.062-3.511 0.305-0.98 0.2-2.565 0.652-2.784 0.792-0.055 0.035 0.581 0.699 3.077 3.205 1.731 1.738 3.179 3.16 3.218 3.16 0.038 0 1.486-1.422 3.217-3.16z" style="fill-rule:nonzero;fill:rgb(185,117,255)"/>
 <defs>
  <linearGradient id="_Linear1" x2="1" gradientTransform="matrix(2.44929e-15,-40,40,2.44929e-15,24.0031,44)" gradientUnits="userSpaceOnUse">
   <stop style="stop-color:rgb(60,65,83)" offset="0"/>
   <stop style="stop-color:rgb(81,90,121)" offset="1"/>
  </linearGradient>
 </defs>
</svg>
