<svg style="clip-rule:evenodd;fill-rule:evenodd;stroke-linejoin:round;stroke-miterlimit:2" version="1.1" viewBox="0 0 48 48" xmlns="http://www.w3.org/2000/svg">
 <circle cx="23.977" cy="24.023" r="22.787" style="fill:url(#_Linear1)"/>
 <path d="m17.32 14.376l0.464-0.7-0.696-0.524 0.232 1.224m-4.095-6.123l-0.388 0.962h0.774l0.386-0.874c0.334-0.236 0.666-0.473 1.005-0.7l0.773 0.263c0.514 0.349 1.029 0.699 1.545 1.048l0.773-0.699-0.85-0.349-0.387-0.788-1.468-0.175-0.077-0.437-0.696 0.175-0.309 0.612-0.387-0.787-0.153 0.35 0.077 0.875-0.618 0.524m3.708 20.555l-0.618-1.225-1.159-0.262-0.619-1.661-1.545 0.174-1.313-0.961-1.391 1.224v0.193c-0.421-0.122-0.938-0.138-1.314-0.368l-0.309-0.875v-0.962l-0.927 0.087c0.077-0.613 0.154-1.224 0.232-1.837h-0.541l-0.541 0.7-0.541 0.261-0.773-0.435-0.078-0.963 0.155-1.05 1.16-0.874h0.926l0.155-0.525 1.159 0.262 0.85 1.051 0.155-1.751 1.469-1.224 0.54-1.311 1.082-0.438 0.618-0.874 1.39-0.264 0.697-1.049h-2.087l1.313-0.612h0.928l1.314-0.438 0.154-0.523-0.464-0.438-0.541-0.176 0.155-0.525-0.387-0.786-0.927 0.349 0.155-0.699-1.082-0.612-0.85 1.485 0.077 0.525-0.849 0.351-0.542 1.137-0.231-1.049-1.469-0.613-0.232-0.787 1.932-1.138 0.85-0.787 0.078-0.962-0.463-0.262-0.619-0.087-0.386 0.962s-0.647 0.126-0.812 0.167c-2.122 1.956-6.41 6.177-7.406 14.145 0.04 0.185 0.721 1.257 0.721 1.257l1.624 0.962 1.622 0.437 0.697 0.875 1.081 0.787 0.618-0.087 0.464 0.209v0.141l-0.618 1.661-0.464 0.7 0.154 0.351-0.386 1.31 1.391 2.538 1.39 1.225 0.619 0.873-0.078 1.838 0.465 1.048-0.465 2.013s-0.035-0.013 0.023 0.188c0.061 0.202 2.476 1.543 2.63 1.429 0.153-0.116 0.284-0.218 0.284-0.218l-0.155-0.436 0.618-0.612 0.233-0.613 1.004-0.352 0.773-1.924-0.232-0.523 0.54-0.787 1.16-0.263 0.618-1.4-0.154-1.748 0.927-1.313 0.155-1.311c-1.269-0.63-2.527-1.277-3.787-1.925m9.042-23.79l-2.01-0.788-2.317 0.262-2.86 0.788-0.541 0.524 1.778 1.224v0.701l-0.696 0.699 0.928 1.838 0.616-0.35 0.775-1.225c1.194-0.369 2.264-0.787 3.399-1.312l0.928-2.361m-0.85 3.585l-0.078 0.525 0.542 0.349 0.926-0.611-0.462-0.525-0.619 0.351-0.309-0.088m19.136 12.201l-0.579 0.657c-0.355-0.418-0.753-0.769-1.158-1.137l-0.89 0.131-0.811-0.918v1.135l0.696 0.526 0.463 0.524 0.618-0.699c0.155 0.291 0.309 0.583 0.464 0.874v0.875l-0.696 0.786-1.276 0.876-0.965 0.963-0.618-0.701 0.308-0.787-0.616-0.699-1.045-2.231-0.888-1.005-0.233 0.261 0.35 1.269 0.656 0.744c0.374 1.081 0.745 2.116 1.238 3.149 0.762 0 1.481-0.081 2.24-0.177v0.613l-0.928 2.275-0.85 0.961-0.695 1.49v2.447l0.233 0.962-0.387 0.437-0.851 0.526-0.889 0.742 0.735 0.831-1.005 0.877 0.193 0.567-1.507 1.707h-1.004l-0.851 0.525h-0.541v-0.7l-0.231-1.402c-0.299-0.877-0.61-1.749-0.927-2.622 0-0.643 0.038-1.281 0.077-1.925l0.387-0.873-0.542-1.051 0.039-1.443-0.735-0.83 0.368-1.203-0.598-0.678h-1.044l-0.348-0.394-1.043 0.657-0.425-0.483-0.967 0.831c-0.655-0.743-1.312-1.487-1.97-2.23l-0.772-1.837 0.695-1.049-0.386-0.437 0.849-2.013c0.698-0.868 1.426-1.7 2.164-2.536l1.314-0.35 1.469-0.174 1.004 0.262 1.429 1.442 0.504-0.568 0.693-0.088 1.315 0.437h1.004l0.696-0.611 0.31-0.437-0.697-0.437-1.159-0.087c-0.323-0.447-0.621-0.917-1.003-1.313l-0.388 0.175-0.155 1.138-0.695-0.788-0.153-0.875-0.773-0.611h-0.31l0.773 0.874-0.309 0.788-0.618 0.174 0.386-0.787-0.697-0.349-0.616-0.7-1.16 0.261-0.154 0.35-0.696 0.438-0.386 0.962-0.965 0.481-0.427-0.481h-0.462v-1.574l1.004-0.526h0.773l-0.156-0.612-0.617-0.612 1.042-0.219 0.58-0.656 0.464-0.787h0.85l-0.232-0.612 0.542-0.349v0.699l1.159 0.262 1.158-0.961 0.077-0.439 1.005-0.699c-0.364 0.046-0.728 0.078-1.082 0.176v-0.789l0.386-0.875h-0.386l-0.849 0.787-0.233 0.438 0.233 0.613-0.387 1.048-0.618-0.349-0.54-0.612-0.851 0.612-0.309-1.399 1.467-0.962v-0.525l0.929-0.613 1.467-0.35 1.005 0.35 1.854 0.35-0.462 0.525h-1.005l1.005 1.049 0.772-0.874 0.234-0.385s2.963 2.656 4.657 5.561c1.693 2.905 2.488 6.33 2.488 7.026v-1e-3zm-28.255-14.739l0.386-0.348 0.774-0.175c0.529-0.258 1.06-0.431 1.622-0.613l-0.308-0.525-0.998 0.143-0.471 0.47-0.778 0.113-0.69 0.324-0.336 0.163-0.205 0.274 1.004 0.174m-0.773 2.888l0.773 0.524h0.619v-0.612l-0.773-0.35-0.619 0.438m13.137 3.236l-0.154 1.05 0.849-0.175 0.618-0.612-0.541-0.525c-0.181-0.483-0.39-0.936-0.617-1.399h-0.463v0.524l0.308 0.349v0.788m-0.308 0.177l-0.309-0.789-0.543 0.176 0.156 0.961 0.696-0.348" style="fill-rule:nonzero;fill:url(#_Linear2)"/>
 <path d="m36.29 2.892c1.3-0.59 2.878-1.009 4.365-0.996 1.691 0.051 3.4 0.72 4.247 2.205 2.123 3.728-0.544 8.055-2.395 11.215-6.451 11.012-16.465 20.291-27.603 25.814-4.314 2.139-10.13 4.201-12.425 0.175-1.24-2.176-0.846-4.556 0.063-6.79l1.983 2.883c-9e-3 0.049-0.053 0.429-0.128 1.035-0.42 3.384 6.874 2.13 12.713-1.434 11.144-6.804 22.124-16.232 25.615-28.416 0.848-2.956-0.627-4.163-2.359-4.143-0.443 0.014-0.882 0.05-1.32 0.108l-2.756-1.656z" style="fill-rule:nonzero;fill:#fff"/>
 <defs>
  <linearGradient id="_Linear1" x2="1" gradientTransform="matrix(-.429124 -44.9292 44.9292 -.429124 10783.7 -56.2789)" gradientUnits="userSpaceOnUse">
   <stop style="stop-color:#197dec" offset="0"/>
   <stop style="stop-color:#3fcffb" offset="1"/>
  </linearGradient>
  <linearGradient id="_Linear2" x2="1" gradientTransform="matrix(-.169888 41.009 -41.009 -.169888 -185.319 2.57938)" gradientUnits="userSpaceOnUse">
   <stop style="stop-color:#bee1ff" offset="0"/>
   <stop style="stop-color:#7bf" offset="1"/>
  </linearGradient>
 </defs>
</svg>
