<svg style="clip-rule:evenodd;fill-rule:evenodd;stroke-linejoin:round;stroke-miterlimit:2" version="1.1" viewBox="0 0 48 48" xmlns="http://www.w3.org/2000/svg">
 <path d="m39.44 2.332c3.438 0 6.228 2.79 6.228 6.228v30.88c0 3.438-2.79 6.228-6.228 6.228h-30.88c-3.438 0-6.228-2.79-6.228-6.228v-30.88c0-3.438 2.79-6.228 6.228-6.228h30.88z" style="fill:url(#_Linear1)"/>
 <path d="m8.56 2.332h15.44v43.336h-15.44c-3.438 0-6.228-2.79-6.228-6.228v-30.88c0-3.438 2.79-6.228 6.228-6.228z" style="fill:url(#_Linear2)"/>
 <path d="m20.622 16.334c-0.783 0.014-1.46 0.631-1.598 1.453-0.016 0.099-0.025 0.198-0.025 0.298l-0.011 3.44c-1e-3 0.1-0.01 0.199-0.025 0.298-0.138 0.821-0.816 1.438-1.598 1.453l-0.809 0.016-5e-3 1.72 0.808-0.016c0.093-1e-3 0.187 6e-3 0.279 0.021 0.769 0.129 1.335 0.838 1.332 1.669l-0.011 3.441c-3e-3 0.944 0.724 1.706 1.612 1.689l1.617-0.03 5e-3 -1.721-1.617 0.031 0.014-4.3c3e-3 -0.945-0.724-1.707-1.612-1.69 0.783-0.015 1.461-0.632 1.599-1.454 0.016-0.098 0.025-0.197 0.025-0.297l0.014-4.301 1.618-0.03 6e-3 -1.721m4.852-0.092c0.887-0.016 1.615 0.746 1.612 1.689l-0.012 3.441c-3e-3 0.833 0.562 1.54 1.332 1.67 0.092 0.016 0.186 0.022 0.279 0.02l0.809-0.015-5e-3 1.721-0.81 0.014c-0.887 0.017-1.619 0.808-1.622 1.751l-0.012 3.441c-3e-3 0.943-0.736 1.735-1.624 1.751l-1.617 0.031 5e-3 -1.72 1.619-0.031 0.014-4.302c3e-3 -0.943 0.735-1.733 1.623-1.749-0.888 0.016-1.615-0.747-1.612-1.69l0.016-4.302-1.619 0.031 7e-3 -1.72 1.617-0.031z" style="fill-rule:nonzero;fill:#f9f9f9"/>
 <defs>
  <linearGradient id="_Linear1" x2="1" gradientTransform="matrix(45.125,0,0,45.125,1.43749,845.635)" gradientUnits="userSpaceOnUse">
   <stop style="stop-color:#9400ff" offset="0"/>
   <stop style="stop-color:#d9317b" offset="1"/>
  </linearGradient>
  <linearGradient id="_Linear2" x2="1" gradientTransform="matrix(-.363346 -25.361 25.361 -.363346 1129.58 21.4678)" gradientUnits="userSpaceOnUse">
   <stop style="stop-color:#147966;stop-opacity:.22" offset="0"/>
   <stop style="stop-color:#2dcbc6;stop-opacity:.22" offset="1"/>
  </linearGradient>
 </defs>
</svg>
