<?xml version="1.0" encoding="UTF-8" standalone="no"?><!DOCTYPE svg PUBLIC "-//W3C//DTD SVG 1.1//EN" "http://www.w3.org/Graphics/SVG/1.1/DTD/svg11.dtd"><svg width="100%" height="100%" viewBox="0 0 64 64" version="1.1" xmlns="http://www.w3.org/2000/svg" xmlns:xlink="http://www.w3.org/1999/xlink" xml:space="preserve" xmlns:serif="http://www.serif.com/" style="fill-rule:evenodd;clip-rule:evenodd;stroke-linejoin:bevel;"><path d="M57.2,4c1.545,0 2.8,1.255 2.8,2.8l0,50.4c0,1.545 -1.255,2.8 -2.8,2.8l-50.4,0c-1.545,0 -2.8,-1.255 -2.8,-2.8l0,-50.4c0,-1.545 1.255,-2.8 2.8,-2.8l50.4,0Z" style="fill:url(#_Linear1);"/><path d="M16,4l0,12l-12,0l0,3l12,0l0,11l-12,0l0,3l12,0l0,27l3,0l0,-27l12,0l0,27l3,0l0,-27l11,0l0,27l3,0l0,-27l12,0l0,-3l-12,0l0,-11l12,0l0,-3l-12,0l0,-12l-3,0l0,12l-11,0l0,-12l-3,0l0,12l-12,0l0,-12l-3,0Zm3,15l12,0l0,11l-12,0l0,-11Zm15,0l11,0l0,11l-11,0l0,-11Z" style="fill:#fff;fill-opacity:0.4;fill-rule:nonzero;"/><path d="M48.1,11.28c-1.978,0 -4.245,1.596 -6.707,4.679c-2.463,3.082 -4.962,7.4 -7.547,11.787c-2.585,4.388 -5.257,8.849 -8.313,12.346c-3.056,3.497 -6.665,6.188 -11.033,6.188c-4.039,0 -7.263,-3.063 -9.888,-5.764c-0.221,-0.228 -0.401,-0.444 -0.612,-0.67l0,17.354c0,1.551 1.249,2.8 2.8,2.8l50.4,0c1.551,0 2.8,-1.249 2.8,-2.8l0,-38.149c-0.86,-0.898 -2.053,-2.081 -3.508,-3.319c-2.767,-2.355 -6.345,-4.452 -8.392,-4.452Z" style="fill:url(#_Linear2);fill-rule:nonzero;"/><path d="M48,10c-4.122,0 -7.397,2.667 -10.098,6.068c-2.7,3.401 -5.03,7.718 -7.398,11.955c-2.368,4.237 -4.773,8.39 -7.356,11.35c-2.582,2.96 -5.154,4.627 -8.148,4.627c-2.643,0 -5.553,-1.87 -7.75,-3.951c-1.816,-1.72 -2.866,-3.163 -3.25,-3.707l0,6.115c0.166,0.165 0.325,0.329 0.5,0.494c2.553,2.419 6.143,5.049 10.5,5.049c4.506,0 8.184,-2.583 11.164,-5.998c2.98,-3.415 5.45,-7.762 7.832,-12.025c2.382,-4.263 4.677,-8.446 7.039,-11.42c2.362,-2.974 4.587,-4.557 6.965,-4.557c2.643,0 6.173,1.946 8.893,4.074c1.257,0.985 2.308,1.948 3.107,2.721l0,-5.33c-0.223,-0.182 -0.408,-0.356 -0.643,-0.539c-3.03,-2.372 -7,-4.926 -11.357,-4.926Z" style="fill:#e4e4e4;fill-rule:nonzero;"/><circle cx="15" cy="46" r="5" style="fill:#fff;"/><circle cx="48" cy="12" r="5" style="fill:#fff;"/><path d="M54,31l-13.599,0l7.999,10.5l-7.999,10.5l13.599,0" style="fill:none;stroke:#fff;stroke-width:4px;"/><defs><linearGradient id="_Linear1" x1="0" y1="0" x2="1" y2="0" gradientUnits="userSpaceOnUse" gradientTransform="matrix(0,-56,-56,0,32,60)"><stop offset="0" style="stop-color:#207e35;stop-opacity:1"/><stop offset="1" style="stop-color:#1d6434;stop-opacity:1"/></linearGradient><linearGradient id="_Linear2" x1="0" y1="0" x2="1" y2="0" gradientUnits="userSpaceOnUse" gradientTransform="matrix(16.8289,35.001,-35.001,16.8289,32.8386,24.999)"><stop offset="0" style="stop-color:#02b200;stop-opacity:1"/><stop offset="1" style="stop-color:#2e9f52;stop-opacity:1"/></linearGradient></defs></svg>