<svg style="clip-rule:evenodd;fill-rule:evenodd;stroke-linejoin:bevel" version="1.1" viewBox="0 0 48 48" xmlns="http://www.w3.org/2000/svg">
 <path d="m45.668 8.56c0-3.438-2.79-6.228-6.228-6.228h-30.88c-3.438 0-6.228 2.79-6.228 6.228v30.88c0 3.438 2.79 6.228 6.228 6.228h30.88c3.438 0 6.228-2.79 6.228-6.228v-30.88z" style="fill:url(#_Linear1)"/>
 <path d="m13.94 11.618h9.286v-9.286h2.322v9.286h8.512v-9.286h2.322v9.286h9.286v2.322h-9.286v8.512h9.286v2.322h-9.286v20.894h-2.322v-20.894h-8.512v20.894h-2.322v-20.894h-9.286v20.894h-2.322v-20.894h-9.286v-2.322h9.286v-8.512h-9.286v-2.322h9.286v-9.286h2.322v9.286zm9.286 10.834v-8.512h-9.286v8.512h9.286zm10.834 0v-8.512h-8.512v8.512h8.512z" style="fill-opacity:.4;fill-rule:nonzero;fill:#fff"/>
 <path d="m36.459 7.966c1.585 0 4.353 1.623 6.494 3.445 1.126 0.958 2.049 1.873 2.715 2.568v25.461c0 3.438-2.79 6.228-6.228 6.228h-30.88c-3.438 0-6.228-2.79-6.228-6.228v-9.368c0.163 0.175 0.303 0.342 0.474 0.518 2.031 2.09 4.526 4.461 7.651 4.461 3.381 0 6.174-2.083 8.538-4.789 2.365-2.706 4.433-6.158 6.434-9.554 2-3.395 3.934-6.736 5.84-9.121 1.905-2.386 3.659-3.621 5.19-3.621z" style="fill-rule:nonzero;fill:url(#_Linear2)"/>
 <path d="m36.382 6.975c-3.19 0-5.725 2.064-7.815 4.696-2.089 2.632-3.892 5.973-5.725 9.251-1.832 3.279-3.693 6.493-5.692 8.784-1.998 2.29-3.989 3.58-6.306 3.58-2.045 0-4.297-1.447-5.997-3.057-1.405-1.331-2.218-2.448-2.515-2.869v4.732c0.128 0.128 0.252 0.255 0.387 0.383 1.976 1.871 4.754 3.907 8.125 3.907 3.487 0 6.334-1.999 8.64-4.642s4.217-6.007 6.061-9.306c1.843-3.298 3.619-6.536 5.447-8.837s3.549-3.526 5.39-3.526c2.045 0 4.777 1.505 6.882 3.152 0.972 0.763 1.786 1.508 2.404 2.106v-4.125c-0.173-0.141-0.316-0.275-0.498-0.417-2.344-1.835-5.417-3.812-8.788-3.812z" style="fill-rule:nonzero;fill:#e4e4e4"/>
 <circle cx="10.844" cy="34.834" r="3.869" style="fill:#fff"/>
 <circle cx="36.382" cy="8.523" r="3.869" style="fill:#fff"/>
 <path d="m41.025 23.226h-10.524l6.19 8.126-6.19 8.125h10.524" style="fill:none;stroke-width:3.1px;stroke:#fff"/>
 <defs>
  <linearGradient id="_Linear1" x2="1" gradientTransform="matrix(2.65356e-15,-43.336,43.336,2.65356e-15,-149.344,45.668)" gradientUnits="userSpaceOnUse">
   <stop style="stop-color:#207e35" offset="0"/>
   <stop style="stop-color:#1d6434" offset="1"/>
  </linearGradient>
  <linearGradient id="_Linear2" x2="1" gradientTransform="matrix(16.8289,35.001,-35.001,16.8289,-361.973,214.829)" gradientUnits="userSpaceOnUse">
   <stop style="stop-color:#02b200" offset="0"/>
   <stop style="stop-color:#2e9f52" offset="1"/>
  </linearGradient>
 </defs>
</svg>
