<svg style="clip-rule:evenodd;fill-rule:evenodd;stroke-linejoin:round;stroke-miterlimit:2" version="1.1" viewBox="0 0 48 48" xmlns="http://www.w3.org/2000/svg">
 <path d="m47.312 10.595c0-0.976-0.388-1.911-1.077-2.601-0.69-0.691-1.627-1.079-2.603-1.079h-39.264c-0.976 0-1.913 0.388-2.603 1.079-0.689 0.69-1.077 1.625-1.077 2.601v27.823c0 0.976 0.388 1.911 1.077 2.602 0.69 0.69 1.627 1.078 2.603 1.078h39.264c0.976 0 1.913-0.388 2.603-1.078 0.689-0.691 1.077-1.626 1.077-2.602v-27.823z" style="fill-opacity:.67"/>
 <path d="m43.833 5.902c1.922 0 3.479 1.558 3.479 3.479v28.225c0 1.921-1.557 3.479-3.479 3.479h-39.666c-1.922 0-3.479-1.558-3.479-3.479v-28.225c0-1.921 1.557-3.479 3.479-3.479h39.666z" style="fill:url(#_Linear1)"/>
 <path d="m4.167 5.902h19.833v35.183h-19.833c-1.922 0-3.479-1.558-3.479-3.479v-28.225c0-1.921 1.557-3.479 3.479-3.479z" style="fill:url(#_Linear2)"/>
 <path d="m14.248 30.377l-1e-3 -0.57-3.334 6e-3 -3.334 6e-3 -0.026 0.472c-0.014 0.26-5e-3 0.527 0.021 0.594 0.039 0.1 0.607 0.116 3.361 0.092l3.314-0.03-1e-3 -0.57zm6.53-5.426c0.923-0.412 1.397-1.139 1.393-2.134-4e-3 -1.291-0.547-1.784-2.642-2.401-0.892-0.263-1.221-0.486-1.221-0.831-1e-3 -0.398 0.283-0.578 0.913-0.579 0.451-1e-3 0.656 0.054 1.194 0.32 0.358 0.177 0.682 0.302 0.72 0.279 0.112-0.07 0.768-1.068 0.768-1.169-1e-3 -0.168-0.708-0.605-1.302-0.805-0.823-0.276-1.987-0.274-2.604 5e-3 -0.481 0.217-0.954 0.629-1.146 0.997-0.418 0.801-0.326 1.861 0.211 2.454 0.397 0.437 0.736 0.609 1.847 0.937 1.04 0.307 1.381 0.468 1.515 0.717 0.132 0.246-0.031 0.638-0.32 0.77-0.536 0.246-1.578 0.049-2.299-0.433-0.207-0.138-0.43-0.252-0.494-0.252-0.142 0-0.926 0.939-0.925 1.108 0 0.283 1.099 0.899 2.02 1.132 0.667 0.169 1.866 0.111 2.372-0.115zm-10.1 0.045c0.056-0.068 0.334-0.942 0.618-1.943 0.496-1.748 0.568-1.957 0.644-1.877 0.033 0.035 1.025 3.544 1.026 3.625 0 0.021 0.062 0.101 0.138 0.176 0.174 0.174 1.286 0.194 1.42 0.026 0.159-0.199 2.125-7.288 2.044-7.369-0.043-0.043-0.45-0.065-0.904-0.051l-0.825 0.027-0.443 1.712c-0.244 0.942-0.471 1.826-0.506 1.966-0.035 0.142-0.095 0.219-0.136 0.176-0.04-0.044-0.301-0.868-0.58-1.833-0.279-0.964-0.543-1.822-0.587-1.907-0.064-0.123-0.197-0.153-0.68-0.152-0.375 1e-3 -0.633 0.042-0.687 0.111-0.048 0.06-0.272 0.756-0.498 1.546-0.649 2.266-0.667 2.321-0.744 2.24-0.04-0.042-0.257-0.807-0.483-1.699s-0.452-1.751-0.502-1.907l-0.09-0.285-0.871 1e-3c-0.72 2e-3 -0.87 0.025-0.87 0.135 0 0.237 2.021 7.158 2.126 7.285 0.142 0.17 1.249 0.168 1.39-3e-3z" style="fill-rule:nonzero;fill:#fff"/>
 <defs>
  <linearGradient id="_Linear1" x2="1" gradientTransform="matrix(-45.136 .647316 -.647316 -45.136 42.0273 -292.923)" gradientUnits="userSpaceOnUse">
   <stop style="stop-color:#0089c9" offset="0"/>
   <stop style="stop-color:#2dcb72" offset="1"/>
  </linearGradient>
  <linearGradient id="_Linear2" x2="1" gradientTransform="matrix(-.363346 -25.361 25.361 -.363346 979.897 23.6123)" gradientUnits="userSpaceOnUse">
   <stop style="stop-color:#147966" offset="0"/>
   <stop style="stop-color:#2dcbc6" offset="1"/>
  </linearGradient>
 </defs>
</svg>
