<svg style="clip-rule:evenodd;fill-rule:evenodd;stroke-linejoin:round;stroke-miterlimit:2" version="1.1" viewBox="0 0 48 48" xmlns="http://www.w3.org/2000/svg">
 <path d="m39.44 2.332c3.438 0 6.228 2.79 6.228 6.228v30.88c0 3.438-2.79 6.228-6.228 6.228h-30.88c-3.438 0-6.228-2.79-6.228-6.228v-30.88c0-3.438 2.79-6.228 6.228-6.228h30.88z" style="fill:url(#_Linear1)"/>
 <path d="m46.662 27.024c0-1.19-0.966-2.155-2.156-2.155h-24.575c-1.191 0-2.156 0.965-2.156 2.155v17.487c0 1.19 0.965 2.155 2.156 2.155h24.575c1.19 0 2.156-0.965 2.156-2.155v-17.487z" style="fill:url(#_Linear2)"/>
 <path d="m44.801 27.7c0-0.601-0.488-1.089-1.089-1.089h-8.278c-0.601 0-1.089 0.488-1.089 1.089s0.488 1.089 1.089 1.089h8.278c0.601 0 1.089-0.488 1.089-1.089z" style="fill:#d3d3d3"/>
 <path d="m44.265 9.506c0-0.845-0.686-1.532-1.532-1.532h-11.645c-0.846 0-1.532 0.687-1.532 1.532 0 0.846 0.686 1.532 1.532 1.532h11.645c0.846 0 1.532-0.686 1.532-1.532z" style="fill-opacity:.72;fill:#d3d3d3"/>
 <defs>
  <linearGradient id="_Linear1" x2="1" gradientTransform="matrix(2.21762e-15,-36.2165,36.2165,2.21762e-15,703.214,42.119)" gradientUnits="userSpaceOnUse">
   <stop style="stop-color:#566069" offset="0"/>
   <stop style="stop-color:#6c7884" offset="1"/>
  </linearGradient>
  <linearGradient id="_Linear2" x2="1" gradientTransform="matrix(.119107 -21.4639 21.4639 .119107 569.66 49.3087)" gradientUnits="userSpaceOnUse">
   <stop style="stop-color:#197df1" offset="0"/>
   <stop style="stop-color:#20b8f9" offset="1"/>
  </linearGradient>
 </defs>
</svg>
