<svg style="clip-rule:evenodd;fill-rule:evenodd;stroke-linejoin:round;stroke-miterlimit:2" version="1.1" viewBox="0 0 48 48" xmlns="http://www.w3.org/2000/svg">
 <path d="m47.312 10.595c0-0.976-0.388-1.911-1.077-2.601-0.69-0.691-1.627-1.079-2.603-1.079h-39.264c-0.976 0-1.913 0.388-2.603 1.079-0.689 0.69-1.077 1.625-1.077 2.601v27.823c0 0.976 0.388 1.911 1.077 2.602 0.69 0.69 1.627 1.078 2.603 1.078h39.264c0.976 0 1.913-0.388 2.603-1.078 0.689-0.691 1.077-1.626 1.077-2.602v-27.823z" style="fill-opacity:.67"/>
 <path d="m47.312 9.381c0-1.921-1.557-3.479-3.479-3.479h-39.666c-1.922 0-3.479 1.558-3.479 3.479v28.225c0 1.921 1.557 3.479 3.479 3.479h39.666c1.922 0 3.479-1.558 3.479-3.479v-28.225z" style="fill:url(#_Linear1)"/>
 <path d="m46.126 27.143c0-1.19-0.966-2.155-2.156-2.155h-24.575c-1.191 0-2.156 0.965-2.156 2.155v17.487c0 1.19 0.965 2.155 2.156 2.155h24.575c1.19 0 2.156-0.965 2.156-2.155v-17.487z" style="fill:url(#_Linear2)"/>
 <path d="m44.265 27.819c0-0.601-0.488-1.089-1.089-1.089h-8.278c-0.601 0-1.089 0.488-1.089 1.089s0.488 1.089 1.089 1.089h8.278c0.601 0 1.089-0.488 1.089-1.089z" style="fill:#d3d3d3"/>
 <path d="m44.265 9.506c0-0.845-0.686-1.532-1.532-1.532h-11.645c-0.846 0-1.532 0.687-1.532 1.532 0 0.846 0.686 1.532 1.532 1.532h11.645c0.846 0 1.532-0.686 1.532-1.532z" style="fill-opacity:.72;fill:#d3d3d3"/>
 <defs>
  <linearGradient id="_Linear1" x2="1" gradientTransform="matrix(2.21762e-15,-36.2165,36.2165,2.21762e-15,489.464,42.119)" gradientUnits="userSpaceOnUse">
   <stop style="stop-color:#566069" offset="0"/>
   <stop style="stop-color:#6c7884" offset="1"/>
  </linearGradient>
  <linearGradient id="_Linear2" x2="1" gradientTransform="matrix(.119107 -21.4639 21.4639 .119107 32.7841 46.4516)" gradientUnits="userSpaceOnUse">
   <stop style="stop-color:#197df1" offset="0"/>
   <stop style="stop-color:#20b8f9" offset="1"/>
  </linearGradient>
 </defs>
</svg>
