<svg style="clip-rule:evenodd;fill-rule:evenodd;stroke-linejoin:round;stroke-miterlimit:2" version="1.1" viewBox="0 0 48 48" xmlns="http://www.w3.org/2000/svg">
 <path d="m45.668 8.56c0-3.438-2.79-6.228-6.228-6.228h-30.88c-3.438 0-6.228 2.79-6.228 6.228v30.88c0 3.438 2.79 6.228 6.228 6.228h30.88c3.438 0 6.228-2.79 6.228-6.228v-30.88z" style="fill:url(#_Linear1)"/>
 <path d="m11.817 23.108l-9e-3 -8.697 9.754-1.454v10.151h-9.745zm11.371-10.409l13.002-2.077v12.486h-13.002v-10.409zm13.004 12.193l-2e-3 12.486-13.002-2.007v-10.479h13.004zm-14.63 10.251l-9.746-1.466-1e-3 -8.785h9.747v10.251z" style="fill-opacity:.75;fill-rule:nonzero;fill:#eff9fe"/>
 <defs>
  <linearGradient id="_Linear1" x2="1" gradientTransform="matrix(.0750367 -43.19 43.19 .0750367 87.46 45.5869)" gradientUnits="userSpaceOnUse">
   <stop style="stop-color:#003fb6" offset="0"/>
   <stop style="stop-color:#21c6fb" offset="1"/>
  </linearGradient>
 </defs>
</svg>
