<svg style="clip-rule:evenodd;fill-rule:evenodd;stroke-linejoin:round;stroke-miterlimit:2" version="1.1" viewBox="0 0 48 48" xmlns="http://www.w3.org/2000/svg">
 <path d="m45.668 8.56c0-3.438-2.79-6.228-6.228-6.228h-30.88c-3.438 0-6.228 2.79-6.228 6.228v30.88c0 3.438 2.79 6.228 6.228 6.228h30.88c3.438 0 6.228-2.79 6.228-6.228v-30.88z" style="fill:url(#_Linear1)"/>
 <path d="m36.631 10.2h-1.365c-0.325 0-0.588 0.263-0.588 0.587v0.731c0 0.324-0.262 0.587-0.587 0.587h-1.273c-0.325 0-0.587-0.263-0.587-0.587v-0.731c0-0.324-0.263-0.587-0.588-0.587h-15.332c-0.325 0-0.587 0.263-0.587 0.587v0.731c0 0.324-0.263 0.587-0.588 0.587h-1.273c-0.324 0-0.587-0.263-0.587-0.587v-0.731c0-0.324-0.263-0.587-0.588-0.587h-1.319c-0.325 0-0.588 0.263-0.588 0.587v26.426c0 0.324 0.263 0.587 0.588 0.587h1.319c0.325 0 0.588-0.263 0.588-0.587v-0.537c0-0.324 0.263-0.587 0.587-0.587h1.273c0.325 0 0.588 0.263 0.588 0.587v0.537c0 0.324 0.262 0.587 0.587 0.587h15.332c0.325 0 0.588-0.263 0.588-0.587v-0.537c0-0.324 0.262-0.587 0.587-0.587h1.273c0.325 0 0.587 0.263 0.587 0.587v0.537c0 0.324 0.263 0.587 0.588 0.587h1.365c0.325 0 0.588-0.263 0.588-0.587v-26.426c0-0.324-0.263-0.587-0.588-0.587zm-20.907 22.473c0 0.324-0.263 0.587-0.588 0.587h-1.273c-0.324 0-0.587-0.263-0.587-0.587v-1.274c0-0.324 0.263-0.587 0.587-0.587h1.273c0.325 0 0.588 0.263 0.588 0.587v1.274zm0-5.277c0 0.324-0.263 0.587-0.588 0.587h-1.273c-0.324 0-0.587-0.263-0.587-0.587v-1.274c0-0.324 0.263-0.587 0.587-0.587h1.273c0.325 0 0.588 0.263 0.588 0.587v1.274zm0-5.277c0 0.324-0.263 0.587-0.588 0.587h-1.273c-0.324 0-0.587-0.263-0.587-0.587v-1.273c0-0.325 0.263-0.588 0.587-0.588h1.273c0.325 0 0.588 0.263 0.588 0.588v1.273zm0-5.277c0 0.325-0.263 0.587-0.588 0.587h-1.273c-0.324 0-0.587-0.262-0.587-0.587v-1.273c0-0.325 0.263-0.587 0.587-0.587h1.273c0.325 0 0.588 0.262 0.588 0.587v1.273zm13.967 17.854c0 0.324-0.263 0.587-0.587 0.587h-10.208c-0.324 0-0.587-0.263-0.587-0.587v-4.72c0-0.324 0.263-0.587 0.587-0.587h10.208c0.324 0 0.587 0.263 0.587 0.587v4.72zm0-8.336c0 0.324-0.263 0.587-0.587 0.587h-10.208c-0.324 0-0.587-0.263-0.587-0.587v-4.72c0-0.324 0.263-0.587 0.587-0.587h10.208c0.324 0 0.587 0.263 0.587 0.587v4.72zm0-8.336c0 0.324-0.263 0.587-0.587 0.587h-10.208c-0.324 0-0.587-0.263-0.587-0.587v-4.72c0-0.324 0.263-0.587 0.587-0.587h10.208c0.324 0 0.587 0.263 0.587 0.587v4.72zm4.987 14.649c0 0.324-0.262 0.587-0.587 0.587h-1.273c-0.325 0-0.587-0.263-0.587-0.587v-1.274c0-0.324 0.262-0.587 0.587-0.587h1.273c0.325 0 0.587 0.263 0.587 0.587v1.274zm0-5.277c0 0.324-0.262 0.587-0.587 0.587h-1.273c-0.325 0-0.587-0.263-0.587-0.587v-1.274c0-0.324 0.262-0.587 0.587-0.587h1.273c0.325 0 0.587 0.263 0.587 0.587v1.274zm0-5.277c0 0.324-0.262 0.587-0.587 0.587h-1.273c-0.325 0-0.587-0.263-0.587-0.587v-1.273c0-0.325 0.262-0.588 0.587-0.588h1.273c0.325 0 0.587 0.263 0.587 0.588v1.273zm0-5.277c0 0.325-0.262 0.587-0.587 0.587h-1.273c-0.325 0-0.587-0.262-0.587-0.587v-1.273c0-0.325 0.262-0.587 0.587-0.587h1.273c0.325 0 0.587 0.262 0.587 0.587v1.273z" style="fill-opacity:.85;fill-rule:nonzero;fill:#fff"/>
 <path d="m46.788 33.673c0-2.989-2.427-5.416-5.416-5.416h-7.741c-2.989 0-5.416 2.427-5.416 5.416v7.741c0 2.989 2.427 5.416 5.416 5.416h7.741c2.989 0 5.416-2.427 5.416-5.416v-7.741z" style="fill:url(#_Linear2)"/>
 <path d="m37.515 31.083c1.359 4e-3 2.737 0.428 3.814 1.266 0.757 0.872-0.686 1.805-1.335 0.955-1.956-1.183-4.713-0.766-6.184 1.003-0.783 0.877-1.224 2.049-1.219 3.225h1.292l-2.067 3.101-2.068-3.101h1.292c-0.041-2.808 1.979-5.478 4.69-6.206 0.582-0.16 1.18-0.249 1.785-0.243zm5.672 3.36l2.068 3.102h-1.292c0.037 2.841-2.035 5.542-4.793 6.231-1.861 0.52-3.966 0.14-5.496-1.049-0.781-0.886 0.682-1.812 1.337-0.953 1.895 1.149 4.548 0.784 6.044-0.857 0.865-0.892 1.363-2.129 1.357-3.372h-1.292l2.067-3.102z" style="fill-opacity:.85;fill-rule:nonzero;fill:#fff"/>
 <defs>
  <linearGradient id="_Linear1" x2="1" gradientTransform="matrix(-1.66677,-40.0024,40.0024,-1.66677,65.6692,42.3345)" gradientUnits="userSpaceOnUse">
   <stop style="stop-color:#2e3e46" offset="0"/>
   <stop style="stop-color:#47606a" offset="1"/>
  </linearGradient>
  <linearGradient id="_Linear2" x2="1" gradientTransform="matrix(1.13724e-15,-18.5725,18.5725,1.13724e-15,543.511,46.8297)" gradientUnits="userSpaceOnUse">
   <stop style="stop-color:#016ed4" offset="0"/>
   <stop style="stop-color:#00b1ff" offset="1"/>
  </linearGradient>
 </defs>
</svg>
