<svg style="clip-rule:evenodd;fill-rule:evenodd;stroke-linejoin:round;stroke-miterlimit:1.41421" version="1.1" viewBox="0 0 48 48" xmlns="http://www.w3.org/2000/svg">
 <path d="m47 8.25c0-4.001-3.249-7.25-7.25-7.25h-31.5c-4.001 0-7.25 3.249-7.25 7.25v31.5c0 4.001 3.249 7.25 7.25 7.25h31.5c4.001 0 7.25-3.249 7.25-7.25v-31.5z" style="fill:url(#_Linear1)"/>
 <path d="m36.631 10.2h-1.365c-0.325 0-0.588 0.263-0.588 0.587v0.731c0 0.324-0.262 0.587-0.587 0.587h-1.273c-0.325 0-0.587-0.263-0.587-0.587v-0.731c0-0.324-0.263-0.587-0.588-0.587h-15.332c-0.325 0-0.587 0.263-0.587 0.587v0.731c0 0.324-0.263 0.587-0.588 0.587h-1.273c-0.324 0-0.587-0.263-0.587-0.587v-0.731c0-0.324-0.263-0.587-0.588-0.587h-1.319c-0.325 0-0.588 0.263-0.588 0.587v26.426c0 0.324 0.263 0.587 0.588 0.587h1.319c0.325 0 0.588-0.263 0.588-0.587v-0.537c0-0.324 0.263-0.587 0.587-0.587h1.273c0.325 0 0.588 0.263 0.588 0.587v0.537c0 0.324 0.262 0.587 0.587 0.587h15.332c0.325 0 0.588-0.263 0.588-0.587v-0.537c0-0.324 0.262-0.587 0.587-0.587h1.273c0.325 0 0.587 0.263 0.587 0.587v0.537c0 0.324 0.263 0.587 0.588 0.587h1.365c0.325 0 0.588-0.263 0.588-0.587v-26.426c0-0.324-0.263-0.587-0.588-0.587zm-20.907 22.473c0 0.324-0.263 0.587-0.588 0.587h-1.273c-0.324 0-0.587-0.263-0.587-0.587v-1.274c0-0.324 0.263-0.587 0.587-0.587h1.273c0.325 0 0.588 0.263 0.588 0.587v1.274zm0-5.277c0 0.324-0.263 0.587-0.588 0.587h-1.273c-0.324 0-0.587-0.263-0.587-0.587v-1.274c0-0.324 0.263-0.587 0.587-0.587h1.273c0.325 0 0.588 0.263 0.588 0.587v1.274zm0-5.277c0 0.324-0.263 0.587-0.588 0.587h-1.273c-0.324 0-0.587-0.263-0.587-0.587v-1.273c0-0.325 0.263-0.588 0.587-0.588h1.273c0.325 0 0.588 0.263 0.588 0.588v1.273zm0-5.277c0 0.325-0.263 0.587-0.588 0.587h-1.273c-0.324 0-0.587-0.262-0.587-0.587v-1.273c0-0.325 0.263-0.587 0.587-0.587h1.273c0.325 0 0.588 0.262 0.588 0.587v1.273zm13.967 17.854c0 0.324-0.263 0.587-0.587 0.587h-10.208c-0.324 0-0.587-0.263-0.587-0.587v-4.72c0-0.324 0.263-0.587 0.587-0.587h10.208c0.324 0 0.587 0.263 0.587 0.587v4.72zm0-8.336c0 0.324-0.263 0.587-0.587 0.587h-10.208c-0.324 0-0.587-0.263-0.587-0.587v-4.72c0-0.324 0.263-0.587 0.587-0.587h10.208c0.324 0 0.587 0.263 0.587 0.587v4.72zm0-8.336c0 0.324-0.263 0.587-0.587 0.587h-10.208c-0.324 0-0.587-0.263-0.587-0.587v-4.72c0-0.324 0.263-0.587 0.587-0.587h10.208c0.324 0 0.587 0.263 0.587 0.587v4.72zm4.987 14.649c0 0.324-0.262 0.587-0.587 0.587h-1.273c-0.325 0-0.587-0.263-0.587-0.587v-1.274c0-0.324 0.262-0.587 0.587-0.587h1.273c0.325 0 0.587 0.263 0.587 0.587v1.274zm0-5.277c0 0.324-0.262 0.587-0.587 0.587h-1.273c-0.325 0-0.587-0.263-0.587-0.587v-1.274c0-0.324 0.262-0.587 0.587-0.587h1.273c0.325 0 0.587 0.263 0.587 0.587v1.274zm0-5.277c0 0.324-0.262 0.587-0.587 0.587h-1.273c-0.325 0-0.587-0.263-0.587-0.587v-1.273c0-0.325 0.262-0.588 0.587-0.588h1.273c0.325 0 0.587 0.263 0.587 0.588v1.273zm0-5.277c0 0.325-0.262 0.587-0.587 0.587h-1.273c-0.325 0-0.587-0.262-0.587-0.587v-1.273c0-0.325 0.262-0.587 0.587-0.587h1.273c0.325 0 0.587 0.262 0.587 0.587v1.273z" style="fill-opacity:.85;fill-rule:nonzero;fill:#fff"/>
 <path d="m47.8 33.251c0-3.315-2.691-6.006-6.006-6.006h-8.585c-3.315 0-6.006 2.691-6.006 6.006v8.585c0 3.315 2.691 6.006 6.006 6.006h8.585c3.315 0 6.006-2.691 6.006-6.006v-8.585z" style="fill:url(#_Linear2)"/>
 <path d="m37.516 30.379c1.508 4e-3 3.036 0.474 4.23 1.404 0.84 0.967-0.76 2.002-1.48 1.059-2.169-1.312-5.227-0.85-6.859 1.112-0.868 0.973-1.357 2.272-1.351 3.577h1.433l-2.293 3.439-2.293-3.439h1.433c-0.046-3.114 2.194-6.076 5.201-6.883 0.645-0.177 1.309-0.276 1.979-0.269zm6.291 3.726l2.293 3.44h-1.433c0.041 3.151-2.256 6.146-5.315 6.91-2.064 0.577-4.399 0.156-6.095-1.163-0.866-0.983 0.756-2.009 1.483-1.057 2.101 1.275 5.043 0.87 6.702-0.95 0.96-0.99 1.512-2.361 1.505-3.74h-1.433l2.293-3.44z" style="fill-opacity:.85;fill-rule:nonzero;fill:#fff"/>
 <defs>
  <linearGradient id="_Linear1" x2="1" gradientTransform="matrix(-1.76923,-42.4615,42.4615,-1.76923,25.7692,45.2308)" gradientUnits="userSpaceOnUse">
   <stop style="stop-color:#2e3e46" offset="0"/>
   <stop style="stop-color:#47606a" offset="1"/>
  </linearGradient>
  <linearGradient id="_Linear2" x2="1" gradientTransform="matrix(1.26123e-15,-20.5974,20.5974,1.26123e-15,37.5016,47.8421)" gradientUnits="userSpaceOnUse">
   <stop style="stop-color:#016ed4" offset="0"/>
   <stop style="stop-color:#00b1ff" offset="1"/>
  </linearGradient>
 </defs>
</svg>
