<svg clip-rule="evenodd" fill-rule="evenodd" viewBox="0 0 48 48" xmlns="http://www.w3.org/2000/svg">
 <linearGradient id="a" x2="1" gradientTransform="matrix(0 -43.3373 43.3373 0 201.9 45.6687)" gradientUnits="userSpaceOnUse">
  <stop stop-color="#0a80fd" offset="0"/>
  <stop stop-color="#56c5fa" offset="1"/>
 </linearGradient>
 <path d="m45.668 8.56c0-3.438-2.79-6.228-6.228-6.228h-30.88c-3.438 0-6.228 2.79-6.228 6.228v30.88c0 3.438 2.79 6.228 6.228 6.228h30.88c3.438 0 6.228-2.79 6.228-6.228z" fill="url(#a)"/>
 <path d="m23.48 13.178c-5.977 0-10.822 4.845-10.822 10.822s4.845 10.822 10.822 10.822 10.822-4.845 10.822-10.822-4.845-10.822-10.822-10.822zm0 .902c4.544 0 8.375 3.055 9.549 7.223-1.011 2.087-2.451 3.966-4.204 5.485-.843.729-1.762 1.379-2.778 1.837s-2.133.718-3.246.654c-.835-.048-1.661-.281-2.393-.686 1.94-1.051 3.69-2.453 5.123-4.131.94-1.101 1.763-2.353 2.079-3.766.159-.707.186-1.447.038-2.156-.148-.708-.476-1.384-.972-1.911-.485-.516-1.121-.881-1.803-1.069s-1.407-.203-2.103-.076c-1.392.255-2.635 1.064-3.631 2.068-1.757 1.77-2.843 4.268-2.644 6.753.1 1.243.516 2.465 1.23 3.487.159.228.335.446.522.652-1.04.364-2.116.623-3.208.769-.938-1.515-1.479-3.301-1.479-5.213 0-5.479 4.441-9.92 9.92-9.92zm.063 2.004c.697.001 1.4.212 1.956.632.501.379.873.918 1.083 1.51.211.592.265 1.235.193 1.859-.144 1.248-.773 2.393-1.534 3.393-1.347 1.771-3.138 3.188-5.129 4.18-.204.102-.411.198-.619.291-.434-.379-.805-.829-1.088-1.33-.592-1.048-.787-2.292-.672-3.489.115-1.198.526-2.352 1.078-3.421.64-1.239 1.512-2.413 2.733-3.086.611-.337 1.302-.54 1.999-.539zm9.768 6.588c.058.434.089.878.089 1.328 0 5.479-4.441 9.92-9.92 9.92-3.077 0-5.827-1.4-7.646-3.599 1.123-.255 2.22-.622 3.273-1.088.461.351.969.638 1.51.845 1.556.597 3.324.511 4.899-.035 1.575-.545 2.972-1.524 4.19-2.662 1.451-1.356 2.674-2.955 3.605-4.709z" fill="#fff" fill-rule="nonzero" stroke="#fff" stroke-width=".36"/>
</svg>
