<?xml version="1.0" encoding="UTF-8" standalone="no"?><!DOCTYPE svg PUBLIC "-//W3C//DTD SVG 1.1//EN" "http://www.w3.org/Graphics/SVG/1.1/DTD/svg11.dtd"><svg width="100%" height="100%" viewBox="0 0 64 64" version="1.1" xmlns="http://www.w3.org/2000/svg" xmlns:xlink="http://www.w3.org/1999/xlink" xml:space="preserve" xmlns:serif="http://www.serif.com/" style="fill-rule:evenodd;clip-rule:evenodd;stroke-linejoin:round;stroke-miterlimit:1.41421;"><path d="M13.956,4c0,0 -2.742,0.19 -4.2,1.649l-3.921,3.921c-1.845,1.41 -1.835,4.23 -1.835,4.386l0,36.088c0,0.156 -0.01,2.976 1.835,4.386l3.921,3.921c1.458,1.459 4.2,1.649 4.2,1.649l36.088,0c0,0 2.742,-0.19 4.2,-1.649l3.921,-3.921c1.845,-1.41 1.835,-4.23 1.835,-4.386l0,-18.044l0,-18.044c0,-0.156 0.01,-2.976 -1.835,-4.386l-3.921,-3.921c-1.458,-1.459 -4.2,-1.649 -4.2,-1.649l-18.044,0l-18.044,0Z" style="fill:url(#_Linear1);fill-rule:nonzero;"/><path d="M4,15.2l0,28.8l19,0l0,16l27.044,0c0,0 2.742,-0.19 4.2,-1.649l0.156,-0.156l0,-7.995l-18.4,-1.2l0,-7l-1.2,1.2l0,-9.8l-16.8,-1.2l0,-18.2l-14,1.2Z" style="fill:#e53935;fill-rule:nonzero;"/><path d="M10.613,5.012c-0.308,0.182 -0.603,0.384 -0.855,0.636l-3.922,3.922c-1.845,1.41 -1.836,4.231 -1.836,4.387l0,1.242l12,10.801l0,8l10.668,0l7.332,8l0,8l10.668,0l8.719,8.988c0.308,-0.182 0.603,-0.384 0.855,-0.636l3.922,-3.922c1.845,-1.41 1.836,-4.231 1.836,-4.387l0,-1.242l-7.332,-6.801l-10.668,0l0,-8l-7.332,-8l-10.668,0l0,-8l-13.387,-12.988Z" style="fill:#fff;fill-rule:nonzero;"/><path d="M42,34l-8,8l0,8l8,-8l0,-8Z" style="fill:#c6c8cb;fill-rule:nonzero;"/><path d="M34.667,26l-8,8l7.333,8l8,-8l-7.333,-8Z" style="fill:#dadbdd;fill-rule:nonzero;"/><path d="M26.667,34l8,-8l-10.667,0l-8,8l10.667,0Z" style="fill:#b3b6bb;fill-rule:nonzero;"/><path d="M10.612,5.012c-0.308,0.182 -0.604,0.385 -0.856,0.637l-3.921,3.921c-1.845,1.41 -1.835,4.23 -1.835,4.386l0,1.244l12,10.8l8,-8l-13.388,-12.988Z" style="fill:#dadbdd;fill-rule:nonzero;"/><path d="M52.667,42l-8,8l8.721,8.988c0.308,-0.182 0.604,-0.385 0.856,-0.637l3.921,-3.921c1.845,-1.41 1.835,-4.23 1.835,-4.386l0,-1.244l-7.333,-6.8Z" style="fill:#dadbdd;fill-rule:nonzero;"/><path d="M24,18l-8,8l0,8l8,-8l0,-8Z" style="fill:#c6c8cb;fill-rule:nonzero;"/><path d="M44.667,50l8,-8l-10.667,0l-8,8l10.667,0Z" style="fill:#b3b6bb;fill-rule:nonzero;"/><defs><linearGradient id="_Linear1" x1="0" y1="0" x2="1" y2="0" gradientUnits="userSpaceOnUse" gradientTransform="matrix(56,0,0,56,4,32)"><stop offset="0" style="stop-color:#222;stop-opacity:1"/><stop offset="1" style="stop-color:#3f3f3f;stop-opacity:1"/></linearGradient></defs></svg>