
<svg style="clip-rule:evenodd;fill-rule:evenodd;stroke-linejoin:round;stroke-miterlimit:1.41421" version="1.1" viewBox="0 0 64 64" xmlns="http://www.w3.org/2000/svg">
 <path d="m13.956 4s-2.742 0.19-4.2 1.649l-3.921 3.921c-1.845 1.41-1.835 4.23-1.835 4.386v36.088c0 0.156-0.01 2.976 1.835 4.386l3.921 3.921c1.458 1.459 4.2 1.649 4.2 1.649h36.088s2.742-0.19 4.2-1.649l3.921-3.921c1.845-1.41 1.835-4.23 1.835-4.386v-36.088c0-0.156 0.01-2.976-1.835-4.386l-3.921-3.921c-1.458-1.459-4.2-1.649-4.2-1.649h-36.088z" style="fill-rule:nonzero;fill:url(#_Linear1)"/>
 <path d="m4 15.2v28.8h19v16h27.044s2.742-0.19 4.2-1.649l0.156-0.156v-7.995l-18.4-1.2v-7l-1.2 1.2v-9.8l-16.8-1.2v-18.2l-14 1.2z" style="fill-rule:nonzero;fill:#e53935"/>
 <path d="m10.613 5.012c-0.308 0.182-0.603 0.384-0.855 0.636l-3.922 3.922c-1.845 1.41-1.836 4.231-1.836 4.387v1.242l12 10.801v8h10.668l7.332 8v8h10.668l8.719 8.988c0.308-0.182 0.603-0.384 0.855-0.636l3.922-3.922c1.845-1.41 1.836-4.231 1.836-4.387v-1.242l-7.332-6.801h-10.668v-8l-7.332-8h-10.668v-8l-13.387-12.988z" style="fill-rule:nonzero;fill:#fff"/>
 <path d="m42 34l-8 8v8l8-8v-8z" style="fill-rule:nonzero;fill:#c6c8cb"/>
 <path d="m34.667 26l-8 8 7.333 8 8-8-7.333-8z" style="fill-rule:nonzero;fill:#dadbdd"/>
 <path d="m26.667 34l8-8h-10.667l-8 8h10.667z" style="fill-rule:nonzero;fill:#b3b6bb"/>
 <path d="m10.612 5.012c-0.308 0.182-0.604 0.385-0.856 0.637l-3.921 3.921c-1.845 1.41-1.835 4.23-1.835 4.386v1.244l12 10.8 8-8-13.388-12.988z" style="fill-rule:nonzero;fill:#dadbdd"/>
 <path d="m52.667 42l-8 8 8.721 8.988c0.308-0.182 0.604-0.385 0.856-0.637l3.921-3.921c1.845-1.41 1.835-4.23 1.835-4.386v-1.244l-7.333-6.8z" style="fill-rule:nonzero;fill:#dadbdd"/>
 <path d="m24 18l-8 8v8l8-8v-8z" style="fill-rule:nonzero;fill:#c6c8cb"/>
 <path d="m44.667 50l8-8h-10.667l-8 8h10.667z" style="fill-rule:nonzero;fill:#b3b6bb"/>
 <defs>
  <linearGradient id="_Linear1" x2="1" gradientTransform="matrix(56,0,0,56,4,32)" gradientUnits="userSpaceOnUse">
   <stop style="stop-color:#222" offset="0"/>
   <stop style="stop-color:#3f3f3f" offset="1"/>
  </linearGradient>
 </defs>
</svg>
