<svg style="clip-rule:evenodd;fill-rule:evenodd;stroke-linejoin:round;stroke-miterlimit:1.41421" version="1.1" viewBox="0 0 48 48" xmlns="http://www.w3.org/2000/svg">
 <ellipse cx="24" cy="24" rx="21.12" ry="21.12" style="fill:url(#_Linear1)"/>
 <path d="m24.639 28.02c0.38-0.883 0.402-1.188 0.425-5.8 0.027-5.3-2e-3 -5.464-0.961-5.464s-0.989 0.166-0.966 5.456c0.02 4.62 0.041 4.905 0.426 5.799 0.222 0.518 0.465 0.941 0.54 0.941 0.074 0 0.315-0.42 0.536-0.932zm-6.023 4.872c-2.683-0.532-4.993-2.938-5.424-5.65-0.096-0.605-0.128-3.349-0.073-6.316v-5.246s2e-3 -1e-3 0.877 0c0.296 0 0.791 0.107 0.793 0.404 0.016 3.58 0 3.587 0 3.587 0 5.24 0.191 7.755 0.596 8.596 0.47 0.977 1.483 1.932 2.583 2.436 0.831 0.38 1.162 0.433 2.254 0.363 0.704-0.046 1.546-0.222 1.872-0.391l0.592-0.307-0.367-0.593c-0.923-1.493-0.96-1.797-0.921-7.549 0.032-4.75 0.073-5.443 0.349-5.918 1.042-1.791 3.669-1.791 4.712 0 0.275 0.474 0.317 1.163 0.349 5.829 0.039 5.645-1e-3 5.969-0.913 7.444-0.197 0.318-0.358 0.663-0.358 0.765 0 0.295 1.589 0.758 2.601 0.758 1.398 0 2.502-0.457 3.489-1.443 1.386-1.386 1.443-1.697 1.446-7.87 0-2.917 0.051-5.485 0.11-5.707 0.091-0.34 0.231-0.404 0.882-0.404h0.831v5.156c0.031 2.836-1e-3 5.665-0.071 6.286-0.253 2.222-2.097 4.623-4.135 5.386-2.003 0.75-3.732 0.668-5.666-0.268l-0.962-0.465-1.011 0.471c-1.669 0.777-2.881 0.954-4.435 0.646z" style="fill-rule:nonzero;fill:url(#_Linear2)"/>
 <path d="m24 2c-12.14 0-22 9.86-22 22s9.86 22 22 22 22-9.86 22-22-9.86-22-22-22zm0 1.76c11.189 0 20.238 9.051 20.238 20.24s-9.049 20.238-20.238 20.238-20.24-9.049-20.24-20.238 9.051-20.24 20.24-20.24z" style="fill-rule:nonzero;fill:url(#_Linear3)"/>
 <defs>
  <linearGradient id="_Linear1" x2="1" gradientTransform="matrix(2.56803e-15,-41.9391,41.9391,2.56803e-15,24.5836,44.4174)" gradientUnits="userSpaceOnUse">
   <stop style="stop-color:#d3d3d3" offset="0"/>
   <stop style="stop-color:#fcf9f9" offset="1"/>
  </linearGradient>
  <linearGradient id="_Linear2" x2="1" gradientTransform="matrix(-.00484957 -43.462 43.462 -.00484957 24.5106 45.7609)" gradientUnits="userSpaceOnUse">
   <stop offset="0"/>
   <stop style="stop-color:#333" offset="1"/>
  </linearGradient>
  <linearGradient id="_Linear3" x2="1" gradientTransform="matrix(-.0826675 -42.9643 42.9643 -.0826675 24.0871 45.6212)" gradientUnits="userSpaceOnUse">
   <stop offset="0"/>
   <stop style="stop-color:#535353" offset="1"/>
  </linearGradient>
 </defs>
</svg>
