<svg style="clip-rule:evenodd;fill-rule:evenodd;stroke-linejoin:round;stroke-miterlimit:2" version="1.1" viewBox="0 0 48 48" xmlns="http://www.w3.org/2000/svg">
 <path d="m39.44 45.668h-30.88c-3.438 0-6.228-2.79-6.228-6.228v-30.88c0-3.438 2.79-6.228 6.228-6.228h30.88c3.438 0 6.228 2.79 6.228 6.228v30.88c0 3.438-2.79 6.228-6.228 6.228z" style="fill:url(#_Linear1)"/>
 <path d="m33.468 28.748-5e-3 -0.97 3.466-0.019 2e-3 0.967 1.872-0.013c1.8-5e-3 3.269 1.447 3.278 3.244l0.038 6.518c0.012 1.8-1.44 3.269-3.24 3.281l-7.207 0.041c-1.8 0.011-3.266-1.444-3.278-3.244l-0.038-6.518c-0.012-1.8 1.443-3.265 3.243-3.277l1.869-0.01zm-0.947 2.868c0.932-9e-3 1.697 0.749 1.7 1.681 9e-3 0.933-0.749 1.697-1.681 1.7-0.933 0.01-1.697-0.748-1.7-1.681-0.01-0.932 0.748-1.697 1.681-1.7zm5.774-0.037c0.932-3e-3 1.697 0.748 1.703 1.684s-0.748 1.697-1.684 1.703c-0.937 6e-3 -1.697-0.748-1.704-1.684-3e-3 -0.933 0.749-1.697 1.685-1.703z" style="fill:white"/>
 <defs>
  <linearGradient id="_Linear1" x2="1" gradientTransform="matrix(2.06275e-15,-33.6872,33.6872,2.06275e-15,766.162,40.4502)" gradientUnits="userSpaceOnUse">
   <stop style="stop-color:rgb(0,103,131)" offset="0"/>
   <stop style="stop-color:rgb(32,204,255)" offset="1"/>
  </linearGradient>
 </defs>
</svg>
