<svg style="clip-rule:evenodd;fill-rule:evenodd;stroke-linecap:round;stroke-linejoin:round" version="1.1" viewBox="0 0 48 48" xmlns="http://www.w3.org/2000/svg">
 <path d="m45.668 8.56c0-3.438-2.79-6.228-6.228-6.228h-30.88c-3.438 0-6.228 2.79-6.228 6.228v30.88c0 3.438 2.79 6.228 6.228 6.228h30.88c3.438 0 6.228-2.79 6.228-6.228v-30.88z" style="fill:url(#_Linear1)"/>
 <path d="m16.586 35.461c-5.06-3.273-7.382-9.528-5.683-15.31s7.035-9.786 13.061-9.802c6.026-0.015 11.384 3.961 13.112 9.734 1.73 5.773-0.558 12.039-5.602 15.339" style="fill:none;stroke-width:4.2px;stroke:#ececec"/>
 <path d="m19.748 30.244c-2.746-1.86-3.97-5.316-3.003-8.489 0.965-3.173 3.906-5.361 7.222-5.376s6.276 2.148 7.269 5.313c0.994 3.165-0.199 6.63-2.93 8.514" style="fill:none;stroke-width:4.34px;stroke:#ececec"/>
 <circle cx="24" cy="24" r="3.75" style="fill:#fff"/>
 <defs>
  <linearGradient id="_Linear1" x2="1" gradientTransform="matrix(.17988 -41.6721 41.6721 .17988 191.918 45.3458)" gradientUnits="userSpaceOnUse">
   <stop style="stop-color:#2f2f2f" offset="0"/>
   <stop style="stop-color:#4f4f4f" offset="1"/>
  </linearGradient>
 </defs>
</svg>
