<?xml version="1.0" encoding="UTF-8" standalone="no"?><!DOCTYPE svg PUBLIC "-//W3C//DTD SVG 1.1//EN" "http://www.w3.org/Graphics/SVG/1.1/DTD/svg11.dtd"><svg width="100%" height="100%" viewBox="0 0 48 48" version="1.1" xmlns="http://www.w3.org/2000/svg" xmlns:xlink="http://www.w3.org/1999/xlink" xml:space="preserve" xmlns:serif="http://www.serif.com/" style="fill-rule:evenodd;clip-rule:evenodd;stroke-linecap:round;stroke-linejoin:round;"><path d="M40.189,2.502c-0.195,0 -0.417,0 -0.669,0.023l-16.261,1.525l-16.778,0c-2.074,-0.154 -2.915,0.038 -2.915,1.916l0,36.12c-0.13,2.062 0.73,2.019 2.746,2.019l17.117,0l16.228,1.895c1.574,0 1.892,-0.601 1.89,-1.909l1.384,0c1.349,0 1.586,0.045 1.499,-2.017l0,-36.121c0,-1.879 -0.112,-2.07 -1.499,-1.917l-1.306,0c-0.054,-1.074 -0.307,-1.511 -1.436,-1.535l0,0.001Z" style="fill-opacity:0.67;"/><path d="M43.057,43.591l-11.985,0l0,-40.055l11.985,0c1.272,-0.154 1.375,0.038 1.375,1.917l0,36.12c0.08,2.062 -0.138,2.018 -1.375,2.018Z" style="fill:url(#_Linear1);"/><path d="M40.19,2.002c-0.195,-0.004 -0.418,0.002 -0.67,0.021l-16.262,1.526l-16.777,0c-2.074,-0.154 -2.914,0.038 -2.914,1.916l0,36.121c-0.13,2.062 0.73,2.018 2.746,2.018l17.113,0l16.233,1.896c1.956,0 1.972,-0.926 1.845,-2.988l0.137,-38.209c0,-1.644 -0.083,-2.272 -1.451,-2.301Z" style="fill:url(#_Linear2);"/><path d="M39.658,45.5l-16.399,-1.915l0,-40.036l16.262,-1.525c2.011,-0.153 2.12,0.4 2.12,2.279l-0.137,38.209c0.126,2.062 0.11,2.988 -1.846,2.988l0,0Z" style="fill-opacity:0.04;"/><path d="M15.316,32.684l0,-8.684l12.158,0c0,0 5.21,0 5.21,-4.342c0,-4.342 -5.21,-4.342 -5.21,-4.342l-12.158,0" style="fill:none;fill-rule:nonzero;stroke:#fff;stroke-opacity:0.8;stroke-width:4.63px;"/><defs><linearGradient id="_Linear1" x1="0" y1="0" x2="1" y2="0" gradientUnits="userSpaceOnUse" gradientTransform="matrix(0.67771,38.5647,-38.5647,0.67771,42.9728,5.47179)"><stop offset="0" style="stop-color:#f6fbff;stop-opacity:1"/><stop offset="1" style="stop-color:#eaeff2;stop-opacity:1"/></linearGradient><linearGradient id="_Linear2" x1="0" y1="0" x2="1" y2="0" gradientUnits="userSpaceOnUse" gradientTransform="matrix(2.40281e-15,-39.2409,39.2409,2.40281e-15,15.2246,42.6529)"><stop offset="0" style="stop-color:#c23b16;stop-opacity:1"/><stop offset="1" style="stop-color:#ff6a44;stop-opacity:1"/></linearGradient></defs></svg>