<svg style="clip-rule:evenodd;fill-rule:evenodd;stroke-linejoin:round;stroke-miterlimit:2" version="1.1" viewBox="0 0 48 48" xmlns="http://www.w3.org/2000/svg">
 <path d="m39.44 2.332c3.438 0 6.228 2.79 6.228 6.228v30.88c0 3.438-2.79 6.228-6.228 6.228h-30.88c-3.438 0-6.228-2.79-6.228-6.228v-30.88c0-3.438 2.79-6.228 6.228-6.228h30.88z" style="fill:url(#_Linear1)"/>
 <path d="m22.063 42.132h-15.126c-0.793 0-1.437-0.644-1.437-1.437v-3.126c0-0.793 0.644-1.437 1.437-1.437h15.126c0.793 0 1.437 0.644 1.437 1.437v3.126c0 0.793-0.644 1.437-1.437 1.437zm19 0h-15.126c-0.793 0-1.437-0.644-1.437-1.437v-3.126c0-0.793 0.644-1.437 1.437-1.437h15.126c0.793 0 1.437 0.644 1.437 1.437v3.126c0 0.793-0.644 1.437-1.437 1.437zm-30.563-1v-4h-4v4h4zm19 0v-4h-4v4h4z" style="fill:#e4e4e4"/>
 <defs>
  <linearGradient id="_Linear1" x2="1" gradientTransform="matrix(2.21762e-15,-36.2165,36.2165,2.21762e-15,703.214,42.119)" gradientUnits="userSpaceOnUse">
   <stop style="stop-color:#566069" offset="0"/>
   <stop style="stop-color:#6c7884" offset="1"/>
  </linearGradient>
 </defs>
</svg>
