<svg clip-rule="evenodd" fill-rule="evenodd" stroke-linejoin="round" stroke-miterlimit="2" viewBox="0 0 48 48" xmlns="http://www.w3.org/2000/svg">
 <g fill-rule="nonzero">
  <path d="m39.44 45.668h-15.476v-7.952l7.922-6.953 13.621 5.891.161.074v2.712c0 3.438-2.79 6.228-6.228 6.228z" fill="#c4bea2"/>
  <path d="m2.332 39.44v-4.301l7.476-2.973.197-.409 13.995 6.327v7.584h-15.44c-3.438 0-6.228-2.79-6.228-6.228z" fill="#b0ab84"/>
  <path transform="matrix(1.0834 0 0 1.0834 -2.0016 -2.0016)" d="m44 8.414-15.165 13.648 2.023 8.475 13.142 5.207z" fill="#e9e6dd"/>
  <path transform="matrix(1.0834 0 0 1.0834 -2.0016 -2.0016)" d="m4 10.462v23.819l7.023-2.616-.121-.055 8.206-12.271z" fill="#d6d2c0"/>
  <path d="m39.44 2.332c3.052 0 5.593 2.198 6.125 5.096l-15.173 14.514-9.204-5.321.216-14.289z" fill="#0d49df"/>
  <path d="m8.56 2.332h13.273v14.984l-5.391 1.457-14.11-9.223v-.99c0-3.438 2.79-6.228 6.228-6.228z" fill="#cc3a1a"/>
  <path transform="matrix(1.0834 0 0 1.0834 -2.0016 -2.0016)" d="m16.504 18.897 5.496-1.897 8 5 2 9-8 7-14-6z" fill="#fff"/>
 </g>
</svg>
