<!DOCTYPE svg  PUBLIC '-//W3C//DTD SVG 1.1//EN'  'http://www.w3.org/Graphics/SVG/1.1/DTD/svg11.dtd'>
<svg style="clip-rule:evenodd;fill-rule:evenodd;stroke-linejoin:round;stroke-miterlimit:2" version="1.1" viewBox="0 0 48 48" xmlns="http://www.w3.org/2000/svg">
 <path d="m46.645 12.677c0-6.249-5.073-11.322-11.322-11.322h-22.646c-6.249 0-11.322 5.073-11.322 11.322v22.646c0 6.249 5.073 11.322 11.322 11.322h22.646c6.249 0 11.322-5.073 11.322-11.322v-22.646z" style="fill:url(#_Linear1)"/>
 <path d="m31.524 12.212c-0.766 0.143-1.53 0.308-1.924 0.308-3.232 0-6.994 1.36-9.223 4.09-1.903 2.331-2.513 5.822-2.651 8.548 0.137-1.352 1.945-1.622 2.871-2.382 1.007-0.826 1.892-3.815 3.403-3.815 0.189 0 0.379 9e-3 0.567 0.028 6e-3 1e-3 0.011 1e-3 0.017 2e-3 5.912 0.305 10.266 4.62 10.266 10.609 0 1.2-0.195 2.353-0.544 3.437 0.098 0.044 0.191 0.077 0.284 0.109l6e-3 -6e-3c0.197-0.229 0.378-0.469 0.559-0.709 0.089-0.113 0.176-0.227 0.261-0.343 0.153-0.216 0.293-0.44 0.433-0.664 0.098-0.152 0.192-0.306 0.283-0.462 0.123-0.214 0.237-0.432 0.348-0.651 0.088-0.174 0.173-0.349 0.254-0.526 0.101-0.222 0.195-0.446 0.284-0.672 0.074-0.187 0.143-0.376 0.208-0.566 0.075-0.218 0.149-0.437 0.213-0.659 0.062-0.219 0.118-0.441 0.169-0.663 0.047-0.199 0.098-0.398 0.136-0.6 0.047-0.261 0.087-0.523 0.119-0.786 0.024-0.175 0.055-0.349 0.071-0.525 0.043-0.437 0.065-0.875 0.066-1.314-1e-3 -0.294-0.012-0.588-0.031-0.882-1e-3 -1e-3 0-3e-3 0-4e-3 -6e-3 -0.083-0.015-0.166-0.022-0.249-0.031-0.389-0.078-0.777-0.141-1.162-0.015-0.087-0.033-0.172-0.049-0.258l-3e-3 -0.015c-0.06-0.317-0.13-0.632-0.212-0.944 0-1e-3 -1e-3 -1e-3 -1e-3 -2e-3 -0.042-0.161-0.087-0.32-0.134-0.479-0.079-0.263-0.166-0.523-0.26-0.781-0.073-0.2-0.15-0.399-0.233-0.596-0.093-0.226-0.193-0.449-0.299-0.67-0.078-0.162-0.156-0.326-0.241-0.486-1e-3 -3e-3 -2e-3 -7e-3 -4e-3 -0.01l-1e-3 -1e-3c-0.13-0.244-0.267-0.484-0.412-0.719-2e-3 -5e-3 -5e-3 -9e-3 -8e-3 -0.013-0.112-0.184-0.228-0.367-0.35-0.547l-3e-3 -4e-3c0-2e-3 -1e-3 -3e-3 -2e-3 -5e-3 -0.142-0.209-0.29-0.415-0.443-0.617-0.142-0.187-0.289-0.369-0.441-0.549-1e-3 -3e-3 -3e-3 -5e-3 -5e-3 -7e-3 -0.05-0.058-0.101-0.116-0.152-0.173-0.282-0.324-0.578-0.637-0.891-0.936-4e-3 -4e-3 -8e-3 -7e-3 -0.013-0.011-0.022-0.022-0.045-0.043-0.068-0.064-0.168-0.158-0.339-0.314-0.515-0.464 3e-3 -3e-3 5e-3 -6e-3 8e-3 -9e-3 -0.49-0.412-1.008-0.79-1.55-1.131zm2.63 21.011c-0.068 0.076-0.137 0.152-0.206 0.227 0.069-0.075 0.138-0.151 0.206-0.227zm-0.794 0.822c-0.087 0.082-0.174 0.164-0.263 0.244-5e-3 0.011-8e-3 0.023-0.013 0.033 0.093-0.091 0.185-0.183 0.276-0.277z" style="fill-rule:nonzero;fill:#ffc42e"/>
 <path d="m24.573 18.429c2.824 0.286 4.116 2.741 4.116 5.641 0 0.189-9e-3 0.379-0.028 0.567-1e-3 6e-3 -1e-3 0.011-2e-3 0.017-0.305 5.912-4.27 10.266-10.259 10.266-1.2 0-2.944-0.91-4.028-1.259 0.036 0.03-0.014 0.178-0.101 0.385 2.606 2.53 6.097 3.948 9.729 3.954 0.294-1e-3 0.588-0.012 0.882-0.031 1e-3 -1e-3 3e-3 0 4e-3 0 0.083-6e-3 0.166-0.015 0.249-0.022 0.389-0.031 0.777-0.078 1.162-0.141 0.087-0.015 0.172-0.033 0.258-0.049l0.015-3e-3c0.317-0.06 0.632-0.13 0.944-0.212 1e-3 0 1e-3 -1e-3 2e-3 -1e-3 0.161-0.042 0.32-0.087 0.479-0.134 0.263-0.079 0.523-0.166 0.781-0.26 0.2-0.073 0.399-0.15 0.596-0.233 0.226-0.093 0.449-0.193 0.67-0.299 0.162-0.078 0.326-0.156 0.486-0.241 3e-3 -1e-3 7e-3 -2e-3 0.01-4e-3l1e-3 -1e-3c0.244-0.13 0.484-0.267 0.719-0.412 5e-3 -2e-3 9e-3 -5e-3 0.013-8e-3 0.184-0.112 0.367-0.228 0.547-0.35l4e-3 -3e-3c2e-3 0 3e-3 -1e-3 5e-3 -2e-3 0.209-0.142 0.415-0.29 0.617-0.443 0.187-0.142 0.369-0.289 0.549-0.44 3e-3 -2e-3 5e-3 -4e-3 7e-3 -6e-3 0.058-0.05 0.116-0.101 0.173-0.152 0.324-0.282 0.637-0.578 0.936-0.891 4e-3 -4e-3 7e-3 -8e-3 0.011-0.012 0.022-0.023 0.043-0.046 0.064-0.069 0.158-0.168 0.314-0.339 0.464-0.515 0.355-1.092 0.552-2.255 0.552-3.466 0-5.992-4.709-10.871-10.627-11.171zm-10.895 14.724c0.091 0.094 0.183 0.186 0.277 0.276-0.082-0.086-0.164-0.173-0.244-0.262-0.011-5e-3 -0.023-9e-3 -0.033-0.014z" style="fill-rule:nonzero;fill:#ff8514"/>
 <path d="m14.847 13.678c-0.094 0.091-0.186 0.183-0.276 0.277 0.086-0.082 0.173-0.164 0.262-0.244 5e-3 -0.011 9e-3 -0.023 0.014-0.033zm-0.864 0.872c-0.07 0.075-0.139 0.151-0.207 0.227 0.068-0.076 0.137-0.152 0.207-0.227zm-0.454 0.176c-2.269 2.556-3.524 5.857-3.529 9.274 1e-3 0.294 0.012 0.588 0.031 0.882 6e-3 0.084 0.015 0.168 0.022 0.253 0.031 0.389 0.078 0.777 0.141 1.162 0.016 0.092 0.035 0.182 0.052 0.273 0.06 0.317 0.131 0.632 0.212 0.944 0.042 0.161 0.088 0.321 0.135 0.481 0.079 0.263 0.166 0.523 0.26 0.781 0.073 0.2 0.15 0.399 0.233 0.596 0.093 0.226 0.193 0.449 0.299 0.67 0.08 0.166 0.158 0.333 0.245 0.496l1e-3 1e-3c0.13 0.244 0.267 0.484 0.412 0.719 0.115 0.189 0.234 0.376 0.358 0.56 0.143 0.212 0.293 0.421 0.448 0.626 0.144 0.189 0.292 0.374 0.446 0.556 0.05 0.058 0.101 0.115 0.152 0.172 0.282 0.325 0.578 0.638 0.891 0.937l0.081 0.075c0.168 0.158 0.339 0.314 0.515 0.464 1.092 0.355 2.255 0.552 3.466 0.552 5.992 0 10.871-4.709 11.171-10.627-0.286 2.824-2.672 4.816-5.571 4.816-0.189 0-0.379-9e-3 -0.567-0.028-6e-3 -1e-3 -0.011-1e-3 -0.017-2e-3 -5.912-0.305-10.336-4.97-10.336-10.959 0-1.2 0.195-2.353 0.544-3.437-0.031-0.088-0.063-0.154-0.095-0.237z" style="fill-rule:nonzero;fill:#ff5757"/>
 <path d="m23.427 29.571c-0.745-0.075 3.225-0.946 2.624-1.285-1.677-0.945-7.371-2.152-7.371-4.286 0-0.189-0.27-0.379-0.251-0.567 0-6e-3 1e-3 -0.011 1e-3 -0.017 0.306-5.912 5.181-10.616 11.17-10.616 1.2 0 2.353 0.195 3.437 0.544-2.522-2.149-5.724-3.334-9.037-3.344-4.101 6e-3 -7.992 1.809-10.648 4.934-0.355 1.092-0.552 2.255-0.552 3.466 0 5.992 4.709 10.871 10.627 11.171zm10.895-15.005c-0.091-0.093-0.183-0.185-0.277-0.276 0.082 0.087 0.164 0.174 0.244 0.263 0.011 5e-3 0.023 8e-3 0.033 0.013zm-0.872-0.864c-0.075-0.069-0.151-0.138-0.227-0.206 0.076 0.068 0.152 0.137 0.227 0.206z" style="fill-rule:nonzero;fill:#baff41"/>
 <circle cx="24" cy="24" r="6" style="fill:#3f3f3f"/>
 <circle cx="37" cy="11" r="2" style="fill:#f44336"/>
 <defs>
  <linearGradient id="_Linear1" x2="1" gradientTransform="matrix(2.77323e-15,-45.2903,45.2903,2.77323e-15,85.3684,46.6452)" gradientUnits="userSpaceOnUse">
   <stop style="stop-color:#252525" offset="0"/>
   <stop style="stop-color:#676767" offset="1"/>
  </linearGradient>
 </defs>
</svg>
