<!DOCTYPE svg  PUBLIC '-//W3C//DTD SVG 1.1//EN'  'http://www.w3.org/Graphics/SVG/1.1/DTD/svg11.dtd'>
<svg style="clip-rule:evenodd;fill-rule:evenodd;stroke-linejoin:round;stroke-miterlimit:2" version="1.1" viewBox="0 0 48 48" xmlns="http://www.w3.org/2000/svg">
 <path d="m45.668 8.56c0-3.438-2.79-6.228-6.228-6.228h-30.88c-3.438 0-6.228 2.79-6.228 6.228v30.88c0 3.438 2.79 6.228 6.228 6.228h30.88c3.438 0 6.228-2.79 6.228-6.228v-30.88z" style="fill:url(#_Linear1)"/>
 <path d="m24.573 18.429c2.824 0.286-0.184 16.491-6.173 16.491-1.2 0-4.042-1.081-4.129-0.874 2.606 2.53 7.923 4.458 12.299 3.708 4.653-0.798 6.386-2.887 8.078-4.688 0.786-0.837 0.552-2.255 0.552-3.466 0-5.992-4.709-10.871-10.627-11.171z" style="fill-rule:nonzero;fill:#fff"/>
 <path d="m14.99 34.815c6.34 0.492 9.069-0.238 11.702-2.581 2.247-2.001 3.303-4.937 3.285-7.973-0.349 1.313-4.999 5.317-6.491 5.079-0.187-0.03-0.373-0.069-0.556-0.118-6e-3 -2e-3 -0.011-2e-3 -0.016-4e-3 -5.79-1.236-9.407-6.185-8.461-12.099 0.19-1.184 0.82-3.451 0.818-3.449-3.46 3.97-4.749 6.274-4.985 10.78-0.238 4.556 2.606 8.078 4.704 10.365z" style="fill-rule:nonzero;fill:#ccc"/>
 <path d="m22.836 29.774c-2.744-0.728 2.788-16.254 8.701-15.308 1.185 0.19 3.821 1.706 3.939 1.516-2.173-2.91-7.119-5.655-11.558-5.605-4.72 0.052-6.762 1.841-8.717 3.352-0.909 0.702-0.902 2.139-1.093 3.335-0.947 5.917 2.932 11.479 8.728 12.71z" style="fill-rule:nonzero;fill:#fff"/>
 <path d="m31.524 12.212c-0.766 0.143-1.53 0.308-1.924 0.308-3.232 0-6.994 1.36-9.223 4.09-1.903 2.331-2.781 5.871-2.236 8.524 0.137-1.352 4.348-6.173 5.859-6.173 0.189 0 0.379 9e-3 0.567 0.028 6e-3 1e-3 0.011 1e-3 0.017 2e-3 5.912 0.305 10.266 4.62 10.266 10.609 0 1.2-0.264 3.537-0.262 3.535 2.789-4.467 3.697-6.946 3.218-11.432-0.485-4.536-3.85-7.564-6.282-9.491z" style="fill-rule:nonzero;fill:#ccc"/>
 <circle cx="24" cy="24" r="6" style="fill:#2c2c2c"/>
 <path d="m35.275 8.301l-11.062 11.062 4.424 4.424 11.062-11.062-4.424-4.424z" style="fill-rule:nonzero;fill:#ff3636"/>
 <path d="m24.213 19.363l-1.108 3.319-0.367 1.105 1.475 1.475 1.105-0.367 3.319-1.108-2.211-2.213-2.213-2.211z" style="fill-rule:nonzero;fill:#dac0a6"/>
 <path d="m35.275 8.3l4.425 4.425 3.687-3.687c0.817-0.817 0.817-2.133 0-2.95l-1.475-1.475c-0.817-0.817-2.133-0.817-2.95 0l-3.687 3.687z" style="fill-rule:nonzero;fill:#0083de"/>
 <path d="m36.008 7.564l-0.738 0.737 4.426 4.426 0.737-0.738-4.425-4.425z" style="fill:#fff"/>
 <path d="m22.737 23.788l-0.737 2.212 2.212-0.737-1.475-1.475z" style="fill-rule:nonzero;fill:#0083de"/>
 <defs>
  <linearGradient id="_Linear1" x2="1" gradientTransform="matrix(2.65364e-15,-43.3373,43.3373,2.65364e-15,201.9,45.6687)" gradientUnits="userSpaceOnUse">
   <stop style="stop-color:#994125" offset="0"/>
   <stop style="stop-color:#f8a084" offset="1"/>
  </linearGradient>
 </defs>
</svg>
