<svg clip-rule="evenodd" fill-rule="evenodd" stroke-linejoin="round" stroke-miterlimit="2" viewBox="0 0 48 48" xmlns="http://www.w3.org/2000/svg">
 <linearGradient id="a" x2="1" gradientTransform="matrix(0 -42.938 42.938 0 24 45.4392)" gradientUnits="userSpaceOnUse">
  <stop stop-color="#49189e" offset="0"/>
  <stop stop-color="#7139d2" offset="1"/>
 </linearGradient>
 <path d="m39.44 2.332c3.438 0 6.228 2.79 6.228 6.228v30.88c0 3.438-2.79 6.228-6.228 6.228h-30.88c-3.438 0-6.228-2.79-6.228-6.228v-30.88c0-3.438 2.79-6.228 6.228-6.228z" fill="url(#a)"/>
 <path d="m36 13c0-.552-.448-1-1-1h-22c-.552 0-1 .448-1 1v14c0 .552.448 1 1 1h22c.552 0 1-.448 1-1z" fill="#fff"/>
 <g fill-rule="nonzero">
  <path d="m14 14h20v3l-10 5-10-5z" fill="#a766fa"/>
  <path d="m13.523 31.8v.001s-.001-.001-.001-.001v.001c-.262.489-1.226 2.064-1.84 3.073-.623-1.031-1.36-2.222-1.84-3.074l-.004.001.003-.001c-.382.082-.541.087-.921 0l.002.003c-.001-.001-.002-.002-.003-.003.754 1.137 1.964 3.303 2.375 4.014l-.055 2.964.003-.001-.002.001s.265-.044.443-.044c.196 0 .441.044.441.044h-.001.002l-.055-2.964-.003-.001c.767-1.345 2.032-3.538 2.381-4.011l.002-.002c-.331.075-.629.078-.925.001zm25.076.073c-.221 0-.44.129-.44.461-.131 1.662-.268 3.329-.492 4.916l-.001.001h.001l.003-.001c.135-.022.239.013.341.054l-.001-.001c.255-1.611.861-4.025 1.016-4.708.022-.096.055-.21.055-.29 0-.244-.154-.386-.386-.424s-.057-.008-.096-.008zm-5.002.257c-1.945 0-3.432 1.104-3.432 3.157 0 1.692.989 3.181 3.448 3.181 2.082 0 3.441-1.145 3.441-3.151 0-1.892-1.268-3.187-3.457-3.187zm-6.743.332c-1.953 0-2.977 1.238-2.977 2.844 0 1.757 1.118 2.828 2.975 2.828 2.006 0 2.986-1.207 2.986-2.81 0-1.787-1.17-2.862-2.983-2.862zm6.745.011c1.461 0 2.537.887 2.537 2.844 0 2.127-1.302 2.817-2.535 2.817-1.317 0-2.516-.773-2.516-2.859 0-2.162 1.33-2.802 2.514-2.802zm-18.118.061c-.741 1.861-1.595 3.961-2.364 5.526v.001l.003-.001s0 0-.002 0l.006-.002-.003.002c.351-.087.686-.06.908 0-.001-.001-.002-.002-.003-.002l.003.001c.196-.495.418-1.055.642-1.62l.001.001c.754-.021 1.508-.024 2.263 0 .214.54.429 1.081.639 1.621.001 0 .001 0 .001-.001v.001c.337-.088.671-.064.919-.002h-.001.001c-.554-1.033-1.665-3.737-2.371-5.524l-.005.002.004-.002c-.229.08-.416.075-.641 0zm3.345.003c.08 1.844.073 3.685 0 5.523.299-.072.605-.075.919.001l-.002-.002.003.002c-.045-.858-.068-1.714-.071-2.569 1.029-.015 2.058-.015 3.086-.002-.003.856-.025 1.713-.071 2.571l.003-.001-.002.001c.314-.076.621-.072.919 0h.001c-.073-1.839-.08-3.68 0-5.524-.313.075-.619.072-.921 0h.001-.001c.045.858.068 1.718.071 2.578-1.03.024-2.059.026-3.086 0 .003-.86.026-1.72.071-2.578h-.001c-.301.072-.608.075-.92 0zm7.981.26h.051c1.194 0 2.071.813 2.071 2.513 0 1.698-.876 2.511-2.069 2.511-1.302 0-2.067-.933-2.067-2.506 0-1.78.943-2.496 2.014-2.518zm-11.006.692c.305.85.641 1.707.982 2.566h-.001c-.653.022-1.305.023-1.958 0h-.001c.399-1.012.779-1.99.979-2.566zm21.837 4.429c-.289 0-.434.221-.434.458 0 .28.224.424.501.424.2 0 .418-.122.418-.452 0-.264-.208-.43-.485-.43z" fill="#fff"/>
 </g>
</svg>
