<svg style="clip-rule:evenodd;fill-rule:evenodd;stroke-linejoin:round;stroke-miterlimit:1.41421" version="1.1" viewBox="0 0 48 48" xmlns="http://www.w3.org/2000/svg">
 <path d="m42.195 11.265c2e-3 -0.775 0.776-1.419 1.8-1.559l5e-3 -2.155c-1.023-0.144-1.795-0.79-1.794-1.565 2e-3 -0.774 0.777-1.418 1.801-1.558l5e-3 -2.281-2.292-4e-3c-0.141 0.878-0.948 1.551-1.92 1.549-0.973-2e-3 -1.777-0.677-1.914-1.556l-2.597-5e-3c-0.141 0.878-0.948 1.551-1.92 1.549-0.973-2e-3 -1.777-0.677-1.914-1.556l-2.233-4e-3c-0.175 0.84-0.962 1.473-1.906 1.471s-1.728-0.638-1.9-1.478l-2.625-5e-3c-0.175 0.84-0.962 1.473-1.906 1.471s-1.729-0.638-1.9-1.478l-2.058-4e-3c-0.175 0.84-0.962 1.473-1.906 1.471s-1.728-0.638-1.9-1.478l-2.625-5e-3c-0.175 0.84-0.962 1.473-1.906 1.471-0.944-1e-3 -1.728-0.637-1.9-1.478l-2.305-4e-3 -6e-3 2.513c1.023 0.144 1.795 0.791 1.794 1.565-2e-3 0.775-0.777 1.418-1.801 1.559l-4e-3 1.973c1.161 0.055 2.079 0.747 2.077 1.592s-0.923 1.533-2.084 1.584l-4e-3 1.953c1.116 0.087 1.984 0.764 1.982 1.586-2e-3 0.821-0.873 1.496-1.989 1.578l-4e-3 1.643c0.047-2e-3 0.094-3e-3 0.142-3e-3 1.227 2e-3 2.221 0.716 2.219 1.595s-0.999 1.589-2.226 1.587c-0.048 0-0.095-2e-3 -0.142-4e-3l-4e-3 2.031c1.116 0.087 1.984 0.764 1.982 1.586s-0.873 1.496-1.989 1.579l-5e-3 2.2c1.07 0.116 1.89 0.779 1.888 1.577s-0.825 1.458-1.895 1.57l-5e-3 2.117c1.161 0.055 2.079 0.747 2.077 1.592-2e-3 0.844-0.922 1.533-2.084 1.583l-4e-3 1.948c1.161 0.055 2.079 0.747 2.077 1.592-2e-3 0.844-0.923 1.533-2.084 1.584l-5e-3 2.099 2.103 4e-3c-0.014-0.089-0.022-0.18-0.021-0.272 2e-3 -1.007 0.872-1.822 1.942-1.82 1.071 2e-3 1.937 0.82 1.935 1.827 0 0.093-8e-3 0.183-0.022 0.272l2.596 5e-3c-0.014-0.089-0.021-0.18-0.021-0.272 3e-3 -1.007 0.872-1.823 1.943-1.821s1.937 0.821 1.935 1.828c0 0.092-8e-3 0.183-0.023 0.272l2.03 4e-3c-0.014-0.089-0.021-0.18-0.021-0.272 2e-3 -1.008 0.872-1.823 1.943-1.821 1.07 2e-3 1.937 0.821 1.934 1.828 0 0.092-8e-3 0.183-0.022 0.272l2.597 4e-3c-0.014-0.088-0.022-0.179-0.021-0.271 2e-3 -1.008 0.872-1.823 1.942-1.821 1.071 2e-3 1.937 0.82 1.935 1.828 0 0.092-8e-3 0.183-0.022 0.272l2.207 4e-3c-7e-3 -0.064-0.01-0.129-0.01-0.194 2e-3 -1.008 0.872-1.823 1.943-1.821 1.07 2e-3 1.937 0.82 1.934 1.828 0 0.065-4e-3 0.13-0.011 0.194l2.576 5e-3c-7e-3 -0.064-0.011-0.129-0.011-0.194 2e-3 -1.008 0.872-1.823 1.943-1.821s1.937 0.82 1.935 1.828c-1e-3 0.065-5e-3 0.13-0.012 0.194l2.47 4e-3 5e-3 -2.104c-1.116-0.087-1.985-0.765-1.983-1.586 2e-3 -0.822 0.873-1.496 1.99-1.579l4e-3 -2.114c-1.116-0.086-1.984-0.764-1.982-1.586 2e-3 -0.821 0.873-1.496 1.989-1.578l5e-3 -1.881c-1.117-0.087-1.985-0.765-1.983-1.586 2e-3 -0.822 0.873-1.496 1.989-1.579l5e-3 -2.114c-1.116-0.086-1.984-0.764-1.982-1.586 1e-3 -0.821 0.873-1.496 1.989-1.578l4e-3 -1.804c-1.116-0.086-1.984-0.764-1.983-1.585 2e-3 -0.822 0.874-1.497 1.99-1.579l5e-3 -2.114c-1.116-0.087-1.985-0.764-1.983-1.586 2e-3 -0.821 0.873-1.496 1.99-1.578l4e-3 -1.979c-1.024-0.145-1.795-0.791-1.794-1.566" style="fill-rule:nonzero;fill:url(#_Linear1)"/>
 <rect x="8.646" y="5.494" width="30.834" height="35.928" style="fill:url(#_Linear2)"/>
 <path d="m14.847 16.113l-2.237 2.568 5.519 6.305 0.576 8.347 3.397-0.235-0.577-8.355 4.542-7.727-2.568-2.236-3.891 6.98-4.762-5.647h1e-3z" style="fill-opacity:.894118;fill-rule:nonzero;fill:#fff"/>
 <path d="m31.265 29.298c1.063 0.021 1.908 0.901 1.887 1.964-0.021 1.062-0.901 1.907-1.964 1.886-1.062-0.021-1.907-0.901-1.886-1.963 0.021-1.063 0.901-1.908 1.963-1.887zm-1.61-13.196c-0.086-1.285 0.43-2.191 1.716-2.278 1.285-0.086 1.678 0.759 1.765 2.044 9e-3 0.133 5e-3 0.278-8e-3 0.406l-0.464 11.126c-0.08 0.751-0.754 1.294-1.504 1.213-0.67-0.072-1.174-0.617-1.217-1.267l-0.288-11.244z" style="fill-opacity:.847059;fill-rule:nonzero;fill:#fff"/>
 <defs>
  <linearGradient id="_Linear1" x2="1" gradientTransform="matrix(-.01306 -43.6473 43.6473 -.01306 27.0454 47.3927)" gradientUnits="userSpaceOnUse">
   <stop style="stop-color:#e9e9e9" offset="0"/>
   <stop style="stop-color:#f9f9f9" offset="1"/>
  </linearGradient>
  <linearGradient id="_Linear2" x2="1" gradientTransform="matrix(21.3497,-33.1739,33.1739,21.3497,16.1639,38.6678)" gradientUnits="userSpaceOnUse">
   <stop style="stop-color:#7839c7" offset="0"/>
   <stop style="stop-color:#926ffd" offset="1"/>
  </linearGradient>
 </defs>
</svg>
