<svg style="clip-rule:evenodd;fill-rule:evenodd;stroke-linejoin:round;stroke-miterlimit:2" version="1.1" viewBox="0 0 48 48" xmlns="http://www.w3.org/2000/svg">
 <path d="m47.312 10.595c0-0.976-0.388-1.911-1.077-2.601-0.69-0.691-1.627-1.079-2.603-1.079h-39.264c-0.976 0-1.913 0.388-2.603 1.079-0.689 0.69-1.077 1.625-1.077 2.601v27.823c0 0.976 0.388 1.911 1.077 2.602 0.69 0.69 1.627 1.078 2.603 1.078h39.264c0.976 0 1.913-0.388 2.603-1.078 0.689-0.691 1.077-1.626 1.077-2.602v-27.823z" style="fill-opacity:.67"/>
 <path d="m47.312 9.381c0-1.921-1.557-3.479-3.479-3.479h-39.666c-1.922 0-3.479 1.558-3.479 3.479v28.225c0 1.921 1.557 3.479 3.479 3.479h39.666c1.922 0 3.479-1.558 3.479-3.479v-28.225z" style="fill:url(#_Linear1)"/>
 <path d="m19.75 19.732c-0.048-0.046-0.11-0.068-0.185-0.068h-7.736c-0.075 0-0.137 0.023-0.186 0.068-0.048 0.046-0.072 0.105-0.072 0.177v0.491c0 0.071 0.024 0.13 0.072 0.176 0.049 0.046 0.111 0.069 0.186 0.069h7.736c0.075 0 0.137-0.023 0.185-0.069s0.072-0.105 0.072-0.176v-0.491c0-0.072-0.024-0.131-0.072-0.177z" style="fill-rule:nonzero;fill:#fff"/>
 <path d="m7.373 12.479c-0.054-0.051-0.116-0.077-0.186-0.077s-0.131 0.026-0.185 0.077l-0.403 0.384c-0.054 0.051-0.08 0.109-0.08 0.176 0 0.066 0.026 0.125 0.08 0.176l3.167 3.013-3.167 3.014c-0.054 0.051-0.08 0.11-0.08 0.176 0 0.067 0.026 0.125 0.08 0.176l0.403 0.384c0.054 0.051 0.115 0.076 0.185 0.076s0.132-0.025 0.186-0.076l3.755-3.573c0.053-0.051 0.08-0.11 0.08-0.177 0-0.066-0.027-0.125-0.08-0.176l-3.755-3.573z" style="fill-rule:nonzero;fill:#fff"/>
 <defs>
  <linearGradient id="_Linear1" x2="1" gradientTransform="matrix(2.21762e-15,-36.2165,36.2165,2.21762e-15,275.714,42.119)" gradientUnits="userSpaceOnUse">
   <stop style="stop-color:#316fb0" offset="0"/>
   <stop style="stop-color:#4496d5" offset="1"/>
  </linearGradient>
 </defs>
</svg>
