<svg style="clip-rule:evenodd;fill-rule:evenodd;stroke-linejoin:round;stroke-miterlimit:2" version="1.1" viewBox="0 0 48 48" xmlns="http://www.w3.org/2000/svg">
 <circle cx="24" cy="24" r="22.839" style="fill:url(#_Linear1)"/>
 <path d="m39.728 20.626c0-0.467-0.353-0.757-1.059-0.87l-9.489-1.38-4.254-8.601c-0.239-0.517-0.548-0.775-0.926-0.775s-0.687 0.258-0.926 0.775l-4.254 8.601-9.489 1.38c-0.706 0.113-1.059 0.403-1.059 0.87 0 0.264 0.158 0.567 0.473 0.907l6.881 6.692-1.626 9.452c-0.025 0.176-0.037 0.302-0.037 0.378 0 0.264 0.066 0.488 0.198 0.671s0.331 0.274 0.595 0.274c0.227 0 0.479-0.075 0.756-0.227l8.488-4.461 8.488 4.461c0.265 0.152 0.517 0.227 0.756 0.227 0.253 0 0.445-0.091 0.577-0.274s0.198-0.407 0.198-0.671c0-0.164-6e-3 -0.29-0.019-0.378l-1.626-9.452 6.862-6.692c0.328-0.328 0.492-0.63 0.492-0.907z" style="fill-rule:nonzero;fill:url(#_Linear2)"/>
 <defs>
  <linearGradient id="_Linear1" x2="1" gradientTransform="matrix(5.98852e-7 -45.6774 45.6774 5.98852e-7 91.0087 46.8387)" gradientUnits="userSpaceOnUse">
   <stop style="stop-color:#99abb3" offset="0"/>
   <stop style="stop-color:#ccd9de" offset="1"/>
  </linearGradient>
  <linearGradient id="_Linear2" x2="1" gradientTransform="matrix(.000101557 -30 30 .000101557 294 39.0009)" gradientUnits="userSpaceOnUse">
   <stop style="stop-color:#007224" offset="0"/>
   <stop style="stop-color:#00b801" offset="1"/>
  </linearGradient>
 </defs>
</svg>
