<svg style="clip-rule:evenodd;fill-rule:evenodd;stroke-linejoin:round;stroke-miterlimit:2" version="1.1" viewBox="0 0 48 48" xmlns="http://www.w3.org/2000/svg">
 <circle cx="24.041" cy="24.034" r="22.798" style="fill:url(#_Linear1)"/>
 <path d="m39.899 22.223c-0.05-0.449-0.575-0.787-1.028-0.787-1.466 0-2.767-0.861-3.313-2.193-0.558-1.364-0.198-2.954 0.895-3.956 0.344-0.315 0.385-0.841 0.097-1.207-0.751-0.953-1.604-1.814-2.535-2.56-0.365-0.292-0.9-0.252-1.216 0.098-0.954 1.057-2.667 1.449-3.99 0.897-1.378-0.58-2.247-1.976-2.162-3.474 0.028-0.471-0.316-0.88-0.785-0.934-1.195-0.139-2.401-0.143-3.599-0.01-0.464 0.051-0.808 0.451-0.793 0.915 0.053 1.484-0.827 2.856-2.19 3.414-1.308 0.535-3.009 0.145-3.961-0.902-0.315-0.344-0.841-0.387-1.208-0.101-0.959 0.752-1.831 1.614-2.588 2.559-0.295 0.367-0.252 0.9 0.095 1.216 1.114 1.009 1.474 2.613 0.895 3.992-0.552 1.315-1.918 2.163-3.481 2.163-0.508-0.016-0.869 0.324-0.925 0.785-0.14 1.203-0.142 2.427-6e-3 3.639 0.05 0.452 0.59 0.787 1.049 0.787 1.393-0.036 2.731 0.827 3.292 2.193 0.559 1.363 0.2 2.953-0.895 3.956-0.342 0.314-0.386 0.84-0.097 1.206 0.743 0.947 1.596 1.808 2.531 2.56 0.367 0.296 0.9 0.254 1.218-0.096 0.957-1.059 2.67-1.451 3.989-0.897 1.381 0.577 2.249 1.973 2.164 3.472-0.027 0.471 0.318 0.881 0.786 0.935 0.611 0.071 1.226 0.107 1.843 0.107 0.585 0 1.171-0.032 1.756-0.097 0.464-0.051 0.808-0.451 0.792-0.917-0.053-1.482 0.827-2.854 2.189-3.412 1.317-0.537 3.011-0.144 3.963 0.902 0.316 0.344 0.839 0.386 1.207 0.101 0.958-0.751 1.828-1.611 2.589-2.559 0.295-0.367 0.253-0.9-0.096-1.216-1.113-1.009-1.475-2.613-0.896-3.992 0.544-1.297 1.859-2.169 3.273-2.169l0.198 5e-3c0.459 0.038 0.881-0.316 0.936-0.784 0.141-1.203 0.143-2.427 7e-3 -3.639zm-15.874 7.148c-2.943 0-5.337-2.394-5.337-5.337s2.394-5.337 5.337-5.337 5.337 2.394 5.337 5.337-2.394 5.337-5.337 5.337z" style="fill-opacity:.84;fill:#fff"/>
 <defs>
  <linearGradient id="_Linear1" x2="1" gradientTransform="matrix(2.72215e-15,-44.4561,44.4561,2.72215e-15,24.041,45.6921)" gradientUnits="userSpaceOnUse">
   <stop style="stop-color:#118702" offset="0"/>
   <stop style="stop-color:#80e950" offset="1"/>
  </linearGradient>
 </defs>
</svg>
