<svg style="clip-rule:evenodd;fill-rule:evenodd;stroke-linejoin:round;stroke-miterlimit:2" version="1.1" viewBox="0 0 48 48" xmlns="http://www.w3.org/2000/svg">
 <g transform="matrix(.945352 0 0 .945352 1.31762 1.33152)">
  <path d="m26.534 48.248-13.233-38.976h28.755c5.383-0.219 5.997 3.562 5.997 3.562v31.16s0.943 4.254-4.758 4.254h-16.761z" style="fill:url(#_Linear1)"/>
 </g>
 <g transform="matrix(18.9014,0,0,18.9014,29.8342,35.6811)">
  <path d="m0.515-0.95c4e-3 -5e-3 7e-3 -0.01 7e-3 -0.016 0-5e-3 -3e-3 -0.011-7e-3 -0.016l-0.041-0.039c-6e-3 -4e-3 -0.011-7e-3 -0.016-7e-3s-0.01 3e-3 -0.015 7e-3l-0.064 0.064-0.063-0.065c-5e-3 -5e-3 -0.01-7e-3 -0.015-7e-3s-0.01 2e-3 -0.016 7e-3l-0.042 0.04c-4e-3 6e-3 -7e-3 0.011-7e-3 0.016s3e-3 0.01 7e-3 0.016l0.121 0.12c5e-3 5e-3 0.01 7e-3 0.016 7e-3 8e-3 0 0.01-1e-3 0.016-7e-3l0.119-0.12zm-0.441 0.207c-0.013 0-0.02 7e-3 -0.02 0.02v0.133c0 0.013 7e-3 0.02 0.02 0.02h0.345l-0.354 0.418c-7e-3 7e-3 -9e-3 0.012-9e-3 0.023v0.11c0 0.013 7e-3 0.019 0.02 0.019h0.588c0.013 0 0.019-6e-3 0.019-0.019v-0.133c0-0.013-6e-3 -0.019-0.019-0.019h-0.348l0.358-0.427c4e-3 -5e-3 6e-3 -0.01 7e-3 -0.015v-0.11c0-0.013-7e-3 -0.02-0.021-0.02h-0.586z" style="fill-rule:nonzero;fill:rgb(37,171,115)"/>
 </g>
 <g transform="matrix(.945352 0 0 .945352 1.31762 1.33152)">
  <path d="m22.825 38.81 3.709 9.438 8.395-9.153-12.104-0.285z" style="fill:url(#_Linear2)"/>
 </g>
 <g transform="matrix(.945352 0 0 .945352 1.31762 1.33152)">
  <path d="m21.944 0.405 12.985 38.69h-30.049c-4.707 0.218-4.769-3.535-4.769-3.535v-30.933s0.125-4.222 5.109-4.222h16.724z" style="fill:url(#_Linear3)"/>
 </g>
 <g transform="matrix(.945352 0 0 .945352 1.31762 1.33152)">
  <path d="m16.899 11.33c-0.097-0.312-0.386-0.525-0.713-0.525h-4.145c-0.328 0-0.617 0.214-0.713 0.528l-4.953 16.194c-0.07 0.226-0.027 0.472 0.113 0.662 0.141 0.19 0.364 0.302 0.6 0.302h2.572c0.335 0 0.629-0.223 0.718-0.546l1.111-3.995h5.066l1.203 4.01c0.094 0.316 0.385 0.532 0.714 0.532h2.733c0.238 0 0.46-0.113 0.601-0.303 0.141-0.191 0.182-0.437 0.112-0.664l-5.019-16.195zm-4.836 9.633 1.866-7.164h0.051l1.995 7.164h-3.912z" style="fill-rule:nonzero;fill:url(#_Linear4)"/>
 </g>
 <defs>
  <linearGradient id="_Linear1" x2="1" gradientTransform="matrix(-.699081 39.4756 -39.4756 -.699081 -331.882 3.76052)" gradientUnits="userSpaceOnUse">
   <stop style="stop-color:rgb(220,235,232)" offset="0"/>
   <stop style="stop-color:rgb(246,248,247)" offset="1"/>
  </linearGradient>
  <linearGradient id="_Linear2" x2="1" gradientTransform="matrix(-.257083 18.5805 -18.5805 -.257083 26.534 28.9103)" gradientUnits="userSpaceOnUse">
   <stop style="stop-color:rgb(75,214,148)" offset="0"/>
   <stop style="stop-color:rgb(2,131,83)" offset="1"/>
  </linearGradient>
  <linearGradient id="_Linear3" x2="1" gradientTransform="matrix(2.05585e-15,-37.3171,33.5746,2.28502e-15,99.0597,38.1931)" gradientUnits="userSpaceOnUse">
   <stop style="stop-color:rgb(2,131,83)" offset="0"/>
   <stop style="stop-color:rgb(75,214,148)" offset="1"/>
  </linearGradient>
  <linearGradient id="_Linear4" x2="1" gradientTransform="matrix(-.993416 -17.9235 17.9235 -.993416 208.118 16.4612)" gradientUnits="userSpaceOnUse">
   <stop style="stop-color:rgb(220,235,232)" offset="0"/>
   <stop style="stop-color:rgb(246,248,247)" offset="1"/>
  </linearGradient>
 </defs>
</svg>
