<svg style="clip-rule:evenodd;fill-rule:evenodd;stroke-linejoin:round;stroke-miterlimit:2" version="1.1" viewBox="0 0 48 48" xmlns="http://www.w3.org/2000/svg">
 <circle cx="24.041" cy="24.034" r="22.798" style="fill:url(#_Linear1)"/>
 <path d="m27.458 38.987c-3.863-1.266-5.621-5.275-3.844-8.764 0.806-1.582 1.869-2.455 3.608-2.962 2.267-0.661 4.753 0.252 6.059 2.224 0.893 1.351 0.996 3.519 0.234 4.947-1.79 3.35-6.696 3.278-7.993-0.117-0.752-1.97 0.119-4.024 2.013-4.748 1.921-0.733 3.939 0.442 4.162 2.424 0.094 0.835 0.017 1.102-0.492 1.708-1.1 1.307-2.903 1.156-3.566-0.299-0.352-0.772-0.089-0.919 0.631-0.352 0.762 0.599 1.325 0.606 1.906 0.025 0.597-0.597 0.572-1.194-0.084-1.957-1.221-1.418-3.584-0.266-3.628 1.77-0.025 1.15 0.529 2.038 1.596 2.557 2.703 1.315 5.691-1.652 4.591-4.562-0.302-0.802-1.253-1.816-2.13-2.274-1.772-0.925-4.487-0.071-5.726 1.803-0.517 0.781-0.618 1.178-0.618 2.438 0 1.281 0.103 1.671 0.685 2.614 0.426 0.688 1.106 1.368 1.795 1.793 0.966 0.597 1.314 0.684 2.71 0.676 3.305-0.018 5.573-2.139 6.257-5.852 0.485-2.631-0.475-5.619-2.408-7.498-0.69-0.67-1.003-1.162-1.003-1.575 0-0.69-0.366-1.477-0.687-1.477-0.123 0-0.218 0.841-0.218 1.93v1.929l1.018 0.616c1.118 0.674 1.377 1.41 0.498 1.41-0.286 0-0.634-0.113-0.772-0.251-0.138-0.139-0.897-0.474-1.686-0.746-1.467-0.505-1.906-1.086-0.926-1.225 0.438-0.063 0.51-0.209 0.51-1.048v-0.974l-1.266-0.105c-1.426-0.119-1.669-0.35-1.674-1.593-2e-3 -0.466-0.092-0.848-0.202-0.848-0.507 0-0.797 0.847-0.889 2.6-0.096 1.845-0.086 1.89 0.436 1.964 1.03 0.146 0.774 0.82-0.533 1.398-0.669 0.296-1.593 0.869-2.054 1.273-0.837 0.735-1.515 0.798-1.515 0.14 0-0.185 0.459-0.719 1.019-1.187 1.004-0.84 1.019-0.871 1.019-2.242 0-1.729-0.574-2.686-2.091-3.492l-1.063-0.564-0.984 0.965-0.983 0.965-4.513-0.061c-4.488-0.061-4.514-0.065-4.586-0.571l-0.073-0.509h3.497c2.832 0 3.55-0.065 3.778-0.34 0.249-0.3-0.196-0.339-3.792-0.339-2.988 0-4.138-0.076-4.31-0.284-0.258-0.31-0.014-2.07 0.441-3.187 0.729-1.717 1.948-3.336 3.407-4.542 1.24-1.024 4.844-2.204 5.714-1.87 0.28 0.107 0.351 0.529 0.351 2.066 0 1.062 0.082 1.931 0.181 1.931 0.445 0 0.725-0.627 0.725-1.621 0-1.075 3e-3 -1.078 0.962-1.347 1.492-0.417 4.993-0.303 7.025 0.229 5.592 1.463 9.675 5.377 11.052 10.591 0.626 2.368 0.678 6.196 0.111 8.107-1.038 3.498-3.29 6.285-6.165 7.63-1.202 0.563-1.878 0.725-3.234 0.778-0.944 0.038-1.971-0.016-2.283-0.118zm-7.005-13.695c-0.196-0.516-0.356-0.578-1.642-0.639-1.281-0.061-1.432-0.119-1.497-0.577-0.069-0.486 0-0.51 1.462-0.51 1.456 0 1.577-0.041 2.367-0.813 0.721-0.704 0.898-0.779 1.312-0.558 0.651 0.349 0.602 0.656-0.248 1.532-0.444 0.459-0.73 0.988-0.736 1.365-0.014 0.837-0.723 0.976-1.018 0.2z" style="fill-rule:nonzero;fill:url(#_Linear2)"/>
 <defs>
  <linearGradient id="_Linear1" x2="1" gradientTransform="matrix(2.72215e-15,-44.4561,44.4561,2.72215e-15,24.041,45.6921)" gradientUnits="userSpaceOnUse">
   <stop style="stop-color:#118702" offset="0"/>
   <stop style="stop-color:#80e950" offset="1"/>
  </linearGradient>
  <linearGradient id="_Linear2" x2="1" gradientTransform="matrix(-1.04712,-28.1726,28.1726,-1.04712,26.4471,38.7477)" gradientUnits="userSpaceOnUse">
   <stop style="stop-color:#dce2ff;stop-opacity:.85" offset="0"/>
   <stop style="stop-color:#f8feff;stop-opacity:.85" offset="1"/>
  </linearGradient>
 </defs>
</svg>
