<svg clip-rule="evenodd" fill-rule="evenodd" stroke-linejoin="round" stroke-miterlimit="2" viewBox="0 0 48 48" xmlns="http://www.w3.org/2000/svg">
 <linearGradient id="a" x2="1" gradientTransform="matrix(0 -43.9677 43.9677 0 130.822 45.7586)" gradientUnits="userSpaceOnUse">
  <stop stop-color="#028353" offset="0"/>
  <stop stop-color="#4bd694" offset="1"/>
 </linearGradient>
 <linearGradient id="b" x2="1" gradientTransform="matrix(28 0 0 28 10 351.706)" gradientUnits="userSpaceOnUse">
  <stop stop-color="#dce2ff" offset="0"/>
  <stop stop-color="#f8feff" offset="1"/>
 </linearGradient>
 <circle cx="24.041" cy="24.034" r="22.798" fill="url(#a)"/>
 <path d="m37.563 28.152c-.292-.292-.646-.438-1.063-.438h-1.499v-3c0-.541-.199-1.01-.594-1.406-.396-.396-.865-.594-1.407-.594h-8v-3h1.5c.417 0 .771-.146 1.063-.437.291-.292.437-.646.437-1.063v-5c0-.416-.146-.771-.437-1.062-.292-.292-.646-.438-1.063-.438h-5c-.417 0-.771.146-1.062.438-.292.291-.438.646-.438 1.062v5c0 .417.146.771.438 1.063.291.291.645.437 1.062.437h1.5v3h-8c-.542 0-1.01.198-1.406.594s-.594.865-.594 1.406v3h-1.5c-.417 0-.771.146-1.063.438-.291.291-.437.646-.437 1.062v5c0 .417.146.771.437 1.063.292.291.646.437 1.063.437h5c.417 0 .771-.146 1.062-.437.292-.292.438-.646.438-1.063v-5c0-.416-.146-.77-.438-1.062-.291-.292-.645-.438-1.062-.438h-1.5v-3h8v3h-1.5c-.417 0-.771.146-1.063.438-.291.291-.437.646-.437 1.062v5c0 .417.146.771.437 1.063.292.291.646.437 1.063.437h5c.417 0 .771-.146 1.063-.437.291-.292.437-.646.437-1.063v-5c0-.416-.146-.77-.437-1.062-.292-.292-.646-.438-1.063-.438h-1.5v-3h8v3h-1.5c-.416 0-.771.146-1.062.438-.292.292-.438.646-.438 1.062v5c0 .417.146.771.438 1.063.291.291.646.437 1.062.437h5c.417 0 .771-.146 1.063-.437.291-.292.437-.646.437-1.063v-5c0-.416-.146-.771-.437-1.062z" fill="url(#b)" fill-rule="nonzero"/>
</svg>
