<svg style="clip-rule:evenodd;fill-rule:evenodd;stroke-linecap:round" version="1.1" viewBox="0 0 48 48" xmlns="http://www.w3.org/2000/svg">
 <path d="m8.383 3.278 6 6" style="fill:none;stroke-width:4px;stroke:#434343"/>
 <path d="m39.617 3.278-6.693 6.693" style="fill:none;stroke-width:4.46px;stroke:#434343"/>
 <path d="m44.078 11.461c0-2.332-1.89-4.222-4.222-4.222h-31.712c-2.332 0-4.222 1.89-4.222 4.222v29.481c0 2.332 1.89 4.222 4.222 4.222h31.712c2.332 0 4.222-1.89 4.222-4.222v-29.481z" style="fill:url(#_Linear1)"/>
 <path d="m15.076 13.931c3.694 0 6.693 2.999 6.693 6.693s-2.999 6.693-6.693 6.693-6.693-2.999-6.693-6.693 2.999-6.693 6.693-6.693zm17.848 0c3.694 0 6.693 2.999 6.693 6.693s-2.999 6.693-6.693 6.693-6.693-2.999-6.693-6.693 2.999-6.693 6.693-6.693z" style="fill:#bd1c00"/>
 <path d="m15.076 18.393c1.232 0 2.231 1 2.231 2.231s-0.999 2.231-2.231 2.231c-1.231 0-2.231-1-2.231-2.231s1-2.231 2.231-2.231zm17.848 0c1.231 0 2.231 1 2.231 2.231s-1 2.231-2.231 2.231c-1.232 0-2.231-1-2.231-2.231s0.999-2.231 2.231-2.231z" style="fill:#1b1b1b"/>
 <rect x="10.614" y="29.548" width="26.771" height="13.385" style="fill:#2c2c2c"/>
 <path d="m12.845 31.779v3.346h2.231v-3.346h-2.231zm4.462 0v3.346h3.347v-3.346h-3.347zm5.578 0v3.346h2.23v-3.346h-2.23zm4.461 0v3.346h3.347v-3.346h-3.347zm5.578 0v3.346h2.231v-3.346h-2.231zm-20.079 5.577v3.346h2.231v-3.346h-2.231zm4.462 0v3.346h3.347v-3.346h-3.347zm5.578 0v3.346h2.23v-3.346h-2.23zm4.461 0v3.346h3.347v-3.346h-3.347zm5.578 0v3.346h2.231v-3.346h-2.231z" style="fill-rule:nonzero;fill:#fff"/>
 <defs>
  <linearGradient id="_Linear1" x2="1" gradientTransform="matrix(2.32653e-15,-37.995,37.995,2.32653e-15,24,45.2605)" gradientUnits="userSpaceOnUse">
   <stop style="stop-color:#ff57a3" offset="0"/>
   <stop style="stop-color:#ff7bb6" offset="1"/>
  </linearGradient>
 </defs>
</svg>
