<svg style="clip-rule:evenodd;fill-rule:evenodd;stroke-linejoin:round;stroke-miterlimit:2" version="1.1" viewBox="0 0 48 48" xmlns="http://www.w3.org/2000/svg">
 <g transform="matrix(1.1382,0,0,1.1382,-3.3168,-3.3168)">
  <path d="m24 4c-10.972 0-20 9.028-20 20s9.028 20 20 20 20-9.028 20-20-9.028-20-20-20z" style="fill-rule:nonzero;fill:url(#_Linear1)"/>
 </g>
 <g transform="matrix(1.1382,0,0,1.1382,-3.3168,-3.3168)">
  <path d="m25.603 21.668 5.787-7.854c0.655-0.889 1.908-1.079 2.796-0.424 0.889 0.655 1.079 1.908 0.424 2.796l-14 19c-0.655 0.889-1.908 1.079-2.796 0.424-0.889-0.655-1.079-1.908-0.424-2.796l5.787-7.854-7.672-8.631c-0.733-0.825-0.659-2.09 0.166-2.824 0.825-0.733 2.09-0.659 2.824 0.166l7.108 7.997z" style="fill:white"/>
 </g>
 <g transform="translate(-.236 .764)">
  <circle cx="36" cy="35" r="11" style="fill:rgb(217,57,161)"/>
 </g>
 <g transform="translate(-.236 .764)">
  <path d="m34.488 28.999-0.133 1.58c-0.506 0.186-0.976 0.455-1.391 0.797l-1.449-0.676-1.513 2.598 1.315 0.906c-0.046 0.262-0.071 0.528-0.072 0.795 0 0.268 0.023 0.535 0.069 0.798l-1.314 0.903 1.513 2.599 1.446-0.675c0.416 0.34 0.887 0.608 1.393 0.792l0.133 1.584h3.027l0.134-1.58c0.505-0.186 0.976-0.455 1.39-0.797l1.449 0.676 1.514-2.598-1.316-0.906c0.047-0.262 0.071-0.528 0.073-0.795-1e-3 -0.268-0.024-0.535-0.07-0.799l1.313-0.901-1.513-2.598-1.446 0.675c-0.416-0.34-0.887-0.608-1.393-0.792l-0.134-1.584h-3.027l2e-3 -2e-3zm1.513 4.286c0.949-1e-3 1.73 0.773 1.73 1.714 0 0.94-0.781 1.714-1.73 1.714-0.948-1e-3 -1.728-0.774-1.729-1.714 1e-3 -0.94 0.781-1.714 1.729-1.714z" style="fill-rule:nonzero;fill:white"/>
 </g>
 <defs>
  <linearGradient id="_Linear1" x2="1" gradientTransform="matrix(2.44929e-15,-40,40,2.44929e-15,24,44)" gradientUnits="userSpaceOnUse">
   <stop style="stop-color:rgb(108,160,6)" offset="0"/>
   <stop style="stop-color:rgb(154,202,60)" offset="1"/>
  </linearGradient>
 </defs>
</svg>
