<svg xmlns="http://www.w3.org/2000/svg" style="clip-rule:evenodd;fill-rule:evenodd;stroke-linejoin:round;stroke-miterlimit:2" version="1.1" viewBox="0 0 16 16">
 <defs>
  <style id="current-color-scheme" type="text/css">
   .ColorScheme-Text { color:#dfdfdf; } .ColorScheme-Highlight { color:#4285f4; } .ColorScheme-NeutralText { color:#ff9800; } .ColorScheme-PositiveText { color:#4caf50; } .ColorScheme-NegativeText { color:#f44336; }
  </style>
 </defs>
 <path style="fill:currentColor;" class="ColorScheme-Text" d="m9.67 10.838-2.45 3.662c-0.29 0.48-0.29 0.5-0.72 0.5-0.8-0-0.8-0.02-0.53-1.07l1.62-5.109-4.5-0.377-1.22 1.876c-0.14 0.175-0.13 0.184-0.34 0.184h-0.25c-0.39-0-0.25-0.367-0.25-0.367l0.28-2.137-0.28-2.145s-0.15-0.359 0.28-0.359h0.22c0.22 0 0.2 9e-3 0.34 0.184l1.22 1.876 3.537-0.297-5.069-5.963 0.696-0.591 11.901 14-0.695 0.592-3.79-4.459zm-2.622-5.381-1.078-3.427c-0.25-1-0.27-1.03 0.53-1.03h0.06c0.37 0 0.39 0.04 0.66 0.5l3.68 5.5 3.1 0.127c0.55 0 1.387 0.503 1.394 0.873 6e-3 0.346-0.844 0.873-1.394 0.873l-3.1 0.127-0.37 0.553-3.482-4.096z"/>
</svg>
