<svg style="clip-rule:evenodd;fill-rule:evenodd;stroke-linejoin:round;stroke-miterlimit:2" viewBox="0 0 16 16" xmlns="http://www.w3.org/2000/svg">
 <g transform="matrix(.997433 -.0716079 .0716079 .997433 -.418056 .531308)">
  <path d="M4.5,0C2.58,0 1,1.58 1,3.5C1,3.929 1.08,4.355 1.234,4.756C2.487,2.769 4.582,1.368 7.016,1.066C6.356,0.385 5.448,0 4.5,0Z" fill="#dfdfdf"/>
 </g>
 <circle cx="12.993" cy="14.154" r="1.258" fill="#dfdfdf"/>
 <g transform="translate(-9.98511)">
  <circle cx="12.993" cy="14.154" r="1.258" fill="#dfdfdf"/>
 </g>
 <g transform="matrix(.996452 .0841587 -.0841587 .996452 .540359 -.755648)">
  <path d="M11.5,0C10.553,0.001 9.647,0.386 8.988,1.066C11.42,1.369 13.512,2.77 14.764,4.754C14.919,4.354 14.999,3.929 15,3.5C15,1.58 13.42,0 11.5,0Z" fill="#dfdfdf"/>
 </g>
 <g transform="translate(0 .456576)">
  <path d="m8 1c-3.84 0-7 3.16-7 7s3.16 7 7 7 7-3.16 7-7-3.16-7-7-7zm0 0.749c3.429 0 6.251 2.822 6.251 6.251s-2.822 6.251-6.251 6.251-6.251-2.822-6.251-6.251 2.822-6.251 6.251-6.251z" fill="#dfdfdf"/>
 </g>
 <g transform="translate(0 .456576)">
  <path d="m7.958 7.083 2.06-3.887c0.121-0.227 0.404-0.314 0.631-0.194 0.228 0.121 0.314 0.404 0.194 0.631l-2.094 3.95c0.039 0.095 0.06 0.199 0.06 0.308 0 0.447-0.362 0.809-0.809 0.809-0.221 0-0.421-0.088-0.567-0.231-0.081 8e-3 -0.166 1e-3 -0.249-0.024l-3.191-0.938c-0.348-0.103-0.548-0.469-0.445-0.817 0.102-0.348 0.468-0.547 0.816-0.445l3.191 0.939c0.011 3e-3 0.022 7e-3 0.033 0.01 0.109-0.065 0.235-0.104 0.37-0.111z" fill="#dfdfdf"/>
 </g>
</svg>
