<svg clip-rule="evenodd" fill-rule="evenodd" stroke-linejoin="round" stroke-miterlimit="2" viewBox="0 0 16 16" xmlns="http://www.w3.org/2000/svg">
 <g fill="#0d68c3">
  <path d="m3 13.017v.983c0 .554.446 1.199 1 1.199h8c.554 0 1-.645 1-1.199v-.983z" fill-opacity=".3" fill-rule="nonzero"/>
  <path transform="translate(-5.0001 -2.39206)" d="m12 7v4l.25 2h1.5l.25-2v-4zm0 7v2h2v-2z" fill-rule="nonzero"/>
  <path transform="translate(-.186104 .028536)" d="m5.622 1.796v-.41c0-.627.509-1.136 1.136-1.136h2.856c.627 0 1.136.509 1.136 1.136v.41h.963c1.125 0 2.037.912 2.037 2.036v9.824c0 1.125-.912 2.037-2.037 2.037h-7.054c-1.125 0-2.037-.912-2.037-2.037v-9.824c0-1.124.912-2.036 2.037-2.036zm-.963.7h7.054c.738 0 1.337.598 1.337 1.336v9.824c0 .738-.599 1.337-1.337 1.337h-7.054c-.738 0-1.337-.599-1.337-1.337v-9.824c0-.738.599-1.336 1.337-1.336z"/>
 </g>
</svg>
