<svg clip-rule="evenodd" fill-rule="evenodd" stroke-linejoin="round" stroke-miterlimit="2" viewBox="0 0 16 16" xmlns="http://www.w3.org/2000/svg">
 <g fill="#dfdfdf">
  <path transform="matrix(.0241096 -.079082 -.079082 -.0241096 7.97566 9.64854)" d="m-44.448-66.394c8.58 14.608 17.922 30.449 26.502 44.692-13.511 14.791-13.63 36.454-4.036 52.928 12.244 21.026 30.988 26.553 45.05 21.804 4.689 7.845 15.54 25.857 25.2 42.548-62.924 26.71-142.527-134.948-92.716-161.972zm74.466 111.004c-2.373 1.644-3.106 4.567-1.644 6.758 7.854 13.878 14.803 25.979 23.021 39.858 1.094 2.19 4.564 3.284 6.755 1.826 6.028-3.47 11.688-6.758 17.531-10.045 2.376-1.461 3.105-4.931 2.008-7.122-8.216-13.876-18.426-26.223-26.642-40.099-1.279-2.193-4.566-2.923-6.757-1.461-6.025 3.469-8.43 7.001-14.272 10.285zm-67.372-117.18c-2.375 1.644-3.105 4.566-1.643 6.757 7.851 13.511 15.045 25.494 23.26 39.005 1.644 2.191 4.567 3.288 6.758 1.826 6.028-3.469 10.356-3.693 16.199-6.977 2.373-1.644 3.105-4.932 2.008-7.122-8.215-13.515-14.078-28.558-22.296-42.07-1.276-2.193-4.564-2.922-6.755-1.461-6.027 3.47-11.688 6.757-17.531 10.042z"/>
  <path transform="matrix(.287179 -.287179 .287179 .287179 -1016.15 -787.693)" d="m423.5 3169.99h-17.368l6.41 6.41c.593.59.593 1.55 0 2.14-.593.6-1.554.6-2.147 0l-8.953-8.94c-.304-.31-.45-.71-.442-1.11-.008-.4.138-.8.442-1.1l8.953-8.95c.593-.59 1.554-.59 2.147 0s.593 1.56 0 2.15l-6.41 6.4h17.368c.829 0 1.5.67 1.5 1.5s-.671 1.5-1.5 1.5z" fill-opacity=".3"/>
 </g>
</svg>
