<svg clip-rule="evenodd" fill-rule="evenodd" stroke-linejoin="round" stroke-miterlimit="2" viewBox="0 0 16 16" xmlns="http://www.w3.org/2000/svg">
 <path transform="matrix(1.05187 0 0 1.02614 -.446259 -.20915)" d="m3.246 8h9.568v5.908h-9.568z" fill="#ebebeb" fill-opacity=".25"/>
 <path d="m12 6.996c.53.002 1.038.213 1.412.588.377.376.588.886.588 1.418v3.991c0 .532-.211 1.043-.588 1.419-.376.376-.886.588-1.418.588h-7.988c-.532 0-1.042-.212-1.418-.588-.377-.376-.588-.887-.588-1.419v-3.991c0-.532.211-1.042.588-1.418.374-.375.882-.586 1.412-.588v-1.996c0-2.216 1.784-4 4-4s4 1.784 4 4zm-6 0h4v-2.119c0-1.108-.892-2-2-2s-2 .892-2 2zm7 2.006c0-.266-.106-.522-.295-.711-.188-.189-.444-.295-.711-.295h-7.988c-.267 0-.523.106-.711.295-.189.189-.295.445-.295.711v3.991c0 .267.106.523.295.712.188.188.444.295.711.295h7.988c.267 0 .523-.107.711-.295.189-.189.295-.445.295-.712z" fill="#dfdfdf"/>
 <path transform="translate(.496278 .317618)" d="m12 6v4l.25 2h1.5l.25-2v-4zm.962 7c-.255 0-.5.101-.68.282-.181.18-.282.425-.282.68v.076c0 .255.101.5.282.68.18.181.425.282.68.282h.076c.255 0 .5-.101.68-.282.181-.18.282-.425.282-.68v-.076c0-.255-.101-.5-.282-.68-.18-.181-.425-.282-.68-.282z" fill="#0d68c3" fill-rule="nonzero"/>
</svg>
