<svg clip-rule="evenodd" fill-rule="evenodd" stroke-linejoin="round" stroke-miterlimit="2" viewBox="0 0 16 16" xmlns="http://www.w3.org/2000/svg">
 <g fill="#dfdfdf">
  <path d="m15.483 9.636v3.739c0 .903-.733 1.636-1.635 1.636h-3.272c-.903 0-1.636-.733-1.636-1.636v-3.739c0-.903.733-1.636 1.636-1.636h3.272c.902 0 1.635.733 1.635 1.636z" fill-opacity=".5"/>
  <path d="m8 2.991v10.142c0 1.037-.841 1.878-1.878 1.878h-3.755c-1.037 0-1.878-.841-1.878-1.878v-10.142c0-1.037.841-1.878 1.878-1.878h3.755c1.037 0 1.878.841 1.878 1.878zm7.483-.401v2.953c0 .814-.661 1.476-1.476 1.476h-3.59c-.815 0-1.477-.662-1.477-1.476v-2.953c0-.815.662-1.477 1.477-1.477h3.59c.815 0 1.476.662 1.476 1.477z"/>
 </g>
</svg>
