<svg clip-rule="evenodd" fill-rule="evenodd" stroke-linejoin="round" stroke-miterlimit="2" viewBox="0 0 17 16" xmlns="http://www.w3.org/2000/svg">
 <g fill="#dfdfdf">
  <path d="m7.5 7.5v-4.244c0-.276.224-.5.5-.5s.5.224.5.5v4.244h2.46c.532 0 1.043.211 1.419.588.376.376.588.886.588 1.418v3.02c0 .276-.225.5-.5.5-.276 0-.5-.224-.5-.5v-3.02c0-.267-.107-.523-.295-.711-.189-.189-.445-.295-.712-.295h-6.129c-.267 0-.522.106-.711.295-.189.188-.295.444-.295.711v3.02c0 .276-.224.5-.5.5s-.5-.224-.5-.5v-3.02c0-.532.211-1.042.588-1.418.376-.377.886-.588 1.418-.588z"/>
  <path d="m10.337 2.087c0-.645-.523-1.168-1.168-1.168h-2.338c-.645 0-1.168.523-1.168 1.168v2.338c0 .645.523 1.168 1.168 1.168h2.338c.645 0 1.168-.523 1.168-1.168z"/>
  <path d="m14.804 11.357c0-.645-.523-1.168-1.168-1.168h-2.338c-.645 0-1.168.523-1.168 1.168v2.338c0 .645.523 1.168 1.168 1.168h2.338c.645 0 1.168-.523 1.168-1.168z"/>
  <path d="m5.662 11.357c0-.645-.523-1.168-1.168-1.168h-2.338c-.645 0-1.168.523-1.168 1.168v2.338c0 .645.523 1.168 1.168 1.168h2.338c.645 0 1.168-.523 1.168-1.168z"/>
 </g>
</svg>
