<svg clip-rule="evenodd" fill-rule="evenodd" stroke-linejoin="round" stroke-miterlimit="2" viewBox="0 0 16 16" xmlns="http://www.w3.org/2000/svg">
 <path d="m12.476 1.147c.737 0 1.443.293 1.964.813.52.522.813 1.228.813 1.963v8.154c0 .735-.293 1.441-.813 1.963-.521.519-1.228.813-1.964.813h-8.952c-.736 0-1.442-.294-1.963-.813-.521-.522-.814-1.228-.814-1.963v-8.154c0-.735.293-1.441.814-1.963.521-.52 1.227-.813 1.963-.813zm1.927 10.937c-.005-1.948-.016-5.779-.021-8.115-.004-1.089-.884-1.97-1.972-1.974-2.4-.006-6.434-.02-8.84-.026-.523-.002-1.028.204-1.4.575-.372.37-.582.873-.583 1.398-.004 1.83-.011 4.572-.015 6.626l3.232-5.492 3.964 7.034 3.055-3.4z" fill="#dfdfdf" fill-rule="nonzero"/>
</svg>
