<svg xmlns="http://www.w3.org/2000/svg" style="clip-rule:evenodd;fill-rule:evenodd;stroke-linejoin:round;stroke-miterlimit:2" version="1.1" viewBox="0 0 16 16">
 <defs>
  <style id="current-color-scheme" type="text/css">
   .ColorScheme-Text { color:#dfdfdf; } .ColorScheme-Highlight { color:#4285f4; } .ColorScheme-NeutralText { color:#ff9800; } .ColorScheme-PositiveText { color:#4caf50; } .ColorScheme-NegativeText { color:#f44336; }
  </style>
 </defs>
 <path style="fill:currentColor;" class="ColorScheme-Text" d="m9.723 13.94c-0.06 1.01-0.773 1.782-1.782 1.782-1.01 0-1.782-0.772-1.782-1.782h3.564zm5.049-1.723c0.178 0.119 0.297 0.357 0.356 0.476-0 0.356-0.238 0.594-0.594 0.594h-13.068c-0.356 0-0.594-0.238-0.594-0.594-0-0.238 0.119-0.416 0.297-0.476 0.178-0.118 0.416-0.178 0.594-0.356 0.416-0.356 0.713-0.772 0.95-1.247 0.297-0.594 0.78-4.396 0.78-4.396-0-2.376 1.537-4.396 3.854-4.693v-0.653c-0-0.356 0.237-0.594 0.594-0.594 0.356 0 0.594 0.238 0.594 0.594v0.653c2.316 0.297 3.853 2.258 3.853 4.693-0 0 0.483 3.92 0.899 4.574 0.237 0.475 0.653 1.069 1.188 1.307 0.118 0 0.178 0.059 0.297 0.118zm-6.365-9.7c-0.174-0.022-0.759-0.022-0.933 0-1.813 0.233-2.981 1.842-2.981 3.701-0 0.043-0.532 4.137-0.885 4.843-0.226 0.453-0.498 0.86-0.844 1.226h10.347c-0.287-0.314-0.524-0.671-0.693-0.999-0.487-0.784-1.03-5.027-1.03-5.07-0-1.906-1.168-3.468-2.981-3.701z"/>
 <path style="fill-opacity:.3;fill:currentColor;" class="ColorScheme-Text" d="m14.772 12.217c-0.119-0.059-0.179-0.118-0.297-0.118-0.535-0.238-0.951-0.832-1.188-1.307-0.416-0.654-0.594-1.426-0.594-2.198l-0.305-2.376c0-2.435-1.537-4.396-3.853-4.693v-0.653c0-0.356-0.238-0.594-0.594-0.594-0.357 0-0.594 0.238-0.594 0.594v0.653c-2.317 0.297-3.854 2.317-3.854 4.693l-0.304 2.376c0 0.713-0.179 1.426-0.476 2.02-0.237 0.475-0.534 0.891-0.95 1.247-0.178 0.178-0.416 0.238-0.594 0.356-0.178 0.06-0.297 0.238-0.297 0.476 0 0.356 0.238 0.594 0.594 0.594h13.068c0.356-0 0.594-0.238 0.594-0.594-0.059-0.119-0.178-0.357-0.356-0.476z"/>
</svg>
