<svg clip-rule="evenodd" fill-rule="evenodd" stroke-linejoin="round" stroke-miterlimit="2" viewBox="0 0 16 16" xmlns="http://www.w3.org/2000/svg">
 <g fill="#dfdfdf" fill-opacity=".3">
  <path transform="matrix(.463714 0 0 .48343 -.693717 -.446972)" d="m36 11.082v16.466c0 1.906-1.59 3.452-3.55 3.452h-27.404c-1.96 0-3.55-1.546-3.55-3.452v-20.15c0-1.906 1.59-3.452 3.55-3.452h6.186c4.331 0 4.36 3.683 8.691 3.683h12.527c1.96 0 3.55 1.546 3.55 3.453z"/>
  <path d="m16 4.91v.307l-3.423-1.976h1.777c.909 0 1.646.747 1.646 1.669zm0 2.592v2.286l-14.423-8.326c.023-.001.046-.001.069-.001h2.869c2.008 0 2.022 1.78 4.03 1.78h.073zm0 4.572v.797c0 .47-.192.896-.502 1.199l-15.498-8.947v-1.994c0-.095.008-.188.023-.279zm-3.647 2.465h-3.96l-8.393-4.845v-2.285zm-7.918 0h-2.789c-.909 0-1.646-.747-1.646-1.668v-.891z"/>
 </g>
</svg>
