<svg xmlns="http://www.w3.org/2000/svg" style="clip-rule:evenodd;fill-rule:evenodd;stroke-linejoin:round;stroke-miterlimit:2" version="1.1" viewBox="0 0 36 36">
 <defs>
  <style id="current-color-scheme" type="text/css">
   .ColorScheme-Text { color:#dfdfdf; } .ColorScheme-Highlight { color:#4285f4; } .ColorScheme-NeutralText { color:#ff9800; } .ColorScheme-PositiveText { color:#4caf50; } .ColorScheme-NegativeText { color:#f44336; }
  </style>
 </defs>
 <path style="fill-opacity:.3;fill:currentColor;" class="ColorScheme-Text" d="m9.229 26.772c-0 2.095 1.965 4.06 4.059 4.06h11.339v0.198c-0 1.13-0.916 2.045-2.045 2.045h-15.231c-1.129 0-2.044-0.915-2.044-2.045v-21.67c-0-1.13 0.915-2.045 2.044-2.045h1.878v19.457z"/>
 <path style="fill:currentColor;" class="ColorScheme-Text" d="m26.774 30.832v0.266c-0 2.278-1.847 4.124-4.124 4.124h-15.368c-1.094-0-2.143-0.435-2.917-1.208-0.773-0.774-1.207-1.822-1.207-2.916 1e-3 -5.733 1e-3 -16.052 2e-3 -21.792-0-1.096 0.436-2.147 1.213-2.921 0.776-0.774 1.829-1.206 2.925-1.202 1.072 3e-3 1.931 7e-3 1.931 7e-3v-0.353c-0-2.242 1.817-4.059 4.059-4.059h8.604l10.95 10.949v15.045c0 2.243-1.817 4.06-4.059 4.06h-2.009zm-17.545-23.517h-1.752c-0.575-0-1.128 0.228-1.535 0.635s-0.635 0.96-0.635 1.535v21.42c-0 1.199 0.971 2.17 2.17 2.17h14.907c0.594 0 1.165-0.236 1.586-0.657 0.421-0.42 0.657-0.991 0.657-1.586h-11.339c-2.242-0-4.059-1.817-4.059-4.06v-19.457zm2.146-1.801v20.582c0 0.686 0.273 1.345 0.759 1.83 0.485 0.487 1.144 0.759 1.83 0.759h14.143c0.686 0 1.345-0.272 1.83-0.759 0.486-0.485 0.759-1.144 0.759-1.83v-12.438h-10.734v-10.733h-5.998c-0.686-0-1.345 0.272-1.83 0.759-0.486 0.485-0.759 1.144-0.759 1.83zm10.734-1.3v7.298h7.296l-7.296-7.298z"/>
</svg>
