<svg style="clip-rule:evenodd;fill-rule:evenodd;stroke-linejoin:round;stroke-miterlimit:2" viewBox="0 0 16 16" xmlns="http://www.w3.org/2000/svg">
 <g transform="matrix(.811976 0 0 .811976 1.50419 1.50419)">
  <path d="m5 8c0 1.097-0.903 2-2 2s-2-0.903-2-2 0.903-2 2-2 2 0.903 2 2z" fill="#dfdfdf"/>
 </g>
 <g transform="matrix(.811976 0 0 .811976 1.50419 1.50419)">
  <path d="m10 8c0 1.097-0.903 2-2 2s-2-0.903-2-2 0.903-2 2-2 2 0.903 2 2z" fill="#dfdfdf"/>
 </g>
 <g transform="matrix(.811976 0 0 .811976 1.50419 1.50419)">
  <path d="m15 8c0 1.097-0.903 2-2 2s-2-0.903-2-2 0.903-2 2-2 2 0.903 2 2z" fill="#dfdfdf"/>
 </g>
 <path d="m15.727 4.136c0-2.132-1.731-3.863-3.863-3.863h-7.728c-2.132 0-3.863 1.731-3.863 3.863v7.728c0 2.132 1.731 3.863 3.863 3.863h7.728c2.132 0 3.863-1.731 3.863-3.863v-7.728zm-0.8 0v7.728c0 1.69-1.373 3.063-3.063 3.063h-7.728c-1.69 0-3.063-1.373-3.063-3.063v-7.728c0-1.69 1.373-3.063 3.063-3.063h7.728c1.69 0 3.063 1.373 3.063 3.063z" fill="#dfdfdf"/>
</svg>
