<svg xmlns="http://www.w3.org/2000/svg" style="clip-rule:evenodd;fill-rule:evenodd;stroke-linejoin:round;stroke-miterlimit:2" version="1.1" viewBox="0 0 16 16">
 <defs>
  <style id="current-color-scheme" type="text/css">
   .ColorScheme-Text { color:#dfdfdf; } .ColorScheme-Highlight { color:#4285f4; } .ColorScheme-NeutralText { color:#ff9800; } .ColorScheme-PositiveText { color:#4caf50; } .ColorScheme-NegativeText { color:#f44336; }
  </style>
 </defs>
 <path style="fill-opacity:.35;;fill:currentColor;" class="ColorScheme-Text" d="m2.5 0.5-1.5 1.5 2.307 2.307c-0.199 0.542-0.303 1.114-0.307 1.691 0 0.172 0.014 0.332 0.031 0.5 0.014 0.167 0.036 0.336 0.063 0.5 0.572 3.512 2.906 6.002 4.906 8.002 0.937-0.937 1.945-1.981 2.813-3.188l2.687 2.688 1.5-1.5-12.5-12.5zm5.5 0.5c-0.828 3e-3 -1.642 0.212-2.369 0.607l2.396 2.397c1.074 0.017 1.952 0.895 1.969 1.969l2.541 2.541c0.158-0.484 0.283-0.988 0.369-1.516 0.027-0.164 0.05-0.333 0.063-0.5 0.017-0.168 0.031-0.328 0.031-0.5-0-2.742-2.257-4.998-5-4.998z"/>
</svg>
