<svg xmlns="http://www.w3.org/2000/svg" style="clip-rule:evenodd;fill-rule:evenodd;stroke-linejoin:round;stroke-miterlimit:2" version="1.1" viewBox="0 0 16 16">
 <defs>
  <style id="current-color-scheme" type="text/css">
   .ColorScheme-Text { color:#dfdfdf; } .ColorScheme-Highlight { color:#4285f4; } .ColorScheme-NeutralText { color:#ff9800; } .ColorScheme-PositiveText { color:#4caf50; } .ColorScheme-NegativeText { color:#f44336; }
  </style>
 </defs>
 <path style="fill:currentColor;" class="ColorScheme-Text" d="m2.35 2.8c0.198-0.806 0.728-1.531 1.437-1.96s1.549-0.575 2.402-0.365c0.854 0.21 1.484 0.716 1.96 1.437l4.543 7.501c0.572 0.945 0.754 2.046 0.498 3.089-0.257 1.043-0.928 1.934-1.873 2.506-0.945 0.573-2.046 0.755-3.089 0.499-1.043-0.257-1.934-0.928-2.506-1.873l-2.826-4.667 0.65-0.393 2.825 4.666c0.465 0.768 1.19 1.298 2.091 1.52 0.901 0.221 1.788 0.087 2.556-0.378s1.298-1.189 1.52-2.09c0.221-0.901 0.087-1.789-0.378-2.557l-4.542-7.501c-0.358-0.591-0.88-0.921-1.497-1.072-0.616-0.151-1.291-0.066-1.882 0.292-1.122 0.679-1.495 2.197-0.815 3.319l2.539 4.194 1.943 3.142c0.394 0.65 1.295 0.871 1.944 0.478 0.296-0.179 0.531-0.523 0.613-0.855 0.081-0.332 0.032-0.747-0.135-1.089l-2.754-4.549 0.65-0.393 2.754 4.548c0.286 0.473 0.395 1.053 0.255 1.622s-0.505 1.032-0.977 1.318c-0.473 0.286-1.053 0.395-1.622 0.255-0.569-0.139-1.032-0.505-1.318-0.977l-4.471-7.384c-0.559-0.59-0.693-1.477-0.495-2.283z"/>
</svg>
