<svg style="clip-rule:evenodd;fill-rule:evenodd;stroke-linejoin:round;stroke-miterlimit:2" viewBox="0 0 16 16" xmlns="http://www.w3.org/2000/svg">
 <path d="m8.492 15.159h1.702v0.841h-4.388v-0.841h1.702v-2.683c-1.765-0.049-3.979-1.506-3.979-4.476v-1.715h0.812v1.715c0 2.23 1.429 3.603 3.659 3.603s3.659-1.373 3.659-3.603v-1.715h0.812v1.715c0 2.97-2.252 4.459-3.979 4.476v2.683z" fill-opacity=".3" fill="#dfdfdf"/>
 <g transform="matrix(.850019 .850019 -.707107 .707107 7.35369 -4.954)">
  <path d="m16 8.658c0-0.174-0.058-0.342-0.16-0.465-0.103-0.124-0.242-0.193-0.388-0.193h-14.904c-0.146 0-0.285 0.069-0.388 0.193-0.102 0.123-0.16 0.291-0.16 0.465v0.089c0 0.175 0.058 0.342 0.16 0.466 0.103 0.123 0.242 0.193 0.388 0.193h14.904c0.146 0 0.285-0.07 0.388-0.193 0.102-0.124 0.16-0.291 0.16-0.466v-0.089z" fill="#dfdfdf"/>
 </g>
 <path d="m8 0c-1.66 0-3 1.34-3 3v5c0 1.66 1.34 3 3 3s3-1.34 3-3v-5c0-1.66-1.34-3-3-3z" fill-opacity=".3" fill="#dfdfdf"/>
 <path d="m8 0c-1.66 0-3 1.34-3 3v5c0 1.66 1.34 3 3 3s3-1.34 3-3v-5c0-1.66-1.34-3-3-3zm0 1.02c1.096 0 1.98 0.884 1.98 1.98v5c0 1.096-0.884 1.98-1.98 1.98s-1.98-0.884-1.98-1.98v-5c0-1.096 0.884-1.98 1.98-1.98z" fill-opacity=".3" fill="#dfdfdf"/>
</svg>
