<svg clip-rule="evenodd" fill-rule="evenodd" stroke-linejoin="round" stroke-miterlimit="2" viewBox="0 0 16 16" xmlns="http://www.w3.org/2000/svg">
 <g fill="#dfdfdf">
  <g transform="matrix(.531821 0 0 .531821 -14.2557 -146.64)">
   <path d="m45.496 299.264c.271-.303.212-.779-.125-1.006-1.014-.681-2.227-1.124-3.53-1.124-1.302 0-2.511.442-3.525 1.12-.338.226-.397.703-.125 1.006l3.16 3.522c.262.291.717.291.98 0z"/>
   <path d="m41.842 294.205c2.13 0 4.094.705 5.676 1.889.28.208.664.185.896-.073l1.131-1.258c.256-.284.229-.734-.072-.967-2.112-1.64-4.755-2.686-7.631-2.686-2.871 0-5.512 1.043-7.621 2.678-.301.233-.328.683-.074.966l1.129 1.26c.233.259.618.283.897.074 1.581-1.181 3.542-1.883 5.669-1.883z"/>
   <path d="m41.842 288.097c3.699 0 7.088 1.292 9.762 3.438.275.221.668.198.904-.065l1.019-1.132c.252-.281.227-.725-.065-.964-3.174-2.596-7.212-4.374-11.62-4.374-4.403 0-8.434 1.772-11.603 4.36-.293.239-.319.682-.066.964l1.017 1.133c.235.263.628.286.902.066 2.672-2.139 6.056-3.426 9.75-3.426z"/>
  </g>
  <path transform="matrix(.729653 0 0 .729653 -22.535 -206.048)" d="m41.845 287.093c3.699 0 6.828 1.341 9.502 3.486.275.221.668.198.904-.065l.389-.502c.252-.28.227-.724-.065-.963-3.174-2.597-6.325-4.049-10.733-4.049-4.403 0-7.53 1.443-10.699 4.031-.293.239-.319.682-.066.963l.373.49c.235.263.628.286.903.066 2.672-2.138 5.798-3.457 9.492-3.457z" fill-opacity=".3"/>
  <path transform="matrix(.375797 0 0 .375797 10.7388 10.363)" d="m12 6.996c.53.002 1.038.213 1.412.588.377.376.588.886.588 1.418v3.991c0 .532-.211 1.043-.588 1.419-.376.376-.886.588-1.418.588h-7.988c-.532 0-1.042-.212-1.418-.588-.377-.376-.588-.887-.588-1.419v-3.991c0-.532.211-1.042.588-1.418.374-.375.882-.586 1.412-.588v-1.996c0-2.216 1.784-4 4-4s4 1.784 4 4zm-6 0h4v-2.119c0-1.108-.892-2-2-2s-2 .892-2 2z"/>
 </g>
</svg>
