<svg clip-rule="evenodd" fill-rule="evenodd" stroke-linejoin="round" stroke-miterlimit="2" viewBox="0 0 16 16" xmlns="http://www.w3.org/2000/svg">
 <path d="m4.5 4c-2.48 0-4.5 2.01-4.5 4.5s2.02 4.5 4.5 4.5c1.91 0 3.6-1.2 4.24-3h3.26v2h3v-2h1v-3h-7.26c-.64-1.8-2.33-3-4.24-3zm0 1c1.937 0 3.5 1.563 3.5 3.5s-1.563 3.5-3.5 3.5-3.5-1.563-3.5-3.5 1.563-3.5 3.5-3.5z" fill="#dfdfdf" fill-opacity=".3"/>
 <path d="m12.232 7.207c1.391 0 2.512 1.121 2.512 2.512v1.257h.628c.348 0 .628.28.628.628v3.768c0 .348-.28.628-.628.628h-6.281c-.348 0-.628-.28-.628-.628v-3.768c0-.348.28-.628.628-.628h.628v-1.257c0-1.391 1.121-2.512 2.513-2.512zm0 1.256c-.696 0-1.256.561-1.256 1.256v1.257h2.512v-1.257c0-.695-.56-1.256-1.256-1.256z" fill="#f44336"/>
</svg>
