<svg clip-rule="evenodd" fill-rule="evenodd" stroke-linejoin="round" stroke-miterlimit="2" viewBox="0 0 16 16" xmlns="http://www.w3.org/2000/svg">
 <path d="m4 3h1s.459-.014.947.23c.489.245 1.053.937 1.053 1.77v2c0 .216-.07.427-.2.6l-2.55 3.4h2.75v2h-5v-2c0-.217.07-.427.2-.6l2.8-3.734v-1.666h-1v2h-2v-2c0-.833.564-1.525 1.053-1.77.487-.244.947-.23.947-.23zm6 0h2c.833 0 1.525.564 1.77 1.053.244.488.23.947.23.947v1h-2v-1h-2v6h2v-2h-1v-2h3v4s.014.459-.23.947c-.245.489-.937 1.053-1.77 1.053h-2s-.459.014-.947-.23c-.489-.245-1.053-.937-1.053-1.77v-6s-.014-.459.23-.947c.245-.489.937-1.053 1.77-1.053z" fill="#dfdfdf"/>
</svg>
