<svg style="clip-rule:evenodd;fill-rule:evenodd;stroke-linejoin:round;stroke-miterlimit:2" viewBox="0 0 16 16" xmlns="http://www.w3.org/2000/svg">
 <g transform="translate(0 -.5)">
  <path d="m4.5 4c-2.48 0-4.5 2.01-4.5 4.5s2.02 4.5 4.5 4.5c1.91 0 3.6-1.2 4.24-3h3.26v2h3v-2h1v-3h-7.26c-0.64-1.8-2.33-3-4.24-3zm0 1c1.937 0 3.5 1.563 3.5 3.5s-1.563 3.5-3.5 3.5-3.5-1.563-3.5-3.5 1.563-3.5 3.5-3.5z" fill-opacity=".3" fill="#dfdfdf"/>
 </g>
 <path d="m9.5 8c0 0.823-0.677 1.5-1.5 1.5s-1.5-0.677-1.5-1.5 0.677-1.5 1.5-1.5 1.5 0.677 1.5 1.5zm-4.543 0c0 0.823-0.677 1.5-1.5 1.5s-1.5-0.677-1.5-1.5 0.677-1.5 1.5-1.5 1.5 0.677 1.5 1.5zm9.086 0c0 0.823-0.677 1.5-1.5 1.5s-1.5-0.677-1.5-1.5 0.677-1.5 1.5-1.5 1.5 0.677 1.5 1.5z" fill="#dfdfdf"/>
</svg>
