<svg style="clip-rule:evenodd;fill-rule:evenodd;stroke-linejoin:round;stroke-miterlimit:2" viewBox="0 0 16 16" xmlns="http://www.w3.org/2000/svg">
 <path d="m4.5 4c-2.48 0-4.5 2.01-4.5 4.5s2.02 4.5 4.5 4.5c1.91 0 3.6-1.2 4.24-3h3.26v2h3v-2h1v-3h-7.26c-0.64-1.8-2.33-3-4.24-3zm0 0.752c2.074 0 3.748 1.674 3.748 3.748s-1.674 3.748-3.748 3.748-3.748-1.674-3.748-3.748 1.674-3.748 3.748-3.748z" fill="#dfdfdf"/>
 <g transform="matrix(9.06745,0,0,9.06745,2.49156,11.4923)">
  <path d="m0.222-0.671c0.026 0 0.05 4e-3 0.073 0.012 0.023 9e-3 0.043 0.02 0.06 0.035s0.03 0.033 0.04 0.054c9e-3 0.021 0.014 0.044 0.014 0.069 0 0.017-2e-3 0.032-6e-3 0.045-5e-3 0.014-0.011 0.027-0.019 0.039-8e-3 0.013-0.017 0.025-0.028 0.036-0.012 0.011-0.024 0.023-0.037 0.035-0.021 0.019-0.038 0.035-0.051 0.048-0.013 0.014-0.019 0.029-0.019 0.046 0 5e-3 0 0.01 1e-3 0.015 1e-3 4e-3 1e-3 8e-3 2e-3 0.012h-0.09c-7e-3 -0.015-0.01-0.03-0.01-0.046 0-0.012 2e-3 -0.023 7e-3 -0.034s0.011-0.021 0.018-0.031c7e-3 -9e-3 0.016-0.018 0.025-0.027s0.019-0.017 0.029-0.026c0.011-0.01 0.021-0.019 0.03-0.028 9e-3 -8e-3 0.016-0.016 0.021-0.024 6e-3 -7e-3 0.011-0.015 0.014-0.024 3e-3 -8e-3 4e-3 -0.017 4e-3 -0.027 0-0.025-8e-3 -0.045-0.024-0.06s-0.035-0.022-0.057-0.022c-0.045 0-0.078 0.029-0.097 0.086l-0.088-0.038c0.013-0.048 0.036-0.084 0.069-0.108 0.034-0.025 0.073-0.037 0.119-0.037zm-0.01 0.527c0.022 0 0.041 7e-3 0.056 0.022 0.014 0.015 0.022 0.033 0.022 0.056s-8e-3 0.041-0.022 0.055c-0.015 0.015-0.034 0.022-0.056 0.022-0.021 0-0.04-7e-3 -0.055-0.022-0.015-0.014-0.023-0.032-0.023-0.055s8e-3 -0.041 0.023-0.056 0.034-0.022 0.055-0.022z" fill="#dfdfdf"/>
 </g>
</svg>
