<svg clip-rule="evenodd" fill-rule="evenodd" stroke-linejoin="round" stroke-miterlimit="2" viewBox="0 0 16 16" xmlns="http://www.w3.org/2000/svg">
 <path transform="matrix(1.05187 0 0 1.02614 -.446259 -.20915)" d="m3.246 8h9.568v5.908h-9.568z" fill="#ebebeb" fill-opacity=".25"/>
 <g fill="#dfdfdf">
  <path d="m12 6.996c.53.002 1.038.213 1.412.588.377.376.588.886.588 1.418v3.991c0 .532-.211 1.043-.588 1.419-.376.376-.886.588-1.418.588h-7.988c-.532 0-1.042-.212-1.418-.588-.377-.376-.588-.887-.588-1.419v-3.991c0-.532.211-1.042.588-1.418.374-.375.882-.586 1.412-.588v-1.996c0-2.216 1.784-4 4-4s4 1.784 4 4zm-6 0h4v-2.119c0-1.108-.892-2-2-2s-2 .892-2 2zm7 2.006c0-.266-.106-.522-.295-.711-.188-.189-.444-.295-.711-.295h-7.988c-.267 0-.523.106-.711.295-.189.189-.295.445-.295.711v3.991c0 .267.106.523.295.712.188.188.444.295.711.295h7.988c.267 0 .523-.107.711-.295.189-.189.295-.445.295-.712z"/>
  <path transform="matrix(.405133 0 0 .405133 4.75599 7.70803)" d="m9.94 12.515-1.683 1.871c-.14.155-.382.155-.521 0l-1.681-1.873c-.145-.161-.113-.415.067-.535.539-.361 1.182-.596 1.874-.596.693 0 1.338.236 1.878.598.179.121.21.374.066.535zm-1.943-2.691c-1.131 0-2.174.374-3.015 1.002-.149.111-.353.098-.477-.04l-.601-.67c-.135-.15-.12-.389.04-.513 1.121-.87 2.526-1.425 4.053-1.425 1.529 0 2.935.557 4.058 1.429.16.124.175.363.038.514l-.601.669c-.124.137-.328.15-.477.039-.841-.63-1.885-1.005-3.018-1.005zm0-3.248c-1.965 0-3.764.684-5.186 1.822-.145.117-.354.105-.479-.035l-.541-.603c-.135-.15-.121-.385.035-.512 1.685-1.377 3.829-2.319 6.171-2.319 2.344 0 4.492.946 6.18 2.326.155.127.168.363.034.513l-.542.602c-.125.14-.334.152-.481.034-1.422-1.141-3.224-1.828-5.191-1.828zm0-3.146c-2.695 0-4.976.963-6.926 2.523-.2.16-.487.143-.658-.048l-.273-.358c-.184-.205-.165-.528.049-.703 2.312-1.888 4.593-2.941 7.806-2.941 3.216 0 5.516 1.06 7.832 2.954.213.175.231.499.047.703l-.284.366c-.172.192-.459.209-.66.048-1.951-1.565-4.234-2.544-6.933-2.544z"/>
 </g>
</svg>
