<svg xmlns="http://www.w3.org/2000/svg" style="clip-rule:evenodd;fill-rule:evenodd;stroke-linejoin:round;stroke-miterlimit:2" version="1.1" viewBox="0 0 16 16">
 <defs>
  <style id="current-color-scheme" type="text/css">
   .ColorScheme-Text { color:#dfdfdf; } .ColorScheme-Highlight { color:#4285f4; } .ColorScheme-NeutralText { color:#ff9800; } .ColorScheme-PositiveText { color:#4caf50; } .ColorScheme-NegativeText { color:#f44336; }
  </style>
 </defs>
 <path style="fill:currentColor;" class="ColorScheme-Text" d="m15 2v12c-0 0.552-0.449 1-1 1-0.552 0-0.999-0.448-0.999-1v-12c-0-0.552 0.447-1 0.999-1 0.551-0 1 0.448 1 1zm-2.883 2.58v9.42c-0 0.552-0.449 1-1 1-0.553 0-1-0.448-1-1v-9.42c0-0.551 0.447-0.999 1-0.999 0.551-0 1 0.448 1 0.999zm-3.117 3.078v6.342c-0 0.552-0.449 1-1 1-0.552 0-0.999-0.448-0.999-1v-6.342c-0-0.552 0.447-1 0.999-1 0.551-0 1 0.448 1 1zm-3.097 3.235v3.107c0 0.552-0.449 1-1 1-0.552 0-0.999-0.448-0.999-1v-3.107c-0-0.551 0.447-1 0.999-1 0.551 0 1 0.449 1 1zm-2.898 3.104c-0 0.554-0.45 1.003-1.002 1.003-0.554-0-1.002-0.449-1.002-1.003-0-0.553 0.448-1.002 1.002-1.002 0.552-0 1.002 0.449 1.002 1.002zm0.44-12.997c0.312 0 0.6 0.048 0.876 0.144 0.276 0.108 0.516 0.24 0.72 0.42s0.36 0.396 0.48 0.648c0.108 0.252 0.168 0.528 0.168 0.828-0 0.204-0.024 0.384-0.072 0.54-0.06 0.168-0.132 0.324-0.228 0.468-0.096 0.156-0.204 0.3-0.336 0.432-0.144 0.132-0.288 0.276-0.444 0.42-0.252 0.228-0.456 0.42-0.612 0.576-0.156 0.168-0.228 0.348-0.228 0.552-0 0.06-0 0.12 0.012 0.18 0.012 0.048 0.012 0.096 0.024 0.144h-1.08c-0.084-0.18-0.12-0.36-0.12-0.552-0-0.144 0.024-0.276 0.084-0.408s0.132-0.252 0.216-0.372c0.084-0.108 0.192-0.216 0.3-0.324s0.228-0.204 0.348-0.312c0.132-0.12 0.252-0.228 0.36-0.336 0.108-0.096 0.192-0.192 0.252-0.288 0.072-0.084 0.132-0.18 0.168-0.288 0.036-0.096 0.048-0.204 0.048-0.324-0-0.3-0.096-0.54-0.288-0.72s-0.42-0.264-0.684-0.264c-0.54-0-0.936 0.348-1.164 1.032l-1.056-0.456c0.156-0.576 0.432-1.008 0.828-1.296 0.408-0.3 0.876-0.444 1.428-0.444zm-0.12 6.324c0.264-0 0.492 0.084 0.672 0.264 0.168 0.18 0.264 0.396 0.264 0.672s-0.096 0.492-0.264 0.66c-0.18 0.18-0.408 0.264-0.672 0.264-0.252 0-0.48-0.084-0.66-0.264-0.18-0.168-0.276-0.384-0.276-0.66s0.096-0.492 0.276-0.672 0.408-0.264 0.66-0.264z"/>
</svg>
