<svg clip-rule="evenodd" fill-rule="evenodd" stroke-linejoin="round" stroke-miterlimit="2" viewBox="0 0 16 16" xmlns="http://www.w3.org/2000/svg">
 <path d="m1.635 7.167s1.478-2.42 4.366-2.67v-.877c-3.199.291-6.001 3.362-6.001 3.362s1.601 5.142 6.001 5.612v-.933c-3.229-.461-4.366-4.495-4.366-4.495zm4.366 2.639v.854c-2.441-.493-3.149-3.369-3.149-3.369s1.203-1.472 3.149-1.71v.937c-.001 0-.002 0-.003 0-1.021-.139-1.851.943-1.851.943s.479 1.82 1.855 2.344m0-7.805v1.619c.094-.008.156-.015.251-.019 3.637-.139 6.007 3.381 6.007 3.381s-2.722 3.751-5.558 3.751c-.26 0-.472-.026-.7-.072v1.001c.195.028.366.044.578.044 2.638 0 4.547-1.527 6.394-3.335.307.278 1.561.955 1.819 1.251-1.757 1.667-5.851 3.011-8.173 3.011-.224 0-.407-.015-.618-.039v1.407h8.363c.433 0 .849-.172 1.156-.479s.479-.723.479-1.156c0-2.293 0-6.437 0-8.73 0-.433-.172-.849-.479-1.156s-.723-.479-1.156-.479c-2.835 0-8.363 0-8.363 0zm0 3.581v-1.084c.093-.007.155-.013.251-.017 2.615-.093 4.331 2.548 4.331 2.548s-1.853 2.918-3.841 2.918c-.286 0-.511-.053-.741-.141v-3.287c1.018.14 1.191.65 1.804 1.806l1.361-1.301s-.994-1.478-2.669-1.478c-.182 0-.325.015-.496.036" fill="#dfdfdf" fill-rule="nonzero"/>
</svg>
