<svg clip-rule="evenodd" fill-rule="evenodd" stroke-linejoin="round" stroke-miterlimit="2" viewBox="0 0 16 16" xmlns="http://www.w3.org/2000/svg">
 <path d="m11.047 3.041-.006-.004c-.713-.446-1.534-.732-2.413-.824.001-.011.001-.022.001-.033 0-.348-.282-.63-.629-.63-1.768.034-3.36.77-4.498 1.952-1.121 1.166-1.809 2.754-1.776 4.498.033 1.72.751 3.267 1.9 4.374 1.134 1.09 2.679 1.757 4.374 1.725 1.672-.031 3.176-.731 4.252-1.847 1.061-1.101 1.708-2.604 1.677-4.252-.03-1.625-.713-3.085-1.797-4.132-.328-.315-.693-.59-1.085-.827zm-2.419-.828c-.206-.022-.416-.033-.628-.033.212 0 .422.011.628.034-.018.331-.292.595-.628.595-1.445-.028-2.766.529-3.732 1.459-.982.945-1.606 2.263-1.635 3.732-.028 1.493.55 2.858 1.511 3.856.976 1.015 2.338 1.657 3.856 1.686 1.541.029 2.948-.572 3.978-1.564 1.045-1.007 1.705-2.413 1.734-3.978.029-1.588-.591-3.038-1.614-4.098-.315-.326-.665-.618-1.051-.861l-.006-.004c-.72-.434-1.537-.727-2.413-.823z" fill="#7e7e7e"/>
</svg>
