<svg style="clip-rule:evenodd;fill-rule:evenodd;stroke-linejoin:round;stroke-miterlimit:2" viewBox="0 0 16 16" xmlns="http://www.w3.org/2000/svg">
 <g transform="matrix(.516892 3.82288e-32 -6.37147e-33 .516892 -58.0101 -48.8581)">
  <path d="m128.555 97.5c6.862 0 12.445 5.608 12.445 12.5s-5.583 12.5-12.445 12.5c-2.847 0-5.631-0.992-7.838-2.79-0.568-0.465-0.655-1.307-0.194-1.878 0.461-0.568 1.3-0.658 1.87-0.193 1.758 1.434 3.889 2.192 6.162 2.192 5.397 0 9.787-4.41 9.787-9.831 0-5.42-4.39-9.83-9.787-9.83-5.031 0-9.253 3.913-9.741 8.865l-0.022-1e-3 -0.054 0.299 1.306-0.756c0.544-0.312 1.234-0.124 1.546 0.418 0.313 0.545 0.126 1.241-0.416 1.555l-4.438 2.566-3.461-4.03c-0.409-0.476-0.356-1.194 0.118-1.605 0.476-0.41 1.192-0.357 1.599 0.119l1.126 1.312 0.137-0.75c0.885-6.076 6.038-10.662 12.3-10.662z" fill="#dfdfdf"/>
 </g>
</svg>
