<svg clip-rule="evenodd" fill-rule="evenodd" stroke-linejoin="round" stroke-miterlimit="2" viewBox="0 0 16 16" xmlns="http://www.w3.org/2000/svg">
 <g fill="#dfdfdf">
  <path d="m2 0h12c2 0 2 2 2 2v9c0 2-2 2-2 2h-12c-2 0-2-2-2-2v-9s0-2 2-2zm-1.15.797v10.922h14.3v-10.922zm5.956 1.708v.639l-2.257 2.127 2.257 2.127v.639l-2.934-2.766zm1.352 1.593c1.887 0 3.431 1.52 3.431 3.431 0 1.275-.686 2.378-1.691 2.966.441-.441.711-1.054.711-1.74 0-1.348-1.103-2.451-2.451-2.451v1.593l-2.819-2.696 2.819-2.696z"/>
  <path d="m3.563 13.769c-.311 0-.563.252-.563.563v1.105c0 .311.252.563.563.563h8.874c.311 0 .563-.252.563-.563v-1.105c0-.311-.252-.563-.563-.563z" fill-opacity=".5"/>
 </g>
</svg>
