<svg style="clip-rule:evenodd;fill-rule:evenodd;stroke-linejoin:round;stroke-miterlimit:2" viewBox="0 0 16 16" xmlns="http://www.w3.org/2000/svg">
 <path d="m7 10.994c0-0.264 0.105-0.517 0.291-0.703s0.439-0.291 0.703-0.291h0.012c0.264 0 0.517 0.105 0.703 0.291s0.291 0.439 0.291 0.703v0.012c0 0.264-0.105 0.517-0.291 0.703s-0.439 0.291-0.703 0.291h-0.012c-0.264 0-0.517-0.105-0.703-0.291s-0.291-0.439-0.291-0.703v-0.012z" fill="#0d68c3"/>
 <path d="M7,3L9,3L8.682,9L7.318,9L7,3Z" fill="#0d68c3"/>
 <path d="m8 0c-1.839 0.827-3.843 1.49-6 2 0 0 0.109 5.094 0.655 7 0.473 1.652 1.407 3.489 2.619 4.439 1.211 0.95 2.726 1.561 2.726 1.561s1.515-0.611 2.727-1.561c1.211-0.96 2.145-2.787 2.618-4.439 0.545-1.906 0.655-7 0.655-7-2.097-0.424-4.115-1.047-6-2zm-0.016 0.773c-1.635 0.712-3.393 1.302-5.269 1.773 0.043 1.352 0.191 4.786 0.613 6.261 0.433 1.514 1.267 3.211 2.378 4.081 0.838 0.657 1.831 1.141 2.294 1.349 0.463-0.208 1.456-0.691 2.292-1.347 1.111-0.88 1.947-2.568 2.38-4.083 0.42-1.468 0.569-4.879 0.612-6.243-1.842-0.408-3.62-0.977-5.3-1.791z" fill="#0d68c3"/>
</svg>
