<svg style="clip-rule:evenodd;fill-rule:evenodd;stroke-linejoin:round;stroke-miterlimit:2" viewBox="0 0 16 16" xmlns="http://www.w3.org/2000/svg">
 <path d="m11 6.017h-6v0.991c-1.257 0.942-1.998 2.421-2 3.992 0 2.761 2.239 5 5 5s5-2.239 5-5c-2e-3 -1.571-0.743-3.05-2-3.992v-0.991z" fill-opacity=".3" fill="#dfdfdf"/>
 <path d="m8 0c-1.662 0-3 1.338-3 3v4.008c-1.257 0.942-1.998 2.421-2 3.992 0 2.761 2.239 5 5 5s5-2.239 5-5c-2e-3 -1.571-0.743-3.05-2-3.992v-4.008c0-1.662-1.338-3-3-3zm0 1c1.108 0 2 0.892 2 2v4.008c0 0.315 0.148 0.611 0.4 0.8 1.006 0.754 1.598 1.937 1.6 3.193 0 2.208-1.791 3.999-4 3.999s-4-1.791-4-4c2e-3 -1.255 0.594-2.438 1.6-3.192 0.252-0.189 0.4-0.485 0.4-0.8v-4.008c0-1.108 0.892-2 2-2z" fill="#dfdfdf"/>
</svg>
