<svg style="clip-rule:evenodd;fill-rule:evenodd;stroke-linejoin:round;stroke-miterlimit:2" viewBox="0 0 16 16" xmlns="http://www.w3.org/2000/svg">
 <path d="m1 0c-0.554 0-1 0.446-1 1v14c0 0.554 0.446 1 1 1h14c0.554 0 1-0.446 1-1v-14c0-0.554-0.446-1-1-1h-14zm7 1c-3.84 0-7 3.16-7 7s3.16 7 7 7 7-3.16 7-7-3.16-7-7-7zm-6.5 13c0.274 0 0.5 0.226 0.5 0.5s-0.226 0.5-0.5 0.5-0.5-0.226-0.5-0.5 0.226-0.5 0.5-0.5zm13 0c0.274 0 0.5 0.226 0.5 0.5s-0.226 0.5-0.5 0.5-0.5-0.226-0.5-0.5 0.226-0.5 0.5-0.5zm-13-13c0.274 0 0.5 0.226 0.5 0.5s-0.226 0.5-0.5 0.5-0.5-0.226-0.5-0.5 0.226-0.5 0.5-0.5zm13 0c0.274 0 0.5 0.226 0.5 0.5s-0.226 0.5-0.5 0.5-0.5-0.226-0.5-0.5 0.226-0.5 0.5-0.5z" fill-opacity=".3" fill="#dfdfdf"/>
 <path d="m5.654 9.873c0.569 0.713 1.432 1.129 2.344 1.129l-0.417 1.62c-0.179 0.474-0.449 1.001-1.002 1-0.067 0-0.133-6e-3 -0.199-0.019-1.356-0.278-2.157-1.099-3.03-2.173-0.358-0.44-0.719-1.219 0.175-1.43l2.129-0.127zm4.021 0.615c0.756-0.509 1.241-1.336 1.315-2.245l1.581 0.547c0.458 0.217 0.961 0.529 0.916 1.08-6e-3 0.066-0.017 0.132-0.035 0.197-0.387 1.329-1.271 2.06-2.412 2.844-0.467 0.32-1.273 0.617-1.411-0.291l0.046-2.132zm-1.675-4.488c-1.097 0-2 0.903-2 2s0.903 2 2 2 2-0.903 2-2-0.903-2-2-2zm-1.834-0.376c-0.722 0.556-1.153 1.412-1.17 2.324l-1.612-0.445c-0.471-0.187-0.993-0.466-0.983-1.019 2e-3 -0.067 9e-3 -0.134 0.023-0.199 0.301-1.351 1.136-2.138 2.225-2.992 0.447-0.35 1.232-0.697 1.427 0.2l0.09 2.131zm4.437 0.888c-0.452-0.792-1.24-1.337-2.141-1.478l0.662-1.536c0.25-0.44 0.598-0.92 1.145-0.833 0.066 0.01 0.13 0.026 0.194 0.049 1.296 0.485 1.961 1.42 2.658 2.616 0.285 0.49 0.521 1.315-0.395 1.385l-2.123-0.203z" fill="#dfdfdf"/>
</svg>
