<svg style="clip-rule:evenodd;fill-rule:evenodd;stroke-linejoin:round;stroke-miterlimit:2" viewBox="0 0 16 16" xmlns="http://www.w3.org/2000/svg">
 <path d="m6.192 1.808c0-0.998 0.81-1.808 1.808-1.808s1.808 0.81 1.808 1.808h2.19c1.133 0 2.053 0.92 2.053 2.053v7.997c0 1.133-0.92 2.053-2.053 2.053h-7.996c-1.133 0-2.053-0.92-2.053-2.053v-7.997c0-1.133 0.92-2.053 2.053-2.053h2.19zm6.485 8.783h-9.354v1.136h9.354v-1.136zm0-2.102h-9.354v1.136h9.354v-1.136zm0-2.102h-9.354v1.137h9.354v-1.137zm0-2.102h-9.354v1.137h9.354v-1.137zm-4.677-3.761c0.714 0 1.293 0.579 1.293 1.292 0 0.714-0.579 1.293-1.293 1.293s-1.293-0.579-1.293-1.293c0-0.713 0.579-1.292 1.293-1.292z" fill="#dfdfdf"/>
 <g transform="translate(.677419 -.341191)">
  <path d="m12 7v4l0.25 2h1.5l0.25-2v-4h-2zm0.981 7c-0.26 0-0.51 0.103-0.694 0.287s-0.287 0.434-0.287 0.694v0.038c0 0.26 0.103 0.51 0.287 0.694s0.434 0.287 0.694 0.287h0.038c0.26 0 0.51-0.103 0.694-0.287s0.287-0.434 0.287-0.694v-0.038c0-0.26-0.103-0.51-0.287-0.694s-0.434-0.287-0.694-0.287h-0.038z" style="fill-rule:nonzero;fill:rgb(13,104,195)"/>
 </g>
</svg>
