<svg style="clip-rule:evenodd;fill-rule:evenodd;stroke-linejoin:round;stroke-miterlimit:2" viewBox="0 0 16 16" xmlns="http://www.w3.org/2000/svg">
 <path d="m7.988 10.641c0.206-0.452 0.439-0.973 0.511-1.162l0.103-0.274 0.292 0.016c1.468 0.077 2.588 0.388 3.407 0.738 0.433 0.186 0.811 0.634 1.104 1.222 0.379 0.761 0.636 1.758 0.792 2.538 0.105 0.388 0.025 0.802-0.216 1.123-0.246 0.327-0.631 0.519-1.033 0.519-2.247 0.039-7.475 0.039-9.8 0.039-0.435 0-0.844-0.211-1.095-0.568-0.248-0.352-0.312-0.801-0.171-1.208 0.222-0.748 0.536-1.69 0.934-2.421 0.302-0.554 0.662-0.989 1.051-1.191 0.768-0.403 1.806-0.671 3.157-0.769l0.271-0.02 0.118 0.245c0.109 0.225 0.359 0.734 0.575 1.173zm1.145-0.603c-0.254 0.587-0.77 1.702-0.77 1.702l-0.722 9e-3s-0.54-1.096-0.828-1.686c-1.086 0.101-1.936 0.323-2.576 0.658-0.275 0.143-0.505 0.472-0.718 0.865-0.374 0.686-0.664 1.572-0.873 2.273l-6e-3 0.021c-0.06 0.165-0.034 0.348 0.067 0.492 0.101 0.143 0.266 0.228 0.441 0.228 2.321 0 7.543 0 9.793-0.039 0.157 0 0.306-0.074 0.4-0.199 0.095-0.126 0.125-0.289 0.081-0.441l-7e-3 -0.032c-0.144-0.721-0.375-1.647-0.726-2.351-0.195-0.392-0.414-0.72-0.702-0.843-0.7-0.299-1.641-0.565-2.854-0.657zm-1.134-7.902c-1.673 0-3.29 1.569-3.021 3.457 0.275 1.932 1.378 3.343 3.021 3.343 1.646 0 2.807-1.485 3.023-3.354 0.22-1.893-1.352-3.446-3.023-3.446zm0 0.8c1.235 0 2.391 1.155 2.229 2.554-0.166 1.432-0.968 2.646-2.229 2.646-1.264 0-2.018-1.169-2.229-2.656-0.199-1.391 0.996-2.544 2.229-2.544z" fill="#dfdfdf"/>
</svg>
