<svg style="clip-rule:evenodd;fill-rule:evenodd;stroke-linejoin:round;stroke-miterlimit:2" viewBox="0 0 16 16" xmlns="http://www.w3.org/2000/svg">
 <path d="m8 11.572s0.735-1.586 0.873-1.952c0.71 0.037 1.335 0.131 1.882 0.258 0.538 0.125 0.051 0.992 0.158 1.402 0.267 1.021 0.505 1.954 0.519 2.609 0.014 0.599 0.098 1.09-0.815 1.096-2.504 0.015-5.766 0.015-7.469 0.015-0.305 0-0.592-0.148-0.768-0.398s-0.22-0.569-0.117-0.857c0.359-1.209 0.96-2.946 1.789-3.379 0.73-0.382 1.718-0.631 3.001-0.724 0.211 0.436 0.947 1.93 0.947 1.93zm-1e-3 -9.036c1.453 0 2.817 1.354 2.626 3-0.191 1.65-1.173 3-2.626 3s-2.382-1.29-2.625-3c-0.234-1.639 1.172-3 2.625-3z" fill-opacity=".3" fill="#dfdfdf"/>
 <path d="m12.5 9c-1.93 0-3.5 1.57-3.5 3.5s1.57 3.5 3.5 3.5 3.5-1.57 3.5-3.5-1.57-3.5-3.5-3.5zm-0.5 1h1v2h2v1h-3v-3z" fill="#dfdfdf"/>
</svg>
