<svg xmlns="http://www.w3.org/2000/svg" viewBox="0 0 16 16">
 <defs>
  <style id="current-color-scheme" type="text/css">
   .ColorScheme-Text { color:#dfdfdf; } .ColorScheme-Highlight { color:#4285f4; } .ColorScheme-NeutralText { color:#ff9800; } .ColorScheme-PositiveText { color:#4caf50; } .ColorScheme-NegativeText { color:#f44336; }
  </style>
 </defs>
  <path style="fill:currentColor;" class="ColorScheme-Text" d="m2.977 11.24c-.183.01-.345.119-.424.283l-1 2c-.039.072-.059.153-.059.235 0 .275.225.5.5.5.194 0 .371-.113.453-.289l1-2c.037-.071.056-.15.056-.23 0-.274-.226-.5-.5-.5-.009 0-.018.001-.026.001zm2.5 0c-.183.01-.345.119-.424.283l-1 2c-.039.072-.059.153-.059.235 0 .275.225.5.5.5.194 0 .371-.113.453-.289l1-2c.037-.071.056-.15.056-.23 0-.274-.226-.5-.5-.5-.009 0-.018.001-.026.001zm2.5 0c-.183.01-.345.119-.424.283l-1 2c-.039.072-.059.153-.059.235 0 .275.225.5.5.5.194 0 .371-.113.453-.289l1-2c.037-.071.056-.15.056-.23 0-.274-.226-.5-.5-.5-.009 0-.018.001-.026.001zm2.5 0c-.182.01-.345.119-.424.283l-1 2c-.039.072-.059.153-.059.235 0 .275.225.5.5.5.194 0 .371-.113.453-.289l1-2c.037-.071.056-.15.056-.23 0-.274-.226-.5-.5-.5-.009 0-.017.001-.026.001zm2.5 0c-.182.01-.345.119-.424.283l-1 2c-.041.074-.063.157-.063.242 0 .275.226.5.5.5.197 0 .377-.116.457-.296l1-2c.037-.071.056-.15.056-.23 0-.274-.226-.5-.5-.5-.009 0-.017.001-.026.001z"/>
  <path style="fill:currentColor;fill-opacity:0.3" class="ColorScheme-Text" d="m3.679 2.752c.816-1.348 2.294-2.251 3.985-2.251 2.179 0 4.011 1.503 4.514 3.529.231-.057.473-.085.721-.085 1.712 0 3.101 1.389 3.101 3.1 0 1.581-1.186 2.889-2.716 3.078h-.001c-.125.015-.253.023-.384.023s-.259-.008-.384-.023h-8.83c-2.034 0-3.685-1.652-3.685-3.686 0-2.032 1.648-3.681 3.679-3.685z"/>
</svg>
