<svg style="clip-rule:evenodd;fill-rule:evenodd;stroke-linejoin:round;stroke-miterlimit:2" version="1.1" viewBox="0 0 64 64" xmlns="http://www.w3.org/2000/svg">
 <path d="m54 3.146c0-0.926-0.751-1.677-1.677-1.677h-34.705c-2.02 0-3.958 0.803-5.387 2.231-1.428 1.429-2.231 3.367-2.231 5.387v45.295c0 2.02 0.803 3.958 2.231 5.387 1.429 1.428 3.367 2.231 5.387 2.231h28.764c2.02 0 3.958-0.803 5.387-2.231 1.428-1.429 2.231-3.367 2.231-5.387v-51.236z" style="fill:url(#_Linear1)"/>
 <path d="m16.228 57.392c0 0.229 0.027 0.395 0.08 0.496 0.059 0.101 0.16 0.152 0.304 0.152 0.032 0 0.083-3e-3 0.152-8e-3 0.075-0.011 0.128-0.016 0.16-0.016l0.104 0.552c-0.165 0.032-0.344 0.048-0.536 0.048-0.219 0-0.397-0.024-0.536-0.072-0.133-0.053-0.232-0.141-0.296-0.264-0.059-0.123-0.099-0.248-0.12-0.376-0.016-0.133-0.024-0.317-0.024-0.552v-2.392h-0.512v-0.537h0.512v-1.032l0.712-0.424v1.456h0.696v0.536h-0.696v2.433zm1.354 2.768l-0.087-0.552c0.171 0.043 0.307 0.064 0.408 0.064 0.149 0 0.28-0.043 0.392-0.128s0.192-0.189 0.24-0.312c0.155-0.405 0.237-0.627 0.248-0.664l-1.568-4.144h0.744l0.872 2.392c0.123 0.336 0.221 0.659 0.296 0.968 0.107-0.389 0.205-0.704 0.296-0.944l0.88-2.416h0.712l-1.584 4.216-0.128 0.344c-0.016 0.043-0.059 0.144-0.128 0.304-0.069 0.165-0.123 0.272-0.16 0.32-0.037 0.053-0.096 0.133-0.176 0.24-0.08 0.112-0.155 0.187-0.224 0.224-0.069 0.043-0.155 0.083-0.256 0.12s-0.208 0.056-0.32 0.056c-0.16 0-0.312-0.029-0.456-0.088h-1e-3zm7.601-3.704c0 0.635-0.163 1.163-0.488 1.584-0.32 0.416-0.757 0.624-1.312 0.624-0.443 0-0.803-0.176-1.08-0.528v2.024h-0.712v-5.737h0.712v0.536c0.229-0.421 0.605-0.632 1.128-0.632 0.56 0 0.992 0.195 1.296 0.584s0.456 0.904 0.456 1.544v1e-3zm-1.816-1.552c-0.336 0-0.597 0.147-0.784 0.44-0.187 0.288-0.28 0.68-0.28 1.176 0 1.045 0.347 1.568 1.04 1.568 0.368 0 0.648-0.149 0.84-0.448s0.288-0.693 0.288-1.184c0-0.464-0.096-0.837-0.288-1.12-0.187-0.288-0.459-0.432-0.816-0.432zm3.165 1.759c0.027 0.433 0.147 0.779 0.36 1.04 0.219 0.257 0.52 0.385 0.904 0.385 0.512 0 0.877-0.285 1.096-0.856l0.72 0.088c-0.245 0.896-0.853 1.344-1.824 1.344-0.624 0-1.109-0.187-1.456-0.56s-0.52-0.901-0.52-1.584c0-0.667 0.168-1.197 0.504-1.592 0.341-0.4 0.819-0.6 1.432-0.6 0.555 0 0.995 0.168 1.32 0.504 0.325 0.331 0.509 0.787 0.552 1.368v0.464l-3.088-1e-3zm0.04-0.575h2.32c-0.064-0.789-0.44-1.184-1.128-1.184-0.347 0-0.627 0.112-0.84 0.336-0.208 0.219-0.325 0.501-0.352 0.848zm5.35 0.704c-0.267-0.064-0.478-0.123-0.633-0.176s-0.315-0.128-0.48-0.224-0.285-0.216-0.36-0.36-0.112-0.317-0.112-0.52c0-0.133 0.021-0.261 0.064-0.384 0.048-0.128 0.125-0.253 0.232-0.376 0.107-0.128 0.264-0.229 0.472-0.304 0.213-0.08 0.464-0.12 0.752-0.12 0.299 0 0.555 0.032 0.768 0.096 0.213 0.059 0.379 0.147 0.496 0.264s0.205 0.237 0.264 0.36 0.101 0.269 0.128 0.44l-0.696 0.088c-0.064-0.448-0.368-0.672-0.912-0.672-0.571 0-0.856 0.179-0.856 0.536 0 0.16 0.061 0.277 0.184 0.352s0.352 0.157 0.688 0.248c0.048 0.011 0.136 0.035 0.264 0.072 0.133 0.032 0.221 0.056 0.264 0.072 0.048 0.011 0.128 0.035 0.24 0.072 0.112 0.032 0.189 0.059 0.232 0.08 0.048 0.021 0.115 0.053 0.2 0.096 0.091 0.043 0.155 0.083 0.192 0.12s0.083 0.085 0.136 0.144 0.091 0.12 0.112 0.184c0.027 0.059 0.048 0.128 0.064 0.208 0.021 0.08 0.032 0.165 0.032 0.256 0 0.251-0.059 0.467-0.176 0.648-0.112 0.181-0.259 0.32-0.44 0.416-0.176 0.091-0.352 0.155-0.528 0.192-0.176 0.043-0.349 0.064-0.52 0.064-1.024 0-1.616-0.445-1.776-1.336l0.696-0.112c0.075 0.581 0.435 0.872 1.08 0.872 0.635 0 0.952-0.221 0.952-0.664 0-0.048-5e-3 -0.091-0.016-0.128-5e-3 -0.043-0.021-0.08-0.048-0.112s-0.051-0.059-0.072-0.08c-0.021-0.027-0.056-0.051-0.104-0.072-0.048-0.027-0.088-0.045-0.12-0.056-0.027-0.016-0.075-0.032-0.144-0.048l-0.16-0.048c-0.032-0.011-0.091-0.024-0.176-0.04-0.085-0.021-0.147-0.037-0.184-0.048h1e-3zm2.336-0.289c0-0.415 0.059-0.772 0.176-1.071s0.272-0.523 0.464-0.672c0.197-0.155 0.4-0.264 0.608-0.328 0.208-0.069 0.427-0.104 0.656-0.104 0.928 0 1.48 0.437 1.656 1.312l-0.688 0.104c-0.123-0.56-0.437-0.84-0.944-0.84-0.811 0-1.216 0.531-1.216 1.592s0.392 1.592 1.176 1.592c0.592 0 0.941-0.347 1.048-1.04l0.68 0.088c-0.075 0.464-0.261 0.835-0.56 1.112-0.293 0.277-0.677 0.416-1.152 0.416-0.603 0-1.072-0.195-1.408-0.584-0.331-0.395-0.496-0.92-0.496-1.576v-1e-3zm4.192 2.065v-4.145h0.712v0.624c0.197-0.48 0.472-0.72 0.824-0.72 0.24 0 0.48 0.072 0.72 0.216l-0.232 0.52c-0.16-0.107-0.331-0.16-0.512-0.16-0.235 0-0.427 0.125-0.576 0.376s-0.224 0.624-0.224 1.12v2.168l-0.712 1e-3zm2.672-4.92v-0.808h0.712v0.808h-0.712zm0 4.92v-4.145h0.712v4.144l-0.712 1e-3zm5.373-2.112c0 0.635-0.163 1.163-0.488 1.584-0.32 0.416-0.757 0.624-1.312 0.624-0.443 0-0.803-0.176-1.08-0.528v2.024h-0.712v-5.737h0.712v0.536c0.229-0.421 0.605-0.632 1.128-0.632 0.56 0 0.992 0.195 1.296 0.584s0.456 0.904 0.456 1.544v1e-3zm-1.816-1.552c-0.336 0-0.597 0.147-0.784 0.44-0.187 0.288-0.28 0.68-0.28 1.176 0 1.045 0.347 1.568 1.04 1.568 0.368 0 0.648-0.149 0.84-0.448s0.288-0.693 0.288-1.184c0-0.464-0.096-0.837-0.288-1.12-0.187-0.288-0.459-0.432-0.816-0.432zm3.518 2.488c0 0.229 0.027 0.395 0.08 0.496 0.059 0.101 0.16 0.152 0.304 0.152 0.032 0 0.083-3e-3 0.152-8e-3 0.075-0.011 0.128-0.016 0.16-0.016l0.104 0.552c-0.165 0.032-0.344 0.048-0.536 0.048-0.219 0-0.397-0.024-0.536-0.072-0.133-0.053-0.232-0.141-0.296-0.264-0.059-0.123-0.099-0.248-0.12-0.376-0.016-0.133-0.024-0.317-0.024-0.552v-2.392h-0.512v-0.537h0.512v-1.032l0.712-0.424v1.456h0.696v0.536h-0.696v2.433z" style="fill-rule:nonzero;fill:#fff"/>
 <path d="m25.987 23.086h-4.483v12.432h-1.829v-12.432h-4.473v-1.513h10.785v1.513zm5.552 6.127c-1.577-0.453-2.727-1.009-3.448-1.666-0.715-0.664-1.073-1.481-1.073-2.451 0-1.099 0.438-2.005 1.313-2.72 0.881-0.722 2.023-1.083 3.428-1.083 0.958 0 1.811 0.185 2.558 0.556 0.753 0.37 1.334 0.881 1.743 1.532 0.415 0.651 0.622 1.363 0.622 2.136h-1.848c0-0.843-0.268-1.504-0.805-1.983-0.536-0.485-1.293-0.728-2.27-0.728-0.907 0-1.615 0.201-2.126 0.604-0.505 0.396-0.757 0.948-0.757 1.657 0 0.568 0.24 1.05 0.719 1.446 0.485 0.389 1.306 0.747 2.461 1.073 1.162 0.325 2.069 0.686 2.72 1.082 0.658 0.389 1.143 0.846 1.456 1.37 0.319 0.523 0.479 1.139 0.479 1.848 0 1.13-0.441 2.037-1.322 2.72-0.881 0.677-2.059 1.015-3.534 1.015-0.958 0-1.852-0.182-2.682-0.546-0.83-0.37-1.472-0.874-1.925-1.513-0.447-0.639-0.67-1.363-0.67-2.174h1.848c0 0.843 0.31 1.51 0.93 2.002 0.625 0.485 1.459 0.728 2.5 0.728 0.97 0 1.713-0.198 2.23-0.594 0.518-0.396 0.777-0.936 0.777-1.619s-0.24-1.21-0.719-1.58c-0.479-0.377-1.347-0.747-2.605-1.111v-1e-3zm5.868-7.684l4.417 6.915-4.522 7.03h2.174l3.45-5.44 3.427 5.44h2.184l-4.51-7.03 4.405-6.915h-2.165l-3.342 5.344-3.361-5.344h-2.157z" style="fill-opacity:.58;fill-rule:nonzero"/>
 <defs>
  <linearGradient id="_Linear1" x2="1" gradientTransform="matrix(3.03829e-15,-49.619,49.619,3.03829e-15,177.88,51.088)" gradientUnits="userSpaceOnUse">
   <stop style="stop-color:#0062ae" offset="0"/>
   <stop style="stop-color:#5398fe" offset="1"/>
  </linearGradient>
 </defs>
</svg>
