<svg style="clip-rule:evenodd;fill-rule:evenodd;stroke-linejoin:round;stroke-miterlimit:2" version="1.1" viewBox="0 0 64 64" xmlns="http://www.w3.org/2000/svg">
 <path d="m54 4.449c0-0.79-0.314-1.548-0.873-2.107s-1.317-0.873-2.107-0.873h-38.04c-0.79 0-1.548 0.314-2.107 0.873s-0.873 1.317-0.873 2.107v54.571c0 0.79 0.314 1.548 0.873 2.107s1.317 0.873 2.107 0.873h38.04c0.79 0 1.548-0.314 2.107-0.873s0.873-1.317 0.873-2.107v-54.571z" style="fill:url(#_Linear1)"/>
 <path d="m54 51.088h-44v7.912c0 0.796 0.316 1.559 0.879 2.121 0.562 0.563 1.325 0.879 2.121 0.879h38c0.796 0 1.559-0.316 2.121-0.879 0.563-0.562 0.879-1.325 0.879-2.121v-7.912z" style="fill:#0b3969"/>
 <path d="m23.957 19c-0.53 0-0.957 0.465-0.957 1.043v15.912c0 0.579 0.427 1.045 0.957 1.045h16.086c0.53 0 0.957-0.466 0.957-1.045v-15.912c0-0.578-0.427-1.043-0.957-1.043h-16.086zm10.182 6.432l3.861 5.136h-12l3-3.849 2.139 2.574 3-3.861z" style="fill-rule:nonzero;fill:#0b3969"/>
 <defs>
  <linearGradient id="_Linear1" x2="1" gradientTransform="matrix(3.03829e-15,-49.619,49.619,3.03829e-15,177.88,51.088)" gradientUnits="userSpaceOnUse">
   <stop style="stop-color:#165eab" offset="0"/>
   <stop style="stop-color:#20b9fa" offset="1"/>
  </linearGradient>
 </defs>
</svg>
