<svg clip-rule="evenodd" fill-rule="evenodd" stroke-linejoin="round" stroke-miterlimit="2" viewBox="0 0 64 64" xmlns="http://www.w3.org/2000/svg">
 <linearGradient id="a" x2="1" gradientTransform="matrix(0 -49.619 49.619 0 323.66 51.088)" gradientUnits="userSpaceOnUse">
  <stop stop-color="#5c6d7d" offset="0"/>
  <stop stop-color="#7fa4ad" offset="1"/>
 </linearGradient>
 <path d="m54 3.146c0-.926-.751-1.677-1.677-1.677h-34.705c-2.02 0-3.958.803-5.387 2.231-1.428 1.429-2.231 3.367-2.231 5.387v45.295c0 2.02.803 3.958 2.231 5.387 1.429 1.428 3.367 2.231 5.387 2.231h28.764c2.02 0 3.958-.803 5.387-2.231 1.428-1.429 2.231-3.367 2.231-5.387z" fill="url(#a)"/>
 <path transform="matrix(1.27358 0 0 1.27358 -7.52172 -14.4961)" d="m33.407 24.508-3.128 18.395-3.16-6.683-9.119 5.228c.077.243.16.485.248.724l7.945-3.672 4.841 10.009 3.694-22.934 11.272-.215c-.185-.224-.377-.444-.574-.657z" fill="#ffffff" fill-opacity=".7" fill-rule="nonzero"/>
</svg>
