<svg style="clip-rule:evenodd;fill-rule:evenodd;stroke-linejoin:round;stroke-miterlimit:2" version="1.1" viewBox="0 0 64 64" xmlns="http://www.w3.org/2000/svg">
 <path d="m54 4.449c0-0.79-0.314-1.548-0.873-2.107s-1.317-0.873-2.107-0.873h-38.04c-0.79 0-1.548 0.314-2.107 0.873s-0.873 1.317-0.873 2.107v54.571c0 0.79 0.314 1.548 0.873 2.107s1.317 0.873 2.107 0.873h38.04c0.79 0 1.548-0.314 2.107-0.873s0.873-1.317 0.873-2.107v-54.571z" style="fill:url(#_Linear1)"/>
 <path d="m54 51.088h-44v7.912c0 0.796 0.316 1.559 0.879 2.121 0.562 0.563 1.325 0.879 2.121 0.879h38c0.796 0 1.559-0.316 2.121-0.879 0.563-0.562 0.879-1.325 0.879-2.121v-7.912z" style="fill:#464d55"/>
 <path d="m29.088 59.571l-0.672-0.344 2.598-4.672h-2.836l0.017-0.721h3.614v0.771l-2.721 4.966z" style="fill-rule:nonzero;fill:#fff"/>
 <path d="m32.403 59.44v-0.656l2.286-2.671h-2.221v-0.689h3.147v0.656l-2.286 2.671h2.319v0.689h-3.245z" style="fill-rule:nonzero;fill:#fff"/>
 <rect x="22.2" y="16" width="19.8" height="22" style="fill:#3d434a"/>
 <rect x="31.039" y="16.611" width="2.2" height="1.1" style="fill-opacity:.93;fill:#fff"/>
 <rect x="31.035" y="18.202" width="2.2" height="1.1" style="fill-opacity:.93;fill:#fff"/>
 <rect x="31.021" y="19.774" width="2.2" height="1.1" style="fill-opacity:.93;fill:#fff"/>
 <rect x="31.045" y="21.41" width="2.2" height="1.1" style="fill-opacity:.93;fill:#fff"/>
 <rect x="31.045" y="23.018" width="2.2" height="1.1" style="fill-opacity:.93;fill:#fff"/>
 <rect x="31.045" y="24.663" width="2.2" height="1.1" style="fill-opacity:.93;fill:#fff"/>
 <path d="m32.951 27.371v-0.694c0-0.194-0.157-0.351-0.349-0.351h-0.97c-0.193 0-0.349 0.157-0.349 0.351v0.693l-0.539 1.591c-0.151 0.443-0.079 0.935 0.193 1.317 0.272 0.381 0.713 0.608 1.18 0.608s0.908-0.227 1.18-0.608c0.271-0.382 0.344-0.874 0.193-1.317l-0.539-1.59zm-0.226 2.497c-0.279 0.393-0.937 0.393-1.217 0-0.14-0.197-0.177-0.451-0.1-0.68l0.181-0.533h1.055l0.181 0.533c0.078 0.229 0.04 0.483-0.1 0.68z" style="fill-rule:nonzero;fill:#fff"/>
 <defs>
  <linearGradient id="_Linear1" x2="1" gradientTransform="matrix(3.03829e-15,-49.619,49.619,3.03829e-15,104.99,51.088)" gradientUnits="userSpaceOnUse">
   <stop style="stop-color:#6a7b86" offset="0"/>
   <stop style="stop-color:#b5bdc2" offset="1"/>
  </linearGradient>
 </defs>
</svg>
