<svg style="clip-rule:evenodd;fill-rule:evenodd;stroke-linejoin:round;stroke-miterlimit:2" version="1.1" viewBox="0 0 64 64" xmlns="http://www.w3.org/2000/svg">
 <path d="m54 4.449c0-0.79-0.314-1.548-0.873-2.107s-1.317-0.873-2.107-0.873h-38.04c-0.79 0-1.548 0.314-2.107 0.873s-0.873 1.317-0.873 2.107v54.571c0 0.79 0.314 1.548 0.873 2.107s1.317 0.873 2.107 0.873h38.04c0.79 0 1.548-0.314 2.107-0.873s0.873-1.317 0.873-2.107v-54.571z" style="fill:url(#_Linear1)"/>
 <path d="m54 51.088h-44v7.912c0 0.796 0.316 1.559 0.879 2.121 0.562 0.563 1.325 0.879 2.121 0.879h38c0.796 0 1.559-0.316 2.121-0.879 0.563-0.562 0.879-1.325 0.879-2.121v-7.912z" style="fill:#0b3969"/>
 <path d="m32.07 30.114c2.582 0 4.675-2.093 4.675-4.675s-2.093-4.675-4.675-4.675-4.676 2.093-4.676 4.675c0 2.555 2.05 4.631 4.676 4.675z" style="fill:#0c3e6a"/>
 <path d="m38.047 30.462c-1.499-0.844-2.997 2.079-6.09 1.937-2.899-0.133-4.76-2.975-6.231-2.127-1.472 0.848-4.173 6.036-2.599 7.213 1.653 1.237 3.833 2.511 8.539 2.551 5.144 0.045 7.832-1.34 9.284-2.576s-1.404-6.154-2.903-6.998z" style="fill:#0c3e6a"/>
 <defs>
  <linearGradient id="_Linear1" x2="1" gradientTransform="matrix(3.03829e-15,-49.619,49.619,3.03829e-15,104.99,51.088)" gradientUnits="userSpaceOnUse">
   <stop style="stop-color:#165eab" offset="0"/>
   <stop style="stop-color:#20b9fa" offset="1"/>
  </linearGradient>
 </defs>
</svg>
