<svg style="clip-rule:evenodd;fill-rule:evenodd;stroke-linejoin:round;stroke-miterlimit:2" version="1.1" viewBox="0 0 64 64" xmlns="http://www.w3.org/2000/svg">
 <path d="m54 4.449c0-0.79-0.314-1.548-0.873-2.107s-1.317-0.873-2.107-0.873h-38.04c-0.79 0-1.548 0.314-2.107 0.873s-0.873 1.317-0.873 2.107v54.571c0 0.79 0.314 1.548 0.873 2.107s1.317 0.873 2.107 0.873h38.04c0.79 0 1.548-0.314 2.107-0.873s0.873-1.317 0.873-2.107v-54.571z" style="fill:url(#_Linear1)"/>
 <path d="m54 51.088h-44v7.912c0 0.796 0.316 1.559 0.879 2.121 0.562 0.563 1.325 0.879 2.121 0.879h38c0.796 0 1.559-0.316 2.121-0.879 0.563-0.562 0.879-1.325 0.879-2.121v-7.912z" style="fill:#675825"/>
 <path d="m29.547 59.405c-0.421 0-0.743-0.112-0.967-0.336-0.219-0.224-0.328-0.54-0.328-0.95v-2.106h-0.705v-0.689h0.705v-1.229h0.754v1.229h0.983v0.689h-0.983v2.048c0 0.437 0.18 0.656 0.541 0.656 0.136 0 0.251-0.022 0.344-0.066l0.262 0.648c-0.164 0.071-0.366 0.106-0.606 0.106z" style="fill-rule:nonzero;fill:#fff"/>
 <path d="m31.897 59.471c-0.426 0-0.784-0.123-1.074-0.369-0.284-0.246-0.426-0.571-0.426-0.975 0-0.437 0.169-0.779 0.508-1.024 0.339-0.252 0.757-0.377 1.254-0.377 0.443 0 0.806 0.081 1.09 0.245v-0.114c0-0.295-0.101-0.53-0.303-0.705-0.202-0.18-0.451-0.271-0.746-0.271-0.219 0-0.418 0.052-0.598 0.156-0.175 0.104-0.295 0.246-0.361 0.426l-0.688-0.295c0.093-0.24 0.276-0.461 0.549-0.664 0.273-0.207 0.634-0.311 1.082-0.311 0.513 0 0.939 0.15 1.278 0.451 0.339 0.3 0.508 0.724 0.508 1.27v2.426h-0.721v-0.557h-0.033c-0.3 0.459-0.74 0.688-1.319 0.688zm0.123-0.688c0.311 0 0.592-0.115 0.844-0.345 0.257-0.235 0.385-0.51 0.385-0.827-0.213-0.175-0.533-0.263-0.959-0.263-0.366 0-0.642 0.08-0.828 0.238-0.185 0.158-0.278 0.344-0.278 0.557 0 0.197 0.084 0.353 0.254 0.467 0.169 0.115 0.363 0.173 0.582 0.173z" style="fill-rule:nonzero;fill:#fff"/>
 <path d="m35.574 59.34h-0.754v-4.016h0.721v0.656h0.033c0.077-0.219 0.232-0.399 0.467-0.541 0.241-0.142 0.473-0.213 0.697-0.213s0.412 0.033 0.565 0.098l-0.286 0.705c-0.099-0.038-0.233-0.057-0.402-0.057-0.273 0-0.516 0.109-0.729 0.327-0.208 0.213-0.312 0.495-0.312 0.844v2.197z" style="fill-rule:nonzero;fill:#fff"/>
 <rect x="22.2" y="16" width="19.8" height="22" style="fill:#675825"/>
 <rect x="31.039" y="16.611" width="2.2" height="1.1" style="fill-opacity:.93;fill:#fff"/>
 <rect x="31.035" y="18.202" width="2.2" height="1.1" style="fill-opacity:.93;fill:#fff"/>
 <rect x="31.021" y="19.774" width="2.2" height="1.1" style="fill-opacity:.93;fill:#fff"/>
 <rect x="31.045" y="21.41" width="2.2" height="1.1" style="fill-opacity:.93;fill:#fff"/>
 <rect x="31.045" y="23.018" width="2.2" height="1.1" style="fill-opacity:.93;fill:#fff"/>
 <rect x="31.045" y="24.663" width="2.2" height="1.1" style="fill-opacity:.93;fill:#fff"/>
 <path d="m32.951 27.371v-0.694c0-0.194-0.157-0.351-0.349-0.351h-0.97c-0.193 0-0.349 0.157-0.349 0.351v0.693l-0.539 1.591c-0.151 0.443-0.079 0.935 0.193 1.317 0.272 0.381 0.713 0.608 1.18 0.608s0.908-0.227 1.18-0.608c0.271-0.382 0.344-0.874 0.193-1.317l-0.539-1.59zm-0.226 2.497c-0.279 0.393-0.937 0.393-1.217 0-0.14-0.197-0.177-0.451-0.1-0.68l0.181-0.533h1.055l0.181 0.533c0.078 0.229 0.04 0.483-0.1 0.68z" style="fill-rule:nonzero;fill:#fff"/>
 <defs>
  <linearGradient id="_Linear1" x2="1" gradientTransform="matrix(3.03829e-15,-49.619,49.619,3.03829e-15,104.99,51.088)" gradientUnits="userSpaceOnUse">
   <stop style="stop-color:#8f7b35" offset="0"/>
   <stop style="stop-color:#f4d469" offset="1"/>
  </linearGradient>
 </defs>
</svg>
