<svg clip-rule="evenodd" fill-rule="evenodd" stroke-linejoin="round" stroke-miterlimit="2" viewBox="0 0 64 64" xmlns="http://www.w3.org/2000/svg">
 <linearGradient id="a" x2="1" gradientTransform="matrix(0 -49.619 49.619 0 177.88 51.088)" gradientUnits="userSpaceOnUse">
  <stop stop-color="#2a5b7d" offset="0"/>
  <stop stop-color="#73a1be" offset="1"/>
 </linearGradient>
 <path d="m54 3.146c0-.926-.751-1.677-1.677-1.677h-34.705c-2.02 0-3.958.803-5.387 2.231-1.428 1.429-2.231 3.367-2.231 5.387v45.295c0 2.02.803 3.958 2.231 5.387 1.429 1.428 3.367 2.231 5.387 2.231h28.764c2.02 0 3.958-.803 5.387-2.231 1.428-1.429 2.231-3.367 2.231-5.387z" fill="url(#a)"/>
 <path d="m17.749 39.391c-.885-.195-1.379-.544-1.662-1.173-.132-.295-.149-.503-.184-2.286-.037-1.863-.048-1.979-.202-2.296-.202-.416-.593-.63-1.248-.683l-.453-.037v-1.744l.475-.048c.652-.067 1.038-.268 1.229-.639.135-.26.156-.429.174-1.401.05-2.673.067-2.953.192-3.246.164-.381.427-.654.829-.863.659-.341 1.036-.399 2.846-.437l1.703-.037.02 4.913c.02 4.75.025 4.922.161 5.194.251.5.424.575 1.334.575h.796l.043.313c.023.172.042.498.042.724v.41l-.613.089c-.344.049-.891.071-1.248.049-1.124-.069-1.812-.456-2.184-1.227-.349-.723-.38-1.16-.382-5.447l-.003-3.948-.369.05c-.528.071-.795.218-.943.522-.111.225-.134.51-.164 2.045-.033 1.667-.046 1.804-.194 2.11-.206.424-.384.587-.998.915l-.505.269.409.152c.525.195.881.497 1.088.923.156.321.166.433.2 2.158.038 1.966.062 2.095.436 2.377.116.087.343.156.58.175l.547.033v1.623l-.737-.005c-.319-.003-.776-.049-1.015-.102zm26.752-.713v-.82l.489-.001c.46 0 .795-.185.966-.534.125-.256.144-.478.176-2.105.034-1.708.046-1.837.194-2.118.189-.359.476-.592 1.062-.862l.437-.201-.402-.17c-.479-.201-.892-.561-1.101-.959-.142-.27-.155-.421-.189-2.11-.034-1.659-.05-1.84-.18-2.068-.168-.294-.499-.479-.963-.537l-.489-.042v-1.653l.855.049c1.549.089 2.32.52 2.653 1.415.09.241.122.717.156 2.301.038 1.828.054 2.019.184 2.247.183.323.675.572 1.227.623l.424.039v1.744l-.451.037c-.583.047-.999.277-1.195.66-.135.262-.15.446-.189 2.247-.046 2.107-.082 2.335-.451 2.825-.353.47-1.39.81-2.478.812l-.735.001zm-17.282-1.86c-.097-.018-.366-.066-.598-.108-.578-.103-1.478-.557-1.877-.946-.722-.704-1.118-1.577-1.257-2.773-.157-1.351.125-2.711.756-3.647.53-.788 1.34-1.338 2.259-1.535.476-.103 1.516-.103 1.997-.002.966.205 1.782.838 2.246 1.743.364.71.482 1.273.482 2.303v.869h-5.757l.035.267c.114.876.329 1.335.838 1.789.439.392.824.512 1.65.512.773 0 1.544-.171 2.219-.492l.427-.202.281 1.469-.467.218c-.256.12-.713.283-1.015.361-.525.136-1.851.24-2.219.174zm2.092-5.844c-.073-.924-.558-1.563-1.328-1.75-1.199-.292-2.21.505-2.424 1.91l-.046.304h3.834zm4.466 5.816c-1.042-.121-2.159-.496-2.1-.706.017-.065.07-.414.117-.777s.098-.66.113-.66c.016 0 .151.064.302.142.816.422 2.431.685 3.092.503.627-.174.973-.772.753-1.306-.144-.35-.466-.548-1.747-1.074-1.217-.499-1.671-.765-2.086-1.222-.704-.775-.67-2.364.066-3.111.637-.647 1.468-.88 2.947-.83 1.012.035 1.552.139 2.31.447l.276.112-.243.69c-.134.38-.249.697-.257.704-.008.008-.267-.076-.576-.187-1.75-.628-3.127-.384-3.127.554 0 .442.406.73 1.735 1.23 1.458.549 2.123.997 2.469 1.662.174.335.191.436.191 1.152 0 .713-.018.821-.195 1.187-.328.677-.949 1.16-1.775 1.378-.502.132-1.611.187-2.265.112zm6.75 0c-.66-.076-1.148-.195-1.675-.406l-.426-.171.102-.765c.057-.421.111-.775.121-.788.009-.012.144.043.3.124.821.425 2.438.691 3.094.51.437-.121.784-.468.832-.831.085-.639-.274-.943-1.852-1.569-2.029-.805-2.621-1.476-2.539-2.877.069-1.182.708-1.881 2.006-2.19.364-.086.713-.105 1.494-.078 1.02.035 1.406.106 2.196.406l.4.152-.245.688c-.135.378-.252.693-.261.701-.008.008-.334-.094-.724-.226-1.237-.421-2.23-.406-2.722.039-.19.173-.226.255-.226.524 0 .535.25.713 1.872 1.334 2.008.769 2.577 1.421 2.508 2.878-.038.816-.22 1.271-.686 1.713-.392.372-.763.577-1.304.72-.502.132-1.611.187-2.265.112z" fill="#ffffff" fill-opacity=".5" fill-rule="nonzero"/>
</svg>
