<svg xmlns="http://www.w3.org/2000/svg" style="fill-rule:evenodd;clip-rule:evenodd;stroke-linejoin:round;stroke-miterlimit:2" width="100%" height="100%" viewBox="0 0 16 16" xml:space="preserve">
 <defs>
  <style id="current-color-scheme" type="text/css">
   .ColorScheme-Text { color:#444444; } .ColorScheme-Highlight { color:#4285f4; } .ColorScheme-NeutralText { color:#ff9800; } .ColorScheme-PositiveText { color:#4caf50; } .ColorScheme-NegativeText { color:#f44336; }
  </style>
 </defs>
 <path style="fill:currentColor;" class="ColorScheme-Text" d="M5.046,9.616l-0.808,-0c-0.306,-0 -0.6,0.122 -0.817,0.338c-0.216,0.217 -0.338,0.51 -0.338,0.817l0.002,3.783l9.83,-0l0,-9.785l-2.82,-0.029l-0,-3.294l-7.01,0l-0,5.162l-1.093,-0l0,-4.542c0,-0.454 0.181,-0.89 0.502,-1.211c0.321,-0.321 0.756,-0.501 1.21,-0.501l6.847,-0l3.457,4.089c-0,-0 -0,6.354 -0,9.491c-0,0.946 -0.767,1.712 -1.712,1.712c-2.285,0 -6.307,0 -8.592,0c-0.945,0 -1.712,-0.766 -1.712,-1.712c0,0 0,-2.665 0,-3.141c0,-0.572 0.25,-1.142 0.654,-1.546c0.404,-0.404 0.952,-0.631 1.523,-0.631l0.877,-0l0,-1.741l3.957,2.27l-3.957,2.271l0,-1.8Z"/>
</svg>
