<svg xmlns="http://www.w3.org/2000/svg" style="fill-rule:evenodd;clip-rule:evenodd;stroke-linejoin:round;stroke-miterlimit:2" width="100%" height="100%" viewBox="0 0 16 16" xml:space="preserve">
 <defs>
  <style id="current-color-scheme" type="text/css">
   .ColorScheme-Text { color:#444444; } .ColorScheme-Highlight { color:#4285f4; } .ColorScheme-NeutralText { color:#ff9800; } .ColorScheme-PositiveText { color:#4caf50; } .ColorScheme-NegativeText { color:#f44336; }
  </style>
 </defs>
 <path style="fill:currentColor;" class="ColorScheme-Text" d="M7.9,1.699l1.5,2l-0.398,0.301l1.996,0l-0.398,-0.301l1.5,-2l0.8,0.602l-1.275,1.699l2.375,0l-0,1l-2,0l-0,3l2,0l-0,1l-2,0l-0,5l-1,0l-0,-5l-2.041,0c-0.096,1.12 -0.477,2.031 -0.926,2.811c-0.621,1.07 -1.691,2.054 -1.691,2.054l-0.684,-0.728c0,0 1.013,-0.966 1.51,-1.826c0.401,-0.7 0.704,-1.411 0.793,-2.311l-1.961,0l-0,-0.94l-1,0.5l-0,5.44l-3,0l-0,-1l2,0l-0,-3.94l-1.777,0.889l-0.446,-0.898l2.223,-1.112l-0,-2.939l-2,0l-0,-1l2,0l-0,-2l1,0l-0,2l1,0l-0,1l-1,0l-0,2.439l0.777,-0.388l0.446,0.898l-0.106,0.051l1.883,0l0,-3l-1,0l0,-1l1.375,0l-1.275,-1.699l0.8,-0.602Zm1.1,3.301l0,3l2,0l0,-3l-2,0Z"/>
</svg>
