<svg xmlns="http://www.w3.org/2000/svg" style="fill-rule:evenodd;clip-rule:evenodd;stroke-linejoin:round;stroke-miterlimit:2" width="100%" height="100%" viewBox="0 0 16 16" xml:space="preserve">
 <defs>
  <style id="current-color-scheme" type="text/css">
   .ColorScheme-Text { color:#444444; } .ColorScheme-Highlight { color:#4285f4; } .ColorScheme-NeutralText { color:#ff9800; } .ColorScheme-PositiveText { color:#4caf50; } .ColorScheme-NegativeText { color:#f44336; }
  </style>
 </defs>
 <path style="fill:currentColor;" class="ColorScheme-Text" d="M9,3.102c1.947,0.402 3.496,1.951 3.898,3.898l2.102,0l0,2l-2.102,0c-0.402,1.947 -1.951,3.496 -3.898,3.898l0,2.102l-2,0l0,-2.102c-1.947,-0.402 -3.496,-1.951 -3.898,-3.898l-2.102,0l0,-2l2.102,0c0.402,-1.947 1.951,-3.496 3.898,-3.898l0,-2.102l2,0l0,2.102Zm-1,0.998c2.14,0 3.9,1.76 3.9,3.9c0,2.14 -1.76,3.9 -3.9,3.9c-2.14,0 -3.9,-1.76 -3.9,-3.9c0,-2.14 1.76,-3.9 3.9,-3.9Z"/>
</svg>
