<svg xmlns="http://www.w3.org/2000/svg" viewBox="0 0 16 16">
 <defs>
  <style id="current-color-scheme" type="text/css">
   .ColorScheme-Text { color:#444444; } .ColorScheme-Highlight { color:#4285f4; } .ColorScheme-NeutralText { color:#ff9800; } .ColorScheme-PositiveText { color:#4caf50; } .ColorScheme-NegativeText { color:#f44336; }
  </style>
 </defs>
 <path fill="#444444" d="m6 1c-.265 0-.52.105-.707.293-.188.187-.293.442-.293.707v5.543h-2v-2.543l-3 3 3 3v-2.315h2v5.315c0 .265.105.52.293.707.187.188.442.293.707.293h4c.265 0 .52-.105.707-.293.188-.187.293-.442.293-.707 0-1.78 0-5.315 0-5.315h2v2.315l3-3-3-3v2.543h-2v-5.543c0-.265-.105-.52-.293-.707-.187-.188-.442-.293-.707-.293-1.11 0-2.89 0-4 0zm.291 1.124h3.418v11.752h-3.418z"/>
</svg>
