<svg xmlns="http://www.w3.org/2000/svg" style="fill-rule:evenodd;clip-rule:evenodd;stroke-linejoin:round;stroke-miterlimit:2" width="100%" height="100%" viewBox="0 0 16 16" xml:space="preserve">
 <defs>
  <style id="current-color-scheme" type="text/css">
   .ColorScheme-Text { color:#444444; } .ColorScheme-Highlight { color:#4285f4; } .ColorScheme-NeutralText { color:#ff9800; } .ColorScheme-PositiveText { color:#4caf50; } .ColorScheme-NegativeText { color:#f44336; }
  </style>
 </defs>
 <path style="fill:currentColor;fill-opacity:0.3" class="ColorScheme-Text" d="M14,13l0,1l-12,0l0,-12l1,0l0,11l11,0Z"/>
 <path style="fill:currentColor;" class="ColorScheme-Text" d="M3,9l0,-1l2.875,0l3.123,3.123l2.123,-2.123l0.006,0.004l0.004,-0.004l2.828,2.828l0.041,0.039l-0.037,1.32l-0.711,-0.652l-2.125,-2.125l-2.127,2.125l-0.002,-0.002l-0.002,0.002l-3.535,-3.535l-2.461,0Zm6,-7l-4.002,4.002l-1.996,-0l-0,1l2.41,-0l3.59,-3.59l2.123,2.123l0.006,-0.004l0.004,0.004l2.828,-2.828c0.003,0.005 -0.707,-0.707 -0.707,-0.707l-2.125,2.125l-2.127,-2.125l-0.002,0.002l-0.002,-0.002Z"/>
</svg>
