<svg xmlns="http://www.w3.org/2000/svg" style="fill-rule:evenodd;clip-rule:evenodd;stroke-linejoin:round;stroke-miterlimit:2" width="100%" height="100%" version="1.1" viewBox="0 0 16 16" xml:space="preserve">
 <defs>
  <style id="current-color-scheme" type="text/css">
   .ColorScheme-Text { color:#444444; } .ColorScheme-Highlight { color:#4285f4; } .ColorScheme-NeutralText { color:#ff9800; } .ColorScheme-PositiveText { color:#4caf50; } .ColorScheme-NegativeText { color:#f44336; }
  </style>
 </defs>
 <path style="fill:currentColor;" class="ColorScheme-Text" d="M9,1c-0.554,0 -1,0.446 -1,1l0,5c0,0.554 0.446,1 1,1l5,0c0.554,0 1,-0.446 1,-1l0,-5c0,-0.554 -0.446,-1 -1,-1l-5,0Zm-4.5,1c-1.371,0 -2.5,1.129 -2.5,2.5c0,1.371 1.129,2.5 2.5,2.5c1.183,-0 2.213,-0.841 2.449,-2l-2.949,0l1.635,-2.725c-0.351,-0.18 -0.74,-0.274 -1.135,-0.275Zm4.832,0.332l4.336,0l-0,4.336l-4.336,-0l0,-4.336Zm-7.332,5.668c-0.554,0 -1,0.446 -1,1l-0,5c-0,0.554 0.446,1 1,1l5,0c0.554,0 1,-0.446 1,-1l0,-5c0,-0.554 -0.446,-1 -1,-1l-5,0Zm11,1l0,5l1,0l0,-5l-1,0Zm-10.808,0.192l4.616,0l-0,4.616l-4.616,-0l0,-4.616Zm8.808,1.808l0,3l1,0l0,-3l-1,0Zm-2,1l0,2l1,0l0,-2l-1,0Z"/>
</svg>
