<svg xmlns="http://www.w3.org/2000/svg" viewBox="0 0 16 16">
 <defs>
  <style id="current-color-scheme" type="text/css">
   .ColorScheme-Text { color:#444444; } .ColorScheme-Highlight { color:#4285f4; } .ColorScheme-NeutralText { color:#ff9800; } .ColorScheme-PositiveText { color:#4caf50; } .ColorScheme-NegativeText { color:#f44336; }
  </style>
 </defs>
 <path fill="#444444" d="m8 0c-4.389 0-8 3.611-8 8s3.611 8 8 8c.502-.006 1.002-.059 1.494-.158-.561-.508-.986-1.149-1.234-1.863-.087.009-.173.016-.26.021-3.292 0-6-2.708-6-6s2.708-6 6-6 6 2.708 6 6c-.005.084-.011.168-.02.252.715.249 1.355.674 1.862 1.236.099-.49.152-.988.158-1.488 0-4.389-3.611-8-8-8zm0 4c-2.194 0-4 1.806-4 4s1.806 4 4 4c.012-.001.023-.003.035-.004.237-2.074 1.887-3.724 3.961-3.961.001-.012.003-.023.004-.035 0-2.194-1.806-4-4-4zm4.5 5c-1.92 0-3.5 1.58-3.5 3.5s1.58 3.5 3.5 3.5 3.5-1.58 3.5-3.5-1.58-3.5-3.5-3.5zm-1.5 1 4 2.5-4 2.5z"/>
</svg>
