<svg xmlns="http://www.w3.org/2000/svg" style="fill-rule:evenodd;clip-rule:evenodd;stroke-linejoin:round;stroke-miterlimit:2" width="100%" height="100%" viewBox="0 0 16 16" xml:space="preserve">
 <defs>
  <style id="current-color-scheme" type="text/css">
   .ColorScheme-Text { color:#444444; } .ColorScheme-Highlight { color:#4285f4; } .ColorScheme-NeutralText { color:#ff9800; } .ColorScheme-PositiveText { color:#4caf50; } .ColorScheme-NegativeText { color:#f44336; }
  </style>
 </defs>
 <path style="fill:currentColor;" class="ColorScheme-Text" d="M7,4l0,1l2,0c1.108,0 2,0.892 2,2l0,2l1,0l0,-2c0,-1.662 -1.338,-3 -3,-3l-2,0Z"/>
 <path style="fill:currentColor;" class="ColorScheme-Text" d="M14.069,10.271c0,-0.701 -0.569,-1.271 -1.271,-1.271l-2.543,0c-0.701,0 -1.271,0.57 -1.271,1.271l0,2.543c0,0.701 0.57,1.271 1.271,1.271l2.543,0c0.702,0 1.271,-0.57 1.271,-1.271l0,-2.543Z"/>
 <path style="fill:currentColor;" class="ColorScheme-Text" d="M7,3.174c0,-0.702 -0.57,-1.272 -1.271,-1.272l-2.543,0c-0.701,0 -1.271,0.57 -1.271,1.272l-0,2.542c-0,0.702 0.57,1.271 1.271,1.271l2.543,0c0.701,0 1.271,-0.569 1.271,-1.271l0,-2.542Z"/>
</svg>
