<svg xmlns="http://www.w3.org/2000/svg" style="fill-rule:evenodd;clip-rule:evenodd;stroke-linejoin:round;stroke-miterlimit:2" width="100%" height="100%" viewBox="0 0 16 16" xml:space="preserve">
 <defs>
  <style id="current-color-scheme" type="text/css">
   .ColorScheme-Text { color:#444444; } .ColorScheme-Highlight { color:#4285f4; } .ColorScheme-NeutralText { color:#ff9800; } .ColorScheme-PositiveText { color:#4caf50; } .ColorScheme-NegativeText { color:#f44336; }
  </style>
 </defs>
 <path style="fill:currentColor;fill-opacity:0.3;" class="ColorScheme-Text" d="M8,1l-7,7l2,0l0,4.557c-0,0.648 0.257,1.269 0.716,1.727c0.458,0.459 1.079,0.716 1.727,0.716c1.554,0 3.56,0 5.114,0c0.648,-0 1.269,-0.257 1.727,-0.716c0.459,-0.458 0.716,-1.079 0.716,-1.727c0,-2.019 0,-4.557 0,-4.557l2,0l-7,-7Z"/>
 <path style="fill:currentColor;" class="ColorScheme-Text" d="M7.719,14.274l-0,-1.055c-0.528,-0.067 -0.956,-0.185 -1.286,-0.355c-0.33,-0.17 -0.616,-0.444 -0.856,-0.823c-0.24,-0.379 -0.38,-0.842 -0.419,-1.389l1.061,-0.199c0.082,0.567 0.226,0.983 0.433,1.248c0.297,0.375 0.653,0.584 1.067,0.627l-0,-3.357c-0.434,-0.082 -0.877,-0.25 -1.33,-0.504c-0.336,-0.188 -0.595,-0.447 -0.777,-0.779c-0.181,-0.332 -0.272,-0.709 -0.272,-1.131c-0,-0.75 0.265,-1.358 0.797,-1.823c0.355,-0.312 0.883,-0.503 1.582,-0.574l-0,-0.504l0.621,0l-0,0.504c0.613,0.059 1.099,0.239 1.459,0.539c0.461,0.383 0.738,0.909 0.832,1.576l-1.09,0.165c-0.062,-0.415 -0.192,-0.732 -0.39,-0.953c-0.197,-0.22 -0.467,-0.366 -0.811,-0.436l-0,3.041c0.531,0.133 0.883,0.236 1.055,0.31c0.328,0.145 0.595,0.321 0.802,0.528c0.207,0.207 0.366,0.453 0.478,0.738c0.111,0.285 0.167,0.594 0.167,0.926c-0,0.73 -0.233,1.34 -0.697,1.828c-0.465,0.488 -1.067,0.75 -1.805,0.785l-0,1.067l-0.621,-0Zm-0,-9.235c-0.41,0.063 -0.734,0.227 -0.97,0.492c-0.236,0.266 -0.354,0.58 -0.354,0.944c-0,0.359 0.1,0.66 0.301,0.902c0.201,0.242 0.542,0.436 1.023,0.58l-0,-2.918Zm0.621,7.289c0.41,-0.051 0.749,-0.228 1.016,-0.533c0.268,-0.305 0.402,-0.682 0.402,-1.131c-0,-0.383 -0.095,-0.69 -0.284,-0.923c-0.19,-0.232 -0.568,-0.44 -1.134,-0.624l-0,3.211Z"/>
</svg>
