<svg xmlns="http://www.w3.org/2000/svg" viewBox="0 0 16 16">
 <defs>
  <style id="current-color-scheme" type="text/css">
   .ColorScheme-Text { color:#444444; } .ColorScheme-Highlight { color:#4285f4; } .ColorScheme-NeutralText { color:#ff9800; } .ColorScheme-PositiveText { color:#4caf50; } .ColorScheme-NegativeText { color:#f44336; }
  </style>
 </defs>
 <path fill="#444444" d="m0 3v10h16v-10zm3 1h10v1h1v1h1v4h-1v1h-1v1h-10v-1h-1v-1h-1v-4h1v-1h1zm1 1v1h-1v1h-1v2h1v1h1v1h8v-1h1v-1h1v-2h-1v-1h-1v-1zm4 1c1.105 0 2 .895 2 2s-.895 2-2 2-2-.895-2-2 .895-2 2-2zm-.025 1c-.543.014-.975.457-.975 1 0 .552.448 1 1 1s1-.448 1-1-.448-1-1-1c-.008 0-.017 0-.025 0z"/>
</svg>
