<svg xmlns="http://www.w3.org/2000/svg" viewBox="0 0 16 16">
 <defs>
  <style id="current-color-scheme" type="text/css">
   .ColorScheme-Text { color:#444444; } .ColorScheme-Highlight { color:#4285f4; } .ColorScheme-NeutralText { color:#ff9800; } .ColorScheme-PositiveText { color:#4caf50; } .ColorScheme-NegativeText { color:#f44336; }
  </style>
 </defs>
 <g fill="#444444">
  <path fill-opacity=".25" d="m1 8c-.554 0-1 .446-1 1v6c0 .554.446 1 1 1h6c.554 0 1-.446 1-1v-6c0-.554-.446-1-1-1zm1 6h1v1h-1zm0-2h3v1h-3zm3-2h1v1h-1zm-3 0h2v1h-2z"/>
  <path d="m3 0c-.554 0-1 .446-1 1v6h5c1.091 0 2 .909 2 2v6c0 .364-.108.703-.283 1h6.283c.554 0 1-.446 1-1v-14c0-.554-.446-1-1-1zm7 14h3v1h-3zm0-2h1v1h-1zm2 0h3v1h-3zm-1-2h3v1h-3zm-1-2h2v1h-2zm3 0h2v1h-2zm-4-2h4v1h-4zm-5-2h4v1h-4zm8-2h2v1h-2zm-8 0h7v1h-7z"/>
 </g>
</svg>
