<svg xmlns="http://www.w3.org/2000/svg" style="fill-rule:evenodd;clip-rule:evenodd;stroke-linejoin:round;stroke-miterlimit:2" width="100%" height="100%" viewBox="0 0 16 16" xml:space="preserve">
 <defs>
  <style id="current-color-scheme" type="text/css">
   .ColorScheme-Text { color:#444444; } .ColorScheme-Highlight { color:#4285f4; } .ColorScheme-NeutralText { color:#ff9800; } .ColorScheme-PositiveText { color:#4caf50; } .ColorScheme-NegativeText { color:#f44336; }
  </style>
 </defs>
 <path style="fill:currentColor;" class="ColorScheme-Text" d="M8,3c-6,0 -8,5 -8,5c0,0 2,5 8,5c6,0 8,-5 8,-5c0,0 -2,-5 -8,-5Zm6.889,5c-0.57,-1.056 -2.55,-4 -6.889,-4c-4.339,0 -6.319,2.944 -6.889,4c0.57,1.056 2.55,4 6.889,4c4.339,0 6.319,-2.944 6.889,-4Z"/>
 <path style="fill:currentColor;" class="ColorScheme-Text" d="M8,3c-2.194,0 -4,1.806 -4,4c0,2.194 1.806,4 4,4c2.194,0 4,-1.806 4,-4c0,-2.194 -1.806,-4 -4,-4Zm0,2.667c-0.731,-0 -1.333,0.602 -1.333,1.333c-0,0.731 0.602,1.333 1.333,1.333c0.731,0 1.333,-0.602 1.333,-1.333c0,-0.731 -0.602,-1.333 -1.333,-1.333Z"/>
</svg>
