<svg clip-rule="evenodd" fill-rule="evenodd" stroke-linejoin="round" stroke-miterlimit="2" viewBox="0 0 48 48" xmlns="http://www.w3.org/2000/svg">
 <linearGradient id="a" x2="1" gradientTransform="matrix(0 -33.6872 33.6872 0 923.28 40.4502)" gradientUnits="userSpaceOnUse">
  <stop stop-color="#3c2f4c" offset="0"/>
  <stop stop-color="#593a7e" offset="1"/>
 </linearGradient>
 <path d="m39.44 45.668h-30.88c-3.438 0-6.228-2.79-6.228-6.228v-30.88c0-3.438 2.79-6.228 6.228-6.228h30.88c3.438 0 6.228 2.79 6.228 6.228v30.88c0 3.438-2.79 6.228-6.228 6.228z" fill="url(#a)"/>
 <path d="m12.083 10.999c-1.801 0-3.251 1.45-3.251 3.25v6.501c0 1.8 1.45 3.25 3.251 3.25h2.166c1.801 0 3.251-1.45 3.251-3.25v-6.501c0-1.8-1.45-3.25-3.251-3.25zm10.834 0c-1.801 0-3.251 1.45-3.251 3.25v6.501c0 1.8 1.45 3.25 3.251 3.25h2.166c1.45 0 2.658-.946 3.079-2.251l-1.995-.999c0 .6-.483 1.083-1.084 1.083h-2.166c-.601 0-1.084-.483-1.084-1.083v-6.501c0-.6.483-1.083 1.084-1.083h2.166c.601 0 1.084.483 1.084 1.083l1.995-.998c-.421-1.306-1.629-2.252-3.079-2.252zm10.834 0c-1.801 0-3.251 1.45-3.251 3.25v6.501c0 1.8 1.45 3.25 3.251 3.25h2.166c1.45 0 2.658-.946 3.079-2.251l-1.995-.999c0 .6-.483 1.083-1.084 1.083h-2.166c-.601 0-1.084-.483-1.084-1.083v-6.501c0-.6.483-1.083 1.084-1.083h2.166c.601 0 1.084.483 1.084 1.083l1.995-.998c-.421-1.306-1.629-2.252-3.079-2.252zm-21.668 2.167h2.166c.601 0 1.084.483 1.084 1.083v6.501c0 .6-.483 1.083-1.084 1.083h-2.166c-.601 0-1.084-.483-1.084-1.083v-6.501c0-.6.483-1.083 1.084-1.083zm4.333 13.001c-1.2 0-2.167.966-2.167 2.167v10.834h2.167v-6.501h4.334v-2.167h-4.334v-2.166h6.501v-2.167zm8.667 0v2.167h3.251v10.834h2.166v-10.834h3.251v-2.167z" fill="#ebe0ed" fill-rule="nonzero"/>
</svg>
