<svg clip-rule="evenodd" fill-rule="evenodd" stroke-linejoin="round" stroke-miterlimit="2" viewBox="0 0 48 48" xmlns="http://www.w3.org/2000/svg">
 <linearGradient id="a" x2="1" gradientTransform="matrix(0 -35.3911 35.3911 0 968.766 41.2823)" gradientUnits="userSpaceOnUse">
  <stop stop-color="#309fb1" offset="0"/>
  <stop stop-color="#43d8e4" offset="1"/>
 </linearGradient>
 <circle cx="24" cy="24" r="22.764" fill="url(#a)"/>
 <path transform="matrix(2.276 0 0 2.276 -3.3101 -3.316)" d="m8 9c-1 0-1 1-1 1s0 2-1.551 2c-.869 0-1.211-.625-1.351-1.178-.062.39-.095.784-.098 1.178 0 4.418 3.582 8 8 8s8-3.582 8-8c0 0-.001-1-.445-1-.445 0-.555 1-.555 1v2s0 1-.434 1c-.566 0-.566-1-.566-1v-2s0-1-.455-1c-.545 0-.545 1-.545 1v1s0 1-1 1-1-1-1-1v-2s-.001-2-1.477-2c-1.475 0-1.523 2-1.523 2v3s-.001 2-1.516 2c-1.514 0-1.484-2-1.484-2v-4s0-1-1-1z" fill="#fff" fill-rule="nonzero"/>
</svg>
