<svg clip-rule="evenodd" fill-rule="evenodd" stroke-linejoin="round" stroke-miterlimit="2" viewBox="0 0 48 48" xmlns="http://www.w3.org/2000/svg">
 <linearGradient id="a" x2="1" gradientTransform="matrix(-.238213 -40.4963 40.4963 -.238213 22.9578 44.1886)" gradientUnits="userSpaceOnUse">
  <stop stop-color="#6e0994" offset="0"/>
  <stop stop-color="#9071d6" offset="1"/>
 </linearGradient>
 <path d="m24.001 5c-11.551 0-21 9.45-21 21.001-.005 1.7 0 3 .108 4.902.304 4.796 3.241 8.216 5.884 9.874 2.702 1.694 5.357 2.146 5.369 2.148 3.07.558 5.641-2.099 5.639-4.805v-15.237c0-1.747-1.052-3.443-2.656-4.295 1.774-1.598 4.092-2.579 6.654-2.584 2.564 0 4.885.983 6.662 2.582-1.607.852-2.661 2.549-2.66 4.297v15.241c-.002 2.706 2.568 5.363 5.638 4.805h.004c.018 0 2.666-.456 5.365-2.148 2.647-1.66 5.589-5.086 5.887-9.891.105-1.889.105-3.241.105-4.889 0-11.551-9.449-21.001-20.999-21.001z" fill="url(#a)" fill-rule="nonzero"/>
 <path d="m24 9c-9.326 0-17 7.674-17 17v4h.006c-.001.062-.006.122-.006.186.014 3.659 2.127 5.952 4.117 7.201 1.99 1.248 3.959 1.601 3.959 1.601.043.008.086.012.13.012.435 0 .794-.396.794-.878v-.001-15.242-.001c0-.482-.359-.878-.794-.878h-.022-.045s-1.985.18-3.996 1.266c-.322.173-.646.386-.965.617 1.04-6.799 6.944-11.875 13.822-11.883 6.883.005 12.793 5.086 13.83 11.891-.322-.234-.648-.448-.973-.623-2.011-1.085-3.996-1.266-3.996-1.266-.015-.001-.03-.001-.045 0h-.022c-.435 0-.794.395-.794.877v15.242.001c0 .482.359.878.794.878.044 0 .087-.004.13-.012 0 0 1.969-.353 3.959-1.601 1.99-1.249 4.103-3.542 4.117-7.201 0-.063-.005-.123-.006-.186h.006v-4c0-9.326-7.674-17-17-17z" fill="#fff" fill-rule="nonzero"/>
 <circle cx="35.5" cy="34.5" r="10.5" fill="#ddd"/>
 <path d="m35.5 37c1.38 0 2.5 1.12 2.5 2.5s-1.12 2.5-2.5 2.5-2.5-1.12-2.5-2.5 1.12-2.5 2.5-2.5zm7.5-2.5c0 1.38-1.12 2.5-2.5 2.5s-2.5-1.12-2.5-2.5 1.12-2.5 2.5-2.5 2.5 1.12 2.5 2.5zm-10 0c0 1.38-1.12 2.5-2.5 2.5s-2.5-1.12-2.5-2.5 1.12-2.5 2.5-2.5 2.5 1.12 2.5 2.5zm2.5-7.5c1.38 0 2.5 1.12 2.5 2.5s-1.12 2.5-2.5 2.5-2.5-1.12-2.5-2.5 1.12-2.5 2.5-2.5z" fill="#000831"/>
</svg>
