<svg clip-rule="evenodd" fill-rule="evenodd" stroke-linejoin="round" stroke-miterlimit="2" viewBox="0 0 48 48" xmlns="http://www.w3.org/2000/svg">
 <linearGradient id="a" x2="1" gradientTransform="matrix(0 -40 40 0 24 44)" gradientUnits="userSpaceOnUse">
  <stop stop-color="#343434" offset="0"/>
  <stop stop-color="#5e5e5e" offset="1"/>
 </linearGradient>
 <g transform="matrix(1.0834 0 0 1.0834 -2.0016 -2.0016)">
  <path d="m9.749 4h28.502c3.174 0 5.749 2.575 5.749 5.749v28.502c0 3.174-2.575 5.749-5.749 5.749h-28.502c-3.174 0-5.749-2.575-5.749-5.749v-28.502c0-3.174 2.575-5.749 5.749-5.749z" fill="url(#a)"/>
  <path d="m38.251 44h-28.502c-.996 0-1.932-.253-2.749-.699v-3.301h3v-3h3v-3h-3v-20h30v20h-3v3h3v4h3v.491c-1.036 1.515-2.777 2.509-4.749 2.509z" fill="#1a1a1a"/>
  <path d="m13 17v17h24v-16.966zm3 4h6v3h-6zm12 0h6v3h-6zm-15 16v4h2v3h19v-4h3v-3z" fill="#fff" fill-rule="nonzero"/>
 </g>
</svg>
