<svg clip-rule="evenodd" fill-rule="evenodd" stroke-linejoin="round" stroke-miterlimit="2" viewBox="0 0 48 48" xmlns="http://www.w3.org/2000/svg">
 <g fill-rule="nonzero">
  <path transform="matrix(1.1382 0 0 1.1382 -3.3168 -3.3168)" d="m24 24v20c7.057-.009 13.606-3.748 17.199-9.818.038-.065.075-.129.111-.194z" fill="#3591ac"/>
  <path transform="matrix(1.1382 0 0 1.1382 -3.3168 -3.3168)" d="m24 24v20c-7.057-.009-13.606-3.748-17.199-9.818-.038-.065-.075-.129-.111-.194z" fill="#2cba66"/>
  <path transform="matrix(1.1382 0 0 1.1382 -3.3168 -3.3168)" d="m24 24v-20c7.057.009 13.606 3.748 17.199 9.818.038.065.075.129.111.194z" fill="#ff482e"/>
  <path transform="matrix(1.1382 0 0 1.1382 -3.3168 -3.3168)" d="m24 24v-20c-7.057.009-13.606 3.748-17.199 9.818-.038.065-.075.129-.111.194z" fill="#ff8201"/>
  <path transform="matrix(1.1382 0 0 1.1382 -3.3168 -3.3168)" d="m24 24-17.332 10c-3.52-6.112-3.555-13.65-.091-19.794.037-.065.074-.129.112-.193z" fill="#ffc825"/>
  <path transform="matrix(1.1382 0 0 1.1382 -3.3168 -3.3168)" d="m24 24 17.332-10c3.52 6.112 3.555 13.65.091 19.794-.037.065-.074.129-.112.193z" fill="#9e56d6"/>
 </g>
 <circle cx="24" cy="24" r="18.2112" fill="#fff" stroke-width="1.1382"/>
 <path transform="matrix(2.45182 0 0 2.94 -29.9058 -32.8307)" d="m25.414 18.703c.246.142.394.377.394.627s-.148.485-.394.627c-1.313.758-3.526 2.036-4.979 2.875-.279.161-.643.18-.945.048-.301-.132-.49-.392-.49-.676v-5.748c0-.284.189-.544.49-.676.302-.131.666-.113.945.049 1.453.838 3.666 2.116 4.979 2.874z" fill="#33c0e8" fill-rule="nonzero"/>
</svg>
