<svg clip-rule="evenodd" fill-rule="evenodd" stroke-linejoin="round" stroke-miterlimit="2" viewBox="0 0 48 48" xmlns="http://www.w3.org/2000/svg">
 <linearGradient id="a" x2="1" gradientTransform="matrix(0 -43.3373 43.3373 0 302.963 45.6687)" gradientUnits="userSpaceOnUse">
  <stop stop-color="#c46693" offset="0"/>
  <stop stop-color="#db8db3" offset="1"/>
 </linearGradient>
 <path d="m45.668 8.56c0-3.438-2.79-6.228-6.228-6.228h-30.88c-3.438 0-6.228 2.79-6.228 6.228v30.88c0 3.438 2.79 6.228 6.228 6.228h30.88c3.438 0 6.228-2.79 6.228-6.228z" fill="url(#a)"/>
 <path d="m6.474 6.58h35.055v34.84h-35.055z" fill="#a03569"/>
 <path d="m30 14h4v19c0 1-5 1-5 1s-6 0-6-6c0-7 7-7 7-7zm-1 10s-2 0-2 4c0 3 2 3 2 3h1v-7zm-10-10v20h-4v-20z" fill="#f09ec3"/>
</svg>
