<svg clip-rule="evenodd" fill-rule="evenodd" stroke-linejoin="round" stroke-miterlimit="2" viewBox="0 0 48 48" xmlns="http://www.w3.org/2000/svg">
 <linearGradient id="a" x2="1" gradientTransform="matrix(0 -43.3373 43.3373 0 302.963 45.6687)" gradientUnits="userSpaceOnUse">
  <stop stop-color="#677ac7" offset="0"/>
  <stop stop-color="#8496df" offset="1"/>
 </linearGradient>
 <path d="m45.668 8.56c0-3.438-2.79-6.228-6.228-6.228h-30.88c-3.438 0-6.228 2.79-6.228 6.228v30.88c0 3.438 2.79 6.228 6.228 6.228h30.88c3.438 0 6.228-2.79 6.228-6.228z" fill="url(#a)"/>
 <path d="m6.474 6.58h35.055v34.84h-35.055z" fill="#3c4f9b"/>
 <path d="m13 14.062s3.035-.082 5.533-.082c3.467 0 7.467 1 7.467 7s-4 7-7.467 6.979c-.767.033-1.533.041-1.533.041v5.98h-4zm4 10.91c.44.044.772.023 1.425.014 2.175-.026 3.574-1.949 3.574-4.007 0-1.849-1.163-3.921-3.251-4-.833-.031-1.749 0-1.749 0zm11-10.91h4v16h3v4h-3c-4 0-4-4-4-4z" fill="#a3afdf"/>
</svg>
