<svg clip-rule="evenodd" fill-rule="evenodd" stroke-linejoin="round" stroke-miterlimit="2" viewBox="0 0 48 48" xmlns="http://www.w3.org/2000/svg">
 <linearGradient id="a" x2="1" gradientTransform="matrix(0 -43.3373 43.3373 0 302.963 45.6687)" gradientUnits="userSpaceOnUse">
  <stop stop-color="#55ab8d" offset="0"/>
  <stop stop-color="#6ec1a5" offset="1"/>
 </linearGradient>
 <path d="m45.668 8.56c0-3.438-2.79-6.228-6.228-6.228h-30.88c-3.438 0-6.228 2.79-6.228 6.228v30.88c0 3.438 2.79 6.228 6.228 6.228h30.88c3.438 0 6.228-2.79 6.228-6.228z" fill="url(#a)"/>
 <path d="m6.474 6.58h35.055v34.84h-35.055z" fill="#237d5e"/>
 <path d="m37 34h-3v-11c0-2-2-2-2-2h-3v13h-3v-15s3-1 7-1 4 4 4 4zm-26-20h5s8 0 8 10-8 10-8 10h-5zm4 3v14h1s4 0 4-7-4-7-4-7z" fill="#99ecd0"/>
</svg>
