<svg clip-rule="evenodd" fill-rule="evenodd" stroke-linejoin="round" stroke-miterlimit="2" viewBox="0 0 48 48" xmlns="http://www.w3.org/2000/svg">
 <linearGradient id="a" x2="1" gradientTransform="matrix(0 -43.3373 43.3373 0 302.963 45.6687)" gradientUnits="userSpaceOnUse">
  <stop stop-color="#78a1a9" offset="0"/>
  <stop stop-color="#91bac1" offset="1"/>
 </linearGradient>
 <path d="m45.668 8.56c0-3.438-2.79-6.228-6.228-6.228h-30.88c-3.438 0-6.228 2.79-6.228 6.228v30.88c0 3.438 2.79 6.228 6.228 6.228h30.88c3.438 0 6.228-2.79 6.228-6.228z" fill="url(#a)"/>
 <path d="m6.474 6.58h35.055v34.84h-35.055z" fill="#417983"/>
 <path d="m24 20s-2-2-6-2c-1.272 0-2 1.057-2 2 0 2 8 2 8 8 0 4-2 6-6 6s-7-2-7-2v-4s5 2 7 2c.943 0 2-1.057 2-2 0-2-8-2-8-8 0-2.828 2-6 6-6s6 2 6 2zm7-1.918c.336.001.671.043 1 .125v-.125l5-.082v14s0 6-7 6.082c-2 .024-4-2-4-2v-4s2.51 2 4 2c2 0 2-2 2-2v-2.125c-.329.082-.664.124-1 .125-2.761 0-5-2.686-5-6s2.239-6 5-6zm1 4c-1.104 0-2 .896-2 2 0 1.105.896 2 2 2 1.105 0 2-.895 2-2 0-1.104-.895-2-2-2z" fill="#90b9c0"/>
</svg>
