<svg xmlns="http://www.w3.org/2000/svg" width="48" height="48">
  <linearGradient id="a" gradientUnits="userSpaceOnUse" x1="-280.925" y1="424.09" x2="-280.839" y2="424.09" gradientTransform="scale(499.46 499.49) rotate(-90 71.652 -352.486)">
    <stop offset="0" stop-color="#ff9a00" />
    <stop offset="1" stop-color="#ffcd00" />
  </linearGradient>
  <path fill="url(#a)" d="M45.715 8.562a6.238 6.238 0 00-6.235-6.236H8.563a6.238 6.238 0 00-6.235 6.236v30.919a6.238 6.238 0 006.235 6.236H39.48a6.237 6.237 0 006.235-6.236V8.562z" />
  <linearGradient id="b" gradientUnits="userSpaceOnUse" x1="-281.14" y1="435.189" x2="-281.053" y2="435.189" gradientTransform="matrix(-.6868 -401.55 -401.53 .6868 174572.422 -113148.984)">
    <stop offset="0" stop-color="#300" />
    <stop offset="1" stop-color="#600" />
  </linearGradient>
  <path fill="url(#b)" d="M6.474 6.58h35.097v34.884H6.474V6.58z" />
  <path fill="url(#a)" d="M24.01 29.587h-6.629l-1.355 4.188a.312.312 0 01-.339.249h-3.35c-.196 0-.249-.107-.196-.321l5.738-16.519c.053-.178.107-.374.179-.588.072-.374.107-.767.107-1.158-.018-.089.053-.179.142-.196h4.615c.142 0 .214.053.232.142l6.504 18.354c.053.196 0 .285-.179.285h-3.724c-.125.018-.249-.072-.285-.196l-1.46-4.24zm-5.595-3.618h4.526a26.186 26.186 0 00-.409-1.283 54.368 54.368 0 01-.481-1.532c-.178-.553-.339-1.087-.516-1.639a38.088 38.088 0 01-.481-1.586c-.142-.499-.267-.962-.392-1.39h-.035c-.16.777-.362 1.544-.606 2.299-.267.855-.535 1.746-.82 2.638a36.2 36.2 0 01-.786 2.493zm15.217-7.608a2.21 2.21 0 01-1.586-.623 2.321 2.321 0 01-.606-1.639 2.099 2.099 0 01.641-1.586 2.28 2.28 0 011.586-.623c.695 0 1.23.214 1.622.623.395.432.606 1.001.588 1.586a2.256 2.256 0 01-.623 1.639 2.098 2.098 0 01-1.622.623zm-1.996 15.467V20.107c0-.179.072-.249.232-.249h3.528c.16 0 .232.089.232.249v13.721c0 .196-.072.285-.232.285h-3.493c-.177 0-.267-.107-.267-.285z" />
</svg>
