<svg clip-rule="evenodd" fill-rule="evenodd" stroke-linejoin="round" stroke-miterlimit="2" viewBox="0 0 48 48" xmlns="http://www.w3.org/2000/svg">
 <linearGradient id="a" x2="1" gradientTransform="matrix(0 -43.3373 43.3373 0 302.963 45.6687)" gradientUnits="userSpaceOnUse">
  <stop stop-color="#b15392" offset="0"/>
  <stop stop-color="#d582b9" offset="1"/>
 </linearGradient>
 <path d="m45.668 8.56c0-3.438-2.79-6.228-6.228-6.228h-30.88c-3.438 0-6.228 2.79-6.228 6.228v30.88c0 3.438 2.79 6.228 6.228 6.228h30.88c3.438 0 6.228-2.79 6.228-6.228z" fill="url(#a)"/>
 <path d="m6.474 6.58h35.055v34.84h-35.055z" fill="#900d65"/>
 <path d="m15 14-4 .082 3 9.918-3 10h4l2-7 3 7h4l-4-10 4-10h-4l-3 7zm18 0v7s-7 0-7 7c0 6 6 6 6 6s5 0 5-1v-19zm-1 10h1v7h-1s-2 0-2-3c0-4 2-4 2-4z" fill="#f3bfe1" fill-rule="nonzero"/>
</svg>
