<svg clip-rule="evenodd" fill-rule="evenodd" stroke-linejoin="round" stroke-miterlimit="2" viewBox="0 0 48 48" xmlns="http://www.w3.org/2000/svg">
 <linearGradient id="a" x2="1" gradientTransform="matrix(0 -21.9946 21.9949 0 12.0783 21.7974)" gradientUnits="userSpaceOnUse">
  <stop stop-color="#2c2c2c" offset="0"/>
  <stop stop-color="#4c4c4c" offset="1"/>
 </linearGradient>
 <g transform="matrix(1.9982 0 0 1.99824 2.03882 2.0019)" fill-rule="nonzero">
  <path d="m16 8c2 4 4 13-2 13-5 0-9.915-5.202-11-9-2-7-1-11 3-11s8 3 10 7z" fill="url(#a)"/>
  <path d="m16.988 1c-.199.003-.393.064-.556.178l-13 9c-.625.432-.559 1.376.121 1.717l4.552 2.275-6.705 5.029c-1.017.749.004 2.305 1.096 1.67l14-8c.753-.428.642-1.545-.18-1.818l-3.937-1.313 8.135-4.881c.629-.377.651-1.281.041-1.689l-3-2c-.168-.112-.365-.17-.567-.168z" fill="#008bdd"/>
  <path d="m9 6c-3 0-5 2-5 2l.547.547c.783-.589 2.367-1.547 4.453-1.547s3.67.958 4.453 1.547l.547-.547s-2-2-5-2zm0 2c-1.66 0-2.98.602-3.854 1.146l.643.643c.84-.42 1.926-.789 3.211-.789s2.371.369 3.211.789l.643-.643c-.874-.544-2.194-1.146-3.854-1.146zm0 2c-.958 0-1.802.205-2.52.48l2.52 2.52 2.52-2.52c-.718-.275-1.562-.48-2.52-.48z" fill="#fff"/>
 </g>
</svg>
