<svg clip-rule="evenodd" fill-rule="evenodd" stroke-linejoin="round" stroke-miterlimit="2" viewBox="0 0 48 48" xmlns="http://www.w3.org/2000/svg">
 <linearGradient id="a" x2="1" gradientTransform="matrix(.187385 -40.0823 40.0823 .187385 23.8126 43.9077)" gradientUnits="userSpaceOnUse">
  <stop stop-color="#2c2b34" offset="0"/>
  <stop stop-color="#58536a" offset="1"/>
 </linearGradient>
 <linearGradient id="b" x2="1" gradientTransform="matrix(0 -23.9649 23.9649 0 24 35.9825)" gradientUnits="userSpaceOnUse">
  <stop stop-color="#b648b6" offset="0"/>
  <stop stop-color="#b16ee0" offset="1"/>
 </linearGradient>
 <g fill-rule="nonzero">
  <path transform="matrix(1.11582 0 0 1.11582 -2.77961 -2.77958)" d="m24.107 4v.002c-.837-.021-1.664.189-2.39.605l-13.434 7.727c-1.411.811-2.283 2.316-2.283 3.939v15.454c0 1.622.873 3.126 2.283 3.937l13.434 7.727c1.411.811 3.155.811 4.566 0l13.434-7.727c1.41-.811 2.283-2.315 2.283-3.937v-15.454c0-1.623-.872-3.128-2.283-3.939l-13.434-7.727c-.662-.38-1.411-.589-2.176-.607z" fill="url(#a)"/>
  <path transform="matrix(1.11582 0 0 1.11582 -2.77961 -2.77958)" d="m27.15 35.954c0-.031.216-.131.48-.222.311-.107.508-.229.559-.345.043-.099.325-.322.626-.496.3-.174.822-.5 1.158-.724.528-.353.606-.436.564-.602-.032-.127-.006-.208.077-.24.151-.058.165-.22.02-.219-.058 0-.273.114-.48.254-.519.352-1.108.646-1.217.607-.05-.018-.294.062-.542.178-.249.116-.551.211-.671.211s-.379.057-.574.126-.394.125-.442.125c-.151 0 .285-.405.833-.773.549-.368.679-.532.313-.393-.283.108-.704.104-.704-.006 0-.048.116-.151.258-.229.584-.322 1.01-.613.965-.659-.027-.026-.31.107-.63.297-.319.189-.621.345-.67.345-.22 0-.046-.195.495-.555.607-.403.746-.608.191-.281-.446.263-1.109.514-1.109.42 0-.044.322-.292.716-.551.394-.26.784-.582.866-.717s.396-.449.698-.698.585-.519.629-.6c.043-.081.308-.429.589-.773.616-.754 1.369-2.223 1.585-3.087.092-.372.18-1.134.216-1.878.053-1.111.039-1.353-.125-2.163-.481-2.378-1.324-3.953-2.671-4.989-1.365-1.051-2.494-1.43-4.256-1.43-1.32 0-2.127.189-3.514.824-1.327.607-1.713.872-2.638 1.815-.784.8-.793.815-1.521 2.439l-.262.584.054-.417c.068-.531.498-1.466.963-2.097.717-.973 2.028-2.046 2.788-2.283.184-.057.687-.297 1.119-.532l.785-.429-.368-.022c-.202-.013-.452-.066-.555-.119-.137-.069-.267-.071-.48-.006-.45.138-.349-.035.168-.289.463-.227.516-.317.274-.47-.166-.104-.94.218-1.79.746-.947.588-1.918 1.534-1.186 1.156l.261-.135-.057.229c-.038.148-.021.252.046.293.074.046.011.173-.225.451-.482.567-1.047 1.313-1.308 1.726-.126.199-.372.54-.546.757-.326.408-.769 1.567-.769 2.014 0 .127-.037.299-.082.383-.059.111-.051.165.032.197.168.064.236.552.257 1.85.022 1.385.139 1.77.845 2.802.248.361.45.677.45.702s-.103.023-.229-.006c-.195-.044-.138.04.383.559.337.336.577.622.534.637-.043.014-.248-.047-.456-.136-.342-.147-.545-.342-1.138-1.095-.201-.255-.326-.166-.189.136.17.372.046.31-.288-.145-.175-.239-.333-.393-.349-.342-.041.121.062.304.586 1.046.24.34.501.737.58.881.094.173.227.279.391.312.136.027.268.103.293.168.058.151 1.126.635 1.276.577.061-.023.3.032.53.122.23.091.614.165.854.165 1.184.001 2.643 1.291 2.645 2.34.001.515-.411 1.202-.927 1.547-.652.437-2.073.593-2.97.327-1.107-.329-4.239-3.089-5.491-4.839-.743-1.039-1.142-1.904-1.5-3.255-.486-2.158.146-5.139.717-6.831.474-1.393.617-1.691.836-1.748.205-.053.243.01.152.249-.148.39-.106.472.214.42.37-.06.37-.043-.005 1.076-.294.881-.355 1.328-.075.561.45-1.238.79-1.752.673-1.02-.077.479.098.395.378-.181.121-.249.341-.565.488-.703l.267-.25-.232.477c-.128.263-.206.505-.174.537.092.093.192-.05.469-.669.192-.429.224-.559.126-.522-.078.03-.02-.104.146-.335.151-.211.32-.402.375-.423.055-.022.27-.27.479-.553.675-.917 1.546-1.488 3.518-2.307.454-.189 1.076-.493 1.381-.677.775-.468 1.047-.53 2.257-.519 1.301.012 2.022.127 3.148.501 1.578.525 2.965 1.33 4.218 2.449.366.327.679.552.696.501.097-.292-1.375-1.796-2.255-2.303-.62-.358-.796-.538-.527-.538.068 0 .474.188.904.418.845.451.949.482.99.291.048-.221.723.191 1.365.832 1.685 1.686 2.882 4.426 3.208 7.346.187 1.676.107 2.525-.467 4.964-.256 1.085-1.068 2.78-1.739 3.63-.254.321-.615.784-.804 1.029-.385.502-2.136 1.844-2.996 2.297-.854.449-2.754 1.07-2.754.899zm2.173-.931c.182-.093.33-.186.33-.207 0-.058-.411.111-.611.251-.251.177-.107.154.281-.044zm.668-18.976c-.199-.24-1.042-.746-1.626-.977-.918-.362-.92-.275-.005.205.459.24 1.021.556 1.25.701.422.269.568.296.381.071zm-2.951-1.433c-.306-.166-1.373-.387-1.497-.311-.105.065.084.132.898.318.701.16.903.158.599-.006zm2.447 15.194c0-.042.777-1.073.942-1.25.105-.114-.253.594-.497.98-.108.172-.253.313-.321.313-.069 0-.124-.02-.124-.043zm1.384-2.272c.236-.623.428-1.335.589-2.18.02-.108.053-.181.073-.161.061.06-.186 1.416-.338 1.861-.143.417-.518 1.21-.572 1.21-.016 0 .096-.329.248-.73zm.639-3.15c.001-.184.018-.249.038-.145.02.103.019.254-.002.333-.021.08-.037-.005-.036-.188zm-.097-1.398c-.065-.402-.095-.753-.068-.781.093-.092.236.64.211 1.077-.025.426-.027.421-.143-.296zm-15.294-6.628c.404-.572 2.105-2.014 1.974-1.672-.037.097-1.045 1.009-1.911 1.729l-.25.209zm4.69-.11c0-.046.058-.083.13-.083.071 0 .107.037.078.083-.028.046-.087.084-.13.084s-.078-.038-.078-.084zm-5.09-.411c0-.088.103-.242.229-.341.191-.151.234-.16.256-.053.034.169-.223.555-.369.555-.064 0-.116-.072-.116-.161zm8.094-3.019c0-.08.329-.155.688-.156.172-.001.313.036.313.082 0 .09-.009.091-.605.114-.218.008-.396-.01-.396-.04zm-.167-.4c0-.246 1.248-.522 1.573-.348.263.14.228.34-.059.34-.131 0-.525.024-.876.054-.47.04-.638.028-.638-.046z" fill="url(#b)"/>
 </g>
</svg>
