<svg clip-rule="evenodd" fill-rule="evenodd" stroke-linejoin="round" stroke-miterlimit="2" viewBox="0 0 48 48" xmlns="http://www.w3.org/2000/svg">
 <linearGradient id="a" x2="1" gradientTransform="matrix(-.127106 -44.5398 44.5398 -.127106 97.5987 45.5168)" gradientUnits="userSpaceOnUse">
  <stop stop-color="#25b0df" offset="0"/>
  <stop stop-color="#37d3ad" offset="1"/>
 </linearGradient>
 <linearGradient id="b" x2="1" gradientTransform="matrix(6.66205 -55.7915 55.7915 6.66205 506.041 103.639)" gradientUnits="userSpaceOnUse">
  <stop stop-color="#c2e9ee" offset="0"/>
  <stop stop-color="#fff" offset="1"/>
 </linearGradient>
 <g fill-rule="nonzero">
  <path d="m46.75 24c0 12.572-10.186 22.764-22.75 22.764s-22.75-10.192-22.75-22.764 10.186-22.764 22.75-22.764 22.75 10.192 22.75 22.764z" fill="url(#a)"/>
  <path d="m17.239 8.344-1.691 1.689 5.13 5.129c-3.194.112-6.241.384-9.069.79-.727 2.845-1.132 5.989-1.132 9.295 0 3.305.405 6.447 1.132 9.292 3.793.546 7.984.85 12.391.85s8.6-.304 12.393-.85c.727-2.845 1.13-5.987 1.13-9.292 0-3.306-.403-6.45-1.13-9.295-2.345-.337-4.843-.582-7.45-.719l4.353-4.354-1.689-1.69-5.93 5.93c-.556-.009-1.115-.014-1.677-.014zm6.761 10.141c3.305 0 6.45.201 9.294.565.546 1.897.848 3.994.848 6.197s-.302 4.297-.848 6.195c-2.844.363-5.989.566-9.294.566s-6.448-.203-9.292-.566c-.546-1.898-.85-3.992-.85-6.195s.304-4.3.85-6.197c2.844-.364 5.987-.565 9.292-.565z" fill="url(#b)"/>
 </g>
</svg>
