<svg clip-rule="evenodd" fill-rule="evenodd" stroke-linejoin="round" stroke-miterlimit="2" viewBox="0 0 48 48" xmlns="http://www.w3.org/2000/svg">
 <linearGradient id="a" x2="1" gradientTransform="matrix(.233606 -42.2713 42.2713 .233606 281.516 46.5677)" gradientUnits="userSpaceOnUse">
  <stop stop-color="#626262" offset="0"/>
  <stop stop-color="#9f9f9f" offset="1"/>
 </linearGradient>
 <path d="m45.668 8.56c0-3.438-2.79-6.228-6.228-6.228h-30.88c-3.438 0-6.228 2.79-6.228 6.228v30.88c0 3.438 2.79 6.228 6.228 6.228h30.88c3.438 0 6.228-2.79 6.228-6.228z" fill="url(#a)"/>
 <g fill-rule="nonzero">
  <path d="m38.873 7.236c.029 0 .057.017.085.051l6.67 8.04.009 24.733c-.3 3.035-2.782 5.432-5.854 5.599l-27.097.009s-4.033-5.244-4.033-5.244c-.179-.214-.311-1.079-.311-2.12l-.007-23.64 1.324 1.597-.001-1.562c-.122-.236-.185-.429-.114-.485l1.169-.929-2.379-2.868-.001-.998c0-1.202.175-2.17.395-2.172h.53c.029 0 .059.018.087.052l8.863 10.685-.004-8.569c0-1.202.177-2.171.397-2.172h.528c.029 0 .059.018.087.052l8.863 10.685-.004-8.567c0-1.203.177-2.174.397-2.174l.53.001c.029-.001.057.017.085.051l8.863 10.685.001-.09 1.322 1.594-.001-1.546.076.092c-.381-.482-.591-.946-.47-1.042l1.083-.861-2.01-2.423-.003-4.291c0-1.203.175-2.172.395-2.172l.53-.001z" fill-opacity=".18"/>
  <path d="m9.258 7.247c.219 0 .397.969.397 2.172l.001 1.006c.918.292 1.545 1.15 1.547 2.114 0 .963-.627 1.822-1.545 2.115l.006 23.65c.001 1.203-.175 2.171-.394 2.172h-.53c-.22 0-.397-.968-.398-2.172l-.007-23.639c-.932-.285-1.573-1.15-1.574-2.124.001-.974.642-1.839 1.573-2.123l-.001-.999c0-1.203.175-2.171.395-2.172zm9.871-.004h-.528c-.22 0-.397.969-.397 2.172l.009 26.82c-.932.283-1.575 1.148-1.576 2.123-.001 1.141.878 2.106 2.015 2.212.068.006.137.009.206.009 1.141.001 2.106-.879 2.212-2.015.007-.069.01-.139.01-.208-.001-.962-.627-1.82-1.543-2.113l-.011-26.828c0-1.203-.178-2.171-.397-2.171zm9.873-.003h-.53c-.22-.001-.397.97-.397 2.173l.007 18.852c-.929.286-1.567 1.15-1.567 2.121.001.973.64 1.837 1.569 2.122l.002 5.789c.001 1.203.178 2.173.398 2.173l.528-.002c.219 0 .397-.969.396-2.172l-.001-5.796c.92-.292 1.55-1.151 1.551-2.116-.001-.965-.632-1.825-1.553-2.116l-.007-18.857c-.001-1.203-.177-2.171-.396-2.171zm9.871-.004c.219 0 .397.97.397 2.173l.001 4.243c.962.263 1.635 1.142 1.637 2.14 0 .998-.673 1.879-1.636 2.142l.007 20.36c.001 1.204-.175 2.173-.394 2.172h-.53c-.22 0-.397-.968-.398-2.171l-.006-20.409c-.886-.312-1.483-1.153-1.484-2.092 0-.94.597-1.782 1.483-2.094l-.002-4.29c0-1.204.175-2.173.395-2.172l.53-.002z" fill="#2aefff"/>
 </g>
</svg>
