<svg clip-rule="evenodd" fill-rule="evenodd" stroke-linejoin="round" stroke-miterlimit="2" viewBox="0 0 48 48" xmlns="http://www.w3.org/2000/svg">
 <linearGradient id="a" x2="1" gradientTransform="matrix(.0387033 -44.3531 44.3531 .0387033 24.0068 46.151)" gradientUnits="userSpaceOnUse">
  <stop stop-color="#216ea2" offset="0"/>
  <stop stop-color="#2d95d9" offset="1"/>
 </linearGradient>
 <g fill-rule="nonzero">
  <path d="m24 1.236c-12.572 0-22.764 10.192-22.764 22.764s10.192 22.764 22.764 22.764 22.764-10.192 22.764-22.764-10.192-22.764-22.764-22.764z" fill="url(#a)"/>
  <path d="m19.028 15.935c.314 0 .569.255.569.57v.779h4.436c.314 0 .569.255.569.57v1.518c0 .315-.255.57-.569.57h-.449c-.255 2.2-1.416 4.522-3.451 6.903.927.999 2.063 1.767 2.666 2.141.236.147.332.443.227.7l-.523 1.279c-.067.161-.204.284-.372.332s-.349.016-.491-.087c-.925-.673-2.488-1.887-3.152-2.58-1.796 1.721-3.511 2.907-4.172 3.342-.094.061-.203.093-.313.093-.041 0-.082-.004-.122-.013-.15-.033-.28-.125-.361-.255l-.702-1.122c-.163-.26-.089-.604.166-.775.642-.43 2.301-1.597 3.967-3.216-1.41-2.081-2.173-4.128-2.504-5.171-.055-.173-.024-.362.083-.509.107-.146.278-.233.46-.233h1.398c.241 0 .456.152.536.379.32.902.88 2.255 1.752 3.651 1.367-1.693 2.18-3.326 2.419-4.86h-8.494c-.314 0-.569-.255-.569-.569v-1.518c0-.315.255-.57.569-.57h4.436v-.779c0-.315.255-.57.57-.57zm12.538 1.793c.25 0 .47.163.545.401l3.831 12.364c.054.173.022.361-.085.507-.107.145-.277.231-.458.231h-2.087c-.251 0-.473-.164-.546-.405l-.917-3.062h-3.869l-.847 3.05c-.069.246-.294.417-.549.417h-1.963c-.181 0-.351-.085-.458-.23-.108-.146-.14-.334-.087-.506l3.781-12.364c.073-.239.294-.403.545-.403zm-.16 7.756-1.524-5.47h-.039l-1.425 5.47z" fill="#fff" fill-opacity=".85"/>
 </g>
</svg>
