<svg clip-rule="evenodd" fill-rule="evenodd" stroke-linejoin="round" stroke-miterlimit="2" viewBox="0 0 48 48" xmlns="http://www.w3.org/2000/svg">
 <linearGradient id="a" x2="1" gradientTransform="matrix(-.652063 -42.6054 42.6054 -.652063 24.0203 44.5892)" gradientUnits="userSpaceOnUse">
  <stop stop-color="#f15f19" offset="0"/>
  <stop stop-color="#fbb521" offset="1"/>
 </linearGradient>
 <circle cx="24" cy="24" r="22.764" fill="url(#a)"/>
 <path d="m35.083 31.883c-.344-.453-2.282-.216-3.149-.108-.267.034-.307-.204-.066-.374 1.541-1.112 4.075-.793 4.367-.419.297.375-.074 2.976-1.526 4.216-.222.193-.433.09-.334-.163.323-.833 1.056-2.701.708-3.152m-1.123 1.316c-2.701 2.037-6.614 3.127-9.985 3.127-4.723 0-8.977-1.79-12.197-4.771-.252-.233-.025-.552.278-.371 3.472 2.072 7.769 3.316 12.205 3.316 2.989 0 6.283-.633 9.307-1.953.459-.196.842.308.393.649m-8.196-10.931c0 1.296.033 2.375-.593 3.523-.504.934-1.304 1.509-2.197 1.509-1.218 0-1.926-.971-1.926-2.405 0-2.83 2.423-3.345 4.717-3.345v.719m3.201 8.091c-.208.197-.511.212-.748.082-1.052-.915-1.242-1.341-1.823-2.216-1.742 1.86-2.972 2.416-5.232 2.416-2.671 0-4.752-1.722-4.752-5.172 0-2.694 1.397-4.531 3.382-5.428 1.72-.793 4.128-.934 5.969-1.153v-.43c0-.789.06-1.722-.381-2.404-.389-.612-1.13-.863-1.783-.863-1.211 0-2.289.649-2.552 1.994-.056.299-.263.592-.552.608l-3.079-.345c-.259-.062-.544-.281-.474-.696.711-3.897 4.083-5.076 7.099-5.076 1.545 0 3.564.429 4.78 1.652 1.545 1.508 1.397 3.52 1.397 5.71v5.172c0 1.557.615 2.238 1.197 3.079.204.297.249.659-.007.882-.649.571-1.801 1.615-2.434 2.204l-.012-.011" fill="#fff" fill-opacity=".85"/>
</svg>
