<svg clip-rule="evenodd" fill-rule="evenodd" stroke-linejoin="round" stroke-miterlimit="2" viewBox="0 0 48 48" xmlns="http://www.w3.org/2000/svg">
 <linearGradient id="a" x2="1" gradientTransform="matrix(0 -33.6872 33.6872 0 923.28 40.4502)" gradientUnits="userSpaceOnUse">
  <stop stop-color="#003083" offset="0"/>
  <stop stop-color="#0086d2" offset="1"/>
 </linearGradient>
 <path d="m39.44 45.668h-30.88c-3.438 0-6.228-2.79-6.228-6.228v-30.88c0-3.438 2.79-6.228 6.228-6.228h30.88c3.438 0 6.228 2.79 6.228 6.228v30.88c0 3.438-2.79 6.228-6.228 6.228z" fill="url(#a)"/>
 <path transform="matrix(1.08137 0 0 1.08137 -1.95278 -1.99346)" d="m21.871 39.888c-1.2-.314.529-1.951.105-2.897-.14-1.323.633-3.501-.987-4.09-1.404.161-1.926 1.66-2.8 2.63-.619.712.743-1.335-.387-.651-.933.334-1.316.135-.166-.142.86.01 1.377-.925.575-1.052.78-.725 3.778-.957 2.243-2.432-.374-.799-1.489-1.908-1.985-.69-.937.109-1.086 2.702-1.648 1.809-.555 1.072-.675 2.361-1.907 2.913.128-.163 1.524-1.899 1.049-2.381-.646.749-1.086.169-1.769.617.876-.689 2.741-.999 2.639-2.282-.909-.376-2.011 1.878-2.323 1.111.083-.79-2.202 1.797-1.423.517-1.479.091 1.441-.795 1.292-1.257.955-.749 2.99-.285 3.357-1.503-1.339-.711-2.987-.609-4.109.451-.348.214-1.5.992-.719.165-2.233.147 2.484-.74.178-.867-.074.059 2.573-.522 1.012-1.005-1.175-.754-3.318-.241-4.067-.701.663-.235 2.688.174 1.179-.643-1.107-.687 1.107.367 1.44.467.577.329 1.741.503.749-.298-.715-1.002 1.183 1.182 1.777 1.18.883-.066 2.807.066 3.147-.558-1.084-1.154-2.685-1.634-4.055-2.366-1.515-.071-3.065.275-4.602.467-.158-.535 2.065-.457 2.762-.649.451-.684-2.001-1.022-2.776-1.103-.666.164-.695-.575-.687-.55.815.227 3.636 1.074 1.812-.336.206-1.035-3.189-2.207-.903-1.507-.323-.457-.915-1.554.02-.599.889 1.136 1.623 2.565 2.91 3.286.492.376 2.28.739 1.016-.133-1.042-.515-1.009-1.174-1.839-1.963 1.354.442 1.884 1.967 3.011 2.757 1.112.283 2.102 1.461 3.093 1.57-.433-1.513-2.194-1.721-3.221-2.705-.686-.354-1.153-.608-.125-.386.942.32 1.493 1.16 2.622 1.499-1.018-1.081-2.209-2.378-3.647-2.808-.981-.065-3.136-.967-3.225-1.286.872.257 3.147 1.567 3.35.601-.362-.833-2.118-1.137-2.131-1.571.644.417 1.594.39.506-.29-.595-.339-2.04-1.552-.597-.715 1.462.943-1.564-2.159-.087-.758.629.537 1.794 2.327 2.04 2.068-.316-.657-.838-2.307-.117-.789.601 1.604 1.551 3.118 3.041 4.028-.035-1.063-1.168-2.304-1.907-3.263-.534-.622-1.068-1.808-.115-.583.225.777 1.334 1.493.59.282-.448-1.079-2.185-1.992-2.315-2.785.834.931.236-.464.523-.153.068.807 1.467 2.101 1.253 1.274.306.547.971 1.226.461.104-.409-.793-.426-1.462.081-.311.224 1.78 1.989 2.625 3.069 3.87.447.553 1.557 1.252.725.107-.414-1.131-2.357-2.284-2.539-2.844.474.522 1.916 1.322.838.086-1.145-1.197-2.249-2.477-3.723-3.273-.722-.396-1.079-1.117-.091-.295 1.362.94-1.926-2.27-.541-1.231 1.241 1.086 2.167 2.504 3.542 3.448 1.193.63-.292-1.526-.709-1.852-.574-.835-2.43-1.91-2.16-2.518.772.446-1.245-1.92-.083-.927.569.717.485.26.229-.303.869.918 1.393 2.69 2.358 3.18-.247-.702-.283-1.57-.755-2.156-.473-.424-1.516-1.611-.296-.659 1.052.824 1.17 2.347 1.674 3.531.348.94.85 2.843 1.323 3.174.244-1.139-.519-2.197-.372-3.304.245 1.011.896 1.802 1.618 2.523.429.708 1.344 1.201.513.088-1.346-2.047-2.946-3.975-3.704-6.344-.406-.484-1.695-1.054-.304-.585-.195-1.721 1.333 2.539.812.312-.241-.681-.309-1.42 0-.358.501 1.743 1.043 3.612 2.284 4.982-.053-1.253-1.099-2.03-.916-2.885-.27-.871-.854-1.916-.981-2.65.507.85.406.159.162-.332.875-.134.965 1.963 1.523 2.019-.04-.548-1.067-2.299-.62-2.245.781 1.411 1.018 3.159 2.191 4.333.424.614 1.322 1.834.736.4-.617-1.611-1.329-3.228-2.59-4.447-.882-1.353 1.544 1.58.663-.187-.789-1.007.325-.66.294.255.136.718.71 1.321.407.123.071-.175.803 3.413.711 1.362.169-1.449-1.126-2.274-1.267-3.591.469 1.451.69-1.477.716.141.025.666.21 1.461.526 1.111.223 1.445.148 2.952.714 4.326-.032-.732-.401-2.913.282-1.324.51 1.729.323-1.5-.161-2.026.173-.984-1.286-1.985-.845-2.432.67.391.836 1.699 1.11 1.945.207-.661-.486-2.96.156-1.234.625 1.616.287-.21.158-.9.408.398.748 2.869 1 2.457.019-.725-.939-2.997.039-1.499.296 1.451.382 2.942.543 4.404.431-1.419.306-2.953.072-4.328.208 1.091.319.387.468-.181.003 1.298.271.816.526.483.12.665-1.29 2.989.147 1.756.681-.521.044-2.215.493-2.441.289 1.323.007 2.448-.189 3.801.216.858-.611 2.631-.052 2.372-.103 1.341-.826 2.551-.655 3.934.016 2.04-.024 4.092.161 6.123.74-1.516.626-3.372 1.063-5.015.834-3.653.176-7.411.395-11.107.259.475.225 2.691.533.925.349 1.103-.412 2.975-.123 4.372.646-.831.819-2.134.908-3.221-.106-.606.713-2.252.404-.727-.257 1.507-.429 3.054-.995 4.48.439-.283 1.28-2.49.796-.713-.322.845-1.036 2.236-.049 1.236.786-1.088 1.463-2.469.984-3.83.208-1.941.254 2.1.603.28.413-1.172.414.694-.035 1.03-.533 1.322-1.306 2.567-1.772 3.905.004.693-.205 2.311.657.981-.089 1.484-1.746 2.324-1.915 3.726.416-.586 1.083-1.641.591-.273.849-.847 1.321-2.165 1.867-3.276 1.124-2.087.814-4.582 1.754-6.717-.114.682-.484 2.428.226.905.197.804-1.146 2.742-.719 3.602.466-.591 1.867-2.133.783-.648-.735 1.203-1.652 2.284-2.108 3.639-.338 1.122-1.766 2.73-1.383 3.576 1.453-.937 1.487-2.917 2.126-4.392.592-.899-.934 2.973.117.914 1.046-1.958 2.468-3.949 2.239-6.284-.022-.93.28.442.521-.63.018.712-.397 2.529.265.986.148-.871 1.015-1.422.404-.221-.409.514-.534 1.534.137.483 1.11-1.623.003.548-.491 1.065-.895.963-1.421 2.268-2.184 3.377-.618 1.206-1.452 2.729-1.741 3.823 1.193-.873 1.758-2.337 2.745-3.416.661-.721.795-1.945 1.402-1.927.606-.566 1.163-2.558 1.435-1.232-.933.827-1.986 2-2.314 3.079 1.042-.331 1.629-1.765 2.142-1.425.718-.903 1.557-.893 2.357-1.557-.521 1.344-1.888 1.972-2.394 3.405-.519.878.917-.08.031.821-.321.66-.664 1.584.317.666.67-.784 2.238-.53 2.732-1.611.161-.732.93-1.97.447-.475-.258.812.23.767-.476 1.53-1.115 1.821 2.079-1.91.712-.024-1.158 1.21 1.179-.602.694.37-1.42.31-2.125 1.711-3.247 2.559-1.43 1.161 1.087.395 1.352.358.788.127 2.279-.941 2.206-.203-.475.243-2.999.476-1.198.618.946.009.407.816-.32.239-1.322-.426-2.557.201-3.823.353-.891.321-1.586 1.771.006 1.423.898.223 2.385.107 2.895-.276-1.066.88 1.605.19 2.092.431 1.507.222-.779.127-1.304.213-.593.611-3.275 1.277-1.277.373 1.333-.531-1.274-.258-1.727-.389-.716-.525-2.994.305-1.719.977.564.455 2.36.114 2.345.154-.031 1.181 2.208-.533 2.502-.193-.989.346-.925.836.133.797 1.154-.323 1.357 1.077.203.321-1.679-.229-3.396-.244-5.06-.634-1.1-.23-2.97 2.401-.786 2 1.051.313 2.744-.141 3.436.187-.762-.028-2.484.182-.734.448.473.173 2.327.215.906.495.337.534 2.875 1.152 1.139.869-1.23-.646-2.234-.84-3.341-1.353-.938-.303-3.233-.747-3.435.378.616 1.471 1.831 2.469 3.481 1.85.799-.067.043.196.366.739-.688-.601-2.756-.307-1.174.528.659.196 2.096 1.577.727.593-1.152-.858-.636.223-.345.856-.877-.51-1.495-2.207-2.3-2.479-.217.927 1.245 2.498.991 2.659-1.555-.824-1.156-2.473-1.669-3.871-.779-1.439-3.341 1.206-1.871 1.931.201.597 2.629 2.114.951 1.321-.668-.652-1.421-.569-.746.428.386.581.746 1.894.032.585-.425-.727-1.129-3.603-1.843-1.569-.53 1.743-1.244 3.867-.143 5.533-.898.729-2.638.311-3.813.262zm3.156-6.944c.901-.804-.634-1.563-.398-.25-.007.347.032.982.398.25zm-3.312-1.97c.377-1.055-1.787-1.369-.653-.228.186.221.855 1.137.653.228zm3.938.214c-.186-.556-.213.563-.001 0zm1.687-.776c.712-.66 2.511-1.843 2.367-2.435-1.337.227-2.553 1.241-2.74 2.612.119.143.274-.25.373-.177zm-2.17-.228c1.253-.548 1.629-1.866 1.506-3.127-.636.25-1.678 1.985-1.844 3.065-.121.325.236.181.338.062zm-6.414-.533c1.01-.231-.681-.846-1.108-.537-1.893.052.716.727 1.108.537zm2.454-.147c.256-.988-1.385-2.197-2.307-2.679-.535.576.798 2.128 1.362 2.673.313.032.633.051.945.006zm1.107-.693c-.298-2.222-1.839-4.072-3.648-5.302-.997-.684-1.876-2.008-2.91-2.357.615 1.622 1.279 3.329 2.478 4.613 1.018.236-.742-1.349-.911-1.93-.432-1.161 1.132.988 1.347 1.381 1.007 1.408 2.388 2.506 3.398 3.918.244.393.306-.245.246-.323zm5.283-.387c1.017-.96 2.888-1.093 3.47-2.286-.39-.715-2.03.046-2.543.562-.113.321-2.302 2.323-.927 1.724zm-1.908-1.912c.671-.838 1.707-1.975 1.439-3.052-.904.817-1.626 2.016-1.651 3.228zm-3.271-.511c.042-1.547-.6-3.327-2.348-3.584-1.345-.392.54 1.485.736 2 .492.566 1.263 2.075 1.649 2.005l-.014-.192zm8.795-.519c.148-.747 1.232-2.66.51-2.862-.716.709-1.618 1.878-1.69 2.748.357.061.843.371 1.18.114zm-2.256-.377c1.015.205 1.923-2.082 1.249-2.336-.788.528-1.779 1.685-1.87 2.371.206-.031.414-.033.621-.035zm-.919-1.032c1.239-.911 2.478-1.925 3.117-3.364.422-.588 1.688-2.958.177-1.576-1.296.82-1.75 2.46-2.839 3.494-.114.16-1.369 1.927-.455 1.446zm5.047-.681c.371-.553.733-.625.337.141 1.185-.578 2.819-2.472 2.463-3.526-1.376.458-2.912 1.068-3.408 2.561-.396.707-.471 2.21.455.992zm-10.397-.807c.418-1.627-.913-3-1.469-4.427-.248-1.1-3.111-2.447-1.796-.481 1.029 1.85 2.058 3.701 3.002 5.597.219.129.182-.583.263-.689zm-1.701-.6c-.786-1.014-1.798-2.461-2.773-2.98-.347 1.67.746 3.315 2.573 3.016l.158-.002zm2.694-.242c.233-2.2-.304-4.398-1.377-6.317-.22-.595-.56-1.552-.652-.352-.148.893-.233 1.824.215 2.643.236.624.796 2.481.789.746.818.087.452 3.166 1.025 3.28zm8.445-1.671c.422-.474.741-1.697.067-.506-.306.431-.906 1.89-.184.694zm2.247-2.974c-.169-.435-1.753 1.525-.386.34l.17-.138zm-10.451-.245c.085-.997.277-2.959-.094-3.4-.007 1.287-.563 2.977-.052 4.025.07-.203.106-.415.146-.625zm-3.788-.429c-.803-1.057-1.505-2.191-2.328-3.232-.005 1.443 1.124 1.618 1.614 2.839.137.177.491.502.714.393zm2.626-2.023c.154-.921-.349-3.394-1.043-3.221.06 1.343.488 2.537.979 3.86.061-.207.051-.426.064-.639zm1.78-1.312c.116-1.627-.565.905-.081.351l.039-.154zm-9.011 22.202c.453-.67.237.195 0 0zm14.224-.842c.245-.342.155.314 0 0zm4.38-3.131c-.723-.58.534-.041 0 0zm3.087-.5c-2.064-.74 2.369.542.338.096l-.165-.046zm1.136-2.816c.087-.445.421.2 0 0zm-28.872-.432c.01-.396.438.269 0 0zm27.978-.55c-1.008-.185 2.141-.597.517-.039-.12.237-.353-.007-.517.039zm-28.074-1.358c-.985-.499 1.246.173 0 0zm27.496-.038c.53-.503 1.676.251.364.043l-.178-.01zm1.303-1.259c.206-.06.064-.034 0 0zm-26.07-.568c-.417-.548.82.516 0 0zm-2.091-.226c-1.41-.56.136-.323.527.104-.182.023-.357-.057-.527-.104zm-1.181-.688c-.056-.31.401.27 0 0zm2.149-2.73c-.506-.426.556.091 0 0zm23.58-.777c.324-.702.211-1.148.635-.7.51-.144-1.356 2.143-.635.7zm-2.442-3.184c.12-.905.615-1.145.13-.108.107-.081-.153.258-.13.108zm-16.767-2.868c-.385-1.191.414.459 0 0zm17.507-.658c.104-.425.238.118 0 0zm-14.496-2.154c-.438-.731.488.518 0 0z" fill="#fff" fill-rule="nonzero"/>
</svg>
