<svg clip-rule="evenodd" fill-rule="evenodd" stroke-linejoin="round" stroke-miterlimit="2" viewBox="0 0 48 48" xmlns="http://www.w3.org/2000/svg">
 <linearGradient id="a" x2="1" gradientTransform="matrix(0 -45.465 45.465 0 23.4691 46.6561)" gradientUnits="userSpaceOnUse">
  <stop stop-color="#6c6d6e" offset="0"/>
  <stop stop-color="#9b9c9e" offset="1"/>
 </linearGradient>
 <linearGradient id="b" x2="1" gradientTransform="matrix(0 -28.4319 28.4319 0 24.0274 34.1592)" gradientUnits="userSpaceOnUse">
  <stop stop-color="#d3d3d3" stop-opacity=".9" offset="0"/>
  <stop stop-color="#fcf9f9" stop-opacity=".9" offset="1"/>
 </linearGradient>
 <circle cx="24.031" cy="24.114" r="22.733" fill="url(#a)"/>
 <path d="m35.821 33.027-8.608-8.609c-.081-.081-.167-.153-.256-.22l1.525-1.605c.078-.079.152-.162.22-.246 2.024.763 4.399.334 6.026-1.293 1.186-1.187 1.785-2.828 1.64-4.504-.016-.189-.141-.353-.32-.418s-.379-.021-.514.114l-2.759 2.758-2.793-.704-.792-2.881 2.758-2.759c.135-.135.179-.335.114-.514s-.229-.304-.419-.321c-1.675-.144-3.316.454-4.504 1.641-1.625 1.626-2.055 4-1.293 6.023-.083.07-.165.145-.246.224l-2.244 2.156-4.121-4.121c-.052-.051-.106-.097-.163-.139.048-.085.095-.173.139-.263.871.167 2.462-1.528 3.813-2.878l-3.937-3.937c-1.76 1.76-3.045 2.942-2.879 3.812-.402.197-.761.437-1.016.692l-.554.555c-.36.36-.577.809-.655 1.276-.054.061-.108.126-.163.195l-.206.26c-.006.006-.024.032-.029.038l-.187.263c-.117.156-.22.326-.319.49-.036.06-.074.121-.112.182-.006.011-.012.021-.017.031l-.083.157c-.101.189-.205.384-.294.599l-.015.034c-.105.25-.214.509-.291.784l-.036.119c-.031.098-.061.195-.089.311l-.077.379c-.057.237-.076.471-.093.678l-.011.136c-.028.215-.02.417-.012.596.002.059.005.118.006.197.002.033.003.065.004.097.002.08.004.17.019.266l.048.307c.011.06.019.117.027.173.019.125.038.254.075.376l.201.699c.062.212.264.353.485.338.117-.009.222-.059.3-.137.07-.07.118-.162.133-.266l.104-.71c.008-.056.032-.139.057-.226.018-.061.035-.123.049-.175l.074-.266c.009-.035.027-.07.042-.106.015-.034.029-.068.043-.102.025-.056.048-.112.071-.17.046-.113.089-.22.155-.325.029-.048.055-.096.083-.145.069-.124.134-.24.212-.336.004-.006.009-.012.014-.019l.175-.242c.036-.045.076-.088.116-.131.027-.031.055-.061.09-.102.104-.124.225-.233.342-.339l.063-.057c.087-.08.188-.156.293-.236.043-.033.086-.065.127-.096.054-.035.105-.069.156-.104.096-.064.178-.12.274-.17l.207-.118.21-.103c.074-.038.146-.067.212-.094.04-.016.079-.032.115-.048.037-.012.072-.026.106-.039.045-.016.084-.032.137-.045l.056-.013c.062.1.135.195.221.282l4.077 4.076-8.702 8.358c-.004.003-.007.007-.01.01-1.083 1.083-1.259 2.669-.176 3.752s2.568.805 3.65-.277l.014-.014 7.676-8.083c.045.053.09.106.14.156l8.608 8.609c.964.965 2.529.965 3.493 0 .965-.965.965-2.529 0-3.493zm-21.054 1.932c-.399.399-1.045.399-1.444 0s-.399-1.045 0-1.444c.398-.399 1.045-.399 1.444 0 .398.399.398 1.045 0 1.444z" fill="url(#b)" fill-rule="nonzero"/>
</svg>
