<svg clip-rule="evenodd" fill-rule="evenodd" stroke-linejoin="round" stroke-miterlimit="2" viewBox="0 0 48 48" xmlns="http://www.w3.org/2000/svg">
 <linearGradient id="a" x2="1" gradientTransform="matrix(0 -45.5281 45.5281 0 80.2727 46.764)" gradientUnits="userSpaceOnUse">
  <stop stop-color="#006783" offset="0"/>
  <stop stop-color="#20ccff" offset="1"/>
 </linearGradient>
 <circle cx="24" cy="24" r="22.764" fill="url(#a)"/>
 <g fill="#f7f7f7">
  <path d="m13.48 18.345c.028-.003.057-.004.084-.004h2.977c.039 0 .077.003.115.008.082-.009.165-.002.247.021.16.047.296.155.377.302.654 1.185 2.193 3.974 2.895 5.246.096.173.119.377.064.568-.055.19-.183.351-.357.447h-.001c-.172.095-.377.118-.568.063-.19-.054-.35-.183-.446-.356l-1.565-2.836v11.786c0 .467-.378.846-.845.846h-.048c-.467 0-.846-.379-.846-.846v-7.436h-1.02v7.422c0 .228-.09.446-.252.608-.16.161-.38.252-.608.252h-.019c-.229 0-.448-.091-.609-.252-.161-.162-.251-.38-.251-.608v-11.583l-1.461 2.647c-.096.173-.255.302-.447.356-.19.055-.394.032-.567-.063h-.001c-.173-.096-.301-.257-.357-.447-.054-.191-.032-.395.065-.568.702-1.272 2.239-4.061 2.895-5.246.08-.147.216-.255.377-.302.056-.016.115-.025.172-.025zm1.573-4.781c1.123 0 2.035.912 2.035 2.035s-.912 2.035-2.035 2.035-2.035-.912-2.035-2.035.912-2.035 2.035-2.035z"/>
  <path d="m22.375 18.345c.029-.003.056-.004.084-.004h2.977c.038 0 .077.003.115.008.082-.009.166-.002.247.021.16.047.296.155.376.302.655 1.185 2.194 3.974 2.896 5.246.096.173.119.377.064.568-.056.19-.183.351-.357.447h-.001c-.172.095-.378.118-.567.063-.191-.054-.351-.183-.447-.356l-1.565-2.836v11.786c0 .467-.379.846-.846.846h-.047c-.467 0-.846-.379-.846-.846v-7.436h-1.02v7.422c0 .228-.09.446-.252.608-.161.161-.38.252-.608.252h-.02c-.228 0-.447-.091-.607-.252-.162-.162-.252-.38-.252-.608v-11.583l-1.461 2.647c-.096.173-.256.302-.447.356-.189.055-.395.032-.567-.063h-.001c-.174-.096-.301-.257-.357-.447-.055-.191-.032-.395.064-.568.702-1.272 2.241-4.061 2.896-5.246.08-.147.216-.255.376-.302.057-.016.115-.025.173-.025zm1.572-4.781c1.124 0 2.036.912 2.036 2.035s-.912 2.035-2.036 2.035c-1.122 0-2.034-.912-2.034-2.035s.912-2.035 2.034-2.035z"/>
  <path d="m31.271 18.345c.027-.003.055-.004.083-.004h2.977c.038 0 .077.003.115.008.082-.009.166-.002.246.021.161.047.297.155.377.302.656 1.185 2.193 3.974 2.895 5.246.097.173.119.377.065.568-.056.19-.184.351-.357.447h-.001c-.173.095-.377.118-.567.063-.192-.054-.351-.183-.447-.356l-1.565-2.836v11.786c0 .467-.379.846-.846.846h-.047c-.467 0-.846-.379-.846-.846v-7.436h-1.02v7.422c0 .228-.091.446-.252.608-.161.161-.38.252-.608.252h-.02c-.228 0-.447-.091-.608-.252-.161-.162-.251-.38-.251-.608v-11.583l-1.461 2.647c-.096.173-.256.302-.446.356-.191.055-.396.032-.568-.063h-.001c-.174-.096-.302-.257-.357-.447-.055-.191-.032-.395.064-.568.702-1.272 2.241-4.061 2.895-5.246.081-.147.217-.255.377-.302.057-.016.115-.025.174-.025zm1.572-4.781c1.123 0 2.035.912 2.035 2.035s-.912 2.035-2.035 2.035-2.035-.912-2.035-2.035.912-2.035 2.035-2.035z"/>
 </g>
</svg>
