<svg clip-rule="evenodd" fill-rule="evenodd" stroke-linejoin="round" stroke-miterlimit="2" viewBox="0 0 48 48" xmlns="http://www.w3.org/2000/svg">
 <linearGradient id="a" x2="1" gradientTransform="matrix(0 -45.1048 45.1048 0 23.9033 47.2137)" gradientUnits="userSpaceOnUse">
  <stop stop-color="#ff9300" offset="0"/>
  <stop stop-color="#ffd702" offset="1"/>
 </linearGradient>
 <linearGradient id="b" x2="1" gradientTransform="matrix(0 -29.0998 29.0998 0 23.7578 39.0658)" gradientUnits="userSpaceOnUse">
  <stop stop-color="#e3e3e3" offset="0"/>
  <stop stop-color="#fffcff" offset="1"/>
 </linearGradient>
 <circle cx="24" cy="24" r="22.764" fill="url(#a)"/>
 <path d="m34.153 13.975c-2.35-2.349-5.301-3.209-6.24-2.269l-3.782 3.782c-.574.573-1.074 2.494-.845 4.437l-11.446 11.447c-.679.679-.129 2.33 1.229 3.687 1.357 1.358 3.008 1.908 3.687 1.23l11.447-11.447c1.944.229 3.863-.271 4.437-.845l3.782-3.782c.94-.94.081-3.89-2.269-6.24zm-12.588 11.44c-.523-.523-.352-1.539.378-2.27.731-.73 1.747-.901 2.269-.378.522.522.353 1.538-.378 2.269s-1.748.9-2.269.379zm9.468-8.32c-1.821-1.82-2.278-4.222-2.116-4.384.162-.163 2.469.389 4.291 2.21 1.82 1.82 2.366 4.133 2.209 4.29s-2.564-.295-4.384-2.116z" fill="url(#b)" fill-rule="nonzero"/>
</svg>
