<svg clip-rule="evenodd" fill-rule="evenodd" stroke-linejoin="round" stroke-miterlimit="2" viewBox="0 0 48 48" xmlns="http://www.w3.org/2000/svg">
 <linearGradient id="a" x2="1" gradientTransform="matrix(0 -43.336 43.336 0 24 45.668)" gradientUnits="userSpaceOnUse">
  <stop stop-color="#325f78" offset="0"/>
  <stop stop-color="#2e7a9b" offset="1"/>
 </linearGradient>
 <path d="m39.44 45.668h-30.88c-3.438 0-6.228-2.79-6.228-6.228v-30.88c0-3.438 2.79-6.228 6.228-6.228h30.88c3.438 0 6.228 2.79 6.228 6.228v30.88c0 3.438-2.79 6.228-6.228 6.228z" fill="url(#a)"/>
 <g transform="matrix(1.18929 0 0 1.18929 -4.54307 -4.54307)">
  <path d="m22 12.523c0-1.393-1.13-2.523-2.523-2.523h-6.954c-1.393 0-2.523 1.13-2.523 2.523v6.954c0 1.393 1.13 2.523 2.523 2.523h6.954c1.393 0 2.523-1.13 2.523-2.523z" fill="#fff"/>
  <path d="m38 12.523c0-1.393-1.13-2.523-2.523-2.523h-6.954c-1.393 0-2.523 1.13-2.523 2.523v6.954c0 1.393 1.13 2.523 2.523 2.523h6.954c1.393 0 2.523-1.13 2.523-2.523z" fill-opacity=".3"/>
  <path d="m22 28.523c0-1.393-1.13-2.523-2.523-2.523h-6.954c-1.393 0-2.523 1.13-2.523 2.523v6.954c0 1.393 1.13 2.523 2.523 2.523h6.954c1.393 0 2.523-1.13 2.523-2.523z" fill-opacity=".3"/>
  <path d="m38 28.523c0-1.393-1.13-2.523-2.523-2.523h-6.954c-1.393 0-2.523 1.13-2.523 2.523v6.954c0 1.393 1.13 2.523 2.523 2.523h6.954c1.393 0 2.523-1.13 2.523-2.523z" fill="#fff"/>
 </g>
</svg>
