<svg clip-rule="evenodd" fill-rule="evenodd" stroke-linejoin="round" stroke-miterlimit="2" viewBox="0 0 48 48" xmlns="http://www.w3.org/2000/svg">
 <linearGradient id="a" x2="1" gradientTransform="matrix(.44665 -35.183 35.183 .44665 231.65 43.7211)" gradientUnits="userSpaceOnUse">
  <stop stop-color="#016882" offset="0"/>
  <stop stop-color="#2a9fc7" offset="1"/>
 </linearGradient>
 <linearGradient id="b" x2="1" gradientTransform="matrix(-.363346 -25.361 25.361 -.363346 1281.44 19.2921)" gradientUnits="userSpaceOnUse">
  <stop stop-color="#687914" stop-opacity=".28" offset="0"/>
  <stop stop-color="#cbba2d" stop-opacity=".28" offset="1"/>
 </linearGradient>
 <path d="m39.44 2.332c3.438 0 6.228 2.79 6.228 6.228v30.88c0 3.438-2.79 6.228-6.228 6.228h-30.88c-3.438 0-6.228-2.79-6.228-6.228v-30.88c0-3.438 2.79-6.228 6.228-6.228z" fill="url(#a)"/>
 <path d="m8.56 2.332h15.44v43.336h-15.44c-3.438 0-6.228-2.79-6.228-6.228v-30.88c0-3.438 2.79-6.228 6.228-6.228z" fill="url(#b)"/>
 <path d="m29.353 20.698h3.357c.985.008 1.699.292 2.141.852.443.559.589 1.323.439 2.292-.059.442-.188.876-.388 1.302-.194.426-.46.81-.802 1.152-.418.435-.864.71-1.34.827s-.969.175-1.478.175h-1.503l-.476 2.38h-1.741zm1.466 1.428-.752 3.757c.05.008.1.013.15.013h.176c.801.008 1.469-.071 2.004-.238.534-.176.893-.785 1.077-1.829.15-.877 0-1.382-.451-1.515-.443-.134-.998-.197-1.666-.188-.1.008-.196.012-.288.012h-.263zm-8.394-3.82h1.728l-.488 2.392h1.553c.851.017 1.486.192 1.903.526.426.334.551.969.376 1.904l-.839 4.17h-1.753l.801-3.982c.084-.418.058-.714-.075-.89-.134-.175-.422-.263-.864-.263l-1.391-.012-1.027 5.147h-1.728zm-7.92 2.392h3.356c.986.008 1.699.292 2.142.852.443.559.589 1.323.438 2.292-.058.442-.187.876-.388 1.302-.192.426-.459.81-.801 1.152-.418.435-.865.71-1.341.827-.475.117-.968.175-1.477.175h-1.503l-.476 2.38h-1.741zm1.465 1.428-.751 3.757c.05.008.1.013.15.013h.175c.802.008 1.47-.071 2.004-.238.535-.176.894-.785 1.077-1.829.151-.877 0-1.382-.45-1.515-.443-.134-.998-.197-1.666-.188-.1.008-.196.012-.288.012h-.263z" fill="#fff" fill-rule="nonzero"/>
</svg>
