<svg clip-rule="evenodd" fill-rule="evenodd" stroke-linejoin="round" stroke-miterlimit="2" viewBox="0 0 48 48" xmlns="http://www.w3.org/2000/svg">
 <linearGradient id="a" x2="1" gradientTransform="matrix(0 -33.6872 33.6872 0 923.28 40.4502)" gradientUnits="userSpaceOnUse">
  <stop stop-color="#bac4c5" offset="0"/>
  <stop stop-color="#dcdcdc" offset="1"/>
 </linearGradient>
 <path d="m39.44 45.668h-30.88c-3.438 0-6.228-2.79-6.228-6.228v-30.88c0-3.438 2.79-6.228 6.228-6.228h30.88c3.438 0 6.228 2.79 6.228 6.228v30.88c0 3.438-2.79 6.228-6.228 6.228z" fill="url(#a)"/>
 <path transform="matrix(2.94867 0 0 2.94867 -275.063 -409.223)" d="m97.277 151.695c.044-.115.294-1.306.554-2.645.548-2.819.765-3.72 1.187-4.94.379-1.096.764-1.795 1.238-2.248.467-.447.654-.539 1.089-.539.997 0 1.831 1.027 2.527 3.113.338 1.014.579 1.977 1.105 4.422.235 1.094.485 2.177.555 2.405.199.647.202.643-.456.643h-.584l-.097-.571c-.224-1.324-.789-2.497-1.535-3.188-.581-.538-.933-.676-1.605-.627-.623.045-1.228.399-1.498.875-.254.449-.263 1.114-.018 1.425.403.513 1.37.098 1.488-.637.036-.224.089-.32.163-.292.06.023.245.067.411.099.289.054.303.072.302.407-.001.778-.713 1.324-1.726 1.324-.631 0-1.023-.212-1.258-.679-.445-.887.164-2.352 1.207-2.903.425-.224.519-.242 1.083-.201.668.049 1.505.378 1.984.78.141.119.271.201.289.182.044-.043-.498-2.383-.784-3.386-.444-1.562-1.03-2.514-1.544-2.514-.781.001-1.499 1.14-2.046 3.244-.468 1.8-.845 4.423-.845 5.878v.784h-1.266z" fill="#0008be" fill-rule="nonzero"/>
</svg>
