<svg clip-rule="evenodd" fill-rule="evenodd" stroke-linejoin="round" stroke-miterlimit="2" viewBox="0 0 48 48" xmlns="http://www.w3.org/2000/svg">
 <linearGradient id="a" x2="1" gradientTransform="matrix(-.652063 -42.6054 42.6054 -.652063 24.0202 44.5892)" gradientUnits="userSpaceOnUse">
  <stop stop-color="#c52828" offset="0"/>
  <stop stop-color="#ff5454" offset="1"/>
 </linearGradient>
 <linearGradient id="b" x2="1" gradientTransform="matrix(.466639 -36.2174 -36.2174 -.466639 24 39.176)" gradientUnits="userSpaceOnUse">
  <stop stop-color="#c52828" stop-opacity=".99" offset="0"/>
  <stop stop-color="#ff5454" stop-opacity=".99" offset="1"/>
 </linearGradient>
 <circle cx="24" cy="24" r="22.764" fill="url(#a)"/>
 <g fill-rule="nonzero">
  <path d="m30.074 22.343-5.492 3.675-.001 5.575c-.001 3.067.013 5.576.031 5.576s2.497-1.648 5.509-3.663l5.477-3.662v-5.592c0-3.076-.007-5.59-.016-5.588-.009 0-2.488 1.658-5.508 3.679z" fill="#fff" fill-opacity=".83"/>
  <path d="m12.371 24.1v5.674l5.499 3.653c3.025 2.009 5.514 3.653 5.532 3.653s.033-2.551.033-5.668v-5.668l-5.495-3.659c-3.022-2.013-5.512-3.66-5.532-3.66s-.037 2.554-.037 5.675z" fill="#fff" fill-opacity=".83"/>
  <path d="m18.593 13.842c-2.946 1.97-5.383 3.607-5.414 3.637-.064.062 10.785 7.381 10.95 7.388.121 0 10.787-7.133 10.766-7.204-.01-.033-9.99-6.785-10.907-7.379-.02-.015-2.448 1.588-5.395 3.558z" fill="#fff" fill-opacity=".83"/>
  <path d="m22.88 38.477-11.78-7.839v-13.214c1.646-1.077.318-.207 1.075-.717l10.526-7.032c1.283-.854.011 0 1.299-.851 11.5 7.631 8.677 5.753 12.004 7.973.906.662.168.136.896.672v.493.044 10.885 1.747c-3.331 2.216-.487.324-.806.537l-10.974 7.301-.582.358c-.406.261 1.753-1.133-.538.342-1.063-.675-.009 0-1.12-.7zm.403-1.479v-11.108l-.089-.135-.314-.179-10.347-6.898v11.154zm1.434 0 10.75-7.166v-10.93l-10.75 7.167zm-.538-12.318 10.482-6.987-10.661-7.122-10.526 6.988 10.212 6.808z" fill="url(#b)"/>
 </g>
</svg>
