<svg clip-rule="evenodd" fill-rule="evenodd" stroke-linejoin="round" stroke-miterlimit="2" viewBox="0 0 48 48" xmlns="http://www.w3.org/2000/svg">
 <linearGradient id="a" x2="1" gradientTransform="matrix(0 -42.8189 42.8189 0 25.3995 45.4988)" gradientUnits="userSpaceOnUse">
  <stop stop-color="#12396c" offset="0"/>
  <stop stop-color="#345784" offset="1"/>
 </linearGradient>
 <path d="m39.44 45.668h-30.88c-3.438 0-6.228-2.79-6.228-6.228v-30.88c0-3.438 2.79-6.228 6.228-6.228h30.88c3.438 0 6.228 2.79 6.228 6.228v30.88c0 3.438-2.79 6.228-6.228 6.228z" fill="url(#a)"/>
 <path d="m24.537 12.002c-.104.003-.212.014-.328.029-1.306.174-1.664.49-2.463 2.166-.538 1.131-.808 1.41-1.502 1.559-3.244-2.363-3.244 1.244-3.883 2.244-.875-.768-2.012-2.006-3.136-2.934-1.005-.831-2-1.334-2.789-.81-.626.439-1.157 1.379-1.35 3.538-.264 2.948.003 4.044 1.875 6.485 2.117 2.761 5.271 5.523 10.266 8.991 2.163 1.501 3.976 2.73 4.029 2.73.299 0-2.895-4.15-4.83-6.273-2.892-3.174-3.426-4.161-3.488-5.586-.056-1.288.495-2.141 1.234-2.141.268 0 1.484.771 2.824 2.291 1.117 1.207 2.138 2.48 3.029 3.723 1.889 2.358 4.079 2.659 4.893.672.788-1.934-.012-5.33-1.814-7.696-.203-.865.18-.997 1.066-.996 1.12.001 3.249 1.186 4.527 2.293 1.58 1.369 1.847 1.644 3.606 5.133 1.038 2.059 2.068 3.98 2.289 4.268.393.512.401.509.408-.131-.332-5.331-2.182-10.686-6.182-14.327-.676-.591-2.662-2.034-4.412-3.205-2.55-1.706-3.139-2.047-3.869-2.023z" fill="#8d8069" fill-rule="nonzero"/>
 <ellipse transform="matrix(.378592 -.925564 .625101 .780544 0 0)" cx="5.339" cy="38.36" rx="2.089" ry="2.939" fill="#fff"/>
</svg>
