<svg clip-rule="evenodd" fill-rule="evenodd" stroke-linejoin="round" stroke-miterlimit="2" viewBox="0 0 48 48" xmlns="http://www.w3.org/2000/svg">
 <g fill-rule="nonzero">
  <path d="m1.821 28.857c2.27 10.395 11.539 17.879 22.179 17.907 2.348-.011 4.68-.385 6.914-1.109l-29.093-16.798z" fill="#fd9b53"/>
  <path d="m1.649 19.927c-.259 1.343-.398 2.706-.413 4.073.02 1.635.216 3.264.585 4.857l29.093 16.798c2.864-.909 5.521-2.377 7.816-4.317z" fill="#f44d51"/>
  <path d="m4.33 12.645c-1.303 2.256-2.21 4.719-2.681 7.282l37.081 21.411c1.977-1.697 3.647-3.721 4.94-5.983z" fill="#d02e76"/>
  <path d="m9.27 6.662c-1.977 1.697-3.647 3.721-4.94 5.983l39.34 22.71c1.303-2.256 2.21-4.719 2.681-7.282z" fill="#2b85ba"/>
  <path d="m17.086 2.345c-2.864.909-5.521 2.377-7.816 4.317l37.081 21.411c.259-1.343.398-2.706.413-4.073-.002-1.621-.177-3.238-.522-4.822l-29.156-16.833z" fill="#0cacb8"/>
  <path d="m24 1.236c-2.348.011-4.68.385-6.914 1.109l29.156 16.833c-2.261-10.431-11.569-17.939-22.242-17.942z" fill="#19e0c4"/>
  <path d="m21.405 11.167c1.06-.906 2.622-.992 3.918-.614 1.318.435 2.108 1.671 2.595 2.883 2.665 6.586 5.437 13.129 8.119 19.707.369.974.773 2.144.189 3.116-.606 1.09-1.983 1.646-3.193 1.294-.696-.193-1.225-.753-1.533-1.379-.815-1.655-1.401-3.407-2.082-5.118-.946-2.343-1.74-4.739-2.635-7.1-.955-2.579-1.941-5.147-2.872-7.734-.095.151-.192.302-.261.465-2.079 5.641-4.176 11.277-6.286 16.906-.423 1.04-.719 2.138-1.275 3.12-.371.675-1.179.963-1.925.937-1.087.027-2.115-.688-2.535-1.661-.323-.827-.065-1.729.239-2.519 2.652-6.619 5.333-13.227 7.983-19.845.381-.889.785-1.823 1.554-2.458z" fill="#ffffff"/>
 </g>
</svg>
