<svg clip-rule="evenodd" fill-rule="evenodd" stroke-linejoin="round" stroke-miterlimit="2" viewBox="0 0 48 48" xmlns="http://www.w3.org/2000/svg">
 <linearGradient id="a" x2="1" gradientTransform="matrix(0 -43.9021 43.9021 0 23.061 45.6922)" gradientUnits="userSpaceOnUse">
  <stop stop-color="#053395" offset="0"/>
  <stop stop-color="#5d91ff" offset="1"/>
 </linearGradient>
 <circle cx="24" cy="24" r="22.764" fill="url(#a)"/>
 <path d="m39.565 22.261c-.05-.441-.563-.771-1.007-.771-1.436 0-2.709-.843-3.244-2.147-.545-1.335-.193-2.892.876-3.873.337-.308.378-.823.096-1.181-.735-.933-1.57-1.776-2.482-2.506-.357-.286-.881-.247-1.19.096-.934 1.034-2.611 1.418-3.907.878-1.348-.568-2.199-1.934-2.115-3.401.027-.461-.31-.861-.769-.915-1.17-.135-2.35-.139-3.524-.009-.454.05-.791.441-.775.896.051 1.453-.81 2.795-2.145 3.342-1.28.523-2.946.142-3.877-.883-.308-.337-.824-.379-1.182-.099-.939.736-1.793 1.58-2.534 2.505-.289.36-.247.881.093 1.19 1.09.988 1.442 2.558.876 3.909-.541 1.287-1.878 2.117-3.408 2.117-.497-.016-.851.317-.905.769-.138 1.176-.139 2.375-.007 3.562.05.442.579.77 1.028.77 1.363-.035 2.673.81 3.222 2.146.548 1.335.196 2.891-.876 3.873-.335.308-.377.823-.095 1.181.728.927 1.563 1.77 2.478 2.507.359.289.881.248 1.192-.095.937-1.036 2.614-1.42 3.905-.878 1.352.565 2.202 1.932 2.119 3.399-.027.461.311.863.769.915.598.07 1.2.105 1.804.105.573 0 1.146-.031 1.72-.095.454-.05.79-.441.775-.897-.053-1.452.81-2.794 2.143-3.34 1.289-.527 2.947-.142 3.879.882.31.337.821.378 1.182.099.937-.735 1.789-1.577 2.534-2.505.289-.359.248-.881-.093-1.191-1.091-.987-1.444-2.558-.878-3.907.532-1.27 1.82-2.123 3.204-2.123l.194.005c.449.036.862-.31.917-.768.138-1.178.139-2.376.007-3.562z" fill="#fff" fill-opacity=".84"/>
 <path d="m22.868 22.885v-2.543c0-2.649 2.147-4.796 4.796-4.796.402 0 .687.045 1.059.142.542.143.985.587.986 1.104 0 .625-.454 1.08-1.132 1.08-.324 0-.44-.062-.913-.062-1.397 0-2.529 1.131-2.532 2.528v2.188c0 .198.16.357.357.357h1.664c.619 0 1.12.496 1.12 1.117 0 .622-.501 1.117-1.12 1.117h-2.021v2.554c0 2.648-2.147 4.795-4.795 4.795-.402 0-.688-.045-1.06-.142-.542-.143-.985-.587-.986-1.104 0-.625.454-1.08 1.133-1.08.322 0 .44.062.912.062 1.397 0 2.53-1.131 2.532-2.527v-2.2c0-.197-.16-.357-.358-.357h-1.663c-.619 0-1.12-.494-1.12-1.116 0-.625.506-1.117 1.132-1.117z" fill="#507ddb" fill-rule="nonzero"/>
</svg>
