<svg clip-rule="evenodd" fill-rule="evenodd" stroke-linejoin="round" stroke-miterlimit="2" viewBox="0 0 48 48" xmlns="http://www.w3.org/2000/svg">
 <linearGradient id="a" x2="1" gradientTransform="matrix(0 -43.3373 43.3373 0 302.963 45.6687)" gradientUnits="userSpaceOnUse">
  <stop stop-color="#8b3ffc" offset="0"/>
  <stop stop-color="#eb60ff" offset="1"/>
 </linearGradient>
 <path d="m45.668 8.56c0-3.438-2.79-6.228-6.228-6.228h-30.88c-3.438 0-6.228 2.79-6.228 6.228v30.88c0 3.438 2.79 6.228 6.228 6.228h30.88c3.438 0 6.228-2.79 6.228-6.228z" fill="url(#a)"/>
 <path d="m24.318 33.905c-.053.058-.108.118-.168.174-.208.196-.458.364-.8.435 0 0-1.068 1.88-1.068 1.88.019.148.03.299.03.452 0 1.898-1.51 3.423-3.382 3.423-1.871 0-3.381-1.525-3.381-3.423s1.51-3.423 3.381-3.423c.638 0 1.231.18 1.738.492 0 0 1.838-3.198 1.838-3.198l-3.829-6.737c-.341-.598-.44-.969-.423-1.28.013-.224.08-.43.208-.661.123-.224.318-.49.554-.905l.489-.858 4.502 7.831 4.501-7.831.489.858c.236.415.431.681.554.905.128.231.195.437.208.661.017.311-.082.682-.423 1.279l-3.829 6.738 1.835 3.192c.505-.307 1.094-.486 1.728-.486 1.871 0 3.381 1.525 3.381 3.423s-1.51 3.423-3.381 3.423c-1.872 0-3.382-1.525-3.382-3.423 0-.161.011-.319.032-.473zm4.752 1.791c-.625 0-1.125.515-1.125 1.15s.5 1.149 1.125 1.149 1.125-.514 1.125-1.149-.5-1.15-1.125-1.15zm-10.14 0c-.625 0-1.125.515-1.125 1.15s.5 1.149 1.125 1.149 1.125-.514 1.125-1.149-.5-1.15-1.125-1.15z" fill="#fff"/>
 <path d="m39.44 2.332c3.438 0 6.228 2.79 6.228 6.228v4.304h-43.336v-4.304c0-3.438 2.79-6.228 6.228-6.228z" fill="#393939"/>
 <path d="m26.759 12.343h6.64l5.19-4.587-5.19-5.074h-6.64l4.704 5.074zm-17.291 0h6.64l5.189-4.587-5.189-5.074h-6.64l4.704 5.074z" fill="#fff" fill-opacity=".95"/>
</svg>
