<svg clip-rule="evenodd" fill-rule="evenodd" stroke-linejoin="round" stroke-miterlimit="2" viewBox="0 0 48 48" xmlns="http://www.w3.org/2000/svg">
 <linearGradient id="a" x2="1" gradientTransform="matrix(0 -39.8144 39.8144 0 24 43.9887)" gradientUnits="userSpaceOnUse">
  <stop stop-color="#222" offset="0"/>
  <stop stop-color="#4f4f4f" offset="1"/>
 </linearGradient>
 <g transform="matrix(1.0964 0 0 1.0964 -2.31369 -2.31369)" fill-rule="nonzero">
  <path d="m16.725 4.006c-1.594.065-3.196.688-4.338 2.24l-5.463 7.432c-1.301 1.765-1.132 4.356-.089 5.892.736 1.084 1.878 1.697 3.115 2.053v8.025c0 3.84 3.087 6.352 6.556 6.352h.937c1.418 0 2.72-.508 3.834-1.27l5.162 7.024c1.142 1.552 2.744 2.175 4.338 2.24h.002c1.768.073 3.567-.517 4.834-2.24l5.464-7.432.002-.004c1.298-1.764 1.129-4.353.086-5.888-.736-1.084-1.877-1.697-3.115-2.053v-8.025c0-3.84-3.087-6.352-6.556-6.352h-.937c-1.418 0-2.72.508-3.834 1.27l-5.162-7.024c-1.267-1.723-3.066-2.313-4.834-2.24z" fill="url(#a)"/>
  <path d="m16.918 8.002c-.525.021-1 .251-1.263.609l-5.444 7.434c-.599.816.149 1.956 1.345 1.955h2.445v11.648c0 1.303 1.24 2.352 2.532 2.352h.934c1.292 0 2.554-1.049 2.532-2.352v-11.648h2.445c1.196.001 1.944-1.139 1.345-1.955l-5.444-7.434c-.293-.398-.844-.634-1.427-.609z" fill="#ffd42b"/>
  <path d="m30.533 16c-1.292 0-2.554 1.049-2.532 2.352v11.648h-2.445c-1.196-.001-1.944 1.139-1.345 1.955l5.444 7.434c.263.358.738.588 1.263.609.583.025 1.134-.211 1.427-.609l5.444-7.434c.599-.816-.149-1.956-1.345-1.955h-2.445v-11.648c0-1.303-1.24-2.352-2.532-2.352z" fill="#71d716"/>
 </g>
</svg>
