<svg clip-rule="evenodd" fill-rule="evenodd" stroke-linejoin="round" stroke-miterlimit="2" viewBox="0 0 48 48" xmlns="http://www.w3.org/2000/svg">
 <g fill-rule="nonzero">
  <path d="m10.809 40c1.716 2.395 3.606 4 5.191 4 4 0 5.251-2 8-2s4 2 8 2c1.584 0 3.461-1.603 5.164-4z" fill="#009bda"/>
  <path d="m7.664 34c.852 2.238 1.939 4.316 3.145 6h26.355c1.199-1.688 2.312-3.759 3.164-6z" fill="#953c96"/>
  <path d="m6.129 28c.226 2.005.793 4.047 1.535 6h32.664c.021-.056.046-.108.066-.164-2.985-.615-5.37-2.885-6.132-5.836h-28.133z" fill="#de393d"/>
  <path d="m6.395 22c-.257 1.199-.395 2.531-.395 4 0 .655.053 1.325.129 2h28.133c-.172-.653-.26-1.325-.262-2 .004-1.405.379-2.785 1.086-4z" fill="#f4811e"/>
  <path d="m8.004 18c-.725 1.106-1.273 2.435-1.609 4h28.691c1.072-1.851 2.843-3.197 4.914-3.734v-.227c-.009-.013-.019-.026-.027-.039z" fill="#fbb625"/>
  <path d="m32 4s-6 0-8 4-2 6-2 6 6 0 8-4 2-6 2-6zm-16 10c-3.46 0-6.25 1.339-7.996 4h31.969c-1.747-2.651-4.519-4-7.973-4-4 0-4 2-8 2s-4-2-8-2z" fill="#60ba45"/>
 </g>
</svg>
