<svg width="48" height="48" xmlns="http://www.w3.org/2000/svg">
 <linearGradient id="a" x1="400.95444" x2="400.95444" y1="545.22272" y2="517.22266" gradientUnits="userSpaceOnUse">
  <stop stop-color="#333538" offset="0"/>
  <stop stop-color="#566069" offset="1"/>
 </linearGradient>
 <linearGradient id="b" x1="400.39636" x2="400.39636" y1="545.61945" y2="517.61945" gradientUnits="userSpaceOnUse">
  <stop stop-color="#d3d3d3" offset="0"/>
  <stop stop-color="#fcf9f9" offset="1"/>
 </linearGradient>
 <linearGradient id="c" x1="404.71429" x2="404.71429" y1="546.29791" y2="517.29797" gradientUnits="userSpaceOnUse">
  <stop stop-color="#00cafe" offset="0"/>
  <stop stop-color="#1460f3" offset="1"/>
 </linearGradient>
 <linearGradient id="d" x1="400.39636" x2="400.39636" y1="545.61945" y2="517.61945" gradientUnits="userSpaceOnUse">
  <stop stop-color="#e3e3e3" offset="0"/>
  <stop stop-color="#fcf9f9" offset="1"/>
 </linearGradient>
 <linearGradient id="e" x1="401.20834" x2="401.20834" y1="545.81091" y2="518.42188" gradientUnits="userSpaceOnUse">
  <stop stop-color="#ec396c" offset="0"/>
  <stop stop-color="#ff709a" offset="1"/>
 </linearGradient>
 <g transform="matrix(1.5699703 0 0 1.5699703 -605.09752 -810.97788)" fill="url(#a)">
  <g transform="translate(.135243 .045175)" stroke-width="1.3">
   <circle cx="400.57138" cy="531.79791" r="13.999958" fill="url(#e)" stroke="url(#e)" stroke-width="1.3"/>
   <circle cx="400.57144" cy="531.79797" r="0" fill="url(#d)" stroke="url(#c)" stroke-width="1"/>
   <circle cx="400.57138" cy="531.79791" r="0" fill="url(#b)"/>
  </g>
  <path transform="matrix(.04522287 0 0 .04522287 391.27483 523.6852)" d="m333.227 39.545-54.916 83.015-56.76-83.015zm-63.641 102h-121.829l60.908 231.669zm-117.763-13.6h113.688l-56.847-83.15zm-12.79-5.385 56.753-83.015h-111.67zm56.725 255.02-62.057-236.035h-133.701zm-195.568-249.635h126.1l-54.931-83.035zm345.699-82.885-54.836 82.885h125.883zm-62.248 96.485-62.063 236.015 195.547-236.015z" fill="#fff" fill-opacity=".846774"/>
 </g>
</svg>
