<svg clip-rule="evenodd" fill-rule="evenodd" stroke-linejoin="round" stroke-miterlimit="2" viewBox="0 0 48 48" xmlns="http://www.w3.org/2000/svg">
 <linearGradient id="a" x2="1" gradientTransform="matrix(.378913 -40 40 .378913 23.6211 44)" gradientUnits="userSpaceOnUse">
  <stop stop-color="#cec7c7" offset="0"/>
  <stop stop-color="#fff" offset="1"/>
 </linearGradient>
 <g transform="matrix(1.1382 0 0 1.1382 -3.3168 -3.3168)">
  <circle cx="24" cy="24" r="20" fill="url(#a)"/>
  <path d="m24 8c.211 0 .42.012.631.02-.209-.013-.419-.02-.631-.02zm.631.02c5.534.326 9.922 4.917 9.922 10.533 0 4.224-2.576 8.837-7.389 8.447-4.043-.411-4.936-2.091-5.164-4.155-.22-1.993 1.329-3.9 4.445-3.903 2.018-.003 3.913 1.012 3.448 2.672 2.888-2.922-2.014-7.527-6.821-7.614-1.887-.034-3.758.694-5.139 2.393 1.137-.794 2.049-1.077 3.186-1.111-.581.275-1.401.625-1.904 1.38.919-.57 1.94-.803 3.174-.679-3.553.752-6.05 5.18-5.723 10.154-1.985-1.918-3.219-4.607-3.219-7.584 0-5.646 4.434-10.256 10.01-10.539-1.818.061-3.626.428-5.319 1.096-2.606 1.026-4.879 2.718-6.608 4.865-.023 2.116.25 4.381.821 6.795-.882-1.897-1.523-3.793-1.635-5.69-1.042 1.548-1.818 3.286-2.27 5.155.613 1.686 1.486 3.113 2.539 4.357-.94-.59-1.88-1.55-2.822-2.879-.236 1.644-.216 3.315.059 4.953 1.15 1.158 2.298 1.9 3.447 2.522-.934.068-1.938-.148-3.016-.647 1.642 5.554 6.289 9.854 11.905 11.086.944-.991 1.338-2.128 2.172-3.576.047.896-.424 2.289-1.078 3.777 1.554.229 3.142.228 4.696 0-.654-1.488-1.125-2.881-1.078-3.777.834 1.448 1.228 2.584 2.172 3.576 5.619-1.237 10.263-5.529 11.905-11.086-1.078.499-2.082.715-3.016.647 1.149-.622 2.297-1.364 3.447-2.522.275-1.638.295-3.309.059-4.953-.942 1.329-1.881 2.289-2.822 2.879 1.055-1.244 1.926-2.671 2.539-4.357-.45-1.869-1.227-3.608-2.27-5.157-.112 1.897-.753 3.795-1.635 5.692.571-2.414.844-4.679.821-6.795-2.116-2.627-5.047-4.573-8.407-5.453v-.002c-1.121-.293-2.274-.455-3.432-.5zm.525 7.717c1.245.468 2.378.131 1.844.861-.67-.201-1.273-.508-1.844-.861z" fill="#ff5e00" fill-rule="nonzero"/>
 </g>
</svg>
