<svg clip-rule="evenodd" fill-rule="evenodd" stroke-linejoin="round" stroke-miterlimit="2" viewBox="0 0 48 48" xmlns="http://www.w3.org/2000/svg">
 <linearGradient id="a" x2="1" gradientTransform="matrix(0 -42.7265 42.7265 0 24 45.3633)" gradientUnits="userSpaceOnUse">
  <stop stop-color="#0142d7" offset="0"/>
  <stop stop-color="#248afd" offset="1"/>
 </linearGradient>
 <g fill-rule="nonzero">
  <path d="m8.929 2.637c-1.119 0-2.02.9-2.02 2.019v38.688c0 1.119.901 2.019 2.02 2.019h21.286c6.025 0 10.876-4.85 10.876-10.875v-1.137c0-3.986-2.16-7.457-5.341-9.351 3.181-1.894 5.341-5.365 5.341-9.351v-1.137c0-6.025-4.851-10.875-10.876-10.875z" fill="url(#a)"/>
  <path d="m13.318 12.25v23.5h8.546v-5.341h6.409v-6.409h-6.409v-4.273h8.545l1.068-7.477z" fill="#ffffff"/>
  <path d="m13.318 12.25v23.5h3.205v-20.295h14.497l.457-3.205z" fill="#50beee"/>
 </g>
</svg>
