<svg clip-rule="evenodd" fill-rule="evenodd" stroke-linejoin="round" stroke-miterlimit="1.41421" viewBox="0 0 64 64" xmlns="http://www.w3.org/2000/svg">
 <linearGradient id="a" x2="1" gradientTransform="matrix(-56.9831 -12.4145 -12.4145 56.9831 -5.70602 -26.6024)" gradientUnits="userSpaceOnUse">
  <stop stop-color="#e02036" offset="0"/>
  <stop stop-color="#8b1120" offset="1"/>
 </linearGradient>
 <path transform="matrix(0 -1 -1 0 0 0)" d="m-4.002-32.001c0-15.453-12.546-27.999-27.999-27.999s-27.999 12.546-27.999 27.999 12.546 27.999 27.999 27.999 27.999-12.546 27.999-27.999z" fill="url(#a)"/>
 <path d="m32 4.002c-15.512 0-28 12.486-28 27.998 0 .113.011.224.018.336.351-15.201 12.693-27.336 27.982-27.336s27.631 12.135 27.982 27.336c.007-.112.018-.223.018-.336 0-15.512-12.488-27.998-28-27.998z" fill="#fff" fill-opacity=".1" fill-rule="nonzero"/>
 <g opacity=".2" stroke-width="1.99994">
  <circle cx="19.99971" cy="25.00048" r="2.99991"/>
  <circle cx="27.99947" cy="25.00048" r="2.99991"/>
  <circle cx="35.99923" cy="25.00048" r="2.99991"/>
  <circle cx="43.99899" cy="25.00048" r="2.99991"/>
  <circle cx="11.99995" cy="33.00024" r="2.99991"/>
  <circle cx="19.99971" cy="33.00024" r="2.99991"/>
  <circle cx="27.99947" cy="33.00024" r="2.99991"/>
  <circle cx="35.99923" cy="33.00024" r="2.99991"/>
  <circle cx="43.99899" cy="33.00024" r="2.99991"/>
  <circle cx="51.99875" cy="33.00024" r="2.99991"/>
  <circle cx="11.99995" cy="41" r="2.99991"/>
  <circle cx="19.99971" cy="41" r="2.99991"/>
  <circle cx="43.99899" cy="41" r="2.99991"/>
  <circle cx="51.99875" cy="41" r="2.99991"/>
 </g>
 <path d="m20.001 21.002c-1.646 0-3 1.354-3 3 1e-3 1.645 1.355 2.998 3 2.998s2.999-1.353 3-2.998c0-1.646-1.354-3-3-3zm8 0c-1.646 0-3 1.354-3 3 1e-3 1.645 1.355 2.998 3 2.998s2.999-1.353 3-2.998c0-1.646-1.354-3-3-3zm8 0c-1.646 0-3 1.354-3 3 1e-3 1.645 1.355 2.998 3 2.998s2.999-1.353 3-2.998c0-1.646-1.354-3-3-3zm7.998 0c-1.646 0-3 1.354-3 3 1e-3 1.645 1.355 2.998 3 2.998s2.999-1.353 3-2.998c0-1.646-1.354-3-3-3zm-31.998 7.998c-1.646 0-3 1.354-3 3s1.354 3 3 3 3-1.354 3-3-1.354-3-3-3zm8 0c-1.646 0-3 1.354-3 3s1.354 3 3 3 3-1.354 3-3-1.354-3-3-3zm8 0c-1.646 0-3 1.354-3 3s1.354 3 3 3 3-1.354 3-3-1.354-3-3-3zm8 0c-1.646 0-3 1.354-3 3s1.354 3 3 3 3-1.354 3-3-1.354-3-3-3zm7.998 0c-1.646 0-3 1.354-3 3s1.354 3 3 3 3-1.354 3-3-1.354-3-3-3zm8 0c-1.646 0-3 1.354-3 3s1.354 3 3 3 3-1.354 3-3-1.354-3-3-3zm-39.998 8c-1.646 0-3 1.354-3 3s1.354 3 3 3 3-1.354 3-3-1.354-3-3-3zm8 0c-1.646 0-3 1.354-3 3s1.354 3 3 3 3-1.354 3-3-1.354-3-3-3zm23.998 0c-1.646 0-3 1.354-3 3s1.354 3 3 3 3-1.354 3-3-1.354-3-3-3zm8 0c-1.646 0-3 1.354-3 3s1.354 3 3 3 3-1.354 3-3-1.354-3-3-3z" fill="#fff" fill-rule="nonzero"/>
</svg>
