<svg clip-rule="evenodd" fill-rule="evenodd" stroke-linejoin="round" stroke-miterlimit="2" viewBox="0 0 48 48" xmlns="http://www.w3.org/2000/svg">
 <linearGradient id="a" x2="1" gradientTransform="matrix(0 -40 40 0 23.9756 44)" gradientUnits="userSpaceOnUse">
  <stop stop-color="#1e1e1e" offset="0"/>
  <stop stop-color="#4f4f4f" offset="1"/>
 </linearGradient>
 <circle transform="matrix(1.1382 0 0 1.1382 -3.3168 -3.3168)" cx="24" cy="24" r="20" fill="url(#a)"/>
 <path d="m13.732 44.319c-7.411-3.756-12.496-11.448-12.496-20.319s5.085-16.563 12.496-20.319z" fill="#1f1f1f"/>
 <g transform="matrix(1.14088 0 0 1.14088 -3.38113 -3.38113)">
  <path d="m16.207 12c-.01 0-.019 0-.028 0-.647 0-1.179.534-1.179 1.184v21.633c.001.649.533 1.183 1.179 1.183.206 0 .409-.054.588-.158l9.321-5.407 9.322-5.408c.365-.212.59-.604.59-1.027 0-.422-.225-.814-.59-1.026l-9.322-5.407-9.321-5.408c-.171-.099-.363-.154-.56-.159z" fill="#ffa119" fill-rule="nonzero"/>
  <path d="m22 9v2c0 .552-.448 1-1 1h-2c-.552 0-1-.448-1-1v-2c0-.552.448-1 1-1h2c.552 0 1 .448 1 1zm0 14v2c0 .552-.448 1-1 1h-2c-.552 0-1-.448-1-1v-2c0-.552.448-1 1-1h2c.552 0 1 .448 1 1zm0 7v2c0 .552-.448 1-1 1h-2c-.552 0-1-.448-1-1v-2c0-.552.448-1 1-1h2c.552 0 1 .448 1 1zm0 7v2c0 .552-.448 1-1 1h-2c-.552 0-1-.448-1-1v-2c0-.552.448-1 1-1h2c.552 0 1 .448 1 1zm0-21v2c0 .552-.448 1-1 1h-2c-.552 0-1-.448-1-1v-2c0-.552.448-1 1-1h2c.552 0 1 .448 1 1z" fill="#171717"/>
 </g>
</svg>
