<svg clip-rule="evenodd" fill-rule="evenodd" stroke-linejoin="round" stroke-miterlimit="2" viewBox="0 0 48 48" xmlns="http://www.w3.org/2000/svg">
 <linearGradient id="a" x2="1" gradientTransform="matrix(-7.4614 -38.1693 38.1693 -7.4614 23.0058 43.2401)" gradientUnits="userSpaceOnUse">
  <stop stop-color="#1a76cb" offset="0"/>
  <stop stop-color="#218ef2" offset="1"/>
 </linearGradient>
 <linearGradient id="b" x2="1" gradientTransform="matrix(15.2148 -36.0291 36.0291 15.2148 25.8781 43.2401)" gradientUnits="userSpaceOnUse">
  <stop stop-color="#39c7b7" offset="0"/>
  <stop stop-color="#0dd8c1" offset="1"/>
 </linearGradient>
 <g fill-rule="nonzero">
  <path d="m6.14 5.071c5.427 1.565 26.007 28.425 17.85 38.929-13.588-.258-21.617-15.912-17.85-38.929z" fill="#5edd86"/>
  <path d="m34.308 4c-21.176 5.78-21.395 32.707-10.318 40 18.395-6.825 21.374-23.094 10.318-40z" fill="#077cc5"/>
  <path d="m15.096 4c21.176 5.78 19.97 32.707 8.894 40-9.432-1.096-15.813-11.462-15.932-20.352-.081-6.054 2.558-12.799 7.038-19.648z" fill="url(#a)"/>
  <path d="m41.913 5c-4.389-.556-24.888 15.646-17.923 39 12.518-.019 21.689-15.982 17.923-39z" fill="url(#b)"/>
 </g>
</svg>
