<svg clip-rule="evenodd" fill-rule="evenodd" stroke-linejoin="round" stroke-miterlimit="2" viewBox="0 0 48 48" xmlns="http://www.w3.org/2000/svg">
 <linearGradient id="a" x2="1" gradientTransform="matrix(0 -45.5286 45.5286 0 210.895 46.7643)" gradientUnits="userSpaceOnUse">
  <stop stop-color="#0a80fd" offset="0"/>
  <stop stop-color="#56c5fa" offset="1"/>
 </linearGradient>
 <circle cx="24" cy="24" r="22.764" fill="url(#a)"/>
 <g fill="#fff" fill-opacity=".84" fill-rule="nonzero">
  <path d="m25.953 16.81c-.285-2.828-2.766-5.257-5.402-5.257-2.692 0-5.167.932-7.138 2.479-.523-.016-1.12.042-1.744.191-1.757.42-3.036 1.373-2.856 2.128.12.501.854.783 1.84.799-1.062 1.75-1.685 3.794-1.685 5.986 0 4.244 2.303 7.945 5.717 9.959-.34.368-.653.884-.871 1.501-.486 1.37-.322 2.676.363 2.918s1.631-.672 2.117-2.042c.103-.295.172-.585.217-.864.269.089.558.164.867.208 1.438.207 2.688-.207 2.792-.926.103-.719-.977-1.471-2.417-1.678-.616-.089-1.192-.059-1.663.056-.022-.075-.868-1.614-.942-2.809-.095-1.554.368-3.089 1.376-4.275.395-.461.869-.832 1.375-1.148-.091 1.218.191 2.168.766 2.311.753.189 1.72-1.08 2.159-2.831.038-.15.065-.298.092-.446l.401-.07c2.843-.603 4.936-3.218 4.636-6.19z"/>
  <path d="m22.046 32.296c.285 2.828 2.766 5.257 5.402 5.257 2.692 0 5.167-.932 7.138-2.479.524.016 1.12-.042 1.745-.19 1.757-.42 3.036-1.374 2.856-2.129-.12-.501-.854-.783-1.84-.799 1.062-1.75 1.685-3.793 1.685-5.985 0-4.244-2.303-7.945-5.717-9.959.34-.368.654-.884.871-1.501.485-1.37.322-2.676-.363-2.918s-1.631.672-2.117 2.042c-.103.295-.172.585-.217.863-.269-.089-.558-.164-.867-.208-1.438-.207-2.688.207-2.792.926-.103.719.977 1.471 2.417 1.678.616.089 1.192.059 1.664-.056.022.075.868 1.614.942 2.809.095 1.554-.368 3.089-1.376 4.275-.395.462-.868.834-1.374 1.15.091-1.218-.19-2.168-.766-2.311-.753-.188-1.72 1.08-2.159 2.831-.037.15-.065.298-.092.446l-.401.07c-2.847.601-4.939 3.217-4.639 6.188z"/>
 </g>
</svg>
