<svg clip-rule="evenodd" fill-rule="evenodd" stroke-linejoin="round" stroke-miterlimit="2" viewBox="0 0 48 48" xmlns="http://www.w3.org/2000/svg">
 <linearGradient id="a" x2="1" gradientTransform="matrix(0 -42.2226 42.2226 0 200.76 44.3532)" gradientUnits="userSpaceOnUse">
  <stop stop-color="#e4e4e4" offset="0"/>
  <stop stop-color="#ffffff" offset="1"/>
 </linearGradient>
 <linearGradient id="b" x2="1" gradientTransform="matrix(-.257323 -43.2614 43.2614 -.257323 33.6993 45.6074)" gradientUnits="userSpaceOnUse">
  <stop stop-color="#7239c8" offset="0"/>
  <stop stop-color="#8c5ed3" offset="1"/>
 </linearGradient>
 <linearGradient id="c" x2="1" gradientTransform="matrix(0 -45.5289 45.5289 0 89.1817 46.1788)" gradientUnits="userSpaceOnUse">
  <stop stop-color="#cac9c9" offset="0"/>
  <stop stop-color="#f4f4f4" offset="1"/>
 </linearGradient>
 <path d="m25.457 45.618h-17.794c-3.013-.435-5.331-3.031-5.331-6.164v-30.88c0-3.438 2.79-6.228 6.228-6.228h16.896z" fill="url(#a)"/>
 <path d="m30.382 2.346h9.058c3.438 0 6.228 2.79 6.228 6.228v30.88c0 3.127-2.308 5.718-5.312 6.161l-9.974-.011v-43.258z" fill="url(#b)"/>
 <path d="m42.838 43.16c-.04 2.642-1.222 4.026-3.552 4.123l-16.083-1.668-.001-43.269 16.299-1.603c2.209-.223 3.46.991 3.477 3.366z" fill="url(#c)"/>
 <path d="m22.252 39.883h-16.062v-.796h16.062zm0-2.268h-16.062v-.824h16.062zm0-2.412h-16.062v-.796h16.062zm0-2.461h-16.062v-.796h16.062zm-9.072-3.861h-6.903v-.796h6.903zm3.485-2.461h-10.388v-.796h10.388zm-3.515-1.834h-6.82v-.796h6.82zm3.49-1.785h-10.419v-.824h10.419zm4.171-2.413h-14.59v-.796h14.59zm1.472-2.46h-16.062v-.796h16.062zm.056-3.758h-16.062v-.796h16.062zm0-2.268h-16.062v-.825h16.062zm0-2.413h-16.062v-.796h16.062zm0-2.46h-16.062v-.797h16.062z" fill="#b0b0b0"/>
</svg>
