<svg style="clip-rule:evenodd;fill-rule:evenodd;stroke-linejoin:round;stroke-miterlimit:2" viewBox="0 0 48 48" xmlns="http://www.w3.org/2000/svg">
 <circle cx="24" cy="24" r="22.764" style="fill:url(#_Linear1)"/>
 <path d="m19.634 12.695c1.996 0 3.517 1.045 4.366 2.343 0.849-1.298 2.37-2.343 4.366-2.343h8.888c0.642 0 1.17 0.528 1.17 1.169v3.567c0.318 0.095 0.702 0.346 0.702 1.001v15.207c0 0.921-0.746 1.667-1.667 1.667h-8.829c-3.052 0.1-2.544 2.295-4.279 2.221-1.735 0.074-1.227-2.121-4.279-2.221h-9.609c-0.92 0-1.667-0.746-1.667-1.667v-15.207c0-0.71 0.45-0.945 0.78-1.023v-3.545c0-0.641 0.528-1.169 1.17-1.169h8.888zm5.536 6.609v9.39c0 0.117-0.018 0.23-0.05 0.336l-0.012 0.038-0.01 0.027c-0.089 0.241-0.256 0.446-0.47 0.584l-0.02 0.013-4e-3 2e-3 -3e-3 1e-3 -0.021 0.013-0.022 0.013c-0.125 0.068-0.263 0.115-0.41 0.134l-0.029 3e-3c-0.029 3e-3 -0.059 5e-3 -0.089 6e-3h-0.03c-0.04 0-0.08-2e-3 -0.119-6e-3l-0.029-3e-3c-0.084-0.011-0.164-0.031-0.241-0.058-0.04-0.014-0.079-0.031-0.116-0.049l-0.026-0.013-9e-3 -4e-3c-0.072-0.039-0.14-0.084-0.202-0.135-0.029-0.024-0.057-0.049-0.084-0.076l-0.019-0.02c-6e-3 -7e-3 -0.013-0.013-0.019-0.02l-0.019-0.022c-0.012-0.014-0.025-0.028-0.035-0.043l-0.018-0.023c-0.013-0.017-0.025-0.035-0.038-0.053l-0.01-0.016-2e-3 -3e-3c-0.056-0.088-0.101-0.182-0.132-0.283l-7e-3 -0.024-6e-3 -0.02c-0.017-0.066-0.029-0.136-0.035-0.207-1e-3 -0.01-1e-3 -0.021-2e-3 -0.032l-2e-3 -0.029v-0.031-0.016-9.374c0-0.93-0.242-2.112-0.755-2.935-0.513-0.822-1.151-1.335-2.441-1.335h-7.719v17.149h8.493c1.749 0.01 2.783 1.348 3.943 2.19 1.16-0.842 2.194-2.18 3.943-2.19h7.791v-13.046-8e-3 -0.018-4.077h-7.719c-1.29 0-1.928 0.513-2.441 1.335s-0.755 2.005-0.755 2.935z" style="fill-rule:nonzero;fill:url(#_Linear2)"/>
 <defs>
  <linearGradient id="_Linear1" x2="1" gradientTransform="matrix(-.513487 -45.4284 45.4284 -.513487 128.745 45.5591)" gradientUnits="userSpaceOnUse">
   <stop style="stop-color:#002668" offset="0"/>
   <stop style="stop-color:#395a95" offset="1"/>
  </linearGradient>
  <linearGradient id="_Linear2" x2="1" gradientTransform="matrix(-.87595 -24.7682 24.7682 -.87595 445.546 22.6681)" gradientUnits="userSpaceOnUse">
   <stop style="stop-color:#cfe9f4" offset="0"/>
   <stop style="stop-color:#fff" offset="1"/>
  </linearGradient>
 </defs>
</svg>
