<svg clip-rule="evenodd" fill-rule="evenodd" stroke-linejoin="round" stroke-miterlimit="1.41421" viewBox="0 0 48 48" xmlns="http://www.w3.org/2000/svg">
 <circle cx="24" cy="24" r="22.155" fill="#fff"/>
 <path d="m47.142 23.452c-.002-.058-.004-.115-.005-.172-.005-.127-.009-.253-.015-.379-.003-.065-.007-.13-.01-.195-.007-.122-.014-.244-.023-.365-.004-.062-.009-.123-.013-.184-.012-.146-.025-.292-.039-.438-.003-.033-.006-.067-.009-.1-.018-.178-.039-.355-.061-.531l-.021-.156c-.017-.126-.034-.251-.053-.376-.009-.065-.019-.129-.029-.193-.018-.115-.037-.23-.057-.344-.011-.064-.022-.128-.034-.192-.023-.124-.047-.248-.072-.372-.009-.05-.019-.101-.029-.151-.035-.17-.072-.339-.111-.508-.01-.045-.022-.091-.032-.136-.03-.126-.06-.251-.092-.375-.016-.064-.033-.128-.05-.192-.028-.107-.057-.214-.087-.321-.018-.066-.037-.132-.056-.198-.031-.109-.064-.217-.097-.326-.018-.059-.035-.119-.054-.178-.05-.161-.102-.322-.156-.482-.012-.035-.025-.069-.037-.104-.044-.129-.089-.257-.135-.385-.023-.063-.047-.126-.071-.189-.037-.1-.074-.199-.113-.298-.026-.067-.052-.134-.079-.201-.039-.097-.078-.193-.118-.289-.027-.065-.054-.129-.081-.193-.049-.114-.099-.228-.149-.342-.02-.044-.039-.088-.059-.132-.067-.149-.137-.297-.207-.444-.03-.062-.06-.122-.09-.183-.045-.093-.091-.186-.138-.278-.034-.067-.068-.133-.102-.199-.045-.088-.092-.175-.138-.261-.035-.066-.07-.131-.105-.196-.052-.094-.104-.187-.157-.28-.031-.055-.062-.111-.094-.166-.081-.14-.163-.28-.247-.418-.034-.056-.069-.112-.103-.168-.055-.088-.11-.177-.166-.265-.041-.064-.081-.126-.122-.189-.053-.081-.105-.161-.159-.241-.042-.063-.084-.126-.127-.189-.056-.083-.114-.166-.172-.248-.04-.057-.079-.114-.119-.17-.093-.13-.188-.26-.284-.389-2.528-3.389-5.962-6.061-9.943-7.659-.001 0-.001 0-.001-.001-.158-.063-.318-.125-.478-.185-.011-.005-.023-.009-.034-.013-.152-.057-.305-.112-.458-.165-.02-.008-.041-.015-.062-.022-.146-.051-.293-.1-.44-.148-.029-.009-.057-.018-.086-.027-.141-.046-.283-.089-.425-.132-.036-.011-.072-.021-.108-.032-.136-.04-.273-.079-.411-.116-.043-.012-.086-.024-.129-.035-.131-.035-.264-.07-.396-.102-.05-.013-.1-.025-.15-.037-.128-.031-.255-.061-.383-.089-.057-.013-.113-.025-.17-.037-.123-.027-.246-.052-.37-.077-.063-.012-.126-.024-.19-.036-.118-.023-.236-.045-.355-.065-.07-.012-.141-.024-.211-.035-.113-.019-.227-.037-.341-.054-.077-.012-.155-.022-.232-.033-.108-.015-.217-.03-.325-.043-.085-.011-.17-.02-.255-.029-.103-.012-.205-.024-.309-.034-.093-.01-.186-.017-.28-.025-.096-.009-.192-.017-.288-.025-.104-.008-.209-.013-.314-.019-.086-.006-.173-.012-.26-.016-.122-.006-.245-.01-.368-.014-.07-.002-.14-.006-.211-.008-.194-.005-.388-.008-.583-.008s-.389.003-.583.008c-.071.002-.141.005-.211.008-.123.004-.246.008-.368.014-.087.004-.174.01-.26.016-.105.007-.21.012-.314.019-.096.007-.192.017-.289.025-.093.008-.186.015-.279.025-.104.01-.207.022-.31.034-.084.009-.169.018-.253.029-.109.013-.218.028-.327.043-.077.011-.154.021-.231.033-.114.017-.228.035-.342.054-.069.011-.139.022-.209.034-.12.021-.238.043-.357.066-.063.012-.126.023-.189.036-.124.025-.247.05-.371.077l-.168.036c-.128.029-.257.059-.385.09l-.147.036c-.134.033-.267.068-.4.103-.042.011-.084.023-.126.034-.138.038-.276.077-.414.117-.034.01-.069.021-.104.031-.143.043-.286.087-.429.133-.027.009-.054.018-.081.026-.149.049-.297.098-.445.149-.019.007-.038.014-.056.02-.156.054-.31.11-.463.168-.01.004-.019.007-.028.01-4.192 1.575-7.806 4.329-10.436 7.86-.093.124-.184.248-.273.374-.042.059-.084.119-.126.179-.055.079-.111.159-.165.239-.044.064-.088.129-.131.194-.052.078-.103.156-.154.234-.042.065-.084.13-.126.195-.054.085-.107.171-.16.256-.036.059-.073.118-.109.177-.083.137-.165.276-.245.415-.033.057-.065.115-.097.172-.052.091-.103.182-.154.274-.036.066-.071.133-.107.199-.046.085-.091.171-.136.258-.035.066-.069.134-.103.201-.046.091-.092.183-.137.274-.03.063-.061.124-.091.187-.069.145-.138.291-.204.437-.021.047-.042.094-.062.141-.051.113-.1.226-.149.339-.027.065-.054.129-.08.194-.04.095-.08.191-.118.288-.027.067-.054.134-.08.202-.038.098-.076.197-.113.297-.023.063-.047.126-.07.19-.047.127-.091.255-.136.384-.012.035-.024.069-.036.104-.054.16-.106.321-.157.483l-.054.177c-.033.109-.065.217-.097.326-.019.066-.038.132-.056.199-.03.106-.058.213-.087.32-.016.064-.033.128-.049.192-.032.125-.063.25-.092.376l-.033.135c-.038.169-.075.339-.11.509-.011.049-.02.1-.03.149-.025.125-.049.249-.071.374-.012.063-.023.127-.034.191-.02.115-.039.229-.057.344-.01.065-.02.128-.03.193-.019.125-.036.251-.053.377-.007.052-.014.103-.021.155-.022.176-.042.353-.06.531-.004.034-.006.067-.01.101-.014.145-.027.291-.038.438-.006.061-.009.122-.014.183-.008.122-.016.244-.023.366-.003.065-.007.13-.01.195-.006.126-.01.252-.014.378-.002.058-.005.115-.005.172-.005.182-.007.365-.007.548 0 .165.002.328.006.491.001.074.003.147.006.221.002.063.004.125.007.188.159 4.16 1.415 8.038 3.488 11.353 0 .001 0 .001.001.001.392.629.814 1.236 1.264 1.822.002.003.005.007.008.01.444.579.916 1.136 1.412 1.671.012.012.023.024.035.037.094.101.189.201.285.3.005.005.008.009.012.013.299.308.606.608.921.899.01.01.02.019.03.028.094.086.188.171.283.255.026.024.052.047.078.07.093.082.186.163.28.243.021.019.043.037.065.056.3.254.606.501.919.74.031.024.062.048.094.072.089.067.179.134.269.2.043.032.085.063.128.094.089.064.177.127.266.19.042.03.085.058.127.088.297.205.599.404.905.596.052.032.103.065.155.097.085.052.171.104.257.155.058.035.116.069.174.103.085.049.169.098.254.147.061.034.121.067.182.101.296.165.597.324.901.476.067.034.134.067.201.1.084.041.168.081.251.12.069.033.138.065.208.097.084.039.167.077.252.115.071.032.142.062.214.093.083.037.167.073.251.109 2.757 1.158 5.784 1.799 8.961 1.799 3.135 0 6.123-.624 8.849-1.753h.001c.14-.058.279-.118.418-.179.014-.006.029-.012.043-.018.135-.06.271-.121.405-.183.012-.006.023-.011.035-.016.708-.33 1.396-.693 2.063-1.09.014-.009.028-.016.042-.025.119-.071.238-.144.356-.217.024-.015.049-.031.073-.046.115-.072.229-.144.342-.218.023-.015.046-.031.07-.046.116-.077.232-.154.347-.232.005-.003.009-.007.014-.01.373-.255.737-.521 1.094-.797.018-.014.037-.028.056-.042.096-.075.191-.151.286-.227.038-.031.077-.062.115-.093.088-.072.175-.144.262-.217l.132-.111c.083-.072.166-.143.249-.215l.135-.12c.081-.073.162-.145.242-.218.042-.038.084-.078.125-.116.173-.161.343-.323.51-.489.024-.022.047-.045.071-.068.067-.067.132-.134.198-.202l.165-.168c.062-.065.123-.13.184-.196.058-.061.115-.122.172-.184.058-.063.116-.128.174-.192.059-.066.118-.132.176-.198.055-.062.109-.125.163-.187.062-.073.124-.146.185-.219.049-.059.098-.117.146-.175.077-.094.153-.189.229-.283.031-.04.063-.079.094-.119.104-.132.207-.266.308-.401.037-.049.073-.099.11-.149.066-.09.133-.181.198-.272.041-.056.08-.113.12-.17.061-.086.121-.173.181-.261.039-.058.079-.116.118-.175.059-.089.118-.178.177-.268.036-.057.073-.113.109-.17.063-.098.124-.198.186-.297.03-.049.06-.097.09-.146.088-.146.176-.294.261-.442.002-.003.003-.005.004-.008h.001c1.81-3.149 2.9-6.765 3.047-10.622.003-.063.005-.126.007-.189.003-.073.005-.147.006-.22.004-.163.006-.327.006-.491 0-.184-.002-.367-.007-.549l-.001.001zm-22.198-15.363 5.841-4.243c.502.169.998.357 1.489.565 2.531 1.07 4.805 2.604 6.758 4.557 1.066 1.065 2.005 2.227 2.814 3.473l-2.038 6.437-6.076 1.995-8.788-6.384zm-15.978.879c1.953-1.953 4.227-3.487 6.758-4.557.491-.208.987-.396 1.489-.565l5.841 4.243v6.4l-8.834 6.418-6.02-1.998-2.048-6.468c.809-1.246 1.748-2.408 2.814-3.473zm3.716 28.605-5.767-.914c-1.005-1.353-1.844-2.819-2.506-4.384-1.084-2.562-1.643-5.281-1.667-8.085l4.872-3.485 6.023 2 3.412 10.5zm20.518 5.6c-.305.146-.613.285-.926.418-2.62 1.108-5.404 1.67-8.275 1.67s-5.655-.562-8.275-1.67c-.351-.149-.698-.308-1.04-.474l-.666-4.208 4.709-4.71h11.205l4.048 4.048zm10.389-10.898c-.542 1.282-1.203 2.497-1.977 3.639l-6.296.997-4.204-4.205 3.268-10.057 5.978-1.963 4.899 3.504c-.024 2.804-.584 5.523-1.668 8.085z" fill="#383838" fill-rule="nonzero"/>
</svg>
