<svg clip-rule="evenodd" fill-rule="evenodd" stroke-linejoin="round" stroke-miterlimit="2" viewBox="0 0 48 48" xmlns="http://www.w3.org/2000/svg">
 <linearGradient id="a" x2="1" gradientTransform="matrix(0 -30 37 0 24 38)" gradientUnits="userSpaceOnUse">
  <stop stop-color="#313131" offset="0"/>
  <stop stop-color="#3f3f3f" offset="1"/>
 </linearGradient>
 <path transform="matrix(1.09035 0 0 1.34477 -2.16843 -6.38445)" d="m36.519 7.61.481 2.045v24.288l-1.187 4.339h-23.594l-1.219-4.336v-24.324l.608-2.012z" fill="url(#a)"/>
 <path transform="matrix(1.09035 0 0 1.09035 -2.16843 -2.16843)" d="m13 4h22c1.108 0 2 .892 2 2v2h-26v-2c0-1.108.892-2 2-2zm14 2.459c0-.254-.205-.459-.459-.459h-5.082c-.254 0-.459.205-.459.459v.082c0 .254.205.459.459.459h5.082c.254 0 .459-.205.459-.459zm1.5-.459c-.276 0-.5.224-.5.5s.224.5.5.5.5-.224.5-.5-.224-.5-.5-.5zm-17.5 32h26v4c0 1.108-.892 2-2 2h-22c-1.108 0-2-.892-2-2zm15 1.917c0-.506-.411-.917-.917-.917h-2.166c-.506 0-.917.411-.917.917v2.166c0 .506.411.917.917.917h2.166c.506 0 .917-.411.917-.917zm7 1c0-.506-.411-.917-.917-.917h-2.166c-.506 0-.917.411-.917.917v.166c0 .506.411.917.917.917h2.166c.506 0 .917-.411.917-.917zm-14 0c0-.506-.411-.917-.917-.917h-2.166c-.506 0-.917.411-.917.917v.166c0 .506.411.917.917.917h2.166c.506 0 .917-.411.917-.917z" fill="#e4e4e4"/>
</svg>
