<svg clip-rule="evenodd" fill-rule="evenodd" stroke-linejoin="round" stroke-miterlimit="2" viewBox="0 0 48 48" xmlns="http://www.w3.org/2000/svg">
 <linearGradient id="a" x2="1" gradientTransform="matrix(-.00109739 -43.1476 43.1476 -.00109739 228.379 45.3582)" gradientUnits="userSpaceOnUse">
  <stop stop-color="#d9dfdf" offset="0"/>
  <stop stop-color="#ffffff" offset="1"/>
 </linearGradient>
 <linearGradient id="b" x2="1" gradientTransform="matrix(0 -45.6498 73.2786 0 185.468 46.2879)" gradientUnits="userSpaceOnUse">
  <stop stop-color="#197cf1" offset="0"/>
  <stop stop-color="#20bcfa" offset="1"/>
 </linearGradient>
 <linearGradient id="c" x2="1" gradientTransform="matrix(0 -14.5909 14.5909 0 323.689 33.1602)" gradientUnits="userSpaceOnUse">
  <stop stop-color="#166cd2" offset="0"/>
  <stop stop-color="#1ca7de" offset="1"/>
 </linearGradient>
 <path d="m35.071 2.164h4.369c3.438 0 6.228 2.79 6.228 6.228v30.88c0 3.438-2.79 6.228-6.228 6.228h-9.129v-43.319l4.76-.017z" fill="url(#a)"/>
 <path d="m24 2.332 15.714-1.556c2.209-.225 3.174.967 3.191 3.355l-.068 39.119c-.04 2.656-1.222 4.047-3.552 4.145l-15.105-1.867-15.62-.028c-3.388-.018-6.252-2.672-6.228-6.228 0 0-.072 1.829-.072-30.736 0-3.41 2.818-6.228 6.228-6.228z" fill="url(#b)"/>
 <path d="m42.837 43.25c-.04 2.656-1.222 4.047-3.552 4.145l-15.285-1.888v-43.175l15.714-1.556c2.209-.225 3.174.967 3.191 3.355z" fill-opacity=".15"/>
 <path d="m34.184 20.754c0-.892-.355-1.748-.986-2.379s-1.487-.985-2.379-.985h-15.232c-.892 0-1.748.354-2.379.985s-.986 1.487-.986 2.379v8.397c0 .893.355 1.749.986 2.38s1.487.985 2.379.985h15.232c.892 0 1.748-.354 2.379-.985s.986-1.487.986-2.38z" fill="#ebebeb"/>
 <path d="m19.87 21.517c0-.241.124-.464.329-.591.205-.126.461-.138.676-.03 1.678.839 5.047 2.523 6.871 3.436.236.117.384.358.384.621s-.148.503-.384.621c-1.824.912-5.193 2.597-6.871 3.436-.215.108-.471.096-.676-.031-.205-.126-.329-.35-.329-.59z" fill="url(#c)" fill-rule="nonzero"/>
</svg>
