<svg clip-rule="evenodd" fill-rule="evenodd" stroke-linejoin="round" stroke-miterlimit="2" viewBox="0 0 48 48" xmlns="http://www.w3.org/2000/svg">
 <linearGradient id="a" x2="1" gradientTransform="matrix(-.00109739 -43.1476 43.1476 -.00109739 228.379 45.3582)" gradientUnits="userSpaceOnUse">
  <stop stop-color="#d9dfdf" offset="0"/>
  <stop stop-color="#ffffff" offset="1"/>
 </linearGradient>
 <linearGradient id="b" x2="1" gradientTransform="matrix(0 -45.6498 73.2786 0 185.468 46.2879)" gradientUnits="userSpaceOnUse">
  <stop stop-color="#ba354a" offset="0"/>
  <stop stop-color="#ff698e" offset="1"/>
 </linearGradient>
 <path d="m35.071 2.164h4.369c3.438 0 6.228 2.79 6.228 6.228v30.88c0 3.438-2.79 6.228-6.228 6.228h-9.129v-43.319l4.76-.017z" fill="url(#a)"/>
 <path d="m24 2.332 15.714-1.556c2.209-.225 3.174.967 3.191 3.355l-.068 39.119c-.04 2.656-1.222 4.047-3.552 4.145l-15.105-1.867-15.62-.028c-3.388-.018-6.252-2.672-6.228-6.228 0 0-.072 1.829-.072-30.736 0-3.41 2.818-6.228 6.228-6.228z" fill="url(#b)"/>
 <path d="m42.837 43.25c-.04 2.656-1.222 4.047-3.552 4.145l-15.285-1.888v-43.175l15.714-1.556c2.209-.225 3.174.967 3.191 3.355z" fill-opacity=".15"/>
 <path d="m36.231 19.486v-7.698c0-.709-.575-1.283-1.284-1.283h-7.697c-.709 0-1.283.575-1.283 1.283v3.207c-6.267 0-11.533 4.308-13.03 10.114l-1.334-.235c-.24-.041-.482.055-.627.25-.144.195-.167.456-.057.672l1.39 2.744c-2.436.397-4.303 2.511-4.303 5.059 0 2.829 2.302 5.131 5.132 5.131 2.612 0 4.769-1.964 5.087-4.49h4.535v1.283c0 .243.137.464.354.574.218.108.478.085.673-.062l2.242-1.682c.367 2.472 2.497 4.376 5.069 4.376 2.83.001 5.133-2.301 5.133-5.13 0-2.613-1.964-4.77-4.492-5.088v-4.535h1.284c.242 0 .465-.137.573-.354.109-.217.087-.477-.06-.672l-1.636-2.181h3.045c.711 0 1.286-.575 1.286-1.283zm-7.63 4.135c.109.218.331.355.573.355h1.284v4.534c-2.279.287-4.092 2.07-4.428 4.333l-2.244-1.683c-.194-.146-.454-.168-.671-.061-.217.11-.355.331-.355.574v1.283h-4.534c-.291-2.319-2.134-4.16-4.455-4.447.002-.014.009-.027.009-.043v-.006l1.941-1.818c.177-.166.245-.418.177-.651-.07-.234-.264-.407-.504-.449l-1.191-.21c1.389-5.204 6.129-9.054 11.765-9.054v3.208c0 .708.574 1.282 1.283 1.282h3.046l-1.636 2.181c-.146.195-.169.455-.06.672z" fill="#ffffff" fill-opacity=".75" fill-rule="nonzero"/>
</svg>
