<svg clip-rule="evenodd" fill-rule="evenodd" stroke-linejoin="round" stroke-miterlimit="2" viewBox="0 0 48 48" xmlns="http://www.w3.org/2000/svg">
 <linearGradient id="a" x2="1" gradientTransform="matrix(-.00109739 -43.1476 43.1476 -.00109739 228.379 45.3582)" gradientUnits="userSpaceOnUse">
  <stop stop-color="#d9dfdf" offset="0"/>
  <stop stop-color="#ffffff" offset="1"/>
 </linearGradient>
 <linearGradient id="b" x2="1" gradientTransform="matrix(0 -45.6498 73.2786 0 185.468 46.2879)" gradientUnits="userSpaceOnUse">
  <stop stop-color="#178b6f" offset="0"/>
  <stop stop-color="#4dd7c4" offset="1"/>
 </linearGradient>
 <linearGradient id="c" x2="1" gradientTransform="matrix(-10.4897 18.1687 -18.1687 -10.4897 -232.666 -133.815)" gradientUnits="userSpaceOnUse">
  <stop stop-color="#f6fbff" stop-opacity=".75" offset="0"/>
  <stop stop-color="#eaeff2" stop-opacity=".75" offset="1"/>
 </linearGradient>
 <path d="m35.071 2.164h4.369c3.438 0 6.228 2.79 6.228 6.228v30.88c0 3.438-2.79 6.228-6.228 6.228h-9.129v-43.319l4.76-.017z" fill="url(#a)"/>
 <path d="m24 2.332 15.714-1.556c2.209-.225 3.174.967 3.191 3.355l-.068 39.119c-.04 2.656-1.222 4.047-3.552 4.145l-15.105-1.867-15.62-.028c-3.388-.018-6.252-2.672-6.228-6.228 0 0-.072 1.829-.072-30.736 0-3.41 2.818-6.228 6.228-6.228z" fill="url(#b)"/>
 <path d="m42.837 43.25c-.04 2.656-1.222 4.047-3.552 4.145l-15.285-1.888v-43.175l15.714-1.556c2.209-.225 3.174.967 3.191 3.355z" fill-opacity=".15"/>
 <path d="m12.591 28.948h20.979v6.294h-20.979zm0-7.342h20.98v6.293h-20.98zm0-7.343h20.979v6.294h-20.979z" fill="url(#c)" fill-rule="nonzero"/>
</svg>
