<svg clip-rule="evenodd" fill-rule="evenodd" stroke-linejoin="round" stroke-miterlimit="2" viewBox="0 0 48 48" xmlns="http://www.w3.org/2000/svg">
 <linearGradient id="a" x2="1" gradientTransform="matrix(0 -33.6872 33.6872 0 923.28 40.4502)" gradientUnits="userSpaceOnUse">
  <stop stop-color="#1f1f1f" offset="0"/>
  <stop stop-color="#3e3e3e" offset="1"/>
 </linearGradient>
 <path d="m39.44 45.668h-30.88c-3.438 0-6.228-2.79-6.228-6.228v-30.88c0-3.438 2.79-6.228 6.228-6.228h30.88c3.438 0 6.228 2.79 6.228 6.228v30.88c0 3.438-2.79 6.228-6.228 6.228z" fill="url(#a)"/>
 <path d="m23.942 12.083c-1.005 2.552-1.686 5.227-2.409 7.872-.116.641-.395 1.811-.603.537-.684-2.279-1.348-4.584-2.305-6.765-.483 2.806-.838 5.66-.915 8.518-1.182-2.338-2.279-4.677-3.461-7.015-.075 2.919-.101 5.837 0 8.754-1.317-1.682-2.402-3.53-3.723-5.202.164 1.797.388 3.619.582 5.421-.715-.387-1.863-1.522-2.276-1.496 1.514 3.254 2.444 6.981 5.278 9.42 1.475 1.359 3.364 2.31 5.393 2.398 3.474.406 7.053.507 10.458-.287 3.102-.722 5.445-3.298 6.797-6.118.907-1.817 1.607-3.725 2.41-5.588-.769.554-1.54 1.107-2.275 1.706.253-1.778.419-3.569.555-5.36-1.296 1.686-2.338 3.481-3.697 5.118.156-2.902.051-5.813 0-8.719-1.217 2.301-2.247 4.653-3.373 7-.142-2.821-.567-5.615-.944-8.41-.038.068-.822 1.978-1.235 2.932-.538 1.534-1.035 3.081-1.52 4.632-.632-3.164-1.7-6.219-2.645-9.299l-.092-.049z" fill="#9a3bef" fill-rule="nonzero"/>
</svg>
