<svg clip-rule="evenodd" fill-rule="evenodd" stroke-linejoin="round" stroke-miterlimit="2" viewBox="0 0 48 48" xmlns="http://www.w3.org/2000/svg">
 <linearGradient id="a" x2="1" gradientTransform="matrix(0 -43.3373 43.3373 0 201.9 45.6687)" gradientUnits="userSpaceOnUse">
  <stop stop-color="#0a80fd" offset="0"/>
  <stop stop-color="#56c5fa" offset="1"/>
 </linearGradient>
 <path d="m45.668 8.56c0-3.438-2.79-6.228-6.228-6.228h-30.88c-3.438 0-6.228 2.79-6.228 6.228v26.812c0 3.438 2.79 6.228 6.228 6.228h10.82l4.62 5.47 4.395-5.47h11.045c3.438 0 6.228-2.79 6.228-6.228z" fill="url(#a)"/>
 <path d="m21.491 9.719c.859-.521.33-1.019-.616-1.889.557.14.702-.196 1.72.372-.372-.651-.607-1.146-2.139-2.231 1.534 0 4.644 3.235 6.017 4.126l.001.001c1.331.833 2.268 2.239 2.466 3.871l2.124 1.671-2.428.859c-.291.771-.757 1.457-1.349 2.01 1.325-.265 3.071-.605 3.755-1.926 1.302-2.51-.479-2.876 1.721-3.579 1.712-.548 5.251.568 6.648 1.615 1.036.778 2.748 2.191 3.869 3.474.259.297-.561.158-.38.432.291.442 1.411.674 1.485 1.584-.211.193-.372.217-.621.444-.122.112-.844.132-.974.25-.144.13.446.288.079.683-.474.512-2.926 1.519-4.286 1.82-2.392.528-3.361.583-5.359-.115-1.033-.361-1.222-.663-1.576-.694-.243-.022.116.538-.11.549-1.686.082-2.989 1.196-3.904 2.193-.147.547-.345 1.056-.586 1.515l-.024.045c-.824 1.595.675 3.331 3.296 5.102-4.42 5.972-8.914 5.885-13.338 0 1.327-1.401 4.056-3.233 3.466-4.805-.073-.121-.144-.247-.211-.376-.353-.684-.613-1.477-.751-2.338-.811-.693-1.82-1.278-3.024-1.336-.226-.011.133-.571-.11-.549-.354.031-.543.333-1.576.694-1.998.698-2.967.643-5.359.115-1.36-.301-3.812-1.308-4.286-1.82-.367-.395.223-.553.079-.683-.13-.118-.852-.138-.974-.25-.249-.227-.41-.251-.621-.444.074-.91 1.194-1.142 1.485-1.584.181-.274-.639-.135-.38-.432 1.121-1.283 2.833-2.696 3.869-3.474 1.397-1.047 4.936-2.163 6.648-1.615 2.2.703.419 1.069 1.721 3.579.54 1.042 1.74 1.473 2.873 1.739-.889-.955-1.235-2.239-1.507-3.706-.402-2.164 1.135-4.073 3.167-4.897z" fill="#ebebeb"/>
</svg>
