<svg clip-rule="evenodd" fill-rule="evenodd" stroke-linejoin="round" stroke-miterlimit="2" viewBox="0 0 48 48" xmlns="http://www.w3.org/2000/svg">
 <linearGradient id="a" x2="1" gradientTransform="matrix(0 -43.902 43.902 0 23.061 45.6921)" gradientUnits="userSpaceOnUse">
  <stop stop-color="#4e1073" offset="0"/>
  <stop stop-color="#b228ff" offset="1"/>
 </linearGradient>
 <circle cx="24" cy="24" r="22.764" fill="url(#a)"/>
 <g fill="#fff" fill-opacity=".85" fill-rule="nonzero">
  <path d="m19.794 16.714c-2.486 1.44-4.068 4.056-4.19 6.926-4.977 3.793-7.57 7.333-6.604 9.02.98 1.677 5.337 1.203 11.104-1.208 2.549 1.334 5.611 1.271 8.102-.166 2.486-1.44 4.068-4.056 4.19-6.926 4.977-3.793 7.57-7.333 6.604-9.02-.978-1.679-5.335-1.206-11.103 1.205-2.55-1.333-5.612-1.269-8.103.169zm9.741.963c2.76-.818 4.658-.768 5.179.137.516.905-.39 2.57-2.471 4.545-.177-.901-.5-1.768-.957-2.565-.464-.797-1.056-1.512-1.751-2.117zm-13.778 7.962c.176.902.5 1.77.957 2.567.464.796 1.055 1.511 1.75 2.115-2.758.818-4.656.768-5.178-.135-.518-.905.387-2.57 2.471-4.547z"/>
  <path d="m23.267 36.123c-.075.013-.112.077-.112.194l.03 1.561-1.269.911c-.077.052-.11.109-.1.169.01.061.06.104.149.129l1.495.455.473 1.488c.037.11.093.159.168.147.042-.007.087-.04.133-.1l.893-1.283 1.561.011c.029-.001.05-.002.062-.004.043-.007.077-.024.103-.05s.035-.06.028-.103c-.006-.036-.025-.075-.057-.115l-.941-1.246.491-1.482c.018-.046.023-.089.017-.127-.007-.041-.027-.069-.059-.085-.033-.017-.071-.022-.114-.014-.026.004-.046.008-.06.013l-1.475.511-1.257-.925c-.062-.044-.115-.062-.159-.055zm-4.513-24.599c.027-.071-.01-.135-.111-.193l-1.367-.755-.155-1.555c-.007-.092-.039-.149-.097-.171-.057-.022-.119 0-.185.065l-1.142 1.067-1.525-.335c-.114-.023-.185.001-.211.072-.016.041-.009.096.02.166l.664 1.414-.79 1.347c-.014.026-.023.044-.027.056-.015.04-.018.078-.009.114.01.035.035.06.075.075.035.013.078.016.129.009l1.549-.193 1.038 1.167c.031.038.065.064.102.078.038.015.073.012.103-.008.031-.021.054-.051.069-.091.009-.025.016-.045.019-.059l.294-1.534 1.43-.626c.069-.031.111-.068.127-.11z"/>
  <path d="m40.387 26.554c-.029-.036-.073-.036-.133 0l-.803.483-.854-.386c-.05-.024-.089-.024-.118-.001-.029.024-.036.062-.022.116l.212.913-.631.693c-.047.052-.055.096-.026.131.016.02.047.033.092.039l.934.079.463.815c.009.015.016.025.021.031.016.02.035.033.056.038.021.006.042 0 .062-.016.017-.014.032-.035.043-.064l.365-.863.917-.189c.03-.005.053-.015.071-.03.02-.015.028-.034.027-.056s-.01-.043-.027-.063c-.01-.013-.018-.022-.025-.028l-.708-.613.103-.93c.005-.046-.001-.078-.019-.099zm-30.758-4.436c-.007-.045-.046-.067-.116-.067l-.936.018-.547-.761c-.031-.046-.065-.066-.102-.06-.036.006-.062.035-.077.089l-.273.897-.893.284c-.066.022-.095.056-.088.1.004.026.024.053.06.08l.77.536-.007.937c.001.017.002.03.003.037.004.026.014.046.03.062.015.015.036.021.061.017.022-.004.045-.015.07-.034l.747-.565.889.295c.028.01.054.013.077.009.024-.003.041-.015.051-.035s.012-.042.008-.068c-.002-.016-.005-.028-.008-.036l-.307-.885.555-.755c.027-.036.038-.068.033-.095zm23.315-12.822c-.008-.044-.046-.067-.116-.067l-.937.018-.547-.761c-.031-.046-.065-.066-.101-.06-.037.006-.062.036-.077.089l-.274.897-.892.284c-.067.022-.096.056-.089.101.005.025.025.052.06.08l.77.535-.006.937c0 .018.001.03.002.037.004.026.014.046.03.062.016.015.036.021.062.017.022-.004.045-.015.069-.034l.747-.565.889.295c.028.01.054.014.077.01.024-.004.041-.016.051-.036s.013-.042.009-.068c-.003-.015-.006-.027-.008-.036l-.307-.885.555-.754c.026-.037.037-.069.033-.096z"/>
 </g>
</svg>
