<svg clip-rule="evenodd" fill-rule="evenodd" stroke-linejoin="round" stroke-miterlimit="2" viewBox="0 0 48 48" xmlns="http://www.w3.org/2000/svg">
 <linearGradient id="a" x2="1" gradientTransform="matrix(0 -43.3373 43.3373 0 201.9 45.6687)" gradientUnits="userSpaceOnUse">
  <stop stop-color="#5ea600" offset="0"/>
  <stop stop-color="#80cb1e" offset="1"/>
 </linearGradient>
 <path d="m45.668 8.56c0-3.438-2.79-6.228-6.228-6.228h-30.88c-3.438 0-6.228 2.79-6.228 6.228v30.88c0 3.438 2.79 6.228 6.228 6.228h30.88c3.438 0 6.228-2.79 6.228-6.228z" fill="url(#a)"/>
 <path d="m16 18.996c-1.834 0-2.791.287-3.187.633-.397.346-.817 1.131-.817 3.359l.004 8.012c0 1.097-.903 2-2 2s-2-.903-2-2v-8.012c0-2.762.58-4.97 2.184-6.371 1.603-1.4 3.65-1.617 5.816-1.617h12 4c2.25 0 4.333.416 5.867 1.852 1.534 1.435 2.133 3.594 2.133 6.136v8.012c0 1.097-.903 2-2 2s-2-.903-2-2l.004-8.012c0-1.949-.401-2.782-.867-3.218-.467-.437-1.386-.774-3.137-.774h-4.23c-.366.873-1.314 2.585-3.77 2.585s-3.404-1.712-3.77-2.585zm0 4.004c1.104 0 2 .896 2 2s-.896 2-2 2-2-.896-2-2 .896-2 2-2zm16 0c1.104 0 2 .896 2 2s-.896 2-2 2-2-.896-2-2 .896-2 2-2zm-11 0c1.104 0 2 .896 2 2s-.896 2-2 2-2-.896-2-2 .896-2 2-2zm6 0c1.104 0 2 .896 2 2s-.896 2-2 2-2-.896-2-2 .896-2 2-2z" fill="#383838" fill-rule="nonzero"/>
</svg>
