<svg clip-rule="evenodd" fill-rule="evenodd" stroke-linejoin="round" stroke-miterlimit="2" viewBox="0 0 48 48" xmlns="http://www.w3.org/2000/svg">
 <linearGradient id="a" x2="1" gradientTransform="matrix(-.0430675 -45.5842 45.5842 -.0430675 69.9881 46.9019)" gradientUnits="userSpaceOnUse">
  <stop stop-color="#333" offset="0"/>
  <stop stop-color="#4d4d4d" offset="1"/>
 </linearGradient>
 <linearGradient id="b" x2="1" gradientTransform="matrix(-.655087 -35.4938 35.4938 -.655087 24 40.794)" gradientUnits="userSpaceOnUse">
  <stop stop-color="#b5c6cb" offset="0"/>
  <stop stop-color="#fff" offset="1"/>
 </linearGradient>
 <path d="m45.668 8.56c0-3.438-2.79-6.228-6.228-6.228h-30.88c-3.438 0-6.228 2.79-6.228 6.228v30.88c0 3.438 2.79 6.228 6.228 6.228h30.88c3.438 0 6.228-2.79 6.228-6.228z" fill="url(#a)"/>
 <path transform="translate(1.1e-5 1.01241)" d="m17.802 4.159c.391.098 1.828.751 2.644.718.816-.032 2.35 1.045 2.35 1.143s1.808.338 2.568.607c.5.177.931.894 2.581 1.684.924.442 1.99 1.387 2.48 1.616.49.228 2.023.891 2.314 1.22.241.273.764 1.222.786 1.489.053.621.164 1.809-.021 2.635-.122.542-1.252 1.252-1.689 1.39-.247.078-1.347-.904-1.979-1.128-1.607-.57-1.307-.11-3.819-.428-.486-.061-1.326-.262-1.522.065-.009.014-.061.655.532 1.217.62.588 4.272 3.721 5.789 5.367.846.916 1.788 2.208 1.577 3.722-.215 1.547-1.305 3.786-1.436 4.08s-1.583.778-1.599 1.6c-.036 1.765 3.379 1.536 3.481 3.347.069 1.248-.932 1.1-.916 1.395.019.347 1.212.398 1.212 1.018s-.04 2.295-.04 2.295-2.71 1.583-8.935 1.525c-5.289-.05-9.104-1.265-9.104-1.265s-.013-1.638.037-2.307c.035-.46 1.01-.563 1.05-.928.028-.264-.909-.058-.904-1.33.006-1.511 3.147-1.772 3.26-3.439.064-.942-.371-1.258-.371-1.258s-3.036-1.404-3.427-1.926c-.392-.522 2.287-.853 2.518-3.229.259-2.678-1.245-5.846-2.323-9.274-1.077-3.427-.228-4.733.719-6.202.946-1.469 3.329-2.971 3.427-3.068.098-.098-1.632-2.449-1.24-2.351z" fill="url(#b)"/>
</svg>
