<svg clip-rule="evenodd" fill-rule="evenodd" stroke-linejoin="round" stroke-miterlimit="2" viewBox="0 0 48 48" xmlns="http://www.w3.org/2000/svg">
 <linearGradient id="a" x2="1" gradientTransform="matrix(0 -43.1166 43.1166 0 23.9995 45.6179)" gradientUnits="userSpaceOnUse">
  <stop stop-color="#af0200" offset="0"/>
  <stop stop-color="#ed4224" offset="1"/>
 </linearGradient>
 <path d="m39.44 45.668h-30.88c-3.438 0-6.228-2.79-6.228-6.228v-30.88c0-3.438 2.79-6.228 6.228-6.228h30.88c3.438 0 6.228 2.79 6.228 6.228v30.88c0 3.438-2.79 6.228-6.228 6.228z" fill="url(#a)"/>
 <path transform="translate(5e-4 7.5e-5)" d="m24.175 15.001c-3.038 0-7.52.184-8.864.227-1.46.129-1.999.203-2.796.875-1.226 1.066-1.515 3.16-1.515 6.367v3.05c0 3.656.491 5.516 1.312 6.195.938.793 1.559.855 2.179.949.242.035 1.961.336 9.571.336 4.744 0 8.821-.223 9.243-.273.679-.086 1.644-.207 2.39-1.012 1.09-1.219 1.304-3.242 1.304-6.176v-3.55c0-1.898-.105-4.578-1.304-5.703-.91-.758-1.242-.969-3.12-1.063-.531-.023-5.162-.223-8.399-.223m-3.176 5 6.999 3.999-6.999 4.001" fill="#f9f9f9" fill-rule="nonzero"/>
 <circle cx="36.999394" cy="37.667984" r="9.667999" fill="#00c5ea" stroke-width=".878909"/>
 <path transform="matrix(1.17188 0 0 1.17188 -5.48179 -5.25249)" d="m38 30 5 5h-2l-3 3c2 2 0 3 0 3l-2.5-2.5-3.5 3.5h-1v-1l3.5-3.5-2.5-2.5s1-2 3 0l3-3z" fill="#fff" fill-rule="nonzero"/>
</svg>
