<svg clip-rule="evenodd" fill-rule="evenodd" stroke-linejoin="round" stroke-miterlimit="2" viewBox="0 0 48 48" xmlns="http://www.w3.org/2000/svg">
 <linearGradient id="a" x2="1" gradientTransform="matrix(0 -36.2165 36.2165 0 275.714 42.119)" gradientUnits="userSpaceOnUse">
  <stop stop-color="#313738" offset="0"/>
  <stop stop-color="#535552" offset="1"/>
 </linearGradient>
 <linearGradient id="b" x2="1" gradientTransform="matrix(-.03334 -10.7989 10.7989 -.03334 381.376 41.9659)" gradientUnits="userSpaceOnUse">
  <stop stop-color="#0f9d58" offset="0"/>
  <stop stop-color="#00d455" offset="1"/>
 </linearGradient>
 <linearGradient id="c" x2="1" gradientTransform="matrix(0 -11.6 11.6 0 430.818 44.2472)" gradientUnits="userSpaceOnUse">
  <stop stop-color="#ffcd40" offset="0"/>
  <stop stop-color="#fee145" offset="1"/>
 </linearGradient>
 <linearGradient id="d" x2="1" gradientTransform="matrix(0 -6.4 6.4 0 222.738 34.6472)" gradientUnits="userSpaceOnUse">
  <stop stop-color="#db4437" offset="0"/>
  <stop stop-color="#fd5757" offset="1"/>
 </linearGradient>
 <linearGradient id="e" x2="1" gradientTransform="matrix(0 -6.99807 6.99807 0 271.262 39.6237)" gradientUnits="userSpaceOnUse">
  <stop stop-color="#f2f6f7" offset="0"/>
  <stop stop-color="#ecf0f1" offset="1"/>
 </linearGradient>
 <linearGradient id="f" x2="1" gradientTransform="matrix(0 -5.7257 5.7257 0 233.358 39.1934)" gradientUnits="userSpaceOnUse">
  <stop stop-color="#2566d3" offset="0"/>
  <stop stop-color="#429aff" offset="1"/>
 </linearGradient>
 <path d="m39.44 2.332c3.438 0 6.228 2.79 6.228 6.228v30.88c0 3.438-2.79 6.228-6.228 6.228h-30.88c-3.438 0-6.228-2.79-6.228-6.228v-30.88c0-3.438 2.79-6.228 6.228-6.228z" fill="url(#a)"/>
 <path d="m2.332 9.588v-1.028c0-3.438 2.79-6.228 6.228-6.228h30.88c3.438 0 6.228 2.79 6.228 6.228v1.028z" fill="#ebebeb" fill-opacity=".1"/>
 <path d="m45.668 38.412v1.028c0 3.438-2.79 6.228-6.228 6.228h-30.88c-3.438 0-6.228-2.79-6.228-6.228v-1.028z" fill-opacity=".2"/>
 <path d="m33.317 7.335h-.105c-.099 0-.178-.081-.178-.18v-.302c-.426-.107-.548-.36-.548-.879 0-.766.622-1.389 1.388-1.389s1.388.623 1.388 1.389c0 .511-.129.763-.546.874v.306c0 .1-.081.18-.18.18h-.104c-.099 0-.18-.08-.18-.18v-.24c-.047.003-.095.005-.146.006v.235c0 .099-.08.179-.179.179h-.104c-.1 0-.18-.08-.18-.179v-.234c-.051-.001-.1-.003-.147-.006v.24c0 .099-.08.18-.179.18zm-.018-1.926c.235.092.426.185.426.414 0 .227-.154.271-.426.412-.209.109-.427-.185-.427-.412 0-.229.207-.499.427-.414zm1.145 0c.227-.064.426.185.426.414 0 .227-.224.533-.426.412-.248-.147-.426-.185-.426-.412 0-.229.166-.34.426-.414z" fill="#ededed" fill-opacity=".5"/>
 <g fill="#fff">
  <path d="m40.535 5.039.418.442.661-.626.528.557-.66.626.418.442c.143.15.141.383-.003.518-.144.137-.376.126-.517-.024l-.42-.442-.662.628-.529-.557.664-.596-.419-.475c-.143-.15-.14-.382.003-.518.144-.136.376-.125.518.025z" fill-opacity=".5"/>
  <path d="m37.201 4.892.004-.169.607.016-.006.169.328.009c.314.009.563.272.554.586l-.031 1.139c-.008.315-.27.564-.585.555l-1.26-.034c-.315-.008-.563-.271-.554-.585l.03-1.14c.008-.315.271-.563.586-.555zm-.182.496c.163.004.292.141.287.304-.003.163-.14.292-.303.288s-.293-.141-.288-.304c.004-.163.141-.292.304-.288zm1.009.027c.163.005.293.14.288.304-.004.164-.14.293-.304.288-.163-.004-.292-.14-.288-.304.005-.163.141-.292.304-.288z" fill-opacity=".5"/>
  <path d="m19.503 20.965c-.053-.05-.121-.075-.203-.075h-8.439c-.082 0-.149.025-.202.075-.053.051-.079.115-.079.193v.535c0 .078.026.142.079.193.053.05.12.075.202.075h8.439c.082 0 .15-.025.203-.075.052-.051.079-.115.079-.193v-.535c0-.078-.027-.142-.079-.193z" fill-rule="nonzero"/>
  <path d="m6 13.053c-.059-.056-.126-.084-.202-.084s-.144.028-.202.084l-.44.418c-.058.056-.088.12-.088.192 0 .073.03.137.088.193l3.455 3.287-3.455 3.287c-.058.056-.088.12-.088.192 0 .073.03.137.088.193l.44.418c.058.056.126.084.202.084s.143-.028.202-.084l4.097-3.898c.058-.055.087-.12.087-.192 0-.073-.029-.137-.087-.193z" fill-rule="nonzero"/>
 </g>
 <path d="m29.86 31.447c-1.002 1.336-1.602 3.019-1.602 4.825 0 4.432 3.568 7.975 8 7.975l2.8-5.735-5.2-1.065z" fill="url(#b)"/>
 <path d="m36.658 32.647 2.4 5.84-2.8 5.76c4.432 0 8-3.568 8-8 0-1.298-.312-2.518-.857-3.6z" fill="url(#c)"/>
 <path d="m36.257 28.247c-2.626 0-4.942 1.259-6.399 3.202l3.999 5.998 5.2 1.04-2.4-5.84h6.743c-1.314-2.612-4.009-4.4-7.143-4.4z" fill="url(#d)"/>
 <path d="m36.274 32.626c2.053 0 3.705 1.652 3.705 3.704 0 2.053-1.652 3.705-3.705 3.705-2.052 0-3.705-1.652-3.705-3.705 0-2.052 1.653-3.704 3.705-3.704z" fill="url(#e)" fill-rule="nonzero"/>
 <path d="m36.274 33.468c1.586 0 2.863 1.276 2.863 2.862s-1.277 2.863-2.863 2.863-2.863-1.277-2.863-2.863 1.277-2.862 2.863-2.862z" fill="url(#f)" fill-rule="nonzero"/>
</svg>
