<svg clip-rule="evenodd" fill-rule="evenodd" stroke-linejoin="round" stroke-miterlimit="2" viewBox="0 0 48 48" xmlns="http://www.w3.org/2000/svg">
 <linearGradient id="a" x2="1" gradientTransform="matrix(0 -43.1072 43.1072 0 24 45.4392)" gradientUnits="userSpaceOnUse">
  <stop stop-color="#46891d" offset="0"/>
  <stop stop-color="#70b943" offset="1"/>
 </linearGradient>
 <g fill-rule="nonzero">
  <path d="m39.44 2.332c3.438 0 6.228 2.79 6.228 6.228v30.88c0 3.438-2.79 6.228-6.228 6.228h-30.88c-3.438 0-6.228-2.79-6.228-6.228v-30.88c0-3.438 2.79-6.228 6.228-6.228z" fill="url(#a)"/>
  <path transform="matrix(1.0834 0 0 1.0834 -2.0016 -2.0016)" d="m20 14c-.653 0-1.265.32-1.639.855-.004.006-.008.011-.011.016l-6.83 8.147c-.074.083-.146.168-.215.255l-.049.059v.008c-.811 1.048-1.253 2.335-1.256 3.66 0 3.292 2.708 6 6 6 2.778-.003 5.208-1.935 5.838-4.641.112.072.227.139.346.2.113.058.229.111.347.158.021.008.042.016.063.023.103.04.208.075.314.106.027.006.054.013.08.019.099.026.199.048.299.067.036.006.072.012.108.017.095.015.192.027.289.035.105.01.21.015.316.016.106-.001.211-.006.316-.016.097-.008.194-.02.289-.035.036-.005.072-.011.108-.017.1-.019.2-.041.299-.067.026-.006.053-.013.08-.019.106-.031.211-.066.314-.106.021-.007.042-.015.063-.023.118-.047.234-.1.347-.158.119-.061.234-.128.346-.2.63 2.706 3.06 4.638 5.838 4.641 3.292 0 6-2.708 6-6-.003-1.325-.445-2.612-1.256-3.66v-.008l-.049-.059c-.069-.087-.141-.172-.215-.255l-6.83-8.147c-.003-.005-.007-.01-.011-.016-.374-.535-.986-.855-1.639-.855-1.097 0-2 .903-2 2 .001.397.12.786.342 1.115l-.008.004c-.057-.071-.118-.139-.182-.205 0-.001-.001-.001-.002-.002 0 0-.001 0-.002 0-.06-.062-.122-.121-.187-.178-.014-.013-.029-.026-.043-.039-.056-.045-.113-.089-.172-.131-.026-.018-.052-.036-.078-.054-.064-.042-.129-.082-.195-.119-.016-.01-.032-.019-.047-.028-.076-.041-.154-.079-.233-.113-.011-.005-.023-.011-.035-.016-.07-.028-.142-.055-.215-.078-.028-.01-.057-.02-.086-.029-.064-.019-.129-.035-.195-.049-.03-.008-.061-.015-.092-.021-.066-.012-.132-.022-.199-.03-.036-.005-.072-.009-.107-.013-.088-.009-.176-.013-.264-.014-.088.001-.176.005-.264.014-.036.004-.071.008-.107.013-.067.008-.133.018-.199.03-.031.006-.062.013-.092.021-.066.014-.131.03-.195.049-.029.009-.058.019-.086.029-.073.024-.145.05-.215.078-.012.006-.024.011-.035.016-.079.034-.157.072-.233.113-.015.009-.031.018-.047.028-.066.037-.131.077-.195.119-.026.018-.052.036-.078.054-.059.042-.116.086-.172.131-.014.013-.029.026-.043.039-.065.057-.128.116-.187.178-.001 0-.002 0-.002 0-.001.001-.002.001-.002.002-.064.066-.125.134-.182.205l-.008-.004c.222-.329.341-.718.342-1.115 0-1.097-.903-2-2-2zm-4 9c2.194 0 4 1.806 4 4s-1.806 4-4 4-4-1.806-4-4 1.806-4 4-4zm8 0c.052.001.104.003.156.008.047.003.094.009.141.015.021.003.042.007.062.01.036.007.071.015.106.024.035.008.07.017.105.027.031.01.062.02.092.031.028.01.055.02.082.032.036.013.071.028.106.044l.078.039c.031.017.061.034.092.051.031.018.061.037.091.057.019.013.038.027.057.041.035.024.069.05.102.076.023.02.046.04.068.061.026.022.051.046.076.07.024.025.048.05.07.076.021.022.041.045.061.068.026.034.052.067.076.102.014.019.028.038.041.057.02.03.039.06.057.091.017.031.034.061.051.092.013.026.026.052.039.078.016.035.031.07.045.106.011.027.021.054.031.082.011.03.021.061.031.092.01.035.019.07.027.105.009.035.017.07.024.106.003.02.007.041.01.062.006.047.012.094.015.141.005.052.007.104.008.156-.001.052-.003.104-.008.156-.003.047-.009.094-.015.141-.003.021-.007.042-.01.062-.007.036-.015.071-.024.106-.008.035-.017.07-.027.105-.01.031-.02.062-.031.092-.01.028-.02.055-.032.082-.013.036-.028.071-.044.106-.013.026-.026.052-.039.078-.017.031-.034.061-.051.092-.018.031-.037.061-.057.091-.013.019-.027.038-.041.057-.024.035-.05.069-.076.102-.02.023-.04.046-.061.068-.022.026-.046.051-.07.076-.025.024-.05.048-.076.07-.022.021-.045.041-.068.061-.034.026-.067.052-.102.076-.019.014-.038.028-.057.041-.03.02-.06.039-.091.057-.031.017-.061.034-.092.051-.026.013-.052.026-.078.039-.035.016-.07.031-.106.045-.027.011-.054.021-.082.031-.03.011-.061.021-.092.031-.035.01-.07.019-.105.027-.035.009-.07.017-.106.024-.02.003-.041.007-.062.01-.047.006-.094.012-.141.015-.052.005-.104.007-.156.008-.052-.001-.104-.003-.156-.008-.047-.003-.094-.009-.141-.015-.021-.003-.042-.007-.062-.01-.036-.007-.071-.015-.106-.024-.035-.008-.07-.017-.105-.027-.031-.01-.062-.02-.092-.031-.028-.01-.055-.02-.082-.032-.036-.013-.071-.028-.106-.044-.026-.013-.052-.026-.078-.039-.031-.017-.061-.034-.092-.051-.031-.018-.061-.037-.091-.057-.019-.013-.038-.027-.057-.041-.035-.024-.069-.05-.102-.076-.023-.02-.046-.04-.068-.061-.026-.022-.051-.046-.076-.07-.024-.025-.048-.05-.07-.076-.021-.022-.041-.045-.061-.068-.026-.034-.052-.067-.076-.102-.014-.019-.028-.038-.041-.057-.02-.03-.039-.06-.057-.091-.017-.031-.034-.061-.051-.092-.013-.026-.026-.052-.039-.078-.016-.035-.031-.07-.045-.106-.011-.027-.021-.054-.031-.082-.011-.03-.021-.061-.031-.092-.01-.035-.019-.07-.027-.105-.009-.035-.017-.07-.024-.106-.003-.02-.007-.041-.01-.062-.006-.047-.012-.094-.015-.141-.005-.052-.007-.104-.008-.156.001-.052.003-.104.008-.156.003-.047.009-.094.015-.141.003-.021.007-.042.01-.062.007-.036.015-.071.024-.106.008-.035.017-.07.027-.105.01-.031.02-.062.031-.092.01-.028.02-.055.032-.082.013-.036.028-.071.044-.106.013-.026.026-.052.039-.078.017-.031.034-.061.051-.092.018-.031.037-.061.057-.091.013-.019.027-.038.041-.057.024-.035.05-.069.076-.102.02-.023.04-.046.061-.068.022-.026.046-.051.07-.076.025-.024.05-.048.076-.07.022-.021.045-.041.068-.061.034-.026.067-.052.102-.076.019-.014.038-.028.057-.041.03-.02.06-.039.091-.057.031-.017.061-.034.092-.051l.078-.039c.035-.016.07-.031.106-.045.027-.011.054-.021.082-.031.03-.011.061-.021.092-.031.035-.01.07-.019.105-.027.035-.009.07-.017.106-.024.02-.003.041-.007.062-.01.047-.006.094-.012.141-.015.052-.005.104-.007.156-.008zm8 0c2.194 0 4 1.806 4 4s-1.806 4-4 4-4-1.806-4-4 1.806-4 4-4z" fill="#fff"/>
 </g>
</svg>
