<svg clip-rule="evenodd" fill-rule="evenodd" stroke-linejoin="round" stroke-miterlimit="2" viewBox="0 0 48 48" xmlns="http://www.w3.org/2000/svg">
 <linearGradient id="a" x2="1" gradientTransform="matrix(0 -43.3373 43.3373 0 201.9 45.6687)" gradientUnits="userSpaceOnUse">
  <stop stop-color="#5d2ea4" offset="0"/>
  <stop stop-color="#9653fb" offset="1"/>
 </linearGradient>
 <linearGradient id="b" x2="1" gradientTransform="matrix(-.0233383 -26.6324 26.6324 -.0233383 24.2406 36.4039)" gradientUnits="userSpaceOnUse">
  <stop stop-color="#aaa" offset="0"/>
  <stop stop-color="#c8c8c8" offset="1"/>
 </linearGradient>
 <path d="m45.668 8.56c0-3.438-2.79-6.228-6.228-6.228h-30.88c-3.438 0-6.228 2.79-6.228 6.228v30.88c0 3.438 2.79 6.228 6.228 6.228h30.88c3.438 0 6.228-2.79 6.228-6.228z" fill="url(#a)"/>
 <path d="m23.972 9.697-6.412 12.678.027 7.113c.001.296-.206.535-.462.536l-.922.003c-.256.001-.462-.236-.463-.532l-.013-3.497-3.666 7.248 7.196-.028.011 3.032c.001.222.24.4.536.398l3.207-.012c.296-.001.533-.18.532-.402l-.011-3.032 1.326-.002.011 3.031c.001.222.24.4.536.399l3.205-.012c.296-.001.571-.184.532-.403l-.011-3.031 6.93-.028-3.719-7.217.013 3.493c.001.296-.203.535-.459.536l-.924.004c-.256.001-.462-.237-.463-.533l-.027-7.109zm6.51 12.633 1.86 3.609-.031-8.205c-.001-.296-.207-.534-.463-.533l-.924.004c-.256.001-.461.24-.459.536.005 1.548.011 3.041.017 4.589zm-14.755 3.668 1.833-3.623-.017-4.641c-.001-.296-.21-.534-.466-.533l-.922.004c-.256.001-.46.24-.459.536zm8.281-6.686c1.534-.006 2.773 1.049 2.778 2.36l.023 5.943c.005 1.311-1.226 2.375-2.76 2.381-1.534.005-2.773-1.05-2.778-2.36l-.023-5.943c-.005-1.311 1.226-2.375 2.76-2.381zm.004 1.071c-1.022.004-1.841.851-1.837 1.899l.018 4.762c.004 1.048.83 1.889 1.852 1.885h.002c1.022-.004 1.841-.851 1.837-1.899l-.018-4.762c-.004-1.048-.83-1.889-1.852-1.885z" fill="url(#b)" fill-rule="nonzero"/>
</svg>
