<svg clip-rule="evenodd" fill-rule="evenodd" stroke-linejoin="round" stroke-miterlimit="2" viewBox="0 0 48 48" xmlns="http://www.w3.org/2000/svg">
 <linearGradient id="a" x2="1" gradientTransform="matrix(0 -45.528 45.528 0 24 46.764)" gradientUnits="userSpaceOnUse">
  <stop stop-color="#e37f00" offset="0"/>
  <stop stop-color="#ff9426" offset="1"/>
 </linearGradient>
 <path d="m24 1.236c-12.488 0-22.764 10.276-22.764 22.764s10.276 22.764 22.764 22.764 22.764-10.276 22.764-22.764-10.276-22.764-22.764-22.764z" fill="url(#a)" fill-rule="nonzero"/>
 <circle cx="24" cy="24" r="19.349" fill="#ffffff"/>
 <g fill-rule="nonzero">
  <path d="m23.96 6.927c-1.877-.01-3.628.428-4.473.905.001.007.001.006.002.013.072.43.24 1.1.472 1.887.464 1.576 1.188 3.655 1.943 5.709 1.005 2.738 1.498 3.921 2.094 5.418.603-1.496 1.105-2.683 2.118-5.422.76-2.054 1.484-4.13 1.943-5.702.23-.786.393-1.453.458-1.877-.896-.476-2.682-.921-4.557-.931z" fill="#d2e015"/>
  <path d="m23.998 27.141c-.596 1.497-1.089 2.68-2.094 5.418-.755 2.054-1.479 4.133-1.943 5.709-.232.787-.4 1.457-.472 1.887-.001.007-.001.006-.002.013.845.477 2.596.915 4.473.905 1.875-.01 3.661-.455 4.557-.931-.066-.424-.228-1.091-.458-1.877-.459-1.572-1.183-3.648-1.943-5.702-1.013-2.739-1.515-3.926-2.118-5.422z" fill="#c74a30"/>
  <path d="m40.168 19.487c-.007.001-.006.001-.013.002-.43.072-1.1.24-1.887.472-1.576.464-3.655 1.188-5.709 1.943-2.738 1.005-3.921 1.498-5.418 2.094 1.496.603 2.683 1.105 5.422 2.118 2.054.76 4.13 1.484 5.702 1.943.786.23 1.453.393 1.877.458.476-.896.921-2.682.931-4.557.01-1.877-.428-3.628-.905-4.473z" fill="#ff769d"/>
  <path d="m7.832 19.487c-.477.845-.915 2.596-.905 4.473.01 1.875.455 3.661.931 4.557.424-.065 1.091-.228 1.877-.458 1.572-.459 3.648-1.183 5.702-1.943 2.739-1.013 3.926-1.515 5.422-2.118-1.497-.596-2.68-1.089-5.418-2.094-2.054-.755-4.133-1.479-5.709-1.943-.787-.232-1.457-.4-1.887-.472-.007-.001-.006-.001-.013-.002z" fill="#f9a726"/>
  <path d="m32.243 9.377c-.004.006-.004.005-.009.011-.253.355-.607.946-1 1.667-.786 1.443-1.744 3.423-2.663 5.409-1.225 2.646-1.713 3.833-2.35 5.313 1.484-.631 2.676-1.117 5.328-2.336 1.99-.915 3.973-1.87 5.409-2.657.718-.394 1.304-.752 1.65-1.005-.297-.971-1.245-2.546-2.564-3.879-1.319-1.334-2.866-2.263-3.801-2.523z" fill="#89dc3c"/>
  <path d="m21.777 26.221c-1.48.637-2.667 1.125-5.313 2.35-1.986.919-3.966 1.877-5.409 2.663-.721.393-1.312.747-1.667 1-.006.005-.005.005-.011.009.26.935 1.189 2.482 2.523 3.801 1.333 1.319 2.908 2.267 3.879 2.564.253-.346.611-.932 1.005-1.65.787-1.436 1.742-3.419 2.656-5.409 1.22-2.652 1.706-3.844 2.337-5.328z" fill="#dc6e33"/>
  <path d="m26.223 26.221c.631 1.484 1.117 2.676 2.336 5.328.915 1.99 1.87 3.973 2.657 5.409.394.718.752 1.304 1.005 1.65.971-.297 2.546-1.245 3.879-2.564 1.334-1.319 2.263-2.866 2.523-3.801-.006-.004-.005-.004-.011-.009-.355-.253-.946-.607-1.667-1-1.443-.786-3.423-1.744-5.409-2.663-2.646-1.225-3.833-1.713-5.313-2.35z" fill="#dd4f3c"/>
  <path d="m15.757 9.377c-.935.26-2.482 1.189-3.801 2.523-1.319 1.333-2.267 2.908-2.564 3.879.346.253.932.611 1.65 1.005 1.436.787 3.419 1.742 5.409 2.657 2.652 1.219 3.844 1.705 5.328 2.336-.637-1.48-1.125-2.667-2.35-5.313-.919-1.986-1.877-3.966-2.663-5.409-.393-.721-.747-1.312-1-1.667-.005-.006-.005-.005-.009-.011z" fill="#f8e12e"/>
 </g>
</svg>
