<svg clip-rule="evenodd" fill-rule="evenodd" stroke-linejoin="round" stroke-miterlimit="2" viewBox="0 0 48 48" xmlns="http://www.w3.org/2000/svg">
 <linearGradient id="a" x2="1" gradientTransform="matrix(0 -45.528 45.528 0 24 46.764)" gradientUnits="userSpaceOnUse">
  <stop stop-color="#df6e00" offset="0"/>
  <stop stop-color="#ff9426" offset="1"/>
 </linearGradient>
 <path d="m24 1.236c-12.488 0-22.764 10.276-22.764 22.764s10.276 22.764 22.764 22.764 22.764-10.276 22.764-22.764-10.276-22.764-22.764-22.764z" fill="url(#a)" fill-rule="nonzero"/>
 <circle cx="24" cy="24" r="19.349" fill="#fff"/>
 <g fill-rule="nonzero">
  <path d="m32.243 9.376c-.005.007-.005.006-.009.012-.253.355-.607.946-1.001 1.667-.785 1.442-1.743 3.423-2.662 5.409-1.225 2.646-1.713 3.833-2.35 5.313 1.484-.632 2.676-1.116 5.329-2.337 1.988-.914 3.972-1.869 5.408-2.656.719-.394 1.304-.751 1.65-1.005-.297-.971-1.246-2.546-2.564-3.879-1.319-1.334-2.866-2.263-3.801-2.524zm-8.283-2.449c-1.877-.01-3.627.428-4.473.905.001.007.001.006.002.013.072.431.239 1.1.472 1.888.464 1.575 1.188 3.654 1.942 5.708 1.007 2.738 1.498 3.921 2.095 5.418.603-1.496 1.105-2.683 2.118-5.422.76-2.053 1.484-4.13 1.943-5.702.23-.787.393-1.452.459-1.876-.897-.478-2.682-.922-4.558-.932z" fill="#f8e12e"/>
  <path d="m15.757 9.376c-.935.261-2.482 1.19-3.801 2.524-1.318 1.333-2.267 2.908-2.564 3.879.346.254.931.611 1.65 1.005 1.436.787 3.42 1.741 5.408 2.656 2.653 1.221 3.845 1.705 5.329 2.337-.637-1.481-1.125-2.667-2.35-5.313-.919-1.986-1.877-3.967-2.662-5.409-.394-.721-.748-1.312-1.001-1.667-.004-.006-.004-.005-.009-.012zm10.466 16.845c.632 1.484 1.116 2.676 2.337 5.329.915 1.988 1.869 3.972 2.656 5.408.394.719.751 1.304 1.005 1.65.971-.297 2.546-1.246 3.879-2.564 1.334-1.319 2.263-2.866 2.524-3.801-.007-.005-.006-.005-.012-.009-.355-.253-.946-.607-1.667-1.001-1.442-.785-3.423-1.743-5.409-2.662-2.646-1.225-3.833-1.713-5.313-2.35zm-4.446 0c-1.481.637-2.667 1.125-5.313 2.35-1.986.919-3.967 1.877-5.409 2.662-.721.394-1.312.748-1.667 1.001-.006.004-.005.004-.012.009.261.935 1.19 2.482 2.524 3.801 1.333 1.318 2.908 2.267 3.879 2.564.254-.346.611-.931 1.005-1.65.787-1.436 1.741-3.42 2.656-5.408 1.221-2.653 1.705-3.845 2.337-5.329zm-13.945-6.734c-.477.845-.915 2.596-.905 4.473.01 1.876.454 3.661.932 4.558.424-.066 1.089-.229 1.876-.459 1.572-.459 3.649-1.183 5.702-1.943 2.739-1.013 3.926-1.515 5.422-2.118-1.497-.597-2.68-1.088-5.418-2.095-2.054-.754-4.133-1.478-5.708-1.942-.788-.233-1.457-.4-1.888-.472-.007-.001-.006-.001-.013-.002zm32.336 0c-.007.001-.006.001-.014.002-.43.072-1.099.239-1.887.472-1.575.464-3.654 1.188-5.708 1.942-2.738 1.007-3.921 1.498-5.418 2.095 1.496.603 2.683 1.105 5.422 2.118 2.053.76 4.13 1.484 5.702 1.943.787.23 1.452.393 1.877.459.477-.897.921-2.682.931-4.558.01-1.877-.428-3.628-.905-4.473zm-16.17 7.654c-.597 1.497-1.088 2.68-2.095 5.418-.754 2.054-1.478 4.133-1.942 5.708-.233.788-.4 1.457-.472 1.887-.001.008-.001.007-.002.014.845.477 2.595.915 4.473.905 1.876-.01 3.661-.454 4.558-.931-.066-.425-.229-1.09-.459-1.877-.459-1.572-1.183-3.649-1.943-5.702-1.013-2.739-1.515-3.926-2.118-5.422z" fill="#f9a726"/>
 </g>
</svg>
