<svg clip-rule="evenodd" fill-rule="evenodd" stroke-linejoin="round" stroke-miterlimit="2" viewBox="0 0 48 48" xmlns="http://www.w3.org/2000/svg" xmlns:xlink="http://www.w3.org/1999/xlink">
 <linearGradient id="a">
  <stop stop-color="#ff7a01" offset="0"/>
  <stop stop-color="#feb600" offset="1"/>
 </linearGradient>
 <linearGradient id="b" x2="1" gradientTransform="matrix(0 -44.3898 44.3898 0 24 45.6258)" gradientUnits="userSpaceOnUse" xlink:href="#a"/>
 <linearGradient id="c" x2="1" gradientTransform="matrix(0 41.1551 -41.1551 0 24.091 3.52239)" gradientUnits="userSpaceOnUse">
  <stop stop-color="#fffce4" offset="0"/>
  <stop stop-color="#fafacd" offset="1"/>
 </linearGradient>
 <linearGradient id="d" x2="1" gradientTransform="matrix(.648825 -40.4253 40.4253 .648825 23.7666 45.997)" gradientUnits="userSpaceOnUse" xlink:href="#a"/>
 <circle cx="24" cy="24" r="22.764" fill="url(#b)"/>
 <circle cx="24.091" cy="24.1" r="20.578" fill="url(#c)"/>
 <path d="m24.091 5.809c-3.43 0-5.716 2.286-5.716 2.286s1.364 4.633 2.286 6.859c.979 2.362 3.43 6.86 3.43 6.86s2.451-4.498 3.43-6.86c.922-2.226 2.286-6.859 2.286-6.859s-2.286-2.286-5.716-2.286zm-7.274 2.932s-3.236-.001-5.661 2.424-2.424 5.66-2.424 5.66 4.241 2.311 6.468 3.234c2.362.978 7.274 2.424 7.274 2.424s-1.446-4.912-2.424-7.274c-.923-2.227-3.233-6.468-3.233-6.468zm14.548 0s-2.31 4.241-3.233 6.468c-.978 2.362-2.424 7.274-2.424 7.274s4.912-1.446 7.274-2.424c2.227-.923 6.468-3.234 6.468-3.234s.001-3.235-2.424-5.66-5.661-2.424-5.661-2.424zm-23.279 9.643s-2.286 2.286-2.286 5.716 2.286 5.716 2.286 5.716 4.633-1.364 6.859-2.286c2.362-.979 6.86-3.43 6.86-3.43s-4.498-2.451-6.86-3.43c-2.226-.922-6.859-2.286-6.859-2.286zm32.01 0s-4.633 1.364-6.859 2.286c-2.362.979-6.86 3.43-6.86 3.43s4.498 2.451 6.86 3.43c2.226.922 6.859 2.286 6.859 2.286s2.286-2.286 2.286-5.716-2.286-5.716-2.286-5.716zm-17.622 7.333s-4.912 1.446-7.274 2.424c-2.227.923-6.468 3.233-6.468 3.233s-.001 3.235 2.424 5.661c2.425 2.425 5.661 2.424 5.661 2.424s2.31-4.241 3.233-6.468c.978-2.362 2.424-7.274 2.424-7.274zm3.234 0s1.446 4.912 2.424 7.274c.923 2.227 3.233 6.468 3.233 6.468s3.236.001 5.661-2.424c2.425-2.426 2.424-5.661 2.424-5.661s-4.241-2.31-6.468-3.233c-2.362-.978-7.274-2.424-7.274-2.424zm-1.617.669s-2.451 4.498-3.43 6.86c-.922 2.226-2.286 6.859-2.286 6.859s2.286 2.286 5.716 2.286 5.716-2.286 5.716-2.286-1.364-4.633-2.286-6.859c-.979-2.362-3.43-6.86-3.43-6.86z" fill="url(#d)" fill-rule="nonzero"/>
</svg>
