<svg clip-rule="evenodd" fill-rule="evenodd" stroke-linejoin="round" stroke-miterlimit="2" viewBox="0 0 48 48" xmlns="http://www.w3.org/2000/svg">
 <linearGradient id="a" x2="1" gradientTransform="matrix(0 -42 42 0 24 45)" gradientUnits="userSpaceOnUse">
  <stop stop-color="#4b4a37" offset="0"/>
  <stop stop-color="#696853" offset="1"/>
 </linearGradient>
 <g transform="matrix(1.08959 0 0 1.08959 -2.15023 -2.15023)" fill-rule="nonzero">
  <path d="m23.999 3c-1.1 0-2.2.41-3.023 1.232l-16.744 16.746c-1.644 1.645-1.642 4.397.003 6.042l16.744 16.745c1.644 1.645 4.399 1.647 6.044.003l16.744-16.746c1.644-1.645 1.644-4.399 0-6.044l-16.744-16.746c-.823-.822-1.924-1.232-3.024-1.232z" fill="url(#a)"/>
  <path d="m24 6c-.419 0-.839.156-1.152.47l-6.379 6.379c-.626.626-.625 1.675.001 2.301l6.379 6.38c.627.626 1.676.627 2.302.001l6.379-6.38c.627-.626.627-1.676 0-2.302l-6.379-6.379c-.313-.314-.732-.47-1.151-.47z" fill="#2899ff"/>
  <path d="m24 26c-.419 0-.839.156-1.152.47l-6.379 6.379c-.626.626-.625 1.675.001 2.301l6.379 6.38c.627.626 1.676.627 2.302.001l6.379-6.38c.627-.626.627-1.676 0-2.302l-6.379-6.379c-.313-.314-.732-.47-1.151-.47z" fill="#222"/>
  <path d="m42 24c0-.419-.156-.839-.469-1.152l-6.38-6.379c-.626-.626-1.675-.625-2.301.001l-6.38 6.379c-.626.627-.627 1.676-.001 2.303l6.38 6.378c.626.627 1.676.627 2.302 0l6.38-6.379c.313-.313.469-.732.469-1.151z" fill="#f1ca42"/>
  <path d="m22 24c0-.419-.156-.839-.469-1.152l-6.38-6.379c-.626-.626-1.675-.625-2.301.001l-6.38 6.379c-.626.627-.627 1.676-.001 2.303l6.38 6.378c.626.627 1.676.627 2.302 0l6.379-6.379c.314-.313.47-.732.47-1.151z" fill="#ea72bb"/>
 </g>
</svg>
