<svg clip-rule="evenodd" fill-rule="evenodd" stroke-linejoin="round" stroke-miterlimit="1.41421" viewBox="0 0 48 48" xmlns="http://www.w3.org/2000/svg">
 <linearGradient id="a" x2="1" gradientTransform="matrix(14.119 -33.6712 33.6712 14.119 36.3851 36.0318)" gradientUnits="userSpaceOnUse">
  <stop stop-color="#006783" offset="0"/>
  <stop stop-color="#20ccff" offset="1"/>
 </linearGradient>
 <g transform="scale(.75)">
  <path d="m39.954 19.94c-2.19-2.19-5.539-2.366-7.51-.395l-16.006 16.006c-1.319 1.319-2.343 2.358-1.779 4.15l-5.928 5.929c-1.971 1.97-1.004 6.11 1.186 8.299 2.189 2.19 6.329 3.157 8.299 1.186l5.929-5.928c1.792.564 2.831-.46 4.15-1.779l16.006-16.007c1.971-1.97 1.795-5.319-.395-7.509z" fill="none" stroke="#006783" stroke-width="7.5"/>
  <path d="m39.954 19.94c-2.19-2.19-5.539-2.366-7.51-.395l-16.006 16.006c-1.319 1.319-2.343 2.358-1.779 4.15l-5.928 5.929c-1.971 1.97-1.004 6.11 1.186 8.299 2.189 2.19 6.329 3.157 8.299 1.186l5.929-5.928c1.792.564 2.831-.46 4.15-1.779l16.006-16.007c1.971-1.97 1.795-5.319-.395-7.509z" fill="#e4e4e4" fill-rule="nonzero"/>
  <path d="m30.745 16.25c.146-.166.299-.328.457-.486l10.372-10.372c4.162-4.162 10.921-4.162 15.084 0l1.886 1.887c4.163 4.163 4.163 10.921 0 15.084l-10.372 10.372c-.158.158-.32.31-.485.456l3.196 3.197c.586.585.586 1.536 0 2.121l-4.949 4.95c-.586.585-1.536.585-2.122 0l-23.334-23.335c-.586-.585-.586-1.536 0-2.121l4.95-4.95c.585-.585 1.535-.585 2.121 0z" fill="url(#a)"/>
  <path d="m30.898 39.233-6.502-6.503-13.005 13.005c-1.795 1.794-1.795 4.708 0 6.502 1.794 1.795 4.708 1.795 6.502 0z" fill="#ef008c"/>
 </g>
</svg>
