<svg clip-rule="evenodd" fill-rule="evenodd" stroke-linejoin="round" stroke-miterlimit="2" viewBox="0 0 48 48" xmlns="http://www.w3.org/2000/svg">
 <g fill-rule="nonzero">
  <path d="m15.845 2.376c-2.077 0-3.786 1.706-3.786 3.78 0 2.073 1.709 3.779 3.786 3.779s3.787-1.706 3.787-3.779c0-2.074-1.71-3.78-3.787-3.78zm6.491 7.559h-12.982c-0.89 0-1.623 0.731-1.623 1.62v8.623c0 0.889 0.733 1.62 1.623 1.62s1.623-0.731 1.623-1.62v-0.022-6.981h1.082v20.015c-1e-3 7e-3 -1e-3 0.015-1e-3 0.023 0 0.888 0.733 1.619 1.623 1.619 0.891 0 1.623-0.731 1.623-1.619v-0.023-11.377h1.082v11.324c0 0.888 0.733 1.62 1.623 1.62s1.623-0.732 1.623-1.62v-0.023-19.939h1.082v7.057c-1e-3 7e-3 -1e-3 0.015-1e-3 0.022 0 0.889 0.733 1.62 1.623 1.62 0.891 0 1.623-0.731 1.623-1.62v-0.022-8.677c0-0.889-0.732-1.62-1.623-1.62z" fill="#9ccc65"/>
  <path d="m24.5 7.771c-2.077 0-3.787 1.706-3.787 3.78 0 2.073 1.71 3.779 3.787 3.779s3.787-1.706 3.787-3.779c0-2.074-1.71-3.78-3.787-3.78zm6.491 7.559h-12.982c-0.891 0-1.623 0.731-1.623 1.62v8.624c0 0.888 0.732 1.62 1.623 1.62 0.89 0 1.623-0.732 1.623-1.62v-0.023-6.981h1.081v20.038c0 0.888 0.733 1.62 1.623 1.62 0.891 0 1.623-0.732 1.623-1.62v-0.023-11.377h1.082v11.324c0 0.888 0.732 1.62 1.623 1.62 0.89 0 1.623-0.732 1.623-1.62v-0.023-19.939h1.081v7.08c0 0.888 0.733 1.62 1.623 1.62 0.891 0 1.623-0.732 1.623-1.62v-0.023-8.677c0-0.889-0.733-1.62-1.623-1.62z" fill="#43a047"/>
  <path d="m33.155 13.181c-2.077 0-3.787 1.706-3.787 3.779s1.71 3.78 3.787 3.78 3.787-1.707 3.787-3.78-1.71-3.779-3.787-3.779zm6.491 7.559h-12.982c-0.89 0-1.623 0.731-1.623 1.619v8.624c0 0.889 0.732 1.62 1.623 1.62 0.89 0 1.623-0.731 1.623-1.62v-0.023-6.981h1.081v20.038c0 0.889 0.733 1.62 1.623 1.62 0.891 0 1.623-0.731 1.623-1.62v-0.023-11.376h1.082v11.323c0 0.889 0.732 1.62 1.623 1.62 0.89 0 1.623-0.731 1.623-1.62v-0.023-19.939h1.081v7.08c0 0.889 0.733 1.62 1.623 1.62 0.891 0 1.623-0.731 1.623-1.62v-0.023-8.677c0-0.888-0.732-1.619-1.623-1.619z" fill="#00695c"/>
 </g>
</svg>
