<svg clip-rule="evenodd" fill-rule="evenodd" stroke-linejoin="round" stroke-miterlimit="2" viewBox="0 0 48 48" xmlns="http://www.w3.org/2000/svg">
 <linearGradient id="a" x2="1" gradientTransform="matrix(0 -33.6872 33.6872 0 923.28 40.4502)" gradientUnits="userSpaceOnUse">
  <stop stop-color="#5d361a" offset="0"/>
  <stop stop-color="#80502e" offset="1"/>
 </linearGradient>
 <path d="m39.44 45.668h-30.88c-3.438 0-6.228-2.79-6.228-6.228v-30.88c0-3.438 2.79-6.228 6.228-6.228h30.88c3.438 0 6.228 2.79 6.228 6.228v30.88c0 3.438-2.79 6.228-6.228 6.228z" fill="url(#a)"/>
 <path d="m15.425 16.939v16.392c5.097 3.366 11.558 5.381 17.15 7.818v-6.125c-6.137-1.333-11.005-4.173-11.005-4.761.001-1.555-.02-3.813-.02-3.813h7.35v-4.9h-7.37s-.039-1.669-.04-2.468c-.001-.474 5.233-4.329 9.86-6.106v-6.125c-5.191 2.668-11.398 6.237-15.925 10.088z" fill="#ffffff" fill-rule="nonzero"/>
</svg>
