<svg clip-rule="evenodd" fill-rule="evenodd" stroke-linejoin="round" stroke-miterlimit="2" viewBox="0 0 48 48" xmlns="http://www.w3.org/2000/svg">
 <linearGradient id="a" x2="1" gradientTransform="matrix(0 -35.9504 35.9504 0 24.5658 40)" gradientUnits="userSpaceOnUse">
  <stop stop-color="#e7e7e7" offset="0"/>
  <stop stop-color="#f3f3f3" offset="1"/>
 </linearGradient>
 <g fill-rule="nonzero">
  <path d="m34.667 21.333v10.667h-10.667v12c9.941 0 18-8.059 18-18v-4.667z" fill="#545b5d"/>
  <path d="m6 21.333v4.667c0 4.773 1.896 9.353 5.272 12.728 3.375 3.376 7.955 5.272 12.728 5.272h18l-1-1 1-1-1-1 1-1h-18v-8h-10.667v-10.667z" fill="#8a8a8a"/>
  <path d="m23.944 4c-9.919.03-17.944 8.081-17.944 18 0 9.941 8.059 18 18 18s18-8.059 18-18-8.059-18-18-18zm.056 10.667c4.049 0 7.333 3.284 7.333 7.333s-3.284 7.333-7.333 7.333-7.333-3.284-7.333-7.333 3.284-7.333 7.333-7.333z" fill="url(#a)"/>
  <path d="m24 14.033c-4.418 0-8 3.583-8 8 0 1.196.268 2.377.784 3.455.459-3.636 3.551-6.364 7.216-6.364s6.757 2.728 7.216 6.364c.516-1.08.784-2.259.784-3.455 0-4.417-3.582-8-8-8z" fill="#735e4c"/>
 </g>
 <path d="m33 22c0-4.971-4.029-9-9-9s-9 4.029-9 9 4.029 9 9 9 9-4.029 9-9zm-2.077 0c0 3.824-3.099 6.923-6.923 6.923s-6.923-3.099-6.923-6.923 3.099-6.923 6.923-6.923 6.923 3.099 6.923 6.923z" fill="#ccab8f"/>
</svg>
