<svg clip-rule="evenodd" fill-rule="evenodd" stroke-linejoin="round" stroke-miterlimit="2" viewBox="0 0 48 48" xmlns="http://www.w3.org/2000/svg">
 <linearGradient id="a" x2="1" gradientTransform="matrix(0 -45.2041 45.2041 0 23.3168 46.602)" gradientUnits="userSpaceOnUse">
  <stop stop-color="#001f69" offset="0"/>
  <stop stop-color="#4747d1" offset="1"/>
 </linearGradient>
 <g fill-rule="nonzero">
  <path d="m5.815 18.349-.002-.008c-.144-.431-1.236-4.022-1.379-4.482-.144-.517.143-1.091.689-1.235 3.65-1.12 29.192-8.964 36.49-11.176.546-.173 1.091.115 1.264.661.143.43 1.235 4.021 1.379 4.481.143.517-.144 1.091-.69 1.235-3.238.994-26.6 8.146-34.363 10.524h34.118c.554 0 1.021.439 1.021 1.023v4.735c0 .585-.467 1.023-1.021 1.023h-1.239v19.156c0 1.277-.991 2.316-2.237 2.316h-31.69c-1.246 0-2.237-1.039-2.237-2.316v-19.156h-.109c-.583 0-1.021-.438-1.021-1.023v-4.735c0-.584.438-1.023 1.021-1.023h.006z" fill="url(#a)"/>
  <path d="m32.179 25.13 6.795-6.781h-7.437l-6.797 6.781zm-17.823 0 6.797-6.781h-7.468l-6.797 6.781zm1.312-8.743-8.362-4.452 7.04-2.155 8.361 4.453zm17.038-5.228-8.361-4.483 7.039-2.126 8.362 4.482z" fill="#f1f1f1"/>
  <path d="m3.658 12.675v11.378c0 .612.517 1.077 1.126 1.077h11.286c.821 0 1.368-.786 1.064-1.484-.517-1.135-4.592-10.273-5.11-11.408-.182-.407-.577-.64-1.034-.64h-6.206c-.609 0-1.126.466-1.126 1.077z" fill="#a9a9a9"/>
  <path d="m19.48 29.651v12.431l10.171-6.202z" fill="#f1f1f1"/>
 </g>
</svg>
