<svg clip-rule="evenodd" fill-rule="evenodd" stroke-linejoin="round" stroke-miterlimit="2" viewBox="0 0 48 48" xmlns="http://www.w3.org/2000/svg">
 <linearGradient id="a" x2="1" gradientTransform="matrix(0 -36.2165 36.2165 0 360.171 42.119)" gradientUnits="userSpaceOnUse">
  <stop stop-color="#244473" offset="0"/>
  <stop stop-color="#3e68a5" offset="1"/>
 </linearGradient>
 <path d="m39.44 2.332c3.438 0 6.228 2.79 6.228 6.228v30.88c0 3.438-2.79 6.228-6.228 6.228h-30.88c-3.438 0-6.228-2.79-6.228-6.228v-30.88c0-3.438 2.79-6.228 6.228-6.228z" fill="url(#a)"/>
 <path d="m2.332 9.588v-1.028c0-3.438 2.79-6.228 6.228-6.228h30.88c3.438 0 6.228 2.79 6.228 6.228v1.028z" fill="#ebebeb" fill-opacity=".1"/>
 <path d="m45.668 38.412v1.028c0 3.438-2.79 6.228-6.228 6.228h-30.88c-3.438 0-6.228-2.79-6.228-6.228v-1.028z" fill-opacity=".2"/>
 <g fill-opacity=".5">
  <path d="m33.317 7.335h-.105c-.099 0-.178-.081-.178-.18v-.302c-.426-.107-.548-.36-.548-.879 0-.766.622-1.389 1.388-1.389s1.388.623 1.388 1.389c0 .511-.129.763-.546.874v.306c0 .1-.081.18-.18.18h-.104c-.099 0-.18-.08-.18-.18v-.24c-.047.003-.095.005-.146.006v.235c0 .099-.08.179-.179.179h-.104c-.1 0-.18-.08-.18-.179v-.234c-.051-.001-.1-.003-.147-.006v.24c0 .099-.08.18-.179.18zm-.018-1.926c.235.092.426.185.426.414 0 .227-.154.271-.426.412-.209.109-.427-.185-.427-.412 0-.229.207-.499.427-.414zm1.145 0c.227-.064.426.185.426.414 0 .227-.224.533-.426.412-.248-.147-.426-.185-.426-.412 0-.229.166-.34.426-.414z" fill="#ededed"/>
  <path d="m40.535 5.039.418.442.661-.626.528.557-.66.626.418.442c.143.15.141.383-.003.518-.144.137-.376.126-.517-.024l-.42-.442-.662.628-.529-.557.664-.596-.419-.475c-.143-.15-.14-.382.003-.518.144-.136.376-.125.518.025z" fill="#fff"/>
  <path d="m37.201 4.892.004-.169.607.016-.006.169.328.009c.314.009.563.272.554.586l-.031 1.139c-.008.315-.27.564-.585.555l-1.26-.034c-.315-.008-.563-.271-.554-.585l.03-1.14c.008-.315.271-.563.586-.555zm-.182.496c.163.004.292.141.287.304-.003.163-.14.292-.303.288s-.293-.141-.288-.304c.004-.163.141-.292.304-.288zm1.009.027c.163.005.293.14.288.304-.004.164-.14.293-.304.288-.163-.004-.292-.14-.288-.304.005-.163.141-.292.304-.288z" fill="#fff"/>
 </g>
 <path d="m22 17v7.63c0 1.245-.96 2.298-2.203 2.366-.603.033-1.16-.163-1.591-.51-.517-.415-1.243-.397-1.764.014-.397.313-.898.499-1.444.499s-1.045-.186-1.442-.499c-.527-.415-1.253-.415-1.781 0-.393.31-.888.496-1.426.499-1.293.01-2.349-1.079-2.349-2.372v-7.627c0-3.866 3.134-7 7-7 3.865 0 7 3.134 7 7zm-11.585-.579 1.158.579s-1.158.579-1.158.579c-.371.185-.521.636-.336 1.006.185.371.636.521 1.007.336l2.5-1.25c.254-.127.414-.387.414-.671s-.16-.544-.414-.671l-2.5-1.25c-.371-.185-.822-.035-1.007.336-.185.37-.035.821.336 1.006zm6.585 1.579h2c.552 0 1-.448 1-1s-.448-1-1-1h-2c-.552 0-1 .448-1 1s.448 1 1 1z" fill="#e4e4e4"/>
</svg>
