<svg clip-rule="evenodd" fill-rule="evenodd" stroke-linejoin="round" stroke-miterlimit="2" viewBox="0 0 48 48" xmlns="http://www.w3.org/2000/svg">
 <g transform="translate(0 -1004.36)">
  <path d="m3 1035.36c0-6.62 9.41-12 21-12s21 5.38 21 12c0 6.63-9.41 12-21 12s-21-5.37-21-12z" fill="#3ca13c" fill-rule="nonzero"/>
  <path d="m42.907 1033.22c0 6.09-8.472 11.03-18.907 11.03s-18.907-4.94-18.907-11.03v-11.69h37.814z" fill="none"/>
  <g fill-rule="nonzero">
   <path d="m43 1033.25c0 6.13-8.514 11.11-19 11.11s-19-4.98-19-11.11v-11.78h38z" fill="#e4e4e4"/>
   <path d="m5 1022.36c0-6.07 8.514-11 19-11s19 4.93 19 11-8.514 11-19 11-19-4.93-19-11z" fill-opacity=".1"/>
   <path d="m5 1021.36c0-6.07 8.514-11 19-11s19 4.93 19 11-8.514 11-19 11-19-4.93-19-11z" fill="#f7f7f7"/>
  </g>
  <path d="m13 1018.09h22v4.279h-22z" fill="#3ca13c"/>
  <path d="m13 1022.37c0-2.76 4.929-5 11-5s11 2.24 11 5c0 2.75-4.929 4.99-11 4.99s-11-2.24-11-4.99z" fill="#3ca13c" fill-rule="nonzero"/>
  <path d="m13 1017.86c0-2.48 4.929-4.5 11-4.5s11 2.02 11 4.5c0 2.49-4.929 4.5-11 4.5s-11-2.01-11-4.5z" fill="#4ccc4c" fill-rule="nonzero"/>
  <path d="m13.183 1018.55c-.031-.14-.046-.28-.046-.42 0-2.56 4.866-4.64 10.86-4.64 5.995 0 10.861 2.08 10.861 4.64 0 .32-.079.64-.23.95" fill="none"/>
 </g>
</svg>
