<svg clip-rule="evenodd" fill-rule="evenodd" stroke-linejoin="round" stroke-miterlimit="2" viewBox="0 0 48 48" xmlns="http://www.w3.org/2000/svg">
 <linearGradient id="a" x2="1" gradientTransform="matrix(32.8181 27.1271 -27.1271 32.8181 7.4961 12.9974)" gradientUnits="userSpaceOnUse">
  <stop stop-color="#433247" offset="0"/>
  <stop stop-color="#272f43" offset="1"/>
 </linearGradient>
 <circle cx="24" cy="24" r="22.764" fill="url(#a)"/>
 <path d="m33.368 13.583c.772 0 1.366.167 1.783.5.438.334.657.793.657 1.377 0 .292-.041.573-.125.844l-.813 2.91c-.146.542-.386.928-.72 1.157-.333.23-.771.344-1.314.344-.521 0-.938-.104-1.251-.313-.313-.229-.542-.594-.688-1.094l-.501-1.784c-.083-.312-.187-.521-.312-.625-.126-.104-.386-.157-.782-.157h-3.129l-1.752 6.194h.595c.292 0 .542-.041.751-.125.229-.083.469-.24.719-.469l.97-.813c.354-.313.667-.532.938-.657.292-.146.595-.219.908-.219.396 0 .719.114.969.344.271.229.407.553.407.97 0 .166-.031.365-.094.594l-1.376 4.755c-.313 1.022-.876 1.533-1.69 1.533-.667 0-1.188-.344-1.564-1.032l-.563-1.064c-.146-.292-.281-.48-.407-.563-.125-.084-.312-.125-.563-.125h-.907l-1.314 4.661c-.041.125-.062.292-.062.5 0 .292.062.532.187.72.146.188.355.386.626.594.23.188.386.344.469.469.084.105.125.24.125.407 0 .376-.166.636-.5.782s-.824.219-1.47.219h-7.852c-.543 0-.949-.094-1.22-.281-.271-.209-.365-.49-.282-.845.042-.188.125-.334.25-.438.105-.125.271-.261.501-.407.354-.208.636-.427.845-.657.208-.229.375-.584.5-1.063l3.848-13.483c.083-.271.125-.521.125-.751 0-.25-.042-.459-.125-.626-.063-.166-.167-.344-.313-.531-.188-.271-.282-.49-.282-.657 0-.063.021-.178.063-.344.083-.272.271-.459.563-.563.292-.126.72-.188 1.283-.188h13.889z" fill="#fff" fill-rule="nonzero"/>
</svg>
