<svg clip-rule="evenodd" fill-rule="evenodd" stroke-linejoin="round" stroke-miterlimit="2" viewBox="0 0 48 48" xmlns="http://www.w3.org/2000/svg">
 <linearGradient id="a" x2="1" gradientTransform="matrix(0 -33.6872 33.6872 0 923.28 40.4502)" gradientUnits="userSpaceOnUse">
  <stop stop-color="#cdd8db" offset="0"/>
  <stop stop-color="#f7f7f7" offset="1"/>
 </linearGradient>
 <path d="m39.44 45.668h-30.88c-3.438 0-6.228-2.79-6.228-6.228v-30.88c0-3.438 2.79-6.228 6.228-6.228h30.88c3.438 0 6.228 2.79 6.228 6.228v30.88c0 3.438-2.79 6.228-6.228 6.228z" fill="url(#a)"/>
 <path d="m17.152 15c-5.082 0-9.152 3.977-9.152 8.965 0 5.082 4.118 9.035 9.459 9.035 2.612 0 4.87-.917 6.588-2.682 1.6-1.67 2.494-3.837 2.494-6.072v-.246h-11.541v3h7.377c-.941 1.929-2.823 2.895-5.106 2.895-3.411 0-6.025-2.566-6.025-5.883 0-1.506.637-3.152 1.625-4.188 1.012-1.106 2.54-1.719 4.211-1.719 1.827 0 3.363.659 4.441 1.895h3.952c-1.284-2.914-4.704-5-8.323-5zm10.848 0v18h3v-6.844c0-1.339.373-2.094.715-2.703.464-.828 1.319-1.291 2.394-1.291 1.907 0 2.994 1.122 2.891 3.945v6.893h3v-7.623c0-1.973-.244-3.07-.904-4.068-.905-1.389-2.468-2.309-4.399-2.309-1.393 0-2.719.555-3.697 1.432v-5.432z" fill="#4c4c4c" fill-rule="nonzero"/>
</svg>
