<svg clip-rule="evenodd" fill-rule="evenodd" stroke-linejoin="round" stroke-miterlimit="2" viewBox="0 0 48 48" xmlns="http://www.w3.org/2000/svg">
 <linearGradient id="a" x2="1" gradientTransform="matrix(0 -42.9219 42.9219 0 24 45.4995)" gradientUnits="userSpaceOnUse">
  <stop stop-color="#b6b6b6" offset="0"/>
  <stop stop-color="#fdf6e3" offset="1"/>
 </linearGradient>
 <path d="m39.44 2.332c3.438 0 6.228 2.79 6.228 6.228v30.88c0 3.438-2.79 6.228-6.228 6.228h-30.88c-3.438 0-6.228-2.79-6.228-6.228v-30.88c0-3.438 2.79-6.228 6.228-6.228z" fill="url(#a)"/>
 <path d="m6.847 33.765 5.175 2.593c.037.019.061.054.061.091 0 .038-.023.073-.061.092l-5.162 2.612c-.037.019-.084.019-.121.001-.037-.019-.061-.054-.061-.092l-.012-5.205c0-.038.023-.073.06-.092s.084-.019.121 0zm2.527-11.932c1.495 0 2.709 1.214 2.709 2.709s-1.214 2.708-2.709 2.708-2.708-1.213-2.708-2.708 1.213-2.709 2.708-2.709zm2.709-11.084c0-.46-.374-.833-.834-.833h-3.75c-.46 0-.833.373-.833.833v3.751c0 .459.373.833.833.833h3.75c.46 0 .834-.374.834-.833z" fill="#3d3d3d"/>
 <path d="m41.334 35.603c0-.424-.344-.769-.769-.769h-22.296c-.425 0-.769.345-.769.769v1.712c0 .425.344.769.769.769h22.296c.425 0 .769-.344.769-.769zm0-11.917c0-.425-.344-.769-.769-.769h-22.296c-.425 0-.769.344-.769.769v1.712c0 .424.344.769.769.769h22.296c.425 0 .769-.345.769-.769zm0-11.918c0-.424-.344-.769-.769-.769h-22.296c-.425 0-.769.345-.769.769v1.712c0 .425.344.769.769.769h22.296c.425 0 .769-.344.769-.769z" fill="#6c6c6c"/>
</svg>
