<svg clip-rule="evenodd" fill-rule="evenodd" stroke-linejoin="round" stroke-miterlimit="2" viewBox="0 0 48 48" xmlns="http://www.w3.org/2000/svg">
 <linearGradient id="a" x2="1" gradientTransform="matrix(0 -35.3911 35.3911 0 968.766 41.2823)" gradientUnits="userSpaceOnUse">
  <stop stop-color="#006783" offset="0"/>
  <stop stop-color="#13bee3" offset="1"/>
 </linearGradient>
 <circle cx="24" cy="24" r="22.764" fill="url(#a)"/>
 <path transform="matrix(1.1382 0 0 1.1382 -3.3168 -3.3168)" d="m26.043 14c-2.274 0-4.243 1.309-5.219 3.209-.632-.404-1.381-.641-2.186-.641-2.256 0-4.085 1.839-4.085 4.108 0 .36.057.709.144 1.043-1.63 1.105-2.697 2.985-2.697 5.119 0 3.414 2.733 6.162 6.128 6.162h11.744c3.395 0 6.128-2.748 6.128-6.162 0-2.726-1.75-5.025-4.181-5.841.066-.355.096-.718.096-1.092 0-3.261-2.629-5.905-5.872-5.905z" fill="#fff" fill-rule="nonzero"/>
</svg>
