<svg clip-rule="evenodd" fill-rule="evenodd" stroke-linejoin="round" stroke-miterlimit="2" viewBox="0 0 48 48" xmlns="http://www.w3.org/2000/svg">
 <linearGradient id="a" x2="1" gradientTransform="matrix(-.476427 -44.666 44.666 -.476427 172.261 44.7446)" gradientUnits="userSpaceOnUse">
  <stop stop-color="#16659e" offset="0"/>
  <stop stop-color="#4691c8" offset="1"/>
 </linearGradient>
 <path transform="translate(-.4455)" d="m42.059 6.707c0-2.783-2.256-5.04-5.039-5.04h-25.149c-2.783 0-5.039 2.257-5.039 5.04v34.586c0 2.783 2.256 5.04 5.039 5.04h25.149c2.783 0 5.039-2.257 5.039-5.04z" fill="url(#a)"/>
 <path d="m6.386 11.394v-4.687c0-2.783 2.256-5.04 5.039-5.04h25.149c2.783 0 5.039 2.257 5.039 5.04v4.687z" fill="#474747" fill-rule="nonzero"/>
 <path transform="translate(0 -3.46928)" d="m10.938 4c-.52 0-.938.408-.938.914v4.172c0 .506.418.914.938.914h2.125c.519 0 .937-.408.937-.914v-4.172c0-.506-.418-.914-.937-.914zm8 0c-.52 0-.938.408-.938.914v4.172c0 .506.418.914.938.914h2.125c.519 0 .937-.408.937-.914v-4.172c0-.506-.418-.914-.937-.914zm8 0c-.52 0-.938.408-.938.914v4.172c0 .506.418.914.938.914h2.125c.519 0 .937-.408.937-.914v-4.172c0-.506-.418-.914-.937-.914zm8 0c-.52 0-.938.408-.938.914v4.172c0 .506.418.914.938.914h2.125c.519 0 .937-.408.937-.914v-4.172c0-.506-.418-.914-.937-.914z" fill="#8e8e8e" fill-rule="nonzero"/>
 <path transform="translate(1.49162 -1.19638)" d="m14.987 39c.828 0 1.5.672 1.5 1.5s-.672 1.5-1.5 1.5-1.5-.672-1.5-1.5.672-1.5 1.5-1.5zm16 0c.828 0 1.5.672 1.5 1.5s-.672 1.5-1.5 1.5-1.5-.672-1.5-1.5.672-1.5 1.5-1.5zm-8.849-.478c.058.037.776.479 1.861.478.467 0 .824-.084 1.069-.286.353-.289.432-.764.432-1.214 0-.451-.034-.814-.108-1.105-.041-.159-.063-.284-.149-.346-.216-.158-.512-.081-.805-.073-.464.014-.939.051-1.388.033-1-.04-1.885-.335-2.549-1.088-.544-.616-.997-1.64-.992-3.402-.016-1.362.447-2.69 1.505-3.556.69-.565 1.652-.962 2.986-.962 3.223 0 4.207 1.61 4.207 1.61.491.666.349 1.606-.317 2.097-.645.475-1.546.358-2.04-.243-.067-.042-.768-.464-1.85-.464-.477 0-.839.081-1.085.283-.347.283-.411.752-.406 1.221-.001.449.031.81.105 1.1.039.154.058.276.141.336.215.157.509.079.802.07.464-.015.941-.051 1.391-.032.999.041 1.885.336 2.551 1.092.546.618 1.001 1.643 1.001 3.429 0 1.342-.474 2.667-1.528 3.533-.693.569-1.653.967-2.972.967-3.162.001-4.19-1.587-4.19-1.587-.504-.656-.38-1.599.277-2.103.638-.489 1.546-.386 2.051.212zm-12.271-11.536c.275-.027 2.62-.228 4.521.431 1.743.605 3.12 1.836 3.12 4.062s-1.377 3.457-3.12 4.062c-.954.33-2.019.444-2.88.472v4.466c0 .828-.672 1.5-1.5 1.5-.827 0-1.499-.672-1.499-1.5l-.001-11.985.015-.224.053-.237.102-.247.129-.204.175-.196.074-.065c.073-.06.152-.114.237-.16l.25-.108.221-.054zm1.641 2.945v3.096c.583-.023 1.274-.104 1.897-.321.562-.194 1.103-.51 1.103-1.227 0-.718-.541-1.033-1.103-1.228-.623-.216-1.314-.297-1.897-.32z" fill="#fff" fill-opacity=".75"/>
</svg>
