<svg clip-rule="evenodd" fill-rule="evenodd" stroke-linejoin="round" stroke-miterlimit="2" viewBox="0 0 48 48" xmlns="http://www.w3.org/2000/svg">
 <linearGradient id="a" x2="1" gradientTransform="matrix(0 -33.6872 33.6872 0 923.28 40.4502)" gradientUnits="userSpaceOnUse">
  <stop stop-color="#006783" offset="0"/>
  <stop stop-color="#13bee3" offset="1"/>
 </linearGradient>
 <linearGradient id="b" x2="1" gradientTransform="matrix(0 -33.6872 33.6872 0 923.28 40.4502)" gradientUnits="userSpaceOnUse">
  <stop stop-color="#9c9c9c" offset="0"/>
  <stop stop-color="#b6b5b2" offset="1"/>
 </linearGradient>
 <path d="m39.44 45.668h-30.88c-3.438 0-6.228-2.79-6.228-6.228v-30.88c0-3.438 2.79-6.228 6.228-6.228h30.88c3.438 0 6.228 2.79 6.228 6.228v30.88c0 3.438-2.79 6.228-6.228 6.228z" fill="url(#a)"/>
 <path d="m45.668 39.44c0 3.438-2.79 6.228-6.228 6.228h-30.88c-3.438 0-6.228-2.79-6.228-6.228v-20.729c0-1.656 1.488-3 3.319-3h36.698c1.831 0 3.319 1.344 3.319 3z" fill="#3d384d"/>
 <g fill-rule="nonzero">
  <path transform="matrix(1.10159 0 0 1 -2.06449 -2.197)" d="m7.869 25.038h32.262v15.487c0 1.628-1.198 2.948-2.676 2.948h-26.91c-1.478 0-2.676-1.32-2.676-2.948v-15.487z" fill="#d0d0d0"/>
  <path transform="translate(-2.11582 -.456969)" d="m11.133 26.419 19.663-15.905c.907-.735 2.22-.607 2.94.286l8.155 10.079-1.26 11.009-15.156 12.26c-.909.735-2.22.607-2.942-.284l-11.736-14.509c-.721-.892-.572-2.201.336-2.936z" fill="#fff"/>
  <path transform="translate(-2.11582 -.456969)" d="m12.448 28.044 11.724 14.494 15.156-12.26.944-8.048-8.162-10.092z" fill="#e7822b"/>
 </g>
 <path d="m39.44 32.27h-30.88c-3.438 0-6.228-2.79-6.228-6.228v-17.482c0-3.438 2.79-6.228 6.228-6.228h30.88c3.438 0 6.228 2.79 6.228 6.228v17.482c0 3.438-2.79 6.228-6.228 6.228z" fill="url(#b)"/>
 <circle cx="24" cy="23.886" r="6.913" fill="#898989"/>
 <circle cx="24" cy="21.581" r="6.913" fill="#ebebeb"/>
 <path d="m21.772 12.969-.447.895.447.896-.447.895.447.895-.447.896.447.895-.447.896.447.895-.447.896v.446c0 .961.512 1.847 1.343 2.327.831.479 1.855.479 2.686 0 .831-.48 1.343-1.366 1.343-2.327v-1.342l-.447-.895.447-.896-.447-.895.447-.896-.447-.895.447-.895-.447-.896.447-.895-.447-.896z" fill="#a0a0a0" fill-rule="nonzero"/>
 <path d="m26.25 15.654s-.606 1.638-2.198 1.8c-1.594.16-2.28-.904-2.28-.904l-.445.895s.935 1.246 2.725 1.141c1.788-.103 2.59-2.019 2.644-2.036zm0 1.791s-.606 1.637-2.198 1.798c-1.594.161-2.28-.902-2.28-.902l-.445.895s.935 1.246 2.725 1.141c1.788-.104 2.59-2.019 2.644-2.036zm0 1.791s-.646 1.637-2.239 1.799c-1.594.16-2.239-.903-2.239-.903l-.445.896s.895 1.245 2.684 1.141c1.788-.105 2.631-2.021 2.685-2.037z" fill="#fff" fill-opacity=".38" fill-rule="nonzero"/>
 <circle cx="24" cy="13.516" r="5.761" fill="#a0a0a0"/>
 <path d="m38.318 21.951-8.065-6.337c-.75-.59-1.838-.459-2.427.291s-.459 1.837.291 2.427l8.066 6.337c.75.589 1.837.459 2.426-.291.59-.751.459-1.838-.291-2.427zm-26.501 2.718 8.066-6.337c.75-.59.88-1.677.291-2.427s-1.677-.881-2.427-.291l-8.065 6.337c-.75.589-.881 1.676-.291 2.427.589.75 1.676.88 2.426.291zm12.183-13.924-12.185-9.536c-.751-.588-1.839-.455-2.426.296-.588.751-.456 1.838.295 2.426l13.741 10.753c.751.588 1.838.455 2.426-.296.23-.294.35-.64.365-.988l12.1-9.469c.751-.588.883-1.675.295-2.426-.587-.751-1.675-.884-2.426-.296z" fill="#d0d0d0"/>
 <circle cx="24" cy="11.212" r="5.761" fill="#ebebeb"/>
</svg>
