<svg clip-rule="evenodd" fill-rule="evenodd" stroke-linejoin="round" stroke-miterlimit="2" viewBox="0 0 48 48" xmlns="http://www.w3.org/2000/svg">
 <linearGradient id="a" x2="1" gradientTransform="matrix(0 -43.3368 43.3368 0 571.82 45.6684)" gradientUnits="userSpaceOnUse">
  <stop stop-color="#003cc6" offset="0"/>
  <stop stop-color="#b852fb" offset="1"/>
 </linearGradient>
 <path d="m45.668 8.56c0-3.438-2.79-6.228-6.228-6.228h-30.88c-3.438 0-6.228 2.79-6.228 6.228v30.88c0 3.438 2.79 6.228 6.228 6.228h30.88c3.438 0 6.228-2.79 6.228-6.228z" fill="url(#a)"/>
 <path d="m39.533 16.325-6.259-7.307c-.01-.008-.017-.015-.026-.022-.04-.032-.082-.058-.127-.077-.182-.077-.401-.052-.565.083-.096.08-.155.186-.179.298-.005.01-.006.021-.008.033l-1.13 6.143-4.187 3.479c-.027.022-.056.046-.082.069l-1.423 1.183-1.241 1.031-.521-.607c-.295-.343-.817-.385-1.169-.093-.351.292-.399.807-.105 1.151l.521.607-1.199.995-1.659-1.936 1.858-1.544c.477-.397.54-1.096.14-1.562-.063-.076-.137-.14-.217-.193l-.116-.069c-.394-.204-.892-.165-1.255.136l-5.486 4.558c-.477.397-.541 1.096-.141 1.563.063.073.133.137.21.189.04.029.083.054.126.075.394.202.891.163 1.253-.138l1.857-1.542 1.659 1.936-1.322 1.1-.521-.607c-.295-.343-.819-.385-1.17-.093-.092.077-.163.168-.214.27-.138.281-.107.627.11.881l.521.606-2.015 1.674c-.027.021-.055.045-.082.067l-4.8 3.986-1.936.018c-.006-.001-.011 0-.015 0-.054.002-.106.022-.151.058-.097.081-.117.219-.048.321l2.878 3.358c.007.006.013.013.02.017l.004.002.036.021c.085.043.191.032.27-.032.044-.038.072-.085.084-.138 0-.005.002-.009.003-.014l.352-1.912 1.92-1.596c.144.603.429 1.182.861 1.686 1.477 1.724 4.106 1.933 5.871.466.027-.022.056-.046.082-.069l2.014-1.674.604.705c.293.343.819.384 1.169.093.352-.291.399-.808.105-1.151l-.604-.704 1.322-1.099 1.761 2.056c.411.479 1.138.536 1.629.128.137-.113.241-.251.309-.4.179-.387.13-.856-.165-1.201l-1.761-2.055 1.199-.996.603.704c.294.343.819.386 1.17.093.352-.292.397-.808.104-1.15l-.604-.705 2.779-2.309c.191-.163.364-.338.518-.525 1.245-1.503 1.276-3.701-.029-5.224-.432-.504-.963-.878-1.542-1.121l1.311-1.088 6.375-.064c.013 0 .024 0 .035-.001.117-.005.233-.045.328-.124.211-.175.252-.476.103-.697zm-20.253 16.828c-.012.012-.024.021-.037.032-.794.66-1.973.566-2.637-.21-.663-.774-.56-1.935.232-2.594l2.1-1.743 2.402 2.804zm3.333-2.768-2.403-2.805.088-.071 1.236-1.027 2.403 2.804-.282.234zm3.096-2.572-2.403-2.804 1.199-.996 2.403 2.804zm4.97-4.134c-.017.017-.034.033-.052.048l-2.447 2.033-2.403-2.804 1.824-1.517.585-.485c.031-.025.063-.049.095-.074.789-.578 1.904-.461 2.542.284.563.654.573 1.587.084 2.257-.065.092-.141.178-.228.258z" fill="#fff" fill-rule="nonzero"/>
</svg>
