<svg clip-rule="evenodd" fill-rule="evenodd" stroke-linejoin="round" stroke-miterlimit="2" viewBox="0 0 48 48" xmlns="http://www.w3.org/2000/svg">
 <linearGradient id="a" x2="1" gradientTransform="matrix(0 -36.2165 36.2165 0 787.671 42.119)" gradientUnits="userSpaceOnUse">
  <stop stop-color="#566069" offset="0"/>
  <stop stop-color="#6c7884" offset="1"/>
 </linearGradient>
 <path d="m39.44 2.332c3.438 0 6.228 2.79 6.228 6.228v30.88c0 3.438-2.79 6.228-6.228 6.228h-30.88c-3.438 0-6.228-2.79-6.228-6.228v-30.88c0-3.438 2.79-6.228 6.228-6.228z" fill="url(#a)"/>
 <path d="m45.668 36.859v2.581c0 3.438-2.79 6.228-6.228 6.228h-30.88c-3.438 0-6.228-2.79-6.228-6.228v-2.581z" fill="#dfdfdf" fill-rule="nonzero"/>
 <path transform="translate(-16)" d="m26 39.263c1.104 0 2 .896 2 2s-.896 2-2 2-2-.896-2-2 .896-2 2-2zm6 0c1.104 0 2 .896 2 2s-.896 2-2 2-2-.896-2-2 .896-2 2-2zm6 0c1.104 0 2 .896 2 2s-.896 2-2 2-2-.896-2-2 .896-2 2-2z" fill="#5c6771" fill-opacity=".72"/>
 <circle cx="37.530105" cy="37.587605" r="9.489205" fill="#fff" stroke-width=".862655"/>
 <path transform="matrix(1.12302 0 0 1.12302 -1.77555 -1.71804)" d="m33.5 29-.133 1.58c-.501.186-.966.455-1.377.797l-1.437-.676-1.5 2.598 1.304.906c-.046.263-.07.528-.072.795 0 .268.023.535.069.799l-1.301.902 1.5 2.598 1.433-.674c.412.34.879.608 1.381.791l.133 1.584h3l.131-1.58c.501-.186.968-.455 1.379-.797l1.435.676 1.5-2.598-1.302-.906c.046-.263.07-.528.072-.795 0-.268-.023-.535-.069-.799l1.301-.902-1.5-2.598-1.433.674c-.412-.34-.879-.608-1.381-.791l-.133-1.584zm1.451 4h.049c1.097 0 2 .903 2 2s-.903 2-2 2-2-.903-2-2c0-1.079.873-1.974 1.951-2z" fill="#697581" fill-rule="nonzero"/>
</svg>
