<svg clip-rule="evenodd" fill-rule="evenodd" stroke-linejoin="round" stroke-miterlimit="2" viewBox="0 0 48 48" xmlns="http://www.w3.org/2000/svg">
 <linearGradient id="a" x2="1" gradientTransform="matrix(0 -33.6872 33.6872 0 923.28 40.4502)" gradientUnits="userSpaceOnUse">
  <stop stop-color="#2f2f2f" offset="0"/>
  <stop stop-color="#444" offset="1"/>
 </linearGradient>
 <path d="m39.44 45.668h-30.88c-3.438 0-6.228-2.79-6.228-6.228v-30.88c0-3.438 2.79-6.228 6.228-6.228h30.88c3.438 0 6.228 2.79 6.228 6.228v30.88c0 3.438-2.79 6.228-6.228 6.228z" fill="url(#a)"/>
 <path transform="translate(-.029133 -.148883)" d="m42.342 7.926c0-.602-.239-1.18-.665-1.606s-1.004-.665-1.606-.665h-32.084c-.602 0-1.18.239-1.606.665-.425.426-.665 1.004-.665 1.606v10.235h36.626z" fill="#9abaac"/>
 <path transform="matrix(1 0 0 1.06178 0 -2.54295)" d="m22.987 23.482c0-.883-.76-1.598-1.698-1.598h-13.904c-.938 0-1.698.715-1.698 1.598v5.289c0 .883.76 1.599 1.698 1.599h13.904c.938 0 1.698-.716 1.698-1.599z" fill="#638386"/>
 <path transform="matrix(1 0 0 1.06178 20.219 -2.54295)" d="m22.094 23.482c0-.883-.76-1.598-1.698-1.598h-13.904c-.938 0-1.698.715-1.698 1.598v5.289c0 .883.76 1.599 1.698 1.599h13.904c.938 0 1.698-.716 1.698-1.599z" fill="#707070"/>
 <path transform="matrix(1 0 0 1.06178 0 8.91791)" d="m22.987 23.482c0-.883-.76-1.598-1.698-1.598h-13.904c-.938 0-1.698.715-1.698 1.598v5.289c0 .883.76 1.599 1.698 1.599h13.904c.938 0 1.698-.716 1.698-1.599z" fill="#707070"/>
 <path transform="matrix(1 0 0 1.06178 20.219 8.91791)" d="m22.094 23.482c0-.883-.76-1.598-1.698-1.598h-13.904c-.938 0-1.698.715-1.698 1.598v5.289c0 .883.76 1.599 1.698 1.599h13.904c.938 0 1.698-.716 1.698-1.599z" fill="#057c9a"/>
 <g fill="#fff" fill-opacity=".75">
  <path d="m29.9463 24.8542h7.432v.688h-7.432z"/>
  <path d="m37.379 37.448h-7.432v.687h7.432zm0-2.266h-7.432v.688h7.432z"/>
  <path d="m14.681 36.315h3.372v.688h-3.372v3.372h-.688v-3.372h-3.372v-.688h3.372v-3.372h.688z"/>
  <path transform="matrix(1.07087 0 0 1.16442 .688467 -3.82798)" d="m12.838 27.085 2.594-5.867.678.253-2.906 6.575c-.055.124-.184.206-.329.21s-.279-.071-.341-.192l-1.425-2.751h-1.389v-.674h1.62c.141 0 .27.075.331.192z"/>
  <path d="m11.472 15.506c.006-.597.058-6.565.001-7.241-.041-.497.097-.896.395-1.167.275-.249.71-.402 1.344-.359l-.053.783c-.355-.024-.61.017-.764.157-.13.119-.158.303-.14.521.06.718.001 7.361.001 7.361 0 .027-.003.053-.008.079 0 0-.001.005-.004.014-.017.076-.118.47-.487.775-.254.21-.64.388-1.231.354l.045-.783c.327.019.546-.06.687-.176.138-.114.195-.255.214-.318zm22.09-1.155c0 .024-.005.045-.016.063-.01.018-.028.032-.054.043-.025.01-.059.018-.101.024-.041.006-.092.009-.152.009-.063 0-.115-.003-.157-.009s-.077-.014-.104-.024c-.027-.011-.046-.025-.058-.043s-.018-.039-.018-.063v-.534c-.213.23-.433.41-.662.539-.229.128-.48.193-.752.193-.297 0-.55-.058-.759-.173-.21-.115-.38-.271-.51-.467s-.225-.427-.285-.692c-.06-.264-.09-.544-.09-.837 0-.347.038-.661.113-.941.074-.279.185-.518.332-.716.146-.197.328-.349.545-.455.217-.107.468-.16.752-.16.237 0 .453.052.649.155s.39.255.582.456v-2.348c0-.021.005-.042.015-.061.011-.02.031-.035.061-.045s.068-.019.115-.027c.046-.007.105-.011.177-.011.075 0 .136.004.184.011.048.008.085.017.112.027s.047.025.061.045c.013.019.02.04.02.061zm-10.421-.274c0 .09-.006.159-.018.207s-.028.081-.047.101c-.02.019-.049.037-.088.054-.039.016-.085.03-.139.042s-.112.023-.175.032-.129.013-.198.013c-.14 0-.271-.014-.393-.042-.121-.029-.228-.088-.321-.178-.093-.089-.17-.217-.233-.384-.063-.166-.11-.386-.142-.66-.031-.274-.045-.61-.04-1.008.004-.398.029-.875.074-1.432h-1.437c.009.485-.001.918-.031 1.298s-.068.712-.115.996c-.046.285-.099.524-.159.717s-.103.319-.128.379-.046.104-.063.132c-.016.029-.031.051-.045.068-.013.016-.03.03-.051.04-.021.011-.045.018-.072.023l-.243.015c-.084 0-.15-.002-.2-.006-.049-.005-.086-.012-.112-.023-.025-.01-.042-.023-.051-.038s-.014-.03-.014-.045c0-.027.011-.07.034-.13.022-.06.051-.131.087-.213.036-.083.084-.22.144-.411.06-.192.113-.418.159-.678.047-.261.083-.564.108-.909.026-.346.038-.751.038-1.215h-.669c-.048 0-.085-.026-.112-.079-.027-.052-.04-.13-.04-.235 0-.054.003-.101.009-.142.006-.04.015-.073.027-.098.012-.026.027-.045.047-.057.019-.012.042-.018.069-.018h4.198c.027 0 .051.006.07.018.02.012.036.031.049.057.014.025.024.058.03.098.006.041.009.088.009.142 0 .105-.015.183-.043.235-.028.053-.067.079-.115.079h-.678c-.023.482-.035.892-.035 1.23 0 .339.009.621.026.849.018.227.044.407.077.539.033.131.071.231.114.298.044.068.09.11.14.128.049.018.099.027.15.027.084 0 .176-.012.276-.038.1-.025.159-.038.177-.038s.033.004.043.011c.011.008.02.021.027.041.008.019.013.045.018.078.004.033.007.076.007.13zm3.96.189c.024.042.036.077.036.105 0 .029-.014.052-.043.07-.028.018-.072.031-.13.038-.058.008-.134.011-.227.011-.09 0-.161-.002-.213-.006-.052-.005-.094-.012-.126-.023-.031-.01-.055-.024-.072-.04-.016-.017-.03-.035-.042-.056l-.97-1.603-.965 1.603c-.012.021-.027.039-.043.056-.017.016-.041.03-.072.04-.031.011-.073.018-.123.023-.051.004-.119.006-.202.006-.087 0-.158-.003-.214-.011-.055-.007-.096-.02-.121-.038s-.037-.041-.036-.07c.002-.028.016-.063.043-.105l1.257-1.971-1.19-1.899c-.024-.042-.037-.078-.038-.106-.002-.028.012-.052.04-.072.029-.019.072-.032.131-.038.058-.006.135-.009.231-.009.087 0 .156.002.209.007.052.004.093.011.123.02s.052.021.067.036.029.033.041.054l.92 1.504.934-1.504c.012-.018.026-.035.041-.05s.035-.027.06-.038c.026-.01.062-.018.108-.022.046-.005.11-.007.191-.007.087 0 .158.003.213.009s.097.017.124.034c.026.016.038.039.035.069s-.018.068-.044.113l-1.181 1.876zm10.893 0c.024.042.036.077.036.105 0 .029-.015.052-.043.07s-.072.031-.13.038c-.059.008-.134.011-.227.011-.09 0-.161-.002-.213-.006-.053-.005-.095-.012-.126-.023-.031-.01-.055-.024-.072-.04-.016-.017-.031-.035-.043-.056l-.969-1.603-.966 1.603c-.012.021-.026.039-.042.056-.017.016-.041.03-.072.04-.032.011-.073.018-.124.023-.051.004-.118.006-.202.006-.087 0-.158-.003-.213-.011-.055-.007-.096-.02-.121-.038-.026-.018-.038-.041-.036-.07.001-.028.016-.063.043-.105l1.257-1.971-1.19-1.899c-.024-.042-.037-.078-.038-.106-.002-.028.012-.052.04-.072.029-.019.072-.032.13-.038.059-.006.136-.009.232-.009.086 0 .156.002.208.007.053.004.094.011.124.02s.052.021.067.036.029.033.041.054l.92 1.504.934-1.504c.012-.018.025-.035.04-.05s.036-.027.061-.038c.025-.01.061-.018.108-.022.046-.005.11-.007.191-.007.086 0 .157.003.213.009.055.006.096.017.123.034.027.016.039.039.036.069s-.018.068-.045.113l-1.181 1.876zm-20.074-.442v.639h-3.582c-.005-.16.021-.314.077-.462.092-.244.238-.484.439-.721.2-.236.491-.51.87-.821.589-.483.987-.865 1.195-1.148.207-.282.31-.549.31-.8 0-.264-.094-.486-.283-.667-.188-.182-.434-.272-.737-.272-.321 0-.577.096-.769.288-.193.193-.29.459-.293.799l-.684-.07c.047-.511.224-.899.529-1.167.306-.267.716-.401 1.231-.401.52 0 .932.144 1.235.433.304.288.455.645.455 1.072 0 .217-.044.43-.133.639-.089.21-.236.431-.442.662-.206.232-.548.55-1.026.954-.399.335-.656.563-.769.682-.113.12-.207.24-.281.361zm14.897-2.315c-.201-.248-.395-.438-.582-.568s-.382-.195-.586-.195c-.188 0-.348.045-.48.134-.132.09-.239.208-.321.355s-.142.313-.18.499c-.037.185-.056.374-.056.565 0 .204.016.403.047.597.032.195.086.368.164.519s.181.272.31.364c.129.091.29.137.485.137.099 0 .194-.014.285-.041s.185-.072.281-.134c.095-.063.196-.145.3-.245.105-.1.216-.224.333-.371z"/>
 </g>
</svg>
