<svg clip-rule="evenodd" fill-rule="evenodd" stroke-linejoin="round" stroke-miterlimit="2" viewBox="0 0 48 48" xmlns="http://www.w3.org/2000/svg">
 <linearGradient id="a" x2="1" gradientTransform="matrix(0 -10.6328 10.6328 0 945.782 54.7328)" gradientUnits="userSpaceOnUse">
  <stop stop-color="#6b6b6b" offset="0"/>
  <stop stop-color="#474747" offset="1"/>
 </linearGradient>
 <path transform="matrix(.75 0 0 .75 0 5.32088)" d="m24.462 40.093h15.076v7.9h-15.076z" fill="url(#a)" fill-rule="nonzero"/>
 <path transform="matrix(1 0 0 1.13354 -.019583 -8.62106)" d="m35.789 43.478c0-.574-.528-1.039-1.178-1.039h-21.184c-.65 0-1.178.465-1.178 1.039v1.151c0 .573.528 1.039 1.178 1.039h21.184c.65 0 1.178-.466 1.178-1.039z" fill="#a4a4a4"/>
 <path d="m3.161 33.279v-6.122l9.141 8.712h-6.266c-1.211-.538-2.218-1.45-2.875-2.59z" fill="#303f9f"/>
 <path transform="matrix(1.16405 0 0 1.10942 -3.86559 -3.65286)" d="m6.036 19.827v7.944l7.853 7.853h7.944z" fill="#2357cd" fill-rule="nonzero"/>
 <path transform="matrix(1.16405 0 0 1.10942 -3.86559 -3.65286)" d="m6.036 11.883v7.944l15.797 15.797h7.942z" fill="#9844e8" fill-rule="nonzero"/>
 <path d="m6.036 5.388h2.023l31.985 30.481h-9.25l-27.633-26.339v-1.552c.657-1.14 1.664-2.052 2.875-2.59z" fill="#f845c5"/>
 <path d="m41.964 35.869h-1.92l-31.985-30.481h9.247l27.677 26.377v1.251c-.649 1.263-1.717 2.275-3.019 2.853z" fill="#ffb86c"/>
 <path transform="matrix(1.16405 0 0 1.10942 -3.86559 -3.65286)" d="m18.188 8.149 23.776 23.776v-7.944l-15.832-15.832z" fill="#97d054" fill-rule="nonzero"/>
 <path transform="matrix(1.16405 0 0 1.10942 -3.86559 -3.65286)" d="m26.132 8.149 15.832 15.832v-7.944l-7.888-7.888z" fill="#25c7d6" fill-rule="nonzero"/>
 <path d="m44.983 8.241v5.898l-9.182-8.751h6.163c1.302.578 2.37 1.59 3.019 2.853z" fill="#1bbcff"/>
 <g fill="#fff" fill-rule="nonzero">
  <path d="m33.511 13.433c-1.74 0-3.171 1.43-3.171 3.17s1.431 3.17 3.171 3.17c1.739 0 3.17-1.43 3.17-3.17s-1.431-3.17-3.17-3.17z"/>
  <path d="m36.102 11.388.629.363c.175.101.234.322.133.496l-.726 1.259c-.101.174-.322.233-.497.133l-.629-.364c-.083-.048-.144-.127-.169-.22s-.012-.192.036-.276l.727-1.258c.101-.175.322-.234.496-.133zm-4.722 8.179.629.363c.174.101.234.322.133.497l-.727 1.258c-.1.174-.321.234-.496.133l-.629-.363c-.084-.049-.144-.128-.169-.221s-.012-.192.036-.276l.727-1.258c.1-.174.321-.234.496-.133zm.276-8.483.701-.188c.093-.025.192-.012.276.036s.144.127.169.22l.376 1.404c.025.093.012.192-.036.275-.048.084-.128.145-.221.17l-.701.188c-.093.024-.192.012-.276-.037-.084-.048-.144-.127-.169-.22l-.376-1.404c-.025-.093-.012-.192.036-.275.048-.084.128-.145.221-.169zm2.443 9.122.702-.189c.094-.025.193-.012.276.036.084.049.144.128.169.221l.378 1.404c.025.093.012.192-.037.276-.048.083-.127.144-.22.169l-.703.187c-.093.025-.192.012-.276-.036-.083-.048-.144-.128-.169-.221l-.376-1.403c-.025-.093-.012-.192.036-.276.048-.083.128-.144.221-.169zm-6.108-1.748-.188-.702c-.025-.093-.012-.192.036-.275.049-.084.128-.145.221-.17l1.403-.376c.093-.025.192-.012.276.037.084.048.144.127.169.22l.188.702c.025.093.012.192-.036.275-.048.084-.128.145-.221.17l-1.403.376c-.093.025-.192.012-.276-.037-.083-.048-.144-.127-.169-.22zm9.123-2.444-.189-.702c-.025-.093-.012-.192.036-.276.048-.083.128-.144.221-.169l1.403-.376c.093-.025.192-.012.276.036.083.049.144.128.169.221l.189.702c.025.093.012.192-.036.276s-.128.144-.221.169l-1.404.375c-.093.025-.192.012-.276-.036-.083-.048-.144-.127-.169-.22zm1.612 3.18-.364.629c-.1.175-.321.234-.496.133l-1.258-.726c-.084-.048-.145-.128-.169-.221-.025-.093-.012-.192.036-.275l.363-.629c.101-.175.322-.234.496-.133l1.259.726c.174.101.233.322.133.496zm-8.18-4.722-.363.629c-.101.175-.322.234-.496.133l-1.258-.726c-.084-.049-.145-.128-.17-.221s-.012-.192.037-.276l.363-.629c.101-.174.322-.233.496-.133l1.258.727c.175.101.234.322.133.496z"/>
  <path d="m14.489 21.887c-2.917 0-5.283 2.366-5.283 5.283 0 2.918 2.366 5.284 5.283 5.284 2.918 0 5.284-2.366 5.284-5.284 0-.312-.028-.625-.082-.932-.362 1.646-1.818 2.819-3.503 2.819-1.98 0-3.586-1.605-3.586-3.585 0-1.685 1.174-3.142 2.819-3.503-.306-.054-.619-.082-.932-.082z"/>
 </g>
 <path transform="translate(0 2.52247)" d="m39.44 33.88h-30.88c-3.438 0-6.228-2.79-6.228-6.228v-19.092c0-3.438 2.79-6.228 6.228-6.228h30.88c3.438 0 6.228 2.79 6.228 6.228v19.092c0 3.438-2.79 6.228-6.228 6.228zm0-1c2.886 0 5.228-2.342 5.228-5.228v-19.092c0-2.886-2.342-5.228-5.228-5.228h-30.88c-2.886 0-5.228 2.342-5.228 5.228v19.092c0 2.886 2.342 5.228 5.228 5.228z" fill="#3e3e3e"/>
</svg>
