<svg clip-rule="evenodd" fill-rule="evenodd" stroke-linejoin="round" stroke-miterlimit="1.41421" viewBox="0 0 64 64" xmlns="http://www.w3.org/2000/svg">
 <linearGradient id="a" x2="1" gradientTransform="matrix(-475.941 0 0 -475.941 521.933 86.9394)" gradientUnits="userSpaceOnUse">
  <stop stop-color="#fff" offset="0"/>
  <stop stop-color="#989898" offset="1"/>
 </linearGradient>
 <linearGradient id="b" x2="1" gradientTransform="matrix(39.179 0 0 39.179 12.4105 819.848)" gradientUnits="userSpaceOnUse">
  <stop stop-color="#4f4f4f" offset="0"/>
  <stop stop-color="#7b7b7b" offset="1"/>
 </linearGradient>
 <path d="m18.007 4.412h27.985v16.801h-27.985z" fill="#b7b7b7" stroke="url(#a)"/>
 <path d="m51.59 22.233c0-1.546-1.255-2.8-2.8-2.8h-33.58c-1.545 0-2.8 1.254-2.8 2.8v34.555c0 1.545 1.255 2.8 2.8 2.8h33.58c1.545 0 2.8-1.255 2.8-2.8z" fill="url(#b)"/>
 <path d="m37.597 33.796v2.799h-11.194v-2.799zm2.799-5.597v2.799h-16.792v-2.799zm2.798-5.597v2.799h-22.388v-2.799z"/>
 <path d="m20.806 7.21h6.996v4.198h-6.996z" fill-opacity=".5"/>
 <path d="m36.198 7.21h6.996v4.198h-6.996z" fill-opacity=".5"/>
 <circle cx="48.387" cy="48.426" r="13.094" fill="#007aff"/>
 <path d="m55.46 46.598h-1.907-3.362l2.061-2.052c-.99-.989-2.353-1.604-3.865-1.604-3.028 0-5.484 2.455-5.484 5.484s2.456 5.484 5.484 5.484c2.189 0 4.072-1.285 4.952-3.138 0 0 .154-.518.837-.518.505 0 .914.409.914.914 0 .174-.061.328-.146.466-1.19 2.427-3.672 4.105-6.557 4.105-4.038 0-7.312-3.274-7.312-7.313 0-4.038 3.274-7.312 7.312-7.312 2.018 0 3.838.822 5.158 2.145l2.155-2.145v5.484z" fill="#ddd"/>
</svg>
