<svg clip-rule="evenodd" fill-rule="evenodd" stroke-linejoin="round" stroke-miterlimit="2" viewBox="0 0 48 48" xmlns="http://www.w3.org/2000/svg">
 <linearGradient id="a" x2="1" gradientTransform="matrix(0 -33.6872 33.6872 0 923.28 40.4502)" gradientUnits="userSpaceOnUse">
  <stop stop-color="#c7d0d2" offset="0"/>
  <stop stop-color="#fff" offset="1"/>
 </linearGradient>
 <path d="m39.44 45.668h-30.88c-3.438 0-6.228-2.79-6.228-6.228v-30.88c0-3.438 2.79-6.228 6.228-6.228h30.88c3.438 0 6.228 2.79 6.228 6.228v30.88c0 3.438-2.79 6.228-6.228 6.228z" fill="url(#a)"/>
 <g fill-rule="nonzero">
  <path d="m2.332 27h43.336v1h-43.336z" fill="#8bc0ff"/>
  <path d="m6 2.881v42.238l1 .352v-42.942z" fill="#8bc0ff"/>
  <path d="m2.332 11.254v3.908c.246 1.012 1.168 2.83 1.41 4.084.574 2.97 1.152 6.398 1.733 9.231.58 2.833 1.154 5.032 1.769 6.496.308.732.607 1.287 1.045 1.683.219.198.497.364.83.401s.674-.079.926-.26c.466-.336.767-.817 1.078-1.397s.606-1.266.898-2c.586-1.467 1.163-3.13 1.719-4.386v-.002c.565-1.273 1.132-2.313 1.633-2.932.251-.31.483-.507.648-.596.166-.089.232-.089.334-.06.261.074.82.553 1.374 1.23.553.678 1.132 1.5 1.767 2.162.595.62 1.203 1.191 1.861 1.612.659.421 1.399.702 2.19.615 1.526-.166 2.685-1.31 3.689-1.793h.002c1.11-.534 2.154-.884 3.121-.846.994.04 2.113.45 3.336.721.381.084.763-.159.848-.539.084-.38-.159-.763-.539-.848-1.085-.24-2.273-.703-3.588-.756-1.338-.053-2.596.41-3.795.987-1.301.625-2.449 1.577-3.228 1.662-.362.039-.775-.084-1.27-.401-.495-.316-1.041-.816-1.6-1.398-.518-.541-1.094-1.345-1.693-2.078s-1.193-1.446-2.086-1.699c-.475-.135-.985-.046-1.396.175-.412.221-.754.553-1.08.955-.652.805-1.239 1.922-1.829 3.25v.002c-.596 1.347-1.172 3.015-1.74 4.436-.283.711-.564 1.359-.83 1.856-.254.475-.505.776-.625.875l-.002-.002c-.138-.126-.416-.54-.685-1.18-.538-1.281-1.118-3.44-1.69-6.233s-1.149-6.217-1.728-9.212c-.58-2.996-1.757-6.146-2.475-7.438-.078-.128-.194-.227-.332-.285z" fill="#414141"/>
  <path d="m33.335 24.972 2.62 1.525 8.22-13.495-2.62-1.526z" fill="#ff881e"/>
  <path d="m35.292 26.127.983.573 8.221-13.496-.982-.572z" fill="#e66100"/>
  <path d="m33.982 25.365-.982-.572 8.22-13.497.984.573z" fill="#ffb367"/>
  <path d="m43.079 10c-.644.006-1.269.329-1.622.909-.017.028-.034.057-.05.085l-.73 1.196.653.382c.152.36.419.679.788.894s.782.293 1.178.252l.655.381.78-1.281c.54-.886.242-2.029-.663-2.555-.31-.181-.652-.266-.989-.263z" fill="#dc5051"/>
  <path d="m33.265 28 3.018-1.312-3.276-1.907z" fill="#e8ddc7"/>
  <path d="m33.265 28 1.31-.57-1.422-.829z" fill="#3d3846"/>
  <path d="m40.286 12.831 3.274 1.907.782-1.281-3.276-1.907z" fill="#b7b7b7"/>
 </g>
</svg>
