<svg clip-rule="evenodd" fill-rule="evenodd" stroke-linejoin="round" stroke-miterlimit="2" viewBox="0 0 48 48" xmlns="http://www.w3.org/2000/svg">
 <linearGradient id="a" x2="1" gradientTransform="matrix(0 -33.6872 33.6872 0 923.28 40.4502)" gradientUnits="userSpaceOnUse">
  <stop stop-color="#e47400" offset="0"/>
  <stop stop-color="#dfab31" offset="1"/>
 </linearGradient>
 <path d="m39.44 45.668h-30.88c-3.438 0-6.228-2.79-6.228-6.228v-30.88c0-3.438 2.79-6.228 6.228-6.228h30.88c3.438 0 6.228 2.79 6.228 6.228v30.88c0 3.438-2.79 6.228-6.228 6.228z" fill="url(#a)"/>
 <path d="m31.945 41.984c-.595 0-1.151-.095-1.668-.285-.517-.206-.964-.484-1.34-.833-.376-.364-.673-.785-.892-1.26-.204-.476-.306-.999-.306-1.57 0-.586.125-1.125.376-1.617.266-.507.627-.935 1.081-1.284.47-.349 1.026-.619 1.668-.809.642-.206 1.347-.309 2.115-.309.548 0 1.08.048 1.597.143.533.095 1.003.23 1.41.404v-.713c0-.825-.235-1.459-.705-1.903-.454-.444-1.135-.666-2.044-.666-.658 0-1.3.119-1.927.357-.626.238-1.268.586-1.926 1.046l-.964-2.021c1.583-1.062 3.29-1.594 5.123-1.594 1.77 0 3.14.444 4.111 1.332.987.872 1.481 2.141 1.481 3.805v3.877c0 .333.054.571.164.713.125.143.321.222.587.238v2.711c-.532.111-.994.167-1.386.167-.595 0-1.057-.135-1.386-.405-.313-.269-.509-.626-.587-1.07l-.071-.69c-.548.73-1.214 1.285-1.997 1.665-.783.381-1.621.571-2.514.571zm-21.891-10.368c-.312 0-.596-.185-.723-.47-.126-.285-.073-.62.137-.852l4.257-4.702c.306-.338.741-.53 1.197-.53.455 0 .89.192 1.196.53l4.258 4.702c.209.232.263.567.136.852-.126.285-.41.47-.722.47h-3.309c.08 2.852 2.45 5.173 5.32 5.173.932 0 1.688.757 1.688 1.688 0 .932-.756 1.689-1.688 1.689-4.723 0-8.617-3.846-8.698-8.55zm22.784 8.037c.532 0 1.033-.095 1.503-.285.486-.19.862-.444 1.128-.761.345-.27.517-.571.517-.904v-1.427c-.376-.142-.783-.253-1.222-.333-.438-.095-.861-.142-1.268-.142-.815 0-1.481.19-1.998.57-.516.365-.775.833-.775 1.404 0 .539.204.991.611 1.355.407.349.908.523 1.504.523zm-.55-21.479c-.08-2.851-2.45-5.172-5.32-5.172-.932 0-1.688-.757-1.688-1.689s.756-1.688 1.688-1.688c4.722 0 8.617 3.845 8.698 8.549h3.049c.312 0 .596.185.722.471.127.285.073.62-.136.851l-4.258 4.702c-.305.338-.74.531-1.196.531s-.891-.193-1.197-.531l-4.257-4.702c-.209-.231-.263-.566-.137-.851.127-.286.411-.471.723-.471zm-18.413-12.158h2.593l5.74 15.277h-3.019l-1.403-3.808h-5.272l-1.382 3.808h-3.018zm3.38 9.381-2.084-6.003-2.168 6.003z" fill="#fafafa" fill-opacity=".9"/>
</svg>
