<svg clip-rule="evenodd" fill-rule="evenodd" stroke-linejoin="round" stroke-miterlimit="2" viewBox="0 0 48 48" xmlns="http://www.w3.org/2000/svg">
 <linearGradient id="a" x2="1" gradientTransform="matrix(0 -39.8333 39.8333 0 24 43.9366)" gradientUnits="userSpaceOnUse">
  <stop stop-color="#4f3126" offset="0"/>
  <stop stop-color="#795548" offset="1"/>
 </linearGradient>
 <path transform="matrix(1.0834 0 0 1.0834 -2.0016 -2.0016)" d="m9.749 4h28.502c3.174 0 5.749 2.575 5.749 5.749v28.502c0 3.174-2.575 5.749-5.749 5.749h-28.502c-3.174 0-5.749-2.575-5.749-5.749v-28.502c0-3.174 2.575-5.749 5.749-5.749z" fill="url(#a)"/>
 <path transform="matrix(1.0834 0 0 1.0834 -2.0016 -2.0016)" d="m19 9v10h-10v-7.808c0-1.233.959-2.192 2.192-2.192z" fill="#ffa000" fill-rule="nonzero"/>
 <path d="m18.583 7.749h10.834v10.834h-10.834z" fill="#ffee58" stroke-width="1.0834"/>
 <path transform="matrix(1.0834 0 0 1.0834 -2.0016 -2.0016)" d="m39 11.192v7.808h-10v-10h7.808c1.233 0 2.192.959 2.192 2.192z" fill="#ffca28" fill-rule="nonzero"/>
 <g stroke-width="1.0834">
  <path d="m29.417 18.583h10.834v10.834h-10.834z" fill="#ffa000"/>
  <path d="m18.583 18.583h10.834v10.834h-10.834z" fill="#ffca28"/>
  <path d="m7.749 18.583h10.834v10.834h-10.834z" fill="#ffee58"/>
 </g>
 <path transform="matrix(1.0834 0 0 1.0834 -2.0016 -2.0016)" d="m19 29v10h-7.808c-1.233 0-2.192-.959-2.192-2.192v-7.808z" fill="#ffca28" fill-rule="nonzero"/>
 <path d="m18.583 29.417h10.834v10.834h-10.834z" fill="#ffa000" stroke-width="1.0834"/>
 <path transform="matrix(1.0834 0 0 1.0834 -2.0016 -2.0016)" d="m39 29v7.808c0 1.233-.959 2.192-2.192 2.192h-7.808v-10z" fill="#ffee58" fill-rule="nonzero"/>
 <path transform="matrix(1.0834 0 0 1.0834 -2.0016 -2.0016)" d="m34.305 6.195c-.26-.26-.677-.26-.937 0l-1.172 1.172c-.056.056-.099.119-.131.186-1.518 1.831-1.766 4.323-.796 6.366l-8.681 8.681-1.494-1.494c-.731-.73-1.906-.73-2.637 0l-7.909 7.909c-.731.731-.731 1.907 0 2.637l5.8 5.8c.73.731 1.906.731 2.637 0l7.909-7.909c.73-.731.73-1.906 0-2.637l-1.494-1.494 8.681-8.681c2.043.97 4.535.722 6.366-.796.067-.032.13-.075.186-.131l1.172-1.172c.26-.26.26-.677 0-.937zm-1.171 3.047 5.624 5.624c-1.557.918-3.638.571-4.921-.703-1.274-1.283-1.621-3.364-.703-4.921z" fill="#5c6bc0" fill-rule="nonzero"/>
 <path transform="matrix(.766079 -.766079 .766079 .766079 -2.0016 -2.0016)" d="m-14.92 29.96h10.937v7.954h-10.937z" fill="#3f51b5"/>
</svg>
