<svg clip-rule="evenodd" fill-rule="evenodd" stroke-linejoin="round" stroke-miterlimit="2" viewBox="0 0 48 48" xmlns="http://www.w3.org/2000/svg">
 <linearGradient id="a" x2="1" gradientTransform="matrix(0 -23.8635 23.8635 0 24 35)" gradientUnits="userSpaceOnUse">
  <stop stop-color="#3e515f" offset="0"/>
  <stop stop-color="#5d6d79" offset="1"/>
 </linearGradient>
 <path d="m24 11c-11.658 0-20.456 10.266-20.999 22.554-.001.02-.001.041-.001.061 0 .76.632 1.385 1.4 1.385 13.146 4.918 26.213 4.928 39.2 0 .768 0 1.4-.625 1.4-1.385 0-.02 0-.041-.001-.061-.543-12.288-9.341-22.554-20.999-22.554z" fill="url(#a)" fill-rule="nonzero"/>
 <path d="m24.759 36.64-2.37-2.693 10.611-6.947z" fill="#e2900d" fill-rule="nonzero"/>
 <circle cx="24" cy="35" r="3" fill="#d90075"/>
 <path d="m42 30.986h-3c-.552 0-1 .448-1 1s.448 1 1 1h3c.552 0 1-.448 1-1s-.448-1-1-1zm-33 0h-3c-.552 0-1 .448-1 1s.448 1 1 1h3c.552 0 1-.448 1-1s-.448-1-1-1zm30.088-8.866-2.598 1.5c-.478.276-.642.888-.366 1.366s.888.642 1.366.366l2.598-1.5c.478-.276.642-.888.366-1.366-.275-.478-.888-.642-1.366-.366zm-31.176 1.732 2.598 1.5c.478.276 1.09.112 1.366-.366s.112-1.09-.366-1.366l-2.598-1.5c-.478-.276-1.091-.112-1.366.366-.276.478-.112 1.09.366 1.366zm6.222-6.955 1.5 2.598c.276.478.888.642 1.366.366s.642-.888.366-1.366l-1.5-2.598c-.276-.478-.888-.642-1.366-.366s-.642.888-.366 1.366zm18-1-1.5 2.598c-.276.478-.112 1.09.366 1.366s1.09.112 1.366-.366l1.5-2.598c.276-.478.112-1.09-.366-1.366s-1.09-.112-1.366.366zm-9.134-1.911v3c0 .552.448 1 1 1s1-.448 1-1v-3c0-.552-.448-1-1-1s-1 .448-1 1z" fill="#fff"/>
</svg>
