<svg clip-rule="evenodd" fill-rule="evenodd" stroke-linejoin="round" stroke-miterlimit="2" viewBox="0 0 64 64" xmlns="http://www.w3.org/2000/svg">
 <linearGradient id="a" x2="1" gradientTransform="matrix(-.976758 -59.1399 59.1399 -.976758 31.965 61.5788)" gradientUnits="userSpaceOnUse">
  <stop stop-color="#00979a" offset="0"/>
  <stop stop-color="#36c9cc" offset="1"/>
 </linearGradient>
 <path d="m61.393 28.715c-.093-.831-1.063-1.455-1.901-1.455-2.71 0-5.115-1.592-6.125-4.055-1.031-2.521-.366-5.461 1.655-7.313.636-.582.712-1.555.179-2.231-1.388-1.762-2.965-3.354-4.686-4.733-.675-.54-1.664-.466-2.248.181-1.764 1.954-4.931 2.679-7.376 1.658-2.548-1.072-4.154-3.653-3.997-6.422.051-.871-.585-1.627-1.452-1.727-2.209-.257-4.438-.264-6.653-.018-.858.094-1.494.834-1.466 1.691.098 2.744-1.529 5.28-4.049 6.312-2.418.989-5.562.268-7.322-1.668-.583-.636-1.555-.715-2.234-.186-1.773 1.39-3.385 2.983-4.784 4.73-.545.679-.466 1.664.176 2.248 2.059 1.866 2.725 4.831 1.654 7.38-1.02 2.431-3.546 3.999-6.435 3.999-.939-.029-1.607.599-1.71 1.451-.259 2.224-.263 4.487-.011 6.728.092.835 1.09 1.455 1.939 1.455 2.575-.067 5.049 1.529 6.086 4.054 1.033 2.52.37 5.459-1.655 7.313-.632.581-.713 1.553-.179 2.23 1.374 1.751 2.951 3.342 4.679 4.733.679.547 1.664.469 2.252-.178 1.769-1.958 4.936-2.682 7.374-1.658 2.553 1.066 4.158 3.647 4.001 6.418-.05.871.588 1.629 1.453 1.729 1.129.131 2.266.198 3.407.198 1.082 0 2.165-.059 3.246-.18.858-.094 1.494-.833 1.465-1.695-.098-2.74 1.528-5.276 4.046-6.308 2.435-.992 5.567-.266 7.327 1.668.584.636 1.551.714 2.231.187 1.771-1.389 3.38-2.979 4.786-4.731.546-.679.468-1.664-.177-2.248-2.058-1.865-2.727-4.831-1.657-7.38 1.006-2.398 3.437-4.01 6.051-4.01l.366.009c.849.071 1.629-.584 1.731-1.449.257-2.193.264-4.423.013-6.727z" fill="url(#a)"/>
 <path d="m33 16c-8.777 0-16 7.223-16 16s7.223 16 16 16c4.23-.005 8.291-1.687 11.285-4.676l-4.238-4.238c-1.871 1.863-4.406 2.912-7.047 2.914-5.486 0-10-4.514-10-10s4.514-10 10-10c2.66.002 5.212 1.066 7.086 2.953l4.238-4.238c-2.997-3.013-7.074-4.71-11.324-4.715z" fill="#fff" fill-rule="nonzero"/>
</svg>
