<svg clip-rule="evenodd" fill-rule="evenodd" stroke-linejoin="round" stroke-miterlimit="2" viewBox="0 0 48 48" xmlns="http://www.w3.org/2000/svg">
 <linearGradient id="a" x2="1" gradientTransform="matrix(0 -43.9407 43.9407 0 23.4356 45.7203)" gradientUnits="userSpaceOnUse">
  <stop stop-color="#ec3944" offset="0"/>
  <stop stop-color="#ff709a" offset="1"/>
 </linearGradient>
 <circle cx="23.98" cy="24.009" r="22.784" fill="url(#a)"/>
 <path d="m39.209 12.134c.437 0 .791.354.791.791v22.151c0 .437-.355.791-.791.791h-3.165c-.437 0-.791-.354-.791-.791v-22.151c0-.437.354-.791.791-.791zm-13.053 0c.437 0 .791.354.791.791v22.151c0 .437-.354.791-.791.791h-3.165c-.437 0-.791-.354-.791-.791v-22.151c0-.437.354-.791.791-.791zm-14.24 0c.437 0 .791.354.791.791v22.151c0 .437-.354.791-.791.791h-3.165c-.437 0-.791-.354-.791-.791v-22.151c0-.437.354-.791.791-.791z" fill="#c8c8c8"/>
 <path d="m19.036 31.12c.437 0 .791.355.791.791v3.165c0 .437-.354.791-.791.791h-10.285c-.437 0-.791-.354-.791-.791v-3.165c0-.436.354-.791.791-.791zm12.065-18.986h7.74c.636 0 1.159.435 1.159.961 0 .169-.054.336-.156.482l-3.869 5.564-3.871 5.564c-.216.311-.625.497-1.058.481-.394-.016-.752-.197-.948-.481l-3.871-5.564-3.872-5.564c-.102-.146-.155-.313-.155-.482 0-.526.523-.961 1.158-.961zm-12.065 0c.437 0 .791.354.791.791v3.165c0 .436-.354.79-.791.79h-10.285c-.437 0-.791-.354-.791-.79v-3.165c0-.437.354-.791.791-.791z" fill="#fff"/>
</svg>
