<svg clip-rule="evenodd" fill-rule="evenodd" stroke-linejoin="round" stroke-miterlimit="2" viewBox="0 0 48 48" xmlns="http://www.w3.org/2000/svg">
 <linearGradient id="a" x2="1" gradientTransform="matrix(-.476427 -44.666 44.666 -.476427 128.991 44.2761)" gradientUnits="userSpaceOnUse">
  <stop stop-color="#cfdbf1" offset="0"/>
  <stop stop-color="#fdfefe" offset="1"/>
 </linearGradient>
 <linearGradient id="b" x2="1" gradientTransform="matrix(-.476427 -44.666 44.666 -.476427 272.535 45.9057)" gradientUnits="userSpaceOnUse">
  <stop stop-color="#7ec6e8" offset="0"/>
  <stop stop-color="#92c4e4" offset="1"/>
 </linearGradient>
 <path d="m39.411 5.813c0-2.783-2.256-5.04-5.039-5.04h-25.84c-2.783 0-5.039 2.257-5.039 5.04v33.035c0 2.783 2.256 5.04 5.039 5.04h25.84c2.783 0 5.039-2.257 5.039-5.04z" fill="url(#a)"/>
 <path d="m44 8.924c0-2.783-2.256-5.04-5.039-5.04h-25.841c-2.783 0-5.039 2.257-5.039 5.04v33.036c0 2.783 2.256 5.04 5.039 5.04h25.841c2.783 0 5.039-2.257 5.039-5.04z" fill="url(#b)"/>
 <path d="m32.178 20.788c-.447-.137-.915.099-1.052.547l-3.601 11.745c-.368 1.199-1.103 2.048-2.198 2.63-1.095.581-2.224.708-3.437.336-1.185-.363-2.068-1.092-2.649-2.187s-.69-2.234-.327-3.419l1.36-4.435.726-2.369 1.79-5.837.859-2.803.009-.029.009-.028c.244-.795.748-1.395 1.481-1.791.744-.4 1.527-.495 2.351-.243.824.253 1.419.771 1.81 1.519.386.739.467 1.518.223 2.313l-.008.029-.018.057-4.018 13.104c-.252.823-1.083 1.264-1.906 1.012-.795-.244-1.241-1.108-.998-1.902l2.104-6.863c.138-.448-.103-.901-.55-1.038-.448-.137-.901.103-1.039.551l-2.104 6.863c-.261.852-.193 1.663.217 2.437.411.774 1.03 1.279 1.883 1.541.852.261 1.658.184 2.437-.217.76-.392 1.275-1.016 1.545-1.897l4.036-13.161.009-.029c.38-1.242.256-2.446-.351-3.6-.611-1.164-1.538-1.941-2.78-2.322-1.243-.381-2.447-.257-3.605.364-1.149.616-1.927 1.543-2.308 2.785l-.009.029-.868 2.832-1.79 5.837-.726 2.369-1.36 4.435c-.5 1.632-.348 3.196.444 4.687.791 1.492 2.001 2.495 3.633 2.995 1.633.501 3.217.386 4.727-.415 1.51-.802 2.507-2.045 2.999-3.649l3.601-11.745c.138-.448-.103-.901-.551-1.038z" fill="#276290" fill-rule="nonzero"/>
</svg>
