<svg clip-rule="evenodd" fill-rule="evenodd" stroke-linejoin="round" stroke-miterlimit="2" viewBox="0 0 48 48" xmlns="http://www.w3.org/2000/svg">
 <linearGradient id="a" x2="1" gradientTransform="matrix(-.136478 -45.3417 45.3417 -.136478 203.728 46.1358)" gradientUnits="userSpaceOnUse">
  <stop stop-color="#971e1e" offset="0"/>
  <stop stop-color="#d07a8a" offset="1"/>
 </linearGradient>
 <linearGradient id="b" x2="1" gradientTransform="matrix(11.5975 -29.4013 29.4013 11.5975 133.914 81.0338)" gradientUnits="userSpaceOnUse">
  <stop stop-color="#69c215" offset="0"/>
  <stop stop-color="#cae294" offset="1"/>
 </linearGradient>
 <g fill-rule="nonzero">
  <path d="m24 1.236c-1.154.006-2.306.099-3.445.28-2.133 1.97-17.392 17.121-19.004 18.872-.02.127-.039.256-.057.384.458-.374 1.153-.969 1.945-1.687.391-.354.873-.773 1.072-.931.198-.159.565-.477.814-.705.688-.636 2.318-2.081 2.795-2.479.235-.196 1.145-.996 2.024-1.779.878-.782 2.014-1.782 2.523-2.223.51-.44 1.566-1.401 2.348-2.134 1.507-1.413 6.165-5.544 6.682-5.926.169-.126.326-.21.349-.187.051.051-.243.543-1.278 2.141-.435.67-2.131 3.3-3.77 5.842-1.64 2.542-3.675 5.696-4.522 7.009s-2.721 4.216-4.162 6.451-3.323 5.149-4.179 6.477c-.527.814-.923 1.458-1.205 1.935 3.269 8.014 10.799 13.48 19.431 14.106.65.007-.365-.044.65.007 2.845-10.683 5.217-29.111 11.478-42.2.264-.551-.704-.673-.579-.95-3.087-1.505-6.475-2.292-9.91-2.303z" fill="url(#a)"/>
  <g fill="#d8d342">
   <path d="m1.558 20.379c-.001.001-.006.007-.007.009-.017.11-.035.222-.051.333.019-.114.038-.228.058-.342z"/>
   <path d="m31.385 2.51v.004c.192.061.383.124.573.189-.19-.067-.381-.131-.573-.193z"/>
   <path d="m33.697 3.448c.07.031.141.062.211.094l.002-.003c-.07-.031-.142-.061-.213-.091z"/>
  </g>
  <path d="m22.046 2.721c-.023-.023-.18.061-.349.187-.517.382-5.175 4.513-6.682 5.926-.782.733-1.838 1.694-2.348 2.134-.509.441-1.645 1.441-2.523 2.223-.879.783-1.789 1.583-2.024 1.779-.477.398-2.107 1.843-2.795 2.479-.249.228-.616.546-.814.705-.199.158-.681.577-1.072.931-.792.718-1.487 1.313-1.945 1.687-.163 1.069-.249 2.148-.258 3.228.004 3.899 1.011 7.732 2.921 11.131v-.054c-.069-.114-.137-.228-.205-.344-.15-.297-.295-.597-.433-.901-.209-.412-.406-.831-.589-1.256.282-.477.678-1.121 1.205-1.935.856-1.328 2.738-4.242 4.179-6.477s3.315-5.138 4.162-6.451 2.882-4.467 4.522-7.009c1.639-2.542 3.335-5.172 3.77-5.842 1.035-1.598 1.329-2.09 1.278-2.141zm-1.505-1.192c-9.716 1.507-17.408 9.145-18.983 18.85 1.625-1.763 16.83-16.858 18.983-18.85z" fill="url(#b)"/>
  <path d="m46.615 26.367-20.272 20.273c10.658-1.116 19.157-9.614 20.272-20.273z" fill="#778b3c"/>
  <path d="m33.908 3.542c-.125.275-.215.483-.478 1.033-6.261 13.089-10.208 27.19-10.859 38.787-.06 1.062-.14 2.366-.178 2.897l-.031.414c.545.05 1.091.08 1.638.091.783-.001 1.565-.043 2.343-.124l20.272-20.273c.09-.786.141-1.576.149-2.367-.014-8.719-5.006-16.664-12.856-20.458zm-7.565 43.098c10.681-1.119 19.128-9.551 20.266-20.23-1.138 10.679-9.585 19.111-20.266 20.23zm-3.981.033v.009z" fill="#eddf36"/>
 </g>
</svg>
