<svg clip-rule="evenodd" fill-rule="evenodd" stroke-linejoin="round" stroke-miterlimit="2" viewBox="0 0 48 48" xmlns="http://www.w3.org/2000/svg">
 <linearGradient id="a" x2="1" gradientTransform="matrix(0 -33.6872 33.6872 0 923.28 40.4502)" gradientUnits="userSpaceOnUse">
  <stop stop-color="#128706" offset="0"/>
  <stop stop-color="#2aa01e" offset="1"/>
 </linearGradient>
 <path d="m12.236 45.668h-3.676c-3.438 0-6.228-2.79-6.228-6.228v-30.88c0-3.438 2.79-6.228 6.228-6.228h3.676c0 1.525 1.238 2.763 2.763 2.763s2.763-1.238 2.763-2.763h21.678c3.438 0 6.228 2.79 6.228 6.228v30.88c0 3.438-2.79 6.228-6.228 6.228h-21.678c0-1.525-1.238-2.763-2.763-2.763s-2.763 1.238-2.763 2.763z" fill="url(#a)"/>
 <path d="m13.166 6.666c-3.601 0-6.5 2.899-6.5 6.5v21.668c0 3.601 2.899 6.5 6.5 6.5h4.334c0-1.2.966-2.166 2.166-2.166h8.668c1.2 0 2.166.966 2.166 2.166h4.334c3.601 0 6.5-2.899 6.5-6.5v-21.668c0-3.601-2.899-6.5-6.5-6.5z" fill="#d4d4d4" fill-rule="nonzero"/>
 <path d="m34.537 10.999c1.361 0 2.464 1.103 2.464 2.464v21.074c0 1.361-1.103 2.464-2.464 2.464h-21.074c-1.361 0-2.464-1.103-2.464-2.464v-21.074c0-1.361 1.103-2.464 2.464-2.464z" fill="#f4f4f4"/>
 <path d="m2.332 36.627 9.041 9.041h-9.041z" fill="#ffac12" fill-rule="nonzero"/>
 <path d="m28.334 17.5v2.166h-13.001v-2.166zm-8.668 4.333h4.334v2.167h-4.334zm6.501 0h6.5v2.167h-6.5z" fill="#a1a1a1"/>
</svg>
