<svg clip-rule="evenodd" fill-rule="evenodd" stroke-linejoin="round" stroke-miterlimit="2" viewBox="0 0 48 48" xmlns="http://www.w3.org/2000/svg">
 <g fill-rule="nonzero">
  <path d="m24.085 2.141c-.06.001-.123.007-.183.008v.013c-.841.016-1.665.221-2.396.641l-14.689 8.446c-.791.455-1.422 1.107-1.853 1.875l9.198 6.503 9.838 5.466 9.838-5.466 9.181-6.495c-.43-.768-1.049-1.428-1.84-1.883l-14.681-8.446c-.724-.416-1.543-.643-2.379-.662z" fill="#d66f45"/>
  <path d="m5.066 12.957c-.474.77-.743 1.662-.743 2.596v16.893c0 .867.257 1.685.671 2.413l-.013.009c.012.021.03.038.042.059.022.037.029.08.052.116l.021-.013c.149.245.299.492.491.709.031.036.062.071.094.106.082.087.168.171.256.252.056.051.113.101.171.15.081.068.162.133.248.196.149.111.304.214.465.308l14.685 8.446c.788.45 1.684.678 2.592.658l-.047-10.462-.051-11.393-9.838-5.739z" fill="#cd5929"/>
  <path d="m42.925 12.957-9.087 5.304-9.838 5.739-.051 11.393-.047 10.47c.91.018 1.808-.212 2.596-.666l14.685-8.446c.716-.415 1.318-1 1.751-1.704h.004c.007-.014.014-.028.022-.043.026-.042.051-.085.076-.128h-.004c.42-.741.642-1.578.645-2.43v-16.893c-.001-.197-.014-.393-.039-.589-.007-.063-.02-.125-.03-.188-.02-.126-.046-.251-.076-.375-.021-.085-.04-.169-.065-.252-.028-.092-.06-.184-.093-.274-.035-.096-.067-.192-.107-.286-.006-.013-.012-.025-.017-.038h-.005c-.091-.206-.202-.402-.32-.594z" fill="#a64a1e"/>
  <g fill="#efc309">
   <path d="m33.821 22.907c-.597.009-1.076.496-1.076 1.093v4.846l-4.934 2.962c-.774.465-.682 1.615.156 1.951l4.893 1.958.993 5.953c.155.933 1.342 1.242 1.933.503l3.956-4.946 4.814.962c.93.184 1.637-.82 1.151-1.633l-2.97-4.951 1.918-3.837c.406-.813-.3-1.738-1.192-1.561l-4.893.978-3.959-3.958c-.209-.209-.494-.325-.79-.32z"/>
   <path d="m15.242 29.466c-.599.007-1.08.494-1.08 1.093v3.92l-2.96 2.959c-.601.601-.316 1.628.508 1.834l3.338.971 1.962 3.923c.403.805 1.553.805 1.956 0l1.883-3.769h4.244c.974 0 1.461-1.177.773-1.866l-2.842-2.842.944-3.772c.2-.801-.525-1.527-1.326-1.326l-3.903.975-2.878-1.917c-.183-.122-.399-.186-.619-.183z"/>
   <path d="m5.489 23.244c-.614-.014-1.119.479-1.119 1.093v1.926l-1.734 1.191c-.733.475-.641 1.575.161 1.922l1.568.771.051 2.429c.148.959 1.379 1.264 1.957.485l1.454-1.958 2.201.357c.919.198 1.643-.78 1.185-1.602l-1.136-2.034.703-1.514c.379-.818-.34-1.718-1.222-1.529l-1.843.374-1.451-1.563c-.201-.216-.481-.341-.775-.348z"/>
  </g>
 </g>
</svg>
