<svg clip-rule="evenodd" fill-rule="evenodd" stroke-linecap="round" stroke-linejoin="round" viewBox="0 0 48 48" xmlns="http://www.w3.org/2000/svg">
 <path transform="matrix(1.04746 0 0 1.04746 -1.1391 -1.11537)" d="m42.747 34h.002c.398 0 .725-.328.725-.726 0-.369-.28-.682-.646-.723-.781-.087-1.378-.757-1.378-1.544 0-.853.7-1.555 1.551-1.555s1.551.702 1.551 1.555c0 .263-.067.522-.194.752-.051.101-.078.214-.078.327 0 .399.327.727.725.727.254 0 .491-.134.621-.353.245-.445.374-.945.374-1.453 0-1.65-1.354-3.007-3-3.007s-3 1.357-3 3.007c0 1.523 1.154 2.818 2.664 2.988.028.003.056.005.083.005z" fill="#585e62" fill-rule="nonzero"/>
 <circle transform="matrix(-1.04746 0 0 1.04746 -1.1391 -1.11537)" cx="-40.5" cy="26.5" r="2.5" fill="#e4e4e4"/>
 <path transform="matrix(1.04746 0 0 1.04746 -1.1391 -1.11537)" d="m39.7 24.7-2.7-4.7" fill="none" stroke="#585e62" stroke-width="2.5"/>
 <circle transform="matrix(-1.04746 0 0 1.04746 -1.1391 -1.11537)" cx="-37" cy="20" r="3" fill="#c8c8c8"/>
 <path transform="matrix(1.04746 0 0 1.04746 -1.1391 -1.11537)" d="m32.188 42c.803 0 1.467-1.517 1.653-3.774.1-1.212.049-2.482-.142-3.578-.206-1.18-.558-2.04-.992-2.426-.165-.147-.339-.222-.518-.222-.178 0-.352.076-.519.221l-1.876 1.668c-.656.583-.883 2.436-.764 3.883.092 1.114.378 1.986.763 2.332l1.875 1.668c.168.152.343.228.52.228z" fill="#585e62" fill-rule="nonzero"/>
 <path transform="matrix(1.04746 0 0 1.04746 -1.1391 -1.11537)" d="m36.063 42c1.384 0 2.529-1.517 2.851-3.774.172-1.212.085-2.482-.245-3.578-.355-1.18-.963-2.04-1.711-2.426-.276-.145-.583-.221-.894-.222h-3.908v10z" fill="#585e62" fill-rule="nonzero"/>
 <path transform="matrix(1.04746 0 0 1.04746 -1.1391 -1.11537)" d="m24 5c-6.443 0-10 5.566-10 11h20c0-5.434-4.013-11-10-11z" fill="#c8c8c8" fill-rule="nonzero"/>
 <path transform="matrix(1.04746 0 0 1.04746 -1.1391 -1.11537)" d="m24 6.987c-5.154 0-8 4.44-8 8.776l8 .921 8-.921c0-4.336-3.211-8.776-8-8.776z" fill="#585e62" fill-rule="nonzero"/>
 <path transform="matrix(1.04746 0 0 1.04746 -1.1391 -1.11537)" d="m20 10c-1.097 0-2 .903-2 2h4c0-1.097-.903-2-2-2z" fill="#49b04a" fill-rule="nonzero"/>
 <circle cx="19.28637" cy="13.02534" r=".52373" fill="#49b04a" stroke-width="1.04746"/>
 <path transform="matrix(1.04746 0 0 1.04746 -1.1391 -1.11537)" d="m5.253 34c-.001 0-.002 0-.002 0-.398 0-.725-.328-.725-.726 0-.369.28-.682.646-.723.781-.087 1.378-.757 1.378-1.544 0-.853-.7-1.555-1.551-1.555s-1.551.702-1.551 1.555c0 .263.067.522.194.752.051.101.078.214.078.327 0 .399-.327.727-.725.727-.254 0-.491-.134-.621-.353-.245-.445-.374-.945-.374-1.453 0-1.65 1.354-3.007 3-3.007s3 1.357 3 3.007c0 1.523-1.154 2.818-2.664 2.988-.028.003-.056.005-.083.005z" fill="#585e62" fill-rule="nonzero"/>
 <circle cx="6.71685" cy="26.64232" r="2.61865" fill="#e4e4e4" stroke-width="1.04746"/>
 <path transform="matrix(1.04746 0 0 1.04746 -1.1391 -1.11537)" d="m8.3 24.7 2.7-4.7" fill="none" stroke="#585e62" stroke-width="2.5"/>
 <circle cx="10.38296" cy="19.83383" r="3.14238" fill="#c8c8c8" stroke-width="1.04746"/>
 <g transform="matrix(1.04746 0 0 1.04746 -1.1391 -1.11537)" fill-rule="nonzero">
  <path d="m15.812 42c-.803 0-1.467-1.517-1.653-3.774-.1-1.212-.049-2.482.142-3.578.206-1.18.558-2.04.992-2.426.165-.147.339-.222.518-.222.178 0 .352.076.519.221l1.876 1.668c.656.583.883 2.436.764 3.883-.092 1.114-.378 1.986-.763 2.332l-1.875 1.668c-.168.152-.343.228-.52.228z" fill="#585e62"/>
  <path d="m11.937 42c-1.384 0-2.529-1.517-2.851-3.774-.172-1.212-.085-2.482.245-3.578.355-1.18.963-2.04 1.711-2.426.276-.145.583-.221.894-.222h3.908v10z" fill="#585e62"/>
  <path d="m15.741 42c-.821 0-1.5-1.517-1.69-3.774-.102-1.212-.05-2.482.145-3.578.211-1.18.571-2.04 1.014-2.426.169-.147.347-.222.53-.222.182 0 .36.076.53.221l1.918 1.668c.671.583.903 2.436.781 3.883-.094 1.114-.386 1.986-.779 2.332l-1.918 1.668c-.171.152-.35.228-.531.228z" fill-opacity=".3"/>
  <path d="m32.259 42c.821 0 1.5-1.517 1.69-3.774.102-1.212.05-2.482-.145-3.578-.211-1.18-.571-2.04-1.014-2.426-.169-.147-.347-.222-.53-.222-.182 0-.36.076-.53.221l-1.918 1.668c-.671.583-.903 2.436-.781 3.883.094 1.114.386 1.986.779 2.332l1.918 1.668c.171.152.35.228.531.228z" fill-opacity=".3"/>
  <path d="m35.586 22.187c-.173-.581-.18-1.199-.022-1.785.577-2.08.198-4.375.198-4.375-7.246-2.261-11.752-.019-11.752-.019s-4.494-2.256-11.746-.018c0 0-.386 2.296.185 4.378.156.585.147 1.203-.027 1.784-.202.688-.42 1.742-.422 3.085-.014 9.746 11.981 12.763 11.981 12.763s12.005-2.981 12.019-12.727c0-1.343-.215-2.396-.414-3.086z" fill="#e4e4e4"/>
  <path d="m18.236 17.002c-.298.005-.61.018-.933.041-.912.065-2.037.346-3.137.605-.009.672.017 1.483.211 2.19l.002.008.002.006c.25.938.237 1.929-.039 2.861l-.004.014c-.156.534-.336 1.394-.338 2.513-.006 4.053 2.403 6.597 5.084 8.362 2.296 1.51 4.283 2.117 4.9 2.294.618-.175 2.606-.775 4.907-2.279 2.685-1.756 5.101-4.293 5.109-8.344 0-1.121-.178-1.98-.332-2.517-.278-.937-.29-1.932-.035-2.875l.002-.008.002-.006c.196-.707.226-1.517.218-2.189-2.659-.638-4.904-.734-6.416-.528-1.772.243-2.537.649-2.537.649l-.896.445-.893-.449s-.762-.406-2.533-.654c-.664-.093-1.448-.154-2.344-.139z" fill="#49b04a"/>
  <path d="m24 24-2 6 1.999 1 2.001-1z" fill="#35393b"/>
 </g>
 <circle cx="23.99994" cy="22.97621" r="2.09492" fill="#35393b" stroke-width="1.04746"/>
 <path transform="matrix(1.04746 0 0 1.04746 -1.1391 -1.11537)" d="m28 10c-1.097 0-2 .903-2 2h4c0-1.097-.903-2-2-2z" fill="#49b04a" fill-rule="nonzero"/>
 <circle cx="22.42875" cy="13.02534" r=".52373" fill="#49b04a" stroke-width="1.04746"/>
 <circle cx="25.57113" cy="13.02534" r=".52373" fill="#49b04a" stroke-width="1.04746"/>
 <circle cx="28.71351" cy="13.02534" r=".52373" fill="#49b04a" stroke-width="1.04746"/>
</svg>
