<svg clip-rule="evenodd" fill-rule="evenodd" stroke-linejoin="round" stroke-miterlimit="2" viewBox="0 0 48 48" xmlns="http://www.w3.org/2000/svg">
 <linearGradient id="a" x2="1" gradientTransform="matrix(.6951 -45.5266 45.5266 .6951 24.2347 46.7626)" gradientUnits="userSpaceOnUse">
  <stop stop-color="#2f2f2f" offset="0"/>
  <stop stop-color="#4f4f4f" offset="1"/>
 </linearGradient>
 <linearGradient id="b" x2="1" gradientTransform="matrix(.00049823 -34.1458 34.1458 .00049823 23.9995 41.0729)" gradientUnits="userSpaceOnUse">
  <stop stop-color="#ccc" offset="0"/>
  <stop stop-color="#efefef" offset="1"/>
 </linearGradient>
 <path d="m23.825 1.236-.003.005c-12.528.095-22.586 10.207-22.586 22.759 0 12.611 10.153 22.764 22.764 22.764 12.156 0 22.025-9.435 22.722-21.411l.042-.04v-19.524c0-2.522-2.031-4.553-4.553-4.553h-18.386z" fill="url(#a)" fill-rule="nonzero"/>
 <circle cx="24" cy="24" r="17.073" fill="url(#b)"/>
 <path d="m26.503 16.241c-.087 1.009-.774.581-1.517 1.131-.2-.03-.429-.03-.742-.03-.057-.673.172-.795.285-.917.457-.367.773-.184.773-.184.343-.062.656.031 1.201 0zm1.714-1.652h-.999v-.275h-.543v.152c-.059.03-.115.092-.172.122h-.057c-.946-.795-1.002.827-1.632.459-.056-.336-.028-.642-.028-1.04 1.087-.031.686-.337.373-.734-.113-.153-.172-.398-.201-.551-.257-1.009-1.316-1.621-2.858-.978-1.002.397-.743 1.835-.658 2.814-.057.091-.172.061-.257.061-1.087.061-1.573 1.284-1.802 2.263.057.887-.056 1.866-.2 2.722s-.429 1.529-.458 2.355c-.056.734.201 1.591.144 2.264-.601 1.896-1.031 3.15-1.344 5.169-.229.458-1.028 1.437-1.344 1.652-.085.152.056.489-.085.703-.257.397-.658.611-.887 1.04.057.091-.344.183-.313.337.028.152.228.549.313.642.028.061.314-.093.314 0 .115.366.372 1.131.658 1.315 1.259.152 1.259.152 1.773 0 .285-.888-.972-.49-.859-1.683 1.717-.366 2.259-.887 2.945-2.814.314-1.407.743-2.783 1.401-4.129.113-.091.085-.336.285-.428.771 1.376 2.174 2.355 2.858 3.793.173 1.866.517 2.875 1.116 3.211.143.062 0 .642.115.765 0 .183.057.397-.028.611-.059.154-.028.337-.028.49v.183c.028.277.085.277.342.49.743.52 1.745 1.346 2.744.734.458-.796-.513-1.804-1.2-2.324-.228-.184-.629-.642-.573-.949.373-.397.63-2.141.486-3.487-.057-.305-.113-.611-.228-.856-.343-.703-1.114-1.682-1.771-2.385.085-.091.2-.215.342-.276 0-.672-.257-.887-.599-1.376-.288-.489-.943-1.437-1.432-1.743 0 0 0-.031-.485-.031-.028-.336.059-.612.143-.979 0-.275.201-.122.258-.734.143-.52.084-.214.2-.734.113-.244.172-.489.172-.887.427.153 1.285.122 1.658 0l.085.061c.115.031.144-.152.228-.183.658-.367.887-1.009 1.43-1.071 0 0 .287-.153.714 0 .172 0 .316.031.316-.153.028-.275.028-.488.172-.673.113.734.427 1.561 1 2.356l.571-.428c-.543-.703-.884-1.498-.943-2.416.028.061.058.122.115.184.2 0 .314-.459.543-.429.028-.061.087-.337.143-.551h2.144l.771-.183v-.429l-.571-.061v-.489h-.143v-.551h-.342v.52l-.887-.061v-.337h-.342v.306l-.915-.091v-.459h-.344v.428l-1.344-.091v-.152h.001l-.001-.001z" fill="#4f4f4f"/>
</svg>
