<svg clip-rule="evenodd" fill-rule="evenodd" stroke-linejoin="round" stroke-miterlimit="2" viewBox="0 0 48 48" xmlns="http://www.w3.org/2000/svg">
 <linearGradient id="a" x2="1" gradientTransform="matrix(0 -43.336 43.336 0 23.8117 45.668)" gradientUnits="userSpaceOnUse">
  <stop stop-color="#494d45" offset="0"/>
  <stop stop-color="#7a7c77" offset="1"/>
 </linearGradient>
 <path d="m45.668 8.587c0-3.452-2.803-6.255-6.255-6.255h-30.826c-3.452 0-6.255 2.803-6.255 6.255v30.826c0 3.452 2.803 6.255 6.255 6.255h30.826c3.452 0 6.255-2.803 6.255-6.255z" fill="url(#a)"/>
 <path d="m21.833 9.916c-3.601 0-6.5 2.899-6.5 6.5v15.168c0 3.601 2.899 6.5 6.5 6.5h4.334c2.839 0 5.234-1.806 6.124-4.333h-10.458c-1.275 0-2.167-.892-2.167-2.167v-15.168c0-1.275.892-2.167 2.167-2.167h10.458c-.89-2.527-3.285-4.333-6.124-4.333zm8.667 18.501v-10.917h2.167v13h-1.083c-.571 0-2.282.268-3.85-.017-1.171-.213-2.255-.721-2.953-1.674-.47-.642-.781-1.495-.781-2.642v-8.667h2.167v8.667c0 .587.122 1.033.363 1.362.368.503.973.71 1.591.822.827.15 1.697.119 2.379.066z" fill="#ff9800" fill-rule="nonzero"/>
</svg>
