<svg style="clip-rule:evenodd;fill-rule:evenodd;stroke-linejoin:round;stroke-miterlimit:2" viewBox="0 0 48 48" xmlns="http://www.w3.org/2000/svg">
 <path d="m45.201 18.421c0 9.244-9.492 27.895-21.201 27.895s-21.201-18.651-21.201-27.895 5.524-16.737 21.201-16.737 21.201 7.493 21.201 16.737z" style="fill-rule:nonzero;fill:url(#_Linear1)"/>
 <path d="m21.312 39.077c-0.137-0.3-0.323-0.864-0.414-1.255-0.304-1.302-0.174-1.175-1.283-1.247-2.031-0.132-3.475-0.928-4.538-2.503-1.461-2.166-1.531-5.264-0.203-9.025 0.268-0.757 0.471-1.393 0.451-1.412-0.019-0.018-0.402-0.13-0.851-0.248-2.185-0.573-4.073-1.896-5.099-3.572-0.746-1.218-1.131-3.029-0.954-4.487 0.21-1.738 0.818-2.926 2.156-4.214 1.108-1.067 2.114-1.682 3.503-2.143 2.673-0.885 5.707-0.775 8.373 0.306 1.481 0.6 3.287 1.812 4.15 2.783 0.231 0.261 0.485 0.475 0.564 0.475 0.078 0 0.621-0.232 1.205-0.516 2.997-1.454 6.299-2.42 8.279-2.42 0.701 0 1.646 0.254 2.093 0.562 0.714 0.492 1.047 1.614 0.793 2.671-0.184 0.761-0.82 1.877-1.528 2.681-2.646 3.001-9.075 6.317-14.616 7.539-1.117 0.246-3.465 0.617-4.305 0.68-0.316 0.024-0.367 0.074-0.657 0.642-0.452 0.885-1.067 2.763-1.355 4.142-0.446 2.13-0.423 4.021 0.063 5.278 0.261 0.675 1.022 1.484 1.686 1.793 0.593 0.276 1.509 0.458 1.599 0.317 0.033-0.051 0.051-0.788 0.041-1.637-0.043-3.566 0.971-6.14 3.255-8.256 1.342-1.243 2.698-1.787 4.271-1.712 1.766 0.084 2.857 1.018 3.131 2.68 0.327 1.978-0.672 4.109-2.915 6.219-1.832 1.722-3.865 2.796-6.086 3.214-0.35 0.066-0.696 0.163-0.768 0.217-0.177 0.129-0.081 0.951 0.236 2.009 0.277 0.926 0.283 0.983 0.105 0.983-0.073 0-0.245-0.245-0.382-0.544zm1.526-3.379c1.844-0.453 3.442-1.347 4.976-2.783 1.849-1.731 2.721-3.363 2.721-5.093 0-1.095-0.374-1.848-1.125-2.262-0.521-0.288-0.898-0.344-1.582-0.237-0.924 0.144-1.885 0.665-2.759 1.495-1.639 1.559-2.971 3.903-3.573 6.291-0.252 0.996-0.427 2.533-0.309 2.716 0.103 0.163 0.638 0.121 1.651-0.127zm1.093-14.208c4.96-0.729 10.114-2.959 12.968-5.611 1.551-1.441 2.249-2.611 2.244-3.764-4e-3 -0.886-0.624-1.723-1.439-1.942-0.923-0.248-2.477-0.072-4.177 0.473-1.607 0.515-5.536 2.527-5.536 2.834 0 0.054 0.325 0.621 0.721 1.258 0.978 1.574 1.258 2.128 1.185 2.349-0.033 0.101-0.097 0.183-0.142 0.183-0.149 0-0.529-0.51-1.225-1.644-0.376-0.613-0.809-1.262-0.962-1.441l-0.277-0.326-0.31 0.21c-1.655 1.117-4.447 3.68-5.544 5.088-0.683 0.876-1.664 2.349-1.664 2.499 0 0.132 2.921 0.015 4.158-0.166zm-6.325-1.086c2.321-2.905 4.778-4.984 8.704-7.365 0.292-0.177 0.256-0.219-1.028-1.208-1.695-1.307-3.081-2.002-4.838-2.428-1.156-0.281-3.522-0.354-4.75-0.147-2.892 0.488-5.266 2.162-6.057 4.271-0.998 2.663 0.358 5.528 3.287 6.944 1.004 0.485 2.831 1.039 3.48 1.054 0.271 7e-3 0.389-0.104 1.202-1.121z" style="fill-rule:nonzero;fill:#fff"/>
 <defs>
  <linearGradient id="_Linear1" x2="1" gradientTransform="matrix(-.598244 -44.5261 44.5261 -.598244 24 46.2134)" gradientUnits="userSpaceOnUse">
   <stop style="stop-color:#1b4057" offset="0"/>
   <stop style="stop-color:#2c5771" offset="1"/>
  </linearGradient>
 </defs>
</svg>
