<svg clip-rule="evenodd" fill-rule="evenodd" stroke-linejoin="round" stroke-miterlimit="2" viewBox="0 0 48 48" xmlns="http://www.w3.org/2000/svg">
 <linearGradient id="a" x2="1" gradientTransform="matrix(.0207672 -34.2049 34.2049 .0207672 23.9792 41.2728)" gradientUnits="userSpaceOnUse">
  <stop stop-color="#e7e7e7" offset="0"/>
  <stop stop-color="#ffffff" offset="1"/>
 </linearGradient>
 <path d="m36.65 41.236c-.005-2.022.023-4.062-.305-6.063-.587-3.937-5.016-8.563-6.241-9.471-1.226-.906-.982-2.225.134-3.182 1.115-.958 3.768-3.41 5.113-6.105 1.344-2.694 1.443-6.386 1.299-9.652h-25.299c-.146 3.266-.044 6.957 1.3 9.652 1.343 2.695 3.997 5.147 5.113 6.105 1.114.957 1.358 2.276.132 3.182-1.224.908-5.653 5.533-6.24 9.471-.329 2.001-.301 4.041-.305 6.064h12.649z" fill="url(#a)" fill-rule="nonzero"/>
 <path d="m15.53 12.364c.043 1.861.985 3.177 2.448 4.315 1.505 1.449 3.27 2.692 4.421 4.46.742 1.433.48 3.032.543 4.584v7.936l-8.612 7.614c6.433 0 12.867-.003 19.298-.005l-8.577-7.553c.01-3.567-.021-7.164.015-10.713-.104-1.419.84-2.606 1.881-3.468 1.65-1.648 3.109-2.664 4.492-4.553.604-.874.949-1.497 1.072-2.627z" fill="#ffa976" fill-rule="nonzero"/>
 <path d="m40.932 42.508c0-.87-.706-1.576-1.576-1.576h-30.712c-.87 0-1.576.706-1.576 1.576v1.081c0 .87.706 1.576 1.576 1.576h30.712c.87 0 1.576-.706 1.576-1.576zm0-38.097c0-.87-.706-1.576-1.576-1.576h-30.712c-.87 0-1.576.706-1.576 1.576v1.081c0 .87.706 1.576 1.576 1.576h30.712c.87 0 1.576-.706 1.576-1.576z" fill="#884c26"/>
</svg>
