<svg clip-rule="evenodd" fill-rule="evenodd" stroke-linejoin="round" stroke-miterlimit="2" viewBox="0 0 48 48" xmlns="http://www.w3.org/2000/svg" xmlns:xlink="http://www.w3.org/1999/xlink">
 <linearGradient id="a" x2="1" gradientTransform="matrix(-5.36273 -34.8935 34.8935 -5.36273 24.6321 43.778)" gradientUnits="userSpaceOnUse">
  <stop stop-color="#23d693" offset="0"/>
  <stop stop-color="#807af6" offset="1"/>
 </linearGradient>
 <linearGradient id="b" x2="1" gradientTransform="matrix(39.6484 5.11247 -5.11247 39.6484 2.43039 6.88246)" gradientUnits="userSpaceOnUse">
  <stop stop-color="#23d693" offset="0"/>
  <stop stop-color="#fa5ae8" offset="1"/>
 </linearGradient>
 <linearGradient id="c">
  <stop stop-color="#23d693" offset="0"/>
  <stop stop-color="#9471f8" offset="1"/>
 </linearGradient>
 <linearGradient id="d" x2="1" gradientTransform="matrix(30.639 14.3006 -14.3006 30.639 2.78791 22.2556)" gradientUnits="userSpaceOnUse" xlink:href="#c"/>
 <linearGradient id="e" x2="1" gradientTransform="matrix(15.6234 24.454 -24.454 15.6234 27.3849 2.77104)" gradientUnits="userSpaceOnUse" xlink:href="#c"/>
 <linearGradient id="f" x2="1" gradientTransform="matrix(25.8761 27.668 -27.668 25.8761 -268.477 272.709)" gradientUnits="userSpaceOnUse">
  <stop stop-color="#450002" offset="0"/>
  <stop stop-color="#1f1737" offset=".49"/>
  <stop stop-color="#131f48" offset="1"/>
 </linearGradient>
 <path d="m2.391 40.728c.055 0 29.048 4.581 29.048 4.581l-8.324-36.645-8.435-.112s-12.345 32.176-12.289 32.176z" fill="url(#a)"/>
 <path d="m2.167 2.295-.112 19.775 37.819 12.904 2.793-26.031-40.5-6.648z" fill="url(#b)"/>
 <path d="m2.055 22.07 29.272 23.239 5.865-17.261z" fill="url(#d)"/>
 <path d="m27.305 2.016 15.418 6.815 2.793 18.043-12.681 5.922-14.077-21.842z" fill="url(#e)"/>
 <path d="m10.17 10.14h27.783v27.853h-27.783z" fill="url(#f)"/>
 <path d="m23.408 32.791h-10.457v1.931h10.457zm6.457-18.828c.998 0 1.893.217 2.684.649.791.433 1.456 1.042 1.994 1.827l-1.615 1.367c-.382-.531-.822-.943-1.322-1.237-.499-.295-1.091-.442-1.775-.442-.539 0-1.027.092-1.464.277-.438.185-.814.444-1.128.779s-.555.733-.723 1.195c-.169.461-.253.963-.253 1.506 0 .553.087 1.064.261 1.532.174.467.424.871.749 1.211.325.341.712.606 1.161.797.449.19.954.285 1.515.285.662 0 1.24-.127 1.733-.381.494-.253.898-.6 1.212-1.038v-.935h-3.063v-2.025h5.335v3.375c-.247.45-.55.866-.909 1.247-.359.38-.766.706-1.22.978-.454.271-.948.484-1.481.64s-1.097.234-1.691.234c-.842 0-1.624-.15-2.348-.45s-1.352-.716-1.885-1.247c-.533-.53-.951-1.157-1.254-1.878s-.454-1.503-.454-2.345c0-.843.151-1.625.454-2.346s.721-1.347 1.254-1.878 1.161-.947 1.885-1.247 1.506-.45 2.348-.45zm-13.262.208c.886 0 1.703.136 2.449.407s1.383.655 1.91 1.151.939 1.093 1.237 1.792c.297.698.446 1.474.446 2.328 0 .842-.149 1.616-.446 2.32-.298.704-.71 1.309-1.237 1.817s-1.164.903-1.91 1.186-1.563.424-2.449.424h-3.652v-11.425zm-1.38 2.112v7.201h1.363c.561 0 1.072-.086 1.532-.259.46-.174.852-.419 1.178-.736.325-.318.578-.698.757-1.143.18-.444.269-.943.269-1.497 0-.566-.089-1.068-.269-1.506-.179-.439-.432-.811-.757-1.117-.326-.305-.718-.539-1.178-.701-.46-.161-.971-.242-1.532-.242z" fill="#ebebeb"/>
</svg>
