<svg clip-rule="evenodd" fill-rule="evenodd" stroke-linejoin="round" stroke-miterlimit="2" viewBox="0 0 48 48" xmlns="http://www.w3.org/2000/svg">
 <linearGradient id="a" x2="1" gradientTransform="matrix(0 -40 40 0 23.5692 44)" gradientUnits="userSpaceOnUse">
  <stop stop-color="#e4e4e4" offset="0"/>
  <stop stop-color="#ffffff" offset="1"/>
 </linearGradient>
 <g fill-rule="nonzero">
  <path d="m45.668 39.44c0 3.438-2.79 6.228-6.228 6.228h-30.88c-3.438 0-6.228-2.79-6.228-6.228v-18.799h43.336z" fill="url(#a)"/>
  <path d="m39.44 2.332c3.438 0 6.228 2.79 6.228 6.228v12.19h-43.336v-12.19c0-3.438 2.79-6.228 6.228-6.228z" fill="#cdcdcd"/>
  <path d="m35.299 28.334h-7.43c-2.735 0-4.952 2.183-4.952 4.876s2.217 4.874 4.952 4.874h7.43c2.735 0 3.977-2.181 3.977-4.874s-1.242-4.876-3.977-4.876z" fill="#0990b0"/>
  <path d="m30.5 33.209c0 2.692 2.183 4.875 4.876 4.875 2.694 0 4.875-2.183 4.875-4.875s-2.181-4.875-4.875-4.875c-2.693 0-4.876 2.183-4.876 4.875z" fill="#ffffff"/>
  <path d="m9.137 35.917h5.891c.168 0 .305.137.305.305v2.641c0 .168-.137.305-.305.305h-5.891c-.168 0-.305-.137-.305-.305v-2.641c0-.168.137-.305.305-.305zm.034-7.583h10.157c.187 0 .338.136.338.304v2.641c0 .168-.151.305-.338.305h-10.157c-.187 0-.339-.137-.339-.305v-2.641c0-.168.152-.304.339-.304z" fill-opacity=".25"/>
  <path d="m15.333 8.832h3.25v3.251h-3.25zm11.917 0h11.918v3.251h-11.918z" fill="#434343"/>
  <path d="m27.25 14.249h11.917v2.167h-11.917z" fill="#0990b0"/>
  <path d="m24.361 5.582h1.753l-3.611 10.834h-1.753zm-13.001 0h1.707l-3.611 10.834h-1.707z" fill-opacity=".2"/>
 </g>
</svg>
