<svg clip-rule="evenodd" fill-rule="evenodd" stroke-linejoin="round" stroke-miterlimit="2" viewBox="0 0 48 48" xmlns="http://www.w3.org/2000/svg">
 <g fill-rule="nonzero">
  <path d="m17.854 29.762-6.456 6.604 6.456 6.456z" fill="#bf9ae5"/>
  <path d="m20.657 45.625-2.803-2.803v-.768l3.073-9.219 9.219-3.073 5.378.768.773 5.373.001.768-8.954 8.953c-1.91 1.674-4.777 1.674-6.687.001z" fill="#50d0e6"/>
  <path d="m17.854 17.469 1.536-4.609 4.61-1.537 3.073 6.146-3.073 6.146-5.378-.768z" fill="#21a57e"/>
  <path d="m30.146 29.762 6.151 6.141 3.068-6.141-3.073-6.147-4.609 1.537z" fill="#fecd48"/>
  <path d="m24 23.615 3.073-9.219 9.219-3.073 3.073 7.683-3.073 4.609-6.146 6.147h-6.146z" fill="#feaa00"/>
  <path d="m30.146 29.762-12.292 12.292v-12.292l1.536-4.61 4.61-1.537z" fill="#bee8f5"/>
  <path d="m24 11.323 1.537-4.993 4.609-1.153 6.146 6.146-12.292 12.292z" fill="#2ec299"/>
  <path d="m2.311 20.732 4.262-4.274 5.147-5.147 4.597 1.549 1.537 4.609-3.073 9.22-9.219 3.073v.768l-3.187-3.187c-1.651-1.885-1.673-4.702-.064-6.611z" fill="#6746d6"/>
  <path d="m20.652 2.38c1.911-1.68 4.785-1.68 6.696 0l2.794 2.793-6.142 6.15-6.146 3.073-6.146-3.073z" fill="#f8e859"/>
  <path d="m45.62 20.652c1.678 1.909 1.68 4.779.006 6.69l-3.182 3.182-6.177-6.178.025-13.023z" fill="#e7375f"/>
  <path d="m24 11.323 6.146 6.146 6.146-6.146-6.146-6.146z" fill="#fefefe"/>
  <path d="m11.708 11.323 6.146 6.146 6.146-6.146z" fill="#eec40a"/>
  <path d="m36.292 23.615.006 13.056 6.5-6.501z" fill="#f87d9e"/>
  <path d="m11.717 23.606-6.541 6.537 6.222 6.223 6.456-6.604z" fill="#8d60d8"/>
  <path d="m24 23.615-6.146 6.147-6.137-6.156 6.137-3.064z" fill="#5dc2f3"/>
  <path d="m24 23.615-6.146-6.146-6.146 6.146z" fill="#1b8dd3"/>
 </g>
</svg>
