<svg clip-rule="evenodd" fill-rule="evenodd" stroke-linejoin="round" stroke-miterlimit="2" viewBox="0 0 48 48" xmlns="http://www.w3.org/2000/svg">
 <linearGradient id="a" x2="1" gradientTransform="matrix(-.506203 -42 42 -.506203 420.606 40.2199)" gradientUnits="userSpaceOnUse">
  <stop stop-color="#c2d2d4" offset="0"/>
  <stop stop-color="#fff" offset="1"/>
 </linearGradient>
 <path d="m36.92 2.443c2.783 0 5.039 2.257 5.039 5.04v33.034c0 2.784-2.256 5.041-5.039 5.041h-25.84c-2.783 0-5.039-2.257-5.039-5.04v-33.035c0-2.783 2.256-5.04 5.039-5.04z" fill="url(#a)" fill-rule="nonzero"/>
 <path d="m34.402 4c-.318.949-1.347 3.982-2.82 7.584-.861 2.106-1.816 4.234-2.715 5.846-.449.805-.888 1.483-1.265 1.945-.378.462-.72.661-.725.662-.367.104-.862-.009-1.576-.455s-1.551-1.182-2.432-1.978c-1.762-1.593-3.678-3.557-6.144-3.604-2.241-.042-4.006 1.271-5.059 3.096s-1.546 4.17-1.645 6.631c-.098 2.444.134 5.089 1.034 7.267s2.68 3.957 5.277 4.006c2.732.052 4.782-2.002 6.541-3.791.879-.895 1.7-1.759 2.43-2.354s1.329-.863 1.732-.855c-.075-.001.159.047.5.439.342.393.757 1.035 1.174 1.831.834 1.59 1.7 3.785 2.467 5.982 1.24 3.553 2.059 6.516 2.392 7.748h2.077c-.2-.75-1.166-4.356-2.581-8.408-.784-2.246-1.665-4.498-2.584-6.25-.459-.876-.922-1.628-1.435-2.217s-1.112-1.109-1.973-1.125c-1.167-.022-2.143.58-3.033 1.305-.889.724-1.733 1.63-2.592 2.504-1.717 1.746-3.446 3.222-5.078 3.191-1.767-.033-2.746-1.025-3.467-2.77-.721-1.744-.973-4.173-.882-6.423.089-2.235.57-4.309 1.378-5.711.809-1.402 1.793-2.124 3.29-2.096 1.27.024 3.069 1.484 4.841 3.086.886.801 1.771 1.605 2.713 2.193.942.589 2.037 1.005 3.176.684.748-.211 1.235-.714 1.732-1.322.498-.609.978-1.368 1.463-2.237.97-1.737 1.943-3.915 2.821-6.062 1.713-4.191 3.018-8.148 3.082-8.342z" fill="#353535"/>
 <circle cx="36.515628" cy="37.369728" r="9.987593" fill="#353535" stroke-width=".907963"/>
 <path transform="matrix(.907963 0 0 .907963 3.82896 4.68306)" d="m30 39.327v2.673h2.673l6.751-6.751-2.673-2.673zm11.788-6.434c.283-.282.283-.728 0-1.011l-1.67-1.67c-.283-.283-.729-.283-1.011 0l-1.397 1.405 2.673 2.673z" fill="#fff" fill-rule="nonzero"/>
</svg>
