<svg clip-rule="evenodd" fill-rule="evenodd" stroke-linejoin="round" stroke-miterlimit="2" viewBox="0 0 48 48" xmlns="http://www.w3.org/2000/svg">
 <g fill-rule="nonzero">
  <path d="m5.143 7c-1.741 0-3.143 1.524-3.143 3.417v27.492c0 1.712 1.402 3.091 3.143 3.091h37.714c1.741 0 3.143-1.379 3.143-3.091v-27.492c0-1.893-1.402-3.417-3.143-3.417z" fill="#e4e4e4"/>
  <path d="m6.377 11h2.246c.829 0 1.414.698 1.497 1.556l.374 3.888c.082.858-.668 1.556-1.497 1.556h-2.994c-.829 0-1.579-.698-1.497-1.556l.374-3.888c.083-.858.668-1.556 1.497-1.556z" fill="#3d3846"/>
  <path d="m10 12.333v1.334c0 .738-.637 1.333-1.429 1.333h-2.142c-.792 0-1.429-.595-1.429-1.333v-1.334c0-.738.637-1.333 1.429-1.333h2.142c.792 0 1.429.595 1.429 1.333z" fill="#625f67"/>
  <path d="m16.38 28h14.24c.83 0 1.416.698 1.499 1.556l.375 3.888c.082.858-.669 1.556-1.499 1.556h-14.99c-.83 0-1.581-.698-1.499-1.556l.375-3.888c.083-.858.669-1.556 1.499-1.556z" fill="#76757a"/>
  <path d="m32 29.333v1.334c0 .738-.659 1.333-1.478 1.333h-14.044c-.819 0-1.478-.595-1.478-1.333v-1.334c0-.738.659-1.333 1.478-1.333h14.044c.819 0 1.478.595 1.478 1.333z" fill="#aeadad"/>
  <path d="m14.377 11h2.246c.829 0 1.414.698 1.497 1.556l.374 3.888c.082.858-.668 1.556-1.497 1.556h-2.994c-.829 0-1.579-.698-1.497-1.556l.374-3.888c.083-.858.668-1.556 1.497-1.556z" fill="#3d3846"/>
  <path d="m18 12.333v1.334c0 .738-.637 1.333-1.429 1.333h-2.142c-.792 0-1.429-.595-1.429-1.333v-1.334c0-.738.637-1.333 1.429-1.333h2.142c.792 0 1.429.595 1.429 1.333z" fill="#625f67"/>
  <path d="m22.377 11h2.246c.829 0 1.414.698 1.497 1.556l.374 3.888c.082.858-.668 1.556-1.497 1.556h-2.994c-.829 0-1.579-.698-1.497-1.556l.374-3.888c.083-.858.668-1.556 1.497-1.556z" fill="#3d3846"/>
  <path d="m26 12.333v1.334c0 .738-.637 1.333-1.429 1.333h-2.142c-.792 0-1.429-.595-1.429-1.333v-1.334c0-.738.637-1.333 1.429-1.333h2.142c.792 0 1.429.595 1.429 1.333z" fill="#625f67"/>
  <path d="m30.377 11h2.246c.829 0 1.414.698 1.497 1.556l.374 3.888c.082.858-.668 1.556-1.497 1.556h-2.994c-.829 0-1.579-.698-1.497-1.556l.374-3.888c.083-.858.668-1.556 1.497-1.556z" fill="#3d3846"/>
  <path d="m34 12.333v1.334c0 .738-.637 1.333-1.429 1.333h-2.142c-.792 0-1.429-.595-1.429-1.333v-1.334c0-.738.637-1.333 1.429-1.333h2.142c.792 0 1.429.595 1.429 1.333z" fill="#625f67"/>
  <path d="m38.377 11h2.246c.829 0 1.414.698 1.497 1.556l.374 3.888c.082.858-.668 1.556-1.497 1.556h-2.994c-.829 0-1.579-.698-1.497-1.556l.374-3.888c.083-.858.668-1.556 1.497-1.556z" fill="#3d3846"/>
  <path d="m42 12.333v1.334c0 .738-.637 1.333-1.429 1.333h-2.142c-.792 0-1.429-.595-1.429-1.333v-1.334c0-.738.637-1.333 1.429-1.333h2.142c.792 0 1.429.595 1.429 1.333z" fill="#625f67"/>
  <path d="m10.377 20h2.246c.829 0 1.414.698 1.497 1.556l.374 3.888c.082.858-.668 1.556-1.497 1.556h-2.994c-.829 0-1.579-.698-1.497-1.556l.374-3.888c.083-.858.668-1.556 1.497-1.556z" fill="#3d3846"/>
  <path d="m14 21.333v1.334c0 .738-.637 1.333-1.429 1.333h-2.142c-.792 0-1.429-.595-1.429-1.333v-1.334c0-.738.637-1.333 1.429-1.333h2.142c.792 0 1.429.595 1.429 1.333z" fill="#625f67"/>
  <path d="m18.377 20h2.246c.829 0 1.414.698 1.497 1.556l.374 3.888c.082.858-.668 1.556-1.497 1.556h-2.994c-.829 0-1.579-.698-1.497-1.556l.374-3.888c.083-.858.668-1.556 1.497-1.556z" fill="#3d3846"/>
  <path d="m22 21.333v1.334c0 .738-.637 1.333-1.429 1.333h-2.142c-.792 0-1.429-.595-1.429-1.333v-1.334c0-.738.637-1.333 1.429-1.333h2.142c.792 0 1.429.595 1.429 1.333z" fill="#625f67"/>
  <path d="m26.377 20h2.246c.829 0 1.414.698 1.497 1.556l.374 3.888c.082.858-.668 1.556-1.497 1.556h-2.994c-.829 0-1.579-.698-1.497-1.556l.374-3.888c.083-.858.668-1.556 1.497-1.556z" fill="#3d3846"/>
  <path d="m30 21.333v1.334c0 .738-.637 1.333-1.429 1.333h-2.142c-.792 0-1.429-.595-1.429-1.333v-1.334c0-.738.637-1.333 1.429-1.333h2.142c.792 0 1.429.595 1.429 1.333z" fill="#625f67"/>
  <path d="m34.377 20h2.246c.829 0 1.414.698 1.497 1.556l.374 3.888c.082.858-.668 1.556-1.497 1.556h-2.994c-.829 0-1.579-.698-1.497-1.556l.374-3.888c.083-.858.668-1.556 1.497-1.556z" fill="#c64600"/>
  <path d="m38 21.333v1.334c0 .738-.637 1.333-1.429 1.333h-2.142c-.792 0-1.429-.595-1.429-1.333v-1.334c0-.738.637-1.333 1.429-1.333h2.142c.792 0 1.429.595 1.429 1.333z" fill="#ff7402"/>
  <path d="m8.377 28h2.246c.829 0 1.414.698 1.497 1.556l.374 3.888c.082.858-.668 1.556-1.497 1.556h-2.994c-.829 0-1.579-.698-1.497-1.556l.374-3.888c.083-.858.668-1.556 1.497-1.556z" fill="#3d3846"/>
  <path d="m12 29.333v1.334c0 .738-.637 1.333-1.429 1.333h-2.142c-.792 0-1.429-.595-1.429-1.333v-1.334c0-.738.637-1.333 1.429-1.333h2.142c.792 0 1.429.595 1.429 1.333z" fill="#625f67"/>
  <path d="m36.377 28h2.246c.829 0 1.414.698 1.497 1.556l.374 3.888c.082.858-.668 1.556-1.497 1.556h-2.994c-.829 0-1.579-.698-1.497-1.556l.374-3.888c.083-.858.668-1.556 1.497-1.556z" fill="#3d3846"/>
  <path d="m40 29.333v1.334c0 .738-.637 1.333-1.429 1.333h-2.142c-.792 0-1.429-.595-1.429-1.333v-1.334c0-.738.637-1.333 1.429-1.333h2.142c.792 0 1.429.595 1.429 1.333z" fill="#625f67"/>
  <path d="m2 34.908v3c0 1.713 1.401 3.092 3.143 3.092h37.714c1.742 0 3.143-1.379 3.143-3.092v-3c0 1.713-1.401 3.092-3.143 3.092h-37.714c-1.742 0-3.143-1.379-3.143-3.092z" fill-opacity=".2"/>
 </g>
</svg>
