<svg clip-rule="evenodd" fill-rule="evenodd" stroke-linejoin="round" stroke-miterlimit="2" viewBox="0 0 48 48" xmlns="http://www.w3.org/2000/svg">
 <linearGradient id="a" x2="1" gradientTransform="matrix(0 -35.3911 35.3911 0 968.766 41.2823)" gradientUnits="userSpaceOnUse">
  <stop stop-color="#1a1a1a" offset="0"/>
  <stop stop-color="#494949" offset="1"/>
 </linearGradient>
 <circle cx="24" cy="24" r="22.764" fill="url(#a)"/>
 <path d="m34.794 15.204c.295-1.709.728-2.784 1.207-2.786h.001c.894.003 1.618 3.73 1.618 8.332 0 4.601-.725 8.331-1.62 8.331-.367 0-.705-.633-.978-1.695-.43 3.885-1.324 6.556-2.358 6.556-.801 0-1.519-1.604-2.002-4.134-.329 4.812-1.158 8.226-2.126 8.226-.608 0-1.163-1.353-1.573-3.556-.493 4.547-1.633 7.733-2.963 7.733-1.329 0-2.471-3.185-2.962-7.733-.408 2.203-.962 3.556-1.573 3.556-.969 0-1.795-3.414-2.127-8.226-.482 2.53-1.198 4.134-2.001 4.134-1.033 0-1.928-2.669-2.359-6.556-.27 1.065-.611 1.695-.977 1.695-.895 0-1.621-3.73-1.621-8.331 0-4.602.726-8.332 1.621-8.332.48 0 .909 1.078 1.207 2.786.478-2.947 1.253-4.862 2.129-4.862 1.041 0 1.943 2.708 2.369 6.642.418-2.863 1.051-4.688 1.76-4.688.994 0 1.839 3.589 2.152 8.596.589-2.567 1.441-4.177 2.384-4.177.944 0 1.796 1.611 2.383 4.177.315-5.007 1.159-8.596 2.153-8.596.708 0 1.34 1.825 1.76 4.688.425-3.934 1.327-6.642 2.368-6.642.873 0 1.651 1.916 2.128 4.862zm-26.729 4.726c0-2.057.412-3.725.919-3.725.508 0 .919 1.668.919 3.725s-.411 3.725-.919 3.725c-.507 0-.919-1.668-.919-3.725zm30.032 0c0-2.057.411-3.725.919-3.725.507 0 .919 1.668.919 3.725s-.412 3.725-.919 3.725c-.508 0-.919-1.668-.919-3.725z" fill="#c255ff" fill-rule="nonzero"/>
</svg>
