<svg clip-rule="evenodd" fill-rule="evenodd" stroke-linejoin="round" stroke-miterlimit="2" viewBox="0 0 48 48" xmlns="http://www.w3.org/2000/svg">
 <linearGradient id="a" x2="1" gradientTransform="matrix(0 -33.6872 33.6872 0 923.28 40.4502)" gradientUnits="userSpaceOnUse">
  <stop stop-color="#006783" offset="0"/>
  <stop stop-color="#13bee3" offset="1"/>
 </linearGradient>
 <path d="m39.44 45.668h-30.88c-3.438 0-6.228-2.79-6.228-6.228v-30.88c0-3.438 2.79-6.228 6.228-6.228h30.88c3.438 0 6.228 2.79 6.228 6.228v30.88c0 3.438-2.79 6.228-6.228 6.228z" fill="url(#a)"/>
 <path transform="matrix(1.11839 0 0 1.11839 -2.84128 -2.84126)" d="m9 15h18c1.662 0 3 1.338 3 3v12c0 1.662-1.338 3-3 3h-18v-12.109h4v8.109h11c1.108 0 2-.743 2-1.666v-6.668c0-.923-.892-1.666-2-1.666h-15zm26 0h4v4h-4zm0 5.891h4v12.109h-4z" fill="#fff"/>
</svg>
