<svg clip-rule="evenodd" fill-rule="evenodd" stroke-linejoin="round" stroke-miterlimit="2" viewBox="0 0 48 48" xmlns="http://www.w3.org/2000/svg">
 <linearGradient id="a" x2="1" gradientTransform="matrix(-8.4e-7 -45.528 45.528 -8.4e-7 24 46.764)" gradientUnits="userSpaceOnUse">
  <stop stop-color="#d94700" offset="0"/>
  <stop stop-color="#f60" offset="1"/>
 </linearGradient>
 <circle cx="24" cy="24" r="22.764" fill="url(#a)"/>
 <circle cx="24" cy="24" r="18.211" fill="#fff" fill-opacity=".89"/>
 <path d="m42.371 43.663c-4.534-3.877-6.232-6.203-11.032-9.758-.84-.348-.989.114-1.998.701-3.892 2.261-4.625 2.676-6.542 2.676-1.631 0-2.097-.123-3.723-.98-1.021-.539-2.033-1.231-2.246-1.538-1.291-1.852-1.761-2.627-2.637-4.352-.537-1.057-1.042-2.441-1.123-3.076s-.359-1.579-.618-2.097-.79-2.203-1.181-3.745c-.56-2.208-.675-3.588-.543-4.86.212-2.041-.417-2.822-2.003-4.405-1.483-1.48-5.831-7.201-6.573-8.853-.637-1.417-.265-2.151.474-.936 2.302 3.783 6.183 8.31 8.079 9.426 1.119.658 1.217.448 2.988.13 3.129-.561 8.415.063 10.066 1.189.56.383 1.174.695 1.363.695.19 0 1.027.241 1.861.535.834.295 1.802.535 2.151.535.948 0 2.716.717 3.177 1.48.224.371.994 1.062 1.712 1.536 1.056.698 1.495 1.245 2.303 2.869 1.132 2.274 1.198 3.025.604 5.036-.32 1.08-.777 1.784-1.853 2.856-1.868 1.861-2.541 2.854-1.462 4.42 1.258 1.826 4.013 4.379 8.261 8.152 2.195 1.95 4.06 3.725 4.144 3.945.635 1.661-.723 1.073-3.649-1.581z" fill="#5a860b" fill-rule="nonzero"/>
</svg>
