<svg clip-rule="evenodd" fill-rule="evenodd" stroke-linejoin="round" stroke-miterlimit="2" viewBox="0 0 48 48" xmlns="http://www.w3.org/2000/svg">
 <linearGradient id="a" x2="1" gradientTransform="matrix(0 -43.3373 43.3373 0 201.9 45.6687)" gradientUnits="userSpaceOnUse">
  <stop stop-color="#523c2a" offset="0"/>
  <stop stop-color="#765e4a" offset="1"/>
 </linearGradient>
 <path d="m45.668 8.56c0-3.438-2.79-6.228-6.228-6.228h-30.88c-3.438 0-6.228 2.79-6.228 6.228v30.88c0 3.438 2.79 6.228 6.228 6.228h30.88c3.438 0 6.228-2.79 6.228-6.228z" fill="url(#a)"/>
 <path d="m41.447 2.6c0-.772-.628-1.4-1.4-1.4h-8.053c-.773 0-1.4.628-1.4 1.4v24.333c0 .773.627 1.4 1.4 1.4h8.053c.772 0 1.4-.627 1.4-1.4z" fill="#b38a48"/>
 <path d="m27.338 32.989c0-.773-.628-1.4-1.4-1.4h-23.248c-.772 0-1.4.627-1.4 1.4v8.053c0 .773.628 1.4 1.4 1.4h23.248c.772 0 1.4-.627 1.4-1.4z" fill="#c8a972"/>
 <g fill="#fff">
  <path d="m41.447 32.989c0-.773-.628-1.4-1.4-1.4h-8.053c-.773 0-1.4.627-1.4 1.4v8.053c0 .773.627 1.4 1.4 1.4h8.053c.772 0 1.4-.627 1.4-1.4z"/>
  <path d="m9.322 7.712c-.842 0-1.52.679-1.52 1.52v1.736h14.109v5.427h-14.109v10.419c0 .841.678 1.519 1.52 1.519h16.496c.841 0 1.52-.678 1.52-1.519v-17.582c0-.841-.679-1.52-1.52-1.52zm1.736 11.939h10.853v5.426h-10.853z" fill-rule="nonzero"/>
 </g>
</svg>
