<svg clip-rule="evenodd" fill-rule="evenodd" stroke-linejoin="round" stroke-miterlimit="2" viewBox="0 0 48 48" xmlns="http://www.w3.org/2000/svg">
 <g transform="matrix(1.1382 0 0 1.1382 -3.3168 -3.3168)" fill-rule="nonzero">
  <path d="m14 7-1.072 1.822 2.412 4.178h-4.869l-2.354 4h19.924l-2.309-4h-5.773l-3.465-6zm23.986 6.775-9.945 17.225h4.619l2.887-5h7.277l1.176-2-1.176-2h-4.969l2.461-4.262zm-22.07 10.225-2.309 4 2.887 5-3.566 6.178 1.072 1.822h2.494l2.311-4 2.308 4h4.619z" fill="#3f77b7"/>
  <path d="m22.268 7 9.816 17 2.309-4-2.887-5 3.566-6.178-1.072-1.822h-2.494l-2.311 4-2.308-4zm-2.35 24 2.309 4h5.773l3.465 6h2.494l1.072-1.822-2.412-4.178h4.869l2.354-4zm-4.578-14-2.887 5h-7.277l-1.176 2 1.176 2h4.969l-2.461 4.262 2.33 3.963 9.945-17.225z" fill="#6db9de"/>
 </g>
</svg>
