<svg clip-rule="evenodd" fill-rule="evenodd" stroke-linejoin="round" stroke-miterlimit="2" viewBox="0 0 48 48" xmlns="http://www.w3.org/2000/svg">
 <linearGradient id="a" x2="1" gradientTransform="matrix(0 -155.087 154.509 0 4450.66 226.943)" gradientUnits="userSpaceOnUse">
  <stop stop-color="#004083" offset="0"/>
  <stop stop-color="#009ec0" offset="1"/>
 </linearGradient>
 <path transform="matrix(.217215 0 0 .217215 -46.8224 -8.84521)" d="m335.63 249.291c-.296-2.57-1.3-5.759-2.761-8.77-6.532-13.468-21.819-19.908-36.208-15.255-6.021 1.948-11.712 6.355-15.631 12.105-3.045 4.468-6.721 7.7-11.347 9.98-2.81 1.384-4.787 2.066-7.687 2.654-2.464.499-8.43.354-11.459-.279-10.603-2.216-19.207-9.863-22.484-19.983-1.48-4.57-1.387.759-1.387-78.985 0-70.651.018-73.429.464-75.464 1.344-6.129 4.387-11.535 8.859-15.742 11.944-11.237 30.681-10.711 41.973 1.177 1.755 1.847 2.2 2.121 2.674 1.647.314-.314 6.377-3.064 9.187-4.166 7.631-2.994 16.181-5.095 25.238-6.202 5.099-.623 16.845-.625 21.879-.003 19.749 2.439 36.246 9.314 51.472 21.452 4.303 3.43 11.582 10.709 15.016 15.015 11.984 15.028 18.98 31.778 21.446 51.346.398 3.164.446 7.048.529 42.643.065 28.25.011 39.803-.193 41.463-1.589 12.925-10.984 23.135-23.744 25.802-3.091.646-8.991.779-11.568.26-10.466-2.107-19.159-9.695-22.496-19.635-1.555-4.633-1.454-2.13-1.547-38.093l-.085-32.846 14.616-4.167c8.038-2.292 14.693-4.239 14.788-4.327s-6.692-2.117-15.083-4.511l-15.256-4.351-.54-1.989c-.737-2.719-2.53-6.912-4.003-9.363-5.978-9.947-15.087-16.421-26.582-18.893-2.231-.48-3.353-.562-7.708-.562-5.621 0-8.022.358-12.557 1.869-11.825 3.942-21.373 13.505-25.212 25.252-1.868 5.716-2.069 8.126-1.953 23.329.086 11.216.148 12.853.536 14.164 2.63 8.875 10.432 14.798 19.502 14.805 12.419.01 24.034 8.386 27.997 20.19 1.483 4.418 1.453 4.02 1.56 20.711.055 8.479.065 16.312.024 17.406l-.076 1.989-.193-1.672zm-14.726-75.68c-7.42-1.659-13.152-7.137-15.198-14.523-.335-1.211-.445-2.489-.439-5.097.008-3.229.065-3.652.792-5.843 2.184-6.578 7.173-11.338 13.851-13.215 1.597-.448 2.602-.556 5.097-.546 3.796.016 5.949.536 9.268 2.24 1.88.964 2.723 1.606 4.669 3.551 1.946 1.946 2.587 2.789 3.552 4.669 5.867 11.433.13 24.81-12.201 28.446-2.323.685-7.038.845-9.391.318z" fill="url(#a)" fill-rule="nonzero"/>
</svg>
