<svg clip-rule="evenodd" fill-rule="evenodd" stroke-linejoin="round" stroke-miterlimit="2" viewBox="0 0 48 48" xmlns="http://www.w3.org/2000/svg">
 <linearGradient id="a" x2="1" gradientTransform="matrix(0 -40.0182 40.0182 0 24 43.927)" gradientUnits="userSpaceOnUse">
  <stop stop-color="#2c3b59" offset="0"/>
  <stop stop-color="#2f6ebb" offset="1"/>
 </linearGradient>
 <g transform="matrix(1.08784 0 0 1.08784 -2.10819 -2.10819)" fill-rule="nonzero">
  <path d="m24 4c8.171 0 20 18 20 28 0 12-14 12-20 12s-20 0-20-12c0-10 11.83-28 20-28z" fill="url(#a)"/>
  <path d="m24.066 13c-.041.004-.078.022-.107.051-3.25 3.133-7.03 5.278-10.727 6.454-.042.014-.078.042-.1.081-.579.992-.942 2.471-1.076 4.02-.134 1.548-.036 3.163.34 4.422.023.075.093.128.172.128.041 0 .081-.015.113-.04 2.653-2.153 8.684-4.802 12.65-14.869.008-.021.012-.044.012-.067 0-.099-.081-.18-.18-.18h-1.098zm3.248.36c-.08.004-.148.061-.166.139-1.944 8.259-4.227 16.18-9.664 21.2-.037.035-.059.083-.059.133s.021.098.057.132c2.134 1.994 5.249 2.311 8.785 1.85.064-.008.118-.05.143-.109 3.919-9.26 3.617-17.542 1.078-23.236-.03-.069-.1-.111-.174-.107zm3.231 1.444c-.092.008-.163.087-.163.179 0 .03.007.06.022.087 2.903 5.493 3.368 11.353 3.576 16.88.004.096.084.173.18.173.078 0 .148-.051.172-.126.811-2.581 1.812-5.258 1.65-8.107-.162-2.85-1.503-5.852-5.305-9.043-.032-.028-.073-.043-.115-.043-.006-.001-.012-.001-.017 0z" fill="#fff" fill-opacity=".9"/>
 </g>
</svg>
