<svg clip-rule="evenodd" fill-rule="evenodd" stroke-linecap="round" stroke-linejoin="round" viewBox="0 0 48 48" xmlns="http://www.w3.org/2000/svg">
 <linearGradient id="a" x2="1" gradientTransform="matrix(0 -45.5287 45.5287 0 75.5425 46.7644)" gradientUnits="userSpaceOnUse">
  <stop stop-color="#002e8d" offset="0"/>
  <stop stop-color="#00a2ba" offset="1"/>
 </linearGradient>
 <circle cx="24" cy="24" r="22.764" fill="url(#a)"/>
 <path d="m37.792 9.897c.344 1.656.596 3.338.617 5.03.047 2.007-.141 4.081-1.031 5.914-.113.256-.927 1.299-1.061 1.543-.608-1.093-1.325-2.692-2.037-3.722-1.527-1.664-2.832-3.804-4.517-5.557 1.034-1.045 2.505-2.019 3.857-2.601 1.277-.562 2.643-.903 4.022-1.101.101.132.097.334.15.494zm-27.6 0c.054-.16.048-.362.149-.494 1.38.198 2.746.539 4.023 1.101 1.353.582 2.823 1.556 3.857 2.601-1.685 1.753-2.99 3.893-4.517 5.557-.712 1.03-1.429 2.629-2.037 3.722-.135-.244-.949-1.287-1.062-1.543-.889-1.833-1.077-3.907-1.03-5.914.021-1.692.272-3.374.617-5.03z" fill="#db3d7f" fill-rule="nonzero"/>
 <path d="m18.989 12.079c-.279.184-.549.378-.814.581-.623.464-1.193.999-1.747 1.54-.212.216-.418.436-.62.658-.093.102-.186.204-.276.307-.07.08-.139.16-.208.241l-.005.006c-1.91 2.233-3.425 4.786-4.638 7.449-.127.287-.25.575-.368.865-.026.062-.053.124-.078.187-.009.024-.019.049-.028.073-.135.336-.264.673-.387 1.013-.015.04-.029.08-.043.12-.059.166-.118.332-.174.498-.022.047-.029.095-.026.143v.003s0 .002.001.002c.007.104.055.206.087.304.209.586.453 1.16.73 1.718 0 .001.001.002.002.004.044.089.089.177.135.265.003.007.008.015.012.022.491.939 1.078 1.828 1.761 2.642.45.548.944 1.058 1.469 1.534.047.042.095.084.142.127l.048.042c.19.167.384.329.582.487 1.213.979 2.635 1.778 4.091 2.318.05.018.099.037.148.054.408.149.823.281 1.242.394.103.028.206.055.31.08 1.015.253 2.056.397 3.103.435.003 0 .008 0 .012.001.092.003.183.005.274.006.031.001.062.002.093.002.062.001.123.001.185.001s.124 0 .186-.001c.031 0 .061-.002.092-.002.091-.001.183-.003.273-.006.005-.001.01-.001.014-.001 1.046-.038 2.087-.182 3.102-.435.103-.025.204-.052.306-.079.002-.001.003-.001.005-.001.419-.113.834-.245 1.242-.394.048-.017.097-.036.145-.053 0 0 .001-.001.002-.001 1.473-.54 2.882-1.35 4.093-2.319.198-.158.392-.321.582-.488.063-.055.126-.111.188-.168.526-.476 1.019-.985 1.468-1.533.683-.814 1.27-1.702 1.761-2.64.005-.008.01-.018.015-.027.045-.087.089-.175.133-.262l.003-.005c.276-.557.52-1.131.729-1.717.032-.098.08-.2.087-.304.001 0 .001-.002.001-.002v-.003c.002-.048-.004-.096-.026-.143-.056-.166-.114-.332-.173-.496l-.045-.124c-.124-.34-.253-.678-.387-1.013-.009-.024-.018-.047-.026-.071-.025-.061-.051-.122-.077-.183-.12-.291-.243-.58-.37-.869-1.213-2.663-2.729-5.216-4.638-7.449l-.006-.006c-.068-.081-.137-.161-.207-.242-.087-.098-.174-.195-.263-.292-.206-.227-.417-.452-.633-.672-.554-.541-1.124-1.075-1.746-1.539-.265-.203-.536-.398-.815-.582-1.709-1.113-3.136-1.589-5.074-1.641-1.759.01-3.716.836-4.956 1.641z" fill="#e4e4e4" fill-rule="nonzero"/>
 <path d="m16.998 32.856-6.647 4.626" fill="none" stroke="#db3d7f" stroke-width="1.55"/>
 <path d="m20.914 30.352c-.045.089.085.15.135.22.724.682 1.438 1.37 2.174 2.044.149.142.372.203.587.256.002.402.005.804-.001 1.207.083.082.237.07.347.027-.009-.407.008-.814-.009-1.22.221-.07.459-.131.622-.279.739-.704 1.489-1.401 2.225-2.106.027-.046.123-.087.085-.145-.829-.206-1.692-.292-2.554-.33-1.217-.038-2.444.044-3.611.326zm-4.083-7.548c-.66.001-1.32.093-1.95.284-.183 1.11-.276 2.275.101 3.357.295.955 1.042 1.767 1.987 2.143 1.15.477 2.462.495 3.667.22.155-.694.284-1.4.266-2.113.03-.876-.175-1.787-.707-2.505-.613-.846-1.675-1.279-2.705-1.356-.219-.02-.439-.03-.659-.03zm14.387 0c.66.001 1.32.093 1.95.284.184 1.11.275 2.275-.101 3.357-.295.955-1.042 1.767-1.987 2.143-1.151.477-2.462.495-3.666.22-.156-.694-.285-1.4-.267-2.113-.03-.876.175-1.787.707-2.505.613-.846 1.675-1.279 2.706-1.356.218-.02.438-.03.658-.03zm-14.401.913c.354-.007.708.021 1.052.091.152.063.38.029.486.154-.483.186-.896.576-1.03 1.075-.163.523-.002 1.122.389 1.509.563.625 1.679.655 2.265.048-.015.48-.031.97-.149 1.434-.487.049-.989.069-1.475-.008-.887-.095-1.805-.526-2.251-1.316-.508-.867-.513-1.902-.388-2.863.143-.078.311-.061.468-.076.209-.028.421-.044.633-.048zm14.415 0c-.354-.007-.708.021-1.053.091-.151.063-.379.029-.485.154.482.186.896.576 1.029 1.075.164.523.003 1.122-.388 1.509-.563.625-1.679.655-2.265.048.016.48.031.97.148 1.434.488.049.99.069 1.476-.008.888-.095 1.805-.526 2.251-1.316.508-.867.513-1.902.388-2.863-.143-.078-.311-.061-.468-.076-.209-.028-.421-.044-.633-.048zm-9.878-12.786c-.895.312-1.726.733-2.365 1.148-.372.268-1.117.771-.442.317 1.32 2.092 2.654 4.176 3.979 6.265.083-.033.166-.066.25-.1-.191-.948-.339-1.903-.533-2.85-.162-.79-.281-1.587-.443-2.376-.165-.799-.29-1.604-.446-2.404zm2.591-.493c-.746.004-1.528.156-2.275.389.668 2.404 1.303 4.816 1.963 7.222.091-.01.183-.019.275-.028.18-2.519.444-5.034.614-7.553-.187-.015-.379-.025-.577-.03z" fill="#3f3f3f" fill-rule="nonzero"/>
 <g fill="none" stroke="#db3d7f" stroke-width="1.55">
  <path d="m21.119 32.856-6.646 4.626"/>
  <path d="m30.961 32.856 6.647 4.626"/>
  <path d="m26.839 32.856 6.647 4.626"/>
 </g>
</svg>
