<svg clip-rule="evenodd" fill-rule="evenodd" stroke-linejoin="round" stroke-miterlimit="2" viewBox="0 0 48 48" xmlns="http://www.w3.org/2000/svg">
 <linearGradient id="a" x2="1" gradientTransform="matrix(0 -45.5281 45.5281 0 192.818 46.764)" gradientUnits="userSpaceOnUse">
  <stop stop-color="#006783" offset="0"/>
  <stop stop-color="#20ccff" offset="1"/>
 </linearGradient>
 <circle cx="24" cy="24" r="22.764" fill="url(#a)"/>
 <path d="m24 4.651c-10.615 0-19.349 8.734-19.349 19.349s8.734 19.349 19.349 19.349c9.005-.007 16.872-6.299 18.858-15.082-2.619 4.345-7.334 7.013-12.408 7.021-7.961 0-14.512-6.551-14.512-14.513 0-7.961 6.551-14.512 14.512-14.512.47 0 .939.023 1.407.069-2.472-1.104-5.149-1.677-7.857-1.681zm6.45 3.224h-.001c-7.076 0-12.899 5.823-12.899 12.9s5.823 12.9 12.899 12.9h.001c7.076 0 12.899-5.823 12.899-12.9s-5.823-12.9-12.899-12.9zm0 3.226c5.308 0 9.675 4.367 9.675 9.674 0 5.308-4.367 9.675-9.675 9.675-5.307 0-9.675-4.367-9.675-9.675 0-5.307 4.368-9.674 9.675-9.674z" fill="#fff" fill-opacity=".86" fill-rule="nonzero"/>
</svg>
