<svg clip-rule="evenodd" fill-rule="evenodd" stroke-linejoin="round" stroke-miterlimit="2" viewBox="0 0 48 48" xmlns="http://www.w3.org/2000/svg">
 <linearGradient id="a" x2="1" gradientTransform="matrix(0 -43.3373 43.3373 0 201.9 45.6687)" gradientUnits="userSpaceOnUse">
  <stop stop-color="#fd780a" offset="0"/>
  <stop stop-color="#fa9556" offset="1"/>
 </linearGradient>
 <path d="m45.668 8.56c0-3.438-2.79-6.228-6.228-6.228h-30.88c-3.438 0-6.228 2.79-6.228 6.228v30.88c0 3.438 2.79 6.228 6.228 6.228h30.88c3.438 0 6.228-2.79 6.228-6.228z" fill="url(#a)"/>
 <path d="m13.067 2.539c-3.896.681-10.724 2.586-10.724 6.393 0 2.009-.011 4.069-.011 6.401v23.337c0 6.056 5.115 6.998 12.318 6.998h5.217c.691-2.673.993-5.33.821-7.774-.016-.228.276-.887 1.003-1.572.728-.685 1.84-1.424 3.282-2.017 2.886-1.187 7.09-1.805 12.263-.402 2.392.649 4.117 1.048 5.343 1.272 1.225.223 1.923.286 2.403.192.12-.023.232-.056.343-.129.036-.023.07-.062.104-.097.042-.222.07-.449.101-.675-.049-.095-.115-.175-.177-.244-.271-.295-.673-.544-1.115-.778h-.003c-.344-.182-1.4-.903-2.822-1.822-1.423-.92-3.248-1.62-5.284-2.702-4.072-2.164-8.538-4.139-12.793-3.678-2.297.249-3.937-.203-5.043-.999-1.106-.795-1.703-1.945-1.866-3.184-.326-2.479.691-5.675 3.383-6.287 2.662-.606 4.705-1.064 6.395-1.638.846-.287 1.503-.585 1.915-1.051.207-.234.345-.532.345-.851.001-.319-.127-.629-.338-.923-.063-.087-.157-.147-.263-.167 0 0-1.702-.308-3.711-1.043s-3.862-1.912-5.001-3.515c-.005-.007-.009-.014-.015-.021-1.117-1.388-3.37-2.547-6.07-3.024z" fill="#3d3d3d" fill-rule="nonzero"/>
 <path d="m25.996 30.593c-2.169.002-4.306.451-6.378 1.06.44 1.481.822 4.189 1.098 6.1.064-.294.352-.845.975-1.432.728-.685 1.84-1.423 3.283-2.016 2.885-1.187 7.089-1.806 12.262-.403 1.824.494 3.158.809 4.28 1.047-3.044-.779-5.831-2.325-8.83-3.254-2.157-.702-4.416-1.127-6.69-1.102zm17.11 4.67c.665.107 1.159.156 1.526.14-.035-.009-.136-.016-.354-.015-.338-.016-.77-.068-1.172-.125z" fill="#e6e7e8" fill-rule="nonzero"/>
 <path d="m2.332 20.305v19.135c0 2.842 2.109 6.228 5.835 6.228h11.529c.044-.253.099-.5.135-.758.737-5.14.531-11.04-2.171-17.586-1.886-4.568-4.107-5.946-5.827-4.338-3.221 3.014-7.468-1.992-9.158-2.6-.108-.039-.229-.053-.343-.081z" fill="#fff" fill-rule="nonzero"/>
 <path d="m12.683 2.332c-1.733.01-2.544 0-4.123 0-3.757 0-6.215 3.25-6.215 6.032 0 .747-.013 1.27-.013 2.016 3.82-1.711 8.902-2.598 12.085 1.32 4.163 5.213 13.486-.145 13.849-1.173-.023-.042-.053-.085-.08-.127-.064-.022-.459-.164-1.151-.442-.676-.155-1.628-.4-2.882-.859-2.009-.735-3.862-1.912-5.001-3.515-.005-.007-.009-.014-.015-.021-1.116-1.387-3.757-2.753-6.454-3.231zm4.681 21.023c.416 1.039 1.527 3.571 2.046 5.182 3.169-1.325 8.413-3.262 19.011 3.595 7.078 4.581 7.629 2.343 5.948 1.456-.295-.156-1.01-.654-1.881-1.264-.348-.228-.652-.43-1.073-.702-1.423-.92-3.25-1.623-5.286-2.704-4.072-2.164-8.538-4.137-12.793-3.676-2.297.249-3.937-.203-5.043-.999-.36-.259-.661-.559-.916-.884-.004-.002-.009-.002-.013-.004z" fill="#727072" fill-rule="nonzero"/>
 <path d="m20.014 6.533c-.706.293-1.645 1.02-1.889 1.445-.243.599-.65 1.142-1.25 1.418-.767.43-1.701.518-2.399 1.068-.551.481-.193 1.278.22 1.718 1.007 1.103 2.423 1.829 3.897 2.047 1.364.157 2.223-.435 3.558-.605 1.727-.338 3.507-.52 5.154-1.173.457-.192.889-.514 1.126-.954.021-.087.035-.175.035-.266.001-.319-.127-.629-.338-.923-.063-.087-.157-.146-.263-.165 0 0-.076-.018-.08-.019-.213.005-.469.009-.518.015-.654-.17-1.236-.372-1.781-.599-.418-.127-.864-.27-1.334-.442-1.587-.581-2.908-1.441-4.138-2.565z" fill="#ffbc3d" fill-rule="nonzero"/>
 <circle cx="14.249" cy="7.749" r="2.167" fill-opacity=".2"/>
 <circle cx="14.249" cy="6.666" r="2.167" fill="#fff"/>
 <g fill-rule="nonzero">
  <path d="m15.756 6.516c0-.772-.625-1.396-1.397-1.396-.774 0-1.399.624-1.399 1.396s.625 1.399 1.399 1.399c.772 0 1.397-.627 1.397-1.399" fill="#3d3d3d"/>
  <path d="m13.891 6.266c0-.117-.095-.214-.211-.214-.118 0-.212.097-.212.214 0 .116.094.211.212.211.116 0 .211-.095.211-.211" fill="#fff"/>
  <path d="m16.244 6.202c.109.441-.862-.461-2.028-.461-1.169 0-2.05 1.02-1.931.368.127-.696.902-1.578 1.98-1.578 1.016 0 1.772.83 1.979 1.671" fill="#fff"/>
  <path d="m14.872 11.211c.018-.209.222-.286.421-.291.113-.001.236.03.346.106.731.503 2.27 1.384 4.245 1.381.548.001 1.097-.068 1.623-.225 1.688-.517 3.707-.549 4.265-.549.559 0 1.753.143 1.753.143.906-.015.909-.663.766-1.235l-.35-.415s.623.156.584.948c-.077 1.078-1.363.773-2.051.753-1.364-.039-3.339.156-5.04.57-.549.164-1.688.132-1.688.132-1.557-.001-3.254-.797-3.554-.845-.533-.194-1.182.131-1.32-.473" fill="#3d3d3d"/>
  <path d="m19.934 6.457c-.26.113-.474.202-.513.202-.486 0-.805.483-.827.753-.078.935.767 1.57 3.551 1.805 3.497.295 6.263 2.182 6.159 1.403l.006-.001c-.051-.105-.109-.209-.182-.311-.063-.087-.157-.146-.263-.165 0 0-1.704-.31-3.713-1.045-1.622-.594-2.984-1.479-4.218-2.641z" fill="#fff" fill-opacity=".5"/>
  <path d="m19.411 7.705c-.088.161.112.198.266.284.155.085.19.116.305.14.111.021.005-.209-.12-.39-.122-.178-.361-.193-.451-.034" fill="#3d3d3d"/>
  <path d="m19.44 6.374c-.197.019-.406.102-.602.237-.392.27-.767.76-1.021 1.485-.231.66-.735.998-1.351 1.264-.615.267-1.323.437-1.884.773-.282.17-.475.395-.568.653-.092.258-.084.54-.006.816.157.552.581 1.105 1.143 1.601 1.125.992 2.818 1.764 4.223 1.444.094-.021.162-.106.162-.203 0-.114-.094-.208-.208-.208-.016 0-.031.002-.047.006-1.184.269-2.809-.428-3.855-1.351-.523-.461-.896-.976-1.017-1.404-.061-.213-.062-.399-.004-.56.057-.161.174-.307.391-.437.477-.286 1.176-.461 1.836-.747s1.297-.71 1.576-1.51c.231-.659.567-1.073.866-1.28.3-.206.533-.197.646-.111.036.028.081.043.126.043.115 0 .208-.093.208-.207 0-.065-.03-.126-.081-.166-.151-.116-.336-.158-.533-.138z" fill="#3d3d3d"/>
 </g>
</svg>
