<svg clip-rule="evenodd" fill-rule="evenodd" stroke-linejoin="round" stroke-miterlimit="2" viewBox="0 0 48 48" xmlns="http://www.w3.org/2000/svg">
 <linearGradient id="a" x2="1" gradientTransform="matrix(0 -35.3911 35.3911 0 968.766 41.2823)" gradientUnits="userSpaceOnUse">
  <stop stop-color="#0060ac" offset="0"/>
  <stop stop-color="#0092ff" offset="1"/>
 </linearGradient>
 <circle cx="24" cy="24" r="22.764" fill="url(#a)"/>
 <path d="m19.987 36.508c-1.901-.122-3.184-.333-4.437-.731-1.793-.57-2.946-1.346-3.974-2.678-1.272-1.649-2.103-4.049-2.311-6.68-.074-.927-.081-1.473-.024-1.693.091-.345.297-.583.635-.733.152-.067.173-.068 11.494-.068 7.441-.001 11.464-.013 11.695-.035.389-.037.999-.142 1.289-.221.404-.11.885-.297.885-.345 0-.012-.076-.163-.168-.335-.358-.664-.52-1.332-.518-2.142 0-.893.21-1.711.66-2.594.185-.364.635-1.048.69-1.048.054 0 .606.331.86.515 1.02.74 1.815 1.949 2.018 3.07.043.236.047.242.132.225.503-.1 1.7-.13 2.233-.055.845.118 1.474.348 1.983.726.136.1.247.194.247.207 0 .08-.191.548-.325.797-.214.396-.445.694-.814 1.051-.941.911-2.286 1.411-3.802 1.413l-.328.001-.078.191c-1.476 3.621-3.346 6.162-5.888 7.999-2.557 1.847-5.827 2.92-9.601 3.149-.43.026-2.214.036-2.554.014h.001zm-5.093-17.061h-3.414v3.415h3.414zm4.553 0h-3.414v3.415h3.414zm4.553 0h-3.415v3.415h3.415zm4.553 0h-3.415v3.415h3.415zm4.553 0h-3.415v3.415h3.415zm-13.659-4.553h-3.414v3.415h3.414zm4.553 0h-3.415v3.415h3.415zm4.553 0h-3.415v3.415h3.415zm0-4.552h-3.415v3.414h3.415z" fill="#ffffff" fill-rule="nonzero"/>
</svg>
