<svg clip-rule="evenodd" fill-rule="evenodd" viewBox="0 0 48 48" xmlns="http://www.w3.org/2000/svg">
 <linearGradient id="a" x2="1" gradientTransform="matrix(0 -44.4827 44.4827 0 24 46.2414)" gradientUnits="userSpaceOnUse">
  <stop stop-color="#ff69bb" offset="0"/>
  <stop stop-color="#ff8dcb" offset="1"/>
 </linearGradient>
 <path d="m22.517 1.759c-.41 0-.741.475-.741 1.06l-.282 3.583c-1.415.199-2.801.567-4.127 1.097l-2.031-2.956c-.293-.506-.818-.75-1.173-.545l-2.567 1.481c-.355.205-.406.782-.113 1.288l1.542 3.234c-1.122.886-2.132 1.903-3.011 3.03l-3.247-1.548c-.506-.293-1.083-.242-1.288.113l-1.481 2.567c-.205.355.039.88.545 1.173l2.961 2.035c-.53 1.325-.898 2.709-1.097 4.123l-3.588.282c-.585 0-1.06.331-1.06.741v2.966c0 .41.475.741 1.06.741l3.583.282c.199 1.415.567 2.801 1.097 4.127l-2.956 2.031c-.506.293-.75.818-.545 1.173l1.481 2.567c.205.355.782.406 1.288.113l3.234-1.542c.886 1.122 1.903 2.132 3.03 3.011l-1.548 3.247c-.293.506-.242 1.083.113 1.288l2.567 1.481c.355.205.88-.039 1.173-.545l2.035-2.961c1.325.53 2.709.898 4.123 1.097l.282 3.588c0 .585.331 1.06.741 1.06h2.966c.41 0 .741-.475.741-1.06l.282-3.583c1.415-.199 2.801-.567 4.127-1.097l2.031 2.956c.293.506.818.75 1.173.545l2.567-1.481c.355-.205.406-.782.113-1.288l-1.542-3.234c1.122-.886 2.132-1.903 3.011-3.03l3.247 1.548c.506.293 1.083.242 1.288-.113l1.481-2.567c.205-.355-.039-.88-.545-1.173l-2.961-2.035c.53-1.325.898-2.709 1.097-4.123l3.588-.282c.585 0 1.06-.331 1.06-.741v-2.966c0-.41-.475-.741-1.06-.741l-3.583-.282c-.199-1.415-.567-2.801-1.097-4.127l2.956-2.031c.506-.293.75-.818.545-1.173l-1.481-2.567c-.205-.355-.782-.406-1.288-.113l-3.234 1.542c-.886-1.122-1.903-2.132-3.03-3.011l1.548-3.247c.293-.506.242-1.083-.113-1.288l-2.567-1.481c-.355-.205-.88.039-1.173.545l-2.035 2.961c-1.325-.53-2.709-.898-4.123-1.097l-.282-3.588c0-.585-.331-1.06-.741-1.06h-2.966z" fill="url(#a)" fill-rule="nonzero"/>
 <circle cx="24" cy="24" r="13.345" fill="#fdcfea"/>
 <path d="m18.886 16.216c-3.307 0-6.007 2.483-6.007 5.56 0 1.601.724 3.061 1.887 4.077l9.084 8.156 9.383-8.156c1.163-1.015 1.888-2.476 1.888-4.077 0-3.077-2.7-5.56-6.007-5.56-2.18 0-4.067 1.069-5.114 2.686-1.049-1.617-2.936-2.686-5.116-2.686z" fill="#03adee" fill-rule="nonzero"/>
 <path d="m19.024 17.598c-2.675.001-4.761 1.987-4.761 4.371 0 1.244.555 2.38 1.467 3.185l.004.004 8.133 7.374 8.403-7.378c.912-.805 1.467-1.941 1.467-3.185 0-2.384-2.087-4.371-4.763-4.371-1.767 0-3.251.87-4.065 2.141l-.909 1.417-.909-1.417c-.815-1.272-2.299-2.14-4.065-2.141z" fill="none" stroke="#000000" stroke-dasharray="1.09 .54" stroke-opacity=".3" stroke-width=".54"/>
</svg>
