<svg clip-rule="evenodd" fill-rule="evenodd" stroke-linejoin="round" stroke-miterlimit="2" viewBox="0 0 48 48" xmlns="http://www.w3.org/2000/svg">
 <linearGradient id="a" x2="1" gradientTransform="matrix(0 -20 20 0 11 21)" gradientUnits="userSpaceOnUse">
  <stop stop-color="#3d587a" offset="0"/>
  <stop stop-color="#54749d" offset="1"/>
 </linearGradient>
 <circle transform="matrix(2.2764 0 0 2.2764 -1.0404 -1.0404)" cx="11" cy="11" r="10" fill="url(#a)"/>
 <path transform="matrix(2 0 0 2 2 2)" d="m17 4s-15 .75-15 7 15 7 15 7-14-2-14-7 14-7 14-7zm-1 1s-12 2.25-12 6 12 6 12 6-11-3.5-11-6 11-6 11-6zm-2 2s-8 1.5-8 4 8 4 8 4-7-2-7-4 7-4 7-4z" fill="#fff" fill-rule="nonzero"/>
</svg>
