<svg width="48" height="48" xmlns="http://www.w3.org/2000/svg">
 <path d="m36.961591 33.94767c-0.560485 6.080389-5.802294 11.05233-12.959786 11.05233s-12.347734-4.976502-12.959785-11.05233c-0.614893-6.104034 5.605504-28.856306 12.959785-28.947392 7.403509-0.0916951 13.543044 22.61994 12.959786 28.947392z" opacity=".2"/>
 <path d="m36.961591 32.947669c-0.560485 6.080389-5.802294 11.05233-12.959786 11.05233s-12.347734-4.976502-12.959785-11.05233c-0.614893-6.104034 5.605504-28.856306 12.959785-28.947392 7.403509-0.0916951 13.543044 22.61994 12.959786 28.947392z" fill="#f2ad32"/>
 <g fill="#c67427">
  <path d="m27.221734 7.0079049c-.04257.00554.03272.2161484.384824 1.2605379.911345 2.7032142 1.704323 5.7688822 2.142998 8.2843442.328051 1.881113.472289 3.862911.528061 7.25533.02953 1.796296.08643 3.265994.126248 3.265994.08567 0 .211461-.577541.401097-1.841232.710471-4.734419.151592-9.57405-1.660359-14.379143-.437947-1.1613845-1.670682-3.7019967-1.84687-3.8062735-.03447-.020402-.06181-.041405-.076-.039558z"/>
  <path d="m20.939144 8.0003555c-.05428-.0123635-.167738.2977425-.338893.9296429-.372161 1.3740056-.525037 2.5656916-.582429 4.5411796-.06222 2.141453.02479 3.292926.4804 6.364038.68065 4.588013 1.060124 7.800753 1.060124 8.974634 0 .326415.02803.727763.06237.891835l.06255.298315.07481-.265168c.04115-.145844.122992-1.199887.181885-2.34232.162186-3.146203.03326-4.986247-.854264-12.197741-.208979-1.698045-.278725-4.850307-.141866-6.408233.04509-.5133375.04322-.7752734-.0047-.7861825z"/>
  <path d="m16.6238 16.317324c-.116443-.02754-1.466125 2.789863-1.771924 3.698732-.06489.192891-.18011.98199-.256028 1.753554-.07592.771564-.252181 2.014395-.391642 2.761848-.194227 1.040955-.237 1.615495-.182189 2.454975.06661 1.020131.135191 1.351549.45921 2.219342.09053.242464.182354.326362.334213.305673.176989-.02411.213531-.157145.235515-.860337.03882-1.241877.212128-2.041552 1.121359-5.171786l.827686-2.849525-.01665-1.709715c-.01702-1.747563-.127589-2.547891-.359548-2.602761z"/>
  <path d="m33.682252 16.632074c.0733.274046.134968.540577.183828.79749.186883.982659.327689 2.478734.32778 3.485189.000092 1.264776.201261 1.032411.322594-.372631.04672-.541028.0851-.859578.124639-1.014287-.296344-.969168-.616255-1.939564-.958841-2.895761z"/>
  <path d="m27.456139 21.813449c-.0503 0-.06804.08898-.03952.197788.228964.873617.374778 2.559256.371949 4.298948-.0017 1.053051.031 1.852114.07278 1.780611.241302-.412913.343459-2.952509.169345-4.210071-.120464-.87007-.453265-2.067276-.574554-2.067276z"/>
  <path d="m35.846709 29.866269c-.01272-.0016-.02679.0058-.0422.02089-.0205.02009-.125355.537922-.233183 1.150769-.630617 3.584183-2.03862 7.194962-3.856289 9.889258-.565945.838889-.86336 1.23862-1.205615 1.510043 1.418568-.748918 2.650522-1.737286 3.648856-2.901413.04967-.120146.108124-.253552.177391-.397119 1.06419-2.205716 1.620739-4.785443 1.624237-7.528295.0016-1.284847-.02414-1.733067-.113194-1.744135z"/>
  <path d="m15.227609 34.167956c-.0421.01134-.09168.12592-.142521.352937-.124276.554929.02672 2.814602.229428 3.43313.07254.221343.257952.566574.412005.76718.154054.200604.317724.364753.363723.364753.103001 0 .103822.01833-.01341-.351225-.408753-1.288501-.7264-2.948618-.728341-3.806958-.0012-.511059-.05071-.778721-.120883-.759817z"/>
 </g>
 <path d="m18.742188 34.009549c-.801823-.06872-1.639484.256543-2.199219 1.003906-.355732.474972-.637621 1.470556-.511719 1.804687.09871.261959.213166.225478.474609-.148437.126794-.181342.478185-.473375.78125-.650391.984579-.57508 2.238081-.393028 3.035157.441407.190903.19985.345703.402701.345703.451171 0 .04846.07206.08789.160156.08789.272132 0 .207285-1.000361-.105469-1.628906-.413373-.83076-1.178646-1.292612-1.980468-1.361328zm11.515624 0c-.801822.06872-1.567095.530568-1.980468 1.361328-.312754.628545-.377601 1.628906-.105469 1.628906.0881 0 .160156-.03943.160156-.08789 0-.04847.1548-.251321.345703-.451171.797076-.834435 2.050578-1.016487 3.035157-.441407.303065.177016.654456.469049.78125.650391.261443.373915.375903.410396.474609.148437.125902-.334131-.155987-1.329715-.511719-1.804687-.559735-.747363-1.397396-1.072622-2.199219-1.003906zm-3.728515 4.613281c-.222811-.03015-.404795.133937-.628906.537109-.330698.594924-.768908.867188-1.400391.867188-.603022 0-1.056349-.26782-1.386719-.820313-.330494-.552699-.560906-.680262-.882812-.488281-.268614.160199-.300503.433811-.101563.867188.296298.645466 1.027769 1.181713 1.863282 1.365234 1.066938.234354 2.443801-.415786 2.876953-1.359375.202032-.440111.169927-.713085-.101563-.875-.08675-.05173-.164011-.0837-.238281-.09375z" opacity=".1"/>
 <path d="m23.992842 39.95199c-.835513-.183521-1.568559-.720434-1.864857-1.3659-.19894-.433376-.166697-.708062.101917-.868261.321906-.191981.553658-.06384.884152.488859.33037.552493.78298.8204 1.386002.8204.631483 0 1.069975-.271123 1.400673-.866047.298815-.537563.520755-.651189.867737-.444252.27149.161915.303003.435049.100971.87516-.433152.943589-1.809657 1.594395-2.876595 1.360041z" fill="#453f3d"/>
 <path d="m16.030451 35.818042c-.125902-.334131.156876-1.32965.512608-1.804622 1.119471-1.494726 3.353653-1.303258 4.180399.358261.312754.628545.37737 1.628319.105238 1.628319-.0881 0-.160198-.03965-.160198-.08811 0-.04847-.156192-.251629-.347095-.45148-.797076-.834434-2.049518-1.016753-3.034097-.441673-.303065.177016-.654767.470217-.781561.651559-.261443.373915-.37659.409711-.475296.147752z" fill="#453f3d"/>
 <path d="m32.969549 35.818042c.125902-.334131-.156876-1.32965-.512608-1.804622-1.119471-1.494726-3.353653-1.303258-4.180399.358261-.312754.628545-.37737 1.628319-.105238 1.628319.0881 0 .160198-.03965.160198-.08811 0-.04847.156192-.251629.347095-.45148.797076-.834434 2.049518-1.016753 3.034097-.441673.303065.177016.654767.470217.781561.651559.261443.373915.37659.409711.475296.147752z" fill="#453f3d"/>
 <path d="m24.001953 4c-7.140992.088444-13.193304 21.497521-12.976562 28.330078.330338-7.722534 6.161314-27.2456684 12.976562-27.330078 6.870963-.0850993 12.644533 19.450603 12.974609 27.322266.198261-7.024179-5.782331-28.4113449-12.974609-28.322266z" fill="#fff" opacity=".2"/>
</svg>
