<svg clip-rule="evenodd" fill-rule="evenodd" stroke-linecap="round" viewBox="0 0 48 48" xmlns="http://www.w3.org/2000/svg">
 <linearGradient id="a" x2="1" gradientTransform="matrix(-.481679 -45.5229 45.5229 -.481679 24 46.764)" gradientUnits="userSpaceOnUse">
  <stop stop-color="#73cd4d" offset="0"/>
  <stop stop-color="#94e05e" offset="1"/>
 </linearGradient>
 <path d="m46.764 24c0 12.488-10.276 22.764-22.764 22.764s-22.764-10.276-22.764-22.764 10.276-22.764 22.764-22.764 22.764 10.276 22.764 22.764z" fill="url(#a)" fill-rule="nonzero"/>
 <path d="m21.955 13.756c-.381.003-.795.218-1.318.638l-1.336 1.217 4.106 4.127 1.128-1.029c1.17-1.158.981-1.726.315-2.538l-1.776-1.784c-.39-.425-.738-.634-1.119-.631zm-3.707 2.816-4.354 3.972c-2.24 1.73-3.952 4.221-4.53 6.8-.501 2.507.069 6.242 3.17 8.939 3.016 2.622 6.543 2.882 8.869 2.178s3.8-2.19 3.8-2.19c.029-.028.057-.057.084-.086l6.033-6.476-4.101-4.122-5.433 5.986c-2.325 2.562-4.344 1.249-5.458.303-1.282-1.301-2.139-3.728-.533-5.194l6.559-5.984zm12.463 5.954c-.533-.032-.995.397-1.57.999l-.951 1.02 4.102 4.122 1.08-1.159c1.3-1.278.935-1.737.265-2.506l-1.848-1.857c-.413-.415-.758-.6-1.078-.619z" fill="#1e5914" fill-rule="nonzero"/>
 <g fill="none" stroke="#1e5914" stroke-width="1.14">
  <path d="m33.83 21.147c-1.285-3.172-3.083-6.019-6.977-7.33"/>
  <path d="m36.649 20.513c-.736-3.643-4.363-8.714-9.016-9.374"/>
  <path d="m39.4 19.065c-.543-3.836-6.087-10.377-10.924-10.854"/>
 </g>
</svg>
