<svg clip-rule="evenodd" fill-rule="evenodd" stroke-linejoin="round" stroke-miterlimit="2" viewBox="0 0 48 48" xmlns="http://www.w3.org/2000/svg">
 <linearGradient id="a" x2="1" gradientTransform="matrix(0 -48.5722 48.5722 0 133.684 48.3946)" gradientUnits="userSpaceOnUse">
  <stop stop-color="#000e2e" stop-opacity=".98" offset="0"/>
  <stop stop-color="#3e4670" offset="1"/>
 </linearGradient>
 <linearGradient id="b" x2="1" gradientTransform="matrix(.115706 -30.4232 30.4232 .115706 561.339 41.3789)" gradientUnits="userSpaceOnUse">
  <stop stop-color="#ccc" offset="0"/>
  <stop stop-color="#fff" offset="1"/>
 </linearGradient>
 <circle cx="23.998" cy="24" r="22.762" fill="url(#a)"/>
 <path transform="matrix(1.05102 0 0 1.05102 -1.2229 -2.30254)" d="m23.998 8.912c-1.043 0-1.896.851-1.896 1.894s.853 1.896 1.896 1.896c.79 0 1.471-.49 1.754-1.181 1.296.746 2.492 2.314 3.366 4.472.959 2.361 1.541 5.397 1.541 8.706 0 2.698-.386 5.215-1.047 7.332l.668.209c.687-2.194 1.081-4.776 1.081-7.54 0-3.392-.592-6.508-1.593-8.973-.953-2.349-2.279-4.111-3.874-4.925-.006-1.037-.859-1.888-1.896-1.89zm0 .701c.664 0 1.193.53 1.193 1.193s-.53 1.194-1.193 1.194c-.664 0-1.192-.531-1.192-1.194s.529-1.193 1.192-1.193zm-6.867 5.432c-.796-.01-1.591.075-2.366.253-1.44.347-2.595 1.069-3.243 2.188-.958 1.661-.601 3.824.649 6.005l.608-.347c-1.179-2.059-1.437-3.941-.649-5.306.531-.92 1.489-1.542 2.8-1.858 1.308-.316 2.958-.31 4.782.022l.125-.692c-.949-.173-1.855-.262-2.706-.266zm13.916.02-.007.705c2.315.03 4.026.745 4.801 2.087.532.918.59 2.056.211 3.344-.379 1.289-1.201 2.713-2.395 4.123l.537.452c1.241-1.466 2.115-2.959 2.533-4.376s.368-2.776-.277-3.893c-.942-1.633-2.945-2.409-5.403-2.442zm-3.488.38c-2.293.491-4.793 1.455-7.251 2.874-2.985 1.724-5.419 3.833-7.053 5.967-1.585 2.068-2.427 4.165-2.228 5.986-.688.302-1.136.985-1.138 1.736 0 1.043.854 1.894 1.896 1.894s1.894-.852 1.894-1.894-.852-1.897-1.894-1.897c-.024 0-.045.007-.069.008-.134-1.533.601-3.456 2.096-5.405 1.565-2.045 3.935-4.107 6.848-5.788 2.399-1.384 4.833-2.321 7.045-2.795zm-3.561 7.646c-.965 0-1.755.79-1.755 1.755 0 .964.79 1.756 1.755 1.756.966 0 1.755-.791 1.755-1.755 0-.965-.789-1.755-1.755-1.755zm-9.247 2.709-.52.473c1.566 1.721 3.633 3.383 6.066 4.788 2.898 1.674 5.854 2.714 8.464 3.093 2.467.357 4.629.124 6.146-.781.341.326.8.529 1.305.529 1.043 0 1.896-.852 1.896-1.894s-.853-1.897-1.896-1.897c-1.044 0-1.894.854-1.894 1.897 0 .285.066.551.18.792-1.312.755-3.299.997-5.637.657-2.503-.362-5.386-1.371-8.215-3.005-2.373-1.37-4.384-2.992-5.895-4.652zm-2.966 5.014c.663 0 1.191.53 1.191 1.194s-.528 1.193-1.191 1.193-1.196-.53-1.196-1.193.532-1.194 1.196-1.194zm24.427 0c.663 0 1.195.53 1.195 1.194s-.532 1.193-1.195 1.193c-.664 0-1.192-.53-1.192-1.193s.529-1.194 1.192-1.194zm-17.597 1.931-.661.235c.648 1.812 1.504 3.321 2.525 4.393 1.019 1.072 2.222 1.711 3.513 1.711 1.872 0 3.534-1.326 4.786-3.409l-.601-.361c-1.179 1.962-2.646 3.069-4.185 3.069-1.062 0-2.077-.519-3.006-1.494-.929-.976-1.747-2.402-2.371-4.144z" fill="url(#b)" fill-rule="nonzero"/>
</svg>
