<svg clip-rule="evenodd" fill-rule="evenodd" stroke-linejoin="round" stroke-miterlimit="2" viewBox="0 0 48 48" xmlns="http://www.w3.org/2000/svg">
 <path d="m46.176 15.552c0-1.748-1.42-3.168-3.168-3.168h-38.016c-1.748 0-3.168 1.42-3.168 3.168v16.896c0 1.748 1.42 3.168 3.168 3.168h38.016c1.748 0 3.168-1.42 3.168-3.168z" fill="#0056c0"/>
 <circle cx="24" cy="24" r="16.896" fill="#0086f4"/>
 <path d="m29.847 16.913c-.995-2.527-3.488-2.755-6.392-2.191l-1.033-3.605-2.194.629 1.006 3.51c-.577.165-1.163.346-1.746.526l-1.012-3.533-2.193.628 1.032 3.604c-.472.146-.936.289-1.391.42l-.003-.012-3.027.867.673 2.344s1.611-.496 1.593-.458c.889-.255 1.326.178 1.538.599l1.177 4.107c.551 1.919 1.103 3.846 1.654 5.768.041.291.005.784-.616.963.035.017-1.595.457-1.595.457l.315 2.746 2.856-.819c.531-.152 1.057-.293 1.571-.437l1.046 3.646 2.192-.628-1.034-3.607c.605-.161 1.189-.323 1.757-.486l1.029 3.591 2.194-.63-1.043-3.639c3.629-1.27 5.944-2.94 5.271-6.496-.541-2.863-2.21-3.732-4.448-3.634 1.086-1.013 1.554-2.382.823-4.23zm-.834 8.676c.782 2.724-3.972 3.752-5.459 4.179l-1.384-4.83c1.487-.426 6.028-2.191 6.843.651zm-2.975-6.523c.71 2.479-3.264 3.305-4.502 3.661l-1.256-4.381c1.238-.356 5.016-1.865 5.758.72z" fill="#ffffff" fill-rule="nonzero"/>
</svg>
