<svg clip-rule="evenodd" fill-rule="evenodd" stroke-linejoin="round" stroke-miterlimit="2" viewBox="0 0 48 48" xmlns="http://www.w3.org/2000/svg">
 <linearGradient id="a" x2="1" gradientTransform="matrix(0 -33.6872 33.6872 0 923.28 40.4502)" gradientUnits="userSpaceOnUse">
  <stop stop-color="#00a590" offset="0"/>
  <stop stop-color="#0dbc8a" offset="1"/>
 </linearGradient>
 <path d="m39.44 45.668h-30.88c-3.438 0-6.228-2.79-6.228-6.228v-30.88c0-3.438 2.79-6.228 6.228-6.228h30.88c3.438 0 6.228 2.79 6.228 6.228v30.88c0 3.438-2.79 6.228-6.228 6.228z" fill="url(#a)"/>
 <path d="m21.76 10c-.928 0-1.679.752-1.679 1.679 0 .928.751 1.682 1.679 1.682 4.33 0 7.841 3.509 7.841 7.839 0 .927.751 1.679 1.679 1.679s1.68-.752 1.68-1.679c0-6.186-5.014-11.2-11.2-11.2zm-.56 5.04c-6.186 0-11.2 5.014-11.2 11.2 0 .928.752 1.679 1.679 1.679.928 0 1.682-.751 1.682-1.679 0-4.33 3.509-7.841 7.839-7.841.927 0 1.679-.751 1.679-1.679s-.752-1.68-1.679-1.68zm15.121 5.041c-.928 0-1.682.751-1.682 1.679 0 4.33-3.509 7.841-7.839 7.841-.927 0-1.679.751-1.679 1.679s.752 1.68 1.679 1.68c6.186 0 11.2-5.014 11.2-11.2 0-.928-.752-1.679-1.679-1.679zm-19.601 5.04c-.928 0-1.68.752-1.68 1.679 0 6.186 5.014 11.2 11.2 11.2.928 0 1.679-.752 1.679-1.679 0-.928-.751-1.682-1.679-1.682-4.33 0-7.841-3.509-7.841-7.839 0-.927-.751-1.679-1.679-1.679z" fill="#fff" fill-rule="nonzero"/>
</svg>
