<svg clip-rule="evenodd" fill-rule="evenodd" stroke-linejoin="round" stroke-miterlimit="2" viewBox="0 0 48 48" xmlns="http://www.w3.org/2000/svg">
 <linearGradient id="a" x2="1" gradientTransform="matrix(0 -42.8604 42.8604 0 24 45.5772)" gradientUnits="userSpaceOnUse">
  <stop stop-color="#252525" offset="0"/>
  <stop stop-color="#4f4f4f" offset="1"/>
 </linearGradient>
 <g fill-rule="nonzero">
  <path d="m7.851 2.469c-1.189 0-2.153.964-2.153 2.153v32.297c0 .881.537 1.673 1.354 1.999l16.149 6.46c.513.205 1.085.205 1.598 0l16.149-6.46c.817-.326 1.354-1.118 1.354-1.999v-32.297c0-1.189-.964-2.153-2.153-2.153z" fill="url(#a)"/>
  <path d="m11.081 7.851v17.226h5.383v-2.154h-3.23v-5.382h3.23v-2.154h-3.23v-5.382h3.23v-2.154zm6.46 0v17.226h2.153v-6.46h2.153c1.789 0 3.23-1.44 3.23-3.23v-4.306c0-1.789-1.441-3.23-3.23-3.23h-4.306zm8.612 0v17.226h2.153v-17.226zm5.383 0c-1.193 0-2.153.961-2.153 2.154v12.918c0 1.193.96 2.154 2.153 2.154h3.23c1.193 0 2.153-.961 2.153-2.154v-4.306h-2.153v3.123c0 .596-.597 1.183-1.077 1.183h-1.076c-.597 0-1.077-.48-1.077-1.076v-10.766c0-.596.636-1.076 1.077-1.076h1.076c.597 0 1.077.48 1.077 1.076v3.23h2.153v-4.306c0-1.193-.96-2.154-2.153-2.154zm-11.842 2.154h2.153c.596 0 1.076.48 1.076 1.076v4.306c0 .597-.48 1.077-1.076 1.077h-2.153zm15.286 18.23c-.896.005-1.831.566-1.857 1.943-.025 1.398 2.777 1.203 2.787 1.915.003.247-.369.386-.614.414-.566.067-1.601-.601-1.601-.601l-.786.944s.962.807 2.328.814c.905.005 2.08-.439 2.071-1.758-.011-1.586-2.759-1.515-2.799-2.056-.02-.272.265-.439.557-.429.527.017 1.371.515 1.371.515l.658-1.001s-.852-.708-2.115-.7zm-21.426.044c-1.33-.026-2.762.954-2.805 2.725-.03 1.256 1.108 2.664 2.645 2.685 1.348.019 2.324-.841 2.324-.841v-2.286h-2.244v1.043l.921-.08.04.682s-.301.309-.841.319c-.95.018-1.412-.763-1.443-1.442-.033-.73.484-1.603 1.46-1.598.65.003 1.066.595 1.066.595l.881-1.081s-.841-.699-2.004-.721zm4.594.027-2.376 5.387 1.611-.004.368-.971h2.069l.357.971h1.502l-2.208-5.383zm3.699 0v5.383h1.316v-2.988l1.371 2.04 1.333-2.122.088 3.07h1.275v-5.383h-1.363l-1.333 2.147-1.331-2.147zm6.459 0v5.383h3.983v-1.076h-2.906v-1.077l2.691.023v-1.1h-2.691v-1.076h2.906v-1.077zm-9.51 1.647.576 1.56h-1.167zm-2.332 9.119 7.536 3.23 7.536-3.23z" fill="#ffffff"/>
 </g>
</svg>
