<svg clip-rule="evenodd" fill-rule="evenodd" stroke-linejoin="round" stroke-miterlimit="2" viewBox="0 0 48 48" xmlns="http://www.w3.org/2000/svg">
 <linearGradient id="a" x2="1" gradientTransform="matrix(0 -43.034 43.034 0 24.0028 45.4715)" gradientUnits="userSpaceOnUse">
  <stop stop-color="#162d8e" offset="0"/>
  <stop stop-color="#2e49bc" offset="1"/>
 </linearGradient>
 <path d="m39.44 2.332c3.438 0 6.228 2.79 6.228 6.228v30.88c0 3.438-2.79 6.228-6.228 6.228h-30.88c-3.438 0-6.228-2.79-6.228-6.228v-30.88c0-3.438 2.79-6.228 6.228-6.228z" fill="url(#a)"/>
 <path d="m14.011 24h20.196v1.083h-20.196z" fill="#00e5ff"/>
 <g fill-rule="nonzero">
  <path d="m16.59 19.666 7.599-1.409 7.208 1.409-18.635 11.918.243-6.686z" fill="#b0b9f5"/>
  <path d="m36.668 12.922c1.188-1.327 2.237-2.509 2.331-2.628.316-.404.166-1.159-.271-1.363-.152-.071-4.285-.099-14.773-.099h-14.561l-.273.25c-.218.2-.275.324-.283.619-.011.452-.178.237 2.497 3.221l2.161 2.411h21.01z" fill="#b0b9f5"/>
  <path d="m23.983 17.5c-9.429 0-9.791.006-9.93.16-.08.088-1.409 3.889-2.95 8.448-1.542 4.558-2.934 8.673-3.096 9.145-.294.857-.295.861-.207 1.718.105 1.024.301 1.775.529 2.019l.167.178h15.483c14.294 0 15.495-.011 15.627-.142.267-.267.509-1.192.594-2.266l.051-.644-1.327-3.912c-.729-2.152-2.124-6.272-3.1-9.154s-1.837-5.31-1.915-5.396c-.134-.148-.599-.154-9.926-.154zm-7.393 2.166h14.808l3.84 11.918h-22.476z" fill="#ffffff"/>
  <path d="m7.804 35.917c-.07.297-.061.506-.004 1.054.105 1.024.301 1.775.529 2.019l.167.178h15.483c14.294 0 15.495-.011 15.627-.142.267-.267.509-1.192.594-2.266l.051-.644-.068-.199h-32.379z" fill="#b0b9f5"/>
  <path d="m9.393 8.832-.273.25c-.218.199-.274.325-.281.62-.003.087-.006.149.002.214h30.312c.06-.387-.104-.834-.426-.984-.152-.071-4.283-.1-14.771-.1z" fill="#ffffff"/>
 </g>
</svg>
