<svg clip-rule="evenodd" fill-rule="evenodd" stroke-linejoin="round" stroke-miterlimit="2" viewBox="0 0 48 48" xmlns="http://www.w3.org/2000/svg">
 <linearGradient id="a" x2="1" gradientTransform="matrix(0 -39.9937 39.9937 0 23.5 43.9937)" gradientUnits="userSpaceOnUse">
  <stop stop-color="#c13b08" offset="0"/>
  <stop stop-color="#d76337" offset="1"/>
 </linearGradient>
 <g transform="matrix(1.1382 0 0 1.1382 -3.3168 -3.3168)" fill-rule="nonzero">
  <path d="m36.197 18.954-3.863 2.265-1.814 1.065c-.806.472-1.841.321-2.477-.363-1.424-1.532-4.694-2.922-8.543-2.922-2.847 0-5.397.726-7.092 1.758-1.695 1.031-2.408 2.197-2.408 3.242s.713 2.21 2.408 3.242 4.245 1.758 7.092 1.758c3.849 0 7.119-1.391 8.543-2.922.636-.684 1.671-.836 2.477-.363l1.814 1.064 3.863 2.266c-.037-.1-.038-.081-.076-.184-.531-1.452-1.121-3.13-1.121-4.861s.59-3.41 1.121-4.862c.038-.102.039-.084.076-.183z" fill="#72a0d1"/>
  <path d="m44 24c0 10.972-9.028 20-20 20s-20-9.028-20-20 9.028-20 20-20 20 9.028 20 20z" fill="url(#a)"/>
  <path d="m37.602 15.998c-.225.007-.443.071-.637.186l-5.643 3.31-1.814 1.065c-1.975-2.124-5.713-3.561-10.008-3.561-6.351 0-11.5 3.134-11.5 7s5.149 7 11.5 7c4.295 0 8.033-1.437 10.008-3.56l1.814 1.064 5.643 3.311c.905.53 2.035-.132 2.035-1.194 0 0-2-4.316-2-6.621s2-6.619 2-6.619c.001-.778-.633-1.404-1.398-1.381z" fill="#142f56"/>
  <path d="m19.5 19.998c-2.682 0-5.07.699-6.572 1.613-1.502.915-1.928 1.786-1.928 2.387s.426 1.472 1.928 2.387c1.502.914 3.89 1.613 6.572 1.613 3.626 0 6.662-1.368 7.811-2.603.954-1.027 2.506-1.254 3.714-.545l1.815 1.064 1.556.914c-.232-.871-.396-1.807-.396-2.83s.164-1.959.396-2.83l-1.556.914-1.815 1.064c-1.208.709-2.76.482-3.714-.544-1.149-1.236-4.185-2.604-7.811-2.604z" fill="#8dc6ff"/>
 </g>
</svg>
