<svg clip-rule="evenodd" fill-rule="evenodd" stroke-linejoin="round" stroke-miterlimit="2" viewBox="0 0 48 48" xmlns="http://www.w3.org/2000/svg">
 <linearGradient id="a" x2="1" gradientTransform="matrix(0 -33.6872 33.6872 0 923.28 40.4502)" gradientUnits="userSpaceOnUse">
  <stop stop-color="#d9dfe1" offset="0"/>
  <stop stop-color="#fff" offset="1"/>
 </linearGradient>
 <path d="m39.44 45.668h-30.88c-3.438 0-6.228-2.79-6.228-6.228v-30.88c0-3.438 2.79-6.228 6.228-6.228h30.88c3.438 0 6.228 2.79 6.228 6.228v30.88c0 3.438-2.79 6.228-6.228 6.228z" fill="url(#a)"/>
 <path d="m26 15.654c0-.085-.069-.154-.154-.154h-3.692c-.085 0-.154.069-.154.154v16.692c0 .085.069.154.154.154h3.692c.085 0 .154-.069.154-.154z" fill="#838383"/>
 <path d="m28 25.308c0-.17-.138-.308-.308-.308h-7.384c-.17 0-.308.138-.308.308v7.384c0 .17.138.308.308.308h7.384c.17 0 .308-.138.308-.308z" fill="#a3a3a3"/>
 <path d="m42 31.413c0-.78-.633-1.413-1.413-1.413h-33.174c-.78 0-1.413.633-1.413 1.413v11.174c0 .78.633 1.413 1.413 1.413h33.174c.78 0 1.413-.633 1.413-1.413z" fill="#ff7f33"/>
 <path d="m21.055 17.351c-3.483-1.615-5.021-5.811-3.406-9.295 1.615-3.483 5.811-5.021 9.295-3.406 3.483 1.614 5.022 5.81 3.407 9.294-1.614 3.484-5.809 5.022-9.294 3.408zm-10.055 9.649h4c1.108 0 2 .669 2 1.5v1.5h-8v-1.5c0-.831.892-1.5 2-1.5zm22 0h4c1.108 0 2 .669 2 1.5v1.5h-8v-1.5c0-.831.892-1.5 2-1.5z" fill="#2d2b2b"/>
</svg>
