<svg clip-rule="evenodd" fill-rule="evenodd" stroke-linejoin="round" stroke-miterlimit="2" viewBox="0 0 48 48" xmlns="http://www.w3.org/2000/svg">
 <linearGradient id="a" x2="1" gradientTransform="matrix(.00021 -40.0001 40.0001 .00021 23.9998 43.9997)" gradientUnits="userSpaceOnUse">
  <stop stop-color="#005f99" offset="0"/>
  <stop stop-color="#009eff" offset="1"/>
 </linearGradient>
 <g transform="matrix(1.06685 0 0 1.06685 -1.6043 -1.60428)" fill-rule="nonzero">
  <path d="m23.994 4c-.57.004-1.139.032-1.707.082-.411.033-.815.085-1.219.141-.214.027-.427.058-.64.091-.576.097-1.141.22-1.698.362-.036.009-.073.018-.109.027-8.442 2.199-14.621 9.422-14.621 17.996 0 .062.005.124.006.186-.002.038-.004.077-.006.115.01 5.887 3.089 11.41 8 15v6l5.305-3.121c2.148.734 4.412 1.113 6.695 1.121 10.639-.012 19.406-7.935 19.949-18.029.015-.222.027-.443.035-.666.006-.102.012-.203.016-.305-.001-.041-.002-.082-.004-.123.001-.06.004-.118.004-.178 0-9.684-7.877-17.666-18.004-18.603-.553-.049-1.108-.076-1.664-.081-.112-.002-.221-.015-.334-.015z" fill="url(#a)"/>
  <path d="m26 28-5-6-11 6 12-12 5 6 11-6z" fill="#fff"/>
 </g>
</svg>
