<svg width="48" height="48" xmlns="http://www.w3.org/2000/svg">
 <path d="m23.994 4c-.56998.00422-1.1395.031591-1.707.082031-.4114.03259-.81493.085152-1.2188.14062-.21405.027311-.42762.057914-.64062.091797-.57543.096959-1.1403.21947-1.6973.36133-.03648.00902-.07294.018131-.10938.027344-8.442 2.1985-14.621 9.4219-14.621 17.996.000101.06216.0051.12346.00586.18555-.0021.038-.0041.077-.0059.115.00988 5.887 3.089 11.41 8 15v6l5.3047-3.1211c2.148.734 4.412 1.113 6.695 1.121 10.639-.012 19.406-7.935 19.949-18.029.01591-.22113.02754-.44286.03516-.66602.006-.102.012-.203.016-.305-.001-.041-.002-.082-.004-.123.001-.06.004-.118.004-.178 0-9.684-7.877-17.666-18.004-18.603-.553-.0489-1.108-.0757-1.664-.0804-.112-.0017-.221-.0156-.334-.0156z" fill="#009eff"/>
 <path d="m26 29-5-6-11 6 12-12 5 6 11-6z" opacity=".2"/>
 <path d="m26 28-5-6-11 6 12-12 5 6 11-6z" fill="#fff"/>
 <path d="m23.994 4a20 19 0 0 0 -1.707.082c-.411.0326-.815.0852-1.219.1407a20 19 0 0 0 -.64.0918c-.576.0969-1.141.2194-1.698.3613a20 19 0 0 0 -.109.0273c-8.442 2.1985-14.621 9.4219-14.621 17.996.0001.062.0051.124.0059.186a20 19 0 0 0 -.0059.115 20 19 0 0 0 .0176.318c.1811-8.405 6.2874-15.449 14.603-17.615a20 19 0 0 1 .109-.0272c.557-.1419 1.122-.2644 1.698-.3613a20 19 0 0 1 .64-.0918c.404-.0555.808-.1081 1.219-.1407a20 19 0 0 1 1.707-.082h.004c.113 0 .222.0139.334.0156a20 19 0 0 1 1.664.0801c10.003.9259 17.797 8.7283 17.986 18.252.001-.015.002-.029.002-.043a20 19 0 0 0 .016-.305 20 19 0 0 0 -.004-.123c.001-.06.004-.118.004-.178 0-9.684-7.877-17.666-18.004-18.603a20 19 0 0 0 -1.664-.0804c-.112-.0017-.221-.0156-.334-.0156h-.004z" fill="#fff" opacity=".2"/>
 <path d="m43.982 23.348c-.0076.20859-.01832.41617-.0332.62305-.543 10.094-9.31 18.017-19.949 18.029-2.2828-.008-4.5472-.38714-6.6953-1.1211l-5.305 3.121v1l5.3047-3.1211c2.148.734 4.412 1.113 6.695 1.121 10.639-.012 19.406-7.935 19.949-18.029.01591-.22113.02754-.44286.03516-.66602.006-.102.012-.203.016-.305-.001-.041-.003-.082-.004-.123.001-.06.004-.118.004-.178 0-.11854-.01523-.23354-.01758-.35156zm-39.968.052c-.0017.101-.0137.199-.0137.299.000101.06216.0051.12346.00586.18555-.0021.038-.0041.077-.0059.115.00988 5.887 3.089 11.41 8 15v-1c-4.7993-3.509-7.8408-8.864-7.9863-14.6z" opacity=".2"/>
</svg>
