<svg clip-rule="evenodd" fill-rule="evenodd" stroke-linejoin="round" stroke-miterlimit="2" viewBox="0 0 48 48" xmlns="http://www.w3.org/2000/svg">
 <linearGradient id="a" x2="1" gradientTransform="matrix(.238213 -34.6688 34.6688 .238213 22.8089 37.0008)" gradientUnits="userSpaceOnUse">
  <stop stop-color="#ddd" offset="0"/>
  <stop stop-color="#f0f0f0" offset="1"/>
 </linearGradient>
 <path d="m45.668 39.44c0 3.438-2.79 6.228-6.228 6.228h-30.88c-3.438 0-6.228-2.79-6.228-6.228v-4.606c0 1.2.966 2.167 2.167 2.167h39.002c1.201 0 2.167-.967 2.167-2.167z" fill="#969696" fill-rule="nonzero"/>
 <path d="m39.44 2.332c3.438 0 6.228 2.79 6.228 6.228v26.441c0 1.104-.896 2-2 2h-39.336c-1.104 0-2-.896-2-2v-26.441c0-3.438 2.79-6.228 6.228-6.228z" fill="url(#a)"/>
 <g transform="matrix(1.0834 0 0 1.0834 -2.0016 -2.0016)" fill-rule="nonzero">
  <path d="m11.232 27.336c-.936 1.985-1.693 4.121-2.232 6.447l.398.217s.36-.771.678-1.004c.318-.232 1.336-.664 1.336-.664s.219-1.952.895-4.154c-.196.028-.377.065-.582.088l-.375-.106c-.052-.282-.077-.548-.118-.824z" fill="#434343"/>
  <path d="m24.334 8.002c-1.294-.015-2.219.076-2.244.32-.051.5-.322 1.53-.363 2.625-.203-.791-.326-1.606-.36-2.447-1.865.127-5.052 1.898-5.064 2.734-.007.484.43 4.441.955 6.383-.973-1.911-1.392-3.86-1.836-5.808-.562.604-3.293.578-1.397 8.82-.779-1.281-.906-2.71-1.296-4.08-1.335 2.215-2.19 6.046-1.497 10.787 3.098-6.569 8.215-11.405 14.387-15.373.156-.071.182.048.125.107-4.822 3.679-7.718 7.106-8.342 7.793-.479.526-2.7 2.896-4.144 5.852-.391.799-.701 1.646-.951 2.463 3.522-.509 5.565-1.902 6.8-3.658-2.236-2.933-1.646-2.475.237-.61.886.877 2.294 1.681 3.263-1.051.745-2.097 1.62-2.677 1.62-2.677-1.328-.549-3.801-2.45.189-.778 1.265-1.957 3.029-3.281 4.648-4.789-3.62-.005-2.592-1.568.592-.451 1.515-2.873 5.195-2.827 9.344-2.148-3.047-1.556-6.439-3.588-7.422-2.303l-.142-.961c-1.76-.405-4.945-.726-7.102-.75z" fill="#206998"/>
 </g>
</svg>
