<svg clip-rule="evenodd" fill-rule="evenodd" stroke-linejoin="round" stroke-miterlimit="2" viewBox="0 0 48 48" xmlns="http://www.w3.org/2000/svg">
 <linearGradient id="a" x2="1" gradientTransform="matrix(0 -45.5354 45.5354 0 24 46.7714)" gradientUnits="userSpaceOnUse">
  <stop stop-color="#292929" offset="0"/>
  <stop stop-color="#444" offset="1"/>
 </linearGradient>
 <circle cx="24" cy="24" r="22.764" fill="url(#a)"/>
 <path d="m24 3.512c11.239 0 20.488 9.249 20.488 20.488s-9.249 20.488-20.488 20.488-20.488-9.249-20.488-20.488 9.249-20.488 20.488-20.488zm-15.935 11.72c-1.449 2.607-2.276 5.598-2.276 8.768s.827 6.161 2.276 8.768zm2.277 20.761c1.303 1.48 2.841 2.75 4.552 3.75v-12.328h3.72c.394-.681 1.13-1.139 1.971-1.139 1.257 0 2.277 1.02 2.277 2.277 0 1.256-1.02 2.276-2.277 2.276-.841 0-1.577-.458-1.971-1.138h-1.443v11.176c2.113.866 4.419 1.344 6.829 1.344.77 0 1.53-.049 2.276-.143v-13.82c-.68-.394-1.138-1.13-1.138-1.972 0-1.256 1.02-2.276 2.277-2.276 1.256 0 2.276 1.02 2.276 2.276 0 .842-.458 1.578-1.138 1.972v13.379c1.188-.31 2.331-.739 3.414-1.273v-16.354h10.244c0-6.205-3.171-11.727-7.967-15.021v10.468h-18.211v1.443c.68.394 1.138 1.13 1.138 1.972 0 1.256-1.02 2.276-2.277 2.276-1.256 0-2.276-1.02-2.276-2.276 0-.842.458-1.578 1.138-1.972v-3.719h18.211v-9.525c-2.412-1.188-5.117-1.857-7.967-1.857-4.575 0-8.779 1.724-11.993 4.553h12.298c.394-.681 1.13-1.139 1.971-1.139 1.257 0 2.277 1.02 2.277 2.277 0 1.256-1.02 2.276-2.277 2.276-.841 0-1.577-.458-1.971-1.138h-13.963zm23.902 3.028c4.201-2.885 7.155-7.48 7.824-12.745h-7.824z" fill="#e4e4e4"/>
</svg>
