<svg clip-rule="evenodd" fill-rule="evenodd" stroke-linejoin="round" stroke-miterlimit="2" viewBox="0 0 48 48" xmlns="http://www.w3.org/2000/svg">
 <linearGradient id="a" x2="1" gradientTransform="matrix(0 -37.8509 37.8509 0 23 42.4737)" gradientUnits="userSpaceOnUse">
  <stop stop-color="#ffb700" offset="0"/>
  <stop stop-color="#f5c839" offset="1"/>
 </linearGradient>
 <path d="m39.953 5.053c-.293-.005-.629.025-1.012.093l-21.802 4.293c-3.229.322-3.139 2.561-3.139 3.561v14.266c-.653-.173-1.325-.262-2-.266-4.389 0-8 3.611-8 8s3.611 8 8 8 8-3.611 8-8v-20.07l16-3.258v10.594c-.653-.173-1.325-.262-2-.266-4.389 0-8 3.611-8 8s3.611 8 8 8 8-3.611 8-8v-22.4c0-.875.004-2.517-2.047-2.547z" fill="url(#a)" fill-rule="nonzero"/>
 <circle cx="36" cy="35" r="11" fill="#0081af"/>
 <path d="m32.5 28c-1.381 0-2.5 1.119-2.5 2.5s1.119 2.5 2.5 2.5c.446 0 .856-.139 1.219-.344l1.969 1.844-1.969 1.844c-.363-.205-.773-.344-1.219-.344-1.381 0-2.5 1.119-2.5 2.5s1.119 2.5 2.5 2.5c1.38 0 2.5-1.119 2.5-2.5 0-.229-.036-.445-.094-.656l2.125-2.063 4.469 4.218 1.5.001v-1l-8.094-7.844c.058-.211.094-.428.094-.657 0-1.38-1.12-2.5-2.5-2.5zm0 1.5c.552 0 1 .448 1 1s-.448 1-1 1-1-.448-1-1 .448-1 1-1zm9-.5-3.938 3.719 1.313 1.281 4.125-4v-1zm-9 8.5c.552 0 1 .448 1 1s-.448 1-1 1-1-.448-1-1 .448-1 1-1z" fill="#ffffff" fill-rule="nonzero"/>
</svg>
