<svg clip-rule="evenodd" fill-rule="evenodd" stroke-linejoin="round" stroke-miterlimit="2" viewBox="0 0 48 48" xmlns="http://www.w3.org/2000/svg">
 <linearGradient id="a" x2="1" gradientTransform="matrix(-1.22224 -42.3336 42.3336 -1.22224 25.2222 44.4068)" gradientUnits="userSpaceOnUse">
  <stop stop-color="#ff7100" offset="0"/>
  <stop stop-color="#ff9231" offset="1"/>
 </linearGradient>
 <path d="m23.267 2s2.153 7.397 1.538 9.838c-.781 3.097-2.406 5.674-4.92 6.19-.957.196-2.587-1.09-3.254-1.851-.815-.929-1.376-3.539-1.376-3.539s-.521 2.276-.281 4.472 1.027 5.413.951 7.1c-.083 1.824-1.113 3.823-1.113 3.823s-.765-2.13-1.516-3.551-2.736-3.339-2.736-3.339 1.327 2.351 1.365 4.549-4.22 6.845-.189 12.887c4.074 6.108 10.173 5.396 10.173 5.396l1.484-.546-5.694-2.79 7.347-3.599-7.347-3.6 7.347-3.6 7.347 3.6 6.397-3.136-.178-1.015-6.219-3.048 5.415-2.652-.218-1.783-.895-6.583s-1.031 2.192-2.172 2.961c-.751.507-2.601.688-2.601.688s-1.013-5.402-2.079-8.213c-1.904-5.018-6.576-8.659-6.576-8.659zm9.126 31.44-7.347 3.6 6.744 3.304 2.663-.979 2.982-3.453z" fill="url(#a)"/>
</svg>
