<svg clip-rule="evenodd" fill-rule="evenodd" stroke-linejoin="round" stroke-miterlimit="2" viewBox="0 0 48 48" xmlns="http://www.w3.org/2000/svg">
 <linearGradient id="a" x2="1" gradientTransform="matrix(0 -45.5211 45.5211 0 23.4309 46.7571)" gradientUnits="userSpaceOnUse">
  <stop stop-color="#044f69" offset="0"/>
  <stop stop-color="#43556b" offset="1"/>
 </linearGradient>
 <g fill-rule="nonzero">
  <path d="m24 1.236c-12.611 0-22.764 10.153-22.764 22.764s10.153 22.764 22.764 22.764 22.764-10.153 22.764-22.764-10.153-22.764-22.764-22.764z" fill="url(#a)"/>
  <path d="m24 5.789c-9.99 0-18.211 8.221-18.211 18.211s8.221 18.211 18.211 18.211 18.211-8.221 18.211-18.211-8.221-18.211-18.211-18.211zm0 2.276c8.742 0 15.935 7.193 15.935 15.935s-7.193 15.935-15.935 15.935-15.935-7.193-15.935-15.935 7.193-15.935 15.935-15.935z" fill="#5294e2"/>
  <path d="m13.67 20.585c-.438 0-.834.079-1.188.236-.347.151-.654.336-.924.556l.453.558c.264-.201.521-.358.772-.471.25-.114.546-.172.887-.172.36 0 .653.099.878.294.225.188.338.467.338.838 0 .308-.063.589-.185.84-.122.252-.305.51-.549.774-.238.264-.528.565-.869.905l-1.803 1.782v.69h4.553v-.754h-3.482v-.038l1.436-1.387c.354-.333.664-.652.927-.954.264-.302.468-.605.616-.913s.222-.64.222-.992c0-.553-.185-.991-.557-1.311-.373-.321-.882-.481-1.525-.481zm3.943 0-.271 3.179.442.265c.148-.032.343-.064.585-.096.242-.031.457-.046.645-.046.624 0 1.08.119 1.369.358.289.232.434.569.434 1.009 0 .497-.165.866-.494 1.105-.322.232-.748.349-1.278.349-.316 0-.649-.038-.998-.114-.343-.081-.634-.193-.876-.331v.785c.221.119.493.21.816.273.322.063.671.094 1.047.094.846 0 1.504-.198 1.974-.594.477-.402.716-.954.716-1.652 0-.629-.222-1.117-.665-1.462-.437-.346-1.02-.518-1.752-.518-.235 0-.45.012-.645.037-.194.026-.35.048-.464.067l.171-1.954h2.85v-.754zm9.793 0c-.545 0-.983.137-1.316.409-.333.267-.578.653-.732 1.161-.147.508-.22 1.122-.22 1.841 0 1.071.182 1.911.547 2.518.371.601.946.901 1.721.901.544 0 .983-.137 1.316-.409.339-.273.584-.664.738-1.172.153-.508.231-1.12.231-1.838 0-1.078-.189-1.916-.567-2.51-.378-.601-.95-.901-1.718-.901zm5.691 0c-.545 0-.983.137-1.316.409-.333.267-.578.653-.732 1.161-.147.508-.22 1.122-.22 1.841 0 1.071.182 1.911.547 2.518.371.601.946.901 1.721.901.544 0 .983-.137 1.316-.409.339-.273.584-.664.738-1.172.153-.508.231-1.12.231-1.838 0-1.078-.189-1.916-.567-2.51-.378-.601-.95-.901-1.718-.901zm-5.691.696c.512 0 .876.228 1.093.68.225.453.336 1.13.336 2.035 0 .916-.111 1.601-.336 2.054-.217.446-.581.669-1.093.669-.519 0-.887-.228-1.105-.68-.211-.453-.318-1.133-.318-2.043 0-.905.107-1.582.318-2.035.218-.452.586-.68 1.105-.68zm5.691 0c.512 0 .876.228 1.093.68.225.453.336 1.13.336 2.035 0 .916-.111 1.601-.336 2.054-.217.446-.581.669-1.093.669-.519 0-.887-.228-1.105-.68-.211-.453-.318-1.133-.318-2.043 0-.905.107-1.582.318-2.035.218-.452.586-.68 1.105-.68zm-9.675.443c-.153 0-.286.04-.396.124s-.164.233-.164.445c0 .201.054.346.164.435.11.09.243.134.396.134s.288-.044.405-.134c.116-.089.173-.234.173-.435 0-.212-.057-.361-.173-.445-.117-.084-.252-.124-.405-.124zm0 2.85c-.153 0-.286.042-.396.126-.11.085-.164.23-.164.438 0 .203.054.348.164.438s.243.136.396.136.288-.046.405-.136c.116-.09.173-.235.173-.438 0-.208-.057-.353-.173-.438-.117-.084-.252-.126-.405-.126z" fill="#fff"/>
 </g>
</svg>
