<svg clip-rule="evenodd" fill-rule="evenodd" stroke-linejoin="round" stroke-miterlimit="2" viewBox="0 0 48 48" xmlns="http://www.w3.org/2000/svg">
 <linearGradient id="a" x2="1" gradientTransform="matrix(0 -36.4903 36.4903 0 16 40.4903)" gradientUnits="userSpaceOnUse">
  <stop stop-color="#003d5e" offset="0"/>
  <stop stop-color="#155d84" offset="1"/>
 </linearGradient>
 <linearGradient id="b" x2="1" gradientTransform="matrix(0 -34 34 0 25.1426 44)" gradientUnits="userSpaceOnUse">
  <stop stop-color="#e8e5e5" offset="0"/>
  <stop stop-color="#fff" offset="1"/>
 </linearGradient>
 <linearGradient id="c" x2="1" gradientTransform="matrix(-.0710831 -27.7988 27.7988 -.0710831 31.4004 43.7988)" gradientUnits="userSpaceOnUse">
  <stop stop-color="#00a8bf" offset="0"/>
  <stop stop-color="#00cae5" offset="1"/>
 </linearGradient>
 <g fill-rule="nonzero">
  <path transform="matrix(1.06849 0 0 1.06849 -1.64367 -1.64367)" d="m5.486 4c-.824 0-1.486.664-1.486 1.49v18.51c0 1.67.507 3.216 1.375 4.496 4.067 6.047 11.557 15.061 18.625 15.504h6.473l.927-.201h11.514c.205 0 .398-.063.574-.17.001-.001.003-.001.004-.002.31-.273.508-.669.508-1.117v-18.51c0-1.67-.507-3.216-1.375-4.496-2.151-3.198-5.263-7.216-8.76-10.367-2.015-1.769-4.122-3.258-6.146-4.168-1.24-.539-2.485-.892-3.719-.969h-18.514z" fill="url(#a)"/>
  <path transform="matrix(1.06849 0 0 1.06849 -1.64367 -1.64367)" d="m11.486 10c-.824 0-1.486.664-1.486 1.49v20.41c.922 6.025 8.855 11.636 14 12.1h5.486l.315-.1h12.713c.824 0 1.473-.82 1.486-1.646v-18.254c0-1.67-.507-3.216-1.375-4.496-3.036-4.784-7.156-9.263-12.625-9.504z" fill="url(#b)"/>
  <path transform="matrix(1.06849 0 0 1.06849 -1.64367 -1.64367)" d="m17.486 16c-.824 0-1.486.664-1.486 1.49v7.51h10v-5l14 8.5-14 8.5v-5h-10v4c0 4.432 3.568 8 8 8h18.514c.824 0 1.486-.664 1.486-1.49v-18.51c0-4.432-3.568-8-8-8z" fill="url(#c)"/>
 </g>
</svg>
