<svg clip-rule="evenodd" fill-rule="evenodd" stroke-linejoin="round" stroke-miterlimit="2" viewBox="0 0 48 48" xmlns="http://www.w3.org/2000/svg" xmlns:xlink="http://www.w3.org/1999/xlink"><linearGradient id="a" gradientTransform="matrix(0 -33.6872 33.6872 0 923.28 40.4502)" gradientUnits="userSpaceOnUse" x1="0" x2="1" y1="0" y2="0"><stop offset="0" stop-color="#c8d3d6"/><stop offset="1" stop-color="#ffffff"/></linearGradient><path d="m39.44 45.668h-30.88c-3.438 0-6.228-2.79-6.228-6.228v-30.88c0-3.438 2.79-6.228 6.228-6.228h30.88c3.438 0 6.228 2.79 6.228 6.228v30.88c0 3.438-2.79 6.228-6.228 6.228z" fill="url(#a)"/><g fill-rule="nonzero" transform="matrix(.877026 0 0 .877026 -2.2476 -4.06483)"><path d="m20.25 12c1.524 0 2.75 1.274 2.75 2.857v37.143h-2.75c-2.75 0-8.25-2.857-8.25-7.143v-30c0-1.583 1.226-2.857 2.75-2.857zm29.881 0v2.75c0 2.75-2.842 8.25-7.105 8.25h-14.184c-1.574 0-2.842-1.227-2.842-2.75v-5.5c0-1.523 1.268-2.75 2.842-2.75z" fill="#b50010"/><path d="m27.321 26h-.03c-.708 0-1.291.515-1.291 1.141v14.72c.001.625.584 1.139 1.291 1.139.227 0 .449-.053.645-.153l7.21-3.679 7.209-3.679c.399-.204.645-.581.645-.988s-.246-.785-.645-.989l-7.209-3.679-7.21-3.679c-.187-.096-.398-.149-.615-.154z" fill="#007aba"/></g></svg>