<svg clip-rule="evenodd" fill-rule="evenodd" stroke-linejoin="round" stroke-miterlimit="2" viewBox="0 0 48 48" xmlns="http://www.w3.org/2000/svg">
 <linearGradient id="a" x2="1" gradientTransform="matrix(0 -29.6576 29.6576 0 24 42.9975)" gradientUnits="userSpaceOnUse">
  <stop stop-color="#007340" offset="0"/>
  <stop stop-color="#33a87f" offset="1"/>
 </linearGradient>
 <g transform="matrix(1.04836 0 0 1.04836 -1.16058 -1.68476)">
  <path d="m45 27.998v4e-3c0 8.228-9.48 14.998-21 14.998s-21-6.77-21-14.998v-4e-3c0-8.228 9.48-14.998 21-14.998s21 6.77 21 14.998z" fill="url(#a)" fill-rule="nonzero"/>
  <path d="m34.092 35.712c-1.113 1.652-10.235-4.334-12.138-4.535-2.229-.235-12.433 2.961-13.756 1.179-1.589-2.138 6.93-9.316 6.724-11.275-.226-2.15-2.286-11.055-1.066-12.868 1.113-1.652 13.179 6.841 15.211 6.641 2.231-.219 8.815-2.996 10.695-1.82 1.713 1.071-6.402 8.779-6.196 10.738.226 2.15 1.747 10.127.526 11.94z" fill="#ee4075"/>
  <path d="m20.947 35.99c-1.409-.277-2.047-6.321-2.852-7.54-.806-1.22-10.605-10.396-10.074-12.504.359-1.428 11.071-.101 12.257-.928 1.187-.828 4.86-9.288 6.268-9.011 1.408.276 2.83 8.832 3.635 10.051.806 1.22 10.083 6.298 9.813 7.746-.269 1.448-8.329 5.255-9.515 6.083-1.187.828-8.124 6.38-9.532 6.103z" fill="#fc69a4"/>
  <path d="m28.8 32.914c-1.541.631-5.433-2.408-6.967-3.055s-12.603-4.119-12.83-6.469c-.161-1.661 7.35-3.033 7.996-4.572.645-1.538-.308-9.151 1.233-9.782 1.541-.63 6.637 7.104 8.171 7.751s9.928-2.589 10.557-1.043c.628 1.545-6.281 7.594-6.926 9.132-.646 1.539.307 7.408-1.234 8.038z" fill="#ff96bf"/>
  <path d="m32.946 24.189c-.546 1.199-6.032.752-7.26 1.212s-3.103 4.091-4.294 3.543c-1.192-.549-3.318-3.248-3.775-4.483-.457-1.236-5.118-6.885-4.573-8.083.546-1.199 7.317-1.223 8.545-1.682 1.228-.46 7.309-6.208 8.501-5.659 1.191.548-1.239 9.595-.782 10.831.457 1.235 4.183 3.122 3.638 4.321z" fill="#ffcbdb"/>
  <path d="m27.44 21.805c-.073.572.278 1.669-.137 2.103-.574.601-2.137.768-2.921 1.098-.566.239-1.417 1.094-2.019.984-.833-.151-1.737-1.327-2.42-1.789-.494-.333-1.696-.575-1.883-1.119-.259-.752.399-2.095.5-2.887.073-.572-.278-1.669.137-2.103.574-.601 2.137-.768 2.921-1.098.566-.239 1.417-1.094 2.019-.984.833.151 1.737 1.327 2.42 1.789.494.333 1.696.575 1.883 1.119.259.752-.399 2.095-.5 2.887z" fill="#ff940a"/>
 </g>
</svg>
