<svg clip-rule="evenodd" fill-rule="evenodd" stroke-linejoin="round" stroke-miterlimit="2" viewBox="0 0 48 48" xmlns="http://www.w3.org/2000/svg">
 <linearGradient id="a" x2="1" gradientTransform="matrix(0 -40.0222 40.0222 0 24 44.0139)" gradientUnits="userSpaceOnUse">
  <stop stop-color="#282828" offset="0"/>
  <stop stop-color="#4f4f4f" offset="1"/>
 </linearGradient>
 <g transform="matrix(1.08233 0 0 1.08233 -1.97588 -1.97588)">
  <path d="m4 38.746v-29.492c.231-2.794 2.46-5.023 5.254-5.254h29.492c2.794.231 5.023 2.46 5.254 5.254v29.492c-.231 2.794-2.46 5.023-5.254 5.254h-29.492c-2.794-.231-5.023-2.46-5.254-5.254z" fill="url(#a)"/>
  <path d="m12.951 4.01c5.739-.069 10.817.007 16.556-.021-8.742 5.143-17.223 17.761-6.804 24.517-9.844-2.12-21.536-10.892-9.752-24.496zm14.473 23.415c-1.134 1.134-3.613.521-5.491-1.358-1.879-1.879-2.492-4.358-1.358-5.492 1.133-1.133 3.612-.52 5.491 1.359 1.879 1.878 2.492 4.357 1.358 5.491zm9.663 16.564c-5.739.07-18.098-.006-23.837.022 13.29-4.466 22.518-17.761 12.099-24.517 9.844 2.12 19.8 10.298 11.738 24.495z" fill="#e73232"/>
 </g>
</svg>
