<svg clip-rule="evenodd" fill-rule="evenodd" stroke-linejoin="round" stroke-miterlimit="2" viewBox="0 0 48 48" xmlns="http://www.w3.org/2000/svg">
 <linearGradient id="a" x2="1" gradientTransform="matrix(-.0439458 -41.6709 41.6709 -.0439458 355.735 546.998)" gradientUnits="userSpaceOnUse">
  <stop stop-color="#016a87" offset="0"/>
  <stop stop-color="#1ec7f9" offset="1"/>
 </linearGradient>
 <linearGradient id="b" x2="1" gradientTransform="matrix(0 -24.0671 24.0671 0 367.241 550.172)" gradientUnits="userSpaceOnUse">
  <stop stop-color="#b1d7fc" offset="0"/>
  <stop stop-color="#f4fcff" offset="1"/>
 </linearGradient>
 <path transform="matrix(.974596 0 0 .974596 -322.304 -489.311)" d="m372.724 511.005c-4.644-3.779-10.81-5.86-17.362-5.86s-12.718 2.081-17.362 5.86c-4.684 3.812-7.264 8.893-7.264 14.306 0 5.166 2.352 10.029 6.638 13.776-.077.173-.138.356-.177.549l-1.409 6.928c-.167.823.058 1.314.276 1.581.252.309.626.479 1.052.479.322 0 .668-.095 1.029-.283l8.193-4.256c2.836.913 5.885 1.392 9.024 1.392 6.552 0 12.718-2.081 17.362-5.86 4.684-3.812 7.264-8.893 7.264-14.306s-2.58-10.494-7.264-14.306z" fill="url(#a)" fill-rule="nonzero"/>
 <path transform="matrix(.974596 0 0 .974596 -322.304 -489.311)" d="m358.652 529.154c2.322-2.057 5.405-3.19 8.681-3.19s6.359 1.133 8.681 3.19c2.342 2.076 3.632 4.842 3.632 7.789 0 2.813-1.176 5.46-3.319 7.5.039.094.07.194.089.299l.704 3.771c.084.449-.028.716-.138.861-.126.168-.313.261-.526.261-.161 0-.334-.052-.514-.154l-4.097-2.317c-1.418.497-2.942.758-4.512.758-3.276 0-6.359-1.133-8.681-3.191-2.342-2.075-3.631-4.841-3.631-7.788s1.289-5.713 3.631-7.789z" fill="url(#b)" fill-rule="nonzero"/>
 <path d="m30.697 31.784c1.204 0 2.181.977 2.181 2.181 0 1.203-.977 2.18-2.181 2.18-1.203 0-2.18-.977-2.18-2.18 0-1.204.977-2.181 2.18-2.181zm10.195 0c1.203 0 2.18.977 2.18 2.181 0 1.203-.977 2.18-2.18 2.18s-2.18-.977-2.18-2.18c0-1.204.977-2.181 2.18-2.181zm-5.224 0c1.204 0 2.18.977 2.18 2.181 0 1.203-.976 2.18-2.18 2.18-1.203 0-2.18-.977-2.18-2.18 0-1.204.977-2.181 2.18-2.181z" fill="#17a0be" fill-opacity=".84"/>
</svg>
