<svg clip-rule="evenodd" fill-rule="evenodd" stroke-linejoin="round" stroke-miterlimit="2" viewBox="0 0 48 48" xmlns="http://www.w3.org/2000/svg">
 <linearGradient id="a" x2="1" gradientTransform="matrix(0 -45.528 45.528 0 24 46.764)" gradientUnits="userSpaceOnUse">
  <stop stop-color="#ec396c" offset="0"/>
  <stop stop-color="#ff709a" offset="1"/>
 </linearGradient>
 <circle cx="24" cy="24" r="22.764" fill="url(#a)"/>
 <g fill-rule="nonzero">
  <path transform="matrix(.481179 0 0 .481179 -11.587 -6.79623)" d="m76.133 102.374c-7.997-2.877-12.747-6.408-17.955-14.288-1.278-2.171-3.628-7.016-3.539-13.34-.208-6.305 2.978-13.57 8.924-17.447 5.742-4.092 13.152-4.153 17.56-2.537 4.547 1.688 6.391 4.5 6.443 4.366-.139.035 2.436 2.201 3.584 6.916 1.279 4.532-.02 12.044-6.271 15.12-2.875 1.541-6.609 1.82-9.537.718-2.928-1.181-5.053-3.774-5.761-6.483-1.543-5.981 2.995-9.296 4.997-9.636 8.145-2.716 12.27 10.03 2.744 11.114 4.342 1.45 8.818-3.006 7.967-7.545-.172-4.54-5.668-9.046-11.73-7.199-1.583.437-3.98 1.548-5.856 4.047-1.924 2.484-2.797 6.377-1.797 10.161.975 3.805 3.94 7.447 8.07 9.084 4.172 1.539 8.817 1.099 12.653-.897 8.189-4.051 9.828-13.922 8.201-19.353-1.436-5.837-4.607-8.51-4.443-8.551-.059.159-2.34-3.309-7.977-5.414-5.512-2.01-14.106-1.868-20.987 2.957-7.042 4.516-10.857 13.39-10.58 20.542-.095 7.263 2.612 12.822 4.089 15.293 5.954 9.08 12.776 11.918 21.201 12.372" fill="#fff" fill-opacity=".85"/>
  <path transform="matrix(.328075 0 0 .328075 .796507 -2.20355)" d="m69.237 82.35-24.81-25.485s-3.68-3.794.819-3.794h13.48v-34.333c-.088-1.777.011-1.926 1.738-1.917h21.003c1.493-.166 1.842.049 1.841 1.631v34.619h12.905c4.158 0 1.226 3.172 1.226 3.172s-21.108 23.82-24.052 26.319c-2.118 1.811-4.15-.212-4.15-.212z" fill="#868686"/>
 </g>
</svg>
