<svg clip-rule="evenodd" fill-rule="evenodd" stroke-linejoin="round" stroke-miterlimit="2" viewBox="0 0 48 48" xmlns="http://www.w3.org/2000/svg">
 <circle cx="24" cy="24" r="22.764" fill="#333" stroke-width="1.1382"/>
 <g transform="matrix(1.1382 0 0 1.1382 -3.3168 -3.3168)" fill="#fff">
  <path d="m14.412 21.976c-.135.446-.255.902-.367 1.362-.639 2.635-.956 5.439-1.484 7.844l-3.907-.859c.649-2.952.997-6.49 1.966-9.613.739-2.384 1.833-4.537 3.532-6.157.447-.426 1.065-.622 1.676-.531s1.145.459 1.447.998c.742 1.319 1.024 3.571 1.114 6.148.022.656.034 1.338.05 2.029.299-.685.958-1.148 1.709-1.193.783-.048 1.521.366 1.889 1.059l.993 1.874 1.891-1.503c.601-.477 1.422-.569 2.113-.235l2.48 1.195 3.708-.844c.257-.059.522-.066.782-.021l2.632.45 2.453-.3.486 3.971-2.745.335c-.193.024-.389.019-.58-.014l-2.528-.432-4.002.911c-.442.101-.905.048-1.313-.149l-1.98-.954-2.793 2.219c-.465.37-1.071.513-1.653.392-.582-.122-1.08-.496-1.358-1.021l-.06-.112-1.107 2.89c-.29.758-1.01 1.266-1.821 1.284-.812.019-1.554-.455-1.879-1.199-1.038-2.377-1.229-5.702-1.316-8.825z"/>
  <path d="m24 4c-9.669.009-18.015 7.029-19.682 16.553 3.573-2.938 8.056-4.548 12.682-4.553 10.972 0 20 9.028 20 20-.006 1.156-.113 2.31-.318 3.447 4.625-3.792 7.313-9.466 7.318-15.447 0-10.972-9.028-20-20-20z" fill-opacity=".15" fill-rule="nonzero"/>
 </g>
</svg>
