<svg clip-rule="evenodd" fill-rule="evenodd" stroke-linejoin="round" stroke-miterlimit="2" viewBox="0 0 48 48" xmlns="http://www.w3.org/2000/svg">
 <linearGradient id="a" x2="1" gradientTransform="matrix(-.00109739 -43.1476 43.1476 -.00109739 228.379 45.3582)" gradientUnits="userSpaceOnUse">
  <stop stop-color="#d9dfdf" offset="0"/>
  <stop stop-color="#ffffff" offset="1"/>
 </linearGradient>
 <linearGradient id="b" x2="1" gradientTransform="matrix(0 -42.321 42.321 0 195.644 44.5074)" gradientUnits="userSpaceOnUse">
  <stop stop-color="#04885f" offset="0"/>
  <stop stop-color="#38b895" offset="1"/>
 </linearGradient>
 <path d="m35.071 2.164h4.369c3.438 0 6.228 2.79 6.228 6.228v30.88c0 3.438-2.79 6.228-6.228 6.228h-9.129v-43.319l4.76-.017z" fill="url(#a)"/>
 <path d="m24 2.332 15.714-1.556c2.209-.225 3.174.967 3.191 3.355l-.068 39.119c-.04 2.656-1.222 4.047-3.552 4.145l-15.105-1.867-15.62-.028c-3.388-.018-6.252-2.672-6.228-6.228 0 0-.072 1.829-.072-30.736 0-3.41 2.818-6.228 6.228-6.228z" fill="url(#b)"/>
 <path d="m42.837 43.25c-.04 2.656-1.222 4.047-3.552 4.145l-15.285-1.888v-43.175l15.714-1.556c2.209-.225 3.174.967 3.191 3.355z" fill-opacity=".15"/>
 <g fill="#ffffff">
  <path d="m9.186 33.868c0-1.315.454-2.42 1.362-3.314.908-.895 2.002-1.342 3.282-1.342 1.272 0 2.364.449 3.276 1.348.912.898 1.368 2.001 1.368 3.308 0 1.276-.452 2.363-1.356 3.261s-2 1.347-3.288 1.347c-1.272 0-2.364-.449-3.276-1.347s-1.368-1.985-1.368-3.261zm1.644-.012c0 .836.29 1.558.87 2.169.58.61 1.29.915 2.13.915s1.55-.303 2.13-.909c.58-.607.87-1.331.87-2.175 0-.851-.292-1.582-.876-2.192s-1.292-.916-2.124-.916-1.54.301-2.124.904c-.584.602-.876 1.337-.876 2.204z" fill-rule="nonzero"/>
  <path d="m26.106 35.824h1.908c-.344.8-.898 1.442-1.662 1.926s-1.578.726-2.442.726c-1.28 0-2.372-.461-3.276-1.383-.904-.923-1.356-2.017-1.356-3.285 0-1.235.448-2.31 1.344-3.224s1.98-1.372 3.252-1.372c.824 0 1.6.209 2.328.627.84.482 1.46 1.181 1.86 2.097h-1.872c-.328-.388-.686-.683-1.074-.885s-.822-.303-1.302-.303c-.744 0-1.404.289-1.98.868-.608.61-.912 1.349-.912 2.216 0 .836.296 1.562.888 2.181.592.618 1.28.927 2.064.927.52 0 .992-.132 1.416-.396.224-.144.496-.384.816-.72z" fill-rule="nonzero"/>
  <path d="m28.998 38.284v-8.88h2.724c.504 0 .924.048 1.26.144s.636.248.9.456c.296.24.532.52.708.84.224.408.336.844.336 1.308 0 .352-.06.7-.18 1.044-.152.432-.376.792-.672 1.08-.24.224-.496.396-.768.516-.16.064-.396.136-.708.216l2.412 3.276h-1.992l-2.352-3.396-.024 3.396zm1.644-7.344v2.712h1.056c.6 0 1.032-.168 1.296-.504.192-.24.288-.528.288-.864s-.1-.62-.3-.852c-.28-.328-.708-.492-1.284-.492z" fill-rule="nonzero"/>
  <path d="m10.005 24.463h25.388l-9.253-14.169-5.841 9.079-4.048-4.279z"/>
 </g>
</svg>
