<svg clip-rule="evenodd" fill-rule="evenodd" stroke-linejoin="round" stroke-miterlimit="2" viewBox="0 0 48 48" xmlns="http://www.w3.org/2000/svg">
 <linearGradient id="a" x2="1" gradientTransform="matrix(4.41491 45.5011 -45.5011 4.41491 -159.12 18.9225)" gradientUnits="userSpaceOnUse">
  <stop stop-color="#d4d4d4" offset="0"/>
  <stop stop-color="#c3c3c3" offset="1"/>
 </linearGradient>
 <linearGradient id="b" x2="1" gradientTransform="matrix(-22.2056 -29.7956 29.7956 -22.2056 563.735 -354.839)" gradientUnits="userSpaceOnUse">
  <stop stop-color="#0074d5" offset="0"/>
  <stop stop-color="#b30086" offset="1"/>
 </linearGradient>
 <circle cx="24" cy="24" r="22.764" fill="url(#a)"/>
 <path d="m24.639 12.371c2.241 0 4.237.462 5.99 1.388s3.215 2.252 4.383 3.982l-4.383 3.725c-.754-1.047-1.613-1.863-2.575-2.447-.961-.585-2.136-.877-3.525-.877-1.022 0-1.941.165-2.757.493-.816.329-1.504.785-2.064 1.37-.56.584-.992 1.29-1.297 2.119-.304.827-.456 1.74-.456 2.739 0 1.022.158 1.96.475 2.812.316.853.773 1.577 1.37 2.173.596.597 1.327 1.066 2.191 1.406.864.341 1.833.512 2.904.512 1.168 0 2.198-.189 3.086-.566.889-.378 1.625-.907 2.21-1.589v-1.132h-5.625v-5.406h11.907v7.597c-.536.949-1.205 1.832-2.009 2.648-.803.816-1.704 1.522-2.702 2.118-.999.597-2.1 1.066-3.306 1.407s-2.478.511-3.817.511c-1.85 0-3.573-.317-5.168-.949-1.595-.634-2.983-1.51-4.164-2.63-1.181-1.121-2.106-2.442-2.776-3.963-.669-1.522-1.004-3.172-1.004-4.949 0-1.778.335-3.427 1.004-4.949.67-1.522 1.595-2.843 2.776-3.964 1.181-1.12 2.569-1.996 4.164-2.63 1.595-.632 3.318-.949 5.168-.949zm-13.112 3.499v.788h-.52c-.508 0-.874.164-1.094.493-.219.318-.328.795-.328 1.43v3.131c0 .598-.164 1.098-.487 1.5-.325.391-.803.642-1.439.751v.02c.659.122 1.144.383 1.456.785.312.391.47.887.47 1.485v3.166c0 .623.109 1.1.328 1.43.22.329.586.493 1.094.493h.52v.788h-.918c-.81 0-1.428-.238-1.856-.715-.428-.475-.641-1.115-.641-1.921v-3.187c0-.501-.094-.884-.279-1.153-.185-.28-.662-.478-.974-.587-.301-.11-.642-.178-1.023-.202v-.768c.381-.012.722-.073 1.023-.183.312-.122.789-.319.974-.587.185-.269.279-.651.279-1.151v-3.187c0-.83.213-1.47.641-1.922.428-.464 1.046-.697 1.856-.697zm26.582 0c.81 0 1.428.233 1.856.697.428.452.643 1.092.643 1.922v3.187c0 .5.093.882.278 1.151.185.268.661.465.973.587.301.11.641.171 1.023.183v.768c-.382.024-.722.092-1.023.202-.312.109-.788.307-.973.587-.185.269-.278.652-.278 1.153v3.187c0 .806-.215 1.446-.643 1.921-.428.477-1.046.715-1.856.715h-.918v-.788h.519c.509 0 .874-.164 1.094-.493.22-.33.329-.807.329-1.43v-3.166c0-.598.157-1.094.47-1.485.312-.402.797-.663 1.456-.785v-.02c-.636-.109-1.114-.36-1.439-.751-.323-.402-.487-.902-.487-1.5v-3.131c0-.635-.109-1.112-.329-1.43-.22-.329-.585-.493-1.094-.493h-.519v-.788z" fill="url(#b)"/>
</svg>
