<svg clip-rule="evenodd" fill-rule="evenodd" stroke-linejoin="round" stroke-miterlimit="2" viewBox="0 0 48 48" xmlns="http://www.w3.org/2000/svg">
 <linearGradient id="a" x2="1" gradientTransform="matrix(0 -48.5665 48.5665 0 24.9508 47.8463)" gradientUnits="userSpaceOnUse">
  <stop stop-color="#197cf1" offset="0"/>
  <stop stop-color="#21c9fb" offset="1"/>
 </linearGradient>
 <circle cx="24" cy="24" r="22.764" fill="url(#a)"/>
 <path d="m24.393 24.764c-.238-1.042 1.017-1.651 1.867-1.537 1.673.222 2.461 2.095 2.079 3.591-.582 2.281-3.172 3.308-5.296 2.626-2.885-.928-4.149-4.272-3.159-7.027 1.259-3.498 5.362-5.01 8.725-3.71 4.101 1.589 5.857 6.475 4.241 10.458-1.908 4.732-7.554 6.734-12.151 4.799-5.336-2.239-7.573-8.673-5.336-13.895 2.564-5.96 9.757-8.447 15.583-5.882 6.558 2.885 9.299 10.871 6.412 17.33-3.204 7.187-11.954 10.169-19.008 6.97-7.782-3.529-11.006-13.074-7.498-20.763 2.75-6.031 9.046-9.825 15.634-9.654" fill="#fff" fill-opacity=".85"/>
</svg>
