<svg clip-rule="evenodd" fill-rule="evenodd" stroke-linejoin="round" stroke-miterlimit="2" viewBox="0 0 48 48" xmlns="http://www.w3.org/2000/svg">
 <linearGradient id="a" x2="1" gradientTransform="matrix(0 -33.6872 33.6872 0 923.28 40.4502)" gradientUnits="userSpaceOnUse">
  <stop stop-color="#1b8320" offset="0"/>
  <stop stop-color="#4bae4f" offset="1"/>
 </linearGradient>
 <path d="m39.44 45.668h-30.88c-3.438 0-6.228-2.79-6.228-6.228v-30.88c0-3.438 2.79-6.228 6.228-6.228h30.88c3.438 0 6.228 2.79 6.228 6.228v30.88c0 3.438-2.79 6.228-6.228 6.228z" fill="url(#a)"/>
 <path d="m33 17c0-1.104-.896-2-2-2h-14c-1.104 0-2 .896-2 2v14c0 1.104.896 2 2 2h14c1.104 0 2-.896 2-2z" fill="#91ceb6"/>
 <path d="m19 9v7h2v-7zm4 0v7h2v-7zm4 0v7h2v-7zm13 4v6h-8v2h9c1 0 1-1 1-1v-7m-35 0v2h2v5s0 1 1 1h6v-2h-5v-5c0-1-1-1-1-1zm0 10v2h9v-2zm25 0v2h9v-2zm-25 4c-1 0-1 1-1 1v7h2v-6h8v-2zm25 0v2h5v5c0 1 1 1 1 1h3v-2h-2v-5s0-1-1-1zm-13 5v7h2v-7zm4 0v7h2v-7zm4 0v7h2v-7z" fill="#166819" fill-rule="nonzero"/>
 <path d="m19 13h2v5h-2zm4 0h2v5h-2zm4 0h2v5h-2zm-14 6h5v2h-5zm17 0h5v2h-5zm-17 4h5v2h-5zm17 0h5v2h-5zm-17 4h5v2h-5zm17 0h5v2h-5zm-11 3h2v5h-2zm4 0h2v5h-2zm4 0h2v5h-2zm14-18c.552 0 1 .448 1 1s-.448 1-1 1-1-.448-1-1 .448-1 1-1zm0 21c.552 0 1 .448 1 1s-.448 1-1 1-1-.448-1-1 .448-1 1-1zm-34-10c.552 0 1 .448 1 1s-.448 1-1 1-1-.448-1-1 .448-1 1-1zm34 0c.552 0 1 .448 1 1s-.448 1-1 1-1-.448-1-1 .448-1 1-1zm-34-10c.552 0 1 .448 1 1s-.448 1-1 1-1-.448-1-1 .448-1 1-1zm0 21c.552 0 1 .448 1 1s-.448 1-1 1-1-.448-1-1 .448-1 1-1z" fill="#ffaa1e"/>
 <path d="m17 17h14v14h-14z" fill="#242424"/>
</svg>
