<svg clip-rule="evenodd" fill-rule="evenodd" stroke-linejoin="round" stroke-miterlimit="2" viewBox="0 0 48 48" xmlns="http://www.w3.org/2000/svg">
 <linearGradient id="a" x2="1" gradientTransform="matrix(0 -51.2686 51.2686 0 411.151 48.3228)" gradientUnits="userSpaceOnUse">
  <stop stop-color="#002032" offset="0"/>
  <stop stop-color="#0054b8" offset="1"/>
 </linearGradient>
 <linearGradient id="b" x2="1" gradientTransform="matrix(.174001 -45.1313 45.1313 .174001 24 46.4863)" gradientUnits="userSpaceOnUse">
  <stop stop-color="#2d454f" offset="0"/>
  <stop stop-color="#5b95d7" offset="1"/>
 </linearGradient>
 <linearGradient id="c" x2="1" gradientTransform="matrix(0 -30.9326 30.9326 0 1536.84 40.3826)" gradientUnits="userSpaceOnUse">
  <stop stop-color="#97a9b1" offset="0"/>
  <stop stop-color="#cfdce1" offset="1"/>
 </linearGradient>
 <circle cx="24.174" cy="23.921" r="22.566" fill="url(#a)"/>
 <path d="m24.174 1.355c12.455 0 22.566 10.111 22.566 22.566s-10.111 22.566-22.566 22.566-22.566-10.111-22.566-22.566 10.111-22.566 22.566-22.566zm0 2.442c11.107 0 20.124 9.017 20.124 20.124s-9.017 20.124-20.124 20.124-20.124-9.017-20.124-20.124 9.017-20.124 20.124-20.124z" fill="url(#b)"/>
 <path d="m24.063 10.667c-.501-.001-1.004.024-1.503.08-.386.042-.672.375-.659.762.044 1.236-.689 2.38-1.826 2.845-1.089.446-2.506.119-3.299-.753-.262-.287-.701-.322-1.005-.084-.799.627-1.527 1.346-2.158 2.133-.245.307-.209.748.08 1.012.928.84 1.227 2.178.746 3.327-.46 1.096-1.599 1.802-2.901 1.802-.423-.014-.724.27-.77.654-.117 1.002-.118 2.022-.005 3.032.041.376.492.656.874.656 1.16-.03 2.273.688 2.741 1.826.465 1.136.165 2.459-.747 3.295-.284.262-.318.7-.078 1.005.62.788 1.33 1.506 2.109 2.132.306.246.749.214 1.014-.078.797-.882 2.224-1.208 3.323-.747 1.15.481 1.875 1.644 1.803 2.893-.023.393.266.733.655.777.51.06 1.021.09 1.534.09.489 0 .978-.028 1.465-.082.387-.043.672-.374.659-.763-.044-1.235.69-2.378 1.825-2.843 1.096-.448 2.507-.118 3.301.753.262.287.698.319 1.005.082.798-.625 1.523-1.341 2.157-2.131.246-.305.211-.75-.079-1.014-.929-.839-1.231-2.176-.748-3.324.453-1.082 1.549-1.807 2.728-1.807l.166.005c.381.031.732-.264.778-.655.117-1.002.119-2.021.006-3.031h.002c-.042-.374-.479-.654-.857-.654-1.221 0-2.307-.719-2.762-1.828-.464-1.136-.165-2.461.746-3.296.287-.262.322-.701.081-1.006-.624-.793-1.335-1.511-2.111-2.133-.304-.244-.751-.207-1.014.084-.794.88-2.223 1.206-3.325.745-1.147-.482-1.871-1.645-1.801-2.893.024-.392-.262-.733-.654-.779-.498-.058-.997-.087-1.496-.089zm4.62 6.126c2.922 0-.183 4.159-1.826 4.159s-1.095-4.159 1.826-4.159zm-4.659.518c1.644-.214.683 3.18-.193 3.126-.875-.053-1.452-2.912.193-3.126zm-2.757 1.125c1.082-.114 1.004 2.564.309 2.706-.74.151-1.863-2.1-.541-2.644.083-.035.16-.054.232-.062zm-2.053 1.761c.805.027 1.153 2.109.609 2.349-.623.273-2.037-1.494-.979-2.224.132-.091.255-.129.37-.125zm6.043 1.35c1.36.023 2.459.471 2.606 1.347.474 2.814-6.711 3.841-4.005 5.902.85.647 1.718.152 1.586-.852v-.002c-.109-.837 2.943-1.344 2.704-.078-.313 1.66-1.986 2.97-3.437 2.97-2.95 0-5.777-3.43-5.225-5.903.51-2.284 3.503-3.423 5.771-3.384z" fill="url(#c)"/>
</svg>
