<svg width="48" height="48" xmlns="http://www.w3.org/2000/svg">
 <path d="m8 18h32v12h-32z" fill="#4f4f4f"/>
 <path d="m24 4c-9.349 0-17.137 6.36-19.35 15h38.7c-2.213-8.64-10.001-15-19.35-15zm-19.35 25c2.2124 8.64 10.001 15 19.35 15s17.137-6.36 19.35-15z" fill="#e4e4e4"/>
 <path d="m4.9512 19c-.1038.332-.2139.661-.3008 1h38.7c-.087-.339-.197-.668-.301-1h-38.098zm-.3008 11c2.2124 8.64 10.001 15 19.35 15s17.137-6.36 19.35-15h-.301c-2.54 8.123-10.067 14-19.049 14s-16.509-5.877-19.049-14h-.3006z" opacity=".2"/>
 <path d="m24 4c-9.349 0-17.137 6.36-19.35 15h.3012c2.5402-8.123 10.067-14 19.049-14s16.509 5.877 19.049 14h.301c-2.213-8.64-10.001-15-19.35-15zm-19.35 25c.0869.339.197.668.3008 1h38.098c.104-.332.214-.661.301-1h-38.7z" fill="#fff" opacity=".2"/>
 <circle cx="24" cy="25" r="4" opacity=".2"/>
 <circle cx="24" cy="24" r="4" fill="#ff6363"/>
 <circle cx="34" cy="25" r="4" opacity=".2"/>
 <circle cx="34" cy="24" r="4" fill="#ff6363"/>
 <circle cx="14" cy="25" r="4" opacity=".2"/>
 <circle cx="14" cy="24" r="4" fill="#ff6363"/>
</svg>
