<svg clip-rule="evenodd" fill-rule="evenodd" stroke-linejoin="round" stroke-miterlimit="2" viewBox="0 0 48 48" xmlns="http://www.w3.org/2000/svg">
 <linearGradient id="a" x2="1" gradientTransform="matrix(0 -21.3333 21.3333 0 23.6653 23.6653)" gradientUnits="userSpaceOnUse">
  <stop stop-color="#0d59b4" offset="0"/>
  <stop stop-color="#4987d7" offset="1"/>
 </linearGradient>
 <linearGradient id="b" x2="1" gradientTransform="matrix(0 -22.0697 22.0697 0 23.5982 45.668)" gradientUnits="userSpaceOnUse">
  <stop stop-color="#7e2b69" offset="0"/>
  <stop stop-color="#a45390" offset="1"/>
 </linearGradient>
 <g fill-rule="nonzero">
  <path d="m39.443 2.332c1.718.001 3.273.698 4.4 1.825l-19.843 19.843-19.843-19.843c1.126-1.127 2.682-1.824 4.4-1.825z" fill="url(#a)"/>
  <path d="m43.843 43.843c-1.126 1.127-2.682 1.824-4.4 1.825h-30.886c-1.718-.001-3.273-.698-4.4-1.825l19.843-19.843z" fill="url(#b)"/>
  <path d="m43.843 4.157c1.127 1.126 1.824 2.682 1.825 4.4v30.883c0 1.719-.698 3.276-1.825 4.403l-19.843-19.843z" fill="#6db832"/>
  <path d="m24 24-19.843 19.843c-1.127-1.127-1.825-2.684-1.825-4.403v-30.883c.001-1.718.698-3.273 1.825-4.4z" fill="#c2352a"/>
  <path transform="matrix(1.0834 0 0 1.0834 -2.00157 -2.00157)" d="m21.113 42 3.809-8.789h-4.922v-1.904h7.382v1.421l-3.904 9.272zm-6.899-12h-7.185v-1.575l2.519-2.717c.318-.342.606-.657.865-.945.258-.288.481-.569.666-.842.186-.274.33-.552.432-.835.103-.283.154-.588.154-.916 0-.361-.11-.642-.329-.842-.215-.2-.506-.3-.872-.3-.386 0-.757.095-1.113.285-.357.191-.73.462-1.121.813l-1.23-1.457c.22-.2.449-.39.689-.571.239-.185.502-.349.791-.491.288-.141.605-.253.952-.336.346-.088.735-.132 1.164-.132.513 0 .972.071 1.377.212.41.142.76.344 1.048.608.288.259.507.574.659.945.156.371.234.788.234 1.252 0 .42-.073.823-.219 1.209-.147.381-.347.757-.601 1.128-.254.366-.549.732-.886 1.098-.332.362-.689.73-1.07 1.106l-1.289 1.297v.102h4.365zm22.536-6.987c.459 0 .886.071 1.282.212.395.142.739.35 1.032.623s.523.615.689 1.025c.166.406.249.872.249 1.399 0 .581-.09 1.104-.271 1.568-.181.459-.447.849-.798 1.172-.352.317-.789.561-1.311.732-.518.171-1.114.256-1.788.256-.268 0-.534-.012-.798-.037-.264-.024-.518-.06-.762-.109-.239-.044-.468-.103-.688-.176-.215-.073-.41-.159-.586-.257v-1.956c.17.098.368.191.593.279.224.083.456.156.696.219.244.059.488.108.732.147.244.034.476.051.696.051.654 0 1.152-.134 1.494-.403.342-.273.513-.705.513-1.296 0-.527-.169-.928-.506-1.201-.332-.279-.847-.418-1.545-.418-.127 0-.264.008-.41.022-.142.015-.283.034-.425.059-.137.024-.269.051-.396.08-.127.025-.236.052-.329.081l-.901-.483.403-5.457h5.654v1.919h-3.691l-.176 2.102c.156-.034.337-.068.542-.102.21-.035.478-.052.806-.052zm-16.75-9.708c0-.513.027-1.023.081-1.531.058-.508.158-.993.3-1.457.146-.469.342-.904.586-1.304.249-.4.561-.747.937-1.04.381-.298.835-.53 1.363-.696.532-.171 1.152-.256 1.86-.256.103 0 .215.002.337.007s.244.012.366.022c.127.005.249.015.366.029.118.015.222.032.315.052v1.809c-.185-.044-.383-.078-.593-.103-.205-.029-.413-.044-.623-.044-.659 0-1.201.083-1.626.249-.424.161-.761.389-1.01.681-.249.293-.427.645-.535 1.055-.102.41-.166.864-.19 1.362h.088c.097-.175.214-.339.351-.49.142-.157.305-.288.491-.396.185-.112.393-.2.622-.263.235-.064.496-.096.784-.096.464 0 .881.076 1.252.227.372.152.684.372.938.66.259.288.457.642.593 1.062.137.42.205.9.205 1.443 0 .581-.083 1.101-.249 1.56-.161.459-.393.849-.696 1.172-.302.317-.668.561-1.098.732-.429.167-.912.25-1.449.25-.527 0-1.021-.093-1.48-.278-.459-.191-.859-.479-1.201-.865-.337-.385-.603-.871-.798-1.457-.191-.591-.286-1.289-.286-2.095zm3.721 2.886c.2 0 .381-.037.542-.11.166-.078.307-.193.424-.344.123-.157.215-.352.279-.586.068-.235.102-.513.102-.835 0-.523-.11-.933-.329-1.231-.215-.303-.545-.455-.989-.455-.225 0-.43.044-.615.132-.186.088-.345.203-.477.344-.131.142-.234.301-.307.476-.069.176-.103.354-.103.535 0 .249.03.498.088.747.064.244.156.466.279.667.126.195.28.354.461.476.185.122.4.183.644.183z" fill="#fff"/>
 </g>
</svg>
