<svg clip-rule="evenodd" fill-rule="evenodd" stroke-linejoin="round" stroke-miterlimit="2" viewBox="0 0 48 48" xmlns="http://www.w3.org/2000/svg" xmlns:xlink="http://www.w3.org/1999/xlink">
 <linearGradient id="a" x2="1" gradientTransform="matrix(0 -42.2364 42.1981 0 14.5646 44.3387)" gradientUnits="userSpaceOnUse">
  <stop stop-color="#5db369" offset="0"/>
  <stop stop-color="#53f086" offset="1"/>
 </linearGradient>
 <linearGradient id="b">
  <stop stop-color="#f6fbff" offset="0"/>
  <stop stop-color="#eaeff2" offset="1"/>
 </linearGradient>
 <linearGradient id="c" x2="1" gradientTransform="matrix(.79491 41.4949 -41.4949 .79491 44.2716 4.33297)" gradientUnits="userSpaceOnUse" xlink:href="#b"/>
 <linearGradient id="d" x2="1" gradientTransform="matrix(0 -45.4796 45.7331 0 33.5323 45.9233)" gradientUnits="userSpaceOnUse">
  <stop stop-color="#418a4a" offset="0"/>
  <stop stop-color="#47e47a" offset="1"/>
 </linearGradient>
 <linearGradient id="e" x2="1" gradientTransform="matrix(5.2121 0 0 5.2121 -7.66166 1023.08)" gradientUnits="userSpaceOnUse" xlink:href="#b"/>
 <path d="m6.399 45.363h19.042l-.001-43.099-18.857-.059c-3.166.058-4.486 1.251-4.569 4.417v34.223c.012 2.752 2.216 4.518 4.385 4.518z" fill="url(#a)"/>
 <path d="m42.397 45.363-12.085-.014v-43.099l12.431-.045c2.16.026 3.24 1.708 3.24 3.729v35.526c.094 2.219-1.372 3.855-3.586 3.903z" fill="url(#c)"/>
 <path d="m42.838 43.097c-.04 2.642-1.222 4.026-3.552 4.123l-16.083-1.878v-43.078l16.584-1.555c2.209-.223 3.174.962 3.191 3.337z" fill="url(#d)"/>
 <path d="m27.179 15.226.018 19.08 5.391-.002-.017-19.08zm-15.478 9.902.017 9.174 5.391-.001-.017-9.174zm7.596-4.988.017 14.127 5.391-.002-.017-14.126z" fill="url(#e)"/>
</svg>
