<svg clip-rule="evenodd" fill-rule="evenodd" stroke-linejoin="round" stroke-miterlimit="2" viewBox="0 0 48 48" xmlns="http://www.w3.org/2000/svg">
 <linearGradient id="a" x2="1" gradientTransform="matrix(.955473 -45.3581 45.3581 .955473 22.7282 46.2132)" gradientUnits="userSpaceOnUse">
  <stop stop-color="#109d59" offset="0"/>
  <stop stop-color="#30aa6f" offset="1"/>
 </linearGradient>
 <linearGradient id="b" x2="1" gradientTransform="matrix(-.37681 -46.2945 46.2945 -.37681 24.4733 47.2947)" gradientUnits="userSpaceOnUse">
  <stop stop-color="#cdddf3" offset="0"/>
  <stop stop-color="#fbfdf8" offset="1"/>
 </linearGradient>
 <g fill-rule="nonzero">
  <path d="m22.917.814c-.022.051-.063.049-.102.047-.013-.001-.025 0-.036-.001-.68.061-1.357.138-2.028.265-4.906.93-8.934 3.338-12.052 7.229-2.565 3.2-3.978 6.87-4.283 10.963-.037.492-.055.984-.056 1.474v.064c.002 1.462.164 2.913.486 4.349.323 1.442.805 2.835 1.454 4.167.057.114.113.227.171.34 1.065 2.097 2.435 3.966 4.152 5.58.904.85 1.87 1.618 2.916 2.283 3.204 2.034 6.702 3.1 10.502 3.148.233 0 .297.061.296.299-.011 2.034-.006 4.068-.006 6.102 0 .079.007.158.01.256.066-.027.107-.042.147-.061 3.82-1.795 7.328-4.063 10.455-6.906.622-.566 1.217-1.158 1.79-1.775.245-.264.488-.533.734-.796.38-.406.708-.86 1.066-1.287.413-.493.784-1.017 1.15-1.544.809-1.165 1.531-2.381 2.139-3.666.307-.649.599-1.303.858-1.973.009-.013.02-.024.026-.038.705-1.834 1.157-3.732 1.398-5.679.084-.678.139-1.361.173-2.043.015-.308.023-.616.024-.923v-.067c-.002-1.134-.105-2.263-.31-3.382-.707-3.853-2.394-7.219-5.06-10.091-1.125-1.212-2.385-2.266-3.776-3.161-2.592-1.666-5.415-2.686-8.477-3.048-.373-.044-.751-.039-1.119-.126h-2.642v.001z" fill="url(#a)"/>
  <path d="m14.641 14.387c-.23 0-.421.09-.596.238-.322.274-.356.631-.322 1.014-.001 2.396-.007 4.791-.004 7.187 0 .416.311.786.714.899.134.032.268.04.405.041 1.584 0 3.169.01 4.754.01-.028.117-.054.235-.082.351-.182.741-.594 1.31-1.254 1.703-.359.214-.757.294-1.151.393-.134.034-.234.101-.322.197-.177.195-.089.431-.101.652l-.002 2.254c.101.245.276.395.546.356.35-.052.699-.104 1.041-.197.806-.219 1.518-.616 2.176-1.12.065-.062.13-.127.196-.189 1.268-1.182 1.942-2.639 1.955-4.371.02-2.611.006-5.221.006-7.832 0-.12.009-.243-.039-.358.197-.608-.314-1.229-.93-1.228h-2.955-1.615zm12.39 0c-.176 0-.341.04-.494.136-.393.247-.521.608-.474 1.051.002.023.004.046.004.069-.002 2.366-.005 4.733-.006 7.099-.001.601.407 1.014 1.005 1.024h.319c.053-.001.107 0 .16 0 1.464 0 2.927.01 4.39.01-.116.664-.372 1.251-.878 1.722-.422.393-.934.565-1.477.69-.427.098-.56.244-.561.588 0 .098.004.196.006.295-.004.447-.008.897-.011 1.345.002.251.003.5.006.75.004.357.272.558.627.506.465-.068.92-.175 1.371-.303.017-.01.034-.019.051-.029.029-.008.06-.013.089-.023.053-.027.106-.057.161-.08 2.158-.898 3.621-3.084 3.623-5.42.002-2.616.002-5.231.002-7.846 0-.12.008-.241-.039-.355.197-.609-.314-1.23-.93-1.229h-4.031c-.971 0-1.942-.001-2.913 0z" fill="url(#b)"/>
 </g>
</svg>
