<svg clip-rule="evenodd" fill-rule="evenodd" stroke-linejoin="round" stroke-miterlimit="2" viewBox="0 0 48 48" xmlns="http://www.w3.org/2000/svg">
 <linearGradient id="a" x2="1" gradientTransform="matrix(0 -44.7746 44.7746 0 23.9923 46.3873)" gradientUnits="userSpaceOnUse">
  <stop stop-color="#006a60" offset="0"/>
  <stop stop-color="#119184" offset="1"/>
 </linearGradient>
 <g fill-rule="nonzero">
  <path d="m24 1.613c-10.439 0-19.029 8.59-19.029 19.029s8.59 19.029 19.029 19.029h.004c-.009 1.942-.005 4.6-.004 6.471 0 .076.006.151.011.245.066-.025.109-.041.149-.059 3.854-1.725 6.16-3.906 9.315-6.639.628-.544 1.228-1.114 1.806-1.708.247-.254.493-.512.741-.765.383-.39.715-.826 1.076-1.237.417-.474.792-.978 1.161-1.485.816-1.121 1.545-2.289 2.158-3.524.31-.625.604-1.254.865-1.898.009-.012.021-.022.027-.035.482-1.195.837-2.421 1.097-3.668.405-1.544.615-3.132.623-4.727 0-10.439-8.59-19.029-19.029-19.029z" fill="url(#a)"/>
  <path d="m24 9.448c-6.141 0-11.194 5.053-11.194 11.194s5.053 11.194 11.194 11.194h5.597v-2.239h-5.597c-4.913 0-8.955-4.043-8.955-8.955 0-4.913 4.042-8.955 8.955-8.955s8.955 4.042 8.955 8.955h.031c.029.324.075 1.013-.088 1.784-.104.491-.29.912-.522 1.163-.233.251-.482.411-1.1.411s-.868-.16-1.1-.411-.419-.672-.522-1.163c-.08-.378-.101-.756-.105-1.098.03-.227.046-.456.048-.686-.003-.085-.007-.171-.013-.256 0-.001.002-.03.002-.03h-.004c-.152-2.956-2.623-5.307-5.582-5.311-3.07 0-5.597 2.527-5.597 5.597s2.527 5.597 5.597 5.597c1.54-.002 3.013-.639 4.069-1.76.131.218.281.432.465.632.622.672 1.601 1.128 2.742 1.128 1.14 0 2.119-.456 2.741-1.128.623-.673.915-1.483 1.072-2.224.312-1.481.094-2.855.094-2.855l-.02.002c-.321-5.897-5.257-10.578-11.163-10.586zm0 7.836c1.732.001 3.194 1.343 3.343 3.069-.022.186-.038.39-.037.86-.277 1.602-1.68 2.785-3.306 2.787-1.842 0-3.358-1.516-3.358-3.358s1.516-3.358 3.358-3.358z" fill="#fff"/>
 </g>
</svg>
