<svg width="48" height="48" xmlns="http://www.w3.org/2000/svg">
 <circle cx="24" cy="25" r="20" opacity=".2"/>
 <circle cx="24" cy="24" r="20" fill="#d2d2d2"/>
 <path d="m24.296875 11c-5.489796 0-10.378308 3.159766-12.755859 7.759766l3.33789 2.259765-3.347656-2.259765c-.969388 1.88-1.53125 4.000234-1.53125 6.240234 0 2.32.592435 4.499922 1.623047 6.419922l4.939453-3.476563a8 8 0 0 1 -.5625-2.943359 8 8 0 0 1 .537109-2.859375 8 8 0 0 1 7.462891-5.140625 8 8 0 0 1 5.5 2.203125l4.183594-4.453125c-2.428572-2.32-5.713249-3.75-9.386719-3.75zm-.296875 11v6h7.408203c-.589832 1.456204-1.597432 2.703639-2.892578 3.591797a8 8 0 0 1 -4.515625 1.408203 8 8 0 0 1 -7.433594-5.050781l-4.933594 3.470703c2.408166 4.5 7.245696 7.580078 12.664063 7.580078 3.591837 0 6.804289-1.350078 9.222656-3.580078 2.765307-2.56 4.480469-6.289922 4.480469-10.419922 0-.671975-.05963-1.323401-.148438-1.966797l.01172-.08008-.164063-.953123h-2.345703z" opacity=".1"/>
 <path d="m24 4a20 20 0 0 0 -20 20 20 20 0 0 0 .0215.582 20 20 0 0 1 19.9785-19.582 20 20 0 0 1 19.979 19.418 20 20 0 0 0 .021-.418 20 20 0 0 0 -20-20z" fill="#fff" opacity=".2"/>
 <path d="m24 21v6h7.408203c-.595784 1.470898-1.615579 2.731365-2.929687 3.621094l5.041015 3.798828c2.765307-2.56 4.480469-6.289922 4.480469-10.419922 0-.671975-.05963-1.323401-.148438-1.966797l.01172-.08008-.164063-.953123h-2.345703z" fill="#3779d7"/>
 <path d="m24.296875 10c-5.489796 0-10.378308 3.159766-12.755859 7.759766l4.996093 3.380859a8 8 0 0 1 7.462891-5.140625 8 8 0 0 1 5.5 2.203125l4.183594-4.453125c-2.428572-2.32-5.713249-3.75-9.386719-3.75z" fill="#e7453c"/>
 <path d="m11.53125 17.759766c-.969388 1.88-1.53125 4.000234-1.53125 6.240234 0 2.32.592435 4.499922 1.623047 6.419922l4.939453-3.476563a8 8 0 0 1 -.5625-2.943359 8 8 0 0 1 .537109-2.859375l-1.658203-1.121094z" fill="#eead33"/>
 <path d="m16.566406 26.949219-4.933594 3.470703c2.408165 4.5 7.245696 7.580078 12.664063 7.580078 3.591837 0 6.804289-1.350078 9.222656-3.580078l-4.988281-3.837891a8 8 0 0 1-4.53125 1.417969 8 8 0 0 1-7.433594-5.050781z" fill="#359950"/>
</svg>
