<svg clip-rule="evenodd" fill-rule="evenodd" stroke-linejoin="round" stroke-miterlimit="2" viewBox="0 0 48 48" xmlns="http://www.w3.org/2000/svg">
 <linearGradient id="a" x2="1" gradientTransform="matrix(-.0939125 -30.4222 30.4222 -.0939125 10.572 42.9268)" gradientUnits="userSpaceOnUse">
  <stop stop-color="#0f9d58" offset="0"/>
  <stop stop-color="#00d455" offset="1"/>
 </linearGradient>
 <linearGradient id="b" x2="1" gradientTransform="matrix(0 -32.6789 32.6789 0 37.5227 46.3104)" gradientUnits="userSpaceOnUse">
  <stop stop-color="#ffcd40" offset="0"/>
  <stop stop-color="#fee145" offset="1"/>
 </linearGradient>
 <linearGradient id="c" x2="1" gradientTransform="matrix(0 -18.0298 18.0298 0 22.8735 19.2658)" gradientUnits="userSpaceOnUse">
  <stop stop-color="#db4437" offset="0"/>
  <stop stop-color="#fd5757" offset="1"/>
 </linearGradient>
 <linearGradient id="d" x2="1" gradientTransform="matrix(0 -19.7146 19.7146 0 24.0454 33.2854)" gradientUnits="userSpaceOnUse">
  <stop stop-color="#f2f6f7" offset="0"/>
  <stop stop-color="#ecf0f1" offset="1"/>
 </linearGradient>
 <linearGradient id="e" x2="1" gradientTransform="matrix(0 -16.1301 16.1301 0 24.0454 32.0731)" gradientUnits="userSpaceOnUse">
  <stop stop-color="#2566d3" offset="0"/>
  <stop stop-color="#429aff" offset="1"/>
 </linearGradient>
 <path d="m5.975 10.251c-2.822 3.764-4.512 8.505-4.512 13.593 0 12.485 10.052 22.466 22.537 22.466l7.888-16.156-14.649-3z" fill="url(#a)"/>
 <path d="m25.127 13.631 6.761 16.453-7.888 16.226c12.486 0 22.538-10.051 22.538-22.537 0-3.657-.882-7.094-2.415-10.142z" fill="url(#b)"/>
 <path d="m23.996 1.236c-7.398 0-13.921 3.546-18.025 9.019l11.264 16.899 14.649 2.93-6.761-16.453h18.996c-3.702-7.358-11.294-12.395-20.123-12.395z" fill="url(#c)"/>
 <g fill-rule="nonzero">
  <path d="m24.045 13.571c5.783 0 10.438 4.655 10.438 10.437s-4.655 10.437-10.438 10.437c-5.782 0-10.437-4.655-10.437-10.437s4.655-10.437 10.437-10.437z" fill="url(#d)"/>
  <path d="m24.045 15.943c4.468 0 8.065 3.597 8.065 8.065s-3.597 8.065-8.065 8.065-8.065-3.597-8.065-8.065 3.597-8.065 8.065-8.065z" fill="url(#e)"/>
 </g>
</svg>
