<svg clip-rule="evenodd" fill-rule="evenodd" stroke-linejoin="round" stroke-miterlimit="2" viewBox="0 0 48 48" xmlns="http://www.w3.org/2000/svg">
 <linearGradient id="a" x2="1" gradientTransform="matrix(0 -39.9241 39.9241 0 24 43.9305)" gradientUnits="userSpaceOnUse">
  <stop stop-color="#0a7a00" offset="0"/>
  <stop stop-color="#48a040" offset="1"/>
 </linearGradient>
 <path d="m25 44c22 0 20-20 20-20s-3-20-20-20-22 19-22 19-2 21 22 21z" fill="url(#a)" fill-rule="nonzero"/>
 <path d="m10 28c10 0 10-10 10-10s2-10-8-10c-9 0-10 10-10 10s0 10 8 10z" fill="#efefef" fill-rule="nonzero"/>
 <circle cx="9" cy="17" r="2" fill="#4f4f4f"/>
 <path d="m39 25c-8 0-8-8-8-8s0-8 8-8c6 0 7 8 7 8s1 8-7 8z" fill="#efefef" fill-rule="nonzero"/>
 <circle cx="41" cy="17" r="2" fill="#4f4f4f"/>
 <circle cx="34" cy="35" r="11" fill="#cca955"/>
 <path d="m32.488 28.999-.133 1.58c-.506.186-.976.455-1.391.797l-1.449-.676-1.513 2.598 1.315.906c-.046.262-.071.528-.072.795 0 .268.023.535.069.799l-1.314.903 1.514 2.598 1.445-.675c.416.34.887.608 1.393.792l.133 1.584h3.027l.134-1.58c.505-.186.976-.455 1.39-.797l1.449.676 1.514-2.598-1.316-.906c.047-.262.071-.528.073-.795-.001-.268-.024-.535-.07-.798l1.313-.901-1.513-2.599-1.446.675c-.416-.34-.887-.608-1.393-.792l-.134-1.584h-3.027zm1.513 2.778c1.784 0 3.251 1.455 3.251 3.222s-1.467 3.222-3.251 3.222c-1.783 0-3.25-1.455-3.25-3.222s1.467-3.222 3.25-3.222z" fill="#ffffff" fill-rule="nonzero"/>
</svg>
