<svg clip-rule="evenodd" fill-rule="evenodd" stroke-linejoin="round" stroke-miterlimit="2" viewBox="0 0 48 48" xmlns="http://www.w3.org/2000/svg">
 <linearGradient id="a" x2="1" gradientTransform="matrix(-.476427 -44.666 44.666 -.476427 164.205 43.9154)" gradientUnits="userSpaceOnUse">
  <stop stop-color="#4a771c" offset="0"/>
  <stop stop-color="#66a02c" offset="1"/>
 </linearGradient>
 <linearGradient id="b" x2="1" gradientTransform="matrix(-.476427 -44.666 44.666 -.476427 446.34 44.0547)" gradientUnits="userSpaceOnUse">
  <stop stop-color="#6b9f29" offset="0"/>
  <stop stop-color="#7ebc2e" offset="1"/>
 </linearGradient>
 <path transform="matrix(-1 0 0 1 47.922 0)" d="m39.473 5.827c0-2.783-2.256-5.04-5.039-5.04h-25.84c-2.783 0-5.039 2.257-5.039 5.04v33.035c0 2.783 2.256 5.04 5.039 5.04h25.84c2.783 0 5.039-2.257 5.039-5.04z" fill="url(#a)"/>
 <path transform="matrix(-1 0 0 1 47.922 0)" d="m44.367 8.923c0-2.783-2.256-5.04-5.039-5.04h-25.841c-2.783 0-5.039 2.257-5.039 5.04v33.036c0 2.783 2.256 5.04 5.039 5.04h25.841c2.783 0 5.039-2.257 5.039-5.04z" fill="url(#b)"/>
 <path transform="matrix(1.31242 0 0 1.31242 -5.68779 -5.66808)" d="m20.295 13.342s.281.003.279.003c0 0 .051 0 .048 0 .332-.005.597.154.794.381.263.303.397.728.423.949.059.554-.192 1.493-.192 1.493l-.492-.066c0-.33.02-.863-.187-1.322-.144-.316-.282-.557-.416-.709-.014-.017-.028-.032-.041-.046-.028.059-.049.139-.062.244l-.003.014c-.074.406-.097.919-.097 1.182 0 .734.112 1.647.332 2.62.161-.625.489-1.909.489-1.909l.492.073s-.127 2.587-.301 3.371c-.032.141-.066.28-.102.422.606 1.659 1.566 3.138 2.711 4.207.434.405.977.735 1.499 1.036 1.203-.169 2.312-.248 3.24-.238.774.01 1.425.085 1.904.223.358.103.627.245.798.414.226.221.324.487.352.791l.001.004c.006.112-.044.376-.06.442l-.362-.08.359.175s-.135.568-.225.711l-.011.015c-.13.176-.385.365-.627.429-.424.113-1.121.085-1.957-.088-1.18-.244-2.653-.77-4.015-1.537-2.458.368-5.143 1.031-7.316 1.739-1.315 2.295-2.444 3.843-3.422 4.578-.743.558-1.418.67-2.031.363l-.504-.253c-.29-.166-.372-.558-.304-.887.163-.799 1.14-2.025 3.151-3.225.209-.127 1.141-.619 1.141-.619l.195.269c.619-1.022 1.285-2.231 1.996-3.623.606-1.187 1.295-2.525 1.846-3.869l.187-.455c-.725-2.77-1.139-4.996-.747-6.441.131-.469.656-.781 1.237-.781zm-4.855 15.713c-.175.166-.354.333-.426.391-1.046.857-1.902 1.868-2.311 2.602-.073.132-.133.251-.174.358.403-.187.857-.595 1.374-1.203.471-.554.984-1.271 1.537-2.148zm15.81-2.235-.034-.007c-.001.005-.002.028-.002.028s-.02-.04-.048-.069c-.108-.114-.331-.246-.769-.386-.624-.199-1.69-.226-2.994-.13.9.383 1.752.654 2.431.785.534.104.95.131 1.171.027.053-.026.108-.087.153-.137.042-.046.075-.088.092-.111zm-10.703-4.641c-.379.978-.841 2.036-1.536 3.348-.295.557-.586 1.086-.864 1.585 1.733-.664 3.554-1.131 5.32-1.481-.13-.099-.258-.201-.381-.306-1.059-.896-1.898-1.986-2.539-3.146z" fill="#fff" fill-rule="nonzero"/>
 <circle cx="36.833736" cy="37.676256" r="9.322731" fill="#ffa93e" stroke-width=".847521"/>
 <path transform="matrix(.847521 0 0 .847521 6.32298 7.1655)" d="m30 39.327v2.673h2.673l6.751-6.751-2.673-2.673zm11.788-6.434c.283-.282.283-.728 0-1.011l-1.67-1.67c-.283-.283-.729-.283-1.011 0l-1.397 1.405 2.673 2.673z" fill="#fff" fill-rule="nonzero"/>
</svg>
