<svg clip-rule="evenodd" fill-rule="evenodd" stroke-linejoin="round" stroke-miterlimit="2" viewBox="0 0 48 48" xmlns="http://www.w3.org/2000/svg">
 <linearGradient id="a" x2="1" gradientTransform="matrix(0 -40.7461 40.7461 0 24 1049.11)" gradientUnits="userSpaceOnUse">
  <stop stop-color="#0045b3" offset="0"/>
  <stop stop-color="#005aeb" offset="1"/>
 </linearGradient>
 <linearGradient id="b" x2="1" gradientTransform="matrix(0 -40 40 0 24 1048.36)" gradientUnits="userSpaceOnUse">
  <stop stop-color="#0fa0ab" offset="0"/>
  <stop stop-color="#00d5e6" offset="1"/>
 </linearGradient>
 <path transform="matrix(1.09082 0 0 1.09082 -2.17965 -1097.76)" d="m10.065 1028.36-5.532 5.53c-.341.35-.533.81-.533 1.29v11.36c0 1.01.814 1.82 1.818 1.82h11.364c.482 0 .944-.19 1.285-.53l5.533-5.53 13.935-13.94 5.532-5.53c.342-.34.533-.8.533-1.29v-11.36c0-1-.814-1.82-1.818-1.82h-11.364c-.482 0-.944.19-1.285.53l-5.533 5.54z" fill="url(#a)" fill-rule="nonzero"/>
 <path transform="matrix(1.09082 0 0 1.09082 -2.17965 -1097.76)" d="m37.935 1028.36 5.532 5.53c.341.35.533.81.533 1.29v11.36c0 1.01-.814 1.82-1.818 1.82h-11.364c-.482 0-.944-.19-1.285-.53l-5.533-5.53-13.935-13.94-5.532-5.53c-.342-.34-.533-.8-.533-1.29v-11.36c0-1 .814-1.82 1.818-1.82h11.364c.482 0 .944.19 1.285.53l5.533 5.54z" fill="url(#b)" fill-rule="nonzero"/>
 <path transform="matrix(1.09082 0 0 1.09082 -2.17965 -2.17965)" d="m31.04 27c-1.036 0-2.072.392-2.859 1.18-1.575 1.574-1.575 4.145 0 5.719l.428.43 1.67-1.668-.43-.43c-.663-.663-.663-1.718 0-2.381s1.718-.663 2.381 0c.274.275.425.61.469.963v7.605l1.582 1.582 5.719-5.72-1.668-1.668-3.28 3.278c-.003-1.753.006-3.507 0-5.27v-.035l-.004-.035c-.104-.862-.484-1.706-1.148-2.37-.787-.787-1.823-1.18-2.86-1.18zm2.249-18.562v.001c-.08.003-.156.036-.213.092l-.844.844c-.058.058-.091.138-.091.221v4.843h-4.844c-.083.001-.162.034-.221.092l-3.123 3.123c-.121.121-.121.321 0 .442l5.18 5.181-.758.758-3.379-3.381c-1.114-1.113-2.929-1.113-4.043 0-1.114 1.114-1.114 2.93 0 4.043l3.379 3.381-1.332 1.332-2.654-.281c.827-1.118.859-2.662-.153-3.674-1.113-1.114-2.927-1.114-4.041 0l-5.402 5.402c-1.777 1.777-1.777 4.667 0 6.444 1.777 1.776 4.667 1.776 6.443 0 .865-.865 1.204-1.999 1.227-3.133l.732.732c.122.121.321.121.442 0l.599-.601c.121-.121.121-.32 0-.442l-3-3c-.121-.12-.32-.12-.441 0l-1.801 1.801c-.121.121-.121.32 0 .442l.6.599c.058.059.138.092.221.092.084 0 .163-.033.222-.092l.731-.73c.437 1.107.326 2.391-.573 3.289-1.206 1.206-3.153 1.206-4.359 0s-1.206-3.153 0-4.36l5.4-5.4c.544-.543 1.416-.543 1.959 0 .544.544.544 1.416 0 1.959l-1.201 1.199c-.059.059-.092.139-.092.222s.033.163.092.222l3.002 3c.121.12.32.12.442 0l.599-.6c.059-.059.092-.138.092-.222 0-.083-.033-.163-.092-.221l-1.42-1.42 2.826.293c.094.009.188-.025.254-.092l2.541-2.541c.059-.059.093-.139.093-.222s-.034-.163-.093-.221l-2.179-2.178 1.959-1.959 2.179 2.179c.121.121.321.121.442 0l2.4-2.4c.059-.059.092-.138.092-.222 0-.083-.033-.163-.092-.221l-2.18-2.18 1.58-1.578c.121-.121.121-.32 0-.441l-.599-.602c-.059-.059-.139-.092-.222-.092s-.163.033-.221.092l-1.579 1.58-1.959-1.959 1.967-1.967h4.358v5.691c0 .172.141.313.312.313.084 0 .164-.034.223-.094l.844-.843c.058-.059.091-.138.091-.221v-4.846h4.844c.083.001.162-.032.221-.09l.844-.843c.059-.059.093-.139.093-.223 0-.171-.141-.313-.313-.313l-5.689.001v-5.688c0-.172-.141-.313-.312-.313-.003 0-.007 0-.01.001zm-10.314 12.851c.353 0 .706.137.978.408l.979.979-1.959 1.959-.979-.979c-.543-.543-.543-1.415 0-1.959.272-.271.627-.408.981-.408z" fill="#fff"/>
</svg>
