<svg clip-rule="evenodd" fill-rule="evenodd" stroke-linejoin="round" stroke-miterlimit="2" viewBox="0 0 48 48" xmlns="http://www.w3.org/2000/svg">
 <linearGradient id="a" x2="1" gradientTransform="matrix(0 -36.2165 36.2165 0 275.714 42.119)" gradientUnits="userSpaceOnUse">
  <stop stop-color="#313738" offset="0"/>
  <stop stop-color="#535552" offset="1"/>
 </linearGradient>
 <path d="m39.44 2.332c3.438 0 6.228 2.79 6.228 6.228v30.88c0 3.438-2.79 6.228-6.228 6.228h-30.88c-3.438 0-6.228-2.79-6.228-6.228v-30.88c0-3.438 2.79-6.228 6.228-6.228z" fill="url(#a)"/>
 <path d="m2.332 9.588v-1.028c0-3.438 2.79-6.228 6.228-6.228h30.88c3.438 0 6.228 2.79 6.228 6.228v1.028z" fill="#ebebeb" fill-opacity=".1"/>
 <path d="m45.668 38.412v1.028c0 3.438-2.79 6.228-6.228 6.228h-30.88c-3.438 0-6.228-2.79-6.228-6.228v-1.028z" fill-opacity=".2"/>
 <path d="m33.317 7.335h-.105c-.099 0-.178-.081-.178-.18v-.302c-.426-.107-.548-.36-.548-.879 0-.766.622-1.389 1.388-1.389s1.388.623 1.388 1.389c0 .511-.129.763-.546.874v.306c0 .1-.081.18-.18.18h-.104c-.099 0-.18-.08-.18-.18v-.24c-.047.003-.095.005-.146.006v.235c0 .099-.08.179-.179.179h-.104c-.1 0-.18-.08-.18-.179v-.234c-.051-.001-.1-.003-.147-.006v.24c0 .099-.08.18-.179.18zm-.018-1.926c.235.092.426.185.426.414 0 .227-.154.271-.426.412-.209.109-.427-.185-.427-.412 0-.229.207-.499.427-.414zm1.145 0c.227-.064.426.185.426.414 0 .227-.224.533-.426.412-.248-.147-.426-.185-.426-.412 0-.229.166-.34.426-.414z" fill="#ededed" fill-opacity=".5"/>
 <g fill="#fff">
  <path d="m40.535 5.039.418.442.661-.626.528.557-.66.626.418.442c.143.15.141.383-.003.518-.144.137-.376.126-.517-.024l-.42-.442-.662.628-.529-.557.664-.596-.419-.475c-.143-.15-.14-.382.003-.518.144-.136.376-.125.518.025z" fill-opacity=".5"/>
  <path d="m37.201 4.892.004-.169.607.016-.006.169.328.009c.314.009.563.272.554.586l-.031 1.139c-.008.315-.27.564-.585.555l-1.26-.034c-.315-.008-.563-.271-.554-.585l.03-1.14c.008-.315.271-.563.586-.555zm-.182.496c.163.004.292.141.287.304-.003.163-.14.292-.303.288s-.293-.141-.288-.304c.004-.163.141-.292.304-.288zm1.009.027c.163.005.293.14.288.304-.004.164-.14.293-.304.288-.163-.004-.292-.14-.288-.304.005-.163.141-.292.304-.288z" fill-opacity=".5"/>
  <path d="m27.373 13.729c-.054-.051-.116-.076-.186-.076s-.131.025-.185.076l-.403.384c-.054.051-.08.11-.08.176 0 .067.026.125.08.177l3.167 3.013-3.167 3.013c-.054.051-.08.11-.08.176 0 .067.026.125.08.177l.403.383c.054.051.115.076.185.076s.132-.025.186-.076l3.755-3.573c.053-.051.08-.11.08-.176 0-.067-.027-.126-.08-.177z" fill-rule="nonzero"/>
  <path d="m14.339 19.257c-.12 1.029-.501 1.825-1.143 2.386-.637.557-1.486.836-2.547.836-1.149 0-2.072-.413-2.767-1.237-.691-.824-1.036-1.927-1.036-3.309v-.936c0-.904.16-1.7.481-2.386.325-.686.784-1.212 1.377-1.578.593-.369 1.279-.554 2.059-.554 1.034 0 1.863.289 2.487.869.623.574.987 1.372 1.089 2.393h-1.29c-.111-.776-.354-1.337-.729-1.685-.369-.347-.889-.521-1.557-.521-.82 0-1.464.303-1.932.909-.463.606-.695 1.468-.695 2.587v.942c0 1.056.22 1.896.662 2.52.441.624 1.058.936 1.851.936.713 0 1.259-.16 1.638-.481.383-.325.637-.889.762-1.691z" fill-rule="nonzero"/>
  <path d="m20.068 19.604h-1.765l-.535 2.741h-.956l.535-2.741h-1.597v-.916h1.771l.461-2.366h-1.724v-.929h1.905l.548-2.781h.956l-.548 2.781h1.764l.548-2.781h.963l-.548 2.781h1.363v.929h-1.544l-.461 2.366h1.504v.916h-1.678l-.534 2.741h-.963zm-1.591-.916h1.765l.461-2.366h-1.765z" fill-rule="nonzero"/>
 </g>
</svg>
