<svg clip-rule="evenodd" fill-rule="evenodd" stroke-linejoin="round" stroke-miterlimit="2" viewBox="0 0 48 48" xmlns="http://www.w3.org/2000/svg">
 <linearGradient id="a" x2="1" gradientTransform="matrix(.513228 -45.5223 45.5223 .513228 24.0011 46.764)" gradientUnits="userSpaceOnUse">
  <stop stop-color="#293186" offset="0"/>
  <stop stop-color="#473fd9" offset="1"/>
 </linearGradient>
 <linearGradient id="b" x2="1" gradientTransform="matrix(-.459756 -36.4544 36.4544 -.459756 24 42.2489)" gradientUnits="userSpaceOnUse">
  <stop stop-color="#7faca2" offset="0"/>
  <stop stop-color="#78ffb8" offset="1"/>
 </linearGradient>
 <circle cx="24" cy="24" r="22.764" fill="url(#a)"/>
 <circle cx="24" cy="24" r="18.211" fill="url(#b)"/>
 <g fill-rule="nonzero">
  <path d="m15.365 31.352-1.769.691-1.466-1.201.304-1.892 1.769-.69 1.466 1.201z" fill="#5952d2"/>
  <path d="m18.728 18.929-.615 6.415-5.863 2.675-5.248-3.74.615-6.415 5.862-2.675z" fill="#f99e00"/>
  <path d="m37.484 29.092-3.44 2.469-3.859-1.744-.418-4.214 3.44-2.47 3.859 1.745z" fill="#ea6f2a"/>
  <path d="m17.08 8.065c-.58 0-1.047.468-1.047 1.047v29.776c0 .579.467 1.047 1.047 1.047h13.84c.58 0 1.047-.468 1.047-1.047v-29.776c0-.579-.467-1.047-1.047-1.047z" fill="#3f3f3f"/>
 </g>
 <path d="m17.171 12.618h13.658v25.04h-13.658z" fill="#bb0eff"/>
 <path d="m40.175 21.898-3.023 2.17-3.391-1.533-.368-3.703 3.023-2.171 3.391 1.533z" fill="#0478f5" fill-rule="nonzero"/>
 <path d="m40.826 26.189-1.371.997-1.538-.704-.167-1.702 1.371-.998 1.538.705z" fill="#00c75f" fill-rule="nonzero"/>
 <path d="m11.444 31.198-2.195.934-1.885-1.451.308-2.386 2.195-.934 1.885 1.451z" fill="#569100" fill-rule="nonzero"/>
 <path d="m28.282 29.258c-.057 0-.077.006-.116.037-.066.053-.074.061-.205.309-.182.347-.241.46-.329.623-.044.083-.221.415-.391.738-.173.328-.315.587-.324.587-.014 0-.062-.023-.227-.107-.065-.033-.442-.179-.576-.222-.197-.065-.29-.093-.444-.131-.093-.024-.204-.052-.247-.063s-.09-.022-.107-.024c-.075-.01-.301-.046-.356-.058-.056-.012-.192-.028-.438-.049-.133-.011-.911-.011-1.042 0-.056.005-.141.014-.187.018s-.124.012-.173.02c-.05.008-.111.018-.134.02-.133.014-.487.088-.738.156-.242.064-.644.206-.84.295-.066.03-.139.062-.162.071-.023.01-.064.029-.091.045-.028.016-.061.029-.072.026-.011-.002-.11-.176-.226-.397-.206-.391-.344-.655-.549-1.043-.06-.112-.171-.321-.247-.465-.188-.356-.222-.394-.356-.384-.087.006-.15.05-.187.129-.05.106-.045.173.027.306.045.084.18.337.64 1.208.035.064.112.211.174.326.292.551.289.545.275.563-.007.009-.084.064-.171.12-.164.105-.441.303-.567.404-.039.033-.099.082-.133.109-.294.236-.806.772-1.056 1.11-.026.035-.073.099-.105.142-.148.2-.398.594-.489.771-.02.04-.056.106-.08.149-.198.368-.441.972-.555 1.383-.022.076-.043.153-.049.171-.028.082-.116.47-.156.694-.015.083-.026.192-.04.298.107.268.353.452.649.493.101.017.166.022 6.118.022 4.87 0 5.78-.003 6.078-.013.318-.028.581-.226.691-.511-.01-.082-.021-.183-.029-.223-.006-.032-.027-.141-.046-.242-.182-.924-.55-1.853-1.036-2.61-.153-.237-.193-.294-.28-.411-.04-.053-.086-.116-.105-.142-.155-.219-.582-.678-.862-.927-.173-.154-.197-.174-.358-.305-.106-.085-.426-.31-.561-.393-.06-.038-.116-.077-.124-.087-.011-.015.038-.116.253-.52.147-.276.279-.527.294-.556.014-.029.056-.107.091-.173.502-.941.507-.951.507-1.032 0-.142-.102-.255-.231-.255zm-7.425 5.039c.128 0 .213.025.313.096.107.076.181.179.229.322.034.102.031.319-.007.414-.074.188-.222.336-.375.38v.002c-.089.025-.248.023-.325-.002-.131-.044-.26-.155-.327-.28-.15-.284-.073-.651.176-.834.096-.071.186-.098.316-.098zm6.109.022c.082-.032.276-.032.357 0 .091.036.154.08.227.163.173.194.213.444.114.68-.024.057-.064.127-.087.158-.053.07-.168.157-.249.184-.09.031-.263.033-.345.005-.258-.089-.423-.348-.404-.636.016-.262.157-.463.387-.554z" fill="#5be19b" fill-rule="nonzero"/>
</svg>
