<svg clip-rule="evenodd" fill-rule="evenodd" stroke-linejoin="round" stroke-miterlimit="2" viewBox="0 0 48 48" xmlns="http://www.w3.org/2000/svg">
 <linearGradient id="a" x2="1" gradientTransform="matrix(0 -39.9417 39.9417 0 25.4028 43.9879)" gradientUnits="userSpaceOnUse">
  <stop stop-color="#192848" offset="0"/>
  <stop stop-color="#183269" offset="1"/>
 </linearGradient>
 <g transform="matrix(1.10927 0 0 1.10927 -3.2011 -3.2011)" fill-rule="nonzero">
  <path d="m24 4c-2.714 0-5 2.286-5 5v1.066c-4.187 1.516-7.415 4.747-8.93 8.934h-1.07c-2.714 0-5 2.286-5 5 0 7.693 4.111 13.084 8 16 3.856 2.892 7.782 3.85 7.789 3.852 1.294.323 2.911.065 4.029-.7.833-.569 1.327-1.328 1.676-2.125.399.904 1.012 1.751 2.016 2.328 1.172.675 2.8.808 4.064.389.013-.004 4.025-1.273 7.461-4.709 3.407-3.406 4.665-7.336 4.692-7.418.346-1.006.228-2.011-.071-2.965.192-.524.344-1.07.344-1.652 0-.529-.153-1.018-.312-1.5.159-.482.312-.971.312-1.5 0-.543-.152-1.047-.32-1.541.262-.889.381-1.826.172-2.668-.001-.004-.959-3.934-3.852-7.791-2.916-3.889-8.307-8-16-8z" fill="url(#a)"/>
  <path d="m24 8c-.549 0-1 .451-1 1v4.051c-5.259.484-9.463 4.69-9.945 9.949h-4.055c-.549 0-1 .451-1 1 0 6.333 3.23 10.423 6.4 12.801 3.171 2.378 6.358 3.17 6.358 3.17.079.02.161.03.242.03.549 0 1.001-.452 1.001-1.001 0-.458-.315-.86-.759-.971 0 0-2.813-.708-5.642-2.83-2.646-1.984-5.149-5.172-5.475-10.199h2.926c.514 5.633 5.293 9.997 10.949 10 6.034 0 11-4.966 11-11-.005-5.655-4.369-10.431-10-10.945v-2.93c5.027.326 8.215 2.829 10.199 5.475 2.122 2.829 2.83 5.642 2.83 5.642.111.444.513.759.971.759.549 0 1.001-.452 1.001-1.001 0-.081-.01-.163-.03-.242 0 0-.792-3.187-3.17-6.358-2.378-3.17-6.468-6.4-12.801-6.4zm0 9c3.84 0 7 3.16 7 7s-3.16 7-7 7-7-3.16-7-7 3.16-7 7-7zm0 1c-3.292 0-6 2.708-6 6s2.708 6 6 6 6-2.708 6-6-2.708-6-6-6zm0 2c2.194 0 4 1.806 4 4s-1.806 4-4 4-4-1.806-4-4 1.806-4 4-4zm0 1c-1.646 0-3 1.354-3 3s1.354 3 3 3 3-1.354 3-3-1.354-3-3-3zm0 1c1.097 0 2 .903 2 2s-.903 2-2 2-2-.903-2-2 .903-2 2-2zm15 1c-.549 0-1 .451-1 1s.451 1 1 1 1-.451 1-1-.451-1-1-1zm0 3c-.549 0-1 .451-1 1s.451 1 1 1 1-.451 1-1-.451-1-1-1zm.012 2.986c-.438-.003-.829.281-.961.698 0 0-.947 2.798-3.258 5.109s-5.109 3.258-5.109 3.258c-.408.136-.685.519-.685.949 0 .549.452 1.001 1.001 1.001.107 0 .214-.018.316-.052 0 0 3.202-1.053 5.891-3.742s3.742-5.891 3.742-5.891c.037-.106.056-.217.056-.33 0-.546-.447-.996-.993-1z" fill="#ef8d03"/>
 </g>
</svg>
