<svg clip-rule="evenodd" fill-rule="evenodd" stroke-linejoin="round" stroke-miterlimit="2" viewBox="0 0 48 48" xmlns="http://www.w3.org/2000/svg">
 <linearGradient id="a" x2="1" gradientTransform="matrix(0 -33.6872 33.6872 0 923.28 40.4502)" gradientUnits="userSpaceOnUse">
  <stop stop-color="#006783" offset="0"/>
  <stop stop-color="#13bee3" offset="1"/>
 </linearGradient>
 <path d="m39.44 45.668h-30.88c-3.438 0-6.228-2.79-6.228-6.228v-30.88c0-3.438 2.79-6.228 6.228-6.228h30.88c3.438 0 6.228 2.79 6.228 6.228v30.88c0 3.438-2.79 6.228-6.228 6.228z" fill="url(#a)"/>
 <path transform="matrix(1.69588 0 0 1.69066 -663.655 -885.046)" d="m409.031 539.849c-.818 0-1.54.391-2.012.991l-4.375-2.247c.057-.214.098-.436.098-.669 0-.254-.049-.493-.117-.726l4.356-2.236c.469.627 1.21 1.037 2.051 1.037 1.425 0 2.577-1.158 2.577-2.587 0-1.428-1.152-2.586-2.577-2.586-1.422 0-2.576 1.158-2.576 2.586 0 .234.042.456.1.672l-4.374 2.246c-.473-.6-1.196-.993-2.016-.993-1.423 0-2.575 1.158-2.575 2.587s1.152 2.586 2.575 2.586c.842 0 1.582-.411 2.054-1.038l4.354 2.236c-.069.232-.118.473-.118.728 0 1.428 1.154 2.586 2.575 2.586 1.425 0 2.577-1.158 2.577-2.586 0-1.43-1.152-2.587-2.577-2.587z" fill="#081417" fill-opacity=".82" fill-rule="nonzero"/>
</svg>
