<svg clip-rule="evenodd" fill-rule="evenodd" stroke-linejoin="round" stroke-miterlimit="2" viewBox="0 0 48 48" xmlns="http://www.w3.org/2000/svg">
 <linearGradient id="a" x2="1" gradientTransform="matrix(0 -43.3373 43.3373 0 201.9 45.6687)" gradientUnits="userSpaceOnUse">
  <stop stop-color="#ea9a6c" offset="0"/>
  <stop stop-color="#ffcaab" offset="1"/>
 </linearGradient>
 <path d="m45.668 8.56c0-3.438-2.79-6.228-6.228-6.228h-30.88c-3.438 0-6.228 2.79-6.228 6.228v30.88c0 3.438 2.79 6.228 6.228 6.228h30.88c3.438 0 6.228-2.79 6.228-6.228z" fill="url(#a)"/>
 <g fill-rule="nonzero">
  <path d="m13.919 31.946c1.384 2.571 11.695 11.146 20.001 8 5.611-2.125 6-4 6-4s2.307-4.056-4-10.001c-2.426-2.286-8-6-8-6l-8.001-4-8-2s-2.697 6.877 0 14c.528 1.395 2 4.001 2 4.001z" fill="#fff"/>
  <path d="m21.701 13.945c-2.895 2.215-4.728 6.025-4.906 10.193l19.701 6.676c.66-1.512 1.066-3.171 1.192-4.878l-9.27-6.954z" fill="#54116e"/>
  <path d="m21.428 23.642c-1.569.002-3.13.166-4.633.487-.014.226-.023.452-.027.678 0 1.279.158 2.55.466 3.772l15.526 7.097c1.567-1.183 2.851-2.851 3.722-4.834-2.514-4.344-8.473-7.195-15.054-7.2z" fill="#6b5ca7"/>
  <path d="m20.263 28.302c-1.022.004-2.039.098-3.031.278 1.351 5.36 5.432 9.042 10.021 9.042 1.954-.007 3.868-.682 5.525-1.948-1.258-4.279-6.498-7.366-12.515-7.372z" fill="#86bdcd"/>
  <path d="m27.253 25.972s1.165-2.33 3.495-2.33 2.33 2.33 2.33 2.33c0 4.66-5.825 6.99-5.825 6.99s-5.825-2.33-5.825-6.99c0 0 0-2.33 2.33-2.33s3.495 2.33 3.495 2.33z" fill="#b8d8e2"/>
  <path d="m6.395 5.527c2.397 2.41 5.154 5.411 5.524 8.418-1.39-1.574-2.107-2.639-3.932-3.091 1.213 1.758.992 9.725 1.877 13.091 1.244 4.733 3.558 7.569 4.798 9.017-1.428-2.363-2.813-6.342-3.073-9.017-.386-3.965-.198-5.093.33-7.286 2.608-.446 8-.714 14.001 3.286 6 4 7.667 5.334 10 8 1.964 2.244 4.624 5.281 4 8.001 1.112-1.012 1.852-5.793-1.07-9.974-3.033-4.341-5.723-7.056-11.597-10.623-7.016-4.26-12.591-8.192-20.858-9.822z" fill="#4f4f4f"/>
 </g>
 <ellipse cx="17.933" cy="22.477" rx="5.825" ry="3.495" fill="#fff"/>
</svg>
