<svg clip-rule="evenodd" fill-rule="evenodd" stroke-linejoin="round" stroke-miterlimit="2" viewBox="0 0 48 48" xmlns="http://www.w3.org/2000/svg">
 <linearGradient id="a" x2="1" gradientTransform="matrix(0 -38.7245 38.7245 0 24 43.3644)" gradientUnits="userSpaceOnUse">
  <stop stop-color="#b62c00" offset="0"/>
  <stop stop-color="#ff7814" offset="1"/>
 </linearGradient>
 <path d="m23.788 4.642c-5.159.049-10.311.356-11.284.901-1.945 1.09-11.119 16.518-11.096 18.661s9.528 17.393 11.496 18.446c1.967 1.053 20.647.901 22.592-.189s11.119-16.518 11.096-18.661-9.528-17.416-11.496-18.469c-.984-.526-6.15-.739-11.308-.689zm1.508 4.297c3.365.014 6.414.196 7.065.554.044.025.107.095.161.139l-8.203 9.237-.363.389-.343-.389-8.543-9.029c.079-.072.166-.149.227-.185.735-.424 4.647-.674 8.545-.712.488-.005.974-.006 1.454-.004zm11.679 6.95c2.097 3.419 4.08 7.078 4.089 7.951.01.947-2.227 5.198-4.43 8.869l-8.066-7.263-.387-.345.364-.342 8.43-8.87zm-26.017.024 7.884 8.846.319.342-.343.322-7.476 7.263c-2.215-3.568-4.396-7.602-4.406-8.524-.009-.892 1.955-4.731 4.022-8.249zm12.998 13.04.317.321 8.976 8.499c-.231.268-.428.469-.569.551-1.47.847-15.576 1.026-17.064.208-.166-.091-.439-.352-.729-.689l8.726-8.569z" fill="url(#a)" fill-rule="nonzero"/>
</svg>
