<svg clip-rule="evenodd" fill-rule="evenodd" stroke-linejoin="round" stroke-miterlimit="2" viewBox="0 0 48 48" xmlns="http://www.w3.org/2000/svg">
 <linearGradient id="a" x2="1" gradientTransform="matrix(0 -33.6872 33.6872 0 923.28 40.4502)" gradientUnits="userSpaceOnUse">
  <stop stop-color="#c9d3d5" offset="0"/>
  <stop stop-color="#ffffff" offset="1"/>
 </linearGradient>
 <path d="m39.44 45.668h-30.88c-3.438 0-6.228-2.79-6.228-6.228v-30.88c0-3.438 2.79-6.228 6.228-6.228h30.88c3.438 0 6.228 2.79 6.228 6.228v30.88c0 3.438-2.79 6.228-6.228 6.228z" fill="url(#a)"/>
 <path transform="matrix(1.0834 0 0 1.0834 -2.0016 -2.0016)" d="m15.877 9.551c-.804 1.699-1.31 3.496-1.354 5.449h-1.523v2.5c0 2.17-.079 2.021.469 1.771 2.032-.926 4.554.878 4.554 3.258 0 1.173-.282 1.739-1.58 3.186-2.228 2.483-2.306 2.971-.914 5.584 1.345 2.522 3.347 4.429 6.344 6.037l2.09 1.119 2.156-1.09c3.041-1.535 6.605-5.52 7.615-8.031l-.531-1.676c.015.046-.19-.381-.474-.795-.032-.046-.082-.1-.116-.148-.392.362-.851 1.159-1.418 2.33-1.287 2.662-3.145 4.615-5.552 5.844l-1.643.748v-19.397c3.037.846 6.248.822 9.283 1.461l.295 1.512c.332.019.676.081 1.004.248.149.07.285.155.418.242v-4.703h-1.523c-.044-1.953-.55-3.75-1.354-5.449l-5.055 4.156.375.57-3.443-.777-3.443.777.375-.57zm17.713 10.629c-.522-.048-.951.237-1.365.478-1.511 1.123-1.447 2.285.234 4.227.792.915 1.557 2.027 1.697 2.47l.256.805.656-.81c1.594-1.968 1.048-6.1-.923-6.998-.198-.104-.381-.157-.555-.172zm-18.785.043c-.311-.035-.619.026-.955.129-1.933.88-2.487 4.659-1.012 6.912l.574.875.545-1.057c.3-.581 1.102-1.679 1.783-2.439 1.478-1.651 1.488-2.901.03-3.985-.342-.272-.655-.401-.965-.435z" fill="#134057" fill-rule="nonzero"/>
</svg>
