<svg width="48" height="48" xmlns="http://www.w3.org/2000/svg">
 <rect x="4" y="4" width="40" height="40" rx="20" fill="#0286c2"/>
 <path d="m22.785715 5.039174c-1.682054.0999032-3.305105.407313-4.847155.8945286-2.977095 8.5106714-5.96719 17.8425694-8.9382848 26.0748314.2159869.06353.4291237.03739.6523608.04102 1.229639-.0073 2.464079.0036 3.697418 0 .166985 0 .146025-.241488.216807-.347671 1.481947-4.182634 2.987495-8.343867 4.476743-12.5234.08893-.258638.187626-.535477.304699-.783225.773185.01452 1.535249-.01089 2.304774 0-1.616252 4.533845-3.226903 9.09439-4.871255 13.613434.173335.06716.344811.03739.525406.04102 1.290441-.01089 2.576883.01815 3.867324 0 1.460146-4.119132 2.969294-8.230863 4.437641-12.350394.31218-.840347.356652-1.917361-.175785-2.607483-1.130036-1.464847-3.639016-1.709155-5.261868-1.769557 1.183438-3.351707 2.410777-6.8577187 3.611415-10.283328zm5.867387 10.881347c-.03146.06797-.05241.235988-.08398.30274-3.045297 8.543372-6.627311 18.296583-9.787412 27.070863 1.114336.29893 2.259972.521747 3.44351.62502 1.412945-3.682717 3.182602-7.793948 4.425941-11.258359 1.612652-.03176 3.215903-.01512 4.832154-.04687 1.024533-.03539 2.571882-.651291 2.912193-1.650453 1.361244-3.832322 2.722587-7.629243 4.041129-11.479366.215987-.581709.348071-1.219839.173836-1.824258-.230508-.773185-.93475-1.360444-1.693454-1.56645-.659751-.206007-1.323042-.116344-2.000064-.130865-2.069966-.0036-4.193834-.02119-6.2639-.04297zm3.892724 2.427778c.06556.0071.131344.0169.195317.0078.598949.01089 1.187937-.01452 1.783256 0-1.389344 3.966626-2.803489 7.935953-4.172033 11.91438-.775904.05354-1.57485.0036-2.351675 0 1.414745-3.942126 2.80859-7.882952 4.218935-11.832378.03176-.03539.08821-.07504.130864-.08594v.0039c.06398-.01951.129754-.01497.195316-.0078z" opacity=".2"/>
 <path d="m22.785715 4.0392463c-1.682054.0999032-3.305105.407313-4.847155.8945286-2.977095 8.5106711-5.96719 17.8425691-8.9382848 26.0748321.2159869.06353.4291237.03739.6523608.04102 1.229639-.0073 2.464079.0036 3.697418 0 .166985 0 .146025-.241488.216807-.347671 1.481947-4.182634 2.987495-8.343866 4.476743-12.5234.08893-.258638.187626-.535477.304699-.783225.773185.01452 1.535249-.01089 2.304774 0-1.616252 4.533845-3.226903 9.09439-4.871255 13.613435.173335.06716.344811.03739.525406.04102 1.290441-.01089 2.576883.01815 3.867324 0 1.460146-4.119131 2.969294-8.230863 4.437641-12.350394.31218-.840347.356652-1.917361-.175785-2.607483-1.130036-1.464847-3.639016-1.709155-5.261868-1.769557 1.183438-3.351707 2.410777-6.8577184 3.611415-10.2833277zm5.867387 10.8813467c-.03146.06797-.05241.235988-.08398.30274-3.1478 8.831182-6.884419 18.989606-10.119322 27.986893 1.099135.31519 2.231371.551867 3.400508.675801 1.457647-3.908424 3.44991-8.460469 4.800953-12.22539 1.612652-.03176 3.215903-.01511 4.832154-.04687 1.024533-.03539 2.571882-.651291 2.912193-1.650453 1.361244-3.832322 2.722587-7.629243 4.041129-11.479366.215987-.581708.348071-1.219839.173836-1.824258-.230508-.773185-.93475-1.360443-1.693454-1.56645-.659751-.206007-1.323042-.116344-2.000064-.130864-2.069966-.0036-4.193834-.02119-6.2639-.04297zm3.892724 2.427778c.06556.0071.131344.01689.195317.0078.598949.01089 1.187937-.01452 1.783256 0-1.389344 3.966627-2.803489 7.935953-4.172033 11.91438-.775904.05354-1.57485.0036-2.351675 0 1.414745-3.942126 2.80859-7.882951 4.218935-11.832377.03176-.03539.08821-.07504.130864-.08594v.0039c.06398-.01951.129754-.01496.195316-.0078z" fill="#fff"/>
 <path d="m24 4c-11.079 0-19.998 8.92-19.998 20 0 .16772-.004.33329 0 .5.2642-10.846 9.087-19.5 19.998-19.5s19.734 8.6536 19.998 19.5c.004-.16671 0-.33228 0-.5 0-11.08-8.919-20-19.998-20z" fill="#fff" opacity=".2"/>
 <path d="m4.0117 24.5c-.0041.167-.0117.332-.0117.5 0 11.08 8.92 20 20 20s20-8.92 20-20c0-.168-.008-.333-.012-.5-.264 10.846-9.076 19.5-19.988 19.5s-19.724-8.654-19.988-19.5z" opacity=".2"/>
</svg>
