<svg clip-rule="evenodd" fill-rule="evenodd" stroke-linejoin="round" stroke-miterlimit="2" viewBox="0 0 48 48" xmlns="http://www.w3.org/2000/svg">
 <linearGradient id="a" x2="1" gradientTransform="matrix(0 -33.6872 33.6872 0 923.28 40.4502)" gradientUnits="userSpaceOnUse">
  <stop stop-color="#0c1826" offset="0"/>
  <stop stop-color="#231827" offset="1"/>
 </linearGradient>
 <path d="m39.44 45.668h-30.88c-3.438 0-6.228-2.79-6.228-6.228v-30.88c0-3.438 2.79-6.228 6.228-6.228h30.88c3.438 0 6.228 2.79 6.228 6.228v30.88c0 3.438-2.79 6.228-6.228 6.228z" fill="url(#a)"/>
 <path transform="translate(0 -1.77955)" d="m15.618 32.128c.02-.016.043-.036.058-.052.066-.071.129-.159.191-.253.195-.298.373-.659.539-.926.148-.239.303-.417.439-.505l.22-.099.196-.019.147.026.122.053.109.076.112.117c.184.233.384.854.583 1.47.078.242.159.482.246.683.003-.007.006-.015.009-.023.182-.522.341-1.289.508-1.953.15-.597.318-1.117.494-1.378.046-.068.094-.125.142-.171l.138-.107.157-.069.188-.028.185.03.146.071.167.156c.045.056.091.131.134.224.238.515.456 1.941.664 3.368.067.461.134.922.203 1.349.302-3.117.622-9.218.937-14.398.271-4.461.551-8.25.795-8.964l.074-.166.118-.149.178-.109.183-.032.182.032.177.107.119.148.074.165c.249.71.553 4.48.841 8.919.317 4.898.632 10.625.888 13.835.254-1.462.523-3.126.768-3.773.081-.212.177-.352.256-.426l.175-.118.181-.047.2.016.161.064.137.099c.045.041.091.092.137.154.169.232.357.707.532 1.254.157.492.309 1.049.449 1.484.071-.148.144-.305.206-.444.219-.495.465-.984.702-1.237.103-.109.21-.187.313-.236l.149-.052.171-.021.147.013.137.038.174.086c.048.03.095.066.141.106.161.143.316.366.457.619.134.24.261.51.395.719.018.028.044.062.067.091.032-.025.069-.056.094-.082.149-.155.292-.354.428-.531.175-.228.349-.423.498-.524l.219-.106.203-.032.183.024.207.085c.153.086.335.251.522.442.144.148.296.314.45.437.045.036.122.079.148.094.069-.016.131-.062.194-.107.137-.097.268-.216.401-.318.284-.219.584-.361.899-.347.274.012.492.09.705.185.179.081.35.19.62.19h7.561v1h-7.561c-.317 0-.559-.072-.779-.165-.193-.081-.351-.2-.59-.211-.075-.003-.133.057-.2.107-.105.076-.208.166-.313.25-.261.209-.54.376-.839.413-.331.041-.721-.156-1.07-.485-.154-.145-.378-.362-.515-.494-.088.103-.21.25-.3.367-.179.235-.373.465-.566.616-.208.161-.426.243-.637.243l-.149-.015-.137-.04-.171-.091c-.045-.03-.091-.066-.135-.108-.15-.14-.296-.361-.434-.612-.129-.236-.255-.502-.392-.708-.011-.016-.024-.034-.038-.052-.042.057-.089.125-.123.186-.168.302-.331.691-.483 1.036-.206.468-.419.861-.581 1.005l-.206.129-.221.043-.151-.021-.121-.049-.145-.108-.122-.151c-.183-.281-.419-1.056-.652-1.833-.07-.232-.162-.494-.252-.733-.002.008-.003.016-.005.023-.241 1.099-.489 2.794-.724 3.982-.146.743-.311 1.307-.444 1.501l-.098.118-.11.084-.138.06-.176.02-.126-.022-.102-.044-.162-.141c-.043-.056-.12-.209-.167-.469-.284-1.556-.711-9.62-1.138-16.2-.108-1.659-.249-3.325-.382-4.745-.127 1.432-.261 3.114-.363 4.789-.402 6.626-.822 14.745-1.192 16.312-.035.148-.074.256-.108.325l-.134.181-.171.109-.178.038-.233-.04-.172-.097-.129-.132c-.04-.051-.081-.116-.12-.193-.254-.51-.483-1.937-.691-3.37-.122-.843-.243-1.686-.371-2.318-.077.276-.15.586-.224.898-.175.736-.36 1.476-.567 1.876-.084.161-.177.283-.268.363l-.153.107-.206.071-.151.01-.146-.021-.189-.076-.146-.104c-.205-.179-.411-.564-.577-1.027-.116-.322-.274-.771-.392-1.107-.054.095-.109.196-.166.297-.18.32-.377.64-.584.852-.22.227-.463.349-.705.365-.43.029-.811-.274-1.103-.752-.131-.215-.253-.462-.385-.66-.026-.038-.065-.084-.095-.119-.027.028-.059.063-.081.091-.1.133-.197.289-.304.434-.271.367-.61.649-1.062.675-.488.029-.789-.182-1.043-.473-.092-.105-.175-.224-.271-.33-.062-.07-.13-.14-.246-.147-.201-.011-.275.07-.345.139-.05.05-.101.097-.155.139-.166.13-.361.222-.663.209-.507-.022-7.595-.066-7.595-.066l.006-1s7.123.045 7.632.067c.021.001.027-.017.038-.027.023-.022.046-.045.069-.068.044-.042.09-.085.141-.125.196-.156.455-.294.93-.266.462.027.75.258.991.544.07.083.135.171.204.253.064.075.124.16.249.153.124-.007.194-.115.271-.213.107-.135.201-.287.297-.421.288-.404.631-.646 1.04-.601l.165.035.147.061c.081.042.159.097.233.165.153.141.296.349.429.58.12.209.235.441.367.616.021.027.055.062.08.086z" fill="#0f0"/>
 <path transform="matrix(2.01537 0 0 2.01537 19.2429 5.25323)" d="m9.987 7.799c-.152-2.031-3.399-3.627-3.619-6.158-.278-.077-.611.421-.611.767v.928l-.01 7.84c0 .342-.273.684-.606.76l-1.72.39c-.772.176-1.403.968-1.403 1.762v.139c0 .863.697 1.562 1.557 1.562h.598c1.191 0 2.156-.968 2.156-2.162l.009-8.569s1.801-.076 2.875 2.456c.787 1.858-.932 4.466-.639 4.634.687-.892 1.572-2.217 1.413-4.349z" fill="#f0f"/>
</svg>
