<svg clip-rule="evenodd" fill-rule="evenodd" stroke-linejoin="round" stroke-miterlimit="2" viewBox="0 0 48 48" xmlns="http://www.w3.org/2000/svg">
 <linearGradient id="a" x2="1" gradientTransform="matrix(0 -39.8456 39.8456 0 24.5157 43.9228)" gradientUnits="userSpaceOnUse">
  <stop stop-color="#008707" offset="0"/>
  <stop stop-color="#37b648" offset="1"/>
 </linearGradient>
 <path transform="matrix(1.09704 0 0 1.09704 -2.3289 -2.32893)" d="m18.44 43.98c-.789-.093-1.364-.263-1.989-.587-1.349-.7-2.262-1.922-2.593-3.47-.111-.522-.111-1.719 0-2.258.296-1.428.919-2.49 3.039-5.183 1.287-1.633 3.611-4.427 3.682-4.427.022 0 .193.105.38.235.66.455 1.442.763 2.3.903.086.014.167.042.179.061.011.019.088.913.17 1.987.297 3.879.412 6.2.354 7.17-.054.914-.306 1.896-.687 2.674-.548 1.119-1.461 2.024-2.515 2.495-.721.321-1.641.48-2.32.4zm10.595-2.142c-1.778-.33-3.097-1.851-3.707-4.276-.283-1.126-1.175-6.611-1.297-7.976l-.029-.32.186-.022c1.036-.12 1.444-.226 2.103-.544.238-.115.573-.308.744-.428.171-.119.321-.217.334-.217.025 0 1.731 1.889 2.602 2.881 1.351 1.54 2.439 2.861 2.812 3.418 1.082 1.614 1.466 3.44 1.02 4.853-.208.656-.576 1.198-1.112 1.636-.996.814-2.469 1.215-3.656.995zm8.518-6.93c-1.365-.137-2.693-.718-3.856-1.686-.67-.557-2.63-2.336-3.559-3.23-.783-.753-2.311-2.3-2.311-2.34 0-.021.093-.146.206-.28.582-.685.946-1.417 1.192-2.4l.045-.181 2.129.02c6.067.054 6.609.084 7.807.433 1.46.425 2.633 1.316 3.263 2.48.724 1.336.707 2.983-.046 4.51-.242.49-.414.736-.8 1.147-.702.745-1.545 1.215-2.547 1.42-.417.085-1.196.14-1.523.107zm-8.212-11.229c-.013-.325-.055-.736-.092-.913-.147-.701-.439-1.418-.794-1.95-.092-.138-.158-.278-.146-.31.047-.124 3.338-2.857 4.71-3.912.941-.723 1.487-1.083 2.161-1.423 2.077-1.048 4-.986 5.429.174.657.533 1.211 1.426 1.443 2.325.154.593.164 1.527.023 2.099-.435 1.767-1.77 2.982-3.811 3.465-.703.167-3.271.519-5.351.734-.979.101-3.263.303-3.43.303h-.118zm-19.461.246c-1.532-.159-2.792-.703-3.642-1.574-1.392-1.426-1.631-3.642-.611-5.657.692-1.367 1.797-2.234 3.257-2.556.538-.118 1.689-.109 2.274.019.849.186 1.754.571 2.506 1.067.922.608 3.897 2.967 5.467 4.337l.776.676-.074.114c-.04.063-.152.223-.248.355-.41.565-.769 1.472-.897 2.268l-.07.431-.195.025c-.735.096-3.878.368-5.259.454-1.025.064-2.845.087-3.284.041zm17.797-4.047c-.653-.692-1.853-1.28-2.942-1.442-.245-.036-.453-.072-.461-.08-.008-.007-.05-.523-.094-1.146-.256-3.643-.334-5.813-.261-7.204.073-1.37.195-1.989.541-2.753.353-.781 1.137-1.713 1.842-2.192 1.531-1.039 3.413-1.332 5.161-.803 2.737.829 4.363 3.869 3.633 6.789-.346 1.386-1.236 2.754-3.328 5.117-.787.889-3.759 3.892-3.852 3.892-.039 0-.147-.08-.239-.178zm-9.319-1.983c-3.421-3.467-4.424-4.74-4.919-6.24-.226-.686-.288-1.138-.261-1.919.027-.783.108-1.147.391-1.757.54-1.16 1.455-1.941 2.795-2.385.943-.313 1.852-.351 2.755-.115.491.128 1.207.502 1.631.849.771.633 1.395 1.64 1.649 2.659.181.727.446 2.503.786 5.264.32 2.606.481 4.062.451 4.094-.015.018-.17.052-.344.076-.985.14-1.888.531-2.65 1.147-.157.126-.312.23-.345.23-.034 0-.906-.856-1.939-1.903z" fill="url(#a)" fill-rule="nonzero"/>
 <path transform="matrix(1.09704 0 0 1.09704 -2.3289 -2.32893)" d="m11.576 34.11c-1.666-.193-3.276-1.712-3.756-3.544-.127-.488-.155-1.309-.061-1.784.156-.786.528-1.453 1.143-2.052.977-.953 2.184-1.447 4.834-1.982 1.596-.322 4.75-.797 4.836-.729.026.02.061.183.076.361.088.981.545 2.084 1.182 2.852.145.175.281.342.303.372.028.039-.01.118-.127.263-.249.31-3.095 3.199-3.707 3.762-.587.541-1.621 1.449-1.885 1.656-.308.241-.841.526-1.23.657-.329.111-1.002.229-1.206.212-.035-.003-.216-.023-.401-.044z" fill="#cd2d14" fill-rule="nonzero"/>
 <circle cx="24.00006" cy="24.00003" r="6.58224" fill="#ffca2b" stroke-width="1.09704"/>
</svg>
