<svg clip-rule="evenodd" fill-rule="evenodd" stroke-linejoin="round" stroke-miterlimit="2" viewBox="0 0 48 48" xmlns="http://www.w3.org/2000/svg">
 <linearGradient id="a" x2="1" gradientTransform="matrix(0 -45.5294 45.5294 0 210.898 46.7647)" gradientUnits="userSpaceOnUse">
  <stop stop-color="#3c8600" offset="0"/>
  <stop stop-color="#69aa35" offset="1"/>
 </linearGradient>
 <circle cx="24" cy="24" r="22.764" fill="url(#a)"/>
 <g transform="matrix(2.3136 0 0 2.3136 -1.60642 -1.6064)" fill-rule="nonzero">
  <path d="m12.474 6c-1.371 0-3.148.267-4.451 1.055-1.753 1.061-2.889 2.44-3.917 4.498-.141.281-.141.613 0 .894 0 0 1.711 4.051 7.244 4.051 1.752 0 3.178-.572 4.093-1.392.804-.72 1.125-1.116 1.546-1.646.249-.139.857-.28 1.324-.812.348-.397.687-.959.687-1.648 0-.762-.544-1.444-1.062-1.701-.324-.161-.577-.153-.852-.188-.814-1.329-1.872-3.111-4.612-3.111z" fill="#383838"/>
  <path d="m16.023 10.055s2-.25 2 1-2 2-2 2z" fill="#e68673"/>
  <path d="m4.9 12.343c1.132-1.947 2.209-3.064 4.123-4.288.821-.469 1.75.5 1.75.5l3.75 2.5h2.5s-.523 4.71-5.523 4.71-6.6-3.422-6.6-3.422z" fill="#bcbcbc"/>
  <path d="m12.023 7.055c-1 0-2.239.556-3.054 1.015-.007.011-.011.023-.018.034-.123.079-.217.148-.334.224-.388.678-.592 1.446-.594 2.227 0 2.468 2.032 4.5 4.5 4.5 2.301-.001 4.249-1.766 4.477-4.055.17-1.708-1.431-3.945-4.977-3.945z" fill="#383838"/>
  <path d="m11.023 13.055h2c1.25 0 3-1 3-1s-.5 2-3 2c-1.25 0-2-1-2-1z" fill="#2898b5"/>
 </g>
 <circle cx="22.739593" cy="20.500048" r="3.4704" fill="#fff" stroke-width="2.3136"/>
</svg>
