<svg clip-rule="evenodd" fill-rule="evenodd" stroke-linejoin="round" stroke-miterlimit="2" viewBox="0 0 48 48" xmlns="http://www.w3.org/2000/svg">
 <linearGradient id="a" x2="1" gradientTransform="matrix(0 -36.7034 36.7034 0 28.0199 42)" gradientUnits="userSpaceOnUse">
  <stop stop-color="#e01100" offset="0"/>
  <stop stop-color="#f1502f" offset="1"/>
 </linearGradient>
 <path d="m16.132 18c.979-7.335 7.267-13 14.868-13 8.279 0 15 6.721 15 15s-6.721 15-15 15c-3.885 0-7.427-1.48-10.092-3.907l-2.648 2.648c1.221 2.104.931 4.848-.87 6.649-2.147 2.147-5.633 2.147-7.78 0s-2.147-5.633 0-7.78c1.757-1.757 4.412-2.076 6.495-.957l2.793-2.793c-1.637-2.231-2.672-4.932-2.865-7.86h-3.24c-.654 2.308-2.777 4-5.293 4-3.035 0-5.5-2.465-5.5-5.5 0-3.036 2.465-5.5 5.5-5.5 2.516 0 4.639 1.692 5.293 4z" fill="url(#a)"/>
 <path d="m11.732 34.732c-.976.976-.976 2.56 0 3.536s2.56.976 3.536 0 .976-2.56 0-3.536-2.56-.976-3.536 0zm19.268-25.732c-6.071 0-11 4.929-11 11s4.929 11 11 11 11-4.929 11-11-4.929-11-11-11zm.881 7.268 2.851 2.851-6.88 6.881h-2.852v-2.852zm-24.381 5.732c-1.38 0-2.5-1.12-2.5-2.5s1.12-2.5 2.5-2.5 2.5 1.12 2.5 2.5-1.12 2.5-2.5 2.5zm26.951-8c.194 0 .388.076.539.227l1.783 1.783c.302.301.302.776 0 1.078l-1.498 1.488-2.851-2.851 1.488-1.498c.151-.151.345-.227.539-.227z" fill="#fff" fill-rule="nonzero"/>
</svg>
