<svg clip-rule="evenodd" fill-rule="evenodd" stroke-linejoin="round" stroke-miterlimit="2" viewBox="0 0 48 48" xmlns="http://www.w3.org/2000/svg" xmlns:xlink="http://www.w3.org/1999/xlink">
 <linearGradient id="a" x2="1" gradientTransform="matrix(0 -33.6872 33.6872 0 923.28 40.4502)" gradientUnits="userSpaceOnUse">
  <stop stop-color="#006783" offset="0"/>
  <stop stop-color="#20ccff" offset="1"/>
 </linearGradient>
 <linearGradient id="b">
  <stop stop-color="#dadada" offset="0"/>
  <stop stop-color="#fff" offset="1"/>
 </linearGradient>
 <linearGradient id="c" x2="1" gradientTransform="matrix(0 -36 36 0 240 42)" gradientUnits="userSpaceOnUse" xlink:href="#b"/>
 <linearGradient id="d" x2="1" gradientTransform="matrix(0 -40 40 0 184 44)" gradientUnits="userSpaceOnUse" xlink:href="#b"/>
 <linearGradient id="e" x2="1" gradientTransform="matrix(0 -26 26 0 284 38)" gradientUnits="userSpaceOnUse">
  <stop stop-color="#960000" offset="0"/>
  <stop stop-color="#d13232" offset="1"/>
 </linearGradient>
 <path d="m39.44 45.668h-30.88c-3.438 0-6.228-2.79-6.228-6.228v-30.88c0-3.438 2.79-6.228 6.228-6.228h30.88c3.438 0 6.228 2.79 6.228 6.228v30.88c0 3.438-2.79 6.228-6.228 6.228z" fill="url(#a)"/>
 <path d="m40.2 6c.993 0 1.8.807 1.8 1.8v32.4c0 .993-.807 1.8-1.8 1.8h-32.4c-.993 0-1.8-.807-1.8-1.8v-32.4c0-.993.807-1.8 1.8-1.8z" fill="url(#c)"/>
 <path d="m4 37 .051-1.987 1.949-.013v-2h-2v-2h2v-2h-2v-2h2v-2h-2v-2h2v-2h-2v-2h2v-2h-2l.011-1.962 1.989-.038v-2h-2l.003-1.938 1.997-.062v-2h-2v-2h2.187c.175-.351.462-.638.813-.812v-2.188h2v2h2v-2h2v2h2v-2h2v2h2v-2h2v2h2v-2h2v2h2v-2h2v2h2v-2h2v2h2v-2h2v2h2v-2h2v2.188c.351.174.638.461.813.812h2.187v2h-2v2h2v2h-2v2h2v2h-2v2h2v2h-2v2h2v2h-2v2h2v2h-2v2h2v2h-2v2h2v2h-2v2h2v2h-2.187c-.175.351-.462.638-.813.812v2.188h-2v-2h-2v2h-2v-2h-2v2h-2v-2h-2v2h-2v-2h-2v2h-2v-2h-2v2h-2v-2h-2v2h-2v-2h-2v2h-2v-2h-2v2h-2v-2.188c-.351-.174-.638-.461-.813-.812h-2.187l.022-1.989 1.978-.011v-2z" fill="url(#d)"/>
 <path d="m38 12c0-1.104-.896-2-2-2h-24c-1.104 0-2 .896-2 2v24c0 1.104.896 2 2 2h24c1.104 0 2-.896 2-2z" fill="url(#e)"/>
</svg>
