<svg clip-rule="evenodd" fill-rule="evenodd" stroke-linejoin="round" stroke-miterlimit="2" viewBox="0 0 48 48" xmlns="http://www.w3.org/2000/svg">
 <linearGradient id="a" x2="1" gradientTransform="matrix(-.476427 -44.666 44.666 -.476427 446.34 44.0547)" gradientUnits="userSpaceOnUse">
  <stop stop-color="#cfdaf0" offset="0"/>
  <stop stop-color="#fdfdfe" offset="1"/>
 </linearGradient>
 <path transform="matrix(1.1553 0 0 1.1553 -3.7272 -3.7272)" d="m42 41.429v-33.429h-26.591c-3.525.955-3.197 2.098-3.409 3.214v30.215c.627 2.295 2.39 2.372 4.091 2.571h22.5c1.401-.063 2.974-.617 3.409-2.571z" fill="#a10c00" fill-rule="nonzero"/>
 <path transform="translate(-4.90619 -2.989)" d="m42.807 46.999c-.006-5.606 2.905-37.596 3.429-43.116h-32.749c-2.783 0-5.039 2.257-5.039 5.04v33.036c0 2.783 2.256 5.04 5.039 5.04z" fill="url(#a)"/>
 <g transform="matrix(1.1553 0 0 1.1553 -3.7272 -3.7272)" fill-rule="nonzero">
  <path d="m33 15-7 2v5h7z" fill="#90caf9"/>
  <path d="m33 8h-11v8l11-3z" fill-opacity=".2"/>
  <path d="m21 8h-12v9l12-2z" fill="#ffcc80"/>
  <path d="m33 32-24-3v9h24z" fill="#ff8a80"/>
  <path d="m25 17-16 2v8l16 2z" fill-opacity=".2"/>
  <path d="m33 23-7 1v5l7 1z" fill-opacity=".2"/>
  <path d="m36 6.667v34.666c0-1.301 1-2.333 3-2.333s3 .968 3 2.333v-34.666c0-2.667-3-2.667-3-2.667s-3 0-3 2.667z" fill="#d3392e"/>
  <path d="m12 4-6 6h1.908c1.701-.205 3.465-.283 4.092-2.643z" fill="#fafafa"/>
 </g>
</svg>
