<svg clip-rule="evenodd" fill-rule="evenodd" stroke-linejoin="round" stroke-miterlimit="2" viewBox="0 0 48 48" xmlns="http://www.w3.org/2000/svg">
 <linearGradient id="a" x2="1" gradientTransform="matrix(0 -45.5281 45.5281 0 136.545 46.764)" gradientUnits="userSpaceOnUse">
  <stop stop-color="#006783" offset="0"/>
  <stop stop-color="#20ccff" offset="1"/>
 </linearGradient>
 <circle cx="24" cy="24" r="22.764" fill="url(#a)"/>
 <path d="m29.447 32.282c-.544 0-1.088-.234-1.483-.693-1.014-1.182-2.457-1.857-3.962-1.857-1.53 0-2.936.655-3.959 1.847-.743.867-2.008.933-2.83.146-.819-.785-.882-2.122-.138-2.986 1.765-2.058 4.29-3.238 6.927-3.238 2.633 0 5.158 1.183 6.929 3.245.744.866.681 2.202-.139 2.988-.382.368-.864.548-1.345.548zm4.444-5.292c-.511 0-1.023-.206-1.413-.616-2.267-2.382-5.277-3.693-8.476-3.693-3.206 0-6.217 1.308-8.48 3.685-.784.823-2.053.819-2.833-.009-.779-.828-.777-2.167.009-2.991 3.018-3.17 7.033-4.915 11.304-4.915 4.265 0 8.279 1.748 11.302 4.924.786.823.788 2.163.009 2.992-.391.413-.907.623-1.421.623zm4.435-5.283c-.498 0-.998-.197-1.386-.588-3.497-3.54-8.091-5.489-12.938-5.489-4.856 0-9.452 1.946-12.94 5.483-.797.808-2.066.781-2.832-.062-.767-.843-.74-2.183.057-2.991 4.238-4.295 9.818-6.66 15.715-6.66 5.885 0 11.463 2.368 15.71 6.664.798.808.825 2.148.06 2.991-.394.433-.92.652-1.446.652zm-14.575 15.693c1.336 0 2.42-1.085 2.42-2.424s-1.084-2.424-2.42-2.424-2.42 1.085-2.42 2.424 1.084 2.424 2.42 2.424z" fill="#fff" fill-opacity=".85" fill-rule="nonzero"/>
</svg>
