<svg clip-rule="evenodd" fill-rule="evenodd" stroke-linejoin="round" stroke-miterlimit="2" viewBox="0 0 48 48" xmlns="http://www.w3.org/2000/svg">
 <linearGradient id="a" x2="1" gradientTransform="matrix(0 -31.7826 31.7826 0 24 43.7751)" gradientUnits="userSpaceOnUse">
  <stop stop-color="#ffffff" offset="0"/>
  <stop stop-color="#e4e4e4" offset="1"/>
 </linearGradient>
 <g fill-rule="nonzero">
  <path d="m6.84 6.513c-.815 0-1.471.656-1.471 1.471v34.32c0 .815.656 1.471 1.471 1.471h34.32c.815 0 1.471-.656 1.471-1.471v-34.32c0-.815-.656-1.471-1.471-1.471z" fill="url(#a)"/>
  <path d="m8.657 24.048h14.247v12.055h-14.247z" fill="#57b5ff"/>
  <path d="m36.589 3.225.562 8.219v3.832s.02 4.388-4.496 4.388c-4.476 0-4.286-4.388-4.286-4.388v-12.051c3.246.029 8.22 0 8.22 0z" fill="#ffffff"/>
  <path d="m19.632 3.225v12.052s.229 4.387-4.287 4.387c-4.477 0-4.496-4.387-4.496-4.387v-3.833l.562-8.219c3.246.028 8.221 0 8.221 0z" fill="#ffffff"/>
  <g fill="#6534a5">
   <path d="m36.603 3.225.548 8.22v3.831s.02 4.388 4.384 4.388c4.403 0 4.384-4.388 4.384-4.388v-3.763l-1.096-6.096c0-2.192-2.192-2.192-2.192-2.192z"/>
   <path d="m19.616 3.225v12.051s.213 4.388 4.384 4.388c4.207 0 4.384-4.388 4.384-4.388v-12.051s-5.743.028-8.768 0z"/>
   <path d="m5.369 3.225s-2.192 0-2.192 2.192l-1.096 6.028v3.831s-.019 4.388 4.384 4.388c4.364 0 4.384-4.388 4.384-4.388v-3.831l.548-8.22z"/>
  </g>
  <path d="m33.316 23.663c-3.34 0-6.028 2.388-6.028 5.244v14.868h12.055v-14.868c0-2.857-2.688-5.245-6.027-5.245z" fill="#47b5bd"/>
  <path d="m37.291 34.815c0 1.461-2.191 1.461-2.191 0 0-1.462 2.191-1.462 2.191 0z" fill="#051936"/>
  <path d="m5.369 3.225s-2.192 0-2.192 2.192l-1.096 6.028v.548h43.838v-.48l-1.096-6.096c0-2.192-2.192-2.192-2.192-2.192h-6.028l.548 8.22-.563-8.22s-4.957.028-8.204 0c-.005 0-.011 0-.015 0-.027 0-5.735.028-8.753 0-.025 0-4.966.028-8.204 0l-.563 8.22.548-8.22h-6.028z" fill="#ffffff" fill-opacity=".2"/>
 </g>
</svg>
