<svg clip-rule="evenodd" fill-rule="evenodd" stroke-linejoin="round" stroke-miterlimit="2" viewBox="0 0 48 48" xmlns="http://www.w3.org/2000/svg">
 <g fill-rule="nonzero">
  <path d="m45.63 17.07-26.376 29.138c1.558.351 3.149.538 4.746.556 12.488 0 22.764-10.276 22.764-22.764-.017-2.355-.4-4.693-1.134-6.93z" fill="#ff90b8"/>
  <path d="m39.256 7.144-30.489 33.684c2.962 2.683 6.58 4.539 10.487 5.38l26.376-29.138c-1.215-3.811-3.414-7.235-6.374-9.926z" fill="#f9548f"/>
  <path d="m28.785 1.753-26.426 29.194c1.232 3.799 3.442 7.207 6.408 9.881l30.489-33.684c-2.957-2.684-6.569-4.544-10.471-5.391z" fill="#9182d7"/>
  <path d="m6.794 9.094c-3.584 4.138-5.558 9.432-5.558 14.906.012 2.36.391 4.704 1.123 6.947l26.426-29.194c-1.572-.341-3.176-.514-4.785-.517-6.6 0-12.885 2.87-17.206 7.858z" fill="#7767c0"/>
 </g>
 <path d="m31.247 7.186-12.164 2.732c-.652.148-1.185.817-1.185 1.489v1.8l-.02 15.212c0 .664-.529 1.328-1.176 1.475l-3.337.757c-1.498.341-2.722 1.878-2.722 3.419v.269c0 1.675 1.352 3.031 3.021 3.031h1.16c2.311 0 4.184-1.878 4.184-4.195v-10.501h.021v-6.298l12.837-2.713v11.122c0 .664-.53 1.325-1.176 1.471l-3.44.772c-1.486.334-2.703 1.859-2.703 3.388v.281c0 1.679 1.356 3.039 3.031 3.039h1.205c2.336 0 4.226-1.896 4.226-4.236v-19.929h-.002v-.968c0-.864-.596-1.459-1.387-1.459-.119 0-.245.015-.373.042zm.722 1.44-12.927 2.761v2.117l12.927-2.759z" fill="#ffffff"/>
</svg>
