<svg clip-rule="evenodd" fill-rule="evenodd" stroke-linejoin="round" stroke-miterlimit="2" viewBox="0 0 48 48" xmlns="http://www.w3.org/2000/svg">
 <linearGradient id="a" x2="1" gradientTransform="matrix(0 -33.6872 33.6872 0 923.28 40.4502)" gradientUnits="userSpaceOnUse">
  <stop stop-color="#607986" offset="0"/>
  <stop stop-color="#78909c" offset="1"/>
 </linearGradient>
 <path d="m39.44 45.668h-30.88c-3.438 0-6.228-2.79-6.228-6.228v-30.88c0-3.438 2.79-6.228 6.228-6.228h30.88c3.438 0 6.228 2.79 6.228 6.228v30.88c0 3.438-2.79 6.228-6.228 6.228z" fill="url(#a)"/>
 <path d="m39.026 21.53 1.143.07c-2.228 2.628-5.3 4.411-7.719 5.126l-.619-.087-2.496 1.026c-.49.156-1.205-.57-1.91.179l.053-1.705z" fill="#ffffff" fill-rule="nonzero"/>
 <path d="m32.15 26.537c.563-.232.826-.876.588-1.436-.237-.56-.887-.825-1.449-.593l-21.086 8.721c-.562.233-.826.876-.588 1.436.237.56.887.826 1.449.594z" fill="#485861"/>
 <path d="m29.236 25.356-.458.19-.023 2.396.445-.186zm-.655.272-.459.19-.023 2.394.446-.184zm-.649.267-.456.19-.024 2.394.446-.184z" fill="#313131" fill-rule="nonzero"/>
 <path d="m41.982 28.436 1.108.287c-2.687 2.156-6.043 3.321-8.554 3.562l-.591-.203-2.645.532c-.511.06-1.075-.789-1.909-.188l.377-1.664z" fill="#ffffff" fill-rule="nonzero"/>
 <path d="m34.279 32.043c.596-.121.977-.703.85-1.298s-.713-.979-1.31-.858l-22.361 4.547c-.596.121-.977.703-.85 1.298.126.595.713.979 1.309.858z" fill="#485861"/>
 <path d="m31.643 30.328-.487.1-.478 2.347.472-.097zm-.696.143-.486.099-.479 2.346.473-.096zm-.687.138-.485.1-.478 2.346.473-.096z" fill="#313131" fill-rule="nonzero"/>
 <path d="m33.363 14.852 1.128-.2c-1.548 3.078-4.116 5.533-6.3 6.795l-.622.061-2.185 1.583c-.439.268-1.305-.271-1.815.623l-.348-1.67z" fill="#ffffff" fill-rule="nonzero"/>
 <path d="m27.856 21.334c.492-.358.597-1.045.234-1.534-.362-.488-1.056-.594-1.548-.236l-18.448 13.43c-.492.358-.597 1.045-.234 1.534.362.488 1.056.594 1.548.236z" fill="#485861"/>
 <path d="m24.746 20.87-.401.293.54 2.334.39-.285zm-.573.419-.401.292.539 2.333.39-.284zm-.568.412-.399.292.539 2.332.391-.284z" fill="#313131" fill-rule="nonzero"/>
 <path d="m24.577 9.015 1.011-.538c-.524 3.405-2.211 6.532-3.899 8.406l-.573.249-1.591 2.18c-.336.39-1.325.144-1.534 1.152l-.847-1.482z" fill="#ffffff" fill-rule="nonzero"/>
 <path d="m21.335 16.879c.358-.493.246-1.179-.25-1.532-.495-.353-1.187-.24-1.545.252l-13.413 18.461c-.358.492-.246 1.178.25 1.531.495.353 1.188.24 1.545-.252z" fill="#485861"/>
 <path d="m18.233 17.395-.291.402 1.233 2.054.283-.391zm-.416.575-.291.402 1.232 2.053.284-.39zm-.413.567-.29.401 1.232 2.052.284-.39z" fill="#313131" fill-rule="nonzero"/>
 <path d="m14.3 5.87.779-.839c.617 3.39.045 6.896-.938 9.219l-.46.423-.791 2.58c-.19.478-1.206.569-1.074 1.59l-1.284-1.124z" fill="#ffffff" fill-rule="nonzero"/>
 <path d="m13.805 14.361c.177-.582-.153-1.194-.736-1.365-.584-.172-1.201.161-1.378.743l-6.644 21.83c-.177.582.153 1.194.736 1.366.584.172 1.201-.161 1.378-.743z" fill="#485861"/>
 <path d="m11.042 15.863-.143.476 1.837 1.538.139-.462zm-.205.68-.144.475 1.835 1.537.141-.461zm-.205.67-.143.474 1.835 1.537.141-.461z" fill="#313131" fill-rule="nonzero"/>
</svg>
