<svg clip-rule="evenodd" fill-rule="evenodd" stroke-linejoin="round" stroke-miterlimit="2" viewBox="0 0 48 48" xmlns="http://www.w3.org/2000/svg">
 <linearGradient id="a" x2="1" gradientTransform="matrix(0 -32.9711 32.9711 0 22.9569 44)" gradientUnits="userSpaceOnUse">
  <stop stop-color="#5d798e" offset="0"/>
  <stop stop-color="#8899a6" offset="1"/>
 </linearGradient>
 <path d="m21 27.819c-6.551-1.195-11.614-8.177-11.978-16.819h-.022v-1c0-2.216 2.23-4 5-4h18c2.77 0 5 1.784 5 4l-.021 1c-.365 8.642-5.428 15.625-11.979 16.819v8.518l3.985 2.663h.515c1.38 0 2.5 1.12 2.5 2.5s-1.12 2.5-2.5 2.5h-13c-1.38 0-2.5-1.12-2.5-2.5s1.12-2.5 2.5-2.5h.516l3.984-2.663z" fill="url(#a)"/>
 <path d="m11.435 11.817c-1.536-.802-2.435-1.773-2.435-2.817 0-2.76 6.273-5 14-5s14 2.24 14 5c0 1.044-.899 2.015-2.435 2.817-1.397 7.618-5.01 13.676-11.608 13.701-6.455.024-10.125-6.083-11.522-13.701z" fill="#ccd6dd"/>
 <path d="m9.428 10.729c-.622-.547-.682-1.496-.136-2.117.547-.622 1.496-.683 2.117-.136 0 0 3.073 2.539 11.593 2.553 8.289.013 11.52-2.597 11.52-2.597.63-.537 1.577-.462 2.114.168.538.63.462 1.578-.168 2.115 0 0-3.733 3.33-13.47 3.314-10.024-.016-13.57-3.3-13.57-3.3z" fill="#fff"/>
 <path d="m24 16c-3.521.003-6.941.406-9.729 1.145 2.008 3.564 4.316 6.902 8.686 6.855 4.563-.049 7.006-3.47 8.998-7.27-2.421-.478-5.164-.729-7.955-.73z" fill="#6f1d00" fill-rule="nonzero"/>
</svg>
