<svg clip-rule="evenodd" fill-rule="evenodd" stroke-linejoin="round" stroke-miterlimit="2" viewBox="0 0 48 48" xmlns="http://www.w3.org/2000/svg">
 <linearGradient id="a" x2="1" gradientTransform="matrix(0 -33.6872 33.6872 0 923.28 40.4502)" gradientUnits="userSpaceOnUse">
  <stop stop-color="#313131" offset="0"/>
  <stop stop-color="#464646" offset="1"/>
 </linearGradient>
 <path d="m39.44 45.668h-30.88c-3.438 0-6.228-2.79-6.228-6.228v-30.88c0-3.438 2.79-6.228 6.228-6.228h30.88c3.438 0 6.228 2.79 6.228 6.228v30.88c0 3.438-2.79 6.228-6.228 6.228z" fill="url(#a)"/>
 <g fill-rule="nonzero">
  <path d="m22 22v4h12c1.108 0 2-.892 2-2s-.892-2-2-2zm4 10v4h8c1.108 0 2-.892 2-2s-.892-2-2-2z" fill="#ffffff" fill-opacity=".5"/>
  <path d="m29 12h-15c-1.108 0-2 .892-2 2s.892 2 2 2h15z" fill="#df854d"/>
  <path d="m27 32h-13c-1.108 0-2 .892-2 2s.892 2 2 2h13z" fill="#4caf50"/>
  <path d="m21 22h-7c-1.108 0-2 .892-2 2s.892 2 2 2h7z" fill="#ff90b8"/>
 </g>
 <path d="m23 12h4v4h-4z" fill="#50beee"/>
 <path d="m27 12h4v4h-4z" fill="#4c54e3"/>
 <path d="m15 12h4v4h-4z" fill="#fefc38"/>
 <path d="m19 12h4v4h-4z" fill="#79de7d"/>
 <path d="m30 34c0-2.209-1.791-4-4-4s-4 1.791-4 4 1.791 4 4 4 4-1.791 4-4zm-4-10c0-2.209-1.791-4-4-4s-4 1.791-4 4 1.791 4 4 4 4-1.791 4-4zm10-10c0-2.209-1.791-4-4-4s-4 1.791-4 4 1.791 4 4 4 4-1.791 4-4z" fill="#ffffff" fill-rule="nonzero"/>
</svg>
