<svg clip-rule="evenodd" fill-rule="evenodd" stroke-linejoin="round" stroke-miterlimit="2" viewBox="0 0 48 48" xmlns="http://www.w3.org/2000/svg">
 <linearGradient id="a" x2="1" gradientTransform="matrix(-24.2872 -33.4673 33.4673 -24.2872 39.0565 37.8743)" gradientUnits="userSpaceOnUse">
  <stop stop-color="#940916" offset="0"/>
  <stop stop-color="#d41c46" offset="1"/>
 </linearGradient>
 <path d="m43.941 37.079c-.156-1.313-.839-2.425-1.389-3.319-.193-.314-.416-.492-.552-.757-.015-8.115-3.394-17.789-11-21.992.608-.262 2.288-.427 2.894-.538.453-.082.831-.362 1.012-.747.18-.386.139-.828-.109-1.181-.236-.334-1.5-1.144-3.86-1.428-2.861-.344-4.414.081-7.542 1.141-1.835.622-2.726.708-3.758.808-.878.085-1.873.181-3.453.583-4.551 1.158-6.692 2.995-7.907 4.201-.948.941-1.33 1.899-1.277 2.677-.226.113-.346.239-.595.369-1.668.873-2.246 1.281-2.379 1.976-.098.513.082.849.509 1.309.688.639 1.079.819 2.159.819.788 0 1.003-.24 1.974-.453.859-.189 1.929-.423 2.741-.502 1.032-.099 2.063-.004 3.62.3.461.09.984.192 1.557.296.736.132 1.503.4 2.281.4.662 0 1.648.027 2.125-.034.347.648.922 2.02 1.85 3.124 2.42 2.88 4.53 2.872 4.819 2.874.523.007 1.017-.149 1.258-.575.241-.427.2-.936-.111-1.323-.007-.008-.526-.818-.775-2.12-.07-.371-.039-.684-.033-.98 3.221.937 8.325 3.79 8.979 6.898l.021 1.099c-.009 0 .009 0 0 0-.148-.006-.596-.008-.822-.008-.586 0-1.22.059-1.938.173-2.334.369-3.691 1.875-3.849 2.046-.366.394-.454 1.351-.191 1.807.262.453.777.721 1.338.677h.026c3.568.493 8.095 2.72 9.561 5.561.229.453.727.74 1.27.74.035 0 .07-.001.105-.004.583-.04 1.077-.404 1.238-.914.041-.132.401-1.332.203-3.003z" fill="url(#a)" fill-rule="nonzero"/>
 <circle cx="10.5" cy="15.5" r="1.5" fill="#fff"/>
</svg>
