<svg clip-rule="evenodd" fill-rule="evenodd" stroke-linejoin="round" stroke-miterlimit="2" viewBox="0 0 48 48" xmlns="http://www.w3.org/2000/svg">
 <linearGradient id="a" x2="1" gradientTransform="matrix(0 -33.6872 33.6872 0 923.28 40.4502)" gradientUnits="userSpaceOnUse">
  <stop stop-color="#d4dddf" offset="0"/>
  <stop stop-color="#fff" offset="1"/>
 </linearGradient>
 <path d="m39.44 45.668h-30.88c-3.438 0-6.228-2.79-6.228-6.228v-30.88c0-3.438 2.79-6.228 6.228-6.228h30.88c3.438 0 6.228 2.79 6.228 6.228v30.88c0 3.438-2.79 6.228-6.228 6.228z" fill="url(#a)"/>
 <path d="m24.447 24.611c-3.969 0-7.186 2.404-7.186 5.372 0 2.966 3.217 5.372 7.186 5.372 3.968 0 7.185-2.406 7.185-5.372 0-2.968-3.217-5.372-7.185-5.372z" fill="#1a1a1a" fill-rule="nonzero"/>
 <path d="m44 31.801v-3.988c-2.751-.724-4.491-.928-5.365-2.492v-.001c-.878-1.568.166-2.633 1.411-4.573l-3.807-2.82c-2.603.915-4.056 1.697-6.179 1.045h-.001c-2.116-.65-2.393-1.945-3.365-3.972h-5.388c-.969 2.017-1.248 3.321-3.365 3.972h-.001c-2.119.652-3.553-.121-6.179-1.046l-3.807 2.82c1.242 1.935 2.291 3.003 1.412 4.574-.88 1.569-2.641 1.775-5.366 2.493v3.988c2.72.715 4.486.924 5.366 2.492.883 1.582-.191 2.671-1.412 4.573l.52.386 3.287 2.435c2.604-.917 4.057-1.697 6.179-1.045h.001c2.117.649 2.231 1.334 3.202 3.358h5.714c.969-2.018 1.086-2.706 3.215-3.362h.002c2.102-.647 3.533.125 6.162 1.051l3.809-2.822c-1.241-1.929-2.291-3.001-1.414-4.573.878-1.568 2.647-1.776 5.369-2.493zm-20 3.199c-3.682 0-6.667-2.468-6.667-5.193 0-2.726 2.985-4.936 6.667-4.936s6.667 2.21 6.667 4.936c0 2.725-2.985 5.193-6.667 5.193z" fill="#414141" fill-rule="nonzero"/>
 <path d="m16 14v-8.651c0-.747.644-1.349 1.445-1.349h13.11c.801 0 1.445.602 1.445 1.349v8.651h5.258c1.159 0 1.742.901 1.742 1.48 0 3.385-10.692 17.52-15 17.52s-15-14.135-15-17.52c0-.579.585-1.48 1.744-1.48z" fill="#bcbcc3"/>
</svg>
