<svg clip-rule="evenodd" fill-rule="evenodd" stroke-linejoin="round" stroke-miterlimit="2" viewBox="0 0 48 48" xmlns="http://www.w3.org/2000/svg">
 <linearGradient id="a" x2="1" gradientTransform="matrix(0 -43.2859 43.2859 0 24.9826 45.6179)" gradientUnits="userSpaceOnUse">
  <stop stop-color="#da3939" offset="0"/>
  <stop stop-color="#fa5c5c" offset="1"/>
 </linearGradient>
 <path d="m39.44 2.332c3.438 0 6.228 2.79 6.228 6.228v30.88c0 3.438-2.79 6.228-6.228 6.228h-30.88c-3.438 0-6.228-2.79-6.228-6.228v-30.88c0-3.438 2.79-6.228 6.228-6.228z" fill="url(#a)"/>
 <path d="m17.213 32c-1.98 2.832-4.413 4.398-6.524 3.853-3.405-.879-4.688-6.923-2.863-13.487 1.825-6.565 6.071-11.18 9.476-10.301 1.541.398 2.647 1.853 3.227 3.935h6.957c.583-2.064 1.685-3.504 3.217-3.9 3.405-.88 7.651 3.736 9.476 10.3 1.825 6.565.542 12.608-2.863 13.488-2.119.547-4.563-1.034-6.548-3.888zm10.472-7h-1.685v-6h-4v6h-1.688c-.021.083-.042.165-.064.248l3.752 3.752 3.749-3.749c-.022-.084-.043-.167-.064-.251z" fill="#fff"/>
</svg>
