<svg clip-rule="evenodd" fill-rule="evenodd" stroke-linejoin="round" stroke-miterlimit="2" viewBox="0 0 48 48" xmlns="http://www.w3.org/2000/svg">
 <linearGradient id="a" x2="1" gradientTransform="matrix(0 -33.6872 33.6872 0 923.28 40.4502)" gradientUnits="userSpaceOnUse">
  <stop stop-color="#cfd8da" offset="0"/>
  <stop stop-color="#f2f2f2" offset="1"/>
 </linearGradient>
 <path d="m39.44 45.668h-30.88c-3.438 0-6.228-2.79-6.228-6.228v-30.88c0-3.438 2.79-6.228 6.228-6.228h30.88c3.438 0 6.228 2.79 6.228 6.228v30.88c0 3.438-2.79 6.228-6.228 6.228z" fill="url(#a)"/>
 <path d="m12.743 6.748c-.007.583-.015 1.165-.021 1.748 2.967 1.25 7.798 4.094 10.034 8.229-.557-6.972-9.996-10.084-10.013-9.977zm22.514 0c-.017-.107-9.456 3.005-10.013 9.977 2.236-4.135 7.067-6.979 10.034-8.229-.006-.583-.014-1.165-.021-1.748zm-25.254 2.417c-.023 1.103-.046 2.206-.068 3.309 2.909.599 10.087 3.331 12.982 8.536-.645-8.825-12.886-12.016-12.914-11.845zm27.994 0c-.028-.171-12.269 3.02-12.914 11.845 2.895-5.205 10.073-7.937 12.982-8.536-.022-1.103-.045-2.206-.068-3.309zm-29.338 4.676c-.156-.015-.243-.013-.246.002-.051 2.058-.103 4.115-.154 6.173 6.198.361 6.57 4.268 6.196 6.767l-6.399 2.082-.307 11.524 11.232-4.412c1.312-.544 2.624-1.066 3.936-1.545v-7.946c0-3.548-1.784-6.936-4.92-9.096-3.703-2.551-8.246-3.447-9.338-3.549zm30.682 0c-1.092.102-5.635.998-9.338 3.549-3.136 2.16-4.919 5.548-4.92 9.096v7.946c1.312.479 2.624 1.001 3.936 1.545l11.232 4.412-.307-11.524-6.399-2.082c-.374-2.499-.002-6.406 6.196-6.767-.051-2.058-.103-4.115-.154-6.173-.003-.015-.09-.017-.246-.002z" fill="#43599b" fill-rule="nonzero"/>
</svg>
