<svg width="48" height="48" xmlns="http://www.w3.org/2000/svg">
 <g fill-rule="evenodd">
  <path d="m12.215184 7a5.0007069 5.0005 0 0 0 -3.7579683 8.298828c4.6361063 5.279677 5.0667063 10.269949 4.8322303 13.691406-.05342.779914-.216297.945656-.330091 1.09961-.224324-.0595-.489788-.139961-1.257864-.632813a5.0007069 5.0005 0 0 0 -7.701491 4.208985c0 5.196308 5.0930986 9.333984 10.492622 9.333984 5.371573 0 9.445224-3.516207 11.115694-8.046875.567045.621187 1.147014 1.233568 1.771558 1.806641 3.113182 2.856612 7.07627 5.14926 11.557119 6.125a5.0007069 5.0005 0 0 0 4.879108-8.117188c-1.684522-1.988777-4.219039-4.701936-5.912354-6.96875-.381781-.511083-.433437-.682463-.689481-1.095703 1.526559-1.46698 2.803436-3.07651 3.322402-5.171875.781562-3.155616-.616275-6.497463-2.472758-8.427734-3.712966-3.8605433-8.855055-5.2470792-14.338485-6.0507816a5.0007069 5.0005 0 0 0 -4.009931 1.1875c-1.617805-.5510424-4.070283-1.2402344-7.50031-1.2402344zm22.893525 21.560547c-.03222.02852-.04898.08119-.08203.107422l-.259777.193359c.131576-.09114.213063-.208314.34181-.300781zm-21.737227 1.53125a5.0007069 5.0005 0 0 0 0 .002c-.01031.0041-.0048.1199-.222665.0918-.000727-.01435-.351229.13677.222665-.09375z" opacity=".2"/>
  <path d="m12.215184 6a5.0007069 5.0005 0 0 0 -3.7579683 8.298828c4.6361063 5.279677 5.0667063 10.269949 4.8322303 13.691406-.05342.779914-.216297.945656-.330091 1.09961-.224324-.0595-.489788-.139961-1.257864-.632813a5.0007069 5.0005 0 0 0 -7.701491 4.208985c0 5.196308 5.0930986 9.333984 10.492622 9.333984 5.371573 0 9.445224-3.516207 11.115694-8.046875.567045.621187 1.147014 1.233568 1.771558 1.806641 3.113182 2.856612 7.07627 5.14926 11.557119 6.125a5.0007069 5.0005 0 0 0 4.879108-8.117188c-1.684522-1.988777-4.219039-4.701936-5.912354-6.96875-.381781-.511083-.433437-.682463-.689481-1.095703 1.526559-1.46698 2.803436-3.07651 3.322402-5.171875.781562-3.155616-.616275-6.497463-2.472758-8.427734-3.712966-3.8605433-8.855055-5.2470792-14.338485-6.0507816a5.0007069 5.0005 0 0 0 -4.009931 1.1875c-1.617805-.5510424-4.070283-1.2402344-7.50031-1.2402344zm22.893525 21.560547c-.03222.02852-.04898.08119-.08203.107422l-.259777.193359c.131576-.09114.213063-.208314.34181-.300781zm-21.737227 1.53125a5.0007069 5.0005 0 0 0 0 .002c-.01031.0041-.0048.1199-.222665.0918-.000727-.01435-.351229.13677.222665-.09375z" fill="#55648f"/>
  <path d="m12.214844 12c5.617 6.397 6.3595 12.998031 6.0625 17.332031-.2602 3.7987-2.596559 5.221071-3.042969 5.400391-.9307.3739-3.117175.933894-6.234375-1.066406 0 2.334 2.004188 4.333984 5.492188 4.333984s6.342828-2.800078 6.923828-5.955078c2.0132-16.2861-1.816407-18.574219-1.816407-18.574219s-3.506865-1.470703-7.384765-1.470703zm10.785156 0c1 4.322 8.917969 6.022172 8.917969 8.076172 0 2.055-5.418938 2.408281-5.335938 5.738281.084 4.605 6.584969 10.697547 13.417969 12.185547-3-3.542-10.582031-11.264047-8.082031-13.248047 9.0003-6.2343.748731-11.335053-8.917969-12.751953z" opacity=".2"/>
  <g fill="#fff">
   <path d="m12.214844 11c5.617 6.397 6.3595 12.998031 6.0625 17.332031-.2602 3.7987-2.596559 5.221071-3.042969 5.400391-.9307.3739-3.117175.933894-6.234375-1.066406 0 2.334 2.004188 4.333984 5.492188 4.333984s6.342828-2.800078 6.923828-5.955078c2.0132-16.2861-1.816407-18.574219-1.816407-18.574219s-3.506865-1.470703-7.384765-1.470703zm10.785156 0c1 4.322 8.917969 6.022172 8.917969 8.076172 0 2.055-5.418938 2.408281-5.335938 5.738281.084 4.605 6.584969 10.697547 13.417969 12.185547-3-3.542-10.582031-11.264047-8.082031-13.248047 9.0003-6.2343.748731-11.335053-8.917969-12.751953z"/>
   <path d="m12.214844 6a5.0007069 5.0005 0 0 0 -4.9687502 5.5 5.0007069 5.0005 0 0 1 4.9687502-4.5c3.430027 0 5.882195.689192 7.5 1.2402344a5.0007069 5.0005 0 0 1 4.009765-1.1875c5.48343.8037024 10.626878 2.1902379 14.339844 6.0507816 1.380716 1.435594 2.502513 3.652326 2.667969 5.992187.13839-2.696249-1.091638-5.353203-2.667969-6.992187-3.712966-3.8605437-8.856414-5.2470792-14.339844-6.0507816a5.0007069 5.0005 0 0 0 -4.009765 1.1875c-1.617805-.5510424-4.069973-1.2402344-7.5-1.2402344zm25.367187 20.320312c-.124923.125991-.238405.259057-.367187.382813.256044.41324.307672.58462.689453 1.095703 1.693315 2.266814 4.227587 4.979973 5.912109 6.96875a5.0007069 5.0005 0 0 1 1.15625 2.730469 5.0007069 5.0005 0 0 0 -1.15625-3.730469c-1.684522-1.988777-4.218794-4.701936-5.912109-6.96875-.156504-.209509-.239892-.343115-.322266-.478516zm-24.261719.8125c-.008468.289954-.012683.586506-.03125.857422-.053419.779914-.216284.945656-.330078 1.09961-.224324-.0595-.489736-.139961-1.257812-.632813a5.0007069 5.0005 0 0 0 -7.701172 4.208985c0 .170974.0203928.337287.03125.505859a5.0007069 5.0005 0 0 1 7.669922-3.714844c.768076.492852 1.033488.573313 1.257812.632813.103459-.139971.243138-.313623.308594-.925782-.031773.011694-.050577.030328-.11914.021485-.000403-.007952.121456-.053312.123046-.052735.005129-.051533.013599-.084476.017578-.142578.039247-.572688.045873-1.202827.03125-1.857422zm21.789063 1.427735c-.128747.092467-.210221.209641-.341797.300781l.259766-.193359c.03305-.026232.049811-.078902.082031-.107422zm-21.738281 1.53125c-.573894.23052-.223383.0794-.222656.09375.217865.0281.212346-.087697.222656-.091797a5.0007069 5.0005 0 0 0 0-.001953z" opacity=".1"/>
  </g>
 </g>
</svg>
