<svg clip-rule="evenodd" fill-rule="evenodd" stroke-linejoin="round" stroke-miterlimit="2" viewBox="0 0 48 48" xmlns="http://www.w3.org/2000/svg">
 <linearGradient id="a" x2="1" gradientTransform="matrix(0 -43.336 43.336 0 24 45.668)" gradientUnits="userSpaceOnUse">
  <stop stop-color="#e4e4e4" offset="0"/>
  <stop stop-color="#fff" offset="1"/>
 </linearGradient>
 <linearGradient id="b" x2="1" gradientTransform="matrix(0 -31.0532 31.0532 0 24 39.127)" gradientUnits="userSpaceOnUse">
  <stop stop-color="#273f84" offset="0"/>
  <stop stop-color="#43599b" offset="1"/>
 </linearGradient>
 <path d="m39.44 2.332c3.438 0 6.228 2.79 6.228 6.228v30.88c0 3.438-2.79 6.228-6.228 6.228h-30.88c-3.438 0-6.228-2.79-6.228-6.228v-30.88c0-3.438 2.79-6.228 6.228-6.228z" fill="url(#a)"/>
 <path transform="matrix(1.0834 0 0 1.0834 -2.0016 -2.0016)" d="m13.609 8.076c-.006.538-.013 1.075-.019 1.613 2.738 1.154 7.198 3.779 9.262 7.596-.514-6.435-9.226-9.308-9.243-9.209zm20.782 0c-.017-.099-8.729 2.774-9.243 9.209 2.064-3.817 6.524-6.442 9.262-7.596-.006-.538-.013-1.075-.019-1.613zm-23.311 2.231c-.021 1.018-.042 2.036-.062 3.054 2.685.554 9.31 3.075 11.982 7.879-.595-8.145-11.894-11.091-11.92-10.933zm25.84 0c-.026-.158-11.325 2.788-11.92 10.933 2.672-4.804 9.297-7.325 11.982-7.879-.02-1.018-.041-2.036-.062-3.054zm-27.08 4.316c-.144-.013-.224-.012-.227.002-.047 1.899-.095 3.798-.142 5.697 5.72.334 6.064 3.94 5.718 6.246l-5.906 1.922-.283 10.637 10.367-4.072c1.211-.502 2.422-.984 3.633-1.426v-7.334c0-3.275-1.646-6.402-4.541-8.397-3.418-2.354-7.611-3.181-8.619-3.275zm28.32 0c-1.008.094-5.201.921-8.619 3.275-2.894 1.995-4.541 5.122-4.541 8.397v7.334c1.211.442 2.422.924 3.633 1.426l10.367 4.072-.283-10.637-5.906-1.922c-.346-2.306-.002-5.912 5.718-6.246-.047-1.899-.095-3.798-.142-5.697-.003-.014-.083-.015-.227-.002z" fill="url(#b)" fill-rule="nonzero"/>
</svg>
