<svg clip-rule="evenodd" fill-rule="evenodd" stroke-linejoin="round" stroke-miterlimit="2" viewBox="0 0 64 64" xmlns="http://www.w3.org/2000/svg">
 <linearGradient id="a" x2="1" gradientTransform="matrix(-.635236 -52.5533 52.5533 -.635236 33.9454 57)" gradientUnits="userSpaceOnUse">
  <stop stop-color="#2a2a2a" offset="0"/>
  <stop stop-color="#4f4f4f" offset="1"/>
 </linearGradient>
 <g fill-rule="nonzero">
  <path d="m43.431 7.001c-2.537.192-4.112 1.084-5.802 2.375-1.554-.423-3.12-.63-4.09-.435-2.224.445-3.806 1.339-5.243 2.791-.083 0-.172-.076-.254-.078-2.289-.036-3.351.616-3.879.809-1.025.363-1.869 1.202-2.626 1.843-.795-.904-1.895-2.195-2.496-2.846-1.762-1.982-3.342-3.255-4.712-3.744-1.959-.685-4.298-.509-6.016.214-1.719.722-2.933 1.799-3.934 2.943-.335.382-1.521 1.204-2.165 3.709-.643 2.505.293 4.838 1.094 6.217 1.602 2.757 3.878 5.277 8.712 11.139.26.315.421.511.676.82-.672.385-1.375.708-1.945 1.279-1.778 1.78-2.566 4.234-2.626 6.279-.075 2.587 1.084 4.577 2.223 5.883 1.139 1.305 2.383 2.153 3.692 2.818 1.36.691 1.55.67 2.786 1.139 1.235.469 2.853 1.066 4.688 1.723 3.669 1.313 8.183 2.855 12.197 4.059 1.86.558 3.355.979 5.219 1.057 1.143.048 2.474-.27 3.739-.738.799-.202 1.548-.564 2.2-1.066h.011c1.313-1.011 4.183-3.424 7.271-6.026 3.089-2.603 5.497-4.584 6.892-5.917.451-.432 1.043-.959 1.707-1.987.663-1.028 1.198-2.646 1.242-3.962.089-2.631-.59-3.811-1.246-5.711-1.492-4.322-3.481-8.988-5.446-12.955-.983-1.983-1.951-3.783-2.911-5.33-.959-1.547-1.555-2.735-3.457-4.234-1.878-1.481-3.716-2.088-5.501-2.069v.001z" fill="url(#a)"/>
  <path d="m41.213 50.431c1.698-1.315 12.585-10.534 13.679-11.584 1.439-1.382 1.451-1.745.182-5.438-2.778-8.083-7.665-18.129-9.864-19.872-.916-.725-2.605-.714-3.792.022-1.656 1.031-1.582 2.417.302 5.709.679 1.185 1.235 2.635 1.235 2.734 0 .098-.236.18-.524.18-.369 0-1.212-1.045-2.85-3.533-2.493-3.786-3.212-4.388-4.85-4.058-1.235.249-2.641 1.203-3.105 2.106-.536 1.044-.315 1.572 2.182 5.2 1.533 2.229 1.951 3.026 1.713 3.266-.173.176-.402.317-.509.317s-1.503-1.793-3.102-3.985c-1.023-1.401-1.821-2.431-2.416-3.116-1.024-1.393-1.994-.96-3.249-.499-.898.442-1.807 1.078-2.255 1.67-1.053 1.39-.898 2.269.832 4.697.831 1.167 2.065 2.806 2.742 3.643 1.184 1.465 1.47 2.497.757 2.734-.415.136-.199.374-8.152-8.974-4.925-5.79-7.238-8.308-7.816-8.511-1.089-.383-2.276.118-3.44 1.454-1.72 1.974-1.922 1.624 7.756 13.417 4.751 5.788 8.759 10.682 8.906 10.874.547.715-.934-.134-3.53-1.002-2.185-.73-2.977-.87-4.408-.778-2.372.198-3.45 1.501-3.502 3.304-.037 1.258 1.17 2.471 2.645 3.224.845.431 10.989 4.238 18.672 6.553 3.357 1.012 4.696 1.069 5.761.244z" fill="#fff"/>
 </g>
</svg>
