<svg clip-rule="evenodd" fill-rule="evenodd" stroke-linejoin="round" stroke-miterlimit="2" viewBox="0 0 48 48" xmlns="http://www.w3.org/2000/svg">
 <linearGradient id="a" x2="1" gradientTransform="matrix(0 -45.528 45.528 0 24 46.764)" gradientUnits="userSpaceOnUse">
  <stop stop-color="#910000" offset="0"/>
  <stop stop-color="#e74c3c" offset="1"/>
 </linearGradient>
 <path d="m24 1.236c12.563 0 22.764 10.201 22.764 22.764s-10.201 22.764-22.764 22.764-22.764-10.201-22.764-22.764 10.201-22.764 22.764-22.764z" fill="url(#a)"/>
 <path d="m21.086 40.968c5.557.392 14.094-.219 14.296-3.13 0 0-.387 1.104-4.593 1.977-4.743.991-10.596.874-14.065.242 0 0 .709.649 4.362.911zm12.341-4.869c3.193 1.596-6.943 4.8-19.261 2.589-4.519-.81 2.174-3.636 3.397-2.683 0 0-.387-.031-1.064.131-.649.157-2.714.891-1.613 1.423 3.064 1.474 14.094 1.121 17.579-.049 1.807-.606.988-1.385.962-1.411zm-13.476-2.766s-1.181.76.839 1.016c2.445.31 3.697.265 6.391-.299 0 0 .709.493 1.699.917-6.044 2.865-13.675-.165-8.929-1.634zm-.74-3.736s-1.323 1.081.697 1.315c2.615.296 4.675.321 8.249-.438 0 0 .493.552 1.269.856-7.307 2.362-15.442.185-10.215-1.733zm11.368 2.348c5.793-3.33 3.116-6.528 1.246-6.095-.458.105-.663.196-.663.196s.171-.296.495-.424c3.697-1.437 6.539 4.243-1.192 6.491 0 0 .088-.089.114-.168zm-10.062-6.223s-5.608 1.473-1.986 2.011c1.531.225 4.578.174 7.421-.091 2.322-.213 4.652-.674 4.652-.674s-.819.387-1.411.834c-5.697 1.659-16.7.885-13.533-.809 2.677-1.434 4.857-1.271 4.857-1.271zm4.917-2.468c1.491 1.896-.39 3.603-.39 3.603s3.782-2.16 2.046-4.863c-1.622-2.521-2.865-3.773 3.864-8.093 0 0-10.565 2.92-5.52 9.353zm1.656-16.327c.017.02 3.187 3.565-3.042 9.006-5.011 4.379-1.144 6.875-.002 9.729-2.926-2.923-5.071-5.492-3.631-7.882 2.111-3.512 7.967-5.216 6.675-10.853z" fill="#fff"/>
</svg>
