<svg clip-rule="evenodd" fill-rule="evenodd" stroke-linejoin="round" stroke-miterlimit="2" viewBox="0 0 48 48" xmlns="http://www.w3.org/2000/svg">
 <linearGradient id="a" x2="1" gradientTransform="matrix(-.0574389 -45.3863 45.3863 -.0574389 73.1191 46.5792)" gradientUnits="userSpaceOnUse">
  <stop stop-color="#7d1100" offset="0"/>
  <stop stop-color="#ff7246" offset="1"/>
 </linearGradient>
 <linearGradient id="b" x2="1" gradientTransform="matrix(-.395435 29.5547 -29.5547 -.395435 -702.673 -.759489)" gradientUnits="userSpaceOnUse">
  <stop stop-color="#fff" offset="0"/>
  <stop stop-color="#ececec" offset="1"/>
 </linearGradient>
 <circle cx="23.977" cy="24.023" r="22.943" fill="url(#a)"/>
 <path transform="translate(-.747531 -2.41509)" d="m23.997 26.02c-2.993-2.7-5.189-5.077-3.715-7.289 2.162-3.247 8.153-4.821 6.829-10.035 0 0 3.282 3.282-3.112 8.329-5.126 4.049-1.169 6.358-.002 8.995zm0 0h.294c-.208-.47-.512-.93-.83-1.391.265-.005.384-.022.536-.022.356 0 .374.01 1.23.054.163.527.07 1.01-.109 1.408-.568-.028-.47-.049-1.121-.049zm-1.973-1.374c.456.45.948.868 1.457 1.374-4.012.037-5.946.598-6.677 1.008.731.41 3.192 1.008 7.193 1.008s6.462-.598 7.193-1.008c-.569-.319-1.782-.747-4.351-.924.399-.369.781-.811.989-1.332 2.17.206 4.191.669 4.79 1.736.445-.199.894-.311 1.315-.311.52 0 .984.162 1.342.468 1.113.95.88 2.991-.532 4.646-1.102 1.293-3.036 1.432-3.817 1.432-.057 0-.095-.001-.135-.002-.3.377-.633.724-.987 1.047 1.685.45 2.964 1.17 2.964 2.287 0 2.323-5.51 2.942-8.765 2.942-3.256 0-8.764-.619-8.764-2.942 0-1.117 1.277-1.837 2.963-2.287-1.817-1.657-2.97-4.07-2.97-6.76.001-1.881 4.209-2.29 6.792-2.382zm11.909 2.964c-.317 0-.759.145-1.221.453-.127 1.147-.463 2.229-.969 3.206.639-.091 1.447-.315 1.925-.875.916-1.074 1.121-2.287.691-2.654-.101-.085-.245-.13-.426-.13zm-5.259 7.36c.03.088.051.181.051.282 0 1.289-2.569 1.56-4.722 1.56-2.155 0-4.723-.271-4.723-1.56 0-.1.021-.193.051-.281-1.717.361-2.601.858-2.681 1.12.135.409 2.519 1.514 7.353 1.514 4.832 0 7.219-1.105 7.354-1.545-.08-.244-.965-.733-2.683-1.09zm-3.254-11.175c-5.163-5.949 5.648-8.649 5.648-8.649-6.888 3.994-5.616 5.153-3.957 7.484 1.777 2.5-2.091 4.497-2.091 4.497s1.923-1.578.4-3.332z" fill="url(#b)"/>
</svg>
