<svg clip-rule="evenodd" fill-rule="evenodd" stroke-linejoin="round" stroke-miterlimit="2" viewBox="0 0 48 48" xmlns="http://www.w3.org/2000/svg">
 <linearGradient id="a" x2="1" gradientTransform="matrix(0 -33.6872 33.6872 0 923.28 40.4502)" gradientUnits="userSpaceOnUse">
  <stop stop-color="#c3cacc" offset="0"/>
  <stop stop-color="#fcfcfc" offset="1"/>
 </linearGradient>
 <path d="m39.44 45.668h-30.88c-3.438 0-6.228-2.79-6.228-6.228v-30.88c0-3.438 2.79-6.228 6.228-6.228h30.88c3.438 0 6.228 2.79 6.228 6.228v30.88c0 3.438-2.79 6.228-6.228 6.228z" fill="url(#a)"/>
 <path d="m16.861 37.833c.43.315.951.472 1.562.472.826 0 1.499-.879 2.02-2.636.215-.847.804-3.635 1.766-8.365l1.596-7.628h-2.988c-.227 0-.34-.147-.34-.44.091-.488.238-.648.442-.653h3.106l.408-2.785c.136-.673.26-1.248.373-1.725.114-.489.232-.939.357-1.351.136-.412.334-.873.594-1.383.396-.727.928-1.324 1.596-1.791.679-.477 1.409-.716 2.19-.716.51 0 1.002.093 1.477.277.487.174.883.439 1.189.798.305.358.458.781.458 1.269 0 .564-.198 1.058-.594 1.481-.385.412-.855.618-1.409.618-.374 0-.696-.108-.968-.325-.26-.228-.39-.521-.39-.879 0-.488.169-.911.509-1.269.351-.369.781-.581 1.29-.635-.43-.315-.962-.472-1.596-.472-.351 0-.684.157-1.001.472-.306.315-.504.651-.595 1.009-.147.564-.469 2.094-.967 4.589l-.425 2.818h3.583c.226 0 .339.068.339.361-.011.054-.034.151-.068.292-.034.131-.085.239-.153.326-.056.076-.13.114-.22.114h-3.718l-1.613 7.595c-.204 1.183-.442 2.387-.713 3.613-.261 1.215-.634 2.463-1.121 3.743-.475 1.291-1.087 2.371-1.834 3.239s-1.629 1.302-2.648 1.302c-.781 0-1.483-.217-2.105-.651-.612-.424-.917-.988-.917-1.693 0-.564.187-1.058.56-1.481.385-.412.866-.618 1.443-.618.385 0 .708.108.968.325.26.228.39.521.39.879 0 .477-.186.911-.56 1.302-.362.401-.786.602-1.273.602z" fill="#3f3f3f" fill-rule="nonzero"/>
</svg>
