<svg clip-rule="evenodd" fill-rule="evenodd" stroke-linejoin="round" stroke-miterlimit="2" viewBox="0 0 48 48" xmlns="http://www.w3.org/2000/svg">
 <linearGradient id="a" x2="1" gradientTransform="matrix(-.16285 -43.2931 43.2931 -.16285 25.011 45.6251)" gradientUnits="userSpaceOnUse">
  <stop stop-color="#306eb1" offset="0"/>
  <stop stop-color="#4e91d9" offset="1"/>
 </linearGradient>
 <path d="m8.56 2.332h30.88c3.438 0 6.228 2.79 6.228 6.228v30.88c0 3.438-2.79 6.228-6.228 6.228h-30.88c-3.438 0-6.228-2.79-6.228-6.228v-30.88c0-3.438 2.79-6.228 6.228-6.228z" fill="url(#a)"/>
 <path d="m13.166 17.5c-2.392 0-4.334-1.942-4.334-4.334s1.942-4.334 4.334-4.334 4.334 1.942 4.334 4.334-1.942 4.334-4.334 4.334zm10.834 0c-2.392 0-4.334-1.942-4.334-4.334s1.942-4.334 4.334-4.334 4.334 1.942 4.334 4.334-1.942 4.334-4.334 4.334zm-10.834 10.834c-2.392 0-4.334-1.942-4.334-4.334s1.942-4.334 4.334-4.334 4.334 1.942 4.334 4.334-1.942 4.334-4.334 4.334zm21.668 0c-2.392 0-4.334-1.942-4.334-4.334s1.942-4.334 4.334-4.334 4.334 1.942 4.334 4.334-1.942 4.334-4.334 4.334zm-10.834 10.834c-2.392 0-4.334-1.942-4.334-4.334s1.942-4.334 4.334-4.334 4.334 1.942 4.334 4.334-1.942 4.334-4.334 4.334zm10.834 0c-2.392 0-4.334-1.942-4.334-4.334s1.942-4.334 4.334-4.334 4.334 1.942 4.334 4.334-1.942 4.334-4.334 4.334z" fill="#aff"/>
 <path d="m34.834 17.5c-2.392 0-4.334-1.942-4.334-4.334s1.942-4.334 4.334-4.334 4.334 1.942 4.334 4.334-1.942 4.334-4.334 4.334zm-10.834 10.834c-2.392 0-4.334-1.942-4.334-4.334s1.942-4.334 4.334-4.334 4.334 1.942 4.334 4.334-1.942 4.334-4.334 4.334zm-10.834 10.834c-2.392 0-4.334-1.942-4.334-4.334s1.942-4.334 4.334-4.334 4.334 1.942 4.334 4.334-1.942 4.334-4.334 4.334z" fill="#ffd060"/>
</svg>
