<svg clip-rule="evenodd" fill-rule="evenodd" stroke-linejoin="round" stroke-miterlimit="2" viewBox="0 0 48 48" xmlns="http://www.w3.org/2000/svg">
 <linearGradient id="a" x2="1" gradientTransform="matrix(0 -49.5142 49.482 0 23.9597 48.5993)" gradientUnits="userSpaceOnUse">
  <stop stop-color="#ff9300" offset="0"/>
  <stop stop-color="#ffd702" offset="1"/>
 </linearGradient>
 <ellipse cx="23.984" cy="24" rx="22.749" ry="22.764" fill="url(#a)"/>
 <g fill-opacity=".8" fill-rule="nonzero">
  <path d="m34.419 18.293c-1.088-1.002-2.349-1.783-3.702-2.352-.176.266-.377.516-.606.745-.303.302-.643.562-1.013.769.392.13.769.278 1.131.448.367.173.509.624.305.977-.179.312-.571.435-.896.281-2.466-1.165-5.219-.946-6.427-.763-.356.052-.695-.173-.779-.523v-.003c-.096-.395.17-.788.572-.85.219-.034.485-.068.782-.095-.09-.078-.177-.158-.26-.241-.426-.427-.763-.924-.998-1.481-.025-.058-.05-.12-.071-.179-.368.062-.733.139-1.088.229-2.07-1.205-4.555-1.208-6.032-1.063-.643.062-1.023.748-.741 1.329l1.251 2.564c-1.391 1.212-2.441 2.695-3.031 4.348l-1.527-.006c-.513-.003-.93.414-.93.927v3.424c0 .346.192.661.497.822l1.981 1.032c.828 2.284 2.543 4.243 4.805 5.593v3.032c0 .596.486 1.081 1.082 1.081h2.775c.429 0 .819-.256.992-.649l.695-1.597c.6.074 1.208.111 1.833.111.982 0 1.937-.093 2.855-.269v1.323c0 .596.485 1.081 1.081 1.081h2.763c.399 0 .766-.219.955-.571 1.471-2.763 3.068-5.535 4.249-8.427.596-1.465.812-3.019.683-4.537-.21-2.447-1.323-4.799-3.186-6.51zm-16.6 5.75c-.77 0-1.391-.621-1.391-1.39 0-.77.621-1.391 1.391-1.391.769 0 1.39.621 1.39 1.391 0 .769-.621 1.39-1.39 1.39z"/>
  <path d="m25.448 16.862c.423.167.887.259 1.372.259.238 0 .47-.021.692-.065.946-.176 1.765-.71 2.312-1.455.454-.618.723-1.381.723-2.209.003-2.062-1.669-3.73-3.727-3.73-2.061 0-3.73 1.668-3.73 3.73 0 .534.112 1.041.315 1.501.393.897 1.132 1.607 2.043 1.969z"/>
 </g>
</svg>
