<svg clip-rule="evenodd" fill-rule="evenodd" stroke-linejoin="round" stroke-miterlimit="2" viewBox="0 0 48 48" xmlns="http://www.w3.org/2000/svg">
 <linearGradient id="a" x2="1" gradientTransform="matrix(0 -35.3911 35.3911 0 968.766 41.2823)" gradientUnits="userSpaceOnUse">
  <stop stop-color="#6d7476" offset="0"/>
  <stop stop-color="#919c9f" offset="1"/>
 </linearGradient>
 <circle cx="24" cy="24" r="22.764" fill="url(#a)"/>
 <path transform="matrix(-.965076 0 0 .965076 47.1619 -.195078)" d="m26.035 4c-.222.112-.476.196-.676.35-.385.299-.76.618-1.105.963-.379.377-.771.591-1.324.707-1.329.272-2.678.574-3.92 1.101-2.762 1.176-4.59 3.392-5.893 6.057-1.156 2.369-1.177 4.937-1.082 7.517.196 5.323 4.035 9.209 5.711 13.305h.434c-.654 0-1.18.445-1.18.998v2.004c0 .553.526.998 1.18.998h-1.637c-.855 0-1.543.668-1.543 1.498v3.004c0 .83.688 1.498 1.543 1.498h13.914c.855 0 1.543-.668 1.543-1.498v-3.004c0-.83-.688-1.498-1.543-1.498h-1.637c.654 0 1.18-.445 1.18-.998v-2.004c0-.553-.526-.998-1.18-.998h.182c.424-.398.829-1.111 1.207-1.518 1.713-1.834 2.019-4.437.816-6.666-.588-1.088-1.415-1.971-2.369-2.726-1.074-.85-2.184-1.651-3.267-2.488-.31-.24-.584-.525-.996-.901 1.021.218 1.836.501 2.658.543 1.419.071 2.643.547 3.779 1.383.439.323.949.582 1.463.762.668.232 1 .066 1.398-.545.105-.161.168-.347.268-.559.791.011 1.226-.451 1.443-1.191.074-.253.2-.487.291-.733.615-1.648.299-3.107-.879-4.379-.263-.291-.576-.533-.851-.812-.918-.928-1.841-1.851-2.736-2.801-.65-.691-1.235-1.443-1.891-2.129-.325-.338-.599-.676-.75-1.129-.228-.679-.656-1.201-1.279-1.554-.221-.125-.432-.271-.592-.375-.257-.758.352-1.706-.68-2.182z" fill="#e4e4e4" fill-rule="nonzero"/>
</svg>
