<svg clip-rule="evenodd" fill-rule="evenodd" stroke-linejoin="round" stroke-miterlimit="2" viewBox="0 0 48 48" xmlns="http://www.w3.org/2000/svg">
 <linearGradient id="a" x2="1" gradientTransform="matrix(-.47414 -33.0943 33.0943 -.47414 1238.88 22.8149)" gradientUnits="userSpaceOnUse">
  <stop stop-color="#f5dc1f" offset="0"/>
  <stop stop-color="#ff9f2d" offset="1"/>
 </linearGradient>
 <linearGradient id="b" x2="1" gradientTransform="matrix(-.363346 -25.361 25.361 -.363346 951.873 24.0138)" gradientUnits="userSpaceOnUse">
  <stop stop-color="#147966" stop-opacity=".33" offset="0"/>
  <stop stop-color="#2dcbc6" stop-opacity=".33" offset="1"/>
 </linearGradient>
 <path d="m39.44 2.332c3.438 0 6.228 2.79 6.228 6.228v30.88c0 3.438-2.79 6.228-6.228 6.228h-30.88c-3.438 0-6.228-2.79-6.228-6.228v-30.88c0-3.438 2.79-6.228 6.228-6.228z" fill="url(#a)"/>
 <path d="m8.56 2.332h15.44v43.336h-15.44c-3.438 0-6.228-2.79-6.228-6.228v-30.88c0-3.438 2.79-6.228 6.228-6.228z" fill="url(#b)"/>
 <circle cx="24" cy="36.383" r="7.146" fill="#005dff"/>
 <path d="m25.884 40.044c-.188 0-.376-.081-.513-.24-.351-.409-.851-.643-1.371-.643-.53 0-1.017.227-1.371.639-.257.301-.695.324-.979.051-.284-.272-.306-.734-.048-1.034.611-.712 1.485-1.12 2.398-1.12.911 0 1.785.409 2.398 1.123.257.3.236.762-.048 1.034-.132.128-.299.19-.465.19zm1.539-1.832c-.177 0-.354-.071-.489-.213-.785-.825-1.827-1.279-2.934-1.279-1.11 0-2.152.453-2.936 1.276-.271.285-.71.284-.98-.003s-.269-.75.003-1.035c1.044-1.098 2.434-1.702 3.913-1.702 1.476 0 2.865.605 3.912 1.705.272.285.273.748.003 1.035-.136.143-.314.216-.492.216zm1.535-1.829c-.173 0-.346-.068-.48-.203-1.211-1.226-2.801-1.9-4.478-1.9-1.681 0-3.272.673-4.48 1.898-.276.279-.715.27-.98-.022s-.256-.755.02-1.035c1.467-1.487 3.398-2.305 5.44-2.305 2.037 0 3.968.819 5.438 2.306.276.28.285.744.02 1.036-.136.15-.318.225-.5.225zm-5.045 5.433c.462 0 .837-.376.837-.84 0-.463-.375-.839-.837-.839-.463 0-.838.376-.838.839 0 .464.375.84.838.84z" fill="#fff" fill-opacity=".87" fill-rule="nonzero"/>
</svg>
