<svg clip-rule="evenodd" fill-rule="evenodd" stroke-linejoin="round" stroke-miterlimit="2" viewBox="0 0 48 48" xmlns="http://www.w3.org/2000/svg">
 <linearGradient id="a" x2="1" gradientTransform="matrix(0 -43.1166 43.1166 0 24 45.5583)" gradientUnits="userSpaceOnUse">
  <stop stop-color="#077fcd" offset="0"/>
  <stop stop-color="#5ca6ff" offset="1"/>
 </linearGradient>
 <path d="m39.44 2.332c3.438 0 6.228 2.79 6.228 6.228v30.88c0 3.438-2.79 6.228-6.228 6.228h-30.88c-3.438 0-6.228-2.79-6.228-6.228v-30.88c0-3.438 2.79-6.228 6.228-6.228z" fill="url(#a)"/>
 <path transform="matrix(1.0834 0 0 1.0834 -2.0016 -2.0016)" d="m42 17c0-.552-.448-1-1-1h-34c-.552 0-1 .448-1 1v12c0 .552.448 1 1 1h34c.552 0 1-.448 1-1z" fill="#3e49db"/>
 <g transform="matrix(0 1.0834 -1.0834 0 -2.0016 -2.0016)">
  <path d="m27-19.538c0-.255-.207-.462-.462-.462h-14.076c-.255 0-.462.207-.462.462v8.076c0 .255.207.462.462.462h14.076c.255 0 .462-.207.462-.462z" fill="#00f0d7"/>
  <path d="m27-36.538c0-.255-.207-.462-.462-.462h-14.076c-.255 0-.462.207-.462.462v9.076c0 .255.207.462.462.462h14.076c.255 0 .462-.207.462-.462z" fill="#ffcd36"/>
 </g>
 <path transform="matrix(1.0834 0 0 1.0834 -2.0016 -2.0016)" d="m16 34c0 .552.448 1 1 1h14c.552 0 1-.448 1-1v-11c0-.552-.448-1-1-1h-14c-.552 0-1 .448-1 1z" fill="#c01a23"/>
</svg>
