<svg clip-rule="evenodd" fill-rule="evenodd" stroke-linejoin="round" stroke-miterlimit="2" viewBox="0 0 48 48" xmlns="http://www.w3.org/2000/svg">
 <linearGradient id="a" x2="1" gradientTransform="matrix(0 -33.6872 33.6872 0 923.28 40.4502)" gradientUnits="userSpaceOnUse">
  <stop stop-color="#d2d6d8" offset="0"/>
  <stop stop-color="#ffffff" offset="1"/>
 </linearGradient>
 <path d="m39.44 45.668h-30.88c-3.438 0-6.228-2.79-6.228-6.228v-30.88c0-3.438 2.79-6.228 6.228-6.228h30.88c3.438 0 6.228 2.79 6.228 6.228v30.88c0 3.438-2.79 6.228-6.228 6.228z" fill="url(#a)"/>
 <path d="m33 8c0-2.208-1.792-4-4-4h-8c-2.208 0-4 1.792-4 4v21c0 2.208 1.792 4 4 4h8c2.208 0 4-1.792 4-4z" fill="#2c96ff"/>
 <path d="m26.501 13.997c-.828 0-1.5.672-1.5 1.5s.672 1.5 1.5 1.5 1.5-.672 1.5-1.5-.672-1.5-1.5-1.5m17.5 9c-.552 0-1 .448-1 1s.448 1 1 1 1-.448 1-1-.448-1-1-1m-35.5-6c-.828 0-1.5.672-1.5 1.5s.672 1.5 1.5 1.5 1.5-.672 1.5-1.5-.672-1.5-1.5-1.5m11.775 1.1c-.067.008-.132.027-.195.055-.506.222-.677.944-.012 2.461.666 1.517 1.615 2.568 2.121 2.346s.376-1.631-.289-3.148c-.582-1.328-1.153-1.771-1.625-1.713m-5.988.635c-.395-.034-.937.359-.445.918.655.746 1 2.074.416 2.34-.587.266-.544-.99-.596-1.658-.051-.668-1.677-1.07-2.277-.242s.004 1.72.598 1.9c.594.181.686.861 1.039 1.568.354.707 2.076.53 2.496 0s.681-1.515-.137-2.424-.57-1.753-.791-2.217c-.055-.116-.171-.174-.303-.186m19.494.078c-.531-.125-.75.875-.875 1.813s-.594 1.906-.188 2.094c.563.25.85-1.288 1.486-1.863.636-.576.107-1.918-.424-2.043m-16.781.188c-.552 0-1 .448-1 1s.448 1 1 1 1-.448 1-1-.448-1-1-1m12.152.236c-.65.048-1.297 1.157-1.615 1.926-.364.878.076 2.59-.781 3.232-.857.643-1.484.661-1.912.404s.367-.224-.111-1.203c-.479-.979-1.624-.673-1.924.09s.322.728.107 1.178c-.214.45-2.036.936-2.443-.414s-1.853-2.819-2.303-2.455.054 1.706 1.232 2.777-.302 1.648-1.326.842c-1.024-.807-2.228.613-3.16 1.563-.933.949-1.766 1.014-2.43.445-.663-.568-.08-2.114-.846-3.668-.765-1.554-2.286-.78-2.5.27s1.92 1.757 1.506 2.34-2.069.451-2.557-.648c-.487-1.099-1.549-.743-1.57.156-.021.9.822.272 1.48.93 0 0 11.999 17 17 17s17-17 17-17c2-2-.29-1.143-.762-.693-.471.45-1.928.815-2.1.322-.171-.493 1.632-1.32 2.146-1.877s1.017-2.139.186-2.719-2.01.467-2.521 1.238c-.514.771-.068 2.736-.754 3.336s-1.063.235-1.191-.279c-.129-.514 1.48-1.237.805-2.516-.676-1.279-1.924-.699-2.502-.1-.578.6.348 1.524.563 2.467.214.943-1.979.919-2.836.576s-1.136-2.498-1.5-2.627-1.292.714-2.471.35c-1.178-.364-.2-1.09.164-1.947s.939-2.922.203-3.246c-.092-.041-.185-.056-.277-.049m10.348-1.236c-.828 0-1.5.672-1.5 1.5s.672 1.5 1.5 1.5 1.5-.672 1.5-1.5-.672-1.5-1.5-1.5m-34.5 4c-.552 0-1 .448-1 1s.448 1 1 1 1-.448 1-1-.448-1-1-1" fill="#275ce3" fill-rule="nonzero"/>
</svg>
