<svg clip-rule="evenodd" fill-rule="evenodd" stroke-linejoin="round" stroke-miterlimit="2" viewBox="0 0 48 48" xmlns="http://www.w3.org/2000/svg">
 <linearGradient id="a" x2="1" gradientTransform="matrix(0 -49.5461 49.5461 0 23.9753 48.6151)" gradientUnits="userSpaceOnUse">
  <stop stop-color="#814f32" offset="0"/>
  <stop stop-color="#ff9435" offset="1"/>
 </linearGradient>
 <linearGradient id="b" x2="1" gradientTransform="matrix(-.0467315 30.5762 -30.5762 -.0467315 24.0467 5.6207)" gradientUnits="userSpaceOnUse">
  <stop stop-color="#fff" offset="0"/>
  <stop stop-color="#cacaca" offset="1"/>
 </linearGradient>
 <ellipse cx="24" cy="24" rx="22.764" ry="22.779" fill="url(#a)"/>
 <path d="m28.763 17.699c-.676 1.18-4.051 6.416-4.434 7.112s-.767 1.407-1.15 2.134c-.384.726-.807 1.417-1.271 2.073s-1.04 1.206-1.726 1.65c.465.181.919.353 1.362.514.444.162 2.31.898 2.8.999 3.489.711 6.059.568 7.427.13 2.47-.791 2.394-1.72 2.862-2.111.162.041.045 1.72-1.773 2.66-2.745 1.42-5.354 1.573-8.471 1.303-.483-.042-2.451-.423-2.935-.575-.485-.151-.939-.297-1.362-.439-.343-.101-.686-.257-1.029-.469s-.696-.328-1.06-.348c-.222 0-.423.051-.605.152-.182.1-.373.201-.575.302-.424.202-.888.363-1.392.484-.424.122-.863.238-1.317.349-.454.11-.913.191-1.377.242-.464.05-.933.065-1.407.045s-.934-.101-1.377-.242c-.303-.101-.626-.257-.969-.469s-.625-.459-.847-.742c-.222-.282-.343-.59-.364-.923-.02-.333.142-.671.485-1.014.585-.585 1.301-.973 2.149-1.165.847-.192 1.654-.298 2.421-.318.524-.02 1.059.02 1.604.121s1.079.232 1.604.394c.182.04.378.111.59.212.212.1.419.131.621.09.222-.04.383-.151.484-.333.101-.181.202-.353.303-.514.645-.948 1.246-1.877 1.8-2.785.555-.907 1.095-1.876 1.62-2.905.333-.653 3.359-5.715 4.449-7.279 1.089-1.564 2.36-2.991 3.813-4.283.646-.585 1.337-1.124 2.073-1.619.737-.494 1.529-.903 2.376-1.226.303-.1.641-.196 1.014-.287s.757-.141 1.15-.151c.394-.011.772.025 1.135.105.363.081.686.243.969.485.383.363.59.802.62 1.316.031.515-.198 1.358-.586 1.78-.588.643-1.152 1.066-2.797 1.406.315-.47 1.133-1.718 1.325-2.142.192-.423.247-.837.167-1.24-.061-.243-.182-.424-.364-.545-.181-.121-.378-.187-.59-.197s-.434.015-.666.076c-.232.06-.438.131-.62.212-.444.222-.847.499-1.211.832-.363.333-.706.706-1.029 1.12-.323.413-.63.837-.923 1.271-.292.434-.57.842-.832 1.226-.767 1.17-1.488 2.345-2.164 3.526zm-12.999 13.483c-.646-.303-1.337-.56-2.074-.772-.736-.212-1.478-.267-2.224-.166-.202.04-.424.101-.666.181-.242.081-.454.187-.636.318-.181.131-.317.303-.408.515s-.086.449.015.711c.081.222.212.388.393.499.182.111.389.187.621.227.232.041.464.061.696.061s.459-.01.681-.03c.686-.061 1.337-.217 1.952-.469.616-.253 1.165-.611 1.65-1.075z" fill="url(#b)" fill-rule="nonzero"/>
 <path d="m24 39.796.541 1.663h1.748l-1.414 1.028.539 1.663-1.414-1.028-1.414 1.028.539-1.663-1.414-1.028h1.748zm6.356-1.262.54 1.663h1.749l-1.415 1.028.54 1.664-1.414-1.028-1.416 1.028.541-1.664-1.415-1.028h1.749zm-12.618 0 .541 1.663h1.748l-1.414 1.028.539 1.664-1.414-1.028-1.414 1.028.539-1.664-1.414-1.028h1.748z" fill="#ebebeb"/>
</svg>
