<svg clip-rule="evenodd" fill-rule="evenodd" stroke-linejoin="round" stroke-miterlimit="2" viewBox="0 0 48 48" xmlns="http://www.w3.org/2000/svg">
 <linearGradient id="a" x2="1" gradientTransform="matrix(-.00109739 -43.1476 43.1476 -.00109739 39.8673 45.363)" gradientUnits="userSpaceOnUse">
  <stop stop-color="#b7b4b4" offset="0"/>
  <stop stop-color="#f1f1f1" offset="1"/>
 </linearGradient>
 <linearGradient id="b" x2="1" gradientTransform="matrix(0 -42.2226 42.2226 0 107.659 44.3392)" gradientUnits="userSpaceOnUse">
  <stop stop-color="#ec2e5b" offset="0"/>
  <stop stop-color="#f46587" offset="1"/>
 </linearGradient>
 <linearGradient id="c" x2="1" gradientTransform="matrix(0 -19.8205 19.8205 0 329.832 35.2201)" gradientUnits="userSpaceOnUse">
  <stop stop-color="#f6fbff" offset="0"/>
  <stop stop-color="#eaeff2" offset="1"/>
 </linearGradient>
 <path d="m42.397 45.363-12.085-.014v-43.099l12.431-.045c2.16.026 3.24 1.708 3.24 3.729v35.526c.094 2.219-1.372 3.855-3.586 3.903z" fill="url(#a)"/>
 <path d="m23.275 2.257 16.512-1.548c2.209-.223 3.174.962 3.191 3.337l-.14 39.051c-.04 2.642-1.222 4.026-3.552 4.123l-15.903-1.857h-16.984c-2.169 0-4.373-1.766-4.385-4.518v-34.223c.083-3.166 1.403-4.359 4.569-4.417z" fill="url(#b)"/>
 <path d="m42.838 43.097c-.04 2.642-1.222 4.026-3.552 4.123l-16.083-1.878v-43.078l16.584-1.555c2.209-.223 3.174.962 3.191 3.337z" fill-opacity=".15"/>
 <path d="m22.891 15.409-6.773 11.726-2.371-4.11h-.005-3.05v1.525h2.177l3.251 5.631.878-1.521 6.777-11.732h9.787v1.523h1.525v-3.042zm3.202 5.03-2.801.494v.377c.209-.014.396-.021.557-.021.503 0 .883.095 1.142.283.258.189.469.511.63.966.035.098.269.995.702 2.694-.175.391-.545 1.028-1.111 1.909s-1.014 1.453-1.343 1.719c-.133.112-.241.169-.325.169-.098 0-.238-.081-.419-.242-.252-.223-.49-.335-.714-.335-.223 0-.412.076-.566.23s-.231.347-.231.577c0 .259.085.466.253.619.23.203.484.304.764.304.398 0 .812-.174 1.238-.523.657-.545 1.531-1.767 2.621-3.661.462 2.076.766 3.252.913 3.525.231.44.542.659.933.659.266 0 .59-.154.975-.461.678-.546 1.239-1.23 1.679-2.055l-.368-.189c-.273.517-.602.938-.986 1.26-.196.16-.367.241-.514.241-.091 0-.181-.052-.272-.158-.091-.112-.203-.444-.336-.996l-.859-3.607c.602-1.042 1.119-1.744 1.553-2.108.23-.195.429-.294.597-.294.112 0 .332.057.66.169.168.063.326.092.472.092.252 0 .476-.086.672-.261.105-.098.156-.281.156-.546 0-.231-.09-.426-.272-.587-.175-.161-.413-.241-.714-.241-.202 0-.387.035-.555.105-.266.112-.573.32-.922.628-.35.3-.647.619-.891.955l-.924 1.385c-.287-1.07-.493-1.731-.619-1.983-.175-.363-.433-.727-.775-1.091z" fill="url(#c)" fill-rule="nonzero"/>
</svg>
