<svg clip-rule="evenodd" fill-rule="evenodd" stroke-linejoin="round" stroke-miterlimit="2" viewBox="0 0 48 48" xmlns="http://www.w3.org/2000/svg">
 <linearGradient id="a" x2="1" gradientTransform="matrix(-.00109739 -43.1476 43.1476 -.00109739 135.008 45.3606)" gradientUnits="userSpaceOnUse">
  <stop stop-color="#d9dfdf" offset="0"/>
  <stop stop-color="#ffffff" offset="1"/>
 </linearGradient>
 <linearGradient id="b" x2="1" gradientTransform="matrix(0 -42.321 41.8942 0 135.672 44.5074)" gradientUnits="userSpaceOnUse">
  <stop stop-color="#ec2e5b" offset="0"/>
  <stop stop-color="#f46587" offset="1"/>
 </linearGradient>
 <path d="m35.071 2.164h4.369c3.438 0 6.228 2.79 6.228 6.228v30.88c0 3.438-2.79 6.228-6.228 6.228h-9.129v-43.319l4.76-.017z" fill="url(#a)"/>
 <path d="m24 2.332 15.714-1.556c2.209-.225 3.174.967 3.191 3.355l-.068 39.119c-.04 2.656-1.222 4.047-3.552 4.145l-15.105-1.867-15.62-.028c-3.388-.018-6.252-2.672-6.228-6.228 0 0-.072 1.829-.072-30.736 0-3.41 2.818-6.228 6.228-6.228z" fill="url(#b)"/>
 <path d="m42.837 43.25c-.04 2.656-1.222 4.047-3.552 4.145l-15.285-1.888v-43.175l15.714-1.556c2.209-.225 3.174.967 3.191 3.355z" fill-opacity=".15"/>
 <path d="m22.891 15.409-6.773 11.726-2.371-4.11h-3.055v1.525h2.177l3.251 5.631.878-1.521 6.777-11.732h9.787v1.523h1.525v-3.042zm3.202 5.03-2.801.494v.377c.209-.014.396-.021.557-.021.503 0 .883.095 1.142.283.258.189.469.511.63.966.035.098.269.995.702 2.694-.175.391-.545 1.028-1.111 1.909s-1.014 1.453-1.343 1.719c-.133.112-.241.169-.325.169-.098 0-.238-.081-.419-.242-.252-.223-.49-.335-.714-.335-.223 0-.412.076-.566.23s-.231.347-.231.577c0 .259.085.466.253.619.23.203.484.304.764.304.398 0 .812-.174 1.238-.523.657-.545 1.531-1.767 2.621-3.661.462 2.076.766 3.252.913 3.525.231.44.542.659.933.659.266 0 .59-.154.975-.461.678-.546 1.239-1.23 1.679-2.055l-.368-.189c-.273.517-.602.938-.986 1.26-.196.16-.367.241-.514.241-.091 0-.181-.052-.272-.158-.091-.112-.203-.444-.336-.996l-.859-3.607c.602-1.042 1.119-1.744 1.553-2.108.23-.195.429-.294.597-.294.112 0 .332.057.66.169.168.063.326.092.472.092.252 0 .476-.086.672-.261.105-.098.156-.281.156-.546 0-.231-.09-.426-.272-.587-.175-.161-.413-.241-.714-.241-.202 0-.387.035-.555.105-.266.112-.573.32-.922.628-.35.3-.647.619-.891.955l-.924 1.385c-.287-1.07-.493-1.731-.619-1.983-.175-.363-.433-.727-.775-1.091z" fill="#ffffff" fill-opacity=".75" fill-rule="nonzero"/>
</svg>
