<svg clip-rule="evenodd" fill-rule="evenodd" stroke-linejoin="round" stroke-miterlimit="2" viewBox="0 0 48 48" xmlns="http://www.w3.org/2000/svg">
 <circle cx="24" cy="24" r="22.469" fill="#3f3f3f"/>
 <path d="m32.708 2.977c4.892 4.052 7.942 10.62 6.835 17.003-.705 4.408-3.736 8.379-8.222 9.502-2.645.721-6.02-.141-7.242-2.79-.581-1.155-.359-2.139.109-3.285.554-2.405-1.446-4.334-3.701-4.87-3.772-1.023-7.707.85-9.801 3.946-3.292 4.729-3.078 11.215-.469 16.201 1.268 2.444 3.019 4.685 5.183 6.382 7.147 2.989 15.781 1.938 22.002-2.678 6.313-4.519 9.956-12.44 9.282-20.173-.544-7.728-5.361-14.968-12.281-18.452-.554-.285-1.12-.546-1.695-.786z" fill="#3f3f3f" fill-rule="nonzero"/>
 <path d="m32.708 2.977-17.416 42.046c-4.892-4.052-7.942-10.62-6.835-17.003.705-4.408 3.736-8.378 8.222-9.502 2.645-.72 6.02.141 7.242 2.791.581 1.155.359 2.138-.109 3.284-.554 2.405 1.446 4.334 3.701 4.871 3.772 1.022 7.707-1.193 9.801-4.288 3.292-4.73 3.078-10.874.468-15.86-1.267-2.444-3.018-4.685-5.182-6.382-7.147-2.989-15.781-1.938-22.002 2.678-6.3 4.51-9.942 12.407-9.286 20.126.528 7.745 5.351 15.008 12.285 18.499.554.285 1.12.546 1.695.786" fill="#e4e4e4" fill-rule="nonzero"/>
 <circle cx="17.743" cy="24.569" r="1.707" fill="#e4e4e4"/>
 <circle cx="30.257" cy="24.569" r="1.707" fill="#3f3f3f"/>
</svg>
