<svg width="48" height="48" xmlns="http://www.w3.org/2000/svg">
 <path d="m9 6h30v14h-30z" fill="#b7b7b7"/>
 <rect x="4" y="18" width="40" height="24" rx="2" fill="#4f4f4f"/>
 <path d="m12 23h24v4h-24z" opacity=".4"/>
 <path d="m14 29h20v4h-20z" opacity=".4"/>
 <path d="m16 35h16v4h-16z" opacity=".4"/>
 <path d="m9 6v1h30v-1z" fill="#fff" opacity=".2"/>
 <path d="m4 40v1c0 1.108.892 2 2 2h36c1.108 0 2-.892 2-2v-1c0 1.108-.892 2-2 2h-36c-1.108 0-2-.892-2-2z" opacity=".2"/>
 <circle cx="36" cy="37" r="11" opacity=".2"/>
 <circle cx="36" cy="36" r="11" fill="#ba22ff"/>
 <path d="m12 9h6v4h-6z" opacity=".5"/>
 <path d="m30 9h6v4h-6z" opacity=".5"/>
 <path d="m30 36c0 3.3137 2.6863 6 6 6 3.2801 0 5.9403-2.6332 5.9941-5.9004a1 1 0 0 0 6e-3 -0.09961 1 1 0 0 0-1-1 1 1 0 0 0-1 1c0 2.2091-1.7909 4-4 4s-4-1.7909-4-4 1.7909-4 4-4v2l4-3-4-3v2c-3.3137 0-6 2.6863-6 6z" fill="#fff"/>
</svg>
