<svg clip-rule="evenodd" fill-rule="evenodd" stroke-linejoin="round" stroke-miterlimit="2" viewBox="0 0 48 48" xmlns="http://www.w3.org/2000/svg">
 <linearGradient id="a" x2="1" gradientTransform="matrix(0 -33.6872 33.6872 0 923.28 40.4502)" gradientUnits="userSpaceOnUse">
  <stop stop-color="#006783" offset="0"/>
  <stop stop-color="#13bee3" offset="1"/>
 </linearGradient>
 <path d="m39.44 45.668h-30.88c-3.438 0-6.228-2.79-6.228-6.228v-30.88c0-3.438 2.79-6.228 6.228-6.228h30.88c3.438 0 6.228 2.79 6.228 6.228v30.88c0 3.438-2.79 6.228-6.228 6.228z" fill="url(#a)"/>
 <g fill="#dfdfdf">
  <path transform="matrix(.0134563 0 0 .0134563 15.3027 14.9952)" d="m646.99 111.73c-319.2 0-577.97 258.77-577.97 577.97 0 148.6 56.102 284.09 148.26 386.48l380.7 496.75c26.957 35.17 71.069 35.17 98.026 0l380.704-496.75c92.15-102.4 148.26-237.88 148.26-386.48-.01-319.2-258.774-577.97-577.974-577.97zm0 762.42c-133.44 0-241.61-108.17-241.61-241.61s108.17-241.61 241.61-241.61 241.61 108.17 241.61 241.61c.001 133.44-108.17 241.61-241.61 241.61z" fill-rule="nonzero"/>
  <path transform="matrix(1.13821 0 0 1.01363 -3.31558 -4.52469)" d="m17.365 20.085c1.653-1.783 4.015-2.899 6.635-2.899 2.627 0 4.993 1.122 6.647 2.912.206.223.555.236.777.03.223-.205.237-.554.031-.777-1.855-2.007-4.509-3.264-7.455-3.264-2.939 0-5.587 1.251-7.442 3.25-.206.222-.193.57.03.777.222.206.57.193.777-.029z"/>
  <path transform="matrix(1.70019 0 0 1.54822 -16.7958 -18.0565)" d="m17.398 19.891c1.666-1.734 4.009-2.813 6.602-2.813 2.588 0 4.926 1.075 6.592 2.803.169.175.449.181.624.012s.181-.449.012-.624c-1.827-1.895-4.391-3.074-7.228-3.074-2.843 0-5.411 1.184-7.238 3.085-.169.176-.164.455.012.624.175.169.455.163.624-.013z"/>
 </g>
</svg>
