<svg clip-rule="evenodd" fill-rule="evenodd" stroke-linejoin="round" stroke-miterlimit="2" viewBox="0 0 48 48" xmlns="http://www.w3.org/2000/svg">
 <linearGradient id="a" x2="1" gradientTransform="matrix(0 -33.6872 33.6872 0 923.28 40.4502)" gradientUnits="userSpaceOnUse">
  <stop stop-color="#006783" offset="0"/>
  <stop stop-color="#13bee3" offset="1"/>
 </linearGradient>
 <path d="m39.44 45.668h-30.88c-3.438 0-6.228-2.79-6.228-6.228v-30.88c0-3.438 2.79-6.228 6.228-6.228h30.88c3.438 0 6.228 2.79 6.228 6.228v30.88c0 3.438-2.79 6.228-6.228 6.228z" fill="url(#a)"/>
 <path d="m7 16v16h10v-3h-7v-13zm24 0v16h3v-5.891h1.381c1.403-.101 2.515-.247 3.326-.74.825-.493 1.414-1.142 1.766-1.949.351-.807.527-1.481.527-2.422 0-1.554-.433-2.773-1.299-3.654-.852-.897-2.21-1.344-4.076-1.344zm-6.613.002c-1.721-.033-3.633.547-4.59 2.082-.716 1.21-.789 2.774-.281 4.074.569 1.388 1.897 2.221 3.191 2.842.96.518 2.053.89 2.803 1.719.69.819.178 2.245-.873 2.439-1.611.362-3.238-.169-4.713-.793-.386-.105-1.061-.678-.899.035v2.659c1.988.954 4.311 1.171 6.457.703 1.636-.349 3.125-1.617 3.42-3.315.268-1.393.006-2.982-1.07-3.982-1.417-1.386-3.419-1.865-4.98-3.035-.803-.681-.565-2.162.441-2.514 1.18-.397 2.458-.04 3.59.359.424.065 1.068.703 1.154.002l.895-2.187c-1.437-.625-2.962-1.116-4.545-1.088zm9.613 2.998h1.502c1.666 0 2.498.655 2.498 1.963 0 .717-.264 1.237-.791 1.564-.514.315-1.215.473-2.104.473h-1.105z" fill="#fff" fill-rule="nonzero"/>
</svg>
