<svg clip-rule="evenodd" fill-rule="evenodd" stroke-linejoin="round" stroke-miterlimit="2" viewBox="0 0 48 48" xmlns="http://www.w3.org/2000/svg">
 <linearGradient id="a" x2="1" gradientTransform="matrix(0 -43.3373 43.3373 0 201.9 45.6687)" gradientUnits="userSpaceOnUse">
  <stop stop-color="#b2b2b2" offset="0"/>
  <stop stop-color="#f6f6f6" offset="1"/>
 </linearGradient>
 <path d="m45.668 8.56c0-3.438-2.79-6.228-6.228-6.228h-30.88c-3.438 0-6.228 2.79-6.228 6.228v30.88c0 3.438 2.79 6.228 6.228 6.228h30.88c3.438 0 6.228-2.79 6.228-6.228z" fill="url(#a)"/>
 <g fill="#454545">
  <path d="m17.761 6.345c.779 0 1.411.632 1.411 1.411v6.635h-6.436v-6.635c0-.779.632-1.411 1.411-1.411zm16.092 0c.779 0 1.411.632 1.411 1.411v6.635h-6.436v-6.635c0-.779.632-1.411 1.411-1.411z"/>
  <path d="m7.908 38.529 3.219-14.483h6.436l3.219 14.483z" fill-rule="nonzero"/>
  <path d="m27.218 38.529 3.219-14.483h6.436l3.219 14.483z" fill-rule="nonzero"/>
 </g>
 <path d="m20.782 15.055c0-.603-.24-1.181-.666-1.608-.426-.426-1.005-.665-1.607-.665h-8.328c-.603 0-1.181.239-1.607.665-.426.427-.666 1.005-.666 1.608v12.209h12.874z" fill="#838181"/>
 <path d="m40.092 15.055c0-.603-.24-1.181-.666-1.608-.426-.426-1.004-.665-1.607-.665h-8.328c-.603 0-1.181.239-1.607.665-.426.427-.666 1.005-.666 1.608v12.209h12.874z" fill="#838181"/>
 <path d="m22.391 14.391h3.218v11.264h-3.218z" fill="#674f4f"/>
 <path d="m33.655 17.913c0-1.057-.856-1.913-1.913-1.913h-15.484c-1.057 0-1.913.856-1.913 1.913v4.22c0 1.057.856 1.913 1.913 1.913h15.484c1.057 0 1.913-.856 1.913-1.913z" fill="#6f6d6d"/>
 <circle cx="36.374" cy="36.296" r="11" fill="#0798ff"/>
 <path d="m33 30v7.051c-.165-.034-.332-.051-.5-.051-1.371 0-2.5 1.129-2.5 2.5s1.129 2.5 2.5 2.5 2.5-1.129 2.5-2.5c-.001-.011-.001-.022-.002-.033h.002v-6.467h5v4.051c-.165-.034-.332-.051-.5-.051-1.371 0-2.5 1.129-2.5 2.5s1.129 2.5 2.5 2.5 2.5-1.129 2.5-2.5c0-.025-.001-.051-.002-.076h.002v-9.424z" fill="#fff" fill-rule="nonzero"/>
</svg>
