<svg clip-rule="evenodd" fill-rule="evenodd" stroke-linecap="round" stroke-linejoin="round" stroke-miterlimit="1.5" viewBox="0 0 128 128" xmlns="http://www.w3.org/2000/svg">
 <linearGradient id="a" x2="1" gradientTransform="matrix(-.10108 327.989 368.777 .0899004 513 316.202)" gradientUnits="userSpaceOnUse">
  <stop stop-color="#7eb6eb" offset="0"/>
  <stop stop-color="#c9dee5" offset="1"/>
 </linearGradient>
 <linearGradient id="b" x2="1" gradientTransform="matrix(0 -615.633 615.633 0 183255 867.778)" gradientUnits="userSpaceOnUse">
  <stop stop-color="#1075f6" offset="0"/>
  <stop stop-color="#12c5ff" offset="1"/>
 </linearGradient>
 <linearGradient id="c" x2="1" gradientTransform="matrix(0 34.3572 -34.3572 0 -2878.25 86.7914)" gradientUnits="userSpaceOnUse">
  <stop stop-color="#aad2ff" offset="0"/>
  <stop stop-color="#1079f6" offset="1"/>
 </linearGradient>
 <path transform="matrix(.1191 0 0 -.133911 2.90175 127.888)" d="m986.317 276.095-946.837.586v280.908c0 15.333 8.234 29.745 22.159 38.785 76.534 49.684 329.945 214.192 419.539 272.354 18.91 12.276 44.562 12.313 63.517.092 89.605-57.77 342.635-220.905 419.32-270.345 14.009-9.032 22.302-23.488 22.302-38.877z" fill="url(#a)"/>
 <path d="m109.404 68.432c0-7.067-5.737-12.805-12.804-12.805h-61.506c-7.067 0-12.805 5.738-12.805 12.805v25.609c0 7.067 5.738 12.805 12.805 12.805h61.506c7.067 0 12.804-5.738 12.804-12.805z" fill="#f1f8ff" fill-opacity=".75"/>
 <path transform="matrix(.1191 0 0 .1191 2.90175 17.0852)" d="m537.72 568.322c-15.261 9.237-34.387 9.246-49.657.022-97.478-58.879-448.583-270.957-448.583-270.957v517.461c0 32.53 26.37 58.901 58.9 58.901h831.144c15.063 0 29.508-5.984 40.159-16.635 10.651-10.65 16.634-25.096 16.634-40.158v-520.155s-351.138 212.532-448.597 271.521z" fill="url(#b)"/>
 <path d="m10.403 118.957c-1.332-2.396-1.379-4.837 1.396-6.279 8.306-4.316 41.294-21.852 50.048-26.507 1.338-.711 2.943-.709 4.279.007 8.678 4.652 41.199 22.084 49.45 26.5 3.285 1.759 3.725 4.758 2.306 6.279" fill="none" stroke="url(#c)"/>
 <path d="m48.833 69.977 1.072-.094c.051.429.169.782.354 1.057.186.276.474.498.865.668.39.17.83.255 1.318.255.434 0 .816-.064 1.149-.193.332-.129.579-.306.741-.53.162-.225.243-.47.243-.736 0-.269-.078-.505-.234-.706-.157-.201-.415-.37-.774-.507-.23-.089-.74-.229-1.529-.419-.789-.189-1.342-.368-1.658-.536-.411-.215-.716-.481-.917-.799-.202-.319-.302-.675-.302-1.07 0-.433.123-.839.369-1.216s.605-.663 1.078-.858.998-.293 1.576-.293c.637 0 1.198.103 1.685.308.486.205.86.506 1.122.905.262.398.402.85.422 1.353l-1.09.082c-.059-.543-.257-.953-.595-1.23s-.837-.416-1.497-.416c-.687 0-1.188.126-1.503.378-.314.252-.471.556-.471.911 0 .309.111.563.334.762.218.199.79.403 1.713.612.924.209 1.558.392 1.902.548.5.23.869.522 1.107.876.238.353.358.761.358 1.222 0 .457-.131.887-.393 1.292-.262.404-.638.718-1.128.943s-1.042.337-1.655.337c-.778 0-1.429-.113-1.954-.34-.526-.227-.938-.567-1.237-1.022-.298-.456-.456-.97-.471-1.544zm12.316 1.992c-.391.332-.767.566-1.128.703s-.749.205-1.163.205c-.684 0-1.209-.167-1.576-.501s-.551-.761-.551-1.28c0-.305.069-.583.208-.835s.32-.454.545-.607c.225-.152.478-.267.759-.345.207-.055.519-.108.937-.159.852-.101 1.479-.222 1.881-.363.004-.144.006-.236.006-.275 0-.43-.1-.733-.299-.908-.269-.239-.67-.358-1.201-.358-.496 0-.862.087-1.099.261-.236.174-.411.481-.524.923l-1.031-.141c.094-.441.248-.798.463-1.069.215-.272.525-.481.931-.627.407-.147.877-.22 1.412-.22.532 0 .963.063 1.295.188s.577.282.733.471c.156.19.265.429.328.718.035.18.053.504.053.973v1.406c0 .98.022 1.6.067 1.86s.134.509.267.747h-1.102c-.109-.218-.18-.474-.211-.767zm16.682 0c-.391.332-.767.566-1.128.703-.362.137-.749.205-1.163.205-.684 0-1.209-.167-1.576-.501-.368-.334-.551-.761-.551-1.28 0-.305.069-.583.208-.835.138-.252.32-.454.545-.607.224-.152.477-.267.758-.345.208-.055.52-.108.938-.159.852-.101 1.479-.222 1.881-.363.004-.144.006-.236.006-.275 0-.43-.1-.733-.299-.908-.27-.239-.67-.358-1.201-.358-.496 0-.863.087-1.099.261s-.411.481-.524.923l-1.032-.141c.094-.441.248-.798.463-1.069.215-.272.526-.481.932-.627.406-.147.877-.22 1.412-.22.531 0 .963.063 1.295.188s.576.282.732.471c.157.19.266.429.329.718.035.18.052.504.052.973v1.406c0 .98.023 1.6.068 1.86s.133.509.266.747h-1.101c-.11-.218-.18-.474-.211-.767zm-5.092-.176.152.932c-.297.062-.562.093-.797.093-.382 0-.679-.06-.89-.181s-.36-.281-.446-.478c-.085-.197-.128-.612-.128-1.245v-3.58h-.774v-.82h.774v-1.541l1.048-.633v2.174h1.061v.82h-1.061v3.639c0 .3.019.494.056.58s.098.154.182.205.204.076.36.076c.117 0 .272-.014.463-.041zm-8.977.943v-6.222h.95v.884c.457-.683 1.117-1.025 1.98-1.025.375 0 .72.067 1.034.202.315.135.55.312.706.53.157.219.266.479.328.78.039.195.059.537.059 1.025v3.826h-1.055v-3.785c0-.43-.041-.751-.123-.964s-.227-.383-.436-.509c-.209-.127-.454-.191-.736-.191-.449 0-.837.143-1.163.428s-.489.826-.489 1.623v3.398zm-2.701-3.123c-.383.157-.957.289-1.722.399-.434.062-.741.133-.92.211-.18.078-.319.192-.416.342-.098.151-.147.318-.147.501 0 .282.107.516.319.704.213.187.525.281.935.281.406 0 .768-.089 1.084-.267s.549-.421.697-.729c.114-.239.17-.59.17-1.055zm16.682 0c-.383.157-.957.289-1.723.399-.433.062-.74.133-.92.211-.179.078-.318.192-.416.342-.097.151-.146.318-.146.501 0 .282.106.516.319.704.213.187.525.281.935.281.406 0 .767-.089 1.084-.267.316-.178.548-.421.697-.729.113-.239.17-.59.17-1.055z" fill="#ffffff" fill-opacity=".36" fill-rule="nonzero"/>
</svg>
