<svg clip-rule="evenodd" fill-rule="evenodd" stroke-linejoin="round" stroke-miterlimit="2" viewBox="0 0 48 48" xmlns="http://www.w3.org/2000/svg">
 <linearGradient id="a" x2="1" gradientTransform="matrix(0 -36.2165 36.2165 0 360.171 42.119)" gradientUnits="userSpaceOnUse">
  <stop stop-color="#313738" offset="0"/>
  <stop stop-color="#535552" offset="1"/>
 </linearGradient>
 <path d="m39.44 2.332c3.438 0 6.228 2.79 6.228 6.228v30.88c0 3.438-2.79 6.228-6.228 6.228h-30.88c-3.438 0-6.228-2.79-6.228-6.228v-30.88c0-3.438 2.79-6.228 6.228-6.228z" fill="url(#a)"/>
 <path d="m2.332 9.588v-1.028c0-3.438 2.79-6.228 6.228-6.228h30.88c3.438 0 6.228 2.79 6.228 6.228v1.028z" fill="#ebebeb" fill-opacity=".1"/>
 <path d="m45.668 38.412v1.028c0 3.438-2.79 6.228-6.228 6.228h-30.88c-3.438 0-6.228-2.79-6.228-6.228v-1.028z" fill-opacity=".2"/>
 <g fill-opacity=".5">
  <path d="m33.317 7.335h-.105c-.099 0-.178-.081-.178-.18v-.302c-.426-.107-.548-.36-.548-.879 0-.766.622-1.389 1.388-1.389s1.388.623 1.388 1.389c0 .511-.129.763-.546.874v.306c0 .1-.081.18-.18.18h-.104c-.099 0-.18-.08-.18-.18v-.24c-.047.003-.095.005-.146.006v.235c0 .099-.08.179-.179.179h-.104c-.1 0-.18-.08-.18-.179v-.234c-.051-.001-.1-.003-.147-.006v.24c0 .099-.08.18-.179.18zm-.018-1.926c.235.092.426.185.426.414 0 .227-.154.271-.426.412-.209.109-.427-.185-.427-.412 0-.229.207-.499.427-.414zm1.145 0c.227-.064.426.185.426.414 0 .227-.224.533-.426.412-.248-.147-.426-.185-.426-.412 0-.229.166-.34.426-.414z" fill="#ededed"/>
  <path d="m40.535 5.039.418.442.661-.626.528.557-.66.626.418.442c.143.15.141.383-.003.518-.144.137-.376.126-.517-.024l-.42-.442-.662.628-.529-.557.664-.596-.419-.475c-.143-.15-.14-.382.003-.518.144-.136.376-.125.518.025z" fill="#fff"/>
  <path d="m37.201 4.892.004-.169.607.016-.006.169.328.009c.314.009.563.272.554.586l-.031 1.139c-.008.315-.27.564-.585.555l-1.26-.034c-.315-.008-.563-.271-.554-.585l.03-1.14c.008-.315.271-.563.586-.555zm-.182.496c.163.004.292.141.287.304-.003.163-.14.292-.303.288s-.293-.141-.288-.304c.004-.163.141-.292.304-.288zm1.009.027c.163.005.293.14.288.304-.004.164-.14.293-.304.288-.163-.004-.292-.14-.288-.304.005-.163.141-.292.304-.288z" fill="#fff"/>
 </g>
 <path d="m21.26 20.208c.08 0 .147.025.199.074.052.05.078.113.077.19v.527c0 .077-.025.14-.077.189s-.119.074-.199.074h-8.312c-.081 0-.147-.024-.199-.074-.052-.049-.078-.112-.078-.189v-.527c0-.077.026-.14.078-.19.052-.049.118-.074.199-.074zm-13.099-7.719 4.034 3.839c.058.055.087.118.087.189 0 .072-.029.135-.087.19l-4.034 3.839c-.058.055-.125.082-.2.082s-.141-.027-.199-.082l-.433-.412c-.057-.055-.086-.118-.086-.19 0-.071.029-.134.086-.189l3.403-3.237-3.403-3.238c-.057-.055-.086-.118-.086-.189 0-.072.029-.135.086-.19l.433-.412c.058-.055.124-.082.199-.082s.142.027.2.082z" fill="#fff" fill-rule="nonzero"/>
 <circle cx="37.010494" cy="37.441685" r="9.667999" fill="#16a086" stroke-width=".878909"/>
 <path transform="matrix(1.19961 0 0 1.19961 -6.77538 -4.54478)" d="m36.474 41-4.474-6h3v-6l3 .029v5.971h3z" fill="#fff" fill-rule="nonzero"/>
</svg>
