<svg clip-rule="evenodd" fill-rule="evenodd" stroke-linejoin="round" stroke-miterlimit="2" viewBox="0 0 48 48" xmlns="http://www.w3.org/2000/svg">
 <linearGradient id="a" x2="1" gradientTransform="matrix(0 -43.282 43.282 0 24 45.614)" gradientUnits="userSpaceOnUse">
  <stop stop-color="#007630" offset="0"/>
  <stop stop-color="#219652" offset="1"/>
 </linearGradient>
 <g fill-rule="nonzero">
  <path d="m39.44 45.668h-30.88c-3.438 0-6.228-2.79-6.228-6.228v-30.88c0-3.438 2.79-6.228 6.228-6.228h30.88c3.438 0 6.228 2.79 6.228 6.228v30.88c0 3.438-2.79 6.228-6.228 6.228z" fill="url(#a)"/>
  <path d="m42.87 3.361c1.263.836 2.204 2.119 2.596 3.623l-18.402 18.874 17.176 17.549c-.977 1.181-2.382 1.996-3.978 2.207l-37.745-38.567c.378-1.512 1.309-2.806 2.565-3.653l18.918 19.322z" fill="#eff0f1"/>
  <path transform="matrix(1.0834 0 0 1.0834 -2.0016 -2.0016)" d="m42.205 5.577-18.912 19.413c-.387.398-.387 1.052 0 1.449l5.213 5.348c-.225-1.032-.387-1.849-.387-1.849s.794.165 1.799.396l-4.504-4.619 18.005-18.486c-.297-.623-.729-1.177-1.214-1.652z" fill="#ff4837"/>
  <path transform="matrix(1.0834 0 0 1.0834 -2.0016 -2.0016)" d="m4 20.322v4.185c.121.032.241.066.358.104.861.283 1.644.752 2.227 1.352.949.974 1.595 2.566 2.298 4.407.712 1.864 1.57 4.107 3.495 5.792 1.922 1.682 4.263 2.218 6.303 2.503 2.021.282 3.833.366 5.316.835 1.393.441 2.699 1.258 3.749 2.33.624.637 1.161 1.374 1.602 2.17h4.41c-.701-1.89-1.777-3.634-3.19-5.076-1.499-1.532-3.349-2.699-5.393-3.345-2.157-.682-4.202-.735-5.955-.979-1.733-.242-3.269-.705-4.244-1.559-.982-.859-1.686-2.381-2.368-4.166-.69-1.809-1.441-4.013-3.193-5.812-1.096-1.124-2.435-1.897-3.837-2.358-.523-.172-1.051-.295-1.578-.383z" fill="#fdbc4b"/>
  <path d="m2.332 39.44v-17.171c.354.073.705.164 1.05.277 1.225.403 2.374 1.077 3.284 2.011 1.463 1.501 2.22 3.558 2.975 5.535s1.601 4.015 3.176 5.394c1.569 1.373 3.669 1.915 5.713 2.2s4.133.359 6.105.982c1.862.589 3.571 1.665 4.951 3.075 1.105 1.128 1.996 2.469 2.641 3.925h-23.667c-3.438 0-6.228-2.79-6.228-6.228z" fill="#2980b9"/>
  <path transform="matrix(1.0834 0 0 1.0834 -2.0016 -2.0016)" d="m29 31s1.312 7.169 2.929 8.787c1.617 1.617 4.24 1.617 5.858 0 1.617-1.618 1.617-4.241 0-5.858-1.618-1.618-8.787-2.929-8.787-2.929z" fill="#ff4837"/>
 </g>
 <circle transform="matrix(.766066 -.766093 .766066 .766093 -2.0016 -2.0016)" cx="-1.413" cy="50.912" r="2" fill="#eff0f1"/>
</svg>
