<svg clip-rule="evenodd" fill-rule="evenodd" stroke-linejoin="round" stroke-miterlimit="2" viewBox="0 0 48 48" xmlns="http://www.w3.org/2000/svg">
 <linearGradient id="a" x2="1" gradientTransform="matrix(0 -43.3373 43.3373 0 201.9 45.6687)" gradientUnits="userSpaceOnUse">
  <stop stop-color="#0a80fd" offset="0"/>
  <stop stop-color="#56c5fa" offset="1"/>
 </linearGradient>
 <linearGradient id="b" x2="1" gradientTransform="matrix(-.17866 -43.3354 43.3354 -.17866 24.6551 45.6677)" gradientUnits="userSpaceOnUse">
  <stop stop-color="#dcd9d9" offset="0"/>
  <stop stop-color="#e4e4e4" offset="1"/>
 </linearGradient>
 <linearGradient id="c" x2="1" gradientTransform="matrix(-.0365232 -29.4159 29.4159 -.0365232 36.6253 38.9479)" gradientUnits="userSpaceOnUse">
  <stop stop-color="#2d5de1" offset="0"/>
  <stop stop-color="#0090ff" offset="1"/>
 </linearGradient>
 <linearGradient id="d" x2="1" gradientTransform="matrix(-.00058382 -25.003 25.003 -.00058382 24.0003 45.668)" gradientUnits="userSpaceOnUse">
  <stop stop-color="#b8058b" offset="0"/>
  <stop stop-color="#e34ae9" offset="1"/>
 </linearGradient>
 <path d="m45.668 8.56c0-3.438-2.79-6.228-6.228-6.228h-30.88c-3.438 0-6.228 2.79-6.228 6.228v30.88c0 3.438 2.79 6.228 6.228 6.228h30.88c3.438 0 6.228-2.79 6.228-6.228z" fill="url(#a)"/>
 <path d="m39.486 2.332c3.389.025 6.137 2.76 6.181 6.144v31.048c-.044 3.384-2.792 6.119-6.181 6.144h-30.972c-3.417-.025-6.182-2.805-6.182-6.228v-30.88c0-3.423 2.765-6.203 6.182-6.228z" fill="url(#b)"/>
 <path d="m45.4 6.75c.174.573.268 1.18.268 1.81v30.88c0 3.423-2.765 6.203-6.182 6.228h-15.486v-18.475l8.666-16.423z" fill="url(#c)"/>
 <path d="m2.333 39.524v-6.174l17.334-12.315 4.333 6.158 8.666 12.317 13.002-8.212v8.142c0 3.423-2.765 6.203-6.182 6.228h-30.972c-3.389-.025-6.136-2.76-6.181-6.144z" fill="url(#d)"/>
 <g fill="#535353">
  <path d="m8.167 34.846c0-.513-.17-1.005-.474-1.367-.304-.363-.716-.567-1.146-.567h-4.216v3.871h4.216c.43 0 .842-.204 1.146-.566.304-.363.474-.855.474-1.368zm.001-7.874c0-.513-.171-1.005-.475-1.367-.303-.363-.716-.567-1.145-.567h-4.217v3.871h4.217c.429 0 .842-.204 1.145-.566.304-.363.475-.855.475-1.368zm0-7.874c0-.513-.17-1.005-.474-1.367-.304-.363-.716-.567-1.146-.567h-4.216v3.871h4.216c.43 0 .842-.203 1.146-.566s.474-.855.474-1.368zm.001-7.874c0-.513-.171-1.005-.475-1.367-.303-.363-.716-.567-1.145-.567h-4.217v3.871h4.217c.429 0 .842-.203 1.145-.566.304-.363.475-.855.475-1.368z"/>
  <path d="m36.444 40.308c-.513 0-1.005.156-1.368.435-.362.279-.566.658-.566 1.052v3.873h3.871v-3.873c0-.394-.204-.773-.567-1.052-.362-.279-.854-.435-1.367-.435zm-7.874-.001c-.513 0-1.005.157-1.368.436-.362.279-.566.657-.566 1.052v3.872h3.871v-3.872c0-.395-.204-.773-.567-1.052-.362-.279-.854-.436-1.367-.436zm-7.874 0c-.513 0-1.005.156-1.368.435-.362.279-.566.658-.566 1.052v3.873h3.871v-3.873c0-.394-.204-.773-.567-1.052-.362-.279-.854-.435-1.367-.435zm-7.874-.001c-.513 0-1.005.157-1.368.436-.362.279-.566.657-.566 1.052v3.872h3.871v-3.872c0-.395-.204-.773-.566-1.052-.363-.279-.855-.436-1.368-.436z"/>
 </g>
</svg>
