<svg clip-rule="evenodd" fill-rule="evenodd" stroke-linejoin="round" stroke-miterlimit="2" viewBox="0 0 48 48" xmlns="http://www.w3.org/2000/svg">
 <g fill-rule="nonzero">
  <path d="m40.097 40.097-32.194-32.194c-8.889 8.89-8.889 23.304 0 32.194 8.89 8.889 23.304 8.889 32.194 0z" fill="#ee49ef"/>
  <path d="m40.097 40.097-32.194-32.194c8.89-8.889 23.304-8.889 32.194 0 8.889 8.89 8.889 23.304 0 32.194z" fill="#39c3fb"/>
  <path d="m20.37 16.05.047.056c.136.161.248.274.322.336.21.24.412.499.591.772 1.072 1.631 1.668 2.118 2.587 2.118.621 0 .824-.106 1.442-.755.407-.428.861-1.158 1.046-1.681.478-1.354 1.681-2.618 2.81-2.955 1.52-.452 2.629-.09 3.797 1.24.93 1.06 1.269 2.095 1.266 3.873-.003 2.518-.545 3.852-2.649 6.526-1.329 1.675-2.61 3.29-1.761 5.686.351.914 1.018 1.627 1.982 2.117 1.625.831 3.644.171 4.677-.898 1.058-1.114 1.138-1.548 1.26-6.876.103-4.519.131-4.818.519-5.607.577-1.175 1.349-1.62 2.629-1.513.831.069 1.068.17 1.48.632.784.88.946 1.749.929 4.985.137 5.149-2.564 10.53-5.786 13.702-4.008 3.907-9.077 5.802-14.743 5.513-10.31-.528-18.19-8.965-18.164-19.449.008-3.143.583-5.524 1.578-6.521.586-.587.774-.671 1.502-.671 2.112 0 2.833 2.561 2.117 7.514-.482 3.339-.27 5.065.759 6.164 1.687 1.803 4.706 1.449 5.814-.683.796-1.53.574-2.669-.975-5.009-1.148-1.734-1.534-2.724-1.727-4.428-.329-2.921 1.267-5.156 3.724-5.214 0 0 1.572-.105 2.927 1.026z" fill="#ffffff"/>
 </g>
</svg>
