<svg clip-rule="evenodd" fill-rule="evenodd" stroke-linejoin="round" stroke-miterlimit="2" viewBox="0 0 48 48" xmlns="http://www.w3.org/2000/svg">
 <linearGradient id="a" x1="3.45453" x2="32.02063" y1="18.0846" y2="18.0846" gradientUnits="userSpaceOnUse">
  <stop stop-opacity=".16" offset="0"/>
  <stop stop-opacity="0" offset="1"/>
 </linearGradient>
 <linearGradient id="b" x2="1" gradientTransform="matrix(19.1803 -28.2843 28.2843 19.1803 16.4402 34.8302)" gradientUnits="userSpaceOnUse">
  <stop stop-color="#f67e17" offset="0"/>
  <stop stop-color="#ff7f2a" offset="1"/>
 </linearGradient>
 <g fill-rule="nonzero">
  <path d="m32.001 3.531c-3.094.326-5.073 3.084-6.18 5.931-2.323 5.97-5.35 10.109-5.989 10.173-4.404 1.154-15.806 5.131-16.311 5.621-.177.168.011.481.42.713.41.239 2.739 1.832 5.211 3.549 2.464 1.716 4.606 3.112 4.758 3.121.15 0 1.282-.605 2.49-1.352 2.543-1.566 11.451-6.411 11.426-7.338-.01-.464-1.559-1.731-3.119-2.76 1.972-3.918 7.693-17.611 7.294-17.658z" fill="#62cbcb"/>
  <path d="m32.001 3.531c-3.094.326-5.073 3.084-6.18 5.93-5.188 12.908-9.845 10.35-22.3 15.795-.177.168.011.481.42.713.41.239 2.739 1.832 5.211 3.549 2.464 1.716 4.606 3.112 4.758 3.121.15 0 1.282-.605 2.49-1.352 2.543-1.566 11.451-6.411 11.426-7.338-.01-.464-1.559-1.731-3.119-2.76 1.972-3.918 7.693-17.611 7.294-17.658z" fill="#62cbcb"/>
  <path d="m32.001 3.531c-3.094.326-5.073 3.084-6.18 5.931-5.188 12.907-9.845 10.349-22.3 15.794-.177.168.011.481.42.713.41.239 2.739 1.832 5.211 3.549 2.464 1.716 4.606 3.112 4.758 3.121.15 0 1.282-.605 2.49-1.352 2.543-1.566 11.451-6.411 11.426-7.338-.01-.464-1.559-1.731-3.119-2.76 1.972-3.918 7.693-17.611 7.294-17.658z" fill="url(#a)"/>
  <path d="m32.557 3.437c-.179-.03-.324-.011-.503.08-.726.579-2.862 4.632-4.998 9.463-.866 1.97-2.094 4.545-2.713 5.729-1.836 3.508-6.322 9.89-8.398 11.926l-2.023 1.998 1.53 1.496c.886.971 2.056 2.988 3.028 5.244 1.843 4.298 2.163 4.918 2.516 4.918.167 0 1.112-.533 2.165-1.204 2.349-1.525 4.545-3.575 7.534-7.062 4.664-5.436 8.165-6.588 12.477-4.092 1.165.678 2.123 1.104 2.123.945 0-.166-.597-1.804-1.309-3.647s-2.652-7.048-4.301-11.566c-1.104-1.859-4.554-13.883-7.132-14.229z" fill="url(#b)"/>
  <path d="m32.557 3.437c-.004 30.555-.004 20.095-.004 30.555 0 0 2.224-2.418 5.015-3.179 1.807-.493 3.909.139 5.604 1.12 1.165.678 2.123 1.104 2.123.946 0-.167-.597-1.805-1.309-3.648s-2.652-7.048-4.301-11.566c-1.104-1.858-4.554-13.883-7.132-14.229z" fill-opacity=".16"/>
 </g>
</svg>
