<svg clip-rule="evenodd" fill-rule="evenodd" stroke-linejoin="round" stroke-miterlimit="2" viewBox="0 0 48 48" xmlns="http://www.w3.org/2000/svg">
 <linearGradient id="a" x2="1" gradientTransform="matrix(-.0280161 -28 28 -.0280161 35.0001 38)" gradientUnits="userSpaceOnUse">
  <stop stop-color="#7032a5" offset="0"/>
  <stop stop-color="#9844e8" offset="1"/>
 </linearGradient>
 <linearGradient id="b" x2="1" gradientTransform="matrix(.812127 -28 28 .812127 14.6879 38)" gradientUnits="userSpaceOnUse">
  <stop stop-color="#ffb86c" offset="0"/>
  <stop stop-color="#facb66" offset="1"/>
 </linearGradient>
 <g fill-rule="nonzero">
  <path d="m42.8 7h-37.6c-1.767 0-3.2 1.45-3.2 3.238v27.524c0 1.788 1.433 3.238 3.2 3.238h37.6c1.767 0 3.2-1.45 3.2-3.238v-27.524c0-1.788-1.433-3.238-3.2-3.238z" fill="#e4e4e4"/>
  <path d="m26 10h17v28h-21z" fill="url(#a)"/>
  <path d="m5 10h21l-4 28h-17z" fill="url(#b)"/>
  <path d="m13.975 18.588c-.023.001-.045.006-.067.012l-.664.177c-.088.024-.163.081-.209.16-.046.08-.057.172-.033.26l.355 1.328c.024.088.081.164.161.209.079.046.173.059.261.036l.664-.178c.088-.024.162-.081.207-.16.046-.079.059-.174.036-.262l-.356-1.328c-.024-.088-.081-.164-.16-.209-.059-.034-.128-.049-.195-.045zm19.025.412c-2.761 0-5 2.239-5 5s2.239 5 5 5 5-2.239 5-5c0-.296-.027-.591-.078-.881-.342 1.557-1.72 2.666-3.315 2.666-1.873 0-3.392-1.519-3.392-3.392 0-1.595 1.109-2.973 2.666-3.315-.29-.051-.585-.078-.881-.078zm-15.744.02c-.11.007-.214.068-.274.171l-.687 1.19c-.046.079-.057.174-.033.262.023.088.081.163.16.209l.594.343c.165.096.375.038.47-.127l.688-1.189c.095-.165.038-.375-.127-.471l-.594-.344c-.062-.035-.131-.049-.197-.044zm-6.574 1.761c-.11.008-.214.069-.274.172l-.344.594c-.045.079-.056.174-.033.262.024.088.081.163.16.209l1.19.687c.165.095.375.038.471-.127l.343-.594c.096-.165.038-.375-.127-.47l-1.189-.688c-.062-.036-.131-.049-.197-.045zm4.318.219c-1.646 0-3 1.354-3 3s1.354 3 3 3 3-1.354 3-3-1.354-3-3-3zm4.869.99c-.022.002-.044.006-.066.012l-1.328.355c-.088.024-.164.081-.209.161-.046.079-.059.173-.036.261l.18.664h-.002c.024.088.081.162.16.207.079.046.174.059.262.036l1.328-.356c.088-.024.164-.081.209-.16.046-.079.059-.172.035-.26l-.179-.666c-.024-.088-.081-.163-.161-.209-.059-.034-.126-.049-.193-.045zm-8.633 2.313c-.022.001-.044.006-.066.011l-1.328.356c-.088.024-.164.081-.209.16-.046.079-.057.174-.033.262l.177.664c.024.088.081.163.161.209.079.046.171.057.259.033l1.328-.355c.088-.024.164-.081.209-.161.046-.079.059-.173.036-.261l-.178-.664c-.024-.088-.081-.162-.16-.207-.06-.035-.128-.052-.196-.047zm7.186.947c-.11.008-.214.069-.274.172l-.343.594c-.046.079-.057.173-.034.261.024.088.082.164.161.209l1.189.688c.165.095.375.038.471-.127l.344-.594c.095-.165.038-.375-.127-.471l-1.19-.687c-.062-.036-.131-.05-.197-.045zm-5.635 1.51c-.11.007-.214.068-.273.172l-.688 1.189c-.045.079-.057.174-.033.262s.081.163.16.209l.594.344c.165.095.375.038.471-.127l.687-1.19c.095-.165.038-.375-.127-.471l-.594-.343c-.062-.036-.131-.05-.197-.045zm3.502.461c-.022.001-.046.004-.068.009l-.664.18v-.002c-.088.024-.162.081-.207.16-.046.079-.059.174-.036.262l.356 1.328c.024.088.081.164.16.209.079.046.174.057.262.033l.664-.175c.088-.024.163-.081.209-.161.046-.079.059-.173.035-.261l-.357-1.328c-.024-.088-.081-.164-.161-.209-.059-.035-.126-.05-.193-.045z" fill="#ffffff"/>
 </g>
</svg>
