<svg clip-rule="evenodd" fill-rule="evenodd" stroke-linejoin="round" stroke-miterlimit="2" viewBox="0 0 48 48" xmlns="http://www.w3.org/2000/svg">
 <linearGradient id="a" x2="1" gradientTransform="matrix(0 -35.3911 35.3911 0 968.766 41.2823)" gradientUnits="userSpaceOnUse">
  <stop stop-color="#b4bfc2" offset="0"/>
  <stop stop-color="#fff" offset="1"/>
 </linearGradient>
 <circle cx="24" cy="24" r="22.764" fill="url(#a)"/>
 <path transform="matrix(.983894 0 0 .983894 .386532 .386532)" d="m38.99 4c.477 0 .852.505.852 1.15 0 .805-1.112 3.913-2.629 7.352-1.349 3.058-1.67 3.936-1.5 4.1.177.171.551-.424 1.779-2.832 1.182-2.317 1.494-2.693 1.985-2.385.446.28.417.68-.196 2.635-.571 1.821-.715 2.773-.418 2.773.302 0 1.241-.958 3.084-3.147 1.929-2.29 2.446-2.672 2.858-2.109.326.446.275.727-.377 2.035-.46.922-.951 1.548-2.147 2.735-1.68 1.668-2.899 2.471-4.949 3.256-.712.272-1.404.601-1.537.73-.145.141-3.434 1.508-4.615 2.707h-1.713c.001-.03-.027-.026-.074 0h-.393v-1.754l3.756-6.049c.144-.144-.02-1.2-.596-3.828-.64-2.92.056-5.411 1.219-4.359.603.546.841 1.883.859 4.844.01 1.674.08 2.776.178 2.81.246.085.805-1.454 1.531-4.211.361-1.367.883-3.086 1.162-3.818.522-1.37 1.425-2.635 1.881-2.635zm-29.98 0c-.477 0-.852.505-.852 1.15 0 .805 1.112 3.913 2.629 7.352 1.349 3.058 1.67 3.936 1.5 4.1-.177.171-.551-.424-1.779-2.832-1.182-2.317-1.494-2.693-1.985-2.385-.446.28-.417.68.196 2.635.571 1.821.715 2.773.418 2.773-.302 0-1.241-.958-3.084-3.147-1.929-2.29-2.446-2.672-2.858-2.109-.326.446-.275.727.377 2.035.46.922.951 1.548 2.147 2.735 1.68 1.668 2.899 2.471 4.949 3.256.712.272 1.404.601 1.537.73.145.141 3.434 1.508 4.615 2.707h1.713c-.001-.03.027-.026.074 0h.393v-1.754l-3.756-6.049c-.144-.144.02-1.2.596-3.828.64-2.92-.056-5.411-1.219-4.359-.603.546-.841 1.883-.859 4.844-.01 1.674-.08 2.776-.178 2.81-.246.085-.805-1.454-1.531-4.211-.361-1.367-.883-3.086-1.162-3.818-.522-1.37-1.425-2.635-1.881-2.635z" fill="#f5a34d" fill-rule="nonzero"/>
 <path transform="matrix(.983894 0 0 .983894 .386532 .386532)" d="m22.419 36.325c-2.331-3.166-6.419-9.167-6.419-12.325 0-4.418 3.582-8 8-8s8 3.582 8 8c0 3.158-4.088 9.159-6.419 12.325 1.422.613 2.419 2.029 2.419 3.675 0 2.208-1.792 4-4 4s-4-1.792-4-4c0-1.646.997-3.062 2.419-3.675z" fill="#af5d2d"/>
 <ellipse transform="matrix(-.794493 -.58037 -.507878 .842679 47.5673 .386532)" cx="5.86" cy="31.772" rx="1.947" ry="2.791" fill="#fff"/>
 <ellipse transform="matrix(-.794493 -.58037 -.507878 .842679 47.5673 .386532)" cx="5.586" cy="32.6" rx="1.222" ry="1.752" fill="#3f3f3f"/>
 <ellipse transform="matrix(.794493 -.58037 .507878 .842679 .386532 .386532)" cx="5.86" cy="31.772" rx="1.947" ry="2.791" fill="#fff"/>
 <ellipse transform="matrix(.794493 -.58037 .507878 .842679 .386532 .386532)" cx="5.586" cy="32.6" rx="1.222" ry="1.752" fill="#3f3f3f"/>
 <g transform="matrix(.983894 0 0 .983894 .386532 .386532)">
  <path d="m24 25.01c-.997-.07-1.756.232-2.74 1.148-2.316 2.616-5.26 8.856-5.26 10.978.1 3.047 1.028 5.012 2.984 4.855 2.016.08 3.45-1.447 5.016-1.481 1.566.034 3 1.561 5.016 1.481 1.956.157 2.884-1.808 2.984-4.855 0-2.122-2.944-8.362-5.26-10.978-.984-.916-1.743-1.218-2.74-1.148z" fill="#cf7642" fill-rule="nonzero"/>
  <path d="m19.275 39.729c-.892-.452-1.327-1.46-1.27-2.938.026-.663.12-1.23.211-1.26.09-.029.294.312.453.76.36 1.014 1.035 1.797 1.875 2.176.95.428 1.052.994.244 1.362-.552.252-.861.231-1.513-.1zm9.425 0c-.653.331-.961.352-1.513.1-.808-.368-.707-.934.243-1.362.841-.379 1.516-1.162 1.876-2.176.159-.448.363-.789.453-.76.09.03.185.597.211 1.26.057 1.478-.379 2.486-1.27 2.938z" fill-opacity=".5" fill-rule="nonzero"/>
  <path d="m15 22s.012-2.498 1.89-4.5c1.302-1.39 3.491-2.5 7.11-2.5s5.808 1.11 7.11 2.5c1.878 2.002 1.89 4.5 1.89 4.5 0 .552.448 1 1 1s1-.448 1-1c0 0 .012-3.262-2.43-5.868-1.578-1.682-4.189-3.132-8.57-3.132s-6.992 1.45-8.57 3.132c-2.442 2.606-2.43 5.868-2.43 5.868 0 .552.448 1 1 1s1-.448 1-1z" fill="#5b5b5b"/>
  <path d="m15 20c-1.105 0-2 1.343-2 3s.895 3 2 3h1.333c.37 0 .667-.446.667-1v-4c0-.554-.297-1-.667-1zm18 0c1.105 0 2 1.343 2 3s-.895 3-2 3h-1.333c-.37 0-.667-.446-.667-1v-4c0-.554.297-1 .667-1z" fill="#4b4b4b" fill-rule="nonzero"/>
 </g>
</svg>
