<svg clip-rule="evenodd" fill-rule="evenodd" stroke-linejoin="round" stroke-miterlimit="2" viewBox="0 0 48 48" xmlns="http://www.w3.org/2000/svg">
 <linearGradient id="a" x2="1" gradientTransform="matrix(0 -45.528 45.528 0 206.112 46.764)" gradientUnits="userSpaceOnUse">
  <stop stop-color="#517b1d" offset="0"/>
  <stop stop-color="#78ba26" offset="1"/>
 </linearGradient>
 <path d="m24 1.236c-12.488 0-22.764 10.276-22.764 22.764s10.276 22.764 22.764 22.764 22.764-10.276 22.764-22.764-10.276-22.764-22.764-22.764z" fill="url(#a)" fill-rule="nonzero"/>
 <path d="m24 30.713 10.256-12.942c1.002-1.258 2.837-1.471 4.098-.473 1.26 1.001 1.474 2.837.473 4.094l-12.529 15.805c-.578.729-1.435 1.106-2.298 1.103-.867.003-1.72-.374-2.301-1.103l-12.526-15.802c-1.001-1.26-.787-3.096.473-4.094 1.261-1.001 3.096-.788 4.098.47z" fill="#fff"/>
 <path d="m24 16.165 5.197-6.556c.745-.939 2.108-1.096 3.047-.355.939.746 1.096 2.112.351 3.047l-6.884 8.687c-.431.542-1.068.821-1.711.821s-1.284-.279-1.711-.821l-6.884-8.687c-.745-.935-.588-2.301.351-3.047.936-.741 2.302-.584 3.047.355z" fill="#d3e5bd"/>
</svg>
