<svg clip-rule="evenodd" fill-rule="evenodd" stroke-linejoin="round" stroke-miterlimit="2" viewBox="0 0 48 48" xmlns="http://www.w3.org/2000/svg">
 <linearGradient id="a" x2="1" gradientTransform="matrix(0 -35.3911 35.3911 0 968.766 41.2823)" gradientUnits="userSpaceOnUse">
  <stop stop-color="#06181d" offset="0"/>
  <stop stop-color="#606d70" offset="1"/>
 </linearGradient>
 <linearGradient id="b" x2="1" gradientTransform="matrix(0 -4.0001 4.0001 0 24.1159 -21.9949)" gradientUnits="userSpaceOnUse">
  <stop stop-color="#2a2c2f" offset="0"/>
  <stop stop-color="#424649" offset="1"/>
 </linearGradient>
 <circle cx="24" cy="24" r="22.764" fill="url(#a)"/>
 <g transform="matrix(1.13483 0 0 1.13483 -3.23573 -3.30332)">
  <path d="m12.89 7.35c-5.367 3.579-8.893 9.686-8.893 16.648h16c0-1.621.97-3.008 2.356-3.637l-9.462-13.012z" fill="#fff" fill-opacity=".1" fill-rule="nonzero"/>
  <path d="m35.06 40.6c5.367-3.579 8.893-9.686 8.893-16.648h-16c0 1.621-.97 3.008-2.356 3.637l9.463 13.012z" fill="#fff" fill-opacity=".1" fill-rule="nonzero"/>
  <path d="m31 24c0-3.863-3.137-7-7-7s-7 3.137-7 7 3.137 7 7 7 7-3.137 7-7z" fill="#dd3e12"/>
 </g>
 <path transform="matrix(1.13483 0 0 -1.13483 -3.23573 -3.30332)" d="m26-24c0-1.104-.896-2-2-2s-2 .896-2 2 .896 2 2 2 2-.896 2-2z" fill="url(#b)"/>
 <path transform="matrix(1.13483 0 0 1.13483 -3.23573 -3.30332)" d="m24 18c-3.324 0-6 2.676-6 6s2.676 6 6 6 6-2.676 6-6-2.676-6-6-6zm0 1c2.77 0 5 2.23 5 5s-2.23 5-5 5-5-2.23-5-5 2.23-5 5-5z" fill="#fff" fill-opacity=".5" fill-rule="nonzero"/>
</svg>
