<svg clip-rule="evenodd" fill-rule="evenodd" stroke-linecap="round" stroke-linejoin="bevel" viewBox="0 0 48 48" xmlns="http://www.w3.org/2000/svg">
 <g fill-rule="nonzero">
  <path d="m18.898 25.254c5.696 3.288 6.271 5.809 5.102 7.834-1.169 2.026-3.64 2.788-9.336-.501-5.695-3.288-12.136-9.94-12.664-12.2 2.222-.673 11.203 1.579 16.898 4.867z" fill="#fec8a4"/>
  <path d="m23.499 23.753c3.288 5.696 2.526 8.167.501 9.336s-4.546.594-7.834-5.102c-3.289-5.695-5.541-14.676-4.868-16.898 2.261.528 8.913 6.969 12.201 12.664z" fill="#fba66f"/>
  <path d="m28.234 24.753c0 6.577-1.896 8.335-4.234 8.335s-4.234-1.758-4.234-8.335 2.541-15.48 4.234-17.068c1.694 1.588 4.234 10.491 4.234 17.068z" fill="#f8863b"/>
  <path d="m31.834 27.987c-3.288 5.696-5.809 6.271-7.834 5.102s-2.788-3.64.501-9.336c3.288-5.695 9.94-12.136 12.201-12.664.672 2.222-1.579 11.203-4.868 16.898z" fill="#f76d12"/>
  <path d="m33.336 32.587c-5.695 3.288-8.167 2.526-9.336.501s-.593-4.546 5.102-7.834c5.696-3.289 14.676-5.541 16.898-4.868-.528 2.261-6.969 8.913-12.664 12.201z" fill="#d75908"/>
 </g>
 <path transform="matrix(1.25857 0 0 1.25857 -4.94493 -8.74732)" d="m25 38c-2 0-2.013-2.979-2-4" fill="none" stroke="#3aa03d" stroke-width="2"/>
</svg>
