<svg clip-rule="evenodd" fill-rule="evenodd" stroke-linejoin="round" stroke-miterlimit="2" viewBox="0 0 48 48" xmlns="http://www.w3.org/2000/svg">
 <linearGradient id="a" x2="1" gradientTransform="matrix(-.204679 -33.497 33.497 -.204679 23.2047 40.6665)" gradientUnits="userSpaceOnUse">
  <stop stop-color="#498227" offset="0"/>
  <stop stop-color="#5e983c" offset="1"/>
 </linearGradient>
 <g transform="matrix(1.05551 0 0 1.05551 -.492851 -1.33232)">
  <path d="m34.367 7.17c2.101 0 3.807 1.705 3.807 3.806s-1.706 3.807-3.807 3.807h-17.603c-1.908 0-3.927.726-3.927 2.634 0 1.964 2.103 2.746 4.171 2.746h12.831c5.995 0 11.347 3.899 11.347 10.162 0 6.27-4.999 10.341-11.168 10.341h-18.652c-2.101 0-3.807-1.705-3.807-3.806 0-2.102 1.706-3.807 3.807-3.807h18.652c1.816 0 3.555-.882 3.555-2.728 0-1.859-1.955-2.548-3.734-2.548h-12.831c-6.499 0-11.785-4.188-11.785-10.36 0-6.228 5.313-10.247 11.541-10.247z" fill="url(#a)"/>
  <path d="m22.971 3c-1.097 0.016-1.986 0.93-1.971 2.025v15.138h4v-15.138-0.027c0-1.096-0.903-1.998-2-1.998h-0.029zm-1.971 24.777v15.225c0 1.096 0.903 1.998 2 1.998s2-0.902 2-1.998v-0.028-15.197z" fill="#97ca79"/>
 </g>
</svg>
