<svg clip-rule="evenodd" fill-rule="evenodd" stroke-linejoin="round" stroke-miterlimit="2" viewBox="0 0 48 48" xmlns="http://www.w3.org/2000/svg">
 <g transform="matrix(1.07691 0 0 1.07691 -1.84582 -1.84582)">
  <path d="m39 4c-1.983.001-3.787 1.182-4.58 3h-22.42s-2.101-.007-4.117 1.334-3.896 4.17-3.883 8.672c.012 4.317 1.99 6.988 4.064 8.099 1.791.96 3.484.923 3.936.895h24c.065 0 .129-.003.193-.01 0 0 .934-.063 1.854.43s1.944 1.321 1.953 4.586c.01 3.498-1.11 4.669-2.1 5.328s-1.9.666-1.9.666h-22.424c-.793-1.817-2.594-2.997-4.576-3-2.743 0-5 2.257-5 5s2.257 5 5 5c1.983-.001 3.787-1.182 4.58-3h22.42s2.101.007 4.117-1.334 3.896-4.17 3.883-8.672c-.012-4.317-1.99-6.988-4.064-8.099-1.791-.96-3.484-.923-3.936-.895h-24c-.065 0-.129.003-.193.01 0 0-.934.063-1.854-.43s-1.944-1.321-1.953-4.586c-.01-3.498 1.11-4.669 2.1-5.328s1.9-.666 1.9-.666h22.424c.793 1.817 2.594 2.997 4.576 3 2.743 0 5-2.257 5-5s-2.257-5-5-5z" fill="#4738ae" fill-rule="nonzero"/>
  <path d="m35 24c0-6.071-4.929-11-11-11s-11 4.929-11 11 4.929 11 11 11 11-4.929 11-11z" fill="#2968b4"/>
  <path d="m24 17c-3.866 0-7 3.134-7 7s3.134 7 7 7 7-3.134 7-7-3.134-7-7-7zm-.701 1.338c.081-.009.185.005.267 0 .01.039-.059.177-.152.381-.593 1.295-.626 2.812-.076 3.623.099.147.189.286.189.304 0 .019-.107.038-.228.038-.285 0-.555-.174-1.106-.61-.244-.194-.562-.356-.685-.381-.194-.038-.246-.022-.496.229-.233.233-.305.359-.305.572 0 .809.96 1.45 2.744 1.828 2.424.514 3.021.976 3.088 2.25.084 1.598-.767 2.804-2.631 3.737-.222.111-.364.153-.457.189-.041-.004-.072.004-.113 0-.016-.049-.039-.164-.039-.381 0-.849-.334-1.722-.838-2.211-.135-.131-.515-.408-.84-.609-.324-.201-.652-.434-.725-.533-.12-.166-.129-.267-.037-.573.17-.557.37-.868.762-1.22.205-.185.412-.338.457-.342.046-.004-.261-.097-.723-.192-.461-.094-1.139-.293-1.488-.419-.639-.232-1.499-.716-1.828-1.067-.014-.015-.027-.026-.039-.039.471-1.876 1.793-3.413 3.545-4.154.367-.155.745-.262 1.144-.344.199-.041.405-.055.61-.076zm5.719 2.859c.143.089.683 1.259.837 1.83.2.737.185 2.012 0 2.744-.07.279-.159.54-.189.573-.03.032-.14-.154-.268-.381s-.537-.71-.877-1.068c-.98-1.036-1.135-1.575-.724-2.401.207-.416 1.11-1.365 1.221-1.297z" fill="#fff" fill-rule="nonzero"/>
 </g>
</svg>
