<svg clip-rule="evenodd" fill-rule="evenodd" stroke-linejoin="round" stroke-miterlimit="2" viewBox="0 0 48 48" xmlns="http://www.w3.org/2000/svg">
 <linearGradient id="a" x2="1" gradientTransform="matrix(0 -36.2165 36.2165 0 658.378 42.119)" gradientUnits="userSpaceOnUse">
  <stop stop-color="#566069" offset="0"/>
  <stop stop-color="#6c7884" offset="1"/>
 </linearGradient>
 <path d="m39.44 2.332c3.438 0 6.228 2.79 6.228 6.228v30.88c0 3.438-2.79 6.228-6.228 6.228h-30.88c-3.438 0-6.228-2.79-6.228-6.228v-30.88c0-3.438 2.79-6.228 6.228-6.228z" fill="url(#a)"/>
 <path d="m2.332 9.588v-1.028c0-3.438 2.79-6.228 6.228-6.228h30.88c3.438 0 6.228 2.79 6.228 6.228v1.028z" fill="#ebebeb" fill-opacity=".1"/>
 <path d="m33.317 7.335h-.105c-.099 0-.178-.081-.178-.18v-.302c-.426-.107-.548-.36-.548-.879 0-.766.622-1.389 1.388-1.389s1.388.623 1.388 1.389c0 .511-.129.763-.546.874v.306c0 .1-.081.18-.18.18h-.104c-.099 0-.18-.08-.18-.18v-.24c-.047.003-.095.005-.146.006v.235c0 .099-.08.179-.179.179h-.104c-.1 0-.18-.08-.18-.179v-.234c-.051-.001-.1-.003-.147-.006v.24c0 .099-.08.18-.179.18zm-.018-1.926c-.22-.085-.427.185-.427.414 0 .227.218.521.427.412.272-.141.426-.185.426-.412 0-.229-.191-.322-.426-.414zm1.145 0c-.26.074-.426.185-.426.414 0 .227.178.265.426.412.202.121.426-.185.426-.412 0-.229-.199-.478-.426-.414zm6.091-.37.418.442.661-.626.528.557-.66.626.418.442c.143.15.141.383-.003.518-.144.137-.376.126-.517-.024l-.42-.442-.662.628-.529-.557.664-.596-.419-.475c-.143-.15-.14-.382.003-.518.144-.136.376-.125.518.025zm-3.334-.147.004-.169.607.016-.006.169.328.009c.314.009.563.272.554.586l-.031 1.139c-.008.315-.27.564-.585.555l-1.26-.034c-.315-.008-.563-.271-.554-.585l.03-1.14c.008-.315.271-.563.586-.555zm-.182.496c-.163-.004-.3.125-.304.288-.005.163.125.3.288.304s.3-.125.303-.288c.005-.163-.124-.3-.287-.304zm1.009.027c-.163-.004-.299.125-.304.288-.004.164.125.3.288.304.164.005.3-.124.304-.288.005-.164-.125-.299-.288-.304z" fill="#ededed" fill-opacity=".5"/>
 <path d="m17.484 21.853-8.378-5.12 8.378-5.119v3.723h13.032v-3.723l8.378 5.119-8.378 5.12v-3.723h-13.032zm13.032 0 8.378 5.12-8.378 5.119v-3.723h-13.032v3.723l-8.378-5.119 8.378-5.12v3.723h13.032zm0 10.239 8.378 5.12-8.378 5.12v-3.724h-13.032v3.724l-8.378-5.12 8.378-5.12v3.724h13.032z" fill="#ebebeb" fill-opacity=".8"/>
</svg>
