<svg clip-rule="evenodd" fill-rule="evenodd" stroke-linecap="round" stroke-linejoin="round" viewBox="0 0 64 64" xmlns="http://www.w3.org/2000/svg" xmlns:xlink="http://www.w3.org/1999/xlink">
 <linearGradient id="a">
  <stop stop-color="#151515" offset="0"/>
  <stop stop-color="#272727" offset="1"/>
 </linearGradient>
 <linearGradient id="b" x2="1" gradientTransform="matrix(0 -6.99361 6.99361 0 299.04 45.5692)" gradientUnits="userSpaceOnUse" xlink:href="#a"/>
 <linearGradient id="c">
  <stop stop-color="#151515" offset="0"/>
  <stop stop-color="#393939" offset="1"/>
 </linearGradient>
 <linearGradient id="d" x2="1" gradientTransform="matrix(.0120606 -.981348 .981348 .0120606 84.4039 47.3421)" gradientUnits="userSpaceOnUse" xlink:href="#c"/>
 <linearGradient id="e">
  <stop stop-color="#141414" offset="0"/>
  <stop stop-color="#2d2d2f" offset="1"/>
 </linearGradient>
 <linearGradient id="f" x2="1" gradientTransform="matrix(.0607208 -28.224 28.224 .0607208 353.589 40.2)" gradientUnits="userSpaceOnUse" xlink:href="#e"/>
 <linearGradient id="g">
  <stop stop-color="#151515" offset="0"/>
  <stop stop-color="#2e2e2e" offset="1"/>
 </linearGradient>
 <linearGradient id="h" x2="1" gradientTransform="matrix(21.5232 458.945 -458.945 21.5232 318.045 -460.577)" gradientUnits="userSpaceOnUse" xlink:href="#g"/>
 <linearGradient id="i">
  <stop stop-color="#08f" offset="0"/>
  <stop stop-color="#02c3ff" offset="1"/>
 </linearGradient>
 <linearGradient id="j" x2="1" gradientTransform="matrix(-.808251 -24.4216 24.4216 -.808251 343.044 27.0442)" gradientUnits="userSpaceOnUse" xlink:href="#i"/>
 <radialGradient id="k" cx="0" cy="0" r="1" gradientTransform="matrix(-24.474 .415331 .473396 29.7721 30.0075 37.8397)" gradientUnits="userSpaceOnUse">
  <stop stop-color="#333" offset="0"/>
  <stop stop-color="#1a1a1a" offset="1"/>
 </radialGradient>
 <radialGradient id="l" cx="0" cy="0" r="1" gradientTransform="matrix(-5.88361 -1.41269 -2.21438 9.84288 29.5541 37.2229)" gradientUnits="userSpaceOnUse">
  <stop stop-color="#b3b3b3" offset="0"/>
  <stop stop-color="#666" offset="1"/>
 </radialGradient>
 <linearGradient id="m" x2="1" gradientTransform="matrix(42.9788 0 0 43.4516 5.438 34.9801)" gradientUnits="userSpaceOnUse">
  <stop stop-color="#f2f2f2" offset="0"/>
  <stop stop-color="#bfbfbf" offset="1"/>
 </linearGradient>
 <linearGradient id="n" x2="1" gradientTransform="matrix(-.789645 51.149 -51.149 -.789645 24.7291 4.65448)" gradientUnits="userSpaceOnUse">
  <stop stop-color="#e4e4e4" offset="0"/>
  <stop stop-color="#b7b7b7" offset="1"/>
 </linearGradient>
 <linearGradient id="o" x2="1" gradientTransform="matrix(0 -4.25208 4.25208 0 263.217 56.8095)" gradientUnits="userSpaceOnUse" xlink:href="#a"/>
 <linearGradient id="p" x2="1" gradientTransform="matrix(.00733278 -.596655 .596655 .00733278 77.4649 57.9689)" gradientUnits="userSpaceOnUse" xlink:href="#c"/>
 <linearGradient id="q" x2="1" gradientTransform="matrix(.0369179 -17.16 17.16 .0369179 659.073 54.4584)" gradientUnits="userSpaceOnUse" xlink:href="#e"/>
 <linearGradient id="r" x2="1" gradientTransform="matrix(22.2416 474.264 -474.264 22.2416 597.727 -464.63)" gradientUnits="userSpaceOnUse" xlink:href="#g"/>
 <linearGradient id="s" x2="1" gradientTransform="matrix(-.491412 -14.8482 14.8482 -.491412 587.832 33.6404)" gradientUnits="userSpaceOnUse" xlink:href="#i"/>
 <path d="m33.822 37.117h11.273v9.662h-11.273z" fill="url(#b)" fill-rule="nonzero"/>
 <path d="m30.112 45.912h18.693v.948h-18.693z" fill="url(#d)"/>
 <path d="m18.523 11.126h41.871v28.292h-41.871z" fill="url(#f)" stroke="url(#h)" stroke-width=".32"/>
 <path d="m20.091 12.439h38.734v25.522h-38.734z" fill="url(#j)"/>
 <g fill-rule="nonzero">
  <path d="m30.626 5.543c2.004.043 3.684.807 4.934 2.245.588.474 1.104 1.063 1.543 1.759.859 1.415 1.4 3.243 1.599 5.407.162.417.314.836.674 1.649.62 2.32.971 4.786 1.322 9.264.059.761.094 1.152.139 1.447.118-.053 1.034.894 1.406 1.458.129.194.241.409.352.625.27.198.52.378 1.102.773.879.597 1.817 1.273 2.085 1.502 1.454 1.244 2.331 3.084 2.634 5.524.121.979.083 2.807-.079 3.767-.218 1.298-.465 2.209-.936 3.45-1.976 5.214-6.192 9.222-10.331 9.823-.571.083-1.612.067-2.18-.032-.897-.158-1.505-.404-3.787-1.53-.212-.105-.389-.177-.582-.264-.039.006-.08.015-.119.021-.444.057-1.343.031-1.803-.051-.555-.099-1.209-.31-1.27-.405-.387.171-1.034.475-2.058.991-4.698 2.369-6.413 3.024-10.036 3.837-.466.104-1.2.276-1.628.381-.689.17-1.53.323-2.097.382-.415.044-1.344.035-1.798-.018-.543-.064-1.032-.181-1.499-.325-1.188-.319-2.217-.948-3.059-1.869-.646-.497-1.209-1.129-1.682-1.886-4.225-6.852-.294-22.565 8.71-34.816l.025-.039c6-8.149 13.078-13.172 18.419-13.07zm-1.344 3.733c-4.606-.087-10.71 4.326-15.884 11.483l-.026.03c-7.768 10.763-11.159 24.568-7.512 30.586.204.331.427.635.669.911 4.371 3.476 12.555-.874 19.36-10.288 7.77-10.757 11.167-24.564 7.528-30.59-.205-.335-.43-.642-.674-.92-.96-.771-2.128-1.18-3.461-1.212z" fill-opacity=".666667"/>
  <path d="m13.302 19.106c-7.96 11.097-11.435 25.33-7.699 31.534 3.737 6.205 13.361 2.185 21.325-8.907 7.963-11.091 11.446-25.327 7.716-31.541s-13.352-2.205-21.318 8.881" fill="url(#k)"/>
  <path d="m23.839 32.985c-2.555 4.892-2.658 10.032-.227 11.389 2.43 1.358 6.533-1.549 9.089-6.439 2.557-4.89 2.663-10.033.234-11.394-2.428-1.362-6.53 1.541-9.089 6.43" fill="url(#l)"/>
 </g>
 <path d="m11.663 56.679c.563-.06 1.399-.214 2.084-.383.426-.106 1.153-.278 1.616-.382 3.602-.812 5.308-1.468 9.978-3.836 1.249-.634 2.379-1.181 2.511-1.216.631-.169 1.669.124 3.284.925 2.269 1.126 2.873 1.371 3.765 1.528.563.1 1.601.115 2.167.033 4.115-.601 8.305-4.61 10.27-9.824.467-1.241.713-2.152.93-3.45.161-.96.198-2.787.078-3.766-.301-2.44-1.173-4.281-2.619-5.524-.266-.229-1.199-.905-2.073-1.502-1.538-1.051-1.608-1.106-2.196-1.747-.707-.77-.624-.498-.784-2.557-.349-4.478-.698-6.943-1.314-9.262-1.914-4.345-.366-3.344-2.245 6.281-.532 2.63-1.102 4.596-1.863 6.431-1.79 4.313-3.206 7.136-5.122 10.211-4.512 7.242-10.195 12.863-15.29 15.125-3.831 1.59-9.001.728-9.402.72 1.25 1.299 2.59 1.956 4.437 2.175.452.053 1.375.063 1.788.02z" fill="url(#m)"/>
 <path d="m31.437 5.393c2.436.047 4.383 1.17 5.664 3.265 4.195 6.86.279 22.58-8.676 34.826-8.955 12.247-19.778 16.685-23.979 9.834-4.201-6.852-.293-22.566 8.658-34.817l.025-.038c5.964-8.149 13-13.172 18.308-13.07zm-2.111 2.995c-4.578-.087-10.646 4.325-15.788 11.482l-.025.031c-7.722 10.763-11.092 24.569-7.467 30.586 3.624 6.019 12.96 2.119 20.683-8.64 7.723-10.757 11.101-24.565 7.483-30.591-1.105-1.84-2.785-2.827-4.886-2.868z" fill="#333" fill-rule="nonzero"/>
 <path d="m30.663 4.656c2.436.046 4.383 1.169 5.664 3.264 4.195 6.861.279 22.58-8.676 34.827-8.955 12.246-19.778 16.685-23.979 9.833-4.201-6.851-.293-22.565 8.658-34.817l.025-.037c5.964-8.15 13-13.172 18.308-13.07zm-2.111 2.995c-4.578-.088-10.646 4.324-15.789 11.482l-.024.03c-7.722 10.764-11.092 24.569-7.467 30.587 3.624 6.018 12.96 2.118 20.683-8.64s11.1-24.565 7.482-30.591c-1.104-1.841-2.784-2.827-4.885-2.868z" fill="url(#n)"/>
 <path d="m30.44 51.542c1.844-.238 3.868-1.232 5.731-2.812.756-.64 2.083-2.033 2.697-2.829 2.349-3.044 3.959-6.726 4.513-10.317.155-1.003.214-2.873.118-3.738-.178-1.596-.612-2.934-1.288-3.963-.377-.574-1.325-1.555-1.413-1.464-.016.016.01.82.06 1.785.184 3.613.09 5.096-.459 7.26-1.323 5.208-4.703 10.305-8.57 12.923-.725.491-1.969 1.231-3.461 2.059-.563.313-1.016.595-1.006.628.026.091.719.316 1.287.418.457.082 1.35.107 1.791.05z" fill="#2b2d30" fill-rule="nonzero"/>
 <path d="m30.44 51.542c1.844-.238 3.868-1.232 5.731-2.812.756-.64 2.083-2.033 2.697-2.829 2.349-3.044 3.959-6.726 4.513-10.317.155-1.003.214-2.873.118-3.738-.178-1.596-.612-2.934-1.288-3.963-.377-.574-1.325-1.555-1.413-1.464-.016.016.01.82.06 1.785.184 3.613.09 5.096-.459 7.26-1.323 5.208-4.703 10.305-8.57 12.923-.725.491-1.969 1.231-3.461 2.059-.563.313-1.016.595-1.006.628.026.091.719.316 1.287.418.457.082 1.35.107 1.791.05z" fill="#2b2d30" fill-rule="nonzero"/>
 <path d="m40.085 51.67h6.854v5.875h-6.854z" fill="url(#o)" fill-rule="nonzero"/>
 <path d="m37.829 57.018h11.365v.576h-11.365z" fill="url(#p)"/>
 <path d="m30.783 35.868h25.457v17.201h-25.457z" fill="url(#q)" stroke="url(#r)" stroke-width=".19"/>
 <path d="m31.737 36.667h23.55v15.517h-23.55z" fill="url(#s)"/>
</svg>
