<svg clip-rule="evenodd" fill-rule="evenodd" stroke-linejoin="round" stroke-miterlimit="2" viewBox="0 0 48 48" xmlns="http://www.w3.org/2000/svg">
 <g fill-rule="nonzero">
  <path d="m5.43 43.172c-1.465-3.905-1.022-36.901.53-39.41 1.217-1.968 2.179-1.897 7.187.534 7.169 3.48 20.876 11.921 27.318 16.551 3.445 2.324 4.036 3.126 1.187 5.303-7.524 5.716-30.918 19.478-33.87 19.478-.787 0-1.846-1.105-2.352-2.456z" fill="#8d348e"/>
  <path d="m4.556 24c-.089 8.7.17 17.295.874 19.172.507 1.351 1.566 2.456 2.353 2.456 2.952 0 26.344-13.762 33.868-19.478 1.148-.876 1.728-1.53 1.798-2.15h-38.893z" fill-opacity=".3"/>
  <path d="m14.615 31.669c-.569-1.562-.397-14.761.207-15.764.473-.787.847-.759 2.794.213 2.788 1.392 8.119 4.769 10.624 6.621 1.34.93 1.57 1.25.462 2.121-2.926 2.286-12.024 7.791-13.172 7.791-.306 0-.718-.442-.915-.982z" fill="#ffffff"/>
 </g>
</svg>
