<svg clip-rule="evenodd" fill-rule="evenodd" stroke-linejoin="round" stroke-miterlimit="2" viewBox="0 0 48 48" xmlns="http://www.w3.org/2000/svg">
 <g fill-rule="nonzero">
  <path d="m26 4c-10.96.032-19.968 9.04-20 20l25.339 5.339z" fill="#ed6c47"/>
  <path d="m26 4c10.96.032 19.968 9.04 20 20l-10 6.797-10-6.797z" fill="#ff8f6b"/>
  <path d="m26 44c10.96-.032 19.968-9.04 20-20h-40c.032 10.96 9.04 19.968 20 20z" fill="#d35230"/>
  <path d="m3.833 13h18.334c1.005 0 1.833.828 1.833 1.833v18.334c0 1.005-.828 1.833-1.833 1.833h-18.334c-1.005 0-1.833-.828-1.833-1.833v-18.334c0-1.005.828-1.833 1.833-1.833z" fill="#af3213"/>
  <path d="m8 17.014v13.986h3v-5h2.02c.903.021 1.797-.109 2.617-.52.717-.36 1.322-.937 1.742-1.66.413-.653.627-1.629.613-2.42.074-1.234-.383-2.438-1.238-3.261-1.029-.82-2.296-1.218-3.572-1.125zm3 2.986h1.9c1.4 0 2.1.53 2.1 1.592.038.392-.173.771-.547.984-.463.312-1.04.464-1.621.426h-1.832z" fill="#f9f7f7"/>
 </g>
</svg>
