<svg clip-rule="evenodd" fill-rule="evenodd" stroke-linejoin="round" stroke-miterlimit="2" viewBox="0 0 48 48" xmlns="http://www.w3.org/2000/svg">
 <linearGradient id="a" x2="1" gradientTransform="matrix(0 -35.3911 35.3911 0 968.766 41.2823)" gradientUnits="userSpaceOnUse">
  <stop stop-color="#dd1e5f" offset="0"/>
  <stop stop-color="#ff395d" offset="1"/>
 </linearGradient>
 <circle cx="24" cy="24" r="22.764" fill="url(#a)"/>
 <g fill="#fff" fill-rule="nonzero">
  <path transform="matrix(1.1382 0 0 1.1382 -3.3168 -3.3168)" d="m31.433 14.513-7.37 5.389c-.021.015-.063.046-.063.046l-7.503-5.388c-.414-.304-.895-.441-1.366-.441-1.093 0-2.129.737-2.129 1.824v4.086l-.002 12.147c0 1.087 1.037 1.824 2.13 1.824.471 0 .952-.137 1.365-.441l7.505-5.435c3.734 2.746 7.432 5.435 7.432 5.435.413.304.895.441 1.365.441 1.094 0 2.203-.737 2.203-1.824v-16.316c0-1.086-1.108-1.788-2.201-1.788-.471 0-.952.136-1.366.441z" fill-opacity=".7"/>
  <path transform="matrix(1.17562 0 0 1.14625 11.4798 12.6008)" d="m10.65 5.92-5.33 4.07 5.33 4.05 5.3-4.05z" fill-opacity=".6"/>
  <path transform="matrix(1.17562 0 0 1.14625 11.4798 12.6008)" d="m0 5.99v8l5.32-4z" fill-opacity=".6"/>
  <path transform="matrix(1.17562 0 0 1.14625 11.4798 12.6008)" d="m15.95 9.99 5.35 4.05v-8.12z" fill-opacity=".6"/>
  <path transform="matrix(1.1382 0 0 1.1382 -3.3168 -3.3168)" d="m31.333 14.583-7.333 5.365 5.471 4.095 5.529-4.095v-4.088c0-1.553-2.095-2.555-3.667-1.277z"/>
  <path transform="matrix(1.1382 0 0 1.1382 -3.3168 -3.3168)" d="m16.505 14.528c-1.377-1.01-3.501-.171-3.501 1.382v4.105l5.49 4.029 5.506-4.096z"/>
 </g>
</svg>
