<svg clip-rule="evenodd" fill-rule="evenodd" stroke-linejoin="round" stroke-miterlimit="2" viewBox="0 0 48 48" xmlns="http://www.w3.org/2000/svg">
 <linearGradient id="a" x2="1" gradientTransform="matrix(0 -43.3373 43.3373 0 302.963 45.6687)" gradientUnits="userSpaceOnUse">
  <stop stop-color="#3b3b3b" offset="0"/>
  <stop stop-color="#4f4f4f" offset="1"/>
 </linearGradient>
 <path d="m45.668 8.56c0-3.438-2.79-6.228-6.228-6.228h-30.88c-3.438 0-6.228 2.79-6.228 6.228v30.88c0 3.438 2.79 6.228 6.228 6.228h30.88c3.438 0 6.228-2.79 6.228-6.228z" fill="url(#a)"/>
 <g fill="#dfdfdf" fill-rule="nonzero">
  <path d="m29.613 27.051-1.077 1.077 4.488 5.051-1.125 1.2-1.747-1.942-5.386 6.463h17.234l-3.77-4.308-1.014 1.014-2.639-2.97 4.73-5.046-.538-.539-4.7 5.014zm3.919 6.698 2.607 2.934-1.14 1.14-2.589-2.876z"/>
  <path d="m17.652 9.9c-1.646 0-3 1.354-3 3s1.354 3 3 3c1.645 0 3-1.354 3-3s-1.355-3-3-3zm-10.077 2.616c-.537-.358-1.252-.287-1.708.169-.296.296-.44.71-.392 1.125.047.414.281.785.636 1.006 3.207 2.109 7.541 5.455 7.541 5.455v17.147c0 .819.663 1.482 1.481 1.482h.037c.818 0 1.482-.663 1.482-1.482 0-3.409.058-9.135.058-9.135h2s-.058 5.726-.058 9.135c0 .819.663 1.482 1.481 1.482h.037c.818 0 1.482-.663 1.482-1.482v-11.518-5.629s4.628-3.177 7.693-5.405c.328-.243.533-.616.563-1.022.03-.407-.118-.806-.406-1.094-.013-.013-.026-.025-.038-.038-.472-.472-1.212-.545-1.768-.175-2.021 1.347-6.544 4.363-6.544 4.363h-7s-4.572-3.048-6.577-4.384z"/>
 </g>
</svg>
