<svg clip-rule="evenodd" fill-rule="evenodd" stroke-linejoin="round" stroke-miterlimit="2" viewBox="0 0 48 48" xmlns="http://www.w3.org/2000/svg">
 <linearGradient id="a" x2="1" gradientTransform="matrix(0 -45.5286 45.5286 0 210.895 46.7643)" gradientUnits="userSpaceOnUse">
  <stop stop-color="#8fbff8" offset="0"/>
  <stop stop-color="#d1e6ff" offset="1"/>
 </linearGradient>
 <circle cx="24" cy="24" r="22.764" fill="url(#a)"/>
 <path d="m9.95 22.054c.346.367.855.367 1.022.367.31 0 .694-.052 1.244-.167.431-.091.803-.181 1.131-.26.645-.157 1.111-.27 1.55-.27.247 0 .698.107 1.176.22.744.177 1.669.397 2.565.397.904 0 1.856-.07 2.455-.125.199.747.673 1.978 1.748 2.859 1.463 1.198 2.547 1.732 2.592 1.755.278.135.612.064.81-.173.198-.236.21-.578.029-.827-.006-.009-.737-1.042-.709-2.203.011-.462.028-.824.045-1.099.911.268 2.461.868 3.261 1.998 1.212 1.711 1.709 4.345 1.576 5.21-.139.9-.155.9-.583.9-.931 0-1.713.038-2.593.518-.78.424-1.209.887-1.255.939-.175.194-.221.472-.119.712.102.241.334.401.595.41.251.009 1.013.073 1.503.25.26.095.484.205.7.312.347.171.674.333 1.056.378.124.014.252.022.373.019.14.327.38.717.783 1.026.308.237.622.383.899.512.34.158.609.283.815.539.54.67.722 1.397.723 1.404.071.29.325.501.624.514.01.001.02.001.031.001.286 0 .542-.18.636-.453.042-.123.396-1.246-.075-2.891-.169-.587-.43-1.096-.683-1.588-.411-.801-.766-1.492-.617-2.34.7-3.982.652-7.219-.144-9.622-1.236-3.738-4.23-5.82-4.817-6.2-.292-.188-.554-.354-.775-.491.205-.164.465-.335.775-.467.706-.3 1.002-.382 1.084-.401h.016c.292 0 .517-.194.603-.479.089-.296-.076-.615-.343-.772-.05-.03-1.262-.734-2.859-.734-.329 0-.657.03-.973.089-.984.186-1.68.464-2.353.732-.657.263-1.278.51-2.205.705-.45.095-.865.168-1.266.239-1.379.244-2.57.454-4.351 1.364-2.324 1.187-3.631 2.486-3.68 3.657-.011.246-.005.467.016.661-.218.109-.482.246-.749.398-1.087.618-1.543 1.081-1.573 1.598-.021.36.075.655.286.879z" fill="#3f546c" fill-rule="nonzero"/>
</svg>
