<svg clip-rule="evenodd" fill-rule="evenodd" stroke-linejoin="round" stroke-miterlimit="2" viewBox="0 0 48 48" xmlns="http://www.w3.org/2000/svg">
 <g fill-rule="nonzero">
  <path d="m7.862 11.006 24.21-.144c2.77-.016 3.902 1.586 3.779 4.354l-.791 17.784c-.123 2.767-1.799 3.661-4.569 3.635l-23.132-.215c-2.77-.026-5.359-.65-5.359-3.42v-18c0-.425.053-.838.152-1.232.546-2.17 3.366-2.748 5.71-2.762z" fill="#6f7a9c"/>
  <path d="m44.558 15.234-7.387 4.873c-.798.609-1.441 2.996-1.441 3.934.038.785.494 3.916 1.441 4.64l7.387 4.066c.864.491 1.429.253 1.442-.592v-16.329c.008-.858-.797-1.034-1.442-.592z" fill="#6f7a9c"/>
  <path d="m7 10c-2.469 0-4.503 1.773-4.918 4.119.524-1.205 1.704-1.89 2.871-1.883.521.004 1.095.144 1.697.438l23.094 11.228 2.953-1.679c2.249-1.096 4.068-3.918 4.303-6.524v-.699c0-2.77-2.23-5-5-5z" fill="#565f7c"/>
  <path d="m37 15.699c-.235 2.606-2.054 5.428-4.303 6.524l-3.224 1.57-22.823 11.119c-.444.217-.874.35-1.277.406h-.002c-.016.003-.031.004-.047.006-.001 0-.002 0-.004 0-.045.006-.092.01-.136.014-.002 0-.003 0-.004 0-.016.001-.032.003-.047.004-.326.021-.635-.01-.918-.09-.058-.016-.114-.034-.17-.055-.248-.09-.475-.221-.678-.388l-.002-.002c-.048-.04-.095-.082-.14-.125-.455-.44-1.006-1.088-1.225-1.905v.223c0 2.77 2.23 5 5 5h25c2.77 0 5-2.23 5-5z" fill="#434a61"/>
  <path d="m13 15.762v16.056l16.473-8.025.023-.012z" fill="#fff"/>
 </g>
</svg>
