<svg clip-rule="evenodd" fill-rule="evenodd" stroke-linejoin="round" stroke-miterlimit="2" viewBox="0 0 48 48" xmlns="http://www.w3.org/2000/svg">
 <linearGradient id="a" x2="1" gradientTransform="matrix(0 -40 40 0 24 44)" gradientUnits="userSpaceOnUse">
  <stop stop-color="#424242" offset="0"/>
  <stop stop-color="#7a7a7a" offset="1"/>
 </linearGradient>
 <linearGradient id="b" x2="1" gradientTransform="matrix(0 -25.6287 25.6287 0 24 39.0134)" gradientUnits="userSpaceOnUse">
  <stop stop-color="#ff3600" offset="0"/>
  <stop stop-color="#ff6c40" offset="1"/>
 </linearGradient>
 <g transform="matrix(1.1382 0 0 1.1382 -3.3168 -3.3168)">
  <circle cx="24" cy="24" r="20" fill="url(#a)"/>
  <path d="m21.78 13.385-.373.769c-.533 1.102-.476 1.913.239 3.459.481 1.042.472 1.854.464 2.627-.228 1.817-1.227 3.571-2.696 3.787-1.293.19-3.279-1.418-3.849-2.509-.569-1.088-.767-.169-.305 1.41.148.507.617 1.924 1.041 2.904 1.295 2.99 1.048 4.626-.555 5.106-.879.263-1.808.008-2.644-.727-.329-.288-.652-.468-.719-.402s-.159.891-.205 1.832c-.393 3.093 2.049 4.274 4.445 5.61 1.269.698 2.651 1.222 4.119 1.548.86.191 1.866.248 3.647.207 2.21-.051 2.622-.111 4.07-.588 2.713-.893 5.035-2.453 6.813-4.434.757-.889.98-1.53 1.22-2.463.234-1.347.326-2.966.168-2.966-.087 0-.533.381-.992.847-.596.605-.968.848-1.297.848-.646 0-1.236-.457-.784-1.457.608-1.341.531-2.578-.259-4.168-.356-.715-.794-1.433-.973-1.596-.319-.288-.325-.27-.326.791-.002 2.085-.544 3.056-2.074 3.719-1.254.544-3.171.582-4.039.072-1.314-.771-1.315-1.587-.002-4.781.316-.769.538-1.33.691-1.774.5-1.369.336-2.725-.406-3.439-.441-.423-1.141-.854-1.761-1.086-1.295-.484-2.129-1.042-2.425-2.218z" fill="url(#b)" fill-rule="nonzero"/>
  <path d="m24 8c-8.831 0-16 7.169-16 16s7.169 16 16 16 16-7.169 16-16-7.169-16-16-16zm0 4c6.623 0 12 5.377 12 12s-5.377 12-12 12-12-5.377-12-12 5.377-12 12-12z" fill="#fff"/>
 </g>
</svg>
