<svg clip-rule="evenodd" fill-rule="evenodd" stroke-linejoin="round" stroke-miterlimit="2" viewBox="0 0 48 48" xmlns="http://www.w3.org/2000/svg">
 <linearGradient id="a" x2="1" gradientTransform="matrix(0 -33.6872 33.6872 0 923.28 40.4502)" gradientUnits="userSpaceOnUse">
  <stop stop-color="#d0d0d0" offset="0"/>
  <stop stop-color="#f2f2f2" offset="1"/>
 </linearGradient>
 <path d="m39.44 45.668h-30.88c-3.438 0-6.228-2.79-6.228-6.228v-30.88c0-3.438 2.79-6.228 6.228-6.228h30.88c3.438 0 6.228 2.79 6.228 6.228v30.88c0 3.438-2.79 6.228-6.228 6.228z" fill="url(#a)"/>
 <path transform="matrix(0 -1.41509 -1.04771 0 -1.14507 -9.96208)" d="m-15-39.568c0-.79-.475-1.432-1.06-1.432h-15.88c-.585 0-1.06.642-1.06 1.432v31.136c0 .79.475 1.432 1.06 1.432h15.88c.585 0 1.06-.642 1.06-1.432z" fill="#263238"/>
 <g transform="matrix(1.04771 0 0 1.04771 -.621212 -3.24049)">
  <path d="m22 23v1c0 .552-.448 1-1 1h-11c-.552 0-1-.448-1-1v-1c0-.552.448-1 1-1h11c.552 0 1 .448 1 1zm6 0v1c0 .552-.448 1-1 1h-2c-.552 0-1-.448-1-1v-1c0-.552.448-1 1-1h2c.552 0 1 .448 1 1zm10 0v1c0 .552-.448 1-1 1h-6c-.552 0-1-.448-1-1v-1c0-.552.448-1 1-1h6c.552 0 1 .448 1 1zm-21 5v1c0 .552-.448 1-1 1h-6c-.552 0-1-.448-1-1v-1c0-.552.448-1 1-1h6c.552 0 1 .448 1 1z" fill="#fafafa"/>
  <path d="m35 27.954c0-.526-.428-.954-.954-.954h-14.092c-.526 0-.954.428-.954.954v1.092c0 .526.428.954.954.954h14.092c.526 0 .954-.428.954-.954z" fill="#bdbdbd"/>
 </g>
</svg>
