<svg clip-rule="evenodd" fill-rule="evenodd" stroke-linejoin="round" stroke-miterlimit="2" viewBox="0 0 48 48" xmlns="http://www.w3.org/2000/svg">
 <linearGradient id="a" x2="1" gradientTransform="matrix(0 -40 40 0 23.6206 44)" gradientUnits="userSpaceOnUse">
  <stop stop-color="#092294" offset="0"/>
  <stop stop-color="#3450d1" offset="1"/>
 </linearGradient>
 <path d="m44 10v28c0 3.311-2.689 6-6 6h-28c-3.311 0-6-2.689-6-6v-28c0-3.311 2.689-6 6-6h28c3.311 0 6 2.689 6 6z" fill="url(#a)"/>
 <path d="m25.69 39.928c1.634-1.205 1.644-1.213 1.617-1.364-.051-.287-1.471-11.346-1.458-11.359.007-.007 2.093 1.572 4.636 3.509l4.624 3.521 1.844-.801c1.015-.441 1.865-.821 1.89-.845.051-.048-.382-4.047-.444-4.102-.02-.017-2.431-1.028-5.359-2.246-2.927-1.219-5.322-2.227-5.322-2.24s2.403-1.024 5.339-2.245c2.936-1.222 5.347-2.235 5.358-2.252.054-.085.47-4.053.428-4.091-.025-.024-.876-.403-1.892-.844l-1.846-.801-4.622 3.52c-2.542 1.936-4.628 3.515-4.635 3.508-.01-.011 1.372-10.817 1.453-11.361.023-.153.01-.164-1.617-1.364-.903-.665-1.661-1.209-1.685-1.209-.025 0-.784.545-1.689 1.212-1.634 1.204-1.644 1.213-1.617 1.364.051.287 1.471 11.346 1.458 11.359-.007.007-2.093-1.572-4.636-3.509l-4.624-3.521-1.844.801c-1.015.441-1.865.821-1.89.845-.051.047.382 4.047.444 4.101.02.018 2.431 1.029 5.359 2.247 2.927 1.219 5.322 2.226 5.322 2.24 0 .013-2.403 1.023-5.339 2.245-2.936 1.221-5.347 2.235-5.358 2.252-.054.085-.47 4.052-.428 4.091.025.023.876.403 1.892.844l1.846.801 4.622-3.52c2.542-1.937 4.628-3.515 4.635-3.508s-.311 2.521-.707 5.585c-.395 3.065-.727 5.656-.736 5.757l-.016.184 1.617 1.2c.89.659 1.644 1.201 1.677 1.204.032.002.798-.541 1.703-1.208z" fill="#fff"/>
</svg>
