<svg clip-rule="evenodd" fill-rule="evenodd" stroke-linejoin="round" stroke-miterlimit="2" viewBox="0 0 48 48" xmlns="http://www.w3.org/2000/svg">
 <linearGradient id="a" x2="1" gradientTransform="matrix(0 -35.3911 35.3911 0 968.766 41.2823)" gradientUnits="userSpaceOnUse">
  <stop stop-color="#d8d8d8" offset="0"/>
  <stop stop-color="#fff" offset="1"/>
 </linearGradient>
 <linearGradient id="b" x2="1" gradientTransform="matrix(0 -36.1513 36.1513 0 23.9721 39.6765)" gradientUnits="userSpaceOnUse">
  <stop stop-color="#150f26" offset="0"/>
  <stop stop-color="#132978" offset="1"/>
 </linearGradient>
 <linearGradient id="c" x2="1" gradientTransform="matrix(-2.65909 -12.2728 12.2728 -2.65909 30.9281 29.0939)" gradientUnits="userSpaceOnUse">
  <stop stop-color="#b0b0b0" offset="0"/>
  <stop stop-color="#e4e4e4" offset="1"/>
 </linearGradient>
 <linearGradient id="d" x2="1" gradientTransform="matrix(0 19.3673 -17.76 0 23.9719 36.0211)" gradientUnits="userSpaceOnUse">
  <stop stop-color="#f9f06b" offset="0"/>
  <stop stop-color="#f5c211" offset="1"/>
 </linearGradient>
 <circle cx="24" cy="24" r="22.764" fill="url(#a)"/>
 <path d="m42.547 31.344c.309 0 .589-.19.693-.482.769-2.15 1.186-4.468 1.186-6.882 0-11.297-9.156-20.455-20.453-20.455s-20.455 9.158-20.455 20.455c0 2.414.419 4.732 1.186 6.882.104.292.384.482.693.482z" fill="#303030"/>
 <path d="m42.547 31.344c.309 0 .589-.19.693-.482.769-2.15 1.186-4.468 1.186-6.882 0-11.297-9.156-20.455-20.453-20.455s-20.455 9.158-20.455 20.455c0 2.414.419 4.732 1.186 6.882.104.292.384.482.693.482z" fill="url(#b)"/>
 <path d="m39.348 26.692c.409.071.8-.201.852-.611.277-2.134.129-4.305-.436-6.387-.63-2.323-1.765-4.478-3.325-6.313-1.559-1.834-3.504-3.301-5.696-4.297-2.191-.997-4.574-1.497-6.983-1.466-2.406.031-4.776.593-6.941 1.645s-4.071 2.569-5.583 4.443c-1.512 1.873-2.591 4.057-3.161 6.397-.511 2.095-.604 4.268-.271 6.395.063.409.46.671.867.589l4.944-1.005c.406-.082.665-.477.614-.889-.147-1.18-.078-2.38.205-3.539.341-1.403.99-2.714 1.897-3.838.907-1.125 2.051-2.034 3.348-2.666 1.3-.631 2.722-.968 4.166-.987 1.445-.019 2.876.281 4.19.879 1.315.597 2.481 1.478 3.417 2.579.936 1.1 1.618 2.394 1.995 3.787.312 1.153.412 2.35.296 3.535-.041.411.229.801.636.873z" fill="#3584e4" fill-rule="nonzero"/>
 <path d="m39.348 26.692c.409.071.8-.201.852-.611.311-2.4.085-4.84-.662-7.147-.748-2.307-1.998-4.415-3.656-6.176-.284-.302-.76-.293-1.049.006l-3.51 3.624c-.288.297-.278.771-.002 1.081.895 1.009 1.573 2.194 1.99 3.483.418 1.29.564 2.647.432 3.991-.041.411.229.801.636.873z" fill="#e82029" fill-rule="nonzero"/>
 <path d="m12.691 12.698c.161-.16.419-.16.578 0l1.157 1.157c.16.16.16.419 0 .579-.159.16-.418.16-.578 0l-1.157-1.157c-.16-.16-.16-.419 0-.579zm20.828 1.736c-.159-.16-.159-.419 0-.579l1.157-1.157c.16-.16.419-.16.579 0 .16.161.16.419 0 .579l-1.157 1.157c-.16.16-.419.16-.579 0zm-15.65-5.194c.208-.087.447.013.533.222l.627 1.512c.086.208-.013.447-.221.533-.21.087-.448-.012-.535-.221l-.627-1.512c-.086-.208.013-.448.223-.534zm18.577 9.574c-.086-.208.013-.448.221-.535l1.512-.625c.209-.087.448.011.535.221.086.208-.012.448-.222.534l-1.511.626c-.208.086-.449-.012-.535-.221zm-6.366-9.574c.208.086.307.326.221.534l-.627 1.512c-.086.209-.325.308-.535.221-.208-.086-.307-.325-.221-.533l.627-1.512c.087-.209.325-.309.535-.222zm-20.846 8.635c.086-.21.326-.308.534-.221l1.512.625c.209.087.308.327.221.535-.086.209-.325.307-.533.221l-1.512-.626c-.209-.086-.309-.326-.222-.534zm14.739-9.85c.227 0 .41.183.41.41v1.637c0 .225-.183.408-.41.408-.226 0-.409-.183-.409-.408v-1.637c0-.227.183-.41.409-.41zm13.498 15.955c0-.225.185-.408.411-.408h1.636c.225 0 .408.183.408.408 0 .226-.183.409-.408.409h-1.636c-.226 0-.411-.183-.411-.409zm-29.453 0c0-.225.183-.408.408-.408h1.637c.227 0 .41.183.41.408 0 .226-.183.409-.41.409h-1.637c-.225 0-.408-.183-.408-.409z" fill="#fff"/>
 <path d="m25.688 25.096c-.365.56-.997.929-1.715.929-1.13 0-2.045-.915-2.045-2.045 0-.665.318-1.257.81-1.63.063-.073.135-.144.211-.211l12.948-11.136c.241-.208.605-.195.83.031.224.224.24.582.037.825l-10.953 13.103c-.039.047-.08.092-.123.134z" fill="url(#c)"/>
 <path d="m10.882 33.799c0 .904-.733 1.636-1.637 1.636-.903 0-1.636-.732-1.636-1.636s.733-1.638 1.636-1.638c.904 0 1.637.734 1.637 1.638zm4.091 0c0 .904-.733 1.636-1.636 1.636-.904 0-1.637-.732-1.637-1.636s.733-1.638 1.637-1.638c.903 0 1.636.734 1.636 1.638z" fill="#3a3a3a"/>
 <path d="m23.973 23.161c-.453 0-.819.368-.819.819s.366.819.819.819c.451 0 .817-.368.817-.819s-.366-.819-.817-.819z" fill="#3a3a3a" fill-rule="nonzero"/>
 <path d="m4.67 36.021h38.66c-4.021 6.449-11.178 10.743-19.33 10.743s-15.309-4.294-19.33-10.743z" fill="url(#d)"/>
 <path d="m40.313 39.871-3.531-3.85h6.548c-.867 1.391-1.88 2.681-3.017 3.85zm-10.322 6.095-9.12-9.945h7.956l6.879 7.502c-1.764 1.061-3.683 1.889-5.715 2.443zm-18.794-3.146-6.234-6.799h7.954l9.819 10.708c-4.263-.233-8.216-1.643-11.539-3.909z"/>
</svg>
