<svg clip-rule="evenodd" fill-rule="evenodd" stroke-linejoin="round" stroke-miterlimit="2" viewBox="0 0 48 48" xmlns="http://www.w3.org/2000/svg">
 <linearGradient id="a" x2="1" gradientTransform="matrix(0 -33.6872 33.6872 0 923.28 40.4502)" gradientUnits="userSpaceOnUse">
  <stop stop-color="#1d1d1d" offset="0"/>
  <stop stop-color="#484848" offset="1"/>
 </linearGradient>
 <path d="m39.44 45.668h-30.88c-3.438 0-6.228-2.79-6.228-6.228v-30.88c0-3.438 2.79-6.228 6.228-6.228h30.88c3.438 0 6.228 2.79 6.228 6.228v30.88c0 3.438-2.79 6.228-6.228 6.228z" fill="url(#a)"/>
 <path d="m11.094 22.455s2.727-4.36 8.583-4.811v-1.581c-6.487.524-11.898 6.06-11.898 6.06s2.976 9.266 11.898 10.114v-1.681c-6.548-.831-8.583-8.101-8.583-8.101zm8.583 4.757v1.54c-4.949-.889-6.116-6.072-6.116-6.072s2.17-2.652 6.116-3.082v1.69c-.003 0-.004-.001-.006-.001-2.072-.25-3.483 1.699-3.483 1.699s.7 3.282 3.49 4.226m0-14.066-.003 2.917c.19-.014.374-.027.565-.034 7.374-.25 12.396 6.094 12.396 6.094s-5.735 6.761-11.484 6.761c-.527 0-1.014-.049-1.477-.132v1.804c.396.051.8.081 1.229.081 5.35 0 9.436-2.753 13.182-6.011.621.501 3.164 1.72 3.687 2.254-3.562 3.005-12.082 5.427-16.788 5.427-.453 0-.882-.028-1.31-.069v2.535h20.546v-21.627h-20.546zm0 6.453-.003-1.954c.188-.011.371-.023.565-.03 5.303-.167 8.999 4.592 8.999 4.592s-3.975 5.258-8.004 5.258c-.58 0-1.093-.094-1.56-.253v-5.924c2.064.252 2.689 1.171 3.93 3.255l2.761-2.345s-2.232-2.663-5.629-2.663c-.369 0-.716.026-1.062.064" fill="#75b800" fill-rule="nonzero"/>
</svg>
