<svg clip-rule="evenodd" fill-rule="evenodd" stroke-linejoin="round" stroke-miterlimit="2" viewBox="0 0 48 48" xmlns="http://www.w3.org/2000/svg">
 <linearGradient id="a" x2="1" gradientTransform="matrix(0 -45.528 45.528 0 24 46.764)" gradientUnits="userSpaceOnUse">
  <stop stop-color="#c6c6c6" offset="0"/>
  <stop stop-color="#e4e4e4" offset="1"/>
 </linearGradient>
 <circle cx="24" cy="24" r="22.764" fill="url(#a)"/>
 <path d="m32.32 14.282-.617-.504c-.918-.748-2.074-1.16-3.255-1.16-1.576 0-3.046.705-4.034 1.934l-9.504 11.826c-.871 1.084-1.27 2.444-1.125 3.83.146 1.386.817 2.632 1.893 3.509l.618.504c.918.75 2.074 1.161 3.255 1.161.183 0 .367-.014.549-.028 1.368-.146 2.6-.815 3.465-1.881.003 0 .005 0 6.413-7.978 1.141-1.421.922-3.511-.488-4.66l-.324-.264c-.584-.475-1.317-.736-2.068-.736-1 0-1.933.448-2.56 1.228l-6.401 7.964c-.418.52-.338 1.286.179 1.707.214.175.483.271.758.271.366 0 .708-.164.938-.451l6.4-7.964c.168-.208.417-.328.684-.328.203 0 .394.069.552.197l.324.264c.182.148.296.359.32.595.025.235-.042.466-.19.649l-6.393 7.955c-.528.657-1.314 1.033-2.156 1.033-.631 0-1.249-.22-1.74-.62l-.618-.504c-.573-.466-.933-1.132-1.01-1.873-.078-.741.136-1.468.601-2.048l9.506-11.827c.528-.657 1.314-1.033 2.156-1.033.632 0 1.25.22 1.74.62l.618.503c1.188.968 1.372 2.728.411 3.924-.202.252-.295.568-.261.891.033.322.19.612.44.816.214.175.483.271.758.271.366 0 .708-.164.938-.451.87-1.081 1.269-2.442 1.122-3.831-.146-1.39-.818-2.636-1.894-3.511z" fill="#484848" fill-rule="nonzero"/>
</svg>
