<svg clip-rule="evenodd" fill-rule="evenodd" stroke-linejoin="round" stroke-miterlimit="2" viewBox="0 0 48 48" xmlns="http://www.w3.org/2000/svg">
 <linearGradient id="a" x2="1" gradientTransform="matrix(0 -43.1741 43.1741 0 24 45.6676)" gradientUnits="userSpaceOnUse">
  <stop stop-color="#2d353f" offset="0"/>
  <stop stop-color="#3e4753" offset="1"/>
 </linearGradient>
 <path d="m39.44 2.332c3.438 0 6.228 2.79 6.228 6.228v30.88c0 3.438-2.79 6.228-6.228 6.228h-30.88c-3.438 0-6.228-2.79-6.228-6.228v-30.88c0-3.438 2.79-6.228 6.228-6.228z" fill="url(#a)"/>
 <g transform="matrix(1.0834 0 0 1.0834 -2.0016 -2.0016)" fill-rule="nonzero">
  <path d="m15 14v3h5v1h-8v5h-1v-5h-1v1h-2v6h1v6h2v-5h1v5h4.5l4 3h12.5v-2h1v2h4.121l1.879-1.879v-8.742l-2.379-2.379h-1.932c-.06.122-.121.222-.175.295-.17.229-.303.351-.485.525-.352.35-.702.682-1.051 1.007-.096.09.022 2.173.022 2.173h-1s.109-1.369-.07-1.202c-.662.614-1.321 1.242-1.979 1.956.039.089.101.169.156.246h4.893v-2h.379l.621.621v6.258l-.121.121h-.879v-2h-5v2h-9.5l-4-3h-2.5v-7h8.213c.183-.33.327-.461.564-.717.319-.343 1.436-1.466 2.223-2.263v-.02h-3v-1h4v-3z" fill="#ffffff"/>
  <path d="m21.027 29.761c.071-.348.722-1.845 1.188-2.823.434-.908.5-.949 1.509-.919l.692.02.809-.837c1.011-1.045 2.363-2.917 2.363-2.989 0-.09-.838-.16-1.936-.16-.821-.001-1.06-.028-1.145-.128-.132-.155-.278.002 4.184-4.506l3.386-3.419 2.269.059c1.248.032 2.356.079 2.461.104.112.025.193.108.193.194s-.651.754-1.519 1.558c-.835.774-2.05 1.917-2.7 2.539l-1.481 1.53.711.054c.391.03 1.068.058 1.505.063.641.007.804.034.846.141.059.152-.315.446-2.196 2.169-3.375 3.09-3.458 3.55-2.75 3.663.241.038.325.092.325.207 0 .117-.365.343-1.455.901-2.344 1.2-6.705 2.744-7.022 2.795-.288.046-.291.044-.237-.216z" fill="#ff6600"/>
 </g>
</svg>
