<svg clip-rule="evenodd" fill-rule="evenodd" stroke-linejoin="round" stroke-miterlimit="2" viewBox="0 0 48 48" xmlns="http://www.w3.org/2000/svg">
 <g fill-rule="nonzero">
  <path d="m17.218 30-.783-.261-5.943 10.802.413.912c.53.357 1.152.547 1.788.547h22.614c1.081 0 2.089-.547 2.689-1.457l6.461-9.818c.148-.226.267-.47.355-.725l-.055-.758h-12.905l-.445.758zm-13.783.539c.023.044.048.087.074.129-.026-.042-.051-.085-.074-.129z" fill="#7b7b7b"/>
  <path d="m17.538 6c-1.149 0-2.211.618-2.791 1.623l-11.307 19.637c-.622 1.08-.582 2.424.103 3.465l6.461 9.818c.238.361.544.67.901.91l19.825-35.453h-13.192z" fill="#ff811c"/>
  <path d="m17.538 6c-.059.001-.118.004-.177.008l13.222 23.992h14.229c.317-.906.225-1.909-.252-2.74l-11.307-19.637c-.579-1.005-1.642-1.623-2.791-1.623zm27.268 24.014c-.039.112-.085.221-.136.328.051-.107.097-.217.136-.328zm-.156.371c-.058.116-.121.231-.193.34.071-.11.135-.223.193-.34zm-41.215.154c.023.044.048.087.074.129-.026-.042-.051-.085-.074-.129z" fill="#f7dd28"/>
  <path d="m24.076 16.002c-.658-.029-1.28.306-1.612.866l-3.111 5.25-3.111 5.25c-.158.268-.242.572-.242.882 0 .96.803 1.75 1.778 1.75h12.444c.975 0 1.778-.79 1.778-1.75 0-.31-.084-.614-.242-.882l-3.111-5.25-3.111-5.25c-.304-.514-.855-.841-1.46-.866z" fill="#fff"/>
 </g>
</svg>
