<svg clip-rule="evenodd" fill-rule="evenodd" stroke-linejoin="round" stroke-miterlimit="2" viewBox="0 0 48 48" xmlns="http://www.w3.org/2000/svg">
 <linearGradient id="a" x2="1" gradientTransform="matrix(0 -45.528 45.528 0 23.9996 46.764)" gradientUnits="userSpaceOnUse">
  <stop stop-color="#231e3e" offset="0"/>
  <stop stop-color="#38315e" offset="1"/>
 </linearGradient>
 <circle cx="24" cy="24" r="22.764" fill="url(#a)"/>
 <g fill-rule="nonzero">
  <path d="m24.161 35.382c-2.969 0-5.973-1.063-8.688-3.072-.2-.148-.311-.51-.265-.868.045-.357.234-.613.452-.613h17.001c.219 0 .408.256.453.613.044.358-.066.72-.265.868-2.715 2.009-5.72 3.072-8.688 3.072zm-10.232-6.829c-.091 0-.177-.079-.226-.209-.146-.385-.287-.786-.42-1.193-.046-.148-.044-.302.004-.449.048-.138.136-.223.231-.426h21.299c.095.203.183.288.231.426.048.147.049.301.004.449-.133.407-.274.808-.421 1.193-.049.13-.134.209-.225.209zm10.071-15.935c-6.063 0-11.119 5.074-11.513 11.115-.011.145.105.277.251.274h22.526c.028 0 .056-.005.082-.014.106-.037.174-.15.167-.262-.039-.597-.142-1.324-.273-2.007h-5.4c-.714 0-1.287-.594-1.287-1.292v-6.453c0-.166.019-.285.051-.392-1.443-.628-3.006-.969-4.604-.969z" fill="#ff728a"/>
  <path d="m24 8.065c-9.782 0-17.534 8.859-15.652 18.976 1.084 5.827 6.784 11.528 12.611 12.611 10.117 1.883 18.976-5.87 18.976-15.652-.001-.762-.057-1.523-.167-2.276h-1.198c.118.753.177 1.514.178 2.276 0 9.055-8.201 16.23-17.565 14.49-5.392-1.004-10.667-6.28-11.671-11.673-1.742-9.364 5.435-17.567 14.49-17.567 1.546.002 3.081.247 4.551.725v-.623c0-.208.065-.399.158-.575-1.525-.475-3.114-.715-4.711-.712zm5.841 12.519c-.083 0-.15-.069-.15-.151v-6.454c0-.083.067-.223.15-.223h8.956v-1.348c0-.867-.668-.929-1.536-.929h-7.42c-.083 0-.15-.139-.15-.221v-1.906c0-.082.067-.15.15-.15h8.015c1.777 0 3.217 1.441 3.217 3.217v3.447c0 .083-.067.166-.15.166h-8.956v2.276h7.403c.84-.002 1.545 1.275 1.627 2.112.008.087-.06.165-.147.165z" fill="#3af5e9"/>
 </g>
</svg>
