<svg clip-rule="evenodd" fill-rule="evenodd" stroke-linejoin="round" stroke-miterlimit="2" viewBox="0 0 48 48" xmlns="http://www.w3.org/2000/svg">
 <linearGradient id="a" x2="1" gradientTransform="matrix(-.00109739 -43.1476 43.1476 -.00109739 39.8673 45.363)" gradientUnits="userSpaceOnUse">
  <stop stop-color="#b7b4b4" offset="0"/>
  <stop stop-color="#f1f1f1" offset="1"/>
 </linearGradient>
 <linearGradient id="b" x2="1" gradientTransform="matrix(0 -42.2226 42.2226 0 107.659 44.3392)" gradientUnits="userSpaceOnUse">
  <stop stop-color="#f39e18" offset="0"/>
  <stop stop-color="#f0c650" offset="1"/>
 </linearGradient>
 <path d="m42.397 45.363-12.085-.014v-43.099l12.431-.045c2.16.026 3.24 1.708 3.24 3.729v35.526c.094 2.219-1.372 3.855-3.586 3.903z" fill="url(#a)"/>
 <path d="m23.275 2.257 16.512-1.548c2.209-.223 3.174.962 3.191 3.337l-.14 39.051c-.04 2.642-1.222 4.026-3.552 4.123l-15.903-1.857h-16.984c-2.169 0-4.373-1.766-4.385-4.518v-34.223c.083-3.166 1.403-4.359 4.569-4.417z" fill="url(#b)"/>
 <path d="m42.838 43.097c-.04 2.642-1.222 4.026-3.552 4.123l-16.083-1.878v-43.078l16.584-1.555c2.209-.223 3.174.962 3.191 3.337z" fill-opacity=".15"/>
 <path d="m19.514 25.608v9.96h-7.114v-9.96zm15.653 9.842-10.642-.034 5.35-9.199zm-19.21-22.647c-2.758 0-4.979 2.221-4.979 4.98s2.221 4.979 4.979 4.979c2.759 0 4.98-2.22 4.98-4.979s-2.221-4.98-4.98-4.98zm19.034.2v9.52h-9.52v-9.52z" fill="#eaeff2" fill-rule="nonzero"/>
</svg>
