<svg clip-rule="evenodd" fill-rule="evenodd" stroke-linejoin="round" stroke-miterlimit="2" viewBox="0 0 48 48" xmlns="http://www.w3.org/2000/svg" xmlns:xlink="http://www.w3.org/1999/xlink">
 <linearGradient id="a" x2="1" gradientTransform="matrix(-.00109739 -43.1476 43.1476 -.00109739 39.8673 45.363)" gradientUnits="userSpaceOnUse">
  <stop stop-color="#b7b4b4" offset="0"/>
  <stop stop-color="#f1f1f1" offset="1"/>
 </linearGradient>
 <linearGradient id="b" x2="1" gradientTransform="matrix(0 -42.2226 42.2226 0 107.659 44.3392)" gradientUnits="userSpaceOnUse">
  <stop stop-color="#0c7fed" offset="0"/>
  <stop stop-color="#0bb4fe" offset="1"/>
 </linearGradient>
 <linearGradient id="c">
  <stop stop-color="#f6fbff" offset="0"/>
  <stop stop-color="#eaeff2" offset="1"/>
 </linearGradient>
 <linearGradient id="d" x2="1" gradientTransform="matrix(17.5325 0 0 17.5325 14.4935 269.127)" gradientUnits="userSpaceOnUse" xlink:href="#c"/>
 <linearGradient id="e" x2="1" gradientTransform="matrix(17.5325 0 0 17.5325 14.5114 376.986)" gradientUnits="userSpaceOnUse" xlink:href="#c"/>
 <linearGradient id="f" x2="1" gradientTransform="matrix(17.5325 0 0 17.5325 14.5378 479.452)" gradientUnits="userSpaceOnUse" xlink:href="#c"/>
 <linearGradient id="g" x2="1" gradientTransform="matrix(17.5325 0 0 17.5325 14.5024 585.773)" gradientUnits="userSpaceOnUse" xlink:href="#c"/>
 <path d="m42.397 45.363-12.085-.014v-43.099l12.431-.045c2.16.026 3.24 1.708 3.24 3.729v35.526c.094 2.219-1.372 3.855-3.586 3.903z" fill="url(#a)"/>
 <path d="m23.275 2.257 16.512-1.548c2.209-.223 3.174.962 3.191 3.337l-.14 39.051c-.04 2.642-1.222 4.026-3.552 4.123l-15.903-1.857h-16.984c-2.169 0-4.373-1.766-4.385-4.518v-34.223c.083-3.166 1.403-4.359 4.569-4.417z" fill="url(#b)"/>
 <path d="m42.838 43.097c-.04 2.642-1.222 4.026-3.552 4.123l-16.083-1.878v-43.078l16.584-1.555c2.209-.223 3.174.962 3.191 3.337z" fill-opacity=".15"/>
 <path d="m14.493 14.416h17.533v3.924h-17.533z" fill="url(#d)"/>
 <path d="m14.511 20.236h17.533v3.924h-17.533z" fill="url(#e)"/>
 <path d="m14.538 25.765h17.533v3.924h-17.533z" fill="url(#f)"/>
 <path d="m14.502 31.502h17.533v3.924h-17.533z" fill="url(#g)"/>
</svg>
