<svg clip-rule="evenodd" fill-rule="evenodd" stroke-linejoin="round" stroke-miterlimit="2" viewBox="0 0 48 48" xmlns="http://www.w3.org/2000/svg">
 <linearGradient id="a" x2="1" gradientTransform="matrix(0 -35.7055 35.7055 0 24 42)" gradientUnits="userSpaceOnUse">
  <stop stop-color="#783e29" offset="0"/>
  <stop stop-color="#bb694b" offset="1"/>
 </linearGradient>
 <circle cx="11.04809" cy="12.22553" r="9.41952" fill="#8d533f" stroke-width="1.17744"/>
 <g transform="matrix(1.17744 0 0 1.17744 -3.08119 -4.25863)">
  <path d="m11.244 6.043c-1.009.094-1.992.379-2.895.84.041.128-.007.272-.154.4-.099.086-.181.221-.181.299 0 .24.217.608.39.662.23.071.153.316-.143.452-.137.063-.305.244-.374.402s-.171.314-.226.346c-.055.033-.1.157-.1.276 0 .166.076.246.325.346.178.071.392.123.475.115.476-.045.509.233.093.775-.221.288-.328.361-.478.324-.141-.033-.218.006-.282.146-.067.147-.177.197-.474.218-.291.02-.422.079-.531.239-.08.116-.195.211-.256.211-.062 0-.206.078-.321.173-.233.194-.325.214-.407.087-.108-.168-.342-.083-.689.25-.308.294-.345.373-.299.629.083.455.329.858.611.999.246.123.251.136.102.294-.086.09-.233.188-.327.216-.271.082-.118.186.365.247.495.063.648.242.417.487-.129.136-.121.162.085.291.404.254.726.099.346-.167-.243-.171-.073-.24.285-.116.285.098.341.093.51-.054.346-.299.722.144.405.478-.201.214-.14.47.121.506.115.016.354.123.532.238.177.116.371.21.429.21.059 0 .224.118.367.261.29.29.451.327.533.122.099-.245.059-.372-.206-.661-.211-.231-.554-.843-.554-.99 0-.09.349-.013.544.12.122.084.32.191.439.24.127.052.259.214.32.39.094.278.131.302.464.302h.361l.055.65c.066.782.129.94.397 1.005.198.047.408.353.408.593 0 .063-.142.219-.315.346-.215.157-.308.291-.294.422.018.163-.019.189-.251.172-.149-.012-.408.041-.574.116-.198.089-.411.117-.612.081-.23-.041-.308-.025-.308.065 0 .066-.081.19-.179.276-.243.211-.143.322.231.255.232-.041.322-.023.362.077.085.212-.131.516-.331.466-.127-.032-.188.012-.228.162-.013.053-.039.098-.069.137.411.159.835.284 1.266.374-.04-.077-.085-.146-.13-.177-.206-.146-.068-.524.216-.592.289-.07.244-.258-.071-.294-.275-.031-.569-.31-.477-.453.062-.095.326-.081.859.045.241.057.405-.058.963-.668.323-.354.572-.501.844-.501.104 0 .475-.095.824-.212.66-.221.918-.213.894.028-.05.501.272.485.798-.041.22-.219.42-.377.446-.352.1.096-.08.565-.292.755-.267.241-.28.393-.045.513.129.067.184.201.204.502l.027.411h.335c.117 0 .214.016.293.046 2.327-1.398 3.789-3.889 3.876-6.602-.123-.262-.114-.42 0-.598-.008-.15-.02-.299-.036-.448-.073-.004-.148-.007-.233-.003-.403.016-.749-.142-.749-.345 0-.043-.143-.219-.318-.391-.198-.196-.3-.368-.27-.458.027-.082-.031-.213-.134-.302-.101-.088-.183-.228-.183-.312 0-.134-.085-.15-.702-.136l-.701.018.012.691c.02 1.211.201 1.526.757 1.323.255-.093.881-.023 1.059.118.064.052.158.237.207.413s.233.48.408.676c.354.397.382.551.179 1.017-.178.406-.369.36-.331-.081l.028-.328-.3.056c-.166.031-.374.154-.467.275-.133.172-.195.198-.294.119-.07-.055-.126-.172-.126-.258 0-.087-.086-.183-.19-.214-.104-.032-.247-.189-.317-.35-.113-.258-.11-.337.021-.649.132-.318.134-.37.012-.487-.112-.107-.17-.111-.318-.023-.148.089-.218.082-.394-.036-.117-.078-.322-.144-.455-.144-.27 0-.351-.131-.351-.565 0-.401-.24-.547-.809-.495-.395.037-.483.011-.801-.235-.198-.151-.509-.516-.693-.811-.184-.296-.382-.604-.44-.686-.083-.118-.063-.231.1-.552l.206-.404-.435.059c-.772.104-.929.204-.596.383.129.069.135.104.035.22-.066.075-.097.195-.068.266.028.07-.008.236-.08.369s-.133.319-.135.414c-.008.298-.518.535-1.087.504-.861-.048-.931-.034-1.237.25-.383.355-.432.52-.254.85.172.32.479.447 1.009.421.475-.024.528.018.42.332-.093.266-.402.369-.612.202-.162-.128-.719-.029-.89.159-.071.079-.178.285-.236.458-.1.298-.129.317-.577.36-.447.043-.49.029-.812-.267-.359-.331-.42-.584-.247-1.019.077-.193.134-.224.339-.187.405.074.565-.066.565-.5 0-.21-.041-.406-.091-.436-.049-.029-.09-.14-.09-.247s-.051-.245-.113-.305c-.091-.088-.078-.135.067-.238.099-.07.262-.117.362-.105s.376-.031.613-.095c.343-.093.443-.163.49-.343.088-.343.303-.617.483-.617.284 0 .29-.669.014-1.642-.041-.144-.154-.235-.352-.284-.161-.04-.336-.15-.388-.244-.053-.094-.149-.171-.214-.171-.066 0-.193-.078-.283-.173-.091-.096-.279-.174-.421-.174-.338 0-.344-.233-.009-.355.354-.13.905.04 1.039.32.18.38.38.221.445-.352.079-.71.324-.914 1.096-.914h.555l-.244-.243c-.075-.075-.138-.168-.182-.259zm2.876.252c-.015.014-.03.025-.046.041-.185.189-.272.216-.559.173-.501-.077-.437.125.118.368.299.132.492.282.558.434.316.733.533 1.127.643 1.167.22.081.352-.082.401-.498.057-.478.218-.58.509-.318.112.101.27.184.35.184.248 0 .432.1.432.234 0 .071.084.242.186.381.152.203.255.252.538.252.348 0 .561.065.996.306.007.003.014.005.02.008-1.057-1.327-2.509-2.284-4.146-2.732zm-10.118 7.671c-.001.011-.001.023-.002.034.002.516.055 1.031.156 1.537.29.118.37.071.4-.198.016-.14.089-.298.163-.353.114-.084.094-.127-.141-.287-.152-.104-.301-.285-.332-.402-.03-.114-.13-.238-.244-.331zm2.518 2.644c-.075-.007-.165.033-.265.129-.212.202-.18.609.06.77.275.184.381.13.415-.21.043-.419-.046-.672-.21-.689zm1.357 1.21c-.081.003-.171.061-.261.184-.096.131-.122.299-.086.555.046.314.026.381-.138.466-.212.108-.257.429-.084.595.172.165.336.121.395-.104.084-.322.555-.359.877-.071.137.124.249.186.249.139s-.143-.219-.317-.381c-.267-.248-.317-.353-.317-.672 0-.451-.138-.717-.318-.711zm-2.229 1.033c.06.079.122.156.185.233-.055-.084-.117-.165-.185-.233zm2.696 1.228c-.041.014-.058.064-.058.154s-.058.185-.128.21c-.094.035-.115.143-.079.402.007.048.009.087.011.128.11.059.221.116.333.17-.006-.138.019-.301.092-.505.123-.346.127-.433.027-.494-.094-.057-.158-.079-.198-.065z" fill-opacity=".2" fill-rule="nonzero"/>
  <circle cx="24" cy="24" r="18" fill="url(#a)"/>
  <path d="m22.3 6.097c-2.272.211-4.482.852-6.514 1.889.091.288-.016.613-.347.9-.224.195-.408.497-.408.674 0 .539.488 1.368.878 1.488.517.161.344.713-.322 1.018-.308.141-.687.548-.842.904s-.384.707-.508.78c-.124.074-.225.352-.225.619 0 .374.171.554.731.779.402.161.882.278 1.069.26 1.072-.101 1.146.523.209 1.744-.497.648-.737.811-1.076.729-.316-.076-.489.013-.633.327-.151.332-.399.444-1.066.49-.656.046-.95.179-1.195.538-.18.262-.44.475-.577.475-.138 0-.462.176-.721.39-.526.437-.731.481-.916.195-.243-.378-.769-.187-1.552.563-.692.662-.776.84-.671 1.415.185 1.023.74 1.931 1.374 2.248.553.276.564.306.229.661-.193.204-.524.423-.735.486-.609.186-.266.418.821.557 1.113.141 1.458.544.939 1.094-.29.307-.274.365.191.656.909.571 1.632.222.779-.376-.548-.384-.165-.541.64-.262.641.222.768.21 1.147-.12.779-.674 1.625.323.913 1.076-.453.48-.316 1.057.271 1.137.259.036.797.277 1.197.537.399.259.835.472.966.472.132 0 .503.264.825.586.653.653 1.016.736 1.2.276.222-.553.133-.838-.464-1.489-.474-.518-1.246-1.895-1.246-2.226 0-.203.784-.03 1.223.269.275.189.72.431.989.54.286.117.583.481.719.879.211.624.295.678 1.044.678h.813l.124 1.463c.147 1.759.289 2.116.892 2.261.445.107.919.795.919 1.334 0 .143-.319.494-.71.779-.484.354-.693.654-.66.949.04.368-.044.425-.565.387-.335-.026-.919.092-1.293.261-.444.2-.924.264-1.375.183-.519-.093-.694-.057-.694.146 0 .149-.182.428-.403.621-.547.474-.322.725.519.574.522-.093.725-.052.815.173.192.478-.294 1.162-.745 1.049-.286-.072-.423.026-.512.364-.03.12-.087.221-.155.308.925.358 1.878.64 2.849.841-.09-.172-.193-.328-.293-.398-.463-.328-.153-1.179.485-1.332.651-.157.549-.579-.159-.66-.62-.07-1.28-.699-1.073-1.02.14-.215.733-.183 1.933.101.541.128.911-.13 2.167-1.503.726-.796 1.285-1.127 1.898-1.127.234 0 1.068-.215 1.855-.478 1.485-.497 2.065-.479 2.01.063-.113 1.129.613 1.091 1.797-.092.493-.492.944-.848 1.002-.792.226.216-.18 1.272-.656 1.7-.602.541-.631.883-.101 1.154.289.15.413.451.459 1.129l.061.925h.752c.264 0 .483.036.659.104 5.236-3.146 8.526-8.75 8.721-14.856-.275-.588-.256-.944 0-1.344-.017-.337-.044-.674-.081-1.009-.164-.008-.331-.016-.524-.007-.907.037-1.684-.32-1.684-.775 0-.097-.322-.494-.715-.881-.447-.44-.675-.828-.609-1.03.062-.184-.07-.48-.302-.68-.226-.197-.411-.512-.411-.701 0-.301-.192-.339-1.579-.306l-1.578.039.027 1.556c.046 2.725.452 3.433 1.704 2.976.573-.209 1.982-.051 2.382.267.145.115.355.533.466.929.111.395.524 1.08.918 1.52.797.893.859 1.241.402 2.288-.399.915-.829.81-.743-.182l.063-.738-.675.126c-.374.071-.842.346-1.052.619-.298.388-.438.445-.662.267-.157-.124-.283-.386-.283-.58 0-.195-.193-.411-.427-.482-.235-.071-.556-.425-.714-.787-.253-.58-.246-.757.048-1.461.298-.714.301-.832.026-1.095-.252-.241-.382-.25-.714-.051-.333.199-.49.185-.886-.081-.264-.177-.726-.324-1.024-.324-.608 0-.791-.295-.791-1.272 0-.903-.539-1.231-1.82-1.113-.889.082-1.086.024-1.803-.529-.444-.341-1.144-1.162-1.558-1.826s-.859-1.358-.99-1.542c-.187-.265-.141-.52.225-1.243l.463-.909-.978.133c-1.738.235-2.09.46-1.342.861.291.156.304.236.079.496-.148.169-.217.438-.153.598.064.158-.017.532-.179.83-.163.299-.299.718-.305.933-.017.67-1.165 1.204-2.445 1.133-1.938-.107-2.096-.077-2.784.562-.861.799-.972 1.171-.571 1.913.388.72 1.077 1.007 2.271.947 1.067-.053 1.188.042.944.747-.208.6-.905.83-1.377.456-.364-.289-1.618-.066-2.002.357-.161.177-.4.641-.531 1.03-.225.671-.291.713-1.299.81-1.006.098-1.103.065-1.827-.601-.807-.744-.944-1.313-.555-2.292.173-.434.301-.505.762-.42.912.166 1.272-.15 1.272-1.125 0-.473-.092-.915-.204-.981-.112-.067-.204-.317-.204-.557 0-.241-.115-.55-.254-.686-.205-.198-.175-.304.151-.535.223-.157.59-.263.815-.236.224.027.845-.071 1.378-.215.772-.208.998-.366 1.103-.772.198-.77.681-1.388 1.086-1.388.64 0 .653-1.505.032-3.694-.092-.323-.345-.528-.792-.639-.361-.09-.755-.337-.873-.549s-.335-.385-.482-.385-.434-.176-.636-.39c-.205-.216-.627-.39-.948-.39-.76 0-.773-.524-.019-.8.797-.292 2.037.091 2.337.721.405.854.856.497 1.001-.793.179-1.596.73-2.055 2.466-2.055h1.249l-.548-.547c-.17-.17-.311-.379-.409-.583zm6.471.566c-.035.031-.069.057-.104.093-.417.426-.613.487-1.259.388-1.127-.171-.982.282.266.83.674.296 1.108.634 1.255.976.711 1.648 1.201 2.535 1.447 2.625.496.183.792-.183.903-1.121.127-1.075.491-1.303 1.144-.715.254.228.608.415.788.415.558 0 .972.224.972.527 0 .16.189.544.42.856.341.458.572.568 1.209.568.783 0 1.262.146 2.241.687.016.008.031.011.046.019-2.378-2.986-5.646-5.14-9.328-6.148zm-22.767 17.26c-.002.026-.003.051-.004.077.005 1.162.123 2.32.352 3.458.652.266.832.16.9-.446.035-.314.199-.67.365-.793.258-.19.211-.287-.316-.647-.342-.233-.678-.64-.747-.904-.067-.256-.294-.535-.55-.745zm5.665 5.95c-.168-.017-.371.073-.596.289-.476.455-.404 1.37.135 1.732.619.415.857.294.935-.471.097-.943-.105-1.512-.474-1.55zm3.055 2.721c-.184.007-.386.138-.589.415-.215.294-.273.673-.192 1.248.102.707.058.858-.312 1.048-.476.243-.578.967-.188 1.339.387.371.756.274.889-.234.189-.723 1.249-.808 1.972-.158.309.277.561.418.561.311 0-.106-.321-.492-.714-.856-.6-.558-.712-.795-.712-1.513 0-1.014-.31-1.612-.715-1.6zm-5.017 2.324c.136.178.275.353.417.526-.123-.19-.263-.372-.417-.526zm6.066 2.763c-.091.032-.129.146-.129.347 0 .203-.13.416-.288.474-.211.077-.26.321-.179.904.016.108.02.196.026.287.246.134.496.262.748.384-.012-.311.044-.678.207-1.137.277-.779.287-.974.062-1.111-.211-.128-.355-.179-.447-.148z" fill-opacity=".2" fill-rule="nonzero"/>
 </g>
 <circle cx="34.59689" cy="28.70969" r="7.06464" fill="#eea788" stroke-width="1.17744"/>
 <path transform="matrix(1.17744 0 0 1.17744 -3.08119 -4.25863)" d="m31.433 22.032c-.757.071-1.494.284-2.171.63.03.096-.005.204-.116.3-.074.065-.136.166-.136.225 0 .179.163.456.293.496.172.053.115.237-.107.339-.103.047-.229.183-.281.301-.052.119-.128.236-.169.26-.042.025-.075.118-.075.207 0 .124.057.184.243.259.134.054.294.093.357.087.357-.034.382.174.069.581-.165.216-.245.271-.358.243-.106-.025-.163.005-.211.109-.051.111-.133.148-.356.164-.218.015-.316.059-.398.179-.06.087-.147.158-.192.158-.046 0-.154.059-.241.13-.175.146-.243.161-.305.065-.081-.126-.256-.062-.517.188-.231.221-.259.28-.224.472.062.341.247.643.458.749.184.092.188.102.076.22-.064.068-.174.141-.245.162-.203.062-.088.14.274.186.371.047.486.181.313.365-.097.102-.091.121.064.218.303.191.544.074.259-.125-.182-.128-.055-.18.214-.087.213.074.256.07.382-.04.26-.225.542.107.304.358-.151.16-.105.353.091.379.086.012.265.093.399.179.133.087.278.158.322.158s.167.088.275.195c.217.218.338.245.4.092.074-.184.044-.279-.155-.496-.158-.173-.415-.632-.415-.742 0-.068.261-.01.407.089.092.063.24.144.33.18.095.039.194.161.24.293.07.208.098.226.348.226h.271l.041.488c.049.586.096.705.297.754.149.035.307.265.307.444 0 .048-.107.165-.237.26-.161.118-.231.218-.22.316.013.123-.015.142-.188.129-.112-.008-.307.031-.431.087-.148.067-.308.088-.459.061-.173-.031-.231-.019-.231.049 0 .05-.061.143-.134.207-.183.158-.108.242.173.191.174-.031.241-.017.271.058.064.159-.098.387-.248.35-.095-.024-.141.008-.171.121-.01.04-.029.074-.051.103.308.119.626.213.949.28-.03-.057-.064-.109-.097-.133-.155-.109-.051-.393.161-.444.217-.052.183-.193-.053-.22-.206-.023-.426-.233-.357-.34.046-.071.244-.061.644.034.18.043.304-.043.722-.501.242-.265.429-.376.633-.376.078 0 .356-.071.618-.159.495-.166.689-.16.67.021-.037.376.205.364.599-.031.165-.164.315-.282.334-.264.076.073-.06.424-.218.567-.201.18-.211.295-.034.385.096.05.138.15.153.376l.02.308h.251c.088 0 .161.012.22.035 1.745-1.049 2.842-2.917 2.907-4.952-.092-.196-.086-.315 0-.448-.006-.112-.015-.225-.027-.336-.055-.003-.111-.005-.175-.003-.302.013-.561-.106-.561-.258 0-.032-.108-.164-.239-.294-.149-.146-.225-.276-.203-.343.021-.061-.023-.16-.1-.227-.076-.065-.137-.17-.137-.233 0-.101-.064-.113-.527-.102l-.526.013.009.518c.016.909.151 1.145.568.993.191-.07.661-.018.794.088.049.039.119.178.156.31s.174.36.306.507c.265.297.286.413.134.763-.133.304-.277.269-.248-.061l.021-.246-.225.042c-.125.023-.281.115-.351.206-.099.129-.146.148-.22.089-.053-.041-.095-.129-.095-.193 0-.065-.064-.137-.142-.161s-.185-.141-.238-.262c-.084-.194-.082-.253.016-.487.099-.238.1-.277.009-.365-.084-.081-.128-.083-.238-.017-.111.066-.164.061-.296-.027-.088-.059-.242-.108-.341-.108-.203 0-.264-.099-.264-.424 0-.301-.179-.41-.606-.371-.297.027-.362.008-.601-.177-.148-.113-.382-.387-.52-.608-.138-.222-.286-.453-.33-.514-.062-.089-.047-.174.075-.414l.155-.303-.326.044c-.58.078-.697.153-.448.287.097.052.102.078.027.165-.05.056-.073.146-.051.199.021.053-.006.178-.06.277-.054.1-.1.239-.102.311-.005.223-.388.401-.815.378-.646-.036-.698-.026-.928.187-.287.267-.324.39-.19.638.129.24.359.335.757.316.356-.018.396.013.315.249-.07.199-.302.276-.459.151-.122-.096-.54-.022-.668.119-.053.059-.133.214-.177.344-.075.223-.097.237-.433.27-.335.032-.367.022-.609-.201-.269-.248-.314-.437-.185-.764.058-.144.101-.168.254-.14.304.056.424-.05.424-.375 0-.157-.03-.304-.068-.327-.037-.022-.068-.105-.068-.185s-.038-.184-.084-.229c-.069-.066-.059-.101.05-.178.074-.053.197-.088.272-.079.074.009.281-.023.459-.072.257-.069.333-.122.368-.257.066-.257.227-.463.362-.463.213 0 .217-.501.01-1.231-.03-.108-.115-.176-.264-.213-.12-.03-.251-.112-.291-.183-.039-.071-.111-.128-.16-.128s-.145-.059-.212-.13c-.069-.072-.209-.13-.316-.13-.254 0-.258-.175-.007-.267.266-.097.679.03.779.24.135.285.286.166.334-.264.06-.532.243-.685.822-.685h.416l-.182-.182c-.057-.057-.104-.127-.137-.195zm2.157.189c-.011.01-.023.019-.034.031-.139.142-.205.162-.42.129-.376-.057-.327.094.089.277.224.099.369.211.418.325.237.55.4.845.482.875.166.061.264-.061.301-.373.043-.359.164-.435.382-.239.084.076.202.139.262.139.186 0 .324.074.324.175 0 .054.063.182.14.286.114.152.191.189.403.189.261 0 .421.049.747.229.006.003.011.004.016.006-.793-.995-1.882-1.713-3.11-2.049zm-7.589 5.753c0 .009-.001.017-.001.026.002.387.041.773.117 1.153.218.088.278.053.3-.149.012-.105.067-.223.122-.264.086-.064.07-.096-.105-.216-.114-.078-.226-.213-.249-.301-.023-.086-.098-.179-.184-.249zm1.889 1.984c-.056-.006-.124.024-.199.096-.159.152-.135.457.045.577.206.139.286.098.312-.157.032-.314-.035-.504-.158-.516zm1.018.907c-.061.002-.129.046-.196.138-.072.098-.091.224-.064.416.034.236.019.286-.104.349-.159.081-.193.323-.063.447.129.123.252.091.296-.078.063-.241.417-.27.658-.053.103.092.187.139.187.104 0-.036-.107-.164-.238-.286-.2-.186-.238-.265-.238-.504 0-.338-.103-.537-.238-.533zm-1.672.774c.045.06.091.118.139.176-.041-.064-.088-.124-.139-.176zm2.022.921c-.031.011-.043.049-.043.116 0 .068-.044.139-.096.158-.071.026-.087.107-.06.301.005.036.007.066.009.096.082.045.165.087.249.128-.004-.104.015-.226.069-.379.092-.26.096-.325.021-.37-.071-.043-.119-.06-.149-.05z" fill-opacity=".2" fill-rule="nonzero"/>
</svg>
