<svg clip-rule="evenodd" fill-rule="evenodd" viewBox="0 0 48 48" xmlns="http://www.w3.org/2000/svg">
 <linearGradient id="a" x2="1" gradientTransform="matrix(0 -39.9992 39.9992 0 24.0019 43.9992)" gradientUnits="userSpaceOnUse">
  <stop stop-color="#ab321a" offset="0"/>
  <stop stop-color="#e8604d" offset="1"/>
 </linearGradient>
 <g transform="matrix(1.10056 0 0 1.10056 -2.36341 -2.41348)">
  <path d="m40.627 9.892-16.439-5.86c-.121-.043-.253-.043-.373 0l-16.44 5.86c-.224.08-.374.294-.374.535 0 5.93 1.552 12.784 4.259 18.806 2.196 4.886 6.145 11.402 12.485 14.703.081.042.169.063.257.063s.176-.021.257-.063c6.34-3.301 10.288-9.818 12.484-14.703 2.707-6.022 4.26-12.877 4.26-18.806 0-.241-.15-.455-.375-.535z" fill="url(#a)" fill-rule="nonzero"/>
  <path d="m7.579 42.542 27.5-28.5c.575-.596.558-1.547-.037-2.121-.596-.575-1.547-.558-2.121.037l-27.5 28.5c-.575.596-.558 1.547.037 2.121.596.575 1.547.558 2.121-.037z" fill="#795b42"/>
  <path d="m23.851 24.123c-.803 1.689-.818 3.13 1.019 4.53s3.189 1.002 4.572.475" fill="none" stroke="#b1b1b2" stroke-width=".67"/>
  <g fill-rule="nonzero">
   <path d="m6.349 5.062c-.627-.023-1.365.458-1.853 1.205-.651.997-.658 2.162-.015 2.582.236.153.537.193.865.114l24.22 18.437 2.158-2.835-24.414-18.584c-.057-.341-.217-.608-.456-.765-.145-.095-.317-.147-.505-.154z" fill="#b1b1b2"/>
   <g fill="#989898">
    <path d="m12.175 9.335 1.364 1.012c.08.06.128.22.034.253-1.024.351-2.34.807-2.049 2.661.016.099-.172.094-.252.034l-1.364-1.013c-.08-.059-.053-.154-.033-.252.273-1.342 1.062-2.032 2.048-2.662.084-.053.172-.093.252-.033z"/>
    <path d="m20.131 15.421 1.364 1.012c.08.06.128.221.034.253-1.024.351-2.34.807-2.049 2.661.016.099-.172.094-.252.034l-1.364-1.013c-.08-.059-.053-.154-.033-.252.273-1.342 1.062-2.032 2.048-2.662.084-.053.172-.093.252-.033z"/>
    <path d="m28.112 21.463 1.364 1.012c.08.06.128.221.034.253-1.024.351-2.34.807-2.049 2.661.016.099-.172.094-.252.034l-1.364-1.013c-.08-.059-.053-.154-.033-.252.273-1.342 1.062-2.032 2.048-2.662.084-.053.172-.093.252-.033z"/>
   </g>
   <path d="m29 27v1h-4z" fill="#b1b1b2"/>
   <path d="m42.846 39.567c.213.957.145.933-.638 1.527-.962.797-1.964 1.589-3.108 1.806-.368.07-.766.127-1.184.087-.683-.049-.854-.274-1.193-.84l-5.432-9.093-.532-2.352-2.402-2.453-4.913-3.967-7.044-5.687c-.277-.572-.743-1.221-1.319-1.913-.325-.39-1.376-1.135-1.822-1.475-2.15-1.641-3.339-2.758-3.716-3.394-.201-.813.341-.72.829-.332l14.386 11.437c1.037.754 1.99 1.487 3.482 2.355.926.17 1.509.078 2.176-.554.363-.416.44-.688.578-.991 1.625.861 2.119 1.095 1.812 3.551l.364 1.532 1.779 4.116 6.83 4.981c.733.376.936.973 1.067 1.659z" fill="#664117"/>
   <path d="m37.948 4c1.245.007 2.675.169 3.407.789.814.691 1.234 2.284 1.449 3.629.415 1.417.119 2.441-.414 3.599-1.675 3.515-3.859 6.775-6.145 9.983-4.927-2.783-8.756-6.408-11.245-11.061 2.653-2.21 5.618-4.262 9.116-6.048 1.25-.801 2.586-.892 3.832-.891z" fill="#b1b1b2"/>
   <path d="m28.805 16.225c.677.727 1.393 1.424 2.158 2.084 4.974-5.868 4.099-6.369 4.099-6.369-.062.06-.791-.812-6.257 4.285z" fill="#989898"/>
  </g>
 </g>
</svg>
