<svg clip-rule="evenodd" fill-rule="evenodd" stroke-linejoin="round" stroke-miterlimit="2" viewBox="0 0 48 48" xmlns="http://www.w3.org/2000/svg">
 <linearGradient id="a" x2="1" gradientTransform="matrix(-.476427 -44.666 44.666 -.476427 446.369 42.6137)" gradientUnits="userSpaceOnUse">
  <stop stop-color="#cfdaf0" offset="0"/>
  <stop stop-color="#fdfdfe" offset="1"/>
 </linearGradient>
 <path d="m6.221 42.682v-37.392h29.744c3.943 1.067 3.577 2.346 3.814 3.595v33.797c-.701 2.568-2.674 2.653-4.576 2.876h-25.168c-1.567-.071-3.327-.691-3.814-2.876z" fill="#229460" fill-rule="nonzero"/>
 <path d="m44.395 7.482c0-2.783-2.256-5.04-5.039-5.04h-26.423v43.116h26.423c2.783 0 5.039-2.257 5.039-5.04z" fill="url(#a)"/>
 <g fill-rule="nonzero">
  <path d="m12.933 3.798v38.777c0-1.456-1.119-2.61-3.356-2.61s-3.356 1.083-3.356 2.61v-38.777c0-2.983 3.356-2.983 3.356-2.983s3.356 0 3.356 2.983z" fill="#2ec27e"/>
  <path d="m21.904 14-4.429 13.172-1.475.279v.549h4v-.549l-1.469-.279 1.309-4.172h5.119l1.289 4.172-1.748.279v.549h5.5v-.549l-1.648-.279-4.606-13.172zm.455 1.49 2.299 6.51h-4.527zm12.528 2.51c-.811 0-1.819.12-2.887.357v2.143h.621l.336-1.246c.547-.319.952-.479 1.611-.479.488 0 .846.157 1.077.469.237.313.357.798.357 1.457v1.279l-1.395.04c-1.002.02-1.566.164-2.093.388-.528.218-.915.536-1.159.957-.237.415-.355.942-.355 1.58 0 1.903.794 3.055 2.383 3.055 1.167 0 1.926-.387 2.678-1.162l.187 1.162h2.752v-.463l-1-.256v-6.672c-.006-.883-.198-1.538-.68-1.966-.474-.429-1.418-.643-2.433-.643zm1.115 5.014v3.304c-.33.163-.661.3-.99.409-.323.101-.509.152-.957.152-.943 0-1.414-.497-1.414-1.693 0-.748.155-1.283.464-1.602.317-.319.717-.495 1.6-.529z" fill="#3f3f3f"/>
 </g>
</svg>
