<svg clip-rule="evenodd" fill-rule="evenodd" stroke-linejoin="round" stroke-miterlimit="2" viewBox="0 0 48 48" xmlns="http://www.w3.org/2000/svg">
 <linearGradient id="a" x2="1" gradientTransform="matrix(0 -24.1191 24.1191 0 26.7094 44.129)" gradientUnits="userSpaceOnUse">
  <stop stop-color="#d2d2d2" offset="0"/>
  <stop stop-color="#ebebeb" offset="1"/>
 </linearGradient>
 <g fill-rule="nonzero">
  <path transform="matrix(1.0797 0 0 1.0797 -1.9124 -4.69417)" d="m10 20c0 1.418.036 2.745.104 4h-3.104c-1.662 0-3 1.338-3 3v12c0 1.662 1.338 3 3 3h7c.823 0 1.566-.33 2.107-.863 3.412 2.856 7.704 2.863 11.393 2.863 7.5 0 16.5 0 16.5-24zm-1.155 7h1.501c.588 5.528 1.899 9.266 3.636 11.781-.25.136-.529.219-.829.219h-4.308c-1.023 0-1.846-.892-1.846-2v-8c0-1.108.823-2 1.846-2z" fill="url(#a)"/>
  <path transform="matrix(.0313306 0 0 .0313306 20.4802 21.2185)" d="m413.7 0s-45.366 44.014-94.43 61.759c-363.33 131.42-210.1 387.52-205.1 388.36 0 0 20.374-35.48 47.896-55.717 174.63-128.38 210.13-276.17 210.13-276.17s-39.19 177.83-194.56 288.48c-34.316 24.426-57.552 84.568-67.388 144.68 0 0 24.325-9.828 34.785-12.49 4.079-26.618 12.607-52.106 27.025-74.875 217.15 25.85 288.27-149.13 297.56-210.14 21.93-144.1-55.92-253.89-55.92-253.89z" fill="#778366"/>
 </g>
</svg>
