<svg clip-rule="evenodd" fill-rule="evenodd" stroke-linejoin="round" stroke-miterlimit="2" viewBox="0 0 48 48" xmlns="http://www.w3.org/2000/svg">
 <path d="m24 1.338-4.678 18.13-18.712 4.532 18.712 4.532 4.678 18.13 4.678-18.13 18.712-4.532-18.712-4.532z" fill="#2aa8da" fill-rule="nonzero"/>
 <path d="m8.796 9.27 5.071 9.127c-1.014 1.704-1.552 3.636-1.562 5.603.01 1.967.548 3.899 1.562 5.603l-5.071 9.127 9.42-4.913c1.76.983 3.753 1.504 5.784 1.514 2.031-.01 4.024-.531 5.784-1.514l9.42 4.913-5.071-9.127c1.014-1.704 1.552-3.636 1.562-5.603-.001-1.975-.535-3.916-1.549-5.63l5.058-9.1-9.393 4.9c-1.769-.983-3.772-1.5-5.811-1.501-2.031.01-4.024.531-5.784 1.514z" fill="#0452e1" fill-rule="nonzero"/>
 <ellipse cx="24" cy="24" rx="8.187" ry="7.932" fill="#ffffff"/>
 <ellipse cx="24" cy="24" rx="4.678" ry="4.532" fill="#3a3a3a"/>
</svg>
