<svg clip-rule="evenodd" fill-rule="evenodd" stroke-linejoin="round" stroke-miterlimit="2" viewBox="0 0 48 48" xmlns="http://www.w3.org/2000/svg">
 <path d="m21.77 8.387h4.461v8.922h-4.461z" fill="#f7cf68"/>
 <path d="m40.681 17.3c-2.453-.079-5.32.401-7.759 2.35-2.113 1.689-2.231 7.685-2.231 7.685s4.81 4.456 7.807 4.456c7.807 0 7.807-13.367 7.807-13.367s-2.471-1.023-5.624-1.124zm-33.362.017c-3.153.102-5.624 1.122-5.624 1.122s0 13.368 7.807 13.368c2.997 0 7.807-4.457 7.807-4.457s-.118-5.996-2.231-7.685c-2.439-1.949-5.306-2.427-7.759-2.348z" fill="#3dabab" fill-rule="nonzero"/>
 <circle cx="24" cy="29.576" r="15.613" fill="#51c9cc"/>
 <path d="m19.539 31.807c-1.115 0-2.23 1.115-2.23 2.23 0 2.231 1.115 3.346 1.115 3.346.49.49.933.858 1.355 1.156h8.44c.422-.298.866-.665 1.357-1.156 0 0 1.115-1.115 1.115-3.346 0-1.115-1.115-2.23-2.23-2.23-1.663 0-2.231 2.23-4.461 2.23s-2.798-2.23-4.461-2.23zm-1.115-6.692h-3.346v5.576h3.346zm14.498 0h-3.346v5.576h3.346z" fill="#4a5469"/>
 <path d="m24 36.268c-1.906.001-3.61.918-4.221 2.271 1.494 1.059 2.659 1.074 4.221 1.074 1.561 0 2.726-.016 4.219-1.074-.611-1.353-2.314-2.27-4.219-2.271z" fill="#fd7d93" fill-rule="nonzero"/>
 <circle cx="24" cy="7.271" r="4.461" fill="#f5e0ac"/>
</svg>
