<svg clip-rule="evenodd" fill-rule="evenodd" stroke-linejoin="round" stroke-miterlimit="2" viewBox="0 0 48 48" xmlns="http://www.w3.org/2000/svg">
 <linearGradient id="a" x2="1" gradientTransform="matrix(.47789 -43.3368 43.3368 .47789 198.206 47.5799)" gradientUnits="userSpaceOnUse">
  <stop stop-color="#cecece" offset="0"/>
  <stop stop-color="#e4e4e4" offset="1"/>
 </linearGradient>
 <path d="m45.668 8.56c0-3.438-2.79-6.228-6.228-6.228h-30.88c-3.438 0-6.228 2.79-6.228 6.228v30.88c0 3.438 2.79 6.228 6.228 6.228h30.88c3.438 0 6.228-2.79 6.228-6.228z" fill="url(#a)"/>
 <g fill-rule="nonzero">
  <path d="m16.367 35.1h-4.234l-.76 2.4h-2.373l4.017-10.5h2.575l3.908 10.5h-2.389zm-.787-2.1-1.322-3.523-1.323 3.523h2.646z" fill="#3f3f3f"/>
  <path d="m34.412 21.481h2.038v-1.081h.979v2.1h-4.695v-1.081c.666-.148 1.17-.823 1.512-1.523.341-.701.512-1.663.512-2.888 0-1.359-.214-2.392-.641-3.102-.427-.713-1.05-1.071-1.87-1.071-.821 0-1.444.357-1.871 1.071-.423.71-.634 1.748-.634 3.116 0 1.202.173 2.158.519 2.866.346.706.847 1.384 1.505 1.531v1.081h-4.702v-2.1h.986v1.081h2.032c-1.013-.423-1.779-1.256-2.301-1.993-.521-.741-.781-1.619-.781-2.632 0-1.455.478-2.627 1.435-3.516.961-.893 2.232-1.34 3.812-1.34s2.851.447 3.811 1.34c.961.889 1.442 2.061 1.442 3.516 0 1.014-.26 1.891-.782 2.632-.521.737-1.29 1.57-2.306 1.993z" fill="#3f3f3f"/>
  <path d="m19.792 15.733.632 1.933 4.408-4.857-6.407-2.034.374 1.788c-6.32 3.185-6.98 5.974-7.85 8.777l3.413.604c.806-3.404 2.931-5.143 5.43-6.211z" fill="#009411"/>
  <path d="m27.459 31.829-.632-1.932-4.408 4.856 6.407 2.033-.375-1.788c6.321-3.185 6.981-5.973 7.851-8.777l-3.414-.603c-.805 3.404-2.931 5.142-5.429 6.211z" fill="#009411"/>
 </g>
</svg>
