<svg clip-rule="evenodd" fill-rule="evenodd" stroke-linejoin="round" stroke-miterlimit="2" viewBox="0 0 48 48" xmlns="http://www.w3.org/2000/svg">
 <linearGradient id="a" x2="1" gradientTransform="matrix(0 -27.3889 27.3889 0 24 31.3889)" gradientUnits="userSpaceOnUse">
  <stop stop-color="#a92fb7" offset="0"/>
  <stop stop-color="#d546e6" offset="1"/>
 </linearGradient>
 <g fill-rule="nonzero">
  <path transform="matrix(1.42275 0 0 1.42275 -10.146 -4.455)" d="m40 20c0 8.837-7.163 16-16 16s-16-7.163-16-16 7.163-16 16-16 16 7.163 16 16z" fill="url(#a)"/>
  <path d="m46.709 22.408c.037.526.055 1.057.055 1.592 0 12.573-10.191 22.764-22.764 22.764s-22.764-10.191-22.764-22.764c0-1.706.188-3.368.543-4.967.817 11.824 10.68 21.176 22.71 21.176 10.859 0 19.953-7.621 22.22-17.801z" fill="#ffeb3b"/>
  <path d="m46.715 22.49c.032.499.049 1.003.049 1.51 0 12.573-10.191 22.764-22.764 22.764s-22.764-10.191-22.764-22.764c0-.507.017-1.011.049-1.51.778 11.861 10.658 21.255 22.715 21.255s21.937-9.394 22.715-21.255z" fill="#ff9800"/>
 </g>
 <path transform="translate(.009018 1.43756)" d="m17.558 12.144c3.219-2.496 7.732-2.861 11.346-.808 3.973 2.257 5.92 6.895 4.733 11.256-1.186 4.352-5.221 7.407-9.801 7.407s-8.615-3.055-9.801-7.407c-.145-.533.17-1.083.702-1.228.533-.145 1.083.169 1.228.702.951 3.492 4.196 5.933 7.871 5.933s6.92-2.441 7.871-5.933c.949-3.484-.616-7.187-3.791-8.991-2.834-1.61-6.355-1.374-8.93.497l.721.721c.286.286.372.716.217 1.09-.155.373-.52.617-.924.617h-3c-.552 0-1-.448-1-1v-3c0-.404.244-.769.617-.924.374-.155.804-.069 1.09.217zm9.997 9.024c.459.306.583.927.277 1.387-.306.459-.927.583-1.387.277l-3.445-2.297v-4.535c0-.552.448-1 1-1s1 .448 1 1v3.465z" fill="#ffc9ff"/>
</svg>
