<svg clip-rule="evenodd" fill-rule="evenodd" stroke-linejoin="round" stroke-miterlimit="2" viewBox="0 0 48 48" xmlns="http://www.w3.org/2000/svg">
 <linearGradient id="a" x2="1" gradientTransform="matrix(0 -43.4543 43.4543 0 24 45.6956)" gradientUnits="userSpaceOnUse">
  <stop stop-color="#a120a1" offset="0"/>
  <stop stop-color="#c017c0" offset="1"/>
 </linearGradient>
 <path d="m39.44 2.332c3.438 0 6.228 2.79 6.228 6.228v30.88c0 3.438-2.79 6.228-6.228 6.228h-30.88c-3.438 0-6.228-2.79-6.228-6.228v-30.88c0-3.438 2.79-6.228 6.228-6.228z" fill="url(#a)"/>
 <path d="m34.195 5.474-13.377 4.019 2.107 7.016c3.383-.482 6.694 1.379 8.041 4.52l7.245-2.175zm-15.529 4.664-13.38 4.016 4.018 13.378 7.25-2.176c-.278-1.503-.094-3.056.527-4.454l2.774 1.649c-.206.602-.278 1.243-.212 1.876l3.039-.912-.976-3.25c-.259.157-.502.34-.723.546l-2.802-1.663c.709-.845 1.593-1.525 2.592-1.993zm5.19 9.473.978 3.259 3.038-.912c-.78-1.482-2.342-2.395-4.016-2.347zm14.84.857-7.237 2.174c.613 3.37-1.129 6.757-4.228 8.218l2.103 7.002 13.38-4.016zm-10.324 3.1-3.054.917.98 3.26c1.432-.879 2.239-2.505 2.074-4.177zm-5.206 1.562-3.04.912c.78 1.483 2.343 2.396 4.018 2.347zm-6.134 1.841-7.243 2.175 4.016 13.38 13.377-4.019-2.107-7.016c-3.384.483-6.696-1.379-8.043-4.52z" fill="#edddec" fill-rule="nonzero"/>
</svg>
