<svg clip-rule="evenodd" fill-rule="evenodd" stroke-linejoin="round" stroke-miterlimit="2" viewBox="0 0 48 48" xmlns="http://www.w3.org/2000/svg">
 <g transform="matrix(1.10212 0 0 1.10212 -2.45091 -2.45091)" fill-rule="nonzero">
  <path d="m7.856 34c-.474 0-.856.373-.856.837v4.996c0 1.754 1.446 3.167 3.24 3.167h27.52c1.794 0 3.24-1.413 3.24-3.167v-4.996c0-.464-.382-.837-.856-.837z" fill="#664930"/>
  <path d="m10.788 22h26.425c.434 0 .787.379.787.846v19.308c0 .467-.353.846-.787.846h-26.425c-.435 0-.788-.379-.788-.846v-19.308c0-.467.353-.846.788-.846z" fill="#ffdc83"/>
  <path d="m7 34.6 1.587 1.176c.82.608 1.767 1.032 2.771 1.241l10.438 2.171c.908.189 1.613.894 1.796 1.793l.408 2.019h-14.818c-1.205 0-2.182-.965-2.182-2.156z" fill="#b5835a"/>
  <path d="m41 34.6-1.587 1.176c-.82.608-1.767 1.032-2.771 1.241l-10.438 2.171c-.908.189-1.613.894-1.796 1.793l-.408 2.019h14.818c1.205 0 2.182-.965 2.182-2.156z" fill="#815a3a"/>
  <path d="m6.857 23 7.729-17.086c.201-.444.593-.767 1.062-.875.467-.108.958.013 1.326.326l5.48 4.15c.896.762 2.196.762 3.092 0l5.48-4.15c.368-.313.859-.434 1.326-.326.469.108.861.431 1.062.875l7.729 17.086z" fill="#986a44"/>
  <path d="m32.103 8.955c.602.003 1.158.327 1.456.85l7.574 12.853h-17.133v-8.589c.558-.003 1.106-.2 1.536-.556l5.48-4.167c.304-.254.689-.392 1.087-.391z" fill-opacity=".15"/>
  <path d="m5.429 21h37.142c.79 0 1.429.671 1.429 1.5s-.639 1.5-1.429 1.5h-37.142c-.79 0-1.429-.671-1.429-1.5s.639-1.5 1.429-1.5z" fill="#b5835a"/>
  <path d="m10 26v1h6.143c0 1.277.681 2.884 1.786 3.522 1.104.637 2.466.637 3.571 0 .89-.518 1.514-1.394 1.712-2.404v.035c.074-.956 1.502-.949 1.576 0v-.04c.197 1.012.821 1.891 1.712 2.409 1.105.637 2.467.637 3.571 0 1.105-.638 1.786-2.245 1.786-3.522h6.143v-1z" fill="#3f3f3f"/>
  <path d="m18.71 26-2.229 2.943c.255.545.647 1.022 1.145 1.381l3.61-4.324zm3.779 0-4.05 4.763c.278.106.565.177.856.212l4.26-4.975zm8.305 0-3.971 4.685c.262.118.534.203.811.254l4.226-4.939z" fill="#fff" fill-opacity=".2"/>
 </g>
</svg>
