<svg clip-rule="evenodd" fill-rule="evenodd" stroke-linejoin="round" stroke-miterlimit="2" viewBox="0 0 48 48" xmlns="http://www.w3.org/2000/svg">
 <linearGradient id="a" x2="1" gradientTransform="matrix(0 -43.336 43.336 0 23.5292 45.668)" gradientUnits="userSpaceOnUse">
  <stop stop-color="#4b8515" offset="0"/>
  <stop stop-color="#6eaa36" offset="1"/>
 </linearGradient>
 <path d="m8.28 2.338c0.072-4e-3 0.145-5e-3 0.219-6e-3h30.941c3.438 0 6.228 2.79 6.228 6.228v30.88c0 3.438-2.79 6.228-6.228 6.228h-30.88-0.061c-0.074-1e-3 -0.147-2e-3 -0.219-6e-3 -2.106-0.114-3.781-1.86-3.781-3.994v-35.336c0-2.134 1.675-3.88 3.781-3.994z" fill="url(#a)"/>
 <path transform="matrix(1.0834 0 0 1.0834 -2.0016 -2.0016)" d="m24.09 6.77c-6.6 0-10.38 2.7-12.84 5.75 1.88.52 3.2.95 3.63 1.09 0-.28.05-2.85.05-2.85l.04-.09.09-.03c.58.09 12.97 1.92 18.19 4.96.65.38.96.78 1.36 1.19 1.44 1.49 3.36 7.69 3.56 8.98l-.08.13c-.07.03-.25.15-.49.32-1.22.85-4.07 2.84-7.71 2.52-3.29-.3-7.57-2.18-12.73-5.58.22.54 1.3 3.09 1.48 3.51l.07.09c.75.39 7.93 4.05 11.49 3.97 2.87-.05 5.94-1.46 7.16-2.19l.39-.08c.11.09.1.25.06.41-.07.35-.24 1-.36 1.3l-.1.25c-.13.37-.27.72-.53.94-.73.66-1.88 1.18-3.69 1.97-2.8 1.22-7.33 1.99-11.55 1.97-1.5-.03-2.96-.2-4.25-.35-2.67-.3-4.84-.55-6.14.46 3.16 3.57 7.77 5.82 12.91 5.82 9.51 0 17.23-7.71 17.23-17.23s-7.72-17.23-17.23-17.23zm4.56 9.12c-1.32.02-2.56.51-3.53 1.42-1.04.96-1.64 2.28-1.69 3.69-.09 2.92 2.21 5.38 5.12 5.49 1.42.05 2.77-.46 3.8-1.43 1.03-.96 1.63-2.27 1.68-3.68.1-2.92-2.19-5.39-5.12-5.49zm-.14 1.56c.12-.01.24 0 .36 0 2.04.07 3.64 1.78 3.57 3.82-.03.99-.45 1.91-1.17 2.58s-1.66 1.02-2.65.99c-2.04-.08-3.64-1.79-3.57-3.83.03-.99.46-1.9 1.18-2.57.62-.59 1.43-.94 2.28-.99zm.97 1.85c-.91 0-1.64.49-1.64 1.1 0 .6.73 1.1 1.64 1.1s1.64-.5 1.64-1.1c0-.61-.73-1.1-1.64-1.1z" fill="#fff" fill-rule="nonzero"/>
 <path d="m2.332 8.56c0-3.438 2.79-6.228 6.228-6.228h.272v43.336h-.272c-3.438 0-6.228-2.79-6.228-6.228z" fill="#123745"/>
</svg>
