<svg clip-rule="evenodd" fill-rule="evenodd" stroke-linejoin="round" stroke-miterlimit="2" viewBox="0 0 48 48" xmlns="http://www.w3.org/2000/svg">
 <linearGradient id="a" x2="1" gradientTransform="matrix(-.00260412 -38 38 -.00260412 24.0026 43)" gradientUnits="userSpaceOnUse">
  <stop stop-color="#00be41" offset="0"/>
  <stop stop-color="#41db41" offset="1"/>
 </linearGradient>
 <path d="m10.412 38-4.126 5 14.682-5h18.423c1.222 0 2.395-0.486 3.259-1.35s1.35-2.037 1.35-3.259v-23.782c0-2.545-2.064-4.609-4.609-4.609h-30.782c-2.545 0-4.609 2.064-4.609 4.609v23.782c0 2.545 2.064 4.609 4.609 4.609z" fill="url(#a)"/>
 <path d="m33.737 11.387c-.121.02-.185.153-.127.26.579 1.086 1.17 2.12 1.661 3.343-.242.256-.655.39-1.103.556-1.687.265-3.476.325-5.244.455-.064.005-.12.045-.147.103-.603 1.283-1.382 2.395-2.151 3.536-.012.018-.021.037-.027.058-.285 1.197-.669 2.075-1.044 3.173-1.122.088-2.16.138-2.754.048-.496-1.069-.932-1.904-.995-2.687-.004-.036-.018-.071-.042-.099-1.253-1.477-2.421-2.972-3.406-4.503-.05-.078-.152-.104-.233-.061-.731.391-1.419.791-2.248.94-.995-.434-1.881-.932-2.724-1.459.5-1.177 1.049-2.319 1.728-3.381.094-.149-.062-.329-.222-.257-1.49.694-3.008 1.355-4.784 1.812-.109.027-.166.148-.118.249.419.887.704 1.814.967 2.753.013.046.044.085.086.108 1.314.721 2.614 1.767 3.896 2.543.03.017.065.025.1.023.804-.03 1.584-.035 2.271.113.828 1.637 1.524 2.836 2.266 4.387.891 2.432 1.653 4.964 2.46 7.476.025.08.103.131.186.123 1.275-.113 2.683-.09 4.115-.044.078.002.149-.047.174-.121.619-1.79 1.241-3.328 1.862-4.788.002-.006.004-.011.005-.016.403-1.237.819-2.484 1.265-3.752l.006-.01c.001-.003.002-.005.003-.008.612-1.277 1.218-2.549 1.949-3.762 1.746-.464 3.516-.836 5.297-1.182.064-.012.116-.058.136-.12.424-1.293.864-2.568 1.446-3.754.047-.096-.001-.212-.102-.246-1.506-.521-2.934-1.122-4.299-1.792-.034-.017-.072-.023-.109-.017z" fill="#ffffff" fill-rule="nonzero"/>
</svg>
