<svg clip-rule="evenodd" fill-rule="evenodd" stroke-linejoin="round" stroke-miterlimit="2" viewBox="0 0 48 48" xmlns="http://www.w3.org/2000/svg">
 <linearGradient id="a" x2="1" gradientTransform="matrix(0 -42.4213 42.4213 0 702.74 46.651)" gradientUnits="userSpaceOnUse">
  <stop stop-color="#c7c7c7" offset="0"/>
  <stop stop-color="#fff" offset="1"/>
 </linearGradient>
 <linearGradient id="b" x2="1" gradientTransform="matrix(0 -35.3827 35.3827 0 590.123 41.7406)" gradientUnits="userSpaceOnUse">
  <stop stop-color="#252525" offset="0"/>
  <stop stop-color="#4f4f4f" offset="1"/>
 </linearGradient>
 <g fill-rule="nonzero">
  <path d="m24 1.236c-12.572 0-22.764 10.192-22.764 22.764s10.192 22.764 22.764 22.764 22.764-10.192 22.764-22.764-10.192-22.764-22.764-22.764z" fill="url(#a)"/>
  <path d="m24 6.192c-9.77 0-17.808 8.038-17.808 17.808s8.038 17.808 17.808 17.808 17.808-8.038 17.808-17.808-8.038-17.808-17.808-17.808zm-5.343 12.371c0-.698.38-1.342.991-1.681.611-.338 1.357-.319 1.95.052 2.561 1.6 6.241 3.9 8.699 5.436.562.352.903.967.903 1.63s-.341 1.278-.903 1.63c-2.458 1.536-6.138 3.836-8.699 5.436-.593.371-1.339.39-1.95.052-.611-.339-.991-.983-.991-1.681z" fill="url(#b)"/>
 </g>
</svg>
