<svg clip-rule="evenodd" fill-rule="evenodd" stroke-linejoin="round" stroke-miterlimit="2" viewBox="0 0 48 48" xmlns="http://www.w3.org/2000/svg">
 <g transform="matrix(1.1382 0 0 1.1382 -3.31678 -3.31678)" fill-rule="nonzero">
  <path d="m24 4c-2.99 0-5.826.655-8.373 1.829-6.866 3.166-7.51 10.434-7.51 18.497 0 11.052 5.367 14.832 16.42 14.832s12.635-4.49 12.635-15.543c0-8.605 1.405-15.549-6.214-18.373-2.166-.803-4.51-1.242-6.958-1.242z" fill="#e4e4e4"/>
  <path d="m7.813 12.247c-2.398 3.299-3.813 7.359-3.813 11.753 0 11.053 8.947 20 20 20 4.028 0 7.775-1.189 10.913-3.235-.03-1.079-.306-3.652-2.132-5.861-2.378-2.88-5.633-1.503-5.633-1.503l-4.632 4.882s-12.143-11.642-12.769-14.646c-.626-3.005 2.003-5.634 1.377-7.512-.505-1.515-2.537-3.255-3.311-3.878z" fill="#76acec"/>
  <path d="m43.047 17.882-14.897 15.144s3.68 1.075 5.058 2.953c1.066 1.454 1.945 3.523 2.29 4.39.996-.7 1.924-1.489 2.774-2.355.33-.359.673-.734 1.022-1.122 2.936-3.48 4.706-7.977 4.706-12.892 0-2.134-.335-4.19-.953-6.118z" fill="#1ebe74"/>
  <path d="m15.255 6.006c-2.846 1.385-5.313 3.425-7.207 5.925.793.839 2.482 2.787 3.326 4.945 1.127 2.88-1.627 3.005-1.252 7.011.376 4.006 5.133 6.885 5.133 6.885z" fill="#ffa437"/>
  <path d="m24 4c-1.831 0-3.604.247-5.289.707v29.605l7.811-.034-.521-30.179c-.658-.065-1.325-.099-2.001-.099z" fill="#d4d4d4"/>
  <path d="m31.553 5.475 1.041 12.34-.697 10.792 11.146-10.735c-1.81-5.637-6.05-10.179-11.49-12.397z" fill="#1ebe74"/>
  <path d="m26.001 4.099.521 30.179 6.21-6.225-1.438-22.682c-1.667-.653-3.442-1.088-5.293-1.272z" fill="#b4b4b4"/>
  <path d="m30.127 4.969 1.021 18.935c.097 1.791.038 3.625-.595 5.303l-.022.051-.75.892-2.685 2.131c-1.668-.334-3.393-.385-5.076-.14-1.096.159-2.171.595-3.202.996l-2.818-2.824v-24.622c-.686.31-1.353.657-2 1.041v23.207c-1.085-1.133-2.894-3.568-3.312-5.427-.564-2.504 2.064-4.319 2.064-4.319s-.063-2.317-1.189-4.382c-.801-1.467-2.36-3.257-3.213-4.194-.437.533-.846 1.089-1.225 1.664.793.695 2.074 2.062 2.246 3.783.25 2.504-.94 4.194-.377 6.885.447 2.136 4.017 5.634 5.477 6.992.017.026.038.05.058.073l3.063 3.064c-2.1 1.039-3.963 2.56-5.365 4.438 1.704-1.678 3.788-2.961 6.041-3.762l3.896 4.146c.245.245.642.245.887 0l4.381-4.634c.437.113.871.246 1.295.402 1.864.687 3.576 1.805 4.894 3.291.338.381.653.793.832 1.27.208.554.217 1.182.024 1.742-.007.017-.016.032-.024.049.799-.425 1.604-1.096 2.238-1.6.005-.004.01-.008.014-.012-.515-.802-1.108-1.556-1.766-2.246-.579-1.005-.989-2.108-1.203-3.248-.156-.832-.206-1.695-.015-2.519.191-.825.643-1.609 1.343-2.084.523-.355 1.167-.524 1.797-.487.631.037 1.247.278 1.746.664.54.418.942 1.007 1.139 1.66.197.654.186 1.368-.033 2.014-.164.485-.526.9-.984 1.129-.459.229-1.008.269-1.495.109-.336-.11-.642-.313-.879-.576-.236-.263-.404-.585-.492-.928-.104-.405-.093-.848.082-1.228.088-.19.213-.362.373-.496.161-.134.357-.229.563-.268.252-.047.517-.007.744.112s.412.318.516.552c-.197-.194-.474-.303-.75-.295-.277.009-.548.133-.733.338-.13.145-.218.33-.252.522-.033.192-.014.394.055.576s.19.344.34.469c.15.124.33.209.521.248.218.044.449.028.66-.041.212-.07.403-.193.561-.35.316-.313.486-.757.506-1.201.026-.586-.203-1.179-.617-1.594-.415-.415-1.01-.648-1.596-.621-.378.017-.749.139-1.07.338-.322.199-.597.479-.799.799-.405.64-.519 1.438-.389 2.183.147.843.607 1.634 1.291 2.147.685.513 1.592.735 2.428.555.542-.117 1.045-.396 1.443-.782.399-.385.692-.875.86-1.404.335-1.057.152-2.242-.379-3.215-.329-.601-.787-1.14-.996-1.793-.141-.44-.159-.911-.11-1.371.038-.355.116-.708.26-1.035s.355-.629.631-.855c.276-.227.62-.375.976-.395.357-.02.723.095.987.336.226.207.37.498.418.801.047.303.002.618-.108.904-.13.341-.361.653-.683.824-.162.086-.345.135-.528.133-.182-.002-.365-.058-.515-.162-.119-.082-.214-.194-.276-.324-.061-.131-.086-.279-.068-.422s.08-.281.176-.389c.096-.107.225-.184.367-.213.133-.027.275-.012.398.043-.172.027-.329.136-.414.289s-.095.347-.027.508c.04.094.104.178.186.24.081.063.18.104.281.121.202.034.414-.033.568-.168.154-.134.247-.333.264-.537s-.039-.413-.149-.586c-.151-.238-.403-.408-.677-.476-.275-.068-.568-.035-.826.078-.274.12-.509.329-.661.586-.151.257-.219.562-.195.859.024.298.138.588.324.821.187.233.445.409.729.502.255.083.53.098.795.052.264-.046.519-.153.74-.304.443-.304.749-.781.898-1.297.145-.5.144-1.048-.037-1.535-.181-.488-.55-.91-1.025-1.122-.489-.217-1.059-.201-1.567-.033-.507.169-.957.481-1.353.84-.791.719-1.399 1.642-2.279 2.248-.713.491-1.565.747-2.278 1.238-.668.461-1.186 1.108-1.683 1.75-.497.643-.992 1.298-1.637 1.791-.305.234-.641.427-.996.575.079-.178.16-.354.244-.53.413-.869.887-1.708 1.416-2.511l11.369-11.444c-.14-.498-.297-.894-.455-1.34l-7.367 8.106c.01-.419.08-.84.205-1.24.345-1.101 1.092-2.024 1.857-2.887.766-.863 1.577-1.712 2.086-2.746.502-1.019.687-2.18.606-3.313-.081-1.132-.421-2.238-.918-3.259-.319-.656-.71-1.276-1.153-1.856-.192-.19-.389-.378-.589-.56l-.002-.002c-.242-.22-.49-.433-.742-.641-.247-.202-.498-.398-.754-.588-.256-.189-.517-.373-.782-.551.498 1.68.593 3.477.264 5.198-.451 2.356-1.663 4.519-2.066 6.884-.381 2.232-.001 4.586 1.052 6.588l-.974 1.073c-.094-.057-.178-.13-.246-.215-.111-.139-.18-.305-.223-.477s-.06-.349-.078-.525c-.223-2.207-.457-4.469.088-6.619.308-1.216.856-2.355 1.304-3.526.449-1.17.803-2.413.698-3.662-.135-1.599-1.071-3.111-2.442-3.945.853 1.301 1.356 2.83 1.442 4.383.101 1.838-.388 3.706-1.377 5.259l-.319-3.759-.14-8.321c-.654-.311-1.336-.542-2.008-.767z" fill="#282828"/>
  <path d="m35.572 7.686c.78 1.806.979 3.859.555 5.781-.465 2.107-1.638 4.004-2.123 6.107-.475 2.059-.254 4.271.619 6.196-.607-2.223-.436-4.65.475-6.766.663-1.542 1.705-2.922 2.16-4.537.554-1.97.136-4.189-1.096-5.822 1.04 1.329 1.543 3.059 1.416 4.74.239-.408.609-.563 1.131-.721-.559.199-.867.451-1.139.801-.032.369-.093.736-.187 1.096-.014.053-.03.105-.045.158.49-.625.96-.644 1.492-.805-.571.204-.971.379-1.525.922-.139.453-.322.891-.524 1.32.682-.6 1.587-.717 2.127-.881-.561.201-1.495.39-2.142.914-.32.677-.687 1.336-1.022 2.008.955-1.024 2.478-1.333 3.264-1.551-.84.275-2.394.917-3.348 1.721-.097.201-.193.401-.281.606-.109.253-.208.511-.299.771.801-.625 1.6-.894 2.4-1.115-.833.272-1.639.653-2.416 1.156-.173.503-.31 1.018-.414 1.539.8-.623 1.599-.892 2.399-1.113-.829.271-1.631.648-2.404 1.148-.079.405-.138.814-.174 1.225.516-.444 1.034-.634 1.55-.791-.534.192-1.054.459-1.552.814-.091 1.055-.041 2.122.154 3.163.323-1.606.959-3.147 1.859-4.514.551-.836 1.196-1.603 1.762-2.428s1.059-1.725 1.248-2.707c.184-.955.07-1.951-.222-2.879-.292-.927-.758-1.791-1.284-2.609-.631-.983-1.353-1.908-2.152-2.76-.001-.001-.003-.001-.004-.002-.085-.063-.171-.124-.258-.185z" fill="#60e357"/>
 </g>
</svg>
