<svg clip-rule="evenodd" fill-rule="evenodd" stroke-linejoin="round" stroke-miterlimit="2" viewBox="0 0 64 64" xmlns="http://www.w3.org/2000/svg">
 <linearGradient id="a" x2="1" gradientTransform="matrix(0 -41.5955 41.5955 0 49.6675 48.5955)" gradientUnits="userSpaceOnUse">
  <stop stop-color="#0079ff" offset="0"/>
  <stop stop-color="#3c6eac" offset="1"/>
 </linearGradient>
 <linearGradient id="b" x2="1" gradientTransform="matrix(1.11166 -50.3424 50.3424 1.11166 27.8313 57.0918)" gradientUnits="userSpaceOnUse">
  <stop stop-color="#00b49c" offset="0"/>
  <stop stop-color="#47f6f4" offset="1"/>
 </linearGradient>
 <g fill-rule="nonzero">
  <path d="m56.888 7c1.723 0 3.111 1.776 3.111 3.5v35c0 1.724-1.389 3.434-3.111 3.5h-17.791l-6.995-3.634-6.89 1.502-6.78-1.723-7.686.771c-1.715.172-2.26-1.335-2.231-3.059l.441-25.969c.029-1.724 2.981-2.772 4.544-3.5l13.703-6.388h29.685z" fill="url(#a)"/>
  <path d="m7.113 7c-1.724 0-3.113 1.776-3.113 3.5v35c0 1.724 1.389 3.5 3.113 3.5h9.887l7 8 7-8h8.781c1.711-1.146 3.424-2.416 5.141-3.84 7.717-6.711 10.066-19.097 2.91-27.101-4.894-5.475-13.646-7.118-19.347-1.879-3.793 3.486-4.919 9.798-1.16 13.746 2.424 2.546 6.569 3.288 9.23.66 1.654-1.634 2.124-4.93.336-6.656-1.065-1.028-2.931-1.316-4.008-.141-.613.665-.775 2.219-.031 2.856.394.336 1.068.423 1.421-.024.174-.219.222-.593-.035-.773-.115-.08-.303-.098-.386.035-.024.051-.029.138.035.172.023.013.07.015.07-.012v-.02-.004c-.033-.009 0-.018 0-.019.023-.011.055.012.055.035.013.066-.05.127-.11.14-.157.036-.267-.114-.3-.25-.052-.306.239-.536.519-.57.566-.066.984.471 1.024.988.075.976-.854 1.676-1.754 1.715-1.594.071-2.705-1.45-2.739-2.929-.042-2.485 2.342-4.201 4.668-4.188 3.741.021 6.29 3.616 6.2 7.129-.137 5.447-5.398 9.145-10.547 8.93-7.738-.323-13.387-7.835-12.973-15.164.378-6.701 4.783-11.988 10.527-14.836h-21.414z" fill="url(#b)"/>
 </g>
</svg>
