<svg clip-rule="evenodd" fill-rule="evenodd" stroke-linejoin="round" stroke-miterlimit="2" viewBox="0 0 48 48" xmlns="http://www.w3.org/2000/svg">
 <linearGradient id="a" x2="1" gradientTransform="matrix(0 -45.528 45.528 0 24 46.764)" gradientUnits="userSpaceOnUse">
  <stop stop-color="#b826aa" offset="0"/>
  <stop stop-color="#cd51db" offset="1"/>
 </linearGradient>
 <g fill-rule="nonzero">
  <path d="m46.764 24c0 12.572-10.192 22.764-22.764 22.764s-22.764-10.192-22.764-22.764 10.192-22.764 22.764-22.764 22.764 10.192 22.764 22.764z" fill="url(#a)"/>
  <path d="m35.382 29.69c0 1.886-1.528 3.416-3.415 3.416-1.886 0-3.414-1.53-3.414-3.416 0-1.884 1.528-3.414 3.414-3.414 1.887 0 3.415 1.53 3.415 3.414zm-15.935.001c0 1.886-1.528 3.415-3.414 3.415-1.887 0-3.415-1.529-3.415-3.415s1.528-3.415 3.415-3.415c1.886 0 3.414 1.529 3.414 3.415zm-3.414-9.106c1.971 3.462 4.266 7.093 6.32 10.506.44.651.773 1.405 1.362 1.936.802.339 1.039-.779 1.416-1.248 2.18-3.67 4.693-7.503 6.836-11.194zm7.967-15.968c-10.89 0-19.717 9.174-19.717 20.487.005.149.009.297.015.445.166-11.185 8.935-18.577 19.702-18.585 10.718.006 19.469 7.32 19.702 18.456.006-.105.01-.21.015-.316 0-11.313-8.827-20.487-19.717-20.487zm3.415 11.416c0 1.886-1.529 3.414-3.415 3.414s-3.415-1.528-3.415-3.414c0-1.887 1.529-3.415 3.415-3.415s3.415 1.528 3.415 3.415z" fill="#613583"/>
 </g>
</svg>
