<svg clip-rule="evenodd" fill-rule="evenodd" stroke-linejoin="round" stroke-miterlimit="2" viewBox="0 0 48 48" xmlns="http://www.w3.org/2000/svg">
 <linearGradient id="a" x2="1" gradientTransform="matrix(0 -33.6872 33.6872 0 923.28 40.4502)" gradientUnits="userSpaceOnUse">
  <stop stop-color="#1d1d1d" offset="0"/>
  <stop stop-color="#4a4a4a" offset="1"/>
 </linearGradient>
 <path d="m39.44 45.668h-30.88c-3.438 0-6.228-2.79-6.228-6.228v-30.88c0-3.438 2.79-6.228 6.228-6.228h30.88c3.438 0 6.228 2.79 6.228 6.228v30.88c0 3.438-2.79 6.228-6.228 6.228z" fill="url(#a)"/>
 <path d="m26 11c0-.552-.448-1-1-1h-2c-.552 0-1 .448-1 1v26c0 .552.448 1 1 1h2c.552 0 1-.448 1-1zm-7 0c0-.552-.448-1-1-1h-2c-.552 0-1 .448-1 1v26c0 .552.448 1 1 1h2c.552 0 1-.448 1-1zm-7 0c0-.552-.448-1-1-1h-2c-.552 0-1 .448-1 1v26c0 .552.448 1 1 1h2c.552 0 1-.448 1-1zm28 0c0-.552-.448-1-1-1h-2c-.552 0-1 .448-1 1v26c0 .552.448 1 1 1h2c.552 0 1-.448 1-1zm-7 0c0-.552-.448-1-1-1h-2c-.552 0-1 .448-1 1v26c0 .552.448 1 1 1h2c.552 0 1-.448 1-1z" fill-opacity=".3"/>
 <path d="m12 18c0-.552-.448-1-1-1h-2c-.552 0-1 .448-1 1v19c0 .552.448 1 1 1h2c.552 0 1-.448 1-1z" fill="#ff9800"/>
 <path d="m26 30c0-.552-.448-1-1-1h-2c-.552 0-1 .448-1 1v7c0 .552.448 1 1 1h2c.552 0 1-.448 1-1z" fill="#2196f3"/>
 <path d="m19 34c0-.552-.448-1-1-1h-2c-.552 0-1 .448-1 1v3c0 .552.448 1 1 1h2c.552 0 1-.448 1-1z" fill="#4caf50"/>
 <path d="m40 21c0-.552-.448-1-1-1h-2c-.552 0-1 .448-1 1v16c0 .552.448 1 1 1h2c.552 0 1-.448 1-1z" fill="#ffeb3b"/>
 <path d="m33 14c0-.552-.448-1-1-1h-2c-.552 0-1 .448-1 1v23c0 .552.448 1 1 1h2c.552 0 1-.448 1-1z" fill="#f44336"/>
</svg>
