<svg clip-rule="evenodd" fill-rule="evenodd" stroke-linejoin="round" stroke-miterlimit="2" viewBox="0 0 48 48" xmlns="http://www.w3.org/2000/svg">
 <linearGradient id="a" x2="1" gradientTransform="matrix(0 -33.6872 33.6872 0 923.28 40.4502)" gradientUnits="userSpaceOnUse">
  <stop stop-color="#795926" offset="0"/>
  <stop stop-color="#976e2e" offset="1"/>
 </linearGradient>
 <path d="m39.44 45.668h-30.88c-3.438 0-6.228-2.79-6.228-6.228v-30.88c0-3.438 2.79-6.228 6.228-6.228h30.88c3.438 0 6.228 2.79 6.228 6.228v30.88c0 3.438-2.79 6.228-6.228 6.228z" fill="url(#a)"/>
 <path d="m23 26h-13v-15c0-1.662 1.338-3 3-3h22c1.662 0 3 1.338 3 3v15h-13v8h-2zm-10-15h22v12h-22z" fill="#c3c3c3"/>
 <path d="m19.988 32c-.988 0-1.988 1-1.988 2.02v7.98h6c0-1.097.903-2 2-2 .057 0 .115.003.172.008.42-1.199 1.558-2.007 2.828-2.008.341.001.679.06 1 .174v-6.174z" fill="#ffb22b" fill-rule="nonzero"/>
 <g fill-opacity=".2">
  <path d="m29 33c-1.097 0-2 .903-2 2s.903 2 2 2c.351-.001.696-.095 1-.271v-3.459c-.304-.177-.649-.27-1-.27z" fill-rule="nonzero"/>
  <circle cx="21" cy="40" r="1"/>
  <path d="m19.988 32c-.988 0-1.988 1-1.988 2.02v1.476c.432.326.959.503 1.5.504 1.371 0 2.5-1.129 2.5-2.5-.001-.541-.177-1.068-.502-1.5z" fill-rule="nonzero"/>
 </g>
 <path d="m19.983 27.196 1-5c.109-.541-.243-1.068-.784-1.177-.541-.108-1.068.244-1.177.785l-1 5c-.108.541.244 1.068.785 1.177.541.108 1.068-.244 1.176-.785zm4 0 1-5c.109-.541-.243-1.068-.784-1.177-.541-.108-1.068.244-1.177.785l-1 5c-.108.541.244 1.068.785 1.177.541.108 1.068-.244 1.176-.785zm4 0 1-5c.109-.541-.243-1.068-.784-1.177-.541-.108-1.068.244-1.177.785l-1 5c-.108.541.244 1.068.785 1.177.541.108 1.068-.244 1.176-.785z" fill="#eaeaea"/>
 <path d="m21.983 27.196 1-5c.109-.541-.243-1.068-.784-1.177-.541-.108-1.068.244-1.177.785l-1 5c-.108.541.244 1.068.785 1.177.541.108 1.068-.244 1.176-.785zm4 0 1-5c.109-.541-.243-1.068-.784-1.177-.541-.108-1.068.244-1.177.785l-1 5c-.108.541.244 1.068.785 1.177.541.108 1.068-.244 1.176-.785zm4 0 1-5c.109-.541-.243-1.068-.784-1.177-.541-.108-1.068.244-1.177.785l-1 5c-.108.541.244 1.068.785 1.177.541.108 1.068-.244 1.176-.785z" fill="#c3c3c3"/>
</svg>
