<svg clip-rule="evenodd" fill-rule="evenodd" stroke-linejoin="round" stroke-miterlimit="2" viewBox="0 0 48 48" xmlns="http://www.w3.org/2000/svg">
 <linearGradient id="a" x2="1" gradientTransform="matrix(.364218 -43.6183 43.6183 .364218 21.6921 45.8092)" gradientUnits="userSpaceOnUse">
  <stop stop-color="#009827" offset="0"/>
  <stop stop-color="#39b54a" offset="1"/>
 </linearGradient>
 <g fill-rule="nonzero">
  <path d="m40.362 16.588-23.1-13.238c-5.748-3.294-12.935.824-12.935 7.413v26.474c0 6.589 7.186 10.707 12.935 7.413l23.099-13.239c5.75-3.293 5.75-11.528.001-14.823z" fill="url(#a)"/>
  <path d="m16.157 10.828c-.898.005-1.809.232-2.649.707-2.581 1.459-3.447 4.749-2.033 7.341l5 9.164c1.41 2.585 4.642 3.565 7.262 2.221 2.704-1.387 3.681-4.79 2.232-7.446l-1.34-2.454-2.65 1.421c-.354.19-.796.06-.987-.291-.096-.176-.111-.373-.057-.55.051-.178.172-.335.349-.43l1.955-1.051c.383-.205.525-.679.318-1.058-.208-.38-.685-.521-1.067-.316l-1.923 1.033c-.363.195-.842.073-1.028-.292-.087-.17-.099-.36-.046-.531.052-.177.172-.335.349-.43l1.955-1.051c.382-.205.524-.681.318-1.061-.207-.379-.685-.518-1.068-.313l-1.955 1.05c-.354.19-.794.061-.984-.29-.095-.174-.112-.374-.058-.551.052-.177.172-.334.35-.429l2.649-1.422-.08-.148c-.714-1.309-1.897-2.206-3.228-2.598-.512-.152-1.045-.228-1.584-.225zm9.653 6.004c-.059-.003-.118-.001-.178.004-.159.016-.32.062-.47.142-.6.323-.822 1.067-.497 1.663l2.143 3.926c1.649 3.024.512 6.815-2.535 8.453-3.047 1.637-6.869.509-8.518-2.514l-2.141-3.927c-.325-.595-1.074-.815-1.673-.493s-.823 1.065-.498 1.66l2.141 3.929c2.099 3.847 6.719 5.486 10.737 4.007l2.855 5.235 2.139-1.23-2.823-5.174c3.446-2.531 4.585-7.268 2.487-11.115l-2.142-3.924c-.213-.391-.61-.621-1.027-.642z" fill="#343434"/>
 </g>
</svg>
