<svg clip-rule="evenodd" fill-rule="evenodd" stroke-linejoin="round" stroke-miterlimit="2" viewBox="0 0 48 48" xmlns="http://www.w3.org/2000/svg" xmlns:xlink="http://www.w3.org/1999/xlink"><linearGradient id="a" gradientTransform="matrix(0 -33.6872 33.6872 0 923.28 40.4502)" gradientUnits="userSpaceOnUse" x1="0" x2="1" y1="0" y2="0"><stop offset="0" stop-color="#0f0f0f"/><stop offset="1" stop-color="#181d1e"/></linearGradient><linearGradient id="b" gradientTransform="matrix(-25.9484 27.8939 -27.884 -25.9392 38.6303 10.468)" gradientUnits="userSpaceOnUse" x1="0" x2="1" y1="0" y2="0"><stop offset="0" stop-color="#d30aff"/><stop offset=".47" stop-color="#2449fe"/><stop offset="1" stop-color="#2ddcff"/></linearGradient><path d="m39.44 45.668h-30.88c-3.438 0-6.228-2.79-6.228-6.228v-30.88c0-3.438 2.79-6.228 6.228-6.228h30.88c3.438 0 6.228 2.79 6.228 6.228v30.88c0 3.438-2.79 6.228-6.228 6.228z" fill="url(#a)"/><path d="m19.406 42.07s-.05-1.022-.083-2.301c-.112-4.188-1.175-3.823-3.23-1.607-.833.899-1.728 1.65-1.728 1.65l-6.211-6.34s.8-.831 1.67-1.693c2.383-2.362 2.055-3.19-1.547-3.255-1.205-.022-2.38-.122-2.38-.122l-.056-8.917 2.484.037c1.487-.073 2.558.13 3.043-.669.562-.925-.99-2.296-1.878-3.08-.837-.739-1.58-1.48-1.58-1.48l6.461-6.371s1.067 1.158 2.069 2.018c1.303 1.12 1.845 1.399 2.435 1.094.817-.421.433-5.232.433-5.232l9.466.05-.05 13.525 13.312-.015.094 9.227s-1.297.043-2.695.024c-2.772-.037-3.888.84-1.678 2.995.838.817 2.325 2.157 2.325 2.157l-6.484 6.046s-1.143-.955-2.056-1.882c-2.16-2.193-3.034-1.22-2.94 1.84v2.181zm6.55-14.329c.822-.42 1.864-1.659 2.098-2.493.101-.358.183-1.747.183-3.086v-2.434l-2.313-.073c-2.995-.096-3.718.054-4.788.994-1.036.91-1.543 1.989-1.536 3.271.007 1.075.684 2.676 1.405 3.317 1.228 1.092 3.375 1.311 4.951.504z" fill="url(#b)" fill-rule="nonzero"/></svg>