<svg clip-rule="evenodd" fill-rule="evenodd" stroke-linejoin="round" stroke-miterlimit="2" viewBox="0 0 48 48" xmlns="http://www.w3.org/2000/svg">
 <g transform="matrix(1.05024 0 0 1.05024 -1.20586 -1.18071)">
  <path d="m32 29v14c0 .404-.244.769-.617.924-.374.155-.804.069-1.09-.217l-7-7c-.391-.39-.391-1.024 0-1.414l7-7c.286-.286.716-.372 1.09-.217.373.155.617.52.617.924zm-7.624-12.428 12.124-7c.35-.202.788-.174 1.109.073.321.246.462.661.357 1.052l-2.562 9.562c-.143.533-.691.85-1.225.707l-9.562-2.562c-.39-.105-.68-.434-.732-.835-.053-.401.141-.795.491-.997zm-7.751 12.856-12.125-7c-.35-.202-.544-.596-.491-.997.052-.401.342-.73.732-.835l9.562-2.562c.534-.143 1.082.174 1.225.707l2.563 9.562c.105.391-.036.806-.357 1.052-.321.247-.759.275-1.109.073z" fill="#008bae"/>
  <g fill-rule="nonzero">
   <path d="m21 4c-1.414 0-2.723.747-3.443 1.965l-4.682 7.922 6.955 4.015 5.072-8.582-2.613-4.789c-.106-.186-.227-.364-.361-.531zm18.492 16.715-6.957 4.017 4.238 7.768h3.727c1.439 0 2.761-.773 3.471-2.012.102-.83-.059-1.67-.459-2.404zm-28.197 11.285-.295.5-1.941 3.287c-.633 1.084-.72 2.403-.235 3.561.647.423 1.403.649 2.176.652h9v-8z" fill="#006680"/>
   <path d="m7.787 22.496-3.23 5.469c-.691 1.168-.742 2.61-.135 3.824l3 6c.482.952 1.325 1.672 2.34 2l-.338-.678c-.607-1.214-.556-2.656.135-3.824l1.941-3.287.512-.865.777-1.317 1.955-3.306zm13.166-18.492c.334.294.616.641.836 1.027l5.957 10.92 6.957-4.017-3.191-5.85c-.701-1.285-2.048-2.085-3.512-2.084zm22.951 25.131-.326.654c-.678 1.355-2.063 2.211-3.578 2.211h-10v8h7c1.515 0 2.9-.856 3.578-2.211l3-6c.41-.821.525-1.758.326-2.654z" fill="#008bae"/>
  </g>
 </g>
</svg>
