<svg clip-rule="evenodd" fill-rule="evenodd" stroke-linejoin="round" stroke-miterlimit="2" viewBox="0 0 48 48" xmlns="http://www.w3.org/2000/svg">
 <linearGradient id="a" x2="1" gradientTransform="matrix(0 -40 40 0 25.2492 44)" gradientUnits="userSpaceOnUse">
  <stop stop-color="#2bbf78" offset="0"/>
  <stop stop-color="#39fea0" offset="1"/>
 </linearGradient>
 <linearGradient id="b" x2="1" gradientTransform="matrix(0 -40 40 0 23.8975 44)" gradientUnits="userSpaceOnUse">
  <stop stop-color="#173843" offset="0"/>
  <stop stop-color="#1f4855" offset="1"/>
 </linearGradient>
 <g transform="matrix(1.1382 0 0 1.1382 -3.3168 -3.3168)" fill-rule="nonzero">
  <path d="m23.986 44h0.014c10.972 0 20-9.028 20-20s-9.028-20-20-20h-0.012z" fill="url(#a)"/>
  <path d="m23.986 44 .002-40c-10.967.006-19.988 9.033-19.988 20s9.02 19.993 19.986 20z" fill="url(#b)"/>
  <path d="m23.897 29.002h4.77l2.867 6.998h3.1l-9.268-24h-1.469l.071 3.113c.022-.086-.022.085 0 0l3.799 10.887h-3.87z" fill="#1f4855"/>
  <path d="m23.987 28.998v-2.998h-3.754l3.735-10.887.021-3.113h-1.322l-9.301 24h3.035l2.832-6.998z" fill="#39fea0"/>
 </g>
</svg>
