<svg clip-rule="evenodd" fill-rule="evenodd" stroke-linejoin="round" stroke-miterlimit="2" viewBox="0 0 48 48" xmlns="http://www.w3.org/2000/svg">
 <linearGradient id="a" x2="1" gradientTransform="matrix(.440262 -36.6119 36.6119 .440262 25.7265 38.9439)" gradientUnits="userSpaceOnUse">
  <stop stop-color="#222222" offset="0"/>
  <stop stop-color="#505759" offset="1"/>
 </linearGradient>
 <path d="m39.44 45.668h-30.88c-3.438 0-6.228-2.79-6.228-6.228v-30.88c0-3.438 2.79-6.228 6.228-6.228h30.88c3.438 0 6.228 2.79 6.228 6.228v30.88c0 3.438-2.79 6.228-6.228 6.228z" fill="#546a70"/>
 <path d="m39.44 38.944h-30.88c-3.438 0-6.228-2.79-6.228-6.228v-24.156c0-3.438 2.79-6.228 6.228-6.228h30.88c3.438 0 6.228 2.79 6.228 6.228v24.156c0 3.438-2.79 6.228-6.228 6.228z" fill="url(#a)"/>
 <g fill="#46c04b" fill-rule="nonzero">
  <path d="m8.56 2.332v43.336c-3.438 0-6.228-2.79-6.228-6.228v-30.88c0-3.438 2.79-6.228 6.228-6.228z"/>
  <path d="m19.666 13.166c-4.754 0-8.667 3.913-8.667 8.667 0 4.755 3.913 8.667 8.667 8.667 3.934-.007 7.392-2.692 8.376-6.5h6.792v4.334h4.334v-4.334h2.166v-4.334h-13.278c-.984-3.813-4.451-6.499-8.39-6.5zm0 4.334c2.378 0 4.334 1.956 4.334 4.333 0 2.378-1.956 4.334-4.334 4.334-2.377 0-4.333-1.956-4.333-4.334 0-2.377 1.956-4.333 4.333-4.333z"/>
 </g>
</svg>
