<svg clip-rule="evenodd" fill-rule="evenodd" stroke-linejoin="round" stroke-miterlimit="2" viewBox="0 0 48 48" xmlns="http://www.w3.org/2000/svg">
 <g fill-rule="nonzero">
  <path d="m9.89 2.324c-3.235.572-5.594 3.392-5.595 6.689v22.638l4.31 4.587c0 5.229 3.268 3.687 7.781 1.074l16.065-9.304c4.512-2.615-3.483-11.711-7.995-14.326l-1.443-5.591-8.563-4.961c-1.378-.798-2.993-1.083-4.56-.806z" fill="#1642f0"/>
  <path d="m22.665 7.888c-6.998 5.293-11.111 13.56-11.11 22.334 0 .587.018 1.173.055 1.757.273 4.347 2.994 3.208 5.197 6.984l20.015-10.705c4.512-2.615 5.886-5.402 1.375-8.017l-4.827-6.151z" fill="#c73fd6"/>
  <path d="m32.813 13.769c-6.065 3.25-9.85 9.573-9.85 16.453 0 .517.021 1.032.064 1.544.201 2.429 8.559-1.196 9.676.982l2.933-5.114c3.569-2.07 8.999-4.344 6.92-7.438-.549-.816-1.294-1.533-2.236-2.079z" fill="#f76f4d"/>
  <path d="m42.301 19.857c-5.582.198-10.004 4.78-10.004 10.365 0 .834.1 1.662.297 2.468.117.478 1.152-.398 1.337.06l3.653-1.283 2.736-1.585c3.545-2.054 4.477-6.769 1.981-10.025z" fill="#ffb44f"/>
  <path d="m4.295 31.26v7.727c1e-3 5.228 5.641 8.495 10.154 5.883l23.493-13.61z" fill="#16c460"/>
 </g>
</svg>
