<svg clip-rule="evenodd" fill-rule="evenodd" stroke-linejoin="round" stroke-miterlimit="2" viewBox="0 0 48 48" xmlns="http://www.w3.org/2000/svg">
 <linearGradient id="a" x2="1" gradientTransform="matrix(-.506203 -42 42 -.506203 387.569 40.6128)" gradientUnits="userSpaceOnUse">
  <stop stop-color="#2fb8db" offset="0"/>
  <stop stop-color="#58dcd0" offset="1"/>
 </linearGradient>
 <path d="m36.575 1.667c2.782 0 5.038 2.257 5.038 5.04l1e-3 34.586c0 2.783-2.256 5.04-5.039 5.04h-25.149c-2.783 0-5.039-2.257-5.039-5.04v-34.586c0-2.783 2.256-5.04 5.039-5.04z" fill="url(#a)" fill-rule="nonzero"/>
 <path d="m11 12.233h26v30h-26z" fill="#ffffff"/>
 <path d="m20 7.233h-2.666c-.739 0-1.334.636-1.334 1.427v3.573h16v-3.573c0-.791-.595-1.427-1.334-1.427h-2.666c0-2.195-1.806-4-4-4s-4 1.805-4 4zm4.013 2c1.091-.007 1.987-.907 1.987-2 0-1.097-.903-2-2-2s-2 .903-2 2v.013c.007 1.091.907 1.987 2 1.987z" fill="#dadada"/>
 <path d="m25.5 20.233h7.9c.828 0 1.5-.673 1.5-1.5 0-.828-.672-1.5-1.5-1.5h-7.9c-.828 0-1.5.672-1.5 1.5 0 .827.672 1.5 1.5 1.5z" fill="#c8c8c8"/>
 <path d="m14.547 37.953 3.231 2.311 3.867-4.565c.535-.632.456-1.579-.175-2.114-.632-.535-1.579-.457-2.115.175l-2.08 2.456-.982-.703c-.673-.482-1.611-.326-2.093.347s-.326 1.611.347 2.093zm0-9 3.231 2.311 3.867-4.565c.535-.632.456-1.579-.175-2.114-.632-.535-1.579-.457-2.115.175l-2.08 2.456-.982-.703c-.673-.482-1.611-.326-2.093.347s-.326 1.611.347 2.093zm0-9 3.231 2.311 3.867-4.565c.535-.632.456-1.579-.175-2.114-.632-.535-1.579-.457-2.115.175l-2.08 2.456-.982-.703c-.673-.482-1.611-.326-2.093.347s-.326 1.611.347 2.093z" fill="#3a3a3a"/>
 <path d="m25.5 38.233h7.9c.828 0 1.5-.673 1.5-1.5 0-.828-.672-1.5-1.5-1.5h-7.9c-.828 0-1.5.672-1.5 1.5 0 .827.672 1.5 1.5 1.5zm0-9h7.9c.828 0 1.5-.673 1.5-1.5 0-.828-.672-1.5-1.5-1.5h-7.9c-.828 0-1.5.672-1.5 1.5 0 .827.672 1.5 1.5 1.5z" fill="#c8c8c8"/>
</svg>
