<svg clip-rule="evenodd" fill-rule="evenodd" stroke-linecap="round" viewBox="0 0 48 48" xmlns="http://www.w3.org/2000/svg">
 <linearGradient id="a" x1="2.332" x2="2.332002" y1="5.00248" y2="5.00248" gradientUnits="userSpaceOnUse">
  <stop stop-color="#d8d8d8" offset="0"/>
  <stop stop-color="#e4e4e4" offset="1"/>
 </linearGradient>
 <linearGradient id="b" x2="1" gradientTransform="matrix(0 -35.8067 35.8067 0 6 39.8067)" gradientUnits="userSpaceOnUse">
  <stop stop-color="#25225b" offset="0"/>
  <stop stop-color="#3b3960" offset="1"/>
 </linearGradient>
 <g fill-rule="nonzero">
  <path d="m2.332 10.999h40.002c1.848 0 3.334 1.472 3.334 3.302v25.139c0 3.438-2.79 6.228-6.228 6.228h-37.108z" fill="#e4e4e4"/>
  <path transform="matrix(1.0834 0 0 1.0834 -2.0016 -2.0016)" d="m26 22v18h15.75c1.247 0 2.25-1.095 2.25-2.455v-15.545z" fill="#363656"/>
  <path d="m26.167 41.334h-19.501v-19.501h19.501v-19.501h13.273c3.438 0 6.228 2.79 6.228 6.228v13.273h-19.501z" fill="url(#a)"/>
  <path d="m6.6656 2.332h19.5012v19.5012h-19.5012z" fill="#363656" stroke-width="1.0834"/>
  <path transform="matrix(1.0834 0 0 1.0834 -2.0016 -2.0016)" d="m22 10.82c0-1.557-1.205-2.82-2.693-2.82-.979 0-1.837.548-2.307 1.367-.47-.819-1.328-1.367-2.307-1.367-1.488 0-2.693 1.263-2.693 2.82 0 .81.327 1.541.85 2.055h-.002l4.09 4.125 4.214-4.125h-.002c.523-.514.85-1.245.85-2.055" fill="#dedcd9"/>
  <path transform="matrix(1.0834 0 0 1.0834 -2.0016 -2.0016)" d="m35 8c-2.783 0-5 2.297-5 5s2.217 5 5 5 5-2.297 5-5-2.217-5-5-5zm0 3c1.078 0 2 .828 2 2s-.922 2-2 2-2-.828-2-2 .922-2 2-2z" fill="#363656"/>
 </g>
 <path transform="matrix(1.0834 0 0 1.0834 -2.0016 -2.0016)" d="m35.362 26.363 3.958 4.137-3.958 4.137" fill="none" stroke="#dedcd9" stroke-width="2.7"/>
 <path transform="matrix(1.0834 0 0 1.0834 -2.0016 -2.0016)" d="m31.21 29.001c-.016-.001-.032-.001-.047-.001-.638 0-1.163.677-1.163 1.5s.525 1.5 1.163 1.5c.015 0 .031 0 .047-.001h7.58c.016.001.032.001.047.001.638 0 1.163-.677 1.163-1.5s-.525-1.5-1.163-1.5c-.015 0-.031 0-.047.001z" fill="#dedcd9" fill-rule="nonzero"/>
 <path transform="matrix(1.0834 0 0 1.0834 -2.0016 -2.0016)" d="m4 4h4v36h-4z" fill="url(#b)" fill-rule="nonzero"/>
 <path transform="matrix(1.0834 0 0 1.0834 -2.0016 -2.0016)" d="m14 32c1.105 0 2 .895 2 2s-.895 2-2 2-2-.895-2-2 .895-2 2-2zm6 0c1.105 0 2 .895 2 2s-.895 2-2 2-2-.895-2-2 .895-2 2-2zm-6-6c1.105 0 2 .895 2 2s-.895 2-2 2-2-.895-2-2 .895-2 2-2zm6 0c1.105 0 2 .895 2 2s-.895 2-2 2-2-.895-2-2 .895-2 2-2z" fill="#363656" fill-rule="nonzero"/>
 <path transform="matrix(1.07758 0 0 1.07758 -1.86195 -1.97833)" d="m8 40h6v6.033l-3-2.625-3 2.625z" fill="#ee3c25" fill-rule="nonzero"/>
</svg>
