<svg clip-rule="evenodd" fill-rule="evenodd" stroke-linejoin="round" stroke-miterlimit="1.41421" viewBox="0 0 64 64" xmlns="http://www.w3.org/2000/svg">
 <linearGradient id="a" x2="1" gradientTransform="matrix(.0774818 -55.7385 55.7385 .0774818 30.3341 59.7385)" gradientUnits="userSpaceOnUse">
  <stop stop-color="#0062ff" offset="0"/>
  <stop stop-color="#0a7cb4" offset="1"/>
 </linearGradient>
 <path d="m60 15.541c0-6.37-5.171-11.541-11.541-11.541h-32.918c-6.37 0-11.541 5.171-11.541 11.541v32.918c0 6.37 5.171 11.541 11.541 11.541h32.918c6.37 0 11.541-5.171 11.541-11.541z" fill="url(#a)"/>
 <path d="m22.036 20.001c-2.471-.028-5.413 2.554-5.946 9.89-.568 7.826 1.657 8.598 4.07 8.598 2.01 0 3.624-1.006 5.394-3.074.268-.312.568-.476.684-.36.118.118.206.208.196.2s-.14.3-.266.696c-.348 1.086-.878 3.198-.344 4.682.14.39.432.334.552-.062.282-.944.828-2.568 1.42-3.386.242-.334.522-.144.508.27-.076 2.518.736 7.106 4.442 10.022 3.876 3.052 9.524 2.972 12.586 1.668.374-.16.96-.15 1.36-.078.246.046.558.072.948.052 1.134-.066-.76-1.028-.886-1.544s.886-.616 1.09-2.258c.206-1.644-1.086-.062-1.086-.062s-.95 1.114-4.734.87c-3.488-.22-7.644-2.018-7.504-8.338.01-.416.138-.786.262-.836.122-.05.466.136.678.488.528.868.998 2.278 1.254 3.132.12.396.41.454.552.066.464-1.29.124-3.058-.204-4.21-.11-.398.008-.9.27-1.148.262-.25.664-.208.93.104 1.78 2.088 3.402 3.11 5.422 3.11 2.412 0 4.638-.772 4.07-8.598s-3.884-10.242-6.438-9.854c-1.646.248-2.786 1.096-3.386 1.67-.298.284-.5.574-.5.606s-.236-.178-.552-.44c-1.376-1.15-3.104-1.836-4.984-1.836-1.854 0-3.564.668-4.934 1.788-.316.26-.548.48-.55.464 0-.016-.204-.294-.5-.578-.602-.572-1.74-1.426-3.386-1.674-.16-.026-.324-.038-.488-.04zm6.964 6c.552 0 1 .448 1 1s-.448 1-1 1-1-.448-1-1 .448-1 1-1zm6 0c.552 0 1 .448 1 1s-.448 1-1 1-1-.448-1-1 .448-1 1-1z" fill="#fff" fill-rule="nonzero"/>
</svg>
