<svg clip-rule="evenodd" fill-rule="evenodd" stroke-linejoin="round" stroke-miterlimit="2" viewBox="0 0 48 48" xmlns="http://www.w3.org/2000/svg">
 <linearGradient id="a" x2="1" gradientTransform="matrix(-.5 -35.1833 35.1833 -.5 24.5 41.7346)" gradientUnits="userSpaceOnUse">
  <stop stop-color="#35a9ff" offset="0"/>
  <stop stop-color="#6fc0fc" offset="1"/>
 </linearGradient>
 <path d="m7.5 4h7v7h-7z" fill="#3a48a8"/>
 <path d="m29.5 4h7v7h-7z" fill="#878186"/>
 <path d="m36.5 11h7v7h-7z" fill="#3a48a8"/>
 <path d="m36.5 30h7v7h-7z" fill="#ffba52"/>
 <path d="m29.5 37h7v7h-7z" fill="#878186"/>
 <path d="m11.5 32h7v7h-7z" fill="#85d33a"/>
 <path d="m4.5 25h7v7h-7z" fill="#cb383c"/>
 <path d="m14.5 4v7h-10v14h7v7h7v12h11v-7h7v-7h7v-12h-14v-14z" fill="#00879d" fill-rule="nonzero"/>
 <path d="m29.5 11h7v7h-7z" fill="#85d33a"/>
 <path d="m14.762 6.334c3.304-.601 7.463-.395 10.934.652 2.246.559 3.8 1.721 5.202 3.285 2.256 2.729 3.616 6.247 3.557 9.43.291 4.222-.845 8.602-3.169 11.246-1.058 1.176-3.34 3.001-5.403 4.869 0 0-.547.642-.518 1.024.044.571.384.932.727 1.303.195.211.505.402.792.585.792.414.724 1.409.448 1.863-.619.626-1.183.964-1.966 1.24-.934.337-1.301.172-1.864-.507-.542-.611-.933-1.241-1.252-1.906-.69-1.233-.809-2.366-.641-3.653.182-.581.54-1.083 1.09-1.817.84-1.032 1.519-1.863 2.306-3.163.542-.839-.043-1.025-.414-1.354-1.856-1.633-3.82-3.15-5.015-5.005 1.475-1.593 1.68-3.507 2.109-5.364-1.79 3.488-2.889 5.854-6.423 4.784-1.516-.606-2.783-1.677-3.643-2.686-2.344-3.136-2.127-6.068-2.103-7.278.031-1.553.381-3.114 1.373-4.687.922-1.658 2.264-2.34 3.873-2.861z" fill="url(#a)" fill-rule="nonzero"/>
 <circle cx="29" cy="19.5" r="1.5" fill="#3f3f3f"/>
 <path d="m27.863 25.386 4.637 3.478c-.634-.016-1.464.194-2.385.12-2.003-.159-4.394-.666-4.589-1.322-.11-.91.103-1.621 1.084-2.342.605-.473.669-.397 1.253.066z" fill="#fff" fill-rule="nonzero"/>
</svg>
