<svg clip-rule="evenodd" fill-rule="evenodd" stroke-linejoin="round" stroke-miterlimit="2" viewBox="0 0 48 48" xmlns="http://www.w3.org/2000/svg">
 <linearGradient id="a" x2="1" gradientTransform="matrix(.0534584 -39.7731 39.7731 .0534584 24 43.8865)" gradientUnits="userSpaceOnUse">
  <stop stop-color="#d0d0d0" offset="0"/>
  <stop stop-color="#f3f3f3" offset="1"/>
 </linearGradient>
 <linearGradient id="b" x2="1" gradientTransform="matrix(.139704 -23.0925 23.0925 .139704 23.1447 38.1211)" gradientUnits="userSpaceOnUse">
  <stop stop-color="#038f92" offset="0"/>
  <stop stop-color="#2eb1b4" offset="1"/>
 </linearGradient>
 <g fill-rule="nonzero">
  <path transform="matrix(1.11401 0 0 1.11401 -2.73631 -2.73631)" d="m23 4c-2.216 0-4 1.784-4 4v1.875c-1.731.614-3.334 1.54-4.73 2.732l-1.625-.937c-1.92-1.108-4.357-.454-5.465 1.465l-1 1.73c-1.108 1.919-.455 4.357 1.465 5.465l1.617.934c-.171.902-.259 1.818-.262 2.736.003.918.091 1.834.262 2.736l-1.617.934c-1.92 1.108-2.573 3.546-1.465 5.465l1 1.73c1.108 1.919 3.545 2.573 5.465 1.465l1.613-.932c1.4 1.191 3.008 2.114 4.742 2.723v1.879c0 2.216 1.784 4 4 4h2c2.216 0 4-1.784 4-4v-1.887c1.73-.61 3.333-1.532 4.73-2.72l1.625.937c1.92 1.108 4.357.454 5.465-1.465l1-1.73c1.108-1.919.455-4.357-1.465-5.465l-1.617-.934c.171-.902.259-1.818.262-2.736-.003-.918-.091-1.834-.262-2.736l1.617-.934c1.92-1.108 2.573-3.546 1.465-5.465l-1-1.73c-1.108-1.919-3.545-2.573-5.465-1.465l-1.613.932c-1.4-1.192-3.008-2.115-4.742-2.725v-1.877c0-2.216-1.784-4-4-4h-2z" fill="url(#a)"/>
  <path transform="matrix(1.11401 0 0 1.11401 -2.73631 -2.73631)" d="m24 15c-4.937 0-9 4.063-9 9v11.967c1.216.917 2.565 1.643 4 2.154v-6.646c1.479.991 3.219 1.522 5 1.525 4.937 0 9-4.063 9-9s-4.063-9-9-9zm0 4c2.743 0 5 2.257 5 5s-2.257 5-5 5-5-2.257-5-5 2.257-5 5-5z" fill="url(#b)"/>
 </g>
</svg>
