<svg clip-rule="evenodd" fill-rule="evenodd" stroke-linejoin="round" stroke-miterlimit="2" viewBox="0 0 48 48" xmlns="http://www.w3.org/2000/svg">
 <g fill-rule="nonzero">
  <path transform="matrix(1.1173 0 0 1.1173 -2.81516 -2.81512)" d="m24.107 4v.002c-.837-.021-1.664.189-2.39.605l-13.434 7.727c-1.411.811-2.283 2.316-2.283 3.939v15.453c0 1.623.873 3.127 2.283 3.938l13.434 7.726c1.411.812 3.155.812 4.566 0l13.434-7.726c1.41-.811 2.283-2.315 2.283-3.938v-15.453c0-1.623-.872-3.128-2.283-3.939l-13.434-7.727c-.662-.38-1.411-.589-2.176-.607z" fill="#e4e4e4"/>
  <g transform="matrix(.372433 0 0 .372433 7.24052 4.65216)" fill-opacity=".6">
   <path d="m30 8.7-30 17.3v34.6l30 17.3 30-17.3-15 8.7-15-8.7v-17.3l15-8.7 15 8.7v-17.3l-30-17.3z" fill="#008a3b"/>
   <path d="m0 77.9 30 17.4 30-17.4v-17.3l-15 8.7-15-8.7v-17.3l15-8.7-15-8.6-30 17.3z" fill="#dedc0a"/>
   <path d="m60 43.3v17.3l-15 8.7-15-8.7v-17.3l15-8.7-30 17.4v34.6l30 17.3 30-17.3v-34.6l-30-17.4z" fill="#f39208"/>
   <path d="m30 60.6v17.3l30 17.4 30-17.4v-34.6l-30-17.3-15 8.6 15 8.7v17.3l-15 8.7z" fill="#e72174"/>
   <path d="m45 34.6 15 8.7v17.3l-15 8.7-15-8.7 30 17.3 30-17.3v-34.6l-30-17.3-30 17.3v17.3z" fill="#253887"/>
   <path d="m45 34.6 15 8.7v17.3l15-8.6v-34.7l-30-17.3-30 17.3v34.7l15 8.6v-17.3z" fill="#3ba9e0"/>
  </g>
 </g>
</svg>
