<svg clip-rule="evenodd" fill-rule="evenodd" stroke-linejoin="round" stroke-miterlimit="2" viewBox="0 0 48 48" xmlns="http://www.w3.org/2000/svg">
 <linearGradient id="a" x2="1" gradientTransform="matrix(-17.788 -31.9088 31.9088 -17.788 162.974 -30.1634)" gradientUnits="userSpaceOnUse">
  <stop stop-color="#1d1d1d" offset="0"/>
  <stop stop-color="#3f3f3f" offset="1"/>
 </linearGradient>
 <circle cx="24" cy="24" r="22.764" fill="url(#a)"/>
 <path d="m26.393 11.805c-.66.001-1.369.01-2.13.028-5.772.143-8.226.878-11.208 2.967-2.134 1.493-3.528 3.593-2.566 4.205.814.519 3.156-.64 3.86-1.909.888-1.599 1.904-2.049 3.806-2.049 1.142 0 1.256.306.972 2.574-.62 4.932-2.02 10.534-3.807 14.955-.516 1.278-.938 2.567-.938 2.863-.001.9.794.999 2.238.281 1.488-.74 2.095-1.574 3.278-4.51.59-1.462 1.07-2.739 1.07-2.837 0-.464.873-.819 2.575-1.048 5.851-.786 10.885-3.818 12.737-7.673 1.278-2.662.869-4.807-1.184-6.196-1.766-1.193-4.077-1.654-8.703-1.651zm-.919 3.257c.189.007.398.024.628.049 2.703.292 4.748 1.124 5.59 2.274.57.778.587 2.639.036 3.765-1.061 2.17-2.818 2.956-8.041 3.598-.936.115-1.213.082-1.302-.153-.062-.163.163-1.701.502-3.42.338-1.718.68-3.672.757-4.339.143-1.221.415-1.693 1.321-1.768.151-.013.32-.013.508-.006z" fill="#fff" fill-rule="nonzero"/>
</svg>
