<svg clip-rule="evenodd" fill-rule="evenodd" stroke-linejoin="round" stroke-miterlimit="2" viewBox="0 0 48 48" xmlns="http://www.w3.org/2000/svg">
 <linearGradient id="a" x2="1" gradientTransform="matrix(0 -43.1668 43.1668 0 23.987 45.4988)" gradientUnits="userSpaceOnUse">
  <stop stop-color="#34344b" offset="0"/>
  <stop stop-color="#414168" offset="1"/>
 </linearGradient>
 <path d="m39.44 2.332c3.438 0 6.228 2.79 6.228 6.228v30.88c0 3.438-2.79 6.228-6.228 6.228h-30.88c-3.438 0-6.228-2.79-6.228-6.228v-30.88c0-3.438 2.79-6.228 6.228-6.228z" fill="url(#a)"/>
 <path d="m43.501 24.004c0-2.578-3.233-5.027-8.199-6.541 1.144-5.044.633-9.058-1.603-10.347-.52-.303-1.118-.442-1.777-.442v1.774c.364 0 .659.069.91.208 1.083.623 1.551 2.976 1.187 6.004-.086.744-.234 1.532-.407 2.336-1.56-.381-3.259-.675-5.044-.865-1.075-1.471-2.185-2.803-3.311-3.971 2.591-2.406 5.027-3.721 6.673-3.721v-1.773c-2.184 0-5.044 1.557-7.939 4.256-2.895-2.682-5.755-4.222-7.939-4.222v1.774c1.647 0 4.082 1.306 6.674 3.694-1.109 1.168-2.228 2.492-3.285 3.963-1.794.19-3.501.484-5.053.874-.182-.796-.321-1.566-.416-2.302-.373-3.028.087-5.39 1.161-6.013.243-.147.546-.207.911-.207v-1.774c-.668 0-1.275.147-1.795.441-2.236 1.289-2.738 5.295-1.586 10.322-4.949 1.523-8.164 3.963-8.164 6.532 0 2.579 3.233 5.027 8.199 6.541-1.144 5.044-.633 9.059 1.603 10.348.52.303 1.118.441 1.786.441 2.184 0 5.044-1.557 7.939-4.256 2.895 2.682 5.755 4.222 7.939 4.222.668 0 1.274-.147 1.794-.441 2.236-1.29 2.739-5.296 1.586-10.322 4.941-1.514 8.156-3.954 8.156-6.533zm-10.348-5.286c-.295 1.021-.659 2.076-1.075 3.132-.33-.632-.668-1.272-1.04-1.903-.364-.632-.754-1.255-1.144-1.861 1.126.165 2.218.372 3.259.632zm-3.641 8.453c-.624 1.073-1.256 2.085-1.915 3.028-1.188.104-2.384.156-3.597.156-1.205 0-2.401-.052-3.58-.147-.658-.943-1.3-1.956-1.924-3.02-.606-1.038-1.152-2.094-1.655-3.158.494-1.064 1.049-2.128 1.647-3.166.624-1.073 1.256-2.086 1.915-3.029 1.188-.103 2.384-.155 3.597-.155 1.205 0 2.401.052 3.58.147.658.943 1.3 1.955 1.924 3.019.606 1.039 1.152 2.094 1.655 3.158-.503 1.056-1.057 2.12-1.647 3.167zm2.566-1.038c.433 1.064.797 2.128 1.101 3.158-1.04.251-2.141.467-3.277.631.39-.614.78-1.237 1.144-1.877.364-.632.702-1.272 1.032-1.912zm-8.061 8.47c-.736-.761-1.482-1.609-2.21-2.544.72.035 1.448.052 2.184.052.746 0 1.491-.017 2.21-.052-.71.935-1.456 1.783-2.184 2.544zm-5.919-4.672c-1.127-.164-2.219-.372-3.259-.623.294-1.021.658-2.076 1.075-3.132.329.632.667 1.272 1.04 1.903.372.623.754 1.246 1.144 1.852zm5.876-16.517c.737.762 1.482 1.609 2.21 2.544-.719-.035-1.447-.052-2.184-.052-.745 0-1.491.017-2.21.052.719-.935 1.456-1.782 2.184-2.544zm-5.885 4.672c-.39.615-.78 1.238-1.144 1.878-.364.631-.711 1.272-1.031 1.903-.434-1.064-.798-2.128-1.101-3.158 1.048-.242 2.141-.458 3.276-.623zm-7.194 9.942c-2.817-1.203-4.637-2.769-4.637-4.015s1.82-2.829 4.637-4.015c.685-.294 1.43-.553 2.202-.804.45 1.557 1.048 3.175 1.785 4.836-.728 1.653-1.317 3.262-1.768 4.811-.78-.251-1.525-.519-2.219-.813zm4.282 11.334c-1.084-.623-1.552-2.977-1.188-6.005.087-.744.234-1.531.408-2.336 1.56.381 3.259.675 5.044.865 1.075 1.471 2.184 2.804 3.311 3.972-2.592 2.405-5.027 3.72-6.674 3.72-.364-.009-.667-.078-.901-.216zm18.86-6.048c.372 3.028-.087 5.39-1.162 6.013-.242.147-.546.208-.91.208-1.647 0-4.082-1.307-6.674-3.695 1.11-1.168 2.228-2.491 3.285-3.962 1.794-.191 3.502-.485 5.053-.874.174.804.312 1.575.408 2.31zm3.059-5.286c-.685.294-1.43.553-2.201.804-.451-1.557-1.049-3.175-1.786-4.836.728-1.653 1.318-3.262 1.768-4.811.789.242 1.534.519 2.236.813 2.817 1.203 4.637 2.769 4.637 4.015-.026 1.237-1.846 2.821-4.654 4.015z" fill="#e1145e" fill-rule="nonzero"/>
 <circle cx="24" cy="24" r="3.25" fill="#fff"/>
</svg>
