<svg clip-rule="evenodd" fill-rule="evenodd" stroke-linejoin="round" stroke-miterlimit="2" viewBox="0 0 48 48" xmlns="http://www.w3.org/2000/svg">
 <linearGradient id="a" x2="1" gradientTransform="matrix(0 -33.6872 33.6872 0 923.28 40.4502)" gradientUnits="userSpaceOnUse">
  <stop stop-color="#cad4d7" offset="0"/>
  <stop stop-color="#ffffff" offset="1"/>
 </linearGradient>
 <path d="m39.44 45.668h-30.88c-3.438 0-6.228-2.79-6.228-6.228v-30.88c0-3.438 2.79-6.228 6.228-6.228h30.88c3.438 0 6.228 2.79 6.228 6.228v30.88c0 3.438-2.79 6.228-6.228 6.228z" fill="url(#a)"/>
 <path d="m13.504 7.004c-.512.137-.814.66-.677 1.172l2.621 9.782 8.202 4.735 4.735-8.201-2.621-9.782c-.137-.512-.66-.814-1.172-.677zm-8.794 15.232c-.512.137-.814.66-.677 1.172l2.971 11.088c.137.512.66.814 1.172.677l9.782-2.621 4.735-8.202-8.201-4.735zm25.332-6.788-4.735 8.202 8.201 4.735 9.782-2.621c.512-.137.814-.66.677-1.172l-2.971-11.088c-.137-.512-.66-.814-1.172-.677zm-5.692 9.859-4.735 8.201 2.621 9.782c.137.512.66.814 1.172.677l11.088-2.971c.512-.137.814-.66.677-1.172l-2.621-9.782z" fill="#005af0" fill-rule="nonzero"/>
</svg>
