<svg clip-rule="evenodd" fill-rule="evenodd" stroke-linejoin="round" stroke-miterlimit="2" viewBox="0 0 48 48" xmlns="http://www.w3.org/2000/svg">
 <linearGradient id="a" x2="1" gradientTransform="matrix(0 -45.79 45.79 0 125.196 46.895)" gradientUnits="userSpaceOnUse">
  <stop stop-color="#2f3f48" offset="0"/>
  <stop stop-color="#556972" offset="1"/>
 </linearGradient>
 <circle cx="24" cy="24" r="22.895" fill="url(#a)"/>
 <g fill="#fff" fill-rule="nonzero">
  <path d="m27.848 32.322h-2.194c-.259 0-.458-.059-.598-.178-.139-.118-.236-.285-.29-.5l-1.259-5.148h-9.102l-2.534 5.148c-.086.183-.221.342-.404.476-.183.135-.392.202-.629.202h-2.211l10.765-21.207h2.889zm-12.427-7.876h7.586l-2.114-8.683c-.054-.258-.116-.556-.186-.895s-.132-.702-.186-1.09c-.15.388-.296.753-.435 1.098-.14.344-.269.645-.388.904z"/>
  <path d="m32.959 17.463c-2.799 0-4.246 1.422-4.246 3.845v.15c0 .499.3.749.824.749h.623c.524 0 .799-.275.799-.774v-.125c0-1.2.55-1.825 2-1.825s2 .625 2 1.85v2.049l-3.45 1.149c-1.972.65-2.92 1.725-2.92 3.499v.725c0 2.173 1.222 3.445 3.595 3.445 1.75 0 2.575-.898 2.825-1.597v.674c0 .499.299.773.798.773h.599c.524 0 .823-.299.823-.823v-9.894c0-2.448-1.447-3.87-4.27-3.87zm-.225 12.866c-1.325 0-1.9-.65-1.9-1.724v-.55c0-.95.425-1.499 1.625-1.899l2.5-.775v2.974c0 1.099-.6 1.974-2.225 1.974z"/>
 </g>
</svg>
