<svg clip-rule="evenodd" fill-rule="evenodd" stroke-linejoin="round" stroke-miterlimit="2" viewBox="0 0 48 48" xmlns="http://www.w3.org/2000/svg">
 <linearGradient id="a" x2="1" gradientTransform="matrix(0 -36.2165 36.2165 0 787.671 42.119)" gradientUnits="userSpaceOnUse">
  <stop stop-color="#566069" offset="0"/>
  <stop stop-color="#6c7884" offset="1"/>
 </linearGradient>
 <path d="m39.44 2.332c3.438 0 6.228 2.79 6.228 6.228v30.88c0 3.438-2.79 6.228-6.228 6.228h-30.88c-3.438 0-6.228-2.79-6.228-6.228v-30.88c0-3.438 2.79-6.228 6.228-6.228z" fill="url(#a)"/>
 <path d="m22.152 8.143c0-.935-.759-1.694-1.694-1.694h-12.87c-.935 0-1.693.759-1.693 1.694s.758 1.693 1.693 1.693h12.87c.935 0 1.694-.758 1.694-1.693z" fill="#d3d3d3"/>
 <path d="m23.481 9.836h-.13c-.122 0-.22-.1-.22-.221v-.372c-.524-.133-.674-.444-.674-1.084 0-.944.766-1.71 1.71-1.71s1.71.766 1.71 1.71c0 .631-.16.941-.673 1.077v.377c0 .123-.099.222-.222.222h-.128c-.122 0-.221-.099-.221-.222v-.296c-.058.004-.117.006-.18.008v.29c0 .121-.099.22-.221.22h-.129c-.122 0-.221-.099-.221-.22v-.289c-.063-.001-.123-.003-.181-.007v.296c0 .121-.099.221-.22.221zm-.023-2.372c.29.113.525.227.525.51 0 .28-.19.334-.525.507-.257.134-.526-.227-.526-.507 0-.283.255-.616.526-.51zm1.411 0c.279-.08.525.227.525.51 0 .28-.276.656-.525.507-.306-.181-.525-.227-.525-.507 0-.283.204-.419.525-.51z" fill="#d3d3d3"/>
 <g fill-opacity=".84" fill-rule="nonzero">
  <path transform="matrix(1.40243 0 0 1.40243 -14.5052 -15.6247)" d="m28.286 28.092-3.412-.005v-4.133c0-1.02-.692-1.851-1.612-1.851-.921 0-1.613.831-1.613 1.851v6.258c-.387-.44-.799-.702-1.317-.702-.286 0-.573.083-.825.24-.794.498-1.081 1.588-.649 2.488.708 1.407 3.028 6.028 3.186 6.264.524.794 1.319 1.258 2.183 1.258h4.558c1.747 0 2.667-.918 2.667-2.488v-5.756c0-.029.04-.058.038-.087.002-.045-.002-.091-.002-.139 0-1.763-1.439-3.198-3.202-3.198z" fill="#64707b"/>
  <path transform="matrix(1.40243 0 0 1.40243 -10.9139 -15.6247)" d="m28.286 28.092-3.412-.005v-4.133c0-1.02-.692-1.851-1.612-1.851-.921 0-1.613.831-1.613 1.851v6.258c-.387-.44-.799-.702-1.317-.702-.286 0-.573.083-.825.24-.794.498-1.081 1.588-.649 2.488.708 1.407 3.028 6.028 3.186 6.264.524.794 1.319 1.258 2.183 1.258h4.558c1.747 0 2.667-.918 2.667-2.488v-5.756c0-.029.04-.058.038-.087.002-.045-.002-.091-.002-.139 0-1.763-1.439-3.198-3.202-3.198z" fill="#828e9a"/>
  <path transform="matrix(1.40243 0 0 1.40243 -7.82364 -15.6247)" d="m28.286 28.092-3.412-.005v-4.133c0-1.02-.692-1.851-1.612-1.851-.921 0-1.613.831-1.613 1.851v6.258c-.387-.44-.799-.702-1.317-.702-.286 0-.573.083-.825.24-.794.498-1.081 1.588-.649 2.488.708 1.407 3.028 6.028 3.186 6.264.524.794 1.319 1.258 2.183 1.258h4.558c1.747 0 2.667-.918 2.667-2.488v-5.756c0-.029.04-.058.038-.087.002-.045-.002-.091-.002-.139 0-1.763-1.439-3.198-3.202-3.198z" fill="#d3d3d3"/>
 </g>
</svg>
