<svg clip-rule="evenodd" fill-rule="evenodd" stroke-linejoin="round" stroke-miterlimit="2" viewBox="0 0 48 48" xmlns="http://www.w3.org/2000/svg">
 <linearGradient id="a" x2="1" gradientTransform="matrix(.0750367 -43.19 43.19 .0750367 188.179 45.7619)" gradientUnits="userSpaceOnUse">
  <stop stop-color="#003fb6" offset="0"/>
  <stop stop-color="#21c6fb" offset="1"/>
 </linearGradient>
 <linearGradient id="b" x2="1" gradientTransform="matrix(-2e-8 -18.2209 18.2209 -2e-8 1070.62 46.9753)" gradientUnits="userSpaceOnUse">
  <stop stop-color="#566069" offset="0"/>
  <stop stop-color="#6c7884" offset="1"/>
 </linearGradient>
 <path d="m45.668 8.56c0-3.438-2.79-6.228-6.228-6.228h-30.88c-3.438 0-6.228 2.79-6.228 6.228v30.88c0 3.438 2.79 6.228 6.228 6.228h30.88c3.438 0 6.228-2.79 6.228-6.228z" fill="url(#a)"/>
 <path d="m11.817 23.108-.009-8.697 9.754-1.454v10.151zm11.371-10.409 13.002-2.077v12.486h-13.002zm13.004 12.193-.002 12.486-13.002-2.007v-10.479zm-14.63 10.251-9.746-1.466-.001-8.785h9.747z" fill="#eff9fe" fill-opacity=".75" fill-rule="nonzero"/>
 <path d="m47.039 32.026c0-.867-.344-1.7-.958-2.313-.613-.614-1.446-.958-2.313-.958h-11.677c-.868 0-1.7.344-2.314.958-.614.613-.958 1.446-.958 2.313v11.677c0 .868.344 1.7.958 2.314s1.446.958 2.314.958h11.677c.867 0 1.7-.344 2.313-.958.614-.614.958-1.446.958-2.314z" fill="url(#b)"/>
 <path transform="matrix(.0297504 0 0 .0311453 30.7472 13.2323)" d="m380.24 566.95c-34.398 0-62.704 28.306-62.704 62.704.02 5.162.677 10.301 1.956 15.302l-173.93 100.42c-11.615-11.004-27.012-17.155-43.011-17.184-34.398 0-62.704 28.306-62.704 62.704s28.306 62.704 62.704 62.704c16.01-.013 31.422-6.158 43.05-17.163l173.91 100.41c-1.284 4.996-1.947 10.132-1.974 15.291 0 34.398 28.306 62.702 62.704 62.702 34.399 0 62.704-28.304 62.705-62.702-.001-34.398-28.306-62.704-62.705-62.704-15.717.023-30.865 5.954-42.42 16.61l-174.32-100.66c1.153-4.746 1.747-9.61 1.771-14.493-.025-4.884-.62-9.748-1.774-14.493l174.35-100.66c11.549 10.657 26.692 16.592 42.406 16.621 34.398 0 62.704-28.306 62.704-62.704s-28.306-62.704-62.704-62.704z" fill="#d3dde3"/>
</svg>
