<svg width="48" height="48" xmlns="http://www.w3.org/2000/svg">
 <linearGradient id="a" x1="275.39902" x2="275.39902" y1="550.80005" y2="78.686302" gradientUnits="userSpaceOnUse">
  <stop stop-color="#8d3aff" offset="0"/>
  <stop stop-color="#ff3680" offset="1"/>
 </linearGradient>
 <g transform="matrix(.07988381 0 0 .07988381 2.00008 1.99996)" fill="url(#a)">
  <path d="m541.951 272.337h-37.217c-3.379 0-9.014-0.202-9.014-3.58v-37.565c0-3.378 0.158-7.815-3.221-7.815h-37.387c-3.385 0-8.354-1.047-8.354-4.425v-37.363c0-3.384-0.502-7.172-3.881-7.172h-37.281c-3.379 0-7.797-1.702-7.797-5.08v-37.546c0-3.378-1.898-6.089-5.275-6.059-12.211 0.098-24.719 0.11-37.395 0.11-3.377 0-6.285 2.742-6.285 6.12v37.216c-6e-3 3.39-1.561 5.239-4.945 5.239h-137.301c-3.378 0-4.639-1.849-4.639-5.227v-37.252c0-3.378-3.476-6.12-6.854-6.12-12.552 0-24.333-0.012-36.42-0.11-3.391-0.024-5.686 2.687-5.686 6.065v37.895c0 3.385-4.352 4.75-7.736 4.75h-37.589c-3.378 0-3.635 4.106-3.635 7.484v37.412c0 3.384-5.227 4.064-8.605 4.064h-37.46c-3.378 0-9.015 4.792-9.015 8.176v37.46c0 3.378 0.153 3.323-3.225 3.323h-36.885c-3.378 0-8.85 5.532-8.85 8.91v135.729c0 3.385 5.471 8.36 8.85 8.36h36.867c3.378 0 3.244-4.988 3.244-8.366v-86.384c0-3.385 5.618-3.17 8.997-3.17h37.833c3.378 0 8.25-0.208 8.25 3.17v86.935c0 3.378 1.67 6.114 5.055 6.114 12.558 0 25.239 0.018 37.332 0.109 3.378 0.031 6.573-2.68 6.573-6.059v-37.325c0-3.379 0.759-3.984 4.143-3.984h236.544c3.379 0 6.119 1.677 6.119 5.055 0 12.559-0.018 25.227-0.115 37.455-0.025 3.384 2.68 6.45 6.059 6.45h37.271c3.371 0 3.738-4.468 3.738-7.846v-86.818c0-3.379 5.117-3.256 8.5-3.256h38.037c3.377 0 8.543-0.123 8.543 3.256v86.298c0 3.378 0.324 8.366 3.703 8.366h36.4c3.379 0 8.857-4.981 8.857-8.36v-135.98c2e-3 -3.383-5.471-8.659-8.848-8.659zm-339.991-3.862c0 3.379-3.831 3.862-7.209 3.862h-37.387c-3.384 0-4.363-0.478-4.363-3.855v-37.326c0-3.378 0.985-7.778 4.37-7.778h37.375c3.378 0 7.215 4.4 7.215 7.785-1e-3 12.441-1e-3 24.785-1e-3 37.312zm195.841 0.099c0 3.378-1.023 3.764-4.4 3.764h-37.32c-3.385 0-7.24-0.386-7.24-3.771v-37.344c0-3.372 3.861-7.846 7.24-7.846h37.32c3.377 0 4.4 4.467 4.4 7.846z"/>
  <path d="m244.341 424.071c-9.21 6e-3 -18.5 0.018-27.558-7e-3 -19.805-0.061-39.725-0.146-59.529-0.227-3.378-0.012-6.151 2.718-6.12 6.103 0.098 12.239 0.08 25.275 0.085 37.521 0 3.378 2.711 6.842 6.09 6.842h86.567c3.378-6e-3 7.044-4.204 7.044-7.582v-36.524c0-3.385-3.201-6.133-6.579-6.126z"/>
  <path d="m395.836 423.936c-0.949 0.073-1.463 0.753-2.43 0.753-29.139 0.018-57.816 0.648-86.953 0.648h-2.773c-1.529 0-3.799 1.469-3.799 4.847v36.616c0 3.378 3.77 7.497 7.154 7.497h86.486c3.379 0 4.279-4.125 4.279-7.503v-37.063c1e-3 -3.378-0.366-5.918-1.964-5.795z"/>
  <path d="m108.214 125.458h37.057c3.378 0 6.083-2.644 6.059-6.022-0.098-12.24-0.11-24.56-0.116-36.806 0-3.378-2.742-6.126-6.126-6.126h-36.873c-3.378-6e-3 -4.174 2.846-4.174 6.23v36.806c-1e-3 3.377 0.794 5.918 4.173 5.918z"/>
  <path d="m404.844 125.788c12.24-0.098 24.053-0.11 36.299-0.116 3.383 0 5.617-2.748 5.617-6.126v-36.885c0-3.378-0.82-6.163-4.197-6.163h-36.795c-3.377 0-7.967 2.796-7.967 6.175v37.062c0 3.378 3.664 6.083 7.043 6.053z"/>
 </g>
</svg>
