<svg clip-rule="evenodd" fill-rule="evenodd" stroke-linejoin="round" stroke-miterlimit="2" viewBox="0 0 48 48" xmlns="http://www.w3.org/2000/svg">
 <linearGradient id="a" x2="1" gradientTransform="matrix(.690325 -45.5177 45.5177 .690325 24 46.764)" gradientUnits="userSpaceOnUse">
  <stop stop-color="#8e3456" offset="0"/>
  <stop stop-color="#d36b91" offset="1"/>
 </linearGradient>
 <circle cx="24" cy="24" r="22.764" fill="url(#a)"/>
 <path d="m31.868 8.467c-.145-.009-.287-.007-.428.002-.937.066-1.806.586-2.311 1.461-.806 1.399-.324 3.177 1.079 3.986 1.399.806 3.18.338 3.985-1.066.809-1.395.346-3.206-1.053-4.013-.394-.227-.838-.343-1.272-.37zm-7.679 3.101c-2.023 0-3.914.478-5.611 1.32l2.033 3.67c1.094-.512 2.294-.813 3.578-.813 4.471 0 8.161 3.421 8.546 7.795l4.15-.052c-.207-3.223-1.618-6.123-3.783-8.252-1.114.418-2.38.354-3.491-.291-1.11-.642-1.813-1.715-2.005-2.895-1.083-.297-2.24-.482-3.417-.482zm-7.045 2.145c-2.563 1.711-4.45 4.336-5.243 7.402.928.754 1.486 1.882 1.486 3.173 0 1.283-.557 2.453-1.486 3.211.793 3.064 2.68 5.679 5.243 7.39l2.144-3.606c-2.199-1.546-3.63-4.102-3.63-6.995 0-2.896 1.431-5.449 3.63-6.995zm-7.859 7.656c-1.619 0-2.92 1.3-2.92 2.919 0 1.614 1.301 2.92 2.92 2.92 1.62 0 2.934-1.306 2.934-2.92 0-1.619-1.314-2.919-2.934-2.919zm23.45 3.695c-.385 4.367-4.075 7.795-8.546 7.795-1.286 0-2.484-.289-3.578-.8l-2.033 3.643c1.697.844 3.588 1.307 5.611 1.307 1.177 0 2.333-.157 3.417-.457.192-1.178.893-2.248 2.005-2.893 1.113-.642 2.377-.705 3.491-.281 2.165-2.132 3.575-5.026 3.783-8.252zm-1.283 9.229c-.423.036-.851.177-1.245.405-1.401.803-1.884 2.577-1.078 3.973.809 1.404 2.61 1.875 4.011 1.069 1.401-.808 1.862-2.589 1.053-3.988-.505-.876-1.386-1.393-2.323-1.459-.141-.012-.277-.012-.418 0z" fill="#fff" fill-opacity=".85" fill-rule="nonzero"/>
</svg>
