<svg clip-rule="evenodd" fill-rule="evenodd" stroke-linejoin="round" stroke-miterlimit="2" viewBox="0 0 48 48" xmlns="http://www.w3.org/2000/svg">
 <linearGradient id="a" x2="1" gradientTransform="matrix(0 -36.2165 36.2165 0 489.464 42.119)" gradientUnits="userSpaceOnUse">
  <stop stop-color="#566069" offset="0"/>
  <stop stop-color="#6c7884" offset="1"/>
 </linearGradient>
 <path d="m39.44 2.332c3.438 0 6.228 2.79 6.228 6.228v30.88c0 3.438-2.79 6.228-6.228 6.228h-30.88c-3.438 0-6.228-2.79-6.228-6.228v-30.88c0-3.438 2.79-6.228 6.228-6.228z" fill="url(#a)"/>
 <path d="m2.332 9.588v-1.028c0-3.438 2.79-6.228 6.228-6.228h30.88c3.438 0 6.228 2.79 6.228 6.228v1.028z" fill="#ebebeb" fill-opacity=".1"/>
 <g fill-opacity=".5">
  <path d="m33.317 7.335h-.105c-.099 0-.178-.081-.178-.18v-.302c-.426-.107-.548-.36-.548-.879 0-.766.622-1.389 1.388-1.389s1.388.623 1.388 1.389c0 .511-.129.763-.546.874v.306c0 .1-.081.18-.18.18h-.104c-.099 0-.18-.08-.18-.18v-.24c-.047.003-.095.005-.146.006v.235c0 .099-.08.179-.179.179h-.104c-.1 0-.18-.08-.18-.179v-.234c-.051-.001-.1-.003-.147-.006v.24c0 .099-.08.18-.179.18zm-.018-1.926c.235.092.426.185.426.414 0 .227-.154.271-.426.412-.209.109-.427-.185-.427-.412 0-.229.207-.499.427-.414zm1.145 0c.227-.064.426.185.426.414 0 .227-.224.533-.426.412-.248-.147-.426-.185-.426-.412 0-.229.166-.34.426-.414z" fill="#ededed"/>
  <path d="m40.535 5.039.418.442.661-.626.528.557-.66.626.418.442c.143.15.141.383-.003.518-.144.137-.376.126-.517-.024l-.42-.442-.662.628-.529-.557.664-.596-.419-.475c-.143-.15-.14-.382.003-.518.144-.136.376-.125.518.025z" fill="#fff"/>
  <path d="m37.201 4.892.004-.169.607.016-.006.169.328.009c.314.009.563.272.554.586l-.031 1.139c-.008.315-.27.564-.585.555l-1.26-.034c-.315-.008-.563-.271-.554-.585l.03-1.14c.008-.315.271-.563.586-.555zm-.182.496c.163.004.292.141.287.304-.003.163-.14.292-.303.288s-.293-.141-.288-.304c.004-.163.141-.292.304-.288zm1.009.027c.163.005.293.14.288.304-.004.164-.14.293-.304.288-.163-.004-.292-.14-.288-.304.005-.163.141-.292.304-.288z" fill="#fff"/>
 </g>
 <path d="m24.426 33.619c.47 0 .871.167 1.204.5.333.332.499.733.499 1.204 0 .47-.166.871-.499 1.204-.333.332-.734.499-1.204.499s-.872-.167-1.204-.499c-.333-.333-.499-.734-.499-1.204 0-.471.166-.872.499-1.204.332-.333.734-.5 1.204-.5zm-5.96-2.767c-.533 0-.985.186-1.358.559-.372.373-.558.825-.558 1.357 0 .533.186.985.558 1.358.373.372.825.558 1.358.558.523 0 .973-.186 1.35-.558.377-.373.565-.825.565-1.358 0-.532-.188-.984-.565-1.357-.377-.372-.827-.559-1.35-.559zm11.92.426c-.408 0-.758.146-1.051.439s-.439.643-.439 1.051.146.759.439 1.051c.293.293.643.439 1.051.439s.759-.146 1.051-.439c.293-.292.439-.643.439-1.051s-.146-.758-.439-1.051c-.292-.293-.643-.439-1.051-.439zm-12.346-4.47c0-.586-.209-1.087-.625-1.504-.417-.417-.919-.625-1.504-.625s-1.087.208-1.503.625c-.417.417-.626.918-.626 1.504 0 .585.209 1.086.626 1.503.416.417.918.625 1.503.625s1.087-.208 1.504-.625c.416-.417.625-.918.625-1.503zm15.805-.905c-.248-.249-.549-.373-.904-.373s-.657.124-.905.373c-.248.248-.372.55-.372.905s.124.656.372.904c.248.249.55.373.905.373s.656-.124.904-.373c.249-.248.373-.549.373-.904s-.124-.657-.373-.905zm-15.379-7.397c-.648 0-1.2.228-1.657.685s-.685 1.009-.685 1.656c0 .648.228 1.2.685 1.657s1.009.685 1.657.685c.647 0 1.199-.228 1.656-.685s.685-1.009.685-1.657c0-.647-.228-1.199-.685-1.656s-1.009-.685-1.656-.685zm11.92 3.406c.293 0 .544-.104.752-.313.208-.208.313-.459.313-.752 0-.292-.105-.543-.313-.751-.208-.209-.459-.313-.752-.313s-.543.104-.752.313c-.208.208-.312.459-.312.751 0 .293.104.544.312.752.209.209.459.313.752.313zm-5.96-6.174c-.71 0-1.313.249-1.81.745-.496.497-.745 1.1-.745 1.81 0 .709.248 1.312.745 1.809s1.1.745 1.81.745 1.313-.248 1.809-.745c.497-.496.745-1.1.745-1.809 0-.71-.248-1.313-.745-1.81-.496-.496-1.099-.745-1.809-.745z" fill="#e9ebed" fill-rule="nonzero"/>
</svg>
