<svg clip-rule="evenodd" fill-rule="evenodd" stroke-linejoin="round" stroke-miterlimit="2" viewBox="0 0 48 48" xmlns="http://www.w3.org/2000/svg">
 <linearGradient id="a" x2="1" gradientTransform="matrix(0 -33.6872 33.6872 0 1080.4 40.4502)" gradientUnits="userSpaceOnUse">
  <stop stop-color="#171717" offset="0"/>
  <stop stop-color="#484848" offset="1"/>
 </linearGradient>
 <linearGradient id="b" x2="1" gradientTransform="matrix(15.9484 14.961 -12.2794 13.0899 21.6444 11.3705)" gradientUnits="userSpaceOnUse">
  <stop stop-color="#6644fd" offset="0"/>
  <stop stop-color="#8568fe" offset=".41"/>
  <stop stop-color="#8dbdff" offset="1"/>
 </linearGradient>
 <linearGradient id="c" x2="1" gradientTransform="matrix(-14.6893 20.7607 -18.5416 -13.1192 25.7833 15.0475)" gradientUnits="userSpaceOnUse">
  <stop stop-color="#4e00ff" offset="0"/>
  <stop stop-color="#1f79fd" offset="1"/>
 </linearGradient>
 <path d="m39.44 45.668h-30.88c-3.438 0-6.228-2.79-6.228-6.228v-30.88c0-3.438 2.79-6.228 6.228-6.228h30.88c3.438 0 6.228 2.79 6.228 6.228v30.88c0 3.438-2.79 6.228-6.228 6.228z" fill="url(#a)"/>
 <path d="m39.388 14.981c0-.957-.381-1.876-1.058-2.553-.677-.678-1.596-1.058-2.554-1.058h-23.551c-.958 0-1.877.38-2.554 1.058-.677.677-1.058 1.596-1.058 2.553v18.037c0 .957.381 1.877 1.058 2.554s1.596 1.058 2.554 1.058h23.551c.958 0 1.877-.381 2.554-1.058s1.058-1.596 1.058-2.554z" fill="url(#b)"/>
 <path d="m8.613 15.047v17.97c0 .958.381 1.877 1.058 2.554s1.596 1.058 2.554 1.058h20.553v-17.97c0-.958-.381-1.877-1.058-2.554s-1.596-1.058-2.554-1.058z" fill="url(#c)"/>
 <path d="m29.034 26.331s-4.367 5.341-5.693 6.954c-.477.58-.767 1.134-.767 2.054 0 .71.016 1.29.016 1.29h10.188v-10.282z" fill="#bfd8ff"/>
 <path d="m31.048 36.63c-1.534 0-2.779-1.246-2.779-2.78v-5.604c0-1.535 1.245-2.78 2.779-2.78h5.56c1.534 0 2.78 1.245 2.78 2.78v4.772c0 .958-.381 1.877-1.058 2.554s-1.596 1.058-2.554 1.058z" fill="#fff"/>
 <path d="m32.013 31.392c-.034 0-.051-.017-.051-.052v-.771c0-.034.017-.051.051-.051h.302c.278 0 .498-.078.659-.233.158-.149.237-.346.237-.59 0-.23-.082-.426-.246-.59-.163-.164-.363-.246-.598-.246-.173 0-.338.059-.496.177-.158.115-.258.289-.301.521-.003.012-.009.022-.02.03-.01.01-.019.014-.028.014h-.882c-.015 0-.027-.006-.037-.017-.01-.012-.014-.024-.011-.039.029-.439.216-.828.56-1.168.339-.332.732-.5 1.18-.5.279 0 .531.048.756.143s.424.235.597.418c.163.181.289.377.376.588.088.211.132.429.132.653 0 .244-.048.482-.142.715-.046.103-.109.201-.19.292-.08.092-.175.179-.284.258.23.165.4.36.512.59.115.247.173.499.173.755 0 .583-.186 1.052-.556 1.408-.365.347-.817.521-1.357.521-.215 0-.418-.034-.609-.103-.191-.07-.374-.172-.549-.31-.172-.141-.311-.311-.416-.509-.105-.199-.177-.43-.217-.698-.006-.038.011-.056.051-.056h.879c.02 0 .036.012.047.034.038.101.082.191.132.272.05.08.11.15.178.208.069.059.149.105.24.136.09.032.195.049.316.049.227 0 .431-.083.612-.247.178-.158.267-.383.267-.676s-.089-.518-.267-.676c-.181-.167-.391-.25-.629-.25zm4.152 2.786c-.034 0-.051-.017-.051-.051v-5.117l-.793.586c-.02.014-.039.016-.056.006s-.026-.026-.026-.049v-.935c0-.005.002-.013.007-.021.004-.009.009-.016.015-.022l.887-.642h.9c.034 0 .052.018.052.052v6.142c0 .034-.018.051-.052.051z" fill="#4114ff" fill-rule="nonzero"/>
</svg>
