<svg clip-rule="evenodd" fill-rule="evenodd" stroke-linejoin="round" stroke-miterlimit="2" viewBox="0 0 48 48" xmlns="http://www.w3.org/2000/svg" xmlns:xlink="http://www.w3.org/1999/xlink"><linearGradient id="a" gradientTransform="matrix(0 -33.6872 33.6872 0 1158.96 40.4502)" gradientUnits="userSpaceOnUse" x1="0" x2="1" y1="0" y2="0"><stop offset="0" stop-color="#1f1f1f"/><stop offset="1" stop-color="#383838"/></linearGradient><linearGradient id="b" gradientTransform="matrix(-2.41646 22.5536 -22.5536 -2.41646 -773.935 -70.4756)" gradientUnits="userSpaceOnUse" x1="0" x2="1" y1="0" y2="0"><stop offset="0" stop-color="#8d59ff"/><stop offset="1" stop-color="#a48eff"/></linearGradient><linearGradient id="c" gradientTransform="matrix(5.7995 15.7084 -15.7084 5.7995 -529.562 221.123)" gradientUnits="userSpaceOnUse" x1="0" x2="1" y1="0" y2="0"><stop offset="0" stop-color="#3e10ff"/><stop offset="1" stop-color="#6946ff"/></linearGradient><path d="m39.44 45.668h-30.88c-3.438 0-6.228-2.79-6.228-6.228v-30.88c0-3.438 2.79-6.228 6.228-6.228h30.88c3.438 0 6.228 2.79 6.228 6.228v30.88c0 3.438-2.79 6.228-6.228 6.228z" fill="url(#a)"/><path d="m39.561 11.989s-9.513 7.343-13.663 10.546c-1.113.859-2.669.841-3.761-.043-3.985-3.226-12.974-10.503-12.974-10.503v21.311c0 1.828 1.482 3.309 3.31 3.309h23.779c1.828 0 3.309-1.481 3.309-3.309z" fill="url(#b)"/><path d="m32.73 17.262s-7.933 6.212-11.039 8.61c-.833.642-1.998.629-2.816-.033-2.983-2.415-9.712-7.862-9.712-7.862v15.323c0 1.828 1.482 3.309 3.31 3.309h20.366z" fill="url(#c)"/><circle cx="36.849" cy="36.983" fill="#fff" r="10.047"/><path d="m40.101 41.483h2.748l-4 4-4-4h2.748v-7h2.504zm-6.496-9h-2.756l4-4 4 4h-2.756v7h-2.488z" fill="#3e10ff"/></svg>