<svg clip-rule="evenodd" fill-rule="evenodd" stroke-linejoin="round" stroke-miterlimit="2" viewBox="0 0 48 48" xmlns="http://www.w3.org/2000/svg">
 <g fill-rule="nonzero">
  <path d="m18.546 31.711c-4.877-4.877-4.877-12.783 0-17.66 4.876-4.876 22.415-14.509 27.292-9.632 4.876 4.876-4.756 22.415-9.633 27.292-4.876 4.876-12.783 4.876-17.659 0z" fill="#25509a"/>
  <path d="m32.994 28.5c-3.141 3.141-8.096 3.141-11.237 0-3.142-3.141-3.142-8.097 0-11.238 1.57-1.57 7.135-5.324 12.228-7.513 2.547-1.094 5.047-1.85 6.767-2.06 1.062-.129 1.587-.027 1.803.013.04.216.142.741.012 1.803-.209 1.72-.965 4.22-2.06 6.766-2.188 5.093-5.942 10.658-7.513 12.229z" fill="#fff"/>
  <path d="m18.302 14.061c-4.877 4.877-4.877 12.783 0 17.66 4.876 4.876 22.415 14.509 27.292 9.632 4.876-4.876-4.756-22.415-9.633-27.292-4.876-4.876-12.783-4.876-17.659 0z" fill="#9e51c3"/>
  <path d="m32.751 17.272c-3.142-3.141-8.097-3.141-11.238 0-3.142 3.141-3.142 8.097 0 11.238 1.57 1.571 7.135 5.324 12.228 7.513 2.547 1.094 5.047 1.85 6.767 2.06 1.062.129 1.587.028 1.803-.013.04-.216.142-.741.012-1.803-.209-1.72-.965-4.22-2.06-6.766-2.188-5.093-5.942-10.658-7.512-12.229z" fill="#fff"/>
  <path d="m39.863 23.015c0 6.897-5.591 12.488-12.487 12.488-6.897 0-26.11-5.591-26.11-12.488 0-6.896 19.213-12.487 26.11-12.487 6.896 0 12.487 5.591 12.487 12.487z" fill="#d97f33"/>
  <path d="m27.376 15.069c4.442 0 7.946 3.504 7.946 7.946 0 4.443-3.504 7.947-7.946 7.947-2.222 0-8.811-1.281-13.96-3.335-2.574-1.027-4.877-2.26-6.241-3.328-.843-.659-1.142-1.102-1.266-1.284.124-.181.423-.624 1.266-1.283 1.364-1.068 3.667-2.301 6.241-3.328 5.149-2.054 11.738-3.335 13.96-3.335z" fill="#fff"/>
 </g>
</svg>
