<svg clip-rule="evenodd" fill-rule="evenodd" stroke-linejoin="round" stroke-miterlimit="2" viewBox="0 0 48 48" xmlns="http://www.w3.org/2000/svg">
 <linearGradient id="a" x2="1" gradientTransform="matrix(0 -39.1861 39.1861 0 22.3027 43.8313)" gradientUnits="userSpaceOnUse">
  <stop stop-color="#033ba2" offset="0"/>
  <stop stop-color="#3669e9" offset="1"/>
 </linearGradient>
 <path d="m26.2 33.565c3.477-1.256 5.975-4.346 6.638-6.455.023-.073.049-.145.077-.216 1.417-3.534 1.085-7.327 1.085-11.894h6c0 5.389.167 9.85-1.476 14.023-1.327 4.021-6.724 10.165-13.938 10.998l-.994 3.979h-6.184l1.131-4.525c-4.115-1.088-6.292-2.917-7.407-5.133-.787-1.563-1.076-3.414-.916-5.602.184-2.501.983-5.565 1.934-9.246.037-.143.089-.316.148-.502-1.31.075-2.35.71-3.32 1.044l-1.956-5.672c2.447-.844 5.216-2.174 9.218-.719 1.707.62 2.412 1.783 2.597 3.202.075.571.032 1.231-.143 1.932-.175.703-.553 1.513-.735 2.216-.822 3.182-1.557 5.836-1.746 8.024-.113 1.31-.101 2.384.667 3.163.663.672 1.685 1.121 3.112 1.483l7.416-29.665h6.184z" fill="url(#a)"/>
</svg>
