<svg clip-rule="evenodd" fill-rule="evenodd" stroke-linejoin="round" stroke-miterlimit="2" viewBox="0 0 48 48" xmlns="http://www.w3.org/2000/svg">
 <linearGradient id="a" x2="1" gradientTransform="matrix(0 -40 40 0 24 44)" gradientUnits="userSpaceOnUse">
  <stop stop-color="#1753c0" offset="0"/>
  <stop stop-color="#448aff" offset="1"/>
 </linearGradient>
 <g transform="matrix(1.1382 0 0 1.1382 -3.3168 -3.3168)">
  <circle cx="24" cy="24" r="20" fill="url(#a)"/>
  <path d="m11.043 25c.498 6.385 5.572 11.457 11.957 11.951v-9.084c-1.406-.364-2.504-1.461-2.869-2.867zm13.336 3.621 7 7 4.242-4.242-7-7zm-1.379-17.578c-6.385.498-11.457 5.572-11.951 11.957h9.084c.364-1.406 1.461-2.504 2.867-2.869zm2 .006v9.084c1.406.364 2.504 1.461 2.869 2.867h9.088c-.498-6.385-5.572-11.457-11.957-11.951z" fill="#fff" fill-rule="nonzero"/>
 </g>
</svg>
