<svg clip-rule="evenodd" fill-rule="evenodd" stroke-linejoin="round" stroke-miterlimit="2" viewBox="0 0 48 48" xmlns="http://www.w3.org/2000/svg">
 <linearGradient id="a" x2="1" gradientTransform="matrix(0 -39.6933 39.6933 0 24 43.9356)" gradientUnits="userSpaceOnUse">
  <stop stop-color="#2f2f2f" offset="0"/>
  <stop stop-color="#4f4f4f" offset="1"/>
 </linearGradient>
 <g transform="matrix(1.05028 0 0 1.05028 -1.20677 -1.20677)" fill-rule="nonzero">
  <path d="m29.963 44h-11.778c-1.927 0-3.784-.732-5.193-2.047l-6.725-6.276c-1.398-1.305-2.193-3.134-2.193-5.047v-12.519c0-1.92.764-3.763 2.121-5.121l6.869-6.869c1.358-1.357 3.201-2.121 5.121-2.121h11.778c1.92 0 3.763.764 5.121 2.121l6.869 6.869c1.358 1.358 2.121 3.201 2.121 5.121v12.519c0 1.913-.795 3.742-2.193 5.047l-6.725 6.276c-1.409 1.315-3.266 2.047-5.193 2.047z" fill="url(#a)"/>
  <path d="m32.868 36.152-7.736-18.405c-.439-1.045-1.428-1.747-2.567-1.747h-19.692c-.856.007-1.198 1.104-.494 1.591l29.544 19.294c.506.35 1.163-.16.945-.733z" fill="#00c5e3"/>
  <path d="m32.18 20h8.393c1.727 0 3.626 1.255 4.259 2.813l.963 2.374c.633 1.558-.248 2.813-1.975 2.813h-8.393c-1.727 0-3.626-1.255-4.259-2.813l-.963-2.374c-.633-1.558.248-2.813 1.975-2.813z" fill="#00c56b"/>
 </g>
</svg>
