<svg clip-rule="evenodd" fill-rule="evenodd" stroke-linejoin="round" stroke-miterlimit="2" viewBox="0 0 48 48" xmlns="http://www.w3.org/2000/svg">
 <g fill-rule="nonzero">
  <path d="m9.1 7.277c-.399 0-.782.166-1.057.458l-5.589 5.914c-.259.275-.404.64-.404 1.02l43.496 19.682c.259-.275.404-.641.404-1.021v-22.603c0-1.479-.949-2.625-1.786-3.048-.836-.423-1.629-.402-1.629-.402z" fill="#4cdb5d"/>
  <path d="m2.115 14.257c-.039.133-.065.271-.065.413v22.603c0 1.478.949 2.626 1.785 3.049.837.423 1.629.401 1.629.401h33.435c.4 0 .783-.167 1.059-.459l5.588-5.914c.146-.154.25-.338.318-.536l-43.749-19.557z" fill="#31ae3e"/>
  <path d="m21.724 14.593-5.041 18.814h3.153l1.119-4.181h6.09l1.119 4.181h3.153l-5.041-18.814zm2.276 3.266 2.205 8.231h-4.41z" fill="#ffffff"/>
 </g>
</svg>
