<svg clip-rule="evenodd" fill-rule="evenodd" stroke-linejoin="round" stroke-miterlimit="2" viewBox="0 0 48 48" xmlns="http://www.w3.org/2000/svg">
 <path d="m10.729 2.332h28.711c3.438 0 6.228 2.79 6.228 6.228v27.53c0 .492-.143.965-.399 1.321l-6.824 1.486c-.272.378-1.669 1.353-2.063 1.354l-26.827-1.354s-3.55 3.002-4.376 2.454c-.826-.547 1.921-13.069 1.4-14.858l-4.247-14.583c0-.492.143-.965.399-1.321l6.954-7.663c.272-.379.649-.593 1.044-.594z" fill="#4cdb5d"/>
 <path d="m36.696 45.668h-28.136c-3.438 0-6.228-2.79-6.228-6.228v-27.529c0-.183.026-.362.063-.535l43.188 25.34c-.067.256-.169.494-.313.694l-7.53 7.663c-.272.378-.65.594-1.044.595z" fill="#31ae3e"/>
 <path transform="matrix(1.22382 0 0 1.22382 -5.37159 -5.37159)" d="m17 15v18h7.5c3.601 0 6.5-2.899 6.5-6.5v-5c0-3.601-2.899-6.5-6.5-6.5zm3 3h4.5c1.991 0 3.5 1.509 3.5 3.5v5c0 1.991-1.509 3.5-3.5 3.5h-4.5z" fill="#fff" fill-rule="nonzero"/>
</svg>
