<svg clip-rule="evenodd" fill-rule="evenodd" stroke-linejoin="round" stroke-miterlimit="2" viewBox="0 0 48 48" xmlns="http://www.w3.org/2000/svg">
 <linearGradient id="a" x2="1" gradientTransform="matrix(0 -39.9878 39.9878 0 24.4985 43.9939)" gradientUnits="userSpaceOnUse">
  <stop stop-color="#54545b" offset="0"/>
  <stop stop-color="#787784" offset="1"/>
 </linearGradient>
 <g transform="matrix(1.1382 0 0 1.1382 -3.3168 -3.3168)">
  <circle cx="24" cy="24" r="20" fill="url(#a)"/>
  <g fill-rule="nonzero">
   <path d="m24 10c-7.732 0-14 6.268-14 14s6.268 14 14 14c3.549-.006 6.964-1.361 9.553-3.789l4.252 4.25c1.983-1.89 3.556-4.167 4.623-6.69l-4.77-4.771c.222-.985.337-1.991.342-3 0-7.732-6.268-14-14-14zm0 7c3.866 0 7 3.134 7 7s-3.134 6.5-7 6.5-7-2.634-7-6.5 3.134-7 7-7z" fill="#fff"/>
   <path d="m37.066 8.873-13.095 13.676-4.133-4.229-5.721 5.594 5.694 5.82c1.169.877 2.616 1.403 4.189 1.403 1.536 0 2.951-.503 4.105-1.342l13.885-14.498c-1.186-2.455-2.862-4.641-4.924-6.424z" fill="#94c000"/>
  </g>
 </g>
</svg>
