<svg clip-rule="evenodd" fill-rule="evenodd" stroke-linejoin="round" stroke-miterlimit="2" viewBox="0 0 48 48" xmlns="http://www.w3.org/2000/svg">
 <linearGradient id="a" x2="1" gradientTransform="matrix(0 -33.6872 33.6872 0 923.28 40.4502)" gradientUnits="userSpaceOnUse">
  <stop stop-color="#181818" offset="0"/>
  <stop stop-color="#383838" offset="1"/>
 </linearGradient>
 <path d="m39.44 45.668h-30.88c-3.438 0-6.228-2.79-6.228-6.228v-30.88c0-3.438 2.79-6.228 6.228-6.228h30.88c3.438 0 6.228 2.79 6.228 6.228v30.88c0 3.438-2.79 6.228-6.228 6.228z" fill="url(#a)"/>
 <path d="m27.063 16.607s5.239-2.13 7.385-.917c0 0 3.659 1.918 3.667 4.925.011 3.523.027 13.063 0 15.942-.008.937-1.593 1.779-2.408 1.447-.833-.339-2.874-1.29-2.874-1.29s-1.403.712-2.183 1.136c-1.224.666-4.561 1.003-6.057.252-1.249-.627-3.837-2.008-3.837-2.008l-.039-4.782s1.119-.684 1.67-1.101c1.815-1.374 4.483-4.83 4.553-7.226.058-1.953.123-6.378.123-6.378z" fill="#2adb5c"/>
 <path d="m20.717 31.312s.037 4.482.04 4.782l-5.714-2.986s-1.523-.803-2.3-1.201c-1.167-.596-2.846-2.875-2.858-4.729-.014-2.103-.032-4.877 0-7.564.032-2.797 2.996-6.776 5.403-8.324 1.146-.737 2.17-1.171 3.348-1.499 1.277-.355 3.038-.753 4.315-.091 2.623 1.36 8.406 4.192 11.873 6.179-1.671-.006-5.725.015-7.761.728-2.572.9-6.121 4.571-6.185 8.748-.031 1.986-.161 5.957-.161 5.957z" fill="#fff"/>
</svg>
