<svg clip-rule="evenodd" fill-rule="evenodd" stroke-linejoin="round" stroke-miterlimit="2" viewBox="0 0 48 48" xmlns="http://www.w3.org/2000/svg">
 <linearGradient id="a" x2="1" gradientTransform="matrix(0 -33.6872 33.6872 0 923.28 40.4502)" gradientUnits="userSpaceOnUse">
  <stop stop-color="#a11700" offset="0"/>
  <stop stop-color="#ec5448" offset="1"/>
 </linearGradient>
 <path d="m39.44 45.668h-30.88c-3.438 0-6.228-2.79-6.228-6.228v-30.88c0-3.438 2.79-6.228 6.228-6.228h30.88c3.438 0 6.228 2.79 6.228 6.228v30.88c0 3.438-2.79 6.228-6.228 6.228z" fill="url(#a)"/>
 <path d="m12 12 7 7h10v.031h.031l-.031 9.906 7 7v-23.937zm7 7.844-7 6.875v9.281h9.812l6.938-7h-9.75z" fill="#fff" fill-rule="nonzero"/>
 <circle cx="39.215852" cy="39.215852" r="8.078202" fill="#103975" stroke-width=".734382"/>
 <path transform="matrix(.988604 0 0 .988604 3.63985 3.62627)" d="m34.447 29.999-.132 1.58c-.501.186-.967.455-1.378.797l-1.436-.676-1.5 2.598 1.304.906c-.047.262-.071.528-.072.795 0 .268.023.535.068.799l-1.301.903 1.5 2.598 1.433-.675c.412.34.879.608 1.381.792l.131 1.584h3l.133-1.58c.501-.186.967-.456 1.377-.797l1.437.676 1.5-2.598-1.304-.906c.046-.262.07-.528.072-.795 0-.268-.023-.535-.069-.799l1.301-.902-1.5-2.598-1.433.675c-.412-.34-.879-.607-1.381-.79l-.132-1.584h-3zm1.5 3.333c1.463 0 2.667 1.204 2.667 2.667s-1.204 2.666-2.667 2.667c-1.463-.001-2.667-1.204-2.667-2.667s1.204-2.667 2.667-2.667z" fill="#fff" fill-rule="nonzero"/>
</svg>
