<svg clip-rule="evenodd" fill-rule="evenodd" stroke-linejoin="round" stroke-miterlimit="2" viewBox="0 0 48 48" xmlns="http://www.w3.org/2000/svg">
 <linearGradient id="a" x2="1" gradientTransform="matrix(0 -33.6872 33.6872 0 923.28 40.4502)" gradientUnits="userSpaceOnUse">
  <stop stop-color="#005283" offset="0"/>
  <stop stop-color="#1385e3" offset="1"/>
 </linearGradient>
 <path d="m39.44 45.668h-30.88c-3.438 0-6.228-2.79-6.228-6.228v-30.88c0-3.438 2.79-6.228 6.228-6.228h30.88c3.438 0 6.228 2.79 6.228 6.228v30.88c0 3.438-2.79 6.228-6.228 6.228z" fill="url(#a)"/>
 <path transform="matrix(1.0834 0 0 1.0834 -2.0016 -2.0016)" d="m8 15v3.113c0 2.154 1.733 3.887 3.887 3.887h2.113v-3h-2.113c-.544 0-.887-.343-.887-.887v-3.113zm11.887 0c-2.154 0-3.887 1.733-3.887 3.887v9.113h16v-9.113c0-2.154-1.733-3.887-3.887-3.887zm17.113 0v3.113c0 .544-.343.887-.887.887h-2.113v3h2.113c2.154 0 3.887-1.733 3.887-3.887v-3.113zm-17.113 3h8.226c.544 0 .887.343.887.887v6.113h-10v-6.113c0-.544.343-.887.887-.887zm-7.887 12v3h24v-3z" fill="#fff" fill-rule="nonzero"/>
</svg>
