<svg width="48" height="48" xmlns="http://www.w3.org/2000/svg">
 <path d="m24.000923 21c-1.32659-.000241-2.653246.295376-3.634948.884395l-14.8943336 8.935084c-1.963406 1.178036-1.961583 3.183874.0018 4.361912l14.8925046 8.935083c1.963405 1.178035 5.306495 1.178034 7.269897 0l14.89254-8.935083c1.963401-1.178034 1.961553-3.18388-.0019-4.361912l-14.890613-8.935084c-.981702-.589019-2.308357-.884154-3.634947-.884395z" opacity=".2"/>
 <path d="m24.000923 20c-1.32659-.000241-2.653246.295376-3.634948.884395l-14.8943336 8.935084c-1.963406 1.178036-1.961583 3.183874.0018 4.361912l14.8925046 8.935083c1.963405 1.178035 5.306495 1.178034 7.269897 0l14.89254-8.935083c1.963401-1.178034 1.961553-3.18388-.0019-4.361912l-14.890613-8.935084c-.981702-.589019-2.308357-.884154-3.634947-.884395z" fill="#af2d2c"/>
 <path d="m24.000924 13c-1.32659-.000241-2.653246.295376-3.634948.884395l-14.8943342 8.935084c-1.963406 1.178036-1.961583 3.183874.0018 4.361912l14.8925052 8.935083c1.963405 1.178035 5.306495 1.178034 7.269897 0l14.89254-8.935083c1.963401-1.178034 1.961553-3.18388-.0019-4.361912l-14.890613-8.935084c-.981702-.589019-2.308357-.884154-3.634947-.884395z" opacity=".2"/>
 <path d="m24.000924 12c-1.32659-.000241-2.653246.295376-3.634948.884395l-14.8943342 8.935084c-1.963406 1.178036-1.961583 3.183874.0018 4.361912l14.8925052 8.935083c1.963405 1.178035 5.306495 1.178034 7.269897 0l14.89254-8.935083c1.963401-1.178034 1.961553-3.18388-.0019-4.361912l-14.890613-8.935084c-.981702-.589019-2.308357-.884154-3.634947-.884395z" fill="#da3837"/>
 <path d="m24.000923 5.0000002c-1.32659-.000241-2.653246.295376-3.634948.884395l-14.8943336 8.9350838c-1.963406 1.178036-1.961583 3.183874.0018 4.361912l14.8925046 8.935083c1.963405 1.178035 5.306495 1.178034 7.269897 0l14.89254-8.935083c1.963401-1.178034 1.961553-3.18388-.0019-4.361912l-14.890613-8.9350838c-.981702-.589019-2.308357-.884154-3.634947-.884395z" opacity=".2"/>
 <path d="m24.000923 4.0000001c-1.32659-.000241-2.653246.295376-3.634948.884395l-14.8943336 8.9350839c-1.963406 1.178036-1.961583 3.183874.0018 4.361912l14.8925046 8.935083c1.963405 1.178035 5.306495 1.178034 7.269897 0l14.89254-8.935083c1.963401-1.178034 1.961553-3.18388-.0019-4.361912l-14.890613-8.9350839c-.981702-.589019-2.308357-.884154-3.634947-.884395z" fill="#e0504d"/>
 <path d="m24 4c-1.32659-.000241-2.653064.2957466-3.634766.8847656l-14.8945309 8.9355464c-1.1884286.713053-1.6433579 1.727214-1.3925781 2.679688.1628512-.62111.6176008-1.214704 1.3925781-1.679688l14.8945309-8.9355464c.981702-.589019 2.308176-.8850066 3.634766-.8847656s2.655017.2957466 3.636719.8847656l14.890625 8.9355464c.774996.464982 1.230982 1.058577 1.394531 1.679688.249718-.952475-.206074-1.966637-1.394531-2.679688l-14.890625-8.9355464c-.981702-.589019-2.310129-.8845246-3.636719-.8847656z" fill="#fff" opacity=".2"/>
 <path transform="matrix(.02952012 0 0 .04335832 2.101414 -.310012)" d="m647 191.66 99.72 39 94.02-30.78-25.41 60.97 95.87 35.9-123.63 12.83-27.68 66.59-44.7-74.31-142.75-12.83 106.52-38.41z" opacity=".2"/>
 <path transform="matrix(.02952012 0 0 .04335832 2.101414 -1.310013)" d="m678.96 250.62-31.96-58.96 99.72 39 94.02-30.78-25.41 60.97 95.87 35.9-123.63 12.83-27.68 66.59-44.7-74.31-142.75-12.83z" fill="#fff"/>
 <path transform="matrix(.02722224 0 0 .04097437 3.795816 .603758)" d="m752.51 619.81-230.72-95.7 330.61-50.73z" opacity=".2"/>
 <path transform="matrix(.02722224 0 0 .04097437 3.795816 -.396243)" d="m852.4 473.38-99.89 146.43-230.72-95.7z" fill="#fff"/>
 <ellipse cx="15" cy="17" rx="5" ry="3" opacity=".2"/>
 <ellipse cx="15" cy="16" rx="5" ry="3" fill="#fff"/>
 <g transform="matrix(.029116884 0 0 .0429788 2.5177957 -1.5360448)">
  <path d="m1046.891 477.818-206.066-77.243 206.066-85.628z" opacity=".25"/>
  <path d="m1252.957 392.274-206.066 85.544v-162.871z" opacity=".4"/>
 </g>
</svg>
