<svg clip-rule="evenodd" fill-rule="evenodd" stroke-linejoin="round" stroke-miterlimit="2" viewBox="0 0 48 48" xmlns="http://www.w3.org/2000/svg">
 <g fill-rule="nonzero">
  <path d="m24.001 19.655c-1.441 0-2.882.321-3.948.961l-16.178 9.705c-2.132 1.279-2.13 3.458.002 4.738l16.176 9.704c2.132 1.28 5.764 1.28 7.896 0l16.176-9.704c2.132-1.28 2.13-3.459-.002-4.738l-16.174-9.705c-1.066-.64-2.507-.96-3.948-.961z" fill="#af2d2c"/>
  <path d="m24.001 10.966c-1.441 0-2.882.321-3.948.961l-16.178 9.705c-2.132 1.279-2.13 3.458.002 4.737l16.176 9.705c2.132 1.28 5.764 1.28 7.896 0l16.176-9.705c2.132-1.279 2.13-3.458-.002-4.737l-16.174-9.705c-1.066-.64-2.507-.961-3.948-.961z" fill="#da3837"/>
  <path d="m24.001 2.277c-1.441 0-2.882.321-3.948.961l-16.178 9.704c-2.132 1.28-2.13 3.459.002 4.738l16.176 9.705c2.132 1.279 5.764 1.279 7.896 0l16.176-9.705c2.132-1.279 2.13-3.458-.002-4.738l-16.174-9.704c-1.066-.64-2.507-.961-3.948-.961z" fill="#e0504d"/>
  <path d="m21.985 8.312-1.025-2.777 3.197 1.837 3.015-1.449-.815 2.871 3.074 1.691-3.964.604-.888 3.136-1.433-3.5-4.577-.604z" fill="#ffffff"/>
  <path d="m27.259 18.569-2.954 6.517-6.822-4.259z" fill="#ffffff"/>
 </g>
 <ellipse cx="14.225" cy="15.311" rx="5.431" ry="3.258" fill="#ffffff"/>
 <path d="m33.775 18.569-6.517-3.606 6.517-3.997z" fill-opacity=".25" fill-rule="nonzero"/>
 <path d="m40.292 14.576-6.517 3.993v-7.603z" fill-opacity=".4" fill-rule="nonzero"/>
</svg>
