<svg clip-rule="evenodd" fill-rule="evenodd" stroke-linecap="round" viewBox="0 0 48 48" xmlns="http://www.w3.org/2000/svg">
 <linearGradient id="a" x2="1" gradientTransform="matrix(0 -44.5978 44.5978 0 24 46.2989)" gradientUnits="userSpaceOnUse">
  <stop stop-color="#bec7c9" offset="0"/>
  <stop stop-color="#ffffff" offset="1"/>
 </linearGradient>
 <path d="m20.501 44.85-17.351-17.351c-1.932-1.931-1.932-5.067 0-6.998l17.351-17.351c1.931-1.932 5.067-1.932 6.998 0l17.351 17.351c1.932 1.931 1.932 5.067 0 6.998l-17.351 17.351c-1.931 1.932-5.067 1.932-6.998 0z" fill="url(#a)"/>
 <path d="m20.839 10.301v34.858l.93.61c.413.19.758.305 1.177.417v-35.885z" fill="#9a9996" fill-rule="nonzero"/>
 <path d="m21.632 33.484h3.946c2.18 0 3.691-1.78 3.691-3.96v-14.205" fill="none" stroke="#9a9996" stroke-width="1.58"/>
 <g fill-rule="nonzero">
  <path d="m24 33.484c0 1.164-.944 2.108-2.108 2.108-1.163 0-2.107-.944-2.107-2.108 0-1.163.944-2.107 2.107-2.107 1.164 0 2.108.944 2.108 2.107z" fill="#c947d8"/>
  <path d="m25.054 10.301c0 1.746-1.416 3.161-3.162 3.161-1.745 0-3.161-1.415-3.161-3.161s1.416-3.162 3.161-3.162c1.746 0 3.162 1.416 3.162 3.162z" fill="#ed333b"/>
  <path d="m31.377 15.57c0 1.163-.945 2.107-2.108 2.107-1.164 0-2.108-.944-2.108-2.107 0-1.164.944-2.108 2.108-2.108 1.163 0 2.108.944 2.108 2.108z" fill="#1eb453"/>
  <path d="m24 21.892c0 1.164-.944 2.108-2.108 2.108-1.163 0-2.107-.944-2.107-2.108 0-1.163.944-2.107 2.107-2.107 1.164 0 2.108.944 2.108 2.107z" fill="#387eff"/>
  <path d="m40.606 10.836 1.124-1.123c.621-.621 1.628-.621 2.249 0l1.685 1.685c.621.621.621 1.628 0 2.248l-1.124 1.124c-.62.621-1.627.621-2.248 0l-1.686-1.685c-.62-.621-.62-1.628 0-2.249z" fill="#ed333b"/>
  <path d="m26.404 30.939-1.966-1.966.437-2.404 3.933 3.932z" fill="#ffd888"/>
  <path d="m24 31.377.438-2.404 1.966 1.966z" fill="#424048"/>
  <path d="m39.483 11.96-14.607 14.607 1.011 1.011.112.114 1.687 1.685 1.121 1.125 14.609-14.609-1.132-1.115-1.686-1.684.002-.002z" fill="#5b5962"/>
  <path d="m39.483 11.96 1.123-1.124 3.934 3.934-1.125 1.124z" fill="#c5c4c2"/>
 </g>
</svg>
