<svg clip-rule="evenodd" fill-rule="evenodd" stroke-linejoin="round" stroke-miterlimit="2" viewBox="0 0 48 48" xmlns="http://www.w3.org/2000/svg">
 <linearGradient id="a" x2="1" gradientTransform="matrix(0 -43.336 43.336 0 24 45.668)" gradientUnits="userSpaceOnUse">
  <stop stop-color="#582d09" offset="0"/>
  <stop stop-color="#865e3c" offset="1"/>
 </linearGradient>
 <linearGradient id="b" x1="946" x2="1046" y1="2656.01" y2="2656.01" gradientUnits="userSpaceOnUse">
  <stop stop-color="#c0bfbc" offset="0"/>
  <stop stop-color="#deddda" offset=".5"/>
  <stop stop-color="#9a9996" offset="1"/>
 </linearGradient>
 <path d="m39.44 45.668h-30.88c-3.438 0-6.228-2.79-6.228-6.228v-30.88c0-3.438 2.79-6.228 6.228-6.228h30.88c3.438 0 6.228 2.79 6.228 6.228v30.88c0 3.438-2.79 6.228-6.228 6.228z" fill="url(#a)"/>
 <path transform="matrix(.345314 0 0 .345314 .891807 1.20928)" d="m12 50v-28c0-6.629 5.371-12 12-12s12 5.371 12 12v28c0 3.044-1.133 5.824-3 7.939v.061c0 .511-.043 1.012-.125 1.5.082.488.125.989.125 1.5 0 4.969-4.031 9-9 9s-9-4.031-9-9c0-.511.043-1.012.125-1.5-.082-.488-.125-.989-.125-1.5 0-.02 0-.041 0-.061-1.867-2.115-3-4.895-3-7.939z" fill="#00bf67"/>
 <path transform="matrix(.345314 0 0 .345314 .944757 2.10943)" d="m29.598 88.301c.14.187.203 1.434.14 1.664l-2.613 9.57c-.074.274-.32.465-.605.465h-5.04c-.285 0-.531-.191-.605-.465l-2.613-9.57c-.063-.23 0-1.477.14-1.664.141-.192.364-.301.598-.301h1v-26c0-2.211 1.789-4 4-4s4 1.789 4 4v26h1c.234 0 .457.109.598.301z" fill="#dedede"/>
 <g transform="matrix(.345314 0 0 .345314 .891807 1.20928)">
  <path d="m70 36v2.891c0 1.718-1.344 3.109-3 3.109h-12c-1.656 0-3-1.391-3-3.109v-21.778c0-1.718 1.344-3.113 3-3.113h12c1.656 0 3 1.395 3 3.113v2.887h6v-1.09c0-1.605 1.344-2.91 3-2.91h24c.14 0 .277.009.412.027 10.594.409 21.695 5.4 24.088 14.973v4l-3 1.5c-3.833-5.537-10.206-6.357-18.5-6.479v6.979c0 1.656-1.344 3-3 3h-24c-1.656 0-3-1.344-3-3v-1z" fill="#9a9996"/>
  <path d="m91 34c2.762 0 5 2.238 5 5v36c0 2.762-2.238 5-5 5s-5-2.238-5-5v-36c0-2.762 2.238-5 5-5z" fill="url(#b)" fill-rule="nonzero"/>
  <path d="m82.012 98.388c-.008-.129-.012-.258-.012-.388v-40c0-3.312 2.688-6 6-6h6c3.313 0 6 2.688 6 6v40c0 .13-.004.259-.012.388.008.119.012.24.012.362 0 2.898-2.352 5.25-5.25 5.25h-7.5c-2.898 0-5.25-2.352-5.25-5.25 0-.122.004-.243.012-.362z" fill="#ff7800"/>
 </g>
 <path transform="matrix(.920837 0 0 .920837 .891807 1.20928)" d="m23.25 17.686c2.199 0.89 3.75 3.046 3.75 5.564 0 2.221-1.207 4.16-3 5.197v14.303c0 1.663-1.337 3-3 3s-3-1.337-3-3v-14.25-0.053c-1.793-1.037-3-2.976-3-5.197 0-2.518 1.551-4.674 3.75-5.564v5.564l2.25 1.125 2.25-1.125zm-2.25 10.814c-0.829 0-1.5 0.671-1.5 1.5v6.75c0 0.829 0.671 1.5 1.5 1.5s1.5-0.671 1.5-1.5v-6.75c0-0.829-0.671-1.5-1.5-1.5zm0 12.75c-0.621 0-1.125 0.504-1.125 1.125s0.504 1.125 1.125 1.125 1.125-0.504 1.125-1.125-0.504-1.125-1.125-1.125z" fill="#deddda"/>
</svg>
