<svg clip-rule="evenodd" fill-rule="evenodd" stroke-linejoin="round" stroke-miterlimit="2" viewBox="0 0 48 48" xmlns="http://www.w3.org/2000/svg">
 <g fill-rule="nonzero">
  <path d="m2.332 30.5v5.417l21.668 9.751 6.5-2.924-3.25-12.244z" fill="#a32321"/>
  <path d="m24 21.833-21.668 8.667 21.668 9.751 6.5-15.818z" fill="#dc382d"/>
  <path d="m2.332 20.75v5.417l21.668 9.75 6.5-2.924-3.25-12.243z" fill="#a32321"/>
  <path d="m24 12.083-21.668 8.667 21.668 9.75 6.5-15.817z" fill="#dc382d"/>
  <path d="m2.332 10.999v5.417l21.668 9.751 6.5-2.924-3.25-12.244z" fill="#a32321"/>
  <path d="m24 2.332-21.668 8.667 21.668 9.751 6.5-15.817z" fill="#dc382d"/>
  <path d="m38.084 13.274-4.333.975-2.167 1.951v26.109l6.5-3.033zm7.584 7.476-4.334 1.083-2.166 1.842v15.168l6.5-2.926zm-21.668 24.918v-37.919l6.5-2.817v37.811z" fill="#a32321"/>
  <path d="m39.168 18.15v5.525l6.5-2.925zm-1.084-4.876-6.5-2.491v5.417z" fill="#dc382d"/>
 </g>
</svg>
