<svg clip-rule="evenodd" fill-rule="evenodd" stroke-linejoin="round" stroke-miterlimit="2" viewBox="0 0 48 48" xmlns="http://www.w3.org/2000/svg">
 <linearGradient id="a" x2="1" gradientTransform="matrix(-.506203 -42 42 -.506203 388.014 40.6128)" gradientUnits="userSpaceOnUse">
  <stop stop-color="#095c4d" offset="0"/>
  <stop stop-color="#009587" offset="1"/>
 </linearGradient>
 <path d="m37.02 1.667c2.783 0 5.039 2.257 5.039 5.04v34.586c0 2.783-2.256 5.04-5.039 5.04h-25.149c-2.783 0-5.039-2.257-5.039-5.04v-34.586c0-2.783 2.256-5.04 5.039-5.04z" fill="url(#a)" fill-rule="nonzero"/>
 <path d="m11.871 1.667h.887v44.666h-.887c-2.783 0-5.039-2.257-5.039-5.04v-34.586c0-2.783 2.256-5.04 5.039-5.04z" fill-opacity=".2" fill-rule="nonzero"/>
 <path d="m25.879 14.059c-4.989.559-8.879 4.799-8.879 9.938 0 5.517 4.484 10.003 9.999 10.003 5.516 0 10.001-4.486 10.001-10.003 0-5.065-3.783-9.251-8.669-9.906 0 0-1.365-.181-2.452-.032zm.455 1.352v3.367c-.955-.034-1.868-.135-2.712-.294.127-.297.26-.584.405-.845.668-1.202 1.474-1.953 2.307-2.228zm1.428.056c.075.012.151.021.226.035.752.329 1.475 1.044 2.082 2.137.143.257.273.537.398.828-.84.164-1.752.27-2.706.308zm-4.392.569c-.21.286-.411.585-.591.91-.208.374-.393.778-.564 1.2-.46-.135-.888-.288-1.279-.456.707-.681 1.529-1.241 2.434-1.654zm7.596.335c.843.262 1.489.797 2.097 1.319-.366.157-.763.302-1.191.431-.168-.413-.349-.809-.552-1.175-.111-.2-.23-.389-.353-.575zm-10.935 2.343c.015.054-.025-.072-.006-.017.515.241 1.128.625 1.732.806-.313 1.116-.506 2.343-.558 3.64h-2.906c.16-1.658.787-3.174 1.738-4.429zm13.946.012c.946 1.253 1.569 2.764 1.728 4.417h-2.806c-.053-1.307-.248-2.543-.565-3.666.57-.175 1.139-.508 1.629-.736.021-.051-.004.035.014-.015zm-3.029 1.104c.284 1.001.468 2.121.521 3.313h-3.707v-2.939c1.122-.041 2.194-.168 3.186-.374zm-7.804.021c.993.201 2.067.32 3.19.356v2.936h-3.706c.053-1.184.235-2.297.516-3.292zm-4.865 4.721h2.919c.053 1.332.255 2.592.583 3.734-.642.083-1.747.733-1.804.765-1.123-1.371-1.576-2.617-1.698-4.5zm4.349 0h3.706v3.036c-1.113.035-2.179.153-3.165.35-.296-1.019-.487-2.166-.541-3.387zm5.134 0h3.707c-.055 1.229-.247 2.383-.547 3.407-.984-.203-2.047-.328-3.16-.368zm5.137 0h2.82c-.112 1.73-.623 3.219-1.593 4.529-.454-.286-1.282-.585-1.817-.77.332-1.148.536-2.417.59-3.759zm-6.565 4.465v3.265c-.832-.276-1.639-1.023-2.307-2.226-.13-.234-.25-.488-.365-.752.832-.155 1.732-.254 2.672-.287zm1.428.003c.94.037 1.838.14 2.668.3-.114.258-.232.506-.36.736-.668 1.203-1.475 1.951-2.308 2.226zm-5.51.618c.161.389.334.765.526 1.112.273.491.584.937.924 1.334-1.094-.445-2.08-1.099-2.9-1.922.436-.195.923-.371 1.45-.524zm9.583.025c.493.147.949.315 1.361.499-.781.784-1.712 1.417-2.744 1.86.318-.381.609-.808.867-1.272.188-.34.357-.707.516-1.087z" fill="#fff"/>
</svg>
