<svg clip-rule="evenodd" fill-rule="evenodd" stroke-linejoin="round" stroke-miterlimit="2" viewBox="0 0 48 48" xmlns="http://www.w3.org/2000/svg">
 <linearGradient id="a" x2="1" gradientTransform="matrix(0 -32.3887 29.4604 0 25.0561 40.1204)" gradientUnits="userSpaceOnUse">
  <stop stop-color="#8e7f50" offset="0"/>
  <stop stop-color="#ae9d6a" offset="1"/>
 </linearGradient>
 <path d="m46.655 12.57c0-2.762-2.239-5-5-5h-35.31c-2.761 0-5 2.238-5 5v22.865c0 2.761 2.239 5 5 5h35.31c2.761 0 5-2.239 5-5v-22.865z" fill="#8f8051"/>
 <path d="m46.655 16.282c0-1.326-0.527-2.598-1.465-3.536-0.937-0.937-2.209-1.464-3.535-1.464h-18.364c-1.232 0-2.421-0.455-3.338-1.277-0.419-0.376-0.878-0.787-1.297-1.163-0.917-0.822-2.106-1.277-3.337-1.277h-8.974c-2.761 0-5 2.239-5 5v22.87c0 2.761 2.239 5 5 5h35.31c2.761 0 5-2.239 5-5v-19.153z" fill="url(#a)"/>
 <path d="m22 16.978c4.389 0 8 3.612 8 8 0 1.603-.482 3.17-1.383 4.496l4.944 4.944c.294.282.461.674.461 1.082 0 .823-.677 1.5-1.5 1.5-.409 0-.8-.167-1.083-.461l-4.949-4.949c-1.324.902-2.888 1.385-4.49 1.388-4.389 0-8-3.611-8-8 0-4.388 3.611-8 8-8zm0 3c-2.743 0-5 2.257-5 5s2.257 5 5 5 5-2.257 5-5-2.257-5-5-5z" fill="#ffffff" fill-opacity=".8" fill-rule="nonzero"/>
</svg>
