<svg clip-rule="evenodd" fill-rule="evenodd" stroke-linejoin="round" stroke-miterlimit="2" viewBox="0 0 48 48" xmlns="http://www.w3.org/2000/svg">
 <path d="m45.668 31.223v8.217c0 3.438-2.79 6.228-6.228 6.228h-8.217v-14.445z" fill="#259fb3" fill-rule="nonzero"/>
 <path d="m16.77746 31.22281h14.44534v14.44534h-14.44534z" fill="#1e8496" stroke-width="1.11118"/>
 <path d="m2.332 39.475v-8.252h14.445v14.445h-8.217c-3.426 0-6.209-2.771-6.228-6.193z" fill="#186977" fill-rule="nonzero"/>
 <g stroke-width="1.11118">
  <path d="m2.33212 16.77747h14.44534v14.44534h-14.44534z" fill="#4ca9ba"/>
  <path d="m16.77746 16.77747h14.44534v14.44534h-14.44534z" fill="#6eb9c7"/>
  <path d="m31.2228 16.77747h14.44534v14.44534h-14.44534z" fill="#90cad5"/>
 </g>
 <path d="m39.475 2.332c3.422.019 6.193 2.802 6.193 6.228v8.217h-14.445v-14.445z" fill="#c5e6ec" fill-rule="nonzero"/>
 <path d="m16.77746 2.33213h14.44534v14.44534h-14.44534z" fill="#acdbe3" stroke-width="1.11118"/>
 <path d="m16.777 2.332v14.445h-14.445v-8.252c.019-3.414 2.789-6.18 6.204-6.193z" fill="#96d1dc" fill-rule="nonzero"/>
 <circle cx="36.499994" cy="36.786595" r="10.481388" fill="#48aeff" stroke-width=".873449"/>
 <path transform="translate(.5 1.7866)" d="m30.357 36h4.286c.198 0 .357.159.357.357v4.286c0 .198-.159.357-.357.357h-4.286c-.198 0-.357-.159-.357-.357v-4.286c0-.198.159-.357.357-.357zm7 0h4.286c.198 0 .357.159.357.357v4.286c0 .198-.159.357-.357.357h-4.286c-.198 0-.357-.159-.357-.357v-4.286c0-.198.159-.357.357-.357zm-7-7h4.286c.198 0 .357.159.357.357v4.286c0 .198-.159.357-.357.357h-4.286c-.198 0-.357-.159-.357-.357v-4.286c0-.198.159-.357.357-.357zm7 0h4.286c.198 0 .357.159.357.357v4.286c0 .198-.159.357-.357.357h-4.286c-.198 0-.357-.159-.357-.357v-4.286c0-.198.159-.357.357-.357z" fill="#fff" fill-rule="nonzero"/>
</svg>
