<svg clip-rule="evenodd" fill-rule="evenodd" stroke-linejoin="round" stroke-miterlimit="2" viewBox="0 0 48 48" xmlns="http://www.w3.org/2000/svg">
 <linearGradient id="a" x2="1" gradientTransform="matrix(0 -33.6872 33.6872 0 923.28 40.4502)" gradientUnits="userSpaceOnUse">
  <stop stop-color="#2a8b5a" offset="0"/>
  <stop stop-color="#36a66e" offset="1"/>
 </linearGradient>
 <path d="m39.44 45.668h-30.88c-3.438 0-6.228-2.79-6.228-6.228v-30.88c0-3.438 2.79-6.228 6.228-6.228h30.88c3.438 0 6.228 2.79 6.228 6.228v30.88c0 3.438-2.79 6.228-6.228 6.228z" fill="url(#a)"/>
 <path d="m24 31.584c-8.667 0-14.626 2.167-19.501 4.875 3.33-4.071 7.672-6.625 12.507-7.834-1.706-1.757-2.757-4.152-2.757-6.792 0-5.381 4.369-9.75 9.751-9.75s9.751 4.369 9.751 9.75c0 2.64-1.051 5.035-2.757 6.792 4.835 1.209 9.177 3.763 12.507 7.834-4.875-2.708-10.834-4.875-19.501-4.875zm0-15.168c-2.99 0-5.417 2.427-5.417 5.417s2.427 5.417 5.417 5.417 5.417-2.427 5.417-5.417-2.427-5.417-5.417-5.417z" fill="#fff"/>
</svg>
