<svg clip-rule="evenodd" fill-rule="evenodd" stroke-linejoin="round" stroke-miterlimit="2" viewBox="0 0 48 48" xmlns="http://www.w3.org/2000/svg">
 <linearGradient id="a" x2="1" gradientTransform="matrix(10.2134 -44.3672 44.3672 10.2134 13.7866 46.3921)" gradientUnits="userSpaceOnUse">
  <stop stop-color="#8e3815" offset="0"/>
  <stop stop-color="#a54923" offset="1"/>
 </linearGradient>
 <g fill-rule="nonzero">
  <path d="m24.935 1.531c-.999-.034-1.915.251-2.53.889-6.626 7.675-13.085 15.246-19.583 22.952-1.074 1.292-1.848 2.769-.788 4.464 3.203 5.161 6.22 10.284 9.66 15.761.636.954 2.639 1.377 4.024-.042 9.599-9.598 19.525-19.545 29.807-29.766 1.25-1.24 1.411-4.091-.43-5.054-1.84-.963-16.02-7.657-17.783-8.561-.772-.395-1.6-.616-2.377-.643z" fill="url(#a)"/>
  <path d="m19.565 18.382c-.12 0-.243.006-.368.018-2.001.195-7.578.766-7.578.766l-.191 3.184s3.024-.23 3.654-.261c.63-.032 1.046.458 1.049.967.003.51.012 1.488.015 1.995.003.508-.472 1.196-1.058 1.196-.585 0-3.851.097-3.851.097l-.211 3.283s3.178.005 3.808.018c.63.012 1.119.523 1.095 1.154s-.266 7.2-.266 7.2l7.014.607.199-.199c-.008-.386-.148-6.708-.177-8.352-.029-1.645-1.328-2.485-1.328-2.485s1.543-1.344 1.484-2.699-.104-1.853-.147-3.537c-.041-1.579-1.333-2.948-3.143-2.952zm-8.954.957-2.866.228c-.558.659-1.119 1.317-1.678 1.977l-1.159 12.996c.491.807.986 1.608 1.479 2.421l3.156.291z" fill="#fff"/>
 </g>
</svg>
