<svg clip-rule="evenodd" fill-rule="evenodd" stroke-linejoin="round" stroke-miterlimit="2" viewBox="0 0 48 48" xmlns="http://www.w3.org/2000/svg">
 <linearGradient id="a" x2="1" gradientTransform="matrix(.123288 -42.5595 42.5595 .123288 23.9036 44.894)" gradientUnits="userSpaceOnUse">
  <stop stop-color="#00d455" offset="0"/>
  <stop stop-color="#0f6" offset="1"/>
 </linearGradient>
 <linearGradient id="b" x2="1" gradientTransform="matrix(-.06514 -19.0617 19.0617 -.06514 23.2661 23.6311)" gradientUnits="userSpaceOnUse">
  <stop stop-color="#b3b3b3" offset="0"/>
  <stop stop-color="#f2f2f2" offset="1"/>
 </linearGradient>
 <g fill-rule="nonzero">
  <path d="m10.144 2h27.712c1.228 0 2.217.989 2.217 2.217v39.112c0 1.229-.989 2.217-2.217 2.217h-27.712c-1.228 0-2.217-.988-2.217-2.217v-39.112c0-1.228.989-2.217 2.217-2.217z" fill="url(#a)"/>
  <path d="m11.382 4.012h25.101c.76 0 1.373.669 1.373 1.499v17.134c0 .83-.613 1.499-1.373 1.499h-25.101c-.761 0-1.373-.669-1.373-1.499v-17.134c0-.83.612-1.499 1.373-1.499z" fill-opacity=".35"/>
  <path d="m11.931 4.678h23.98c.726 0 1.311.626 1.311 1.404v16.037c0 .777-.585 1.403-1.311 1.403h-23.98c-.727 0-1.312-.626-1.312-1.403v-16.037c0-.778.585-1.404 1.312-1.404z" fill="url(#b)"/>
  <path d="m19.452 32.739c0 2.433-2.002 4.434-4.434 4.434s-4.434-2.001-4.434-4.434c0-2.432 2.002-4.434 4.434-4.434s4.434 2.002 4.434 4.434z" fill-opacity=".35"/>
  <g fill="#fbfbfb">
   <path d="m14.032 29.475c-.156 0-.283.125-.283.281v1.684h-1.603c-.155 0-.28.125-.28.281v1.97c0 .156.125.28.28.28h1.603v1.553c0 .156.127.283.283.283h1.967c.156 0 .283-.127.283-.283v-1.553h1.633c.156 0 .283-.124.283-.28v-1.97c0-.156-.127-.281-.283-.281h-1.633v-1.684c0-.156-.127-.281-.283-.281z"/>
   <path d="m36.825 31.626c0 1.094-.9 1.995-1.995 1.995-1.094 0-1.995-.901-1.995-1.995 0-1.095.901-1.996 1.995-1.996 1.095 0 1.995.901 1.995 1.996z"/>
   <path d="m33.128 36.704c0 1.52-1.251 2.771-2.772 2.771-1.52 0-2.771-1.251-2.771-2.771s1.251-2.771 2.771-2.771c1.521 0 2.772 1.251 2.772 2.771z"/>
  </g>
  <path d="m18.457 7.6c-.11-.001-.137.094-.137.205v1.201c0 .11.027.193.137.193h1.211c.11 0 .2-.085.199-.195-.003-.4-.004-.803-.004-1.203 0-.111-.09-.201-.201-.201zm9.725 0c-.111 0-.262.092-.262.203v1.211c0 .11.12.198.23.197.4-.003.788-.004 1.188-.004.11 0 .183-.089.183-.199v-1.207c0-.111-.028-.201-.138-.201zm-8.075 1.609c-.11-.001-.187.087-.187.197v1.239c0 .11-.141.156-.252.156h-1.229c-.11 0-.119.134-.119.244v1.223c0 .11-.171.132-.281.132h-1.223c-.11 0-.295.157-.295.268v1.223c0 .11.005.109-.105.109h-1.205c-.11 0-.291.181-.291.291v4.436c0 .11.181.273.291.273h1.203c.11 0 .107-.163.107-.273v-2.823c0-.11.183-.103.293-.103h1.237c.11 0 .269-.007.269.103v2.84c0 .111.056.201.166.201.411 0 .826-.001 1.221.002.11.001.213-.087.213-.197v-1.219c0-.11.026-.131.137-.131h7.73c.111 0 .199.054.199.164 0 .411 0 .825-.004 1.225 0 .111.087.211.198.211h1.218c.111 0 .123-.145.123-.256v-2.838c0-.11.167-.105.278-.105h1.242c.11 0 .279-.005.279.105v2.821c0 .11.011.273.121.273h1.19c.11 0 .289-.163.289-.273v-4.444c0-.11-.179-.283-.289-.283h-1.215c-.11 0-.295-.007-.295-.117v-1.227c0-.11.005-.256-.105-.256h-1.223c-.111 0-.272-.034-.272-.144v-1.221c0-.11-.016-.234-.126-.234h-1.219c-.111 0-.256-.056-.256-.166v-1.229c0-.11-.062-.198-.172-.197-.399.003-.806.004-1.221.004-.11 0-.207.089-.207.199v1.217c0 .111-.049.172-.16.172h-4.488c-.111 0-.151-.062-.151-.172v-1.217c0-.11-.114-.201-.224-.201-.41 0-.795.001-1.19-.002zm-.043 3.191h1.221c.111 0 .236.144.236.254v1.219c0 .11-.125.127-.236.127h-1.222c-.111 0-.143-.015-.143-.125v-1.221c0-.11.034-.254.144-.254zm6.493 0h1.22c.111 0 .143.146.143.256v1.221c0 .11-.032.123-.143.123h-1.22c-.111 0-.237-.012-.237-.123v-1.221c0-.11.126-.256.237-.256zm-6.496 6.551c-.111 0-.203.089-.202.199.004.4.004.827.004 1.227 0 .11.089.223.2.223h2.828c.11-.001.23-.136.23-.246v-1.196c0-.11-.104-.199-.215-.199-.301 0-.604.001-.9 0-.647-.002-1.298-.005-1.945-.008zm7.796.004c-.031.002-.048.024-.08.024-.952 0-1.889.021-2.841.021h-.09c-.05 0-.125.048-.125.158v1.197c0 .111.123.245.234.245h2.826c.111 0 .139-.134.139-.245v-1.21c0-.111-.01-.194-.063-.19z" fill-opacity=".67"/>
 </g>
</svg>
