<svg clip-rule="evenodd" fill-rule="evenodd" stroke-linejoin="round" stroke-miterlimit="2" viewBox="0 0 48 48" xmlns="http://www.w3.org/2000/svg">
 <linearGradient id="a" x2="1" gradientTransform="matrix(0 -45.3332 -48.2116 0 24 46.7633)" gradientUnits="userSpaceOnUse">
  <stop stop-color="#222" offset="0"/>
  <stop stop-color="#4f4f4f" offset="1"/>
 </linearGradient>
 <g fill-rule="nonzero">
  <path d="m46.764 23.999c0-.866-.141-2.562-.141-2.562-3.274-5.405-13.457-16.727-21.425-19.004-1.018-.29-3.299-1.126-4.318-.987-11.125 1.512-19.644 11.001-19.644 22.553 0 7.868 3.951 14.778 9.985 18.864 3.639 2.464 9.304.87 14.048.87 2.985 0 6.3-3.659 7.644-5.715 2.469-3.775 8.054 1.971 10.6-2.257 2.065-3.429 3.251-7.452 3.251-11.762z" fill="url(#a)"/>
  <path d="m23.506 1.246c-1.178.025-2.336.133-3.462.329-.032.027 7.813 2.014 10.75 4.051 2.241 1.58 4.105 4.608 5.328 7.01.678 1.332.087 1.336-2.73.331-2.173-.774-4.632-1.564-4.801-1.378-.069.077-.255.532-.411 1.012-.296.909-1.056 1.869-1.186 1.739-.041-.041.04-.618.18-1.283.307-1.447.324-2.209.076-3.365-.269-1.253-.43-1.33-1.872-.901-.666.199-2.103.557-3.192.796-3.259.717-5.077 1.591-7.098 2.806-1.189.715-1.447.745-1.298.153.189-.755-.339-.511-1.703.785-1.287 1.222-1.681 1.446-1.681.958 0-.57-.342-.198-1.003 1.089-.381.743-.913 1.938-1.182 2.657-.396 1.058-.75 1.598-1.859 2.836-2.151 2.404-2.233 2.913-.475 2.913 1.305 0 1.34.334.064.609l-.858.184.016 1.056c.02 1.439.467 2.32 1.396 2.752.443.207.839.561 1.038.93.32.594 1.187 1.44 1.476 1.44.084 0 .106-.38.051-.845-.111-.939.271-2.001.827-2.298.256-.137.402-.057.771.427.455.596 1.273 1.239 1.408 1.104.039-.038-.124-.57-.363-1.18-.656-1.673-.597-1.927.305-2.713 1.023-.891 2.11-1.357 2.839-1.22 1.12.21 3.372 2.013 3.616 2.984.146.583-.207 1.382-.849 1.923-.665.559-1.875 1.294-2.307 1.294-.182 0-.698-.323-1.147-.719-.449-.395-.859-.675-.91-.624-.05.051-.006.392.096.76s.186.77.187.889c.002.385-.976.234-2.003-.306-.547-.288-1.025-.523-1.063-.523-.319 0 .865 4.068 1.419 4.804.411.546.827.842 1.353.876.699.046 1.592-.368 2.928-1.263 2.218-1.487 3.813-2.835 6.033-3.196 1.218-.198 1.844.046 2.73 1.072 1.218 1.408 3.999 8.163 3.715 8.905-3.029 1.949-6.357 2.414-9.701 2.443-3.501.1-6.123-.661-9.164-1.539 3.89 3.103 8.825 4.953 14.21 4.953 8.77 0 16.34-4.915 20.145-12.146-2.243-1.159-6.135-2.928-8.525-3.78-.792-.282-1.295-.55-1.205-.64.324-.324 6.704.777 9.664 1.667.22.067.736.234 1.136.369.156-.405.315-.81.449-1.227-.506-.264-1.091-.575-1.368-.724-2.366-1.279-5.923-2.569-9.321-3.384-3.027-.726-2.901-.684-2.567-.871.619-.347 8.407.393 12.366 1.174.187.036 1.062.195 1.721.317.09-.585.153-1.181.198-1.78-.831-.386-1.816-.775-2.895-1.165-3.244-1.174-7.888-1.831-12.055-2.069-1.778-.102-2.44-.457-2.003-.64 2.789-.516 3.366-1.279 8.666-1.279 2.894.167 5.603.767 8.258 1.305-.913-10.024-8.269-18.124-17.916-20.157-.085-.017-.211-.045-.293-.062-.188-.037-.377-.068-.567-.1-.19-.033-.372-.068-.582-.096-.084-.012-.17-.02-.254-.031-1.092-.129-2.367-.19-3.546-.198z" fill="#008eff"/>
  <path d="m12.349 17.171c.087.004.155.022.195.059.393.363-.864 1.799-1.782 2.034-1.594.409-1.959.132-1.124-.847.482-.566 2.101-1.274 2.711-1.246z" fill="#fff"/>
 </g>
</svg>
