<svg clip-rule="evenodd" fill-rule="evenodd" stroke-linejoin="round" stroke-miterlimit="2" viewBox="0 0 48 48" xmlns="http://www.w3.org/2000/svg">
 <linearGradient id="a" x2="1" gradientTransform="matrix(0 -40 40 0 23.5453 44)" gradientUnits="userSpaceOnUse">
  <stop stop-color="#0169d0" offset="0"/>
  <stop stop-color="#37a0f2" offset="1"/>
 </linearGradient>
 <circle transform="matrix(1.1382 0 0 1.1382 -3.3168 -3.3168)" cx="24" cy="24" r="20" fill="url(#a)"/>
 <path transform="matrix(1.1382 0 0 1.1382 43.0359 -6.3797)" d="m-16.725 11.189c-.823 0-1.5.677-1.5 1.5.001.405.165.792.455 1.074l-1.816 3.934c-.046-.005-.093-.008-.139-.008-.45.001-.877.205-1.16.555l-4.242-1.514c-.015-.376-.17-.733-.436-1-.582-.582-1.539-.582-2.121 0s-.582 1.539 0 2.121c.266.266.624.423 1 .438l1.514 4.238c-.35.284-.554.711-.555 1.162h-1l-1.123.135-3.877.467v4.8l3.873.465c.27 1.045.685 2.046 1.234 2.975l-2.41 3.07 3.393 3.393 3.07-2.411c.929.548 1.93.962 2.975 1.231l.465 3.877h4.8v-.002l.465-3.873c1.045-.269 2.046-.684 2.975-1.232l3.07 2.41 3.393-3.394-2.41-3.071-.699-.89-.768-.768c.363-.285.575-.721.574-1.182 0-.046-.003-.093-.008-.139l3.932-1.816c.282.291.671.455 1.076.455.823 0 1.5-.677 1.5-1.5s-.677-1.5-1.5-1.5c-.404.001-.792.165-1.074.455l-3.934-1.814c.005-.047.008-.094.008-.141 0-.45-.203-.878-.553-1.162l1.514-4.24c.376-.015.732-.171.998-.436.582-.582.582-1.539 0-2.121s-1.539-.582-2.121 0c-.266.266-.422.624-.437 1l-4.238 1.512c-.285-.349-.712-.552-1.162-.553-.047.001-.093.003-.139.008l-1.815-3.934c.29-.282.454-.669.454-1.074 0-.823-.678-1.5-1.5-1.5zm.139 2.992 1.814 3.934c-.164.161-.289.357-.365.574h-3.176c-.077-.217-.202-.414-.367-.574l1.814-3.932c.047.004.094.006.141.006.046 0 .093-.003.139-.008zm-8.836 3.504 4.197 1.5v.004c.001.223.052.443.149.645l-2.504 2.503c-.202-.096-.422-.147-.645-.148-.001 0-.003 0-.004 0l-1.5-4.197c.059-.043.114-.09.166-.141.051-.052.098-.107.141-.166zm17.395 0c.043.059.09.114.14.166.052.052.108.099.166.143l-1.5 4.195c-.001 0-.002 0-.004 0-.223.001-.443.052-.644.148l-2.504-2.503c.097-.202.148-.422.149-.645 0-.001 0-.003 0-.004zm-10.285 2.004h3.174c.211.598.78 1 1.414 1 .223 0 .443-.05.644-.146l2.504 2.502c-.097.201-.147.421-.148.644 0 .634.402 1.203 1 1.414v3.174c-.597.211-.999.779-1 1.412 0 .353.125.695.353.965-1.365 2.192-3.77 3.531-6.353 3.535-4.115 0-7.5-3.386-7.5-7.5.001-.507.054-1.013.158-1.51.758-.08 1.341-.727 1.342-1.49-.001-.224-.052-.445-.149-.646l2.502-2.502c.202.097.423.147.647.148.633-.001 1.201-.403 1.412-1zm10.16 5.045 3.935 1.816c-.004.046-.007.093-.008.139.001.046.004.093.008.139l-3.933 1.814c-.161-.164-.358-.289-.575-.365v-3.176c.217-.077.413-.202.573-.367z" fill="#fff"/>
</svg>
