<svg clip-rule="evenodd" fill-rule="evenodd" stroke-linejoin="round" stroke-miterlimit="2" viewBox="0 0 48 48" xmlns="http://www.w3.org/2000/svg">
 <linearGradient id="a" x2="1" gradientTransform="matrix(0 -40 40 0 24 44)" gradientUnits="userSpaceOnUse">
  <stop stop-color="#21741f" offset="0"/>
  <stop stop-color="#46c552" offset="1"/>
 </linearGradient>
 <g transform="matrix(1.1382 0 0 1.1382 -3.3168 -3.3168)" fill-rule="nonzero">
  <path d="m24 4c-10.972 0-20 9.028-20 20s9.028 20 20 20 20-9.028 20-20-9.028-20-20-20z" fill="url(#a)"/>
  <path d="m20.295 33.391c1.87-.885 3.536-1.607 3.702-1.605.167.002 1.819.726 3.672 1.609s3.49 1.605 3.639 1.605c.205 0 .244-.17.163-.71-.058-.39-.29-2.221-.517-4.069l-.411-3.359 1.855-1.996c2.755-2.968 3.699-4.062 3.594-4.168-.052-.053-1.817-.431-3.922-.842-3.043-.593-3.891-.825-4.139-1.129-.171-.211-.968-1.597-1.769-3.08-1.706-3.157-2.137-3.824-2.336-3.611-.08.086-.961 1.647-1.957 3.469-.997 1.822-1.875 3.375-1.951 3.451-.076.077-1.698.44-3.605.808-4.452.858-4.313.824-4.313 1.062 0 .112 1.229 1.521 2.73 3.131 2.551 2.737 2.722 2.967 2.628 3.531-.184 1.103-.85 6.653-.851 7.086 0 .234.088.426.195.426.106 0 1.724-.724 3.593-1.609z" fill="#fff"/>
 </g>
</svg>
