<svg clip-rule="evenodd" fill-rule="evenodd" stroke-linejoin="round" stroke-miterlimit="2" viewBox="0 0 48 48" xmlns="http://www.w3.org/2000/svg">
 <linearGradient id="a" x2="1" gradientTransform="matrix(15.4447 30.8893 -27.4815 13.7407 25.124 3.33317)" gradientUnits="userSpaceOnUse">
  <stop stop-color="#ff8528" offset="0"/>
  <stop stop-color="#fe1d4c" offset="1"/>
 </linearGradient>
 <linearGradient id="b" x2="1" gradientTransform="matrix(32.2479 30.8893 -35.7054 37.2758 3.10104 10.698)" gradientUnits="userSpaceOnUse">
  <stop stop-color="#933bce" offset="0"/>
  <stop stop-color="#ff1f51" offset=".47"/>
  <stop stop-color="#ff8629" offset="1"/>
 </linearGradient>
 <linearGradient id="c" x2="1" gradientTransform="matrix(25.8761 27.668 -27.668 25.8761 -268.477 272.709)" gradientUnits="userSpaceOnUse">
  <stop stop-color="#450002" offset="0"/>
  <stop stop-color="#1f1737" offset=".49"/>
  <stop stop-color="#131f48" offset="1"/>
 </linearGradient>
 <path d="m16.579 2.994 9.546 4.29 11.977-4.183 7.079 8.151-4.326 23.167-25.741-.5-5.256-13.8 6.721-17.125z" fill="url(#a)"/>
 <path d="m3.208 10.394 15.409-3.79 17.733 35.216-24.49 3.217-8.759-12.37.107-22.273z" fill="url(#b)"/>
 <path d="m18.617 6.604 6.936 4.898-3.075 5.649z" fill="#873ad4"/>
 <path d="m10.17 10.14h27.783v27.853h-27.783z" fill="url(#c)"/>
 <path d="m24 29.662h-10.415v1.888h10.415zm-8.271-5.822c.095-.096.143-.605.139-1.498l-.004-1.354 1.612.065.929 1.365c.511.751 1.008 1.409 1.105 1.463.253.141 2.481.049 2.531-.104.023-.069-.447-.847-1.044-1.726l-1.084-1.602.272-.174c.579-.37 1.35-1.278 1.492-1.755.185-.628.182-1.846-.006-2.478-.092-.309-.37-.714-.749-1.09-.938-.936-1.333-1.017-4.664-.968l-2.743.04-.015 4.834c-.01 2.657.01 4.899.041 4.982.078.2 1.989.201 2.19 0zm9.444-2.87.05-2.925 1.199 1.787c.66.982 1.279 1.786 1.378 1.786.098 0 .713-.807 1.367-1.794l1.187-1.794.041 2.795c.027 1.817.088 2.85.173 2.953.173.207 2.023.214 2.227.008.166-.167.178-9.475.012-9.736-.072-.112-.425-.143-1.33-.115l-1.231.038-1.146 1.846c-.632 1.014-1.198 1.862-1.261 1.883-.062.022-.615-.762-1.229-1.74-.614-.979-1.188-1.838-1.275-1.91-.1-.082-.601-.117-1.335-.094l-1.176.038-.017 4.833c-.008 2.658.011 4.902.044 4.987.044.113.347.144 1.165.116l1.105-.038zm-9.294-3.581.03-1.224 1.334-.004c1.164-.004 1.376.028 1.666.243.42.311.581.887.402 1.433-.204.627-.592.766-2.14.77l-1.323.005z" fill="#e7e7e7"/>
</svg>
