<svg clip-rule="evenodd" fill-rule="evenodd" stroke-linejoin="round" stroke-miterlimit="2" viewBox="0 0 48 48" xmlns="http://www.w3.org/2000/svg">
 <linearGradient id="a" x2="1" gradientTransform="matrix(0 -43.336 43.336 0 24 45.668)" gradientUnits="userSpaceOnUse">
  <stop stop-color="#911620" stop-opacity=".99" offset="0"/>
  <stop stop-color="#ff4c63" stop-opacity=".99" offset="1"/>
 </linearGradient>
 <path d="m39.44 2.332c3.438 0 6.228 2.79 6.228 6.228v30.88c0 3.438-2.79 6.228-6.228 6.228h-30.88c-3.438 0-6.228-2.79-6.228-6.228v-30.88c0-3.438 2.79-6.228 6.228-6.228z" fill="url(#a)"/>
 <g fill="#fff">
  <path d="m7.937 7.826v5.007h1.001v-4.006h4.006v-1.001z" fill-opacity=".75" fill-rule="nonzero"/>
  <path d="m7.937 40.174h5.007v-1.001h-4.006v-4.006h-1.001z" fill-opacity=".75" fill-rule="nonzero"/>
  <path d="m40.486 39.374v-5.008h-1.002v4.006h-4.006v1.002z" fill-opacity=".75" fill-rule="nonzero"/>
  <path d="m40.586 7.826h-5.008v1.001h4.006v4.006h1.002z" fill-opacity=".75" fill-rule="nonzero"/>
  <circle cx="23.728" cy="24.489" r="5.571" fill-opacity=".77"/>
 </g>
</svg>
