<svg clip-rule="evenodd" fill-rule="evenodd" stroke-linejoin="round" stroke-miterlimit="2" viewBox="0 0 48 48" xmlns="http://www.w3.org/2000/svg">
 <linearGradient id="a" x2="1" gradientTransform="matrix(0 -45.528 45.528 0 24 46.764)" gradientUnits="userSpaceOnUse">
  <stop stop-color="#282828" offset="0"/>
  <stop stop-color="#3f3f3f" offset="1"/>
 </linearGradient>
 <circle cx="24" cy="24" r="22.764" fill="url(#a)"/>
 <path d="m24.705 10.342c-1.963-.001-3.925.002-5.889.011-.616.004-1.24.06-1.843.189-.73.154-1.43.416-2.072.816-.533.33-1.032.694-1.46 1.149-.651.687-1.154 1.459-1.494 2.352-.223.584-.344 1.184-.423 1.785-.131.974.048 1.481.34 2.412.193.614.476 1.191.838 1.732.547.815 1.198 1.529 2.023 2.065.442.287.902.541 1.361.798.371.21.747.403 1.118.605l.983.529c.603.326 1.211.648 1.805.987.179.103.436.136.471.453-.1.005-.188.014-.271.018-.961 0-1.922-.017-2.879.005-.76.017-1.52.055-2.245.364-.516.219-1.01.468-1.447.807-.809.627-1.398 1.426-1.757 2.37-.236.622-.384 1.273-.358 1.947.014.352.071 1.16.136 1.507.057.297.118.602.236.876.279.661.656 1.271 1.162 1.799.765.789 1.695 1.316 2.766 1.56.533.125 1.097.169 1.647.169 3.919.013 7.839.018 11.758.005 1.079-.005 2.127-.181 3.128-.623.681-.3 1.297-.691 1.851-1.185.577-.515 1.067-1.102 1.434-1.776.219-.403.399-.834.543-1.271.126-.374.192-.773.244-1.163.053-.391.109-.794.083-1.185-.053-.751-.187-1.033-.454-1.745-.253-.669-.581-1.297-1.005-1.867-.568-.769-1.246-1.425-2.089-1.901-.66-.373-1.315-.756-1.979-1.12-.476-.267-.971-.51-1.452-.767-.594-.322-1.193-.648-1.782-.983-.079-.043-.113-.152-.169-.229.074-.03.148-.08.222-.08.751-.004 1.507.004 2.258-.004.826-.009 1.662.063 2.452-.225.481-.176.957-.369 1.399-.614.607-.339 1.122-.801 1.503-1.38.279-.429.546-.873.751-1.341.149-.339.175-.724.267-1.089.244-.957.025-2.331-.294-3.219-.236-.661-.637-1.246-1.127-1.769-.756-.807-1.69-1.322-2.752-1.588-.533-.133-1.097-.175-1.647-.175-1.964-.007-3.928-.011-5.891-.011zm0 2.276c1.96.001 3.922.005 5.884.011h.007c.433 0 .818.04 1.096.109.694.175 1.197.459 1.643.934.334.358.541.688.644.978v.004c.445 1.665.171 2.51-.487 3.633-.166.253-.39.464-.706.64-.278.153-.643.305-1.072.462-.194.07-.723.077-1.694.087h-.002c-1.746.035-3.067-.029-4.88-.029h-1.138c-1.138 0-1.138 1.103-1.138 1.103v4.253c-1.529-.919-2.22-1.279-3.593-2.019-.001-.001-.003-.001-.004-.002l-.983-.529.009.002c-.402-.219-.765-.405-1.082-.585l-.009-.004c-.471-.264-.885-.495-1.232-.72h-.002c-1.849-1.431-2.387-3.379-1.892-5.276.231-.605.552-1.104 1.018-1.596.002-.002.005-.004.007-.007.238-.253.565-.504 1.003-.775.392-.244.835-.415 1.342-.523.002-.001.003-.001.005-.002.419-.09.89-.134 1.378-.138 1.96-.009 3.918-.012 5.878-.011zm.433 10.559c1.094.654 2.274 1.317 3.293 1.872.002.003.005.005.008.007.528.283 1.012.52 1.419.747.004.002.009.004.013.007.629.345 1.276.723 1.954 1.107v.002c.519.293.959.702 1.381 1.272l.002.002c.283.381.512.814.702 1.316.281.747.275.581.312 1.098.004.072-.014.33-.067.725-.046.346-.1.601-.145.733-.002.007-.004.014-.006.02-.107.325-.236.632-.38.899-.226.412-.538.795-.95 1.162-.376.334-.777.591-1.253.8h-.003c-.667.295-1.377.426-2.214.43-3.912.012-7.828.008-11.744-.005-.003 0-.005 0-.007 0-.428 0-.825-.038-1.129-.109-.004-.001-.008-.001-.011-.002-.657-.15-1.159-.435-1.632-.923-.289-.301-.518-.657-.707-1.105-.002-.003-.003-.007-.005-.011.012.026-.036-.122-.091-.406.008.035-.089-.928-.097-1.163v-.005c-.012-.283.05-.625.211-1.049v-.002c.215-.567.532-.996 1.022-1.376l.003-.003c.206-.16.514-.328.94-.509l.002-.002c.261-.111.687-.166 1.405-.182.896-.02 1.84-.005 2.828-.005.039.001.078 0 .118-.002.808.002 1.666.036 2.552.036h1.069s1.207-.001 1.207-1.081z" fill="#00f782" fill-rule="nonzero"/>
</svg>
