<svg clip-rule="evenodd" fill-rule="evenodd" stroke-linejoin="round" stroke-miterlimit="2" viewBox="0 0 48 48" xmlns="http://www.w3.org/2000/svg">
 <circle cx="24" cy="24" r="21.626" fill="#222222"/>
 <g fill-rule="nonzero">
  <path d="m46.015 29.618c-3.155 1.385-6.728 2.685-10.366 3.663-5.326 1.433-10.76 2.203-15.206 1.452.795.896 1.632 1.781 2.501 2.643 2.979 2.954 6.294 5.645 9.339 7.77 6.8-2.669 11.915-8.454 13.732-15.528z" fill="#e5289a"/>
  <path d="m12.863 26.239c-.43 1.284-.819 2.61-1.161 3.957-.99 3.894-1.617 7.935-1.921 11.524 4.028 3.248 9.045 5.028 14.219 5.044 2.142-.002 4.272-.307 6.329-.905-2.846-2.059-5.845-4.552-8.588-7.271-3.896-3.864-7.282-8.149-8.878-12.349z" fill="#19a2ff"/>
  <path d="m16.633 15.326c-1.494.305-3.012.687-4.522 1.131-3.734 1.099-7.421 2.56-10.595 4.077-.181 1.147-.275 2.305-.28 3.466.021 6.152 2.534 12.04 6.963 16.31.343-3.349.948-6.987 1.849-10.535 1.422-5.595 3.536-10.937 6.585-14.449z" fill="#00e2d3"/>
  <path d="m39.821 7.641c-.293 3.217-.82 6.68-1.616 10.068-1.342 5.713-3.403 11.176-6.469 14.741 1.151-.234 2.313-.507 3.47-.818 3.99-1.073 7.926-2.555 11.262-4.093.191-1.17.29-2.353.296-3.539-.002-6.166-2.509-12.074-6.943-16.359z" fill="#ed4648"/>
  <path d="m15.966 2.763c-6.936 2.629-12.166 8.488-13.994 15.677 2.969-1.353 6.278-2.627 9.657-3.621 4.532-1.334 9.156-2.184 13.194-1.994.921.043 1.81.146 2.663.304-.729-.835-1.493-1.659-2.283-2.465-2.94-2.996-6.22-5.734-9.237-7.901z" fill="#7add21"/>
  <path d="m24 1.236c-2.05.008-4.089.293-6.062.847 2.817 2.097 5.781 4.63 8.485 7.385 3.896 3.97 7.258 8.366 8.768 12.642.514-1.542.968-3.153 1.354-4.792.878-3.738 1.428-7.611 1.682-11.082-4.035-3.234-9.055-4.998-14.227-5z" fill="#ff8d23"/>
 </g>
</svg>
