<svg clip-rule="evenodd" fill-rule="evenodd" stroke-linejoin="round" stroke-miterlimit="2" viewBox="0 0 48 48" xmlns="http://www.w3.org/2000/svg">
 <path d="m39.44 2.332c3.438 0 6.228 2.79 6.228 6.228v30.88c0 3.438-2.79 6.228-6.228 6.228h-30.88c-3.438 0-6.228-2.79-6.228-6.228v-30.88c0-3.438 2.79-6.228 6.228-6.228z" fill="#f9f9f9"/>
 <path d="m16.777 2.332v14.445h-14.445v-8.217c0-3.438 2.79-6.228 6.228-6.228z" fill-opacity=".3" fill-rule="nonzero"/>
 <path d="m39.44 2.332c3.438 0 6.228 2.79 6.228 6.228v8.217h-14.445v-14.445z" fill-opacity=".1" fill-rule="nonzero"/>
 <path d="m16.777 31.223h14.445v14.445h-14.445z" fill-opacity=".1"/>
 <path d="m45.668 39.44c0 3.438-2.79 6.228-6.228 6.228h-8.217v-14.445h14.445z" fill-opacity=".5" fill-rule="nonzero"/>
 <path d="m2.332 16.777h14.445v14.445h-14.445z" fill-opacity=".5"/>
 <path d="m16.777 16.777h14.445v14.445h-14.445z" fill-opacity=".3"/>
 <g fill="#3f3f3f" fill-rule="nonzero">
  <path d="m9.659 9.595c-.351 0-.615.117-.792.352-.174.231-.261.58-.261 1.046s.087.816.261 1.051c.177.231.441.347.792.347.354 0 .618-.116.792-.347.177-.235.266-.585.266-1.051s-.089-.815-.266-1.046c-.174-.235-.438-.352-.792-.352zm2.48-3.826v1.473c-.33-.16-.641-.278-.932-.353-.292-.078-.577-.117-.855-.117-.598 0-1.063.171-1.397.512-.333.338-.528.842-.583 1.51.229-.174.477-.304.745-.389.267-.089.559-.134.875-.134.796 0 1.437.239 1.923.715.49.477.735 1.101.735 1.873 0 .854-.273 1.539-.818 2.055-.545.512-1.277.768-2.194.768-1.011 0-1.794-.349-2.35-1.046-.553-.701-.829-1.693-.829-2.977 0-1.316.323-2.35.97-3.1.649-.755 1.539-1.132 2.668-1.132.357 0 .705.029 1.042.086s.67.142 1 .256z"/>
  <path d="m6.459 19.873h6.191v1.2l-3.203 7.054h-2.063l3.032-6.69h-3.957z"/>
  <path d="m25.401 23.683c.553.138.974.38 1.26.725.29.341.434.776.434 1.305 0 .789-.311 1.389-.935 1.801-.624.409-1.534.613-2.73.613-.421 0-.845-.034-1.271-.101-.422-.064-.84-.162-1.254-.293v-1.583c.396.192.788.338 1.177.437.393.096.778.144 1.156.144.561 0 .99-.094 1.288-.282.3-.189.451-.459.451-.81 0-.363-.154-.636-.462-.821-.305-.188-.756-.282-1.354-.282h-.848v-1.322h.892c.532 0 .928-.08 1.188-.24.261-.163.391-.41.391-.741 0-.305-.126-.541-.38-.708-.253-.167-.61-.251-1.073-.251-.341 0-.686.038-1.034.112-.349.075-.695.185-1.04.331v-1.503c.418-.114.833-.199 1.243-.256.411-.057.815-.085 1.211-.085 1.068 0 1.866.17 2.394.511.532.338.798.848.798 1.53 0 .465-.127.847-.38 1.145-.253.295-.627.503-1.122.624z"/>
  <path d="m37.367 40.511h3.633v1.489h-6v-1.489l3.014-2.532c.269-.232.468-.458.597-.679s.194-.451.194-.689c0-.369-.131-.665-.393-.89-.258-.225-.603-.337-1.034-.337-.332 0-.695.069-1.09.205-.394.134-.816.334-1.266.6v-1.726c.479-.151.953-.265 1.421-.342.469-.081.928-.121 1.377-.121.988 0 1.755.207 2.301.621.549.414.824.991.824 1.732 0 .428-.116.828-.349 1.2-.232.368-.72.863-1.465 1.484z"/>
 </g>
</svg>
