<svg clip-rule="evenodd" fill-rule="evenodd" stroke-linejoin="round" stroke-miterlimit="2" viewBox="0 0 48 48" xmlns="http://www.w3.org/2000/svg">
 <linearGradient id="a" x2="1" gradientTransform="matrix(0 -45.406 45.406 0 24.061 46.692)" gradientUnits="userSpaceOnUse">
  <stop stop-color="#00736d" offset="0"/>
  <stop stop-color="#00c178" stop-opacity=".98" offset="1"/>
 </linearGradient>
 <circle cx="24.061" cy="23.989" r="22.703" fill="url(#a)"/>
 <path d="m29.065 26.246c.564-.338.909-.947.909-1.604 0-.658-.345-1.267-.909-1.605-2.193-1.316-5.29-3.174-7.525-4.516-.579-.346-1.299-.356-1.885-.023-.587.332-.95.954-.95 1.628v9.031c0 .674.363 1.296.95 1.628.586.333 1.306.324 1.885-.023 2.235-1.342 5.332-3.2 7.525-4.516zm-5.065-17.246c8.31 0 15 6.69 15 15s-6.69 15-15 15-15-6.69-15-15 6.69-15 15-15z" fill="#fff" fill-opacity=".82"/>
</svg>
