<svg clip-rule="evenodd" fill-rule="evenodd" stroke-linejoin="round" stroke-miterlimit="2" viewBox="0 0 48 48" xmlns="http://www.w3.org/2000/svg">
 <linearGradient id="a" x2="1" gradientTransform="matrix(0 -44.4561 44.4561 0 24.041 45.6921)" gradientUnits="userSpaceOnUse">
  <stop stop-color="#940e1d" offset="0"/>
  <stop stop-color="#fd6820" offset="1"/>
 </linearGradient>
 <linearGradient id="b" x2="1" gradientTransform="matrix(1.0391 -13.685 13.685 1.0391 23.8262 30.681)" gradientUnits="userSpaceOnUse">
  <stop stop-color="#ececec" stop-opacity=".88" offset="0"/>
  <stop stop-color="#fefefe" stop-opacity=".88" offset="1"/>
 </linearGradient>
 <circle cx="24.041" cy="24.034" r="22.798" fill="url(#a)"/>
 <path d="m35.291 20.181c-.129-1.544-1.049-3.49-2.94-3.56-5.282-.355-11.538-.452-16.915 0-1.668.187-2.812 2.219-2.936 3.763-.264 3.242-.264 5.087 0 8.329.126 1.543 1.24 3.587 2.939 3.801 5.44.355 11.667.406 16.914 0 1.647-.285 2.814-2.258 2.94-3.801.262-3.244.262-5.29-.002-8.532zm-14.296 8.48v-8.312l7.247 4.156z" fill="url(#b)" fill-rule="nonzero"/>
</svg>
