<svg clip-rule="evenodd" fill-rule="evenodd" stroke-linecap="round" viewBox="0 0 48 48" xmlns="http://www.w3.org/2000/svg" xmlns:xlink="http://www.w3.org/1999/xlink">
 <linearGradient id="a" x2="1" gradientTransform="matrix(.131484 -10 10 .131484 141.887 14.578)" gradientUnits="userSpaceOnUse">
  <stop stop-color="#727272" offset="0"/>
  <stop stop-color="#eee" offset="1"/>
 </linearGradient>
 <linearGradient id="b">
  <stop stop-color="#d9d9d9" offset="0"/>
  <stop stop-color="#eee" offset="1"/>
 </linearGradient>
 <linearGradient id="c" x2="1" gradientTransform="matrix(3.5 0 0 3.5 4 5.5)" gradientUnits="userSpaceOnUse" xlink:href="#b"/>
 <linearGradient id="d" x2="1" gradientTransform="matrix(-3.48396 0 0 -3.48396 43.984 5.5)" gradientUnits="userSpaceOnUse" xlink:href="#b"/>
 <linearGradient id="e" x2="1" gradientTransform="matrix(0 -37 37 0 1356 46)" gradientUnits="userSpaceOnUse">
  <stop stop-color="#d6d6d6" offset="0"/>
  <stop stop-color="#fff" offset="1"/>
 </linearGradient>
 <linearGradient id="f">
  <stop stop-color="#ececec" offset="0"/>
  <stop stop-color="#fff" offset="1"/>
 </linearGradient>
 <linearGradient id="g" x2="1" gradientTransform="matrix(5.5 0 0 5.5 40.5 8.25)" gradientUnits="userSpaceOnUse" xlink:href="#f"/>
 <linearGradient id="h" x2="1" gradientTransform="matrix(5.5 0 0 5.5 2 9)" gradientUnits="userSpaceOnUse" xlink:href="#f"/>
 <linearGradient id="i" x2="1" gradientTransform="matrix(0 -402405 402405 0 -86202.5 402407)" gradientUnits="userSpaceOnUse">
  <stop stop-color="#cdcdcd" offset="0"/>
  <stop stop-color="#fff" offset="1"/>
 </linearGradient>
 <linearGradient id="j" x2="1" gradientTransform="matrix(0 -25.008 25.008 0 311.492 36.504)" gradientUnits="userSpaceOnUse">
  <stop stop-color="#404040" offset="0"/>
  <stop stop-color="#606060" offset="1"/>
 </linearGradient>
 <g transform="matrix(.984909 0 0 .984909 .362182 .369727)">
  <path d="m4 3h40v10h-40z" fill="url(#a)"/>
  <path d="m4 3v27l3.5-24.5z" fill="url(#c)" fill-rule="nonzero"/>
  <path d="m44 3v5l-3.5-2.5z" fill="url(#d)" fill-rule="nonzero"/>
  <path d="m7.5 5.5 7.7 5.5h-11.2z" fill-opacity=".08" fill-rule="nonzero"/>
 </g>
 <path d="m45.668 9.234v30.206c0 3.438-2.79 6.228-6.228 6.228h-30.88c-3.438 0-6.228-2.79-6.228-6.228v-30.206z" fill="url(#e)"/>
 <path transform="matrix(.984909 0 0 .984909 .362182 .369727)" d="m46 9h-5.5v-3.5z" fill="url(#g)" fill-rule="nonzero"/>
 <path transform="matrix(.984909 0 0 .984909 .362182 .369727)" d="m7.5 5.5-5.5 3.5h5.5z" fill="url(#h)" fill-rule="nonzero"/>
 <circle cx="14.150908" cy="14.158453" r="1.969818" fill-opacity=".3" stroke-width=".984909"/>
 <circle cx="33.849088" cy="14.158453" r="1.969818" fill-opacity=".3" stroke-width=".984909"/>
 <path transform="matrix(.984909 0 0 .984909 .362182 .369727)" d="m34 13c0-5.486-4.514-10-10-10s-10 4.514-10 10" fill="none" stroke="url(#i)" stroke-width="2.4"/>
 <path transform="matrix(.787675 0 0 .787675 5.09579 10.6755)" d="m31.416 34.066c-2.076 1.532-4.641 2.438-7.416 2.438-6.901 0-12.504-5.603-12.504-12.504s5.603-12.504 12.504-12.504c2.775 0 5.34.906 7.416 2.438v-1.671h5.088v23.474h-5.088zm2.82-11.211c-.033-.289-.371-.506-.664-.506-.942 0-1.779-.554-2.13-1.412-.361-.877-.128-1.902.574-2.547.222-.201.248-.54.063-.777-.483-.613-1.033-1.167-1.632-1.648-.234-.188-.58-.161-.781.064-.615.679-1.718.933-2.57.576-.886-.372-1.446-1.271-1.391-2.236.018-.302-.204-.566-.507-.601-.769-.09-1.543-.091-2.316-.006-.299.033-.52.291-.511.588.034.956-.533 1.84-1.41 2.199-.841.343-1.938.094-2.549-.581-.203-.221-.541-.249-.779-.065-.616.484-1.179 1.039-1.666 1.648-.189.236-.162.579.061.783.72.649.951 1.682.577 2.569-.355.847-1.235 1.392-2.24 1.392-.328-.009-.56.209-.595.506-.092.775-.092 1.562-.006 2.342.033.291.382.508.675.508.897-.024 1.759.531 2.121 1.411.36.878.129 1.901-.576 2.546-.221.203-.249.542-.063.777.478.611 1.026 1.164 1.63 1.648.235.192.579.163.784-.061.615-.682 1.719-.934 2.567-.579.888.372 1.448 1.271 1.393 2.237-.018.303.204.565.507.602.393.044.789.069 1.187.069.376 0 .753-.022 1.129-.064.299-.033.521-.291.511-.59-.034-.955.531-1.837 1.409-2.196.847-.346 1.939-.093 2.551.581.202.22.539.248.777.065.617-.485 1.176-1.038 1.667-1.648.189-.236.162-.58-.061-.783-.717-.649-.952-1.682-.579-2.57.352-.835 1.198-1.397 2.108-1.397l.128.004c.295.025.566-.204.601-.504.092-.775.092-1.563.006-2.344zm-10.22 4.602c-1.894 0-3.435-1.541-3.435-3.436 0-1.894 1.541-3.436 3.435-3.436 1.895 0 3.436 1.542 3.436 3.436 0 1.895-1.541 3.436-3.436 3.436z" fill="url(#j)"/>
</svg>
