<svg clip-rule="evenodd" fill-rule="evenodd" stroke-linecap="round" stroke-linejoin="round" viewBox="0 0 48 48" xmlns="http://www.w3.org/2000/svg">
 <linearGradient id="a" x2="1" gradientTransform="matrix(0 -43.336 43.336 0 24.5955 45.668)" gradientUnits="userSpaceOnUse">
  <stop stop-color="#262626" offset="0"/>
  <stop stop-color="#3f3f3f" offset="1"/>
 </linearGradient>
 <path d="m45.668 8.587c0-3.452-2.803-6.255-6.255-6.255h-30.826c-3.452 0-6.255 2.803-6.255 6.255v30.826c0 3.452 2.803 6.255 6.255 6.255h30.826c3.452 0 6.255-2.803 6.255-6.255z" fill="url(#a)"/>
 <g fill="none" stroke-width="7.58">
  <path d="m37.543 19.125s-1.675 13.649-6.501 14.084c-7.193.649-5.796-17.906-13.001-18.418-2.037-.145-4.333 5.417-4.333 5.417" stroke="#2257e1"/>
  <path d="m24.595 22.656c1.288-3.72 2.795-7.644 5.905-7.865 2.038-.145 4.876 5.417 4.876 5.417" stroke="#5be759"/>
  <path d="m10.458 19.125s2.216 13.649 7.042 14.084c3.441.31 4.916-4.068 6.308-8.211" stroke="#11c9ff"/>
 </g>
 <path d="m23.611 13.665-4.285 7.292c.525 1.25 1.061 2.891 1.602 4.613.728 2.321 1.448 4.786 2.81 7.057.425.709.925 1.416 1.559 2.061l4.092-7.812c-.397-1.021-.812-2.26-1.225-3.576-.722-2.301-1.453-4.819-2.744-7.157-.462-.837-1.067-1.701-1.809-2.478z" fill="#2257e1" fill-rule="nonzero"/>
</svg>
