<svg clip-rule="evenodd" fill-rule="evenodd" stroke-linejoin="round" stroke-miterlimit="2" viewBox="0 0 48 48" xmlns="http://www.w3.org/2000/svg">
 <linearGradient id="a" x2="1" gradientTransform="matrix(0 -36.2165 36.2165 0 489.464 42.119)" gradientUnits="userSpaceOnUse">
  <stop stop-color="#47ab03" offset="0"/>
  <stop stop-color="#75d706" offset="1"/>
 </linearGradient>
 <path d="m39.44 2.332c3.438 0 6.228 2.79 6.228 6.228v30.88c0 3.438-2.79 6.228-6.228 6.228h-30.88c-3.438 0-6.228-2.79-6.228-6.228v-30.88c0-3.438 2.79-6.228 6.228-6.228z" fill="url(#a)"/>
 <path d="m34.253 18.345c-.579-.564-1.278-.846-2.097-.846h-2.595l-.591-1.535c-.147-.369-.415-.687-.805-.954s-.79-.401-1.199-.401h-5.931c-.409 0-.809.134-1.199.401s-.658.585-.805.954l-.591 1.535h-2.595c-.819 0-1.518.282-2.097.846s-.869 1.245-.869 2.043v10.113c0 .798.29 1.479.869 2.043s1.278.847 2.097.847h16.31c.819 0 1.517-.282 2.097-.847.579-.564.869-1.245.869-2.043v-10.113c0-.798-.29-1.479-.869-2.043m-6.586 10.672c-1.016.99-2.238 1.484-3.666 1.484-1.429 0-2.651-.495-3.667-1.484s-1.523-2.18-1.523-3.572.508-2.582 1.523-3.571c1.016-.99 2.238-1.484 3.667-1.484 1.428 0 2.65.495 3.666 1.484s1.523 2.179 1.523 3.571-.508 2.583-1.523 3.572m-3.666-6.822c-.919 0-1.705.318-2.358.954s-.979 1.4-.979 2.296.326 1.661.979 2.297 1.438.954 2.358.954c.918 0 1.704-.318 2.357-.954s.979-1.402.979-2.297c0-.896-.326-1.66-.979-2.296s-1.439-.954-2.357-.954" fill="#fff" fill-opacity=".74" fill-rule="nonzero"/>
</svg>
