<svg clip-rule="evenodd" fill-rule="evenodd" stroke-linejoin="round" stroke-miterlimit="2" viewBox="0 0 48 48" xmlns="http://www.w3.org/2000/svg">
 <linearGradient id="a" x2="1" gradientTransform="matrix(0 -40 40 0 24 44)" gradientUnits="userSpaceOnUse">
  <stop stop-color="#dee5e5" offset="0"/>
  <stop stop-color="#fff" offset="1"/>
 </linearGradient>
 <g transform="matrix(1.0834 0 0 1.0834 -2.0016 -2.0016)">
  <path d="m44 9.538v28.924c0 3.056-2.482 5.538-5.538 5.538h-28.924c-3.056 0-5.538-2.482-5.538-5.538v-28.924c0-3.056 2.482-5.538 5.538-5.538h28.924c3.056 0 5.538 2.482 5.538 5.538z" fill="url(#a)"/>
  <g fill-rule="nonzero">
   <path d="m38.564 22.299c.271.014.459.248.436.517v1.689c.04.282-.185.535-.469.495h-5.743c-1.494 0-2.788.205-2.788 1.368l.026.955c0 .901.813 1.144 2.404 1.726l4.321 1.713c2.99 1.13 3.249 2.778 3.249 4.554v.361c0 3.617-2.174 4.075-6.563 4.075-2.827 0-5.392.021-5.945-.044-.39-.03-.487-.225-.487-.483v-1.721c-.042-.283.202-.546.487-.504h6.01c2.599 0 3.472-.142 3.498-1.361l-.039-.779c0-.937-.436-1.16-1.931-1.77l-4.914-1.755c-2.502-.969-3.12-2.843-3.12-4.619v-.677c.039-3.032 3.107-3.909 6.87-3.843 1.661.029 3.035.021 4.698.103z" fill="#303030"/>
   <path d="m37.952 9.243c-.979-.799-2.205-1.235-3.469-1.235h-20.97c-.895 0-1.776.218-2.568.635-.934.493-1.708 1.241-2.233 2.157-.1.186-.186.361-.271.545-.048.127-.102.251-.145.372-.088.252-.154.51-.199.772-.067.34-.099.686-.097 1.033v20.962c-.002.827.184 1.644.545 2.388.919 1.908 2.85 3.121 4.968 3.12h11.194c.164 0 .297-.134.297-.298v-1.337c0-.165-.133-.364-.297-.357h-1.453l-4.336-8.722 9.892-13.11c.086-.115.149-.246.186-.385l9.005 1.388v2.546c.001.164.193.283.357.283h1.344c.164-.001.296-.12.298-.283v-6.195c.001-1.663-.752-3.237-2.048-4.279zm-11.407.75.468 3.681-7.328-1.116-.331-2.551zm-13.032 0h4.038l.289 2.28-5.354-.818-1.688-.26c.676-.798 1.669-1.204 2.715-1.202zm4.079 4.049-3.737 4.967-2.957-5.993zm-7.592 1.061 2.332 4.851-2.332.293zm0 6.947 3.164-.408 3.348 6.769-6.512.828zm11.262 15.95h-7.451c-2.137-.005-3.805-1.677-3.811-3.814v-3.149l7.337-.93zm-3.225-10.512-3.302-6.696 4.855-6.433v-.012l7.488 1.146zm19.962-12.125-9.161-1.41-.502-3.96h5.85c2.135.005 3.807 1.681 3.813 3.817z" fill="#a42020"/>
  </g>
 </g>
</svg>
