<svg clip-rule="evenodd" fill-rule="evenodd" stroke-linejoin="round" stroke-miterlimit="2" viewBox="0 0 48 48" xmlns="http://www.w3.org/2000/svg">
 <linearGradient id="a" x2="1" gradientTransform="matrix(0 -43.3373 43.3373 0 201.9 45.6687)" gradientUnits="userSpaceOnUse">
  <stop stop-color="#0d4263" offset="0"/>
  <stop stop-color="#547b94" offset="1"/>
 </linearGradient>
 <path d="m45.668 8.56c0-3.438-2.79-6.228-6.228-6.228h-30.88c-3.438 0-6.228 2.79-6.228 6.228v30.88c0 3.438 2.79 6.228 6.228 6.228h30.88c3.438 0 6.228-2.79 6.228-6.228z" fill="url(#a)"/>
 <path transform="matrix(.875375 0 0 .875375 -4.01202 -4.01202)" d="m37 41h-10v10h10zm-14 0h-10v10h10zm14-14h-10v10h10zm14 0h-10v10h10zm-28 0h-10v10h10zm14-14h-10v10h10zm14 0h-10v10h10z" fill="#fff"/>
 <path transform="scale(.75)" d="m60.35 41c.911 0 1.65.739 1.65 1.65v18.7c0 .911-.739 1.65-1.65 1.65h-18.7c-.911 0-1.65-.739-1.65-1.65v-18.7c0-.911.739-1.65 1.65-1.65z" fill="#ac4b55"/>
 <path d="m33.75 35.25h-1.125c-.621 0-1.125-.504-1.125-1.125s.504-1.125 1.125-1.125h2.25c.621 0 1.125.504 1.125 1.125v9.75c0 .621-.504 1.125-1.125 1.125s-1.125-.504-1.125-1.125zm7.5 6.75h-2.625c-.404 0-.776-.216-.977-.566-.2-.351-.197-.782.007-1.129l3.75-6.375c.258-.438.776-.649 1.266-.515.489.133.829.578.829 1.085v5.25h.375c.621 0 1.125.504 1.125 1.125s-.504 1.125-1.125 1.125h-.375v1.875c0 .621-.504 1.125-1.125 1.125s-1.125-.504-1.125-1.125zm-.658-2.25h.658v-1.119z" fill="#fff"/>
</svg>
