<svg clip-rule="evenodd" fill-rule="evenodd" stroke-linejoin="round" stroke-miterlimit="2" viewBox="0 0 48 48" xmlns="http://www.w3.org/2000/svg">
 <linearGradient id="a" x2="1" gradientTransform="matrix(0 -44.5006 44.5006 0 19.8943 46.2503)" gradientUnits="userSpaceOnUse">
  <stop stop-color="#e4e4e4" offset="0"/>
  <stop stop-color="#ffffff" offset="1"/>
 </linearGradient>
 <path d="m19.894 1.75v7.787c7.934 0 14.463 6.529 14.463 14.463s-6.529 14.463-14.463 14.463v7.787c12.289 0 22.251-9.961 22.251-22.25s-9.962-22.25-22.251-22.25z" fill="url(#a)" fill-rule="nonzero"/>
 <circle cx="19.894" cy="24" r="11.125" fill="#556af7"/>
 <path d="m12.242 23.468-.008.015-.024.049-.022.049-.009.024-.005.013-.005.014-.007.021-.005.016-.004.014-.006.019-.005.02-.003.013-.004.018-.006.023-.002.012-.003.017-.004.026-.002.009-.002.021-.004.025v.007l-.004.054-.001.053c0 .018 0 .037.001.055l.004.052v.007l.004.025.002.021.002.009.004.026.003.017.002.012.006.023.004.018.003.013.005.02.006.019.004.014.005.016.007.021.005.014.005.013.009.024.006.014.004.009.012.026.024.049.008.015c.05.091.113.177.191.255l4.45 4.45c.434.434 1.139.434 1.573 0s.434-1.139 0-1.574l-2.551-2.55h10.664c.614 0 1.113-.499 1.113-1.113s-.499-1.113-1.113-1.113h-10.664l2.551-2.55c.434-.435.434-1.14 0-1.574s-1.139-.434-1.573 0l-4.45 4.45c-.078.078-.141.164-.191.255z" fill="#ffffff"/>
</svg>
