<svg clip-rule="evenodd" fill-rule="evenodd" stroke-linejoin="round" stroke-miterlimit="2" viewBox="0 0 48 48" xmlns="http://www.w3.org/2000/svg">
 <linearGradient id="a" x2="1" gradientTransform="matrix(0 -43.3373 43.3373 0 404.026 45.6687)" gradientUnits="userSpaceOnUse">
  <stop stop-color="#fdb4a6" offset="0"/>
  <stop stop-color="#222359" offset="1"/>
 </linearGradient>
 <linearGradient id="b" x2="1" gradientTransform="matrix(-2.8385 -7.52729 7.52729 -2.8385 1507.04 -521.003)" gradientUnits="userSpaceOnUse">
  <stop stop-color="#ffb6a8" offset="0"/>
  <stop stop-color="#e08d86" stop-opacity=".9" offset=".23"/>
  <stop stop-color="#dd7a74" stop-opacity=".86" offset=".43"/>
  <stop stop-color="#bd717f" stop-opacity=".68" offset=".75"/>
  <stop stop-color="#8d71bb" stop-opacity="0" offset="1"/>
 </linearGradient>
 <path d="m45.668 8.56c0-3.438-2.79-6.228-6.228-6.228h-30.88c-3.438 0-6.228 2.79-6.228 6.228v17.138c0 3.438 3.193 15.273 6.631 15.273h30.362c3.438 0 6.343-2.089 6.343-5.527z" fill="url(#a)"/>
 <g fill-rule="nonzero">
  <path d="m17.063 43.846c.104 0 .178.007.284.007h13.31c1.635 0 3.094-.029 4.397-.106.651-.038 1.264-.088 1.839-.152.542-.059 1.081-.138 1.617-.237.503-.095.972-.207 1.409-.336.436-.13.841-.279 1.215-.448.36-.162.706-.354 1.034-.574.311-.209.601-.448.867-.713.265-.265.504-.555.714-.866.22-.327.412-.673.574-1.032.17-.374.318-.778.448-1.214.131-.436.242-.904.337-1.407s.173-1.041.237-1.616c.067-.61.118-1.223.153-1.836.077-1.302.106-2.76.106-4.393v-12.911c-15.092.477-29.455 9.754-33.946 20.219-.866 2.005 5.619 5.442 5.405 7.615z" fill="url(#b)"/>
  <path d="m34.261 6.889c-4.145 0-7.505 3.36-7.505 7.505s3.36 7.505 7.505 7.505 7.506-3.36 7.506-7.505-3.361-7.505-7.506-7.505z" fill="#474465"/>
  <path d="m39.363 8.891c.735 1.185 1.124 2.552 1.122 3.947 0 4.145-3.36 7.505-7.505 7.505-1.971 0-3.763-.761-5.102-2.003 1.323 2.136 3.686 3.559 6.383 3.559 4.145 0 7.506-3.36 7.506-7.505 0-2.175-.926-4.132-2.404-5.503z" fill="#e1e1e1"/>
  <path d="m16.407 40.971s24.331-1.206 24.897-1.446c2.118-.898 4.364-2.552 4.364-4.489 0-1.49-.064-3.544-.064-3.544-11.94.474-24.918 5.098-29.197 9.479z" fill="#7e578e"/>
 </g>
 <path d="m45.668 34.963v4.477c0 .495-.071 1.067-.224 1.66-.674 2.441-2.797 4.282-5.384 4.538 0 0-26.069-.005-32.162-.005-3.071-.325-5.479-2.885-5.564-6.022.006-1.117.005-12.556-.002-13.913.567-1.104 1.405-2.782 1.405-2.782l.959 1.97.6-1.146.818 3.321.975-2.238.455 1.638.385-.326.304 2.917.66-.236.647-.796.404.827.155 1.14.497.335.641-1.057 1.048 1.86h1.367l.835-.636.951 1.718 1.515-.664 1.132 1.528 1.308.004 2.204 1.309s5.096 2.072 8.151 2.101c5.57.055 8.94-2.101 8.94-2.101l.995-1.608.682.392.609-.961 1.099 1.239.643-2.321.813 1.744.826-.662s.809 2.343 1.313 2.756z" fill="#292929"/>
 <path d="m13.762 20.602c.295 0 .535.24.535.535s-.24.534-.535.534-.535-.239-.535-.534.24-.535.535-.535zm2.288-3.813c.475 0 .861.386.861.862 0 .475-.386.861-.861.861-.476 0-.862-.386-.862-.861 0-.476.386-.862.862-.862zm-5.965-1.253c.461 0 .834.374.834.835 0 .46-.373.834-.834.834-.46 0-.834-.374-.834-.834 0-.461.374-.835.834-.835zm1.907-1.579c.189 0 .344.154.344.344s-.155.344-.344.344c-.19 0-.344-.154-.344-.344s.154-.344.344-.344zm-3.987-3.694c.731 0 1.325.594 1.325 1.325s-.594 1.324-1.325 1.324c-.73 0-1.324-.593-1.324-1.324s.594-1.325 1.324-1.325zm6.973-1.58c.46 0 .834.374.834.835 0 .46-.374.834-.834.834-.461 0-.835-.374-.835-.834 0-.461.374-.835.835-.835zm-4.113-.871c.295 0 .535.24.535.535s-.24.534-.535.534-.535-.239-.535-.534.24-.535.535-.535z" fill="#e1e1e1"/>
</svg>
