<svg width="48" height="48" xmlns="http://www.w3.org/2000/svg">
 <path d="m24 14a10 10 0 0 0-10 10 10 10 0 0 0 10 10 10 10 0 0 0 10-10 10 10 0 0 0-10-10zm0 6c2.209 0 4 1.791 4 4s-1.791 4-4 4-4-1.791-4-4c0-2.2091 1.7909-4 4-4z" fill="#848484"/>
 <path d="m24 4c-11.08 0-20 8.92-20 20s8.92 20 20 20 20-8.92 20-20-8.92-20-20-20zm0 12a8 8 0 0 1 8 8 8 8 0 0 1-8 8 8 8 0 0 1-8-8 8 8 0 0 1 8-8z" fill="#e4e4e4"/>
 <path d="m23.981 4c11.07 0 19.982 8.92 19.982 20 0 .16787-.008.33314-.01169.5-.264-10.846-9.068-19.5-19.97-19.5s-19.706 8.654-19.97 19.5c-.0033-.167-.011-.332-.011-.5 0-11.08 8.912-20 19.982-20zm3.9456 20.5c.02088.16551.05075.32883.05075.5 0 2.2091-1.7892 4-3.9963 4s-3.9963-1.7909-3.9963-4c0-.17117.02987-.33449.05075-.5.24818 1.9706 1.9095 3.5 3.9456 3.5s3.6974-1.5294 3.9456-3.5z" fill="#fff" opacity=".2"/>
 <path d="m4.0117 24.5c-.0041.167-.0117.332-.0117.5 0 11.08 8.92 20 20 20s20-8.92 20-20c0-.168-.008-.333-.012-.5-.264 10.846-9.076 19.5-19.988 19.5s-19.724-8.654-19.988-19.5z" opacity=".2"/>
 <circle cx="36" cy="37" r="11" opacity=".2"/>
 <circle cx="36" cy="36" r="11" fill="#e14242"/>
 <g transform="matrix(.70710678 -.70710678 .70710678 .70710678 -14.911688 36)" fill="#fff">
  <path d="m34.5 28.5h3v15h-3z"/>
  <path transform="rotate(90)" d="m34.5-43.5h3v15h-3z"/>
 </g>
</svg>
