<svg clip-rule="evenodd" fill-rule="evenodd" stroke-linejoin="round" stroke-miterlimit="2" viewBox="0 0 48 48" xmlns="http://www.w3.org/2000/svg">
 <path d="m15.05 24.95 17 17c2.732 2.732 7.168 2.732 9.9 0s2.732-7.168 0-9.9l-17-17c-2.732-2.732-7.168-2.732-9.9 0s-2.732 7.168 0 9.9z" fill="#e52030"/>
 <path d="m8 4c-2.194 0-4 1.806-4 4s1.806 4 4 4 4-1.806 4-4-1.806-4-4-4zm-.049 2h.049c1.097 0 2 .903 2 2s-.903 2-2 2-2-.903-2-2c0-1.079.873-1.974 1.951-2z" fill="#c6c6c6" fill-rule="nonzero"/>
 <path d="m17.879 22.121 17 17c1.17 1.171 3.072 1.171 4.242 0 1.171-1.17 1.171-3.072 0-4.242l-17-17c-1.17-1.171-3.072-1.171-4.242 0-1.171 1.17-1.171 3.072 0 4.242z" fill="#fcfcfc"/>
 <circle cx="12" cy="11" r="2" fill="#929292"/>
 <circle cx="20" cy="20" r="12" fill="#e52030"/>
</svg>
