<svg clip-rule="evenodd" fill-rule="evenodd" stroke-linejoin="round" stroke-miterlimit="2" viewBox="0 0 48 48" xmlns="http://www.w3.org/2000/svg">
 <circle cx="24" cy="24" r="22.764" fill="#2f6663" stroke-width="1.1382"/>
 <g transform="matrix(1.1382 0 0 1.1382 -3.3168 -3.3168)" fill-rule="nonzero">
  <path d="m15.992 10.17c-4.933 2.852-7.984 8.132-7.992 13.83h16z" fill="#73d216"/>
  <path d="m8 24c6e-3 5.7 3.058 10.981 7.992 13.834l8.008-13.834z" fill="#ffe721"/>
  <path d="m24 24-8.008 13.834c2.432 1.413 5.195 2.161 8.008 2.166 2.813-.007 5.576-.755 8.008-2.17z" fill="#f57900"/>
  <path d="m24 24 8.008 13.83c4.933-2.852 7.984-8.132 7.992-13.83z" fill="#ef298c"/>
  <path d="m32.008 10.166-8.008 13.834h16c-.006-5.7-3.058-10.981-7.992-13.834z" fill="#8c398d"/>
  <path d="m24 8c-2.813.007-5.575.756-8.006 2.17l8.006 13.83 8.01-13.834c-2.433-1.414-5.196-2.161-8.01-2.166z" fill="#0874ff"/>
  <path d="m23.969 13.922c-1.783.002-3.736.609-5.297 2.076-1.969 1.85-2.844 4.095-2.602 6.123.243 2.028 1.311 3.626 2.364 5.061 1.052 1.434 2.156 2.743 2.83 3.894.637 1.09.832 1.867.674 2.651-.227.47-.951 1.114-2.155 1.574-1.265.483-2.871.726-3.986.715-.529-.006-3.788-.567-4.555-.873l-1.244 3.113c.366.367.746.719 1.139 1.057 1.595.447 3.36.69 4.621.703 1.66.016 3.61-.275 5.453-.979s3.729-1.85 4.535-3.971c.027-.069.05-.14.068-.212.555-2.166-.158-4.192-1.097-5.797-.939-1.606-2.132-2.979-3.059-4.243-.927-1.263-1.521-2.378-1.615-3.168-.094-.789.019-1.467 1.367-2.734.809-.76 1.585-.989 2.563-.99.977-.001 2.128.314 3.209.795 2.161.96 3.894 2.453 3.894 2.453l2.635-3.01s-2.074-1.84-4.904-3.097c-1.415-.629-3.055-1.143-4.838-1.141z" fill="#2f6663"/>
 </g>
</svg>
