<svg clip-rule="evenodd" fill-rule="evenodd" stroke-linejoin="round" stroke-miterlimit="2" viewBox="0 0 48 48" xmlns="http://www.w3.org/2000/svg">
 <linearGradient id="a" x2="1" gradientTransform="matrix(0 -33.6872 33.6872 0 923.28 40.4502)" gradientUnits="userSpaceOnUse">
  <stop stop-color="#4f4f4f" offset="0"/>
  <stop stop-color="#6c6c6c" offset="1"/>
 </linearGradient>
 <linearGradient id="b" x2="1" gradientTransform="matrix(0 -28 36.4566 0 24 38)" gradientUnits="userSpaceOnUse">
  <stop stop-color="#3b3b3b" offset="0"/>
  <stop stop-color="#515151" offset="1"/>
 </linearGradient>
 <path d="m39.44 45.668h-30.88c-3.438 0-6.228-2.79-6.228-6.228v-30.88c0-3.438 2.79-6.228 6.228-6.228h30.88c3.438 0 6.228 2.79 6.228 6.228v30.88c0 3.438-2.79 6.228-6.228 6.228z" fill="url(#a)"/>
 <g fill-rule="nonzero">
  <path transform="matrix(1 0 0 1.30202 0 -7.24849)" d="m6 10h36v28h-36z" fill="url(#b)"/>
  <path transform="translate(0 2.85856)" d="m33.652 23-3.652.307.096 13.57h2.502v-.725c.364.205.758.399 1.189.573.432.183.882.275 1.371.275.633 0 1.247-.113 1.832-.348s1.093-.57 1.543-1.009c.441-.44.796-.991 1.065-1.645.268-.643.402-1.389.402-2.236 0-.633-.106-.956-.326-1.559-.221-.602-.517-1.143-.91-1.623s-.844-.858-1.371-1.154c-.528-.296-1.114-.44-1.747-.44-.488 0-.88.073-1.187.205-.307.133-.623.297-.949.491zm-19.949.012c-.72.03-1.392.159-2.025.388-.634.23-1.192.55-1.662.969-.48.429-.855.938-1.123 1.537-.279.599-.402 1.278-.383 2.047.009.449.094.848.258 1.197.163.35.375.649.625.909.24.269.518.49.816.679.298.19.605.349.902.479.298.13.567.24.826.31.26.08.46.14.624.18.24.1.452.199.634.299.173.1.258.24.268.43.009.289-.114.489-.383.609s-.596.189-.99.209c-.269.01-.538-.01-.807-.08-.278-.07-.537-.141-.797-.231-.259-.089-.488-.179-.709-.289s-.413-.19-.576-.25l-1.201 3.526c.317.149.662.3 1.018.429.355.14.729.26 1.113.36.374.1.759.169 1.152.219.394.049.768.07 1.133.06.807-.03 1.557-.161 2.258-.391.701-.229 1.295-.547 1.795-.957.499-.409.883-.908 1.162-1.507.278-.599.394-1.288.365-2.067-.019-.549-.126-1.028-.308-1.428-.183-.399-.411-.739-.69-1.029-.278-.289-.596-.529-.941-.728-.346-.2-.682-.38-1.008-.53-.279-.119-.558-.209-.856-.279l-.259-.07c-.173-.04-.412-.089-.719-.158-.077-.01-.174-.032-.289-.041-.115-.01-.231-.041-.336-.071-.115-.03-.212-.069-.289-.119s-.115-.109-.115-.199c.009-.19.086-.349.25-.459.163-.11.345-.19.566-.24.211-.05.433-.071.654-.071.231 0 .413.012.557.032.461.069.863.159 1.219.289.345.129.729.279 1.152.468l.941-3.802c-.566-.25-1.181-.42-1.834-.53-.662-.099-1.325-.129-1.988-.099zm9.399 3.988-4.102.297v6.861c0 .921.297 1.624.879 2.11.582.485 1.336.732 2.283.732.719 0 1.346-.129 1.883-.377.536-.247.925-.673 1.176-1.277h.035v1.506l3.459-.129.285-9.723-4.027.297.115 6.062c.011.267-.068.445-.217.554-.16.109-.665.168-.916.168-.308 0-.625-.059-.773-.178-.149-.108-.207-.297-.196-.554zm12.484 3.002c.223.019.436.077.621.164s.35.204.477.35c.126.145.213.32.261.504.059.193.069.386.039.58-.029.193-.108.378-.214.543-.117.164-.261.319-.446.455-.184.135-.4.24-.662.308-.252.078-.495.108-.728.088-.243-.01-.456-.067-.641-.154s-.341-.195-.467-.34-.223-.31-.271-.504c-.059-.194-.069-.386-.039-.58.029-.184.108-.369.224-.543.107-.165.261-.32.446-.465.184-.135.409-.241.662-.308.262-.078.505-.108.738-.098z" fill="#ff9121"/>
 </g>
</svg>
