<svg clip-rule="evenodd" fill-rule="evenodd" stroke-linejoin="round" stroke-miterlimit="2" viewBox="0 0 48 48" xmlns="http://www.w3.org/2000/svg">
 <g transform="matrix(1.1382 0 0 1.1382 -3.3168 -3.3168)" fill-rule="nonzero">
  <path d="m24 4c10.972 0 20 9.028 20 20h-20z" fill="#196260"/>
  <path d="m24 44c-10.972 0-20-9.028-20-20h20z" fill="#97c33d"/>
  <path d="m4 24 4 3 4-3z" fill="#5d7dbd"/>
  <path d="m24 4c-10.972 0-20 9.028-20 20h20z" fill="#5d7dbd"/>
  <path d="m44 24-4-3-4 3z" fill="#3f96b9"/>
  <path d="m24 44c10.972 0 20-9.028 20-20h-20z" fill="#3f96b9"/>
  <path d="m24 44 3-4-3-4z" fill="#97c33d"/>
  <path d="m24 4-3 4 3 4z" fill="#196260"/>
 </g>
 <circle cx="24" cy="24" r="13.6584" fill="#f9f9f9" stroke-width="1.1382"/>
</svg>
