<svg clip-rule="evenodd" fill-rule="evenodd" stroke-linejoin="round" viewBox="0 0 48 48" xmlns="http://www.w3.org/2000/svg">
 <linearGradient id="a" x2="1" gradientTransform="matrix(0 -32.0609 32.0609 0 24 36.5964)" gradientUnits="userSpaceOnUse">
  <stop stop-color="#2e88e2" offset="0"/>
  <stop stop-color="#36b4ff" offset="1"/>
 </linearGradient>
 <path d="m28.496 42.003v-7.949h-8.992v7.949h-5.62c-.62 0-1.124.234-1.124.522v1.043c0 .288.504.522 1.124.522h20.232c.62 0 1.124-.234 1.124-.522v-1.043c0-.288-.504-.522-1.124-.522z" fill="#727d86"/>
 <path d="m46.48 7.078c0-1.861-1.511-3.372-3.372-3.372h-38.216c-1.861 0-3.372 1.511-3.372 3.372v26.976c0 1.861 1.511 3.372 3.372 3.372h38.216c1.861 0 3.372-1.511 3.372-3.372z" fill="#4f4f4f"/>
 <path d="m45.323 6.82c0-.606-.241-1.187-.669-1.616-.429-.428-1.01-.669-1.615-.669-7.402 0-30.676 0-38.078 0-.605 0-1.186.241-1.615.669-.428.429-.669 1.01-.669 1.616v27.492c0 .606.241 1.187.669 1.615.429.429 1.01.669 1.615.669h38.078c.605 0 1.186-.24 1.615-.669.428-.428.669-1.009.669-1.615 0-5.899 0-21.593 0-27.492z" fill="url(#a)"/>
 <path d="m2.677 23.074h8.78l7.526-11.288 11.288 17.56 5.017-7.526h10.035" fill="none" stroke="#ffffff" stroke-width="2.51"/>
</svg>
