<svg clip-rule="evenodd" fill-rule="evenodd" stroke-linejoin="round" stroke-miterlimit="2" viewBox="0 0 48 48" xmlns="http://www.w3.org/2000/svg">
 <linearGradient id="a" x2="1" gradientTransform="matrix(.797685 -42.8718 42.8718 .797685 192.201 49.5999)" gradientUnits="userSpaceOnUse">
  <stop stop-color="#404e5b" offset="0"/>
  <stop stop-color="#6c7884" offset="1"/>
 </linearGradient>
 <linearGradient id="b" x2="1" gradientTransform="matrix(0 -26.6324 26.6324 0 23.9995 34.4931)" gradientUnits="userSpaceOnUse">
  <stop stop-color="#00042a" offset="0"/>
  <stop stop-color="#001760" offset="1"/>
 </linearGradient>
 <path d="m46.744 24c0 12.488-10.276 22.764-22.764 22.764s-22.764-10.276-22.764-22.764 10.276-22.764 22.764-22.764 22.764 10.276 22.764 22.764z" fill="url(#a)"/>
 <path transform="translate(5e-4 1.32528)" d="m18.229 17.31c-.488 0-.956-.193-1.3-.538-.345-.345-.539-.813-.539-1.301 0-4.216 3.394-7.61 7.609-7.61 4.216 0 7.61 3.394 7.61 7.609v3.798c1.008.003 1.974.405 2.687 1.117.716.716 1.118 1.687 1.118 2.699v7.592c0 1.013-.402 1.983-1.118 2.699s-1.687 1.118-2.699 1.118h-15.195c-1.012 0-1.983-.402-2.699-1.118s-1.118-1.686-1.118-2.699v-7.592c0-1.012.402-1.983 1.118-2.699.713-.712 1.679-1.114 2.687-1.117h11.414v-4.032c0-2.108-1.697-3.805-3.805-3.805-2.107 0-3.804 1.697-3.804 3.805v.235c0 .488-.194.956-.539 1.301s-.812.538-1.3.538zm15.282 5.774c0-.507-.201-.994-.56-1.353s-.846-.561-1.354-.561h-15.195c-.508 0-.995.202-1.354.561s-.56.846-.56 1.353v7.592c0 .508.201.995.56 1.354s.846.561 1.354.561h15.195c.508 0 .995-.202 1.354-.561s.56-.846.56-1.354zm-7.663 6.76c.028.149-.073.271-.224.271h-3.212c-.152 0-.253-.122-.225-.271l.793-2.71c-.462-.258-.911-.862-.911-1.427 0-1.066.864-1.931 1.93-1.931 1.067 0 1.931.865 1.931 1.931 0 .55-.394 1.117-.88 1.397z" fill="url(#b)"/>
</svg>
