<svg clip-rule="evenodd" fill-rule="evenodd" stroke-linejoin="round" stroke-miterlimit="2" viewBox="0 0 48 48" xmlns="http://www.w3.org/2000/svg">
 <g fill-rule="nonzero">
  <path transform="matrix(1.11315 0 0 1.11315 -2.71563 -2.71563)" d="m24.112 4c-.701.008-1.375.048-1.978.137-2.225.374-4.425 1.225-6.322 2.186-5.673 2.922-11.926 10.237-11.81 15.751l.01-.009c.004.194.04.423.107.686.181.707.585 1.65 1.178 2.765 1.185 2.229 3.124 5.141 5.537 8.208 3.693 4.695 7.423 8.391 9.512 9.567l.002.001c1.467.965 2.74.709 3.187.57 1.478-.268 4.768-2.401 8.796-5.838 5.803-4.952 10.959-10.752 11.583-13.02l.022.038c.968-9.165-9.425-16.766-10.757-17.745-2.455-2.058-5.617-3.297-9.067-3.297z" fill="#0060d6"/>
  <g fill="#fff">
   <g transform="matrix(1.11315 0 0 1.11315 -2.71563 -2.71563)" fill-opacity=".15">
    <path d="m24.408 4.006c-.136-.004-.272-.006-.408-.006-7.68 0-13.999 6.3-14 13.957v.085c0 7.657 6.32 13.958 14 13.958s14-6.301 14-13.958v-.085c-.001-7.503-6.069-13.732-13.592-13.951z"/>
    <path d="m4.635 21.34c-.173-.012-.312.023-.413.103-1.038.826 1.915 6.31 6.613 12.282.122.156.245.312.369.467 4.825 6.071 9.668 10.374 10.727 9.532 1.047-.832-1.971-6.408-6.727-12.425-4.37-5.556-8.922-9.846-10.569-9.959z"/>
    <path d="m43.343 24.092c-1.719.101-6.603 3.542-11.604 8.175-4.81 4.457-8.537 8.914-8.997 10.76-.084.333-.06.572.071.714.876.945 6.345-2.679 12.117-8.027 4.815-4.461 8.543-8.922 8.999-10.765.148-.596-.052-.889-.586-.857z"/>
   </g>
   <path transform="matrix(.740389 .844476 -.822286 .760369 -2.56244 -2.84053)" d="m21.292-14.699h16.301v3.448h-5.864v14.24h-4.561v-14.24h-5.876z"/>
   <path transform="matrix(1.62716 2.01702 -.058997 .688382 -2.71563 -2.71563)" d="m6.647 20.51h1.932v6.03h3.391v1.46h-5.323z"/>
   <path transform="matrix(2.13936 -1.9534 -.207979 .769096 -2.71563 -2.71563)" d="m32.484 126.849c-.372.181-.759.317-1.16.408-.401.09-.815.136-1.242.136-.965 0-1.73-.27-2.294-.808-.564-.54-.846-1.273-.846-2.196 0-.934.288-1.669.862-2.205.574-.535 1.361-.803 2.36-.803.385 0 .754.036 1.106.109.354.072.688.179 1.001.322v1.199c-.323-.184-.646-.321-.966-.411-.319-.091-.638-.136-.959-.136-.595 0-1.054.167-1.378.5-.321.332-.481.806-.481 1.425 0 .613.155 1.086.466 1.42.31.334.751.501 1.323.501.155 0 .299-.009.431-.027.134-.021.255-.052.361-.094v-1.125h-.912v-1.001h2.328z"/>
  </g>
 </g>
</svg>
