<svg clip-rule="evenodd" fill-rule="evenodd" stroke-linejoin="round" stroke-miterlimit="2" viewBox="0 0 48 48" xmlns="http://www.w3.org/2000/svg">
 <linearGradient id="a" x2="1" gradientTransform="matrix(0 -44.666 44.666 0 24.1892 46.333)" gradientUnits="userSpaceOnUse">
  <stop stop-color="#aa5050" offset="0"/>
  <stop stop-color="#c46c6c" offset="1"/>
 </linearGradient>
 <g fill-rule="nonzero">
  <path d="m37.02 1.667c2.783 0 5.039 2.257 5.039 5.04v34.586c0 2.783-2.256 5.04-5.039 5.04h-25.149c-2.783 0-5.039-2.257-5.039-5.04v-34.586c0-2.783 2.256-5.04 5.039-5.04z" fill="url(#a)"/>
  <g transform="matrix(1.08482 0 0 1.08482 -1.84658 -2.03575)">
   <path d="m12.223 6v1h3v-1zm4 0v1h3v-1zm4 0v1h2.777v-1zm3.777 0v1h2.5v-1zm3.5 0v1h3v-1zm4 0v1h3v-1zm4 0v1h.969l.334.031.283.09.254.139.221.179.181.221.031.039.2-.164.648-.351-.021-.041-.024-.043-.031-.037-.244-.297-.03-.037-.037-.03-.297-.244-.037-.031-.043-.024-.339-.183-.043-.024-.047-.013-.378-.117-.047-.014-.051-.006-.402-.041-.026-.002h-1.025zm-24.326.029-.127.014-.051.006-.047.014-.377.117-.046.013-.043.024-.34.183-.043.024-.037.031-.297.244-.037.029-.029.037-.193.235h1.765l-.097-.971zm27.81 2.284-.996.099.012.119v2.83h1v-2.886l-.002-.025zm-.984 4.048v3h1v-3zm0 4v3h1v-3zm0 4v3h1v-3zm0 4v3h1v-3zm0 4v3h1v-3zm0 4v3h1v-3zm0 4v3h1v-3zm0 4v.107l-.031.334-.09.284-.139.254-.179.22-.221.18-.254.139-.281.087-.078.008.099.996.127-.013.051-.006.047-.014.377-.117.047-.014.043-.023.339-.184.043-.023.037-.031.297-.245.037-.029.03-.037.244-.297.031-.037.024-.043.183-.34.024-.043.013-.047.117-.377.014-.046.006-.051.041-.403.002-.026v-.163zm-28.494 1.639.193.234.03.037.037.03.297.244.037.031.043.024.34.183.043.024.046.013.377.118.047.013.051.006.402.041.026.002h1.025v-1zm3.994 0v1h3v-1zm4 0v1h3v-1zm4 0v1h2.5v-1zm3.5 0v1h2.777v-1zm3.777 0v1h3v-1zm4 0v1h3v-1z" fill="#fff"/>
   <path d="m33 18h8v12h-8c-1.108 0-2-.892-2-2v-8c0-1.108.892-2 2-2z" fill="#722b2b"/>
   <path d="m37 24c0 1.097-.903 2-2 2s-2-.903-2-2 .903-2 2-2 2 .903 2 2z" fill="#c8c8c8"/>
   <path d="m33.741 19v.238l-.024-.236-.088.009.049.473.063-.008h.941v-.476zm1.412 0v.476h.941v-.476zm1.411 0v.476h.942v-.476zm1.412 0v.476h.941v-.476zm1.412 0v.476h.612v-.476zm-6.263.123-.066.02-.02.011-.256.147-.02.012-.018.014-.223.194-.016.015-.015.018-.184.235-.013.018-.011.021-.005.011.268.141.131.104.172-.219.182-.16.217-.123.02-.007-.001-.004.003-.002-.009-.015zm-1.05 1.194-.034.121-.008.02-.002.025-.029.319-.002.012v.517h.471v-.506l.027-.277.028-.095zm-.075 1.49v.952h.471v-.952zm0 1.429v.952h.471v-.952zm0 1.428v.952h.471v-.952zm0 1.429v.952h.471v-.952zm.498 1.358-.45.135.079.276.007.022.011.019.138.269.011.021.013.018.184.235.015.018.016.015.046.039.307-.361-.026-.022-.158-.201-.119-.232zm.723.952-.23.415.048.028.02.011.024.007.281.093.024.008.024.001.305.032.013.002h.294v-.476h-.283l-.259-.03-.237-.078zm1.274.121v.476h.941v-.476zm1.411 0v.476h.941v-.476zm1.412 0v.476h.941v-.476zm1.412 0v.476h.941v-.476z" fill="#fff"/>
  </g>
 </g>
</svg>
