<svg clip-rule="evenodd" fill-rule="evenodd" stroke-linejoin="round" stroke-miterlimit="2" viewBox="0 0 48 48" xmlns="http://www.w3.org/2000/svg">
 <g fill-rule="nonzero">
  <path d="m25.5 12.75c-9.052 0-16.5 7.448-16.5 16.5s7.448 16.5 16.5 16.5 16.5-7.448 16.5-16.5-7.448-16.5-16.5-16.5z" fill="#ba122b"/>
  <path d="m25.5 2.25c-7.406 0-13.5 6.094-13.5 13.5s6.094 13.5 13.5 13.5 13.5-6.094 13.5-13.5-6.094-13.5-13.5-13.5z" fill="#e9314e"/>
  <path d="m16.5 9.75c-5.76 0-10.5 4.74-10.5 10.5s4.74 10.5 10.5 10.5 10.5-4.74 10.5-10.5-4.74-10.5-10.5-10.5z" fill="#ef6e82"/>
  <g fill="#fff">
   <path d="m25.5 15.75c-7.406 0-13.5 6.094-13.5 13.5s6.094 13.5 13.5 13.5 13.5-6.094 13.5-13.5-6.094-13.5-13.5-13.5zm0 2.25c6.172 0 11.25 5.078 11.25 11.25s-5.078 11.25-11.25 11.25-11.25-5.078-11.25-11.25 5.078-11.25 11.25-11.25z"/>
   <path d="m16.5 12.75c-4.114 0-7.5 3.386-7.5 7.5s3.386 7.5 7.5 7.5 7.5-3.386 7.5-7.5-3.386-7.5-7.5-7.5zm0 2.25c2.88 0 5.25 2.37 5.25 5.25s-2.37 5.25-5.25 5.25-5.25-2.37-5.25-5.25 2.37-5.25 5.25-5.25z"/>
   <path d="m25.5 5.25c-5.76 0-10.5 4.74-10.5 10.5s4.74 10.5 10.5 10.5 10.5-4.74 10.5-10.5-4.74-10.5-10.5-10.5zm0 2.25c4.526 0 8.25 3.724 8.25 8.25s-3.724 8.25-8.25 8.25-8.25-3.724-8.25-8.25 3.724-8.25 8.25-8.25z"/>
  </g>
 </g>
</svg>
