<svg clip-rule="evenodd" fill-rule="evenodd" stroke-linejoin="round" stroke-miterlimit="2" viewBox="0 0 48 48" xmlns="http://www.w3.org/2000/svg">
 <linearGradient id="a" x2="1" gradientTransform="matrix(0 -43.336 43.336 0 -149.344 45.668)" gradientUnits="userSpaceOnUse">
  <stop stop-color="#001621" offset="0"/>
  <stop stop-color="#0a384e" offset="1"/>
 </linearGradient>
 <linearGradient id="b" x2="1" gradientTransform="matrix(.790361 33.012 -33.012 .790361 -99.2094 7.16144)" gradientUnits="userSpaceOnUse">
  <stop stop-color="#126086" offset="0"/>
  <stop stop-color="#004465" offset="1"/>
 </linearGradient>
 <linearGradient id="c" x2="1" gradientTransform="matrix(35.8602 0 0 35.8602 4.79081 197.344)" gradientUnits="userSpaceOnUse">
  <stop stop-color="#00a6c3" offset="0"/>
  <stop stop-color="#6ac5ff" offset="1"/>
 </linearGradient>
 <path d="m45.668 8.56c0-3.438-2.79-6.228-6.228-6.228h-30.88c-3.438 0-6.228 2.79-6.228 6.228v30.88c0 3.438 2.79 6.228 6.228 6.228h30.88c3.438 0 6.228-2.79 6.228-6.228z" fill="url(#a)"/>
 <g fill-rule="nonzero">
  <path d="m39.44 2.332c2.555 0 4.752 1.541 5.712 3.743l-15.043 15.976c.425.518.768 1.099 1.016 1.722l14.543-5.708v7.412l-14.107 1.156c-.05.709-.215 1.405-.489 2.06l14.596 8.005v2.742c0 2.548-1.532 4.74-3.725 5.704l-12.746-13.947c-.353.289-.735.54-1.14.749l6.066 13.722h-7.203l-1.413-13.016c-.141.01-.283.015-.424.015-.737-.002-1.469-.131-2.164-.378l-7.574 13.379h-6.785c-1.049 0-2.038-.26-2.906-.719l14.81-14.213c-.355-.36-.667-.76-.929-1.192l-17.203 8.212v-7.567l16.306-3.248c-.034-.256-.052-.515-.055-.774.003-1.001.237-1.987.683-2.882l-16.934-12.133v-2.592c0-1.533.555-2.937 1.474-4.022l17.05 16.701c.58-.499 1.244-.892 1.961-1.16l-6.646-17.747h12.122l-1.951 17.459c.272.055.54.127.802.216l6.088-17.675h6.208z" fill="url(#b)"/>
  <path d="m26.7 2.332-.017.434c-.017.491-.382 9.358-.673 16.371-.106 2.562-.182 4.67-.169 4.683.013.014.033.016.043.007.01-.01 1.21-3.471 2.668-7.692 3.787-10.97 4.587-13.285 4.691-13.56l.093-.243zm-7.14 9.044s-4.625 3.859-4.663 3.959c-.015.04.755.831 2.26 2.317 1.256 1.241 3.437 3.397 4.847 4.791 1.411 1.393 2.581 2.533 2.599 2.533s.034-.017.034-.037h-.002c0-.019-.951-2.59-2.114-5.713s-2.293-6.162-2.512-6.754c-.219-.591-.449-1.096-.449-1.096zm17.938 2.842c-.05-.017-10.461 11.029-10.481 11.119-.011.049.013.051.109.017.065-.023 3.131-1.22 6.813-2.659 3.682-1.44 6.704-2.637 6.712-2.66.017-.054-3.095-5.798-3.153-5.817zm-20.976 7.128c-.045-.017-.073.006-.089.075-.035.154-.745 5.813-.745 5.941 0 .086.023.115.085.115.046 0 1.653-.324 3.571-.722 1.92-.397 3.506-.741 3.528-.764.022-.022.031-.046.021-.055-.113-.097-6.322-4.571-6.371-4.59zm22.078 4.689c-.044-.04-10.513.903-10.558.951-.019.02-.016.044.01.054.023.011 2.131 1.171 4.685 2.578s4.682 2.555 4.727 2.552c.076-.007.129-.262.629-3.056h-.003c.301-1.676.53-3.061.51-3.079zm-14.905 1.522c-.054.021-3.465 1.646-7.581 3.61-4.117 1.965-8.349 3.981-9.404 4.483-1.055.503-1.919.94-1.919.97 0 .029.746 1.128 1.659 2.442 2.16 3.108 2.116 3.045 2.154 3.045.017 0 3.435-3.262 7.596-7.25v-.002c4.161-3.987 7.572-7.27 7.58-7.294.011-.028-.02-.029-.085-.004zm2.844.774c-.02-.007-.038.005-.038.028s.399.946.887 2.05c.487 1.105 2.178 4.937 3.758 8.517 1.579 3.58 2.876 6.566 2.905 6.626l.055.116h.086c.053-.029.151-.081.153-.084.012-.017 1.154-.741 2.535-1.611 1.382-.87 2.512-1.595 2.512-1.612 0-.038-12.8-14.01-12.853-14.03zm-1.508.299c-.014-.014-.03-.008-.047.012-.086.097-5.098 9.054-5.098 9.11 0 .046.143.078.584.136.321.041 1.698.223 3.063.401 1.364.179 2.506.315 2.536.305.038-.013.047-.069.03-.193-.022-.16-.767-7.271-.94-8.963-.055-.55-.086-.768-.128-.808z" fill="url(#c)"/>
 </g>
</svg>
