<svg clip-rule="evenodd" fill-rule="evenodd" stroke-linejoin="round" stroke-miterlimit="2" viewBox="0 0 48 48" xmlns="http://www.w3.org/2000/svg">
 <linearGradient id="a" x2="1" gradientTransform="matrix(0 -40 40 0 24 44)" gradientUnits="userSpaceOnUse">
  <stop stop-color="#373737" offset="0"/>
  <stop stop-color="#757575" offset="1"/>
 </linearGradient>
 <g transform="matrix(1.10059 0 0 1.10059 -2.41404 -2.41404)">
  <path d="m10.49 6.62c2.006-1.018 5.357-2.187 10.513-2.523 1.996-.13 3.999-.129 5.995.001 5.156.335 8.507 1.505 10.513 2.523 1.637.963 2.597 2.772 2.479 4.667v29.712c0 .795-.316 1.559-.878 2.121-.563.563-1.326.879-2.122.879h-25.98c-1.646 0-3-1.354-3-3v-29.712c-.118-1.896.843-3.704 2.48-4.668z" fill="url(#a)" fill-rule="nonzero"/>
  <path d="m11.713 8.521c1.844-.611 4.787-1.251 9.286-1.453 1.998-.089 3.999-.089 5.997 0 4.499.202 7.442.843 9.285 1.453 1.724.695 2.815 2.427 2.697 4.282v16.396c.162 1.872-.902 3.648-2.629 4.389-1.777.587-4.682 1.176-9.353 1.355-1.999.077-4 .077-5.999 0-4.671-.179-7.576-.768-9.353-1.355-1.727-.741-2.791-2.517-2.629-4.389v-16.396c-.117-1.855.974-3.588 2.698-4.282z" fill="#2c2c2c" fill-rule="nonzero"/>
  <path d="m38 12.5v13c0 1.38-1.12 2.5-2.5 2.5h-23c-1.38 0-2.5-1.12-2.5-2.5v-13c0-1.38 1.12-2.5 2.5-2.5h23c1.38 0 2.5 1.12 2.5 2.5z" fill="#aed581"/>
  <path d="m21 39.5c0 .828-.672 1.5-1.5 1.5h-2c-.828 0-1.5-.672-1.5-1.5s.672-1.5 1.5-1.5h2c.828 0 1.5.672 1.5 1.5zm6 0c0 .828-.672 1.5-1.5 1.5h-2c-.828 0-1.5-.672-1.5-1.5s.672-1.5 1.5-1.5h2c.828 0 1.5.672 1.5 1.5zm-3.5 2.5h2c.831 0 1.5.669 1.5 1.5 0 .175-.029.344-.084.5h-4.832c-.055-.156-.084-.325-.084-.5 0-.831.669-1.5 1.5-1.5zm-6 0h2c.831 0 1.5.669 1.5 1.5 0 .175-.029.344-.084.5h-4.832c-.055-.156-.084-.325-.084-.5 0-.831.669-1.5 1.5-1.5zm15.5-6h1c.554 0 1 .446 1 1v2h2c.554 0 1 .446 1 1v1c0 .554-.446 1-1 1h-2v2h-3v-2h-2c-.554 0-1-.446-1-1v-1c0-.554.446-1 1-1h2v-2c0-.554.446-1 1-1z" fill="#e0e0e0"/>
  <path d="m26 30.5c0 .276-.224.5-.5.5h-3c-.276 0-.5-.224-.5-.5s.224-.5.5-.5h3c.276 0 .5.224.5.5zm4 0c0 .276-.224.5-.5.5h-2c-.276 0-.5-.224-.5-.5s.224-.5.5-.5h2c.276 0 .5.224.5.5zm4 0c0 .276-.224.5-.5.5h-2c-.276 0-.5-.224-.5-.5s.224-.5.5-.5h2c.276 0 .5.224.5.5zm-17 0c0 .276-.224.5-.5.5h-2c-.276 0-.5-.224-.5-.5s.224-.5.5-.5h2c.276 0 .5.224.5.5zm4 0c0 .276-.224.5-.5.5h-2c-.276 0-.5-.224-.5-.5s.224-.5.5-.5h2c.276 0 .5.224.5.5z" fill="#e0e0e0"/>
  <path d="m15 39.5c0 .828-.672 1.5-1.5 1.5h-2c-.828 0-1.5-.672-1.5-1.5s.672-1.5 1.5-1.5h2c.828 0 1.5.672 1.5 1.5z" fill="#81d4fa"/>
  <path d="m11.5 42c-.831 0-1.5.669-1.5 1.5 0 .114.013.224.037.33.313.11.641.167.973.17h3.906c.055-.156.084-.325.084-.5 0-.831-.669-1.5-1.5-1.5z" fill="#69f0ae" fill-rule="nonzero"/>
 </g>
</svg>
