<svg clip-rule="evenodd" fill-rule="evenodd" stroke-linejoin="round" stroke-miterlimit="2" viewBox="0 0 48 48" xmlns="http://www.w3.org/2000/svg">
 <linearGradient id="a" x2="1" gradientTransform="matrix(0 -43.3373 43.3373 0 302.963 45.6687)" gradientUnits="userSpaceOnUse">
  <stop stop-color="#aaa" offset="0"/>
  <stop stop-color="#d4e7e9" offset="1"/>
 </linearGradient>
 <path d="m45.668 8.56c0-3.438-2.79-6.228-6.228-6.228h-30.88c-3.438 0-6.228 2.79-6.228 6.228v30.88c0 3.438 2.79 6.228 6.228 6.228h30.88c3.438 0 6.228-2.79 6.228-6.228z" fill="url(#a)"/>
 <path d="m14.406 23.74v16.069c0 .705-3.406.705-3.406 0v-16.069zm4.526 0v16.069c0 .705-3.407.705-3.407 0v-16.069zm4.557.032v16.069c0 .705-3.406.705-3.406 0v-16.069zm4.59.033v16.068c0 .705-3.406.705-3.406 0v-16.068zm4.428-.065v16.069c0 .705-3.406.705-3.406 0v-16.069zm4.493 0v16.069c0 .705-3.406.705-3.406 0v-16.069z" fill="#fff"/>
 <path d="m16.636 23.772v8.299c0 .705-3.406.705-3.406 0v-8.299zm4.656-.065v8.299c0 .705-3.407.705-3.407 0v-8.299zm4.492.033v8.299c0 .704-3.406.704-3.406 0v-8.299zm8.953 0v8.299c0 .704-3.406.704-3.406 0v-8.299z" fill="#4f4f4f"/>
 <path d="m11 7.598h15.918v5.141l-3.905-.047v8.858h-8v-8.858l-4.013.047zm26 5v9h-8v-9zm0-5v3h-8v-3z" fill="#008a95"/>
</svg>
