<svg clip-rule="evenodd" fill-rule="evenodd" stroke-linejoin="round" stroke-miterlimit="2" viewBox="0 0 48 48" xmlns="http://www.w3.org/2000/svg">
 <g fill-rule="nonzero">
  <path d="m6.601 2.647 31.819 4.767c1.2 0 2.166.966 2.166 2.166l4.767 31.819c-.822 2.479-3.16 4.269-5.913 4.269h-30.88c-3.438 0-6.228-2.79-6.228-6.228v-30.88c0-2.753 1.79-5.091 4.269-5.913z" fill="#00a1f1"/>
  <path d="m39.44 2.332c3.438 0 6.228 2.79 6.228 6.228v30.88c0 1.719-.697 3.276-1.825 4.403l-39.686-39.686c1.127-1.127 2.684-1.825 4.403-1.825h30.88z" fill="#008aee"/>
  <path d="m32.973 37.216c-2.566 1.754-5.659 2.784-8.973 2.784-8.777 0-16-7.223-16-16s7.223-16 16-16 16 7.223 16 16c0 3.314-1.03 6.407-2.784 8.973l4.905 4.906-4.242 4.242zm3.673-10.216h-9.449l-1.13-1.696-3.187 5.311-4.728-9.456-1.136 2.841h-6.016c0 7.132 5.868 13 13 13 6.1 0 11.276-4.294 12.646-10zm-12.646-16c-6.1 0-11.276 4.294-12.646 10h3.63l2.864-7.158 5.272 10.543 2.813-4.689 2.87 4.304h8.197c0-7.132-5.868-13-13-13z" fill="#fff"/>
 </g>
</svg>
