<svg clip-rule="evenodd" fill-rule="evenodd" stroke-linejoin="round" stroke-miterlimit="2" viewBox="0 0 48 48" xmlns="http://www.w3.org/2000/svg">
 <g fill-rule="nonzero">
  <path d="m6.601 2.647 31.819 4.767c1.2 0 2.166.966 2.166 2.166l4.767 31.819c-.822 2.479-3.16 4.269-5.913 4.269h-30.88c-3.438 0-6.228-2.79-6.228-6.228v-30.88c0-2.753 1.79-5.091 4.269-5.913z" fill="#00a1f1"/>
  <path d="m39.44 2.332c3.438 0 6.228 2.79 6.228 6.228v30.88c0 1.719-.697 3.276-1.825 4.403l-39.686-39.686c1.127-1.127 2.684-1.825 4.403-1.825h30.88z" fill="#008aee"/>
  <path transform="matrix(1.0834 0 0 1.0834 -2.0016 -2.91398)" d="m23.598 10c-.036-.001-.071.007-.103.023-1.76 1.119-4.23 2.677-4.838 4.584-.191.632-.107.865-.003 1.374.172.613.532 1.416.932 2.083.26.432 1.114 1.572 1.179 1.572 1.183-.776 2.349-1.974 3.302-2.947v-2.967c0-2.763-.028-3.309-.181-3.534-.057-.113-.178-.186-.288-.188zm-5.406 5.502c-.062.001-.16.244-.218.539-.15.766-.816 3.495-1.112 4.556-.241.861-.326 1.786-.187 2.019.104.173 1.855.828 4.361 1.631 1.216.389 1.408.382 1.653-.063.373-.678.431-.561-1.91-3.867-1.848-2.61-2.093-3.051-2.344-4.218-.071-.33-.181-.599-.243-.597zm12.771.5c-.088-.002-.192.003-.3.016-.751.089-3.466.277-4.533.313-.866.03-1.844.232-2.015.441-.127.155-.088 2.38-.052 5.093.017 1.316.084 1.503.569 1.606.739.158.649-.049 2.966-3.373 1.829-2.624 2.158-3.002 3.154-3.609.282-.172.495-.363.474-.423-.012-.038-.116-.061-.263-.064zm1.23.244c-.64.008-.829.163-1.265.422-.51.359-1.138.96-1.627 1.56-.318.389-1.102 1.582-1.082 1.645 1.08.924 2.297 2.193 3.485 2.83l3.005-1.01c2.541-.854 3.034-1.351 3.194-1.571.087-.091.117-.232.084-.341-.01-.036-.028-.068-.053-.094-1.573-1.386-3.799-3.432-5.741-3.441zm-21.774 4.414c-.059 0-.104.007-.144.019-.122.022-.226.119-.262.226-.011.036-.016.072-.011.108.485 2.078 1.124 5.087 2.689 6.275.522.382.763.372 1.263.427.617.02 1.466-.086 2.204-.274.477-.122 1.79-.609 1.81-.672-.348-1.404-.783-2.928-1.382-4.165l-3.005-1.01c-2.144-.72-2.843-.934-3.162-.934zm21.182 2.122c-.355-.001-2.073.519-4.401 1.338-1.205.424-1.356.548-1.301 1.057.083.775-.031.715 3.743 1.966 2.978.989 3.427 1.197 4.293 1.989.245.223.486.374.536.335.049-.039-.009-.295-.131-.569-.314-.711-1.326-3.323-1.689-4.362-.295-.843-.751-1.642-.997-1.746-.011-.005-.029-.007-.053-.008zm-9.465 3.122c-.439-.001-1.303.3-3.537 1.061-2.971 1.011-3.453 1.115-4.604 1.002-.325-.032-.606-.008-.624.054-.018.061.175.233.429.381.658.384 2.961 2.183 3.845 2.802.718.503 1.542.873 1.8.808.19-.049 1.334-1.869 2.846-4.086.735-1.075.787-1.267.453-1.645-.206-.234-.307-.376-.608-.377zm2.879.942c-.091.003-.185.036-.298.088-.687.322-.667.191-.652 4.289.012 3.235-.041 3.742-.501 4.839-.13.31-.195.593-.144.629.052.037.269-.099.484-.303.557-.529 2.646-2.332 3.488-3.01.684-.551 1.279-1.247 1.299-1.52.015-.203-1.03-1.797-2.6-3.97-.572-.791-.805-1.051-1.076-1.042zm5.033.837c-.004.001-.007.001-.008.002-.516 1.348-1.031 2.845-1.249 4.211l1.857 2.643c1.57 2.236 1.904 2.66 2.155 2.749.111.057.25.042.34-.023.029-.021.054-.048.07-.081.789-1.976 1.982-4.798 1.391-6.711-.205-.626-.406-.765-.78-1.113-.487-.391-1.234-.821-1.937-1.118-.441-.186-1.712-.571-1.839-.559zm-8.515 4.325c-.724.003-1.439.044-2.1.148l-1.858 2.343c-1.57 2.235-1.858 2.694-1.862 2.97-.018.126.038.258.126.326.029.023.062.038.097.044 2.06.165 5.024.467 6.6-.706.513-.395.578-.636.784-1.111.209-.6.373-1.468.429-2.251.035-.508-.008-1.649-.06-1.688-.699-.045-1.432-.079-2.156-.075z" fill="#fff"/>
 </g>
</svg>
