<svg clip-rule="evenodd" fill-rule="evenodd" stroke-linejoin="round" stroke-miterlimit="2" viewBox="0 0 48 48" xmlns="http://www.w3.org/2000/svg">
 <linearGradient id="a" x2="1" gradientTransform="matrix(0 -44.9869 44.9869 0 24 46.4935)" gradientUnits="userSpaceOnUse">
  <stop stop-color="#696161" offset="0"/>
  <stop stop-color="#9d9595" offset="1"/>
 </linearGradient>
 <path d="m23.774 1.507c-.693.007-1.386.045-2.075.115-.368.037-.666.32-.722.686l-.436 2.843c-1.011.185-2.003.451-2.971.794l-1.793-2.238c-.231-.288-.631-.384-.968-.233-1.406.631-2.742 1.406-3.99 2.31-.3.216-.416.611-.282.955l1.042 2.668c-.785.663-1.514 1.385-2.183 2.166l-2.651-1.032c-.343-.133-.737-.017-.952.282-.905 1.25-1.678 2.589-2.308 3.997-.15.337-.053.736.235.966l2.183 1.753c-.177.488-.355.975-.492 1.476-.001.004-.002.008-.004.012-.128.501-.211 1.011-.298 1.52l-2.795.428c-.365.056-.648.353-.686.72-.16 1.532-.162 3.076-.006 4.609.037.368.32.666.686.722l2.843.434c.185 1.011.451 2.002.794 2.97l-2.238 1.792c-.289.23-.386.63-.235.967.632 1.407 1.407 2.745 2.312 3.993.217.299.611.414.955.28l2.663-1.04c.665.785 1.389 1.514 2.17 2.183l-1.031 2.651c-.134.344-.018.738.282.955 1.25.904 2.591 1.675 3.999 2.305.336.15.735.054.966-.233l1.751-2.185c.488.177.974.357 1.475.494.004 0 .009.001.013.002.5.128 1.011.213 1.52.3l.428 2.791c.055.365.353.648.719.686 1.533.161 3.077.163 4.61.008.367-.037.666-.32.721-.686l.437-2.843c1.009-.185 2-.449 2.968-.792l1.793 2.238c.231.288.631.384.968.233 1.406-.632 2.744-1.407 3.993-2.312.297-.217.413-.61.279-.953l-1.039-2.665c.784-.665 1.512-1.39 2.18-2.171l2.651 1.032c.343.133.736.018.953-.28.904-1.25 1.677-2.591 2.307-3.999.151-.338.054-.737-.235-.968l-2.182-1.749c.176-.489.356-.977.493-1.48.001-.003.001-.007.002-.01.129-.501.213-1.011.301-1.52l2.792-.43c.364-.056.647-.352.686-.718.16-1.532.162-3.077.006-4.609-.037-.368-.32-.666-.686-.722l-2.843-.434c-.185-1.01-.451-2.001-.794-2.968l2.24-1.796c.288-.231.384-.63.233-.967-.632-1.407-1.407-2.743-2.312-3.991-.216-.3-.611-.416-.955-.282l-2.665 1.04c-.664-.784-1.388-1.513-2.168-2.181l1.031-2.649c.134-.344.018-.738-.282-.954-1.249-.904-2.589-1.678-3.997-2.308-.337-.15-.735-.053-.965.235l-1.751 2.183c-.489-.177-.976-.355-1.478-.492-.004-.001-.008-.002-.013-.004-.501-.128-1.01-.212-1.52-.3l-.425-2.793c-.056-.365-.353-.648-.72-.686-.843-.088-1.688-.128-2.534-.121z" fill="url(#a)" fill-rule="nonzero"/>
 <path d="m38.621 24c0-8.069-6.552-14.621-14.621-14.621s-14.621 6.552-14.621 14.621 6.552 14.621 14.621 14.621 14.621-6.552 14.621-14.621z" fill="#9264c3"/>
 <g fill-rule="nonzero">
  <path d="m26.249 16.127c-6.211 0-11.246 5.036-11.246 11.247 0 5.831 4.438 10.626 10.119 11.192 2.443-.185 4.709-.964 6.665-2.195h-5.538c-4.969 0-8.997-4.028-8.997-8.997s4.028-8.997 8.997-8.997z" fill="#ffffff"/>
  <path d="m26.249 19.501c-4.348 0-7.872 3.525-7.872 7.873s3.524 7.873 7.872 7.873h7.111c.802-.668 1.521-1.427 2.164-2.25h-9.275c-3.105 0-5.623-2.517-5.623-5.623s2.518-5.623 5.623-5.623c.775.001 1.54.161 2.25.472v-2.386c-.73-.22-1.488-.333-2.25-.336z" fill="#d7bdfb"/>
  <path d="m26.249 22.875c-2.484 0-4.498 2.014-4.498 4.499s2.014 4.499 4.498 4.499h10.07c.455-.712.858-1.46 1.186-2.25h-11.256c-1.242 0-2.249-1.007-2.249-2.249s1.007-2.249 2.249-2.249c.803.001 1.543.43 1.944 1.124h2.406c-.513-1.984-2.301-3.371-4.35-3.374z" fill="#c090f9"/>
 </g>
</svg>
