<svg clip-rule="evenodd" fill-rule="evenodd" stroke-linejoin="round" stroke-miterlimit="2" viewBox="0 0 48 48" xmlns="http://www.w3.org/2000/svg">
 <linearGradient id="a" x2="1" gradientTransform="matrix(6e-7 -45.528 45.528 6e-7 24 46.764)" gradientUnits="userSpaceOnUse">
  <stop stop-color="#0041a1" offset="0"/>
  <stop stop-color="#2f66d6" offset="1"/>
 </linearGradient>
 <circle cx="24" cy="24" r="22.764" fill="url(#a)"/>
 <path d="m24 8.065c-8.742 0-15.935 7.193-15.935 15.935s7.193 15.935 15.935 15.935 15.935-7.193 15.935-15.935-7.193-15.935-15.935-15.935zm-2.276 3.415h4.552v2.536c1.124.257 2.197.701 3.173 1.314l1.794-1.794 3.221 3.221-1.794 1.794c.613.976 1.057 2.049 1.314 3.173h2.536v4.552h-2.559c-.25 1.122-.687 2.194-1.293 3.17l1.796 1.797-3.221 3.221-1.797-1.796c-.976.606-2.048 1.043-3.17 1.293v2.559h-4.552v-2.559c-1.122-.25-2.194-.687-3.17-1.293l-1.797 1.796-3.221-3.221 1.796-1.797c-.606-.976-1.043-2.048-1.293-3.17h-2.559v-4.552h2.559c.25-1.122.687-2.194 1.293-3.17l-1.796-1.797 3.221-3.221 1.797 1.796c.976-.606 2.048-1.043 3.17-1.293z" fill="#ffffff" fill-rule="nonzero"/>
</svg>
