<svg clip-rule="evenodd" fill-rule="evenodd" stroke-linejoin="round" stroke-miterlimit="2" viewBox="0 0 48 48" xmlns="http://www.w3.org/2000/svg">
 <radialGradient id="a" cx="0" cy="0" r="1" gradientTransform="matrix(0 53.2787 -56.3625 -1.43e-6 24.0026 -.397175)" gradientUnits="userSpaceOnUse">
  <stop stop-color="#e4e4e4" offset="0"/>
  <stop stop-color="#d2d2d3" offset=".37"/>
  <stop stop-color="#ababac" offset=".81"/>
  <stop stop-color="#888889" offset="1"/>
 </radialGradient>
 <linearGradient id="b" x2="1" gradientTransform="matrix(0 29.8608 -29.8608 0 23.7062 9.16813)" gradientUnits="userSpaceOnUse">
  <stop stop-color="#ff4035" offset="0"/>
  <stop stop-color="#dc311a" offset="1"/>
 </linearGradient>
 <linearGradient id="c" x2="1" gradientTransform="matrix(.265861 -45.8478 45.8478 .265861 23.6695 45.5893)" gradientUnits="userSpaceOnUse">
  <stop stop-color="#8b8b8b" offset="0"/>
  <stop stop-color="#c0c0c0" offset="1"/>
 </linearGradient>
 <g fill-rule="nonzero">
  <path d="m24.002 2.143c-12.058 0-21.854 9.796-21.854 21.855 0 12.058 9.796 21.854 21.854 21.854 12.059 0 21.855-9.796 21.855-21.854 0-12.059-9.796-21.855-21.855-21.855z" fill="url(#a)"/>
  <path d="m26.32 12.328c-4.908 0-9.493 1.893-12.922 5.327-3.41 3.42-5.283 7.979-5.273 12.85.014 10.145 7.601 14.773 16.926 14.314.012.001.025 0 .037 0 3.566.053 7.155-1.381 8.994-2.497.013-.002.024-.004.038-.007 2.575-1.472 3.955-2.784 3.955-2.784-2.71.293-6.552.52-12.015-1.472-3.292-1.198-4.665-3.385-4.917-3.837 0 0-.011-.014-.011-.019-.604-1.051-.894-2.198-.894-3.33 0-2.312 1.199-4.562 3.339-5.803 1.546-.889 3.349-1.126 5.076-.665 1.721.461 3.163 1.57 4.058 3.116l2.786-1.484-.052-.096c-1.313-2.278-3.434-3.904-5.973-4.589-2.54-.68-5.194-.329-7.473.983h-.002c-3.153 1.822-4.916 5.139-4.916 8.544 0 1.579.393 3.171 1.188 4.646l-.01.01c0 .004.028.052.038.071h-.004s.019.028.033.052c.019.038.066.125.071.129.495.852 2.402 3.718 6.582 5.24 4.885 1.783 6.653 1.708 8.894 1.322-1.95.939-6.477 2.21-12.891-2.195-5.189-3.567-6.807-9.911-3.844-15.086 1.389-2.421 3.7-4.175 6.516-4.931 2.887-.78 5.874-.4 8.414 1.065l1.578-2.739c-3.273-1.888-7.115-2.379-10.816-1.38-3.633.98-6.63 3.257-8.437 6.415-3.795 6.635-1.779 14.734 4.794 19.257.992.871 2.127 1.418 3.322 1.732-6.778-1.144-11.215-6.62-11.228-13.992-.004-4.023 1.537-7.79 4.352-10.611 2.83-2.834 6.625-4.4 10.686-4.4v-3.157z" fill-opacity=".19"/>
  <path d="m23.706 9.168-8.528 8.958h3.198v11.945h-3.198l8.528 8.958 8.529-8.958h-3.198v-11.945h3.198z" fill="url(#b)"/>
  <path d="m23.935 1.236c-12.585 0-22.828 10.243-22.828 22.828s10.243 22.828 22.828 22.828 22.828-10.243 22.828-22.828-10.243-22.828-22.828-22.828zm0 2.075c11.461 0 20.753 9.292 20.753 20.753s-9.292 20.753-20.753 20.753-20.752-9.292-20.752-20.753 9.291-20.753 20.752-20.753z" fill="url(#c)"/>
 </g>
</svg>
