<svg clip-rule="evenodd" fill-rule="evenodd" stroke-linejoin="round" stroke-miterlimit="2" viewBox="0 0 48 48" xmlns="http://www.w3.org/2000/svg">
 <linearGradient id="a" x2="1" gradientTransform="matrix(0 -43.3373 43.3373 0 201.9 45.6687)" gradientUnits="userSpaceOnUse">
  <stop stop-color="#b31316" offset="0"/>
  <stop stop-color="#fa6956" offset="1"/>
 </linearGradient>
 <path d="m45.668 8.56c0-3.438-2.79-6.228-6.228-6.228h-30.88c-3.438 0-6.228 2.79-6.228 6.228v30.88c0 3.438 2.79 6.228 6.228 6.228h30.88c3.438 0 6.228-2.79 6.228-6.228z" fill="url(#a)"/>
 <g fill="#fff" fill-rule="nonzero">
  <path d="m18.605 38.835c.608-.435 1.828-1.696 2.532-2.617 1.859-2.435 2.819-4.11 3.617-7.308.305-1.222.355-1.352.638-1.352.268 0 .131.195.578 1.616.631 2.007 1.12 3.073 1.832 4.59.355.755.543.985.804.984.426-.003 1.832-.712 2.94-1.484.541-.376 1.121-.938 1.121-1.085 0-.042-.168-.382-.374-.755-1.389-2.522-1.976-5.229-2.039-9.405-.024-1.636-.071-1.955-.323-2.197l-.163-.156h-4.764c-4.717 0-4.765.002-4.937.133-.096.073-.198.217-.228.32-.029.103-.077 1.427-.106 2.942-.057 2.951-.087 3.265-.439 4.657-.542 2.143-1.625 3.928-3.927 6.438-.522.568-.644 1.028-.644 1.143 0 .681 2.818 3.867 3.348 3.869.037 0 .278-.15.534-.333z"/>
  <path d="m22.917 8.832c-2.394 0-4.537 1.956-4.537 4.35 0 2.393 2.143 4.318 4.537 4.318.845 0 1.997-.707 2.973-.748 1.138-.049 1.127.748 2.444.748 1.795 0 3.25-1.456 3.25-3.251s-1.455-3.25-3.25-3.25c-1.18 0-1.589.419-2.773-.892-.625-.693-1.622-1.251-2.644-1.275z"/>
 </g>
</svg>
