<svg clip-rule="evenodd" fill-rule="evenodd" stroke-linejoin="round" stroke-miterlimit="2" viewBox="0 0 48 48" xmlns="http://www.w3.org/2000/svg">
 <linearGradient id="a" x2="1" gradientTransform="matrix(0 -33.6872 33.6872 0 923.28 40.4502)" gradientUnits="userSpaceOnUse">
  <stop stop-color="#1f1f1f" offset="0"/>
  <stop stop-color="#303030" offset="1"/>
 </linearGradient>
 <path d="m39.44 45.668h-30.88c-3.438 0-6.228-2.79-6.228-6.228v-30.88c0-3.438 2.79-6.228 6.228-6.228h30.88c3.438 0 6.228 2.79 6.228 6.228v30.88c0 3.438-2.79 6.228-6.228 6.228z" fill="url(#a)"/>
 <g transform="matrix(1.06053 0 0 1.06053 -1.4225 -1.45277)" fill-rule="nonzero">
  <path d="m27.523 8c-14.41 0-20.523 11.072-20.523 20.881 0 3.876 1.458 7.922 3.393 11.119h4.336c-2.486-3.07-4.229-7.315-4.229-11.393 0-6.75 3.9-17.107 17.168-17.107 3.562 0 5.567.603 9.529 3.272.319.194.591.228.872.228 1.395 0 1.931-.988 1.931-1.769 0-.602-.228-1.164-.74-1.496-4.517-3.042-7.207-3.735-11.737-3.735z" fill="#cf2a1d"/>
  <path d="m37.046 18h-20.046v3h16.169l-3.531 5.52-2.844-4.52h-3.434l4.491 7.024-7.163 10.976h19.312v-3h-15.369l4.259-6.382 3.286 5.382h3.446l-4.918-7.845z" fill="#ececec"/>
 </g>
</svg>
