<svg clip-rule="evenodd" fill-rule="evenodd" stroke-linejoin="round" stroke-miterlimit="2" viewBox="0 0 48 48" xmlns="http://www.w3.org/2000/svg">
 <linearGradient id="a" x2="1" gradientTransform="matrix(0 -44.9628 44.9628 0 24 46.4516)" gradientUnits="userSpaceOnUse">
  <stop stop-color="#252637" offset="0"/>
  <stop stop-color="#37384b" offset="1"/>
 </linearGradient>
 <g fill-rule="nonzero">
  <path d="m24.123 1.307c-.951-.023-1.89.215-2.714.689l-15.244 8.767c-1.601.92-2.59 2.628-2.59 4.469v17.535c0 1.842.989 3.549 2.59 4.47l15.244 8.767c1.601.921 3.58.921 5.181 0l15.244-8.767c1.601-.921 2.591-2.628 2.591-4.47v-17.535c0-1.842-.99-3.549-2.591-4.47l-15.244-8.767c-.752-.432-1.601-.668-2.468-.688h.001z" fill="url(#a)"/>
  <path d="m24 30.808 5.674-3.404v-6.808l-5.674-3.404-5.674 3.404v6.808z" fill="#fff"/>
  <path d="m12.653 30.808 5.673-3.404v-6.808l-5.673-3.404-5.674 3.404v6.808z" fill="#37fb6e"/>
  <path d="m18.326 41.021 5.674-3.404v-6.809l-5.674-3.404-5.673 3.404v6.809z" fill="#fdd600"/>
  <path d="m29.674 41.021 5.673-3.404v-6.809l-5.673-3.404-5.674 3.404v6.809z" fill="#8a5ffd"/>
  <path d="m18.326 20.596 5.674-3.404v-6.809l-5.674-3.404-5.673 3.404v6.809z" fill="#be4c01"/>
  <path d="m29.674 20.596 5.673-3.404v-6.809l-5.673-3.404-5.674 3.404v6.809z" fill="#8b9cfd"/>
  <path d="m35.347 30.808 5.674-3.404v-6.808l-5.674-3.404-5.673 3.404v6.808z" fill="#fdfd67"/>
 </g>
</svg>
