<svg clip-rule="evenodd" fill-rule="evenodd" stroke-linejoin="round" stroke-miterlimit="2" viewBox="0 0 48 48" xmlns="http://www.w3.org/2000/svg">
 <linearGradient id="a" x2="1" gradientTransform="matrix(1.45e-6 -44.4697 44.4697 1.45e-6 24 46.2345)" gradientUnits="userSpaceOnUse">
  <stop stop-color="#212121" offset="0"/>
  <stop stop-color="#3f3f3f" offset="1"/>
 </linearGradient>
 <g fill-rule="nonzero">
  <path d="m24.119 1.765v.002c-.931-.023-1.85.21-2.657.673l-14.935 8.59c-1.569.902-2.539 2.575-2.539 4.38v17.18c.001 1.804.97 3.476 2.539 4.378l14.935 8.59c1.568.902 3.508.902 5.076 0l14.935-8.59c1.569-.902 2.538-2.574 2.539-4.378v-17.18c0-1.805-.97-3.478-2.539-4.38l-14.935-8.59c-.736-.423-1.568-.655-2.419-.675z" fill="url(#a)"/>
  <path d="m24 39.103 12.208-7.048-4.656-2.706-5.005 2.769c-.189.126-.378 0-.378-.252v-6.322c0-.189.126-.378.252-.441l6.109-3.494c.188-.126.382 0 .377.251v5.65l4.434 2.594v-14.159l-13.341 7.74z" fill="#a5a5a5"/>
  <path d="m21.466 32.118-4.982-2.769-4.635 2.706 12.151 7.048v-15.418l-13.341-7.74v14.096-.063.063l4.412-2.595v-5.649c0-.188.251-.314.376-.251l6.082 3.495c.188.125.251.251.251.44v6.322c.062.252-.126.441-.314.315z" fill="#cccccc"/>
  <path d="m25.112 8.897v5.412l4.866 2.769c.189.126.189.377 0 .44l-5.663 3.273c-.189.125-.378.063-.504 0l-5.663-3.273c-.189-.063-.189-.377 0-.44l4.74-2.769v-5.412l-12.229 7.048 13.341 7.74 13.341-7.74z" fill="#ffffff"/>
 </g>
</svg>
