<svg clip-rule="evenodd" fill-rule="evenodd" stroke-linejoin="round" stroke-miterlimit="2" viewBox="0 0 48 48" xmlns="http://www.w3.org/2000/svg">
 <linearGradient id="a" x2="1" gradientTransform="matrix(0 -33.6872 33.6872 0 923.28 40.4502)" gradientUnits="userSpaceOnUse">
  <stop stop-color="#2a70ab" offset="0"/>
  <stop stop-color="#4791ce" offset="1"/>
 </linearGradient>
 <path d="m39.44 45.668h-30.88c-3.438 0-6.228-2.79-6.228-6.228v-30.88c0-3.438 2.79-6.228 6.228-6.228h30.88c3.438 0 6.228 2.79 6.228 6.228v30.88c0 3.438-2.79 6.228-6.228 6.228z" fill="url(#a)"/>
 <path d="m2.332 13.166v-4.606c0-3.438 2.79-6.228 6.228-6.228h2.439v10.834zm8.667 21.668h10.834v10.834h-10.834zm0-10.834v10.834h-8.667v-10.834zm0-10.834h10.834v10.834h-10.834z" fill="#87bdff"/>
 <path d="m26.167 2.165v43.67c0 1.104-.896 2-2 2h-.334c-1.104 0-2-.896-2-2v-43.67c0-1.104.896-2 2-2h.334c1.104 0 2 .896 2 2z" fill="#304059"/>
 <circle cx="24" cy="24" r="7.584" fill="#375179"/>
 <path d="m26.167 20.75v6.5l4.333-3.25zm-4.334 0v6.5l-4.333-3.25z" fill="#9fc8ff" fill-rule="nonzero"/>
</svg>
