<svg clip-rule="evenodd" fill-rule="evenodd" stroke-linejoin="round" stroke-miterlimit="2" viewBox="0 0 48 48" xmlns="http://www.w3.org/2000/svg">
 <linearGradient id="a" x2="1" gradientTransform="matrix(0 -28 28 0 24 38)" gradientUnits="userSpaceOnUse">
  <stop stop-color="#272727" offset="0"/>
  <stop stop-color="#3f3f3f" offset="1"/>
 </linearGradient>
 <g fill-rule="nonzero">
  <path d="m8.56 2.332h15.44v21.668h-21.668v-15.44c0-3.438 2.79-6.228 6.228-6.228z" fill="#2086e7"/>
  <path d="m39.44 2.332c3.438 0 6.228 2.79 6.228 6.228v15.44h-21.668v-21.668z" fill="#ff8c2a"/>
  <path d="m2.332 39.44v-15.44h21.668v21.668h-15.44c-3.438 0-6.228-2.79-6.228-6.228z" fill="#6655e4"/>
  <path d="m45.668 39.44c0 3.438-2.79 6.228-6.228 6.228h-15.44v-21.668h21.668z" fill="#2086e7"/>
 </g>
 <g transform="matrix(1.0834 0 0 1.0834 -2.0016 -2.0016)">
  <path d="m10 10h28v28h-28z" fill="url(#a)"/>
  <path d="m16 33h8c.552 0 1-.448 1-1s-.448-1-1-1h-8c-.552 0-1 .448-1 1s.448 1 1 1zm1.99-8c-.801 0-1.698-.283-2.3-.978-.4-.461-.69-1.111-.69-2.022v-6c0-.552.448-1 1-1s1 .448 1 1v6c0 .316.063.553.202.713.203.235.523.288.794.287h.03c.279.008.586-.045.777-.274.137-.165.197-.408.197-.726v-6c0-.552.448-1 1-1s1 .448 1 1v6c0 .894-.274 1.541-.66 2.005-.591.71-1.486 1.013-2.35.995zm5.916-9.995c.199-.02 1.753-.155 3.013.281 1.162.402 2.081 1.223 2.081 2.714s-.919 2.312-2.081 2.714c-.635.22-1.345.294-1.919.311v2.975c0 .552-.448 1-1 1s-1-.448-1-1v-8.005l.017-.18.044-.159.074-.158.094-.134.12-.123.158-.111.149-.069.192-.049zm1.094 1.96v2.07c.388-.014.849-.068 1.265-.211.375-.13.735-.343.735-.824s-.36-.694-.735-.824c-.416-.143-.877-.197-1.265-.211z" fill="#fff"/>
 </g>
</svg>
