<svg clip-rule="evenodd" fill-rule="evenodd" stroke-linejoin="round" stroke-miterlimit="2" viewBox="0 0 48 48" xmlns="http://www.w3.org/2000/svg">
 <linearGradient id="a" x2="1" gradientTransform="matrix(0 -36.2165 36.2165 0 275.714 42.119)" gradientUnits="userSpaceOnUse">
  <stop stop-color="#313738" offset="0"/>
  <stop stop-color="#535552" offset="1"/>
 </linearGradient>
 <linearGradient id="b" x2="1" gradientTransform="matrix(-.115663 -17.2337 17.2337 -.115663 821.277 37.3519)" gradientUnits="userSpaceOnUse">
  <stop stop-color="#00bf7e" stop-opacity=".99" offset="0"/>
  <stop stop-color="#00ffa9" stop-opacity=".99" offset="1"/>
 </linearGradient>
 <path d="m39.44 2.332c3.438 0 6.228 2.79 6.228 6.228v30.88c0 3.438-2.79 6.228-6.228 6.228h-30.88c-3.438 0-6.228-2.79-6.228-6.228v-30.88c0-3.438 2.79-6.228 6.228-6.228z" fill="url(#a)"/>
 <path d="m2.332 9.588v-1.028c0-3.438 2.79-6.228 6.228-6.228h30.88c3.438 0 6.228 2.79 6.228 6.228v1.028z" fill="#ebebeb" fill-opacity=".1"/>
 <g fill-opacity=".5">
  <path d="m33.214 7.159h-.069c-.066 0-.118-.054-.118-.119v-.2c-.283-.071-.363-.239-.363-.583 0-.507.412-.92.919-.92s.919.413.919.92c0 .339-.085.506-.361.579v.203c0 .066-.054.119-.119.119h-.069c-.066 0-.12-.053-.12-.119v-.159c-.031.002-.062.003-.096.004v.156c0 .065-.053.118-.119.118h-.069c-.066 0-.119-.053-.119-.118v-.155c-.034-.001-.066-.002-.097-.004v.159c0 .065-.053.119-.119.119zm-.012-1.276c.156.061.282.123.282.274s-.102.18-.282.273c-.138.073-.283-.122-.283-.273s.137-.33.283-.274zm.759 0c.15-.042.282.123.282.274s-.149.354-.282.273c-.165-.097-.283-.122-.283-.273s.11-.225.283-.274z" fill="#ededed"/>
  <path d="m41.249 5.55.33.349.523-.495.417.441-.521.494.33.35c.113.118.111.302-.002.409-.114.108-.298.1-.409-.019l-.332-.349-.523.496-.418-.44.524-.471-.331-.376c-.113-.118-.11-.302.003-.409.113-.108.297-.099.409.02z" fill="#fff"/>
  <path d="m37.356 5.471.003-.134.48.013-.005.134.26.007c.248.007.445.215.437.463l-.024.9c-.006.249-.213.446-.462.439l-.996-.027c-.249-.006-.445-.214-.438-.462l.023-.901c.007-.249.215-.445.464-.439zm-.144.392c.129.003.231.111.227.24-.002.129-.111.231-.239.228-.129-.003-.232-.112-.228-.24.003-.129.111-.231.24-.228zm.798.021c.129.004.231.111.227.241-.003.129-.11.231-.24.227-.129-.003-.231-.11-.228-.24.004-.129.112-.231.241-.228z" fill="#fff"/>
 </g>
 <path d="m14.928 19.362 2.77-.007 2.984 5.794 3.682.058 4.475 5.88 1.502.001 2.944-2.503 2.458.08 2.521 7.616 1.304.041 2.109-1.413 1.693-.15 1.101-.894 1.197-.012v5.587c0 3.438-2.79 6.228-6.228 6.228h-30.88c-3.438 0-6.228-2.79-6.228-6.228v-8.707l.614-.018 2.461-2.91 2.263-.067 3.037-5.484 2.383-.152z" fill="url(#b)"/>
</svg>
