<svg clip-rule="evenodd" fill-rule="evenodd" stroke-linejoin="round" stroke-miterlimit="2" viewBox="0 0 48 48" xmlns="http://www.w3.org/2000/svg">
 <linearGradient id="a" x2="1" gradientTransform="matrix(0 -10.2173 10.2173 0 1379.89 56.3225)" gradientUnits="userSpaceOnUse">
  <stop stop-color="#2a2a2a" offset="0"/>
  <stop stop-color="#5b5b5b" offset="1"/>
 </linearGradient>
 <linearGradient id="b" x2="1" gradientTransform="matrix(.0887097 -41.2337 41.2337 .0887097 774.615 49.0873)" gradientUnits="userSpaceOnUse">
  <stop stop-color="#2d2d2f" offset="0"/>
  <stop stop-color="#676767" offset="1"/>
 </linearGradient>
 <linearGradient id="c" x2="1" gradientTransform="matrix(-.0595533 -35.183 35.183 -.0595533 522.449 40.2431)" gradientUnits="userSpaceOnUse">
  <stop stop-color="#f086fb" offset="0"/>
  <stop stop-color="#4392f6" offset="1"/>
 </linearGradient>
 <linearGradient id="d" x2="1" gradientTransform="matrix(0 -15.2833 15.2833 0 603.614 40.5455)" gradientUnits="userSpaceOnUse">
  <stop stop-color="#132e51" offset="0"/>
  <stop stop-color="#2767b9" offset="1"/>
 </linearGradient>
 <path transform="scale(.75)" d="m23.766 43.974h16.469v14.116h-16.469z" fill="url(#a)"/>
 <path d="m13.75875 43.54725h20.4825v1.29h-20.4825z" fill="#615e5e" stroke-width=".75"/>
 <path d="m13.75875 44.83725h20.4825v1.038h-20.4825z" fill="#5e6f91" stroke-width=".75"/>
 <path transform="scale(.75)" d="m1.414 6.002h61.171v41.333h-61.171z" fill="url(#b)"/>
 <path d="m45.897 5.38v24.332c-.539.332-43.255.332-43.794 0v-24.332z" fill="url(#c)"/>
 <circle cx="16.96196" cy="15.1855" r="4.207" fill="#cde3fe"/>
 <path d="m45.897 20.337v14.113h-43.794v-11.887l3.828 1.921 6.325-.573 2.192 1.194 1.104-.329 2.707 2.405 5.286 2.879 3.623-.986 1.806-1.674 3.553.945 2.178-1.322 2.561-3.143.785.676 5.25-7.351z" fill="url(#d)"/>
</svg>
