<svg clip-rule="evenodd" fill-rule="evenodd" stroke-linejoin="round" stroke-miterlimit="2" viewBox="0 0 48 48" xmlns="http://www.w3.org/2000/svg">
 <linearGradient id="a" x2="1" gradientTransform="matrix(.578985 -45.5208 45.5208 .578985 24 46.764)" gradientUnits="userSpaceOnUse">
  <stop stop-color="#35c2c1" offset="0"/>
  <stop stop-color="#91f6f6" offset="1"/>
 </linearGradient>
 <linearGradient id="b" x2="1" gradientTransform="matrix(.172172 -45.1622 45.1622 .172172 23.0048 46.7426)" gradientUnits="userSpaceOnUse">
  <stop stop-color="#ff416c" offset="0"/>
  <stop stop-color="#ff729b" offset="1"/>
 </linearGradient>
 <circle cx="24" cy="24" r="22.764" fill="url(#a)"/>
 <path d="m27.797 1.581-26.505 21.299c-.028.373-.046.746-.056 1.12.004.125.008.249.014.374l1.442-1.159c.246-.197.547-.278.836-.246.289.031.567.174.765.42l1.425 1.774c.395.491.318 1.205-.173 1.6l-1.774 1.427c-.492.395-1.206.316-1.601-.175l-.689-.856c.175 1.242.452 2.467.829 3.664l7.496-6.025c.369-.296.8-.459 1.236-.496.728-.061 1.472.231 1.965.845l7.13 8.872c.79.983.634 2.411-.349 3.201l-7.67 6.163c1.251.767 2.573 1.412 3.948 1.925l-1.062-1.323c-.395-.491-.318-1.205.173-1.6l1.776-1.425c.246-.198.547-.279.836-.247.289.031.565.174.763.42l1.427 1.774c.395.492.316 1.206-.176 1.601l-1.774 1.427c-.002.002-.006.002-.009.004.457.132.919.249 1.383.351l27.345-21.975c.006-.105.011-.21.016-.315-.004-.376-.018-.752-.04-1.128l-.305.245c-.491.395-1.203.318-1.598-.173l-1.427-1.774c-.395-.492-.318-1.206.173-1.601l1.776-1.427c.177-.142.384-.202.594-.225-.136-.455-.286-.905-.449-1.351l-7.957 6.393c-.983.79-2.409.634-3.198-.349l-7.132-8.872c-.79-.983-.634-2.409.349-3.199l7.785-6.258c-.382-.217-.771-.423-1.165-.618-.065.103-.135.204-.235.285l-1.774 1.425c-.492.395-1.206.318-1.601-.173l-1.425-1.774c-.38-.473-.313-1.145.129-1.548-.486-.115-.975-.214-1.467-.298v.001zm-2.974 4.277c.289.031.565.174.762.42l1.427 1.774c.395.491.316 1.205-.175 1.6l-1.774 1.425c-.492.395-1.206.318-1.601-.173l-1.425-1.774c-.395-.492-.318-1.206.173-1.601l1.774-1.427c.246-.197.549-.276.839-.244zm-7.099 5.704c.29.031.565.174.763.42l1.427 1.774c.395.492.316 1.206-.176 1.601l-1.774 1.425c-.491.395-1.205.318-1.6-.174l-1.425-1.776c-.395-.491-.318-1.203.173-1.598l1.776-1.427c.246-.198.547-.276.836-.245zm4.851 3.472c.728-.061 1.472.231 1.965.845l7.13 8.872c.79.983.634 2.409-.349 3.199l-5.322 4.28c-.983.79-2.412.634-3.202-.349l-7.129-8.873c-.79-.983-.634-2.411.349-3.201l5.322-4.277c.369-.296.8-.459 1.236-.496zm-11.949 2.232c.29.032.567.172.765.418l1.425 1.776c.395.492.318 1.204-.173 1.599l-1.774 1.427c-.492.395-1.206.316-1.601-.176l-1.427-1.774c-.395-.491-.316-1.205.176-1.6l1.774-1.425c.245-.198.546-.276.835-.245zm28.455 6.336c.29.031.567.174.765.42l1.425 1.774c.395.492.318 1.206-.173 1.601l-1.774 1.425c-.492.395-1.206.318-1.601-.174l-1.427-1.774c-.395-.491-.316-1.205.176-1.6l1.774-1.427c.245-.198.546-.276.835-.245zm-7.098 5.704c.289.032.567.172.765.418l1.425 1.776c.395.492.318 1.204-.174 1.599l-1.774 1.427c-.491.395-1.205.318-1.6-.173l-1.425-1.777c-.395-.491-.318-1.203.173-1.598l1.774-1.427c.246-.198.547-.276.836-.245zm-7.096 5.705c.289.031.565.172.763.418l1.427 1.774c.395.491.316 1.205-.176 1.6l-1.774 1.427c-.491.395-1.205.316-1.6-.175l-1.425-1.774c-.395-.492-.318-1.206.173-1.601l1.774-1.425c.246-.197.549-.276.838-.244z" fill="url(#b)" fill-rule="nonzero"/>
</svg>
