<svg clip-rule="evenodd" fill-rule="evenodd" stroke-linejoin="round" stroke-miterlimit="2" viewBox="0 0 48 48" xmlns="http://www.w3.org/2000/svg">
 <linearGradient id="a" x2="1" gradientTransform="matrix(.241674 -48.148 48.148 .241674 119.741 48.2998)" gradientUnits="userSpaceOnUse">
  <stop stop-color="#7d150e" offset="0"/>
  <stop stop-color="#f55" offset="1"/>
 </linearGradient>
 <circle cx="24" cy="24" r="22.764" fill="url(#a)"/>
 <path d="m33.655 14.265c-.513 0-1.032.108-1.448.317-.607.306-1.218.954-1.49 1.579-.288.664-.33 1.834-.086 2.457.102.263.28.715.394 1.005.256.654.35 2.092.186 2.9-.183.91-.753 1.96-1.422 2.62-2.006 1.983-5.039 2.017-7.031.081-.687-.668-.785-.828-3.888-6.366-1.054-1.88-1.998-3.453-2.195-3.657-.617-.652-1.474-.886-2.259-.89-1.688-.027-2.858 1.293-3.136 2.712-.205 1.134-.299.938 5.154 10.655 3.442 6.133 5.077 8.96 5.345 9.239.95.984 2.305 1.228 3.571.643.334-.154.71-.43.951-.697.472-.523 10.227-17.841 10.386-18.436.165-.624.124-1.512-.099-2.125-.278-.764-1.044-1.547-1.8-1.84-.338-.133-.734-.197-1.133-.197z" fill="#fff" fill-opacity=".85" fill-rule="nonzero"/>
</svg>
