<svg clip-rule="evenodd" fill-rule="evenodd" stroke-linejoin="round" stroke-miterlimit="2" viewBox="0 0 48 48" xmlns="http://www.w3.org/2000/svg">
 <linearGradient id="a" x2="1" gradientTransform="matrix(0 -37 37 0 25.8028 42)" gradientUnits="userSpaceOnUse">
  <stop stop-color="#ffb824" offset="0"/>
  <stop stop-color="#fecd38" offset="1"/>
 </linearGradient>
 <g transform="matrix(1.07271 0 0 1.07271 -1.78137 -1.70866)" fill-rule="nonzero">
  <path d="m3.162 22.949c1.745-2.933 8.558-14.368 10.302-17.301.213-.358.728-.649 1.152-.648 3.417.007 16.6.04 20.017.046.423.001.937.293 1.147.654 1.71 2.945 8.354 14.446 10.064 17.391.209.361.208.944-.004 1.303-1.711 2.887-8.295 13.975-10.006 16.861-.213.359-.728.651-1.151.652-3.476.014-17.088.08-20.564.093-.423.002-.936-.29-1.144-.652-1.679-2.917-8.142-14.18-9.821-17.096-.208-.362-.205-.945.008-1.303z" fill="url(#a)"/>
  <path d="m22.014 34.859 11.171-17.345c.227-.354.674-.589 1.113-.492l4.602 1.013c.082.011.126.094.083.159l-9.771 16.193c-.222.369-.663.583-1.125.585l-5.984.028c-.079 0-.129-.078-.089-.141z" fill="#fea624"/>
  <path d="m11.042 18.742 2.706-4.075c.365-.551.512-.667.703-.667h4.678c.419-.006.701.326.948.667l4.923 6.781-3.208 4.367c-.191.259-.583.243-.752-.031l-4.134-6.703c-.013-.021-.036-.035-.062-.035l-5.781-.101c-.103-.078-.057-.088-.021-.203z" fill="#fea624"/>
  <path d="m14.451 14c-.191 0-.338.116-.703.666l-2.705 4.076c-.037.115-.084.125.02.203l.503.008 2.182-3.287c.365-.55.512-.666.703-.666h4.678c.42-.006.702.325.949.666l4.557 6.277.365-.496-4.922-6.781c-.247-.341-.529-.672-.949-.666z" fill="#000001" fill-opacity=".2"/>
  <path d="m33.859 18.506c-.437-.004-.844.206-1.076.553l-10.49 15.748c-.06.084-.15.144-.254.17.018.013.039.023.065.023l.728-.004 9.951-14.937c.232-.347.639-.557 1.076-.553l4.313.031s.828-1.346.828-1.389c.004.102-.053-.15-.053-.15h-.004z" fill-opacity=".2"/>
  <path d="m11.391 18.448 5.413-.037c.435-.003.841.211 1.064.561l3.844 6.055c.078.122.219.198.371.198.147 0 .285-.071.364-.188l7.072-10.49c.233-.346.643-.554 1.08-.547l4.911.073c.44.006.849.218 1.089.563l2.34 3.359c.04.057.061.124.061.193 0 .193-.17.353-.377.353-.001 0-.002 0-.003 0l-4.762-.036c-.437-.003-.845.207-1.076.554l-10.488 15.748c-.08.12-.221.193-.372.193s-.292-.074-.372-.194l-10.49-15.793c-.039-.059-.06-.126-.06-.196 0-.201.176-.367.391-.369z" fill="#feffff"/>
 </g>
</svg>
