<svg clip-rule="evenodd" fill-rule="evenodd" stroke-linejoin="round" stroke-miterlimit="2" viewBox="0 0 48 48" xmlns="http://www.w3.org/2000/svg">
 <linearGradient id="a" x2="1" gradientTransform="matrix(0 -40 40 0 24 44)" gradientUnits="userSpaceOnUse">
  <stop stop-color="#1666a3" offset="0"/>
  <stop stop-color="#4899d7" offset="1"/>
 </linearGradient>
 <linearGradient id="b" x2="1" gradientTransform="matrix(24.0005 0 0 23.9981 12.0008 25)" gradientUnits="userSpaceOnUse">
  <stop stop-color="#d99f1b" offset="0"/>
  <stop stop-color="#ffca68" offset="1"/>
 </linearGradient>
 <g transform="matrix(1.1382 0 0 1.1382 -3.3168 -3.3168)">
  <path d="m44 24c0-11.038-8.962-20-20-20s-20 8.962-20 20 8.962 20 20 20 20-8.962 20-20z" fill="url(#a)"/>
  <g fill-rule="nonzero">
   <path d="m36 13.002s-3.6-.103-7.197 1.697c-1.1.5-2.298 1.3-3.297 2.299-1.616 1.616-4.127 4.592-6.104 6.996h-4.39l-2 2.998 3.39.918c.01.121.043.291.137.522l-.527 1.158s-.201.401 1.298 2c1.6 1.6 2.1 1.398 2.1 1.398l1.242-.564c.186.058.324.078.414.078l.942 3.484 2.998-1.998v-4.525c2.421-1.958 5.393-4.418 6.996-5.969.999-.999 1.8-2.199 2.398-3.299 1.698-3.596 1.6-7.192 1.6-7.192zm-21.289 16.988c-.2.202-.499.401-.699.602-2.299 2.296-1.998 6.394-1.998 6.394s4.095.301 6.394-1.998c.201-.2.402-.499.602-.699-.2-.1-.3-.2-.5-.301-1.9 1.499-4.797 1.299-4.797 1.299s-.2-2.899 1.299-4.797c-.101-.2-.201-.3-.301-.5z" fill="url(#b)"/>
   <path d="m29 22c-1.101 0-2-.9-2-2 0-1.101.899-2 2-2 1.1 0 2 .899 2 2 0 1.1-.901 2-2 2z" fill="#fff"/>
  </g>
 </g>
</svg>
