<svg clip-rule="evenodd" fill-rule="evenodd" stroke-linejoin="round" stroke-miterlimit="2" viewBox="0 0 48 48" xmlns="http://www.w3.org/2000/svg">
 <linearGradient id="a" x2="1" gradientTransform="matrix(0 -40 40 0 24 44)" gradientUnits="userSpaceOnUse">
  <stop stop-color="#2b2b2b" offset="0"/>
  <stop stop-color="#4f4f4f" offset="1"/>
 </linearGradient>
 <g transform="matrix(1.1382 0 0 1.1382 -3.3168 -3.3168)">
  <path d="m44 24c0 11.038-8.962 20-20 20s-20-8.962-20-20 8.962-20 20-20 20 8.962 20 20z" fill="url(#a)"/>
  <path d="m28.336 11.979c-.155 0-.304.019-.457.025-.288.005-.575.021-.861.049-5.639.505-10.013 5.286-10.018 10.947.002.18.009.361.02.541-.001.036-.004.071-.004.107v1.559l-.016.793-2.76 4.115c-.6 1.145-.032 1.856 1.256 1.873l1.52.02v4.5c0 1.344 1.102 2.451 2.453 2.451l2.531.041v4.9c.658.065 1.325.1 2 .1 4.516 0 8.659-1.5 12-4.006v-7.994c0-.513-.015-.984-.041-1.426 1.947-2.041 3.036-4.754 3.041-7.574-.006-5.727-4.483-10.54-10.195-10.959-.165-.039-.323-.062-.469-.062z" fill="#1d64ff" fill-rule="nonzero"/>
  <path d="m28 17c3.292 0 6 2.708 6 6s-2.708 6-6 6-6-2.708-6-6 2.708-6 6-6zm0 2c-2.194 0-4 1.806-4 4s1.806 4 4 4 4-1.806 4-4-1.806-4-4-4zm0 2c1.104 0 2 .896 2 2s-.896 2-2 2-2-.896-2-2 .896-2 2-2z" fill="#fff"/>
 </g>
</svg>
