<svg clip-rule="evenodd" fill-rule="evenodd" stroke-linejoin="round" stroke-miterlimit="2" viewBox="0 0 48 48" xmlns="http://www.w3.org/2000/svg">
 <linearGradient id="a" x2="1" gradientTransform="matrix(-7.58356 -19.6722 19.6722 -7.58356 11.9851 35.4186)" gradientUnits="userSpaceOnUse">
  <stop stop-color="#0073d5" offset="0"/>
  <stop stop-color="#00edff" offset="1"/>
 </linearGradient>
 <linearGradient id="b" x2="1" gradientTransform="matrix(7.93624 -20.0391 20.0391 7.93624 35.0012 35.4186)" gradientUnits="userSpaceOnUse">
  <stop stop-color="#4015ae" offset="0"/>
  <stop stop-color="#8f88e7" offset="1"/>
 </linearGradient>
 <linearGradient id="c" x2="1" gradientTransform="matrix(-10.316 -12.6439 12.6439 -10.316 37.029 37.4489)" gradientUnits="userSpaceOnUse">
  <stop stop-color="#00edff" offset="0"/>
  <stop stop-color="#0081cd" offset="1"/>
 </linearGradient>
 <linearGradient id="d" x2="1" gradientTransform="matrix(-8.88762 -14.6304 14.6304 -8.88762 37.5981 40.0317)" gradientUnits="userSpaceOnUse">
  <stop stop-color="#00e1fa" offset="0"/>
  <stop stop-color="#0082ce" offset="1"/>
 </linearGradient>
 <linearGradient id="e" x2="1" gradientTransform="matrix(-6.46889 -3.22062 3.22062 -6.46889 24.7752 36.9188)" gradientUnits="userSpaceOnUse">
  <stop stop-color="#fff" stop-opacity="0" offset="0"/>
  <stop stop-color="#0072b5" stop-opacity=".25" offset="1"/>
 </linearGradient>
 <path d="m2.46 22.032 8 18c1.121 2.521 4.078 3.659 6.6 2.538 2.521-1.121 3.659-4.078 2.538-6.6l-8-18c-1.121-2.521-4.078-3.659-6.6-2.538-2.521 1.121-3.659 4.078-2.538 6.6z" fill="url(#a)"/>
 <path d="m37.598 40.032 8-18c1.121-2.522-.017-5.479-2.538-6.6-2.522-1.121-5.479.017-6.6 2.538l-8 18c-1.121 2.522.017 5.479 2.538 6.6 2.522 1.121 5.479-.017 6.6-2.538z" fill="url(#b)"/>
 <g fill-rule="nonzero">
  <path d="m19.753 24.576s6.262-7.854 7.739-6.185c2.017 2.638 3.594 5.931 5.023 8.478l-.016.026 3.707 6.589c1.336 1.426 2.831.97 4.249.145l-2.846 6.402c-1.672 3.756-6.909 4.002-8.926.42z" fill="url(#c)"/>
  <path d="m19.753 24.576s2.698-2.666 4.175-.997c2.017 2.638 3.594 5.931 5.023 8.478l-.016.026s3.043 6.044 5.198 6.171c3.017.179 4.785-2.488 6.322-4.625l-2.846 6.402c-1.672 3.756-6.909 4.002-8.926.42z" fill="url(#d)"/>
  <path d="m30.734 13.063c-.97-.016-2.083.145-3.431.601-3.271 1.082-5.278 3.058-6.754 4.727-2.018 2.638-3.595 5.931-5.024 8.478l.016.026-3.707 6.589c-1.336 1.426-2.83.97-4.248.145l2.846 6.402c1.671 3.756 6.909 4.002 8.925.42l8.93-15.875.164-.256c1.785-2.853 3.827-5.683 6.225-7.853.268-.237.47-.623.304-1.029-.672-1.648-1.903-2.009-3.32-2.305-.295-.04-.602-.065-.926-.07zm-15.505-.062c-.14-.004-.281.007-.421.036-1.11.23-1.979 1.973-1.779 3.568.123.99.967 2.504 1.687 3.029.313.228.719.391.903.363.289-.045.352-.23.453-1.337.065-.707.306-1.767.534-2.357.499-1.287.516-1.705.096-2.453-.286-.508-.865-.83-1.473-.849zm9.605-7.001c.846-.001 1.625.305 2.264.913 1.234 1.172 1.201 2.605-.095 4.061-.687.772-.948.934-3.809 2.357-1.071.533-1.661.959-2.342 1.691-.501.538-1.008.978-1.128.978-.119 0-.311-.207-.426-.46s-.243-1.125-.284-1.937c-.164-3.215 1.132-5.64 3.76-7.041.704-.375 1.402-.561 2.06-.562zm8.166-1c1.104 0 2 .896 2 2s-.896 2-2 2-2-.896-2-2 .896-2 2-2z" fill="#00edff"/>
  <path d="m22.984 16.018c1.146-.919 2.477-1.798 4.249-2.384 1.348-.456 2.541-.658 3.511-.642.324.005.631.03.926.07 1.417.296 2.698.668 3.37 2.316.166.406-.016.885-.284 1.122-.852.771-1.739 1.592-2.505 2.501-1.948 1.18-2.894 1.822-4.223 1.822-1.328 0-1.312-1.32-1.312-1.32s-1.328 1.874-3.827 1.604c-1.523-.165-1.46-2.544.095-5.089z" fill="#e1fcfe"/>
  <path d="m34.98 15.438c-1.473-.999-3.35.13-4.876 1.062-2.94 1.796-4.997 5.02-6.176 7.079-1.598 2.79-3.499 6.35-4.928 8.897 0 0-2.624 5.383-6 5.432-2.939.043-4.034-2.5-5.414-4.279l2.846 6.402c1.671 3.756 6.909 4.002 8.925.42l8.93-15.875.164-.256c1.785-2.853 3.827-5.683 6.225-7.853.268-.237.667-.783.304-1.029z" fill="url(#e)"/>
 </g>
</svg>
