<svg clip-rule="evenodd" fill-rule="evenodd" stroke-linejoin="round" stroke-miterlimit="2" viewBox="0 0 48 48" xmlns="http://www.w3.org/2000/svg">
 <linearGradient id="a" x2="1" gradientTransform="matrix(.304582 -46.0183 46.0183 .304582 23.9032 47.2136)" gradientUnits="userSpaceOnUse">
  <stop stop-color="#c45e00" offset="0"/>
  <stop stop-color="#cd9700" offset="1"/>
 </linearGradient>
 <circle cx="24" cy="24" r="22.764" fill="url(#a)"/>
 <path d="m24.01 7.174c-2.87 0-5.573.724-7.938 1.989h3.342v.228c-.443.022-.745.14-.907.351-.338-.237-.671-.351-.991-.351h-1.099l-.613.096-.11-.096h-.035c-.438.25-.864.521-1.275.811.942 1.353 1.512 2.519 1.708 3.5h.912v.228h-.701v.254c.267.982.464 1.473.591 1.473h.214l.487-.127.105.127.11-.127.106.127v.092c-.359.258-.6.609-.724 1.06h-.078v.223h.188c.25 3.553.715 6.247 1.393 8.083l.398.315h.214c.255 0 .833-1.244 1.687-3.737.552-1.122.956-2.116 1.205-2.966l-.118-.355c.556-.828 1.14-1.244 1.717-1.244h.189c.372 0 .639.237.797.706.504.701.912 1.761 1.209 3.167l1.503 3.321c.193.237.289.499.289.797.552 1.258 1.056 2.09 1.512 2.494h.324c.373 0 .864-1.556 1.494-4.666.11 0 .398-.828.89-2.493v-.127l-1.696-.219-.395.122h-.513v-.254l1.021-.101h1.981c.771-2.747 1.476-4.876 2.116-6.392.071-.963.149-1.761.228-2.431-1.166-.964-2.462-1.779-3.86-2.406-.117.262-.333.395-.675.395v-.219l.623-.206c-2.081-.924-4.39-1.437-6.817-1.437m-3.211 1.985h2.707v.228l-.613.096-.596-.096-.508.223-.179-.223h-.807v-.228m-8.794 3.036c-2.987 3.036-4.84 7.207-4.84 11.807 0 9.287 7.54 16.819 16.823 16.819 9.288 0 16.823-7.532 16.823-16.819 0-3.76-1.227-7.229-3.295-10.025-.455.535-.894 1.551-1.332 3.05-.193 1.551-.526 2.992-.991 4.311-.411 1.363-.618 2.62-.618 3.772l-.775 2.269c0 .188.303.381.885.569-.11.451-.262.671-.486.671v.127h.188v.096c0 .237-.306.351-.912.351l.11.127v.451h-.184c.122.446.386.666.798.666v.228h-.798v.127c.263 0 .398.188.398.569l-1.121.447.11.126v.101c0 .15-.136.219-.403.219v.127c.338 0 .508.074.508.223-.478.193-1.112 1.144-1.901 2.848-.802 1.511-1.498 2.265-2.077 2.265h-.214c-.447-.342-.811-1.472-1.099-3.387-1.144-2.922-1.713-4.635-1.713-5.143 0-1.324-.372-2.726-1.104-4.22-.192-.661-.324-1.494-.394-2.497l-.487-.123c-1.218 2.195-1.848 3.908-1.901 5.144-.338.727-.605 1.599-.802 2.624.731.228 1.096.451 1.096.671v.118c-.57-.079-.968-.246-1.2-.483-.255.584-.584 2.177-.995 4.793-.324 1.213-.719 1.822-1.205 1.822-1.353-.53-2.493-1.406-3.398-2.615-.145 0-.381-.609-.701-1.827-.197 0-.329-.605-.403-1.818-.675-1.726-1.139-3.702-1.388-5.914v-3.321h-.11l-.482.127v-.127c0-.154.162-.223.482-.223l-.105-1.915v-1.503l-.78-4.789v-.928m12.884.048v.127c0 .166-.425.351-1.284.538v-.228l.591-.31.106.092h.083m-2.388.928v.092c-.372.347-.986.653-1.823.933v-.223c.145 0 .215-.117.215-.354l1.608-.443m15.15.122-.048.412h.188l.114-.092c-.082-.11-.17-.219-.257-.324m-9.437 5.336v.101l-.508.478h-.294v-.127c0-.188.267-.342.802-.446m-16.609 4.438h.11v.105c-.267.701-.499 1.122-.692 1.275h-.211v-.486m13.897 4.446h.105v.219l-.802.487-.105-.127v-.223l.802-.351m-11.006 1.498h.184l.32 1.24h-.214l-.29-1.148v-.096" fill="#f9f9f9" fill-rule="nonzero"/>
</svg>
