<svg clip-rule="evenodd" fill-rule="evenodd" stroke-linejoin="round" stroke-miterlimit="2" viewBox="0 0 48 48" xmlns="http://www.w3.org/2000/svg">
 <linearGradient id="a" x2="1" gradientTransform="matrix(0 -44.8576 44.8576 0 24 46.4287)" gradientUnits="userSpaceOnUse">
  <stop stop-color="#1c686f" offset="0"/>
  <stop stop-color="#347f85" offset="1"/>
 </linearGradient>
 <g fill-rule="nonzero">
  <path d="m23.999 1.571c-1.175 0-2.35.438-3.229 1.316l-17.883 17.885c-1.756 1.757-1.754 4.697.003 6.453l17.883 17.885c1.756 1.757 4.699 1.759 6.456.003l17.883-17.885c1.756-1.757 1.756-4.699 0-6.456l-17.883-17.885c-.879-.878-2.055-1.316-3.23-1.316z" fill="url(#a)"/>
  <path d="m38.921 4.775c-.191.006-.376.063-.538.165l-28.837 18.157c-.31.195-.498.536-.499.903v4.272c0 .643.564 1.14 1.202 1.06l5.455-.682-7.412 7.411c-.2.201-.313.472-.313.755v5.341c.001.838.923 1.348 1.634.905l25.633-16.021c.312-.195.502-.537.502-.905v-4.272c0-.405-.228-.775-.59-.955l-2.947-1.473 7.497-7.497c.2-.201.313-.472.313-.755v-5.341c0-.602-.498-1.085-1.1-1.068z" fill="#fdd04b"/>
  <path d="m28.272 17.592 3.939 1.844 7.497-7.497c.2-.201.313-.472.313-.755v-4.273s-9.349 8.286-11.749 10.681zm7.066 3.442-27.359 15.782v5.341c.001.838.923 1.348 1.634.905l25.633-16.021c.312-.195.502-.537.502-.905v-4.272c0-.33-.158-.63-.41-.83zm-14.542 1.898-11.749 1.068v4.272c0 .643.564 1.14 1.202 1.06l5.449-.682z" fill="#800000" fill-opacity=".1"/>
 </g>
</svg>
