<svg clip-rule="evenodd" fill-rule="evenodd" stroke-linejoin="round" stroke-miterlimit="2" viewBox="0 0 48 48" xmlns="http://www.w3.org/2000/svg">
 <path d="m39.44 45.668h-30.88c-3.438 0-6.228-2.79-6.228-6.228v-30.88c0-3.438 2.79-6.228 6.228-6.228h30.88c3.438 0 6.228 2.79 6.228 6.228v30.88c0 3.438-2.79 6.228-6.228 6.228z" fill="#454f5e"/>
 <path d="m42.674 44.763c-.943.574-2.05.905-3.234.905h-7.895l-6.701-20.663zm-39.888-2.986c9.762-8.003 20.578-16.745 21.026-16.589l-16.747 20.299c-1.948-.481-3.537-1.879-4.279-3.71zm42.882-15.734v8.176l-20.308-9.671zm-21.621-1.723-21.715-7.831v-7.929-.044z" fill="#eeeeec" fill-opacity=".07"/>
 <path d="m27.362 45.668h-7.216l4.276-20.343zm-2.377-22.308-3.342-21.028h17.055z" fill="#eeeeec" fill-opacity=".07"/>
 <path d="m11.037 45.668c5.311-8.786 12.887-20.52 13.057-20.343l-4.887 20.343zm34.631-9.45v3.101l-20.214-14.131zm-43.336 2.98v-7.151l20.542-6.768zm20.167-14.147-20.167 5.525v-8.39zm.985-.274-21.152-4.579v-3.032zm22.184-9.368v6.525l-20.214 2.34zm-21.715 8.271-16.352-21.274c.313-.049.633-.074.959-.074h8.806zm20.006-19.405c.476.502.869 1.083 1.158 1.721l-11.83 10.328z" fill-opacity=".02"/>
 <path d="m45.668 39.516c-.012.951-.237 1.85-.629 2.653l-12.268-11.133zm-43.336-10.811v-2.561l21.246-1.459zm43.336-10.889v1.869l-19.276 4.543z" fill="#ffffff" fill-opacity=".11"/>
 <path d="m27.362 45.668h-2.062l-.878-20.343zm-22.1-.945c-.491-.307-.936-.681-1.322-1.108l12.883-11.482zm40.406-14.173v3.029l-16.837-7.477zm-22.278-6.596-19.693-19.283c.906-1.132 2.199-1.941 3.679-2.226zm22.084-16.942c.127.495.194 1.014.194 1.548v2.996l-20.073 12.17zm-21.896 16.12-10.275-20.8h1.764zm2.157-1.142 10.053-19.658h2.997zm-9.709-2.833-13.694-8.718v-1.668z" fill="#eeeeec" fill-opacity=".07"/>
 <path d="m12.953 43.079h11.439v2.548h-11.439z" fill="#50bc7c"/>
 <path d="m3.506 43.079h9.822v2.549h-5.479c-1.785-.203-3.342-1.162-4.343-2.549z" fill="#6067e8" fill-rule="nonzero"/>
 <path d="m24.017 43.079h11.064v2.548h-11.064z" fill="#ef4056"/>
 <path d="m44.492 43.082c-1.001 1.385-2.557 2.343-4.341 2.546h-5.445v-2.549z" fill="#fcb642" fill-rule="nonzero"/>
 <path d="m4.748 43.079c.037.034.074.067.112.1h38.314c.038-.033.075-.066.111-.1z" fill="none"/>
 <path d="m25.538 14.575c-1.077-.002-1.97.184-2.836.619-.803.403-1.778 1.204-2.263 1.84-.821 1.076-.789 1.046-1.177.89-1.224-.489-2.632-.573-3.757-.226-2.082.643-3.577 2.646-3.666 4.918-.014.366-.05.705-.09.77s-.303.173-.573.241c-1.28.323-2.289 1.142-2.822 2.278-.252.539-.286.726-.286 1.811 0 1.141.014 1.226.332 1.871.551 1.121 2.082 2.383 3.53 2.383h2.806c-.008-.084-.066-.242-.151-.407-.298-.585-.512-1.609-.513-2.444-.001-2.295 1.374-4.082 3.742-4.858.764-.251.95-.367.95-.588 0-.312.568-1.575 1.011-2.248.621-.944 1.435-1.668 2.459-2.173 2.563-1.263 5.576-.851 7.423.996l.664.649.709-.181c.394-.103.853-.193 1.01-.197.362-.007.382-.273.076-1.191-.96-2.875-3.567-4.745-6.578-4.753zm-.196 5.16c-1.277-.007-1.811.12-2.867.649-1.008.505-1.949 1.732-2.459 3.213-.112.326-.211.691-.211.815 0 .393-.239.566-1.011.724-1.55.318-2.723 1.192-3.168 2.338-.181.468-.242.812-.241 1.539.003 2.274 1.316 4.406 3.304 4.406.483 0 2.434.014 9.731 0h9.097c1.448 0 2.304-1.915 2.399-2.942.144-1.877-.657-3.149-2.354-3.757l-.588-.211-.076-.815c-.242-2.97-3.244-4.755-6.261-3.711l-.618.226-.709-.739c-1.265-1.329-2.155-1.725-3.968-1.735z" fill="#ffffff" fill-rule="nonzero"/>
</svg>
