<svg clip-rule="evenodd" fill-rule="evenodd" stroke-linejoin="round" stroke-miterlimit="2" viewBox="0 0 48 48" xmlns="http://www.w3.org/2000/svg">
 <linearGradient id="a" x2="1" gradientTransform="matrix(-45.136 .647316 -.647316 -45.136 38.2068 -559.316)" gradientUnits="userSpaceOnUse">
  <stop stop-color="#0089c9" offset="0"/>
  <stop stop-color="#2dcb72" offset="1"/>
 </linearGradient>
 <linearGradient id="b" x2="1" gradientTransform="matrix(-.363346 -25.361 25.361 -.363346 1129.58 21.4678)" gradientUnits="userSpaceOnUse">
  <stop stop-color="#147966" offset="0"/>
  <stop stop-color="#2dcbc6" offset="1"/>
 </linearGradient>
 <path d="m39.44 2.332c3.438 0 6.228 2.79 6.228 6.228v30.88c0 3.438-2.79 6.228-6.228 6.228h-30.88c-3.438 0-6.228-2.79-6.228-6.228v-30.88c0-3.438 2.79-6.228 6.228-6.228z" fill="url(#a)"/>
 <path d="m8.56 2.332h15.44v43.336h-15.44c-3.438 0-6.228-2.79-6.228-6.228v-30.88c0-3.438 2.79-6.228 6.228-6.228z" fill="url(#b)"/>
 <path d="m14.248 30.377-.001-.57-6.668.012-.026.472c-.014.26-.005.527.021.594.039.1.607.116 3.361.092l3.314-.03zm6.53-5.426c.923-.412 1.397-1.139 1.393-2.134-.004-1.291-.547-1.784-2.642-2.401-.892-.263-1.221-.486-1.221-.831-.001-.398.283-.578.913-.579.451-.001.656.054 1.194.32.358.177.682.302.72.279.112-.07.768-1.068.768-1.169-.001-.168-.708-.605-1.302-.805-.823-.276-1.987-.274-2.604.005-.481.217-.954.629-1.146.997-.418.801-.326 1.861.211 2.454.397.437.736.609 1.847.937 1.04.307 1.381.468 1.515.717.132.246-.031.638-.32.77-.536.246-1.578.049-2.299-.433-.207-.138-.43-.252-.494-.252-.142 0-.926.939-.925 1.108 0 .283 1.099.899 2.02 1.132.667.169 1.866.111 2.372-.115zm-10.1.045c.056-.068.334-.942.618-1.943.496-1.748.568-1.957.644-1.877.033.035 1.025 3.544 1.026 3.625 0 .021.062.101.138.176.174.174 1.286.194 1.42.026.159-.199 2.125-7.288 2.044-7.369-.043-.043-.45-.065-.904-.051l-.825.027-.443 1.712c-.244.942-.471 1.826-.506 1.966-.035.142-.095.219-.136.176-.04-.044-.301-.868-.58-1.833-.279-.964-.543-1.822-.587-1.907-.064-.123-.197-.153-.68-.152-.375.001-.633.042-.687.111-.048.06-.272.756-.498 1.546-.649 2.266-.667 2.321-.744 2.24-.04-.042-.257-.807-.483-1.699s-.452-1.751-.502-1.907l-.09-.285-.871.001c-.72.002-.87.025-.87.135 0 .237 2.021 7.158 2.126 7.285.142.17 1.249.168 1.39-.003z" fill="#fff" fill-rule="nonzero"/>
</svg>
