<svg clip-rule="evenodd" fill-rule="evenodd" stroke-linejoin="round" stroke-miterlimit="2" viewBox="0 0 48 48" xmlns="http://www.w3.org/2000/svg">
 <linearGradient id="a" x2="1" gradientTransform="matrix(-.299799 -43.336 43.336 -.299799 198.381 44.4688)" gradientUnits="userSpaceOnUse">
  <stop stop-color="#00ad8c" offset="0"/>
  <stop stop-color="#40e0ca" offset="1"/>
 </linearGradient>
 <path d="m45.668 8.56c0-3.438-2.79-6.228-6.228-6.228h-30.88c-3.438 0-6.228 2.79-6.228 6.228v30.88c0 3.438 2.79 6.228 6.228 6.228h30.88c3.438 0 6.228-2.79 6.228-6.228z" fill="url(#a)"/>
 <path d="m32.206 37.5c-1.01 0-2.626-.106-3.926-1.365-.777-.752-3.145-3.883-4.28-6.395-.648-1.435-2.829-3.698-4.991-3.353-2.514.402-3.774 2.608-3.916 2.977-.053.138.143.426.476.699 1.035.849 1.472 2.555.959 3.779-.234.556-.468.86-1.005.84-.529-.019-1.128-1.19-2.58-1.137-2.021.075-4.608 2.93-4.701 2.898-.367-.121-.465-1.633-.124-2.83.664-2.325 2.004-3.441 3.678-4.356l.581-.318.188-1.901c.22-2.206.541-3.418 1.334-5.035 1.294-2.637 3.855-4.834 6.424-6.058.778-.371 1.602-.767 1.832-.879.305-.152.402-.314.362-.611-.082-.607-.799-2.107-1.281-2.677-.534-.632-.367-.873.771-1.115 1.696-.363 3.429-.111 4.964.669.961.487 2.387 1.872 3.018 2.928.466.783.698.975 1.954 1.623 5.984 3.085 8.477 9.753 6.303 16.276-.336 1.012-.823 2.027-1.326 2.765-1.264 1.857-2.579 2.576-4.714 2.576z" fill="#fff" fill-rule="nonzero"/>
</svg>
