<svg clip-rule="evenodd" fill-rule="evenodd" stroke-linejoin="round" stroke-miterlimit="2" viewBox="0 0 48 48" xmlns="http://www.w3.org/2000/svg">
 <linearGradient id="a" x2="1" gradientTransform="matrix(.0750367 -43.19 43.19 .0750367 87.46 45.5869)" gradientUnits="userSpaceOnUse">
  <stop stop-color="#003fb6" offset="0"/>
  <stop stop-color="#21c6fb" offset="1"/>
 </linearGradient>
 <linearGradient id="b" x2="1" gradientTransform="matrix(-2e-8 -18.2209 18.2209 -2e-8 546.674 46.9753)" gradientUnits="userSpaceOnUse">
  <stop stop-color="#566069" offset="0"/>
  <stop stop-color="#6c7884" offset="1"/>
 </linearGradient>
 <path d="m45.668 8.56c0-3.438-2.79-6.228-6.228-6.228h-30.88c-3.438 0-6.228 2.79-6.228 6.228v30.88c0 3.438 2.79 6.228 6.228 6.228h30.88c3.438 0 6.228-2.79 6.228-6.228z" fill="url(#a)"/>
 <path d="m11.817 23.108-.009-8.697 9.754-1.454v10.151zm11.371-10.409 13.002-2.077v12.486h-13.002zm13.004 12.193-.002 12.486-13.002-2.007v-10.479zm-14.63 10.251-9.746-1.466-.001-8.785h9.747z" fill="#eff9fe" fill-opacity=".75" fill-rule="nonzero"/>
 <path d="m47.039 32.026c0-.867-.344-1.7-.958-2.313-.613-.614-1.446-.958-2.313-.958h-11.677c-.868 0-1.7.344-2.314.958-.614.613-.958 1.446-.958 2.313v11.677c0 .868.344 1.7.958 2.314s1.446.958 2.314.958h11.677c.867 0 1.7-.344 2.313-.958.614-.614.958-1.446.958-2.314z" fill="url(#b)"/>
 <path d="m44.19 36.522c0-.186-.14-.301-.421-.346l-3.778-.55-1.693-3.424c-.095-.206-.219-.309-.369-.309s-.273.103-.368.309l-1.693 3.424-3.779.55c-.28.045-.421.16-.421.346 0 .105.063.225.189.361l2.739 2.663-.648 3.763c-.01.07-.014.121-.014.151 0 .105.026.194.078.267.054.073.132.109.238.109.09 0 .19-.03.3-.09l3.379-1.777 3.379 1.777c.105.06.206.09.301.09.101 0 .177-.036.229-.109.053-.073.079-.162.079-.267 0-.066-.002-.115-.007-.151l-.647-3.763 2.731-2.663c.131-.13.196-.251.196-.361z" fill="#eff9fe" fill-opacity=".8" fill-rule="nonzero"/>
</svg>
