<svg clip-rule="evenodd" fill-rule="evenodd" stroke-linejoin="round" stroke-miterlimit="2" viewBox="0 0 48 48" xmlns="http://www.w3.org/2000/svg">
 <linearGradient id="a" x2="1" gradientTransform="matrix(-.233966 -43.755 43.755 -.233966 24.234 45.9821)" gradientUnits="userSpaceOnUse">
  <stop stop-color="#8798a9" offset="0"/>
  <stop stop-color="#bfc8d1" offset="1"/>
 </linearGradient>
 <linearGradient id="b" x2="1" gradientTransform="matrix(0 -15.0735 15.0735 0 24.4434 31.5367)" gradientUnits="userSpaceOnUse">
  <stop stop-color="#636a73" offset="0"/>
  <stop stop-color="#5f6974" offset="1"/>
 </linearGradient>
 <linearGradient id="c" x2="1" gradientTransform="matrix(-.233966 -43.755 43.755 -.233966 24.234 45.9823)" gradientUnits="userSpaceOnUse">
  <stop stop-color="#333" stop-opacity=".99" offset="0"/>
  <stop stop-color="#666" stop-opacity=".99" offset="1"/>
 </linearGradient>
 <linearGradient id="d" x2="1" gradientTransform="matrix(0 -38.2818 38.2818 0 33.2885 33.3437)" gradientUnits="userSpaceOnUse">
  <stop stop-color="#333" offset="0"/>
  <stop stop-color="#666" offset="1"/>
 </linearGradient>
 <g fill-rule="nonzero">
  <path d="m24 2.227c-12.062 0-21.773 9.711-21.773 21.773s9.711 21.773 21.773 21.773 21.773-9.711 21.773-21.773-9.711-21.773-21.773-21.773zm0 19.261c1.392 0 2.512 1.12 2.512 2.512s-1.12 2.512-2.512 2.512-2.512-1.12-2.512-2.512 1.12-2.512 2.512-2.512z" fill="url(#a)"/>
  <path d="m23.46 16.896c-3.676 0-6.7 3.024-6.7 6.699s3.024 6.699 6.7 6.699c3.675 0 6.7-3.024 6.7-6.699s-3.025-6.699-6.7-6.699zm0 .837c3.216 0 5.862 2.646 5.862 5.862s-2.646 5.862-5.862 5.862-5.863-2.646-5.863-5.862 2.647-5.862 5.863-5.862z" fill="#9da9b5"/>
  <path d="m24 16.463c-4.176 0-7.537 3.362-7.537 7.537s3.361 7.537 7.537 7.537 7.537-3.362 7.537-7.537-3.361-7.537-7.537-7.537zm0 5.025c1.392 0 2.512 1.12 2.512 2.512s-1.12 2.512-2.512 2.512-2.512-1.12-2.512-2.512 1.12-2.512 2.512-2.512z" fill="url(#b)"/>
  <path d="m24 1.236c-12.594 0-22.764 10.17-22.764 22.764s10.17 22.764 22.764 22.764 22.764-10.17 22.764-22.764-10.17-22.764-22.764-22.764zm0 1.983c11.53 0 20.781 9.251 20.781 20.781s-9.251 20.781-20.781 20.781-20.781-9.251-20.781-20.781 9.251-20.781 20.781-20.781zm0 17.277c-1.924 0-3.504 1.58-3.504 3.504s1.58 3.504 3.504 3.504 3.504-1.58 3.504-3.504-1.58-3.504-3.504-3.504zm0 1.984c.86 0 1.52.66 1.52 1.52 0 .859-.66 1.52-1.52 1.52s-1.52-.661-1.52-1.52c0-.86.66-1.52 1.52-1.52z" fill="url(#c)"/>
  <path d="m46.878 6.282s.223-.743.066-1.061c-.147-.298-.828-.557-.828-.557l-7.287-2.05c-1.306.179-3.44.448-3.632 1.819l-3.056 21.753c-1.174-.882-2.769-1.396-4.53-1.17-3.177.409-5.475 2.851-5.171 5.449.304 2.596 3.121 4.419 6.298 4.01 2.534-.327 4.483-1.984 5.031-3.944l2.959-20.546 8.247-1.129" fill="url(#d)"/>
 </g>
</svg>
