<svg clip-rule="evenodd" fill-rule="evenodd" stroke-linejoin="round" stroke-miterlimit="2" viewBox="0 0 48 48" xmlns="http://www.w3.org/2000/svg">
 <linearGradient id="a" x2="1" gradientTransform="matrix(4e-8 -31.527 31.527 4e-8 24 38.6375)" gradientUnits="userSpaceOnUse">
  <stop stop-color="#2b2b2b" offset="0"/>
  <stop stop-color="#4f4f4f" offset="1"/>
 </linearGradient>
 <g fill-rule="nonzero">
  <path d="m18.37 30.756c-.618 0-1.126.508-1.126 1.126v6.756h-1.126c-.617 0-1.126.508-1.126 1.125 0 .618.509 1.126 1.126 1.126h2.252c.618 0 1.126-.508 1.126-1.126v-7.881c0-.618-.508-1.126-1.126-1.126zm11.26 0c.618 0 1.126.508 1.126 1.126v6.756h1.126c.617 0 1.126.508 1.126 1.125 0 .618-.509 1.126-1.126 1.126h-2.252c-.618 0-1.126-.508-1.126-1.126v-7.881c0-.618.508-1.126 1.126-1.126zm-15.764-3.378c-.617 0-1.126.508-1.126 1.126v6.756h-1.126c-.617 0-1.126.508-1.126 1.126 0 .617.509 1.126 1.126 1.126h2.252c.618 0 1.126-.509 1.126-1.126v-7.882c0-.618-.508-1.126-1.126-1.126zm20.268 0c.617 0 1.126.508 1.126 1.126v6.756h1.126c.617 0 1.126.508 1.126 1.126 0 .617-.509 1.126-1.126 1.126h-2.252c-.618 0-1.126-.509-1.126-1.126v-7.882c0-.618.508-1.126 1.126-1.126zm-24.772-3.378c-.617 0-1.125.508-1.125 1.126v6.756h-1.126c-.618 0-1.126.508-1.126 1.126 0 .617.508 1.126 1.126 1.126h2.251c.618 0 1.126-.509 1.126-1.126v-7.882c0-.618-.508-1.126-1.126-1.126zm29.276 0c.617 0 1.125.508 1.125 1.126v6.756h1.126c.618 0 1.126.508 1.126 1.126 0 .617-.508 1.126-1.126 1.126h-2.251c-.618 0-1.126-.509-1.126-1.126v-7.882c0-.618.508-1.126 1.126-1.126zm-33.779-3.378c-.618 0-1.126.508-1.126 1.126v6.756h-1.126c-.618 0-1.126.508-1.126 1.126s.508 1.126 1.126 1.126h2.252c.617 0 1.126-.509 1.126-1.126v-7.882c0-.618-.509-1.126-1.126-1.126zm38.282 0c.618 0 1.126.508 1.126 1.126v6.756h1.126c.618 0 1.126.508 1.126 1.126s-.508 1.126-1.126 1.126h-2.252c-.617 0-1.126-.509-1.126-1.126v-7.882c0-.618.509-1.126 1.126-1.126z" fill="#aeaeae"/>
  <path d="m23.999 7.111c-1.179 0-2.36.307-3.242.925l-17.955 12.57c-1.763 1.234-1.761 3.3.003 4.535l17.955 12.57c1.764 1.234 4.718 1.236 6.481.002l17.956-12.571c1.763-1.234 1.763-3.302 0-4.536l-17.956-12.57c-.882-.618-2.062-.925-3.242-.925z" fill="url(#a)"/>
  <path d="m19.725 16.118h-7.938c3.221 1.763 6.426 3.585 9.496 5.602.202.202.314.031.466-.116.663-.682 1.424-1.269 2.044-1.989-.504-.657-1.304-1.162-1.934-1.746-.705-.591-2.134-1.751-2.134-1.751zm9.645.002c-3.69 2.759-7.123 5.855-10.254 9.236-1.326 1.399-2.588 2.86-3.897 4.274h1.699l.912-.816c4.385-3.77 8.974-7.344 14.019-10.193 1.444-.844 2.92-1.66 4.364-2.503h-6.843zm-2.387 6.425c-.766.519-1.541 1.027-2.293 1.567 2.349 1.767 4.643 3.614 6.882 5.518h1.915c-2.206-2.491-4.507-5.039-6.504-7.085z" fill="#3992ff"/>
 </g>
</svg>
