<svg clip-rule="evenodd" fill-rule="evenodd" stroke-linejoin="round" stroke-miterlimit="2" viewBox="0 0 48 48" xmlns="http://www.w3.org/2000/svg">
 <linearGradient id="a" x2="1" gradientTransform="matrix(0 -43.9017 43.9017 0 55.8117 45.692)" gradientUnits="userSpaceOnUse">
  <stop stop-color="#0038b0" offset="0"/>
  <stop stop-color="#5d91ff" offset="1"/>
 </linearGradient>
 <circle cx="24" cy="24" r="22.764" fill="url(#a)"/>
 <path d="m17.746 20.085c.028.033.09.036.125.057-.026-.019.082.047.165.067.122.03.214.073.331.066.06 0 .118-.03.166-.066.021 0-.022-.055 0-.067.038-.046.066-.041.066-.099v-.132c-.05-.175-.153-.432-.298-.959-.168-.61-.322-1.41-.43-2.184-.108-.776-.162-1.535 0-2.217.159-.666.526-1.236 1.191-1.489.188-.073.452-.232.629-.264.178-.033.363-.019.529 0 .55.038 1.003.285 1.323.662.539.632.794 1.568.959 2.547.165.975.211 2.021.232 2.813v1.024c0 .045-.021.094 0 .134.024.04.094.043.132.065.032.02.035.03.067.033.06.02.119.047.231.066.378.07.979.099 1.621.199 1.285.199 2.966.57 4.698 1.026 1.733.455 3.47 1.079 4.863 1.985 1.388.902 2.432 2.068 2.647 3.639.136.974-.605 1.953-1.621 2.845-1.014.891-2.341 1.728-3.772 2.514-1.429.785-2.917 1.497-4.101 2.051-.593.278-1.12.47-1.523.662-2.046.826-4.349 1.561-6.782 2.052-.095 0-.328.058-.429.065-12.391 1.074-6.618-14.259-6.618-14.259.001 0 .306-.724.431-1.158.024-.098.065-.361.065-.463-.016-.102-.08-.292-.132-.496-.121-.484-.308-1.072-.429-1.787-.12-.715-.197-1.536-.034-2.249.163-.702.583-1.376 1.324-1.787.287-.143.616-.202.893-.132.287.071.585.284.827.496.483.425.92 1.042 1.29 1.72.369.677.702 1.398.959 1.986.13.294.204.527.299.728.042.088.071.214.099.264.013.029.011.04.007.042zm19.082-8.083c-.018.002-.035.003-.054.004-1.102.537-1.67 1.834-2.434 2.876-.01.052-.029.101-.055.147-.961 1.703-2.185 3.392-2.314 5.362.006.311.183.489.368.529.174.037.492-.076.623-.271.011-.028.002-.057.019-.08.004-.007.008-.013.011-.019 1.743-2.394 3.061-5.235 4.142-7.994.001-.003.001-.006.002-.008.076-.182.08-.253.013-.389-.02-.04-.214-.17-.321-.158zm-19.082 8.083c-.003-.003-.005-.006-.007-.009 0 .006.004.01.007.009zm13.193-9.319c.019.002.039.003.059.002.074-.005.056-.002.077.012.02.014.069.065.149.161.115.14.153.213.176.333-.001.009-.001.019 0 .027.169 2.616-.288 5.289-.929 7.833-.047.065-.078.141-.091.221-.047.294-.15.498-.311.61-.147.103-.211.122-.253.113-.058-.011-.154-.101-.23-.2-.011-.033-.025-.065-.041-.095-.411-1.502.1-3.094.26-4.659.002-.024.002-.049 0-.074.322-1.416.332-2.991 1.031-4.203l.016-.028c-.007.013.02-.018.078-.053z" fill="#eaeff9" fill-rule="nonzero"/>
</svg>
