<svg clip-rule="evenodd" fill-rule="evenodd" stroke-linejoin="round" stroke-miterlimit="2" viewBox="0 0 48 48" xmlns="http://www.w3.org/2000/svg">
 <linearGradient id="a" x2="1" gradientTransform="matrix(0 -33.6872 33.6872 0 923.28 40.4502)" gradientUnits="userSpaceOnUse">
  <stop stop-color="#b7b7b7" offset="0"/>
  <stop stop-color="#d9d9d9" offset="1"/>
 </linearGradient>
 <path d="m16.242 45.668h-7.682c-3.438 0-6.228-2.79-6.228-6.228v-30.88c0-3.438 2.79-6.228 6.228-6.228h30.88c3.438 0 6.228 2.79 6.228 6.228v30.88c0 3.438-2.79 6.228-6.228 6.228h-7.682c0-1.227-.996-2.223-2.222-2.223h-11.072c-1.226 0-2.222.996-2.222 2.223z" fill="url(#a)"/>
 <path d="m37.429 7.749c1.558 0 2.822 1.264 2.822 2.822v26.858c0 1.558-1.264 2.822-2.822 2.822h-26.858c-1.558 0-2.822-1.264-2.822-2.822v-26.858c0-1.558 1.264-2.822 2.822-2.822z" fill="#f4f4f4"/>
 <path d="m4.513 26.167c-1.196 0-2.167-.971-2.167-2.167s.971-2.167 2.167-2.167h11.52l3.788-9.472c.356-.89 1.255-1.44 2.21-1.353.955.088 1.739.793 1.927 1.733l2.904 14.521 1.627-4.067c.329-.822 1.125-1.362 2.011-1.362h13.014c1.196 0 2.167.971 2.167 2.167s-.971 2.167-2.167 2.167h-11.547l-3.788 9.472c-.356.89-1.255 1.44-2.21 1.353-.955-.088-1.739-.793-1.927-1.733l-2.904-14.521-1.627 4.067c-.329.822-1.125 1.362-2.011 1.362z" fill="#009688"/>
</svg>
