<svg clip-rule="evenodd" fill-rule="evenodd" stroke-linejoin="round" stroke-miterlimit="2" viewBox="0 0 48 48" xmlns="http://www.w3.org/2000/svg">
 <linearGradient id="a" x2="1" gradientTransform="matrix(0 -43.9677 43.9677 0 130.822 45.7586)" gradientUnits="userSpaceOnUse">
  <stop stop-color="#028353" offset="0"/>
  <stop stop-color="#4bd694" offset="1"/>
 </linearGradient>
 <circle cx="24.041" cy="24.034" r="22.798" fill="url(#a)"/>
 <path d="m39.899 22.223c-.05-.449-.575-.787-1.028-.787-1.466 0-2.767-.861-3.313-2.193-.558-1.364-.198-2.954.895-3.956.344-.315.385-.841.097-1.207-.751-.953-1.604-1.814-2.535-2.56-.365-.292-.9-.252-1.216.098-.954 1.057-2.667 1.449-3.99.897-1.378-.58-2.247-1.976-2.162-3.474.028-.471-.316-.88-.785-.934-1.195-.139-2.401-.143-3.599-.01-.464.051-.808.451-.793.915.053 1.484-.827 2.856-2.19 3.414-1.308.535-3.009.145-3.961-.902-.315-.344-.841-.387-1.208-.101-.959.752-1.831 1.614-2.588 2.559-.295.367-.252.9.095 1.216 1.114 1.009 1.474 2.613.895 3.992-.552 1.315-1.918 2.163-3.481 2.163-.508-.016-.869.324-.925.785-.14 1.203-.142 2.427-.006 3.639.05.452.59.787 1.049.787 1.393-.036 2.731.827 3.292 2.193.559 1.363.2 2.953-.895 3.956-.342.314-.386.84-.097 1.206.743.947 1.596 1.808 2.531 2.56.367.296.9.254 1.218-.096.957-1.059 2.67-1.451 3.989-.897 1.381.577 2.249 1.973 2.164 3.472-.027.471.318.881.786.935.611.071 1.226.107 1.843.107.585 0 1.171-.032 1.756-.097.464-.051.808-.451.792-.917-.053-1.482.827-2.854 2.189-3.412 1.317-.537 3.011-.144 3.963.902.316.344.839.386 1.207.101.958-.751 1.828-1.611 2.589-2.559.295-.367.253-.9-.096-1.216-1.113-1.009-1.475-2.613-.896-3.992.544-1.297 1.859-2.169 3.273-2.169l.198.005c.459.038.881-.316.936-.784.141-1.203.143-2.427.007-3.639zm-15.874 7.148c-2.943 0-5.337-2.394-5.337-5.337s2.394-5.337 5.337-5.337 5.337 2.394 5.337 5.337-2.394 5.337-5.337 5.337z" fill="#fff" fill-opacity=".84"/>
</svg>
