<svg clip-rule="evenodd" fill-rule="evenodd" stroke-linejoin="round" stroke-miterlimit="2" viewBox="0 0 48 48" xmlns="http://www.w3.org/2000/svg">
 <linearGradient id="a" x2="1" gradientTransform="matrix(-45.1253 .357304 -.357304 -45.1253 41.5562 -609.698)" gradientUnits="userSpaceOnUse">
  <stop stop-color="#0089c9" offset="0"/>
  <stop stop-color="#2dcb72" offset="1"/>
 </linearGradient>
 <linearGradient id="b" x2="1" gradientTransform="matrix(-.363346 -25.361 25.361 -.363346 1157.6 21.0663)" gradientUnits="userSpaceOnUse">
  <stop stop-color="#147966" offset="0"/>
  <stop stop-color="#2dcbc6" offset="1"/>
 </linearGradient>
 <path d="m39.44 2.332c3.438 0 6.228 2.79 6.228 6.228v30.88c0 3.438-2.79 6.228-6.228 6.228h-30.88c-3.438 0-6.228-2.79-6.228-6.228v-30.88c0-3.438 2.79-6.228 6.228-6.228z" fill="url(#a)"/>
 <path d="m8.56 2.332h15.44v43.336h-15.44c-3.438 0-6.228-2.79-6.228-6.228v-30.88c0-3.438 2.79-6.228 6.228-6.228z" fill="url(#b)"/>
 <circle cx="24" cy="35.25" r="8.171" fill="#004aff"/>
 <path d="m25.885 37.978c-.188 0-.376-.081-.513-.24-.351-.409-.851-.643-1.371-.643-.53 0-1.017.227-1.371.64-.257.3-.695.323-.979.05-.284-.271-.306-.734-.048-1.033.611-.713 1.485-1.121 2.398-1.121.911 0 1.785.409 2.398 1.123.257.3.236.763-.048 1.034-.132.128-.299.19-.465.19zm1.539-1.832c-.177 0-.354-.071-.489-.213-.785-.824-1.827-1.278-2.934-1.278-1.11 0-2.152.453-2.936 1.275-.271.285-.71.284-.98-.003-.27-.286-.269-.75.003-1.035 1.044-1.097 2.434-1.702 3.913-1.702 1.476 0 2.865.606 3.912 1.705.272.285.273.749.003 1.036-.136.143-.314.215-.492.215zm1.535-1.829c-.173 0-.346-.067-.48-.203-1.211-1.225-2.801-1.9-4.478-1.9-1.681 0-3.272.674-4.48 1.898-.276.28-.715.27-.98-.022-.265-.291-.256-.755.02-1.035 1.467-1.487 3.398-2.305 5.44-2.305 2.037 0 3.968.819 5.438 2.307.276.279.285.743.02 1.035-.136.15-.318.225-.5.225zm-5.045 5.433c.462 0 .837-.376.837-.839 0-.464-.375-.839-.837-.839-.463 0-.838.375-.838.839 0 .463.375.839.838.839z" fill="#fff" fill-opacity=".87" fill-rule="nonzero"/>
</svg>
