<svg clip-rule="evenodd" fill-rule="evenodd" stroke-linejoin="round" stroke-miterlimit="2" viewBox="0 0 48 48" xmlns="http://www.w3.org/2000/svg">
 <linearGradient id="a" x2="1" gradientTransform="matrix(.420891 -44.589 44.589 .420891 23.5791 46.2945)" gradientUnits="userSpaceOnUse">
  <stop stop-color="#3b3a76" offset="0"/>
  <stop stop-color="#45678e" offset="1"/>
 </linearGradient>
 <path d="m24.143 1.706c-.388-.001-.786.016-1.207.048-2.884.219-4.301.831-10.715 4.628-5.35 3.168-7.292 5.004-8.502 8.038-.679 1.703-.758 2.518-.863 8.865-.094 5.766-.02 7.32.428 8.881.681 2.37 2.125 4.664 3.936 6.254 1.809 1.588 11.302 6.98 13.274 7.539 2.141.608 6.438.357 8.344-.487 2.823-1.25 11.126-6.358 12.389-7.623 3.165-3.168 3.953-5.901 3.953-13.712 0-6.423-.302-8.347-1.736-11.069-1.405-2.669-3.304-4.23-9.141-7.516-5.27-2.967-7.444-3.844-10.16-3.846z" fill="url(#a)" fill-rule="nonzero"/>
 <g fill="#b1e71e">
  <path d="m23.462 8.457c-.423.026-.863.152-1.295.403-.384.222-1.205 1.162-1.825 2.088-1.658 2.478-3.253 3.371-6.523 3.649-2.139.181-3.15.315-3.924 1.599-.767 1.272-.655 1.837.5 3.983.714 1.327.908 2.132.908 3.786s-.194 2.459-.908 3.786c-.191.355-1.441 2.513-.608 3.789 1.033 1.581 2.664 1.376 3.85 1.517 1.619.098 2.741.446 3.765 1.139.886.6 1.7 1.457 2.701 2.634 1.261 1.483 2.242 2.083 3.253 2.105 1.054.024 2.138-.594 3.472-2.157.891-1.043 1.638-1.941 2.474-2.627.984-.808 2.093-1.322 3.706-1.434 2.79-.193 3.836-.747 4.206-2.22.35-1.396-.235-2.428-1.677-2.959-1.425-.525-2.65.171-3.993 2.269-.955 1.491-1.934 2.827-3.103 3.49-2.569 1.457-3.337.829-4.816.792-2.492-.063-2.29.675-5.249-.91-4.057-2.174-3.2-3.167-3.96-4.186-1.015-1.363-1.935-1.907-1.807-4.993.145-3.519.335-2.492 1.76-4.758 1.212-1.927.712-2.763 4.081-4.613 2.032-1.117 2.578-1.031 4.252-1.003 1.827.03 3.01-.714 3.31-1.468.798-2.007-.717-3.812-2.55-3.701z" fill-rule="nonzero"/>
  <path d="m35.963 16.196c.615 1.066.25 2.431-.816 3.046-1.065.615-2.43.249-3.045-.816-.616-1.066-.25-2.43.816-3.046 1.065-.615 2.43-.249 3.045.816z"/>
 </g>
</svg>
