<svg clip-rule="evenodd" fill-rule="evenodd" stroke-linejoin="round" stroke-miterlimit="2" viewBox="0 0 48 48" xmlns="http://www.w3.org/2000/svg">
 <linearGradient id="a" x2="1" gradientTransform="matrix(-1.415e-5 -45.5933 32.3044 -1.998e-5 292.215 46.8318)" gradientUnits="userSpaceOnUse">
  <stop stop-color="#810810" offset="0"/>
  <stop stop-color="#db2b2e" offset="1"/>
 </linearGradient>
 <circle cx="24.041" cy="24.034" r="22.798" fill="url(#a)"/>
 <g fill="#ffffff" fill-rule="nonzero">
  <path d="m31.171 22.547c.51.306.822.858.822 1.453s-.312 1.147-.822 1.453c-2.749 1.649-7.213 4.328-10.02 6.012-.523.314-1.175.322-1.706.021-.532-.301-.86-.864-.86-1.474 0-3.334 0-8.69 0-12.024 0-.61.328-1.173.86-1.474.531-.301 1.183-.293 1.706.021 2.807 1.684 7.271 4.363 10.02 6.012z"/>
  <path d="m24 7.879c-8.844 0-16.121 7.277-16.121 16.121s7.277 16.121 16.121 16.121 16.121-7.277 16.121-16.121-7.277-16.121-16.121-16.121zm-.026 2.687h.026c7.37 0 13.434 6.064 13.434 13.434s-6.064 13.434-13.434 13.434-13.434-6.064-13.434-13.434c0-7.36 6.048-13.42 13.408-13.434z" fill-opacity=".75"/>
 </g>
</svg>
