<svg clip-rule="evenodd" fill-rule="evenodd" stroke-linejoin="round" stroke-miterlimit="2" viewBox="0 0 48 48" xmlns="http://www.w3.org/2000/svg">
 <linearGradient id="a" x2="1" gradientTransform="matrix(0 -43.336 43.336 0 24 45.668)" gradientUnits="userSpaceOnUse">
  <stop stop-color="#13bee3" offset="0"/>
  <stop stop-color="#00c8c8" offset="1"/>
 </linearGradient>
 <path d="m39.44 45.668h-30.88c-3.438 0-6.228-2.79-6.228-6.228v-30.88c0-3.438 2.79-6.228 6.228-6.228h30.88c3.438 0 6.228 2.79 6.228 6.228v30.88c0 3.438-2.79 6.228-6.228 6.228z" fill="url(#a)"/>
 <path d="m14.943 37.831c-1.516-.453-1.887-2.374-1.279-3.69.92-2.374 2.911-4.055 4.898-5.506-1.222-.418-.936-1.887-.635-2.204.193-.202-.723-.492-1.097-.654-3.567-2.16-6.888-5.205-8.411-9.213-.691-1.935-.675-4.56 1.185-5.825 2.166-1.458 4.951-.445 6.951.845 2.58 1.666 4.55 4.118 6.162 6.72.719-.96 2.271-.691 2.634.027 2.171-3.535 5.225-7.089 9.343-8.167 1.945-.535 4.399.238 5.051 2.339.871 2.789-.638 5.635-2.28 7.799-1.972 2.535-4.544 4.547-7.348 6.054.767.857.221 1.944-.616 2.238 2.131 1.597 4.593 3.712 5.085 6.504.423 1.919-1.684 3.464-3.402 2.705-3.076-1.077-5.207-3.867-6.797-6.616-.249-.718-.499-.732-.75-.008-1.591 2.747-3.692 5.527-6.752 6.624-.627.182-1.314.242-1.942.027zm2.592-2.657c1.976-1.159 3.265-3.252 4.051-5.375-2.014.511-3.87 1.787-5.16 3.438-1.053 1.173-.707 3.029 1.109 1.937zm14.508.069c.652-1.397-1.092-2.92-2.06-3.764-.897-.782-3.468-1.708-3.468-1.708.89 2.161 2.198 4.601 4.366 5.616.372.142.972.261 1.162-.144zm-14.17-15.106c-2.885 1.857 4.232 5.434 4.413 4.763.361.122-2.055-6.281-4.413-4.763zm9.581 4.382c1.463-.586 3.261-1.72 3.258-3.511-.606-1.826-2.858-.407-3.508.692-.499.792-1.472 2.734-1.24 3.217.475-.081 1.036-.235 1.49-.398zm-9.124-6.522c-1.087-.897-2.514-2.249-3.899-1.675-1.362.566.25 3.042.853 4.046.47-2.486 2.406-2.257 3.046-2.371zm14.257-1.654c-.949.169-2.815 1.273-2.916 1.786 1.233-.154 2.826.191 3.178 2.256 0 0 2.978-4.711-.262-4.042zm-20.85-.474c.478-1.439 1.987-2.128 3.404-2.04 1.066.053-.916-.692-1.094-.869-1.102-.566-3.293-1.033-3.584.7-.199 1.105.382 3.077 1.022 3.463.037-.425.109-.851.252-1.254zm24.562-3.4c-1.421-.138-2.706.617-3.876 1.337 2.945-.432 4.249 1.696 4.228 3.415 1.526-2.819 1.082-4.481-.352-4.752z" fill="#2c2c2c" fill-rule="nonzero"/>
</svg>
