<svg clip-rule="evenodd" fill-rule="evenodd" stroke-linejoin="round" stroke-miterlimit="2" viewBox="0 0 48 48" xmlns="http://www.w3.org/2000/svg">
 <linearGradient id="a" x2="1" gradientTransform="matrix(0 -40 40 0 24 44)" gradientUnits="userSpaceOnUse">
  <stop stop-color="#2b2b2b" offset="0"/>
  <stop stop-color="#545151" offset="1"/>
 </linearGradient>
 <g transform="matrix(1.1382 0 0 1.1382 -3.3168 -3.3168)">
  <circle cx="24" cy="24" r="20" fill="url(#a)"/>
  <path d="m24.271 8.006c-1.159-.021-2.318.085-3.455.314-7.117 1.455-12.393 7.584-12.773 14.838l30.33-6.158c-2.631-5.404-8.093-8.887-14.102-8.994zm9.532 12.045-6.782 1.377c.008.167.028.333.059.498.383 1.881 2.246 3.115 4.127 2.732 1.881-.382 3.114-2.244 2.732-4.125-.034-.164-.079-.325-.136-.482zm-14.158 2.793-6.784 1.377c.009.167.029.333.061.498.329 1.625 1.771 2.804 3.43 2.804.234 0 .467-.023.697-.07 1.881-.382 3.115-2.245 2.732-4.127-.034-.164-.079-.325-.136-.482zm20.312 1.998-30.33 6.158c3.181 6.534 10.433 10.12 17.557 8.68 7.117-1.455 12.393-7.584 12.773-14.838z" fill="#fff" fill-rule="nonzero"/>
 </g>
</svg>
