<?xml version="1.0" encoding="UTF-8" standalone="no"?><!DOCTYPE svg PUBLIC "-//W3C//DTD SVG 1.1//EN" "http://www.w3.org/Graphics/SVG/1.1/DTD/svg11.dtd"><svg width="100%" height="100%" viewBox="0 0 64 64" version="1.1" xmlns="http://www.w3.org/2000/svg" xmlns:xlink="http://www.w3.org/1999/xlink" xml:space="preserve" xmlns:serif="http://www.serif.com/" style="fill-rule:evenodd;clip-rule:evenodd;stroke-linecap:round;stroke-linejoin:round;stroke-miterlimit:1.5;"><circle cx="32" cy="32" r="28" style="fill:url(#_Linear1);"/><g><path d="M32,55.967l4.757,-6.45l-3.103,-1.002l-1.654,7.452Z"/><path d="M35.637,30.059c1.829,1.926 8.498,-2.55 12.071,-9.211c2.256,-4.205 -1.536,-7.867 -4.449,-9.883c-2.914,-2.015 -3.057,5.432 -3.743,8.525c-1.788,8.067 -4.635,9.772 -3.879,10.569Z" style="fill:#fff;"/><path d="M32.554,28.545c2.484,0.725 4.61,-6.041 3.179,-13.155c-0.904,-4.492 -5.855,-5.724 -9.178,-6.018c-3.322,-0.293 1.064,5.867 2.433,8.718c3.569,7.434 2.538,10.155 3.566,10.455Z" style="fill:#fff;"/><path d="M24.983,28.591c1.188,-4.978 13.488,-4.159 16.121,9.557c0.855,4.457 -0.498,12.687 -6.291,11.892c-4.088,-0.56 -3.234,-9.159 -5.252,-13.225c-2.611,-5.261 -5.143,-5.855 -4.578,-8.224Z" style="fill:url(#_Linear2);"/><path d="M21.013,26.075c0,0 -3.023,-3.36 -4.252,-5.474c-1.228,-2.114 0.745,-0.238 -0.645,4.375" style="fill:none;stroke:#000;stroke-width:0.75px;"/><path d="M25.943,22.126c3.518,1.515 4.133,4.554 3.025,8.361c-1.108,3.806 -5.035,5.871 -7.04,5.431c-1.844,-0.406 -3.295,-4.406 -3.024,-8.361c0.309,-4.52 4.834,-6.381 7.039,-5.431Z" style="fill:url(#_Linear3);"/><path d="M24.078,24.427c0,0 -1.157,-4.369 -1.285,-6.811c-0.129,-2.442 0.771,0.129 -2.571,3.598" style="fill:none;stroke:#000;stroke-width:0.75px;"/><path d="M37.537,30.039c1.092,1.332 1.817,2.37 2.527,4.424c-1.305,2.955 -4.817,4.44 -9.62,5.029c-0.371,-1.554 -1.027,-2.979 -1.526,-3.887c3.436,-0.463 6.959,-1.404 8.619,-5.566Z" style="fill:url(#_Linear4);"/><path d="M41.184,38.623c0.267,2.167 0.163,3.614 -0.013,4.558c-1.702,2.495 -5.851,3.5 -9.614,2.248c-0.204,-0.838 -0.372,-1.823 -0.636,-3.445c2.1,1.133 8.603,0.801 10.263,-3.361Z" style="fill:url(#_Linear5);"/><path d="M24.927,26.231c0.541,0.059 0.885,0.985 0.768,2.067c-0.117,1.083 -0.652,1.914 -1.193,1.855c-0.541,-0.058 -0.886,-0.985 -0.768,-2.067c0.117,-1.082 0.651,-1.914 1.193,-1.855Z"/></g><defs><linearGradient id="_Linear1" x1="0" y1="0" x2="1" y2="0" gradientUnits="userSpaceOnUse" gradientTransform="matrix(-26.7735,-49.0762,49.0762,-26.7735,46.8396,55.7432)"><stop offset="0" style="stop-color:#235f94;stop-opacity:1"/><stop offset="1" style="stop-color:#00aef0;stop-opacity:1"/></linearGradient><linearGradient id="_Linear2" x1="0" y1="0" x2="1" y2="0" gradientUnits="userSpaceOnUse" gradientTransform="matrix(14.142,-2.57787,4.5169,24.7794,26.6476,39.0007)"><stop offset="0" style="stop-color:#ffb100;stop-opacity:1"/><stop offset="1" style="stop-color:#ffed81;stop-opacity:1"/></linearGradient><linearGradient id="_Linear3" x1="0" y1="0" x2="1" y2="0" gradientUnits="userSpaceOnUse" gradientTransform="matrix(10.2109,2.97255,-4.02155,13.8143,18.7591,27.5061)"><stop offset="0" style="stop-color:#ffb700;stop-opacity:1"/><stop offset="1" style="stop-color:#ffed81;stop-opacity:1"/></linearGradient><linearGradient id="_Linear4" x1="0" y1="0" x2="1" y2="0" gradientUnits="userSpaceOnUse" gradientTransform="matrix(11.6735,-6.23959,6.23959,11.6735,29.2535,38.2396)"><stop offset="0" style="stop-color:#000;stop-opacity:1"/><stop offset="0.54" style="stop-color:#414141;stop-opacity:1"/><stop offset="1" style="stop-color:#5b5b5b;stop-opacity:1"/></linearGradient><linearGradient id="_Linear5" x1="0" y1="0" x2="1" y2="0" gradientUnits="userSpaceOnUse" gradientTransform="matrix(10.5525,-1.92356,1.12247,6.15778,31.1929,43.625)"><stop offset="0" style="stop-color:#000;stop-opacity:1"/><stop offset="0.54" style="stop-color:#414141;stop-opacity:1"/><stop offset="1" style="stop-color:#5b5b5b;stop-opacity:1"/></linearGradient></defs></svg>