<?xml version="1.0" encoding="UTF-8" standalone="no"?>
<svg
   xmlns:dc="http://purl.org/dc/elements/1.1/"
   xmlns:cc="http://creativecommons.org/ns#"
   xmlns:rdf="http://www.w3.org/1999/02/22-rdf-syntax-ns#"
   xmlns:svg="http://www.w3.org/2000/svg"
   xmlns="http://www.w3.org/2000/svg"
   xmlns:xlink="http://www.w3.org/1999/xlink"
   xmlns:sodipodi="http://sodipodi.sourceforge.net/DTD/sodipodi-0.dtd"
   xmlns:inkscape="http://www.inkscape.org/namespaces/inkscape"
   viewBox="0 0 48 48"
   version="1.1"
   id="svg29"
   sodipodi:docname="caffeine.svg"
   inkscape:version="0.92.3 (2405546, 2018-03-11)">
  <metadata
     id="metadata35">
    <rdf:RDF>
      <cc:Work
         rdf:about="">
        <dc:format>image/svg+xml</dc:format>
        <dc:type
           rdf:resource="http://purl.org/dc/dcmitype/StillImage" />
      </cc:Work>
    </rdf:RDF>
  </metadata>
  <defs
     id="defs33" />
  <sodipodi:namedview
     pagecolor="#ffffff"
     bordercolor="#666666"
     borderopacity="1"
     objecttolerance="10"
     gridtolerance="10"
     guidetolerance="10"
     inkscape:pageopacity="0"
     inkscape:pageshadow="2"
     inkscape:window-width="1920"
     inkscape:window-height="1048"
     id="namedview31"
     showgrid="false"
     inkscape:snap-nodes="true"
     inkscape:snap-bbox="true"
     inkscape:bbox-paths="true"
     inkscape:bbox-nodes="true"
     inkscape:zoom="55.625733"
     inkscape:cx="31.291457"
     inkscape:cy="24.533316"
     inkscape:window-x="0"
     inkscape:window-y="0"
     inkscape:window-maximized="1"
     inkscape:current-layer="svg29" />
  <linearGradient
     id="a"
     gradientTransform="matrix(0 -1 1 0 -.000002 47.999998)"
     gradientUnits="userSpaceOnUse"
     x1="1"
     x2="47">
    <stop
       offset="0"
       stop-color="#e4e4e4"
       id="stop2" />
    <stop
       offset="1"
       stop-color="#eee"
       id="stop4" />
  </linearGradient>
  <linearGradient
     id="b"
     gradientUnits="userSpaceOnUse"
     x1="23.999926661144"
     x2="23.999926661144"
     y1="47.000108036636"
     y2="1.000061636636">
    <stop
       offset="0"
       stop-color="#2a2c2f"
       id="stop7" />
    <stop
       offset="1"
       stop-color="#424649"
       id="stop9" />
  </linearGradient>
  <linearGradient
     gradientUnits="userSpaceOnUse"
     x1="285.00021"
     x2="297.00021"
     xlink:href="#a"
     y1="636.74103"
     y2="636.74103"
     id="linearGradient12" />
  <linearGradient
     id="c"
     gradientUnits="userSpaceOnUse"
     x1="290.41052"
     x2="290.05167"
     xlink:href="#a"
     y1="648.83472"
     y2="625.01868" />
  <rect
     fill="url(#b)"
     height="46"
     ry="23"
     width="46"
     x=".999998"
     y="1.000005"
     id="rect15" />
  <g
     fill="url(#c)"
     transform="matrix(1.9172392 0 0 1.9172392 -532.98985 -1196.9326)"
     id="g27">
    <path
       d="m 295.6934,638.27302 h -1.33334 v -2 h 1.33334 z m 0,-3.33333 -1.34769,0.0133 -0.015,-1.29177 -9.33052,0.005 v 6.66666 c 0,1.47276 1.19391,2.66667 2.66667,2.66667 h 4 c 1.47274,0 2.66666,-1.19391 2.66666,-2.66667 l 0.0265,-0.72698 h 1.33334 c 0.73637,0 1.33333,-0.59696 1.33333,-1.33333 v -2 c 0,-0.74 -0.6,-1.33333 -1.33333,-1.33333 z"
       id="path17"
       inkscape:connector-curvature="0"
       sodipodi:nodetypes="cccccscccsssscssss" />
    <path
       d="m286.60282 630.482s-.1458.10908-.2912.27273c-.14524.16348-.31893.38933-.32139.69986-.002.30445.15695.51985.26266.6772.1057.15735.16404.25422.15944.38182-.009.24106-.36504.47832-.36504.47832l.26769.49007s.63208-.30182.65539-.94825c.0114-.31566-.1435-.54965-.25343-.71329s-.16942-.26-.16867-.36168c.00033-.0661.0767-.21546.18126-.33314.10456-.11769.20811-.19637.20811-.19637z"
       id="path19" />
    <path
       d="m288.60282 630.482s-.1458.10908-.2912.27273c-.14524.16348-.31893.38933-.32139.69986-.002.30445.15695.51985.26266.6772.1057.15735.16404.25422.15944.38182-.009.24106-.36504.47832-.36504.47832l.26769.49007s.63208-.30182.65539-.94825c.0114-.31566-.1435-.54965-.25343-.71329s-.16942-.26-.16867-.36168c.00033-.0661.0767-.21546.18126-.33314.10456-.11769.20811-.19637.20811-.19637z"
       id="path21" />
    <path
       d="m290.60282 630.482s-.1458.10908-.2912.27273c-.14524.16348-.31893.38933-.32139.69986-.002.30445.15695.51985.26266.6772.1057.15735.16404.25422.15944.38182-.009.24106-.36504.47832-.36504.47832l.26769.49007s.63208-.30182.65539-.94825c.0114-.31566-.1435-.54965-.25343-.71329s-.16942-.26-.16867-.36168c.00033-.0661.0767-.21546.18126-.33314.10456-.11769.20811-.19637.20811-.19637z"
       id="path23" />
    <path
       d="m292.60282 630.482s-.1458.10908-.2912.27273c-.14524.16348-.31893.38933-.32139.69986-.002.30445.15695.51985.26266.6772.1057.15735.16404.25422.15944.38182-.009.24106-.36504.47832-.36504.47832l.26769.49007s.63208-.30182.65539-.94825c.0114-.31566-.1435-.54965-.25343-.71329s-.16942-.26-.16867-.36168c.00033-.0661.0767-.21546.18126-.33314.10456-.11769.20811-.19637.20811-.19637z"
       id="path25" />
  </g>
</svg>
