<?xml version="1.0" encoding="UTF-8" standalone="no"?><!DOCTYPE svg PUBLIC "-//W3C//DTD SVG 1.1//EN" "http://www.w3.org/Graphics/SVG/1.1/DTD/svg11.dtd"><svg width="100%" height="100%" viewBox="0 0 48 48" version="1.1" xmlns="http://www.w3.org/2000/svg" xmlns:xlink="http://www.w3.org/1999/xlink" xml:space="preserve" xmlns:serif="http://www.serif.com/" style="fill-rule:evenodd;clip-rule:evenodd;stroke-linejoin:round;stroke-miterlimit:1.41421;"><g><path d="M46.341,10.269c-0.014,-1.123 -0.879,-2.05 -1.997,-2.153c-9.291,-0.869 -16.873,-5.834 -19.373,-7.651c-0.522,-0.38 -1.23,-0.38 -1.753,0c-2.494,1.817 -10.077,6.782 -19.368,7.651c-1.118,0.103 -1.977,1.03 -1.997,2.153c-0.112,7.329 1.065,32.209 21.683,37.746c0.366,0.097 0.752,0.097 1.118,0c20.618,-5.532 21.795,-30.417 21.687,-37.746Z" style="fill:url(#_Linear1);fill-rule:nonzero;"/><path d="M41.166,13.792c-0.011,-0.871 -0.675,-1.591 -1.535,-1.67c-7.14,-0.675 -12.968,-4.527 -14.889,-5.937c-0.402,-0.295 -0.946,-0.295 -1.347,0c-1.918,1.41 -7.745,5.262 -14.886,5.937c-0.859,0.079 -1.52,0.799 -1.535,1.67c-0.086,5.687 0.818,24.992 16.665,29.288c0.281,0.076 0.578,0.076 0.859,0c15.846,-4.292 16.75,-23.601 16.668,-29.288Z" style="fill:#fff;fill-opacity:0.675;fill-rule:nonzero;"/><path d="M24.097,29.634c0,0 0,0 0,0c1.097,0 2,-0.903 2,-2c0,-1.11 -0.9,-2 -2,-2c-1.097,0 -2,0.903 -2,2c0,0 0,0 0,0c0,1.097 0.903,2 2,2m6,-9c1.097,0 2,0.903 2,2l0,10c0,1.097 -0.903,2 -2,2l-12,0c0,0 0,0 0,0c-1.097,0 -2,-0.903 -2,-2c0,0 0,0 0,0l0,-10c0,-1.11 0.9,-2 2,-2l1,0l0,-2c0,-2.743 2.257,-5 5,-5c2.743,0 5,2.257 5,5l0,2l1,0Zm-6,-5c0,0 0,0 0,0c-1.646,0 -3,1.354 -3,3l0,2l6,0l0,-2c0,0 0,0 0,0c0,-1.646 -1.354,-3 -3,-3c0,0 0,0 0,0Z" style="fill:url(#_Linear2);fill-rule:nonzero;"/></g><defs><linearGradient id="_Linear1" x1="0" y1="0" x2="1" y2="0" gradientUnits="userSpaceOnUse" gradientTransform="matrix(0.281602,-47.5412,47.5412,0.281602,23.9562,48.2879)"><stop offset="0" style="stop-color:#004391;stop-opacity:1"/><stop offset="1" style="stop-color:#20d2fa;stop-opacity:1"/></linearGradient><linearGradient id="_Linear2" x1="0" y1="0" x2="1" y2="0" gradientUnits="userSpaceOnUse" gradientTransform="matrix(-0.400475,-19.1276,19.1276,-0.400475,24.4975,34.7615)"><stop offset="0" style="stop-color:#0064b4;stop-opacity:1"/><stop offset="1" style="stop-color:#1ec2f7;stop-opacity:1"/></linearGradient></defs></svg>