<?xml version="1.0" encoding="UTF-8" standalone="no"?><!DOCTYPE svg PUBLIC "-//W3C//DTD SVG 1.1//EN" "http://www.w3.org/Graphics/SVG/1.1/DTD/svg11.dtd"><svg width="100%" height="100%" viewBox="0 0 48 48" version="1.1" xmlns="http://www.w3.org/2000/svg" xmlns:xlink="http://www.w3.org/1999/xlink" xml:space="preserve" xmlns:serif="http://www.serif.com/" style="fill-rule:evenodd;clip-rule:evenodd;stroke-linejoin:round;stroke-miterlimit:1.41421;"><path id="rect25" d="M46,8.4l-44,0c0,0 0,25.464 0,31.791c0,0.779 0.631,1.41 1.41,1.41c6.619,0 34.561,0 41.18,0c0.779,0 1.41,-0.631 1.41,-1.41c0,-6.327 0,-31.791 0,-31.791Z" style="fill-opacity:0.666667;"/><path id="path27" d="M3.562,7.399l40.876,0c0.865,0 1.562,0.697 1.562,1.563l0,29.976c0,0.865 -0.697,1.562 -1.562,1.562l-40.876,0c-0.865,0 -1.562,-0.697 -1.562,-1.562l0,-29.976c0,-0.866 0.697,-1.563 1.562,-1.563Z" style="fill:url(#_Linear1);fill-rule:nonzero;"/><path id="path29" d="M40.378,22.125l-5.779,6.69l-11.023,2.921l-10.542,-5.803l-5.907,0.541l-5.127,-2.6l0,15.164c0,0.866 0.697,1.562 1.562,1.562l40.875,0c0.866,0 1.562,-0.696 1.562,-1.562l0,-14.585l-5.621,-2.328Z" style="fill:url(#_Linear2);"/><path id="path16" d="M33.655,22.316c-0.068,-0.089 -0.157,-0.142 -0.267,-0.159l-2.325,-0.355c-0.127,-0.407 -0.3,-0.822 -0.521,-1.245c0.153,-0.212 0.381,-0.51 0.686,-0.896c0.305,-0.385 0.521,-0.667 0.648,-0.845c0.068,-0.093 0.102,-0.19 0.102,-0.292c0,-0.118 -0.03,-0.211 -0.089,-0.279c-0.305,-0.432 -1.004,-1.152 -2.096,-2.16c-0.102,-0.085 -0.208,-0.127 -0.318,-0.127c-0.127,0 -0.229,0.038 -0.305,0.114l-1.804,1.36c-0.347,-0.178 -0.728,-0.335 -1.143,-0.47l-0.356,-2.338c-0.009,-0.11 -0.057,-0.201 -0.146,-0.273c-0.089,-0.072 -0.192,-0.108 -0.311,-0.108l-2.82,0c-0.246,0 -0.398,0.119 -0.457,0.356c-0.111,0.423 -0.233,1.211 -0.369,2.363c-0.398,0.127 -0.783,0.288 -1.156,0.483l-1.753,-1.36c-0.11,-0.085 -0.22,-0.127 -0.33,-0.127c-0.187,0 -0.587,0.303 -1.201,0.908c-0.614,0.606 -1.031,1.061 -1.251,1.366c-0.076,0.11 -0.114,0.208 -0.114,0.292c0,0.102 0.042,0.204 0.127,0.305c0.567,0.686 1.02,1.27 1.359,1.753c-0.212,0.39 -0.377,0.779 -0.495,1.169l-2.363,0.356c-0.093,0.017 -0.174,0.072 -0.242,0.165c-0.067,0.093 -0.101,0.19 -0.101,0.292l0,2.82c0,0.11 0.034,0.21 0.101,0.299c0.068,0.089 0.157,0.142 0.267,0.159l2.325,0.343c0.119,0.415 0.292,0.834 0.521,1.257c-0.153,0.212 -0.381,0.51 -0.686,0.896c-0.305,0.385 -0.521,0.667 -0.648,0.845c-0.068,0.093 -0.102,0.19 -0.102,0.292c0,0.11 0.03,0.207 0.089,0.292c0.331,0.457 1.029,1.169 2.096,2.134c0.094,0.093 0.199,0.14 0.318,0.14c0.127,0 0.233,-0.038 0.318,-0.114l1.791,-1.36c0.347,0.178 0.728,0.335 1.143,0.47l0.356,2.338c0.009,0.11 0.057,0.201 0.146,0.273c0.089,0.072 0.193,0.108 0.311,0.108l2.82,0c0.246,0 0.399,-0.119 0.458,-0.356c0.11,-0.423 0.233,-1.211 0.368,-2.363c0.398,-0.127 0.784,-0.288 1.156,-0.483l1.753,1.373c0.119,0.076 0.229,0.114 0.331,0.114c0.186,0 0.584,-0.301 1.194,-0.902c0.61,-0.601 1.029,-1.059 1.257,-1.372c0.076,-0.085 0.115,-0.182 0.115,-0.292c0,-0.11 -0.043,-0.217 -0.127,-0.318c-0.61,-0.745 -1.063,-1.329 -1.36,-1.753c0.17,-0.313 0.335,-0.699 0.496,-1.156l2.35,-0.355c0.101,-0.017 0.186,-0.073 0.254,-0.166c0.068,-0.093 0.101,-0.191 0.101,-0.292l0,-2.82c0,-0.11 -0.033,-0.21 -0.101,-0.299Zm-7.355,3.983c-0.635,0.635 -1.402,0.953 -2.3,0.953c-0.898,0 -1.664,-0.318 -2.299,-0.953c-0.635,-0.635 -0.953,-1.402 -0.953,-2.299c0,-0.898 0.318,-1.665 0.953,-2.3c0.635,-0.635 1.402,-0.953 2.299,-0.953c0.898,0 1.665,0.318 2.3,0.953c0.635,0.635 0.952,1.402 0.952,2.3c0,0.897 -0.317,1.664 -0.952,2.299Z" style="fill:url(#_Linear3);fill-rule:nonzero;"/><defs><linearGradient id="_Linear1" x1="0" y1="0" x2="1" y2="0" gradientUnits="userSpaceOnUse" gradientTransform="matrix(0.36743,-37.7,37.7,0.36743,25,41.5772)"><stop offset="0" style="stop-color:#f786fb;stop-opacity:1"/><stop offset="1" style="stop-color:#2794f5;stop-opacity:1"/></linearGradient><linearGradient id="_Linear2" x1="0" y1="0" x2="1" y2="0" gradientUnits="userSpaceOnUse" gradientTransform="matrix(-0.302077,-11.2342,11.2342,-0.302077,26.243,35.0053)"><stop offset="0" style="stop-color:#132e51;stop-opacity:1"/><stop offset="1" style="stop-color:#2767b9;stop-opacity:1"/></linearGradient><linearGradient id="_Linear3" x1="0" y1="0" x2="1" y2="0" gradientUnits="userSpaceOnUse" gradientTransform="matrix(0.0578313,19.4892,-19.4892,0.0578313,23.653,14.3422)"><stop offset="0" style="stop-color:#d9d2ed;stop-opacity:1"/><stop offset="1" style="stop-color:#c9e1ff;stop-opacity:1"/></linearGradient></defs></svg>