<?xml version="1.0" encoding="UTF-8" standalone="no"?><!DOCTYPE svg PUBLIC "-//W3C//DTD SVG 1.1//EN" "http://www.w3.org/Graphics/SVG/1.1/DTD/svg11.dtd"><svg width="100%" height="100%" viewBox="0 0 64 64" version="1.1" xmlns="http://www.w3.org/2000/svg" xmlns:xlink="http://www.w3.org/1999/xlink" xml:space="preserve" xmlns:serif="http://www.serif.com/" style="fill-rule:evenodd;clip-rule:evenodd;stroke-linejoin:round;stroke-miterlimit:1.41421;"><path d="M57,4c1.656,0 3,1.344 3,3l0,50c0,1.656 -1.344,3 -3,3l-50,0c-1.656,0 -3,-1.344 -3,-3l0,-50c0,-1.656 1.344,-3 3,-3l50,0Z" style="fill:url(#_Linear1);"/><path d="M28.364,5l-24.072,52.278c0.48,1.016 1.506,1.722 2.708,1.722l0.906,0l24.094,-52.328l24.094,52.328l0.906,0c1.202,0 2.228,-0.706 2.708,-1.722l-24.072,-52.278l-7.272,0l0,0Z" style="fill-opacity:0.2;fill-rule:nonzero;"/><path d="M28.364,4l-24.364,52.918l0,0.082c0,1.657 1.33,2.991 2.984,3l25.016,-54.328l25.016,54.328c1.654,-0.008 2.984,-1.344 2.984,-3l0,-0.082l-24.364,-52.918l-7.272,0l0,0Z" style="fill:#be3535;fill-rule:nonzero;"/><path d="M6.844,5.032c-1.535,0.08 -2.749,1.294 -2.828,2.828l25.155,25.156l-24.659,24.66c0,0 -0.001,0.002 -0.001,0.004c0.538,0.798 1.45,1.32 2.489,1.32l1.843,0l23.156,-23.156l23.156,23.156l1.844,0c1.038,0 1.95,-0.522 2.488,-1.32l0,-0.004l-24.66,-24.66l25.156,-25.156c-0.08,-1.535 -1.294,-2.749 -2.828,-2.828l-25.156,25.155l-25.156,-25.155l0.001,0Z" style="fill-opacity:0.2;fill-rule:nonzero;"/><path d="M6.844,4.016c-1.535,0.08 -2.749,1.294 -2.828,2.828l25.155,25.156l-25.155,25.156c0.079,1.534 1.293,2.748 2.828,2.828l25.156,-25.156l25.155,25.156c1.535,-0.08 2.749,-1.294 2.829,-2.828l-25.156,-25.156l25.156,-25.156c-0.08,-1.534 -1.294,-2.748 -2.828,-2.828l-25.156,25.156l-25.156,-25.156l0,0Z" style="fill:#57982d;fill-rule:nonzero;"/><path d="M7,5c-1.662,0 -3,1.338 -3,3l0,1l26,0l0,50l4,0l0,-50l26,0l0,-1c0,-1.662 -1.338,-3 -3,-3l-50,0Z" style="fill-opacity:0.2;fill-rule:nonzero;"/><path d="M7,4c-1.662,0 -3,1.338 -3,3l0,1l26,0l0,52l4,0l0,-52l26,0l0,-1c0,-1.662 -1.338,-3 -3,-3l-50,0Z" style="fill:#036fff;fill-rule:nonzero;"/><defs><linearGradient id="_Linear1" x1="0" y1="0" x2="1" y2="0" gradientUnits="userSpaceOnUse" gradientTransform="matrix(0,-56,-56,0,32,60)"><stop offset="0" style="stop-color:#111;stop-opacity:1"/><stop offset="1" style="stop-color:#4f4f4f;stop-opacity:1"/></linearGradient></defs></svg>