<?xml version="1.0" encoding="UTF-8" standalone="no"?>
<!DOCTYPE svg PUBLIC "-//W3C//DTD SVG 1.1//EN" "http://www.w3.org/Graphics/SVG/1.1/DTD/svg11.dtd">
<svg width="100%" height="100%" viewBox="0 0 48 48" version="1.1" xmlns="http://www.w3.org/2000/svg" xmlns:xlink="http://www.w3.org/1999/xlink" xml:space="preserve" xmlns:serif="http://www.serif.com/" style="fill-rule:evenodd;clip-rule:evenodd;stroke-linejoin:round;stroke-miterlimit:1.41421;">
    <g id="g18" transform="matrix(1,0,0,1,-333.678,-499.848)">
        <path id="rect12" d="M379.639,509.727C379.639,508.65 378.766,507.777 377.689,507.777C370.419,507.777 344.937,507.777 337.667,507.777C336.591,507.777 335.718,508.65 335.718,509.727C335.718,515.602 335.718,533.094 335.718,538.969C335.718,540.046 336.591,540.919 337.667,540.919C344.937,540.919 370.419,540.919 377.689,540.919C378.766,540.919 379.639,540.046 379.639,538.969C379.639,533.094 379.639,515.602 379.639,509.727Z" style="fill-opacity:0.666667;"/>
        <path id="rect14" d="M379.639,508.661C379.639,507.621 378.796,506.777 377.755,506.777C370.553,506.777 344.803,506.777 337.601,506.777C336.561,506.777 335.718,507.621 335.718,508.661C335.718,514.492 335.718,532.205 335.718,538.036C335.718,539.076 336.561,539.919 337.601,539.919C344.803,539.919 370.553,539.919 377.755,539.919C378.796,539.919 379.639,539.076 379.639,538.036C379.639,532.205 379.639,514.492 379.639,508.661Z" style="fill:url(#_Linear1);"/>
        <g id="path16" transform="matrix(1,0,0,1,333.673,497.215)">
            <path d="M12.645,16.102C12.439,16.111 12.227,16.131 12.008,16.16C6.383,16.914 7.211,23.725 2.045,26.857L2.045,38.961C2.045,39.825 2.741,40.521 3.605,40.521L44.408,40.521C45.272,40.521 45.967,39.825 45.967,38.961L45.967,29.758C44.349,29.912 42.988,31.156 41.002,29.293C33.004,19.912 30.59,30.315 24.006,27.418C19.163,24.692 19.012,15.802 12.645,16.102Z" style="fill-opacity:0.992157;"/>
        </g>
        <g id="path161" serif:id="path16" transform="matrix(1,0,0,1,333.672,499.398)">
            <path d="M12.645,16.102C12.439,16.111 12.227,16.131 12.008,16.16C6.383,16.914 7.211,23.725 2.045,26.857L2.045,38.961C2.045,39.825 2.741,40.521 3.605,40.521L44.408,40.521C45.272,40.521 45.967,39.825 45.967,38.961L45.967,29.758C44.349,29.912 42.988,31.156 41.002,29.293C33.004,19.912 30.59,30.315 24.006,27.418C19.163,24.692 19.012,15.802 12.645,16.102Z" style="fill:url(#_Linear2);"/>
        </g>
    </g>
    <defs>
        <linearGradient id="_Linear1" x1="0" y1="0" x2="1" y2="0" gradientUnits="userSpaceOnUse" gradientTransform="matrix(2.08904e-15,-34.1167,34.1167,2.08904e-15,358.676,540.894)"><stop offset="0" style="stop-color:rgb(42,44,47);stop-opacity:1"/><stop offset="1" style="stop-color:rgb(66,70,73);stop-opacity:1"/></linearGradient>
        <linearGradient id="_Linear2" x1="0" y1="0" x2="1" y2="0" gradientUnits="userSpaceOnUse" gradientTransform="matrix(-0.115663,-17.2337,17.2337,-0.115663,27.447,43.1297)"><stop offset="0" style="stop-color:rgb(0,190,154);stop-opacity:0.992157"/><stop offset="1" style="stop-color:rgb(0,255,169);stop-opacity:0.992157"/></linearGradient>
    </defs>
</svg>
