<?xml version="1.0" encoding="UTF-8" standalone="no"?><!DOCTYPE svg PUBLIC "-//W3C//DTD SVG 1.1//EN" "http://www.w3.org/Graphics/SVG/1.1/DTD/svg11.dtd"><svg width="100%" height="100%" viewBox="0 0 16 16" version="1.1" xmlns="http://www.w3.org/2000/svg" xmlns:xlink="http://www.w3.org/1999/xlink" xml:space="preserve" xmlns:serif="http://www.serif.com/" style="fill-rule:evenodd;clip-rule:evenodd;stroke-linejoin:round;stroke-miterlimit:1.41421;"><path d="M5.496,2.85l1.287,1.123l7.217,0c0,0 1,0 1,0.745l0,7.514c0,0.745 -1,0.745 -1,0.745l-12,0c-1,0 -1,-0.745 -1,-0.745l0,-8.637c0,-0.744 0.996,-0.745 1,-0.745l3.496,0Zm3.581,4.842l0,-2l-2,0l0,2l-2,0l0,2l2,0l0,2l2,0l0,-2l2,0l0,-2l-2,0Z" style="fill:#ececec;fill-rule:nonzero;"/></svg>