<?xml version="1.0" encoding="UTF-8" standalone="no"?>
<svg
   xmlns:dc="http://purl.org/dc/elements/1.1/"
   xmlns:cc="http://creativecommons.org/ns#"
   xmlns:rdf="http://www.w3.org/1999/02/22-rdf-syntax-ns#"
   xmlns:svg="http://www.w3.org/2000/svg"
   xmlns="http://www.w3.org/2000/svg"
   xmlns:sodipodi="http://sodipodi.sourceforge.net/DTD/sodipodi-0.dtd"
   xmlns:inkscape="http://www.inkscape.org/namespaces/inkscape"
   width="100%"
   height="100%"
   viewBox="0 0 16 16"
   version="1.1"
   xml:space="preserve"
   style="fill-rule:evenodd;clip-rule:evenodd;stroke-linejoin:round;stroke-miterlimit:1.41421;"
   id="svg9"
   sodipodi:docname="image-x-generic-symbolic.svg"
   inkscape:version="0.92.2 2405546, 2018-03-11"><metadata
   id="metadata15"><rdf:RDF><cc:Work
       rdf:about=""><dc:format>image/svg+xml</dc:format><dc:type
         rdf:resource="http://purl.org/dc/dcmitype/StillImage" /></cc:Work></rdf:RDF></metadata><defs
   id="defs13" /><sodipodi:namedview
   pagecolor="#ffffff"
   bordercolor="#666666"
   borderopacity="1"
   objecttolerance="10"
   gridtolerance="10"
   guidetolerance="10"
   inkscape:pageopacity="0"
   inkscape:pageshadow="2"
   inkscape:window-width="1600"
   inkscape:window-height="840"
   id="namedview11"
   showgrid="false"
   inkscape:zoom="29.5"
   inkscape:cx="-4.1038046"
   inkscape:cy="7.4043777"
   inkscape:window-x="0"
   inkscape:window-y="34"
   inkscape:window-maximized="1"
   inkscape:current-layer="svg9" />
    <g
   id="g4"
   transform="matrix(1.1178,0,0,1.1178,-1.07725,-1.08862)"
   style="fill:#dfdfdf;fill-opacity:1"
   class="ColorScheme-Text">
        <path
   d="M 4.343,2.434 C 3.722,2.434 3.126,2.681 2.686,3.12 2.247,3.56 2,4.156 2,4.777 c 0,2.005 0,4.875 0,6.88 0,0.621 0.247,1.217 0.686,1.657 0.44,0.439 1.036,0.686 1.657,0.686 2.171,0 5.384,0 7.555,0 0.621,0 1.217,-0.247 1.657,-0.686 0.439,-0.44 0.686,-1.036 0.686,-1.657 0,-2.005 0,-4.875 0,-6.88 0,-0.621 -0.247,-1.217 -0.686,-1.657 -0.44,-0.439 -1.036,-0.686 -1.657,-0.686 -2.171,0 -5.384,0 -7.555,0 z M 2.708,4.792 C 2.709,4.349 2.886,3.925 3.2,3.613 3.514,3.3 3.94,3.125 4.382,3.127 c 2.03,0.006 5.435,0.017 7.46,0.023 0.918,0.003 1.661,0.747 1.664,1.665 0.007,2.732 0.021,7.88 0.021,7.88 L 2.69,12.743 c 0,0 0.012,-5.196 0.018,-7.951 z"
   style="fill:#dfdfdf;fill-opacity:1;fill-rule:nonzero"
   id="path2"
   inkscape:connector-curvature="0" />
    </g>
    <g
   id="Layer1"
   transform="matrix(1.12756,0,0,1.1178,-1.14442,0.360051)"
   style="fill:#dfdfdf;fill-opacity:1"
   class="ColorScheme-Text">
        <path
   d="M 2.467,11.703 V 9.542 l 2.969,-5.089 3.316,5.937 2.556,-2.87 2.205,2.909 v 1.216 z"
   style="fill:#dfdfdf;fill-opacity:1"
   id="path6"
   inkscape:connector-curvature="0" />
    </g>
</svg>