
<svg xmlns="http://www.w3.org/2000/svg" xmlns:xlink="http://www.w3.org/1999/xlink" width="24px" height="24px" viewBox="0 0 24 24" version="1.1">
<g id="surface1">
<path style=" stroke:none;fill-rule:nonzero;fill:rgb(26.666668%,26.666668%,26.666668%);fill-opacity:1;" d="M 12 3.058594 C 7.09375 3.058594 3.058594 7.09375 3.058594 12 C 3.058594 16.90625 7.09375 20.941406 12 20.941406 C 16.90625 20.941406 20.941406 16.90625 20.941406 12 C 20.941406 7.09375 16.90625 3.058594 12 3.058594 Z M 12 4.808594 C 15.945312 4.808594 19.191406 8.054688 19.191406 12 C 19.191406 15.945312 15.945312 19.191406 12 19.191406 C 8.054688 19.191406 4.808594 15.945312 4.808594 12 C 4.808594 8.054688 8.054688 4.808594 12 4.808594 Z M 12 4.808594 "/>
<path style=" stroke:none;fill-rule:nonzero;fill:rgb(26.666668%,26.666668%,26.666668%);fill-opacity:1;" d="M 9.640625 0.917969 L 14.359375 0.917969 C 15.011719 0.917969 15.539062 1.46875 15.539062 2.148438 L 15.539062 12.742188 L 15.527344 12.761719 C 15.527344 12.761719 13.769531 13.988281 13.769531 14.8125 C 13.769531 15.640625 15.527344 16.855469 15.527344 16.855469 L 15.539062 16.878906 L 15.539062 21.851562 C 15.539062 22.53125 15.011719 23.082031 14.359375 23.082031 L 9.640625 23.082031 C 8.988281 23.082031 8.460938 22.53125 8.460938 21.851562 L 8.460938 11.070312 C 8.460938 11.070312 10.230469 9.894531 10.230469 9.105469 C 10.230469 8.3125 8.460938 7.140625 8.460938 7.140625 L 8.460938 2.148438 C 8.460938 1.46875 8.988281 0.917969 9.640625 0.917969 Z M 9.640625 0.917969 "/>
</g>
</svg>
