
<svg xmlns="http://www.w3.org/2000/svg" xmlns:xlink="http://www.w3.org/1999/xlink" width="24px" height="24px" viewBox="0 0 24 24" version="1.1">
<g id="surface1">
<path style=" stroke:none;fill-rule:nonzero;fill:rgb(26.666668%,26.666668%,26.666668%);fill-opacity:1;" d="M 9.015625 1.5 C 7.828125 1.5 7.84375 1.546875 8.21875 3.046875 L 10.648438 10.78125 L 4.914062 11.128906 L 3.085938 8.480469 C 2.890625 8.210938 2.90625 8.199219 2.574219 8.199219 L 1.964844 8.199219 C 1.320312 8.199219 1.53125 8.757812 1.53125 8.757812 L 1.964844 12 L 1.53125 15.242188 C 1.53125 15.242188 1.335938 15.800781 1.921875 15.800781 L 2.574219 15.800781 C 2.890625 15.800781 2.890625 15.789062 3.085938 15.519531 L 4.914062 12.871094 L 10.648438 13.21875 L 8.21875 20.910156 C 7.828125 22.46875 7.816406 22.5 9.015625 22.5 C 9.660156 22.5 9.660156 22.484375 10.09375 21.75 L 15.628906 13.5 L 21 13.5 C 21.855469 13.5 22.554688 12.824219 22.554688 12 C 22.554688 11.175781 21.855469 10.5 21 10.5 L 15.628906 10.5 L 10.09375 2.25 C 9.691406 1.558594 9.675781 1.5 9.105469 1.5 Z M 9.015625 1.5 "/>
</g>
</svg>
