<svg xmlns="http://www.w3.org/2000/svg" style="fill-rule:evenodd;clip-rule:evenodd;stroke-linejoin:round;stroke-miterlimit:2" width="100%" height="100%" version="1.1" viewBox="0 0 24 24" xml:space="preserve">
 <defs>
  <style id="current-color-scheme" type="text/css">
   .ColorScheme-Text { color:#444444; } .ColorScheme-Highlight { color:#4285f4; } .ColorScheme-NeutralText { color:#ff9800; } .ColorScheme-PositiveText { color:#4caf50; } .ColorScheme-NegativeText { color:#f44336; }
  </style>
 </defs>
 <path style="fill:currentColor;" class="ColorScheme-Text" d="M8.624,9.191c-2.298,0.009 -4.267,0.41 -5.1,1.869c-0,4.13 3.346,7.477 7.476,7.477c4.129,0 7.476,-3.347 7.476,-7.477c-2.186,-0.855 -6.392,-1.883 -9.852,-1.869Zm2.376,-4.878c3.264,0 6.024,2.593 6.648,5.674c-1.199,-0.379 -2.926,-0.835 -4.611,-1.04c-0.917,-1.92 -2.327,-3.682 -3.555,-4.462c0.488,-0.112 0.996,-0.172 1.518,-0.172Zm-7.4,5.674c0.352,-2.443 1.886,-4.505 4.003,-5.588c1.868,0.922 3.048,2.422 4.226,4.356c-1.156,-0.124 -1.791,-0.177 -3.209,-0.172c-1.216,0.006 -2.345,0.12 -3.281,0.421c-0.688,0.22 -1.277,0.542 -1.739,0.983Z"/>
</svg>
