
<svg xmlns="http://www.w3.org/2000/svg" xmlns:xlink="http://www.w3.org/1999/xlink" width="24px" height="24px" viewBox="0 0 24 24" version="1.1">
<g id="surface1">
<path style=" stroke:none;fill-rule:nonzero;fill:rgb(26.666668%,26.666668%,26.666668%);fill-opacity:1;" d="M 12 1.5 C 6.238281 1.5 1.5 6.238281 1.5 12 C 1.5 17.761719 6.238281 22.5 12 22.5 C 17.761719 22.5 22.5 17.761719 22.5 12 C 22.5 6.238281 17.761719 1.5 12 1.5 Z M 12 3 C 16.9375 3 21 7.0625 21 12 C 21 16.9375 16.9375 21 12 21 C 7.0625 21 3 16.9375 3 12 C 3 7.0625 7.0625 3 12 3 Z M 12.496094 6.859375 C 14.898438 6.953125 16.320312 8.574219 16.472656 10.941406 C 16.652344 13.605469 15.863281 14.300781 16.203125 14.839844 C 16.902344 15.957031 15.910156 16.25 15.25 16.796875 C 14.839844 17.136719 14.042969 16.980469 13.648438 16.496094 C 12.453125 15.804688 12.914062 17.132812 10.449219 17.140625 C 9.164062 17.089844 7.988281 16.164062 7.65625 14.914062 C 7.144531 13 7.890625 11.585938 9.972656 10.917969 C 10.574219 10.726562 11.765625 10.84375 12.292969 10.460938 C 12.789062 10.097656 12.613281 9.574219 12.007812 9.507812 C 11.132812 9.410156 9.769531 9.804688 8.960938 9.644531 C 8.316406 9.515625 8.117188 8.28125 8.539062 7.75 C 9.230469 6.878906 11.003906 6.917969 12.007812 6.871094 C 12.175781 6.863281 12.335938 6.855469 12.496094 6.859375 Z M 12.019531 12.207031 C 11.1875 12.207031 10.5 12.824219 10.5 13.597656 C 10.5 14.367188 11.1875 15 12.019531 15 C 12.847656 15 13.5 14.367188 13.5 13.597656 C 13.5 12.824219 12.847656 12.207031 12.019531 12.207031 Z M 12.019531 12.207031 "/>
</g>
</svg>
