<svg xmlns="http://www.w3.org/2000/svg" style="fill-rule:evenodd;clip-rule:evenodd;stroke-linejoin:round;stroke-miterlimit:2" width="100%" height="100%" version="1.1" viewBox="0 0 24 24" xml:space="preserve">
 <defs>
  <style id="current-color-scheme" type="text/css">
   .ColorScheme-Text { color:#444444; } .ColorScheme-Highlight { color:#4285f4; } .ColorScheme-NeutralText { color:#ff9800; } .ColorScheme-PositiveText { color:#4caf50; } .ColorScheme-NegativeText { color:#f44336; }
  </style>
 </defs>
 <path style="fill:currentColor;fill-opacity:0.3" class="ColorScheme-Text" d="M15.24,20.81c-0.25,-0.353 -0.078,-0.756 0.37,-1.013c2.589,-1.561 4.515,-4.914 4.515,-7.981c0,-3.067 -1.883,-6.388 -4.479,-7.937c-0.454,-0.26 -0.699,-0.747 -0.461,-1.112c0.234,-0.359 0.816,-0.289 1.057,-0.153c3.206,1.913 5.208,5.39 5.208,9.176c-0,3.788 -2.002,7.264 -5.201,9.189c-0.244,0.139 -0.745,0.206 -1.009,-0.169Zm-4.266,-18.218l-5.96,5.256l-1.254,0c-0.669,0 -1.21,0.542 -1.21,1.211l-0,5.463c-0,0.669 0.541,1.211 1.21,1.211l1.254,0l5.96,5.257l0,-18.398Z"/>
 <path style="fill:currentColor;" class="ColorScheme-Text" d="M10.974,2.592l-6.299,5.256l-0.915,0c-0.669,0 -1.21,0.542 -1.21,1.211l-0,5.463c-0,0.669 0.541,1.211 1.21,1.211l0.915,0l6.299,5.257l0,-18.398Zm-1.314,2.717l-4.169,3.569c-0.233,0.185 -0.521,0.284 -0.816,0.284l-0.811,0l0,5.256l0.811,0c0.295,0 0.583,0.101 0.816,0.285l4.169,3.57l0,-12.964Zm3.843,11.616c-0.321,-0.426 0.09,-0.891 0.496,-1.119c1.228,-0.75 2.159,-2.539 2.159,-4.016c0,-1.476 -1.01,-3.291 -2.252,-4.014c-0.419,-0.236 -0.737,-0.703 -0.437,-1.066c0.359,-0.435 0.774,-0.312 1.017,-0.18c1.837,1.086 3.001,3.074 3.001,5.26c-0,2.187 -1.164,4.175 -2.987,5.286c-0.251,0.137 -0.652,0.307 -0.997,-0.151Zm-1.425,-3.68c0.805,-0 1.456,-0.65 1.456,-1.455c-0,-0.803 -0.651,-1.454 -1.456,-1.454l-0,2.909Z"/>
</svg>
