
<svg xmlns="http://www.w3.org/2000/svg" xmlns:xlink="http://www.w3.org/1999/xlink" width="24px" height="24px" viewBox="0 0 24 24" version="1.1">
<g id="surface1">
<path style=" stroke:none;fill-rule:nonzero;fill:rgb(95.686275%,26.274511%,21.176471%);fill-opacity:1;" d="M 1.816406 17.96875 L 1.816406 18.664062 C 1.816406 20.207031 3.136719 21.527344 4.679688 21.527344 L 19.320312 21.527344 C 20.863281 21.527344 22.183594 20.207031 22.183594 18.664062 L 22.183594 17.96875 C 21.507812 18.582031 20.625 18.980469 19.636719 18.980469 L 4.363281 18.980469 C 3.375 18.980469 2.492188 18.582031 1.816406 17.96875 Z M 3.089844 17.96875 C 2.328125 17.523438 1.816406 16.699219 1.816406 15.765625 C 1.816406 15.671875 1.820312 15.578125 1.828125 15.484375 L 3.101562 4.027344 C 3.246094 2.742188 4.34375 1.761719 5.632812 1.761719 L 18.367188 1.761719 C 19.65625 1.761719 20.753906 2.742188 20.898438 4.027344 L 22.171875 15.484375 C 22.179688 15.578125 22.183594 15.671875 22.183594 15.765625 C 22.183594 16.699219 21.671875 17.523438 20.910156 17.96875 L 20.910156 15.765625 C 20.910156 15.71875 20.910156 15.671875 20.902344 15.625 C 20.902344 15.625 19.628906 4.164062 19.628906 4.167969 C 19.558594 3.527344 19.011719 3.035156 18.367188 3.035156 L 5.632812 3.035156 C 4.988281 3.035156 4.441406 3.527344 4.371094 4.164062 L 3.097656 15.625 C 3.089844 15.671875 3.089844 15.71875 3.089844 15.765625 Z M 11.980469 4.5 C 12.234375 4.492188 12.460938 4.636719 12.535156 4.847656 L 13.507812 7.507812 L 16.6875 7.507812 C 17.230469 7.507812 17.457031 8.183594 17.015625 8.46875 L 14.433594 10.136719 L 15.414062 12.847656 C 15.578125 13.308594 14.992188 13.6875 14.558594 13.40625 L 11.992188 11.722656 L 9.414062 13.398438 C 8.976562 13.6875 8.386719 13.296875 8.558594 12.835938 L 9.554688 10.128906 L 6.980469 8.453125 C 6.542969 8.167969 6.769531 7.492188 7.308594 7.492188 L 10.492188 7.507812 L 11.476562 4.84375 C 11.546875 4.648438 11.75 4.507812 11.980469 4.5 Z M 11.980469 4.5 "/>
</g>
</svg>
