<svg xmlns="http://www.w3.org/2000/svg" style="fill-rule:evenodd;clip-rule:evenodd;stroke-linejoin:round;stroke-miterlimit:2" width="100%" height="100%" version="1.1" viewBox="0 0 24 24" xml:space="preserve">
 <defs>
  <style id="current-color-scheme" type="text/css">
   .ColorScheme-Text { color:#444444; } .ColorScheme-Highlight { color:#4285f4; } .ColorScheme-NeutralText { color:#ff9800; } .ColorScheme-PositiveText { color:#4caf50; } .ColorScheme-NegativeText { color:#f44336; }
  </style>
 </defs>
 <path style="fill:currentColor;" class="ColorScheme-Text" d="M9.69,2.739c-0.291,0.009 -0.568,0.128 -0.775,0.335l-3.44,3.45c-1.126,1.085 0.54,2.756 1.621,1.626l1.485,-1.488c0,0 0.013,8.438 0.013,8.618c0.258,2.572 2.53,4.707 5.146,4.707c2.781,0 5.16,-2.386 5.16,-5.175c-0,-2.788 -2.379,-5.175 -5.16,-5.175c-1.085,0 -2.032,0.47 -2.859,1.089l-0.008,-6.839c0,-0.648 -0.536,-1.169 -1.183,-1.15l-0,0.002Z"/>
</svg>
