
<svg xmlns="http://www.w3.org/2000/svg" xmlns:xlink="http://www.w3.org/1999/xlink" width="24px" height="24px" viewBox="0 0 24 24" version="1.1">
<defs>
<filter id="alpha" filterUnits="objectBoundingBox" x="0%" y="0%" width="100%" height="100%">
  <feColorMatrix type="matrix" in="SourceGraphic" values="0 0 0 0 1 0 0 0 0 1 0 0 0 0 1 0 0 0 1 0"/>
</filter>
<mask id="mask0">
  <g filter="url(#alpha)">
<rect x="0" y="0" width="24" height="24" style="fill:rgb(0%,0%,0%);fill-opacity:0.3;stroke:none;"/>
  </g>
</mask>
<clipPath id="clip1">
  <rect x="0" y="0" width="24" height="24"/>
</clipPath>
<g id="surface5" clip-path="url(#clip1)">
<path style=" stroke:none;fill-rule:nonzero;fill:rgb(29.803923%,68.627453%,31.37255%);fill-opacity:1;" d="M 4.5 9.015625 L 4.5 21 C 4.5 21.824219 5.167969 22.5 6 22.5 L 18 22.5 C 18.832031 22.5 19.5 21.824219 19.5 21 L 19.5 9.015625 Z M 4.5 9.015625 "/>
</g>
</defs>
<g id="surface1">
<use xlink:href="#surface5" mask="url(#mask0)"/>
<path style=" stroke:none;fill-rule:nonzero;fill:rgb(29.803923%,68.627453%,31.37255%);fill-opacity:1;" d="M 8.152344 2.738281 L 8.152344 2.121094 C 8.152344 1.183594 8.917969 0.417969 9.859375 0.417969 L 14.140625 0.417969 C 15.082031 0.417969 15.847656 1.183594 15.847656 2.121094 L 15.847656 2.738281 L 17.289062 2.738281 C 18.976562 2.738281 20.347656 4.105469 20.347656 5.792969 L 20.347656 20.527344 C 20.347656 22.214844 18.976562 23.582031 17.289062 23.582031 L 6.710938 23.582031 C 5.023438 23.582031 3.652344 22.214844 3.652344 20.527344 L 3.652344 5.792969 C 3.652344 4.105469 5.023438 2.738281 6.710938 2.738281 Z M 6.710938 3.789062 C 5.601562 3.789062 4.703125 4.683594 4.703125 5.792969 L 4.703125 20.527344 C 4.703125 21.632812 5.601562 22.53125 6.710938 22.53125 L 17.289062 22.53125 C 18.398438 22.53125 19.296875 21.632812 19.296875 20.527344 L 19.296875 5.792969 C 19.296875 4.683594 18.398438 3.789062 17.289062 3.789062 Z M 12 7.5 L 7.5 15 L 12 15 L 12 19.5 L 16.5 12 L 12 12 Z M 12 7.5 "/>
</g>
</svg>
