<svg xmlns="http://www.w3.org/2000/svg" style="fill-rule:evenodd;clip-rule:evenodd;stroke-linejoin:round;stroke-miterlimit:2" width="100%" height="100%" version="1.1" viewBox="0 0 24 24" xml:space="preserve">
 <defs>
  <style id="current-color-scheme" type="text/css">
   .ColorScheme-Text { color:#444444; } .ColorScheme-Highlight { color:#4285f4; } .ColorScheme-NeutralText { color:#ff9800; } .ColorScheme-PositiveText { color:#4caf50; } .ColorScheme-NegativeText { color:#f44336; }
  </style>
 </defs>
 <path style="fill:currentColor;fill-opacity:0.3;" class="ColorScheme-Text" d="M6.788,15.844l-0,2.411c-0,0.573 0.465,1.042 1.042,1.042l8.34,0c0.577,0 1.042,-0.469 1.042,-1.042l0,-2.411l-10.424,-0Z"/>
 <path style="fill:currentColor;" class="ColorScheme-Text" d="M9.327,5.563l0,-0.427c0,-0.654 0.531,-1.184 1.184,-1.184l2.978,-0c0.653,-0 1.184,0.53 1.184,1.184l-0,0.427l1.004,0c1.172,0 2.123,0.951 2.123,2.123l0,10.24c0,1.173 -0.951,2.124 -2.123,2.124l-7.354,-0c-1.172,-0 -2.123,-0.951 -2.123,-2.124l0,-10.24c0,-1.172 0.951,-2.123 2.123,-2.123l1.004,0Zm-1.004,0.73c-0.769,0 -1.393,0.623 -1.393,1.393l-0,10.24c-0,0.77 0.624,1.394 1.393,1.394l7.354,0c0.769,0 1.393,-0.624 1.393,-1.394l0,-10.24c0,-0.77 -0.624,-1.393 -1.393,-1.393l-7.354,0Zm3.677,2.58l-3.127,5.212l3.127,0l0,3.127l3.127,-5.212l-3.127,0l0,-3.127Z"/>
</svg>
