
<svg xmlns="http://www.w3.org/2000/svg" xmlns:xlink="http://www.w3.org/1999/xlink" width="24px" height="24px" viewBox="0 0 24 24" version="1.1">
<defs>
<filter id="alpha" filterUnits="objectBoundingBox" x="0%" y="0%" width="100%" height="100%">
  <feColorMatrix type="matrix" in="SourceGraphic" values="0 0 0 0 1 0 0 0 0 1 0 0 0 0 1 0 0 0 1 0"/>
</filter>
<mask id="mask0">
  <g filter="url(#alpha)">
<rect x="0" y="0" width="24" height="24" style="fill:rgb(0%,0%,0%);fill-opacity:0.3;stroke:none;"/>
  </g>
</mask>
<clipPath id="clip1">
  <rect x="0" y="0" width="24" height="24"/>
</clipPath>
<g id="surface5" clip-path="url(#clip1)">
<path style=" stroke:none;fill-rule:nonzero;fill:rgb(26.666668%,26.666668%,26.666668%);fill-opacity:1;" d="M 4.5 3.789062 L 19.5 3.789062 L 19.5 21 C 19.5 21.824219 18.832031 22.5 18 22.5 L 6 22.5 C 5.167969 22.5 4.5 21.824219 4.5 21 Z M 11.746094 9.972656 C 11.738281 10.023438 11.671875 10.320312 11.671875 10.542969 C 11.671875 10.941406 11.511719 11.21875 11.3125 11.417969 C 11.113281 11.617188 10.835938 11.777344 10.433594 11.777344 L 8.644531 11.777344 C 8.242188 11.777344 7.964844 11.617188 7.765625 11.417969 C 7.566406 11.21875 7.40625 10.941406 7.40625 10.542969 L 7.40625 10.191406 C 7.40625 8.898438 7.863281 7.808594 8.761719 6.9375 C 9.664062 6.039062 10.734375 5.597656 11.964844 5.597656 C 13.132812 5.597656 14.183594 6.003906 15.105469 6.820312 C 16.082031 7.652344 16.589844 8.777344 16.589844 10.207031 C 16.589844 11.195312 16.320312 12.046875 15.800781 12.773438 L 14.210938 14.945312 C 14.144531 15.054688 14.132812 15.195312 14.132812 15.359375 L 14.132812 19.453125 C 14.132812 19.855469 13.972656 20.132812 13.773438 20.332031 C 13.574219 20.53125 13.296875 20.691406 12.898438 20.691406 L 11.101562 20.691406 C 10.703125 20.691406 10.425781 20.53125 10.226562 20.332031 C 10.027344 20.132812 9.867188 19.855469 9.867188 19.453125 L 9.867188 15.226562 C 9.867188 15.011719 9.875 14.820312 9.890625 14.636719 C 9.90625 14.417969 9.941406 14.210938 9.992188 14.011719 C 10.042969 13.808594 10.113281 13.609375 10.203125 13.414062 C 10.292969 13.21875 10.40625 13.019531 10.550781 12.816406 L 12.132812 10.621094 C 12.246094 10.472656 12.328125 10.335938 12.328125 10.191406 C 12.328125 10.109375 12.320312 10.035156 12.261719 9.988281 C 12.1875 9.925781 12.128906 9.859375 12.050781 9.859375 C 11.933594 9.859375 11.835938 9.890625 11.753906 9.96875 Z M 11.746094 9.972656 "/>
</g>
</defs>
<g id="surface1">
<use xlink:href="#surface5" mask="url(#mask0)"/>
<path style=" stroke:none;fill-rule:nonzero;fill:rgb(26.666668%,26.666668%,26.666668%);fill-opacity:1;" d="M 8.152344 2.738281 L 8.152344 2.121094 C 8.152344 1.183594 8.917969 0.417969 9.859375 0.417969 L 14.140625 0.417969 C 15.082031 0.417969 15.847656 1.183594 15.847656 2.121094 L 15.847656 2.738281 L 17.289062 2.738281 C 18.976562 2.738281 20.347656 4.105469 20.347656 5.792969 L 20.347656 20.527344 C 20.347656 22.214844 18.976562 23.582031 17.289062 23.582031 L 6.710938 23.582031 C 5.023438 23.582031 3.652344 22.214844 3.652344 20.527344 L 3.652344 5.792969 C 3.652344 4.105469 5.023438 2.738281 6.710938 2.738281 Z M 6.710938 3.789062 C 5.601562 3.789062 4.703125 4.683594 4.703125 5.792969 L 4.703125 20.527344 C 4.703125 21.632812 5.601562 22.53125 6.710938 22.53125 L 17.289062 22.53125 C 18.398438 22.53125 19.296875 21.632812 19.296875 20.527344 L 19.296875 5.792969 C 19.296875 4.683594 18.398438 3.789062 17.289062 3.789062 Z M 11.101562 19.558594 C 11.03125 19.558594 10.996094 19.523438 10.996094 19.453125 L 10.996094 17.671875 C 10.996094 17.597656 11.03125 17.566406 11.101562 17.566406 L 12.898438 17.566406 C 12.964844 17.566406 13.003906 17.597656 13.003906 17.671875 L 13.003906 19.453125 C 13.003906 19.523438 12.964844 19.558594 12.898438 19.558594 Z M 11.101562 16.464844 C 11.03125 16.464844 10.996094 16.429688 10.996094 16.359375 L 10.996094 15.226562 C 10.996094 15.046875 11.003906 14.878906 11.015625 14.726562 C 11.027344 14.574219 11.050781 14.429688 11.085938 14.289062 C 11.121094 14.152344 11.167969 14.015625 11.230469 13.882812 C 11.292969 13.746094 11.371094 13.609375 11.472656 13.46875 L 13.035156 11.296875 C 13.320312 10.921875 13.460938 10.554688 13.460938 10.191406 C 13.460938 9.746094 13.304688 9.390625 12.992188 9.128906 C 12.683594 8.863281 12.367188 8.730469 12.050781 8.730469 C 11.632812 8.730469 11.273438 8.871094 10.980469 9.144531 C 10.6875 9.394531 10.539062 9.863281 10.539062 10.542969 C 10.539062 10.613281 10.507812 10.648438 10.433594 10.648438 L 8.644531 10.648438 C 8.574219 10.648438 8.535156 10.613281 8.535156 10.542969 L 8.535156 10.191406 C 8.535156 9.21875 8.878906 8.398438 9.554688 7.738281 C 10.234375 7.066406 11.039062 6.726562 11.964844 6.726562 C 12.855469 6.726562 13.65625 7.042969 14.371094 7.675781 C 15.097656 8.296875 15.460938 9.140625 15.460938 10.207031 C 15.460938 10.941406 15.269531 11.578125 14.882812 12.117188 L 13.273438 14.3125 C 13.09375 14.585938 13.003906 14.9375 13.003906 15.359375 L 13.003906 16.359375 C 13.003906 16.429688 12.964844 16.464844 12.898438 16.464844 Z M 11.101562 16.464844 "/>
</g>
</svg>
