
<svg xmlns="http://www.w3.org/2000/svg" xmlns:xlink="http://www.w3.org/1999/xlink" width="24px" height="24px" viewBox="0 0 24 24" version="1.1">
<g id="surface1">
<path style=" stroke:none;fill-rule:evenodd;fill:rgb(26.666668%,26.666668%,26.666668%);fill-opacity:1;" d="M 7.800781 20.398438 L 7.800781 22.5 L 9.898438 22.460938 L 9.898438 20.398438 L 11.96875 20.398438 L 12.03125 22.5 L 14.132812 22.5 L 14.066406 20.398438 C 18.074219 20.109375 20.398438 19.632812 20.398438 15.148438 C 20.398438 12 18.296875 10.953125 15.816406 10.949219 C 17.390625 10.828125 18.300781 9.898438 18.300781 7.273438 C 18.300781 5.699219 17.390625 3.601562 16.199219 3.601562 L 14.101562 3.601562 L 14.101562 1.5 L 12 1.5 L 12 3.601562 C 11.371094 3.601562 10.535156 3.578125 9.898438 3.601562 L 9.898438 1.5 L 7.800781 1.5 L 7.800781 3.601562 L 3.601562 3.601562 L 3.601562 5.699219 C 3.601562 5.699219 4.355469 5.667969 4.324219 5.699219 C 5.292969 5.683594 5.597656 6.386719 5.699219 6.851562 L 5.699219 17.25 C 5.664062 17.546875 5.695312 18.277344 5.019531 18.300781 C 5.050781 18.328125 3.601562 18.300781 3.601562 18.300781 L 3.601562 20.398438 Z M 9.898438 12 L 9.898438 18.300781 C 14.101562 18.300781 16.199219 18.300781 16.199219 15.148438 C 16.199219 12 14.101562 12 9.898438 12 Z M 9.898438 5.699219 L 9.898438 9.898438 C 12.566406 9.898438 14.101562 9.898438 14.101562 7.800781 C 14.101562 5.699219 12.859375 5.699219 9.898438 5.699219 Z M 9.898438 5.699219 "/>
</g>
</svg>
