
<svg xmlns="http://www.w3.org/2000/svg" xmlns:xlink="http://www.w3.org/1999/xlink" width="24px" height="24px" viewBox="0 0 24 24" version="1.1">
<defs>
<filter id="alpha" filterUnits="objectBoundingBox" x="0%" y="0%" width="100%" height="100%">
  <feColorMatrix type="matrix" in="SourceGraphic" values="0 0 0 0 1 0 0 0 0 1 0 0 0 0 1 0 0 0 1 0"/>
</filter>
<mask id="mask0">
  <g filter="url(#alpha)">
<rect x="0" y="0" width="24" height="24" style="fill:rgb(0%,0%,0%);fill-opacity:0.3;stroke:none;"/>
  </g>
</mask>
<clipPath id="clip1">
  <rect x="0" y="0" width="24" height="24"/>
</clipPath>
<g id="surface5" clip-path="url(#clip1)">
<path style=" stroke:none;fill-rule:evenodd;fill:rgb(26.666668%,26.666668%,26.666668%);fill-opacity:1;" d="M 12 3.449219 C 8.011719 3.449219 6.335938 3.457031 4.933594 3.46875 C 4.921875 4.453125 4.902344 4.992188 4.902344 7.375 C 4.902344 11.128906 4.910156 13 4.964844 13.816406 C 5.015625 14.632812 4.917969 14.101562 5.222656 14.863281 C 5.660156 15.957031 6.277344 16.832031 7.773438 18.128906 C 8.933594 19.140625 10.394531 20.082031 12 20.921875 Z M 12 3.449219 "/>
</g>
</defs>
<g id="surface1">
<use xlink:href="#surface5" mask="url(#mask0)"/>
<path style=" stroke:none;fill-rule:evenodd;fill:rgb(26.666668%,26.666668%,26.666668%);fill-opacity:1;" d="M 12 1.5 L 20.574219 1.628906 C 21.023438 1.898438 21 1.566406 21 7.820312 C 21 14.164062 21.007812 14.035156 20.515625 15.265625 C 19.949219 16.679688 19.039062 17.878906 17.542969 19.175781 C 16.285156 20.265625 14.796875 21.253906 13.136719 22.089844 C 12.574219 22.375 12.285156 22.503906 12 22.5 C 11.714844 22.503906 11.425781 22.375 10.863281 22.089844 C 9.203125 21.253906 7.714844 20.265625 6.457031 19.175781 C 4.960938 17.878906 4.050781 16.679688 3.484375 15.265625 C 2.992188 14.035156 3 14.164062 3 7.820312 C 3 1.566406 2.976562 1.898438 3.425781 1.628906 C 3.640625 1.503906 3.847656 1.5 12 1.5 Z M 11.988281 3.449219 C 8.257812 3.449219 6.113281 3.464844 4.984375 3.480469 C 4.96875 4.371094 4.949219 5.824219 4.949219 7.820312 C 4.949219 13.542969 4.847656 13.429688 5.292969 14.539062 C 5.753906 15.691406 6.519531 16.648438 7.734375 17.703125 C 8.878906 18.695312 10.234375 19.589844 11.742188 20.351562 C 11.824219 20.390625 11.917969 20.4375 12 20.476562 C 12.082031 20.4375 12.175781 20.390625 12.257812 20.351562 C 13.765625 19.589844 15.121094 18.695312 16.265625 17.703125 C 17.480469 16.648438 18.246094 15.691406 18.707031 14.539062 C 19.152344 13.429688 19.050781 13.539062 19.050781 7.820312 C 19.050781 5.882812 19.035156 4.453125 19.015625 3.554688 Z M 11.988281 3.449219 "/>
</g>
</svg>
