
<svg xmlns="http://www.w3.org/2000/svg" xmlns:xlink="http://www.w3.org/1999/xlink" width="24px" height="24px" viewBox="0 0 24 24" version="1.1">
<g id="surface1">
<path style=" stroke:none;fill-rule:nonzero;fill:rgb(26.666668%,26.666668%,26.666668%);fill-opacity:1;" d="M 16.402344 5.074219 C 15.300781 4.9375 13.230469 0.808594 11.546875 0.871094 C 11.035156 0.890625 10.585938 1.53125 10.585938 2.078125 L 10.585938 3.535156 L 10.570312 3.535156 L 10.570312 15.871094 C 10.570312 16.410156 10.140625 16.949219 9.617188 17.070312 L 7.734375 17.683594 C 6.519531 17.960938 5.527344 19.207031 5.527344 20.453125 L 5.527344 20.675781 C 5.527344 22.03125 6.625 23.128906 7.976562 23.128906 L 8.917969 23.128906 C 10.792969 23.128906 13.003906 21.609375 13.003906 19.730469 L 13.003906 11.214844 L 13.023438 11.214844 L 13.023438 7.9375 C 13.023438 7.507812 13.382812 6.976562 13.785156 7.003906 C 14.378906 7.035156 15.347656 7.699219 16.589844 7.566406 C 19.609375 7.242188 19.550781 9.046875 20.847656 9.164062 C 19.789062 5.90625 18.339844 5.320312 16.402344 5.074219 Z M 16.402344 5.074219 "/>
</g>
</svg>
