
<svg xmlns="http://www.w3.org/2000/svg" xmlns:xlink="http://www.w3.org/1999/xlink" width="24px" height="24px" viewBox="0 0 24 24" version="1.1">
<g id="surface1">
<path style=" stroke:none;fill-rule:nonzero;fill:rgb(26.666668%,26.666668%,26.666668%);fill-opacity:1;" d="M 11.851562 2.546875 L 14.101562 5.546875 L 13.503906 6 L 16.496094 6 L 15.898438 5.546875 L 18.148438 2.546875 L 19.351562 3.453125 L 17.4375 6 L 21 6 L 21 7.5 L 18 7.5 L 18 12 L 21 12 L 21 13.5 L 18 13.5 L 18 21 L 16.5 21 L 16.5 13.5 L 13.4375 13.5 C 13.292969 15.179688 12.722656 16.546875 12.050781 17.714844 C 11.117188 19.320312 9.511719 20.796875 9.511719 20.796875 L 8.488281 19.707031 C 8.488281 19.707031 10.007812 18.257812 10.753906 16.964844 C 11.351562 15.917969 11.808594 14.851562 11.941406 13.5 L 9 13.5 L 9 12.089844 L 7.5 12.839844 L 7.5 21 L 3 21 L 3 19.5 L 6 19.5 L 6 13.589844 L 3.335938 14.921875 L 2.664062 13.578125 L 6 11.910156 L 6 7.5 L 3 7.5 L 3 6 L 6 6 L 6 3 L 7.5 3 L 7.5 6 L 9 6 L 9 7.5 L 7.5 7.5 L 7.5 11.160156 L 8.664062 10.578125 L 9.335938 11.921875 L 9.175781 12 L 12 12 L 12 7.5 L 10.5 7.5 L 10.5 6 L 12.5625 6 L 10.648438 3.453125 Z M 13.5 7.5 L 13.5 12 L 16.5 12 L 16.5 7.5 Z M 13.5 7.5 "/>
</g>
</svg>
