
<svg xmlns="http://www.w3.org/2000/svg" xmlns:xlink="http://www.w3.org/1999/xlink" width="24px" height="24px" viewBox="0 0 24 24" version="1.1">
<g id="surface1">
<path style=" stroke:none;fill-rule:nonzero;fill:rgb(26.666668%,26.666668%,26.666668%);fill-opacity:1;" d="M 9.640625 14.359375 L 11.214844 14.359375 L 14.359375 18.289062 L 14.359375 14.359375 L 15.929688 14.359375 L 15.929688 20.648438 L 14.359375 20.648438 L 11.214844 16.714844 L 11.214844 20.648438 L 9.640625 20.648438 Z M 17.503906 3.351562 L 19.074219 3.351562 L 19.074219 9.640625 L 17.503906 9.640625 Z M 4.925781 3.351562 L 6.496094 3.351562 L 6.496094 5.710938 C 6.496094 6.800781 6.699219 7.40625 6.914062 7.675781 C 7.132812 7.949219 7.414062 8.070312 8.070312 8.070312 C 8.722656 8.070312 9.007812 7.949219 9.222656 7.675781 C 9.441406 7.40625 9.640625 6.800781 9.640625 5.710938 L 9.640625 3.351562 L 11.214844 3.351562 L 11.214844 5.710938 C 11.214844 6.976562 11.019531 7.949219 10.453125 8.660156 C 9.882812 9.371094 8.988281 9.640625 8.070312 9.640625 C 7.152344 9.640625 6.253906 9.371094 5.6875 8.660156 C 5.117188 7.949219 4.925781 6.976562 4.925781 5.710938 Z M 4.925781 3.351562 "/>
</g>
</svg>
