
<svg xmlns="http://www.w3.org/2000/svg" xmlns:xlink="http://www.w3.org/1999/xlink" width="24px" height="24px" viewBox="0 0 24 24" version="1.1">
<g id="surface1">
<path style=" stroke:none;fill-rule:nonzero;fill:rgb(26.666668%,26.666668%,26.666668%);fill-opacity:1;" d="M 9 6 L 10.5 6 L 10.5 12.441406 L 13.941406 9 L 15 9 L 15 6 L 16.5 6 L 16.5 12.441406 L 19.941406 9 L 22.058594 9 L 17.558594 13.5 L 22.058594 18 L 19.941406 18 L 16.5 14.558594 L 16.5 18 L 13.941406 18 L 10.5 14.558594 L 10.5 18 L 9 18 L 9 15 C 9 15.875 8.769531 16.667969 8.21875 17.21875 C 7.667969 17.769531 6.875 18 6 18 C 5.125 18 4.335938 17.769531 3.78125 17.21875 C 3.234375 16.667969 3 15.875 3 15 L 4.5 15 C 4.5 15.625 4.644531 15.957031 4.84375 16.15625 C 5.042969 16.355469 5.375 16.5 6 16.5 C 6.625 16.5 6.960938 16.355469 7.15625 16.15625 C 7.359375 15.957031 7.5 15.625 7.5 15 C 7.5 14.375 7.359375 14.039062 7.15625 13.84375 C 6.960938 13.644531 6.625 13.5 6 13.5 C 5.125 13.5 4.335938 13.265625 3.78125 12.71875 C 3.234375 12.167969 3 11.375 3 10.5 C 3 9.625 3.234375 8.835938 3.78125 8.28125 C 4.335938 7.734375 5.125 7.5 6 7.5 C 6.875 7.5 7.667969 7.734375 8.21875 8.28125 C 8.769531 8.835938 9 9.625 9 10.5 Z M 15 10.058594 L 11.558594 13.5 L 15 16.941406 Z M 9 10.5 L 7.5 10.5 C 7.5 9.875 7.355469 9.542969 7.15625 9.34375 C 6.960938 9.144531 6.625 9 6 9 C 5.375 9 5.039062 9.144531 4.84375 9.34375 C 4.644531 9.542969 4.5 9.875 4.5 10.5 C 4.5 11.125 4.644531 11.460938 4.84375 11.65625 C 5.042969 11.859375 5.375 12 6 12 C 6.875 12 7.667969 12.234375 8.21875 12.78125 C 8.769531 13.335938 9 14.125 9 15 Z M 9 10.5 "/>
</g>
</svg>
