
<svg xmlns="http://www.w3.org/2000/svg" xmlns:xlink="http://www.w3.org/1999/xlink" width="24px" height="24px" viewBox="0 0 24 24" version="1.1">
<defs>
<filter id="alpha" filterUnits="objectBoundingBox" x="0%" y="0%" width="100%" height="100%">
  <feColorMatrix type="matrix" in="SourceGraphic" values="0 0 0 0 1 0 0 0 0 1 0 0 0 0 1 0 0 0 1 0"/>
</filter>
<mask id="mask0">
  <g filter="url(#alpha)">
<rect x="0" y="0" width="24" height="24" style="fill:rgb(0%,0%,0%);fill-opacity:0.3;stroke:none;"/>
  </g>
</mask>
<clipPath id="clip1">
  <rect x="0" y="0" width="24" height="24"/>
</clipPath>
<g id="surface5" clip-path="url(#clip1)">
<path style=" stroke:none;fill-rule:nonzero;fill:rgb(26.666668%,26.666668%,26.666668%);fill-opacity:1;" d="M 12 1.5 C 6.199219 1.5 1.5 6.199219 1.5 12 C 1.5 17.800781 6.199219 22.5 12 22.5 C 17.800781 22.5 22.5 17.800781 22.5 12 L 19.5 12 C 19.5 16.140625 16.140625 19.5 12 19.5 C 7.859375 19.5 4.5 16.140625 4.5 12 C 4.5 7.859375 7.859375 4.5 12 4.5 Z M 12 6 C 8.6875 6 6 8.6875 6 12 C 6 15.3125 8.6875 18 12 18 C 15.3125 18 18 15.3125 18 12 L 15 12 C 15 13.65625 13.65625 15 12 15 C 10.34375 15 9 13.65625 9 12 C 9 10.34375 10.34375 9 12 9 Z M 12 6 "/>
</g>
</defs>
<g id="surface1">
<use xlink:href="#surface5" mask="url(#mask0)"/>
<path style=" stroke:none;fill-rule:nonzero;fill:rgb(26.666668%,26.666668%,26.666668%);fill-opacity:1;" d="M 13.5 12 C 13.5 12.828125 12.828125 13.5 12 13.5 C 11.171875 13.5 10.5 12.828125 10.5 12 C 10.5 11.171875 11.171875 10.5 12 10.5 C 12.828125 10.5 13.5 11.171875 13.5 12 Z M 13.5 12 "/>
<path style=" stroke:none;fill-rule:nonzero;fill:rgb(26.666668%,26.666668%,26.666668%);fill-opacity:1;" d="M 12 1.5 L 12 4.5 C 16.140625 4.5 19.5 7.859375 19.5 12 L 22.5 12 C 22.5 6.199219 17.800781 1.5 12 1.5 Z M 12 6 L 12 9 C 13.65625 9 15 10.34375 15 12 L 18 12 C 18 8.6875 15.3125 6 12 6 Z M 12 6 "/>
</g>
</svg>
