
<svg xmlns="http://www.w3.org/2000/svg" xmlns:xlink="http://www.w3.org/1999/xlink" width="24px" height="24px" viewBox="0 0 24 24" version="1.1">
<defs>
<filter id="alpha" filterUnits="objectBoundingBox" x="0%" y="0%" width="100%" height="100%">
  <feColorMatrix type="matrix" in="SourceGraphic" values="0 0 0 0 1 0 0 0 0 1 0 0 0 0 1 0 0 0 1 0"/>
</filter>
<mask id="mask0">
  <g filter="url(#alpha)">
<rect x="0" y="0" width="24" height="24" style="fill:rgb(0%,0%,0%);fill-opacity:0.3;stroke:none;"/>
  </g>
</mask>
<clipPath id="clip1">
  <rect x="0" y="0" width="24" height="24"/>
</clipPath>
<g id="surface5" clip-path="url(#clip1)">
<path style=" stroke:none;fill-rule:nonzero;fill:rgb(26.666668%,26.666668%,26.666668%);fill-opacity:1;" d="M 4.5625 3 L 12.007812 8.316406 L 19.453125 3 Z M 4.5 10.320312 L 4.5 21 L 18.753906 21 C 18.265625 20.351562 18 19.5625 18 18.75 C 18 17.570312 18.554688 16.460938 19.5 15.753906 L 19.5 10.335938 L 13.753906 14.441406 C 12.714844 15.183594 11.304688 15.183594 10.265625 14.441406 Z M 4.5 10.320312 "/>
</g>
</defs>
<g id="surface1">
<use xlink:href="#surface5" mask="url(#mask0)"/>
<path style=" stroke:none;fill-rule:nonzero;fill:rgb(26.666668%,26.666668%,26.666668%);fill-opacity:1;" d="M 1.554688 3 C 1.136719 2.984375 0.730469 3.144531 0.4375 3.441406 C 0.140625 3.738281 -0.015625 4.144531 0.00390625 4.5625 C 0.00390625 4.566406 0 4.601562 0 4.601562 L 0 19.507812 C 0 20.328125 0.660156 21.007812 1.488281 21 L 3 21 L 3 7.410156 L 11.136719 13.21875 C 11.660156 13.589844 12.359375 13.589844 12.882812 13.21875 L 21 7.421875 L 21 15.082031 C 21.246094 15.03125 21.496094 15.003906 21.75 15 C 22.5625 15 23.351562 15.265625 24 15.753906 L 24 4.484375 C 24 4.480469 23.996094 4.476562 23.996094 4.46875 C 23.992188 4.292969 23.957031 4.113281 23.886719 3.949219 C 23.878906 3.921875 23.867188 3.894531 23.855469 3.871094 C 23.789062 3.726562 23.695312 3.59375 23.585938 3.480469 C 23.5625 3.453125 23.539062 3.429688 23.511719 3.402344 C 23.402344 3.304688 23.28125 3.222656 23.148438 3.160156 C 23.097656 3.136719 23.050781 3.117188 22.996094 3.097656 C 22.863281 3.050781 22.722656 3.023438 22.578125 3.015625 C 22.550781 3.011719 22.527344 3 22.5 3 L 22.492188 3.015625 C 22.179688 3.015625 21.878906 3.109375 21.628906 3.289062 L 12.007812 10.160156 L 2.390625 3.289062 C 2.148438 3.113281 1.855469 3.011719 1.554688 3 Z M 1.554688 3 "/>
<path style=" stroke:none;fill-rule:nonzero;fill:rgb(25.882354%,52.156866%,95.686275%);fill-opacity:1;" d="M 24 18.75 C 24 19.992188 22.992188 21 21.75 21 C 20.507812 21 19.5 19.992188 19.5 18.75 C 19.5 17.507812 20.507812 16.5 21.75 16.5 C 22.992188 16.5 24 17.507812 24 18.75 Z M 24 18.75 "/>
</g>
</svg>
