
<svg xmlns="http://www.w3.org/2000/svg" xmlns:xlink="http://www.w3.org/1999/xlink" width="24px" height="24px" viewBox="0 0 24 24" version="1.1">
<defs>
<filter id="alpha" filterUnits="objectBoundingBox" x="0%" y="0%" width="100%" height="100%">
  <feColorMatrix type="matrix" in="SourceGraphic" values="0 0 0 0 1 0 0 0 0 1 0 0 0 0 1 0 0 0 1 0"/>
</filter>
<mask id="mask0">
  <g filter="url(#alpha)">
<rect x="0" y="0" width="24" height="24" style="fill:rgb(0%,0%,0%);fill-opacity:0.3;stroke:none;"/>
  </g>
</mask>
<clipPath id="clip1">
  <rect x="0" y="0" width="24" height="24"/>
</clipPath>
<g id="surface5" clip-path="url(#clip1)">
<path style=" stroke:none;fill-rule:nonzero;fill:rgb(26.666668%,26.666668%,26.666668%);fill-opacity:1;" d="M 2.703125 1.5 C 2.035156 1.5 1.5 1.964844 1.5 2.546875 L 1.5 19.953125 C 1.5 20.535156 2.035156 21 2.703125 21 L 19.5 21 L 19.5 15 L 13.5 15 L 13.5 13.5 L 19.5 13.5 L 19.5 12 L 18 12 L 18 10.5 L 22.5 10.5 L 22.5 2.546875 C 22.5 1.964844 21.964844 1.5 21.296875 1.5 L 13.5 1.5 L 13.5 7.5 L 16.5 7.5 L 16.5 9 L 13.5 9 L 13.5 10.5 L 16.5 10.5 L 16.5 12 L 13.5 12 L 13.5 10.5 L 9 10.5 L 9 12 L 4.5 12 L 4.5 10.5 L 7.5 10.5 L 7.5 9 L 4.5 9 L 4.5 7.5 L 7.5 7.5 L 7.5 6 L 4.5 6 L 4.5 4.5 L 7.5 4.5 L 7.5 1.5 Z M 15 4.5 L 19.5 4.5 L 19.5 6 L 15 6 Z M 18 7.5 L 19.5 7.5 L 19.5 9 L 18 9 Z M 4.5 13.5 L 7.5 13.5 L 7.5 15 L 4.5 15 Z M 4.5 16.5 L 6 16.5 L 6 18 L 4.5 18 Z M 7.5 16.5 L 10.5 16.5 L 10.5 18 L 7.5 18 Z M 13.5 16.5 L 18 16.5 L 18 18 L 13.5 18 Z M 13.5 16.5 "/>
</g>
</defs>
<g id="surface1">
<use xlink:href="#surface5" mask="url(#mask0)"/>
<path style=" stroke:none;fill-rule:nonzero;fill:rgb(26.666668%,26.666668%,26.666668%);fill-opacity:1;" d="M 9 0.75 L 9 9 L 12 9 L 12 0.75 C 12 0.75 11.878906 0 10.5 0 C 9.121094 0 9 0.75 9 0.75 Z M 9 0.75 "/>
<path style=" stroke:none;fill-rule:nonzero;fill:rgb(29.803923%,68.627453%,31.37255%);fill-opacity:1;" d="M 21.75 20.609375 C 22.289062 20.609375 22.730469 21.046875 22.730469 21.589844 C 22.730469 22.128906 22.289062 22.566406 21.75 22.566406 C 21.210938 22.566406 20.769531 22.128906 20.769531 21.589844 C 20.769531 21.046875 21.210938 20.609375 21.75 20.609375 Z M 21 12 L 21 19.5 L 22.5 19.5 L 22.5 12 Z M 21 12 "/>
</g>
</svg>
