
<svg xmlns="http://www.w3.org/2000/svg" xmlns:xlink="http://www.w3.org/1999/xlink" width="24px" height="24px" viewBox="0 0 24 24" version="1.1">
<g id="surface1">
<path style=" stroke:none;fill-rule:nonzero;fill:rgb(26.666668%,26.666668%,26.666668%);fill-opacity:1;" d="M 12 1.5 C 9.113281 1.503906 6.355469 2.695312 4.378906 4.796875 L 7.726562 10.597656 C 8.332031 8.753906 10.054688 7.503906 12 7.5 L 21.472656 7.5 C 19.738281 3.839844 16.050781 1.503906 12 1.5 Z M 3.359375 6.035156 C 2.148438 7.789062 1.5 9.867188 1.5 12 C 1.503906 16.859375 4.84375 21.082031 9.574219 22.203125 L 12.925781 16.402344 C 12.621094 16.464844 12.3125 16.5 12 16.5 C 10.394531 16.496094 8.910156 15.636719 8.109375 14.246094 L 8.101562 14.25 Z M 12 9 C 10.34375 9 9 10.34375 9 12 C 9 13.65625 10.34375 15 12 15 C 13.65625 15 15 13.65625 15 12 C 15 10.34375 13.65625 9 12 9 Z M 15.34375 9 C 16.085938 9.824219 16.496094 10.890625 16.5 12 C 16.5 12.789062 16.289062 13.5625 15.894531 14.246094 L 15.898438 14.25 L 11.160156 22.460938 C 11.4375 22.484375 11.71875 22.496094 12 22.5 C 17.800781 22.5 22.5 17.800781 22.5 12 C 22.496094 10.984375 22.34375 9.972656 22.050781 9 Z M 15.34375 9 "/>
</g>
</svg>
