
<svg xmlns="http://www.w3.org/2000/svg" xmlns:xlink="http://www.w3.org/1999/xlink" width="24px" height="24px" viewBox="0 0 24 24" version="1.1">
<g id="surface1">
<path style=" stroke:none;fill-rule:nonzero;fill:rgb(26.666668%,26.666668%,26.666668%);fill-opacity:1;" d="M 1.675781 0.1875 L 3.042969 0.21875 C 3.042969 0.21875 4.519531 0.21875 4.519531 1.691406 L 4.519531 20.867188 C 4.519531 22.820312 3.148438 22.792969 3.148438 20.839844 L 3.148438 17.886719 L 0.199219 17.886719 L 0.199219 13.460938 L 3.148438 13.460938 L 3.148438 11.988281 L 0.199219 11.988281 L 0.199219 7.5625 L 3.148438 7.5625 L 3.148438 1.648438 L 1.675781 1.648438 C -0.277344 1.648438 -0.277344 0.1875 1.675781 0.1875 Z M 5.820312 4.613281 L 5.820312 6.273438 L 21.933594 6.273438 L 21.933594 20.882812 L 10.417969 20.882812 L 10.417969 17.933594 L 5.820312 17.933594 L 5.820312 19.363281 L 9.050781 19.363281 L 9.050781 22.3125 L 21.453125 22.3125 C 22.074219 22.3125 22.671875 22.066406 23.113281 21.625 C 23.550781 21.183594 23.800781 20.585938 23.800781 19.964844 L 23.800781 6.960938 C 23.800781 5.664062 22.75 4.613281 21.453125 4.613281 Z M 8.820312 7.851562 C 7.105469 7.828125 7.105469 10.40625 8.820312 10.382812 L 11.246094 10.382812 L 7.828125 14.652344 C 7.164062 15.480469 7.757812 16.707031 8.820312 16.707031 L 13.882812 16.707031 C 15.59375 16.734375 15.59375 14.152344 13.882812 14.179688 L 11.453125 14.179688 L 14.871094 9.90625 C 15.535156 9.078125 14.941406 7.851562 13.882812 7.851562 Z M 1.207031 14.910156 L 2.679688 14.910156 L 2.679688 16.382812 L 1.207031 16.382812 Z M 17.054688 7.851562 C 16.199219 7.839844 16.199219 9.128906 17.054688 9.117188 L 18.394531 9.117188 L 16.527344 11.929688 C 16.246094 12.351562 16.550781 12.914062 17.054688 12.910156 L 19.578125 12.910156 C 20.433594 12.925781 20.433594 11.636719 19.578125 11.648438 L 18.234375 11.648438 L 20.105469 8.835938 C 20.386719 8.414062 20.082031 7.851562 19.578125 7.851562 Z M 1.207031 9.007812 L 2.679688 9.007812 L 2.679688 10.484375 L 1.207031 10.484375 Z M 1.207031 9.007812 "/>
</g>
</svg>
