
<svg xmlns="http://www.w3.org/2000/svg" xmlns:xlink="http://www.w3.org/1999/xlink" width="24px" height="24px" viewBox="0 0 24 24" version="1.1">
<defs>
<filter id="alpha" filterUnits="objectBoundingBox" x="0%" y="0%" width="100%" height="100%">
  <feColorMatrix type="matrix" in="SourceGraphic" values="0 0 0 0 1 0 0 0 0 1 0 0 0 0 1 0 0 0 1 0"/>
</filter>
<mask id="mask0">
  <g filter="url(#alpha)">
<rect x="0" y="0" width="24" height="24" style="fill:rgb(0%,0%,0%);fill-opacity:0.3;stroke:none;"/>
  </g>
</mask>
<clipPath id="clip1">
  <rect x="0" y="0" width="24" height="24"/>
</clipPath>
<g id="surface5" clip-path="url(#clip1)">
<path style=" stroke:none;fill-rule:nonzero;fill:rgb(26.666668%,26.666668%,26.666668%);fill-opacity:1;" d="M 2.550781 7.5 C 1.96875 7.5 1.5 8.015625 1.5 8.65625 L 1.5 21.34375 C 1.5 21.984375 1.96875 22.5 2.550781 22.5 L 21.449219 22.5 C 22.03125 22.5 22.5 21.984375 22.5 21.34375 L 22.5 8.65625 C 22.5 8.015625 22.03125 7.5 21.449219 7.5 Z M 7.5 10.5 C 9.96875 10.5 12 12.53125 12 15 C 12 12.53125 14.03125 10.5 16.5 10.5 C 18.96875 10.5 21 12.53125 21 15 C 21 17.46875 18.96875 19.5 16.5 19.5 C 14.03125 19.5 12 17.46875 12 15 C 12 17.46875 9.96875 19.5 7.5 19.5 C 5.03125 19.5 3 17.46875 3 15 C 3 12.53125 5.03125 10.5 7.5 10.5 Z M 7.5 13.5 C 6.675781 13.5 6 14.175781 6 15 C 6 15.824219 6.675781 16.5 7.5 16.5 C 8.324219 16.5 9 15.824219 9 15 C 9 14.175781 8.324219 13.5 7.5 13.5 Z M 16.5 13.5 C 15.675781 13.5 15 14.175781 15 15 C 15 15.824219 15.675781 16.5 16.5 16.5 C 17.324219 16.5 18 15.824219 18 15 C 18 14.175781 17.324219 13.5 16.5 13.5 Z M 16.5 13.5 "/>
</g>
</defs>
<g id="surface1">
<use xlink:href="#surface5" mask="url(#mask0)"/>
<path style=" stroke:none;fill-rule:nonzero;fill:rgb(26.666668%,26.666668%,26.666668%);fill-opacity:1;" d="M 2.550781 1.5 C 1.96875 1.5 1.5 1.882812 1.5 2.359375 L 1.5 6.640625 C 1.5 7.117188 1.96875 7.5 2.550781 7.5 L 21.449219 7.5 C 22.03125 7.5 22.5 7.117188 22.5 6.640625 L 22.5 2.359375 C 22.5 1.882812 22.03125 1.5 21.449219 1.5 Z M 4.117188 3 L 19.882812 3 C 20.503906 3 21 3.304688 21 3.675781 L 21 5.324219 C 21 5.695312 20.503906 6 19.882812 6 L 4.117188 6 C 3.496094 6 3 5.695312 3 5.324219 L 3 3.675781 C 3 3.304688 3.496094 3 4.117188 3 Z M 5.101562 3.898438 C 4.773438 3.898438 4.5 4.171875 4.5 4.5 C 4.5 4.828125 4.773438 5.101562 5.101562 5.101562 C 5.429688 5.101562 5.703125 4.828125 5.703125 4.5 C 5.703125 4.171875 5.429688 3.898438 5.101562 3.898438 Z M 7.5 3.898438 C 7.171875 3.898438 6.898438 4.171875 6.898438 4.5 C 6.898438 4.828125 7.171875 5.101562 7.5 5.101562 C 7.828125 5.101562 8.101562 4.828125 8.101562 4.5 C 8.101562 4.171875 7.828125 3.898438 7.5 3.898438 Z M 9.601562 3.898438 C 9.273438 3.898438 9 4.171875 9 4.5 C 9 4.828125 9.273438 5.101562 9.601562 5.101562 C 9.929688 5.101562 10.203125 4.828125 10.203125 4.5 C 10.203125 4.171875 9.929688 3.898438 9.601562 3.898438 Z M 18.296875 3.898438 L 18.296875 5.101562 L 19.5 5.101562 L 19.5 3.898438 Z M 18.296875 3.898438 "/>
</g>
</svg>
