
<svg xmlns="http://www.w3.org/2000/svg" xmlns:xlink="http://www.w3.org/1999/xlink" width="24px" height="24px" viewBox="0 0 24 24" version="1.1">
<g id="surface1">
<path style=" stroke:none;fill-rule:nonzero;fill:rgb(26.666668%,26.666668%,26.666668%);fill-opacity:1;" d="M 11.25 1.5 C 5.863281 1.5 1.5 5.863281 1.5 11.25 C 1.503906 16.363281 5.460938 20.605469 10.5625 20.964844 C 10.558594 22.3125 10.5 24 10.5 24 C 16.425781 23.265625 21 18.121094 21 12 C 21 11.863281 21 11.746094 20.980469 11.613281 C 21 11.492188 21 11.371094 21 11.25 C 21 5.863281 16.636719 1.5 11.25 1.5 Z M 6.75 9 L 9.75 9 C 9.75 9 10.5 9 10.5 9.75 L 10.5 13.5 C 10.5 15.316406 9 16.5 7.800781 16.5 C 7.5 16.5 7.5 16.238281 7.5 16.238281 L 7.5 15.300781 C 7.5 15.300781 7.5 15 7.800781 15 C 7.800781 15 9 14.398438 9 13.5 L 6.75 13.5 C 6.75 13.5 6 13.5 6 12.75 L 6 9.75 C 6 9.75 6 9 6.75 9 Z M 12.75 9 L 15.75 9 C 15.75 9 16.5 9 16.5 9.75 L 16.5 13.5 C 16.5 15.316406 15 16.5 13.800781 16.5 C 13.5 16.5 13.5 16.238281 13.5 16.238281 L 13.5 15.300781 C 13.5 15.300781 13.5 15 13.800781 15 C 13.800781 15 15 14.398438 15 13.5 L 12.75 13.5 C 12.75 13.5 12 13.5 12 12.75 L 12 9.75 C 12 9.75 12 9 12.75 9 Z M 12.75 9 "/>
<path style=" stroke:none;fill-rule:nonzero;fill:rgb(25.882354%,52.156866%,95.686275%);fill-opacity:1;" d="M 24 2.25 C 24 3.492188 22.992188 4.5 21.75 4.5 C 20.507812 4.5 19.5 3.492188 19.5 2.25 C 19.5 1.007812 20.507812 0 21.75 0 C 22.992188 0 24 1.007812 24 2.25 Z M 24 2.25 "/>
</g>
</svg>
