
<svg xmlns="http://www.w3.org/2000/svg" xmlns:xlink="http://www.w3.org/1999/xlink" width="24px" height="24px" viewBox="0 0 24 24" version="1.1">
<defs>
<filter id="alpha" filterUnits="objectBoundingBox" x="0%" y="0%" width="100%" height="100%">
  <feColorMatrix type="matrix" in="SourceGraphic" values="0 0 0 0 1 0 0 0 0 1 0 0 0 0 1 0 0 0 1 0"/>
</filter>
<mask id="mask0">
  <g filter="url(#alpha)">
<rect x="0" y="0" width="24" height="24" style="fill:rgb(0%,0%,0%);fill-opacity:0.3;stroke:none;"/>
  </g>
</mask>
<clipPath id="clip1">
  <rect x="0" y="0" width="24" height="24"/>
</clipPath>
<g id="surface5" clip-path="url(#clip1)">
<path style=" stroke:none;fill-rule:nonzero;fill:rgb(26.666668%,26.666668%,26.666668%);fill-opacity:0.3;" d="M 7.875 7.5 C 7.667969 7.5 7.5 7.667969 7.5 7.875 L 7.5 20.625 C 7.5 20.832031 7.667969 21 7.875 21 L 20.625 21 C 20.832031 21 21 20.832031 21 20.625 L 21 7.875 C 21 7.667969 20.832031 7.5 20.625 7.5 Z M 0.375 19.5 C 0.167969 19.5 0 19.667969 0 19.875 L 0 20.625 C 0 20.832031 0.167969 21 0.375 21 L 2.625 21 C 2.832031 21 3 20.832031 3 20.625 L 3 19.875 C 3 19.667969 2.832031 19.5 2.625 19.5 Z M 0.375 13.5 C 0.167969 13.5 0 13.667969 0 13.875 L 0 14.625 C 0 14.832031 0.167969 15 0.375 15 L 2.625 15 C 2.832031 15 3 14.832031 3 14.625 L 3 13.875 C 3 13.667969 2.832031 13.5 2.625 13.5 Z M 0.375 7.5 C 0.167969 7.5 0 7.667969 0 7.875 L 0 8.625 C 0 8.832031 0.167969 9 0.375 9 L 2.625 9 C 2.832031 9 3 8.832031 3 8.625 L 3 7.875 C 3 7.667969 2.832031 7.5 2.625 7.5 Z M 7.875 0 C 7.667969 0 7.5 0.167969 7.5 0.375 L 7.5 2.625 C 7.5 2.832031 7.667969 3 7.875 3 L 8.625 3 C 8.832031 3 9 2.832031 9 2.625 L 9 0.375 C 9 0.167969 8.832031 0 8.625 0 Z M 13.875 0 C 13.667969 0 13.5 0.167969 13.5 0.375 L 13.5 2.625 C 13.5 2.832031 13.667969 3 13.875 3 L 14.625 3 C 14.832031 3 15 2.832031 15 2.625 L 15 0.375 C 15 0.167969 14.832031 0 14.625 0 Z M 19.875 0 C 19.667969 0 19.5 0.167969 19.5 0.375 L 19.5 2.625 C 19.5 2.832031 19.667969 3 19.875 3 L 20.625 3 C 20.832031 3 21 2.832031 21 2.625 L 21 0.375 C 21 0.167969 20.832031 0 20.625 0 Z M 19.875 0 "/>
</g>
</defs>
<g id="surface1">
<path style=" stroke:none;fill-rule:nonzero;fill:rgb(26.666668%,26.666668%,26.666668%);fill-opacity:1;" d="M 4.875 3 C 3.835938 3 3 3.835938 3 4.875 L 3 6.039062 C 3.859375 6.210938 4.5 6.964844 4.5 7.875 L 4.5 8.625 C 4.5 9.535156 3.859375 10.289062 3 10.460938 L 3 12.039062 C 3.859375 12.210938 4.5 12.964844 4.5 13.875 L 4.5 14.625 C 4.5 15.535156 3.859375 16.289062 3 16.460938 L 3 18.039062 C 3.859375 18.210938 4.5 18.964844 4.5 19.875 L 4.5 20.625 C 4.5 21.523438 3.871094 22.265625 3.03125 22.453125 C 3.1875 23.335938 3.949219 24 4.875 24 L 22.125 24 C 23.164062 24 24 23.164062 24 22.125 L 24 4.875 C 24 3.960938 23.351562 3.207031 22.492188 3.039062 C 22.46875 3.851562 21.816406 4.5 21 4.5 L 19.5 4.5 C 18.667969 4.5 18 3.832031 18 3 L 16.5 3 C 16.5 3.832031 15.832031 4.5 15 4.5 L 13.5 4.5 C 12.667969 4.5 12 3.832031 12 3 L 10.5 3 C 10.5 3.832031 9.832031 4.5 9 4.5 L 7.5 4.5 C 6.667969 4.5 6 3.832031 6 3 Z M 7.5 6 L 21 6 C 21.832031 6 22.5 6.667969 22.5 7.5 L 22.5 21 C 22.5 21.832031 21.832031 22.5 21 22.5 L 7.5 22.5 C 6.667969 22.5 6 21.832031 6 21 L 6 7.5 C 6 6.667969 6.667969 6 7.5 6 Z M 7.5 6 "/>
<use xlink:href="#surface5" mask="url(#mask0)"/>
</g>
</svg>
