
<svg xmlns="http://www.w3.org/2000/svg" xmlns:xlink="http://www.w3.org/1999/xlink" width="24px" height="24px" viewBox="0 0 24 24" version="1.1">
<g id="surface1">
<path style=" stroke:none;fill-rule:evenodd;fill:rgb(26.666668%,26.666668%,26.666668%);fill-opacity:1;" d="M 4.125 1.5 C 2.671875 1.5 1.5 2.671875 1.5 4.125 L 1.5 19.875 C 1.5 21.328125 2.671875 22.5 4.125 22.5 L 19.875 22.5 C 21.328125 22.5 22.5 21.328125 22.5 19.875 L 22.5 4.125 C 22.5 2.671875 21.328125 1.5 19.875 1.5 Z M 21 15 L 21 4.125 C 21 3.5 20.5 3 19.875 3 L 4.125 3 C 3.5 3 3 3.5 3 4.125 L 3 19.875 C 3 20.5 3.5 21 4.125 21 L 19.875 21 C 20.5 21 21 20.5 21 19.875 L 21 16.5 L 18.75 16.5 C 18.382812 16.5 18.070312 16.234375 18.007812 15.871094 L 17.007812 9.855469 L 14.960938 15.988281 C 14.859375 16.292969 14.574219 16.5 14.25 16.5 C 13.917969 16.5 13.621094 16.277344 13.53125 15.957031 L 11.339844 8.296875 L 8.980469 18.914062 C 8.90625 19.253906 8.601562 19.5 8.25 19.5 C 7.925781 19.5 7.640625 19.292969 7.539062 18.988281 L 4.707031 10.5 L 3 10.5 L 3 9 L 5.25 9 C 5.574219 9 5.859375 9.207031 5.960938 9.511719 L 8.105469 15.945312 L 10.519531 5.089844 C 10.59375 4.75 10.894531 4.503906 11.242188 4.5 C 11.578125 4.496094 11.878906 4.722656 11.96875 5.042969 L 14.304688 13.214844 L 16.539062 6.511719 C 16.636719 6.207031 16.925781 5.996094 17.25 5.996094 C 17.617188 5.996094 17.933594 6.265625 17.992188 6.628906 L 19.386719 15 Z M 21 15 "/>
</g>
</svg>
