
<svg xmlns="http://www.w3.org/2000/svg" xmlns:xlink="http://www.w3.org/1999/xlink" width="24px" height="24px" viewBox="0 0 24 24" version="1.1">
<defs>
<filter id="alpha" filterUnits="objectBoundingBox" x="0%" y="0%" width="100%" height="100%">
  <feColorMatrix type="matrix" in="SourceGraphic" values="0 0 0 0 1 0 0 0 0 1 0 0 0 0 1 0 0 0 1 0"/>
</filter>
<mask id="mask0">
  <g filter="url(#alpha)">
<rect x="0" y="0" width="24" height="24" style="fill:rgb(0%,0%,0%);fill-opacity:0.3;stroke:none;"/>
  </g>
</mask>
<clipPath id="clip1">
  <rect x="0" y="0" width="24" height="24"/>
</clipPath>
<g id="surface5" clip-path="url(#clip1)">
<path style=" stroke:none;fill-rule:nonzero;fill:rgb(26.666668%,26.666668%,26.666668%);fill-opacity:1;" d="M 4.519531 4.613281 L 21.742188 4.628906 L 21.933594 6.273438 L 21.933594 20.882812 L 10.417969 20.882812 L 9.050781 19.363281 L 4.519531 19.367188 Z M 4.519531 4.613281 "/>
</g>
</defs>
<g id="surface1">
<use xlink:href="#surface5" mask="url(#mask0)"/>
<path style=" stroke:none;fill-rule:nonzero;fill:rgb(26.666668%,26.666668%,26.666668%);fill-opacity:1;" d="M 1.675781 0.1875 C -0.277344 0.1875 -0.277344 1.648438 1.675781 1.648438 L 3.148438 1.648438 L 3.148438 7.5625 L 0.199219 7.5625 L 0.199219 11.988281 L 3.148438 11.988281 L 3.148438 13.460938 L 0.199219 13.460938 L 0.199219 17.886719 L 3.148438 17.886719 L 3.148438 20.839844 C 3.148438 22.792969 4.519531 22.820312 4.519531 20.867188 L 4.519531 1.691406 C 4.519531 0.21875 3.042969 0.21875 3.042969 0.21875 Z M 5.820312 4.613281 L 5.820312 6.273438 L 21.933594 6.273438 L 21.933594 20.882812 L 10.417969 20.882812 L 10.417969 17.933594 L 5.820312 17.933594 L 5.820312 19.363281 L 9.050781 19.363281 L 9.050781 22.3125 L 21.453125 22.3125 C 22.074219 22.3125 22.671875 22.066406 23.113281 21.625 C 23.550781 21.183594 23.800781 20.585938 23.800781 19.964844 L 23.800781 6.960938 C 23.800781 5.664062 22.75 4.613281 21.453125 4.613281 Z M 1.207031 9.007812 L 2.679688 9.007812 L 2.679688 10.484375 L 1.207031 10.484375 Z M 9.050781 9.039062 L 9.050781 14.9375 L 10.527344 14.9375 L 10.527344 9.039062 Z M 12 9.039062 L 12 14.9375 L 13.472656 14.9375 L 13.472656 9.039062 Z M 14.949219 9.039062 L 14.949219 14.9375 L 16.425781 14.9375 L 16.425781 9.039062 Z M 17.898438 9.039062 L 17.898438 14.9375 L 19.375 14.9375 L 19.375 9.039062 Z M 1.207031 14.910156 L 2.679688 14.910156 L 2.679688 16.382812 L 1.207031 16.382812 Z M 1.207031 14.910156 "/>
</g>
</svg>
