
<svg xmlns="http://www.w3.org/2000/svg" xmlns:xlink="http://www.w3.org/1999/xlink" width="24px" height="24px" viewBox="0 0 24 24" version="1.1">
<g id="surface1">
<path style=" stroke:none;fill-rule:nonzero;fill:rgb(26.666668%,26.666668%,26.666668%);fill-opacity:1;" d="M 17.917969 5.1875 L 21.222656 5.1875 L 21.222656 8.492188 L 17.917969 8.492188 Z M 7.855469 5.1875 L 11.164062 5.1875 L 11.164062 8.492188 L 7.855469 8.492188 Z M 12.917969 5.1875 L 16.222656 5.1875 L 16.222656 8.492188 L 12.917969 8.492188 Z M 2.777344 5.1875 L 6.085938 5.1875 L 6.085938 8.492188 L 2.777344 8.492188 Z M 12.894531 9.863281 L 16.199219 9.863281 L 16.199219 13.171875 L 12.894531 13.171875 Z M 17.917969 9.863281 L 21.222656 9.863281 L 21.222656 13.171875 L 17.917969 13.171875 Z M 7.855469 9.863281 L 11.164062 9.863281 L 11.164062 13.171875 L 7.855469 13.171875 Z M 2.777344 9.863281 L 6.085938 9.863281 L 6.085938 13.171875 L 2.777344 13.171875 Z M 2.777344 15.699219 L 21.222656 15.699219 L 21.222656 18.8125 L 2.777344 18.8125 Z M 2.777344 15.699219 "/>
</g>
</svg>
