
<svg xmlns="http://www.w3.org/2000/svg" xmlns:xlink="http://www.w3.org/1999/xlink" width="24px" height="24px" viewBox="0 0 24 24" version="1.1">
<g id="surface1">
<path style=" stroke:none;fill-rule:nonzero;fill:rgb(26.666668%,26.666668%,26.666668%);fill-opacity:1;" d="M 10.5 1.5 C 10.453125 1.5 9.988281 2.445312 9.703125 3.011719 C 9.285156 3.84375 9.082031 4.484375 9.015625 5.222656 C 8.996094 5.40625 9 5.585938 9.011719 5.761719 C 9.003906 5.84375 9 5.921875 9 6 C 9 6.6875 9.242188 7.316406 9.628906 7.824219 C 7.441406 8.417969 5.582031 9.816406 4.398438 11.6875 C 4.164062 11.992188 3.960938 12.308594 3.8125 12.648438 C 3.578125 13.183594 3.402344 13.734375 3.269531 14.332031 C 3.183594 14.6875 3.109375 15.046875 3.066406 15.417969 C 3.0625 15.449219 3.070312 15.457031 3.089844 15.449219 C 3.070312 15.59375 3.046875 15.730469 3.035156 15.878906 C 2.992188 16.355469 2.988281 16.550781 3.019531 16.550781 L 9 10.5 L 7.558594 15.019531 C 7.566406 15.023438 7.398438 15.089844 7.597656 14.996094 C 8.828125 14.433594 9.953125 13.667969 11.304688 13.503906 C 11.773438 13.449219 13.386719 13.449219 13.875 13.5 C 14.367188 13.550781 14.835938 13.828125 15.324219 14.132812 C 16.152344 13.71875 17.070312 13.5 18 13.5 C 18.613281 13.5 19.222656 13.59375 19.808594 13.777344 C 19.941406 13.410156 20 13.007812 19.953125 12.636719 C 19.945312 12.558594 19.921875 12.488281 19.90625 12.410156 C 19.9375 12.332031 19.910156 12.199219 19.785156 11.980469 C 19.660156 11.652344 19.476562 11.324219 19.203125 10.953125 C 17.875 9.496094 16.253906 8.347656 14.371094 7.820312 C 14.757812 7.3125 15 6.6875 15 6 C 15 5.921875 14.996094 5.847656 14.992188 5.769531 C 14.992188 5.695312 15 5.617188 14.996094 5.542969 C 14.945312 4.515625 14.351562 3.8125 13.453125 3.347656 C 12.976562 3.101562 12.25 2.988281 11.777344 2.988281 C 11.054688 2.890625 10.933594 1.917969 10.5 1.5 Z M 6.828125 14.832031 C 6.828125 14.828125 6.207031 15.375 4.085938 17.605469 C 3.835938 17.863281 3.496094 18 3.144531 18.027344 C 3.429688 19.691406 4.179688 21.242188 5.304688 22.5 L 12.8125 22.5 C 12.28125 21.589844 12.003906 20.554688 12 19.5 C 12.003906 17.828125 12.703125 16.234375 13.929688 15.097656 C 13.886719 15.082031 13.730469 14.992188 13.71875 14.992188 C 13.578125 14.976562 11.546875 14.988281 11.484375 14.996094 C 10.589844 15.101562 9.609375 15.722656 8.234375 16.355469 C 8.230469 16.359375 8.230469 16.359375 8.226562 16.359375 C 8.222656 16.363281 8.207031 16.371094 8.203125 16.375 C 8.128906 16.410156 8.117188 16.421875 7.996094 16.460938 C 7.964844 16.472656 7.820312 16.511719 7.820312 16.511719 C 7.820312 16.511719 7.429688 16.542969 7.429688 16.542969 L 6.9375 16.433594 L 6.808594 16.378906 L 7.5 15.046875 C 7.5 15.046875 7.164062 14.9375 6.828125 14.832031 Z M 18 15 C 15.515625 15 13.5 17.023438 13.5 19.5 C 13.5 21.976562 15.515625 24 18 24 C 20.484375 24 22.5 21.976562 22.5 19.5 C 22.5 17.023438 20.484375 15 18 15 Z M 18 16.5 C 19.65625 16.5 21 17.84375 21 19.5 L 19.5 19.5 C 19.5 18.671875 18.828125 18 18 18 Z M 7.5 18 C 8.328125 18 9 18.671875 9 19.5 C 9 20.328125 8.328125 21 7.5 21 C 6.671875 21 6 20.328125 6 19.5 C 6 18.671875 6.671875 18 7.5 18 Z M 15 19.5 L 16.5 19.5 C 16.5 20.328125 17.171875 21 18 21 L 18 22.5 C 16.34375 22.5 15 21.15625 15 19.5 Z M 15 19.5 "/>
</g>
</svg>
