
<svg xmlns="http://www.w3.org/2000/svg" xmlns:xlink="http://www.w3.org/1999/xlink" width="24px" height="24px" viewBox="0 0 24 24" version="1.1">
<defs>
<filter id="alpha" filterUnits="objectBoundingBox" x="0%" y="0%" width="100%" height="100%">
  <feColorMatrix type="matrix" in="SourceGraphic" values="0 0 0 0 1 0 0 0 0 1 0 0 0 0 1 0 0 0 1 0"/>
</filter>
<mask id="mask0">
  <g filter="url(#alpha)">
<rect x="0" y="0" width="24" height="24" style="fill:rgb(0%,0%,0%);fill-opacity:0.3;stroke:none;"/>
  </g>
</mask>
<clipPath id="clip1">
  <rect x="0" y="0" width="24" height="24"/>
</clipPath>
<g id="surface5" clip-path="url(#clip1)">
<path style=" stroke:none;fill-rule:nonzero;fill:rgb(26.666668%,26.666668%,26.666668%);fill-opacity:1;" d="M 3.683594 3.628906 C 2.914062 3.628906 2.296875 4.246094 2.296875 5.011719 L 2.296875 17.488281 C 2.296875 18.253906 2.914062 18.871094 3.683594 18.871094 L 2.828125 18.871094 L 0 21 L 0 22.5 L 24 22.5 L 24 21 L 21.171875 18.871094 L 20.316406 18.871094 C 21.085938 18.871094 21.703125 18.253906 21.703125 17.488281 L 21.703125 5.011719 C 21.703125 4.246094 21.085938 3.628906 20.316406 3.628906 Z M 3.226562 4.390625 L 20.773438 4.390625 L 20.773438 17.933594 L 3.226562 17.933594 Z M 8.582031 20.453125 L 15.417969 20.453125 L 15.417969 21.953125 L 8.582031 21.953125 Z M 8.582031 20.453125 "/>
</g>
</defs>
<g id="surface1">
<use xlink:href="#surface5" mask="url(#mask0)"/>
<path style=" stroke:none;fill-rule:nonzero;fill:rgb(26.666668%,26.666668%,26.666668%);fill-opacity:1;" d="M 16.5 16.5 L 16.5 18 C 16.5 18.421875 16.648438 18.808594 16.921875 19.078125 L 18.089844 20.25 L 16.921875 21.421875 C 16.648438 21.703125 16.5 22.09375 16.5 22.5 L 16.5 24 L 18 24 C 18.421875 24 18.808594 23.851562 19.078125 23.578125 L 20.25 22.410156 L 21.421875 23.578125 C 21.691406 23.851562 22.09375 24 22.5 24 L 24 24 L 24 22.5 C 24 22.09375 23.851562 21.703125 23.578125 21.421875 L 22.410156 20.25 L 23.578125 19.078125 C 23.851562 18.808594 24 18.421875 24 18 L 24 16.5 L 22.5 16.5 C 22.09375 16.5 21.691406 16.648438 21.421875 16.921875 L 20.25 18.105469 L 19.078125 16.921875 C 18.808594 16.648438 18.421875 16.5 18 16.5 Z M 16.5 16.5 "/>
</g>
</svg>
