
<svg xmlns="http://www.w3.org/2000/svg" xmlns:xlink="http://www.w3.org/1999/xlink" width="24px" height="24px" viewBox="0 0 24 24" version="1.1">
<defs>
<filter id="alpha" filterUnits="objectBoundingBox" x="0%" y="0%" width="100%" height="100%">
  <feColorMatrix type="matrix" in="SourceGraphic" values="0 0 0 0 1 0 0 0 0 1 0 0 0 0 1 0 0 0 1 0"/>
</filter>
<mask id="mask0">
  <g filter="url(#alpha)">
<rect x="0" y="0" width="24" height="24" style="fill:rgb(0%,0%,0%);fill-opacity:0.3;stroke:none;"/>
  </g>
</mask>
<clipPath id="clip1">
  <rect x="0" y="0" width="24" height="24"/>
</clipPath>
<g id="surface5" clip-path="url(#clip1)">
<path style=" stroke:none;fill-rule:nonzero;fill:rgb(26.666668%,26.666668%,26.666668%);fill-opacity:1;" d="M 21.976562 22.5 C 22.265625 22.5 22.5 22.269531 22.5 21.980469 L 22.5 9.519531 C 22.5 9.230469 22.265625 9 21.976562 9 L 20.027344 9 C 19.734375 9 19.5 9.230469 19.5 9.519531 L 19.5 19.5 L 14.023438 19.5 C 13.734375 19.5 13.5 19.765625 13.5 20.054688 L 13.5 21.980469 C 13.5 22.269531 13.734375 22.5 14.023438 22.5 Z M 21.976562 22.5 "/>
</g>
</defs>
<g id="surface1">
<path style=" stroke:none;fill-rule:nonzero;fill:rgb(26.666668%,26.666668%,26.666668%);fill-opacity:1;" d="M 2.023438 1.5 C 1.734375 1.5 1.5 1.730469 1.5 2.019531 L 1.5 14.480469 C 1.5 14.769531 1.734375 15 2.023438 15 L 3.972656 15 C 4.265625 15 4.5 14.769531 4.5 14.480469 L 4.5 4.5 L 9.976562 4.5 C 10.265625 4.5 10.5 4.234375 10.5 3.945312 L 10.5 2.019531 C 10.5 1.730469 10.265625 1.5 9.976562 1.5 Z M 2.023438 1.5 "/>
<use xlink:href="#surface5" mask="url(#mask0)"/>
</g>
</svg>
