
<svg xmlns="http://www.w3.org/2000/svg" xmlns:xlink="http://www.w3.org/1999/xlink" width="24px" height="24px" viewBox="0 0 24 24" version="1.1">
<defs>
<filter id="alpha" filterUnits="objectBoundingBox" x="0%" y="0%" width="100%" height="100%">
  <feColorMatrix type="matrix" in="SourceGraphic" values="0 0 0 0 1 0 0 0 0 1 0 0 0 0 1 0 0 0 1 0"/>
</filter>
<mask id="mask0">
  <g filter="url(#alpha)">
<rect x="0" y="0" width="24" height="24" style="fill:rgb(0%,0%,0%);fill-opacity:0.3;stroke:none;"/>
  </g>
</mask>
<clipPath id="clip1">
  <rect x="0" y="0" width="24" height="24"/>
</clipPath>
<g id="surface5" clip-path="url(#clip1)">
<path style=" stroke:none;fill-rule:nonzero;fill:rgb(26.666668%,26.666668%,26.666668%);fill-opacity:1;" d="M 12.75 4.5 C 11.554688 4.5 10.429688 5.074219 9.726562 6.039062 L 13.148438 7.96875 L 16.207031 9.695312 C 16.398438 9.238281 16.5 8.746094 16.5 8.25 C 16.5 6.179688 14.820312 4.5 12.75 4.5 Z M 5.25 8.25 C 3.179688 8.25 1.5 9.929688 1.5 12 C 1.5 14.070312 3.179688 15.75 5.25 15.75 C 5.5 15.75 5.753906 15.722656 6 15.675781 L 6 8.332031 C 5.753906 8.28125 5.503906 8.253906 5.25 8.25 Z M 16.210938 14.304688 L 13.148438 16.035156 L 9.730469 17.964844 C 10.433594 18.929688 11.554688 19.5 12.75 19.5 C 14.820312 19.5 16.5 17.820312 16.5 15.75 C 16.5 15.253906 16.402344 14.761719 16.210938 14.304688 Z M 16.210938 14.304688 "/>
</g>
</defs>
<g id="surface1">
<path style=" stroke:none;fill-rule:nonzero;fill:rgb(26.666668%,26.666668%,26.666668%);fill-opacity:1;" d="M 8.25 1.5 C 4.523438 1.5 1.5 4.523438 1.5 8.25 C 1.503906 8.980469 1.625 9.707031 1.859375 10.402344 C 2.480469 9.089844 3.800781 8.25 5.25 8.25 C 5.503906 8.253906 5.753906 8.28125 6 8.332031 L 6 5.277344 C 6 4.871094 6.320312 4.535156 6.730469 4.503906 C 6.757812 4.5 6.785156 4.5 6.8125 4.5 C 6.945312 4.503906 7.074219 4.539062 7.191406 4.605469 L 9.726562 6.039062 C 10.429688 5.074219 11.554688 4.5 12.75 4.5 C 13.171875 4.5 13.589844 4.574219 13.988281 4.714844 C 12.761719 2.71875 10.589844 1.503906 8.25 1.5 Z M 15.75 5.25 C 15.515625 5.25 15.285156 5.265625 15.050781 5.292969 C 15.964844 6 16.5 7.09375 16.5 8.25 C 16.5 8.746094 16.398438 9.238281 16.207031 9.695312 L 19.105469 11.328125 C 19.347656 11.46875 19.5 11.722656 19.5 12 C 19.5 12.277344 19.347656 12.53125 19.105469 12.671875 L 16.210938 14.304688 C 16.402344 14.761719 16.5 15.253906 16.5 15.75 C 16.496094 16.910156 15.960938 18 15.042969 18.707031 C 15.277344 18.734375 15.515625 18.75 15.75 18.75 C 19.476562 18.75 22.5 15.726562 22.5 12 C 22.5 8.273438 19.476562 5.25 15.75 5.25 Z M 1.859375 13.597656 C 1.625 14.289062 1.503906 15.015625 1.5 15.75 C 1.5 19.476562 4.523438 22.5 8.25 22.5 C 10.589844 22.496094 12.757812 21.277344 13.984375 19.285156 C 13.585938 19.425781 13.171875 19.5 12.75 19.5 C 11.554688 19.5 10.433594 18.929688 9.730469 17.964844 L 7.191406 19.398438 C 6.945312 19.535156 6.640625 19.535156 6.398438 19.394531 C 6.152344 19.257812 6 19.003906 6 18.726562 L 6 15.675781 C 5.753906 15.722656 5.5 15.75 5.25 15.75 C 3.796875 15.75 2.476562 14.910156 1.859375 13.597656 Z M 1.859375 13.597656 "/>
<use xlink:href="#surface5" mask="url(#mask0)"/>
</g>
</svg>
