
<svg xmlns="http://www.w3.org/2000/svg" xmlns:xlink="http://www.w3.org/1999/xlink" width="24px" height="24px" viewBox="0 0 24 24" version="1.1">
<g id="surface1">
<path style=" stroke:none;fill-rule:evenodd;fill:rgb(26.666668%,26.666668%,26.666668%);fill-opacity:1;" d="M 12 0 C 9.242188 1.242188 6.234375 2.234375 3 3 C 3 3 3.164062 10.640625 3.984375 13.5 C 4.691406 15.976562 6.09375 18.734375 7.910156 20.160156 C 9.726562 21.582031 12 22.5 12 22.5 C 12 22.5 14.273438 21.582031 16.089844 20.160156 C 17.90625 18.71875 19.308594 15.976562 20.015625 13.5 C 20.835938 10.640625 21 3 21 3 C 17.855469 2.363281 14.828125 1.429688 12 0 Z M 11.976562 1.160156 C 9.523438 2.226562 6.886719 3.113281 4.074219 3.820312 C 4.136719 5.847656 4.359375 10.996094 4.992188 13.210938 C 5.640625 15.480469 6.890625 18.027344 8.558594 19.332031 C 9.816406 20.316406 11.304688 21.042969 12 21.355469 C 12.695312 21.042969 14.183594 20.320312 15.4375 19.335938 C 17.105469 18.015625 18.359375 15.484375 19.007812 13.210938 C 19.636719 11.007812 19.863281 5.890625 19.925781 3.847656 C 17.164062 3.234375 14.496094 2.378906 11.976562 1.160156 Z M 17.96875 6.75 L 18.296875 7.066406 L 11.113281 16.351562 L 6.984375 10.292969 L 7.292969 10.011719 L 11.113281 13.609375 Z M 17.96875 6.75 "/>
</g>
</svg>
