
<svg xmlns="http://www.w3.org/2000/svg" xmlns:xlink="http://www.w3.org/1999/xlink" width="24px" height="24px" viewBox="0 0 24 24" version="1.1">
<g id="surface1">
<path style=" stroke:none;fill-rule:nonzero;fill:rgb(26.666668%,26.666668%,26.666668%);fill-opacity:1;" d="M 9 1.5 C 5.675781 1.5 3 4.257812 3 7.683594 L 3 11.066406 C 3 11.070312 3.003906 11.074219 3.003906 11.078125 C 3.007812 13.339844 3.214844 18.378906 4.960938 20.410156 C 6.53125 22.238281 10.199219 22.5 11.679688 22.5 C 13.195312 22.5 14.292969 22.160156 15 21.863281 L 15 19.160156 C 14.269531 19.363281 13.238281 19.59375 12.027344 19.574219 C 10.675781 19.535156 7.960938 18.546875 7.667969 17.023438 C 7.632812 16.835938 7.617188 16.617188 7.589844 16.414062 C 7.855469 16.453125 8.121094 16.5 8.398438 16.5 L 15 16.5 C 18.324219 16.5 21 14.492188 21 11.066406 L 21 7.683594 C 21 4.257812 18.324219 1.5 15 1.5 Z M 9 6 C 9.828125 6 10.5 6.671875 10.5 7.5 C 10.5 8.328125 9.828125 9 9 9 C 8.171875 9 7.5 8.328125 7.5 7.5 C 7.5 6.671875 8.171875 6 9 6 Z M 9 6 "/>
</g>
</svg>
