
<svg xmlns="http://www.w3.org/2000/svg" xmlns:xlink="http://www.w3.org/1999/xlink" width="24px" height="24px" viewBox="0 0 24 24" version="1.1">
<g id="surface1">
<path style=" stroke:none;fill-rule:nonzero;fill:rgb(26.666668%,26.666668%,26.666668%);fill-opacity:1;" d="M 4.238281 15.285156 L 4.238281 14.257812 C 4.238281 13.460938 4.554688 12.695312 5.121094 12.132812 C 5.683594 11.566406 6.449219 11.25 7.246094 11.25 L 11.25 11.25 L 11.25 8.390625 L 10.246094 8.390625 C 9.277344 8.390625 8.496094 7.605469 8.496094 6.636719 L 8.496094 3.128906 C 8.496094 2.164062 9.277344 1.378906 10.246094 1.378906 L 13.753906 1.378906 C 14.722656 1.378906 15.503906 2.164062 15.503906 3.128906 L 15.503906 6.636719 C 15.503906 7.605469 14.722656 8.390625 13.753906 8.390625 L 12.75 8.390625 L 12.75 11.25 L 16.441406 11.25 C 17.238281 11.25 18.003906 11.566406 18.570312 12.132812 C 19.132812 12.695312 19.449219 13.460938 19.449219 14.257812 L 19.449219 15.285156 L 20.453125 15.285156 C 21.421875 15.285156 22.207031 16.066406 22.207031 17.035156 L 22.207031 20.542969 C 22.207031 21.511719 21.421875 22.292969 20.453125 22.292969 L 16.945312 22.292969 C 15.980469 22.292969 15.195312 21.511719 15.195312 20.542969 L 15.195312 17.035156 C 15.195312 16.066406 15.980469 15.285156 16.945312 15.285156 L 17.949219 15.285156 L 17.949219 14.257812 C 17.949219 13.859375 17.789062 13.472656 17.507812 13.191406 C 17.222656 12.910156 16.839844 12.75 16.441406 12.75 L 7.246094 12.75 C 6.847656 12.75 6.464844 12.910156 6.179688 13.191406 C 5.898438 13.472656 5.738281 13.859375 5.738281 14.257812 L 5.738281 15.285156 L 6.742188 15.285156 C 7.707031 15.285156 8.492188 16.066406 8.492188 17.035156 L 8.492188 20.542969 C 8.492188 21.511719 7.707031 22.292969 6.742188 22.292969 L 3.234375 22.292969 C 2.265625 22.292969 1.480469 21.511719 1.480469 20.542969 L 1.480469 17.035156 C 1.480469 16.066406 2.265625 15.285156 3.234375 15.285156 Z M 4.238281 15.285156 "/>
</g>
</svg>
