<svg xmlns="http://www.w3.org/2000/svg" style="fill-rule:evenodd;clip-rule:evenodd;stroke-linejoin:round;stroke-miterlimit:2" width="100%" height="100%" version="1.1" viewBox="0 0 24 24" xml:space="preserve">
 <defs>
  <style id="current-color-scheme" type="text/css">
   .ColorScheme-Text { color:#444444; } .ColorScheme-Highlight { color:#4285f4; } .ColorScheme-NeutralText { color:#ff9800; } .ColorScheme-PositiveText { color:#4caf50; } .ColorScheme-NegativeText { color:#f44336; }
  </style>
 </defs>
 <path style="fill:currentColor;" class="ColorScheme-Text" d="M15.174,3.7l0,1.171c0,0.316 0.117,0.62 0.328,0.842l0.913,0.913l-0.913,0.913c-0.211,0.211 -0.328,0.515 -0.328,0.843l0,1.171l1.171,-0c0.328,-0 0.632,-0.117 0.843,-0.328l0.913,-0.925l0.913,0.925c0.21,0.211 0.515,0.328 0.843,0.328l1.17,-0l0,-1.171c0,-0.328 -0.117,-0.632 -0.328,-0.843l-0.913,-0.913l0.913,-0.913c0.211,-0.222 0.328,-0.526 0.328,-0.842l0,-1.171l-1.17,-0c-0.328,-0 -0.633,0.117 -0.843,0.328l-0.913,0.913l-0.913,-0.913c-0.211,-0.211 -0.515,-0.328 -0.843,-0.328l-1.171,-0Z"/>
 <path style="fill:currentColor;fill-opacity:0.3;" class="ColorScheme-Text" d="M5.977,14.551l0,-0.8c0,-0.622 0.247,-1.219 0.689,-1.659c0.44,-0.442 1.037,-0.689 1.66,-0.689l3.124,0l-0,-2.232l-0.783,0c-0.755,0 -1.368,-0.612 -1.368,-1.367l0,-2.737c0,-0.755 0.613,-1.367 1.368,-1.367l2.736,-0c0.755,-0 1.368,0.612 1.368,1.367l-0,2.737c-0,0.755 -0.613,1.367 -1.368,1.367l-0.783,0l0,2.232l2.88,0c0.623,0 1.221,0.247 1.661,0.689c0.44,0.44 0.688,1.037 0.688,1.659l0,0.8l0.783,-0c0.755,-0 1.367,0.612 1.367,1.367l0,2.737c0,0.755 -0.612,1.367 -1.367,1.367l-2.737,0c-0.755,0 -1.367,-0.612 -1.367,-1.367l0,-2.737c0,-0.755 0.612,-1.367 1.367,-1.367l0.784,-0l-0,-0.8c-0,-0.312 -0.126,-0.612 -0.346,-0.832c-0.221,-0.221 -0.521,-0.345 -0.833,-0.345l-7.174,-0c-0.313,-0 -0.611,0.124 -0.833,0.345c-0.221,0.22 -0.345,0.52 -0.345,0.832l-0,0.8l0.783,-0c0.755,-0 1.367,0.612 1.367,1.367l0,2.737c0,0.755 -0.612,1.367 -1.367,1.367l-2.737,0c-0.755,0 -1.367,-0.612 -1.367,-1.367l0,-2.737c0,-0.755 0.612,-1.367 1.367,-1.367l0.783,-0Z"/>
</svg>
