
<svg xmlns="http://www.w3.org/2000/svg" xmlns:xlink="http://www.w3.org/1999/xlink" width="24px" height="24px" viewBox="0 0 24 24" version="1.1">
<g id="surface1">
<path style=" stroke:none;fill-rule:nonzero;fill:rgb(26.666668%,26.666668%,26.666668%);fill-opacity:1;" d="M 22.207031 17.035156 C 22.203125 16.066406 21.421875 15.285156 20.453125 15.285156 L 16.945312 15.285156 C 15.976562 15.285156 15.195312 16.066406 15.195312 17.035156 L 15.195312 20.542969 C 15.195312 21.511719 15.976562 22.292969 16.945312 22.292969 L 20.453125 22.292969 C 21.421875 22.292969 22.203125 21.511719 22.203125 20.542969 L 22.203125 17.035156 Z M 8.496094 17.035156 C 8.496094 16.066406 7.710938 15.285156 6.742188 15.285156 L 3.234375 15.285156 C 2.269531 15.285156 1.484375 16.066406 1.484375 17.035156 L 1.484375 20.542969 C 1.484375 21.511719 2.269531 22.292969 3.234375 22.292969 L 6.742188 22.292969 C 7.710938 22.292969 8.496094 21.511719 8.496094 20.542969 Z M 11.648438 19.210938 C 12.046875 19.210938 12.386719 19.339844 12.65625 19.609375 C 12.910156 19.878906 13.054688 20.203125 13.054688 20.617188 C 13.054688 21.03125 12.910156 21.355469 12.65625 21.605469 C 12.386719 21.875 12.046875 22.003906 11.648438 22.003906 C 11.269531 22.003906 10.929688 21.875 10.660156 21.605469 C 10.390625 21.355469 10.246094 21.03125 10.246094 20.617188 C 10.246094 20.203125 10.390625 19.878906 10.660156 19.609375 C 10.929688 19.339844 11.269531 19.210938 11.648438 19.210938 Z M 11.828125 9.726562 C 12.296875 9.726562 12.730469 9.796875 13.144531 9.941406 C 13.558594 10.105469 13.917969 10.300781 14.222656 10.570312 C 14.527344 10.84375 14.761719 11.164062 14.941406 11.542969 C 15.105469 11.921875 15.195312 12.335938 15.195312 12.785156 C 15.195312 13.09375 15.160156 13.363281 15.085938 13.597656 C 14.996094 13.847656 14.890625 14.082031 14.746094 14.296875 C 14.601562 14.53125 14.4375 14.746094 14.242188 14.945312 L 12.65625 16.441406 C 12.421875 16.691406 12.316406 16.960938 12.316406 17.269531 C 12.316406 17.359375 12.316406 17.449219 12.332031 17.539062 C 12.351562 17.609375 12.351562 17.683594 12.367188 17.753906 L 10.75 17.753906 C 10.621094 17.484375 10.570312 17.214844 10.570312 16.925781 C 10.570312 16.710938 10.605469 16.511719 10.695312 16.3125 C 10.785156 16.117188 10.894531 15.9375 11.019531 15.757812 C 11.144531 15.59375 11.308594 15.433594 11.46875 15.269531 C 11.632812 15.109375 11.8125 14.964844 11.992188 14.800781 C 12.1875 14.621094 12.367188 14.460938 12.53125 14.296875 C 12.691406 14.152344 12.820312 14.011719 12.910156 13.867188 C 13.015625 13.738281 13.105469 13.597656 13.160156 13.433594 C 13.214844 13.289062 13.234375 13.128906 13.234375 12.949219 C 13.234375 12.496094 13.089844 12.136719 12.800781 11.867188 C 12.511719 11.597656 12.171875 11.472656 11.773438 11.472656 C 10.964844 11.472656 10.371094 11.992188 10.027344 13.019531 L 8.445312 12.335938 C 8.679688 11.472656 9.09375 10.824219 9.6875 10.390625 C 10.300781 9.941406 11 9.726562 11.828125 9.726562 Z M 15.507812 3.128906 C 15.507812 2.164062 14.722656 1.378906 13.753906 1.378906 L 10.246094 1.378906 C 9.28125 1.378906 8.496094 2.164062 8.496094 3.128906 L 8.496094 6.636719 C 8.496094 7.605469 9.28125 8.390625 10.246094 8.390625 L 13.753906 8.390625 C 14.722656 8.390625 15.507812 7.605469 15.507812 6.636719 Z M 15.507812 3.128906 "/>
</g>
</svg>
