
<svg xmlns="http://www.w3.org/2000/svg" xmlns:xlink="http://www.w3.org/1999/xlink" width="24px" height="24px" viewBox="0 0 24 24" version="1.1">
<g id="surface1">
<path style=" stroke:none;fill-rule:nonzero;fill:rgb(26.666668%,26.666668%,26.666668%);fill-opacity:1;" d="M 11.125 1.5 C 10.21875 1.496094 9.339844 1.617188 8.519531 1.859375 C 7.269531 2.355469 6.246094 2.808594 7.410156 3.425781 C 9.625 4.582031 11.710938 6.160156 13.515625 8.15625 C 16.386719 11.335938 18.167969 15.144531 18.984375 18.902344 C 19.214844 20.203125 20.339844 19.050781 20.800781 18.574219 C 23.320312 15.953125 23.195312 9.523438 19.339844 5.257812 C 17.078125 2.75 13.980469 1.511719 11.125 1.5 Z M 22.234375 1.507812 C 21.929688 1.480469 21.59375 1.53125 21.25 1.613281 C 20.5 1.828125 19.78125 2.375 19.082031 2.960938 C 19.558594 3.355469 20.023438 3.773438 20.453125 4.25 C 20.621094 4.4375 20.769531 4.628906 20.921875 4.820312 C 21.101562 4.734375 21.296875 4.65625 21.53125 4.601562 C 22.066406 4.480469 22.980469 4.828125 23.40625 4.980469 C 23.96875 4.992188 24.078125 4.140625 23.953125 3.542969 C 23.804688 2.839844 23.34375 2.34375 23.054688 1.871094 C 22.820312 1.644531 22.542969 1.539062 22.234375 1.507812 Z M 6.375 4.535156 C 6.308594 4.582031 6.242188 4.625 6.179688 4.671875 C 1.210938 8.441406 -1.566406 16.769531 0.9375 19.71875 C 3.851562 23.152344 11.6875 23.429688 16.46875 20.421875 C 16.878906 20.164062 17.257812 19.878906 17.617188 19.582031 C 17.566406 19.4375 17.53125 19.296875 17.507812 19.164062 L 17.519531 19.21875 C 16.753906 15.699219 15.078125 12.128906 12.402344 9.160156 C 10.71875 7.300781 8.777344 5.832031 6.71875 4.753906 L 6.710938 4.753906 C 6.601562 4.695312 6.488281 4.605469 6.375 4.535156 Z M 6.375 4.535156 "/>
</g>
</svg>
