
<svg xmlns="http://www.w3.org/2000/svg" xmlns:xlink="http://www.w3.org/1999/xlink" width="24px" height="24px" viewBox="0 0 24 24" version="1.1">
<g id="surface1">
<path style=" stroke:none;fill-rule:evenodd;fill:rgb(26.666668%,26.666668%,26.666668%);fill-opacity:1;" d="M 12 1.5 L 12 5.207031 L 19.5 10.148438 L 19.5 6.441406 Z M 4.125 2.394531 C 3.503906 2.394531 3 2.945312 3 3.628906 L 3 5.207031 L 10.5 10.148438 L 10.5 6.441406 C 8.4375 5.148438 6.742188 3.847656 4.683594 2.558594 C 4.515625 2.449219 4.320312 2.394531 4.125 2.394531 Z M 3 7.675781 L 3 11.382812 L 10.5 16.324219 L 10.5 12.617188 Z M 12 7.675781 L 12 11.382812 L 19.5 16.324219 L 19.5 12.617188 Z M 3 13.851562 L 3 17.558594 L 10.875 22.5 L 10.5 18.792969 Z M 3 13.851562 "/>
<path style=" stroke:none;fill-rule:evenodd;fill:rgb(25.882354%,52.156866%,95.686275%);fill-opacity:1;" d="M 12 13.851562 L 12 17.554688 C 14.0625 18.851562 15.757812 20.15625 17.816406 21.445312 C 17.988281 21.550781 18.179688 21.609375 18.375 21.609375 C 18.996094 21.609375 19.5 21.054688 19.5 20.371094 L 19.5 18.792969 Z M 12 13.851562 "/>
</g>
</svg>
