
<svg xmlns="http://www.w3.org/2000/svg" xmlns:xlink="http://www.w3.org/1999/xlink" width="24px" height="24px" viewBox="0 0 24 24" version="1.1">
<g id="surface1">
<path style=" stroke:none;fill-rule:nonzero;fill:rgb(26.666668%,26.666668%,26.666668%);fill-opacity:1;" d="M 8 1.5 L 14.515625 13.496094 C 15.714844 12.527344 17.210938 12 18.75 12 C 20.410156 12.003906 22.007812 12.617188 23.246094 13.722656 L 16 1.5 Z M 7.269531 2.925781 L 0 15.9375 L 4 22.5 L 11.230469 10.207031 Z M 18.75 13.5 C 15.851562 13.5 13.5 15.851562 13.5 18.75 C 13.5 21.648438 15.851562 24 18.75 24 C 21.648438 24 24 21.648438 24 18.75 C 24 15.851562 21.648438 13.5 18.75 13.5 Z M 18.75 15 C 20.820312 15 22.5 16.679688 22.5 18.75 L 21.25 18.75 C 21.25 17.371094 20.128906 16.25 18.75 16.25 Z M 12.394531 16.507812 L 9 16.511719 L 5.332031 22.5 L 13.144531 22.5 C 12.398438 21.390625 12 20.085938 12 18.75 C 12.003906 17.984375 12.136719 17.226562 12.394531 16.507812 Z M 15 18.75 L 16.25 18.75 C 16.25 20.128906 17.371094 21.25 18.75 21.25 L 18.75 22.5 C 16.679688 22.5 15 20.820312 15 18.75 Z M 15 18.75 "/>
</g>
</svg>
