
<svg xmlns="http://www.w3.org/2000/svg" xmlns:xlink="http://www.w3.org/1999/xlink" width="24px" height="24px" viewBox="0 0 24 24" version="1.1">
<g id="surface1">
<path style=" stroke:none;fill-rule:nonzero;fill:rgb(26.666668%,26.666668%,26.666668%);fill-opacity:1;" d="M 12 3 C 8.988281 3 6.269531 4.800781 5.09375 7.574219 C 2.167969 8.019531 0.00390625 10.539062 0 13.5 C 0.00390625 16.699219 2.515625 19.332031 5.714844 19.484375 L 5.714844 19.5 L 12.050781 19.5 C 12.019531 19.25 12.003906 19 12 18.75 C 12 15.023438 15.023438 12 18.75 12 C 20.550781 12 22.273438 12.71875 23.539062 13.996094 C 23.230469 13.4375 22.78125 12.964844 22.234375 12.628906 C 22.40625 12.1875 22.5 11.722656 22.5 11.25 C 22.496094 9.226562 20.890625 7.570312 18.867188 7.503906 C 17.675781 4.773438 14.980469 3.003906 12 3 Z M 9 7.5 L 15 7.5 L 15 12 L 10.5 12 L 10.5 16.5 L 9 16.5 Z M 10.5 9 L 10.5 10.5 L 13.5 10.5 L 13.5 9 Z M 10.5 9 "/>
<path style=" stroke:none;fill-rule:nonzero;fill:rgb(26.666668%,26.666668%,26.666668%);fill-opacity:1;" d="M 21.375 14.203125 C 18.863281 12.753906 15.652344 13.613281 14.203125 16.125 C 12.753906 18.636719 13.613281 21.847656 16.125 23.296875 C 18.636719 24.746094 21.847656 23.886719 23.296875 21.375 C 24.746094 18.863281 23.886719 15.652344 21.375 14.203125 Z M 18.636719 15.007812 L 18.574219 16.050781 L 18.550781 16.511719 C 17.820312 16.578125 17.167969 16.992188 16.800781 17.625 C 16.558594 18.046875 16.460938 18.535156 16.519531 19.019531 L 15.1875 19.898438 C 14.863281 18.890625 14.976562 17.792969 15.503906 16.875 C 16.152344 15.75 17.339844 15.046875 18.636719 15.007812 Z M 22.042969 16.976562 C 22.664062 18.117188 22.644531 19.5 21.996094 20.625 C 21.46875 21.542969 20.574219 22.191406 19.539062 22.410156 L 19.636719 20.8125 C 20.082031 20.625 20.453125 20.292969 20.699219 19.875 C 21.0625 19.242188 21.097656 18.46875 20.789062 17.804688 L 21.175781 17.550781 Z M 22.042969 16.976562 "/>
</g>
</svg>
