
<svg xmlns="http://www.w3.org/2000/svg" xmlns:xlink="http://www.w3.org/1999/xlink" width="24px" height="24px" viewBox="0 0 24 24" version="1.1">
<g id="surface1">
<path style=" stroke:none;fill-rule:nonzero;fill:rgb(26.666668%,26.666668%,26.666668%);fill-opacity:1;" d="M 15.65625 1.5 C 15.546875 1.492188 15.371094 1.570312 15.050781 1.71875 C 14.667969 1.898438 13.800781 2.039062 13.121094 2.039062 C 10.71875 2.089844 8.789062 2.964844 7.230469 4.613281 C 5.113281 6.863281 4.449219 9.691406 5.414062 12.324219 C 5.636719 12.929688 5.773438 13.546875 5.714844 13.691406 C 5.65625 13.839844 5.25 14.25 4.8125 14.601562 C 3.863281 15.367188 3.207031 16.605469 3.042969 17.933594 C 2.941406 18.730469 3.007812 19.109375 3.425781 20.058594 C 4.328125 22.097656 6.371094 22.972656 8.550781 22.25 C 9.808594 21.832031 11.074219 20.34375 12.082031 18.089844 C 12.957031 16.144531 12.992188 16.097656 13.929688 15.746094 C 15.507812 15.15625 16.5 14.503906 17.488281 13.410156 C 19.242188 11.46875 19.894531 8.957031 19.265625 6.554688 C 18.984375 5.472656 18.746094 5.105469 17.464844 3.730469 C 16.65625 2.859375 15.9375 1.976562 15.871094 1.769531 C 15.8125 1.597656 15.765625 1.507812 15.65625 1.5 Z M 15.261719 4.316406 C 15.566406 4.28125 15.957031 4.554688 16.503906 5.128906 C 18.679688 7.390625 18.457031 10.8125 16.007812 12.777344 C 14.964844 13.617188 14.71875 13.671875 13.996094 13.21875 C 13.578125 12.957031 13.496094 12.71875 13.5 11.761719 C 13.503906 10.300781 14.074219 6.714844 14.515625 5.351562 C 14.730469 4.691406 14.953125 4.351562 15.261719 4.316406 Z M 12.042969 4.5 C 12.773438 4.503906 13.335938 4.722656 13.492188 5.160156 C 13.542969 5.304688 13.332031 5.980469 13.015625 6.664062 C 12.210938 8.421875 11.957031 9.390625 11.46875 12.488281 C 10.867188 16.332031 10.210938 17.992188 8.890625 18.988281 C 8.058594 19.621094 7.035156 19.671875 6.488281 19.117188 C 6.015625 18.636719 5.882812 18.035156 6.101562 17.40625 C 6.277344 16.90625 6.945312 16.824219 8.210938 16.636719 C 9.09375 16.507812 9.714844 15.898438 9.714844 15.097656 C 9.714844 14.59375 9.511719 14.308594 8.828125 13.582031 C 7.765625 12.460938 6.800781 11.386719 6.796875 10.027344 C 6.789062 7.902344 7.832031 6.097656 9.609375 5.148438 C 10.421875 4.714844 11.3125 4.496094 12.042969 4.5 Z M 12.042969 4.5 "/>
</g>
</svg>
