
<svg xmlns="http://www.w3.org/2000/svg" xmlns:xlink="http://www.w3.org/1999/xlink" width="24px" height="24px" viewBox="0 0 24 24" version="1.1">
<g id="surface1">
<path style=" stroke:none;fill-rule:nonzero;fill:rgb(26.666668%,26.666668%,26.666668%);fill-opacity:1;" d="M 11.25 0 C 9.179688 0 7.5 1.679688 7.5 3.75 C 7.5 5.820312 9.179688 7.5 11.25 7.5 C 13.320312 7.5 15 5.820312 15 3.75 C 15 1.679688 13.320312 0 11.25 0 Z M 2.109375 11.835938 C 1.773438 12.03125 1.53125 12.347656 1.429688 12.71875 C 1.328125 13.09375 1.382812 13.492188 1.574219 13.824219 L 1.621094 13.902344 C 1.8125 14.238281 2.128906 14.480469 2.503906 14.582031 C 2.878906 14.679688 3.273438 14.628906 3.609375 14.4375 L 7.5 12.335938 L 7.5 21.96875 C 7.5 22.355469 7.652344 22.726562 7.925781 22.996094 C 8.199219 23.269531 8.570312 23.425781 8.953125 23.425781 L 9.046875 23.425781 C 9.847656 23.425781 10.5 22.773438 10.5 21.96875 L 10.5 19.34375 L 12 19.34375 L 12 21.96875 C 12 22.773438 12.652344 23.425781 13.453125 23.425781 L 13.546875 23.425781 C 13.929688 23.425781 14.300781 23.269531 14.574219 22.996094 C 14.847656 22.726562 15 22.355469 15 21.96875 L 15 12.335938 L 18.890625 14.4375 C 19.226562 14.628906 19.621094 14.679688 19.996094 14.582031 C 20.371094 14.480469 20.6875 14.238281 20.878906 13.902344 C 20.894531 13.875 20.910156 13.851562 20.925781 13.824219 C 21.117188 13.492188 21.171875 13.09375 21.070312 12.71875 C 20.96875 12.347656 20.726562 12.03125 20.390625 11.835938 C 19.515625 11.332031 15.402344 9 15.402344 9 L 7.132812 9 C 7.132812 9 2.992188 11.328125 2.109375 11.835938 Z M 2.109375 11.835938 "/>
</g>
</svg>
