
<svg xmlns="http://www.w3.org/2000/svg" xmlns:xlink="http://www.w3.org/1999/xlink" width="24px" height="24px" viewBox="0 0 24 24" version="1.1">
<defs>
<filter id="alpha" filterUnits="objectBoundingBox" x="0%" y="0%" width="100%" height="100%">
  <feColorMatrix type="matrix" in="SourceGraphic" values="0 0 0 0 1 0 0 0 0 1 0 0 0 0 1 0 0 0 1 0"/>
</filter>
<mask id="mask0">
  <g filter="url(#alpha)">
<rect x="0" y="0" width="24" height="24" style="fill:rgb(0%,0%,0%);fill-opacity:0.3;stroke:none;"/>
  </g>
</mask>
<clipPath id="clip1">
  <rect x="0" y="0" width="24" height="24"/>
</clipPath>
<g id="surface5" clip-path="url(#clip1)">
<path style=" stroke:none;fill-rule:nonzero;fill:rgb(26.666668%,26.666668%,26.666668%);fill-opacity:1;" d="M 2.191406 7.203125 L 21.808594 7.203125 C 22.285156 7.203125 22.667969 7.585938 22.667969 8.0625 L 22.667969 20.292969 C 22.667969 20.765625 22.285156 21.148438 21.808594 21.148438 L 2.191406 21.148438 C 1.714844 21.148438 1.332031 20.765625 1.332031 20.292969 L 1.332031 8.0625 C 1.332031 7.585938 1.714844 7.203125 2.191406 7.203125 Z M 2.191406 7.203125 "/>
</g>
</defs>
<g id="surface1">
<use xlink:href="#surface5" mask="url(#mask0)"/>
<path style=" stroke:none;fill-rule:nonzero;fill:rgb(26.666668%,26.666668%,26.666668%);fill-opacity:1;" d="M 6.585938 3.132812 C 7.222656 3.132812 7.527344 3.464844 8 4.09375 C 8.476562 4.71875 8.691406 5.117188 9.5625 5.152344 L 22.585938 5.152344 C 23.371094 5.152344 24 5.78125 24 6.5625 L 24 21.070312 C 24 21.851562 23.371094 22.484375 22.585938 22.484375 L 1.414062 22.484375 C 0.628906 22.484375 0 21.851562 0 21.070312 L 0 4.546875 C 0 3.765625 0.628906 3.132812 1.414062 3.132812 Z M 2.191406 4.46875 C 1.714844 4.46875 1.332031 4.847656 1.332031 5.324219 L 1.332031 20.292969 C 1.332031 20.765625 1.714844 21.148438 2.191406 21.148438 L 21.808594 21.148438 C 22.285156 21.148438 22.667969 20.765625 22.667969 20.292969 L 22.667969 7.34375 C 22.667969 6.867188 22.285156 6.484375 21.808594 6.484375 L 9.171875 6.484375 C 8.628906 6.484375 7.667969 5.832031 7.324219 5.488281 C 6.980469 5.144531 6.699219 4.46875 5.808594 4.46875 Z M 11.96875 7.980469 C 11.695312 7.996094 11.457031 8.175781 11.371094 8.4375 L 10.171875 12.019531 L 6.394531 12.046875 C 6.027344 12.046875 5.726562 12.347656 5.726562 12.714844 C 5.726562 12.925781 5.828125 13.125 6 13.25 L 9.035156 15.5 L 7.894531 19.105469 C 7.875 19.171875 7.863281 19.238281 7.863281 19.308594 C 7.863281 19.675781 8.164062 19.976562 8.53125 19.976562 C 8.667969 19.976562 8.804688 19.933594 8.917969 19.851562 L 11.996094 17.660156 L 15.070312 19.855469 C 15.183594 19.9375 15.320312 19.980469 15.460938 19.980469 C 15.824219 19.980469 16.125 19.679688 16.125 19.316406 C 16.125 19.246094 16.113281 19.179688 16.09375 19.117188 L 14.964844 15.511719 L 18.003906 13.261719 C 18.171875 13.136719 18.273438 12.9375 18.273438 12.726562 C 18.273438 12.367188 17.976562 12.066406 17.613281 12.0625 L 13.835938 12.023438 L 12.640625 8.4375 C 12.550781 8.175781 12.3125 7.992188 12.039062 7.980469 Z M 11.96875 7.980469 "/>
</g>
</svg>
