
<svg xmlns="http://www.w3.org/2000/svg" xmlns:xlink="http://www.w3.org/1999/xlink" width="24px" height="24px" viewBox="0 0 24 24" version="1.1">
<g id="surface1">
<path style=" stroke:none;fill-rule:nonzero;fill:rgb(26.666668%,26.666668%,26.666668%);fill-opacity:1;" d="M 0 3 L 0 21 L 3 21 L 3 3 Z M 6 3 L 6 21 L 12.378906 20.949219 C 16.773438 20.902344 17.191406 20.84375 19.046875 19.9375 C 23.101562 17.960938 25.019531 13.179688 23.460938 8.921875 C 22.429688 6.109375 20.089844 4.027344 17.105469 3.269531 C 16.167969 3.03125 15.574219 3 11.933594 3 Z M 15.394531 5.878906 C 16.589844 5.933594 17.914062 6.433594 19.242188 7.757812 C 20.8125 9.332031 21.210938 10.910156 21.097656 12.265625 L 22.421875 10.941406 L 23.484375 12 L 21.363281 14.121094 L 20.300781 15.179688 L 17.121094 12 L 18.179688 10.941406 L 19.570312 12.332031 C 19.699219 11.277344 19.421875 10.058594 18.179688 8.816406 C 15 5.636719 11.816406 8.816406 11.816406 8.816406 L 10.757812 7.757812 C 10.757812 7.757812 12.761719 5.75 15.394531 5.875 Z M 9.695312 8.816406 L 12.878906 12 L 11.816406 13.058594 L 10.425781 11.667969 C 10.296875 12.722656 10.578125 13.941406 11.816406 15.179688 C 15 18.363281 18.179688 15.179688 18.179688 15.179688 L 19.242188 16.242188 C 19.242188 16.242188 15 20.484375 10.757812 16.242188 C 9.183594 14.671875 8.789062 13.089844 8.898438 11.734375 L 7.574219 13.058594 L 6.515625 12 L 8.636719 9.878906 Z M 9.695312 8.816406 "/>
</g>
</svg>
