
<svg xmlns="http://www.w3.org/2000/svg" xmlns:xlink="http://www.w3.org/1999/xlink" width="24px" height="24px" viewBox="0 0 24 24" version="1.1">
<g id="surface1">
<path style=" stroke:none;fill-rule:nonzero;fill:rgb(26.666668%,26.666668%,26.666668%);fill-opacity:1;" d="M 1.800781 1.5 C 0.800781 1.5 0 2.300781 0 3.300781 L 0 22.199219 C 0 23.199219 0.800781 24 1.800781 24 L 20.699219 24 C 21.699219 24 22.5 23.199219 22.5 22.199219 L 22.5 3.300781 C 22.5 2.300781 21.683594 1.667969 20.699219 1.5 Z M 3 4.5 L 19.5 4.5 L 19.5 21 L 3 21 Z M 7.425781 5.960938 C 7.132812 5.960938 6.730469 6.066406 5.945312 6.347656 C 5.867188 6.371094 5.867188 6.371094 5.804688 6.398438 L 5.851562 6.597656 C 6.347656 6.464844 6.4375 6.453125 6.5625 6.453125 C 6.878906 6.453125 6.957031 6.570312 7.132812 7.367188 L 7.5 9 L 6.460938 10.554688 C 6.195312 10.953125 5.957031 11.191406 5.816406 11.191406 C 5.742188 11.191406 5.613281 11.152344 5.488281 11.070312 C 5.324219 10.980469 5.195312 10.941406 5.082031 10.941406 C 4.828125 10.941406 4.652344 11.136719 4.652344 11.402344 C 4.652344 11.746094 4.894531 11.960938 5.285156 11.960938 C 5.675781 11.960938 5.828125 11.84375 6.460938 11.046875 C 6.804688 10.605469 7.082031 10.207031 7.601562 9.476562 L 7.980469 11.070312 C 8.144531 11.761719 8.3125 11.960938 8.714844 11.960938 C 9.195312 11.960938 9.527344 11.640625 10.257812 10.449219 L 10.082031 10.34375 C 9.984375 10.460938 9.917969 10.539062 9.800781 10.699219 C 9.511719 11.097656 9.363281 11.230469 9.210938 11.230469 C 9.035156 11.230469 8.917969 11.058594 8.828125 10.6875 C 8.792969 10.542969 8.789062 10.515625 8.777344 10.472656 C 8.460938 9.121094 8.324219 8.507812 8.324219 8.308594 C 8.894531 7.273438 9.335938 6.703125 9.5625 6.703125 C 9.636719 6.703125 9.753906 6.742188 9.867188 6.808594 C 10.019531 6.902344 10.109375 6.929688 10.222656 6.929688 C 10.476562 6.929688 10.652344 6.730469 10.652344 6.453125 C 10.652344 6.160156 10.4375 5.960938 10.132812 5.960938 C 9.578125 5.960938 9.105469 6.4375 8.21875 7.859375 L 8.082031 7.128906 C 7.90625 6.226562 7.765625 5.960938 7.421875 5.960938 Z M 12 10.5 L 12 12 L 18 12 L 18 10.5 Z M 7.5 13.5 C 6.609375 13.5 5.882812 13.75 5.328125 14.25 C 4.777344 14.75 4.5 15.347656 4.5 16.054688 C 4.5 16.691406 4.699219 17.222656 5.097656 17.640625 C 5.496094 18.058594 5.933594 18.3125 6.417969 18.402344 L 6.425781 18.699219 L 5.375 18.699219 C 5.121094 18.699219 4.9375 18.65625 4.824219 18.574219 C 4.707031 18.492188 4.644531 18.351562 4.632812 18.148438 L 4.464844 18.148438 L 4.464844 19.5 L 6.820312 19.5 L 6.734375 18.191406 C 6.28125 18.035156 5.96875 17.761719 5.808594 17.371094 C 5.648438 16.980469 5.570312 16.546875 5.570312 16.070312 C 5.570312 15.410156 5.746094 14.875 6.105469 14.453125 C 6.464844 14.027344 6.921875 13.816406 7.472656 13.816406 C 7.988281 13.816406 8.4375 14.011719 8.820312 14.410156 C 9.203125 14.808594 9.398438 15.382812 9.398438 16.128906 C 9.398438 17.273438 9.007812 17.960938 8.222656 18.191406 L 8.105469 19.5 L 10.464844 19.5 L 10.464844 18.144531 L 10.296875 18.144531 C 10.289062 18.304688 10.238281 18.433594 10.144531 18.539062 C 10.054688 18.644531 9.867188 18.699219 9.578125 18.699219 L 8.503906 18.699219 L 8.546875 18.402344 C 9.128906 18.242188 9.589844 17.957031 9.933594 17.539062 C 10.273438 17.121094 10.449219 16.613281 10.449219 16.015625 C 10.449219 15.28125 10.171875 14.679688 9.621094 14.207031 C 9.070312 13.734375 8.363281 13.5 7.5 13.5 Z M 12 13.5 L 12 15 L 18 15 L 18 13.5 Z M 12 13.5 "/>
</g>
</svg>
