
<svg xmlns="http://www.w3.org/2000/svg" xmlns:xlink="http://www.w3.org/1999/xlink" width="24px" height="24px" viewBox="0 0 24 24" version="1.1">
<defs>
<filter id="alpha" filterUnits="objectBoundingBox" x="0%" y="0%" width="100%" height="100%">
  <feColorMatrix type="matrix" in="SourceGraphic" values="0 0 0 0 1 0 0 0 0 1 0 0 0 0 1 0 0 0 1 0"/>
</filter>
<mask id="mask0">
  <g filter="url(#alpha)">
<rect x="0" y="0" width="24" height="24" style="fill:rgb(0%,0%,0%);fill-opacity:0.3;stroke:none;"/>
  </g>
</mask>
<clipPath id="clip1">
  <rect x="0" y="0" width="24" height="24"/>
</clipPath>
<g id="surface5" clip-path="url(#clip1)">
<path style=" stroke:none;fill-rule:nonzero;fill:rgb(26.666668%,26.666668%,26.666668%);fill-opacity:1;" d="M 9 6 C 8.167969 6 7.5 6.667969 7.5 7.5 L 7.5 7.761719 C 7.019531 7.589844 6.511719 7.5 6 7.5 C 3.515625 7.5 1.5 9.515625 1.5 12 C 1.5 14.484375 3.515625 16.5 6 16.5 C 6.511719 16.5 7.019531 16.410156 7.5 16.234375 L 7.5 21 C 7.5 21.832031 8.167969 22.5 9 22.5 C 9.832031 22.5 10.5 21.832031 10.5 21 L 10.5 7.5 C 10.5 6.667969 9.832031 6 9 6 Z M 4.5 10.5 L 7.5 10.5 L 7.5 13.5 L 4.5 13.5 Z M 4.5 10.5 "/>
</g>
</defs>
<g id="surface1">
<path style=" stroke:none;fill-rule:nonzero;fill:rgb(26.666668%,26.666668%,26.666668%);fill-opacity:1;" d="M 13.5 1.5 C 12.667969 1.5 12 2.167969 12 3 L 12 16.5 C 12 17.332031 12.667969 18 13.5 18 C 14.332031 18 15 17.332031 15 16.5 L 15 16.238281 C 15.480469 16.410156 15.988281 16.5 16.5 16.5 C 18.984375 16.5 21 14.484375 21 12 C 21 9.515625 18.984375 7.5 16.5 7.5 C 15.988281 7.503906 15.480469 7.589844 15 7.765625 L 15 3 C 15 2.167969 14.332031 1.5 13.5 1.5 Z M 15 10.5 L 18 10.5 L 18 13.5 L 15 13.5 Z M 15 10.5 "/>
<use xlink:href="#surface5" mask="url(#mask0)"/>
</g>
</svg>
