
<svg xmlns="http://www.w3.org/2000/svg" xmlns:xlink="http://www.w3.org/1999/xlink" width="24px" height="24px" viewBox="0 0 24 24" version="1.1">
<g id="surface1">
<path style=" stroke:none;fill-rule:nonzero;fill:rgb(26.666668%,26.666668%,26.666668%);fill-opacity:1;" d="M 11.25 1.5 C 7.9375 1.5 6 4.1875 6 7.5 L 6 9 L 4.5 9 C 3.671875 9 3 9.671875 3 10.5 L 3 21 C 3 21.828125 3.671875 22.5 4.5 22.5 L 18 22.5 C 18.828125 22.5 19.5 21.828125 19.5 21 L 19.5 10.5 C 19.5 9.671875 18.828125 9 18 9 L 16.5 9 L 16.5 7.5 C 16.5 4.1875 14.5625 1.5 11.25 1.5 Z M 11.25 4.554688 C 12.492188 4.554688 13.5 5.5625 13.5 6.804688 C 13.5 7.335938 13.382812 7.753906 13.234375 8.050781 C 13.082031 8.347656 12.753906 8.75 12.375 9.054688 C 12.003906 9.355469 11.25 9.734375 11.25 9.730469 C 11.25 9.730469 11.589844 9.320312 11.730469 9 C 11.570312 9.035156 11.414062 9.054688 11.25 9.054688 C 10.007812 9.058594 9 8.046875 9 6.804688 C 9 5.5625 10.007812 4.554688 11.25 4.554688 Z M 11.25 10.5 C 14.148438 10.5 16.5 12.851562 16.5 15.75 C 16.5 18.648438 14.148438 21 11.25 21 C 8.351562 21 6 18.648438 6 15.75 C 6 12.851562 8.351562 10.5 11.25 10.5 Z M 10.5 12.074219 C 8.753906 12.433594 7.5 13.96875 7.5 15.75 C 7.503906 17.53125 8.757812 19.0625 10.5 19.417969 Z M 12 12.082031 L 12 19.425781 C 13.746094 19.066406 15 17.53125 15 15.75 C 14.996094 13.96875 13.742188 12.4375 12 12.082031 Z M 12 12.082031 "/>
</g>
</svg>
