
<svg xmlns="http://www.w3.org/2000/svg" xmlns:xlink="http://www.w3.org/1999/xlink" width="24px" height="24px" viewBox="0 0 24 24" version="1.1">
<g id="surface1">
<path style=" stroke:none;fill-rule:nonzero;fill:rgb(26.666668%,26.666668%,26.666668%);fill-opacity:1;" d="M 9 3 C 5.6875 3 3 5.6875 3 9 C 3.003906 10.074219 3.292969 11.128906 3.84375 12.050781 C 1.636719 12.378906 0.00390625 14.269531 0 16.5 C 0 18.984375 2.015625 21 4.5 21 L 19.5 21 C 21.984375 21 24 18.984375 24 16.5 C 23.996094 15.09375 23.339844 13.773438 22.222656 12.921875 C 22.40625 12.382812 22.5 11.820312 22.5 11.25 C 22.5 8.351562 20.148438 6 17.25 6 C 16.300781 6.003906 15.371094 6.261719 14.558594 6.75 C 13.640625 4.484375 11.441406 3 9 3 Z M 7.5 4.5 C 8.328125 4.5 9 5.171875 9 6 C 9 6.828125 8.328125 7.5 7.5 7.5 C 6.671875 7.5 6 6.828125 6 6 C 6 5.171875 6.671875 4.5 7.5 4.5 Z M 12 7.5 C 15.3125 7.5 18 10.1875 18 13.5 C 18 16.8125 15.3125 19.5 12 19.5 C 8.6875 19.5 6 16.8125 6 13.5 C 6 10.1875 8.6875 7.5 12 7.5 Z M 12 10.5 C 10.34375 10.5 9 11.84375 9 13.5 C 9 15.15625 10.34375 16.5 12 16.5 C 13.65625 16.5 15 15.15625 15 13.5 C 15 11.84375 13.65625 10.5 12 10.5 Z M 12 10.5 "/>
</g>
</svg>
