
<svg xmlns="http://www.w3.org/2000/svg" xmlns:xlink="http://www.w3.org/1999/xlink" width="24px" height="24px" viewBox="0 0 24 24" version="1.1">
<g id="surface1">
<path style=" stroke:none;fill-rule:nonzero;fill:rgb(26.666668%,26.666668%,26.666668%);fill-opacity:1;" d="M 12 1.5 C 6.199219 1.5 1.5 6.199219 1.5 12 C 1.5 17.800781 6.199219 22.5 12 22.5 C 17.800781 22.5 22.5 17.800781 22.5 12 C 22.5 6.199219 17.800781 1.5 12 1.5 Z M 12 4.5 C 15.59375 4.5 18.683594 7.054688 19.363281 10.585938 C 20.332031 10.859375 21 11.742188 21 12.75 C 21 13.945312 20.0625 14.933594 18.867188 14.996094 C 18.113281 16.730469 16.726562 18.113281 14.996094 18.871094 C 14.929688 20.066406 13.945312 21 12.75 21 C 11.742188 21 10.859375 20.328125 10.585938 19.359375 C 7.054688 18.679688 4.503906 15.59375 4.5 12 C 4.5 11.957031 4.5 11.914062 4.503906 11.871094 C 3.601562 11.554688 3 10.703125 3 9.75 C 3 8.507812 4.007812 7.5 5.25 7.5 C 5.480469 7.5 5.710938 7.539062 5.933594 7.609375 C 7.339844 5.660156 9.597656 4.503906 12 4.5 Z M 12 6 C 10.066406 6.003906 8.253906 6.9375 7.128906 8.511719 C 7.371094 8.878906 7.5 9.308594 7.5 9.75 C 7.5 9.78125 7.496094 9.8125 7.496094 9.839844 L 11.058594 11.269531 C 11.484375 10.78125 12.101562 10.5 12.75 10.5 C 13.703125 10.5 14.550781 11.101562 14.867188 12 L 16.632812 12 C 16.839844 11.414062 17.28125 10.941406 17.847656 10.691406 C 17.238281 7.953125 14.808594 6.003906 12 6 Z M 6.9375 11.230469 C 6.6875 11.519531 6.363281 11.738281 6.003906 11.863281 C 6.003906 11.910156 6 11.953125 6 12 C 6.003906 14.808594 7.949219 17.238281 10.691406 17.851562 C 10.941406 17.28125 11.414062 16.839844 12 16.632812 L 12 14.867188 C 11.101562 14.550781 10.5 13.703125 10.5 12.75 C 10.5 12.71875 10.503906 12.6875 10.503906 12.660156 Z M 14.867188 13.5 C 14.640625 14.140625 14.140625 14.640625 13.5 14.867188 L 13.5 16.632812 C 13.921875 16.78125 14.292969 17.058594 14.558594 17.417969 C 15.8125 16.828125 16.824219 15.816406 17.417969 14.558594 C 17.054688 14.292969 16.78125 13.925781 16.632812 13.5 Z M 14.867188 13.5 "/>
</g>
</svg>
