
<svg xmlns="http://www.w3.org/2000/svg" xmlns:xlink="http://www.w3.org/1999/xlink" width="24px" height="24px" viewBox="0 0 24 24" version="1.1">
<g id="surface1">
<path style=" stroke:none;fill-rule:nonzero;fill:rgb(26.666668%,26.666668%,26.666668%);fill-opacity:1;" d="M 6.75 21.09375 C 11.773438 23.992188 18.195312 22.273438 21.09375 17.25 C 23.992188 12.226562 22.273438 5.804688 17.25 2.90625 C 12.226562 0.0078125 5.804688 1.726562 2.90625 6.75 C 0.0078125 11.773438 1.726562 18.195312 6.75 21.09375 Z M 8.25 18.496094 C 5.136719 16.695312 3.738281 12.941406 4.917969 9.542969 C 4.214844 8.824219 4.078125 7.722656 4.582031 6.851562 C 5.179688 5.816406 6.484375 5.429688 7.550781 5.972656 C 9.070312 4.847656 10.960938 4.339844 12.84375 4.550781 C 13.496094 3.550781 14.816406 3.234375 15.851562 3.832031 C 16.722656 4.335938 17.152344 5.359375 16.90625 6.335938 C 19.621094 8.6875 20.289062 12.636719 18.496094 15.75 C 18.472656 15.785156 18.449219 15.824219 18.429688 15.859375 C 19.050781 16.585938 19.144531 17.621094 18.667969 18.449219 C 18.046875 19.523438 16.671875 19.894531 15.59375 19.273438 C 15.394531 19.15625 15.214844 19.007812 15.058594 18.835938 C 12.867188 19.820312 10.332031 19.695312 8.25 18.496094 Z M 9 17.195312 C 10.675781 18.160156 12.714844 18.257812 14.476562 17.457031 C 14.449219 17.019531 14.550781 16.582031 14.773438 16.199219 C 14.789062 16.171875 14.804688 16.148438 14.824219 16.121094 L 12.449219 13.105469 C 11.835938 13.3125 11.160156 13.246094 10.601562 12.925781 C 9.777344 12.445312 9.34375 11.503906 9.515625 10.566406 L 7.988281 9.683594 C 7.515625 10.085938 6.898438 10.277344 6.28125 10.207031 C 5.441406 12.886719 6.570312 15.789062 9 17.195312 Z M 16 15.195312 C 16.363281 15.074219 16.75 15.046875 17.125 15.113281 C 17.148438 15.074219 17.171875 15.039062 17.195312 15 C 18.597656 12.566406 18.125 9.488281 16.058594 7.589844 C 15.558594 7.957031 14.925781 8.101562 14.316406 7.988281 L 13.433594 9.515625 C 14.054688 10.238281 14.148438 11.273438 13.675781 12.101562 C 13.65625 12.125 13.640625 12.152344 13.625 12.175781 Z M 10.265625 9.265625 C 10.78125 8.828125 11.46875 8.644531 12.136719 8.765625 L 13.015625 7.238281 C 12.726562 6.894531 12.542969 6.472656 12.496094 6.027344 C 11.109375 5.914062 9.730469 6.285156 8.589844 7.074219 C 8.769531 7.484375 8.820312 7.941406 8.738281 8.386719 Z M 10.265625 9.265625 "/>
</g>
</svg>
