
<svg xmlns="http://www.w3.org/2000/svg" xmlns:xlink="http://www.w3.org/1999/xlink" width="24px" height="24px" viewBox="0 0 24 24" version="1.1">
<defs>
<filter id="alpha" filterUnits="objectBoundingBox" x="0%" y="0%" width="100%" height="100%">
  <feColorMatrix type="matrix" in="SourceGraphic" values="0 0 0 0 1 0 0 0 0 1 0 0 0 0 1 0 0 0 1 0"/>
</filter>
<mask id="mask0">
  <g filter="url(#alpha)">
<rect x="0" y="0" width="24" height="24" style="fill:rgb(0%,0%,0%);fill-opacity:0.3;stroke:none;"/>
  </g>
</mask>
<clipPath id="clip1">
  <rect x="0" y="0" width="24" height="24"/>
</clipPath>
<g id="surface5" clip-path="url(#clip1)">
<path style=" stroke:none;fill-rule:nonzero;fill:rgb(26.666668%,26.666668%,26.666668%);fill-opacity:1;" d="M 6.75 1.5 C 3.851562 1.5 1.5 3.851562 1.5 6.75 C 1.503906 8.183594 2.089844 9.554688 3.128906 10.542969 C 3.046875 11.023438 3.003906 11.511719 3 12 C 3 16.96875 7.03125 21 12 21 C 12.488281 21 12.976562 20.957031 13.457031 20.878906 C 14.445312 21.914062 15.816406 22.5 17.25 22.5 C 20.148438 22.5 22.5 20.148438 22.5 17.25 C 22.496094 15.816406 21.910156 14.445312 20.871094 13.457031 C 20.953125 12.976562 20.996094 12.488281 21 12 C 21 7.03125 16.96875 3 12 3 C 11.511719 3 11.023438 3.042969 10.542969 3.121094 C 9.554688 2.085938 8.183594 1.5 6.75 1.5 Z M 8.816406 6.699219 L 12 9.878906 L 15.183594 6.699219 L 17.300781 8.816406 L 14.121094 12 L 17.300781 15.183594 L 15.183594 17.300781 L 12 14.121094 L 8.816406 17.300781 L 6.699219 15.183594 L 9.878906 12 L 6.699219 8.816406 Z M 8.816406 6.699219 "/>
</g>
</defs>
<g id="surface1">
<use xlink:href="#surface5" mask="url(#mask0)"/>
<path style=" stroke:none;fill-rule:nonzero;fill:rgb(25.882354%,52.156866%,95.686275%);fill-opacity:1;" d="M 24 3.75 C 24 4.992188 22.992188 6 21.75 6 C 20.507812 6 19.5 4.992188 19.5 3.75 C 19.5 2.507812 20.507812 1.5 21.75 1.5 C 22.992188 1.5 24 2.507812 24 3.75 Z M 24 3.75 "/>
</g>
</svg>
