
<svg xmlns="http://www.w3.org/2000/svg" xmlns:xlink="http://www.w3.org/1999/xlink" width="24px" height="24px" viewBox="0 0 24 24" version="1.1">
<g id="surface1">
<path style=" stroke:none;fill-rule:nonzero;fill:rgb(26.666668%,26.666668%,26.666668%);fill-opacity:1;" d="M 8.25 0 C 7.007812 0 6 1.007812 6 2.25 C 6 3.492188 7.007812 4.5 8.25 4.5 L 10.5 4.5 L 10.5 2.25 C 10.5 1.007812 9.492188 0 8.25 0 Z M 14.25 0 C 13.007812 0 12 1.007812 12 2.25 L 12 8.25 C 12 9.492188 13.007812 10.5 14.25 10.5 C 15.492188 10.5 16.5 9.492188 16.5 8.25 L 16.5 2.25 C 16.5 1.007812 15.492188 0 14.25 0 Z M 2.25 6 C 1.007812 6 0 7.007812 0 8.25 C 0 9.492188 1.007812 10.5 2.25 10.5 L 8.25 10.5 C 9.492188 10.5 10.5 9.492188 10.5 8.25 C 10.5 7.007812 9.492188 6 8.25 6 Z M 20.25 6 C 19.007812 6 18 7.007812 18 8.25 L 18 10.5 L 20.25 10.5 C 21.492188 10.5 22.5 9.492188 22.5 8.25 C 22.5 7.007812 21.492188 6 20.25 6 Z M 2.25 12 C 1.007812 12 0 13.007812 0 14.25 C 0 15.492188 1.007812 16.5 2.25 16.5 C 3.492188 16.5 4.5 15.492188 4.5 14.25 L 4.5 12 Z M 8.25 12 C 7.007812 12 6 13.007812 6 14.25 L 6 20.25 C 6 21.492188 7.007812 22.5 8.25 22.5 C 9.492188 22.5 10.5 21.492188 10.5 20.25 L 10.5 14.25 C 10.5 13.007812 9.492188 12 8.25 12 Z M 14.25 12 C 13.007812 12 12 13.007812 12 14.25 C 12 15.492188 13.007812 16.5 14.25 16.5 L 20.25 16.5 C 21.492188 16.5 22.5 15.492188 22.5 14.25 C 22.5 13.007812 21.492188 12 20.25 12 Z M 12 18 L 12 20.25 C 12 21.492188 13.007812 22.5 14.25 22.5 C 15.492188 22.5 16.5 21.492188 16.5 20.25 C 16.5 19.007812 15.492188 18 14.25 18 Z M 12 18 "/>
</g>
</svg>
