
<svg xmlns="http://www.w3.org/2000/svg" xmlns:xlink="http://www.w3.org/1999/xlink" width="24px" height="24px" viewBox="0 0 24 24" version="1.1">
<g id="surface1">
<path style=" stroke:none;fill-rule:nonzero;fill:rgb(26.666668%,26.666668%,26.666668%);fill-opacity:1;" d="M 12 0 C 18.621094 0 24 5.378906 24 12 C 24 18.621094 18.621094 24 12 24 C 5.378906 24 0 18.621094 0 12 C 0 5.378906 5.378906 0 12 0 Z M 12 1.226562 C 6.054688 1.226562 1.226562 6.054688 1.226562 12 C 1.226562 17.945312 6.054688 22.773438 12 22.773438 C 17.945312 22.773438 22.773438 17.945312 22.773438 12 C 22.773438 6.054688 17.945312 1.226562 12 1.226562 Z M 7.5 6 L 10.5 6 L 10.5 18 L 7.5 18 Z M 13.5 6 L 16.5 6 L 16.5 18 L 13.5 18 Z M 13.5 6 "/>
</g>
</svg>
