
<svg xmlns="http://www.w3.org/2000/svg" xmlns:xlink="http://www.w3.org/1999/xlink" width="24px" height="24px" viewBox="0 0 24 24" version="1.1">
<g id="surface1">
<path style=" stroke:none;fill-rule:nonzero;fill:rgb(25.882354%,52.156866%,95.686275%);fill-opacity:1;" d="M 12.75 1.5 C 12.746094 1.5 12.742188 1.5 12.738281 1.5 C 12.328125 1.5 11.988281 1.839844 11.988281 2.25 C 11.988281 2.660156 12.328125 3 12.738281 3 L 12.75 3 C 16.671875 3 18.601562 4.519531 19.707031 6.300781 C 20.808594 8.082031 21 10.210938 21 11.25 L 21 11.261719 C 21 11.671875 21.339844 12.011719 21.75 12.011719 C 22.160156 12.011719 22.5 11.671875 22.5 11.261719 C 22.5 11.257812 22.5 11.253906 22.5 11.25 C 22.5 10.039062 22.316406 7.667969 20.980469 5.511719 C 19.648438 3.355469 17.078125 1.5 12.75 1.5 Z M 14.25 4.5 C 14.246094 4.5 14.242188 4.5 14.238281 4.5 C 13.828125 4.5 13.488281 4.839844 13.488281 5.25 C 13.488281 5.660156 13.828125 6 14.238281 6 L 14.25 6 C 15.125 6 16.085938 6.460938 16.8125 7.1875 C 17.539062 7.914062 18 8.875 18 9.75 L 18 9.761719 C 18 10.171875 18.339844 10.511719 18.75 10.511719 C 19.160156 10.511719 19.5 10.171875 19.5 9.761719 C 19.5 9.757812 19.5 9.753906 19.5 9.75 C 19.5 8.375 18.835938 7.085938 17.875 6.125 C 16.914062 5.164062 15.625 4.5 14.25 4.5 Z M 14.25 7.414062 C 14.246094 7.414062 14.242188 7.414062 14.238281 7.414062 C 13.828125 7.414062 13.488281 7.753906 13.488281 8.164062 C 13.488281 8.578125 13.828125 8.914062 14.238281 8.914062 L 14.25 8.914062 C 14.347656 8.914062 14.554688 9 14.722656 9.179688 C 14.890625 9.367188 14.984375 9.621094 14.984375 9.75 L 14.984375 9.761719 C 14.984375 10.171875 15.324219 10.511719 15.734375 10.511719 C 16.148438 10.511719 16.484375 10.171875 16.484375 9.761719 C 16.484375 9.757812 16.484375 9.753906 16.484375 9.75 C 16.484375 9.128906 16.210938 8.589844 15.828125 8.167969 C 15.441406 7.746094 14.902344 7.414062 14.25 7.414062 Z M 14.25 7.414062 "/>
<path style=" stroke:none;fill-rule:nonzero;fill:rgb(26.666668%,26.666668%,26.666668%);fill-opacity:1;" d="M 5.914062 2.496094 L 6.746094 3.15625 C 7.59375 3.992188 8.824219 5.585938 9.132812 7.460938 C 9.140625 7.507812 9.140625 7.554688 9.128906 7.601562 C 9.128906 7.601562 8.910156 8.652344 7.882812 10.132812 C 8.03125 10.480469 8.59375 11.507812 10.511719 13.425781 C 12.472656 15.351562 13.507812 15.910156 13.855469 16.058594 C 15.339844 15.03125 16.4375 14.8125 16.4375 14.8125 C 16.480469 14.804688 16.527344 14.800781 16.574219 14.808594 C 18.484375 15.117188 20.085938 16.347656 20.921875 17.195312 L 21.59375 18.046875 C 21.84375 18.621094 21.644531 19.292969 21.261719 19.882812 C 20.765625 20.648438 20 21.273438 20 21.273438 C 19.972656 21.296875 19.9375 21.316406 19.902344 21.328125 C 19.398438 21.53125 18.839844 21.632812 18.230469 21.632812 C 16.519531 21.632812 14.574219 20.761719 12.847656 19.679688 C 10.316406 18.09375 8.25 16.078125 8.082031 15.910156 C 7.996094 15.824219 5.402344 13.214844 3.726562 10.234375 C 2.566406 8.164062 1.871094 5.914062 2.617188 4.171875 C 2.632812 4.136719 2.652344 4.101562 2.675781 4.074219 C 2.675781 4.074219 2.683594 4.066406 2.695312 4.054688 C 2.78125 3.953125 3.253906 3.425781 3.839844 2.992188 C 4.320312 2.640625 4.878906 2.367188 5.375 2.367188 Z M 5.914062 2.496094 "/>
</g>
</svg>
