
<svg xmlns="http://www.w3.org/2000/svg" xmlns:xlink="http://www.w3.org/1999/xlink" width="24px" height="24px" viewBox="0 0 24 24" version="1.1">
<g id="surface1">
<path style=" stroke:none;fill-rule:nonzero;fill:rgb(26.666668%,26.666668%,26.666668%);fill-opacity:1;" d="M 21 1.5 C 19.539062 1.5 18 2.675781 18 4.125 C 18 4.476562 18.179688 4.972656 18.320312 5.296875 C 18.339844 5.371094 18.355469 5.457031 18.382812 5.523438 C 18.933594 7.640625 18.371094 9.144531 17.109375 10.652344 C 15.34375 12.414062 13.410156 12.445312 11.65625 10.722656 L 6.304688 2.332031 C 5.765625 1.753906 5.007812 1.542969 4.316406 1.542969 C 2.832031 1.515625 1.804688 2.691406 1.558594 3.953125 C 1.378906 4.960938 1.296875 4.789062 6.09375 13.429688 C 9.121094 18.886719 10.558594 21.402344 10.796875 21.648438 C 11.632812 22.527344 12.824219 22.742188 13.941406 22.222656 C 14.230469 22.085938 14.5625 21.835938 14.773438 21.601562 C 15.1875 21.136719 23.636719 5.730469 23.78125 5.203125 C 23.945312 4.847656 23.980469 4.476562 24 4.125 C 24 2.675781 22.460938 1.5 21 1.5 Z M 21 1.5 "/>
</g>
</svg>
