
<svg xmlns="http://www.w3.org/2000/svg" xmlns:xlink="http://www.w3.org/1999/xlink" width="24px" height="24px" viewBox="0 0 24 24" version="1.1">
<g id="surface1">
<path style=" stroke:none;fill-rule:evenodd;fill:rgb(26.666668%,26.666668%,26.666668%);fill-opacity:1;" d="M 11.941406 1.5 L 11.910156 1.5 C 10.890625 1.5 10.183594 1.785156 10.078125 2.191406 C 10.035156 2.265625 9.960938 2.339844 9.945312 2.445312 L 8.96875 5.25 C 10.425781 6.300781 13.574219 6.300781 15.015625 5.25 L 14.054688 2.445312 C 14.039062 2.414062 14.023438 2.398438 14.023438 2.386719 C 14.023438 2.25 13.933594 2.128906 13.816406 2.023438 C 13.695312 1.90625 13.546875 1.800781 13.378906 1.738281 C 12.945312 1.589844 12.480469 1.5 12 1.5 Z M 7.726562 9.601562 L 6.75 13.5 L 5.175781 13.5 C 4.738281 13.5 4.363281 13.753906 4.199219 14.144531 L 1.574219 21.046875 C 1.289062 21.734375 1.800781 22.5 2.550781 22.5 L 21.449219 22.5 C 22.199219 22.5 22.695312 21.734375 22.410156 21.046875 L 19.785156 14.144531 C 19.621094 13.753906 19.246094 13.5 18.824219 13.5 L 17.234375 13.5 L 16.261719 9.601562 C 13.363281 10.753906 10.949219 11.039062 7.726562 9.601562 Z M 17.386719 13.710938 L 18.253906 16.621094 C 18.390625 17.085938 18.195312 17.566406 17.789062 17.820312 C 16.140625 18.824219 14.039062 19.46875 11.953125 19.5 C 9.871094 19.515625 7.769531 18.914062 6.148438 17.789062 C 5.773438 17.519531 5.609375 17.054688 5.746094 16.621094 L 6.570312 13.828125 C 7.25 14.238281 9.386719 14.976562 11.984375 15 C 13.679688 15.015625 15.574219 14.800781 17.386719 13.710938 Z M 17.386719 13.710938 "/>
</g>
</svg>
