
<svg xmlns="http://www.w3.org/2000/svg" xmlns:xlink="http://www.w3.org/1999/xlink" width="24px" height="24px" viewBox="0 0 24 24" version="1.1">
<defs>
<filter id="alpha" filterUnits="objectBoundingBox" x="0%" y="0%" width="100%" height="100%">
  <feColorMatrix type="matrix" in="SourceGraphic" values="0 0 0 0 1 0 0 0 0 1 0 0 0 0 1 0 0 0 1 0"/>
</filter>
<mask id="mask0">
  <g filter="url(#alpha)">
<rect x="0" y="0" width="24" height="24" style="fill:rgb(0%,0%,0%);fill-opacity:0.3;stroke:none;"/>
  </g>
</mask>
<clipPath id="clip1">
  <rect x="0" y="0" width="24" height="24"/>
</clipPath>
<g id="surface5" clip-path="url(#clip1)">
<path style=" stroke:none;fill-rule:nonzero;fill:rgb(26.666668%,26.666668%,26.666668%);fill-opacity:1;" d="M 11.539062 1.503906 C 8.738281 1.550781 6.527344 2.582031 4.476562 4.617188 C 2.257812 6.816406 1.460938 8.839844 1.46875 12.222656 C 1.472656 13.574219 1.609375 14.632812 1.867188 15.542969 L 2.960938 13.425781 C 3.371094 12.644531 4.167969 12.066406 5.101562 12.007812 C 5.179688 12.003906 5.261719 11.996094 5.339844 12 C 5.351562 12 5.363281 12 5.375 12.003906 C 6.320312 12.050781 7.128906 12.636719 7.539062 13.425781 L 9.609375 17.441406 L 11.6875 21.464844 C 11.851562 21.789062 11.925781 22.128906 11.957031 22.472656 C 12.183594 22.472656 12.332031 22.496094 12.617188 22.480469 C 15.585938 22.359375 17.597656 21.523438 19.496094 19.636719 C 21.410156 17.730469 22.363281 15.4375 22.550781 12.316406 C 22.882812 6.726562 19.894531 2.789062 14.554688 1.785156 C 13.472656 1.582031 12.472656 1.488281 11.539062 1.503906 Z M 9.800781 4.5 C 10.203125 4.5 10.914062 5.351562 11.449219 6.460938 C 12.03125 7.667969 12.027344 8.035156 11.421875 8.433594 C 10.625 8.957031 9.96875 9.667969 9.96875 10.003906 C 9.96875 10.175781 10.472656 10.84375 11.089844 11.488281 C 12.09375 12.542969 12.257812 12.824219 12.71875 14.277344 C 13.003906 15.1875 13.367188 15.984375 13.542969 16.09375 C 13.789062 16.246094 14.097656 16.15625 15.015625 15.652344 L 15.382812 15.445312 C 16.109375 15.042969 16.191406 14.898438 16.691406 15.652344 C 16.976562 16.003906 17.417969 16.730469 17.671875 17.269531 C 18.226562 18.441406 18.128906 18.707031 16.996094 19.160156 C 14.476562 20.167969 13.046875 19.085938 10.058594 13.914062 C 7.554688 9.578125 7.066406 7.933594 7.832031 6.378906 C 8.230469 5.570312 9.351562 4.5 9.800781 4.5 Z M 9.800781 4.5 "/>
</g>
</defs>
<g id="surface1">
<use xlink:href="#surface5" mask="url(#mask0)"/>
<path style=" stroke:none;fill-rule:nonzero;fill:rgb(26.666668%,26.666668%,26.666668%);fill-opacity:1;" d="M 5.300781 13.5 C 5.265625 13.5 5.226562 13.5 5.191406 13.503906 C 4.820312 13.523438 4.484375 13.753906 4.296875 14.117188 L 2.21875 18.132812 L 0.148438 22.152344 C -0.0507812 22.53125 -0.0507812 23.003906 0.148438 23.382812 C 0.34375 23.765625 0.707031 24 1.101562 24 L 9.398438 24 C 9.792969 24 10.15625 23.765625 10.351562 23.382812 C 10.550781 23.003906 10.550781 22.53125 10.355469 22.152344 L 8.277344 18.132812 L 6.207031 14.113281 C 6.015625 13.75 5.675781 13.519531 5.300781 13.5 Z M 4.5 15 L 6 15 L 6 19.5 L 4.5 19.5 Z M 4.5 21 L 6 21 L 6 22.5 L 4.5 22.5 Z M 4.5 21 "/>
</g>
</svg>
