
<svg xmlns="http://www.w3.org/2000/svg" xmlns:xlink="http://www.w3.org/1999/xlink" width="24px" height="24px" viewBox="0 0 24 24" version="1.1">
<g id="surface1">
<path style=" stroke:none;fill-rule:nonzero;fill:rgb(26.666668%,26.666668%,26.666668%);fill-opacity:1;" d="M 12.160156 3 C 9.355469 3 5.21875 3.1875 3.980469 3.230469 C 2.628906 3.359375 2.132812 3.429688 1.398438 4.101562 C 0.265625 5.167969 0 7.265625 0 10.472656 L 0 13.519531 C 0 17.175781 0.457031 19.035156 1.210938 19.714844 C 2.078125 20.507812 2.648438 20.570312 3.222656 20.664062 C 3.445312 20.699219 5.035156 21 12.058594 21 C 13.71875 21 15.097656 20.953125 16.433594 20.910156 L 16.050781 20.398438 L 13.800781 17.398438 C 13.058594 16.410156 13.765625 15 15 15 L 16.5 15 L 16.5 12 L 10.5 16.5 L 10.5 7.5 L 16.5 12 L 16.5 11.820312 C 16.5 11.210938 16.628906 10.640625 16.949219 10.109375 C 17.273438 9.582031 17.914062 9 18.800781 9 L 20.199219 9 C 21.085938 9 21.726562 9.582031 22.050781 10.109375 C 22.371094 10.640625 22.5 11.210938 22.5 11.820312 L 22.5 15 L 23.964844 15 C 23.980469 14.53125 24 14.066406 24 13.539062 L 24 9.988281 C 24 8.089844 23.902344 5.410156 22.796875 4.285156 C 21.957031 3.527344 21.648438 3.316406 19.917969 3.222656 C 19.425781 3.199219 15.148438 3 12.160156 3 Z M 18.800781 10.5 C 18.355469 10.5 18 11.085938 18 11.820312 L 18 16.5 L 15 16.5 L 19.5 22.5 L 24 16.5 L 21 16.5 L 21 11.820312 C 21 11.085938 20.644531 10.5 20.199219 10.5 Z M 18.800781 10.5 "/>
</g>
</svg>
