<svg clip-rule="evenodd" fill-rule="evenodd" stroke-linejoin="round" stroke-miterlimit="2" viewBox="0 0 16 16" xmlns="http://www.w3.org/2000/svg">
 <g fill="#dfdfdf">
  <path d="m3.886.678h6.556l3.311 3.916v9.089c0 .905-.734 1.639-1.64 1.639h-8.227c-.905 0-1.639-.734-1.639-1.639v-11.366c0-.434.172-.851.48-1.158.307-.308.724-.481 1.159-.481zm.01 1.046c-.333 0-.604.271-.604.604v11.344c0 .334.271.604.604.604h8.207c.334 0 .604-.27.604-.604v-8.766l-2.701-.027v-3.155z" fill-opacity=".5"/>
  <path d="m5.042 2.818c-1.098.508-1.711 1.873-1.202 2.97l2.505 5.409.39-.181-2.506-5.408c-.411-.889.105-1.989.994-2.401.888-.411 2.11-.116 2.522.772l3.073 6.634c.412.889.14 1.982-.749 2.394-.017.008-.033.015-.05.022v.001c-.537.249-1.492.068-1.74-.469l-2.45-5.288c-.249-.537-.051-1.275.485-1.524l.136-.063c.536-.248 1.287.051 1.536.588l2.122 4.582.39-.181-2.123-4.581c-.345-.746-1.36-1.143-2.106-.797l-.135.062c-.746.346-1.04 1.349-.695 2.095l2.45 5.288c.345.746 1.544 1.033 2.29.687l.128-.059v-.001c1.057-.526 1.4-1.858.901-2.936l-3.073-6.634c-.509-1.098-1.995-1.49-3.093-.982z" fill-rule="nonzero"/>
 </g>
</svg>
