<svg xmlns="http://www.w3.org/2000/svg" viewBox="0 0 16 16">
 <defs>
  <style id="current-color-scheme" type="text/css">
   .ColorScheme-Text { color:#dfdfdf; } .ColorScheme-Highlight { color:#4285f4; } .ColorScheme-NeutralText { color:#ff9800; } .ColorScheme-PositiveText { color:#4caf50; } .ColorScheme-NegativeText { color:#f44336; }
  </style>
 </defs>
  <circle style="fill:currentColor" class="ColorScheme-Text" fill-opacity=".3" cx="7.994" cy="8" r="7.092"/>
  <path style="fill:currentColor" class="ColorScheme-Text" d="m7.998.918c-.895 0-1.747.17-2.535.469-.058.053-.132.093-.191.088-.008-.001-.016-.005-.025-.009-.388.162-.756.361-1.105.586.045.074.059.155-.035.195-.015.006-.213.027-.282.025-.993.72-1.79 1.688-2.299 2.818.008-.001.015-.004.024-.005.077-.001.188.021.263.037.068.014.123.06.183.064.168.013.208-.118.346-.191.141.02.236-.024.364-.01.087.01.15.103.218.108.057.006.108-.054.163-.045.054.009.147.125.155.191.012.081-.06.155-.036.245.085.087.241.104.364.155.08-.066.01-.188 0-.282-.002-.042.005-.08 0-.118-.007-.066-.036-.125-.036-.181-.002-.259.209-.38.383-.481.075-.045.134-.123.199-.156.092-.046.161-.056.238-.099.137-.077.256-.139.363-.227.05-.117.005-.274.01-.39.05-.03.092.013.145.009.083-.017.09-.134.138-.181.027-.027.102-.046.136-.073.083-.065.11-.163.183-.191.026-.01.085-.007.127-.018.053-.014.13-.078.218-.108.057-.02.188-.024.21-.045.027-.028 0-.105.009-.146.044-.205.354-.248.537-.317.128-.048.26-.137.401-.11-.028.097-.159.063-.137.181.031.164.251-.047.309-.071.111-.047.302-.075.447-.128.128-.047.357-.118.237-.264-.101-.005-.149.118-.237.155-.06.01-.048-.05-.1-.055-.049-.006-.077.045-.127.037-.05-.009-.12-.087-.128-.146-.02-.151.128-.214.191-.327-.042-.137-.232-.028-.347-.081.012-.082.096-.138.192-.154.078-.013.254-.006.301.035.027.023.001.08.045.118.047.042.104.038.164.028.021-.103-.135-.078-.118-.146.123-.08.323-.014.474-.037.086-.012.177-.073.254-.116.073-.042.168-.114.246-.046.02.074-.068.099-.109.136-.14.123-.283.265-.391.408.066.065.187.032.299.046.044.006.099.018.146.027.054.01.112.007.154.018.077.018.097.1.173.1.125 0 .126-.134.055-.218.023-.086.058-.131.028-.191-.056-.111-.262-.005-.273-.145-.006-.09.076-.086.109-.154-.015-.175.144-.188.127-.344-.007-.066-.063-.067-.109-.128-.023-.03-.035-.088-.062-.114-.212-.019-.427-.031-.644-.031zm-3.663 1.429h.001c.042.005.093.051.144.055.049.002.089-.027.119-.018.076.019.108.134.037.19-.06.007-.083-.026-.128-.018-.124.021-.171.263-.263.255-.088-.007-.135-.219-.046-.282.005-.055-.041-.064-.038-.119.027-.033.101-.069.174-.063zm-.41.028c.025.001.044.007.054.018-.012.097-.088.09-.163.135-.129.078-.204.197-.245.363-.012.049-.14.177-.202.164-.144-.03.041-.295.073-.336.037-.044.086-.084.129-.135.041-.05.068-.118.108-.146.044-.03.17-.066.246-.063zm1.077.326c.047.001.088.009.107.027-.03.12-.288.089-.383.045.005-.045.077-.057.136-.063.042-.001.094-.01.14-.009zm-.589.222c.031-.001.062.005.094.014-.083.07-.174.11-.318.155-.069.022-.189.049-.2-.028-.015-.095.101-.073.164-.081.079-.011.167-.057.26-.06zm9.041.538c-.011.026-.018.051-.017.076.005.044.054.086.064.145.006.032-.014.099 0 .128.044.085.159.024.241.028-.093-.128-.186-.256-.288-.377zm.465.624c-.013.063-.055.144-.09.197-.079.12-.187.126-.301.19-.094.053-.135.143-.191.236-.06.101-.098.162-.073.308-.081.161-.204.26-.373.336-.05.023-.118.031-.163.064-.037.026-.058.096-.109.154-.064.071-.131.101-.164.155-.027.042-.035.125-.064.181-.039.076-.122.114-.173.191-.023.036-.039.108-.064.155-.058.104-.157.18-.146.272.011.088.112.104.118.182.002.043-.028.07-.027.118.002.069.049.118.054.172.014.135-.046.189-.071.281-.012.044-.007.093-.018.128-.023.067-.117.128-.119.208-.001.056.058.102.063.182.001.055-.027.113-.017.164.019.098.196.213.273.29.103.103.238.182.282.291.038.091.037.211.109.28.053.051.141.083.21.136.063.05.132.093.2.146.11.086.278.258.455.245.092-.006.186-.082.291-.1.107-.019.247-.029.355-.018.084.008.169.058.256.054.091-.006.196-.073.299-.118.083-.036.186-.076.298-.106.052-.346.079-.699.079-1.06 0-1.45-.434-2.793-1.178-3.914zm-11.742 2.38c-.151.008-.25.015-.336.054-.197.089-.159.355-.356.417-.068.022-.161.023-.236.037-.065.012-.144.047-.21.045-.019 0-.045-.014-.068-.021-.018.125-.032.251-.044.377.188.036.284.283.45.365.045.023.104.024.163.037.047.011.083.03.128.045.096.033.214.029.291.063.116.052.201.269.301.328.006.058-.011.137.009.181.047.064.114.049.192.091.093.05.121.179.209.219.031.013.107.011.155.026.12.036.16.176.263.145.068-.019.063-.089.074-.154.045-.048.093-.125.163-.127.113-.005.124.117.165.227.023.062.084.116.099.181.029.113.015.45-.01.518-.028.083-.14.118-.21.209-.032.043-.048.106-.072.137-.045.054-.111.068-.145.118-.018.028-.037.088-.055.126-.055.116-.128.198-.082.337.019.057.109.095.109.162 0 .079-.169.15-.182.237-.01.064.053.179.073.263.015.063.135.103.173.145.064.072.115.173.173.263.116.177.206.393.318.564.06.089.143.17.183.263.02.047.017.103.036.145.065.147.352.3.5.372.07.034.147.046.21.081.097.054.288.198.337.283.043.075.07.26.091.381.028.159 0 .281.009.454.006.093.036.187.037.281 0 .033-.017.057-.019.09 0 .005.002.012.002.017.894.404 1.885.634 2.934.634.189 0 .377-.01.562-.025.008-.014.016-.028.026-.041.043-.056.081-.105.109-.154.027-.166-.067-.282-.027-.427.043-.163.269-.263.427-.336.055-.026.111-.066.155-.082.11-.038.246-.017.347-.054.17-.062.188-.244.272-.399.04-.074.092-.147.1-.2.007-.047-.017-.091-.01-.146.008-.055.058-.102.073-.163.02-.078.029-.194.029-.281 0-.072-.034-.135-.037-.2-.012-.235.086-.262.173-.39.044-.064.06-.136.091-.182.146-.218.401-.324.382-.654-.005-.109-.074-.355-.155-.39-.046-.02-.152-.002-.218-.027-.216-.08-.342-.346-.565-.364-.047-.005-.091.02-.145.019-.088-.005-.221-.062-.319-.072-.062-.007-.145.018-.182 0-.057-.028-.063-.133-.109-.164-.036-.025-.108-.033-.163-.055-.09-.034-.161-.075-.265-.082-.031-.001-.071.015-.108.01-.058-.01-.103-.077-.156-.109-.066-.04-.127-.06-.154-.117.059-.195-.106-.25-.146-.363-.019-.053-.01-.117-.027-.164-.024-.067-.091-.107-.164-.163-.132-.101-.249-.196-.437-.219-.083-.011-.165.025-.265.018-.106-.006-.239-.099-.318-.189-.077-.089-.115-.168-.182-.21-.064-.041-.148-.04-.191-.081-.02-.018-.016-.048-.037-.091-.032-.066-.086-.103-.046-.182-.072-.037-.074.069-.154.055-.071-.1-.13-.147-.291-.118-.074.014-.115.106-.2.109-.071.005-.126-.078-.219-.091-.07-.01-.15.018-.199.009-.078-.015-.102-.08-.173-.126-.052-.035-.153-.092-.182-.092-.092.006-.157.194-.283.128-.062-.078.099-.119.027-.191-.055-.055-.102.025-.146.055-.05.035-.098.069-.153.09-.126.046-.204.022-.301.073-.091.046-.095.125-.146.217-.042.076-.138.187-.201.192-.076.006-.149-.107-.218-.136-.208-.09-.309.08-.483.082-.16.006-.39-.259-.381-.41.001-.091.052-.231.063-.344.01-.091.072-.145.073-.228.002-.11-.146-.195-.218-.208-.17-.031-.406.068-.601-.01-.037-.062.043-.104.064-.164.012-.034.005-.08.017-.117.022-.058.083-.102.11-.164.02-.047.025-.114.045-.172.025-.066.068-.108.073-.155.007-.061-.016-.132-.064-.172zm2.434 1.922c.061.005.069.133.006.143-.068.011-.103-.107-.037-.137.012-.006.022-.006.031-.005z"/>
</svg>
