<svg xmlns="http://www.w3.org/2000/svg" viewBox="0 0 16 16">
 <defs>
  <style id="current-color-scheme" type="text/css">
   .ColorScheme-Text { color:#dfdfdf; } .ColorScheme-Highlight { color:#4285f4; } .ColorScheme-NeutralText { color:#ff9800; } .ColorScheme-PositiveText { color:#4caf50; } .ColorScheme-NegativeText { color:#f44336; }
  </style>
 </defs>
 <path style="fill:currentColor" class="ColorScheme-Text" d="m8 2.195-1.745-.992h-2.87c-1.214 0-2.198.984-2.198 2.198v9.23c0 1.213.984 2.198 2.198 2.198h2.798l1.817.86v-.84l-1.799-.86h-2.741c-.791 0-1.433-.642-1.433-1.433v-9.08c0-.791.642-1.433 1.433-1.433h2.768l1.772.992z"/>
  <path style="fill:currentColor" class="ColorScheme-Text" fill-opacity=".5" d="m8 15.689v-.84l1.752-.86h2.788c.791 0 1.433-.642 1.433-1.433v-9.08c0-.791-.642-1.433-1.433-1.433h-2.788l-1.752.992v-.84l1.752-.992h2.863c1.214 0 2.198.984 2.198 2.198v9.23c0 1.213-.984 2.198-2.198 2.198h-2.863z"/>
  <path style="fill:currentColor" class="ColorScheme-Text" d="m4.532 7.194-1.393-.325 4.805-1.01 5.45.895-2.928.663v2.233c-1.602 1.274-3.203 1.324-4.805 0v-2.193l-.726-.169v1.68c.245.143.421.539.421 1.004 0 .586-.279 1.061-.622 1.061-.344 0-.623-.475-.623-1.061 0-.465.177-.861.421-1.004z"/>
</svg>
