<svg xmlns="http://www.w3.org/2000/svg" width="16" height="16" version="1.1">
 <defs>
  <style id="current-color-scheme" type="text/css">
   .ColorScheme-Text { color:#dfdfdf; } .ColorScheme-Highlight { color:#4285f4; } .ColorScheme-NeutralText { color:#ff9800; } .ColorScheme-PositiveText { color:#4caf50; } .ColorScheme-NegativeText { color:#f44336; }
  </style>
 </defs>
 <path style="fill:currentColor;" class="ColorScheme-Text" d="m1.571 5.857h-.535c-.294 0-.536-.242-.536-.536 0-.293.242-.535.536-.535h.535v-1.072c0-1.178.965-2.143 2.143-2.143h1.072v-.535c0-.294.242-.536.535-.536.294 0 .536.242.536.536v.535h1.607v-.535c0-.294.242-.536.536-.536s.536.242.536.536v.535h1.607v-.535c0-.294.242-.536.536-.536.293 0 .535.242.535.536v.535h1.072c1.178 0 2.143.965 2.143 2.143v1.072h.535c.294 0 .536.242.536.535 0 .294-.242.536-.536.536h-.535v1.607h.535c.294 0 .536.242.536.536s-.242.536-.536.536h-.535v1.607h.535c.294 0 .536.242.536.536 0 .293-.242.535-.536.535h-.535v1.072c0 1.178-.965 2.143-2.143 2.143h-1.072v.535c0 .294-.242.536-.535.536-.294 0-.536-.242-.536-.536v-.535h-1.607v.535c0 .294-.242.536-.536.536s-.536-.242-.536-.536v-.535h-1.607v.535c0 .294-.242.536-.536.536-.293 0-.535-.242-.535-.536v-.535h-1.072c-1.178 0-2.143-.965-2.143-2.143v-1.072h-.535c-.294 0-.536-.242-.536-.535 0-.294.242-.536.536-.536h.535v-1.607h-.535c-.294 0-.536-.242-.536-.536s.242-.536.536-.536h.535zm10.715-3.214h-8.572c-.603 0-1.071.468-1.071 1.071v8.572c0 .603.468 1.071 1.071 1.071h8.572c.603 0 1.071-.468 1.071-1.071v-8.572c0-.603-.468-1.071-1.071-1.071zm-7.5 1.071h6.428c.585 0 1.072.487 1.072 1.072v6.428c0 .585-.487 1.072-1.072 1.072h-6.428c-.585 0-1.072-.487-1.072-1.072v-6.428c0-.585.487-1.072 1.072-1.072zm0 1.072v6.428h6.428v-6.428z"/>
</svg>
