<svg xmlns="http://www.w3.org/2000/svg" viewBox="0 0 16 16">
 <defs>
  <style id="current-color-scheme" type="text/css">
   .ColorScheme-Text { color:#dfdfdf; } .ColorScheme-Highlight { color:#4285f4; } .ColorScheme-NeutralText { color:#ff9800; } .ColorScheme-PositiveText { color:#4caf50; } .ColorScheme-NegativeText { color:#f44336; }
  </style>
 </defs>
  <path style="fill:currentColor" class="ColorScheme-Text" d="m7.893 15.03c-.846-1.338-2.421-4.097-2.188-5.782.363-2.633 1.542-3.747 3.079-5.395 1.746-1.871 1.848-3.658 1.848-3.658s2.642 2.08 2.445 6.067c-.138 2.784-2.654 4.261-3.638 6.155-.991 1.906-1.034 3.388-1.034 3.388s-.005-.008-.015-.022c-.148-.852-.568-3.566-.22-5.22.325-1.544 1.033-2.899 1.033-2.899s-.994 1.003-1.381 2.593c-.311 1.281-.102 3.466.071 4.773z"/>
  <path style="fill:currentColor" class="ColorScheme-Text" fill-opacity=".3" d="m5.311 10.842c-.151-.315-.404-.662-.664-1.085-1.012-1.652-2.156-1.957-2.533-3.669-.54-2.45.125-3.689.125-3.689s.526 1.311 1.804 2.287c.804.615 1.578.774 2.074 1.57-.455.787-.785 1.699-.953 2.918-.068.49-.005 1.063.147 1.668z"/>
</svg>
