<svg clip-rule="evenodd" fill-rule="evenodd" stroke-linejoin="round" stroke-miterlimit="2" viewBox="0 0 16 16" xmlns="http://www.w3.org/2000/svg">
 <path d="m8.902 1.056c-.599-.078-1.205-.078-1.804 0l-.279 1.663c-.455.101-.895.262-1.309.476l-1.283-1.094c-.508.325-.973.715-1.382 1.159l.856 1.453c-.284.371-.518.777-.697 1.207l-1.686-.014c-.181.576-.286 1.173-.313 1.776l1.589.563c.021.467.102.928.242 1.373l-1.301 1.073c.232.557.535 1.082.902 1.562l1.579-.59c.316.344.675.645 1.068.896l-.307 1.658c.536.278 1.106.485 1.695.617l.831-1.467c.463.06.931.06 1.394 0l.831 1.467c.589-.132 1.159-.339 1.695-.617l-.307-1.658c.393-.251.752-.552 1.068-.896l1.579.59c.367-.48.67-1.005.902-1.562l-1.301-1.073c.14-.445.221-.906.242-1.373l1.589-.563c-.027-.603-.132-1.2-.313-1.776l-1.686.014c-.179-.43-.413-.836-.697-1.207l.856-1.453c-.409-.444-.874-.834-1.382-1.159l-1.283 1.094c-.414-.214-.854-.375-1.309-.476zm-.902 2.763c2.307 0 4.181 1.874 4.181 4.181s-1.874 4.181-4.181 4.181-4.181-1.874-4.181-4.181 1.874-4.181 4.181-4.181z" fill="#dfdfdf"/>
</svg>
