<svg style="clip-rule:evenodd;fill-rule:evenodd;stroke-linejoin:round;stroke-miterlimit:2" version="1.1" viewBox="0 0 16 16" xmlns="http://www.w3.org/2000/svg">
 <path d="m7.814 7.979v-3.266c0-0.204 0.109-0.393 0.285-0.495 0.176-0.103 0.394-0.104 0.572-2e-3 1.435 0.82 4.308 2.461 5.752 3.287 0.179 0.102 0.289 0.292 0.289 0.497s-0.11 0.395-0.289 0.497c-1.444 0.826-4.317 2.467-5.752 3.288-0.178 0.101-0.396 0.1-0.572-3e-3 -0.176-0.102-0.285-0.291-0.285-0.495v-3.266c-7e-3 0.197-0.116 0.378-0.288 0.476-1.445 0.826-4.318 2.467-5.753 3.288-0.177 0.101-0.395 0.1-0.571-3e-3 -0.177-0.102-0.286-0.291-0.286-0.495v-6.574c0-0.204 0.109-0.393 0.286-0.495 0.176-0.103 0.394-0.104 0.571-2e-3 1.435 0.82 4.308 2.461 5.753 3.287 0.172 0.098 0.281 0.279 0.288 0.476z" style="fill:#444"/>
</svg>
