<svg width="16" height="16" version="1.1" xmlns="http://www.w3.org/2000/svg">
 <path d="M 3.25,3 H 6.75 C 6.8885,3 7,3.1115 7,3.25 V 6.75 C 7,6.8885 6.8885,7 6.75,7 H 3.25 C 3.1115,7 3,6.8885 3,6.75 V 3.25 C 3,3.1115 3.1115,3 3.25,3 Z" style="fill:#dfdfdf"/>
 <path d="m9.25 3h3.5c0.139 0 0.25 0.1115 0.25 0.25v3.5c0 0.1385-0.111 0.25-0.25 0.25h-3.5c-0.1385 0-0.25-0.1115-0.25-0.25v-3.5c0-0.1385 0.1115-0.25 0.25-0.25z" style="fill:#dfdfdf"/>
 <path d="m3.25 9h3.5c0.1385 0 0.25 0.1115 0.25 0.25v3.5c0 0.139-0.1115 0.25-0.25 0.25h-3.5c-0.1385 0-0.25-0.111-0.25-0.25v-3.5c0-0.1385 0.1115-0.25 0.25-0.25z" style="fill:#dfdfdf"/>
 <path d="m9.25 9h3.5c0.139 0 0.25 0.1115 0.25 0.25v3.5c0 0.139-0.111 0.25-0.25 0.25h-3.5c-0.1385 0-0.25-0.111-0.25-0.25v-3.5c0-0.1385 0.1115-0.25 0.25-0.25z" style="fill:#dfdfdf"/>
</svg>
