<svg style="clip-rule:evenodd;fill-rule:evenodd;stroke-linecap:round;stroke-linejoin:round" viewBox="0 0 48 48" xmlns="http://www.w3.org/2000/svg">
 <g transform="scale(.75)">
  <path d="m61.122 15.88c0-2.762-2.239-5-5-5h-48.244c-2.761 0-5 2.238-5 5v32.246c0 2.761 2.239 5 5 5h48.244c2.761 0 5-2.239 5-5v-32.246z" style="fill:rgb(0,131,213)"/>
 </g>
 <g transform="scale(.75)">
  <path d="m61.122 20.652c0-1.326-0.527-2.598-1.465-3.536-0.938-0.937-2.209-1.464-3.535-1.464h-25.58c-1.232 0-2.42-0.455-3.337-1.277-0.768-0.689-1.713-1.535-2.481-2.224-0.917-0.822-2.105-1.277-3.337-1.277h-13.509c-1.326 0-2.597 0.527-3.535 1.465-0.938 0.937-1.465 2.209-1.465 3.535v32.252c0 2.761 2.239 5 5 5h48.244c2.761 0 5-2.239 5-5v-27.474z" style="fill:url(#_Linear1)"/>
 </g>
 <g transform="scale(.75)">
  <circle cx="36.391" cy="30.353" r="4.94" style="fill:url(#_Linear2);stroke-width:1.1px;stroke:rgb(17,164,251)"/>
 </g>
 <g transform="scale(.75)">
  <circle cx="46.27" cy="39.135" r="2.744" style="fill:url(#_Linear3);stroke-width:1.1px;stroke:url(#_Linear4)"/>
 </g>
 <g transform="scale(.75)">
  <circle cx="40.233" cy="36.391" r="5.488" style="fill:url(#_Linear5);stroke-width:1.1px;stroke:rgb(17,152,250)"/>
 </g>
 <g transform="scale(.75)">
  <circle cx="19.925" cy="36.94" r="4.94" style="fill:url(#_Linear6);stroke-width:1.1px;stroke:url(#_Linear7)"/>
 </g>
 <g transform="scale(.75)">
  <circle cx="24.865" cy="26.512" r="3.293" style="fill:url(#_Linear8);stroke-width:1.1px;stroke:rgb(17,168,252)"/>
 </g>
 <g transform="matrix(.75 0 0 .75 -2.66454e-15 0)">
  <circle cx="25.414" cy="32.549" r="6.037" style="fill:url(#_Linear9);stroke-width:1.1px;stroke:rgb(17,160,251)"/>
 </g>
 <g transform="scale(.75)">
  <circle cx="24.865" cy="39.135" r="2.744" style="fill:url(#_Linear3);stroke-width:1.1px;stroke:url(#_Linear11)"/>
 </g>
 <g transform="scale(.75)">
  <circle cx="30.353" cy="27.609" r="5.488" style="fill:url(#_Linear12);stroke-width:1.1px;stroke:rgb(17,173,252)"/>
 </g>
 <g transform="scale(.75)">
  <circle cx="32" cy="34.744" r="7.135" style="fill:url(#_Linear13);stroke-width:1.1px;stroke:url(#_Linear14)"/>
 </g>
 <defs>
  <linearGradient id="_Linear1" x2="1" gradientTransform="matrix(2.54933e-15,-41.6338,41.6338,2.54933e-15,445.153,52.7218)" gradientUnits="userSpaceOnUse">
   <stop style="stop-color:rgb(16,117,246)" offset="0"/>
   <stop style="stop-color:rgb(18,197,255)" offset="1"/>
  </linearGradient>
  <linearGradient id="_Linear2" x2="1" gradientTransform="matrix(1.23613e-15,20.1876,-20.1876,1.23613e-15,-481.027,21.6917)" gradientUnits="userSpaceOnUse">
   <stop style="stop-color:rgb(18,108,152)" offset="0"/>
   <stop style="stop-color:rgb(11,79,148)" offset="1"/>
  </linearGradient>
  <linearGradient id="_Linear3" x2="1" gradientTransform="matrix(1.23613e-15,20.1876,-20.1876,1.23613e-15,-702.647,21.6917)" gradientUnits="userSpaceOnUse">
   <stop style="stop-color:rgb(18,108,152)" offset="0"/>
   <stop style="stop-color:rgb(11,79,148)" offset="1"/>
  </linearGradient>
  <linearGradient id="_Linear4" x2="1" gradientTransform="matrix(2.37595,-850.767,850.767,2.37595,-699.377,890.613)" gradientUnits="userSpaceOnUse">
   <stop style="stop-color:rgb(18,179,253)" offset="0"/>
   <stop style="stop-color:rgb(17,140,249)" offset="1"/>
  </linearGradient>
  <linearGradient id="_Linear5" x2="1" gradientTransform="matrix(1.23613e-15,20.1876,-20.1876,1.23613e-15,-591.857,21.6917)" gradientUnits="userSpaceOnUse">
   <stop style="stop-color:rgb(18,108,152)" offset="0"/>
   <stop style="stop-color:rgb(11,79,148)" offset="1"/>
  </linearGradient>
  <linearGradient id="_Linear6" x2="1" gradientTransform="matrix(1.23613e-15,20.1876,-20.1876,1.23613e-15,-614.003,21.6917)" gradientUnits="userSpaceOnUse">
   <stop style="stop-color:rgb(18,108,152)" offset="0"/>
   <stop style="stop-color:rgb(11,79,148)" offset="1"/>
  </linearGradient>
  <linearGradient id="_Linear7" x2="1" gradientTransform="matrix(.78135 -279.781 279.781 .78135 -609.937 319.873)" gradientUnits="userSpaceOnUse">
   <stop style="stop-color:rgb(18,179,253)" offset="0"/>
   <stop style="stop-color:rgb(17,140,249)" offset="1"/>
  </linearGradient>
  <linearGradient id="_Linear8" x2="1" gradientTransform="matrix(1.23613e-15,20.1876,-20.1876,1.23613e-15,-436.736,21.6917)" gradientUnits="userSpaceOnUse">
   <stop style="stop-color:rgb(18,108,152)" offset="0"/>
   <stop style="stop-color:rgb(11,79,148)" offset="1"/>
  </linearGradient>
  <linearGradient id="_Linear9" x2="1" gradientTransform="matrix(1.23613e-15,20.1876,-20.1876,1.23613e-15,-503.214,21.6917)" gradientUnits="userSpaceOnUse">
   <stop style="stop-color:rgb(18,108,152)" offset="0"/>
   <stop style="stop-color:rgb(11,79,148)" offset="1"/>
  </linearGradient>
  <linearGradient id="_Linear11" x2="1" gradientTransform="matrix(1.18004,-422.543,422.543,1.18004,-698.181,462.389)" gradientUnits="userSpaceOnUse">
   <stop style="stop-color:rgb(18,179,253)" offset="0"/>
   <stop style="stop-color:rgb(17,140,249)" offset="1"/>
  </linearGradient>
  <linearGradient id="_Linear12" x2="1" gradientTransform="matrix(1.23613e-15,20.1876,-20.1876,1.23613e-15,-414.57,21.6917)" gradientUnits="userSpaceOnUse">
   <stop style="stop-color:rgb(18,108,152)" offset="0"/>
   <stop style="stop-color:rgb(11,79,148)" offset="1"/>
  </linearGradient>
  <linearGradient id="_Linear13" x2="1" gradientTransform="matrix(1.23613e-15,20.1876,-20.1876,1.23613e-15,-525.359,21.6917)" gradientUnits="userSpaceOnUse">
   <stop style="stop-color:rgb(18,108,152)" offset="0"/>
   <stop style="stop-color:rgb(11,79,148)" offset="1"/>
  </linearGradient>
  <linearGradient id="_Linear14" x2="1" gradientTransform="matrix(1.33335,-477.438,477.438,1.33335,-522.643,517.775)" gradientUnits="userSpaceOnUse">
   <stop style="stop-color:rgb(18,179,253)" offset="0"/>
   <stop style="stop-color:rgb(17,140,249)" offset="1"/>
  </linearGradient>
 </defs>
</svg>
