<svg style="clip-rule:evenodd;fill-rule:evenodd;stroke-linejoin:round;stroke-miterlimit:2" viewBox="0 0 48 48" xmlns="http://www.w3.org/2000/svg">
 <g transform="scale(.75)">
  <path d="m61.122 15.88c0-2.762-2.239-5-5-5h-48.244c-2.761 0-5 2.238-5 5v32.246c0 2.761 2.239 5 5 5h48.244c2.761 0 5-2.239 5-5v-32.246z" style="fill:rgb(0,131,213)"/>
 </g>
 <g transform="scale(.75)">
  <path d="m61.122 20.652c0-1.326-0.527-2.598-1.465-3.536-0.938-0.937-2.209-1.464-3.535-1.464h-25.58c-1.232 0-2.42-0.455-3.337-1.277-0.768-0.689-1.713-1.535-2.481-2.224-0.917-0.822-2.105-1.277-3.337-1.277h-13.509c-1.326 0-2.597 0.527-3.535 1.465-0.938 0.937-1.465 2.209-1.465 3.535v32.252c0 2.761 2.239 5 5 5h48.244c2.761 0 5-2.239 5-5v-27.474z" style="fill:url(#_Linear1)"/>
 </g>
 <g transform="scale(.75)">
  <path d="m32 18.536c-0.52 0-1.044 0.043-1.55 0.094-1.013 0.103-1.97 0.272-2.913 0.564-4.713 1.46-8.453 5.199-9.912 9.912-0.292 0.943-0.462 1.9-0.564 2.913-0.051 0.507-0.094 1.03-0.094 1.55 0 0.521 0.043 1.044 0.094 1.551 0.102 1.013 0.272 1.97 0.564 2.912 1.459 4.713 5.199 8.453 9.912 9.913 0.943 0.292 1.9 0.461 2.913 0.563 0.506 0.051 1.03 0.094 1.55 0.094s1.044-0.043 1.55-0.094c1.013-0.102 1.97-0.271 2.913-0.563 0.941-0.293 1.873-0.712 2.725-1.175 3.408-1.847 6.019-4.967 7.187-8.738 0.292-0.942 0.462-1.899 0.564-2.912 0.051-0.507 0.094-1.03 0.094-1.551 0-0.519-0.043-1.045-0.094-1.55-0.102-1.013-0.272-1.97-0.564-2.913-0.584-1.885-1.548-3.636-2.771-5.12-0.307-0.371-0.647-0.694-0.987-1.034-1.359-1.358-2.945-2.482-4.745-3.241-0.449-0.19-0.938-0.371-1.409-0.517-0.943-0.292-1.9-0.461-2.913-0.564-0.506-0.051-1.03-0.094-1.55-0.094zm0 1.504c2.275 0 4.413 0.558 6.295 1.55 0.05 0.026 0.092 0.067 0.141 0.094 0.038 0.05 0.027 0.104 0.094 0.141 0.049 0.027 0.095 0.069 0.141 0.094 0.079 0.044 0.157 0.111 0.141 0.188-0.022 0.112-0.206 0.106-0.282 0.188 0.01 0.158-0.053 0.128-0.094 0.234 0.025 0.069 0.083 0.06 0.094 0.141-0.014 0.088-0.127 0.098-0.094 0.188 0.148 0.115 0.283 0.019 0.423 0 0.306-0.038 0.563 7e-3 0.751-0.141-0.019-0.117 0.092-0.15 0.141-0.234 0.1 0.069 0.184 0.162 0.282 0.234-0.057 0.025-0.183 0.062-0.235 0.094-0.076 0.052-0.1 0.131-0.188 0.188-0.062 0.044-0.216 0.188-0.281 0.188-0.08 0-0.225-0.066-0.282-0.047-0.082 0.025-0.048 0.155-0.141 0.188-0.181 0.066-0.501-0.176-0.564 0.094 0.077 0.156 0.333 0.103 0.47 0.188 0.085 0.055 0.213 0.33 0.235 0.423 0.021 0.076 0.032 0.341 0 0.423-0.085 0.218-0.313 0.193-0.564 0.187-0.068 0-0.125 6e-3 -0.188 0-0.424-0.027-0.842-0.162-1.033 0.141 0.013 0.233 0.052 0.362 0 0.564-0.039 0.148-0.197 0.248-0.188 0.376 3e-3 0.066 0.124 0.192 0.141 0.282 0.01 0.049-0.022 0.144 0 0.188 0.071 0.134 0.25-0.022 0.375 0 0.121 0.019 0.235 0.195 0.235 0.329 0 0.095-0.034 0.283-0.094 0.375-0.12 0.181-0.344 0.137-0.516 0.235-0.143 0.082-0.198 0.281-0.282 0.423-0.09 0.153-0.177 0.204-0.141 0.423-0.123 0.243-0.263 0.399-0.517 0.517-0.074 0.032-0.167 0.091-0.235 0.141-0.055 0.038-0.111 0.1-0.188 0.188-0.095 0.106-0.23 0.152-0.282 0.234-0.038 0.063-6e-3 0.198-0.047 0.282-0.06 0.115-0.158 0.214-0.235 0.329-0.035 0.055-0.102 0.117-0.141 0.188-0.087 0.159-0.204 0.283-0.187 0.423 0.013 0.134 0.179 0.164 0.187 0.282 8e-3 0.065-0.049 0.117-0.046 0.188 3e-3 0.103 0.038 0.153 0.046 0.234 0.02 0.203-0.102 0.284-0.14 0.423-0.019 0.066 0.016 0.136 0 0.188-0.033 0.101-0.186 0.162-0.188 0.282-3e-3 0.085 0.133 0.162 0.141 0.282 6e-3 0.082-0.064 0.158-0.047 0.235 0.03 0.147 0.308 0.355 0.422 0.47 0.156 0.155 0.308 0.258 0.376 0.422 0.058 0.14 0.082 0.366 0.188 0.47 0.079 0.077 0.228 0.109 0.329 0.188 0.096 0.074 0.228 0.109 0.329 0.188 0.167 0.131 0.392 0.395 0.658 0.376 0.139-0.011 0.267-0.067 0.422-0.094 0.162-0.027 0.353-0.11 0.517-0.094 0.126 0.013 0.245 0.102 0.376 0.094 0.137-8e-3 0.314-0.073 0.47-0.141 0.27-0.118 0.687-0.339 1.08-0.282 0.301 0.044 0.307 0.383 0.517 0.517 0.24 0.022 0.419-0.047 0.611 0 0.145 0.035 0.315 0.308 0.329 0.423 0.013 0.117-0.078 0.208-0.094 0.282-0.039 0.158-0.067 0.368-0.094 0.469-0.022 0.08-0.05 0.156-0.047 0.235 0 0.071 0.114 0.236 0.188 0.329 0.09 0.115 0.219 0.203 0.328 0.329 0.2 0.229 0.284 0.542 0.423 0.846 0.036 0.076-0.033 0.092 0 0.187-0.06 0.46-0.216 0.761-0.517 1.269-0.142 0.164-0.284 0.359-0.281 0.564-0.011 0.491 0.256 0.746 0.234 1.221-0.049 0.639 3e-3 0.739-0.046 1.08 0.215 0.11 0.109 0.431 0.046 0.658-0.092 0.271-0.183 0.337-0.234 0.517 0.112 0.048 0.206 0.061 0.328 0.047-2.461 2.559-5.94 4.134-9.771 4.134-1.793 0-3.507-0.353-5.074-0.987-5e-3 -2e-3 6e-3 -0.044 0-0.046 0.142-0.061 0.413 0.105 0.517-0.095 0.052-0.095-0.068-0.28 0-0.375 0.049-0.066 0.369-0.125 0.47-0.141 0.145-0.025 0.294 5e-3 0.376-0.047 0.09-0.058 0.204-0.207 0.188-0.376-8e-3 -0.079-0.079-0.117-0.141-0.188-0.052-0.06-0.012-0.133-0.047-0.188-0.066-0.095-0.161-0.142-0.188-0.282 0.197-0.038 0.467 0.22 0.752 0.141 0.133-0.038 0.359-0.297 0.422-0.423 0.019-0.038-0.022-0.188 0-0.234 0.025-0.052 0.086-0.067 0.094-0.094 0.019-0.074-0.016-0.095 0-0.141 0.049-0.14 0.2-0.228 0.282-0.329 0.063-0.077 0.131-0.156 0.188-0.235 0.066-0.085 0.097-0.114 0.141-0.188 0.041-0.249-0.154-0.439-0.094-0.658 0.066-0.246 0.42-0.404 0.658-0.516 0.082-0.039 0.166-0.117 0.235-0.141 0.164-0.058 0.363-0.04 0.516-0.094 0.257-0.093 0.344-0.376 0.47-0.611 0.06-0.109 0.13-0.203 0.141-0.282 0.011-0.071-0.013-0.153 0-0.235 0.014-0.082 0.025-0.145 0.047-0.235 0.03-0.117 0.047-0.338 0.047-0.47 0-0.109-0.044-0.136-0.047-0.234-0.019-0.356 0.104-0.37 0.235-0.564 0.065-0.096 0.095-0.261 0.141-0.329 0.221-0.328 0.591-0.489 0.564-0.987-0.011-0.163-0.068-0.511-0.188-0.563-0.069-0.03-0.228-9e-3 -0.329-0.047-0.323-0.12-0.557-0.49-0.893-0.517-0.071-3e-3 -0.108 3e-3 -0.188 0-0.131-3e-3 -0.275-0.125-0.422-0.141-0.093-0.01-0.275 0.027-0.329 0-0.085-0.041-0.073-0.188-0.141-0.235-0.055-0.038-0.15-0.064-0.235-0.094-0.134-0.052-0.22-0.083-0.376-0.094-0.049-3e-3 -0.18 8e-3 -0.235 0-0.085-0.013-0.156-0.092-0.235-0.141-0.098-0.06-0.147-0.103-0.188-0.188 0.091-0.295-0.221-0.344-0.281-0.516-0.028-0.08 0.027-0.211 0-0.282-0.036-0.101-0.123-0.15-0.235-0.235-0.197-0.153-0.377-0.293-0.658-0.329-0.126-0.013-0.273 0.011-0.423 0-0.158-0.011-0.349-0.098-0.47-0.235-0.115-0.134-0.133-0.266-0.235-0.329-0.095-0.06-0.263-0.078-0.328-0.141-0.031-0.027-0.02-0.078-0.047-0.141-0.05-0.098-0.154-0.114-0.094-0.234-0.11-0.055-0.071 0.068-0.188 0.047-0.107-0.151-0.183-0.235-0.423-0.188-0.109 0.021-0.2 0.185-0.329 0.188-0.107 3e-3 -0.189-0.169-0.329-0.188-0.106-0.014-0.255 0.11-0.329 0.094-0.117-0.022-0.128-0.164-0.235-0.235-0.079-0.052-0.238-0.191-0.281-0.188-0.137 3e-3 -0.235 0.289-0.423 0.188-0.093-0.118 0.156-0.126 0.047-0.235-0.082-0.082-0.122 3e-3 -0.188 0.047-0.077 0.052-0.15 0.111-0.235 0.141-0.189 0.071-0.322 0.064-0.47 0.141-0.136 0.071-0.155 0.189-0.235 0.328-0.062 0.115-0.186 0.277-0.282 0.282-0.114 8e-3 -0.225-0.144-0.328-0.188-0.315-0.136-0.492 0.092-0.752 0.094-0.241 3e-3 -0.575-0.384-0.564-0.61 8e-3 -0.14 0.078-0.345 0.094-0.517 0.014-0.137 0.139-0.25 0.141-0.376 3e-3 -0.167-0.266-0.31-0.376-0.329-0.257-0.046-0.6 0.115-0.892 0-0.055-0.093 0.108-0.144 0.141-0.235 0.019-0.051-0.019-0.083 0-0.141 0.032-0.087 0.147-0.142 0.188-0.234 0.03-0.072 0.016-0.195 0.047-0.282 0.035-0.099 0.132-0.164 0.14-0.235 0.011-0.093-0.067-0.222-0.14-0.282-0.227 0.013-0.386 0.034-0.517 0.094-0.295 0.134-0.219 0.518-0.517 0.611-0.101 0.032-0.261 0.074-0.376 0.094 0.195-0.984 0.498-1.925 0.893-2.819 0.104 0.019 0.191 0.086 0.282 0.094 0.251 0.019 0.262-0.173 0.469-0.282 0.214 0.03 0.323-0.022 0.517 0 0.131 0.013 0.319 0.18 0.423 0.188 0.087 3e-3 0.106-0.108 0.188-0.094 0.082 0.013 0.221 0.183 0.235 0.282 0.013 0.123-0.083 0.239-0.047 0.376 0.128 0.131 0.38 0.205 0.564 0.281 0.12-0.098 0.019-0.327 0-0.469-3e-3 -0.063 7e-3 -0.131 0-0.188-0.014-0.099-0.047-0.197-0.047-0.282 0-0.391 0.301-0.552 0.563-0.705 0.112-0.065 0.231-0.185 0.329-0.235 0.14-0.068 0.214-0.075 0.329-0.141 0.208-0.117 0.402-0.241 0.564-0.375 0.074-0.178-8e-3 -0.389 0-0.564 0.074-0.047 0.108 7e-3 0.188 0 0.125-0.028 0.163-0.211 0.235-0.282 0.041-0.041 0.185-0.053 0.234-0.094 0.126-0.098 0.126-0.238 0.235-0.282 0.039-0.013 0.128-0.03 0.188-0.047 0.082-0.022 0.198-0.094 0.329-0.141 0.085-0.03 0.296-0.014 0.329-0.047 0.041-0.041-0.011-0.219 0-0.282 0.065-0.308 0.523-0.319 0.799-0.422 0.191-0.074 0.397-0.229 0.61-0.188-0.041 0.147-0.223 0.104-0.188 0.282 0.047 0.248 0.336-0.059 0.423-0.094 0.167-0.071 0.486-0.109 0.705-0.188 0.191-0.069 0.509-0.202 0.329-0.423-0.151-0.011-0.198 0.133-0.329 0.188-0.09 0.013-0.112-0.042-0.188-0.047-0.074-3e-3 -0.114 0.06-0.188 0.047-0.074-0.014-0.177-0.148-0.188-0.235-0.03-0.23 0.236-0.3 0.329-0.47-0.063-0.208-0.342-0.012-0.517-0.094 0.019-0.123 0.09-0.257 0.235-0.282 0.118-0.019 0.399 0.037 0.47 0.094 0.041 0.036-0.016 0.131 0.047 0.188 0.071 0.063 0.189 0.014 0.282 0 0.032-0.156-0.216-0.087-0.188-0.188 0.186-0.12 0.525-0.064 0.751-0.094 0.132-0.019 0.259-0.125 0.376-0.188 0.11-0.062 0.214-0.15 0.329-0.047 0.033 0.112-0.078 0.178-0.141 0.235-0.21 0.186-0.4 0.395-0.564 0.611 0.102 0.098 0.254 0.028 0.423 0.047 0.066 8e-3 0.167 0.036 0.235 0.047 0.082 0.014 0.169-0.014 0.235 0 0.115 0.027 0.12 0.188 0.235 0.188 0.186 0 0.201-0.156 0.094-0.282 0.033-0.128 0.093-0.239 0.047-0.329-0.085-0.169-0.407 0.028-0.423-0.188-0.01-0.136 0.139-0.178 0.188-0.282-0.022-0.262 0.215-0.279 0.188-0.516-0.014-0.099-0.12-0.095-0.188-0.188-0.036-0.049-0.053-0.153-0.094-0.188-0.142-0.12-0.406-0.099-0.423-0.329-7e-3 -0.137 0.019-0.228 0-0.376-0.019-0.139-0.161-0.536-0.282-0.564-0.153-0.032-0.239 0.245-0.423 0.329-0.098 0.047-0.274 0.066-0.375 0.047-0.066-0.013-0.18-0.062-0.188-0.188-7e-3 -0.072 0.016-0.098 0.047-0.141 7e-3 -0.01-8e-3 -0.036 0-0.047 1.189-0.341 2.459-0.516 3.758-0.516zm-5.59 1.221c-0.134 0.427-0.52 0.671-1.034 0.658-0.126 0.12-0.073 0.35-0.141 0.517-0.057 0.139-0.236 0.245-0.376 0.234-0.101-7e-3 -0.282-0.139-0.282-0.234 0-0.079 0.076-0.167 0.094-0.235 0.554-0.358 1.134-0.665 1.739-0.94zm11.509 0.47c-0.05 9e-3 -0.096 0.021-0.141 0.047-0.104 0.063-0.108 0.158-0.188 0.188-0.112 0.041-0.265 0.04-0.281 0.141-0.014 0.084 0.096 0.111 0.093 0.188-0.041 0.101-0.119 0.111-0.14 0.234 0.139 0.227 0.485 3e-3 0.657-0.046 0.077-0.022 0.147 0.012 0.188-0.047 0.047-0.074 0.012-0.225 0.047-0.329 0.038-0.115 0.155-0.087 0.141-0.188-0.011-0.101-0.206-0.205-0.376-0.188zm-14.892 1.738c0.1 0.121 0.184 0.297 0 0.376-0.027 0.013-0.357 0.061-0.423 0.047-0.02-3e-3 -0.028-0.034-0.047-0.047 0.144-0.14 0.32-0.243 0.47-0.376zm0.376 0.47c0.066 3e-3 0.111 0.135 0.188 0.141 0.074 6e-3 0.191-0.061 0.235-0.047 0.115 0.03 0.156 0.244 0.047 0.329-0.09 0.01-0.123-0.108-0.188-0.094-0.186 0.032-0.237 0.386-0.376 0.375-0.131-0.013-0.228-0.28-0.094-0.375 3e-3 -0.082-0.052-0.106-0.047-0.188 0.041-0.052 0.126-0.149 0.235-0.141zm-0.611 0.094c0.039 0 0.034-0.017 0.047 0-0.019 0.145-0.076 0.166-0.188 0.235-0.194 0.117-0.313 0.265-0.375 0.516-0.02 0.074-0.236 0.301-0.329 0.282-0.216-0.046 0.091-0.454 0.141-0.516 0.054-0.069 0.125-0.112 0.188-0.188 0.062-0.077 0.081-0.239 0.14-0.282 0.066-0.047 0.262-0.053 0.376-0.047zm18.51 0.376c0.216-0.014 0.324 0.244 0.422 0.375 0.082 0.107 0.336 0.256 0.47 0.329 0.077 0.041 0.15 0.103 0.235 0.141 0.089 0.04 0.224 0.092 0.329 0.188s0.184 0.242 0.188 0.329c3e-3 0.087-0.061 0.153-0.047 0.235 0.095 0.015 0.144-0.081 0.188-0.188 0.354 0.505 0.656 1.044 0.939 1.597-0.057 0.036-0.082 0.071-0.094 0.141-0.027 0.153 0.089 0.349-0.141 0.376-0.144 0.019-0.317-0.144-0.516-0.188-0.082-0.019-0.217 0.022-0.282 0-0.15-0.052-0.107-0.239-0.235-0.329-0.074-0.052-0.258-0.127-0.376-0.141-0.074-7e-3 -0.111 0.011-0.188 0-0.093-0.01-0.252 0-0.329-0.047-0.073-0.046-0.262-0.125-0.281-0.188-0.031-0.101 0.229-0.244 0.234-0.328 6e-3 -0.066-0.08-0.09-0.094-0.188-0.01-0.061 0.014-0.15 0-0.188-0.019-0.071-0.122-0.139-0.234-0.141-0.099 0-0.198 0.047-0.282 0.047-0.121 3e-3 -0.367-0.061-0.517-0.047-0.09 7e-3 -0.15 0.041-0.235 0.047-0.238 0.019-0.378-0.014-0.564 0-0.134 7e-3 -0.391 0.083-0.516 0.141-0.063 0.03-0.106 0.1-0.188 0.141-0.039 0.019-0.092 0.025-0.141 0.047-0.077 0.035-0.208 0.121-0.282 0.141-0.107 0.027-0.229-8e-3 -0.423 0-0.139 7e-3 -0.373-0.022-0.376-0.188-3e-3 -0.254 0.464-0.145 0.705-0.188 0.09-0.019 0.125-0.125 0.235-0.188 0.052-0.03 0.092-0.061 0.141-0.094 0.082-0.058 0.221-0.169 0.235-0.235 0.01-0.06-0.056-0.144-0.047-0.188 0.01-0.057 0.114-0.114 0.188-0.188 0.114-0.115 0.186-0.255 0.328-0.329 0.096-0.052 0.285-0.064 0.329-0.141 0.011-0.087-3e-3 -0.108 0-0.188 0.06-0.054 0.045-0.083 0.094-0.093 0.148-0.033 0.298 0.055 0.47 0.046 0.074-3e-3 0.156 6e-3 0.235-0.046 0.065-0.044 0.122-0.109 0.188-0.141 0.071-0.039 0.147-0.136 0.235-0.141zm-17.241 0.141c0.036-6e-3 0.097 4e-3 0.141 0 0.063-3e-3 0.119 0 0.188 0 0.068 0 0.16-0.028 0.187 0-0.043 0.18-0.468 0.112-0.61 0.046 4e-3 -0.034 0.058-0.041 0.094-0.046zm-0.517 0.328c0.046 0 0.092-0.019 0.141 0-0.126 0.107-0.298 0.167-0.517 0.235-0.104 0.033-0.263 0.068-0.282-0.047-0.022-0.142 0.095-0.127 0.188-0.141 0.12-0.013 0.331-0.044 0.47-0.047zm17.805 0c-0.091 0.03-0.134 0.211 0 0.235 0.062-0.038 0.063-0.12 0.047-0.235-0.036-0.038-0.02-0.01-0.047 0zm-0.047 0.376c-0.044 0.014-0.095-2e-3 -0.141 0.047 3e-3 0.153 0.03 0.242 0 0.376 0.087 0.169 0.285 0.068 0.329-0.047 0.052-0.284-0.057-0.411-0.188-0.376zm1.174 0.752c-0.12-6e-3 -0.211 0.037-0.282 0.094 0.101 0.164 0.29 0.194 0.517 0.235 0.082-0.06 0.056-0.225 0.094-0.329-0.099 0-0.162 6e-3 -0.282 0h-0.047zm-23.865 5.778c0.096 0.123 0.2 0.265 0.329 0.329 0.069 0.035 0.148 0.028 0.235 0.047 0.071 0.013 0.12 0.072 0.188 0.094 0.145 0.049 0.355 0.042 0.47 0.094 0.175 0.076 0.272 0.382 0.423 0.47 7e-3 0.087-0.028 0.169 0 0.235 0.071 0.095 0.213 0.125 0.328 0.187 0.14 0.077 0.198 0.269 0.329 0.329 0.047 0.019 0.117-0.021 0.188 0 0.18 0.055 0.22 0.329 0.376 0.282 0.101-0.03 0.125-0.183 0.141-0.282 0.068-0.073 0.128-0.188 0.235-0.188 0.169-3e-3 0.219 0.21 0.282 0.376 0.035 0.093 0.116 0.184 0.141 0.282 0.041 0.17 0.035 0.651 0 0.752-0.044 0.125-0.225 0.192-0.329 0.329-0.049 0.065-0.103 0.144-0.141 0.188-0.066 0.081-0.139 0.114-0.188 0.187-0.027 0.041-0.023 0.131-0.047 0.188-0.082 0.175-0.209 0.307-0.141 0.517 0.027 0.085 0.141 0.181 0.141 0.282 0 0.12-0.263 0.151-0.282 0.282-0.013 0.095 0.111 0.294 0.141 0.423 0.022 0.095 0.177 0.172 0.235 0.235 0.095 0.106 0.194 0.239 0.282 0.375 0.172 0.265 0.253 0.586 0.422 0.846 0.091 0.134 0.269 0.234 0.329 0.376 0.03 0.071-0.027 0.216 0 0.282 0.099 0.221 0.578 0.454 0.799 0.563 0.104 0.052 0.186 0.087 0.282 0.141 0.145 0.082 0.443 0.248 0.517 0.376 0.065 0.115 0.108 0.381 0.141 0.564 0.041 0.24-0.011 0.445 0 0.705 7e-3 0.142 0.047 0.233 0.047 0.375 0 0.05 2e-3 0.139 0 0.188-3e-3 0.17 0.013 0.345 0 0.517-8e-3 0.093-7e-3 0.203 0 0.282 7e-3 0.085 0.088 0.114 0.093 0.188 6e-3 0.079-0.102 0.172-0.093 0.235 0.019 0.172 0.202 0.311 0.234 0.47 0.028 0.125 0.064 0.413 0.047 0.563-0.01 0.079-0.036 0.195-0.047 0.282-7e-3 0.069 0.011 0.125 0 0.188-3.745-2.406-6.248-6.586-6.248-11.369 0-0.613 0.062-1.193 0.141-1.785zm5.168 1.363c0.131-0.061 0.106 0.171 0 0.187-0.101 0.014-0.098-0.141 0-0.187z" style="fill-rule:nonzero;fill:url(#_Linear2)"/>
 </g>
 <defs>
  <linearGradient id="_Linear1" x2="1" gradientTransform="matrix(2.54933e-15,-41.6338,41.6338,2.54933e-15,445.153,52.7218)" gradientUnits="userSpaceOnUse">
   <stop style="stop-color:rgb(16,117,246)" offset="0"/>
   <stop style="stop-color:rgb(18,197,255)" offset="1"/>
  </linearGradient>
  <linearGradient id="_Linear2" x2="1" gradientTransform="matrix(1.84101e-15,30.0659,-30.0659,1.84101e-15,-525.302,18.5364)" gradientUnits="userSpaceOnUse">
   <stop style="stop-color:rgb(18,108,152)" offset="0"/>
   <stop style="stop-color:rgb(11,79,148)" offset="1"/>
  </linearGradient>
 </defs>
</svg>
