<svg clip-rule="evenodd" fill-rule="evenodd" stroke-linejoin="round" stroke-miterlimit="2" viewBox="0 0 48 48" xmlns="http://www.w3.org/2000/svg">
 <linearGradient id="a" x2="1" gradientTransform="matrix(0 -41.6338 41.6338 0 1399.41 52.7218)" gradientUnits="userSpaceOnUse">
  <stop stop-color="#1075f6" offset="0"/>
  <stop stop-color="#12c5ff" offset="1"/>
 </linearGradient>
 <linearGradient id="b" x2="1" gradientTransform="matrix(0 21.7592 -13.7029 0 -761.724 14.2529)" gradientUnits="userSpaceOnUse">
  <stop stop-color="#126c98" offset="0"/>
  <stop stop-color="#0b4f94" offset="1"/>
 </linearGradient>
 <path transform="scale(.75)" d="m61.122 15.88c0-2.762-2.239-5-5-5h-48.244c-2.761 0-5 2.238-5 5v32.246c0 2.761 2.239 5 5 5h48.244c2.761 0 5-2.239 5-5z" fill="#0083d5"/>
 <path transform="scale(.75)" d="m58.91 20.652c-.09-1.326-.704-2.598-1.706-3.536-1.002-.937-2.309-1.464-3.635-1.464h-25.58c-1.232 0-2.451-.455-3.424-1.277-.814-.689-1.817-1.535-2.632-2.224-.973-.822-2.192-1.277-3.424-1.277h-13.509c-1.326 0-2.561.527-3.435 1.465-.874.937-1.315 2.209-1.224 3.535l2.196 32.252c.188 2.761 2.58 5 5.341 5h48.244c2.761 0 4.847-2.239 4.659-5z" fill="url(#a)"/>
 <path d="m22.786 21.769-1.02 1.161c-.1.167-.255.295-.437.363l-2.728.568c-.447.167-2.104 1.244-2.271.799-.076-.203.378-.769.448-.958.084-.225 1.162-.425 1.405-.516l2.76-1.366s1.514-2.539 1.792-3.108c.079-.163.443-.456.443-.456l.276-.066.321 2.458.468-2.648 1.027-.247c.257-.063.641.064.793.169l3.187 2.188c.166.113.288.281.342.474l.683 3.523c.061.217.125.545.126.844 0 .333.492 1.04.251 1.109-.252.072-1.075-.259-1.173-.62-.079-.295-.017-1.01-.076-1.216l-.983-2.792-1.784-.604.012 5.256.294 3.728 2.824 3.766c.354.407.769.567.361.92-.204.178-.624.717-.98 1.233-.237.341-1.735.295-2.077.25-.292-.038-.091-.242-.173-.337l1.096-.377.381-1.136-3.12-3.28c-.137-.158-.219-.356-.236-.564l-.685-3.155-.279.004-1.91 3.038-2.257 4.634c-.114.528.122 1.307-.406 1.193-.219-.047-1.285-.266-2.104-.502-.52-.149-.823-.575-1.1-.744-.337-.206-.11-.517.045-.618l1.317.346 1.224-.31 1.748-4.912c.031-.144.093-.279.183-.394l2.25-4.154c.005-.007.01-.014.016-.02zm1.158-7.391c.881-.283 1.634-.091 1.7.659.074.828-.616 1.753-1.434 2.308-.766.519-1.112.035-1.396-.746-.181-.498-.307-1.079-.09-1.405.195-.29.903-.713 1.22-.816z" fill="url(#b)"/>
</svg>
