<svg style="clip-rule:evenodd;fill-rule:evenodd;stroke-linejoin:round;stroke-miterlimit:2" viewBox="0 0 48 48" xmlns="http://www.w3.org/2000/svg">
 <path d="m45.841 11.91c0-2.072-1.679-3.75-3.75-3.75h-36.183c-2.07 0-3.75 1.678-3.75 3.75v24.185c0 2.07 1.68 3.75 3.75 3.75h36.183c2.071 0 3.75-1.68 3.75-3.75v-24.185z" style="fill:#0083d5"/>
 <path d="m45.841 15.489c0-0.995-0.395-1.948-1.098-2.652-0.704-0.703-1.657-1.098-2.652-1.098h-19.185c-0.924 0-1.815-0.341-2.502-0.958-0.576-0.516-1.285-1.151-1.861-1.668-0.688-0.616-1.579-0.957-2.503-0.957h-10.131c-0.995 0-1.948 0.395-2.652 1.098-0.703 0.703-1.098 1.657-1.098 2.652v24.189c0 2.07 1.679 3.75 3.75 3.75h36.182c2.071 0 3.75-1.68 3.75-3.75v-20.606z" style="fill:url(#_Linear1)"/>
 <path d="m17.793 21.244c0.244 0 0.475 0.112 0.627 0.303l1.492 1.826c1.199-0.707 2.595-1.119 4.09-1.119 1.494 0 2.887 0.413 4.086 1.119l1.492-1.826c0.147-0.184 0.368-0.294 0.603-0.301h0.023c0.439 0 0.8 0.361 0.8 0.8 0 0.188-0.067 0.371-0.188 0.515l-1.433 1.754c1.441 1.294 2.408 3.1 2.613 5.131 0.04 0.808-0.795 0.808-0.795 0.808h-14.426s-0.812 1e-3 -0.775-0.769c0.196-2.046 1.166-3.866 2.615-5.168l-1.435-1.756c-0.122-0.144-0.189-0.327-0.189-0.516 0-0.439 0.361-0.801 0.8-0.801zm10.207 5.01c-0.552 0-1 0.448-1 1s0.448 1 1 1 1-0.448 1-1-0.448-1-1-1z" style="fill-rule:nonzero;fill:url(#_Linear2)"/>
 <circle cx="20" cy="27.254" r="1" style="fill:#1195fa"/>
 <defs>
  <linearGradient id="_Linear1" x2="1" gradientTransform="matrix(1.912e-15,-31.2253,31.2253,1.912e-15,333.865,39.5414)" gradientUnits="userSpaceOnUse">
   <stop style="stop-color:#1075f6" offset="0"/>
   <stop style="stop-color:#12c5ff" offset="1"/>
  </linearGradient>
  <linearGradient id="_Linear2" x2="1" gradientTransform="matrix(9.79657e-16,9.00953,-15.999,5.51675e-16,-6834.33,21.2446)" gradientUnits="userSpaceOnUse">
   <stop style="stop-color:#126d98" offset="0"/>
   <stop style="stop-color:#0e5d96" offset="1"/>
  </linearGradient>
 </defs>
</svg>
