<svg style="clip-rule:evenodd;fill-rule:evenodd;stroke-linejoin:round;stroke-miterlimit:2" viewBox="0 0 48 48" xmlns="http://www.w3.org/2000/svg">
 <g transform="scale(.75)">
  <path d="m61.122 15.88c0-2.762-2.239-5-5-5h-48.244c-2.761 0-5 2.238-5 5v32.246c0 2.761 2.239 5 5 5h48.244c2.761 0 5-2.239 5-5v-32.246z" style="fill:rgb(0,131,213)"/>
 </g>
 <g transform="scale(.75)">
  <path d="m61.122 20.652c0-1.326-0.527-2.598-1.465-3.536-0.938-0.937-2.209-1.464-3.535-1.464h-25.58c-1.232 0-2.42-0.455-3.337-1.277-0.768-0.689-1.713-1.535-2.481-2.224-0.917-0.822-2.105-1.277-3.337-1.277h-13.509c-1.326 0-2.597 0.527-3.535 1.465-0.938 0.937-1.465 2.209-1.465 3.535v32.252c0 2.761 2.239 5 5 5h48.244c2.761 0 5-2.239 5-5v-27.474z" style="fill:url(#_Linear1)"/>
 </g>
 <g transform="scale(.75)">
  <path d="m32.707 23.882c-3.717 2e-3 -7.083 2.26-8.495 5.698-3.586 0.367-6.345 3.421-6.349 7.025 0 3.878 3.191 7.069 7.069 7.069h16.611c2.538 0 4.594-2.058 4.594-4.595 0-1.735-0.971-3.227-2.391-4.009 0.632-0.761 0.977-1.719 0.977-2.706 0-2.327-1.915-4.24-4.241-4.24h-0.034c-1.686-2.64-4.609-4.241-7.741-4.242zm0.45 2.699c3.454 0 6.297 2.843 6.297 6.297 0 3.455-2.843 6.298-6.297 6.298-3.455 0-6.297-2.843-6.297-6.298 0-3.454 2.842-6.297 6.297-6.297zm0 1.799c-0.97 2e-3 -1.914 0.318-2.69 0.9h3.166c1.322 0 2.223 0.441 2.223 2.12 0 1.958-0.901 2.378-2.223 2.378h-1.376v2.699h-1.79c0.776 0.582 1.72 0.898 2.69 0.899 2.468 0 4.498-2.03 4.498-4.498 0-2.467-2.03-4.498-4.498-4.498zm-2.699 0.907c-1.13 0.847-1.797 2.179-1.799 3.591 2e-3 1.413 0.669 2.744 1.799 3.592v-7.183zm1.799 1.792v0.9h0.9c0.529 0 0.9 0 0.9-0.439 0-0.461-0.325-0.461-0.9-0.461h-0.9z" style="fill-rule:nonzero;fill:url(#_Linear2)"/>
 </g>
 <defs>
  <linearGradient id="_Linear1" x2="1" gradientTransform="matrix(2.54933e-15,-41.6338,41.6338,2.54933e-15,445.153,52.7218)" gradientUnits="userSpaceOnUse">
   <stop style="stop-color:rgb(16,117,246)" offset="0"/>
   <stop style="stop-color:rgb(18,197,255)" offset="1"/>
  </linearGradient>
  <linearGradient id="_Linear2" x2="1" gradientTransform="matrix(-.131565 19.7916 -19.7916 -.131565 -439.959 20.7401)" gradientUnits="userSpaceOnUse">
   <stop style="stop-color:rgb(18,108,152)" offset="0"/>
   <stop style="stop-color:rgb(11,79,148)" offset="1"/>
  </linearGradient>
 </defs>
</svg>
