<svg style="clip-rule:evenodd;fill-rule:evenodd;stroke-linejoin:round;stroke-miterlimit:2" viewBox="0 0 48 48" xmlns="http://www.w3.org/2000/svg">
 <g transform="scale(.75)">
  <path d="m61.122 15.88c0-2.762-2.239-5-5-5h-48.244c-2.761 0-5 2.238-5 5v32.246c0 2.761 2.239 5 5 5h48.244c2.761 0 5-2.239 5-5v-32.246z" style="fill:rgb(0,131,213)"/>
 </g>
 <g transform="scale(.75)">
  <path d="m61.122 20.652c0-1.326-0.527-2.598-1.465-3.536-0.938-0.937-2.209-1.464-3.535-1.464h-25.58c-1.232 0-2.42-0.455-3.337-1.277-0.768-0.689-1.713-1.535-2.481-2.224-0.917-0.822-2.105-1.277-3.337-1.277h-13.509c-1.326 0-2.597 0.527-3.535 1.465-0.938 0.937-1.465 2.209-1.465 3.535v32.252c0 2.761 2.239 5 5 5h48.244c2.761 0 5-2.239 5-5v-27.474z" style="fill:url(#_Linear1)"/>
 </g>
 <g transform="scale(.75)">
  <path d="m27.734 41.788c0.229 1.305 0.822 3.003 0.99 3.339 0.195 0.392 0.435 0.893 1.544 1.14 0.486 0.109 0.92 0.204 1.596 0.591 0.775 0.443 1.557 1.191 1.721 1.259 0.521 0.22 0.778-0.545 1.08-0.79 0.051 0.033-0.539 1.248-1.064 1.242-0.553-8e-3 -1.209-0.926-2.048-1.386-0.591-0.324-0.995-0.294-1.037-0.253-0.199 0.197-0.189 0.708 0.127 1.08 0.317 0.373 0.455 0.764-0.253 0.745-0.707-0.018-1.496 2e-3 -1.971-9e-3 -0.469-0.011-0.127-0.465-0.365-0.317-0.384 0.238-1.023 0.252-1.749 0.233 0.187-0.521 0.708-0.316 1.136-0.819s0.726-0.492 0.7-0.735c-0.073-0.688-0.131-1.408-0.251-2.081-0.243-1.372-0.145-2.703-0.156-3.239zm9.639-4e-3c0.067 0.632 0.128 2.953 0.277 4.171 0.039 0.314 0.083 1.179 0.27 1.372 0.757 0.782 1.914 0.515 2.19 1.384-0.715-0.278-0.883-0.05-1.907-0.069s-2.986-0.091-3.396-0.054c0.186-0.797 0.449-0.755 0.752-1.154 0.291-0.383 0.1-0.93-0.573-0.675-0.098 0.038 0.239-0.573 0.369-0.74 0.961-0.061 1.469-1.117 1.615-3.152 0.031-0.433 0.393-0.565 0.403-1.083zm-10.784-14.629c-0.621 1.915-1.86 5.157-1.9 6.894-0.028 1.242 0.238 2.977 0.833 4.125 0.529 1.021 1.433 2.315 1.724 2.715s-0.144-1.398-0.297-2.37c-0.152-0.972-0.434-2.955-0.463-3.67-0.028-0.715 0.244-8.126 0.103-7.694zm-2.699-6.436s0.391-0.586 0.992-0.586c0.6 0 1.256-0.07 1.717-0.224 0.461-0.153 1.452-0.893 2.164-0.865s2.096 0.539 2.779 1.201c0.71 0.687 1.707 1.83 2.561 3.248 1.154 1.916 1.998 2.13 3.092 5.155 0.591 1.634 0.802 3.713 0.807 4.98 0.011 2.829 0.073 5.146 0.304 6.93 0.077 0.593-1.295-1.274-1.529-2.445-0.319-1.598-0.536-4.624-0.866-6.071-0.387-1.703-1.099-3.281-1.117-3.84-0.017-0.558-0.157-2.269-0.698-3.019s-2.391-2.688-2.583-2.827c-0.192-0.14 0.227-0.489 0.855-0.21 0.629 0.279-0.331-1.187-0.837-1.606-0.507-0.419-0.871-0.404-1.038-0.087-0.333 0.631 0.225 0.973 0.633 1.152-0.192 0.227-1.253 0.332-1.76 0.436-0.506 0.105-1.182 0.827-1.521 1.559-0.214-0.284-0.282-1.814-0.817-2.135-0.578-0.346-1.068-0.745-1.868-0.785-0.523-0.026-1.27 0.039-1.27 0.039z" style="fill:url(#_Linear2)"/>
 </g>
 <defs>
  <linearGradient id="_Linear1" x2="1" gradientTransform="matrix(2.54933e-15,-41.6338,41.6338,2.54933e-15,445.153,52.7218)" gradientUnits="userSpaceOnUse">
   <stop style="stop-color:rgb(16,117,246)" offset="0"/>
   <stop style="stop-color:rgb(18,197,255)" offset="1"/>
  </linearGradient>
  <linearGradient id="_Linear2" x2="1" gradientTransform="matrix(-.0680961 -29.3494 29.3494 -.0680961 592.4 47.1955)" gradientUnits="userSpaceOnUse">
   <stop style="stop-color:rgb(0,45,79)" offset="0"/>
   <stop style="stop-color:rgb(14,90,149)" offset="1"/>
  </linearGradient>
 </defs>
</svg>
