<svg style="clip-rule:evenodd;fill-rule:evenodd;stroke-linejoin:round;stroke-miterlimit:2" viewBox="0 0 48 48" xmlns="http://www.w3.org/2000/svg">
 <path d="m45.841 11.91c0-2.072-1.679-3.75-3.75-3.75h-36.183c-2.07 0-3.75 1.678-3.75 3.75v24.185c0 2.07 1.68 3.75 3.75 3.75h36.183c2.071 0 3.75-1.68 3.75-3.75v-24.185z" style="fill:#0083d5"/>
 <path d="m45.841 15.489c0-0.995-0.395-1.948-1.098-2.652-0.704-0.703-1.657-1.098-2.652-1.098h-19.185c-0.924 0-1.815-0.341-2.502-0.958-0.576-0.516-1.285-1.151-1.861-1.668-0.688-0.616-1.579-0.957-2.503-0.957h-10.131c-0.995 0-1.948 0.395-2.652 1.098-0.703 0.703-1.098 1.657-1.098 2.652v24.189c0 2.07 1.679 3.75 3.75 3.75h36.182c2.071 0 3.75-1.68 3.75-3.75v-20.606z" style="fill:url(#_Linear1)"/>
 <path d="m18.16 20.212c-0.722 0-1.44 0.145-2.11 0.427-0.669 0.282-1.28 0.699-1.796 1.225-0.515 0.526-0.93 1.155-1.211 1.847s-0.425 1.439-0.425 2.19 0.144 1.498 0.425 2.19 0.696 1.319 1.211 1.845c0.516 0.525 1.127 0.942 1.796 1.225 0.654 0.276 1.356 0.418 2.061 0.424 0.017 1e-3 0.032 2e-3 0.049 2e-3 1.715 0.082 3.096-0.598 4.108-1.587 0.692-0.675 1.236-1.474 1.732-2.287 0.496 0.813 1.04 1.612 1.732 2.287 1.011 0.989 2.392 1.669 4.108 1.587 0.016 0 0.032-1e-3 0.049-2e-3 0.705-6e-3 1.406-0.148 2.06-0.424 0.669-0.283 1.281-0.7 1.796-1.225l5e-3 -7e-3c0.514-0.525 0.927-1.148 1.207-1.838 0.281-0.692 0.425-1.439 0.425-2.19s-0.144-1.498-0.425-2.19l-6e-3 -0.011c-0.282-0.687-0.692-1.312-1.206-1.836-0.515-0.526-1.127-0.942-1.796-1.225-0.668-0.282-1.387-0.426-2.109-0.426-1.807 0-3.234 0.742-4.288 1.776-0.609 0.597-1.103 1.28-1.552 1.978-0.448-0.698-0.942-1.381-1.551-1.978-1.054-1.034-2.481-1.776-4.289-1.776v-1e-3zm0.207 2.277c1.284 0 2.104 0.433 2.856 1.151 0.597 0.57 1.12 1.345 1.639 2.19-0.592 0.987-1.165 1.889-1.808 2.501-0.708 0.674-1.441 1.045-2.641 0.98h-0.046c-0.458 0-0.92-0.091-1.341-0.264-0.415-0.171-0.797-0.426-1.113-0.736l-0.014-0.011c-0.319-0.317-0.576-0.698-0.747-1.107-0.171-0.408-0.258-0.853-0.258-1.294 0-0.44 0.087-0.885 0.258-1.294 0.17-0.408 0.428-0.788 0.747-1.104l0.013-0.014c0.317-0.31 0.699-0.563 1.114-0.734 0.421-0.173 0.883-0.264 1.341-0.264zm11.266 0c0.457 0 0.919 0.091 1.34 0.264 0.415 0.171 0.797 0.423 1.114 0.734l0.013 0.013c0.319 0.317 0.576 0.696 0.747 1.105 0.171 0.407 0.258 0.852 0.258 1.293 0 0.44-0.087 0.885-0.258 1.294-0.17 0.408-0.428 0.79-0.746 1.107l-0.014 0.011c-0.316 0.31-0.698 0.565-1.113 0.736-0.421 0.173-0.883 0.264-1.341 0.264h-0.047c-1.199 0.065-1.932-0.306-2.64-0.98-0.644-0.611-1.216-1.514-1.808-2.501 0.519-0.845 1.042-1.62 1.638-2.189 0.753-0.72 1.573-1.152 2.857-1.152v1e-3zm-1.081 1.138v1.138h-1.138v2.276h1.138v1.139h2.277v-1.139h1.138v-2.276h-1.138v-1.138h-2.277zm-12.519 1.138v2.276h4.552v-2.276h-4.552z" style="fill-rule:nonzero;fill:url(#_Linear2)"/>
 <defs>
  <linearGradient id="_Linear1" x2="1" gradientTransform="matrix(1.912e-15,-31.2253,31.2253,1.912e-15,333.865,39.5414)" gradientUnits="userSpaceOnUse">
   <stop style="stop-color:#1075f6" offset="0"/>
   <stop style="stop-color:#12c5ff" offset="1"/>
  </linearGradient>
  <linearGradient id="_Linear2" x2="1" gradientTransform="matrix(1.3939e-15,11.3812,-22.7641,6.969e-16,-9734.33,20.2126)" gradientUnits="userSpaceOnUse">
   <stop style="stop-color:#126d98" offset="0"/>
   <stop style="stop-color:#0e5d96" offset="1"/>
  </linearGradient>
 </defs>
</svg>
