<svg style="clip-rule:evenodd;fill-rule:evenodd;stroke-linejoin:round;stroke-miterlimit:2" viewBox="0 0 48 48" xmlns="http://www.w3.org/2000/svg">
 <g transform="scale(.75)">
  <path d="m61.122 15.88c0-2.762-2.239-5-5-5h-48.244c-2.761 0-5 2.238-5 5v32.246c0 2.761 2.239 5 5 5h48.244c2.761 0 5-2.239 5-5v-32.246z" style="fill:rgb(0,131,213)"/>
 </g>
 <g transform="scale(.75)">
  <path d="m61.122 20.652c0-1.326-0.527-2.598-1.465-3.536-0.938-0.937-2.209-1.464-3.535-1.464h-25.58c-1.232 0-2.42-0.455-3.337-1.277-0.768-0.689-1.713-1.535-2.481-2.224-0.917-0.822-2.105-1.277-3.337-1.277h-13.509c-1.326 0-2.597 0.527-3.535 1.465-0.938 0.937-1.465 2.209-1.465 3.535v32.252c0 2.761 2.239 5 5 5h48.244c2.761 0 5-2.239 5-5v-27.474z" style="fill:url(#_Linear1)"/>
 </g>
 <g transform="scale(.75)">
  <path d="m25.747 22.838v4.169h12.506v-4.169h-12.506zm-2.679 6.254c-0.745 0-1.49 0.727-1.49 1.457v5.422c0 0.731 0.745 1.458 1.49 1.458h2.679v6.253h12.506v-6.253h2.679c0.745 0 1.49-0.727 1.49-1.457v-5.422c0-0.731-0.745-1.458-1.49-1.458h-17.864zm2.679 4.168h12.506v2.085h-12.506v-2.085z" style="fill-rule:nonzero;fill:url(#_Linear2)"/>
 </g>
 <defs>
  <linearGradient id="_Linear1" x2="1" gradientTransform="matrix(2.54933e-15,-41.6338,41.6338,2.54933e-15,445.153,52.7218)" gradientUnits="userSpaceOnUse">
   <stop style="stop-color:rgb(16,117,246)" offset="0"/>
   <stop style="stop-color:rgb(18,197,255)" offset="1"/>
  </linearGradient>
  <linearGradient id="_Linear2" x2="1" gradientTransform="matrix(.0490621 20.8438 -20.8438 .0490621 -444.031 23.959)" gradientUnits="userSpaceOnUse">
   <stop style="stop-color:rgb(18,108,152)" offset="0"/>
   <stop style="stop-color:rgb(11,79,148)" offset="1"/>
  </linearGradient>
 </defs>
</svg>
