<svg style="clip-rule:evenodd;fill-rule:evenodd;stroke-linejoin:round;stroke-miterlimit:2" viewBox="0 0 48 48" xmlns="http://www.w3.org/2000/svg">
 <g transform="scale(.75)">
  <path d="m61.122 15.88c0-2.762-2.239-5-5-5h-48.244c-2.761 0-5 2.238-5 5v32.246c0 2.761 2.239 5 5 5h48.244c2.761 0 5-2.239 5-5v-32.246z" style="fill:rgb(0,131,213)"/>
 </g>
 <g transform="scale(.75)">
  <path d="m61.122 20.652c0-1.326-0.527-2.598-1.465-3.536-0.938-0.937-2.209-1.464-3.535-1.464h-25.58c-1.232 0-2.42-0.455-3.337-1.277-0.768-0.689-1.713-1.535-2.481-2.224-0.917-0.822-2.105-1.277-3.337-1.277h-13.509c-1.326 0-2.597 0.527-3.535 1.465-0.938 0.937-1.465 2.209-1.465 3.535v32.252c0 2.761 2.239 5 5 5h48.244c2.761 0 5-2.239 5-5v-27.474z" style="fill:url(#_Linear1)"/>
 </g>
 <g transform="scale(.75)">
  <path d="m25.748 24.88c-3.933 0-7.12 3.187-7.12 7.12s3.187 7.12 7.12 7.12c3.013 0 5.698-1.906 6.702-4.747h5.165v2.526c0 0.322 0.128 0.632 0.357 0.861 0.228 0.228 0.538 0.356 0.86 0.356h2.312c0.323 0 0.632-0.128 0.86-0.356 0.229-0.229 0.358-0.539 0.358-0.861v-2.526h3.01v-4.746h-12.922c-1.004-2.841-3.689-4.747-6.702-4.747zm0 4.747c1.31 0 2.373 1.062 2.373 2.373 0 1.31-1.063 2.373-2.373 2.373-1.311 0-2.373-1.063-2.373-2.373 0-1.311 1.062-2.373 2.373-2.373z" style="fill-rule:nonzero;fill:url(#_Linear2)"/>
 </g>
 <defs>
  <linearGradient id="_Linear1" x2="1" gradientTransform="matrix(2.54933e-15,-41.6338,41.6338,2.54933e-15,445.153,52.7218)" gradientUnits="userSpaceOnUse">
   <stop style="stop-color:rgb(16,117,246)" offset="0"/>
   <stop style="stop-color:rgb(18,197,255)" offset="1"/>
  </linearGradient>
  <linearGradient id="_Linear2" x2="1" gradientTransform="matrix(-.115079 18.2303 -18.2303 -.115079 -420.115 20.1432)" gradientUnits="userSpaceOnUse">
   <stop style="stop-color:rgb(18,108,152)" offset="0"/>
   <stop style="stop-color:rgb(11,79,148)" offset="1"/>
  </linearGradient>
 </defs>
</svg>
