<svg style="clip-rule:evenodd;fill-rule:evenodd;stroke-linejoin:round;stroke-miterlimit:2" viewBox="0 0 64 64" xmlns="http://www.w3.org/2000/svg">
 <path d="m54 3.146c0-0.926-0.751-1.677-1.677-1.677h-34.705c-2.02 0-3.958 0.803-5.387 2.231-1.428 1.429-2.231 3.367-2.231 5.387v45.295c0 2.02 0.803 3.958 2.231 5.387 1.429 1.428 3.367 2.231 5.387 2.231h28.764c2.02 0 3.958-0.803 5.387-2.231 1.428-1.429 2.231-3.367 2.231-5.387v-51.236z" style="fill:url(#_Linear1)"/>
 <path d="m26.063 58.44h-0.754v-4.016h0.721v0.656h0.033c0.076-0.219 0.232-0.399 0.467-0.541 0.241-0.142 0.473-0.213 0.697-0.213s0.412 0.032 0.565 0.098l-0.287 0.705c-0.098-0.038-0.232-0.058-0.401-0.058-0.273 0-0.517 0.11-0.73 0.328-0.207 0.213-0.311 0.495-0.311 0.844v2.197z" style="fill-rule:nonzero;fill:#fff"/>
 <path d="m30.376 58.571c-0.306 0-0.582-0.066-0.828-0.197-0.24-0.131-0.42-0.295-0.541-0.492h-0.032l0.032 0.558v1.77h-0.754v-5.786h0.722v0.557h0.032c0.121-0.196 0.301-0.36 0.541-0.491 0.246-0.132 0.522-0.197 0.828-0.197 0.519 0 0.967 0.205 1.344 0.615 0.377 0.409 0.566 0.917 0.566 1.524 0 0.606-0.189 1.114-0.566 1.524s-0.825 0.615-1.344 0.615zm-0.123-0.689c0.35 0 0.65-0.131 0.902-0.393 0.251-0.268 0.377-0.62 0.377-1.057s-0.126-0.787-0.377-1.049c-0.252-0.268-0.552-0.402-0.902-0.402-0.355 0-0.658 0.131-0.91 0.394-0.245 0.262-0.368 0.614-0.368 1.057 0 0.442 0.123 0.795 0.368 1.057 0.252 0.262 0.555 0.393 0.91 0.393z" style="fill-rule:nonzero;fill:#fff"/>
 <path d="m32.928 58.44v-4.016h0.721v0.557h0.033c0.115-0.191 0.29-0.352 0.525-0.483 0.24-0.137 0.478-0.205 0.713-0.205 0.623 0 1.046 0.257 1.27 0.77 0.328-0.513 0.795-0.77 1.401-0.77 0.476 0 0.834 0.153 1.074 0.459 0.24 0.3 0.361 0.71 0.361 1.229v2.459h-0.754v-2.344c0-0.404-0.074-0.691-0.222-0.861-0.147-0.169-0.371-0.254-0.672-0.254-0.295 0-0.54 0.126-0.737 0.377-0.191 0.252-0.287 0.538-0.287 0.861v2.221h-0.754v-2.344c0-0.404-0.074-0.691-0.221-0.861-0.148-0.169-0.372-0.254-0.672-0.254-0.295 0-0.541 0.126-0.738 0.377-0.191 0.252-0.287 0.538-0.287 0.861v2.221h-0.754z" style="fill-rule:nonzero;fill:#fff"/>
 <path d="m39.357 10.788c-4.719 0-8.544 3.826-8.544 8.545v4.531h-4.51c-4.719 0-8.544 3.807-8.544 8.525 0 4.72 3.825 8.545 8.544 8.545 4.718 0 8.544-3.825 8.544-8.545v-4.549h4.51c4.718 0 8.544-3.789 8.544-8.507 0-4.719-3.826-8.545-8.544-8.545zm-8.544 21.607c-3e-3 2.486-2.022 4.502-4.51 4.502-2.49 0-4.528-2.019-4.528-4.509 0-2.492 2.038-4.548 4.528-4.548h3.873c0.352 0 0.637 0.284 0.637 0.636v3.919zm8.543-8.534h-3.873c-0.352 0-0.636-0.284-0.636-0.636v-3.899c4e-3 -2.488 2.021-4.503 4.509-4.503 2.491 0 4.529 2.019 4.529 4.51s-2.038 4.528-4.529 4.528z" style="fill-opacity:.2;fill-rule:nonzero;fill:#fff"/>
 <path d="m29.769 23.769v-4.531c0-4.719 3.825-8.545 8.544-8.545 0.716 0 1.225 0.081 1.888 0.254 0.966 0.254 1.755 1.045 1.756 1.967 0 1.114-0.809 1.924-2.017 1.924-0.576 0-0.784-0.11-1.627-0.11-2.488 0-4.505 2.015-4.51 4.503v3.898c0 0.352 0.285 0.637 0.637 0.637h2.963c1.104 0 1.995 0.883 1.996 1.99 0 1.107-0.892 1.988-1.996 1.988h-3.6v4.55c0 4.719-3.825 8.544-8.543 8.544-0.716 0-1.225-0.081-1.888-0.254-0.966-0.253-1.755-1.045-1.756-1.967 0-1.113 0.808-1.923 2.017-1.923 0.575 0 0.784 0.11 1.627 0.11 2.487 0 4.505-2.015 4.509-4.502v-3.919c0-0.352-0.285-0.636-0.637-0.636h-2.962c-1.104 0-1.996-0.881-1.996-1.988-1e-3 -1.114 0.901-1.991 2.017-1.991h3.578v1e-3z" style="fill-opacity:.85;fill-rule:nonzero;fill:#fff"/>
 <defs>
  <linearGradient id="_Linear1" x2="1" gradientTransform="matrix(3.03829e-15,-49.619,49.619,3.03829e-15,396.55,51.088)" gradientUnits="userSpaceOnUse">
   <stop style="stop-color:#47389d" offset="0"/>
   <stop style="stop-color:#20b9fa" offset="1"/>
  </linearGradient>
 </defs>
</svg>
