<svg style="clip-rule:evenodd;fill-rule:evenodd;stroke-linejoin:round;stroke-miterlimit:2" viewBox="0 0 64 64" xmlns="http://www.w3.org/2000/svg">
 <path d="m54 3.146c0-0.926-0.751-1.677-1.677-1.677h-34.705c-2.02 0-3.958 0.803-5.387 2.231-1.428 1.429-2.231 3.367-2.231 5.387v45.295c0 2.02 0.803 3.958 2.231 5.387 1.429 1.428 3.367 2.231 5.387 2.231h28.764c2.02 0 3.958-0.803 5.387-2.231 1.428-1.429 2.231-3.367 2.231-5.387v-51.236z" style="fill:url(#_Linear1)"/>
 <path d="m32.002 30.962c-2.112 0-3.85-1.738-3.85-3.85s1.738-3.85 3.85-3.85 3.85 1.738 3.85 3.85-1.738 3.85-3.85 3.85m8.173-2.783c0.044-0.352 0.077-0.704 0.077-1.067s-0.033-0.726-0.077-1.1l2.321-1.793c0.209-0.165 0.264-0.462 0.132-0.704l-2.2-3.806c-0.132-0.242-0.429-0.341-0.671-0.242l-2.739 1.1c-0.572-0.429-1.166-0.803-1.859-1.078l-0.407-2.915c-0.044-0.264-0.275-0.462-0.55-0.462h-4.4c-0.275 0-0.506 0.198-0.55 0.462l-0.407 2.915c-0.693 0.275-1.287 0.649-1.859 1.078l-2.739-1.1c-0.242-0.099-0.539 0-0.671 0.242l-2.2 3.806c-0.143 0.242-0.077 0.539 0.132 0.704l2.321 1.793c-0.044 0.374-0.077 0.737-0.077 1.1s0.033 0.715 0.077 1.067l-2.321 1.826c-0.209 0.165-0.275 0.462-0.132 0.704l2.2 3.806c0.132 0.242 0.429 0.33 0.671 0.242l2.739-1.111c0.572 0.44 1.166 0.814 1.859 1.089l0.407 2.915c0.044 0.264 0.275 0.462 0.55 0.462h4.4c0.275 0 0.506-0.198 0.55-0.462l0.407-2.915c0.693-0.286 1.287-0.649 1.859-1.089l2.739 1.111c0.242 0.088 0.539 0 0.671-0.242l2.2-3.806c0.132-0.242 0.077-0.539-0.132-0.704l-2.321-1.826z" style="fill-rule:nonzero;fill:#464d55"/>
 <path d="m23.283 58.235c0.258 0 0.483-0.076 0.676-0.23 0.195-0.154 0.302-0.35 0.32-0.59h0.688c-0.018 0.378-0.192 0.708-0.52 0.992-0.328 0.281-0.716 0.422-1.164 0.422-0.635 0-1.108-0.21-1.418-0.629-0.307-0.419-0.461-0.913-0.461-1.48v-0.164c0-0.568 0.154-1.062 0.461-1.481 0.31-0.419 0.783-0.629 1.418-0.629 0.495 0 0.895 0.147 1.199 0.442 0.305 0.291 0.467 0.655 0.485 1.09h-0.688c-0.018-0.261-0.117-0.482-0.297-0.665-0.177-0.182-0.41-0.273-0.699-0.273-0.297 0-0.53 0.076-0.699 0.227-0.167 0.151-0.285 0.342-0.355 0.574-0.068 0.232-0.102 0.47-0.102 0.715v0.164c0 0.247 0.034 0.487 0.102 0.718 0.067 0.232 0.184 0.424 0.351 0.575 0.169 0.148 0.404 0.222 0.703 0.222z" style="fill-rule:nonzero;fill:#fff"/>
 <path d="m25.588 56.685v-0.09c0-0.612 0.172-1.123 0.516-1.532 0.343-0.411 0.811-0.617 1.402-0.617 0.596 0 1.066 0.206 1.41 0.617 0.346 0.409 0.52 0.92 0.52 1.532v0.09c0 0.612-0.174 1.122-0.52 1.531-0.344 0.409-0.811 0.613-1.402 0.613-0.594 0-1.064-0.204-1.41-0.613-0.344-0.409-0.516-0.919-0.516-1.531zm0.723-0.09v0.09c0 0.419 0.099 0.782 0.296 1.089 0.201 0.308 0.503 0.461 0.907 0.461 0.396 0 0.694-0.153 0.894-0.461 0.201-0.307 0.301-0.67 0.301-1.089v-0.09c0-0.414-0.1-0.776-0.301-1.086-0.2-0.313-0.501-0.469-0.902-0.469-0.399 0-0.698 0.156-0.899 0.469-0.197 0.31-0.296 0.672-0.296 1.086z" style="fill-rule:nonzero;fill:#fff"/>
 <path d="m32.096 55.056c-0.232 0-0.436 0.062-0.614 0.187-0.177 0.125-0.316 0.288-0.418 0.488v3.02h-0.722v-4.227h0.683l0.024 0.528c0.32-0.404 0.741-0.606 1.262-0.606 0.416 0 0.746 0.117 0.988 0.352 0.245 0.234 0.367 0.629 0.367 1.183v2.77h-0.727v-2.777c0-0.331-0.072-0.567-0.218-0.707-0.144-0.141-0.352-0.211-0.625-0.211z" style="fill-rule:nonzero;fill:#fff"/>
 <path d="m36.592 55.079h-0.863v3.672h-0.723v-3.672h-0.668v-0.555h0.668v-0.367c0-0.479 0.138-0.846 0.414-1.101 0.276-0.258 0.654-0.387 1.133-0.387 0.187 0 0.371 0.023 0.551 0.07 0.179 0.045 0.364 0.101 0.554 0.168l-0.121 0.61c-0.12-0.047-0.259-0.092-0.418-0.133-0.156-0.044-0.328-0.067-0.515-0.067-0.31 0-0.534 0.071-0.672 0.211-0.136 0.138-0.203 0.348-0.203 0.629v0.367h0.863v0.555zm1.422-0.555v4.227h-0.723v-4.227h0.723z" style="fill-rule:nonzero;fill:#fff"/>
 <path d="m42.596 58.661c0 0.56-0.167 0.992-0.5 1.297-0.334 0.307-0.763 0.461-1.289 0.461-0.219 0-0.487-0.053-0.805-0.16s-0.572-0.298-0.762-0.574l0.379-0.43c0.177 0.216 0.362 0.364 0.555 0.445 0.193 0.084 0.385 0.125 0.578 0.125 0.341 0 0.613-0.096 0.816-0.289 0.203-0.19 0.305-0.47 0.305-0.84v-0.371c-0.286 0.336-0.681 0.504-1.184 0.504-0.507 0-0.911-0.203-1.21-0.609-0.3-0.407-0.45-0.918-0.45-1.535v-0.082c0-0.646 0.149-1.167 0.446-1.563 0.299-0.396 0.707-0.594 1.222-0.594 0.518 0 0.921 0.183 1.207 0.547l0.035-0.469h0.657v4.137zm-2.844-1.976c0 0.419 0.087 0.78 0.262 1.082 0.177 0.299 0.461 0.449 0.851 0.449 0.258 0 0.466-0.059 0.625-0.176 0.162-0.117 0.289-0.267 0.383-0.449v-1.926c-0.091-0.174-0.217-0.319-0.379-0.434-0.161-0.117-0.368-0.175-0.621-0.175-0.393 0-0.678 0.153-0.855 0.461-0.178 0.304-0.266 0.666-0.266 1.086v0.082z" style="fill-rule:nonzero;fill:#fff"/>
 <defs>
  <linearGradient id="_Linear1" x2="1" gradientTransform="matrix(3.03829e-15,-49.619,49.619,3.03829e-15,104.99,51.088)" gradientUnits="userSpaceOnUse">
   <stop style="stop-color:#758b9a" offset="0"/>
   <stop style="stop-color:#b5bdc2" offset="1"/>
  </linearGradient>
 </defs>
</svg>
