<svg clip-rule="evenodd" fill-rule="evenodd" stroke-linejoin="round" stroke-miterlimit="2" viewBox="0 0 48 48" xmlns="http://www.w3.org/2000/svg" xmlns:xlink="http://www.w3.org/1999/xlink"><linearGradient id="a" gradientTransform="matrix(0 -49.619 49.619 0 615.22 51.088)" gradientUnits="userSpaceOnUse" x1="0" x2="1" y1="0" y2="0"><stop offset="0" stop-color="#c8d0cd"/><stop offset="1" stop-color="#d8e8e1"/></linearGradient><path d="m54 3.146c0-.926-.751-1.677-1.677-1.677h-34.705c-2.02 0-3.958.803-5.387 2.231-1.428 1.429-2.231 3.367-2.231 5.387v45.295c0 2.02.803 3.958 2.231 5.387 1.429 1.428 3.367 2.231 5.387 2.231h28.764c2.02 0 3.958-.803 5.387-2.231 1.428-1.429 2.231-3.367 2.231-5.387z" fill="url(#a)" transform="matrix(.75 0 0 .75 -.000855 .199125)"/><g fill-rule="nonzero"><path d="m14.4 5c-.663 0-1.297.29-1.751.8l-9 10.134c-.834.94-.864 2.409-.068 3.385l18.6 22.801c.456.558 1.121.88 1.819.88s1.363-.322 1.819-.88l18.6-22.801c.796-.976.766-2.445-.068-3.385l-9-10.134c-.454-.51-1.088-.8-1.751-.8z" fill="#87d53c" transform="matrix(.545003 0 0 .545003 10.9195 10.9199)"/><path d="m14.4 5c-.663 0-1.298.29-1.752.801l-9 10.133c-.491.554-.722 1.313-.627 2.066h41.956c.095-.752-.134-1.512-.625-2.066l-9-10.133c-.454-.511-1.089-.801-1.752-.801z" fill-opacity=".2" transform="matrix(.545003 0 0 .545003 10.9195 10.9199)"/><path d="m5-17 9.835 17.035h-19.67z" fill="#87d53c" transform="matrix(.554132 0 0 .415907 21.229 20.7153)"/><path d="m24 43 10-25h-20z" fill-opacity=".2" transform="matrix(.545003 0 0 .545003 10.9195 10.9199)"/></g></svg>