<svg style="clip-rule:evenodd;fill-rule:evenodd;stroke-linejoin:round;stroke-miterlimit:2" viewBox="0 0 64 64" xmlns="http://www.w3.org/2000/svg">
 <path d="m54 3.146c0-0.926-0.751-1.677-1.677-1.677h-34.705c-2.02 0-3.958 0.803-5.387 2.231-1.428 1.429-2.231 3.367-2.231 5.387v45.295c0 2.02 0.803 3.958 2.231 5.387 1.429 1.428 3.367 2.231 5.387 2.231h28.764c2.02 0 3.958-0.803 5.387-2.231 1.428-1.429 2.231-3.367 2.231-5.387v-51.236z" style="fill:url(#_Linear1)"/>
 <path d="m25.358 60c-0.471 0-0.867-0.136-1.187-0.408-0.314-0.272-0.471-0.631-0.471-1.078 0-0.483 0.187-0.861 0.562-1.133 0.374-0.278 0.837-0.417 1.386-0.417 0.49 0 0.891 0.091 1.206 0.272v-0.127c0-0.326-0.112-0.586-0.336-0.779-0.223-0.199-0.498-0.299-0.824-0.299-0.242 0-0.463 0.057-0.662 0.172-0.193 0.115-0.326 0.272-0.399 0.471l-0.761-0.326c0.103-0.266 0.305-0.51 0.607-0.734 0.302-0.23 0.701-0.344 1.197-0.344 0.567 0 1.039 0.166 1.413 0.498 0.375 0.332 0.562 0.801 0.562 1.405v2.682h-0.797v-0.616h-0.037c-0.332 0.507-0.818 0.761-1.459 0.761zm4.829 0c-0.495 0-0.906-0.121-1.232-0.362-0.32-0.242-0.556-0.544-0.707-0.907l0.743-0.308c0.236 0.556 0.637 0.834 1.205 0.834 0.26 0 0.471-0.057 0.635-0.172 0.169-0.115 0.253-0.266 0.253-0.453 0-0.29-0.202-0.487-0.607-0.589l-0.897-0.218c-0.284-0.072-0.553-0.208-0.807-0.408-0.253-0.205-0.38-0.48-0.38-0.824 0-0.393 0.172-0.71 0.516-0.952 0.351-0.248 0.765-0.371 1.242-0.371 0.393 0 0.743 0.09 1.051 0.271 0.308 0.176 0.529 0.429 0.662 0.762l-0.725 0.299c-0.163-0.393-0.502-0.589-1.015-0.589-0.248 0-0.456 0.051-0.626 0.154-0.169 0.102-0.253 0.241-0.253 0.417 0 0.253 0.196 0.426 0.589 0.516l0.879 0.209c0.417 0.096 0.725 0.262 0.924 0.498s0.299 0.501 0.299 0.797c0 0.399-0.163 0.731-0.489 0.997s-0.746 0.399-1.26 0.399zm4.558 0c-0.665 0-1.212-0.224-1.64-0.671-0.429-0.453-0.644-1.018-0.644-1.694 0-0.677 0.215-1.239 0.644-1.686 0.428-0.453 0.975-0.679 1.64-0.679 0.495 0 0.906 0.12 1.232 0.362s0.565 0.547 0.716 0.915l-0.761 0.318c-0.23-0.556-0.644-0.834-1.242-0.834-0.368 0-0.694 0.151-0.978 0.453-0.278 0.302-0.417 0.686-0.417 1.151s0.139 0.849 0.417 1.151c0.284 0.302 0.61 0.453 0.978 0.453 0.623 0 1.052-0.278 1.287-0.834l0.743 0.317c-0.151 0.363-0.395 0.668-0.734 0.916-0.332 0.241-0.746 0.362-1.241 0.362zm3.602-0.145h-0.834v-4.44h0.834v4.44zm2 0h-0.834v-4.44h0.834v4.44zm-14.853-0.616c0.345 0 0.656-0.127 0.934-0.381 0.284-0.26 0.426-0.565 0.426-0.915-0.236-0.193-0.589-0.29-1.061-0.29-0.404 0-0.71 0.088-0.915 0.263s-0.308 0.38-0.308 0.616c0 0.217 0.094 0.39 0.281 0.516 0.187 0.127 0.402 0.191 0.643 0.191zm12.853-4.939c-0.115 0.115-0.254 0.172-0.417 0.172s-0.302-0.057-0.417-0.172-0.172-0.254-0.172-0.417 0.057-0.302 0.172-0.417 0.254-0.172 0.417-0.172 0.302 0.057 0.417 0.172 0.172 0.254 0.172 0.417-0.057 0.302-0.172 0.417zm2 0c-0.115 0.115-0.254 0.172-0.417 0.172s-0.302-0.057-0.417-0.172-0.172-0.254-0.172-0.417 0.057-0.302 0.172-0.417 0.254-0.172 0.417-0.172 0.302 0.057 0.417 0.172 0.172 0.254 0.172 0.417-0.057 0.302-0.172 0.417z" style="fill-rule:nonzero;fill:#fff"/>
 <path d="m38.6 29.2h-2.2v-4.4h2.2c2.43 0 4.4-1.97 4.4-4.4s-1.97-4.4-4.4-4.4-4.4 1.97-4.4 4.4v2.2h-4.4v-2.2c0-2.43-1.97-4.4-4.4-4.4s-4.4 1.97-4.4 4.4 1.97 4.4 4.4 4.4h2.2v4.4h-2.2c-2.43 0-4.4 1.97-4.4 4.4s1.97 4.4 4.4 4.4 4.4-1.97 4.4-4.4v-2.2h4.4v2.2c0 2.43 1.97 4.4 4.4 4.4s4.4-1.97 4.4-4.4-1.97-4.399-4.4-4.4zm0-11c1.215 0 2.2 0.985 2.2 2.2s-0.985 2.2-2.2 2.2h-2.2v-2.2c0-1.215 0.985-2.2 2.2-2.2zm-15.4 2.2c0-1.215 0.985-2.2 2.2-2.2s2.2 0.985 2.2 2.2v2.2h-2.2c-1.215 0-2.2-0.985-2.2-2.2zm2.2 15.4c-1.215 0-2.2-0.985-2.2-2.2s0.985-2.2 2.2-2.2h2.2v2.2c0 1.215-0.985 2.2-2.2 2.2zm4.4-6.6v-4.4h4.4v4.4h-4.4zm8.8 6.6c-1.215 0-2.2-0.985-2.2-2.2v-2.2h2.2c1.215 0 2.2 0.985 2.2 2.2s-0.985 2.2-2.2 2.2z" style="fill-rule:nonzero;fill:#464d55"/>
 <defs>
  <linearGradient id="_Linear1" x2="1" gradientTransform="matrix(3.03829e-15,-49.619,49.619,3.03829e-15,104.99,51.088)" gradientUnits="userSpaceOnUse">
   <stop style="stop-color:#758b9a" offset="0"/>
   <stop style="stop-color:#b5bdc2" offset="1"/>
  </linearGradient>
 </defs>
</svg>
