<svg style="clip-rule:evenodd;fill-rule:evenodd;stroke-linejoin:round;stroke-miterlimit:2" viewBox="0 0 64 64" xmlns="http://www.w3.org/2000/svg">
 <path d="m54 3.146c0-0.926-0.751-1.677-1.677-1.677h-34.705c-2.02 0-3.958 0.803-5.387 2.231-1.428 1.429-2.231 3.367-2.231 5.387v45.295c0 2.02 0.803 3.958 2.231 5.387 1.429 1.428 3.367 2.231 5.387 2.231h28.764c2.02 0 3.958-0.803 5.387-2.231 1.428-1.429 2.231-3.367 2.231-5.387v-51.236z" style="fill:url(#_Linear1)"/>
 <path d="m28.701 58.971c-0.448 0-0.82-0.109-1.115-0.328-0.289-0.218-0.502-0.492-0.639-0.819l0.672-0.279c0.213 0.503 0.576 0.754 1.09 0.754 0.235 0 0.426-0.052 0.574-0.156 0.153-0.104 0.229-0.24 0.229-0.41 0-0.262-0.183-0.439-0.549-0.532l-0.811-0.197c-0.257-0.066-0.5-0.189-0.73-0.369-0.229-0.186-0.344-0.434-0.344-0.746 0-0.355 0.156-0.642 0.467-0.86 0.317-0.224 0.691-0.336 1.123-0.336 0.355 0 0.672 0.082 0.951 0.246 0.278 0.158 0.478 0.388 0.598 0.688l-0.656 0.271c-0.147-0.356-0.453-0.533-0.918-0.533-0.224 0-0.412 0.046-0.565 0.139s-0.229 0.219-0.229 0.377c0 0.23 0.177 0.385 0.532 0.467l0.795 0.189c0.377 0.087 0.656 0.238 0.836 0.451s0.271 0.453 0.271 0.721c0 0.36-0.148 0.661-0.443 0.901-0.295 0.241-0.675 0.361-1.139 0.361z" style="fill-rule:nonzero;fill:#fff"/>
 <path d="m34.036 60.61v-1.77l0.032-0.558h-0.032c-0.121 0.197-0.304 0.361-0.55 0.492-0.24 0.131-0.513 0.197-0.819 0.197-0.519 0-0.967-0.205-1.344-0.615s-0.566-0.918-0.566-1.524c0-0.607 0.189-1.115 0.566-1.524 0.377-0.41 0.825-0.615 1.344-0.615 0.306 0 0.579 0.065 0.819 0.197 0.246 0.131 0.429 0.295 0.55 0.491h0.032v-0.557h0.722v5.786h-0.754zm-1.246-2.328c0.355 0 0.656-0.131 0.901-0.393 0.252-0.262 0.377-0.615 0.377-1.057 0-0.443-0.125-0.795-0.377-1.057-0.245-0.263-0.546-0.394-0.901-0.394-0.35 0-0.65 0.134-0.902 0.402-0.251 0.262-0.377 0.612-0.377 1.049s0.126 0.789 0.377 1.057c0.252 0.262 0.552 0.393 0.902 0.393z" style="fill-rule:nonzero;fill:#fff"/>
 <rect x="35.677" y="52.972" width=".754" height="5.868" style="fill-rule:nonzero;fill:#fff"/>
 <path d="m21.253 24.634c0.303 0.32 0.748 0.32 0.894 0.32 0.272 0 0.608-0.045 1.089-0.146 0.377-0.079 0.703-0.158 0.99-0.228 0.564-0.137 0.972-0.236 1.356-0.236 0.216 0 0.611 0.094 1.029 0.193 0.651 0.155 1.461 0.347 2.245 0.347 0.791 0 1.624-0.061 2.149-0.109 0.174 0.654 0.589 1.731 1.53 2.502 1.279 1.049 2.228 1.516 2.268 1.536 0.243 0.118 0.535 0.056 0.708-0.151 0.174-0.207 0.184-0.506 0.026-0.724-6e-3 -8e-3 -0.645-0.912-0.621-1.928 0.01-0.404 0.025-0.721 0.04-0.962 0.797 0.235 2.154 0.76 2.854 1.749 1.06 1.497 1.495 3.802 1.379 4.559-0.122 0.788-0.136 0.788-0.51 0.788-0.815 0-1.499 0.033-2.27 0.453-0.682 0.371-1.057 0.777-1.098 0.822-0.153 0.17-0.194 0.413-0.104 0.623 0.089 0.211 0.292 0.35 0.52 0.359 0.221 8e-3 0.887 0.063 1.316 0.219 0.227 0.083 0.423 0.179 0.613 0.273 0.303 0.149 0.59 0.291 0.924 0.33 0.109 0.013 0.22 0.019 0.326 0.017 0.123 0.286 0.333 0.628 0.685 0.898 0.27 0.207 0.545 0.335 0.787 0.448 0.298 0.138 0.533 0.248 0.713 0.472 0.473 0.586 0.632 1.222 0.633 1.228 0.062 0.254 0.285 0.439 0.546 0.45 9e-3 1e-3 0.018 1e-3 0.027 1e-3 0.25 0 0.475-0.158 0.557-0.397 0.036-0.107 0.347-1.09-0.066-2.529-0.148-0.515-0.376-0.96-0.597-1.391-0.36-0.7-0.671-1.305-0.54-2.047 0.612-3.484 0.57-6.318-0.126-8.421-1.082-3.271-3.702-5.093-4.216-5.425-0.255-0.165-0.485-0.31-0.679-0.43 0.18-0.143 0.408-0.294 0.679-0.409 0.617-0.262 0.877-0.334 0.949-0.351h0.013c0.256 0 0.453-0.169 0.528-0.419 0.078-0.259-0.066-0.538-0.3-0.675-0.044-0.027-1.104-0.643-2.502-0.643-0.288 0-0.574 0.026-0.851 0.078-0.862 0.163-1.471 0.406-2.06 0.641-0.575 0.23-1.118 0.446-1.929 0.617-0.394 0.083-0.757 0.147-1.108 0.209-1.207 0.213-2.249 0.397-3.808 1.193-2.034 1.039-3.178 2.176-3.221 3.201-9e-3 0.216-4e-3 0.409 0.015 0.578-0.191 0.095-0.422 0.216-0.656 0.349-0.951 0.541-1.35 0.946-1.377 1.398-0.018 0.315 0.066 0.574 0.251 0.77z" style="fill-rule:nonzero;fill:#3f546c"/>
 <defs>
  <linearGradient id="_Linear1" x2="1" gradientTransform="matrix(3.03829e-15,-49.619,49.619,3.03829e-15,104.99,51.088)" gradientUnits="userSpaceOnUse">
   <stop style="stop-color:#70a8eb" offset="0"/>
   <stop style="stop-color:#d2e6ff" offset="1"/>
  </linearGradient>
 </defs>
</svg>
