<svg clip-rule="evenodd" fill-rule="evenodd" stroke-linejoin="round" stroke-miterlimit="2" viewBox="0 0 64 64" xmlns="http://www.w3.org/2000/svg">
 <linearGradient id="a" x2="1" gradientTransform="matrix(0 -49.619 49.619 0 250.77 51.088)" gradientUnits="userSpaceOnUse">
  <stop stop-color="#c0c0c0" offset="0"/>
  <stop stop-color="#ebebeb" offset="1"/>
 </linearGradient>
 <path d="m54 3.146c0-.926-.751-1.677-1.677-1.677h-34.705c-2.02 0-3.958.803-5.387 2.231-1.428 1.429-2.231 3.367-2.231 5.387v45.295c0 2.02.803 3.958 2.231 5.387 1.429 1.428 3.367 2.231 5.387 2.231h28.764c2.02 0 3.958-.803 5.387-2.231 1.428-1.429 2.231-3.367 2.231-5.387z" fill="url(#a)"/>
 <path d="m32 17.734c-.47.001-.94.026-1.408.074-.445.045-.884.112-1.315.197-.02.003-.039.006-.058.008-.406.083-.802.19-1.195.307-.055.014-.111.029-.167.043-.442.138-.876.294-1.298.474-.418.176-.827.374-1.225.59-.791.43-1.538.936-2.232 1.51-.346.285-.678.587-.995.905-.302.303-.591.619-.864.948-.016.02-.033.038-.049.058-.221.273-.432.555-.632.845-.071.1-.145.198-.213.301-.152.232-.297.469-.435.711-.097.166-.197.33-.287.5-.112.217-.219.436-.32.659-.094.201-.186.403-.271.61-.083.211-.162.424-.235.639-.079.227-.159.453-.227.684-.057.203-.11.407-.158.613-.06.243-.12.487-.167.735-.042.235-.077.471-.107.708-.03.22-.06.439-.079.662-.039.405-.06.812-.063 1.22.001.47.026.94.074 1.408.241 2.392 1.088 4.608 2.384 6.494.012.017.024.035.036.052.1.144.203.286.309.426 0-.004.002-.009.003-.013 2.556 3.41 6.617 5.633 11.194 5.633 2.629 0 5.084-.743 7.189-2.01l.002.003c.029-.019.057-.039.085-.058.334-.204.659-.42.974-.651.072-.053.144-.107.216-.161.276-.211.544-.431.804-.662.105-.094.209-.19.311-.287.217-.204.426-.414.629-.631.121-.129.24-.259.356-.391.191-.22.372-.447.549-.679.097-.125.192-.251.285-.38.186-.261.359-.53.527-.804.07-.111.139-.223.205-.336.167-.289.319-.587.465-.889.058-.115.113-.23.167-.347.131-.29.247-.588.358-.889.055-.142.107-.285.156-.429.097-.29.18-.585.257-.883.041-.15.079-.3.115-.451.063-.282.113-.568.159-.856.032-.189.06-.379.084-.569.029-.246.045-.496.061-.746.025-.298.04-.596.046-.894 0-.473-.025-.938-.071-1.398l-.003-.011c-.045-.445-.111-.883-.197-1.315-.004-.019-.004-.039-.008-.057-.082-.406-.19-.803-.306-1.195-.016-.053-.025-.109-.041-.162l-.006-.019c-.136-.438-.293-.866-.47-1.285-.177-.418-.374-.826-.591-1.225-.43-.79-.935-1.538-1.509-2.231-.286-.346-.588-.678-.905-.995-.303-.303-.62-.591-.949-.865-.016-.013-.031-.027-.047-.041-.003-.002-.007-.005-.01-.008-.274-.221-.556-.432-.845-.631-.101-.071-.199-.145-.301-.214-.233-.152-.47-.297-.711-.434-.166-.098-.33-.197-.5-.288-.217-.112-.437-.219-.659-.32-.202-.093-.404-.186-.61-.27-.211-.084-.425-.162-.64-.235-.226-.08-.452-.159-.683-.227-.203-.058-.408-.111-.613-.159-.244-.06-.487-.12-.736-.167-.235-.041-.471-.077-.708-.106-.22-.03-.439-.06-.661-.08-.406-.038-.813-.059-1.22-.063zm-2.127 2.021 1.891 4.441 3.236-2.748v7.678l7.5 6.108-2.305 1.533-6.407-.065 3.588 4.865c-1.595.871-3.425 1.367-5.376 1.367-4.667 0-8.649-2.83-10.336-6.874.883-3.411 2.202-6.705 4.091-8.542.806-2.965 2.378-5.42 4.118-7.763zm2.227 10.579.001 1.193 2.699.207c-.347-.839-1.102-1.225-2.7-1.4z" fill="#a7695f" fill-rule="nonzero"/>
</svg>
