<svg clip-rule="evenodd" fill-rule="evenodd" stroke-linejoin="round" stroke-miterlimit="2" viewBox="0 0 64 64" xmlns="http://www.w3.org/2000/svg">
 <linearGradient id="a" x2="1" gradientTransform="matrix(0 -49.619 49.619 0 177.88 51.088)" gradientUnits="userSpaceOnUse">
  <stop stop-color="#acc2d0" offset="0"/>
  <stop stop-color="#e1e1e1" offset="1"/>
 </linearGradient>
 <path d="m54 3.146c0-.926-.751-1.677-1.677-1.677h-34.705c-2.02 0-3.958.803-5.387 2.231-1.428 1.429-2.231 3.367-2.231 5.387v45.295c0 2.02.803 3.958 2.231 5.387 1.429 1.428 3.367 2.231 5.387 2.231h28.764c2.02 0 3.958-.803 5.387-2.231 1.428-1.429 2.231-3.367 2.231-5.387z" fill="url(#a)"/>
 <g fill-rule="nonzero">
  <path d="m31.887 17c-8.186 0.062-14.887 6.814-14.887 15 0 8.229 6.771 15 15 15s15-6.771 15-15-6.771-15-15-15h-0.113zm0.103 6h0.01c4.937 0 9 4.063 9 9s-4.063 9-9 9-9-4.063-9-9c0-4.934 4.057-8.995 8.99-9z" fill="#0959ff"/>
  <path d="m18.376 25.781c-.9 1.949-1.369 4.07-1.375 6.217 0 2.219.506 4.324 1.375 6.221l5.25-3.001c-.405-1.025-.617-2.117-.627-3.22 0-1.134.242-2.219.627-3.216m22.001-3.001-5.253 3.001c.385.997.627 2.078.627 3.216s-.242 2.219-.624 3.22l5.25 3.001c.866-1.897 1.372-4.002 1.372-6.221s-.506-4.324-1.372-6.217m-16.845 14.596-3.001 5.247c1.897.869 4.002 1.375 6.221 1.375s4.324-.506 6.217-1.375l-3.001-5.25c-.997.385-2.078.627-3.216.627s-2.219-.242-3.22-.627m3.22-23.373c-2.219 0-4.324.506-6.221 1.372l3.001 5.253c1.001-.385 2.078-.627 3.22-.627 1.134 0 2.219.242 3.216.624l3.001-5.25c-1.949-.9-4.07-1.368-6.217-1.372" fill="#ffffff"/>
 </g>
</svg>
