<svg style="clip-rule:evenodd;fill-rule:evenodd;stroke-linejoin:round;stroke-miterlimit:2" viewBox="0 0 64 64" xmlns="http://www.w3.org/2000/svg">
 <path d="m54 3.146c0-0.926-0.751-1.677-1.677-1.677h-34.705c-2.02 0-3.958 0.803-5.387 2.231-1.428 1.429-2.231 3.367-2.231 5.387v45.295c0 2.02 0.803 3.958 2.231 5.387 1.429 1.428 3.367 2.231 5.387 2.231h28.764c2.02 0 3.958-0.803 5.387-2.231 1.428-1.429 2.231-3.367 2.231-5.387v-51.236z" style="fill:url(#_Linear1)"/>
 <path d="m30.045 59.271c-0.601 0-1.095-0.202-1.483-0.607-0.388-0.409-0.582-0.92-0.582-1.532s0.194-1.12 0.582-1.524c0.388-0.41 0.882-0.615 1.483-0.615 0.448 0 0.82 0.109 1.115 0.328 0.295 0.218 0.511 0.494 0.647 0.827l-0.688 0.287c-0.208-0.502-0.582-0.754-1.123-0.754-0.333 0-0.628 0.137-0.885 0.41-0.251 0.273-0.377 0.62-0.377 1.041s0.126 0.768 0.377 1.041c0.257 0.273 0.552 0.41 0.885 0.41 0.563 0 0.951-0.252 1.164-0.754l0.672 0.286c-0.137 0.328-0.358 0.604-0.664 0.828-0.3 0.219-0.675 0.328-1.123 0.328z" style="fill-rule:nonzero;fill:#fff"/>
 <path d="m34.115 59.271c-0.519 0-0.967-0.205-1.344-0.615-0.377-0.409-0.565-0.918-0.565-1.524 0-0.607 0.188-1.115 0.565-1.524 0.377-0.41 0.825-0.615 1.344-0.615 0.306 0 0.58 0.065 0.82 0.197 0.246 0.131 0.429 0.295 0.549 0.491h0.033l-0.033-0.557v-1.852h0.754v5.868h-0.721v-0.557h-0.033c-0.12 0.196-0.303 0.36-0.549 0.491-0.24 0.131-0.514 0.197-0.82 0.197zm0.123-0.688c0.355 0 0.656-0.132 0.902-0.394 0.251-0.262 0.377-0.615 0.377-1.057 0-0.443-0.126-0.795-0.377-1.057-0.246-0.263-0.547-0.394-0.902-0.394-0.349 0-0.65 0.134-0.901 0.402-0.252 0.262-0.377 0.612-0.377 1.049s0.125 0.789 0.377 1.057c0.251 0.262 0.552 0.394 0.901 0.394z" style="fill-rule:nonzero;fill:#fff"/>
 <path d="m32 16.539c-2.671 0-5.343 1.023-7.39 3.07-4.093 4.094-4.093 10.686 0 14.78 4.094 4.093 10.686 4.093 14.78 0 4.094-4.094 4.094-10.686 0-14.78-2.047-2.047-4.719-3.07-7.39-3.07z" style="fill-rule:nonzero;fill:#fbff41"/>
 <path d="m26.495 17.474c-5.257 3.043-7.057 9.77-4.017 15.03 3.04 5.259 9.77 7.058 15.027 4.018 5.26-3.043 7.056-9.769 4.016-15.028s-9.765-7.056-15.026-4.02zm5.502 9.404l9.058 0.233c-0.012 0.756-0.115 1.508-0.308 2.237-0.598 2.225-2.025 4.215-4.161 5.469l-4.585-7.93-4.78 7.836c-1.233-0.763-2.306-1.828-3.085-3.177-0.818-1.414-1.207-2.955-1.216-4.477l9.074-0.193-4.482-7.754c2.155-1.221 4.591-1.47 6.817-0.874 0.64 0.171 1.261 0.414 1.851 0.722l-4.183 7.908z" style="fill-rule:nonzero;fill:#232425"/>
 <defs>
  <linearGradient id="_Linear1" x2="1" gradientTransform="matrix(3.03829e-15,-49.619,49.619,3.03829e-15,104.99,51.088)" gradientUnits="userSpaceOnUse">
   <stop style="stop-color:#454545" offset="0"/>
   <stop style="stop-color:#696969" offset="1"/>
  </linearGradient>
 </defs>
</svg>
