<svg style="clip-rule:evenodd;fill-rule:evenodd;stroke-linejoin:round;stroke-miterlimit:2" viewBox="0 0 64 64" xmlns="http://www.w3.org/2000/svg">
 <path d="m54 3.146c0-0.926-0.751-1.677-1.677-1.677h-34.705c-2.02 0-3.958 0.803-5.387 2.231-1.428 1.429-2.231 3.367-2.231 5.387v45.295c0 2.02 0.803 3.958 2.231 5.387 1.429 1.428 3.367 2.231 5.387 2.231h28.764c2.02 0 3.958-0.803 5.387-2.231 1.428-1.429 2.231-3.367 2.231-5.387v-51.236z" style="fill:url(#_Linear1)"/>
 <path d="m17.479 56.332l-0.424 0.443v1.392h-0.678v-5.625h0.678v3.402l0.362-0.436 1.234-1.304h0.824l-1.542 1.656 1.722 2.307h-0.795l-1.381-1.835z" style="fill-rule:nonzero;fill:#fff"/>
 <path d="m21.753 58.24c-0.537 0-0.974-0.176-1.311-0.527-0.337-0.354-0.505-0.827-0.505-1.418v-0.124c0-0.393 0.074-0.744 0.223-1.051 0.151-0.31 0.361-0.552 0.63-0.725 0.271-0.176 0.564-0.264 0.879-0.264 0.515 0 0.915 0.17 1.201 0.509s0.428 0.825 0.428 1.458v0.282h-2.684c0.01 0.39 0.123 0.706 0.341 0.948 0.219 0.239 0.498 0.359 0.835 0.359 0.239 0 0.442-0.049 0.608-0.147 0.166-0.097 0.311-0.227 0.435-0.388l0.414 0.323c-0.332 0.51-0.83 0.765-1.494 0.765zm-0.084-3.552c-0.274 0-0.503 0.1-0.689 0.3-0.185 0.198-0.3 0.476-0.344 0.835h1.985v-0.051c-0.02-0.345-0.112-0.611-0.278-0.799-0.166-0.19-0.391-0.285-0.674-0.285z" style="fill-rule:nonzero;fill:#fff"/>
 <path d="m25.331 57.174l0.923-2.97h0.725l-1.593 4.574c-0.247 0.659-0.639 0.989-1.176 0.989l-0.128-0.011-0.253-0.048v-0.549l0.184 0.015c0.229 0 0.407-0.047 0.534-0.139 0.13-0.093 0.236-0.263 0.319-0.509l0.15-0.403-1.414-3.919h0.74l0.989 2.97z" style="fill-rule:nonzero;fill:#fff"/>
 <path d="m30.927 56.229c0 0.603-0.138 1.089-0.414 1.458s-0.65 0.553-1.121 0.553c-0.481 0-0.859-0.153-1.135-0.458v1.908h-0.678v-5.486h0.619l0.033 0.44c0.276-0.342 0.659-0.513 1.15-0.513 0.476 0 0.852 0.179 1.128 0.538 0.278 0.359 0.418 0.858 0.418 1.498v0.062zm-0.678-0.077c0-0.446-0.095-0.799-0.286-1.058-0.19-0.259-0.451-0.388-0.783-0.388-0.41 0-0.718 0.182-0.923 0.546v1.893c0.203 0.361 0.513 0.542 0.93 0.542 0.325 0 0.582-0.128 0.773-0.385 0.193-0.258 0.289-0.642 0.289-1.15z" style="fill-rule:nonzero;fill:#fff"/>
 <path d="m34.23 58.167c-0.039-0.078-0.071-0.218-0.095-0.418-0.315 0.327-0.691 0.491-1.128 0.491-0.391 0-0.712-0.11-0.963-0.33-0.249-0.222-0.374-0.503-0.374-0.842 0-0.413 0.156-0.732 0.469-0.959 0.315-0.23 0.757-0.345 1.325-0.345h0.66v-0.311c0-0.237-0.071-0.425-0.213-0.564-0.141-0.142-0.35-0.212-0.626-0.212-0.242 0-0.444 0.061-0.608 0.183-0.163 0.122-0.245 0.27-0.245 0.443h-0.681c0-0.198 0.069-0.388 0.208-0.571 0.142-0.186 0.332-0.332 0.572-0.44 0.241-0.107 0.506-0.161 0.794-0.161 0.457 0 0.815 0.115 1.073 0.344 0.259 0.227 0.393 0.541 0.403 0.941v1.824c0 0.364 0.047 0.653 0.139 0.868v0.059h-0.71zm-1.124-0.517c0.212 0 0.413-0.055 0.604-0.165 0.19-0.109 0.328-0.252 0.414-0.428v-0.813h-0.531c-0.83 0-1.245 0.243-1.245 0.729 0 0.212 0.07 0.378 0.212 0.498 0.142 0.119 0.323 0.179 0.546 0.179z" style="fill-rule:nonzero;fill:#fff"/>
 <path d="m38.178 57.116c0-0.183-0.07-0.325-0.209-0.425-0.137-0.103-0.377-0.191-0.722-0.264-0.341-0.073-0.614-0.161-0.816-0.264-0.2-0.102-0.349-0.224-0.447-0.366-0.095-0.141-0.143-0.31-0.143-0.505 0-0.325 0.137-0.599 0.41-0.824 0.276-0.225 0.628-0.337 1.055-0.337 0.449 0 0.813 0.116 1.091 0.348 0.281 0.232 0.421 0.528 0.421 0.89h-0.681c0-0.186-0.079-0.346-0.238-0.48-0.156-0.134-0.354-0.201-0.593-0.201-0.247 0-0.439 0.053-0.579 0.161-0.139 0.107-0.208 0.248-0.208 0.421 0 0.163 0.064 0.287 0.194 0.37 0.129 0.083 0.362 0.162 0.699 0.238 0.34 0.076 0.614 0.166 0.824 0.271s0.365 0.232 0.465 0.381c0.103 0.146 0.154 0.326 0.154 0.538 0 0.354-0.142 0.638-0.425 0.853-0.283 0.213-0.65 0.319-1.102 0.319-0.317 0-0.598-0.056-0.842-0.169-0.244-0.112-0.436-0.268-0.575-0.468-0.137-0.203-0.205-0.421-0.205-0.656h0.677c0.012 0.227 0.103 0.408 0.271 0.542 0.171 0.132 0.396 0.198 0.674 0.198 0.256 0 0.461-0.051 0.615-0.154 0.156-0.105 0.235-0.244 0.235-0.417z" style="fill-rule:nonzero;fill:#fff"/>
 <path d="m42.045 57.116c0-0.183-0.07-0.325-0.209-0.425-0.137-0.103-0.377-0.191-0.721-0.264-0.342-0.073-0.614-0.161-0.817-0.264-0.2-0.102-0.349-0.224-0.447-0.366-0.095-0.141-0.143-0.31-0.143-0.505 0-0.325 0.137-0.599 0.411-0.824 0.275-0.225 0.627-0.337 1.054-0.337 0.449 0 0.813 0.116 1.091 0.348 0.281 0.232 0.422 0.528 0.422 0.89h-0.682c0-0.186-0.079-0.346-0.238-0.48-0.156-0.134-0.354-0.201-0.593-0.201-0.246 0-0.439 0.053-0.578 0.161-0.14 0.107-0.209 0.248-0.209 0.421 0 0.163 0.065 0.287 0.194 0.37s0.362 0.162 0.699 0.238c0.34 0.076 0.614 0.166 0.824 0.271s0.365 0.232 0.465 0.381c0.103 0.146 0.154 0.326 0.154 0.538 0 0.354-0.141 0.638-0.425 0.853-0.283 0.213-0.65 0.319-1.102 0.319-0.317 0-0.598-0.056-0.842-0.169-0.244-0.112-0.436-0.268-0.575-0.468-0.137-0.203-0.205-0.421-0.205-0.656h0.677c0.013 0.227 0.103 0.408 0.271 0.542 0.171 0.132 0.396 0.198 0.674 0.198 0.257 0 0.462-0.051 0.615-0.154 0.157-0.105 0.235-0.244 0.235-0.417z" style="fill-rule:nonzero;fill:#fff"/>
 <path d="m44.934 55.651l0.879-1.447h0.791l-1.296 1.959 1.336 2.004h-0.783l-0.916-1.484-0.915 1.484h-0.788l1.337-2.004-1.296-1.959h0.783l0.868 1.447z" style="fill-rule:nonzero;fill:#fff"/>
 <path d="m36.378 15.932c-3.83 0-6.926 3.096-6.926 6.926 0 0.814 0.163 1.629 0.408 2.444l-8.556 8.556v4.074h4.074v-2.445h2.445v-2.444h2.444l3.667-3.667c0.733 0.245 1.548 0.408 2.444 0.408 3.83 0 6.926-3.097 6.926-6.926 0-3.83-3.096-6.926-6.926-6.926zm2.037 7.333c-1.385 0-2.444-1.059-2.444-2.444 0-1.386 1.059-2.445 2.444-2.445s2.445 1.059 2.445 2.445c0 1.385-1.06 2.444-2.445 2.444z" style="fill-rule:nonzero;fill:#050"/>
 <defs>
  <linearGradient id="_Linear1" x2="1" gradientTransform="matrix(3.03829e-15,-49.619,49.619,3.03829e-15,104.99,51.088)" gradientUnits="userSpaceOnUse">
   <stop style="stop-color:#2c901a" offset="0"/>
   <stop style="stop-color:#7ae54c" offset="1"/>
  </linearGradient>
 </defs>
</svg>
