<svg style="clip-rule:evenodd;fill-rule:evenodd;stroke-linejoin:round;stroke-miterlimit:2" viewBox="0 0 64 64" xmlns="http://www.w3.org/2000/svg">
 <path d="m54 3.146c0-0.926-0.751-1.677-1.677-1.677h-34.705c-2.02 0-3.958 0.803-5.387 2.231-1.428 1.429-2.231 3.367-2.231 5.387v45.295c0 2.02 0.803 3.958 2.231 5.387 1.429 1.428 3.367 2.231 5.387 2.231h28.764c2.02 0 3.958-0.803 5.387-2.231 1.428-1.429 2.231-3.367 2.231-5.387v-51.236z" style="fill:url(#_Linear1)"/>
 <g opacity=".88">
  <path d="m43.344 24.917c-0.188-1.607-1.648-2.768-3.26-2.58-0.157 0.018-0.308 0.05-0.453 0.091-1.065-4.06-4.7-6.837-8.643-6.378-3.942 0.458-6.842 3.997-6.946 8.193-0.146-7e-3 -0.294 0-0.442 0.017-1.607 0.188-2.768 1.648-2.58 3.261 0.183 1.569 1.579 2.713 3.145 2.588-0.057 0.499-0.062 1.001-3e-3 1.505 0.117 1.008 0.464 1.96 1.037 2.824 0.544 0.824 1.258 1.531 2.13 2.105 1.754 1.155 3.962 1.65 6.202 1.389s4.279-1.25 5.725-2.783c0.717-0.758 1.254-1.611 1.59-2.537 0.354-0.971 0.478-1.979 0.361-2.987-0.059-0.504-0.174-0.992-0.349-1.463 1.559-0.23 2.669-1.666 2.486-3.245zm-3.136 4.824c0.024 0.209 0.034 0.416 0.034 0.623l-2.397 0.279-10.178 1.184-2.397 0.279c-0.047-0.201-0.085-0.404-0.11-0.613-0.066-0.571-0.04-1.133 0.065-1.676 0.038-0.178 0.08-0.351 0.132-0.526 0.278-0.924 0.795-1.785 1.49-2.521 0.077-0.081 0.159-0.163 0.242-0.245-0.159-0.203-0.309-0.417-0.446-0.642-1.157-1.943-0.857-4.003 0.669-4.6 0.189-0.075 0.391-0.122 0.595-0.146 1.299-0.151 2.864 0.664 3.906 2.042 0.698-1.585 2.035-2.734 3.333-2.885 0.204-0.023 0.412-0.023 0.613 6e-3 1.622 0.231 2.387 2.166 1.708 4.323-0.082 0.25-0.173 0.497-0.286 0.727 0.104 0.065 0.207 0.13 0.311 0.195 0.842 0.558 1.531 1.268 2.014 2.099 0.09 0.153 0.171 0.313 0.243 0.478 0.238 0.507 0.392 1.048 0.459 1.619zm-11.093 2.93l11.034-1.284c-0.537 2.8-3.24 5.135-6.73 5.541-3.491 0.406-6.658-1.245-7.823-3.847l3.519-0.41zm-4.952-3.574c-1.06 0.124-2.021-0.637-2.145-1.698-0.123-1.06 0.637-2.021 1.698-2.145 0.119-0.013 0.239-0.018 0.356-7e-3 8e-3 0.11 0.02 0.219 0.034 0.333 0.033 0.286 0.079 0.56 0.135 0.833-0.22-0.114-0.476-0.195-0.764-0.229-0.274-0.031-0.525 0.167-0.556 0.44-0.031 0.274 0.167 0.526 0.441 0.556 0.845 0.1 1.227 1.019 1.234 1.038 0.014 0.037 0.032 0.068 0.05 0.1-0.019 0.041-0.034 0.081-0.053 0.122-0.082 0.207-0.155 0.413-0.213 0.618-0.07 0.017-0.141 0.03-0.217 0.039zm16.484-1.918c-0.081 9e-3 -0.157 0.013-0.239 0.013-0.109-0.185-0.222-0.369-0.349-0.552-0.04-0.058-0.086-0.116-0.127-0.178 4e-3 -0.01 3e-3 -0.02 6e-3 -0.03 4e-3 -0.01 0.158-1.007 0.963-1.293 0.26-0.093 0.394-0.383 0.302-0.643-0.093-0.259-0.384-0.394-0.643-0.301-0.24 0.086-0.448 0.207-0.625 0.343-7e-3 -0.264-0.028-0.527-0.059-0.793-0.013-0.11-0.03-0.219-0.043-0.328 0.116-0.038 0.238-0.066 0.367-0.081 1.06-0.124 2.021 0.637 2.145 1.698 0.123 1.06-0.637 2.021-1.698 2.145z" style="fill-rule:nonzero;fill:#296f79"/>
  <path d="m31.469 28.464c-0.254-0.236-0.652-0.218-0.887 0.036-0.236 0.254-0.218 0.652 0.036 0.887l0.653 0.604c0.14 0.128 0.325 0.184 0.501 0.163 0.143-0.016 0.28-0.081 0.387-0.194 0.236-0.254 0.218-0.652-0.036-0.888l-0.654-0.608z" style="fill-rule:nonzero;fill:#296f79"/>
  <path d="m34.243 28.069c-0.287-0.193-0.679-0.119-0.872 0.169l-0.497 0.737c-0.193 0.288-0.119 0.679 0.169 0.872 0.13 0.086 0.278 0.117 0.421 0.101 0.176-0.021 0.343-0.117 0.45-0.275l0.498-0.737c0.198-0.283 0.119-0.674-0.169-0.867z" style="fill-rule:nonzero;fill:#296f79"/>
  <path d="m29.888 24.531c0.56-0.065 1.066 0.336 1.131 0.895s-0.336 1.066-0.895 1.131-1.066-0.336-1.131-0.895 0.336-1.066 0.895-1.131z" style="fill:#296f79"/>
  <path d="m34.007 24.052c0.559-0.065 1.066 0.336 1.131 0.895s-0.336 1.066-0.895 1.131-1.066-0.336-1.131-0.895 0.336-1.066 0.895-1.131z" style="fill:#296f79"/>
 </g>
 <path d="m21.977 59.263v-4.113h0.739v0.571h0.033c0.118-0.196 0.297-0.361 0.537-0.496 0.247-0.139 0.49-0.209 0.731-0.209 0.638 0 1.071 0.263 1.301 0.789 0.335-0.526 0.814-0.789 1.435-0.789 0.487 0 0.853 0.156 1.099 0.47 0.247 0.307 0.37 0.727 0.37 1.259v2.518h-0.772v-2.401c0-0.414-0.076-0.708-0.227-0.881-0.151-0.174-0.381-0.26-0.688-0.26-0.303 0-0.554 0.128-0.756 0.386-0.196 0.257-0.294 0.551-0.294 0.881v2.275h-0.772v-2.401c0-0.414-0.075-0.708-0.226-0.881-0.151-0.174-0.381-0.26-0.689-0.26-0.302 0-0.554 0.128-0.755 0.386-0.196 0.257-0.294 0.551-0.294 0.881v2.275h-0.772z" style="fill-rule:nonzero;fill:#fff"/>
 <path d="m29.485 55.645c0.398-0.42 0.904-0.629 1.52-0.629 0.615 0 1.122 0.209 1.519 0.629 0.397 0.414 0.596 0.935 0.596 1.561 0 0.627-0.199 1.15-0.596 1.57-0.397 0.414-0.904 0.621-1.519 0.621-0.616 0-1.122-0.207-1.52-0.621-0.397-0.42-0.595-0.943-0.595-1.57 0-0.626 0.198-1.147 0.595-1.561zm0.571 2.644c0.269 0.269 0.585 0.403 0.949 0.403 0.363 0 0.677-0.134 0.94-0.403 0.268-0.274 0.403-0.635 0.403-1.083 0-0.447-0.135-0.805-0.403-1.074-0.263-0.274-0.577-0.411-0.94-0.411-0.364 0-0.68 0.137-0.949 0.411-0.263 0.269-0.394 0.627-0.394 1.074 0 0.448 0.131 0.809 0.394 1.083z" style="fill-rule:nonzero;fill:#fff"/>
 <path d="m34.486 55.15v0.571h0.034c0.112-0.196 0.288-0.361 0.529-0.496 0.24-0.139 0.498-0.209 0.772-0.209 0.509 0 0.898 0.156 1.166 0.47 0.269 0.313 0.403 0.733 0.403 1.259v2.518h-0.772v-2.401c0-0.761-0.338-1.141-1.016-1.141-0.318 0-0.579 0.128-0.78 0.386-0.202 0.252-0.302 0.545-0.302 0.881v2.275h-0.772v-4.113h0.738z" style="fill-rule:nonzero;fill:#fff"/>
 <path d="m38.666 55.645c0.397-0.42 0.904-0.629 1.519-0.629 0.616 0 1.122 0.209 1.519 0.629 0.398 0.414 0.596 0.935 0.596 1.561 0 0.627-0.198 1.15-0.596 1.57-0.397 0.414-0.903 0.621-1.519 0.621-0.615 0-1.122-0.207-1.519-0.621-0.397-0.42-0.596-0.943-0.596-1.57 0-0.626 0.199-1.147 0.596-1.561zm0.571 2.644c0.268 0.269 0.584 0.403 0.948 0.403s0.677-0.134 0.94-0.403c0.269-0.274 0.403-0.635 0.403-1.083 0-0.447-0.134-0.805-0.403-1.074-0.263-0.274-0.576-0.411-0.94-0.411s-0.68 0.137-0.948 0.411c-0.263 0.269-0.395 0.627-0.395 1.074 0 0.448 0.132 0.809 0.395 1.083z" style="fill-rule:nonzero;fill:#fff"/>
 <defs>
  <linearGradient id="_Linear1" x2="1" gradientTransform="matrix(3.03829e-15,-49.619,49.619,3.03829e-15,469.44,51.088)" gradientUnits="userSpaceOnUse">
   <stop style="stop-color:#348692" offset="0"/>
   <stop style="stop-color:#69b9cd" offset="1"/>
  </linearGradient>
 </defs>
</svg>
