<svg style="clip-rule:evenodd;fill-rule:evenodd" viewBox="0 0 64 64" xmlns="http://www.w3.org/2000/svg">
 <path d="m54 3.146c0-0.926-0.751-1.677-1.677-1.677h-34.705c-2.02 0-3.958 0.803-5.387 2.231-1.428 1.429-2.231 3.367-2.231 5.387v45.295c0 2.02 0.803 3.958 2.231 5.387 1.429 1.428 3.367 2.231 5.387 2.231h28.764c2.02 0 3.958-0.803 5.387-2.231 1.428-1.429 2.231-3.367 2.231-5.387v-51.236z" style="fill:url(#_Linear1)"/>
 <path d="m22.636 39.364h10.073l-1e-3 -21.205h-9.982c-1.098-0.081-1.543 0.02-1.543 1.015v19.122c-0.069 1.091 0.386 1.068 1.453 1.068z" style="fill:#175e21"/>
 <path d="m42.022 39.358h-4.572l-2.344-1.969v-17.268l1.606-1.968h5.31c0.735-0.082 0.794 0.02 0.794 1.014v19.122c0.046 1.092-0.08 1.069-0.794 1.069z" style="fill:none;stroke-width:.7px;stroke:#175e21"/>
 <path d="m40.289 40.367-8.681-1.014v-21.194l8.609-0.807c1.064-0.082 1.122 0.212 1.122 1.206l-0.073 20.228c0.067 1.091 0.059 1.581-0.977 1.581z" style="fill:#175e21"/>
 <path d="m26.085 29.332 9e-3 4.657 2.737-1e-3 -9e-3 -4.656h-2.737z" style="fill:#40bf4f"/>
 <path d="m29.941 26.8 8e-3 7.171 2.737-1e-3 -9e-3 -7.17h-2.736z" style="fill:#40bf4f"/>
 <path d="m33.942 24.306 9e-3 9.685 2.736-1e-3 -8e-3 -9.685-2.737 1e-3z" style="fill:#40bf4f"/>
 <text x="27.531px" y="59.024px" style="fill:#fff;font-family:'ArialMT', 'Arial', sans-serif;font-size:7.505px">xls</text>
 <defs>
  <linearGradient id="_Linear1" x2="1" gradientTransform="matrix(3.03829e-15,-49.619,49.619,3.03829e-15,177.88,51.088)" gradientUnits="userSpaceOnUse">
   <stop style="stop-color:#2b843e" offset="0"/>
   <stop style="stop-color:#40dc61" offset="1"/>
  </linearGradient>
 </defs>
</svg>
