<svg style="clip-rule:evenodd;fill-rule:evenodd;stroke-linejoin:round;stroke-miterlimit:2" viewBox="0 0 64 64" xmlns="http://www.w3.org/2000/svg">
 <path d="m54 3.146c0-0.926-0.751-1.677-1.677-1.677h-34.705c-2.02 0-3.958 0.803-5.387 2.231-1.428 1.429-2.231 3.367-2.231 5.387v45.295c0 2.02 0.803 3.958 2.231 5.387 1.429 1.428 3.367 2.231 5.387 2.231h28.764c2.02 0 3.958-0.803 5.387-2.231 1.428-1.429 2.231-3.367 2.231-5.387v-51.236z" style="fill:url(#_Linear1)"/>
 <path d="m26.529 53.826c-0.104 0.104-0.229 0.156-0.377 0.156-0.147 0-0.273-0.052-0.377-0.156-0.103-0.103-0.155-0.229-0.155-0.377 0-0.147 0.052-0.273 0.155-0.377 0.104-0.103 0.23-0.155 0.377-0.155 0.148 0 0.273 0.052 0.377 0.155 0.104 0.104 0.156 0.23 0.156 0.377 0 0.148-0.052 0.274-0.156 0.377zm-1.204 6.876c-0.148 0-0.295-0.027-0.443-0.082l0.197-0.655c0.071 0.033 0.144 0.049 0.221 0.049 0.317 0 0.475-0.208 0.475-0.623v-4.557h0.754v4.557c0 0.443-0.106 0.771-0.319 0.984-0.213 0.218-0.508 0.327-0.885 0.327z" style="fill-rule:nonzero;fill:#fff"/>
 <path d="m28.741 58.981c-0.426 0-0.784-0.123-1.074-0.368-0.284-0.246-0.426-0.571-0.426-0.976 0-0.437 0.169-0.778 0.508-1.024 0.339-0.251 0.757-0.377 1.254-0.377 0.443 0 0.806 0.082 1.09 0.246v-0.115c0-0.295-0.101-0.53-0.303-0.705-0.202-0.18-0.451-0.27-0.746-0.27-0.219 0-0.418 0.052-0.598 0.155-0.175 0.104-0.295 0.246-0.361 0.427l-0.688-0.295c0.093-0.241 0.276-0.462 0.549-0.664 0.273-0.208 0.634-0.312 1.082-0.312 0.513 0 0.939 0.151 1.278 0.451 0.339 0.301 0.508 0.724 0.508 1.27v2.426h-0.721v-0.557h-0.033c-0.3 0.459-0.74 0.688-1.319 0.688zm0.123-0.688c0.311 0 0.593-0.115 0.844-0.344 0.257-0.235 0.385-0.511 0.385-0.828-0.213-0.175-0.533-0.262-0.959-0.262-0.366 0-0.642 0.079-0.828 0.237-0.185 0.159-0.278 0.345-0.278 0.558 0 0.196 0.084 0.352 0.254 0.467 0.169 0.115 0.363 0.172 0.582 0.172z" style="fill-rule:nonzero;fill:#fff"/>
 <path d="m32.781 58.85l-1.623-4.016h0.82l1.18 3.115h0.016l1.197-3.115h0.803l-1.639 4.016h-0.754z" style="fill-rule:nonzero;fill:#fff"/>
 <path d="m36.856 58.981c-0.426 0-0.784-0.123-1.073-0.368-0.284-0.246-0.427-0.571-0.427-0.976 0-0.437 0.17-0.778 0.509-1.024 0.338-0.251 0.756-0.377 1.254-0.377 0.442 0 0.805 0.082 1.09 0.246v-0.115c0-0.295-0.102-0.53-0.304-0.705-0.202-0.18-0.45-0.27-0.746-0.27-0.218 0-0.417 0.052-0.598 0.155-0.175 0.104-0.295 0.246-0.36 0.427l-0.689-0.295c0.093-0.241 0.276-0.462 0.549-0.664 0.273-0.208 0.634-0.312 1.082-0.312 0.514 0 0.94 0.151 1.279 0.451 0.338 0.301 0.508 0.724 0.508 1.27v2.426h-0.721v-0.557h-0.033c-0.301 0.459-0.741 0.688-1.32 0.688zm0.123-0.688c0.312 0 0.593-0.115 0.844-0.344 0.257-0.235 0.386-0.511 0.386-0.828-0.214-0.175-0.533-0.262-0.959-0.262-0.366 0-0.642 0.079-0.828 0.237-0.186 0.159-0.279 0.345-0.279 0.558 0 0.196 0.085 0.352 0.254 0.467 0.17 0.115 0.364 0.172 0.582 0.172z" style="fill-rule:nonzero;fill:#fff"/>
 <path d="m31.141 29.047c0.752 0 0.639 0.024 1.296 0.057 0.208-0.461 0.314-1.019 0.125-1.629-0.99-0.051-1.01-0.063-1.421-0.063-0.177 0-0.314 0.02-0.621 0.025 0.368 0.534 0.719 1.066 0.96 1.61m-2.623-1.59c-2.988 0.106-7.856 0.579-7.857 2.756 0 3.112 1.334 5.904 3.436 7.82-1.95 0.521-3.428 1.354-3.428 2.647 0 2.686 6.372 3.402 10.138 3.402s10.141-0.716 10.141-3.402c0-1.293-1.48-2.126-3.43-2.647 0.41-0.373 0.796-0.774 1.143-1.211 0.046 1e-3 0.09 2e-3 0.156 2e-3 0.904 0 3.141-0.161 4.416-1.656 1.633-1.915 1.903-4.276 0.615-5.375-0.414-0.354-0.951-0.541-1.552-0.541-0.487 0-1.007 0.13-1.522 0.359-0.693-1.234-3.03-1.769-5.541-2.007-0.24 0.601-0.683 1.113-1.144 1.541 2.972 0.204 4.375 0.699 5.033 1.068-0.846 0.474-3.693 1.166-8.32 1.166-4.629 0-7.477-0.692-8.323-1.166 0.846-0.475 3.084-1.123 7.725-1.166-0.589-0.585-1.158-1.07-1.686-1.59zm13.778 3.43c0.21 0 0.375 0.051 0.492 0.15 0.498 0.424 0.261 1.827-0.799 3.07-0.553 0.648-1.488 0.907-2.226 1.012 0.585-1.13 0.973-2.381 1.121-3.709 0.533-0.356 1.045-0.523 1.412-0.523zm-6.084 8.513c1.987 0.414 3.011 0.98 3.103 1.262-0.156 0.509-2.916 1.787-8.508 1.787-5.591 0-8.35-1.278-8.505-1.752 0.092-0.303 1.115-0.878 3.101-1.295-0.034 0.102-0.058 0.209-0.058 0.325 0 1.492 2.97 1.804 5.462 1.804s5.463-0.312 5.463-1.804c0-0.117-0.024-0.224-0.058-0.327z" style="fill-opacity:.67;fill-rule:nonzero"/>
 <path d="m32.787 26.473c-5.974-6.883 6.533-10.006 6.533-10.006-7.968 4.621-6.496 5.961-4.577 8.658 2.055 2.893-2.419 5.203-2.419 5.203s2.225-1.826 0.463-3.855zm1.956-17.468s3.796 3.797-3.6 9.636c-5.931 4.684-1.353 7.355-3e-3 10.406-3.462-3.124-6.003-5.873-4.298-8.432 2.502-3.757 9.432-5.578 7.901-11.61z" style="fill-opacity:.47;fill-rule:nonzero"/>
 <defs>
  <linearGradient id="_Linear1" x2="1" gradientTransform="matrix(-.354839 -59.2666 59.2669 -.354838 32.5323 61.7257)" gradientUnits="userSpaceOnUse">
   <stop style="stop-color:#b22c01" offset="0"/>
   <stop style="stop-color:#ff7b51" offset="1"/>
  </linearGradient>
 </defs>
</svg>
