<svg style="clip-rule:evenodd;fill-rule:evenodd;stroke-linejoin:round;stroke-miterlimit:2" version="1.1" viewBox="0 0 64 64" xmlns="http://www.w3.org/2000/svg">
 <path d="m54 3.146c0-0.926-0.751-1.677-1.677-1.677h-34.705c-2.02 0-3.958 0.803-5.387 2.231-1.428 1.429-2.231 3.367-2.231 5.387v45.295c0 2.02 0.803 3.958 2.231 5.387 1.429 1.428 3.367 2.231 5.387 2.231h28.764c2.02 0 3.958-0.803 5.387-2.231 1.428-1.429 2.231-3.367 2.231-5.387v-51.236z" style="fill:url(#_Linear1)"/>
 <rect x="28.109" y="53.672" width=".754" height="5.868" style="fill-rule:nonzero;fill:#fff"/>
 <path d="m30.528 53.672v1.852l-0.033 0.557h0.033c0.109-0.191 0.281-0.352 0.516-0.483 0.235-0.137 0.486-0.205 0.754-0.205 0.497 0 0.877 0.153 1.139 0.459s0.394 0.716 0.394 1.229v2.459h-0.754v-2.344c0-0.743-0.331-1.115-0.992-1.115-0.312 0-0.566 0.126-0.762 0.377-0.197 0.246-0.295 0.533-0.295 0.861v2.221h-0.754v-5.868h0.754z" style="fill-rule:nonzero;fill:#fff"/>
 <path d="m35.446 59.671c-0.426 0-0.784-0.123-1.074-0.369-0.284-0.246-0.426-0.571-0.426-0.975 0-0.437 0.169-0.779 0.508-1.024 0.339-0.252 0.757-0.377 1.254-0.377 0.443 0 0.806 0.081 1.09 0.245v-0.114c0-0.295-0.101-0.53-0.303-0.705-0.202-0.18-0.451-0.271-0.746-0.271-0.218 0-0.418 0.052-0.598 0.156-0.175 0.104-0.295 0.246-0.361 0.426l-0.688-0.295c0.093-0.24 0.276-0.461 0.549-0.664 0.273-0.207 0.634-0.311 1.082-0.311 0.513 0 0.939 0.15 1.278 0.451 0.339 0.3 0.508 0.724 0.508 1.27v2.426h-0.721v-0.557h-0.033c-0.3 0.459-0.74 0.688-1.319 0.688zm0.123-0.688c0.311 0 0.593-0.115 0.844-0.345 0.257-0.235 0.385-0.51 0.385-0.827-0.213-0.175-0.533-0.263-0.959-0.263-0.366 0-0.642 0.08-0.827 0.238-0.186 0.158-0.279 0.344-0.279 0.557 0 0.197 0.085 0.353 0.254 0.467 0.169 0.115 0.363 0.173 0.582 0.173z" style="fill-rule:nonzero;fill:#fff"/>
 <path d="m42 18.859c0-0.759-0.301-1.486-0.837-2.022s-1.263-0.837-2.022-0.837h-14.082c-0.759 0-1.486 0.301-2.022 0.837s-0.837 1.263-0.837 2.022v16.282c0 0.759 0.301 1.486 0.837 2.022s1.263 0.837 2.022 0.837h14.082c0.759 0 1.486-0.301 2.022-0.837s0.837-1.263 0.837-2.022v-16.282z" style="fill:#62543b"/>
 <rect x="31.039" y="16.611" width="2.2" height="1.1" style="fill-opacity:.93;fill:#fff"/>
 <rect x="31.035" y="18.202" width="2.2" height="1.1" style="fill-opacity:.93;fill:#fff"/>
 <rect x="31.021" y="19.774" width="2.2" height="1.1" style="fill-opacity:.93;fill:#fff"/>
 <rect x="31.045" y="21.41" width="2.2" height="1.1" style="fill-opacity:.93;fill:#fff"/>
 <rect x="31.045" y="23.018" width="2.2" height="1.1" style="fill-opacity:.93;fill:#fff"/>
 <rect x="31.045" y="24.663" width="2.2" height="1.1" style="fill-opacity:.93;fill:#fff"/>
 <path d="m32.951 27.371v-0.694c0-0.194-0.157-0.351-0.349-0.351h-0.97c-0.193 0-0.349 0.157-0.349 0.351v0.693l-0.539 1.591c-0.151 0.443-0.079 0.935 0.193 1.317 0.272 0.381 0.713 0.608 1.18 0.608s0.908-0.227 1.18-0.608c0.271-0.382 0.344-0.874 0.193-1.317l-0.539-1.59zm-0.226 2.497c-0.279 0.393-0.937 0.393-1.217 0-0.14-0.197-0.177-0.451-0.1-0.68l0.181-0.533h1.055l0.181 0.533c0.078 0.229 0.04 0.483-0.1 0.68z" style="fill-rule:nonzero;fill:#fff"/>
 <defs>
  <linearGradient id="_Linear1" x2="1" gradientTransform="matrix(3.03829e-15,-49.619,49.619,3.03829e-15,104.99,51.088)" gradientUnits="userSpaceOnUse">
   <stop style="stop-color:#cda14b" offset="0"/>
   <stop style="stop-color:#fadfa3" offset="1"/>
  </linearGradient>
 </defs>
</svg>
