<svg style="clip-rule:evenodd;fill-rule:evenodd;stroke-linejoin:round;stroke-miterlimit:2" viewBox="0 0 64 64" xmlns="http://www.w3.org/2000/svg">
 <path d="m54 3.146c0-0.926-0.751-1.677-1.677-1.677h-34.705c-2.02 0-3.958 0.803-5.387 2.231-1.428 1.429-2.231 3.367-2.231 5.387v45.295c0 2.02 0.803 3.958 2.231 5.387 1.429 1.428 3.367 2.231 5.387 2.231h28.764c2.02 0 3.958-0.803 5.387-2.231 1.428-1.429 2.231-3.367 2.231-5.387v-51.236z" style="fill:url(#_Linear1)"/>
 <path d="m40.901 18.965c-2.354-1.912-5.48-2.965-8.801-2.965s-6.447 1.053-8.801 2.965c-2.374 1.929-3.682 4.5-3.682 7.239 0 2.614 1.192 5.074 3.365 6.97-0.039 0.088-0.07 0.181-0.09 0.278l-0.714 3.506c-0.085 0.416 0.029 0.665 0.139 0.8 0.128 0.156 0.318 0.242 0.534 0.242 0.163 0 0.339-0.048 0.522-0.143l4.152-2.153c1.438 0.461 2.984 0.704 4.575 0.704 3.321 0 6.447-1.053 8.801-2.966 2.374-1.928 3.682-4.499 3.682-7.238s-1.307-5.31-3.682-7.239z" style="fill-rule:nonzero;fill:#472244"/>
 <path d="m36.188 57.912h-0.754v-4.016h0.721v0.656h0.033c0.077-0.219 0.232-0.399 0.467-0.541 0.241-0.142 0.473-0.213 0.697-0.213s0.412 0.033 0.565 0.098l-0.286 0.705c-0.099-0.038-0.233-0.057-0.402-0.057-0.273 0-0.516 0.109-0.729 0.328-0.208 0.213-0.312 0.494-0.312 0.844v2.196z" style="fill-rule:nonzero;fill:#fff"/>
 <path d="m28.148 58.043c-0.601 0-1.096-0.202-1.484-0.606-0.388-0.41-0.581-0.921-0.581-1.533s0.193-1.12 0.581-1.524c0.388-0.41 0.883-0.615 1.484-0.615 0.448 0 0.819 0.109 1.114 0.328 0.295 0.218 0.511 0.494 0.648 0.828l-0.689 0.287c-0.207-0.503-0.581-0.754-1.122-0.754-0.334 0-0.629 0.136-0.885 0.409-0.252 0.273-0.377 0.62-0.377 1.041s0.125 0.768 0.377 1.041c0.256 0.273 0.551 0.41 0.885 0.41 0.562 0 0.95-0.252 1.163-0.754l0.672 0.287c-0.136 0.327-0.357 0.603-0.663 0.827-0.301 0.219-0.675 0.328-1.123 0.328z" style="fill-opacity:.95;fill-rule:nonzero;fill:#fff"/>
 <path d="m32.812 58.043c-0.306 0-0.582-0.065-0.828-0.197-0.241-0.131-0.421-0.295-0.541-0.491h-0.033v0.557h-0.721v-5.868h0.754v1.852l-0.033 0.558h0.033c0.12-0.197 0.3-0.361 0.541-0.492 0.246-0.131 0.522-0.197 0.828-0.197 0.519 0 0.967 0.205 1.344 0.615s0.565 0.918 0.565 1.524c0 0.607-0.188 1.115-0.565 1.524-0.377 0.41-0.825 0.615-1.344 0.615zm-0.123-0.688c0.349 0 0.65-0.131 0.901-0.394 0.251-0.267 0.377-0.62 0.377-1.057s-0.126-0.787-0.377-1.049c-0.251-0.268-0.552-0.401-0.901-0.401-0.355 0-0.659 0.131-0.91 0.393-0.246 0.262-0.369 0.615-0.369 1.057 0 0.443 0.123 0.795 0.369 1.057 0.251 0.263 0.555 0.394 0.91 0.394z" style="fill-opacity:.95;fill-rule:nonzero;fill:#fff"/>
 <defs>
  <linearGradient id="_Linear1" x2="1" gradientTransform="matrix(3.03829e-15,-49.619,49.619,3.03829e-15,104.99,51.088)" gradientUnits="userSpaceOnUse">
   <stop style="stop-color:#812d7b" offset="0"/>
   <stop style="stop-color:#d362c9" offset="1"/>
  </linearGradient>
 </defs>
</svg>
