<svg style="clip-rule:evenodd;fill-rule:evenodd;stroke-linejoin:round;stroke-miterlimit:2" viewBox="0 0 64 64" xmlns="http://www.w3.org/2000/svg">
 <path d="m54 3.146c0-0.926-0.751-1.677-1.677-1.677h-34.705c-2.02 0-3.958 0.803-5.387 2.231-1.428 1.429-2.231 3.367-2.231 5.387v45.295c0 2.02 0.803 3.958 2.231 5.387 1.429 1.428 3.367 2.231 5.387 2.231h28.764c2.02 0 3.958-0.803 5.387-2.231 1.428-1.429 2.231-3.367 2.231-5.387v-51.236z" style="fill:url(#_Linear1)"/>
 <path d="m41.912 56.45h-0.726c0-0.211 0.074-0.414 0.222-0.609 0.151-0.198 0.354-0.354 0.61-0.469 0.257-0.115 0.54-0.172 0.847-0.172 0.487 0 0.869 0.123 1.145 0.367 0.276 0.243 0.419 0.577 0.429 1.004v1.946c0 0.388 0.05 0.696 0.149 0.925v0.063h-0.758c-0.042-0.083-0.075-0.232-0.101-0.445-0.336 0.349-0.737 0.523-1.204 0.523-0.416 0-0.759-0.117-1.027-0.352-0.266-0.237-0.398-0.536-0.398-0.898 0-0.44 0.166-0.781 0.5-1.023 0.336-0.245 0.807-0.368 1.414-0.368h0.703v-0.332c0-0.252-0.076-0.453-0.227-0.601-0.151-0.151-0.373-0.227-0.668-0.227-0.258 0-0.474 0.065-0.648 0.196-0.175 0.13-0.262 0.287-0.262 0.472zm-23.316 3.055h-0.664l-0.036-0.453c-0.289 0.354-0.691 0.531-1.207 0.531-0.489 0-0.889-0.201-1.199-0.602-0.307-0.401-0.461-0.924-0.461-1.57v-0.055c0-0.648 0.154-1.169 0.461-1.562 0.308-0.396 0.71-0.594 1.207-0.594 0.495 0 0.887 0.169 1.176 0.508v-2.203h0.723v6zm17.871-2.152c0-0.415 0.081-0.787 0.242-1.118 0.164-0.33 0.391-0.586 0.68-0.765 0.291-0.18 0.623-0.27 0.996-0.27 0.575 0 1.04 0.199 1.394 0.598 0.357 0.398 0.535 0.928 0.535 1.59v0.05c0 0.412-0.079 0.782-0.238 1.11-0.156 0.325-0.381 0.579-0.676 0.762-0.291 0.182-0.627 0.273-1.007 0.273-0.573 0-1.038-0.199-1.395-0.598-0.354-0.398-0.531-0.925-0.531-1.582v-0.05zm-16.938 0c0-0.415 0.081-0.787 0.242-1.118 0.165-0.33 0.391-0.586 0.68-0.765 0.292-0.18 0.624-0.27 0.996-0.27 0.576 0 1.041 0.199 1.395 0.598 0.357 0.398 0.535 0.928 0.535 1.59v0.05c0 0.412-0.079 0.782-0.238 1.11-0.157 0.325-0.382 0.579-0.676 0.762-0.292 0.182-0.628 0.273-1.008 0.273-0.573 0-1.038-0.199-1.394-0.598-0.355-0.398-0.532-0.925-0.532-1.582v-0.05zm29.442 2.152h-0.664l-0.036-0.453c-0.289 0.354-0.691 0.531-1.207 0.531-0.489 0-0.889-0.201-1.199-0.602-0.307-0.401-0.461-0.924-0.461-1.57v-0.055c0-0.648 0.154-1.169 0.461-1.562 0.308-0.396 0.71-0.594 1.207-0.594 0.495 0 0.887 0.169 1.176 0.508v-2.203h0.723v6zm-13.465-6v6h-0.723v-6h0.723zm-4.524 1.773l0.024 0.532c0.323-0.407 0.745-0.61 1.265-0.61 0.894 0 1.344 0.504 1.352 1.512v2.793h-0.723v-2.797c-2e-3 -0.305-0.073-0.53-0.211-0.676-0.135-0.146-0.347-0.219-0.636-0.219-0.235 0-0.44 0.063-0.617 0.188-0.178 0.125-0.316 0.289-0.415 0.492v3.012h-0.722v-4.227h0.683zm-5.265 4.227h-0.586l-1.227-4.227h0.719l0.832 3.164 0.984-3.164h0.582l1.004 3.231 0.813-3.231h0.723l-1.231 4.227h-0.586l-1.027-3.203-1 3.203zm11.476-2.067c0 0.469 0.108 0.846 0.325 1.129 0.218 0.284 0.51 0.426 0.875 0.426 0.367 0 0.658-0.143 0.875-0.43 0.216-0.289 0.324-0.692 0.324-1.21 0-0.464-0.111-0.839-0.332-1.125-0.219-0.29-0.511-0.434-0.875-0.434-0.357 0-0.645 0.142-0.864 0.426-0.218 0.284-0.328 0.69-0.328 1.218zm-16.937 0c0 0.469 0.108 0.846 0.324 1.129 0.219 0.284 0.51 0.426 0.875 0.426 0.367 0 0.659-0.143 0.875-0.43 0.216-0.289 0.324-0.692 0.324-1.21 0-0.464-0.11-0.839-0.332-1.125-0.218-0.29-0.51-0.434-0.875-0.434-0.357 0-0.644 0.142-0.863 0.426s-0.328 0.69-0.328 1.218zm-4.504 0c0 0.48 0.099 0.855 0.297 1.125 0.198 0.271 0.471 0.407 0.82 0.407 0.458 0 0.793-0.206 1.004-0.617v-1.942c-0.216-0.398-0.548-0.598-0.996-0.598-0.354 0-0.63 0.137-0.828 0.411-0.198 0.273-0.297 0.678-0.297 1.214zm30.375 0c0 0.48 0.099 0.855 0.297 1.125 0.198 0.271 0.471 0.407 0.82 0.407 0.458 0 0.793-0.206 1.004-0.617v-1.942c-0.216-0.398-0.548-0.598-0.996-0.598-0.354 0-0.63 0.137-0.828 0.411-0.198 0.273-0.297 0.678-0.297 1.214zm-2.41 0.016h-0.567c-0.885 0-1.328 0.259-1.328 0.777 0 0.227 0.076 0.404 0.227 0.532 0.151 0.127 0.345 0.191 0.582 0.191 0.226 0 0.441-0.058 0.644-0.176 0.204-0.117 0.351-0.269 0.442-0.457v-0.867z" style="fill-rule:nonzero;fill:#fff"/>
 <path d="m31.999 33.078l6.471-8.163c0.631-0.794 1.789-0.929 2.583-0.298 0.796 0.631 0.93 1.788 0.299 2.583l-7.902 9.968c-0.364 0.46-0.905 0.698-1.451 0.695-0.545 3e-3 -1.085-0.235-1.45-0.695l-7.901-9.967c-0.631-0.795-0.497-1.953 0.299-2.583 0.794-0.631 1.952-0.496 2.583 0.298l6.469 8.162zm0-9.175l3.28-4.137c0.468-0.591 1.329-0.691 1.921-0.222 0.591 0.468 0.691 1.33 0.221 1.921l-4.342 5.479c-0.271 0.342-0.674 0.519-1.08 0.518-0.405 1e-3 -0.808-0.176-1.078-0.518l-4.344-5.479c-0.469-0.591-0.369-1.453 0.222-1.921 0.592-0.469 1.453-0.369 1.922 0.222l3.278 4.137z" style="fill:#464d55"/>
 <defs>
  <linearGradient id="_Linear1" x2="1" gradientTransform="matrix(3.03829e-15,-49.619,49.619,3.03829e-15,177.88,51.088)" gradientUnits="userSpaceOnUse">
   <stop style="stop-color:#758b9a" offset="0"/>
   <stop style="stop-color:#b5bdc2" offset="1"/>
  </linearGradient>
 </defs>
</svg>
