<svg clip-rule="evenodd" fill-rule="evenodd" stroke-linejoin="round" stroke-miterlimit="2" viewBox="0 0 64 64" xmlns="http://www.w3.org/2000/svg">
 <linearGradient id="a" x2="1" gradientTransform="matrix(0 -49.619 49.619 0 177.88 51.088)" gradientUnits="userSpaceOnUse">
  <stop stop-color="#812d7b" offset="0"/>
  <stop stop-color="#934e8d" offset="1"/>
 </linearGradient>
 <path d="m54 3.146c0-.926-.751-1.677-1.677-1.677h-34.705c-2.02 0-3.958.803-5.387 2.231-1.428 1.429-2.231 3.367-2.231 5.387v45.295c0 2.02.803 3.958 2.231 5.387 1.429 1.428 3.367 2.231 5.387 2.231h28.764c2.02 0 3.958-.803 5.387-2.231 1.428-1.429 2.231-3.367 2.231-5.387z" fill="url(#a)"/>
 <g fill-rule="nonzero">
  <path d="m40.901 18.965c-2.354-1.912-5.48-2.965-8.801-2.965s-6.447 1.053-8.801 2.965c-2.374 1.929-3.682 4.5-3.682 7.239 0 2.614 1.192 5.074 3.365 6.97-.039.088-.07.181-.09.278l-.714 3.506c-.085.416.029.665.139.8.128.156.318.242.534.242.163 0 .339-.048.522-.143l4.152-2.153c1.438.461 2.984.704 4.575.704 3.321 0 6.447-1.053 8.801-2.966 2.374-1.928 3.682-4.499 3.682-7.238s-1.307-5.31-3.682-7.239z" fill="#472244"/>
  <path d="m36.188 57.912h-.754v-4.016h.721v.656h.033c.077-.219.232-.399.467-.541.241-.142.473-.213.697-.213s.412.033.565.098l-.286.705c-.099-.038-.233-.057-.402-.057-.273 0-.516.109-.729.328-.208.213-.312.494-.312.844z" fill="#fff"/>
  <path d="m28.148 58.043c-.601 0-1.096-.202-1.484-.606-.388-.41-.581-.921-.581-1.533s.193-1.12.581-1.524c.388-.41.883-.615 1.484-.615.448 0 .819.109 1.114.328.295.218.511.494.648.828l-.689.287c-.207-.503-.581-.754-1.122-.754-.334 0-.629.136-.885.409-.252.273-.377.62-.377 1.041s.125.768.377 1.041c.256.273.551.41.885.41.562 0 .95-.252 1.163-.754l.672.287c-.136.327-.357.603-.663.827-.301.219-.675.328-1.123.328z" fill="#fff" fill-opacity=".95"/>
  <path d="m32.812 58.043c-.306 0-.582-.065-.828-.197-.241-.131-.421-.295-.541-.491h-.033v.557h-.721v-5.868h.754v1.852l-.033.558h.033c.12-.197.3-.361.541-.492.246-.131.522-.197.828-.197.519 0 .967.205 1.344.615s.565.918.565 1.524c0 .607-.188 1.115-.565 1.524-.377.41-.825.615-1.344.615zm-.123-.688c.349 0 .65-.131.901-.394.251-.267.377-.62.377-1.057s-.126-.787-.377-1.049c-.251-.268-.552-.401-.901-.401-.355 0-.659.131-.91.393-.246.262-.369.615-.369 1.057 0 .443.123.795.369 1.057.251.263.555.394.91.394z" fill="#fff" fill-opacity=".95"/>
 </g>
</svg>
