<svg style="clip-rule:evenodd;fill-rule:evenodd;stroke-linejoin:round;stroke-miterlimit:2" viewBox="0 0 64 64" xmlns="http://www.w3.org/2000/svg">
 <path d="m54 3.146c0-0.926-0.751-1.677-1.677-1.677h-34.705c-2.02 0-3.958 0.803-5.387 2.231-1.428 1.429-2.231 3.367-2.231 5.387v45.295c0 2.02 0.803 3.958 2.231 5.387 1.429 1.428 3.367 2.231 5.387 2.231h28.764c2.02 0 3.958-0.803 5.387-2.231 1.428-1.429 2.231-3.367 2.231-5.387v-51.236z" style="fill:url(#_Linear1)"/>
 <path d="m22.627 57.519c-0.25-0.06-0.447-0.115-0.592-0.165s-0.295-0.12-0.45-0.21-0.268-0.203-0.338-0.338-0.105-0.297-0.105-0.487c0-0.125 0.02-0.245 0.06-0.36 0.045-0.12 0.118-0.238 0.218-0.353 0.1-0.12 0.247-0.215 0.442-0.285 0.2-0.075 0.435-0.112 0.705-0.112 0.28 0 0.52 0.03 0.72 0.09 0.2 0.055 0.355 0.137 0.465 0.247s0.193 0.223 0.248 0.338 0.095 0.252 0.12 0.412l-0.653 0.083c-0.06-0.42-0.345-0.63-0.855-0.63-0.535 0-0.802 0.167-0.802 0.502 0 0.15 0.057 0.26 0.172 0.33s0.33 0.148 0.645 0.233c0.045 0.01 0.128 0.032 0.248 0.067 0.125 0.03 0.207 0.053 0.247 0.068 0.045 0.01 0.12 0.032 0.225 0.067 0.105 0.03 0.178 0.055 0.218 0.075 0.045 0.02 0.107 0.05 0.187 0.09 0.085 0.04 0.145 0.078 0.18 0.113s0.078 0.08 0.128 0.135 0.085 0.112 0.105 0.172c0.025 0.055 0.045 0.12 0.06 0.195 0.02 0.075 0.03 0.155 0.03 0.24 0 0.235-0.055 0.438-0.165 0.608-0.105 0.17-0.243 0.3-0.413 0.39-0.165 0.085-0.33 0.145-0.495 0.18-0.165 0.04-0.327 0.06-0.487 0.06-0.96 0-1.515-0.418-1.665-1.253l0.652-0.105c0.07 0.545 0.408 0.818 1.013 0.818 0.595 0 0.892-0.208 0.892-0.623 0-0.045-5e-3 -0.085-0.015-0.12-5e-3 -0.04-0.02-0.075-0.045-0.105s-0.047-0.055-0.067-0.075c-0.02-0.025-0.053-0.047-0.098-0.067-0.045-0.025-0.082-0.043-0.112-0.053-0.025-0.015-0.07-0.03-0.135-0.045-0.065-0.02-0.115-0.035-0.15-0.045-0.03-0.01-0.085-0.022-0.165-0.037-0.08-0.02-0.138-0.035-0.173-0.045z" style="fill-rule:nonzero;fill:#fff"/>
 <path d="m26.58 55.749c-0.32 0-0.552 0.057-0.697 0.172-0.14 0.11-0.25 0.3-0.33 0.57l-0.63-0.09c0.165-0.795 0.747-1.192 1.747-1.192 0.55 0 0.938 0.102 1.163 0.307 0.23 0.2 0.345 0.588 0.345 1.163v1.71c0 0.275 0.067 0.54 0.202 0.795h-0.682c-0.065-0.14-0.108-0.3-0.128-0.48-0.455 0.38-0.935 0.57-1.44 0.57-0.39 0-0.71-0.098-0.96-0.293-0.25-0.2-0.375-0.472-0.375-0.817 0-0.4 0.188-0.72 0.563-0.96 0.16-0.105 0.505-0.195 1.035-0.27 0.53-0.08 0.902-0.158 1.117-0.233v-0.165c0-0.525-0.31-0.787-0.93-0.787zm-0.285 2.985c0.81 0 1.215-0.42 1.215-1.26v-0.233c-0.165 0.07-0.44 0.135-0.825 0.195-0.38 0.055-0.68 0.133-0.9 0.233-0.215 0.095-0.322 0.252-0.322 0.472 0 0.395 0.277 0.593 0.832 0.593z" style="fill-rule:nonzero;fill:#fff"/>
 <path d="m30.823 55.749c-0.195 0-0.358 0.037-0.488 0.112-0.13 0.07-0.227 0.175-0.292 0.315-0.065 0.135-0.11 0.28-0.135 0.435s-0.038 0.338-0.038 0.548v2.025h-0.667v-3.885h0.667v0.54c0.19-0.42 0.558-0.63 1.103-0.63 0.565 0 0.93 0.225 1.095 0.675 0.305-0.45 0.707-0.675 1.207-0.675 0.8 0 1.2 0.435 1.2 1.305v2.67h-0.667v-2.445c0-0.66-0.228-0.99-0.683-0.99-0.63 0-0.945 0.39-0.945 1.17v2.265h-0.667v-2.528c0-0.605-0.23-0.907-0.69-0.907z" style="fill-rule:nonzero;fill:#fff"/>
 <path d="m38.81 57.181c0 0.615-0.15 1.118-0.45 1.508-0.295 0.39-0.705 0.585-1.23 0.585-0.43 0-0.775-0.19-1.035-0.57v0.48h-0.667v-5.37h0.667v1.912c0.275-0.345 0.633-0.517 1.073-0.517 0.505 0 0.905 0.18 1.2 0.54 0.295 0.355 0.442 0.832 0.442 1.432zm-1.702-1.432c-0.33 0-0.583 0.135-0.758 0.405-0.17 0.27-0.255 0.62-0.255 1.05 0 0.575 0.098 0.975 0.293 1.2 0.195 0.22 0.425 0.33 0.69 0.33 0.2 0 0.372-0.05 0.517-0.15 0.15-0.1 0.263-0.23 0.338-0.39 0.075-0.165 0.127-0.325 0.157-0.48 0.035-0.16 0.053-0.318 0.053-0.473 0-0.43-0.083-0.785-0.248-1.065-0.165-0.285-0.427-0.427-0.787-0.427z" style="fill-rule:nonzero;fill:#fff"/>
 <path d="m41.17 55.749c-0.32 0-0.552 0.057-0.697 0.172-0.14 0.11-0.25 0.3-0.33 0.57l-0.63-0.09c0.165-0.795 0.747-1.192 1.747-1.192 0.55 0 0.938 0.102 1.163 0.307 0.23 0.2 0.345 0.588 0.345 1.163v1.71c0 0.275 0.067 0.54 0.202 0.795h-0.682c-0.065-0.14-0.108-0.3-0.128-0.48-0.455 0.38-0.935 0.57-1.44 0.57-0.39 0-0.71-0.098-0.96-0.293-0.25-0.2-0.375-0.472-0.375-0.817 0-0.4 0.188-0.72 0.563-0.96 0.16-0.105 0.505-0.195 1.035-0.27 0.53-0.08 0.902-0.158 1.117-0.233v-0.165c0-0.525-0.31-0.787-0.93-0.787zm-0.285 2.985c0.81 0 1.215-0.42 1.215-1.26v-0.233c-0.165 0.07-0.44 0.135-0.825 0.195-0.38 0.055-0.68 0.133-0.9 0.233-0.215 0.095-0.322 0.252-0.322 0.472 0 0.395 0.277 0.593 0.832 0.593z" style="fill-rule:nonzero;fill:#fff"/>
 <path d="m22.912 24.481c1.767 0 3.2 1.432 3.2 3.2 0 1.011-0.47 1.913-1.202 2.499 1.01 3.074 3.831 5.327 7.202 5.501 0 1.24 0.513 2.361 1.339 3.161l-0.939 0.039c-5.159 0-9.503-3.488-10.803-8.234-1.172-0.476-1.997-1.624-1.997-2.966 0-1.768 1.432-3.2 3.2-3.2zm13.2-8c1.767 0 3.2 1.432 3.2 3.2 0 1.767-1.433 3.2-3.2 3.2-1.764 0-3.195-1.428-3.2-3.19-0.133-7e-3 -0.266-0.01-0.4-0.01-3.108 0-5.802 1.772-7.127 4.361-0.705-0.481-1.556-0.761-2.473-0.761l-0.729 0.06c1.696-4.03 5.682-6.86 10.329-6.86 0.809 0 1.599 0.086 2.36 0.249 0.381-0.161 0.8-0.249 1.24-0.249zm0.4 16c0.706 0 1.358 0.228 1.887 0.616 1.312-1.425 2.113-3.327 2.113-5.416 0-1.748-0.561-3.365-1.512-4.681 0.889-0.774 1.464-1.9 1.509-3.16 1.981 2.02 3.203 4.788 3.203 7.841 0 3.473-1.581 6.577-4.063 8.631-0.293 1.465-1.586 2.569-3.137 2.569-1.768 0-3.2-1.433-3.2-3.2 0-1.768 1.432-3.2 3.2-3.2z" style="fill-rule:nonzero;fill:#296f79"/>
 <defs>
  <linearGradient id="_Linear1" x2="1" gradientTransform="matrix(3.03829e-15,-49.619,49.619,3.03829e-15,469.44,51.088)" gradientUnits="userSpaceOnUse">
   <stop style="stop-color:#348692" offset="0"/>
   <stop style="stop-color:#69b9cd" offset="1"/>
  </linearGradient>
 </defs>
</svg>
