<svg clip-rule="evenodd" fill-rule="evenodd" stroke-linejoin="round" stroke-miterlimit="2" viewBox="0 0 64 64" xmlns="http://www.w3.org/2000/svg">
 <linearGradient id="a" x2="1" gradientTransform="matrix(0 -49.619 49.619 0 177.88 51.088)" gradientUnits="userSpaceOnUse">
  <stop stop-color="#758b9a" offset="0"/>
  <stop stop-color="#b5bdc2" offset="1"/>
 </linearGradient>
 <path d="m54 3.146c0-.926-.751-1.677-1.677-1.677h-34.705c-2.02 0-3.958.803-5.387 2.231-1.428 1.429-2.231 3.367-2.231 5.387v45.295c0 2.02.803 3.958 2.231 5.387 1.429 1.428 3.367 2.231 5.387 2.231h28.764c2.02 0 3.958-.803 5.387-2.231 1.428-1.429 2.231-3.367 2.231-5.387z" fill="url(#a)"/>
 <path transform="translate(0 1.992)" d="m35.546 20.589-14.517 1.84 1.037 2.287 10.511-1.553 3.801 3.912 6.125-1.073zm-2.846 6.913-9.999 1.698.974 2.555 5.44-1.027 1.394 2.41 5.762-1.241zm-3.273 8.075-4.945 1.083.948 2.767 5.338-1.349z" fill="#ffffff" fill-rule="nonzero"/>
</svg>
