<svg style="clip-rule:evenodd;fill-rule:evenodd;stroke-linejoin:round;stroke-miterlimit:2" viewBox="0 0 64 64" xmlns="http://www.w3.org/2000/svg">
 <path d="m54 3.146c0-0.926-0.751-1.677-1.677-1.677h-34.705c-2.02 0-3.958 0.803-5.387 2.231-1.428 1.429-2.231 3.367-2.231 5.387v45.295c0 2.02 0.803 3.958 2.231 5.387 1.429 1.428 3.367 2.231 5.387 2.231h28.764c2.02 0 3.958-0.803 5.387-2.231 1.428-1.429 2.231-3.367 2.231-5.387v-51.236z" style="fill:url(#_Linear1)"/>
 <path d="m16.765 41.751c0 0.844 0.679 1.523 1.523 1.523h27.424c0.844 0 1.523-0.679 1.523-1.523v-16.454c0-0.845-0.679-1.524-1.523-1.524h-15.54v-1.524c0-0.844-0.68-1.523-1.524-1.523h-10.36c-0.844 0-1.523 0.679-1.523 1.523" style="fill-rule:nonzero;fill:#c18600"/>
 <circle cx="26.983" cy="31.086" r="1.219" style="fill:#513b05"/>
 <circle cx="30.03" cy="31.086" r="1.219" style="fill:#513b05"/>
 <circle cx="33.077" cy="31.086" r="1.219" style="fill:#513b05"/>
 <circle cx="36.124" cy="31.086" r="1.219" style="fill:#513b05"/>
 <circle cx="26.983" cy="34.133" r="1.219" style="fill:#513b05"/>
 <circle cx="30.03" cy="34.133" r="1.219" style="fill:#513b05"/>
 <circle cx="33.077" cy="34.133" r="1.219" style="fill:#513b05"/>
 <circle cx="36.124" cy="34.133" r="1.219" style="fill:#513b05"/>
 <circle cx="39.171" cy="34.133" r="1.219" style="fill:#513b05"/>
 <circle cx="23.936" cy="34.133" r="1.219" style="fill:#513b05"/>
 <circle cx="23.936" cy="37.18" r="1.219" style="fill:#513b05"/>
 <circle cx="26.983" cy="37.18" r="1.219" style="fill:#513b05"/>
 <circle cx="39.171" cy="37.18" r="1.219" style="fill:#513b05"/>
 <circle cx="36.124" cy="37.18" r="1.219" style="fill:#513b05"/>
 <defs>
  <linearGradient id="_Linear1" x2="1" gradientTransform="matrix(3.03829e-15,-49.619,49.619,3.03829e-15,615.22,51.088)" gradientUnits="userSpaceOnUse">
   <stop style="stop-color:#e8a80e" offset="0"/>
   <stop style="stop-color:#ffc740" offset="1"/>
  </linearGradient>
 </defs>
</svg>
