<svg clip-rule="evenodd" fill-rule="evenodd" stroke-linejoin="round" stroke-miterlimit="2" viewBox="0 0 64 64" xmlns="http://www.w3.org/2000/svg">
 <linearGradient id="a" x2="1" gradientTransform="matrix(0 -49.619 49.619 0 396.55 51.088)" gradientUnits="userSpaceOnUse">
  <stop stop-color="#005d77" offset="0"/>
  <stop stop-color="#0294a7" offset="1"/>
 </linearGradient>
 <path d="m54 3.146c0-.926-.751-1.677-1.677-1.677h-34.705c-2.02 0-3.958.803-5.387 2.231-1.428 1.429-2.231 3.367-2.231 5.387v45.295c0 2.02.803 3.958 2.231 5.387 1.429 1.428 3.367 2.231 5.387 2.231h28.764c2.02 0 3.958-.803 5.387-2.231 1.428-1.429 2.231-3.367 2.231-5.387v-51.236z" fill="url(#a)"/>
 <g fill-rule="nonzero">
  <path d="m23.957 19c-.53 0-.957.465-.957 1.043v15.912c0 .579.427 1.045.957 1.045h16.086c.53 0 .957-.466.957-1.045v-15.912c0-.578-.427-1.043-.957-1.043zm10.182 6.432 3.861 5.136h-12l3-3.849 2.139 2.574z" fill="#00363f"/>
  <path d="m28.312 55.865c-.293.25-.576.426-.847.529-.272.102-.563.154-.874.154-.513 0-.908-.126-1.184-.377-.275-.251-.413-.571-.413-.961 0-.229.052-.438.156-.627.104-.19.24-.341.409-.456.169-.114.359-.201.57-.26.156-.041.39-.08.704-.118.64-.077 1.111-.168 1.413-.273.003-.109.004-.178.004-.207 0-.323-.074-.55-.224-.682-.203-.179-.503-.269-.902-.269-.373 0-.648.066-.825.196-.178.131-.309.362-.394.693l-.775-.105c.071-.332.186-.6.348-.803.161-.204.394-.361.7-.471.305-.11.658-.165 1.06-.165.399 0 .723.047.973.14.249.094.432.212.55.355.117.142.199.322.246.539.027.135.04.378.04.73v1.057c0 .736.017 1.202.05 1.397.034.195.101.382.201.561h-.828c-.082-.164-.135-.356-.158-.577zm-.066-1.769c-.288.118-.719.217-1.294.3-.326.047-.556.099-.691.158s-.239.145-.312.257c-.074.113-.11.239-.11.377 0 .211.08.387.239.528.16.141.394.211.702.211.306 0 .577-.067.815-.2.237-.134.412-.316.523-.548.085-.179.128-.443.128-.792z" fill="#ffffff"/>
  <path d="m31.573 56.442-1.778-4.674h.836l1.004 2.799c.108.302.208.616.299.942.07-.246.169-.543.295-.889l1.038-2.852h.814l-1.769 4.674z" fill="#ffffff"/>
  <path d="m34.786 50.901v-.911h.792v.911zm0 5.541v-4.674h.792v4.674z" fill="#ffffff"/>
  <path d="m36.973 56.442v-4.058h-.7v-.616h.7v-.497c0-.314.028-.547.083-.7.077-.205.211-.372.403-.499.192-.128.462-.192.808-.192.223 0 .469.027.739.08l-.119.69c-.164-.029-.32-.044-.466-.044-.241 0-.411.052-.511.154-.1.103-.149.295-.149.577v.431h.911v.616h-.911v4.058z" fill="#ffffff"/>
 </g>
</svg>
