<svg clip-rule="evenodd" fill-rule="evenodd" stroke-linejoin="round" stroke-miterlimit="2" viewBox="0 0 64 64" xmlns="http://www.w3.org/2000/svg">
 <linearGradient id="a" x2="1" gradientTransform="matrix(0 -49.619 49.619 0 177.88 51.088)" gradientUnits="userSpaceOnUse">
  <stop stop-color="#742d9c" offset="0"/>
  <stop stop-color="#bb4ea7" offset="1"/>
 </linearGradient>
 <path d="m54 3.146c0-.926-.751-1.677-1.677-1.677h-34.705c-2.02 0-3.958.803-5.387 2.231-1.428 1.429-2.231 3.367-2.231 5.387v45.295c0 2.02.803 3.958 2.231 5.387 1.429 1.428 3.367 2.231 5.387 2.231h28.764c2.02 0 3.958-.803 5.387-2.231 1.428-1.429 2.231-3.367 2.231-5.387z" fill="url(#a)"/>
 <g fill="#fff" fill-rule="nonzero">
  <path d="m25.464 53.772v3.614l1.737-1.762h.968v.033l-1.566 1.565 1.639 2.385v.033h-.909l-1.263-1.893-.606.606v1.287h-.754v-5.868z"/>
  <path d="m29.418 59.64h-.754v-4.016h.721v.656h.033c.076-.219.232-.399.467-.541.24-.142.472-.213.696-.213s.413.033.566.098l-.287.705c-.098-.038-.232-.057-.401-.057-.274 0-.517.109-.73.327-.208.213-.311.495-.311.844z"/>
  <path d="m32.461 54.616c-.104.104-.23.156-.377.156-.148 0-.274-.052-.377-.156-.104-.104-.156-.229-.156-.377 0-.147.052-.273.156-.377.103-.104.229-.156.377-.156.147 0 .273.052.377.156.103.104.155.23.155.377 0 .148-.052.273-.155.377zm0 5.024h-.754v-4.016h.754z"/>
  <path d="m35.139 59.705c-.421 0-.743-.112-.967-.336-.218-.224-.328-.54-.328-.95v-2.107h-.705v-.688h.705v-1.229h.754v1.229h.984v.688h-.984v2.049c0 .437.181.656.541.656.137 0 .251-.022.344-.066l.263.648c-.164.071-.366.106-.607.106z"/>
  <path d="m37.489 59.771c-.426 0-.784-.123-1.073-.369-.285-.246-.427-.571-.427-.975 0-.437.17-.779.509-1.024.338-.252.756-.377 1.253-.377.443 0 .806.081 1.09.245v-.114c0-.295-.101-.53-.303-.705-.202-.18-.451-.271-.746-.271-.218 0-.418.052-.598.156-.175.104-.295.246-.36.426l-.689-.295c.093-.24.276-.461.549-.664.273-.207.634-.311 1.082-.311.514 0 .94.15 1.279.451.338.3.508.724.508 1.27v2.426h-.722v-.557h-.032c-.301.459-.741.688-1.32.688zm.123-.688c.312 0 .593-.115.844-.345.257-.235.385-.51.385-.827-.213-.175-.532-.263-.958-.263-.366 0-.642.08-.828.238s-.279.344-.279.557c0 .197.085.353.254.467.17.115.364.173.582.173z"/>
 </g>
 <path transform="matrix(1.14579 0 0 1.14579 -4.17743 -3.32292)" d="m35.86 30.676c.088.221.15.457.183.708.128.959-.164 2.086-.844 3.258-1.496 2.579-3.922 3.535-5.542 3.331-.036-.004-.07-.016-.1-.033-.051-.03-.092-.077-.114-.134-.036-.09-.019-.193.044-.268.641-.755.469-1.511.251-2.468-.228-1.001-.487-2.135.214-3.46.882-1.669 1.936-2.268 2.664-2.477.151-.043.303-.073.456-.092zm6.526-14.51c.559.325.773 1.026.488 1.607-.178.365-4.375 8.941-5.074 10.147-.351.604-1 1.426-1.607 2.146l-2.789-1.635c.324-.884.713-1.851 1.058-2.447.691-1.191 6.058-9.107 6.286-9.443.363-.536 1.078-.699 1.638-.375zm-13.395 17.512c.029.551.145 1.057.249 1.513.224.982.312 1.477-.137 2.007-.091.108-.149.235-.174.368-.171-.172-.3-.4-.354-.69-.07-.473-.219-.711-.517-.826-.417-.146-.878-.158-1.277-.158-.075 0-.15 0-.225.001-.914.006-1.804.006-2.475-.867-.763-.994-.321-1.89.106-2.757.226-.459.46-.933.507-1.415.012-.106-.009-.189-.066-.258-.216-.264-.916-.318-1.594-.371-.689-.053-1.401-.108-1.842-.37-.818-.488-1.018-1.207-1.041-1.726-.044-.972.511-2.074 1.349-2.681.045-.033.108-.025.143.018.036.043.033.106-.007.145-.655.628-1.292 2.136-.761 2.978.286.438.758.625 1.579.625.239 0 .488-.015.729-.029.235-.014.478-.029.705-.029.275 0 .492.021.68.066.646.123 1.228.548 1.477 1.082.299.643.14 1.32-.076 1.956-.015.045-.042.108-.076.188-.134.315-.445 1.049-.229 1.319.019.017.081.05.259.05.254 0 .617-.063 1.002-.13.431-.076.877-.153 1.233-.153.044 0 .086.001.126.003.236.015.469.062.707.141z" fill="#4d2167"/>
</svg>
