<svg style="clip-rule:evenodd;fill-rule:evenodd;stroke-linejoin:round;stroke-miterlimit:2" viewBox="0 0 64 64" xmlns="http://www.w3.org/2000/svg">
 <path d="m54 3.146c0-0.926-0.751-1.677-1.677-1.677h-34.705c-2.02 0-3.958 0.803-5.387 2.231-1.428 1.429-2.231 3.367-2.231 5.387v45.295c0 2.02 0.803 3.958 2.231 5.387 1.429 1.428 3.367 2.231 5.387 2.231h28.764c2.02 0 3.958-0.803 5.387-2.231 1.428-1.429 2.231-3.367 2.231-5.387v-51.236z" style="fill:url(#_Linear1)"/>
 <path d="m26.063 58.44h-0.754v-4.016h0.721v0.656h0.033c0.076-0.219 0.232-0.399 0.467-0.541 0.241-0.142 0.473-0.213 0.697-0.213s0.412 0.032 0.565 0.098l-0.287 0.705c-0.098-0.038-0.232-0.058-0.401-0.058-0.273 0-0.517 0.11-0.73 0.328-0.207 0.213-0.311 0.495-0.311 0.844v2.197z" style="fill-rule:nonzero;fill:#fff"/>
 <path d="m30.376 58.571c-0.306 0-0.582-0.066-0.828-0.197-0.24-0.131-0.42-0.295-0.541-0.492h-0.032l0.032 0.558v1.77h-0.754v-5.786h0.722v0.557h0.032c0.121-0.196 0.301-0.36 0.541-0.491 0.246-0.132 0.522-0.197 0.828-0.197 0.519 0 0.967 0.205 1.344 0.615 0.377 0.409 0.566 0.917 0.566 1.524 0 0.606-0.189 1.114-0.566 1.524s-0.825 0.615-1.344 0.615zm-0.123-0.689c0.35 0 0.65-0.131 0.902-0.393 0.251-0.268 0.377-0.62 0.377-1.057s-0.126-0.787-0.377-1.049c-0.252-0.268-0.552-0.402-0.902-0.402-0.355 0-0.658 0.131-0.91 0.394-0.245 0.262-0.368 0.614-0.368 1.057 0 0.442 0.123 0.795 0.368 1.057 0.252 0.262 0.555 0.393 0.91 0.393z" style="fill-rule:nonzero;fill:#fff"/>
 <path d="m32.928 58.44v-4.016h0.721v0.557h0.033c0.115-0.191 0.29-0.352 0.525-0.483 0.24-0.137 0.478-0.205 0.713-0.205 0.623 0 1.046 0.257 1.27 0.77 0.328-0.513 0.795-0.77 1.401-0.77 0.476 0 0.834 0.153 1.074 0.459 0.24 0.3 0.361 0.71 0.361 1.229v2.459h-0.754v-2.344c0-0.404-0.074-0.691-0.222-0.861-0.147-0.169-0.371-0.254-0.672-0.254-0.295 0-0.54 0.126-0.737 0.377-0.191 0.252-0.287 0.538-0.287 0.861v2.221h-0.754v-2.344c0-0.404-0.074-0.691-0.221-0.861-0.148-0.169-0.372-0.254-0.672-0.254-0.295 0-0.541 0.126-0.738 0.377-0.191 0.252-0.287 0.538-0.287 0.861v2.221h-0.754z" style="fill-rule:nonzero;fill:#fff"/>
 <path d="m31.757 12.085c-7.156 0-12.958 5.801-12.958 12.957 0 7.157 5.802 12.958 12.958 12.958s12.957-5.801 12.957-12.958c0-7.156-5.801-12.957-12.957-12.957zm0.062 1.794c6.165 0 11.168 4.999 11.168 11.163 0 6.166-5.003 11.163-11.168 11.163-3.329 0-6.317-1.459-8.362-3.77 0.841-0.653 2.248-0.493 3.981-0.296 0.83 0.094 1.777 0.203 2.754 0.224 2.729 0.016 5.666-0.482 7.478-1.274 1.172-0.514 1.922-0.852 2.391-1.279 0.169-0.139 0.258-0.37 0.348-0.611l0.062-0.162c0.076-0.194 0.185-0.612 0.234-0.84 0.022-0.1 0.033-0.207-0.038-0.263l-0.253 0.048c-0.795 0.477-2.782 1.385-4.643 1.422-2.307 0.049-6.956-2.322-7.441-2.572l-0.047-0.057c-0.117-0.278-0.812-1.929-0.96-2.277 3.347 2.204 6.121 3.423 8.247 3.613 2.364 0.21 4.208-1.081 4.997-1.632 0.154-0.105 0.271-0.188 0.32-0.205l0.052-0.086c-0.131-0.832-1.371-4.852-2.306-5.818-0.259-0.265-0.464-0.522-0.883-0.769-3.38-1.97-11.407-3.157-11.783-3.211l-0.062 0.019-0.024 0.052s-0.03 1.667-0.034 1.852c-0.275-0.091-1.129-0.371-2.352-0.706 1.596-1.975 4.042-3.727 8.323-3.727l1e-3 -1e-3zm2.949 5.909c0.057-1e-3 0.115-2e-3 0.172 0 1.894 0.068 3.382 1.663 3.317 3.555-0.034 0.916-0.42 1.762-1.088 2.387-0.67 0.628-1.542 0.955-2.463 0.926-1.89-0.071-3.378-1.666-3.317-3.556 0.033-0.917 0.421-1.768 1.093-2.391 0.628-0.589 1.432-0.908 2.286-0.921zm-0.09 1.012c-0.552 0.033-1.072 0.257-1.48 0.639-0.464 0.436-0.738 1.026-0.759 1.666-0.043 1.321 0.991 2.433 2.31 2.482 0.642 0.019 1.25-0.205 1.718-0.64 0.467-0.438 0.739-1.034 0.759-1.67 0.045-1.323-0.994-2.431-2.314-2.477-0.08-3e-3 -0.155-5e-3 -0.234 0zm0.63 1.198c0.586 0 1.059 0.318 1.059 0.711 0 0.39-0.473 0.711-1.059 0.711-0.589 0-1.065-0.322-1.065-0.711 0-0.393 0.476-0.711 1.065-0.711z" style="fill-opacity:.85;fill-rule:nonzero;fill:#fff"/>
 <defs>
  <linearGradient id="_Linear1" x2="1" gradientTransform="matrix(-.354839 -61.1575 61.1578 -.354838 32.5323 63.5381)" gradientUnits="userSpaceOnUse">
   <stop style="stop-color:#4a871d" offset="0"/>
   <stop style="stop-color:#8dd93d" offset="1"/>
  </linearGradient>
 </defs>
</svg>
