<svg clip-rule="evenodd" fill-rule="evenodd" stroke-linejoin="round" stroke-miterlimit="2" viewBox="0 0 48 48" xmlns="http://www.w3.org/2000/svg" xmlns:xlink="http://www.w3.org/1999/xlink"><linearGradient id="a" gradientTransform="matrix(0 -49.619 49.619 0 615.22 51.088)" gradientUnits="userSpaceOnUse" x1="0" x2="1" y1="0" y2="0"><stop offset="0" stop-color="#7e0b00"/><stop offset="1" stop-color="#c83737"/></linearGradient><path d="m54 3.146c0-.926-.751-1.677-1.677-1.677h-34.705c-2.02 0-3.958.803-5.387 2.231-1.428 1.429-2.231 3.367-2.231 5.387v45.295c0 2.02.803 3.958 2.231 5.387 1.429 1.428 3.367 2.231 5.387 2.231h28.764c2.02 0 3.958-.803 5.387-2.231 1.428-1.429 2.231-3.367 2.231-5.387z" fill="url(#a)" transform="matrix(.75 0 0 .75 0 .199125)"/><circle cx="23.99998" cy="23.99998" fill="#e4e4e4" fill-opacity=".5" r="11.1924" stroke-width=".55962"/><circle cx="23.99998" cy="23.99998" fill="#c83737" r="8.95392" stroke-width=".55962"/><path d="m19.11 15.001c-.016-.001-.033-.001-.049-.001-1.13 0-2.06.937-2.061 2.078v6.92l.001 6.92v.002c0 1.141.931 2.08 2.061 2.08.362 0 .717-.096 1.03-.278l5.938-3.463 5.939-3.459c.637-.371 1.031-1.059 1.031-1.802 0-.742-.393-1.43-1.03-1.801l-5.94-3.458-5.938-3.461c-.179-.104-.372-.18-.574-.226-.134-.031-.27-.048-.408-.051z" fill="#fff" fill-opacity=".5" transform="matrix(.55962 0 0 .55962 10.5691 10.5691)"/></svg>