<svg style="clip-rule:evenodd;fill-rule:evenodd;stroke-linejoin:round;stroke-miterlimit:2" viewBox="0 0 64 64" xmlns="http://www.w3.org/2000/svg">
 <path d="m54 3.146c0-0.926-0.751-1.677-1.677-1.677h-34.705c-2.02 0-3.958 0.803-5.387 2.231-1.428 1.429-2.231 3.367-2.231 5.387v45.295c0 2.02 0.803 3.958 2.231 5.387 1.429 1.428 3.367 2.231 5.387 2.231h28.764c2.02 0 3.958-0.803 5.387-2.231 1.428-1.429 2.231-3.367 2.231-5.387v-51.236z" style="fill:url(#_Linear1)"/>
 <path d="m25.464 53.772v3.614l1.737-1.762h0.968v0.033l-1.566 1.565 1.639 2.385v0.033h-0.909l-1.263-1.893-0.606 0.606v1.287h-0.754v-5.868h0.754z" style="fill-rule:nonzero;fill:#fff"/>
 <path d="m29.418 59.64h-0.754v-4.016h0.721v0.656h0.033c0.076-0.219 0.232-0.399 0.467-0.541 0.24-0.142 0.472-0.213 0.696-0.213s0.413 0.033 0.566 0.098l-0.287 0.705c-0.098-0.038-0.232-0.057-0.401-0.057-0.274 0-0.517 0.109-0.73 0.327-0.208 0.213-0.311 0.495-0.311 0.844v2.197z" style="fill-rule:nonzero;fill:#fff"/>
 <path d="m32.461 54.616c-0.104 0.104-0.23 0.156-0.377 0.156-0.148 0-0.274-0.052-0.377-0.156-0.104-0.104-0.156-0.229-0.156-0.377 0-0.147 0.052-0.273 0.156-0.377 0.103-0.104 0.229-0.156 0.377-0.156 0.147 0 0.273 0.052 0.377 0.156 0.103 0.104 0.155 0.23 0.155 0.377 0 0.148-0.052 0.273-0.155 0.377zm0 5.024h-0.754v-4.016h0.754v4.016z" style="fill-rule:nonzero;fill:#fff"/>
 <path d="m35.139 59.705c-0.421 0-0.743-0.112-0.967-0.336-0.218-0.224-0.328-0.54-0.328-0.95v-2.107h-0.705v-0.688h0.705v-1.229h0.754v1.229h0.984v0.688h-0.984v2.049c0 0.437 0.181 0.656 0.541 0.656 0.137 0 0.251-0.022 0.344-0.066l0.263 0.648c-0.164 0.071-0.366 0.106-0.607 0.106z" style="fill-rule:nonzero;fill:#fff"/>
 <path d="m37.489 59.771c-0.426 0-0.784-0.123-1.073-0.369-0.285-0.246-0.427-0.571-0.427-0.975 0-0.437 0.17-0.779 0.509-1.024 0.338-0.252 0.756-0.377 1.253-0.377 0.443 0 0.806 0.081 1.09 0.245v-0.114c0-0.295-0.101-0.53-0.303-0.705-0.202-0.18-0.451-0.271-0.746-0.271-0.218 0-0.418 0.052-0.598 0.156-0.175 0.104-0.295 0.246-0.36 0.426l-0.689-0.295c0.093-0.24 0.276-0.461 0.549-0.664 0.273-0.207 0.634-0.311 1.082-0.311 0.514 0 0.94 0.15 1.279 0.451 0.338 0.3 0.508 0.724 0.508 1.27v2.426h-0.722v-0.557h-0.032c-0.301 0.459-0.741 0.688-1.32 0.688zm0.123-0.688c0.312 0 0.593-0.115 0.844-0.345 0.257-0.235 0.385-0.51 0.385-0.827-0.213-0.175-0.532-0.263-0.958-0.263-0.366 0-0.642 0.08-0.828 0.238s-0.279 0.344-0.279 0.557c0 0.197 0.085 0.353 0.254 0.467 0.17 0.115 0.364 0.173 0.582 0.173z" style="fill-rule:nonzero;fill:#fff"/>
 <g opacity=".85">
  <path d="m35.86 30.676l-2.788-1.635c-0.153 0.019-0.305 0.049-0.456 0.092-0.728 0.209-1.782 0.808-2.664 2.477-0.701 1.325-0.442 2.459-0.214 3.46 0.218 0.957 0.39 1.713-0.251 2.468-0.063 0.075-0.08 0.178-0.044 0.268 0.022 0.057 0.063 0.104 0.114 0.134 0.03 0.017 0.064 0.029 0.1 0.033 1.62 0.204 4.046-0.752 5.542-3.331 0.68-1.172 0.972-2.299 0.844-3.258-0.033-0.251-0.095-0.487-0.183-0.708z" style="fill-rule:nonzero;fill:#4d2167"/>
  <path d="m42.386 16.166c-0.56-0.324-1.275-0.161-1.638 0.375-0.228 0.336-5.595 8.252-6.286 9.443-0.345 0.596-0.734 1.563-1.058 2.447l2.789 1.635c0.607-0.72 1.256-1.542 1.607-2.146 0.699-1.206 4.896-9.782 5.074-10.147 0.285-0.581 0.071-1.282-0.488-1.607z" style="fill-rule:nonzero;fill:#4d2167"/>
  <path d="m28.991 33.678c-0.238-0.079-0.471-0.126-0.707-0.141-0.04-2e-3 -0.082-3e-3 -0.126-3e-3 -0.356 0-0.802 0.077-1.233 0.153-0.385 0.067-0.748 0.13-1.002 0.13-0.178 0-0.24-0.033-0.259-0.05-0.216-0.27 0.095-1.004 0.229-1.319 0.034-0.08 0.061-0.143 0.076-0.188 0.216-0.636 0.375-1.313 0.076-1.956-0.249-0.534-0.831-0.959-1.477-1.082-0.188-0.045-0.405-0.066-0.68-0.066-0.227 0-0.47 0.015-0.705 0.029-0.241 0.014-0.49 0.029-0.729 0.029-0.821 0-1.293-0.187-1.579-0.625-0.531-0.842 0.106-2.35 0.761-2.978 0.04-0.039 0.043-0.102 7e-3 -0.145-0.035-0.043-0.098-0.051-0.143-0.018-0.838 0.607-1.393 1.709-1.349 2.681 0.023 0.519 0.223 1.238 1.041 1.726 0.441 0.262 1.153 0.317 1.842 0.37 0.678 0.053 1.378 0.107 1.594 0.371 0.057 0.069 0.078 0.152 0.066 0.258-0.047 0.482-0.281 0.956-0.507 1.415-0.427 0.867-0.869 1.763-0.106 2.757 0.671 0.873 1.561 0.873 2.475 0.867 0.075-1e-3 0.15-1e-3 0.225-1e-3 0.399 0 0.86 0.012 1.277 0.158 0.298 0.115 0.447 0.353 0.517 0.826 0.054 0.29 0.183 0.518 0.354 0.69 0.025-0.133 0.083-0.26 0.174-0.368 0.449-0.53 0.361-1.025 0.137-2.007-0.104-0.456-0.22-0.962-0.249-1.513z" style="fill-rule:nonzero;fill:#4d2167"/>
 </g>
 <defs>
  <linearGradient id="_Linear1" x2="1" gradientTransform="matrix(3.03829e-15,-49.619,49.619,3.03829e-15,104.99,51.088)" gradientUnits="userSpaceOnUse">
   <stop style="stop-color:#b24ceb" offset="0"/>
   <stop style="stop-color:#f060d5" offset="1"/>
  </linearGradient>
 </defs>
</svg>
