<svg clip-rule="evenodd" fill-rule="evenodd" stroke-linejoin="round" stroke-miterlimit="2" viewBox="0 0 48 48" xmlns="http://www.w3.org/2000/svg">
 <linearGradient id="a" x2="1" gradientTransform="matrix(0 -37.2142 37.2142 0 133.41 38.316)" gradientUnits="userSpaceOnUse">
  <stop stop-color="#266997" offset="0"/>
  <stop stop-color="#6fadd4" offset="1"/>
 </linearGradient>
 <path d="m40.5 2.359c0-.694-.563-1.257-1.258-1.257h-26.028c-1.515 0-2.969.602-4.041 1.673-1.071 1.072-1.673 2.525-1.673 4.04v33.972c0 1.515.602 2.968 1.673 4.04 1.072 1.071 2.526 1.673 4.041 1.673h21.573c1.515 0 2.968-.602 4.04-1.673 1.071-1.072 1.673-2.525 1.673-4.04v-38.427z" fill="url(#a)"/>
 <path d="m24 20c-5.523 0-10 4.477-10 10s4.477 10 10 10 10-4.477 10-10-4.477-10-10-10zm-4.277 7c1.182-.029 2.294.952 2.658 2.346.423 1.617-.301 3.221-1.615 3.582-1.315.362-2.724-.656-3.147-2.274-.422-1.616.301-3.219 1.615-3.58.159-.044.323-.069.489-.074zm8.554 0c.166.004.33.028.489.072 1.314.361 2.038 1.965 1.615 3.582-.423 1.618-1.832 2.636-3.147 2.274-1.314-.361-2.038-1.965-1.615-3.582.364-1.394 1.476-2.375 2.658-2.346z" fill="#d0ba96" fill-rule="nonzero"/>
</svg>
