<svg style="clip-rule:evenodd;fill-rule:evenodd" viewBox="0 0 64 64" xmlns="http://www.w3.org/2000/svg">
 <path d="m54 3.146c0-0.926-0.751-1.677-1.677-1.677h-34.705c-2.02 0-3.958 0.803-5.387 2.231-1.428 1.429-2.231 3.367-2.231 5.387v45.295c0 2.02 0.803 3.958 2.231 5.387 1.429 1.428 3.367 2.231 5.387 2.231h28.764c2.02 0 3.958-0.803 5.387-2.231 1.428-1.429 2.231-3.367 2.231-5.387v-51.236z" style="fill:url(#_Linear1)"/>
 <path d="m28.3 58.671c-0.306 0-0.582-0.066-0.828-0.197-0.241-0.131-0.421-0.295-0.541-0.492h-0.033l0.033 0.558v1.77h-0.754v-5.786h0.721v0.557h0.033c0.12-0.196 0.3-0.36 0.541-0.491 0.246-0.132 0.522-0.197 0.828-0.197 0.519 0 0.967 0.205 1.344 0.615 0.377 0.409 0.565 0.917 0.565 1.524 0 0.606-0.188 1.114-0.565 1.524s-0.825 0.615-1.344 0.615zm-0.123-0.689c0.349 0 0.65-0.131 0.901-0.393 0.252-0.268 0.377-0.62 0.377-1.057s-0.125-0.787-0.377-1.049c-0.251-0.268-0.552-0.402-0.901-0.402-0.355 0-0.659 0.131-0.91 0.394-0.246 0.262-0.369 0.614-0.369 1.057 0 0.442 0.123 0.795 0.369 1.057 0.251 0.262 0.555 0.393 0.91 0.393z" style="fill-rule:nonzero;fill:#fff"/>
 <path d="m31.252 55.008c0.388-0.41 0.883-0.615 1.484-0.615s1.095 0.205 1.483 0.615c0.388 0.404 0.582 0.912 0.582 1.524s-0.194 1.123-0.582 1.532c-0.388 0.405-0.882 0.607-1.483 0.607s-1.096-0.202-1.484-0.607c-0.388-0.409-0.582-0.92-0.582-1.532s0.194-1.12 0.582-1.524zm0.557 2.581c0.263 0.262 0.571 0.393 0.927 0.393 0.355 0 0.661-0.131 0.917-0.393 0.263-0.268 0.394-0.62 0.394-1.057s-0.131-0.787-0.394-1.049c-0.256-0.268-0.562-0.402-0.917-0.402-0.356 0-0.664 0.134-0.927 0.402-0.256 0.262-0.385 0.612-0.385 1.049s0.129 0.789 0.385 1.057z" style="fill-rule:nonzero;fill:#fff"/>
 <path d="m37.103 58.605c-0.421 0-0.743-0.112-0.967-0.336-0.218-0.224-0.328-0.541-0.328-0.95v-2.107h-0.705v-0.688h0.705v-1.229h0.754v1.229h0.984v0.688h-0.984v2.049c0 0.437 0.181 0.656 0.541 0.656 0.137 0 0.251-0.022 0.344-0.066l0.263 0.648c-0.164 0.071-0.366 0.106-0.607 0.106z" style="fill-rule:nonzero;fill:#fff"/>
 <path d="m22.46 37.697h10.073v-21.206l-9.983 1e-3c-1.098-0.082-1.543 0.02-1.543 1.014v19.122c-0.069 1.092 0.386 1.069 1.453 1.069z" style="fill:#3d434a"/>
 <path d="m41.846 37.69h-4.572l-2.344-1.968v-17.269l1.606-1.968h5.31c0.735-0.081 0.794 0.02 0.794 1.015v19.122c0.046 1.091-0.079 1.068-0.794 1.068z" style="fill:none;stroke-width:.7px;stroke:#3d434a"/>
 <path d="m40.113 38.7l-8.681-1.014v-21.195l8.609-0.807c1.065-0.081 1.122 0.212 1.122 1.207l-0.072 20.227c0.067 1.092 0.058 1.582-0.978 1.582z" style="fill:#3d434a"/>
 <path d="m27.782 23.424c1.927 0 3.49 1.56 3.49 3.488h-3.49v-3.488zm-0.982 0.948v3.491h3.491c0 1.93-1.562 3.491-3.491 3.491-1.928 0-3.489-1.561-3.489-3.491 0-1.928 1.562-3.491 3.489-3.491z" style="fill-rule:nonzero;fill:#9ba7b4"/>
 <rect x="32.487" y="25.304" width="6.349" height="1.19" style="fill:#9ba7b4"/>
 <rect x="32.493" y="27.37" width="6.349" height="1.19" style="fill:#9ba7b4"/>
 <rect x="32.503" y="29.287" width="6.349" height="1.19" style="fill:#9ba7b4"/>
 <defs>
  <linearGradient id="_Linear1" x2="1" gradientTransform="matrix(3.03829e-15,-49.619,49.619,3.03829e-15,104.99,51.088)" gradientUnits="userSpaceOnUse">
   <stop style="stop-color:#758b9a" offset="0"/>
   <stop style="stop-color:#b5bdc2" offset="1"/>
  </linearGradient>
 </defs>
</svg>
