<svg style="clip-rule:evenodd;fill-rule:evenodd;stroke-linejoin:round;stroke-miterlimit:2" viewBox="0 0 64 64" xmlns="http://www.w3.org/2000/svg">
 <path d="m54 3.146c0-0.926-0.751-1.677-1.677-1.677h-34.705c-2.02 0-3.958 0.803-5.387 2.231-1.428 1.429-2.231 3.367-2.231 5.387v45.295c0 2.02 0.803 3.958 2.231 5.387 1.429 1.428 3.367 2.231 5.387 2.231h28.764c2.02 0 3.958-0.803 5.387-2.231 1.428-1.429 2.231-3.367 2.231-5.387v-51.236z" style="fill:url(#_Linear1)"/>
 <path d="m42 18.285c0-1.262-1.023-2.285-2.285-2.285h-15.23c-1.262 0-2.285 1.023-2.285 2.285v17.43c0 1.262 1.023 2.285 2.285 2.285h15.23c1.262 0 2.285-1.023 2.285-2.285v-17.43z" style="fill:#044937"/>
 <path d="m33.245 24.663v1.1h-2.2v-1.1h2.2zm0-1.645v1.1h-2.2v-1.1h2.2zm0-1.608v1.1h-2.2v-1.1h2.2zm-0.024-1.636v1.1h-2.2v-1.1h2.2zm0.014-1.572v1.1h-2.2v-1.1h2.2zm4e-3 -1.591v1.1h-2.2v-1.1h2.2z" style="fill-opacity:.93;fill:#fff"/>
 <path d="m32.951 27.371v-0.694c0-0.194-0.157-0.351-0.349-0.351h-0.97c-0.193 0-0.349 0.157-0.349 0.351v0.693l-0.539 1.591c-0.151 0.443-0.079 0.935 0.193 1.317 0.272 0.381 0.713 0.608 1.18 0.608s0.908-0.227 1.18-0.608c0.271-0.382 0.344-0.874 0.193-1.317l-0.539-1.59zm-0.226 2.497c-0.279 0.393-0.937 0.393-1.217 0-0.14-0.197-0.177-0.451-0.1-0.68l0.181-0.533h1.055l0.181 0.533c0.078 0.229 0.04 0.483-0.1 0.68z" style="fill-rule:nonzero;fill:#fff"/>
 <path d="m29.047 59.105c-0.421 0-0.743-0.112-0.967-0.336-0.219-0.224-0.328-0.541-0.328-0.95v-2.107h-0.705v-0.688h0.705v-1.229h0.754v1.229h0.983v0.688h-0.983v2.049c0 0.437 0.18 0.656 0.541 0.656 0.136 0 0.251-0.022 0.344-0.066l0.262 0.648c-0.164 0.071-0.366 0.106-0.606 0.106z" style="fill-rule:nonzero;fill:#fff"/>
 <path d="m30.09 59.04v-0.656l2.286-2.672h-2.221v-0.688h3.147v0.656l-2.286 2.671h2.319v0.689h-3.245z" style="fill-rule:nonzero;fill:#fff"/>
 <path d="m34.337 55.508c0.387-0.41 0.882-0.615 1.483-0.615s1.095 0.205 1.483 0.615c0.388 0.404 0.582 0.912 0.582 1.524s-0.194 1.123-0.582 1.532c-0.388 0.405-0.882 0.607-1.483 0.607s-1.096-0.202-1.483-0.607c-0.388-0.409-0.582-0.92-0.582-1.532s0.194-1.12 0.582-1.524zm0.557 2.581c0.262 0.262 0.571 0.393 0.926 0.393s0.661-0.131 0.918-0.393c0.262-0.268 0.393-0.62 0.393-1.057s-0.131-0.787-0.393-1.049c-0.257-0.268-0.563-0.402-0.918-0.402s-0.664 0.134-0.926 0.402c-0.257 0.262-0.385 0.612-0.385 1.049s0.128 0.789 0.385 1.057z" style="fill-rule:nonzero;fill:#fff"/>
 <defs>
  <linearGradient id="_Linear1" x2="1" gradientTransform="matrix(1.07196,-49.7469,49.7469,1.07196,178.156,54.3653)" gradientUnits="userSpaceOnUse">
   <stop style="stop-color:#075" offset="0"/>
   <stop style="stop-color:#3ec884" offset="1"/>
  </linearGradient>
 </defs>
</svg>
