<svg clip-rule="evenodd" fill-rule="evenodd" viewBox="0 0 64 64" xmlns="http://www.w3.org/2000/svg">
 <linearGradient id="a" x2="1" gradientTransform="matrix(0 -49.619 49.619 0 177.88 51.088)" gradientUnits="userSpaceOnUse">
  <stop stop-color="#c57c2e" offset="0"/>
  <stop stop-color="#e78f68" offset="1"/>
 </linearGradient>
 <path d="m54 3.146c0-.926-.751-1.677-1.677-1.677h-34.705c-2.02 0-3.958.803-5.387 2.231-1.428 1.429-2.231 3.367-2.231 5.387v45.295c0 2.02.803 3.958 2.231 5.387 1.429 1.428 3.367 2.231 5.387 2.231h28.764c2.02 0 3.958-.803 5.387-2.231 1.428-1.429 2.231-3.367 2.231-5.387z" fill="url(#a)"/>
 <g transform="matrix(.066145 0 0 .066145 -6.00012 -6.50016)" fill="none" opacity=".7" stroke="#ffffff" stroke-width="30.24">
  <path d="m377.96 468.671 196.539-105.829 196.54 105.829v226.776l-196.54 105.829-196.539-105.829z"/>
  <path d="m771.039 468.671-196.54 105.828-196.539-105.828"/>
  <path d="m574.499 559.381v241.895"/>
 </g>
</svg>
