<svg style="clip-rule:evenodd;fill-rule:evenodd;stroke-linejoin:round;stroke-miterlimit:2" viewBox="0 0 64 64" xmlns="http://www.w3.org/2000/svg">
 <path d="m54 3.146c0-0.926-0.751-1.677-1.677-1.677h-34.705c-2.02 0-3.958 0.803-5.387 2.231-1.428 1.429-2.231 3.367-2.231 5.387v45.295c0 2.02 0.803 3.958 2.231 5.387 1.429 1.428 3.367 2.231 5.387 2.231h28.764c2.02 0 3.958-0.803 5.387-2.231 1.428-1.429 2.231-3.367 2.231-5.387v-51.236z" style="fill:url(#_Linear1)"/>
 <path d="m37.771 59.389c-0.39 0-0.718-0.112-0.983-0.337-0.26-0.225-0.39-0.523-0.39-0.893 0-0.4 0.155-0.712 0.465-0.937 0.31-0.23 0.693-0.345 1.148-0.345 0.405 0 0.737 0.075 0.997 0.225v-0.105c0-0.27-0.092-0.485-0.277-0.645-0.185-0.165-0.413-0.248-0.683-0.248-0.2 0-0.382 0.048-0.547 0.143-0.16 0.095-0.27 0.225-0.33 0.39l-0.63-0.27c0.085-0.22 0.252-0.423 0.502-0.608 0.25-0.19 0.58-0.285 0.99-0.285 0.47 0 0.86 0.138 1.17 0.413s0.465 0.662 0.465 1.162v2.22h-0.66v-0.51h-0.03c-0.275 0.42-0.677 0.63-1.207 0.63zm-18.079 0c-0.41 0-0.75-0.1-1.02-0.3-0.265-0.2-0.46-0.45-0.585-0.75l0.615-0.255c0.195 0.46 0.528 0.69 0.998 0.69 0.215 0 0.39-0.047 0.525-0.142 0.14-0.095 0.21-0.22 0.21-0.375 0-0.24-0.168-0.403-0.503-0.488l-0.742-0.18c-0.235-0.06-0.458-0.172-0.668-0.337-0.21-0.17-0.315-0.398-0.315-0.683 0-0.325 0.143-0.587 0.428-0.787 0.29-0.205 0.632-0.308 1.027-0.308 0.325 0 0.615 0.075 0.87 0.225 0.255 0.145 0.438 0.355 0.548 0.63l-0.6 0.248c-0.135-0.325-0.415-0.488-0.84-0.488-0.205 0-0.378 0.043-0.518 0.128s-0.21 0.2-0.21 0.345c0 0.21 0.163 0.352 0.488 0.427l0.727 0.173c0.345 0.08 0.6 0.217 0.765 0.412s0.248 0.415 0.248 0.66c0 0.33-0.135 0.605-0.405 0.825s-0.618 0.33-1.043 0.33zm24.924 0c-0.555 0-1.007-0.185-1.357-0.555-0.345-0.37-0.518-0.837-0.518-1.402 0-0.535 0.168-0.995 0.503-1.38 0.34-0.385 0.772-0.578 1.297-0.578 0.545 0 0.98 0.178 1.305 0.533 0.33 0.355 0.495 0.83 0.495 1.425l-7e-3 0.127h-2.903c0.02 0.37 0.143 0.663 0.368 0.878 0.23 0.215 0.497 0.322 0.802 0.322 0.495 0 0.83-0.21 1.005-0.63l0.615 0.255c-0.12 0.285-0.317 0.525-0.592 0.72-0.275 0.19-0.613 0.285-1.013 0.285zm-22.509-3.352c0.355-0.375 0.807-0.563 1.357-0.563s1.003 0.188 1.358 0.563c0.355 0.37 0.532 0.835 0.532 1.395s-0.177 1.027-0.532 1.402c-0.355 0.37-0.808 0.555-1.358 0.555s-1.002-0.185-1.357-0.555c-0.355-0.375-0.533-0.842-0.533-1.402s0.178-1.025 0.533-1.395zm7.739 3.292c-0.385 0-0.68-0.102-0.885-0.307-0.2-0.205-0.3-0.495-0.3-0.87v-1.928h-1.65v3.045h-0.69v-3.045h-0.69v-0.63h0.69v-0.487c0-0.375 0.12-0.675 0.36-0.9s0.555-0.338 0.945-0.338c0.22 0 0.405 0.033 0.555 0.098l-0.24 0.592c-0.08-0.04-0.185-0.06-0.315-0.06-0.18 0-0.328 0.055-0.443 0.165-0.115 0.105-0.172 0.26-0.172 0.465v0.465h1.65v-1.125h0.69v1.125h0.9v0.63h-0.9v1.875c0 0.4 0.165 0.6 0.495 0.6 0.125 0 0.23-0.02 0.315-0.06l0.24 0.593c-0.15 0.065-0.335 0.097-0.555 0.097zm11.29-0.06h-0.69v-3.675h0.66v0.6h0.03c0.07-0.2 0.213-0.365 0.428-0.495 0.22-0.13 0.432-0.195 0.637-0.195s0.378 0.03 0.518 0.09l-0.263 0.645c-0.09-0.035-0.212-0.052-0.367-0.052-0.25 0-0.473 0.1-0.668 0.3-0.19 0.195-0.285 0.452-0.285 0.772v2.01zm-6.089 0h-0.705l-0.915-2.82-0.907 2.82h-0.698l-1.185-3.675h0.72l0.818 2.775h7e-3l0.908-2.775h0.712l0.908 2.775h7e-3l0.81-2.775h0.705l-1.185 3.675zm2.836-0.51c0.285 0 0.543-0.105 0.773-0.315 0.235-0.215 0.352-0.467 0.352-0.757-0.195-0.16-0.487-0.24-0.877-0.24-0.335 0-0.588 0.072-0.758 0.217s-0.255 0.315-0.255 0.51c0 0.18 0.078 0.323 0.233 0.428s0.332 0.157 0.532 0.157zm-15.266-0.36c0.24 0.24 0.522 0.36 0.847 0.36s0.605-0.12 0.84-0.36c0.24-0.245 0.36-0.567 0.36-0.967s-0.12-0.72-0.36-0.96c-0.235-0.245-0.515-0.368-0.84-0.368s-0.607 0.123-0.847 0.368c-0.235 0.24-0.353 0.56-0.353 0.96s0.118 0.722 0.353 0.967zm22.989-1.41c-0.015-0.21-0.112-0.41-0.292-0.6-0.175-0.19-0.438-0.285-0.788-0.285-0.255 0-0.477 0.08-0.667 0.24-0.185 0.16-0.313 0.375-0.383 0.645h2.13z" style="fill-rule:nonzero;fill:white"/>
 <g transform="matrix(.913594 0 0 .913594 10.2897 7.33686)">
  <path d="m36.325 34.488h-6.962l-0.903-2.07h-8.92l-0.903 2.07h-6.963l12.326-27.809 12.325 27.809zm-12.35-15.506c2.632 0 4.769 2.137 4.769 4.769 0 2.633-2.137 4.77-4.769 4.77-2.633 0-4.77-2.137-4.77-4.77 0-2.632 2.137-4.769 4.77-4.769zm0 3.434c0.737 0 1.335 0.598 1.335 1.335s-0.598 1.335-1.335 1.335-1.335-0.598-1.335-1.335 0.598-1.335 1.335-1.335z" style="fill:rgb(239,242,243)"/>
 </g>
 <defs>
  <linearGradient id="_Linear1" x2="1" gradientTransform="matrix(3.03829e-15,-49.619,49.619,3.03829e-15,542.33,51.088)" gradientUnits="userSpaceOnUse">
   <stop style="stop-color:rgb(52,134,146)" offset="0"/>
   <stop style="stop-color:rgb(105,185,205)" offset="1"/>
  </linearGradient>
 </defs>
</svg>
