<svg style="clip-rule:evenodd;fill-rule:evenodd;stroke-linejoin:round;stroke-miterlimit:2" viewBox="0 0 64 64" xmlns="http://www.w3.org/2000/svg">
 <path d="m54 3.146c0-0.926-0.751-1.677-1.677-1.677h-34.705c-2.02 0-3.958 0.803-5.387 2.231-1.428 1.429-2.231 3.367-2.231 5.387v45.295c0 2.02 0.803 3.958 2.231 5.387 1.429 1.428 3.367 2.231 5.387 2.231h28.764c2.02 0 3.958-0.803 5.387-2.231 1.428-1.429 2.231-3.367 2.231-5.387v-51.236z" style="fill:url(#_Linear1)"/>
 <path d="m29.402 59.34h-0.77l-1-3.082-0.992 3.082h-0.762l-1.295-4.016h0.787l0.893 3.032h8e-3l0.992-3.032h0.778l0.992 3.032h8e-3l0.885-3.032h0.771l-1.295 4.016z" style="fill-rule:nonzero;fill:#fff"/>
 <path d="m32.927 59.471c-0.606 0-1.101-0.202-1.483-0.606-0.377-0.405-0.566-0.916-0.566-1.533 0-0.585 0.183-1.087 0.549-1.508 0.372-0.421 0.845-0.631 1.418-0.631 0.596 0 1.071 0.194 1.426 0.582 0.361 0.388 0.541 0.907 0.541 1.557l-8e-3 0.139h-3.172c0.022 0.405 0.156 0.724 0.402 0.959 0.251 0.235 0.543 0.353 0.877 0.353 0.541 0 0.907-0.23 1.098-0.689l0.672 0.279c-0.131 0.311-0.347 0.573-0.647 0.787-0.301 0.207-0.67 0.311-1.107 0.311zm1.082-2.623c-0.016-0.229-0.123-0.448-0.32-0.655-0.191-0.208-0.478-0.312-0.86-0.312-0.279 0-0.522 0.088-0.73 0.263-0.202 0.174-0.341 0.409-0.418 0.704h2.328z" style="fill-rule:nonzero;fill:#fff"/>
 <path d="m37.616 59.471c-0.306 0-0.582-0.066-0.827-0.197-0.241-0.131-0.421-0.295-0.541-0.491h-0.033v0.557h-0.721v-5.868h0.754v1.852l-0.033 0.557h0.033c0.12-0.196 0.3-0.36 0.541-0.491 0.245-0.131 0.521-0.197 0.827-0.197 0.519 0 0.967 0.205 1.344 0.615 0.377 0.409 0.566 0.918 0.566 1.524s-0.189 1.115-0.566 1.524c-0.377 0.41-0.825 0.615-1.344 0.615zm-0.123-0.688c0.35 0 0.651-0.132 0.902-0.394 0.251-0.268 0.377-0.62 0.377-1.057s-0.126-0.787-0.377-1.049c-0.251-0.268-0.552-0.402-0.902-0.402-0.355 0-0.658 0.132-0.909 0.394-0.246 0.262-0.369 0.614-0.369 1.057s0.123 0.795 0.369 1.057c0.251 0.262 0.554 0.394 0.909 0.394z" style="fill-rule:nonzero;fill:#fff"/>
 <path d="m32.1 16c-6.094 0-11 4.906-11 11s4.906 11 11 11 11-4.906 11-11-4.906-11-11-11zm0 1c1.662 0 3.222 0.408 4.598 1.119 4e-3 0.04 3e-3 0.069 0 0.113 0.058 0.026 0.091 0.134 0.189 0.188 0.036 0.02 0.06 0.029 0.094 0.047 0.058 0.032 0.106 0.084 0.094 0.14-0.016 0.082-0.132 0.079-0.188 0.139 8e-3 0.116-0.064 0.112-0.094 0.19 0.018 0.05 0.086 0.033 0.094 0.093-0.01 0.064-0.118 0.073-0.094 0.139 0.108 0.084 0.226 0.014 0.328 0 0.224-0.028 0.423 0.014 0.561-0.094-0.018-0.106 0.153-0.138 0.141-0.234-0.01-0.072-0.134-0.089-0.188-0.139-0.012-0.011-0.027-0.039-0.041-0.06 0.165 0.108 0.323 0.226 0.481 0.343-0.039 0.032-0.071 0.072-0.112 0.09-0.042 0.018-0.102 0.023-0.14 0.047-0.056 0.038-0.077 0.097-0.141 0.139-0.046 0.032-0.186 0.14-0.234 0.14-0.058 0-0.146-0.059-0.188-0.045-0.06 0.018-0.026 0.115-0.094 0.139-0.132 0.048-0.375-0.104-0.421 0.094 0.056 0.114 0.228 0.079 0.328 0.14 0.062 0.04 0.171 0.214 0.187 0.282 0.016 0.056 0.024 0.268 0 0.328-0.062 0.16-0.238 0.144-0.422 0.14-0.05 0-0.094 4e-3 -0.14 0-0.31-0.02-0.608-0.128-0.748 0.094 0.01 0.17 0.038 0.274 0 0.422-0.028 0.108-0.147 0.187-0.141 0.281 2e-3 0.048 0.082 0.122 0.094 0.188 8e-3 0.036-0.016 0.109 0 0.14 0.052 0.098 0.189-0.015 0.281 0 0.088 0.014 0.189 0.137 0.189 0.235 0 0.07-0.051 0.213-0.095 0.281-0.088 0.132-0.249 0.116-0.375 0.188-0.104 0.06-0.126 0.179-0.188 0.283-0.066 0.112-0.12 0.168-0.094 0.328-0.09 0.178-0.19 0.289-0.376 0.375-0.054 0.024-0.138 0.058-0.188 0.094-0.04 0.028-0.085 0.076-0.141 0.14-0.07 0.078-0.149 0.128-0.187 0.188-0.028 0.046-0.017 0.125-0.047 0.187-0.044 0.084-0.131 0.151-0.187 0.235-0.026 0.04-0.066 0.088-0.094 0.14-0.064 0.116-0.153 0.226-0.141 0.328 0.01 0.098 0.135 0.102 0.141 0.188 6e-3 0.048-0.049 0.087-0.047 0.139 2e-3 0.076 0.041 0.129 0.047 0.189 0.014 0.148-0.066 0.179-0.094 0.281-0.014 0.048 0.012 0.103 0 0.141-0.024 0.074-0.139 0.144-0.141 0.232-2e-3 0.062 0.088 0.102 0.094 0.19 4e-3 0.06-0.057 0.131-0.045 0.187 0.022 0.108 0.244 0.244 0.328 0.328 0.114 0.114 0.232 0.209 0.282 0.329 0.042 0.102 0.062 0.252 0.14 0.328 0.058 0.056 0.161 0.08 0.235 0.138 0.07 0.054 0.158 0.083 0.232 0.141 0.122 0.096 0.275 0.295 0.469 0.281 0.102-8e-3 0.214-0.074 0.328-0.094 0.118-0.02 0.255-0.056 0.375-0.044 0.092 0.01 0.187 0.05 0.283 0.044 0.1-6e-3 0.214-0.043 0.328-0.093 0.198-0.086 0.507-0.23 0.795-0.188 0.22 0.032 0.223 0.277 0.377 0.375 0.176 0.016 0.327-0.034 0.467 0 0.106 0.026 0.224 0.199 0.234 0.283 0.01 0.086-0.081 0.179-0.093 0.233-0.028 0.116-0.027 0.254-0.047 0.328-0.016 0.058-0.047 0.13-0.045 0.187 0 0.052 0.086 0.167 0.14 0.235 0.066 0.084 0.153 0.142 0.233 0.234 0.146 0.168 0.226 0.388 0.328 0.61 0.026 0.056-0.024 0.07 0 0.14-0.044 0.336-0.155 0.566-0.375 0.938-0.104 0.12-0.236 0.272-0.234 0.422-8e-3 0.359 0.203 0.54 0.187 0.888-0.036 0.468-9e-3 0.547-0.045 0.797 0.158 0.08 0.091 0.301 0.045 0.467-0.068 0.198-0.149 0.245-0.187 0.377 0.123 0.054 0.259 0.04 0.398 6e-3 -1.822 1.942-4.408 3.158-7.293 3.158-1.228 0-2.398-0.23-3.482-0.631-0.04-0.016-0.084-0.025-0.123-0.047-0.062-0.036-0.102-0.111-0.094-0.187 0.104-0.044 0.301 0.099 0.377-0.047 0.038-0.07-0.05-0.211 0-0.281 0.036-0.048 0.254-0.082 0.328-0.094 0.106-0.018 0.221-9e-3 0.281-0.047 0.066-0.042 0.153-0.157 0.141-0.281-6e-3 -0.058-0.048-0.089-0.094-0.141-0.038-0.044-0.021-0.099-0.047-0.139-0.048-0.069-0.121-0.085-0.141-0.187 0.144-0.028 0.355 0.152 0.563 0.094 0.098-0.028 0.235-0.236 0.281-0.328 0.014-0.028-0.016-0.107 0-0.141 0.018-0.038 0.09-0.074 0.096-0.094 0.014-0.054-0.012-0.06 0-0.094 0.036-0.101 0.127-0.16 0.187-0.234 0.046-0.056 0.099-0.129 0.141-0.187 0.048-0.062 0.062-0.087 0.094-0.141 0.03-0.182-0.091-0.307-0.047-0.467 0.048-0.18 0.295-0.295 0.469-0.377 0.06-0.028 0.137-0.076 0.187-0.094 0.12-0.041 0.263-0.053 0.375-0.093 0.188-0.068 0.236-0.25 0.328-0.422 0.044-0.08 0.088-0.177 0.096-0.235 8e-3 -0.051-0.01-0.078 0-0.138s0.029-0.124 0.045-0.19c0.022-0.086 0.047-0.23 0.047-0.326 0-0.08-0.045-0.117-0.047-0.189-0.014-0.26 0.091-0.28 0.187-0.422 0.048-0.07 0.06-0.183 0.094-0.233 0.162-0.239 0.442-0.341 0.422-0.705-8e-3 -0.12-0.051-0.384-0.139-0.422-0.05-0.021-0.16-0.016-0.234-0.044-0.236-0.088-0.41-0.357-0.656-0.377-0.052-2e-3 -0.083 2e-3 -0.141 0-0.096-2e-3 -0.218-0.082-0.326-0.094-0.068-8e-3 -0.194 0.02-0.234 0-0.062-0.03-0.044-0.154-0.094-0.188-0.04-0.028-0.128-0.025-0.19-0.046-0.098-0.038-0.167-0.086-0.281-0.094-0.036-2e-3 -0.1 6e-3 -0.14 0-0.062-0.01-0.13-0.058-0.188-0.094-0.072-0.044-0.111-0.077-0.141-0.139 0.066-0.216-0.143-0.251-0.187-0.377-0.02-0.058 0.02-0.135 0-0.187-0.026-0.074-0.106-0.126-0.188-0.188-0.144-0.112-0.262-0.208-0.468-0.234-0.092-0.01-0.219 8e-3 -0.328 0-0.116-8e-3 -0.241-0.088-0.329-0.187-0.084-0.098-0.113-0.189-0.187-0.235-0.07-0.044-0.186-0.048-0.234-0.094-0.022-0.02-0.025-0.047-0.045-0.093-0.036-0.072-0.091-0.102-0.047-0.19-0.08-0.04-0.053 0.063-0.139 0.047-0.078-0.11-0.152-0.175-0.328-0.141-0.08 0.016-0.14 0.139-0.234 0.141-0.078 2e-3 -0.133-0.127-0.235-0.141-0.078-0.01-0.18 0.059-0.234 0.047-0.086-0.016-0.11-0.088-0.188-0.14-0.058-0.038-0.155-0.141-0.187-0.139-0.1 2e-3 -0.19 0.213-0.328 0.139-0.068-0.086 0.125-0.108 0.045-0.188-0.06-0.06-0.091 0.015-0.139 0.047-0.056 0.038-0.126 0.072-0.188 0.094-0.138 0.052-0.22 0.038-0.328 0.094-0.1 0.052-0.131 0.132-0.189 0.234-0.046 0.084-0.118 0.228-0.188 0.232-0.084 6e-3 -0.158-0.106-0.234-0.138-0.23-0.1-0.371 0.043-0.561 0.045-0.176 2e-3 -0.429-0.256-0.421-0.422 6e-3 -0.102 0.081-0.249 0.093-0.375 0.01-0.1 0.092-0.192 0.094-0.284 2e-3 -0.121-0.203-0.218-0.283-0.232-0.188-0.034-0.44 0.084-0.654 0-0.04-0.068 0.069-0.123 0.093-0.189 0.014-0.038-0.014-0.052 0-0.094 0.024-0.064 0.109-0.12 0.139-0.188 0.022-0.052 0.025-0.123 0.047-0.187 0.026-0.072 0.088-0.136 0.094-0.188 8e-3 -0.068-0.04-0.145-0.094-0.189-0.166 0.01-0.281 3e-3 -0.377 0.047-0.216 0.098-0.157 0.401-0.375 0.469-0.074 0.024-0.197 0.03-0.281 0.044-0.037 8e-3 -0.079 0.014-0.12 0.024 0.14-0.726 0.356-1.424 0.643-2.084 0.048 0 0.098-7e-3 0.131 0 0.076 0.014 0.123 0.088 0.189 0.094 0.184 0.014 0.223-0.155 0.375-0.235 0.156 0.022 0.235-0.016 0.377 0 0.096 0.01 0.206 0.135 0.282 0.141 0.064 2e-3 0.08-0.057 0.14-0.047s0.178 0.116 0.188 0.188c0.01 0.09-0.073 0.183-0.047 0.283 0.094 0.096 0.288 0.131 0.422 0.187 0.088-0.072 0.014-0.224 0-0.328-2e-3 -0.046 6e-3 -0.099 0-0.141-0.01-0.071-0.045-0.125-0.045-0.187 0-0.286 0.23-0.404 0.422-0.516 0.082-0.048 0.162-0.151 0.234-0.187 0.102-0.05 0.15-0.046 0.234-0.094 0.152-0.086 0.304-0.185 0.422-0.283 0.054-0.13-6e-3 -0.294 0-0.422 0.054-0.034 0.081 6e-3 0.139 0 0.092-0.02 0.137-0.135 0.189-0.187 0.03-0.03 0.103-0.064 0.139-0.094 0.092-0.072 0.108-0.156 0.188-0.188 0.028-0.01 0.096-0.035 0.14-0.047 0.06-0.016 0.139-0.059 0.235-0.093 0.062-0.022 0.21-0.021 0.234-0.045 0.03-0.03-8e-3 -0.144 0-0.19 0.048-0.226 0.407-0.25 0.609-0.326 0.14-0.054 0.266-0.17 0.422-0.14-0.03 0.107-0.166 0.104-0.14 0.234 0.034 0.182 0.264-0.068 0.328-0.094 0.122-0.052 0.355-0.083 0.515-0.14 0.14-0.05 0.367-0.12 0.235-0.282-0.11-8e-3 -0.139 0.099-0.235 0.139-0.066 0.01-0.082-0.041-0.138-0.045-0.054-2e-3 -0.087 0.055-0.141 0.045s-0.133-0.124-0.141-0.188c-0.022-0.168 0.167-0.204 0.235-0.328-0.046-0.152-0.247-0.033-0.375-0.093 0.014-0.09 0.081-0.17 0.187-0.188 0.086-0.014 0.276 3e-3 0.328 0.045 0.03 0.026-1e-3 0.099 0.045 0.141 0.052 0.046 0.122 0.01 0.19 0 0.024-0.114-0.161-0.067-0.141-0.141 0.136-0.088 0.397-0.023 0.563-0.045 0.096-0.014 0.195-0.095 0.281-0.141 0.08-0.046 0.15-0.12 0.234-0.044 0.024 0.081-0.048 0.145-0.093 0.187-0.154 0.136-0.302 0.264-0.422 0.422 0.074 0.072 0.204 0.031 0.328 0.045 0.048 6e-3 0.088 0.039 0.138 0.047 0.06 0.01 0.142-0.01 0.19 0 0.084 0.02 0.103 0.14 0.187 0.14 0.136 0 0.123-0.142 0.045-0.234 0.024-0.094 0.081-0.168 0.047-0.234-0.062-0.124-0.316 0.017-0.328-0.141-8e-3 -0.1 0.105-0.112 0.141-0.188-0.016-0.192 0.158-0.201 0.138-0.375-0.01-0.072-0.088-0.072-0.138-0.14-0.026-0.036-0.017-0.115-0.047-0.141-0.104-0.088-0.316-0.064-0.328-0.232-6e-3 -0.1 0.014-0.175 0-0.283-0.014-0.102-0.1-0.402-0.188-0.422-0.112-0.024-0.194 0.172-0.328 0.234-0.072 0.034-0.207 0.061-0.281 0.047-0.048-0.01-0.135-0.049-0.141-0.141-0.01-0.106 0.074-0.122 0.094-0.234 0.861-0.241 1.767-0.379 2.707-0.379zm-4.033 0.848c-0.029 0.411-0.396 0.624-0.828 0.613-0.092 0.088-0.044 0.253-0.094 0.375-0.042 0.102-0.179 0.197-0.281 0.189-0.074-6e-3 -0.188-0.119-0.188-0.189 0-0.086 0.119-0.135 0.045-0.232 3e-3 -0.021 0.03-0.042 0.051-0.063 0.413-0.26 0.843-0.495 1.295-0.693zm8.347 0.476c-0.036 7e-3 -0.057 0.026-0.089 0.045-0.076 0.046-0.083 0.119-0.141 0.141-0.082 0.03-0.176 0.02-0.188 0.094-0.01 0.061 0.049 0.082 0.047 0.138-0.03 0.074-0.077 0.098-0.093 0.188 0.102 0.166 0.34-9e-3 0.466-0.045 0.056-0.016 0.111-3e-3 0.141-0.047 0.034-0.054 0.019-0.157 0.045-0.233 0.028-0.084 0.104-0.066 0.094-0.14-8e-3 -0.074-0.158-0.153-0.282-0.141zm-10.947 1.194c0.097 0.049 0.262 0.275 0.074 0.355-0.02 0.01-0.28 0.055-0.328 0.045-0.038-6e-3 -0.071-0.041-0.103-0.076 0.115-0.112 0.237-0.218 0.357-0.324zm0.354 0.447c0.048 2e-3 0.084 0.09 0.14 0.094 0.054 4e-3 0.109-0.057 0.141-0.047 0.084 0.022 0.125 0.172 0.045 0.234-0.066 8e-3 -0.091-0.055-0.139-0.045-0.136 0.024-0.181 0.289-0.283 0.281-0.096-0.01-0.143-0.211-0.045-0.281 2e-3 -0.06-0.051-0.08-0.047-0.14 0.03-0.038 0.108-0.1 0.188-0.094v-2e-3zm-0.467 0.047c0.028 0 0.035-0.012 0.045 0-0.014 0.106-0.057 0.139-0.139 0.189-0.142 0.086-0.237 0.191-0.283 0.375-0.014 0.054-0.164 0.202-0.232 0.188-0.158-0.034 0.057-0.329 0.093-0.375 0.04-0.05 0.093-0.085 0.139-0.141s0.05-0.155 0.094-0.187c0.048-0.034 0.199-0.051 0.283-0.047v-2e-3zm14.148 0.267c0.063 0.07 0.129 0.138 0.19 0.209-0.063-0.074-0.166-0.102-0.19-0.209zm-0.611 0.02c0.158-0.01 0.256 0.185 0.328 0.281 0.06 0.078 0.23 0.18 0.328 0.234 0.056 0.03 0.126 0.066 0.188 0.094 0.13 0.058 0.369 0.247 0.375 0.375 2e-3 0.064-0.055 0.13-0.045 0.19 0.098 0.016 0.185-0.137 0.187-0.235 0-0.023-8e-3 -0.037-0.017-0.052 0.283 0.396 0.538 0.811 0.761 1.248-0.088 0.025-0.163 0.068-0.177 0.154-0.02 0.112 0.074 0.261-0.094 0.281-0.106 0.014-0.231-0.108-0.377-0.14-0.06-0.014-0.139 0.016-0.187 0-0.11-0.038-0.094-0.167-0.188-0.233-0.054-0.038-0.197-0.084-0.283-0.094-0.054-6e-3 -0.083 8e-3 -0.139 0-0.068-8e-3 -0.178-0.013-0.234-0.047-0.054-0.034-0.174-0.094-0.188-0.14-0.022-0.074 0.135-0.171 0.139-0.233 4e-3 -0.048-0.035-0.068-0.045-0.14-8e-3 -0.044 0.01-0.113 0-0.141-0.014-0.052-0.107-0.092-0.189-0.094-0.072 0-0.126 0.047-0.188 0.047-0.088 2e-3 -0.265-0.057-0.375-0.047-0.066 6e-3 -0.127 0.043-0.189 0.047-0.174 0.014-0.286-0.01-0.422 0-0.098 6e-3 -0.283 0.052-0.375 0.094-0.046 0.022-0.081 0.064-0.141 0.094-0.028 0.014-0.058 0.029-0.094 0.045-0.056 0.026-0.133 0.081-0.187 0.095-0.078 0.02-0.186-6e-3 -0.328 0-0.102 6e-3 -0.28-0.018-0.282-0.14-1e-3 -0.186 0.34-0.109 0.516-0.141 0.066-0.014 0.108-0.093 0.188-0.139 0.038-0.022 0.057-0.022 0.093-0.046 0.06-0.042 0.178-0.14 0.188-0.188 8e-3 -0.044-0.051-0.109-0.045-0.141 8e-3 -0.041 0.085-0.084 0.139-0.138 0.084-0.084 0.13-0.181 0.234-0.235 0.07-0.038 0.202-0.037 0.234-0.093 8e-3 -0.064-2e-3 -0.083 0-0.141 0.044-0.04 0.058-0.086 0.094-0.094 0.108-0.024 0.202 0.051 0.328 0.045 0.054-2e-3 0.13-7e-3 0.188-0.045 0.048-0.032 0.092-0.069 0.14-0.093 0.052-0.028 0.077-0.09 0.141-0.094zm-12.514 0.096h2e-3c0.046-2e-3 0.091 0 0.141 0s0.119-0.02 0.139 0c-0.032 0.131-0.318 0.092-0.422 0.044 6e-3 -0.05 0.076-0.038 0.14-0.044zm13.315 0.095c0.057 0.067 0.116 0.131 0.172 0.199-0.01-5e-3 -0.023-7e-3 -0.032-0.013-0.055-0.044-0.085-0.118-0.14-0.186zm-13.783 0.139c0.034 0 0.059-0.014 0.095 0-0.092 0.078-0.217 0.137-0.377 0.187-0.076 0.024-0.173 0.037-0.187-0.046-0.016-0.104 0.072-0.084 0.14-0.094 0.088-0.01 0.225-0.043 0.327-0.045l2e-3 -2e-3zm13.029 2e-3c-0.066 0.022-0.098 0.169 0 0.187 0.046-0.028 0.059-0.103 0.047-0.187-0.026-0.028-0.027-8e-3 -0.047 0zm-0.045 0.281c-0.032 0.01-0.06 9e-3 -0.094 0.045 2e-3 0.112 0.022 0.185 0 0.283 0.064 0.124 0.201 0.037 0.233-0.047 0.038-0.208-0.043-0.307-0.139-0.281zm0.889 0.563c-0.088-4e-3 -0.181 2e-3 -0.233 0.045 0.074 0.119 0.209 0.157 0.375 0.187 0.06-0.044 0.066-0.156 0.094-0.232-0.072 0-0.146 4e-3 -0.234 0h-2e-3zm-17.573 4.119c0.113 0.102 0.192 0.273 0.327 0.34 0.05 0.026 0.123 0.032 0.187 0.046 0.052 0.01 0.091 0.029 0.141 0.045 0.106 0.036 0.244 0.058 0.328 0.096 0.128 0.056 0.218 0.262 0.328 0.326 6e-3 0.064-0.02 0.142 0 0.19 0.052 0.07 0.15 0.092 0.234 0.138 0.102 0.056 0.137 0.191 0.233 0.235 0.034 0.014 0.088-0.016 0.14 0 0.132 0.04 0.17 0.221 0.284 0.187 0.074-0.022 0.081-0.115 0.093-0.187 0.05-0.054 0.11-0.141 0.188-0.141 0.124-2e-3 0.141 0.161 0.187 0.283 0.026 0.068 0.076 0.116 0.094 0.188 0.03 0.124 0.026 0.488 0 0.562-0.032 0.092-0.158 0.133-0.234 0.233-0.036 0.048-0.066 0.108-0.094 0.14-0.048 0.06-0.103 0.087-0.139 0.141-0.02 0.03-0.029 0.097-0.047 0.139-0.06 0.128-0.143 0.223-0.093 0.377 0.02 0.062 0.093 0.113 0.093 0.187 0 0.088-0.173 0.138-0.187 0.234-0.01 0.07 0.072 0.188 0.094 0.282 0.016 0.07 0.145 0.141 0.187 0.187 0.07 0.078 0.126 0.183 0.19 0.283 0.126 0.194 0.202 0.42 0.326 0.61 0.066 0.098 0.19 0.177 0.234 0.281 0.022 0.052-0.02 0.14 0 0.188 0.072 0.161 0.401 0.341 0.563 0.421 0.076 0.038 0.164 0.056 0.234 0.096 0.106 0.06 0.321 0.187 0.375 0.281 0.048 0.084 0.07 0.288 0.094 0.422 0.03 0.176-8e-3 0.326 0 0.516 6e-3 0.104 0.047 0.177 0.047 0.281 0 0.036 2e-3 0.105 0 0.141-2e-3 0.124 0.01 0.249 0 0.375-6e-3 0.068-4e-3 0.131 0 0.189 6e-3 0.062 0.041 0.085 0.045 0.139 4e-3 0.058-0.051 0.143-0.045 0.189 0.014 0.126 0.116 0.211 0.14 0.326 0.02 0.092 0.057 0.312 0.045 0.422-8e-3 0.058-0.037 0.126-0.045 0.19-6e-3 0.05 8e-3 0.092 0 0.138-6e-3 0.045-0.017 0.083-0.029 0.122-2.782-1.772-4.627-4.875-4.627-8.432 0-0.479 0.045-0.946 0.109-1.406zm3.891 1.095c0.096-0.044 0.078 0.129 0 0.141-0.074 0.01-0.072-0.107 0-0.141z" style="fill-rule:nonzero;fill:#3a4148"/>
 <defs>
  <linearGradient id="_Linear1" x2="1" gradientTransform="matrix(3.03829e-15,-49.619,49.619,3.03829e-15,104.99,51.088)" gradientUnits="userSpaceOnUse">
   <stop style="stop-color:#758b9a" offset="0"/>
   <stop style="stop-color:#b5bdc2" offset="1"/>
  </linearGradient>
 </defs>
</svg>
