<svg style="clip-rule:evenodd;fill-rule:evenodd;stroke-linejoin:round;stroke-miterlimit:2" viewBox="0 0 64 64" xmlns="http://www.w3.org/2000/svg">
 <path d="m54 3.146c0-0.926-0.751-1.677-1.677-1.677h-34.705c-2.02 0-3.958 0.803-5.387 2.231-1.428 1.429-2.231 3.367-2.231 5.387v45.295c0 2.02 0.803 3.958 2.231 5.387 1.429 1.428 3.367 2.231 5.387 2.231h28.764c2.02 0 3.958-0.803 5.387-2.231 1.428-1.429 2.231-3.367 2.231-5.387v-51.236z" style="fill:url(#_Linear1)"/>
 <path d="m36.378 15.932c-3.83 0-6.926 3.096-6.926 6.926 0 0.814 0.163 1.629 0.408 2.444l-8.556 8.556v4.074h4.074v-2.445h2.445v-2.444h2.444l3.667-3.667c0.733 0.245 1.548 0.408 2.444 0.408 3.83 0 6.926-3.097 6.926-6.926 0-3.83-3.096-6.926-6.926-6.926zm2.037 7.333c-1.385 0-2.444-1.059-2.444-2.444 0-1.386 1.059-2.445 2.444-2.445s2.445 1.059 2.445 2.445c0 1.385-1.06 2.444-2.445 2.444z" style="fill-opacity:.67;fill-rule:nonzero"/>
 <path d="m37.201 55.226h0.74v0.523h-0.74v2.458c0 0.158 0.033 0.278 0.099 0.359 0.066 0.078 0.178 0.117 0.337 0.117 0.078 0 0.186-0.015 0.322-0.044v0.549c-0.178 0.049-0.351 0.073-0.52 0.073-0.302 0-0.531-0.091-0.684-0.274-0.154-0.183-0.231-0.443-0.231-0.78v-2.458h-0.722v-0.523h0.722v-0.96h0.677v0.96zm-4.358 1.098h-0.681c0-0.197 0.07-0.388 0.209-0.571 0.142-0.186 0.332-0.332 0.571-0.439 0.242-0.108 0.507-0.162 0.795-0.162 0.456 0 0.814 0.115 1.073 0.345 0.259 0.227 0.393 0.54 0.403 0.941v1.824c0 0.363 0.046 0.653 0.139 0.868v0.058h-0.711c-0.039-0.078-0.07-0.217-0.095-0.417-0.315 0.327-0.691 0.49-1.128 0.49-0.39 0-0.711-0.11-0.963-0.329-0.249-0.222-0.373-0.503-0.373-0.843 0-0.412 0.156-0.732 0.468-0.959 0.315-0.229 0.757-0.344 1.326-0.344h0.659v-0.312c0-0.236-0.071-0.424-0.212-0.563-0.142-0.142-0.35-0.213-0.626-0.213-0.242 0-0.445 0.061-0.608 0.183-0.164 0.122-0.246 0.27-0.246 0.443zm-12.304 2.937c-0.537 0-0.974-0.175-1.311-0.527-0.337-0.354-0.506-0.826-0.506-1.417v-0.125c0-0.393 0.075-0.743 0.224-1.051 0.151-0.31 0.361-0.552 0.63-0.725 0.271-0.176 0.564-0.264 0.878-0.264 0.516 0 0.916 0.17 1.202 0.509 0.285 0.34 0.428 0.826 0.428 1.458v0.282h-2.684c0.01 0.391 0.123 0.707 0.34 0.948 0.22 0.24 0.498 0.359 0.835 0.359 0.24 0 0.442-0.048 0.608-0.146s0.312-0.227 0.436-0.388l0.414 0.322c-0.332 0.51-0.83 0.765-1.494 0.765zm7.514 0c-0.537 0-0.974-0.175-1.311-0.527-0.337-0.354-0.505-0.826-0.505-1.417v-0.125c0-0.393 0.074-0.743 0.223-1.051 0.152-0.31 0.362-0.552 0.63-0.725 0.271-0.176 0.564-0.264 0.879-0.264 0.515 0 0.916 0.17 1.201 0.509 0.286 0.34 0.429 0.826 0.429 1.458v0.282h-2.685c0.01 0.391 0.124 0.707 0.341 0.948 0.22 0.24 0.498 0.359 0.835 0.359 0.239 0 0.442-0.048 0.608-0.146s0.311-0.227 0.436-0.388l0.413 0.322c-0.332 0.51-0.83 0.765-1.494 0.765zm12.312-2.091c0-0.388 0.076-0.737 0.227-1.047 0.154-0.31 0.367-0.549 0.638-0.718 0.273-0.168 0.584-0.253 0.933-0.253 0.54 0 0.976 0.187 1.308 0.561 0.334 0.373 0.502 0.87 0.502 1.49v0.048c0 0.386-0.075 0.732-0.224 1.04-0.146 0.305-0.358 0.543-0.633 0.714-0.274 0.171-0.589 0.256-0.945 0.256-0.537 0-0.973-0.186-1.308-0.56-0.332-0.373-0.498-0.868-0.498-1.483v-0.048zm-9.251-3.607v5.625h-0.677v-5.625h0.677zm8.35 5.625h-0.677v-3.962h0.677v3.962zm6.036 0h-0.678v-3.962h0.641l0.022 0.498c0.303-0.381 0.698-0.572 1.187-0.572 0.837 0 1.259 0.473 1.267 1.418v2.618h-0.678v-2.622c-2e-3 -0.286-0.068-0.497-0.198-0.634-0.127-0.136-0.326-0.205-0.597-0.205-0.219 0-0.412 0.059-0.578 0.176s-0.296 0.271-0.388 0.462v2.823zm-21.372-0.919l0.981-3.043h0.692l-1.421 3.962h-0.516l-1.436-3.962h0.692l1.008 3.043zm-7.017 0.919h-0.678v-3.962h0.66l0.011 0.457c0.222-0.354 0.537-0.531 0.944-0.531 0.132 0 0.232 0.018 0.301 0.052v0.63c-0.103-0.017-0.214-0.026-0.333-0.026-0.445 0-0.746 0.189-0.905 0.568v2.812zm23.936-1.937c0 0.439 0.101 0.792 0.303 1.058 0.206 0.266 0.479 0.399 0.821 0.399 0.344 0 0.617-0.134 0.82-0.402 0.203-0.271 0.304-0.65 0.304-1.136 0-0.434-0.104-0.786-0.311-1.054-0.205-0.271-0.479-0.407-0.821-0.407-0.334 0-0.604 0.133-0.809 0.399s-0.307 0.647-0.307 1.143zm-6.512 0.014h-0.531c-0.83 0-1.245 0.243-1.245 0.729 0 0.213 0.071 0.379 0.213 0.498 0.141 0.12 0.323 0.18 0.545 0.18 0.213 0 0.414-0.055 0.604-0.165 0.191-0.11 0.329-0.253 0.414-0.429v-0.813zm-14.081-1.556c-0.273 0-0.502 0.1-0.688 0.3-0.186 0.198-0.3 0.476-0.344 0.835h1.985v-0.051c-0.02-0.344-0.113-0.61-0.279-0.798-0.166-0.191-0.39-0.286-0.674-0.286zm7.515 0c-0.273 0-0.503 0.1-0.688 0.3-0.186 0.198-0.301 0.476-0.345 0.835h1.985v-0.051c-0.019-0.344-0.112-0.61-0.278-0.798-0.166-0.191-0.391-0.286-0.674-0.286zm10.763-1.534c0-0.11 0.033-0.203 0.099-0.279 0.068-0.075 0.168-0.113 0.3-0.113s0.232 0.038 0.301 0.113c0.068 0.076 0.102 0.169 0.102 0.279s-0.034 0.201-0.102 0.274c-0.069 0.074-0.169 0.11-0.301 0.11s-0.232-0.036-0.3-0.11c-0.066-0.073-0.099-0.164-0.099-0.274z" style="fill-rule:nonzero;fill:#fff"/>
 <defs>
  <linearGradient id="_Linear1" x2="1" gradientTransform="matrix(3.03829e-15,-49.619,49.619,3.03829e-15,469.44,51.088)" gradientUnits="userSpaceOnUse">
   <stop style="stop-color:#348692" offset="0"/>
   <stop style="stop-color:#69b9cd" offset="1"/>
  </linearGradient>
 </defs>
</svg>
