<svg clip-rule="evenodd" fill-rule="evenodd" stroke-linejoin="round" stroke-miterlimit="2" viewBox="0 0 64 64" xmlns="http://www.w3.org/2000/svg">
 <linearGradient id="a" x2="1" gradientTransform="matrix(0 -49.619 49.619 0 250.77 51.088)" gradientUnits="userSpaceOnUse">
  <stop stop-color="#791f57" offset="0"/>
  <stop stop-color="#b65174" offset="1"/>
 </linearGradient>
 <path d="m54 3.146c0-.926-.751-1.677-1.677-1.677h-34.705c-2.02 0-3.958.803-5.387 2.231-1.428 1.429-2.231 3.367-2.231 5.387v45.295c0 2.02.803 3.958 2.231 5.387 1.429 1.428 3.367 2.231 5.387 2.231h28.764c2.02 0 3.958-.803 5.387-2.231 1.428-1.429 2.231-3.367 2.231-5.387z" fill="url(#a)"/>
 <g fill-rule="nonzero">
  <path d="m23.957 19c-.53 0-.957.465-.957 1.043v15.912c0 .579.427 1.045.957 1.045h16.086c.53 0 .957-.466.957-1.045v-15.912c0-.578-.427-1.043-.957-1.043zm10.182 6.432 3.861 5.136h-12l3-3.849 2.139 2.574z" fill="#650733"/>
  <path d="m28.747 59.605c-.421 0-.743-.112-.967-.336-.219-.224-.328-.541-.328-.951v-2.106h-.705v-.688h.705v-1.23h.754v1.23h.983v.688h-.983v2.049c0 .437.18.656.541.656.136 0 .251-.022.344-.066l.262.647c-.164.071-.366.107-.606.107z" fill="#fff"/>
  <path d="m30.774 54.516c-.104.103-.229.155-.377.155-.147 0-.273-.052-.377-.155-.104-.104-.156-.23-.156-.377 0-.148.052-.274.156-.377.104-.104.23-.156.377-.156.148 0 .273.052.377.156.104.103.156.229.156.377 0 .147-.052.273-.156.377zm0 5.023h-.754v-4.015h.754z" fill="#fff"/>
  <path d="m36.238 53.639c.24 0 .443.035.606.106l-.262.648c-.087-.044-.202-.066-.344-.066-.197 0-.358.06-.484.18-.125.115-.188.285-.188.509v.508h1.049v.688h-1.049v3.327h-.754v-3.327h-1.803v3.327h-.754v-3.327h-.754v-.688h.754v-.533c0-.41.131-.738.393-.984.263-.245.607-.368 1.033-.368.24 0 .443.035.606.106l-.262.648c-.087-.044-.202-.066-.344-.066-.197 0-.358.06-.484.18-.125.115-.188.285-.188.509v.508h1.803v-.533c0-.41.131-.738.393-.984.263-.245.607-.368 1.033-.368z" fill="#fff"/>
 </g>
</svg>
