<svg clip-rule="evenodd" fill-rule="evenodd" stroke-linejoin="round" stroke-miterlimit="2" viewBox="0 0 48 48" xmlns="http://www.w3.org/2000/svg">
 <linearGradient id="a" x2="1" gradientTransform="matrix(0 -37.2142 37.2142 0 133.41 38.316)" gradientUnits="userSpaceOnUse">
  <stop stop-color="#758b9a" offset="0"/>
  <stop stop-color="#b5bdc2" offset="1"/>
 </linearGradient>
 <path d="m40.5 2.359c0-.694-.563-1.257-1.258-1.257h-26.028c-1.515 0-2.969.602-4.041 1.673-1.071 1.072-1.673 2.525-1.673 4.04v33.972c0 1.515.602 2.968 1.673 4.04 1.072 1.071 2.526 1.673 4.041 1.673h21.573c1.515 0 2.968-.602 4.04-1.673 1.071-1.072 1.673-2.525 1.673-4.04v-38.427z" fill="url(#a)"/>
 <path d="m30.688 27.756c-.475 0-.907.129-1.302.378l.152-.833h-1.742l-1.096 6h1.742l.581-3.188c.129-.326.469-.813 1.386-.813h1.234l.282-1.544zm3.093 2.496c-.225 1.277.406 1.707 1.092 1.707.581 0 1.023-.294 1.39-.694l1.084.906c-.698.718-1.705 1.13-2.63 1.13-1.777 0-2.989-1.177-2.664-3.001s1.753-2.999 3.531-2.999c1.419 0 2.688 1.175 2.365 2.999l-.097.551h-3.641l.211-1.199h1.868c.117-.587-.257-1.082-.898-1.082-.781 0-1.384.408-1.611 1.682zm-10.579 2.754c-.35.218-.714.293-1.174.293-1.096 0-2.326-1.023-1.963-2.988.314-1.716 1.759-3.012 3.424-3.012 1.62 0 2.787.964 2.454 2.775l-.57 3.227h-1.716l.484-2.781c.187-1.011.044-1.622-.884-1.622-.806 0-1.339.688-1.464 1.365-.162.889.251 1.317.897 1.317.313 0 .596-.069.802-.143zm-7.654-4.058-.286 1.57c-.038.324-.045 1.043.718 1.039.382-.003.54-.14.593-.184.251-.216.369-.628.391-.756l.003-.02.964-5.287 1.742-.011-.964 5.283c-.032.202-.244 1.24-1.101 1.991-.375.328-1.018.721-1.947.726-.779.006-1.31-.272-1.653-.677-.491.405-1.123.683-1.899.677-.927-.005-1.426-.398-1.681-.726-.584-.751-.413-1.789-.376-1.991l.966-5.283 1.734.011-.963 5.287-.004.02c-.025.128-.057.54.113.756.037.044.145.181.528.184.755.004 1.015-.706 1.095-1.032l.515-2.827-.515 2.826.182-.999.324-1.778.394-2.156.051-.28h1.741zm.219-1.201-.158.865.163-.89v-.004zm12.233-10.446h-2v6h2zm3 0h-2v6h2zm-7.363-2-1.49 5.875s-1.138-4.363-1.322-4.982c-.186-.62-.569-.893-1.109-.893s-.923.274-1.109.892c-.186.619-1.323 4.982-1.323 4.982l-1.49-5.874h-1.794s1.723 6.265 1.958 6.983c.181.562.614 1.017 1.252 1.017.733 0 1.075-.529 1.234-1.017.156-.486 1.272-4.583 1.272-4.583s1.116 4.097 1.271 4.583c.16.488.501 1.017 1.232 1.017.64 0 1.072-.457 1.256-1.017.234-.718 1.954-6.983 1.954-6.983zm2.363.002c0 .55.444.998.988.998.567 0 1.012-.439 1.012-.998 0-.562-.445-1.002-1.012-1.002-.544 0-.988.45-.988 1.002zm3 0c0 .55.444.998.988.998.567 0 1.012-.439 1.012-.998 0-.562-.445-1.002-1.012-1.002-.544 0-.988.45-.988 1.002z" fill="#ffffff" fill-opacity=".5" fill-rule="nonzero"/>
</svg>
