<svg clip-rule="evenodd" fill-rule="evenodd" stroke-linejoin="round" stroke-miterlimit="2" viewBox="0 0 64 64" xmlns="http://www.w3.org/2000/svg">
 <linearGradient id="a" x2="1" gradientTransform="matrix(0 -49.619 49.619 0 396.55 51.088)" gradientUnits="userSpaceOnUse">
  <stop stop-color="#005b8f" offset="0"/>
  <stop stop-color="#0294a7" offset="1"/>
 </linearGradient>
 <path d="m54 3.146c0-.926-.751-1.677-1.677-1.677h-34.705c-2.02 0-3.958.803-5.387 2.231-1.428 1.429-2.231 3.367-2.231 5.387v45.295c0 2.02.803 3.958 2.231 5.387 1.429 1.428 3.367 2.231 5.387 2.231h28.764c2.02 0 3.958-.803 5.387-2.231 1.428-1.429 2.231-3.367 2.231-5.387v-51.236z" fill="url(#a)"/>
 <g fill-rule="nonzero">
  <path d="m23.957 19c-.53 0-.957.465-.957 1.043v15.912c0 .579.427 1.045.957 1.045h16.086c.53 0 .957-.466.957-1.045v-15.912c0-.578-.427-1.043-.957-1.043zm10.182 6.432 3.861 5.136h-12l3-3.849 2.139 2.574z" fill="#00263f"/>
  <path d="m28.858 50.91v-.92h.792v.92zm-1.004 7.345.15-.673c.158.041.283.061.374.061.161 0 .282-.053.361-.16s.119-.375.119-.803v-4.912h.792v4.929c0 .575-.075.976-.225 1.202-.19.293-.507.44-.95.44-.214 0-.421-.028-.621-.084z" fill="#ffffff"/>
  <path d="m30.336 56.442 1.708-2.429-1.58-2.245h.99l.718 1.096c.135.208.243.383.325.524.129-.194.248-.365.357-.515l.787-1.105h.947l-1.615 2.201 1.738 2.473h-.973l-.959-1.452-.255-.392-1.228 1.844z" fill="#ffffff"/>
  <path d="m35.353 49.99h.792v6.452h-.792z" fill="#ffffff"/>
 </g>
</svg>
