<svg style="clip-rule:evenodd;fill-rule:evenodd;stroke-linejoin:round;stroke-miterlimit:2" viewBox="0 0 64 64" xmlns="http://www.w3.org/2000/svg">
 <path d="m54 3.146c0-0.926-0.751-1.677-1.677-1.677h-34.705c-2.02 0-3.958 0.803-5.387 2.231-1.428 1.429-2.231 3.367-2.231 5.387v45.295c0 2.02 0.803 3.958 2.231 5.387 1.429 1.428 3.367 2.231 5.387 2.231h28.764c2.02 0 3.958-0.803 5.387-2.231 1.428-1.429 2.231-3.367 2.231-5.387v-51.236z" style="fill:url(#_Linear1)"/>
 <path d="m32 20.735c-6.034 0-11 4.965-11 11 0 6.034 4.966 11 11 11s11-4.966 11-11c0-6.035-4.966-11-11-11m0 1c5.486 0 10 4.514 10 10 0 5.485-4.514 10-10 10s-10-4.515-10-10c0-5.486 4.514-10 10-10m-1 2v2h2v-2h-2zm0 4v12h2v-12h-2z" style="fill-rule:nonzero;fill:#f9f9f9"/>
 <defs>
  <linearGradient id="_Linear1" x2="1" gradientTransform="matrix(3.03829e-15,-49.619,49.619,3.03829e-15,177.88,51.088)" gradientUnits="userSpaceOnUse">
   <stop style="stop-color:#929292" offset="0"/>
   <stop style="stop-color:#d2d2d2" offset="1"/>
  </linearGradient>
 </defs>
</svg>
