<svg clip-rule="evenodd" fill-rule="evenodd" stroke-linejoin="round" stroke-miterlimit="2" viewBox="0 0 48 48" xmlns="http://www.w3.org/2000/svg">
 <linearGradient id="a" x2="1" gradientTransform="matrix(0 -37.2142 37.2142 0 133.41 38.316)" gradientUnits="userSpaceOnUse">
  <stop stop-color="#2d4353" offset="0"/>
  <stop stop-color="#576f7d" offset="1"/>
 </linearGradient>
 <path d="m40.5 2.359c0-.694-.563-1.257-1.258-1.257h-26.028c-1.515 0-2.969.602-4.041 1.673-1.071 1.072-1.673 2.525-1.673 4.04v33.972c0 1.515.602 2.968 1.673 4.04 1.072 1.071 2.526 1.673 4.041 1.673h21.573c1.515 0 2.968-.602 4.04-1.673 1.071-1.072 1.673-2.525 1.673-4.04v-38.427z" fill="url(#a)"/>
 <g fill-rule="nonzero">
  <path d="m12 18 10 6 2-1 4 2h4l-12-7zm6 8-6 4h7l3-2z" fill="#628299"/>
  <path d="m28 18-3 2 4 2 7-4zm-13 5 12 7h9l-12-6-2 1-3-2z" fill="#637693"/>
 </g>
</svg>
