<svg style="clip-rule:evenodd;fill-rule:evenodd;stroke-linejoin:round;stroke-miterlimit:2" viewBox="0 0 64 64" xmlns="http://www.w3.org/2000/svg">
 <path d="m54 3.146c0-0.926-0.751-1.677-1.677-1.677h-34.705c-2.02 0-3.958 0.803-5.387 2.231-1.428 1.429-2.231 3.367-2.231 5.387v45.295c0 2.02 0.803 3.958 2.231 5.387 1.429 1.428 3.367 2.231 5.387 2.231h28.764c2.02 0 3.958-0.803 5.387-2.231 1.428-1.429 2.231-3.367 2.231-5.387v-51.236z" style="fill:url(#_Linear1)"/>
 <path d="m18.979 15.06h17.947v6.526h-13.053v4.895h6.526v4.895h-6.526v13.053h-4.894v-29.369z" style="fill-rule:nonzero;fill:#ff6363"/>
 <path d="m35.908 29.744-0.163 1.932c-0.613 0.228-1.183 0.557-1.686 0.976l-1.759-0.83-1.836 3.182 1.597 1.107c-0.057 0.322-0.087 0.647-0.089 0.973 0 0.327 0.028 0.654 0.084 0.976l-1.592 1.107 1.836 3.18 1.755-0.825c0.504 0.416 1.076 0.743 1.69 0.968l0.16 1.939h3.672l0.163-1.934c0.613-0.227 1.183-0.557 1.686-0.976l1.757 0.828 1.836-3.18-1.595-1.11c0.057-0.321 0.087-0.646 0.089-0.973 0-0.327-0.028-0.653-0.084-0.975l1.592-1.105-1.836-3.18-1.755 0.825c-0.504-0.415-1.076-0.742-1.69-0.966l-0.162-1.939h-3.67zm1.833 4.892c1.343 0 2.449 1.105 2.449 2.448s-1.106 2.449-2.449 2.449-2.448-1.106-2.448-2.449 1.105-2.448 2.448-2.448z" style="fill-rule:nonzero;fill:#3f92e7"/>
 <defs>
  <linearGradient id="_Linear1" x2="1" gradientTransform="matrix(3.03829e-15,-49.619,49.619,3.03829e-15,615.22,51.088)" gradientUnits="userSpaceOnUse">
   <stop style="stop-color:#4f4f4f" offset="0"/>
   <stop style="stop-color:#676767" offset="1"/>
  </linearGradient>
 </defs>
</svg>
