<svg clip-rule="evenodd" fill-rule="evenodd" stroke-linejoin="round" stroke-miterlimit="2" viewBox="0 0 64 64" xmlns="http://www.w3.org/2000/svg">
 <linearGradient id="a" x2="1" gradientTransform="matrix(0 -49.619 49.619 0 688.11 51.088)" gradientUnits="userSpaceOnUse">
  <stop stop-color="#bdbdbd" offset="0"/>
  <stop stop-color="#f2f2f2" offset="1"/>
 </linearGradient>
 <path d="m54 3.146c0-.926-.751-1.677-1.677-1.677h-34.705c-2.02 0-3.958.803-5.387 2.231-1.428 1.429-2.231 3.367-2.231 5.387v45.295c0 2.02.803 3.958 2.231 5.387 1.429 1.428 3.367 2.231 5.387 2.231h28.764c2.02 0 3.958-.803 5.387-2.231 1.428-1.429 2.231-3.367 2.231-5.387z" fill="url(#a)"/>
 <path d="m22.727 17.249s1.724 5.556.671 9.119c-1.052 3.562-6.398 7.574-6.398 7.574s6.989.38 9.643 2.076c2.653 1.696 5.351 8.231 5.351 8.231s3.583-7.2 5.082-8.231c1.499-1.03 9.924-2.086 9.924-2.086s-6.16-5.797-6.684-7.414c-.523-1.617.959-9.265.959-9.265s-5.544 3.746-9.437 3.746-9.111-3.75-9.111-3.75zm13.519 6.996c-.086 1.034-.295 1.771.266 3.504.623 1.924 1.259 2.298 2.013 3.191.092.109.206.217.301.326-.168.039-.35.064-.514.104-1.153.281-1.948.283-3.501 1.351-1.554 1.068-1.847 1.835-2.489 2.797-.082.124-.154.264-.236.391-.799-1.167-1.788-2.303-3.289-3.262-1.158-.74-2.308-1.149-3.44-1.467.753-1.051 1.447-2.222 1.877-3.679.335-1.133.38-2.19.42-3.233 1.262.417 2.64.731 4.184.731 1.618 0 3.083-.311 4.408-.754z" fill="#a7695f"/>
</svg>
