<svg style="clip-rule:evenodd;fill-rule:evenodd;stroke-linejoin:round;stroke-miterlimit:2" viewBox="0 0 64 64" xmlns="http://www.w3.org/2000/svg">
 <path d="m54 3.146c0-0.926-0.751-1.677-1.677-1.677h-34.705c-2.02 0-3.958 0.803-5.387 2.231-1.428 1.429-2.231 3.367-2.231 5.387v45.295c0 2.02 0.803 3.958 2.231 5.387 1.429 1.428 3.367 2.231 5.387 2.231h28.764c2.02 0 3.958-0.803 5.387-2.231 1.428-1.429 2.231-3.367 2.231-5.387v-51.236z" style="fill:url(#_Linear1)"/>
 <path d="m22.6 58.871c-0.306 0-0.582-0.066-0.828-0.197-0.241-0.131-0.421-0.295-0.541-0.492h-0.033l0.033 0.558v1.77h-0.754v-5.786h0.721v0.557h0.033c0.12-0.196 0.3-0.36 0.541-0.491 0.246-0.132 0.522-0.197 0.828-0.197 0.519 0 0.967 0.205 1.344 0.615 0.377 0.409 0.565 0.917 0.565 1.524 0 0.606-0.188 1.114-0.565 1.524s-0.825 0.615-1.344 0.615zm-0.123-0.689c0.349 0 0.65-0.131 0.901-0.393 0.252-0.268 0.377-0.62 0.377-1.057s-0.125-0.787-0.377-1.049c-0.251-0.268-0.552-0.402-0.901-0.402-0.355 0-0.659 0.131-0.91 0.394-0.246 0.262-0.369 0.614-0.369 1.057 0 0.442 0.123 0.795 0.369 1.057 0.251 0.262 0.555 0.393 0.91 0.393z" style="fill-rule:nonzero;fill:#fff"/>
 <path d="m26.113 60.51h-0.778l0.934-2.024-1.655-3.762h0.819l1.197 2.885h0.016l1.164-2.885h0.819l-2.516 5.786z" style="fill-rule:nonzero;fill:#fff"/>
 <path d="m30.859 58.805c-0.421 0-0.743-0.112-0.967-0.336-0.219-0.224-0.328-0.541-0.328-0.95v-2.107h-0.705v-0.688h0.705v-1.229h0.754v1.229h0.983v0.688h-0.983v2.049c0 0.437 0.18 0.656 0.541 0.656 0.136 0 0.251-0.022 0.344-0.066l0.262 0.648c-0.164 0.071-0.366 0.106-0.606 0.106z" style="fill-rule:nonzero;fill:#fff"/>
 <path d="m32.821 52.872v1.852l-0.033 0.557h0.033c0.109-0.191 0.281-0.352 0.516-0.483 0.235-0.137 0.486-0.205 0.754-0.205 0.497 0 0.877 0.153 1.139 0.459s0.394 0.716 0.394 1.229v2.459h-0.754v-2.344c0-0.743-0.331-1.115-0.992-1.115-0.312 0-0.566 0.126-0.762 0.377-0.197 0.246-0.295 0.533-0.295 0.861v2.221h-0.754v-5.868h0.754z" style="fill-rule:nonzero;fill:#fff"/>
 <path d="m36.869 55.208c0.388-0.41 0.882-0.615 1.483-0.615s1.096 0.205 1.484 0.615c0.388 0.404 0.582 0.912 0.582 1.524s-0.194 1.123-0.582 1.532c-0.388 0.405-0.883 0.607-1.484 0.607s-1.095-0.202-1.483-0.607c-0.388-0.409-0.582-0.92-0.582-1.532s0.194-1.12 0.582-1.524zm0.557 2.581c0.263 0.262 0.571 0.393 0.926 0.393 0.356 0 0.662-0.131 0.918-0.393 0.263-0.268 0.394-0.62 0.394-1.057s-0.131-0.787-0.394-1.049c-0.256-0.268-0.562-0.402-0.918-0.402-0.355 0-0.663 0.134-0.926 0.402-0.256 0.262-0.385 0.612-0.385 1.049s0.129 0.789 0.385 1.057z" style="fill-rule:nonzero;fill:#fff"/>
 <path d="m41.752 54.724v0.557h0.033c0.109-0.191 0.281-0.352 0.516-0.483 0.235-0.137 0.486-0.205 0.754-0.205 0.497 0 0.877 0.153 1.139 0.459s0.393 0.716 0.393 1.229v2.459h-0.754v-2.344c0-0.743-0.33-1.115-0.991-1.115-0.312 0-0.566 0.126-0.762 0.377-0.197 0.246-0.295 0.533-0.295 0.861v2.221h-0.754v-4.016h0.721z" style="fill-rule:nonzero;fill:#fff"/>
 <path d="m30 16c-1.662 0-3 1.338-3 3v2h5v1h-5-2c-2.216 0-4 1.784-4 4v2c0 2.216 1.784 4 4 4v-2c0-1.841 1.238-3.369 2.926-3.838 0.147-0.041 0.297-0.072 0.449-0.1 0.205-0.032 0.411-0.062 0.625-0.062h7.225c0.477-0.531 0.775-1.227 0.775-2v-5c0-1.662-1.338-3-3-3h-4zm9 6v2c0 1.841-1.238 3.369-2.926 3.838-0.147 0.041-0.297 0.072-0.449 0.1-0.205 0.032-0.411 0.062-0.625 0.062h-4-3.225c-0.477 0.531-0.775 1.227-0.775 2v5c0 1.662 1.338 3 3 3h4c1.662 0 3-1.338 3-3v-2h-5v-1h7c2.216 0 4-1.784 4-4v-2c0-2.216-1.784-4-4-4z" style="fill-rule:nonzero;fill:#6b470d"/>
 <defs>
  <linearGradient id="_Linear1" x2="1" gradientTransform="matrix(-.354839 -61.1575 61.1578 -.354838 32.5323 63.5381)" gradientUnits="userSpaceOnUse">
   <stop style="stop-color:#cb7e00" offset="0"/>
   <stop style="stop-color:#fac431" offset="1"/>
  </linearGradient>
 </defs>
</svg>
