<svg clip-rule="evenodd" fill-rule="evenodd" stroke-linejoin="round" stroke-miterlimit="2" viewBox="0 0 48 48" xmlns="http://www.w3.org/2000/svg">
 <linearGradient id="a" x2="1" gradientTransform="matrix(0 -37.2142 37.2142 0 133.41 38.316)" gradientUnits="userSpaceOnUse">
  <stop stop-color="#758b9a" offset="0"/>
  <stop stop-color="#e9d6b2" offset="1"/>
 </linearGradient>
 <path d="m40.5 2.359c0-.694-.563-1.257-1.258-1.257h-26.028c-1.515 0-2.969.602-4.041 1.673-1.071 1.072-1.673 2.525-1.673 4.04v33.972c0 1.515.602 2.968 1.673 4.04 1.072 1.071 2.526 1.673 4.041 1.673h21.573c1.515 0 2.968-.602 4.04-1.673 1.071-1.072 1.673-2.525 1.673-4.04v-38.427z" fill="url(#a)"/>
 <path d="m22.772 17-8 7.133 8 6.867v-3l-4.5-4 4.5-4zm4 0c-.549 0-1 .451-1 1v2c-.001.005-.001.009-.001.014 0 .549.452 1 1.001 1 .548 0 1-.451 1-1 0-.005 0-.009 0-.014v-1h2v3.465l-2.555 1.703c-.269.179-.435.478-.445.801v2c-.001.004-.001.009-.001.014 0 .549.452 1 1.001 1 .548 0 1-.451 1-1 0-.005 0-.01 0-.014v-1.465l2.554-1.703c.269-.179.435-.478.446-.801v-5c0-.549-.452-1-1-1zm1 12c-.549 0-1 .451-1 1s.451 1 1 1c.548 0 1-.451 1-1s-.452-1-1-1z" fill="#ffffff" fill-rule="nonzero"/>
</svg>
