<svg clip-rule="evenodd" fill-rule="evenodd" stroke-linejoin="round" stroke-miterlimit="2" viewBox="0 0 64 64" xmlns="http://www.w3.org/2000/svg">
 <linearGradient id="a" x2="1" gradientTransform="matrix(0 -49.619 49.619 0 323.66 51.088)" gradientUnits="userSpaceOnUse">
  <stop stop-color="#e77b11" offset="0"/>
  <stop stop-color="#ddaa23" offset="1"/>
 </linearGradient>
 <path d="m54 3.146c0-.926-.751-1.677-1.677-1.677h-34.705c-2.02 0-3.958.803-5.387 2.231-1.428 1.429-2.231 3.367-2.231 5.387v45.295c0 2.02.803 3.958 2.231 5.387 1.429 1.428 3.367 2.231 5.387 2.231h28.764c2.02 0 3.958-.803 5.387-2.231 1.428-1.429 2.231-3.367 2.231-5.387z" fill="url(#a)"/>
 <path transform="matrix(1.2409 0 0 1.2409 -3.12951 -9.62744)" d="m14.129 51.803c0-.616.211-1.134.638-1.549.408-.417.971-.647 1.554-.635.601 0 1.107.211 1.523.635.423.415.635.933.635 1.549.009.577-.221 1.133-.635 1.535-.4.409-.951.635-1.523.623-.581.013-1.143-.213-1.554-.623-.417-.4-.649-.957-.638-1.535m-.125-9.865v3.636c4.641 0 8.409 3.776 8.409 8.425h3.644c0-6.659-5.405-12.057-12.057-12.057zm.004-7.944v4.017c8.762.011 15.967 7.225 15.965 15.988h4.029c-.002-10.969-9.025-19.997-19.994-20.005z" fill="#ffffff" fill-opacity=".7" fill-rule="nonzero"/>
</svg>
