<svg style="clip-rule:evenodd;fill-rule:evenodd;stroke-linejoin:round;stroke-miterlimit:2" viewBox="0 0 64 64" xmlns="http://www.w3.org/2000/svg">
 <path d="m54 3.146c0-0.926-0.751-1.677-1.677-1.677h-34.705c-2.02 0-3.958 0.803-5.387 2.231-1.428 1.429-2.231 3.367-2.231 5.387v45.295c0 2.02 0.803 3.958 2.231 5.387 1.429 1.428 3.367 2.231 5.387 2.231h28.764c2.02 0 3.958-0.803 5.387-2.231 1.428-1.429 2.231-3.367 2.231-5.387v-51.236z" style="fill:url(#_Linear1)"/>
 <path d="m28.016 18.98c-1.108 0-2 0.892-2 2v20c0 1.108 0.892 2 2 2s2-0.892 2-2v-5.633l0.203-0.353 4.033 6.984c0.554 0.96 1.771 1.287 2.73 0.733 0.96-0.554 1.287-1.773 0.733-2.733l-5.188-8.982 5.188-8.985c0.554-0.959 0.227-2.178-0.733-2.732-0.959-0.554-2.176-0.227-2.73 0.732l-4.033 6.985-0.203-0.352v-5.664c0-1.108-0.892-2-2-2z" style="fill-opacity:.6;fill-rule:nonzero;fill:#fff"/>
 <defs>
  <linearGradient id="_Linear1" x2="1" gradientTransform="matrix(3.03829e-15,-49.619,49.619,3.03829e-15,177.88,51.088)" gradientUnits="userSpaceOnUse">
   <stop style="stop-color:#b38d32" offset="0"/>
   <stop style="stop-color:#dabe79" offset="1"/>
  </linearGradient>
 </defs>
</svg>
