<svg clip-rule="evenodd" fill-rule="evenodd" stroke-linejoin="round" stroke-miterlimit="2" viewBox="0 0 64 64" xmlns="http://www.w3.org/2000/svg">
 <linearGradient id="a" x2="1" gradientTransform="matrix(1.07196 -49.7469 49.7469 1.07196 178.156 54.3653)" gradientUnits="userSpaceOnUse">
  <stop stop-color="#075" offset="0"/>
  <stop stop-color="#3ec884" offset="1"/>
 </linearGradient>
 <path d="m54 3.146c0-.926-.751-1.677-1.677-1.677h-34.705c-2.02 0-3.958.803-5.387 2.231-1.428 1.429-2.231 3.367-2.231 5.387v45.295c0 2.02.803 3.958 2.231 5.387 1.429 1.428 3.367 2.231 5.387 2.231h28.764c2.02 0 3.958-.803 5.387-2.231 1.428-1.429 2.231-3.367 2.231-5.387v-51.236z" fill="url(#a)"/>
 <path d="m42 18.285c0-1.262-1.023-2.285-2.285-2.285h-15.23c-1.262 0-2.285 1.023-2.285 2.285v17.43c0 1.262 1.023 2.285 2.285 2.285h15.23c1.262 0 2.285-1.023 2.285-2.285z" fill="#044937"/>
 <g fill="#fff">
  <path d="m33.245 24.663v1.1h-2.2v-1.1zm0-1.645v1.1h-2.2v-1.1zm0-1.608v1.1h-2.2v-1.1zm-.024-1.636v1.1h-2.2v-1.1zm.014-1.572v1.1h-2.2v-1.1zm.004-1.591v1.1h-2.2v-1.1z" fill-opacity=".93"/>
  <path d="m32.951 27.371v-.694c0-.194-.157-.351-.349-.351h-.97c-.193 0-.349.157-.349.351v.693l-.539 1.591c-.151.443-.079.935.193 1.317.272.381.713.608 1.18.608s.908-.227 1.18-.608c.271-.382.344-.874.193-1.317zm-.226 2.497c-.279.393-.937.393-1.217 0-.14-.197-.177-.451-.1-.68l.181-.533h1.055l.181.533c.078.229.04.483-.1.68z" fill-rule="nonzero"/>
  <path d="m28.058 57.782c-.131.197-.317.361-.557.492s-.511.197-.811.197c-.519 0-.968-.205-1.345-.615s-.565-.918-.565-1.524c0-.607.188-1.115.565-1.525.377-.409.826-.614 1.345-.614.3 0 .571.065.811.196.24.132.426.295.557.492h.033v-.557h.721v3.811c0 .688-.199 1.21-.598 1.565-.399.361-.885.541-1.459.541-.475 0-.863-.12-1.164-.361-.3-.235-.516-.505-.647-.811l.688-.287c.077.219.216.402.418.549.208.148.443.222.705.222.415 0 .74-.126.975-.377.241-.246.361-.582.361-1.008v-.386zm8.141 2.328h-.754v-5.786h.721v.557h.033c.12-.197.301-.36.541-.492.246-.131.522-.196.828-.196.519 0 .967.205 1.344.614.377.41.565.918.565 1.525 0 .606-.188 1.114-.565 1.524s-.825.615-1.344.615c-.306 0-.582-.066-.828-.197-.24-.131-.421-.295-.541-.492h-.033l.033.558zm-1.71-1.77h-.754v-4.016h.754zm-1.629 0h-3.245v-.656l2.286-2.672h-2.221v-.688h3.147v.655l-2.286 2.672h2.319zm-6.048-.558c.356 0 .656-.131.902-.393.251-.262.377-.615.377-1.057 0-.443-.126-.795-.377-1.057-.246-.263-.546-.394-.902-.394-.349 0-.65.134-.901.402-.251.262-.377.612-.377 1.049s.126.789.377 1.057c.251.262.552.393.901.393zm10.633 0c.35 0 .65-.131.901-.393.252-.268.377-.62.377-1.057s-.125-.787-.377-1.049c-.251-.268-.551-.402-.901-.402-.355 0-.659.131-.91.394-.246.262-.369.614-.369 1.057 0 .442.123.795.369 1.057.251.262.555.393.91.393zm-2.956-4.466c-.104.104-.23.156-.377.156-.148 0-.273-.052-.377-.156s-.156-.23-.156-.377c0-.148.052-.273.156-.377s.229-.156.377-.156c.147 0 .273.052.377.156s.155.229.155.377c0 .147-.051.273-.155.377z" fill-rule="nonzero"/>
 </g>
</svg>
