<svg clip-rule="evenodd" fill-rule="evenodd" stroke-linejoin="round" stroke-miterlimit="2" viewBox="0 0 48 48" xmlns="http://www.w3.org/2000/svg">
 <linearGradient id="a" x2="1" gradientTransform="matrix(0 -49.619 49.619 0 688.11 51.088)" gradientUnits="userSpaceOnUse">
  <stop stop-color="#a64e08" offset="0"/>
  <stop stop-color="#cd8b69" offset="1"/>
 </linearGradient>
 <linearGradient id="b" x1="16.4" x2="47.6" y1="597.742" y2="597.742" gradientUnits="userSpaceOnUse">
  <stop stop-color="#c41717" stop-opacity=".75" offset="0"/>
  <stop stop-color="#f13f3f" stop-opacity=".75" offset="1"/>
 </linearGradient>
 <path transform="matrix(.75 0 0 .75 0 .199125)" d="m54 3.146c0-.926-.751-1.677-1.677-1.677h-34.705c-2.02 0-3.958.803-5.387 2.231-1.428 1.429-2.231 3.367-2.231 5.387v45.295c0 2.02.803 3.958 2.231 5.387 1.429 1.428 3.367 2.231 5.387 2.231h28.764c2.02 0 3.958-.803 5.387-2.231 1.428-1.429 2.231-3.367 2.231-5.387z" fill="url(#a)"/>
 <g transform="matrix(.585996 0 0 .585996 5.24814 5.5149)" fill-rule="nonzero">
  <path d="m32 16.02 15.6 8.803v17.607l-15.6 8.803-15.6-8.803v-17.607z" fill="url(#b)"/>
  <path d="m16.4 24.823v17.607l15.6 8.803v-17.606z" fill-opacity=".22"/>
  <path d="m16.398 24.823v1l15.602 8.803 15.602-8.803v-1l-15.602 8.805z" fill-opacity=".33"/>
 </g>
</svg>
