<svg style="clip-rule:evenodd;fill-rule:evenodd;stroke-linejoin:round;stroke-miterlimit:2" viewBox="0 0 64 64" xmlns="http://www.w3.org/2000/svg">
 <path d="m54 3.146c0-0.926-0.751-1.677-1.677-1.677h-34.705c-2.02 0-3.958 0.803-5.387 2.231-1.428 1.429-2.231 3.367-2.231 5.387v45.295c0 2.02 0.803 3.958 2.231 5.387 1.429 1.428 3.367 2.231 5.387 2.231h28.764c2.02 0 3.958-0.803 5.387-2.231 1.428-1.429 2.231-3.367 2.231-5.387v-51.236z" style="fill:url(#_Linear1)"/>
 <path d="m23.585 37.999h7.107v0.923h2.585v-0.923h7.138v1.044h2.585v-2.585h-0.954v-7.228h0.923v-2.585h-0.923v-6.71h0.954v-2.585h-2.585v0.526h-7.138v-0.923h-2.585v0.923h-7.107v-0.646h-2.585v2.585h0.923v6.83h-0.923v2.585h0.923v7.108h-0.923v2.584h2.585v-0.923zm-0.739 0v0.185h-1.108v-1.108h1.108v0.923zm8.585-20.123v-0.185h1.108v1.108h-1.108v-0.184-0.353-0.386zm1.108 20.123v0.185h-1.108v-0.185-0.386-0.352-0.185h1.108v0.923zm0.123-9.646c0.071 0.072 0.071 0.189 0 0.261-0.037 0.036-0.084 0.054-0.131 0.054s-0.095-0.018-0.131-0.054l-0.415-0.415-0.416 0.415c-0.036 0.036-0.083 0.054-0.13 0.054-0.048 0-0.095-0.018-0.131-0.054-0.072-0.072-0.072-0.189 0-0.261l0.415-0.415-0.415-0.416c-0.072-0.072-0.072-0.189 0-0.261s0.189-0.072 0.261 0l0.416 0.416 0.415-0.416c0.072-0.072 0.189-0.072 0.261 0s0.072 0.189 0 0.261l-0.415 0.416 0.416 0.415zm9.6 9.951h-1.108v-0.305-0.738-0.064h1.108v1.107zm-1.847-1.846v0.803h-5.782c3.223-0.914 5.761-3.452 6.675-6.676v5.873h-0.893zm1.816-7.966h-0.185-0.386-0.352-0.185v-1.108h1.108v1.108zm-1.077-10.403h1.108v1.108h-0.216-0.738-0.154v-0.582-0.526zm-0.739 0.526v1.32h0.893v5.355c-0.914-3.223-3.452-5.762-6.675-6.675h5.782zm-18.677-0.647h1.108v1.108h-0.184-0.739-0.185v-1.108zm1.847 1.847v-1.2h5.752c-3.223 0.913-5.762 3.452-6.675 6.675v-5.475h0.923zm-1.847 7.569h1.108v1.107h-0.184-0.353-0.386-0.185v-1.107zm0.924 3.201c0.913 3.224 3.452 5.762 6.675 6.676h-5.752v-0.923h-0.923v-5.753z" style="fill-rule:nonzero;fill:#a3484b"/>
 <defs>
  <linearGradient id="_Linear1" x2="1" gradientTransform="matrix(3.03829e-15,-49.619,49.619,3.03829e-15,469.44,51.088)" gradientUnits="userSpaceOnUse">
   <stop style="stop-color:#348692" offset="0"/>
   <stop style="stop-color:#69b9cd" offset="1"/>
  </linearGradient>
 </defs>
</svg>
