<svg clip-rule="evenodd" fill-rule="evenodd" stroke-linejoin="round" stroke-miterlimit="2" viewBox="0 0 48 48" xmlns="http://www.w3.org/2000/svg" xmlns:xlink="http://www.w3.org/1999/xlink"><linearGradient id="a" gradientTransform="matrix(0 -49.619 49.619 0 615.22 51.088)" gradientUnits="userSpaceOnUse" x1="0" x2="1" y1="0" y2="0"><stop offset="0" stop-color="#c5d1d2"/><stop offset="1" stop-color="#dbdedf"/></linearGradient><path d="m54 3.146c0-.926-.751-1.677-1.677-1.677h-34.705c-2.02 0-3.958.803-5.387 2.231-1.428 1.429-2.231 3.367-2.231 5.387v45.295c0 2.02.803 3.958 2.231 5.387 1.429 1.428 3.367 2.231 5.387 2.231h28.764c2.02 0 3.958-.803 5.387-2.231 1.428-1.429 2.231-3.367 2.231-5.387z" fill="url(#a)" transform="matrix(.75 0 0 .75 0 .199125)"/><path d="m8 6.063 1.583-1.997c.227-.286.642-.334.928-.108.286.227.334.643.107.928l-2.097 2.646c-.131.165-.325.25-.521.25s-.391-.085-.521-.25l-2.097-2.646c-.227-.285-.179-.701.107-.928.285-.226.701-.178.928.108zm0 4.431 3.124-3.942c.305-.383.864-.448 1.248-.144.384.305.449.864.144 1.247l-3.816 4.814c-.176.222-.437.337-.7.336-.264.001-.524-.114-.701-.336l-3.815-4.813c-.305-.384-.24-.943.144-1.247.384-.305.943-.24 1.248.143z" fill="#4c7a90" transform="matrix(2.28669 0 0 2.28669 5.70646 4.72051)"/></svg>