<svg clip-rule="evenodd" fill-rule="evenodd" stroke-linejoin="round" stroke-miterlimit="2" viewBox="0 0 48 48" xmlns="http://www.w3.org/2000/svg">
 <linearGradient id="a" x2="1" gradientTransform="matrix(0 -49.619 49.619 0 177.88 51.088)" gradientUnits="userSpaceOnUse">
  <stop stop-color="#c4c4c4" offset="0"/>
  <stop stop-color="#edf2f6" offset="1"/>
 </linearGradient>
 <path transform="scale(.75)" d="m54 3.146c0-.926-.751-1.677-1.677-1.677h-34.705c-2.02 0-3.958.803-5.387 2.231-1.428 1.429-2.231 3.367-2.231 5.387v45.295c0 2.02.803 3.958 2.231 5.387 1.429 1.428 3.367 2.231 5.387 2.231h28.764c2.02 0 3.958-.803 5.387-2.231 1.428-1.429 2.231-3.367 2.231-5.387z" fill="url(#a)"/>
 <path transform="translate(0 -6)" d="m24 20c-5.523 0-10 4.477-10 10s4.477 10 10 10 10-4.477 10-10-4.477-10-10-10zm0 1c4.971 0 9 4.029 9 9 0 4.194-2.873 7.709-6.756 8.707-.047-.011-.08-.012-.139-.027-1.428-.374-2.595-1.312-3.251-2.614-.781-1.548-.702-3.343.216-4.849.212-.348.299-.459.733-.934.575-.63.87-1.042 1.119-1.566.654-1.378.623-3.059-.082-4.444-.722-1.417-2.018-2.393-3.596-2.707-.065-.013-.187-.014-.275-.023.949-.341 1.964-.543 3.031-.543zm1.869 3c.575.744 1.248 2.166 1.371 2.592.169.581.178 1.273.026 1.984-.143.669-.677 2.122-1.147 3.119-.28.595-.96 1.893-1.201 2.305h1.678c.24-.401.654-1.124.937-1.684.324-.639.614-1.276.813-1.785.083-.213.194-.495.246-.627.051-.131.108-.24.127-.24.052 0 .295.542.621 1.385.248.641.754 2.059.887 2.482.051.164.098.317.146.469h1.557c-.039-.131-.063-.217-.143-.469-.509-1.595-1.167-3.335-1.715-4.539-.667-1.466-1.202-2.534-1.656-3.303-.269-.456-.737-1.389-.902-1.689zm-10.221 2h1.567c.041.117.064.166.117.342.099.327.258.827.354 1.111.383 1.141 1.087 2.976 1.168 3.041.05.041.085.013.107-.086.01-.046.073-.224.139-.394.391-1.013 1.359-2.935 2.011-3.996l.012-.018h1.699c-.038.076-.042.099-.101.201-.302.527-.997 1.866-1.252 2.414-.286.613-.567 1.306-.785 1.942-.345 1.002-.43 1.406-.43 2.021 0 .744.175 1.315.617 2.002.096.149.19.3.209.336.059.112.589.874.723 1.041.021.026.007.023.021.043h-1.67c-.046-.043-.095-.101-.488-.707-.725-1.117-1.345-2.319-2.123-4.111-.723-1.666-1.266-3.126-1.785-4.809-.063-.205-.084-.279-.11-.373z" fill="#848484" fill-rule="nonzero"/>
</svg>
