<svg clip-rule="evenodd" fill-rule="evenodd" stroke-linejoin="round" stroke-miterlimit="2" viewBox="0 0 64 64" xmlns="http://www.w3.org/2000/svg">
 <linearGradient id="a" x2="1" gradientTransform="matrix(0 -49.619 49.619 0 250.77 51.088)" gradientUnits="userSpaceOnUse">
  <stop stop-color="#396ceb" offset="0"/>
  <stop stop-color="#6e9ce0" offset="1"/>
 </linearGradient>
 <path d="m54 3.146c0-.926-.751-1.677-1.677-1.677h-34.705c-2.02 0-3.958.803-5.387 2.231-1.428 1.429-2.231 3.367-2.231 5.387v45.295c0 2.02.803 3.958 2.231 5.387 1.429 1.428 3.367 2.231 5.387 2.231h28.764c2.02 0 3.958-.803 5.387-2.231 1.428-1.429 2.231-3.367 2.231-5.387z" fill="url(#a)"/>
 <path d="m21 17.553v22h22l-11-11 11-11zm1 1h9l-9 9zm10.414 0h8.172l-18.586 18.586v-8.172zm-1.121 10.707 9.293 9.293h-18.586z" fill="#2d479a" fill-rule="nonzero"/>
 <path transform="translate(.389489 8.04352)" d="m24.199 49.663-1.465-1.961-.457.473v1.488h-.726v-6h.726v3.625l.387-.461 1.313-1.39h.882l-1.648 1.762 1.84 2.464zm1.215-2.066v-.09c0-.612.172-1.123.516-1.533.343-.41.811-.615 1.402-.615.596 0 1.067.205 1.412.615s.518.921.518 1.533v.09c0 .612-.173 1.122-.518 1.531s-.813.613-1.404.613c-.594 0-1.063-.204-1.408-.613s-.518-.919-.518-1.531zm.723-.09v.09c0 .419.099.783.299 1.09.199.307.5.461.904.461.396 0 .694-.154.894-.461.201-.307.301-.671.301-1.09v-.09c0-.414-.1-.777-.301-1.088-.2-.311-.501-.467-.902-.467-.398 0-.697.156-.896.467-.2.311-.299.674-.299 1.088zm5.82 2.156c-.057.019-.132.036-.225.053-.092.017-.203.025-.334.025-.268 0-.497-.082-.687-.246s-.285-.458-.285-.882v-2.622h-.774v-.554h.774v-1.028h.722v1.028h.79v.554h-.79v2.625c0 .217.047.355.141.415.094.059.202.089.324.089.06 0 .123-.005.19-.017.066-.012.116-.022.15-.029zm1.613-6v6h-.726v-6zm1.164.653c0-.117.036-.216.108-.297.071-.081.178-.121.318-.121.138 0 .244.04.319.121.074.081.111.18.111.297 0 .112-.037.207-.111.287-.075.079-.181.119-.319.119-.14 0-.247-.04-.318-.119-.072-.08-.108-.175-.108-.287zm.782 1.121v4.226h-.727v-4.226zm2.914.531c-.232 0-.437.063-.614.188s-.316.287-.418.488v3.019h-.722v-4.226h.683l.024.527c.32-.403.741-.605 1.262-.605.416 0 .746.117.99.351.243.235.365.629.365 1.184v2.769h-.727v-2.777c0-.331-.072-.566-.216-.707-.145-.141-.354-.211-.627-.211z" fill="#fff"/>
</svg>
