<svg style="clip-rule:evenodd;fill-rule:evenodd;stroke-linejoin:round;stroke-miterlimit:2" viewBox="0 0 64 64" xmlns="http://www.w3.org/2000/svg">
 <path d="m54 3.146c0-0.926-0.751-1.677-1.677-1.677h-34.705c-2.02 0-3.958 0.803-5.387 2.231-1.428 1.429-2.231 3.367-2.231 5.387v45.295c0 2.02 0.803 3.958 2.231 5.387 1.429 1.428 3.367 2.231 5.387 2.231h28.764c2.02 0 3.958-0.803 5.387-2.231 1.428-1.429 2.231-3.367 2.231-5.387v-51.236z" style="fill:url(#_Linear1)"/>
 <path d="m25.773 56.84c-0.267-0.064-0.477-0.123-0.632-0.176s-0.315-0.128-0.48-0.224-0.285-0.216-0.36-0.36-0.112-0.317-0.112-0.52c0-0.133 0.021-0.261 0.064-0.384 0.048-0.128 0.125-0.253 0.232-0.376 0.107-0.128 0.264-0.229 0.472-0.304 0.213-0.08 0.464-0.12 0.752-0.12 0.299 0 0.555 0.032 0.768 0.096 0.213 0.059 0.379 0.147 0.496 0.264s0.205 0.237 0.264 0.36 0.101 0.269 0.128 0.44l-0.696 0.088c-0.064-0.448-0.368-0.672-0.912-0.672-0.571 0-0.856 0.179-0.856 0.536 0 0.16 0.061 0.277 0.184 0.352s0.352 0.157 0.688 0.248c0.048 0.011 0.136 0.035 0.264 0.072 0.133 0.032 0.221 0.056 0.264 0.072 0.048 0.011 0.128 0.035 0.24 0.072 0.112 0.032 0.189 0.059 0.232 0.08 0.048 0.021 0.115 0.053 0.2 0.096 0.091 0.043 0.155 0.083 0.192 0.12s0.083 0.085 0.136 0.144 0.091 0.12 0.112 0.184c0.027 0.059 0.048 0.128 0.064 0.208 0.021 0.08 0.032 0.165 0.032 0.256 0 0.251-0.059 0.467-0.176 0.648-0.112 0.181-0.259 0.32-0.44 0.416-0.176 0.091-0.352 0.155-0.528 0.192-0.176 0.043-0.349 0.064-0.52 0.064-1.024 0-1.616-0.445-1.776-1.336l0.696-0.112c0.075 0.581 0.435 0.872 1.08 0.872 0.635 0 0.952-0.221 0.952-0.664 0-0.048-5e-3 -0.091-0.016-0.128-5e-3 -0.043-0.021-0.08-0.048-0.112s-0.051-0.059-0.072-0.08c-0.021-0.027-0.056-0.051-0.104-0.072-0.048-0.027-0.088-0.045-0.12-0.056-0.027-0.016-0.075-0.032-0.144-0.048-0.069-0.021-0.123-0.037-0.16-0.048-0.032-0.011-0.091-0.024-0.176-0.04-0.085-0.021-0.147-0.037-0.184-0.048z" style="fill-rule:nonzero;fill:#fff"/>
 <path d="m29.989 54.952c-0.341 0-0.589 0.061-0.744 0.184-0.149 0.117-0.266 0.32-0.352 0.608l-0.672-0.096c0.176-0.848 0.798-1.272 1.864-1.272 0.587 0 1 0.109 1.24 0.328 0.246 0.213 0.368 0.627 0.368 1.24v1.824c0 0.293 0.072 0.576 0.216 0.848h-0.728c-0.069-0.149-0.114-0.32-0.136-0.512-0.485 0.405-0.997 0.608-1.536 0.608-0.416 0-0.757-0.104-1.024-0.312-0.266-0.213-0.4-0.504-0.4-0.872 0-0.427 0.2-0.768 0.6-1.024 0.171-0.112 0.539-0.208 1.104-0.288 0.566-0.085 0.963-0.168 1.192-0.248v-0.176c0-0.56-0.33-0.84-0.992-0.84zm-0.304 3.184c0.864 0 1.296-0.448 1.296-1.344v-0.248c-0.176 0.075-0.469 0.144-0.88 0.208-0.405 0.059-0.725 0.141-0.96 0.248-0.229 0.101-0.344 0.269-0.344 0.504 0 0.421 0.296 0.632 0.888 0.632z" style="fill-rule:nonzero;fill:#fff"/>
 <path d="m34.211 56.84c-0.267-0.064-0.478-0.123-0.632-0.176-0.155-0.053-0.315-0.128-0.48-0.224-0.166-0.096-0.286-0.216-0.36-0.36-0.075-0.144-0.112-0.317-0.112-0.52 0-0.133 0.021-0.261 0.064-0.384 0.048-0.128 0.125-0.253 0.232-0.376 0.106-0.128 0.264-0.229 0.472-0.304 0.213-0.08 0.464-0.12 0.752-0.12 0.298 0 0.554 0.032 0.768 0.096 0.213 0.059 0.378 0.147 0.496 0.264 0.117 0.117 0.205 0.237 0.264 0.36 0.058 0.123 0.101 0.269 0.128 0.44l-0.696 0.088c-0.064-0.448-0.368-0.672-0.912-0.672-0.571 0-0.856 0.179-0.856 0.536 0 0.16 0.061 0.277 0.184 0.352 0.122 0.075 0.352 0.157 0.688 0.248 0.048 0.011 0.136 0.035 0.264 0.072 0.133 0.032 0.221 0.056 0.264 0.072 0.048 0.011 0.128 0.035 0.24 0.072 0.112 0.032 0.189 0.059 0.232 0.08 0.048 0.021 0.114 0.053 0.2 0.096 0.09 0.043 0.154 0.083 0.192 0.12 0.037 0.037 0.082 0.085 0.136 0.144 0.053 0.059 0.09 0.12 0.112 0.184 0.026 0.059 0.048 0.128 0.064 0.208 0.021 0.08 0.032 0.165 0.032 0.256 0 0.251-0.059 0.467-0.176 0.648-0.112 0.181-0.259 0.32-0.44 0.416-0.176 0.091-0.352 0.155-0.528 0.192-0.176 0.043-0.35 0.064-0.52 0.064-1.024 0-1.616-0.445-1.776-1.336l0.696-0.112c0.074 0.581 0.434 0.872 1.08 0.872 0.634 0 0.952-0.221 0.952-0.664 0-0.048-6e-3 -0.091-0.016-0.128-6e-3 -0.043-0.022-0.08-0.048-0.112-0.027-0.032-0.051-0.059-0.072-0.08-0.022-0.027-0.056-0.051-0.104-0.072-0.048-0.027-0.088-0.045-0.12-0.056-0.027-0.016-0.075-0.032-0.144-0.048-0.07-0.021-0.123-0.037-0.16-0.048-0.032-0.011-0.091-0.024-0.176-0.04-0.086-0.021-0.147-0.037-0.184-0.048z" style="fill-rule:nonzero;fill:#fff"/>
 <path d="m38.195 56.84c-0.267-0.064-0.477-0.123-0.632-0.176s-0.315-0.128-0.48-0.224-0.285-0.216-0.36-0.36-0.112-0.317-0.112-0.52c0-0.133 0.021-0.261 0.064-0.384 0.048-0.128 0.125-0.253 0.232-0.376 0.107-0.128 0.264-0.229 0.472-0.304 0.213-0.08 0.464-0.12 0.752-0.12 0.299 0 0.555 0.032 0.768 0.096 0.213 0.059 0.379 0.147 0.496 0.264s0.205 0.237 0.264 0.36 0.101 0.269 0.128 0.44l-0.696 0.088c-0.064-0.448-0.368-0.672-0.912-0.672-0.571 0-0.856 0.179-0.856 0.536 0 0.16 0.061 0.277 0.184 0.352s0.352 0.157 0.688 0.248c0.048 0.011 0.136 0.035 0.264 0.072 0.133 0.032 0.221 0.056 0.264 0.072 0.048 0.011 0.128 0.035 0.24 0.072 0.112 0.032 0.189 0.059 0.232 0.08 0.048 0.021 0.115 0.053 0.2 0.096 0.091 0.043 0.155 0.083 0.192 0.12s0.083 0.085 0.136 0.144 0.091 0.12 0.112 0.184c0.027 0.059 0.048 0.128 0.064 0.208 0.021 0.08 0.032 0.165 0.032 0.256 0 0.251-0.059 0.467-0.176 0.648-0.112 0.181-0.259 0.32-0.44 0.416-0.176 0.091-0.352 0.155-0.528 0.192-0.176 0.043-0.349 0.064-0.52 0.064-1.024 0-1.616-0.445-1.776-1.336l0.696-0.112c0.075 0.581 0.435 0.872 1.08 0.872 0.635 0 0.952-0.221 0.952-0.664 0-0.048-5e-3 -0.091-0.016-0.128-5e-3 -0.043-0.021-0.08-0.048-0.112s-0.051-0.059-0.072-0.08c-0.021-0.027-0.056-0.051-0.104-0.072-0.048-0.027-0.088-0.045-0.12-0.056-0.027-0.016-0.075-0.032-0.144-0.048-0.069-0.021-0.123-0.037-0.16-0.048-0.032-0.011-0.091-0.024-0.176-0.04-0.085-0.021-0.147-0.037-0.184-0.048z" style="fill-rule:nonzero;fill:#fff"/>
 <path d="m29.185 31.862c0.212 0.783 0.189 1.513-0.03 2.174-0.024 0.074-0.051 0.147-0.08 0.218-0.029 0.072-0.061 0.143-0.094 0.213-0.169 0.35-0.395 0.677-0.672 0.98-0.846 0.922-2.027 1.271-2.534 0.977-0.547-0.317-0.273-1.618 0.708-2.654 1.054-1.114 2.572-1.831 2.572-1.831l-3e-3 -5e-3c0.043-0.023 0.088-0.048 0.133-0.072zm12.02-13.171c-0.659-2.584-4.944-3.434-9-1.993-2.414 0.858-5.027 2.203-6.905 3.961-2.234 2.089-2.59 3.908-2.444 4.668 0.518 2.681 4.192 4.434 5.702 5.734v8e-3c-0.445 0.219-3.704 1.869-4.467 3.555-0.805 1.779 0.128 3.056 0.746 3.228 1.913 0.532 3.877-0.425 4.933-2 1.018-1.519 0.933-3.481 0.491-4.456 0.61-0.162 1.322-0.234 2.227-0.128 2.552 0.298 3.053 1.892 2.957 2.559-0.095 0.667-0.631 1.034-0.81 1.144-0.179 0.111-0.233 0.15-0.218 0.232 0.021 0.12 0.104 0.115 0.257 0.089 0.21-0.035 1.34-0.542 1.389-1.774 0.061-1.563-1.437-3.312-4.09-3.266-1.092 0.019-1.779 0.123-2.275 0.308-0.037-0.042-0.074-0.084-0.113-0.125-1.64-1.75-4.671-2.987-4.543-5.339 0.047-0.856 0.344-3.107 5.826-5.839 4.49-2.237 8.084-1.621 8.705-0.257 0.888 1.95-1.921 5.573-6.584 6.096-1.776 0.199-2.712-0.49-2.944-0.746-0.245-0.27-0.282-0.282-0.373-0.232-0.149 0.083-0.055 0.321 0 0.463 0.139 0.363 0.71 1.005 1.684 1.325 0.857 0.281 2.943 0.435 5.465-0.54 2.826-1.093 5.032-4.133 4.384-6.674" style="fill-rule:nonzero;fill:#fff"/>
 <defs>
  <linearGradient id="_Linear1" x2="1" gradientTransform="matrix(3.03829e-15,-49.619,49.619,3.03829e-15,177.88,51.088)" gradientUnits="userSpaceOnUse">
   <stop style="stop-color:#a33a81" offset="0"/>
   <stop style="stop-color:#fd55db" offset="1"/>
  </linearGradient>
 </defs>
</svg>
