<svg clip-rule="evenodd" fill-rule="evenodd" stroke-linejoin="round" stroke-miterlimit="2" viewBox="0 0 64 64" xmlns="http://www.w3.org/2000/svg">
 <linearGradient id="a" x2="1" gradientTransform="matrix(0 -49.619 49.619 0 396.55 51.088)" gradientUnits="userSpaceOnUse">
  <stop stop-color="#9b070f" offset="0"/>
  <stop stop-color="#e65130" offset="1"/>
 </linearGradient>
 <path d="m54 3.146c0-.926-.751-1.677-1.677-1.677h-34.705c-2.02 0-3.958.803-5.387 2.231-1.428 1.429-2.231 3.367-2.231 5.387v45.295c0 2.02.803 3.958 2.231 5.387 1.429 1.428 3.367 2.231 5.387 2.231h28.764c2.02 0 3.958-.803 5.387-2.231 1.428-1.429 2.231-3.367 2.231-5.387z" fill="url(#a)"/>
 <g fill="#fff" fill-rule="nonzero">
  <path d="m26.063 58.44h-.754v-4.016h.721v.656h.033c.076-.219.232-.399.467-.541.241-.142.473-.213.697-.213s.412.032.565.098l-.287.705c-.098-.038-.232-.058-.401-.058-.273 0-.517.11-.73.328-.207.213-.311.495-.311.844z"/>
  <path d="m30.376 58.571c-.306 0-.582-.066-.828-.197-.24-.131-.42-.295-.541-.492h-.032l.032.558v1.77h-.754v-5.786h.722v.557h.032c.121-.196.301-.36.541-.491.246-.132.522-.197.828-.197.519 0 .967.205 1.344.615.377.409.566.917.566 1.524 0 .606-.189 1.114-.566 1.524s-.825.615-1.344.615zm-.123-.689c.35 0 .65-.131.902-.393.251-.268.377-.62.377-1.057s-.126-.787-.377-1.049c-.252-.268-.552-.402-.902-.402-.355 0-.658.131-.91.394-.245.262-.368.614-.368 1.057 0 .442.123.795.368 1.057.252.262.555.393.91.393z"/>
  <path d="m32.928 58.44v-4.016h.721v.557h.033c.115-.191.29-.352.525-.483.24-.137.478-.205.713-.205.623 0 1.046.257 1.27.77.328-.513.795-.77 1.401-.77.476 0 .834.153 1.074.459.24.3.361.71.361 1.229v2.459h-.754v-2.344c0-.404-.074-.691-.222-.861-.147-.169-.371-.254-.672-.254-.295 0-.54.126-.737.377-.191.252-.287.538-.287.861v2.221h-.754v-2.344c0-.404-.074-.691-.221-.861-.148-.169-.372-.254-.672-.254-.295 0-.541.126-.738.377-.191.252-.287.538-.287.861v2.221z"/>
 </g>
 <path transform="translate(0 7.78197)" d="m32.286 6.718c6.069 0 10.997 4.928 10.997 10.997s-4.928 10.997-10.997 10.997-10.997-4.928-10.997-10.997 4.928-10.997 10.997-10.997zm5.453 9.809c-.452-1.378-1.424-3.831-1.967-4.39-.606-.623-2.657-1.447-2.946-.827-.198.426-.963 1.081-2.155.449-1.905-1.008-2.634.632-2.765 1.132-.133.5-.449 1.922-.449 1.922-.105.579-.246 1.601 3.32 2.265 4.246.79 5.594.223 6.962-.551zm.649.762c-.108.365-.304.762-.951 1.186-1.3.85-2.922 1.016-4.527.997-1.006-.012-3.319-.675-4.865-1.553-1.264-.772-1.285-1.467-.995-2.057-1.91-.206-3.343.179-3.603 1.083-.446 1.551 3.411 4.2 7.804 5.529 4.609 1.395 9.35.421 9.877-2.475.239-1.316-.869-2.289-2.74-2.71z" fill="#4a0207"/>
</svg>
