<svg style="clip-rule:evenodd;fill-rule:evenodd;stroke-linejoin:round;stroke-miterlimit:2" viewBox="0 0 64 64" xmlns="http://www.w3.org/2000/svg">
 <path d="m54 3.146c0-0.926-0.751-1.677-1.677-1.677h-34.705c-2.02 0-3.958 0.803-5.387 2.231-1.428 1.429-2.231 3.367-2.231 5.387v45.295c0 2.02 0.803 3.958 2.231 5.387 1.429 1.428 3.367 2.231 5.387 2.231h28.764c2.02 0 3.958-0.803 5.387-2.231 1.428-1.429 2.231-3.367 2.231-5.387v-51.236z" style="fill:url(#_Linear1)"/>
 <path d="m22.963 57.296c0-0.416 0.059-0.773 0.176-1.072 0.118-0.299 0.272-0.523 0.464-0.672 0.198-0.155 0.4-0.264 0.608-0.328 0.208-0.069 0.427-0.104 0.656-0.104 0.928 0 1.48 0.437 1.656 1.312l-0.688 0.104c-0.122-0.56-0.437-0.84-0.944-0.84-0.81 0-1.216 0.531-1.216 1.592s0.392 1.592 1.176 1.592c0.592 0 0.942-0.347 1.048-1.04l0.68 0.088c-0.074 0.464-0.261 0.835-0.56 1.112-0.293 0.277-0.677 0.416-1.152 0.416-0.602 0-1.072-0.195-1.408-0.584-0.33-0.395-0.496-0.92-0.496-1.576z" style="fill-rule:nonzero;fill:#fff"/>
 <path d="m31.69 55.696c-0.405 0-0.688 0.12-0.848 0.36s-0.24 0.584-0.24 1.032v2.272h-0.712v-5.728h0.712v2.048c0.32-0.373 0.734-0.56 1.24-0.56 0.523 0 0.891 0.131 1.104 0.392 0.219 0.261 0.328 0.669 0.328 1.224v2.624h-0.712v-2.624c0-0.693-0.29-1.04-0.872-1.04z" style="fill-rule:nonzero;fill:#fff"/>
 <path d="m35.88 59.456c-0.55 0-0.987-0.203-1.312-0.608-0.32-0.411-0.48-0.931-0.48-1.56 0-0.645 0.149-1.168 0.448-1.568 0.298-0.4 0.736-0.6 1.312-0.6 0.485 0 0.866 0.187 1.144 0.56v-2.048h0.712v5.728h-0.712v-0.512c-0.278 0.405-0.648 0.608-1.112 0.608zm1.112-2.104c0-0.203-0.016-0.389-0.048-0.56-0.027-0.176-0.078-0.352-0.152-0.528-0.07-0.176-0.179-0.315-0.328-0.416-0.15-0.101-0.334-0.152-0.552-0.152-0.742 0-1.112 0.531-1.112 1.592 0 0.565 0.117 0.973 0.352 1.224 0.234 0.245 0.496 0.368 0.784 0.368 0.213 0 0.392-0.048 0.536-0.144 0.149-0.101 0.258-0.235 0.328-0.4 0.069-0.171 0.117-0.333 0.144-0.488 0.032-0.16 0.048-0.325 0.048-0.496z" style="fill-rule:nonzero;fill:#fff"/>
 <path d="m38.781 59.36v-4.144h0.712v0.624c0.197-0.48 0.472-0.72 0.824-0.72 0.24 0 0.48 0.072 0.72 0.216l-0.232 0.52c-0.16-0.107-0.331-0.16-0.512-0.16-0.235 0-0.427 0.125-0.576 0.376-0.15 0.251-0.224 0.624-0.224 1.12v2.168h-0.712z" style="fill-rule:nonzero;fill:#fff"/>
 <path d="m23.807 15.152h2.905v9.625h10.675v-9.625h2.94v22.96h-2.94v-10.815h-10.675v10.815h-2.905v-22.96z" style="fill-rule:nonzero;fill:#5e4008"/>
 <defs>
  <linearGradient id="_Linear1" x2="1" gradientTransform="matrix(1.07196,-49.7469,49.7469,1.07196,251.234,55.94)" gradientUnits="userSpaceOnUse">
   <stop style="stop-color:#b87003" offset="0"/>
   <stop style="stop-color:#cfa532" offset="1"/>
  </linearGradient>
 </defs>
</svg>
