<svg clip-rule="evenodd" fill-rule="evenodd" stroke-linejoin="round" stroke-miterlimit="2" viewBox="0 0 48 48" xmlns="http://www.w3.org/2000/svg">
 <linearGradient id="a" x2="1" gradientTransform="matrix(0 -49.619 49.619 0 177.88 51.088)" gradientUnits="userSpaceOnUse">
  <stop stop-color="#3b9a6a" offset="0"/>
  <stop stop-color="#6fc59a" offset="1"/>
 </linearGradient>
 <path transform="scale(.75)" d="m54 3.146c0-.926-.751-1.677-1.677-1.677h-34.705c-2.02 0-3.958.803-5.387 2.231-1.428 1.429-2.231 3.367-2.231 5.387v45.295c0 2.02.803 3.958 2.231 5.387 1.429 1.428 3.367 2.231 5.387 2.231h28.764c2.02 0 3.958-.803 5.387-2.231 1.428-1.429 2.231-3.367 2.231-5.387z" fill="url(#a)"/>
 <g fill="#fff" fill-rule="nonzero">
  <path d="m12.074 46.385c-.759-1.265-1.352-2.574-1.365-4.035.401.659.934 1.171 1.567 1.567-.4-.643-.597-1.308-.539-1.999 1.05 1.173 2.222 1.567 3.402 1.909-1.233-.861-2.335-1.788-2.923-2.983.706.348 1.411.402 2.118.328-.879-.444-1.203-1.247-1.372-2.149 1.228 1.253 2.512 2.096 3.818 2.776-1.295-1.248-2.25-2.528-2.745-3.849.498.28.987.412 1.463.359-.657-.742-.823-1.468-1-2.194.626.929 1.177 1.429 1.686 1.685-.52-1.063-.482-2-.119-2.863.599.397 1.163 1.02 1.641 2.208.173-.566-.107-1.511-.449-2.507.516.147 1.135.796 1.94 2.358-.078-.918-.509-1.847-.985-2.776.718.833 1.794 3.018 1.612 2.567 0-.836-.359-1.702-1.672-3.462-.388-.52-.622-1.029-.762-1.489-.2-.47-.452-1.065-.477-1.938.022-.164.048-.341.083-.548.149-.884.213-1.308.978-3.122.504-1.691 1.536-.323 1.674.577.011.13.036.251.067.365-.028.125.093.348.235.558.182.312.377.491.377.492.003.001.086.032.211-.071.012-.005.026-.012.038-.017.061.272.198.958.053 1.076.295-.183.444-.462.399-.979.503.11.888.388 1.113.895.072-.332.144-.663-.09-.978.518.068.919.355 1.27.741.053-.221.084-.447 0-.696.33.113.615.383.881.71 0 0 .05-.917-.482-1.358-.107-.107-.127-.211-.088-.406 0 0 .042-.461-1.22-.444-.205.003-.459.023-.739.055.02-.116.034-.237.034-.371 0-1.151.813-1.918 1.22-1.902.136.006.228.098.228.292-.006 1.231.543 2.035.924 2.242 0 0 .084.601.693.601.602.006 1.423.493 2.203.75 1.421.044 1.525.679 1.304.973 0 0 1.515.964 3.334 1.218.829.07 2.51-.075 4.224.233.747-.532 1.373-.244 1.422.503.181.322.775.573.513 1.748-.488.969-.59.764-1.565 1.401 1.551 2.333-2.623 2.596-3.616 2.161-1.634-.592-2.906.244-4.806-.245-2.103 3.103-5.005 1.073-5.005 1.073-.26 1.202-2.53 4.602 1.09 6.577 1.202.697 2.272 1.565 3.221 2.498h-13.877c-.386 0-.767-.039-1.14-.115zm-1.974-.808c-.187-.658-.275-1.329-.241-2.019.494 1.161 1.217 1.992 1.974 2.773-.615-.154-1.201-.408-1.733-.754zm26.107-11.141c-.006.005-.012.011-.017.016-.192.168-.941.551-1.203.549-.402-.003-.722-.525-1.323-.525-1.064 0-1.721.336-1.956.489.376.036.864-.395 1.536.1.931.99 1.729.8 2.215.57.433-.128.565-.402.632-.487.218-.288-.096-.502.099-.696.006-.006.012-.011.017-.016zm-2.887-2.355c.399 0 .722.216.722.482s-.323.482-.722.482c.848-.266-.047-1.104-.722-.482 0-.266.323-.482.722-.482zm-.022-.275c.18-.011.377.011.585.057.554.161.377.564.247.831.189-.668-.418-.798-1.314-.743.142-.089.303-.134.482-.145zm-10.86-2.056c.093.054.609.226.674.266.052.169.024.342.696.643.607.188 1.387.109 1.622-.126.026-.399.031-.252.133-.377.367-.134.212-.098.273-.138-.703.137-2.287.146-3.398-.268z"/>
  <path transform="matrix(1.21568 0 0 1.21568 -4.62997 -6.91393)" d="m27.843 20.112c-.107.002-.262.133-.394.429-.322.586-.736.842-.732 1.274.147.246-1.098.607-.705 1.377-.278.344-.934.787-.701 1.315-.118.258-.954.865-.593 1.438-.787.525-.74.651-.574 1.131-.421.27-.861.807-.64 1.246 0 0-.049 1.459 1.311.508.705.017.394-.754.394-.754.475-.131.548-.75.36-1.114.607.016.51-.921.427-1.246.475-.18.541-.748.344-1.197.573-.131.59-.802.541-1.278.59-.032.508-1.065.508-1.278.508-.328.394-.771.473-1.283.177-.357.119-.57-.019-.568zm-.859 1.326c-.151.428.11.377.427.372-.145.155-.571.202-.571.044s.144-.416.144-.416zm-.832 1.224c-.151.429.34.49.657.485-.145.155-.616.158-.693-.033-.123-.244.036-.452.036-.452zm-.612 1.26c-.109.444.285.544.602.54-.144.155-.698.126-.698-.032-.099-.245.096-.508.096-.508zm-.601 1.398c-.109.444.53.434.847.429-.145.156-.595.304-.876.146-.245-.274.029-.575.029-.575zm-.587 1.117c-.136.268.717.535 1.034.53-.145.155-.757.274-1.037.117-.304-.371.003-.647.003-.647zm-.614 1.316c-.108.444.977.388 1.294.383-.145.155-1.042.35-1.323.192-.245-.274.029-.575.029-.575z"/>
  <path d="m7.5 32.642c1.249-1.14 2.596-1.903 3.567-1.981 1.319-.107 2.313-.314 3.075-.57 2.258-.759 2.482-1.961 3.103-2.346-.667 2.187-.187 3.309.145 4.091.14.46.374.969.762 1.489 1.313 1.76 1.672 2.626 1.672 3.462.182.451-.894-1.734-1.612-2.567.476.929.907 1.858.985 2.776-.805-1.562-1.424-2.211-1.94-2.358.342.996.622 1.941.449 2.507-.478-1.188-1.042-1.811-1.641-2.208-.363.863-.401 1.8.119 2.863-.509-.256-1.06-.756-1.686-1.685.177.726.343 1.452 1 2.194-.476.053-.965-.079-1.463-.359.495 1.321 1.45 2.601 2.745 3.849-1.306-.68-2.59-1.523-3.818-2.776.169.902.493 1.705 1.372 2.149-.707.074-1.412.02-2.118-.328.588 1.195 1.69 2.122 2.923 2.983-1.18-.342-2.352-.736-3.402-1.909-.058.691.139 1.356.539 1.999-.633-.396-1.166-.908-1.567-1.567.013 1.461.606 2.77 1.365 4.035-.08-.016-.161-.034-.241-.054-.757-.781-1.48-1.612-1.974-2.773-.034.69.054 1.361.241 2.019-.332-.216-.643-.467-.927-.75-1.071-1.072-1.673-2.525-1.673-4.04zm14.912-5.949c-.574.008-1.416.113-2.655.406-.254.176.57 1.121.57 1.121s.098.05.247-.1c.06.267.202.969.055 1.088.295-.183.444-.464.399-.981.503.109.888.39 1.113.897.072-.332.144-.663-.09-.978.518.068.919.355 1.27.741.053-.221.084-.447 0-.696.33.113.615.383.881.71 0 0 .05-.917-.482-1.358-.107-.107-.127-.211-.088-.406 0 0 .042-.461-1.22-.444z" fill-opacity=".5"/>
 </g>
</svg>
