<svg clip-rule="evenodd" fill-rule="evenodd" stroke-linejoin="round" stroke-miterlimit="2" viewBox="0 0 48 48" xmlns="http://www.w3.org/2000/svg" xmlns:xlink="http://www.w3.org/1999/xlink"><linearGradient id="a" gradientTransform="matrix(0 -49.619 49.619 0 615.22 51.088)" gradientUnits="userSpaceOnUse" x1="0" x2="1" y1="0" y2="0"><stop offset="0" stop-color="#a5504c"/><stop offset="1" stop-color="#cd7f69"/></linearGradient><path d="m54 3.146c0-.926-.751-1.677-1.677-1.677h-34.705c-2.02 0-3.958.803-5.387 2.231-1.428 1.429-2.231 3.367-2.231 5.387v45.295c0 2.02.803 3.958 2.231 5.387 1.429 1.428 3.367 2.231 5.387 2.231h28.764c2.02 0 3.958-.803 5.387-2.231 1.428-1.429 2.231-3.367 2.231-5.387z" fill="url(#a)" transform="matrix(.75 0 0 .75 0 .199125)"/><path d="m15.451 24-1.429 1.597 5.384 4.814-5.406 5.112 1.472 1.557 7.1-6.713zm5.714 0-1.429 1.597 5.384 4.814-5.406 5.112 1.472 1.557 7.1-6.713zm5.714 0-1.429 1.597 5.384 4.814-5.406 5.112 1.472 1.557 7.1-6.713z" fill="#5e271f" fill-rule="nonzero" transform="translate(.57981 -6.54)"/></svg>