<svg style="clip-rule:evenodd;fill-rule:evenodd" viewBox="0 0 64 64" xmlns="http://www.w3.org/2000/svg">
 <path d="m54 3.146c0-0.926-0.751-1.677-1.677-1.677h-34.705c-2.02 0-3.958 0.803-5.387 2.231-1.428 1.429-2.231 3.367-2.231 5.387v45.295c0 2.02 0.803 3.958 2.231 5.387 1.429 1.428 3.367 2.231 5.387 2.231h28.764c2.02 0 3.958-0.803 5.387-2.231 1.428-1.429 2.231-3.367 2.231-5.387v-51.236z" style="fill:url(#_Linear1)"/>
 <path d="m20.58 59.271c-0.426 0-0.784-0.123-1.074-0.369-0.284-0.246-0.426-0.571-0.426-0.975 0-0.437 0.169-0.779 0.508-1.024 0.339-0.252 0.757-0.377 1.254-0.377 0.443 0 0.806 0.081 1.09 0.245v-0.114c0-0.295-0.101-0.53-0.303-0.705-0.202-0.18-0.451-0.271-0.746-0.271-0.219 0-0.418 0.052-0.598 0.156-0.175 0.104-0.295 0.246-0.361 0.426l-0.688-0.295c0.093-0.24 0.276-0.461 0.549-0.664 0.273-0.207 0.634-0.311 1.082-0.311 0.513 0 0.939 0.15 1.278 0.451 0.339 0.3 0.508 0.724 0.508 1.27v2.426h-0.721v-0.557h-0.033c-0.3 0.459-0.74 0.688-1.319 0.688zm0.123-0.688c0.311 0 0.593-0.115 0.844-0.345 0.257-0.235 0.385-0.51 0.385-0.827-0.213-0.175-0.533-0.263-0.959-0.263-0.366 0-0.642 0.08-0.828 0.238-0.185 0.158-0.278 0.344-0.278 0.557 0 0.197 0.084 0.353 0.254 0.467 0.169 0.115 0.363 0.173 0.582 0.173z" style="fill-rule:nonzero;fill:#fff"/>
 <path d="m27.027 59.14h-0.721v-0.557h-0.033c-0.114 0.191-0.289 0.355-0.524 0.491-0.235 0.131-0.484 0.197-0.746 0.197-0.503 0-0.885-0.153-1.147-0.459-0.257-0.306-0.386-0.716-0.386-1.229v-2.459h0.754v2.336c0 0.748 0.331 1.123 0.992 1.123 0.312 0 0.566-0.126 0.762-0.377 0.197-0.252 0.295-0.541 0.295-0.869v-2.213h0.754v4.016z" style="fill-rule:nonzero;fill:#fff"/>
 <path d="m29.739 59.205c-0.421 0-0.743-0.112-0.967-0.336-0.219-0.224-0.328-0.54-0.328-0.95v-2.107h-0.705v-0.688h0.705v-1.229h0.754v1.229h0.983v0.688h-0.983v2.049c0 0.437 0.18 0.656 0.541 0.656 0.136 0 0.251-0.022 0.344-0.066l0.262 0.648c-0.164 0.071-0.366 0.106-0.606 0.106z" style="fill-rule:nonzero;fill:#fff"/>
 <path d="m31.7 53.272v1.852l-0.032 0.557h0.032c0.11-0.191 0.282-0.352 0.517-0.483 0.235-0.137 0.486-0.205 0.754-0.205 0.497 0 0.877 0.153 1.139 0.459s0.393 0.716 0.393 1.229v2.459h-0.754v-2.344c0-0.743-0.33-1.115-0.991-1.115-0.312 0-0.566 0.126-0.763 0.377-0.196 0.246-0.295 0.533-0.295 0.861v2.221h-0.754v-5.868h0.754z" style="fill-rule:nonzero;fill:#fff"/>
 <path d="m35.749 55.608c0.388-0.41 0.882-0.615 1.483-0.615s1.096 0.205 1.484 0.615c0.387 0.404 0.581 0.912 0.581 1.524s-0.194 1.123-0.581 1.533c-0.388 0.404-0.883 0.606-1.484 0.606s-1.095-0.202-1.483-0.606c-0.388-0.41-0.582-0.921-0.582-1.533s0.194-1.12 0.582-1.524zm0.557 2.581c0.262 0.262 0.571 0.394 0.926 0.394s0.661-0.132 0.918-0.394c0.262-0.268 0.393-0.62 0.393-1.057s-0.131-0.787-0.393-1.049c-0.257-0.268-0.563-0.402-0.918-0.402s-0.664 0.134-0.926 0.402c-0.257 0.262-0.385 0.612-0.385 1.049s0.128 0.789 0.385 1.057z" style="fill-rule:nonzero;fill:#fff"/>
 <path d="m40.664 59.14h-0.754v-4.016h0.721v0.656h0.033c0.077-0.219 0.232-0.399 0.467-0.541 0.241-0.142 0.473-0.213 0.697-0.213s0.413 0.033 0.565 0.098l-0.286 0.705c-0.099-0.038-0.233-0.057-0.402-0.057-0.273 0-0.516 0.109-0.729 0.327-0.208 0.213-0.312 0.495-0.312 0.844v2.197z" style="fill-rule:nonzero;fill:#fff"/>
 <path d="m44.219 59.271c-0.448 0-0.82-0.109-1.115-0.328-0.289-0.218-0.502-0.492-0.639-0.819l0.672-0.279c0.213 0.503 0.577 0.754 1.09 0.754 0.235 0 0.426-0.052 0.574-0.156 0.153-0.104 0.229-0.24 0.229-0.41 0-0.262-0.183-0.439-0.549-0.532l-0.811-0.197c-0.257-0.065-0.5-0.188-0.729-0.369-0.23-0.185-0.345-0.434-0.345-0.746 0-0.355 0.156-0.641 0.467-0.86 0.317-0.224 0.692-0.336 1.123-0.336 0.355 0 0.672 0.082 0.951 0.246 0.279 0.158 0.478 0.388 0.598 0.688l-0.655 0.271c-0.148-0.355-0.454-0.533-0.918-0.533-0.224 0-0.413 0.046-0.566 0.139s-0.229 0.219-0.229 0.377c0 0.23 0.177 0.385 0.532 0.467l0.795 0.189c0.377 0.087 0.656 0.238 0.836 0.451 0.181 0.213 0.271 0.453 0.271 0.721 0 0.36-0.148 0.661-0.443 0.901-0.295 0.241-0.675 0.361-1.139 0.361z" style="fill-rule:nonzero;fill:#fff"/>
 <circle cx="32" cy="27" r="9.878" style="fill:#3d434a;stroke-width:2.24px;stroke:#3d434a"/>
 <path d="m31.91 20.827c-2.918 0-5.365 2.042-5.994 4.781h2.941c0.539-1.167 1.706-1.975 3.053-1.975 1.863 0 3.368 1.504 3.368 3.367s-1.505 3.367-3.368 3.367c-1.347 0-2.514-0.808-3.053-1.953h-2.941c0.629 2.717 3.076 4.759 5.994 4.759 3.412 0 6.174-2.761 6.174-6.173s-2.762-6.173-6.174-6.173z" style="fill-rule:nonzero;fill:#9ba8b4"/>
 <defs>
  <linearGradient id="_Linear1" x2="1" gradientTransform="matrix(3.03829e-15,-49.619,49.619,3.03829e-15,104.99,51.088)" gradientUnits="userSpaceOnUse">
   <stop style="stop-color:#758b9a" offset="0"/>
   <stop style="stop-color:#b5bdc2" offset="1"/>
  </linearGradient>
 </defs>
</svg>
