<svg style="clip-rule:evenodd;fill-rule:evenodd;stroke-linejoin:round;stroke-miterlimit:2" viewBox="0 0 64 64" xmlns="http://www.w3.org/2000/svg">
 <path d="m54 3.146c0-0.926-0.751-1.677-1.677-1.677h-34.705c-2.02 0-3.958 0.803-5.387 2.231-1.428 1.429-2.231 3.367-2.231 5.387v45.295c0 2.02 0.803 3.958 2.231 5.387 1.429 1.428 3.367 2.231 5.387 2.231h28.764c2.02 0 3.958-0.803 5.387-2.231 1.428-1.429 2.231-3.367 2.231-5.387v-51.236z" style="fill:url(#_Linear1)"/>
 <path d="m23.433 59.184c-0.267 0.139-0.584 0.208-0.952 0.208s-0.688-0.069-0.96-0.208c-0.267-0.139-0.469-0.32-0.608-0.544-0.133-0.229-0.232-0.461-0.296-0.696-0.059-0.235-0.088-0.475-0.088-0.72 0-0.651 0.171-1.173 0.512-1.568 0.347-0.4 0.827-0.6 1.44-0.6s1.091 0.2 1.432 0.6c0.347 0.395 0.52 0.917 0.52 1.568 0 0.245-0.032 0.485-0.096 0.72-0.059 0.235-0.157 0.467-0.296 0.696-0.133 0.224-0.336 0.405-0.608 0.544zm-0.04-3.112c-0.213-0.293-0.517-0.44-0.912-0.44s-0.701 0.147-0.92 0.44c-0.213 0.288-0.32 0.672-0.32 1.152 0 0.192 0.019 0.376 0.056 0.552 0.043 0.176 0.107 0.347 0.192 0.512 0.091 0.16 0.219 0.288 0.384 0.384 0.171 0.096 0.373 0.144 0.608 0.144s0.435-0.048 0.6-0.144c0.171-0.096 0.299-0.224 0.384-0.384 0.091-0.165 0.155-0.336 0.192-0.512 0.043-0.176 0.064-0.36 0.064-0.552 0-0.48-0.109-0.864-0.328-1.152z" style="fill-rule:nonzero;fill:#fff"/>
 <path d="m25.03 57.232c0-0.416 0.059-0.773 0.176-1.072 0.118-0.299 0.272-0.523 0.464-0.672 0.198-0.155 0.4-0.264 0.608-0.328 0.208-0.069 0.427-0.104 0.656-0.104 0.928 0 1.48 0.437 1.656 1.312l-0.688 0.104c-0.122-0.56-0.437-0.84-0.944-0.84-0.81 0-1.216 0.531-1.216 1.592s0.392 1.592 1.176 1.592c0.592 0 0.942-0.347 1.048-1.04l0.68 0.088c-0.074 0.464-0.261 0.835-0.56 1.112-0.293 0.277-0.677 0.416-1.152 0.416-0.602 0-1.072-0.195-1.408-0.584-0.33-0.395-0.496-0.92-0.496-1.576z" style="fill-rule:nonzero;fill:#fff"/>
 <path d="m30.079 58.12c0 0.229 0.026 0.395 0.08 0.496 0.058 0.101 0.16 0.152 0.304 0.152 0.032 0 0.082-3e-3 0.152-8e-3 0.074-0.011 0.128-0.016 0.16-0.016l0.104 0.552c-0.166 0.032-0.344 0.048-0.536 0.048-0.219 0-0.398-0.024-0.536-0.072-0.134-0.053-0.232-0.141-0.296-0.264-0.059-0.123-0.099-0.248-0.12-0.376-0.016-0.133-0.024-0.317-0.024-0.552v-2.392h-0.512v-0.536h0.512v-1.032l0.712-0.424v1.456h0.696v0.536h-0.696v2.432z" style="fill-rule:nonzero;fill:#fff"/>
 <path d="m33.113 55.632c-0.341 0-0.589 0.061-0.744 0.184-0.149 0.117-0.266 0.32-0.352 0.608l-0.672-0.096c0.176-0.848 0.798-1.272 1.864-1.272 0.587 0 1 0.109 1.24 0.328 0.246 0.213 0.368 0.627 0.368 1.24v1.824c0 0.293 0.072 0.576 0.216 0.848h-0.728c-0.069-0.149-0.114-0.32-0.136-0.512-0.485 0.405-0.997 0.608-1.536 0.608-0.416 0-0.757-0.104-1.024-0.312-0.266-0.213-0.4-0.504-0.4-0.872 0-0.427 0.2-0.768 0.6-1.024 0.171-0.112 0.539-0.208 1.104-0.288 0.566-0.085 0.963-0.168 1.192-0.248v-0.176c0-0.56-0.33-0.84-0.992-0.84zm-0.304 3.184c0.864 0 1.296-0.448 1.296-1.344v-0.248c-0.176 0.075-0.469 0.144-0.88 0.208-0.405 0.059-0.725 0.141-0.96 0.248-0.229 0.101-0.344 0.269-0.344 0.504 0 0.421 0.296 0.632 0.888 0.632z" style="fill-rule:nonzero;fill:#fff"/>
 <path d="m37.063 59.296l-1.585-4.144h0.752l1.152 3.2 1.192-3.2h0.72l-1.584 4.144h-0.648z" style="fill-rule:nonzero;fill:#fff"/>
 <path d="m40.383 57.392c0.027 0.432 0.147 0.779 0.36 1.04 0.219 0.256 0.52 0.384 0.904 0.384 0.512 0 0.877-0.285 1.096-0.856l0.72 0.088c-0.245 0.896-0.853 1.344-1.824 1.344-0.624 0-1.109-0.187-1.456-0.56s-0.52-0.901-0.52-1.584c0-0.667 0.168-1.197 0.504-1.592 0.341-0.4 0.819-0.6 1.432-0.6 0.555 0 0.995 0.168 1.32 0.504 0.325 0.331 0.509 0.787 0.552 1.368v0.464h-3.088zm0.04-0.576h2.32c-0.064-0.789-0.44-1.184-1.128-1.184-0.347 0-0.627 0.112-0.84 0.336-0.208 0.219-0.325 0.501-0.352 0.848z" style="fill-rule:nonzero;fill:#fff"/>
 <defs>
  <linearGradient id="_Linear1" x2="1" gradientTransform="matrix(3.03829e-15,-49.619,49.619,3.03829e-15,250.77,51.088)" gradientUnits="userSpaceOnUse">
   <stop style="stop-color:#ce5d1f" offset="0"/>
   <stop style="stop-color:#fe9861" offset="1"/>
  </linearGradient>
 </defs>
</svg>
