<svg style="clip-rule:evenodd;fill-rule:evenodd" viewBox="0 0 64 64" xmlns="http://www.w3.org/2000/svg">
 <path d="m54 3.146c0-0.926-0.751-1.677-1.677-1.677h-34.705c-2.02 0-3.958 0.803-5.387 2.231-1.428 1.429-2.231 3.367-2.231 5.387v45.295c0 2.02 0.803 3.958 2.231 5.387 1.429 1.428 3.367 2.231 5.387 2.231h28.764c2.02 0 3.958-0.803 5.387-2.231 1.428-1.429 2.231-3.367 2.231-5.387v-51.236z" style="fill:url(#_Linear1)"/>
 <path d="m21.145 59.271c-0.601 0-1.095-0.202-1.483-0.606-0.388-0.41-0.582-0.921-0.582-1.533s0.194-1.12 0.582-1.524c0.388-0.41 0.882-0.615 1.483-0.615 0.448 0 0.82 0.109 1.115 0.328 0.295 0.218 0.511 0.494 0.647 0.828l-0.688 0.286c-0.208-0.502-0.582-0.754-1.123-0.754-0.333 0-0.628 0.137-0.885 0.41-0.251 0.273-0.377 0.62-0.377 1.041s0.126 0.768 0.377 1.041c0.257 0.273 0.552 0.41 0.885 0.41 0.563 0 0.951-0.252 1.164-0.754l0.672 0.286c-0.137 0.328-0.358 0.604-0.664 0.828-0.3 0.219-0.675 0.328-1.123 0.328z" style="fill-rule:nonzero;fill:#fff"/>
 <path d="m24.337 53.272v1.852l-0.032 0.557h0.032c0.11-0.191 0.282-0.352 0.517-0.483 0.235-0.137 0.486-0.205 0.754-0.205 0.497 0 0.877 0.153 1.139 0.459s0.393 0.716 0.393 1.229v2.459h-0.754v-2.344c0-0.743-0.33-1.115-0.991-1.115-0.312 0-0.566 0.126-0.763 0.377-0.196 0.246-0.295 0.533-0.295 0.861v2.221h-0.754v-5.868h0.754z" style="fill-rule:nonzero;fill:#fff"/>
 <path d="m29.255 59.271c-0.426 0-0.784-0.123-1.073-0.369-0.284-0.246-0.426-0.571-0.426-0.975 0-0.437 0.169-0.779 0.508-1.024 0.339-0.252 0.757-0.377 1.254-0.377 0.442 0 0.806 0.081 1.09 0.245v-0.114c0-0.295-0.101-0.53-0.303-0.705-0.203-0.18-0.451-0.271-0.746-0.271-0.219 0-0.418 0.052-0.599 0.156-0.174 0.104-0.295 0.246-0.36 0.426l-0.689-0.295c0.093-0.24 0.276-0.461 0.55-0.664 0.273-0.207 0.633-0.311 1.081-0.311 0.514 0 0.94 0.15 1.279 0.451 0.339 0.3 0.508 0.724 0.508 1.27v2.426h-0.721v-0.557h-0.033c-0.301 0.459-0.74 0.688-1.32 0.688zm0.123-0.688c0.312 0 0.593-0.115 0.845-0.345 0.256-0.235 0.385-0.51 0.385-0.827-0.213-0.175-0.533-0.263-0.959-0.263-0.366 0-0.642 0.08-0.828 0.238s-0.279 0.344-0.279 0.557c0 0.197 0.085 0.353 0.255 0.467 0.169 0.115 0.363 0.173 0.581 0.173z" style="fill-rule:nonzero;fill:#fff"/>
 <path d="m32.9 55.124v0.557h0.033c0.109-0.191 0.281-0.352 0.516-0.483 0.235-0.137 0.487-0.205 0.754-0.205 0.497 0 0.877 0.153 1.139 0.459 0.263 0.306 0.394 0.716 0.394 1.229v2.459h-0.754v-2.344c0-0.743-0.331-1.115-0.992-1.115-0.311 0-0.565 0.126-0.762 0.377-0.197 0.246-0.295 0.533-0.295 0.861v2.221h-0.754v-4.016h0.721z" style="fill-rule:nonzero;fill:#fff"/>
 <path d="m38.326 61.041c-0.475 0-0.863-0.12-1.163-0.36-0.301-0.235-0.517-0.506-0.648-0.812l0.689-0.287c0.076 0.219 0.216 0.402 0.418 0.55 0.207 0.147 0.442 0.221 0.704 0.221 0.416 0 0.741-0.126 0.976-0.377 0.24-0.246 0.36-0.582 0.36-1.008v-0.385h-0.032c-0.132 0.196-0.317 0.36-0.558 0.491-0.24 0.131-0.511 0.197-0.811 0.197-0.519 0-0.967-0.205-1.344-0.615-0.377-0.409-0.566-0.918-0.566-1.524s0.189-1.115 0.566-1.524c0.377-0.41 0.825-0.615 1.344-0.615 0.3 0 0.571 0.066 0.811 0.197 0.241 0.131 0.426 0.295 0.558 0.491h0.032v-0.557h0.722v3.811c0 0.688-0.2 1.21-0.599 1.565-0.399 0.361-0.885 0.541-1.459 0.541zm0.058-2.458c0.355 0 0.655-0.132 0.901-0.394 0.252-0.262 0.377-0.614 0.377-1.057s-0.125-0.795-0.377-1.057c-0.246-0.263-0.546-0.394-0.901-0.394-0.35 0-0.65 0.134-0.902 0.402-0.251 0.262-0.377 0.612-0.377 1.049s0.126 0.789 0.377 1.057c0.252 0.262 0.552 0.394 0.902 0.394z" style="fill-rule:nonzero;fill:#fff"/>
 <path d="m43.074 59.271c-0.606 0-1.101-0.202-1.483-0.606-0.377-0.405-0.566-0.916-0.566-1.533 0-0.585 0.183-1.087 0.549-1.508 0.372-0.421 0.845-0.631 1.418-0.631 0.596 0 1.071 0.194 1.426 0.582 0.361 0.388 0.541 0.907 0.541 1.557l-8e-3 0.139h-3.172c0.022 0.405 0.156 0.724 0.402 0.959 0.251 0.235 0.544 0.353 0.877 0.353 0.541 0 0.907-0.23 1.098-0.689l0.672 0.279c-0.131 0.311-0.347 0.573-0.647 0.787-0.301 0.207-0.67 0.311-1.107 0.311zm1.082-2.623c-0.016-0.229-0.123-0.448-0.32-0.655-0.191-0.208-0.478-0.312-0.86-0.312-0.279 0-0.522 0.088-0.73 0.263-0.202 0.174-0.341 0.409-0.417 0.704h2.327z" style="fill-rule:nonzero;fill:#fff"/>
 <path d="m21 16v1h22v-1h-22zm0 2v1h1v-1h-1zm4 3c-0.554 0-1 0.446-1 1s0.446 1 1 1 1-0.446 1-1-0.446-1-1-1zm3 0v1h11v-1h-11zm0 2v1h4v-1h-4zm-3 6c-0.554 0-1 0.446-1 1s0.446 1 1 1 1-0.446 1-1-0.446-1-1-1zm3 0v1h5v-1h-5zm0 2v1h7v-1h-7zm0 2v1h14v-1h-14zm-7 2v1h1v-1h-1zm0 2v1h22v-1h-22z" style="fill-rule:nonzero;fill:#3d434a;stroke-width:.4px;stroke:#3d434a"/>
 <defs>
  <linearGradient id="_Linear1" x2="1" gradientTransform="matrix(3.03829e-15,-49.619,49.619,3.03829e-15,104.99,51.088)" gradientUnits="userSpaceOnUse">
   <stop style="stop-color:#758b9a" offset="0"/>
   <stop style="stop-color:#b5bdc2" offset="1"/>
  </linearGradient>
 </defs>
</svg>
