<svg clip-rule="evenodd" fill-rule="evenodd" stroke-linejoin="round" stroke-miterlimit="2" viewBox="0 0 48 48" xmlns="http://www.w3.org/2000/svg">
 <linearGradient id="a" x2="1" gradientTransform="matrix(0 -37.2142 37.2142 0 133.41 38.316)" gradientUnits="userSpaceOnUse">
  <stop stop-color="#6d155e" offset="0"/>
  <stop stop-color="#7400c3" offset="1"/>
 </linearGradient>
 <path d="m40.5 2.359c0-.694-.563-1.257-1.258-1.257h-26.028c-1.515 0-2.969.602-4.041 1.673-1.071 1.072-1.673 2.525-1.673 4.04v33.972c0 1.515.602 2.968 1.673 4.04 1.072 1.071 2.526 1.673 4.041 1.673h21.573c1.515 0 2.968-.602 4.04-1.673 1.071-1.072 1.673-2.525 1.673-4.04v-38.427z" fill="url(#a)"/>
 <path d="m16.636 15.409c-1.631 0-2.945 1.277-2.945 2.864v11.454c0 1.587 1.314 2.864 2.945 2.864h14.728c1.631 0 2.945-1.277 2.945-2.864v-14.318h-2.945l1.472 2.864-1.472 2.863h-2.946l1.473-2.863-1.473-2.864h-2.945l1.472 2.864-1.472 2.863h-2.946l1.473-2.863-1.473-2.864h-2.945l1.473 2.864-1.473 2.863h-2.946l1.473-2.863z" fill="#813d9c" fill-rule="nonzero"/>
</svg>
