<svg clip-rule="evenodd" fill-rule="evenodd" stroke-linejoin="round" stroke-miterlimit="2" viewBox="0 0 48 48" xmlns="http://www.w3.org/2000/svg">
 <linearGradient id="a" x2="1" gradientTransform="matrix(0 -37.2142 37.2142 0 133.41 38.316)" gradientUnits="userSpaceOnUse">
  <stop stop-color="#5e1e9b" offset="0"/>
  <stop stop-color="#d07edd" offset="1"/>
 </linearGradient>
 <path d="m40.5 2.359c0-.694-.563-1.257-1.258-1.257h-26.028c-1.515 0-2.969.602-4.041 1.673-1.071 1.072-1.673 2.525-1.673 4.04v33.972c0 1.515.602 2.968 1.673 4.04 1.072 1.071 2.526 1.673 4.041 1.673h21.573c1.515 0 2.968-.602 4.04-1.673 1.071-1.072 1.673-2.525 1.673-4.04v-38.427z" fill="url(#a)"/>
 <path d="m29.551 13.332c-1.447.331-3.499.828-5.08 1.093l1.278 1.49zm1.816.1.942 3.609 2.624-1.159zm-.572.231-2.119 4.934 3.028-1.325zm-.706.067-3.936 2.682 1.85 2.185zm-6.122 1.059-2.389 4.04 3.667-2.517zm11.033 1.722-2.556 1.126.975 3.808zm-9.351.265-3.903 2.682 5.719-.53zm6.223 1.093-3.129 1.357 4.138 2.616zm-4.878 1.655-5.853.53 1.614 2.45zm1.615.265 1.042 4.073 3.095-1.457zm-1.211.199-4.306 3.013 1.816 2.748.068-.132v.033zm.639.099-2.456 5.696 3.499-1.656zm-7.401.298-3.666 6.192 5.281-3.708zm12.312 2.583-3.162 1.49 1.211 4.669zm-10.361.397-5.382 3.808 7.232-.993zm6.661 1.358-3.633 1.722 4.844 2.98zm-5.382 2.086-7.3.993 2.052 2.848zm1.715.232 1.547 4.668 3.331-1.655zm-.605.165-2.557 6.126h1.48l2.691-1.358zm-.673.033-5.315 3.908 1.547 2.185h1.111zm-8.241.895-3.062 5.198h1.951l3.163-2.318zm14.464 2.549-3.195 1.623.336 1.026h2.052zm-12.043.828-2.489 1.821h3.801zm8.275 1.06-1.513.761h1.783z" fill="#ffffff" fill-opacity=".5" fill-rule="nonzero"/>
</svg>
