<svg clip-rule="evenodd" fill-rule="evenodd" stroke-linejoin="round" stroke-miterlimit="2" viewBox="0 0 48 48" xmlns="http://www.w3.org/2000/svg">
 <linearGradient id="a" x2="1" gradientTransform="matrix(0 -37.2142 37.2142 0 133.41 38.316)" gradientUnits="userSpaceOnUse">
  <stop stop-color="#2a3740" offset="0"/>
  <stop stop-color="#6a7b85" offset="1"/>
 </linearGradient>
 <path d="m40.5 2.359c0-.694-.563-1.257-1.258-1.257h-26.028c-1.515 0-2.969.602-4.041 1.673-1.071 1.072-1.673 2.525-1.673 4.04v33.972c0 1.515.602 2.968 1.673 4.04 1.072 1.071 2.526 1.673 4.041 1.673h21.573c1.515 0 2.968-.602 4.04-1.673 1.071-1.072 1.673-2.525 1.673-4.04v-38.427z" fill="url(#a)"/>
 <path d="m15 26.89h.739c.532 4.89 2.542 5.911 7.182 5.911h8.158l-7.419-8.546c-.266-.293-.266-.469-.266-.469 0-.146.118-.293.207-.41l6.059-8.667h-6.827c-4.996 0-6.473 1.054-7.094 5.68h-.739l.828-6.588h16.404c.709 0 .768 0 .768.673l-7.36 10.601 7.035 7.935c.295.322.295.381.295.469 0 .322-.295.322-.738.322h-16.404z" fill="#ffffff" fill-opacity=".3" fill-rule="nonzero"/>
</svg>
