<svg style="clip-rule:evenodd;fill-rule:evenodd;stroke-linejoin:round;stroke-miterlimit:2" viewBox="0 0 64 64" xmlns="http://www.w3.org/2000/svg">
 <path d="m54 3.146c0-0.926-0.751-1.677-1.677-1.677h-34.705c-2.02 0-3.958 0.803-5.387 2.231-1.428 1.429-2.231 3.367-2.231 5.387v45.295c0 2.02 0.803 3.958 2.231 5.387 1.429 1.428 3.367 2.231 5.387 2.231h28.764c2.02 0 3.958-0.803 5.387-2.231 1.428-1.429 2.231-3.367 2.231-5.387v-51.236z" style="fill:url(#_Linear1)"/>
 <path d="m21.992 59.505c-0.047-0.102-0.081-0.25-0.101-0.445-0.136 0.143-0.305 0.266-0.508 0.371-0.203 0.101-0.435 0.152-0.696 0.152-0.432 0-0.778-0.121-1.039-0.363-0.26-0.242-0.39-0.539-0.39-0.891 0-0.453 0.172-0.797 0.515-1.031 0.344-0.237 0.806-0.356 1.387-0.356h0.715v-0.336c0-0.25-0.076-0.449-0.227-0.597-0.148-0.151-0.369-0.227-0.664-0.227-0.273 0-0.494 0.068-0.664 0.203-0.166 0.133-0.25 0.288-0.25 0.465h-0.722c0-0.302 0.152-0.586 0.457-0.851 0.304-0.266 0.712-0.399 1.222-0.399 0.459 0 0.835 0.117 1.129 0.352 0.295 0.234 0.442 0.588 0.442 1.062v1.969c0 0.141 0.011 0.29 0.035 0.449 0.026 0.159 0.064 0.296 0.113 0.41v0.063h-0.754zm-1.199-0.555c0.26 0 0.486-0.065 0.676-0.195 0.192-0.13 0.328-0.275 0.406-0.434v-0.871h-0.598c-0.862 0-1.293 0.261-1.293 0.781 0 0.201 0.068 0.372 0.204 0.512 0.135 0.138 0.337 0.207 0.605 0.207z" style="fill-rule:nonzero;fill:#fff"/>
 <path d="m26.469 59.505l-0.035-0.453c-0.289 0.354-0.692 0.531-1.207 0.531-0.498 0-0.9-0.203-1.207-0.609-0.305-0.407-0.458-0.918-0.458-1.536v-0.082c0-0.645 0.153-1.166 0.458-1.562 0.307-0.396 0.712-0.594 1.214-0.594 0.498 0 0.888 0.167 1.172 0.5v-2.195h0.727v6h-0.664zm-2.18-2.067c0 0.42 0.089 0.78 0.266 1.083 0.177 0.299 0.461 0.449 0.851 0.449 0.253 0 0.459-0.058 0.617-0.172 0.159-0.115 0.287-0.262 0.383-0.442v-1.945c-0.093-0.174-0.221-0.318-0.383-0.43-0.158-0.114-0.362-0.171-0.609-0.171-0.393 0-0.68 0.153-0.859 0.461-0.177 0.304-0.266 0.666-0.266 1.085v0.082z" style="fill-rule:nonzero;fill:#fff"/>
 <path d="m30.867 59.505c-0.047-0.102-0.081-0.25-0.101-0.445-0.136 0.143-0.305 0.266-0.508 0.371-0.203 0.101-0.435 0.152-0.696 0.152-0.432 0-0.778-0.121-1.039-0.363-0.26-0.242-0.39-0.539-0.39-0.891 0-0.453 0.172-0.797 0.515-1.031 0.344-0.237 0.806-0.356 1.387-0.356h0.715v-0.336c0-0.25-0.076-0.449-0.227-0.597-0.148-0.151-0.369-0.227-0.664-0.227-0.273 0-0.494 0.068-0.664 0.203-0.166 0.133-0.25 0.288-0.25 0.465h-0.722c0-0.302 0.152-0.586 0.457-0.851 0.304-0.266 0.712-0.399 1.222-0.399 0.459 0 0.835 0.117 1.129 0.352 0.295 0.234 0.442 0.588 0.442 1.062v1.969c0 0.141 0.011 0.29 0.035 0.449 0.026 0.159 0.064 0.296 0.113 0.41v0.063h-0.754zm-1.199-0.555c0.26 0 0.486-0.065 0.676-0.195 0.192-0.13 0.328-0.275 0.406-0.434v-0.871h-0.598c-0.862 0-1.293 0.261-1.293 0.781 0 0.201 0.068 0.372 0.204 0.512 0.135 0.138 0.337 0.207 0.605 0.207z" style="fill-rule:nonzero;fill:#fff"/>
 <path d="m37.063 58.384c-1e-3 -0.156-0.059-0.296-0.176-0.418-0.115-0.125-0.38-0.229-0.797-0.313-0.472-0.099-0.844-0.239-1.117-0.422-0.271-0.182-0.407-0.447-0.407-0.796 0-0.334 0.142-0.623 0.426-0.868 0.287-0.244 0.667-0.367 1.141-0.367 0.505 0 0.9 0.129 1.183 0.387 0.284 0.258 0.426 0.569 0.426 0.934h-0.722c0-0.175-0.077-0.339-0.231-0.493-0.154-0.156-0.372-0.234-0.656-0.234-0.3 0-0.515 0.065-0.645 0.195s-0.195 0.272-0.195 0.426c0 0.156 0.062 0.283 0.187 0.379 0.125 0.094 0.387 0.185 0.786 0.273 0.518 0.12 0.901 0.275 1.148 0.465s0.371 0.456 0.371 0.797c0 0.372-0.15 0.675-0.449 0.906-0.297 0.232-0.691 0.348-1.184 0.348-0.56 0-0.988-0.143-1.285-0.43-0.297-0.286-0.445-0.604-0.445-0.953h0.726c0.016 0.3 0.131 0.507 0.344 0.621 0.216 0.112 0.436 0.168 0.66 0.168 0.295 0 0.52-0.057 0.676-0.172 0.156-0.114 0.234-0.259 0.234-0.433z" style="fill-rule:nonzero;fill:#fff"/>
 <path d="m40.414 55.896c-0.247 0-0.45 0.055-0.609 0.167-0.159 0.11-0.278 0.257-0.356 0.442v3h-0.722v-4.227h0.703l0.015 0.485c0.107-0.172 0.243-0.309 0.407-0.41 0.166-0.102 0.365-0.153 0.597-0.153 0.136 0 0.242 0.018 0.321 0.055l-4e-3 0.672c-0.107-0.021-0.224-0.031-0.352-0.031z" style="fill-rule:nonzero;fill:#fff"/>
 <path d="m43.059 58.989c0.257 0 0.483-0.077 0.675-0.23 0.196-0.154 0.302-0.35 0.321-0.59h0.687c-0.018 0.378-0.191 0.708-0.519 0.992-0.328 0.281-0.716 0.422-1.164 0.422-0.636 0-1.108-0.21-1.418-0.629-0.308-0.419-0.461-0.913-0.461-1.48v-0.164c0-0.568 0.153-1.062 0.461-1.481 0.31-0.419 0.782-0.629 1.418-0.629 0.494 0 0.894 0.147 1.199 0.442 0.305 0.291 0.466 0.655 0.484 1.089h-0.687c-0.019-0.26-0.117-0.481-0.297-0.664-0.177-0.182-0.41-0.273-0.699-0.273-0.297 0-0.53 0.075-0.7 0.227-0.166 0.151-0.285 0.342-0.355 0.574-0.068 0.231-0.102 0.47-0.102 0.715v0.164c0 0.247 0.034 0.487 0.102 0.718 0.068 0.232 0.185 0.424 0.351 0.575 0.17 0.148 0.404 0.222 0.704 0.222z" style="fill-rule:nonzero;fill:#fff"/>
 <path d="m25.119 38h-3.225l8.207-22h3.762l8.243 22h-3.332l-2.581-6.92h-5.832c0.055-0.17 0.695-2.176 0.722-2.218l4.465-1e-3 -3.727-10.347-6.702 19.486z" style="fill:#fff"/>
 <defs>
  <linearGradient id="_Linear1" x2="1" gradientTransform="matrix(3.03829e-15,-49.619,49.619,3.03829e-15,104.99,51.088)" gradientUnits="userSpaceOnUse">
   <stop style="stop-color:#1c6c81" offset="0"/>
   <stop style="stop-color:#4697b5" offset="1"/>
  </linearGradient>
 </defs>
</svg>
