<svg clip-rule="evenodd" fill-rule="evenodd" stroke-linejoin="round" stroke-miterlimit="2" viewBox="0 0 48 48" xmlns="http://www.w3.org/2000/svg">
 <linearGradient id="a" x2="1" gradientTransform="matrix(0 -49.619 49.619 0 177.88 51.088)" gradientUnits="userSpaceOnUse">
  <stop stop-color="#a5a5a5" offset="0"/>
  <stop stop-color="#cfd7dd" offset="1"/>
 </linearGradient>
 <path transform="scale(.75)" d="m54 3.146c0-.926-.751-1.677-1.677-1.677h-34.705c-2.02 0-3.958.803-5.387 2.231-1.428 1.429-2.231 3.367-2.231 5.387v45.295c0 2.02.803 3.958 2.231 5.387 1.429 1.428 3.367 2.231 5.387 2.231h28.764c2.02 0 3.958-.803 5.387-2.231 1.428-1.429 2.231-3.367 2.231-5.387z" fill="url(#a)"/>
 <path transform="translate(-.000214 -6)" d="m26.032 27.305c.073.082.267.265.582.548 4.422 4.385 6.548 6.341 6.377 6.867-.123.387-.477.714-1.063.983-.585.254-1.112.369-1.581.345-.371-.019-2.134-1.367-5.289-5.045-.636-.771-1.01-1.206-1.121-1.306-.462.48-1.153 1.466-2.073 2.96-1.183 2.383-2.741 4.582-3.633 7.099-.272.882-.965 1.295-2.079 1.239-.586-.029-.946-.22-1.081-.573-.134-.352-.079-.899.165-1.641.468-1.485 2.719-5.087 6.753-10.808-.022-.252-.601-1.169-1.734-2.75s-2.032-2.778-2.699-3.393c-.721-.665-1.022-1.175-.901-1.53.273-.882 1.132-1.287 2.578-1.214.703.036 1.957 1.518 3.761 4.248.771 1.123 1.275 1.808 1.514 2.056.416-.372 1.009-1.057 1.779-2.055.771-1.014 1.304-1.836 1.6-2.465.292-.582.753-1.046 1.383-1.391.63-.346 1.229-.504 1.795-.476.879.044 1.198.43.955 1.156-.273.882-1.858 2.821-4.756 5.817-.756.779-1.167 1.222-1.232 1.329" fill="#f60" fill-rule="nonzero"/>
</svg>
