<svg style="clip-rule:evenodd;fill-rule:evenodd;stroke-linejoin:round;stroke-miterlimit:2" viewBox="0 0 48 48" xmlns="http://www.w3.org/2000/svg">
 <g transform="matrix(.75 0 0 .75 8.88178e-16 0)">
  <path d="m61.122 15.88c0-2.762-2.239-5-5-5h-48.244c-2.761 0-5 2.238-5 5v32.246c0 2.761 2.239 5 5 5h48.244c2.761 0 5-2.239 5-5v-32.246z" style="fill:rgb(88,105,115)"/>
  <path d="m61.122 20.652c0-1.326-0.527-2.598-1.465-3.536-0.938-0.937-2.209-1.464-3.535-1.464h-25.58c-1.232 0-2.42-0.455-3.337-1.277-0.768-0.689-1.713-1.535-2.481-2.224-0.917-0.822-2.105-1.277-3.337-1.277h-13.509c-1.326 0-2.597 0.527-3.535 1.465-0.938 0.937-1.465 2.209-1.465 3.535v32.252c0 2.761 2.239 5 5 5h48.244c2.761 0 5-2.239 5-5v-27.474z" style="fill:url(#_Linear1)"/>
 </g>
 <g transform="matrix(1.19103,0,0,1.19103,-4.58469,-9.17259)">
  <path d="m24 22c-1.51 3e-3 -2.978 0.494-4.186 1.4l1.432 1.432c0.817-0.541 1.774-0.83 2.754-0.832 2.419 0 4.437 1.718 4.9 4h-1.9l3 5 3-5h-2.08c-0.487-3.391-3.395-6-6.92-6zm-6 3-3 5h2.08c0.487 3.391 3.395 6 6.92 6 1.51-3e-3 2.978-0.494 4.186-1.4l-1.432-1.432c-0.817 0.541-1.774 0.83-2.754 0.832-2.419 0-4.437-1.718-4.9-4h1.9l-3-5z" style="fill-rule:nonzero;fill:url(#_Linear2)"/>
 </g>
 <defs>
  <linearGradient id="_Linear1" x2="1" gradientTransform="matrix(2.54933e-15,-41.6338,41.6338,2.54933e-15,897.879,52.7218)" gradientUnits="userSpaceOnUse">
   <stop style="stop-color:rgb(94,120,126)" offset="0"/>
   <stop style="stop-color:rgb(160,174,177)" offset="1"/>
  </linearGradient>
  <linearGradient id="_Linear2" x2="1" gradientTransform="matrix(1.0436e-15,-14.1398,17.0432,8.6581e-16,330.197,35.7777)" gradientUnits="userSpaceOnUse">
   <stop style="stop-color:rgb(72,94,101)" offset="0"/>
   <stop style="stop-color:rgb(100,125,131)" offset="1"/>
  </linearGradient>
 </defs>
</svg>
