<svg style="clip-rule:evenodd;fill-rule:evenodd;stroke-linejoin:round;stroke-miterlimit:2" viewBox="0 0 48 48" xmlns="http://www.w3.org/2000/svg">
 <g transform="scale(.75)">
  <path d="m61.122 15.88c0-2.762-2.239-5-5-5h-48.244c-2.761 0-5 2.238-5 5v32.246c0 2.761 2.239 5 5 5h48.244c2.761 0 5-2.239 5-5v-32.246z" style="fill:rgb(88,105,115)"/>
  <path d="m61.122 20.652c0-1.326-0.527-2.598-1.465-3.536-0.938-0.937-2.209-1.464-3.535-1.464h-25.58c-1.232 0-2.42-0.455-3.337-1.277-0.768-0.689-1.713-1.535-2.481-2.224-0.917-0.822-2.105-1.277-3.337-1.277h-13.509c-1.326 0-2.597 0.527-3.535 1.465-0.938 0.937-1.465 2.209-1.465 3.535v32.252c0 2.761 2.239 5 5 5h48.244c2.761 0 5-2.239 5-5v-27.474z" style="fill:url(#_Linear1)"/>
  <path d="m24.213 26.949c-0.962 0-1.92 0.194-2.813 0.57-0.892 0.376-1.707 0.932-2.395 1.633-0.686 0.701-1.24 1.54-1.614 2.463-0.375 0.922-0.567 1.918-0.567 2.92 0 1.001 0.192 1.997 0.567 2.92 0.374 0.922 0.928 1.758 1.614 2.46 0.688 0.7 1.503 1.256 2.395 1.633 0.872 0.368 1.808 0.557 2.748 0.565 0.023 2e-3 0.043 3e-3 0.065 3e-3 2.287 0.109 4.128-0.797 5.478-2.116 0.922-0.9 1.648-1.965 2.309-3.049 0.661 1.084 1.387 2.149 2.309 3.049 1.348 1.319 3.19 2.225 5.478 2.116 0.021 0 0.042-1e-3 0.065-3e-3 0.94-8e-3 1.875-0.197 2.747-0.565 0.892-0.377 1.708-0.933 2.394-1.633l7e-3 -0.01c0.685-0.7 1.236-1.53 1.609-2.45 0.375-0.923 0.567-1.919 0.567-2.92 0-1.002-0.192-1.998-0.567-2.92l-8e-3 -0.015c-0.376-0.916-0.922-1.749-1.608-2.448-0.686-0.701-1.502-1.256-2.394-1.633-0.891-0.376-1.85-0.568-2.812-0.568-2.41 0-4.312 0.989-5.718 2.368-0.812 0.796-1.47 1.706-2.069 2.637-0.597-0.931-1.256-1.841-2.068-2.637-1.405-1.379-3.308-2.368-5.719-2.368v-2e-3zm0.276 3.036c1.712 0 2.806 0.578 3.808 1.535 0.796 0.76 1.494 1.793 2.186 2.92-0.79 1.316-1.554 2.519-2.411 3.335-0.944 0.898-1.921 1.393-3.521 1.306h-0.062c-0.61 0-1.226-0.121-1.788-0.352-0.553-0.228-1.062-0.568-1.484-0.981l-0.018-0.015c-0.426-0.422-0.768-0.93-0.996-1.476-0.228-0.544-0.344-1.137-0.344-1.725 0-0.587 0.116-1.18 0.344-1.725 0.226-0.544 0.57-1.051 0.996-1.472l0.017-0.019c0.423-0.413 0.932-0.751 1.485-0.979 0.562-0.23 1.178-0.352 1.788-0.352zm15.022 0c0.609 0 1.225 0.122 1.786 0.352 0.554 0.228 1.063 0.564 1.486 0.979l0.017 0.017c0.425 0.423 0.768 0.928 0.996 1.474 0.228 0.542 0.344 1.136 0.344 1.724 0 0.586-0.116 1.18-0.344 1.725-0.227 0.544-0.571 1.053-0.995 1.476l-0.018 0.015c-0.422 0.413-0.931 0.753-1.484 0.981-0.562 0.231-1.178 0.352-1.788 0.352h-0.063c-1.599 0.087-2.576-0.408-3.52-1.307-0.859-0.814-1.621-2.018-2.411-3.334 0.692-1.127 1.39-2.16 2.184-2.919 1.004-0.96 2.098-1.536 3.81-1.536v1e-3zm-1.442 1.518v1.517h-1.517v3.035h1.517v1.518h3.036v-1.518h1.518v-3.035h-1.518v-1.517h-3.036zm-16.692 1.517v3.035h6.07v-3.035h-6.07z" style="fill-rule:nonzero;fill:url(#_Linear2)"/>
 </g>
 <defs>
  <linearGradient id="_Linear1" x2="1" gradientTransform="matrix(2.54933e-15,-41.6338,41.6338,2.54933e-15,897.879,52.7218)" gradientUnits="userSpaceOnUse">
   <stop style="stop-color:rgb(94,120,126)" offset="0"/>
   <stop style="stop-color:rgb(160,174,177)" offset="1"/>
  </linearGradient>
  <linearGradient id="_Linear2" x2="1" gradientTransform="matrix(1.70661e-15,-27.871,27.871,1.70661e-15,783.096,46.6104)" gradientUnits="userSpaceOnUse">
   <stop style="stop-color:rgb(72,94,101)" offset="0"/>
   <stop style="stop-color:rgb(100,125,131)" offset="1"/>
  </linearGradient>
 </defs>
</svg>
