<svg xmlns="http://www.w3.org/2000/svg" viewBox="0 0 16 16" clip-rule="evenodd" fill-rule="evenodd" stroke-linejoin="round" stroke-miterlimit="2">
 <defs>
  <style id="current-color-scheme" type="text/css">
   .ColorScheme-Text { color:#dfdfdf; } .ColorScheme-Highlight { color:#4285f4; } .ColorScheme-NeutralText { color:#ff9800; } .ColorScheme-PositiveText { color:#4caf50; } .ColorScheme-NegativeText { color:#f44336; }
  </style>
 </defs>
  <path style="fill:currentColor" class="ColorScheme-Text" transform="matrix(.566039 0 0 .566039 3.31036 4.16443)" d="m9.682 9.682v-3.481c0-.522.424-.945.946-.945s.945.423.945.945v3.481h3.482c.522 0 .945.424.945.946s-.423.945-.945.945h-3.482v3.482c0 .522-.423.945-.945.945s-.946-.423-.946-.945v-3.482h-3.481c-.522 0-.945-.423-.945-.945s.423-.946.945-.946z"/>
  <path style="fill:currentColor" class="ColorScheme-Text" transform="translate(-.21735 .410915)" d="m5.774 1.97c-.387 0-.758.154-1.031.428-.274.273-.427.644-.427 1.031v10.113c0 .806.653 1.459 1.458 1.459h7.321c.806 0 1.459-.653 1.459-1.459 0-2.673 0-8.087 0-8.087l-2.946-3.485zm.009.931c-.296 0-.537.241-.537.537v10.095c0 .297.241.537.537.537h7.303c.297 0 .537-.24.537-.537 0-1.843 0-7.801 0-7.801l-2.403-.024v-2.807zm4.646-1.239h-1.644v-.554h-5.436c-.297 0-.537.24-.537.537v10.095c0 .297.24.537.536.537h.427v.931h-.435c-.806 0-1.459-.653-1.459-1.459 0-2.507 0-7.606 0-10.113 0-.387.154-.758.427-1.031.274-.274.645-.428 1.032-.428h5.834z"/>
</svg>
