<svg style="clip-rule:evenodd;fill-rule:evenodd;stroke-linejoin:round;stroke-miterlimit:2" viewBox="0 0 16 16" xmlns="http://www.w3.org/2000/svg">
 <path d="m0.998 6.769v-3.298c0-1.365 1.108-2.473 2.473-2.473h9.058c1.365 0 2.473 1.108 2.473 2.473v9.058c0 1.365-1.108 2.473-2.473 2.473h-9.058c-1.365 0-2.473-1.108-2.473-2.473v-3.123h1v3.123c0 0.813 0.66 1.473 1.473 1.473h9.058c0.813 0 1.473-0.66 1.473-1.473v-9.058c0-0.813-0.66-1.473-1.473-1.473h-9.058c-0.813 0-1.473 0.66-1.473 1.473v3.298h-1z" fill="#dfdfdf"/>
 <g id="Down" transform="translate(.173806 -1.0205)">
  <path d="m8.199 8.503-2.892-2.973 1.005-0.399 3.775 3.889-3.775 3.89-1.005-0.399 2.892-2.973h-8.373v-1.035h8.373z" fill="#dfdfdf"/>
 </g>
</svg>
