<svg xmlns="http://www.w3.org/2000/svg" style="clip-rule:evenodd;fill-rule:evenodd;stroke-linejoin:round;stroke-miterlimit:2" viewBox="0 0 16 16">
 <defs>
  <style id="current-color-scheme" type="text/css">
   .ColorScheme-Text { color:#dfdfdf; } .ColorScheme-Highlight { color:#4285f4; } .ColorScheme-NeutralText { color:#ff9800; } .ColorScheme-PositiveText { color:#4caf50; } .ColorScheme-NegativeText { color:#f44336; }
  </style>
 </defs>
 <path style="fill:currentColor" class="ColorScheme-Text" d="m12.278 10v2.278h-2.278v1.444h2.278v2.278h1.444v-2.278h2.278v-1.444h-2.278v-2.278h-1.444z"/>
 <g transform="matrix(1 0 0 1.16456 0 -.610862)">
  <rect style="fill:currentColor" class="ColorScheme-Text" fill-opacity=".3" width="12.268" height="1.568" x="1.9" y="2.14"/>
 </g>
 <path style="fill:currentColor" class="ColorScheme-Text" d="m8.923 15.002h-5.452c-1.365 0-2.473-1.108-2.473-2.473v-9.058c0-1.365 1.108-2.473 2.473-2.473h9.058c1.365 0 2.473 1.108 2.473 2.473v5.402h-1v-5.402c0-0.813-0.66-1.473-1.473-1.473h-9.058c-0.813 0-1.473 0.66-1.473 1.473v9.058c0 0.813 0.66 1.473 1.473 1.473h5.452v1z"/>
</svg>
