<svg xmlns="http://www.w3.org/2000/svg" style="clip-rule:evenodd;fill-rule:evenodd;stroke-linejoin:round;stroke-miterlimit:2" viewBox="0 0 16 16">
 <defs>
  <style id="current-color-scheme" type="text/css">
   .ColorScheme-Text { color:#dfdfdf; } .ColorScheme-Highlight { color:#4285f4; } .ColorScheme-NeutralText { color:#ff9800; } .ColorScheme-PositiveText { color:#4caf50; } .ColorScheme-NegativeText { color:#f44336; }
  </style>
 </defs>
 <g transform="matrix(1 0 0 1.16456 0 -.610862)">
  <rect style="fill:currentColor" class="ColorScheme-Text" fill-opacity=".3" width="12.268" height="1.568" x="1.9" y="2.14"/>
 </g>
 <path style="fill:currentColor" class="ColorScheme-Text" d="m0.998 7.702v-4.231c0-1.365 1.108-2.473 2.473-2.473h9.058c1.365 0 2.473 1.108 2.473 2.473v9.058c0 1.365-1.108 2.473-2.473 2.473h-9.058c-1.365 0-2.473-1.108-2.473-2.473v-2.19h1v2.19c0 0.813 0.66 1.473 1.473 1.473h9.058c0.813 0 1.473-0.66 1.473-1.473v-9.058c0-0.813-0.66-1.473-1.473-1.473h-9.058c-0.813 0-1.473 0.66-1.473 1.473v4.231h-1z"/>
 <g id="Down" transform="translate(.173806)">
  <path style="fill:currentColor" class="ColorScheme-Text" d="m8.199 8.503-2.892-2.973 1.005-0.399 3.775 3.889-3.775 3.89-1.005-0.399 2.892-2.973h-8.373v-1.035h8.373z"/>
 </g>
</svg>
