<svg xmlns="http://www.w3.org/2000/svg" clip-rule="evenodd" fill-rule="evenodd" stroke-linejoin="round" stroke-miterlimit="2" viewBox="0 0 16 16">
 <defs>
  <style id="current-color-scheme" type="text/css">
   .ColorScheme-Text { color:#dfdfdf; } .ColorScheme-Highlight { color:#4285f4; } .ColorScheme-NeutralText { color:#ff9800; } .ColorScheme-PositiveText { color:#4caf50; } .ColorScheme-NegativeText { color:#f44336; }
  </style>
 </defs>
  <path style="fill:currentColor" class="ColorScheme-Text" d="m7 4v2h-2v2h2v2h2v-2h2v-2h-2v-2z"/>
  <path style="fill:currentColor" class="ColorScheme-Text" transform="translate(0 -.028003)" d="m3 2s-2 0-2 2v6c0 2 2 2 2 2h5l2 3 2-3h1s2 0 2-2v-6c0-2-2-2-2-2zm7 11.197 1.168-1.752c.185-.278.498-.445.832-.445h1s1 0 1-1v-6c0-1-1-1-1-1h-10s-1 0-1 1v6c0 1 1 1 1 1h5c.334 0 .647.167.832.445z"/>
</svg>
