<svg xmlns="http://www.w3.org/2000/svg" style="clip-rule:evenodd;fill-rule:evenodd;stroke-linejoin:round;stroke-miterlimit:2" viewBox="0 0 16 16">
 <defs>
  <style id="current-color-scheme" type="text/css">
   .ColorScheme-Text { color:#dfdfdf; } .ColorScheme-Highlight { color:#4285f4; } .ColorScheme-NeutralText { color:#ff9800; } .ColorScheme-PositiveText { color:#4caf50; } .ColorScheme-NegativeText { color:#f44336; }
  </style>
 </defs>
 <path style="fill:currentColor" class="ColorScheme-Text" d="m0 5v7h12l-12-7zm1.492 2.029 6.508 3.882h-6.508v-3.882z"/>
 <path style="fill:currentColor" class="ColorScheme-Text" d="m3.087 13c0.197 0.582 0.748 1.002 1.396 1.002h7.044c0.813 0 1.473-0.66 1.473-1.473v-9.058c0-0.813-0.66-1.473-1.473-1.473h-7.044c-0.813 0-1.473 0.66-1.473 1.473v2.107l-1.01-0.417 0.01-1.69c0-1.365 1.108-2.473 2.473-2.473h7.044c1.365 0 2.473 1.108 2.473 2.473v9.058c0 1.365-1.108 2.473-2.473 2.473h-7.044c-1.204 0-2.208-0.862-2.428-2.002h1.032z"/>
</svg>
