<svg xmlns="http://www.w3.org/2000/svg" style="clip-rule:evenodd;fill-rule:evenodd;stroke-linejoin:round;stroke-miterlimit:2" viewBox="0 0 16 16">
 <defs>
  <style id="current-color-scheme" type="text/css">
   .ColorScheme-Text { color:#dfdfdf; } .ColorScheme-Highlight { color:#4285f4; } .ColorScheme-NeutralText { color:#ff9800; } .ColorScheme-PositiveText { color:#4caf50; } .ColorScheme-NegativeText { color:#f44336; }
  </style>
 </defs>
 <g transform="matrix(-1 0 0 1 15.9998 -.002)">
  <path style="fill:currentColor" class="ColorScheme-Text" d="m2 6.551v-3.08c0-1.365 1.108-2.473 2.473-2.473h7.044c1.365 0 2.473 1.108 2.473 2.473v9.058c0 1.365-1.108 2.473-2.473 2.473h-7.044c-1.365 0-2.473-1.108-2.473-2.473v-2.924l1 1.071v1.853c0 0.813 0.66 1.473 1.473 1.473h7.044c0.813 0 1.473-0.66 1.473-1.473v-9.058c0-0.813-0.66-1.473-1.473-1.473h-7.044c-0.813 0-1.473 0.66-1.473 1.473v2.067l-1 1.013z"/>
 </g>
 <g transform="matrix(-1 0 0 1 20.0475 .002)">
  <path style="fill:currentColor" class="ColorScheme-Text" d="m13.931 7.48-6e-3 1.036h-6.298l2.892 2.972-1.005 0.399-3.775-3.89 3.775-3.888 1.005 0.399-2.892 2.973 6.304-1e-3z"/>
 </g>
</svg>
