<svg style="clip-rule:evenodd;fill-rule:evenodd;stroke-linejoin:round;stroke-miterlimit:2" viewBox="0 0 16 16" xmlns="http://www.w3.org/2000/svg">
 <rect x="5" y="5" width="6" height="6" fill-opacity=".3" fill="#dfdfdf"/>
 <path d="m1 13v1c0 0.981 1 1 1 1h1v-2h-2zm4 0v2h2v-2h-2zm4 0v2h2v-2h-2zm4 0v2h1s1-0.019 1-1v-1h-2zm-12-4v2h2v-2h-2zm12 0v2h2v-2h-2zm-12-4v2h2v-2h-2zm12 0v2h2v-2h-2zm-11-4s-1 0.019-1 1v1h2v-2h-1zm3 0v2h2v-2h-2zm4 0v2h2v-2h-2zm4 0v2h2v-1c0-0.981-1-1-1-1h-1z" fill="#dfdfdf"/>
</svg>
