<svg xmlns="http://www.w3.org/2000/svg" style="clip-rule:evenodd;fill-rule:evenodd;stroke-linejoin:round;stroke-miterlimit:2" viewBox="0 0 16 16">
 <defs>
  <style id="current-color-scheme" type="text/css">
   .ColorScheme-Text { color:#dfdfdf; } .ColorScheme-Highlight { color:#4285f4; } .ColorScheme-NeutralText { color:#ff9800; } .ColorScheme-PositiveText { color:#4caf50; } .ColorScheme-NegativeText { color:#f44336; }
  </style>
 </defs>
 <g transform="translate(.1685 -1.24566)">
  <path style="fill:currentColor" class="ColorScheme-Text" d="m2.725 12.045-1.062 2.888 3.007-0.933 6.75-6.75-1.945-1.955-6.75 6.75z"/>
 </g>
 <g transform="translate(.1685 -1.24566)">
  <path style="fill:currentColor" class="ColorScheme-Text" fill-opacity=".3" d="m13.79 4.89c0.28-0.28 0.28-0.73 0-1.01l-0.945-0.945c-0.29-0.28-0.73-0.28-1.01 0l-1.4 1.4 1.945 1.955 1.41-1.4z"/>
 </g>
 <path style="fill:currentColor" class="ColorScheme-Text" d="M12,6.487L12,6.5C11.998,7.612 11.424,8.983 10.903,9.738L14.697,13.283C14.891,13.471 15,13.73 15,14C15,14.549 14.549,15 14,15C13.728,15 13.467,14.889 13.279,14.693L9.741,10.907C8.985,11.427 7.613,12 6.5,12L6.487,12L7.775,10.712C9.173,10.284 10.284,9.173 10.712,7.775L12,6.487ZM2.575,10.337C1.603,9.343 1,7.986 1,6.5C1,3.483 3.483,1 6.5,1C7.986,1 9.343,1.603 10.337,2.575L9.563,3.349C8.769,2.576 7.686,2.097 6.5,2.097C4.084,2.097 2.097,4.084 2.097,6.5C2.097,7.686 2.576,8.769 3.349,9.563L2.575,10.337Z"/>
</svg>
