<svg xmlns="http://www.w3.org/2000/svg" style="clip-rule:evenodd;fill-rule:evenodd;stroke-linejoin:round;stroke-miterlimit:2" viewBox="0 0 16 16">
 <defs>
  <style id="current-color-scheme" type="text/css">
   .ColorScheme-Text { color:#dfdfdf; } .ColorScheme-Highlight { color:#4285f4; } .ColorScheme-NeutralText { color:#ff9800; } .ColorScheme-PositiveText { color:#4caf50; } .ColorScheme-NegativeText { color:#f44336; }
  </style>
 </defs>
 <path style="fill:currentColor" class="ColorScheme-Text" d="m3 3c-1.646 0-3 1.354-3 3s1.354 3 3 3 3-1.354 3-3-1.354-3-3-3zm9 0c-1.646 0-3 1.354-3 3s1.354 3 3 3c0.236-2e-3 0.472-0.031 0.701-0.088-0.541 1.231-1.766 2.088-3.201 2.088h-0.5v2h0.6c2.991 0 5.4-2.453 5.4-5.5v-1.5c0-1.646-1.354-3-3-3zm-9 1.325c0.919 0 1.675 0.756 1.675 1.675s-0.756 1.675-1.675 1.675-1.675-0.756-1.675-1.675 0.756-1.675 1.675-1.675zm9 0c0.919 0 1.675 0.756 1.675 1.675s-0.756 1.675-1.675 1.675-1.675-0.756-1.675-1.675 0.756-1.675 1.675-1.675z"/>
</svg>
