<svg xmlns="http://www.w3.org/2000/svg" style="clip-rule:evenodd;fill-rule:evenodd;stroke-linejoin:round;stroke-miterlimit:2" viewBox="0 0 16 16">
 <defs>
  <style id="current-color-scheme" type="text/css">
   .ColorScheme-Text { color:#dfdfdf; } .ColorScheme-Highlight { color:#4285f4; } .ColorScheme-NeutralText { color:#ff9800; } .ColorScheme-PositiveText { color:#4caf50; } .ColorScheme-NegativeText { color:#f44336; }
  </style>
 </defs>
 <g transform="matrix(20.4984,0,0,20.4984,2.72261,12.7351)">
  <path style="fill:currentColor" class="ColorScheme-Text" d="m0.288-0.43c0.112 0 0.165 0.096 0.135 0.199-0.021 0.073-0.105 0.199-0.223 0.199-0.112 0-0.152-0.1-0.123-0.202 0.027-0.097 0.105-0.196 0.211-0.196zm0.227-0.032h-0.045l-0.016 0.08h-2e-3c-0.039-0.058-0.091-0.09-0.162-0.09-0.139 0-0.223 0.115-0.258 0.238-0.037 0.13 0.029 0.244 0.169 0.244 0.068 0 0.151-0.034 0.185-0.093h2e-3l-0.019 0.083h0.045l0.101-0.462z"/>
 </g>
</svg>
