<svg style="clip-rule:evenodd;fill-rule:evenodd;stroke-linejoin:round;stroke-miterlimit:2" viewBox="0 0 16 16" xmlns="http://www.w3.org/2000/svg">
 <g transform="matrix(.406348 0 0 .406348 .685741 .685741)">
  <path d="m17.992 1-17.992 14.05 2.304 2.947 1.071-0.835v17.838h29.244v-17.877l1.095 0.851 2.286-2.932-18.008-14.042zm8e-3 4.218 12.618 9.906v17.877h-9.272v-9.718h-6.697v9.718h-9.273v-17.838l12.624-9.945z" style="fill-rule:nonzero;fill:rgb(204,204,204)"/>
 </g>
 <g transform="matrix(.406348 0 0 .406348 .685741 .685741)">
  <path d="m26.257 3.044c-0.194 0-0.351 0.156-0.351 0.351v1.239l5.321 4.15v-5.389c0-0.195-0.157-0.351-0.352-0.351h-4.618z" style="fill-rule:nonzero;fill:rgb(204,204,204)"/>
 </g>
 <g transform="matrix(.406348 0 0 .406348 .685741 .685741)">
  <path d="m18 5.219-12.623 9.943v17.84h9.273v-9.719h6.696v9.719h9.273v-17.879l-12.619-9.904zm-3.375 6.732h6.75v6.748h-6.75v-6.748z" style="fill-opacity:.1;fill-rule:nonzero;fill:rgb(204,204,204)"/>
 </g>
 <g transform="matrix(.406348 0 0 .406348 .685741 .685741)">
  <path d="m14.625 11.951v6.748h6.75v-6.748h-6.75zm1.375 1.375h4v4h-4v-4z" style="fill-opacity:.55;fill-rule:nonzero;fill:rgb(204,204,204)"/>
 </g>
</svg>
