<svg xmlns="http://www.w3.org/2000/svg" style="clip-rule:evenodd;fill-rule:evenodd;stroke-linejoin:round;stroke-miterlimit:2" viewBox="0 0 16 16">
 <defs>
  <style id="current-color-scheme" type="text/css">
   .ColorScheme-Text { color:#dfdfdf; } .ColorScheme-Highlight { color:#4285f4; } .ColorScheme-NeutralText { color:#ff9800; } .ColorScheme-PositiveText { color:#4caf50; } .ColorScheme-NegativeText { color:#f44336; }
  </style>
 </defs>
 <rect style="fill:currentColor" class="ColorScheme-Text" width="6" height="2" x="5" y="7"/>
 <path style="fill:currentColor" class="ColorScheme-Text" d="m7 3v1h-2c-2.208 0-4 1.792-4 4s1.792 4 4 4h2v1h-2c-2.76 0-5-2.24-5-5s2.24-5 5-5h2zm2 0h2c2.76 0 5 2.24 5 5s-2.24 5-5 5h-2v-1h2c2.208 0 4-1.792 4-4s-1.792-4-4-4h-2v-1z"/>
</svg>
