<svg xmlns="http://www.w3.org/2000/svg" style="clip-rule:evenodd;fill-rule:evenodd;stroke-linejoin:round;stroke-miterlimit:2" viewBox="0 0 16 16">
 <defs>
  <style id="current-color-scheme" type="text/css">
   .ColorScheme-Text { color:#dfdfdf; } .ColorScheme-Highlight { color:#4285f4; } .ColorScheme-NeutralText { color:#ff9800; } .ColorScheme-PositiveText { color:#4caf50; } .ColorScheme-NegativeText { color:#f44336; }
  </style>
 </defs>
 <path style="fill:currentColor" class="ColorScheme-Text" fill-opacity=".3" d="m15.2 3.183-5.878 5.831-1.342 0.541-1.242-0.483-5.938-5.889v8.97h14.4v-8.97z"/>
 <g transform="matrix(.4 1.47911e-32 4.93038e-33 .4 -223.72 -151.017)">
  <path style="fill:currentColor" class="ColorScheme-Text" d="m563.766 383.5c-2.466 0-4.466 2-4.466 4.466v17.068c0 2.466 2 4.466 4.466 4.466h31.068c2.466 0 4.466-2 4.466-4.466v-17.068c0-2.466-2-4.466-4.466-4.466h-31.068zm18.934 15.9c-0.9 0.9-2.1 1.4-3.4 1.4s-2.5-0.5-3.4-1.4l-13.9-13.9h34.5l-13.8 13.9zm-11.1-2.9-10.3 10.3v-20.6l10.3 10.3zm0.7 0.7 2.9 2.9c1.1 1.1 2.6 1.7 4.1 1.7 1.6 0 3-0.6 4.1-1.7l2.9-2.9 10.3 10.3h-34.6l10.3-10.3zm14.7-0.7 10.3-10.3v20.7l-10.3-10.4z"/>
 </g>
</svg>
