<svg xmlns="http://www.w3.org/2000/svg" style="clip-rule:evenodd;fill-rule:evenodd;stroke-linejoin:round;stroke-miterlimit:2" viewBox="0 0 16 16">
 <defs>
  <style id="current-color-scheme" type="text/css">
   .ColorScheme-Text { color:#dfdfdf; } .ColorScheme-Highlight { color:#4285f4; } .ColorScheme-NeutralText { color:#ff9800; } .ColorScheme-PositiveText { color:#4caf50; } .ColorScheme-NegativeText { color:#f44336; }
  </style>
 </defs>
 <g transform="matrix(-1,0,0,1,16.1024,0)">
  <path style="fill:currentColor" class="ColorScheme-Text" d="m16 4v8h-2v-8h2z"/>
 </g>
 <g transform="matrix(-1.06846 0 0 1.06846 15.8976 -.547648)">
  <path style="fill:currentColor" class="ColorScheme-Text" d="m6.186 7.535c0.167 0.095 0.27 0.273 0.27 0.465s-0.103 0.37-0.27 0.465c-1.352 0.773-4.041 2.309-5.384 3.077-0.166 0.095-0.37 0.094-0.535-2e-3s-0.267-0.273-0.267-0.464v-6.152c0-0.191 0.102-0.368 0.267-0.464s0.369-0.097 0.535-2e-3c1.343 0.768 4.032 2.304 5.384 3.077z"/>
 </g>
 <g transform="matrix(-1.06846 0 0 1.06846 9 -.547648)">
  <path style="fill:currentColor" class="ColorScheme-Text" d="m6.186 7.535c0.167 0.095 0.27 0.273 0.27 0.465s-0.103 0.37-0.27 0.465c-1.352 0.773-4.041 2.309-5.384 3.077-0.166 0.095-0.37 0.094-0.535-2e-3s-0.267-0.273-0.267-0.464v-6.152c0-0.191 0.102-0.368 0.267-0.464s0.369-0.097 0.535-2e-3c1.343 0.768 4.032 2.304 5.384 3.077z"/>
 </g>
</svg>
