<svg xmlns="http://www.w3.org/2000/svg" style="clip-rule:evenodd;fill-rule:evenodd;stroke-linejoin:round;stroke-miterlimit:2" viewBox="0 0 16 16">
 <defs>
  <style id="current-color-scheme" type="text/css">
   .ColorScheme-Text { color:#dfdfdf; } .ColorScheme-Highlight { color:#4285f4; } .ColorScheme-NeutralText { color:#ff9800; } .ColorScheme-PositiveText { color:#4caf50; } .ColorScheme-NegativeText { color:#f44336; }
  </style>
 </defs>
 <path style="fill:currentColor" class="ColorScheme-Text" fill-opacity=".3" d="M12.49,8C12.87,8 13.24,8.063 13.6,8.154L16,6.203L10.12,5.887L8,0.393L5.88,5.887L0,6.203L4.57,9.918L3.05,15.609L8,12.41C8.05,9.98 10.05,8 12.49,8Z"/>
 <path style="fill:currentColor" class="ColorScheme-Text" d="m12.5 9c-1.93 0-3.5 1.567-3.5 3.5s1.57 3.5 3.5 3.5 3.5-1.567 3.5-3.5-1.57-3.5-3.5-3.5zm-0.5 1h1v2h2v1h-2v2h-1v-2h-2v-1h2v-2z"/>
</svg>
