<svg clip-rule="evenodd" fill-rule="evenodd" stroke-linejoin="round" stroke-miterlimit="2" viewBox="0 0 16 16" xmlns="http://www.w3.org/2000/svg">
 <g fill="#dfdfdf">
  <path d="m9.428 11.062s.735-1.586.873-1.952c1.409.074 2.485.371 3.271.707.902.386 1.414 2.231 1.663 3.484.078.272.024.565-.146.791s-.45.273-.72.359c-2.183.701-7.406.722-9.793.039-.293-.084-.592-.148-.768-.398s-.22-.569-.117-.857c.359-1.209.96-2.946 1.789-3.379.73-.382 1.718-.631 3.001-.724z" fill-opacity=".5"/>
  <path d="m9.456 2.731c1.339 0 2.595 1.247 2.419 2.763-.176 1.52-1.08 2.764-2.419 2.764-1.338 0-2.194-1.188-2.418-2.764-.216-1.51 1.08-2.763 2.418-2.763z"/>
  <path d="m6.21 9.023c-.358.111-.678.242-.962.39-.402.21-.778.658-1.091 1.232-.401.737-.718 1.685-.942 2.439l-.007.019c-.642-.08-1.219-.187-1.687-.321-.293-.084-.592-.148-.768-.398s-.22-.569-.117-.857c.359-1.209.96-2.946 1.789-3.379.73-.382 1.718-.631 3.001-.724zm1.008-1.55c.326.501.752.881 1.26 1.093.299.125.17.053-.033.067-.707.052-1.329.149-1.873.288.209-.456.525-1.149.646-1.448zm-.453-.955c-.117.021-.239.032-.364.032-1.338 0-2.194-1.188-2.418-2.764-.216-1.51 1.08-2.763 2.418-2.763.888 0 1.74.549 2.161 1.361-1.242.428-2.23 1.703-2.019 3.181.048.336.123.656.222.953z" fill-opacity=".5"/>
 </g>
</svg>
