<svg xmlns="http://www.w3.org/2000/svg" style="clip-rule:evenodd;fill-rule:evenodd;stroke-linejoin:round;stroke-miterlimit:2" viewBox="0 0 16 16">
 <defs>
  <style id="current-color-scheme" type="text/css">
   .ColorScheme-Text { color:#dfdfdf; } .ColorScheme-Highlight { color:#4285f4; } .ColorScheme-NeutralText { color:#ff9800; } .ColorScheme-PositiveText { color:#4caf50; } .ColorScheme-NegativeText { color:#f44336; }
  </style>
 </defs>
 <g transform="matrix(1.18314,0,0,1.15419,-1.50032,-1.62248)">
  <path style="fill-opacity:.5;fill:currentColor;" class="ColorScheme-Text" d="m12.814 8.746c0-0.412-0.326-0.746-0.727-0.746h-8.114c-0.401 0-0.727 0.334-0.727 0.746v4.583c0 0.411 0.326 0.745 0.727 0.745h8.114c0.401 0 0.727-0.334 0.727-0.745v-4.583z"/>
 </g>
 <path style="fill:currentColor;" class="ColorScheme-Text" d="m8 1c-2.216 0-4 1.784-4 4v2h-1c-0.554 0-1 0.446-1 1v6c0 0.554 0.446 1 1 1h10c0.554 0 1-0.446 1-1v-6c0-0.554-0.446-1-1-1h-1v-2c0-2.216-1.784-4-4-4zm5.246 7.141c0-0.168-0.137-0.305-0.305-0.305h-9.882c-0.168 0-0.305 0.137-0.305 0.305v5.812c0 0.168 0.137 0.305 0.305 0.305h9.882c0.168 0 0.305-0.137 0.305-0.305v-5.812zm-5.246-5.141c1.108 0 2 0.892 2 2v2h-4v-2c0-1.108 0.892-2 2-2z"/>
</svg>
