<svg clip-rule="evenodd" fill-rule="evenodd" stroke-linejoin="round" stroke-miterlimit="2" viewBox="0 0 16 16" xmlns="http://www.w3.org/2000/svg">
 <g fill="#dfdfdf">
  <path d="m3.082.74h2.844v1.037h1.037v1.037h-1.037v1.037h1.037v1.038h-1.037v1.037h1.037v1.037h-1.037v1.037h1.037v1.037h-1.037v1.037h1.037v1.037h-1.037v1.038h1.037v1.037h-1.037v1.037h1.037v1.037h-3.881c-1.293 0-2.342-1.049-2.342-2.342v-9.836c0-1.293 1.049-2.342 2.342-2.342zm3.881 0h1.037v1.037h-1.037zm2.074 0h1.037v1.037h-1.037zm2.074 14.52h-1.037v-1.037h1.037zm-2.074 0h-1.037v-1.037h1.037zm-1.037-13.483h1.037v1.037h-1.037zm2.074 0h1.037v1.037h-1.037zm0 1.037v1.037h-1.037v-1.037zm0 1.037h1.037v1.038h-1.037zm0 1.038v1.037h-1.037v-1.037zm0 1.037h1.037v1.037h-1.037zm0 1.037v1.037h-1.037v-1.037zm0 1.037h1.037v1.037h-1.037zm0 1.037v1.037h-1.037v-1.037zm0 1.037h1.037v1.037h-1.037zm0 1.037v1.038h-1.037v-1.038zm0 1.038h1.037v1.037h-1.037zm0 1.037v1.037h-1.037v-1.037zm-2.074 1.037h-1.037v-1.037h1.037zm-1.037-11.409h1.037v1.037h-1.037zm0 2.075h1.037v1.037h-1.037zm1.037 0v-1.038h1.037v1.038zm-1.037 2.074h1.037v1.037h-1.037zm1.037 0v-1.037h1.037v1.037zm-1.037 2.074h1.037v1.037h-1.037zm1.037 0v-1.037h1.037v1.037zm-1.037 2.074h1.037v1.038h-1.037zm1.037 0v-1.037h1.037v1.037zm0 2.075v-1.037h1.037v1.037z"/>
  <path d="m12.918 15.26h-1.807v-14.52h1.807c1.293 0 2.342 1.049 2.342 2.342v9.836c0 1.293-1.049 2.342-2.342 2.342z" fill-opacity=".3"/>
 </g>
</svg>
