<svg xmlns="http://www.w3.org/2000/svg" viewBox="0 0 16 16">
 <defs>
  <style id="current-color-scheme" type="text/css">
   .ColorScheme-Text { color:#dfdfdf; } .ColorScheme-Highlight { color:#4285f4; } .ColorScheme-NeutralText { color:#ff9800; } .ColorScheme-PositiveText { color:#4caf50; } .ColorScheme-NegativeText { color:#f44336; }
  </style>
 </defs>
 <path style="fill:currentColor" class="ColorScheme-Text" d="m3.512 1.812-.674 2.039-2.037.672 2.037.674.674 2.039.674-2.039 2.039-.674-2.039-.672zm7.035-.045-.201.612-.612.203.612.201.201.611.203-.611.611-.201-.611-.203zm-3.055-.902-.402 1.223-1.225.404 1.225.404.402 1.223.404-1.223 1.225-.404-1.225-.404zm6.748 2.729c-.328-.328-.86-.328-1.188 0-2.241 2.241-10.052 10.052-10.052 10.052l1.354 1.354s7.81-7.811 10.052-10.052c.157-.158.246-.372.246-.594 0-.223-.089-.437-.247-.595-.054-.055-.11-.11-.165-.165z"/>
</svg>
