<svg xmlns="http://www.w3.org/2000/svg" style="clip-rule:evenodd;fill-rule:evenodd;stroke-linejoin:round;stroke-miterlimit:2" viewBox="0 0 16 16">
 <defs>
  <style id="current-color-scheme" type="text/css">
   .ColorScheme-Text { color:#dfdfdf; } .ColorScheme-Highlight { color:#4285f4; } .ColorScheme-NeutralText { color:#ff9800; } .ColorScheme-PositiveText { color:#4caf50; } .ColorScheme-NegativeText { color:#f44336; }
  </style>
 </defs>
 <g transform="matrix(.900744 0 0 .900744 1.24442 -.0533499)">
  <path style="fill:currentColor" class="ColorScheme-Text" d="m9 4.5c0 0.823-0.677 1.5-1.5 1.5s-1.5-0.677-1.5-1.5 0.677-1.5 1.5-1.5 1.5 0.677 1.5 1.5z"/>
 </g>
 <g transform="matrix(.900744 0 0 .900744 1.24442 3.94665)">
  <path style="fill:currentColor" class="ColorScheme-Text" d="m9 4.5c0 0.823-0.677 1.5-1.5 1.5s-1.5-0.677-1.5-1.5 0.677-1.5 1.5-1.5 1.5 0.677 1.5 1.5z"/>
 </g>
 <g transform="matrix(.900744 0 0 .900744 1.24442 7.94665)">
  <path style="fill:currentColor" class="ColorScheme-Text" d="m9 4.5c0 0.823-0.677 1.5-1.5 1.5s-1.5-0.677-1.5-1.5 0.677-1.5 1.5-1.5 1.5 0.677 1.5 1.5z"/>
 </g>
</svg>
