<svg xmlns="http://www.w3.org/2000/svg" style="clip-rule:evenodd;fill-rule:evenodd;stroke-linejoin:round;stroke-miterlimit:2" viewBox="0 0 16 16">
 <defs>
  <style id="current-color-scheme" type="text/css">
   .ColorScheme-Text { color:#dfdfdf; } .ColorScheme-Highlight { color:#4285f4; } .ColorScheme-NeutralText { color:#ff9800; } .ColorScheme-PositiveText { color:#4caf50; } .ColorScheme-NegativeText { color:#f44336; }
  </style>
 </defs>
 <path style="fill:currentColor" class="ColorScheme-Text" d="m6.179 2v12h0.781v-12h-0.781zm-4.179 1v1h2v-1h-2zm7 0v2h2v-2h-2zm4 0v2h2v-2h-2zm-11 3v1h2v-1h-2zm7 1v2h2v-2h-2zm4 0v2h2v-2h-2zm-11 2v1h2v-1h-2zm7 2v2h2v-2h-2zm4 0v2h2v-2h-2zm-11 1v1h2v-1h-2z"/>
</svg>
