<svg xmlns="http://www.w3.org/2000/svg" style="clip-rule:evenodd;fill-rule:evenodd;stroke-linejoin:round;stroke-miterlimit:2" viewBox="0 0 16 16">
 <defs>
  <style id="current-color-scheme" type="text/css">
   .ColorScheme-Text { color:#dfdfdf; } .ColorScheme-Highlight { color:#4285f4; } .ColorScheme-NeutralText { color:#ff9800; } .ColorScheme-PositiveText { color:#4caf50; } .ColorScheme-NegativeText { color:#f44336; }
  </style>
 </defs>
 <g id="Arrow-Left-Icon" transform="matrix(2.83127e-17 -.462382 .462382 2.83127e-17 -1455.09 198.512)">
  <path style="fill:currentColor" class="ColorScheme-Text" d="m423.5 3169.99h-17.368l6.41 6.41c0.593 0.59 0.593 1.55 0 2.14-0.593 0.6-1.554 0.6-2.147 0l-8.953-8.94c-0.304-0.31-0.45-0.71-0.442-1.11-8e-3 -0.4 0.138-0.8 0.442-1.1l8.953-8.95c0.593-0.59 1.554-0.59 2.147 0s0.593 1.56 0 2.15l-6.41 6.4h17.368c0.829 0 1.5 0.67 1.5 1.5s-0.671 1.5-1.5 1.5z"/>
 </g>
 <g transform="matrix(6.12323e-17 1 -1 6.12323e-17 15.9988 -.548306)">
  <path style="fill:currentColor" class="ColorScheme-Text" d="m4.048 12.148c0.742 0 1.351 0.61 1.351 1.351s-0.609 1.351-1.351 1.351c-0.741 0-1.351-0.61-1.351-1.351s0.61-1.351 1.351-1.351zm4 0c0.742 0 1.351 0.61 1.351 1.351s-0.609 1.351-1.351 1.351c-0.741 0-1.351-0.61-1.351-1.351s0.61-1.351 1.351-1.351zm4 0c0.742 0 1.351 0.61 1.351 1.351s-0.609 1.351-1.351 1.351c-0.741 0-1.351-0.61-1.351-1.351s0.61-1.351 1.351-1.351z"/>
 </g>
</svg>
