<svg style="clip-rule:evenodd;fill-rule:evenodd;stroke-linejoin:round;stroke-miterlimit:2" viewBox="0 0 16 16" xmlns="http://www.w3.org/2000/svg">
 <path d="m7.995 7.08 3.223-3.259c0.252-0.255 0.664-0.257 0.919-5e-3s0.258 0.664 5e-3 0.919l-3.232 3.269 3.232 3.269c0.253 0.255 0.25 0.667-5e-3 0.919-0.255 0.253-0.667 0.25-0.919-5e-3l-3.223-3.258-3.222 3.258c-0.253 0.255-0.664 0.258-0.92 5e-3 -0.255-0.252-0.257-0.664-5e-3 -0.919l3.233-3.269-3.233-3.269c-0.252-0.255-0.25-0.667 5e-3 -0.919 0.256-0.252 0.667-0.25 0.92 5e-3l3.222 3.259z" fill="#dfdfdf"/>
</svg>
