<svg xmlns="http://www.w3.org/2000/svg" width="16" height="16" viewBox="0 0 16 16">
 <defs>
  <style id="current-color-scheme" type="text/css">
   .ColorScheme-Text { color:#444444; } .ColorScheme-Highlight { color:#4285f4; } .ColorScheme-NeutralText { color:#ff9800; } .ColorScheme-PositiveText { color:#4caf50; } .ColorScheme-NegativeText { color:#f44336; }
  </style>
 </defs>
 <path style="fill:currentColor;" class="ColorScheme-NegativeText" d="M5.797,3.841c-1.314,-0.046 -2.641,0.668 -3.279,2.005c-0.893,1.872 -0.15,4.094 1.663,4.976c0.278,0.136 0.695,0.274 0.929,0.306l0,-0.003c0.83,0.115 1.607,-0.042 2.283,-0.467c0.446,-0.28 0.933,-0.731 0.933,-0.869c0,-0.047 -0.097,-0.305 -0.217,-0.581l-0.215,-0.501l-0.109,0.181c-0.209,0.348 -0.724,0.814 -1.107,1.004c-0.335,0.162 -0.479,0.189 -1.041,0.189c-0.585,0 -0.698,-0.024 -1.064,-0.212c-0.508,-0.261 -0.97,-0.743 -1.205,-1.267c-0.155,-0.344 -0.177,-0.493 -0.177,-1.119c0,-0.657 0.015,-0.761 0.2,-1.139c0.224,-0.465 0.697,-0.973 1.121,-1.199c0.436,-0.232 1.103,-0.33 1.583,-0.226c0.946,0.206 1.515,0.728 1.957,1.794c1.065,2.573 1.397,3.278 1.725,3.654c0.488,0.558 0.878,0.722 1.747,0.724c0.61,0 0.737,-0.024 1.111,-0.204c0.82,-0.397 1.233,-1.066 1.224,-1.997c-0.008,-1.076 -0.451,-1.544 -1.954,-2.059c-1.09,-0.374 -1.31,-0.558 -1.31,-1.102c0,-0.546 0.345,-0.884 0.899,-0.884c0.321,0 0.501,0.082 0.769,0.343c0.132,0.129 0.228,0.168 0.344,0.138c0.217,-0.061 0.609,-0.319 0.609,-0.404c0,-0.173 -0.676,-0.779 -0.999,-0.895c-0.756,-0.267 -1.608,-0.091 -2.103,0.446c-0.345,0.376 -0.48,0.741 -0.48,1.285c0.002,1.02 0.497,1.526 2.031,2.088c1.008,0.363 1.204,0.545 1.204,1.116c0,0.674 -0.549,1.159 -1.318,1.159c-0.469,0 -0.715,-0.088 -0.979,-0.349c-0.247,-0.246 -0.386,-0.534 -1.147,-2.375c-0.729,-1.761 -0.944,-2.158 -1.428,-2.624c-0.628,-0.604 -1.412,-0.905 -2.2,-0.932Z"/>
</svg>