<svg xmlns="http://www.w3.org/2000/svg" style="fill-rule:evenodd;clip-rule:evenodd;stroke-linejoin:round;stroke-miterlimit:2" width="100%" height="100%" viewBox="0 0 16 16" xml:space="preserve">
 <defs>
  <style id="current-color-scheme" type="text/css">
   .ColorScheme-Text { color:#444444; } .ColorScheme-Highlight { color:#4285f4; } .ColorScheme-NeutralText { color:#ff9800; } .ColorScheme-PositiveText { color:#4caf50; } .ColorScheme-NegativeText { color:#f44336; }
  </style>
 </defs>
 <path style="fill:currentColor;" class="ColorScheme-Text" d="M11.97,15.449c0.777,-0.401 1.501,-0.931 2.139,-1.589c0.638,-0.659 1.144,-1.399 1.52,-2.189l-0.91,-0.881c-0.332,0.814 -0.82,1.577 -1.465,2.242c-0.644,0.665 -1.391,1.177 -2.193,1.535l0.909,0.882Z"/>
 <path style="fill:currentColor;" class="ColorScheme-Text" d="M8,1c-3.84,0 -7,3.16 -7,7c0,3.84 3.16,7 7,7c3.84,0 7,-3.16 7,-7c0,-3.84 -3.16,-7 -7,-7Zm0,1c3.292,0 6,2.708 6,6c0,3.292 -2.708,6 -6,6c-3.292,0 -6,-2.708 -6,-6c-0,-3.292 2.708,-6 6,-6Z"/>
 <path style="fill:currentColor;" class="ColorScheme-Text" d="M11.97,0.564c0.777,0.401 1.501,0.931 2.139,1.589c0.638,0.659 1.144,1.399 1.52,2.188l-0.91,0.881c-0.332,-0.813 -0.82,-1.576 -1.465,-2.241c-0.644,-0.666 -1.391,-1.178 -2.193,-1.536l0.909,-0.881Z"/>
 <path style="fill:currentColor;" class="ColorScheme-Text" d="M7.468,4.984l-1.98,0l-0,6.032l1.98,-0l-0,-6.032Zm3.044,0l-1.98,0l0,6.032l1.98,-0l0,-6.032Z"/>
</svg>
