<svg xmlns="http://www.w3.org/2000/svg" width="16" height="16" viewBox="0 0 16 16">
 <defs>
  <style id="current-color-scheme" type="text/css">
   .ColorScheme-Text { color:#444444; } .ColorScheme-Highlight { color:#5294e2; }
  </style>
 </defs>
    <path style="fill:currentColor" class="ColorScheme-Text" d="m 12.446,3.2920001 c 0.757,0 1.514,0 2.271,0 0,0.7569999 0,1.5139999 0,2.2709999 -0.757,0 -1.514,0 -2.271,0 0,-0.757 0,-1.514 0,-2.2709999 z m -6.913,0 c 0.7573334,0 1.5146667,0 2.2720001,0 0,0.7569999 0,1.5139999 0,2.2709999 -0.7573334,0 -1.5146667,0 -2.2720001,0 0,-0.757 0,-1.514 0,-2.2709999 z m 3.4779997,0 c 0.7569999,0 1.5140003,0 2.2710003,0 0,0.7569999 0,1.5139999 0,2.2709999 -0.757,0 -1.5140004,0 -2.2710003,0 0,-0.757 0,-1.514 0,-2.2709999 z m -6.9679997,0 c 0.7573333,0 1.5146667,0 2.2720001,0 0,0.7569999 0,1.5139999 0,2.2709999 -0.7573334,0 -1.5146668,0 -2.2720001,0 0,-0.757 0,-1.514 0,-2.2709999 z M 8.9954079,6.506 c 0.757,0 1.5140001,0 2.2710001,0 0,0.757 0,1.514 0,2.271 -0.757,0 -1.5140001,0 -2.2710001,0 0,-0.757 0,-1.514 0,-2.271 z m 3.4505921,0 c 0.757,0 1.514,0 2.271,0 0,0.757 0,1.514 0,2.271 -0.757,0 -1.514,0 -2.271,0 0,-0.757 0,-1.514 0,-2.271 z m -6.913,0 c 0.7573334,0 1.5146667,0 2.2720001,0 0,0.757 0,1.514 0,2.271 -0.7573334,0 -1.5146667,0 -2.2720001,0 0,-0.757 0,-1.514 0,-2.271 z m -3.49,0 c 0.7573333,0 1.5146667,0 2.2720001,0 0,0.757 0,1.514 0,2.271 -0.7573334,0 -1.5146668,0 -2.2720001,0 0,-0.757 0,-1.514 0,-2.271 z m 0,4.01 c 4.2246666,0 8.449333,0 12.674,0 0,0.713 0,1.426 0,2.139 -4.224667,0 -8.4493334,0 -12.674,0 0,-0.713 0,-1.426 0,-2.139 z"/>
</svg>