<svg xmlns="http://www.w3.org/2000/svg" style="fill-rule:evenodd;clip-rule:evenodd;stroke-linejoin:round;stroke-miterlimit:2" width="100%" height="100%" viewBox="0 0 16 16" xml:space="preserve">
 <defs>
  <style id="current-color-scheme" type="text/css">
   .ColorScheme-Text { color:#444444; } .ColorScheme-Highlight { color:#4285f4; } .ColorScheme-NeutralText { color:#ff9800; } .ColorScheme-PositiveText { color:#4caf50; } .ColorScheme-NegativeText { color:#f44336; }
  </style>
 </defs>
 <path style="fill:currentColor;" class="ColorScheme-Text" d="M14.008,6.531l-0,7.403c-0,0.946 -0.767,1.712 -1.712,1.712c-2.285,0 -6.307,0 -8.592,0c-0.945,0 -1.712,-0.766 -1.712,-1.712l0,-7.403l1.093,0l-0,8.023l9.83,-0l0,-8.023l1.093,0Zm-10,-3.177l-0,2l2,-0l-0,-2l-2,-0Zm6,-0l-0,2l2,-0l-0,-2l-2,-0Zm-8,-3l-0,2l2,-0l-0,-2l-2,-0Zm5,-0l-0,2l2,-0l-0,-2l-2,-0Zm5,-0l-0,2l2,-0l-0,-2l-2,-0Z"/>
</svg>
