<svg xmlns="http://www.w3.org/2000/svg" style="fill-rule:evenodd;clip-rule:evenodd;stroke-linejoin:round;stroke-miterlimit:2" width="100%" height="100%" viewBox="0 0 16 16" xml:space="preserve">
 <defs>
  <style id="current-color-scheme" type="text/css">
   .ColorScheme-Text { color:#444444; } .ColorScheme-Highlight { color:#4285f4; } .ColorScheme-NeutralText { color:#ff9800; } .ColorScheme-PositiveText { color:#4caf50; } .ColorScheme-NegativeText { color:#f44336; }
  </style>
 </defs>
 <path style="fill:currentColor;" class="ColorScheme-Text" d="M14.015,8.583l0,5.351c0,0.946 -0.766,1.712 -1.711,1.712c-2.285,0 -6.308,0 -8.592,0c-0.946,0 -1.712,-0.766 -1.712,-1.712l0,-5.351l1.092,-0l0,5.971l9.831,-0l0,-5.971l1.092,-0Zm-9.515,-5.583l-2.5,2.5l2.5,2.5l1.5,-0l-2,-2l5,-0l0,-1l-5,-0l2,-2l-1.5,-0Zm5.5,-2l2,2l-5,-0l0,1l5,-0l-2,2l1.5,-0l2.5,-2.5l-2.5,-2.5l-1.5,-0Z"/>
</svg>
