<svg xmlns="http://www.w3.org/2000/svg" style="fill-rule:evenodd;clip-rule:evenodd;stroke-linejoin:round;stroke-miterlimit:2" width="100%" height="100%" viewBox="0 0 16 16" xml:space="preserve">
 <defs>
  <style id="current-color-scheme" type="text/css">
   .ColorScheme-Text { color:#444444; } .ColorScheme-Highlight { color:#4285f4; } .ColorScheme-NeutralText { color:#ff9800; } .ColorScheme-PositiveText { color:#4caf50; } .ColorScheme-NegativeText { color:#f44336; }
  </style>
 </defs>
 <path style="fill:currentColor;fill-opacity:0.3" class="ColorScheme-Text" d="M13.056,8.456c-0.389,1.277 -1.361,2.371 -1.781,3.25c-0.147,0.261 -0.219,0.558 -0.219,0.875c-0,1.039 0.892,1.875 2,1.875c1.108,-0 2,-0.836 2,-1.875c-0,-0.317 -0.103,-0.614 -0.25,-0.875c-0.42,-0.879 -1.361,-1.973 -1.75,-3.25Z"/>
 <path style="fill:currentColor;" class="ColorScheme-Text" d="M4.713,10.708c0.943,-0.25 1.913,0.89 1.721,1.935c-0.196,1.069 -1.315,1.454 -1.992,1.673c-0.847,0.274 -3.498,0.06 -3.498,0.06c0,0 1.812,-0.555 2.169,-1.723c0.31,-1.014 0.865,-1.751 1.6,-1.945Zm8.003,-8.988c0.309,-0.245 0.75,-0.232 1.043,0.031c0.314,0.28 0.716,0.642 1.029,0.923c0.294,0.264 0.354,0.703 0.142,1.036c-0.39,0.626 -1.021,1.594 -1.509,2.094c-0.993,1.017 -3.25,2.241 -4.255,3.266c-0.462,0.471 -1.099,1.306 -1.542,1.91c-0.136,0.181 -0.343,0.296 -0.568,0.318c-0.226,0.022 -0.45,-0.052 -0.618,-0.204c-0.059,-0.051 -0.117,-0.103 -0.174,-0.155c-0.169,-0.152 -0.266,-0.367 -0.269,-0.594c-0.001,-0.227 0.092,-0.444 0.258,-0.599c0.554,-0.503 1.317,-1.226 1.737,-1.734c0.912,-1.105 1.881,-3.465 2.788,-4.558c0.449,-0.543 1.353,-1.279 1.938,-1.734Z"/>
</svg>
