<svg xmlns="http://www.w3.org/2000/svg" style="fill-rule:evenodd;clip-rule:evenodd;stroke-linejoin:round;stroke-miterlimit:2" width="100%" height="100%" viewBox="0 0 16 16" xml:space="preserve">
 <defs>
  <style id="current-color-scheme" type="text/css">
   .ColorScheme-Text { color:#444444; } .ColorScheme-Highlight { color:#4285f4; } .ColorScheme-NeutralText { color:#ff9800; } .ColorScheme-PositiveText { color:#4caf50; } .ColorScheme-NegativeText { color:#f44336; }
  </style>
 </defs>
 <path style="fill:currentColor;" class="ColorScheme-Text" d="M12.162,12.162l-0,-2.115c-0,-0.317 0.257,-0.574 0.574,-0.574c0.318,-0 0.575,0.257 0.575,0.574l-0,2.115l2.115,-0c0.317,-0 0.574,0.257 0.574,0.574c0,0.317 -0.257,0.574 -0.574,0.574l-2.115,0l-0,2.116c-0,0.317 -0.257,0.574 -0.575,0.574c-0.317,0 -0.574,-0.257 -0.574,-0.574l-0,-2.116l-2.115,0c-0.317,0 -0.574,-0.257 -0.574,-0.574c-0,-0.317 0.257,-0.574 0.574,-0.574l2.115,-0Z"/>
 <path style="fill:currentColor;" class="ColorScheme-Text" d="M9.147,15.26l-6.065,0c-1.293,0 -2.342,-1.049 -2.342,-2.342l-0,-9.836c-0,-1.293 1.049,-2.342 2.342,-2.342l9.836,0c1.293,0 2.342,1.049 2.342,2.342l0,6.695l-0.895,-0.002l0,-6.613c0,-0.843 -0.684,-1.527 -1.527,-1.527l-9.676,0c-0.843,0 -1.527,0.684 -1.527,1.527l0,9.676c0,0.843 0.684,1.527 1.527,1.527l6.003,0l-0.018,0.895Zm-6.334,-7.981c1.951,2.377 2.39,3.907 5.187,3.88c2.846,-0.027 3.048,-1.524 5.171,-3.871c0.185,-0.204 0.169,-0.521 -0.035,-0.706c-0.205,-0.185 -0.521,-0.169 -0.707,0.035c-0.963,1.065 -1.803,1.868 -2.58,2.404c-0.705,0.485 -1.345,0.743 -1.981,0.746c-0.628,0.003 -1.242,-0.248 -1.902,-0.725c-0.731,-0.53 -1.505,-1.331 -2.38,-2.397c-0.175,-0.213 -0.49,-0.244 -0.703,-0.069c-0.214,0.175 -0.245,0.49 -0.07,0.703Zm2.885,-4.015c0.791,-0 1.433,0.642 1.433,1.434c0,0.791 -0.642,1.433 -1.433,1.433c-0.791,0 -1.434,-0.642 -1.434,-1.433c0,-0.792 0.643,-1.434 1.434,-1.434Zm4.604,-0c0.791,-0 1.434,0.642 1.434,1.434c-0,0.791 -0.643,1.433 -1.434,1.433c-0.791,0 -1.433,-0.642 -1.433,-1.433c-0,-0.792 0.642,-1.434 1.433,-1.434Z"/>
</svg>
