<svg xmlns="http://www.w3.org/2000/svg" style="fill-rule:evenodd;clip-rule:evenodd;stroke-linejoin:round;stroke-miterlimit:2" width="100%" height="100%" viewBox="0 0 16 16" xml:space="preserve">
 <defs>
  <style id="current-color-scheme" type="text/css">
   .ColorScheme-Text { color:#444444; } .ColorScheme-Highlight { color:#4285f4; } .ColorScheme-NeutralText { color:#ff9800; } .ColorScheme-PositiveText { color:#4caf50; } .ColorScheme-NegativeText { color:#f44336; }
  </style>
 </defs>
 <path style="fill:currentColor;fill-opacity:0.3;" class="ColorScheme-Text" d="M8,2.806l-5.129,4.041l-0,7.249l3.768,0l-0,-3.949l2.721,-0l-0,3.949l3.768,0l-0,-7.265l-5.128,-4.025Zm-1.371,2.736l2.742,0l0,2.742l-2.742,0l-0,-2.742Z"/>
 <path style="fill:currentColor;fill-opacity:0.3;" class="ColorScheme-Text" d="M6.629,5.542l-0,2.742l2.742,0l0,-2.742l-2.742,0Zm0.558,0.559l1.626,-0l-0,1.625l-1.626,0l0,-1.625Z"/>
 <path style="fill:currentColor;" class="ColorScheme-Text" d="M7.997,1.092l-7.311,5.709l0.936,1.198l0.435,-0.34l0,7.249l11.883,-0l0,-7.264l0.445,0.345l0.929,-1.191l-7.317,-5.706Zm0.003,1.714l-5.13,4.041l0,7.249l3.768,-0l0,-3.949l2.722,-0l-0,3.949l3.767,-0l0,-7.265l-5.127,-4.025Zm3.355,-0.883c-0.079,-0 -0.142,0.063 -0.142,0.142l-0,0.504l2.162,1.686l-0,-2.19c-0,-0.079 -0.064,-0.142 -0.143,-0.142l-1.877,-0Z"/>
</svg>
