<svg xmlns="http://www.w3.org/2000/svg" style="fill-rule:evenodd;clip-rule:evenodd;stroke-linejoin:round;stroke-miterlimit:2" width="100%" height="100%" viewBox="0 0 16 16" xml:space="preserve">
 <defs>
  <style id="current-color-scheme" type="text/css">
   .ColorScheme-Text { color:#444444; } .ColorScheme-Highlight { color:#4285f4; } .ColorScheme-NeutralText { color:#ff9800; } .ColorScheme-PositiveText { color:#4caf50; } .ColorScheme-NegativeText { color:#f44336; }
  </style>
 </defs>
 <path style="fill:currentColor;fill-opacity:0.3" class="ColorScheme-Text" d="M3.748,6.524c-0.161,0.462 -0.248,0.959 -0.248,1.476c0,2.485 2.015,4.5 4.5,4.5l2.503,-0c0.002,-0 0.016,0 0.04,-0.001c0.148,-0.009 0.902,-0.09 0.956,-0.968c0.001,-0.01 0.001,-0.021 0.001,-0.031c0,-0.894 -0.797,-0.99 -0.958,-0.999l-0.042,-0.001l-2.5,0l0.061,-0.001c0.464,-0.011 0.894,-0.151 1.261,-0.383c0.339,0.247 0.75,0.384 1.178,0.384c1.104,0 2,-0.895 2,-2l0,-0.5c0,-0.517 -0.087,-1.013 -0.248,-1.476l2.948,-2.924l-0,8.97l-14.4,-0l-0,-8.97l2.948,2.924Z"/>
 <path style="fill:currentColor;" class="ColorScheme-Text" d="M8,4c2.209,0 4,1.791 4,4l0,0.5c0,0.829 -0.672,1.5 -1.5,1.5c-0.443,0 -0.863,-0.196 -1.148,-0.535c-0.357,0.329 -0.829,0.535 -1.352,0.535c-1.105,0 -2,-0.895 -2,-2c0,-1.104 0.895,-2 2,-2c1.105,0 2,0.896 2,2l0,0.5c0,0.5 0.5,0.5 0.5,0.5c0,0 0.5,0 0.5,-0.5l0,-0.5c0,-1.657 -1.343,-3 -3,-3c-1.657,0 -3,1.343 -3,3c0,1.657 1.343,3 3,3l2.5,0c0,0 0.5,0 0.5,0.5c-0.031,0.5 -0.5,0.5 -0.5,0.5l-2.5,0c-2.209,0 -4,-1.791 -4,-4c0,-2.209 1.791,-4 4,-4Zm0,3c-0.552,0 -1,0.448 -1,1c0,0.552 0.448,1 1,1c0.552,0 1,-0.448 1,-1c0,-0.552 -0.448,-1 -1,-1Z"/>
 <path style="fill:currentColor;" class="ColorScheme-Text" d="M1.786,2.8c-0.986,-0 -1.786,0.8 -1.786,1.786l0,6.828c0,0.986 0.8,1.786 1.786,1.786l12.428,-0c0.986,-0 1.786,-0.8 1.786,-1.786l0,-6.828c0,-0.986 -0.8,-1.786 -1.786,-1.786l-12.428,-0Zm7.162,0.8c-0.306,-0.066 -0.623,-0.1 -0.948,-0.1c-0.325,-0 -0.642,0.034 -0.948,0.1l-5.972,-0l2.737,2.737c-0.054,0.136 -0.102,0.275 -0.142,0.418l-2.875,-2.875l-0,8.24l2.875,-2.875c0.04,0.142 0.088,0.282 0.142,0.418l-2.737,2.737l5.972,-0c0.306,0.066 0.623,0.1 0.948,0.1l2.503,-0c0.002,-0 0.016,0 0.04,-0.001c0.061,-0.004 0.225,-0.02 0.401,-0.099l3.976,-0l-2.77,-2.77c0.076,-0.11 0.141,-0.229 0.194,-0.354l2.856,2.884l-0,-8.28l-2.875,2.875c-0.042,-0.148 -0.092,-0.292 -0.148,-0.432l2.703,-2.723l-5.932,-0Z"/>
</svg>
