<svg xmlns="http://www.w3.org/2000/svg" style="fill-rule:evenodd;clip-rule:evenodd;stroke-linejoin:round;stroke-miterlimit:2" width="100%" height="100%" viewBox="0 0 16 16" xml:space="preserve">
 <defs>
  <style id="current-color-scheme" type="text/css">
   .ColorScheme-Text { color:#444444; } .ColorScheme-Highlight { color:#4285f4; } .ColorScheme-NeutralText { color:#ff9800; } .ColorScheme-PositiveText { color:#4caf50; } .ColorScheme-NegativeText { color:#f44336; }
  </style>
 </defs>
 <path style="fill:currentColor;" class="ColorScheme-Text" d="M2,1c-0.552,0 -1,0.448 -1,1l0,6c0,0.552 0.448,1 1,1l12,0c0.552,-0 1,-0.448 1,-1l0,-6c0,-0.552 -0.448,-1 -1,-1l-12,0Zm0.09,0.964l1.182,-0l0,3.036l1.182,-0l0,-3.036l2.364,-0l0,3.036l1.182,-0l0,-3.036l2.364,-0l-0,3.036l1.182,-0l-0,-3.036l2.364,-0l-0,6.072l-11.82,0l0,-6.072Zm1.91,8.036l-3,2.5l3,2.5l0,-5Zm8,0l0,5l3,-2.5l-3,-2.5Z"/>
</svg>
