<svg xmlns="http://www.w3.org/2000/svg" style="fill-rule:evenodd;clip-rule:evenodd;stroke-linejoin:round;stroke-miterlimit:2" width="100%" height="100%" viewBox="0 0 16 16" xml:space="preserve">
 <defs>
  <style id="current-color-scheme" type="text/css">
   .ColorScheme-Text { color:#444444; } .ColorScheme-Highlight { color:#4285f4; } .ColorScheme-NeutralText { color:#ff9800; } .ColorScheme-PositiveText { color:#4caf50; } .ColorScheme-NegativeText { color:#f44336; }
  </style>
 </defs>
 <path style="fill:currentColor;fill-opacity:0.3" class="ColorScheme-Text" d="M8.5,1c-4.114,0 -7.5,3.386 -7.5,7.5c0,4.114 3.386,7.5 7.5,7.5c4.114,0 7.5,-3.386 7.5,-7.5c0,-4.114 -3.386,-7.5 -7.5,-7.5Z"/>
 <path style="fill:currentColor;" class="ColorScheme-Text" d="M4,4l4,0l0,5l-3,0l0,3l3,0l0,1l-4,0l0,-5l3,0l0,-3l-3,0l0,-1Zm5,0l1,0l0,4l2,0l0,-4l1,0l0,9l-1,0l0,-4l-3,0l0,-5Z"/>
</svg>
