<svg xmlns="http://www.w3.org/2000/svg" style="fill-rule:evenodd;clip-rule:evenodd;stroke-linejoin:round;stroke-miterlimit:2" width="100%" height="100%" viewBox="0 0 16 16" xml:space="preserve">
 <defs>
  <style id="current-color-scheme" type="text/css">
   .ColorScheme-Text { color:#444444; } .ColorScheme-Highlight { color:#4285f4; } .ColorScheme-NeutralText { color:#ff9800; } .ColorScheme-PositiveText { color:#4caf50; } .ColorScheme-NegativeText { color:#f44336; }
  </style>
 </defs>
 <path style="fill:currentColor;" class="ColorScheme-Text" d="M4,2l0,6.031l-1.344,-1.437l-0.656,0.687l2.313,2.5l0.187,0.219l0.188,-0.219l2.312,-2.5l-0.656,-0.687l-1.344,1.437l0,-6.031l-1,0Zm3,1l0,1l7,0l0,-1l-7,0Zm2,2l0,1l5,0l0,-1l-5,0Zm-1,2l0,1l6,0l0,-1l-6,0Zm1,2l0,1l5,0l0,-1l-5,0Zm-7,2l0,1l12,0l0,-1l-12,0Zm6,2l0,1l6,0l0,-1l-6,0Z"/>
</svg>
