<svg xmlns="http://www.w3.org/2000/svg" style="fill-rule:evenodd;clip-rule:evenodd;stroke-linejoin:round;stroke-miterlimit:2" width="100%" height="100%" viewBox="0 0 16 16" xml:space="preserve">
 <defs>
  <style id="current-color-scheme" type="text/css">
   .ColorScheme-Text { color:#444444; } .ColorScheme-Highlight { color:#4285f4; } .ColorScheme-NeutralText { color:#ff9800; } .ColorScheme-PositiveText { color:#4caf50; } .ColorScheme-NegativeText { color:#f44336; }
  </style>
 </defs>
 <path style="fill:currentColor;" class="ColorScheme-Text" d="M6.523,10.701c0,-0.701 -0.569,-1.271 -1.271,-1.271l-2.543,0c-0.701,0 -1.271,0.57 -1.271,1.271l0,2.543c0,0.701 0.57,1.271 1.271,1.271l2.543,0c0.702,0 1.271,-0.57 1.271,-1.271l0,-2.543Zm7.202,0.285l0.279,1.014c-0,1.097 -0.903,2 -2,2c-0.357,-0.001 -0.707,-0.097 -1.014,-0.279l0.756,-0.756c0.084,0.023 0.171,0.035 0.258,0.035c0.548,0 1,-0.451 1,-1c-0.001,-0.087 -0.012,-0.174 -0.035,-0.258l0.756,-0.756Zm-8.202,-0.285l0,2.543c0,0.15 -0.121,0.271 -0.271,0.271l-2.543,0c-0.149,0 -0.271,-0.121 -0.271,-0.271l0,-2.543c0,-0.149 0.122,-0.271 0.271,-0.271c0,0 2.543,0 2.543,0c0.15,0 0.271,0.122 0.271,0.271Zm6.481,-0.701l1.014,0.279l-0.756,0.756c-0.084,-0.023 -0.171,-0.035 -0.258,-0.035c-0.549,0 -1,0.451 -1,1c0,0.087 0.012,0.174 0.035,0.258l-0.756,0.756c-0.182,-0.307 -0.278,-0.657 -0.279,-1.014c-0,-1.097 0.903,-2 2,-2Zm3.539,-7.271c-0,-0.702 -0.57,-1.272 -1.272,-1.272l-2.542,0c-0.702,0 -1.272,0.57 -1.272,1.272l0,2.542c0,0.702 0.57,1.272 1.272,1.272l2.542,-0c0.702,-0 1.272,-0.57 1.272,-1.272l-0,-2.542Zm-1,-0l-0,2.542c-0,0.15 -0.122,0.272 -0.272,0.272l-2.542,-0c-0.15,-0 -0.272,-0.122 -0.272,-0.272l0,-2.542c0,-0.15 0.122,-0.272 0.272,-0.272c-0,0 2.542,0 2.542,0c0.15,0 0.272,0.122 0.272,0.272Z"/>
 <path style="fill:currentColor;fill-opacity:0.3" class="ColorScheme-Text" d="M11,3.5c-4.114,0 -7.5,3.386 -7.5,7.5l1,0c0,-3.566 2.934,-6.5 6.5,-6.5l0,-1Z"/>
</svg>
