<svg xmlns="http://www.w3.org/2000/svg" style="fill-rule:evenodd;clip-rule:evenodd;stroke-linejoin:round;stroke-miterlimit:2" width="100%" height="100%" viewBox="0 0 16 16" xml:space="preserve">
 <defs>
  <style id="current-color-scheme" type="text/css">
   .ColorScheme-Text { color:#444444; } .ColorScheme-Highlight { color:#4285f4; } .ColorScheme-NeutralText { color:#ff9800; } .ColorScheme-PositiveText { color:#4caf50; } .ColorScheme-NegativeText { color:#f44336; }
  </style>
 </defs>
 <path style="fill:currentColor;" class="ColorScheme-Text" d="M8,6.662l2.462,-2.461c0.369,-0.369 0.968,-0.369 1.337,0.001c0.369,0.369 0.369,0.967 -0,1.336l-2.462,2.461l2.462,2.462c0.369,0.37 0.369,0.968 -0,1.338c-0.37,0.369 -0.968,0.369 -1.337,-0l-2.462,-2.462l-2.462,2.462c-0.369,0.369 -0.967,0.369 -1.336,-0c-0.37,-0.369 -0.37,-0.968 -0.001,-1.337l2.462,-2.463l-2.462,-2.461c-0.369,-0.369 -0.369,-0.967 0,-1.337c0.37,-0.369 0.968,-0.369 1.338,-0l2.461,2.461Z"/>
</svg>
