<svg xmlns="http://www.w3.org/2000/svg" style="fill-rule:evenodd;clip-rule:evenodd;stroke-linejoin:round;stroke-miterlimit:2" width="100%" height="100%" viewBox="0 0 16 16" xml:space="preserve">
 <defs>
  <style id="current-color-scheme" type="text/css">
   .ColorScheme-Text { color:#444444; } .ColorScheme-Highlight { color:#4285f4; } .ColorScheme-NeutralText { color:#ff9800; } .ColorScheme-PositiveText { color:#4caf50; } .ColorScheme-NegativeText { color:#f44336; }
  </style>
 </defs>
 <path style="fill:currentColor;" class="ColorScheme-Text" d="M2,2l0,3l2.125,0l4.875,6.5l0,2.5l3,0l0,-3l-2.125,0l-4.875,-6.502l0,-0.498l6,0l0,1l3,0l0,-3l-3,0l0,1l-6,0l0,-1l-3,0Zm1,1l1,0l0,1l-1,0l0,-1Zm9,0l1,0l0,1l-1,0l0,-1Zm-2,9l1,0l0,1l-1,0l0,-1Z"/>
</svg>
