<svg xmlns="http://www.w3.org/2000/svg" style="fill-rule:evenodd;clip-rule:evenodd;stroke-linejoin:round;stroke-miterlimit:2" width="100%" height="100%" viewBox="0 0 16 16" xml:space="preserve">
 <defs>
  <style id="current-color-scheme" type="text/css">
   .ColorScheme-Text { color:#444444; } .ColorScheme-Highlight { color:#4285f4; } .ColorScheme-NeutralText { color:#ff9800; } .ColorScheme-PositiveText { color:#4caf50; } .ColorScheme-NegativeText { color:#f44336; }
  </style>
 </defs>
 <path style="fill:currentColor;fill-opacity:0.3" class="ColorScheme-Text" d="M4,2c0,0 -2,0 -2,2l0,7c0,1 -1,1 -1,1l-1,0l0,2l16,0l0,-2l-1,0c0,0 -1,0 -1,-1l0,-7c0,0 0,-2 -2,-2l-8,0Z"/>
 <path style="fill:currentColor;" class="ColorScheme-Text" d="M4,2c0,0 -2,0 -2,2l0,7c0,1 -1,1 -1,1l-1,0l0,2l16,0l0,-2l-1,0c0,0 -1,0 -1,-1l0,-7c0,0 0,-2 -2,-2l-8,0Zm11,11c0,0 -2,0 -2,-2l0,-7c0,0 0,-1 -1,-1l-8,0c0,0 -1,0 -1,1l0,7c0,2 -2,2 -2,2l14,0Z"/>
 <path style="fill:currentColor;" class="ColorScheme-Text" d="M8,6.972l1.893,-1.893c0.283,-0.284 0.744,-0.283 1.028,0c0.284,0.284 0.284,0.744 -0,1.028l-1.893,1.893l1.893,1.893c0.284,0.283 0.283,0.744 -0,1.028c-0.284,0.284 -0.744,0.284 -1.028,-0l-1.893,-1.893l-1.893,1.893c-0.284,0.284 -0.744,0.284 -1.028,-0c-0.283,-0.284 -0.284,-0.744 -0,-1.028l1.893,-1.893l-1.893,-1.893c-0.284,-0.284 -0.284,-0.744 0,-1.028c0.284,-0.283 0.745,-0.284 1.028,-0l1.893,1.893Z"/>
</svg>
