<svg xmlns="http://www.w3.org/2000/svg" style="fill-rule:evenodd;clip-rule:evenodd;stroke-linejoin:round;stroke-miterlimit:2" width="100%" height="100%" viewBox="0 0 16 16" xml:space="preserve">
 <defs>
  <style id="current-color-scheme" type="text/css">
   .ColorScheme-Text { color:#444444; } .ColorScheme-Highlight { color:#4285f4; } .ColorScheme-NeutralText { color:#ff9800; } .ColorScheme-PositiveText { color:#4caf50; } .ColorScheme-NegativeText { color:#f44336; }
  </style>
 </defs>
 <path style="fill:currentColor;fill-opacity:0.3" class="ColorScheme-Text" d="M8.716,15.26l-5.634,0c-1.293,0 -2.342,-1.049 -2.342,-2.342l0,-9.836c0,-1.293 1.049,-2.342 2.342,-2.342l9.836,0c1.293,0 2.342,1.049 2.342,2.342l0,4.418l-0.895,0l0,-4.338c0,-0.843 -0.684,-1.527 -1.527,-1.527l-9.676,0c-0.843,0 -1.527,0.684 -1.527,1.527l0,9.676c0,0.843 0.684,1.527 1.527,1.527l5.554,0l-0,0.895Z"/>
 <rect style="fill:currentColor;" class="ColorScheme-Text" width="6" height="1" x="4" y="10"/>
 <rect style="fill:currentColor;" class="ColorScheme-Text" width="4" height="1" x="4" y="7"/>
 <rect style="fill:currentColor;" class="ColorScheme-Text" width="8" height="1" x="4" y="4"/>
 <path style="fill:currentColor;" class="ColorScheme-Text" d="M10,8.26l0,1l1.5,0c1.385,0 2.5,1.115 2.5,2.5c0,0.819 -0.396,1.545 -1,2l0,-1.5l-1,0l0,3l3,0l0,-1l-1.063,0c0.658,-0.632 1.063,-1.51 1.063,-2.5c0,-1.939 -1.561,-3.5 -3.5,-3.5l-1.5,0Z"/>
</svg>
