<svg xmlns="http://www.w3.org/2000/svg" style="fill-rule:evenodd;clip-rule:evenodd;stroke-linejoin:round;stroke-miterlimit:2" width="100%" height="100%" viewBox="0 0 16 16" xml:space="preserve">
 <defs>
  <style id="current-color-scheme" type="text/css">
   .ColorScheme-Text { color:#444444; } .ColorScheme-Highlight { color:#4285f4; } .ColorScheme-NeutralText { color:#ff9800; } .ColorScheme-PositiveText { color:#4caf50; } .ColorScheme-NegativeText { color:#f44336; }
  </style>
 </defs>
 <path style="fill:currentColor;" class="ColorScheme-Text" d="M12.338,1.965c-0.057,0.002 -0.114,0.007 -0.17,0.014l-0,0.001c-1.087,0.141 -1.866,1.151 -1.727,2.239c0.14,1.088 1.151,1.868 2.239,1.728c0.526,-0.068 1.004,-0.343 1.328,-0.763l-0.793,-0.61c-0.162,0.21 -0.4,0.347 -0.662,0.381c-0.043,0.006 -0.086,0.008 -0.13,0.008c-0.5,0 -0.927,-0.375 -0.991,-0.871c-0.006,-0.043 -0.009,-0.086 -0.009,-0.13c0,-0.5 0.376,-0.927 0.872,-0.991c0.263,-0.034 0.53,0.038 0.74,0.201l0.61,-0.793c-0.374,-0.288 -0.836,-0.434 -1.307,-0.414Zm-9.305,1.756l-0.664,0.75l5.238,4.642l0.664,-0.748l-0.203,-0.179c0.333,-0.111 0.633,-0.308 0.866,-0.571c0.733,-0.827 0.657,-2.09 -0.17,-2.822c-0.827,-0.733 -2.091,-0.657 -2.823,0.17c-0.232,0.264 -0.392,0.584 -0.461,0.928l-2.447,-2.17Zm4.346,1.572c0.255,-0.015 0.516,0.067 0.723,0.25c0.413,0.366 0.452,0.996 0.086,1.41c-0.366,0.413 -0.999,0.452 -1.413,0.086c-0.413,-0.366 -0.452,-0.998 -0.086,-1.412c0.183,-0.207 0.434,-0.319 0.69,-0.334Zm-4.488,4.107l-0.371,0.928l0.251,0.102c-0.276,0.216 -0.49,0.502 -0.621,0.828c-0.094,0.236 -0.142,0.488 -0.142,0.742c-0,0.817 0.499,1.555 1.258,1.857c0.236,0.095 0.487,0.143 0.741,0.143c0.817,0 1.556,-0.501 1.858,-1.26c0.13,-0.326 0.171,-0.681 0.119,-1.029l0.25,0.1l0.371,-0.928l-1.859,-0.742l-1.855,-0.741Zm1.125,1.598c0.124,0.002 0.246,0.026 0.361,0.072c0.509,0.203 0.761,0.79 0.559,1.299c-0.204,0.51 -0.79,0.762 -1.299,0.559c-0.51,-0.203 -0.762,-0.79 -0.559,-1.299c0.152,-0.383 0.526,-0.634 0.938,-0.631Z"/>
 <path style="fill:currentColor;fill-opacity:0.3;" class="ColorScheme-Text" d="M14,7c-3.84,0 -7,3.16 -7,7l1,0c0,-3.292 2.708,-6 6,-6l0,-1Z"/>
</svg>
