<svg xmlns="http://www.w3.org/2000/svg" style="fill-rule:evenodd;clip-rule:evenodd;stroke-linejoin:round;stroke-miterlimit:2" width="100%" height="100%" viewBox="0 0 16 16" xml:space="preserve">
 <defs>
  <style id="current-color-scheme" type="text/css">
   .ColorScheme-Text { color:#444444; } .ColorScheme-Highlight { color:#4285f4; } .ColorScheme-NeutralText { color:#ff9800; } .ColorScheme-PositiveText { color:#4caf50; } .ColorScheme-NegativeText { color:#f44336; }
  </style>
 </defs>
 <path style="fill:currentColor;" class="ColorScheme-Text" d="M9.255,6.957l0,5.579l2.059,-2.059c0.19,-0.191 0.498,-0.191 0.688,-0c0.192,0.19 0.192,0.499 -0,0.689l-2.872,2.876c-0.1,0.098 -0.228,0.145 -0.357,0.142c-0.128,0.003 -0.257,-0.044 -0.353,-0.142l-2.875,-2.876c-0.189,-0.19 -0.189,-0.499 0,-0.689c0.19,-0.191 0.501,-0.191 0.691,-0l2.056,2.059l-0,-5.579c-0,-0.267 0.215,-0.482 0.481,-0.482c0.267,-0 0.482,0.215 0.482,0.482Zm3.372,1.086l-0,-5.579l2.059,2.059c0.19,0.191 0.498,0.191 0.687,0c0.193,-0.19 0.193,-0.499 0,-0.689l-2.871,-2.876c-0.1,-0.098 -0.228,-0.145 -0.357,-0.142c-0.128,-0.003 -0.257,0.044 -0.353,0.142l-2.875,2.876c-0.19,0.19 -0.19,0.499 -0,0.689c0.189,0.191 0.501,0.191 0.69,0l2.056,-2.059l0,5.579c0,0.267 0.215,0.482 0.482,0.482c0.267,0 0.482,-0.215 0.482,-0.482Z"/>
 <path style="fill:currentColor;fill-opacity:0.3" class="ColorScheme-Text" d="M4,11.5c0,0.823 -0.677,1.5 -1.5,1.5c-0.823,0 -1.5,-0.677 -1.5,-1.5c-0,-0.823 0.677,-1.5 1.5,-1.5c0.823,0 1.5,0.677 1.5,1.5Zm0,-4c0,0.823 -0.677,1.5 -1.5,1.5c-0.823,0 -1.5,-0.677 -1.5,-1.5c-0,-0.823 0.677,-1.5 1.5,-1.5c0.823,0 1.5,0.677 1.5,1.5Zm0,-4c0,0.823 -0.677,1.5 -1.5,1.5c-0.823,0 -1.5,-0.677 -1.5,-1.5c-0,-0.823 0.677,-1.5 1.5,-1.5c0.823,-0 1.5,0.677 1.5,1.5Z"/>
</svg>
