<svg xmlns="http://www.w3.org/2000/svg" style="fill-rule:evenodd;clip-rule:evenodd;stroke-linejoin:round;stroke-miterlimit:2" width="100%" height="100%" viewBox="0 0 16 16" xml:space="preserve">
 <defs>
  <style id="current-color-scheme" type="text/css">
   .ColorScheme-Text { color:#444444; } .ColorScheme-Highlight { color:#4285f4; } .ColorScheme-NeutralText { color:#ff9800; } .ColorScheme-PositiveText { color:#4caf50; } .ColorScheme-NegativeText { color:#f44336; }
  </style>
 </defs>
 <path style="fill:currentColor;" class="ColorScheme-Text" d="M4.75,0.5c-2.25,0 -2.25,2.25 -2.25,2.25l0,10.5c0,0 0,2.25 2.25,2.25c-0,0 6.5,0 6.5,0c2.25,0 2.25,-2.25 2.25,-2.25l0,-10.5c-0,-0 -0,-2.25 -2.25,-2.25l-6.5,0Zm-0,1l6.5,0c1.25,0 1.25,1.25 1.25,1.25c0,0 0,10.5 0,10.5c0,-0 0,1.25 -1.25,1.25l-6.5,0c-1.25,0 -1.25,-1.25 -1.25,-1.25c0,0 0,-10.5 0,-10.5c-0,0 -0,-1.25 1.25,-1.25Zm3.25,9.236c0.656,0 1.189,0.533 1.189,1.189c0,0.656 -0.533,1.188 -1.189,1.188c-0.656,-0 -1.189,-0.532 -1.189,-1.188c0,-0.656 0.533,-1.189 1.189,-1.189Zm-1.355,-6.501c0,-0.357 0.142,-0.7 0.395,-0.953c0.253,-0.253 0.596,-0.395 0.953,-0.395l0.014,-0c0.357,-0 0.7,0.142 0.953,0.395c0.253,0.253 0.395,0.596 0.395,0.953c0,1.506 -0.355,3.556 -0.355,4.667c0,0.264 -0.105,0.517 -0.291,0.704c-0.187,0.186 -0.44,0.291 -0.704,0.291l-0.01,0c-0.264,0 -0.517,-0.105 -0.704,-0.291c-0.186,-0.187 -0.291,-0.44 -0.291,-0.704c0,-1.111 -0.355,-3.161 -0.355,-4.667Z"/>
</svg>
