<svg style="clip-rule:evenodd;fill-rule:evenodd;stroke-linejoin:round;stroke-miterlimit:2" viewBox="0 0 16 16" xmlns="http://www.w3.org/2000/svg">
 <path d="m8 0.999c-3.866 0-7 3.134-7 7s3.134 7 7 7 7-3.134 7-7-3.134-7-7-7zm0 7.893c-1.141 1e-3 -2.243 0.393-3.125 1.1-0.107 0.09-0.172 0.22-0.178 0.36-6e-3 0.139 0.046 0.275 0.145 0.374-3e-3 5e-3 -1e-3 6e-3 0 8e-3 0.184 0.183 0.476 0.196 0.676 0.031 0.7-0.563 1.575-0.872 2.482-0.873 0.907 1e-3 1.782 0.31 2.485 0.869 0.198 0.164 0.488 0.15 0.669-0.031 5e-3 2e-3 7e-3 1e-3 8e-3 0 0.1-0.1 0.154-0.237 0.147-0.379-6e-3 -0.141-0.071-0.273-0.18-0.364-0.886-0.702-1.988-1.094-3.129-1.095zm-0.908-3.526c0-0.552-0.448-1-1-1s-1 0.448-1 1v1.516c0 0.552 0.448 1 1 1s1-0.448 1-1v-1.516zm3.712 0c0-0.552-0.448-1-1-1s-1 0.448-1 1v1.516c0 0.552 0.448 1 1 1s1-0.448 1-1v-1.516z" fill="#dfdfdf"/>
</svg>
