<svg style="clip-rule:evenodd;fill-rule:evenodd;stroke-linejoin:round;stroke-miterlimit:2" viewBox="0 0 16 16" xmlns="http://www.w3.org/2000/svg">
 <g transform="translate(-665 159.003)">
  <path d="m667.094-154.754c-0.692 1.086-1.094 2.367-1.094 3.75 0 3.866 3.134 7 7 7s7-3.134 7-7c0-1.383-0.401-2.664-1.094-3.75-0.307 0.107-0.619 0.201-0.968 0.281-1.338 0.307-3.045 0.469-4.938 0.469s-3.6-0.162-4.937-0.469c-0.35-0.08-0.662-0.174-0.969-0.281zm3.958 1.754c0.554 0 1 0.449 1 1s-0.446 1-1 1-1-0.449-1-1 0.446-1 1-1zm3.876 0c0.554 0 1 0.449 1 1s-0.446 1-1 1-1-0.449-1-1 0.446-1 1-1zm-5.086 3.292c0.184-0.183 0.476-0.197 0.676-0.031 0.7 0.563 1.575 0.872 2.482 0.873 0.907-1e-3 1.782-0.31 2.485-0.869 0.198-0.164 0.488-0.15 0.67 0.032l4e-3 -4e-3c0.101 0.1 0.155 0.239 0.149 0.382-7e-3 0.142-0.073 0.275-0.182 0.367-0.886 0.701-1.986 1.091-3.126 1.092-1.14-1e-3 -2.24-0.391-3.121-1.098-0.108-0.09-0.174-0.221-0.18-0.362s0.047-0.278 0.146-0.377c-3e-3 -5e-3 -3e-3 -5e-3 -3e-3 -5e-3z" fill="#dfdfdf"/>
 </g>
 <g transform="translate(-665 159.003)">
  <path d="m673-159.004c-1.831 0-3.482 0.168-4.711 0.449-0.614 0.141-1.122 0.305-1.518 0.52-0.197 0.107-0.371 0.228-0.513 0.389-0.143 0.16-0.258 0.383-0.258 0.632v0.022c0 0.249 0.115 0.472 0.258 0.633 0.142 0.16 0.316 0.279 0.513 0.386 0.396 0.215 0.904 0.381 1.518 0.522 1.229 0.281 2.88 0.447 4.711 0.447s3.484-0.166 4.713-0.447c0.614-0.141 1.122-0.307 1.517-0.522 0.198-0.107 0.37-0.226 0.512-0.386 0.143-0.161 0.258-0.384 0.258-0.633v-0.022c0-0.249-0.115-0.472-0.258-0.632-0.142-0.161-0.314-0.282-0.512-0.389-0.395-0.215-0.903-0.379-1.517-0.52-1.229-0.281-2.882-0.449-4.713-0.449zm0 1c1.77 0 3.368 0.167 4.488 0.424 0.561 0.128 1.003 0.282 1.264 0.424 0.114 0.062 0.175 0.115 0.213 0.152-0.038 0.037-0.098 0.09-0.213 0.152-0.261 0.142-0.703 0.298-1.264 0.426-1.12 0.257-2.718 0.422-4.488 0.422s-3.368-0.165-4.488-0.422c-0.561-0.128-1.003-0.284-1.264-0.426-0.115-0.062-0.175-0.115-0.213-0.152 0.038-0.037 0.099-0.09 0.213-0.152 0.261-0.142 0.703-0.296 1.264-0.424 1.12-0.257 2.718-0.424 4.488-0.424zm-6 0.99c0 0.014 4e-3 1e-3 2e-3 0.01 3e-3 8e-3 -2e-3 -4e-3 -2e-3 0.012v-0.022zm12 0v0.022c0-0.016-5e-3 -3e-3 -2e-3 -0.012-2e-3 -8e-3 2e-3 4e-3 2e-3 -0.01z" fill-opacity=".3" fill="#dfdfdf"/>
 </g>
</svg>
