<svg style="clip-rule:evenodd;fill-rule:evenodd;stroke-linejoin:round;stroke-miterlimit:2" viewBox="0 0 16 16" xmlns="http://www.w3.org/2000/svg">
 <path d="m8 0.999c-3.866 0-7 3.134-7 7s3.134 7 7 7 7-3.134 7-7-3.134-7-7-7zm-2.54 9.367c0.173-0.42 0.527-0.864 1.008-0.843 0.421 0.019 0.693 0.159 0.984 0.282 0.422 0.18 0.867 0.346 1.565 0.335 0.605-0.01 0.972-0.205 1.285-0.437 0.239-0.178 0.396-0.438 0.83-0.446 0.347-5e-3 0.624-0.292 0.618-0.639-5e-3 -0.347-0.292-0.624-0.639-0.618-0.578 9e-3 -0.93 0.204-1.242 0.441-0.234 0.178-0.407 0.434-0.871 0.441-0.586 9e-3 -0.913-0.177-1.269-0.326-0.345-0.144-0.707-0.267-1.206-0.29-1.008-0.044-1.865 0.742-2.226 1.622-0.132 0.321 0.022 0.689 0.343 0.821s0.689-0.022 0.82-0.343zm0.453-5.363c0.554 0 1 0.45 1 1 0 0.551-0.446 1-1 1s-1-0.449-1-1c0-0.55 0.446-1 1-1zm3.995 0c0.554 0 1 0.45 1 1 0 0.551-0.446 1-1 1s-1-0.449-1-1c0-0.55 0.446-1 1-1z" fill="#dfdfdf"/>
</svg>
