<svg style="clip-rule:evenodd;fill-rule:evenodd;stroke-linejoin:round;stroke-miterlimit:2" viewBox="0 0 16 16" xmlns="http://www.w3.org/2000/svg">
 <g transform="translate(-865 139.003)">
  <path d="m873-138.004c-3.866 0-7 3.134-7 7s3.134 7 7 7 7-3.134 7-7-3.134-7-7-7zm-2.027 4.004c0.554 0 1 0.449 1 1s-0.446 1-1 1-1-0.449-1-1 0.446-1 1-1zm4.134 0c0.554 0 1 0.449 1 1s-0.446 1-1 1-1-0.449-1-1 0.446-1 1-1zm-4.987 2.997c0.076-3e-3 0.15 0.018 0.214 0.058 0.562 0.345 0.912 0.907 1.045 1.506h3.257c0.133-0.599 0.483-1.137 1.045-1.482 0.087-0.054 0.192-0.072 0.292-0.049 0.333 0.079 0.409 0.519 0.121 0.705-0.736 0.452-0.986 1.403-0.534 2.139 0.075 0.122 0.186 0.243 0.291 0.34 0.389 0.356-0.145 0.94-0.534 0.583-0.158-0.145-0.301-0.327-0.413-0.51-0.182-0.295-0.279-0.624-0.316-0.948h-3.16c-0.037 0.324-0.135 0.629-0.316 0.924-0.115 0.187-0.25 0.362-0.413 0.51-0.389 0.356-0.924-0.227-0.535-0.583 0.109-0.099 0.215-0.215 0.292-0.341 0.452-0.736 0.201-1.686-0.535-2.138-0.289-0.169-0.244-0.599 0.073-0.705 0.016-1e-3 0.033-1e-3 0.049 0 0.025-6e-3 0.051-9e-3 0.077-9e-3z" fill="#dfdfdf"/>
 </g>
</svg>
