<svg style="clip-rule:evenodd;fill-rule:evenodd;stroke-linejoin:round;stroke-miterlimit:2" viewBox="0 0 16 16" xmlns="http://www.w3.org/2000/svg">
 <g transform="translate(-765 159.035)">
  <path d="m773-158.035c-3.866 0-7 3.134-7 7s3.134 7 7 7 7-3.134 7-7-3.134-7-7-7zm-2.007 4.035c0.554 0 1 0.449 1 1s-0.446 1-1 1-1-0.449-1-1 0.446-1 1-1zm4.154 0c0.554 0 1 0.449 1 1s-0.446 1-1 1-1-0.449-1-1 0.446-1 1-1zm-7.914 2.965c3.232 2.064 8.287 2.052 11.161 0-0.795 1.822-2.24 5.033-5.394 5.035-3.698 2e-3 -4.973-3.215-5.767-5.035z" fill="#dfdfdf"/>
 </g>
</svg>
