<svg style="clip-rule:evenodd;fill-rule:evenodd;stroke-linejoin:round;stroke-miterlimit:2" viewBox="0 0 16 16" xmlns="http://www.w3.org/2000/svg">
 <g transform="translate(-765 139.003)">
  <path d="m773-138.004c-3.866 0-7 3.134-7 7s3.134 7 7 7 7-3.134 7-7-3.134-7-7-7zm-2.166 4.004c0.554 0 1 0.449 1 1s-0.446 1-1 1-1-0.449-1-1 0.446-1 1-1zm4.213 0c0.554 0 1 0.449 1 1s-0.446 1-1 1-1-0.449-1-1 0.446-1 1-1zm-3.73 3.764c0.656-0.088 1.393 0.171 2.063 0.842 0.51 0.508 0.857 0.563 1.195 0.515 0.338-0.047 0.71-0.256 1.059-0.543 0.534-0.687 1.427 0.392 0.652 0.788-0.408 0.335-0.919 0.695-1.575 0.787-0.656 0.093-1.417-0.14-2.091-0.814-0.513-0.513-0.838-0.588-1.167-0.543-0.33 0.044-0.721 0.266-1.087 0.57-0.534 0.687-1.426-0.392-0.651-0.788 0.424-0.352 0.946-0.727 1.602-0.814z" fill="#dfdfdf"/>
 </g>
</svg>
