<svg style="clip-rule:evenodd;fill-rule:evenodd;stroke-linejoin:round;stroke-miterlimit:2" viewBox="0 0 16 16" xmlns="http://www.w3.org/2000/svg">
 <path d="m7.175 5.823s0.98-2.181 1.079-2.417c0.688-0.869 1.765-1.406 2.965-1.406 2.082 0 3.781 1.675 3.781 3.75 0 1.08-0.625 1.925-1.188 2.75-0.867 1.27-4.239 5.142-4.239 5.142l-1.332-2.945 1.291-2.985-2.357-1.889z" fill-opacity=".3" fill="#dfdfdf"/>
 <path d="m7.175 5.823s0.98-2.181 1.079-2.417c0.688-0.869 1.765-1.406 2.965-1.406 2.082 0 3.781 1.675 3.781 3.75 0 1.08-0.625 1.925-1.188 2.75-0.867 1.27-4.239 5.142-4.239 5.142l-1.332-2.945 1.291-2.985-2.357-1.889zm2.298 6.492c1.048-1.224 2.968-3.581 3.513-4.379 0.453-0.663 1.014-1.317 1.014-2.186 0-1.524-1.252-2.75-2.781-2.75-0.839 0-2.269 0.606-2.776 1.19-0.14 0.319-0.486 0.899-0.732 1.448l1.958 1.521c0.352 0.282 0.423 0.536 0.244 0.95l-1.091 2.595 0.651 1.611z" fill="#dfdfdf"/>
 <path d="m9.171 13.955-1.265 1.395s-4.567-5.25-5.718-6.85c-0.583-0.811-1.188-1.67-1.188-2.75 0-2.075 1.699-3.75 3.781-3.75 1.106 0 2.343 0.582 3.058 1.382-0.288 0.525-2.007 2.74-2.007 2.74l1.98 2.327-0.629 2.336 1.988 3.17z" fill-opacity=".3" fill="#dfdfdf"/>
 <path d="M9.171,13.955L7.906,15.35C7.906,15.35 3.339,10.1 2.188,8.5C1.605,7.689 1,6.83 1,5.75C1,3.675 2.699,2 4.781,2C5.887,2 7.124,2.582 7.839,3.382C7.551,3.907 5.832,6.122 5.832,6.122L7.812,8.449L7.183,10.785L9.171,13.955ZM6.955,3.762C6.441,3.422 5.369,3 4.781,3C3.252,3 2,4.226 2,5.75C2,6.61 2.535,7.27 3,7.916C3.849,9.096 6.577,12.283 7.912,13.829L8.341,13.427L6.834,11.235C6.686,10.999 6.643,10.713 6.715,10.444L7.258,8.554L5.629,6.74C5.323,6.379 5.311,5.852 5.601,5.478C5.601,5.478 6.375,4.564 6.955,3.762Z" fill="#dfdfdf"/>
</svg>
