<svg style="clip-rule:evenodd;fill-rule:evenodd;stroke-linejoin:round;stroke-miterlimit:2" viewBox="0 0 16 16" xmlns="http://www.w3.org/2000/svg">
 <g transform="translate(-785 159.003)">
  <path d="m793-158.004c-3.866 0-7 3.134-7 7s3.134 7 7 7 7-3.134 7-7-3.134-7-7-7zm-1.888 4.004c0.554 0 1 0.449 1 1s-0.446 1-1 1-1-0.449-1-1 0.446-1 1-1zm2.717 1.077h2.516c0.232 0 0.419 0.187 0.419 0.419s-0.187 0.419-0.419 0.419h-2.516c-0.232 0-0.419-0.187-0.419-0.419s0.187-0.419 0.419-0.419zm-4.277 2.953c0.209-0.154 0.501-0.125 0.675 0.068 0.61 0.658 1.43 1.091 2.328 1.224 0.897 0.131 1.807-0.047 2.584-0.497 0.22-0.134 0.505-0.078 0.659 0.129l5e-3 -4e-3c0.085 0.114 0.118 0.259 0.091 0.399s-0.112 0.262-0.234 0.337c-0.978 0.564-2.123 0.791-3.251 0.626-1.128-0.167-2.159-0.714-2.928-1.54-0.094-0.105-0.14-0.245-0.125-0.385 0.014-0.14 0.086-0.268 0.199-0.352-3e-3 -5e-3 -3e-3 -5e-3 -3e-3 -5e-3z" fill="#dfdfdf"/>
 </g>
</svg>
