<svg width="100%" height="100%" viewBox="0 0 48 48" xmlns="http://www.w3.org/2000/svg" xmlns:xlink="http://www.w3.org/1999/xlink" xml:space="preserve" xmlns:serif="http://www.serif.com/" style="fill-rule:evenodd;clip-rule:evenodd;stroke-linecap:round;stroke-linejoin:round;stroke-miterlimit:1.5;"><path d="M13.845,14.39c0,-5.637 4.577,-10.214 10.214,-10.214c5.638,0 10.215,4.577 10.215,10.214c0,1.013 -0.055,11.115 -0.093,12.078c-0.171,4.4 -5.556,7.072 -10.181,7.072c-5.638,0 -9.763,-1.776 -9.763,-7.413" style="fill:none;stroke:#cec6c6;stroke-width:6.58px;"/><path d="M38,20c1.104,0 2,0.896 2,2l0,20c0,1.104 -0.896,2 -2,2l-28,0c-1.104,0 -2,-0.896 -2,-2l0,-20c0,-1.104 0.896,-2 2,-2l28,0Z" style="fill:url(#_Linear1);"/><defs><linearGradient id="_Linear1" x1="0" y1="0" x2="1" y2="0" gradientUnits="userSpaceOnUse" gradientTransform="matrix(0,-24,-32,0,24,44)"><stop offset="0" style="stop-color:#790000;stop-opacity:1"/><stop offset="1" style="stop-color:#fe3c38;stop-opacity:1"/></linearGradient></defs></svg>