<svg style="clip-rule:evenodd;fill-rule:evenodd;stroke-linejoin:round;stroke-miterlimit:2" viewBox="0 0 48 48" xmlns="http://www.w3.org/2000/svg">
 <g transform="matrix(.75 0 0 .75 0 -7.10543e-15)">
  <path d="m61.122 15.88c0-2.762-2.239-5-5-5h-48.244c-2.761 0-5 2.238-5 5v32.246c0 2.761 2.239 5 5 5h48.244c2.761 0 5-2.239 5-5v-32.246z" style="fill:rgb(0,131,213)"/>
 </g>
 <g transform="matrix(.75 0 0 .75 0 -7.10543e-15)">
  <path d="m61.122 20.652c0-1.326-0.527-2.598-1.465-3.536-0.938-0.937-2.209-1.464-3.535-1.464h-25.58c-1.232 0-2.42-0.455-3.337-1.277-0.768-0.689-1.713-1.535-2.481-2.224-0.917-0.822-2.105-1.277-3.337-1.277h-13.509c-1.326 0-2.597 0.527-3.535 1.465-0.938 0.937-1.465 2.209-1.465 3.535v32.252c0 2.761 2.239 5 5 5h48.244c2.761 0 5-2.239 5-5v-27.474z" style="fill:url(#_Linear1)"/>
 </g>
 <g transform="matrix(2.09887,0,0,1.88026,21.9848,17.2743)">
  <path d="m11.657 2.206c-0.601-0.967-7.351-1.046-8.268 0v10.057c1.105 1.792 7.211 1.82 8.268 0v-10.057zm-4.134 0.047c1.909 0 3.458 0.325 3.458 0.725 0 0.401-1.549 0.726-3.458 0.726s-3.458-0.325-3.458-0.726c0-0.4 1.549-0.725 3.458-0.725z" style="fill:rgb(199,41,41)"/>
 </g>
 <g transform="matrix(26.5621,0,0,26.5621,19.6837,35.0359)">
  <path d="m0.206-0.225h-0.087l-0.02-0.435c0-0.074 0.126-0.074 0.126 0l-0.019 0.435zm-0.043 0.081c0.021 0 0.04 7e-3 0.055 0.022s0.022 0.033 0.022 0.056-7e-3 0.041-0.022 0.055c-0.015 0.015-0.034 0.022-0.055 0.022-0.022 0-0.04-7e-3 -0.055-0.022-0.015-0.014-0.023-0.032-0.023-0.055s8e-3 -0.041 0.023-0.056 0.033-0.022 0.055-0.022z" style="fill-rule:nonzero;fill:rgb(199,41,41)"/>
 </g>
 <defs>
  <linearGradient id="_Linear1" x2="1" gradientTransform="matrix(2.54933e-15,-41.6338,41.6338,2.54933e-15,897.879,52.7218)" gradientUnits="userSpaceOnUse">
   <stop style="stop-color:rgb(16,117,246)" offset="0"/>
   <stop style="stop-color:rgb(18,197,255)" offset="1"/>
  </linearGradient>
 </defs>
</svg>
