<svg clip-rule="evenodd" fill-rule="evenodd" stroke-linejoin="round" stroke-miterlimit="2" viewBox="0 0 48 48" xmlns="http://www.w3.org/2000/svg">
 <linearGradient id="a" x2="1" gradientTransform="matrix(0 -15.9871 15.9871 0 8 15.9871)" gradientUnits="userSpaceOnUse">
  <stop stop-color="#074644" offset="0"/>
  <stop stop-color="#214752" offset="1"/>
 </linearGradient>
 <path transform="matrix(2.4933 0 0 2.4933 4.05363 4.50428)" d="m11 7.819h-6v.181c0 1.66 1.34 3 3 3s3-1.34 3-3z" fill="#dfaf22"/>
 <path transform="matrix(2.81299 0 0 2.81299 1.49608 1.49608)" d="m8.492 15.159h1.702v.841h-4.388v-.841h1.702v-2.683c-1.765-.049-3.979-1.506-3.979-4.476v-1.715h.812v1.715c0 2.23 1.429 3.603 3.659 3.603s3.659-1.373 3.659-3.603v-1.715h.812v1.715c0 2.97-2.252 4.459-3.979 4.476zm-.492-15.159c1.66 0 3 1.34 3 3v5c0 1.66-1.34 3-3 3s-3-1.34-3-3v-5c0-1.66 1.34-3 3-3zm0 1.02c-1.096 0-1.98.884-1.98 1.98v5c0 1.096.884 1.98 1.98 1.98s1.98-.884 1.98-1.98v-5c0-1.096-.884-1.98-1.98-1.98z" fill="url(#a)"/>
</svg>
