<svg clip-rule="evenodd" fill-rule="evenodd" stroke-linejoin="round" stroke-miterlimit="2" viewBox="0 0 16 16" xmlns="http://www.w3.org/2000/svg">
 <path transform="matrix(.369208 0 0 .369208 -.860993 -.860993)" d="m39.44 45.668h-30.88c-3.438 0-6.228-2.79-6.228-6.228v-30.88c0-3.438 2.79-6.228 6.228-6.228h30.88c3.438 0 6.228 2.79 6.228 6.228v30.88c0 3.438-2.79 6.228-6.228 6.228z" fill="#8fb633"/>
 <path transform="matrix(0 1 -1 0 15.7827 .920332)" d="m10.7 12.918h-7.241c-1.357 0-2.459-1.102-2.459-2.459v-4.918c0-1.357 1.102-2.459 2.459-2.459h1.057v-1.792l4.447 2.323-4.447 2.322v-1.853h-1.057c-.805 0-1.459.654-1.459 1.459v4.918c0 .805.654 1.459 1.459 1.459h7.241c.805 0 1.459-.654 1.459-1.459v-4.918c0-.805-.654-1.459-1.459-1.459h-.7v-1h.7c1.357 0 2.459 1.102 2.459 2.459v4.918c0 1.357-1.102 2.459-2.459 2.459z" fill="#fff"/>
</svg>
