<svg clip-rule="evenodd" fill-rule="evenodd" stroke-linejoin="round" stroke-miterlimit="2" viewBox="0 0 16 16" xmlns="http://www.w3.org/2000/svg">
 <path transform="matrix(.369208 0 0 .369208 -.860993 -.860993)" d="m39.44 45.668h-30.88c-3.438 0-6.228-2.79-6.228-6.228v-30.88c0-3.438 2.79-6.228 6.228-6.228h30.88c3.438 0 6.228 2.79 6.228 6.228v30.88c0 3.438-2.79 6.228-6.228 6.228z" fill="#8fb633"/>
 <path transform="matrix(.468325 0 0 .468325 -3.13787 -2.87897)" d="m22.636 35.933h-.209c-.198 0-.356-.161-.356-.358v-.601c-.847-.214-1.09-.717-1.09-1.751 0-1.525 1.238-2.764 2.764-2.764 1.525 0 2.763 1.239 2.763 2.764 0 1.019-.258 1.52-1.088 1.741v.609c0 .198-.16.358-.358.358h-.207c-.197 0-.358-.16-.358-.358v-.479c-.093.007-.189.01-.29.014v.467c0 .196-.16.356-.358.356h-.207c-.198 0-.358-.16-.358-.356v-.466c-.101-.003-.199-.006-.292-.011v.477c0 .197-.16.358-.356.358zm2.243-3.834c.451-.128.848.368.848.824 0 .453-.445 1.061-.848.821-.494-.293-.849-.368-.849-.821 0-.456.331-.677.849-.824zm-2.28 0c.469.183.849.368.849.824 0 .453-.307.54-.849.821-.416.216-.849-.368-.849-.821 0-.456.412-.994.849-.824zm1.192-9.303c-1.548-.003-2.807 1.251-2.81 2.802-.003 1.55 1.25 2.81 2.798 2.813 1.549.004 2.807-1.251 2.811-2.801.003-1.551-1.25-2.811-2.799-2.814zm-9.138.818c.663.668 1.741.67 2.407.005l6.735-7.411 6.704 7.439c.663.668 1.74.671 2.407.005.666-.665.668-1.745.005-2.413l-7.798-8.654c-.359-.361-.838-.521-1.309-.493-.47-.03-.951.128-1.311.487l-7.835 8.622c-.665.665-.667 1.745-.005 2.413z" fill="#fff"/>
</svg>
