<svg clip-rule="evenodd" fill-rule="evenodd" stroke-linejoin="round" stroke-miterlimit="2" viewBox="0 0 48 48" xmlns="http://www.w3.org/2000/svg">
 <circle cx="23" cy="24" r="20" fill="#583996"/>
 <path d="m33.444 4.002c-1.038.051-1.645 1.193-1.106 2.083.908 1.501 1.662 3.222 1.662 4.977 0 5.323-4.558 9.935-9.881 9.938-1.166-.009-2.322-.555-3.409-.977-1.22-.474-2.348.866-1.673 1.988 2.23 3.707 6.242 5.981 10.568 5.989h.002c6.81 0 12.36-5.55 12.36-12.36-.001-5.126-3.176-9.729-7.966-11.551-.178-.067-.367-.097-.557-.087z" fill="#ffcc42" fill-rule="nonzero"/>
 <g fill="#6f74ac">
  <circle cx="13" cy="26" r="6"/>
  <circle cx="23" cy="20" r="8"/>
  <circle cx="33" cy="26" r="6"/>
  <path d="m13 24h20v8h-20z"/>
 </g>
 <path d="m31.999 33c-.226.364-1.662 2.708-1.996 3.976-.031.491.2 1.038.597 1.431.387.383.892.582 1.399.593zm.002 0v6c.507-.011 1.012-.21 1.399-.593.397-.393.628-.94.597-1.431-.334-1.268-1.77-3.612-1.996-3.976z" fill="#7df5ff" fill-rule="nonzero"/>
 <path d="m12.999 33c-.226.364-1.662 2.708-1.996 3.976-.031.491.2 1.038.597 1.431.387.383.892.582 1.399.593zm.002 0v6c.507-.011 1.012-.21 1.399-.593.397-.393.628-.94.597-1.431-.334-1.268-1.77-3.612-1.996-3.976z" fill="#7df5ff" fill-rule="nonzero"/>
 <path d="m22.999 33c-.226.364-1.662 2.708-1.996 3.976-.031.491.2 1.038.597 1.431.387.383.892.582 1.399.593zm.002 0v6c.507-.011 1.012-.21 1.399-.593.397-.393.628-.94.597-1.431-.334-1.268-1.77-3.612-1.996-3.976z" fill="#7df5ff" fill-rule="nonzero"/>
</svg>
