<svg clip-rule="evenodd" fill-rule="evenodd" stroke-linejoin="round" stroke-miterlimit="2" viewBox="0 0 48 48" xmlns="http://www.w3.org/2000/svg">
 <g fill-rule="nonzero">
  <path d="m43 24c0 5.348-2.099 10.206-5.519 13.795-3.642 3.823-9.698.006-15.396.006-5.785 0-10.081 3.743-13.733-.183-3.321-3.571-5.352-8.357-5.352-13.618 0-11.046 8.954-20 20-20s20 8.954 20 20z" fill="#0091cf"/>
  <path d="m31 2-4 4h-6v6l-4 4 4 4v6h6l4 4 4-4h6v-6l4-4-4-4v-6h-6z" fill="#ff9c42"/>
  <path transform="matrix(.923744 -.383011 .383011 .923744 -3.76423 13.0934)" d="m31 2-4 4h-6v6l-4 4 4 4v6h6l4 4 4-4h6v-6l4-4-4-4v-6h-6z" fill="#ffcc42"/>
 </g>
 <path transform="translate(1.01767)" d="m11.982 43.914c-2.827-.484-4.982-2.949-4.982-5.914 0-3.311 2.689-6 6-6 .962 0 1.871.227 2.677.63-.001-.06-.002-.121-.002-.181 0-4.416 3.585-8 8-8 3.362 0 6.243 2.078 7.426 5.019.189-.014.381-.022.574-.022 4.016 0 7.277 3.261 7.277 7.277 0 3.913-3.096 7.109-6.97 7.271v.006h-20z" fill="#fff"/>
 <path transform="translate(1.98233 .241589)" d="m26 27c-1.268.003-2.398.804-2.82 2h3.445c.552 0 1 .448 1 1s-.448 1-1 1h-9.625c-.554 0-.831.279-.841.7-.012.484.287.77.841.77h9c1.657 0 3-.813 3-2.47s-1.343-3-3-3zm-11 7.459c-.554 0-.965.217-.965.771s.411.77.965.77h14.452c.553 0 1 .448 1 1s-.447 1-1 1h-3.272c.422 1.196 1.552 1.997 2.82 2 1.657 0 3-1.343 3-3s-1.343-2.541-3-2.541zm-2 3.089c-.554 0-.965.198-.965.752s.411.7.965.7h9.551c.553 0 1 .448 1 1s-.447 1-1 1h-3.371c.422 1.196 1.552 1.997 2.82 2 1.657 0 3-1.343 3-3s-1.343-2.452-3-2.452z" fill="#4f4f4f" fill-rule="nonzero"/>
 <path d="m5 23c-2.208 0-4-1.792-4-4s1.792-4 4-4c0-3.311 2.689-6 6-6 2.615 0 4.841 1.676 5.662 4.011.112-.007.224-.011.338-.011 2.76 0 5 2.24 5 5s-2.24 5-5 5c-.169 0-.336-.008-.5-.025v.025z" fill="#fff"/>
</svg>
