<svg clip-rule="evenodd" fill-rule="evenodd" stroke-linejoin="round" stroke-miterlimit="2" viewBox="0 0 48 48" xmlns="http://www.w3.org/2000/svg">
 <circle cx="23" cy="24" r="20" fill="#583996"/>
 <g fill-rule="nonzero">
  <path d="m33.444 4.002c-1.038.051-1.645 1.193-1.106 2.083.908 1.501 1.662 3.222 1.662 4.977 0 5.323-4.558 9.935-9.881 9.938-1.166-.009-2.322-.555-3.409-.977-1.22-.474-2.348.866-1.673 1.988 2.23 3.707 6.242 5.981 10.568 5.989h.002c6.81 0 12.36-5.55 12.36-12.36-.001-5.126-3.176-9.729-7.966-11.551-.178-.067-.367-.097-.557-.087z" fill="#ffcc42"/>
  <path transform="matrix(.273711 -.158027 .158027 .273711 21.1542 12.1371)" d="m14.5 14.67-.085 3.683 1.915 3.147-3.683-.085-3.147 1.915.085-3.683-1.915-3.147 3.683.085z" fill="#fff"/>
  <path transform="matrix(.130722 -.0754726 .0754726 .130722 9.73052 10.1551)" d="m14.5 14.67-.085 3.683 1.915 3.147-3.683-.085-3.147 1.915.085-3.683-1.915-3.147 3.683.085z" fill="#fff"/>
  <path transform="matrix(.386649 -.223232 .223232 .386649 8.62913 8.83914)" d="m14.5 14.67-.085 3.683 1.915 3.147-3.683-.085-3.147 1.915.085-3.683-1.915-3.147 3.683.085z" fill="#fff"/>
  <path transform="matrix(.273711 -.158027 .158027 .273711 6.27166 18.2545)" d="m14.5 14.67-.085 3.683 1.915 3.147-3.683-.085-3.147 1.915.085-3.683-1.915-3.147 3.683.085z" fill="#fff"/>
  <path transform="matrix(.130722 -.0754726 .0754726 .130722 20.7305 8.15511)" d="m14.5 14.67-.085 3.683 1.915 3.147-3.683-.085-3.147 1.915.085-3.683-1.915-3.147 3.683.085z" fill="#fff"/>
  <path transform="matrix(-.0754726 -.130722 .130722 -.0754726 11.4377 31.9906)" d="m14.5 14.67-.085 3.683 1.915 3.147-3.683-.085-3.147 1.915.085-3.683-1.915-3.147 3.683.085z" fill="#fff"/>
  <path transform="matrix(.273711 -.158027 .158027 .273711 32.596 25.6476)" d="m14.5 14.67-.085 3.683 1.915 3.147-3.683-.085-3.147 1.915.085-3.683-1.915-3.147 3.683.085z" fill="#fff"/>
  <path transform="matrix(.273711 -.158027 .158027 .273711 1.15424 25.2545)" d="m14.5 14.67-.085 3.683 1.915 3.147-3.683-.085-3.147 1.915.085-3.683-1.915-3.147 3.683.085z" fill="#fff"/>
  <path transform="matrix(.130722 -.0754726 .0754726 .130722 4.26419 16.1551)" d="m14.5 14.67-.085 3.683 1.915 3.147-3.683-.085-3.147 1.915.085-3.683-1.915-3.147 3.683.085z" fill="#fff"/>
  <path transform="matrix(.130722 -.0754726 .0754726 .130722 18.7305 15.6888)" d="m14.5 14.67-.085 3.683 1.915 3.147-3.683-.085-3.147 1.915.085-3.683-1.915-3.147 3.683.085z" fill="#fff"/>
 </g>
 <path d="m13 44c-3.311 0-6-2.689-6-6s2.689-6 6-6c.772 0 1.51.146 2.188.412-.002-.064-.002-.127-.002-.191 0-4.865 3.949-8.815 8.814-8.815 4.266 0 7.828 3.038 8.641 7.066.164-.012.33-.018.497-.018 3.738 0 6.773 3.035 6.773 6.773s-3.035 6.773-6.773 6.773c-.046 0-.092 0-.138-.001v.001z" fill="#fff"/>
</svg>
