<svg clip-rule="evenodd" fill-rule="evenodd" stroke-linejoin="round" stroke-miterlimit="2" viewBox="0 0 48 48" xmlns="http://www.w3.org/2000/svg">
 <path d="m43 24c0 5.348-2.099 10.206-5.519 13.795-3.642 3.823-9.698.006-15.396.006-5.785 0-10.081 3.743-13.733-.183-3.321-3.571-5.352-8.357-5.352-13.618 0-11.046 8.954-20 20-20s20 8.954 20 20z" fill="#0091cf" fill-rule="nonzero"/>
 <g fill="#fff">
  <path d="m13 44c-3.311 0-6-2.689-6-6s2.689-6 6-6c.704 0 1.38.121 2.007.345-.005-.115-.007-.23-.007-.345 0-4.415 3.585-8 8-8 3.494 0 6.468 2.245 7.557 5.37.79-.281 1.64-.435 2.526-.435 4.157 0 7.532 3.375 7.532 7.533 0 4.157-3.375 7.532-7.532 7.532-.028 0-.055 0-.083 0z"/>
  <path d="m5 23c-2.208 0-4-1.792-4-4s1.792-4 4-4c0-3.311 2.689-6 6-6 2.615 0 4.841 1.676 5.662 4.011.112-.007.224-.011.338-.011 2.76 0 5 2.24 5 5s-2.24 5-5 5c-.169 0-.336-.008-.5-.025v.025z"/>
  <path transform="scale(-1 1)" d="m-32.655 16.043c-1.115-2.387-3.538-4.043-6.345-4.043-3.863 0-7 3.137-7 7s3.137 7 7 7h7c2.76 0 5-2.24 5-5s-2.24-5-5-5c-.222 0-.44.014-.655.043z"/>
 </g>
</svg>
