<svg clip-rule="evenodd" fill-rule="evenodd" stroke-linejoin="round" stroke-miterlimit="2" viewBox="0 0 48 48" xmlns="http://www.w3.org/2000/svg">
 <circle cx="23.000479" cy="24" r="20.116" fill="#0091cf"/>
 <path d="m31 2-4 4h-6v6l-4 4 4 4v6h6l4 4 4-4h6v-6l4-4-4-4v-6h-6z" fill="#ff9c42" fill-rule="nonzero"/>
 <path transform="matrix(.923744 -.383011 .383011 .923744 -3.76423 13.0934)" d="m31 2-4 4h-6v6l-4 4 4 4v6h6l4 4 4-4h6v-6l4-4-4-4v-6h-6z" fill="#ffcc42" fill-rule="nonzero"/>
 <g fill="#fff">
  <path transform="translate(.024414 -13.1769)" d="m11.982 44c-2.827-.484-4.982-3.035-4.982-6 0-3.311 2.689-6 6-6 .962 0 1.871.227 2.677.63-.001-.06-.002-.121-.002-.181 0-4.416 3.585-8 8-8 3.362 0 6.243 2.078 7.426 5.019.189-.014.381-.022.574-.022 4.016 0 7.277 3.261 7.277 7.277 0 3.913-3.096 7.109-6.97 7.271v.006z"/>
  <path transform="matrix(1 0 0 1.16592 .633008 -4.80595)" d="m23.001 39c-.507-.011-1.014-.21-1.401-.593-.397-.393-.628-.94-.597-1.431.334-1.268 1.772-3.612 1.998-3.976.226.364 1.662 2.708 1.996 3.976.031.491-.2 1.038-.597 1.431-.387.383-.892.582-1.399.593z"/>
  <path transform="matrix(1 0 0 1.16592 8 -7.01475)" d="m23.001 39c-.507-.011-1.014-.21-1.401-.593-.397-.393-.628-.94-.597-1.431.334-1.268 1.772-3.612 1.998-3.976.226.364 1.662 2.708 1.996 3.976.031.491-.2 1.038-.597 1.431-.387.383-.892.582-1.399.593z"/>
  <path transform="matrix(1 0 0 1.16592 -6.35719 -7.01475)" d="m23.001 39c-.507-.011-1.014-.21-1.401-.593-.397-.393-.628-.94-.597-1.431.334-1.268 1.772-3.612 1.998-3.976.226.364 1.662 2.708 1.996 3.976.031.491-.2 1.038-.597 1.431-.387.383-.892.582-1.399.593z"/>
 </g>
</svg>
